<svg width="452" height="168" viewBox="0 0 452 168" fill="none" xmlns="http://www.w3.org/2000/svg">
<g clip-path="url(#clip0_9030_6865)">
<rect width="452" height="168" rx="4" fill="white"/>
<path d="M33 33C33 30.7909 34.7909 29 37 29H480V65H33V33Z" fill="#F1F6F8" stroke="#CBD4D8"/>
<path d="M358.5 41H358V52.5H358.5V41Z" stroke="#CBD4D8"/>
<path d="M164.5 41H164V53.5H164.5V41Z" stroke="#CBD4D8"/>
<path d="M112.281 44H60.7188C59.7695 44 59 44.8954 59 46C59 47.1046 59.7695 48 60.7188 48H112.281C113.23 48 114 47.1046 114 46C114 44.8954 113.23 44 112.281 44Z" fill="#CBD4D8"/>
<path d="M301.156 44H185.844C183.721 44 182 44.8954 182 46C182 47.1046 183.721 48 185.844 48H301.156C303.279 48 305 47.1046 305 46C305 44.8954 303.279 44 301.156 44Z" fill="#CBD4D8"/>
<path d="M438 44H378C376.895 44 376 44.8954 376 46C376 47.1046 376.895 48 378 48H438C439.105 48 440 47.1046 440 46C440 44.8954 439.105 44 438 44Z" fill="#CBD4D8"/>
<rect x="33.5" y="64.5" width="446" height="35" fill="white" stroke="#CBD4D8"/>
<path fill-rule="evenodd" clip-rule="evenodd" d="M319 83C319 87.4183 322.582 91 327 91C329.122 91 331.157 90.1571 332.657 88.6569C334.157 87.1566 335 85.1217 335 83C335 78.5817 331.418 75 327 75C322.582 75 319 78.5817 319 83ZM320 83C320 79.134 323.134 76 327 76C330.866 76 334 79.134 334 83C334 86.866 330.866 90 327 90C323.134 90 320 86.866 320 83ZM328.5 86.5H327.5V81.05H326C325.724 81.05 325.5 81.2739 325.5 81.55C325.5 81.8261 325.724 82.05 326 82.05H326.5V86.5H325.5C325.224 86.5 325 86.7239 325 87C325 87.2761 325.224 87.5 325.5 87.5H328.5C328.776 87.5 329 87.2761 329 87C329 86.7239 328.776 86.5 328.5 86.5ZM327.685 79.225C327.685 79.6116 327.372 79.925 326.985 79.925C326.598 79.925 326.285 79.6116 326.285 79.225C326.285 78.8384 326.598 78.525 326.985 78.525C327.372 78.525 327.685 78.8384 327.685 79.225Z" fill="#1B2B32"/>
<path d="M125.97 80H60.0303C59.4613 80 59 80.8954 59 82C59 83.1046 59.4613 84 60.0303 84H125.97C126.539 84 127 83.1046 127 82C127 80.8954 126.539 80 125.97 80Z" fill="#CBD4D8"/>
<path d="M302.861 80H184.139C182.958 80 182 80.8954 182 82C182 83.1046 182.958 84 184.139 84H302.861C304.042 84 305 83.1046 305 82C305 80.8954 304.042 80 302.861 80Z" fill="#CBD4D8"/>
<path d="M458.539 80H377.461C376.654 80 376 80.8954 376 82C376 83.1046 376.654 84 377.461 84H458.539C459.346 84 460 83.1046 460 82C460 80.8954 459.346 80 458.539 80Z" fill="#CBD4D8"/>
<rect x="33.5" y="99.5" width="446" height="35" fill="white" stroke="#CBD4D8"/>
<path fill-rule="evenodd" clip-rule="evenodd" d="M319 116C319 120.418 322.582 124 327 124C329.122 124 331.157 123.157 332.657 121.657C334.157 120.157 335 118.122 335 116C335 111.582 331.418 108 327 108C322.582 108 319 111.582 319 116ZM320 116C320 112.134 323.134 109 327 109C330.866 109 334 112.134 334 116C334 119.866 330.866 123 327 123C323.134 123 320 119.866 320 116ZM328.5 119.5H327.5V114.05H326C325.724 114.05 325.5 114.274 325.5 114.55C325.5 114.826 325.724 115.05 326 115.05H326.5V119.5H325.5C325.224 119.5 325 119.724 325 120C325 120.276 325.224 120.5 325.5 120.5H328.5C328.776 120.5 329 120.276 329 120C329 119.724 328.776 119.5 328.5 119.5ZM327.685 112.225C327.685 112.612 327.372 112.925 326.985 112.925C326.598 112.925 326.285 112.612 326.285 112.225C326.285 111.838 326.598 111.525 326.985 111.525C327.372 111.525 327.685 111.838 327.685 112.225Z" fill="#1B2B32"/>
<path d="M125.97 115H60.0303C59.4613 115 59 115.895 59 117C59 118.105 59.4613 119 60.0303 119H125.97C126.539 119 127 118.105 127 117C127 115.895 126.539 115 125.97 115Z" fill="#CBD4D8"/>
<rect x="33.5" y="134.5" width="446" height="35" fill="white" stroke="#CBD4D8"/>
<path fill-rule="evenodd" clip-rule="evenodd" d="M319 152C319 156.418 322.582 160 327 160C329.122 160 331.157 159.157 332.657 157.657C334.157 156.157 335 154.122 335 152C335 147.582 331.418 144 327 144C322.582 144 319 147.582 319 152ZM320 152C320 148.134 323.134 145 327 145C330.866 145 334 148.134 334 152C334 155.866 330.866 159 327 159C323.134 159 320 155.866 320 152ZM328.5 155.5H327.5V150.05H326C325.724 150.05 325.5 150.274 325.5 150.55C325.5 150.826 325.724 151.05 326 151.05H326.5V155.5H325.5C325.224 155.5 325 155.724 325 156C325 156.276 325.224 156.5 325.5 156.5H328.5C328.776 156.5 329 156.276 329 156C329 155.724 328.776 155.5 328.5 155.5ZM327.685 148.225C327.685 148.612 327.372 148.925 326.985 148.925C326.598 148.925 326.285 148.612 326.285 148.225C326.285 147.838 326.598 147.525 326.985 147.525C327.372 147.525 327.685 147.838 327.685 148.225Z" fill="#1B2B32"/>
<path d="M125.97 148H60.0303C59.4613 148 59 148.895 59 150C59 151.105 59.4613 152 60.0303 152H125.97C126.539 152 127 151.105 127 150C127 148.895 126.539 148 125.97 148Z" fill="#CBD4D8"/>
<path d="M302.861 115H184.139C182.958 115 182 115.895 182 117C182 118.105 182.958 119 184.139 119H302.861C304.042 119 305 118.105 305 117C305 115.895 304.042 115 302.861 115Z" fill="#CBD4D8"/>
<path d="M458.539 115H377.461C376.654 115 376 115.895 376 117C376 118.105 376.654 119 377.461 119H458.539C459.346 119 460 118.105 460 117C460 115.895 459.346 115 458.539 115Z" fill="#CBD4D8"/>
<path d="M284.191 148H183.809C182.81 148 182 148.895 182 150C182 151.105 182.81 152 183.809 152H284.191C285.19 152 286 151.105 286 150C286 148.895 285.19 148 284.191 148Z" fill="#CBD4D8"/>
<path d="M445.765 148H377.235C376.553 148 376 148.895 376 150C376 151.105 376.553 152 377.235 152H445.765C446.447 152 447 151.105 447 150C447 148.895 446.447 148 445.765 148Z" fill="#CBD4D8"/>
</g>
<rect x="0.5" y="0.5" width="451" height="167" rx="3.5" stroke="#ACB9BE"/>
<defs>
<clipPath id="clip0_9030_6865">
<rect width="452" height="168" rx="4" fill="white"/>
</clipPath>
</defs>
</svg>
