<svg width="284" height="400" viewBox="0 0 284 400" fill="none" xmlns="http://www.w3.org/2000/svg">
<path d="M0.5 4C0.5 2.067 2.067 0.5 4 0.5H280C281.933 0.5 283.5 2.067 283.5 4V396C283.5 397.933 281.933 399.5 280 399.5H4C2.06701 399.5 0.5 397.933 0.5 396V4Z" fill="#FCFDFD"/>
<path d="M0.5 4C0.5 2.067 2.067 0.5 4 0.5H280C281.933 0.5 283.5 2.067 283.5 4V396C283.5 397.933 281.933 399.5 280 399.5H4C2.06701 399.5 0.5 397.933 0.5 396V4Z" stroke="#CBD4D8"/>
<path d="M19.4763 38.34L24.5163 34.18C25.4229 33.42 26.0696 32.7267 26.4563 32.1C26.8563 31.4733 27.0563 30.8467 27.0563 30.22C27.0563 29.5 26.8029 28.9267 26.2963 28.5C25.7896 28.06 25.1763 27.84 24.4563 27.84C23.7363 27.84 23.0896 28.0133 22.5163 28.36C21.9429 28.7067 21.4029 29.2133 20.8963 29.88L19.5363 28.68C20.8163 26.9067 22.4829 26.02 24.5363 26.02C25.3896 26.02 26.1629 26.1933 26.8563 26.54C27.5629 26.8867 28.1163 27.38 28.5163 28.02C28.9296 28.6467 29.1363 29.3667 29.1363 30.18C29.1363 31.1 28.8896 31.96 28.3963 32.76C27.9029 33.56 27.0696 34.44 25.8963 35.4L22.6763 38.12H29.2563V40H19.4763V38.34ZM37.1578 40.24C36.0245 40.24 35.0111 39.94 34.1178 39.34C33.2245 38.7267 32.5245 37.88 32.0178 36.8C31.5245 35.72 31.2778 34.4933 31.2778 33.12C31.2778 31.7467 31.5245 30.5267 32.0178 29.46C32.5245 28.38 33.2245 27.54 34.1178 26.94C35.0111 26.3267 36.0245 26.02 37.1578 26.02C38.2778 26.02 39.2778 26.3267 40.1578 26.94C41.0511 27.54 41.7445 28.38 42.2378 29.46C42.7445 30.5267 42.9978 31.7467 42.9978 33.12C42.9978 34.4933 42.7445 35.72 42.2378 36.8C41.7445 37.88 41.0578 38.7267 40.1778 39.34C39.2978 39.94 38.2911 40.24 37.1578 40.24ZM37.1578 38.38C37.8911 38.38 38.5445 38.16 39.1178 37.72C39.6911 37.2667 40.1378 36.64 40.4578 35.84C40.7778 35.04 40.9378 34.1333 40.9378 33.12C40.9378 32.1067 40.7778 31.2067 40.4578 30.42C40.1378 29.62 39.6911 29 39.1178 28.56C38.5445 28.1067 37.8911 27.88 37.1578 27.88C36.4245 27.88 35.7645 28.1067 35.1778 28.56C34.6045 29 34.1511 29.62 33.8178 30.42C33.4978 31.2067 33.3378 32.1067 33.3378 33.12C33.3378 34.1333 33.4978 35.04 33.8178 35.84C34.1511 36.64 34.6045 37.2667 35.1778 37.72C35.7645 38.16 36.4245 38.38 37.1578 38.38ZM47.5627 28.66L45.1827 30.18L44.3427 28.72L47.9627 26.26H49.5827V40H47.5627V28.66ZM57.2598 26.02C59.0865 26.02 60.4465 26.6533 61.3398 27.92C62.2332 29.1733 62.6798 30.84 62.6798 32.92C62.6798 34.2933 62.4265 35.54 61.9198 36.66C61.4265 37.7667 60.7332 38.64 59.8398 39.28C58.9598 39.92 57.9732 40.24 56.8798 40.24C55.3732 40.24 54.0398 39.7133 52.8798 38.66L53.9198 37.1C54.3865 37.5267 54.8532 37.8533 55.3198 38.08C55.7865 38.3067 56.3132 38.42 56.8998 38.42C57.5798 38.42 58.1998 38.1933 58.7598 37.74C59.3198 37.2733 59.7598 36.64 60.0798 35.84C60.4132 35.04 60.5932 34.14 60.6198 33.14C60.2065 33.7133 59.6665 34.16 58.9998 34.48C58.3465 34.7867 57.6465 34.94 56.8998 34.94C56.0465 34.94 55.2665 34.7667 54.5598 34.42C53.8665 34.0733 53.3132 33.58 52.8998 32.94C52.4865 32.2867 52.2798 31.52 52.2798 30.64C52.2798 29.7733 52.4932 28.9867 52.9198 28.28C53.3465 27.5733 53.9398 27.02 54.6998 26.62C55.4598 26.22 56.3132 26.02 57.2598 26.02ZM57.3598 33.24C58.1198 33.24 58.7798 33.04 59.3398 32.64C59.8998 32.24 60.2732 31.7067 60.4598 31.04C60.2865 30 59.9398 29.1933 59.4198 28.62C58.8998 28.0333 58.1998 27.74 57.3198 27.74C56.7198 27.74 56.1932 27.8733 55.7398 28.14C55.2998 28.4067 54.9532 28.76 54.6998 29.2C54.4598 29.6267 54.3398 30.0733 54.3398 30.54C54.3398 31.3533 54.6265 32.0067 55.1998 32.5C55.7865 32.9933 56.5065 33.24 57.3598 33.24ZM70.5677 33.64H75.8477V35.44H70.5677V33.64Z" fill="#0079AD"/>
<path d="M88.247 38.34L93.287 34.18C94.1936 33.42 94.8403 32.7267 95.227 32.1C95.627 31.4733 95.827 30.8467 95.827 30.22C95.827 29.5 95.5736 28.9267 95.067 28.5C94.5603 28.06 93.947 27.84 93.227 27.84C92.507 27.84 91.8603 28.0133 91.287 28.36C90.7136 28.7067 90.1736 29.2133 89.667 29.88L88.307 28.68C89.587 26.9067 91.2536 26.02 93.307 26.02C94.1603 26.02 94.9336 26.1933 95.627 26.54C96.3336 26.8867 96.887 27.38 97.287 28.02C97.7003 28.6467 97.907 29.3667 97.907 30.18C97.907 31.1 97.6603 31.96 97.167 32.76C96.6736 33.56 95.8403 34.44 94.667 35.4L91.447 38.12H98.027V40H88.247V38.34ZM105.929 40.24C104.795 40.24 103.782 39.94 102.889 39.34C101.995 38.7267 101.295 37.88 100.789 36.8C100.295 35.72 100.049 34.4933 100.049 33.12C100.049 31.7467 100.295 30.5267 100.789 29.46C101.295 28.38 101.995 27.54 102.889 26.94C103.782 26.3267 104.795 26.02 105.929 26.02C107.049 26.02 108.049 26.3267 108.929 26.94C109.822 27.54 110.515 28.38 111.009 29.46C111.515 30.5267 111.769 31.7467 111.769 33.12C111.769 34.4933 111.515 35.72 111.009 36.8C110.515 37.88 109.829 38.7267 108.949 39.34C108.069 39.94 107.062 40.24 105.929 40.24ZM105.929 38.38C106.662 38.38 107.315 38.16 107.889 37.72C108.462 37.2667 108.909 36.64 109.229 35.84C109.549 35.04 109.709 34.1333 109.709 33.12C109.709 32.1067 109.549 31.2067 109.229 30.42C108.909 29.62 108.462 29 107.889 28.56C107.315 28.1067 106.662 27.88 105.929 27.88C105.195 27.88 104.535 28.1067 103.949 28.56C103.375 29 102.922 29.62 102.589 30.42C102.269 31.2067 102.109 32.1067 102.109 33.12C102.109 34.1333 102.269 35.04 102.589 35.84C102.922 36.64 103.375 37.2667 103.949 37.72C104.535 38.16 105.195 38.38 105.929 38.38ZM113.413 38.34L118.453 34.18C119.36 33.42 120.007 32.7267 120.393 32.1C120.793 31.4733 120.993 30.8467 120.993 30.22C120.993 29.5 120.74 28.9267 120.233 28.5C119.727 28.06 119.113 27.84 118.393 27.84C117.673 27.84 117.027 28.0133 116.453 28.36C115.88 28.7067 115.34 29.2133 114.833 29.88L113.473 28.68C114.753 26.9067 116.42 26.02 118.473 26.02C119.327 26.02 120.1 26.1933 120.793 26.54C121.5 26.8867 122.053 27.38 122.453 28.02C122.867 28.6467 123.073 29.3667 123.073 30.18C123.073 31.1 122.827 31.96 122.333 32.76C121.84 33.56 121.007 34.44 119.833 35.4L116.613 38.12H123.193V40H113.413V38.34ZM130.375 40.24C129.402 40.24 128.522 40.08 127.735 39.76C126.948 39.44 126.328 38.9933 125.875 38.42C125.422 37.8333 125.195 37.1533 125.195 36.38C125.195 35.5667 125.462 34.86 125.995 34.26C126.542 33.6467 127.248 33.1933 128.115 32.9C127.315 32.58 126.688 32.1533 126.235 31.62C125.782 31.0867 125.555 30.4467 125.555 29.7C125.555 28.9533 125.775 28.3 126.215 27.74C126.668 27.18 127.262 26.7533 127.995 26.46C128.742 26.1667 129.535 26.02 130.375 26.02C131.242 26.02 132.042 26.1733 132.775 26.48C133.522 26.7733 134.115 27.2 134.555 27.76C134.995 28.32 135.215 28.9667 135.215 29.7C135.215 30.4733 134.975 31.1267 134.495 31.66C134.028 32.1933 133.415 32.6067 132.655 32.9C133.522 33.2067 134.222 33.6667 134.755 34.28C135.288 34.88 135.555 35.58 135.555 36.38C135.555 37.1533 135.322 37.8333 134.855 38.42C134.402 39.0067 133.782 39.46 132.995 39.78C132.208 40.0867 131.335 40.24 130.375 40.24ZM130.375 32.14C131.082 32.1 131.728 31.88 132.315 31.48C132.902 31.08 133.195 30.56 133.195 29.92C133.195 29.32 132.922 28.82 132.375 28.42C131.842 28.0067 131.175 27.8 130.375 27.8C129.575 27.8 128.908 28 128.375 28.4C127.842 28.8 127.575 29.3067 127.575 29.92C127.575 30.5733 127.862 31.1 128.435 31.5C129.022 31.8867 129.668 32.1 130.375 32.14ZM130.375 38.46C131.268 38.46 132.015 38.2533 132.615 37.84C133.215 37.4133 133.515 36.8667 133.515 36.2C133.515 35.7467 133.355 35.34 133.035 34.98C132.715 34.62 132.308 34.34 131.815 34.14C131.335 33.94 130.855 33.8333 130.375 33.82C129.908 33.8333 129.428 33.94 128.935 34.14C128.455 34.34 128.048 34.62 127.715 34.98C127.395 35.34 127.235 35.7467 127.235 36.2C127.235 36.8667 127.535 37.4133 128.135 37.84C128.735 38.2533 129.482 38.46 130.375 38.46Z" fill="#0079AD"/>
<path d="M179.722 28.88L174.711 34L179.722 39.12C180.007 39.4096 180.459 39.4007 180.733 39.1C181.007 38.7993 180.999 38.3208 180.714 38.0311L176.767 34L180.714 29.9644C180.999 29.6748 181.007 29.1962 180.733 28.8956C180.459 28.5949 180.007 28.5859 179.722 28.8756L179.722 28.88Z" fill="#3A4D55"/>
<path d="M213.187 37.4933L210.804 35.1111C210.732 35.0261 210.694 34.9167 210.698 34.8049C210.702 34.693 210.749 34.5869 210.828 34.5077C210.907 34.4286 211.013 34.3822 211.125 34.3779C211.237 34.3736 211.346 34.4116 211.431 34.4844L213.187 36.2222L217.027 32.3822C217.112 32.3094 217.221 32.2714 217.333 32.2757C217.445 32.28 217.551 32.3264 217.63 32.4055C217.709 32.4847 217.756 32.5908 217.76 32.7026C217.764 32.8145 217.726 32.9239 217.653 33.0089L213.187 37.4933Z" fill="#3A4D55"/>
<path d="M220.333 28.6667H218.889V29.5556H220.222V39.3333H207.778V29.5556H209.111V28.6667H207.667C207.563 28.6684 207.46 28.6906 207.365 28.732C207.27 28.7733 207.183 28.8331 207.111 28.9078C207.039 28.9825 206.982 29.0707 206.944 29.1673C206.906 29.264 206.887 29.3672 206.889 29.4711V39.4178C206.887 39.5217 206.906 39.6249 206.944 39.7216C206.982 39.8182 207.039 39.9064 207.111 39.9811C207.183 40.0558 207.27 40.1156 207.365 40.1569C207.46 40.1983 207.563 40.2205 207.667 40.2222H220.333C220.437 40.2205 220.54 40.1983 220.635 40.1569C220.73 40.1156 220.817 40.0558 220.889 39.9811C220.961 39.9064 221.018 39.8182 221.056 39.7216C221.094 39.6249 221.113 39.5217 221.111 39.4178V29.4711C221.113 29.3672 221.094 29.264 221.056 29.1673C221.018 29.0707 220.961 28.9825 220.889 28.9078C220.817 28.8331 220.73 28.7733 220.635 28.732C220.54 28.6906 220.437 28.6684 220.333 28.6667Z" fill="#3A4D55"/>
<path d="M210.444 30.4444C210.562 30.4444 210.675 30.3976 210.759 30.3143C210.842 30.2309 210.889 30.1179 210.889 30V27.3333C210.889 27.2155 210.842 27.1024 210.759 27.0191C210.675 26.9357 210.562 26.8889 210.444 26.8889C210.327 26.8889 210.214 26.9357 210.13 27.0191C210.047 27.1024 210 27.2155 210 27.3333V30C210 30.1179 210.047 30.2309 210.13 30.3143C210.214 30.3976 210.327 30.4444 210.444 30.4444Z" fill="#3A4D55"/>
<path d="M217.556 30.4444C217.673 30.4444 217.786 30.3976 217.87 30.3143C217.953 30.2309 218 30.1179 218 30V27.3333C218 27.2155 217.953 27.1024 217.87 27.0191C217.786 26.9357 217.673 26.8889 217.556 26.8889C217.438 26.8889 217.325 26.9357 217.241 27.0191C217.158 27.1024 217.111 27.2155 217.111 27.3333V30C217.111 30.1179 217.158 30.2309 217.241 30.3143C217.325 30.3976 217.438 30.4444 217.556 30.4444Z" fill="#3A4D55"/>
<path d="M216.222 28.6667H211.778V29.5556H216.222V28.6667Z" fill="#3A4D55"/>
<path d="M248.278 39.12L253.289 34L248.278 28.88C247.993 28.5904 247.541 28.5993 247.267 28.9C246.993 29.2007 247.001 29.6792 247.286 29.9689L251.233 34L247.286 38.0355C247.001 38.3252 246.993 38.8038 247.267 39.1044C247.541 39.4051 247.993 39.4141 248.278 39.1244L248.278 39.12Z" fill="#3A4D55"/>
<path d="M65.144 87.155L68.407 84.373C69.031 83.8357 69.4816 83.346 69.759 82.904C70.045 82.4533 70.188 82.0027 70.188 81.552C70.188 81.2053 70.1013 80.902 69.928 80.642C69.7546 80.3733 69.525 80.1697 69.239 80.031C68.953 79.8923 68.6496 79.823 68.329 79.823C67.835 79.823 67.393 79.9443 67.003 80.187C66.6216 80.4297 66.2663 80.772 65.937 81.214L65.222 80.629C66.028 79.485 67.0766 78.913 68.368 78.913C68.888 78.913 69.3646 79.0213 69.798 79.238C70.2313 79.4547 70.5736 79.7623 70.825 80.161C71.085 80.5597 71.215 81.019 71.215 81.539C71.215 82.137 71.0503 82.7047 70.721 83.242C70.4003 83.7707 69.863 84.36 69.109 85.01L66.769 87.038H71.306V88H65.144V87.155ZM76.4505 88.156C75.7312 88.156 75.0899 87.961 74.5265 87.571C73.9632 87.1723 73.5212 86.622 73.2005 85.92C72.8885 85.218 72.7325 84.4207 72.7325 83.528C72.7325 82.6353 72.8885 81.8423 73.2005 81.149C73.5212 80.447 73.9632 79.901 74.5265 79.511C75.0899 79.1123 75.7312 78.913 76.4505 78.913C77.1612 78.913 77.7982 79.1123 78.3615 79.511C78.9249 79.901 79.3625 80.447 79.6745 81.149C79.9952 81.8423 80.1555 82.6353 80.1555 83.528C80.1555 84.4207 79.9952 85.218 79.6745 85.92C79.3625 86.622 78.9249 87.1723 78.3615 87.571C77.8069 87.961 77.1699 88.156 76.4505 88.156ZM76.4505 87.22C76.9705 87.22 77.4342 87.064 77.8415 86.752C78.2489 86.4313 78.5652 85.9937 78.7905 85.439C79.0159 84.8757 79.1285 84.2387 79.1285 83.528C79.1285 82.8173 79.0159 82.1847 78.7905 81.63C78.5652 81.0667 78.2489 80.629 77.8415 80.317C77.4342 80.005 76.9705 79.849 76.4505 79.849C75.9305 79.849 75.4669 80.005 75.0595 80.317C74.6522 80.629 74.3315 81.0667 74.0975 81.63C73.8722 82.1847 73.7595 82.8173 73.7595 83.528C73.7595 84.2387 73.8722 84.8757 74.0975 85.439C74.3315 85.9937 74.6522 86.4313 75.0595 86.752C75.4669 87.064 75.9305 87.22 76.4505 87.22ZM83.1028 80.304L81.5428 81.318L81.1008 80.564L83.2978 79.069H84.1168V88H83.1028V80.304ZM89.1833 78.913C90.336 78.913 91.1896 79.3247 91.7443 80.148C92.299 80.9627 92.5763 82.046 92.5763 83.398C92.5763 84.2733 92.416 85.075 92.0953 85.803C91.7746 86.531 91.337 87.1073 90.7823 87.532C90.2363 87.948 89.6296 88.156 88.9623 88.156C88.4423 88.156 87.9786 88.065 87.5713 87.883C87.164 87.701 86.7826 87.4367 86.4273 87.09L86.9863 86.297C87.2983 86.6003 87.6103 86.8343 87.9223 86.999C88.2343 87.155 88.5896 87.233 88.9883 87.233C89.4563 87.233 89.8853 87.064 90.2753 86.726C90.6653 86.3793 90.973 85.9157 91.1983 85.335C91.4323 84.7457 91.5493 84.1 91.5493 83.398V83.281C91.272 83.7143 90.9123 84.0523 90.4703 84.295C90.037 84.529 89.556 84.646 89.0273 84.646C88.4813 84.646 87.9786 84.5377 87.5193 84.321C87.0686 84.0957 86.709 83.775 86.4403 83.359C86.1716 82.9343 86.0373 82.436 86.0373 81.864C86.0373 81.318 86.1716 80.8197 86.4403 80.369C86.709 79.9183 87.0816 79.563 87.5583 79.303C88.035 79.043 88.5766 78.913 89.1833 78.913ZM89.2093 83.775C89.7726 83.775 90.2536 83.6233 90.6523 83.32C91.0596 83.008 91.3196 82.605 91.4323 82.111C91.2936 81.4003 91.0336 80.837 90.6523 80.421C90.2796 79.9963 89.7943 79.784 89.1963 79.784C88.7716 79.784 88.3946 79.8837 88.0653 80.083C87.7446 80.2737 87.4976 80.525 87.3243 80.837C87.151 81.149 87.0643 81.474 87.0643 81.812C87.0643 82.41 87.268 82.8867 87.6753 83.242C88.0826 83.5973 88.594 83.775 89.2093 83.775Z" fill="#3A4D55"/>
<rect x="16" y="112" width="126" height="48" rx="4" fill="#0079AD"/>
<path d="M64.7326 138.674L68.0216 136.048C68.5762 135.606 68.9706 135.203 69.2046 134.839C69.4386 134.475 69.5556 134.107 69.5556 133.734C69.5556 133.327 69.4039 132.997 69.1006 132.746C68.8059 132.495 68.4506 132.369 68.0346 132.369C67.5926 132.369 67.1896 132.477 66.8256 132.694C66.4702 132.902 66.1192 133.214 65.7726 133.63L64.7196 132.655C65.6036 131.494 66.7259 130.913 68.0866 130.913C68.6759 130.913 69.2046 131.03 69.6726 131.264C70.1492 131.498 70.5219 131.827 70.7906 132.252C71.0679 132.677 71.2066 133.158 71.2066 133.695C71.2066 134.293 71.0462 134.852 70.7256 135.372C70.4136 135.883 69.8806 136.429 69.1266 137.01L67.2546 138.518H71.2976V140H64.7326V138.674ZM76.459 140.156C75.705 140.156 75.029 139.961 74.431 139.571C73.8417 139.172 73.378 138.622 73.04 137.92C72.7107 137.218 72.546 136.421 72.546 135.528C72.546 134.635 72.7107 133.842 73.04 133.149C73.378 132.447 73.8417 131.901 74.431 131.511C75.029 131.112 75.705 130.913 76.459 130.913C77.213 130.913 77.8847 131.112 78.474 131.511C79.072 131.901 79.5357 132.447 79.865 133.149C80.203 133.842 80.372 134.635 80.372 135.528C80.372 136.421 80.203 137.218 79.865 137.92C79.5357 138.622 79.072 139.172 78.474 139.571C77.8847 139.961 77.213 140.156 76.459 140.156ZM76.459 138.674C76.8924 138.674 77.278 138.54 77.616 138.271C77.9627 138.002 78.2314 137.63 78.422 137.153C78.6127 136.676 78.708 136.135 78.708 135.528C78.708 134.921 78.6127 134.38 78.422 133.903C78.2314 133.426 77.9627 133.058 77.616 132.798C77.278 132.529 76.8924 132.395 76.459 132.395C76.0257 132.395 75.6357 132.529 75.289 132.798C74.9424 133.058 74.6737 133.426 74.483 133.903C74.2924 134.38 74.197 134.921 74.197 135.528C74.197 136.135 74.2924 136.676 74.483 137.153C74.6737 137.63 74.9424 138.002 75.289 138.271C75.6357 138.54 76.0257 138.674 76.459 138.674ZM81.4427 138.674L84.7317 136.048C85.2864 135.606 85.6807 135.203 85.9147 134.839C86.1487 134.475 86.2657 134.107 86.2657 133.734C86.2657 133.327 86.1141 132.997 85.8107 132.746C85.5161 132.495 85.1607 132.369 84.7447 132.369C84.3027 132.369 83.8997 132.477 83.5357 132.694C83.1804 132.902 82.8294 133.214 82.4827 133.63L81.4297 132.655C82.3137 131.494 83.4361 130.913 84.7967 130.913C85.3861 130.913 85.9147 131.03 86.3827 131.264C86.8594 131.498 87.2321 131.827 87.5007 132.252C87.7781 132.677 87.9167 133.158 87.9167 133.695C87.9167 134.293 87.7564 134.852 87.4357 135.372C87.1237 135.883 86.5907 136.429 85.8367 137.01L83.9647 138.518H88.0077V140H81.4427V138.674ZM91.0502 132.941L89.5162 133.916L88.8662 132.772L91.3752 131.069H92.6752V140H91.0502V132.941Z" fill="white"/>
<rect x="124" y="112" width="18" height="48" fill="#0079AD"/>
<rect x="16" y="164" width="126" height="48" fill="#E0F6FF"/>
<path d="M64.0141 191.155L67.2771 188.373C67.9011 187.836 68.3517 187.346 68.6291 186.904C68.9151 186.453 69.0581 186.003 69.0581 185.552C69.0581 185.205 68.9714 184.902 68.7981 184.642C68.6247 184.373 68.3951 184.17 68.1091 184.031C67.8231 183.892 67.5197 183.823 67.1991 183.823C66.7051 183.823 66.2631 183.944 65.8731 184.187C65.4917 184.43 65.1364 184.772 64.8071 185.214L64.0921 184.629C64.8981 183.485 65.9467 182.913 67.2381 182.913C67.7581 182.913 68.2347 183.021 68.6681 183.238C69.1014 183.455 69.4437 183.762 69.6951 184.161C69.9551 184.56 70.0851 185.019 70.0851 185.539C70.0851 186.137 69.9204 186.705 69.5911 187.242C69.2704 187.771 68.7331 188.36 67.9791 189.01L65.6391 191.038H70.1761V192H64.0141V191.155ZM75.3207 192.156C74.6013 192.156 73.96 191.961 73.3967 191.571C72.8333 191.172 72.3913 190.622 72.0707 189.92C71.7587 189.218 71.6027 188.421 71.6027 187.528C71.6027 186.635 71.7587 185.842 72.0707 185.149C72.3913 184.447 72.8333 183.901 73.3967 183.511C73.96 183.112 74.6013 182.913 75.3207 182.913C76.0313 182.913 76.6683 183.112 77.2317 183.511C77.795 183.901 78.2327 184.447 78.5447 185.149C78.8653 185.842 79.0257 186.635 79.0257 187.528C79.0257 188.421 78.8653 189.218 78.5447 189.92C78.2327 190.622 77.795 191.172 77.2317 191.571C76.677 191.961 76.04 192.156 75.3207 192.156ZM75.3207 191.22C75.8407 191.22 76.3043 191.064 76.7117 190.752C77.119 190.431 77.4353 189.994 77.6607 189.439C77.886 188.876 77.9987 188.239 77.9987 187.528C77.9987 186.817 77.886 186.185 77.6607 185.63C77.4353 185.067 77.119 184.629 76.7117 184.317C76.3043 184.005 75.8407 183.849 75.3207 183.849C74.8007 183.849 74.337 184.005 73.9297 184.317C73.5223 184.629 73.2017 185.067 72.9677 185.63C72.7423 186.185 72.6297 186.817 72.6297 187.528C72.6297 188.239 72.7423 188.876 72.9677 189.439C73.2017 189.994 73.5223 190.431 73.9297 190.752C74.337 191.064 74.8007 191.22 75.3207 191.22ZM80.1529 191.155L83.4159 188.373C84.0399 187.836 84.4906 187.346 84.7679 186.904C85.0539 186.453 85.1969 186.003 85.1969 185.552C85.1969 185.205 85.1103 184.902 84.9369 184.642C84.7636 184.373 84.5339 184.17 84.2479 184.031C83.9619 183.892 83.6586 183.823 83.3379 183.823C82.8439 183.823 82.4019 183.944 82.0119 184.187C81.6306 184.43 81.2753 184.772 80.9459 185.214L80.2309 184.629C81.0369 183.485 82.0856 182.913 83.3769 182.913C83.8969 182.913 84.3736 183.021 84.8069 183.238C85.2403 183.455 85.5826 183.762 85.8339 184.161C86.0939 184.56 86.2239 185.019 86.2239 185.539C86.2239 186.137 86.0593 186.705 85.7299 187.242C85.4093 187.771 84.8719 188.36 84.1179 189.01L81.7779 191.038H86.3149V192H80.1529V191.155ZM90.6015 192.156C89.8995 192.156 89.2669 192.017 88.7035 191.74C88.1489 191.454 87.6982 191.081 87.3515 190.622L88.0535 189.959C88.3569 190.358 88.7252 190.67 89.1585 190.895C89.5919 191.12 90.0729 191.233 90.6015 191.233C91.2255 191.233 91.7282 191.077 92.1095 190.765C92.4909 190.453 92.6815 190.041 92.6815 189.53C92.6815 189.01 92.4779 188.616 92.0705 188.347C91.6632 188.078 91.0999 187.944 90.3805 187.944H89.4315V187.008L90.3935 187.021C91.0089 187.03 91.5115 186.895 91.9015 186.618C92.2915 186.332 92.4865 185.942 92.4865 185.448C92.4865 184.98 92.2959 184.594 91.9145 184.291C91.5419 183.988 91.0739 183.836 90.5105 183.836C90.0425 183.836 89.6222 183.944 89.2495 184.161C88.8769 184.378 88.5215 184.69 88.1835 185.097L87.5075 184.486C88.2962 183.437 89.3145 182.913 90.5625 182.913C91.1259 182.913 91.6285 183.017 92.0705 183.225C92.5212 183.424 92.8722 183.71 93.1235 184.083C93.3835 184.447 93.5135 184.863 93.5135 185.331C93.5135 185.868 93.3489 186.315 93.0195 186.67C92.6989 187.025 92.2872 187.277 91.7845 187.424C92.3132 187.545 92.7639 187.788 93.1365 188.152C93.5179 188.516 93.7085 188.993 93.7085 189.582C93.7085 190.076 93.5785 190.518 93.3185 190.908C93.0585 191.298 92.6902 191.606 92.2135 191.831C91.7455 192.048 91.2082 192.156 90.6015 192.156Z" fill="#3A4D55"/>
<rect x="16" y="216" width="126" height="48" fill="#E0F6FF"/>
<path d="M63.9442 243.155L67.2072 240.373C67.8312 239.836 68.2819 239.346 68.5592 238.904C68.8452 238.453 68.9882 238.003 68.9882 237.552C68.9882 237.205 68.9016 236.902 68.7282 236.642C68.5549 236.373 68.3252 236.17 68.0392 236.031C67.7532 235.892 67.4499 235.823 67.1292 235.823C66.6352 235.823 66.1932 235.944 65.8032 236.187C65.4219 236.43 65.0666 236.772 64.7372 237.214L64.0222 236.629C64.8282 235.485 65.8769 234.913 67.1682 234.913C67.6882 234.913 68.1649 235.021 68.5982 235.238C69.0316 235.455 69.3739 235.762 69.6252 236.161C69.8852 236.56 70.0152 237.019 70.0152 237.539C70.0152 238.137 69.8506 238.705 69.5212 239.242C69.2006 239.771 68.6632 240.36 67.9092 241.01L65.5692 243.038H70.1062V244H63.9442V243.155ZM75.2508 244.156C74.5315 244.156 73.8902 243.961 73.3268 243.571C72.7635 243.172 72.3215 242.622 72.0008 241.92C71.6888 241.218 71.5328 240.421 71.5328 239.528C71.5328 238.635 71.6888 237.842 72.0008 237.149C72.3215 236.447 72.7635 235.901 73.3268 235.511C73.8902 235.112 74.5315 234.913 75.2508 234.913C75.9615 234.913 76.5985 235.112 77.1618 235.511C77.7252 235.901 78.1628 236.447 78.4748 237.149C78.7955 237.842 78.9558 238.635 78.9558 239.528C78.9558 240.421 78.7955 241.218 78.4748 241.92C78.1628 242.622 77.7252 243.172 77.1618 243.571C76.6072 243.961 75.9702 244.156 75.2508 244.156ZM75.2508 243.22C75.7708 243.22 76.2345 243.064 76.6418 242.752C77.0492 242.431 77.3655 241.994 77.5908 241.439C77.8162 240.876 77.9288 240.239 77.9288 239.528C77.9288 238.817 77.8162 238.185 77.5908 237.63C77.3655 237.067 77.0492 236.629 76.6418 236.317C76.2345 236.005 75.7708 235.849 75.2508 235.849C74.7308 235.849 74.2672 236.005 73.8598 236.317C73.4525 236.629 73.1318 237.067 72.8978 237.63C72.6725 238.185 72.5598 238.817 72.5598 239.528C72.5598 240.239 72.6725 240.876 72.8978 241.439C73.1318 241.994 73.4525 242.431 73.8598 242.752C74.2672 243.064 74.7308 243.22 75.2508 243.22ZM80.0831 243.155L83.3461 240.373C83.9701 239.836 84.4208 239.346 84.6981 238.904C84.9841 238.453 85.1271 238.003 85.1271 237.552C85.1271 237.205 85.0404 236.902 84.8671 236.642C84.6938 236.373 84.4641 236.17 84.1781 236.031C83.8921 235.892 83.5888 235.823 83.2681 235.823C82.7741 235.823 82.3321 235.944 81.9421 236.187C81.5608 236.43 81.2054 236.772 80.8761 237.214L80.1611 236.629C80.9671 235.485 82.0158 234.913 83.3071 234.913C83.8271 234.913 84.3038 235.021 84.7371 235.238C85.1704 235.455 85.5128 235.762 85.7641 236.161C86.0241 236.56 86.1541 237.019 86.1541 237.539C86.1541 238.137 85.9894 238.705 85.6601 239.242C85.3394 239.771 84.8021 240.36 84.0481 241.01L81.7081 243.038H86.2451V244H80.0831V243.155ZM90.7527 244.156C90.094 244.156 89.5004 244.03 88.9717 243.779C88.4517 243.528 87.9967 243.181 87.6067 242.739L88.2697 241.998C89.0324 242.83 89.873 243.246 90.7917 243.246C91.199 243.246 91.563 243.159 91.8837 242.986C92.2044 242.813 92.4514 242.574 92.6247 242.271C92.8067 241.968 92.8977 241.63 92.8977 241.257C92.8977 240.685 92.6984 240.221 92.2997 239.866C91.901 239.511 91.3897 239.333 90.7657 239.333C90.055 239.333 89.392 239.563 88.7767 240.022L88.0357 239.658L88.1657 235.069H93.4437V236.031H89.1537L89.0627 239.034C89.652 238.635 90.289 238.436 90.9737 238.436C91.5197 238.436 92.0137 238.549 92.4557 238.774C92.9064 238.991 93.2617 239.311 93.5217 239.736C93.7904 240.152 93.9247 240.646 93.9247 241.218C93.9247 241.799 93.786 242.314 93.5087 242.765C93.24 243.207 92.863 243.549 92.3777 243.792C91.901 244.035 91.3594 244.156 90.7527 244.156Z" fill="#3A4D55"/>
<path d="M64.4521 295.155L67.7151 292.373C68.3391 291.836 68.7897 291.346 69.0671 290.904C69.3531 290.453 69.4961 290.003 69.4961 289.552C69.4961 289.205 69.4094 288.902 69.2361 288.642C69.0627 288.373 68.8331 288.17 68.5471 288.031C68.2611 287.892 67.9577 287.823 67.6371 287.823C67.1431 287.823 66.7011 287.944 66.3111 288.187C65.9297 288.43 65.5744 288.772 65.2451 289.214L64.5301 288.629C65.3361 287.485 66.3847 286.913 67.6761 286.913C68.1961 286.913 68.6727 287.021 69.1061 287.238C69.5394 287.455 69.8817 287.762 70.1331 288.161C70.3931 288.56 70.5231 289.019 70.5231 289.539C70.5231 290.137 70.3584 290.705 70.0291 291.242C69.7084 291.771 69.1711 292.36 68.4171 293.01L66.0771 295.038H70.6141V296H64.4521V295.155ZM75.7586 296.156C75.0393 296.156 74.398 295.961 73.8346 295.571C73.2713 295.172 72.8293 294.622 72.5086 293.92C72.1966 293.218 72.0406 292.421 72.0406 291.528C72.0406 290.635 72.1966 289.842 72.5086 289.149C72.8293 288.447 73.2713 287.901 73.8346 287.511C74.398 287.112 75.0393 286.913 75.7586 286.913C76.4693 286.913 77.1063 287.112 77.6696 287.511C78.233 287.901 78.6706 288.447 78.9826 289.149C79.3033 289.842 79.4636 290.635 79.4636 291.528C79.4636 292.421 79.3033 293.218 78.9826 293.92C78.6706 294.622 78.233 295.172 77.6696 295.571C77.115 295.961 76.478 296.156 75.7586 296.156ZM75.7586 295.22C76.2786 295.22 76.7423 295.064 77.1496 294.752C77.557 294.431 77.8733 293.994 78.0986 293.439C78.324 292.876 78.4366 292.239 78.4366 291.528C78.4366 290.817 78.324 290.185 78.0986 289.63C77.8733 289.067 77.557 288.629 77.1496 288.317C76.7423 288.005 76.2786 287.849 75.7586 287.849C75.2386 287.849 74.775 288.005 74.3676 288.317C73.9603 288.629 73.6396 289.067 73.4056 289.63C73.1803 290.185 73.0676 290.817 73.0676 291.528C73.0676 292.239 73.1803 292.876 73.4056 293.439C73.6396 293.994 73.9603 294.431 74.3676 294.752C74.775 295.064 75.2386 295.22 75.7586 295.22ZM80.5909 295.155L83.8539 292.373C84.4779 291.836 84.9286 291.346 85.2059 290.904C85.4919 290.453 85.6349 290.003 85.6349 289.552C85.6349 289.205 85.5483 288.902 85.3749 288.642C85.2016 288.373 84.9719 288.17 84.6859 288.031C84.3999 287.892 84.0966 287.823 83.7759 287.823C83.2819 287.823 82.8399 287.944 82.4499 288.187C82.0686 288.43 81.7133 288.772 81.3839 289.214L80.6689 288.629C81.4749 287.485 82.5236 286.913 83.8149 286.913C84.3349 286.913 84.8116 287.021 85.2449 287.238C85.6783 287.455 86.0206 287.762 86.2719 288.161C86.5319 288.56 86.6619 289.019 86.6619 289.539C86.6619 290.137 86.4973 290.705 86.1679 291.242C85.8473 291.771 85.3099 292.36 84.5559 293.01L82.2159 295.038H86.7529V296H80.5909V295.155ZM92.5215 288.031H87.6855V287.069H93.7305V287.836L89.8825 296H88.7125L92.5215 288.031Z" fill="#3A4D55"/>
<path d="M189.303 87.155L192.566 84.373C193.19 83.8357 193.641 83.346 193.918 82.904C194.204 82.4533 194.347 82.0027 194.347 81.552C194.347 81.2053 194.26 80.902 194.087 80.642C193.914 80.3733 193.684 80.1697 193.398 80.031C193.112 79.8923 192.809 79.823 192.488 79.823C191.994 79.823 191.552 79.9443 191.162 80.187C190.781 80.4297 190.425 80.772 190.096 81.214L189.381 80.629C190.187 79.485 191.236 78.913 192.527 78.913C193.047 78.913 193.524 79.0213 193.957 79.238C194.39 79.4547 194.733 79.7623 194.984 80.161C195.244 80.5597 195.374 81.019 195.374 81.539C195.374 82.137 195.209 82.7047 194.88 83.242C194.559 83.7707 194.022 84.36 193.268 85.01L190.928 87.038H195.465V88H189.303V87.155ZM200.61 88.156C199.89 88.156 199.249 87.961 198.686 87.571C198.122 87.1723 197.68 86.622 197.36 85.92C197.048 85.218 196.892 84.4207 196.892 83.528C196.892 82.6353 197.048 81.8423 197.36 81.149C197.68 80.447 198.122 79.901 198.686 79.511C199.249 79.1123 199.89 78.913 200.61 78.913C201.32 78.913 201.957 79.1123 202.521 79.511C203.084 79.901 203.522 80.447 203.834 81.149C204.154 81.8423 204.315 82.6353 204.315 83.528C204.315 84.4207 204.154 85.218 203.834 85.92C203.522 86.622 203.084 87.1723 202.521 87.571C201.966 87.961 201.329 88.156 200.61 88.156ZM200.61 87.22C201.13 87.22 201.593 87.064 202.001 86.752C202.408 86.4313 202.724 85.9937 202.95 85.439C203.175 84.8757 203.288 84.2387 203.288 83.528C203.288 82.8173 203.175 82.1847 202.95 81.63C202.724 81.0667 202.408 80.629 202.001 80.317C201.593 80.005 201.13 79.849 200.61 79.849C200.09 79.849 199.626 80.005 199.219 80.317C198.811 80.629 198.491 81.0667 198.257 81.63C198.031 82.1847 197.919 82.8173 197.919 83.528C197.919 84.2387 198.031 84.8757 198.257 85.439C198.491 85.9937 198.811 86.4313 199.219 86.752C199.626 87.064 200.09 87.22 200.61 87.22ZM205.442 87.155L208.705 84.373C209.329 83.8357 209.78 83.346 210.057 82.904C210.343 82.4533 210.486 82.0027 210.486 81.552C210.486 81.2053 210.399 80.902 210.226 80.642C210.053 80.3733 209.823 80.1697 209.537 80.031C209.251 79.8923 208.948 79.823 208.627 79.823C208.133 79.823 207.691 79.9443 207.301 80.187C206.92 80.4297 206.564 80.772 206.235 81.214L205.52 80.629C206.326 79.485 207.375 78.913 208.666 78.913C209.186 78.913 209.663 79.0213 210.096 79.238C210.529 79.4547 210.872 79.7623 211.123 80.161C211.383 80.5597 211.513 81.019 211.513 81.539C211.513 82.137 211.348 82.7047 211.019 83.242C210.698 83.7707 210.161 84.36 209.407 85.01L207.067 87.038H211.604V88H205.442V87.155ZM216.749 88.156C216.029 88.156 215.388 87.961 214.825 87.571C214.261 87.1723 213.819 86.622 213.499 85.92C213.187 85.218 213.031 84.4207 213.031 83.528C213.031 82.6353 213.187 81.8423 213.499 81.149C213.819 80.447 214.261 79.901 214.825 79.511C215.388 79.1123 216.029 78.913 216.749 78.913C217.459 78.913 218.096 79.1123 218.66 79.511C219.223 79.901 219.661 80.447 219.973 81.149C220.293 81.8423 220.454 82.6353 220.454 83.528C220.454 84.4207 220.293 85.218 219.973 85.92C219.661 86.622 219.223 87.1723 218.66 87.571C218.105 87.961 217.468 88.156 216.749 88.156ZM216.749 87.22C217.269 87.22 217.732 87.064 218.14 86.752C218.547 86.4313 218.863 85.9937 219.089 85.439C219.314 84.8757 219.427 84.2387 219.427 83.528C219.427 82.8173 219.314 82.1847 219.089 81.63C218.863 81.0667 218.547 80.629 218.14 80.317C217.732 80.005 217.269 79.849 216.749 79.849C216.229 79.849 215.765 80.005 215.358 80.317C214.95 80.629 214.63 81.0667 214.396 81.63C214.17 82.1847 214.058 82.8173 214.058 83.528C214.058 84.2387 214.17 84.8757 214.396 85.439C214.63 85.9937 214.95 86.4313 215.358 86.752C215.765 87.064 216.229 87.22 216.749 87.22Z" fill="#3A4D55"/>
<rect x="142" y="112" width="126" height="48" fill="#E0F6FF"/>
<path d="M190.122 139.155L193.385 136.373C194.009 135.836 194.46 135.346 194.737 134.904C195.023 134.453 195.166 134.003 195.166 133.552C195.166 133.205 195.079 132.902 194.906 132.642C194.733 132.373 194.503 132.17 194.217 132.031C193.931 131.892 193.628 131.823 193.307 131.823C192.813 131.823 192.371 131.944 191.981 132.187C191.6 132.43 191.244 132.772 190.915 133.214L190.2 132.629C191.006 131.485 192.055 130.913 193.346 130.913C193.866 130.913 194.343 131.021 194.776 131.238C195.209 131.455 195.552 131.762 195.803 132.161C196.063 132.56 196.193 133.019 196.193 133.539C196.193 134.137 196.028 134.705 195.699 135.242C195.378 135.771 194.841 136.36 194.087 137.01L191.747 139.038H196.284V140H190.122V139.155ZM201.429 140.156C200.709 140.156 200.068 139.961 199.505 139.571C198.941 139.172 198.499 138.622 198.179 137.92C197.867 137.218 197.711 136.421 197.711 135.528C197.711 134.635 197.867 133.842 198.179 133.149C198.499 132.447 198.941 131.901 199.505 131.511C200.068 131.112 200.709 130.913 201.429 130.913C202.139 130.913 202.776 131.112 203.34 131.511C203.903 131.901 204.341 132.447 204.653 133.149C204.973 133.842 205.134 134.635 205.134 135.528C205.134 136.421 204.973 137.218 204.653 137.92C204.341 138.622 203.903 139.172 203.34 139.571C202.785 139.961 202.148 140.156 201.429 140.156ZM201.429 139.22C201.949 139.22 202.412 139.064 202.82 138.752C203.227 138.431 203.543 137.994 203.769 137.439C203.994 136.876 204.107 136.239 204.107 135.528C204.107 134.817 203.994 134.185 203.769 133.63C203.543 133.067 203.227 132.629 202.82 132.317C202.412 132.005 201.949 131.849 201.429 131.849C200.909 131.849 200.445 132.005 200.038 132.317C199.63 132.629 199.31 133.067 199.076 133.63C198.85 134.185 198.738 134.817 198.738 135.528C198.738 136.239 198.85 136.876 199.076 137.439C199.31 137.994 199.63 138.431 200.038 138.752C200.445 139.064 200.909 139.22 201.429 139.22ZM206.261 139.155L209.524 136.373C210.148 135.836 210.599 135.346 210.876 134.904C211.162 134.453 211.305 134.003 211.305 133.552C211.305 133.205 211.218 132.902 211.045 132.642C210.872 132.373 210.642 132.17 210.356 132.031C210.07 131.892 209.767 131.823 209.446 131.823C208.952 131.823 208.51 131.944 208.12 132.187C207.739 132.43 207.383 132.772 207.054 133.214L206.339 132.629C207.145 131.485 208.194 130.913 209.485 130.913C210.005 130.913 210.482 131.021 210.915 131.238C211.348 131.455 211.691 131.762 211.942 132.161C212.202 132.56 212.332 133.019 212.332 133.539C212.332 134.137 212.167 134.705 211.838 135.242C211.517 135.771 210.98 136.36 210.226 137.01L207.886 139.038H212.423V140H206.261V139.155ZM213.511 139.155L216.774 136.373C217.398 135.836 217.849 135.346 218.126 134.904C218.412 134.453 218.555 134.003 218.555 133.552C218.555 133.205 218.469 132.902 218.295 132.642C218.122 132.373 217.892 132.17 217.606 132.031C217.32 131.892 217.017 131.823 216.696 131.823C216.202 131.823 215.76 131.944 215.37 132.187C214.989 132.43 214.634 132.772 214.304 133.214L213.589 132.629C214.395 131.485 215.444 130.913 216.735 130.913C217.255 130.913 217.732 131.021 218.165 131.238C218.599 131.455 218.941 131.762 219.192 132.161C219.452 132.56 219.582 133.019 219.582 133.539C219.582 134.137 219.418 134.705 219.088 135.242C218.768 135.771 218.23 136.36 217.476 137.01L215.136 139.038H219.673V140H213.511V139.155Z" fill="#3A4D55"/>
<rect x="142.5" y="164.5" width="125" height="47" rx="3.5" fill="#E0F6FF" stroke="#6A7A81"/>
<path d="M189.292 190.674L192.581 188.048C193.135 187.606 193.53 187.203 193.764 186.839C193.998 186.475 194.115 186.107 194.115 185.734C194.115 185.327 193.963 184.997 193.66 184.746C193.365 184.495 193.01 184.369 192.594 184.369C192.152 184.369 191.749 184.477 191.385 184.694C191.029 184.902 190.678 185.214 190.332 185.63L189.279 184.655C190.163 183.494 191.285 182.913 192.646 182.913C193.235 182.913 193.764 183.03 194.232 183.264C194.708 183.498 195.081 183.827 195.35 184.252C195.627 184.677 195.766 185.158 195.766 185.695C195.766 186.293 195.605 186.852 195.285 187.372C194.973 187.883 194.44 188.429 193.686 189.01L191.814 190.518H195.857V192H189.292V190.674ZM201.018 192.156C200.264 192.156 199.588 191.961 198.99 191.571C198.401 191.172 197.937 190.622 197.599 189.92C197.27 189.218 197.105 188.421 197.105 187.528C197.105 186.635 197.27 185.842 197.599 185.149C197.937 184.447 198.401 183.901 198.99 183.511C199.588 183.112 200.264 182.913 201.018 182.913C201.772 182.913 202.444 183.112 203.033 183.511C203.631 183.901 204.095 184.447 204.424 185.149C204.762 185.842 204.931 186.635 204.931 187.528C204.931 188.421 204.762 189.218 204.424 189.92C204.095 190.622 203.631 191.172 203.033 191.571C202.444 191.961 201.772 192.156 201.018 192.156ZM201.018 190.674C201.451 190.674 201.837 190.54 202.175 190.271C202.522 190.002 202.79 189.63 202.981 189.153C203.172 188.676 203.267 188.135 203.267 187.528C203.267 186.921 203.172 186.38 202.981 185.903C202.79 185.426 202.522 185.058 202.175 184.798C201.837 184.529 201.451 184.395 201.018 184.395C200.585 184.395 200.195 184.529 199.848 184.798C199.501 185.058 199.233 185.426 199.042 185.903C198.851 186.38 198.756 186.921 198.756 187.528C198.756 188.135 198.851 188.676 199.042 189.153C199.233 189.63 199.501 190.002 199.848 190.271C200.195 190.54 200.585 190.674 201.018 190.674ZM206.002 190.674L209.291 188.048C209.845 187.606 210.24 187.203 210.474 186.839C210.708 186.475 210.825 186.107 210.825 185.734C210.825 185.327 210.673 184.997 210.37 184.746C210.075 184.495 209.72 184.369 209.304 184.369C208.862 184.369 208.459 184.477 208.095 184.694C207.739 184.902 207.388 185.214 207.042 185.63L205.989 184.655C206.873 183.494 207.995 182.913 209.356 182.913C209.945 182.913 210.474 183.03 210.942 183.264C211.418 183.498 211.791 183.827 212.06 184.252C212.337 184.677 212.476 185.158 212.476 185.695C212.476 186.293 212.315 186.852 211.995 187.372C211.683 187.883 211.15 188.429 210.396 189.01L208.524 190.518H212.567V192H206.002V190.674ZM218.066 190.063H213.672L213.516 188.802L217.741 183.069H219.691V188.672H220.926V190.063H219.691V192H218.066V190.063ZM218.066 188.672V184.837L215.245 188.672H218.066Z" fill="#3A4D55"/>
<rect x="142" y="216" width="126" height="48" rx="4" fill="#0079AD"/>
<path d="M189.241 242.674L192.53 240.048C193.085 239.606 193.479 239.203 193.713 238.839C193.947 238.475 194.064 238.107 194.064 237.734C194.064 237.327 193.912 236.997 193.609 236.746C193.314 236.495 192.959 236.369 192.543 236.369C192.101 236.369 191.698 236.477 191.334 236.694C190.979 236.902 190.628 237.214 190.281 237.63L189.228 236.655C190.112 235.494 191.234 234.913 192.595 234.913C193.184 234.913 193.713 235.03 194.181 235.264C194.658 235.498 195.03 235.827 195.299 236.252C195.576 236.677 195.715 237.158 195.715 237.695C195.715 238.293 195.555 238.852 195.234 239.372C194.922 239.883 194.389 240.429 193.635 241.01L191.763 242.518H195.806V244H189.241V242.674ZM200.967 244.156C200.213 244.156 199.537 243.961 198.939 243.571C198.35 243.172 197.886 242.622 197.548 241.92C197.219 241.218 197.054 240.421 197.054 239.528C197.054 238.635 197.219 237.842 197.548 237.149C197.886 236.447 198.35 235.901 198.939 235.511C199.537 235.112 200.213 234.913 200.967 234.913C201.721 234.913 202.393 235.112 202.982 235.511C203.58 235.901 204.044 236.447 204.373 237.149C204.711 237.842 204.88 238.635 204.88 239.528C204.88 240.421 204.711 241.218 204.373 241.92C204.044 242.622 203.58 243.172 202.982 243.571C202.393 243.961 201.721 244.156 200.967 244.156ZM200.967 242.674C201.401 242.674 201.786 242.54 202.124 242.271C202.471 242.002 202.74 241.63 202.93 241.153C203.121 240.676 203.216 240.135 203.216 239.528C203.216 238.921 203.121 238.38 202.93 237.903C202.74 237.426 202.471 237.058 202.124 236.798C201.786 236.529 201.401 236.395 200.967 236.395C200.534 236.395 200.144 236.529 199.797 236.798C199.451 237.058 199.182 237.426 198.991 237.903C198.801 238.38 198.705 238.921 198.705 239.528C198.705 240.135 198.801 240.676 198.991 241.153C199.182 241.63 199.451 242.002 199.797 242.271C200.144 242.54 200.534 242.674 200.967 242.674ZM205.951 242.674L209.24 240.048C209.795 239.606 210.189 239.203 210.423 238.839C210.657 238.475 210.774 238.107 210.774 237.734C210.774 237.327 210.622 236.997 210.319 236.746C210.024 236.495 209.669 236.369 209.253 236.369C208.811 236.369 208.408 236.477 208.044 236.694C207.689 236.902 207.338 237.214 206.991 237.63L205.938 236.655C206.822 235.494 207.944 234.913 209.305 234.913C209.894 234.913 210.423 235.03 210.891 235.264C211.368 235.498 211.74 235.827 212.009 236.252C212.286 236.677 212.425 237.158 212.425 237.695C212.425 238.293 212.265 238.852 211.944 239.372C211.632 239.883 211.099 240.429 210.345 241.01L208.473 242.518H212.516V244H205.951V242.674ZM217.781 238.293C218.336 238.293 218.839 238.406 219.289 238.631C219.749 238.856 220.113 239.186 220.381 239.619C220.65 240.044 220.784 240.542 220.784 241.114C220.784 241.695 220.641 242.219 220.355 242.687C220.069 243.146 219.671 243.506 219.159 243.766C218.657 244.026 218.089 244.156 217.456 244.156C216.234 244.156 215.316 243.749 214.7 242.934C214.094 242.119 213.79 241.036 213.79 239.684C213.79 238.774 213.955 237.959 214.284 237.24C214.622 236.512 215.09 235.944 215.688 235.537C216.286 235.121 216.967 234.913 217.729 234.913C218.735 234.913 219.627 235.247 220.407 235.914L219.614 237.149C219.311 236.889 219.012 236.69 218.717 236.551C218.423 236.412 218.093 236.343 217.729 236.343C217.105 236.343 216.585 236.616 216.169 237.162C215.762 237.708 215.528 238.419 215.467 239.294C215.745 238.982 216.087 238.739 216.494 238.566C216.902 238.384 217.331 238.293 217.781 238.293ZM217.378 242.778C217.725 242.778 218.033 242.704 218.301 242.557C218.57 242.41 218.774 242.215 218.912 241.972C219.06 241.721 219.133 241.456 219.133 241.179C219.133 240.702 218.96 240.325 218.613 240.048C218.275 239.762 217.855 239.619 217.352 239.619C216.919 239.619 216.542 239.732 216.221 239.957C215.901 240.174 215.675 240.468 215.545 240.841C215.753 242.132 216.364 242.778 217.378 242.778Z" fill="white"/>
<rect x="142" y="216" width="18" height="48" fill="#0079AD"/>
<path d="M189.76 295.155L193.023 292.373C193.647 291.836 194.098 291.346 194.375 290.904C194.661 290.453 194.804 290.003 194.804 289.552C194.804 289.205 194.717 288.902 194.544 288.642C194.371 288.373 194.141 288.17 193.855 288.031C193.569 287.892 193.266 287.823 192.945 287.823C192.451 287.823 192.009 287.944 191.619 288.187C191.238 288.43 190.882 288.772 190.553 289.214L189.838 288.629C190.644 287.485 191.693 286.913 192.984 286.913C193.504 286.913 193.981 287.021 194.414 287.238C194.847 287.455 195.19 287.762 195.441 288.161C195.701 288.56 195.831 289.019 195.831 289.539C195.831 290.137 195.666 290.705 195.337 291.242C195.016 291.771 194.479 292.36 193.725 293.01L191.385 295.038H195.922V296H189.76V295.155ZM201.067 296.156C200.347 296.156 199.706 295.961 199.143 295.571C198.579 295.172 198.137 294.622 197.817 293.92C197.505 293.218 197.349 292.421 197.349 291.528C197.349 290.635 197.505 289.842 197.817 289.149C198.137 288.447 198.579 287.901 199.143 287.511C199.706 287.112 200.347 286.913 201.067 286.913C201.777 286.913 202.414 287.112 202.978 287.511C203.541 287.901 203.979 288.447 204.291 289.149C204.611 289.842 204.772 290.635 204.772 291.528C204.772 292.421 204.611 293.218 204.291 293.92C203.979 294.622 203.541 295.172 202.978 295.571C202.423 295.961 201.786 296.156 201.067 296.156ZM201.067 295.22C201.587 295.22 202.05 295.064 202.458 294.752C202.865 294.431 203.181 293.994 203.407 293.439C203.632 292.876 203.745 292.239 203.745 291.528C203.745 290.817 203.632 290.185 203.407 289.63C203.181 289.067 202.865 288.629 202.458 288.317C202.05 288.005 201.587 287.849 201.067 287.849C200.547 287.849 200.083 288.005 199.676 288.317C199.268 288.629 198.948 289.067 198.714 289.63C198.488 290.185 198.376 290.817 198.376 291.528C198.376 292.239 198.488 292.876 198.714 293.439C198.948 293.994 199.268 294.431 199.676 294.752C200.083 295.064 200.547 295.22 201.067 295.22ZM205.899 295.155L209.162 292.373C209.786 291.836 210.237 291.346 210.514 290.904C210.8 290.453 210.943 290.003 210.943 289.552C210.943 289.205 210.856 288.902 210.683 288.642C210.51 288.373 210.28 288.17 209.994 288.031C209.708 287.892 209.405 287.823 209.084 287.823C208.59 287.823 208.148 287.944 207.758 288.187C207.377 288.43 207.021 288.772 206.692 289.214L205.977 288.629C206.783 287.485 207.832 286.913 209.123 286.913C209.643 286.913 210.12 287.021 210.553 287.238C210.986 287.455 211.329 287.762 211.58 288.161C211.84 288.56 211.97 289.019 211.97 289.539C211.97 290.137 211.805 290.705 211.476 291.242C211.155 291.771 210.618 292.36 209.864 293.01L207.524 295.038H212.061V296H205.899V295.155ZM216.738 296.156C216.122 296.156 215.568 296.052 215.074 295.844C214.58 295.636 214.19 295.346 213.904 294.973C213.618 294.592 213.475 294.154 213.475 293.66C213.475 293.123 213.657 292.655 214.021 292.256C214.393 291.857 214.87 291.567 215.451 291.385C214.913 291.177 214.489 290.9 214.177 290.553C213.865 290.198 213.709 289.773 213.709 289.279C213.709 288.802 213.847 288.386 214.125 288.031C214.411 287.667 214.783 287.39 215.243 287.199C215.711 287.008 216.209 286.913 216.738 286.913C217.275 286.913 217.773 287.013 218.233 287.212C218.701 287.403 219.073 287.68 219.351 288.044C219.637 288.399 219.78 288.815 219.78 289.292C219.78 289.803 219.615 290.232 219.286 290.579C218.965 290.926 218.549 291.194 218.038 291.385C218.61 291.576 219.078 291.87 219.442 292.269C219.814 292.668 220.001 293.131 220.001 293.66C220.001 294.154 219.858 294.592 219.572 294.973C219.286 295.346 218.891 295.636 218.389 295.844C217.895 296.052 217.344 296.156 216.738 296.156ZM216.738 290.982C217.05 290.965 217.362 290.891 217.674 290.761C217.986 290.631 218.241 290.449 218.441 290.215C218.649 289.981 218.753 289.704 218.753 289.383C218.753 289.088 218.662 288.824 218.48 288.59C218.306 288.356 218.064 288.174 217.752 288.044C217.448 287.905 217.11 287.836 216.738 287.836C216.174 287.836 215.698 287.983 215.308 288.278C214.926 288.573 214.736 288.941 214.736 289.383C214.736 289.712 214.84 289.994 215.048 290.228C215.256 290.462 215.511 290.644 215.815 290.774C216.127 290.895 216.434 290.965 216.738 290.982ZM216.738 295.233C217.145 295.233 217.518 295.164 217.856 295.025C218.202 294.886 218.475 294.696 218.675 294.453C218.874 294.202 218.974 293.916 218.974 293.595C218.974 293.257 218.857 292.958 218.623 292.698C218.389 292.438 218.098 292.239 217.752 292.1C217.405 291.953 217.067 291.875 216.738 291.866C216.408 291.875 216.07 291.953 215.724 292.1C215.377 292.239 215.087 292.438 214.853 292.698C214.619 292.958 214.502 293.257 214.502 293.595C214.502 293.916 214.601 294.202 214.801 294.453C215 294.696 215.269 294.886 215.607 295.025C215.953 295.164 216.33 295.233 216.738 295.233Z" fill="#3A4D55"/>
<mask id="path-49-inside-1_20_22243" fill="white">
<path d="M16 332H268V384H16V332Z"/>
</mask>
<path d="M16 333H268V331H16V333Z" fill="#CBD4D8" mask="url(#path-49-inside-1_20_22243)"/>
<path d="M108.5 352C108.5 350.067 110.067 348.5 112 348.5H185C186.933 348.5 188.5 350.067 188.5 352V380C188.5 381.933 186.933 383.5 185 383.5H112C110.067 383.5 108.5 381.933 108.5 380V352Z" stroke="#0079AD"/>
<path d="M124.92 370.144C124.152 370.144 123.436 369.952 122.772 369.568C122.108 369.176 121.58 368.652 121.188 367.996C120.796 367.34 120.6 366.632 120.6 365.872C120.6 365.112 120.796 364.408 121.188 363.76C121.58 363.104 122.108 362.584 122.772 362.2C123.436 361.808 124.152 361.612 124.92 361.612C125.512 361.612 126.076 361.732 126.612 361.972C127.156 362.204 127.632 362.528 128.04 362.944L126.972 363.94C126.708 363.636 126.396 363.4 126.036 363.232C125.684 363.064 125.312 362.98 124.92 362.98C124.424 362.98 123.96 363.112 123.528 363.376C123.104 363.64 122.764 363.996 122.508 364.444C122.252 364.884 122.124 365.36 122.124 365.872C122.124 366.392 122.252 366.876 122.508 367.324C122.764 367.764 123.104 368.116 123.528 368.38C123.96 368.644 124.424 368.776 124.92 368.776C125.312 368.776 125.684 368.692 126.036 368.524C126.396 368.356 126.712 368.12 126.984 367.816L128.04 368.8C127.64 369.224 127.168 369.556 126.624 369.796C126.088 370.028 125.52 370.144 124.92 370.144ZM136.001 368.44H132.065L131.417 370H129.749L133.193 361.756H134.861L138.305 370H136.649L136.001 368.44ZM135.485 367.216L134.033 363.748L132.581 367.216H135.485ZM140.742 361.756H142.23L146.586 367.552V361.756H148.074V370H146.586L142.23 364.204V370H140.742V361.756ZM155.131 370.144C154.363 370.144 153.647 369.952 152.983 369.568C152.319 369.176 151.791 368.652 151.399 367.996C151.007 367.34 150.811 366.632 150.811 365.872C150.811 365.112 151.007 364.408 151.399 363.76C151.791 363.104 152.319 362.584 152.983 362.2C153.647 361.808 154.363 361.612 155.131 361.612C155.723 361.612 156.287 361.732 156.823 361.972C157.367 362.204 157.843 362.528 158.251 362.944L157.183 363.94C156.919 363.636 156.607 363.4 156.247 363.232C155.895 363.064 155.523 362.98 155.131 362.98C154.635 362.98 154.171 363.112 153.739 363.376C153.315 363.64 152.975 363.996 152.719 364.444C152.463 364.884 152.335 365.36 152.335 365.872C152.335 366.392 152.463 366.876 152.719 367.324C152.975 367.764 153.315 368.116 153.739 368.38C154.171 368.644 154.635 368.776 155.131 368.776C155.523 368.776 155.895 368.692 156.247 368.524C156.607 368.356 156.923 368.12 157.195 367.816L158.251 368.8C157.851 369.224 157.379 369.556 156.835 369.796C156.299 370.028 155.731 370.144 155.131 370.144ZM162.3 363.124V365.116H166.548V366.484H162.3V368.632H167.004V370H160.8V361.756H167.004V363.124H162.3ZM175.54 368.632V370H169.816V361.756H171.304V368.632H175.54Z" fill="#0079AD"/>
<path d="M197.5 352C197.5 350.067 199.067 348.5 201 348.5H264C265.933 348.5 267.5 350.067 267.5 352V380C267.5 381.933 265.933 383.5 264 383.5H201C199.067 383.5 197.5 381.933 197.5 380V352Z" fill="#0079AD"/>
<path d="M197.5 352C197.5 350.067 199.067 348.5 201 348.5H264C265.933 348.5 267.5 350.067 267.5 352V380C267.5 381.933 265.933 383.5 264 383.5H201C199.067 383.5 197.5 381.933 197.5 380V352Z" stroke="#0079AD"/>
<path d="M215.552 368.44H211.616L210.968 370H209.3L212.744 361.756H214.412L217.856 370H216.2L215.552 368.44ZM215.036 367.216L213.584 363.748L212.132 367.216H215.036ZM220.292 361.756H223.88C224.456 361.756 224.98 361.872 225.452 362.104C225.924 362.336 226.292 362.66 226.556 363.076C226.828 363.492 226.964 363.964 226.964 364.492C226.964 365.02 226.828 365.492 226.556 365.908C226.292 366.324 225.924 366.648 225.452 366.88C224.98 367.112 224.456 367.228 223.88 367.228H221.78V370H220.292V361.756ZM223.7 365.848C224.22 365.848 224.636 365.728 224.948 365.488C225.268 365.24 225.428 364.908 225.428 364.492C225.428 364.076 225.268 363.748 224.948 363.508C224.636 363.26 224.22 363.136 223.7 363.136H221.78V365.848H223.7ZM229.601 361.756H233.189C233.765 361.756 234.289 361.872 234.761 362.104C235.233 362.336 235.601 362.66 235.865 363.076C236.137 363.492 236.273 363.964 236.273 364.492C236.273 365.02 236.137 365.492 235.865 365.908C235.601 366.324 235.233 366.648 234.761 366.88C234.289 367.112 233.765 367.228 233.189 367.228H231.089V370H229.601V361.756ZM233.009 365.848C233.529 365.848 233.945 365.728 234.257 365.488C234.577 365.24 234.737 364.908 234.737 364.492C234.737 364.076 234.577 363.748 234.257 363.508C233.945 363.26 233.529 363.136 233.009 363.136H231.089V365.848H233.009ZM244.634 368.632V370H238.91V361.756H240.398V368.632H244.634ZM249.493 366.904L246.229 361.756H247.993L250.261 365.488L252.565 361.756H254.269L251.017 366.904V370H249.493V366.904Z" fill="white"/>
</svg>
