<svg width="452" height="216" viewBox="0 0 452 216" fill="none" xmlns="http://www.w3.org/2000/svg">
<rect x="0.5" y="0.5" width="451" height="215" rx="3.5" fill="#22343C"/>
<rect x="0.5" y="0.5" width="451" height="215" rx="3.5" stroke="#6A7A81"/>
<path d="M119.67 53.668C116.968 53.668 114.672 51.386 114.672 48.684C114.672 45.982 116.968 43.714 119.67 43.714C121.042 43.714 122.302 44.288 123.212 45.226L122.218 46.178C121.574 45.478 120.664 45.016 119.67 45.016C117.752 45.016 116.128 46.696 116.128 48.684C116.128 50.686 117.752 52.366 119.67 52.366C120.664 52.366 121.574 51.904 122.218 51.204L123.212 52.156C122.302 53.08 121.042 53.668 119.67 53.668ZM124.492 53.5V43.714H125.864V53.5H124.492ZM128.469 45.058C127.993 45.058 127.629 44.666 127.629 44.218C127.629 43.784 127.993 43.392 128.469 43.392C128.917 43.392 129.295 43.784 129.295 44.218C129.295 44.666 128.917 45.058 128.469 45.058ZM127.769 53.5V46.262H129.155V53.5H127.769ZM134.476 53.668C132.418 53.668 130.668 51.932 130.668 49.874C130.668 47.816 132.418 46.094 134.49 46.094C135.526 46.094 136.464 46.528 137.15 47.214L136.212 48.082C135.778 47.592 135.148 47.298 134.476 47.298C133.16 47.298 132.068 48.474 132.068 49.874C132.068 51.288 133.16 52.464 134.49 52.464C135.162 52.464 135.806 52.156 136.254 51.652L137.192 52.506C136.492 53.22 135.554 53.668 134.476 53.668ZM145.155 46.262L142.033 49.538L145.015 53.5H143.363L141.095 50.462L139.933 51.638V53.5H138.561V43.714H139.933V49.958L143.475 46.262H145.155ZM149.237 46.094C151.183 46.094 152.261 47.326 152.261 49.118V53.5H150.903V52.506C150.371 53.262 149.377 53.668 148.495 53.668C146.955 53.668 145.821 52.772 145.821 51.358C145.821 49.916 147.123 48.95 148.719 48.95C149.433 48.95 150.203 49.104 150.903 49.342V49.118C150.903 48.208 150.483 47.242 149.041 47.242C148.327 47.242 147.627 47.522 146.997 47.844L146.493 46.822C147.529 46.304 148.439 46.094 149.237 46.094ZM148.761 52.576C149.657 52.576 150.665 52.128 150.903 51.232V50.266C150.315 50.084 149.643 49.986 148.929 49.986C147.963 49.986 147.151 50.532 147.151 51.316C147.151 52.1 147.851 52.576 148.761 52.576ZM158.184 46.094C160.088 46.094 161.516 47.662 161.516 49.874C161.516 52.1 160.088 53.668 158.184 53.668C157.064 53.668 156.168 53.136 155.608 52.24V53.5H154.236V43.714H155.608V47.508C156.168 46.626 157.064 46.094 158.184 46.094ZM157.848 52.464C159.178 52.464 160.116 51.386 160.116 49.874C160.116 48.362 159.178 47.298 157.848 47.298C156.546 47.298 155.608 48.362 155.608 49.874C155.608 51.386 156.546 52.464 157.848 52.464ZM163.089 53.5V43.714H164.461V53.5H163.089ZM169.698 52.436C170.454 52.436 171.336 52.1 171.77 51.652L172.638 52.548C171.994 53.234 170.734 53.668 169.712 53.668C167.696 53.668 165.988 52.086 165.988 49.86C165.988 47.69 167.598 46.094 169.6 46.094C171.812 46.094 173.086 47.774 173.086 50.364H167.388C167.57 51.568 168.452 52.436 169.698 52.436ZM169.656 47.326C168.536 47.326 167.626 48.082 167.402 49.258H171.742C171.588 48.138 170.902 47.326 169.656 47.326ZM179.184 45.058C178.708 45.058 178.344 44.666 178.344 44.218C178.344 43.784 178.708 43.392 179.184 43.392C179.632 43.392 180.01 43.784 180.01 44.218C180.01 44.666 179.632 45.058 179.184 45.058ZM178.484 53.5V46.262H179.87V53.5H178.484ZM185.163 52.198L185.667 53.15C185.275 53.472 184.743 53.668 184.225 53.668C183.105 53.668 182.321 52.856 182.321 51.694V47.438H181.229V46.262H182.321V44.274H183.679V46.262H185.387V47.438H183.679V51.596C183.679 52.1 184.015 52.464 184.421 52.464C184.729 52.464 185.009 52.352 185.163 52.198ZM190.298 52.436C191.054 52.436 191.936 52.1 192.37 51.652L193.238 52.548C192.594 53.234 191.334 53.668 190.312 53.668C188.296 53.668 186.588 52.086 186.588 49.86C186.588 47.69 188.198 46.094 190.2 46.094C192.412 46.094 193.686 47.774 193.686 50.364H187.988C188.17 51.568 189.052 52.436 190.298 52.436ZM190.256 47.326C189.136 47.326 188.226 48.082 188.002 49.258H192.342C192.188 48.138 191.502 47.326 190.256 47.326ZM203.284 46.094C204.796 46.094 205.888 47.256 205.888 48.894V53.5H204.53V49.104C204.53 48.04 203.9 47.298 202.99 47.298C201.954 47.298 201.226 47.984 201.226 48.978V53.5H199.868V49.104C199.868 48.04 199.238 47.298 198.328 47.298C197.292 47.298 196.564 47.984 196.564 48.978V53.5H195.178V46.262H196.564V47.27C196.928 46.556 197.684 46.094 198.608 46.094C199.658 46.094 200.512 46.654 200.932 47.55C201.268 46.654 202.192 46.094 203.284 46.094Z" fill="#CE91E9"/>
<path d="M254.67 53.668C251.968 53.668 249.672 51.386 249.672 48.684C249.672 45.982 251.968 43.714 254.67 43.714C256.042 43.714 257.302 44.288 258.212 45.226L257.218 46.178C256.574 45.478 255.664 45.016 254.67 45.016C252.752 45.016 251.128 46.696 251.128 48.684C251.128 50.686 252.752 52.366 254.67 52.366C255.664 52.366 256.574 51.904 257.218 51.204L258.212 52.156C257.302 53.08 256.042 53.668 254.67 53.668ZM264.476 46.262H265.862V53.5H264.476V52.45C264.042 53.164 263.16 53.668 262.18 53.668C260.584 53.668 259.464 52.506 259.464 50.868V46.262H260.822V50.63C260.822 51.708 261.508 52.464 262.488 52.464C263.496 52.464 264.364 51.806 264.476 50.952V46.262ZM269.229 47.648C269.691 46.696 270.671 46.094 271.917 46.094V47.298C270.419 47.298 269.355 48.124 269.229 49.384V53.5H267.843V46.262H269.229V47.648ZM274.625 47.648C275.087 46.696 276.067 46.094 277.313 46.094V47.298C275.815 47.298 274.751 48.124 274.625 49.384V53.5H273.239V46.262H274.625V47.648ZM281.883 52.436C282.639 52.436 283.521 52.1 283.955 51.652L284.823 52.548C284.179 53.234 282.919 53.668 281.897 53.668C279.881 53.668 278.173 52.086 278.173 49.86C278.173 47.69 279.783 46.094 281.785 46.094C283.997 46.094 285.271 47.774 285.271 50.364H279.573C279.755 51.568 280.637 52.436 281.883 52.436ZM281.841 47.326C280.721 47.326 279.811 48.082 279.587 49.258H283.927C283.773 48.138 283.087 47.326 281.841 47.326ZM290.46 46.094C292.056 46.094 293.176 47.256 293.176 48.894V53.5H291.818V49.132C291.818 48.054 291.132 47.298 290.152 47.298C289.144 47.298 288.276 47.956 288.164 48.81V53.5H286.778V46.262H288.164V47.312C288.598 46.598 289.48 46.094 290.46 46.094ZM298.446 52.198L298.95 53.15C298.558 53.472 298.026 53.668 297.508 53.668C296.388 53.668 295.604 52.856 295.604 51.694V47.438H294.512V46.262H295.604V44.274H296.962V46.262H298.67V47.438H296.962V51.596C296.962 52.1 297.298 52.464 297.704 52.464C298.012 52.464 298.292 52.352 298.446 52.198ZM308.187 46.094C310.091 46.094 311.519 47.662 311.519 49.874C311.519 52.1 310.091 53.668 308.187 53.668C307.067 53.668 306.171 53.136 305.611 52.24V55.908H304.239V46.262H305.611V47.508C306.171 46.626 307.067 46.094 308.187 46.094ZM307.851 52.464C309.181 52.464 310.119 51.386 310.119 49.874C310.119 48.362 309.181 47.298 307.851 47.298C306.549 47.298 305.611 48.362 305.611 49.874C305.611 51.386 306.549 52.464 307.851 52.464ZM316.13 46.094C318.076 46.094 319.154 47.326 319.154 49.118V53.5H317.796V52.506C317.264 53.262 316.27 53.668 315.388 53.668C313.848 53.668 312.714 52.772 312.714 51.358C312.714 49.916 314.016 48.95 315.612 48.95C316.326 48.95 317.096 49.104 317.796 49.342V49.118C317.796 48.208 317.376 47.242 315.934 47.242C315.22 47.242 314.52 47.522 313.89 47.844L313.386 46.822C314.422 46.304 315.332 46.094 316.13 46.094ZM315.654 52.576C316.55 52.576 317.558 52.128 317.796 51.232V50.266C317.208 50.084 316.536 49.986 315.822 49.986C314.856 49.986 314.044 50.532 314.044 51.316C314.044 52.1 314.744 52.576 315.654 52.576ZM326.561 46.262H327.947V52.73C327.947 54.592 326.421 55.908 324.279 55.908C323.061 55.908 321.941 55.502 321.255 54.942L321.801 53.906C322.333 54.41 323.201 54.704 324.069 54.704C325.623 54.704 326.561 53.962 326.561 52.702V51.652C325.987 52.478 325.091 52.968 323.999 52.968C322.095 52.968 320.709 51.54 320.709 49.524C320.709 47.508 322.095 46.094 323.999 46.094C325.091 46.094 326.015 46.612 326.561 47.424V46.262ZM324.349 51.764C325.637 51.764 326.561 50.84 326.561 49.524C326.561 48.222 325.637 47.298 324.349 47.298C323.061 47.298 322.151 48.222 322.151 49.524C322.151 50.84 323.061 51.764 324.349 51.764ZM333.232 52.436C333.988 52.436 334.87 52.1 335.304 51.652L336.172 52.548C335.528 53.234 334.268 53.668 333.246 53.668C331.23 53.668 329.522 52.086 329.522 49.86C329.522 47.69 331.132 46.094 333.134 46.094C335.346 46.094 336.62 47.774 336.62 50.364H330.922C331.104 51.568 331.986 52.436 333.232 52.436ZM333.19 47.326C332.07 47.326 331.16 48.082 330.936 49.258H335.276C335.122 48.138 334.436 47.326 333.19 47.326Z" fill="#CE91E9"/>
<path d="M185.494 91.654C183.884 91.654 182.554 91.094 181.532 90.114L182.386 89.064C183.24 89.876 184.248 90.408 185.55 90.408C186.88 90.408 187.566 89.708 187.566 88.938C187.566 88.028 186.768 87.678 185.158 87.314C183.198 86.852 181.896 86.264 181.896 84.528C181.896 82.918 183.296 81.7 185.228 81.7C186.712 81.7 187.818 82.246 188.742 83.058L187.93 84.122C187.118 83.38 186.152 82.946 185.172 82.946C184.094 82.946 183.338 83.632 183.338 84.402C183.338 85.298 184.164 85.606 185.746 85.984C187.664 86.432 188.994 87.076 188.994 88.798C188.994 90.422 187.762 91.654 185.494 91.654ZM193.908 90.436C194.664 90.436 195.546 90.1 195.98 89.652L196.848 90.548C196.204 91.234 194.944 91.668 193.922 91.668C191.906 91.668 190.198 90.086 190.198 87.86C190.198 85.69 191.808 84.094 193.81 84.094C196.022 84.094 197.296 85.774 197.296 88.364H191.598C191.78 89.568 192.662 90.436 193.908 90.436ZM193.866 85.326C192.746 85.326 191.836 86.082 191.612 87.258H195.952C195.798 86.138 195.112 85.326 193.866 85.326ZM202.82 84.094C204.724 84.094 206.152 85.662 206.152 87.874C206.152 90.1 204.724 91.668 202.82 91.668C201.7 91.668 200.804 91.136 200.244 90.24V93.908H198.872V84.262H200.244V85.508C200.804 84.626 201.7 84.094 202.82 84.094ZM202.484 90.464C203.814 90.464 204.752 89.386 204.752 87.874C204.752 86.362 203.814 85.298 202.484 85.298C201.182 85.298 200.244 86.362 200.244 87.874C200.244 89.386 201.182 90.464 202.484 90.464ZM210.764 84.094C212.71 84.094 213.788 85.326 213.788 87.118V91.5H212.43V90.506C211.898 91.262 210.904 91.668 210.022 91.668C208.482 91.668 207.348 90.772 207.348 89.358C207.348 87.916 208.65 86.95 210.246 86.95C210.96 86.95 211.73 87.104 212.43 87.342V87.118C212.43 86.208 212.01 85.242 210.568 85.242C209.854 85.242 209.154 85.522 208.524 85.844L208.02 84.822C209.056 84.304 209.966 84.094 210.764 84.094ZM210.288 90.576C211.184 90.576 212.192 90.128 212.43 89.232V88.266C211.842 88.084 211.17 87.986 210.456 87.986C209.49 87.986 208.678 88.532 208.678 89.316C208.678 90.1 209.378 90.576 210.288 90.576ZM217.148 85.648C217.61 84.696 218.59 84.094 219.836 84.094V85.298C218.338 85.298 217.274 86.124 217.148 87.384V91.5H215.762V84.262H217.148V85.648ZM224.126 84.094C226.072 84.094 227.15 85.326 227.15 87.118V91.5H225.792V90.506C225.26 91.262 224.266 91.668 223.384 91.668C221.844 91.668 220.71 90.772 220.71 89.358C220.71 87.916 222.012 86.95 223.608 86.95C224.322 86.95 225.092 87.104 225.792 87.342V87.118C225.792 86.208 225.372 85.242 223.93 85.242C223.216 85.242 222.516 85.522 221.886 85.844L221.382 84.822C222.418 84.304 223.328 84.094 224.126 84.094ZM223.65 90.576C224.546 90.576 225.554 90.128 225.792 89.232V88.266C225.204 88.084 224.532 87.986 223.818 87.986C222.852 87.986 222.04 88.532 222.04 89.316C222.04 90.1 222.74 90.576 223.65 90.576ZM232.442 90.198L232.946 91.15C232.554 91.472 232.022 91.668 231.504 91.668C230.384 91.668 229.6 90.856 229.6 89.694V85.438H228.508V84.262H229.6V82.274H230.958V84.262H232.666V85.438H230.958V89.596C230.958 90.1 231.294 90.464 231.7 90.464C232.008 90.464 232.288 90.352 232.442 90.198ZM237.689 91.668C235.617 91.668 233.867 89.932 233.867 87.874C233.867 85.816 235.617 84.094 237.689 84.094C239.747 84.094 241.483 85.816 241.483 87.874C241.483 89.932 239.747 91.668 237.689 91.668ZM237.689 90.464C238.991 90.464 240.097 89.288 240.097 87.874C240.097 86.474 238.991 85.298 237.689 85.298C236.359 85.298 235.253 86.474 235.253 87.874C235.253 89.288 236.359 90.464 237.689 90.464ZM244.461 85.648C244.923 84.696 245.903 84.094 247.149 84.094V85.298C245.651 85.298 244.587 86.124 244.461 87.384V91.5H243.075V84.262H244.461V85.648Z" fill="#CE91E9"/>
<path d="M164 62.5L164 144.5" stroke="#CE91E9"/>
<path d="M292 62.5L292 144.5" stroke="#CE91E9"/>
<path d="M195 97.5L195 144.5" stroke="#CE91E9"/>
<path d="M142.417 159.569H146.044C146.651 159.569 147.205 159.69 147.708 159.933C148.211 160.176 148.605 160.518 148.891 160.96C149.186 161.393 149.333 161.883 149.333 162.429C149.333 162.975 149.186 163.469 148.891 163.911C148.605 164.344 148.211 164.682 147.708 164.925C147.205 165.168 146.651 165.289 146.044 165.289H143.431V168.5H142.417V159.569ZM145.862 164.327C146.599 164.327 147.188 164.158 147.63 163.82C148.081 163.482 148.306 163.018 148.306 162.429C148.306 161.84 148.081 161.376 147.63 161.038C147.188 160.7 146.599 160.531 145.862 160.531H143.431V164.327H145.862ZM153.335 161.623C154.228 161.623 154.904 161.879 155.363 162.39C155.831 162.893 156.065 163.564 156.065 164.405V168.5H155.09V167.447C154.856 167.828 154.518 168.127 154.076 168.344C153.643 168.552 153.192 168.656 152.724 168.656C152.005 168.656 151.416 168.461 150.956 168.071C150.497 167.681 150.267 167.161 150.267 166.511C150.267 166.078 150.384 165.692 150.618 165.354C150.861 165.007 151.182 164.743 151.58 164.561C151.988 164.37 152.43 164.275 152.906 164.275C153.582 164.275 154.31 164.401 155.09 164.652V164.405C155.09 163.859 154.952 163.4 154.674 163.027C154.397 162.646 153.929 162.455 153.27 162.455C152.967 162.455 152.655 162.511 152.334 162.624C152.022 162.728 151.68 162.875 151.307 163.066L150.917 162.273C151.784 161.84 152.59 161.623 153.335 161.623ZM152.893 167.798C153.379 167.798 153.834 167.677 154.258 167.434C154.692 167.183 154.969 166.836 155.09 166.394V165.367C154.432 165.185 153.756 165.094 153.062 165.094C152.551 165.094 152.113 165.224 151.749 165.484C151.394 165.744 151.216 166.073 151.216 166.472C151.216 166.879 151.372 167.204 151.684 167.447C152.005 167.681 152.408 167.798 152.893 167.798ZM163.995 161.779V167.785C163.995 168.357 163.852 168.864 163.566 169.306C163.288 169.757 162.898 170.108 162.396 170.359C161.902 170.61 161.334 170.736 160.693 170.736C160.164 170.736 159.657 170.654 159.172 170.489C158.686 170.324 158.288 170.108 157.976 169.839L158.405 169.072C158.665 169.323 158.985 169.518 159.367 169.657C159.748 169.796 160.147 169.865 160.563 169.865C161.334 169.865 161.936 169.683 162.37 169.319C162.803 168.955 163.02 168.444 163.02 167.785V166.693C162.76 167.109 162.417 167.434 161.993 167.668C161.577 167.893 161.104 168.006 160.576 168.006C159.978 168.006 159.445 167.872 158.977 167.603C158.509 167.326 158.14 166.944 157.872 166.459C157.612 165.974 157.482 165.423 157.482 164.808C157.482 164.193 157.612 163.642 157.872 163.157C158.14 162.672 158.509 162.295 158.977 162.026C159.445 161.757 159.978 161.623 160.576 161.623C161.104 161.623 161.577 161.74 161.993 161.974C162.417 162.199 162.76 162.52 163.02 162.936V161.779H163.995ZM160.758 167.135C161.191 167.135 161.581 167.035 161.928 166.836C162.274 166.637 162.543 166.364 162.734 166.017C162.924 165.662 163.02 165.259 163.02 164.808C163.02 164.366 162.924 163.972 162.734 163.625C162.543 163.27 162.274 162.992 161.928 162.793C161.581 162.594 161.191 162.494 160.758 162.494C160.324 162.494 159.934 162.594 159.588 162.793C159.25 162.992 158.985 163.27 158.795 163.625C158.604 163.972 158.509 164.366 158.509 164.808C158.509 165.259 158.604 165.662 158.795 166.017C158.985 166.364 159.25 166.637 159.588 166.836C159.934 167.035 160.324 167.135 160.758 167.135ZM168.989 167.785C169.388 167.785 169.787 167.707 170.185 167.551C170.593 167.395 170.9 167.204 171.108 166.979L171.706 167.616C171.42 167.928 171.017 168.179 170.497 168.37C169.986 168.561 169.488 168.656 169.002 168.656C168.404 168.656 167.845 168.504 167.325 168.201C166.805 167.898 166.385 167.477 166.064 166.94C165.752 166.394 165.596 165.787 165.596 165.12C165.596 164.47 165.744 163.876 166.038 163.339C166.342 162.802 166.745 162.381 167.247 162.078C167.759 161.775 168.313 161.623 168.911 161.623C169.917 161.623 170.697 161.974 171.251 162.676C171.815 163.378 172.096 164.323 172.096 165.51H166.597C166.667 166.177 166.918 166.723 167.351 167.148C167.793 167.573 168.339 167.785 168.989 167.785ZM168.95 162.494C168.344 162.494 167.824 162.693 167.39 163.092C166.957 163.482 166.697 163.998 166.61 164.639H171.134C171.065 163.998 170.844 163.482 170.471 163.092C170.099 162.693 169.592 162.494 168.95 162.494ZM178.245 160.804L176.685 161.818L176.243 161.064L178.44 159.569H179.259V168.5H178.245V160.804Z" fill="#2EC0FF"/>
<path d="M189 169.81L193.83 159.189H195L190.17 169.81H189Z" fill="#E3EAED"/>
<path d="M204.417 159.569H208.044C208.651 159.569 209.205 159.69 209.708 159.933C210.211 160.176 210.605 160.518 210.891 160.96C211.186 161.393 211.333 161.883 211.333 162.429C211.333 162.975 211.186 163.469 210.891 163.911C210.605 164.344 210.211 164.682 209.708 164.925C209.205 165.168 208.651 165.289 208.044 165.289H205.431V168.5H204.417V159.569ZM207.862 164.327C208.599 164.327 209.188 164.158 209.63 163.82C210.081 163.482 210.306 163.018 210.306 162.429C210.306 161.84 210.081 161.376 209.63 161.038C209.188 160.7 208.599 160.531 207.862 160.531H205.431V164.327H207.862ZM215.335 161.623C216.228 161.623 216.904 161.879 217.363 162.39C217.831 162.893 218.065 163.564 218.065 164.405V168.5H217.09V167.447C216.856 167.828 216.518 168.127 216.076 168.344C215.643 168.552 215.192 168.656 214.724 168.656C214.005 168.656 213.416 168.461 212.956 168.071C212.497 167.681 212.267 167.161 212.267 166.511C212.267 166.078 212.384 165.692 212.618 165.354C212.861 165.007 213.182 164.743 213.58 164.561C213.988 164.37 214.43 164.275 214.906 164.275C215.582 164.275 216.31 164.401 217.09 164.652V164.405C217.09 163.859 216.952 163.4 216.674 163.027C216.397 162.646 215.929 162.455 215.27 162.455C214.967 162.455 214.655 162.511 214.334 162.624C214.022 162.728 213.68 162.875 213.307 163.066L212.917 162.273C213.784 161.84 214.59 161.623 215.335 161.623ZM214.893 167.798C215.379 167.798 215.834 167.677 216.258 167.434C216.692 167.183 216.969 166.836 217.09 166.394V165.367C216.432 165.185 215.756 165.094 215.062 165.094C214.551 165.094 214.113 165.224 213.749 165.484C213.394 165.744 213.216 166.073 213.216 166.472C213.216 166.879 213.372 167.204 213.684 167.447C214.005 167.681 214.408 167.798 214.893 167.798ZM225.995 161.779V167.785C225.995 168.357 225.852 168.864 225.566 169.306C225.288 169.757 224.898 170.108 224.396 170.359C223.902 170.61 223.334 170.736 222.693 170.736C222.164 170.736 221.657 170.654 221.172 170.489C220.686 170.324 220.288 170.108 219.976 169.839L220.405 169.072C220.665 169.323 220.985 169.518 221.367 169.657C221.748 169.796 222.147 169.865 222.563 169.865C223.334 169.865 223.936 169.683 224.37 169.319C224.803 168.955 225.02 168.444 225.02 167.785V166.693C224.76 167.109 224.417 167.434 223.993 167.668C223.577 167.893 223.104 168.006 222.576 168.006C221.978 168.006 221.445 167.872 220.977 167.603C220.509 167.326 220.14 166.944 219.872 166.459C219.612 165.974 219.482 165.423 219.482 164.808C219.482 164.193 219.612 163.642 219.872 163.157C220.14 162.672 220.509 162.295 220.977 162.026C221.445 161.757 221.978 161.623 222.576 161.623C223.104 161.623 223.577 161.74 223.993 161.974C224.417 162.199 224.76 162.52 225.02 162.936V161.779H225.995ZM222.758 167.135C223.191 167.135 223.581 167.035 223.928 166.836C224.274 166.637 224.543 166.364 224.734 166.017C224.924 165.662 225.02 165.259 225.02 164.808C225.02 164.366 224.924 163.972 224.734 163.625C224.543 163.27 224.274 162.992 223.928 162.793C223.581 162.594 223.191 162.494 222.758 162.494C222.324 162.494 221.934 162.594 221.588 162.793C221.25 162.992 220.985 163.27 220.795 163.625C220.604 163.972 220.509 164.366 220.509 164.808C220.509 165.259 220.604 165.662 220.795 166.017C220.985 166.364 221.25 166.637 221.588 166.836C221.934 167.035 222.324 167.135 222.758 167.135ZM230.989 167.785C231.388 167.785 231.787 167.707 232.185 167.551C232.593 167.395 232.9 167.204 233.108 166.979L233.706 167.616C233.42 167.928 233.017 168.179 232.497 168.37C231.986 168.561 231.488 168.656 231.002 168.656C230.404 168.656 229.845 168.504 229.325 168.201C228.805 167.898 228.385 167.477 228.064 166.94C227.752 166.394 227.596 165.787 227.596 165.12C227.596 164.47 227.744 163.876 228.038 163.339C228.342 162.802 228.745 162.381 229.247 162.078C229.759 161.775 230.313 161.623 230.911 161.623C231.917 161.623 232.697 161.974 233.251 162.676C233.815 163.378 234.096 164.323 234.096 165.51H228.597C228.667 166.177 228.918 166.723 229.351 167.148C229.793 167.573 230.339 167.785 230.989 167.785ZM230.95 162.494C230.344 162.494 229.824 162.693 229.39 163.092C228.957 163.482 228.697 163.998 228.61 164.639H233.134C233.065 163.998 232.844 163.482 232.471 163.092C232.099 162.693 231.592 162.494 230.95 162.494ZM238.425 167.655L241.688 164.873C242.312 164.336 242.763 163.846 243.04 163.404C243.326 162.953 243.469 162.503 243.469 162.052C243.469 161.705 243.383 161.402 243.209 161.142C243.036 160.873 242.806 160.67 242.52 160.531C242.234 160.392 241.931 160.323 241.61 160.323C241.116 160.323 240.674 160.444 240.284 160.687C239.903 160.93 239.548 161.272 239.218 161.714L238.503 161.129C239.309 159.985 240.358 159.413 241.649 159.413C242.169 159.413 242.646 159.521 243.079 159.738C243.513 159.955 243.855 160.262 244.106 160.661C244.366 161.06 244.496 161.519 244.496 162.039C244.496 162.637 244.332 163.205 244.002 163.742C243.682 164.271 243.144 164.86 242.39 165.51L240.05 167.538H244.587V168.5H238.425V167.655Z" fill="#2EC0FF"/>
<path d="M254 169.81L258.83 159.189H260L255.17 169.81H254Z" fill="#E3EAED"/>
<path d="M269.417 159.569H273.044C273.651 159.569 274.205 159.69 274.708 159.933C275.211 160.176 275.605 160.518 275.891 160.96C276.186 161.393 276.333 161.883 276.333 162.429C276.333 162.975 276.186 163.469 275.891 163.911C275.605 164.344 275.211 164.682 274.708 164.925C274.205 165.168 273.651 165.289 273.044 165.289H270.431V168.5H269.417V159.569ZM272.862 164.327C273.599 164.327 274.188 164.158 274.63 163.82C275.081 163.482 275.306 163.018 275.306 162.429C275.306 161.84 275.081 161.376 274.63 161.038C274.188 160.7 273.599 160.531 272.862 160.531H270.431V164.327H272.862ZM280.335 161.623C281.228 161.623 281.904 161.879 282.363 162.39C282.831 162.893 283.065 163.564 283.065 164.405V168.5H282.09V167.447C281.856 167.828 281.518 168.127 281.076 168.344C280.643 168.552 280.192 168.656 279.724 168.656C279.005 168.656 278.416 168.461 277.956 168.071C277.497 167.681 277.267 167.161 277.267 166.511C277.267 166.078 277.384 165.692 277.618 165.354C277.861 165.007 278.182 164.743 278.58 164.561C278.988 164.37 279.43 164.275 279.906 164.275C280.582 164.275 281.31 164.401 282.09 164.652V164.405C282.09 163.859 281.952 163.4 281.674 163.027C281.397 162.646 280.929 162.455 280.27 162.455C279.967 162.455 279.655 162.511 279.334 162.624C279.022 162.728 278.68 162.875 278.307 163.066L277.917 162.273C278.784 161.84 279.59 161.623 280.335 161.623ZM279.893 167.798C280.379 167.798 280.834 167.677 281.258 167.434C281.692 167.183 281.969 166.836 282.09 166.394V165.367C281.432 165.185 280.756 165.094 280.062 165.094C279.551 165.094 279.113 165.224 278.749 165.484C278.394 165.744 278.216 166.073 278.216 166.472C278.216 166.879 278.372 167.204 278.684 167.447C279.005 167.681 279.408 167.798 279.893 167.798ZM290.995 161.779V167.785C290.995 168.357 290.852 168.864 290.566 169.306C290.288 169.757 289.898 170.108 289.396 170.359C288.902 170.61 288.334 170.736 287.693 170.736C287.164 170.736 286.657 170.654 286.172 170.489C285.686 170.324 285.288 170.108 284.976 169.839L285.405 169.072C285.665 169.323 285.985 169.518 286.367 169.657C286.748 169.796 287.147 169.865 287.563 169.865C288.334 169.865 288.936 169.683 289.37 169.319C289.803 168.955 290.02 168.444 290.02 167.785V166.693C289.76 167.109 289.417 167.434 288.993 167.668C288.577 167.893 288.104 168.006 287.576 168.006C286.978 168.006 286.445 167.872 285.977 167.603C285.509 167.326 285.14 166.944 284.872 166.459C284.612 165.974 284.482 165.423 284.482 164.808C284.482 164.193 284.612 163.642 284.872 163.157C285.14 162.672 285.509 162.295 285.977 162.026C286.445 161.757 286.978 161.623 287.576 161.623C288.104 161.623 288.577 161.74 288.993 161.974C289.417 162.199 289.76 162.52 290.02 162.936V161.779H290.995ZM287.758 167.135C288.191 167.135 288.581 167.035 288.928 166.836C289.274 166.637 289.543 166.364 289.734 166.017C289.924 165.662 290.02 165.259 290.02 164.808C290.02 164.366 289.924 163.972 289.734 163.625C289.543 163.27 289.274 162.992 288.928 162.793C288.581 162.594 288.191 162.494 287.758 162.494C287.324 162.494 286.934 162.594 286.588 162.793C286.25 162.992 285.985 163.27 285.795 163.625C285.604 163.972 285.509 164.366 285.509 164.808C285.509 165.259 285.604 165.662 285.795 166.017C285.985 166.364 286.25 166.637 286.588 166.836C286.934 167.035 287.324 167.135 287.758 167.135ZM295.989 167.785C296.388 167.785 296.787 167.707 297.185 167.551C297.593 167.395 297.9 167.204 298.108 166.979L298.706 167.616C298.42 167.928 298.017 168.179 297.497 168.37C296.986 168.561 296.488 168.656 296.002 168.656C295.404 168.656 294.845 168.504 294.325 168.201C293.805 167.898 293.385 167.477 293.064 166.94C292.752 166.394 292.596 165.787 292.596 165.12C292.596 164.47 292.744 163.876 293.038 163.339C293.342 162.802 293.745 162.381 294.247 162.078C294.759 161.775 295.313 161.623 295.911 161.623C296.917 161.623 297.697 161.974 298.251 162.676C298.815 163.378 299.096 164.323 299.096 165.51H293.597C293.667 166.177 293.918 166.723 294.351 167.148C294.793 167.573 295.339 167.785 295.989 167.785ZM295.95 162.494C295.344 162.494 294.824 162.693 294.39 163.092C293.957 163.482 293.697 163.998 293.61 164.639H298.134C298.065 163.998 297.844 163.482 297.471 163.092C297.099 162.693 296.592 162.494 295.95 162.494ZM306.623 168.656C305.921 168.656 305.289 168.517 304.725 168.24C304.171 167.954 303.72 167.581 303.373 167.122L304.075 166.459C304.379 166.858 304.747 167.17 305.18 167.395C305.614 167.62 306.095 167.733 306.623 167.733C307.247 167.733 307.75 167.577 308.131 167.265C308.513 166.953 308.703 166.541 308.703 166.03C308.703 165.51 308.5 165.116 308.092 164.847C307.685 164.578 307.122 164.444 306.402 164.444H305.453V163.508L306.415 163.521C307.031 163.53 307.533 163.395 307.923 163.118C308.313 162.832 308.508 162.442 308.508 161.948C308.508 161.48 308.318 161.094 307.936 160.791C307.564 160.488 307.096 160.336 306.532 160.336C306.064 160.336 305.644 160.444 305.271 160.661C304.899 160.878 304.543 161.19 304.205 161.597L303.529 160.986C304.318 159.937 305.336 159.413 306.584 159.413C307.148 159.413 307.65 159.517 308.092 159.725C308.543 159.924 308.894 160.21 309.145 160.583C309.405 160.947 309.535 161.363 309.535 161.831C309.535 162.368 309.371 162.815 309.041 163.17C308.721 163.525 308.309 163.777 307.806 163.924C308.335 164.045 308.786 164.288 309.158 164.652C309.54 165.016 309.73 165.493 309.73 166.082C309.73 166.576 309.6 167.018 309.34 167.408C309.08 167.798 308.712 168.106 308.235 168.331C307.767 168.548 307.23 168.656 306.623 168.656Z" fill="#E3EAED"/>
</svg>
