<svg width="946" height="430" viewBox="0 0 946 430" fill="none" xmlns="http://www.w3.org/2000/svg">
<g clip-path="url(#clip0_325_4335)">
<path d="M302.48 149.43C343.609 149.43 376.95 116.089 376.95 74.96C376.95 33.8313 343.609 0.48999 302.48 0.48999C261.351 0.48999 228.01 33.8313 228.01 74.96C228.01 116.089 261.351 149.43 302.48 149.43Z" fill="#D1F1FF"/>
<path d="M750.39 99.2699C768.996 99.2699 784.08 84.1864 784.08 65.5799C784.08 46.9734 768.996 31.8899 750.39 31.8899C731.783 31.8899 716.7 46.9734 716.7 65.5799C716.7 84.1864 731.783 99.2699 750.39 99.2699Z" fill="#D1F1FF"/>
<path d="M729.16 298.69L728.07 304.93C727.99 305.41 727.63 305.79 727.16 305.91C724.23 306.62 721.43 307.78 718.86 309.35C718.45 309.6 717.92 309.58 717.53 309.31L712.34 305.68C711.85 305.34 711.19 305.4 710.76 305.82L705.56 311.02C705.14 311.44 705.08 312.11 705.42 312.6L709.02 317.78C709.3 318.18 709.32 318.7 709.07 319.12C707.5 321.69 706.34 324.49 705.63 327.42C705.51 327.89 705.13 328.25 704.65 328.33L698.42 329.42C697.83 329.52 697.4 330.04 697.4 330.63V337.98C697.4 338.58 697.83 339.09 698.42 339.19L704.65 340.28C705.13 340.36 705.51 340.72 705.63 341.19C706.34 344.12 707.5 346.92 709.07 349.5C709.32 349.91 709.3 350.44 709.02 350.83L705.39 356.02C705.05 356.51 705.11 357.18 705.53 357.6L710.73 362.79C711.15 363.21 711.82 363.27 712.31 362.93L717.5 359.3C717.9 359.02 718.42 359 718.83 359.25C721.4 360.82 724.2 361.98 727.13 362.69C727.6 362.81 727.96 363.19 728.04 363.67L729.13 369.9C729.23 370.49 729.75 370.92 730.34 370.92H737.69C738.29 370.92 738.8 370.49 738.91 369.9L740 363.67C740.08 363.19 740.44 362.81 740.91 362.69C743.84 361.98 746.64 360.82 749.22 359.25C749.63 359 750.16 359.02 750.55 359.3L755.74 362.92C756.23 363.26 756.9 363.2 757.32 362.78L762.51 357.59C762.93 357.17 762.99 356.5 762.65 356.01L759.03 350.82C758.75 350.42 758.73 349.9 758.98 349.49C760.55 346.92 761.71 344.11 762.42 341.18C762.54 340.71 762.92 340.36 763.4 340.27L769.63 339.18C770.22 339.07 770.65 338.56 770.65 337.97V330.62C770.65 330.02 770.22 329.51 769.63 329.41L763.4 328.32C762.92 328.24 762.53 327.88 762.42 327.41C761.71 324.48 760.55 321.68 758.98 319.11C758.73 318.69 758.75 318.17 759.03 317.77L762.65 312.58C762.99 312.09 762.93 311.42 762.51 311L757.32 305.8C756.9 305.38 756.23 305.32 755.74 305.66L750.57 309.3C750.17 309.58 749.65 309.6 749.24 309.34C746.67 307.77 743.86 306.61 740.93 305.9C740.46 305.78 740.11 305.4 740.02 304.92L738.93 298.68C738.82 298.09 738.31 297.66 737.71 297.66H730.36C729.76 297.66 729.25 298.09 729.15 298.68L729.16 298.69ZM754.76 334.33C754.76 345.77 745.49 355.04 734.05 355.04C722.61 355.04 713.34 345.77 713.34 334.33C713.34 322.89 722.61 313.62 734.05 313.62C745.48 313.62 754.75 322.89 754.75 334.32L754.76 334.33Z" fill="#1995D0"/>
<path d="M214.55 207.23L213.15 215.22C213.04 215.83 212.58 216.32 211.98 216.47C208.23 217.38 204.63 218.87 201.34 220.88C200.81 221.2 200.14 221.18 199.63 220.82L192.97 216.17C192.34 215.74 191.49 215.81 190.95 216.35L184.29 223.01C183.75 223.55 183.67 224.41 184.11 225.03L188.72 231.67C189.08 232.18 189.1 232.85 188.78 233.39C186.77 236.69 185.28 240.27 184.37 244.03C184.22 244.63 183.73 245.09 183.11 245.2L175.12 246.6C174.37 246.73 173.82 247.39 173.82 248.16V257.58C173.82 258.35 174.37 259 175.12 259.14L183.11 260.54C183.72 260.65 184.21 261.1 184.37 261.7C185.28 265.46 186.77 269.05 188.78 272.35C189.1 272.88 189.08 273.55 188.72 274.06L184.07 280.72C183.63 281.35 183.71 282.2 184.25 282.74L190.91 289.4C191.45 289.94 192.3 290.02 192.93 289.58L199.59 284.93C200.1 284.57 200.77 284.55 201.3 284.87C204.6 286.88 208.19 288.37 211.94 289.28C212.54 289.43 213 289.92 213.11 290.54L214.51 298.53C214.64 299.28 215.3 299.83 216.07 299.83H225.48C226.25 299.83 226.91 299.28 227.04 298.53L228.44 290.54C228.55 289.93 229 289.43 229.6 289.28C233.36 288.37 236.95 286.88 240.25 284.87C240.78 284.55 241.45 284.57 241.96 284.93L248.62 289.57C249.25 290.01 250.1 289.94 250.64 289.39L257.3 282.73C257.84 282.19 257.92 281.33 257.48 280.71L252.84 274.05C252.48 273.54 252.46 272.87 252.77 272.34C254.79 269.04 256.27 265.45 257.18 261.69C257.33 261.09 257.83 260.63 258.44 260.53L266.43 259.13C267.18 258.99 267.73 258.34 267.73 257.57V248.15C267.73 247.38 267.18 246.73 266.43 246.59L258.44 245.19C257.83 245.09 257.33 244.63 257.18 244.02C256.27 240.27 254.78 236.68 252.77 233.38C252.45 232.85 252.48 232.17 252.84 231.66L257.48 225C257.92 224.37 257.85 223.52 257.3 222.98L250.64 216.32C250.1 215.78 249.25 215.71 248.62 216.14L242 220.81C241.49 221.17 240.82 221.19 240.29 220.87C236.99 218.86 233.4 217.37 229.64 216.46C229.04 216.31 228.58 215.82 228.48 215.21L227.08 207.22C226.94 206.46 226.29 205.92 225.52 205.92H216.11C215.34 205.92 214.69 206.47 214.55 207.22V207.23ZM233.98 252.91C233.98 260.18 228.09 266.08 220.81 266.08C213.53 266.08 207.64 260.19 207.64 252.91C207.64 245.63 213.53 239.74 220.81 239.74C228.08 239.74 233.97 245.63 233.97 252.9L233.98 252.91Z" fill="#1995D0"/>
<path d="M524.86 115.65H414.03V1H578.48V80.3" fill="#114F6E"/>
<path d="M524.86 115.65H414.03V1H578.48V80.3" stroke="#114F6E" stroke-width="2" stroke-miterlimit="10" stroke-linecap="round"/>
<path d="M527.84 117.92H417.01V3.27002H581.46V82.57" fill="white"/>
<path d="M527.84 117.92H417.01V3.27002H581.46V82.57" stroke="#114F6E" stroke-width="2" stroke-miterlimit="10" stroke-linecap="round"/>
<path fill-rule="evenodd" clip-rule="evenodd" d="M525.95 62.4199L474.42 32.6699V92.1699L525.95 62.4199Z" fill="#1995D0"/>
<path fill-rule="evenodd" clip-rule="evenodd" d="M530.72 62.4199L479.19 32.6699V92.1699L530.72 62.4199Z" stroke="#114F6E" stroke-width="2" stroke-miterlimit="10" stroke-linecap="round"/>
<path d="M417.3 18.3H545.85" stroke="#114F6E" stroke-width="2" stroke-miterlimit="10" stroke-linecap="round"/>
<path d="M425.42 13.51C427.16 13.51 428.57 12.0997 428.57 10.36C428.57 8.62026 427.16 7.20996 425.42 7.20996C423.68 7.20996 422.27 8.62026 422.27 10.36C422.27 12.0997 423.68 13.51 425.42 13.51Z" fill="white" stroke="#114F6E" stroke-width="2" stroke-miterlimit="10" stroke-linecap="round"/>
<path d="M437.29 13.51C439.03 13.51 440.44 12.0997 440.44 10.36C440.44 8.62026 439.03 7.20996 437.29 7.20996C435.55 7.20996 434.14 8.62026 434.14 10.36C434.14 12.0997 435.55 13.51 437.29 13.51Z" fill="white" stroke="#114F6E" stroke-width="2" stroke-miterlimit="10" stroke-linecap="round"/>
<path d="M449.16 13.51C450.9 13.51 452.31 12.0997 452.31 10.36C452.31 8.62026 450.9 7.20996 449.16 7.20996C447.42 7.20996 446.01 8.62026 446.01 10.36C446.01 12.0997 447.42 13.51 449.16 13.51Z" fill="white" stroke="#114F6E" stroke-width="2" stroke-miterlimit="10" stroke-linecap="round"/>
<path d="M128.69 231.06C148.997 231.06 165.46 214.598 165.46 194.29C165.46 173.982 148.997 157.52 128.69 157.52C108.382 157.52 91.92 173.982 91.92 194.29C91.92 214.598 108.382 231.06 128.69 231.06Z" fill="#D1F1FF"/>
<path d="M815.94 107.36C815.94 103.77 818.42 100.76 821.76 99.96C821.63 99.61 821.55 99.24 821.55 98.84C821.55 97.13 822.94 95.74 824.65 95.74C825.25 95.74 825.81 95.91 826.28 96.21C828.33 93.95 831.29 92.54 834.59 92.54C840.65 92.54 845.59 97.35 845.8 103.36C846.2 103.27 846.62 103.22 847.06 103.22C850.31 103.22 852.94 105.85 852.94 109.1C852.94 112.33 850.33 114.95 847.11 114.98H823.53C819.34 114.96 815.94 111.56 815.94 107.36V107.36Z" stroke="#195F88" stroke-miterlimit="10" stroke-linecap="round"/>
<path d="M377.17 108.47C383.334 108.47 388.33 103.474 388.33 97.3101C388.33 91.1466 383.334 86.1501 377.17 86.1501C371.007 86.1501 366.01 91.1466 366.01 97.3101C366.01 103.474 371.007 108.47 377.17 108.47Z" stroke="#195F88" stroke-miterlimit="10" stroke-linecap="round"/>
<path d="M388.21 98.7802C392.49 100.71 395.1 102.51 394.78 103.53C394.26 105.23 385.84 104.14 375.99 101.11C366.14 98.0702 358.57 94.2302 359.1 92.5302C359.42 91.5102 362.59 91.4902 367.21 92.3102" stroke="#195F88" stroke-miterlimit="10" stroke-linecap="round"/>
<path d="M631.72 321.72H638.14" stroke="#195F88" stroke-miterlimit="10" stroke-linecap="round"/>
<path d="M631.72 321.72H638.14" stroke="#195F88" stroke-miterlimit="10" stroke-linecap="round"/>
<path d="M634.93 324.88V318.56" stroke="#195F88" stroke-miterlimit="10" stroke-linecap="round"/>
<path d="M799.49 68.9399H805.91" stroke="#195F88" stroke-miterlimit="10" stroke-linecap="round"/>
<path d="M799.49 68.9399H805.91" stroke="#195F88" stroke-miterlimit="10" stroke-linecap="round"/>
<path d="M802.7 72.1V65.78" stroke="#195F88" stroke-miterlimit="10" stroke-linecap="round"/>
<path d="M792.12 367.28H806.86" stroke="#195F88" stroke-miterlimit="10" stroke-linecap="round"/>
<path d="M792.12 367.28H806.86" stroke="#195F88" stroke-miterlimit="10" stroke-linecap="round"/>
<path d="M799.49 374.55V360.02" stroke="#195F88" stroke-miterlimit="10" stroke-linecap="round"/>
<path d="M602.67 345.98C604.658 345.98 606.27 344.395 606.27 342.44C606.27 340.485 604.658 338.9 602.67 338.9C600.682 338.9 599.07 340.485 599.07 342.44C599.07 344.395 600.682 345.98 602.67 345.98Z" stroke="#195F88" stroke-miterlimit="10" stroke-linecap="round"/>
<path d="M941.23 49.9301C943.218 49.9301 944.83 48.3452 944.83 46.3901C944.83 44.435 943.218 42.8501 941.23 42.8501C939.242 42.8501 937.63 44.435 937.63 46.3901C937.63 48.3452 939.242 49.9301 941.23 49.9301Z" stroke="#195F88" stroke-miterlimit="10" stroke-linecap="round"/>
<path d="M914.48 97.3102C915.778 97.3102 916.83 96.2715 916.83 94.9902C916.83 93.7089 915.778 92.6702 914.48 92.6702C913.182 92.6702 912.13 93.7089 912.13 94.9902C912.13 96.2715 913.182 97.3102 914.48 97.3102Z" stroke="#195F88" stroke-miterlimit="10" stroke-linecap="round"/>
<path d="M860.02 76.15C861.318 76.15 862.37 75.1113 862.37 73.83C862.37 72.5487 861.318 71.51 860.02 71.51C858.722 71.51 857.67 72.5487 857.67 73.83C857.67 75.1113 858.722 76.15 860.02 76.15Z" stroke="#195F88" stroke-miterlimit="10" stroke-linecap="round"/>
<path d="M15.73 228.9H21.54" stroke="#195F88" stroke-miterlimit="10" stroke-linecap="round"/>
<path d="M15.73 228.9H21.54" stroke="#195F88" stroke-miterlimit="10" stroke-linecap="round"/>
<path d="M18.64 231.77V226.04" stroke="#195F88" stroke-miterlimit="10" stroke-linecap="round"/>
<path d="M0.5 282.3H13.84" stroke="#195F88" stroke-miterlimit="10" stroke-linecap="round"/>
<path d="M0.5 282.3H13.84" stroke="#195F88" stroke-miterlimit="10" stroke-linecap="round"/>
<path d="M7.16998 288.87V275.72" stroke="#195F88" stroke-miterlimit="10" stroke-linecap="round"/>
<path d="M49.78 270.33C51.5805 270.33 53.04 268.893 53.04 267.12C53.04 265.347 51.5805 263.91 49.78 263.91C47.9796 263.91 46.52 265.347 46.52 267.12C46.52 268.893 47.9796 270.33 49.78 270.33Z" stroke="#195F88" stroke-miterlimit="10" stroke-linecap="round"/>
<path d="M142.19 359.23C143.99 359.23 145.45 357.793 145.45 356.02C145.45 354.247 143.99 352.81 142.19 352.81C140.39 352.81 138.93 354.247 138.93 356.02C138.93 357.793 140.39 359.23 142.19 359.23Z" stroke="#195F88" stroke-miterlimit="10" stroke-linecap="round"/>
<path d="M122.91 319.5C124.086 319.5 125.04 318.56 125.04 317.4C125.04 316.24 124.086 315.3 122.91 315.3C121.734 315.3 120.78 316.24 120.78 317.4C120.78 318.56 121.734 319.5 122.91 319.5Z" stroke="#195F88" stroke-miterlimit="10" stroke-linecap="round"/>
<path d="M107.97 369.58C109.146 369.58 110.1 368.64 110.1 367.48C110.1 366.32 109.146 365.38 107.97 365.38C106.794 365.38 105.84 366.32 105.84 367.48C105.84 368.64 106.794 369.58 107.97 369.58Z" stroke="#195F88" stroke-miterlimit="10" stroke-linecap="round"/>
<path d="M712.75 270.84L719.39 266.21C720.38 265.51 721.68 265.46 722.72 266.09C729.13 270.01 736.12 272.9 743.42 274.66C744.6 274.95 745.49 275.91 745.69 277.11L748.42 292.65C748.68 294.12 749.96 295.19 751.45 295.19H769.76C771.25 295.19 772.53 294.12 772.8 292.65L775.53 277.11C775.73 275.92 776.62 274.96 777.79 274.66C785.1 272.89 792.09 270 798.5 266.09C799.53 265.46 800.84 265.51 801.83 266.21L814.78 275.24C816 276.1 817.66 275.95 818.72 274.89L831.67 261.94C832.73 260.89 832.87 259.23 832.02 258L822.99 245.05C822.29 244.06 822.24 242.76 822.86 241.72C826.78 235.3 829.68 228.32 831.44 221.01C831.74 219.84 832.7 218.95 833.89 218.75L849.43 216.02C850.9 215.76 851.96 214.48 851.97 212.99V194.67C851.97 193.18 850.9 191.91 849.43 191.64L833.89 188.91C832.69 188.71 831.73 187.81 831.44 186.64C829.67 179.34 826.78 172.35 822.86 165.95C822.24 164.91 822.29 163.6 822.99 162.61L832.02 149.66C832.88 148.44 832.73 146.78 831.67 145.72L818.72 132.76C817.66 131.71 816.01 131.57 814.78 132.41L801.9 141.49C800.91 142.18 799.6 142.23 798.57 141.6C792.15 137.69 785.16 134.8 777.86 133.03C776.69 132.74 775.8 131.78 775.6 130.59L772.87 115.04C772.61 113.57 771.33 112.5 769.83 112.5H751.52C750.03 112.5 748.75 113.57 748.49 115.04L745.76 130.59C745.55 131.78 744.66 132.74 743.49 133.03C736.19 134.8 729.2 137.69 722.79 141.6C721.76 142.23 720.45 142.18 719.46 141.49L706.51 132.44C705.28 131.6 703.63 131.74 702.57 132.79L689.61 145.75C688.56 146.81 688.41 148.46 689.26 149.69L698.23 162.6C698.93 163.59 698.97 164.9 698.35 165.94C696.9 168.31 695.6 170.76 694.43 173.27M773.37 203.9C773.37 210.92 767.68 216.61 760.66 216.61C753.64 216.61 747.95 210.92 747.95 203.9C747.95 196.88 753.64 191.19 760.66 191.19C767.68 191.19 773.37 196.88 773.37 203.9Z" stroke="#114F6E" stroke-width="2" stroke-miterlimit="10" stroke-linecap="round"/>
<path d="M728.25 295.04L727.16 301.28C727.08 301.76 726.72 302.14 726.25 302.26C723.32 302.97 720.52 304.13 717.95 305.7C717.54 305.95 717.01 305.93 716.62 305.66L711.43 302.03C710.94 301.69 710.28 301.75 709.85 302.17L704.65 307.37C704.23 307.79 704.17 308.46 704.51 308.95L708.11 314.13C708.39 314.53 708.41 315.05 708.16 315.47C706.59 318.04 705.43 320.84 704.72 323.77C704.6 324.24 704.22 324.6 703.74 324.68L697.51 325.77C696.92 325.87 696.49 326.39 696.49 326.98V334.33C696.49 334.93 696.92 335.44 697.51 335.54L703.74 336.63C704.22 336.71 704.6 337.07 704.72 337.54C705.43 340.47 706.59 343.27 708.16 345.85C708.41 346.26 708.39 346.79 708.11 347.18L704.48 352.37C704.14 352.86 704.2 353.53 704.62 353.95L709.82 359.14C710.24 359.56 710.91 359.62 711.4 359.28L716.59 355.65C716.99 355.37 717.51 355.35 717.92 355.6C720.49 357.17 723.29 358.33 726.22 359.04C726.69 359.16 727.05 359.54 727.13 360.02L728.22 366.25C728.32 366.84 728.84 367.27 729.43 367.27H736.78C737.38 367.27 737.89 366.84 738 366.25L739.09 360.02C739.17 359.54 739.53 359.16 740 359.04C742.93 358.33 745.73 357.17 748.31 355.6C748.72 355.35 749.25 355.37 749.64 355.65L754.83 359.27C755.32 359.61 755.99 359.55 756.41 359.13L761.6 353.94C762.02 353.52 762.08 352.85 761.74 352.36L758.12 347.17C757.84 346.77 757.82 346.25 758.07 345.84C759.64 343.27 760.8 340.46 761.51 337.53C761.63 337.06 762.01 336.71 762.49 336.62L768.72 335.53C769.31 335.42 769.74 334.91 769.74 334.32V326.97C769.74 326.37 769.31 325.86 768.72 325.76L762.49 324.67C762.01 324.59 761.62 324.23 761.51 323.76C760.8 320.83 759.64 318.03 758.07 315.46C757.82 315.04 757.84 314.52 758.12 314.12L761.74 308.93C762.08 308.44 762.02 307.77 761.6 307.35L756.41 302.15C755.99 301.73 755.32 301.67 754.83 302.01L749.66 305.65C749.26 305.93 748.74 305.95 748.33 305.69C745.76 304.12 742.95 302.96 740.02 302.25C739.55 302.13 739.2 301.75 739.11 301.27L738.02 295.03C737.91 294.44 737.4 294.01 736.8 294.01H729.45C728.85 294.01 728.34 294.44 728.24 295.03L728.25 295.04ZM753.85 330.68C753.85 342.12 744.58 351.39 733.14 351.39C721.7 351.39 712.43 342.12 712.43 330.68C712.43 319.24 721.7 309.97 733.14 309.97C744.57 309.97 753.84 319.24 753.84 330.67L753.85 330.68Z" stroke="#114F6E" stroke-width="2" stroke-miterlimit="10" stroke-linecap="round"/>
<path d="M216.8 208.66L215.4 216.65C215.29 217.26 214.83 217.75 214.23 217.9C210.48 218.81 206.88 220.3 203.59 222.31C203.06 222.63 202.39 222.61 201.88 222.25L195.22 217.6C194.59 217.17 193.74 217.24 193.2 217.78L186.54 224.44C186 224.98 185.92 225.84 186.36 226.46L190.97 233.1C191.33 233.61 191.35 234.28 191.03 234.82C189.02 238.12 187.53 241.7 186.62 245.46C186.47 246.06 185.98 246.52 185.36 246.63L177.37 248.03C176.62 248.16 176.07 248.82 176.07 249.59V259.01C176.07 259.78 176.62 260.43 177.37 260.57L185.36 261.97C185.97 262.08 186.46 262.53 186.62 263.13C187.53 266.89 189.02 270.48 191.03 273.78C191.35 274.31 191.33 274.98 190.97 275.49L186.32 282.15C185.88 282.78 185.96 283.63 186.5 284.17L193.16 290.83C193.7 291.37 194.55 291.45 195.18 291.01L201.84 286.36C202.35 286 203.02 285.98 203.55 286.3C206.85 288.31 210.44 289.8 214.19 290.71C214.79 290.86 215.25 291.35 215.36 291.97L216.76 299.96C216.89 300.71 217.55 301.26 218.32 301.26H227.73C228.5 301.26 229.16 300.71 229.29 299.96L230.69 291.97C230.8 291.36 231.25 290.86 231.85 290.71C235.61 289.8 239.2 288.31 242.5 286.3C243.03 285.98 243.7 286 244.21 286.36L250.87 291C251.5 291.44 252.35 291.37 252.89 290.82L259.55 284.16C260.09 283.62 260.17 282.76 259.73 282.14L255.09 275.48C254.73 274.97 254.71 274.3 255.02 273.77C257.04 270.47 258.52 266.88 259.43 263.12C259.58 262.52 260.08 262.06 260.69 261.96L268.68 260.56C269.43 260.42 269.98 259.77 269.98 259V249.58C269.98 248.81 269.43 248.16 268.68 248.02L260.69 246.62C260.08 246.52 259.58 246.06 259.43 245.45C258.52 241.7 257.03 238.11 255.02 234.81C254.7 234.28 254.73 233.6 255.09 233.09L259.73 226.43C260.17 225.8 260.1 224.95 259.55 224.41L252.89 217.75C252.35 217.21 251.5 217.14 250.87 217.57L244.25 222.24C243.74 222.6 243.07 222.62 242.54 222.3C239.24 220.29 235.65 218.8 231.89 217.89C231.29 217.74 230.83 217.25 230.73 216.64L229.33 208.65C229.19 207.89 228.54 207.35 227.77 207.35H218.36C217.59 207.35 216.94 207.9 216.8 208.65V208.66ZM236.23 254.34C236.23 261.61 230.34 267.51 223.06 267.51C215.78 267.51 209.89 261.62 209.89 254.34C209.89 247.06 215.78 241.17 223.06 241.17C230.33 241.17 236.22 247.06 236.22 254.33L236.23 254.34Z" stroke="#114F6E" stroke-width="2" stroke-miterlimit="10" stroke-linecap="round"/>
<path d="M175.94 87.6902H284.72C288.34 87.6902 291.69 88.8701 294.4 90.8801C291.43 86.8701 286.66 84.2602 281.29 84.2602H172.51L170.41 82.1602L175.94 87.6902Z" fill="#114F6E" stroke="#114F6E" stroke-width="2" stroke-miterlimit="10" stroke-linecap="round"/>
<path d="M137.05 175.11V103.98C137.05 94.9801 144.35 87.6801 153.35 87.6801H158.03V69.7601L154.6 66.3301V84.2501H149.92C140.92 84.2501 133.62 91.5501 133.62 100.55V171.68C133.62 177.06 136.22 181.82 140.24 184.79C138.24 182.08 137.05 178.74 137.05 175.11Z" fill="#114F6E" stroke="#114F6E" stroke-width="2" stroke-miterlimit="10" stroke-linecap="round"/>
<path d="M283.55 86.3702H174.63L156.71 68.4502V86.3702H151.89C142.97 86.3702 135.73 93.6002 135.73 102.53V173.94C135.73 182.86 142.96 190.1 151.89 190.1H283.56C292.48 190.1 299.72 182.87 299.72 173.94V102.53C299.72 93.6102 292.49 86.3702 283.56 86.3702H283.55Z" fill="white"/>
<path d="M283.55 86.3702H174.63L156.71 68.4502V86.3702H151.89C142.97 86.3702 135.73 93.6002 135.73 102.53V173.94C135.73 182.86 142.96 190.1 151.89 190.1H283.56C292.48 190.1 299.72 182.87 299.72 173.94V102.53C299.72 93.6102 292.49 86.3702 283.56 86.3702H283.55Z" stroke="#114F6E" stroke-width="2" stroke-miterlimit="10" stroke-linecap="round"/>
<path d="M209.51 135.19C209.51 133.35 210.85 131.79 212.66 131.49C220.59 130.18 225.94 126.32 225.94 121.7C225.94 116.84 221.7 112.33 214.98 112.33C210.49 112.33 206.83 114.22 203.77 117.03C202.23 118.45 199.85 118.41 198.37 116.93C196.81 115.37 196.86 112.84 198.46 111.32C202.93 107.09 208.7 104.29 215.95 104.29C227.35 104.29 234.95 111.54 234.95 120.81C234.95 128.76 227.88 135.92 217.99 138.04V143.52C217.99 145.86 216.09 147.76 213.75 147.76C211.41 147.76 209.51 145.86 209.51 143.52V135.18V135.19ZM207.74 161.11C207.74 158.11 210.3 155.37 213.66 155.37C216.84 155.37 219.4 158.11 219.4 161.11C219.4 164.38 216.84 167.12 213.66 167.12C210.3 167.12 207.74 164.38 207.74 161.11Z" fill="#114F6E"/>
<path d="M706.51 180.49V180.09C706.51 177.18 704.15 174.82 701.24 174.82H679.76" stroke="#195F88" stroke-width="2" stroke-miterlimit="10" stroke-linecap="round"/>
<path d="M546.71 256.93V287.2C546.71 291.61 550.19 295.2 554.56 295.37" stroke="#195F88" stroke-width="2" stroke-miterlimit="10" stroke-linecap="round"/>
<path d="M557.94 298.73H558.24C558.14 298.73 558.04 298.72 557.94 298.71V298.73Z" fill="#D1F1FF"/>
<path d="M718.55 183.89H655.66C654.15 183.89 652.72 184.53 651.72 185.66L645.14 193.06C644.14 194.18 642.71 194.83 641.2 194.83H571.15C568.54 194.83 566.42 196.95 566.42 199.56V290.55C566.42 295.07 562.76 298.73 558.24 298.73H712.05C718.56 298.73 723.83 293.46 723.83 286.95V189.16C723.83 186.25 721.47 183.89 718.56 183.89H718.55Z" fill="#D1F1FF"/>
<path d="M533.58 240.96V99.96C533.58 93.61 538.73 88.46 545.08 88.46H661.21C661.58 88.46 661.96 88.48 662.32 88.51" stroke="#195F88" stroke-width="2" stroke-miterlimit="10" stroke-linecap="round"/>
<path d="M527.37 235.52V94.52C527.37 88.17 532.52 83.02 538.87 83.02H655C655.37 83.02 655.75 83.04 656.11 83.07" stroke="#195F88" stroke-width="2" stroke-miterlimit="10" stroke-linecap="round"/>
<path d="M562.71 257.71H551.1C544.75 257.71 539.6 252.56 539.6 246.21V105.21C539.6 98.86 544.75 93.71 551.1 93.71H667.23C673.58 93.71 678.73 98.86 678.73 105.21V179.55" stroke="#195F88" stroke-width="2" stroke-miterlimit="10" stroke-linecap="round"/>
<path d="M658.64 122.04H559.81C558.418 122.04 557.29 123.168 557.29 124.56C557.29 125.952 558.418 127.08 559.81 127.08H658.64C660.032 127.08 661.16 125.952 661.16 124.56C661.16 123.168 660.032 122.04 658.64 122.04Z" stroke="#195F88" stroke-width="2" stroke-miterlimit="10" stroke-linecap="round"/>
<path d="M658.64 135.89H559.81C558.418 135.89 557.29 137.018 557.29 138.41C557.29 139.802 558.418 140.93 559.81 140.93H658.64C660.032 140.93 661.16 139.802 661.16 138.41C661.16 137.018 660.032 135.89 658.64 135.89Z" stroke="#195F88" stroke-width="2" stroke-miterlimit="10" stroke-linecap="round"/>
<path d="M633.56 149.73H559.81C558.418 149.73 557.29 150.858 557.29 152.25C557.29 153.642 558.418 154.77 559.81 154.77H633.56C634.952 154.77 636.08 153.642 636.08 152.25C636.08 150.858 634.952 149.73 633.56 149.73Z" stroke="#195F88" stroke-width="2" stroke-miterlimit="10" stroke-linecap="round"/>
<path d="M554.6 295.39H554.9C554.8 295.39 554.7 295.38 554.6 295.37V295.39Z" stroke="#195F88" stroke-width="2" stroke-miterlimit="10" stroke-linecap="round"/>
<path d="M715.21 180.55H652.32C650.81 180.55 649.38 181.19 648.38 182.32L641.8 189.72C640.8 190.84 639.37 191.49 637.86 191.49H567.81C565.2 191.49 563.08 193.61 563.08 196.22V287.21C563.08 291.73 559.42 295.39 554.9 295.39H708.71C715.22 295.39 720.49 290.12 720.49 283.61V185.82C720.49 182.91 718.13 180.55 715.22 180.55H715.21Z" stroke="#195F88" stroke-width="2" stroke-miterlimit="10" stroke-linecap="round"/>
<path d="M377.74 162.7H265.94C254.66 162.7 245.52 171.84 245.52 183.12V238.83C245.52 250.11 254.66 259.25 265.94 259.25H339.38L353.55 273.42V259.25H377.74C389.02 259.25 398.16 250.11 398.16 238.83V183.12C398.16 171.84 389.02 162.7 377.74 162.7Z" fill="#114F6E"/>
<path d="M377.74 162.7H265.94C254.66 162.7 245.52 171.84 245.52 183.12V238.83C245.52 250.11 254.66 259.25 265.94 259.25H339.38L353.55 273.42V259.25H377.74C389.02 259.25 398.16 250.11 398.16 238.83V183.12C398.16 171.84 389.02 162.7 377.74 162.7Z" stroke="#114F6E" stroke-width="2" stroke-miterlimit="10" stroke-linecap="round"/>
<path d="M380.15 164.61H268.35C257.07 164.61 247.93 173.75 247.93 185.03V240.74C247.93 252.02 257.07 261.16 268.35 261.16H341.79L355.96 275.33V261.16H380.15C391.43 261.16 400.57 252.02 400.57 240.74V185.03C400.57 173.75 391.43 164.61 380.15 164.61Z" fill="white"/>
<path d="M380.15 164.61H268.35C257.07 164.61 247.93 173.75 247.93 185.03V240.74C247.93 252.02 257.07 261.16 268.35 261.16H341.79L355.96 275.33V261.16H380.15C391.43 261.16 400.57 252.02 400.57 240.74V185.03C400.57 173.75 391.43 164.61 380.15 164.61Z" stroke="#114F6E" stroke-width="2" stroke-miterlimit="10" stroke-linecap="round"/>
<path d="M291.82 220.88C295.388 220.88 298.28 217.988 298.28 214.42C298.28 210.852 295.388 207.96 291.82 207.96C288.252 207.96 285.36 210.852 285.36 214.42C285.36 217.988 288.252 220.88 291.82 220.88Z" fill="#114F6E"/>
<path d="M314.31 220.88C317.878 220.88 320.77 217.988 320.77 214.42C320.77 210.852 317.878 207.96 314.31 207.96C310.742 207.96 307.85 210.852 307.85 214.42C307.85 217.988 310.742 220.88 314.31 220.88Z" fill="#114F6E"/>
<path d="M336.8 220.88C340.368 220.88 343.26 217.988 343.26 214.42C343.26 210.852 340.368 207.96 336.8 207.96C333.232 207.96 330.34 210.852 330.34 214.42C330.34 217.988 333.232 220.88 336.8 220.88Z" fill="#114F6E"/>
<path d="M493.92 241.04H402.74V364.42H493.92V241.04Z" fill="white" stroke="#114F6E" stroke-width="2" stroke-miterlimit="10" stroke-linecap="round"/>
<path d="M403.16 241.26V319.83C411.86 326.61 422.8 330.65 434.68 330.65H436.9C465.25 330.65 488.23 307.67 488.23 279.32V241.26H403.16Z" fill="#D1F1FF"/>
<path d="M382.92 180H450.73C470.24 180 486.08 195.84 486.08 215.35V272.71C486.08 301.18 462.97 324.29 434.5 324.29C406.03 324.29 382.92 301.18 382.92 272.71V180Z" fill="white" stroke="#114F6E" stroke-width="2" stroke-miterlimit="10" stroke-linecap="round"/>
<path d="M423.12 252.38C423.12 256.47 419.8 259.78 415.72 259.78C411.64 259.78 408.32 256.46 408.32 252.38C408.32 248.3 411.64 244.98 415.72 244.98" stroke="#114F6E" stroke-width="2" stroke-miterlimit="10" stroke-linecap="round"/>
<path d="M408.92 268.21C409.83 269.96 410.75 271.73 412.09 273.18C414.97 276.3 419.67 277.52 423.78 276.43C427.89 275.34 431.29 272.07 432.78 268.09" stroke="#114F6E" stroke-width="2" stroke-miterlimit="10" stroke-linecap="round"/>
<path d="M385.38 197.23C380.24 196.56 375.74 193.3 372.38 189.35C367.09 183.13 364.13 174.75 365.3 166.67C366.48 158.59 372.14 151.09 379.91 148.6C387.68 146.1 397.16 149.32 401.08 156.48C399.75 155.4 400.72 153.25 401.89 151.99C409.82 143.4 424.22 141.78 433.87 148.38C439.54 152.26 443.32 158.32 446.47 164.43C457.06 153.25 474.49 149.15 488.95 154.44C496.68 157.26 504 163.48 504.73 171.68C505.38 179.01 500.71 185.64 496.27 191.51C498.95 190.03 502.53 191.34 504.38 193.78C506.23 196.22 506.64 199.47 506.48 202.53C505.8 215.57 494.4 227.3 481.36 228.01C480.55 228.05 479.7 228.05 478.97 227.69C477.7 227.05 477.2 225.5 476.94 224.1C476.24 220.3 476.43 216.33 477.47 212.61C460.9 212.2 444.34 211.36 427.82 210.07C413.13 208.93 398 207.31 385.06 200.26C377.45 196.12 370.48 189.55 368.83 181.05" fill="#FF8142"/>
<path d="M478.2 230.09C481.7 225.48 487.49 223.72 493.1 222.88C495.7 222.49 499.19 222.64 501.49 223.08C510.17 224.75 516.79 233.17 516.79 242.01C516.79 250.85 511.01 259.11 503.25 263.34C495.26 267.69 485.23 268.07 476.94 264.33" fill="white"/>
<path d="M478.2 230.09C481.7 225.48 487.49 223.72 493.1 222.88C495.7 222.49 499.19 222.64 501.49 223.08C510.17 224.75 516.79 233.17 516.79 242.01C516.79 250.85 511.01 259.11 503.25 263.34C495.26 267.69 485.23 268.07 476.94 264.33" stroke="#114F6E" stroke-width="2" stroke-miterlimit="10" stroke-linecap="round"/>
<path d="M481.06 245.93C485.95 237.22 495.2 231.09 505.13 229.99" stroke="#114F6E" stroke-width="2" stroke-miterlimit="10" stroke-linecap="round"/>
<path d="M490.59 235.44C494.74 235.21 498.94 236.2 502.55 238.26" stroke="#114F6E" stroke-width="2" stroke-miterlimit="10" stroke-linecap="round"/>
<path d="M437.08 225.88C444.46 223.01 452.56 225.24 457.5 230.86" stroke="#114F6E" stroke-width="2" stroke-miterlimit="10" stroke-linecap="round"/>
<path d="M450.87 248.58C452.593 248.58 453.99 247.183 453.99 245.46C453.99 243.737 452.593 242.34 450.87 242.34C449.147 242.34 447.75 243.737 447.75 245.46C447.75 247.183 449.147 248.58 450.87 248.58Z" fill="#114F6E"/>
<path d="M400.49 225.88C393.11 223.01 385.01 225.24 380.07 230.86" stroke="#114F6E" stroke-width="2" stroke-miterlimit="10" stroke-linecap="round"/>
<path d="M401.08 248.58C402.803 248.58 404.2 247.183 404.2 245.46C404.2 243.737 402.803 242.34 401.08 242.34C399.357 242.34 397.96 243.737 397.96 245.46C397.96 247.183 399.357 248.58 401.08 248.58Z" fill="#114F6E"/>
<path d="M490.9 283.04C499.212 283.04 505.95 271.587 505.95 257.46C505.95 243.332 499.212 231.88 490.9 231.88C482.588 231.88 475.85 243.332 475.85 257.46C475.85 271.587 482.588 283.04 490.9 283.04Z" fill="#114F6E" stroke="#114F6E" stroke-width="2" stroke-miterlimit="10" stroke-linecap="round"/>
<path d="M496.89 277.41C503.374 277.41 508.63 268.478 508.63 257.46C508.63 246.442 503.374 237.51 496.89 237.51C490.406 237.51 485.15 246.442 485.15 257.46C485.15 268.478 490.406 277.41 496.89 277.41Z" fill="#114F6E"/>
<path d="M487.38 233.02V202C487.38 177.05 467.82 156.83 442.87 156.83H442.63L437.93 151.18L443.19 151.1C471.29 151.1 494.06 173.88 494.06 201.97V234.46" fill="#114F6E"/>
<path d="M487.38 233.02V202C487.38 177.05 467.82 156.83 442.87 156.83H442.63L437.93 151.18L443.19 151.1C471.29 151.1 494.06 173.88 494.06 201.97V234.46" stroke="#114F6E" stroke-width="2" stroke-linecap="round" stroke-linejoin="round"/>
<path d="M496.95 277.41C490.5 277.35 485.28 268.44 485.28 257.46C485.28 255.66 485.42 253.91 485.68 252.25" stroke="white" stroke-width="2" stroke-linecap="round" stroke-linejoin="round"/>
<path d="M486.13 249.97C486.58 248.1 487.19 246.36 487.93 244.82" stroke="white" stroke-width="2" stroke-linecap="round" stroke-linejoin="round"/>
<path d="M489.64 241.94C490.03 241.4 490.44 240.91 490.87 240.46" stroke="white" stroke-width="2" stroke-linecap="round" stroke-linejoin="round"/>
<path d="M575.37 352.48L494.89 335.31C481.23 340.26 465.84 343.04 449.57 343.04C433.3 343.04 416.86 340.07 402.85 334.8H400.77L326.88 355.05C292.43 364.49 264.92 390.42 253.47 424.25L251.73 429.38H656.83L655.09 424.08C643.15 387.73 612.79 360.46 575.37 352.47V352.48Z" fill="#1995D0"/>
</g>
<defs>
<clipPath id="clip0_325_4335">
<rect width="945.33" height="429.39" fill="white"/>
</clipPath>
</defs>
</svg>
