<?xml version="1.0" encoding="UTF-8"?><svg id="illustrations" xmlns="http://www.w3.org/2000/svg" width="120" height="72" viewBox="0 0 120 72"><defs><style>.cls-1{fill:#195f88;}.cls-1,.cls-2,.cls-3,.cls-4,.cls-5,.cls-6{stroke-width:0px;}.cls-2{fill:#e25f1e;}.cls-3{fill:#009adb;}.cls-4{fill:#ff8f3d;}.cls-5{fill:#66c2e9;}.cls-6{fill:#fff;}</style></defs><polygon class="cls-2" points="119.74 21.59 119.74 15.58 114.54 12.58 109.34 15.58 109.34 21.59 114.54 24.59 119.74 21.59"/><polygon class="cls-3" points="14.64 47.03 14.64 38.72 7.45 34.57 .26 38.72 .26 47.03 7.45 51.18 14.64 47.03"/><rect class="cls-1" x="31.09" y="3.69" width="60.26" height="60.26"/><path class="cls-6" d="m57.16,22.08h-11.95v-7.43h32.17v7.43h-12.01v30.94h-8.21v-30.94Z"/><rect class="cls-5" x="88.09" y=".61" width="6.33" height="6.33" transform="translate(95.03 -87.48) rotate(90)"/><rect class="cls-5" x="28" y=".61" width="6.33" height="6.33" transform="translate(34.93 -27.39) rotate(90)"/><rect class="cls-1" x="88.09" y="60.72" width="6.33" height="6.33" transform="translate(155.14 -27.38) rotate(90)"/><rect class="cls-5" x="28" y="60.72" width="6.33" height="6.33" transform="translate(95.04 32.72) rotate(90)"/><polygon class="cls-4" points="91.25 55.65 77.66 47.8 77.66 47.78 91.29 39.91 104.93 47.78 104.93 63.52 91.29 71.39 91.25 71.37 91.25 55.65"/><polygon class="cls-2" points="77.62 63.48 77.62 47.76 84.21 51.57 91.2 55.61 91.2 71.33 77.62 63.48"/></svg>