<?xml version="1.0" encoding="UTF-8"?><svg id="illustrations" xmlns="http://www.w3.org/2000/svg" width="928" height="192" viewBox="0 0 928 192"><defs><style>.cls-1{fill:#314351;}.cls-1,.cls-2,.cls-3,.cls-4,.cls-5,.cls-6,.cls-7,.cls-8,.cls-9,.cls-10{stroke-width:0px;}.cls-2{fill:#195f88;}.cls-3{fill:#25333d;}.cls-4{fill:#b2e0f4;}.cls-5{fill:#009adb;}.cls-6{fill:#ff8f3d;}.cls-7{fill:#66c2e9;}.cls-8{fill:#fff;}.cls-9{fill:#ffbc8b;}.cls-10{fill:#ffddc4;}</style></defs><polygon class="cls-4" points="664.7 45.41 675.81 39 675.81 38.98 664.67 32.55 653.53 38.98 653.53 51.85 664.67 58.28 664.7 58.26 664.7 45.41"/><polygon class="cls-7" points="675.85 51.82 675.85 38.97 664.74 45.38 664.74 58.23 675.85 51.82"/><polygon class="cls-6" points="519.94 121.87 519.94 98.91 500.05 87.43 480.17 98.91 480.17 121.87 500.05 133.35 519.94 121.87"/><polygon class="cls-4" points="455.45 103.6 455.45 53.71 412.24 28.76 369.04 53.71 369.04 103.6 412.24 128.54 455.45 103.6"/><path class="cls-5" d="m434.53,52.69v-1.69l-2.93-.93c-.24-1.12-.68-2.16-1.3-3.07l1.43-2.75-1.2-1.2-2.77,1.44c-.91-.59-1.94-1.03-3.04-1.25l-.95-2.99h-1.69l-.95,2.99c-1.1.23-2.13.66-3.04,1.25l-2.77-1.44-1.2,1.2,1.43,2.75c-.61.92-1.06,1.96-1.3,3.07l-2.93.93v1.69l2.9.92c.22,1.15.67,2.21,1.29,3.15l-1.39,2.68,1.2,1.2,2.66-1.38c.95.64,2.03,1.1,3.19,1.33l.9,2.85h1.69l.9-2.85c1.16-.23,2.24-.69,3.19-1.33l2.66,1.38,1.2-1.2-1.39-2.68c.62-.94,1.06-2.01,1.29-3.15l2.9-.92Zm-11.54,1.42c-1.29,0-2.33-1.04-2.33-2.33s1.04-2.33,2.33-2.33,2.33,1.04,2.33,2.33-1.04,2.33-2.33,2.33Z"/><path class="cls-8" d="m430.83,85.27c-.2-3.25-1.06-6.32-2.43-9.08l1.32-1.47-.91-1.57-1.94.41c-1.75-2.63-4.02-4.89-6.65-6.65l.41-1.94-1.57-.91-1.47,1.32c-2.77-1.37-5.84-2.22-9.08-2.43l-.62-1.88h-1.82l-.62,1.88c-3.25.2-6.32,1.06-9.08,2.43l-1.47-1.32-1.57.91.41,1.94c-2.63,1.75-4.89,4.02-6.65,6.65l-1.94-.41-.91,1.57,1.32,1.47c-1.37,2.77-2.22,5.84-2.43,9.08l-1.88.62v1.82l1.88.62c.2,3.25,1.06,6.32,2.43,9.08l-1.32,1.47.91,1.57,1.94-.41c1.75,2.63,4.02,4.89,6.65,6.65l-.41,1.94,1.57.91,1.47-1.32c2.77,1.37,5.84,2.22,9.08,2.43l.62,1.88h1.82l.62-1.88c3.25-.2,6.32-1.06,9.08-2.43l1.47,1.32,1.57-.91-.41-1.94c2.63-1.75,4.89-4.02,6.65-6.65l1.94.41.91-1.57-1.32-1.47c1.37-2.77,2.22-5.84,2.43-9.08l1.88-.62v-1.82l-1.88-.62Zm-23.85,7.64c-3.38,0-6.12-2.74-6.12-6.12s2.74-6.12,6.12-6.12,6.12,2.74,6.12,6.12-2.74,6.12-6.12,6.12Z"/><path class="cls-6" d="m446.96,68.41l-.2-1.23-2.24-.33c-.3-.78-.75-1.49-1.3-2.08l.71-2.17-1.01-.73-1.85,1.37c-.73-.32-1.53-.52-2.36-.55l-1.04-2.06-1.23.2-.34,2.28c-.77.29-1.47.73-2.06,1.27l-2.19-.72-.73,1.01,1.36,1.83c-.34.74-.54,1.55-.58,2.39l-2.02,1.02.2,1.23,2.22.33c.3.81.75,1.53,1.31,2.14l-.69,2.11,1.01.73,1.77-1.32c.77.35,1.61.56,2.48.59l.99,1.96,1.23-.2.32-2.18c.82-.31,1.55-.77,2.16-1.35l2.1.69.73-1.01-1.33-1.79c.34-.76.54-1.59.56-2.45l2-1.01Zm-7.85,4.7c-2.21.36-4.3-1.14-4.66-3.36-.36-2.21,1.14-4.3,3.36-4.66,2.21-.36,4.3,1.14,4.66,3.36.36,2.21-1.14,4.3-3.36,4.66Z"/><polygon class="cls-7" points="131.37 38.32 118.3 30.77 118.3 45.85 131.37 53.4 144.44 45.85 144.44 30.77 131.37 38.32"/><polygon class="cls-4" points="118.3 30.8 118.3 30.81 131.37 38.36 144.44 30.81 144.44 30.8 131.37 23.25 118.3 30.8"/><polygon class="cls-10" points="915.48 111.07 915.48 86.99 894.63 74.95 873.77 86.99 873.77 111.07 894.63 123.11 915.48 111.07"/><polygon class="cls-9" points="342.23 143.72 342.23 48.28 259.58 .56 176.93 48.28 176.93 143.72 259.58 191.44 342.23 143.72"/><path class="cls-8" d="m283.27,127.99h-47.41c-2.37,0-4.3-1.92-4.3-4.3v-23.39s0-2.62,0-2.62v-11.85s7.55,7.55,7.55,7.55h44.16c2.37,0,4.3,1.92,4.3,4.3v26.02c0,2.37-1.92,4.3-4.3,4.3Z"/><path class="cls-3" d="m214.96,136.81c-.5,0-.94-.38-.99-.89l-4.75-44.83c-.77-7.27-.18-14.1,1.75-20.3,6.65-21.39,26.18-35.76,48.6-35.76s41.95,14.37,48.6,35.76c1.93,6.2,2.52,13.03,1.75,20.3l-4.75,44.83c-.06.55-.55.95-1.1.89-.55-.06-.95-.55-.89-1.1l4.75-44.83c.74-7,.18-13.56-1.67-19.49-6.39-20.55-25.15-34.35-46.69-34.35s-40.3,13.8-46.69,34.35c-1.85,5.94-2.41,12.5-1.67,19.49l4.75,44.83c.06.55-.34,1.04-.89,1.1-.04,0-.07,0-.11,0Z"/><path class="cls-8" d="m211.02,100.81h8.02v43.56h-8.02c-6.39,0-11.58-5.19-11.58-11.58v-20.4c0-6.39,5.19-11.58,11.58-11.58Z" transform="translate(-11.25 21.62) rotate(-5.76)"/><path class="cls-8" d="m212.01,145.15c-2.89,0-5.67-.99-7.94-2.84-2.6-2.13-4.22-5.14-4.56-8.48l-2.05-20.3c-.7-6.9,4.35-13.09,11.26-13.78l7.98-.81c.27-.03.53.05.73.22.21.17.34.41.36.67l4.37,43.34c.03.26-.05.53-.22.73s-.41.34-.67.36l-7.98.81c-.43.04-.86.06-1.29.06Zm3.9-44.11l-6.99.71c-5.81.59-10.05,5.79-9.47,11.59l2.05,20.3c.28,2.81,1.65,5.35,3.83,7.13,2.19,1.79,4.95,2.61,7.76,2.33l6.99-.7-4.17-41.35Z"/><path class="cls-3" d="m214.06,145c-.51,0-.94-.38-.99-.9l-2.96-29.36c-.06-.55.35-1.04.89-1.1.55-.05,1.04.35,1.1.89l2.96,29.36c.06.55-.35,1.04-.89,1.1-.03,0-.07,0-.1,0Z"/><path class="cls-8" d="m311.7,100.81h8.02v43.56h-8.02c-6.39,0-11.58-5.19-11.58-11.58v-20.4c0-6.39,5.19-11.58,11.58-11.58Z" transform="translate(605.97 275.68) rotate(-174.24)"/><path class="cls-8" d="m307.14,145.15c-.42,0-.84-.02-1.27-.06l-7.98-.81c-.26-.03-.51-.16-.67-.36s-.25-.47-.22-.73l4.37-43.34c.03-.26.16-.51.36-.67.21-.17.46-.25.73-.22l7.98.81c3.34.34,6.36,1.96,8.48,4.56,2.13,2.6,3.11,5.88,2.77,9.22l-2.05,20.3c-.65,6.48-6.14,11.32-12.51,11.32Zm-8.06-2.76l6.99.7c5.81.58,11-3.66,11.59-9.47l2.05-20.3c.28-2.81-.54-5.57-2.33-7.76-1.79-2.19-4.32-3.55-7.13-3.83l-6.99-.71-4.17,41.35Z"/><path class="cls-3" d="m305.1,145s-.07,0-.1,0c-.55-.06-.95-.55-.89-1.1l2.96-29.36c.06-.55.54-.95,1.1-.89.55.06.95.55.89,1.1l-2.96,29.36c-.05.52-.49.9-.99.9Z"/><circle class="cls-1" cx="245.04" cy="109.68" r="3.11"/><circle class="cls-1" cx="255.41" cy="109.68" r="3.11"/><circle class="cls-1" cx="265.78" cy="109.68" r="3.11"/><polygon class="cls-6" points="164.36 126.53 164.36 116.68 155.84 111.76 147.31 116.68 147.31 126.53 155.84 131.45 164.36 126.53"/><path class="cls-3" d="m914.45,98.78c-.17,0-.35-.04-.5-.13l-9.88-5.7c-.31-.18-.5-.51-.5-.87v-11.4c0-.36.19-.69.5-.87l9.88-5.7c.31-.18.69-.18,1,0l9.88,5.7c.31.18.5.51.5.87v11.4c0,.36-.19.69-.5.87l-9.88,5.7c-.15.09-.33.13-.5.13Zm-8.88-7.28l8.88,5.12,8.88-5.12v-10.25l-8.88-5.12-8.88,5.12v10.25Zm18.75.58h0,0Z"/><path class="cls-7" d="m755.96,98.23c0-2.92-2.37-5.28-5.28-5.28-.4,0-.8.05-1.17.13.07-.54.11-1.08.11-1.64,0-6.67-5.41-12.08-12.08-12.08-.75,0-1.49.07-2.21.2-2.51-6.75-9.02-11.56-16.64-11.56-9.29,0-16.91,7.13-17.69,16.21-1.24-.54-2.6-.84-4.04-.84-5.56,0-10.07,4.51-10.07,10.07s4.51,10.07,10.07,10.07c.05,0,.1,0,.15,0h0s53.61,0,53.61,0h0c2.89-.03,5.23-2.38,5.23-5.28Z"/><polygon class="cls-7" points="36.74 116.49 36.74 62.99 83.07 36.24 129.41 62.99 129.41 116.49 83.07 143.24 36.74 116.49"/><path class="cls-8" d="m115.67,66.55h-57.09c-2.86,0-5.18,2.32-5.18,5.18v45.59l9.09-9.09h53.17c2.86,0,5.18-2.32,5.18-5.18v-31.32c0-2.86-2.32-5.18-5.18-5.18Z"/><path class="cls-6" d="m5.18,34.39h35.87c2.86,0,5.18,2.32,5.18,5.18v28.16s0,3.16,0,3.16v14.27s-9.09-9.09-9.09-9.09H5.18c-2.86,0-5.18-2.32-5.18-5.18v-31.32c0-2.86,2.32-5.18,5.18-5.18Z"/><path class="cls-3" d="m109.48,79.67h-45.46c-.55,0-1-.45-1-1s.45-1,1-1h45.46c.55,0,1,.45,1,1s-.45,1-1,1Z"/><path class="cls-3" d="m109.48,85.73h-45.46c-.55,0-1-.45-1-1s.45-1,1-1h45.46c.55,0,1,.45,1,1s-.45,1-1,1Z"/><path class="cls-3" d="m81.45,91.79h-17.43c-.55,0-1-.45-1-1s.45-1,1-1h17.43c.55,0,1,.45,1,1s-.45,1-1,1Z"/><path class="cls-1" d="m20.8,53.69c2.52-.11,4.28-1.11,4.28-2.41,0-1.14-1.08-2.11-2.71-2.11-1.35,0-2.55.7-3.44,1.68l-2.28-2.33c1.54-1.73,3.69-2.93,6.37-2.93,3.63,0,6.1,2.25,6.1,5.31,0,2.44-1.98,4.63-4.8,5.28v1.95h-3.52v-4.44Zm-.76,8.64c0-1.27,1.11-2.41,2.52-2.41,1.33,0,2.41,1.14,2.41,2.41,0,1.38-1.08,2.52-2.41,2.52-1.41,0-2.52-1.14-2.52-2.52Z"/><path class="cls-3" d="m536.3,132.41c-.17,0-.35-.04-.5-.13l-36.13-20.86c-.31-.18-.5-.51-.5-.87v-41.72c0-.36.19-.69.5-.87l36.13-20.86c.31-.18.69-.18,1,0l36.13,20.86c.31.18.5.51.5.87v41.72c0,.36-.19.69-.5.87l-36.13,20.86c-.15.09-.33.13-.5.13Zm-35.13-22.43l35.13,20.28,35.13-20.28v-40.56l-35.13-20.28-35.13,20.28v40.56Zm71.25.58h0,0Z"/><path class="cls-4" d="m589.96,66.68h1.82c1.54,0,2.8,1.25,2.8,2.8v42.97c0,1.54-1.25,2.8-2.8,2.8h-58.84c-1.54,0-2.8-1.25-2.8-2.8v-42.97c0-1.54,1.25-2.8,2.8-2.8h1.98"/><rect class="cls-6" x="574.96" y="90.53" width="7.21" height="7.96"/><path class="cls-2" d="m572.29,80.15h-3.96c-.55,0-1-.45-1-1s.45-1,1-1h3.96c.55,0,1,.45,1,1s-.45,1-1,1Z"/><path class="cls-2" d="m539.04,80.15h-3.96c-.55,0-1-.45-1-1s.45-1,1-1h3.96c.55,0,1,.45,1,1s-.45,1-1,1Z"/><path class="cls-2" d="m547.35,80.15h-3.96c-.55,0-1-.45-1-1s.45-1,1-1h3.96c.55,0,1,.45,1,1s-.45,1-1,1Z"/><path class="cls-2" d="m555.66,80.15h-3.96c-.55,0-1-.45-1-1s.45-1,1-1h3.96c.55,0,1,.45,1,1s-.45,1-1,1Z"/><path class="cls-2" d="m563.97,80.15h-3.96c-.55,0-1-.45-1-1s.45-1,1-1h3.96c.55,0,1,.45,1,1s-.45,1-1,1Z"/><path class="cls-2" d="m580.6,80.15h-3.96c-.55,0-1-.45-1-1s.45-1,1-1h3.96c.55,0,1,.45,1,1s-.45,1-1,1Z"/><path class="cls-2" d="m588.91,80.15h-3.96c-.55,0-1-.45-1-1s.45-1,1-1h3.96c.55,0,1,.45,1,1s-.45,1-1,1Z"/><path class="cls-2" d="m539.04,88.97h-3.96c-.55,0-1-.45-1-1s.45-1,1-1h3.96c.55,0,1,.45,1,1s-.45,1-1,1Z"/><path class="cls-2" d="m547.35,88.97h-3.96c-.55,0-1-.45-1-1s.45-1,1-1h3.96c.55,0,1,.45,1,1s-.45,1-1,1Z"/><path class="cls-2" d="m555.66,88.97h-3.96c-.55,0-1-.45-1-1s.45-1,1-1h3.96c.55,0,1,.45,1,1s-.45,1-1,1Z"/><path class="cls-2" d="m563.97,88.97h-3.96c-.55,0-1-.45-1-1s.45-1,1-1h3.96c.55,0,1,.45,1,1s-.45,1-1,1Z"/><path class="cls-2" d="m572.29,88.97h-3.96c-.55,0-1-.45-1-1s.45-1,1-1h3.96c.55,0,1,.45,1,1s-.45,1-1,1Z"/><path class="cls-2" d="m580.6,88.97h-3.96c-.55,0-1-.45-1-1s.45-1,1-1h3.96c.55,0,1,.45,1,1s-.45,1-1,1Z"/><path class="cls-2" d="m588.91,88.97h-3.96c-.55,0-1-.45-1-1s.45-1,1-1h3.96c.55,0,1,.45,1,1s-.45,1-1,1Z"/><path class="cls-2" d="m539.04,97.79h-3.96c-.55,0-1-.45-1-1s.45-1,1-1h3.96c.55,0,1,.45,1,1s-.45,1-1,1Z"/><path class="cls-2" d="m547.35,97.79h-3.96c-.55,0-1-.45-1-1s.45-1,1-1h3.96c.55,0,1,.45,1,1s-.45,1-1,1Z"/><path class="cls-2" d="m555.66,97.79h-3.96c-.55,0-1-.45-1-1s.45-1,1-1h3.96c.55,0,1,.45,1,1s-.45,1-1,1Z"/><path class="cls-2" d="m563.97,97.79h-3.96c-.55,0-1-.45-1-1s.45-1,1-1h3.96c.55,0,1,.45,1,1s-.45,1-1,1Z"/><path class="cls-2" d="m572.29,97.79h-3.96c-.55,0-1-.45-1-1s.45-1,1-1h3.96c.55,0,1,.45,1,1s-.45,1-1,1Z"/><path class="cls-2" d="m580.6,97.79h-3.96c-.55,0-1-.45-1-1s.45-1,1-1h3.96c.55,0,1,.45,1,1s-.45,1-1,1Z"/><path class="cls-2" d="m588.91,97.79h-3.96c-.55,0-1-.45-1-1s.45-1,1-1h3.96c.55,0,1,.45,1,1s-.45,1-1,1Z"/><path class="cls-2" d="m539.04,106.62h-3.96c-.55,0-1-.45-1-1s.45-1,1-1h3.96c.55,0,1,.45,1,1s-.45,1-1,1Z"/><path class="cls-2" d="m547.35,106.62h-3.96c-.55,0-1-.45-1-1s.45-1,1-1h3.96c.55,0,1,.45,1,1s-.45,1-1,1Z"/><path class="cls-2" d="m555.66,106.62h-3.96c-.55,0-1-.45-1-1s.45-1,1-1h3.96c.55,0,1,.45,1,1s-.45,1-1,1Z"/><path class="cls-2" d="m563.97,106.62h-3.96c-.55,0-1-.45-1-1s.45-1,1-1h3.96c.55,0,1,.45,1,1s-.45,1-1,1Z"/><path class="cls-2" d="m572.29,106.62h-3.96c-.55,0-1-.45-1-1s.45-1,1-1h3.96c.55,0,1,.45,1,1s-.45,1-1,1Z"/><path class="cls-2" d="m580.6,106.62h-3.96c-.55,0-1-.45-1-1s.45-1,1-1h3.96c.55,0,1,.45,1,1s-.45,1-1,1Z"/><path class="cls-2" d="m588.91,106.62h-3.96c-.55,0-1-.45-1-1s.45-1,1-1h3.96c.55,0,1,.45,1,1s-.45,1-1,1Z"/><rect class="cls-5" x="534.92" y="63.44" width="2.91" height="6.55" rx="1.46" ry="1.46"/><rect class="cls-5" x="542.28" y="63.44" width="2.91" height="6.55" rx="1.46" ry="1.46"/><rect class="cls-5" x="549.65" y="63.44" width="2.91" height="6.55" rx="1.46" ry="1.46"/><rect class="cls-5" x="557.01" y="63.44" width="2.91" height="6.55" rx="1.46" ry="1.46"/><rect class="cls-5" x="564.38" y="63.44" width="2.91" height="6.55" rx="1.46" ry="1.46"/><rect class="cls-5" x="571.75" y="63.44" width="2.91" height="6.55" rx="1.46" ry="1.46"/><rect class="cls-5" x="579.11" y="63.44" width="2.91" height="6.55" rx="1.46" ry="1.46"/><rect class="cls-5" x="586.48" y="63.44" width="2.91" height="6.55" rx="1.46" ry="1.46"/></svg>