<svg xmlns="http://www.w3.org/2000/svg" width="674" height="450" viewBox="0 0 674 450" fill="none" >
<g clip-path="url(#clip0_466_1157)">
<path d="M568.55 281.36L566.94 290.52C566.82 291.22 566.29 291.78 565.6 291.96C561.3 293 557.18 294.71 553.4 297.01C552.79 297.38 552.02 297.35 551.44 296.95L543.81 291.62C543.09 291.12 542.11 291.21 541.49 291.82L533.85 299.46C533.23 300.08 533.14 301.06 533.65 301.78L538.94 309.39C539.35 309.97 539.38 310.74 539.01 311.36C536.7 315.14 535 319.25 533.96 323.56C533.79 324.25 533.22 324.78 532.52 324.9L523.36 326.51C522.49 326.66 521.86 327.42 521.86 328.29V339.09C521.86 339.97 522.49 340.72 523.36 340.87L532.52 342.48C533.22 342.6 533.78 343.13 533.96 343.81C535 348.12 536.71 352.24 539.01 356.02C539.38 356.63 539.35 357.4 538.94 357.98L533.61 365.61C533.11 366.33 533.19 367.31 533.81 367.93L541.45 375.56C542.07 376.18 543.05 376.27 543.77 375.77L551.4 370.44C551.98 370.03 552.75 370 553.36 370.37C557.14 372.68 561.26 374.38 565.56 375.42C566.25 375.59 566.78 376.16 566.9 376.86L568.51 386.02C568.66 386.89 569.42 387.52 570.29 387.52H581.08C581.96 387.52 582.71 386.89 582.87 386.02L584.48 376.86C584.6 376.16 585.12 375.59 585.81 375.42C590.12 374.38 594.24 372.67 598.02 370.37C598.63 370 599.4 370.03 599.98 370.44L607.61 375.76C608.33 376.26 609.31 376.18 609.93 375.56L617.56 367.93C618.18 367.31 618.27 366.33 617.76 365.61L612.44 357.98C612.03 357.4 612 356.63 612.36 356.02C614.67 352.24 616.38 348.12 617.42 343.81C617.6 343.12 618.16 342.6 618.86 342.48L628.02 340.87C628.88 340.71 629.51 339.96 629.52 339.09V328.29C629.52 327.41 628.89 326.66 628.02 326.51L618.86 324.9C618.16 324.78 617.59 324.25 617.42 323.56C616.38 319.26 614.67 315.14 612.36 311.36C611.99 310.75 612.02 309.98 612.44 309.39L617.76 301.76C618.26 301.04 618.18 300.06 617.56 299.44L609.93 291.8C609.31 291.18 608.33 291.1 607.61 291.6L600.02 296.95C599.44 297.36 598.67 297.38 598.06 297.01C594.28 294.7 590.16 293 585.85 291.96C585.16 291.79 584.64 291.22 584.52 290.52L582.91 281.36C582.75 280.49 582 279.86 581.12 279.86H570.33C569.45 279.86 568.7 280.49 568.55 281.36ZM587.92 333.73C587.92 340.46 582.46 345.92 575.73 345.92C569 345.92 563.54 340.46 563.54 333.73C563.54 327 569 321.54 575.73 321.54C582.46 321.54 587.91 326.99 587.91 333.72L587.92 333.73Z" fill="#D1F1FF"/>
<path d="M247.81 87.1L240.53 85.59C239.84 85.45 239.33 84.88 239.26 84.18C238.32 75.49 236.05 67.2 232.67 59.51C232.39 58.87 232.54 58.12 233.07 57.65L238.61 52.72C239.18 52.21 239.31 51.38 238.93 50.72L234.26 42.63C233.88 41.97 233.09 41.67 232.36 41.91L225.3 44.24C224.64 44.46 223.91 44.22 223.5 43.66C218.43 36.76 212.34 30.67 205.44 25.6C204.88 25.19 204.64 24.46 204.86 23.8L207.19 16.74C207.43 16.02 207.13 15.22 206.47 14.84L198.38 10.17C197.72 9.79001 196.88 9.92001 196.38 10.49L191.45 16.03C190.98 16.55 190.23 16.71 189.59 16.43C181.9 13.04 173.61 10.78 164.92 9.84001C164.22 9.76001 163.65 9.25001 163.51 8.57001L162 1.29001C161.85 0.54001 161.19 0.0100098 160.43 0.0100098H151.09C150.33 0.0100098 149.67 0.55001 149.52 1.29001L148.01 8.57001C147.87 9.26001 147.3 9.77001 146.6 9.84001C137.91 10.78 129.62 13.05 121.93 16.43C121.29 16.71 120.54 16.56 120.07 16.03L115.14 10.49C114.63 9.92001 113.8 9.79001 113.14 10.17L105.05 14.84C104.39 15.22 104.09 16.01 104.33 16.74L106.66 23.8C106.88 24.46 106.64 25.19 106.08 25.6C99.1799 30.67 93.0899 36.76 88.0199 43.66C87.6099 44.22 86.8799 44.46 86.2199 44.24L79.1599 41.91C78.4399 41.67 77.6399 41.97 77.2599 42.63L72.5899 50.72C72.2099 51.38 72.3399 52.22 72.9099 52.72L78.4499 57.65C78.9699 58.12 79.1299 58.87 78.8499 59.51C75.4599 67.2 73.1999 75.49 72.2599 84.18C72.1799 84.88 71.6699 85.45 70.9899 85.59L63.7099 87.1C62.9599 87.25 62.4299 87.91 62.4299 88.67V98.01C62.4299 98.77 62.9699 99.43 63.7099 99.58L70.9899 101.09C71.6799 101.23 72.1899 101.8 72.2599 102.5C73.1999 111.19 75.4699 119.48 78.8499 127.17C79.1299 127.81 78.9799 128.56 78.4499 129.03L72.9099 133.96C72.3399 134.47 72.2099 135.3 72.5899 135.96L77.2599 144.05C77.6399 144.71 78.4299 145.01 79.1599 144.77L86.2199 142.44C86.8799 142.22 87.6099 142.46 88.0199 143.02C93.0899 149.92 99.1799 156.01 106.08 161.08C106.64 161.49 106.88 162.22 106.66 162.88L104.33 169.94C104.09 170.66 104.39 171.46 105.05 171.84L113.14 176.51C113.8 176.89 114.64 176.76 115.14 176.19L120.07 170.65C120.54 170.13 121.29 169.97 121.93 170.25C129.62 173.64 137.91 175.9 146.6 176.84C147.3 176.92 147.87 177.43 148.01 178.11L149.52 185.39C149.67 186.14 150.33 186.67 151.09 186.67H160.43C161.19 186.67 161.85 186.13 162 185.39L163.51 178.11C163.65 177.42 164.22 176.91 164.92 176.84C173.61 175.9 181.9 173.63 189.59 170.25C190.23 169.97 190.98 170.12 191.45 170.65L196.38 176.19C196.89 176.76 197.72 176.89 198.38 176.51L206.47 171.84C207.13 171.46 207.43 170.67 207.19 169.94L204.86 162.88C204.64 162.22 204.88 161.49 205.44 161.08C212.34 156.01 218.43 149.92 223.5 143.02C223.91 142.46 224.64 142.22 225.3 142.44L232.36 144.77C233.08 145.01 233.88 144.71 234.26 144.05L238.93 135.96C239.31 135.3 239.18 134.46 238.61 133.96L233.07 129.03C232.55 128.56 232.39 127.81 232.67 127.17C236.06 119.48 238.32 111.19 239.26 102.5C239.34 101.8 239.85 101.23 240.53 101.09L247.81 99.58C248.56 99.43 249.09 98.77 249.09 98.01V88.67C249.09 87.91 248.55 87.25 247.81 87.1ZM155.75 105.89C148.82 105.89 143.21 100.27 143.21 93.35C143.21 86.43 148.83 80.81 155.75 80.81C162.67 80.81 168.29 86.43 168.29 93.35C168.29 100.27 162.67 105.89 155.75 105.89Z" fill="#D1F1FF"/>
<path d="M114.46 47.96C114.46 44.2 117.06 41.04 120.56 40.19C120.42 39.83 120.34 39.43 120.34 39.02C120.34 37.22 121.8 35.77 123.59 35.77C124.22 35.77 124.81 35.95 125.3 36.26C127.45 33.89 130.56 32.4 134.01 32.4C140.37 32.4 145.55 37.45 145.77 43.75C146.19 43.66 146.63 43.61 147.09 43.61C150.5 43.61 153.26 46.37 153.26 49.78C153.26 53.17 150.52 55.92 147.14 55.95H122.41C118.01 55.93 114.45 52.36 114.45 47.96H114.46Z" stroke="#004A70" stroke-width="2" stroke-miterlimit="10" stroke-linecap="round"/>
<path d="M655.96 184.95C661.886 184.95 666.69 180.146 666.69 174.22C666.69 168.294 661.886 163.49 655.96 163.49C650.034 163.49 645.23 168.294 645.23 174.22C645.23 180.146 650.034 184.95 655.96 184.95Z" stroke="#004A70" stroke-width="2" stroke-miterlimit="10" stroke-linecap="round"/>
<path d="M666.58 175.63C670.69 177.49 673.2 179.22 672.9 180.2C672.4 181.83 664.31 180.79 654.83 177.87C645.35 174.95 638.08 171.26 638.59 169.62C638.89 168.64 641.94 168.62 646.39 169.4" stroke="#004A70" stroke-width="2" stroke-miterlimit="10" stroke-linecap="round"/>
<path d="M599.32 444.24H607" stroke="#004A70" stroke-width="2" stroke-miterlimit="10" stroke-linecap="round"/>
<path d="M599.32 444.24H607" stroke="#004A70" stroke-width="2" stroke-miterlimit="10" stroke-linecap="round"/>
<path d="M603.16 448.03V440.46" stroke="#004A70" stroke-width="2" stroke-miterlimit="10" stroke-linecap="round"/>
<path d="M365.53 50.36H373.22" stroke="#004A70" stroke-width="2" stroke-miterlimit="10" stroke-linecap="round"/>
<path d="M365.53 50.36H373.22" stroke="#004A70" stroke-width="2" stroke-miterlimit="10" stroke-linecap="round"/>
<path d="M369.38 54.15V46.58" stroke="#004A70" stroke-width="2" stroke-miterlimit="10" stroke-linecap="round"/>
<path d="M637.39 407.01H650.26" stroke="#004A70" stroke-width="2" stroke-miterlimit="10" stroke-linecap="round"/>
<path d="M637.39 407.01H650.26" stroke="#004A70" stroke-width="2" stroke-miterlimit="10" stroke-linecap="round"/>
<path d="M643.82 413.35V400.67" stroke="#004A70" stroke-width="2" stroke-miterlimit="10" stroke-linecap="round"/>
<path d="M618.47 222.07C620.486 222.07 622.12 220.458 622.12 218.47C622.12 216.482 620.486 214.87 618.47 214.87C616.454 214.87 614.82 216.482 614.82 218.47C614.82 220.458 616.454 222.07 618.47 222.07Z" stroke="#004A70" stroke-width="2" stroke-miterlimit="10" stroke-linecap="round"/>
<path d="M410.03 20.47C412.013 20.47 413.62 18.8851 413.62 16.93C413.62 14.9749 412.013 13.39 410.03 13.39C408.047 13.39 406.44 14.9749 406.44 16.93C406.44 18.8851 408.047 20.47 410.03 20.47Z" stroke="#004A70" stroke-width="2" stroke-miterlimit="10" stroke-linecap="round"/>
<path d="M608.77 11.2H624.66" stroke="#004A70" stroke-width="2" stroke-miterlimit="10" stroke-linecap="round"/>
<path d="M608.77 11.2H624.66" stroke="#004A70" stroke-width="2" stroke-miterlimit="10" stroke-linecap="round"/>
<path d="M616.72 19.03V3.38" stroke="#004A70" stroke-width="2" stroke-miterlimit="10" stroke-linecap="round"/>
<path d="M61.3001 264.97C64.4536 264.97 67.0101 262.449 67.0101 259.34C67.0101 256.231 64.4536 253.71 61.3001 253.71C58.1465 253.71 55.5901 256.231 55.5901 259.34C55.5901 262.449 58.1465 264.97 61.3001 264.97Z" stroke="#004A70" stroke-width="2" stroke-miterlimit="10" stroke-linecap="round"/>
<path d="M32.59 298.7C34.9979 298.7 36.95 296.775 36.95 294.4C36.95 292.025 34.9979 290.1 32.59 290.1C30.182 290.1 28.23 292.025 28.23 294.4C28.23 296.775 30.182 298.7 32.59 298.7Z" stroke="#004A70" stroke-width="2" stroke-miterlimit="10" stroke-linecap="round"/>
<path d="M582.35 168.14C584.493 168.14 586.23 166.43 586.23 164.32C586.23 162.21 584.493 160.5 582.35 160.5C580.207 160.5 578.47 162.21 578.47 164.32C578.47 166.43 580.207 168.14 582.35 168.14Z" stroke="#004A70" stroke-width="2" stroke-miterlimit="10" stroke-linecap="round"/>
<path d="M321.11 326.2L250.12 284.4L320.97 242.61L391.96 284.37L321.11 326.2Z" fill="#004A70"/>
<path d="M320.84 122.66L250.09 164.55L320.94 206.35L391.8 164.55L320.84 122.66Z" fill="#AD4800"/>
<path d="M392.29 80.66L320.84 122.66L439.86 192.92V256.01L321.11 326.2L392.49 368.46L512.91 297.21L513.1 152.11L392.29 80.66Z" fill="#009ADB"/>
<path d="M201.82 256.01V192.92L320.84 122.66L249.39 80.66L128.58 152.11L128.78 297.21L249.19 368.46L321.11 326.2L201.82 256.01Z" fill="#FF8F3D"/>
<path d="M382.45 343.48L504.01 270.73V178.91C504.01 178.91 449.28 142.89 433.37 133.48" stroke="#25333D" stroke-width="2" stroke-linecap="round" stroke-linejoin="round"/>
<path d="M460.2 91.76C483.7 105.67 553.84 150.82 553.84 150.82L553.98 298.58L471.56 347.32" stroke="#25333D" stroke-width="2" stroke-linecap="round" stroke-linejoin="round"/>
<path d="M392.53 395.05L343.18 395.65L352.79 378.52L367.33 352.61" stroke="#25333D" stroke-width="2" stroke-linecap="round" stroke-linejoin="round"/>
<path d="M375.72 366.76C379.6 364.45 380.88 359.43 378.57 355.54C376.26 351.65 371.24 350.37 367.35 352.67L367.32 352.62C367.32 352.62 473.51 288.72 503.83 270.72" stroke="#25333D" stroke-width="2" stroke-linecap="round" stroke-linejoin="round"/>
<path d="M451.29 125.63C460.88 131.31 520.62 170.46 520.62 170.46C520.62 170.46 520.62 243.01 520.62 279.92L375.71 366.77L375.73 366.8C379.62 364.5 384.64 365.78 386.94 369.66C389.25 373.55 387.97 378.56 384.09 380.87L384.11 380.91" stroke="#25333D" stroke-width="2" stroke-linecap="round" stroke-linejoin="round"/>
<path d="M549.1 301.38C544.12 304.33 392.52 395.05 392.52 395.05V395.03C392.52 395.03 392.62 394.98 392.67 394.95C396.57 392.63 397.86 387.59 395.54 383.69C393.22 379.79 388.18 378.5 384.28 380.82C384.23 380.85 384.18 380.89 384.13 380.92V380.9L537.13 289.19C537.13 289.19 537.1 160.93 537.09 160.93L460.08 111.66" stroke="#25333D" stroke-width="2" stroke-linecap="round" stroke-linejoin="round"/>
<path d="M361.55 395.31L352.26 379.67" stroke="#25333D" stroke-width="2" stroke-linecap="round" stroke-linejoin="round"/>
<path d="M448.871 85.053L423.468 127.735L443.095 139.417L468.498 96.7344L448.871 85.053Z" stroke="#25333D" stroke-width="2" stroke-linecap="round" stroke-linejoin="round"/>
<path d="M448 85.77L448.65 86.15C440.46 81.27 429.89 83.91 425.05 92.05L418.26 103.46C413.42 111.59 416.13 122.14 424.33 127.02L423.68 126.64" stroke="#25333D" stroke-width="2" stroke-linecap="round" stroke-linejoin="round"/>
<path d="M430.67 127.05L434.7 120.28" stroke="#25333D" stroke-width="2" stroke-linecap="round" stroke-linejoin="round"/>
<path d="M439.17 112.77L443.2 106.01" stroke="#25333D" stroke-width="2" stroke-linecap="round" stroke-linejoin="round"/>
<path d="M447.67 98.49L451.7 91.73" stroke="#25333D" stroke-width="2" stroke-linecap="round" stroke-linejoin="round"/>
<path d="M215.05 330.14L227.07 337.12L227.04 351.02L214.99 357.94L202.97 350.96L203 337.06L215.05 330.14Z" stroke="#25333D" stroke-width="2" stroke-miterlimit="10" stroke-linecap="round"/>
<path d="M109.31 140.08C109.13 174.41 108.72 286.85 108.61 307.15L181.89 350.9C183.75 360.12 189.39 368.54 198.17 373.63C214.43 383.07 235.27 377.54 244.71 361.27C254.15 345.01 248.62 324.17 232.35 314.73C223.57 309.64 213.47 308.91 204.54 311.87C204.54 311.87 178.29 295.68 153.96 281.55C153.96 281.55 154.16 191.46 154.3 166.28L261.81 103.29C276.12 111.99 294.6 112.81 310.1 103.81C331.46 91.41 339.47 64.85 329.16 42.9L311.62 73.45L281.25 73.52L266.01 47.26L285.14 16.31C277.82 16.66 269.44 18.15 262.67 22.08C247.17 31.08 238.71 47.53 239.17 64.27L109.31 140.08Z" stroke="#25333D" stroke-width="2" stroke-miterlimit="10" stroke-linecap="round"/>
<path d="M225.96 80.11L218.36 84.57" stroke="#25333D" stroke-width="2" stroke-miterlimit="10" stroke-linecap="round"/>
<path d="M208.98 90.08L203.98 93.02" stroke="#25333D" stroke-width="2" stroke-miterlimit="10" stroke-linecap="round"/>
<path d="M197.94 96.57L116.1 144.62V252.38" stroke="#25333D" stroke-width="2" stroke-miterlimit="10" stroke-linecap="round"/>
<path d="M116.1 262.29V268" stroke="#25333D" stroke-width="2" stroke-miterlimit="10" stroke-linecap="round"/>
<path d="M191.83 136.64L147.34 162.76V230.21" stroke="#25333D" stroke-width="2" stroke-miterlimit="10" stroke-linecap="round"/>
<path d="M147.34 239.95V248.52" stroke="#25333D" stroke-width="2" stroke-miterlimit="10" stroke-linecap="round"/>
<path d="M147.34 255.91V259.77" stroke="#25333D" stroke-width="2" stroke-miterlimit="10" stroke-linecap="round"/>
<path d="M116.1 285.14V302.78L138.09 315.85" stroke="#25333D" stroke-width="2" stroke-miterlimit="10" stroke-linecap="round"/>
<path d="M144.16 319.45L150.87 323.44" stroke="#25333D" stroke-width="2" stroke-miterlimit="10" stroke-linecap="round"/>
<path d="M248.12 76.43C253.43 92.36 268.47 103.85 286.19 103.85C308.35 103.85 326.31 85.89 326.31 63.73C326.31 63 326.29 62.27 326.25 61.54" stroke="#25333D" stroke-width="2" stroke-miterlimit="10" stroke-linecap="round"/>
<path d="M188.52 334.48C187.41 337.52 186.8 340.81 186.8 344.24C186.8 353.84 191.56 362.32 198.84 367.47" stroke="#25333D" stroke-width="2" stroke-miterlimit="10" stroke-linecap="round"/>
<path d="M204.66 370.63C206.58 371.4 208.61 371.97 210.72 372.3" stroke="#25333D" stroke-width="2" stroke-miterlimit="10" stroke-linecap="round"/>
<path d="M220.31 372.21C222.39 371.83 224.4 371.23 226.3 370.42" stroke="#25333D" stroke-width="2" stroke-miterlimit="10" stroke-linecap="round"/>
<path d="M82.05 338.67L81.47 341.96C81.43 342.21 81.24 342.41 80.99 342.47C79.45 342.84 77.97 343.46 76.61 344.28C76.39 344.41 76.12 344.4 75.91 344.26L73.17 342.35C72.91 342.17 72.56 342.2 72.34 342.42L69.6 345.16C69.38 345.38 69.35 345.73 69.53 345.99L71.43 348.72C71.58 348.93 71.59 349.21 71.45 349.43C70.62 350.78 70.01 352.26 69.64 353.8C69.58 354.05 69.38 354.24 69.12 354.28L65.84 354.86C65.53 354.91 65.3 355.18 65.3 355.5V359.37C65.3 359.69 65.53 359.95 65.84 360.01L69.12 360.59C69.37 360.63 69.57 360.82 69.64 361.07C70.01 362.61 70.62 364.09 71.45 365.45C71.58 365.67 71.57 365.94 71.43 366.15L69.52 368.89C69.34 369.15 69.37 369.5 69.59 369.72L72.33 372.46C72.55 372.68 72.9 372.71 73.16 372.53L75.9 370.62C76.11 370.47 76.38 370.46 76.6 370.6C77.96 371.43 79.43 372.04 80.98 372.41C81.23 372.47 81.42 372.67 81.46 372.93L82.04 376.21C82.1 376.52 82.36 376.75 82.68 376.75H86.55C86.87 376.75 87.14 376.52 87.19 376.21L87.77 372.93C87.81 372.68 88 372.48 88.25 372.41C89.79 372.04 91.27 371.43 92.63 370.6C92.85 370.47 93.12 370.48 93.33 370.62L96.07 372.53C96.33 372.71 96.68 372.68 96.9 372.46L99.64 369.72C99.86 369.5 99.89 369.15 99.71 368.89L97.8 366.15C97.65 365.94 97.64 365.67 97.77 365.45C98.6 364.09 99.21 362.62 99.58 361.07C99.64 360.82 99.85 360.64 100.1 360.59L103.38 360.01C103.69 359.95 103.92 359.68 103.92 359.37V355.5C103.92 355.19 103.69 354.92 103.38 354.86L100.1 354.28C99.85 354.24 99.64 354.05 99.58 353.8C99.21 352.26 98.59 350.78 97.77 349.43C97.64 349.21 97.65 348.93 97.8 348.72L99.71 345.98C99.89 345.72 99.86 345.37 99.64 345.15L96.9 342.41C96.68 342.19 96.33 342.16 96.07 342.34L93.35 344.26C93.14 344.41 92.86 344.42 92.65 344.28C91.29 343.45 89.82 342.84 88.27 342.47C88.02 342.41 87.84 342.21 87.79 341.96L87.21 338.67C87.15 338.36 86.88 338.13 86.57 338.13H82.7C82.38 338.13 82.12 338.36 82.06 338.67H82.05ZM88.99 357.45C88.99 359.86 87.03 361.82 84.62 361.82C82.21 361.82 80.25 359.86 80.25 357.45C80.25 355.04 82.21 353.08 84.62 353.08C87.03 353.08 88.99 355.04 88.99 357.45Z" stroke="#004A70" stroke-width="2" stroke-miterlimit="10" stroke-linecap="round"/>
<path d="M7.61 143.41C11.2606 143.41 14.22 140.451 14.22 136.8C14.22 133.149 11.2606 130.19 7.61 130.19C3.9594 130.19 1 133.149 1 136.8C1 140.451 3.9594 143.41 7.61 143.41Z" stroke="#004A70" stroke-width="2" stroke-miterlimit="10" stroke-linecap="round"/>
<path d="M61.33 133.5H24.76C22.943 133.5 21.47 134.973 21.47 136.79V136.8C21.47 138.617 22.943 140.09 24.76 140.09H61.33C63.147 140.09 64.62 138.617 64.62 136.8V136.79C64.62 134.973 63.147 133.5 61.33 133.5Z" stroke="#004A70" stroke-width="2" stroke-miterlimit="10" stroke-linecap="round"/>
<path d="M7.61 164.12C11.2606 164.12 14.22 161.161 14.22 157.51C14.22 153.859 11.2606 150.9 7.61 150.9C3.9594 150.9 1 153.859 1 157.51C1 161.161 3.9594 164.12 7.61 164.12Z" stroke="#004A70" stroke-width="2" stroke-miterlimit="10" stroke-linecap="round"/>
<path d="M61.33 154.22H24.76C22.943 154.22 21.47 155.693 21.47 157.51V157.52C21.47 159.337 22.943 160.81 24.76 160.81H61.33C63.147 160.81 64.62 159.337 64.62 157.52V157.51C64.62 155.693 63.147 154.22 61.33 154.22Z" stroke="#004A70" stroke-width="2" stroke-miterlimit="10" stroke-linecap="round"/>
<path d="M7.61 184.84C11.2606 184.84 14.22 181.881 14.22 178.23C14.22 174.579 11.2606 171.62 7.61 171.62C3.9594 171.62 1 174.579 1 178.23C1 181.881 3.9594 184.84 7.61 184.84Z" stroke="#004A70" stroke-width="2" stroke-miterlimit="10" stroke-linecap="round"/>
<path d="M61.33 174.94H24.76C22.943 174.94 21.47 176.413 21.47 178.23V178.24C21.47 180.057 22.943 181.53 24.76 181.53H61.33C63.147 181.53 64.62 180.057 64.62 178.24V178.23C64.62 176.413 63.147 174.94 61.33 174.94Z" stroke="#004A70" stroke-width="2" stroke-miterlimit="10" stroke-linecap="round"/>
<path d="M7.75007 140.26C9.6444 140.26 11.1801 138.724 11.1801 136.83C11.1801 134.936 9.6444 133.4 7.75007 133.4C5.85573 133.4 4.32007 134.936 4.32007 136.83C4.32007 138.724 5.85573 140.26 7.75007 140.26Z" fill="#009ADB"/>
<path d="M554.29 20.6H482.83C479.737 20.6 477.23 23.1072 477.23 26.2V75.76C477.23 78.8528 479.737 81.36 482.83 81.36H554.29C557.383 81.36 559.89 78.8528 559.89 75.76V26.2C559.89 23.1072 557.383 20.6 554.29 20.6Z" fill="#D1F1FF"/>
<path d="M563.65 84.62C562.66 86.22 560.89 87.29 558.88 87.29H487.42C484.33 87.29 481.82 84.78 481.82 81.69V32.14C481.82 29.05 484.33 26.54 487.42 26.54H558.88C561.97 26.54 564.48 29.05 564.48 32.14V54.76" stroke="#004A70" stroke-width="2" stroke-miterlimit="10" stroke-linecap="round"/>
<path d="M615.93 60.04H554.06C552.42 60.04 551.09 61.3697 551.09 63.01V77.89C551.09 79.5303 552.42 80.86 554.06 80.86H615.93C617.57 80.86 618.9 79.5303 618.9 77.89V63.01C618.9 61.3697 617.57 60.04 615.93 60.04Z" stroke="#004A70" stroke-width="2" stroke-miterlimit="10" stroke-linecap="round"/>
<path d="M615.93 93.27H554.06C552.42 93.27 551.09 94.5997 551.09 96.24V111.12C551.09 112.76 552.42 114.09 554.06 114.09H615.93C617.57 114.09 618.9 112.76 618.9 111.12V96.24C618.9 94.5997 617.57 93.27 615.93 93.27Z" stroke="#004A70" stroke-width="2" stroke-miterlimit="10" stroke-linecap="round"/>
<path d="M494.24 41.12H550.66" stroke="#004A70" stroke-width="2" stroke-miterlimit="10" stroke-linecap="round"/>
<path d="M494.24 48.67H550.66" stroke="#004A70" stroke-width="2" stroke-miterlimit="10" stroke-linecap="round"/>
<path d="M494.24 56.23H529.87" stroke="#004A70" stroke-width="2" stroke-miterlimit="10" stroke-linecap="round"/>
</g>
<defs>
<clipPath id="clip0_466_1157">
<rect width="673.93" height="449.03" fill="white"/>
</clipPath>
</defs>
</svg>
