<?xml version="1.0" encoding="UTF-8"?><svg id="illustrations" xmlns="http://www.w3.org/2000/svg" width="928" height="336" viewBox="0 0 928 336"><defs><style>.cls-1{fill:#314351;}.cls-1,.cls-2,.cls-3,.cls-4,.cls-5,.cls-6,.cls-7,.cls-8,.cls-9,.cls-10{stroke-width:0px;}.cls-2{fill:#195f88;}.cls-3{fill:#25333d;}.cls-4{fill:#b2e0f4;}.cls-5{fill:#009adb;}.cls-6{fill:#ff8f3d;}.cls-7{fill:#66c2e9;}.cls-8{fill:#fff;}.cls-9{fill:#ffbc8b;}.cls-10{fill:#ffddc4;}</style></defs><polygon class="cls-4" points="597.09 157.47 597.09 88.99 537.78 54.75 478.47 88.99 478.47 157.47 537.78 191.71 597.09 157.47"/><polygon class="cls-9" points="923.75 58.54 923.75 41.86 909.3 33.51 894.85 41.86 894.85 58.54 909.3 66.88 923.75 58.54"/><polygon class="cls-10" points="35.71 98.11 35.71 77.49 17.86 67.18 0 77.49 0 98.11 17.86 108.42 35.71 98.11"/><polygon class="cls-7" points="858.71 142.33 822.31 121.32 822.31 163.31 858.71 184.33 895.1 163.31 895.1 121.32 858.71 142.33"/><polygon class="cls-4" points="822.31 121.39 822.31 121.42 858.71 142.43 895.1 121.42 895.1 121.39 858.71 100.38 822.31 121.39"/><path class="cls-3" d="m564.16,293.53c-.17,0-.35-.04-.5-.13l-23.81-13.75c-.31-.18-.5-.51-.5-.87v-27.49c0-.36.19-.69.5-.87l23.81-13.75c.31-.18.69-.18,1,0l23.81,13.75c.31.18.5.51.5.87v27.49c0,.36-.19.69-.5.87l-23.81,13.75c-.15.09-.33.13-.5.13Zm-22.81-15.32l22.81,13.17,22.81-13.17v-26.34l-22.81-13.17-22.81,13.17v26.34Zm46.62.58h0,0Z"/><path class="cls-3" d="m205.29,280.31c-.17,0-.35-.04-.5-.13l-27.88-16.1c-.31-.18-.5-.51-.5-.87v-32.2c0-.36.19-.69.5-.87l27.88-16.1c.31-.18.69-.18,1,0l27.88,16.1c.31.18.5.51.5.87v32.2c0,.36-.19.69-.5.87l-27.88,16.1c-.15.09-.33.13-.5.13Zm-26.88-17.68l26.88,15.52,26.88-15.52v-31.04l-26.88-15.52-26.88,15.52v31.04Zm54.77.58h0,0Z"/><polygon class="cls-9" points="478.67 247.2 478.67 88.8 341.5 9.61 204.33 88.8 204.33 247.2 341.5 326.39 478.67 247.2"/><path class="cls-6" d="m434.85,160.29l-16.18-5.35c-1.89-12.69-6.89-24.36-14.18-34.22l7.66-15.23c-2.68-3.06-5.56-5.94-8.62-8.62l-15.23,7.66c-9.87-7.3-21.54-12.29-34.22-14.18l-5.35-16.18c-2.02-.13-4.05-.21-6.1-.21s-4.08.07-6.1.21l-5.35,16.18c-12.69,1.89-24.36,6.89-34.22,14.18l-15.23-7.66c-3.06,2.68-5.94,5.56-8.62,8.62l7.66,15.23c-7.3,9.87-12.29,21.54-14.18,34.22l-16.18,5.35c-.13,2.02-.21,4.05-.21,6.1s.07,4.08.21,6.1l16.18,5.35c1.89,12.69,6.89,24.36,14.18,34.22l-7.66,15.23c2.68,3.06,5.56,5.94,8.62,8.62l15.23-7.66c9.87,7.3,21.54,12.29,34.22,14.18l5.35,16.18c2.02.13,4.05.21,6.1.21s4.08-.07,6.1-.21l5.35-16.18c12.69-1.89,24.36-6.89,34.22-14.18l15.23,7.66c3.06-2.68,5.94-5.56,8.62-8.62l-7.66-15.23c7.3-9.87,12.29-21.54,14.18-34.22l16.18-5.35c.13-2.02.21-4.05.21-6.1s-.07-4.08-.21-6.1Z"/><polygon class="cls-5" points="204.66 172.88 204.66 89.8 132.72 48.26 60.77 89.8 60.77 172.88 132.72 214.41 204.66 172.88"/><path class="cls-1" d="m297.32,170v-3.31l27.92-13.75v3.81l-23.93,11.6,23.93,11.6v3.81l-27.92-13.75Z"/><path class="cls-1" d="m351.39,143.86h4.23l-21.54,50.14h-4.23l21.54-50.14Z"/><path class="cls-1" d="m360.23,179.95l23.94-11.6-23.94-11.6v-3.81l27.92,13.75v3.31l-27.92,13.75v-3.81Z"/><path class="cls-4" d="m195,135.75v-8.21l-6.96-1.83c-.62-5.78-2.13-11.29-4.38-16.39l5.11-5.05-4.1-7.11-6.94,1.9c-3.36-4.59-7.41-8.64-11.99-11.99l1.9-6.94-7.11-4.1-5.05,5.11c-5.1-2.26-10.62-3.77-16.39-4.38l-1.83-6.96h-8.21l-1.83,6.96c-5.78.62-11.29,2.13-16.39,4.38l-5.05-5.11-7.11,4.1,1.9,6.94c-4.59,3.36-8.64,7.41-11.99,11.99l-6.94-1.9-4.1,7.11,5.11,5.05c-2.26,5.11-3.77,10.62-4.38,16.39l-6.96,1.83v8.21l6.96,1.83c.62,5.78,2.13,11.29,4.38,16.39l-5.11,5.05,4.1,7.11,6.94-1.9c3.36,4.59,7.41,8.64,11.99,11.99l-1.9,6.94,7.11,4.1,5.05-5.11c5.1,2.26,10.62,3.77,16.39,4.38l1.83,6.96h8.21l1.83-6.96c5.78-.62,11.29-2.13,16.39-4.38l5.05,5.11,7.11-4.1-1.9-6.94c4.59-3.36,8.64-7.41,11.99-11.99l6.94,1.9,4.1-7.11-5.11-5.05c2.26-5.11,3.77-10.62,4.38-16.39l6.96-1.83Zm-61.86,43.06c-26.05,0-47.16-21.12-47.16-47.16s21.12-47.16,47.16-47.16,47.16,21.12,47.16,47.16-21.12,47.16-47.16,47.16Z"/><polygon class="cls-5" points="725.63 230.73 725.63 122.78 632.14 68.81 538.65 122.78 538.65 230.73 632.14 284.71 725.63 230.73"/><path class="cls-4" d="m584.24,144.09h95.95v43.44c0,20.66-16.77,37.44-37.44,37.44h-21.08c-20.66,0-37.44-16.77-37.44-37.44v-43.44h0Z"/><path class="cls-4" d="m686.28,151.1c6.34,0,11.5,5.16,11.5,11.5s-5.16,11.5-11.5,11.5h-9.11v-23h9.11m0-7h-16.11v37h16.11c10.22,0,18.5-8.28,18.5-18.5s-8.28-18.5-18.5-18.5h0Z"/><path class="cls-3" d="m485.58,219.84c-.17,0-.35-.04-.5-.13l-18.22-10.52c-.31-.18-.5-.51-.5-.87v-21.04c0-.36.19-.69.5-.87l18.22-10.52c.31-.18.69-.18,1,0l18.22,10.52c.31.18.5.51.5.87v21.04c0,.36-.19.69-.5.87l-18.22,10.52c-.15.09-.33.13-.5.13Zm-17.22-12.1l17.22,9.94,17.22-9.94v-19.88l-17.22-9.94-17.22,9.94v19.88Zm35.44.58h0,0Z"/><path class="cls-4" d="m725.8,280.88c0-4.25,3.44-7.69,7.69-7.69.59,0,1.16.07,1.71.19-.11-.78-.16-1.58-.16-2.39,0-9.71,7.87-17.58,17.58-17.58,1.1,0,2.17.1,3.22.29,3.66-9.83,13.12-16.83,24.22-16.83,13.51,0,24.6,10.37,25.74,23.59,1.8-.79,3.78-1.23,5.87-1.23,8.1,0,14.66,6.56,14.66,14.66s-6.56,14.66-14.66,14.66c-.07,0-.15,0-.22,0h0s-78.03,0-78.03,0h0c-4.21-.04-7.61-3.47-7.61-7.69Z"/><path class="cls-2" d="m524.9,101.18c-.71-4.03-2.29-7.76-4.55-10.98l1.59-4.44-3.92-3.92-4.44,1.59c-3.22-2.26-6.95-3.84-10.98-4.55l-2.01-4.26h-5.54l-2.01,4.26c-4.03.71-7.76,2.29-10.98,4.55l-4.44-1.59-3.92,3.92,1.59,4.44c-2.26,3.22-3.84,6.95-4.55,10.98l-4.26,2.01v5.54l4.26,2.01c.71,4.03,2.29,7.76,4.55,10.98l-1.59,4.44,3.92,3.92,4.44-1.59c3.22,2.26,6.95,3.84,10.98,4.55l2.01,4.26h5.54l2.01-4.26c4.03-.71,7.76-2.29,10.98-4.55l4.44,1.59,3.92-3.92-1.59-4.44c2.26-3.22,3.84-6.95,4.55-10.98l4.26-2.01v-5.54l-4.26-2.01Zm-27.08,18.75c-7.71,0-13.97-6.25-13.97-13.97s6.25-13.97,13.97-13.97,13.97,6.25,13.97,13.97-6.25,13.97-13.97,13.97Z"/><polygon class="cls-8" points="631.66 155.97 638.47 169.77 653.7 171.98 642.68 182.72 645.28 197.88 631.66 190.72 618.04 197.88 620.64 182.72 609.63 171.98 624.85 169.77 631.66 155.97"/><path class="cls-2" d="m634.32,133.35l6.86-17.14c1.99-4.97,1.28-10.62-1.87-14.95l-2.53-3.47c-1.61-2.22-2.61-4.83-2.9-7.56l-3.34-32.27-6.03,32.13c-.95,5.05.66,10.25,4.3,13.88h0c2.73,2.73,4.35,6.38,4.54,10.24l.96,19.14Z"/></svg>