<?xml version="1.0" encoding="UTF-8"?><svg id="illustrations" xmlns="http://www.w3.org/2000/svg" width="120" height="72" viewBox="0 0 120 72"><defs><style>.cls-1{fill:#fff;fill-rule:evenodd;}.cls-1,.cls-2,.cls-3,.cls-4,.cls-5{stroke-width:0px;}.cls-2{fill:#195f88;}.cls-3{fill:#1983b8;}.cls-4{fill:#e25f1e;}.cls-5{fill:#ad4800;}</style></defs><polygon class="cls-4" points="119.67 53.86 119.67 18.14 88.74 .28 57.81 18.14 57.81 53.86 88.74 71.72 119.67 53.86"/><polygon class="cls-3" points="39.17 21.33 26.8 14.19 26.8 28.46 39.17 35.6 51.53 28.46 51.53 14.19 39.17 21.33"/><polygon class="cls-2" points="26.8 14.22 26.8 14.23 39.17 21.37 51.53 14.23 51.53 14.22 39.17 7.08 26.8 14.22"/><polygon class="cls-4" points="9.05 42.53 -.05 37.28 -.05 47.77 9.05 53.02 18.14 47.77 18.14 37.28 9.05 42.53"/><polygon class="cls-5" points="-.05 37.3 -.05 37.3 9.05 42.55 18.14 37.3 18.14 37.3 9.05 32.04 -.05 37.3"/><path class="cls-1" d="m88.04,20.26h-4.5c-2.49,0-4.5,2.01-4.5,4.5s2.01,4.5,4.5,4.5h4.5v-9Zm0-3.05h7.55c4.17,0,7.55,3.38,7.55,7.55,0,2.46-1.18,4.65-3,6.03,1.82,1.38,3,3.56,3,6.03,0,4.17-3.38,7.55-7.55,7.55-1.69,0-3.24-.55-4.5-1.49v5.99c0,4.17-3.38,7.55-7.55,7.55s-7.55-3.38-7.55-7.55c0-2.46,1.18-4.65,3-6.03-1.82-1.38-3-3.56-3-6.03s1.18-4.65,3-6.03c-1.82-1.38-3-3.56-3-6.03,0-4.17,3.38-7.55,7.55-7.55h4.5Zm3.05,3.05v9h4.5c2.49,0,4.5-2.01,4.5-4.5s-2.01-4.5-4.5-4.5h-4.5Zm-7.55,21.05h4.5v-4.49h0v-4.51h-4.5c-2.49,0-4.5,2.01-4.5,4.5s2.01,4.49,4.48,4.5h.02Zm-4.5,7.55c0-2.48,2.01-4.49,4.48-4.5h.02s4.5,0,4.5,0v4.5c0,2.49-2.01,4.5-4.5,4.5s-4.5-2.01-4.5-4.5Zm12.05-12.06c0-2.48,2.02-4.49,4.5-4.49s4.5,2.01,4.5,4.5-2.01,4.5-4.5,4.5-4.5-2.01-4.5-4.49v-.02Z"/></svg>