<?xml version="1.0" encoding="UTF-8"?><svg id="illustrations" xmlns="http://www.w3.org/2000/svg" width="120" height="72" viewBox="0 0 120 72"><defs><style>.cls-1,.cls-2,.cls-3,.cls-4,.cls-5,.cls-6,.cls-7{stroke-width:0px;}.cls-2{fill:#195f88;}.cls-3{fill:#1983b8;}.cls-4{fill:#e25f1e;}.cls-5{fill:#ad4800;}.cls-6{fill:#009adb;}.cls-7{fill:#fff;}</style></defs><polygon class="cls-3" points="84.12 61.52 84.12 41.11 66.44 30.9 48.77 41.11 48.77 61.52 66.44 71.73 84.12 61.52"/><polygon class="cls-6" points="119.51 61.52 119.51 41.11 101.83 30.9 84.15 41.11 84.15 61.52 101.83 71.73 119.51 61.52"/><polygon class="cls-5" points="101.85 30.89 101.85 10.48 84.17 .27 66.49 10.48 66.49 30.89 84.17 41.1 101.85 30.89"/><path class="cls-7" d="m94.06,25.41c-.67-.6-1.25-1.28-1.74-2.03-.53-1.04-.85-2.17-.94-3.33v-3.42c0-3.78-2.8-6.97-6.54-7.45v-.89c0-.51-.41-.93-.93-.93s-.93.41-.93.93v.91c-3.71.51-6.48,3.69-6.47,7.44v3.42c-.09,1.16-.41,2.3-.94,3.33-.48.75-1.05,1.43-1.71,2.03-.15.13-.24.32-.24.52v.94c0,.38.31.69.69.69h19.27c.38,0,.69-.31.69-.69v-.94c0-.2-.09-.39-.24-.52Zm-18.98.77c.65-.62,1.21-1.32,1.69-2.08.67-1.25,1.06-2.64,1.14-4.06v-3.42c-.11-3.34,2.51-6.15,5.85-6.26,3.34-.11,6.15,2.51,6.26,5.85,0,.14,0,.27,0,.41v3.42c.08,1.42.48,2.8,1.14,4.06.48.76,1.05,1.46,1.69,2.08h-17.78Z"/><path class="cls-7" d="m84,29.88c.9-.02,1.66-.69,1.79-1.58h-3.65c.14.92.93,1.59,1.86,1.58Z"/><polygon class="cls-4" points="48.74 61.52 48.74 41.11 31.06 30.9 13.38 41.11 13.38 61.52 31.06 71.73 48.74 61.52"/><polygon class="cls-2" points="66.46 30.89 66.46 10.48 48.79 .27 31.11 10.48 31.11 30.89 48.79 41.1 66.46 30.89"/><path class="cls-7" d="m101.71,40.87c-6.11,0-11.09,4.35-11.09,9.71s4.98,9.71,11.09,9.71c1.14,0,2.28-.16,3.38-.47l3.83,2.44c.32.21.75.11.96-.21.07-.11.11-.24.11-.37v-4.67c1.75-1.68,2.75-4,2.77-6.43.03-5.35-4.94-9.71-11.06-9.71Zm7.13,15.33c-.14.13-.22.31-.22.51v3.7l-3.04-1.93c-.17-.11-.38-.14-.58-.08-1.07.33-2.18.5-3.3.5-5.35,0-9.71-3.73-9.71-8.32s4.35-8.32,9.71-8.32,9.71,3.73,9.71,8.32c-.03,2.15-.97,4.19-2.57,5.62Z"/><path class="cls-7" d="m106.57,49.88h-9.71c-.38,0-.69.31-.69.69s.31.69.69.69h9.71c.38,0,.69-.31.69-.69s-.31-.69-.69-.69Z"/><path class="cls-7" d="m104.31,53.35h-5.2c-.38,0-.69.31-.69.69s.31.69.69.69h5.2c.38,0,.69-.31.69-.69s-.31-.69-.69-.69Z"/><path class="cls-7" d="m97.05,47.8h9.32c.38,0,.69-.31.69-.69s-.31-.69-.69-.69h-9.32c-.38,0-.69.31-.69.69s.31.69.69.69Z"/><path class="cls-7" d="m36.75,61.1h-12c-.37,0-.67.3-.67.67s.3.67.67.67h12c.37,0,.67-.3.67-.67s-.3-.67-.67-.67Z"/><path class="cls-7" d="m30.87,41.1c-5.15,0-9.33,4.18-9.33,9.33,0,.3,0,.59.05.89h0c.49,5.13,5.05,8.89,10.18,8.4,5.13-.49,8.89-5.05,8.4-10.18-.46-4.79-4.48-8.45-9.3-8.45Zm0,1.33c2.11,0,4.13.84,5.63,2.32v.67c-2.63-.91-5.5-.9-8.13.03-.21-.2-.47-.35-.76-.41h-.17c-.08-.28-.15-.56-.21-.85s-.09-.54-.13-.81c1.16-.62,2.45-.95,3.77-.95Zm-2,3.91c2.42-.81,5.05-.78,7.45.09-.32,1.69-1.03,3.29-2.07,4.67-.6-.25-1.29-.1-1.72.38-.23-.13-.47-.27-.67-.42-1.35-.9-2.47-2.09-3.29-3.49.27-.33.38-.76.31-1.18v-.05Zm-2.67-2.4c0,.14.04.29.07.43.06.29.14.58.22.87-.52.31-.81.9-.73,1.5-1.05.69-1.99,1.53-2.79,2.51.32-2.13,1.49-4.04,3.24-5.3h0Zm0,10.47c-.53.18-.92.63-1.03,1.17h-.43c-1.08-1.28-1.72-2.88-1.84-4.55l.07-.13c.83-1.29,1.93-2.4,3.21-3.26.39.41.97.57,1.52.42.89,1.51,2.11,2.79,3.57,3.77.27.18.55.35.83.51-.02.25.02.51.12.75-1.22.97-2.63,1.67-4.13,2.07-.36-.67-1.16-.99-1.88-.74h0Zm4.67,4c-1.36,0-2.69-.35-3.87-1.01l.19-.04c.54-.18.94-.63,1.05-1.19,1.7-.43,3.3-1.23,4.67-2.33.67.39,1.54.22,2-.41.94.24,1.91.37,2.88.37h.35c-1.31,2.82-4.15,4.63-7.26,4.63h0Zm4.34-5.93c0-.28-.08-.55-.22-.79,1.11-1.45,1.88-3.13,2.26-4.91.33.16.66.33.99.52.73,1.73.83,3.67.28,5.47-1.11.09-2.22,0-3.3-.26v-.02Z"/><path class="cls-7" d="m70.78,40.77h-9.33c-.74,0-1.33.6-1.33,1.33v16c0,.74.6,1.33,1.33,1.33h9.33c.74,0,1.33-.6,1.33-1.33v-16c0-.74-.6-1.33-1.33-1.33Zm-9.33,1.33h9.33v12h-9.33v-12Zm0,16v-2.67h9.33v2.67h-9.33Z"/><rect class="cls-1" x="65.44" y="56.1" width="1.33" height="1.33"/><path class="cls-7" d="m48.06,12.08c-4.59,0-8.32,3.72-8.32,8.32s3.72,8.32,8.32,8.32,8.32-3.72,8.32-8.32-3.72-8.32-8.32-8.32Zm0,15.19c-3.83,0-6.93-3.1-6.93-6.93s3.1-6.93,6.93-6.93c3.83,0,6.93,3.1,6.93,6.93,0,.02,0,.04,0,.06-.03,3.8-3.13,6.87-6.93,6.87Z"/><path class="cls-7" d="m58.95,29.89l-3.58-3.58c-.3.37-.62.71-.96,1.03l3.57,3.57c.29.25.73.22.98-.08.22-.26.22-.64,0-.9v-.03Z"/><path class="cls-7" d="m51.53,19.71h-2.77v-2.77c0-.38-.31-.69-.69-.69s-.69.31-.69.69v2.77h-2.77c-.38,0-.69.31-.69.69s.31.69.69.69h2.77v2.77c0,.38.31.69.69.69s.69-.31.69-.69v-2.77h2.77c.38,0,.69-.31.69-.69s-.31-.69-.69-.69Z"/></svg>