<?xml version="1.0" encoding="UTF-8"?><svg id="illustrations" xmlns="http://www.w3.org/2000/svg" width="928" height="288" viewBox="0 0 928 288"><defs><style>.cls-1{fill:#314351;}.cls-1,.cls-2,.cls-3,.cls-4,.cls-5,.cls-6,.cls-7,.cls-8,.cls-9,.cls-10{stroke-width:0px;}.cls-2{fill:#195f88;}.cls-3{fill:#ad4800;}.cls-4{fill:#b2e0f4;}.cls-5{fill:#009adb;}.cls-6{fill:#ff8f3d;}.cls-7{fill:#66c2e9;}.cls-8{fill:#fff;}.cls-9{fill:#ffbc8b;}.cls-10{fill:#ffddc4;}</style></defs><polygon class="cls-7" points="798.32 210.14 798.32 181.75 773.73 167.56 749.15 181.75 749.15 210.14 773.73 224.33 798.32 210.14"/><polygon class="cls-10" points="514.6 224.38 514.6 185.46 480.89 166 447.18 185.46 447.18 224.38 480.89 243.84 514.6 224.38"/><polygon class="cls-4" points="241.22 174.42 337.59 118.79 337.59 118.64 240.92 62.83 144.24 118.64 144.24 230.27 240.92 286.09 241.22 285.91 241.22 174.42"/><polygon class="cls-7" points="337.92 230 337.92 118.52 291.16 145.52 241.55 174.16 241.55 285.64 337.92 230"/><polygon class="cls-4" points="205.3 84.92 228.18 71.7 228.18 71.67 205.22 58.42 182.27 71.67 182.27 98.18 205.22 111.43 205.3 111.39 205.3 84.92"/><polygon class="cls-7" points="228.26 98.11 228.26 71.64 217.16 78.05 205.38 84.85 205.38 111.33 228.26 98.11"/><polygon class="cls-6" points="112.27 212.27 80.44 193.89 80.44 230.62 112.27 248.99 144.1 230.62 144.1 193.89 112.27 212.27"/><polygon class="cls-10" points="80.44 193.96 80.44 193.98 112.27 212.36 144.1 193.98 144.1 193.96 112.27 175.58 80.44 193.96"/><path class="cls-1" d="m198.28,246.89l14.3,8.26v16.52l-14.3,8.26-14.3-8.26v-16.52l14.3-8.26m0-2c-.35,0-.69.09-1,.27l-14.3,8.26c-.62.36-1,1.02-1,1.73v16.52c0,.71.38,1.38,1,1.73l14.3,8.26c.31.18.65.27,1,.27s.69-.09,1-.27l14.3-8.26c.62-.36,1-1.02,1-1.73v-16.52c0-.71-.38-1.38-1-1.73l-14.3-8.26c-.31-.18-.65-.27-1-.27h0Z"/><path class="cls-1" d="m798.37,201.28c-.17,0-.35-.04-.5-.13l-14.69-8.48c-.31-.18-.5-.51-.5-.87v-16.96c0-.36.19-.69.5-.87l14.69-8.48c.31-.18.69-.18,1,0l14.69,8.48c.31.18.5.51.5.87v16.96c0,.36-.19.69-.5.87l-14.69,8.48c-.15.09-.33.13-.5.13Zm-13.69-10.06l13.69,7.91,13.69-7.91v-15.81l-13.69-7.91-13.69,7.91v15.81Zm28.38.58h.01-.01Z"/><polygon class="cls-6" points="923.51 191.98 923.51 180.49 913.56 174.74 903.6 180.49 903.6 191.98 913.56 197.73 923.51 191.98"/><polygon class="cls-3" points="643.85 138.96 643.85 123.76 630.68 116.15 617.51 123.76 617.51 138.96 630.68 146.57 643.85 138.96"/><path class="cls-10" d="m282.2,40.27c0-2,1.62-3.63,3.63-3.63.28,0,.55.03.81.09-.05-.37-.08-.74-.08-1.13,0-4.58,3.71-8.29,8.29-8.29.52,0,1.03.05,1.52.14,1.73-4.64,6.19-7.94,11.43-7.94,6.38,0,11.61,4.9,12.15,11.13.85-.37,1.79-.58,2.77-.58,3.82,0,6.92,3.1,6.92,6.92s-3.1,6.92-6.92,6.92c-.04,0-.07,0-.1,0h0s-36.82,0-36.82,0h0c-1.99-.02-3.59-1.64-3.59-3.63Z"/><path class="cls-4" d="m675.42,24.64c0-2.35,1.91-4.26,4.26-4.26.32,0,.64.04.94.11-.06-.43-.09-.87-.09-1.32,0-5.37,4.35-9.73,9.73-9.73.61,0,1.2.06,1.78.16,2.02-5.44,7.26-9.31,13.41-9.31,7.48,0,13.62,5.74,14.25,13.06,1-.44,2.09-.68,3.25-.68,4.48,0,8.11,3.63,8.11,8.11s-3.63,8.11-8.11,8.11c-.04,0-.08,0-.12,0h0s-43.18,0-43.18,0h0c-2.33-.02-4.21-1.92-4.21-4.26Z"/><path class="cls-8" d="m253.94,180.77c0-2.62-2.12-4.74-4.74-4.74-.36,0-.71.04-1.05.12.07-.48.1-.97.1-1.47,0-5.98-4.85-10.82-10.82-10.82-.68,0-1.34.06-1.98.18-2.25-6.05-8.08-10.36-14.92-10.36-8.32,0-15.15,6.39-15.85,14.53-1.11-.49-2.33-.76-3.62-.76-4.99,0-9.03,4.04-9.03,9.03s4.04,9.03,9.03,9.03c.05,0,.09,0,.14,0h0s48.06,0,48.06,0h0c2.59-.03,4.69-2.14,4.69-4.74Z"/><polygon class="cls-8" points="881.61 95.12 881.61 80.13 868.62 72.63 855.64 80.13 855.64 95.12 868.62 102.62 881.61 95.12"/><path class="cls-7" d="m10.24,116.38h94.63c5.05,0,9.14,4.09,9.14,9.14v46.97s0,10.95,0,10.95v12.32s-12.32-12.32-12.32-12.32H10.24c-5.05,0-9.14-4.09-9.14-9.14v-48.78c0-5.05,4.09-9.14,9.14-9.14Z"/><rect class="cls-2" x="19.58" y="135.63" width="73.22" height="2.66" transform="translate(112.37 273.91) rotate(-180)"/><rect class="cls-2" x="19.58" y="147.2" width="73.22" height="2.66" transform="translate(112.37 297.06) rotate(-180)"/><rect class="cls-2" x="19.58" y="158.78" width="44.06" height="2.66" transform="translate(83.21 320.22) rotate(-180)"/><path class="cls-5" d="m397.89,250.75c0-4.35-3.53-7.88-7.88-7.88-.6,0-1.19.07-1.75.2.11-.8.17-1.62.17-2.45,0-9.94-8.06-18-18-18-1.13,0-2.23.1-3.29.3-3.75-10.06-13.44-17.23-24.81-17.23-13.84,0-25.2,10.62-26.36,24.16-1.84-.81-3.88-1.26-6.01-1.26-8.29,0-15.01,6.72-15.01,15.01s6.72,15.01,15.01,15.01c.08,0,.15,0,.23,0h0s79.91,0,79.91,0h0c4.31-.04,7.8-3.55,7.8-7.88Z"/><polygon class="cls-6" points="514.48 224.98 532.84 214.38 532.84 214.35 514.42 203.71 496 214.35 496 235.62 514.42 246.26 514.48 246.23 514.48 224.98"/><polygon class="cls-3" points="532.9 235.57 532.9 214.33 523.99 219.47 514.54 224.93 514.54 246.18 532.9 235.57"/><path class="cls-6" d="m107.07,80.47c0-15.08-12.4-27.27-27.57-26.91-14.15.33-25.74,11.78-26.24,25.92-.39,10.91,5.71,20.43,14.75,25,2.3,1.16,3.71,3.56,3.71,6.14v2.11h16.88v-2.11c0-2.63,1.51-5.01,3.85-6.21,8.68-4.46,14.62-13.51,14.62-23.94Z"/><rect class="cls-2" x="69.77" y="112.65" width="20.76" height="4.24" rx="2.12" ry="2.12"/><path class="cls-2" d="m71.38,116.89h17.54v3.7c0,1.09-.88,1.97-1.97,1.97h-13.61c-1.09,0-1.97-.88-1.97-1.97v-3.7h0Z"/><polygon class="cls-2" points="83.85 125.42 76.45 125.42 73.2 122.54 87.1 122.54 83.85 125.42"/><path class="cls-10" d="m100.34,82.13v-2.95l-5.1-1.62c-.41-1.94-1.19-3.75-2.25-5.35l2.48-4.79-2.08-2.09-4.83,2.5c-1.58-1.03-3.37-1.78-5.28-2.18l-1.65-5.19h-2.95l-1.65,5.19c-1.92.39-3.7,1.15-5.28,2.18l-4.83-2.5-2.09,2.09,2.48,4.79c-1.07,1.6-1.84,3.41-2.25,5.35l-5.1,1.62v2.95l5.05,1.6c.39,1.99,1.16,3.85,2.24,5.49l-2.42,4.67,2.09,2.09,4.63-2.4c1.65,1.11,3.53,1.91,5.56,2.32l1.57,4.95h2.95l1.57-4.95c2.02-.41,3.9-1.21,5.55-2.32l4.63,2.4,2.08-2.09-2.42-4.67c1.08-1.64,1.85-3.49,2.24-5.49l5.05-1.6Zm-20.05,9.38c-6.08,0-11-4.93-11-11s4.93-11,11-11,11,4.93,11,11-4.93,11-11,11Z"/><polygon class="cls-3" points="536.29 1.84 391.77 149.79 400.19 107.49 536.29 1.84"/><path class="cls-9" d="m334.05,63.5l125.58,72.51S532.51,4.7,536.29,1.84l-202.24,61.66Z"/><polygon class="cls-6" points="404.99 104.68 391.77 149.79 378.44 89.17 536.29 1.84 404.99 104.68"/><path class="cls-2" d="m360.86,233.4v-2.74l-4.74-1.5c-.38-1.8-1.1-3.48-2.09-4.97l2.31-4.45-1.94-1.94-4.48,2.32c-1.47-.96-3.13-1.66-4.91-2.02l-1.53-4.82h-2.74l-1.53,4.82c-1.78.37-3.44,1.06-4.91,2.02l-4.48-2.32-1.94,1.94,2.31,4.45c-.99,1.48-1.71,3.16-2.09,4.97l-4.74,1.5v2.74l4.69,1.49c.36,1.85,1.08,3.58,2.08,5.1l-2.25,4.34,1.94,1.94,4.3-2.23c1.53,1.03,3.28,1.78,5.16,2.15l1.46,4.6h2.74l1.46-4.6c1.88-.38,3.62-1.12,5.16-2.15l4.3,2.23,1.94-1.94-2.25-4.34c1-1.52,1.72-3.25,2.08-5.1l4.69-1.49Zm-18.63,3.34c-2.68,0-4.85-2.17-4.85-4.85s2.17-4.85,4.85-4.85,4.85,2.17,4.85,4.85-2.17,4.85-4.85,4.85Z"/><path class="cls-1" d="m317.87,114.14l-1-1.73,8.05-4.64c.48-.28,1.09-.11,1.37.37.28.48.11,1.09-.37,1.37l-8.05,4.64Z"/><path class="cls-1" d="m334.05,104.67c-.35,0-.68-.18-.87-.5-.28-.48-.11-1.09.37-1.37l14.2-8.18c.48-.28,1.09-.11,1.37.37.28.48.11,1.09-.37,1.37l-14.2,8.18c-.16.09-.33.13-.5.13Z"/><path class="cls-1" d="m358.16,90.78c-.35,0-.68-.18-.87-.5-.28-.48-.11-1.09.37-1.37l28.48-16.41,1,1.73-28.48,16.41c-.16.09-.33.13-.5.13Z"/><path class="cls-1" d="m329.31,137.59c-.35,0-.68-.18-.87-.5-.28-.48-.11-1.09.37-1.37l18.93-10.91c.48-.28,1.09-.11,1.37.37.28.48.11,1.09-.37,1.37l-18.93,10.91c-.16.09-.33.13-.5.13Z"/><path class="cls-1" d="m358.97,120.51c-.35,0-.68-.18-.87-.5-.28-.48-.11-1.09.37-1.37l8.86-5.1c.48-.28,1.09-.11,1.37.37.28.48.11,1.09-.37,1.37l-8.86,5.1c-.16.09-.33.13-.5.13Z"/><path class="cls-1" d="m288.51,176.26l-1-1.73,7.44-4.29c.48-.28,1.09-.11,1.37.37.28.48.11,1.09-.37,1.37l-7.44,4.29Z"/><path class="cls-1" d="m303.63,167.4c-.35,0-.68-.18-.87-.5-.28-.48-.11-1.09.37-1.37l23.95-13.8c.48-.28,1.09-.11,1.37.37.28.48.11,1.09-.37,1.37l-23.95,13.8c-.16.09-.33.13-.5.13Z"/><path class="cls-1" d="m339.72,146.6c-.35,0-.68-.18-.87-.5-.28-.48-.11-1.09.37-1.37,9.94-5.73,52.14-30.57,52.56-30.82.48-.28,1.09-.12,1.37.35.28.48.12,1.09-.35,1.37-.43.25-42.63,25.09-52.58,30.83-.16.09-.33.13-.5.13Z"/></svg>