<svg width="13" height="16" viewBox="0 0 13 16" fill="none" xmlns="http://www.w3.org/2000/svg">
<path fill-rule="evenodd" clip-rule="evenodd" d="M9.88894 0.888916C10.2571 0.888916 10.5556 1.18739 10.5556 1.55558V1.7778H1.66672V12.8889H1.4445C1.07631 12.8889 0.777832 12.5904 0.777832 12.2222V1.55558C0.777832 1.18739 1.07631 0.888916 1.4445 0.888916H9.88894ZM12.1112 3.11114H3.66672C3.29853 3.11114 3.00005 3.40962 3.00005 3.77781V14.4445C3.00005 14.8127 3.29853 15.1111 3.66672 15.1111H12.1112C12.4794 15.1111 12.7778 14.8127 12.7778 14.4445V3.77781C12.7778 3.40962 12.4794 3.11114 12.1112 3.11114ZM11.8889 14.2222H3.88894V4.00003H11.8889V14.2222Z" fill="#3A4D55"/>
</svg>
