<svg width="32" height="32" viewBox="0 0 32 32" fill="none" xmlns="http://www.w3.org/2000/svg">
<path fill-rule="evenodd" clip-rule="evenodd" d="M22 5.33333C22 7.29701 20.4081 8.88888 18.4445 8.88888C16.4808 8.88888 14.8889 7.29701 14.8889 5.33333C14.8889 3.36965 16.4808 1.77777 18.4445 1.77777C20.4081 1.77777 22 3.36965 22 5.33333ZM21.4036 23.1827C21.6378 23.1342 21.8816 23.1821 22.08 23.3155C22.4393 23.5809 22.5458 24.0718 22.3289 24.4622C21.1111 26.32 18.8 28.6844 16.5867 29.5733C15.7133 29.926 14.7819 30.1129 13.84 30.1244C12.8714 30.184 11.9098 29.9249 11.1022 29.3867C10.2203 28.8119 9.7993 27.7416 10.0534 26.72C10.1135 26.4099 11.1325 23.4715 12.1283 20.6C13.0453 17.9558 13.9426 15.3683 14.0534 14.9422C14.2546 14.4592 14.2766 13.9201 14.1156 13.4222C13.9628 13.1543 13.667 13.0011 13.36 13.0311C13.0667 13.0578 10.4 13.4044 10.4 13.4044C9.9091 13.4363 9.48526 13.0642 9.45335 12.5733C9.42144 12.0824 9.79355 11.6586 10.2845 11.6267C10.3337 11.6231 11.4509 11.4804 12.8254 11.3048C14.9238 11.0366 17.622 10.6919 18.0356 10.6489C20.5511 10.2489 20.7911 11.9111 20.24 13.6C19.8667 14.7555 16.4622 24.8533 16.2667 25.4222L15.7956 26.8178C15.7902 26.8406 15.784 26.8662 15.7772 26.8938C15.7051 27.1887 15.5741 27.7239 15.8667 27.8133C16.3164 27.9863 17.3637 27.1915 17.6901 26.9437C17.6992 26.9369 17.7077 26.9304 17.7156 26.9244C18.9236 25.9765 19.9763 24.8459 20.8356 23.5733C20.9647 23.372 21.1694 23.2312 21.4036 23.1827Z" fill="#4F6169"/>
</svg>
