<svg width="16" height="16" viewBox="0 0 16 16" fill="none" xmlns="http://www.w3.org/2000/svg">
<path fill-rule="evenodd" clip-rule="evenodd" d="M7.99999 1.33336C7.99999 1.0879 8.19898 0.888916 8.44444 0.888916H15.1111V7.55558C15.1111 7.80104 14.9121 8.00003 14.6667 8.00003C14.4212 8.00003 14.2222 7.80104 14.2222 7.55558V2.40447L8.06666 8.56003C7.95804 8.68686 7.7875 8.74211 7.62514 8.70305C7.46278 8.664 7.33602 8.53723 7.29697 8.37488C7.25791 8.21252 7.31316 8.04198 7.43999 7.93336L13.5955 1.7778H8.44444C8.19898 1.7778 7.99999 1.57882 7.99999 1.33336ZM2.66666 14.2222H12.4444C12.9354 14.2222 13.3333 13.8243 13.3333 13.3334V8.88892H12.4444V13.3334H2.66666V3.55558H7.1111V2.66669H2.66666C2.17574 2.66669 1.77777 3.06466 1.77777 3.55558V13.3334C1.77777 13.8243 2.17574 14.2222 2.66666 14.2222Z" fill="#0079AD"/>
</svg>
