<svg width="72" height="68" viewBox="0 0 72 68" fill="none" xmlns="http://www.w3.org/2000/svg">
<path fill-rule="evenodd" clip-rule="evenodd" d="M36 68L36 4.37114e-08L37 0L37 68L36 68Z" fill="#CBD4D8"/>
<rect x="18" y="15.5" width="38" height="38" rx="19" fill="white"/>
<path d="M35.7478 30.069H37.5418L33.8108 39H32.0038L28.2728 30.069H30.0668L32.9138 36.842L35.7478 30.069Z" fill="#4F6169"/>
<path d="M42.1042 39.143C40.5832 39.143 39.2702 38.623 38.2822 37.7L39.2312 36.543C40.0502 37.284 40.9992 37.752 42.1692 37.752C43.2612 37.752 43.8332 37.206 43.8332 36.569C43.8332 35.828 43.1962 35.581 41.7662 35.243C39.9202 34.814 38.6462 34.281 38.6462 32.604C38.6462 31.044 39.9722 29.913 41.8442 29.913C43.2612 29.913 44.3402 30.394 45.2242 31.161L44.3402 32.344C43.5732 31.681 42.6762 31.304 41.7922 31.304C40.8822 31.304 40.2842 31.837 40.2842 32.461C40.2842 33.189 40.9342 33.449 42.3512 33.774C44.2102 34.19 45.4582 34.788 45.4582 36.413C45.4582 38.012 44.2492 39.143 42.1042 39.143Z" fill="#4F6169"/>
<rect x="18" y="15.5" width="38" height="38" rx="19" stroke="#CBD4D8" stroke-width="2"/>
</svg>
