<svg width="65" height="80" viewBox="0 0 65 80" fill="none" xmlns="http://www.w3.org/2000/svg">
<g clip-path="url(#clip0_200_4280)">
<path d="M0.616699 21.5002V58.5002L32.6667 77.0102L64.7167 58.5002V21.5002L32.6667 2.99023L0.616699 21.5002Z" fill="#B2E0F4"/>
<path d="M59.6367 38.22L54.9067 36.66C54.3567 32.95 52.8967 29.54 50.7567 26.65L52.9967 22.2C52.2167 21.31 51.3667 20.46 50.4767 19.68L46.0267 21.92C43.1367 19.79 39.7267 18.33 36.0167 17.77L34.4567 13.04C33.8667 13 33.2767 12.98 32.6767 12.98C32.0767 12.98 31.4867 13 30.8967 13.04L29.3367 17.77C25.6267 18.32 22.2167 19.78 19.3267 21.92L14.8767 19.68C13.9867 20.46 13.1367 21.31 12.3567 22.2L14.5967 26.65C12.4667 29.54 11.0067 32.95 10.4467 36.66L5.71674 38.22C5.67674 38.81 5.65674 39.4 5.65674 40C5.65674 40.6 5.67674 41.19 5.71674 41.78L10.4467 43.34C10.9967 47.05 12.4567 50.46 14.5967 53.35L12.3567 57.8C13.1367 58.69 13.9867 59.54 14.8767 60.32L19.3267 58.08C22.2167 60.21 25.6267 61.67 29.3367 62.23L30.8967 66.96C31.4867 67 32.0767 67.02 32.6767 67.02C33.2767 67.02 33.8667 67 34.4567 66.96L36.0167 62.23C39.7267 61.68 43.1367 60.22 46.0267 58.08L50.4767 60.32C51.3667 59.54 52.2167 58.69 52.9967 57.8L50.7567 53.35C52.8867 50.46 54.3467 47.05 54.9067 43.34L59.6367 41.78C59.6767 41.19 59.6967 40.6 59.6967 40C59.6967 39.4 59.6767 38.81 59.6367 38.22Z" stroke="#25333D" stroke-width="2" stroke-linejoin="round"/>
<path d="M48.1068 41.1301V38.8801L44.2068 37.6401C43.8968 36.1501 43.2968 34.7701 42.4868 33.5501L44.3868 29.8901L42.7968 28.3001L39.1068 30.2101C37.8968 29.4201 36.5368 28.8501 35.0668 28.5501L33.8068 24.5801H31.5568L30.2968 28.5501C28.8368 28.8501 27.4668 29.4301 26.2568 30.2101L22.5668 28.3001L20.9768 29.8901L22.8768 33.5501C22.0568 34.7701 21.4668 36.1501 21.1568 37.6401L17.2568 38.8801V41.1301L21.1168 42.3601C21.4168 43.8801 22.0068 45.3001 22.8268 46.5601L20.9768 50.1301L22.5668 51.7201L26.1068 49.8901C27.3668 50.7401 28.8068 51.3501 30.3568 51.6601L31.5568 55.4501H33.8068L35.0068 51.6601C36.5568 51.3501 37.9868 50.7401 39.2568 49.8901L42.7968 51.7201L44.3868 50.1301L42.5368 46.5601C43.3568 45.3101 43.9468 43.8901 44.2468 42.3601L48.1068 41.1301ZM32.7468 43.0101C31.0368 43.0101 29.6468 41.6201 29.6468 39.9101C29.6468 38.2001 31.0368 36.8101 32.7468 36.8101C34.4568 36.8101 35.8468 38.2001 35.8468 39.9101C35.8468 41.6201 34.4568 43.0101 32.7468 43.0101Z" stroke="#25333D" stroke-width="2" stroke-linejoin="round"/>
</g>
<defs>
<clipPath id="clip0_200_4280">
<rect width="64" height="80" fill="white" transform="translate(0.666748)"/>
</clipPath>
</defs>
</svg>
