<svg width="478" height="216" viewBox="0 0 478 216" fill="none" xmlns="http://www.w3.org/2000/svg">
<rect x="124" y="1" width="353" height="214" fill="white"/>
<path d="M246 21H154C152.895 21 152 21.8954 152 23V27C152 28.1046 152.895 29 154 29H246C247.105 29 248 28.1046 248 27V23C248 21.8954 247.105 21 246 21Z" fill="#A6A3A8"/>
<path d="M449 45H152V47H449V45Z" fill="#DBDADC"/>
<path d="M212 45H184V47H212V45Z" fill="#0079AD"/>
<path d="M223 64H153C151.895 64 151 64.8954 151 66V67C151 68.1046 151.895 69 153 69H223C224.105 69 225 68.1046 225 67V66C225 64.8954 224.105 64 223 64Z" fill="#A6A3A8"/>
<path d="M182 101H151V103H182V101Z" fill="#DBDADC"/>
<path d="M182 116H151V118H182V116Z" fill="#DBDADC"/>
<path d="M182 131H151V133H182V131Z" fill="#DBDADC"/>
<path d="M288 101H206V103H288V101Z" fill="#DBDADC"/>
<path d="M288 116H206V118H288V116Z" fill="#DBDADC"/>
<path d="M288 131H206V133H288V131Z" fill="#DBDADC"/>
<path d="M292 152H151V154H292V152Z" fill="#DBDADC"/>
<path d="M189 183H153C151.895 183 151 183.895 151 185V193C151 194.105 151.895 195 153 195H189C190.105 195 191 194.105 191 193V185C191 183.895 190.105 183 189 183Z" fill="#0079AD"/>
<path d="M445 76H151V78H445V76Z" fill="#DBDADC"/>
<path d="M445 85H151V87H445V85Z" fill="#DBDADC"/>
<path d="M146 136L146 101L145 101L145 136L146 136Z" fill="#D23292"/>
<rect x="124" y="1" width="353" height="214" stroke="#67777E"/>
<path d="M145 46H65V47H145V46Z" fill="#D23292"/>
<path d="M145 67H65V68H145V67Z" fill="#D23292"/>
<path d="M145 83H65V84H145V83Z" fill="#D23292"/>
<path d="M145 117H65V118H145V117Z" fill="#D23292"/>
<path d="M145 153H65V154H145V153Z" fill="#D23292"/>
<path d="M145 188H65V189H145V188Z" fill="#D23292"/>
<path d="M145 24H65V25H145V24Z" fill="#D23292"/>
<path d="M36.8441 28V21.257H34.3031V20.443H40.2431V21.257H37.7021V28H36.8441ZM42.0914 21.279C41.7834 21.279 41.5414 21.026 41.5414 20.729C41.5414 20.443 41.7834 20.19 42.0914 20.19C42.3884 20.19 42.6304 20.443 42.6304 20.729C42.6304 21.026 42.3884 21.279 42.0914 21.279ZM41.6734 28V22.313H42.4984V28H41.6734ZM46.8127 27.164L47.2197 27.769C46.9227 28 46.5487 28.132 46.1637 28.132C45.3497 28.132 44.7777 27.527 44.7777 26.68V23.05H43.8867V22.313H44.7777V20.751H45.6027V22.313H46.9997V23.05H45.6027V26.68C45.6027 27.098 45.8887 27.395 46.2187 27.395C46.4717 27.395 46.6917 27.296 46.8127 27.164ZM48.6047 28V20.311H49.4297V28H48.6047ZM53.9419 27.395C54.6129 27.395 55.3829 27.098 55.7349 26.713L56.2409 27.252C55.7459 27.791 54.7449 28.132 53.9529 28.132C52.4349 28.132 51.0709 26.889 51.0709 25.14C51.0709 23.446 52.3469 22.181 53.8759 22.181C55.5919 22.181 56.5709 23.479 56.5709 25.47H51.9179C52.0389 26.581 52.8199 27.395 53.9419 27.395ZM53.9089 22.918C52.8969 22.918 52.0829 23.633 51.9289 24.733H55.7569C55.6469 23.71 55.0419 22.918 53.9089 22.918Z" fill="black"/>
<path d="M34.3693 50V43.257H31.8283V42.443H37.7683V43.257H35.2273V50H34.3693ZM41.2336 44.181C42.7846 44.181 43.5436 45.16 43.5436 46.535V50H42.7186V49.109C42.3116 49.78 41.4646 50.132 40.7166 50.132C39.5176 50.132 38.6376 49.439 38.6376 48.317C38.6376 47.184 39.6496 46.425 40.8706 46.425C41.4866 46.425 42.1356 46.557 42.7186 46.744V46.535C42.7186 45.765 42.4106 44.885 41.1786 44.885C40.6066 44.885 40.0346 45.138 39.5176 45.402L39.1876 44.731C40.0016 44.324 40.6836 44.181 41.2336 44.181ZM40.8596 49.406C41.6076 49.406 42.4986 49.021 42.7186 48.218V47.349C42.2016 47.206 41.6186 47.118 41.0026 47.118C40.1556 47.118 39.4406 47.602 39.4406 48.284C39.4406 48.988 40.0566 49.406 40.8596 49.406ZM48.4146 44.181C49.9106 44.181 51.0326 45.413 51.0326 47.151C51.0326 48.9 49.9106 50.132 48.4146 50.132C47.5016 50.132 46.7756 49.681 46.3466 48.933V50H45.5216V42.311H46.3466V45.38C46.7756 44.632 47.5016 44.181 48.4146 44.181ZM48.2606 49.395C49.3716 49.395 50.1636 48.46 50.1636 47.151C50.1636 45.842 49.3716 44.918 48.2606 44.918C47.1386 44.918 46.3466 45.842 46.3466 47.151C46.3466 48.46 47.1386 49.395 48.2606 49.395ZM54.4641 50.132C53.6721 50.132 52.7921 49.835 52.1101 49.285L52.5391 48.68C53.1881 49.153 53.8371 49.395 54.4641 49.395C55.2121 49.395 55.7181 49.043 55.7181 48.504C55.7181 47.888 55.0581 47.69 54.2881 47.47C52.9131 47.074 52.3851 46.667 52.3851 45.853C52.3851 44.819 53.2431 44.181 54.3761 44.181C55.0801 44.181 55.8061 44.423 56.4111 44.819L56.0151 45.457C55.4431 45.094 54.8821 44.918 54.3761 44.918C53.7381 44.918 53.2101 45.204 53.2101 45.754C53.2101 46.249 53.6281 46.403 54.6841 46.744C55.5971 47.03 56.5431 47.338 56.5431 48.416C56.5431 49.461 55.6411 50.132 54.4641 50.132Z" fill="black"/>
<path d="M20.5077 72.121C19.2647 72.121 18.2857 71.67 17.5267 70.922L18.0657 70.251C18.7037 70.889 19.4847 71.34 20.5407 71.34C21.7067 71.34 22.3007 70.702 22.3007 70.02C22.3007 69.217 21.5857 68.898 20.2657 68.59C18.7477 68.238 17.7907 67.765 17.7907 66.456C17.7907 65.246 18.8687 64.311 20.3207 64.311C21.4427 64.311 22.2787 64.751 22.9717 65.389L22.4437 66.06C21.8167 65.455 21.0687 65.092 20.2767 65.092C19.3417 65.092 18.6597 65.697 18.6597 66.39C18.6597 67.171 19.4077 67.446 20.6947 67.754C22.1357 68.095 23.1697 68.612 23.1697 69.943C23.1697 71.142 22.2677 72.121 20.5077 72.121ZM27.3111 71.395C27.9821 71.395 28.7521 71.098 29.1041 70.713L29.6101 71.252C29.1151 71.791 28.1141 72.132 27.3221 72.132C25.8041 72.132 24.4401 70.889 24.4401 69.14C24.4401 67.446 25.7161 66.181 27.2451 66.181C28.9611 66.181 29.9401 67.479 29.9401 69.47H25.2871C25.4081 70.581 26.1891 71.395 27.3111 71.395ZM27.2781 66.918C26.2661 66.918 25.4521 67.633 25.2981 68.733H29.1261C29.0161 67.71 28.4111 66.918 27.2781 66.918ZM33.9681 72.132C32.3731 72.132 31.0201 70.768 31.0201 69.151C31.0201 67.534 32.3731 66.181 33.9681 66.181C34.7381 66.181 35.4531 66.5 35.9921 67.017L35.4201 67.578C35.0461 67.171 34.5291 66.918 33.9681 66.918C32.8351 66.918 31.8891 67.941 31.8891 69.151C31.8891 70.372 32.8351 71.395 33.9681 71.395C34.5401 71.395 35.0681 71.131 35.4531 70.702L36.0251 71.263C35.4861 71.802 34.7601 72.132 33.9681 72.132ZM39.6302 71.164L40.0372 71.769C39.7402 72 39.3662 72.132 38.9812 72.132C38.1672 72.132 37.5952 71.527 37.5952 70.68V67.05H36.7042V66.313H37.5952V64.751H38.4202V66.313H39.8172V67.05H38.4202V70.68C38.4202 71.098 38.7062 71.395 39.0362 71.395C39.2892 71.395 39.5092 71.296 39.6302 71.164ZM41.8402 65.279C41.5322 65.279 41.2902 65.026 41.2902 64.729C41.2902 64.443 41.5322 64.19 41.8402 64.19C42.1372 64.19 42.3792 64.443 42.3792 64.729C42.3792 65.026 42.1372 65.279 41.8402 65.279ZM41.4222 72V66.313H42.2472V72H41.4222ZM46.8035 72.132C45.1865 72.132 43.8665 70.79 43.8665 69.151C43.8665 67.512 45.1865 66.181 46.8035 66.181C48.4095 66.181 49.7295 67.512 49.7295 69.151C49.7295 70.79 48.4095 72.132 46.8035 72.132ZM46.8035 71.395C47.9365 71.395 48.8715 70.383 48.8715 69.151C48.8715 67.919 47.9365 66.918 46.8035 66.918C45.6595 66.918 44.7245 67.919 44.7245 69.151C44.7245 70.383 45.6595 71.395 46.8035 71.395ZM54.0456 66.181C55.3106 66.181 56.1796 67.072 56.1796 68.381V72H55.3546V68.491C55.3546 67.556 54.7716 66.918 53.9356 66.918C52.9676 66.918 52.1756 67.578 52.1756 68.381V72H51.3506V66.313H52.1756V67.215C52.5056 66.61 53.2316 66.181 54.0456 66.181Z" fill="black"/>
<path d="M30.1957 87V79.443H33.6607C34.8817 79.443 35.7397 80.224 35.7397 81.324C35.7397 82.127 35.3437 82.589 34.6617 82.985C35.5307 83.425 36.0367 84.107 36.0367 84.932C36.0367 86.142 35.1017 87 33.7927 87H30.1957ZM31.0537 82.644H33.4407C34.2767 82.644 34.8707 82.138 34.8707 81.434C34.8707 80.73 34.2767 80.224 33.4407 80.224H31.0537V82.644ZM31.0537 86.219H33.5727C34.5077 86.219 35.1677 85.636 35.1677 84.822C35.1677 84.008 34.5077 83.425 33.5727 83.425H31.0537V86.219ZM40.3301 87.132C38.7131 87.132 37.3931 85.79 37.3931 84.151C37.3931 82.512 38.7131 81.181 40.3301 81.181C41.9361 81.181 43.2561 82.512 43.2561 84.151C43.2561 85.79 41.9361 87.132 40.3301 87.132ZM40.3301 86.395C41.4631 86.395 42.3981 85.383 42.3981 84.151C42.3981 82.919 41.4631 81.918 40.3301 81.918C39.1861 81.918 38.2511 82.919 38.2511 84.151C38.2511 85.383 39.1861 86.395 40.3301 86.395ZM49.1231 79.311H49.9481V87H49.1231V85.933C48.6941 86.681 47.9681 87.132 47.0551 87.132C45.5591 87.132 44.4371 85.9 44.4371 84.151C44.4371 82.413 45.5591 81.181 47.0551 81.181C47.9681 81.181 48.6941 81.632 49.1231 82.38V79.311ZM47.2091 86.395C48.3311 86.395 49.1231 85.46 49.1231 84.151C49.1231 82.842 48.3311 81.918 47.2091 81.918C46.0981 81.918 45.3061 82.842 45.3061 84.151C45.3061 85.46 46.0981 86.395 47.2091 86.395ZM52.5545 88.98C52.2245 88.98 51.9165 88.914 51.6525 88.793L51.8505 88.089C52.0485 88.188 52.2795 88.232 52.5215 88.232C52.8845 88.232 53.1265 88.111 53.3465 87.726L53.6765 87.022L51.2015 81.313H52.1145L54.1055 86.043L55.9865 81.313H56.8775L54.2815 87.638C53.8855 88.606 53.3355 88.969 52.5545 88.98Z" fill="black"/>
<path d="M1.98572 121V113.443H2.84372V117.623L6.67172 113.443H7.80472L4.62572 116.897L8.01372 121H6.90272L4.03172 117.48L2.84372 118.734V121H1.98572ZM11.8183 120.395C12.4893 120.395 13.2593 120.098 13.6113 119.713L14.1173 120.252C13.6223 120.791 12.6213 121.132 11.8293 121.132C10.3113 121.132 8.94728 119.889 8.94728 118.14C8.94728 116.446 10.2233 115.181 11.7523 115.181C13.4683 115.181 14.4473 116.479 14.4473 118.47H9.79428C9.91528 119.581 10.6963 120.395 11.8183 120.395ZM11.7853 115.918C10.7733 115.918 9.95928 116.633 9.80528 117.733H13.6333C13.5233 116.71 12.9183 115.918 11.7853 115.918ZM16.5284 122.98C16.1984 122.98 15.8904 122.914 15.6264 122.793L15.8244 122.089C16.0224 122.188 16.2534 122.232 16.4954 122.232C16.8584 122.232 17.1004 122.111 17.3204 121.726L17.6504 121.022L15.1754 115.313H16.0884L18.0794 120.043L19.9604 115.313H20.8514L18.2554 121.638C17.8594 122.606 17.3094 122.969 16.5284 122.98ZM21.1738 121.814L25.0348 112.827H25.9698L22.1088 121.814H21.1738ZM33.1058 113.443H34.0408L30.7078 121H29.7728L26.4398 113.443H27.3748L30.2458 119.944L33.1058 113.443ZM37.5102 115.181C39.0612 115.181 39.8202 116.16 39.8202 117.535V121H38.9952V120.109C38.5882 120.78 37.7412 121.132 36.9932 121.132C35.7942 121.132 34.9142 120.439 34.9142 119.317C34.9142 118.184 35.9262 117.425 37.1472 117.425C37.7632 117.425 38.4122 117.557 38.9952 117.744V117.535C38.9952 116.765 38.6872 115.885 37.4552 115.885C36.8832 115.885 36.3112 116.138 35.7942 116.402L35.4642 115.731C36.2782 115.324 36.9602 115.181 37.5102 115.181ZM37.1362 120.406C37.8842 120.406 38.7752 120.021 38.9952 119.218V118.349C38.4782 118.206 37.8952 118.118 37.2792 118.118C36.4322 118.118 35.7172 118.602 35.7172 119.284C35.7172 119.988 36.3332 120.406 37.1362 120.406ZM41.7982 121V113.311H42.6232V121H41.7982ZM48.6095 115.313H49.4345V121H48.6095V120.098C48.2795 120.703 47.5535 121.132 46.7395 121.132C45.4745 121.132 44.6055 120.241 44.6055 118.932V115.313H45.4305V118.822C45.4305 119.757 46.0135 120.395 46.8495 120.395C47.8175 120.395 48.6095 119.735 48.6095 118.932V115.313ZM53.9419 120.395C54.6129 120.395 55.3829 120.098 55.7349 119.713L56.2409 120.252C55.7459 120.791 54.7449 121.132 53.9529 121.132C52.4349 121.132 51.0709 119.889 51.0709 118.14C51.0709 116.446 52.3469 115.181 53.8759 115.181C55.5919 115.181 56.5709 116.479 56.5709 118.47H51.9179C52.0389 119.581 52.8199 120.395 53.9419 120.395ZM53.9089 115.918C52.8969 115.918 52.0829 116.633 51.9289 117.733H55.7569C55.6469 116.71 55.0419 115.918 53.9089 115.918Z" fill="black"/>
<path d="M30.1957 157V149.443H33.6607C34.8817 149.443 35.7397 150.224 35.7397 151.324C35.7397 152.127 35.3437 152.589 34.6617 152.985C35.5307 153.425 36.0367 154.107 36.0367 154.932C36.0367 156.142 35.1017 157 33.7927 157H30.1957ZM31.0537 152.644H33.4407C34.2767 152.644 34.8707 152.138 34.8707 151.434C34.8707 150.73 34.2767 150.224 33.4407 150.224H31.0537V152.644ZM31.0537 156.219H33.5727C34.5077 156.219 35.1677 155.636 35.1677 154.822C35.1677 154.008 34.5077 153.425 33.5727 153.425H31.0537V156.219ZM40.3301 157.132C38.7131 157.132 37.3931 155.79 37.3931 154.151C37.3931 152.512 38.7131 151.181 40.3301 151.181C41.9361 151.181 43.2561 152.512 43.2561 154.151C43.2561 155.79 41.9361 157.132 40.3301 157.132ZM40.3301 156.395C41.4631 156.395 42.3981 155.383 42.3981 154.151C42.3981 152.919 41.4631 151.918 40.3301 151.918C39.1861 151.918 38.2511 152.919 38.2511 154.151C38.2511 155.383 39.1861 156.395 40.3301 156.395ZM49.1231 149.311H49.9481V157H49.1231V155.933C48.6941 156.681 47.9681 157.132 47.0551 157.132C45.5591 157.132 44.4371 155.9 44.4371 154.151C44.4371 152.413 45.5591 151.181 47.0551 151.181C47.9681 151.181 48.6941 151.632 49.1231 152.38V149.311ZM47.2091 156.395C48.3311 156.395 49.1231 155.46 49.1231 154.151C49.1231 152.842 48.3311 151.918 47.2091 151.918C46.0981 151.918 45.3061 152.842 45.3061 154.151C45.3061 155.46 46.0981 156.395 47.2091 156.395ZM52.5545 158.98C52.2245 158.98 51.9165 158.914 51.6525 158.793L51.8505 158.089C52.0485 158.188 52.2795 158.232 52.5215 158.232C52.8845 158.232 53.1265 158.111 53.3465 157.726L53.6765 157.022L51.2015 151.313H52.1145L54.1055 156.043L55.9865 151.313H56.8775L54.2815 157.638C53.8855 158.606 53.3355 158.969 52.5545 158.98Z" fill="black"/>
<path d="M21.8787 192V184.443H25.3437C26.5647 184.443 27.4227 185.224 27.4227 186.324C27.4227 187.127 27.0267 187.589 26.3447 187.985C27.2137 188.425 27.7197 189.107 27.7197 189.932C27.7197 191.142 26.7847 192 25.4757 192H21.8787ZM22.7367 187.644H25.1237C25.9597 187.644 26.5537 187.138 26.5537 186.434C26.5537 185.73 25.9597 185.224 25.1237 185.224H22.7367V187.644ZM22.7367 191.219H25.2557C26.1907 191.219 26.8507 190.636 26.8507 189.822C26.8507 189.008 26.1907 188.425 25.2557 188.425H22.7367V191.219ZM33.4431 186.313H34.2681V192H33.4431V191.098C33.1131 191.703 32.3871 192.132 31.5731 192.132C30.3081 192.132 29.4391 191.241 29.4391 189.932V186.313H30.2641V189.822C30.2641 190.757 30.8471 191.395 31.6831 191.395C32.6511 191.395 33.4431 190.735 33.4431 189.932V186.313ZM38.5775 191.164L38.9845 191.769C38.6875 192 38.3135 192.132 37.9285 192.132C37.1145 192.132 36.5425 191.527 36.5425 190.68V187.05H35.6515V186.313H36.5425V184.751H37.3675V186.313H38.7645V187.05H37.3675V190.68C37.3675 191.098 37.6535 191.395 37.9835 191.395C38.2365 191.395 38.4565 191.296 38.5775 191.164ZM42.5695 191.164L42.9765 191.769C42.6795 192 42.3055 192.132 41.9205 192.132C41.1065 192.132 40.5345 191.527 40.5345 190.68V187.05H39.6435V186.313H40.5345V184.751H41.3595V186.313H42.7565V187.05H41.3595V190.68C41.3595 191.098 41.6455 191.395 41.9755 191.395C42.2285 191.395 42.4485 191.296 42.5695 191.164ZM46.8035 192.132C45.1865 192.132 43.8665 190.79 43.8665 189.151C43.8665 187.512 45.1865 186.181 46.8035 186.181C48.4095 186.181 49.7295 187.512 49.7295 189.151C49.7295 190.79 48.4095 192.132 46.8035 192.132ZM46.8035 191.395C47.9365 191.395 48.8715 190.383 48.8715 189.151C48.8715 187.919 47.9365 186.918 46.8035 186.918C45.6595 186.918 44.7245 187.919 44.7245 189.151C44.7245 190.383 45.6595 191.395 46.8035 191.395ZM54.0456 186.181C55.3106 186.181 56.1796 187.072 56.1796 188.381V192H55.3546V188.491C55.3546 187.556 54.7716 186.918 53.9356 186.918C52.9676 186.918 52.1756 187.578 52.1756 188.381V192H51.3506V186.313H52.1756V187.215C52.5056 186.61 53.2316 186.181 54.0456 186.181Z" fill="black"/>
</svg>
