<svg width="492" height="400" viewBox="0 0 492 400" fill="none" xmlns="http://www.w3.org/2000/svg">
<path d="M4 0.5H488C489.933 0.5 491.5 2.067 491.5 4V396C491.5 397.933 489.933 399.5 488 399.5H4C2.067 399.5 0.5 397.933 0.5 396V4C0.5 2.067 2.067 0.5 4 0.5Z" fill="#22343C"/>
<path d="M4 0.5H488C489.933 0.5 491.5 2.067 491.5 4V396C491.5 397.933 489.933 399.5 488 399.5H4C2.067 399.5 0.5 397.933 0.5 396V4C0.5 2.067 2.067 0.5 4 0.5Z" stroke="#6A7A81"/>
<mask id="path-2-inside-1_20_17910" fill="white">
<path d="M16 20C16 17.7909 17.7909 16 20 16H204C206.209 16 208 17.7909 208 20V380C208 382.209 206.209 384 204 384H20C17.7909 384 16 382.209 16 380V20Z"/>
</mask>
<path d="M16 20C16 17.7909 17.7909 16 20 16H204C206.209 16 208 17.7909 208 20V380C208 382.209 206.209 384 204 384H20C17.7909 384 16 382.209 16 380V20Z" fill="#22343C"/>
<path d="M16 16H208H16ZM208 384H16H208ZM16 384V16V384ZM204 16C206.761 16 209 18.2386 209 21V379C209 381.761 206.761 384 204 384C205.657 384 207 382.209 207 380V20C207 17.7909 205.657 16 204 16Z" fill="black" mask="url(#path-2-inside-1_20_17910)"/>
<path d="M35.584 48V39.418H32.35V38.382H39.91V39.418H36.676V48H35.584ZM44.4838 48.168C42.4258 48.168 40.7458 46.46 40.7458 44.374C40.7458 42.288 42.4258 40.594 44.4838 40.594C46.5278 40.594 48.2078 42.288 48.2078 44.374C48.2078 46.46 46.5278 48.168 44.4838 48.168ZM44.4838 47.23C45.9258 47.23 47.1158 45.942 47.1158 44.374C47.1158 42.806 45.9258 41.532 44.4838 41.532C43.0278 41.532 41.8378 42.806 41.8378 44.374C41.8378 45.942 43.0278 47.23 44.4838 47.23ZM55.3204 38.214H56.3704V48H55.3204V46.642C54.7744 47.594 53.8504 48.168 52.6884 48.168C50.7844 48.168 49.3564 46.6 49.3564 44.374C49.3564 42.162 50.7844 40.594 52.6884 40.594C53.8504 40.594 54.7744 41.168 55.3204 42.12V38.214ZM52.8844 47.23C54.3124 47.23 55.3204 46.04 55.3204 44.374C55.3204 42.708 54.3124 41.532 52.8844 41.532C51.4704 41.532 50.4624 42.708 50.4624 44.374C50.4624 46.04 51.4704 47.23 52.8844 47.23ZM61.2932 40.594C63.2672 40.594 64.2332 41.84 64.2332 43.59V48H63.1832V46.866C62.6652 47.72 61.5872 48.168 60.6352 48.168C59.1092 48.168 57.9892 47.286 57.9892 45.858C57.9892 44.416 59.2772 43.45 60.8312 43.45C61.6152 43.45 62.4412 43.618 63.1832 43.856V43.59C63.1832 42.61 62.7912 41.49 61.2232 41.49C60.4952 41.49 59.7672 41.812 59.1092 42.148L58.6892 41.294C59.7252 40.776 60.5932 40.594 61.2932 40.594ZM60.8172 47.244C61.7692 47.244 62.9032 46.754 63.1832 45.732V44.626C62.5252 44.444 61.7832 44.332 60.9992 44.332C59.9212 44.332 59.0112 44.948 59.0112 45.816C59.0112 46.712 59.7952 47.244 60.8172 47.244ZM67.0261 50.52C66.6061 50.52 66.2141 50.436 65.8781 50.282L66.1301 49.386C66.3821 49.512 66.6761 49.568 66.9841 49.568C67.4461 49.568 67.7541 49.414 68.0341 48.924L68.4541 48.028L65.3041 40.762H66.4661L69.0001 46.782L71.3941 40.762H72.5281L69.2241 48.812C68.7201 50.044 68.0201 50.506 67.0261 50.52Z" fill="#CBD4D8"/>
<path d="M36.144 88V84.08L32.266 78.382H33.624L36.718 83.044L39.84 78.382H41.156L37.292 84.08V88H36.144ZM45.5899 87.23C46.4439 87.23 47.4239 86.852 47.8719 86.362L48.5159 87.048C47.8859 87.734 46.6119 88.168 45.6039 88.168C43.6719 88.168 41.9359 86.586 41.9359 84.36C41.9359 82.204 43.5599 80.594 45.5059 80.594C47.6899 80.594 48.9359 82.246 48.9359 84.78H43.0139C43.1679 86.194 44.1619 87.23 45.5899 87.23ZM45.5479 81.532C44.2599 81.532 43.2239 82.442 43.0279 83.842H47.8999C47.7599 82.54 46.9899 81.532 45.5479 81.532ZM52.84 88.168C51.832 88.168 50.712 87.79 49.844 87.09L50.39 86.32C51.216 86.922 52.042 87.23 52.84 87.23C53.792 87.23 54.436 86.782 54.436 86.096C54.436 85.312 53.596 85.06 52.616 84.78C50.866 84.276 50.194 83.758 50.194 82.722C50.194 81.406 51.286 80.594 52.728 80.594C53.624 80.594 54.548 80.902 55.318 81.406L54.814 82.218C54.086 81.756 53.372 81.532 52.728 81.532C51.916 81.532 51.244 81.896 51.244 82.596C51.244 83.226 51.776 83.422 53.12 83.856C54.282 84.22 55.486 84.612 55.486 85.984C55.486 87.314 54.338 88.168 52.84 88.168ZM59.9856 86.936L60.5036 87.706C60.1256 88 59.6496 88.168 59.1596 88.168C58.1236 88.168 57.3956 87.398 57.3956 86.32V81.7H56.2616V80.762H57.3956V78.774H58.4456V80.762H60.2236V81.7H58.4456V86.32C58.4456 86.852 58.8096 87.23 59.2296 87.23C59.5516 87.23 59.8316 87.104 59.9856 86.936ZM64.9638 87.23C65.8178 87.23 66.7978 86.852 67.2458 86.362L67.8898 87.048C67.2598 87.734 65.9858 88.168 64.9778 88.168C63.0458 88.168 61.3098 86.586 61.3098 84.36C61.3098 82.204 62.9338 80.594 64.8798 80.594C67.0638 80.594 68.3098 82.246 68.3098 84.78H62.3878C62.5418 86.194 63.5358 87.23 64.9638 87.23ZM64.9218 81.532C63.6338 81.532 62.5978 82.442 62.4018 83.842H67.2738C67.1338 82.54 66.3638 81.532 64.9218 81.532ZM71.0239 82.176C71.4579 81.21 72.4939 80.594 73.8239 80.594V81.532C72.1859 81.532 71.0239 82.54 71.0239 83.954V88H69.9739V80.762H71.0239V82.176ZM80.8286 78.214H81.8786V88H80.8286V86.642C80.2826 87.594 79.3586 88.168 78.1966 88.168C76.2926 88.168 74.8646 86.6 74.8646 84.374C74.8646 82.162 76.2926 80.594 78.1966 80.594C79.3586 80.594 80.2826 81.168 80.8286 82.12V78.214ZM78.3926 87.23C79.8206 87.23 80.8286 86.04 80.8286 84.374C80.8286 82.708 79.8206 81.532 78.3926 81.532C76.9786 81.532 75.9706 82.708 75.9706 84.374C75.9706 86.04 76.9786 87.23 78.3926 87.23ZM86.8014 80.594C88.7754 80.594 89.7414 81.84 89.7414 83.59V88H88.6914V86.866C88.1734 87.72 87.0954 88.168 86.1434 88.168C84.6174 88.168 83.4974 87.286 83.4974 85.858C83.4974 84.416 84.7854 83.45 86.3394 83.45C87.1234 83.45 87.9494 83.618 88.6914 83.856V83.59C88.6914 82.61 88.2994 81.49 86.7314 81.49C86.0034 81.49 85.2754 81.812 84.6174 82.148L84.1974 81.294C85.2334 80.776 86.1014 80.594 86.8014 80.594ZM86.3254 87.244C87.2774 87.244 88.4114 86.754 88.6914 85.732V84.626C88.0334 84.444 87.2914 84.332 86.5074 84.332C85.4294 84.332 84.5194 84.948 84.5194 85.816C84.5194 86.712 85.3034 87.244 86.3254 87.244ZM92.5343 90.52C92.1143 90.52 91.7223 90.436 91.3863 90.282L91.6383 89.386C91.8903 89.512 92.1843 89.568 92.4923 89.568C92.9543 89.568 93.2623 89.414 93.5423 88.924L93.9623 88.028L90.8123 80.762H91.9743L94.5083 86.782L96.9023 80.762H98.0363L94.7323 88.812C94.2283 90.044 93.5283 90.506 92.5343 90.52Z" fill="#CBD4D8"/>
<path d="M34.618 126.964H39.868V128H33.526V118.382H34.618V126.964ZM43.9248 120.594C45.8988 120.594 46.8648 121.84 46.8648 123.59V128H45.8148V126.866C45.2968 127.72 44.2188 128.168 43.2668 128.168C41.7408 128.168 40.6208 127.286 40.6208 125.858C40.6208 124.416 41.9088 123.45 43.4628 123.45C44.2468 123.45 45.0728 123.618 45.8148 123.856V123.59C45.8148 122.61 45.4228 121.49 43.8548 121.49C43.1268 121.49 42.3988 121.812 41.7408 122.148L41.3208 121.294C42.3568 120.776 43.2248 120.594 43.9248 120.594ZM43.4488 127.244C44.4008 127.244 45.5348 126.754 45.8148 125.732V124.626C45.1568 124.444 44.4148 124.332 43.6308 124.332C42.5528 124.332 41.6428 124.948 41.6428 125.816C41.6428 126.712 42.4268 127.244 43.4488 127.244ZM51.2678 128.168C50.2598 128.168 49.1398 127.79 48.2718 127.09L48.8178 126.32C49.6438 126.922 50.4698 127.23 51.2678 127.23C52.2198 127.23 52.8638 126.782 52.8638 126.096C52.8638 125.312 52.0238 125.06 51.0438 124.78C49.2938 124.276 48.6218 123.758 48.6218 122.722C48.6218 121.406 49.7138 120.594 51.1558 120.594C52.0518 120.594 52.9758 120.902 53.7458 121.406L53.2418 122.218C52.5138 121.756 51.7998 121.532 51.1558 121.532C50.3438 121.532 49.6718 121.896 49.6718 122.596C49.6718 123.226 50.2038 123.422 51.5478 123.856C52.7098 124.22 53.9138 124.612 53.9138 125.984C53.9138 127.314 52.7658 128.168 51.2678 128.168ZM58.4133 126.936L58.9313 127.706C58.5533 128 58.0773 128.168 57.5873 128.168C56.5513 128.168 55.8233 127.398 55.8233 126.32V121.7H54.6893V120.762H55.8233V118.774H56.8733V120.762H58.6513V121.7H56.8733V126.32C56.8733 126.852 57.2373 127.23 57.6573 127.23C57.9793 127.23 58.2593 127.104 58.4133 126.936ZM64.291 128L68.393 119.418H63.185V118.382H69.695V119.208L65.551 128H64.291ZM75.2635 128V118.382H78.5115C81.5635 118.382 83.7195 120.37 83.7195 123.184C83.7195 125.998 81.5635 128 78.5115 128H75.2635ZM76.3555 127.006H78.5115C80.9195 127.006 82.6135 125.424 82.6135 123.184C82.6135 120.958 80.9195 119.376 78.5115 119.376H76.3555V127.006ZM88.2053 120.594C90.1793 120.594 91.1453 121.84 91.1453 123.59V128H90.0953V126.866C89.5773 127.72 88.4993 128.168 87.5473 128.168C86.0213 128.168 84.9013 127.286 84.9013 125.858C84.9013 124.416 86.1893 123.45 87.7433 123.45C88.5273 123.45 89.3533 123.618 90.0953 123.856V123.59C90.0953 122.61 89.7033 121.49 88.1353 121.49C87.4073 121.49 86.6793 121.812 86.0213 122.148L85.6013 121.294C86.6373 120.776 87.5053 120.594 88.2053 120.594ZM87.7293 127.244C88.6813 127.244 89.8153 126.754 90.0953 125.732V124.626C89.4373 124.444 88.6953 124.332 87.9113 124.332C86.8333 124.332 85.9233 124.948 85.9233 125.816C85.9233 126.712 86.7073 127.244 87.7293 127.244ZM93.9382 130.52C93.5182 130.52 93.1262 130.436 92.7902 130.282L93.0422 129.386C93.2942 129.512 93.5882 129.568 93.8962 129.568C94.3582 129.568 94.6662 129.414 94.9462 128.924L95.3662 128.028L92.2162 120.762H93.3782L95.9122 126.782L98.3062 120.762H99.4402L96.1362 128.812C95.6322 130.044 94.9322 130.506 93.9382 130.52ZM102.954 128.168C101.946 128.168 100.826 127.79 99.9581 127.09L100.504 126.32C101.33 126.922 102.156 127.23 102.954 127.23C103.906 127.23 104.55 126.782 104.55 126.096C104.55 125.312 103.71 125.06 102.73 124.78C100.98 124.276 100.308 123.758 100.308 122.722C100.308 121.406 101.4 120.594 102.842 120.594C103.738 120.594 104.662 120.902 105.432 121.406L104.928 122.218C104.2 121.756 103.486 121.532 102.842 121.532C102.03 121.532 101.358 121.896 101.358 122.596C101.358 123.226 101.89 123.422 103.234 123.856C104.396 124.22 105.6 124.612 105.6 125.984C105.6 127.314 104.452 128.168 102.954 128.168Z" fill="#CBD4D8"/>
<path d="M39.868 166.964V168H33.526V158.382H34.618V166.964H39.868ZM43.9248 160.594C44.8861 160.594 45.6141 160.869 46.1088 161.42C46.6128 161.961 46.8648 162.685 46.8648 163.59V168H45.8148V166.866C45.5628 167.277 45.1988 167.599 44.7228 167.832C44.2561 168.056 43.7708 168.168 43.2668 168.168C42.4921 168.168 41.8575 167.958 41.3628 167.538C40.8681 167.118 40.6208 166.558 40.6208 165.858C40.6208 165.391 40.7468 164.976 40.9988 164.612C41.2601 164.239 41.6055 163.954 42.0348 163.758C42.4735 163.553 42.9495 163.45 43.4628 163.45C44.1908 163.45 44.9748 163.585 45.8148 163.856V163.59C45.8148 163.002 45.6655 162.507 45.3668 162.106C45.0681 161.695 44.5641 161.49 43.8548 161.49C43.5281 161.49 43.1921 161.551 42.8468 161.672C42.5108 161.784 42.1421 161.943 41.7408 162.148L41.3208 161.294C42.2541 160.827 43.1221 160.594 43.9248 160.594ZM43.4488 167.244C43.9715 167.244 44.4615 167.113 44.9188 166.852C45.3855 166.581 45.6841 166.208 45.8148 165.732V164.626C45.1055 164.43 44.3775 164.332 43.6308 164.332C43.0801 164.332 42.6088 164.472 42.2168 164.752C41.8341 165.032 41.6428 165.387 41.6428 165.816C41.6428 166.255 41.8108 166.605 42.1468 166.866C42.4921 167.118 42.9261 167.244 43.4488 167.244ZM51.2678 168.168C50.7544 168.168 50.2318 168.075 49.6998 167.888C49.1771 167.701 48.7011 167.435 48.2718 167.09L48.8178 166.32C49.6484 166.927 50.4651 167.23 51.2678 167.23C51.7438 167.23 52.1264 167.127 52.4158 166.922C52.7144 166.717 52.8638 166.441 52.8638 166.096C52.8638 165.853 52.7844 165.653 52.6258 165.494C52.4671 165.326 52.2664 165.195 52.0238 165.102C51.7904 165.009 51.4638 164.901 51.0438 164.78C50.1571 164.528 49.5318 164.253 49.1678 163.954C48.8038 163.646 48.6218 163.235 48.6218 162.722C48.6218 162.078 48.8598 161.565 49.3358 161.182C49.8118 160.79 50.4184 160.594 51.1558 160.594C51.5944 160.594 52.0378 160.669 52.4858 160.818C52.9338 160.958 53.3538 161.154 53.7458 161.406L53.2418 162.218C52.5231 161.761 51.8278 161.532 51.1558 161.532C50.7264 161.532 50.3718 161.625 50.0918 161.812C49.8118 161.999 49.6718 162.26 49.6718 162.596C49.6718 162.801 49.7324 162.969 49.8538 163.1C49.9751 163.231 50.1571 163.347 50.3998 163.45C50.6424 163.553 51.0251 163.688 51.5478 163.856C52.0611 164.015 52.4764 164.169 52.7938 164.318C53.1111 164.467 53.3771 164.677 53.5918 164.948C53.8064 165.209 53.9138 165.555 53.9138 165.984C53.9138 166.637 53.6618 167.165 53.1578 167.566C52.6631 167.967 52.0331 168.168 51.2678 168.168ZM58.9313 167.706C58.5393 168.014 58.0913 168.168 57.5873 168.168C57.074 168.168 56.6493 167.995 56.3133 167.65C55.9866 167.305 55.8233 166.861 55.8233 166.32V161.7H54.6893V160.762H55.8233V158.774H56.8733V160.762H58.6513V161.7H56.8733V166.32C56.8733 166.581 56.948 166.801 57.0973 166.978C57.256 167.146 57.4426 167.23 57.6573 167.23C57.816 167.23 57.9606 167.202 58.0913 167.146C58.222 167.09 58.3293 167.02 58.4133 166.936L58.9313 167.706ZM66.797 168.168C66.041 168.168 65.3596 168.019 64.753 167.72C64.1556 167.412 63.6703 167.011 63.297 166.516L64.053 165.802C64.3796 166.231 64.7763 166.567 65.243 166.81C65.7096 167.053 66.2276 167.174 66.797 167.174C67.469 167.174 68.0103 167.006 68.421 166.67C68.8316 166.334 69.037 165.891 69.037 165.34C69.037 164.78 68.8176 164.355 68.379 164.066C67.9403 163.777 67.3336 163.632 66.559 163.632H65.537V162.624L66.573 162.638C67.2356 162.647 67.777 162.503 68.197 162.204C68.617 161.896 68.827 161.476 68.827 160.944C68.827 160.44 68.6216 160.025 68.211 159.698C67.8096 159.371 67.3056 159.208 66.699 159.208C66.195 159.208 65.7423 159.325 65.341 159.558C64.9396 159.791 64.557 160.127 64.193 160.566L63.465 159.908C64.3143 158.779 65.411 158.214 66.755 158.214C67.3616 158.214 67.903 158.326 68.379 158.55C68.8643 158.765 69.2423 159.073 69.513 159.474C69.793 159.866 69.933 160.314 69.933 160.818C69.933 161.397 69.7556 161.877 69.401 162.26C69.0556 162.643 68.6123 162.913 68.071 163.072C68.6403 163.203 69.1256 163.464 69.527 163.856C69.9376 164.248 70.143 164.761 70.143 165.396C70.143 165.928 70.003 166.404 69.723 166.824C69.443 167.244 69.0463 167.575 68.533 167.818C68.029 168.051 67.4503 168.168 66.797 168.168ZM75.7694 168.168C74.9947 168.168 74.3041 167.958 73.6974 167.538C73.0907 167.109 72.6147 166.516 72.2694 165.76C71.9334 165.004 71.7654 164.145 71.7654 163.184C71.7654 162.223 71.9334 161.369 72.2694 160.622C72.6147 159.866 73.0907 159.278 73.6974 158.858C74.3041 158.429 74.9947 158.214 75.7694 158.214C76.5347 158.214 77.2207 158.429 77.8274 158.858C78.4341 159.278 78.9054 159.866 79.2414 160.622C79.5867 161.369 79.7594 162.223 79.7594 163.184C79.7594 164.145 79.5867 165.004 79.2414 165.76C78.9054 166.516 78.4341 167.109 77.8274 167.538C77.2301 167.958 76.5441 168.168 75.7694 168.168ZM75.7694 167.16C76.3294 167.16 76.8287 166.992 77.2674 166.656C77.7061 166.311 78.0467 165.839 78.2894 165.242C78.5321 164.635 78.6534 163.949 78.6534 163.184C78.6534 162.419 78.5321 161.737 78.2894 161.14C78.0467 160.533 77.7061 160.062 77.2674 159.726C76.8287 159.39 76.3294 159.222 75.7694 159.222C75.2094 159.222 74.7101 159.39 74.2714 159.726C73.8327 160.062 73.4874 160.533 73.2354 161.14C72.9927 161.737 72.8714 162.419 72.8714 163.184C72.8714 163.949 72.9927 164.635 73.2354 165.242C73.4874 165.839 73.8327 166.311 74.2714 166.656C74.7101 166.992 75.2094 167.16 75.7694 167.16ZM85.7865 158.382H89.0345C90.0425 158.382 90.9385 158.587 91.7225 158.998C92.5159 159.409 93.1319 159.978 93.5705 160.706C94.0185 161.434 94.2425 162.26 94.2425 163.184C94.2425 164.108 94.0185 164.939 93.5705 165.676C93.1319 166.404 92.5159 166.973 91.7225 167.384C90.9385 167.795 90.0425 168 89.0345 168H85.7865V158.382ZM89.0345 167.006C89.8279 167.006 90.5325 166.843 91.1485 166.516C91.7739 166.189 92.2592 165.737 92.6045 165.158C92.9592 164.579 93.1365 163.921 93.1365 163.184C93.1365 162.447 92.9592 161.793 92.6045 161.224C92.2592 160.645 91.7739 160.193 91.1485 159.866C90.5325 159.539 89.8279 159.376 89.0345 159.376H86.8785V167.006H89.0345ZM98.7283 160.594C99.6896 160.594 100.418 160.869 100.912 161.42C101.416 161.961 101.668 162.685 101.668 163.59V168H100.618V166.866C100.366 167.277 100.002 167.599 99.5263 167.832C99.0596 168.056 98.5743 168.168 98.0703 168.168C97.2956 168.168 96.661 167.958 96.1663 167.538C95.6716 167.118 95.4243 166.558 95.4243 165.858C95.4243 165.391 95.5503 164.976 95.8023 164.612C96.0636 164.239 96.409 163.954 96.8383 163.758C97.277 163.553 97.753 163.45 98.2663 163.45C98.9943 163.45 99.7783 163.585 100.618 163.856V163.59C100.618 163.002 100.469 162.507 100.17 162.106C99.8716 161.695 99.3676 161.49 98.6583 161.49C98.3316 161.49 97.9956 161.551 97.6503 161.672C97.3143 161.784 96.9456 161.943 96.5443 162.148L96.1243 161.294C97.0576 160.827 97.9256 160.594 98.7283 160.594ZM98.2523 167.244C98.775 167.244 99.265 167.113 99.7223 166.852C100.189 166.581 100.488 166.208 100.618 165.732V164.626C99.909 164.43 99.181 164.332 98.4343 164.332C97.8836 164.332 97.4123 164.472 97.0203 164.752C96.6376 165.032 96.4463 165.387 96.4463 165.816C96.4463 166.255 96.6143 166.605 96.9503 166.866C97.2956 167.118 97.7296 167.244 98.2523 167.244ZM104.461 170.52C104.041 170.52 103.659 170.441 103.313 170.282L103.565 169.386C103.808 169.507 104.093 169.568 104.419 169.568C104.662 169.568 104.863 169.521 105.021 169.428C105.18 169.335 105.329 169.167 105.469 168.924L105.889 168.028L102.739 160.762H103.901L106.435 166.782L108.829 160.762H109.963L106.659 168.812C106.417 169.409 106.118 169.839 105.763 170.1C105.409 170.371 104.975 170.511 104.461 170.52ZM113.477 168.168C112.964 168.168 112.441 168.075 111.909 167.888C111.386 167.701 110.91 167.435 110.481 167.09L111.027 166.32C111.858 166.927 112.674 167.23 113.477 167.23C113.953 167.23 114.336 167.127 114.625 166.922C114.924 166.717 115.073 166.441 115.073 166.096C115.073 165.853 114.994 165.653 114.835 165.494C114.676 165.326 114.476 165.195 114.233 165.102C114 165.009 113.673 164.901 113.253 164.78C112.366 164.528 111.741 164.253 111.377 163.954C111.013 163.646 110.831 163.235 110.831 162.722C110.831 162.078 111.069 161.565 111.545 161.182C112.021 160.79 112.628 160.594 113.365 160.594C113.804 160.594 114.247 160.669 114.695 160.818C115.143 160.958 115.563 161.154 115.955 161.406L115.451 162.218C114.732 161.761 114.037 161.532 113.365 161.532C112.936 161.532 112.581 161.625 112.301 161.812C112.021 161.999 111.881 162.26 111.881 162.596C111.881 162.801 111.942 162.969 112.063 163.1C112.184 163.231 112.366 163.347 112.609 163.45C112.852 163.553 113.234 163.688 113.757 163.856C114.27 164.015 114.686 164.169 115.003 164.318C115.32 164.467 115.586 164.677 115.801 164.948C116.016 165.209 116.123 165.555 116.123 165.984C116.123 166.637 115.871 167.165 115.367 167.566C114.872 167.967 114.242 168.168 113.477 168.168Z" fill="#CBD4D8"/>
<path d="M35.584 208V199.418H32.35V198.382H39.91V199.418H36.676V208H35.584ZM44.8058 200.594C46.4158 200.594 47.5218 201.728 47.5218 203.394V208H46.4718V203.534C46.4718 202.344 45.7298 201.532 44.6658 201.532C43.4338 201.532 42.4258 202.372 42.4258 203.394V208H41.3758V198.214H42.4258V201.91C42.8458 201.14 43.7698 200.594 44.8058 200.594ZM50.216 199.446C49.824 199.446 49.516 199.124 49.516 198.746C49.516 198.382 49.824 198.06 50.216 198.06C50.594 198.06 50.902 198.382 50.902 198.746C50.902 199.124 50.594 199.446 50.216 199.446ZM49.684 208V200.762H50.734V208H49.684ZM55.3103 208.168C54.3023 208.168 53.1823 207.79 52.3143 207.09L52.8603 206.32C53.6863 206.922 54.5123 207.23 55.3103 207.23C56.2623 207.23 56.9063 206.782 56.9063 206.096C56.9063 205.312 56.0663 205.06 55.0863 204.78C53.3363 204.276 52.6643 203.758 52.6643 202.722C52.6643 201.406 53.7563 200.594 55.1983 200.594C56.0943 200.594 57.0183 200.902 57.7883 201.406L57.2843 202.218C56.5563 201.756 55.8423 201.532 55.1983 201.532C54.3863 201.532 53.7143 201.896 53.7143 202.596C53.7143 203.226 54.2463 203.422 55.5903 203.856C56.7523 204.22 57.9563 204.612 57.9563 205.984C57.9563 207.314 56.8083 208.168 55.3103 208.168ZM63.7194 208V198.382H64.8114L68.3814 205.088L71.9514 198.382H73.0434V208H71.9514V200.734L68.3814 207.44L64.8114 200.734V208H63.7194ZM78.7924 208.168C76.7344 208.168 75.0544 206.46 75.0544 204.374C75.0544 202.288 76.7344 200.594 78.7924 200.594C80.8364 200.594 82.5164 202.288 82.5164 204.374C82.5164 206.46 80.8364 208.168 78.7924 208.168ZM78.7924 207.23C80.2344 207.23 81.4244 205.942 81.4244 204.374C81.4244 202.806 80.2344 201.532 78.7924 201.532C77.3364 201.532 76.1464 202.806 76.1464 204.374C76.1464 205.942 77.3364 207.23 78.7924 207.23ZM87.655 200.594C89.265 200.594 90.371 201.728 90.371 203.394V208H89.321V203.534C89.321 202.344 88.579 201.532 87.515 201.532C86.283 201.532 85.275 202.372 85.275 203.394V208H84.225V200.762H85.275V201.91C85.695 201.14 86.619 200.594 87.655 200.594ZM95.3332 206.936L95.8512 207.706C95.4732 208 94.9972 208.168 94.5072 208.168C93.4712 208.168 92.7432 207.398 92.7432 206.32V201.7H91.6092V200.762H92.7432V198.774H93.7932V200.762H95.5712V201.7H93.7932V206.32C93.7932 206.852 94.1572 207.23 94.5772 207.23C94.8992 207.23 95.1792 207.104 95.3332 206.936ZM100.689 200.594C102.299 200.594 103.405 201.728 103.405 203.394V208H102.355V203.534C102.355 202.344 101.613 201.532 100.549 201.532C99.3174 201.532 98.3094 202.372 98.3094 203.394V208H97.2594V198.214H98.3094V201.91C98.7294 201.14 99.6534 200.594 100.689 200.594Z" fill="#CBD4D8"/>
<path d="M34.618 246.964H39.868V248H33.526V238.382H34.618V246.964ZM43.9248 240.594C45.8988 240.594 46.8648 241.84 46.8648 243.59V248H45.8148V246.866C45.2968 247.72 44.2188 248.168 43.2668 248.168C41.7408 248.168 40.6208 247.286 40.6208 245.858C40.6208 244.416 41.9088 243.45 43.4628 243.45C44.2468 243.45 45.0728 243.618 45.8148 243.856V243.59C45.8148 242.61 45.4228 241.49 43.8548 241.49C43.1268 241.49 42.3988 241.812 41.7408 242.148L41.3208 241.294C42.3568 240.776 43.2248 240.594 43.9248 240.594ZM43.4488 247.244C44.4008 247.244 45.5348 246.754 45.8148 245.732V244.626C45.1568 244.444 44.4148 244.332 43.6308 244.332C42.5528 244.332 41.6428 244.948 41.6428 245.816C41.6428 246.712 42.4268 247.244 43.4488 247.244ZM51.2678 248.168C50.2598 248.168 49.1398 247.79 48.2718 247.09L48.8178 246.32C49.6438 246.922 50.4698 247.23 51.2678 247.23C52.2198 247.23 52.8638 246.782 52.8638 246.096C52.8638 245.312 52.0238 245.06 51.0438 244.78C49.2938 244.276 48.6218 243.758 48.6218 242.722C48.6218 241.406 49.7138 240.594 51.1558 240.594C52.0518 240.594 52.9758 240.902 53.7458 241.406L53.2418 242.218C52.5138 241.756 51.7998 241.532 51.1558 241.532C50.3438 241.532 49.6718 241.896 49.6718 242.596C49.6718 243.226 50.2038 243.422 51.5478 243.856C52.7098 244.22 53.9138 244.612 53.9138 245.984C53.9138 247.314 52.7658 248.168 51.2678 248.168ZM58.4133 246.936L58.9313 247.706C58.5533 248 58.0773 248.168 57.5873 248.168C56.5513 248.168 55.8233 247.398 55.8233 246.32V241.7H54.6893V240.762H55.8233V238.774H56.8733V240.762H58.6513V241.7H56.8733V246.32C56.8733 246.852 57.2373 247.23 57.6573 247.23C57.9793 247.23 58.2593 247.104 58.4133 246.936ZM64.403 248V238.382H65.495L69.065 245.088L72.635 238.382H73.727V248H72.635V240.734L69.065 247.44L65.495 240.734V248H64.403ZM79.476 248.168C77.418 248.168 75.738 246.46 75.738 244.374C75.738 242.288 77.418 240.594 79.476 240.594C81.52 240.594 83.2 242.288 83.2 244.374C83.2 246.46 81.52 248.168 79.476 248.168ZM79.476 247.23C80.918 247.23 82.108 245.942 82.108 244.374C82.108 242.806 80.918 241.532 79.476 241.532C78.02 241.532 76.83 242.806 76.83 244.374C76.83 245.942 78.02 247.23 79.476 247.23ZM88.3386 240.594C89.9486 240.594 91.0546 241.728 91.0546 243.394V248H90.0046V243.534C90.0046 242.344 89.2626 241.532 88.1986 241.532C86.9666 241.532 85.9586 242.372 85.9586 243.394V248H84.9086V240.762H85.9586V241.91C86.3786 241.14 87.3026 240.594 88.3386 240.594ZM96.0168 246.936L96.5348 247.706C96.1568 248 95.6808 248.168 95.1908 248.168C94.1548 248.168 93.4268 247.398 93.4268 246.32V241.7H92.2928V240.762H93.4268V238.774H94.4768V240.762H96.2548V241.7H94.4768V246.32C94.4768 246.852 94.8408 247.23 95.2608 247.23C95.5828 247.23 95.8628 247.104 96.0168 246.936ZM101.373 240.594C102.983 240.594 104.089 241.728 104.089 243.394V248H103.039V243.534C103.039 242.344 102.297 241.532 101.233 241.532C100.001 241.532 98.993 242.372 98.993 243.394V248H97.943V238.214H98.993V241.91C99.413 241.14 100.337 240.594 101.373 240.594Z" fill="#CBD4D8"/>
<path d="M241.601 28.14V32.14H248.881V34.02H241.601V40H239.561V26.26H249.661V28.14H241.601ZM256.331 38.6C256.891 38.6 257.458 38.4867 258.031 38.26C258.618 38.0333 259.071 37.7533 259.391 37.42L260.551 38.64C260.111 39.12 259.491 39.5067 258.691 39.8C257.905 40.0933 257.131 40.24 256.371 40.24C255.425 40.24 254.538 40.0067 253.711 39.54C252.898 39.0733 252.245 38.4267 251.751 37.6C251.271 36.76 251.031 35.8267 251.031 34.8C251.031 33.7867 251.265 32.8733 251.731 32.06C252.198 31.2333 252.825 30.5867 253.611 30.12C254.411 29.6533 255.285 29.42 256.231 29.42C257.271 29.42 258.165 29.6667 258.911 30.16C259.671 30.6533 260.245 31.3533 260.631 32.26C261.031 33.1667 261.231 34.2333 261.231 35.46H252.971C253.091 36.3933 253.451 37.1533 254.051 37.74C254.665 38.3133 255.425 38.6 256.331 38.6ZM256.271 31.06C255.445 31.06 254.725 31.3267 254.111 31.86C253.511 32.3933 253.138 33.1067 252.991 34H259.311C259.205 33.1333 258.885 32.4267 258.351 31.88C257.831 31.3333 257.138 31.06 256.271 31.06ZM269.05 29.42C269.943 29.42 270.75 29.6533 271.47 30.12C272.19 30.5733 272.757 31.2133 273.17 32.04C273.583 32.8533 273.79 33.78 273.79 34.82C273.79 35.86 273.583 36.7933 273.17 37.62C272.757 38.4467 272.19 39.0933 271.47 39.56C270.75 40.0133 269.943 40.24 269.05 40.24C268.25 40.24 267.53 40.06 266.89 39.7C266.25 39.34 265.73 38.8267 265.33 38.16V40H263.35V26.02H265.33V31.5C265.73 30.8333 266.25 30.32 266.89 29.96C267.53 29.6 268.25 29.42 269.05 29.42ZM268.57 38.52C269.183 38.52 269.737 38.3667 270.23 38.06C270.723 37.74 271.103 37.3 271.37 36.74C271.65 36.1667 271.79 35.5267 271.79 34.82C271.79 34.1133 271.65 33.48 271.37 32.92C271.103 32.36 270.723 31.9267 270.23 31.62C269.737 31.3 269.183 31.14 268.57 31.14C267.957 31.14 267.403 31.3 266.91 31.62C266.43 31.9267 266.05 32.36 265.77 32.92C265.503 33.48 265.37 34.1133 265.37 34.82C265.37 35.5267 265.503 36.1667 265.77 36.74C266.05 37.3 266.43 37.74 266.91 38.06C267.403 38.3667 267.957 38.52 268.57 38.52Z" fill="#2EC0FF"/>
<path d="M296.599 38.34L301.639 34.18C302.545 33.42 303.192 32.7267 303.579 32.1C303.979 31.4733 304.179 30.8467 304.179 30.22C304.179 29.5 303.925 28.9267 303.419 28.5C302.912 28.06 302.299 27.84 301.579 27.84C300.859 27.84 300.212 28.0133 299.639 28.36C299.065 28.7067 298.525 29.2133 298.019 29.88L296.659 28.68C297.939 26.9067 299.605 26.02 301.659 26.02C302.512 26.02 303.285 26.1933 303.979 26.54C304.685 26.8867 305.239 27.38 305.639 28.02C306.052 28.6467 306.259 29.3667 306.259 30.18C306.259 31.1 306.012 31.96 305.519 32.76C305.025 33.56 304.192 34.44 303.019 35.4L299.799 38.12H306.379V40H296.599V38.34ZM314.28 40.24C313.147 40.24 312.133 39.94 311.24 39.34C310.347 38.7267 309.647 37.88 309.14 36.8C308.647 35.72 308.4 34.4933 308.4 33.12C308.4 31.7467 308.647 30.5267 309.14 29.46C309.647 28.38 310.347 27.54 311.24 26.94C312.133 26.3267 313.147 26.02 314.28 26.02C315.4 26.02 316.4 26.3267 317.28 26.94C318.173 27.54 318.867 28.38 319.36 29.46C319.867 30.5267 320.12 31.7467 320.12 33.12C320.12 34.4933 319.867 35.72 319.36 36.8C318.867 37.88 318.18 38.7267 317.3 39.34C316.42 39.94 315.413 40.24 314.28 40.24ZM314.28 38.38C315.013 38.38 315.667 38.16 316.24 37.72C316.813 37.2667 317.26 36.64 317.58 35.84C317.9 35.04 318.06 34.1333 318.06 33.12C318.06 32.1067 317.9 31.2067 317.58 30.42C317.26 29.62 316.813 29 316.24 28.56C315.667 28.1067 315.013 27.88 314.28 27.88C313.547 27.88 312.887 28.1067 312.3 28.56C311.727 29 311.273 29.62 310.94 30.42C310.62 31.2067 310.46 32.1067 310.46 33.12C310.46 34.1333 310.62 35.04 310.94 35.84C311.273 36.64 311.727 37.2667 312.3 37.72C312.887 38.16 313.547 38.38 314.28 38.38ZM321.765 38.34L326.805 34.18C327.712 33.42 328.358 32.7267 328.745 32.1C329.145 31.4733 329.345 30.8467 329.345 30.22C329.345 29.5 329.092 28.9267 328.585 28.5C328.078 28.06 327.465 27.84 326.745 27.84C326.025 27.84 325.378 28.0133 324.805 28.36C324.232 28.7067 323.692 29.2133 323.185 29.88L321.825 28.68C323.105 26.9067 324.772 26.02 326.825 26.02C327.678 26.02 328.452 26.1933 329.145 26.54C329.852 26.8867 330.405 27.38 330.805 28.02C331.218 28.6467 331.425 29.3667 331.425 30.18C331.425 31.1 331.178 31.96 330.685 32.76C330.192 33.56 329.358 34.44 328.185 35.4L324.965 38.12H331.545V40H321.765V38.34ZM338.206 40.24C337.086 40.24 336.08 40.0267 335.186 39.6C334.306 39.1733 333.586 38.6067 333.026 37.9L334.326 36.56C334.806 37.1333 335.373 37.5867 336.026 37.92C336.68 38.2533 337.393 38.42 338.166 38.42C339.046 38.42 339.753 38.2067 340.286 37.78C340.82 37.3533 341.086 36.7933 341.086 36.1C341.086 35.3933 340.8 34.86 340.226 34.5C339.666 34.1267 338.873 33.9467 337.846 33.96H336.346V32.16L337.846 32.18C338.74 32.18 339.453 31.9933 339.986 31.62C340.533 31.2467 340.806 30.72 340.806 30.04C340.806 29.4 340.54 28.8733 340.006 28.46C339.473 28.0467 338.806 27.84 338.006 27.84C337.326 27.84 336.706 28 336.146 28.32C335.586 28.6267 335.053 29.08 334.546 29.68L333.286 28.44C334.526 26.8267 336.146 26.02 338.146 26.02C339.066 26.02 339.88 26.18 340.586 26.5C341.306 26.82 341.86 27.2667 342.246 27.84C342.646 28.4 342.846 29.04 342.846 29.76C342.846 30.56 342.6 31.2333 342.106 31.78C341.626 32.3267 341 32.72 340.226 32.96C341.026 33.1467 341.713 33.52 342.286 34.08C342.86 34.6267 343.146 35.3467 343.146 36.24C343.146 37.0133 342.94 37.7067 342.526 38.32C342.113 38.92 341.533 39.3933 340.786 39.74C340.04 40.0733 339.18 40.24 338.206 40.24Z" fill="#2EC0FF"/>
<path d="M387.722 28.88L382.711 34L387.722 39.12C388.007 39.4097 388.459 39.4007 388.733 39.1C389.007 38.7993 388.999 38.3208 388.714 38.0311L384.767 34L388.714 29.9645C388.999 29.6748 389.007 29.1963 388.733 28.8956C388.459 28.5949 388.007 28.5859 387.722 28.8756L387.722 28.88Z" fill="#CBD4D8"/>
<path d="M421.187 37.4934L418.804 35.1111C418.732 35.0261 418.694 34.9167 418.698 34.8049C418.702 34.693 418.749 34.5869 418.828 34.5078C418.907 34.4286 419.013 34.3823 419.125 34.3779C419.237 34.3736 419.346 34.4117 419.431 34.4845L421.187 36.2222L425.027 32.3822C425.112 32.3094 425.221 32.2714 425.333 32.2757C425.445 32.28 425.551 32.3264 425.63 32.4056C425.709 32.4847 425.756 32.5908 425.76 32.7027C425.764 32.8145 425.726 32.9239 425.653 33.0089L421.187 37.4934Z" fill="#CBD4D8"/>
<path d="M428.333 28.6667H426.889V29.5556H428.222V39.3334H415.778V29.5556H417.111V28.6667H415.667C415.563 28.6684 415.46 28.6906 415.365 28.732C415.27 28.7734 415.183 28.8331 415.111 28.9078C415.039 28.9825 414.982 29.0707 414.944 29.1674C414.906 29.264 414.887 29.3672 414.889 29.4711V39.4178C414.887 39.5217 414.906 39.6249 414.944 39.7216C414.982 39.8182 415.039 39.9064 415.111 39.9811C415.183 40.0558 415.27 40.1156 415.365 40.157C415.46 40.1983 415.563 40.2205 415.667 40.2222H428.333C428.437 40.2205 428.54 40.1983 428.635 40.157C428.73 40.1156 428.817 40.0558 428.889 39.9811C428.961 39.9064 429.018 39.8182 429.056 39.7216C429.094 39.6249 429.113 39.5217 429.111 39.4178V29.4711C429.113 29.3672 429.094 29.264 429.056 29.1674C429.018 29.0707 428.961 28.9825 428.889 28.9078C428.817 28.8331 428.73 28.7734 428.635 28.732C428.54 28.6906 428.437 28.6684 428.333 28.6667Z" fill="#CBD4D8"/>
<path d="M418.444 30.4445C418.562 30.4445 418.675 30.3976 418.759 30.3143C418.842 30.2309 418.889 30.1179 418.889 30V27.3334C418.889 27.2155 418.842 27.1024 418.759 27.0191C418.675 26.9357 418.562 26.8889 418.444 26.8889C418.327 26.8889 418.214 26.9357 418.13 27.0191C418.047 27.1024 418 27.2155 418 27.3334V30C418 30.1179 418.047 30.2309 418.13 30.3143C418.214 30.3976 418.327 30.4445 418.444 30.4445Z" fill="#CBD4D8"/>
<path d="M425.556 30.4445C425.673 30.4445 425.786 30.3976 425.87 30.3143C425.953 30.2309 426 30.1179 426 30V27.3334C426 27.2155 425.953 27.1024 425.87 27.0191C425.786 26.9357 425.673 26.8889 425.556 26.8889C425.438 26.8889 425.325 26.9357 425.241 27.0191C425.158 27.1024 425.111 27.2155 425.111 27.3334V30C425.111 30.1179 425.158 30.2309 425.241 30.3143C425.325 30.3976 425.438 30.4445 425.556 30.4445Z" fill="#CBD4D8"/>
<path d="M424.222 28.6667H419.778V29.5556H424.222V28.6667Z" fill="#CBD4D8"/>
<path d="M456.278 39.12L461.289 34L456.278 28.88C455.993 28.5903 455.541 28.5993 455.267 28.9C454.993 29.2007 455.001 29.6792 455.286 29.9689L459.233 34L455.286 38.0355C455.001 38.3252 454.993 38.8037 455.267 39.1044C455.541 39.4051 455.993 39.4141 456.278 39.1244L456.278 39.12Z" fill="#CBD4D8"/>
<path d="M238.279 72.143C237.525 72.143 236.823 72.0217 236.173 71.779C235.531 71.5277 234.959 71.168 234.457 70.7L235.406 69.543C236.298 70.349 237.278 70.752 238.344 70.752C238.864 70.752 239.271 70.6393 239.566 70.414C239.86 70.1887 240.008 69.907 240.008 69.569C240.008 69.3263 239.934 69.1313 239.787 68.984C239.648 68.828 239.436 68.698 239.15 68.594C238.872 68.4813 238.469 68.3643 237.941 68.243C237.247 68.0783 236.68 67.9007 236.238 67.71C235.796 67.5107 235.449 67.2463 235.198 66.917C234.946 66.579 234.821 66.1413 234.821 65.604C234.821 65.0927 234.955 64.6333 235.224 64.226C235.501 63.81 235.882 63.4893 236.368 63.264C236.853 63.03 237.403 62.913 238.019 62.913C239.31 62.913 240.437 63.329 241.399 64.161L240.515 65.344C240.125 65.006 239.713 64.7503 239.28 64.577C238.846 64.395 238.409 64.304 237.967 64.304C237.525 64.304 237.161 64.4167 236.875 64.642C236.597 64.8673 236.459 65.1403 236.459 65.461C236.459 65.695 236.528 65.89 236.667 66.046C236.814 66.202 237.031 66.332 237.317 66.436C237.611 66.54 238.014 66.6527 238.526 66.774C239.557 67.008 240.333 67.32 240.853 67.71C241.373 68.0913 241.633 68.659 241.633 69.413C241.633 69.9503 241.498 70.427 241.23 70.843C240.97 71.2503 240.588 71.571 240.086 71.805C239.583 72.0303 238.981 72.143 238.279 72.143ZM249.16 65.279V72H247.574V71.09C247.366 71.4107 247.075 71.6707 246.703 71.87C246.33 72.0607 245.923 72.156 245.481 72.156C244.995 72.156 244.562 72.0477 244.181 71.831C243.808 71.6057 243.513 71.298 243.297 70.908C243.089 70.5093 242.985 70.0587 242.985 69.556V65.279H244.532V69.244C244.532 69.7033 244.662 70.0803 244.922 70.375C245.182 70.661 245.52 70.804 245.936 70.804C246.395 70.804 246.781 70.6653 247.093 70.388C247.413 70.102 247.574 69.7553 247.574 69.348V65.279H249.16Z" fill="#AEB8BC"/>
<path d="M269.471 63.069H271.083L274.034 68.516L276.972 63.069H278.597V72H276.972V66.033L274.034 71.48L271.083 66.033V72H269.471V63.069ZM283.796 72.156C283.146 72.156 282.544 72 281.989 71.688C281.434 71.3673 280.992 70.9383 280.663 70.401C280.342 69.855 280.182 69.2657 280.182 68.633C280.182 68.0003 280.342 67.4153 280.663 66.878C280.992 66.3407 281.434 65.916 281.989 65.604C282.544 65.2833 283.146 65.123 283.796 65.123C284.446 65.123 285.044 65.2833 285.59 65.604C286.145 65.916 286.582 66.3407 286.903 66.878C287.224 67.4153 287.384 68.0003 287.384 68.633C287.384 69.2657 287.224 69.855 286.903 70.401C286.582 70.9383 286.145 71.3673 285.59 71.688C285.044 72 284.446 72.156 283.796 72.156ZM283.796 70.804C284.16 70.804 284.498 70.7087 284.81 70.518C285.122 70.3187 285.369 70.0543 285.551 69.725C285.742 69.387 285.837 69.023 285.837 68.633C285.837 68.243 285.746 67.8833 285.564 67.554C285.382 67.2247 285.131 66.9647 284.81 66.774C284.498 66.5747 284.16 66.475 283.796 66.475C283.423 66.475 283.081 66.5747 282.769 66.774C282.457 66.9647 282.206 67.2247 282.015 67.554C281.833 67.8833 281.742 68.243 281.742 68.633C281.742 69.023 281.833 69.387 282.015 69.725C282.206 70.0543 282.457 70.3187 282.769 70.518C283.081 70.7087 283.423 70.804 283.796 70.804Z" fill="#AEB8BC"/>
<path d="M309.282 64.551H306.422V63.069H313.754V64.551H310.907V72H309.282V64.551ZM321.064 65.279V72H319.478V71.09C319.27 71.4107 318.98 71.6707 318.607 71.87C318.235 72.0607 317.827 72.156 317.385 72.156C316.9 72.156 316.467 72.0477 316.085 71.831C315.713 71.6057 315.418 71.298 315.201 70.908C314.993 70.5093 314.889 70.0587 314.889 69.556V65.279H316.436V69.244C316.436 69.7033 316.566 70.0803 316.826 70.375C317.086 70.661 317.424 70.804 317.84 70.804C318.3 70.804 318.685 70.6653 318.997 70.388C319.318 70.102 319.478 69.7553 319.478 69.348V65.279H321.064Z" fill="#AEB8BC"/>
<path d="M339.578 63.069H341.359L343.27 69.465L345.389 63.069H347.144L349.25 69.465L351.174 63.069H352.942L350.121 72H348.509L346.273 65.37L344.024 72H342.412L339.578 63.069ZM357.209 70.882C357.547 70.882 357.889 70.817 358.236 70.687C358.583 70.557 358.864 70.388 359.081 70.18L359.991 71.116C359.705 71.4193 359.302 71.6707 358.782 71.87C358.262 72.0607 357.755 72.156 357.261 72.156C356.62 72.156 356.026 72.0043 355.48 71.701C354.943 71.3977 354.514 70.9773 354.193 70.44C353.881 69.9027 353.725 69.296 353.725 68.62C353.725 67.9527 353.877 67.3547 354.18 66.826C354.483 66.2973 354.899 65.8813 355.428 65.578C355.957 65.2747 356.537 65.123 357.17 65.123C358.201 65.123 359.007 65.4783 359.588 66.189C360.177 66.8997 360.472 67.8703 360.472 69.101H355.259C355.346 69.6383 355.562 70.0717 355.909 70.401C356.264 70.7217 356.698 70.882 357.209 70.882ZM357.183 66.397C356.706 66.397 356.295 66.5487 355.948 66.852C355.601 67.1467 355.376 67.5453 355.272 68.048H358.938C358.86 67.554 358.669 67.1553 358.366 66.852C358.071 66.5487 357.677 66.397 357.183 66.397Z" fill="#AEB8BC"/>
<path d="M381.282 64.551H378.422V63.069H385.754V64.551H382.907V72H381.282V64.551ZM390.698 65.123C391.184 65.123 391.617 65.2357 391.998 65.461C392.38 65.6777 392.674 65.9853 392.882 66.384C393.099 66.774 393.207 67.2203 393.207 67.723V72H391.66V68.035C391.66 67.5757 391.53 67.203 391.27 66.917C391.01 66.6223 390.672 66.475 390.256 66.475C389.797 66.475 389.407 66.618 389.086 66.904C388.774 67.1813 388.618 67.5237 388.618 67.931V72H387.032V62.913H388.618V66.189C388.826 65.8683 389.112 65.6127 389.476 65.422C389.849 65.2227 390.256 65.123 390.698 65.123Z" fill="#AEB8BC"/>
<path d="M418.009 64.551V66.813H422.611V68.295H418.009V72H416.384V63.069H423.105V64.551H418.009ZM426.091 66.553C426.308 66.111 426.628 65.7643 427.053 65.513C427.478 65.253 427.959 65.123 428.496 65.123V66.475C427.777 66.475 427.196 66.67 426.754 67.06C426.312 67.45 426.091 67.9657 426.091 68.607V72H424.505V65.279H426.091V66.553Z" fill="#AEB8BC"/>
<path d="M454.583 72.143C453.829 72.143 453.127 72.0217 452.477 71.779C451.836 71.5277 451.264 71.168 450.761 70.7L451.71 69.543C452.603 70.349 453.582 70.752 454.648 70.752C455.168 70.752 455.576 70.6393 455.87 70.414C456.165 70.1887 456.312 69.907 456.312 69.569C456.312 69.3263 456.239 69.1313 456.091 68.984C455.953 68.828 455.74 68.698 455.454 68.594C455.177 68.4813 454.774 68.3643 454.245 68.243C453.552 68.0783 452.984 67.9007 452.542 67.71C452.1 67.5107 451.754 67.2463 451.502 66.917C451.251 66.579 451.125 66.1413 451.125 65.604C451.125 65.0927 451.26 64.6333 451.528 64.226C451.806 63.81 452.187 63.4893 452.672 63.264C453.158 63.03 453.708 62.913 454.323 62.913C455.615 62.913 456.741 63.329 457.703 64.161L456.819 65.344C456.429 65.006 456.018 64.7503 455.584 64.577C455.151 64.395 454.713 64.304 454.271 64.304C453.829 64.304 453.465 64.4167 453.179 64.642C452.902 64.8673 452.763 65.1403 452.763 65.461C452.763 65.695 452.833 65.89 452.971 66.046C453.119 66.202 453.335 66.332 453.621 66.436C453.916 66.54 454.319 66.6527 454.83 66.774C455.862 67.008 456.637 67.32 457.157 67.71C457.677 68.0913 457.937 68.659 457.937 69.413C457.937 69.9503 457.803 70.427 457.534 70.843C457.274 71.2503 456.893 71.571 456.39 71.805C455.888 72.0303 455.285 72.143 454.583 72.143ZM462.123 65.123C463.007 65.123 463.705 65.383 464.216 65.903C464.736 66.4143 464.996 67.099 464.996 67.957V72H463.449V71.207C463.207 71.5017 462.895 71.7357 462.513 71.909C462.132 72.0737 461.742 72.156 461.343 72.156C460.867 72.156 460.438 72.0693 460.056 71.896C459.684 71.714 459.389 71.4627 459.172 71.142C458.956 70.8127 458.847 70.4357 458.847 70.011C458.847 69.5777 458.969 69.192 459.211 68.854C459.454 68.516 459.783 68.2517 460.199 68.061C460.615 67.8703 461.075 67.775 461.577 67.775C462.175 67.775 462.799 67.892 463.449 68.126V67.957C463.449 67.515 463.315 67.151 463.046 66.865C462.786 66.5703 462.375 66.423 461.811 66.423C461.274 66.423 460.667 66.592 459.991 66.93L459.445 65.825C460.399 65.357 461.291 65.123 462.123 65.123ZM461.694 70.999C462.102 70.999 462.474 70.8993 462.812 70.7C463.159 70.5007 463.371 70.232 463.449 69.894V69.127C462.929 68.9623 462.383 68.88 461.811 68.88C461.404 68.88 461.062 68.984 460.784 69.192C460.507 69.3913 460.368 69.647 460.368 69.959C460.368 70.271 460.494 70.5223 460.745 70.713C460.997 70.9037 461.313 70.999 461.694 70.999Z" fill="#AEB8BC"/>
<path d="M385.989 98.304L384.429 99.318L383.987 98.564L386.184 97.069H387.003V106H385.989V98.304Z" fill="#CBD4D8"/>
<path d="M418.817 105.155L422.08 102.373C422.704 101.836 423.154 101.346 423.432 100.904C423.718 100.453 423.861 100.003 423.861 99.552C423.861 99.2053 423.774 98.902 423.601 98.642C423.427 98.3733 423.198 98.1697 422.912 98.031C422.626 97.8923 422.322 97.823 422.002 97.823C421.508 97.823 421.066 97.9443 420.676 98.187C420.294 98.4297 419.939 98.772 419.61 99.214L418.895 98.629C419.701 97.485 420.749 96.913 422.041 96.913C422.561 96.913 423.037 97.0213 423.471 97.238C423.904 97.4547 424.246 97.7623 424.498 98.161C424.758 98.5597 424.888 99.019 424.888 99.539C424.888 100.137 424.723 100.705 424.394 101.242C424.073 101.771 423.536 102.36 422.782 103.01L420.442 105.038H424.979V106H418.817V105.155Z" fill="#CBD4D8"/>
<path d="M457.907 106.156C457.205 106.156 456.572 106.017 456.009 105.74C455.454 105.454 455.003 105.081 454.657 104.622L455.359 103.959C455.662 104.358 456.03 104.67 456.464 104.895C456.897 105.12 457.378 105.233 457.907 105.233C458.531 105.233 459.033 105.077 459.415 104.765C459.796 104.453 459.987 104.041 459.987 103.53C459.987 103.01 459.783 102.616 459.376 102.347C458.968 102.078 458.405 101.944 457.686 101.944H456.737V101.008L457.699 101.021C458.314 101.03 458.817 100.895 459.207 100.618C459.597 100.332 459.792 99.942 459.792 99.448C459.792 98.98 459.601 98.5943 459.22 98.291C458.847 97.9877 458.379 97.836 457.816 97.836C457.348 97.836 456.927 97.9443 456.555 98.161C456.182 98.3777 455.827 98.6897 455.489 99.097L454.813 98.486C455.601 97.4373 456.62 96.913 457.868 96.913C458.431 96.913 458.934 97.017 459.376 97.225C459.826 97.4243 460.177 97.7103 460.429 98.083C460.689 98.447 460.819 98.863 460.819 99.331C460.819 99.8683 460.654 100.315 460.325 100.67C460.004 101.025 459.592 101.277 459.09 101.424C459.618 101.545 460.069 101.788 460.442 102.152C460.823 102.516 461.014 102.993 461.014 103.582C461.014 104.076 460.884 104.518 460.624 104.908C460.364 105.298 459.995 105.606 459.519 105.831C459.051 106.048 458.513 106.156 457.907 106.156Z" fill="#CBD4D8"/>
<path d="M243.169 143.829H238.71L238.58 142.984L243.013 137.069H244.183V142.906H245.522V143.829H244.183V146H243.169V143.829ZM243.169 142.906V138.291L239.737 142.906H243.169Z" fill="#CBD4D8"/>
<path d="M278.058 146.156C277.399 146.156 276.806 146.03 276.277 145.779C275.757 145.528 275.302 145.181 274.912 144.739L275.575 143.998C276.338 144.83 277.178 145.246 278.097 145.246C278.504 145.246 278.868 145.159 279.189 144.986C279.51 144.813 279.757 144.574 279.93 144.271C280.112 143.968 280.203 143.63 280.203 143.257C280.203 142.685 280.004 142.221 279.605 141.866C279.206 141.511 278.695 141.333 278.071 141.333C277.36 141.333 276.697 141.563 276.082 142.022L275.341 141.658L275.471 137.069H280.749V138.031H276.459L276.368 141.034C276.957 140.635 277.594 140.436 278.279 140.436C278.825 140.436 279.319 140.549 279.761 140.774C280.212 140.991 280.567 141.311 280.827 141.736C281.096 142.152 281.23 142.646 281.23 143.218C281.23 143.799 281.091 144.314 280.814 144.765C280.545 145.207 280.168 145.549 279.683 145.792C279.206 146.035 278.665 146.156 278.058 146.156Z" fill="#CBD4D8"/>
<path d="M314.413 140.423C314.959 140.423 315.457 140.536 315.908 140.761C316.367 140.978 316.731 141.298 317 141.723C317.268 142.139 317.403 142.633 317.403 143.205C317.403 143.751 317.268 144.249 317 144.7C316.731 145.151 316.358 145.506 315.882 145.766C315.405 146.026 314.863 146.156 314.257 146.156C313.104 146.156 312.25 145.749 311.696 144.934C311.141 144.111 310.864 143.023 310.864 141.671C310.864 140.796 311.024 139.994 311.345 139.266C311.665 138.538 312.099 137.966 312.645 137.55C313.199 137.125 313.81 136.913 314.478 136.913C314.998 136.913 315.461 137.004 315.869 137.186C316.276 137.368 316.657 137.632 317.013 137.979L316.454 138.772C316.142 138.469 315.83 138.239 315.518 138.083C315.206 137.918 314.85 137.836 314.452 137.836C313.984 137.836 313.555 138.009 313.165 138.356C312.775 138.694 312.463 139.158 312.229 139.747C312.003 140.328 311.891 140.969 311.891 141.671V141.788C312.168 141.355 312.523 141.021 312.957 140.787C313.399 140.544 313.884 140.423 314.413 140.423ZM314.244 145.285C314.668 145.285 315.041 145.19 315.362 144.999C315.691 144.8 315.942 144.544 316.116 144.232C316.289 143.92 316.376 143.595 316.376 143.257C316.376 142.659 316.172 142.182 315.765 141.827C315.357 141.472 314.846 141.294 314.231 141.294C313.667 141.294 313.182 141.45 312.775 141.762C312.376 142.065 312.12 142.464 312.008 142.958C312.146 143.669 312.402 144.236 312.775 144.661C313.156 145.077 313.646 145.285 314.244 145.285Z" fill="#CBD4D8"/>
<path d="M351.827 138.031H346.991V137.069H353.036V137.836L349.188 146H348.018L351.827 138.031Z" fill="#CBD4D8"/>
<rect x="368" y="124" width="36" height="36" rx="4" fill="#2EC0FF"/>
<path d="M386.045 146.156C385.395 146.156 384.806 146.056 384.277 145.857C383.749 145.649 383.333 145.354 383.029 144.973C382.726 144.583 382.574 144.132 382.574 143.621C382.574 143.101 382.739 142.65 383.068 142.269C383.406 141.879 383.848 141.584 384.394 141.385C383.9 141.177 383.51 140.904 383.224 140.566C382.947 140.219 382.808 139.803 382.808 139.318C382.808 138.824 382.956 138.395 383.25 138.031C383.554 137.667 383.952 137.39 384.446 137.199C384.94 137.008 385.473 136.913 386.045 136.913C386.626 136.913 387.163 137.013 387.657 137.212C388.16 137.403 388.559 137.68 388.853 138.044C389.148 138.408 389.295 138.833 389.295 139.318C389.295 139.812 389.152 140.232 388.866 140.579C388.58 140.917 388.195 141.186 387.709 141.385C388.264 141.593 388.706 141.892 389.035 142.282C389.365 142.663 389.529 143.11 389.529 143.621C389.529 144.141 389.373 144.592 389.061 144.973C388.758 145.354 388.342 145.649 387.813 145.857C387.285 146.056 386.695 146.156 386.045 146.156ZM386.045 140.8C386.47 140.783 386.851 140.657 387.189 140.423C387.527 140.189 387.696 139.89 387.696 139.526C387.696 139.179 387.536 138.889 387.215 138.655C386.903 138.412 386.513 138.291 386.045 138.291C385.577 138.291 385.187 138.408 384.875 138.642C384.563 138.876 384.407 139.171 384.407 139.526C384.407 139.899 384.576 140.198 384.914 140.423C385.252 140.648 385.629 140.774 386.045 140.8ZM386.045 144.765C386.574 144.765 387.012 144.644 387.358 144.401C387.714 144.158 387.891 143.846 387.891 143.465C387.891 143.205 387.796 142.975 387.605 142.776C387.423 142.568 387.189 142.408 386.903 142.295C386.617 142.182 386.331 142.117 386.045 142.1C385.759 142.117 385.473 142.182 385.187 142.295C384.901 142.408 384.663 142.568 384.472 142.776C384.29 142.975 384.199 143.205 384.199 143.465C384.199 143.846 384.373 144.158 384.719 144.401C385.066 144.644 385.508 144.765 386.045 144.765Z" fill="black"/>
<rect x="394" y="124" width="10" height="36" fill="#2EC0FF"/>
<rect x="404" y="124" width="36" height="36" fill="#004B6B"/>
<path d="M421.841 136.913C422.993 136.913 423.847 137.325 424.402 138.148C424.956 138.963 425.234 140.046 425.234 141.398C425.234 142.273 425.073 143.075 424.753 143.803C424.432 144.531 423.994 145.107 423.44 145.532C422.894 145.948 422.287 146.156 421.62 146.156C421.1 146.156 420.636 146.065 420.229 145.883C419.821 145.701 419.44 145.437 419.085 145.09L419.644 144.297C419.956 144.6 420.268 144.834 420.58 144.999C420.892 145.155 421.247 145.233 421.646 145.233C422.114 145.233 422.543 145.064 422.933 144.726C423.323 144.379 423.63 143.916 423.856 143.335C424.09 142.746 424.207 142.1 424.207 141.398V141.281C423.929 141.714 423.57 142.052 423.128 142.295C422.694 142.529 422.213 142.646 421.685 142.646C421.139 142.646 420.636 142.538 420.177 142.321C419.726 142.096 419.366 141.775 419.098 141.359C418.829 140.934 418.695 140.436 418.695 139.864C418.695 139.318 418.829 138.82 419.098 138.369C419.366 137.918 419.739 137.563 420.216 137.303C420.692 137.043 421.234 136.913 421.841 136.913ZM421.867 141.775C422.43 141.775 422.911 141.623 423.31 141.32C423.717 141.008 423.977 140.605 424.09 140.111C423.951 139.4 423.691 138.837 423.31 138.421C422.937 137.996 422.452 137.784 421.854 137.784C421.429 137.784 421.052 137.884 420.723 138.083C420.402 138.274 420.155 138.525 419.982 138.837C419.808 139.149 419.722 139.474 419.722 139.812C419.722 140.41 419.925 140.887 420.333 141.242C420.74 141.597 421.251 141.775 421.867 141.775Z" fill="#CBD4D8"/>
<rect x="440" y="124" width="36" height="36" fill="#004B6B"/>
<path d="M453.545 138.304L451.985 139.318L451.543 138.564L453.74 137.069H454.559V146H453.545V138.304ZM460.327 146.156C459.608 146.156 458.966 145.961 458.403 145.571C457.84 145.172 457.398 144.622 457.077 143.92C456.765 143.218 456.609 142.421 456.609 141.528C456.609 140.635 456.765 139.842 457.077 139.149C457.398 138.447 457.84 137.901 458.403 137.511C458.966 137.112 459.608 136.913 460.327 136.913C461.038 136.913 461.675 137.112 462.238 137.511C462.801 137.901 463.239 138.447 463.551 139.149C463.872 139.842 464.032 140.635 464.032 141.528C464.032 142.421 463.872 143.218 463.551 143.92C463.239 144.622 462.801 145.172 462.238 145.571C461.683 145.961 461.046 146.156 460.327 146.156ZM460.327 145.22C460.847 145.22 461.311 145.064 461.718 144.752C462.125 144.431 462.442 143.994 462.667 143.439C462.892 142.876 463.005 142.239 463.005 141.528C463.005 140.817 462.892 140.185 462.667 139.63C462.442 139.067 462.125 138.629 461.718 138.317C461.311 138.005 460.847 137.849 460.327 137.849C459.807 137.849 459.343 138.005 458.936 138.317C458.529 138.629 458.208 139.067 457.974 139.63C457.749 140.185 457.636 140.817 457.636 141.528C457.636 142.239 457.749 142.876 457.974 143.439C458.208 143.994 458.529 144.431 458.936 144.752C459.343 145.064 459.807 145.22 460.327 145.22Z" fill="#CBD4D8"/>
<rect x="224" y="164" width="36" height="36" fill="#004B6B"/>
<path d="M239.716 178.304L238.156 179.318L237.714 178.564L239.911 177.069H240.73V186H239.716V178.304ZM244.262 178.304L242.702 179.318L242.26 178.564L244.457 177.069H245.276V186H244.262V178.304Z" fill="#CBD4D8"/>
<rect x="260" y="164" width="36" height="36" fill="#004B6B"/>
<path d="M274.363 178.304L272.803 179.318L272.361 178.564L274.558 177.069H275.377V186H274.363V178.304ZM277.09 185.155L280.353 182.373C280.977 181.836 281.428 181.346 281.705 180.904C281.991 180.453 282.134 180.003 282.134 179.552C282.134 179.205 282.047 178.902 281.874 178.642C281.701 178.373 281.471 178.17 281.185 178.031C280.899 177.892 280.596 177.823 280.275 177.823C279.781 177.823 279.339 177.944 278.949 178.187C278.568 178.43 278.212 178.772 277.883 179.214L277.168 178.629C277.974 177.485 279.023 176.913 280.314 176.913C280.834 176.913 281.311 177.021 281.744 177.238C282.177 177.455 282.52 177.762 282.771 178.161C283.031 178.56 283.161 179.019 283.161 179.539C283.161 180.137 282.996 180.705 282.667 181.242C282.346 181.771 281.809 182.36 281.055 183.01L278.715 185.038H283.252V186H277.09V185.155Z" fill="#CBD4D8"/>
<rect x="296.5" y="164.5" width="35" height="35" rx="3.5" stroke="#CBD4D8"/>
<rect x="296" y="164" width="36" height="36" fill="#004B6B"/>
<path d="M309.994 178.941L308.46 179.916L307.81 178.772L310.319 177.069H311.619V186H309.994V178.941ZM316.553 186.156C315.799 186.156 315.123 186.022 314.525 185.753C313.936 185.476 313.45 185.107 313.069 184.648L314.057 183.582C314.369 183.937 314.733 184.215 315.149 184.414C315.565 184.613 316.011 184.713 316.488 184.713C317.025 184.713 317.446 184.596 317.749 184.362C318.061 184.119 318.217 183.799 318.217 183.4C318.217 183.001 318.052 182.702 317.723 182.503C317.402 182.295 316.926 182.191 316.293 182.191L315.292 182.204V180.8H316.293C316.83 180.809 317.255 180.709 317.567 180.501C317.879 180.284 318.035 179.985 318.035 179.604C318.035 179.24 317.879 178.945 317.567 178.72C317.264 178.486 316.869 178.369 316.384 178.369C315.959 178.369 315.569 178.464 315.214 178.655C314.859 178.846 314.521 179.119 314.2 179.474L313.238 178.486C314.07 177.437 315.162 176.913 316.514 176.913C317.138 176.913 317.688 177.017 318.165 177.225C318.65 177.433 319.023 177.723 319.283 178.096C319.552 178.46 319.686 178.876 319.686 179.344C319.686 179.864 319.53 180.302 319.218 180.657C318.906 181.012 318.499 181.264 317.996 181.411C318.525 181.532 318.971 181.775 319.335 182.139C319.699 182.503 319.881 182.967 319.881 183.53C319.881 184.041 319.742 184.496 319.465 184.895C319.188 185.285 318.798 185.593 318.295 185.818C317.792 186.043 317.212 186.156 316.553 186.156Z" fill="#CBD4D8"/>
<rect x="332" y="164" width="36" height="36" fill="#004B6B"/>
<path d="M346.217 178.304L344.657 179.318L344.215 178.564L346.412 177.069H347.231V186H346.217V178.304ZM353.442 183.829H348.983L348.853 182.984L353.286 177.069H354.456V182.906H355.795V183.829H354.456V186H353.442V183.829ZM353.442 182.906V178.291L350.01 182.906H353.442Z" fill="#CBD4D8"/>
<rect x="368" y="164" width="36" height="36" fill="#004B6B"/>
<path d="M382.186 178.304L380.626 179.318L380.184 178.564L382.381 177.069H383.2V186H382.186V178.304ZM388.331 186.156C387.673 186.156 387.079 186.03 386.55 185.779C386.03 185.528 385.575 185.181 385.185 184.739L385.848 183.998C386.611 184.83 387.452 185.246 388.37 185.246C388.778 185.246 389.142 185.159 389.462 184.986C389.783 184.813 390.03 184.574 390.203 184.271C390.385 183.968 390.476 183.63 390.476 183.257C390.476 182.685 390.277 182.221 389.878 181.866C389.48 181.511 388.968 181.333 388.344 181.333C387.634 181.333 386.971 181.563 386.355 182.022L385.614 181.658L385.744 177.069H391.022V178.031H386.732L386.641 181.034C387.231 180.635 387.868 180.436 388.552 180.436C389.098 180.436 389.592 180.549 390.034 180.774C390.485 180.991 390.84 181.311 391.1 181.736C391.369 182.152 391.503 182.646 391.503 183.218C391.503 183.799 391.365 184.314 391.087 184.765C390.819 185.207 390.442 185.549 389.956 185.792C389.48 186.035 388.938 186.156 388.331 186.156Z" fill="#CBD4D8"/>
<rect x="404" y="164" width="36" height="36" rx="4" fill="#2EC0FF"/>
<path d="M417.797 178.941L416.263 179.916L415.613 178.772L418.122 177.069H419.422V186H417.797V178.941ZM425.201 180.293C425.756 180.293 426.259 180.406 426.709 180.631C427.169 180.856 427.533 181.186 427.801 181.619C428.07 182.044 428.204 182.542 428.204 183.114C428.204 183.695 428.061 184.219 427.775 184.687C427.489 185.146 427.091 185.506 426.579 185.766C426.077 186.026 425.509 186.156 424.876 186.156C423.654 186.156 422.736 185.749 422.12 184.934C421.514 184.119 421.21 183.036 421.21 181.684C421.21 180.774 421.375 179.959 421.704 179.24C422.042 178.512 422.51 177.944 423.108 177.537C423.706 177.121 424.387 176.913 425.149 176.913C426.155 176.913 427.047 177.247 427.827 177.914L427.034 179.149C426.731 178.889 426.432 178.69 426.137 178.551C425.843 178.412 425.513 178.343 425.149 178.343C424.525 178.343 424.005 178.616 423.589 179.162C423.182 179.708 422.948 180.419 422.887 181.294C423.165 180.982 423.507 180.739 423.914 180.566C424.322 180.384 424.751 180.293 425.201 180.293ZM424.798 184.778C425.145 184.778 425.453 184.704 425.721 184.557C425.99 184.41 426.194 184.215 426.332 183.972C426.48 183.721 426.553 183.456 426.553 183.179C426.553 182.702 426.38 182.325 426.033 182.048C425.695 181.762 425.275 181.619 424.772 181.619C424.339 181.619 423.962 181.732 423.641 181.957C423.321 182.174 423.095 182.468 422.965 182.841C423.173 184.132 423.784 184.778 424.798 184.778Z" fill="black"/>
<rect x="404" y="164" width="11" height="36" fill="#2EC0FF"/>
<path d="M454.694 178.304L453.134 179.318L452.692 178.564L454.889 177.069H455.708V186H454.694V178.304ZM462.1 178.031H457.264V177.069H463.309V177.836L459.461 186H458.291L462.1 178.031Z" fill="#CBD4D8"/>
<path d="M238.002 218.304L236.442 219.318L236 218.564L238.197 217.069H239.016V226H238.002V218.304ZM244.316 226.156C243.701 226.156 243.146 226.052 242.652 225.844C242.158 225.636 241.768 225.346 241.482 224.973C241.196 224.592 241.053 224.154 241.053 223.66C241.053 223.123 241.235 222.655 241.599 222.256C241.972 221.857 242.448 221.567 243.029 221.385C242.492 221.177 242.067 220.9 241.755 220.553C241.443 220.198 241.287 219.773 241.287 219.279C241.287 218.802 241.426 218.386 241.703 218.031C241.989 217.667 242.362 217.39 242.821 217.199C243.289 217.008 243.787 216.913 244.316 216.913C244.853 216.913 245.352 217.013 245.811 217.212C246.279 217.403 246.652 217.68 246.929 218.044C247.215 218.399 247.358 218.815 247.358 219.292C247.358 219.803 247.193 220.232 246.864 220.579C246.543 220.926 246.127 221.194 245.616 221.385C246.188 221.576 246.656 221.87 247.02 222.269C247.393 222.668 247.579 223.131 247.579 223.66C247.579 224.154 247.436 224.592 247.15 224.973C246.864 225.346 246.47 225.636 245.967 225.844C245.473 226.052 244.923 226.156 244.316 226.156ZM244.316 220.982C244.628 220.965 244.94 220.891 245.252 220.761C245.564 220.631 245.82 220.449 246.019 220.215C246.227 219.981 246.331 219.704 246.331 219.383C246.331 219.088 246.24 218.824 246.058 218.59C245.885 218.356 245.642 218.174 245.33 218.044C245.027 217.905 244.689 217.836 244.316 217.836C243.753 217.836 243.276 217.983 242.886 218.278C242.505 218.573 242.314 218.941 242.314 219.383C242.314 219.712 242.418 219.994 242.626 220.228C242.834 220.462 243.09 220.644 243.393 220.774C243.705 220.895 244.013 220.965 244.316 220.982ZM244.316 225.233C244.723 225.233 245.096 225.164 245.434 225.025C245.781 224.886 246.054 224.696 246.253 224.453C246.452 224.202 246.552 223.916 246.552 223.595C246.552 223.257 246.435 222.958 246.201 222.698C245.967 222.438 245.677 222.239 245.33 222.1C244.983 221.953 244.645 221.875 244.316 221.866C243.987 221.875 243.649 221.953 243.302 222.1C242.955 222.239 242.665 222.438 242.431 222.698C242.197 222.958 242.08 223.257 242.08 223.595C242.08 223.916 242.18 224.202 242.379 224.453C242.578 224.696 242.847 224.886 243.185 225.025C243.532 225.164 243.909 225.233 244.316 225.233Z" fill="#CBD4D8"/>
<path d="M274.033 218.304L272.473 219.318L272.031 218.564L274.228 217.069H275.047V226H274.033V218.304ZM280.114 216.913C281.267 216.913 282.12 217.325 282.675 218.148C283.23 218.963 283.507 220.046 283.507 221.398C283.507 222.273 283.347 223.075 283.026 223.803C282.705 224.531 282.268 225.107 281.713 225.532C281.167 225.948 280.56 226.156 279.893 226.156C279.373 226.156 278.909 226.065 278.502 225.883C278.095 225.701 277.713 225.437 277.358 225.09L277.917 224.297C278.229 224.6 278.541 224.834 278.853 224.999C279.165 225.155 279.52 225.233 279.919 225.233C280.387 225.233 280.816 225.064 281.206 224.726C281.596 224.379 281.904 223.916 282.129 223.335C282.363 222.746 282.48 222.1 282.48 221.398V221.281C282.203 221.714 281.843 222.052 281.401 222.295C280.968 222.529 280.487 222.646 279.958 222.646C279.412 222.646 278.909 222.538 278.45 222.321C277.999 222.096 277.64 221.775 277.371 221.359C277.102 220.934 276.968 220.436 276.968 219.864C276.968 219.318 277.102 218.82 277.371 218.369C277.64 217.918 278.012 217.563 278.489 217.303C278.966 217.043 279.507 216.913 280.114 216.913ZM280.14 221.775C280.703 221.775 281.184 221.623 281.583 221.32C281.99 221.008 282.25 220.605 282.363 220.111C282.224 219.4 281.964 218.837 281.583 218.421C281.21 217.996 280.725 217.784 280.127 217.784C279.702 217.784 279.325 217.884 278.996 218.083C278.675 218.274 278.428 218.525 278.255 218.837C278.082 219.149 277.995 219.474 277.995 219.812C277.995 220.41 278.199 220.887 278.606 221.242C279.013 221.597 279.525 221.775 280.14 221.775Z" fill="#CBD4D8"/>
<path d="M306.373 225.155L309.636 222.373C310.26 221.836 310.71 221.346 310.988 220.904C311.274 220.453 311.417 220.003 311.417 219.552C311.417 219.205 311.33 218.902 311.157 218.642C310.983 218.373 310.754 218.17 310.468 218.031C310.182 217.892 309.878 217.823 309.558 217.823C309.064 217.823 308.622 217.944 308.232 218.187C307.85 218.43 307.495 218.772 307.166 219.214L306.451 218.629C307.257 217.485 308.305 216.913 309.597 216.913C310.117 216.913 310.593 217.021 311.027 217.238C311.46 217.455 311.802 217.762 312.054 218.161C312.314 218.56 312.444 219.019 312.444 219.539C312.444 220.137 312.279 220.705 311.95 221.242C311.629 221.771 311.092 222.36 310.338 223.01L307.998 225.038H312.535V226H306.373V225.155ZM317.679 226.156C316.96 226.156 316.318 225.961 315.755 225.571C315.192 225.172 314.75 224.622 314.429 223.92C314.117 223.218 313.961 222.421 313.961 221.528C313.961 220.635 314.117 219.842 314.429 219.149C314.75 218.447 315.192 217.901 315.755 217.511C316.318 217.112 316.96 216.913 317.679 216.913C318.39 216.913 319.027 217.112 319.59 217.511C320.153 217.901 320.591 218.447 320.903 219.149C321.224 219.842 321.384 220.635 321.384 221.528C321.384 222.421 321.224 223.218 320.903 223.92C320.591 224.622 320.153 225.172 319.59 225.571C319.035 225.961 318.398 226.156 317.679 226.156ZM317.679 225.22C318.199 225.22 318.663 225.064 319.07 224.752C319.477 224.431 319.794 223.994 320.019 223.439C320.244 222.876 320.357 222.239 320.357 221.528C320.357 220.817 320.244 220.185 320.019 219.63C319.794 219.067 319.477 218.629 319.07 218.317C318.663 218.005 318.199 217.849 317.679 217.849C317.159 217.849 316.695 218.005 316.288 218.317C315.881 218.629 315.56 219.067 315.326 219.63C315.101 220.185 314.988 220.817 314.988 221.528C314.988 222.239 315.101 222.876 315.326 223.439C315.56 223.994 315.881 224.431 316.288 224.752C316.695 225.064 317.159 225.22 317.679 225.22Z" fill="#CBD4D8"/>
<path d="M344.543 225.155L347.806 222.373C348.43 221.836 348.881 221.346 349.158 220.904C349.444 220.453 349.587 220.003 349.587 219.552C349.587 219.205 349.501 218.902 349.327 218.642C349.154 218.373 348.924 218.17 348.638 218.031C348.352 217.892 348.049 217.823 347.728 217.823C347.234 217.823 346.792 217.944 346.402 218.187C346.021 218.43 345.666 218.772 345.336 219.214L344.621 218.629C345.427 217.485 346.476 216.913 347.767 216.913C348.287 216.913 348.764 217.021 349.197 217.238C349.631 217.455 349.973 217.762 350.224 218.161C350.484 218.56 350.614 219.019 350.614 219.539C350.614 220.137 350.45 220.705 350.12 221.242C349.8 221.771 349.262 222.36 348.508 223.01L346.168 225.038H350.705V226H344.543V225.155ZM353.614 218.304L352.054 219.318L351.612 218.564L353.809 217.069H354.628V226H353.614V218.304Z" fill="#CBD4D8"/>
<path d="M379.191 225.155L382.454 222.373C383.078 221.836 383.529 221.346 383.806 220.904C384.092 220.453 384.235 220.003 384.235 219.552C384.235 219.205 384.149 218.902 383.975 218.642C383.802 218.373 383.572 218.17 383.286 218.031C383 217.892 382.697 217.823 382.376 217.823C381.882 217.823 381.44 217.944 381.05 218.187C380.669 218.43 380.314 218.772 379.984 219.214L379.269 218.629C380.075 217.485 381.124 216.913 382.415 216.913C382.935 216.913 383.412 217.021 383.845 217.238C384.279 217.455 384.621 217.762 384.872 218.161C385.132 218.56 385.262 219.019 385.262 219.539C385.262 220.137 385.098 220.705 384.768 221.242C384.448 221.771 383.91 222.36 383.156 223.01L380.816 225.038H385.353V226H379.191V225.155ZM386.442 225.155L389.705 222.373C390.329 221.836 390.78 221.346 391.057 220.904C391.343 220.453 391.486 220.003 391.486 219.552C391.486 219.205 391.399 218.902 391.226 218.642C391.053 218.373 390.823 218.17 390.537 218.031C390.251 217.892 389.948 217.823 389.627 217.823C389.133 217.823 388.691 217.944 388.301 218.187C387.92 218.43 387.564 218.772 387.235 219.214L386.52 218.629C387.326 217.485 388.375 216.913 389.666 216.913C390.186 216.913 390.663 217.021 391.096 217.238C391.529 217.455 391.872 217.762 392.123 218.161C392.383 218.56 392.513 219.019 392.513 219.539C392.513 220.137 392.348 220.705 392.019 221.242C391.698 221.771 391.161 222.36 390.407 223.01L388.067 225.038H392.604V226H386.442V225.155Z" fill="#CBD4D8"/>
<path d="M415.084 225.155L418.347 222.373C418.971 221.836 419.421 221.346 419.699 220.904C419.985 220.453 420.128 220.003 420.128 219.552C420.128 219.205 420.041 218.902 419.868 218.642C419.694 218.373 419.465 218.17 419.179 218.031C418.893 217.892 418.589 217.823 418.269 217.823C417.775 217.823 417.333 217.944 416.943 218.187C416.561 218.43 416.206 218.772 415.877 219.214L415.162 218.629C415.968 217.485 417.016 216.913 418.308 216.913C418.828 216.913 419.304 217.021 419.738 217.238C420.171 217.455 420.513 217.762 420.765 218.161C421.025 218.56 421.155 219.019 421.155 219.539C421.155 220.137 420.99 220.705 420.661 221.242C420.34 221.771 419.803 222.36 419.049 223.01L416.709 225.038H421.246V226H415.084V225.155ZM425.532 226.156C424.83 226.156 424.197 226.017 423.634 225.74C423.079 225.454 422.629 225.081 422.282 224.622L422.984 223.959C423.287 224.358 423.656 224.67 424.089 224.895C424.522 225.12 425.003 225.233 425.532 225.233C426.156 225.233 426.659 225.077 427.04 224.765C427.421 224.453 427.612 224.041 427.612 223.53C427.612 223.01 427.408 222.616 427.001 222.347C426.594 222.078 426.03 221.944 425.311 221.944H424.362V221.008L425.324 221.021C425.939 221.03 426.442 220.895 426.832 220.618C427.222 220.332 427.417 219.942 427.417 219.448C427.417 218.98 427.226 218.594 426.845 218.291C426.472 217.988 426.004 217.836 425.441 217.836C424.973 217.836 424.553 217.944 424.18 218.161C423.807 218.378 423.452 218.69 423.114 219.097L422.438 218.486C423.227 217.437 424.245 216.913 425.493 216.913C426.056 216.913 426.559 217.017 427.001 217.225C427.452 217.424 427.803 217.71 428.054 218.083C428.314 218.447 428.444 218.863 428.444 219.331C428.444 219.868 428.279 220.315 427.95 220.67C427.629 221.025 427.218 221.277 426.715 221.424C427.244 221.545 427.694 221.788 428.067 222.152C428.448 222.516 428.639 222.993 428.639 223.582C428.639 224.076 428.509 224.518 428.249 224.908C427.989 225.298 427.621 225.606 427.144 225.831C426.676 226.048 426.139 226.156 425.532 226.156Z" fill="#CBD4D8"/>
<path d="M451.045 225.155L454.308 222.373C454.932 221.836 455.383 221.346 455.66 220.904C455.946 220.453 456.089 220.003 456.089 219.552C456.089 219.205 456.003 218.902 455.829 218.642C455.656 218.373 455.426 218.17 455.14 218.031C454.854 217.892 454.551 217.823 454.23 217.823C453.736 217.823 453.294 217.944 452.904 218.187C452.523 218.43 452.168 218.772 451.838 219.214L451.123 218.629C451.929 217.485 452.978 216.913 454.269 216.913C454.789 216.913 455.266 217.021 455.699 217.238C456.133 217.455 456.475 217.762 456.726 218.161C456.986 218.56 457.116 219.019 457.116 219.539C457.116 220.137 456.952 220.705 456.622 221.242C456.302 221.771 455.764 222.36 455.01 223.01L452.67 225.038H457.207V226H451.045V225.155ZM462.794 223.829H458.335L458.205 222.984L462.638 217.069H463.808V222.906H465.147V223.829H463.808V226H462.794V223.829ZM462.794 222.906V218.291L459.362 222.906H462.794Z" fill="#CBD4D8"/>
<path d="M235.014 265.155L238.277 262.373C238.901 261.836 239.351 261.346 239.629 260.904C239.915 260.453 240.058 260.003 240.058 259.552C240.058 259.205 239.971 258.902 239.798 258.642C239.624 258.373 239.395 258.17 239.109 258.031C238.823 257.892 238.519 257.823 238.199 257.823C237.705 257.823 237.263 257.944 236.873 258.187C236.491 258.43 236.136 258.772 235.807 259.214L235.092 258.629C235.898 257.485 236.946 256.913 238.238 256.913C238.758 256.913 239.234 257.021 239.668 257.238C240.101 257.455 240.443 257.762 240.695 258.161C240.955 258.56 241.085 259.019 241.085 259.539C241.085 260.137 240.92 260.705 240.591 261.242C240.27 261.771 239.733 262.36 238.979 263.01L236.639 265.038H241.176V266H235.014V265.155ZM245.683 266.156C245.025 266.156 244.431 266.03 243.902 265.779C243.382 265.528 242.927 265.181 242.537 264.739L243.2 263.998C243.963 264.83 244.804 265.246 245.722 265.246C246.13 265.246 246.494 265.159 246.814 264.986C247.135 264.813 247.382 264.574 247.555 264.271C247.737 263.968 247.828 263.63 247.828 263.257C247.828 262.685 247.629 262.221 247.23 261.866C246.832 261.511 246.32 261.333 245.696 261.333C244.986 261.333 244.323 261.563 243.707 262.022L242.966 261.658L243.096 257.069H248.374V258.031H244.084L243.993 261.034C244.583 260.635 245.22 260.436 245.904 260.436C246.45 260.436 246.944 260.549 247.386 260.774C247.837 260.991 248.192 261.311 248.452 261.736C248.721 262.152 248.855 262.646 248.855 263.218C248.855 263.799 248.717 264.314 248.439 264.765C248.171 265.207 247.794 265.549 247.308 265.792C246.832 266.035 246.29 266.156 245.683 266.156Z" fill="#CBD4D8"/>
<path d="M270.861 265.155L274.124 262.373C274.748 261.836 275.199 261.346 275.476 260.904C275.762 260.453 275.905 260.003 275.905 259.552C275.905 259.205 275.819 258.902 275.645 258.642C275.472 258.373 275.242 258.17 274.956 258.031C274.67 257.892 274.367 257.823 274.046 257.823C273.552 257.823 273.11 257.944 272.72 258.187C272.339 258.43 271.984 258.772 271.654 259.214L270.939 258.629C271.745 257.485 272.794 256.913 274.085 256.913C274.605 256.913 275.082 257.021 275.515 257.238C275.949 257.455 276.291 257.762 276.542 258.161C276.802 258.56 276.932 259.019 276.932 259.539C276.932 260.137 276.768 260.705 276.438 261.242C276.118 261.771 275.58 262.36 274.826 263.01L272.486 265.038H277.023V266H270.861V265.155ZM282.038 260.423C282.584 260.423 283.082 260.536 283.533 260.761C283.992 260.978 284.356 261.298 284.625 261.723C284.894 262.139 285.028 262.633 285.028 263.205C285.028 263.751 284.894 264.249 284.625 264.7C284.356 265.151 283.984 265.506 283.507 265.766C283.03 266.026 282.489 266.156 281.882 266.156C280.729 266.156 279.876 265.749 279.321 264.934C278.766 264.111 278.489 263.023 278.489 261.671C278.489 260.796 278.649 259.994 278.97 259.266C279.291 258.538 279.724 257.966 280.27 257.55C280.825 257.125 281.436 256.913 282.103 256.913C282.623 256.913 283.087 257.004 283.494 257.186C283.901 257.368 284.283 257.632 284.638 257.979L284.079 258.772C283.767 258.469 283.455 258.239 283.143 258.083C282.831 257.918 282.476 257.836 282.077 257.836C281.609 257.836 281.18 258.009 280.79 258.356C280.4 258.694 280.088 259.158 279.854 259.747C279.629 260.328 279.516 260.969 279.516 261.671V261.788C279.793 261.355 280.149 261.021 280.582 260.787C281.024 260.544 281.509 260.423 282.038 260.423ZM281.869 265.285C282.294 265.285 282.666 265.19 282.987 264.999C283.316 264.8 283.568 264.544 283.741 264.232C283.914 263.92 284.001 263.595 284.001 263.257C284.001 262.659 283.797 262.182 283.39 261.827C282.983 261.472 282.471 261.294 281.856 261.294C281.293 261.294 280.807 261.45 280.4 261.762C280.001 262.065 279.746 262.464 279.633 262.958C279.772 263.669 280.027 264.236 280.4 264.661C280.781 265.077 281.271 265.285 281.869 265.285Z" fill="#CBD4D8"/>
<path d="M307.521 265.155L310.784 262.373C311.408 261.836 311.859 261.346 312.136 260.904C312.422 260.453 312.565 260.003 312.565 259.552C312.565 259.205 312.479 258.902 312.305 258.642C312.132 258.373 311.902 258.17 311.616 258.031C311.33 257.892 311.027 257.823 310.706 257.823C310.212 257.823 309.77 257.944 309.38 258.187C308.999 258.43 308.644 258.772 308.314 259.214L307.599 258.629C308.405 257.485 309.454 256.913 310.745 256.913C311.265 256.913 311.742 257.021 312.175 257.238C312.609 257.455 312.951 257.762 313.202 258.161C313.462 258.56 313.592 259.019 313.592 259.539C313.592 260.137 313.428 260.705 313.098 261.242C312.778 261.771 312.24 262.36 311.486 263.01L309.146 265.038H313.683V266H307.521V265.155ZM319.452 258.031H314.616V257.069H320.661V257.836L316.813 266H315.643L319.452 258.031Z" fill="#CBD4D8"/>
<path d="M342.83 265.155L346.093 262.373C346.717 261.836 347.167 261.346 347.445 260.904C347.731 260.453 347.874 260.003 347.874 259.552C347.874 259.205 347.787 258.902 347.614 258.642C347.44 258.373 347.211 258.17 346.925 258.031C346.639 257.892 346.335 257.823 346.015 257.823C345.521 257.823 345.079 257.944 344.689 258.187C344.307 258.43 343.952 258.772 343.623 259.214L342.908 258.629C343.714 257.485 344.762 256.913 346.054 256.913C346.574 256.913 347.05 257.021 347.484 257.238C347.917 257.455 348.259 257.762 348.511 258.161C348.771 258.56 348.901 259.019 348.901 259.539C348.901 260.137 348.736 260.705 348.407 261.242C348.086 261.771 347.549 262.36 346.795 263.01L344.455 265.038H348.992V266H342.83V265.155ZM353.668 266.156C353.053 266.156 352.498 266.052 352.004 265.844C351.51 265.636 351.12 265.346 350.834 264.973C350.548 264.592 350.405 264.154 350.405 263.66C350.405 263.123 350.587 262.655 350.951 262.256C351.324 261.857 351.801 261.567 352.381 261.385C351.844 261.177 351.419 260.9 351.107 260.553C350.795 260.198 350.639 259.773 350.639 259.279C350.639 258.802 350.778 258.386 351.055 258.031C351.341 257.667 351.714 257.39 352.173 257.199C352.641 257.008 353.14 256.913 353.668 256.913C354.206 256.913 354.704 257.013 355.163 257.212C355.631 257.403 356.004 257.68 356.281 258.044C356.567 258.399 356.71 258.815 356.71 259.292C356.71 259.803 356.546 260.232 356.216 260.579C355.896 260.926 355.48 261.194 354.968 261.385C355.54 261.576 356.008 261.87 356.372 262.269C356.745 262.668 356.931 263.131 356.931 263.66C356.931 264.154 356.788 264.592 356.502 264.973C356.216 265.346 355.822 265.636 355.319 265.844C354.825 266.052 354.275 266.156 353.668 266.156ZM353.668 260.982C353.98 260.965 354.292 260.891 354.604 260.761C354.916 260.631 355.172 260.449 355.371 260.215C355.579 259.981 355.683 259.704 355.683 259.383C355.683 259.088 355.592 258.824 355.41 258.59C355.237 258.356 354.994 258.174 354.682 258.044C354.379 257.905 354.041 257.836 353.668 257.836C353.105 257.836 352.628 257.983 352.238 258.278C351.857 258.573 351.666 258.941 351.666 259.383C351.666 259.712 351.77 259.994 351.978 260.228C352.186 260.462 352.442 260.644 352.745 260.774C353.057 260.895 353.365 260.965 353.668 260.982ZM353.668 265.233C354.076 265.233 354.448 265.164 354.786 265.025C355.133 264.886 355.406 264.696 355.605 264.453C355.805 264.202 355.904 263.916 355.904 263.595C355.904 263.257 355.787 262.958 355.553 262.698C355.319 262.438 355.029 262.239 354.682 262.1C354.336 261.953 353.998 261.875 353.668 261.866C353.339 261.875 353.001 261.953 352.654 262.1C352.308 262.239 352.017 262.438 351.783 262.698C351.549 262.958 351.432 263.257 351.432 263.595C351.432 263.916 351.532 264.202 351.731 264.453C351.931 264.696 352.199 264.886 352.537 265.025C352.884 265.164 353.261 265.233 353.668 265.233Z" fill="#CBD4D8"/>
<mask id="path-130-inside-2_20_17910" fill="white">
<path d="M224 332H476V384H224V332Z"/>
</mask>
<path d="M224 333H476V331H224V333Z" fill="black" mask="url(#path-130-inside-2_20_17910)"/>
<path d="M320 348.5H393C394.933 348.5 396.5 350.067 396.5 352V380C396.5 381.933 394.933 383.5 393 383.5H320C318.067 383.5 316.5 381.933 316.5 380V352C316.5 350.067 318.067 348.5 320 348.5Z" stroke="#2EC0FF"/>
<path d="M332.92 370.144C332.152 370.144 331.436 369.952 330.772 369.568C330.108 369.176 329.58 368.652 329.188 367.996C328.796 367.34 328.6 366.632 328.6 365.872C328.6 365.112 328.796 364.408 329.188 363.76C329.58 363.104 330.108 362.584 330.772 362.2C331.436 361.808 332.152 361.612 332.92 361.612C333.512 361.612 334.076 361.732 334.612 361.972C335.156 362.204 335.632 362.528 336.04 362.944L334.972 363.94C334.708 363.636 334.396 363.4 334.036 363.232C333.684 363.064 333.312 362.98 332.92 362.98C332.424 362.98 331.96 363.112 331.528 363.376C331.104 363.64 330.764 363.996 330.508 364.444C330.252 364.884 330.124 365.36 330.124 365.872C330.124 366.392 330.252 366.876 330.508 367.324C330.764 367.764 331.104 368.116 331.528 368.38C331.96 368.644 332.424 368.776 332.92 368.776C333.312 368.776 333.684 368.692 334.036 368.524C334.396 368.356 334.712 368.12 334.984 367.816L336.04 368.8C335.64 369.224 335.168 369.556 334.624 369.796C334.088 370.028 333.52 370.144 332.92 370.144ZM344.001 368.44H340.065L339.417 370H337.749L341.193 361.756H342.861L346.305 370H344.649L344.001 368.44ZM343.485 367.216L342.033 363.748L340.581 367.216H343.485ZM348.742 361.756H350.23L354.586 367.552V361.756H356.074V370H354.586L350.23 364.204V370H348.742V361.756ZM363.131 370.144C362.363 370.144 361.647 369.952 360.983 369.568C360.319 369.176 359.791 368.652 359.399 367.996C359.007 367.34 358.811 366.632 358.811 365.872C358.811 365.112 359.007 364.408 359.399 363.76C359.791 363.104 360.319 362.584 360.983 362.2C361.647 361.808 362.363 361.612 363.131 361.612C363.723 361.612 364.287 361.732 364.823 361.972C365.367 362.204 365.843 362.528 366.251 362.944L365.183 363.94C364.919 363.636 364.607 363.4 364.247 363.232C363.895 363.064 363.523 362.98 363.131 362.98C362.635 362.98 362.171 363.112 361.739 363.376C361.315 363.64 360.975 363.996 360.719 364.444C360.463 364.884 360.335 365.36 360.335 365.872C360.335 366.392 360.463 366.876 360.719 367.324C360.975 367.764 361.315 368.116 361.739 368.38C362.171 368.644 362.635 368.776 363.131 368.776C363.523 368.776 363.895 368.692 364.247 368.524C364.607 368.356 364.923 368.12 365.195 367.816L366.251 368.8C365.851 369.224 365.379 369.556 364.835 369.796C364.299 370.028 363.731 370.144 363.131 370.144ZM370.3 363.124V365.116H374.548V366.484H370.3V368.632H375.004V370H368.8V361.756H375.004V363.124H370.3ZM383.54 368.632V370H377.816V361.756H379.304V368.632H383.54Z" fill="#2EC0FF"/>
<path d="M409 348.5H472C473.933 348.5 475.5 350.067 475.5 352V380C475.5 381.933 473.933 383.5 472 383.5H409C407.067 383.5 405.5 381.933 405.5 380V352C405.5 350.067 407.067 348.5 409 348.5Z" fill="#2EC0FF"/>
<path d="M409 348.5H472C473.933 348.5 475.5 350.067 475.5 352V380C475.5 381.933 473.933 383.5 472 383.5H409C407.067 383.5 405.5 381.933 405.5 380V352C405.5 350.067 407.067 348.5 409 348.5Z" stroke="#2EC0FF"/>
<path d="M423.552 368.44H419.616L418.968 370H417.3L420.744 361.756H422.412L425.856 370H424.2L423.552 368.44ZM423.036 367.216L421.584 363.748L420.132 367.216H423.036ZM428.292 361.756H431.88C432.456 361.756 432.98 361.872 433.452 362.104C433.924 362.336 434.292 362.66 434.556 363.076C434.828 363.492 434.964 363.964 434.964 364.492C434.964 365.02 434.828 365.492 434.556 365.908C434.292 366.324 433.924 366.648 433.452 366.88C432.98 367.112 432.456 367.228 431.88 367.228H429.78V370H428.292V361.756ZM431.7 365.848C432.22 365.848 432.636 365.728 432.948 365.488C433.268 365.24 433.428 364.908 433.428 364.492C433.428 364.076 433.268 363.748 432.948 363.508C432.636 363.26 432.22 363.136 431.7 363.136H429.78V365.848H431.7ZM437.601 361.756H441.189C441.765 361.756 442.289 361.872 442.761 362.104C443.233 362.336 443.601 362.66 443.865 363.076C444.137 363.492 444.273 363.964 444.273 364.492C444.273 365.02 444.137 365.492 443.865 365.908C443.601 366.324 443.233 366.648 442.761 366.88C442.289 367.112 441.765 367.228 441.189 367.228H439.089V370H437.601V361.756ZM441.009 365.848C441.529 365.848 441.945 365.728 442.257 365.488C442.577 365.24 442.737 364.908 442.737 364.492C442.737 364.076 442.577 363.748 442.257 363.508C441.945 363.26 441.529 363.136 441.009 363.136H439.089V365.848H441.009ZM452.634 368.632V370H446.91V361.756H448.398V368.632H452.634ZM457.493 366.904L454.229 361.756H455.993L458.261 365.488L460.565 361.756H462.269L459.017 366.904V370H457.493V366.904Z" fill="black"/>
</svg>
