<svg width="284" height="400" viewBox="0 0 284 400" fill="none" xmlns="http://www.w3.org/2000/svg">
<path d="M0.5 4C0.5 2.067 2.067 0.5 4 0.5H280C281.933 0.5 283.5 2.067 283.5 4V396C283.5 397.933 281.933 399.5 280 399.5H4C2.06701 399.5 0.5 397.933 0.5 396V4Z" fill="#22343C"/>
<path d="M0.5 4C0.5 2.067 2.067 0.5 4 0.5H280C281.933 0.5 283.5 2.067 283.5 4V396C283.5 397.933 281.933 399.5 280 399.5H4C2.06701 399.5 0.5 397.933 0.5 396V4Z" stroke="#6A7A81"/>
<path d="M24.452 38.34L29.492 34.18C30.3987 33.42 31.0454 32.7267 31.432 32.1C31.832 31.4733 32.032 30.8467 32.032 30.22C32.032 29.5 31.7787 28.9267 31.272 28.5C30.7654 28.06 30.152 27.84 29.432 27.84C28.712 27.84 28.0654 28.0133 27.492 28.36C26.9187 28.7067 26.3787 29.2133 25.872 29.88L24.512 28.68C25.792 26.9067 27.4587 26.02 29.512 26.02C30.3654 26.02 31.1387 26.1933 31.832 26.54C32.5387 26.8867 33.092 27.38 33.492 28.02C33.9054 28.6467 34.112 29.3667 34.112 30.18C34.112 31.1 33.8654 31.96 33.372 32.76C32.8787 33.56 32.0454 34.44 30.872 35.4L27.652 38.12H34.232V40H24.452V38.34ZM42.1336 40.24C41.0003 40.24 39.9869 39.94 39.0936 39.34C38.2003 38.7267 37.5003 37.88 36.9936 36.8C36.5003 35.72 36.2536 34.4933 36.2536 33.12C36.2536 31.7467 36.5003 30.5267 36.9936 29.46C37.5003 28.38 38.2003 27.54 39.0936 26.94C39.9869 26.3267 41.0003 26.02 42.1336 26.02C43.2536 26.02 44.2536 26.3267 45.1336 26.94C46.0269 27.54 46.7203 28.38 47.2136 29.46C47.7203 30.5267 47.9736 31.7467 47.9736 33.12C47.9736 34.4933 47.7203 35.72 47.2136 36.8C46.7203 37.88 46.0336 38.7267 45.1536 39.34C44.2736 39.94 43.2669 40.24 42.1336 40.24ZM42.1336 38.38C42.8669 38.38 43.5203 38.16 44.0936 37.72C44.6669 37.2667 45.1136 36.64 45.4336 35.84C45.7536 35.04 45.9136 34.1333 45.9136 33.12C45.9136 32.1067 45.7536 31.2067 45.4336 30.42C45.1136 29.62 44.6669 29 44.0936 28.56C43.5203 28.1067 42.8669 27.88 42.1336 27.88C41.4003 27.88 40.7403 28.1067 40.1536 28.56C39.5803 29 39.1269 29.62 38.7936 30.42C38.4736 31.2067 38.3136 32.1067 38.3136 33.12C38.3136 34.1333 38.4736 35.04 38.7936 35.84C39.1269 36.64 39.5803 37.2667 40.1536 37.72C40.7403 38.16 41.4003 38.38 42.1336 38.38ZM49.6184 38.34L54.6584 34.18C55.5651 33.42 56.2118 32.7267 56.5984 32.1C56.9984 31.4733 57.1984 30.8467 57.1984 30.22C57.1984 29.5 56.9451 28.9267 56.4384 28.5C55.9318 28.06 55.3184 27.84 54.5984 27.84C53.8784 27.84 53.2318 28.0133 52.6584 28.36C52.0851 28.7067 51.5451 29.2133 51.0384 29.88L49.6784 28.68C50.9584 26.9067 52.6251 26.02 54.6784 26.02C55.5318 26.02 56.3051 26.1933 56.9984 26.54C57.7051 26.8867 58.2584 27.38 58.6584 28.02C59.0718 28.6467 59.2784 29.3667 59.2784 30.18C59.2784 31.1 59.0318 31.96 58.5384 32.76C58.0451 33.56 57.2118 34.44 56.0384 35.4L52.8184 38.12H59.3984V40H49.6184V38.34ZM67.9 36.84H61.08L60.86 35.22L67.52 26.26H69.92V35.06H71.9V36.84H69.92V40H67.9V36.84ZM67.9 35.06V28.56L63.08 35.06H67.9Z" fill="#2EC0FF"/>
<path d="M179.722 28.88L174.711 34L179.722 39.12C180.007 39.4097 180.459 39.4007 180.733 39.1C181.007 38.7993 180.999 38.3208 180.714 38.0311L176.767 34L180.714 29.9645C180.999 29.6748 181.007 29.1963 180.733 28.8956C180.459 28.5949 180.007 28.5859 179.722 28.8756L179.722 28.88Z" fill="#CBD4D8"/>
<path d="M213.187 37.4934L210.804 35.1111C210.732 35.0261 210.694 34.9167 210.698 34.8049C210.702 34.693 210.749 34.5869 210.828 34.5078C210.907 34.4286 211.013 34.3823 211.125 34.3779C211.237 34.3736 211.346 34.4117 211.431 34.4845L213.187 36.2222L217.027 32.3822C217.112 32.3094 217.221 32.2714 217.333 32.2757C217.445 32.28 217.551 32.3264 217.63 32.4056C217.709 32.4847 217.756 32.5908 217.76 32.7027C217.764 32.8145 217.726 32.9239 217.653 33.0089L213.187 37.4934Z" fill="#CBD4D8"/>
<path d="M220.333 28.6667H218.889V29.5556H220.222V39.3334H207.778V29.5556H209.111V28.6667H207.667C207.563 28.6684 207.46 28.6906 207.365 28.732C207.27 28.7734 207.183 28.8331 207.111 28.9078C207.039 28.9825 206.982 29.0707 206.944 29.1674C206.906 29.264 206.887 29.3672 206.889 29.4711V39.4178C206.887 39.5217 206.906 39.6249 206.944 39.7216C206.982 39.8182 207.039 39.9064 207.111 39.9811C207.183 40.0558 207.27 40.1156 207.365 40.157C207.46 40.1983 207.563 40.2205 207.667 40.2222H220.333C220.437 40.2205 220.54 40.1983 220.635 40.157C220.73 40.1156 220.817 40.0558 220.889 39.9811C220.961 39.9064 221.018 39.8182 221.056 39.7216C221.094 39.6249 221.113 39.5217 221.111 39.4178V29.4711C221.113 29.3672 221.094 29.264 221.056 29.1674C221.018 29.0707 220.961 28.9825 220.889 28.9078C220.817 28.8331 220.73 28.7734 220.635 28.732C220.54 28.6906 220.437 28.6684 220.333 28.6667Z" fill="#CBD4D8"/>
<path d="M210.444 30.4445C210.562 30.4445 210.675 30.3976 210.759 30.3143C210.842 30.2309 210.889 30.1179 210.889 30V27.3334C210.889 27.2155 210.842 27.1024 210.759 27.0191C210.675 26.9357 210.562 26.8889 210.444 26.8889C210.327 26.8889 210.214 26.9357 210.13 27.0191C210.047 27.1024 210 27.2155 210 27.3334V30C210 30.1179 210.047 30.2309 210.13 30.3143C210.214 30.3976 210.327 30.4445 210.444 30.4445Z" fill="#CBD4D8"/>
<path d="M217.556 30.4445C217.673 30.4445 217.786 30.3976 217.87 30.3143C217.953 30.2309 218 30.1179 218 30V27.3334C218 27.2155 217.953 27.1024 217.87 27.0191C217.786 26.9357 217.673 26.8889 217.556 26.8889C217.438 26.8889 217.325 26.9357 217.241 27.0191C217.158 27.1024 217.111 27.2155 217.111 27.3334V30C217.111 30.1179 217.158 30.2309 217.241 30.3143C217.325 30.3976 217.438 30.4445 217.556 30.4445Z" fill="#CBD4D8"/>
<path d="M216.222 28.6667H211.778V29.5556H216.222V28.6667Z" fill="#CBD4D8"/>
<path d="M248.278 39.12L253.289 34L248.278 28.88C247.993 28.5903 247.541 28.5993 247.267 28.9C246.993 29.2007 247.001 29.6792 247.286 29.9689L251.233 34L247.286 38.0355C247.001 38.3252 246.993 38.8037 247.267 39.1044C247.541 39.4051 247.993 39.4141 248.278 39.1244L248.278 39.12Z" fill="#CBD4D8"/>
<path d="M57.7184 84.156C57.1897 84.156 56.6654 84.0173 56.1454 83.74C55.634 83.4627 55.244 83.1073 54.9754 82.674L55.7164 81.946C55.8897 82.3187 56.1627 82.6263 56.5354 82.869C56.9167 83.1117 57.311 83.233 57.7184 83.233C58.247 83.233 58.6804 83.0337 59.0184 82.635C59.3564 82.2363 59.5254 81.7207 59.5254 81.088V75.069H60.5394V81.088C60.5394 81.6773 60.418 82.206 60.1754 82.674C59.9414 83.142 59.6077 83.506 59.1744 83.766C58.7497 84.026 58.2644 84.156 57.7184 84.156ZM65.2347 77.123C66.1274 77.123 66.8034 77.3787 67.2627 77.89C67.7307 78.3927 67.9647 79.0643 67.9647 79.905V84H66.9897V82.947C66.7557 83.3283 66.4177 83.6273 65.9757 83.844C65.5424 84.052 65.0917 84.156 64.6237 84.156C63.9044 84.156 63.3151 83.961 62.8557 83.571C62.3964 83.181 62.1667 82.661 62.1667 82.011C62.1667 81.5777 62.2837 81.192 62.5177 80.854C62.7604 80.5073 63.0811 80.243 63.4797 80.061C63.8871 79.8703 64.3291 79.775 64.8057 79.775C65.4817 79.775 66.2097 79.9007 66.9897 80.152V79.905C66.9897 79.359 66.8511 78.8997 66.5737 78.527C66.2964 78.1457 65.8284 77.955 65.1697 77.955C64.8664 77.955 64.5544 78.0113 64.2337 78.124C63.9217 78.228 63.5794 78.3753 63.2067 78.566L62.8167 77.773C63.6834 77.3397 64.4894 77.123 65.2347 77.123ZM64.7927 83.298C65.2781 83.298 65.7331 83.1767 66.1577 82.934C66.5911 82.6827 66.8684 82.336 66.9897 81.894V80.867C66.3311 80.685 65.6551 80.594 64.9617 80.594C64.4504 80.594 64.0127 80.724 63.6487 80.984C63.2934 81.244 63.1157 81.5733 63.1157 81.972C63.1157 82.3793 63.2717 82.7043 63.5837 82.947C63.9044 83.181 64.3074 83.298 64.7927 83.298ZM73.1511 77.123C73.6451 77.123 74.0827 77.2313 74.4641 77.448C74.8454 77.6647 75.1401 77.9723 75.3481 78.371C75.5647 78.761 75.6731 79.2117 75.6731 79.723V84H74.6981V79.853C74.6981 79.2983 74.5421 78.852 74.2301 78.514C73.9181 78.1673 73.5151 77.994 73.0211 77.994C72.6484 77.994 72.3017 78.072 71.9811 78.228C71.6604 78.384 71.4047 78.5963 71.2141 78.865C71.0321 79.125 70.9411 79.411 70.9411 79.723V84H69.9661V77.279H70.9411V78.345C71.1404 77.981 71.4394 77.6863 71.8381 77.461C72.2367 77.2357 72.6744 77.123 73.1511 77.123ZM83.2247 77.279V84H82.2497V82.934C82.0503 83.298 81.7513 83.5927 81.3527 83.818C80.954 84.0433 80.5163 84.156 80.0397 84.156C79.5457 84.156 79.108 84.0477 78.7267 83.831C78.3453 83.6143 78.0463 83.311 77.8297 82.921C77.6217 82.5223 77.5177 82.0673 77.5177 81.556V77.279H78.4927V81.426C78.4927 81.9807 78.6487 82.4313 78.9607 82.778C79.2727 83.116 79.6757 83.285 80.1697 83.285C80.5423 83.285 80.889 83.207 81.2097 83.051C81.5303 82.895 81.7817 82.687 81.9637 82.427C82.1543 82.1583 82.2497 81.868 82.2497 81.556V77.279H83.2247ZM87.7863 77.123C88.679 77.123 89.355 77.3787 89.8143 77.89C90.2823 78.3927 90.5163 79.0643 90.5163 79.905V84H89.5413V82.947C89.3073 83.3283 88.9693 83.6273 88.5273 83.844C88.094 84.052 87.6433 84.156 87.1753 84.156C86.456 84.156 85.8666 83.961 85.4073 83.571C84.948 83.181 84.7183 82.661 84.7183 82.011C84.7183 81.5777 84.8353 81.192 85.0693 80.854C85.312 80.5073 85.6326 80.243 86.0313 80.061C86.4386 79.8703 86.8806 79.775 87.3573 79.775C88.0333 79.775 88.7613 79.9007 89.5413 80.152V79.905C89.5413 79.359 89.4026 78.8997 89.1253 78.527C88.848 78.1457 88.38 77.955 87.7213 77.955C87.418 77.955 87.106 78.0113 86.7853 78.124C86.4733 78.228 86.131 78.3753 85.7583 78.566L85.3683 77.773C86.235 77.3397 87.041 77.123 87.7863 77.123ZM87.3443 83.298C87.8296 83.298 88.2846 83.1767 88.7093 82.934C89.1426 82.6827 89.42 82.336 89.5413 81.894V80.867C88.8826 80.685 88.2066 80.594 87.5133 80.594C87.002 80.594 86.5643 80.724 86.2003 80.984C85.845 81.244 85.6673 81.5733 85.6673 81.972C85.6673 82.3793 85.8233 82.7043 86.1353 82.947C86.456 83.181 86.859 83.298 87.3443 83.298ZM93.4926 78.592C93.692 78.1413 94.0213 77.786 94.4806 77.526C94.94 77.2573 95.4773 77.123 96.0926 77.123V77.994C95.59 77.994 95.1393 78.0893 94.7406 78.28C94.3506 78.4707 94.043 78.7393 93.8176 79.086C93.601 79.424 93.4926 79.8097 93.4926 80.243V84H92.5176V77.279H93.4926V78.592ZM98.1569 86.34C97.7669 86.34 97.4116 86.2663 97.0909 86.119L97.3249 85.287C97.5503 85.3997 97.8146 85.456 98.1179 85.456C98.3433 85.456 98.5296 85.4127 98.6769 85.326C98.8243 85.2393 98.9629 85.0833 99.0929 84.858L99.4829 84.026L96.5579 77.279H97.6369L99.9899 82.869L102.213 77.279H103.266L100.198 84.754C99.9726 85.3087 99.6953 85.7073 99.3659 85.95C99.0366 86.2013 98.6336 86.3313 98.1569 86.34Z" fill="#CBD4D8"/>
<rect x="16" y="104" width="126" height="40" rx="4" fill="#2EC0FF"/>
<path d="M60.8009 119.069H62.4129L65.3639 124.516L68.3019 119.069H69.9269V128H68.3019V122.033L65.3639 127.48L62.4129 122.033V128H60.8009V119.069ZM74.723 121.123C75.607 121.123 76.3047 121.383 76.816 121.903C77.336 122.414 77.596 123.099 77.596 123.957V128H76.049V127.207C75.8064 127.502 75.4944 127.736 75.113 127.909C74.7317 128.074 74.3417 128.156 73.943 128.156C73.4664 128.156 73.0374 128.069 72.656 127.896C72.2834 127.714 71.9887 127.463 71.772 127.142C71.5554 126.813 71.447 126.436 71.447 126.011C71.447 125.578 71.5684 125.192 71.811 124.854C72.0537 124.516 72.383 124.252 72.799 124.061C73.215 123.87 73.6744 123.775 74.177 123.775C74.775 123.775 75.399 123.892 76.049 124.126V123.957C76.049 123.515 75.9147 123.151 75.646 122.865C75.386 122.57 74.9744 122.423 74.411 122.423C73.8737 122.423 73.267 122.592 72.591 122.93L72.045 121.825C72.9984 121.357 73.891 121.123 74.723 121.123ZM74.294 126.999C74.7014 126.999 75.074 126.899 75.412 126.7C75.7587 126.501 75.971 126.232 76.049 125.894V125.127C75.529 124.962 74.983 124.88 74.411 124.88C74.0037 124.88 73.6614 124.984 73.384 125.192C73.1067 125.391 72.968 125.647 72.968 125.959C72.968 126.271 73.0937 126.522 73.345 126.713C73.5964 126.904 73.9127 126.999 74.294 126.999ZM80.9194 122.553C81.1361 122.111 81.4567 121.764 81.8814 121.513C82.3061 121.253 82.7871 121.123 83.3244 121.123V122.475C82.6051 122.475 82.0244 122.67 81.5824 123.06C81.1404 123.45 80.9194 123.966 80.9194 124.607V128H79.3334V121.279H80.9194V122.553ZM87.748 128.156C87.1067 128.156 86.5087 127.996 85.954 127.675C85.408 127.354 84.9703 126.925 84.641 126.388C84.3117 125.842 84.147 125.257 84.147 124.633C84.147 124.009 84.3117 123.428 84.641 122.891C84.9703 122.354 85.4123 121.925 85.967 121.604C86.5217 121.283 87.1197 121.123 87.761 121.123C88.2637 121.123 88.7317 121.223 89.165 121.422C89.5983 121.613 89.9797 121.877 90.309 122.215L89.243 123.151C89.061 122.943 88.8357 122.778 88.567 122.657C88.2983 122.536 88.0253 122.475 87.748 122.475C87.384 122.475 87.046 122.575 86.734 122.774C86.422 122.965 86.175 123.229 85.993 123.567C85.811 123.896 85.72 124.252 85.72 124.633C85.72 125.023 85.811 125.387 85.993 125.725C86.175 126.054 86.422 126.319 86.734 126.518C87.046 126.709 87.384 126.804 87.748 126.804C88.034 126.804 88.3113 126.743 88.58 126.622C88.8573 126.492 89.0913 126.319 89.282 126.102L90.348 127.025C90.01 127.38 89.62 127.658 89.178 127.857C88.736 128.056 88.2593 128.156 87.748 128.156ZM95.1773 121.123C95.6627 121.123 96.096 121.236 96.4773 121.461C96.8587 121.678 97.1533 121.985 97.3613 122.384C97.578 122.774 97.6863 123.22 97.6863 123.723V128H96.1393V124.035C96.1393 123.576 96.0093 123.203 95.7493 122.917C95.4893 122.622 95.1513 122.475 94.7353 122.475C94.276 122.475 93.886 122.618 93.5653 122.904C93.2533 123.181 93.0973 123.524 93.0973 123.931V128H91.5113V118.913H93.0973V122.189C93.3053 121.868 93.5913 121.613 93.9553 121.422C94.328 121.223 94.7353 121.123 95.1773 121.123Z" fill="black"/>
<rect x="16" y="148" width="126" height="40" fill="#004B6B"/>
<path d="M67.7193 163.069H68.7333L72.0483 169.296L75.3633 163.069H76.3773V172H75.3633V165.253L72.0483 171.48L68.7333 165.253V172H67.7193V163.069ZM81.2276 165.123C82.1203 165.123 82.7963 165.379 83.2556 165.89C83.7236 166.393 83.9576 167.064 83.9576 167.905V172H82.9826V170.947C82.7486 171.328 82.4106 171.627 81.9686 171.844C81.5353 172.052 81.0846 172.156 80.6166 172.156C79.8973 172.156 79.3079 171.961 78.8486 171.571C78.3893 171.181 78.1596 170.661 78.1596 170.011C78.1596 169.578 78.2766 169.192 78.5106 168.854C78.7533 168.507 79.0739 168.243 79.4726 168.061C79.8799 167.87 80.3219 167.775 80.7986 167.775C81.4746 167.775 82.2026 167.901 82.9826 168.152V167.905C82.9826 167.359 82.8439 166.9 82.5666 166.527C82.2893 166.146 81.8213 165.955 81.1626 165.955C80.8593 165.955 80.5473 166.011 80.2266 166.124C79.9146 166.228 79.5723 166.375 79.1996 166.566L78.8096 165.773C79.6763 165.34 80.4823 165.123 81.2276 165.123ZM80.7856 171.298C81.2709 171.298 81.7259 171.177 82.1506 170.934C82.5839 170.683 82.8613 170.336 82.9826 169.894V168.867C82.3239 168.685 81.6479 168.594 80.9546 168.594C80.4433 168.594 80.0056 168.724 79.6416 168.984C79.2863 169.244 79.1086 169.573 79.1086 169.972C79.1086 170.379 79.2646 170.704 79.5766 170.947C79.8973 171.181 80.3003 171.298 80.7856 171.298ZM86.5439 174.34C86.1539 174.34 85.7986 174.266 85.4779 174.119L85.7119 173.287C85.9373 173.4 86.2016 173.456 86.5049 173.456C86.7303 173.456 86.9166 173.413 87.0639 173.326C87.2113 173.239 87.3499 173.083 87.4799 172.858L87.8699 172.026L84.9449 165.279H86.0239L88.3769 170.869L90.5999 165.279H91.6529L88.5849 172.754C88.3596 173.309 88.0823 173.707 87.7529 173.95C87.4236 174.201 87.0206 174.331 86.5439 174.34Z" fill="#CBD4D8"/>
<rect x="16" y="192" width="126" height="40" fill="#004B6B"/>
<path d="M69.667 216.156C69.1383 216.156 68.614 216.017 68.094 215.74C67.5827 215.463 67.1927 215.107 66.924 214.674L67.665 213.946C67.8383 214.319 68.1113 214.626 68.484 214.869C68.8653 215.112 69.2597 215.233 69.667 215.233C70.1957 215.233 70.629 215.034 70.967 214.635C71.305 214.236 71.474 213.721 71.474 213.088V207.069H72.488V213.088C72.488 213.677 72.3667 214.206 72.124 214.674C71.89 215.142 71.5563 215.506 71.123 215.766C70.6983 216.026 70.213 216.156 69.667 216.156ZM80.3294 209.279V216H79.3544V214.934C79.155 215.298 78.856 215.593 78.4574 215.818C78.0587 216.043 77.621 216.156 77.1444 216.156C76.6504 216.156 76.2127 216.048 75.8314 215.831C75.45 215.614 75.151 215.311 74.9344 214.921C74.7264 214.522 74.6224 214.067 74.6224 213.556V209.279H75.5974V213.426C75.5974 213.981 75.7534 214.431 76.0654 214.778C76.3774 215.116 76.7804 215.285 77.2744 215.285C77.647 215.285 77.9937 215.207 78.3144 215.051C78.635 214.895 78.8864 214.687 79.0684 214.427C79.259 214.158 79.3544 213.868 79.3544 213.556V209.279H80.3294ZM82.486 206.913H83.461V216H82.486V206.913ZM86.2083 218.34C85.8183 218.34 85.463 218.266 85.1423 218.119L85.3763 217.287C85.6016 217.4 85.866 217.456 86.1693 217.456C86.3946 217.456 86.581 217.413 86.7283 217.326C86.8756 217.239 87.0143 217.083 87.1443 216.858L87.5343 216.026L84.6093 209.279H85.6883L88.0413 214.869L90.2643 209.279H91.3173L88.2493 216.754C88.024 217.309 87.7466 217.707 87.4173 217.95C87.088 218.201 86.685 218.331 86.2083 218.34Z" fill="#CBD4D8"/>
<rect x="16" y="236" width="126" height="40" fill="#004B6B"/>
<path d="M49.2683 260.143C47.8816 260.143 46.7073 259.671 45.7453 258.726L46.3823 257.933C46.7896 258.34 47.2316 258.657 47.7083 258.882C48.1849 259.107 48.7179 259.22 49.3073 259.22C49.7493 259.22 50.1263 259.151 50.4383 259.012C50.7503 258.865 50.9843 258.674 51.1403 258.44C51.3049 258.197 51.3873 257.937 51.3873 257.66C51.3873 257.209 51.1966 256.867 50.8153 256.633C50.4426 256.39 49.8316 256.169 48.9823 255.97C48.3323 255.814 47.7949 255.641 47.3703 255.45C46.9543 255.259 46.6293 255.004 46.3953 254.683C46.1699 254.354 46.0573 253.942 46.0573 253.448C46.0573 252.98 46.1873 252.551 46.4473 252.161C46.7073 251.771 47.0626 251.468 47.5133 251.251C47.9726 251.026 48.4839 250.913 49.0473 250.913C49.6799 250.913 50.2476 251.026 50.7503 251.251C51.2616 251.468 51.7383 251.78 52.1803 252.187L51.5563 252.98C51.1749 252.616 50.7676 252.334 50.3343 252.135C49.9009 251.936 49.4546 251.836 48.9953 251.836C48.6399 251.836 48.3149 251.905 48.0203 252.044C47.7256 252.183 47.4959 252.373 47.3313 252.616C47.1666 252.85 47.0843 253.101 47.0843 253.37C47.0843 253.795 47.2706 254.12 47.6433 254.345C48.0159 254.562 48.6313 254.774 49.4893 254.982C50.4426 255.207 51.1663 255.515 51.6603 255.905C52.1629 256.286 52.4143 256.841 52.4143 257.569C52.4143 258.054 52.2929 258.492 52.0503 258.882C51.8163 259.272 51.4609 259.58 50.9843 259.805C50.5076 260.03 49.9356 260.143 49.2683 260.143ZM56.9722 259.285C57.3709 259.285 57.7696 259.207 58.1682 259.051C58.5756 258.895 58.8832 258.704 59.0912 258.479L59.6892 259.116C59.4032 259.428 59.0002 259.679 58.4802 259.87C57.9689 260.061 57.4706 260.156 56.9852 260.156C56.3872 260.156 55.8282 260.004 55.3082 259.701C54.7882 259.398 54.3679 258.977 54.0472 258.44C53.7352 257.894 53.5792 257.287 53.5792 256.62C53.5792 255.97 53.7266 255.376 54.0212 254.839C54.3246 254.302 54.7276 253.881 55.2302 253.578C55.7416 253.275 56.2962 253.123 56.8942 253.123C57.8996 253.123 58.6796 253.474 59.2342 254.176C59.7976 254.878 60.0792 255.823 60.0792 257.01H54.5802C54.6496 257.677 54.9009 258.223 55.3342 258.648C55.7762 259.073 56.3222 259.285 56.9722 259.285ZM56.9332 253.994C56.3266 253.994 55.8066 254.193 55.3732 254.592C54.9399 254.982 54.6799 255.498 54.5932 256.139H59.1172C59.0479 255.498 58.8269 254.982 58.4542 254.592C58.0816 254.193 57.5746 253.994 56.9332 253.994ZM65.0363 253.123C65.617 253.123 66.1413 253.275 66.6093 253.578C67.086 253.873 67.4587 254.289 67.7273 254.826C67.996 255.355 68.1303 255.957 68.1303 256.633C68.1303 257.309 67.996 257.916 67.7273 258.453C67.4587 258.99 67.086 259.411 66.6093 259.714C66.1413 260.009 65.617 260.156 65.0363 260.156C64.5077 260.156 64.031 260.035 63.6063 259.792C63.1903 259.541 62.8523 259.19 62.5923 258.739V262.236H61.6173V253.279H62.5923V254.54C62.8523 254.089 63.1903 253.743 63.6063 253.5C64.031 253.249 64.5077 253.123 65.0363 253.123ZM64.8543 259.285C65.2877 259.285 65.6733 259.172 66.0113 258.947C66.358 258.722 66.6267 258.41 66.8173 258.011C67.008 257.604 67.1033 257.144 67.1033 256.633C67.1033 256.122 67.008 255.667 66.8173 255.268C66.6267 254.869 66.358 254.557 66.0113 254.332C65.6733 254.107 65.2877 253.994 64.8543 253.994C64.421 253.994 64.031 254.107 63.6843 254.332C63.3377 254.557 63.069 254.869 62.8783 255.268C62.6877 255.667 62.5923 256.122 62.5923 256.633C62.5923 257.144 62.6877 257.604 62.8783 258.011C63.069 258.41 63.3377 258.722 63.6843 258.947C64.031 259.172 64.421 259.285 64.8543 259.285ZM72.8503 259.727C72.4863 260.013 72.0703 260.156 71.6023 260.156C71.1256 260.156 70.7313 259.996 70.4193 259.675C70.1159 259.354 69.9643 258.943 69.9643 258.44V254.15H68.9113V253.279H69.9643V251.433H70.9393V253.279H72.5903V254.15H70.9393V258.44C70.9393 258.683 71.0086 258.886 71.1473 259.051C71.2946 259.207 71.4679 259.285 71.6673 259.285C71.8146 259.285 71.9489 259.259 72.0703 259.207C72.1916 259.155 72.2913 259.09 72.3693 259.012L72.8503 259.727ZM76.9847 259.285C77.3834 259.285 77.7821 259.207 78.1807 259.051C78.5881 258.895 78.8957 258.704 79.1037 258.479L79.7017 259.116C79.4157 259.428 79.0127 259.679 78.4927 259.87C77.9814 260.061 77.4831 260.156 76.9977 260.156C76.3997 260.156 75.8407 260.004 75.3207 259.701C74.8007 259.398 74.3804 258.977 74.0597 258.44C73.7477 257.894 73.5917 257.287 73.5917 256.62C73.5917 255.97 73.7391 255.376 74.0337 254.839C74.3371 254.302 74.7401 253.881 75.2427 253.578C75.7541 253.275 76.3087 253.123 76.9067 253.123C77.9121 253.123 78.6921 253.474 79.2467 254.176C79.8101 254.878 80.0917 255.823 80.0917 257.01H74.5927C74.6621 257.677 74.9134 258.223 75.3467 258.648C75.7887 259.073 76.3347 259.285 76.9847 259.285ZM76.9457 253.994C76.3391 253.994 75.8191 254.193 75.3857 254.592C74.9524 254.982 74.6924 255.498 74.6057 256.139H79.1297C79.0604 255.498 78.8394 254.982 78.4667 254.592C78.0941 254.193 77.5871 253.994 76.9457 253.994ZM88.8968 253.123C89.3562 253.123 89.7678 253.236 90.1318 253.461C90.4958 253.678 90.7775 253.985 90.9768 254.384C91.1848 254.774 91.2888 255.22 91.2888 255.723V260H90.3138V255.853C90.3138 255.307 90.1665 254.861 89.8718 254.514C89.5858 254.167 89.2175 253.994 88.7668 253.994C88.2295 253.994 87.7918 254.159 87.4538 254.488C87.1158 254.809 86.9468 255.22 86.9468 255.723V260H85.9718V255.853C85.9718 255.307 85.8245 254.861 85.5298 254.514C85.2438 254.167 84.8755 253.994 84.4248 253.994C83.8875 253.994 83.4498 254.159 83.1118 254.488C82.7738 254.809 82.6048 255.22 82.6048 255.723V260H81.6298V253.279H82.6048V254.267C82.7782 253.912 83.0338 253.634 83.3718 253.435C83.7185 253.227 84.1128 253.123 84.5548 253.123C85.0835 253.123 85.5428 253.266 85.9328 253.552C86.3315 253.838 86.6175 254.228 86.7908 254.722C86.8948 254.245 87.1375 253.86 87.5188 253.565C87.9088 253.27 88.3682 253.123 88.8968 253.123ZM96.7174 253.123C97.2981 253.123 97.8224 253.275 98.2904 253.578C98.7671 253.873 99.1397 254.289 99.4084 254.826C99.6771 255.355 99.8114 255.957 99.8114 256.633C99.8114 257.309 99.6771 257.916 99.4084 258.453C99.1397 258.99 98.7671 259.411 98.2904 259.714C97.8224 260.009 97.2981 260.156 96.7174 260.156C96.1887 260.156 95.7121 260.035 95.2874 259.792C94.8714 259.541 94.5334 259.19 94.2734 258.739V260H93.2984V250.913H94.2734V254.54C94.5334 254.089 94.8714 253.743 95.2874 253.5C95.7121 253.249 96.1887 253.123 96.7174 253.123ZM96.5354 259.285C96.9687 259.285 97.3544 259.172 97.6924 258.947C98.0391 258.722 98.3077 258.41 98.4984 258.011C98.6891 257.604 98.7844 257.144 98.7844 256.633C98.7844 256.122 98.6891 255.667 98.4984 255.268C98.3077 254.869 98.0391 254.557 97.6924 254.332C97.3544 254.107 96.9687 253.994 96.5354 253.994C96.1021 253.994 95.7121 254.107 95.3654 254.332C95.0187 254.557 94.7501 254.869 94.5594 255.268C94.3687 255.667 94.2734 256.122 94.2734 256.633C94.2734 257.144 94.3687 257.604 94.5594 258.011C94.7501 258.41 95.0187 258.722 95.3654 258.947C95.7121 259.172 96.1021 259.285 96.5354 259.285ZM104.284 259.285C104.683 259.285 105.082 259.207 105.48 259.051C105.888 258.895 106.195 258.704 106.403 258.479L107.001 259.116C106.715 259.428 106.312 259.679 105.792 259.87C105.281 260.061 104.783 260.156 104.297 260.156C103.699 260.156 103.14 260.004 102.62 259.701C102.1 259.398 101.68 258.977 101.359 258.44C101.047 257.894 100.891 257.287 100.891 256.62C100.891 255.97 101.039 255.376 101.333 254.839C101.637 254.302 102.04 253.881 102.542 253.578C103.054 253.275 103.608 253.123 104.206 253.123C105.212 253.123 105.992 253.474 106.546 254.176C107.11 254.878 107.391 255.823 107.391 257.01H101.892C101.962 257.677 102.213 258.223 102.646 258.648C103.088 259.073 103.634 259.285 104.284 259.285ZM104.245 253.994C103.639 253.994 103.119 254.193 102.685 254.592C102.252 254.982 101.992 255.498 101.905 256.139H106.429C106.36 255.498 106.139 254.982 105.766 254.592C105.394 254.193 104.887 253.994 104.245 253.994ZM109.904 254.592C110.104 254.141 110.433 253.786 110.892 253.526C111.352 253.257 111.889 253.123 112.504 253.123V253.994C112.002 253.994 111.551 254.089 111.152 254.28C110.762 254.471 110.455 254.739 110.229 255.086C110.013 255.424 109.904 255.81 109.904 256.243V260H108.929V253.279H109.904V254.592Z" fill="#CBD4D8"/>
<path d="M47.9996 295.069H49.0136L54.5516 302.336V295.069H55.5656V304H54.5516L49.0136 296.733V304H47.9996V295.069ZM60.8971 304.156C60.2731 304.156 59.6924 304 59.1551 303.688C58.6264 303.367 58.2061 302.938 57.8941 302.401C57.5821 301.855 57.4261 301.266 57.4261 300.633C57.4261 300 57.5821 299.415 57.8941 298.878C58.2061 298.341 58.6264 297.916 59.1551 297.604C59.6924 297.283 60.2731 297.123 60.8971 297.123C61.5211 297.123 62.0974 297.283 62.6261 297.604C63.1547 297.916 63.5751 298.341 63.8871 298.878C64.1991 299.415 64.3551 300 64.3551 300.633C64.3551 301.266 64.1991 301.855 63.8871 302.401C63.5751 302.938 63.1547 303.367 62.6261 303.688C62.0974 304 61.5211 304.156 60.8971 304.156ZM60.8971 303.285C61.3391 303.285 61.7464 303.168 62.1191 302.934C62.4917 302.691 62.7864 302.366 63.0031 301.959C63.2284 301.552 63.3411 301.11 63.3411 300.633C63.3411 300.156 63.2284 299.719 63.0031 299.32C62.7864 298.913 62.4917 298.592 62.1191 298.358C61.7464 298.115 61.3391 297.994 60.8971 297.994C60.4551 297.994 60.0434 298.115 59.6621 298.358C59.2894 298.592 58.9904 298.913 58.7651 299.32C58.5484 299.719 58.4401 300.156 58.4401 300.633C58.4401 301.11 58.5484 301.552 58.7651 301.959C58.9904 302.366 59.2894 302.691 59.6621 302.934C60.0434 303.168 60.4551 303.285 60.8971 303.285ZM64.9335 297.279H66.0255L68.2615 302.856L70.4585 297.279H71.5505L68.7295 304H67.7935L64.9335 297.279ZM75.5494 303.285C75.948 303.285 76.3467 303.207 76.7454 303.051C77.1527 302.895 77.4604 302.704 77.6684 302.479L78.2664 303.116C77.9804 303.428 77.5774 303.679 77.0574 303.87C76.546 304.061 76.0477 304.156 75.5624 304.156C74.9644 304.156 74.4054 304.004 73.8854 303.701C73.3654 303.398 72.945 302.977 72.6244 302.44C72.3124 301.894 72.1564 301.287 72.1564 300.62C72.1564 299.97 72.3037 299.376 72.5984 298.839C72.9017 298.302 73.3047 297.881 73.8074 297.578C74.3187 297.275 74.8734 297.123 75.4714 297.123C76.4767 297.123 77.2567 297.474 77.8114 298.176C78.3747 298.878 78.6564 299.823 78.6564 301.01H73.1574C73.2267 301.677 73.478 302.223 73.9114 302.648C74.3534 303.073 74.8994 303.285 75.5494 303.285ZM75.5104 297.994C74.9037 297.994 74.3837 298.193 73.9504 298.592C73.517 298.982 73.257 299.498 73.1704 300.139H77.6944C77.625 299.498 77.404 298.982 77.0314 298.592C76.6587 298.193 76.1517 297.994 75.5104 297.994ZM87.4615 297.123C87.9208 297.123 88.3325 297.236 88.6965 297.461C89.0605 297.678 89.3421 297.985 89.5415 298.384C89.7495 298.774 89.8535 299.22 89.8535 299.723V304H88.8785V299.853C88.8785 299.307 88.7311 298.861 88.4365 298.514C88.1505 298.167 87.7821 297.994 87.3315 297.994C86.7941 297.994 86.3565 298.159 86.0185 298.488C85.6805 298.809 85.5115 299.22 85.5115 299.723V304H84.5365V299.853C84.5365 299.307 84.3891 298.861 84.0945 298.514C83.8085 298.167 83.4401 297.994 82.9895 297.994C82.4521 297.994 82.0145 298.159 81.6765 298.488C81.3385 298.809 81.1695 299.22 81.1695 299.723V304H80.1945V297.279H81.1695V298.267C81.3428 297.912 81.5985 297.634 81.9365 297.435C82.2831 297.227 82.6775 297.123 83.1195 297.123C83.6481 297.123 84.1075 297.266 84.4975 297.552C84.8961 297.838 85.1821 298.228 85.3555 298.722C85.4595 298.245 85.7021 297.86 86.0835 297.565C86.4735 297.27 86.9328 297.123 87.4615 297.123ZM95.282 297.123C95.8627 297.123 96.387 297.275 96.855 297.578C97.3317 297.873 97.7044 298.289 97.973 298.826C98.2417 299.355 98.376 299.957 98.376 300.633C98.376 301.309 98.2417 301.916 97.973 302.453C97.7044 302.99 97.3317 303.411 96.855 303.714C96.387 304.009 95.8627 304.156 95.282 304.156C94.7534 304.156 94.2767 304.035 93.852 303.792C93.436 303.541 93.098 303.19 92.838 302.739V304H91.863V294.913H92.838V298.54C93.098 298.089 93.436 297.743 93.852 297.5C94.2767 297.249 94.7534 297.123 95.282 297.123ZM95.1 303.285C95.5334 303.285 95.919 303.172 96.257 302.947C96.6037 302.722 96.8724 302.41 97.063 302.011C97.2537 301.604 97.349 301.144 97.349 300.633C97.349 300.122 97.2537 299.667 97.063 299.268C96.8724 298.869 96.6037 298.557 96.257 298.332C95.919 298.107 95.5334 297.994 95.1 297.994C94.6667 297.994 94.2767 298.107 93.93 298.332C93.5834 298.557 93.3147 298.869 93.124 299.268C92.9334 299.667 92.838 300.122 92.838 300.633C92.838 301.144 92.9334 301.604 93.124 302.011C93.3147 302.41 93.5834 302.722 93.93 302.947C94.2767 303.172 94.6667 303.285 95.1 303.285ZM102.849 303.285C103.248 303.285 103.646 303.207 104.045 303.051C104.452 302.895 104.76 302.704 104.968 302.479L105.566 303.116C105.28 303.428 104.877 303.679 104.357 303.87C103.846 304.061 103.347 304.156 102.862 304.156C102.264 304.156 101.705 304.004 101.185 303.701C100.665 303.398 100.245 302.977 99.924 302.44C99.612 301.894 99.456 301.287 99.456 300.62C99.456 299.97 99.6033 299.376 99.898 298.839C100.201 298.302 100.604 297.881 101.107 297.578C101.618 297.275 102.173 297.123 102.771 297.123C103.776 297.123 104.556 297.474 105.111 298.176C105.674 298.878 105.956 299.823 105.956 301.01H100.457C100.526 301.677 100.778 302.223 101.211 302.648C101.653 303.073 102.199 303.285 102.849 303.285ZM102.81 297.994C102.203 297.994 101.683 298.193 101.25 298.592C100.817 298.982 100.557 299.498 100.47 300.139H104.994C104.925 299.498 104.704 298.982 104.331 298.592C103.958 298.193 103.451 297.994 102.81 297.994ZM108.469 298.592C108.668 298.141 108.998 297.786 109.457 297.526C109.916 297.257 110.454 297.123 111.069 297.123V297.994C110.566 297.994 110.116 298.089 109.717 298.28C109.327 298.471 109.019 298.739 108.794 299.086C108.577 299.424 108.469 299.81 108.469 300.243V304H107.494V297.279H108.469V298.592Z" fill="#CBD4D8"/>
<rect x="142.5" y="60.5" width="125" height="39" rx="3.5" stroke="#E0F6FF"/>
<path d="M179.048 76.551V78.813H183.65V80.295H179.048V84H177.423V75.069H184.144V76.551H179.048ZM188.534 82.882C188.872 82.882 189.214 82.817 189.561 82.687C189.908 82.557 190.189 82.388 190.406 82.18L191.316 83.116C191.03 83.4193 190.627 83.6707 190.107 83.87C189.587 84.0607 189.08 84.156 188.586 84.156C187.945 84.156 187.351 84.0043 186.805 83.701C186.268 83.3977 185.839 82.9773 185.518 82.44C185.206 81.9027 185.05 81.296 185.05 80.62C185.05 79.9527 185.202 79.3547 185.505 78.826C185.808 78.2973 186.224 77.8813 186.753 77.578C187.282 77.2747 187.862 77.123 188.495 77.123C189.526 77.123 190.332 77.4783 190.913 78.189C191.502 78.8997 191.797 79.8703 191.797 81.101H186.584C186.671 81.6383 186.887 82.0717 187.234 82.401C187.589 82.7217 188.023 82.882 188.534 82.882ZM188.508 78.397C188.031 78.397 187.62 78.5487 187.273 78.852C186.926 79.1467 186.701 79.5453 186.597 80.048H190.263C190.185 79.554 189.994 79.1553 189.691 78.852C189.396 78.5487 189.002 78.397 188.508 78.397ZM197.077 77.123C197.666 77.123 198.195 77.2747 198.663 77.578C199.131 77.8727 199.499 78.2887 199.768 78.826C200.036 79.3547 200.171 79.957 200.171 80.633C200.171 81.309 200.036 81.9157 199.768 82.453C199.499 82.9903 199.131 83.4107 198.663 83.714C198.195 84.0087 197.666 84.156 197.077 84.156C196.565 84.156 196.106 84.0433 195.699 83.818C195.291 83.5927 194.958 83.272 194.698 82.856V84H193.112V74.913H194.698V78.41C194.958 78.0027 195.291 77.6863 195.699 77.461C196.115 77.2357 196.574 77.123 197.077 77.123ZM196.648 82.804C197.22 82.804 197.688 82.6003 198.052 82.193C198.416 81.7857 198.598 81.2657 198.598 80.633C198.598 80.0003 198.416 79.4847 198.052 79.086C197.688 78.6787 197.22 78.475 196.648 78.475C196.093 78.475 195.638 78.6787 195.283 79.086C194.927 79.4847 194.75 80.0003 194.75 80.633C194.75 81.049 194.828 81.4217 194.984 81.751C195.148 82.0803 195.374 82.3403 195.66 82.531C195.954 82.713 196.284 82.804 196.648 82.804ZM203.167 78.553C203.384 78.111 203.704 77.7643 204.129 77.513C204.554 77.253 205.035 77.123 205.572 77.123V78.475C204.853 78.475 204.272 78.67 203.83 79.06C203.388 79.45 203.167 79.9657 203.167 80.607V84H201.581V77.279H203.167V78.553ZM212.947 77.279V84H211.361V83.09C211.153 83.4107 210.862 83.6707 210.49 83.87C210.117 84.0607 209.71 84.156 209.268 84.156C208.782 84.156 208.349 84.0477 207.968 83.831C207.595 83.6057 207.3 83.298 207.084 82.908C206.876 82.5093 206.772 82.0587 206.772 81.556V77.279H208.319V81.244C208.319 81.7033 208.449 82.0803 208.709 82.375C208.969 82.661 209.307 82.804 209.723 82.804C210.182 82.804 210.568 82.6653 210.88 82.388C211.2 82.102 211.361 81.7553 211.361 81.348V77.279H212.947ZM217.517 77.123C218.401 77.123 219.098 77.383 219.61 77.903C220.13 78.4143 220.39 79.099 220.39 79.957V84H218.843V83.207C218.6 83.5017 218.288 83.7357 217.907 83.909C217.525 84.0737 217.135 84.156 216.737 84.156C216.26 84.156 215.831 84.0693 215.45 83.896C215.077 83.714 214.782 83.4627 214.566 83.142C214.349 82.8127 214.241 82.4357 214.241 82.011C214.241 81.5777 214.362 81.192 214.605 80.854C214.847 80.516 215.177 80.2517 215.593 80.061C216.009 79.8703 216.468 79.775 216.971 79.775C217.569 79.775 218.193 79.892 218.843 80.126V79.957C218.843 79.515 218.708 79.151 218.44 78.865C218.18 78.5703 217.768 78.423 217.205 78.423C216.667 78.423 216.061 78.592 215.385 78.93L214.839 77.825C215.792 77.357 216.685 77.123 217.517 77.123ZM217.088 82.999C217.495 82.999 217.868 82.8993 218.206 82.7C218.552 82.5007 218.765 82.232 218.843 81.894V81.127C218.323 80.9623 217.777 80.88 217.205 80.88C216.797 80.88 216.455 80.984 216.178 81.192C215.9 81.3913 215.762 81.647 215.762 81.959C215.762 82.271 215.887 82.5223 216.139 82.713C216.39 82.9037 216.706 82.999 217.088 82.999ZM223.713 78.553C223.93 78.111 224.25 77.7643 224.675 77.513C225.1 77.253 225.581 77.123 226.118 77.123V78.475C225.399 78.475 224.818 78.67 224.376 79.06C223.934 79.45 223.713 79.9657 223.713 80.607V84H222.127V77.279H223.713V78.553ZM228.591 86.34C228.34 86.34 228.08 86.3097 227.811 86.249C227.551 86.1883 227.322 86.1017 227.122 85.989L227.46 84.845C227.764 85.0097 228.05 85.092 228.318 85.092C228.717 85.092 229.003 84.9447 229.176 84.65L229.462 84.052L226.615 77.279H228.292L230.255 82.297L232.101 77.279H233.739L230.892 84.468C230.398 85.6987 229.631 86.3227 228.591 86.34Z" fill="#CBD4D8"/>
<rect x="142" y="104" width="126" height="40" fill="#004B6B"/>
<path d="M197.798 125.972H192.819L191.922 128H190.817L194.756 119.069H195.861L199.8 128H198.695L197.798 125.972ZM197.382 125.01L195.315 120.317L193.235 125.01H197.382ZM204.577 121.123C205.158 121.123 205.682 121.275 206.15 121.578C206.627 121.873 207 122.289 207.268 122.826C207.537 123.355 207.671 123.957 207.671 124.633C207.671 125.309 207.537 125.916 207.268 126.453C207 126.99 206.627 127.411 206.15 127.714C205.682 128.009 205.158 128.156 204.577 128.156C204.049 128.156 203.572 128.035 203.147 127.792C202.731 127.541 202.393 127.19 202.133 126.739V130.236H201.158V121.279H202.133V122.54C202.393 122.089 202.731 121.743 203.147 121.5C203.572 121.249 204.049 121.123 204.577 121.123ZM204.395 127.285C204.829 127.285 205.214 127.172 205.552 126.947C205.899 126.722 206.168 126.41 206.358 126.011C206.549 125.604 206.644 125.144 206.644 124.633C206.644 124.122 206.549 123.667 206.358 123.268C206.168 122.869 205.899 122.557 205.552 122.332C205.214 122.107 204.829 121.994 204.395 121.994C203.962 121.994 203.572 122.107 203.225 122.332C202.879 122.557 202.61 122.869 202.419 123.268C202.229 123.667 202.133 124.122 202.133 124.633C202.133 125.144 202.229 125.604 202.419 126.011C202.61 126.41 202.879 126.722 203.225 126.947C203.572 127.172 203.962 127.285 204.395 127.285ZM210.285 122.592C210.485 122.141 210.814 121.786 211.273 121.526C211.733 121.257 212.27 121.123 212.885 121.123V121.994C212.383 121.994 211.932 122.089 211.533 122.28C211.143 122.471 210.836 122.739 210.61 123.086C210.394 123.424 210.285 123.81 210.285 124.243V128H209.31V121.279H210.285V122.592ZM214.365 121.279H215.34V128H214.365V121.279ZM214.859 120.057C214.677 120.057 214.521 119.992 214.391 119.862C214.269 119.732 214.209 119.58 214.209 119.407C214.209 119.234 214.269 119.086 214.391 118.965C214.521 118.835 214.677 118.77 214.859 118.77C215.032 118.77 215.179 118.835 215.301 118.965C215.431 119.086 215.496 119.234 215.496 119.407C215.496 119.58 215.431 119.732 215.301 119.862C215.179 119.992 215.032 120.057 214.859 120.057ZM217.502 118.913H218.477V128H217.502V118.913Z" fill="#CBD4D8"/>
<rect x="142" y="148" width="126" height="40" fill="#004B6B"/>
<path d="M193.077 172.156C192.548 172.156 192.024 172.017 191.504 171.74C190.993 171.463 190.603 171.107 190.334 170.674L191.075 169.946C191.248 170.319 191.521 170.626 191.894 170.869C192.275 171.112 192.67 171.233 193.077 171.233C193.606 171.233 194.039 171.034 194.377 170.635C194.715 170.236 194.884 169.721 194.884 169.088V163.069H195.898V169.088C195.898 169.677 195.777 170.206 195.534 170.674C195.3 171.142 194.966 171.506 194.533 171.766C194.108 172.026 193.623 172.156 193.077 172.156ZM203.74 165.279V172H202.765V170.934C202.565 171.298 202.266 171.593 201.868 171.818C201.469 172.043 201.031 172.156 200.555 172.156C200.061 172.156 199.623 172.048 199.242 171.831C198.86 171.614 198.561 171.311 198.345 170.921C198.137 170.522 198.033 170.067 198.033 169.556V165.279H199.008V169.426C199.008 169.981 199.164 170.431 199.476 170.778C199.788 171.116 200.191 171.285 200.685 171.285C201.057 171.285 201.404 171.207 201.725 171.051C202.045 170.895 202.297 170.687 202.479 170.427C202.669 170.158 202.765 169.868 202.765 169.556V165.279H203.74ZM209.081 165.123C209.575 165.123 210.013 165.231 210.394 165.448C210.775 165.665 211.07 165.972 211.278 166.371C211.495 166.761 211.603 167.212 211.603 167.723V172H210.628V167.853C210.628 167.298 210.472 166.852 210.16 166.514C209.848 166.167 209.445 165.994 208.951 165.994C208.578 165.994 208.232 166.072 207.911 166.228C207.59 166.384 207.335 166.596 207.144 166.865C206.962 167.125 206.871 167.411 206.871 167.723V172H205.896V165.279H206.871V166.345C207.07 165.981 207.369 165.686 207.768 165.461C208.167 165.236 208.604 165.123 209.081 165.123ZM216.438 171.285C216.836 171.285 217.235 171.207 217.634 171.051C218.041 170.895 218.349 170.704 218.557 170.479L219.155 171.116C218.869 171.428 218.466 171.679 217.946 171.87C217.434 172.061 216.936 172.156 216.451 172.156C215.853 172.156 215.294 172.004 214.774 171.701C214.254 171.398 213.833 170.977 213.513 170.44C213.201 169.894 213.045 169.287 213.045 168.62C213.045 167.97 213.192 167.376 213.487 166.839C213.79 166.302 214.193 165.881 214.696 165.578C215.207 165.275 215.762 165.123 216.36 165.123C217.365 165.123 218.145 165.474 218.7 166.176C219.263 166.878 219.545 167.823 219.545 169.01H214.046C214.115 169.677 214.366 170.223 214.8 170.648C215.242 171.073 215.788 171.285 216.438 171.285ZM216.399 165.994C215.792 165.994 215.272 166.193 214.839 166.592C214.405 166.982 214.145 167.498 214.059 168.139H218.583C218.513 167.498 218.292 166.982 217.92 166.592C217.547 166.193 217.04 165.994 216.399 165.994Z" fill="#CBD4D8"/>
<rect x="142" y="192" width="126" height="40" fill="#004B6B"/>
<path d="M190.542 213.972H185.563L184.666 216H183.561L187.5 207.069H188.605L192.544 216H191.439L190.542 213.972ZM190.126 213.01L188.059 208.317L185.979 213.01H190.126ZM199.453 209.279V216H198.478V214.934C198.279 215.298 197.98 215.593 197.581 215.818C197.183 216.043 196.745 216.156 196.268 216.156C195.774 216.156 195.337 216.048 194.955 215.831C194.574 215.614 194.275 215.311 194.058 214.921C193.85 214.522 193.746 214.067 193.746 213.556V209.279H194.721V213.426C194.721 213.981 194.877 214.431 195.189 214.778C195.501 215.116 195.904 215.285 196.398 215.285C196.771 215.285 197.118 215.207 197.438 215.051C197.759 214.895 198.01 214.687 198.192 214.427C198.383 214.158 198.478 213.868 198.478 213.556V209.279H199.453ZM207.538 209.279V215.285C207.538 215.857 207.395 216.364 207.109 216.806C206.832 217.257 206.442 217.608 205.939 217.859C205.445 218.11 204.877 218.236 204.236 218.236C203.707 218.236 203.2 218.154 202.715 217.989C202.23 217.824 201.831 217.608 201.519 217.339L201.948 216.572C202.208 216.823 202.529 217.018 202.91 217.157C203.291 217.296 203.69 217.365 204.106 217.365C204.877 217.365 205.48 217.183 205.913 216.819C206.346 216.455 206.563 215.944 206.563 215.285V214.193C206.303 214.609 205.961 214.934 205.536 215.168C205.12 215.393 204.648 215.506 204.119 215.506C203.521 215.506 202.988 215.372 202.52 215.103C202.052 214.826 201.684 214.444 201.415 213.959C201.155 213.474 201.025 212.923 201.025 212.308C201.025 211.693 201.155 211.142 201.415 210.657C201.684 210.172 202.052 209.795 202.52 209.526C202.988 209.257 203.521 209.123 204.119 209.123C204.648 209.123 205.12 209.24 205.536 209.474C205.961 209.699 206.303 210.02 206.563 210.436V209.279H207.538ZM204.301 214.635C204.734 214.635 205.124 214.535 205.471 214.336C205.818 214.137 206.086 213.864 206.277 213.517C206.468 213.162 206.563 212.759 206.563 212.308C206.563 211.866 206.468 211.472 206.277 211.125C206.086 210.77 205.818 210.492 205.471 210.293C205.124 210.094 204.734 209.994 204.301 209.994C203.868 209.994 203.478 210.094 203.131 210.293C202.793 210.492 202.529 210.77 202.338 211.125C202.147 211.472 202.052 211.866 202.052 212.308C202.052 212.759 202.147 213.162 202.338 213.517C202.529 213.864 202.793 214.137 203.131 214.336C203.478 214.535 203.868 214.635 204.301 214.635ZM215.249 209.279V216H214.274V214.934C214.075 215.298 213.776 215.593 213.377 215.818C212.979 216.043 212.541 216.156 212.064 216.156C211.57 216.156 211.133 216.048 210.751 215.831C210.37 215.614 210.071 215.311 209.854 214.921C209.646 214.522 209.542 214.067 209.542 213.556V209.279H210.517V213.426C210.517 213.981 210.673 214.431 210.985 214.778C211.297 215.116 211.7 215.285 212.194 215.285C212.567 215.285 212.914 215.207 213.234 215.051C213.555 214.895 213.806 214.687 213.988 214.427C214.179 214.158 214.274 213.868 214.274 213.556V209.279H215.249ZM219.486 216.156C219.009 216.156 218.524 216.069 218.03 215.896C217.545 215.723 217.103 215.476 216.704 215.155L217.211 214.44C217.982 215.003 218.741 215.285 219.486 215.285C219.928 215.285 220.283 215.19 220.552 214.999C220.829 214.808 220.968 214.553 220.968 214.232C220.968 214.007 220.894 213.82 220.747 213.673C220.6 213.517 220.413 213.396 220.188 213.309C219.971 213.222 219.668 213.123 219.278 213.01C218.455 212.776 217.874 212.52 217.536 212.243C217.198 211.957 217.029 211.576 217.029 211.099C217.029 210.501 217.25 210.024 217.692 209.669C218.134 209.305 218.697 209.123 219.382 209.123C219.789 209.123 220.201 209.192 220.617 209.331C221.033 209.461 221.423 209.643 221.787 209.877L221.319 210.631C220.652 210.206 220.006 209.994 219.382 209.994C218.983 209.994 218.654 210.081 218.394 210.254C218.134 210.427 218.004 210.67 218.004 210.982C218.004 211.173 218.06 211.329 218.173 211.45C218.286 211.571 218.455 211.68 218.68 211.775C218.905 211.87 219.261 211.996 219.746 212.152C220.223 212.299 220.608 212.442 220.903 212.581C221.198 212.72 221.445 212.915 221.644 213.166C221.843 213.409 221.943 213.729 221.943 214.128C221.943 214.735 221.709 215.224 221.241 215.597C220.782 215.97 220.197 216.156 219.486 216.156ZM226.595 215.727C226.231 216.013 225.815 216.156 225.347 216.156C224.87 216.156 224.476 215.996 224.164 215.675C223.861 215.354 223.709 214.943 223.709 214.44V210.15H222.656V209.279H223.709V207.433H224.684V209.279H226.335V210.15H224.684V214.44C224.684 214.683 224.753 214.886 224.892 215.051C225.039 215.207 225.213 215.285 225.412 215.285C225.559 215.285 225.694 215.259 225.815 215.207C225.936 215.155 226.036 215.09 226.114 215.012L226.595 215.727Z" fill="#CBD4D8"/>
<rect x="142" y="236" width="126" height="40" rx="4" fill="#2EC0FF"/>
<path d="M184.509 260.156C183.677 260.156 182.901 259.948 182.182 259.532C181.462 259.107 180.89 258.54 180.466 257.829C180.041 257.118 179.829 256.351 179.829 255.528C179.829 254.705 180.041 253.942 180.466 253.24C180.89 252.529 181.462 251.966 182.182 251.55C182.901 251.125 183.677 250.913 184.509 250.913C185.341 250.913 186.116 251.125 186.836 251.55C187.555 251.966 188.127 252.529 188.552 253.24C188.985 253.942 189.202 254.705 189.202 255.528C189.202 256.351 188.985 257.118 188.552 257.829C188.127 258.54 187.555 259.107 186.836 259.532C186.116 259.948 185.341 260.156 184.509 260.156ZM184.509 258.674C185.046 258.674 185.549 258.531 186.017 258.245C186.485 257.959 186.853 257.578 187.122 257.101C187.399 256.616 187.538 256.091 187.538 255.528C187.538 254.973 187.399 254.458 187.122 253.981C186.853 253.496 186.485 253.11 186.017 252.824C185.549 252.538 185.046 252.395 184.509 252.395C183.971 252.395 183.469 252.538 183.001 252.824C182.541 253.11 182.173 253.496 181.896 253.981C181.618 254.458 181.48 254.973 181.48 255.528C181.48 256.091 181.618 256.616 181.896 257.101C182.173 257.578 182.541 257.959 183.001 258.245C183.469 258.531 183.971 258.674 184.509 258.674ZM193.824 260.156C193.183 260.156 192.585 259.996 192.03 259.675C191.484 259.354 191.047 258.925 190.717 258.388C190.388 257.842 190.223 257.257 190.223 256.633C190.223 256.009 190.388 255.428 190.717 254.891C191.047 254.354 191.489 253.925 192.043 253.604C192.598 253.283 193.196 253.123 193.837 253.123C194.34 253.123 194.808 253.223 195.241 253.422C195.675 253.613 196.056 253.877 196.385 254.215L195.319 255.151C195.137 254.943 194.912 254.778 194.643 254.657C194.375 254.536 194.102 254.475 193.824 254.475C193.46 254.475 193.122 254.575 192.81 254.774C192.498 254.965 192.251 255.229 192.069 255.567C191.887 255.896 191.796 256.252 191.796 256.633C191.796 257.023 191.887 257.387 192.069 257.725C192.251 258.054 192.498 258.319 192.81 258.518C193.122 258.709 193.46 258.804 193.824 258.804C194.11 258.804 194.388 258.743 194.656 258.622C194.934 258.492 195.168 258.319 195.358 258.102L196.424 259.025C196.086 259.38 195.696 259.658 195.254 259.857C194.812 260.056 194.336 260.156 193.824 260.156ZM201.189 259.623C200.998 259.788 200.773 259.918 200.513 260.013C200.261 260.108 200.006 260.156 199.746 260.156C199.191 260.156 198.736 259.974 198.381 259.61C198.034 259.246 197.861 258.782 197.861 258.219V254.592H196.886V253.279H197.861V251.433H199.395V253.279H200.916V254.592H199.395V258.024C199.395 258.249 199.46 258.436 199.59 258.583C199.72 258.73 199.88 258.804 200.071 258.804C200.201 258.804 200.322 258.782 200.435 258.739C200.556 258.696 200.656 258.635 200.734 258.557L201.189 259.623ZM205.482 260.156C204.832 260.156 204.23 260 203.675 259.688C203.12 259.367 202.678 258.938 202.349 258.401C202.028 257.855 201.868 257.266 201.868 256.633C201.868 256 202.028 255.415 202.349 254.878C202.678 254.341 203.12 253.916 203.675 253.604C204.23 253.283 204.832 253.123 205.482 253.123C206.132 253.123 206.73 253.283 207.276 253.604C207.831 253.916 208.268 254.341 208.589 254.878C208.91 255.415 209.07 256 209.07 256.633C209.07 257.266 208.91 257.855 208.589 258.401C208.268 258.938 207.831 259.367 207.276 259.688C206.73 260 206.132 260.156 205.482 260.156ZM205.482 258.804C205.846 258.804 206.184 258.709 206.496 258.518C206.808 258.319 207.055 258.054 207.237 257.725C207.428 257.387 207.523 257.023 207.523 256.633C207.523 256.243 207.432 255.883 207.25 255.554C207.068 255.225 206.817 254.965 206.496 254.774C206.184 254.575 205.846 254.475 205.482 254.475C205.109 254.475 204.767 254.575 204.455 254.774C204.143 254.965 203.892 255.225 203.701 255.554C203.519 255.883 203.428 256.243 203.428 256.633C203.428 257.023 203.519 257.387 203.701 257.725C203.892 258.054 204.143 258.319 204.455 258.518C204.767 258.709 205.109 258.804 205.482 258.804ZM214.403 253.123C214.993 253.123 215.521 253.275 215.989 253.578C216.457 253.873 216.826 254.289 217.094 254.826C217.363 255.355 217.497 255.957 217.497 256.633C217.497 257.309 217.363 257.916 217.094 258.453C216.826 258.99 216.457 259.411 215.989 259.714C215.521 260.009 214.993 260.156 214.403 260.156C213.892 260.156 213.433 260.043 213.025 259.818C212.618 259.593 212.284 259.272 212.024 258.856V260H210.438V250.913H212.024V254.41C212.284 254.003 212.618 253.686 213.025 253.461C213.441 253.236 213.901 253.123 214.403 253.123ZM213.974 258.804C214.546 258.804 215.014 258.6 215.378 258.193C215.742 257.786 215.924 257.266 215.924 256.633C215.924 256 215.742 255.485 215.378 255.086C215.014 254.679 214.546 254.475 213.974 254.475C213.42 254.475 212.965 254.679 212.609 255.086C212.254 255.485 212.076 256 212.076 256.633C212.076 257.049 212.154 257.422 212.31 257.751C212.475 258.08 212.7 258.34 212.986 258.531C213.281 258.713 213.61 258.804 213.974 258.804ZM221.898 258.882C222.236 258.882 222.578 258.817 222.925 258.687C223.271 258.557 223.553 258.388 223.77 258.18L224.68 259.116C224.394 259.419 223.991 259.671 223.471 259.87C222.951 260.061 222.444 260.156 221.95 260.156C221.308 260.156 220.715 260.004 220.169 259.701C219.631 259.398 219.202 258.977 218.882 258.44C218.57 257.903 218.414 257.296 218.414 256.62C218.414 255.953 218.565 255.355 218.869 254.826C219.172 254.297 219.588 253.881 220.117 253.578C220.645 253.275 221.226 253.123 221.859 253.123C222.89 253.123 223.696 253.478 224.277 254.189C224.866 254.9 225.161 255.87 225.161 257.101H219.948C220.034 257.638 220.251 258.072 220.598 258.401C220.953 258.722 221.386 258.882 221.898 258.882ZM221.872 254.397C221.395 254.397 220.983 254.549 220.637 254.852C220.29 255.147 220.065 255.545 219.961 256.048H223.627C223.549 255.554 223.358 255.155 223.055 254.852C222.76 254.549 222.366 254.397 221.872 254.397ZM228.062 254.553C228.278 254.111 228.599 253.764 229.024 253.513C229.448 253.253 229.929 253.123 230.467 253.123V254.475C229.747 254.475 229.167 254.67 228.725 255.06C228.283 255.45 228.062 255.966 228.062 256.607V260H226.476V253.279H228.062V254.553Z" fill="black"/>
<rect x="142" y="236" width="18" height="40" fill="#2EC0FF"/>
<path d="M174.495 295.069H177.511C178.447 295.069 179.279 295.26 180.007 295.641C180.743 296.022 181.315 296.551 181.723 297.227C182.139 297.903 182.347 298.67 182.347 299.528C182.347 300.386 182.139 301.157 181.723 301.842C181.315 302.518 180.743 303.047 180.007 303.428C179.279 303.809 178.447 304 177.511 304H174.495V295.069ZM177.511 303.077C178.247 303.077 178.902 302.925 179.474 302.622C180.054 302.319 180.505 301.898 180.826 301.361C181.155 300.824 181.32 300.213 181.32 299.528C181.32 298.843 181.155 298.237 180.826 297.708C180.505 297.171 180.054 296.75 179.474 296.447C178.902 296.144 178.247 295.992 177.511 295.992H175.509V303.077H177.511ZM186.934 303.285C187.333 303.285 187.731 303.207 188.13 303.051C188.537 302.895 188.845 302.704 189.053 302.479L189.651 303.116C189.365 303.428 188.962 303.679 188.442 303.87C187.931 304.061 187.432 304.156 186.947 304.156C186.349 304.156 185.79 304.004 185.27 303.701C184.75 303.398 184.33 302.977 184.009 302.44C183.697 301.894 183.541 301.287 183.541 300.62C183.541 299.97 183.688 299.376 183.983 298.839C184.286 298.302 184.689 297.881 185.192 297.578C185.703 297.275 186.258 297.123 186.856 297.123C187.861 297.123 188.641 297.474 189.196 298.176C189.759 298.878 190.041 299.823 190.041 301.01H184.542C184.611 301.677 184.863 302.223 185.296 302.648C185.738 303.073 186.284 303.285 186.934 303.285ZM186.895 297.994C186.288 297.994 185.768 298.193 185.335 298.592C184.902 298.982 184.642 299.498 184.555 300.139H189.079C189.01 299.498 188.789 298.982 188.416 298.592C188.043 298.193 187.536 297.994 186.895 297.994ZM194.465 304.156C193.85 304.156 193.273 303.996 192.736 303.675C192.199 303.354 191.77 302.925 191.449 302.388C191.137 301.842 190.981 301.257 190.981 300.633C190.981 300.009 191.137 299.428 191.449 298.891C191.77 298.354 192.199 297.925 192.736 297.604C193.273 297.283 193.85 297.123 194.465 297.123C194.916 297.123 195.345 297.21 195.752 297.383C196.168 297.556 196.536 297.799 196.857 298.111L196.181 298.774C195.956 298.531 195.696 298.341 195.401 298.202C195.106 298.063 194.794 297.994 194.465 297.994C194.023 297.994 193.611 298.115 193.23 298.358C192.857 298.592 192.558 298.913 192.333 299.32C192.116 299.727 192.008 300.165 192.008 300.633C192.008 301.11 192.116 301.552 192.333 301.959C192.558 302.358 192.857 302.678 193.23 302.921C193.611 303.164 194.023 303.285 194.465 303.285C194.794 303.285 195.111 303.216 195.414 303.077C195.717 302.93 195.986 302.726 196.22 302.466L196.896 303.129C196.575 303.45 196.203 303.701 195.778 303.883C195.362 304.065 194.924 304.156 194.465 304.156ZM201.054 303.285C201.453 303.285 201.852 303.207 202.25 303.051C202.658 302.895 202.965 302.704 203.173 302.479L203.771 303.116C203.485 303.428 203.082 303.679 202.562 303.87C202.051 304.061 201.553 304.156 201.067 304.156C200.469 304.156 199.91 304.004 199.39 303.701C198.87 303.398 198.45 302.977 198.129 302.44C197.817 301.894 197.661 301.287 197.661 300.62C197.661 299.97 197.809 299.376 198.103 298.839C198.407 298.302 198.81 297.881 199.312 297.578C199.824 297.275 200.378 297.123 200.976 297.123C201.982 297.123 202.762 297.474 203.316 298.176C203.88 298.878 204.161 299.823 204.161 301.01H198.662C198.732 301.677 198.983 302.223 199.416 302.648C199.858 303.073 200.404 303.285 201.054 303.285ZM201.015 297.994C200.409 297.994 199.889 298.193 199.455 298.592C199.022 298.982 198.762 299.498 198.675 300.139H203.199C203.13 299.498 202.909 298.982 202.536 298.592C202.164 298.193 201.657 297.994 201.015 297.994ZM212.966 297.123C213.426 297.123 213.837 297.236 214.201 297.461C214.565 297.678 214.847 297.985 215.046 298.384C215.254 298.774 215.358 299.22 215.358 299.723V304H214.383V299.853C214.383 299.307 214.236 298.861 213.941 298.514C213.655 298.167 213.287 297.994 212.836 297.994C212.299 297.994 211.861 298.159 211.523 298.488C211.185 298.809 211.016 299.22 211.016 299.723V304H210.041V299.853C210.041 299.307 209.894 298.861 209.599 298.514C209.313 298.167 208.945 297.994 208.494 297.994C207.957 297.994 207.519 298.159 207.181 298.488C206.843 298.809 206.674 299.22 206.674 299.723V304H205.699V297.279H206.674V298.267C206.848 297.912 207.103 297.634 207.441 297.435C207.788 297.227 208.182 297.123 208.624 297.123C209.153 297.123 209.612 297.266 210.002 297.552C210.401 297.838 210.687 298.228 210.86 298.722C210.964 298.245 211.207 297.86 211.588 297.565C211.978 297.27 212.438 297.123 212.966 297.123ZM220.787 297.123C221.368 297.123 221.892 297.275 222.36 297.578C222.837 297.873 223.209 298.289 223.478 298.826C223.747 299.355 223.881 299.957 223.881 300.633C223.881 301.309 223.747 301.916 223.478 302.453C223.209 302.99 222.837 303.411 222.36 303.714C221.892 304.009 221.368 304.156 220.787 304.156C220.258 304.156 219.782 304.035 219.357 303.792C218.941 303.541 218.603 303.19 218.343 302.739V304H217.368V294.913H218.343V298.54C218.603 298.089 218.941 297.743 219.357 297.5C219.782 297.249 220.258 297.123 220.787 297.123ZM220.605 303.285C221.038 303.285 221.424 303.172 221.762 302.947C222.109 302.722 222.377 302.41 222.568 302.011C222.759 301.604 222.854 301.144 222.854 300.633C222.854 300.122 222.759 299.667 222.568 299.268C222.377 298.869 222.109 298.557 221.762 298.332C221.424 298.107 221.038 297.994 220.605 297.994C220.172 297.994 219.782 298.107 219.435 298.332C219.088 298.557 218.82 298.869 218.629 299.268C218.438 299.667 218.343 300.122 218.343 300.633C218.343 301.144 218.438 301.604 218.629 302.011C218.82 302.41 219.088 302.722 219.435 302.947C219.782 303.172 220.172 303.285 220.605 303.285ZM228.354 303.285C228.753 303.285 229.151 303.207 229.55 303.051C229.957 302.895 230.265 302.704 230.473 302.479L231.071 303.116C230.785 303.428 230.382 303.679 229.862 303.87C229.351 304.061 228.852 304.156 228.367 304.156C227.769 304.156 227.21 304.004 226.69 303.701C226.17 303.398 225.75 302.977 225.429 302.44C225.117 301.894 224.961 301.287 224.961 300.62C224.961 299.97 225.108 299.376 225.403 298.839C225.706 298.302 226.109 297.881 226.612 297.578C227.123 297.275 227.678 297.123 228.276 297.123C229.281 297.123 230.061 297.474 230.616 298.176C231.179 298.878 231.461 299.823 231.461 301.01H225.962C226.031 301.677 226.283 302.223 226.716 302.648C227.158 303.073 227.704 303.285 228.354 303.285ZM228.315 297.994C227.708 297.994 227.188 298.193 226.755 298.592C226.322 298.982 226.062 299.498 225.975 300.139H230.499C230.43 299.498 230.209 298.982 229.836 298.592C229.463 298.193 228.956 297.994 228.315 297.994ZM233.974 298.592C234.173 298.141 234.503 297.786 234.962 297.526C235.421 297.257 235.959 297.123 236.574 297.123V297.994C236.071 297.994 235.621 298.089 235.222 298.28C234.832 298.471 234.524 298.739 234.299 299.086C234.082 299.424 233.974 299.81 233.974 300.243V304H232.999V297.279H233.974V298.592Z" fill="#CBD4D8"/>
<mask id="path-54-inside-1_21_24388" fill="white">
<path d="M16 332H268V384H16V332Z"/>
</mask>
<path d="M16 333H268V331H16V333Z" fill="black" mask="url(#path-54-inside-1_21_24388)"/>
<path d="M108.5 352C108.5 350.067 110.067 348.5 112 348.5H185C186.933 348.5 188.5 350.067 188.5 352V380C188.5 381.933 186.933 383.5 185 383.5H112C110.067 383.5 108.5 381.933 108.5 380V352Z" stroke="#2EC0FF"/>
<path d="M124.92 370.144C124.152 370.144 123.436 369.952 122.772 369.568C122.108 369.176 121.58 368.652 121.188 367.996C120.796 367.34 120.6 366.632 120.6 365.872C120.6 365.112 120.796 364.408 121.188 363.76C121.58 363.104 122.108 362.584 122.772 362.2C123.436 361.808 124.152 361.612 124.92 361.612C125.512 361.612 126.076 361.732 126.612 361.972C127.156 362.204 127.632 362.528 128.04 362.944L126.972 363.94C126.708 363.636 126.396 363.4 126.036 363.232C125.684 363.064 125.312 362.98 124.92 362.98C124.424 362.98 123.96 363.112 123.528 363.376C123.104 363.64 122.764 363.996 122.508 364.444C122.252 364.884 122.124 365.36 122.124 365.872C122.124 366.392 122.252 366.876 122.508 367.324C122.764 367.764 123.104 368.116 123.528 368.38C123.96 368.644 124.424 368.776 124.92 368.776C125.312 368.776 125.684 368.692 126.036 368.524C126.396 368.356 126.712 368.12 126.984 367.816L128.04 368.8C127.64 369.224 127.168 369.556 126.624 369.796C126.088 370.028 125.52 370.144 124.92 370.144ZM136.001 368.44H132.065L131.417 370H129.749L133.193 361.756H134.861L138.305 370H136.649L136.001 368.44ZM135.485 367.216L134.033 363.748L132.581 367.216H135.485ZM140.742 361.756H142.23L146.586 367.552V361.756H148.074V370H146.586L142.23 364.204V370H140.742V361.756ZM155.131 370.144C154.363 370.144 153.647 369.952 152.983 369.568C152.319 369.176 151.791 368.652 151.399 367.996C151.007 367.34 150.811 366.632 150.811 365.872C150.811 365.112 151.007 364.408 151.399 363.76C151.791 363.104 152.319 362.584 152.983 362.2C153.647 361.808 154.363 361.612 155.131 361.612C155.723 361.612 156.287 361.732 156.823 361.972C157.367 362.204 157.843 362.528 158.251 362.944L157.183 363.94C156.919 363.636 156.607 363.4 156.247 363.232C155.895 363.064 155.523 362.98 155.131 362.98C154.635 362.98 154.171 363.112 153.739 363.376C153.315 363.64 152.975 363.996 152.719 364.444C152.463 364.884 152.335 365.36 152.335 365.872C152.335 366.392 152.463 366.876 152.719 367.324C152.975 367.764 153.315 368.116 153.739 368.38C154.171 368.644 154.635 368.776 155.131 368.776C155.523 368.776 155.895 368.692 156.247 368.524C156.607 368.356 156.923 368.12 157.195 367.816L158.251 368.8C157.851 369.224 157.379 369.556 156.835 369.796C156.299 370.028 155.731 370.144 155.131 370.144ZM162.3 363.124V365.116H166.548V366.484H162.3V368.632H167.004V370H160.8V361.756H167.004V363.124H162.3ZM175.54 368.632V370H169.816V361.756H171.304V368.632H175.54Z" fill="#2EC0FF"/>
<path d="M197.5 352C197.5 350.067 199.067 348.5 201 348.5H264C265.933 348.5 267.5 350.067 267.5 352V380C267.5 381.933 265.933 383.5 264 383.5H201C199.067 383.5 197.5 381.933 197.5 380V352Z" fill="#2EC0FF"/>
<path d="M197.5 352C197.5 350.067 199.067 348.5 201 348.5H264C265.933 348.5 267.5 350.067 267.5 352V380C267.5 381.933 265.933 383.5 264 383.5H201C199.067 383.5 197.5 381.933 197.5 380V352Z" stroke="#2EC0FF"/>
<path d="M215.552 368.44H211.616L210.968 370H209.3L212.744 361.756H214.412L217.856 370H216.2L215.552 368.44ZM215.036 367.216L213.584 363.748L212.132 367.216H215.036ZM220.292 361.756H223.88C224.456 361.756 224.98 361.872 225.452 362.104C225.924 362.336 226.292 362.66 226.556 363.076C226.828 363.492 226.964 363.964 226.964 364.492C226.964 365.02 226.828 365.492 226.556 365.908C226.292 366.324 225.924 366.648 225.452 366.88C224.98 367.112 224.456 367.228 223.88 367.228H221.78V370H220.292V361.756ZM223.7 365.848C224.22 365.848 224.636 365.728 224.948 365.488C225.268 365.24 225.428 364.908 225.428 364.492C225.428 364.076 225.268 363.748 224.948 363.508C224.636 363.26 224.22 363.136 223.7 363.136H221.78V365.848H223.7ZM229.601 361.756H233.189C233.765 361.756 234.289 361.872 234.761 362.104C235.233 362.336 235.601 362.66 235.865 363.076C236.137 363.492 236.273 363.964 236.273 364.492C236.273 365.02 236.137 365.492 235.865 365.908C235.601 366.324 235.233 366.648 234.761 366.88C234.289 367.112 233.765 367.228 233.189 367.228H231.089V370H229.601V361.756ZM233.009 365.848C233.529 365.848 233.945 365.728 234.257 365.488C234.577 365.24 234.737 364.908 234.737 364.492C234.737 364.076 234.577 363.748 234.257 363.508C233.945 363.26 233.529 363.136 233.009 363.136H231.089V365.848H233.009ZM244.634 368.632V370H238.91V361.756H240.398V368.632H244.634ZM249.493 366.904L246.229 361.756H247.993L250.261 365.488L252.565 361.756H254.269L251.017 366.904V370H249.493V366.904Z" fill="black"/>
</svg>
