<svg width="688" height="179" viewBox="0 0 688 179" fill="none" xmlns="http://www.w3.org/2000/svg">
<path d="M31.5 17.5H208.5" stroke="#DDDDDD" stroke-width="2" stroke-linecap="square"/>
<path d="M445 17H620.5M239.5 17H415" stroke="#DDDDDD" stroke-width="2" stroke-linecap="square"/>
<path d="M625.317 52.156C622.821 52.156 620.689 50.037 620.689 47.528C620.689 45.019 622.821 42.913 625.317 42.913C626.591 42.913 627.774 43.446 628.619 44.317L627.696 45.201C627.085 44.551 626.24 44.122 625.317 44.122C623.536 44.122 622.028 45.682 622.028 47.528C622.028 49.387 623.536 50.947 625.317 50.947C626.24 50.947 627.085 50.518 627.696 49.868L628.619 50.752C627.774 51.61 626.591 52.156 625.317 52.156ZM633.02 52.156C631.083 52.156 629.484 50.57 629.484 48.633C629.484 46.696 631.083 45.123 633.02 45.123C634.957 45.123 636.556 46.696 636.556 48.633C636.556 50.57 634.957 52.156 633.02 52.156ZM633.02 51.038C634.255 51.038 635.269 49.959 635.269 48.633C635.269 47.307 634.255 46.241 633.02 46.241C631.785 46.241 630.771 47.307 630.771 48.633C630.771 49.959 631.785 51.038 633.02 51.038ZM641.449 45.123C642.931 45.123 643.958 46.176 643.958 47.723V52H642.71V47.944C642.71 46.93 642.073 46.241 641.163 46.241C640.136 46.241 639.304 46.943 639.304 47.827V52H638.017V45.279H639.304V46.267C639.694 45.591 640.526 45.123 641.449 45.123ZM649.258 45.123C650.74 45.123 651.767 46.176 651.767 47.723V52H650.519V47.944C650.519 46.93 649.882 46.241 648.972 46.241C647.945 46.241 647.113 46.943 647.113 47.827V52H645.826V45.279H647.113V46.267C647.503 45.591 648.335 45.123 649.258 45.123ZM656.56 51.09C657.288 51.09 658.133 50.765 658.549 50.323L659.303 51.116C658.718 51.753 657.535 52.156 656.586 52.156C654.727 52.156 653.115 50.687 653.115 48.62C653.115 46.605 654.636 45.123 656.495 45.123C658.549 45.123 659.745 46.657 659.745 49.049H654.376C654.532 50.232 655.364 51.09 656.56 51.09ZM656.521 46.189C655.442 46.189 654.584 46.943 654.389 48.1H658.497C658.367 47.021 657.691 46.189 656.521 46.189ZM664.143 52.156C662.219 52.156 660.594 50.544 660.594 48.633C660.594 46.722 662.232 45.123 664.143 45.123C665.118 45.123 665.976 45.526 666.626 46.163L665.755 46.969C665.339 46.514 664.754 46.241 664.143 46.241C662.921 46.241 661.894 47.333 661.894 48.633C661.894 49.946 662.921 51.038 664.143 51.038C664.767 51.038 665.365 50.752 665.794 50.284L666.665 51.077C666.015 51.74 665.144 52.156 664.143 52.156ZM670.781 50.791L671.262 51.675C670.898 51.974 670.391 52.156 669.91 52.156C668.87 52.156 668.142 51.402 668.142 50.323V46.371H667.141V45.279H668.142V43.433H669.403V45.279H670.989V46.371H669.403V50.232C669.403 50.7 669.728 51.038 670.105 51.038C670.391 51.038 670.651 50.934 670.781 50.791ZM675.43 51.09C676.158 51.09 677.003 50.765 677.419 50.323L678.173 51.116C677.588 51.753 676.405 52.156 675.456 52.156C673.597 52.156 671.985 50.687 671.985 48.62C671.985 46.605 673.506 45.123 675.365 45.123C677.419 45.123 678.615 46.657 678.615 49.049H673.246C673.402 50.232 674.234 51.09 675.43 51.09ZM675.391 46.189C674.312 46.189 673.454 46.943 673.259 48.1H677.367C677.237 47.021 676.561 46.189 675.391 46.189ZM685.015 42.913H686.302V52H685.015V50.856C684.495 51.662 683.663 52.156 682.636 52.156C680.855 52.156 679.542 50.7 679.542 48.633C679.542 46.579 680.855 45.123 682.636 45.123C683.663 45.123 684.495 45.617 685.015 46.423V42.913ZM682.935 51.038C684.157 51.038 685.015 50.037 685.015 48.633C685.015 47.229 684.157 46.241 682.935 46.241C681.713 46.241 680.842 47.229 680.842 48.633C680.842 50.037 681.713 51.038 682.935 51.038Z" fill="white"/>
<path fill-rule="evenodd" clip-rule="evenodd" d="M636 30C628.268 30 622 23.732 622 16C622 8.268 628.268 2 636 2C643.732 2 650 8.268 650 16C650 23.732 643.732 30 636 30ZM636 0C627.164 0 620 7.164 620 16C620 24.836 627.164 32 636 32C644.836 32 652 24.836 652 16C652 7.164 644.836 0 636 0Z" fill="#E3EAED"/>
<path d="M413.326 52V43.069H414.639L417.772 48.906L420.905 43.069H422.218V52H420.905V45.643L417.772 51.48L414.639 45.643V52H413.326ZM427.041 45.123C428.848 45.123 429.849 46.267 429.849 47.931V52H428.588V51.09C428.094 51.779 427.184 52.156 426.352 52.156C424.935 52.156 423.869 51.324 423.869 50.011C423.869 48.672 425.078 47.775 426.56 47.775C427.223 47.775 427.938 47.918 428.588 48.139V47.931C428.588 47.086 428.198 46.189 426.859 46.189C426.196 46.189 425.559 46.449 424.974 46.748L424.493 45.799C425.455 45.318 426.3 45.123 427.041 45.123ZM426.612 51.142C427.444 51.142 428.367 50.726 428.588 49.894V48.997C428.029 48.828 427.418 48.737 426.755 48.737C425.858 48.737 425.104 49.244 425.104 49.972C425.104 50.7 425.754 51.142 426.612 51.142ZM431.718 52V42.913H433.005V48.724L436.294 45.279H437.854L434.955 48.321L437.724 52H436.19L434.084 49.179L433.005 50.271V52H431.718ZM441.868 51.09C442.596 51.09 443.441 50.765 443.857 50.323L444.611 51.116C444.026 51.753 442.843 52.156 441.894 52.156C440.035 52.156 438.423 50.687 438.423 48.62C438.423 46.605 439.944 45.123 441.803 45.123C443.857 45.123 445.053 46.657 445.053 49.049H439.684C439.84 50.232 440.672 51.09 441.868 51.09ZM441.829 46.189C440.75 46.189 439.892 46.943 439.697 48.1H443.805C443.675 47.021 442.999 46.189 441.829 46.189ZM450.201 52V43.069H451.514V47.723L455.739 43.069H457.403L453.737 47.086L457.65 52H455.999L452.827 47.996L451.514 49.387V52H450.201ZM459.178 52V43.069H460.491L463.624 48.906L466.757 43.069H468.07V52H466.757V45.643L463.624 51.48L460.491 45.643V52H459.178ZM473.517 52.143C472.022 52.143 470.787 51.623 469.851 50.713L470.631 49.738C471.424 50.492 472.36 50.986 473.569 50.986C474.804 50.986 475.441 50.336 475.441 49.621C475.441 48.776 474.7 48.451 473.205 48.113C471.385 47.684 470.176 47.138 470.176 45.526C470.176 44.031 471.476 42.913 473.283 42.913C474.648 42.913 475.675 43.407 476.533 44.174L475.779 45.162C475.025 44.473 474.128 44.07 473.218 44.07C472.217 44.07 471.515 44.694 471.515 45.409C471.515 46.241 472.282 46.527 473.751 46.878C475.532 47.294 476.767 47.892 476.767 49.491C476.767 50.999 475.623 52.143 473.517 52.143ZM484.711 50.791L485.192 51.675C484.828 51.974 484.321 52.156 483.84 52.156C482.8 52.156 482.072 51.402 482.072 50.323V46.371H481.071V45.279H482.072V43.433H483.333V45.279H484.919V46.371H483.333V50.232C483.333 50.7 483.658 51.038 484.035 51.038C484.321 51.038 484.581 50.934 484.711 50.791ZM487.722 46.592C488.138 45.695 489.048 45.123 490.218 45.123V46.241C488.736 46.241 487.722 47.125 487.722 48.425V52H486.435V45.279H487.722V46.592ZM496.14 45.279H497.427V52H496.14V51.038C495.737 51.701 494.918 52.156 493.995 52.156C492.513 52.156 491.486 51.103 491.486 49.556V45.279H492.747V49.335C492.747 50.349 493.384 51.038 494.294 51.038C495.321 51.038 496.14 50.336 496.14 49.452V45.279ZM501.661 52.156C500.673 52.156 499.607 51.805 498.801 51.155L499.386 50.271C500.127 50.817 500.933 51.116 501.674 51.116C502.48 51.116 502.987 50.752 502.987 50.206C502.987 49.569 502.285 49.361 501.427 49.127C499.893 48.698 499.113 48.256 499.113 47.164C499.113 45.929 500.14 45.123 501.557 45.123C502.428 45.123 503.325 45.422 504.04 45.903L503.507 46.813C502.844 46.397 502.168 46.163 501.557 46.163C500.881 46.163 500.335 46.462 500.335 47.021C500.335 47.541 500.79 47.697 501.934 48.048C503.039 48.373 504.209 48.737 504.209 50.076C504.209 51.35 503.143 52.156 501.661 52.156ZM508.546 50.791L509.027 51.675C508.663 51.974 508.156 52.156 507.675 52.156C506.635 52.156 505.907 51.402 505.907 50.323V46.371H504.906V45.279H505.907V43.433H507.168V45.279H508.754V46.371H507.168V50.232C507.168 50.7 507.493 51.038 507.87 51.038C508.156 51.038 508.416 50.934 508.546 50.791ZM515.701 52L512.828 45.279H514.206L516.299 50.505L518.353 45.279H519.744L516.91 52H515.701ZM525.1 52.156C522.604 52.156 520.472 50.037 520.472 47.528C520.472 45.019 522.604 42.913 525.1 42.913C526.374 42.913 527.557 43.446 528.402 44.317L527.479 45.201C526.868 44.551 526.023 44.122 525.1 44.122C523.319 44.122 521.811 45.682 521.811 47.528C521.811 49.387 523.319 50.947 525.1 50.947C526.023 50.947 526.868 50.518 527.479 49.868L528.402 50.752C527.557 51.61 526.374 52.156 525.1 52.156ZM532.738 51.09C533.466 51.09 534.311 50.765 534.727 50.323L535.481 51.116C534.896 51.753 533.713 52.156 532.764 52.156C530.905 52.156 529.293 50.687 529.293 48.62C529.293 46.605 530.814 45.123 532.673 45.123C534.727 45.123 535.923 46.657 535.923 49.049H530.554C530.71 50.232 531.542 51.09 532.738 51.09ZM532.699 46.189C531.62 46.189 530.762 46.943 530.567 48.1H534.675C534.545 47.021 533.869 46.189 532.699 46.189ZM540.762 45.123C542.244 45.123 543.271 46.176 543.271 47.723V52H542.023V47.944C542.023 46.93 541.386 46.241 540.476 46.241C539.449 46.241 538.617 46.943 538.617 47.827V52H537.33V45.279H538.617V46.267C539.007 45.591 539.839 45.123 540.762 45.123ZM548.012 50.791L548.493 51.675C548.129 51.974 547.622 52.156 547.141 52.156C546.101 52.156 545.373 51.402 545.373 50.323V46.371H544.372V45.279H545.373V43.433H546.634V45.279H548.22V46.371H546.634V50.232C546.634 50.7 546.959 51.038 547.336 51.038C547.622 51.038 547.882 50.934 548.012 50.791ZM552.662 51.09C553.39 51.09 554.235 50.765 554.651 50.323L555.405 51.116C554.82 51.753 553.637 52.156 552.688 52.156C550.829 52.156 549.217 50.687 549.217 48.62C549.217 46.605 550.738 45.123 552.597 45.123C554.651 45.123 555.847 46.657 555.847 49.049H550.478C550.634 50.232 551.466 51.09 552.662 51.09ZM552.623 46.189C551.544 46.189 550.686 46.943 550.491 48.1H554.599C554.469 47.021 553.793 46.189 552.623 46.189ZM558.541 46.592C558.957 45.695 559.867 45.123 561.037 45.123V46.241C559.555 46.241 558.541 47.125 558.541 48.425V52H557.254V45.279H558.541V46.592Z" fill="white"/>
<path fill-rule="evenodd" clip-rule="evenodd" d="M430 30C422.268 30 416 23.732 416 16C416 8.268 422.268 2 430 2C437.732 2 444 8.268 444 16C444 23.732 437.732 30 430 30ZM430 0C421.164 0 414 7.164 414 16C414 24.836 421.164 32 430 32C438.836 32 446 24.836 446 16C446 7.164 438.836 0 430 0Z" fill="#2EC0FF"/>
<path d="M430 24C434.418 24 438 20.4183 438 16C438 11.5817 434.418 8 430 8C425.582 8 422 11.5817 422 16C422 20.4183 425.582 24 430 24Z" fill="#2EC0FF"/>
<path d="M207.326 52V43.069H208.639L211.772 48.906L214.905 43.069H216.218V52H214.905V45.643L211.772 51.48L208.639 45.643V52H207.326ZM221.041 45.123C222.848 45.123 223.849 46.267 223.849 47.931V52H222.588V51.09C222.094 51.779 221.184 52.156 220.352 52.156C218.935 52.156 217.869 51.324 217.869 50.011C217.869 48.672 219.078 47.775 220.56 47.775C221.223 47.775 221.938 47.918 222.588 48.139V47.931C222.588 47.086 222.198 46.189 220.859 46.189C220.196 46.189 219.559 46.449 218.974 46.748L218.493 45.799C219.455 45.318 220.3 45.123 221.041 45.123ZM220.612 51.142C221.444 51.142 222.367 50.726 222.588 49.894V48.997C222.029 48.828 221.418 48.737 220.755 48.737C219.858 48.737 219.104 49.244 219.104 49.972C219.104 50.7 219.754 51.142 220.612 51.142ZM225.718 52V42.913H227.005V48.724L230.294 45.279H231.854L228.955 48.321L231.724 52H230.19L228.084 49.179L227.005 50.271V52H225.718ZM235.868 51.09C236.596 51.09 237.441 50.765 237.857 50.323L238.611 51.116C238.026 51.753 236.843 52.156 235.894 52.156C234.035 52.156 232.423 50.687 232.423 48.62C232.423 46.605 233.944 45.123 235.803 45.123C237.857 45.123 239.053 46.657 239.053 49.049H233.684C233.84 50.232 234.672 51.09 235.868 51.09ZM235.829 46.189C234.75 46.189 233.892 46.943 233.697 48.1H237.805C237.675 47.021 236.999 46.189 235.829 46.189ZM245.891 52L243.018 45.279H244.396L246.489 50.505L248.543 45.279H249.934L247.1 52H245.891ZM255.29 52.156C252.794 52.156 250.662 50.037 250.662 47.528C250.662 45.019 252.794 42.913 255.29 42.913C256.564 42.913 257.747 43.446 258.592 44.317L257.669 45.201C257.058 44.551 256.213 44.122 255.29 44.122C253.509 44.122 252.001 45.682 252.001 47.528C252.001 49.387 253.509 50.947 255.29 50.947C256.213 50.947 257.058 50.518 257.669 49.868L258.592 50.752C257.747 51.61 256.564 52.156 255.29 52.156ZM262.928 51.09C263.656 51.09 264.501 50.765 264.917 50.323L265.671 51.116C265.086 51.753 263.903 52.156 262.954 52.156C261.095 52.156 259.483 50.687 259.483 48.62C259.483 46.605 261.004 45.123 262.863 45.123C264.917 45.123 266.113 46.657 266.113 49.049H260.744C260.9 50.232 261.732 51.09 262.928 51.09ZM262.889 46.189C261.81 46.189 260.952 46.943 260.757 48.1H264.865C264.735 47.021 264.059 46.189 262.889 46.189ZM270.953 45.123C272.435 45.123 273.462 46.176 273.462 47.723V52H272.214V47.944C272.214 46.93 271.577 46.241 270.667 46.241C269.64 46.241 268.808 46.943 268.808 47.827V52H267.521V45.279H268.808V46.267C269.198 45.591 270.03 45.123 270.953 45.123ZM278.203 50.791L278.684 51.675C278.32 51.974 277.813 52.156 277.332 52.156C276.292 52.156 275.564 51.402 275.564 50.323V46.371H274.563V45.279H275.564V43.433H276.825V45.279H278.411V46.371H276.825V50.232C276.825 50.7 277.15 51.038 277.527 51.038C277.813 51.038 278.073 50.934 278.203 50.791ZM282.852 51.09C283.58 51.09 284.425 50.765 284.841 50.323L285.595 51.116C285.01 51.753 283.827 52.156 282.878 52.156C281.019 52.156 279.407 50.687 279.407 48.62C279.407 46.605 280.928 45.123 282.787 45.123C284.841 45.123 286.037 46.657 286.037 49.049H280.668C280.824 50.232 281.656 51.09 282.852 51.09ZM282.813 46.189C281.734 46.189 280.876 46.943 280.681 48.1H284.789C284.659 47.021 283.983 46.189 282.813 46.189ZM288.731 46.592C289.147 45.695 290.057 45.123 291.227 45.123V46.241C289.745 46.241 288.731 47.125 288.731 48.425V52H287.444V45.279H288.731V46.592ZM298.979 50.791L299.46 51.675C299.096 51.974 298.589 52.156 298.108 52.156C297.068 52.156 296.34 51.402 296.34 50.323V46.371H295.339V45.279H296.34V43.433H297.601V45.279H299.187V46.371H297.601V50.232C297.601 50.7 297.926 51.038 298.303 51.038C298.589 51.038 298.849 50.934 298.979 50.791ZM301.99 46.592C302.406 45.695 303.316 45.123 304.486 45.123V46.241C303.004 46.241 301.99 47.125 301.99 48.425V52H300.703V45.279H301.99V46.592ZM310.408 45.279H311.695V52H310.408V51.038C310.005 51.701 309.186 52.156 308.263 52.156C306.781 52.156 305.754 51.103 305.754 49.556V45.279H307.015V49.335C307.015 50.349 307.652 51.038 308.562 51.038C309.589 51.038 310.408 50.336 310.408 49.452V45.279ZM315.929 52.156C314.941 52.156 313.875 51.805 313.069 51.155L313.654 50.271C314.395 50.817 315.201 51.116 315.942 51.116C316.748 51.116 317.255 50.752 317.255 50.206C317.255 49.569 316.553 49.361 315.695 49.127C314.161 48.698 313.381 48.256 313.381 47.164C313.381 45.929 314.408 45.123 315.825 45.123C316.696 45.123 317.593 45.422 318.308 45.903L317.775 46.813C317.112 46.397 316.436 46.163 315.825 46.163C315.149 46.163 314.603 46.462 314.603 47.021C314.603 47.541 315.058 47.697 316.202 48.048C317.307 48.373 318.477 48.737 318.477 50.076C318.477 51.35 317.411 52.156 315.929 52.156ZM322.814 50.791L323.295 51.675C322.931 51.974 322.424 52.156 321.943 52.156C320.903 52.156 320.175 51.402 320.175 50.323V46.371H319.174V45.279H320.175V43.433H321.436V45.279H323.022V46.371H321.436V50.232C321.436 50.7 321.761 51.038 322.138 51.038C322.424 51.038 322.684 50.934 322.814 50.791ZM328.279 52V43.069H329.592V47.723L333.817 43.069H335.481L331.815 47.086L335.728 52H334.077L330.905 47.996L329.592 49.387V52H328.279ZM337.256 52V43.069H338.569L341.702 48.906L344.835 43.069H346.148V52H344.835V45.643L341.702 51.48L338.569 45.643V52H337.256ZM351.595 52.143C350.1 52.143 348.865 51.623 347.929 50.713L348.709 49.738C349.502 50.492 350.438 50.986 351.647 50.986C352.882 50.986 353.519 50.336 353.519 49.621C353.519 48.776 352.778 48.451 351.283 48.113C349.463 47.684 348.254 47.138 348.254 45.526C348.254 44.031 349.554 42.913 351.361 42.913C352.726 42.913 353.753 43.407 354.611 44.174L353.857 45.162C353.103 44.473 352.206 44.07 351.296 44.07C350.295 44.07 349.593 44.694 349.593 45.409C349.593 46.241 350.36 46.527 351.829 46.878C353.61 47.294 354.845 47.892 354.845 49.491C354.845 50.999 353.701 52.143 351.595 52.143Z" fill="white"/>
<path fill-rule="evenodd" clip-rule="evenodd" d="M224 30C216.268 30 210 23.732 210 16C210 8.268 216.268 2 224 2C231.732 2 238 8.268 238 16C238 23.732 231.732 30 224 30ZM224 0C215.164 0 208 7.164 208 16C208 24.836 215.164 32 224 32C232.836 32 240 24.836 240 16C240 7.164 232.836 0 224 0Z" fill="#67CA16"/>
<path fill-rule="evenodd" clip-rule="evenodd" d="M234 10.06C233.813 9.87371 233.559 9.76917 233.295 9.76917C233.031 9.76917 232.777 9.87371 232.59 10.06L221.49 21.11L215.49 15.11C215.307 14.9124 215.053 14.7957 214.783 14.7854C214.514 14.7751 214.252 14.872 214.054 15.055C213.857 15.2386 213.741 15.4925 213.731 15.7613C213.721 16.0302 213.818 16.2921 214 16.49L221.45 23.94L234 11.47C234.186 11.2826 234.291 11.0291 234.291 10.765C234.291 10.5008 234.186 10.2473 234 10.06Z" fill="#67CA16"/>
<path d="M8.995 52L8.202 50.141H3.574L2.781 52H1.325L5.16 43.069H6.616L10.451 52H8.995ZM4.068 48.997H7.708L5.888 44.759L4.068 48.997ZM16.7204 42.913H18.0074V52H16.7204V50.856C16.2004 51.662 15.3684 52.156 14.3414 52.156C12.5604 52.156 11.2474 50.7 11.2474 48.633C11.2474 46.579 12.5604 45.123 14.3414 45.123C15.3684 45.123 16.2004 45.617 16.7204 46.423V42.913ZM14.6404 51.038C15.8624 51.038 16.7204 50.037 16.7204 48.633C16.7204 47.229 15.8624 46.241 14.6404 46.241C13.4184 46.241 12.5474 47.229 12.5474 48.633C12.5474 50.037 13.4184 51.038 14.6404 51.038ZM24.9993 42.913H26.2863V52H24.9993V50.856C24.4793 51.662 23.6473 52.156 22.6203 52.156C20.8393 52.156 19.5263 50.7 19.5263 48.633C19.5263 46.579 20.8393 45.123 22.6203 45.123C23.6473 45.123 24.4793 45.617 24.9993 46.423V42.913ZM22.9193 51.038C24.1413 51.038 24.9993 50.037 24.9993 48.633C24.9993 47.229 24.1413 46.241 22.9193 46.241C21.6973 46.241 20.8263 47.229 20.8263 48.633C20.8263 50.037 21.6973 51.038 22.9193 51.038ZM32.0266 52V43.069H33.3396V47.723L37.5646 43.069H39.2286L35.5626 47.086L39.4756 52H37.8246L34.6526 47.996L33.3396 49.387V52H32.0266ZM41.0037 52V43.069H42.3167L45.4497 48.906L48.5827 43.069H49.8957V52H48.5827V45.643L45.4497 51.48L42.3167 45.643V52H41.0037ZM55.3428 52.143C53.8478 52.143 52.6128 51.623 51.6768 50.713L52.4568 49.738C53.2498 50.492 54.1858 50.986 55.3948 50.986C56.6298 50.986 57.2668 50.336 57.2668 49.621C57.2668 48.776 56.5258 48.451 55.0308 48.113C53.2108 47.684 52.0018 47.138 52.0018 45.526C52.0018 44.031 53.3018 42.913 55.1088 42.913C56.4738 42.913 57.5008 43.407 58.3588 44.174L57.6048 45.162C56.8508 44.473 55.9538 44.07 55.0438 44.07C54.0428 44.07 53.3408 44.694 53.3408 45.409C53.3408 46.241 54.1078 46.527 55.5768 46.878C57.3578 47.294 58.5928 47.892 58.5928 49.491C58.5928 50.999 57.4488 52.143 55.3428 52.143Z" fill="white"/>
<path fill-rule="evenodd" clip-rule="evenodd" d="M16 30C8.268 30 2 23.732 2 16C2 8.268 8.268 2 16 2C23.732 2 30 8.268 30 16C30 23.732 23.732 30 16 30ZM16 0C7.164 0 0 7.164 0 16C0 24.836 7.164 32 16 32C24.836 32 32 24.836 32 16C32 7.164 24.836 0 16 0Z" fill="#67CA16"/>
<path fill-rule="evenodd" clip-rule="evenodd" d="M26 10.06C25.8127 9.87371 25.5592 9.76917 25.295 9.76917C25.0309 9.76917 24.7774 9.87371 24.59 10.06L13.49 21.11L7.49004 15.11C7.30679 14.9124 7.05265 14.7957 6.78341 14.7854C6.51418 14.7751 6.25186 14.872 6.05404 15.055C5.85744 15.2386 5.74143 15.4925 5.73131 15.7613C5.7212 16.0302 5.81779 16.2921 6.00004 16.49L13.45 23.94L26 11.47C26.1863 11.2826 26.2908 11.0291 26.2908 10.765C26.2908 10.5008 26.1863 10.2473 26 10.06Z" fill="#67CA16"/>
<path d="M421.051 100.863C421.051 102.15 420.05 103.096 418.697 103.261L420.622 106H419.643L417.729 103.283H416.057V106H415.199V98.443H418.268C419.83 98.443 421.051 99.444 421.051 100.863ZM416.057 99.257V102.469H418.114C419.346 102.469 420.182 101.875 420.182 100.863C420.182 99.851 419.346 99.257 418.114 99.257H416.057ZM425.194 106.132C423.577 106.132 422.257 104.79 422.257 103.151C422.257 101.512 423.577 100.181 425.194 100.181C426.8 100.181 428.12 101.512 428.12 103.151C428.12 104.79 426.8 106.132 425.194 106.132ZM425.194 105.395C426.327 105.395 427.262 104.383 427.262 103.151C427.262 101.919 426.327 100.918 425.194 100.918C424.05 100.918 423.115 101.919 423.115 103.151C423.115 104.383 424.05 105.395 425.194 105.395ZM432.183 106.132C430.566 106.132 429.246 104.79 429.246 103.151C429.246 101.512 430.566 100.181 432.183 100.181C433.789 100.181 435.109 101.512 435.109 103.151C435.109 104.79 433.789 106.132 432.183 106.132ZM432.183 105.395C433.316 105.395 434.251 104.383 434.251 103.151C434.251 101.919 433.316 100.918 432.183 100.918C431.039 100.918 430.104 101.919 430.104 103.151C430.104 104.383 431.039 105.395 432.183 105.395ZM438.93 105.164L439.337 105.769C439.04 106 438.666 106.132 438.281 106.132C437.467 106.132 436.895 105.527 436.895 104.68V101.05H436.004V100.313H436.895V98.751H437.72V100.313H439.117V101.05H437.72V104.68C437.72 105.098 438.006 105.395 438.336 105.395C438.589 105.395 438.809 105.296 438.93 105.164ZM447.482 106.132C445.392 106.132 443.61 104.339 443.61 102.216C443.61 100.093 445.392 98.311 447.482 98.311C448.527 98.311 449.495 98.751 450.199 99.466L449.616 100.06C449.066 99.477 448.307 99.103 447.482 99.103C445.854 99.103 444.479 100.533 444.479 102.216C444.479 103.91 445.854 105.34 447.482 105.34C448.307 105.34 449.066 104.966 449.616 104.383L450.199 104.977C449.495 105.681 448.527 106.132 447.482 106.132ZM457.751 106L456.992 104.284H452.779L452.02 106H451.085L454.418 98.443H455.353L458.686 106H457.751ZM453.131 103.47H456.64L454.891 99.499L453.131 103.47ZM465.792 106.132C464.197 106.132 462.844 104.768 462.844 103.151C462.844 101.534 464.197 100.181 465.792 100.181C466.562 100.181 467.277 100.5 467.816 101.017L467.244 101.578C466.87 101.171 466.353 100.918 465.792 100.918C464.659 100.918 463.713 101.941 463.713 103.151C463.713 104.372 464.659 105.395 465.792 105.395C466.364 105.395 466.892 105.131 467.277 104.702L467.849 105.263C467.31 105.802 466.584 106.132 465.792 106.132ZM471.652 105.395C472.323 105.395 473.093 105.098 473.445 104.713L473.951 105.252C473.456 105.791 472.455 106.132 471.663 106.132C470.145 106.132 468.781 104.889 468.781 103.14C468.781 101.446 470.057 100.181 471.586 100.181C473.302 100.181 474.281 101.479 474.281 103.47H469.628C469.749 104.581 470.53 105.395 471.652 105.395ZM471.619 100.918C470.607 100.918 469.793 101.633 469.639 102.733H473.467C473.357 101.71 472.752 100.918 471.619 100.918ZM476.692 101.424C477.033 100.665 477.847 100.181 478.892 100.181V100.918C477.605 100.918 476.692 101.71 476.692 102.821V106H475.867V100.313H476.692V101.424ZM482.628 105.164L483.035 105.769C482.738 106 482.364 106.132 481.979 106.132C481.165 106.132 480.593 105.527 480.593 104.68V101.05H479.702V100.313H480.593V98.751H481.418V100.313H482.815V101.05H481.418V104.68C481.418 105.098 481.704 105.395 482.034 105.395C482.287 105.395 482.507 105.296 482.628 105.164ZM484.838 99.279C484.53 99.279 484.288 99.026 484.288 98.729C484.288 98.443 484.53 98.19 484.838 98.19C485.135 98.19 485.377 98.443 485.377 98.729C485.377 99.026 485.135 99.279 484.838 99.279ZM484.42 106V100.313H485.245V106H484.42ZM488.383 99.532V100.313H489.78V101.05H488.383V106H487.558V101.05H486.667V100.313H487.558V99.532C487.558 98.685 488.13 98.08 488.944 98.08C489.329 98.08 489.703 98.212 490 98.443L489.593 99.048C489.472 98.916 489.252 98.817 488.999 98.817C488.669 98.817 488.383 99.114 488.383 99.532ZM491.469 99.279C491.161 99.279 490.919 99.026 490.919 98.729C490.919 98.443 491.161 98.19 491.469 98.19C491.766 98.19 492.008 98.443 492.008 98.729C492.008 99.026 491.766 99.279 491.469 99.279ZM491.051 106V100.313H491.876V106H491.051ZM496.432 106.132C494.837 106.132 493.484 104.768 493.484 103.151C493.484 101.534 494.837 100.181 496.432 100.181C497.202 100.181 497.917 100.5 498.456 101.017L497.884 101.578C497.51 101.171 496.993 100.918 496.432 100.918C495.299 100.918 494.353 101.941 494.353 103.151C494.353 104.372 495.299 105.395 496.432 105.395C497.004 105.395 497.532 105.131 497.917 104.702L498.489 105.263C497.95 105.802 497.224 106.132 496.432 106.132ZM501.929 100.181C503.48 100.181 504.239 101.16 504.239 102.535V106H503.414V105.109C503.007 105.78 502.16 106.132 501.412 106.132C500.213 106.132 499.333 105.439 499.333 104.317C499.333 103.184 500.345 102.425 501.566 102.425C502.182 102.425 502.831 102.557 503.414 102.744V102.535C503.414 101.765 503.106 100.885 501.874 100.885C501.302 100.885 500.73 101.138 500.213 101.402L499.883 100.731C500.697 100.324 501.379 100.181 501.929 100.181ZM501.555 105.406C502.303 105.406 503.194 105.021 503.414 104.218V103.349C502.897 103.206 502.314 103.118 501.698 103.118C500.851 103.118 500.136 103.602 500.136 104.284C500.136 104.988 500.752 105.406 501.555 105.406ZM508.417 105.164L508.824 105.769C508.527 106 508.153 106.132 507.768 106.132C506.954 106.132 506.382 105.527 506.382 104.68V101.05H505.491V100.313H506.382V98.751H507.207V100.313H508.604V101.05H507.207V104.68C507.207 105.098 507.493 105.395 507.823 105.395C508.076 105.395 508.296 105.296 508.417 105.164ZM512.607 105.395C513.278 105.395 514.048 105.098 514.4 104.713L514.906 105.252C514.411 105.791 513.41 106.132 512.618 106.132C511.1 106.132 509.736 104.889 509.736 103.14C509.736 101.446 511.012 100.181 512.541 100.181C514.257 100.181 515.236 101.479 515.236 103.47H510.583C510.704 104.581 511.485 105.395 512.607 105.395ZM512.574 100.918C511.562 100.918 510.748 101.633 510.594 102.733H514.422C514.312 101.71 513.707 100.918 512.574 100.918ZM520.877 101.424C521.218 100.665 522.032 100.181 523.077 100.181V100.918C521.79 100.918 520.877 101.71 520.877 102.821V106H520.052V100.313H520.877V101.424ZM527.011 105.395C527.682 105.395 528.452 105.098 528.804 104.713L529.31 105.252C528.815 105.791 527.814 106.132 527.022 106.132C525.504 106.132 524.14 104.889 524.14 103.14C524.14 101.446 525.416 100.181 526.945 100.181C528.661 100.181 529.64 101.479 529.64 103.47H524.987C525.108 104.581 525.889 105.395 527.011 105.395ZM526.978 100.918C525.966 100.918 525.152 101.633 524.998 102.733H528.826C528.716 101.71 528.111 100.918 526.978 100.918ZM535.472 100.313H536.297V107.892H535.472V104.933C535.043 105.681 534.317 106.132 533.404 106.132C531.908 106.132 530.786 104.9 530.786 103.151C530.786 101.413 531.908 100.181 533.404 100.181C534.317 100.181 535.043 100.632 535.472 101.38V100.313ZM533.558 105.395C534.68 105.395 535.472 104.46 535.472 103.151C535.472 101.842 534.68 100.918 533.558 100.918C532.447 100.918 531.655 101.842 531.655 103.151C531.655 104.46 532.447 105.395 533.558 105.395ZM542.281 100.313H543.106V106H542.281V105.098C541.951 105.703 541.225 106.132 540.411 106.132C539.146 106.132 538.277 105.241 538.277 103.932V100.313H539.102V103.822C539.102 104.757 539.685 105.395 540.521 105.395C541.489 105.395 542.281 104.735 542.281 103.932V100.313ZM547.613 105.395C548.284 105.395 549.054 105.098 549.406 104.713L549.912 105.252C549.417 105.791 548.416 106.132 547.624 106.132C546.106 106.132 544.742 104.889 544.742 103.14C544.742 101.446 546.018 100.181 547.547 100.181C549.263 100.181 550.242 101.479 550.242 103.47H545.589C545.71 104.581 546.491 105.395 547.613 105.395ZM547.58 100.918C546.568 100.918 545.754 101.633 545.6 102.733H549.428C549.318 101.71 548.713 100.918 547.58 100.918ZM553.588 106.132C552.796 106.132 551.916 105.835 551.234 105.285L551.663 104.68C552.312 105.153 552.961 105.395 553.588 105.395C554.336 105.395 554.842 105.043 554.842 104.504C554.842 103.888 554.182 103.69 553.412 103.47C552.037 103.074 551.509 102.667 551.509 101.853C551.509 100.819 552.367 100.181 553.5 100.181C554.204 100.181 554.93 100.423 555.535 100.819L555.139 101.457C554.567 101.094 554.006 100.918 553.5 100.918C552.862 100.918 552.334 101.204 552.334 101.754C552.334 102.249 552.752 102.403 553.808 102.744C554.721 103.03 555.667 103.338 555.667 104.416C555.667 105.461 554.765 106.132 553.588 106.132ZM559.481 105.164L559.888 105.769C559.591 106 559.217 106.132 558.832 106.132C558.018 106.132 557.446 105.527 557.446 104.68V101.05H556.555V100.313H557.446V98.751H558.271V100.313H559.668V101.05H558.271V104.68C558.271 105.098 558.557 105.395 558.887 105.395C559.14 105.395 559.36 105.296 559.481 105.164ZM563.671 105.395C564.342 105.395 565.112 105.098 565.464 104.713L565.97 105.252C565.475 105.791 564.474 106.132 563.682 106.132C562.164 106.132 560.8 104.889 560.8 103.14C560.8 101.446 562.076 100.181 563.605 100.181C565.321 100.181 566.3 101.479 566.3 103.47H561.647C561.768 104.581 562.549 105.395 563.671 105.395ZM563.638 100.918C562.626 100.918 561.812 101.633 561.658 102.733H565.486C565.376 101.71 564.771 100.918 563.638 100.918ZM572.132 98.311H572.957V106H572.132V104.933C571.703 105.681 570.977 106.132 570.064 106.132C568.568 106.132 567.446 104.9 567.446 103.151C567.446 101.413 568.568 100.181 570.064 100.181C570.977 100.181 571.703 100.632 572.132 101.38V98.311ZM570.218 105.395C571.34 105.395 572.132 104.46 572.132 103.151C572.132 101.842 571.34 100.918 570.218 100.918C569.107 100.918 568.315 101.842 568.315 103.151C568.315 104.46 569.107 105.395 570.218 105.395ZM418.158 122.132C416.31 122.132 415.001 120.779 415.001 118.865V114.443H415.859V118.865C415.859 120.317 416.816 121.351 418.158 121.351C419.5 121.351 420.457 120.317 420.457 118.865V114.443H421.315V118.865C421.315 120.779 420.006 122.132 418.158 122.132ZM426.364 116.181C427.86 116.181 428.982 117.413 428.982 119.151C428.982 120.9 427.86 122.132 426.364 122.132C425.451 122.132 424.725 121.681 424.296 120.933V123.892H423.471V116.313H424.296V117.38C424.725 116.632 425.451 116.181 426.364 116.181ZM426.21 121.395C427.321 121.395 428.113 120.46 428.113 119.151C428.113 117.842 427.321 116.918 426.21 116.918C425.088 116.918 424.296 117.842 424.296 119.151C424.296 120.46 425.088 121.395 426.21 121.395ZM430.654 122V114.311H431.479V122H430.654ZM436.035 122.132C434.418 122.132 433.098 120.79 433.098 119.151C433.098 117.512 434.418 116.181 436.035 116.181C437.641 116.181 438.961 117.512 438.961 119.151C438.961 120.79 437.641 122.132 436.035 122.132ZM436.035 121.395C437.168 121.395 438.103 120.383 438.103 119.151C438.103 117.919 437.168 116.918 436.035 116.918C434.891 116.918 433.956 117.919 433.956 119.151C433.956 120.383 434.891 121.395 436.035 121.395ZM442.617 116.181C444.168 116.181 444.927 117.16 444.927 118.535V122H444.102V121.109C443.695 121.78 442.848 122.132 442.1 122.132C440.901 122.132 440.021 121.439 440.021 120.317C440.021 119.184 441.033 118.425 442.254 118.425C442.87 118.425 443.519 118.557 444.102 118.744V118.535C444.102 117.765 443.794 116.885 442.562 116.885C441.99 116.885 441.418 117.138 440.901 117.402L440.571 116.731C441.385 116.324 442.067 116.181 442.617 116.181ZM442.243 121.406C442.991 121.406 443.882 121.021 444.102 120.218V119.349C443.585 119.206 443.002 119.118 442.386 119.118C441.539 119.118 440.824 119.602 440.824 120.284C440.824 120.988 441.44 121.406 442.243 121.406ZM451.151 114.311H451.976V122H451.151V120.933C450.722 121.681 449.996 122.132 449.083 122.132C447.587 122.132 446.465 120.9 446.465 119.151C446.465 117.413 447.587 116.181 449.083 116.181C449.996 116.181 450.722 116.632 451.151 117.38V114.311ZM449.237 121.395C450.359 121.395 451.151 120.46 451.151 119.151C451.151 117.842 450.359 116.918 449.237 116.918C448.126 116.918 447.334 117.842 447.334 119.151C447.334 120.46 448.126 121.395 449.237 121.395ZM457.735 115.279C457.427 115.279 457.185 115.026 457.185 114.729C457.185 114.443 457.427 114.19 457.735 114.19C458.032 114.19 458.274 114.443 458.274 114.729C458.274 115.026 458.032 115.279 457.735 115.279ZM457.317 122V116.313H458.142V122H457.317ZM462.456 121.164L462.863 121.769C462.566 122 462.192 122.132 461.807 122.132C460.993 122.132 460.421 121.527 460.421 120.68V117.05H459.53V116.313H460.421V114.751H461.246V116.313H462.643V117.05H461.246V120.68C461.246 121.098 461.532 121.395 461.862 121.395C462.115 121.395 462.335 121.296 462.456 121.164ZM469.678 121.164L470.085 121.769C469.788 122 469.414 122.132 469.029 122.132C468.215 122.132 467.643 121.527 467.643 120.68V117.05H466.752V116.313H467.643V114.751H468.468V116.313H469.865V117.05H468.468V120.68C468.468 121.098 468.754 121.395 469.084 121.395C469.337 121.395 469.557 121.296 469.678 121.164ZM473.912 122.132C472.295 122.132 470.975 120.79 470.975 119.151C470.975 117.512 472.295 116.181 473.912 116.181C475.518 116.181 476.838 117.512 476.838 119.151C476.838 120.79 475.518 122.132 473.912 122.132ZM473.912 121.395C475.045 121.395 475.98 120.383 475.98 119.151C475.98 117.919 475.045 116.918 473.912 116.918C472.768 116.918 471.833 117.919 471.833 119.151C471.833 120.383 472.768 121.395 473.912 121.395ZM483.888 121.164L484.295 121.769C483.998 122 483.624 122.132 483.239 122.132C482.425 122.132 481.853 121.527 481.853 120.68V117.05H480.962V116.313H481.853V114.751H482.678V116.313H484.075V117.05H482.678V120.68C482.678 121.098 482.964 121.395 483.294 121.395C483.547 121.395 483.767 121.296 483.888 121.164ZM488.375 116.181C489.64 116.181 490.509 117.072 490.509 118.381V122H489.684V118.491C489.684 117.556 489.101 116.918 488.265 116.918C487.297 116.918 486.505 117.578 486.505 118.381V122H485.68V114.311H486.505V117.215C486.835 116.61 487.561 116.181 488.375 116.181ZM494.884 121.395C495.555 121.395 496.325 121.098 496.677 120.713L497.183 121.252C496.688 121.791 495.687 122.132 494.895 122.132C493.377 122.132 492.013 120.889 492.013 119.14C492.013 117.446 493.289 116.181 494.818 116.181C496.534 116.181 497.513 117.479 497.513 119.47H492.86C492.981 120.581 493.762 121.395 494.884 121.395ZM494.851 116.918C493.839 116.918 493.025 117.633 492.871 118.733H496.699C496.589 117.71 495.984 116.918 494.851 116.918ZM502.571 122V114.443H503.429V118.623L507.257 114.443H508.39L505.211 117.897L508.599 122H507.488L504.617 118.48L503.429 119.734V122H502.571ZM510.247 122V114.443H511.105L513.91 119.712L516.715 114.443H517.573V122H516.715V116.291L513.91 121.56L511.105 116.291V122H510.247ZM522.457 122.121C521.214 122.121 520.235 121.67 519.476 120.922L520.015 120.251C520.653 120.889 521.434 121.34 522.49 121.34C523.656 121.34 524.25 120.702 524.25 120.02C524.25 119.217 523.535 118.898 522.215 118.59C520.697 118.238 519.74 117.765 519.74 116.456C519.74 115.246 520.818 114.311 522.27 114.311C523.392 114.311 524.228 114.751 524.921 115.389L524.393 116.06C523.766 115.455 523.018 115.092 522.226 115.092C521.291 115.092 520.609 115.697 520.609 116.39C520.609 117.171 521.357 117.446 522.644 117.754C524.085 118.095 525.119 118.612 525.119 119.943C525.119 121.142 524.217 122.121 522.457 122.121ZM532.292 121.164L532.699 121.769C532.402 122 532.028 122.132 531.643 122.132C530.829 122.132 530.257 121.527 530.257 120.68V117.05H529.366V116.313H530.257V114.751H531.082V116.313H532.479V117.05H531.082V120.68C531.082 121.098 531.368 121.395 531.698 121.395C531.951 121.395 532.171 121.296 532.292 121.164ZM536.526 122.132C534.909 122.132 533.589 120.79 533.589 119.151C533.589 117.512 534.909 116.181 536.526 116.181C538.132 116.181 539.452 117.512 539.452 119.151C539.452 120.79 538.132 122.132 536.526 122.132ZM536.526 121.395C537.659 121.395 538.594 120.383 538.594 119.151C538.594 117.919 537.659 116.918 536.526 116.918C535.382 116.918 534.447 117.919 534.447 119.151C534.447 120.383 535.382 121.395 536.526 121.395ZM546.744 122.132C545.149 122.132 543.796 120.768 543.796 119.151C543.796 117.534 545.149 116.181 546.744 116.181C547.514 116.181 548.229 116.5 548.768 117.017L548.196 117.578C547.822 117.171 547.305 116.918 546.744 116.918C545.611 116.918 544.665 117.941 544.665 119.151C544.665 120.372 545.611 121.395 546.744 121.395C547.316 121.395 547.844 121.131 548.229 120.702L548.801 121.263C548.262 121.802 547.536 122.132 546.744 122.132ZM552.648 122.132C551.031 122.132 549.711 120.79 549.711 119.151C549.711 117.512 551.031 116.181 552.648 116.181C554.254 116.181 555.574 117.512 555.574 119.151C555.574 120.79 554.254 122.132 552.648 122.132ZM552.648 121.395C553.781 121.395 554.716 120.383 554.716 119.151C554.716 117.919 553.781 116.918 552.648 116.918C551.504 116.918 550.569 117.919 550.569 119.151C550.569 120.383 551.504 121.395 552.648 121.395ZM563.344 116.181C564.532 116.181 565.368 117.094 565.368 118.381V122H564.543V118.491C564.543 117.567 564.004 116.918 563.234 116.918C562.332 116.918 561.694 117.523 561.694 118.381V122H560.869V118.491C560.869 117.567 560.33 116.918 559.56 116.918C558.658 116.918 558.02 117.523 558.02 118.381V122H557.195V116.313H558.02V117.149C558.306 116.555 558.922 116.181 559.67 116.181C560.572 116.181 561.276 116.709 561.562 117.534C561.738 116.731 562.442 116.181 563.344 116.181ZM570.246 116.181C571.742 116.181 572.864 117.413 572.864 119.151C572.864 120.9 571.742 122.132 570.246 122.132C569.333 122.132 568.607 121.681 568.178 120.933V123.892H567.353V116.313H568.178V117.38C568.607 116.632 569.333 116.181 570.246 116.181ZM570.092 121.395C571.203 121.395 571.995 120.46 571.995 119.151C571.995 117.842 571.203 116.918 570.092 116.918C568.97 116.918 568.178 117.842 568.178 119.151C568.178 120.46 568.97 121.395 570.092 121.395ZM574.536 122V114.311H575.361V122H574.536ZM579.873 121.395C580.544 121.395 581.314 121.098 581.666 120.713L582.172 121.252C581.677 121.791 580.676 122.132 579.884 122.132C578.366 122.132 577.002 120.889 577.002 119.14C577.002 117.446 578.278 116.181 579.807 116.181C581.523 116.181 582.502 117.479 582.502 119.47H577.849C577.97 120.581 578.751 121.395 579.873 121.395ZM579.84 116.918C578.828 116.918 578.014 117.633 577.86 118.733H581.688C581.578 117.71 580.973 116.918 579.84 116.918ZM586.288 121.164L586.695 121.769C586.398 122 586.024 122.132 585.639 122.132C584.825 122.132 584.253 121.527 584.253 120.68V117.05H583.362V116.313H584.253V114.751H585.078V116.313H586.475V117.05H585.078V120.68C585.078 121.098 585.364 121.395 585.694 121.395C585.947 121.395 586.167 121.296 586.288 121.164ZM590.478 121.395C591.149 121.395 591.919 121.098 592.271 120.713L592.777 121.252C592.282 121.791 591.281 122.132 590.489 122.132C588.971 122.132 587.607 120.889 587.607 119.14C587.607 117.446 588.883 116.181 590.412 116.181C592.128 116.181 593.107 117.479 593.107 119.47H588.454C588.575 120.581 589.356 121.395 590.478 121.395ZM590.445 116.918C589.433 116.918 588.619 117.633 588.465 118.733H592.293C592.183 117.71 591.578 116.918 590.445 116.918ZM417.157 137.164L417.564 137.769C417.267 138 416.893 138.132 416.508 138.132C415.694 138.132 415.122 137.527 415.122 136.68V133.05H414.231V132.313H415.122V130.751H415.947V132.313H417.344V133.05H415.947V136.68C415.947 137.098 416.233 137.395 416.563 137.395C416.816 137.395 417.036 137.296 417.157 137.164ZM421.644 132.181C422.909 132.181 423.778 133.072 423.778 134.381V138H422.953V134.491C422.953 133.556 422.37 132.918 421.534 132.918C420.566 132.918 419.774 133.578 419.774 134.381V138H418.949V130.311H419.774V133.215C420.104 132.61 420.83 132.181 421.644 132.181ZM428.153 137.395C428.824 137.395 429.594 137.098 429.946 136.713L430.452 137.252C429.957 137.791 428.956 138.132 428.164 138.132C426.646 138.132 425.282 136.889 425.282 135.14C425.282 133.446 426.558 132.181 428.087 132.181C429.803 132.181 430.782 133.479 430.782 135.47H426.129C426.25 136.581 427.031 137.395 428.153 137.395ZM428.12 132.918C427.108 132.918 426.294 133.633 426.14 134.733H429.968C429.858 133.71 429.253 132.918 428.12 132.918ZM438.04 138.132C436.445 138.132 435.092 136.768 435.092 135.151C435.092 133.534 436.445 132.181 438.04 132.181C438.81 132.181 439.525 132.5 440.064 133.017L439.492 133.578C439.118 133.171 438.601 132.918 438.04 132.918C436.907 132.918 435.961 133.941 435.961 135.151C435.961 136.372 436.907 137.395 438.04 137.395C438.612 137.395 439.14 137.131 439.525 136.702L440.097 137.263C439.558 137.802 438.832 138.132 438.04 138.132ZM443.944 138.132C442.327 138.132 441.007 136.79 441.007 135.151C441.007 133.512 442.327 132.181 443.944 132.181C445.55 132.181 446.87 133.512 446.87 135.151C446.87 136.79 445.55 138.132 443.944 138.132ZM443.944 137.395C445.077 137.395 446.012 136.383 446.012 135.151C446.012 133.919 445.077 132.918 443.944 132.918C442.8 132.918 441.865 133.919 441.865 135.151C441.865 136.383 442.8 137.395 443.944 137.395ZM451.186 132.181C452.451 132.181 453.32 133.072 453.32 134.381V138H452.495V134.491C452.495 133.556 451.912 132.918 451.076 132.918C450.108 132.918 449.316 133.578 449.316 134.381V138H448.491V132.313H449.316V133.215C449.646 132.61 450.372 132.181 451.186 132.181ZM457.992 132.181C459.257 132.181 460.126 133.072 460.126 134.381V138H459.301V134.491C459.301 133.556 458.718 132.918 457.882 132.918C456.914 132.918 456.122 133.578 456.122 134.381V138H455.297V132.313H456.122V133.215C456.452 132.61 457.178 132.181 457.992 132.181ZM464.502 137.395C465.173 137.395 465.943 137.098 466.295 136.713L466.801 137.252C466.306 137.791 465.305 138.132 464.513 138.132C462.995 138.132 461.631 136.889 461.631 135.14C461.631 133.446 462.907 132.181 464.436 132.181C466.152 132.181 467.131 133.479 467.131 135.47H462.478C462.599 136.581 463.38 137.395 464.502 137.395ZM464.469 132.918C463.457 132.918 462.643 133.633 462.489 134.733H466.317C466.207 133.71 465.602 132.918 464.469 132.918ZM471.159 138.132C469.564 138.132 468.211 136.768 468.211 135.151C468.211 133.534 469.564 132.181 471.159 132.181C471.929 132.181 472.644 132.5 473.183 133.017L472.611 133.578C472.237 133.171 471.72 132.918 471.159 132.918C470.026 132.918 469.08 133.941 469.08 135.151C469.08 136.372 470.026 137.395 471.159 137.395C471.731 137.395 472.259 137.131 472.644 136.702L473.216 137.263C472.677 137.802 471.951 138.132 471.159 138.132ZM476.821 137.164L477.228 137.769C476.931 138 476.557 138.132 476.172 138.132C475.358 138.132 474.786 137.527 474.786 136.68V133.05H473.895V132.313H474.786V130.751H475.611V132.313H477.008V133.05H475.611V136.68C475.611 137.098 475.897 137.395 476.227 137.395C476.48 137.395 476.7 137.296 476.821 137.164ZM479.031 131.279C478.723 131.279 478.481 131.026 478.481 130.729C478.481 130.443 478.723 130.19 479.031 130.19C479.328 130.19 479.57 130.443 479.57 130.729C479.57 131.026 479.328 131.279 479.031 131.279ZM478.613 138V132.313H479.438V138H478.613ZM483.994 138.132C482.377 138.132 481.057 136.79 481.057 135.151C481.057 133.512 482.377 132.181 483.994 132.181C485.6 132.181 486.92 133.512 486.92 135.151C486.92 136.79 485.6 138.132 483.994 138.132ZM483.994 137.395C485.127 137.395 486.062 136.383 486.062 135.151C486.062 133.919 485.127 132.918 483.994 132.918C482.85 132.918 481.915 133.919 481.915 135.151C481.915 136.383 482.85 137.395 483.994 137.395ZM491.236 132.181C492.501 132.181 493.37 133.072 493.37 134.381V138H492.545V134.491C492.545 133.556 491.962 132.918 491.126 132.918C490.158 132.918 489.366 133.578 489.366 134.381V138H488.541V132.313H489.366V133.215C489.696 132.61 490.422 132.181 491.236 132.181ZM496.184 138.132C495.843 138.132 495.579 137.857 495.579 137.527C495.579 137.219 495.843 136.944 496.184 136.944C496.503 136.944 496.767 137.219 496.767 137.527C496.767 137.857 496.503 138.132 496.184 138.132ZM506.409 138.132C506.068 138.132 505.804 137.857 505.804 137.527C505.804 137.219 506.068 136.944 506.409 136.944C506.728 136.944 506.992 137.219 506.992 137.527C506.992 137.857 506.728 138.132 506.409 138.132Z" fill="white"/>
<path d="M488.704 153.823H417.296C415.476 153.823 414 155.225 414 156.953V174.693C414 176.421 415.476 177.823 417.296 177.823H488.704C490.524 177.823 492 176.421 492 174.693V156.953C492 155.225 490.524 153.823 488.704 153.823Z" stroke="#2EC0FF"/>
<path d="M437.534 169.823L436.962 168.459H433.31L432.738 169.823H431.209L434.366 162.266H435.895L439.052 169.823H437.534ZM433.805 167.271H436.467L435.136 164.092L433.805 167.271ZM443.738 169.955C441.582 169.955 439.767 168.162 439.767 166.039C439.767 163.916 441.582 162.134 443.738 162.134C444.849 162.134 445.861 162.607 446.587 163.355L445.608 164.268C445.146 163.729 444.464 163.388 443.738 163.388C442.341 163.388 441.164 164.598 441.164 166.039C441.164 167.491 442.341 168.701 443.738 168.701C444.475 168.701 445.146 168.36 445.619 167.821L446.587 168.723C445.861 169.482 444.849 169.955 443.738 169.955ZM449.682 169.823V163.52H447.262V162.266H453.466V163.52H451.046V169.823H449.682ZM454.663 169.823V162.266H456.027V169.823H454.663ZM461.29 169.955C459.134 169.955 457.319 168.162 457.319 166.039C457.319 163.916 459.134 162.134 461.29 162.134C463.435 162.134 465.25 163.916 465.25 166.039C465.25 168.162 463.435 169.955 461.29 169.955ZM461.29 168.701C462.676 168.701 463.842 167.491 463.842 166.039C463.842 164.598 462.676 163.388 461.29 163.388C459.893 163.388 458.716 164.598 458.716 166.039C458.716 167.491 459.893 168.701 461.29 168.701ZM466.61 169.823V162.266H467.985L471.978 167.579V162.266H473.342V169.823H471.978L467.985 164.51V169.823H466.61Z" fill="#2EC0FF"/>
<path d="M415.727 77V69.291H412.789V68.069H419.965V69.291H417.04V77H415.727ZM424.707 70.123C426.189 70.123 427.216 71.176 427.216 72.723V77H425.968V72.944C425.968 71.93 425.331 71.241 424.421 71.241C423.394 71.241 422.562 71.943 422.562 72.827V77H421.275V67.913H422.562V71.267C422.952 70.591 423.784 70.123 424.707 70.123ZM430.371 71.592C430.787 70.695 431.697 70.123 432.867 70.123V71.241C431.385 71.241 430.371 72.125 430.371 73.425V77H429.084V70.279H430.371V71.592ZM437.203 76.09C437.931 76.09 438.776 75.765 439.192 75.323L439.946 76.116C439.361 76.753 438.178 77.156 437.229 77.156C435.37 77.156 433.758 75.687 433.758 73.62C433.758 71.605 435.279 70.123 437.138 70.123C439.192 70.123 440.388 71.657 440.388 74.049H435.019C435.175 75.232 436.007 76.09 437.203 76.09ZM437.164 71.189C436.085 71.189 435.227 71.943 435.032 73.1H439.14C439.01 72.021 438.334 71.189 437.164 71.189ZM444.72 76.09C445.448 76.09 446.293 75.765 446.709 75.323L447.463 76.116C446.878 76.753 445.695 77.156 444.746 77.156C442.887 77.156 441.275 75.687 441.275 73.62C441.275 71.605 442.796 70.123 444.655 70.123C446.709 70.123 447.905 71.657 447.905 74.049H442.536C442.692 75.232 443.524 76.09 444.72 76.09ZM444.681 71.189C443.602 71.189 442.744 71.943 442.549 73.1H446.657C446.527 72.021 445.851 71.189 444.681 71.189ZM457.772 67.913H459.059V77H457.772V75.856C457.252 76.662 456.42 77.156 455.393 77.156C453.612 77.156 452.299 75.7 452.299 73.633C452.299 71.579 453.612 70.123 455.393 70.123C456.42 70.123 457.252 70.617 457.772 71.423V67.913ZM455.692 76.038C456.914 76.038 457.772 75.037 457.772 73.633C457.772 72.229 456.914 71.241 455.692 71.241C454.47 71.241 453.599 72.229 453.599 73.633C453.599 75.037 454.47 76.038 455.692 76.038ZM463.607 70.123C465.414 70.123 466.415 71.267 466.415 72.931V77H465.154V76.09C464.66 76.779 463.75 77.156 462.918 77.156C461.501 77.156 460.435 76.324 460.435 75.011C460.435 73.672 461.644 72.775 463.126 72.775C463.789 72.775 464.504 72.918 465.154 73.139V72.931C465.154 72.086 464.764 71.189 463.425 71.189C462.762 71.189 462.125 71.449 461.54 71.748L461.059 70.799C462.021 70.318 462.866 70.123 463.607 70.123ZM463.178 76.142C464.01 76.142 464.933 75.726 465.154 74.894V73.997C464.595 73.828 463.984 73.737 463.321 73.737C462.424 73.737 461.67 74.244 461.67 74.972C461.67 75.7 462.32 76.142 463.178 76.142ZM469.155 79.34C468.7 79.34 468.232 79.236 467.881 79.054L468.167 78.066C468.427 78.209 468.726 78.274 468.986 78.274C469.402 78.274 469.688 78.144 469.909 77.754L470.247 77.039L467.361 70.279H468.739L470.897 75.583L472.938 70.279H474.277L471.313 77.611C470.832 78.82 470.117 79.327 469.155 79.34ZM477.592 77.156C476.604 77.156 475.538 76.805 474.732 76.155L475.317 75.271C476.058 75.817 476.864 76.116 477.605 76.116C478.411 76.116 478.918 75.752 478.918 75.206C478.918 74.569 478.216 74.361 477.358 74.127C475.824 73.698 475.044 73.256 475.044 72.164C475.044 70.929 476.071 70.123 477.488 70.123C478.359 70.123 479.256 70.422 479.971 70.903L479.438 71.813C478.775 71.397 478.099 71.163 477.488 71.163C476.812 71.163 476.266 71.462 476.266 72.021C476.266 72.541 476.721 72.697 477.865 73.048C478.97 73.373 480.14 73.737 480.14 75.076C480.14 76.35 479.074 77.156 477.592 77.156ZM487.62 70.123C489.427 70.123 490.428 71.267 490.428 72.931V77H489.167V76.09C488.673 76.779 487.763 77.156 486.931 77.156C485.514 77.156 484.448 76.324 484.448 75.011C484.448 73.672 485.657 72.775 487.139 72.775C487.802 72.775 488.517 72.918 489.167 73.139V72.931C489.167 72.086 488.777 71.189 487.438 71.189C486.775 71.189 486.138 71.449 485.553 71.748L485.072 70.799C486.034 70.318 486.879 70.123 487.62 70.123ZM487.191 76.142C488.023 76.142 488.946 75.726 489.167 74.894V73.997C488.608 73.828 487.997 73.737 487.334 73.737C486.437 73.737 485.683 74.244 485.683 74.972C485.683 75.7 486.333 76.142 487.191 76.142ZM497.185 70.279H498.472V76.285C498.472 78.014 497.055 79.236 495.066 79.236C493.935 79.236 492.895 78.859 492.258 78.339L492.765 77.377C493.259 77.845 494.065 78.118 494.884 78.118C496.314 78.118 497.185 77.429 497.185 76.259V75.284C496.652 76.051 495.82 76.506 494.819 76.506C493.038 76.506 491.751 75.18 491.751 73.308C491.751 71.436 493.038 70.123 494.819 70.123C495.82 70.123 496.678 70.591 497.185 71.345V70.279ZM495.131 75.388C496.34 75.388 497.185 74.53 497.185 73.308C497.185 72.099 496.34 71.241 495.131 71.241C493.948 71.241 493.09 72.099 493.09 73.308C493.09 74.53 493.948 75.388 495.131 75.388ZM503.464 77.156C501.527 77.156 499.928 75.57 499.928 73.633C499.928 71.696 501.527 70.123 503.464 70.123C505.401 70.123 507 71.696 507 73.633C507 75.57 505.401 77.156 503.464 77.156ZM503.464 76.038C504.699 76.038 505.713 74.959 505.713 73.633C505.713 72.307 504.699 71.241 503.464 71.241C502.229 71.241 501.215 72.307 501.215 73.633C501.215 74.959 502.229 76.038 503.464 76.038Z" fill="white"/>
</svg>
