<svg width="452" height="184" viewBox="0 0 452 184" fill="none" xmlns="http://www.w3.org/2000/svg">
<path d="M41 42.0751H137.5M160.5 42.0751H255M280 42.0751H380.5" stroke="white" stroke-width="2" stroke-linecap="square"/>
<path d="M383.124 69.2119C381.881 69.2119 380.902 68.7609 380.143 68.0129L380.682 67.3419C381.32 67.9799 382.101 68.4309 383.157 68.4309C384.323 68.4309 384.917 67.7929 384.917 67.1109C384.917 66.3079 384.202 65.9889 382.882 65.6809C381.364 65.3289 380.407 64.8559 380.407 63.5469C380.407 62.3369 381.485 61.4019 382.937 61.4019C384.059 61.4019 384.895 61.8419 385.588 62.4799L385.06 63.1509C384.433 62.5459 383.685 62.1829 382.893 62.1829C381.958 62.1829 381.276 62.7879 381.276 63.4809C381.276 64.2619 382.024 64.5369 383.311 64.8449C384.752 65.1859 385.786 65.7029 385.786 67.0339C385.786 68.2329 384.884 69.2119 383.124 69.2119ZM389.729 68.2549L390.136 68.8599C389.839 69.0909 389.465 69.2229 389.08 69.2229C388.266 69.2229 387.694 68.6179 387.694 67.7709V64.1409H386.803V63.4039H387.694V61.8419H388.519V63.4039H389.916V64.1409H388.519V67.7709C388.519 68.1889 388.805 68.4859 389.135 68.4859C389.388 68.4859 389.608 68.3869 389.729 68.2549ZM393.919 68.4859C394.59 68.4859 395.36 68.1889 395.712 67.8039L396.218 68.3429C395.723 68.8819 394.722 69.2229 393.93 69.2229C392.412 69.2229 391.048 67.9799 391.048 66.2309C391.048 64.5369 392.324 63.2719 393.853 63.2719C395.569 63.2719 396.548 64.5699 396.548 66.5609H391.895C392.016 67.6719 392.797 68.4859 393.919 68.4859ZM393.886 64.0089C392.874 64.0089 392.06 64.7239 391.906 65.8239H395.734C395.624 64.8009 395.019 64.0089 393.886 64.0089ZM401.027 63.2719C402.523 63.2719 403.645 64.5039 403.645 66.2419C403.645 67.9909 402.523 69.2229 401.027 69.2229C400.114 69.2229 399.388 68.7719 398.959 68.0239V70.9829H398.134V63.4039H398.959V64.4709C399.388 63.7229 400.114 63.2719 401.027 63.2719ZM400.873 68.4859C401.984 68.4859 402.776 67.5509 402.776 66.2419C402.776 64.9329 401.984 64.0089 400.873 64.0089C399.751 64.0089 398.959 64.9329 398.959 66.2419C398.959 67.5509 399.751 68.4859 400.873 68.4859ZM409.569 62.6229V63.4039H410.966V64.1409H409.569V69.0909H408.744V64.1409H407.853V63.4039H408.744V62.6229C408.744 61.7759 409.316 61.1709 410.13 61.1709C410.515 61.1709 410.889 61.3029 411.186 61.5339L410.779 62.1389C410.658 62.0069 410.438 61.9079 410.185 61.9079C409.855 61.9079 409.569 62.2049 409.569 62.6229ZM414.679 69.2229C413.062 69.2229 411.742 67.8809 411.742 66.2419C411.742 64.6029 413.062 63.2719 414.679 63.2719C416.285 63.2719 417.605 64.6029 417.605 66.2419C417.605 67.8809 416.285 69.2229 414.679 69.2229ZM414.679 68.4859C415.812 68.4859 416.747 67.4739 416.747 66.2419C416.747 65.0099 415.812 64.0089 414.679 64.0089C413.535 64.0089 412.6 65.0099 412.6 66.2419C412.6 67.4739 413.535 68.4859 414.679 68.4859ZM423.098 63.4039H423.923V69.0909H423.098V68.1889C422.768 68.7939 422.042 69.2229 421.228 69.2229C419.963 69.2229 419.094 68.3319 419.094 67.0229V63.4039H419.919V66.9129C419.919 67.8479 420.502 68.4859 421.338 68.4859C422.306 68.4859 423.098 67.8259 423.098 67.0229V63.4039ZM426.858 64.5149C427.199 63.7559 428.013 63.2719 429.058 63.2719V64.0089C427.771 64.0089 426.858 64.8009 426.858 65.9119V69.0909H426.033V63.4039H426.858V64.5149Z" fill="#E3EAED"/>
<path fill-rule="evenodd" clip-rule="evenodd" d="M392.801 52.7824C387.055 52.7824 382.397 48.124 382.397 42.3776C382.397 36.6312 387.055 31.9728 392.801 31.9728C398.548 31.9728 403.206 36.6312 403.206 42.3776C403.206 48.124 398.548 52.7824 392.801 52.7824ZM392.801 30.4865C386.234 30.4865 380.91 35.8107 380.91 42.3776C380.91 48.9445 386.234 54.2688 392.801 54.2688C399.368 54.2688 404.693 48.9445 404.693 42.3776C404.693 35.8107 399.368 30.4865 392.801 30.4865Z" fill="white"/>
<path d="M256.76 69.2119C255.517 69.2119 254.538 68.7609 253.779 68.0129L254.318 67.3419C254.956 67.9799 255.737 68.4309 256.793 68.4309C257.959 68.4309 258.553 67.7929 258.553 67.1109C258.553 66.3079 257.838 65.9889 256.518 65.6809C255 65.3289 254.043 64.8559 254.043 63.5469C254.043 62.3369 255.121 61.4019 256.573 61.4019C257.695 61.4019 258.531 61.8419 259.224 62.4799L258.696 63.1509C258.069 62.5459 257.321 62.1829 256.529 62.1829C255.594 62.1829 254.912 62.7879 254.912 63.4809C254.912 64.2619 255.66 64.5369 256.947 64.8449C258.388 65.1859 259.422 65.7029 259.422 67.0339C259.422 68.2329 258.52 69.2119 256.76 69.2119ZM263.366 68.2549L263.773 68.8599C263.476 69.0909 263.102 69.2229 262.717 69.2229C261.903 69.2229 261.331 68.6179 261.331 67.7709V64.1409H260.44V63.4039H261.331V61.8419H262.156V63.4039H263.553V64.1409H262.156V67.7709C262.156 68.1889 262.442 68.4859 262.772 68.4859C263.025 68.4859 263.245 68.3869 263.366 68.2549ZM267.556 68.4859C268.227 68.4859 268.997 68.1889 269.349 67.8039L269.855 68.3429C269.36 68.8819 268.359 69.2229 267.567 69.2229C266.049 69.2229 264.685 67.9799 264.685 66.2309C264.685 64.5369 265.961 63.2719 267.49 63.2719C269.206 63.2719 270.185 64.5699 270.185 66.5609H265.532C265.653 67.6719 266.434 68.4859 267.556 68.4859ZM267.523 64.0089C266.511 64.0089 265.697 64.7239 265.543 65.8239H269.371C269.261 64.8009 268.656 64.0089 267.523 64.0089ZM274.664 63.2719C276.16 63.2719 277.282 64.5039 277.282 66.2419C277.282 67.9909 276.16 69.2229 274.664 69.2229C273.751 69.2229 273.025 68.7719 272.596 68.0239V70.9829H271.771V63.4039H272.596V64.4709C273.025 63.7229 273.751 63.2719 274.664 63.2719ZM274.51 68.4859C275.621 68.4859 276.413 67.5509 276.413 66.2419C276.413 64.9329 275.621 64.0089 274.51 64.0089C273.388 64.0089 272.596 64.9329 272.596 66.2419C272.596 67.5509 273.388 68.4859 274.51 68.4859ZM284.383 68.2549L284.79 68.8599C284.493 69.0909 284.119 69.2229 283.734 69.2229C282.92 69.2229 282.348 68.6179 282.348 67.7709V64.1409H281.457V63.4039H282.348V61.8419H283.173V63.4039H284.57V64.1409H283.173V67.7709C283.173 68.1889 283.459 68.4859 283.789 68.4859C284.042 68.4859 284.262 68.3869 284.383 68.2549ZM288.87 63.2719C290.135 63.2719 291.004 64.1629 291.004 65.4719V69.0909H290.179V65.5819C290.179 64.6469 289.596 64.0089 288.76 64.0089C287.792 64.0089 287 64.6689 287 65.4719V69.0909H286.175V61.4019H287V64.3059C287.33 63.7009 288.056 63.2719 288.87 63.2719ZM293.806 64.5149C294.147 63.7559 294.961 63.2719 296.006 63.2719V64.0089C294.719 64.0089 293.806 64.8009 293.806 65.9119V69.0909H292.981V63.4039H293.806V64.5149ZM299.94 68.4859C300.611 68.4859 301.381 68.1889 301.733 67.8039L302.239 68.3429C301.744 68.8819 300.743 69.2229 299.951 69.2229C298.433 69.2229 297.069 67.9799 297.069 66.2309C297.069 64.5369 298.345 63.2719 299.874 63.2719C301.59 63.2719 302.569 64.5699 302.569 66.5609H297.916C298.037 67.6719 298.818 68.4859 299.94 68.4859ZM299.907 64.0089C298.895 64.0089 298.081 64.7239 297.927 65.8239H301.755C301.645 64.8009 301.04 64.0089 299.907 64.0089ZM306.553 68.4859C307.224 68.4859 307.994 68.1889 308.346 67.8039L308.852 68.3429C308.357 68.8819 307.356 69.2229 306.564 69.2229C305.046 69.2229 303.682 67.9799 303.682 66.2309C303.682 64.5369 304.958 63.2719 306.487 63.2719C308.203 63.2719 309.182 64.5699 309.182 66.5609H304.529C304.65 67.6719 305.431 68.4859 306.553 68.4859ZM306.52 64.0089C305.508 64.0089 304.694 64.7239 304.54 65.8239H308.368C308.258 64.8009 307.653 64.0089 306.52 64.0089Z" fill="#E3EAED"/>
<path opacity="0.15" fill-rule="evenodd" clip-rule="evenodd" d="M277.513 42.4689C277.513 48.5237 272.605 53.4318 266.55 53.4318C260.495 53.4318 255.587 48.5237 255.587 42.4689C255.587 36.4141 260.495 31.506 266.55 31.506C272.605 31.506 277.513 36.4141 277.513 42.4689Z" stroke="#00ABF5" stroke-width="2.8"/>
<path d="M259.35 50.7333C254.786 46.7549 254.312 39.8306 258.289 35.2651C259.318 34.0846 260.588 33.1383 262.013 32.4897C263.438 31.8412 264.986 31.5055 266.552 31.5052" stroke="#007CBB" stroke-width="2.8"/>
<path d="M143.124 69.2119C141.881 69.2119 140.902 68.7609 140.143 68.0129L140.682 67.3419C141.32 67.9799 142.101 68.4309 143.157 68.4309C144.323 68.4309 144.917 67.7929 144.917 67.1109C144.917 66.3079 144.202 65.9889 142.882 65.6809C141.364 65.3289 140.407 64.8559 140.407 63.5469C140.407 62.3369 141.485 61.4019 142.937 61.4019C144.059 61.4019 144.895 61.8419 145.588 62.4799L145.06 63.1509C144.433 62.5459 143.685 62.1829 142.893 62.1829C141.958 62.1829 141.276 62.7879 141.276 63.4809C141.276 64.2619 142.024 64.5369 143.311 64.8449C144.752 65.1859 145.786 65.7029 145.786 67.0339C145.786 68.2329 144.884 69.2119 143.124 69.2119ZM149.729 68.2549L150.136 68.8599C149.839 69.0909 149.465 69.2229 149.08 69.2229C148.266 69.2229 147.694 68.6179 147.694 67.7709V64.1409H146.803V63.4039H147.694V61.8419H148.519V63.4039H149.916V64.1409H148.519V67.7709C148.519 68.1889 148.805 68.4859 149.135 68.4859C149.388 68.4859 149.608 68.3869 149.729 68.2549ZM153.919 68.4859C154.59 68.4859 155.36 68.1889 155.712 67.8039L156.218 68.3429C155.723 68.8819 154.722 69.2229 153.93 69.2229C152.412 69.2229 151.048 67.9799 151.048 66.2309C151.048 64.5369 152.324 63.2719 153.853 63.2719C155.569 63.2719 156.548 64.5699 156.548 66.5609H151.895C152.016 67.6719 152.797 68.4859 153.919 68.4859ZM153.886 64.0089C152.874 64.0089 152.06 64.7239 151.906 65.8239H155.734C155.624 64.8009 155.019 64.0089 153.886 64.0089ZM161.027 63.2719C162.523 63.2719 163.645 64.5039 163.645 66.2419C163.645 67.9909 162.523 69.2229 161.027 69.2229C160.114 69.2229 159.388 68.7719 158.959 68.0239V70.9829H158.134V63.4039H158.959V64.4709C159.388 63.7229 160.114 63.2719 161.027 63.2719ZM160.873 68.4859C161.984 68.4859 162.776 67.5509 162.776 66.2419C162.776 64.9329 161.984 64.0089 160.873 64.0089C159.751 64.0089 158.959 64.9329 158.959 66.2419C158.959 67.5509 159.751 68.4859 160.873 68.4859ZM170.746 68.2549L171.153 68.8599C170.856 69.0909 170.482 69.2229 170.097 69.2229C169.283 69.2229 168.711 68.6179 168.711 67.7709V64.1409H167.82V63.4039H168.711V61.8419H169.536V63.4039H170.933V64.1409H169.536V67.7709C169.536 68.1889 169.822 68.4859 170.152 68.4859C170.405 68.4859 170.625 68.3869 170.746 68.2549ZM173.66 69.0909L171.757 63.4039H172.637L174.056 67.9909L175.607 63.4039H176.322L177.873 67.9909L179.292 63.4039H180.172L178.258 69.0909H177.477L175.97 64.5479L174.441 69.0909H173.66ZM183.945 69.2229C182.328 69.2229 181.008 67.8809 181.008 66.2419C181.008 64.6029 182.328 63.2719 183.945 63.2719C185.551 63.2719 186.871 64.6029 186.871 66.2419C186.871 67.8809 185.551 69.2229 183.945 69.2229ZM183.945 68.4859C185.078 68.4859 186.013 67.4739 186.013 66.2419C186.013 65.0099 185.078 64.0089 183.945 64.0089C182.801 64.0089 181.866 65.0099 181.866 66.2419C181.866 67.4739 182.801 68.4859 183.945 68.4859Z" fill="#E3EAED"/>
<path fill-rule="evenodd" clip-rule="evenodd" d="M149.036 52.7824C143.289 52.7824 138.631 48.124 138.631 42.3776C138.631 36.6312 143.289 31.9728 149.036 31.9728C154.782 31.9728 159.44 36.6312 159.44 42.3776C159.44 48.124 154.782 52.7824 149.036 52.7824ZM149.036 30.4865C142.469 30.4865 137.145 35.8107 137.145 42.3776C137.145 48.9445 142.469 54.2688 149.036 54.2688C155.603 54.2688 160.927 48.9445 160.927 42.3776C160.927 35.8107 155.603 30.4865 149.036 30.4865Z" fill="#67CA16"/>
<path fill-rule="evenodd" clip-rule="evenodd" d="M156.468 37.9631C156.329 37.8246 156.14 37.7469 155.944 37.7469C155.747 37.7469 155.559 37.8246 155.42 37.9631L147.17 46.1754L142.711 41.7162C142.575 41.5694 142.386 41.4827 142.186 41.475C141.986 41.4673 141.791 41.5394 141.644 41.6753C141.498 41.8118 141.412 42.0005 141.404 42.2003C141.397 42.4001 141.468 42.5948 141.604 42.7418L147.141 48.2787L156.468 39.011C156.606 38.8717 156.684 38.6834 156.684 38.487C156.684 38.2907 156.606 38.1023 156.468 37.9631Z" fill="#67CA16"/>
<path d="M19.487 69.2119C18.244 69.2119 17.265 68.7609 16.506 68.0129L17.045 67.3419C17.683 67.9799 18.464 68.4309 19.52 68.4309C20.686 68.4309 21.28 67.7929 21.28 67.1109C21.28 66.3079 20.565 65.9889 19.245 65.6809C17.727 65.3289 16.77 64.8559 16.77 63.5469C16.77 62.3369 17.848 61.4019 19.3 61.4019C20.422 61.4019 21.258 61.8419 21.951 62.4799L21.423 63.1509C20.796 62.5459 20.048 62.1829 19.256 62.1829C18.321 62.1829 17.639 62.7879 17.639 63.4809C17.639 64.2619 18.387 64.5369 19.674 64.8449C21.115 65.1859 22.149 65.7029 22.149 67.0339C22.149 68.2329 21.247 69.2119 19.487 69.2119ZM26.0924 68.2549L26.4994 68.8599C26.2024 69.0909 25.8284 69.2229 25.4434 69.2229C24.6294 69.2229 24.0574 68.6179 24.0574 67.7709V64.1409H23.1664V63.4039H24.0574V61.8419H24.8824V63.4039H26.2794V64.1409H24.8824V67.7709C24.8824 68.1889 25.1684 68.4859 25.4984 68.4859C25.7514 68.4859 25.9714 68.3869 26.0924 68.2549ZM30.2823 68.4859C30.9533 68.4859 31.7233 68.1889 32.0753 67.8039L32.5813 68.3429C32.0863 68.8819 31.0853 69.2229 30.2933 69.2229C28.7753 69.2229 27.4113 67.9799 27.4113 66.2309C27.4113 64.5369 28.6873 63.2719 30.2163 63.2719C31.9323 63.2719 32.9113 64.5699 32.9113 66.5609H28.2583C28.3793 67.6719 29.1603 68.4859 30.2823 68.4859ZM30.2493 64.0089C29.2373 64.0089 28.4233 64.7239 28.2693 65.8239H32.0973C31.9873 64.8009 31.3823 64.0089 30.2493 64.0089ZM37.3904 63.2719C38.8864 63.2719 40.0084 64.5039 40.0084 66.2419C40.0084 67.9909 38.8864 69.2229 37.3904 69.2229C36.4774 69.2229 35.7514 68.7719 35.3224 68.0239V70.9829H34.4974V63.4039H35.3224V64.4709C35.7514 63.7229 36.4774 63.2719 37.3904 63.2719ZM37.2364 68.4859C38.3474 68.4859 39.1394 67.5509 39.1394 66.2419C39.1394 64.9329 38.3474 64.0089 37.2364 64.0089C36.1144 64.0089 35.3224 64.9329 35.3224 66.2419C35.3224 67.5509 36.1144 68.4859 37.2364 68.4859ZM47.3511 69.2229C45.7341 69.2229 44.4141 67.8809 44.4141 66.2419C44.4141 64.6029 45.7341 63.2719 47.3511 63.2719C48.9571 63.2719 50.2771 64.6029 50.2771 66.2419C50.2771 67.8809 48.9571 69.2229 47.3511 69.2229ZM47.3511 68.4859C48.4841 68.4859 49.4191 67.4739 49.4191 66.2419C49.4191 65.0099 48.4841 64.0089 47.3511 64.0089C46.2071 64.0089 45.2721 65.0099 45.2721 66.2419C45.2721 67.4739 46.2071 68.4859 47.3511 68.4859ZM54.5932 63.2719C55.8582 63.2719 56.7272 64.1629 56.7272 65.4719V69.0909H55.9022V65.5819C55.9022 64.6469 55.3192 64.0089 54.4832 64.0089C53.5152 64.0089 52.7232 64.6689 52.7232 65.4719V69.0909H51.8982V63.4039H52.7232V64.3059C53.0532 63.7009 53.7792 63.2719 54.5932 63.2719ZM61.1027 68.4859C61.7737 68.4859 62.5437 68.1889 62.8957 67.8039L63.4017 68.3429C62.9067 68.8819 61.9057 69.2229 61.1137 69.2229C59.5957 69.2229 58.2317 67.9799 58.2317 66.2309C58.2317 64.5369 59.5077 63.2719 61.0367 63.2719C62.7527 63.2719 63.7317 64.5699 63.7317 66.5609H59.0787C59.1997 67.6719 59.9807 68.4859 61.1027 68.4859ZM61.0697 64.0089C60.0577 64.0089 59.2437 64.7239 59.0897 65.8239H62.9177C62.8077 64.8009 62.2027 64.0089 61.0697 64.0089Z" fill="#E3EAED"/>
<path fill-rule="evenodd" clip-rule="evenodd" d="M29.3755 52.7824C23.6291 52.7824 18.9708 48.124 18.9708 42.3776C18.9708 36.6312 23.6291 31.9728 29.3755 31.9728C35.122 31.9728 39.7803 36.6312 39.7803 42.3776C39.7803 48.124 35.122 52.7824 29.3755 52.7824ZM29.3755 30.4865C22.8086 30.4865 17.4844 35.8107 17.4844 42.3776C17.4844 48.9445 22.8086 54.2688 29.3755 54.2688C35.9425 54.2688 41.2667 48.9445 41.2667 42.3776C41.2667 35.8107 35.9425 30.4865 29.3755 30.4865Z" fill="#67CA16"/>
<path fill-rule="evenodd" clip-rule="evenodd" d="M36.8076 37.9631C36.6684 37.8246 36.48 37.7469 36.2837 37.7469C36.0873 37.7469 35.899 37.8246 35.7597 37.9631L27.5102 46.1754L23.051 41.7162C22.9148 41.5694 22.726 41.4827 22.5259 41.475C22.3258 41.4673 22.1308 41.5394 21.9838 41.6753C21.8377 41.8118 21.7515 42.0005 21.7439 42.2003C21.7364 42.4001 21.8082 42.5948 21.9437 42.7418L27.4805 48.2787L36.8076 39.011C36.9461 38.8717 37.0237 38.6834 37.0237 38.487C37.0237 38.2907 36.9461 38.1023 36.8076 37.9631Z" fill="#67CA16"/>
<path d="M257.158 103.132C255.31 103.132 254.001 101.779 254.001 99.865V95.443H254.859V99.865C254.859 101.317 255.816 102.351 257.158 102.351C258.5 102.351 259.457 101.317 259.457 99.865V95.443H260.315V99.865C260.315 101.779 259.006 103.132 257.158 103.132ZM265.364 97.181C266.86 97.181 267.982 98.413 267.982 100.151C267.982 101.9 266.86 103.132 265.364 103.132C264.451 103.132 263.725 102.681 263.296 101.933V104.892H262.471V97.313H263.296V98.38C263.725 97.632 264.451 97.181 265.364 97.181ZM265.21 102.395C266.321 102.395 267.113 101.46 267.113 100.151C267.113 98.842 266.321 97.918 265.21 97.918C264.088 97.918 263.296 98.842 263.296 100.151C263.296 101.46 264.088 102.395 265.21 102.395ZM269.654 103V95.311H270.479V103H269.654ZM275.035 103.132C273.418 103.132 272.098 101.79 272.098 100.151C272.098 98.512 273.418 97.181 275.035 97.181C276.641 97.181 277.961 98.512 277.961 100.151C277.961 101.79 276.641 103.132 275.035 103.132ZM275.035 102.395C276.168 102.395 277.103 101.383 277.103 100.151C277.103 98.919 276.168 97.918 275.035 97.918C273.891 97.918 272.956 98.919 272.956 100.151C272.956 101.383 273.891 102.395 275.035 102.395ZM281.617 97.181C283.168 97.181 283.927 98.16 283.927 99.535V103H283.102V102.109C282.695 102.78 281.848 103.132 281.1 103.132C279.901 103.132 279.021 102.439 279.021 101.317C279.021 100.184 280.033 99.425 281.254 99.425C281.87 99.425 282.519 99.557 283.102 99.744V99.535C283.102 98.765 282.794 97.885 281.562 97.885C280.99 97.885 280.418 98.138 279.901 98.402L279.571 97.731C280.385 97.324 281.067 97.181 281.617 97.181ZM281.243 102.406C281.991 102.406 282.882 102.021 283.102 101.218V100.349C282.585 100.206 282.002 100.118 281.386 100.118C280.539 100.118 279.824 100.602 279.824 101.284C279.824 101.988 280.44 102.406 281.243 102.406ZM290.151 95.311H290.976V103H290.151V101.933C289.722 102.681 288.996 103.132 288.083 103.132C286.587 103.132 285.465 101.9 285.465 100.151C285.465 98.413 286.587 97.181 288.083 97.181C288.996 97.181 289.722 97.632 290.151 98.38V95.311ZM288.237 102.395C289.359 102.395 290.151 101.46 290.151 100.151C290.151 98.842 289.359 97.918 288.237 97.918C287.126 97.918 286.334 98.842 286.334 100.151C286.334 101.46 287.126 102.395 288.237 102.395ZM296.735 96.279C296.427 96.279 296.185 96.026 296.185 95.729C296.185 95.443 296.427 95.19 296.735 95.19C297.032 95.19 297.274 95.443 297.274 95.729C297.274 96.026 297.032 96.279 296.735 96.279ZM296.317 103V97.313H297.142V103H296.317ZM301.951 97.181C303.216 97.181 304.085 98.072 304.085 99.381V103H303.26V99.491C303.26 98.556 302.677 97.918 301.841 97.918C300.873 97.918 300.081 98.578 300.081 99.381V103H299.256V97.313H300.081V98.215C300.411 97.61 301.137 97.181 301.951 97.181ZM254.199 119V111.443H257.268C258.83 111.443 260.051 112.444 260.051 113.863C260.051 115.282 258.83 116.283 257.268 116.283H255.057V119H254.199ZM255.057 115.469H257.114C258.346 115.469 259.182 114.875 259.182 113.863C259.182 112.851 258.346 112.257 257.114 112.257H255.057V115.469ZM262.512 114.424C262.853 113.665 263.667 113.181 264.712 113.181V113.918C263.425 113.918 262.512 114.71 262.512 115.821V119H261.687V113.313H262.512V114.424ZM268.691 119.132C267.074 119.132 265.754 117.79 265.754 116.151C265.754 114.512 267.074 113.181 268.691 113.181C270.297 113.181 271.617 114.512 271.617 116.151C271.617 117.79 270.297 119.132 268.691 119.132ZM268.691 118.395C269.824 118.395 270.759 117.383 270.759 116.151C270.759 114.919 269.824 113.918 268.691 113.918C267.547 113.918 266.612 114.919 266.612 116.151C266.612 117.383 267.547 118.395 268.691 118.395ZM277.429 113.313H278.254V118.395C278.254 119.858 277.099 120.892 275.46 120.892C274.536 120.892 273.678 120.573 273.161 120.133L273.524 119.484C273.964 119.902 274.646 120.155 275.35 120.155C276.659 120.155 277.429 119.506 277.429 118.395V117.471C276.989 118.164 276.263 118.582 275.361 118.582C273.832 118.582 272.743 117.46 272.743 115.876C272.743 114.292 273.832 113.181 275.361 113.181C276.263 113.181 276.989 113.599 277.429 114.292V113.313ZM275.515 117.845C276.637 117.845 277.429 117.031 277.429 115.876C277.429 114.732 276.637 113.918 275.515 113.918C274.404 113.918 273.612 114.732 273.612 115.876C273.612 117.031 274.404 117.845 275.515 117.845ZM281.191 114.424C281.532 113.665 282.346 113.181 283.391 113.181V113.918C282.104 113.918 281.191 114.71 281.191 115.821V119H280.366V113.313H281.191V114.424ZM287.326 118.395C287.997 118.395 288.767 118.098 289.119 117.713L289.625 118.252C289.13 118.791 288.129 119.132 287.337 119.132C285.819 119.132 284.455 117.889 284.455 116.14C284.455 114.446 285.731 113.181 287.26 113.181C288.976 113.181 289.955 114.479 289.955 116.47H285.302C285.423 117.581 286.204 118.395 287.326 118.395ZM287.293 113.918C286.281 113.918 285.467 114.633 285.313 115.733H289.141C289.031 114.71 288.426 113.918 287.293 113.918ZM293.301 119.132C292.509 119.132 291.629 118.835 290.947 118.285L291.376 117.68C292.025 118.153 292.674 118.395 293.301 118.395C294.049 118.395 294.555 118.043 294.555 117.504C294.555 116.888 293.895 116.69 293.125 116.47C291.75 116.074 291.222 115.667 291.222 114.853C291.222 113.819 292.08 113.181 293.213 113.181C293.917 113.181 294.643 113.423 295.248 113.819L294.852 114.457C294.28 114.094 293.719 113.918 293.213 113.918C292.575 113.918 292.047 114.204 292.047 114.754C292.047 115.249 292.465 115.403 293.521 115.744C294.434 116.03 295.38 116.338 295.38 117.416C295.38 118.461 294.478 119.132 293.301 119.132ZM298.754 119.132C297.962 119.132 297.082 118.835 296.4 118.285L296.829 117.68C297.478 118.153 298.127 118.395 298.754 118.395C299.502 118.395 300.008 118.043 300.008 117.504C300.008 116.888 299.348 116.69 298.578 116.47C297.203 116.074 296.675 115.667 296.675 114.853C296.675 113.819 297.533 113.181 298.666 113.181C299.37 113.181 300.096 113.423 300.701 113.819L300.305 114.457C299.733 114.094 299.172 113.918 298.666 113.918C298.028 113.918 297.5 114.204 297.5 114.754C297.5 115.249 297.918 115.403 298.974 115.744C299.887 116.03 300.833 116.338 300.833 117.416C300.833 118.461 299.931 119.132 298.754 119.132Z" fill="#E3EAED"/>
<g opacity="0.4">
<path d="M272.55 147L271.926 145.512H267.942L267.318 147H265.65L269.094 138.756H270.762L274.206 147H272.55ZM268.482 144.216H271.386L269.934 140.748L268.482 144.216ZM280.317 147.144C277.965 147.144 275.985 145.188 275.985 142.872C275.985 140.556 277.965 138.612 280.317 138.612C281.529 138.612 282.633 139.128 283.425 139.944L282.357 140.94C281.853 140.352 281.109 139.98 280.317 139.98C278.793 139.98 277.509 141.3 277.509 142.872C277.509 144.456 278.793 145.776 280.317 145.776C281.121 145.776 281.853 145.404 282.369 144.816L283.425 145.8C282.633 146.628 281.529 147.144 280.317 147.144ZM287.802 147V140.124H285.162V138.756H291.93V140.124H289.29V147H287.802ZM294.235 147V138.756H295.723V147H294.235ZM302.466 147.144C300.114 147.144 298.134 145.188 298.134 142.872C298.134 140.556 300.114 138.612 302.466 138.612C304.806 138.612 306.786 140.556 306.786 142.872C306.786 145.188 304.806 147.144 302.466 147.144ZM302.466 145.776C303.978 145.776 305.25 144.456 305.25 142.872C305.25 141.3 303.978 139.98 302.466 139.98C300.942 139.98 299.658 141.3 299.658 142.872C299.658 144.456 300.942 145.776 302.466 145.776ZM309.269 147V138.756H310.769L315.125 144.552V138.756H316.613V147H315.125L310.769 141.204V147H309.269Z" fill="#565656"/>
<rect x="253.5" y="131.5" width="77" height="23" rx="2.5" stroke="#565656"/>
</g>
<rect x="0.5" y="0.5" width="451" height="183" rx="3.5" stroke="#ACB9BE"/>
</svg>
