<svg width="438" height="620" viewBox="0 0 438 620" fill="none" xmlns="http://www.w3.org/2000/svg">
<rect width="437" height="620" fill="#1B2B32"/>
<g clip-path="url(#clip0_59_2405)">
<rect width="186" height="620" fill="#1B2B32"/>
<rect width="186" height="60" fill="black"/>
<g opacity="0.3">
<path d="M31.0472 155.435H196.104" stroke="#ACB8BE" stroke-width="8" stroke-linecap="round"/>
<path d="M31.0472 190.954H196.104" stroke="#ACB8BE" stroke-width="8" stroke-linecap="round"/>
<path d="M31.0472 226.472H196.104" stroke="#ACB8BE" stroke-width="8" stroke-linecap="round"/>
<path d="M31.0472 261.991H196.104" stroke="#ACB8BE" stroke-width="8" stroke-linecap="round"/>
<path d="M31.0472 297.51H196.104" stroke="#ACB8BE" stroke-width="8" stroke-linecap="round"/>
</g>
<g opacity="0.3">
<path d="M31.0472 427.49H196.104" stroke="#ACB8BE" stroke-width="8" stroke-linecap="round"/>
<path d="M31.0472 463.009H196.104" stroke="#ACB8BE" stroke-width="8" stroke-linecap="round"/>
</g>
<g opacity="0.3">
<rect x="31" y="341" width="92" height="36" rx="4" fill="#ACB8BE"/>
</g>
<rect width="186" height="620" fill="black" fill-opacity="0.7"/>
<g clip-path="url(#clip1_59_2405)">
<path d="M152.41 30L160.7 21.71C161.04 21.3132 161.017 20.7218 160.648 20.3524C160.278 19.9831 159.687 19.9602 159.29 20.3L151 28.59L142.71 20.29C142.318 19.8979 141.682 19.8979 141.29 20.29C140.898 20.6821 140.898 21.3179 141.29 21.71L149.59 30L141.29 38.29C141.005 38.5344 140.88 38.9181 140.968 39.2834C141.056 39.6487 141.341 39.9339 141.707 40.0218C142.072 40.1097 142.456 39.9854 142.7 39.7L151 31.41L159.29 39.7C159.687 40.0398 160.278 40.0169 160.648 39.6476C161.017 39.2782 161.04 38.6868 160.7 38.29L152.41 30Z" fill="white"/>
<rect x="129" y="8" width="44" height="44" rx="2" stroke="#1486FF" stroke-width="2"/>
</g>
<rect x="127.5" y="6.5" width="47" height="47" rx="3.5" stroke="white"/>
</g>
<rect width="252" height="620" transform="translate(186)" fill="#2D4048"/>
<path fill-rule="evenodd" clip-rule="evenodd" d="M210 31.5555C211.718 31.5555 213.111 30.1626 213.111 28.4444C213.111 26.7262 211.718 25.3333 210 25.3333C208.282 25.3333 206.889 26.7262 206.889 28.4444C206.889 30.1626 208.282 31.5555 210 31.5555ZM210.002 32.446C212.098 32.446 214.102 33.3086 215.542 34.8311C215.695 34.9968 215.779 35.2145 215.778 35.44V37.7778C215.778 38.2687 215.38 38.6666 214.889 38.6666H205.111C204.62 38.6666 204.222 38.2687 204.222 37.7778V35.44C204.222 35.2139 204.308 34.9961 204.462 34.8311C205.903 33.3086 207.906 32.446 210.002 32.446ZM205.111 35.4355V37.7778H214.889V35.4355C213.616 34.0951 211.848 33.3362 210 33.3362C208.151 33.3362 206.384 34.0951 205.111 35.4355ZM212.222 28.4444C212.222 27.2171 211.227 26.2222 210 26.2222C208.773 26.2222 207.778 27.2171 207.778 28.4444C207.778 29.6717 208.773 30.6666 210 30.6666C211.227 30.6666 212.222 29.6717 212.222 28.4444Z" fill="#CBD4D8"/>
<path d="M223.33 36V26.382H225.066L230.148 33.144V26.382H231.884V36H230.148L225.066 29.238V36H223.33ZM237.507 36.168C235.365 36.168 233.615 34.46 233.615 32.374C233.615 30.288 235.365 28.594 237.507 28.594C239.635 28.594 241.371 30.288 241.371 32.374C241.371 34.46 239.635 36.168 237.507 36.168ZM237.507 34.712C238.711 34.712 239.705 33.662 239.705 32.374C239.705 31.086 238.711 30.05 237.507 30.05C236.289 30.05 235.295 31.086 235.295 32.374C235.295 33.662 236.289 34.712 237.507 34.712ZM244.56 30.134C245.022 29.196 245.974 28.594 247.15 28.594V30.05C245.596 30.05 244.56 30.974 244.56 32.346V36H242.852V28.762H244.56V30.134ZM256.976 28.594C258.488 28.594 259.622 29.756 259.622 31.394V36H257.956V31.674C257.956 30.722 257.382 30.05 256.556 30.05C255.618 30.05 254.96 30.68 254.96 31.562V36H253.308V31.674C253.308 30.722 252.72 30.05 251.894 30.05C250.97 30.05 250.312 30.68 250.312 31.562V36H248.604V28.762H250.312V29.742C250.676 29.042 251.418 28.594 252.328 28.594C253.476 28.594 254.4 29.266 254.778 30.316C254.974 29.28 255.842 28.594 256.976 28.594ZM264.376 28.594C266.294 28.594 267.47 29.812 267.47 31.646V36H265.804V35.146C265.272 35.804 264.376 36.168 263.536 36.168C261.996 36.168 260.848 35.258 260.848 33.858C260.848 32.43 262.15 31.45 263.788 31.45C264.446 31.45 265.146 31.59 265.804 31.828V31.646C265.804 30.806 265.356 29.994 264.04 29.994C263.354 29.994 262.696 30.232 262.08 30.54L261.492 29.35C262.514 28.846 263.466 28.594 264.376 28.594ZM263.914 34.922C264.74 34.922 265.622 34.502 265.804 33.732V32.906C265.272 32.738 264.67 32.64 264.04 32.64C263.186 32.64 262.486 33.116 262.486 33.802C262.486 34.488 263.102 34.922 263.914 34.922ZM269.349 36V26.214H271.057V36H269.349Z" fill="#CBD4D8"/>
<path d="M419.993 37.118L425.291 31.998L419.993 26.8779C419.693 26.5883 419.214 26.5973 418.925 26.8979C418.635 27.1986 418.644 27.6772 418.945 27.9668L423.118 31.998L418.945 36.0335C418.644 36.3231 418.635 36.8017 418.925 37.1024C419.214 37.4031 419.693 37.412 419.993 37.1224L419.993 37.118Z" fill="#CBD4D8"/>
<path fill-rule="evenodd" clip-rule="evenodd" d="M215.911 71.4045C215.382 70.4756 212.382 65.1156 212.382 65.1156C212.304 64.9741 212.155 64.8863 211.993 64.8863C211.832 64.8863 211.683 64.9741 211.604 65.1156L208.938 69.8445L207.604 67.4978C207.526 67.3563 207.377 67.2685 207.216 67.2685C207.054 67.2685 206.905 67.3563 206.827 67.4978C206.827 67.4978 204.4 71.9022 203.964 72.6667C203.538 73.3464 203.319 74.1355 203.333 74.9378C203.333 77.2089 204.604 79.1111 207.187 79.1111H211.991C214.569 79.1111 216.667 76.8889 216.667 74.1245C216.684 73.1636 216.422 72.2185 215.911 71.4045ZM211.991 78.2222H207.231C205.613 78.2222 204.222 76.7378 204.222 74.9378C204.21 74.2886 204.389 73.6501 204.738 73.1022C205.062 72.5289 206.538 69.8978 207.249 68.6267L208.582 70.9733C208.661 71.1131 208.809 71.1997 208.969 71.2C209.129 71.1997 209.277 71.1131 209.356 70.9733L211.996 66.2222C212.822 67.7022 214.729 71.1111 215.138 71.8222C215.575 72.5092 215.797 73.3106 215.778 74.1245C215.778 76.3867 214.08 78.2222 211.991 78.2222ZM211.498 70.1867C211.498 70.1867 213.156 73.1422 213.444 73.6578L213.436 73.6711C213.73 74.1362 213.884 74.6762 213.88 75.2267C213.881 75.8189 213.704 76.3978 213.373 76.8889H212.427C212.898 76.4683 213.168 75.8671 213.169 75.2356C213.177 74.809 213.058 74.3897 212.827 74.0311L211.187 71.1111L209.556 74.0089C209.49 74.1239 209.43 74.2426 209.378 74.3645C209.326 74.4859 209.212 74.5689 209.081 74.5801C208.949 74.5913 208.822 74.5288 208.751 74.4178L208.013 73.2622L206.769 75.2089C206.602 75.4301 206.514 75.7008 206.52 75.9778C206.528 76.3097 206.66 76.6266 206.889 76.8667H206.022C205.88 76.5916 205.804 76.2873 205.8 75.9778C205.795 75.5635 205.922 75.1584 206.164 74.8222L207.702 72.4045C207.767 72.3019 207.881 72.2397 208.002 72.2397C208.124 72.2397 208.237 72.3019 208.302 72.4045L209.009 73.5111L210.876 70.1867C210.938 70.0735 211.057 70.0033 211.187 70.0033C211.316 70.0033 211.435 70.0735 211.498 70.1867Z" fill="#CBD4D8"/>
<path d="M230.568 67.978H225.08V70.414H230.036V72.01H225.08V76H223.33V66.382H230.568V67.978ZM232.937 67.67C232.391 67.67 231.957 67.208 231.957 66.69C231.957 66.172 232.391 65.724 232.937 65.724C233.469 65.724 233.903 66.172 233.903 66.69C233.903 67.208 233.469 67.67 232.937 67.67ZM232.083 76V68.762H233.791V76H232.083ZM237.533 70.134C237.995 69.196 238.947 68.594 240.123 68.594V70.05C238.569 70.05 237.533 70.974 237.533 72.346V76H235.825V68.762H237.533V70.134ZM244.797 74.796C245.525 74.796 246.351 74.488 246.813 74.04L247.793 75.048C247.163 75.72 245.903 76.168 244.853 76.168C242.767 76.168 241.045 74.586 241.045 72.36C241.045 70.176 242.683 68.594 244.755 68.594C246.995 68.594 248.311 70.246 248.311 72.878H242.697C242.879 74.012 243.677 74.796 244.797 74.796ZM244.769 69.966C243.733 69.966 242.935 70.666 242.711 71.744H246.659C246.505 70.722 245.861 69.966 244.769 69.966Z" fill="#CBD4D8"/>
<path d="M427.12 69.9915L422 75.2893L416.88 69.9915C416.59 69.6908 416.599 69.2123 416.9 68.9226C417.201 68.633 417.679 68.642 417.969 68.9426L422 73.116L426.036 68.9426C426.325 68.642 426.804 68.633 427.104 68.9226C427.405 69.2123 427.414 69.6908 427.124 69.9915H427.12Z" fill="#CBD4D8"/>
<path d="M227.712 116.168C225.052 116.168 222.784 113.886 222.784 111.184C222.784 108.482 225.052 106.214 227.712 106.214C229.042 106.214 230.274 106.774 231.17 107.684L230.428 108.44C229.728 107.698 228.762 107.222 227.712 107.222C225.64 107.222 223.89 109.042 223.89 111.184C223.89 113.34 225.64 115.16 227.712 115.16C228.762 115.16 229.728 114.684 230.428 113.942L231.17 114.698C230.274 115.594 229.042 116.168 227.712 116.168ZM236.241 108.594C237.851 108.594 238.957 109.728 238.957 111.394V116H237.907V111.534C237.907 110.344 237.165 109.532 236.101 109.532C234.869 109.532 233.861 110.372 233.861 111.394V116H232.811V106.214H233.861V109.91C234.281 109.14 235.205 108.594 236.241 108.594ZM243.71 108.594C245.684 108.594 246.65 109.84 246.65 111.59V116H245.6V114.866C245.082 115.72 244.004 116.168 243.052 116.168C241.526 116.168 240.406 115.286 240.406 113.858C240.406 112.416 241.694 111.45 243.248 111.45C244.032 111.45 244.858 111.618 245.6 111.856V111.59C245.6 110.61 245.208 109.49 243.64 109.49C242.912 109.49 242.184 109.812 241.526 110.148L241.106 109.294C242.142 108.776 243.01 108.594 243.71 108.594ZM243.234 115.244C244.186 115.244 245.32 114.754 245.6 113.732V112.626C244.942 112.444 244.2 112.332 243.416 112.332C242.338 112.332 241.428 112.948 241.428 113.816C241.428 114.712 242.212 115.244 243.234 115.244ZM249.863 110.176C250.297 109.21 251.333 108.594 252.663 108.594V109.532C251.025 109.532 249.863 110.54 249.863 111.954V116H248.813V108.762H249.863V110.176ZM254.795 107.446C254.403 107.446 254.095 107.124 254.095 106.746C254.095 106.382 254.403 106.06 254.795 106.06C255.173 106.06 255.481 106.382 255.481 106.746C255.481 107.124 255.173 107.446 254.795 107.446ZM254.263 116V108.762H255.313V116H254.263ZM256.894 116V115.174L261.164 109.756H256.978V108.762H262.578V109.588L258.294 115.006H262.606V116H256.894ZM266.784 108.594C268.758 108.594 269.724 109.84 269.724 111.59V116H268.674V114.866C268.156 115.72 267.078 116.168 266.126 116.168C264.6 116.168 263.48 115.286 263.48 113.858C263.48 112.416 264.768 111.45 266.322 111.45C267.106 111.45 267.932 111.618 268.674 111.856V111.59C268.674 110.61 268.282 109.49 266.714 109.49C265.986 109.49 265.258 109.812 264.6 110.148L264.18 109.294C265.216 108.776 266.084 108.594 266.784 108.594ZM266.308 115.244C267.26 115.244 268.394 114.754 268.674 113.732V112.626C268.016 112.444 267.274 112.332 266.49 112.332C265.412 112.332 264.502 112.948 264.502 113.816C264.502 114.712 265.286 115.244 266.308 115.244ZM272.937 110.176C273.371 109.21 274.407 108.594 275.737 108.594V109.532C274.099 109.532 272.937 110.54 272.937 111.954V116H271.887V108.762H272.937V110.176ZM282.742 106.214H283.792V116H282.742V114.642C282.196 115.594 281.272 116.168 280.11 116.168C278.206 116.168 276.778 114.6 276.778 112.374C276.778 110.162 278.206 108.594 280.11 108.594C281.272 108.594 282.196 109.168 282.742 110.12V106.214ZM280.306 115.23C281.734 115.23 282.742 114.04 282.742 112.374C282.742 110.708 281.734 109.532 280.306 109.532C278.892 109.532 277.884 110.708 277.884 112.374C277.884 114.04 278.892 115.23 280.306 115.23Z" fill="#CBD4D8"/>
<mask id="path-20-inside-1_59_2405" fill="white">
<path d="M186 136H438V168H186V136Z"/>
</mask>
<path d="M186 136H438V168H186V136Z" fill="#1B2B32"/>
<path d="M230.834 156L229.868 153.816H224.506L223.54 156H222.35L226.592 146.382H227.782L232.024 156H230.834ZM224.954 152.78H229.42L227.194 147.726L224.954 152.78ZM234.545 150.176C234.979 149.21 236.015 148.594 237.345 148.594V149.532C235.707 149.532 234.545 150.54 234.545 151.954V156H233.495V148.762H234.545V150.176ZM242.054 156.168C240.024 156.168 238.302 154.432 238.302 152.374C238.302 150.316 240.024 148.594 242.054 148.594C243.034 148.594 243.944 149 244.63 149.658L243.902 150.372C243.426 149.854 242.768 149.532 242.054 149.532C240.612 149.532 239.408 150.834 239.408 152.374C239.408 153.928 240.612 155.23 242.054 155.23C242.782 155.23 243.454 154.894 243.944 154.348L244.672 155.062C243.986 155.748 243.062 156.168 242.054 156.168ZM248.696 148.594C250.67 148.594 251.636 149.84 251.636 151.59V156H250.586V154.866C250.068 155.72 248.99 156.168 248.038 156.168C246.512 156.168 245.392 155.286 245.392 153.858C245.392 152.416 246.68 151.45 248.234 151.45C249.018 151.45 249.844 151.618 250.586 151.856V151.59C250.586 150.61 250.194 149.49 248.626 149.49C247.898 149.49 247.17 149.812 246.512 150.148L246.092 149.294C247.128 148.776 247.996 148.594 248.696 148.594ZM248.22 155.244C249.172 155.244 250.306 154.754 250.586 153.732V152.626C249.928 152.444 249.186 152.332 248.402 152.332C247.324 152.332 246.414 152.948 246.414 153.816C246.414 154.712 247.198 155.244 248.22 155.244ZM257.228 148.594C258.838 148.594 259.944 149.728 259.944 151.394V156H258.894V151.534C258.894 150.344 258.152 149.532 257.088 149.532C255.856 149.532 254.848 150.372 254.848 151.394V156H253.798V148.762H254.848V149.91C255.268 149.14 256.192 148.594 257.228 148.594ZM262.639 147.446C262.247 147.446 261.939 147.124 261.939 146.746C261.939 146.382 262.247 146.06 262.639 146.06C263.017 146.06 263.325 146.382 263.325 146.746C263.325 147.124 263.017 147.446 262.639 147.446ZM262.107 156V148.762H263.157V156H262.107ZM268.923 148.594C270.533 148.594 271.639 149.728 271.639 151.394V156H270.589V151.534C270.589 150.344 269.847 149.532 268.783 149.532C267.551 149.532 266.543 150.372 266.543 151.394V156H265.493V148.762H266.543V149.91C266.963 149.14 267.887 148.594 268.923 148.594ZM276.853 155.23C277.707 155.23 278.687 154.852 279.135 154.362L279.779 155.048C279.149 155.734 277.875 156.168 276.867 156.168C274.935 156.168 273.199 154.586 273.199 152.36C273.199 150.204 274.823 148.594 276.769 148.594C278.953 148.594 280.199 150.246 280.199 152.78H274.277C274.431 154.194 275.425 155.23 276.853 155.23ZM276.811 149.532C275.523 149.532 274.487 150.442 274.291 151.842H279.163C279.023 150.54 278.253 149.532 276.811 149.532Z" fill="#CBD4D8"/>
<path d="M189 168V136H183V168H189Z" fill="#2EC0FF" mask="url(#path-20-inside-1_59_2405)"/>
<path d="M223.526 196V186.382H224.618L228.188 193.088L231.758 186.382H232.85V196H231.758V188.734L228.188 195.44L224.618 188.734V196H223.526ZM238.081 188.594C240.055 188.594 241.021 189.84 241.021 191.59V196H239.971V194.866C239.453 195.72 238.375 196.168 237.423 196.168C235.897 196.168 234.777 195.286 234.777 193.858C234.777 192.416 236.065 191.45 237.619 191.45C238.403 191.45 239.229 191.618 239.971 191.856V191.59C239.971 190.61 239.579 189.49 238.011 189.49C237.283 189.49 236.555 189.812 235.897 190.148L235.477 189.294C236.513 188.776 237.381 188.594 238.081 188.594ZM237.605 195.244C238.557 195.244 239.691 194.754 239.971 193.732V192.626C239.313 192.444 238.571 192.332 237.787 192.332C236.709 192.332 235.799 192.948 235.799 193.816C235.799 194.712 236.583 195.244 237.605 195.244ZM248.518 188.762H249.568V195.23C249.568 197.092 248.098 198.408 246.012 198.408C244.836 198.408 243.744 198.002 243.086 197.442L243.548 196.616C244.108 197.148 244.976 197.47 245.872 197.47C247.538 197.47 248.518 196.644 248.518 195.23V194.054C247.958 194.936 247.034 195.468 245.886 195.468C243.94 195.468 242.554 194.04 242.554 192.024C242.554 190.008 243.94 188.594 245.886 188.594C247.034 188.594 247.958 189.126 248.518 190.008V188.762ZM246.082 194.53C247.51 194.53 248.518 193.494 248.518 192.024C248.518 190.568 247.51 189.532 246.082 189.532C244.668 189.532 243.66 190.568 243.66 192.024C243.66 193.494 244.668 194.53 246.082 194.53ZM259.728 188.594C261.24 188.594 262.304 189.756 262.304 191.394V196H261.254V191.534C261.254 190.358 260.568 189.532 259.588 189.532C258.44 189.532 257.628 190.302 257.628 191.394V196H256.578V191.534C256.578 190.358 255.892 189.532 254.912 189.532C253.764 189.532 252.952 190.302 252.952 191.394V196H251.902V188.762H252.952V189.826C253.316 189.07 254.1 188.594 255.052 188.594C256.2 188.594 257.096 189.266 257.46 190.316C257.684 189.294 258.58 188.594 259.728 188.594ZM267.584 196.168C265.526 196.168 263.846 194.46 263.846 192.374C263.846 190.288 265.526 188.594 267.584 188.594C269.628 188.594 271.308 190.288 271.308 192.374C271.308 194.46 269.628 196.168 267.584 196.168ZM267.584 195.23C269.026 195.23 270.216 193.942 270.216 192.374C270.216 190.806 269.026 189.532 267.584 189.532C266.128 189.532 264.938 190.806 264.938 192.374C264.938 193.942 266.128 195.23 267.584 195.23ZM274.067 190.176C274.501 189.21 275.537 188.594 276.867 188.594V189.532C275.229 189.532 274.067 190.54 274.067 191.954V196H273.017V188.762H274.067V190.176ZM281.268 194.936L281.786 195.706C281.408 196 280.932 196.168 280.442 196.168C279.406 196.168 278.678 195.398 278.678 194.32V189.7H277.544V188.762H278.678V186.774H279.728V188.762H281.506V189.7H279.728V194.32C279.728 194.852 280.092 195.23 280.512 195.23C280.834 195.23 281.114 195.104 281.268 194.936ZM285.784 188.594C287.758 188.594 288.724 189.84 288.724 191.59V196H287.674V194.866C287.156 195.72 286.078 196.168 285.126 196.168C283.6 196.168 282.48 195.286 282.48 193.858C282.48 192.416 283.768 191.45 285.322 191.45C286.106 191.45 286.932 191.618 287.674 191.856V191.59C287.674 190.61 287.282 189.49 285.714 189.49C284.986 189.49 284.258 189.812 283.6 190.148L283.18 189.294C284.216 188.776 285.084 188.594 285.784 188.594ZM285.308 195.244C286.26 195.244 287.394 194.754 287.674 193.732V192.626C287.016 192.444 286.274 192.332 285.49 192.332C284.412 192.332 283.502 192.948 283.502 193.816C283.502 194.712 284.286 195.244 285.308 195.244ZM291.937 190.176C292.371 189.21 293.407 188.594 294.737 188.594V189.532C293.099 189.532 291.937 190.54 291.937 191.954V196H290.887V188.762H291.937V190.176Z" fill="#CBD4D8"/>
<path d="M223.526 236V226.382H224.618L230.582 234.208V226.382H231.674V236H230.582L224.618 228.174V236H223.526ZM234.847 227.446C234.455 227.446 234.147 227.124 234.147 226.746C234.147 226.382 234.455 226.06 234.847 226.06C235.225 226.06 235.533 226.382 235.533 226.746C235.533 227.124 235.225 227.446 234.847 227.446ZM234.315 236V228.762H235.365V236H234.315ZM241.132 228.594C242.742 228.594 243.848 229.728 243.848 231.394V236H242.798V231.534C242.798 230.344 242.056 229.532 240.992 229.532C239.76 229.532 238.752 230.372 238.752 231.394V236H237.702V228.762H238.752V229.91C239.172 229.14 240.096 228.594 241.132 228.594ZM249.062 235.23C249.916 235.23 250.896 234.852 251.344 234.362L251.988 235.048C251.358 235.734 250.084 236.168 249.076 236.168C247.144 236.168 245.408 234.586 245.408 232.36C245.408 230.204 247.032 228.594 248.978 228.594C251.162 228.594 252.408 230.246 252.408 232.78H246.486C246.64 234.194 247.634 235.23 249.062 235.23ZM249.02 229.532C247.732 229.532 246.696 230.442 246.5 231.842H251.372C251.232 230.54 250.462 229.532 249.02 229.532ZM256.872 234.936L257.39 235.706C257.012 236 256.536 236.168 256.046 236.168C255.01 236.168 254.282 235.398 254.282 234.32V229.7H253.148V228.762H254.282V226.774H255.332V228.762H257.11V229.7H255.332V234.32C255.332 234.852 255.696 235.23 256.116 235.23C256.438 235.23 256.718 235.104 256.872 234.936ZM261.388 228.594C263.362 228.594 264.328 229.84 264.328 231.59V236H263.278V234.866C262.76 235.72 261.682 236.168 260.73 236.168C259.204 236.168 258.084 235.286 258.084 233.858C258.084 232.416 259.372 231.45 260.926 231.45C261.71 231.45 262.536 231.618 263.278 231.856V231.59C263.278 230.61 262.886 229.49 261.318 229.49C260.59 229.49 259.862 229.812 259.204 230.148L258.784 229.294C259.82 228.776 260.688 228.594 261.388 228.594ZM260.912 235.244C261.864 235.244 262.998 234.754 263.278 233.732V232.626C262.62 232.444 261.878 232.332 261.094 232.332C260.016 232.332 259.106 232.948 259.106 233.816C259.106 234.712 259.89 235.244 260.912 235.244ZM267.023 227.446C266.631 227.446 266.323 227.124 266.323 226.746C266.323 226.382 266.631 226.06 267.023 226.06C267.401 226.06 267.709 226.382 267.709 226.746C267.709 227.124 267.401 227.446 267.023 227.446ZM266.491 236V228.762H267.541V236H266.491ZM269.877 236V226.214H270.927V236H269.877ZM275.504 236.168C274.496 236.168 273.376 235.79 272.508 235.09L273.054 234.32C273.88 234.922 274.706 235.23 275.504 235.23C276.456 235.23 277.1 234.782 277.1 234.096C277.1 233.312 276.26 233.06 275.28 232.78C273.53 232.276 272.858 231.758 272.858 230.722C272.858 229.406 273.95 228.594 275.392 228.594C276.288 228.594 277.212 228.902 277.982 229.406L277.478 230.218C276.75 229.756 276.036 229.532 275.392 229.532C274.58 229.532 273.908 229.896 273.908 230.596C273.908 231.226 274.44 231.422 275.784 231.856C276.946 232.22 278.15 232.612 278.15 233.984C278.15 235.314 277.002 236.168 275.504 236.168Z" fill="#CBD4D8"/>
<path d="M230.428 267.418H224.632V270.582H229.854V271.618H224.632V276H223.526V266.382H230.428V267.418ZM232.059 276V266.214H233.109V276H232.059ZM238.036 268.594C240.01 268.594 240.976 269.84 240.976 271.59V276H239.926V274.866C239.408 275.72 238.33 276.168 237.378 276.168C235.852 276.168 234.732 275.286 234.732 273.858C234.732 272.416 236.02 271.45 237.574 271.45C238.358 271.45 239.184 271.618 239.926 271.856V271.59C239.926 270.61 239.534 269.49 237.966 269.49C237.238 269.49 236.51 269.812 235.852 270.148L235.432 269.294C236.468 268.776 237.336 268.594 238.036 268.594ZM237.56 275.244C238.512 275.244 239.646 274.754 239.926 273.732V272.626C239.268 272.444 238.526 272.332 237.742 272.332C236.664 272.332 235.754 272.948 235.754 273.816C235.754 274.712 236.538 275.244 237.56 275.244ZM244.189 270.176C244.623 269.21 245.659 268.594 246.989 268.594V269.532C245.351 269.532 244.189 270.54 244.189 271.954V276H243.139V268.762H244.189V270.176ZM251.641 275.23C252.495 275.23 253.475 274.852 253.923 274.362L254.567 275.048C253.937 275.734 252.663 276.168 251.655 276.168C249.723 276.168 247.987 274.586 247.987 272.36C247.987 270.204 249.611 268.594 251.557 268.594C253.741 268.594 254.987 270.246 254.987 272.78H249.065C249.219 274.194 250.213 275.23 251.641 275.23ZM251.599 269.532C250.311 269.532 249.275 270.442 249.079 271.842H253.951C253.811 270.54 253.041 269.532 251.599 269.532ZM259.76 276.168C257.702 276.168 256.022 274.46 256.022 272.374C256.022 270.288 257.702 268.594 259.76 268.594C261.804 268.594 263.484 270.288 263.484 272.374C263.484 274.46 261.804 276.168 259.76 276.168ZM259.76 275.23C261.202 275.23 262.392 273.942 262.392 272.374C262.392 270.806 261.202 269.532 259.76 269.532C258.304 269.532 257.114 270.806 257.114 272.374C257.114 273.942 258.304 275.23 259.76 275.23ZM268.622 268.594C270.232 268.594 271.338 269.728 271.338 271.394V276H270.288V271.534C270.288 270.344 269.546 269.532 268.482 269.532C267.25 269.532 266.242 270.372 266.242 271.394V276H265.192V268.762H266.242V269.91C266.662 269.14 267.586 268.594 268.622 268.594Z" fill="#CBD4D8"/>
<path fill-rule="evenodd" clip-rule="evenodd" d="M215.471 309.636V309.778H215.467C216.89 310.565 217.597 312.217 217.185 313.79C216.773 315.363 215.346 316.456 213.72 316.444H213.151C213.253 316.157 213.253 315.843 213.151 315.556H213.724C214.988 315.571 216.089 314.699 216.362 313.466C216.635 312.232 216.005 310.977 214.853 310.458L214.564 310.324L214.6 310.004C214.606 309.886 214.606 309.767 214.6 309.649C214.537 307.633 212.86 306.046 210.844 306.093C209.273 306.069 207.854 307.027 207.289 308.493L207.187 308.773H206.889C205.11 308.889 203.722 310.359 203.709 312.142C203.696 313.925 205.063 315.415 206.84 315.556C206.738 315.843 206.738 316.157 206.84 316.444C204.616 316.328 202.85 314.528 202.777 312.302C202.704 310.076 204.348 308.164 206.56 307.902C207.325 306.237 208.995 305.176 210.827 305.191C213.333 305.144 215.408 307.129 215.471 309.636ZM211.587 315.716C211.671 315.632 211.784 315.586 211.902 315.587H211.907C212.087 315.586 212.251 315.694 212.32 315.861C212.389 316.027 212.35 316.22 212.222 316.347L210 318.569L207.778 316.347C207.605 316.171 207.607 315.889 207.782 315.716C207.958 315.543 208.24 315.545 208.413 315.72L209.556 316.862V311.413C209.556 311.168 209.755 310.969 210 310.969C210.245 310.969 210.444 311.168 210.444 311.413V316.862L211.587 315.716Z" fill="#CBD4D8"/>
<path d="M225.458 316L222.406 306.382H224.324L226.382 313.27L228.664 306.382H230.554L232.822 313.27L234.894 306.382H236.798L233.76 316H232.024L229.616 308.86L227.194 316H225.458ZM241.079 308.594C242.997 308.594 244.173 309.812 244.173 311.646V316H242.507V315.146C241.975 315.804 241.079 316.168 240.239 316.168C238.699 316.168 237.551 315.258 237.551 313.858C237.551 312.43 238.853 311.45 240.491 311.45C241.149 311.45 241.849 311.59 242.507 311.828V311.646C242.507 310.806 242.059 309.994 240.743 309.994C240.057 309.994 239.399 310.232 238.783 310.54L238.195 309.35C239.217 308.846 240.169 308.594 241.079 308.594ZM240.617 314.922C241.443 314.922 242.325 314.502 242.507 313.732V312.906C241.975 312.738 241.373 312.64 240.743 312.64C239.889 312.64 239.189 313.116 239.189 313.802C239.189 314.488 239.805 314.922 240.617 314.922ZM249.439 314.446L249.929 315.594C249.523 315.944 248.935 316.168 248.375 316.168C247.185 316.168 246.345 315.3 246.345 314.082V310.176H245.295V308.762H246.345V306.774H247.997V308.762H249.635V310.176H247.997V313.872C247.997 314.362 248.319 314.712 248.725 314.712C249.019 314.712 249.285 314.6 249.439 314.446ZM254.449 314.796C255.177 314.796 256.003 314.488 256.465 314.04L257.445 315.048C256.815 315.72 255.555 316.168 254.505 316.168C252.419 316.168 250.697 314.586 250.697 312.36C250.697 310.176 252.335 308.594 254.407 308.594C256.647 308.594 257.963 310.246 257.963 312.878H252.349C252.531 314.012 253.329 314.796 254.449 314.796ZM254.421 309.966C253.385 309.966 252.587 310.666 252.363 311.744H256.311C256.157 310.722 255.513 309.966 254.421 309.966ZM261.095 310.134C261.557 309.196 262.509 308.594 263.685 308.594V310.05C262.131 310.05 261.095 310.974 261.095 312.346V316H259.387V308.762H261.095V310.134Z" fill="#CBD4D8"/>
<path d="M419.993 317.118L425.291 311.998L419.993 306.878C419.693 306.588 419.214 306.597 418.925 306.898C418.635 307.199 418.644 307.677 418.945 307.967L423.118 311.998L418.945 316.034C418.644 316.323 418.635 316.802 418.925 317.102C419.214 317.403 419.693 317.412 419.993 317.122L419.993 317.118Z" fill="#CBD4D8"/>
<path fill-rule="evenodd" clip-rule="evenodd" d="M205.342 359.111H206.676C206.802 359.11 206.921 359.055 207.004 358.96L214.396 350.96C214.51 350.83 214.538 350.646 214.469 350.488C214.399 350.329 214.244 350.226 214.071 350.222H211.68L215.707 345.64C215.832 345.509 215.865 345.314 215.79 345.149C215.715 344.983 215.546 344.88 215.364 344.889H209.396C209.249 344.894 209.115 344.97 209.036 345.093L204.289 352.649C204.201 352.786 204.195 352.961 204.274 353.104C204.353 353.247 204.503 353.335 204.667 353.333H207.578L204.951 358.471C204.884 358.608 204.892 358.769 204.971 358.898C205.05 359.028 205.19 359.108 205.342 359.111ZM206.484 358.222H206.08L208.702 353.084C208.769 352.948 208.762 352.787 208.682 352.657C208.603 352.527 208.463 352.447 208.311 352.444H205.453L209.64 345.778H214.391L210.364 350.36C210.239 350.491 210.206 350.686 210.281 350.851C210.357 351.017 210.525 351.12 210.707 351.111H213.049L206.484 358.222Z" fill="#CBD4D8"/>
<path d="M230.568 347.978H225.08V350.302H230.036V351.898H225.08V354.404H230.568V356H223.33V346.382H230.568V347.978ZM232.316 356V346.214H234.024V356H232.316ZM239.277 354.796C240.005 354.796 240.831 354.488 241.293 354.04L242.273 355.048C241.643 355.72 240.383 356.168 239.333 356.168C237.247 356.168 235.525 354.586 235.525 352.36C235.525 350.176 237.163 348.594 239.235 348.594C241.475 348.594 242.791 350.246 242.791 352.878H237.177C237.359 354.012 238.157 354.796 239.277 354.796ZM239.249 349.966C238.213 349.966 237.415 350.666 237.191 351.744H241.139C240.985 350.722 240.341 349.966 239.249 349.966ZM247.533 356.168C245.433 356.168 243.655 354.432 243.655 352.374C243.655 350.316 245.433 348.594 247.547 348.594C248.653 348.594 249.605 349.056 250.291 349.77L249.143 350.778C248.751 350.344 248.149 350.05 247.533 350.05C246.343 350.05 245.349 351.114 245.349 352.374C245.349 353.648 246.343 354.712 247.533 354.712C248.163 354.712 248.779 354.418 249.185 353.956L250.333 354.95C249.633 355.692 248.667 356.168 247.533 356.168ZM254.982 354.446L255.472 355.594C255.066 355.944 254.478 356.168 253.918 356.168C252.728 356.168 251.888 355.3 251.888 354.082V350.176H250.838V348.762H251.888V346.774H253.54V348.762H255.178V350.176H253.54V353.872C253.54 354.362 253.862 354.712 254.268 354.712C254.562 354.712 254.828 354.6 254.982 354.446ZM258.479 350.134C258.941 349.196 259.893 348.594 261.069 348.594V350.05C259.515 350.05 258.479 350.974 258.479 352.346V356H256.771V348.762H258.479V350.134ZM263.377 347.67C262.831 347.67 262.397 347.208 262.397 346.69C262.397 346.172 262.831 345.724 263.377 345.724C263.909 345.724 264.343 346.172 264.343 346.69C264.343 347.208 263.909 347.67 263.377 347.67ZM262.523 356V348.762H264.231V356H262.523ZM269.582 356.168C267.482 356.168 265.704 354.432 265.704 352.374C265.704 350.316 267.482 348.594 269.596 348.594C270.702 348.594 271.654 349.056 272.34 349.77L271.192 350.778C270.8 350.344 270.198 350.05 269.582 350.05C268.392 350.05 267.398 351.114 267.398 352.374C267.398 353.648 268.392 354.712 269.582 354.712C270.212 354.712 270.828 354.418 271.234 353.956L272.382 354.95C271.682 355.692 270.716 356.168 269.582 356.168Z" fill="#CBD4D8"/>
<path fill-rule="evenodd" clip-rule="evenodd" d="M207.116 386.382C207.297 386.367 207.466 386.287 207.591 386.156C207.807 386.277 207.988 386.454 208.116 386.667C207.673 387.046 207.278 387.477 206.938 387.951C206.738 388.221 206.707 388.581 206.859 388.881C207.01 389.18 207.318 389.369 207.653 389.369H212.365C212.697 389.37 213.003 389.184 213.156 388.889C213.31 388.589 213.28 388.227 213.08 387.956C212.737 387.479 212.337 387.047 211.889 386.667C212.017 386.461 212.196 386.291 212.409 386.173C212.646 386.415 213.015 386.467 213.31 386.301C213.604 386.134 213.75 385.791 213.665 385.463C213.58 385.136 213.286 384.907 212.948 384.904C212.609 384.902 212.312 385.127 212.222 385.453C211.859 385.621 211.551 385.887 211.333 386.222C210.948 385.959 210.497 385.805 210.031 385.778C209.554 385.8 209.093 385.954 208.698 386.222C208.472 385.883 208.152 385.616 207.778 385.453C207.68 385.07 207.299 384.829 206.91 384.905C206.522 384.982 206.26 385.348 206.315 385.741C206.369 386.133 206.721 386.415 207.116 386.382ZM210 386.698C210.645 386.698 211.569 387.396 212.36 388.476H207.649C208.44 387.391 209.36 386.698 210 386.698ZM214.889 392.889H215.702C215.948 392.889 216.147 393.088 216.147 393.333C216.147 393.579 215.948 393.778 215.702 393.778H214.862C214.824 394.736 214.573 395.674 214.129 396.524L214.956 397.102C215.086 397.194 215.157 397.347 215.143 397.506C215.129 397.664 215.032 397.803 214.888 397.87C214.744 397.937 214.575 397.922 214.445 397.831L213.618 397.267C212.731 398.351 211.401 398.974 210 398.96C208.595 398.975 207.26 398.348 206.373 397.258L205.556 397.831C205.428 397.947 205.244 397.978 205.085 397.911C204.926 397.844 204.82 397.691 204.813 397.519C204.807 397.347 204.9 397.186 205.053 397.107L205.893 396.52C205.448 395.672 205.196 394.735 205.156 393.778H204.298C204.052 393.778 203.853 393.579 203.853 393.333C203.853 393.088 204.052 392.889 204.298 392.889H205.142C205.188 392.02 205.364 391.163 205.667 390.347L205 389.991C204.784 389.875 204.703 389.605 204.82 389.389C204.937 389.173 205.206 389.092 205.422 389.209L206.769 389.947C206.282 390.966 206.02 392.079 206 393.209C206 396 207.431 397.871 209.645 398.053V390.667H210.356V398.053C212.578 397.88 214 396 214 393.209C213.991 392.078 213.738 390.962 213.258 389.938L214.591 389.209C214.807 389.092 215.077 389.173 215.193 389.389C215.31 389.605 215.229 389.875 215.013 389.991L214.365 390.342C214.668 391.16 214.845 392.018 214.889 392.889ZM208.218 396.204C208.606 396.204 208.92 395.89 208.92 395.502C208.92 395.114 208.606 394.8 208.218 394.8C207.83 394.8 207.516 395.114 207.516 395.502C207.516 395.89 207.83 396.204 208.218 396.204ZM208.582 391.884C208.582 392.363 208.194 392.751 207.716 392.751C207.237 392.751 206.849 392.363 206.849 391.884C206.849 391.406 207.237 391.018 207.716 391.018C208.194 391.018 208.582 391.406 208.582 391.884ZM211.965 396.204C212.352 396.204 212.667 395.89 212.667 395.502C212.667 395.114 212.352 394.8 211.965 394.8C211.577 394.8 211.262 395.114 211.262 395.502C211.262 395.89 211.577 396.204 211.965 396.204ZM213.338 391.884C213.338 392.363 212.95 392.751 212.471 392.751C211.993 392.751 211.605 392.363 211.605 391.884C211.605 391.406 211.993 391.018 212.471 391.018C212.95 391.018 213.338 391.406 213.338 391.884Z" fill="#CBD4D8"/>
<path d="M227.488 392.136V390.708H231.604V394.6C230.666 395.566 229.182 396.168 227.768 396.168C225.024 396.168 222.7 393.886 222.7 391.184C222.7 388.482 225.024 386.214 227.768 386.214C229.182 386.214 230.666 386.802 231.604 387.768L230.358 388.93C229.756 388.23 228.706 387.81 227.768 387.81C225.99 387.81 224.478 389.35 224.478 391.184C224.478 393.032 225.99 394.572 227.768 394.572C228.496 394.572 229.294 394.32 229.896 393.886V392.136H227.488ZM235.199 390.134C235.661 389.196 236.613 388.594 237.789 388.594V390.05C236.235 390.05 235.199 390.974 235.199 392.346V396H233.491V388.762H235.199V390.134ZM242.141 388.594C244.059 388.594 245.235 389.812 245.235 391.646V396H243.569V395.146C243.037 395.804 242.141 396.168 241.301 396.168C239.761 396.168 238.613 395.258 238.613 393.858C238.613 392.43 239.915 391.45 241.553 391.45C242.211 391.45 242.911 391.59 243.569 391.828V391.646C243.569 390.806 243.121 389.994 241.805 389.994C241.119 389.994 240.461 390.232 239.845 390.54L239.257 389.35C240.279 388.846 241.231 388.594 242.141 388.594ZM241.679 394.922C242.505 394.922 243.387 394.502 243.569 393.732V392.906C243.037 392.738 242.435 392.64 241.805 392.64C240.951 392.64 240.251 393.116 240.251 393.802C240.251 394.488 240.867 394.922 241.679 394.922ZM249.62 396.168C248.514 396.168 247.324 395.776 246.442 395.09L247.17 393.97C247.954 394.53 248.864 394.852 249.648 394.852C250.418 394.852 250.88 394.53 250.88 394.026C250.88 393.452 250.208 393.256 249.354 393.032C247.772 392.612 246.778 392.178 246.778 390.862C246.778 389.518 247.898 388.594 249.508 388.594C250.502 388.594 251.482 388.944 252.28 389.462L251.608 390.61C250.936 390.176 250.18 389.896 249.508 389.896C248.878 389.896 248.374 390.19 248.374 390.694C248.374 391.17 248.822 391.296 249.914 391.632C251.146 391.968 252.462 392.374 252.462 393.872C252.462 395.272 251.3 396.168 249.62 396.168ZM256.438 396.168C255.332 396.168 254.142 395.776 253.26 395.09L253.988 393.97C254.772 394.53 255.682 394.852 256.466 394.852C257.236 394.852 257.698 394.53 257.698 394.026C257.698 393.452 257.026 393.256 256.172 393.032C254.59 392.612 253.596 392.178 253.596 390.862C253.596 389.518 254.716 388.594 256.326 388.594C257.32 388.594 258.3 388.944 259.098 389.462L258.426 390.61C257.754 390.176 256.998 389.896 256.326 389.896C255.696 389.896 255.192 390.19 255.192 390.694C255.192 391.17 255.64 391.296 256.732 391.632C257.964 391.968 259.28 392.374 259.28 393.872C259.28 395.272 258.118 396.168 256.438 396.168Z" fill="#CBD4D8"/>
<path d="M419.993 397.118L425.291 391.998L419.993 386.878C419.693 386.588 419.214 386.597 418.925 386.898C418.635 387.199 418.644 387.677 418.945 387.967L423.118 391.998L418.945 396.034C418.644 396.323 418.635 396.802 418.925 397.102C419.214 397.403 419.693 397.412 419.993 397.122L419.993 397.118Z" fill="#CBD4D8"/>
<path fill-rule="evenodd" clip-rule="evenodd" d="M210.187 425.373L215.965 428.04C216.122 428.113 216.223 428.271 216.222 428.444V436C216.223 436.174 216.122 436.332 215.965 436.404L210.187 439.071C210.068 439.126 209.932 439.126 209.813 439.071L204.036 436.404C203.878 436.332 203.777 436.174 203.778 436V428.444C203.777 428.271 203.878 428.113 204.036 428.04L209.813 425.373C209.932 425.319 210.068 425.319 210.187 425.373ZM214.716 428.444L210 426.267L205.285 428.444L210 430.622L214.716 428.444ZM204.667 429.138L209.556 431.396V437.973L204.667 435.716V429.138ZM210.445 431.396V437.973L215.333 435.716V429.138L210.445 431.396Z" fill="#CBD4D8"/>
<path d="M223.33 436V426.382H225.066V436H223.33ZM230.684 436.168C228.584 436.168 226.806 434.432 226.806 432.374C226.806 430.316 228.584 428.594 230.698 428.594C231.804 428.594 232.756 429.056 233.442 429.77L232.294 430.778C231.902 430.344 231.3 430.05 230.684 430.05C229.494 430.05 228.5 431.114 228.5 432.374C228.5 433.648 229.494 434.712 230.684 434.712C231.314 434.712 231.93 434.418 232.336 433.956L233.484 434.95C232.784 435.692 231.818 436.168 230.684 436.168ZM237.965 434.796C238.693 434.796 239.519 434.488 239.981 434.04L240.961 435.048C240.331 435.72 239.071 436.168 238.021 436.168C235.935 436.168 234.213 434.586 234.213 432.36C234.213 430.176 235.851 428.594 237.923 428.594C240.163 428.594 241.479 430.246 241.479 432.878H235.865C236.047 434.012 236.845 434.796 237.965 434.796ZM237.937 429.966C236.901 429.966 236.103 430.666 235.879 431.744H239.827C239.673 430.722 239.029 429.966 237.937 429.966Z" fill="#CBD4D8"/>
<path fill-rule="evenodd" clip-rule="evenodd" d="M212.947 466.244C213.898 466.671 214.882 467.02 215.889 467.289L216.222 467.373V471.08C216.222 477.036 210.213 479.28 210.151 479.28L210 479.333L209.849 479.28C209.848 479.28 209.848 479.279 209.846 479.279C209.697 479.222 203.778 476.984 203.778 471.08V467.373L204.111 467.289C205.12 467.022 206.105 466.674 207.058 466.249C207.994 465.843 208.897 465.366 209.76 464.822L210 464.667L210.244 464.818C211.108 465.362 212.011 465.838 212.947 466.244ZM210 478.382C210.889 478.018 215.333 475.969 215.333 471.08V468.062C214.396 467.793 213.478 467.459 212.587 467.062C211.695 466.677 210.831 466.231 210 465.729C209.169 466.231 208.305 466.677 207.413 467.062C206.522 467.459 205.604 467.793 204.667 468.062V471.08C204.667 475.964 209.111 478.018 210 478.382Z" fill="#CBD4D8"/>
<path d="M230.568 467.978H225.08V470.414H230.036V472.01H225.08V476H223.33V466.382H230.568V467.978ZM232.937 467.67C232.391 467.67 231.957 467.208 231.957 466.69C231.957 466.172 232.391 465.724 232.937 465.724C233.469 465.724 233.903 466.172 233.903 466.69C233.903 467.208 233.469 467.67 232.937 467.67ZM232.083 476V468.762H233.791V476H232.083ZM241.005 468.762H242.727V475.23C242.727 477.092 241.159 478.408 238.947 478.408C237.701 478.408 236.539 478.002 235.839 477.442L236.469 476.196C236.973 476.658 237.827 476.952 238.681 476.952C240.109 476.952 241.005 476.266 241.005 475.174V474.25C240.431 475.02 239.549 475.468 238.527 475.468C236.665 475.468 235.279 474.04 235.279 472.024C235.279 470.008 236.665 468.594 238.527 468.594C239.563 468.594 240.487 469.07 241.005 469.826V468.762ZM239.017 474.012C240.179 474.012 241.005 473.186 241.005 472.024C241.005 470.876 240.179 470.05 239.017 470.05C237.869 470.05 237.043 470.876 237.043 472.024C237.043 473.186 237.869 474.012 239.017 474.012ZM248.683 468.594C250.279 468.594 251.385 469.742 251.385 471.394V476H249.719V471.73C249.719 470.736 249.103 470.05 248.207 470.05C247.227 470.05 246.443 470.736 246.443 471.618V476H244.735V466.214H246.443V469.742C246.877 469.056 247.717 468.594 248.683 468.594ZM256.65 474.446L257.14 475.594C256.734 475.944 256.146 476.168 255.586 476.168C254.396 476.168 253.556 475.3 253.556 474.082V470.176H252.506V468.762H253.556V466.774H255.208V468.762H256.846V470.176H255.208V473.872C255.208 474.362 255.53 474.712 255.936 474.712C256.23 474.712 256.496 474.6 256.65 474.446ZM259.293 467.67C258.747 467.67 258.313 467.208 258.313 466.69C258.313 466.172 258.747 465.724 259.293 465.724C259.825 465.724 260.259 466.172 260.259 466.69C260.259 467.208 259.825 467.67 259.293 467.67ZM258.439 476V468.762H260.147V476H258.439ZM266.129 468.594C267.725 468.594 268.831 469.742 268.831 471.394V476H267.165V471.73C267.165 470.736 266.549 470.05 265.653 470.05C264.673 470.05 263.889 470.736 263.889 471.618V476H262.181V468.762H263.889V469.742C264.323 469.056 265.163 468.594 266.129 468.594ZM275.888 468.762H277.61V475.23C277.61 477.092 276.042 478.408 273.83 478.408C272.584 478.408 271.422 478.002 270.722 477.442L271.352 476.196C271.856 476.658 272.71 476.952 273.564 476.952C274.992 476.952 275.888 476.266 275.888 475.174V474.25C275.314 475.02 274.432 475.468 273.41 475.468C271.548 475.468 270.162 474.04 270.162 472.024C270.162 470.008 271.548 468.594 273.41 468.594C274.446 468.594 275.37 469.07 275.888 469.826V468.762ZM273.9 474.012C275.062 474.012 275.888 473.186 275.888 472.024C275.888 470.876 275.062 470.05 273.9 470.05C272.752 470.05 271.926 470.876 271.926 472.024C271.926 473.186 272.752 474.012 273.9 474.012Z" fill="#CBD4D8"/>
<path d="M419.993 477.118L425.291 471.998L419.993 466.878C419.693 466.588 419.214 466.597 418.925 466.898C418.635 467.199 418.644 467.677 418.945 467.967L423.118 471.998L418.945 476.034C418.644 476.323 418.635 476.802 418.925 477.102C419.214 477.403 419.693 477.412 419.993 477.122L419.993 477.118Z" fill="#CBD4D8"/>
<path fill-rule="evenodd" clip-rule="evenodd" d="M210 504.889C206.073 504.889 202.889 508.073 202.889 512C202.889 515.927 206.073 519.111 210 519.111C213.927 519.111 217.111 515.927 217.111 512C217.111 510.114 216.362 508.305 215.028 506.972C213.695 505.638 211.886 504.889 210 504.889ZM207.071 511.147C207.513 511.147 207.871 510.789 207.871 510.347C207.871 509.905 207.513 509.547 207.071 509.547C206.629 509.547 206.271 509.905 206.271 510.347C206.271 510.789 206.629 511.147 207.071 511.147ZM210.071 512.889C208.777 512.889 207.564 513.515 206.813 514.569C206.721 514.698 206.705 514.867 206.771 515.011C206.837 515.156 206.975 515.254 207.133 515.269C207.292 515.284 207.446 515.214 207.538 515.084C208.114 514.275 209.043 513.789 210.036 513.778C211.03 513.767 211.97 514.231 212.564 515.027C212.712 515.223 212.99 515.263 213.187 515.116C213.383 514.968 213.423 514.69 213.276 514.493C212.52 513.483 211.333 512.889 210.071 512.889ZM213.982 510.347C213.982 510.789 213.624 511.147 213.182 511.147C212.74 511.147 212.382 510.789 212.382 510.347C212.382 509.905 212.74 509.547 213.182 509.547C213.624 509.547 213.982 509.905 213.982 510.347ZM203.778 512C203.778 515.436 206.564 518.222 210 518.222C211.65 518.222 213.233 517.567 214.4 516.4C215.567 515.233 216.222 513.65 216.222 512C216.222 508.564 213.436 505.778 210 505.778C206.564 505.778 203.778 508.564 203.778 512Z" fill="#CBD4D8"/>
<path d="M223.33 516V506.382H227.516C229.56 506.382 231.114 507.698 231.114 509.574C231.114 511.45 229.56 512.766 227.516 512.766H225.066V516H223.33ZM225.066 511.156H227.306C228.496 511.156 229.322 510.554 229.322 509.574C229.322 508.594 228.496 507.992 227.306 507.992H225.066V511.156ZM235.989 516.168C233.847 516.168 232.097 514.46 232.097 512.374C232.097 510.288 233.847 508.594 235.989 508.594C238.117 508.594 239.853 510.288 239.853 512.374C239.853 514.46 238.117 516.168 235.989 516.168ZM235.989 514.712C237.193 514.712 238.187 513.662 238.187 512.374C238.187 511.086 237.193 510.05 235.989 510.05C234.771 510.05 233.777 511.086 233.777 512.374C233.777 513.662 234.771 514.712 235.989 514.712ZM242.189 507.67C241.643 507.67 241.209 507.208 241.209 506.69C241.209 506.172 241.643 505.724 242.189 505.724C242.721 505.724 243.155 506.172 243.155 506.69C243.155 507.208 242.721 507.67 242.189 507.67ZM241.335 516V508.762H243.043V516H241.335ZM247.583 516.168C246.477 516.168 245.287 515.776 244.405 515.09L245.133 513.97C245.917 514.53 246.827 514.852 247.611 514.852C248.381 514.852 248.843 514.53 248.843 514.026C248.843 513.452 248.171 513.256 247.317 513.032C245.735 512.612 244.741 512.178 244.741 510.862C244.741 509.518 245.861 508.594 247.471 508.594C248.465 508.594 249.445 508.944 250.243 509.462L249.571 510.61C248.899 510.176 248.143 509.896 247.471 509.896C246.841 509.896 246.337 510.19 246.337 510.694C246.337 511.17 246.785 511.296 247.877 511.632C249.109 511.968 250.425 512.374 250.425 513.872C250.425 515.272 249.263 516.168 247.583 516.168ZM255.226 516.168C253.084 516.168 251.334 514.46 251.334 512.374C251.334 510.288 253.084 508.594 255.226 508.594C257.354 508.594 259.09 510.288 259.09 512.374C259.09 514.46 257.354 516.168 255.226 516.168ZM255.226 514.712C256.43 514.712 257.424 513.662 257.424 512.374C257.424 511.086 256.43 510.05 255.226 510.05C254.008 510.05 253.014 511.086 253.014 512.374C253.014 513.662 254.008 514.712 255.226 514.712ZM264.52 508.594C266.116 508.594 267.222 509.742 267.222 511.394V516H265.556V511.73C265.556 510.736 264.94 510.05 264.044 510.05C263.064 510.05 262.28 510.736 262.28 511.618V516H260.572V508.762H262.28V509.742C262.714 509.056 263.554 508.594 264.52 508.594Z" fill="#CBD4D8"/>
<path fill-rule="evenodd" clip-rule="evenodd" d="M216.222 545.778H203.778C203.287 545.778 202.889 546.176 202.889 546.667V557.333C202.889 557.824 203.287 558.222 203.778 558.222H216.222C216.713 558.222 217.111 557.824 217.111 557.333V546.667C217.111 546.176 216.713 545.778 216.222 545.778ZM205.964 550.222C206.701 550.222 207.298 549.625 207.298 548.889C207.298 548.153 206.701 547.556 205.964 547.556C205.228 547.556 204.631 548.153 204.631 548.889C204.631 549.625 205.228 550.222 205.964 550.222ZM212.124 550.831L209.724 553.231L207.947 551.453C207.773 551.281 207.493 551.281 207.32 551.453L204.631 554.178V555.436L207.649 552.418L209.111 553.858L207.444 555.524H208.667L212.422 551.769L215.333 554.667V553.413L212.751 550.831C212.578 550.659 212.298 550.659 212.124 550.831ZM206.625 548.614C206.513 548.348 206.252 548.176 205.964 548.178V548.182C205.575 548.185 205.26 548.5 205.258 548.889C205.258 549.177 205.432 549.437 205.698 549.546C205.964 549.656 206.27 549.594 206.473 549.39C206.676 549.186 206.736 548.879 206.625 548.614ZM203.778 546.667V557.333H216.222V546.667H203.778Z" fill="#CBD4D8"/>
<path d="M227.488 552.136V550.708H231.604V554.6C230.666 555.566 229.182 556.168 227.768 556.168C225.024 556.168 222.7 553.886 222.7 551.184C222.7 548.482 225.024 546.214 227.768 546.214C229.182 546.214 230.666 546.802 231.604 547.768L230.358 548.93C229.756 548.23 228.706 547.81 227.768 547.81C225.99 547.81 224.478 549.35 224.478 551.184C224.478 553.032 225.99 554.572 227.768 554.572C228.496 554.572 229.294 554.32 229.896 553.886V552.136H227.488ZM235.199 550.134C235.661 549.196 236.613 548.594 237.789 548.594V550.05C236.235 550.05 235.199 550.974 235.199 552.346V556H233.491V548.762H235.199V550.134ZM242.575 556.168C240.433 556.168 238.683 554.46 238.683 552.374C238.683 550.288 240.433 548.594 242.575 548.594C244.703 548.594 246.439 550.288 246.439 552.374C246.439 554.46 244.703 556.168 242.575 556.168ZM242.575 554.712C243.779 554.712 244.773 553.662 244.773 552.374C244.773 551.086 243.779 550.05 242.575 550.05C241.357 550.05 240.363 551.086 240.363 552.374C240.363 553.662 241.357 554.712 242.575 554.712ZM252.708 548.762H254.416V556H252.708V555.02C252.274 555.706 251.434 556.168 250.468 556.168C248.872 556.168 247.766 555.02 247.766 553.368V548.762H249.432V553.032C249.432 554.026 250.048 554.712 250.944 554.712C251.924 554.712 252.708 554.026 252.708 553.144V548.762ZM260.395 548.594C261.991 548.594 263.097 549.742 263.097 551.394V556H261.431V551.73C261.431 550.736 260.815 550.05 259.919 550.05C258.939 550.05 258.155 550.736 258.155 551.618V556H256.447V548.762H258.155V549.742C258.589 549.056 259.429 548.594 260.395 548.594ZM270.322 546.214H272.03V556H270.322V554.852C269.762 555.678 268.88 556.168 267.816 556.168C265.884 556.168 264.484 554.6 264.484 552.374C264.484 550.162 265.884 548.594 267.816 548.594C268.88 548.594 269.762 549.084 270.322 549.896V546.214ZM268.264 554.712C269.468 554.712 270.308 553.732 270.308 552.374C270.308 551.016 269.468 550.05 268.264 550.05C267.046 550.05 266.178 551.016 266.178 552.374C266.178 553.732 267.046 554.712 268.264 554.712Z" fill="#CBD4D8"/>
<defs>
<clipPath id="clip0_59_2405">
<rect width="186" height="620" fill="white"/>
</clipPath>
<clipPath id="clip1_59_2405">
<rect x="128" y="7" width="46" height="46" rx="3" fill="white"/>
</clipPath>
</defs>
</svg>
