<svg width="224" height="65" viewBox="0 0 224 65" fill="none" xmlns="http://www.w3.org/2000/svg">
<path d="M13.304 40.156C10.834 40.156 8.728 38.037 8.728 35.528C8.728 33.019 10.834 30.913 13.304 30.913C14.539 30.913 15.683 31.433 16.515 32.278L15.826 32.98C15.176 32.291 14.279 31.849 13.304 31.849C11.38 31.849 9.755 33.539 9.755 35.528C9.755 37.53 11.38 39.22 13.304 39.22C14.279 39.22 15.176 38.778 15.826 38.089L16.515 38.791C15.683 39.623 14.539 40.156 13.304 40.156ZM21.217 33.123C22.712 33.123 23.739 34.176 23.739 35.723V40H22.764V35.853C22.764 34.748 22.075 33.994 21.087 33.994C19.943 33.994 19.007 34.774 19.007 35.723V40H18.032V30.913H19.007V34.345C19.397 33.63 20.255 33.123 21.217 33.123ZM28.5736 39.285C29.3666 39.285 30.2766 38.934 30.6926 38.479L31.2906 39.116C30.7056 39.753 29.5226 40.156 28.5866 40.156C26.7926 40.156 25.1806 38.687 25.1806 36.62C25.1806 34.618 26.6886 33.123 28.4956 33.123C30.5236 33.123 31.6806 34.657 31.6806 37.01H26.1816C26.3246 38.323 27.2476 39.285 28.5736 39.285ZM28.5346 33.994C27.3386 33.994 26.3766 34.839 26.1946 36.139H30.7186C30.5886 34.93 29.8736 33.994 28.5346 33.994ZM34.1937 34.592C34.5967 33.695 35.5587 33.123 36.7937 33.123V33.994C35.2727 33.994 34.1937 34.93 34.1937 36.243V40H33.2187V33.279H34.1937V34.592ZM39.248 34.592C39.651 33.695 40.613 33.123 41.848 33.123V33.994C40.327 33.994 39.248 34.93 39.248 36.243V40H38.273V33.279H39.248V34.592ZM43.9123 42.34C43.5223 42.34 43.1583 42.262 42.8463 42.119L43.0803 41.287C43.3143 41.404 43.5873 41.456 43.8733 41.456C44.3023 41.456 44.5883 41.313 44.8483 40.858L45.2383 40.026L42.3133 33.279H43.3923L45.7453 38.869L47.9683 33.279H49.0213L45.9533 40.754C45.4853 41.898 44.8353 42.327 43.9123 42.34Z" fill="#E3EAED"/>
<path d="M189.12 33.9915L184 39.2893L178.88 33.9915C178.59 33.6908 178.599 33.2123 178.9 32.9226C179.201 32.633 179.679 32.642 179.969 32.9426L184 37.116L188.036 32.9426C188.325 32.642 188.804 32.633 189.104 32.9226C189.405 33.2123 189.414 33.6908 189.124 33.9915H189.12Z" fill="#CBD4D8"/>
<path d="M200 47H0V49H200V47Z" fill="#67CA16" mask="url(#path-1-inside-1_9328_50360)"/>
<path fill-rule="evenodd" clip-rule="evenodd" d="M212 28C207.582 28 204 31.5817 204 36C204 40.4183 207.582 44 212 44C216.418 44 220 40.4183 220 36C220 33.8783 219.157 31.8434 217.657 30.3431C216.157 28.8429 214.122 28 212 28ZM212 42.6667C208.318 42.6667 205.333 39.6819 205.333 36C205.333 32.3181 208.318 29.3333 212 29.3333C215.682 29.3333 218.667 32.3181 218.667 36C218.667 37.7681 217.964 39.4638 216.714 40.714C215.464 41.9643 213.768 42.6667 212 42.6667ZM207.56 36.4933L210.893 39.8267L216.353 34.3667C216.58 34.1022 216.565 33.7079 216.318 33.4616C216.072 33.2154 215.678 33.2001 215.413 33.4267L210.893 37.9467L208.5 35.5533C208.235 35.3268 207.841 35.342 207.595 35.5883C207.349 35.8345 207.333 36.2288 207.56 36.4933Z" fill="#67CA16"/>
<path d="M4.488 63.132C2.398 63.132 0.616 61.339 0.616 59.216C0.616 57.093 2.398 55.311 4.488 55.311C5.533 55.311 6.501 55.751 7.205 56.466L6.622 57.06C6.072 56.477 5.313 56.103 4.488 56.103C2.86 56.103 1.485 57.533 1.485 59.216C1.485 60.91 2.86 62.34 4.488 62.34C5.313 62.34 6.072 61.966 6.622 61.383L7.205 61.977C6.501 62.681 5.533 63.132 4.488 63.132ZM11.4682 57.181C12.7332 57.181 13.6022 58.072 13.6022 59.381V63H12.7772V59.491C12.7772 58.556 12.1942 57.918 11.3582 57.918C10.3902 57.918 9.59821 58.578 9.59821 59.381V63H8.77321V55.311H9.59821V58.215C9.92821 57.61 10.6542 57.181 11.4682 57.181ZM17.6147 57.181C19.1657 57.181 19.9247 58.16 19.9247 59.535V63H19.0997V62.109C18.6927 62.78 17.8457 63.132 17.0977 63.132C15.8987 63.132 15.0187 62.439 15.0187 61.317C15.0187 60.184 16.0307 59.425 17.2517 59.425C17.8677 59.425 18.5167 59.557 19.0997 59.744V59.535C19.0997 58.765 18.7917 57.885 17.5597 57.885C16.9877 57.885 16.4157 58.138 15.8987 58.402L15.5687 57.731C16.3827 57.324 17.0647 57.181 17.6147 57.181ZM17.2407 62.406C17.9887 62.406 18.8797 62.021 19.0997 61.218V60.349C18.5827 60.206 17.9997 60.118 17.3837 60.118C16.5367 60.118 15.8217 60.602 15.8217 61.284C15.8217 61.988 16.4377 62.406 17.2407 62.406ZM24.5977 57.181C25.8627 57.181 26.7317 58.072 26.7317 59.381V63H25.9067V59.491C25.9067 58.556 25.3237 57.918 24.4877 57.918C23.5197 57.918 22.7277 58.578 22.7277 59.381V63H21.9027V57.313H22.7277V58.215C23.0577 57.61 23.7837 57.181 24.5977 57.181ZM32.9001 57.313H33.7251V62.395C33.7251 63.858 32.5701 64.892 30.9311 64.892C30.0071 64.892 29.1491 64.573 28.6321 64.133L28.9951 63.484C29.4351 63.902 30.1171 64.155 30.8211 64.155C32.1301 64.155 32.9001 63.506 32.9001 62.395V61.471C32.4601 62.164 31.7341 62.582 30.8321 62.582C29.3031 62.582 28.2141 61.46 28.2141 59.876C28.2141 58.292 29.3031 57.181 30.8321 57.181C31.7341 57.181 32.4601 57.599 32.9001 58.292V57.313ZM30.9861 61.845C32.1081 61.845 32.9001 61.031 32.9001 59.876C32.9001 58.732 32.1081 57.918 30.9861 57.918C29.8751 57.918 29.0831 58.732 29.0831 59.876C29.0831 61.031 29.8751 61.845 30.9861 61.845ZM38.2359 62.395C38.9069 62.395 39.6769 62.098 40.0289 61.713L40.5349 62.252C40.0399 62.791 39.0389 63.132 38.2469 63.132C36.7289 63.132 35.3649 61.889 35.3649 60.14C35.3649 58.446 36.6409 57.181 38.1699 57.181C39.8859 57.181 40.8649 58.479 40.8649 60.47H36.2119C36.3329 61.581 37.1139 62.395 38.2359 62.395ZM38.2029 57.918C37.1909 57.918 36.3769 58.633 36.2229 59.733H40.0509C39.9409 58.71 39.3359 57.918 38.2029 57.918ZM44.2109 63.132C43.4189 63.132 42.5389 62.835 41.8569 62.285L42.2859 61.68C42.9349 62.153 43.5839 62.395 44.2109 62.395C44.9589 62.395 45.4649 62.043 45.4649 61.504C45.4649 60.888 44.8049 60.69 44.0349 60.47C42.6599 60.074 42.1319 59.667 42.1319 58.853C42.1319 57.819 42.9899 57.181 44.1229 57.181C44.8269 57.181 45.5529 57.423 46.1579 57.819L45.7619 58.457C45.1899 58.094 44.6289 57.918 44.1229 57.918C43.4849 57.918 42.9569 58.204 42.9569 58.754C42.9569 59.249 43.3749 59.403 44.4309 59.744C45.3439 60.03 46.2899 60.338 46.2899 61.416C46.2899 62.461 45.3879 63.132 44.2109 63.132ZM52.8932 63.132C52.1012 63.132 51.2212 62.835 50.5392 62.285L50.9682 61.68C51.6172 62.153 52.2662 62.395 52.8932 62.395C53.6412 62.395 54.1472 62.043 54.1472 61.504C54.1472 60.888 53.4872 60.69 52.7172 60.47C51.3422 60.074 50.8142 59.667 50.8142 58.853C50.8142 57.819 51.6722 57.181 52.8052 57.181C53.5092 57.181 54.2352 57.423 54.8402 57.819L54.4442 58.457C53.8722 58.094 53.3112 57.918 52.8052 57.918C52.1672 57.918 51.6392 58.204 51.6392 58.754C51.6392 59.249 52.0572 59.403 53.1132 59.744C54.0262 60.03 54.9722 60.338 54.9722 61.416C54.9722 62.461 54.0702 63.132 52.8932 63.132ZM58.6211 57.181C60.1721 57.181 60.9311 58.16 60.9311 59.535V63H60.1061V62.109C59.6991 62.78 58.8521 63.132 58.1041 63.132C56.9051 63.132 56.0251 62.439 56.0251 61.317C56.0251 60.184 57.0371 59.425 58.2581 59.425C58.8741 59.425 59.5231 59.557 60.1061 59.744V59.535C60.1061 58.765 59.7981 57.885 58.5661 57.885C57.9941 57.885 57.4221 58.138 56.9051 58.402L56.5751 57.731C57.3891 57.324 58.0711 57.181 58.6211 57.181ZM58.2471 62.406C58.9951 62.406 59.8861 62.021 60.1061 61.218V60.349C59.5891 60.206 59.0061 60.118 58.3901 60.118C57.5431 60.118 56.8281 60.602 56.8281 61.284C56.8281 61.988 57.4441 62.406 58.2471 62.406ZM64.4821 63L62.0621 57.313H62.9861L64.8781 62.032L66.7371 57.313H67.6611L65.2741 63H64.4821ZM71.3294 62.395C72.0004 62.395 72.7704 62.098 73.1224 61.713L73.6284 62.252C73.1334 62.791 72.1324 63.132 71.3404 63.132C69.8224 63.132 68.4584 61.889 68.4584 60.14C68.4584 58.446 69.7344 57.181 71.2634 57.181C72.9794 57.181 73.9584 58.479 73.9584 60.47H69.3054C69.4264 61.581 70.2074 62.395 71.3294 62.395ZM71.2964 57.918C70.2844 57.918 69.4704 58.633 69.3164 59.733H73.1444C73.0344 58.71 72.4294 57.918 71.2964 57.918ZM79.7905 55.311H80.6155V63H79.7905V61.933C79.3615 62.681 78.6355 63.132 77.7225 63.132C76.2265 63.132 75.1045 61.9 75.1045 60.151C75.1045 58.413 76.2265 57.181 77.7225 57.181C78.6355 57.181 79.3615 57.632 79.7905 58.38V55.311ZM77.8765 62.395C78.9985 62.395 79.7905 61.46 79.7905 60.151C79.7905 58.842 78.9985 57.918 77.8765 57.918C76.7655 57.918 75.9735 58.842 75.9735 60.151C75.9735 61.46 76.7655 62.395 77.8765 62.395Z" fill="#67CA16"/>
<path d="M1.235 12V3.069H2.847V12H1.235ZM8.05689 12.156C6.10689 12.156 4.45589 10.544 4.45589 8.633C4.45589 6.722 6.10689 5.123 8.06989 5.123C9.09689 5.123 9.98089 5.552 10.6179 6.215L9.55189 7.151C9.18789 6.748 8.62889 6.475 8.05689 6.475C6.95189 6.475 6.02889 7.463 6.02889 8.633C6.02889 9.816 6.95189 10.804 8.05689 10.804C8.64189 10.804 9.21389 10.531 9.59089 10.102L10.6569 11.025C10.0069 11.714 9.10989 12.156 8.05689 12.156ZM14.8102 10.882C15.4862 10.882 16.2532 10.596 16.6822 10.18L17.5922 11.116C17.0072 11.74 15.8372 12.156 14.8622 12.156C12.9252 12.156 11.3262 10.687 11.3262 8.62C11.3262 6.592 12.8472 5.123 14.7712 5.123C16.8512 5.123 18.0732 6.657 18.0732 9.101H12.8602C13.0292 10.154 13.7702 10.882 14.8102 10.882ZM14.7842 6.397C13.8222 6.397 13.0812 7.047 12.8732 8.048H16.5392C16.3962 7.099 15.7982 6.397 14.7842 6.397ZM25.9239 12.156C23.9739 12.156 22.3229 10.544 22.3229 8.633C22.3229 6.722 23.9739 5.123 25.9369 5.123C26.9639 5.123 27.8479 5.552 28.4849 6.215L27.4189 7.151C27.0549 6.748 26.4959 6.475 25.9239 6.475C24.8189 6.475 23.8959 7.463 23.8959 8.633C23.8959 9.816 24.8189 10.804 25.9239 10.804C26.5089 10.804 27.0809 10.531 27.4579 10.102L28.5239 11.025C27.8739 11.714 26.9769 12.156 25.9239 12.156ZM31.2732 6.553C31.7022 5.682 32.5862 5.123 33.6782 5.123V6.475C32.2352 6.475 31.2732 7.333 31.2732 8.607V12H29.6872V5.279H31.2732V6.553ZM38.0108 10.882C38.6868 10.882 39.4538 10.596 39.8828 10.18L40.7928 11.116C40.2078 11.74 39.0378 12.156 38.0628 12.156C36.1258 12.156 34.5268 10.687 34.5268 8.62C34.5268 6.592 36.0478 5.123 37.9718 5.123C40.0518 5.123 41.2738 6.657 41.2738 9.101H36.0608C36.2298 10.154 36.9708 10.882 38.0108 10.882ZM37.9848 6.397C37.0228 6.397 36.2818 7.047 36.0738 8.048H39.7398C39.5968 7.099 38.9988 6.397 37.9848 6.397ZM45.2798 5.123C47.0608 5.123 48.1528 6.254 48.1528 7.957V12H46.6058V11.207C46.1118 11.818 45.2798 12.156 44.4998 12.156C43.0698 12.156 42.0038 11.311 42.0038 10.011C42.0038 8.685 43.2128 7.775 44.7338 7.775C45.3448 7.775 45.9948 7.905 46.6058 8.126V7.957C46.6058 7.177 46.1898 6.423 44.9678 6.423C44.3308 6.423 43.7198 6.644 43.1478 6.93L42.6018 5.825C43.5508 5.357 44.4348 5.123 45.2798 5.123ZM44.8508 10.999C45.6178 10.999 46.4368 10.609 46.6058 9.894V9.127C46.1118 8.971 45.5528 8.88 44.9678 8.88C44.1748 8.88 43.5248 9.322 43.5248 9.959C43.5248 10.596 44.0968 10.999 44.8508 10.999ZM57.6641 5.123C59.0682 5.123 60.1211 6.202 60.1211 7.723V12H58.5741V7.983C58.5741 7.099 58.0411 6.475 57.2741 6.475C56.4031 6.475 55.7921 7.06 55.7921 7.879V12H54.2581V7.983C54.2581 7.099 53.7121 6.475 52.9451 6.475C52.0871 6.475 51.4761 7.06 51.4761 7.879V12H49.8901V5.279H51.4761V6.189C51.8141 5.539 52.5031 5.123 53.3481 5.123C54.4141 5.123 55.2721 5.747 55.6231 6.722C55.8051 5.76 56.6111 5.123 57.6641 5.123ZM67.1387 4.72V5.279H68.6597V6.592H67.1387V12H65.5917V6.592H64.6167V5.279H65.5917V4.577C65.5917 3.446 66.3717 2.64 67.4897 2.64C67.9967 2.64 68.5427 2.848 68.9197 3.173L68.4647 4.187C68.3217 4.044 68.0747 3.94 67.8017 3.94C67.4247 3.94 67.1387 4.265 67.1387 4.72ZM69.7503 12V2.913H71.3363V12H69.7503ZM75.9087 5.123C77.6897 5.123 78.7817 6.254 78.7817 7.957V12H77.2347V11.207C76.7407 11.818 75.9087 12.156 75.1287 12.156C73.6987 12.156 72.6327 11.311 72.6327 10.011C72.6327 8.685 73.8417 7.775 75.3627 7.775C75.9737 7.775 76.6237 7.905 77.2347 8.126V7.957C77.2347 7.177 76.8187 6.423 75.5967 6.423C74.9597 6.423 74.3487 6.644 73.7767 6.93L73.2307 5.825C74.1797 5.357 75.0637 5.123 75.9087 5.123ZM75.4797 10.999C76.2467 10.999 77.0657 10.609 77.2347 9.894V9.127C76.7407 8.971 76.1817 8.88 75.5967 8.88C74.8037 8.88 74.1537 9.322 74.1537 9.959C74.1537 10.596 74.7257 10.999 75.4797 10.999ZM82.5731 12L79.6741 5.279H81.3641L83.3141 10.167L85.2251 5.279H86.9021L84.0551 12H82.5731ZM91.0414 12.156C89.0524 12.156 87.4274 10.57 87.4274 8.633C87.4274 6.696 89.0524 5.123 91.0414 5.123C93.0174 5.123 94.6294 6.696 94.6294 8.633C94.6294 10.57 93.0174 12.156 91.0414 12.156ZM91.0414 10.804C92.1594 10.804 93.0824 9.829 93.0824 8.633C93.0824 7.437 92.1594 6.475 91.0414 6.475C89.9104 6.475 88.9874 7.437 88.9874 8.633C88.9874 9.829 89.9104 10.804 91.0414 10.804ZM100.444 5.279H102.03V12H100.444V11.09C100.041 11.727 99.2608 12.156 98.3638 12.156C96.8818 12.156 95.8548 11.09 95.8548 9.556V5.279H97.4018V9.244C97.4018 10.167 97.9738 10.804 98.8058 10.804C99.7158 10.804 100.444 10.167 100.444 9.348V5.279ZM105.495 6.553C105.924 5.682 106.808 5.123 107.9 5.123V6.475C106.457 6.475 105.495 7.333 105.495 8.607V12H103.909V5.279H105.495V6.553Z" fill="#E3EAED"/>
</svg>
