<svg width="224" height="64" viewBox="0 0 224 64" fill="none" xmlns="http://www.w3.org/2000/svg">
<path d="M189.12 33.9915L184 39.2893L178.88 33.9915C178.59 33.6908 178.599 33.2123 178.9 32.9226C179.201 32.633 179.679 32.6419 179.969 32.9426L184 37.1159L188.036 32.9426C188.325 32.6419 188.804 32.633 189.104 32.9226C189.405 33.2123 189.414 33.6908 189.124 33.9915H189.12Z" fill="#CBD4D8"/>
<path d="M200 47H0V49H200V47Z" fill="#FF674C" mask="url(#path-1-inside-1_9328_50359)"/>
<path fill-rule="evenodd" clip-rule="evenodd" d="M204 36C204 31.5817 207.582 28 212 28C214.122 28 216.157 28.8429 217.657 30.3431C219.157 31.8434 220 33.8783 220 36C220 40.4183 216.418 44 212 44C207.582 44 204 40.4183 204 36ZM211.133 36.5133C211.133 36.992 211.521 37.38 212 37.38C212.479 37.38 212.867 36.992 212.867 36.5133V32.5133C212.867 32.0347 212.479 31.6467 212 31.6467C211.521 31.6467 211.133 32.0347 211.133 32.5133V36.5133ZM212 42.6667C208.318 42.6667 205.333 39.6819 205.333 36C205.333 32.3181 208.318 29.3333 212 29.3333C215.682 29.3333 218.667 32.3181 218.667 36C218.667 37.7681 217.964 39.4638 216.714 40.714C215.464 41.9643 213.768 42.6667 212 42.6667ZM212.967 39.3467C212.967 39.899 212.519 40.3467 211.967 40.3467C211.414 40.3467 210.967 39.899 210.967 39.3467C210.967 38.7944 211.414 38.3467 211.967 38.3467C212.519 38.3467 212.967 38.7944 212.967 39.3467Z" fill="#FF674C"/>
<path d="M2.816 63V56.257H0.275V55.443H6.215V56.257H3.674V63H2.816ZM10.3403 57.181C11.6053 57.181 12.4743 58.072 12.4743 59.381V63H11.6493V59.491C11.6493 58.556 11.0663 57.918 10.2303 57.918C9.26228 57.918 8.47028 58.578 8.47028 59.381V63H7.64528V55.311H8.47028V58.215C8.80028 57.61 9.52628 57.181 10.3403 57.181ZM16.8497 62.395C17.5207 62.395 18.2907 62.098 18.6427 61.713L19.1487 62.252C18.6537 62.791 17.6527 63.132 16.8607 63.132C15.3427 63.132 13.9787 61.889 13.9787 60.14C13.9787 58.446 15.2547 57.181 16.7837 57.181C18.4997 57.181 19.4787 58.479 19.4787 60.47H14.8257C14.9467 61.581 15.7277 62.395 16.8497 62.395ZM16.8167 57.918C15.8047 57.918 14.9907 58.633 14.8367 59.733H18.6647C18.5547 58.71 17.9497 57.918 16.8167 57.918ZM21.8898 58.424C22.2308 57.665 23.0448 57.181 24.0898 57.181V57.918C22.8028 57.918 21.8898 58.71 21.8898 59.821V63H21.0648V57.313H21.8898V58.424ZM28.0241 62.395C28.6951 62.395 29.4651 62.098 29.8171 61.713L30.3231 62.252C29.8281 62.791 28.8271 63.132 28.0351 63.132C26.5171 63.132 25.1531 61.889 25.1531 60.14C25.1531 58.446 26.4291 57.181 27.9581 57.181C29.6741 57.181 30.6531 58.479 30.6531 60.47H26.0001C26.1211 61.581 26.9021 62.395 28.0241 62.395ZM27.9911 57.918C26.9791 57.918 26.1651 58.633 26.0111 59.733H29.8391C29.7291 58.71 29.1241 57.918 27.9911 57.918ZM36.5905 63L34.6875 57.313H35.5675L36.9865 61.9L38.5375 57.313H39.2525L40.8035 61.9L42.2225 57.313H43.1025L41.1885 63H40.4075L38.9005 58.457L37.3715 63H36.5905ZM46.4692 57.181C48.0202 57.181 48.7792 58.16 48.7792 59.535V63H47.9542V62.109C47.5472 62.78 46.7002 63.132 45.9522 63.132C44.7532 63.132 43.8731 62.439 43.8731 61.317C43.8731 60.184 44.8852 59.425 46.1062 59.425C46.7222 59.425 47.3711 59.557 47.9542 59.744V59.535C47.9542 58.765 47.6462 57.885 46.4142 57.885C45.8422 57.885 45.2701 58.138 44.7532 58.402L44.4231 57.731C45.2372 57.324 45.9192 57.181 46.4692 57.181ZM46.0952 62.406C46.8432 62.406 47.7342 62.021 47.9542 61.218V60.349C47.4372 60.206 46.8542 60.118 46.2382 60.118C45.3912 60.118 44.6762 60.602 44.6762 61.284C44.6762 61.988 45.2922 62.406 46.0952 62.406ZM52.5172 63.132C51.7252 63.132 50.8452 62.835 50.1632 62.285L50.5922 61.68C51.2412 62.153 51.8902 62.395 52.5172 62.395C53.2652 62.395 53.7712 62.043 53.7712 61.504C53.7712 60.888 53.1112 60.69 52.3412 60.47C50.9662 60.074 50.4382 59.667 50.4382 58.853C50.4382 57.819 51.2962 57.181 52.4292 57.181C53.1332 57.181 53.8592 57.423 54.4642 57.819L54.0682 58.457C53.4962 58.094 52.9352 57.918 52.4292 57.918C51.7912 57.918 51.2632 58.204 51.2632 58.754C51.2632 59.249 51.6812 59.403 52.7372 59.744C53.6502 60.03 54.5962 60.338 54.5962 61.416C54.5962 62.461 53.6942 63.132 52.5172 63.132ZM61.4744 57.181C63.0254 57.181 63.7844 58.16 63.7844 59.535V63H62.9594V62.109C62.5524 62.78 61.7054 63.132 60.9574 63.132C59.7584 63.132 58.8784 62.439 58.8784 61.317C58.8784 60.184 59.8904 59.425 61.1114 59.425C61.7274 59.425 62.3764 59.557 62.9594 59.744V59.535C62.9594 58.765 62.6514 57.885 61.4194 57.885C60.8474 57.885 60.2754 58.138 59.7584 58.402L59.4284 57.731C60.2424 57.324 60.9244 57.181 61.4744 57.181ZM61.1004 62.406C61.8484 62.406 62.7394 62.021 62.9594 61.218V60.349C62.4424 60.206 61.8594 60.118 61.2434 60.118C60.3964 60.118 59.6814 60.602 59.6814 61.284C59.6814 61.988 60.2974 62.406 61.1004 62.406ZM68.4575 57.181C69.7225 57.181 70.5915 58.072 70.5915 59.381V63H69.7665V59.491C69.7665 58.556 69.1835 57.918 68.3475 57.918C67.3795 57.918 66.5875 58.578 66.5875 59.381V63H65.7625V57.313H66.5875V58.215C66.9175 57.61 67.6435 57.181 68.4575 57.181ZM78.1962 62.395C78.8672 62.395 79.6372 62.098 79.9892 61.713L80.4952 62.252C80.0002 62.791 78.9992 63.132 78.2072 63.132C76.6892 63.132 75.3252 61.889 75.3252 60.14C75.3252 58.446 76.6012 57.181 78.1302 57.181C79.8462 57.181 80.8252 58.479 80.8252 60.47H76.1722C76.2932 61.581 77.0742 62.395 78.1962 62.395ZM78.1632 57.918C77.1512 57.918 76.3372 58.633 76.1832 59.733H80.0112C79.9012 58.71 79.2962 57.918 78.1632 57.918ZM83.2363 58.424C83.5773 57.665 84.3913 57.181 85.4363 57.181V57.918C84.1493 57.918 83.2363 58.71 83.2363 59.821V63H82.4113V57.313H83.2363V58.424ZM87.7976 58.424C88.1386 57.665 88.9526 57.181 89.9976 57.181V57.918C88.7106 57.918 87.7976 58.71 87.7976 59.821V63H86.9726V57.313H87.7976V58.424ZM93.976 63.132C92.359 63.132 91.039 61.79 91.039 60.151C91.039 58.512 92.359 57.181 93.976 57.181C95.582 57.181 96.902 58.512 96.902 60.151C96.902 61.79 95.582 63.132 93.976 63.132ZM93.976 62.395C95.109 62.395 96.044 61.383 96.044 60.151C96.044 58.919 95.109 57.918 93.976 57.918C92.832 57.918 91.897 58.919 91.897 60.151C91.897 61.383 92.832 62.395 93.976 62.395ZM99.348 58.424C99.689 57.665 100.503 57.181 101.548 57.181V57.918C100.261 57.918 99.348 58.71 99.348 59.821V63H98.523V57.313H99.348V58.424Z" fill="#FF674C"/>
<path d="M1.235 12V3.069H2.847V12H1.235ZM8.05689 12.156C6.10689 12.156 4.45589 10.544 4.45589 8.633C4.45589 6.722 6.10689 5.123 8.06989 5.123C9.09689 5.123 9.98089 5.552 10.6179 6.215L9.55189 7.151C9.18789 6.748 8.62889 6.475 8.05689 6.475C6.95189 6.475 6.02889 7.463 6.02889 8.633C6.02889 9.816 6.95189 10.804 8.05689 10.804C8.64189 10.804 9.21389 10.531 9.59089 10.102L10.6569 11.025C10.0069 11.714 9.10989 12.156 8.05689 12.156ZM14.8102 10.882C15.4862 10.882 16.2532 10.596 16.6822 10.18L17.5922 11.116C17.0072 11.74 15.8372 12.156 14.8622 12.156C12.9252 12.156 11.3262 10.687 11.3262 8.62C11.3262 6.592 12.8472 5.123 14.7712 5.123C16.8512 5.123 18.0732 6.657 18.0732 9.101H12.8602C13.0292 10.154 13.7702 10.882 14.8102 10.882ZM14.7842 6.397C13.8222 6.397 13.0812 7.047 12.8732 8.048H16.5392C16.3962 7.099 15.7982 6.397 14.7842 6.397ZM25.9239 12.156C23.9739 12.156 22.3229 10.544 22.3229 8.633C22.3229 6.722 23.9739 5.123 25.9369 5.123C26.9639 5.123 27.8479 5.552 28.4849 6.215L27.4189 7.151C27.0549 6.748 26.4959 6.475 25.9239 6.475C24.8189 6.475 23.8959 7.463 23.8959 8.633C23.8959 9.816 24.8189 10.804 25.9239 10.804C26.5089 10.804 27.0809 10.531 27.4579 10.102L28.5239 11.025C27.8739 11.714 26.9769 12.156 25.9239 12.156ZM31.2732 6.553C31.7022 5.682 32.5862 5.123 33.6782 5.123V6.475C32.2352 6.475 31.2732 7.333 31.2732 8.607V12H29.6872V5.279H31.2732V6.553ZM38.0108 10.882C38.6868 10.882 39.4538 10.596 39.8828 10.18L40.7928 11.116C40.2078 11.74 39.0378 12.156 38.0628 12.156C36.1258 12.156 34.5268 10.687 34.5268 8.62C34.5268 6.592 36.0478 5.123 37.9718 5.123C40.0518 5.123 41.2738 6.657 41.2738 9.101H36.0608C36.2298 10.154 36.9708 10.882 38.0108 10.882ZM37.9848 6.397C37.0228 6.397 36.2818 7.047 36.0738 8.048H39.7398C39.5968 7.099 38.9988 6.397 37.9848 6.397ZM45.2798 5.123C47.0608 5.123 48.1528 6.254 48.1528 7.957V12H46.6058V11.207C46.1118 11.818 45.2798 12.156 44.4998 12.156C43.0698 12.156 42.0038 11.311 42.0038 10.011C42.0038 8.685 43.2128 7.775 44.7338 7.775C45.3448 7.775 45.9948 7.905 46.6058 8.126V7.957C46.6058 7.177 46.1898 6.423 44.9678 6.423C44.3308 6.423 43.7198 6.644 43.1478 6.93L42.6018 5.825C43.5508 5.357 44.4348 5.123 45.2798 5.123ZM44.8508 10.999C45.6178 10.999 46.4368 10.609 46.6058 9.894V9.127C46.1118 8.971 45.5528 8.88 44.9678 8.88C44.1748 8.88 43.5248 9.322 43.5248 9.959C43.5248 10.596 44.0968 10.999 44.8508 10.999ZM57.6641 5.123C59.0682 5.123 60.1211 6.202 60.1211 7.723V12H58.5741V7.983C58.5741 7.099 58.0411 6.475 57.2741 6.475C56.4031 6.475 55.7921 7.06 55.7921 7.879V12H54.2581V7.983C54.2581 7.099 53.7121 6.475 52.9451 6.475C52.0871 6.475 51.4761 7.06 51.4761 7.879V12H49.8901V5.279H51.4761V6.189C51.8141 5.539 52.5031 5.123 53.3481 5.123C54.4141 5.123 55.2721 5.747 55.6231 6.722C55.8051 5.76 56.6111 5.123 57.6641 5.123ZM67.1387 4.72V5.279H68.6597V6.592H67.1387V12H65.5917V6.592H64.6167V5.279H65.5917V4.577C65.5917 3.446 66.3717 2.64 67.4897 2.64C67.9967 2.64 68.5427 2.848 68.9197 3.173L68.4647 4.187C68.3217 4.044 68.0747 3.94 67.8017 3.94C67.4247 3.94 67.1387 4.265 67.1387 4.72ZM69.7503 12V2.913H71.3363V12H69.7503ZM75.9087 5.123C77.6897 5.123 78.7817 6.254 78.7817 7.957V12H77.2347V11.207C76.7407 11.818 75.9087 12.156 75.1287 12.156C73.6987 12.156 72.6327 11.311 72.6327 10.011C72.6327 8.685 73.8417 7.775 75.3627 7.775C75.9737 7.775 76.6237 7.905 77.2347 8.126V7.957C77.2347 7.177 76.8187 6.423 75.5967 6.423C74.9597 6.423 74.3487 6.644 73.7767 6.93L73.2307 5.825C74.1797 5.357 75.0637 5.123 75.9087 5.123ZM75.4797 10.999C76.2467 10.999 77.0657 10.609 77.2347 9.894V9.127C76.7407 8.971 76.1817 8.88 75.5967 8.88C74.8037 8.88 74.1537 9.322 74.1537 9.959C74.1537 10.596 74.7257 10.999 75.4797 10.999ZM82.5731 12L79.6741 5.279H81.3641L83.3141 10.167L85.2251 5.279H86.9021L84.0551 12H82.5731ZM91.0414 12.156C89.0524 12.156 87.4274 10.57 87.4274 8.633C87.4274 6.696 89.0524 5.123 91.0414 5.123C93.0174 5.123 94.6294 6.696 94.6294 8.633C94.6294 10.57 93.0174 12.156 91.0414 12.156ZM91.0414 10.804C92.1594 10.804 93.0824 9.829 93.0824 8.633C93.0824 7.437 92.1594 6.475 91.0414 6.475C89.9104 6.475 88.9874 7.437 88.9874 8.633C88.9874 9.829 89.9104 10.804 91.0414 10.804ZM100.444 5.279H102.03V12H100.444V11.09C100.041 11.727 99.2608 12.156 98.3638 12.156C96.8818 12.156 95.8548 11.09 95.8548 9.556V5.279H97.4018V9.244C97.4018 10.167 97.9738 10.804 98.8058 10.804C99.7158 10.804 100.444 10.167 100.444 9.348V5.279ZM105.495 6.553C105.924 5.682 106.808 5.123 107.9 5.123V6.475C106.457 6.475 105.495 7.333 105.495 8.607V12H103.909V5.279H105.495V6.553Z" fill="#E3EAED"/>
</svg>
