<svg width="144" height="88" viewBox="0 0 144 88" fill="none" xmlns="http://www.w3.org/2000/svg">
<path d="M0 12C0 7.58172 3.58172 4 8 4H24C28.4183 4 32 7.58172 32 12V12C32 16.4183 28.4183 20 24 20H8C3.58172 20 0 16.4183 0 12V12Z" fill="#67CA16"/>
<path fill-rule="evenodd" clip-rule="evenodd" d="M24 18C27.3137 18 30 15.3137 30 12C30 8.68629 27.3137 6 24 6C20.6863 6 18 8.68629 18 12C18 15.3137 20.6863 18 24 18Z" fill="#1B2B32"/>
<path d="M43.445 16L40.39 7.069H41.534L44.004 14.297L46.37 7.069H47.501L49.867 14.297L52.337 7.069H53.481L50.426 16H49.425L46.942 8.395L44.446 16H43.445ZM55.401 8.057C55.037 8.057 54.751 7.758 54.751 7.407C54.751 7.069 55.037 6.77 55.401 6.77C55.752 6.77 56.038 7.069 56.038 7.407C56.038 7.758 55.752 8.057 55.401 8.057ZM54.907 16V9.279H55.882V16H54.907ZM59.2533 8.356V9.279H60.9043V10.15H59.2533V16H58.2783V10.15H57.2253V9.279H58.2783V8.356C58.2783 7.355 58.9543 6.64 59.9163 6.64C60.3713 6.64 60.8133 6.796 61.1643 7.069L60.6833 7.784C60.5403 7.628 60.2803 7.511 59.9813 7.511C59.5913 7.511 59.2533 7.862 59.2533 8.356ZM62.5643 8.057C62.2003 8.057 61.9143 7.758 61.9143 7.407C61.9143 7.069 62.2003 6.77 62.5643 6.77C62.9153 6.77 63.2013 7.069 63.2013 7.407C63.2013 7.758 62.9153 8.057 62.5643 8.057ZM62.0703 16V9.279H63.0453V16H62.0703Z" fill="#E3EAED"/>
<path d="M0 44C0 39.5817 3.58172 36 8 36H24C28.4183 36 32 39.5817 32 44V44C32 48.4183 28.4183 52 24 52H8C3.58172 52 0 48.4183 0 44V44Z" fill="#ACB8BE"/>
<path fill-rule="evenodd" clip-rule="evenodd" d="M8 50C11.3137 50 14 47.3137 14 44C14 40.6863 11.3137 38 8 38C4.68629 38 2 40.6863 2 44C2 47.3137 4.68629 50 8 50Z" fill="#1B2B32"/>
<path d="M41.417 48V39.069H45.512C46.955 39.069 47.969 39.992 47.969 41.292C47.969 42.241 47.501 42.787 46.695 43.255C47.722 43.775 48.32 44.581 48.32 45.556C48.32 46.986 47.215 48 45.668 48H41.417ZM42.431 42.852H45.252C46.24 42.852 46.942 42.254 46.942 41.422C46.942 40.59 46.24 39.992 45.252 39.992H42.431V42.852ZM42.431 47.077H45.408C46.513 47.077 47.293 46.388 47.293 45.426C47.293 44.464 46.513 43.775 45.408 43.775H42.431V47.077ZM50.1716 48V38.913H51.1466V48H50.1716ZM57.8849 41.279H58.8599V48H57.8849V46.934C57.4949 47.649 56.6369 48.156 55.6749 48.156C54.1799 48.156 53.1529 47.103 53.1529 45.556V41.279H54.1279V45.426C54.1279 46.531 54.8169 47.285 55.8049 47.285C56.9489 47.285 57.8849 46.505 57.8849 45.556V41.279ZM63.8505 47.285C64.6435 47.285 65.5535 46.934 65.9695 46.479L66.5675 47.116C65.9825 47.753 64.7995 48.156 63.8635 48.156C62.0695 48.156 60.4575 46.687 60.4575 44.62C60.4575 42.618 61.9655 41.123 63.7725 41.123C65.8005 41.123 66.9575 42.657 66.9575 45.01H61.4585C61.6015 46.323 62.5245 47.285 63.8505 47.285ZM63.8115 41.994C62.6155 41.994 61.6535 42.839 61.4715 44.139H65.9955C65.8655 42.93 65.1505 41.994 63.8115 41.994ZM71.0956 47.012L71.5766 47.727C71.2256 48 70.7836 48.156 70.3286 48.156C69.3666 48.156 68.6906 47.441 68.6906 46.44V42.15H67.6376V41.279H68.6906V39.433H69.6656V41.279H71.3166V42.15H69.6656V46.44C69.6656 46.934 70.0036 47.285 70.3936 47.285C70.6926 47.285 70.9526 47.168 71.0956 47.012ZM75.7631 48.156C73.8521 48.156 72.2921 46.57 72.2921 44.633C72.2921 42.696 73.8521 41.123 75.7631 41.123C77.6611 41.123 79.2211 42.696 79.2211 44.633C79.2211 46.57 77.6611 48.156 75.7631 48.156ZM75.7631 47.285C77.1021 47.285 78.2071 46.089 78.2071 44.633C78.2071 43.177 77.1021 41.994 75.7631 41.994C74.4111 41.994 73.3061 43.177 73.3061 44.633C73.3061 46.089 74.4111 47.285 75.7631 47.285ZM83.6865 48.156C81.7755 48.156 80.2155 46.57 80.2155 44.633C80.2155 42.696 81.7755 41.123 83.6865 41.123C85.5845 41.123 87.1445 42.696 87.1445 44.633C87.1445 46.57 85.5845 48.156 83.6865 48.156ZM83.6865 47.285C85.0255 47.285 86.1305 46.089 86.1305 44.633C86.1305 43.177 85.0255 41.994 83.6865 41.994C82.3345 41.994 81.2295 43.177 81.2295 44.633C81.2295 46.089 82.3345 47.285 83.6865 47.285ZM91.324 47.012L91.805 47.727C91.454 48 91.012 48.156 90.557 48.156C89.595 48.156 88.919 47.441 88.919 46.44V42.15H87.866V41.279H88.919V39.433H89.894V41.279H91.545V42.15H89.894V46.44C89.894 46.934 90.232 47.285 90.622 47.285C90.921 47.285 91.181 47.168 91.324 47.012ZM96.2904 41.123C97.7854 41.123 98.8124 42.176 98.8124 43.723V48H97.8374V43.853C97.8374 42.748 97.1484 41.994 96.1604 41.994C95.0164 41.994 94.0804 42.774 94.0804 43.723V48H93.1054V38.913H94.0804V42.345C94.4704 41.63 95.3284 41.123 96.2904 41.123Z" fill="#E3EAED"/>
<path fill-rule="evenodd" clip-rule="evenodd" d="M11.9999 65.3333C6.10888 65.3333 1.33325 70.109 1.33325 76C1.33325 81.891 6.10888 86.6667 11.9999 86.6667C17.891 86.6667 22.6666 81.891 22.6666 76C22.6666 73.171 21.5428 70.4579 19.5424 68.4575C17.542 66.4571 14.8289 65.3333 11.9999 65.3333ZM11.9999 85.3333C6.84526 85.3333 2.66659 81.1547 2.66659 76C2.66659 70.8453 6.84526 66.6667 11.9999 66.6667C17.1546 66.6667 21.3333 70.8453 21.3333 76C21.3333 78.4754 20.3499 80.8493 18.5996 82.5997C16.8492 84.35 14.4753 85.3333 11.9999 85.3333ZM17.7266 72.0667C17.9866 71.8082 18.4066 71.8082 18.6666 72.0667C18.7928 72.1918 18.8638 72.3622 18.8638 72.54C18.8638 72.7178 18.7928 72.8882 18.6666 73.0133L10.3266 81.3333L5.33325 76.3533C5.0792 76.079 5.09562 75.6507 5.36992 75.3967C5.64422 75.1426 6.07253 75.159 6.32659 75.4333L10.3266 79.4333L17.7266 72.0667Z" fill="#67CA16"/>
<path d="M36.438 80.154C34.856 80.154 33.61 79.58 32.644 78.628L33.33 77.774C34.142 78.586 35.136 79.16 36.48 79.16C37.964 79.16 38.72 78.348 38.72 77.48C38.72 76.458 37.81 76.052 36.13 75.66C34.198 75.212 32.98 74.61 32.98 72.944C32.98 71.404 34.352 70.214 36.2 70.214C37.628 70.214 38.692 70.774 39.574 71.586L38.902 72.44C38.104 71.67 37.152 71.208 36.144 71.208C34.954 71.208 34.086 71.978 34.086 72.86C34.086 73.854 35.038 74.204 36.676 74.596C38.51 75.03 39.826 75.688 39.826 77.382C39.826 78.908 38.678 80.154 36.438 80.154ZM44.7423 79.23C45.5963 79.23 46.5763 78.852 47.0243 78.362L47.6683 79.048C47.0383 79.734 45.7643 80.168 44.7563 80.168C42.8243 80.168 41.0883 78.586 41.0883 76.36C41.0883 74.204 42.7123 72.594 44.6583 72.594C46.8423 72.594 48.0883 74.246 48.0883 76.78H42.1663C42.3203 78.194 43.3143 79.23 44.7423 79.23ZM44.7003 73.532C43.4123 73.532 42.3763 74.442 42.1803 75.842H47.0523C46.9123 74.54 46.1423 73.532 44.7003 73.532ZM52.5524 78.936L53.0704 79.706C52.6924 80 52.2164 80.168 51.7264 80.168C50.6904 80.168 49.9624 79.398 49.9624 78.32V73.7H48.8284V72.762H49.9624V70.774H51.0124V72.762H52.7904V73.7H51.0124V78.32C51.0124 78.852 51.3764 79.23 51.7964 79.23C52.1184 79.23 52.3984 79.104 52.5524 78.936ZM57.2785 78.936L57.7965 79.706C57.4185 80 56.9425 80.168 56.4525 80.168C55.4165 80.168 54.6885 79.398 54.6885 78.32V73.7H53.5545V72.762H54.6885V70.774H55.7385V72.762H57.5165V73.7H55.7385V78.32C55.7385 78.852 56.1025 79.23 56.5225 79.23C56.8445 79.23 57.1245 79.104 57.2785 78.936ZM59.7367 71.446C59.3447 71.446 59.0367 71.124 59.0367 70.746C59.0367 70.382 59.3447 70.06 59.7367 70.06C60.1147 70.06 60.4227 70.382 60.4227 70.746C60.4227 71.124 60.1147 71.446 59.7367 71.446ZM59.2047 80V72.762H60.2547V80H59.2047ZM66.021 72.594C67.631 72.594 68.737 73.728 68.737 75.394V80H67.687V75.534C67.687 74.344 66.945 73.532 65.881 73.532C64.649 73.532 63.641 74.372 63.641 75.394V80H62.591V72.762H63.641V73.91C64.061 73.14 64.985 72.594 66.021 72.594ZM76.2333 72.762H77.2833V79.23C77.2833 81.092 75.8133 82.408 73.7273 82.408C72.5513 82.408 71.4593 82.002 70.8013 81.442L71.2633 80.616C71.8233 81.148 72.6913 81.47 73.5873 81.47C75.2533 81.47 76.2333 80.644 76.2333 79.23V78.054C75.6733 78.936 74.7493 79.468 73.6013 79.468C71.6553 79.468 70.2693 78.04 70.2693 76.024C70.2693 74.008 71.6553 72.594 73.6013 72.594C74.7493 72.594 75.6733 73.126 76.2333 74.008V72.762ZM73.7973 78.53C75.2253 78.53 76.2333 77.494 76.2333 76.024C76.2333 74.568 75.2253 73.532 73.7973 73.532C72.3833 73.532 71.3753 74.568 71.3753 76.024C71.3753 77.494 72.3833 78.53 73.7973 78.53ZM81.8576 80.168C80.8496 80.168 79.7296 79.79 78.8616 79.09L79.4076 78.32C80.2336 78.922 81.0596 79.23 81.8576 79.23C82.8096 79.23 83.4536 78.782 83.4536 78.096C83.4536 77.312 82.6136 77.06 81.6336 76.78C79.8836 76.276 79.2116 75.758 79.2116 74.722C79.2116 73.406 80.3036 72.594 81.7456 72.594C82.6416 72.594 83.5656 72.902 84.3356 73.406L83.8316 74.218C83.1036 73.756 82.3896 73.532 81.7456 73.532C80.9336 73.532 80.2616 73.896 80.2616 74.596C80.2616 75.226 80.7936 75.422 82.1376 75.856C83.2996 76.22 84.5036 76.612 84.5036 77.984C84.5036 79.314 83.3556 80.168 81.8576 80.168ZM94.8866 72.762H95.9366V80H94.8866V78.852C94.4666 79.622 93.5426 80.168 92.5066 80.168C90.8966 80.168 89.7906 79.034 89.7906 77.368V72.762H90.8406V77.228C90.8406 78.418 91.5826 79.23 92.6466 79.23C93.8786 79.23 94.8866 78.39 94.8866 77.368V72.762ZM101.949 72.594C103.853 72.594 105.281 74.162 105.281 76.374C105.281 78.6 103.853 80.168 101.949 80.168C100.787 80.168 99.8628 79.594 99.3168 78.642V82.408H98.2668V72.762H99.3168V74.12C99.8628 73.168 100.787 72.594 101.949 72.594ZM101.753 79.23C103.167 79.23 104.175 78.04 104.175 76.374C104.175 74.708 103.167 73.532 101.753 73.532C100.325 73.532 99.3168 74.708 99.3168 76.374C99.3168 78.04 100.325 79.23 101.753 79.23ZM112.458 70.214H113.508V80H112.458V78.642C111.912 79.594 110.988 80.168 109.826 80.168C107.922 80.168 106.494 78.6 106.494 76.374C106.494 74.162 107.922 72.594 109.826 72.594C110.988 72.594 111.912 73.168 112.458 74.12V70.214ZM110.022 79.23C111.45 79.23 112.458 78.04 112.458 76.374C112.458 74.708 111.45 73.532 110.022 73.532C108.608 73.532 107.6 74.708 107.6 76.374C107.6 78.04 108.608 79.23 110.022 79.23ZM118.43 72.594C120.404 72.594 121.37 73.84 121.37 75.59V80H120.32V78.866C119.802 79.72 118.724 80.168 117.772 80.168C116.246 80.168 115.126 79.286 115.126 77.858C115.126 76.416 116.414 75.45 117.968 75.45C118.752 75.45 119.578 75.618 120.32 75.856V75.59C120.32 74.61 119.928 73.49 118.36 73.49C117.632 73.49 116.904 73.812 116.246 74.148L115.826 73.294C116.862 72.776 117.73 72.594 118.43 72.594ZM117.954 79.244C118.906 79.244 120.04 78.754 120.32 77.732V76.626C119.662 76.444 118.92 76.332 118.136 76.332C117.058 76.332 116.148 76.948 116.148 77.816C116.148 78.712 116.932 79.244 117.954 79.244ZM126.333 78.936L126.851 79.706C126.473 80 125.997 80.168 125.507 80.168C124.471 80.168 123.743 79.398 123.743 78.32V73.7H122.609V72.762H123.743V70.774H124.793V72.762H126.571V73.7H124.793V78.32C124.793 78.852 125.157 79.23 125.577 79.23C125.899 79.23 126.179 79.104 126.333 78.936ZM131.311 79.23C132.165 79.23 133.145 78.852 133.593 78.362L134.237 79.048C133.607 79.734 132.333 80.168 131.325 80.168C129.393 80.168 127.657 78.586 127.657 76.36C127.657 74.204 129.281 72.594 131.227 72.594C133.411 72.594 134.657 74.246 134.657 76.78H128.735C128.889 78.194 129.883 79.23 131.311 79.23ZM131.269 73.532C129.981 73.532 128.945 74.442 128.749 75.842H133.621C133.481 74.54 132.711 73.532 131.269 73.532ZM141.726 70.214H142.776V80H141.726V78.642C141.18 79.594 140.256 80.168 139.094 80.168C137.19 80.168 135.762 78.6 135.762 76.374C135.762 74.162 137.19 72.594 139.094 72.594C140.256 72.594 141.18 73.168 141.726 74.12V70.214ZM139.29 79.23C140.718 79.23 141.726 78.04 141.726 76.374C141.726 74.708 140.718 73.532 139.29 73.532C137.876 73.532 136.868 74.708 136.868 76.374C136.868 78.04 137.876 79.23 139.29 79.23Z" fill="white"/>
</svg>
