<svg width="65" height="80" viewBox="0 0 65 80" fill="none" xmlns="http://www.w3.org/2000/svg">
<g clip-path="url(#clip0_200_4290)">
<path d="M0.283447 21.5002V58.5002L32.3334 77.0102L64.3835 58.5002V21.5002L32.3334 2.99023L0.283447 21.5002Z" fill="#C8CDD1"/>
<path d="M51.2435 26.1798C47.1635 20.0898 40.2135 16.0898 32.3335 16.0898C24.4635 16.0998 17.5235 20.0998 13.4335 26.1798M53.4235 30.2698C54.5035 32.9198 55.1035 35.8198 55.1035 38.8598C55.1035 51.4398 44.9135 61.6298 32.3335 61.6298C19.7535 61.6298 9.56348 51.4398 9.56348 38.8598C9.56348 35.6798 10.2235 32.6498 11.4035 29.8998" stroke="#25333D" stroke-width="2" stroke-linejoin="round"/>
<path d="M29.6936 61.6699L30.4236 53.2099C30.5236 52.1599 31.4136 51.3599 32.4636 51.3599C33.5236 51.3599 34.4236 52.1499 34.5436 53.2099L35.2436 61.5399" stroke="#25333D" stroke-width="2" stroke-linejoin="round"/>
<path d="M39.9934 60.2902L37.6834 33.8402C43.3934 33.3702 48.6534 32.1402 52.8634 30.2602C53.8634 29.7902 54.3134 28.6202 53.8734 27.6102C53.4334 26.5702 52.2234 26.0902 51.1934 26.5402C46.2534 28.7602 39.5934 29.9902 32.4634 29.9902C25.3334 29.9902 18.6834 28.7602 13.7334 26.5402C12.7034 26.0802 11.4934 26.5402 11.0334 27.5702C10.5734 28.6002 11.0334 29.8102 12.0634 30.2702C16.2734 32.1602 21.5434 33.3902 27.2534 33.8502L24.9334 60.4702" stroke="#25333D" stroke-width="2" stroke-linejoin="round"/>
<path d="M32.4035 26.8701C34.6458 26.8701 36.4635 25.0658 36.4635 22.8401C36.4635 20.6144 34.6458 18.8101 32.4035 18.8101C30.1612 18.8101 28.3435 20.6144 28.3435 22.8401C28.3435 25.0658 30.1612 26.8701 32.4035 26.8701Z" stroke="#25333D" stroke-width="2" stroke-linejoin="round"/>
</g>
<defs>
<clipPath id="clip0_200_4290">
<rect width="64" height="80" fill="white" transform="translate(0.333496)"/>
</clipPath>
</defs>
</svg>
