<svg width="1680" height="320" viewBox="0 0 1680 320" fill="none" xmlns="http://www.w3.org/2000/svg">
<g clip-path="url(#clip0_241_3178)">
<mask id="mask0_241_3178" style="mask-type:luminance" maskUnits="userSpaceOnUse" x="-4" y="0" width="1681" height="320">
<path d="M1676.08 0H-3.91992V320H1676.08V0Z" fill="white"/>
</mask>
<g mask="url(#mask0_241_3178)">
</g>
<g clip-path="url(#clip1_241_3178)">
<mask id="mask1_241_3178" style="mask-type:luminance" maskUnits="userSpaceOnUse" x="1" y="0" width="1681" height="320">
<path d="M1681.1 0H1.1001V320H1681.1V0Z" fill="white"/>
</mask>
<g mask="url(#mask1_241_3178)">
<path d="M1053.7 418V163.9L833.7 36.8999L613.7 163.9V418L833.7 545L1053.7 418Z" fill="white"/>
<path d="M724.3 148.9C724 148.9 723.6 148.8 723.3 148.6L689.5 129C689.2 128.8 689 128.6 688.8 128.3C688.6 127.9 688.5 127.6 688.5 127.3V88.1999C688.5 87.8999 688.6 87.4999 688.8 87.1999C689 86.8999 689.2 86.6999 689.5 86.4999L723.3 66.9999C723.9 66.6999 724.7 66.6999 725.3 66.9999L759.2 86.5999C759.5 86.7999 759.7 86.9999 759.9 87.2999C760.1 87.5999 760.2 87.9999 760.2 88.2999V127.4C760.2 127.8 760.1 128.1 759.9 128.4C759.7 128.7 759.5 128.9 759.2 129.1L725.3 148.7C725.1 148.8 724.8 148.9 724.5 149C724.5 148.8 724.4 148.9 724.3 148.9ZM724.3 68.6999L690.5 88.2999V127.4L724.3 146.9L758.2 127.4V88.2999L724.3 68.6999Z" fill="#25333D"/>
<path d="M704.9 99.9L723.7 110.8L742.5 99.9L723.7 89L704.9 99.9Z" fill="#FF8F3D"/>
<g opacity="0.5">
<path d="M704.9 109.8L723.7 120.7L742.5 109.8L723.7 98.8999L704.9 109.8Z" fill="#FF8F3D"/>
</g>
<g opacity="0.3">
<path d="M704.9 119.3L723.7 130.2L742.5 119.3L723.7 108.4L704.9 119.3Z" fill="#FF8F3D"/>
</g>
<path d="M928.5 193.8V193.9L1085.7 284.6L1242.9 193.9V193.8L1085.7 103L928.5 193.8Z" fill="#FFBC8B"/>
<path d="M554.8 259.2L552.6 258C552.1 257.7 552 257.1 552.3 256.7C552.6 256.2 553.2 256.1 553.6 256.3L554.8 257L556 256.3C556.5 256 557 256.2 557.3 256.7C557.6 257.2 557.4 257.7 557 258L554.8 259.2Z" fill="black"/>
<path d="M563.1 254.2C562.8 254.2 562.4 254 562.3 253.7C562 253.2 562.2 252.6 562.6 252.4L565.9 250.5C566.4 250.2 566.9 250.4 567.2 250.9C567.5 251.4 567.3 252 566.9 252.2L563.6 254.1C563.5 254.2 563.3 254.2 563.1 254.2ZM546.4 254.2C546.2 254.2 546.1 254.2 545.9 254.1L542.6 252.2C542.1 251.9 542 251.3 542.3 250.9C542.6 250.5 543.2 250.3 543.6 250.5L546.9 252.4C547.4 252.7 547.5 253.3 547.2 253.7C547.1 254 546.8 254.2 546.4 254.2ZM573.2 248.5C572.9 248.5 572.5 248.3 572.4 248C572.1 247.5 572.3 246.9 572.7 246.7L576 244.8C576.5 244.5 577 244.7 577.3 245.2C577.6 245.7 577.4 246.3 577 246.5L573.7 248.4C573.5 248.4 573.3 248.5 573.2 248.5ZM536.4 248.4C536.2 248.4 536.1 248.4 535.9 248.3L532.6 246.4C532.1 246.1 532 245.5 532.3 245.1C532.6 244.7 533.2 244.5 533.6 244.7L536.9 246.6C537.4 246.9 537.5 247.5 537.2 247.9C537.1 248.3 536.7 248.4 536.4 248.4ZM583.2 242.7C582.9 242.7 582.5 242.5 582.4 242.2C582.1 241.7 582.3 241.1 582.7 240.9L586 239C586.5 238.7 587 238.9 587.3 239.4C587.6 239.9 587.4 240.5 587 240.7L583.7 242.6C583.5 242.6 583.3 242.7 583.2 242.7ZM526.4 242.6C526.2 242.6 526.1 242.6 525.9 242.5L522.6 240.6C522.1 240.3 522 239.7 522.3 239.3C522.6 238.9 523.2 238.7 523.6 238.9L526.9 240.8C527.4 241.1 527.5 241.7 527.2 242.1C527.1 242.5 526.7 242.6 526.4 242.6ZM593.2 236.9C592.9 236.9 592.5 236.7 592.4 236.4C592.1 235.9 592.3 235.3 592.7 235.1L593.3 234.8C594.1 234.3 594.8 233.7 595.3 232.9C595.6 232.5 596.2 232.3 596.6 232.6C597 232.9 597.2 233.5 596.9 233.9C596.2 234.9 595.3 235.8 594.2 236.4L593.7 236.7C593.5 236.9 593.3 236.9 593.2 236.9ZM516.4 236.9C516.2 236.9 516.1 236.9 515.9 236.8L515.4 236.5C514.3 235.9 513.4 235 512.7 234C512.4 233.6 512.5 233 513 232.7C513.5 232.4 514 232.5 514.3 233C514.8 233.8 515.5 234.4 516.3 234.9L516.8 235.2C517.3 235.5 517.4 236.1 517.1 236.5C517 236.7 516.7 236.8 516.4 236.9ZM596.3 227.1C596 227.1 595.6 226.9 595.5 226.6C595 225.7 594.2 224.9 593.2 224.3L593.6 223.4L594.1 222.6C595.4 223.4 596.5 224.4 597.2 225.7C597.5 226.2 597.3 226.8 596.8 227C596.7 227 596.5 227.1 596.3 227.1ZM513.2 227C513 227 512.9 227 512.7 226.9C512.2 226.6 512.1 226 512.3 225.6C513 224.4 514 223.3 515.3 222.6L515.4 222.5C515.9 222.2 516.4 222.4 516.7 222.9C517 223.4 516.8 224 516.4 224.2L516.3 224.3C515.3 224.9 514.6 225.6 514 226.6C513.9 226.9 513.5 227 513.2 227ZM587 220.5C586.8 220.5 586.7 220.5 586.5 220.4L583.2 218.5C582.7 218.2 582.6 217.6 582.9 217.2C583.2 216.8 583.8 216.6 584.2 216.8L587.5 218.7C588 219 588.1 219.6 587.8 220C587.6 220.4 587.3 220.5 587 220.5ZM522.6 220.5C522.3 220.5 521.9 220.3 521.8 220C521.5 219.5 521.7 218.9 522.1 218.7L525.4 216.8C525.9 216.5 526.4 216.7 526.7 217.2C527 217.7 526.8 218.3 526.4 218.5L523.1 220.4C522.9 220.4 522.7 220.5 522.6 220.5ZM577 214.7C576.8 214.7 576.7 214.7 576.5 214.6L573.2 212.7C572.7 212.4 572.6 211.8 572.9 211.4C573.2 211 573.8 210.8 574.2 211L577.5 212.9C578 213.2 578.1 213.8 577.8 214.2C577.6 214.6 577.3 214.7 577 214.7ZM532.6 214.7C532.3 214.7 531.9 214.5 531.8 214.2C531.5 213.7 531.7 213.1 532.1 212.9L535.4 211C535.9 210.7 536.4 210.9 536.7 211.4C537 211.9 536.8 212.5 536.4 212.7L533.1 214.6C532.9 214.7 532.8 214.7 532.6 214.7ZM567 208.9C566.8 208.9 566.7 208.9 566.5 208.8L563.2 206.9C562.7 206.6 562.6 206 562.9 205.6C563.2 205.2 563.8 205 564.2 205.2L567.5 207.1C568 207.4 568.1 208 567.8 208.4C567.6 208.8 567.3 208.9 567 208.9ZM542.6 208.9C542.3 208.9 541.9 208.7 541.8 208.4C541.5 207.9 541.7 207.3 542.1 207.1L545.4 205.2C545.9 204.9 546.4 205.1 546.7 205.6C547 206.1 546.8 206.7 546.4 206.9L543.1 208.8C543 208.9 542.8 208.9 542.6 208.9ZM556.7 203.7C556.6 203.7 556.6 203.7 556.5 203.7C555.4 203.5 554.2 203.5 553 203.7C552.5 203.8 552 203.5 551.9 202.9C551.8 202.3 552.1 201.9 552.7 201.8C554.1 201.5 555.5 201.5 556.9 201.8C557.4 201.9 557.8 202.4 557.7 202.9C557.6 203.4 557.2 203.7 556.7 203.7Z" fill="black"/>
<path d="M410.1 342.9C409.8 342.9 409.4 342.7 409.3 342.4C409 341.9 409.2 341.4 409.7 341.1L413.1 339.1C413.6 338.8 414.1 339 414.4 339.5C414.7 340 414.5 340.5 414 340.8L410.6 342.8C410.5 342.8 410.3 342.9 410.1 342.9ZM420.3 337C420 337 419.6 336.8 419.5 336.5C419.2 336 419.4 335.5 419.9 335.2L423.3 333.2C423.8 332.9 424.3 333.1 424.6 333.6C424.9 334.1 424.7 334.6 424.2 334.9L420.8 336.9C420.7 336.9 420.5 337 420.3 337ZM430.6 331.1C430.3 331.1 429.9 330.9 429.8 330.6C429.5 330.1 429.7 329.6 430.2 329.3L433.6 327.3C434.1 327 434.6 327.2 434.9 327.7C435.2 328.2 435 328.7 434.5 329L431.1 331C430.9 331 430.7 331.1 430.6 331.1ZM440.8 325.2C440.5 325.2 440.1 325 440 324.7C439.7 324.2 439.9 323.7 440.4 323.4L443.8 321.4C444.3 321.1 444.8 321.3 445.1 321.8C445.4 322.3 445.2 322.8 444.7 323.1L441.3 325.1C441.1 325.1 440.9 325.2 440.8 325.2ZM451 319.3C450.7 319.3 450.3 319.1 450.2 318.8C449.9 318.3 450.1 317.8 450.6 317.5L454 315.5C454.5 315.2 455 315.4 455.3 315.9C455.6 316.4 455.4 316.9 454.9 317.2L451.5 319.2C451.3 319.2 451.2 319.3 451 319.3ZM461.2 313.4C460.9 313.4 460.5 313.2 460.4 312.9C460.1 312.4 460.3 311.9 460.8 311.6L464.2 309.6C464.7 309.3 465.2 309.5 465.5 310C465.8 310.5 465.6 311 465.1 311.3L461.7 313.3C461.6 313.3 461.4 313.4 461.2 313.4ZM471.4 307.5C471.1 307.5 470.7 307.3 470.6 307C470.3 306.5 470.5 306 471 305.7L474.4 303.7C474.9 303.4 475.4 303.6 475.7 304.1C476 304.6 475.8 305.1 475.3 305.4L471.9 307.4C471.8 307.4 471.6 307.5 471.4 307.5ZM481.7 301.6C481.4 301.6 481 301.4 480.9 301.1C480.6 300.6 480.8 300.1 481.3 299.8L484.7 297.8C485.2 297.5 485.7 297.7 486 298.2C486.3 298.7 486.1 299.2 485.6 299.5L482.2 301.5C482 301.5 481.8 301.6 481.7 301.6ZM491.9 295.7C491.6 295.7 491.2 295.5 491.1 295.2C490.8 294.7 491 294.2 491.5 293.9L494.9 291.9C495.4 291.6 495.9 291.8 496.2 292.3C496.5 292.8 496.3 293.3 495.8 293.6L492.4 295.6C492.2 295.6 492 295.7 491.9 295.7ZM502.1 289.8C501.8 289.8 501.4 289.6 501.3 289.3C501 288.8 501.2 288.3 501.7 288L505.1 286C505.6 285.7 506.1 285.9 506.4 286.4C506.7 286.9 506.5 287.4 506 287.7L502.6 289.7C502.4 289.7 502.3 289.8 502.1 289.8ZM512.3 283.9C512 283.9 511.6 283.7 511.5 283.4C511.2 282.9 511.4 282.4 511.9 282.1L515.3 280.1C515.8 279.8 516.3 280 516.6 280.5C516.9 281 516.7 281.5 516.3 281.8L512.9 283.8C512.7 283.8 512.5 283.9 512.3 283.9ZM522.5 278C522.2 278 521.8 277.8 521.7 277.5C521.4 277 521.6 276.5 522 276.2L525.4 274.2C525.9 273.9 526.4 274.1 526.7 274.6C527 275.1 526.8 275.6 526.4 275.9L523 277.9C522.9 277.9 522.7 278 522.5 278ZM532.8 272.1C532.5 272.1 532.1 271.9 532 271.6C531.7 271.1 531.9 270.6 532.3 270.3L535.7 268.3C536.2 268 536.7 268.2 537 268.7C537.3 269.2 537.1 269.7 536.7 270L533.3 272C533.1 272 532.9 272.1 532.8 272.1ZM543 266.2C542.7 266.2 542.3 266 542.2 265.7C541.9 265.2 542.1 264.7 542.5 264.4L545.9 262.4C546.4 262.1 546.9 262.3 547.2 262.8C547.5 263.3 547.3 263.8 546.9 264.1L543.5 266.1C543.3 266.1 543.1 266.2 543 266.2Z" fill="black"/>
<path d="M553.1 260.3C552.8 260.3 552.4 260.1 552.3 259.8C552 259.3 552.2 258.8 552.6 258.5L553.9 257.7C554.1 257.4 554.4 257.2 554.7 257.2C555.2 257.2 555.7 257.6 555.7 258.2V258.9L553.5 260.1C553.5 260.2 553.3 260.3 553.1 260.3Z" fill="black"/>
<path d="M556.8 260.4C556.6 260.4 556.5 260.4 556.3 260.3L554.1 259.1V258.5C554.1 258 554.5 257.5 555.1 257.5C555.4 257.5 555.6 257.6 555.8 257.8L557.3 258.6C557.8 258.9 557.9 259.5 557.6 259.9C557.4 260.2 557.1 260.4 556.8 260.4Z" fill="black"/>
<path d="M618.6 292.5C617.2 292.4 615.9 292.2 614.5 291.9C614 291.8 613.6 291.3 613.7 290.8C613.8 290.3 614.3 289.9 614.8 290C616 290.2 617.3 290.4 618.5 290.5C619 290.5 619.4 291 619.4 291.5C619.5 292.1 619.1 292.5 618.6 292.5ZM626.4 292.2C625.9 292.2 625.5 291.8 625.4 291.4C625.3 290.9 625.7 290.4 626.2 290.3C627.4 290.1 628.7 289.9 629.9 289.6C630.4 289.5 630.9 289.8 631.1 290.3C631.2 290.8 630.9 291.3 630.4 291.5C629.1 291.8 627.8 292.1 626.5 292.3C626.5 292.3 626.4 292.3 626.4 292.2ZM607.4 289.5C607.3 289.5 607.1 289.5 607 289.4C606 288.9 605.1 288.4 604.2 287.9L603.5 287.5C603 287.2 602.9 286.6 603.2 286.2C603.5 285.7 604.1 285.6 604.5 285.8L605.2 286.2C606.1 286.7 607 287.2 607.9 287.6C608.4 287.8 608.6 288.4 608.4 288.9C608.1 289.2 607.7 289.5 607.4 289.5ZM637.4 288.7C637.1 288.7 636.7 288.5 636.6 288.2C636.4 287.7 636.5 287.2 637 286.9C637.4 286.7 637.8 286.5 638.1 286.3L640.3 285C640.8 284.7 641.3 284.9 641.6 285.4C641.9 285.9 641.7 286.4 641.3 286.7L639.1 288C638.7 288.2 638.3 288.5 637.9 288.7C637.7 288.6 637.6 288.7 637.4 288.7ZM597.2 283.8C597 283.8 596.9 283.8 596.7 283.7L593.3 281.7C592.8 281.4 592.7 280.8 593 280.4C593.3 280 593.8 279.8 594.3 280L597.7 282C598.2 282.3 598.3 282.9 598 283.3C597.9 283.6 597.5 283.8 597.2 283.8ZM647.5 282.9C647.2 282.9 646.8 282.7 646.7 282.4C646.4 281.9 646.6 281.4 647 281.1L650.4 279.1C650.9 278.8 651.4 279 651.7 279.5C652 280 651.8 280.5 651.4 280.8L648 282.8C647.9 282.8 647.7 282.9 647.5 282.9ZM587.1 277.9C586.9 277.9 586.8 277.9 586.6 277.8L583.2 275.9C582.7 275.6 582.6 275 582.9 274.6C583.2 274.1 583.7 274 584.2 274.2L587.6 276.1C588.1 276.4 588.2 277 587.9 277.4C587.7 277.7 587.4 277.9 587.1 277.9ZM657.6 277C657.3 277 656.9 276.8 656.8 276.5C656.5 276 656.7 275.5 657.1 275.2L660.5 273.3C661 273 661.5 273.2 661.8 273.7C662.1 274.2 661.9 274.7 661.5 275L658.1 276.9C658 277 657.8 277 657.6 277ZM577 272.1C576.8 272.1 576.7 272.1 576.5 272L573.1 270C572.6 269.7 572.5 269.1 572.8 268.7C573.1 268.2 573.6 268.1 574.1 268.3L577.5 270.3C578 270.6 578.1 271.2 577.8 271.6C577.6 271.9 577.3 272.1 577 272.1ZM667.7 271.2C667.4 271.2 667 271 666.9 270.7C666.6 270.2 666.8 269.7 667.2 269.4L670.6 267.4C671.1 267.1 671.6 267.3 671.9 267.8C672.2 268.3 672 268.8 671.6 269.1L668.2 271.1C668.1 271.1 667.9 271.2 667.7 271.2ZM566.9 266.2C566.7 266.2 566.6 266.2 566.4 266.1L563 264.1C562.5 263.8 562.4 263.2 562.7 262.8C563 262.3 563.5 262.2 564 262.4L567.4 264.4C567.9 264.7 568 265.3 567.7 265.7C567.5 266.1 567.2 266.2 566.9 266.2ZM677.9 265.3C677.6 265.3 677.2 265.1 677.1 264.8C676.8 264.3 677 263.8 677.4 263.5L680.8 261.5C681.3 261.2 681.8 261.4 682.1 261.9C682.4 262.4 682.2 262.9 681.8 263.2L678.4 265.2C678.2 265.3 678 265.3 677.9 265.3ZM688 259.5C687.7 259.5 687.3 259.3 687.2 259C686.9 258.5 687.1 258 687.5 257.7L690.9 255.8C691.4 255.5 691.9 255.7 692.2 256.1C692.5 256.5 692.3 257.1 691.9 257.4L688.5 259.4C688.3 259.5 688.1 259.5 688 259.5ZM698.1 253.7C697.8 253.7 697.4 253.5 697.3 253.2C697 252.7 697.2 252.1 697.6 251.9L701 250C701.5 249.7 702 249.9 702.3 250.4C702.6 250.9 702.4 251.5 702 251.7L698.6 253.6C698.4 253.6 698.2 253.7 698.1 253.7ZM708.2 247.8C707.9 247.8 707.5 247.6 707.4 247.3C707.1 246.8 707.3 246.2 707.7 246L711.1 244.1C711.6 243.8 712.1 244 712.4 244.5C712.7 245 712.5 245.6 712.1 245.8L708.7 247.7C708.5 247.8 708.3 247.8 708.2 247.8ZM718.3 242C718 242 717.6 241.8 717.5 241.5C717.2 241 717.4 240.4 717.8 240.2L721.2 238.3C721.7 238 722.2 238.2 722.5 238.7C722.8 239.2 722.6 239.8 722.2 240L718.8 241.9C718.6 241.9 718.5 242 718.3 242ZM728.4 236.1C728.1 236.1 727.7 235.9 727.6 235.6C727.3 235.1 727.5 234.5 727.9 234.3L731.3 232.4C731.8 232.1 732.3 232.3 732.6 232.8C732.9 233.3 732.7 233.9 732.3 234.1L728.9 236C728.7 236.1 728.6 236.1 728.4 236.1ZM738.5 230.3C738.2 230.3 737.8 230.1 737.7 229.8C737.4 229.3 737.6 228.7 738 228.5L741.4 226.6C741.9 226.3 742.4 226.5 742.7 227C743 227.5 742.8 228.1 742.4 228.3L739 230.2C738.8 230.3 738.7 230.3 738.5 230.3ZM748.6 224.5C748.3 224.5 747.9 224.3 747.8 224C747.5 223.5 747.7 222.9 748.1 222.7L751.5 220.8C752 220.5 752.5 220.7 752.8 221.2C753.1 221.7 752.9 222.3 752.5 222.5L749.1 224.4C748.9 224.4 748.8 224.5 748.6 224.5ZM758.7 218.6C758.4 218.6 758 218.4 757.9 218.1C757.6 217.6 757.8 217 758.2 216.8L761.6 214.9C762.1 214.6 762.6 214.8 762.9 215.3C763.2 215.8 763 216.4 762.6 216.6L759.2 218.5C759.1 218.6 758.9 218.6 758.7 218.6ZM768.8 212.8C768.5 212.8 768.1 212.6 768 212.3C767.7 211.8 767.9 211.2 768.3 211L771.7 209.1C772.2 208.8 772.7 209 773 209.5C773.3 210 773.1 210.6 772.7 210.8L769.3 212.7C769.2 212.7 769 212.8 768.8 212.8ZM778.9 206.9C778.6 206.9 778.2 206.7 778.1 206.4C777.8 205.9 778 205.3 778.4 205.1L781.8 203.2C782.3 202.9 782.8 203.1 783.1 203.6C783.4 204.1 783.2 204.7 782.8 204.9L779.4 206.8C779.3 206.9 779.1 206.9 778.9 206.9ZM789.1 201.1C788.8 201.1 788.4 200.9 788.3 200.6C788 200.1 788.2 199.5 788.6 199.3L792 197.4C792.5 197.1 793 197.3 793.3 197.8C793.6 198.3 793.4 198.9 793 199.1L789.6 201C789.4 201.1 789.2 201.1 789.1 201.1ZM799.2 195.3C798.9 195.3 798.5 195.1 798.4 194.8C798.1 194.3 798.3 193.7 798.7 193.5L802.1 191.6C802.6 191.3 803.1 191.5 803.4 192C803.7 192.5 803.5 193.1 803.1 193.3L799.7 195.2C799.5 195.2 799.3 195.3 799.2 195.3ZM809.3 189.4C809 189.4 808.6 189.2 808.5 188.9C808.2 188.4 808.4 187.8 808.8 187.6L812.2 185.7C812.7 185.4 813.2 185.6 813.5 186.1C813.8 186.6 813.6 187.2 813.2 187.4L809.8 189.3C809.6 189.4 809.4 189.4 809.3 189.4ZM819.4 183.6C819.1 183.6 818.7 183.4 818.6 183.1C818.3 182.6 818.5 182 818.9 181.8L822.3 179.9C822.8 179.6 823.3 179.8 823.6 180.3C823.9 180.8 823.7 181.4 823.3 181.6L819.9 183.5C819.7 183.5 819.5 183.6 819.4 183.6ZM829.5 177.7C829.2 177.7 828.8 177.5 828.7 177.2C828.4 176.7 828.6 176.1 829 175.9L832.4 174C832.9 173.7 833.4 173.9 833.7 174.4C834 174.9 833.8 175.5 833.4 175.7L830 177.6C829.8 177.7 829.7 177.7 829.5 177.7Z" fill="black"/>
<path d="M839.6 172C839.3 172 838.9 171.8 838.8 171.5C838.5 171 838.7 170.4 839.1 170.2L840.8 169.2C841.3 168.9 841.8 169.1 842.1 169.6C842.4 170.1 842.2 170.7 841.8 170.9L840.1 171.9C839.9 171.9 839.8 172 839.6 172Z" fill="black"/>
<path d="M1242.9 327.6V193.9L1085.7 284.6L928.5 193.9V327.6H1242.9Z" fill="#FFDDC4"/>
<path d="M1377 163.7V132.5C1372 132.5 1367.1 133.7 1362.7 136C1358.3 138.3 1354.5 141.7 1351.6 145.8C1348.8 149.9 1346.9 154.6 1346.3 159.6C1345.7 164.5 1346.3 169.6 1348 174.2C1349.7 178.9 1352.6 183.1 1356.3 186.4C1360 189.7 1364.5 192.1 1369.3 193.4C1374.1 194.6 1379.2 194.7 1384.1 193.5C1388.9 192.4 1393.5 190.1 1397.2 186.8L1377 163.7Z" fill="#195F88"/>
<path d="M1397.5 140.4L1377 163.8L1397.2 186.9C1400.5 184 1403.2 180.5 1405.1 176.5C1406.9 172.5 1407.9 168.2 1407.9 163.8C1407.9 159.4 1407 155 1405.2 151C1403.4 147 1400.8 143.3 1397.5 140.4Z" fill="#B2E0F4"/>
<path d="M1377 132.5V163.7L1397.5 140.3C1391.8 135.3 1384.5 132.6 1377 132.5Z" fill="#FF8F3D"/>
<path d="M1377.2 226.3C1376.8 226.3 1376.3 226.2 1375.9 226L1323.6 195.8C1323.2 195.6 1322.9 195.3 1322.7 194.9C1322.5 194.6 1322.4 194.1 1322.4 193.7V133.2C1322.4 132.8 1322.5 132.3 1322.7 132C1322.9 131.6 1323.2 131.3 1323.6 131.1L1375.9 100.9C1376.7 100.5 1377.6 100.5 1378.4 100.9L1430.8 131.2C1431.1 131.4 1431.5 131.7 1431.7 132.1C1431.9 132.5 1432 132.9 1432 133.3V193.8C1432 194.2 1431.9 194.7 1431.7 195C1431.5 195.4 1431.2 195.7 1430.8 195.9L1378.4 226.1C1378.2 226.2 1377.9 226.3 1377.6 226.4L1377.5 226.5L1377.2 226.3ZM1377.1 102.4C1377 102.4 1376.9 102.4 1376.8 102.5L1324.5 132.7C1324.4 132.8 1324.4 132.8 1324.3 132.9C1324.3 133 1324.2 133 1324.2 133.1V193.6C1324.2 193.7 1324.2 193.8 1324.3 193.8C1324.4 193.9 1324.4 193.9 1324.5 194L1376.9 224.3C1377 224.3 1377.1 224.4 1377.1 224.4C1377.2 224.4 1377.3 224.4 1377.3 224.3L1429.7 194.1C1429.8 194.1 1429.8 194 1429.9 193.9C1429.9 193.8 1430 193.8 1430 193.7V133.2C1430 133.1 1430 133.1 1429.9 133C1429.8 132.9 1429.8 132.8 1429.7 132.8L1377.3 102.5C1377.3 102.4 1377.2 102.4 1377.1 102.4Z" fill="#25333D"/>
<path d="M1323.9 192.2L1338 184.1L1323.9 175.9L1309.8 184.1V200.4L1323.9 208.6V192.2Z" fill="#FFDDC4"/>
<path d="M1338 200.3V184L1323.9 192.1V208.4L1338 200.3Z" fill="#FFBC8B"/>
<path d="M981.1 72L866.9 152.8L864.8 186L981.1 72Z" fill="#195F88"/>
<path d="M981.2 72L814 121.2L910.6 177.6C910.5 177.6 977.8 75.3 981.2 72Z" fill="#66C2E9"/>
<path d="M866.9 152.8L981.1 72L848.1 140.7L864.8 185.9L866.9 152.8Z" fill="#009ADB"/>
<path d="M1060 162.9V163L1108.3 190.9L1156.6 163V162.9L1108.3 135.1L1060 162.9Z" fill="#FF8F3D"/>
<path d="M1113.6 230.1L1071.6 254.3C1070 255.2 1070 257.6 1071.6 258.5L1082.5 264.8C1084.2 265.8 1086.2 265.8 1087.8 264.8L1129.7 240.6C1131.3 239.7 1131.3 237.3 1129.7 236.4L1118.8 230.1C1117.3 229.1 1115.2 229.1 1113.6 230.1Z" fill="white"/>
<path d="M963.2 194.6C962.9 194.6 962.5 194.4 962.3 194.1C962 193.6 962.2 193 962.7 192.7L1086.1 121.8C1086.6 121.5 1087.2 121.7 1087.5 122.2C1087.8 122.7 1087.6 123.3 1087.1 123.6L963.7 194.5C963.6 194.5 963.4 194.6 963.2 194.6Z" fill="#314351"/>
<path d="M986.2 207.6C985.9 207.6 985.5 207.4 985.3 207.1C985 206.6 985.2 206 985.7 205.7L1050.6 168.4C1051.1 168.1 1051.7 168.3 1052 168.8C1052.3 169.3 1052.1 169.9 1051.6 170.2L986.7 207.5C986.5 207.5 986.4 207.6 986.2 207.6Z" fill="#314351"/>
<path d="M997.7 213.5C997.4 213.5 997 213.3 996.8 213C996.5 212.5 996.7 211.9 997.2 211.6L1060.3 175.3C1060.8 175 1061.4 175.2 1061.7 175.7C1062 176.2 1061.8 176.8 1061.3 177.1L998.2 213.4C998 213.5 997.9 213.5 997.7 213.5Z" fill="#314351"/>
<path d="M1086.3 256.9L1085.3 255.2L1115.8 237C1116.3 236.7 1116.9 236.9 1117.2 237.4C1117.5 237.9 1117.3 238.5 1116.9 238.8L1086.3 256.9Z" fill="#314351"/>
<path d="M865.1 306.4L945.2 260.1V260L864.9 213.7L784.6 260V352.7L864.9 399.1L865.1 399V306.4Z" fill="#B2E0F4"/>
<path d="M945.4 352.5V259.9L906.6 282.4L865.4 306.1V398.7L945.4 352.5Z" fill="#66C2E9"/>
<path d="M1668.6 172.7V158.4L1656.2 151.2L1643.8 158.4V172.7L1656.2 179.9L1668.6 172.7Z" fill="#FF8F3D"/>
<path d="M1580.8 170.1V141L1555.6 126.5L1530.4 141V170.1L1555.6 184.7L1580.8 170.1Z" fill="#FFBC8B"/>
<path d="M1574.8 157.8V154.9L1569.9 153.3C1569.5 151.4 1568.7 149.7 1567.7 148.1L1570.1 143.5L1568.1 141.5L1563.4 143.9C1561.9 142.9 1560.1 142.2 1558.3 141.8L1556.7 136.8H1553.8L1552.2 141.8C1550.3 142.2 1548.6 142.9 1547.1 143.9L1542.4 141.5L1540.4 143.5L1542.8 148.1C1541.8 149.7 1541 151.4 1540.6 153.3L1535.7 154.9V157.8L1540.6 159.4C1541 161.3 1541.7 163.1 1542.8 164.7L1540.5 169.2L1542.5 171.2L1547 168.9C1548.6 170 1550.4 170.8 1552.4 171.1L1553.9 175.9H1556.8L1558.3 171.1C1560.3 170.7 1562.1 169.9 1563.7 168.9L1568.2 171.2L1570.2 169.2L1567.9 164.7C1568.9 163.1 1569.7 161.3 1570.1 159.4L1574.8 157.8ZM1555.3 160.2C1553.1 160.2 1551.4 158.4 1551.4 156.3C1551.4 154.2 1553.2 152.4 1555.3 152.4C1557.4 152.4 1559.2 154.2 1559.2 156.3C1559.2 158.4 1557.5 160.2 1555.3 160.2Z" fill="white"/>
<path d="M811.2 275.4V244.5L784.5 229.1L757.8 244.5V275.4L784.5 290.8L811.2 275.4Z" fill="#FF8F3D"/>
<path d="M801 260.2C801 260.2 793.5 270.4 784.1 270.4C774.7 270.4 767.2 260.2 767.2 260.2C767.2 260.2 774.7 250 784.1 250C793.5 250 801 260.2 801 260.2Z" fill="white"/>
<path d="M784.1 270.5C789.789 270.5 794.4 265.888 794.4 260.2C794.4 254.511 789.789 249.9 784.1 249.9C778.412 249.9 773.8 254.511 773.8 260.2C773.8 265.888 778.412 270.5 784.1 270.5Z" fill="#66C2E9"/>
<path d="M784.1 264.4C786.419 264.4 788.3 262.52 788.3 260.2C788.3 257.88 786.419 256 784.1 256C781.78 256 779.9 257.88 779.9 260.2C779.9 262.52 781.78 264.4 784.1 264.4Z" fill="#AD4800"/>
<path d="M1282.1 282.8V237.4L1242.7 214.6L1203.3 237.4V282.8L1242.7 305.5L1282.1 282.8Z" fill="#FF8F3D"/>
<mask id="mask2_241_3178" style="mask-type:luminance" maskUnits="userSpaceOnUse" x="1203" y="214" width="80" height="92">
<path d="M1282.1 282.8V237.4L1242.7 214.6L1203.3 237.4V282.8L1242.7 305.5L1282.1 282.8Z" fill="white"/>
</mask>
<g mask="url(#mask2_241_3178)">
<path d="M1258.2 234.9C1256.3 235 1254.8 236.6 1254.8 238.5V249.5C1254.8 249.7 1254.6 249.9 1254.4 249.9C1254.2 249.9 1254.1 249.7 1254.1 249.5V233.4C1254.1 231.5 1252.5 229.9 1250.6 229.9C1248.7 229.9 1247.1 231.5 1247.1 233.4V248.8C1247.1 249 1246.9 249.2 1246.7 249.2C1246.5 249.2 1246.4 249 1246.4 248.8V229.5C1246.4 227.6 1244.8 226 1242.9 226C1241 226 1239.4 227.6 1239.4 229.5V248.1C1239.4 248.3 1239.2 248.5 1239 248.5C1238.8 248.5 1238.7 248.3 1238.7 248.1V232.8C1238.7 230.9 1237.1 229.3 1235.2 229.3C1233.3 229.3 1231.7 230.9 1231.7 232.8V261.4C1231.7 261.7 1231.5 261.9 1231.2 261.9C1230.9 261.9 1230.7 261.7 1230.7 261.4V253.2C1230.7 251.3 1229.1 249.7 1227.2 249.7C1225.3 249.7 1223.7 251.3 1223.7 253.2V269.4V273V322H1262.1V238.4C1261.9 236.5 1260.3 234.9 1258.2 234.9Z" fill="#EBF9FF"/>
<path d="M1262.4 280.7H1222.9V290.1H1262.4V280.7Z" fill="#009ADB"/>
<path d="M1242.9 293.8C1247.54 293.8 1251.3 290.039 1251.3 285.4C1251.3 280.761 1247.54 277 1242.9 277C1238.26 277 1234.5 280.761 1234.5 285.4C1234.5 290.039 1238.26 293.8 1242.9 293.8Z" fill="#195F88"/>
<path d="M1242.9 292.5C1246.82 292.5 1250 289.321 1250 285.4C1250 281.479 1246.82 278.3 1242.9 278.3C1238.98 278.3 1235.8 281.479 1235.8 285.4C1235.8 289.321 1238.98 292.5 1242.9 292.5Z" fill="#FF8F3D"/>
<path d="M1242.9 286.7C1243.62 286.7 1244.2 286.118 1244.2 285.4C1244.2 284.682 1243.62 284.1 1242.9 284.1C1242.18 284.1 1241.6 284.682 1241.6 285.4C1241.6 286.118 1242.18 286.7 1242.9 286.7Z" fill="#195F88"/>
<path d="M1242.9 285.3V279.8" stroke="#195F88" stroke-width="2" stroke-miterlimit="10" stroke-linecap="round"/>
<path d="M1246.5 289.4L1243.4 286" stroke="#195F88" stroke-width="2" stroke-miterlimit="10" stroke-linecap="round"/>
</g>
<path d="M1601.1 274.3C1600.9 274.3 1600.8 274.3 1600.6 274.2L1565.1 253.7C1564.8 253.5 1564.6 253.2 1564.6 252.8V211.8C1564.6 211.4 1564.8 211.1 1565.1 210.9L1600.6 190.4C1600.9 190.2 1601.3 190.2 1601.6 190.4L1637 211C1637.3 211.2 1637.5 211.5 1637.5 211.9V252.9C1637.5 253.3 1637.3 253.6 1637 253.8L1601.5 274.3C1601.4 274.3 1601.2 274.3 1601.1 274.3ZM1566.6 252.3L1601.1 272.2L1635.6 252.3V212.5L1601.1 192.6L1566.6 212.5V252.3Z" fill="#25333D"/>
<path d="M1582.4 216.6H1619.8V233.5C1619.8 241.6 1613.3 248.1 1605.2 248.1H1597C1588.9 248.1 1582.4 241.6 1582.4 233.5V216.6Z" fill="#66C2E9"/>
<path d="M1622.1 219.5C1624.5 219.5 1626.4 221.4 1626.4 223.8C1626.4 226.2 1624.5 228.1 1622.1 228.1H1618.7V219.5H1622.1ZM1622.1 216.6H1615.8V231H1622.1C1626.1 231 1629.3 227.8 1629.3 223.8C1629.3 219.8 1626.1 216.6 1622.1 216.6Z" fill="#66C2E9"/>
<path d="M1196.3 72.3001L1235.3 49.8001V49.7001L1196.2 27.1001L1157.1 49.7001V94.8001L1196.2 117.4L1196.3 117.3V72.3001Z" fill="#B2E0F4"/>
<path d="M1235.3 95.0003V49.8003L1196.3 72.3003V117.5L1235.3 95.0003Z" fill="#66C2E9"/>
<path d="M1232.6 126.9C1232.4 126.9 1232.2 126.8 1232 126.8L1231.8 126.7L1213.6 116.2C1213.4 116 1213.2 115.9 1213.1 115.8C1212.9 115.6 1212.9 115.3 1212.9 115V94.0003C1212.9 93.8003 1213 93.5003 1213.1 93.3003C1213.2 93.1003 1213.4 92.9003 1213.6 92.8003L1231.8 82.3003C1232.1 82.1003 1232.6 82.0003 1233.1 82.2003L1233.2 82.3003L1251.4 92.8003C1251.7 93.0003 1251.8 93.1003 1251.9 93.3003C1252 93.5003 1252.1 93.8003 1252.1 94.0003V115C1252.1 115.3 1252 115.5 1251.9 115.8C1251.8 116 1251.6 116.2 1251.4 116.3L1233.2 126.8C1233 126.8 1232.8 126.9 1232.6 126.9ZM1215 114.6L1232.6 124.8L1250.2 114.6V94.3003L1232.6 84.1003L1215 94.3003V114.6ZM1233 83.9003C1232.9 84.0003 1232.9 84.0003 1233 83.9003V83.9003Z" fill="#25333D"/>
<path d="M1189.4 98.0003C1189.4 97.2003 1189.2 96.5003 1188.8 95.8003C1188.4 95.1003 1187.9 94.6003 1187.3 94.1003C1187.2 94.0002 1187 93.9003 1186.8 93.9003C1186.8 93.6003 1186.8 93.4002 1186.8 93.1003C1186.8 89.8003 1184.6 85.9003 1182 84.4003C1181.7 84.2003 1181.4 84.1003 1181.1 84.0003C1180.1 80.1003 1177.5 76.3003 1174.5 74.6003C1170.8 72.5003 1167.8 74.3003 1167.5 78.6003C1167 78.1003 1166.5 77.6003 1165.9 77.3003C1163.7 76.1003 1161.9 77.3003 1161.9 80.0003C1161.9 82.7003 1163.7 86.0002 1165.9 87.2002H1166L1187.3 99.2002C1188.5 100 1189.4 99.4003 1189.4 98.0003Z" fill="white"/>
<path d="M358.6 262.6C358.6 261.1 359.2 259.7 360.2 258.7C361.2 257.7 362.7 257.1 364.1 257.1C364.5 257.1 364.9 257.1 365.3 257.2C365.2 256.6 365.2 256 365.2 255.5C365.2 253.6 365.6 251.8 366.4 250.1C367.2 248.4 368.4 246.9 369.8 245.7C371.2 244.5 372.9 243.6 374.7 243.2C376.5 242.7 378.4 242.7 380.2 243C381.7 239 384.5 235.7 388.1 233.5C391.7 231.3 396 230.4 400.2 231C404.4 231.6 408.3 233.6 411.2 236.6C414.1 239.7 415.9 243.7 416.3 247.9C417.8 247.3 419.3 247 420.9 247C422.5 247 424 247.4 425.4 248.2C426.8 248.9 428 250 429 251.2C430 252.5 430.6 253.9 430.9 255.5C431.2 257.1 431.2 258.7 430.8 260.2C430.4 261.7 429.7 263.2 428.7 264.4C427.7 265.6 426.4 266.6 425 267.3C423.6 268 422 268.3 420.4 268.3H363.7C362.2 268.3 360.8 267.7 359.8 266.7C358.8 265.7 358.6 264.1 358.6 262.6Z" fill="#B2E0F4"/>
</g>
</g>
</g>
<defs>
<clipPath id="clip0_241_3178">
<rect width="1680" height="320" fill="white"/>
</clipPath>
<clipPath id="clip1_241_3178">
<rect width="1680" height="320" fill="white"/>
</clipPath>
</defs>
</svg>
