<svg width="928" height="408" viewBox="0 0 928 408" fill="none" xmlns="http://www.w3.org/2000/svg">
<g clip-path="url(#clip0_10149_6649)">
<rect width="928" height="408" rx="4" fill="#FCFDFD"/>
<path d="M0 0.486111C0 0.217639 3.67681 0 8.21239 0H919.788C924.323 0 928 0.217639 928 0.486111V35H0V0.486111Z" fill="black"/>
<path opacity="0.8" d="M928 0H0V408H928V0Z" fill="#1B2B32"/>
<g filter="url(#filter0_d_10149_6649)">
<g clip-path="url(#clip1_10149_6649)">
<rect x="231" y="31.6257" width="466.286" height="344.857" rx="3.2381" fill="white"/>
<g clip-path="url(#clip2_10149_6649)">
<rect width="174.048" height="344.857" transform="translate(231 31.6257)" fill="white"/>
<g clip-path="url(#clip3_10149_6649)">
<rect width="178.905" height="58.8571" transform="translate(250.429 31.6257)" fill="white"/>
<path d="M252.08 65.0542V53.9313H253.715L260.094 62.3666V53.9313H261.746V65.0542H260.094L253.715 56.619V65.0542H252.08ZM268.17 63.9209C269.077 63.9209 270.129 63.5161 270.647 62.9656L271.586 63.9532C270.858 64.7466 269.384 65.2485 268.203 65.2485C265.887 65.2485 263.88 63.419 263.88 60.8447C263.88 58.3352 265.774 56.4894 268.089 56.4894C270.647 56.4894 272.137 58.3999 272.137 61.379H265.45C265.644 62.8523 266.681 63.9209 268.17 63.9209ZM268.122 57.8171C266.778 57.8171 265.709 58.7561 265.466 60.1971H270.583C270.421 58.8532 269.579 57.8171 268.122 57.8171ZM275.617 65.0542L272.8 56.6837H274.435L276.345 62.9171L278.418 56.6837H279.778L281.85 62.9171L283.777 56.6837H285.412L282.579 65.0542H281.105L279.114 58.8371L277.09 65.0542H275.617ZM291.418 65.0542V53.9313H296.097C298.429 53.9313 300.226 55.4371 300.226 57.558C300.226 59.679 298.429 61.1847 296.097 61.1847H293.054V65.0542H291.418ZM293.054 59.6628H295.855C297.457 59.6628 298.558 58.8694 298.558 57.558C298.558 56.2466 297.457 55.4532 295.855 55.4532H293.054V59.6628ZM305.787 65.2485C303.375 65.2485 301.383 63.2732 301.383 60.8609C301.383 58.4485 303.375 56.4894 305.787 56.4894C308.2 56.4894 310.191 58.4485 310.191 60.8609C310.191 63.2732 308.2 65.2485 305.787 65.2485ZM305.787 63.8561C307.325 63.8561 308.588 62.5123 308.588 60.8609C308.588 59.2094 307.325 57.8818 305.787 57.8818C304.249 57.8818 302.986 59.2094 302.986 60.8609C302.986 62.5123 304.249 63.8561 305.787 63.8561ZM311.973 65.0542V53.7371H313.576V60.9742L317.672 56.6837H319.615L316.004 60.4723L319.453 65.0542H317.543L314.92 61.5409L313.576 62.9009V65.0542H311.973ZM327.394 53.6561L325.063 55.7285H323.913L325.84 53.3323L327.394 53.6561ZM324.577 63.9209C325.484 63.9209 326.536 63.5161 327.054 62.9656L327.993 63.9532C327.265 64.7466 325.791 65.2485 324.609 65.2485C322.294 65.2485 320.286 63.419 320.286 60.8447C320.286 58.3352 322.181 56.4894 324.496 56.4894C327.054 56.4894 328.544 58.3999 328.544 61.379H321.857C322.051 62.8523 323.087 63.9209 324.577 63.9209ZM324.528 57.8171C323.185 57.8171 322.116 58.7561 321.873 60.1971H326.989C326.827 58.8532 325.986 57.8171 324.528 57.8171ZM339.633 56.4894C341.382 56.4894 342.644 57.8332 342.644 59.7275V65.0542H341.09V59.9704C341.09 58.7399 340.345 57.8818 339.309 57.8818C338.111 57.8818 337.253 58.6752 337.253 59.8247V65.0542H335.683V59.9704C335.683 58.7399 334.954 57.8818 333.918 57.8818C332.704 57.8818 331.862 58.6752 331.862 59.8247V65.0542H330.259V56.6837H331.862V57.8818C332.283 57.0237 333.157 56.4894 334.242 56.4894C335.569 56.4894 336.622 57.2666 337.043 58.4809C337.302 57.299 338.322 56.4894 339.633 56.4894ZM348.651 65.2485C346.239 65.2485 344.248 63.2732 344.248 60.8609C344.248 58.4485 346.239 56.4894 348.651 56.4894C351.064 56.4894 353.055 58.4485 353.055 60.8609C353.055 63.2732 351.064 65.2485 348.651 65.2485ZM348.651 63.8561C350.189 63.8561 351.452 62.5123 351.452 60.8609C351.452 59.2094 350.189 57.8818 348.651 57.8818C347.113 57.8818 345.85 59.2094 345.85 60.8609C345.85 62.5123 347.113 63.8561 348.651 63.8561ZM359.112 56.4894C360.957 56.4894 362.236 57.8009 362.236 59.7275V65.0542H360.682V60.0028C360.682 58.7399 359.889 57.8818 358.755 57.8818C357.476 57.8818 356.44 58.7561 356.44 59.8571V65.0542H354.837V56.6837H356.44V57.9142C356.926 57.0723 357.962 56.4894 359.112 56.4894Z" fill="#22343C"/>
</g>
<mask id="path-9-inside-1_10149_6649" fill="white">
<path d="M250.429 91.2925H404.429V130.15H250.429V91.2925Z"/>
</mask>
<path d="M250.429 91.2925H404.429V130.15H250.429V91.2925Z" fill="white"/>
<path d="M253.667 130.15V91.2925H247.19V130.15H253.667Z" fill="#41800E" mask="url(#path-9-inside-1_10149_6649)"/>
<path fill-rule="evenodd" clip-rule="evenodd" d="M266.619 104.964C263.44 104.964 260.862 107.542 260.862 110.721C260.862 113.9 263.44 116.478 266.619 116.478C269.798 116.478 272.376 113.9 272.376 110.721C272.376 109.194 271.769 107.73 270.69 106.65C269.61 105.571 268.146 104.964 266.619 104.964ZM266.619 115.758C263.837 115.758 261.582 113.503 261.582 110.721C261.582 107.939 263.837 105.684 266.619 105.684C269.401 105.684 271.656 107.939 271.656 110.721C271.656 112.057 271.125 113.338 270.181 114.283C269.236 115.227 267.955 115.758 266.619 115.758ZM269.71 108.598C269.85 108.459 270.077 108.459 270.217 108.598C270.285 108.666 270.323 108.758 270.323 108.854C270.323 108.95 270.285 109.042 270.217 109.109L265.716 113.599L263.021 110.912C262.884 110.764 262.893 110.532 263.041 110.395C263.189 110.258 263.42 110.267 263.557 110.415L265.716 112.574L269.71 108.598Z" fill="#41800E"/>
<path d="M282.318 107.795L280.969 108.656L280.493 107.829L282.544 106.435H283.462V114.221H282.318V107.795Z" fill="#3A4D55"/>
<path d="M300.156 105.435H303.851C304.281 105.435 304.663 105.518 304.995 105.684C305.328 105.851 305.588 106.081 305.777 106.376C305.966 106.67 306.061 107.003 306.061 107.373C306.061 107.766 305.966 108.102 305.777 108.382C305.596 108.654 305.324 108.892 304.961 109.096C305.415 109.322 305.762 109.609 306.004 109.957C306.253 110.297 306.378 110.679 306.378 111.102C306.378 111.51 306.276 111.876 306.072 112.201C305.868 112.518 305.585 112.768 305.222 112.949C304.859 113.13 304.448 113.221 303.987 113.221H300.156V105.435ZM303.556 108.676C303.949 108.676 304.27 108.574 304.519 108.37C304.769 108.159 304.893 107.891 304.893 107.566C304.893 107.241 304.769 106.973 304.519 106.761C304.27 106.549 303.949 106.444 303.556 106.444H301.301V108.676H303.556ZM303.737 112.212C304.168 112.212 304.519 112.095 304.791 111.861C305.071 111.619 305.211 111.309 305.211 110.932C305.211 110.554 305.071 110.248 304.791 110.014C304.519 109.772 304.168 109.651 303.737 109.651H301.301V112.212H303.737ZM310.094 107.226C310.864 107.226 311.465 107.449 311.896 107.894C312.326 108.34 312.542 108.933 312.542 109.674V113.221H311.442V112.428C311.231 112.722 310.947 112.953 310.592 113.119C310.237 113.278 309.871 113.357 309.493 113.357C308.866 113.357 308.348 113.187 307.94 112.847C307.532 112.507 307.328 112.054 307.328 111.487C307.328 111.109 307.43 110.773 307.634 110.478C307.846 110.176 308.129 109.946 308.484 109.787C308.847 109.621 309.244 109.538 309.674 109.538C310.233 109.538 310.823 109.643 311.442 109.855V109.674C311.442 109.243 311.325 108.884 311.091 108.597C310.857 108.302 310.471 108.155 309.935 108.155C309.474 108.155 308.926 108.317 308.292 108.642L307.872 107.815C308.658 107.422 309.398 107.226 310.094 107.226ZM309.72 112.473C310.112 112.473 310.475 112.379 310.808 112.19C311.14 111.993 311.352 111.725 311.442 111.385V110.603C310.944 110.452 310.411 110.376 309.844 110.376C309.444 110.376 309.104 110.478 308.824 110.682C308.545 110.886 308.405 111.143 308.405 111.453C308.405 111.763 308.526 112.012 308.768 112.201C309.017 112.382 309.334 112.473 309.72 112.473ZM316.104 113.357C315.666 113.357 315.228 113.281 314.789 113.13C314.351 112.979 313.958 112.764 313.611 112.484L314.121 111.714C314.446 111.955 314.778 112.141 315.118 112.269C315.458 112.39 315.79 112.45 316.115 112.45C316.463 112.45 316.739 112.379 316.943 112.235C317.154 112.091 317.26 111.899 317.26 111.657C317.26 111.408 317.15 111.223 316.931 111.102C316.712 110.973 316.368 110.845 315.9 110.716C315.182 110.512 314.665 110.289 314.347 110.048C314.038 109.806 313.883 109.458 313.883 109.005C313.883 108.469 314.079 108.038 314.472 107.713C314.872 107.388 315.386 107.226 316.013 107.226C316.384 107.226 316.758 107.286 317.135 107.407C317.513 107.528 317.861 107.694 318.178 107.906L317.713 108.699C317.109 108.321 316.542 108.132 316.013 108.132C315.704 108.132 315.447 108.2 315.243 108.336C315.046 108.465 314.948 108.646 314.948 108.88C314.948 109.031 314.993 109.152 315.084 109.243C315.175 109.334 315.311 109.417 315.492 109.492C315.673 109.56 315.957 109.655 316.342 109.776C316.765 109.904 317.109 110.029 317.373 110.15C317.645 110.263 317.872 110.433 318.053 110.66C318.235 110.886 318.325 111.181 318.325 111.544C318.325 112.095 318.118 112.537 317.702 112.87C317.294 113.195 316.761 113.357 316.104 113.357ZM319.608 107.362H320.73V113.221H319.608V107.362ZM320.175 106.387C319.986 106.387 319.823 106.319 319.687 106.183C319.559 106.047 319.495 105.888 319.495 105.707C319.495 105.526 319.559 105.371 319.687 105.242C319.823 105.106 319.986 105.038 320.175 105.038C320.356 105.038 320.511 105.106 320.639 105.242C320.775 105.371 320.843 105.526 320.843 105.707C320.843 105.888 320.775 106.047 320.639 106.183C320.511 106.319 320.356 106.387 320.175 106.387ZM325.089 113.357C324.537 113.357 324.024 113.217 323.548 112.938C323.079 112.658 322.701 112.284 322.414 111.816C322.135 111.34 321.995 110.83 321.995 110.286C321.995 109.742 322.135 109.235 322.414 108.767C322.701 108.299 323.083 107.925 323.559 107.645C324.035 107.365 324.545 107.226 325.089 107.226C325.504 107.226 325.894 107.305 326.256 107.464C326.626 107.622 326.959 107.845 327.254 108.132L326.494 108.835C326.313 108.639 326.098 108.484 325.848 108.37C325.606 108.257 325.353 108.2 325.089 108.2C324.741 108.2 324.416 108.295 324.114 108.484C323.812 108.673 323.57 108.929 323.389 109.254C323.215 109.572 323.128 109.915 323.128 110.286C323.128 110.663 323.215 111.015 323.389 111.34C323.57 111.657 323.812 111.91 324.114 112.099C324.416 112.288 324.741 112.382 325.089 112.382C325.361 112.382 325.622 112.326 325.871 112.212C326.12 112.091 326.339 111.929 326.528 111.725L327.288 112.416C326.993 112.711 326.657 112.941 326.279 113.108C325.909 113.274 325.512 113.357 325.089 113.357ZM331.645 105.435H332.79V113.221H331.645V105.435ZM337.771 107.226C338.194 107.226 338.572 107.32 338.904 107.509C339.237 107.698 339.494 107.966 339.675 108.314C339.864 108.654 339.958 109.047 339.958 109.492V113.221H338.87V109.685C338.87 109.247 338.746 108.892 338.496 108.62C338.247 108.34 337.922 108.2 337.522 108.2C337.227 108.2 336.955 108.265 336.706 108.393C336.456 108.514 336.26 108.68 336.116 108.892C335.973 109.103 335.901 109.334 335.901 109.583V113.221H334.779V107.362H335.901V108.223C336.075 107.928 336.328 107.69 336.66 107.509C337 107.32 337.371 107.226 337.771 107.226ZM342.931 107.362H344.313V108.314H342.931V113.221H341.831V108.314H340.947V107.362H341.831V106.659C341.831 106.191 341.975 105.809 342.262 105.514C342.549 105.212 342.919 105.061 343.373 105.061C343.584 105.061 343.792 105.099 343.996 105.174C344.2 105.25 344.381 105.352 344.54 105.48L344.132 106.228C344.072 106.168 343.985 106.119 343.871 106.081C343.766 106.036 343.652 106.013 343.531 106.013C343.365 106.013 343.222 106.081 343.101 106.217C342.987 106.345 342.931 106.512 342.931 106.716V107.362ZM347.904 113.357C347.353 113.357 346.839 113.221 346.363 112.949C345.894 112.669 345.52 112.295 345.241 111.827C344.961 111.351 344.822 110.837 344.822 110.286C344.822 109.734 344.961 109.224 345.241 108.756C345.52 108.287 345.894 107.917 346.363 107.645C346.839 107.365 347.353 107.226 347.904 107.226C348.456 107.226 348.966 107.365 349.434 107.645C349.91 107.917 350.288 108.287 350.568 108.756C350.847 109.224 350.987 109.734 350.987 110.286C350.987 110.837 350.847 111.351 350.568 111.827C350.288 112.295 349.91 112.669 349.434 112.949C348.966 113.221 348.456 113.357 347.904 113.357ZM347.904 112.382C348.259 112.382 348.584 112.288 348.879 112.099C349.181 111.91 349.419 111.657 349.593 111.34C349.774 111.015 349.865 110.663 349.865 110.286C349.865 109.908 349.774 109.56 349.593 109.243C349.419 108.918 349.181 108.665 348.879 108.484C348.584 108.295 348.259 108.2 347.904 108.2C347.549 108.2 347.22 108.295 346.918 108.484C346.624 108.665 346.386 108.918 346.204 109.243C346.03 109.56 345.944 109.908 345.944 110.286C345.944 110.663 346.03 111.015 346.204 111.34C346.386 111.657 346.624 111.91 346.918 112.099C347.22 112.288 347.549 112.382 347.904 112.382ZM353.389 108.506C353.57 108.113 353.85 107.804 354.227 107.577C354.613 107.343 355.058 107.226 355.565 107.226V108.2C355.142 108.2 354.764 108.28 354.431 108.438C354.099 108.597 353.842 108.824 353.661 109.118C353.479 109.405 353.389 109.734 353.389 110.104V113.221H352.267V107.362H353.389V108.506ZM363.363 107.226C363.763 107.226 364.122 107.324 364.44 107.52C364.765 107.709 365.018 107.977 365.199 108.325C365.38 108.665 365.471 109.054 365.471 109.492V113.221H364.383V109.662C364.383 109.232 364.266 108.88 364.032 108.608C363.797 108.336 363.499 108.2 363.136 108.2C362.713 108.2 362.366 108.329 362.094 108.586C361.829 108.835 361.697 109.16 361.697 109.56V113.221H360.598V109.662C360.598 109.232 360.481 108.88 360.246 108.608C360.02 108.336 359.725 108.2 359.362 108.2C358.939 108.2 358.592 108.329 358.32 108.586C358.055 108.835 357.923 109.16 357.923 109.56V113.221H356.801V107.362H357.923V108.2C358.074 107.898 358.293 107.66 358.58 107.486C358.875 107.313 359.211 107.226 359.589 107.226C360.05 107.226 360.454 107.35 360.802 107.6C361.149 107.849 361.399 108.189 361.55 108.62C361.64 108.204 361.852 107.868 362.184 107.611C362.517 107.354 362.91 107.226 363.363 107.226ZM369.323 107.226C370.094 107.226 370.694 107.449 371.125 107.894C371.556 108.34 371.771 108.933 371.771 109.674V113.221H370.672V112.428C370.46 112.722 370.177 112.953 369.822 113.119C369.466 113.278 369.1 113.357 368.722 113.357C368.095 113.357 367.578 113.187 367.17 112.847C366.762 112.507 366.558 112.054 366.558 111.487C366.558 111.109 366.66 110.773 366.864 110.478C367.075 110.176 367.358 109.946 367.714 109.787C368.076 109.621 368.473 109.538 368.904 109.538C369.463 109.538 370.052 109.643 370.672 109.855V109.674C370.672 109.243 370.554 108.884 370.32 108.597C370.086 108.302 369.701 108.155 369.164 108.155C368.703 108.155 368.156 108.317 367.521 108.642L367.102 107.815C367.887 107.422 368.628 107.226 369.323 107.226ZM368.949 112.473C369.342 112.473 369.704 112.379 370.037 112.19C370.369 111.993 370.581 111.725 370.672 111.385V110.603C370.173 110.452 369.64 110.376 369.074 110.376C368.673 110.376 368.333 110.478 368.054 110.682C367.774 110.886 367.634 111.143 367.634 111.453C367.634 111.763 367.755 112.012 367.997 112.201C368.246 112.382 368.564 112.473 368.949 112.473ZM376.331 112.938C376.172 113.066 375.987 113.168 375.775 113.244C375.571 113.319 375.364 113.357 375.152 113.357C374.699 113.357 374.328 113.21 374.041 112.915C373.754 112.613 373.611 112.227 373.611 111.759V108.314H372.738V107.362H373.611V105.752H374.71V107.362H376.093V108.314H374.71V111.68C374.71 111.884 374.77 112.054 374.891 112.19C375.012 112.318 375.156 112.382 375.322 112.382C375.443 112.382 375.556 112.363 375.662 112.326C375.768 112.28 375.851 112.227 375.911 112.167L376.331 112.938ZM377.421 107.362H378.543V113.221H377.421V107.362ZM377.987 106.387C377.799 106.387 377.636 106.319 377.5 106.183C377.372 106.047 377.307 105.888 377.307 105.707C377.307 105.526 377.372 105.371 377.5 105.242C377.636 105.106 377.799 105.038 377.987 105.038C378.169 105.038 378.324 105.106 378.452 105.242C378.588 105.371 378.656 105.526 378.656 105.707C378.656 105.888 378.588 106.047 378.452 106.183C378.324 106.319 378.169 106.387 377.987 106.387ZM382.902 113.357C382.35 113.357 381.836 113.221 381.36 112.949C380.892 112.669 380.518 112.295 380.238 111.827C379.959 111.351 379.819 110.837 379.819 110.286C379.819 109.734 379.959 109.224 380.238 108.756C380.518 108.287 380.892 107.917 381.36 107.645C381.836 107.365 382.35 107.226 382.902 107.226C383.453 107.226 383.963 107.365 384.432 107.645C384.908 107.917 385.285 108.287 385.565 108.756C385.844 109.224 385.984 109.734 385.984 110.286C385.984 110.837 385.844 111.351 385.565 111.827C385.285 112.295 384.908 112.669 384.432 112.949C383.963 113.221 383.453 113.357 382.902 113.357ZM382.902 112.382C383.257 112.382 383.582 112.288 383.876 112.099C384.178 111.91 384.416 111.657 384.59 111.34C384.772 111.015 384.862 110.663 384.862 110.286C384.862 109.908 384.772 109.56 384.59 109.243C384.416 108.918 384.178 108.665 383.876 108.484C383.582 108.295 383.257 108.2 382.902 108.2C382.546 108.2 382.218 108.295 381.916 108.484C381.621 108.665 381.383 108.918 381.202 109.243C381.028 109.56 380.941 109.908 380.941 110.286C380.941 110.663 381.028 111.015 381.202 111.34C381.383 111.657 381.621 111.91 381.916 112.099C382.218 112.288 382.546 112.382 382.902 112.382ZM390.256 107.226C390.679 107.226 391.057 107.32 391.389 107.509C391.722 107.698 391.979 107.966 392.16 108.314C392.349 108.654 392.443 109.047 392.443 109.492V113.221H391.355V109.685C391.355 109.247 391.231 108.892 390.981 108.62C390.732 108.34 390.407 108.2 390.007 108.2C389.712 108.2 389.44 108.265 389.191 108.393C388.941 108.514 388.745 108.68 388.601 108.892C388.458 109.103 388.386 109.334 388.386 109.583V113.221H387.264V107.362H388.386V108.223C388.56 107.928 388.813 107.69 389.145 107.509C389.485 107.32 389.856 107.226 390.256 107.226Z" fill="#3A4D55"/>
<mask id="path-14-inside-2_10149_6649" fill="white">
<path d="M250.429 130.959H404.429V169.816H250.429V130.959Z"/>
</mask>
<path d="M250.429 130.959H404.429V169.816H250.429V130.959Z" fill="white"/>
<path d="M253.667 169.816V130.959H247.19V169.816H253.667Z" fill="#41800E" mask="url(#path-14-inside-2_10149_6649)"/>
<rect width="150.762" height="38.8571" transform="translate(253.667 130.959)" fill="#E0F6FF"/>
<path fill-rule="evenodd" clip-rule="evenodd" d="M266.619 144.631C263.44 144.631 260.862 147.208 260.862 150.387C260.862 153.567 263.44 156.144 266.619 156.144C269.798 156.144 272.376 153.567 272.376 150.387C272.376 148.861 271.769 147.397 270.69 146.317C269.61 145.237 268.146 144.631 266.619 144.631ZM266.619 155.425C263.837 155.425 261.582 153.169 261.582 150.387C261.582 147.606 263.837 145.35 266.619 145.35C269.401 145.35 271.656 147.606 271.656 150.387C271.656 151.723 271.125 153.005 270.181 153.949C269.236 154.894 267.955 155.425 266.619 155.425ZM269.71 148.265C269.85 148.125 270.077 148.125 270.217 148.265C270.285 148.332 270.323 148.424 270.323 148.52C270.323 148.616 270.285 148.708 270.217 148.776L265.716 153.266L263.021 150.578C262.884 150.43 262.893 150.199 263.041 150.062C263.189 149.925 263.42 149.934 263.557 150.082L265.716 152.24L269.71 148.265Z" fill="#41800E"/>
<path d="M280.405 152.947L283.261 150.589C283.775 150.159 284.141 149.766 284.361 149.411C284.587 149.056 284.701 148.701 284.701 148.345C284.701 147.937 284.557 147.613 284.27 147.371C283.983 147.121 283.635 146.997 283.227 146.997C282.819 146.997 282.453 147.095 282.128 147.291C281.803 147.488 281.497 147.775 281.21 148.153L280.439 147.473C281.165 146.468 282.109 145.965 283.273 145.965C283.756 145.965 284.194 146.064 284.587 146.26C284.988 146.457 285.301 146.736 285.528 147.099C285.762 147.454 285.879 147.862 285.879 148.323C285.879 148.844 285.739 149.331 285.46 149.785C285.18 150.238 284.708 150.737 284.043 151.281L282.219 152.822H285.947V153.887H280.405V152.947Z" fill="#3A4D55"/>
<path d="M303.635 153.023C302.925 153.023 302.26 152.842 301.641 152.479C301.021 152.109 300.526 151.614 300.156 150.995C299.786 150.375 299.601 149.707 299.601 148.989C299.601 148.271 299.786 147.606 300.156 146.994C300.526 146.375 301.021 145.883 301.641 145.521C302.26 145.151 302.925 144.965 303.635 144.965C304.187 144.965 304.712 145.075 305.211 145.294C305.709 145.506 306.144 145.804 306.514 146.189L305.709 146.96C305.437 146.665 305.12 146.435 304.757 146.269C304.402 146.103 304.028 146.019 303.635 146.019C303.129 146.019 302.653 146.155 302.207 146.427C301.769 146.699 301.418 147.062 301.153 147.515C300.896 147.969 300.768 148.46 300.768 148.989C300.768 149.518 300.896 150.013 301.153 150.473C301.418 150.927 301.769 151.289 302.207 151.561C302.653 151.833 303.129 151.969 303.635 151.969C304.028 151.969 304.402 151.886 304.757 151.72C305.12 151.554 305.437 151.323 305.709 151.029L306.514 151.799C306.136 152.185 305.698 152.487 305.199 152.706C304.701 152.918 304.179 153.023 303.635 153.023ZM310.742 146.892C311.166 146.892 311.543 146.987 311.876 147.175C312.208 147.364 312.465 147.633 312.646 147.98C312.835 148.32 312.93 148.713 312.93 149.159V152.887H311.842V149.351C311.842 148.913 311.717 148.558 311.468 148.286C311.218 148.007 310.894 147.867 310.493 147.867C310.198 147.867 309.926 147.931 309.677 148.059C309.428 148.18 309.231 148.347 309.088 148.558C308.944 148.77 308.872 149 308.872 149.249V152.887H307.75V144.965H308.872V147.889C309.046 147.595 309.299 147.357 309.632 147.175C309.972 146.987 310.342 146.892 310.742 146.892ZM316.786 146.892C317.557 146.892 318.157 147.115 318.588 147.561C319.019 148.007 319.234 148.6 319.234 149.34V152.887H318.135V152.094C317.923 152.389 317.64 152.619 317.285 152.785C316.93 152.944 316.563 153.023 316.185 153.023C315.558 153.023 315.041 152.853 314.633 152.513C314.225 152.173 314.021 151.72 314.021 151.153C314.021 150.776 314.123 150.439 314.327 150.145C314.538 149.843 314.822 149.612 315.177 149.453C315.539 149.287 315.936 149.204 316.367 149.204C316.926 149.204 317.515 149.31 318.135 149.521V149.34C318.135 148.909 318.018 148.551 317.783 148.263C317.549 147.969 317.164 147.821 316.627 147.821C316.166 147.821 315.619 147.984 314.984 148.309L314.565 147.481C315.35 147.089 316.091 146.892 316.786 146.892ZM316.412 152.139C316.805 152.139 317.168 152.045 317.5 151.856C317.832 151.66 318.044 151.391 318.135 151.051V150.269C317.636 150.118 317.103 150.043 316.537 150.043C316.136 150.043 315.796 150.145 315.517 150.349C315.237 150.553 315.097 150.81 315.097 151.119C315.097 151.429 315.218 151.679 315.46 151.867C315.709 152.049 316.027 152.139 316.412 152.139ZM321.992 148.173C322.173 147.78 322.453 147.47 322.83 147.243C323.216 147.009 323.662 146.892 324.168 146.892V147.867C323.745 147.867 323.367 147.946 323.034 148.105C322.702 148.263 322.445 148.49 322.264 148.785C322.082 149.072 321.992 149.401 321.992 149.771V152.887H320.87V147.028H321.992V148.173ZM327.625 146.892C328.396 146.892 328.997 147.115 329.427 147.561C329.858 148.007 330.073 148.6 330.073 149.34V152.887H328.974V152.094C328.763 152.389 328.479 152.619 328.124 152.785C327.769 152.944 327.403 153.023 327.025 153.023C326.398 153.023 325.88 152.853 325.472 152.513C325.064 152.173 324.86 151.72 324.86 151.153C324.86 150.776 324.962 150.439 325.166 150.145C325.378 149.843 325.661 149.612 326.016 149.453C326.379 149.287 326.775 149.204 327.206 149.204C327.765 149.204 328.355 149.31 328.974 149.521V149.34C328.974 148.909 328.857 148.551 328.623 148.263C328.389 147.969 328.003 147.821 327.467 147.821C327.006 147.821 326.458 147.984 325.823 148.309L325.404 147.481C326.19 147.089 326.93 146.892 327.625 146.892ZM327.251 152.139C327.644 152.139 328.007 152.045 328.339 151.856C328.672 151.66 328.883 151.391 328.974 151.051V150.269C328.475 150.118 327.943 150.043 327.376 150.043C326.976 150.043 326.636 150.145 326.356 150.349C326.077 150.553 325.937 150.81 325.937 151.119C325.937 151.429 326.058 151.679 326.299 151.867C326.549 152.049 326.866 152.139 327.251 152.139ZM334.316 153.023C333.764 153.023 333.251 152.884 332.775 152.604C332.306 152.325 331.928 151.951 331.641 151.482C331.362 151.006 331.222 150.496 331.222 149.952C331.222 149.408 331.362 148.902 331.641 148.433C331.928 147.965 332.31 147.591 332.786 147.311C333.262 147.032 333.772 146.892 334.316 146.892C334.731 146.892 335.121 146.971 335.483 147.13C335.853 147.289 336.186 147.512 336.481 147.799L335.721 148.501C335.54 148.305 335.325 148.15 335.075 148.037C334.833 147.923 334.58 147.867 334.316 147.867C333.968 147.867 333.643 147.961 333.341 148.15C333.039 148.339 332.797 148.596 332.616 148.921C332.442 149.238 332.355 149.582 332.355 149.952C332.355 150.33 332.442 150.681 332.616 151.006C332.797 151.323 333.039 151.577 333.341 151.765C333.643 151.954 333.968 152.049 334.316 152.049C334.588 152.049 334.849 151.992 335.098 151.879C335.347 151.758 335.566 151.595 335.755 151.391L336.515 152.083C336.22 152.377 335.884 152.608 335.506 152.774C335.136 152.94 334.739 153.023 334.316 153.023ZM340.529 152.604C340.37 152.733 340.185 152.835 339.973 152.91C339.769 152.986 339.562 153.023 339.35 153.023C338.897 153.023 338.527 152.876 338.239 152.581C337.952 152.279 337.809 151.894 337.809 151.425V147.98H336.936V147.028H337.809V145.419H338.908V147.028H340.291V147.98H338.908V151.346C338.908 151.55 338.969 151.72 339.089 151.856C339.21 151.985 339.354 152.049 339.52 152.049C339.641 152.049 339.754 152.03 339.86 151.992C339.966 151.947 340.049 151.894 340.109 151.833L340.529 152.604ZM344.169 152.094C344.486 152.094 344.807 152.03 345.132 151.901C345.465 151.773 345.722 151.614 345.903 151.425L346.56 152.117C346.311 152.389 345.96 152.608 345.506 152.774C345.06 152.94 344.622 153.023 344.192 153.023C343.655 153.023 343.153 152.891 342.684 152.627C342.223 152.362 341.853 151.996 341.574 151.527C341.302 151.051 341.166 150.523 341.166 149.941C341.166 149.367 341.298 148.849 341.562 148.388C341.827 147.92 342.182 147.553 342.628 147.289C343.081 147.024 343.576 146.892 344.112 146.892C344.702 146.892 345.208 147.032 345.631 147.311C346.062 147.591 346.386 147.988 346.606 148.501C346.832 149.015 346.946 149.62 346.946 150.315H342.265C342.333 150.844 342.537 151.274 342.877 151.607C343.224 151.932 343.655 152.094 344.169 152.094ZM344.135 147.821C343.666 147.821 343.258 147.973 342.911 148.275C342.571 148.577 342.359 148.981 342.276 149.487H345.858C345.797 148.996 345.616 148.596 345.314 148.286C345.019 147.976 344.626 147.821 344.135 147.821ZM349.301 148.173C349.482 147.78 349.761 147.47 350.139 147.243C350.525 147.009 350.97 146.892 351.477 146.892V147.867C351.053 147.867 350.676 147.946 350.343 148.105C350.011 148.263 349.754 148.49 349.573 148.785C349.391 149.072 349.301 149.401 349.301 149.771V152.887H348.179V147.028H349.301V148.173ZM352.713 147.028H353.835V152.887H352.713V147.028ZM353.28 146.053C353.091 146.053 352.928 145.985 352.792 145.849C352.664 145.713 352.6 145.555 352.6 145.373C352.6 145.192 352.664 145.037 352.792 144.909C352.928 144.773 353.091 144.705 353.28 144.705C353.461 144.705 353.616 144.773 353.744 144.909C353.88 145.037 353.948 145.192 353.948 145.373C353.948 145.555 353.88 145.713 353.744 145.849C353.616 145.985 353.461 146.053 353.28 146.053ZM357.514 153.023C357.075 153.023 356.637 152.948 356.199 152.797C355.761 152.646 355.368 152.43 355.02 152.151L355.53 151.38C355.855 151.622 356.188 151.807 356.528 151.935C356.868 152.056 357.2 152.117 357.525 152.117C357.873 152.117 358.148 152.045 358.352 151.901C358.564 151.758 358.67 151.565 358.67 151.323C358.67 151.074 358.56 150.889 358.341 150.768C358.122 150.64 357.778 150.511 357.31 150.383C356.592 150.179 356.074 149.956 355.757 149.714C355.447 149.472 355.292 149.125 355.292 148.671C355.292 148.135 355.489 147.704 355.882 147.379C356.282 147.055 356.796 146.892 357.423 146.892C357.793 146.892 358.167 146.953 358.545 147.073C358.923 147.194 359.27 147.361 359.588 147.572L359.123 148.365C358.519 147.988 357.952 147.799 357.423 147.799C357.113 147.799 356.856 147.867 356.652 148.003C356.456 148.131 356.358 148.313 356.358 148.547C356.358 148.698 356.403 148.819 356.494 148.909C356.584 149 356.72 149.083 356.902 149.159C357.083 149.227 357.366 149.321 357.752 149.442C358.175 149.571 358.519 149.695 358.783 149.816C359.055 149.929 359.282 150.099 359.463 150.326C359.644 150.553 359.735 150.847 359.735 151.21C359.735 151.762 359.527 152.204 359.112 152.536C358.704 152.861 358.171 153.023 357.514 153.023ZM363.942 152.604C363.783 152.733 363.598 152.835 363.386 152.91C363.182 152.986 362.975 153.023 362.763 153.023C362.31 153.023 361.94 152.876 361.652 152.581C361.365 152.279 361.222 151.894 361.222 151.425V147.98H360.349V147.028H361.222V145.419H362.321V147.028H363.704V147.98H362.321V151.346C362.321 151.55 362.382 151.72 362.502 151.856C362.623 151.985 362.767 152.049 362.933 152.049C363.054 152.049 363.167 152.03 363.273 151.992C363.379 151.947 363.462 151.894 363.522 151.833L363.942 152.604ZM365.032 147.028H366.154V152.887H365.032V147.028ZM365.599 146.053C365.41 146.053 365.247 145.985 365.111 145.849C364.983 145.713 364.919 145.555 364.919 145.373C364.919 145.192 364.983 145.037 365.111 144.909C365.247 144.773 365.41 144.705 365.599 144.705C365.78 144.705 365.935 144.773 366.063 144.909C366.199 145.037 366.267 145.192 366.267 145.373C366.267 145.555 366.199 145.713 366.063 145.849C365.935 145.985 365.78 146.053 365.599 146.053ZM370.513 153.023C369.961 153.023 369.447 152.884 368.971 152.604C368.503 152.325 368.125 151.951 367.838 151.482C367.558 151.006 367.419 150.496 367.419 149.952C367.419 149.408 367.558 148.902 367.838 148.433C368.125 147.965 368.507 147.591 368.983 147.311C369.459 147.032 369.969 146.892 370.513 146.892C370.928 146.892 371.317 146.971 371.68 147.13C372.05 147.289 372.383 147.512 372.677 147.799L371.918 148.501C371.737 148.305 371.521 148.15 371.272 148.037C371.03 147.923 370.777 147.867 370.513 147.867C370.165 147.867 369.84 147.961 369.538 148.15C369.236 148.339 368.994 148.596 368.813 148.921C368.639 149.238 368.552 149.582 368.552 149.952C368.552 150.33 368.639 150.681 368.813 151.006C368.994 151.323 369.236 151.577 369.538 151.765C369.84 151.954 370.165 152.049 370.513 152.049C370.785 152.049 371.045 151.992 371.295 151.879C371.544 151.758 371.763 151.595 371.952 151.391L372.711 152.083C372.417 152.377 372.08 152.608 371.703 152.774C371.332 152.94 370.936 153.023 370.513 153.023ZM375.728 153.023C375.29 153.023 374.852 152.948 374.414 152.797C373.975 152.646 373.582 152.43 373.235 152.151L373.745 151.38C374.07 151.622 374.402 151.807 374.742 151.935C375.082 152.056 375.415 152.117 375.74 152.117C376.087 152.117 376.363 152.045 376.567 151.901C376.778 151.758 376.884 151.565 376.884 151.323C376.884 151.074 376.775 150.889 376.556 150.768C376.336 150.64 375.993 150.511 375.524 150.383C374.806 150.179 374.289 149.956 373.972 149.714C373.662 149.472 373.507 149.125 373.507 148.671C373.507 148.135 373.703 147.704 374.096 147.379C374.497 147.055 375.01 146.892 375.638 146.892C376.008 146.892 376.382 146.953 376.76 147.073C377.137 147.194 377.485 147.361 377.802 147.572L377.338 148.365C376.733 147.988 376.166 147.799 375.638 147.799C375.328 147.799 375.071 147.867 374.867 148.003C374.67 148.131 374.572 148.313 374.572 148.547C374.572 148.698 374.618 148.819 374.708 148.909C374.799 149 374.935 149.083 375.116 149.159C375.298 149.227 375.581 149.321 375.966 149.442C376.389 149.571 376.733 149.695 376.998 149.816C377.27 149.929 377.496 150.099 377.678 150.326C377.859 150.553 377.95 150.847 377.95 151.21C377.95 151.762 377.742 152.204 377.326 152.536C376.918 152.861 376.386 153.023 375.728 153.023Z" fill="#3A4D55"/>
<mask id="path-19-inside-3_10149_6649" fill="white">
<path d="M250.429 170.626H404.429V209.483H250.429V170.626Z"/>
</mask>
<path d="M250.429 170.626H404.429V209.483H250.429V170.626Z" fill="white"/>
<path d="M253.667 209.483V170.626H247.19V209.483H253.667Z" fill="#41800E" mask="url(#path-19-inside-3_10149_6649)"/>
<path fill-rule="evenodd" clip-rule="evenodd" d="M266.619 184.298C263.44 184.298 260.862 186.875 260.862 190.054C260.862 193.234 263.44 195.811 266.619 195.811C269.798 195.811 272.376 193.234 272.376 190.054C272.376 188.527 271.769 187.063 270.69 185.984C269.61 184.904 268.146 184.298 266.619 184.298ZM266.619 195.091C263.837 195.091 261.582 192.836 261.582 190.054C261.582 187.272 263.837 185.017 266.619 185.017C269.401 185.017 271.656 187.272 271.656 190.054C271.656 191.39 271.125 192.671 270.181 193.616C269.236 194.561 267.955 195.091 266.619 195.091ZM269.71 187.931C269.85 187.792 270.077 187.792 270.217 187.931C270.285 187.999 270.323 188.091 270.323 188.187C270.323 188.283 270.285 188.375 270.217 188.442L265.716 192.933L263.021 190.245C262.884 190.097 262.893 189.866 263.041 189.729C263.189 189.592 263.42 189.6 263.557 189.748L265.716 191.907L269.71 187.931Z" fill="#41800E"/>
<path d="M283.106 193.69C282.472 193.69 281.901 193.569 281.395 193.328C280.896 193.086 280.488 192.765 280.171 192.364L280.908 191.605C281.18 191.93 281.501 192.187 281.871 192.376C282.241 192.564 282.645 192.659 283.084 192.659C283.582 192.659 283.983 192.538 284.285 192.296C284.587 192.054 284.738 191.737 284.738 191.344C284.738 190.944 284.576 190.642 284.251 190.438C283.934 190.226 283.484 190.124 282.902 190.132H282.052V189.112L282.902 189.123C283.409 189.123 283.813 189.017 284.115 188.806C284.425 188.594 284.58 188.296 284.58 187.91C284.58 187.548 284.429 187.249 284.126 187.015C283.824 186.781 283.446 186.664 282.993 186.664C282.608 186.664 282.256 186.754 281.939 186.936C281.622 187.109 281.319 187.366 281.032 187.706L280.318 187.004C281.021 186.089 281.939 185.632 283.072 185.632C283.594 185.632 284.055 185.723 284.455 185.904C284.863 186.086 285.177 186.339 285.396 186.664C285.622 186.981 285.736 187.344 285.736 187.752C285.736 188.205 285.596 188.586 285.316 188.896C285.044 189.206 284.689 189.429 284.251 189.565C284.704 189.671 285.093 189.882 285.418 190.2C285.743 190.509 285.906 190.917 285.906 191.424C285.906 191.862 285.789 192.255 285.554 192.602C285.32 192.942 284.991 193.21 284.568 193.407C284.145 193.596 283.658 193.69 283.106 193.69Z" fill="#3A4D55"/>
<path d="M302.683 192.679C301.406 192.679 300.341 192.263 299.487 191.432L300.167 190.582C300.93 191.308 301.784 191.67 302.729 191.67C303.242 191.67 303.643 191.557 303.93 191.33C304.217 191.096 304.361 190.813 304.361 190.48C304.361 190.133 304.21 189.868 303.907 189.687C303.613 189.498 303.114 189.324 302.411 189.166C301.822 189.03 301.338 188.875 300.961 188.701C300.59 188.527 300.3 188.297 300.088 188.01C299.876 187.722 299.771 187.356 299.771 186.91C299.771 186.48 299.888 186.09 300.122 185.743C300.356 185.395 300.677 185.123 301.085 184.927C301.501 184.73 301.966 184.632 302.479 184.632C303.046 184.632 303.56 184.727 304.021 184.916C304.489 185.104 304.92 185.376 305.313 185.732L304.655 186.593C304.323 186.291 303.964 186.056 303.579 185.89C303.201 185.724 302.816 185.641 302.423 185.641C302.143 185.641 301.89 185.694 301.663 185.8C301.437 185.905 301.259 186.049 301.131 186.23C301.002 186.412 300.938 186.604 300.938 186.808C300.938 187.042 301.01 187.235 301.153 187.386C301.297 187.537 301.501 187.666 301.765 187.772C302.037 187.87 302.411 187.976 302.887 188.089C303.756 188.293 304.41 188.561 304.848 188.894C305.294 189.226 305.517 189.717 305.517 190.367C305.517 190.813 305.407 191.209 305.188 191.557C304.969 191.904 304.644 192.18 304.213 192.384C303.79 192.581 303.28 192.679 302.683 192.679ZM309.844 192.271C309.686 192.399 309.501 192.501 309.289 192.577C309.085 192.652 308.877 192.69 308.666 192.69C308.212 192.69 307.842 192.543 307.555 192.248C307.268 191.946 307.124 191.561 307.124 191.092V187.647H306.252V186.695H307.124V185.086H308.224V186.695H309.606V187.647H308.224V191.013C308.224 191.217 308.284 191.387 308.405 191.523C308.526 191.651 308.669 191.716 308.836 191.716C308.957 191.716 309.07 191.697 309.176 191.659C309.281 191.614 309.365 191.561 309.425 191.5L309.844 192.271ZM313.156 186.559C313.926 186.559 314.527 186.782 314.958 187.228C315.388 187.673 315.604 188.266 315.604 189.007V192.554H314.504V191.761C314.293 192.056 314.01 192.286 313.654 192.452C313.299 192.611 312.933 192.69 312.555 192.69C311.928 192.69 311.41 192.52 311.002 192.18C310.594 191.84 310.39 191.387 310.39 190.82C310.39 190.442 310.492 190.106 310.696 189.812C310.908 189.509 311.191 189.279 311.546 189.12C311.909 188.954 312.306 188.871 312.736 188.871C313.296 188.871 313.885 188.977 314.504 189.188V189.007C314.504 188.576 314.387 188.217 314.153 187.93C313.919 187.636 313.534 187.488 312.997 187.488C312.536 187.488 311.988 187.651 311.354 187.976L310.934 187.148C311.72 186.755 312.461 186.559 313.156 186.559ZM312.782 191.806C313.175 191.806 313.537 191.712 313.87 191.523C314.202 191.326 314.414 191.058 314.504 190.718V189.936C314.006 189.785 313.473 189.71 312.906 189.71C312.506 189.71 312.166 189.812 311.886 190.016C311.607 190.22 311.467 190.476 311.467 190.786C311.467 191.096 311.588 191.345 311.83 191.534C312.079 191.716 312.396 191.806 312.782 191.806ZM320.164 192.271C320.005 192.399 319.82 192.501 319.608 192.577C319.404 192.652 319.196 192.69 318.985 192.69C318.532 192.69 318.161 192.543 317.874 192.248C317.587 191.946 317.444 191.561 317.444 191.092V187.647H316.571V186.695H317.444V185.086H318.543V186.695H319.926V187.647H318.543V191.013C318.543 191.217 318.603 191.387 318.724 191.523C318.845 191.651 318.989 191.716 319.155 191.716C319.276 191.716 319.389 191.697 319.495 191.659C319.601 191.614 319.684 191.561 319.744 191.5L320.164 192.271ZM323.18 192.69C322.742 192.69 322.304 192.615 321.866 192.464C321.427 192.312 321.035 192.097 320.687 191.818L321.197 191.047C321.522 191.289 321.854 191.474 322.194 191.602C322.534 191.723 322.867 191.784 323.192 191.784C323.539 191.784 323.815 191.712 324.019 191.568C324.231 191.425 324.336 191.232 324.336 190.99C324.336 190.741 324.227 190.556 324.008 190.435C323.789 190.306 323.445 190.178 322.976 190.05C322.259 189.846 321.741 189.623 321.424 189.381C321.114 189.139 320.959 188.792 320.959 188.338C320.959 187.802 321.155 187.371 321.548 187.046C321.949 186.721 322.463 186.559 323.09 186.559C323.46 186.559 323.834 186.619 324.212 186.74C324.589 186.861 324.937 187.027 325.254 187.239L324.79 188.032C324.185 187.654 323.619 187.466 323.09 187.466C322.78 187.466 322.523 187.534 322.319 187.67C322.123 187.798 322.024 187.979 322.024 188.214C322.024 188.365 322.07 188.486 322.16 188.576C322.251 188.667 322.387 188.75 322.568 188.826C322.75 188.894 323.033 188.988 323.418 189.109C323.841 189.237 324.185 189.362 324.45 189.483C324.722 189.596 324.948 189.766 325.13 189.993C325.311 190.22 325.402 190.514 325.402 190.877C325.402 191.428 325.194 191.87 324.778 192.203C324.37 192.528 323.838 192.69 323.18 192.69Z" fill="#3A4D55"/>
<g clip-path="url(#clip4_10149_6649)">
<mask id="path-24-inside-4_10149_6649" fill="white">
<path d="M250.429 210.292H404.429V249.15H250.429V210.292Z"/>
</mask>
<path d="M250.429 210.292H404.429V249.15H250.429V210.292Z" fill="white"/>
<path d="M283.983 231.43H280.118L279.994 230.512L283.768 225.435H285.128V230.422H286.25V231.43H285.128V233.221H283.983V231.43ZM283.983 230.422V226.738L281.252 230.422H283.983Z" fill="#3A4D55"/>
<path d="M299.34 224.435H300.609L302.525 230.374L304.474 224.435H305.732L307.681 230.374L309.597 224.435H310.866L308.305 232.221H307.16L305.109 226.022L303.046 232.221H301.901L299.34 224.435ZM314.595 231.428C314.912 231.428 315.233 231.363 315.558 231.235C315.891 231.107 316.147 230.948 316.329 230.759L316.986 231.45C316.737 231.722 316.385 231.941 315.932 232.108C315.486 232.274 315.048 232.357 314.617 232.357C314.081 232.357 313.579 232.225 313.11 231.96C312.649 231.696 312.279 231.329 311.999 230.861C311.727 230.385 311.591 229.856 311.591 229.274C311.591 228.7 311.724 228.183 311.988 227.722C312.253 227.253 312.608 226.887 313.053 226.622C313.507 226.358 314.002 226.226 314.538 226.226C315.127 226.226 315.634 226.365 316.057 226.645C316.487 226.925 316.812 227.321 317.031 227.835C317.258 228.349 317.371 228.953 317.371 229.648H312.691C312.759 230.177 312.963 230.608 313.303 230.94C313.65 231.265 314.081 231.428 314.595 231.428ZM314.561 227.155C314.092 227.155 313.684 227.306 313.337 227.608C312.997 227.911 312.785 228.315 312.702 228.821H316.283C316.223 228.33 316.042 227.929 315.739 227.62C315.445 227.31 315.052 227.155 314.561 227.155ZM320.826 226.226C321.596 226.226 322.197 226.449 322.628 226.894C323.058 227.34 323.274 227.933 323.274 228.674V232.221H322.174V231.428C321.963 231.722 321.68 231.953 321.324 232.119C320.969 232.278 320.603 232.357 320.225 232.357C319.598 232.357 319.08 232.187 318.672 231.847C318.264 231.507 318.06 231.054 318.06 230.487C318.06 230.109 318.162 229.773 318.366 229.478C318.578 229.176 318.861 228.946 319.216 228.787C319.579 228.621 319.976 228.538 320.406 228.538C320.966 228.538 321.555 228.643 322.174 228.855V228.674C322.174 228.243 322.057 227.884 321.823 227.597C321.589 227.302 321.204 227.155 320.667 227.155C320.206 227.155 319.658 227.317 319.024 227.642L318.604 226.815C319.39 226.422 320.131 226.226 320.826 226.226ZM320.452 231.473C320.845 231.473 321.207 231.379 321.54 231.19C321.872 230.993 322.084 230.725 322.174 230.385V229.603C321.676 229.452 321.143 229.376 320.576 229.376C320.176 229.376 319.836 229.478 319.556 229.682C319.277 229.886 319.137 230.143 319.137 230.453C319.137 230.763 319.258 231.012 319.5 231.201C319.749 231.382 320.066 231.473 320.452 231.473ZM324.91 224.299H326.032V229.365L328.899 226.362H330.259L327.732 229.014L330.146 232.221H328.808L326.972 229.762L326.032 230.714V232.221H324.91V224.299ZM334.207 226.226C334.63 226.226 335.008 226.32 335.34 226.509C335.672 226.698 335.929 226.966 336.111 227.314C336.3 227.654 336.394 228.047 336.394 228.492V232.221H335.306V228.685C335.306 228.247 335.181 227.892 334.932 227.62C334.683 227.34 334.358 227.2 333.957 227.2C333.663 227.2 333.391 227.265 333.141 227.393C332.892 227.514 332.696 227.68 332.552 227.892C332.408 228.103 332.337 228.334 332.337 228.583V232.221H331.215V226.362H332.337V227.223C332.51 226.928 332.764 226.69 333.096 226.509C333.436 226.32 333.806 226.226 334.207 226.226ZM340.579 231.428C340.896 231.428 341.217 231.363 341.542 231.235C341.875 231.107 342.132 230.948 342.313 230.759L342.97 231.45C342.721 231.722 342.37 231.941 341.916 232.108C341.47 232.274 341.032 232.357 340.602 232.357C340.065 232.357 339.563 232.225 339.094 231.96C338.633 231.696 338.263 231.329 337.984 230.861C337.712 230.385 337.576 229.856 337.576 229.274C337.576 228.7 337.708 228.183 337.972 227.722C338.237 227.253 338.592 226.887 339.038 226.622C339.491 226.358 339.986 226.226 340.522 226.226C341.112 226.226 341.618 226.365 342.041 226.645C342.472 226.925 342.796 227.321 343.016 227.835C343.242 228.349 343.356 228.953 343.356 229.648H338.675C338.743 230.177 338.947 230.608 339.287 230.94C339.634 231.265 340.065 231.428 340.579 231.428ZM340.545 227.155C340.076 227.155 339.668 227.306 339.321 227.608C338.981 227.911 338.769 228.315 338.686 228.821H342.268C342.207 228.33 342.026 227.929 341.724 227.62C341.429 227.31 341.036 227.155 340.545 227.155ZM346.515 232.357C346.077 232.357 345.639 232.281 345.201 232.13C344.762 231.979 344.369 231.764 344.022 231.484L344.532 230.714C344.857 230.955 345.189 231.141 345.529 231.269C345.869 231.39 346.202 231.45 346.527 231.45C346.874 231.45 347.15 231.379 347.354 231.235C347.565 231.091 347.671 230.899 347.671 230.657C347.671 230.408 347.562 230.223 347.343 230.102C347.123 229.973 346.78 229.845 346.311 229.716C345.593 229.512 345.076 229.289 344.759 229.048C344.449 228.806 344.294 228.458 344.294 228.005C344.294 227.469 344.49 227.038 344.883 226.713C345.284 226.388 345.797 226.226 346.425 226.226C346.795 226.226 347.169 226.286 347.547 226.407C347.924 226.528 348.272 226.694 348.589 226.906L348.125 227.699C347.52 227.321 346.953 227.132 346.425 227.132C346.115 227.132 345.858 227.2 345.654 227.336C345.457 227.465 345.359 227.646 345.359 227.88C345.359 228.031 345.405 228.152 345.495 228.243C345.586 228.334 345.722 228.417 345.903 228.492C346.085 228.56 346.368 228.655 346.753 228.776C347.176 228.904 347.52 229.029 347.785 229.15C348.057 229.263 348.283 229.433 348.465 229.66C348.646 229.886 348.737 230.181 348.737 230.544C348.737 231.095 348.529 231.537 348.113 231.87C347.705 232.195 347.173 232.357 346.515 232.357ZM351.946 232.357C351.508 232.357 351.07 232.281 350.631 232.13C350.193 231.979 349.8 231.764 349.453 231.484L349.963 230.714C350.288 230.955 350.62 231.141 350.96 231.269C351.3 231.39 351.632 231.45 351.957 231.45C352.305 231.45 352.581 231.379 352.785 231.235C352.996 231.091 353.102 230.899 353.102 230.657C353.102 230.408 352.992 230.223 352.773 230.102C352.554 229.973 352.21 229.845 351.742 229.716C351.024 229.512 350.507 229.289 350.189 229.048C349.88 228.806 349.725 228.458 349.725 228.005C349.725 227.469 349.921 227.038 350.314 226.713C350.714 226.388 351.228 226.226 351.855 226.226C352.226 226.226 352.6 226.286 352.977 226.407C353.355 226.528 353.703 226.694 354.02 226.906L353.555 227.699C352.951 227.321 352.384 227.132 351.855 227.132C351.546 227.132 351.289 227.2 351.085 227.336C350.888 227.465 350.79 227.646 350.79 227.88C350.79 228.031 350.835 228.152 350.926 228.243C351.017 228.334 351.153 228.417 351.334 228.492C351.515 228.56 351.799 228.655 352.184 228.776C352.607 228.904 352.951 229.029 353.215 229.15C353.487 229.263 353.714 229.433 353.895 229.66C354.077 229.886 354.167 230.181 354.167 230.544C354.167 231.095 353.96 231.537 353.544 231.87C353.136 232.195 352.603 232.357 351.946 232.357ZM358 231.428C358.317 231.428 358.639 231.363 358.963 231.235C359.296 231.107 359.553 230.948 359.734 230.759L360.391 231.45C360.142 231.722 359.791 231.941 359.337 232.108C358.892 232.274 358.453 232.357 358.023 232.357C357.486 232.357 356.984 232.225 356.515 231.96C356.055 231.696 355.684 231.329 355.405 230.861C355.133 230.385 354.997 229.856 354.997 229.274C354.997 228.7 355.129 228.183 355.393 227.722C355.658 227.253 356.013 226.887 356.459 226.622C356.912 226.358 357.407 226.226 357.943 226.226C358.533 226.226 359.039 226.365 359.462 226.645C359.893 226.925 360.218 227.321 360.437 227.835C360.663 228.349 360.777 228.953 360.777 229.648H356.096C356.164 230.177 356.368 230.608 356.708 230.94C357.056 231.265 357.486 231.428 358 231.428ZM357.966 227.155C357.498 227.155 357.09 227.306 356.742 227.608C356.402 227.911 356.191 228.315 356.107 228.821H359.689C359.628 228.33 359.447 227.929 359.145 227.62C358.85 227.31 358.457 227.155 357.966 227.155ZM363.936 232.357C363.498 232.357 363.06 232.281 362.622 232.13C362.184 231.979 361.791 231.764 361.443 231.484L361.953 230.714C362.278 230.955 362.61 231.141 362.95 231.269C363.29 231.39 363.623 231.45 363.948 231.45C364.295 231.45 364.571 231.379 364.775 231.235C364.987 231.091 365.092 230.899 365.092 230.657C365.092 230.408 364.983 230.223 364.764 230.102C364.545 229.973 364.201 229.845 363.732 229.716C363.015 229.512 362.497 229.289 362.18 229.048C361.87 228.806 361.715 228.458 361.715 228.005C361.715 227.469 361.912 227.038 362.304 226.713C362.705 226.388 363.219 226.226 363.846 226.226C364.216 226.226 364.59 226.286 364.968 226.407C365.346 226.528 365.693 226.694 366.01 226.906L365.546 227.699C364.941 227.321 364.375 227.132 363.846 227.132C363.536 227.132 363.279 227.2 363.075 227.336C362.879 227.465 362.78 227.646 362.78 227.88C362.78 228.031 362.826 228.152 362.916 228.243C363.007 228.334 363.143 228.417 363.324 228.492C363.506 228.56 363.789 228.655 364.174 228.776C364.598 228.904 364.941 229.029 365.206 229.15C365.478 229.263 365.704 229.433 365.886 229.66C366.067 229.886 366.158 230.181 366.158 230.544C366.158 231.095 365.95 231.537 365.534 231.87C365.126 232.195 364.594 232.357 363.936 232.357Z" fill="#3A4D55"/>
</g>
<path d="M253.667 249.15V210.292H247.19V249.15H253.667Z" fill="#F1F6F8" mask="url(#path-24-inside-4_10149_6649)"/>
<g clip-path="url(#clip5_10149_6649)">
<mask id="path-28-inside-5_10149_6649" fill="white">
<path d="M250.429 249.959H404.429V288.816H250.429V249.959Z"/>
</mask>
<path d="M250.429 249.959H404.429V288.816H250.429V249.959Z" fill="white"/>
<path d="M283.143 273.023C282.553 273.023 282.021 272.918 281.545 272.706C281.069 272.487 280.657 272.185 280.309 271.799L281.023 270.983C281.673 271.671 282.387 272.015 283.165 272.015C283.664 272.015 284.072 271.867 284.389 271.573C284.707 271.278 284.865 270.908 284.865 270.462C284.865 270.016 284.707 269.657 284.389 269.385C284.072 269.106 283.66 268.966 283.154 268.966C282.55 268.966 281.998 269.155 281.499 269.533L280.695 269.17L280.808 265.101H285.591V266.167H281.896L281.828 268.479C282.327 268.146 282.863 267.98 283.437 267.98C283.913 267.98 284.344 268.078 284.729 268.275C285.122 268.464 285.432 268.743 285.659 269.113C285.893 269.484 286.01 269.918 286.01 270.417C286.01 270.931 285.889 271.388 285.647 271.788C285.406 272.181 285.066 272.487 284.627 272.706C284.197 272.918 283.702 273.023 283.143 273.023Z" fill="#3A4D55"/>
<path d="M301.312 265.167V267.388H305.437V268.453H301.312V270.822H305.879V271.887H300.156V264.101H305.879V265.167H301.312ZM306.559 266.028H307.76L309.585 270.584L311.375 266.028H312.588L310.117 271.887H309.063L306.559 266.028ZM316.153 272.023C315.602 272.023 315.088 271.887 314.612 271.615C314.143 271.336 313.769 270.962 313.49 270.493C313.21 270.017 313.07 269.504 313.07 268.952C313.07 268.401 313.21 267.891 313.49 267.422C313.769 266.954 314.143 266.583 314.612 266.311C315.088 266.032 315.602 265.892 316.153 265.892C316.705 265.892 317.215 266.032 317.683 266.311C318.159 266.583 318.537 266.954 318.816 267.422C319.096 267.891 319.236 268.401 319.236 268.952C319.236 269.504 319.096 270.017 318.816 270.493C318.537 270.962 318.159 271.336 317.683 271.615C317.215 271.887 316.705 272.023 316.153 272.023ZM316.153 271.049C316.508 271.049 316.833 270.954 317.128 270.765C317.43 270.577 317.668 270.323 317.842 270.006C318.023 269.681 318.114 269.33 318.114 268.952C318.114 268.574 318.023 268.227 317.842 267.909C317.668 267.585 317.43 267.331 317.128 267.15C316.833 266.961 316.508 266.867 316.153 266.867C315.798 266.867 315.469 266.961 315.167 267.15C314.872 267.331 314.634 267.585 314.453 267.909C314.279 268.227 314.192 268.574 314.192 268.952C314.192 269.33 314.279 269.681 314.453 270.006C314.634 270.323 314.872 270.577 315.167 270.765C315.469 270.954 315.798 271.049 316.153 271.049ZM320.516 263.965H321.638V271.887H320.516V263.965ZM328.444 266.028V271.887H327.322V271.049C327.141 271.343 326.884 271.581 326.552 271.763C326.219 271.937 325.853 272.023 325.452 272.023C325.029 272.023 324.652 271.929 324.319 271.74C323.987 271.551 323.726 271.287 323.537 270.947C323.356 270.599 323.265 270.203 323.265 269.757V266.028H324.364V269.564C324.364 270.002 324.489 270.361 324.738 270.641C324.988 270.913 325.313 271.049 325.713 271.049C326.008 271.049 326.276 270.988 326.518 270.867C326.767 270.739 326.964 270.569 327.107 270.357C327.251 270.146 327.322 269.915 327.322 269.666V266.028H328.444ZM333.128 271.604C332.969 271.733 332.784 271.835 332.573 271.91C332.369 271.986 332.161 272.023 331.949 272.023C331.496 272.023 331.126 271.876 330.839 271.581C330.552 271.279 330.408 270.894 330.408 270.425V266.98H329.535V266.028H330.408V264.419H331.507V266.028H332.89V266.98H331.507V270.346C331.507 270.55 331.568 270.72 331.689 270.856C331.81 270.985 331.953 271.049 332.119 271.049C332.24 271.049 332.354 271.03 332.459 270.992C332.565 270.947 332.648 270.894 332.709 270.833L333.128 271.604ZM334.218 266.028H335.34V271.887H334.218V266.028ZM334.785 265.053C334.596 265.053 334.433 264.985 334.297 264.849C334.169 264.713 334.105 264.555 334.105 264.373C334.105 264.192 334.169 264.037 334.297 263.909C334.433 263.773 334.596 263.705 334.785 263.705C334.966 263.705 335.121 263.773 335.249 263.909C335.385 264.037 335.453 264.192 335.453 264.373C335.453 264.555 335.385 264.713 335.249 264.849C335.121 264.985 334.966 265.053 334.785 265.053ZM339.699 272.023C339.147 272.023 338.634 271.887 338.158 271.615C337.689 271.336 337.315 270.962 337.036 270.493C336.756 270.017 336.616 269.504 336.616 268.952C336.616 268.401 336.756 267.891 337.036 267.422C337.315 266.954 337.689 266.583 338.158 266.311C338.634 266.032 339.147 265.892 339.699 265.892C340.25 265.892 340.76 266.032 341.229 266.311C341.705 266.583 342.083 266.954 342.362 267.422C342.642 267.891 342.782 268.401 342.782 268.952C342.782 269.504 342.642 270.017 342.362 270.493C342.083 270.962 341.705 271.336 341.229 271.615C340.76 271.887 340.25 272.023 339.699 272.023ZM339.699 271.049C340.054 271.049 340.379 270.954 340.674 270.765C340.976 270.577 341.214 270.323 341.388 270.006C341.569 269.681 341.66 269.33 341.66 268.952C341.66 268.574 341.569 268.227 341.388 267.909C341.214 267.585 340.976 267.331 340.674 267.15C340.379 266.961 340.054 266.867 339.699 266.867C339.344 266.867 339.015 266.961 338.713 267.15C338.418 267.331 338.18 267.585 337.999 267.909C337.825 268.227 337.738 268.574 337.738 268.952C337.738 269.33 337.825 269.681 337.999 270.006C338.18 270.323 338.418 270.577 338.713 270.765C339.015 270.954 339.344 271.049 339.699 271.049ZM347.053 265.892C347.477 265.892 347.854 265.987 348.187 266.175C348.519 266.364 348.776 266.633 348.957 266.98C349.146 267.32 349.241 267.713 349.241 268.159V271.887H348.153V268.351C348.153 267.913 348.028 267.558 347.779 267.286C347.529 267.007 347.205 266.867 346.804 266.867C346.509 266.867 346.237 266.931 345.988 267.059C345.739 267.18 345.542 267.347 345.399 267.558C345.255 267.77 345.183 268 345.183 268.249V271.887H344.061V266.028H345.183V266.889C345.357 266.595 345.61 266.357 345.943 266.175C346.283 265.987 346.653 265.892 347.053 265.892ZM352.802 272.023C352.364 272.023 351.926 271.948 351.488 271.797C351.049 271.646 350.657 271.43 350.309 271.151L350.819 270.38C351.144 270.622 351.476 270.807 351.816 270.935C352.156 271.056 352.489 271.117 352.814 271.117C353.161 271.117 353.437 271.045 353.641 270.901C353.853 270.758 353.958 270.565 353.958 270.323C353.958 270.074 353.849 269.889 353.63 269.768C353.411 269.64 353.067 269.511 352.598 269.383C351.881 269.179 351.363 268.956 351.046 268.714C350.736 268.472 350.581 268.125 350.581 267.671C350.581 267.135 350.777 266.704 351.17 266.379C351.571 266.055 352.085 265.892 352.712 265.892C353.082 265.892 353.456 265.953 353.834 266.073C354.211 266.194 354.559 266.361 354.876 266.572L354.412 267.365C353.807 266.988 353.241 266.799 352.712 266.799C352.402 266.799 352.145 266.867 351.941 267.003C351.745 267.131 351.646 267.313 351.646 267.547C351.646 267.698 351.692 267.819 351.782 267.909C351.873 268 352.009 268.083 352.19 268.159C352.372 268.227 352.655 268.321 353.04 268.442C353.463 268.571 353.807 268.695 354.072 268.816C354.344 268.929 354.57 269.099 354.752 269.326C354.933 269.553 355.024 269.847 355.024 270.21C355.024 270.762 354.816 271.204 354.4 271.536C353.992 271.861 353.46 272.023 352.802 272.023Z" fill="#3A4D55"/>
</g>
<path d="M253.667 288.816V249.959H247.19V288.816H253.667Z" fill="#F1F6F8" mask="url(#path-28-inside-5_10149_6649)"/>
<path d="M404.643 31.8652V376.318" stroke="#CBD4D8" stroke-width="0.809524" stroke-linecap="square"/>
</g>
<g clip-path="url(#clip6_10149_6649)">
<rect width="178.905" height="58.8571" transform="translate(424.476 31.6257)" fill="white"/>
<path d="M431.098 65.2485C427.99 65.2485 425.334 62.6094 425.334 59.4847C425.334 56.3599 427.99 53.7371 431.098 53.7371C432.685 53.7371 434.158 54.4009 435.21 55.4856L434.061 56.5866C433.3 55.7771 432.248 55.2428 431.098 55.2428C428.88 55.2428 427.002 57.1856 427.002 59.4847C427.002 61.7999 428.88 63.7428 431.098 63.7428C432.248 63.7428 433.3 63.2085 434.061 62.399L435.21 63.4999C434.158 64.5685 432.685 65.2485 431.098 65.2485ZM441.205 56.4894C443.051 56.4894 444.33 57.8009 444.33 59.7275V65.0542H442.775V60.0028C442.775 58.7399 441.982 57.8818 440.849 57.8818C439.57 57.8818 438.533 58.7561 438.533 59.8571V65.0542H436.931V53.7371H438.533V57.9142C439.019 57.0723 440.055 56.4894 441.205 56.4894ZM449.792 56.4894C452.043 56.4894 453.289 57.9142 453.289 59.9866V65.0542H451.719V63.9209C451.104 64.779 449.97 65.2485 448.934 65.2485C447.169 65.2485 445.842 64.2123 445.842 62.5771C445.842 60.9094 447.348 59.7923 449.193 59.7923C450.019 59.7923 450.909 59.9704 451.719 60.2456V59.9866C451.719 58.9342 451.233 57.8171 449.566 57.8171C448.74 57.8171 447.947 58.1409 447.218 58.5132L446.619 57.3313C447.817 56.7323 448.869 56.4894 449.792 56.4894ZM449.258 63.9856C450.294 63.9856 451.444 63.4675 451.719 62.4313V61.3142C451.023 61.1037 450.262 60.9904 449.436 60.9904C448.319 60.9904 447.38 61.6218 447.38 62.5285C447.38 63.4352 448.189 63.9856 449.258 63.9856ZM457.183 58.319C457.701 57.2018 458.834 56.4894 460.291 56.4894V57.8818C458.446 57.8818 457.183 58.9828 457.183 60.6018V65.0542H455.58V56.6837H457.183V58.319ZM465.185 56.4894C467.435 56.4894 468.682 57.9142 468.682 59.9866V65.0542H467.111V63.9209C466.496 64.779 465.363 65.2485 464.327 65.2485C462.562 65.2485 461.234 64.2123 461.234 62.5771C461.234 60.9094 462.74 59.7923 464.586 59.7923C465.411 59.7923 466.302 59.9704 467.111 60.2456V59.9866C467.111 58.9342 466.626 57.8171 464.958 57.8171C464.132 57.8171 463.339 58.1409 462.61 58.5132L462.011 57.3313C463.209 56.7323 464.262 56.4894 465.185 56.4894ZM464.65 63.9856C465.687 63.9856 466.836 63.4675 467.111 62.4313V61.3142C466.415 61.1037 465.654 60.9904 464.828 60.9904C463.711 60.9904 462.772 61.6218 462.772 62.5285C462.772 63.4352 463.582 63.9856 464.65 63.9856ZM474.696 65.2485C472.3 65.2485 470.276 63.2409 470.276 60.8609C470.276 58.4809 472.316 56.4894 474.696 56.4894C475.91 56.4894 476.979 56.9913 477.789 57.7847L476.704 58.7885C476.186 58.2218 475.457 57.8818 474.696 57.8818C473.174 57.8818 471.895 59.2418 471.895 60.8609C471.895 62.4961 473.174 63.8561 474.696 63.8561C475.473 63.8561 476.218 63.4999 476.752 62.9171L477.837 63.9047C477.028 64.7304 475.943 65.2485 474.696 65.2485ZM482.926 63.5485L483.526 64.6494C483.072 65.0218 482.441 65.2485 481.842 65.2485C480.546 65.2485 479.64 64.3094 479.64 62.9656V58.0437H478.393V56.6837H479.64V54.3847H481.21V56.6837H483.186V58.0437H481.21V62.8523C481.21 63.4352 481.615 63.8561 482.085 63.8561C482.441 63.8561 482.765 63.7266 482.926 63.5485ZM488.679 63.9209C489.586 63.9209 490.638 63.5161 491.157 62.9656L492.096 63.9532C491.367 64.7466 489.894 65.2485 488.712 65.2485C486.397 65.2485 484.389 63.419 484.389 60.8447C484.389 58.3352 486.283 56.4894 488.598 56.4894C491.157 56.4894 492.646 58.3999 492.646 61.379H485.959C486.154 62.8523 487.19 63.9209 488.679 63.9209ZM488.631 57.8171C487.287 57.8171 486.218 58.7561 485.976 60.1971H491.092C490.93 58.8532 490.088 57.8171 488.631 57.8171ZM495.964 58.319C496.482 57.2018 497.616 56.4894 499.073 56.4894V57.8818C497.227 57.8818 495.964 58.9828 495.964 60.6018V65.0542H494.361V56.6837H495.964V58.319ZM501.602 55.2913C501.068 55.2913 500.631 54.838 500.631 54.3199C500.631 53.818 501.068 53.3647 501.602 53.3647C502.136 53.3647 502.557 53.818 502.557 54.3199C502.557 54.838 502.136 55.2913 501.602 55.2913ZM500.793 65.0542V56.6837H502.395V65.0542H500.793ZM507.605 65.2485C506.374 65.2485 505.046 64.8113 504.043 64.0018L504.771 62.9009C505.694 63.5809 506.698 63.9532 507.621 63.9532C508.625 63.9532 509.256 63.4999 509.256 62.8199C509.256 62.0266 508.382 61.7675 507.313 61.4761C505.403 60.9418 504.431 60.3913 504.431 59.0313C504.431 57.4932 505.71 56.4894 507.475 56.4894C508.56 56.4894 509.677 56.8618 510.567 57.4609L509.904 58.5942C509.078 58.0761 508.236 57.7847 507.475 57.7847C506.633 57.7847 505.953 58.1571 505.953 58.8532C505.953 59.5009 506.52 59.6952 507.945 60.1323C509.321 60.5371 510.778 60.9904 510.778 62.658C510.778 64.2447 509.45 65.2485 507.605 65.2485ZM516.142 63.5485L516.741 64.6494C516.288 65.0218 515.657 65.2485 515.057 65.2485C513.762 65.2485 512.856 64.3094 512.856 62.9656V58.0437H511.609V56.6837H512.856V54.3847H514.426V56.6837H516.401V58.0437H514.426V62.8523C514.426 63.4352 514.831 63.8561 515.3 63.8561C515.657 63.8561 515.98 63.7266 516.142 63.5485ZM519.062 55.2913C518.528 55.2913 518.09 54.838 518.09 54.3199C518.09 53.818 518.528 53.3647 519.062 53.3647C519.596 53.3647 520.017 53.818 520.017 54.3199C520.017 54.838 519.596 55.2913 519.062 55.2913ZM518.252 65.0542V56.6837H519.855V65.0542H518.252ZM526.036 65.2485C523.64 65.2485 521.616 63.2409 521.616 60.8609C521.616 58.4809 523.656 56.4894 526.036 56.4894C527.25 56.4894 528.319 56.9913 529.128 57.7847L528.043 58.7885C527.525 58.2218 526.797 57.8818 526.036 57.8818C524.514 57.8818 523.235 59.2418 523.235 60.8609C523.235 62.4961 524.514 63.8561 526.036 63.8561C526.813 63.8561 527.558 63.4999 528.092 62.9171L529.177 63.9047C528.367 64.7304 527.282 65.2485 526.036 65.2485ZM533.44 65.2485C532.21 65.2485 530.882 64.8113 529.878 64.0018L530.607 62.9009C531.53 63.5809 532.534 63.9532 533.457 63.9532C534.46 63.9532 535.092 63.4999 535.092 62.8199C535.092 62.0266 534.218 61.7675 533.149 61.4761C531.238 60.9418 530.267 60.3913 530.267 59.0313C530.267 57.4932 531.546 56.4894 533.311 56.4894C534.396 56.4894 535.513 56.8618 536.403 57.4609L535.739 58.5942C534.914 58.0761 534.072 57.7847 533.311 57.7847C532.469 57.7847 531.789 58.1571 531.789 58.8532C531.789 59.5009 532.356 59.6952 533.78 60.1323C535.157 60.5371 536.614 60.9904 536.614 62.658C536.614 64.2447 535.286 65.2485 533.44 65.2485Z" fill="#22343C"/>
</g>
<path d="M668.904 61.0543L673.378 56.5803C673.561 56.3662 673.549 56.047 673.35 55.8477C673.15 55.6483 672.831 55.636 672.617 55.8194L668.143 60.2934L663.669 55.814C663.457 55.6024 663.114 55.6024 662.903 55.814C662.691 56.0256 662.691 56.3687 662.903 56.5803L667.382 61.0543L662.903 65.5283C662.749 65.6602 662.681 65.8673 662.729 66.0644C662.776 66.2616 662.93 66.4155 663.127 66.4629C663.325 66.5103 663.532 66.4432 663.664 66.2892L668.143 61.8153L672.617 66.2892C672.831 66.4726 673.15 66.4603 673.35 66.2609C673.549 66.0616 673.561 65.7424 673.378 65.5283L668.904 61.0543Z" fill="#3A4D55"/>
<path d="M430.548 96.7531H431.611V103.983H430.548V100.794H426.613V103.983H425.55V96.7531H426.613V99.805H430.548V96.7531ZM433.68 103.983V96.7531H436.722C438.237 96.7531 439.405 97.7318 439.405 99.1104C439.405 100.489 438.237 101.468 436.722 101.468H434.743V103.983H433.68ZM434.743 100.478H436.564C437.606 100.478 438.321 99.9628 438.321 99.1104C438.321 98.258 437.606 97.7423 436.564 97.7423H434.743V100.478Z" fill="black"/>
<mask id="path-36-inside-6_10149_6649" fill="white">
<path d="M477.905 90.4829H607.429V110.483H477.905V90.4829Z"/>
</mask>
<path d="M607.429 109.673H477.905V111.292H607.429V109.673Z" fill="#67777E" mask="url(#path-36-inside-6_10149_6649)"/>
<path d="M486.349 102.704H490.295V103.483H485.528V96.2531H486.349V102.704ZM493.728 103.609C492.181 103.609 490.919 102.325 490.919 100.757C490.919 99.1892 492.181 97.9158 493.728 97.9158C495.265 97.9158 496.528 99.1892 496.528 100.757C496.528 102.325 495.265 103.609 493.728 103.609ZM493.728 102.904C494.812 102.904 495.707 101.936 495.707 100.757C495.707 99.5786 494.812 98.6209 493.728 98.6209C492.634 98.6209 491.739 99.5786 491.739 100.757C491.739 101.936 492.634 102.904 493.728 102.904ZM499.311 103.483L496.996 98.0421H497.88L499.69 102.557L501.469 98.0421H502.353L500.069 103.483H499.311ZM505.59 102.904C506.232 102.904 506.968 102.62 507.305 102.252L507.789 102.767C507.316 103.283 506.358 103.609 505.6 103.609C504.148 103.609 502.843 102.42 502.843 100.747C502.843 99.1261 504.064 97.9158 505.527 97.9158C507.168 97.9158 508.105 99.1576 508.105 101.062H503.653C503.769 102.125 504.516 102.904 505.59 102.904ZM505.558 98.6209C504.59 98.6209 503.811 99.305 503.664 100.357H507.326C507.221 99.3786 506.642 98.6209 505.558 98.6209ZM511.034 103.609C510.276 103.609 509.434 103.325 508.782 102.799L509.192 102.22C509.813 102.673 510.434 102.904 511.034 102.904C511.75 102.904 512.234 102.567 512.234 102.052C512.234 101.462 511.602 101.273 510.866 101.062C509.55 100.684 509.045 100.294 509.045 99.5154C509.045 98.5262 509.866 97.9158 510.95 97.9158C511.623 97.9158 512.318 98.1473 512.897 98.5262L512.518 99.1366C511.971 98.7893 511.434 98.6209 510.95 98.6209C510.339 98.6209 509.834 98.8945 509.834 99.4207C509.834 99.8943 510.234 100.042 511.244 100.368C512.118 100.641 513.023 100.936 513.023 101.967C513.023 102.967 512.16 103.609 511.034 103.609ZM519.217 102.683L519.606 103.262C519.322 103.483 518.964 103.609 518.596 103.609C517.817 103.609 517.27 103.03 517.27 102.22V98.7472H516.417V98.0421H517.27V96.5477H518.059V98.0421H519.396V98.7472H518.059V102.22C518.059 102.62 518.333 102.904 518.648 102.904C518.89 102.904 519.101 102.809 519.217 102.683ZM522.995 103.609C521.448 103.609 520.185 102.325 520.185 100.757C520.185 99.1892 521.448 97.9158 522.995 97.9158C524.532 97.9158 525.794 99.1892 525.794 100.757C525.794 102.325 524.532 103.609 522.995 103.609ZM522.995 102.904C524.079 102.904 524.974 101.936 524.974 100.757C524.974 99.5786 524.079 98.6209 522.995 98.6209C521.901 98.6209 521.006 99.5786 521.006 100.757C521.006 101.936 521.901 102.904 522.995 102.904ZM532.184 102.904C532.826 102.904 533.563 102.62 533.9 102.252L534.384 102.767C533.91 103.283 532.953 103.609 532.195 103.609C530.743 103.609 529.438 102.42 529.438 100.747C529.438 99.1261 530.658 97.9158 532.121 97.9158C533.763 97.9158 534.7 99.1576 534.7 101.062H530.248C530.364 102.125 531.111 102.904 532.184 102.904ZM532.153 98.6209C531.185 98.6209 530.406 99.305 530.259 100.357H533.921C533.816 99.3786 533.237 98.6209 532.153 98.6209ZM537.892 97.9158C539.376 97.9158 540.102 98.8524 540.102 100.168V103.483H539.312V102.63C538.923 103.272 538.113 103.609 537.397 103.609C536.25 103.609 535.408 102.946 535.408 101.873C535.408 100.789 536.376 100.063 537.544 100.063C538.134 100.063 538.755 100.189 539.312 100.368V100.168C539.312 99.4312 539.018 98.5893 537.839 98.5893C537.292 98.5893 536.745 98.8314 536.25 99.084L535.934 98.442C536.713 98.0526 537.365 97.9158 537.892 97.9158ZM537.534 102.915C538.249 102.915 539.102 102.546 539.312 101.778V100.947C538.818 100.81 538.26 100.726 537.671 100.726C536.86 100.726 536.176 101.189 536.176 101.841C536.176 102.515 536.766 102.915 537.534 102.915ZM543.827 102.683L544.216 103.262C543.932 103.483 543.574 103.609 543.206 103.609C542.427 103.609 541.88 103.03 541.88 102.22V98.7472H541.027V98.0421H541.88V96.5477H542.669V98.0421H544.005V98.7472H542.669V102.22C542.669 102.62 542.943 102.904 543.258 102.904C543.5 102.904 543.711 102.809 543.827 102.683Z" fill="#4F6169"/>
<path d="M430.948 139.79L430.306 138.285H426.56L425.918 139.79H424.739L427.844 132.56H429.022L432.127 139.79H430.948ZM426.96 137.359H429.906L428.433 133.928L426.96 137.359ZM435.487 138.811L435.876 139.526C435.582 139.769 435.171 139.916 434.782 139.916C433.94 139.916 433.351 139.305 433.351 138.432V135.233H432.54V134.349H433.351V132.854H434.371V134.349H435.655V135.233H434.371V138.358C434.371 138.737 434.634 139.011 434.94 139.011C435.171 139.011 435.382 138.927 435.487 138.811ZM439.208 138.811L439.598 139.526C439.303 139.769 438.893 139.916 438.503 139.916C437.661 139.916 437.072 139.305 437.072 138.432V135.233H436.262V134.349H437.072V132.854H438.093V134.349H439.377V135.233H438.093V138.358C438.093 138.737 438.356 139.011 438.661 139.011C438.893 139.011 439.103 138.927 439.208 138.811ZM442.667 134.222C444.13 134.222 444.94 135.149 444.94 136.496V139.79H443.919V139.053C443.519 139.611 442.783 139.916 442.109 139.916C440.962 139.916 440.099 139.242 440.099 138.179C440.099 137.095 441.078 136.369 442.278 136.369C442.814 136.369 443.393 136.485 443.919 136.664V136.496C443.919 135.812 443.604 135.085 442.52 135.085C441.983 135.085 441.467 135.296 440.994 135.538L440.604 134.77C441.383 134.38 442.067 134.222 442.667 134.222ZM442.32 139.095C442.993 139.095 443.74 138.758 443.919 138.085V137.359C443.467 137.222 442.972 137.148 442.435 137.148C441.709 137.148 441.099 137.559 441.099 138.148C441.099 138.737 441.625 139.095 442.32 139.095ZM448.874 139.916C447.316 139.916 446.001 138.611 446.001 137.064C446.001 135.517 447.327 134.222 448.874 134.222C449.663 134.222 450.358 134.549 450.884 135.064L450.179 135.717C449.842 135.349 449.368 135.128 448.874 135.128C447.884 135.128 447.053 136.012 447.053 137.064C447.053 138.127 447.884 139.011 448.874 139.011C449.379 139.011 449.863 138.779 450.21 138.4L450.915 139.042C450.389 139.579 449.684 139.916 448.874 139.916ZM451.922 139.79V132.433H452.964V137.138L455.626 134.349H456.889L454.542 136.811L456.784 139.79H455.542L453.837 137.506L452.964 138.39V139.79H451.922Z" fill="black"/>
<mask id="path-40-inside-7_10149_6649" fill="white">
<path d="M477.905 126.29H607.429V146.29H477.905V126.29Z"/>
</mask>
<path d="M607.429 145.48H477.905V147.099H607.429V145.48Z" fill="#67777E" mask="url(#path-40-inside-7_10149_6649)"/>
<path d="M486.349 138.511H490.295V139.29H485.528V132.06H486.349V138.511ZM491.792 132.86C491.497 132.86 491.266 132.617 491.266 132.333C491.266 132.06 491.497 131.818 491.792 131.818C492.076 131.818 492.308 132.06 492.308 132.333C492.308 132.617 492.076 132.86 491.792 132.86ZM491.392 139.29V133.849H492.181V139.29H491.392ZM493.932 139.29V131.933H494.721V136.859L497.699 133.849H498.71L496.258 136.343L498.573 139.29H497.584L495.7 136.88L494.721 137.848V139.29H493.932ZM501.921 138.711C502.563 138.711 503.3 138.427 503.636 138.058L504.12 138.574C503.647 139.09 502.689 139.416 501.931 139.416C500.479 139.416 499.174 138.227 499.174 136.553C499.174 134.933 500.395 133.722 501.858 133.722C503.499 133.722 504.436 134.964 504.436 136.869H499.985C500.1 137.932 500.847 138.711 501.921 138.711ZM501.889 134.428C500.921 134.428 500.142 135.112 499.995 136.164H503.657C503.552 135.185 502.973 134.428 501.889 134.428ZM507.365 139.416C506.607 139.416 505.765 139.132 505.113 138.606L505.523 138.027C506.144 138.479 506.765 138.711 507.365 138.711C508.081 138.711 508.565 138.374 508.565 137.858C508.565 137.269 507.933 137.08 507.197 136.869C505.881 136.49 505.376 136.101 505.376 135.322C505.376 134.333 506.197 133.722 507.281 133.722C507.954 133.722 508.649 133.954 509.228 134.333L508.849 134.943C508.302 134.596 507.765 134.428 507.281 134.428C506.67 134.428 506.165 134.701 506.165 135.227C506.165 135.701 506.565 135.848 507.576 136.175C508.449 136.448 509.354 136.743 509.354 137.774C509.354 138.774 508.491 139.416 507.365 139.416ZM515.548 138.49L515.937 139.069C515.653 139.29 515.295 139.416 514.927 139.416C514.148 139.416 513.601 138.837 513.601 138.027V134.554H512.748V133.849H513.601V132.354H514.39V133.849H515.727V134.554H514.39V138.027C514.39 138.427 514.664 138.711 514.979 138.711C515.222 138.711 515.432 138.616 515.548 138.49ZM519.326 139.416C517.779 139.416 516.516 138.132 516.516 136.564C516.516 134.996 517.779 133.722 519.326 133.722C520.863 133.722 522.126 134.996 522.126 136.564C522.126 138.132 520.863 139.416 519.326 139.416ZM519.326 138.711C520.41 138.711 521.305 137.743 521.305 136.564C521.305 135.385 520.41 134.428 519.326 134.428C518.232 134.428 517.337 135.385 517.337 136.564C517.337 137.743 518.232 138.711 519.326 138.711ZM527.2 133.102V133.849H528.537V134.554H527.2V139.29H526.411V134.554H525.558V133.849H526.411V133.102C526.411 132.291 526.958 131.712 527.737 131.712C528.105 131.712 528.463 131.839 528.747 132.06L528.358 132.639C528.242 132.512 528.031 132.418 527.789 132.418C527.474 132.418 527.2 132.702 527.2 133.102ZM529.88 132.86C529.586 132.86 529.354 132.617 529.354 132.333C529.354 132.06 529.586 131.818 529.88 131.818C530.164 131.818 530.396 132.06 530.396 132.333C530.396 132.617 530.164 132.86 529.88 132.86ZM529.48 139.29V133.849H530.27V139.29H529.48ZM536.03 133.849H536.819V138.711C536.819 140.11 535.714 141.1 534.146 141.1C533.262 141.1 532.441 140.794 531.946 140.374L532.294 139.753C532.715 140.153 533.367 140.395 534.041 140.395C535.293 140.395 536.03 139.774 536.03 138.711V137.827C535.609 138.49 534.914 138.89 534.051 138.89C532.588 138.89 531.547 137.816 531.547 136.301C531.547 134.785 532.588 133.722 534.051 133.722C534.914 133.722 535.609 134.122 536.03 134.785V133.849ZM534.199 138.185C535.272 138.185 536.03 137.406 536.03 136.301C536.03 135.206 535.272 134.428 534.199 134.428C533.136 134.428 532.378 135.206 532.378 136.301C532.378 137.406 533.136 138.185 534.199 138.185ZM541.146 133.722C542.357 133.722 543.188 134.575 543.188 135.827V139.29H542.399V135.932C542.399 135.038 541.841 134.428 541.041 134.428C540.115 134.428 539.357 135.059 539.357 135.827V139.29H538.568V131.933H539.357V134.712C539.673 134.133 540.368 133.722 541.146 133.722ZM546.912 138.49L547.302 139.069C547.017 139.29 546.66 139.416 546.291 139.416C545.513 139.416 544.965 138.837 544.965 138.027V134.554H544.113V133.849H544.965V132.354H545.755V133.849H547.091V134.554H545.755V138.027C545.755 138.427 546.028 138.711 546.344 138.711C546.586 138.711 546.796 138.616 546.912 138.49Z" fill="#4F6169"/>
<path d="M425.55 175.596V168.366H428.044C430.38 168.366 432.032 169.861 432.032 171.976C432.032 174.091 430.38 175.596 428.044 175.596H425.55ZM426.613 174.628H428.107C429.77 174.628 430.948 173.534 430.948 171.976C430.948 170.429 429.77 169.335 428.107 169.335H426.613V174.628ZM435.734 174.86C436.324 174.86 437.008 174.596 437.345 174.239L437.955 174.881C437.481 175.396 436.524 175.722 435.756 175.722C434.251 175.722 432.946 174.533 432.946 172.86C432.946 171.229 434.177 170.029 435.682 170.029C437.345 170.029 438.313 171.271 438.313 173.207H433.966C434.093 174.165 434.766 174.86 435.734 174.86ZM435.703 170.892C434.829 170.892 434.135 171.502 433.977 172.439H437.303C437.197 171.566 436.65 170.892 435.703 170.892ZM440.694 169.556V170.155H441.978V171.039H440.694V175.596H439.673V171.039H438.852V170.155H439.673V169.503C439.673 168.629 440.262 168.019 441.104 168.019C441.494 168.019 441.893 168.166 442.188 168.408L441.809 169.103C441.694 168.987 441.483 168.903 441.252 168.903C440.946 168.903 440.694 169.177 440.694 169.556ZM445.254 174.86C445.843 174.86 446.527 174.596 446.864 174.239L447.474 174.881C447.001 175.396 446.043 175.722 445.275 175.722C443.77 175.722 442.465 174.533 442.465 172.86C442.465 171.229 443.696 170.029 445.201 170.029C446.864 170.029 447.832 171.271 447.832 173.207H443.486C443.612 174.165 444.285 174.86 445.254 174.86ZM445.222 170.892C444.349 170.892 443.654 171.502 443.496 172.439H446.822C446.716 171.566 446.169 170.892 445.222 170.892ZM451.749 170.029C452.949 170.029 453.781 170.882 453.781 172.134V175.596H452.77V172.313C452.77 171.492 452.255 170.934 451.518 170.934C450.687 170.934 450.013 171.502 450.013 172.218V175.596H448.971V170.155H450.013V170.955C450.329 170.408 451.002 170.029 451.749 170.029ZM457.082 175.722C456.282 175.722 455.419 175.438 454.767 174.912L455.24 174.197C455.84 174.639 456.493 174.881 457.092 174.881C457.745 174.881 458.155 174.586 458.155 174.144C458.155 173.628 457.587 173.46 456.892 173.27C455.651 172.923 455.019 172.565 455.019 171.681C455.019 170.682 455.851 170.029 456.998 170.029C457.703 170.029 458.429 170.271 459.008 170.661L458.576 171.397C458.04 171.06 457.492 170.871 456.998 170.871C456.45 170.871 456.008 171.113 456.008 171.566C456.008 171.987 456.377 172.113 457.303 172.397C458.197 172.66 459.145 172.955 459.145 174.039C459.145 175.07 458.282 175.722 457.082 175.722ZM462.698 174.86C463.287 174.86 463.971 174.596 464.308 174.239L464.918 174.881C464.445 175.396 463.487 175.722 462.719 175.722C461.214 175.722 459.909 174.533 459.909 172.86C459.909 171.229 461.14 170.029 462.645 170.029C464.308 170.029 465.276 171.271 465.276 173.207H460.93C461.056 174.165 461.73 174.86 462.698 174.86ZM462.666 170.892C461.793 170.892 461.098 171.502 460.94 172.439H464.266C464.161 171.566 463.613 170.892 462.666 170.892Z" fill="black"/>
<mask id="path-44-inside-8_10149_6649" fill="white">
<path d="M477.905 162.096H607.429V182.096H477.905V162.096Z"/>
</mask>
<path d="M607.429 181.287H477.905V182.906H607.429V181.287Z" fill="#67777E" mask="url(#path-44-inside-8_10149_6649)"/>
<path d="M488.591 172.065V171.287H491.485V174.117C490.811 174.791 489.674 175.222 488.675 175.222C486.675 175.222 484.97 173.507 484.97 171.476C484.97 169.445 486.675 167.74 488.675 167.74C489.674 167.74 490.811 168.161 491.485 168.845L490.927 169.413C490.401 168.856 489.464 168.498 488.675 168.498C487.117 168.498 485.802 169.866 485.802 171.476C485.802 173.097 487.117 174.465 488.675 174.465C489.348 174.465 490.127 174.202 490.664 173.791V172.065H488.591ZM495.445 175.222C493.898 175.222 492.635 173.939 492.635 172.371C492.635 170.802 493.898 169.529 495.445 169.529C496.981 169.529 498.244 170.802 498.244 172.371C498.244 173.939 496.981 175.222 495.445 175.222ZM495.445 174.517C496.529 174.517 497.423 173.549 497.423 172.371C497.423 171.192 496.529 170.234 495.445 170.234C494.35 170.234 493.456 171.192 493.456 172.371C493.456 173.549 494.35 174.517 495.445 174.517ZM501.859 175.222C500.312 175.222 499.049 173.939 499.049 172.371C499.049 170.802 500.312 169.529 501.859 169.529C503.395 169.529 504.658 170.802 504.658 172.371C504.658 173.939 503.395 175.222 501.859 175.222ZM501.859 174.517C502.943 174.517 503.837 173.549 503.837 172.371C503.837 171.192 502.943 170.234 501.859 170.234C500.764 170.234 499.87 171.192 499.87 172.371C499.87 173.549 500.764 174.517 501.859 174.517ZM509.999 167.74H510.788V175.096H509.999V174.075C509.589 174.791 508.894 175.222 508.021 175.222C506.589 175.222 505.516 174.044 505.516 172.371C505.516 170.708 506.589 169.529 508.021 169.529C508.894 169.529 509.589 169.961 509.999 170.676V167.74ZM508.168 174.517C509.241 174.517 509.999 173.623 509.999 172.371C509.999 171.118 509.241 170.234 508.168 170.234C507.105 170.234 506.347 171.118 506.347 172.371C506.347 173.623 507.105 174.517 508.168 174.517ZM517.647 174.517C518.289 174.517 519.026 174.233 519.363 173.865L519.847 174.381C519.373 174.896 518.416 175.222 517.658 175.222C516.206 175.222 514.901 174.033 514.901 172.36C514.901 170.739 516.122 169.529 517.584 169.529C519.226 169.529 520.163 170.771 520.163 172.676H515.711C515.827 173.739 516.574 174.517 517.647 174.517ZM517.616 170.234C516.648 170.234 515.869 170.918 515.722 171.971H519.384C519.279 170.992 518.7 170.234 517.616 170.234ZM523.986 169.529C525.196 169.529 526.028 170.382 526.028 171.634V175.096H525.238V171.739C525.238 170.845 524.681 170.234 523.881 170.234C522.955 170.234 522.197 170.866 522.197 171.634V175.096H521.408V169.655H522.197V170.518C522.513 169.94 523.207 169.529 523.986 169.529ZM531.709 167.74H532.499V175.096H531.709V174.075C531.299 174.791 530.604 175.222 529.731 175.222C528.3 175.222 527.226 174.044 527.226 172.371C527.226 170.708 528.3 169.529 529.731 169.529C530.604 169.529 531.299 169.961 531.709 170.676V167.74ZM529.878 174.517C530.952 174.517 531.709 173.623 531.709 172.371C531.709 171.118 530.952 170.234 529.878 170.234C528.815 170.234 528.058 171.118 528.058 172.371C528.058 173.623 528.815 174.517 529.878 174.517ZM537.951 169.655H538.74V175.096H537.951V174.233C537.635 174.812 536.941 175.222 536.162 175.222C534.952 175.222 534.12 174.37 534.12 173.118V169.655H534.91V173.012C534.91 173.907 535.467 174.517 536.267 174.517C537.193 174.517 537.951 173.886 537.951 173.118V169.655ZM541.275 170.718C541.602 169.992 542.38 169.529 543.38 169.529V170.234C542.149 170.234 541.275 170.992 541.275 172.055V175.096H540.486V169.655H541.275V170.718ZM546.524 169.529C548.008 169.529 548.734 170.466 548.734 171.781V175.096H547.945V174.244C547.556 174.886 546.745 175.222 546.03 175.222C544.883 175.222 544.041 174.559 544.041 173.486C544.041 172.402 545.009 171.676 546.177 171.676C546.767 171.676 547.387 171.802 547.945 171.981V171.781C547.945 171.045 547.651 170.203 546.472 170.203C545.925 170.203 545.377 170.445 544.883 170.697L544.567 170.055C545.346 169.666 545.998 169.529 546.524 169.529ZM546.167 174.528C546.882 174.528 547.735 174.16 547.945 173.391V172.56C547.451 172.423 546.893 172.339 546.303 172.339C545.493 172.339 544.809 172.802 544.809 173.454C544.809 174.128 545.398 174.528 546.167 174.528ZM552.933 169.529C554.143 169.529 554.975 170.382 554.975 171.634V175.096H554.185V171.739C554.185 170.845 553.628 170.234 552.828 170.234C551.902 170.234 551.144 170.866 551.144 171.634V175.096H550.355V169.655H551.144V170.518C551.46 169.94 552.154 169.529 552.933 169.529ZM558.93 175.222C557.404 175.222 556.11 173.918 556.11 172.371C556.11 170.824 557.404 169.529 558.93 169.529C559.667 169.529 560.351 169.834 560.867 170.329L560.32 170.866C559.962 170.476 559.467 170.234 558.93 170.234C557.846 170.234 556.941 171.213 556.941 172.371C556.941 173.539 557.846 174.517 558.93 174.517C559.478 174.517 559.983 174.265 560.351 173.854L560.898 174.391C560.383 174.907 559.688 175.222 558.93 175.222ZM564.265 174.517C564.906 174.517 565.643 174.233 565.98 173.865L566.464 174.381C565.99 174.896 565.033 175.222 564.275 175.222C562.823 175.222 561.518 174.033 561.518 172.36C561.518 170.739 562.739 169.529 564.201 169.529C565.843 169.529 566.78 170.771 566.78 172.676H562.328C562.444 173.739 563.191 174.517 564.265 174.517ZM564.233 170.234C563.265 170.234 562.486 170.918 562.339 171.971H566.001C565.896 170.992 565.317 170.234 564.233 170.234Z" fill="#4F6169"/>
<path d="M427.896 211.519C426.686 211.519 425.686 211.098 424.929 210.361L425.56 209.572C426.202 210.182 426.96 210.582 427.939 210.582C428.938 210.582 429.454 210.056 429.454 209.477C429.454 208.793 428.854 208.53 427.644 208.256C426.171 207.909 425.192 207.467 425.192 206.162C425.192 204.952 426.244 204.047 427.707 204.047C428.812 204.047 429.643 204.447 430.338 205.067L429.728 205.867C429.117 205.31 428.391 204.983 427.654 204.983C426.844 204.983 426.276 205.488 426.276 206.067C426.276 206.741 426.897 206.972 428.086 207.256C429.528 207.593 430.527 208.077 430.527 209.372C430.527 210.592 429.601 211.519 427.896 211.519ZM434.793 205.836C436.235 205.836 437.297 207.014 437.297 208.677C437.297 210.35 436.235 211.529 434.793 211.529C433.961 211.529 433.288 211.129 432.867 210.466V213.213H431.825V205.962H432.867V206.888C433.288 206.236 433.961 205.836 434.793 205.836ZM434.551 210.624C435.54 210.624 436.245 209.814 436.245 208.677C436.245 207.541 435.54 206.741 434.551 206.741C433.561 206.741 432.867 207.541 432.867 208.677C432.867 209.814 433.561 210.624 434.551 210.624ZM440.895 210.666C441.484 210.666 442.168 210.403 442.505 210.045L443.115 210.687C442.642 211.203 441.684 211.529 440.916 211.529C439.411 211.529 438.106 210.34 438.106 208.667C438.106 207.035 439.337 205.836 440.842 205.836C442.505 205.836 443.473 207.078 443.473 209.014H439.127C439.253 209.972 439.927 210.666 440.895 210.666ZM440.863 206.699C439.99 206.699 439.295 207.309 439.137 208.246H442.463C442.358 207.372 441.81 206.699 440.863 206.699ZM446.98 210.666C447.57 210.666 448.254 210.403 448.59 210.045L449.201 210.687C448.727 211.203 447.77 211.529 447.001 211.529C445.496 211.529 444.191 210.34 444.191 208.667C444.191 207.035 445.423 205.836 446.928 205.836C448.59 205.836 449.559 207.078 449.559 209.014H445.212C445.339 209.972 446.012 210.666 446.98 210.666ZM446.949 206.699C446.075 206.699 445.381 207.309 445.223 208.246H448.548C448.443 207.372 447.896 206.699 446.949 206.699ZM454.739 204.047H455.781V211.403H454.739V210.477C454.318 211.129 453.644 211.529 452.813 211.529C451.371 211.529 450.308 210.35 450.308 208.677C450.308 207.014 451.371 205.836 452.813 205.836C453.644 205.836 454.318 206.236 454.739 206.888V204.047ZM453.055 210.624C454.044 210.624 454.739 209.814 454.739 208.677C454.739 207.541 454.044 206.741 453.055 206.741C452.066 206.741 451.361 207.541 451.361 208.677C451.361 209.814 452.066 210.624 453.055 210.624Z" fill="black"/>
<mask id="path-48-inside-9_10149_6649" fill="white">
<path d="M477.905 197.903H607.429V217.903H477.905V197.903Z"/>
</mask>
<path d="M607.429 217.093H477.905V218.712H607.429V217.093Z" fill="#67777E" mask="url(#path-48-inside-9_10149_6649)"/>
<path d="M486.349 210.124H490.295V210.903H485.528V203.673H486.349V210.124ZM491.792 204.473C491.497 204.473 491.266 204.231 491.266 203.947C491.266 203.673 491.497 203.431 491.792 203.431C492.076 203.431 492.308 203.673 492.308 203.947C492.308 204.231 492.076 204.473 491.792 204.473ZM491.392 210.903V205.462H492.181V210.903H491.392ZM493.932 210.903V203.547H494.721V208.472L497.699 205.462H498.71L496.258 207.956L498.573 210.903H497.584L495.7 208.493L494.721 209.461V210.903H493.932ZM501.921 210.324C502.563 210.324 503.3 210.04 503.636 209.672L504.12 210.187C503.647 210.703 502.689 211.029 501.931 211.029C500.479 211.029 499.174 209.84 499.174 208.167C499.174 206.546 500.395 205.336 501.858 205.336C503.499 205.336 504.436 206.578 504.436 208.482H499.985C500.1 209.545 500.847 210.324 501.921 210.324ZM501.889 206.041C500.921 206.041 500.142 206.725 499.995 207.777H503.657C503.552 206.799 502.973 206.041 501.889 206.041ZM507.365 211.029C506.607 211.029 505.765 210.745 505.113 210.219L505.523 209.64C506.144 210.092 506.765 210.324 507.365 210.324C508.081 210.324 508.565 209.987 508.565 209.472C508.565 208.882 507.933 208.693 507.197 208.482C505.881 208.103 505.376 207.714 505.376 206.935C505.376 205.946 506.197 205.336 507.281 205.336C507.954 205.336 508.649 205.567 509.228 205.946L508.849 206.556C508.302 206.209 507.765 206.041 507.281 206.041C506.67 206.041 506.165 206.314 506.165 206.841C506.165 207.314 506.565 207.462 507.576 207.788C508.449 208.061 509.354 208.356 509.354 209.387C509.354 210.387 508.491 211.029 507.365 211.029ZM515.548 210.103L515.937 210.682C515.653 210.903 515.295 211.029 514.927 211.029C514.148 211.029 513.601 210.45 513.601 209.64V206.167H512.748V205.462H513.601V203.968H514.39V205.462H515.727V206.167H514.39V209.64C514.39 210.04 514.664 210.324 514.979 210.324C515.222 210.324 515.432 210.229 515.548 210.103ZM519.326 211.029C517.779 211.029 516.516 209.745 516.516 208.177C516.516 206.609 517.779 205.336 519.326 205.336C520.863 205.336 522.126 206.609 522.126 208.177C522.126 209.745 520.863 211.029 519.326 211.029ZM519.326 210.324C520.41 210.324 521.305 209.356 521.305 208.177C521.305 206.998 520.41 206.041 519.326 206.041C518.232 206.041 517.337 206.998 517.337 208.177C517.337 209.356 518.232 210.324 519.326 210.324ZM527.011 206.525C527.337 205.799 528.116 205.336 529.115 205.336V206.041C527.884 206.041 527.011 206.799 527.011 207.861V210.903H526.221V205.462H527.011V206.525ZM534.017 205.462H534.807V210.903H534.017V210.04C533.702 210.619 533.007 211.029 532.228 211.029C531.018 211.029 530.187 210.177 530.187 208.924V205.462H530.976V208.819C530.976 209.714 531.534 210.324 532.333 210.324C533.26 210.324 534.017 209.693 534.017 208.924V205.462ZM539.131 205.336C540.341 205.336 541.172 206.188 541.172 207.44V210.903H540.383V207.546C540.383 206.651 539.825 206.041 539.025 206.041C538.099 206.041 537.342 206.672 537.342 207.44V210.903H536.552V205.462H537.342V206.325C537.657 205.746 538.352 205.336 539.131 205.336Z" fill="#4F6169"/>
<path d="M502.911 345.283C501.017 345.283 499.414 343.7 499.414 341.825C499.414 339.95 501.017 338.376 502.911 338.376C503.893 338.376 504.796 338.794 505.437 339.455L504.573 340.261C504.155 339.785 503.562 339.484 502.911 339.484C501.687 339.484 500.648 340.552 500.648 341.825C500.648 343.107 501.687 344.176 502.911 344.176C503.562 344.176 504.155 343.875 504.582 343.399L505.437 344.195C504.796 344.866 503.893 345.283 502.911 345.283ZM512.407 345.167L511.882 343.904H508.696L508.171 345.167H506.821L509.609 338.493H510.959L513.747 345.167H512.407ZM509.113 342.913H511.464L510.289 340.106L509.113 342.913ZM515.719 345.167V338.493H516.924L520.45 343.185V338.493H521.655V345.167H520.45L516.924 340.475V345.167H515.719ZM527.368 345.283C525.474 345.283 523.871 343.7 523.871 341.825C523.871 339.95 525.474 338.376 527.368 338.376C528.349 338.376 529.252 338.794 529.894 339.455L529.029 340.261C528.611 339.785 528.019 339.484 527.368 339.484C526.144 339.484 525.104 340.552 525.104 341.825C525.104 343.107 526.144 344.176 527.368 344.176C528.019 344.176 528.611 343.875 529.039 343.399L529.894 344.195C529.252 344.866 528.349 345.283 527.368 345.283ZM536.98 339.6H533.172V341.213H536.61V342.32H533.172V344.059H536.98V345.167H531.957V338.493H536.98V339.6ZM540.46 344.059H543.889V345.167H539.256V338.493H540.46V344.059Z" fill="#0079AD"/>
<path d="M564.119 331.333C564.119 329.769 565.388 328.5 566.952 328.5H611.905C613.47 328.5 614.738 329.769 614.738 331.333V354C614.738 355.565 613.47 356.833 611.905 356.833H566.952C565.388 356.833 564.119 355.565 564.119 354V331.333Z" stroke="#0079AD" stroke-width="0.809524"/>
<path d="M574.352 345.167V338.493H577.625C578.781 338.493 579.588 339.192 579.588 340.164C579.588 340.844 579.238 341.32 578.645 341.64C579.413 342.01 579.869 342.622 579.869 343.35C579.869 344.419 578.985 345.167 577.742 345.167H574.352ZM575.556 341.223H577.324C577.917 341.223 578.344 340.873 578.344 340.387C578.344 339.892 577.917 339.542 577.324 339.542H575.556V341.223ZM575.556 344.118H577.509C578.16 344.118 578.626 343.719 578.626 343.166C578.626 342.612 578.16 342.214 577.509 342.214H575.556V344.118ZM587.011 345.167L586.486 343.904H583.3L582.776 345.167H581.425L584.213 338.493H585.564L588.352 345.167H587.011ZM583.718 342.913H586.069L584.893 340.106L583.718 342.913ZM593.384 345.283C591.49 345.283 589.887 343.7 589.887 341.825C589.887 339.95 591.49 338.376 593.384 338.376C594.365 338.376 595.268 338.794 595.91 339.455L595.045 340.261C594.627 339.785 594.035 339.484 593.384 339.484C592.16 339.484 591.12 340.552 591.12 341.825C591.12 343.107 592.16 344.176 593.384 344.176C594.035 344.176 594.627 343.875 595.055 343.399L595.91 344.195C595.268 344.866 594.365 345.283 593.384 345.283ZM597.973 345.167V338.493H599.178V341.757L602.102 338.493H603.598L600.926 341.436L603.782 345.167H602.296L600.081 342.291L599.178 343.263V345.167H597.973Z" fill="#0079AD"/>
<path d="M628.5 331.333C628.5 329.769 629.769 328.5 631.333 328.5H675.286C676.851 328.5 678.119 329.769 678.119 331.333V354C678.119 355.565 676.851 356.833 675.286 356.833H631.333C629.769 356.833 628.5 355.565 628.5 354V331.333Z" fill="#0079AD"/>
<path d="M628.5 331.333C628.5 329.769 629.769 328.5 631.333 328.5H675.286C676.851 328.5 678.119 329.769 678.119 331.333V354C678.119 355.565 676.851 356.833 675.286 356.833H631.333C629.769 356.833 628.5 355.565 628.5 354V331.333Z" stroke="#0079AD" stroke-width="0.809524"/>
<path d="M638.732 345.167V338.493H639.937L643.463 343.185V338.493H644.668V345.167H643.463L639.937 340.475V345.167H638.732ZM652.343 339.6H648.535V341.213H651.974V342.32H648.535V344.059H652.343V345.167H647.321V338.493H652.343V339.6ZM660.351 338.493L657.874 341.825L660.351 345.167H658.913L657.155 342.796L655.387 345.167H653.968L656.446 341.835L653.968 338.493H655.406L657.164 340.863L658.932 338.493H660.351ZM663.85 345.167V339.6H661.713V338.493H667.192V339.6H665.064V345.167H663.85Z" fill="white"/>
</g>
<rect x="231.405" y="32.0305" width="465.476" height="344.048" rx="2.83333" stroke="#CBD4D8" stroke-width="0.809524"/>
</g>
</g>
<rect x="0.404762" y="0.404762" width="927.19" height="407.19" rx="3.59524" stroke="#ACB8BE" stroke-width="0.809524"/>
<defs>
<filter id="filter0_d_10149_6649" x="228.571" y="30.0067" width="471.143" height="349.714" filterUnits="userSpaceOnUse" color-interpolation-filters="sRGB">
<feFlood flood-opacity="0" result="BackgroundImageFix"/>
<feColorMatrix in="SourceAlpha" type="matrix" values="0 0 0 0 0 0 0 0 0 0 0 0 0 0 0 0 0 0 127 0" result="hardAlpha"/>
<feOffset dy="0.809524"/>
<feGaussianBlur stdDeviation="1.21429"/>
<feColorMatrix type="matrix" values="0 0 0 0 0.105 0 0 0 0 0.168 0 0 0 0 0.195 0 0 0 0.2 0"/>
<feBlend mode="normal" in2="BackgroundImageFix" result="effect1_dropShadow_10149_6649"/>
<feBlend mode="normal" in="SourceGraphic" in2="effect1_dropShadow_10149_6649" result="shape"/>
</filter>
<clipPath id="clip0_10149_6649">
<rect width="928" height="408" rx="4" fill="white"/>
</clipPath>
<clipPath id="clip1_10149_6649">
<rect x="231" y="31.6257" width="466.286" height="344.857" rx="3.2381" fill="white"/>
</clipPath>
<clipPath id="clip2_10149_6649">
<rect width="174.048" height="344.857" fill="white" transform="translate(231 31.6257)"/>
</clipPath>
<clipPath id="clip3_10149_6649">
<rect width="178.905" height="58.8571" fill="white" transform="translate(250.429 31.6257)"/>
</clipPath>
<clipPath id="clip4_10149_6649">
<path d="M250.429 210.292H404.429V249.15H250.429V210.292Z" fill="white"/>
</clipPath>
<clipPath id="clip5_10149_6649">
<path d="M250.429 249.959H404.429V288.816H250.429V249.959Z" fill="white"/>
</clipPath>
<clipPath id="clip6_10149_6649">
<rect width="178.905" height="58.8571" fill="white" transform="translate(424.476 31.6257)"/>
</clipPath>
</defs>
</svg>
