<svg width="452" height="288" viewBox="0 0 452 288" fill="none" xmlns="http://www.w3.org/2000/svg">
<g clip-path="url(#clip0_10163_2997)">
<rect width="452" height="288" rx="4" fill="#FCFDFD"/>
<path d="M452 0H0V288H452V0Z" fill="#4F6169"/>
<path d="M452 0H0V24.1367H452V0Z" fill="#2D4048"/>
<path opacity="0.4" d="M342.98 63.9669L347.84 59.1069C348.066 58.8424 348.051 58.4481 347.805 58.2019C347.558 57.9556 347.164 57.9404 346.9 58.1669L342.04 63.0269L337.18 58.1603C336.915 57.9337 336.521 57.949 336.275 58.1952C336.028 58.4415 336.013 58.8357 336.24 59.1003L341.1 63.9669L336.233 68.8269C336.043 68.9898 335.96 69.2457 336.018 69.4892C336.077 69.7327 336.267 69.9229 336.511 69.9816C336.754 70.0401 337.01 69.9573 337.173 69.767L342.04 64.907L346.9 69.767C347.164 69.9935 347.558 69.9782 347.805 69.732C348.051 69.4857 348.066 69.0914 347.84 68.8269L342.98 63.9669Z" fill="#4F6169"/>
<g filter="url(#filter0_d_10163_2997)">
<path d="M71 40C71 38.3431 72.1824 37 73.641 37H377.359C378.818 37 380 38.3431 380 40V247C380 248.657 378.818 250 377.359 250H73.641C72.1824 250 71 248.657 71 247V40Z" fill="white"/>
<path d="M71.4048 40C71.4048 38.5166 72.4529 37.4048 73.641 37.4048H377.359C378.547 37.4048 379.595 38.5166 379.595 40V247C379.595 248.483 378.547 249.595 377.359 249.595H73.641C72.4529 249.595 71.4048 248.483 71.4048 247V40Z" stroke="#CBD4D8" stroke-width="0.809524"/>
</g>
<path d="M363.291 54.4875L367.839 49.9402C368.025 49.7226 368.013 49.3982 367.81 49.1956C367.607 48.993 367.283 48.9804 367.065 49.1668L362.518 53.7141L357.971 49.1613C357.756 48.9462 357.407 48.9462 357.192 49.1613C356.977 49.3764 356.977 49.7251 357.192 49.9402L361.745 54.4875L357.192 59.0348C357.035 59.1689 356.967 59.3794 357.015 59.5797C357.063 59.7801 357.22 59.9366 357.42 59.9848C357.621 60.033 357.831 59.9648 357.965 59.8082L362.518 55.261L367.065 59.8082C367.283 59.9946 367.607 59.9821 367.81 59.7795C368.013 59.5769 368.025 59.2525 367.839 59.0348L363.291 54.4875Z" fill="#3A4D55"/>
<path d="M320 235.513C320 236.887 320.89 238 321.99 238H366.01C367.11 238 368 236.887 368 235.513V216.487C368 215.113 367.11 214 366.01 214H321.99C320.89 214 320 215.113 320 216.487V235.513Z" fill="#0079AD"/>
<path opacity="0.6" d="M358.178 224.644H331.372C330.627 224.644 330.023 225.256 330.023 226.012C330.023 226.767 330.627 227.379 331.372 227.379H358.178C358.922 227.379 359.526 226.767 359.526 226.012C359.526 225.256 358.922 224.644 358.178 224.644Z" fill="white"/>
<path d="M266.99 237.5C266.265 237.5 265.5 236.721 265.5 235.513V216.487C265.5 215.279 266.265 214.5 266.99 214.5H311.01C311.735 214.5 312.5 215.279 312.5 216.487V235.513C312.5 236.721 311.735 237.5 311.01 237.5H266.99Z" stroke="#0079AD"/>
<path opacity="0.6" d="M303.178 224.644H276.372C275.627 224.644 275.023 225.256 275.023 226.012C275.023 226.767 275.627 227.379 276.372 227.379H303.178C303.922 227.379 304.526 226.767 304.526 226.012C304.526 225.256 303.922 224.644 303.178 224.644Z" fill="#0079AD"/>
<path opacity="0.6" d="M255.154 224.644H228.348C227.603 224.644 227 225.256 227 226.012C227 226.767 227.603 227.379 228.348 227.379H255.154C255.898 227.379 256.503 226.767 256.503 226.012C256.503 225.256 255.898 224.644 255.154 224.644Z" fill="#0079AD"/>
<rect opacity="0.5" x="85" y="121.5" width="86" height="17" fill="#66D1FF"/>
<path opacity="0.4" d="M96.3455 94.3292H144.16" stroke="#4F6169" stroke-width="3" stroke-linecap="round"/>
<path opacity="0.4" d="M96.3455 58.7605H132.705" stroke="#4F6169" stroke-width="3" stroke-linecap="round"/>
<path opacity="0.4" d="M187.98 58.7605H224.34" stroke="#4F6169" stroke-width="3" stroke-linecap="round"/>
<path opacity="0.4" d="M188 94.5H322" stroke="#4F6169" stroke-width="3" stroke-linecap="round"/>
<path opacity="0.4" d="M188 112.5H322" stroke="#4F6169" stroke-width="3" stroke-linecap="round"/>
<path opacity="0.4" d="M188 130.5H322" stroke="#4F6169" stroke-width="3" stroke-linecap="round"/>
<path opacity="0.4" d="M188 148.5H262" stroke="#4F6169" stroke-width="3" stroke-linecap="round"/>
<path opacity="0.4" d="M96.3455 112.329H144.16" stroke="#4F6169" stroke-width="3" stroke-linecap="round"/>
<path opacity="0.4" d="M96.3455 148.329H144.16" stroke="#4F6169" stroke-width="3" stroke-linecap="round"/>
<path opacity="0.4" d="M96.3455 166.329H144.16" stroke="#4F6169" stroke-width="3" stroke-linecap="round"/>
<path opacity="0.4" d="M96.3455 184.329H144.16" stroke="#4F6169" stroke-width="3" stroke-linecap="round"/>
<path opacity="0.7" d="M96.3455 130.329H144.16" stroke="#4F6169" stroke-width="3" stroke-linecap="round"/>
<rect x="81" y="85.5" width="4" height="35" fill="#41800E"/>
<rect opacity="0.15" x="81" y="121.5" width="4" height="75" fill="#4F6169"/>
<line opacity="0.2" x1="171.5" y1="37" x2="171.5" y2="249" stroke="#4F6169" stroke-linecap="round"/>
<circle cx="161.5" cy="127" r="0.5" fill="#D9D9D9"/>
<g filter="url(#filter1_d_10163_2997)">
<mask id="path-31-outside-1_10163_2997" maskUnits="userSpaceOnUse" x="55" y="93.3372" width="26" height="18" fill="black">
<rect fill="white" x="55" y="93.3372" width="26" height="18"/>
<path fill-rule="evenodd" clip-rule="evenodd" d="M79.483 102.777C79.78 102.579 79.78 102.142 79.483 101.944L69.692 95.4219C69.3597 95.2005 68.9148 95.4387 68.9148 95.838V99.4906H56.5C56.2239 99.4906 56 99.7144 56 99.9906V104.73C56 105.007 56.2239 105.23 56.5 105.23H68.9148V108.883C68.9148 109.282 69.3597 109.52 69.692 109.299L79.483 102.777Z"/>
</mask>
<path fill-rule="evenodd" clip-rule="evenodd" d="M79.483 102.777C79.78 102.579 79.78 102.142 79.483 101.944L69.692 95.4219C69.3597 95.2005 68.9148 95.4387 68.9148 95.838V99.4906H56.5C56.2239 99.4906 56 99.7144 56 99.9906V104.73C56 105.007 56.2239 105.23 56.5 105.23H68.9148V108.883C68.9148 109.282 69.3597 109.52 69.692 109.299L79.483 102.777Z" fill="#D23292"/>
<path d="M79.483 101.944L78.9286 102.777L78.9286 102.777L79.483 101.944ZM79.483 102.777L80.0374 103.609L80.0374 103.609L79.483 102.777ZM69.692 95.4219L70.2464 94.5896V94.5896L69.692 95.4219ZM68.9148 99.4906V100.491H69.9148V99.4906H68.9148ZM68.9148 105.23H69.9148V104.23H68.9148V105.23ZM69.692 109.299L70.2464 110.131H70.2464L69.692 109.299ZM78.9286 102.777C78.6315 102.579 78.6315 102.142 78.9285 101.944L80.0374 103.609C80.9285 103.015 80.9286 101.706 80.0374 101.112L78.9286 102.777ZM69.1376 96.2541L78.9286 102.777L80.0374 101.112L70.2464 94.5896L69.1376 96.2541ZM69.9148 95.838C69.9148 96.2373 69.4699 96.4755 69.1376 96.2541L70.2464 94.5896C69.2495 93.9256 67.9148 94.6402 67.9148 95.838H69.9148ZM69.9148 99.4906V95.838H67.9148V99.4906H69.9148ZM56.5 100.491H68.9148V98.4906H56.5V100.491ZM57 99.9906C57 100.267 56.7761 100.491 56.5 100.491V98.4906C55.6716 98.4906 55 99.1621 55 99.9906H57ZM57 104.73V99.9906H55V104.73H57ZM56.5 104.23C56.7761 104.23 57 104.454 57 104.73H55C55 105.559 55.6716 106.23 56.5 106.23V104.23ZM68.9148 104.23H56.5V106.23H68.9148V104.23ZM69.9148 108.883V105.23H67.9148V108.883H69.9148ZM69.1376 108.467C69.4699 108.245 69.9148 108.484 69.9148 108.883H67.9148C67.9148 110.081 69.2495 110.795 70.2464 110.131L69.1376 108.467ZM78.9286 101.944L69.1376 108.467L70.2464 110.131L80.0374 103.609L78.9286 101.944Z" fill="white" mask="url(#path-31-outside-1_10163_2997)"/>
</g>
<g filter="url(#filter2_d_10163_2997)">
<mask id="path-33-outside-2_10163_2997" maskUnits="userSpaceOnUse" x="160.706" y="120" width="26" height="18" fill="black">
<rect fill="white" x="160.706" y="120" width="26" height="18"/>
<path fill-rule="evenodd" clip-rule="evenodd" d="M162.223 129.439C161.926 129.242 161.926 128.805 162.223 128.607L172.014 122.085C172.346 121.863 172.791 122.102 172.791 122.501V126.153H185.206C185.482 126.153 185.706 126.377 185.706 126.653V131.393C185.706 131.669 185.482 131.893 185.206 131.893H172.791V135.546C172.791 135.945 172.346 136.183 172.014 135.962L162.223 129.439Z"/>
</mask>
<path fill-rule="evenodd" clip-rule="evenodd" d="M162.223 129.439C161.926 129.242 161.926 128.805 162.223 128.607L172.014 122.085C172.346 121.863 172.791 122.102 172.791 122.501V126.153H185.206C185.482 126.153 185.706 126.377 185.706 126.653V131.393C185.706 131.669 185.482 131.893 185.206 131.893H172.791V135.546C172.791 135.945 172.346 136.183 172.014 135.962L162.223 129.439Z" fill="#D23292"/>
<path d="M162.223 128.607L162.777 129.439L162.777 129.439L162.223 128.607ZM162.223 129.439L161.668 130.272L161.668 130.272L162.223 129.439ZM172.014 122.085L171.459 121.252V121.252L172.014 122.085ZM172.791 126.153V127.153H171.791V126.153H172.791ZM172.791 131.893H171.791V130.893H172.791V131.893ZM172.014 135.962L171.459 136.794H171.459L172.014 135.962ZM162.777 129.439C163.074 129.242 163.074 128.805 162.777 128.607L161.668 130.272C160.777 129.678 160.777 128.369 161.668 127.775L162.777 129.439ZM172.568 122.917L162.777 129.439L161.668 127.775L171.459 121.252L172.568 122.917ZM171.791 122.501C171.791 122.9 172.236 123.138 172.568 122.917L171.459 121.252C172.456 120.588 173.791 121.303 173.791 122.501H171.791ZM171.791 126.153V122.501H173.791V126.153H171.791ZM185.206 127.153H172.791V125.153H185.206V127.153ZM184.706 126.653C184.706 126.93 184.93 127.153 185.206 127.153V125.153C186.034 125.153 186.706 125.825 186.706 126.653H184.706ZM184.706 131.393V126.653H186.706V131.393H184.706ZM185.206 130.893C184.93 130.893 184.706 131.117 184.706 131.393H186.706C186.706 132.222 186.034 132.893 185.206 132.893V130.893ZM172.791 130.893H185.206V132.893H172.791V130.893ZM171.791 135.546V131.893H173.791V135.546H171.791ZM172.568 135.13C172.236 134.908 171.791 135.147 171.791 135.546H173.791C173.791 136.744 172.456 137.458 171.459 136.794L172.568 135.13ZM162.777 128.607L172.568 135.13L171.459 136.794L161.668 130.272L162.777 128.607Z" fill="white" mask="url(#path-33-outside-2_10163_2997)"/>
</g>
</g>
<rect x="0.5" y="0.5" width="451" height="287" rx="3.5" stroke="#ACB8BE"/>
<defs>
<filter id="filter0_d_10163_2997" x="67" y="33.8095" width="317" height="221" filterUnits="userSpaceOnUse" color-interpolation-filters="sRGB">
<feFlood flood-opacity="0" result="BackgroundImageFix"/>
<feColorMatrix in="SourceAlpha" type="matrix" values="0 0 0 0 0 0 0 0 0 0 0 0 0 0 0 0 0 0 127 0" result="hardAlpha"/>
<feOffset dy="0.809524"/>
<feGaussianBlur stdDeviation="2"/>
<feColorMatrix type="matrix" values="0 0 0 0 0 0 0 0 0 0 0 0 0 0 0 0 0 0 0.2 0"/>
<feBlend mode="normal" in2="BackgroundImageFix" result="effect1_dropShadow_10163_2997"/>
<feBlend mode="normal" in="SourceGraphic" in2="effect1_dropShadow_10163_2997" result="shape"/>
</filter>
<filter id="filter1_d_10163_2997" x="51" y="94.3355" width="33.7058" height="24.05" filterUnits="userSpaceOnUse" color-interpolation-filters="sRGB">
<feFlood flood-opacity="0" result="BackgroundImageFix"/>
<feColorMatrix in="SourceAlpha" type="matrix" values="0 0 0 0 0 0 0 0 0 0 0 0 0 0 0 0 0 0 127 0" result="hardAlpha"/>
<feOffset dy="4"/>
<feGaussianBlur stdDeviation="2"/>
<feComposite in2="hardAlpha" operator="out"/>
<feColorMatrix type="matrix" values="0 0 0 0 0 0 0 0 0 0 0 0 0 0 0 0 0 0 0.25 0"/>
<feBlend mode="normal" in2="BackgroundImageFix" result="effect1_dropShadow_10163_2997"/>
<feBlend mode="normal" in="SourceGraphic" in2="effect1_dropShadow_10163_2997" result="shape"/>
</filter>
<filter id="filter2_d_10163_2997" x="157" y="120.998" width="33.7058" height="24.05" filterUnits="userSpaceOnUse" color-interpolation-filters="sRGB">
<feFlood flood-opacity="0" result="BackgroundImageFix"/>
<feColorMatrix in="SourceAlpha" type="matrix" values="0 0 0 0 0 0 0 0 0 0 0 0 0 0 0 0 0 0 127 0" result="hardAlpha"/>
<feOffset dy="4"/>
<feGaussianBlur stdDeviation="2"/>
<feComposite in2="hardAlpha" operator="out"/>
<feColorMatrix type="matrix" values="0 0 0 0 0 0 0 0 0 0 0 0 0 0 0 0 0 0 0.25 0"/>
<feBlend mode="normal" in2="BackgroundImageFix" result="effect1_dropShadow_10163_2997"/>
<feBlend mode="normal" in="SourceGraphic" in2="effect1_dropShadow_10163_2997" result="shape"/>
</filter>
<clipPath id="clip0_10163_2997">
<rect width="452" height="288" rx="4" fill="white"/>
</clipPath>
</defs>
</svg>
