<svg width="473" height="216" viewBox="0 0 473 216" fill="none" xmlns="http://www.w3.org/2000/svg">
<rect x="118" y="1" width="354" height="214" fill="#22343C"/>
<path d="M444 109.507H146V111.516H444V109.507Z" fill="#DBDADC"/>
<path d="M444 118.549H146V120.558H444V118.549Z" fill="#DBDADC"/>
<path d="M444 127.592H146V129.601H444V127.592Z" fill="#DBDADC"/>
<path d="M281.382 41H146V43.0094H281.382V41Z" fill="#DBDADC"/>
<path d="M281.382 50.042H146V52.0514H281.382V50.042Z" fill="#DBDADC"/>
<path d="M281.382 59.085H146V61.0944H281.382V59.085Z" fill="#DBDADC"/>
<path d="M281.382 68.127H146V70.1363H281.382V68.127Z" fill="#DBDADC"/>
<path d="M444 79H146V80.0047H444V79Z" fill="#DBDADC"/>
<path d="M211.5 18H148.5C147.395 18 146.5 18.8954 146.5 20V27C146.5 28.1046 147.395 29 148.5 29H211.5C212.605 29 213.5 28.1046 213.5 27V20C213.5 18.8954 212.605 18 211.5 18Z" fill="#A6A3A8"/>
<path d="M331.609 89H255.383C254.278 89 253.383 89.8954 253.383 91V95C253.383 96.1046 254.278 97 255.383 97H331.609C332.714 97 333.609 96.1046 333.609 95V91C333.609 89.8954 332.714 89 331.609 89Z" fill="#A6A3A8"/>
<path d="M331.609 139.647H255.383C254.278 139.647 253.383 140.543 253.383 141.647V145.647C253.383 146.752 254.278 147.647 255.383 147.647H331.609C332.714 147.647 333.609 146.752 333.609 145.647V141.647C333.609 140.543 332.714 139.647 331.609 139.647Z" fill="#A6A3A8"/>
<path d="M205.5 162H173.5C172.395 162 171.5 162.895 171.5 164C171.5 165.105 172.395 166 173.5 166H205.5C206.605 166 207.5 165.105 207.5 164C207.5 162.895 206.605 162 205.5 162Z" fill="#A6A3A8"/>
<path d="M232 176H146V178H232V176Z" fill="#DBDADC"/>
<path d="M232 184H146V186H232V184Z" fill="#DBDADC"/>
<path d="M232 192H146V194H232V192Z" fill="#DBDADC"/>
<path d="M311 162H279C277.895 162 277 162.895 277 164C277 165.105 277.895 166 279 166H311C312.105 166 313 165.105 313 164C313 162.895 312.105 162 311 162Z" fill="#A6A3A8"/>
<path d="M338 176H252V178H338V176Z" fill="#DBDADC"/>
<path d="M338 184H252V186H338V184Z" fill="#DBDADC"/>
<path d="M338 192H252V194H338V192Z" fill="#DBDADC"/>
<path d="M417 162H385C383.895 162 383 162.895 383 164C383 165.105 383.895 166 385 166H417C418.105 166 419 165.105 419 164C419 162.895 418.105 162 417 162Z" fill="#A6A3A8"/>
<path d="M444 176H358V178H444V176Z" fill="#DBDADC"/>
<path d="M444 184H358V186H444V184Z" fill="#DBDADC"/>
<path d="M444 192H358V194H444V192Z" fill="#DBDADC"/>
<rect x="118" y="1" width="354" height="214" stroke="#67777E"/>
<path d="M142.086 50H59V51H142.086V50Z" fill="#D23292"/>
<path d="M142.086 117H59V118H142.086V117Z" fill="#D23292"/>
<path d="M142.086 23H59V24H142.086V23Z" fill="#D23292"/>
<path d="M245 92H59V93H245V92Z" fill="#D23292"/>
<path d="M245 142H59V143H245V142Z" fill="#D23292"/>
<path d="M167.579 162H59V163H167.579V162Z" fill="#D23292"/>
<path d="M142.086 185H59V186H142.086V185Z" fill="#D23292"/>
<path d="M12.8105 27V19.443H15.3625C17.7605 19.443 19.4545 21.005 19.4545 23.216C19.4545 25.427 17.7605 27 15.3625 27H12.8105ZM13.6685 26.219H15.3625C17.2545 26.219 18.5855 24.976 18.5855 23.216C18.5855 21.467 17.2545 20.224 15.3625 20.224H13.6685V26.219ZM21.6406 20.279C21.3326 20.279 21.0906 20.026 21.0906 19.729C21.0906 19.443 21.3326 19.19 21.6406 19.19C21.9376 19.19 22.1796 19.443 22.1796 19.729C22.1796 20.026 21.9376 20.279 21.6406 20.279ZM21.2226 27V21.313H22.0476V27H21.2226ZM25.9219 27.132C25.1299 27.132 24.2499 26.835 23.5679 26.285L23.9969 25.68C24.6459 26.153 25.2949 26.395 25.9219 26.395C26.6699 26.395 27.1759 26.043 27.1759 25.504C27.1759 24.888 26.5159 24.69 25.7459 24.47C24.3709 24.074 23.8429 23.667 23.8429 22.853C23.8429 21.819 24.7009 21.181 25.8339 21.181C26.5379 21.181 27.2639 21.423 27.8689 21.819L27.4729 22.457C26.9009 22.094 26.3399 21.918 25.8339 21.918C25.1959 21.918 24.6679 22.204 24.6679 22.754C24.6679 23.249 25.0859 23.403 26.1419 23.744C27.0549 24.03 28.0009 24.338 28.0009 25.416C28.0009 26.461 27.0989 27.132 25.9219 27.132ZM32.5078 21.181C34.0038 21.181 35.1258 22.413 35.1258 24.151C35.1258 25.9 34.0038 27.132 32.5078 27.132C31.5948 27.132 30.8688 26.681 30.4398 25.933V28.892H29.6148V21.313H30.4398V22.38C30.8688 21.632 31.5948 21.181 32.5078 21.181ZM32.3538 26.395C33.4648 26.395 34.2568 25.46 34.2568 24.151C34.2568 22.842 33.4648 21.918 32.3538 21.918C31.2318 21.918 30.4398 22.842 30.4398 24.151C30.4398 25.46 31.2318 26.395 32.3538 26.395ZM36.7972 27V19.311H37.6222V27H36.7972ZM41.7715 21.181C43.3225 21.181 44.0815 22.16 44.0815 23.535V27H43.2565V26.109C42.8495 26.78 42.0025 27.132 41.2545 27.132C40.0555 27.132 39.1755 26.439 39.1755 25.317C39.1755 24.184 40.1875 23.425 41.4085 23.425C42.0245 23.425 42.6735 23.557 43.2565 23.744V23.535C43.2565 22.765 42.9485 21.885 41.7165 21.885C41.1445 21.885 40.5725 22.138 40.0555 22.402L39.7255 21.731C40.5395 21.324 41.2215 21.181 41.7715 21.181ZM41.3975 26.406C42.1455 26.406 43.0365 26.021 43.2565 25.218V24.349C42.7395 24.206 42.1565 24.118 41.5405 24.118C40.6935 24.118 39.9785 24.602 39.9785 25.284C39.9785 25.988 40.5945 26.406 41.3975 26.406ZM46.5545 28.98C46.2245 28.98 45.9165 28.914 45.6525 28.793L45.8505 28.089C46.0485 28.188 46.2795 28.232 46.5215 28.232C46.8845 28.232 47.1265 28.111 47.3465 27.726L47.6765 27.022L45.2015 21.313H46.1145L48.1055 26.043L49.9865 21.313H50.8775L48.2815 27.638C47.8855 28.606 47.3355 28.969 46.5545 28.98Z" fill="white"/>
<path d="M24.1957 54V46.443H27.6607C28.8817 46.443 29.7397 47.224 29.7397 48.324C29.7397 49.127 29.3437 49.589 28.6617 49.985C29.5307 50.425 30.0367 51.107 30.0367 51.932C30.0367 53.142 29.1017 54 27.7927 54H24.1957ZM25.0537 49.644H27.4407C28.2767 49.644 28.8707 49.138 28.8707 48.434C28.8707 47.73 28.2767 47.224 27.4407 47.224H25.0537V49.644ZM25.0537 53.219H27.5727C28.5077 53.219 29.1677 52.636 29.1677 51.822C29.1677 51.008 28.5077 50.425 27.5727 50.425H25.0537V53.219ZM34.3301 54.132C32.7131 54.132 31.3931 52.79 31.3931 51.151C31.3931 49.512 32.7131 48.181 34.3301 48.181C35.9361 48.181 37.2561 49.512 37.2561 51.151C37.2561 52.79 35.9361 54.132 34.3301 54.132ZM34.3301 53.395C35.4631 53.395 36.3981 52.383 36.3981 51.151C36.3981 49.919 35.4631 48.918 34.3301 48.918C33.1861 48.918 32.2511 49.919 32.2511 51.151C32.2511 52.383 33.1861 53.395 34.3301 53.395ZM43.1231 46.311H43.9481V54H43.1231V52.933C42.6941 53.681 41.9681 54.132 41.0551 54.132C39.5591 54.132 38.4371 52.9 38.4371 51.151C38.4371 49.413 39.5591 48.181 41.0551 48.181C41.9681 48.181 42.6941 48.632 43.1231 49.38V46.311ZM41.2091 53.395C42.3311 53.395 43.1231 52.46 43.1231 51.151C43.1231 49.842 42.3311 48.918 41.2091 48.918C40.0981 48.918 39.3061 49.842 39.3061 51.151C39.3061 52.46 40.0981 53.395 41.2091 53.395ZM46.5545 55.98C46.2245 55.98 45.9165 55.914 45.6525 55.793L45.8505 55.089C46.0485 55.188 46.2795 55.232 46.5215 55.232C46.8845 55.232 47.1265 55.111 47.3465 54.726L47.6765 54.022L45.2015 48.313H46.1145L48.1055 53.043L49.9865 48.313H50.8775L48.2815 54.638C47.8855 55.606 47.3355 55.969 46.5545 55.98Z" fill="white"/>
<path d="M24.1957 121V113.443H27.6607C28.8817 113.443 29.7397 114.224 29.7397 115.324C29.7397 116.127 29.3437 116.589 28.6617 116.985C29.5307 117.425 30.0367 118.107 30.0367 118.932C30.0367 120.142 29.1017 121 27.7927 121H24.1957ZM25.0537 116.644H27.4407C28.2767 116.644 28.8707 116.138 28.8707 115.434C28.8707 114.73 28.2767 114.224 27.4407 114.224H25.0537V116.644ZM25.0537 120.219H27.5727C28.5077 120.219 29.1677 119.636 29.1677 118.822C29.1677 118.008 28.5077 117.425 27.5727 117.425H25.0537V120.219ZM34.3301 121.132C32.7131 121.132 31.3931 119.79 31.3931 118.151C31.3931 116.512 32.7131 115.181 34.3301 115.181C35.9361 115.181 37.2561 116.512 37.2561 118.151C37.2561 119.79 35.9361 121.132 34.3301 121.132ZM34.3301 120.395C35.4631 120.395 36.3981 119.383 36.3981 118.151C36.3981 116.919 35.4631 115.918 34.3301 115.918C33.1861 115.918 32.2511 116.919 32.2511 118.151C32.2511 119.383 33.1861 120.395 34.3301 120.395ZM43.1231 113.311H43.9481V121H43.1231V119.933C42.6941 120.681 41.9681 121.132 41.0551 121.132C39.5591 121.132 38.4371 119.9 38.4371 118.151C38.4371 116.413 39.5591 115.181 41.0551 115.181C41.9681 115.181 42.6941 115.632 43.1231 116.38V113.311ZM41.2091 120.395C42.3311 120.395 43.1231 119.46 43.1231 118.151C43.1231 116.842 42.3311 115.918 41.2091 115.918C40.0981 115.918 39.3061 116.842 39.3061 118.151C39.3061 119.46 40.0981 120.395 41.2091 120.395ZM46.5545 122.98C46.2245 122.98 45.9165 122.914 45.6525 122.793L45.8505 122.089C46.0485 122.188 46.2795 122.232 46.5215 122.232C46.8845 122.232 47.1265 122.111 47.3465 121.726L47.6765 121.022L45.2015 115.313H46.1145L48.1055 120.043L49.9865 115.313H50.8775L48.2815 121.638C47.8855 122.606 47.3355 122.969 46.5545 122.98Z" fill="white"/>
<path d="M9.52313 88.443H10.3811V96H9.52313V92.557H5.06813V96H4.21013V88.443H5.06813V91.743H9.52313V88.443ZM15.1384 95.395C15.8094 95.395 16.5794 95.098 16.9314 94.713L17.4374 95.252C16.9424 95.791 15.9414 96.132 15.1494 96.132C13.6314 96.132 12.2674 94.889 12.2674 93.14C12.2674 91.446 13.5434 90.181 15.0724 90.181C16.7884 90.181 17.7674 91.479 17.7674 93.47H13.1144C13.2354 94.581 14.0164 95.395 15.1384 95.395ZM15.1054 90.918C14.0934 90.918 13.2794 91.633 13.1254 92.733H16.9534C16.8434 91.71 16.2384 90.918 15.1054 90.918ZM21.3885 90.181C22.9395 90.181 23.6985 91.16 23.6985 92.535V96H22.8735V95.109C22.4665 95.78 21.6195 96.132 20.8715 96.132C19.6725 96.132 18.7925 95.439 18.7925 94.317C18.7925 93.184 19.8045 92.425 21.0255 92.425C21.6415 92.425 22.2905 92.557 22.8735 92.744V92.535C22.8735 91.765 22.5655 90.885 21.3335 90.885C20.7615 90.885 20.1895 91.138 19.6725 91.402L19.3425 90.731C20.1565 90.324 20.8385 90.181 21.3885 90.181ZM21.0145 95.406C21.7625 95.406 22.6535 95.021 22.8735 94.218V93.349C22.3565 93.206 21.7735 93.118 21.1575 93.118C20.3105 93.118 19.5955 93.602 19.5955 94.284C19.5955 94.988 20.2115 95.406 21.0145 95.406ZM29.9225 88.311H30.7475V96H29.9225V94.933C29.4935 95.681 28.7675 96.132 27.8545 96.132C26.3585 96.132 25.2365 94.9 25.2365 93.151C25.2365 91.413 26.3585 90.181 27.8545 90.181C28.7675 90.181 29.4935 90.632 29.9225 91.38V88.311ZM28.0085 95.395C29.1305 95.395 29.9225 94.46 29.9225 93.151C29.9225 91.842 29.1305 90.918 28.0085 90.918C26.8975 90.918 26.1055 91.842 26.1055 93.151C26.1055 94.46 26.8975 95.395 28.0085 95.395ZM32.859 96V88.311H33.684V96H32.859ZM36.2162 89.279C35.9082 89.279 35.6662 89.026 35.6662 88.729C35.6662 88.443 35.9082 88.19 36.2162 88.19C36.5132 88.19 36.7552 88.443 36.7552 88.729C36.7552 89.026 36.5132 89.279 36.2162 89.279ZM35.7982 96V90.313H36.6232V96H35.7982ZM41.4325 90.181C42.6975 90.181 43.5665 91.072 43.5665 92.381V96H42.7415V92.491C42.7415 91.556 42.1585 90.918 41.3225 90.918C40.3545 90.918 39.5625 91.578 39.5625 92.381V96H38.7375V90.313H39.5625V91.215C39.8925 90.61 40.6185 90.181 41.4325 90.181ZM47.9419 95.395C48.6129 95.395 49.3829 95.098 49.7349 94.713L50.2409 95.252C49.7459 95.791 48.7449 96.132 47.9529 96.132C46.4349 96.132 45.0709 94.889 45.0709 93.14C45.0709 91.446 46.3469 90.181 47.8759 90.181C49.5919 90.181 50.5709 91.479 50.5709 93.47H45.9179C46.0389 94.581 46.8199 95.395 47.9419 95.395ZM47.9089 90.918C46.8969 90.918 46.0829 91.633 45.9289 92.733H49.7569C49.6469 91.71 49.0419 90.918 47.9089 90.918Z" fill="white"/>
<path d="M9.52313 138.443H10.3811V146H9.52313V142.557H5.06813V146H4.21013V138.443H5.06813V141.743H9.52313V138.443ZM15.1384 145.395C15.8094 145.395 16.5794 145.098 16.9314 144.713L17.4374 145.252C16.9424 145.791 15.9414 146.132 15.1494 146.132C13.6314 146.132 12.2674 144.889 12.2674 143.14C12.2674 141.446 13.5434 140.181 15.0724 140.181C16.7884 140.181 17.7674 141.479 17.7674 143.47H13.1144C13.2354 144.581 14.0164 145.395 15.1384 145.395ZM15.1054 140.918C14.0934 140.918 13.2794 141.633 13.1254 142.733H16.9534C16.8434 141.71 16.2384 140.918 15.1054 140.918ZM21.3885 140.181C22.9395 140.181 23.6985 141.16 23.6985 142.535V146H22.8735V145.109C22.4665 145.78 21.6195 146.132 20.8715 146.132C19.6725 146.132 18.7925 145.439 18.7925 144.317C18.7925 143.184 19.8045 142.425 21.0255 142.425C21.6415 142.425 22.2905 142.557 22.8735 142.744V142.535C22.8735 141.765 22.5655 140.885 21.3335 140.885C20.7615 140.885 20.1895 141.138 19.6725 141.402L19.3425 140.731C20.1565 140.324 20.8385 140.181 21.3885 140.181ZM21.0145 145.406C21.7625 145.406 22.6535 145.021 22.8735 144.218V143.349C22.3565 143.206 21.7735 143.118 21.1575 143.118C20.3105 143.118 19.5955 143.602 19.5955 144.284C19.5955 144.988 20.2115 145.406 21.0145 145.406ZM29.9225 138.311H30.7475V146H29.9225V144.933C29.4935 145.681 28.7675 146.132 27.8545 146.132C26.3585 146.132 25.2365 144.9 25.2365 143.151C25.2365 141.413 26.3585 140.181 27.8545 140.181C28.7675 140.181 29.4935 140.632 29.9225 141.38V138.311ZM28.0085 145.395C29.1305 145.395 29.9225 144.46 29.9225 143.151C29.9225 141.842 29.1305 140.918 28.0085 140.918C26.8975 140.918 26.1055 141.842 26.1055 143.151C26.1055 144.46 26.8975 145.395 28.0085 145.395ZM32.859 146V138.311H33.684V146H32.859ZM36.2162 139.279C35.9082 139.279 35.6662 139.026 35.6662 138.729C35.6662 138.443 35.9082 138.19 36.2162 138.19C36.5132 138.19 36.7552 138.443 36.7552 138.729C36.7552 139.026 36.5132 139.279 36.2162 139.279ZM35.7982 146V140.313H36.6232V146H35.7982ZM41.4325 140.181C42.6975 140.181 43.5665 141.072 43.5665 142.381V146H42.7415V142.491C42.7415 141.556 42.1585 140.918 41.3225 140.918C40.3545 140.918 39.5625 141.578 39.5625 142.381V146H38.7375V140.313H39.5625V141.215C39.8925 140.61 40.6185 140.181 41.4325 140.181ZM47.9419 145.395C48.6129 145.395 49.3829 145.098 49.7349 144.713L50.2409 145.252C49.7459 145.791 48.7449 146.132 47.9529 146.132C46.4349 146.132 45.0709 144.889 45.0709 143.14C45.0709 141.446 46.3469 140.181 47.8759 140.181C49.5919 140.181 50.5709 141.479 50.5709 143.47H45.9179C46.0389 144.581 46.8199 145.395 47.9419 145.395ZM47.9089 140.918C46.8969 140.918 46.0829 141.633 45.9289 142.733H49.7569C49.6469 141.71 49.0419 140.918 47.9089 140.918Z" fill="white"/>
<path d="M14.5077 167.121C13.2647 167.121 12.2857 166.67 11.5267 165.922L12.0657 165.251C12.7037 165.889 13.4847 166.34 14.5407 166.34C15.7067 166.34 16.3007 165.702 16.3007 165.02C16.3007 164.217 15.5857 163.898 14.2657 163.59C12.7477 163.238 11.7907 162.765 11.7907 161.456C11.7907 160.246 12.8687 159.311 14.3207 159.311C15.4427 159.311 16.2787 159.751 16.9717 160.389L16.4437 161.06C15.8167 160.455 15.0687 160.092 14.2767 160.092C13.3417 160.092 12.6597 160.697 12.6597 161.39C12.6597 162.171 13.4077 162.446 14.6947 162.754C16.1357 163.095 17.1697 163.612 17.1697 164.943C17.1697 166.142 16.2677 167.121 14.5077 167.121ZM21.3111 166.395C21.9821 166.395 22.7521 166.098 23.1041 165.713L23.6101 166.252C23.1151 166.791 22.1141 167.132 21.3221 167.132C19.8041 167.132 18.4401 165.889 18.4401 164.14C18.4401 162.446 19.7161 161.181 21.2451 161.181C22.9611 161.181 23.9401 162.479 23.9401 164.47H19.2871C19.4081 165.581 20.1891 166.395 21.3111 166.395ZM21.2781 161.918C20.2661 161.918 19.4521 162.633 19.2981 163.733H23.1261C23.0161 162.71 22.4111 161.918 21.2781 161.918ZM27.9681 167.132C26.3731 167.132 25.0201 165.768 25.0201 164.151C25.0201 162.534 26.3731 161.181 27.9681 161.181C28.7381 161.181 29.4531 161.5 29.9921 162.017L29.4201 162.578C29.0461 162.171 28.5291 161.918 27.9681 161.918C26.8351 161.918 25.8891 162.941 25.8891 164.151C25.8891 165.372 26.8351 166.395 27.9681 166.395C28.5401 166.395 29.0681 166.131 29.4531 165.702L30.0251 166.263C29.4861 166.802 28.7601 167.132 27.9681 167.132ZM33.6302 166.164L34.0372 166.769C33.7402 167 33.3662 167.132 32.9812 167.132C32.1672 167.132 31.5952 166.527 31.5952 165.68V162.05H30.7042V161.313H31.5952V159.751H32.4202V161.313H33.8172V162.05H32.4202V165.68C32.4202 166.098 32.7062 166.395 33.0362 166.395C33.2892 166.395 33.5092 166.296 33.6302 166.164ZM35.8402 160.279C35.5322 160.279 35.2902 160.026 35.2902 159.729C35.2902 159.443 35.5322 159.19 35.8402 159.19C36.1372 159.19 36.3792 159.443 36.3792 159.729C36.3792 160.026 36.1372 160.279 35.8402 160.279ZM35.4222 167V161.313H36.2472V167H35.4222ZM40.8035 167.132C39.1865 167.132 37.8665 165.79 37.8665 164.151C37.8665 162.512 39.1865 161.181 40.8035 161.181C42.4095 161.181 43.7295 162.512 43.7295 164.151C43.7295 165.79 42.4095 167.132 40.8035 167.132ZM40.8035 166.395C41.9365 166.395 42.8715 165.383 42.8715 164.151C42.8715 162.919 41.9365 161.918 40.8035 161.918C39.6595 161.918 38.7245 162.919 38.7245 164.151C38.7245 165.383 39.6595 166.395 40.8035 166.395ZM48.0456 161.181C49.3106 161.181 50.1796 162.072 50.1796 163.381V167H49.3546V163.491C49.3546 162.556 48.7716 161.918 47.9356 161.918C46.9676 161.918 46.1756 162.578 46.1756 163.381V167H45.3506V161.313H46.1756V162.215C46.5056 161.61 47.2316 161.181 48.0456 161.181Z" fill="white"/>
<path d="M24.1957 189V181.443H27.6607C28.8817 181.443 29.7397 182.224 29.7397 183.324C29.7397 184.127 29.3437 184.589 28.6617 184.985C29.5307 185.425 30.0367 186.107 30.0367 186.932C30.0367 188.142 29.1017 189 27.7927 189H24.1957ZM25.0537 184.644H27.4407C28.2767 184.644 28.8707 184.138 28.8707 183.434C28.8707 182.73 28.2767 182.224 27.4407 182.224H25.0537V184.644ZM25.0537 188.219H27.5727C28.5077 188.219 29.1677 187.636 29.1677 186.822C29.1677 186.008 28.5077 185.425 27.5727 185.425H25.0537V188.219ZM34.3301 189.132C32.7131 189.132 31.3931 187.79 31.3931 186.151C31.3931 184.512 32.7131 183.181 34.3301 183.181C35.9361 183.181 37.2561 184.512 37.2561 186.151C37.2561 187.79 35.9361 189.132 34.3301 189.132ZM34.3301 188.395C35.4631 188.395 36.3981 187.383 36.3981 186.151C36.3981 184.919 35.4631 183.918 34.3301 183.918C33.1861 183.918 32.2511 184.919 32.2511 186.151C32.2511 187.383 33.1861 188.395 34.3301 188.395ZM43.1231 181.311H43.9481V189H43.1231V187.933C42.6941 188.681 41.9681 189.132 41.0551 189.132C39.5591 189.132 38.4371 187.9 38.4371 186.151C38.4371 184.413 39.5591 183.181 41.0551 183.181C41.9681 183.181 42.6941 183.632 43.1231 184.38V181.311ZM41.2091 188.395C42.3311 188.395 43.1231 187.46 43.1231 186.151C43.1231 184.842 42.3311 183.918 41.2091 183.918C40.0981 183.918 39.3061 184.842 39.3061 186.151C39.3061 187.46 40.0981 188.395 41.2091 188.395ZM46.5545 190.98C46.2245 190.98 45.9165 190.914 45.6525 190.793L45.8505 190.089C46.0485 190.188 46.2795 190.232 46.5215 190.232C46.8845 190.232 47.1265 190.111 47.3465 189.726L47.6765 189.022L45.2015 183.313H46.1145L48.1055 188.043L49.9865 183.313H50.8775L48.2815 189.638C47.8855 190.606 47.3355 190.969 46.5545 190.98Z" fill="white"/>
</svg>
