<?xml version="1.0" encoding="UTF-8"?><svg id="illustrations" xmlns="http://www.w3.org/2000/svg" viewBox="0 0 928 192"><defs><style>.cls-1{fill:none;stroke:#495a67;stroke-miterlimit:10;stroke-width:2px;}.cls-2{fill:#75b5d4;}.cls-2,.cls-3,.cls-4,.cls-5,.cls-6,.cls-7,.cls-8,.cls-9,.cls-10,.cls-11,.cls-12,.cls-13,.cls-14{stroke-width:0px;}.cls-3{fill:#314351;}.cls-4{fill:#195f88;}.cls-5{fill:#1983b8;}.cls-6{fill:#e25f1e;}.cls-7{fill:#ad4800;}.cls-8{fill:#b2e0f4;}.cls-9{fill:#009adb;}.cls-10{fill:#ff8f3d;}.cls-11{fill:#66c2e9;}.cls-12{fill:#fff;}.cls-13{fill:#ffbc8b;}.cls-14{fill:#ffddc4;}</style></defs><polygon class="cls-6" points="117.42 131.16 117.42 131.19 157.96 154.6 198.51 131.19 198.51 131.16 157.96 107.75 117.42 131.16"/><polygon class="cls-10" points="117.42 116.14 117.42 116.17 157.96 139.58 198.51 116.17 198.51 116.14 157.96 92.73 117.42 116.14"/><polygon class="cls-13" points="117.42 101.11 117.42 101.14 157.96 124.55 198.51 101.14 198.51 101.11 157.96 77.7 117.42 101.11"/><polygon class="cls-14" points="117.42 84.88 117.42 84.91 157.96 108.32 198.51 84.91 198.51 84.88 157.96 61.47 117.42 84.88"/><polygon class="cls-1" points="219.6 145.06 219.6 73.6 157.72 37.87 95.83 73.6 95.83 145.06 157.72 180.79 219.6 145.06"/><polygon class="cls-11" points="915 65.95 903.86 59.51 903.86 72.37 915 78.8 926.14 72.37 926.14 59.51 915 65.95"/><polygon class="cls-8" points="903.86 59.54 903.86 59.55 915 65.98 926.14 59.55 926.14 59.54 915 53.11 903.86 59.54"/><polygon class="cls-10" points="664.82 130.14 647.83 120.33 647.83 139.94 664.82 149.75 681.81 139.94 681.81 120.33 664.82 130.14"/><polygon class="cls-14" points="647.83 120.36 647.83 120.38 664.82 130.19 681.81 120.38 681.81 120.36 664.82 110.55 647.83 120.36"/><path class="cls-1" d="m451.54,69.48v-21.19L368.91.59l-82.63,47.71v95.41l82.63,47.71,82.63-47.71v-5.33"/><polygon class="cls-11" points="110.13 80.98 110.13 47.72 81.32 31.08 52.51 47.72 52.51 80.98 81.32 97.62 110.13 80.98"/><path class="cls-8" d="m78.69,54.32h-.01s-1.4,3.74-1.4,3.74c-1.5,4.02-1.85,8.38-1,12.58l4.23,20.91c.03.28.27.49.56.49s.54-.21.56-.49l4.22-20.81c.86-4.25.5-8.67-1.04-12.72-.69-1.8-1.27-3.37-1.34-3.65"/><path class="cls-9" d="m78.67,54.32l-1.4,3.74c-.5,1.34-.87,2.71-1.11,4.11h9.79c-.25-1.41-.63-2.8-1.15-4.15-.69-1.8-1.27-3.37-1.34-3.65l-4.78-.05s-.01,0-.01,0Z"/><path class="cls-12" d="m88.07,48.57c-.37,3.53-3.04,6.42-6.78,6.42s-7.14-2.89-6.78-6.42c.47-4.57,4.91-3.99,6.23-6.27,1.79-3.07.16-5.83.16-5.83,0,0,3.43,1.18,5.61,4.43,1.65,2.45,1.79,5.46,1.56,7.67Z"/><path class="cls-2" d="m82.51,53.19c-.19,0-.36-.1-.45-.28-.12-.25-.01-.54.24-.66,2.32-1.1,3.66-3.62,3.43-6.41-.02-.27.18-.51.45-.54.27-.02.51.18.54.45.27,3.21-1.3,6.12-4,7.4-.07.03-.14.05-.21.05Z"/><polygon class="cls-9" points="311.99 93.06 311.99 33.48 260.39 3.7 208.8 33.48 208.8 93.06 260.39 122.85 311.99 93.06"/><rect class="cls-8" x="233.01" y="37.03" width="54.64" height="54.64"/><path class="cls-4" d="m256.1,52.16h-12.41v-7.71h33.4v7.71h-12.47v32.12h-8.52v-32.12Z"/><rect class="cls-4" x="284.69" y="34.24" width="5.74" height="5.74" transform="translate(324.67 -250.45) rotate(90)"/><rect class="cls-4" x="230.2" y="34.24" width="5.74" height="5.74" transform="translate(270.18 -195.96) rotate(90)"/><rect class="cls-4" x="284.69" y="88.74" width="5.74" height="5.74" transform="translate(379.17 -195.95) rotate(90)"/><rect class="cls-4" x="230.2" y="88.74" width="5.74" height="5.74" transform="translate(324.68 -141.46) rotate(90)"/><polygon class="cls-8" points="787.53 81.62 787.53 59.36 768.26 48.23 748.98 59.36 748.98 81.62 768.26 92.75 787.53 81.62"/><path class="cls-3" d="m750.23,74.7c-.15,0-.3-.04-.44-.12l-12.9-7.45c-.27-.16-.44-.45-.44-.76v-14.9c0-.31.17-.6.44-.76l12.9-7.45c.27-.16.61-.16.88,0l12.9,7.45c.27.16.44.45.44.76v14.9c0,.31-.17.6-.44.76l-12.9,7.45c-.14.08-.29.12-.44.12Zm-12.02-8.83l12.02,6.94,12.02-6.94v-13.88l-12.02-6.94-12.02,6.94v13.88Zm24.93.51h0,0Z"/><path class="cls-8" d="m40.03,148.33c0-1.66-1.34-3-3-3-.23,0-.45.03-.67.08.04-.3.06-.62.06-.93,0-3.79-3.07-6.86-6.86-6.86-.43,0-.85.04-1.26.11-1.43-3.83-5.12-6.56-9.45-6.56-5.27,0-9.6,4.05-10.04,9.21-.7-.31-1.48-.48-2.29-.48-3.16,0-5.72,2.56-5.72,5.72s2.56,5.72,5.72,5.72c.03,0,.06,0,.09,0h0s30.45,0,30.45,0h0c1.64-.02,2.97-1.35,2.97-3Z"/><rect class="cls-13" x="383.39" y="74.35" width="40.06" height="27.48"/><rect class="cls-10" x="423.45" y="74.35" width="40.06" height="27.48"/><rect class="cls-6" x="463.5" y="74.35" width="40.06" height="27.48"/><rect class="cls-7" x="503.56" y="74.35" width="40.06" height="27.48"/><rect class="cls-11" x="383.39" y="106.33" width="40.06" height="27.48"/><rect class="cls-14" x="343.33" y="74.35" width="40.06" height="27.48"/><rect class="cls-8" x="343.33" y="106.33" width="40.06" height="27.48"/><rect class="cls-9" x="423.45" y="106.33" width="40.06" height="27.48"/><rect class="cls-5" x="463.5" y="106.33" width="40.06" height="27.48"/><rect class="cls-4" x="503.56" y="106.33" width="40.06" height="27.48"/><path class="cls-8" d="m615.91,80.48c0-3.88-3.15-7.03-7.03-7.03-.54,0-1.06.06-1.56.18.1-.71.15-1.44.15-2.18,0-8.87-7.19-16.07-16.07-16.07-1,0-1.99.09-2.94.27-3.34-8.98-12-15.38-22.15-15.38-12.35,0-22.49,9.48-23.53,21.57-1.64-.72-3.46-1.12-5.37-1.12-7.4,0-13.4,6-13.4,13.4s6,13.4,13.4,13.4c.07,0,.14,0,.2,0h0s71.34,0,71.34,0h0c3.85-.04,6.96-3.17,6.96-7.03Z"/><path class="cls-4" d="m582.87,65.7v-2.48l-4.29-1.36c-.35-1.63-1-3.15-1.9-4.5l2.09-4.03-1.75-1.75-4.06,2.1c-1.33-.87-2.83-1.5-4.44-1.83l-1.39-4.37h-2.48l-1.39,4.37c-1.61.33-3.11.96-4.44,1.83l-4.06-2.1-1.75,1.75,2.09,4.03c-.9,1.34-1.55,2.86-1.9,4.5l-4.29,1.36v2.48l4.25,1.35c.33,1.68.98,3.24,1.88,4.62l-2.03,3.92,1.75,1.75,3.9-2.02c1.39.94,2.97,1.61,4.67,1.95l1.32,4.17h2.48l1.32-4.17c1.7-.34,3.28-1.01,4.67-1.95l3.9,2.02,1.75-1.75-2.03-3.92c.91-1.38,1.55-2.94,1.88-4.62l4.25-1.35Zm-16.86,3.02c-2.42,0-4.39-1.96-4.39-4.39s1.96-4.39,4.39-4.39,4.39,1.96,4.39,4.39-1.96,4.39-4.39,4.39Z"/></svg>