<svg width="233" height="192" viewBox="0 0 233 192" fill="none" xmlns="http://www.w3.org/2000/svg">
<path d="M10.88 13.9912L16 19.2889L21.12 13.9912C21.4097 13.6905 21.4007 13.2119 21.1 12.9223C20.7993 12.6326 20.3208 12.6416 20.0311 12.9423L16 17.1156L11.9645 12.9423C11.6748 12.6416 11.1963 12.6326 10.8956 12.9223C10.5949 13.2119 10.5859 13.6905 10.8756 13.9912H10.88Z" fill="#CBD4D8"/>
<mask id="mask0_10477_4511" style="mask-type:luminance" maskUnits="userSpaceOnUse" x="10" y="12" width="12" height="8">
<path d="M10.88 13.9912L16 19.2889L21.12 13.9912C21.4097 13.6905 21.4007 13.2119 21.1 12.9223C20.7993 12.6326 20.3208 12.6416 20.0311 12.9423L16 17.1156L11.9645 12.9423C11.6748 12.6416 11.1963 12.6326 10.8956 12.9223C10.5949 13.2119 10.5859 13.6905 10.8756 13.9912H10.88Z" fill="white"/>
</mask>
<g mask="url(#mask0_10477_4511)">
<rect x="24" y="24" width="16" height="16" transform="rotate(-180 24 24)" fill="#CBD4D8"/>
</g>
<path fill-rule="evenodd" clip-rule="evenodd" d="M47.2978 12.4444H53.3334C53.8243 12.4444 54.2223 12.8424 54.2223 13.3333V21.3333C54.2223 21.8242 53.8243 22.2222 53.3334 22.2222H42.6667C42.1758 22.2222 41.7778 21.8242 41.7778 21.3333V11.5555C41.7778 11.0646 42.1758 10.6666 42.6667 10.6666H45.5512C45.8357 10.6659 46.1033 10.8014 46.2712 11.0311L47.2978 12.4444ZM42.6667 21.3333H53.3334V13.3333H47.0712C46.9289 13.3337 46.7951 13.2659 46.7112 13.1511L45.5512 11.5555H42.6667V13.3333H46.8045C46.8045 13.8242 46.4065 14.2222 45.9156 14.2222H42.6667V21.3333Z" fill="#E3EAED"/>
<path d="M65.417 20V11.069H68.433C71.267 11.069 73.269 12.915 73.269 15.528C73.269 18.141 71.267 20 68.433 20H65.417ZM66.431 19.077H68.433C70.669 19.077 72.242 17.608 72.242 15.528C72.242 13.461 70.669 11.992 68.433 11.992H66.431V19.077ZM77.8562 19.285C78.6492 19.285 79.5592 18.934 79.9752 18.479L80.5732 19.116C79.9882 19.753 78.8052 20.156 77.8692 20.156C76.0752 20.156 74.4632 18.687 74.4632 16.62C74.4632 14.618 75.9712 13.123 77.7782 13.123C79.8062 13.123 80.9632 14.657 80.9632 17.01H75.4642C75.6072 18.323 76.5302 19.285 77.8562 19.285ZM77.8172 13.994C76.6212 13.994 75.6592 14.839 75.4772 16.139H80.0012C79.8712 14.93 79.1562 13.994 77.8172 13.994ZM84.5813 20.156C83.6453 20.156 82.6053 19.805 81.7993 19.155L82.3063 18.44C83.0733 18.999 83.8403 19.285 84.5813 19.285C85.4653 19.285 86.0633 18.869 86.0633 18.232C86.0633 17.504 85.2833 17.27 84.3733 17.01C82.7483 16.542 82.1243 16.061 82.1243 15.099C82.1243 13.877 83.1383 13.123 84.4773 13.123C85.3093 13.123 86.1673 13.409 86.8823 13.877L86.4143 14.631C85.7383 14.202 85.0753 13.994 84.4773 13.994C83.7233 13.994 83.0993 14.332 83.0993 14.982C83.0993 15.567 83.5933 15.749 84.8413 16.152C85.9203 16.49 87.0383 16.854 87.0383 18.128C87.0383 19.363 85.9723 20.156 84.5813 20.156ZM88.6093 20V10.913H89.5843V16.997L93.2633 13.279H94.5113L91.4823 16.36L94.3423 20H93.1203L90.7933 17.023L89.5843 18.219V20H88.6093ZM98.2441 19.012L98.7251 19.727C98.3741 20 97.9321 20.156 97.4771 20.156C96.5151 20.156 95.8391 19.441 95.8391 18.44V14.15H94.7861V13.279H95.8391V11.433H96.8141V13.279H98.4651V14.15H96.8141V18.44C96.8141 18.934 97.1521 19.285 97.5421 19.285C97.8411 19.285 98.1011 19.168 98.2441 19.012ZM102.912 20.156C101.001 20.156 99.4405 18.57 99.4405 16.633C99.4405 14.696 101.001 13.123 102.912 13.123C104.81 13.123 106.37 14.696 106.37 16.633C106.37 18.57 104.81 20.156 102.912 20.156ZM102.912 19.285C104.251 19.285 105.356 18.089 105.356 16.633C105.356 15.177 104.251 13.994 102.912 13.994C101.56 13.994 100.455 15.177 100.455 16.633C100.455 18.089 101.56 19.285 102.912 19.285ZM111.368 13.123C113.136 13.123 114.462 14.579 114.462 16.633C114.462 18.7 113.136 20.156 111.368 20.156C110.289 20.156 109.431 19.623 108.924 18.739V22.236H107.949V13.279H108.924V14.54C109.431 13.656 110.289 13.123 111.368 13.123ZM111.186 19.285C112.499 19.285 113.435 18.18 113.435 16.633C113.435 15.086 112.499 13.994 111.186 13.994C109.86 13.994 108.924 15.086 108.924 16.633C108.924 18.18 109.86 19.285 111.186 19.285Z" fill="#E3EAED"/>
<path d="M60 48C60 54.6274 54.6274 60 48 60C41.3726 60 36 54.6274 36 48C36 41.3726 41.3726 36 48 36C54.6274 36 60 41.3726 60 48ZM37.9611 48C37.9611 53.5443 42.4557 58.0389 48 58.0389C53.5443 58.0389 58.0389 53.5443 58.0389 48C58.0389 42.4557 53.5443 37.9611 48 37.9611C42.4557 37.9611 37.9611 42.4557 37.9611 48Z" fill="#2D4048"/>
<path d="M55.6441 57.2503C57.5459 55.6787 58.9171 53.5591 59.5709 51.1802C60.2248 48.8013 60.1295 46.2787 59.298 43.9559C58.4666 41.6331 56.9394 39.623 54.9245 38.1994C52.9095 36.7758 50.5047 36.0078 48.0376 36.0001L48.0315 37.9563C50.0964 37.9628 52.1092 38.6056 53.7956 39.7971C55.4821 40.9887 56.7603 42.6711 57.4562 44.6152C58.1521 46.5593 58.2318 48.6707 57.6846 50.6618C57.1373 52.6529 55.9897 54.4269 54.3979 55.7423L55.6441 57.2503Z" fill="#2EC0FF"/>
<path fill-rule="evenodd" clip-rule="evenodd" d="M79.2978 44.4444H85.3334C85.8243 44.4444 86.2223 44.8424 86.2223 45.3333V53.3333C86.2223 53.8242 85.8243 54.2222 85.3334 54.2222H74.6667C74.1758 54.2222 73.7778 53.8242 73.7778 53.3333V43.5555C73.7778 43.0646 74.1758 42.6666 74.6667 42.6666H77.5512C77.8357 42.6659 78.1033 42.8014 78.2712 43.0311L79.2978 44.4444ZM74.6667 53.3333H85.3334V45.3333H79.0712C78.9289 45.3337 78.7951 45.2659 78.7112 45.1511L77.5512 43.5555H74.6667V45.3333H78.8045C78.8045 45.8242 78.4065 46.2222 77.9156 46.2222H74.6667V53.3333Z" fill="#E3EAED"/>
<path d="M104.203 52L103.306 49.972H98.327L97.43 52H96.325L100.264 43.069H101.369L105.308 52H104.203ZM98.743 49.01H102.89L100.823 44.317L98.743 49.01ZM110.086 45.123C111.854 45.123 113.18 46.579 113.18 48.633C113.18 50.7 111.854 52.156 110.086 52.156C109.007 52.156 108.149 51.623 107.642 50.739V54.236H106.667V45.279H107.642V46.54C108.149 45.656 109.007 45.123 110.086 45.123ZM109.904 51.285C111.217 51.285 112.153 50.18 112.153 48.633C112.153 47.086 111.217 45.994 109.904 45.994C108.578 45.994 107.642 47.086 107.642 48.633C107.642 50.18 108.578 51.285 109.904 51.285ZM118.238 45.123C120.006 45.123 121.332 46.579 121.332 48.633C121.332 50.7 120.006 52.156 118.238 52.156C117.159 52.156 116.301 51.623 115.794 50.739V54.236H114.819V45.279H115.794V46.54C116.301 45.656 117.159 45.123 118.238 45.123ZM118.056 51.285C119.369 51.285 120.305 50.18 120.305 48.633C120.305 47.086 119.369 45.994 118.056 45.994C116.73 45.994 115.794 47.086 115.794 48.633C115.794 50.18 116.73 51.285 118.056 51.285ZM122.971 52V42.913H123.946V52H122.971ZM126.602 44.057C126.238 44.057 125.952 43.758 125.952 43.407C125.952 43.069 126.238 42.77 126.602 42.77C126.953 42.77 127.239 43.069 127.239 43.407C127.239 43.758 126.953 44.057 126.602 44.057ZM126.108 52V45.279H127.083V52H126.108ZM132.131 52.156C130.246 52.156 128.647 50.544 128.647 48.633C128.647 46.722 130.246 45.123 132.131 45.123C133.041 45.123 133.886 45.5 134.523 46.111L133.847 46.774C133.405 46.293 132.794 45.994 132.131 45.994C130.792 45.994 129.674 47.203 129.674 48.633C129.674 50.076 130.792 51.285 132.131 51.285C132.807 51.285 133.431 50.973 133.886 50.466L134.562 51.129C133.925 51.766 133.067 52.156 132.131 52.156ZM138.291 45.123C140.124 45.123 141.021 46.28 141.021 47.905V52H140.046V50.947C139.565 51.74 138.564 52.156 137.68 52.156C136.263 52.156 135.223 51.337 135.223 50.011C135.223 48.672 136.419 47.775 137.862 47.775C138.59 47.775 139.357 47.931 140.046 48.152V47.905C140.046 46.995 139.682 45.955 138.226 45.955C137.55 45.955 136.874 46.254 136.263 46.566L135.873 45.773C136.835 45.292 137.641 45.123 138.291 45.123ZM137.849 51.298C138.733 51.298 139.786 50.843 140.046 49.894V48.867C139.435 48.698 138.746 48.594 138.018 48.594C137.017 48.594 136.172 49.166 136.172 49.972C136.172 50.804 136.9 51.298 137.849 51.298ZM145.623 51.012L146.104 51.727C145.753 52 145.311 52.156 144.856 52.156C143.894 52.156 143.218 51.441 143.218 50.44V46.15H142.165V45.279H143.218V43.433H144.193V45.279H145.844V46.15H144.193V50.44C144.193 50.934 144.531 51.285 144.921 51.285C145.22 51.285 145.48 51.168 145.623 51.012ZM147.898 44.057C147.534 44.057 147.248 43.758 147.248 43.407C147.248 43.069 147.534 42.77 147.898 42.77C148.249 42.77 148.535 43.069 148.535 43.407C148.535 43.758 148.249 44.057 147.898 44.057ZM147.404 52V45.279H148.379V52H147.404ZM153.428 52.156C151.517 52.156 149.957 50.57 149.957 48.633C149.957 46.696 151.517 45.123 153.428 45.123C155.326 45.123 156.886 46.696 156.886 48.633C156.886 50.57 155.326 52.156 153.428 52.156ZM153.428 51.285C154.767 51.285 155.872 50.089 155.872 48.633C155.872 47.177 154.767 45.994 153.428 45.994C152.076 45.994 150.971 47.177 150.971 48.633C150.971 50.089 152.076 51.285 153.428 51.285ZM161.65 45.123C163.145 45.123 164.172 46.176 164.172 47.723V52H163.197V47.853C163.197 46.748 162.508 45.994 161.52 45.994C160.376 45.994 159.44 46.774 159.44 47.723V52H158.465V45.279H159.44V46.345C159.83 45.63 160.688 45.123 161.65 45.123ZM168.253 52.156C167.317 52.156 166.277 51.805 165.471 51.155L165.978 50.44C166.745 50.999 167.512 51.285 168.253 51.285C169.137 51.285 169.735 50.869 169.735 50.232C169.735 49.504 168.955 49.27 168.045 49.01C166.42 48.542 165.796 48.061 165.796 47.099C165.796 45.877 166.81 45.123 168.149 45.123C168.981 45.123 169.839 45.409 170.554 45.877L170.086 46.631C169.41 46.202 168.747 45.994 168.149 45.994C167.395 45.994 166.771 46.332 166.771 46.982C166.771 47.567 167.265 47.749 168.513 48.152C169.592 48.49 170.71 48.854 170.71 50.128C170.71 51.363 169.644 52.156 168.253 52.156Z" fill="#E3EAED"/>
<path d="M42.88 77.9912L48 83.2889L53.12 77.9912C53.4097 77.6905 53.4007 77.2119 53.1 76.9223C52.7993 76.6326 52.3208 76.6416 52.0311 76.9423L48 81.1156L43.9645 76.9423C43.6748 76.6416 43.1963 76.6326 42.8956 76.9223C42.5949 77.2119 42.5859 77.6905 42.8756 77.9912H42.88Z" fill="#CBD4D8"/>
<mask id="mask1_10477_4511" style="mask-type:luminance" maskUnits="userSpaceOnUse" x="42" y="76" width="12" height="8">
<path d="M42.88 77.9912L48 83.2889L53.12 77.9912C53.4097 77.6905 53.4007 77.2119 53.1 76.9223C52.7993 76.6326 52.3208 76.6416 52.0311 76.9423L48 81.1156L43.9645 76.9423C43.6748 76.6416 43.1963 76.6326 42.8956 76.9223C42.5949 77.2119 42.5859 77.6905 42.8756 77.9912H42.88Z" fill="white"/>
</mask>
<g mask="url(#mask1_10477_4511)">
<rect x="56" y="88" width="16" height="16" transform="rotate(-180 56 88)" fill="#CBD4D8"/>
</g>
<path fill-rule="evenodd" clip-rule="evenodd" d="M79.2978 76.4444H85.3334C85.8243 76.4444 86.2223 76.8424 86.2223 77.3333V85.3333C86.2223 85.8242 85.8243 86.2222 85.3334 86.2222H74.6667C74.1758 86.2222 73.7778 85.8242 73.7778 85.3333V75.5555C73.7778 75.0646 74.1758 74.6666 74.6667 74.6666H77.5512C77.8357 74.6659 78.1033 74.8014 78.2712 75.0311L79.2978 76.4444ZM74.6667 85.3333H85.3334V77.3333H79.0712C78.9289 77.3337 78.7951 77.2659 78.7112 77.1511L77.5512 75.5555H74.6667V77.3333H78.8045C78.8045 77.8242 78.4065 78.2222 77.9156 78.2222H74.6667V85.3333Z" fill="#E3EAED"/>
<path d="M103.826 76.031H98.444V78.969H103.293V79.931H98.444V84H97.417V75.069H103.826V76.031ZM105.828 76.057C105.464 76.057 105.178 75.758 105.178 75.407C105.178 75.069 105.464 74.77 105.828 74.77C106.179 74.77 106.465 75.069 106.465 75.407C106.465 75.758 106.179 76.057 105.828 76.057ZM105.334 84V77.279H106.309V84H105.334ZM108.471 84V74.913H109.446V84H108.471ZM114.442 83.285C115.235 83.285 116.145 82.934 116.561 82.479L117.159 83.116C116.574 83.753 115.391 84.156 114.455 84.156C112.661 84.156 111.049 82.687 111.049 80.62C111.049 78.618 112.557 77.123 114.364 77.123C116.392 77.123 117.549 78.657 117.549 81.01H112.05C112.193 82.323 113.116 83.285 114.442 83.285ZM114.403 77.994C113.207 77.994 112.245 78.839 112.063 80.139H116.587C116.457 78.93 115.742 77.994 114.403 77.994ZM121.167 84.156C120.231 84.156 119.191 83.805 118.385 83.155L118.892 82.44C119.659 82.999 120.426 83.285 121.167 83.285C122.051 83.285 122.649 82.869 122.649 82.232C122.649 81.504 121.869 81.27 120.959 81.01C119.334 80.542 118.71 80.061 118.71 79.099C118.71 77.877 119.724 77.123 121.063 77.123C121.895 77.123 122.753 77.409 123.468 77.877L123 78.631C122.324 78.202 121.661 77.994 121.063 77.994C120.309 77.994 119.685 78.332 119.685 78.982C119.685 79.567 120.179 79.749 121.427 80.152C122.506 80.49 123.624 80.854 123.624 82.128C123.624 83.363 122.558 84.156 121.167 84.156Z" fill="#E3EAED"/>
<rect width="16" height="16" transform="translate(104 104)" fill="#22343C"/>
<path fill-rule="evenodd" clip-rule="evenodd" d="M113.729 105.778H107.48C107.022 105.79 106.659 106.169 106.667 106.627V117.373C106.659 117.831 107.022 118.21 107.48 118.222H116.52C116.978 118.21 117.341 117.831 117.333 117.373V109.298L113.729 105.778ZM113.596 106.884L116.262 109.507H113.596V106.884ZM107.556 106.667V117.333H116.444V110.222H112.889V106.667H107.556Z" fill="#E3EAED"/>
<path d="M133.304 116.156C130.834 116.156 128.728 114.037 128.728 111.528C128.728 109.019 130.834 106.913 133.304 106.913C134.539 106.913 135.683 107.433 136.515 108.278L135.826 108.98C135.176 108.291 134.279 107.849 133.304 107.849C131.38 107.849 129.755 109.539 129.755 111.528C129.755 113.53 131.38 115.22 133.304 115.22C134.279 115.22 135.176 114.778 135.826 114.089L136.515 114.791C135.683 115.623 134.539 116.156 133.304 116.156ZM140.918 116.156C139.007 116.156 137.447 114.57 137.447 112.633C137.447 110.696 139.007 109.123 140.918 109.123C142.816 109.123 144.376 110.696 144.376 112.633C144.376 114.57 142.816 116.156 140.918 116.156ZM140.918 115.285C142.257 115.285 143.362 114.089 143.362 112.633C143.362 111.177 142.257 109.994 140.918 109.994C139.566 109.994 138.461 111.177 138.461 112.633C138.461 114.089 139.566 115.285 140.918 115.285ZM147.814 116L144.954 109.279H146.046L148.282 114.856L150.479 109.279H151.571L148.75 116H147.814ZM155.57 115.285C156.363 115.285 157.273 114.934 157.689 114.479L158.287 115.116C157.702 115.753 156.519 116.156 155.583 116.156C153.789 116.156 152.177 114.687 152.177 112.62C152.177 110.618 153.685 109.123 155.492 109.123C157.52 109.123 158.677 110.657 158.677 113.01H153.178C153.321 114.323 154.244 115.285 155.57 115.285ZM155.531 109.994C154.335 109.994 153.373 110.839 153.191 112.139H157.715C157.585 110.93 156.87 109.994 155.531 109.994ZM161.19 110.592C161.593 109.695 162.555 109.123 163.79 109.123V109.994C162.269 109.994 161.19 110.93 161.19 112.243V116H160.215V109.279H161.19V110.592ZM165.257 112.945V111.996H168.624V112.945H165.257ZM172.068 115.038H176.943V116H171.054V107.069H172.068V115.038ZM181.132 115.285C181.925 115.285 182.835 114.934 183.251 114.479L183.849 115.116C183.264 115.753 182.081 116.156 181.145 116.156C179.351 116.156 177.739 114.687 177.739 112.62C177.739 110.618 179.247 109.123 181.054 109.123C183.082 109.123 184.239 110.657 184.239 113.01H178.74C178.883 114.323 179.806 115.285 181.132 115.285ZM181.093 109.994C179.897 109.994 178.935 110.839 178.753 112.139H183.277C183.147 110.93 182.432 109.994 181.093 109.994ZM188.377 115.012L188.858 115.727C188.507 116 188.065 116.156 187.61 116.156C186.648 116.156 185.972 115.441 185.972 114.44V110.15H184.919V109.279H185.972V107.433H186.947V109.279H188.598V110.15H186.947V114.44C186.947 114.934 187.285 115.285 187.675 115.285C187.974 115.285 188.234 115.168 188.377 115.012ZM192.759 115.012L193.24 115.727C192.889 116 192.447 116.156 191.992 116.156C191.03 116.156 190.354 115.441 190.354 114.44V110.15H189.301V109.279H190.354V107.433H191.329V109.279H192.98V110.15H191.329V114.44C191.329 114.934 191.667 115.285 192.057 115.285C192.356 115.285 192.616 115.168 192.759 115.012ZM197.374 115.285C198.167 115.285 199.077 114.934 199.493 114.479L200.091 115.116C199.506 115.753 198.323 116.156 197.387 116.156C195.593 116.156 193.981 114.687 193.981 112.62C193.981 110.618 195.489 109.123 197.296 109.123C199.324 109.123 200.481 110.657 200.481 113.01H194.982C195.125 114.323 196.048 115.285 197.374 115.285ZM197.335 109.994C196.139 109.994 195.177 110.839 194.995 112.139H199.519C199.389 110.93 198.674 109.994 197.335 109.994ZM202.994 110.592C203.397 109.695 204.359 109.123 205.594 109.123V109.994C204.073 109.994 202.994 110.93 202.994 112.243V116H202.019V109.279H202.994V110.592ZM208.062 116.156C207.659 116.156 207.347 115.831 207.347 115.441C207.347 115.077 207.659 114.752 208.062 114.752C208.439 114.752 208.751 115.077 208.751 115.441C208.751 115.831 208.439 116.156 208.062 116.156ZM216.206 106.913H217.181V116H216.206V114.739C215.699 115.623 214.841 116.156 213.762 116.156C211.994 116.156 210.668 114.7 210.668 112.633C210.668 110.579 211.994 109.123 213.762 109.123C214.841 109.123 215.699 109.656 216.206 110.54V106.913ZM213.944 115.285C215.27 115.285 216.206 114.18 216.206 112.633C216.206 111.086 215.27 109.994 213.944 109.994C212.631 109.994 211.695 111.086 211.695 112.633C211.695 114.18 212.631 115.285 213.944 115.285ZM222.226 116.156C220.315 116.156 218.755 114.57 218.755 112.633C218.755 110.696 220.315 109.123 222.226 109.123C224.124 109.123 225.684 110.696 225.684 112.633C225.684 114.57 224.124 116.156 222.226 116.156ZM222.226 115.285C223.565 115.285 224.67 114.089 224.67 112.633C224.67 111.177 223.565 109.994 222.226 109.994C220.874 109.994 219.769 111.177 219.769 112.633C219.769 114.089 220.874 115.285 222.226 115.285ZM230.15 116.156C228.265 116.156 226.666 114.544 226.666 112.633C226.666 110.722 228.265 109.123 230.15 109.123C231.06 109.123 231.905 109.5 232.542 110.111L231.866 110.774C231.424 110.293 230.813 109.994 230.15 109.994C228.811 109.994 227.693 111.203 227.693 112.633C227.693 114.076 228.811 115.285 230.15 115.285C230.826 115.285 231.45 114.973 231.905 114.466L232.581 115.129C231.944 115.766 231.086 116.156 230.15 116.156Z" fill="#E3EAED"/>
<path fill-rule="evenodd" clip-rule="evenodd" d="M113.729 137.778H107.48C107.022 137.79 106.659 138.169 106.667 138.627V149.373C106.659 149.831 107.022 150.21 107.48 150.222H116.52C116.978 150.21 117.341 149.831 117.333 149.373V141.298L113.729 137.778ZM113.596 138.884L116.262 141.507H113.596V138.884ZM107.556 138.667V149.333H116.444V142.222H112.889V138.667H107.556Z" fill="#E3EAED"/>
<path d="M129.417 148V139.069H130.431L135.969 146.336V139.069H136.983V148H135.969L130.431 140.733V148H129.417ZM142.314 148.156C140.403 148.156 138.843 146.57 138.843 144.633C138.843 142.696 140.403 141.123 142.314 141.123C144.212 141.123 145.772 142.696 145.772 144.633C145.772 146.57 144.212 148.156 142.314 148.156ZM142.314 147.285C143.653 147.285 144.758 146.089 144.758 144.633C144.758 143.177 143.653 141.994 142.314 141.994C140.962 141.994 139.857 143.177 139.857 144.633C139.857 146.089 140.962 147.285 142.314 147.285ZM149.952 147.012L150.433 147.727C150.082 148 149.64 148.156 149.185 148.156C148.223 148.156 147.547 147.441 147.547 146.44V142.15H146.494V141.279H147.547V139.433H148.522V141.279H150.173V142.15H148.522V146.44C148.522 146.934 148.86 147.285 149.25 147.285C149.549 147.285 149.809 147.168 149.952 147.012ZM154.567 147.285C155.36 147.285 156.27 146.934 156.686 146.479L157.284 147.116C156.699 147.753 155.516 148.156 154.58 148.156C152.786 148.156 151.174 146.687 151.174 144.62C151.174 142.618 152.682 141.123 154.489 141.123C156.517 141.123 157.674 142.657 157.674 145.01H152.175C152.318 146.323 153.241 147.285 154.567 147.285ZM154.528 141.994C153.332 141.994 152.37 142.839 152.188 144.139H156.712C156.582 142.93 155.867 141.994 154.528 141.994ZM161.292 148.156C160.356 148.156 159.316 147.805 158.51 147.155L159.017 146.44C159.784 146.999 160.551 147.285 161.292 147.285C162.176 147.285 162.774 146.869 162.774 146.232C162.774 145.504 161.994 145.27 161.084 145.01C159.459 144.542 158.835 144.061 158.835 143.099C158.835 141.877 159.849 141.123 161.188 141.123C162.02 141.123 162.878 141.409 163.593 141.877L163.125 142.631C162.449 142.202 161.786 141.994 161.188 141.994C160.434 141.994 159.81 142.332 159.81 142.982C159.81 143.567 160.304 143.749 161.552 144.152C162.631 144.49 163.749 144.854 163.749 146.128C163.749 147.363 162.683 148.156 161.292 148.156ZM166.308 148.156C165.905 148.156 165.593 147.831 165.593 147.441C165.593 147.077 165.905 146.752 166.308 146.752C166.685 146.752 166.997 147.077 166.997 147.441C166.997 147.831 166.685 148.156 166.308 148.156ZM172.035 147.012L172.516 147.727C172.165 148 171.723 148.156 171.268 148.156C170.306 148.156 169.63 147.441 169.63 146.44V142.15H168.577V141.279H169.63V139.433H170.605V141.279H172.256V142.15H170.605V146.44C170.605 146.934 170.943 147.285 171.333 147.285C171.632 147.285 171.892 147.168 172.035 147.012ZM179.173 148H178.029L176.014 145.322L173.986 148H172.842L175.442 144.568L172.946 141.279H174.09L176.014 143.814L177.925 141.279H179.069L176.586 144.568L179.173 148ZM182.956 147.012L183.437 147.727C183.086 148 182.644 148.156 182.189 148.156C181.227 148.156 180.551 147.441 180.551 146.44V142.15H179.498V141.279H180.551V139.433H181.526V141.279H183.177V142.15H181.526V146.44C181.526 146.934 181.864 147.285 182.254 147.285C182.553 147.285 182.813 147.168 182.956 147.012Z" fill="#E3EAED"/>
<path fill-rule="evenodd" clip-rule="evenodd" d="M113.729 169.778H107.48C107.022 169.79 106.659 170.169 106.667 170.627V181.373C106.659 181.831 107.022 182.21 107.48 182.222H116.52C116.978 182.21 117.341 181.831 117.333 181.373V173.298L113.729 169.778ZM113.596 170.884L116.262 173.507H113.596V170.884ZM107.556 170.667V181.333H116.444V174.222H112.889V170.667H107.556Z" fill="#E3EAED"/>
<path d="M136.333 173.929C136.333 175.45 135.15 176.568 133.551 176.763L135.826 180H134.669L132.407 176.789H130.431V180H129.417V171.069H133.044C134.89 171.069 136.333 172.252 136.333 173.929ZM130.431 172.031V175.827H132.862C134.318 175.827 135.306 175.125 135.306 173.929C135.306 172.733 134.318 172.031 132.862 172.031H130.431ZM140.841 179.285C141.634 179.285 142.544 178.934 142.96 178.479L143.558 179.116C142.973 179.753 141.79 180.156 140.854 180.156C139.06 180.156 137.448 178.687 137.448 176.62C137.448 174.618 138.956 173.123 140.763 173.123C142.791 173.123 143.948 174.657 143.948 177.01H138.449C138.592 178.323 139.515 179.285 140.841 179.285ZM140.802 173.994C139.606 173.994 138.644 174.839 138.462 176.139H142.986C142.856 174.93 142.141 173.994 140.802 173.994ZM147.566 180.156C146.63 180.156 145.59 179.805 144.784 179.155L145.291 178.44C146.058 178.999 146.825 179.285 147.566 179.285C148.45 179.285 149.048 178.869 149.048 178.232C149.048 177.504 148.268 177.27 147.358 177.01C145.733 176.542 145.109 176.061 145.109 175.099C145.109 173.877 146.123 173.123 147.462 173.123C148.294 173.123 149.152 173.409 149.867 173.877L149.399 174.631C148.723 174.202 148.06 173.994 147.462 173.994C146.708 173.994 146.084 174.332 146.084 174.982C146.084 175.567 146.578 175.749 147.826 176.152C148.905 176.49 150.023 176.854 150.023 178.128C150.023 179.363 148.957 180.156 147.566 180.156ZM156.17 173.279H157.145V180H156.17V178.934C155.78 179.649 154.922 180.156 153.96 180.156C152.465 180.156 151.438 179.103 151.438 177.556V173.279H152.413V177.426C152.413 178.531 153.102 179.285 154.09 179.285C155.234 179.285 156.17 178.505 156.17 177.556V173.279ZM166.568 173.123C167.972 173.123 168.96 174.202 168.96 175.723V180H167.985V175.853C167.985 174.761 167.348 173.994 166.438 173.994C165.372 173.994 164.618 174.709 164.618 175.723V180H163.643V175.853C163.643 174.761 163.006 173.994 162.096 173.994C161.03 173.994 160.276 174.709 160.276 175.723V180H159.301V173.279H160.276V174.267C160.614 173.565 161.342 173.123 162.226 173.123C163.292 173.123 164.124 173.747 164.462 174.722C164.67 173.773 165.502 173.123 166.568 173.123ZM173.804 179.285C174.597 179.285 175.507 178.934 175.923 178.479L176.521 179.116C175.936 179.753 174.753 180.156 173.817 180.156C172.023 180.156 170.411 178.687 170.411 176.62C170.411 174.618 171.919 173.123 173.726 173.123C175.754 173.123 176.911 174.657 176.911 177.01H171.412C171.555 178.323 172.478 179.285 173.804 179.285ZM173.765 173.994C172.569 173.994 171.607 174.839 171.425 176.139H175.949C175.819 174.93 175.104 173.994 173.765 173.994ZM179.437 180.156C179.034 180.156 178.722 179.831 178.722 179.441C178.722 179.077 179.034 178.752 179.437 178.752C179.814 178.752 180.126 179.077 180.126 179.441C180.126 179.831 179.814 180.156 179.437 180.156ZM187.582 170.913H188.557V180H187.582V178.739C187.075 179.623 186.217 180.156 185.138 180.156C183.37 180.156 182.044 178.7 182.044 176.633C182.044 174.579 183.37 173.123 185.138 173.123C186.217 173.123 187.075 173.656 187.582 174.54V170.913ZM185.32 179.285C186.646 179.285 187.582 178.18 187.582 176.633C187.582 175.086 186.646 173.994 185.32 173.994C184.007 173.994 183.071 175.086 183.071 176.633C183.071 178.18 184.007 179.285 185.32 179.285ZM193.602 180.156C191.691 180.156 190.131 178.57 190.131 176.633C190.131 174.696 191.691 173.123 193.602 173.123C195.5 173.123 197.06 174.696 197.06 176.633C197.06 178.57 195.5 180.156 193.602 180.156ZM193.602 179.285C194.941 179.285 196.046 178.089 196.046 176.633C196.046 175.177 194.941 173.994 193.602 173.994C192.25 173.994 191.145 175.177 191.145 176.633C191.145 178.089 192.25 179.285 193.602 179.285ZM201.525 180.156C199.64 180.156 198.041 178.544 198.041 176.633C198.041 174.722 199.64 173.123 201.525 173.123C202.435 173.123 203.28 173.5 203.917 174.111L203.241 174.774C202.799 174.293 202.188 173.994 201.525 173.994C200.186 173.994 199.068 175.203 199.068 176.633C199.068 178.076 200.186 179.285 201.525 179.285C202.201 179.285 202.825 178.973 203.28 178.466L203.956 179.129C203.319 179.766 202.461 180.156 201.525 180.156Z" fill="#E3EAED"/>
</svg>
