<svg width="432" height="147" viewBox="0 0 432 147" fill="none" xmlns="http://www.w3.org/2000/svg">
<g filter="url(#filter0_d_10499_14206)">
<rect x="4" width="424" height="139" rx="4" fill="#22343C"/>
<rect x="4.5" y="0.5" width="423" height="138" rx="3.5" stroke="#67777E"/>
</g>
<path d="M26.144 65V61.08L22.266 55.382H23.624L26.718 60.044L29.84 55.382H31.156L27.292 61.08V65H26.144ZM35.6459 65.168C33.5879 65.168 31.9079 63.46 31.9079 61.374C31.9079 59.288 33.5879 57.594 35.6459 57.594C37.6899 57.594 39.3699 59.288 39.3699 61.374C39.3699 63.46 37.6899 65.168 35.6459 65.168ZM35.6459 64.23C37.0879 64.23 38.2779 62.942 38.2779 61.374C38.2779 59.806 37.0879 58.532 35.6459 58.532C34.1899 58.532 32.9999 59.806 32.9999 61.374C32.9999 62.942 34.1899 64.23 35.6459 64.23ZM46.0065 57.762H47.0565V65H46.0065V63.852C45.5865 64.622 44.6625 65.168 43.6265 65.168C42.0165 65.168 40.9105 64.034 40.9105 62.368V57.762H41.9605V62.228C41.9605 63.418 42.7025 64.23 43.7665 64.23C44.9985 64.23 46.0065 63.39 46.0065 62.368V57.762ZM54.5702 65L52.1482 57.762H53.2682L55.0742 63.6L57.0482 57.762H57.9582L59.9322 63.6L61.7382 57.762H62.8582L60.4222 65H59.4282L57.5102 59.218L55.5642 65L54.5702 65ZM67.3065 65.168C65.2485 65.168 63.5685 63.46 63.5685 61.374C63.5685 59.288 65.2485 57.594 67.3065 57.594C69.3505 57.594 71.0305 59.288 71.0305 61.374C71.0305 63.46 69.3505 65.168 67.3065 65.168ZM67.3065 64.23C68.7485 64.23 69.9385 62.942 69.9385 61.374C69.9385 59.806 68.7485 58.532 67.3065 58.532C65.8505 58.532 64.6605 59.806 64.6605 61.374C64.6605 62.942 65.8505 64.23 67.3065 64.23ZM76.1691 57.594C77.7791 57.594 78.8851 58.728 78.8851 60.394V65H77.8351V60.534C77.8351 59.344 77.0931 58.532 76.0291 58.532C74.7971 58.532 73.7891 59.372 73.7891 60.394V65H72.7391V57.762H73.7891V58.91C74.2091 58.14 75.1331 57.594 76.1691 57.594ZM81.5513 58.756L81.0333 58.364C81.4113 57.93 81.6493 57.496 81.7613 57.062C81.3413 57.062 81.0053 56.712 81.0053 56.292C81.0053 55.9 81.3273 55.55 81.7753 55.55C82.3073 55.55 82.6293 56.026 82.6293 56.67C82.6293 57.23 82.3913 57.706 81.5513 58.756ZM87.6711 63.936L88.1891 64.706C87.8111 65 87.3351 65.168 86.8451 65.168C85.8091 65.168 85.0811 64.398 85.0811 63.32V58.7H83.9471V57.762H85.0811V55.774H86.1311V57.762H87.9091V58.7H86.1311V63.32C86.1311 63.852 86.4951 64.23 86.9151 64.23C87.2371 64.23 87.5171 64.104 87.6711 63.936ZM95.9428 57.594C97.9168 57.594 98.8828 58.84 98.8828 60.59V65H97.8328V63.866C97.3148 64.72 96.2368 65.168 95.2848 65.168C93.7588 65.168 92.6388 64.286 92.6388 62.858C92.6388 61.416 93.9268 60.45 95.4808 60.45C96.2648 60.45 97.0908 60.618 97.8328 60.856V60.59C97.8328 59.61 97.4408 58.49 95.8728 58.49C95.1448 58.49 94.4168 58.812 93.7588 59.148L93.3388 58.294C94.3748 57.776 95.2428 57.594 95.9428 57.594ZM95.4668 64.244C96.4188 64.244 97.5528 63.754 97.8328 62.732V61.626C97.1748 61.444 96.4328 61.332 95.6488 61.332C94.5708 61.332 93.6608 61.948 93.6608 62.816C93.6608 63.712 94.4448 64.244 95.4668 64.244ZM104.728 57.594C106.632 57.594 108.06 59.162 108.06 61.374C108.06 63.6 106.632 65.168 104.728 65.168C103.566 65.168 102.642 64.594 102.096 63.642V65H101.046V55.214H102.096V59.12C102.642 58.168 103.566 57.594 104.728 57.594ZM104.532 64.23C105.946 64.23 106.954 63.04 106.954 61.374C106.954 59.708 105.946 58.532 104.532 58.532C103.104 58.532 102.096 59.708 102.096 61.374C102.096 63.04 103.104 64.23 104.532 64.23ZM109.832 65V55.214H110.882V65H109.832ZM116.271 64.23C117.125 64.23 118.105 63.852 118.553 63.362L119.197 64.048C118.567 64.734 117.293 65.168 116.285 65.168C114.353 65.168 112.617 63.586 112.617 61.36C112.617 59.204 114.241 57.594 116.187 57.594C118.371 57.594 119.617 59.246 119.617 61.78H113.695C113.849 63.194 114.843 64.23 116.271 64.23ZM116.229 58.532C114.941 58.532 113.905 59.442 113.709 60.842H118.581C118.441 59.54 117.671 58.532 116.229 58.532ZM127.836 63.936L128.354 64.706C127.976 65 127.5 65.168 127.01 65.168C125.974 65.168 125.246 64.398 125.246 63.32V58.7H124.112V57.762H125.246V55.774H126.296V57.762H128.074V58.7H126.296V63.32C126.296 63.852 126.66 64.23 127.08 64.23C127.402 64.23 127.682 64.104 127.836 63.936ZM132.871 65.168C130.813 65.168 129.133 63.46 129.133 61.374C129.133 59.288 130.813 57.594 132.871 57.594C134.915 57.594 136.595 59.288 136.595 61.374C136.595 63.46 134.915 65.168 132.871 65.168ZM132.871 64.23C134.313 64.23 135.503 62.942 135.503 61.374C135.503 59.806 134.313 58.532 132.871 58.532C131.415 58.532 130.225 59.806 130.225 61.374C130.225 62.942 131.415 64.23 132.871 64.23ZM143.109 59.176C143.543 58.21 144.579 57.594 145.909 57.594V58.532C144.271 58.532 143.109 59.54 143.109 60.954V65H142.059V57.762H143.109V59.176ZM150.561 64.23C151.415 64.23 152.395 63.852 152.843 63.362L153.487 64.048C152.857 64.734 151.583 65.168 150.575 65.168C148.643 65.168 146.907 63.586 146.907 61.36C146.907 59.204 148.531 57.594 150.477 57.594C152.661 57.594 153.907 59.246 153.907 61.78H147.985C148.139 63.194 149.133 64.23 150.561 64.23ZM150.519 58.532C149.231 58.532 148.195 59.442 147.999 60.842H152.871C152.731 59.54 151.961 58.532 150.519 58.532ZM158.68 65.168C156.65 65.168 154.928 63.432 154.928 61.374C154.928 59.316 156.65 57.594 158.68 57.594C159.66 57.594 160.57 58 161.256 58.658L160.528 59.372C160.052 58.854 159.394 58.532 158.68 58.532C157.238 58.532 156.034 59.834 156.034 61.374C156.034 62.928 157.238 64.23 158.68 64.23C159.408 64.23 160.08 63.894 160.57 63.348L161.298 64.062C160.612 64.748 159.688 65.168 158.68 65.168ZM165.839 65.168C163.781 65.168 162.101 63.46 162.101 61.374C162.101 59.288 163.781 57.594 165.839 57.594C167.883 57.594 169.563 59.288 169.563 61.374C169.563 63.46 167.883 65.168 165.839 65.168ZM165.839 64.23C167.281 64.23 168.471 62.942 168.471 61.374C168.471 59.806 167.281 58.532 165.839 58.532C164.383 58.532 163.193 59.806 163.193 61.374C163.193 62.942 164.383 64.23 165.839 64.23ZM173.274 65L170.194 57.762H171.37L173.778 63.768L176.144 57.762H177.32L174.282 65H173.274ZM181.634 64.23C182.488 64.23 183.468 63.852 183.916 63.362L184.56 64.048C183.93 64.734 182.656 65.168 181.648 65.168C179.716 65.168 177.98 63.586 177.98 61.36C177.98 59.204 179.604 57.594 181.55 57.594C183.734 57.594 184.98 59.246 184.98 61.78H179.058C179.212 63.194 180.206 64.23 181.634 64.23ZM181.592 58.532C180.304 58.532 179.268 59.442 179.072 60.842H183.944C183.804 59.54 183.034 58.532 181.592 58.532ZM187.694 59.176C188.128 58.21 189.164 57.594 190.494 57.594V58.532C188.856 58.532 187.694 59.54 187.694 60.954V65H186.644V57.762H187.694V59.176ZM198.65 63.936L199.168 64.706C198.79 65 198.314 65.168 197.824 65.168C196.788 65.168 196.06 64.398 196.06 63.32V58.7H194.926V57.762H196.06V55.774H197.11V57.762H198.888V58.7H197.11V63.32C197.11 63.852 197.474 64.23 197.894 64.23C198.216 64.23 198.496 64.104 198.65 63.936ZM204.007 57.594C205.617 57.594 206.723 58.728 206.723 60.394V65H205.673V60.534C205.673 59.344 204.931 58.532 203.867 58.532C202.635 58.532 201.627 59.372 201.627 60.394V65H200.577V55.214H201.627V58.91C202.047 58.14 202.971 57.594 204.007 57.594ZM209.417 56.446C209.025 56.446 208.717 56.124 208.717 55.746C208.717 55.382 209.025 55.06 209.417 55.06C209.795 55.06 210.103 55.382 210.103 55.746C210.103 56.124 209.795 56.446 209.417 56.446ZM208.885 65V57.762H209.935V65H208.885ZM214.511 65.168C213.503 65.168 212.383 64.79 211.515 64.09L212.061 63.32C212.887 63.922 213.713 64.23 214.511 64.23C215.463 64.23 216.107 63.782 216.107 63.096C216.107 62.312 215.267 62.06 214.287 61.78C212.537 61.276 211.865 60.758 211.865 59.722C211.865 58.406 212.957 57.594 214.399 57.594C215.295 57.594 216.219 57.902 216.989 58.406L216.485 59.218C215.757 58.756 215.043 58.532 214.399 58.532C213.587 58.532 212.915 58.896 212.915 59.596C212.915 60.226 213.447 60.422 214.791 60.856C215.953 61.22 217.157 61.612 217.157 62.984C217.157 64.314 216.009 65.168 214.511 65.168ZM225.72 65.168C223.662 65.168 221.982 63.46 221.982 61.374C221.982 59.288 223.662 57.594 225.72 57.594C227.764 57.594 229.444 59.288 229.444 61.374C229.444 63.46 227.764 65.168 225.72 65.168ZM225.72 64.23C227.162 64.23 228.352 62.942 228.352 61.374C228.352 59.806 227.162 58.532 225.72 58.532C224.264 58.532 223.074 59.806 223.074 61.374C223.074 62.942 224.264 64.23 225.72 64.23ZM234.835 57.594C236.739 57.594 238.167 59.162 238.167 61.374C238.167 63.6 236.739 65.168 234.835 65.168C233.673 65.168 232.749 64.594 232.203 63.642V67.408H231.153V57.762H232.203V59.12C232.749 58.168 233.673 57.594 234.835 57.594ZM234.639 64.23C236.053 64.23 237.061 63.04 237.061 61.374C237.061 59.708 236.053 58.532 234.639 58.532C233.211 58.532 232.203 59.708 232.203 61.374C232.203 63.04 233.211 64.23 234.639 64.23ZM242.991 64.23C243.845 64.23 244.825 63.852 245.273 63.362L245.917 64.048C245.287 64.734 244.013 65.168 243.005 65.168C241.073 65.168 239.337 63.586 239.337 61.36C239.337 59.204 240.961 57.594 242.907 57.594C245.091 57.594 246.337 59.246 246.337 61.78H240.415C240.569 63.194 241.563 64.23 242.991 64.23ZM242.949 58.532C241.661 58.532 240.625 59.442 240.429 60.842H245.301C245.161 59.54 244.391 58.532 242.949 58.532ZM249.052 59.176C249.486 58.21 250.522 57.594 251.852 57.594V58.532C250.214 58.532 249.052 59.54 249.052 60.954V65H248.002V57.762H249.052V59.176ZM256.042 57.594C258.016 57.594 258.982 58.84 258.982 60.59V65H257.932V63.866C257.414 64.72 256.336 65.168 255.384 65.168C253.858 65.168 252.738 64.286 252.738 62.858C252.738 61.416 254.026 60.45 255.58 60.45C256.364 60.45 257.19 60.618 257.932 60.856V60.59C257.932 59.61 257.54 58.49 255.972 58.49C255.244 58.49 254.516 58.812 253.858 59.148L253.438 58.294C254.474 57.776 255.342 57.594 256.042 57.594ZM255.566 64.244C256.518 64.244 257.652 63.754 257.932 62.732V61.626C257.274 61.444 256.532 61.332 255.748 61.332C254.67 61.332 253.76 61.948 253.76 62.816C253.76 63.712 254.544 64.244 255.566 64.244ZM263.945 63.936L264.463 64.706C264.085 65 263.609 65.168 263.119 65.168C262.083 65.168 261.355 64.398 261.355 63.32V58.7H260.221V57.762H261.355V55.774H262.405V57.762H264.183V58.7H262.405V63.32C262.405 63.852 262.769 64.23 263.189 64.23C263.511 64.23 263.791 64.104 263.945 63.936ZM266.404 56.446C266.012 56.446 265.704 56.124 265.704 55.746C265.704 55.382 266.012 55.06 266.404 55.06C266.782 55.06 267.09 55.382 267.09 55.746C267.09 56.124 266.782 56.446 266.404 56.446ZM265.872 65V57.762H266.922V65H265.872ZM272.366 65.168C270.308 65.168 268.628 63.46 268.628 61.374C268.628 59.288 270.308 57.594 272.366 57.594C274.41 57.594 276.09 59.288 276.09 61.374C276.09 63.46 274.41 65.168 272.366 65.168ZM272.366 64.23C273.808 64.23 274.998 62.942 274.998 61.374C274.998 59.806 273.808 58.532 272.366 58.532C270.91 58.532 269.72 59.806 269.72 61.374C269.72 62.942 270.91 64.23 272.366 64.23ZM281.228 57.594C282.838 57.594 283.944 58.728 283.944 60.394V65H282.894V60.534C282.894 59.344 282.152 58.532 281.088 58.532C279.856 58.532 278.848 59.372 278.848 60.394V65H277.798V57.762H278.848V58.91C279.268 58.14 280.192 57.594 281.228 57.594Z" fill="#E3EAED"/>
<path d="M254.14 109H253.14V110H254.14V109ZM254.14 100.756V99.756H253.14V100.756H254.14ZM255.628 100.756L256.427 100.155L256.127 99.756H255.628V100.756ZM259.984 106.552L259.185 107.153L260.984 109.547V106.552H259.984ZM259.984 100.756V99.756H258.984V100.756H259.984ZM261.472 100.756H262.472V99.756H261.472V100.756ZM261.472 109V110H262.472V109H261.472ZM259.984 109L259.185 109.601L259.485 110H259.984V109ZM255.628 103.204L256.427 102.603L254.628 100.209V103.204H255.628ZM255.628 109V110H256.628V109H255.628ZM255.14 109V100.756H253.14V109H255.14ZM254.14 101.756H255.628V99.756H254.14V101.756ZM254.829 101.357L259.185 107.153L260.783 105.951L256.427 100.155L254.829 101.357ZM260.984 106.552V100.756H258.984V106.552H260.984ZM259.984 101.756H261.472V99.756H259.984V101.756ZM260.472 100.756V109H262.472V100.756H260.472ZM261.472 108H259.984V110H261.472V108ZM260.783 108.399L256.427 102.603L254.829 103.805L259.185 109.601L260.783 108.399ZM254.628 103.204V109H256.628V103.204H254.628ZM255.628 108H254.14V110H255.628V108ZM268.529 108.144C266.731 108.144 265.209 106.625 265.209 104.872H263.209C263.209 107.751 265.648 110.144 268.529 110.144V108.144ZM265.209 104.872C265.209 103.123 266.727 101.612 268.529 101.612V99.612C265.652 99.612 263.209 101.989 263.209 104.872H265.209ZM268.529 101.612C270.345 101.612 271.861 103.124 271.861 104.872H273.861C273.861 101.988 271.417 99.612 268.529 99.612V101.612ZM271.861 104.872C271.861 106.623 270.342 108.144 268.529 108.144V110.144C271.421 110.144 273.861 107.753 273.861 104.872H271.861ZM268.529 108.776C270.641 108.776 272.325 106.972 272.325 104.872H270.325C270.325 105.94 269.466 106.776 268.529 106.776V108.776ZM272.325 104.872C272.325 102.781 270.638 100.98 268.529 100.98V102.98C269.469 102.98 270.325 103.819 270.325 104.872H272.325ZM268.529 100.98C266.435 100.98 264.733 102.778 264.733 104.872H266.733C266.733 103.822 267.599 102.98 268.529 102.98V100.98ZM264.733 104.872C264.733 106.975 266.433 108.776 268.529 108.776V106.776C267.602 106.776 266.733 105.937 266.733 104.872H264.733Z" fill="#ACB8BE"/>
<path d="M245 87.5H283C284.933 87.5 286.5 89.067 286.5 91V119C286.5 120.933 284.933 122.5 283 122.5H245C243.067 122.5 241.5 120.933 241.5 119V91C241.5 89.067 243.067 87.5 245 87.5Z" stroke="#ACB8BE"/>
<path d="M299 91C299 88.7909 300.791 87 303 87H408C410.209 87 412 88.7909 412 91V119C412 121.209 410.209 123 408 123H303C300.791 123 299 121.209 299 119V91Z" fill="#FF674C"/>
<path d="M314.516 109V105.904L311.252 100.756H313.016L315.284 104.488L317.588 100.756H319.292L316.04 105.904V109H314.516ZM327.887 102.124H323.183V104.116H327.431V105.484H323.183V107.632H327.887V109H321.683V100.756H327.887V102.124ZM333.555 109.132C332.151 109.132 330.939 108.652 330.027 107.8L330.903 106.732C331.659 107.416 332.535 107.848 333.615 107.848C334.623 107.848 335.151 107.344 335.151 106.756C335.151 106.072 334.563 105.844 333.243 105.532C331.539 105.136 330.363 104.644 330.363 103.096C330.363 101.656 331.587 100.612 333.315 100.612C334.623 100.612 335.619 101.056 336.435 101.764L335.619 102.856C334.911 102.244 334.083 101.896 333.267 101.896C332.427 101.896 331.875 102.388 331.875 102.964C331.875 103.636 332.475 103.876 333.783 104.176C335.499 104.56 336.651 105.112 336.651 106.612C336.651 108.088 335.535 109.132 333.555 109.132ZM347.412 109.144C345.072 109.144 343.092 107.188 343.092 104.872C343.092 102.556 345.072 100.612 347.412 100.612C348.624 100.612 349.74 101.128 350.532 101.944L349.464 102.94C348.948 102.352 348.216 101.98 347.412 101.98C345.9 101.98 344.616 103.3 344.616 104.872C344.616 106.456 345.9 107.776 347.412 107.776C348.216 107.776 348.948 107.404 349.476 106.816L350.532 107.8C349.74 108.628 348.624 109.144 347.412 109.144ZM359.141 109L358.493 107.44H354.557L353.909 109H352.241L355.685 100.756H357.353L360.797 109H359.141ZM355.073 106.216H357.977L356.525 102.748L355.073 106.216ZM363.234 109V100.756H364.722L369.078 106.552V100.756H370.566V109H369.078L364.722 103.204V109H363.234ZM377.623 109.144C375.283 109.144 373.303 107.188 373.303 104.872C373.303 102.556 375.283 100.612 377.623 100.612C378.835 100.612 379.951 101.128 380.743 101.944L379.675 102.94C379.159 102.352 378.427 101.98 377.623 101.98C376.111 101.98 374.827 103.3 374.827 104.872C374.827 106.456 376.111 107.776 377.623 107.776C378.427 107.776 379.159 107.404 379.687 106.816L380.743 107.8C379.951 108.628 378.835 109.144 377.623 109.144ZM389.496 102.124H384.792V104.116H389.04V105.484H384.792V107.632H389.496V109H383.292V100.756H389.496V102.124ZM393.796 107.632H398.032V109H392.308V100.756H393.796V107.632Z" fill="black"/>
<path d="M26.74 33.168C24.01 33.168 21.7 30.886 21.7 28.184C21.7 25.482 24.01 23.214 26.74 23.214C28.154 23.214 29.456 23.816 30.38 24.768L29.134 25.93C28.532 25.244 27.678 24.81 26.74 24.81C24.976 24.81 23.478 26.35 23.478 28.184C23.478 30.032 24.976 31.572 26.74 31.572C27.678 31.572 28.532 31.138 29.148 30.452L30.38 31.6C29.456 32.566 28.154 33.168 26.74 33.168ZM34.7194 25.594C36.6374 25.594 37.8134 26.812 37.8134 28.646V33H36.1474V32.146C35.6154 32.804 34.7194 33.168 33.8794 33.168C32.3394 33.168 31.1914 32.258 31.1914 30.858C31.1914 29.43 32.4934 28.45 34.1314 28.45C34.7894 28.45 35.4894 28.59 36.1474 28.828V28.646C36.1474 27.806 35.6994 26.994 34.3834 26.994C33.6974 26.994 33.0394 27.232 32.4234 27.54L31.8354 26.35C32.8574 25.846 33.8094 25.594 34.7194 25.594ZM34.2574 31.922C35.0834 31.922 35.9654 31.502 36.1474 30.732V29.906C35.6154 29.738 35.0134 29.64 34.3834 29.64C33.5294 29.64 32.8294 30.116 32.8294 30.802C32.8294 31.488 33.4454 31.922 34.2574 31.922ZM43.6401 25.594C45.2361 25.594 46.3421 26.742 46.3421 28.394V33H44.6761V28.73C44.6761 27.736 44.0601 27.05 43.1641 27.05C42.1841 27.05 41.4001 27.736 41.4001 28.618V33H39.6921V25.762L41.4001 25.762V26.742C41.8341 26.056 42.6741 25.594 43.6401 25.594ZM51.5371 33.168C49.4371 33.168 47.6591 31.432 47.6591 29.374C47.6591 27.316 49.4371 25.594 51.5511 25.594C52.6571 25.594 53.6091 26.056 54.2951 26.77L53.1471 27.778C52.7551 27.344 52.1531 27.05 51.5371 27.05C50.3471 27.05 49.3531 28.114 49.3531 29.374C49.3531 30.648 50.3471 31.712 51.5371 31.712C52.1671 31.712 52.7831 31.418 53.1891 30.956L54.3371 31.95C53.6371 32.692 52.6711 33.168 51.5371 33.168ZM58.8176 31.796C59.5456 31.796 60.3716 31.488 60.8336 31.04L61.8136 32.048C61.1836 32.72 59.9236 33.168 58.8736 33.168C56.7876 33.168 55.0656 31.586 55.0656 29.36C55.0656 27.176 56.7036 25.594 58.7756 25.594C61.0156 25.594 62.3316 27.246 62.3316 29.878L56.7176 29.878C56.8996 31.012 57.6976 31.796 58.8176 31.796ZM58.7896 26.966C57.7536 26.966 56.9556 27.666 56.7316 28.744H60.6796C60.5256 27.722 59.8816 26.966 58.7896 26.966ZM63.7554 33V23.214H65.4634V33H63.7554ZM78.5613 33L77.8053 31.18H73.2133L72.4573 33H70.5113L74.5293 23.382H76.4753L80.4933 33H78.5613ZM73.8153 29.752H77.2033L75.5093 25.706L73.8153 29.752ZM85.1211 33.168C83.0211 33.168 81.2431 31.432 81.2431 29.374C81.2431 27.316 83.0211 25.594 85.1351 25.594C86.2411 25.594 87.1931 26.056 87.8791 26.77L86.7311 27.778C86.3391 27.344 85.7371 27.05 85.1211 27.05C83.9311 27.05 82.9371 28.114 82.9371 29.374C82.9371 30.648 83.9311 31.712 85.1211 31.712C85.7511 31.712 86.3671 31.418 86.7731 30.956L87.9211 31.95C87.2211 32.692 86.2551 33.168 85.1211 33.168ZM92.5696 31.446L93.0596 32.594C92.6536 32.944 92.0656 33.168 91.5056 33.168C90.3156 33.168 89.4756 32.3 89.4756 31.082V27.176H88.4256V25.762L89.4756 25.762V23.774H91.1276V25.762H92.7656V27.176H91.1276V30.872C91.1276 31.362 91.4496 31.712 91.8556 31.712C92.1496 31.712 92.4156 31.6 92.5696 31.446ZM95.2129 24.67C94.6669 24.67 94.2329 24.208 94.2329 23.69C94.2329 23.172 94.6669 22.724 95.2129 22.724C95.7449 22.724 96.1789 23.172 96.1789 23.69C96.1789 24.208 95.7449 24.67 95.2129 24.67ZM94.3589 33V25.762H96.0669V33H94.3589ZM100.313 33L97.1907 25.762H99.0107L101.111 31.026L103.169 25.762H104.975L101.909 33H100.313ZM109.006 25.594C110.924 25.594 112.1 26.812 112.1 28.646V33H110.434V32.146C109.902 32.804 109.006 33.168 108.166 33.168C106.626 33.168 105.478 32.258 105.478 30.858C105.478 29.43 106.78 28.45 108.418 28.45C109.076 28.45 109.776 28.59 110.434 28.828V28.646C110.434 27.806 109.986 26.994 108.67 26.994C107.984 26.994 107.326 27.232 106.71 27.54L106.122 26.35C107.144 25.846 108.096 25.594 109.006 25.594ZM108.544 31.922C109.37 31.922 110.252 31.502 110.434 30.732V29.906C109.902 29.738 109.3 29.64 108.67 29.64C107.816 29.64 107.116 30.116 107.116 30.802C107.116 31.488 107.732 31.922 108.544 31.922ZM117.367 31.446L117.857 32.594C117.451 32.944 116.863 33.168 116.303 33.168C115.113 33.168 114.273 32.3 114.273 31.082V27.176H113.223V25.762H114.273V23.774H115.925V25.762H117.563V27.176H115.925V30.872C115.925 31.362 116.247 31.712 116.653 31.712C116.947 31.712 117.213 31.6 117.367 31.446ZM120.01 24.67C119.464 24.67 119.03 24.208 119.03 23.69C119.03 23.172 119.464 22.724 120.01 22.724C120.542 22.724 120.976 23.172 120.976 23.69C120.976 24.208 120.542 24.67 120.01 24.67ZM119.156 33V25.762H120.864V33L119.156 33ZM126.846 25.594C128.442 25.594 129.548 26.742 129.548 28.394V33H127.882V28.73C127.882 27.736 127.266 27.05 126.37 27.05C125.39 27.05 124.606 27.736 124.606 28.618V33H122.898V25.762H124.606V26.742C125.04 26.056 125.88 25.594 126.846 25.594ZM136.605 25.762H138.327V32.23C138.327 34.092 136.759 35.408 134.547 35.408C133.301 35.408 132.139 35.002 131.439 34.442L132.069 33.196C132.573 33.658 133.427 33.952 134.281 33.952C135.709 33.952 136.605 33.266 136.605 32.174V31.25C136.031 32.02 135.149 32.468 134.127 32.468C132.265 32.468 130.879 31.04 130.879 29.024C130.879 27.008 132.265 25.594 134.127 25.594C135.163 25.594 136.087 26.07 136.605 26.826V25.762ZM134.617 31.012C135.779 31.012 136.605 30.186 136.605 29.024C136.605 27.876 135.779 27.05 134.617 27.05C133.469 27.05 132.643 27.876 132.643 29.024C132.643 30.186 133.469 31.012 134.617 31.012ZM151.399 33L150.643 31.18L146.051 31.18L145.295 33H143.349L147.367 23.382H149.313L153.331 33H151.399ZM146.653 29.752L150.041 29.752L148.347 25.706L146.653 29.752ZM159.989 23.214H161.697V33H159.989V31.852C159.429 32.678 158.547 33.168 157.483 33.168C155.551 33.168 154.151 31.6 154.151 29.374C154.151 27.162 155.551 25.594 157.483 25.594C158.547 25.594 159.429 26.084 159.989 26.896V23.214ZM157.931 31.712C159.135 31.712 159.975 30.732 159.975 29.374C159.975 28.016 159.135 27.05 157.931 27.05C156.713 27.05 155.845 28.016 155.845 29.374C155.845 30.732 156.713 31.712 157.931 31.712ZM169.076 23.214H170.784V33H169.076V31.852C168.516 32.678 167.634 33.168 166.57 33.168C164.638 33.168 163.238 31.6 163.238 29.374C163.238 27.162 164.638 25.594 166.57 25.594C167.634 25.594 168.516 26.084 169.076 26.896V23.214ZM167.018 31.712C168.222 31.712 169.062 30.732 169.062 29.374C169.062 28.016 168.222 27.05 167.018 27.05C165.8 27.05 164.932 28.016 164.932 29.374C164.932 30.732 165.8 31.712 167.018 31.712ZM172.802 29.906V28.408H176.568V29.906H172.802ZM181.913 33.168C179.771 33.168 178.021 31.46 178.021 29.374C178.021 27.288 179.771 25.594 181.913 25.594C184.041 25.594 185.777 27.288 185.777 29.374C185.777 31.46 184.041 33.168 181.913 33.168ZM181.913 31.712C183.117 31.712 184.111 30.662 184.111 29.374C184.111 28.086 183.117 27.05 181.913 27.05C180.695 27.05 179.701 28.086 179.701 29.374C179.701 30.662 180.695 31.712 181.913 31.712ZM191.206 25.594C192.802 25.594 193.908 26.742 193.908 28.394V33H192.242V28.73C192.242 27.736 191.626 27.05 190.73 27.05C189.75 27.05 188.966 27.736 188.966 28.618V33H187.258V25.762H188.966V26.742C189.4 26.056 190.24 25.594 191.206 25.594ZM197.367 29.906V27.484C198.767 27.4 199.761 26.812 199.761 26.07C199.761 25.384 199.159 24.782 198.193 24.782C197.395 24.782 196.723 25.216 196.219 25.79L195.197 24.754C195.981 23.858 197.059 23.214 198.445 23.214C200.279 23.214 201.525 24.376 201.525 25.902C201.525 27.162 200.447 28.282 198.949 28.618V29.906H197.367ZM198.151 33.168C197.507 33.168 197.031 32.664 197.031 32.048C197.031 31.474 197.507 30.97 198.151 30.97C198.739 30.97 199.229 31.474 199.229 32.048C199.229 32.664 198.739 33.168 198.151 33.168Z" fill="white"/>
<defs>
<filter id="filter0_d_10499_14206" x="0" y="0" width="432" height="147" filterUnits="userSpaceOnUse" color-interpolation-filters="sRGB">
<feFlood flood-opacity="0" result="BackgroundImageFix"/>
<feColorMatrix in="SourceAlpha" type="matrix" values="0 0 0 0 0 0 0 0 0 0 0 0 0 0 0 0 0 0 127 0" result="hardAlpha"/>
<feOffset dy="4"/>
<feGaussianBlur stdDeviation="2"/>
<feComposite in2="hardAlpha" operator="out"/>
<feColorMatrix type="matrix" values="0 0 0 0 0.105 0 0 0 0 0.168 0 0 0 0 0.195 0 0 0 0.25 0"/>
<feBlend mode="normal" in2="BackgroundImageFix" result="effect1_dropShadow_10499_14206"/>
<feBlend mode="normal" in="SourceGraphic" in2="effect1_dropShadow_10499_14206" result="shape"/>
</filter>
</defs>
</svg>
