<svg width="432" height="147" viewBox="0 0 432 147" fill="none" xmlns="http://www.w3.org/2000/svg">
<g filter="url(#filter0_d_10499_6155)">
<rect x="4" width="424" height="139" rx="4" fill="#22343C"/>
<rect x="4.5" y="0.5" width="423" height="138" rx="3.5" stroke="#67777E"/>
</g>
<path d="M30.834 65L29.868 62.816H24.506L23.54 65H22.35L26.592 55.382H27.782L32.024 65H30.834ZM24.954 61.78H29.42L27.194 56.726L24.954 61.78ZM36.603 65.168C34.573 65.168 32.851 63.432 32.851 61.374C32.851 59.316 34.573 57.594 36.603 57.594C37.583 57.594 38.493 58 39.179 58.658L38.451 59.372C37.975 58.854 37.317 58.532 36.603 58.532C35.161 58.532 33.957 59.834 33.957 61.374C33.957 62.928 35.161 64.23 36.603 64.23C37.331 64.23 38.003 63.894 38.493 63.348L39.221 64.062C38.535 64.748 37.611 65.168 36.603 65.168ZM43.4547 63.936L43.9727 64.706C43.5947 65 43.1187 65.168 42.6287 65.168C41.5927 65.168 40.8647 64.398 40.8647 63.32V58.7H39.7307V57.762H40.8647V55.774H41.9147V57.762H43.6927V58.7H41.9147V63.32C41.9147 63.852 42.2787 64.23 42.6987 64.23C43.0207 64.23 43.3007 64.104 43.4547 63.936ZM45.9129 56.446C45.5209 56.446 45.2129 56.124 45.2129 55.746C45.2129 55.382 45.5209 55.06 45.9129 55.06C46.2909 55.06 46.5989 55.382 46.5989 55.746C46.5989 56.124 46.2909 56.446 45.9129 56.446ZM45.3809 65V57.762H46.4309V65H45.3809ZM50.7692 65L47.6892 57.762H48.8652L51.2732 63.768L53.6392 57.762H54.8152L51.7772 65H50.7692ZM58.6674 57.594C60.6414 57.594 61.6074 58.84 61.6074 60.59V65H60.5574V63.866C60.0394 64.72 58.9614 65.168 58.0094 65.168C56.4834 65.168 55.3634 64.286 55.3634 62.858C55.3634 61.416 56.6514 60.45 58.2054 60.45C58.9894 60.45 59.8154 60.618 60.5574 60.856V60.59C60.5574 59.61 60.1654 58.49 58.5974 58.49C57.8694 58.49 57.1414 58.812 56.4834 59.148L56.0634 58.294C57.0994 57.776 57.9674 57.594 58.6674 57.594ZM58.1914 64.244C59.1434 64.244 60.2774 63.754 60.5574 62.732V61.626C59.8994 61.444 59.1574 61.332 58.3734 61.332C57.2954 61.332 56.3854 61.948 56.3854 62.816C56.3854 63.712 57.1694 64.244 58.1914 64.244ZM66.5703 63.936L67.0883 64.706C66.7103 65 66.2343 65.168 65.7443 65.168C64.7083 65.168 63.9803 64.398 63.9803 63.32V58.7L62.8463 58.7V57.762L63.9803 57.762V55.774H65.0303V57.762H66.8083V58.7H65.0303V63.32C65.0303 63.852 65.3943 64.23 65.8143 64.23C66.1363 64.23 66.4163 64.104 66.5703 63.936ZM71.5485 64.23C72.4025 64.23 73.3825 63.852 73.8305 63.362L74.4745 64.048C73.8445 64.734 72.5705 65.168 71.5625 65.168C69.6305 65.168 67.8945 63.586 67.8945 61.36C67.8945 59.204 69.5185 57.594 71.4645 57.594C73.6485 57.594 74.8945 59.246 74.8945 61.78H68.9725C69.1265 63.194 70.1205 64.23 71.5485 64.23ZM71.5065 58.532C70.2185 58.532 69.1825 59.442 68.9865 60.842H73.8585C73.7185 59.54 72.9485 58.532 71.5065 58.532ZM87.9301 65L86.9641 62.816H81.6021L80.6361 65H79.4461L83.6881 55.382H84.8781L89.1201 65H87.9301ZM82.0501 61.78H86.5161L84.2901 56.726L82.0501 61.78ZM95.995 55.214L97.045 55.214V65H95.995V63.642C95.449 64.594 94.525 65.168 93.363 65.168C91.459 65.168 90.031 63.6 90.031 61.374C90.031 59.162 91.459 57.594 93.363 57.594C94.525 57.594 95.449 58.168 95.995 59.12V55.214ZM93.559 64.23C94.987 64.23 95.995 63.04 95.995 61.374C95.995 59.708 94.987 58.532 93.559 58.532C92.145 58.532 91.137 59.708 91.137 61.374C91.137 63.04 92.145 64.23 93.559 64.23ZM104.782 55.214H105.832V65H104.782V63.642C104.236 64.594 103.312 65.168 102.15 65.168C100.246 65.168 98.8178 63.6 98.8178 61.374C98.8178 59.162 100.246 57.594 102.15 57.594C103.312 57.594 104.236 58.168 104.782 59.12V55.214ZM102.346 64.23C103.774 64.23 104.782 63.04 104.782 61.374C104.782 59.708 103.774 58.532 102.346 58.532C100.932 58.532 99.9238 59.708 99.9238 61.374C99.9238 63.04 100.932 64.23 102.346 64.23ZM108.15 61.71V60.688H111.776V61.71H108.15ZM118.588 65.168C115.928 65.168 113.66 62.886 113.66 60.184C113.66 57.482 115.928 55.214 118.588 55.214C121.262 55.214 123.502 57.482 123.502 60.184C123.502 62.886 121.262 65.168 118.588 65.168ZM118.588 64.16C120.66 64.16 122.396 62.34 122.396 60.184C122.396 58.042 120.66 56.222 118.588 56.222C116.516 56.222 114.766 58.042 114.766 60.184C114.766 62.34 116.516 64.16 118.588 64.16ZM128.853 57.594C130.463 57.594 131.569 58.728 131.569 60.394V65H130.519V60.534C130.519 59.344 129.777 58.532 128.713 58.532C127.481 58.532 126.473 59.372 126.473 60.394V65H125.423V57.762H126.473V58.91C126.893 58.14 127.817 57.594 128.853 57.594ZM138.537 59.176C138.971 58.21 140.007 57.594 141.337 57.594V58.532C139.699 58.532 138.537 59.54 138.537 60.954V65H137.487V57.762H138.537V59.176ZM145.99 64.23C146.844 64.23 147.824 63.852 148.272 63.362L148.916 64.048C148.286 64.734 147.012 65.168 146.004 65.168C144.072 65.168 142.336 63.586 142.336 61.36C142.336 59.204 143.96 57.594 145.906 57.594C148.09 57.594 149.336 59.246 149.336 61.78H143.414C143.568 63.194 144.562 64.23 145.99 64.23ZM145.948 58.532C144.66 58.532 143.624 59.442 143.428 60.842H148.3C148.16 59.54 147.39 58.532 145.948 58.532ZM156.404 57.762H157.454V67.408H156.404V63.642C155.858 64.594 154.934 65.168 153.772 65.168C151.868 65.168 150.44 63.6 150.44 61.374C150.44 59.162 151.868 57.594 153.772 57.594C154.934 57.594 155.858 58.168 156.404 59.12V57.762ZM153.968 64.23C155.396 64.23 156.404 63.04 156.404 61.374C156.404 59.708 155.396 58.532 153.968 58.532C152.554 58.532 151.546 59.708 151.546 61.374C151.546 63.04 152.554 64.23 153.968 64.23ZM164.715 57.762H165.765V65H164.715V63.852C164.295 64.622 163.371 65.168 162.335 65.168C160.725 65.168 159.619 64.034 159.619 62.368V57.762H160.669V62.228C160.669 63.418 161.411 64.23 162.475 64.23C163.707 64.23 164.715 63.39 164.715 62.368V57.762ZM171.147 64.23C172.001 64.23 172.981 63.852 173.429 63.362L174.073 64.048C173.443 64.734 172.169 65.168 171.161 65.168C169.229 65.168 167.493 63.586 167.493 61.36C167.493 59.204 169.117 57.594 171.063 57.594C173.247 57.594 174.493 59.246 174.493 61.78H168.571C168.725 63.194 169.719 64.23 171.147 64.23ZM171.105 58.532C169.817 58.532 168.781 59.442 168.585 60.842H173.457C173.317 59.54 172.547 58.532 171.105 58.532ZM178.397 65.168C177.389 65.168 176.269 64.79 175.401 64.09L175.947 63.32C176.773 63.922 177.599 64.23 178.397 64.23C179.349 64.23 179.993 63.782 179.993 63.096C179.993 62.312 179.153 62.06 178.173 61.78C176.423 61.276 175.751 60.758 175.751 59.722C175.751 58.406 176.843 57.594 178.285 57.594C179.181 57.594 180.105 57.902 180.875 58.406L180.371 59.218C179.643 58.756 178.929 58.532 178.285 58.532C177.473 58.532 176.801 58.896 176.801 59.596C176.801 60.226 177.333 60.422 178.677 60.856C179.839 61.22 181.043 61.612 181.043 62.984C181.043 64.314 179.895 65.168 178.397 65.168ZM185.543 63.936L186.061 64.706C185.683 65 185.207 65.168 184.717 65.168C183.681 65.168 182.953 64.398 182.953 63.32V58.7H181.819V57.762H182.953V55.774H184.003V57.762H185.781V58.7H184.003V63.32C184.003 63.852 184.367 64.23 184.787 64.23C185.109 64.23 185.389 64.104 185.543 63.936ZM193.464 65.168C192.456 65.168 191.336 64.79 190.468 64.09L191.014 63.32C191.84 63.922 192.666 64.23 193.464 64.23C194.416 64.23 195.06 63.782 195.06 63.096C195.06 62.312 194.22 62.06 193.24 61.78C191.49 61.276 190.818 60.758 190.818 59.722C190.818 58.406 191.91 57.594 193.352 57.594C194.248 57.594 195.172 57.902 195.942 58.406L195.438 59.218C194.71 58.756 193.996 58.532 193.352 58.532C192.54 58.532 191.868 58.896 191.868 59.596C191.868 60.226 192.4 60.422 193.744 60.856C194.906 61.22 196.11 61.612 196.11 62.984C196.11 64.314 194.962 65.168 193.464 65.168ZM202.738 57.762H203.788V65H202.738V63.852C202.318 64.622 201.394 65.168 200.358 65.168C198.748 65.168 197.642 64.034 197.642 62.368V57.762H198.692V62.228C198.692 63.418 199.434 64.23 200.498 64.23C201.73 64.23 202.738 63.39 202.738 62.368V57.762ZM209.8 57.594C211.704 57.594 213.132 59.162 213.132 61.374C213.132 63.6 211.704 65.168 209.8 65.168C208.638 65.168 207.714 64.594 207.168 63.642V65H206.118V55.214H207.168V59.12C207.714 58.168 208.638 57.594 209.8 57.594ZM209.604 64.23C211.018 64.23 212.026 63.04 212.026 61.374C212.026 59.708 211.018 58.532 209.604 58.532C208.176 58.532 207.168 59.708 207.168 61.374C207.168 63.04 208.176 64.23 209.604 64.23ZM222.731 57.594C224.243 57.594 225.307 58.756 225.307 60.394V65H224.257V60.534C224.257 59.358 223.571 58.532 222.591 58.532C221.443 58.532 220.631 59.302 220.631 60.394V65H219.581V60.534C219.581 59.358 218.895 58.532 217.915 58.532C216.767 58.532 215.955 59.302 215.955 60.394V65H214.905V57.762H215.955V58.826C216.319 58.07 217.103 57.594 218.055 57.594C219.203 57.594 220.099 58.266 220.463 59.316C220.687 58.294 221.583 57.594 222.731 57.594ZM228.011 56.446C227.619 56.446 227.311 56.124 227.311 55.746C227.311 55.382 227.619 55.06 228.011 55.06C228.389 55.06 228.697 55.382 228.697 55.746C228.697 56.124 228.389 56.446 228.011 56.446ZM227.479 65V57.762H228.529V65H227.479ZM233.665 63.936L234.183 64.706C233.805 65 233.329 65.168 232.839 65.168C231.803 65.168 231.075 64.398 231.075 63.32V58.7H229.941V57.762H231.075V55.774H232.125V57.762H233.903V58.7H232.125V63.32C232.125 63.852 232.489 64.23 232.909 64.23C233.231 64.23 233.511 64.104 233.665 63.936ZM238.391 63.936L238.909 64.706C238.531 65 238.055 65.168 237.565 65.168C236.529 65.168 235.801 64.398 235.801 63.32V58.7H234.667V57.762H235.801V55.774H236.851V57.762H238.629V58.7H236.851V63.32C236.851 63.852 237.215 64.23 237.635 64.23C237.957 64.23 238.237 64.104 238.391 63.936ZM243.369 64.23C244.223 64.23 245.203 63.852 245.651 63.362L246.295 64.048C245.665 64.734 244.391 65.168 243.383 65.168C241.451 65.168 239.715 63.586 239.715 61.36C239.715 59.204 241.339 57.594 243.285 57.594C245.469 57.594 246.715 59.246 246.715 61.78H240.793C240.947 63.194 241.941 64.23 243.369 64.23ZM243.327 58.532C242.039 58.532 241.003 59.442 240.807 60.842H245.679C245.539 59.54 244.769 58.532 243.327 58.532ZM253.783 55.214H254.833V65H253.783V63.642C253.237 64.594 252.313 65.168 251.151 65.168C249.247 65.168 247.819 63.6 247.819 61.374C247.819 59.162 249.247 57.594 251.151 57.594C252.313 57.594 253.237 58.168 253.783 59.12V55.214ZM251.347 64.23C252.775 64.23 253.783 63.04 253.783 61.374C253.783 59.708 252.775 58.532 251.347 58.532C249.933 58.532 248.925 59.708 248.925 61.374C248.925 63.04 249.933 64.23 251.347 64.23ZM263.162 65.168C262.154 65.168 261.034 64.79 260.166 64.09L260.712 63.32C261.538 63.922 262.364 64.23 263.162 64.23C264.114 64.23 264.758 63.782 264.758 63.096C264.758 62.312 263.918 62.06 262.938 61.78C261.188 61.276 260.516 60.758 260.516 59.722C260.516 58.406 261.608 57.594 263.05 57.594C263.946 57.594 264.87 57.902 265.64 58.406L265.136 59.218C264.408 58.756 263.694 58.532 263.05 58.532C262.238 58.532 261.566 58.896 261.566 59.596C261.566 60.226 262.098 60.422 263.442 60.856C264.604 61.22 265.808 61.612 265.808 62.984C265.808 64.314 264.66 65.168 263.162 65.168ZM272.435 57.762H273.485V65H272.435V63.852C272.015 64.622 271.091 65.168 270.055 65.168C268.445 65.168 267.339 64.034 267.339 62.368V57.762H268.389V62.228C268.389 63.418 269.131 64.23 270.195 64.23C271.427 64.23 272.435 63.39 272.435 62.368V57.762ZM278.923 65.168C276.893 65.168 275.171 63.432 275.171 61.374C275.171 59.316 276.893 57.594 278.923 57.594C279.903 57.594 280.813 58 281.499 58.658L280.771 59.372C280.295 58.854 279.637 58.532 278.923 58.532C277.481 58.532 276.277 59.834 276.277 61.374C276.277 62.928 277.481 64.23 278.923 64.23C279.651 64.23 280.323 63.894 280.813 63.348L281.541 64.062C280.855 64.748 279.931 65.168 278.923 65.168ZM286.083 65.168C284.053 65.168 282.331 63.432 282.331 61.374C282.331 59.316 284.053 57.594 286.083 57.594C287.063 57.594 287.973 58 288.659 58.658L287.931 59.372C287.455 58.854 286.797 58.532 286.083 58.532C284.641 58.532 283.437 59.834 283.437 61.374C283.437 62.928 284.641 64.23 286.083 64.23C286.811 64.23 287.483 63.894 287.973 63.348L288.701 64.062C288.015 64.748 287.091 65.168 286.083 65.168ZM293.187 64.23C294.041 64.23 295.021 63.852 295.469 63.362L296.113 64.048C295.483 64.734 294.209 65.168 293.201 65.168C291.269 65.168 289.533 63.586 289.533 61.36C289.533 59.204 291.157 57.594 293.103 57.594C295.287 57.594 296.533 59.246 296.533 61.78L290.611 61.78C290.765 63.194 291.759 64.23 293.187 64.23ZM293.145 58.532C291.857 58.532 290.821 59.442 290.625 60.842H295.497C295.357 59.54 294.587 58.532 293.145 58.532ZM300.437 65.168C299.429 65.168 298.309 64.79 297.441 64.09L297.987 63.32C298.813 63.922 299.639 64.23 300.437 64.23C301.389 64.23 302.033 63.782 302.033 63.096C302.033 62.312 301.193 62.06 300.213 61.78C298.463 61.276 297.791 60.758 297.791 59.722C297.791 58.406 298.883 57.594 300.325 57.594C301.221 57.594 302.145 57.902 302.915 58.406L302.411 59.218C301.683 58.756 300.969 58.532 300.325 58.532C299.513 58.532 298.841 58.896 298.841 59.596C298.841 60.226 299.373 60.422 300.717 60.856C301.879 61.22 303.083 61.612 303.083 62.984C303.083 64.314 301.935 65.168 300.437 65.168ZM307.022 65.168C306.014 65.168 304.894 64.79 304.026 64.09L304.572 63.32C305.398 63.922 306.224 64.23 307.022 64.23C307.974 64.23 308.618 63.782 308.618 63.096C308.618 62.312 307.778 62.06 306.798 61.78C305.048 61.276 304.376 60.758 304.376 59.722C304.376 58.406 305.468 57.594 306.91 57.594C307.806 57.594 308.73 57.902 309.5 58.406L308.996 59.218C308.268 58.756 307.554 58.532 306.91 58.532C306.098 58.532 305.426 58.896 305.426 59.596C305.426 60.226 305.958 60.422 307.302 60.856C308.464 61.22 309.668 61.612 309.668 62.984C309.668 64.314 308.52 65.168 307.022 65.168ZM312.67 56.768V57.762H314.448V58.7H312.67V65H311.62V58.7H310.486V57.762H311.62V56.768C311.62 55.69 312.348 54.92 313.384 54.92C313.874 54.92 314.35 55.088 314.728 55.382L314.21 56.152C314.056 55.984 313.776 55.858 313.454 55.858C313.034 55.858 312.67 56.236 312.67 56.768ZM320.639 57.762H321.689V65H320.639V63.852C320.219 64.622 319.295 65.168 318.259 65.168C316.649 65.168 315.543 64.034 315.543 62.368V57.762H316.593V62.228C316.593 63.418 317.335 64.23 318.399 64.23C319.631 64.23 320.639 63.39 320.639 62.368V57.762ZM324.02 65V55.214H325.07V65H324.02ZM328.47 65.168C328.036 65.168 327.7 64.818 327.7 64.398C327.7 64.006 328.036 63.656 328.47 63.656C328.876 63.656 329.212 64.006 329.212 64.398C329.212 64.818 328.876 65.168 328.47 65.168Z" fill="#E3EAED"/>
<path d="M29.4 33L28.644 31.18H24.052L23.296 33H21.35L25.368 23.382H27.314L31.332 33H29.4ZM24.654 29.752H28.042L26.348 25.706L24.654 29.752ZM35.9597 33.168C33.8597 33.168 32.0817 31.432 32.0817 29.374C32.0817 27.316 33.8597 25.594 35.9737 25.594C37.0797 25.594 38.0317 26.056 38.7177 26.77L37.5697 27.778C37.1777 27.344 36.5757 27.05 35.9597 27.05C34.7697 27.05 33.7757 28.114 33.7757 29.374C33.7757 30.648 34.7697 31.712 35.9597 31.712C36.5897 31.712 37.2057 31.418 37.6117 30.956L38.7597 31.95C38.0597 32.692 37.0937 33.168 35.9597 33.168ZM43.4082 31.446L43.8982 32.594C43.4922 32.944 42.9042 33.168 42.3442 33.168C41.1542 33.168 40.3142 32.3 40.3142 31.082V27.176H39.2642V25.762H40.3142V23.774L41.9662 23.774V25.762H43.6042V27.176H41.9662V30.872C41.9662 31.362 42.2882 31.712 42.6942 31.712C42.9882 31.712 43.2542 31.6 43.4082 31.446ZM46.0516 24.67C45.5056 24.67 45.0716 24.208 45.0716 23.69C45.0716 23.172 45.5056 22.724 46.0516 22.724C46.5836 22.724 47.0176 23.172 47.0176 23.69C47.0176 24.208 46.5836 24.67 46.0516 24.67ZM45.1976 33V25.762H46.9056V33H45.1976ZM51.1514 33L48.0294 25.762H49.8494L51.9494 31.026L54.0074 25.762H55.8134L52.7474 33H51.1514ZM59.8448 25.594C61.7628 25.594 62.9388 26.812 62.9388 28.646V33H61.2728V32.146C60.7408 32.804 59.8448 33.168 59.0048 33.168C57.4648 33.168 56.3168 32.258 56.3168 30.858C56.3168 29.43 57.6188 28.45 59.2568 28.45C59.9148 28.45 60.6148 28.59 61.2728 28.828V28.646C61.2728 27.806 60.8248 26.994 59.5088 26.994C58.8228 26.994 58.1648 27.232 57.5488 27.54L56.9608 26.35C57.9828 25.846 58.9348 25.594 59.8448 25.594ZM59.3828 31.922C60.2088 31.922 61.0908 31.502 61.2728 30.732V29.906C60.7408 29.738 60.1388 29.64 59.5088 29.64C58.6548 29.64 57.9548 30.116 57.9548 30.802C57.9548 31.488 58.5708 31.922 59.3828 31.922ZM68.2055 31.446L68.6955 32.594C68.2895 32.944 67.7015 33.168 67.1415 33.168C65.9515 33.168 65.1115 32.3 65.1115 31.082V27.176H64.0615V25.762H65.1115V23.774H66.7635V25.762H68.4015V27.176H66.7635V30.872C66.7635 31.362 67.0855 31.712 67.4915 31.712C67.7855 31.712 68.0515 31.6 68.2055 31.446ZM70.8489 24.67C70.3029 24.67 69.8689 24.208 69.8689 23.69C69.8689 23.172 70.3029 22.724 70.8489 22.724C71.3809 22.724 71.8149 23.172 71.8149 23.69C71.8149 24.208 71.3809 24.67 70.8489 24.67ZM69.9949 33V25.762L71.7029 25.762V33H69.9949ZM77.6847 25.594C79.2807 25.594 80.3867 26.742 80.3867 28.394V33H78.7207V28.73C78.7207 27.736 78.1047 27.05 77.2087 27.05C76.2287 27.05 75.4447 27.736 75.4447 28.618V33H73.7367V25.762H75.4447V26.742C75.8787 26.056 76.7187 25.594 77.6847 25.594ZM87.4436 25.762L89.1656 25.762V32.23C89.1656 34.092 87.5976 35.408 85.3856 35.408C84.1396 35.408 82.9776 35.002 82.2776 34.442L82.9076 33.196C83.4116 33.658 84.2656 33.952 85.1196 33.952C86.5476 33.952 87.4436 33.266 87.4436 32.174V31.25C86.8696 32.02 85.9876 32.468 84.9656 32.468C83.1036 32.468 81.7176 31.04 81.7176 29.024C81.7176 27.008 83.1036 25.594 84.9656 25.594C86.0016 25.594 86.9256 26.07 87.4436 26.826V25.762ZM85.4556 31.012C86.6176 31.012 87.4436 30.186 87.4436 29.024C87.4436 27.876 86.6176 27.05 85.4556 27.05C84.3076 27.05 83.4816 27.876 83.4816 29.024C83.4816 30.186 84.3076 31.012 85.4556 31.012ZM102.238 33L101.482 31.18L96.8895 31.18L96.1335 33H94.1875L98.2055 23.382L100.152 23.382L104.17 33H102.238ZM97.4915 29.752L100.88 29.752L99.1855 25.706L97.4915 29.752ZM110.827 23.214H112.535V33H110.827V31.852C110.267 32.678 109.385 33.168 108.321 33.168C106.389 33.168 104.989 31.6 104.989 29.374C104.989 27.162 106.389 25.594 108.321 25.594C109.385 25.594 110.267 26.084 110.827 26.896V23.214ZM108.769 31.712C109.973 31.712 110.813 30.732 110.813 29.374C110.813 28.016 109.973 27.05 108.769 27.05C107.551 27.05 106.683 28.016 106.683 29.374C106.683 30.732 107.551 31.712 108.769 31.712ZM119.915 23.214H121.623V33H119.915V31.852C119.355 32.678 118.473 33.168 117.409 33.168C115.477 33.168 114.077 31.6 114.077 29.374C114.077 27.162 115.477 25.594 117.409 25.594C118.473 25.594 119.355 26.084 119.915 26.896V23.214ZM117.857 31.712C119.061 31.712 119.901 30.732 119.901 29.374C119.901 28.016 119.061 27.05 117.857 27.05C116.639 27.05 115.771 28.016 115.771 29.374C115.771 30.732 116.639 31.712 117.857 31.712ZM123.64 29.906V28.408L127.406 28.408V29.906L123.64 29.906ZM134.095 33.168C131.365 33.168 129.055 30.886 129.055 28.184C129.055 25.482 131.365 23.214 134.095 23.214C136.839 23.214 139.149 25.482 139.149 28.184C139.149 30.886 136.839 33.168 134.095 33.168ZM134.095 31.572C135.873 31.572 137.357 30.032 137.357 28.184C137.357 26.35 135.873 24.81 134.095 24.81C132.331 24.81 130.833 26.35 130.833 28.184C130.833 30.032 132.331 31.572 134.095 31.572ZM144.766 25.594C146.362 25.594 147.468 26.742 147.468 28.394V33H145.802V28.73C145.802 27.736 145.186 27.05 144.29 27.05C143.31 27.05 142.526 27.736 142.526 28.618V33H140.818V25.762H142.526V26.742C142.96 26.056 143.8 25.594 144.766 25.594Z" fill="white"/>
<path d="M409.12 26.9913L404 32.2891L398.88 26.9913C398.59 26.6906 398.599 26.212 398.9 25.9224C399.201 25.6328 399.679 25.6417 399.969 25.9424L404 30.1157L408.036 25.9424C408.325 25.6417 408.804 25.6328 409.104 25.9224C409.405 26.212 409.414 26.6906 409.124 26.9913H409.12Z" fill="#F1F6F8"/>
<defs>
<filter id="filter0_d_10499_6155" x="0" y="0" width="432" height="147" filterUnits="userSpaceOnUse" color-interpolation-filters="sRGB">
<feFlood flood-opacity="0" result="BackgroundImageFix"/>
<feColorMatrix in="SourceAlpha" type="matrix" values="0 0 0 0 0 0 0 0 0 0 0 0 0 0 0 0 0 0 127 0" result="hardAlpha"/>
<feOffset dy="4"/>
<feGaussianBlur stdDeviation="2"/>
<feComposite in2="hardAlpha" operator="out"/>
<feColorMatrix type="matrix" values="0 0 0 0 0.105 0 0 0 0 0.168 0 0 0 0 0.195 0 0 0 0.25 0"/>
<feBlend mode="normal" in2="BackgroundImageFix" result="effect1_dropShadow_10499_6155"/>
<feBlend mode="normal" in="SourceGraphic" in2="effect1_dropShadow_10499_6155" result="shape"/>
</filter>
</defs>
</svg>
