<svg width="452" height="257" viewBox="0 0 452 257" fill="none" xmlns="http://www.w3.org/2000/svg">
<rect x="0.5" y="11.5" width="307" height="202" fill="#FCFDFD"/>
<rect x="0.5" y="11.5" width="307" height="202" stroke="#ACB8BE"/>
<rect x="0.5" y="11.5" width="307" height="202" stroke="#ACB8BE"/>
<rect x="1" y="11" width="307" height="13" fill="#95A2A8"/>
<rect x="1" y="24" width="56" height="189" fill="#F1F6F8"/>
<path d="M72.1259 41.0318C70.707 41.0318 69.7019 39.9929 69.7019 38.5233V35.128H70.3607V38.5233C70.3607 39.6382 71.0955 40.4321 72.1259 40.4321C73.1564 40.4321 73.8912 39.6382 73.8912 38.5233V35.128H74.5499V38.5233C74.5499 39.9929 73.5449 41.0318 72.1259 41.0318ZM77.4646 41.0318C76.8565 41.0318 76.1808 40.8037 75.6572 40.3814L75.9866 39.9169C76.4849 40.2801 76.9832 40.4659 77.4646 40.4659C78.0389 40.4659 78.4274 40.1956 78.4274 39.7818C78.4274 39.3088 77.9207 39.1568 77.3295 38.9878C76.2737 38.6838 75.8683 38.3713 75.8683 37.7463C75.8683 36.9524 76.5271 36.4625 77.397 36.4625C77.9376 36.4625 78.495 36.6483 78.9595 36.9524L78.6555 37.4422C78.2163 37.1635 77.7855 37.0284 77.397 37.0284C76.9072 37.0284 76.5018 37.248 76.5018 37.6703C76.5018 38.0503 76.8227 38.1686 77.6335 38.4304C78.3345 38.65 79.0609 38.8865 79.0609 39.7142C79.0609 40.5166 78.3683 41.0318 77.4646 41.0318ZM82.0769 40.4659C82.5921 40.4659 83.1833 40.2378 83.4536 39.9422L83.8421 40.3561C83.462 40.7699 82.6935 41.0318 82.0854 41.0318C80.9198 41.0318 79.8725 40.0774 79.8725 38.7345C79.8725 37.4338 80.8522 36.4625 82.0262 36.4625C83.3438 36.4625 84.0955 37.4591 84.0955 38.9878H80.5228C80.6157 39.8409 81.2154 40.4659 82.0769 40.4659ZM82.0516 37.0284C81.2745 37.0284 80.6495 37.5774 80.5313 38.422H83.4705C83.386 37.6365 82.9215 37.0284 82.0516 37.0284ZM85.8246 37.4169C86.0864 36.8341 86.7114 36.4625 87.5138 36.4625V37.0284C86.5256 37.0284 85.8246 37.6365 85.8246 38.4895V40.9304H85.1912V36.5638H85.8246V37.4169ZM90.9917 40.9304V35.128H91.6505L93.8042 39.1737L95.958 35.128H96.6167V40.9304H95.958V36.5469L93.8042 40.5926L91.6505 36.5469V40.9304H90.9917ZM99.8221 36.4625C101.013 36.4625 101.596 37.2142 101.596 38.2699V40.9304H100.962V40.2463C100.65 40.7615 99.9995 41.0318 99.4252 41.0318C98.5046 41.0318 97.8289 40.4997 97.8289 39.6382C97.8289 38.7682 98.6059 38.1855 99.5434 38.1855C100.016 38.1855 100.515 38.2868 100.962 38.4304V38.2699C100.962 37.6787 100.726 37.003 99.7799 37.003C99.3407 37.003 98.9015 37.1973 98.5046 37.4L98.2512 36.8848C98.8762 36.5723 99.3998 36.4625 99.8221 36.4625ZM99.535 40.4743C100.109 40.4743 100.793 40.1787 100.962 39.5622V38.8949C100.565 38.7851 100.118 38.7176 99.6448 38.7176C98.9944 38.7176 98.4454 39.0892 98.4454 39.6128C98.4454 40.1534 98.9184 40.4743 99.535 40.4743ZM104.968 36.4625C105.931 36.4625 106.606 37.1635 106.606 38.1517V40.9304H105.973V38.2361C105.973 37.5267 105.525 37.0284 104.883 37.0284C104.149 37.0284 103.532 37.5436 103.532 38.1517V40.9304H102.899V36.5638H103.532V37.2649C103.785 36.8003 104.351 36.4625 104.968 36.4625ZM109.662 36.4625C110.853 36.4625 111.436 37.2142 111.436 38.2699V40.9304H110.802V40.2463C110.49 40.7615 109.839 41.0318 109.265 41.0318C108.344 41.0318 107.669 40.4997 107.669 39.6382C107.669 38.7682 108.446 38.1855 109.383 38.1855C109.856 38.1855 110.355 38.2868 110.802 38.4304V38.2699C110.802 37.6787 110.566 37.003 109.62 37.003C109.181 37.003 108.741 37.1973 108.344 37.4L108.091 36.8848C108.716 36.5723 109.24 36.4625 109.662 36.4625ZM109.375 40.4743C109.949 40.4743 110.633 40.1787 110.802 39.5622V38.8949C110.405 38.7851 109.958 38.7176 109.485 38.7176C108.834 38.7176 108.285 39.0892 108.285 39.6128C108.285 40.1534 108.758 40.4743 109.375 40.4743ZM116.125 36.5638H116.759V40.4659C116.759 41.5892 115.872 42.3831 114.613 42.3831C113.904 42.3831 113.245 42.1382 112.848 41.8004L113.127 41.302C113.465 41.623 113.988 41.8172 114.529 41.8172C115.534 41.8172 116.125 41.3189 116.125 40.4659V39.7564C115.787 40.2885 115.23 40.6095 114.537 40.6095C113.363 40.6095 112.527 39.748 112.527 38.5318C112.527 37.3155 113.363 36.4625 114.537 36.4625C115.23 36.4625 115.787 36.7834 116.125 37.3155V36.5638ZM114.656 40.0436C115.517 40.0436 116.125 39.4186 116.125 38.5318C116.125 37.6534 115.517 37.0284 114.656 37.0284C113.803 37.0284 113.195 37.6534 113.195 38.5318C113.195 39.4186 113.803 40.0436 114.656 40.0436ZM120.067 40.4659C120.583 40.4659 121.174 40.2378 121.444 39.9422L121.833 40.3561C121.453 40.7699 120.684 41.0318 120.076 41.0318C118.91 41.0318 117.863 40.0774 117.863 38.7345C117.863 37.4338 118.843 36.4625 120.017 36.4625C121.334 36.4625 122.086 37.4591 122.086 38.9878H118.513C118.606 39.8409 119.206 40.4659 120.067 40.4659ZM120.042 37.0284C119.265 37.0284 118.64 37.5774 118.522 38.422H121.461C121.377 37.6365 120.912 37.0284 120.042 37.0284ZM127.844 36.4625C128.756 36.4625 129.398 37.1635 129.398 38.1517V40.9304H128.764V38.2361C128.764 37.5267 128.351 37.0284 127.759 37.0284C127.067 37.0284 126.577 37.4929 126.577 38.1517V40.9304H125.943V38.2361C125.943 37.5267 125.53 37.0284 124.938 37.0284C124.246 37.0284 123.756 37.4929 123.756 38.1517V40.9304H123.123V36.5638H123.756V37.2057C123.976 36.7497 124.449 36.4625 125.023 36.4625C125.682 36.4625 126.197 36.8257 126.433 37.3915C126.611 36.8257 127.185 36.4625 127.844 36.4625ZM132.646 40.4659C133.161 40.4659 133.752 40.2378 134.022 39.9422L134.411 40.3561C134.031 40.7699 133.262 41.0318 132.654 41.0318C131.489 41.0318 130.441 40.0774 130.441 38.7345C130.441 37.4338 131.421 36.4625 132.595 36.4625C133.913 36.4625 134.664 37.4591 134.664 38.9878H131.092C131.184 39.8409 131.784 40.4659 132.646 40.4659ZM132.62 37.0284C131.843 37.0284 131.218 37.5774 131.1 38.422H134.039C133.955 37.6365 133.49 37.0284 132.62 37.0284ZM137.778 36.4625C138.741 36.4625 139.417 37.1635 139.417 38.1517V40.9304H138.784V38.2361C138.784 37.5267 138.336 37.0284 137.694 37.0284C136.959 37.0284 136.343 37.5436 136.343 38.1517V40.9304H135.709V36.5638H136.343V37.2649C136.596 36.8003 137.162 36.4625 137.778 36.4625ZM142.616 40.2885L142.929 40.7531C142.701 40.9304 142.414 41.0318 142.118 41.0318C141.493 41.0318 141.054 40.5672 141.054 39.9169V37.1297H140.37V36.5638H141.054V35.3645H141.687V36.5638H142.76V37.1297H141.687V39.9169C141.687 40.2378 141.907 40.4659 142.16 40.4659C142.355 40.4659 142.523 40.3899 142.616 40.2885Z" fill="#4F6169"/>
<rect x="69.3148" y="55.2484" width="25.3332" height="9.78713" rx="1.05575" stroke="#0079AD" stroke-width="0.703833"/>
<rect opacity="0.5" x="74.5928" y="59.3926" width="14.7778" height="1.49871" rx="0.749353" fill="#0079AD"/>
<rect opacity="0.5" x="106.259" y="59.3926" width="14.7778" height="1.49871" rx="0.749353" fill="#0079AD"/>
<rect x="100.278" y="55.2484" width="25.3332" height="9.78712" rx="1.05575" stroke="#0079AD" stroke-width="0.703833"/>
<g opacity="0.4">
<rect x="68.9756" y="88" width="25.7906" height="2" rx="1" fill="#4F6169"/>
<rect x="149.213" y="88" width="46.453" height="2" rx="1" fill="#4F6169"/>
<rect x="118.244" y="88" width="19.7073" height="2" rx="1" fill="#4F6169"/>
<rect x="235.081" y="88" width="17.5958" height="2" rx="1" fill="#4F6169"/>
</g>
<g opacity="0.4">
<rect x="68.9756" y="100" width="25.7906" height="2" rx="1" fill="#4F6169"/>
<rect x="149.213" y="100" width="46.453" height="2" rx="1" fill="#4F6169"/>
<rect x="118.244" y="100" width="19.7073" height="2" rx="1" fill="#4F6169"/>
<rect x="235.081" y="100" width="17.5958" height="2" rx="1" fill="#4F6169"/>
</g>
<g opacity="0.4">
<rect x="68.9756" y="112" width="25.7906" height="2" rx="1" fill="#4F6169"/>
<rect x="149.213" y="112" width="46.453" height="2" rx="1" fill="#4F6169"/>
<rect x="118.244" y="112" width="19.7073" height="2" rx="1" fill="#4F6169"/>
<rect x="235.081" y="112" width="17.5958" height="2" rx="1" fill="#4F6169"/>
</g>
<g opacity="0.4">
<rect x="68.9756" y="124" width="25.7906" height="2" rx="1" fill="#4F6169"/>
<rect x="149.213" y="124" width="46.453" height="2" rx="1" fill="#4F6169"/>
<rect x="118.244" y="124" width="19.7073" height="2" rx="1" fill="#4F6169"/>
<rect x="235.081" y="124" width="17.5958" height="2" rx="1" fill="#4F6169"/>
</g>
<g opacity="0.4">
<rect x="68.9756" y="136" width="25.7906" height="2" rx="1" fill="#4F6169"/>
<rect x="149.213" y="136" width="46.453" height="2" rx="1" fill="#4F6169"/>
<rect x="118.244" y="136" width="19.7073" height="2" rx="1" fill="#4F6169"/>
<rect x="235.081" y="136" width="17.5958" height="2" rx="1" fill="#4F6169"/>
</g>
<g opacity="0.4">
<rect x="68.9756" y="148" width="25.7906" height="2" rx="1" fill="#4F6169"/>
<rect x="149.213" y="148" width="46.453" height="2" rx="1" fill="#4F6169"/>
<rect x="118.244" y="148" width="19.7073" height="2" rx="1" fill="#4F6169"/>
<rect x="235.081" y="148" width="17.5958" height="2" rx="1" fill="#4F6169"/>
</g>
<g opacity="0.4">
<rect x="68.9756" y="160" width="25.7906" height="2" rx="1" fill="#4F6169"/>
<rect x="149.213" y="160" width="46.453" height="2" rx="1" fill="#4F6169"/>
<rect x="118.244" y="160" width="19.7073" height="2" rx="1" fill="#4F6169"/>
<rect x="235.081" y="160" width="17.5958" height="2" rx="1" fill="#4F6169"/>
</g>
<g opacity="0.4">
<rect x="68.9756" y="172" width="25.7906" height="2" rx="1" fill="#4F6169"/>
<rect x="149.213" y="172" width="46.453" height="2" rx="1" fill="#4F6169"/>
<rect x="118.244" y="172" width="19.7073" height="2" rx="1" fill="#4F6169"/>
<rect x="235.081" y="172" width="17.5958" height="2" rx="1" fill="#4F6169"/>
</g>
<g opacity="0.4">
<rect x="68.9756" y="184" width="25.7906" height="2" rx="1" fill="#4F6169"/>
<rect x="149.213" y="184" width="46.453" height="2" rx="1" fill="#4F6169"/>
<rect x="118.244" y="184" width="19.7073" height="2" rx="1" fill="#4F6169"/>
<rect x="235.081" y="184" width="17.5958" height="2" rx="1" fill="#4F6169"/>
</g>
<rect x="0.605911" y="11.6059" width="372.03" height="244.788" fill="#FCFDFD"/>
<rect x="0.605911" y="11.6059" width="372.03" height="244.788" stroke="#ACB8BE" stroke-width="1.21182"/>
<rect x="0.605911" y="11.6059" width="372.03" height="244.788" stroke="#ACB8BE" stroke-width="1.21182"/>
<rect x="1.21191" y="11" width="372.03" height="15.7537" fill="#95A2A8"/>
<rect x="1.21191" y="26.7537" width="67.8621" height="229.034" fill="#F1F6F8"/>
<path d="M87.4036 46.9107C85.6841 46.9107 84.4662 45.6518 84.4662 43.8709V39.7564H85.2645V43.8709C85.2645 45.2219 86.1549 46.184 87.4036 46.184C88.6523 46.184 89.5427 45.2219 89.5427 43.8709V39.7564H90.3411V43.8709C90.3411 45.6518 89.1231 46.9107 87.4036 46.9107ZM93.8731 46.9107C93.1362 46.9107 92.3174 46.6343 91.6828 46.1226L92.082 45.5596C92.6859 45.9997 93.2897 46.2249 93.8731 46.2249C94.5691 46.2249 95.0399 45.8974 95.0399 45.3959C95.0399 44.8227 94.4258 44.6385 93.7094 44.4338C92.43 44.0653 91.9387 43.6866 91.9387 42.9292C91.9387 41.9671 92.737 41.3735 93.7912 41.3735C94.4463 41.3735 95.1218 41.5987 95.6847 41.9671L95.3163 42.5608C94.784 42.223 94.262 42.0593 93.7912 42.0593C93.1976 42.0593 92.7063 42.3254 92.7063 42.8371C92.7063 43.2977 93.0953 43.441 94.0778 43.7583C94.9273 44.0244 95.8075 44.311 95.8075 45.314C95.8075 46.2863 94.9683 46.9107 93.8731 46.9107ZM99.4624 46.2249C100.087 46.2249 100.803 45.9486 101.131 45.5903L101.602 46.0919C101.141 46.5934 100.21 46.9107 99.4726 46.9107C98.0602 46.9107 96.7911 45.7541 96.7911 44.1267C96.7911 42.5505 97.9783 41.3735 99.401 41.3735C100.998 41.3735 101.909 42.5812 101.909 44.4338H97.5792C97.6917 45.4675 98.4184 46.2249 99.4624 46.2249ZM99.4317 42.0593C98.4901 42.0593 97.7327 42.7245 97.5894 43.748H101.151C101.049 42.7962 100.486 42.0593 99.4317 42.0593ZM104.004 42.5301C104.321 41.8238 105.079 41.3735 106.051 41.3735V42.0593C104.853 42.0593 104.004 42.7962 104.004 43.8299V46.7878H103.236V41.4963H104.004V42.5301ZM110.266 46.7878V39.7564H111.064L113.674 44.659L116.284 39.7564H117.082V46.7878H116.284V41.4759L113.674 46.3784L111.064 41.4759V46.7878H110.266ZM120.966 41.3735C122.41 41.3735 123.116 42.2844 123.116 43.5638V46.7878H122.348V45.9588C121.97 46.5831 121.181 46.9107 120.485 46.9107C119.37 46.9107 118.551 46.2659 118.551 45.2219C118.551 44.1677 119.493 43.4615 120.629 43.4615C121.202 43.4615 121.806 43.5843 122.348 43.7583V43.5638C122.348 42.8473 122.062 42.0285 120.915 42.0285C120.383 42.0285 119.851 42.264 119.37 42.5096L119.063 41.8853C119.82 41.5066 120.455 41.3735 120.966 41.3735ZM120.618 46.2351C121.314 46.2351 122.144 45.8769 122.348 45.1298V44.3212C121.867 44.1881 121.325 44.1063 120.752 44.1063C119.963 44.1063 119.298 44.5566 119.298 45.1912C119.298 45.8462 119.871 46.2351 120.618 46.2351ZM127.202 41.3735C128.369 41.3735 129.188 42.223 129.188 43.4205V46.7878H128.42V43.5229C128.42 42.6631 127.878 42.0593 127.1 42.0593C126.209 42.0593 125.462 42.6836 125.462 43.4205V46.7878H124.695V41.4963H125.462V42.3458C125.769 41.7829 126.455 41.3735 127.202 41.3735ZM132.891 41.3735C134.334 41.3735 135.04 42.2844 135.04 43.5638V46.7878H134.272V45.9588C133.894 46.5831 133.106 46.9107 132.41 46.9107C131.294 46.9107 130.475 46.2659 130.475 45.2219C130.475 44.1677 131.417 43.4615 132.553 43.4615C133.126 43.4615 133.73 43.5843 134.272 43.7583V43.5638C134.272 42.8473 133.986 42.0285 132.84 42.0285C132.307 42.0285 131.775 42.264 131.294 42.5096L130.987 41.8853C131.744 41.5066 132.379 41.3735 132.891 41.3735ZM132.543 46.2351C133.239 46.2351 134.068 45.8769 134.272 45.1298V44.3212C133.791 44.1881 133.249 44.1063 132.676 44.1063C131.888 44.1063 131.222 44.5566 131.222 45.1912C131.222 45.8462 131.796 46.2351 132.543 46.2351ZM140.723 41.4963H141.491V46.2249C141.491 47.5862 140.416 48.5483 138.891 48.5483C138.031 48.5483 137.233 48.2515 136.752 47.8421L137.09 47.2382C137.499 47.6271 138.134 47.8625 138.789 47.8625C140.007 47.8625 140.723 47.2587 140.723 46.2249V45.3652C140.314 46.01 139.638 46.3989 138.799 46.3989C137.376 46.3989 136.363 45.3549 136.363 43.8811C136.363 42.4072 137.376 41.3735 138.799 41.3735C139.638 41.3735 140.314 41.7624 140.723 42.4072V41.4963ZM138.942 45.7132C139.986 45.7132 140.723 44.9558 140.723 43.8811C140.723 42.8166 139.986 42.0593 138.942 42.0593C137.908 42.0593 137.171 42.8166 137.171 43.8811C137.171 44.9558 137.908 45.7132 138.942 45.7132ZM145.5 46.2249C146.124 46.2249 146.841 45.9486 147.168 45.5903L147.639 46.0919C147.179 46.5934 146.247 46.9107 145.51 46.9107C144.098 46.9107 142.829 45.7541 142.829 44.1267C142.829 42.5505 144.016 41.3735 145.439 41.3735C147.035 41.3735 147.946 42.5812 147.946 44.4338H143.617C143.729 45.4675 144.456 46.2249 145.5 46.2249ZM145.469 42.0593C144.528 42.0593 143.77 42.7245 143.627 43.748H147.189C147.087 42.7962 146.524 42.0593 145.469 42.0593ZM154.924 41.3735C156.029 41.3735 156.807 42.223 156.807 43.4205V46.7878H156.039V43.5229C156.039 42.6631 155.538 42.0593 154.821 42.0593C153.982 42.0593 153.389 42.6222 153.389 43.4205V46.7878H152.621V43.5229C152.621 42.6631 152.119 42.0593 151.403 42.0593C150.564 42.0593 149.97 42.6222 149.97 43.4205V46.7878H149.202V41.4963H149.97V42.2742C150.236 41.7215 150.809 41.3735 151.505 41.3735C152.304 41.3735 152.928 41.8136 153.215 42.4994C153.429 41.8136 154.125 41.3735 154.924 41.3735ZM160.743 46.2249C161.367 46.2249 162.084 45.9486 162.411 45.5903L162.882 46.0919C162.421 46.5934 161.49 46.9107 160.753 46.9107C159.341 46.9107 158.071 45.7541 158.071 44.1267C158.071 42.5505 159.259 41.3735 160.681 41.3735C162.278 41.3735 163.189 42.5812 163.189 44.4338H158.859C158.972 45.4675 159.699 46.2249 160.743 46.2249ZM160.712 42.0593C159.77 42.0593 159.013 42.7245 158.87 43.748H162.432C162.329 42.7962 161.766 42.0593 160.712 42.0593ZM166.963 41.3735C168.13 41.3735 168.948 42.223 168.948 43.4205V46.7878H168.181V43.5229C168.181 42.6631 167.638 42.0593 166.861 42.0593C165.97 42.0593 165.223 42.6836 165.223 43.4205V46.7878H164.455V41.4963H165.223V42.3458C165.53 41.7829 166.216 41.3735 166.963 41.3735ZM172.825 46.01L173.204 46.5729C172.928 46.7878 172.58 46.9107 172.222 46.9107C171.464 46.9107 170.932 46.3477 170.932 45.5596V42.1821H170.103V41.4963H170.932V40.0429H171.7V41.4963H172.999V42.1821H171.7V45.5596C171.7 45.9486 171.966 46.2249 172.273 46.2249C172.508 46.2249 172.713 46.1328 172.825 46.01Z" fill="#4F6169"/>
<rect x="83.9973" y="64.621" width="30.6993" height="11.8603" rx="1.27938" stroke="#0079AD" stroke-width="0.85292"/>
<rect opacity="0.5" x="90.3931" y="69.6433" width="17.908" height="1.81617" rx="0.908083" fill="#0079AD"/>
<rect opacity="0.5" x="128.767" y="69.6433" width="17.908" height="1.81617" rx="0.908083" fill="#0079AD"/>
<rect x="121.519" y="64.621" width="30.6993" height="11.8603" rx="1.27938" stroke="#0079AD" stroke-width="0.85292"/>
<g opacity="0.4">
<rect x="83.5859" y="104.31" width="31.2537" height="2.42365" rx="1.21182" fill="#4F6169"/>
<rect x="180.819" y="104.31" width="56.2927" height="2.42365" rx="1.21182" fill="#4F6169"/>
<rect x="143.291" y="104.31" width="23.8818" height="2.42365" rx="1.21182" fill="#4F6169"/>
<rect x="284.876" y="104.31" width="21.323" height="2.42365" rx="1.21182" fill="#4F6169"/>
</g>
<g opacity="0.4">
<rect x="83.5859" y="118.852" width="31.2537" height="2.42365" rx="1.21182" fill="#4F6169"/>
<rect x="180.819" y="118.852" width="56.2927" height="2.42365" rx="1.21182" fill="#4F6169"/>
<rect x="143.291" y="118.852" width="23.8818" height="2.42365" rx="1.21182" fill="#4F6169"/>
<rect x="284.876" y="118.852" width="21.323" height="2.42365" rx="1.21182" fill="#4F6169"/>
</g>
<g opacity="0.4">
<rect x="83.5859" y="133.394" width="31.2537" height="2.42365" rx="1.21182" fill="#4F6169"/>
<rect x="180.819" y="133.394" width="56.2927" height="2.42365" rx="1.21182" fill="#4F6169"/>
<rect x="143.291" y="133.394" width="23.8818" height="2.42365" rx="1.21182" fill="#4F6169"/>
<rect x="284.876" y="133.394" width="21.323" height="2.42365" rx="1.21182" fill="#4F6169"/>
</g>
<g opacity="0.4">
<rect x="83.5859" y="147.936" width="31.2537" height="2.42365" rx="1.21182" fill="#4F6169"/>
<rect x="180.819" y="147.936" width="56.2927" height="2.42365" rx="1.21182" fill="#4F6169"/>
<rect x="143.291" y="147.936" width="23.8818" height="2.42365" rx="1.21182" fill="#4F6169"/>
<rect x="284.876" y="147.936" width="21.323" height="2.42365" rx="1.21182" fill="#4F6169"/>
</g>
<g opacity="0.4">
<rect x="83.5859" y="162.478" width="31.2537" height="2.42365" rx="1.21182" fill="#4F6169"/>
<rect x="180.819" y="162.478" width="56.2927" height="2.42365" rx="1.21182" fill="#4F6169"/>
<rect x="143.291" y="162.478" width="23.8818" height="2.42365" rx="1.21182" fill="#4F6169"/>
<rect x="284.876" y="162.478" width="21.323" height="2.42365" rx="1.21182" fill="#4F6169"/>
</g>
<g opacity="0.4">
<rect x="83.5859" y="177.02" width="31.2537" height="2.42365" rx="1.21182" fill="#4F6169"/>
<rect x="180.819" y="177.02" width="56.2927" height="2.42365" rx="1.21182" fill="#4F6169"/>
<rect x="143.291" y="177.02" width="23.8818" height="2.42365" rx="1.21182" fill="#4F6169"/>
<rect x="284.876" y="177.02" width="21.323" height="2.42365" rx="1.21182" fill="#4F6169"/>
</g>
<g opacity="0.4">
<rect x="83.5859" y="191.562" width="31.2537" height="2.42365" rx="1.21182" fill="#4F6169"/>
<rect x="180.819" y="191.562" width="56.2927" height="2.42365" rx="1.21182" fill="#4F6169"/>
<rect x="143.291" y="191.562" width="23.8818" height="2.42365" rx="1.21182" fill="#4F6169"/>
<rect x="284.876" y="191.562" width="21.323" height="2.42365" rx="1.21182" fill="#4F6169"/>
</g>
<g opacity="0.4">
<rect x="83.5859" y="206.104" width="31.2537" height="2.42365" rx="1.21182" fill="#4F6169"/>
<rect x="180.819" y="206.104" width="56.2927" height="2.42365" rx="1.21182" fill="#4F6169"/>
<rect x="143.291" y="206.104" width="23.8818" height="2.42365" rx="1.21182" fill="#4F6169"/>
<rect x="284.876" y="206.104" width="21.323" height="2.42365" rx="1.21182" fill="#4F6169"/>
</g>
<g opacity="0.4">
<rect x="83.5859" y="220.646" width="31.2537" height="2.42365" rx="1.21182" fill="#4F6169"/>
<rect x="180.819" y="220.646" width="56.2927" height="2.42365" rx="1.21182" fill="#4F6169"/>
<rect x="143.291" y="220.646" width="23.8818" height="2.42365" rx="1.21182" fill="#4F6169"/>
<rect x="284.876" y="220.646" width="21.323" height="2.42365" rx="1.21182" fill="#4F6169"/>
</g>
<g filter="url(#filter0_d_11163_6520)">
<mask id="path-91-inside-1_11163_6520" fill="white">
<path fill-rule="evenodd" clip-rule="evenodd" d="M189.318 3C187.303 3 185.67 4.63326 185.67 6.64799V66.8011L166.851 66.8051C165.773 66.8053 165.228 68.1051 165.984 68.8739L185.67 88.883V153.352C185.67 155.367 187.303 157 189.318 157H439.373C441.387 157 443.021 155.367 443.021 153.352V6.648C443.021 4.63327 441.387 3 439.373 3H189.318Z"/>
</mask>
<path fill-rule="evenodd" clip-rule="evenodd" d="M189.318 3C187.303 3 185.67 4.63326 185.67 6.64799V66.8011L166.851 66.8051C165.773 66.8053 165.228 68.1051 165.984 68.8739L185.67 88.883V153.352C185.67 155.367 187.303 157 189.318 157H439.373C441.387 157 443.021 155.367 443.021 153.352V6.648C443.021 4.63327 441.387 3 439.373 3H189.318Z" fill="white"/>
<path d="M185.67 66.8011L185.67 68.0171L186.886 68.0169V66.8011H185.67ZM166.851 66.8051L166.851 65.5891H166.851L166.851 66.8051ZM165.984 68.8739L166.851 68.0211H166.851L165.984 68.8739ZM185.67 88.883H186.886V88.3851L186.536 88.0302L185.67 88.883ZM186.886 6.64799C186.886 5.30484 187.974 4.216 189.318 4.216V1.784C186.631 1.784 184.454 3.96167 184.454 6.64799H186.886ZM186.886 66.8011V6.64799H184.454V66.8011H186.886ZM166.851 68.0211L185.67 68.0171L185.669 65.5851L166.851 65.5891L166.851 68.0211ZM166.851 68.0211H166.851L166.851 65.5891C164.694 65.5895 163.605 68.1891 165.118 69.7267L166.851 68.0211ZM186.536 88.0302L166.851 68.0211L165.118 69.7267L184.803 89.7358L186.536 88.0302ZM186.886 153.352V88.883H184.454V153.352H186.886ZM189.318 155.784C187.974 155.784 186.886 154.695 186.886 153.352H184.454C184.454 156.038 186.631 158.216 189.318 158.216V155.784ZM439.373 155.784H189.318V158.216H439.373V155.784ZM441.805 153.352C441.805 154.695 440.716 155.784 439.373 155.784V158.216C442.059 158.216 444.237 156.038 444.237 153.352H441.805ZM441.805 6.648V153.352H444.237V6.648H441.805ZM439.373 4.216C440.716 4.216 441.805 5.30485 441.805 6.648H444.237C444.237 3.96168 442.059 1.784 439.373 1.784V4.216ZM189.318 4.216H439.373V1.784H189.318V4.216Z" fill="#67777E" mask="url(#path-91-inside-1_11163_6520)"/>
</g>
<path d="M425.841 21L430.437 16.3944C430.625 16.174 430.612 15.8454 430.408 15.6402C430.203 15.435 429.875 15.4223 429.655 15.6111L425.06 20.2166L420.464 15.6055C420.247 15.3877 419.895 15.3877 419.677 15.6055C419.46 15.8234 419.46 16.1766 419.677 16.3944L424.278 21L419.677 25.6055C419.519 25.7413 419.45 25.9545 419.499 26.1574C419.547 26.3604 419.706 26.5188 419.908 26.5676C420.111 26.6165 420.323 26.5474 420.459 26.3889L425.06 21.7833L429.655 26.3889C429.875 26.5776 430.203 26.5649 430.408 26.3597C430.612 26.1545 430.625 25.8259 430.437 25.6055L425.841 21Z" fill="#4F6169"/>
<rect x="373.398" y="117.576" width="56.5469" height="24.64" rx="1.216" fill="#0079AD"/>
<path d="M386.414 132.504V125.821H387.62L391.152 130.519V125.821H392.358V132.504H391.152L387.62 127.805V132.504H386.414ZM400.693 126.93H396.879V128.545H400.323V129.654H396.879V131.395H400.693V132.504H395.663V125.821H400.693V126.93ZM409.36 125.821L406.879 129.157L409.36 132.504H407.92L406.159 130.13L404.389 132.504H402.969L405.449 129.167L402.969 125.821H404.408L406.169 128.194L407.94 125.821H409.36ZM413.513 132.504V126.93H411.373V125.821H416.859V126.93H414.729V132.504H413.513Z" fill="white"/>
<path d="M210.249 32.4232C207.477 32.4232 205.113 30.0447 205.113 27.2284C205.113 24.4121 207.477 22.0482 210.249 22.0482C211.635 22.0482 212.92 22.6319 213.853 23.5804L213.08 24.3684C212.35 23.595 211.344 23.0989 210.249 23.0989C208.09 23.0989 206.266 24.9958 206.266 27.2284C206.266 29.4756 208.09 31.3725 210.249 31.3725C211.344 31.3725 212.35 30.8764 213.08 30.103L213.853 30.891C212.92 31.8249 211.635 32.4232 210.249 32.4232ZM216.578 26.1778C217.03 25.1709 218.11 24.5289 219.496 24.5289V25.5065C217.789 25.5065 216.578 26.5572 216.578 28.031V32.248H215.483V24.704H216.578V26.1778ZM224.41 31.4455C225.3 31.4455 226.321 31.0515 226.788 30.5408L227.459 31.2558C226.803 31.9708 225.475 32.4232 224.424 32.4232C222.411 32.4232 220.601 30.7743 220.601 28.4541C220.601 26.207 222.294 24.5289 224.322 24.5289C226.598 24.5289 227.897 26.2507 227.897 28.8919H221.725C221.885 30.3657 222.921 31.4455 224.41 31.4455ZM224.366 25.5065C223.023 25.5065 221.944 26.455 221.739 27.9142H226.817C226.671 26.5572 225.869 25.5065 224.366 25.5065ZM232.752 24.5289C234.81 24.5289 235.817 25.8276 235.817 27.6516V32.248H234.722V31.0661C234.182 31.9562 233.059 32.4232 232.066 32.4232C230.476 32.4232 229.309 31.5039 229.309 30.0155C229.309 28.5125 230.651 27.5056 232.271 27.5056C233.088 27.5056 233.949 27.6808 234.722 27.9288V27.6516C234.722 26.6301 234.314 25.4628 232.679 25.4628C231.921 25.4628 231.162 25.7984 230.476 26.1486L230.038 25.2585C231.118 24.7186 232.023 24.5289 232.752 24.5289ZM232.256 31.4601C233.248 31.4601 234.43 30.9494 234.722 29.8841V28.7314C234.036 28.5417 233.263 28.4249 232.446 28.4249C231.322 28.4249 230.374 29.067 230.374 29.9717C230.374 30.9056 231.191 31.4601 232.256 31.4601ZM241.365 31.1391L241.905 31.9416C241.511 32.248 241.015 32.4232 240.504 32.4232C239.424 32.4232 238.666 31.6206 238.666 30.497V25.6816H237.484V24.704H238.666V22.6319H239.76V24.704H241.613V25.6816H239.76V30.497C239.76 31.0515 240.139 31.4455 240.577 31.4455C240.913 31.4455 241.205 31.3142 241.365 31.1391ZM246.853 31.4455C247.744 31.4455 248.765 31.0515 249.232 30.5408L249.903 31.2558C249.247 31.9708 247.919 32.4232 246.868 32.4232C244.854 32.4232 243.045 30.7743 243.045 28.4541C243.045 26.207 244.738 24.5289 246.766 24.5289C249.042 24.5289 250.341 26.2507 250.341 28.8919H244.169C244.329 30.3657 245.365 31.4455 246.853 31.4455ZM246.81 25.5065C245.467 25.5065 244.387 26.455 244.183 27.9142H249.261C249.115 26.5572 248.313 25.5065 246.81 25.5065ZM259.428 24.5289C261.486 24.5289 262.493 25.8276 262.493 27.6516V32.248H261.398V31.0661C260.858 31.9562 259.735 32.4232 258.742 32.4232C257.152 32.4232 255.985 31.5039 255.985 30.0155C255.985 28.5125 257.327 27.5056 258.947 27.5056C259.764 27.5056 260.625 27.6808 261.398 27.9288V27.6516C261.398 26.6301 260.99 25.4628 259.355 25.4628C258.597 25.4628 257.838 25.7984 257.152 26.1486L256.714 25.2585C257.794 24.7186 258.699 24.5289 259.428 24.5289ZM258.932 31.4601C259.924 31.4601 261.106 30.9494 261.398 29.8841V28.7314C260.712 28.5417 259.939 28.4249 259.122 28.4249C257.998 28.4249 257.05 29.067 257.05 29.9717C257.05 30.9056 257.867 31.4601 258.932 31.4601ZM274.272 24.704H275.367V32.248H274.272V31.0369C273.835 31.8395 272.857 32.4232 271.792 32.4232C270.128 32.4232 268.961 31.212 268.961 29.5048V24.704H270.055V29.3588C270.055 30.5846 270.829 31.4455 271.938 31.4455C273.207 31.4455 274.272 30.5554 274.272 29.5048V24.704ZM280.267 32.4232C279.216 32.4232 278.049 32.0292 277.144 31.2996L277.713 30.497C278.574 31.1245 279.435 31.4455 280.267 31.4455C281.259 31.4455 281.93 30.9785 281.93 30.2635C281.93 29.4464 281.055 29.1837 280.033 28.8919C278.209 28.3666 277.509 27.8267 277.509 26.7469C277.509 25.3752 278.647 24.5289 280.15 24.5289C281.084 24.5289 282.047 24.8499 282.85 25.3752L282.324 26.2216C281.566 25.74 280.821 25.5065 280.15 25.5065C279.304 25.5065 278.603 25.8859 278.603 26.6155C278.603 27.2722 279.158 27.4765 280.559 27.9288C281.77 28.3082 283.025 28.7168 283.025 30.1468C283.025 31.533 281.828 32.4232 280.267 32.4232ZM288.235 31.4455C289.126 31.4455 290.147 31.0515 290.614 30.5408L291.285 31.2558C290.629 31.9708 289.301 32.4232 288.25 32.4232C286.236 32.4232 284.427 30.7743 284.427 28.4541C284.427 26.207 286.12 24.5289 288.148 24.5289C290.424 24.5289 291.723 26.2507 291.723 28.8919H285.551C285.711 30.3657 286.747 31.4455 288.235 31.4455ZM288.192 25.5065C286.849 25.5065 285.769 26.455 285.565 27.9142H290.643C290.497 26.5572 289.695 25.5065 288.192 25.5065ZM294.71 26.1778C295.163 25.1709 296.242 24.5289 297.629 24.5289V25.5065C295.921 25.5065 294.71 26.5572 294.71 28.031V32.248H293.616V24.704H294.71V26.1778ZM309.241 24.704H310.335V31.4455C310.335 33.3862 308.803 34.7579 306.629 34.7579C305.403 34.7579 304.265 34.3347 303.579 33.751L304.061 32.8901C304.644 33.4446 305.549 33.7802 306.483 33.7802C308.219 33.7802 309.241 32.9193 309.241 31.4455V30.2198C308.657 31.1391 307.694 31.6936 306.497 31.6936C304.469 31.6936 303.025 30.2052 303.025 28.1039C303.025 26.0027 304.469 24.5289 306.497 24.5289C307.694 24.5289 308.657 25.0834 309.241 26.0027V24.704ZM306.702 30.7159C308.19 30.7159 309.241 29.6361 309.241 28.1039C309.241 26.5864 308.19 25.5065 306.702 25.5065C305.228 25.5065 304.177 26.5864 304.177 28.1039C304.177 29.6361 305.228 30.7159 306.702 30.7159ZM313.848 26.1778C314.3 25.1709 315.38 24.5289 316.766 24.5289V25.5065C315.059 25.5065 313.848 26.5572 313.848 28.031V32.248H312.754V24.704H313.848V26.1778ZM321.54 32.4232C319.424 32.4232 317.629 30.6137 317.629 28.4687C317.629 26.3237 319.424 24.5289 321.54 24.5289C323.656 24.5289 325.436 26.3237 325.436 28.4687C325.436 30.6137 323.656 32.4232 321.54 32.4232ZM321.54 31.4455C323.028 31.4455 324.283 30.0884 324.283 28.4687C324.283 26.8636 323.028 25.5065 321.54 25.5065C320.037 25.5065 318.782 26.8636 318.782 28.4687C318.782 30.0884 320.037 31.4455 321.54 31.4455ZM332.555 24.704H333.649V32.248H332.555V31.0369C332.117 31.8395 331.14 32.4232 330.074 32.4232C328.411 32.4232 327.244 31.212 327.244 29.5048V24.704H328.338V29.3588C328.338 30.5846 329.111 31.4455 330.22 31.4455C331.49 31.4455 332.555 30.5554 332.555 29.5048V24.704ZM339.819 24.5289C341.803 24.5289 343.292 26.1632 343.292 28.4687C343.292 30.7888 341.803 32.4232 339.819 32.4232C338.608 32.4232 337.645 31.8249 337.076 30.8326V34.7579H335.981V24.704H337.076V26.1194C337.645 25.1271 338.608 24.5289 339.819 24.5289ZM339.615 31.4455C341.088 31.4455 342.139 30.2052 342.139 28.4687C342.139 26.7323 341.088 25.5065 339.615 25.5065C338.126 25.5065 337.076 26.7323 337.076 28.4687C337.076 30.2052 338.126 31.4455 339.615 31.4455Z" fill="#22343C"/>
<path d="M209.899 70.5859C207.589 70.5859 205.619 68.6038 205.619 66.2569C205.619 63.91 207.589 61.9401 209.899 61.9401C211.055 61.9401 212.125 62.4265 212.903 63.2169L212.258 63.8735C211.65 63.2291 210.811 62.8156 209.899 62.8156C208.1 62.8156 206.58 64.3964 206.58 66.2569C206.58 68.1295 208.1 69.7103 209.899 69.7103C210.811 69.7103 211.65 69.2969 212.258 68.6524L212.903 69.3091C212.125 70.0873 211.055 70.5859 209.899 70.5859ZM214.176 70.4399V61.9401H215.088V70.4399H214.176ZM217.381 63.0102C217.04 63.0102 216.773 62.7305 216.773 62.4022C216.773 62.086 217.04 61.8063 217.381 61.8063C217.709 61.8063 217.977 62.086 217.977 62.4022C217.977 62.7305 217.709 63.0102 217.381 63.0102ZM216.919 70.4399V64.1532H217.831V70.4399H216.919ZM222.581 70.5859C220.817 70.5859 219.322 69.078 219.322 67.2905C219.322 65.503 220.817 64.0073 222.581 64.0073C223.432 64.0073 224.222 64.3599 224.818 64.9315L224.186 65.5516C223.772 65.1017 223.201 64.822 222.581 64.822C221.328 64.822 220.282 65.9529 220.282 67.2905C220.282 68.6403 221.328 69.7711 222.581 69.7711C223.213 69.7711 223.797 69.4793 224.222 69.0051L224.855 69.6252C224.259 70.2211 223.456 70.5859 222.581 70.5859ZM231.761 64.1532L228.928 67.0351L231.603 70.4399H230.46L228.284 67.6553L227.153 68.774V70.4399H226.241V61.9401H227.153V67.631L230.594 64.1532H231.761ZM239.301 70.5859C237.537 70.5859 236.042 69.078 236.042 67.2905C236.042 65.503 237.537 64.0073 239.301 64.0073C241.064 64.0073 242.547 65.503 242.547 67.2905C242.547 69.078 241.064 70.5859 239.301 70.5859ZM239.301 69.7711C240.541 69.7711 241.587 68.6403 241.587 67.2905C241.587 65.9529 240.541 64.822 239.301 64.822C238.048 64.822 237.002 65.9529 237.002 67.2905C237.002 68.6403 238.048 69.7711 239.301 69.7711ZM247.045 64.0073C248.431 64.0073 249.404 65.0166 249.404 66.4393V70.4399H248.492V66.5609C248.492 65.5395 247.847 64.822 246.923 64.822C245.865 64.822 244.978 65.5638 244.978 66.4393V70.4399H244.066V64.1532H244.978V65.1625C245.342 64.4937 246.157 64.0073 247.045 64.0073ZM257.537 69.5158L257.987 70.1846C257.659 70.4399 257.245 70.5859 256.819 70.5859C255.92 70.5859 255.287 69.9171 255.287 68.9807V64.9679H254.302V64.1532H255.287V62.4265H256.199V64.1532H257.744V64.9679H256.199V68.9807C256.199 69.4428 256.515 69.7711 256.88 69.7711C257.16 69.7711 257.403 69.6617 257.537 69.5158ZM262.269 64.0073C263.655 64.0073 264.628 65.0166 264.628 66.4393V70.4399H263.716V66.5609C263.716 65.5395 263.071 64.822 262.147 64.822C261.089 64.822 260.201 65.5638 260.201 66.4393V70.4399H259.289V61.9401H260.201V65.1625C260.566 64.4937 261.381 64.0073 262.269 64.0073ZM269.307 69.7711C270.049 69.7711 270.9 69.4428 271.289 69.0172L271.848 69.6131C271.301 70.2089 270.194 70.5859 269.319 70.5859C267.641 70.5859 266.133 69.2118 266.133 67.2783C266.133 65.4057 267.544 64.0073 269.234 64.0073C271.131 64.0073 272.213 65.4422 272.213 67.6431H267.069C267.203 68.8713 268.066 69.7711 269.307 69.7711ZM269.27 64.822C268.152 64.822 267.252 65.6124 267.081 66.8284H271.313C271.192 65.6975 270.523 64.822 269.27 64.822ZM280.515 64.0073C282.169 64.0073 283.41 65.3692 283.41 67.2905C283.41 69.2239 282.169 70.5859 280.515 70.5859C279.506 70.5859 278.704 70.0873 278.229 69.2604V70.4399H277.317V61.9401H278.229V65.3327C278.704 64.5059 279.506 64.0073 280.515 64.0073ZM280.345 69.7711C281.573 69.7711 282.449 68.7375 282.449 67.2905C282.449 65.8435 281.573 64.822 280.345 64.822C279.105 64.822 278.229 65.8435 278.229 67.2905C278.229 68.7375 279.105 69.7711 280.345 69.7711ZM289.413 64.1532H290.325V70.4399H289.413V69.4307C289.048 70.0995 288.233 70.5859 287.346 70.5859C285.959 70.5859 284.987 69.5766 284.987 68.1539V64.1532H285.899V68.0323C285.899 69.0537 286.543 69.7711 287.467 69.7711C288.525 69.7711 289.413 69.0294 289.413 68.1539V64.1532ZM294.943 69.5158L295.393 70.1846C295.065 70.4399 294.651 70.5859 294.226 70.5859C293.326 70.5859 292.694 69.9171 292.694 68.9807V64.9679H291.709V64.1532H292.694V62.4265H293.606V64.1532H295.15V64.9679H293.606V68.9807C293.606 69.4428 293.922 69.7711 294.287 69.7711C294.566 69.7711 294.809 69.6617 294.943 69.5158ZM299.444 69.5158L299.894 70.1846C299.565 70.4399 299.152 70.5859 298.726 70.5859C297.827 70.5859 297.194 69.9171 297.194 68.9807V64.9679H296.209V64.1532H297.194V62.4265H298.106V64.1532H299.651V64.9679H298.106V68.9807C298.106 69.4428 298.422 69.7711 298.787 69.7711C299.067 69.7711 299.31 69.6617 299.444 69.5158ZM304.103 70.5859C302.339 70.5859 300.844 69.078 300.844 67.2905C300.844 65.503 302.339 64.0073 304.103 64.0073C305.866 64.0073 307.349 65.503 307.349 67.2905C307.349 69.078 305.866 70.5859 304.103 70.5859ZM304.103 69.7711C305.343 69.7711 306.389 68.6403 306.389 67.2905C306.389 65.9529 305.343 64.822 304.103 64.822C302.85 64.822 301.804 65.9529 301.804 67.2905C301.804 68.6403 302.85 69.7711 304.103 69.7711ZM311.847 64.0073C313.233 64.0073 314.206 65.0166 314.206 66.4393V70.4399H313.294V66.5609C313.294 65.5395 312.649 64.822 311.725 64.822C310.667 64.822 309.78 65.5638 309.78 66.4393V70.4399H308.868V64.1532H309.78V65.1625C310.144 64.4937 310.959 64.0073 311.847 64.0073ZM320.454 62.2563L320.904 62.5967C320.576 62.9737 320.369 63.3507 320.272 63.7276C320.636 63.7276 320.928 64.0316 320.928 64.3964C320.928 64.7369 320.649 65.0409 320.259 65.0409C319.797 65.0409 319.518 64.6275 319.518 64.0681C319.518 63.5817 319.724 63.1683 320.454 62.2563ZM322.886 62.2563L323.336 62.5967C323.008 62.9737 322.801 63.3507 322.704 63.7276C323.068 63.7276 323.36 64.0316 323.36 64.3964C323.36 64.7369 323.081 65.0409 322.691 65.0409C322.229 65.0409 321.95 64.6275 321.95 64.0681C321.95 63.5817 322.156 63.1683 322.886 62.2563ZM325.438 70.4399V62.086H326.386L331.567 68.8835V62.086H332.515V70.4399H331.567L326.386 63.6425V70.4399H325.438ZM337.41 69.7711C338.152 69.7711 339.003 69.4428 339.392 69.0172L339.951 69.6131C339.404 70.2089 338.298 70.5859 337.422 70.5859C335.744 70.5859 334.236 69.2118 334.236 67.2783C334.236 65.4057 335.647 64.0073 337.337 64.0073C339.234 64.0073 340.316 65.4422 340.316 67.6431H335.172C335.306 68.8713 336.17 69.7711 337.41 69.7711ZM337.373 64.822C336.255 64.822 335.355 65.6124 335.185 66.8284H339.416C339.295 65.6975 338.626 64.822 337.373 64.822ZM343.105 70.4399L341.001 64.1532H341.974L343.543 69.2239L345.257 64.1532H346.048L347.762 69.2239L349.331 64.1532H350.304L348.188 70.4399H347.324L345.658 65.4179L343.968 70.4399H343.105ZM359.582 64.1532H360.494V70.4399H359.582V69.4307C359.217 70.0995 358.403 70.5859 357.515 70.5859C356.129 70.5859 355.156 69.5766 355.156 68.1539V64.1532H356.068V68.0323C356.068 69.0537 356.712 69.7711 357.637 69.7711C358.695 69.7711 359.582 69.0294 359.582 68.1539V64.1532ZM364.578 70.5859C363.702 70.5859 362.729 70.2575 361.975 69.6495L362.45 68.9807C363.167 69.5036 363.884 69.7711 364.578 69.7711C365.404 69.7711 365.964 69.382 365.964 68.7862C365.964 68.1052 365.234 67.8863 364.383 67.6431C362.863 67.2054 362.279 66.7555 362.279 65.8556C362.279 64.7126 363.228 64.0073 364.48 64.0073C365.258 64.0073 366.061 64.2748 366.73 64.7126L366.292 65.4179C365.66 65.0166 365.04 64.822 364.48 64.822C363.775 64.822 363.191 65.1382 363.191 65.7462C363.191 66.2934 363.653 66.4636 364.821 66.8406C365.83 67.1567 366.876 67.4972 366.876 68.6889C366.876 69.8441 365.879 70.5859 364.578 70.5859ZM371.218 69.7711C371.96 69.7711 372.811 69.4428 373.2 69.0172L373.759 69.6131C373.212 70.2089 372.106 70.5859 371.23 70.5859C369.552 70.5859 368.044 69.2118 368.044 67.2783C368.044 65.4057 369.455 64.0073 371.145 64.0073C373.042 64.0073 374.124 65.4422 374.124 67.6431H368.981C369.114 68.8713 369.978 69.7711 371.218 69.7711ZM371.182 64.822C370.063 64.822 369.163 65.6124 368.993 66.8284H373.224C373.103 65.6975 372.434 64.822 371.182 64.822ZM376.614 65.3814C376.991 64.5423 377.891 64.0073 379.046 64.0073V64.822C377.623 64.822 376.614 65.6975 376.614 66.9257V70.4399H375.702V64.1532H376.614V65.3814ZM210.799 81.1532H211.711V86.7711C211.711 88.3884 210.434 89.5315 208.623 89.5315C207.601 89.5315 206.653 89.1788 206.081 88.6924L206.482 87.975C206.969 88.4371 207.723 88.7167 208.501 88.7167C209.948 88.7167 210.799 87.9993 210.799 86.7711V85.7497C210.313 86.5158 209.51 86.9779 208.513 86.9779C206.823 86.9779 205.619 85.7375 205.619 83.9865C205.619 82.2355 206.823 81.0073 208.513 81.0073C209.51 81.0073 210.313 81.4694 210.799 82.2355V81.1532ZM208.683 86.1631C209.924 86.1631 210.799 85.2633 210.799 83.9865C210.799 82.7219 209.924 81.822 208.683 81.822C207.455 81.822 206.58 82.7219 206.58 83.9865C206.58 85.2633 207.455 86.1631 208.683 86.1631ZM214.639 82.3814C215.016 81.5423 215.916 81.0073 217.071 81.0073V81.822C215.648 81.822 214.639 82.6975 214.639 83.9257V87.4399H213.727V81.1532H214.639V82.3814ZM221.049 87.5859C219.286 87.5859 217.79 86.078 217.79 84.2905C217.79 82.503 219.286 81.0073 221.049 81.0073C222.812 81.0073 224.295 82.503 224.295 84.2905C224.295 86.078 222.812 87.5859 221.049 87.5859ZM221.049 86.7711C222.289 86.7711 223.335 85.6403 223.335 84.2905C223.335 82.9529 222.289 81.822 221.049 81.822C219.796 81.822 218.751 82.9529 218.751 84.2905C218.751 85.6403 219.796 86.7711 221.049 86.7711ZM230.228 81.1532H231.14V87.4399H230.228V86.4307C229.863 87.0995 229.048 87.5859 228.161 87.5859C226.774 87.5859 225.802 86.5766 225.802 85.1539V81.1532H226.714V85.0323C226.714 86.0537 227.358 86.7711 228.282 86.7711C229.34 86.7711 230.228 86.0294 230.228 85.1539V81.1532ZM236.281 81.0073C237.935 81.0073 239.175 82.3692 239.175 84.2905C239.175 86.2239 237.935 87.5859 236.281 87.5859C235.272 87.5859 234.469 87.0873 233.995 86.2604V89.5315H233.083V81.1532H233.995V82.3327C234.469 81.5059 235.272 81.0073 236.281 81.0073ZM236.111 86.7711C237.339 86.7711 238.214 85.7375 238.214 84.2905C238.214 82.8435 237.339 81.822 236.111 81.822C234.87 81.822 233.995 82.8435 233.995 84.2905C233.995 85.7375 234.87 86.7711 236.111 86.7711ZM241.239 82.0166L240.789 81.6761C241.117 81.2991 241.324 80.9222 241.421 80.5452C241.056 80.5452 240.764 80.2412 240.764 79.8764C240.764 79.5359 241.044 79.2319 241.433 79.2319C241.895 79.2319 242.175 79.6454 242.175 80.2047C242.175 80.6911 241.968 81.1046 241.239 82.0166ZM243.671 82.0166L243.221 81.6761C243.549 81.2991 243.756 80.9222 243.853 80.5452C243.488 80.5452 243.196 80.2412 243.196 79.8764C243.196 79.5359 243.476 79.2319 243.865 79.2319C244.327 79.2319 244.607 79.6454 244.607 80.2047C244.607 80.6911 244.4 81.1046 243.671 82.0166ZM247.025 87.5859C246.648 87.5859 246.356 87.2819 246.356 86.9171C246.356 86.5766 246.648 86.2726 247.025 86.2726C247.378 86.2726 247.67 86.5766 247.67 86.9171C247.67 87.2819 247.378 87.5859 247.025 87.5859Z" fill="#4F6169"/>
<path d="M208.474 139.321C207.231 139.321 206.252 138.87 205.493 138.122L206.032 137.451C206.67 138.089 207.451 138.54 208.507 138.54C209.673 138.54 210.267 137.902 210.267 137.22C210.267 136.417 209.552 136.098 208.232 135.79C206.714 135.438 205.757 134.965 205.757 133.656C205.757 132.446 206.835 131.5 208.287 131.5C209.409 131.5 210.245 131.94 210.938 132.578L210.41 133.249C209.783 132.644 209.035 132.281 208.243 132.281C207.308 132.281 206.626 132.897 206.626 133.59C206.626 134.371 207.374 134.646 208.661 134.954C210.102 135.295 211.136 135.812 211.136 137.143C211.136 138.342 210.234 139.321 208.474 139.321ZM215.066 138.364L215.473 138.969C215.176 139.2 214.802 139.332 214.417 139.332C213.603 139.332 213.031 138.727 213.031 137.88V134.25H212.14V133.513H213.031V131.951H213.856V133.513H215.253V134.25H213.856V137.88C213.856 138.298 214.142 138.595 214.472 138.595C214.725 138.595 214.945 138.496 215.066 138.364ZM219.203 138.595C219.874 138.595 220.644 138.298 220.996 137.913L221.502 138.452C221.007 138.991 220.006 139.332 219.214 139.332C217.696 139.332 216.332 138.089 216.332 136.34C216.332 134.646 217.608 133.381 219.137 133.381C220.853 133.381 221.832 134.679 221.832 136.67H217.179C217.3 137.781 218.081 138.595 219.203 138.595ZM219.17 134.118C218.158 134.118 217.344 134.833 217.19 135.933H221.018C220.908 134.91 220.303 134.118 219.17 134.118ZM226.152 133.381C227.648 133.381 228.77 134.613 228.77 136.351C228.77 138.1 227.648 139.332 226.152 139.332C225.239 139.332 224.513 138.881 224.084 138.133V141.092H223.259V133.513H224.084V134.58C224.513 133.832 225.239 133.381 226.152 133.381ZM225.998 138.595C227.109 138.595 227.901 137.66 227.901 136.351C227.901 135.042 227.109 134.118 225.998 134.118C224.876 134.118 224.084 135.042 224.084 136.351C224.084 137.66 224.876 138.595 225.998 138.595ZM234.531 139.2V132.688L233.211 133.546L232.837 132.908L234.696 131.643H235.389V139.2H234.531ZM236.253 140.014L240.114 131.027H241.049L237.188 140.014H236.253ZM242.975 139.2V132.688L241.655 133.546L241.281 132.908L243.14 131.643H243.833V139.2H242.975ZM248.668 139.332C246.82 139.332 245.522 137.715 245.522 135.416C245.522 133.128 246.82 131.511 248.668 131.511C250.505 131.511 251.803 133.128 251.803 135.416C251.803 137.715 250.505 139.332 248.668 139.332ZM248.668 138.54C249.999 138.54 250.934 137.242 250.934 135.416C250.934 133.59 249.999 132.303 248.668 132.303C247.337 132.303 246.391 133.59 246.391 135.416C246.391 137.242 247.337 138.54 248.668 138.54Z" fill="#1B2B32"/>
<defs>
<filter id="filter0_d_11163_6520" x="159.633" y="0" width="289.388" height="166" filterUnits="userSpaceOnUse" color-interpolation-filters="sRGB">
<feFlood flood-opacity="0" result="BackgroundImageFix"/>
<feColorMatrix in="SourceAlpha" type="matrix" values="0 0 0 0 0 0 0 0 0 0 0 0 0 0 0 0 0 0 127 0" result="hardAlpha"/>
<feOffset dy="3"/>
<feGaussianBlur stdDeviation="3"/>
<feColorMatrix type="matrix" values="0 0 0 0 0 0 0 0 0 0 0 0 0 0 0 0 0 0 0.2 0"/>
<feBlend mode="normal" in2="BackgroundImageFix" result="effect1_dropShadow_11163_6520"/>
<feBlend mode="normal" in="SourceGraphic" in2="effect1_dropShadow_11163_6520" result="shape"/>
</filter>
</defs>
</svg>
