<svg width="698" height="237" viewBox="0 0 698 237" fill="none" xmlns="http://www.w3.org/2000/svg">
<g clip-path="url(#clip0_324_4235)">
<path d="M664.11 211.11C664.11 207.88 666.34 205.18 669.34 204.45C669.22 204.14 669.15 203.8 669.15 203.45C669.15 201.91 670.4 200.66 671.94 200.66C672.48 200.66 672.98 200.82 673.41 201.08C675.26 199.05 677.92 197.77 680.88 197.77C686.33 197.77 690.78 202.1 690.97 207.5C691.33 207.42 691.71 207.38 692.1 207.38C695.02 207.38 697.39 209.75 697.39 212.67C697.39 215.58 695.04 217.93 692.14 217.96H670.94C667.17 217.95 664.11 214.88 664.11 211.11V211.11Z" stroke="#25333D" stroke-miterlimit="10" stroke-linecap="round"/>
<path d="M290.12 19.9C290.12 17.53 291.76 15.54 293.97 15C293.88 14.77 293.83 14.52 293.83 14.26C293.83 13.13 294.75 12.21 295.88 12.21C296.28 12.21 296.65 12.32 296.96 12.52C298.32 11.03 300.28 10.09 302.45 10.09C306.46 10.09 309.72 13.27 309.86 17.25C310.13 17.19 310.41 17.16 310.69 17.16C312.84 17.16 314.58 18.9 314.58 21.05C314.58 23.19 312.86 24.92 310.72 24.94H295.13C292.36 24.93 290.11 22.68 290.11 19.9H290.12Z" stroke="#25333D" stroke-miterlimit="10" stroke-linecap="round"/>
<path d="M64.0499 45.97C68.4792 45.97 72.0699 42.3793 72.0699 37.95C72.0699 33.5207 68.4792 29.93 64.0499 29.93C59.6206 29.93 56.0299 33.5207 56.0299 37.95C56.0299 42.3793 59.6206 45.97 64.0499 45.97Z" stroke="#25333D" stroke-miterlimit="10" stroke-linecap="round"/>
<path d="M71.99 39.01C75.06 40.4 76.94 41.69 76.71 42.42C76.33 43.64 70.29 42.86 63.21 40.68C56.13 38.5 50.7 35.74 51.07 34.52C51.3 33.79 53.57 33.78 56.9 34.36" stroke="#25333D" stroke-miterlimit="10" stroke-linecap="round"/>
<path d="M511.61 175.72H516.14" stroke="#25333D" stroke-miterlimit="10" stroke-linecap="round"/>
<path d="M511.61 175.72H516.14" stroke="#25333D" stroke-miterlimit="10" stroke-linecap="round"/>
<path d="M513.88 177.95V173.49" stroke="#25333D" stroke-miterlimit="10" stroke-linecap="round"/>
<path d="M643.97 183.09H651.54" stroke="#25333D" stroke-miterlimit="10" stroke-linecap="round"/>
<path d="M643.97 183.09H651.54" stroke="#25333D" stroke-miterlimit="10" stroke-linecap="round"/>
<path d="M647.76 186.83V179.36" stroke="#25333D" stroke-miterlimit="10" stroke-linecap="round"/>
<path d="M131.37 12.72H141.75" stroke="#25333D" stroke-miterlimit="10" stroke-linecap="round"/>
<path d="M131.37 12.72H141.75" stroke="#25333D" stroke-miterlimit="10" stroke-linecap="round"/>
<path d="M136.56 17.84V7.59998" stroke="#25333D" stroke-miterlimit="10" stroke-linecap="round"/>
<path d="M620.03 25.33C621.814 25.33 623.26 23.9018 623.26 22.14C623.26 20.3782 621.814 18.95 620.03 18.95C618.246 18.95 616.8 20.3782 616.8 22.14C616.8 23.9018 618.246 25.33 620.03 25.33Z" stroke="#25333D" stroke-miterlimit="10" stroke-linecap="round"/>
<path d="M607.54 57.99C608.711 57.99 609.66 57.0543 609.66 55.9C609.66 54.7457 608.711 53.81 607.54 53.81C606.369 53.81 605.42 54.7457 605.42 55.9C605.42 57.0543 606.369 57.99 607.54 57.99Z" stroke="#25333D" stroke-miterlimit="10" stroke-linecap="round"/>
<path d="M605.74 212.55C606.911 212.55 607.86 211.614 607.86 210.46C607.86 209.306 606.911 208.37 605.74 208.37C604.569 208.37 603.62 209.306 603.62 210.46C603.62 211.614 604.569 212.55 605.74 212.55Z" stroke="#25333D" stroke-miterlimit="10" stroke-linecap="round"/>
<path d="M574.02 25.77C575.191 25.77 576.14 24.8343 576.14 23.68C576.14 22.5258 575.191 21.59 574.02 21.59C572.849 21.59 571.9 22.5258 571.9 23.68C571.9 24.8343 572.849 25.77 574.02 25.77Z" stroke="#25333D" stroke-miterlimit="10" stroke-linecap="round"/>
<path d="M34.9 86.81C36.6839 86.81 38.13 85.3818 38.13 83.62C38.13 81.8582 36.6839 80.43 34.9 80.43C33.1162 80.43 31.67 81.8582 31.67 83.62C31.67 85.3818 33.1162 86.81 34.9 86.81Z" stroke="#25333D" stroke-miterlimit="10" stroke-linecap="round"/>
<path d="M14.47 123.14C15.6408 123.14 16.59 122.204 16.59 121.05C16.59 119.896 15.6408 118.96 14.47 118.96C13.2991 118.96 12.35 119.896 12.35 121.05C12.35 122.204 13.2991 123.14 14.47 123.14Z" stroke="#25333D" stroke-miterlimit="10" stroke-linecap="round"/>
<path d="M2.62 55.9C3.79084 55.9 4.74 54.9642 4.74 53.81C4.74 52.6557 3.79084 51.72 2.62 51.72C1.44916 51.72 0.5 52.6557 0.5 53.81C0.5 54.9642 1.44916 55.9 2.62 55.9Z" stroke="#25333D" stroke-miterlimit="10" stroke-linecap="round"/>
<path d="M686.08 101.35H690.15" stroke="#25333D" stroke-miterlimit="10" stroke-linecap="round"/>
<path d="M686.08 101.35H690.15" stroke="#25333D" stroke-miterlimit="10" stroke-linecap="round"/>
<path d="M688.12 103.35V99.34" stroke="#25333D" stroke-miterlimit="10" stroke-linecap="round"/>
<path d="M38.13 180.88H47.48" stroke="#25333D" stroke-miterlimit="10" stroke-linecap="round"/>
<path d="M38.13 180.88H47.48" stroke="#25333D" stroke-miterlimit="10" stroke-linecap="round"/>
<path d="M42.8101 185.48V176.27" stroke="#25333D" stroke-miterlimit="10" stroke-linecap="round"/>
<path d="M330.49 5C331.749 5 332.77 3.99264 332.77 2.75C332.77 1.50736 331.749 0.5 330.49 0.5C329.231 0.5 328.21 1.50736 328.21 2.75C328.21 3.99264 329.231 5 330.49 5Z" stroke="#25333D" stroke-miterlimit="10" stroke-linecap="round"/>
<path d="M131.54 211.01C132.799 211.01 133.82 210.003 133.82 208.76C133.82 207.517 132.799 206.51 131.54 206.51C130.281 206.51 129.26 207.517 129.26 208.76C129.26 210.003 130.281 211.01 131.54 211.01Z" stroke="#25333D" stroke-miterlimit="10" stroke-linecap="round"/>
<path d="M136.5 227.64C137.323 227.64 137.99 226.982 137.99 226.17C137.99 225.358 137.323 224.7 136.5 224.7C135.677 224.7 135.01 225.358 135.01 226.17C135.01 226.982 135.677 227.64 136.5 227.64Z" stroke="#25333D" stroke-miterlimit="10" stroke-linecap="round"/>
<path d="M107.56 218.26C108.383 218.26 109.05 217.602 109.05 216.79C109.05 215.978 108.383 215.32 107.56 215.32C106.737 215.32 106.07 215.978 106.07 216.79C106.07 217.602 106.737 218.26 107.56 218.26Z" stroke="#25333D" stroke-miterlimit="10" stroke-linecap="round"/>
<path d="M441.03 106.91H373.18C368.524 106.91 364.75 110.684 364.75 115.34V213.97C364.75 218.626 368.524 222.4 373.18 222.4H441.03C445.686 222.4 449.46 218.626 449.46 213.97V115.34C449.46 110.684 445.686 106.91 441.03 106.91Z" fill="#D1F1FF"/>
<path d="M282.82 68.94L281.37 77.2C281.26 77.83 280.79 78.34 280.16 78.49C276.28 79.43 272.57 80.97 269.16 83.05C268.61 83.38 267.92 83.36 267.39 82.99L260.51 78.18C259.86 77.73 258.98 77.81 258.42 78.36L251.53 85.25C250.97 85.81 250.89 86.69 251.35 87.34L256.12 94.2C256.49 94.73 256.51 95.42 256.18 95.97C254.1 99.38 252.56 103.09 251.62 106.97C251.46 107.59 250.95 108.07 250.32 108.18L242.06 109.63C241.28 109.77 240.71 110.45 240.71 111.24V120.98C240.71 121.77 241.28 122.45 242.06 122.59L250.32 124.04C250.95 124.15 251.46 124.62 251.62 125.24C252.56 129.12 254.1 132.84 256.18 136.25C256.51 136.8 256.49 137.49 256.12 138.02L251.32 144.9C250.87 145.55 250.94 146.43 251.5 146.99L258.39 153.87C258.95 154.43 259.83 154.51 260.48 154.06L267.36 149.26C267.88 148.89 268.58 148.86 269.13 149.2C272.54 151.28 276.25 152.82 280.13 153.76C280.75 153.92 281.23 154.43 281.34 155.06L282.79 163.32C282.93 164.1 283.61 164.67 284.4 164.67H294.13C294.92 164.67 295.6 164.1 295.74 163.32L297.19 155.06C297.3 154.43 297.77 153.92 298.39 153.76C302.27 152.82 305.99 151.28 309.4 149.2C309.95 148.87 310.64 148.89 311.17 149.26L318.05 154.06C318.7 154.51 319.58 154.44 320.14 153.88L327.02 147C327.58 146.44 327.66 145.56 327.2 144.91L322.4 138.03C322.03 137.51 322 136.81 322.33 136.26C324.41 132.85 325.95 129.14 326.89 125.25C327.05 124.63 327.56 124.16 328.19 124.05L336.45 122.6C337.23 122.46 337.8 121.78 337.8 120.99V111.25C337.8 110.46 337.23 109.78 336.45 109.64L328.19 108.19C327.55 108.08 327.04 107.61 326.89 106.98C325.95 103.1 324.41 99.39 322.33 95.98C322 95.43 322.03 94.73 322.4 94.21L327.2 87.33C327.65 86.68 327.58 85.8 327.02 85.24L320.14 78.35C319.58 77.79 318.7 77.72 318.05 78.17L311.2 83C310.67 83.37 309.98 83.39 309.43 83.06C306.02 80.98 302.31 79.44 298.42 78.5C297.8 78.34 297.33 77.84 297.22 77.21L295.77 68.95C295.63 68.17 294.95 67.6 294.16 67.6H284.43C283.64 67.6 282.96 68.17 282.82 68.95V68.94ZM302.91 116.16C302.91 123.68 296.82 129.77 289.3 129.77C281.78 129.77 275.69 123.68 275.69 116.16C275.69 108.64 281.78 102.55 289.3 102.55C296.81 102.55 302.91 108.64 302.91 116.16Z" fill="#D1F1FF"/>
<path d="M285.23 65.32L283.78 73.58C283.67 74.21 283.2 74.72 282.57 74.87C278.69 75.81 274.98 77.35 271.57 79.43C271.02 79.76 270.33 79.74 269.8 79.37L262.92 74.56C262.27 74.11 261.39 74.19 260.83 74.74L253.94 81.63C253.38 82.19 253.3 83.07 253.76 83.72L258.53 90.58C258.9 91.11 258.92 91.8 258.59 92.35C256.51 95.76 254.97 99.47 254.03 103.35C253.87 103.97 253.36 104.45 252.73 104.56L244.47 106.01C243.69 106.15 243.12 106.83 243.12 107.62V117.36C243.12 118.15 243.69 118.83 244.47 118.97L252.73 120.42C253.36 120.53 253.87 121 254.03 121.62C254.97 125.5 256.51 129.22 258.59 132.63C258.92 133.18 258.9 133.87 258.53 134.4L253.73 141.28C253.28 141.93 253.35 142.81 253.91 143.37L260.8 150.25C261.36 150.81 262.24 150.89 262.89 150.44L269.77 145.64C270.29 145.27 270.99 145.24 271.54 145.58C274.95 147.66 278.66 149.2 282.54 150.14C283.16 150.3 283.64 150.81 283.75 151.44L285.2 159.7C285.34 160.48 286.02 161.05 286.81 161.05H296.54C297.33 161.05 298.01 160.48 298.15 159.7L299.6 151.44C299.71 150.81 300.18 150.3 300.8 150.14C304.68 149.2 308.4 147.66 311.81 145.58C312.36 145.25 313.05 145.27 313.58 145.64L320.46 150.44C321.11 150.89 321.99 150.82 322.55 150.26L329.43 143.38C329.99 142.82 330.07 141.94 329.61 141.29L324.81 134.41C324.44 133.89 324.41 133.19 324.74 132.64C326.82 129.23 328.36 125.52 329.3 121.63C329.46 121.01 329.97 120.54 330.6 120.43L338.86 118.98C339.64 118.84 340.21 118.16 340.21 117.37V107.63C340.21 106.84 339.64 106.16 338.86 106.02L330.6 104.57C329.96 104.46 329.45 103.99 329.3 103.36C328.36 99.48 326.82 95.77 324.74 92.36C324.41 91.81 324.44 91.11 324.81 90.59L329.61 83.71C330.06 83.06 329.99 82.18 329.43 81.62L322.55 74.73C321.99 74.17 321.11 74.1 320.46 74.55L313.61 79.38C313.08 79.75 312.39 79.77 311.84 79.44C308.43 77.36 304.72 75.82 300.83 74.88C300.21 74.72 299.74 74.22 299.63 73.59L298.18 65.33C298.04 64.55 297.36 63.98 296.57 63.98H286.84C286.05 63.98 285.37 64.55 285.23 65.33V65.32ZM305.32 112.54C305.32 120.06 299.23 126.15 291.71 126.15C284.19 126.15 278.1 120.06 278.1 112.54C278.1 105.02 284.19 98.93 291.71 98.93C299.22 98.93 305.32 105.02 305.32 112.54Z" stroke="#25333D" stroke-width="2" stroke-linecap="round" stroke-linejoin="round"/>
<path d="M80.24 136.66V172.91C80.24 174.46 78.98 175.72 77.43 175.72C75.88 175.72 74.62 174.46 74.62 172.91V136.86" fill="#1995D0"/>
<path d="M56.83 129.46C51.38 127.49 47.49 122.27 47.49 116.14C47.49 109.96 51.44 104.71 56.96 102.78" stroke="#25333D" stroke-width="2" stroke-linecap="round" stroke-linejoin="round"/>
<path d="M184.04 101.11C189.27 104.5 192.73 110.38 192.73 117.08C192.73 123.78 189.27 129.67 184.03 133.05" stroke="#25333D" stroke-width="2" stroke-linecap="round" stroke-linejoin="round"/>
<path d="M183.97 171.29L80.35 136.62V97.52L183.97 62.85V171.29Z" fill="#F49900"/>
<path d="M183.97 171.29L80.35 136.62V97.52L183.97 62.85V171.29Z" fill="#FF8142"/>
<path d="M62.7401 97.5H80.24V136.65H62.7401C60.4301 136.65 58.55 134.77 58.55 132.46V101.68C58.55 99.37 60.4301 97.49 62.7401 97.49V97.5Z" fill="#1995D0"/>
<path d="M78.64 135.65V171.9C78.64 173.45 77.38 174.71 75.83 174.71C74.28 174.71 73.02 173.45 73.02 171.9V135.85" stroke="#25333D" stroke-width="2" stroke-linecap="round" stroke-linejoin="round"/>
<path d="M61.1399 95.89H78.6399V135.04H61.1399C58.8299 135.04 56.95 133.16 56.95 130.85V100.07C56.95 97.76 58.8299 95.88 61.1399 95.88V95.89Z" stroke="#25333D" stroke-width="2" stroke-linecap="round" stroke-linejoin="round"/>
<path d="M197.87 51.82L226.79 28.92" stroke="#25333D" stroke-width="2" stroke-linecap="round" stroke-linejoin="round"/>
<path d="M207.51 80.74L244.26 72.9" stroke="#25333D" stroke-width="2" stroke-linecap="round" stroke-linejoin="round"/>
<path d="M197.87 171.71L226.79 194.6" stroke="#25333D" stroke-width="2" stroke-linecap="round" stroke-linejoin="round"/>
<path d="M207.51 142.79L244.26 150.62" stroke="#25333D" stroke-width="2" stroke-linecap="round" stroke-linejoin="round"/>
<path d="M211.73 111.76H232.04" stroke="#25333D" stroke-width="2" stroke-linecap="round" stroke-linejoin="round"/>
<path d="M440.41 235.89H369.4C364.53 235.89 360.58 232.12 360.58 227.46V128.83" stroke="#25333D" stroke-width="2" stroke-linecap="round" stroke-linejoin="round"/>
<path d="M445.81 111.26H377.96C373.304 111.26 369.53 115.034 369.53 119.69V218.32C369.53 222.976 373.304 226.75 377.96 226.75H445.81C450.466 226.75 454.24 222.976 454.24 218.32V119.69C454.24 115.034 450.466 111.26 445.81 111.26Z" stroke="#25333D" stroke-width="2" stroke-linecap="round" stroke-linejoin="round"/>
<path d="M383.89 131.09C385.541 131.09 386.88 129.751 386.88 128.1C386.88 126.449 385.541 125.11 383.89 125.11C382.239 125.11 380.9 126.449 380.9 128.1C380.9 129.751 382.239 131.09 383.89 131.09Z" stroke="#25333D" stroke-width="2" stroke-linecap="round" stroke-linejoin="round"/>
<path d="M393.55 128.1H440.41" stroke="#25333D" stroke-width="2" stroke-linecap="round" stroke-linejoin="round"/>
<path d="M383.89 142.13C385.541 142.13 386.88 140.791 386.88 139.14C386.88 137.489 385.541 136.15 383.89 136.15C382.239 136.15 380.9 137.489 380.9 139.14C380.9 140.791 382.239 142.13 383.89 142.13Z" stroke="#25333D" stroke-width="2" stroke-linecap="round" stroke-linejoin="round"/>
<path d="M393.55 139.14H440.41" stroke="#25333D" stroke-width="2" stroke-linecap="round" stroke-linejoin="round"/>
<path d="M383.89 153.16C385.541 153.16 386.88 151.821 386.88 150.17C386.88 148.519 385.541 147.18 383.89 147.18C382.239 147.18 380.9 148.519 380.9 150.17C380.9 151.821 382.239 153.16 383.89 153.16Z" stroke="#25333D" stroke-width="2" stroke-linecap="round" stroke-linejoin="round"/>
<path d="M393.55 150.17H440.41" stroke="#25333D" stroke-width="2" stroke-linecap="round" stroke-linejoin="round"/>
<path d="M459.79 187.5C464.07 183.13 467.94 178.35 471.33 173.23L480.72 176.59L484.69 169.71L477.09 163.26C482.74 151.97 486.23 139.42 487.02 126.13L491.4 125.33M469.18 64.42C462.37 54.95 453.88 46.78 444.14 40.34L447.5 30.95L440.62 26.98L434.17 34.58C422.88 28.93 410.33 25.44 397.04 24.65L395.25 14.83H387.31L385.52 24.65C372.23 25.44 359.68 28.93 348.39 34.58L341.94 26.98L335.06 30.95L338.42 40.34C327.64 47.48 318.38 56.73 311.24 67.52L301.85 64.16L301.31 65.1M302.54 156.82C303.44 159.01 304.42 161.16 305.48 163.27L297.88 169.72L301.85 176.6L311.24 173.24C318.38 184.02 327.63 193.28 338.42 200.42L335.06 209.81L341.94 213.78L348.39 206.18C352.29 208.13 356.34 209.83 360.51 211.24M360.56 200.2C339.16 191.96 321.91 175.36 312.81 154.4M322.63 69.41C338.21 48.46 363.16 34.88 391.28 34.88C424.49 34.88 453.28 53.81 467.44 81.47M476.78 121.06C476.62 141.55 469.26 160.32 457.09 174.97" stroke="#25333D" stroke-width="2" stroke-linecap="round" stroke-linejoin="round"/>
<path d="M643.77 89.32H619.96V113.13H643.77V89.32Z" stroke="#25333D" stroke-linecap="round" stroke-linejoin="round"/>
<path d="M643.77 89.32H619.96V113.13H643.77V89.32Z" stroke="#25333D" stroke-linecap="round" stroke-linejoin="round"/>
<path d="M643.77 89.32H619.96V113.13H643.77V89.32Z" stroke="#25333D" stroke-linecap="round" stroke-linejoin="round"/>
<path d="M639.59 109.16H624.14L623.94 108.9C622.63 107.16 621.94 105.1 621.94 102.95C621.94 97.48 626.39 93.03 631.86 93.03C637.33 93.03 641.78 97.48 641.78 102.95C641.78 105.11 641.09 107.17 639.78 108.9L639.58 109.16H639.59ZM624.81 107.84H638.93C639.94 106.39 640.47 104.71 640.47 102.94C640.47 98.2 636.61 94.34 631.87 94.34C627.13 94.34 623.27 98.2 623.27 102.94C623.27 104.7 623.8 106.39 624.81 107.84Z" fill="#1995D0"/>
<path d="M631.86 105.19C632.954 105.19 633.84 104.304 633.84 103.21C633.84 102.116 632.954 101.23 631.86 101.23C630.766 101.23 629.88 102.116 629.88 103.21C629.88 104.304 630.766 105.19 631.86 105.19Z" fill="#1995D0"/>
<path d="M631.86 103.87C631.69 103.87 631.52 103.81 631.39 103.68C631.13 103.42 631.13 103 631.39 102.74L635.69 98.44C635.95 98.18 636.37 98.18 636.63 98.44C636.89 98.7 636.89 99.12 636.63 99.38L632.33 103.68C632.2 103.81 632.03 103.87 631.86 103.87Z" fill="#1995D0"/>
<path d="M643.77 89.32H619.96V113.13H643.77V89.32Z" stroke="#25333D" stroke-linecap="round" stroke-linejoin="round"/>
<path d="M621.32 87.95H618.59V90.68H621.32V87.95Z" fill="white" stroke="#25333D" stroke-linecap="round" stroke-linejoin="round"/>
<path d="M645.13 87.95H642.4V90.68H645.13V87.95Z" fill="white" stroke="#25333D" stroke-linecap="round" stroke-linejoin="round"/>
<path d="M621.32 111.76H618.59V114.49H621.32V111.76Z" fill="white" stroke="#25333D" stroke-linecap="round" stroke-linejoin="round"/>
<path d="M645.13 111.76H642.4V114.49H645.13V111.76Z" fill="white" stroke="#25333D" stroke-linecap="round" stroke-linejoin="round"/>
<path d="M560.43 168.81C559.6 168.81 558.92 169.48 558.92 170.32C558.92 174.48 555.54 177.86 551.38 177.86C547.22 177.86 543.84 174.48 543.84 170.32C543.84 166.16 547.22 162.78 551.38 162.78H555.94L554.24 164.48C553.65 165.07 553.65 166.02 554.24 166.61C554.83 167.2 555.78 167.2 556.37 166.61L560.63 162.35C560.92 162.06 561.07 161.67 561.07 161.28C561.07 160.89 560.92 160.51 560.63 160.21L556.37 155.95C555.78 155.36 554.83 155.36 554.24 155.95C553.65 156.54 553.65 157.49 554.24 158.08L555.92 159.76H551.37C545.55 159.76 540.81 164.5 540.81 170.32C540.81 176.14 545.55 180.88 551.37 180.88C557.19 180.88 561.93 176.14 561.93 170.32C561.93 169.49 561.26 168.81 560.42 168.81H560.43Z" fill="#1995D0"/>
<path d="M557.414 142.226L549.198 150.442C548.608 151.032 548.608 151.988 549.198 152.578L549.806 153.186C550.395 153.776 551.351 153.776 551.941 153.186L560.158 144.969C560.747 144.38 560.747 143.424 560.158 142.834L559.55 142.226C558.96 141.636 558.004 141.636 557.414 142.226Z" fill="#1995D0"/>
<path d="M573.02 154.94L573.97 153.99C576.92 151.05 576.94 146.28 574 143.33L566.02 135.4C563.08 132.46 558.3 132.46 555.36 135.4L542.47 148.29C539.53 151.23 539.53 156.01 542.47 158.95L543.11 159.59C543.94 158.95 544.83 158.4 545.8 157.96L544.6 156.75C542.84 154.98 542.84 152.12 544.6 150.36L557.51 137.45C559.28 135.69 562.14 135.69 563.9 137.45L571.83 145.38C573.59 147.15 573.59 150.01 571.83 151.77L568.81 154.79L586.06 172.25V177.86H581.32L578.65 175.21V170.99H573.1V166.47H566.15L563.38 163.7C563.2 163.98 563 164.25 562.76 164.49L561.35 165.9C563.12 166.27 564.5 167.68 564.85 169.45L564.94 169.54H570.13V174.06H575.69V176.52L580.02 180.88H589.07V171L573.01 154.94H573.02Z" fill="#1995D0"/>
<path d="M592.1 129.6H537.81V183.89H592.1V129.6Z" stroke="#25333D" stroke-linecap="round" stroke-linejoin="round"/>
<path d="M539.54 128H536.07V131.47H539.54V128Z" fill="white" stroke="#25333D" stroke-linecap="round" stroke-linejoin="round"/>
<path d="M593.83 128H590.36V131.47H593.83V128Z" fill="white" stroke="#25333D" stroke-linecap="round" stroke-linejoin="round"/>
<path d="M593.83 182.16H590.36V185.63H593.83V182.16Z" fill="white" stroke="#25333D" stroke-linecap="round" stroke-linejoin="round"/>
<path d="M539.54 182.16H536.07V185.63H539.54V182.16Z" fill="white" stroke="#25333D" stroke-linecap="round" stroke-linejoin="round"/>
<path d="M540.35 36.14H522.42V115.69H540.35V36.14Z" fill="#1995D0"/>
<path d="M513.88 80.59H495.95V115.69H513.88V80.59Z" fill="#1995D0"/>
<path d="M487.41 67.89H469.48V115.69H487.41V67.89Z" fill="#1995D0"/>
<path d="M460.94 93.9401H443.01V115.69H460.94V93.9401Z" fill="#1995D0"/>
<path d="M542.96 37.95H525.03V117.5H542.96V37.95Z" stroke="#25333D" stroke-width="2" stroke-linecap="round" stroke-linejoin="round"/>
<path d="M516.49 82.4H498.56V117.5H516.49V82.4Z" stroke="#25333D" stroke-width="2" stroke-linecap="round" stroke-linejoin="round"/>
<path d="M490.02 69.7H472.09V117.5H490.02V69.7Z" stroke="#25333D" stroke-width="2" stroke-linecap="round" stroke-linejoin="round"/>
<path d="M463.55 95.75H445.62V117.5H463.55V95.75Z" stroke="#25333D" stroke-width="2" stroke-linecap="round" stroke-linejoin="round"/>
</g>
<defs>
<clipPath id="clip0_324_4235">
<rect width="697.89" height="236.89" fill="white"/>
</clipPath>
</defs>
</svg>
