<svg width="72" height="68" viewBox="0 0 72 68" fill="none" xmlns="http://www.w3.org/2000/svg">
<path fill-rule="evenodd" clip-rule="evenodd" d="M36 68L36 4.37114e-08L37 0L37 68L36 68Z" fill="#CBD4D8"/>
<rect x="18" y="15.5" width="38" height="38" rx="19" fill="#F1F6F8"/>
<path d="M35.7477 30.069H37.5417L33.8107 39H32.0037L28.2727 30.069H30.0667L32.9137 36.842L35.7477 30.069Z" fill="#4F6169"/>
<path d="M42.1041 39.143C40.5831 39.143 39.2701 38.623 38.2821 37.7L39.2311 36.543C40.0501 37.284 40.9991 37.752 42.1691 37.752C43.2611 37.752 43.8331 37.206 43.8331 36.569C43.8331 35.828 43.1961 35.581 41.7661 35.243C39.9201 34.814 38.6461 34.281 38.6461 32.604C38.6461 31.044 39.9721 29.913 41.8441 29.913C43.2611 29.913 44.3401 30.394 45.2241 31.161L44.3401 32.344C43.5731 31.681 42.6761 31.304 41.7921 31.304C40.8821 31.304 40.2841 31.837 40.2841 32.461C40.2841 33.189 40.9341 33.449 42.3511 33.774C44.2101 34.19 45.4581 34.788 45.4581 36.413C45.4581 38.012 44.2491 39.143 42.1041 39.143Z" fill="#4F6169"/>
<rect x="18" y="15.5" width="38" height="38" rx="19" stroke="#CBD4D8" stroke-width="2"/>
</svg>
