<svg xmlns="http://www.w3.org/2000/svg" width="292" height="260" fill="none"><path fill="#22343C" d="M.5 4A3.5 3.5 0 0 1 4 .5h284a3.5 3.5 0 0 1 3.5 3.5v252a3.5 3.5 0 0 1-3.5 3.5H4A3.5 3.5 0 0 1 .5 256z"/><path stroke="#6A7A81" d="M.5 4A3.5 3.5 0 0 1 4 .5h284a3.5 3.5 0 0 1 3.5 3.5v252a3.5 3.5 0 0 1-3.5 3.5H4A3.5 3.5 0 0 1 .5 256z"/><path fill="#2EC0FF" d="M37.5 192.72c-.3 0-.59-.13-.79-.39a1 1 0 0 1 .17-1.4l61.53-47.89c.26-.2.61-.26.93-.16l76.1 25.08 68.94-55.67a1.002 1.002 0 1 1 1.26 1.56l-69.37 56.01a1 1 0 0 1-.94.17l-76.12-25.08-61.11 47.56c-.18.14-.4.21-.61.21z"/><path fill="#AC50D3" d="M37.21 121.33a.99.99 0 0 1-.99-.9.99.99 0 0 1 .9-1.09l61.58-8.09 75.08-46.71a1 1 0 0 1 1.07-.3l70.28 26.99c.53.17.81.73.64 1.26-.17.52-.73.82-1.26.64l-69.65-26.79-74.91 46.51c-.17.2-.4.32-.66.34l-61.97 8.13h-.1z"/><path fill="#fff" d="M99.63 149.83a5.95 5.95 0 1 0 0-11.9 5.95 5.95 0 0 0 0 11.9"/><path fill="#2EC0FF" d="M99.63 150.82c-3.83 0-6.95-3.12-6.95-6.95s3.12-6.95 6.95-6.95 6.95 3.12 6.95 6.95-3.12 6.95-6.95 6.95"/><path fill="#fff" d="M174.93 175.02a5.95 5.95 0 1 0 0-11.9 5.95 5.95 0 0 0 0 11.9"/><path fill="#2EC0FF" d="M174.93 176.02c-3.83 0-6.95-3.12-6.95-6.95s3.12-6.95 6.95-6.95 6.95 3.12 6.95 6.95-3.12 6.95-6.95 6.95"/><path fill="#fff" d="m100.02 103.26-8 13.86h16z"/><path fill="#AC50D3" d="M108.02 118.12h-16c-.36 0-.69-.19-.87-.5a.99.99 0 0 1 0-1l8-13.86c.36-.62 1.38-.62 1.73 0l8 13.86c.18.31.18.69 0 1s-.51.5-.87.5z"/><path fill="#fff" d="m175.16 57.99-8 13.85h16z"/><path fill="#AC50D3" d="M183.16 72.84h-16c-.36 0-.69-.19-.87-.5a.99.99 0 0 1 0-1l8-13.86c.36-.62 1.38-.62 1.73 0l8 13.86c.18.31.18.69 0 1s-.51.5-.87.5z"/><path fill="#fff" d="M250.53 219.51H37.21c-.55 0-1-.45-1-1V38.27c0-.55.45-1 1-1s1 .45 1 1v179.24h212.32c.55 0 1 .45 1 1s-.45 1-1 1"/></svg>
