<svg xmlns="http://www.w3.org/2000/svg" width="450" height="260" fill="none"><path fill="#22343C" d="M.5 4A3.5 3.5 0 0 1 4 .5h442a3.5 3.5 0 0 1 3.5 3.5v252a3.5 3.5 0 0 1-3.5 3.5H4A3.5 3.5 0 0 1 .5 256z"/><path stroke="#6A7A81" d="M.5 4A3.5 3.5 0 0 1 4 .5h442a3.5 3.5 0 0 1 3.5 3.5v252a3.5 3.5 0 0 1-3.5 3.5H4A3.5 3.5 0 0 1 .5 256z"/><path fill="#67777E" d="M78.44 179.72H53.29v30.76h25.15z"/><path fill="#22343C" d="M78.43 210.97H53.28c-.28 0-.5-.22-.5-.5v-30.75c0-.28.22-.5.5-.5h25.15c.28 0 .5.22.5.5v30.75c0 .28-.22.5-.5.5m-24.65-1h24.15v-29.75H53.78z"/><path fill="#4F6169" d="M78.44 129.98H53.29v49.5h25.15z"/><path fill="#22343C" d="M78.93 179.98H52.78v-50.5h26.15zm-25.15-1h24.15v-48.5H53.78z"/><path fill="#67777E" d="M122.51 158.01H97.36v52.46h25.15z"/><path fill="#22343C" d="M122.51 210.97H97.36c-.28 0-.5-.22-.5-.5v-52.46c0-.28.22-.5.5-.5h25.15c.28 0 .5.22.5.5v52.46c0 .28-.22.5-.5.5m-24.65-1h24.15v-51.46H97.86z"/><path fill="#4F6169" d="M122.51 109.17H97.36v48.59h25.15z"/><path fill="#22343C" d="M123.01 158.27H96.86v-49.59h26.15zm-25.15-1h24.15v-47.59H97.86z"/><path fill="#67777E" d="M166.59 178.36h-25.15v32.11h25.15z"/><path fill="#22343C" d="M166.59 210.97h-25.15c-.28 0-.5-.22-.5-.5v-32.11c0-.28.22-.5.5-.5h25.15c.28 0 .5.22.5.5v32.11c0 .28-.22.5-.5.5m-24.65-1h24.15v-31.11h-24.15z"/><path fill="#4F6169" d="M166.59 150.33h-25.15v27.79h25.15z"/><path fill="#22343C" d="M166.59 178.62h-25.15c-.28 0-.5-.22-.5-.5v-27.79c0-.28.22-.5.5-.5h25.15c.28 0 .5.22.5.5v27.79c0 .28-.22.5-.5.5m-24.65-1h24.15v-26.79h-24.15z"/><path fill="#67777E" d="M210.67 173.84h-25.15v36.63h25.15z"/><path fill="#fff" d="M210.67 210.97h-25.15c-.28 0-.5-.22-.5-.5v-36.63c0-.28.22-.5.5-.5h25.15c.28 0 .5.22.5.5v36.63c0 .28-.22.5-.5.5m-24.65-1h24.15v-35.63h-24.15z"/><path fill="#939CA5" d="M210.67 80.23h-25.15v93.36h25.15z"/><path fill="#fff" d="M210.67 174.1h-25.15c-.28 0-.5-.22-.5-.5V80.24c0-.28.22-.5.5-.5h25.15c.28 0 .5.22.5.5v93.36c0 .28-.22.5-.5.5m-24.65-1h24.15V80.74h-24.15z"/><path fill="#67777E" d="M254.75 158.01H229.6v52.46h25.15z"/><path fill="#fff" d="M254.75 210.97H229.6c-.28 0-.5-.22-.5-.5v-52.46c0-.28.22-.5.5-.5h25.15c.28 0 .5.22.5.5v52.46c0 .28-.22.5-.5.5m-24.65-1h24.15v-51.46H230.1z"/><path fill="#939CA5" d="M254.75 129.98H229.6v27.79h25.15z"/><path fill="#fff" d="M254.75 158.27H229.6c-.28 0-.5-.22-.5-.5v-27.79c0-.28.22-.5.5-.5h25.15c.28 0 .5.22.5.5v27.79c0 .28-.22.5-.5.5m-24.65-1h24.15v-26.79H230.1zm36.34 54.1H37.9c-.55 0-1-.45-1-1V77.71c0-.55.45-1 1-1s1 .45 1 1v131.66h227.54c.55 0 1 .45 1 1s-.45 1-1 1"/><path fill="#2D4048" d="M411.38 27.85H187.47a3.95 3.95 0 0 0-3.95 3.95v196.4a3.95 3.95 0 0 0 3.95 3.95h223.91a3.95 3.95 0 0 0 3.95-3.95V31.8a3.95 3.95 0 0 0-3.95-3.95"/><path fill="#F1F6F8" d="M411.38 232.65H187.47c-2.45 0-4.45-2-4.45-4.45V31.8c0-2.45 2-4.45 4.45-4.45h223.91c2.45 0 4.45 2 4.45 4.45v196.4c0 2.45-2 4.45-4.45 4.45M187.47 28.35c-1.9 0-3.45 1.55-3.45 3.45v196.4c0 1.9 1.55 3.45 3.45 3.45h223.91c1.9 0 3.45-1.55 3.45-3.45V31.8c0-1.9-1.55-3.45-3.45-3.45z"/><path fill="#fff" d="M209.82 57.39a7.3 7.3 0 0 1-2.61-2.6 6.74 6.74 0 0 1-.97-3.52c0-1.26.33-2.43.97-3.51s1.52-1.94 2.61-2.59c1.09-.64 2.25-.97 3.5-.97a7.06 7.06 0 0 1 5.06 2.15l-1.41 1.35a5.2 5.2 0 0 0-1.66-1.21 4.69 4.69 0 0 0-4.48.28c-.78.48-1.39 1.11-1.85 1.91a5.1 5.1 0 0 0-.69 2.59c0 .93.23 1.79.69 2.6.46.8 1.07 1.44 1.85 1.92a4.68 4.68 0 0 0 4.48.28c.63-.29 1.18-.7 1.66-1.21l1.41 1.35c-.66.68-1.43 1.2-2.31 1.58s-1.79.57-2.75.57a6.8 6.8 0 0 1-3.5-.96zm12.74.24a5.4 5.4 0 0 1-1.98-1.97c-.49-.83-.74-1.73-.74-2.7s.25-1.86.74-2.69c.49-.82 1.15-1.48 1.98-1.96a5.3 5.3 0 0 1 2.7-.73c.97 0 1.87.24 2.7.73a5.55 5.55 0 0 1 1.98 1.96c.49.82.74 1.72.74 2.69s-.25 1.87-.74 2.7-1.15 1.49-1.98 1.97-1.73.73-2.7.73-1.87-.24-2.7-.73m4.42-1.48c.52-.33.94-.78 1.25-1.34s.47-1.18.47-1.84-.16-1.28-.47-1.84-.73-1.01-1.25-1.33-1.1-.49-1.72-.49-1.2.16-1.72.49-.94.77-1.25 1.33-.47 1.18-.47 1.84.16 1.28.47 1.84.73 1.01 1.25 1.34 1.1.5 1.72.5 1.2-.17 1.72-.5m13.32-8.06c.58.33 1.04.8 1.36 1.4.33.6.49 1.3.49 2.08v6.55h-1.91v-6.21c0-.77-.22-1.4-.66-1.88s-1.01-.73-1.71-.73c-.52 0-1 .11-1.43.33s-.78.51-1.03.89c-.25.37-.38.78-.38 1.21v6.39h-1.97V47.83h1.97v1.51c.3-.52.75-.94 1.34-1.26a4 4 0 0 1 1.94-.49c.74 0 1.41.17 1.99.5m9.99 9.53c-.28.23-.6.4-.96.54-.37.13-.73.2-1.1.2-.8 0-1.45-.26-1.95-.79-.5-.52-.76-1.2-.76-2.02V49.5h-1.53v-1.67h1.53V45h1.93v2.83h2.43v1.67h-2.43v5.91c0 .36.11.65.32.89s.46.35.76.35c.21 0 .41-.04.6-.11s.33-.16.44-.27l.74 1.35zm5.5-9.42c.67-.4 1.45-.61 2.34-.61v1.71c-.74 0-1.41.14-1.99.42s-1.03.67-1.35 1.18q-.48.765-.48 1.74v5.47h-1.97V47.82h1.97v2.01c.32-.69.81-1.24 1.48-1.64zm11.71.57c.76.78 1.13 1.82 1.13 3.12v6.23h-1.93v-1.39c-.37.52-.87.92-1.49 1.2-.62.29-1.27.43-1.93.43q-1.65 0-2.73-.9c-.72-.6-1.07-1.39-1.07-2.39 0-.66.18-1.26.55-1.78s.86-.93 1.49-1.21c.63-.29 1.32-.43 2.08-.43.98 0 2.02.19 3.1.56v-.32c0-.76-.21-1.39-.62-1.9s-1.09-.77-2.03-.77c-.81 0-1.77.29-2.89.86l-.74-1.45c1.38-.69 2.68-1.03 3.9-1.03 1.35 0 2.41.39 3.16 1.17zm-1.91 7.53c.58-.34.96-.81 1.11-1.4v-1.37c-.88-.27-1.81-.4-2.8-.4-.7 0-1.3.18-1.79.54s-.74.81-.74 1.35.22.98.65 1.3c.43.33.99.49 1.66.49s1.33-.17 1.91-.51m7.12 1.66c-.77-.27-1.46-.64-2.07-1.13l.9-1.35c.57.42 1.15.75 1.75.96.6.22 1.18.33 1.75.33.61 0 1.1-.13 1.46-.38s.55-.59.55-1.01-.19-.77-.58-.98-.99-.44-1.81-.67c-1.26-.36-2.17-.75-2.72-1.17s-.83-1.03-.83-1.83c0-.94.35-1.7 1.04-2.27.7-.57 1.6-.86 2.7-.86.65 0 1.31.11 1.97.32s1.27.5 1.83.88l-.82 1.39c-1.06-.66-2.06-1-2.98-1-.54 0-.99.12-1.34.35s-.53.55-.53.97c0 .27.08.48.24.64s.4.3.72.43.82.29 1.49.51c.74.23 1.35.44 1.82.65s.87.51 1.18.91.48.92.48 1.55c0 .97-.36 1.74-1.08 2.32q-1.08.87-2.82.87c-.77 0-1.54-.13-2.31-.4zm13.73-.34c-.28.23-.6.4-.97.54-.36.13-.73.2-1.1.2-.8 0-1.45-.26-1.95-.79-.5-.52-.76-1.2-.76-2.02V49.5h-1.53v-1.67h1.53V45h1.93v2.83h2.43v1.67h-2.43v5.91c0 .36.11.65.32.89.21.23.46.35.76.35.21 0 .41-.04.6-.11s.33-.16.44-.27l.74 1.35z"/><path fill="#FF5233" d="M207.07 202.57h4.79c1.49 0 2.81.29 3.98.88 1.17.58 2.08 1.39 2.74 2.43s.99 2.21.99 3.52-.33 2.49-.99 3.53-1.57 1.85-2.74 2.44-2.49.88-3.98.88h-4.79zm5.05 11.42c.96 0 1.8-.2 2.55-.59a4.4 4.4 0 0 0 1.74-1.63c.42-.69.63-1.49.63-2.38q0-1.335-.63-2.37t-1.74-1.62c-.74-.39-1.59-.59-2.55-.59h-2.59v9.17h2.59zm13.04 1.52a7.3 7.3 0 0 1-2.63-2.6 6.74 6.74 0 0 1-.97-3.52c0-1.26.33-2.43.97-3.51a7.4 7.4 0 0 1 2.63-2.59c1.1-.64 2.29-.97 3.56-.97s2.46.32 3.56.97c1.1.64 1.98 1.51 2.64 2.59q.99 1.62.99 3.51c0 1.26-.33 2.43-.99 3.52a7.5 7.5 0 0 1-2.64 2.6c-1.1.64-2.29.96-3.56.96s-2.46-.32-3.56-.96m5.87-1.96c.72-.44 1.28-1.02 1.7-1.76q.63-1.11.63-2.4c0-.86-.21-1.64-.63-2.38s-.99-1.32-1.7-1.76a4.35 4.35 0 0 0-4.61 0c-.71.44-1.28 1.02-1.7 1.76s-.64 1.53-.64 2.38.21 1.66.64 2.4c.42.74.99 1.32 1.7 1.76s1.48.66 2.3.66q1.23 0 2.31-.66m10.25-8.71v3.3h7.04v2.27h-7.04v3.56h7.8v2.27h-10.29v-13.67h10.29v2.27zm12.32 11.05c-.99-.38-1.87-.93-2.64-1.64l1.45-1.77c1.37 1.23 2.86 1.85 4.5 1.85.8 0 1.42-.17 1.87-.52s.68-.78.68-1.29c0-.37-.11-.67-.33-.91-.22-.23-.54-.43-.97-.6s-1.05-.34-1.86-.53c-1.06-.25-1.93-.53-2.61-.83s-1.21-.7-1.59-1.21-.58-1.18-.58-2 .21-1.49.63-2.12q.63-.945 1.74-1.47c.74-.35 1.58-.53 2.53-.53 1.98 0 3.7.64 5.17 1.91l-1.35 1.81c-.6-.52-1.23-.91-1.89-1.18s-1.33-.41-2.01-.41-1.23.17-1.66.52-.65.76-.65 1.25q0 .54.33.9c.22.24.55.44 1 .6s1.06.33 1.84.52c1.58.36 2.77.83 3.56 1.42s1.19 1.46 1.19 2.62c0 .82-.2 1.55-.61 2.18-.4.63-.99 1.12-1.76 1.47s-1.69.53-2.77.53q-1.725 0-3.21-.57m11.17-13.32h2.47l7.22 9.61v-9.61h2.47v13.67h-2.47l-7.22-9.61v9.61h-2.47zm15.72 4.99c.6-.61.98-1.23 1.15-1.87-.41 0-.77-.16-1.07-.47-.31-.31-.46-.68-.46-1.1s.15-.79.46-1.09.67-.46 1.09-.46c.5 0 .91.2 1.21.61.3.4.46.93.46 1.56 0 .54-.15 1.09-.45 1.64s-.79 1.18-1.46 1.9l-.94-.72zm9.13-2.72h-4.38v-2.27h11.22v2.27h-4.36v11.4h-2.49v-11.4zm14.77-2.27h5.95c.96 0 1.82.19 2.61.58.78.38 1.4.92 1.84 1.61s.67 1.47.67 2.35-.22 1.66-.67 2.35-1.06 1.23-1.84 1.61-1.65.58-2.61.58h-3.48v4.6h-2.47zm5.65 6.78c.86 0 1.56-.2 2.08-.61.52-.4.79-.95.79-1.64s-.26-1.24-.79-1.64c-.52-.4-1.22-.61-2.08-.61h-3.18v4.5zm17.09 4.3h-6.53l-1.07 2.59h-2.77l5.71-13.67h2.77l5.71 13.67h-2.75l-1.08-2.59zm-.86-2.03-2.41-5.75-2.41 5.75zm8.59 4.27c-.99-.38-1.87-.93-2.64-1.64l1.45-1.77c1.37 1.23 2.87 1.85 4.5 1.85.8 0 1.42-.17 1.87-.52.45-.34.68-.78.68-1.29 0-.37-.11-.67-.33-.91-.22-.23-.54-.43-.97-.6s-1.05-.34-1.86-.53c-1.06-.25-1.93-.53-2.61-.83s-1.21-.7-1.59-1.21-.58-1.18-.58-2 .21-1.49.63-2.12q.63-.945 1.74-1.47c.74-.35 1.58-.53 2.53-.53 1.98 0 3.7.64 5.17 1.91l-1.35 1.81c-.6-.52-1.23-.91-1.89-1.18s-1.33-.41-2.01-.41-1.23.17-1.66.52c-.43.34-.65.76-.65 1.25q0 .54.33.9t.99.6c.44.16 1.06.33 1.84.52 1.58.36 2.77.83 3.56 1.42s1.19 1.46 1.19 2.62c0 .82-.2 1.55-.61 2.18s-.99 1.12-1.76 1.47-1.69.53-2.77.53c-1.15 0-2.23-.19-3.21-.57zm12.69 0c-.99-.38-1.87-.93-2.64-1.64l1.45-1.77c1.37 1.23 2.86 1.85 4.5 1.85.8 0 1.42-.17 1.87-.52s.68-.78.68-1.29c0-.37-.11-.67-.33-.91-.22-.23-.54-.43-.97-.6s-1.05-.34-1.86-.53c-1.06-.25-1.93-.53-2.61-.83s-1.21-.7-1.59-1.21-.58-1.18-.58-2 .21-1.49.63-2.12q.63-.945 1.74-1.47c.74-.35 1.58-.53 2.53-.53 1.98 0 3.7.64 5.17 1.91l-1.35 1.81c-.6-.52-1.23-.91-1.89-1.18s-1.33-.41-2.01-.41-1.23.17-1.66.52-.65.76-.65 1.25q0 .54.33.9c.22.24.55.44 1 .6s1.06.33 1.84.52c1.58.36 2.77.83 3.56 1.42s1.19 1.46 1.19 2.62c0 .82-.2 1.55-.61 2.18-.4.63-.99 1.12-1.76 1.47s-1.69.53-2.77.53q-1.725 0-3.21-.57"/><path fill="#fff" d="M311.496 186.27v-23.892l-5.192 3.3-2.244-3.872 8.492-5.764h4.4v30.228zm-14.228-16.148c-2.024 0-3.52-1.584-3.52-3.52 0-1.804 1.496-3.388 3.52-3.388 1.848 0 3.388 1.584 3.388 3.388 0 1.936-1.54 3.52-3.388 3.52m0 16.676c-2.024 0-3.52-1.584-3.52-3.52 0-1.804 1.496-3.388 3.52-3.388 1.848 0 3.388 1.584 3.388 3.388 0 1.936-1.54 3.52-3.388 3.52m-20.712-31.284c8.58 0 12.408 6.424 12.408 15.136 0 9.328-5.5 16.148-13.376 16.148-3.74 0-6.6-1.32-9.02-3.388l2.684-4.18c1.848 1.628 3.696 2.728 6.38 2.728 4.268 0 7.304-4.092 7.656-10.032-1.848 2.156-4.752 3.432-7.832 3.432-5.544 0-10.164-3.52-10.164-9.548 0-5.984 4.752-10.296 11.264-10.296m.352 15.356c2.904 0 5.236-1.628 6.116-4.18-.66-4.004-2.552-6.512-6.204-6.512-3.696 0-5.94 2.64-5.94 5.412 0 3.3 2.728 5.28 6.028 5.28m-28.325-15.356c8.58 0 12.408 6.424 12.408 15.136 0 9.328-5.5 16.148-13.376 16.148-3.74 0-6.6-1.32-9.02-3.388l2.684-4.18c1.848 1.628 3.696 2.728 6.38 2.728 4.268 0 7.304-4.092 7.656-10.032-1.848 2.156-4.752 3.432-7.832 3.432-5.544 0-10.164-3.52-10.164-9.548 0-5.984 4.752-10.296 11.264-10.296m.352 15.356c2.904 0 5.236-1.628 6.116-4.18-.66-4.004-2.552-6.512-6.204-6.512-3.696 0-5.94 2.64-5.94 5.412 0 3.3 2.728 5.28 6.028 5.28m-19.815 15.928c-2.024 0-3.52-1.584-3.52-3.52 0-1.804 1.496-3.388 3.52-3.388 1.848 0 3.388 1.584 3.388 3.388 0 1.936-1.54 3.52-3.388 3.52m-15.292-.528v-23.892l-5.192 3.3-2.244-3.872 8.492-5.764h4.4v30.228zm-7.728-60.13h2.93c.34 0 .64.07.91.2s.47.31.62.55.22.5.22.79c0 .31-.07.58-.22.8s-.36.41-.65.57c.36.18.64.41.83.68s.29.58.29.91-.08.61-.24.87-.39.45-.68.6c-.29.14-.62.22-.98.22h-3.04v-6.18zm2.7 2.57c.31 0 .57-.08.76-.25s.3-.38.3-.63-.1-.47-.3-.64-.45-.25-.76-.25h-1.79v1.77zm.14 2.81c.34 0 .62-.09.84-.28s.33-.43.33-.73-.11-.54-.33-.73-.5-.28-.84-.28H207v2.03h1.94zm6.55-3.43c.34.35.51.83.51 1.41v2.82h-.87v-.63c-.17.23-.39.42-.67.54-.28.13-.57.19-.87.19-.5 0-.91-.13-1.23-.4a1.35 1.35 0 0 1-.49-1.08c0-.3.08-.57.25-.81s.39-.42.68-.55.6-.19.94-.19c.44 0 .91.08 1.4.25v-.14c0-.34-.09-.63-.28-.86s-.49-.35-.92-.35c-.37 0-.8.13-1.31.39l-.33-.66c.62-.31 1.21-.47 1.76-.47.61 0 1.09.18 1.43.53zm-.86 3.41c.26-.15.43-.36.5-.63v-.62c-.4-.12-.82-.18-1.27-.18q-.48 0-.81.24c-.22.16-.33.37-.33.61s.1.44.29.59.45.22.75.22.6-.08.86-.23zm3.58.59c-.38-.22-.67-.52-.9-.9s-.34-.78-.34-1.21.11-.83.34-1.21c.22-.37.53-.67.9-.89.38-.22.78-.33 1.21-.33.33 0 .64.06.93.19s.55.3.79.53l-.6.56c-.14-.16-.31-.28-.51-.37s-.4-.13-.61-.13c-.28 0-.53.07-.77.22s-.43.35-.57.61c-.14.25-.21.53-.21.82a1.7 1.7 0 0 0 .78 1.44c.24.15.5.23.77.23.22 0 .42-.05.62-.14s.37-.22.52-.38l.6.55c-.23.23-.5.42-.8.55s-.61.2-.95.2c-.44 0-.84-.11-1.22-.33zm3.89-6.06h.89v4.02l2.28-2.38h1.08l-2.01 2.11 1.92 2.55h-1.06l-1.46-1.95-.75.76v1.2h-.89zm9.34 1.64v4.16c0 .4-.1.75-.3 1.06q-.3.465-.84.72c-.36.17-.76.26-1.22.26-.38 0-.74-.06-1.08-.17-.35-.11-.63-.26-.86-.45l.35-.67c.17.16.38.29.64.38s.54.13.82.13c.5 0 .89-.11 1.17-.34s.42-.54.42-.95v-.67c-.19.27-.42.48-.7.63s-.59.22-.94.22c-.41 0-.77-.09-1.09-.28s-.57-.45-.76-.79c-.18-.34-.28-.72-.28-1.14s.09-.81.28-1.14c.18-.34.43-.6.76-.78.32-.19.69-.28 1.09-.28.34 0 .65.08.94.23s.52.36.7.62v-.74h.89zm-1.29 3.14c.26-.27.4-.61.4-1.04s-.13-.76-.4-1.03c-.26-.27-.61-.4-1.03-.4s-.75.13-1.01.4c-.27.27-.4.61-.4 1.03s.13.77.4 1.04.6.4 1.01.4.76-.13 1.03-.4m4.31-2.98c.3-.18.66-.27 1.06-.27v.77c-.34 0-.64.06-.9.19s-.47.3-.61.54c-.14.23-.22.49-.22.79v2.48h-.89v-4.65h.89v.91c.14-.31.37-.56.67-.74zm2.96 4.27c-.38-.22-.67-.52-.9-.89a2.26 2.26 0 0 1-.33-1.22c0-.44.11-.84.33-1.21s.52-.67.9-.89.78-.33 1.22-.33.85.11 1.22.33c.38.22.67.51.89.89a2.4 2.4 0 0 1 0 2.43 2.45 2.45 0 0 1-2.11 1.22c-.44 0-.84-.11-1.22-.33m2-.67c.24-.15.43-.35.57-.61.14-.25.21-.53.21-.83s-.07-.58-.21-.83-.33-.46-.57-.6c-.24-.15-.5-.22-.78-.22s-.54.07-.78.22q-.36.225-.57.6c-.14.26-.21.53-.21.83s.07.58.21.83c.14.26.33.46.57.61s.5.23.78.23.54-.07.78-.23m6.76-3.76v4.65h-.89v-.67c-.14.23-.35.42-.61.56q-.39.21-.87.21c-.34 0-.64-.08-.9-.23s-.47-.36-.62-.63a1.9 1.9 0 0 1-.22-.94v-2.96h.87v2.81c0 .35.1.63.3.85s.46.33.77.33c.23 0 .45-.05.64-.15.2-.1.35-.23.46-.4a1 1 0 0 0 .17-.55v-2.89h.89zm4.73.11c.26.15.47.36.62.63s.22.59.22.94v2.96h-.86v-2.81c0-.35-.1-.63-.3-.85a1 1 0 0 0-.77-.33c-.23 0-.45.05-.65.15s-.35.23-.47.4a1 1 0 0 0-.17.55v2.89h-.89v-4.65h.89v.68c.14-.23.34-.42.61-.57s.56-.22.88-.22c.34 0 .63.08.9.23zm6.54-1.75v6.29h-.89v-.79c-.19.28-.42.5-.7.66s-.6.24-.95.24c-.41 0-.77-.1-1.1-.31s-.58-.5-.77-.87-.28-.79-.28-1.26.09-.89.28-1.26.44-.66.77-.86.69-.31 1.1-.31c.35 0 .66.08.95.24.28.16.52.38.7.66v-2.43zm-1.59 5.41c.22-.14.39-.34.51-.59s.18-.54.18-.86-.06-.6-.18-.85a1.4 1.4 0 0 0-.51-.59c-.22-.14-.47-.21-.74-.21s-.53.07-.75.21-.39.34-.52.59-.18.54-.18.85.06.6.18.86.3.45.52.59q.33.21.75.21c.28 0 .52-.07.74-.21m6.37.65q-.57-.33-.9-.9a2.4 2.4 0 0 1-.34-1.21c0-.43.11-.83.34-1.21s.53-.67.9-.89c.38-.22.78-.33 1.21-.33.33 0 .64.06.93.19s.55.3.79.53l-.6.56c-.14-.16-.31-.28-.51-.37s-.4-.13-.61-.13c-.28 0-.53.07-.77.22s-.43.35-.57.61c-.14.25-.21.53-.21.82a1.7 1.7 0 0 0 .78 1.44c.24.15.5.23.77.23.22 0 .42-.05.62-.14s.37-.22.52-.38l.6.55c-.23.23-.5.42-.8.55s-.61.2-.95.2c-.44 0-.84-.11-1.22-.33zm4.74.01a2.45 2.45 0 0 1-1.22-2.11c0-.44.11-.84.33-1.21s.52-.67.89-.89c.38-.22.78-.33 1.22-.33s.84.11 1.22.33.67.51.9.89.33.78.33 1.21-.11.84-.33 1.22-.52.67-.9.89-.78.33-1.22.33-.84-.11-1.22-.33m2-.67c.24-.15.43-.35.57-.61.14-.25.21-.53.21-.83s-.07-.58-.21-.83-.33-.46-.57-.6c-.24-.15-.5-.22-.78-.22s-.54.07-.78.22q-.36.225-.57.6c-.14.26-.21.53-.21.83s.07.58.21.83c.14.26.33.46.57.61s.5.23.78.23.54-.07.78-.23m2.75-5.4h.89v6.29h-.89zm3.2 6.07c-.38-.22-.67-.52-.9-.89a2.26 2.26 0 0 1-.33-1.22c0-.44.11-.84.33-1.21s.52-.67.9-.89.78-.33 1.22-.33.85.11 1.22.33c.38.22.67.51.89.89a2.4 2.4 0 0 1 0 2.43 2.45 2.45 0 0 1-2.11 1.22c-.44 0-.84-.11-1.22-.33m2-.67c.24-.15.43-.35.57-.61.14-.25.21-.53.21-.83s-.07-.58-.21-.83-.33-.46-.57-.6c-.24-.15-.5-.22-.78-.22s-.54.07-.78.22q-.36.225-.57.6c-.14.26-.21.53-.21.83s.07.58.21.83c.14.26.33.46.57.61s.5.23.78.23.54-.07.78-.23m4.31-3.6c.3-.18.66-.27 1.06-.27v.77c-.34 0-.64.06-.9.19s-.47.3-.61.54c-.14.23-.22.49-.22.79v2.48h-.89v-4.65h.89v.91c.14-.31.37-.56.67-.74zm26.95-10.25-.43 1.71h1l-.17.67h-.99l-.4 1.56h-.72l.4-1.56h-1.25l-.4 1.56h-.71l.4-1.56h-.97l.17-.67h.96l.43-1.71h-.98l.17-.68h.98l.4-1.57h.71l-.4 1.57h1.25l.4-1.57h.72l-.4 1.57h.99l-.16.68zm-.72 0h-1.25l-.43 1.71h1.25zm5.71 2.52h-3.07l-.1-.73 3-4.03h1.08v3.96h.89v.8h-.89v1.42h-.91zm0-.8v-2.92L311 119.3zm3.89-3.12v1.8h3.28v.85h-3.28v2.69h-.92v-6.18h4.54v.85h-3.63zm8.15 1.67c.32.16.57.38.75.67.19.29.28.63.28 1.03s-.1.74-.29 1.06-.46.57-.8.75-.73.27-1.15.27c-.82 0-1.43-.28-1.84-.85q-.6-.855-.6-2.25c0-.62.11-1.18.34-1.68.22-.5.54-.9.94-1.18s.84-.43 1.34-.43c.68 0 1.28.24 1.8.71l-.47.7c-.21-.19-.42-.34-.63-.44s-.45-.15-.71-.15c-.31 0-.58.1-.84.31s-.45.49-.6.85-.23.77-.24 1.21q.285-.39.72-.6c.29-.14.61-.21.95-.21.38 0 .73.08 1.05.23m-.53 2.83c.2-.12.36-.28.47-.47s.17-.4.17-.61c0-.37-.13-.66-.39-.88s-.58-.33-.97-.33c-.34 0-.64.09-.89.27s-.42.42-.5.72c.08.47.23.83.47 1.09.23.26.55.39.95.39.27 0 .5-.06.71-.18zm3.62-4.26-1.07.68-.38-.66 1.63-1.11h.73v6.18h-.91v-5.1zm5.97 1.43c.32.16.57.38.75.67.19.29.28.63.28 1.03s-.1.74-.29 1.06-.46.57-.8.75-.73.27-1.15.27c-.82 0-1.43-.28-1.84-.85q-.6-.855-.6-2.25c0-.62.11-1.18.34-1.68.22-.5.54-.9.94-1.18s.84-.43 1.34-.43c.68 0 1.28.24 1.8.71l-.47.7c-.21-.19-.42-.34-.63-.44s-.45-.15-.71-.15c-.31 0-.58.1-.84.31s-.45.49-.6.85-.23.77-.24 1.21q.285-.39.72-.6c.29-.14.61-.21.95-.21.38 0 .73.08 1.05.23m-.53 2.83c.2-.12.36-.28.47-.47s.17-.4.17-.61c0-.37-.13-.66-.39-.88s-.58-.33-.97-.33c-.34 0-.64.09-.89.27s-.42.42-.5.72c.08.47.23.83.47 1.09.23.26.55.39.95.39.27 0 .5-.06.71-.18zm6.49-4.6q.6.855.6 2.25c0 .62-.11 1.18-.34 1.68s-.54.9-.94 1.18c-.4.29-.84.43-1.34.43-.68 0-1.28-.24-1.8-.71l.47-.7c.21.19.42.34.63.44s.45.15.71.15c.31 0 .58-.1.84-.31s.45-.49.6-.85.23-.77.24-1.21q-.285.39-.72.6c-.3.14-.61.21-.95.21-.38 0-.73-.08-1.05-.23-.31-.16-.57-.38-.75-.67-.19-.29-.28-.63-.28-1.03s.1-.74.29-1.06.46-.57.8-.75.73-.27 1.15-.27c.82 0 1.43.28 1.84.85m-.9 2.13c.25-.18.42-.42.5-.72-.08-.47-.23-.83-.47-1.09s-.55-.39-.95-.39c-.27 0-.5.06-.71.18s-.36.28-.47.47-.17.4-.17.61c0 .37.13.66.39.88s.58.33.97.33c.34 0 .64-.09.89-.27zm-34.89 7.93h2.93c.34 0 .64.07.91.2.26.13.47.31.62.55.15.23.23.5.23.79 0 .31-.07.58-.22.8s-.36.41-.65.57c.36.18.64.41.83.68.2.27.29.58.29.91s-.08.61-.24.87-.39.45-.67.6-.62.22-.98.22h-3.04v-6.18zm2.7 2.57c.31 0 .57-.08.76-.25q.3-.255.3-.63c0-.25-.1-.47-.3-.64s-.45-.25-.76-.25h-1.79v1.77zm.14 2.81c.34 0 .62-.09.84-.28s.33-.43.33-.73-.11-.54-.33-.73-.5-.28-.84-.28h-1.94v2.03h1.94zm6.55-3.43c.34.35.51.83.51 1.41v2.82h-.87v-.63c-.17.23-.39.42-.67.54-.28.13-.57.19-.87.19-.5 0-.91-.13-1.23-.4a1.35 1.35 0 0 1-.49-1.08c0-.3.08-.57.25-.81s.39-.42.67-.55.6-.19.94-.19c.44 0 .91.08 1.4.25v-.14c0-.34-.09-.63-.28-.86s-.49-.35-.92-.35c-.37 0-.8.13-1.3.39l-.33-.66c.62-.31 1.21-.47 1.76-.47.61 0 1.09.18 1.43.53zm-.86 3.41c.26-.15.43-.36.5-.63v-.62c-.4-.12-.82-.18-1.27-.18q-.48 0-.81.24c-.22.16-.33.37-.33.61s.1.44.29.59c.2.15.45.22.75.22s.6-.08.86-.23zm4.29-3.67c.3-.18.66-.27 1.06-.27v.77c-.34 0-.64.06-.9.19s-.47.3-.61.54c-.14.23-.22.49-.22.79v2.48h-.89v-4.65h.89v.91c.14-.31.37-.56.67-.74zm5.42 4.26c-.38-.22-.67-.52-.9-.9s-.34-.78-.34-1.21.11-.83.34-1.21c.22-.37.53-.67.9-.89.38-.22.78-.33 1.21-.33.33 0 .64.06.93.19s.55.3.79.53l-.6.56c-.14-.16-.31-.28-.51-.37s-.4-.13-.61-.13c-.28 0-.53.07-.77.22s-.43.35-.57.61c-.14.25-.21.53-.21.82a1.7 1.7 0 0 0 .78 1.44c.24.15.5.23.77.23.22 0 .42-.05.62-.14s.37-.22.52-.38l.6.55c-.23.23-.5.42-.8.55s-.61.2-.95.2c-.44 0-.84-.11-1.22-.33zm4.75.01c-.38-.22-.67-.52-.9-.89a2.26 2.26 0 0 1-.33-1.22c0-.44.11-.84.33-1.21s.52-.67.9-.89.78-.33 1.22-.33.84.11 1.22.33.67.51.9.89a2.4 2.4 0 0 1 0 2.43c-.22.38-.52.67-.9.89s-.78.33-1.22.33-.84-.11-1.22-.33m2-.67c.24-.15.43-.35.57-.61.14-.25.21-.53.21-.83s-.07-.58-.21-.83-.33-.46-.57-.6-.5-.22-.78-.22-.54.07-.78.22q-.36.225-.57.6c-.14.26-.21.53-.21.83s.07.58.21.83c.14.26.33.46.57.61s.5.23.78.23.54-.07.78-.23m2.74-5.4h.89v6.29h-.89zm3.2 6.07c-.38-.22-.67-.52-.9-.89-.22-.38-.33-.78-.33-1.22s.11-.84.33-1.21.52-.67.9-.89.78-.33 1.22-.33.84.11 1.22.33.67.51.9.89.33.78.33 1.21-.11.84-.33 1.22-.52.67-.9.89-.78.33-1.22.33-.84-.11-1.22-.33m2-.67c.24-.15.43-.35.57-.61.14-.25.21-.53.21-.83s-.07-.58-.21-.83-.33-.46-.57-.6c-.24-.15-.5-.22-.78-.22s-.54.07-.78.22q-.36.225-.57.6c-.14.26-.21.53-.21.83s.07.58.21.83c.14.26.33.46.57.61s.5.23.78.23.54-.07.78-.23m4.31-3.6c.3-.18.66-.27 1.06-.27v.77c-.34 0-.64.06-.9.19s-.47.3-.61.54c-.14.23-.22.49-.22.79v2.48h-.89v-4.65h.89v.91c.14-.31.37-.56.67-.74z"/><path fill="#22343C" d="M291.07 72.81h-81.89a4 4 0 0 0-4 4v26.64a4 4 0 0 0 4 4h81.89a4 4 0 0 0 4-4V76.81a4 4 0 0 0-4-4"/><path fill="#fff" d="M291.08 107.95h-81.89c-2.48 0-4.5-2.02-4.5-4.5V76.81c0-2.48 2.02-4.5 4.5-4.5h81.89c2.48 0 4.5 2.02 4.5 4.5v26.64c0 2.48-2.02 4.5-4.5 4.5m-81.89-34.64c-1.93 0-3.5 1.57-3.5 3.5v26.64c0 1.93 1.57 3.5 3.5 3.5h81.89c1.93 0 3.5-1.57 3.5-3.5V76.81c0-1.93-1.57-3.5-3.5-3.5z"/><path fill="#4F6169" d="M389.42 72.81h-81.89a4 4 0 0 0-4 4v26.64a4 4 0 0 0 4 4h81.89a4 4 0 0 0 4-4V76.81a4 4 0 0 0-4-4"/><path fill="#fff" d="M389.42 107.95h-81.89c-2.48 0-4.5-2.02-4.5-4.5V76.81c0-2.48 2.02-4.5 4.5-4.5h81.89c2.48 0 4.5 2.02 4.5 4.5v26.64c0 2.48-2.02 4.5-4.5 4.5m-81.89-34.64c-1.93 0-3.5 1.57-3.5 3.5v26.64c0 1.93 1.57 3.5 3.5 3.5h81.89c1.93 0 3.5-1.57 3.5-3.5V76.81c0-1.93-1.57-3.5-3.5-3.5zm-65.57 48.448c-1.737 0-3.213-1.467-3.213-3.204s1.476-3.195 3.213-3.195a3.17 3.17 0 0 1 2.277.972l-.639.612c-.414-.45-.999-.747-1.638-.747-1.233 0-2.277 1.08-2.277 2.358 0 1.287 1.044 2.367 2.277 2.367.639 0 1.224-.297 1.638-.747l.639.612a3.2 3.2 0 0 1-2.277.972m-6.334 0c-1.053 0-1.854-.459-2.331-1.053l.585-.603c.414.504 1.017.837 1.728.837.801 0 1.314-.423 1.314-1.044 0-.639-.531-.972-1.458-.963h-.675v-.81l.675.009c.783 0 1.332-.342 1.332-.963 0-.576-.54-.99-1.26-.99-.648 0-1.125.324-1.557.828l-.567-.558c.477-.621 1.179-1.089 2.187-1.089 1.251 0 2.124.693 2.124 1.683 0 .765-.54 1.242-1.188 1.44.648.144 1.323.612 1.323 1.476 0 1.044-.891 1.8-2.232 1.8m-4.841-.108v-1.422h-3.069l-.099-.729 2.997-4.032h1.08v3.96h.891v.801h-.891v1.422zm-2.169-2.223h2.169v-2.925zm-4.003 2.331c-1.053 0-1.854-.459-2.331-1.053l.585-.603c.414.504 1.017.837 1.728.837.801 0 1.314-.423 1.314-1.044 0-.639-.531-.972-1.458-.963h-.675v-.81l.675.009c.783 0 1.332-.342 1.332-.963 0-.576-.54-.99-1.26-.99-.648 0-1.125.324-1.557.828l-.567-.558c.477-.621 1.179-1.089 2.187-1.089 1.251 0 2.124.693 2.124 1.683 0 .765-.54 1.242-1.188 1.44.648.144 1.323.612 1.323 1.476 0 1.044-.891 1.8-2.232 1.8m-7.585-.108v-.747l2.268-1.872c.828-.693 1.143-1.224 1.143-1.782 0-.675-.558-1.071-1.17-1.071-.675 0-1.17.36-1.602.918l-.612-.54c.54-.747 1.269-1.197 2.25-1.197 1.152 0 2.07.747 2.07 1.872 0 .828-.396 1.485-1.458 2.349l-1.449 1.224h2.961v.846zm-5.361 0v-.747l2.268-1.872c.828-.693 1.143-1.224 1.143-1.782 0-.675-.558-1.071-1.17-1.071-.675 0-1.17.36-1.602.918l-.612-.54c.54-.747 1.269-1.197 2.25-1.197 1.152 0 2.07.747 2.07 1.872 0 .828-.396 1.485-1.458 2.349l-1.449 1.224h2.961v.846zm-.916-3.942h-.999l-.432 1.71h.999l-.171.675h-.99l-.396 1.557h-.72l.396-1.557h-1.251l-.396 1.557h-.711l.396-1.557h-.972l.171-.675h.963l.432-1.71h-.981l.171-.675h.981l.396-1.566h.711l-.396 1.566h1.251l.396-1.566h.72l-.396 1.566h.99zm-2.151 1.71.432-1.71h-1.251l-.432 1.71z"/></svg>