<svg xmlns="http://www.w3.org/2000/svg" width="450" height="260" fill="none"><path fill="#22343C" d="M.5 4A3.5 3.5 0 0 1 4 .5h442a3.5 3.5 0 0 1 3.5 3.5v252a3.5 3.5 0 0 1-3.5 3.5H4A3.5 3.5 0 0 1 .5 256z"/><path stroke="#6A7A81" d="M.5 4A3.5 3.5 0 0 1 4 .5h442a3.5 3.5 0 0 1 3.5 3.5v252a3.5 3.5 0 0 1-3.5 3.5H4A3.5 3.5 0 0 1 .5 256z"/><path fill="#D092E8" d="M225.02 129.73 209.33 18.08c4.81-.68 10.83-1.1 15.69-1.1z"/><path fill="#22343C" d="M225.019 130.23c-.25 0-.46-.18-.5-.43l-15.69-111.65a.5.5 0 0 1 .1-.37c.08-.11.2-.18.33-.19 4.84-.68 10.87-1.1 15.76-1.1.28 0 .5.22.5.5v112.74c0 .26-.2.48-.46.5zm-15.13-111.72 14.63 104.07V17.48c-4.58.03-10.09.41-14.63 1.02z"/><path fill="#FAF0FF" d="m225.02 129.73-29.18-108.9c4.69-1.26 8.68-2.07 13.49-2.74l15.69 111.65z"/><path fill="#22343C" d="M225.02 130.23c-.22 0-.42-.15-.48-.37l-29.18-108.9a.5.5 0 0 1 .05-.38c.07-.12.17-.2.3-.23 4.69-1.26 8.74-2.08 13.55-2.76.12-.02.26.02.37.1s.18.2.19.33l15.69 111.65a.5.5 0 0 1-.4.56h-.1zM196.45 21.18l26.93 100.52L208.9 18.64c-4.39.63-8.17 1.4-12.45 2.53z"/><path fill="#00E4F5" d="M225.019 129.73 182.789 25.2c4.5-1.82 8.36-3.11 13.05-4.37z"/><path fill="#22343C" d="M225.02 130.23c-.2 0-.39-.12-.46-.31L182.33 25.38c-.1-.26.02-.55.28-.65 4.5-1.82 8.42-3.13 13.11-4.39.26-.06.54.09.61.35l29.18 108.9c.07.26-.07.52-.33.6-.05.02-.11.03-.16.03zM183.44 25.47l38.98 96.49-26.93-100.52c-4.28 1.16-7.94 2.39-12.05 4.03"/><path fill="#FCFFE0" d="m225.019 129.73-54.66-98.61c4.25-2.35 7.92-4.11 12.42-5.93l42.23 104.53z"/><path fill="#22343C" d="M225.02 130.23a.49.49 0 0 1-.44-.26l-54.66-98.61a.5.5 0 0 1-.04-.38c.04-.13.12-.24.24-.3 4.24-2.35 7.98-4.13 12.48-5.95a.5.5 0 0 1 .65.27l42.23 104.54c.1.25 0 .53-.25.64-.07.03-.14.05-.21.05m-53.98-98.91 50.45 91.02-38.98-96.49c-4.11 1.68-7.59 3.34-11.47 5.47"/><path fill="#66D1FF" d="m225.02 129.73-66.27-91.21c3.93-2.85 7.36-5.04 11.61-7.4z"/><path fill="#22343C" d="M225.02 130.23c-.15 0-.31-.07-.4-.21l-66.27-91.21a.507.507 0 0 1 .11-.7c3.93-2.86 7.42-5.08 11.66-7.43a.5.5 0 0 1 .68.2l54.66 98.61c.13.23.05.52-.17.66a.53.53 0 0 1-.27.08m-65.57-91.6 61.17 84.19-50.45-91.02c-3.87 2.16-7.12 4.23-10.72 6.83"/><path fill="#F5FDAA" d="m225.021 129.73-76.89-82.46c3.55-3.31 6.69-5.9 10.62-8.76l66.27 91.21z"/><path fill="#22343C" d="M225.02 130.23a.5.5 0 0 1-.37-.16l-76.89-82.46c-.19-.2-.18-.52.02-.71 3.55-3.31 6.74-5.94 10.67-8.79.22-.16.54-.11.7.11l66.27 91.21c.16.21.12.51-.09.68a.48.48 0 0 1-.32.11zM148.84 47.3l70.97 76.11-61.17-84.19c-3.58 2.62-6.55 5.07-9.8 8.08"/><path fill="#E0B4F3" d="m225.02 129.73-86.37-72.48c3.12-3.72 5.92-6.67 9.48-9.99l76.89 82.46z"/><path fill="#22343C" d="M225.021 130.23a.5.5 0 0 1-.32-.12l-86.37-72.47a.494.494 0 0 1-.06-.7c3.12-3.72 5.96-6.72 9.52-10.03.2-.19.52-.18.71.02l76.89 82.46c.18.19.18.49 0 .68-.1.1-.23.16-.36.16zm-85.66-73.04 79.72 66.89-70.97-76.11c-3.23 3.04-5.89 5.83-8.75 9.22"/><path fill="#EBFEFF" d="m225.021 129.73-97.64-56.37c3.64-6.31 6.59-10.52 11.27-16.1z"/><path fill="#22343C" d="M225.02 130.23c-.09 0-.17-.02-.25-.07l-97.64-56.37a.493.493 0 0 1-.18-.68c3.66-6.34 6.62-10.57 11.32-16.17.18-.21.49-.24.7-.06l86.37 72.47a.499.499 0 0 1-.32.88m-96.96-57.05 92.26 53.26-81.61-68.48c-4.37 5.24-7.22 9.31-10.65 15.21z"/><path fill="#8FDDFF" d="m225.02 129.73-110.28-23.44c2.54-11.94 6.54-22.36 12.64-32.93z"/><path fill="#22343C" d="M225.02 130.23s-.07 0-.1-.01l-110.28-23.44a.55.55 0 0 1-.32-.22.47.47 0 0 1-.07-.38c2.54-11.97 6.58-22.48 12.7-33.08.14-.24.45-.32.68-.18l97.64 56.37c.21.12.3.38.22.61-.08.2-.26.32-.47.32zM115.33 105.9l106.7 22.68-94.47-54.54c-5.84 10.21-9.74 20.36-12.23 31.86"/><path fill="#D8E93F" d="m225.02 129.73-112.13 11.78c-1.28-12.14-.69-23.29 1.85-35.23l110.28 23.44z"/><path fill="#22343C" d="M112.89 142.01a.49.49 0 0 1-.49-.45c-1.28-12.17-.69-23.41 1.85-35.38.03-.13.11-.24.22-.32.11-.07.25-.1.38-.07l110.28 23.44c.24.05.41.27.4.52s-.2.45-.45.47l-112.13 11.79zm2.23-35.13c-2.4 11.52-2.97 22.38-1.79 34.08l108.49-11.4z"/><path fill="#80F7FF" d="m225.02 129.73-69.41 88.84c-24.98-19.51-39.4-45.54-42.71-77.06l112.13-11.78z"/><path fill="#22343C" d="M155.6 219.07a.5.5 0 0 1-.31-.11c-25.13-19.64-39.57-45.68-42.9-77.4-.03-.28.17-.52.44-.55l112.13-11.79c.2-.02.39.08.49.25s.08.39-.04.55L156 218.86c-.08.1-.2.17-.33.19h-.06zm-42.16-77.11c3.38 31.05 17.54 56.58 42.08 75.91l68.38-87.52z"/><path fill="#AC50D3" d="m225.019 129.73 70.95 87.62c-41.71 33.78-98.07 34.27-140.36 1.22z"/><path fill="#22343C" d="M225.061 243.51c-24.39 0-48.8-8.17-69.76-24.54a.53.53 0 0 1-.19-.33.5.5 0 0 1 .1-.37l69.41-88.84a.493.493 0 0 1 .78 0l70.95 87.62c.17.21.14.53-.07.7-21.2 17.17-46.2 25.77-71.23 25.77zm-68.75-25.02c41.91 32.47 97.63 31.98 138.96-1.21l-70.24-86.74z"/><path fill="#2EC0FF" d="M225.02 129.73V16.98c62.27 0 112.74 50.48 112.74 112.74 0 35.37-14.31 65.36-41.79 87.62l-70.95-87.62z"/><path fill="#22343C" d="M295.97 217.84c-.15 0-.29-.06-.39-.19l-70.95-87.62a.5.5 0 0 1-.11-.31V16.98c0-.28.22-.5.5-.5 62.44 0 113.24 50.8 113.24 113.24 0 35.34-14.52 65.77-41.98 88.01-.09.08-.2.11-.31.11m-70.45-88.29 70.53 87.09c26.97-22.01 41.22-52.06 41.22-86.91 0-61.73-50.08-111.97-111.74-112.24v112.07z"/></svg>
