<svg xmlns="http://www.w3.org/2000/svg" width="292" height="260" fill="none"><path fill="#22343C" d="M.5 4A3.5 3.5 0 0 1 4 .5h284a3.5 3.5 0 0 1 3.5 3.5v252a3.5 3.5 0 0 1-3.5 3.5H4A3.5 3.5 0 0 1 .5 256z"/><path stroke="#6A7A81" d="M.5 4A3.5 3.5 0 0 1 4 .5h284a3.5 3.5 0 0 1 3.5 3.5v252a3.5 3.5 0 0 1-3.5 3.5H4A3.5 3.5 0 0 1 .5 256z"/><path fill="#fff" d="M250.53 219.51H37.21c-.55 0-1-.45-1-1V38.27c0-.55.45-1 1-1s1 .45 1 1v179.24h212.32c.55 0 1 .45 1 1s-.45 1-1 1"/><path fill="#009ADB" d="M158.96 123.93c5.247 0 9.5-4.2 9.5-9.38s-4.253-9.38-9.5-9.38-9.5 4.199-9.5 9.38c0 5.18 4.253 9.38 9.5 9.38" opacity=".2"/><path fill="#009ADB" d="M159.43 124.46c-5.79 0-10.5-4.66-10.5-10.38s4.71-10.38 10.5-10.38 10.5 4.66 10.5 10.38-4.71 10.38-10.5 10.38m0-18.76c-4.68 0-8.5 3.76-8.5 8.38s3.81 8.38 8.5 8.38 8.5-3.76 8.5-8.38-3.81-8.38-8.5-8.38"/><path fill="#009ADB" d="M200.19 187.18c13.183 0 23.87-10.553 23.87-23.57s-10.687-23.57-23.87-23.57-23.87 10.553-23.87 23.57 10.687 23.57 23.87 23.57" opacity=".2"/><path fill="#009ADB" d="M200.66 187.72c-13.71 0-24.87-11.02-24.87-24.57s11.16-24.58 24.87-24.58 24.87 11.02 24.87 24.58-11.16 24.57-24.87 24.57m0-47.15c-12.61 0-22.87 10.13-22.87 22.58s10.26 22.57 22.87 22.57 22.87-10.13 22.87-22.57-10.26-22.58-22.87-22.58"/><path fill="#AC50D3" d="M225.66 137.04c5.799 0 10.5-4.643 10.5-10.37s-4.701-10.37-10.5-10.37-10.5 4.643-10.5 10.37 4.701 10.37 10.5 10.37" opacity=".2"/><path fill="#AC50D3" d="M225.66 138.04c-6.34 0-11.5-5.1-11.5-11.38s5.16-11.37 11.5-11.37 11.5 5.1 11.5 11.37-5.16 11.38-11.5 11.38m0-20.75c-5.24 0-9.5 4.21-9.5 9.37s4.26 9.38 9.5 9.38 9.5-4.21 9.5-9.38-4.26-9.37-9.5-9.37"/><path fill="#AC50D3" d="M129.45 139.33c4.534 0 8.21-3.631 8.21-8.11s-3.676-8.11-8.21-8.11-8.21 3.631-8.21 8.11 3.676 8.11 8.21 8.11" opacity=".2"/><path fill="#AC50D3" d="M129.45 140.33c-5.08 0-9.21-4.09-9.21-9.11s4.13-9.11 9.21-9.11 9.21 4.09 9.21 9.11-4.13 9.11-9.21 9.11m0-16.23c-3.98 0-7.21 3.19-7.21 7.11s3.24 7.11 7.21 7.11 7.21-3.19 7.21-7.11-3.24-7.11-7.21-7.11"/><path fill="#AC50D3" d="M58.08 193.66c2.485 0 4.5-1.993 4.5-4.45 0-2.458-2.015-4.45-4.5-4.45s-4.5 1.992-4.5 4.45c0 2.457 2.015 4.45 4.5 4.45" opacity=".2"/><path fill="#AC50D3" d="M58.08 194.66c-3.03 0-5.5-2.44-5.5-5.45s2.47-5.45 5.5-5.45 5.5 2.44 5.5 5.45-2.47 5.45-5.5 5.45m0-8.89c-1.93 0-3.5 1.55-3.5 3.45s1.57 3.45 3.5 3.45 3.5-1.55 3.5-3.45-1.57-3.45-3.5-3.45"/><path fill="#AC50D3" d="M67.75 183.17c2.485 0 4.5-1.992 4.5-4.45s-2.015-4.45-4.5-4.45-4.5 1.992-4.5 4.45 2.015 4.45 4.5 4.45" opacity=".2"/><path fill="#AC50D3" d="M67.75 184.16c-3.03 0-5.5-2.44-5.5-5.45s2.47-5.45 5.5-5.45 5.5 2.44 5.5 5.45-2.47 5.45-5.5 5.45m0-8.89c-1.93 0-3.5 1.55-3.5 3.45s1.57 3.45 3.5 3.45 3.5-1.55 3.5-3.45-1.57-3.45-3.5-3.45"/><path fill="#009ADB" d="M132.53 101.37c12.525 0 22.68-10.029 22.68-22.4s-10.155-22.4-22.68-22.4-22.68 10.029-22.68 22.4 10.154 22.4 22.68 22.4" opacity=".2"/><path fill="#009ADB" d="M133 101.89c-13.06 0-23.68-10.5-23.68-23.4s10.62-23.4 23.68-23.4 23.68 10.5 23.68 23.4-10.62 23.4-23.68 23.4m0-44.79c-11.95 0-21.68 9.6-21.68 21.4s9.72 21.4 21.68 21.4 21.68-9.6 21.68-21.4-9.72-21.4-21.68-21.4"/><path fill="#009ADB" d="M189.04 91.39c6.031 0 10.92-4.826 10.92-10.78s-4.889-10.78-10.92-10.78-10.92 4.826-10.92 10.78 4.889 10.78 10.92 10.78" opacity=".2"/><path fill="#009ADB" d="M189.51 91.92c-6.57 0-11.92-5.29-11.92-11.78s5.35-11.78 11.92-11.78 11.92 5.29 11.92 11.78-5.35 11.78-11.92 11.78m0-21.57c-5.47 0-9.92 4.39-9.92 9.78s4.45 9.78 9.92 9.78 9.92-4.39 9.92-9.78-4.45-9.78-9.92-9.78"/><path fill="#009ADB" d="M167.99 76.58c3.596 0 6.51-2.879 6.51-6.43s-2.914-6.43-6.51-6.43-6.51 2.879-6.51 6.43 2.915 6.43 6.51 6.43" opacity=".2"/><path fill="#009ADB" d="M168.46 77.11c-4.14 0-7.51-3.33-7.51-7.43s3.37-7.43 7.51-7.43 7.51 3.33 7.51 7.43-3.37 7.43-7.51 7.43m0-12.87c-3.04 0-5.51 2.44-5.51 5.43s2.47 5.43 5.51 5.43 5.51-2.44 5.51-5.43-2.47-5.43-5.51-5.43"/><path fill="#AC50D3" d="M80.9 131.86c3.728 0 6.75-2.986 6.75-6.67s-3.022-6.67-6.75-6.67-6.75 2.986-6.75 6.67 3.022 6.67 6.75 6.67" opacity=".2"/><path fill="#AC50D3" d="M80.9 132.86c-4.28 0-7.75-3.44-7.75-7.67s3.48-7.67 7.75-7.67 7.75 3.44 7.75 7.67-3.48 7.67-7.75 7.67m0-13.34c-3.17 0-5.75 2.54-5.75 5.67s2.58 5.67 5.75 5.67 5.75-2.54 5.75-5.67-2.58-5.67-5.75-5.67"/><path fill="#AC50D3" d="M93.92 111.37c3.728 0 6.75-2.986 6.75-6.67s-3.022-6.67-6.75-6.67-6.75 2.986-6.75 6.67 3.022 6.67 6.75 6.67" opacity=".2"/><path fill="#AC50D3" d="M93.92 112.37c-4.28 0-7.75-3.44-7.75-7.67s3.48-7.67 7.75-7.67 7.75 3.44 7.75 7.67-3.48 7.67-7.75 7.67m0-13.34c-3.17 0-5.75 2.54-5.75 5.67s2.58 5.67 5.75 5.67 5.75-2.54 5.75-5.67-2.58-5.67-5.75-5.67"/></svg>
