<svg width="451" height="260" viewBox="0 0 451 260" fill="none" xmlns="http://www.w3.org/2000/svg">
  <path d="M4 0.5H447C448.933 0.5 450.5 2.067 450.5 4V256C450.5 257.933 448.933 259.5 447 259.5H4C2.067 259.5 0.5 257.933 0.5 256V4C0.5 2.067 2.067 0.5 4 0.5Z" fill="#22343C"/>
  <path d="M4 0.5H447C448.933 0.5 450.5 2.067 450.5 4V256C450.5 257.933 448.933 259.5 447 259.5H4C2.067 259.5 0.5 257.933 0.5 256V4C0.5 2.067 2.067 0.5 4 0.5Z" stroke="#6A7A81"/>
  <path d="M194.99 136.55L132.4 222.7C84.8198 188.13 74.2798 121.54 108.84 73.9701C129.58 45.4201 159.7 30.0801 194.99 30.0801V136.56V136.55Z" fill="#AEB8BC"/>
  <path d="M132.51 223.4L132.11 223.11C108.99 206.31 93.8001 181.52 89.3301 153.3C84.8601 125.08 91.6501 96.8001 108.45 73.6801C129.41 44.8301 159.34 29.5801 195 29.5801H195.5V136.72L132.52 223.4H132.51ZM194.49 30.5701C159.38 30.7101 129.92 45.8101 109.25 74.2601C92.6101 97.1601 85.8901 125.17 90.3101 153.13C94.7101 180.93 109.61 205.36 132.29 222L194.49 136.39V30.5701Z" fill="#1B2B32"/>
  <path d="M194.99 136.55L296.26 169.45C278.09 225.38 218.01 255.99 162.08 237.82C150.89 234.19 141.91 229.61 132.4 222.7L194.99 136.55Z" fill="#FF8F3D"/>
  <path d="M194.92 243.54C183.99 243.54 172.88 241.85 161.94 238.29C150.65 234.62 141.73 230.08 132.12 223.09L131.72 222.8L194.82 135.96L296.91 169.13L296.76 169.61C282.09 214.77 240.04 243.54 194.94 243.54H194.92ZM133.11 222.58C142.48 229.33 151.22 233.76 162.25 237.34C217.67 255.34 277.39 225.05 295.64 169.77L195.19 137.13L133.11 222.58Z" fill="#1B2B32"/>
  <path d="M194.91 136.56L257.53 50.3701C295.61 78.0401 310.78 124.71 296.23 169.48L194.91 136.56Z" fill="#FFDB24"/>
  <path d="M296.55 170.11L194.1 136.82L257.42 49.6699L257.82 49.9599C296.04 77.7299 311.3 124.7 296.7 169.63L296.55 170.11ZM195.72 136.3L295.91 168.85C310.06 124.64 295.08 78.5199 257.64 51.0699L195.72 136.3Z" fill="#1B2B32"/>
  <path d="M194.99 136.55L296.26 169.45C278.09 225.38 218.01 255.99 162.08 237.82C150.89 234.19 141.91 229.61 132.4 222.7L194.99 136.55Z" fill="#FF8F3D"/>
  <path d="M194.92 243.54C183.99 243.54 172.88 241.85 161.94 238.29C150.65 234.62 141.73 230.08 132.12 223.09L131.72 222.8L194.82 135.96L296.91 169.13L296.76 169.61C282.09 214.77 240.04 243.54 194.94 243.54H194.92ZM133.11 222.58C142.48 229.33 151.22 233.76 162.25 237.34C217.67 255.34 277.39 225.05 295.64 169.77L195.19 137.13L133.11 222.58Z" fill="#1B2B32"/>
  <path d="M194.91 136.56L257.53 50.3701C295.61 78.0401 310.78 124.71 296.23 169.48L194.91 136.56Z" fill="#67CA16"/>
  <path d="M296.55 170.11L194.1 136.82L257.42 49.6699L257.82 49.9599C296.04 77.7299 311.3 124.7 296.7 169.63L296.55 170.11ZM195.72 136.3L295.91 168.85C310.06 124.64 295.08 78.5199 257.64 51.0699L195.72 136.3Z" fill="#1B2B32"/>
  <path d="M194.99 136.55V30.0703C218.51 30.0703 238.55 36.5803 257.58 50.4103L194.99 136.56V136.55Z" fill="#FF4D2E"/>
  <path d="M194.49 138.09V29.5703H194.99C218.71 29.5703 238.69 36.0603 257.87 50.0003L258.27 50.2903L194.48 138.09H194.49ZM195.49 30.5703V135.01L256.88 50.5103C238.13 37.0003 218.6 30.6503 195.49 30.5603V30.5703Z" fill="#1B2B32"/>
  <mask id="mask0_14202_19901" style="mask-type:luminance" maskUnits="userSpaceOnUse" x="262" y="119" width="85" height="85">
    <path d="M304.63 203.57C327.826 203.57 346.63 184.766 346.63 161.57C346.63 138.374 327.826 119.57 304.63 119.57C281.434 119.57 262.63 138.374 262.63 161.57C262.63 184.766 281.434 203.57 304.63 203.57Z" fill="white"/>
  </mask>
  <g mask="url(#mask0_14202_19901)">
    <path d="M164.93 113.06L321.75 164.01C293.61 250.62 200.59 298.02 113.98 269.87C96.6598 264.24 82.7498 257.15 68.0098 246.45L164.93 113.05V113.06Z" fill="#FF8F3D"/>
    <path d="M165.109 279.341C147.839 279.341 130.479 276.621 113.579 271.121C96.0295 265.421 82.1795 258.36 67.2495 247.51L66.1895 246.741L164.429 111.521L323.389 163.171L322.989 164.411C309.269 206.631 279.929 240.981 240.379 261.131C216.659 273.211 190.969 279.331 165.099 279.331L165.109 279.341ZM69.8394 246.171C84.1294 256.411 97.5194 263.161 114.379 268.641C155.939 282.151 200.259 278.651 239.189 258.821C277.729 239.181 306.419 205.851 320.089 164.861L165.419 114.611L69.8295 246.181L69.8394 246.171Z" fill="#1B2B32"/>
    <path d="M164.8 113.07L261.77 -20.3896C320.74 22.4504 344.22 94.7304 321.7 164.05L164.81 113.07H164.8Z" fill="#67CA16"/>
    <path d="M322.529 165.7L321.289 165.3L162.689 113.77L261.479 -22.21L262.539 -21.44C321.909 21.7 345.619 94.6701 322.939 164.46L322.539 165.7H322.529ZM166.909 112.39L320.839 162.41C342.349 94.51 319.349 23.74 262.039 -18.55L166.899 112.4L166.909 112.39Z" fill="#1B2B32"/>
  </g>
  <path d="M304.72 204.29C281.01 204.29 261.72 185 261.72 161.29C261.72 137.58 281.01 118.29 304.72 118.29C328.43 118.29 347.72 137.58 347.72 161.29C347.72 185 328.43 204.29 304.72 204.29ZM304.72 120.29C282.11 120.29 263.72 138.68 263.72 161.29C263.72 183.9 282.11 202.29 304.72 202.29C327.33 202.29 345.72 183.9 345.72 161.29C345.72 138.68 327.33 120.29 304.72 120.29Z" fill="#F3F5F7"/>
  <path d="M304.78 118.22C328.49 118.22 347.78 137.51 347.78 161.22C347.78 184.93 328.49 204.22 304.78 204.22C281.07 204.22 261.78 184.93 261.78 161.22C261.78 137.51 281.07 118.22 304.78 118.22ZM304.78 116.22C279.97 116.22 259.78 136.41 259.78 161.22C259.78 186.03 279.97 206.22 304.78 206.22C329.59 206.22 349.78 186.03 349.78 161.22C349.78 136.41 329.59 116.22 304.78 116.22Z" fill="#1B2B32"/>
</svg>
