<svg width="452" height="144" viewBox="0 0 452 144" fill="none" xmlns="http://www.w3.org/2000/svg">
<path d="M4 0.5H448C449.933 0.5 451.5 2.067 451.5 4V143.5H0.5V4C0.5 2.067 2.067 0.5 4 0.5Z" fill="#FCFDFD"/>
<path d="M104.847 43.518H109.436V45H103.235V36.069H104.847V43.518ZM113.387 38.123C115.168 38.123 116.26 39.254 116.26 40.957V45H114.713V44.207C114.219 44.818 113.387 45.156 112.607 45.156C111.177 45.156 110.111 44.311 110.111 43.011C110.111 41.685 111.32 40.775 112.841 40.775C113.452 40.775 114.102 40.905 114.713 41.126V40.957C114.713 40.177 114.297 39.423 113.075 39.423C112.438 39.423 111.827 39.644 111.255 39.93L110.709 38.825C111.658 38.357 112.542 38.123 113.387 38.123ZM112.958 43.999C113.725 43.999 114.544 43.609 114.713 42.894V42.127C114.219 41.971 113.66 41.88 113.075 41.88C112.282 41.88 111.632 42.322 111.632 42.959C111.632 43.596 112.204 43.999 112.958 43.999ZM121.962 38.123C123.743 38.123 125.056 39.579 125.056 41.633C125.056 43.7 123.743 45.156 121.962 45.156C120.935 45.156 120.103 44.675 119.583 43.856V45H117.997V35.913H119.583V39.41C120.103 38.604 120.935 38.123 121.962 38.123ZM121.533 43.804C122.677 43.804 123.483 42.894 123.483 41.633C123.483 40.372 122.677 39.475 121.533 39.475C120.428 39.475 119.635 40.372 119.635 41.633C119.635 42.894 120.428 43.804 121.533 43.804ZM129.456 43.882C130.132 43.882 130.899 43.596 131.328 43.18L132.238 44.116C131.653 44.74 130.483 45.156 129.508 45.156C127.571 45.156 125.972 43.687 125.972 41.62C125.972 39.592 127.493 38.123 129.417 38.123C131.497 38.123 132.719 39.657 132.719 42.101H127.506C127.675 43.154 128.416 43.882 129.456 43.882ZM129.43 39.397C128.468 39.397 127.727 40.047 127.519 41.048H131.185C131.042 40.099 130.444 39.397 129.43 39.397ZM134.034 45V35.913H135.62V45H134.034Z" fill="#4F6169"/>
<path d="M129.417 85V76.069H130.431V85H129.417ZM136.063 78.123C137.558 78.123 138.585 79.176 138.585 80.723V85H137.61V80.853C137.61 79.748 136.921 78.994 135.933 78.994C134.789 78.994 133.853 79.774 133.853 80.723V85H132.878V78.279H133.853V79.345C134.243 78.63 135.101 78.123 136.063 78.123ZM144.004 78.123C145.772 78.123 147.098 79.579 147.098 81.633C147.098 83.7 145.772 85.156 144.004 85.156C142.925 85.156 142.067 84.623 141.56 83.739V87.236H140.585V78.279H141.56V79.54C142.067 78.656 142.925 78.123 144.004 78.123ZM143.822 84.285C145.135 84.285 146.071 83.18 146.071 81.633C146.071 80.086 145.135 78.994 143.822 78.994C142.496 78.994 141.56 80.086 141.56 81.633C141.56 83.18 142.496 84.285 143.822 84.285ZM153.313 78.279H154.288V85H153.313V83.934C152.923 84.649 152.065 85.156 151.103 85.156C149.608 85.156 148.581 84.103 148.581 82.556V78.279H149.556V82.426C149.556 83.531 150.245 84.285 151.233 84.285C152.377 84.285 153.313 83.505 153.313 82.556V78.279ZM159.045 84.012L159.526 84.727C159.175 85 158.733 85.156 158.278 85.156C157.316 85.156 156.64 84.441 156.64 83.44V79.15H155.587V78.279H156.64V76.433H157.615V78.279H159.266V79.15H157.615V83.44C157.615 83.934 157.953 84.285 158.343 84.285C158.642 84.285 158.902 84.168 159.045 84.012ZM166.165 85L163.305 78.279H164.397L166.633 83.856L168.83 78.279H169.922L167.101 85H166.165ZM173.492 78.123C175.325 78.123 176.222 79.28 176.222 80.905V85H175.247V83.947C174.766 84.74 173.765 85.156 172.881 85.156C171.464 85.156 170.424 84.337 170.424 83.011C170.424 81.672 171.62 80.775 173.063 80.775C173.791 80.775 174.558 80.931 175.247 81.152V80.905C175.247 79.995 174.883 78.955 173.427 78.955C172.751 78.955 172.075 79.254 171.464 79.566L171.074 78.773C172.036 78.292 172.842 78.123 173.492 78.123ZM173.05 84.298C173.934 84.298 174.987 83.843 175.247 82.894V81.867C174.636 81.698 173.947 81.594 173.219 81.594C172.218 81.594 171.373 82.166 171.373 82.972C171.373 83.804 172.101 84.298 173.05 84.298ZM178.224 85V75.913H179.199V85H178.224ZM185.937 78.279H186.912V85H185.937V83.934C185.547 84.649 184.689 85.156 183.727 85.156C182.232 85.156 181.205 84.103 181.205 82.556V78.279H182.18V82.426C182.18 83.531 182.869 84.285 183.857 84.285C185.001 84.285 185.937 83.505 185.937 82.556V78.279ZM191.903 84.285C192.696 84.285 193.606 83.934 194.022 83.479L194.619 84.116C194.035 84.753 192.852 85.156 191.916 85.156C190.122 85.156 188.51 83.687 188.51 81.62C188.51 79.618 190.018 78.123 191.825 78.123C193.853 78.123 195.01 79.657 195.01 82.01H189.511C189.653 83.323 190.577 84.285 191.903 84.285ZM191.864 78.994C190.668 78.994 189.706 79.839 189.524 81.139H194.048C193.918 79.93 193.203 78.994 191.864 78.994Z" fill="#22343C"/>
<path d="M339 92H102V94H339V92Z" fill="#E02200" mask="url(#path-3-inside-1_8990_6991)"/>
<path fill-rule="evenodd" clip-rule="evenodd" d="M102 81C102 76.5817 105.582 73 110 73C112.122 73 114.157 73.8429 115.657 75.3431C117.157 76.8434 118 78.8783 118 81C118 85.4183 114.418 89 110 89C105.582 89 102 85.4183 102 81ZM109.133 81.5133C109.133 81.992 109.521 82.38 110 82.38C110.479 82.38 110.867 81.992 110.867 81.5133V77.5133C110.867 77.0347 110.479 76.6467 110 76.6467C109.521 76.6467 109.133 77.0347 109.133 77.5133V81.5133ZM110 87.6667C106.318 87.6667 103.333 84.6819 103.333 81C103.333 77.3181 106.318 74.3333 110 74.3333C113.682 74.3333 116.667 77.3181 116.667 81C116.667 82.7681 115.964 84.4638 114.714 85.714C113.464 86.9643 111.768 87.6667 110 87.6667ZM110.967 84.3467C110.967 84.899 110.519 85.3467 109.967 85.3467C109.414 85.3467 108.967 84.899 108.967 84.3467C108.967 83.7944 109.414 83.3467 109.967 83.3467C110.519 83.3467 110.967 83.7944 110.967 84.3467Z" fill="#E02200"/>
<path d="M108.622 101.257H104.068V103.743H108.171V104.557H104.068V107.186H108.622V108H103.199V100.443H108.622V101.257ZM111.222 103.424C111.563 102.665 112.377 102.181 113.422 102.181V102.918C112.135 102.918 111.222 103.71 111.222 104.821V108H110.397V102.313H111.222V103.424ZM115.784 103.424C116.125 102.665 116.939 102.181 117.984 102.181V102.918C116.697 102.918 115.784 103.71 115.784 104.821V108H114.959V102.313H115.784V103.424ZM121.962 108.132C120.345 108.132 119.025 106.79 119.025 105.151C119.025 103.512 120.345 102.181 121.962 102.181C123.568 102.181 124.888 103.512 124.888 105.151C124.888 106.79 123.568 108.132 121.962 108.132ZM121.962 107.395C123.095 107.395 124.03 106.383 124.03 105.151C124.03 103.919 123.095 102.918 121.962 102.918C120.818 102.918 119.883 103.919 119.883 105.151C119.883 106.383 120.818 107.395 121.962 107.395ZM127.334 103.424C127.675 102.665 128.489 102.181 129.534 102.181V102.918C128.247 102.918 127.334 103.71 127.334 104.821V108H126.509V102.313H127.334V103.424ZM134.542 108V100.443H135.4L138.205 105.712L141.01 100.443H141.868V108H141.01V102.291L138.205 107.56L135.4 102.291V108H134.542ZM146.619 107.395C147.29 107.395 148.06 107.098 148.412 106.713L148.918 107.252C148.423 107.791 147.422 108.132 146.63 108.132C145.112 108.132 143.748 106.889 143.748 105.14C143.748 103.446 145.024 102.181 146.553 102.181C148.269 102.181 149.248 103.479 149.248 105.47H144.595C144.716 106.581 145.497 107.395 146.619 107.395ZM146.586 102.918C145.574 102.918 144.76 103.633 144.606 104.733H148.434C148.324 103.71 147.719 102.918 146.586 102.918ZM152.594 108.132C151.802 108.132 150.922 107.835 150.24 107.285L150.669 106.68C151.318 107.153 151.967 107.395 152.594 107.395C153.342 107.395 153.848 107.043 153.848 106.504C153.848 105.888 153.188 105.69 152.418 105.47C151.043 105.074 150.515 104.667 150.515 103.853C150.515 102.819 151.373 102.181 152.506 102.181C153.21 102.181 153.936 102.423 154.541 102.819L154.145 103.457C153.573 103.094 153.012 102.918 152.506 102.918C151.868 102.918 151.34 103.204 151.34 103.754C151.34 104.249 151.758 104.403 152.814 104.744C153.727 105.03 154.673 105.338 154.673 106.416C154.673 107.461 153.771 108.132 152.594 108.132ZM158.047 108.132C157.255 108.132 156.375 107.835 155.693 107.285L156.122 106.68C156.771 107.153 157.42 107.395 158.047 107.395C158.795 107.395 159.301 107.043 159.301 106.504C159.301 105.888 158.641 105.69 157.871 105.47C156.496 105.074 155.968 104.667 155.968 103.853C155.968 102.819 156.826 102.181 157.959 102.181C158.663 102.181 159.389 102.423 159.994 102.819L159.598 103.457C159.026 103.094 158.465 102.918 157.959 102.918C157.321 102.918 156.793 103.204 156.793 103.754C156.793 104.249 157.211 104.403 158.267 104.744C159.18 105.03 160.126 105.338 160.126 106.416C160.126 107.461 159.224 108.132 158.047 108.132ZM163.775 102.181C165.326 102.181 166.085 103.16 166.085 104.535V108H165.26V107.109C164.853 107.78 164.006 108.132 163.258 108.132C162.059 108.132 161.179 107.439 161.179 106.317C161.179 105.184 162.191 104.425 163.412 104.425C164.028 104.425 164.677 104.557 165.26 104.744V104.535C165.26 103.765 164.952 102.885 163.72 102.885C163.148 102.885 162.576 103.138 162.059 103.402L161.729 102.731C162.543 102.324 163.225 102.181 163.775 102.181ZM163.401 107.406C164.149 107.406 165.04 107.021 165.26 106.218V105.349C164.743 105.206 164.16 105.118 163.544 105.118C162.697 105.118 161.982 105.602 161.982 106.284C161.982 106.988 162.598 107.406 163.401 107.406ZM172.254 102.313H173.079V107.395C173.079 108.858 171.924 109.892 170.285 109.892C169.361 109.892 168.503 109.573 167.986 109.133L168.349 108.484C168.789 108.902 169.471 109.155 170.175 109.155C171.484 109.155 172.254 108.506 172.254 107.395V106.471C171.814 107.164 171.088 107.582 170.186 107.582C168.657 107.582 167.568 106.46 167.568 104.876C167.568 103.292 168.657 102.181 170.186 102.181C171.088 102.181 171.814 102.599 172.254 103.292V102.313ZM170.34 106.845C171.462 106.845 172.254 106.031 172.254 104.876C172.254 103.732 171.462 102.918 170.34 102.918C169.229 102.918 168.437 103.732 168.437 104.876C168.437 106.031 169.229 106.845 170.34 106.845ZM177.59 107.395C178.261 107.395 179.031 107.098 179.383 106.713L179.889 107.252C179.394 107.791 178.393 108.132 177.601 108.132C176.083 108.132 174.719 106.889 174.719 105.14C174.719 103.446 175.995 102.181 177.524 102.181C179.24 102.181 180.219 103.479 180.219 105.47H175.566C175.687 106.581 176.468 107.395 177.59 107.395ZM177.557 102.918C176.545 102.918 175.731 103.633 175.577 104.733H179.405C179.295 103.71 178.69 102.918 177.557 102.918Z" fill="#E02200"/>
<path d="M4 0.5H448C449.933 0.5 451.5 2.067 451.5 4V143.5H0.5V4C0.5 2.067 2.067 0.5 4 0.5Z" stroke="#ACB8BE"/>
</svg>
