<svg width="281" height="60" viewBox="0 0 281 60" fill="none" xmlns="http://www.w3.org/2000/svg">
<path d="M3.34699 22.518H7.93599V24H1.73499V15.069H3.34699V22.518ZM11.8866 17.123C13.6676 17.123 14.7596 18.254 14.7596 19.957V24H13.2126V23.207C12.7186 23.818 11.8866 24.156 11.1066 24.156C9.67661 24.156 8.6106 23.311 8.6106 22.011C8.6106 20.685 9.81961 19.775 11.3406 19.775C11.9516 19.775 12.6016 19.905 13.2126 20.126V19.957C13.2126 19.177 12.7966 18.423 11.5746 18.423C10.9376 18.423 10.3266 18.644 9.75461 18.93L9.20861 17.825C10.1576 17.357 11.0416 17.123 11.8866 17.123ZM11.4576 22.999C12.2246 22.999 13.0436 22.609 13.2126 21.894V21.127C12.7186 20.971 12.1596 20.88 11.5746 20.88C10.7816 20.88 10.1316 21.322 10.1316 21.959C10.1316 22.596 10.7036 22.999 11.4576 22.999ZM20.462 17.123C22.243 17.123 23.556 18.579 23.556 20.633C23.556 22.7 22.243 24.156 20.462 24.156C19.435 24.156 18.603 23.675 18.083 22.856V24H16.497V14.913H18.083V18.41C18.603 17.604 19.435 17.123 20.462 17.123ZM20.033 22.804C21.177 22.804 21.983 21.894 21.983 20.633C21.983 19.372 21.177 18.475 20.033 18.475C18.928 18.475 18.135 19.372 18.135 20.633C18.135 21.894 18.928 22.804 20.033 22.804ZM27.9563 22.882C28.6323 22.882 29.3993 22.596 29.8283 22.18L30.7383 23.116C30.1533 23.74 28.9833 24.156 28.0083 24.156C26.0713 24.156 24.4723 22.687 24.4723 20.62C24.4723 18.592 25.9933 17.123 27.9173 17.123C29.9973 17.123 31.2193 18.657 31.2193 21.101H26.0063C26.1753 22.154 26.9163 22.882 27.9563 22.882ZM27.9303 18.397C26.9683 18.397 26.2273 19.047 26.0193 20.048H29.6853C29.5423 19.099 28.9443 18.397 27.9303 18.397ZM32.5343 24V14.913H34.1203V24H32.5343Z" fill="#4F6169"/>
<path d="M67.917 24V15.069H68.931V24H67.917ZM74.5627 17.123C76.0577 17.123 77.0847 18.176 77.0847 19.723V24H76.1097V19.853C76.1097 18.748 75.4207 17.994 74.4327 17.994C73.2887 17.994 72.3527 18.774 72.3527 19.723V24H71.3777V17.279H72.3527V18.345C72.7427 17.63 73.6007 17.123 74.5627 17.123ZM82.5043 17.123C84.2723 17.123 85.5983 18.579 85.5983 20.633C85.5983 22.7 84.2723 24.156 82.5043 24.156C81.4253 24.156 80.5673 23.623 80.0603 22.739V26.236H79.0853V17.279H80.0603V18.54C80.5673 17.656 81.4253 17.123 82.5043 17.123ZM82.3223 23.285C83.6353 23.285 84.5713 22.18 84.5713 20.633C84.5713 19.086 83.6353 17.994 82.3223 17.994C80.9963 17.994 80.0603 19.086 80.0603 20.633C80.0603 22.18 80.9963 23.285 82.3223 23.285ZM91.8133 17.279H92.7883V24H91.8133V22.934C91.4233 23.649 90.5653 24.156 89.6033 24.156C88.1083 24.156 87.0813 23.103 87.0813 21.556V17.279H88.0563V21.426C88.0563 22.531 88.7453 23.285 89.7333 23.285C90.8773 23.285 91.8133 22.505 91.8133 21.556V17.279ZM97.5449 23.012L98.0259 23.727C97.6749 24 97.2329 24.156 96.7779 24.156C95.8159 24.156 95.1399 23.441 95.1399 22.44V18.15H94.0869V17.279H95.1399V15.433H96.1149V17.279H97.7659V18.15H96.1149V22.44C96.1149 22.934 96.4529 23.285 96.8429 23.285C97.1419 23.285 97.4019 23.168 97.5449 23.012ZM104.665 24L101.805 17.279H102.897L105.133 22.856L107.33 17.279H108.422L105.601 24H104.665ZM111.992 17.123C113.825 17.123 114.722 18.28 114.722 19.905V24H113.747V22.947C113.266 23.74 112.265 24.156 111.381 24.156C109.964 24.156 108.924 23.337 108.924 22.011C108.924 20.672 110.12 19.775 111.563 19.775C112.291 19.775 113.058 19.931 113.747 20.152V19.905C113.747 18.995 113.383 17.955 111.927 17.955C111.251 17.955 110.575 18.254 109.964 18.566L109.574 17.773C110.536 17.292 111.342 17.123 111.992 17.123ZM111.55 23.298C112.434 23.298 113.487 22.843 113.747 21.894V20.867C113.136 20.698 112.447 20.594 111.719 20.594C110.718 20.594 109.873 21.166 109.873 21.972C109.873 22.804 110.601 23.298 111.55 23.298ZM116.724 24V14.913H117.699V24H116.724ZM124.437 17.279H125.412V24H124.437V22.934C124.047 23.649 123.189 24.156 122.227 24.156C120.732 24.156 119.705 23.103 119.705 21.556V17.279H120.68V21.426C120.68 22.531 121.369 23.285 122.357 23.285C123.501 23.285 124.437 22.505 124.437 21.556V17.279ZM130.403 23.285C131.196 23.285 132.106 22.934 132.522 22.479L133.119 23.116C132.535 23.753 131.352 24.156 130.416 24.156C128.622 24.156 127.01 22.687 127.01 20.62C127.01 18.618 128.518 17.123 130.325 17.123C132.353 17.123 133.51 18.657 133.51 21.01H128.011C128.153 22.323 129.077 23.285 130.403 23.285ZM130.364 17.994C129.168 17.994 128.206 18.839 128.024 20.139H132.548C132.418 18.93 131.703 17.994 130.364 17.994Z" fill="#22343C"/>
<path d="M242.5 31H58.5V33H242.5V31Z" fill="#41800E"/>
<path fill-rule="evenodd" clip-rule="evenodd" d="M67 37C62.582 37 59 40.5817 59 45C59 49.4183 62.582 53 67 53C71.418 53 75 49.4183 75 45C75 42.8783 74.157 40.8434 72.657 39.3431C71.157 37.8429 69.122 37 67 37ZM67 51.6667C63.318 51.6667 60.333 48.6819 60.333 45C60.333 41.3181 63.318 38.3333 67 38.3333C70.682 38.3333 73.667 41.3181 73.667 45C73.667 46.7681 72.964 48.4638 71.714 49.714C70.464 50.9643 68.768 51.6667 67 51.6667ZM62.56 45.4933L65.893 48.8267L71.353 43.3667C71.58 43.1022 71.565 42.7079 71.318 42.4616C71.072 42.2154 70.678 42.2001 70.413 42.4267L65.893 46.9467L63.5 44.5533C63.235 44.3268 62.841 44.342 62.595 44.5883C62.349 44.8345 62.333 45.2288 62.56 45.4933Z" fill="#41800E"/>
<path d="M81.981 47.81C80.738 47.81 79.759 47.359 79 46.611L79.539 45.94C80.177 46.578 80.958 47.029 82.014 47.029C83.18 47.029 83.774 46.391 83.774 45.709C83.774 44.906 83.059 44.587 81.739 44.279C80.221 43.927 79.264 43.454 79.264 42.145C79.264 40.935 80.342 40 81.794 40C82.916 40 83.752 40.44 84.445 41.078L83.917 41.749C83.29 41.144 82.542 40.781 81.75 40.781C80.815 40.781 80.133 41.386 80.133 42.079C80.133 42.86 80.881 43.135 82.168 43.443C83.609 43.784 84.643 44.301 84.643 45.632C84.643 46.831 83.741 47.81 81.981 47.81ZM90.2584 42.002H91.0834V47.689H90.2584V46.787C89.9284 47.392 89.2024 47.821 88.3884 47.821C87.1234 47.821 86.2544 46.93 86.2544 45.621V42.002H87.0794V45.511C87.0794 46.446 87.6624 47.084 88.4984 47.084C89.4664 47.084 90.2584 46.424 90.2584 45.621V42.002ZM95.6348 47.821C94.0398 47.821 92.6868 46.457 92.6868 44.84C92.6868 43.223 94.0398 41.87 95.6348 41.87C96.4048 41.87 97.1198 42.189 97.6588 42.706L97.0868 43.267C96.7128 42.86 96.1958 42.607 95.6348 42.607C94.5018 42.607 93.5558 43.63 93.5558 44.84C93.5558 46.061 94.5018 47.084 95.6348 47.084C96.2068 47.084 96.7348 46.82 97.1198 46.391L97.6918 46.952C97.1528 47.491 96.4268 47.821 95.6348 47.821ZM101.539 47.821C99.9439 47.821 98.5909 46.457 98.5909 44.84C98.5909 43.223 99.9439 41.87 101.539 41.87C102.309 41.87 103.024 42.189 103.563 42.706L102.991 43.267C102.617 42.86 102.1 42.607 101.539 42.607C100.406 42.607 99.4599 43.63 99.4599 44.84C99.4599 46.061 100.406 47.084 101.539 47.084C102.111 47.084 102.639 46.82 103.024 46.391L103.596 46.952C103.057 47.491 102.331 47.821 101.539 47.821ZM107.399 47.084C108.07 47.084 108.84 46.787 109.192 46.402L109.698 46.941C109.203 47.48 108.202 47.821 107.41 47.821C105.892 47.821 104.528 46.578 104.528 44.829C104.528 43.135 105.804 41.87 107.333 41.87C109.049 41.87 110.028 43.168 110.028 45.159H105.375C105.496 46.27 106.277 47.084 107.399 47.084ZM107.366 42.607C106.354 42.607 105.54 43.322 105.386 44.422H109.214C109.104 43.399 108.499 42.607 107.366 42.607ZM113.374 47.821C112.582 47.821 111.702 47.524 111.02 46.974L111.449 46.369C112.098 46.842 112.747 47.084 113.374 47.084C114.122 47.084 114.628 46.732 114.628 46.193C114.628 45.577 113.968 45.379 113.198 45.159C111.823 44.763 111.295 44.356 111.295 43.542C111.295 42.508 112.153 41.87 113.286 41.87C113.99 41.87 114.716 42.112 115.321 42.508L114.925 43.146C114.353 42.783 113.792 42.607 113.286 42.607C112.648 42.607 112.12 42.893 112.12 43.443C112.12 43.938 112.538 44.092 113.594 44.433C114.507 44.719 115.453 45.027 115.453 46.105C115.453 47.15 114.551 47.821 113.374 47.821ZM118.827 47.821C118.035 47.821 117.155 47.524 116.473 46.974L116.902 46.369C117.551 46.842 118.2 47.084 118.827 47.084C119.575 47.084 120.081 46.732 120.081 46.193C120.081 45.577 119.421 45.379 118.651 45.159C117.276 44.763 116.748 44.356 116.748 43.542C116.748 42.508 117.606 41.87 118.739 41.87C119.443 41.87 120.169 42.112 120.774 42.508L120.378 43.146C119.806 42.783 119.245 42.607 118.739 42.607C118.101 42.607 117.573 42.893 117.573 43.443C117.573 43.938 117.991 44.092 119.047 44.433C119.96 44.719 120.906 45.027 120.906 46.105C120.906 47.15 120.004 47.821 118.827 47.821ZM125.991 47.689V40.132H126.849L129.654 45.401L132.459 40.132H133.317V47.689H132.459V41.98L129.654 47.249L126.849 41.98V47.689H125.991ZM138.069 47.084C138.74 47.084 139.51 46.787 139.862 46.402L140.368 46.941C139.873 47.48 138.872 47.821 138.08 47.821C136.562 47.821 135.198 46.578 135.198 44.829C135.198 43.135 136.474 41.87 138.003 41.87C139.719 41.87 140.698 43.168 140.698 45.159H136.045C136.166 46.27 136.947 47.084 138.069 47.084ZM138.036 42.607C137.024 42.607 136.21 43.322 136.056 44.422H139.884C139.774 43.399 139.169 42.607 138.036 42.607ZM144.044 47.821C143.252 47.821 142.372 47.524 141.69 46.974L142.119 46.369C142.768 46.842 143.417 47.084 144.044 47.084C144.792 47.084 145.298 46.732 145.298 46.193C145.298 45.577 144.638 45.379 143.868 45.159C142.493 44.763 141.965 44.356 141.965 43.542C141.965 42.508 142.823 41.87 143.956 41.87C144.66 41.87 145.386 42.112 145.991 42.508L145.595 43.146C145.023 42.783 144.462 42.607 143.956 42.607C143.318 42.607 142.79 42.893 142.79 43.443C142.79 43.938 143.208 44.092 144.264 44.433C145.177 44.719 146.123 45.027 146.123 46.105C146.123 47.15 145.221 47.821 144.044 47.821ZM149.497 47.821C148.705 47.821 147.825 47.524 147.143 46.974L147.572 46.369C148.221 46.842 148.87 47.084 149.497 47.084C150.245 47.084 150.751 46.732 150.751 46.193C150.751 45.577 150.091 45.379 149.321 45.159C147.946 44.763 147.418 44.356 147.418 43.542C147.418 42.508 148.276 41.87 149.409 41.87C150.113 41.87 150.839 42.112 151.444 42.508L151.048 43.146C150.476 42.783 149.915 42.607 149.409 42.607C148.771 42.607 148.243 42.893 148.243 43.443C148.243 43.938 148.661 44.092 149.717 44.433C150.63 44.719 151.576 45.027 151.576 46.105C151.576 47.15 150.674 47.821 149.497 47.821ZM155.225 41.87C156.776 41.87 157.535 42.849 157.535 44.224V47.689H156.71V46.798C156.303 47.469 155.456 47.821 154.708 47.821C153.509 47.821 152.629 47.128 152.629 46.006C152.629 44.873 153.641 44.114 154.862 44.114C155.478 44.114 156.127 44.246 156.71 44.433V44.224C156.71 43.454 156.402 42.574 155.17 42.574C154.598 42.574 154.026 42.827 153.509 43.091L153.179 42.42C153.993 42.013 154.675 41.87 155.225 41.87ZM154.851 47.095C155.599 47.095 156.49 46.71 156.71 45.907V45.038C156.193 44.895 155.61 44.807 154.994 44.807C154.147 44.807 153.432 45.291 153.432 45.973C153.432 46.677 154.048 47.095 154.851 47.095ZM163.704 42.002H164.529V47.084C164.529 48.547 163.374 49.581 161.735 49.581C160.811 49.581 159.953 49.262 159.436 48.822L159.799 48.173C160.239 48.591 160.921 48.844 161.625 48.844C162.934 48.844 163.704 48.195 163.704 47.084V46.16C163.264 46.853 162.538 47.271 161.636 47.271C160.107 47.271 159.018 46.149 159.018 44.565C159.018 42.981 160.107 41.87 161.636 41.87C162.538 41.87 163.264 42.288 163.704 42.981V42.002ZM161.79 46.534C162.912 46.534 163.704 45.72 163.704 44.565C163.704 43.421 162.912 42.607 161.79 42.607C160.679 42.607 159.887 43.421 159.887 44.565C159.887 45.72 160.679 46.534 161.79 46.534ZM169.04 47.084C169.711 47.084 170.481 46.787 170.833 46.402L171.339 46.941C170.844 47.48 169.843 47.821 169.051 47.821C167.533 47.821 166.169 46.578 166.169 44.829C166.169 43.135 167.445 41.87 168.974 41.87C170.69 41.87 171.669 43.168 171.669 45.159H167.016C167.137 46.27 167.918 47.084 169.04 47.084ZM169.007 42.607C167.995 42.607 167.181 43.322 167.027 44.422H170.855C170.745 43.399 170.14 42.607 169.007 42.607Z" fill="#41800E"/>
</svg>
