<svg width="452" height="144" viewBox="0 0 452 144" fill="none" xmlns="http://www.w3.org/2000/svg">
<path d="M4 0.5H448C449.933 0.5 451.5 2.067 451.5 4V143.5H0.5V4C0.5 2.067 2.067 0.5 4 0.5Z" fill="#FCFDFD"/>
<path d="M98.347 43.518H102.936V45H96.735V36.069H98.347V43.518ZM106.887 38.123C108.668 38.123 109.76 39.254 109.76 40.957V45H108.213V44.207C107.719 44.818 106.887 45.156 106.107 45.156C104.677 45.156 103.611 44.311 103.611 43.011C103.611 41.685 104.82 40.775 106.341 40.775C106.952 40.775 107.602 40.905 108.213 41.126V40.957C108.213 40.177 107.797 39.423 106.575 39.423C105.938 39.423 105.327 39.644 104.755 39.93L104.209 38.825C105.158 38.357 106.042 38.123 106.887 38.123ZM106.458 43.999C107.225 43.999 108.044 43.609 108.213 42.894V42.127C107.719 41.971 107.16 41.88 106.575 41.88C105.782 41.88 105.132 42.322 105.132 42.959C105.132 43.596 105.704 43.999 106.458 43.999ZM115.462 38.123C117.243 38.123 118.556 39.579 118.556 41.633C118.556 43.7 117.243 45.156 115.462 45.156C114.435 45.156 113.603 44.675 113.083 43.856V45H111.497V35.913H113.083V39.41C113.603 38.604 114.435 38.123 115.462 38.123ZM115.033 43.804C116.177 43.804 116.983 42.894 116.983 41.633C116.983 40.372 116.177 39.475 115.033 39.475C113.928 39.475 113.135 40.372 113.135 41.633C113.135 42.894 113.928 43.804 115.033 43.804ZM122.956 43.882C123.632 43.882 124.399 43.596 124.828 43.18L125.738 44.116C125.153 44.74 123.983 45.156 123.008 45.156C121.071 45.156 119.472 43.687 119.472 41.62C119.472 39.592 120.993 38.123 122.917 38.123C124.997 38.123 126.219 39.657 126.219 42.101H121.006C121.175 43.154 121.916 43.882 122.956 43.882ZM122.93 39.397C121.968 39.397 121.227 40.047 121.019 41.048H124.685C124.542 40.099 123.944 39.397 122.93 39.397ZM127.534 45V35.913H129.12V45H127.534Z" fill="#4F6169"/>
<path d="M104.917 85V76.069H105.931V85H104.917ZM111.563 78.123C113.058 78.123 114.085 79.176 114.085 80.723V85H113.11V80.853C113.11 79.748 112.421 78.994 111.433 78.994C110.289 78.994 109.353 79.774 109.353 80.723V85H108.378V78.279H109.353V79.345C109.743 78.63 110.601 78.123 111.563 78.123ZM119.504 78.123C121.272 78.123 122.598 79.579 122.598 81.633C122.598 83.7 121.272 85.156 119.504 85.156C118.425 85.156 117.567 84.623 117.06 83.739V87.236H116.085V78.279H117.06V79.54C117.567 78.656 118.425 78.123 119.504 78.123ZM119.322 84.285C120.635 84.285 121.571 83.18 121.571 81.633C121.571 80.086 120.635 78.994 119.322 78.994C117.996 78.994 117.06 80.086 117.06 81.633C117.06 83.18 117.996 84.285 119.322 84.285ZM128.813 78.279H129.788V85H128.813V83.934C128.423 84.649 127.565 85.156 126.603 85.156C125.108 85.156 124.081 84.103 124.081 82.556V78.279H125.056V82.426C125.056 83.531 125.745 84.285 126.733 84.285C127.877 84.285 128.813 83.505 128.813 82.556V78.279ZM134.545 84.012L135.026 84.727C134.675 85 134.233 85.156 133.778 85.156C132.816 85.156 132.14 84.441 132.14 83.44V79.15H131.087V78.279H132.14V76.433H133.115V78.279H134.766V79.15H133.115V83.44C133.115 83.934 133.453 84.285 133.843 84.285C134.142 84.285 134.402 84.168 134.545 84.012ZM141.665 85L138.805 78.279H139.897L142.133 83.856L144.33 78.279H145.422L142.601 85H141.665ZM148.992 78.123C150.825 78.123 151.722 79.28 151.722 80.905V85H150.747V83.947C150.266 84.74 149.265 85.156 148.381 85.156C146.964 85.156 145.924 84.337 145.924 83.011C145.924 81.672 147.12 80.775 148.563 80.775C149.291 80.775 150.058 80.931 150.747 81.152V80.905C150.747 79.995 150.383 78.955 148.927 78.955C148.251 78.955 147.575 79.254 146.964 79.566L146.574 78.773C147.536 78.292 148.342 78.123 148.992 78.123ZM148.55 84.298C149.434 84.298 150.487 83.843 150.747 82.894V81.867C150.136 81.698 149.447 81.594 148.719 81.594C147.718 81.594 146.873 82.166 146.873 82.972C146.873 83.804 147.601 84.298 148.55 84.298ZM153.724 85V75.913H154.699V85H153.724ZM161.437 78.279H162.412V85H161.437V83.934C161.047 84.649 160.189 85.156 159.227 85.156C157.732 85.156 156.705 84.103 156.705 82.556V78.279H157.68V82.426C157.68 83.531 158.369 84.285 159.357 84.285C160.501 84.285 161.437 83.505 161.437 82.556V78.279ZM167.403 84.285C168.196 84.285 169.106 83.934 169.522 83.479L170.119 84.116C169.535 84.753 168.352 85.156 167.416 85.156C165.622 85.156 164.01 83.687 164.01 81.62C164.01 79.618 165.518 78.123 167.325 78.123C169.353 78.123 170.51 79.657 170.51 82.01H165.011C165.153 83.323 166.077 84.285 167.403 84.285ZM167.364 78.994C166.168 78.994 165.206 79.839 165.024 81.139H169.548C169.418 79.93 168.703 78.994 167.364 78.994Z" fill="#22343C"/>
<path d="M332.5 92H95.5V94H332.5V92Z" fill="#E02200" mask="url(#path-3-inside-1_8990_6986)"/>
<path fill-rule="evenodd" clip-rule="evenodd" d="M336.5 81C336.5 76.5817 340.082 73 344.5 73C346.622 73 348.657 73.8429 350.157 75.3431C351.657 76.8434 352.5 78.8783 352.5 81C352.5 85.4183 348.918 89 344.5 89C340.082 89 336.5 85.4183 336.5 81ZM343.633 81.5133C343.633 81.992 344.021 82.38 344.5 82.38C344.979 82.38 345.367 81.992 345.367 81.5133V77.5133C345.367 77.0347 344.979 76.6467 344.5 76.6467C344.021 76.6467 343.633 77.0347 343.633 77.5133V81.5133ZM344.5 87.6667C340.818 87.6667 337.833 84.6819 337.833 81C337.833 77.3181 340.818 74.3333 344.5 74.3333C348.182 74.3333 351.167 77.3181 351.167 81C351.167 82.7681 350.464 84.4638 349.214 85.714C347.964 86.9643 346.268 87.6667 344.5 87.6667ZM345.467 84.3467C345.467 84.899 345.019 85.3467 344.467 85.3467C343.914 85.3467 343.467 84.899 343.467 84.3467C343.467 83.7944 343.914 83.3467 344.467 83.3467C345.019 83.3467 345.467 83.7944 345.467 84.3467Z" fill="#E02200"/>
<path d="M102.122 101.257H97.568V103.743H101.671V104.557H97.568V107.186H102.122V108H96.699V100.443H102.122V101.257ZM104.722 103.424C105.063 102.665 105.877 102.181 106.922 102.181V102.918C105.635 102.918 104.722 103.71 104.722 104.821V108H103.897V102.313H104.722V103.424ZM109.284 103.424C109.625 102.665 110.439 102.181 111.484 102.181V102.918C110.197 102.918 109.284 103.71 109.284 104.821V108H108.459V102.313H109.284V103.424ZM115.462 108.132C113.845 108.132 112.525 106.79 112.525 105.151C112.525 103.512 113.845 102.181 115.462 102.181C117.068 102.181 118.388 103.512 118.388 105.151C118.388 106.79 117.068 108.132 115.462 108.132ZM115.462 107.395C116.595 107.395 117.53 106.383 117.53 105.151C117.53 103.919 116.595 102.918 115.462 102.918C114.318 102.918 113.383 103.919 113.383 105.151C113.383 106.383 114.318 107.395 115.462 107.395ZM120.834 103.424C121.175 102.665 121.989 102.181 123.034 102.181V102.918C121.747 102.918 120.834 103.71 120.834 104.821V108H120.009V102.313H120.834V103.424ZM128.042 108V100.443H128.9L131.705 105.712L134.51 100.443H135.368V108H134.51V102.291L131.705 107.56L128.9 102.291V108H128.042ZM140.119 107.395C140.79 107.395 141.56 107.098 141.912 106.713L142.418 107.252C141.923 107.791 140.922 108.132 140.13 108.132C138.612 108.132 137.248 106.889 137.248 105.14C137.248 103.446 138.524 102.181 140.053 102.181C141.769 102.181 142.748 103.479 142.748 105.47H138.095C138.216 106.581 138.997 107.395 140.119 107.395ZM140.086 102.918C139.074 102.918 138.26 103.633 138.106 104.733H141.934C141.824 103.71 141.219 102.918 140.086 102.918ZM146.094 108.132C145.302 108.132 144.422 107.835 143.74 107.285L144.169 106.68C144.818 107.153 145.467 107.395 146.094 107.395C146.842 107.395 147.348 107.043 147.348 106.504C147.348 105.888 146.688 105.69 145.918 105.47C144.543 105.074 144.015 104.667 144.015 103.853C144.015 102.819 144.873 102.181 146.006 102.181C146.71 102.181 147.436 102.423 148.041 102.819L147.645 103.457C147.073 103.094 146.512 102.918 146.006 102.918C145.368 102.918 144.84 103.204 144.84 103.754C144.84 104.249 145.258 104.403 146.314 104.744C147.227 105.03 148.173 105.338 148.173 106.416C148.173 107.461 147.271 108.132 146.094 108.132ZM151.547 108.132C150.755 108.132 149.875 107.835 149.193 107.285L149.622 106.68C150.271 107.153 150.92 107.395 151.547 107.395C152.295 107.395 152.801 107.043 152.801 106.504C152.801 105.888 152.141 105.69 151.371 105.47C149.996 105.074 149.468 104.667 149.468 103.853C149.468 102.819 150.326 102.181 151.459 102.181C152.163 102.181 152.889 102.423 153.494 102.819L153.098 103.457C152.526 103.094 151.965 102.918 151.459 102.918C150.821 102.918 150.293 103.204 150.293 103.754C150.293 104.249 150.711 104.403 151.767 104.744C152.68 105.03 153.626 105.338 153.626 106.416C153.626 107.461 152.724 108.132 151.547 108.132ZM157.275 102.181C158.826 102.181 159.585 103.16 159.585 104.535V108H158.76V107.109C158.353 107.78 157.506 108.132 156.758 108.132C155.559 108.132 154.679 107.439 154.679 106.317C154.679 105.184 155.691 104.425 156.912 104.425C157.528 104.425 158.177 104.557 158.76 104.744V104.535C158.76 103.765 158.452 102.885 157.22 102.885C156.648 102.885 156.076 103.138 155.559 103.402L155.229 102.731C156.043 102.324 156.725 102.181 157.275 102.181ZM156.901 107.406C157.649 107.406 158.54 107.021 158.76 106.218V105.349C158.243 105.206 157.66 105.118 157.044 105.118C156.197 105.118 155.482 105.602 155.482 106.284C155.482 106.988 156.098 107.406 156.901 107.406ZM165.754 102.313H166.579V107.395C166.579 108.858 165.424 109.892 163.785 109.892C162.861 109.892 162.003 109.573 161.486 109.133L161.849 108.484C162.289 108.902 162.971 109.155 163.675 109.155C164.984 109.155 165.754 108.506 165.754 107.395V106.471C165.314 107.164 164.588 107.582 163.686 107.582C162.157 107.582 161.068 106.46 161.068 104.876C161.068 103.292 162.157 102.181 163.686 102.181C164.588 102.181 165.314 102.599 165.754 103.292V102.313ZM163.84 106.845C164.962 106.845 165.754 106.031 165.754 104.876C165.754 103.732 164.962 102.918 163.84 102.918C162.729 102.918 161.937 103.732 161.937 104.876C161.937 106.031 162.729 106.845 163.84 106.845ZM171.09 107.395C171.761 107.395 172.531 107.098 172.883 106.713L173.389 107.252C172.894 107.791 171.893 108.132 171.101 108.132C169.583 108.132 168.219 106.889 168.219 105.14C168.219 103.446 169.495 102.181 171.024 102.181C172.74 102.181 173.719 103.479 173.719 105.47H169.066C169.187 106.581 169.968 107.395 171.09 107.395ZM171.057 102.918C170.045 102.918 169.231 103.633 169.077 104.733H172.905C172.795 103.71 172.19 102.918 171.057 102.918Z" fill="#E02200"/>
<path d="M4 0.5H448C449.933 0.5 451.5 2.067 451.5 4V143.5H0.5V4C0.5 2.067 2.067 0.5 4 0.5Z" stroke="#ACB8BE"/>
</svg>
