<svg width="453" height="358" viewBox="0 0 453 358" fill="none" xmlns="http://www.w3.org/2000/svg">
  <rect x="1.35596" y="0.5" width="451" height="357" rx="3.5" fill="#FCFDFD"/>
  <rect x="1.35596" y="0.5" width="451" height="357" rx="3.5" stroke="#ACB8BE"/>
  <path opacity="0.7" d="M131.211 111H60.2114C59.1069 111 58.2114 111.895 58.2114 113C58.2114 114.105 59.1069 115 60.2114 115H131.211C132.316 115 133.211 114.105 133.211 113C133.211 111.895 132.316 111 131.211 111Z" fill="#4F6169"/>
  <path d="M140.162 112.015C139.889 112.015 139.668 111.807 139.668 111.56C139.668 111.092 139.876 110.533 139.941 110.065C139.564 110.351 139.2 110.819 138.797 111.053C138.589 111.17 138.29 111.079 138.16 110.845C138.017 110.598 138.095 110.312 138.303 110.195C138.693 109.961 139.291 109.87 139.72 109.688C139.278 109.506 138.693 109.415 138.303 109.181C138.095 109.064 138.017 108.765 138.16 108.531C138.29 108.284 138.589 108.193 138.797 108.323C139.2 108.557 139.564 109.025 139.941 109.311C139.876 108.843 139.668 108.284 139.668 107.816C139.668 107.569 139.889 107.361 140.162 107.361C140.435 107.361 140.656 107.569 140.656 107.816C140.656 108.284 140.435 108.843 140.37 109.311C140.747 109.025 141.124 108.557 141.527 108.323C141.735 108.206 142.021 108.297 142.164 108.531C142.307 108.778 142.229 109.064 142.021 109.181C141.618 109.415 141.02 109.506 140.591 109.688C141.033 109.87 141.618 109.961 142.021 110.195C142.229 110.312 142.307 110.611 142.164 110.845C142.021 111.092 141.735 111.183 141.527 111.053C141.124 110.819 140.747 110.351 140.383 110.065C140.448 110.533 140.669 111.092 140.669 111.56C140.669 111.807 140.448 112.015 140.162 112.015Z" fill="#E02200"/>
  <path d="M363.961 124.75H178.461V125.25H363.961V124.75Z" stroke="#67777E"/>
  <path opacity="0.4" d="M251.211 109.5H180.211C179.107 109.5 178.211 110.395 178.211 111.5C178.211 112.605 179.107 113.5 180.211 113.5H251.211C252.316 113.5 253.211 112.605 253.211 111.5C253.211 110.395 252.316 109.5 251.211 109.5Z" fill="#4F6169"/>
  <path opacity="0.7" d="M131.211 148H60.2114C59.1069 148 58.2114 148.895 58.2114 150C58.2114 151.105 59.1069 152 60.2114 152H131.211C132.316 152 133.211 151.105 133.211 150C133.211 148.895 132.316 148 131.211 148Z" fill="#4F6169"/>
  <path d="M363.961 161.75H178.461V162.25H363.961V161.75Z" stroke="#67777E"/>
  <path opacity="0.4" d="M251.211 146.5H180.211C179.107 146.5 178.211 147.395 178.211 148.5C178.211 149.605 179.107 150.5 180.211 150.5H251.211C252.316 150.5 253.211 149.605 253.211 148.5C253.211 147.395 252.316 146.5 251.211 146.5Z" fill="#4F6169"/>
  <path opacity="0.7" d="M121.211 185H60.2114C59.1069 185 58.2114 185.895 58.2114 187C58.2114 188.105 59.1069 189 60.2114 189H121.211C122.316 189 123.211 188.105 123.211 187C123.211 185.895 122.316 185 121.211 185Z" fill="#4F6169"/>
  <path d="M130.162 186.015C129.889 186.015 129.668 185.807 129.668 185.56C129.668 185.092 129.876 184.533 129.941 184.065C129.564 184.351 129.2 184.819 128.797 185.053C128.589 185.17 128.29 185.079 128.16 184.845C128.017 184.598 128.095 184.312 128.303 184.195C128.693 183.961 129.291 183.87 129.72 183.688C129.278 183.506 128.693 183.415 128.303 183.181C128.095 183.064 128.017 182.765 128.16 182.531C128.29 182.284 128.589 182.193 128.797 182.323C129.2 182.557 129.564 183.025 129.941 183.311C129.876 182.843 129.668 182.284 129.668 181.816C129.668 181.569 129.889 181.361 130.162 181.361C130.435 181.361 130.656 181.569 130.656 181.816C130.656 182.284 130.435 182.843 130.37 183.311C130.747 183.025 131.124 182.557 131.527 182.323C131.735 182.206 132.021 182.297 132.164 182.531C132.307 182.778 132.229 183.064 132.021 183.181C131.618 183.415 131.02 183.506 130.591 183.688C131.033 183.87 131.618 183.961 132.021 184.195C132.229 184.312 132.307 184.611 132.164 184.845C132.021 185.092 131.735 185.183 131.527 185.053C131.124 184.819 130.747 184.351 130.383 184.065C130.448 184.533 130.669 185.092 130.669 185.56C130.669 185.807 130.448 186.015 130.162 186.015Z" fill="#E02200"/>
  <path d="M363.961 198.75H178.461V199.25H363.961V198.75Z" stroke="#67777E"/>
  <path opacity="0.4" d="M251.211 183.5H180.211C179.107 183.5 178.211 184.395 178.211 185.5C178.211 186.605 179.107 187.5 180.211 187.5H251.211C252.316 187.5 253.211 186.605 253.211 185.5C253.211 184.395 252.316 183.5 251.211 183.5Z" fill="#4F6169"/>
  <path opacity="0.7" d="M118.211 222H60.2114C59.1069 222 58.2114 222.895 58.2114 224C58.2114 225.105 59.1069 226 60.2114 226H118.211C119.316 226 120.211 225.105 120.211 224C120.211 222.895 119.316 222 118.211 222Z" fill="#4F6169"/>
  <path d="M127.162 223.015C126.889 223.015 126.668 222.807 126.668 222.56C126.668 222.092 126.876 221.533 126.941 221.065C126.564 221.351 126.2 221.819 125.797 222.053C125.589 222.17 125.29 222.079 125.16 221.845C125.017 221.598 125.095 221.312 125.303 221.195C125.693 220.961 126.291 220.87 126.72 220.688C126.278 220.506 125.693 220.415 125.303 220.181C125.095 220.064 125.017 219.765 125.16 219.531C125.29 219.284 125.589 219.193 125.797 219.323C126.2 219.557 126.564 220.025 126.941 220.311C126.876 219.843 126.668 219.284 126.668 218.816C126.668 218.569 126.889 218.361 127.162 218.361C127.435 218.361 127.656 218.569 127.656 218.816C127.656 219.284 127.435 219.843 127.37 220.311C127.747 220.025 128.124 219.557 128.527 219.323C128.735 219.206 129.021 219.297 129.164 219.531C129.307 219.778 129.229 220.064 129.021 220.181C128.618 220.415 128.02 220.506 127.591 220.688C128.033 220.87 128.618 220.961 129.021 221.195C129.229 221.312 129.307 221.611 129.164 221.845C129.021 222.092 128.735 222.183 128.527 222.053C128.124 221.819 127.747 221.351 127.383 221.065C127.448 221.533 127.669 222.092 127.669 222.56C127.669 222.807 127.448 223.015 127.162 223.015Z" fill="#E02200"/>
  <path d="M363.961 235.75H178.461V236.25H363.961V235.75Z" stroke="#67777E"/>
  <path opacity="0.4" d="M293.211 220.5H180.211C179.107 220.5 178.211 221.395 178.211 222.5C178.211 223.605 179.107 224.5 180.211 224.5H293.211C294.316 224.5 295.211 223.605 295.211 222.5C295.211 221.395 294.316 220.5 293.211 220.5Z" fill="#4F6169"/>
  <path opacity="0.7" d="M138.211 259H60.2114C59.1069 259 58.2114 259.895 58.2114 261C58.2114 262.105 59.1069 263 60.2114 263H138.211C139.316 263 140.211 262.105 140.211 261C140.211 259.895 139.316 259 138.211 259Z" fill="#4F6169"/>
  <path d="M363.961 272.75H178.461V273.25H363.961V272.75Z" stroke="#67777E"/>
  <path opacity="0.4" d="M251.211 257.5H180.211C179.107 257.5 178.211 258.395 178.211 259.5C178.211 260.605 179.107 261.5 180.211 261.5H251.211C252.316 261.5 253.211 260.605 253.211 259.5C253.211 258.395 252.316 257.5 251.211 257.5Z" fill="#4F6169"/>
  <path d="M65.306 64.972H60.327L59.43 67H58.325L62.264 58.069H63.369L67.308 67H66.203L65.306 64.972ZM64.89 64.01L62.823 59.317L60.743 64.01H64.89ZM68.6667 57.913H69.6417V67H68.6667V57.913ZM71.804 57.913H72.779V67H71.804V57.913ZM79.6304 60.279H81.2814V61.15H79.6304V67H78.6554V61.15H77.6024V60.279H78.6554V59.356C78.6554 58.8533 78.8071 58.4417 79.1104 58.121C79.4224 57.8003 79.8168 57.64 80.2934 57.64C80.7614 57.64 81.1774 57.783 81.5414 58.069L81.0604 58.784C80.9824 58.706 80.8828 58.641 80.7614 58.589C80.6401 58.537 80.5058 58.511 80.3584 58.511C80.1591 58.511 79.9858 58.5933 79.8384 58.758C79.6998 58.914 79.6304 59.1133 79.6304 59.356V60.279ZM82.4474 60.279H83.4224V67H82.4474V60.279ZM82.9414 59.057C82.7594 59.057 82.6034 58.992 82.4734 58.862C82.3521 58.732 82.2914 58.5803 82.2914 58.407C82.2914 58.2337 82.3521 58.0863 82.4734 57.965C82.6034 57.835 82.7594 57.77 82.9414 57.77C83.1147 57.77 83.2621 57.835 83.3834 57.965C83.5134 58.0863 83.5784 58.2337 83.5784 58.407C83.5784 58.5803 83.5134 58.732 83.3834 58.862C83.2621 58.992 83.1147 59.057 82.9414 59.057ZM88.4187 66.285C88.8174 66.285 89.216 66.207 89.6147 66.051C90.022 65.895 90.3297 65.7043 90.5377 65.479L91.1357 66.116C90.8497 66.428 90.4467 66.6793 89.9267 66.87C89.4154 67.0607 88.917 67.156 88.4317 67.156C87.8337 67.156 87.2747 67.0043 86.7547 66.701C86.2347 66.3977 85.8144 65.9773 85.4937 65.44C85.1817 64.894 85.0257 64.2873 85.0257 63.62C85.0257 62.97 85.173 62.3763 85.4677 61.839C85.771 61.3017 86.174 60.8813 86.6767 60.578C87.188 60.2747 87.7427 60.123 88.3407 60.123C89.346 60.123 90.126 60.474 90.6807 61.176C91.244 61.878 91.5257 62.8227 91.5257 64.01H86.0267C86.096 64.6773 86.3474 65.2233 86.7807 65.648C87.2227 66.0727 87.7687 66.285 88.4187 66.285ZM88.3797 60.994C87.773 60.994 87.253 61.1933 86.8197 61.592C86.3864 61.982 86.1264 62.4977 86.0397 63.139H90.5637C90.4944 62.4977 90.2734 61.982 89.9007 61.592C89.528 61.1933 89.021 60.994 88.3797 60.994ZM93.0638 57.913H94.0388V67H93.0638V57.913ZM102.194 57.913V67H101.219V65.739C100.959 66.1897 100.617 66.5407 100.192 66.792C99.7761 67.0347 99.3038 67.156 98.7751 67.156C98.1945 67.156 97.6658 67.0087 97.1891 66.714C96.7211 66.4107 96.3528 65.9903 96.0841 65.453C95.8155 64.9157 95.6811 64.309 95.6811 63.633C95.6811 62.957 95.8155 62.3547 96.0841 61.826C96.3528 61.2887 96.7211 60.8727 97.1891 60.578C97.6658 60.2747 98.1945 60.123 98.7751 60.123C99.3038 60.123 99.7761 60.2487 100.192 60.5C100.617 60.7427 100.959 61.0893 101.219 61.54V57.913H102.194ZM98.9571 66.285C99.3905 66.285 99.7805 66.1723 100.127 65.947C100.474 65.7217 100.742 65.4097 100.933 65.011C101.124 64.6037 101.219 64.1443 101.219 63.633C101.219 63.1217 101.124 62.6667 100.933 62.268C100.742 61.8693 100.474 61.5573 100.127 61.332C99.7805 61.1067 99.3905 60.994 98.9571 60.994C98.5238 60.994 98.1338 61.1067 97.7871 61.332C97.4491 61.5573 97.1848 61.8693 96.9941 62.268C96.8035 62.6667 96.7081 63.1217 96.7081 63.633C96.7081 64.1443 96.8035 64.6037 96.9941 65.011C97.1848 65.4097 97.4491 65.7217 97.7871 65.947C98.1338 66.1723 98.5238 66.285 98.9571 66.285ZM106.433 67.156C105.956 67.156 105.471 67.0693 104.977 66.896C104.492 66.7227 104.05 66.4757 103.651 66.155L104.158 65.44C104.929 66.0033 105.688 66.285 106.433 66.285C106.875 66.285 107.23 66.1897 107.499 65.999C107.776 65.8083 107.915 65.5527 107.915 65.232C107.915 65.0067 107.841 64.8203 107.694 64.673C107.547 64.517 107.36 64.3957 107.135 64.309C106.918 64.2223 106.615 64.1227 106.225 64.01C105.402 63.776 104.821 63.5203 104.483 63.243C104.145 62.957 103.976 62.5757 103.976 62.099C103.976 61.501 104.197 61.0243 104.639 60.669C105.081 60.305 105.644 60.123 106.329 60.123C106.736 60.123 107.148 60.1923 107.564 60.331C107.98 60.461 108.37 60.643 108.734 60.877L108.266 61.631C107.599 61.2063 106.953 60.994 106.329 60.994C105.93 60.994 105.601 61.0807 105.341 61.254C105.081 61.4273 104.951 61.67 104.951 61.982C104.951 62.1727 105.007 62.3287 105.12 62.45C105.233 62.5713 105.402 62.6797 105.627 62.775C105.852 62.8703 106.208 62.996 106.693 63.152C107.17 63.2993 107.555 63.4423 107.85 63.581C108.145 63.7197 108.392 63.9147 108.591 64.166C108.79 64.4087 108.89 64.7293 108.89 65.128C108.89 65.7347 108.656 66.2243 108.188 66.597C107.729 66.9697 107.144 67.156 106.433 67.156ZM121.208 60.123C121.667 60.123 122.079 60.2357 122.443 60.461C122.807 60.6777 123.089 60.9853 123.288 61.384C123.496 61.774 123.6 62.2203 123.6 62.723V67H122.625V62.853C122.625 62.307 122.478 61.8607 122.183 61.514C121.897 61.1673 121.529 60.994 121.078 60.994C120.541 60.994 120.103 61.1587 119.765 61.488C119.427 61.8087 119.258 62.2203 119.258 62.723V67H118.283V62.853C118.283 62.307 118.136 61.8607 117.841 61.514C117.555 61.1673 117.187 60.994 116.736 60.994C116.199 60.994 115.761 61.1587 115.423 61.488C115.085 61.8087 114.916 62.2203 114.916 62.723V67H113.941V60.279H114.916V61.267C115.089 60.9117 115.345 60.6343 115.683 60.435C116.03 60.227 116.424 60.123 116.866 60.123C117.395 60.123 117.854 60.266 118.244 60.552C118.643 60.838 118.929 61.228 119.102 61.722C119.206 61.2453 119.449 60.8597 119.83 60.565C120.22 60.2703 120.679 60.123 121.208 60.123ZM128.015 60.123C128.907 60.123 129.583 60.3787 130.043 60.89C130.511 61.3927 130.745 62.0643 130.745 62.905V67H129.77V65.947C129.536 66.3283 129.198 66.6273 128.756 66.844C128.322 67.052 127.872 67.156 127.404 67.156C126.684 67.156 126.095 66.961 125.636 66.571C125.176 66.181 124.947 65.661 124.947 65.011C124.947 64.5777 125.064 64.192 125.298 63.854C125.54 63.5073 125.861 63.243 126.26 63.061C126.667 62.8703 127.109 62.775 127.586 62.775C128.262 62.775 128.99 62.9007 129.77 63.152V62.905C129.77 62.359 129.631 61.8997 129.354 61.527C129.076 61.1457 128.608 60.955 127.95 60.955C127.646 60.955 127.334 61.0113 127.014 61.124C126.702 61.228 126.359 61.3753 125.987 61.566L125.597 60.773C126.463 60.3397 127.269 60.123 128.015 60.123ZM127.573 66.298C128.058 66.298 128.513 66.1767 128.938 65.934C129.371 65.6827 129.648 65.336 129.77 64.894V63.867C129.111 63.685 128.435 63.594 127.742 63.594C127.23 63.594 126.793 63.724 126.429 63.984C126.073 64.244 125.896 64.5733 125.896 64.972C125.896 65.3793 126.052 65.7043 126.364 65.947C126.684 66.181 127.087 66.298 127.573 66.298ZM133.721 61.592C133.92 61.1413 134.25 60.786 134.709 60.526C135.168 60.2573 135.706 60.123 136.321 60.123V60.994C135.818 60.994 135.368 61.0893 134.969 61.28C134.579 61.4707 134.271 61.7393 134.046 62.086C133.829 62.424 133.721 62.8097 133.721 63.243V67H132.746V60.279H133.721V61.592ZM137.8 57.913H138.775V63.997L142.454 60.279H143.702L140.673 63.36L143.533 67H142.311L139.984 64.023L138.775 65.219V67H137.8V57.913ZM147.669 66.285C148.068 66.285 148.466 66.207 148.865 66.051C149.272 65.895 149.58 65.7043 149.788 65.479L150.386 66.116C150.1 66.428 149.697 66.6793 149.177 66.87C148.666 67.0607 148.167 67.156 147.682 67.156C147.084 67.156 146.525 67.0043 146.005 66.701C145.485 66.3977 145.065 65.9773 144.744 65.44C144.432 64.894 144.276 64.2873 144.276 63.62C144.276 62.97 144.423 62.3763 144.718 61.839C145.021 61.3017 145.424 60.8813 145.927 60.578C146.438 60.2747 146.993 60.123 147.591 60.123C148.596 60.123 149.376 60.474 149.931 61.176C150.494 61.878 150.776 62.8227 150.776 64.01H145.277C145.346 64.6773 145.598 65.2233 146.031 65.648C146.473 66.0727 147.019 66.285 147.669 66.285ZM147.63 60.994C147.023 60.994 146.503 61.1933 146.07 61.592C145.637 61.982 145.377 62.4977 145.29 63.139H149.814C149.745 62.4977 149.524 61.982 149.151 61.592C148.778 61.1933 148.271 60.994 147.63 60.994ZM158.307 57.913V67H157.332V65.739C157.072 66.1897 156.73 66.5407 156.305 66.792C155.889 67.0347 155.417 67.156 154.888 67.156C154.308 67.156 153.779 67.0087 153.302 66.714C152.834 66.4107 152.466 65.9903 152.197 65.453C151.929 64.9157 151.794 64.309 151.794 63.633C151.794 62.957 151.929 62.3547 152.197 61.826C152.466 61.2887 152.834 60.8727 153.302 60.578C153.779 60.2747 154.308 60.123 154.888 60.123C155.417 60.123 155.889 60.2487 156.305 60.5C156.73 60.7427 157.072 61.0893 157.332 61.54V57.913H158.307ZM155.07 66.285C155.504 66.285 155.894 66.1723 156.24 65.947C156.587 65.7217 156.856 65.4097 157.046 65.011C157.237 64.6037 157.332 64.1443 157.332 63.633C157.332 63.1217 157.237 62.6667 157.046 62.268C156.856 61.8693 156.587 61.5573 156.24 61.332C155.894 61.1067 155.504 60.994 155.07 60.994C154.637 60.994 154.247 61.1067 153.9 61.332C153.562 61.5573 153.298 61.8693 153.107 62.268C152.917 62.6667 152.821 63.1217 152.821 63.633C152.821 64.1443 152.917 64.6037 153.107 65.011C153.298 65.4097 153.562 65.7217 153.9 65.947C154.247 66.1723 154.637 66.285 155.07 66.285ZM163.023 60.279H164.063L165.74 65.7L167.573 60.279H168.418L170.251 65.7L171.928 60.279H172.968L170.706 67H169.783L168.002 61.631L166.195 67H165.272L163.023 60.279ZM174.206 60.279H175.181V67H174.206V60.279ZM174.7 59.057C174.518 59.057 174.362 58.992 174.232 58.862C174.11 58.732 174.05 58.5803 174.05 58.407C174.05 58.2337 174.11 58.0863 174.232 57.965C174.362 57.835 174.518 57.77 174.7 57.77C174.873 57.77 175.02 57.835 175.142 57.965C175.272 58.0863 175.337 58.2337 175.337 58.407C175.337 58.5803 175.272 58.732 175.142 58.862C175.02 58.992 174.873 59.057 174.7 59.057ZM180.424 66.727C180.06 67.013 179.644 67.156 179.176 67.156C178.699 67.156 178.305 66.9957 177.993 66.675C177.69 66.3543 177.538 65.9427 177.538 65.44V61.15H176.485V60.279H177.538V58.433H178.513V60.279H180.164V61.15H178.513V65.44C178.513 65.6827 178.582 65.8863 178.721 66.051C178.868 66.207 179.042 66.285 179.241 66.285C179.388 66.285 179.523 66.259 179.644 66.207C179.765 66.155 179.865 66.09 179.943 66.012L180.424 66.727ZM184.909 60.123C185.403 60.123 185.841 60.2313 186.222 60.448C186.604 60.6647 186.898 60.9723 187.106 61.371C187.323 61.761 187.431 62.2117 187.431 62.723V67H186.456V62.853C186.456 62.2983 186.3 61.852 185.988 61.514C185.676 61.1673 185.273 60.994 184.779 60.994C184.407 60.994 184.06 61.072 183.739 61.228C183.419 61.384 183.163 61.5963 182.972 61.865C182.79 62.125 182.699 62.411 182.699 62.723V67H181.724V57.913H182.699V61.345C182.899 60.981 183.198 60.6863 183.596 60.461C183.995 60.2357 184.433 60.123 184.909 60.123ZM204.639 60.123C205.531 60.123 206.207 60.3787 206.667 60.89C207.135 61.3927 207.369 62.0643 207.369 62.905V67H206.394V65.947C206.16 66.3283 205.822 66.6273 205.38 66.844C204.946 67.052 204.496 67.156 204.028 67.156C203.308 67.156 202.719 66.961 202.26 66.571C201.8 66.181 201.571 65.661 201.571 65.011C201.571 64.5777 201.688 64.192 201.922 63.854C202.164 63.5073 202.485 63.243 202.884 63.061C203.291 62.8703 203.733 62.775 204.21 62.775C204.886 62.775 205.614 62.9007 206.394 63.152V62.905C206.394 62.359 206.255 61.8997 205.978 61.527C205.7 61.1457 205.232 60.955 204.574 60.955C204.27 60.955 203.958 61.0113 203.638 61.124C203.326 61.228 202.983 61.3753 202.611 61.566L202.221 60.773C203.087 60.3397 203.893 60.123 204.639 60.123ZM204.197 66.298C204.682 66.298 205.137 66.1767 205.562 65.934C205.995 65.6827 206.272 65.336 206.394 64.894V63.867C205.735 63.685 205.059 63.594 204.366 63.594C203.854 63.594 203.417 63.724 203.053 63.984C202.697 64.244 202.52 64.5733 202.52 64.972C202.52 65.3793 202.676 65.7043 202.988 65.947C203.308 66.181 203.711 66.298 204.197 66.298ZM210.345 61.592C210.544 61.1413 210.874 60.786 211.333 60.526C211.792 60.2573 212.33 60.123 212.945 60.123V60.994C212.442 60.994 211.992 61.0893 211.593 61.28C211.203 61.4707 210.895 61.7393 210.67 62.086C210.453 62.424 210.345 62.8097 210.345 63.243V67H209.37V60.279H210.345V61.592ZM217.258 66.285C217.657 66.285 218.056 66.207 218.454 66.051C218.862 65.895 219.169 65.7043 219.377 65.479L219.975 66.116C219.689 66.428 219.286 66.6793 218.766 66.87C218.255 67.0607 217.757 67.156 217.271 67.156C216.673 67.156 216.114 67.0043 215.594 66.701C215.074 66.3977 214.654 65.9773 214.333 65.44C214.021 64.894 213.865 64.2873 213.865 63.62C213.865 62.97 214.013 62.3763 214.307 61.839C214.611 61.3017 215.014 60.8813 215.516 60.578C216.028 60.2747 216.582 60.123 217.18 60.123C218.186 60.123 218.966 60.474 219.52 61.176C220.084 61.878 220.365 62.8227 220.365 64.01H214.866C214.936 64.6773 215.187 65.2233 215.62 65.648C216.062 66.0727 216.608 66.285 217.258 66.285ZM217.219 60.994C216.613 60.994 216.093 61.1933 215.659 61.592C215.226 61.982 214.966 62.4977 214.879 63.139H219.403C219.334 62.4977 219.113 61.982 218.74 61.592C218.368 61.1933 217.861 60.994 217.219 60.994ZM226.358 61.592C226.558 61.1413 226.887 60.786 227.346 60.526C227.806 60.2573 228.343 60.123 228.958 60.123V60.994C228.456 60.994 228.005 61.0893 227.606 61.28C227.216 61.4707 226.909 61.7393 226.683 62.086C226.467 62.424 226.358 62.8097 226.358 63.243V67H225.383V60.279H226.358V61.592ZM233.272 66.285C233.67 66.285 234.069 66.207 234.468 66.051C234.875 65.895 235.183 65.7043 235.391 65.479L235.989 66.116C235.703 66.428 235.3 66.6793 234.78 66.87C234.268 67.0607 233.77 67.156 233.285 67.156C232.687 67.156 232.128 67.0043 231.608 66.701C231.088 66.3977 230.667 65.9773 230.347 65.44C230.035 64.894 229.879 64.2873 229.879 63.62C229.879 62.97 230.026 62.3763 230.321 61.839C230.624 61.3017 231.027 60.8813 231.53 60.578C232.041 60.2747 232.596 60.123 233.194 60.123C234.199 60.123 234.979 60.474 235.534 61.176C236.097 61.878 236.379 62.8227 236.379 64.01H230.88C230.949 64.6773 231.2 65.2233 231.634 65.648C232.076 66.0727 232.622 66.285 233.272 66.285ZM233.233 60.994C232.626 60.994 232.106 61.1933 231.673 61.592C231.239 61.982 230.979 62.4977 230.893 63.139H235.417C235.347 62.4977 235.126 61.982 234.754 61.592C234.381 61.1933 233.874 60.994 233.233 60.994ZM243.91 60.279V69.236H242.935V65.739C242.675 66.1897 242.332 66.5407 241.908 66.792C241.492 67.0347 241.019 67.156 240.491 67.156C239.91 67.156 239.381 67.0087 238.905 66.714C238.437 66.4107 238.068 65.9903 237.8 65.453C237.531 64.9157 237.397 64.309 237.397 63.633C237.397 62.957 237.531 62.3547 237.8 61.826C238.068 61.2887 238.437 60.8727 238.905 60.578C239.381 60.2747 239.91 60.123 240.491 60.123C241.019 60.123 241.492 60.2487 241.908 60.5C242.332 60.7427 242.675 61.0893 242.935 61.54V60.279H243.91ZM240.673 66.285C241.106 66.285 241.496 66.1723 241.843 65.947C242.189 65.7217 242.458 65.4097 242.649 65.011C242.839 64.6037 242.935 64.1443 242.935 63.633C242.935 63.1217 242.839 62.6667 242.649 62.268C242.458 61.8693 242.189 61.5573 241.843 61.332C241.496 61.1067 241.106 60.994 240.673 60.994C240.239 60.994 239.849 61.1067 239.503 61.332C239.165 61.5573 238.9 61.8693 238.71 62.268C238.519 62.6667 238.424 63.1217 238.424 63.633C238.424 64.1443 238.519 64.6037 238.71 65.011C238.9 65.4097 239.165 65.7217 239.503 65.947C239.849 66.1723 240.239 66.285 240.673 66.285ZM251.62 60.279V67H250.645V65.934C250.445 66.298 250.146 66.5927 249.748 66.818C249.349 67.0433 248.911 67.156 248.435 67.156C247.941 67.156 247.503 67.0477 247.122 66.831C246.74 66.6143 246.441 66.311 246.225 65.921C246.017 65.5223 245.913 65.0673 245.913 64.556V60.279H246.888V64.426C246.888 64.9807 247.044 65.4313 247.356 65.778C247.668 66.116 248.071 66.285 248.565 66.285C248.937 66.285 249.284 66.207 249.605 66.051C249.925 65.895 250.177 65.687 250.359 65.427C250.549 65.1583 250.645 64.868 250.645 64.556V60.279H251.62ZM253.776 60.279H254.751V67H253.776V60.279ZM254.27 59.057C254.088 59.057 253.932 58.992 253.802 58.862C253.681 58.732 253.62 58.5803 253.62 58.407C253.62 58.2337 253.681 58.0863 253.802 57.965C253.932 57.835 254.088 57.77 254.27 57.77C254.444 57.77 254.591 57.835 254.712 57.965C254.842 58.0863 254.907 58.2337 254.907 58.407C254.907 58.5803 254.842 58.732 254.712 58.862C254.591 58.992 254.444 59.057 254.27 59.057ZM257.889 61.592C258.088 61.1413 258.417 60.786 258.877 60.526C259.336 60.2573 259.873 60.123 260.489 60.123V60.994C259.986 60.994 259.535 61.0893 259.137 61.28C258.747 61.4707 258.439 61.7393 258.214 62.086C257.997 62.424 257.889 62.8097 257.889 63.243V67H256.914V60.279H257.889V61.592ZM264.802 66.285C265.201 66.285 265.599 66.207 265.998 66.051C266.405 65.895 266.713 65.7043 266.921 65.479L267.519 66.116C267.233 66.428 266.83 66.6793 266.31 66.87C265.799 67.0607 265.3 67.156 264.815 67.156C264.217 67.156 263.658 67.0043 263.138 66.701C262.618 66.3977 262.198 65.9773 261.877 65.44C261.565 64.894 261.409 64.2873 261.409 63.62C261.409 62.97 261.556 62.3763 261.851 61.839C262.154 61.3017 262.557 60.8813 263.06 60.578C263.571 60.2747 264.126 60.123 264.724 60.123C265.729 60.123 266.509 60.474 267.064 61.176C267.627 61.878 267.909 62.8227 267.909 64.01H262.41C262.479 64.6773 262.731 65.2233 263.164 65.648C263.606 66.0727 264.152 66.285 264.802 66.285ZM264.763 60.994C264.156 60.994 263.636 61.1933 263.203 61.592C262.77 61.982 262.51 62.4977 262.423 63.139H266.947C266.878 62.4977 266.657 61.982 266.284 61.592C265.911 61.1933 265.404 60.994 264.763 60.994ZM275.44 57.913V67H274.465V65.739C274.205 66.1897 273.863 66.5407 273.438 66.792C273.022 67.0347 272.55 67.156 272.021 67.156C271.44 67.156 270.912 67.0087 270.435 66.714C269.967 66.4107 269.599 65.9903 269.33 65.453C269.061 64.9157 268.927 64.309 268.927 63.633C268.927 62.957 269.061 62.3547 269.33 61.826C269.599 61.2887 269.967 60.8727 270.435 60.578C270.912 60.2747 271.44 60.123 272.021 60.123C272.55 60.123 273.022 60.2487 273.438 60.5C273.863 60.7427 274.205 61.0893 274.465 61.54V57.913H275.44ZM272.203 66.285C272.636 66.285 273.026 66.1723 273.373 65.947C273.72 65.7217 273.988 65.4097 274.179 65.011C274.37 64.6037 274.465 64.1443 274.465 63.633C274.465 63.1217 274.37 62.6667 274.179 62.268C273.988 61.8693 273.72 61.5573 273.373 61.332C273.026 61.1067 272.636 60.994 272.203 60.994C271.77 60.994 271.38 61.1067 271.033 61.332C270.695 61.5573 270.431 61.8693 270.24 62.268C270.049 62.6667 269.954 63.1217 269.954 63.633C269.954 64.1443 270.049 64.6037 270.24 65.011C270.431 65.4097 270.695 65.7217 271.033 65.947C271.38 66.1723 271.77 66.285 272.203 66.285Z" fill="#4F6169"/>
  <path d="M194.758 62.372C194.637 62.372 194.533 62.333 194.446 62.255C194.359 62.177 194.316 62.086 194.316 61.982C194.316 61.748 194.364 61.4317 194.459 61.033C194.511 60.773 194.546 60.578 194.563 60.448C194.546 60.4653 194.381 60.604 194.069 60.864C194.043 60.89 193.956 60.968 193.809 61.098C193.662 61.228 193.514 61.3363 193.367 61.423C193.324 61.4577 193.263 61.475 193.185 61.475C193.012 61.475 192.882 61.397 192.795 61.241C192.752 61.1717 192.73 61.098 192.73 61.02C192.73 60.9507 192.747 60.8857 192.782 60.825C192.817 60.7557 192.864 60.7037 192.925 60.669C193.09 60.5737 193.38 60.461 193.796 60.331C194.039 60.253 194.234 60.1837 194.381 60.123C194.26 60.071 194.069 60.0017 193.809 59.915C193.419 59.8023 193.124 59.6853 192.925 59.564C192.864 59.5293 192.817 59.4817 192.782 59.421C192.747 59.3603 192.73 59.2953 192.73 59.226C192.73 59.1567 192.752 59.0787 192.795 58.992C192.838 58.9227 192.895 58.8663 192.964 58.823C193.042 58.7797 193.116 58.758 193.185 58.758C193.237 58.758 193.298 58.7753 193.367 58.81C193.558 58.914 193.8 59.109 194.095 59.395C194.303 59.5857 194.459 59.72 194.563 59.798C194.537 59.616 194.498 59.4167 194.446 59.2C194.437 59.1653 194.411 59.044 194.368 58.836C194.325 58.628 194.303 58.4373 194.303 58.264C194.303 58.16 194.346 58.069 194.433 57.991C194.52 57.913 194.624 57.874 194.745 57.874C194.866 57.874 194.97 57.913 195.057 57.991C195.144 58.069 195.187 58.16 195.187 58.264C195.187 58.4373 195.165 58.628 195.122 58.836C195.079 59.044 195.053 59.1653 195.044 59.2C194.992 59.4167 194.953 59.616 194.927 59.798C194.944 59.7807 195.109 59.642 195.421 59.382C195.447 59.356 195.534 59.278 195.681 59.148C195.828 59.018 195.976 58.9097 196.123 58.823C196.166 58.7883 196.231 58.771 196.318 58.771C196.396 58.771 196.47 58.7927 196.539 58.836C196.608 58.8707 196.66 58.927 196.695 59.005C196.738 59.0743 196.76 59.148 196.76 59.226C196.76 59.2953 196.743 59.3647 196.708 59.434C196.673 59.4947 196.626 59.5423 196.565 59.577C196.418 59.6637 196.244 59.7417 196.045 59.811C195.854 59.8717 195.737 59.9107 195.694 59.928C195.486 59.98 195.291 60.045 195.109 60.123C195.282 60.201 195.473 60.266 195.681 60.318C196.097 60.4567 196.392 60.578 196.565 60.682C196.626 60.7167 196.673 60.7643 196.708 60.825C196.743 60.8857 196.76 60.9507 196.76 61.02C196.76 61.0893 196.738 61.1673 196.695 61.254C196.66 61.3233 196.604 61.3797 196.526 61.423C196.448 61.4663 196.374 61.488 196.305 61.488C196.253 61.488 196.192 61.4707 196.123 61.436C195.976 61.3493 195.828 61.241 195.681 61.111C195.534 60.981 195.447 60.903 195.421 60.877C195.282 60.7383 195.118 60.5953 194.927 60.448C194.953 60.63 194.992 60.8293 195.044 61.046C195.053 61.0807 195.079 61.202 195.122 61.41C195.165 61.618 195.187 61.8087 195.187 61.982C195.187 62.086 195.144 62.177 195.057 62.255C194.97 62.333 194.871 62.372 194.758 62.372Z" fill="#C21D00"/>
</svg>
