<svg width="453" height="242" viewBox="0 0 453 242" fill="none" xmlns="http://www.w3.org/2000/svg">
<path d="M77.355 54.1215V47.9385H78.471L81.738 52.2855V47.9385H82.854V54.1215H81.738L78.471 49.7745V54.1215H77.355ZM86.154 49.3605C87.387 49.3605 88.143 50.1435 88.143 51.3225V54.1215H87.072V53.5725C86.73 53.9955 86.154 54.2295 85.614 54.2295C84.624 54.2295 83.886 53.6445 83.886 52.7445C83.886 51.8265 84.723 51.1965 85.776 51.1965C86.199 51.1965 86.649 51.2865 87.072 51.4395V51.3225C87.072 50.7825 86.784 50.2605 85.938 50.2605C85.497 50.2605 85.074 50.4135 84.678 50.6115L84.3 49.8465C84.957 49.5225 85.569 49.3605 86.154 49.3605ZM85.857 53.4285C86.388 53.4285 86.955 53.1585 87.072 52.6635V52.1325C86.73 52.0245 86.343 51.9615 85.938 51.9615C85.389 51.9615 84.939 52.2675 84.939 52.7085C84.939 53.1495 85.335 53.4285 85.857 53.4285ZM94.6971 49.3605C95.6691 49.3605 96.3981 50.1075 96.3981 51.1605V54.1215H95.3271V51.3405C95.3271 50.7285 94.9581 50.2965 94.4271 50.2965C93.8241 50.2965 93.4011 50.7015 93.4011 51.2685V54.1215H92.3391V51.3405C92.3391 50.7285 91.9611 50.2965 91.4301 50.2965C90.8361 50.2965 90.4131 50.7015 90.4131 51.2685V54.1215H89.3151V49.4685H90.4131V50.0985C90.6471 49.6485 91.1241 49.3605 91.7091 49.3605C92.4471 49.3605 93.0411 49.7925 93.2841 50.4675C93.4101 49.8015 93.9681 49.3605 94.6971 49.3605ZM99.6259 53.3475C100.094 53.3475 100.625 53.1495 100.922 52.8615L101.552 53.5095C101.147 53.9415 100.337 54.2295 99.6619 54.2295C98.3209 54.2295 97.2139 53.2125 97.2139 51.7815C97.2139 50.3775 98.2669 49.3605 99.5989 49.3605C101.039 49.3605 101.885 50.4225 101.885 52.1145H98.2759C98.3929 52.8435 98.9059 53.3475 99.6259 53.3475ZM99.6079 50.2425C98.9419 50.2425 98.4289 50.6925 98.2849 51.3855H100.823C100.724 50.7285 100.31 50.2425 99.6079 50.2425Z" fill="#4F6169"/>
<path opacity="0.4" d="M269.306 49.1519H230.593C229.437 49.1519 228.5 50.0337 228.5 51.1215C228.5 52.2093 229.437 53.0911 230.593 53.0911H269.306C270.461 53.0911 271.398 52.2093 271.398 51.1215C271.398 50.0337 270.461 49.1519 269.306 49.1519Z" fill="#4F6169"/>
<path opacity="0.4" d="M332.945 49.1519H277.491C276.335 49.1519 275.398 50.0337 275.398 51.1215C275.398 52.2093 276.335 53.0911 277.491 53.0911H332.945C334.1 53.0911 335.037 52.2093 335.037 51.1215C335.037 50.0337 334.1 49.1519 332.945 49.1519Z" fill="#4F6169"/>
<path d="M377.5 57.0911H228.5V59.0911H377.5V57.0911Z" fill="#67777E" mask="url(#path-3-inside-1_8990_7027)"/>
<path d="M79.315 83.7107C78.54 83.7107 77.975 83.2107 77.819 82.5007H81.899C81.899 80.5907 80.926 79.3807 79.252 79.3807C77.714 79.3807 76.5 80.5207 76.5 82.0707C76.5 83.6607 77.777 84.7907 79.325 84.7907C80.11 84.7907 81.052 84.4707 81.522 83.9907L80.717 83.1907C80.413 83.4907 79.817 83.7107 79.315 83.7107ZM79.304 80.4607C80.068 80.4607 80.528 80.9207 80.675 81.5707H77.829C78.017 80.8907 78.593 80.4607 79.304 80.4607ZM89.252 79.3807C88.447 79.3807 87.767 79.7607 87.505 80.3607C87.17 79.7507 86.543 79.3807 85.779 79.3807C85.099 79.3807 84.544 79.7007 84.272 80.2007V79.5007H82.995V84.6707H84.272V81.5007C84.272 80.8707 84.764 80.4207 85.454 80.4207C86.082 80.4207 86.511 80.9007 86.511 81.5807V84.6707H87.756V81.5007C87.756 80.8707 88.238 80.4207 88.939 80.4207C89.556 80.4207 89.985 80.9007 89.985 81.5807V84.6707H91.23V81.3807C91.23 80.2107 90.382 79.3807 89.252 79.3807ZM94.964 79.3807C94.284 79.3807 93.573 79.5607 92.809 79.9207L93.248 80.7707C93.709 80.5507 94.2 80.3807 94.713 80.3807C95.697 80.3807 96.042 80.9607 96.042 81.5607V81.7007C95.55 81.5207 95.017 81.4207 94.525 81.4207C93.311 81.4207 92.317 82.1207 92.317 83.1407C92.317 84.1407 93.185 84.7907 94.336 84.7907C94.964 84.7907 95.644 84.5307 96.042 84.0507V84.6707H97.287V81.5607C97.287 80.2507 96.398 79.3807 94.964 79.3807ZM94.619 83.9007C94.012 83.9007 93.562 83.5907 93.562 83.1007C93.562 82.6107 94.075 82.2707 94.713 82.2707C95.194 82.2707 95.644 82.3407 96.042 82.4707V83.0507C95.895 83.6007 95.236 83.9007 94.619 83.9007ZM99.318 78.7207C99.715 78.7207 100.04 78.3907 100.04 78.0207C100.04 77.6507 99.715 77.3307 99.318 77.3307C98.91 77.3307 98.585 77.6507 98.585 78.0207C98.585 78.3907 98.91 78.7207 99.318 78.7207ZM98.669 84.6707H99.946V79.5007H98.669V84.6707ZM101.357 84.6707H102.634V77.6807H101.357V84.6707Z" fill="#4F6169"/>
<path opacity="0.4" d="M309.306 79.0911H230.593C229.437 79.0911 228.5 79.9729 228.5 81.0607C228.5 82.1485 229.437 83.0303 230.593 83.0303H309.306C310.461 83.0303 311.398 82.1485 311.398 81.0607C311.398 79.9729 310.461 79.0911 309.306 79.0911Z" fill="#4F6169"/>
<path d="M377.5 87.0303H228.5V89.0303H377.5V87.0303Z" fill="#67777E" mask="url(#path-8-inside-2_8990_7027)"/>
<path d="M77.355 114V107.817H80.046C81.36 107.817 82.359 108.663 82.359 109.869C82.359 111.075 81.36 111.921 80.046 111.921H78.471V114H77.355ZM78.471 110.886H79.911C80.676 110.886 81.207 110.499 81.207 109.869C81.207 109.239 80.676 108.852 79.911 108.852H78.471V110.886ZM85.8534 109.239C86.8794 109.239 87.5904 109.977 87.5904 111.039V114H86.5194V111.255C86.5194 110.616 86.1234 110.175 85.5474 110.175C84.9174 110.175 84.4134 110.616 84.4134 111.183V114H83.3154V107.709H84.4134V109.977C84.6924 109.536 85.2324 109.239 85.8534 109.239ZM90.9033 114.108C89.5263 114.108 88.4013 113.01 88.4013 111.669C88.4013 110.328 89.5263 109.239 90.9033 109.239C92.2713 109.239 93.3873 110.328 93.3873 111.669C93.3873 113.01 92.2713 114.108 90.9033 114.108ZM90.9033 113.172C91.6773 113.172 92.3163 112.497 92.3163 111.669C92.3163 110.841 91.6773 110.175 90.9033 110.175C90.1203 110.175 89.4813 110.841 89.4813 111.669C89.4813 112.497 90.1203 113.172 90.9033 113.172ZM96.8419 109.239C97.8679 109.239 98.5789 109.977 98.5789 111.039V114H97.5079V111.255C97.5079 110.616 97.1119 110.175 96.5359 110.175C95.9059 110.175 95.4019 110.616 95.4019 111.183V114H94.3039V109.347H95.4019V109.977C95.6809 109.536 96.2209 109.239 96.8419 109.239ZM101.82 113.226C102.288 113.226 102.819 113.028 103.116 112.74L103.746 113.388C103.341 113.82 102.531 114.108 101.856 114.108C100.515 114.108 99.4078 113.091 99.4078 111.66C99.4078 110.256 100.461 109.239 101.793 109.239C103.233 109.239 104.079 110.301 104.079 111.993H100.47C100.587 112.722 101.1 113.226 101.82 113.226ZM101.802 110.121C101.136 110.121 100.623 110.571 100.479 111.264H103.017C102.918 110.607 102.504 110.121 101.802 110.121ZM109.857 109.239C110.883 109.239 111.594 109.977 111.594 111.039V114H110.523V111.255C110.523 110.616 110.127 110.175 109.551 110.175C108.921 110.175 108.417 110.616 108.417 111.183V114H107.319V109.347H108.417V109.977C108.696 109.536 109.236 109.239 109.857 109.239ZM115.843 109.347H116.941V114H115.843V113.37C115.564 113.811 115.024 114.108 114.403 114.108C113.377 114.108 112.666 113.37 112.666 112.308V109.347H113.737V112.092C113.737 112.731 114.133 113.172 114.709 113.172C115.339 113.172 115.843 112.731 115.843 112.164V109.347ZM123.593 109.239C124.565 109.239 125.294 109.986 125.294 111.039V114H124.223V111.219C124.223 110.607 123.854 110.175 123.323 110.175C122.72 110.175 122.297 110.58 122.297 111.147V114H121.235V111.219C121.235 110.607 120.857 110.175 120.326 110.175C119.732 110.175 119.309 110.58 119.309 111.147V114H118.211V109.347H119.309V109.977C119.543 109.527 120.02 109.239 120.605 109.239C121.343 109.239 121.937 109.671 122.18 110.346C122.306 109.68 122.864 109.239 123.593 109.239ZM129.197 109.239C130.43 109.239 131.339 110.247 131.339 111.669C131.339 113.1 130.43 114.108 129.197 114.108C128.486 114.108 127.91 113.775 127.55 113.208V114H126.452V107.709H127.55V110.13C127.91 109.572 128.486 109.239 129.197 109.239ZM128.9 113.172C129.692 113.172 130.25 112.542 130.25 111.669C130.25 110.796 129.692 110.175 128.9 110.175C128.135 110.175 127.586 110.796 127.586 111.669C127.586 112.542 128.135 113.172 128.9 113.172ZM134.355 113.226C134.823 113.226 135.354 113.028 135.651 112.74L136.281 113.388C135.876 113.82 135.066 114.108 134.391 114.108C133.05 114.108 131.943 113.091 131.943 111.66C131.943 110.256 132.996 109.239 134.328 109.239C135.768 109.239 136.614 110.301 136.614 111.993H133.005C133.122 112.722 133.635 113.226 134.355 113.226ZM134.337 110.121C133.671 110.121 133.158 110.571 133.014 111.264H135.552C135.453 110.607 135.039 110.121 134.337 110.121ZM138.591 110.229C138.888 109.626 139.5 109.239 140.256 109.239V110.175C139.257 110.175 138.591 110.769 138.591 111.651V114H137.493V109.347H138.591V110.229Z" fill="#4F6169"/>
<path opacity="0.4" d="M245.306 109.03H230.593C229.437 109.03 228.5 109.912 228.5 111C228.5 112.088 229.437 112.97 230.593 112.97H245.306C246.461 112.97 247.398 112.088 247.398 111C247.398 109.912 246.461 109.03 245.306 109.03Z" fill="#4F6169"/>
<path opacity="0.4" d="M270.204 109.03H255.491C254.335 109.03 253.398 109.912 253.398 111C253.398 112.088 254.335 112.97 255.491 112.97H270.204C271.359 112.97 272.296 112.088 272.296 111C272.296 109.912 271.359 109.03 270.204 109.03Z" fill="#4F6169"/>
<path opacity="0.4" d="M306.102 109.03H280.389C279.233 109.03 278.296 109.912 278.296 111C278.296 112.088 279.233 112.97 280.389 112.97H306.102C307.257 112.97 308.194 112.088 308.194 111C308.194 109.912 307.257 109.03 306.102 109.03Z" fill="#4F6169"/>
<path d="M377.5 116.97H228.5V118.97H377.5V116.97Z" fill="#67777E" mask="url(#path-12-inside-3_8990_7027)"/>
<path d="M80.19 164.047C78.435 164.047 76.95 162.58 76.95 160.843C76.95 159.106 78.435 157.648 80.19 157.648C81.099 157.648 81.936 158.035 82.53 158.647L81.729 159.394C81.342 158.953 80.793 158.674 80.19 158.674C79.056 158.674 78.093 159.664 78.093 160.843C78.093 162.031 79.056 163.021 80.19 163.021C80.793 163.021 81.342 162.742 81.738 162.301L82.53 163.039C81.936 163.66 81.099 164.047 80.19 164.047ZM85.5629 164.047C84.1859 164.047 83.0609 162.949 83.0609 161.608C83.0609 160.267 84.1859 159.178 85.5629 159.178C86.9309 159.178 88.0469 160.267 88.0469 161.608C88.0469 162.949 86.9309 164.047 85.5629 164.047ZM85.5629 163.111C86.3369 163.111 86.9759 162.436 86.9759 161.608C86.9759 160.78 86.3369 160.114 85.5629 160.114C84.7799 160.114 84.1409 160.78 84.1409 161.608C84.1409 162.436 84.7799 163.111 85.5629 163.111ZM94.3455 159.178C95.3175 159.178 96.0465 159.925 96.0465 160.978V163.939H94.9755V161.158C94.9755 160.546 94.6065 160.114 94.0755 160.114C93.4725 160.114 93.0495 160.519 93.0495 161.086V163.939H91.9875V161.158C91.9875 160.546 91.6095 160.114 91.0785 160.114C90.4845 160.114 90.0615 160.519 90.0615 161.086V163.939H88.9635V159.286H90.0615V159.916C90.2955 159.466 90.7725 159.178 91.3575 159.178C92.0955 159.178 92.6895 159.61 92.9325 160.285C93.0585 159.619 93.6165 159.178 94.3455 159.178ZM99.9133 159.178C101.146 159.178 102.046 160.186 102.046 161.608C102.046 163.039 101.146 164.047 99.9133 164.047C99.2293 164.047 98.6713 163.741 98.3023 163.219V165.487H97.2043V159.286H98.3023V160.006C98.6713 159.484 99.2293 159.178 99.9133 159.178ZM99.6163 163.111C100.399 163.111 100.957 162.481 100.957 161.608C100.957 160.735 100.399 160.114 99.6163 160.114C98.8423 160.114 98.3023 160.735 98.3023 161.608C98.3023 162.481 98.8423 163.111 99.6163 163.111ZM104.865 159.178C106.098 159.178 106.854 159.961 106.854 161.14V163.939H105.783V163.39C105.441 163.813 104.865 164.047 104.325 164.047C103.335 164.047 102.597 163.462 102.597 162.562C102.597 161.644 103.434 161.014 104.487 161.014C104.91 161.014 105.36 161.104 105.783 161.257V161.14C105.783 160.6 105.495 160.078 104.649 160.078C104.208 160.078 103.785 160.231 103.389 160.429L103.011 159.664C103.668 159.34 104.28 159.178 104.865 159.178ZM104.568 163.246C105.099 163.246 105.666 162.976 105.783 162.481V161.95C105.441 161.842 105.054 161.779 104.649 161.779C104.1 161.779 103.65 162.085 103.65 162.526C103.65 162.967 104.046 163.246 104.568 163.246ZM110.564 159.178C111.59 159.178 112.301 159.916 112.301 160.978V163.939H111.23V161.194C111.23 160.555 110.834 160.114 110.258 160.114C109.628 160.114 109.124 160.555 109.124 161.122V163.939H108.026V159.286H109.124V159.916C109.403 159.475 109.943 159.178 110.564 159.178ZM114.255 165.559C113.904 165.559 113.517 165.469 113.238 165.316L113.472 164.524C113.67 164.632 113.895 164.695 114.066 164.695C114.327 164.695 114.525 164.614 114.66 164.389L114.858 163.975L112.887 159.286H114.048L115.407 162.76L116.685 159.286H117.819L115.848 164.263C115.497 165.145 114.957 165.55 114.255 165.559Z" fill="#4F6169"/>
<path opacity="0.4" d="M309.306 158.97H230.593C229.437 158.97 228.5 159.852 228.5 160.939C228.5 162.027 229.437 162.909 230.593 162.909H309.306C310.461 162.909 311.398 162.027 311.398 160.939C311.398 159.852 310.461 158.97 309.306 158.97Z" fill="#4F6169"/>
<path d="M377.5 166.909H228.5V168.909H377.5V166.909Z" fill="#67777E" mask="url(#path-18-inside-4_8990_7027)"/>
<path d="M78.723 193.987C77.958 193.987 77.112 193.564 76.716 192.961L77.472 192.223C77.688 192.655 78.165 192.97 78.633 192.97C79.236 192.97 79.677 192.484 79.677 191.791V187.696H80.793V191.863C80.793 193.105 79.938 193.987 78.723 193.987ZM84.2709 193.987C82.8939 193.987 81.7689 192.889 81.7689 191.548C81.7689 190.207 82.8939 189.118 84.2709 189.118C85.6389 189.118 86.7549 190.207 86.7549 191.548C86.7549 192.889 85.6389 193.987 84.2709 193.987ZM84.2709 193.051C85.0449 193.051 85.6839 192.376 85.6839 191.548C85.6839 190.72 85.0449 190.054 84.2709 190.054C83.4879 190.054 82.8489 190.72 82.8489 191.548C82.8489 192.376 83.4879 193.051 84.2709 193.051ZM90.4165 189.118C91.6495 189.118 92.5585 190.126 92.5585 191.548C92.5585 192.979 91.6495 193.987 90.4165 193.987C89.7055 193.987 89.1295 193.654 88.7695 193.087V193.879H87.6715V187.588H88.7695V190.009C89.1295 189.451 89.7055 189.118 90.4165 189.118ZM90.1195 193.051C90.9115 193.051 91.4695 192.421 91.4695 191.548C91.4695 190.675 90.9115 190.054 90.1195 190.054C89.3545 190.054 88.8055 190.675 88.8055 191.548C88.8055 192.421 89.3545 193.051 90.1195 193.051ZM98.0431 192.88L98.3581 193.618C98.0971 193.843 97.7191 193.987 97.3591 193.987C96.5941 193.987 96.0541 193.429 96.0541 192.646V190.135H95.3791V189.226H96.0541V187.948H97.1161V189.226H98.1691V190.135H97.1161V192.511C97.1161 192.826 97.3231 193.051 97.5841 193.051C97.7731 193.051 97.9441 192.979 98.0431 192.88ZM99.7066 188.524C99.3556 188.524 99.0766 188.227 99.0766 187.894C99.0766 187.561 99.3556 187.273 99.7066 187.273C100.049 187.273 100.328 187.561 100.328 187.894C100.328 188.227 100.049 188.524 99.7066 188.524ZM99.1576 193.879V189.226H100.256V193.879H99.1576ZM103.705 192.88L104.02 193.618C103.759 193.843 103.381 193.987 103.021 193.987C102.256 193.987 101.716 193.429 101.716 192.646V190.135H101.041V189.226H101.716V187.948H102.778V189.226H103.831V190.135H102.778V192.511C102.778 192.826 102.985 193.051 103.246 193.051C103.435 193.051 103.606 192.979 103.705 192.88ZM104.82 193.879V187.588H105.918V193.879H104.82ZM109.26 193.105C109.728 193.105 110.259 192.907 110.556 192.619L111.186 193.267C110.781 193.699 109.971 193.987 109.296 193.987C107.955 193.987 106.848 192.97 106.848 191.539C106.848 190.135 107.901 189.118 109.233 189.118C110.673 189.118 111.519 190.18 111.519 191.872H107.91C108.027 192.601 108.54 193.105 109.26 193.105ZM109.242 190C108.576 190 108.063 190.45 107.919 191.143H110.457C110.358 190.486 109.944 190 109.242 190Z" fill="#4F6169"/>
<path opacity="0.4" d="M329.306 188.909H230.593C229.437 188.909 228.5 189.791 228.5 190.879C228.5 191.966 229.437 192.848 230.593 192.848H329.306C330.461 192.848 331.398 191.966 331.398 190.879C331.398 189.791 330.461 188.909 329.306 188.909Z" fill="#4F6169"/>
<path d="M377.5 196.848H228.5V198.848H377.5V196.848Z" fill="#67777E" mask="url(#path-22-inside-5_8990_7027)"/>
<path d="M1 5C1 2.79086 2.79086 1 5 1H449C451.209 1 453 2.79086 453 5V241H1V5Z" stroke="#ACB8BE"/>
</svg>
