<svg width="452" height="144" viewBox="0 0 452 144" fill="none" xmlns="http://www.w3.org/2000/svg">
<g clip-path="url(#clip0_1078_2180)">
<path d="M4 0.5H448C449.933 0.5 451.5 2.067 451.5 4V143.5H0.5V4C0.5 2.067 2.067 0.5 4 0.5Z" fill="#FCFDFD"/>
<path d="M98.347 43.518H102.936V45H96.735V36.069H98.347V43.518ZM106.887 38.123C108.668 38.123 109.76 39.254 109.76 40.957V45H108.213V44.207C107.719 44.818 106.887 45.156 106.107 45.156C104.677 45.156 103.611 44.311 103.611 43.011C103.611 41.685 104.82 40.775 106.341 40.775C106.952 40.775 107.602 40.905 108.213 41.126V40.957C108.213 40.177 107.797 39.423 106.575 39.423C105.938 39.423 105.327 39.644 104.755 39.93L104.209 38.825C105.158 38.357 106.042 38.123 106.887 38.123ZM106.458 43.999C107.225 43.999 108.044 43.609 108.213 42.894V42.127C107.719 41.971 107.16 41.88 106.575 41.88C105.782 41.88 105.132 42.322 105.132 42.959C105.132 43.596 105.704 43.999 106.458 43.999ZM115.462 38.123C117.243 38.123 118.556 39.579 118.556 41.633C118.556 43.7 117.243 45.156 115.462 45.156C114.435 45.156 113.603 44.675 113.083 43.856V45H111.497V35.913H113.083V39.41C113.603 38.604 114.435 38.123 115.462 38.123ZM115.033 43.804C116.177 43.804 116.983 42.894 116.983 41.633C116.983 40.372 116.177 39.475 115.033 39.475C113.928 39.475 113.135 40.372 113.135 41.633C113.135 42.894 113.928 43.804 115.033 43.804ZM122.956 43.882C123.632 43.882 124.399 43.596 124.828 43.18L125.738 44.116C125.153 44.74 123.983 45.156 123.008 45.156C121.071 45.156 119.472 43.687 119.472 41.62C119.472 39.592 120.993 38.123 122.917 38.123C124.997 38.123 126.219 39.657 126.219 42.101H121.006C121.175 43.154 121.916 43.882 122.956 43.882ZM122.93 39.397C121.968 39.397 121.227 40.047 121.019 41.048H124.685C124.542 40.099 123.944 39.397 122.93 39.397ZM127.534 45V35.913H129.12V45H127.534Z" fill="#4F6169"/>
<path d="M104.917 85V76.069H105.931V85H104.917ZM111.563 78.123C113.058 78.123 114.085 79.176 114.085 80.723V85H113.11V80.853C113.11 79.748 112.421 78.994 111.433 78.994C110.289 78.994 109.353 79.774 109.353 80.723V85H108.378V78.279H109.353V79.345C109.743 78.63 110.601 78.123 111.563 78.123ZM119.504 78.123C121.272 78.123 122.598 79.579 122.598 81.633C122.598 83.7 121.272 85.156 119.504 85.156C118.425 85.156 117.567 84.623 117.06 83.739V87.236H116.085V78.279H117.06V79.54C117.567 78.656 118.425 78.123 119.504 78.123ZM119.322 84.285C120.635 84.285 121.571 83.18 121.571 81.633C121.571 80.086 120.635 78.994 119.322 78.994C117.996 78.994 117.06 80.086 117.06 81.633C117.06 83.18 117.996 84.285 119.322 84.285ZM128.813 78.279H129.788V85H128.813V83.934C128.423 84.649 127.565 85.156 126.603 85.156C125.108 85.156 124.081 84.103 124.081 82.556V78.279H125.056V82.426C125.056 83.531 125.745 84.285 126.733 84.285C127.877 84.285 128.813 83.505 128.813 82.556V78.279ZM134.545 84.012L135.026 84.727C134.675 85 134.233 85.156 133.778 85.156C132.816 85.156 132.14 84.441 132.14 83.44V79.15H131.087V78.279H132.14V76.433H133.115V78.279H134.766V79.15H133.115V83.44C133.115 83.934 133.453 84.285 133.843 84.285C134.142 84.285 134.402 84.168 134.545 84.012ZM141.665 85L138.805 78.279H139.897L142.133 83.856L144.33 78.279H145.422L142.601 85H141.665ZM148.992 78.123C150.825 78.123 151.722 79.28 151.722 80.905V85H150.747V83.947C150.266 84.74 149.265 85.156 148.381 85.156C146.964 85.156 145.924 84.337 145.924 83.011C145.924 81.672 147.12 80.775 148.563 80.775C149.291 80.775 150.058 80.931 150.747 81.152V80.905C150.747 79.995 150.383 78.955 148.927 78.955C148.251 78.955 147.575 79.254 146.964 79.566L146.574 78.773C147.536 78.292 148.342 78.123 148.992 78.123ZM148.55 84.298C149.434 84.298 150.487 83.843 150.747 82.894V81.867C150.136 81.698 149.447 81.594 148.719 81.594C147.718 81.594 146.873 82.166 146.873 82.972C146.873 83.804 147.601 84.298 148.55 84.298ZM153.724 85V75.913H154.699V85H153.724ZM161.437 78.279H162.412V85H161.437V83.934C161.047 84.649 160.189 85.156 159.227 85.156C157.732 85.156 156.705 84.103 156.705 82.556V78.279H157.68V82.426C157.68 83.531 158.369 84.285 159.357 84.285C160.501 84.285 161.437 83.505 161.437 82.556V78.279ZM167.403 84.285C168.196 84.285 169.106 83.934 169.522 83.479L170.119 84.116C169.535 84.753 168.352 85.156 167.416 85.156C165.622 85.156 164.01 83.687 164.01 81.62C164.01 79.618 165.518 78.123 167.325 78.123C169.353 78.123 170.51 79.657 170.51 82.01H165.011C165.153 83.323 166.077 84.285 167.403 84.285ZM167.364 78.994C166.168 78.994 165.206 79.839 165.024 81.139H169.548C169.418 79.93 168.703 78.994 167.364 78.994Z" fill="#22343C"/>
<path d="M332.5 92H95.5V94H332.5V92Z" fill="#E02200"/>
<path fill-rule="evenodd" clip-rule="evenodd" d="M96 106C96 101.582 99.582 98 104 98C106.122 98 108.157 98.8429 109.657 100.343C111.157 101.843 112 103.878 112 106C112 110.418 108.418 114 104 114C99.582 114 96 110.418 96 106ZM103.133 106.513C103.133 106.992 103.521 107.38 104 107.38C104.479 107.38 104.867 106.992 104.867 106.513V102.513C104.867 102.035 104.479 101.647 104 101.647C103.521 101.647 103.133 102.035 103.133 102.513V106.513ZM104 112.667C100.318 112.667 97.333 109.682 97.333 106C97.333 102.318 100.318 99.3333 104 99.3333C107.682 99.3333 110.667 102.318 110.667 106C110.667 107.768 109.964 109.464 108.714 110.714C107.464 111.964 105.768 112.667 104 112.667ZM104.967 109.347C104.967 109.899 104.519 110.347 103.967 110.347C103.414 110.347 102.967 109.899 102.967 109.347C102.967 108.794 103.414 108.347 103.967 108.347C104.519 108.347 104.967 108.794 104.967 109.347Z" fill="#E02200"/>
<path d="M121.423 101.814H116.869V104.3H120.972V105.114H116.869V107.743H121.423V108.557H116V101H121.423V101.814ZM124.023 103.981C124.364 103.222 125.178 102.738 126.223 102.738V103.475C124.936 103.475 124.023 104.267 124.023 105.378V108.557H123.198V102.87H124.023V103.981ZM128.585 103.981C128.926 103.222 129.74 102.738 130.785 102.738V103.475C129.498 103.475 128.585 104.267 128.585 105.378V108.557H127.76V102.87H128.585V103.981ZM134.763 108.689C133.146 108.689 131.826 107.347 131.826 105.708C131.826 104.069 133.146 102.738 134.763 102.738C136.369 102.738 137.689 104.069 137.689 105.708C137.689 107.347 136.369 108.689 134.763 108.689ZM134.763 107.952C135.896 107.952 136.831 106.94 136.831 105.708C136.831 104.476 135.896 103.475 134.763 103.475C133.619 103.475 132.684 104.476 132.684 105.708C132.684 106.94 133.619 107.952 134.763 107.952ZM140.135 103.981C140.476 103.222 141.29 102.738 142.335 102.738V103.475C141.048 103.475 140.135 104.267 140.135 105.378V108.557H139.31V102.87H140.135V103.981ZM147.343 108.557V101H148.201L151.006 106.269L153.811 101H154.669V108.557H153.811V102.848L151.006 108.117L148.201 102.848V108.557H147.343ZM159.42 107.952C160.091 107.952 160.861 107.655 161.213 107.27L161.719 107.809C161.224 108.348 160.223 108.689 159.431 108.689C157.913 108.689 156.549 107.446 156.549 105.697C156.549 104.003 157.825 102.738 159.354 102.738C161.07 102.738 162.049 104.036 162.049 106.027H157.396C157.517 107.138 158.298 107.952 159.42 107.952ZM159.387 103.475C158.375 103.475 157.561 104.19 157.407 105.29H161.235C161.125 104.267 160.52 103.475 159.387 103.475ZM165.395 108.689C164.603 108.689 163.723 108.392 163.041 107.842L163.47 107.237C164.119 107.71 164.768 107.952 165.395 107.952C166.143 107.952 166.649 107.6 166.649 107.061C166.649 106.445 165.989 106.247 165.219 106.027C163.844 105.631 163.316 105.224 163.316 104.41C163.316 103.376 164.174 102.738 165.307 102.738C166.011 102.738 166.737 102.98 167.342 103.376L166.946 104.014C166.374 103.651 165.813 103.475 165.307 103.475C164.669 103.475 164.141 103.761 164.141 104.311C164.141 104.806 164.559 104.96 165.615 105.301C166.528 105.587 167.474 105.895 167.474 106.973C167.474 108.018 166.572 108.689 165.395 108.689ZM170.848 108.689C170.056 108.689 169.176 108.392 168.494 107.842L168.923 107.237C169.572 107.71 170.221 107.952 170.848 107.952C171.596 107.952 172.102 107.6 172.102 107.061C172.102 106.445 171.442 106.247 170.672 106.027C169.297 105.631 168.769 105.224 168.769 104.41C168.769 103.376 169.627 102.738 170.76 102.738C171.464 102.738 172.19 102.98 172.795 103.376L172.399 104.014C171.827 103.651 171.266 103.475 170.76 103.475C170.122 103.475 169.594 103.761 169.594 104.311C169.594 104.806 170.012 104.96 171.068 105.301C171.981 105.587 172.927 105.895 172.927 106.973C172.927 108.018 172.025 108.689 170.848 108.689ZM176.576 102.738C178.127 102.738 178.886 103.717 178.886 105.092V108.557H178.061V107.666C177.654 108.337 176.807 108.689 176.059 108.689C174.86 108.689 173.98 107.996 173.98 106.874C173.98 105.741 174.992 104.982 176.213 104.982C176.829 104.982 177.478 105.114 178.061 105.301V105.092C178.061 104.322 177.753 103.442 176.521 103.442C175.949 103.442 175.377 103.695 174.86 103.959L174.53 103.288C175.344 102.881 176.026 102.738 176.576 102.738ZM176.202 107.963C176.95 107.963 177.841 107.578 178.061 106.775V105.906C177.544 105.763 176.961 105.675 176.345 105.675C175.498 105.675 174.783 106.159 174.783 106.841C174.783 107.545 175.399 107.963 176.202 107.963ZM185.055 102.87H185.88V107.952C185.88 109.415 184.725 110.449 183.086 110.449C182.162 110.449 181.304 110.13 180.787 109.69L181.15 109.041C181.59 109.459 182.272 109.712 182.976 109.712C184.285 109.712 185.055 109.063 185.055 107.952V107.028C184.615 107.721 183.889 108.139 182.987 108.139C181.458 108.139 180.369 107.017 180.369 105.433C180.369 103.849 181.458 102.738 182.987 102.738C183.889 102.738 184.615 103.156 185.055 103.849V102.87ZM183.141 107.402C184.263 107.402 185.055 106.588 185.055 105.433C185.055 104.289 184.263 103.475 183.141 103.475C182.03 103.475 181.238 104.289 181.238 105.433C181.238 106.588 182.03 107.402 183.141 107.402ZM190.391 107.952C191.062 107.952 191.832 107.655 192.184 107.27L192.69 107.809C192.195 108.348 191.194 108.689 190.402 108.689C188.884 108.689 187.52 107.446 187.52 105.697C187.52 104.003 188.796 102.738 190.325 102.738C192.041 102.738 193.02 104.036 193.02 106.027H188.367C188.488 107.138 189.269 107.952 190.391 107.952ZM190.358 103.475C189.346 103.475 188.532 104.19 188.378 105.29H192.206C192.096 104.267 191.491 103.475 190.358 103.475Z" fill="#E02200"/>
<path d="M4 0.5H448C449.933 0.5 451.5 2.067 451.5 4V143.5H0.5V4C0.5 2.067 2.067 0.5 4 0.5Z" stroke="#ACB8BE"/>
</g>
<defs>
<clipPath id="clip0_1078_2180">
<rect width="452" height="144" fill="white"/>
</clipPath>
</defs>
</svg>
