<svg width="281" height="60" viewBox="0 0 281 60" fill="none" xmlns="http://www.w3.org/2000/svg">
<path d="M3.34699 22.518H7.93599V24H1.73499V15.069H3.34699V22.518ZM11.8866 17.123C13.6676 17.123 14.7596 18.254 14.7596 19.957V24H13.2126V23.207C12.7186 23.818 11.8866 24.156 11.1066 24.156C9.67661 24.156 8.6106 23.311 8.6106 22.011C8.6106 20.685 9.81961 19.775 11.3406 19.775C11.9516 19.775 12.6016 19.905 13.2126 20.126V19.957C13.2126 19.177 12.7966 18.423 11.5746 18.423C10.9376 18.423 10.3266 18.644 9.75461 18.93L9.20861 17.825C10.1576 17.357 11.0416 17.123 11.8866 17.123ZM11.4576 22.999C12.2246 22.999 13.0436 22.609 13.2126 21.894V21.127C12.7186 20.971 12.1596 20.88 11.5746 20.88C10.7816 20.88 10.1316 21.322 10.1316 21.959C10.1316 22.596 10.7036 22.999 11.4576 22.999ZM20.462 17.123C22.243 17.123 23.556 18.579 23.556 20.633C23.556 22.7 22.243 24.156 20.462 24.156C19.435 24.156 18.603 23.675 18.083 22.856V24H16.497V14.913H18.083V18.41C18.603 17.604 19.435 17.123 20.462 17.123ZM20.033 22.804C21.177 22.804 21.983 21.894 21.983 20.633C21.983 19.372 21.177 18.475 20.033 18.475C18.928 18.475 18.135 19.372 18.135 20.633C18.135 21.894 18.928 22.804 20.033 22.804ZM27.9563 22.882C28.6323 22.882 29.3993 22.596 29.8283 22.18L30.7383 23.116C30.1533 23.74 28.9833 24.156 28.0083 24.156C26.0713 24.156 24.4723 22.687 24.4723 20.62C24.4723 18.592 25.9933 17.123 27.9173 17.123C29.9973 17.123 31.2193 18.657 31.2193 21.101H26.0063C26.1753 22.154 26.9163 22.882 27.9563 22.882ZM27.9303 18.397C26.9683 18.397 26.2273 19.047 26.0193 20.048H29.6853C29.5423 19.099 28.9443 18.397 27.9303 18.397ZM32.5343 24V14.913H34.1203V24H32.5343Z" fill="#4F6169"/>
<path d="M67.917 24V15.069H68.931V24H67.917ZM74.5627 17.123C76.0577 17.123 77.0847 18.176 77.0847 19.723V24H76.1097V19.853C76.1097 18.748 75.4207 17.994 74.4327 17.994C73.2887 17.994 72.3527 18.774 72.3527 19.723V24H71.3777V17.279H72.3527V18.345C72.7427 17.63 73.6007 17.123 74.5627 17.123ZM82.5043 17.123C84.2723 17.123 85.5983 18.579 85.5983 20.633C85.5983 22.7 84.2723 24.156 82.5043 24.156C81.4253 24.156 80.5673 23.623 80.0603 22.739V26.236H79.0853V17.279H80.0603V18.54C80.5673 17.656 81.4253 17.123 82.5043 17.123ZM82.3223 23.285C83.6353 23.285 84.5713 22.18 84.5713 20.633C84.5713 19.086 83.6353 17.994 82.3223 17.994C80.9963 17.994 80.0603 19.086 80.0603 20.633C80.0603 22.18 80.9963 23.285 82.3223 23.285ZM91.8133 17.279H92.7883V24H91.8133V22.934C91.4233 23.649 90.5653 24.156 89.6033 24.156C88.1083 24.156 87.0813 23.103 87.0813 21.556V17.279H88.0563V21.426C88.0563 22.531 88.7453 23.285 89.7333 23.285C90.8773 23.285 91.8133 22.505 91.8133 21.556V17.279ZM97.5449 23.012L98.0259 23.727C97.6749 24 97.2329 24.156 96.7779 24.156C95.8159 24.156 95.1399 23.441 95.1399 22.44V18.15H94.0869V17.279H95.1399V15.433H96.1149V17.279H97.7659V18.15H96.1149V22.44C96.1149 22.934 96.4529 23.285 96.8429 23.285C97.1419 23.285 97.4019 23.168 97.5449 23.012ZM104.665 24L101.805 17.279H102.897L105.133 22.856L107.33 17.279H108.422L105.601 24H104.665ZM111.992 17.123C113.825 17.123 114.722 18.28 114.722 19.905V24H113.747V22.947C113.266 23.74 112.265 24.156 111.381 24.156C109.964 24.156 108.924 23.337 108.924 22.011C108.924 20.672 110.12 19.775 111.563 19.775C112.291 19.775 113.058 19.931 113.747 20.152V19.905C113.747 18.995 113.383 17.955 111.927 17.955C111.251 17.955 110.575 18.254 109.964 18.566L109.574 17.773C110.536 17.292 111.342 17.123 111.992 17.123ZM111.55 23.298C112.434 23.298 113.487 22.843 113.747 21.894V20.867C113.136 20.698 112.447 20.594 111.719 20.594C110.718 20.594 109.873 21.166 109.873 21.972C109.873 22.804 110.601 23.298 111.55 23.298ZM116.724 24V14.913H117.699V24H116.724ZM124.437 17.279H125.412V24H124.437V22.934C124.047 23.649 123.189 24.156 122.227 24.156C120.732 24.156 119.705 23.103 119.705 21.556V17.279H120.68V21.426C120.68 22.531 121.369 23.285 122.357 23.285C123.501 23.285 124.437 22.505 124.437 21.556V17.279ZM130.403 23.285C131.196 23.285 132.106 22.934 132.522 22.479L133.119 23.116C132.535 23.753 131.352 24.156 130.416 24.156C128.622 24.156 127.01 22.687 127.01 20.62C127.01 18.618 128.518 17.123 130.325 17.123C132.353 17.123 133.51 18.657 133.51 21.01H128.011C128.153 22.323 129.077 23.285 130.403 23.285ZM130.364 17.994C129.168 17.994 128.206 18.839 128.024 20.139H132.548C132.418 18.93 131.703 17.994 130.364 17.994Z" fill="#22343C"/>
<path d="M242.5 31H58.5V33H242.5V31Z" fill="#E02200"/>
<path fill-rule="evenodd" clip-rule="evenodd" d="M59 45C59 40.5817 62.582 37 67 37C69.122 37 71.157 37.8429 72.657 39.3431C74.157 40.8434 75 42.8783 75 45C75 49.4183 71.418 53 67 53C62.582 53 59 49.4183 59 45ZM66.133 45.5133C66.133 45.992 66.521 46.38 67 46.38C67.479 46.38 67.867 45.992 67.867 45.5133V41.5133C67.867 41.0347 67.479 40.6467 67 40.6467C66.521 40.6467 66.133 41.0347 66.133 41.5133V45.5133ZM67 51.6667C63.318 51.6667 60.333 48.6819 60.333 45C60.333 41.3181 63.318 38.3333 67 38.3333C70.682 38.3333 73.667 41.3181 73.667 45C73.667 46.7681 72.964 48.4638 71.714 49.714C70.464 50.9643 68.768 51.6667 67 51.6667ZM67.967 48.3467C67.967 48.899 67.519 49.3467 66.967 49.3467C66.414 49.3467 65.967 48.899 65.967 48.3467C65.967 47.7944 66.414 47.3467 66.967 47.3467C67.519 47.3467 67.967 47.7944 67.967 48.3467Z" fill="#E02200"/>
<path d="M84.423 40.814H79.869V43.3H83.972V44.114H79.869V46.743H84.423V47.557H79V40H84.423V40.814ZM87.0232 42.981C87.3642 42.222 88.1782 41.738 89.2232 41.738V42.475C87.9362 42.475 87.0232 43.267 87.0232 44.378V47.557H86.1982V41.87H87.0232V42.981ZM91.5846 42.981C91.9256 42.222 92.7396 41.738 93.7846 41.738V42.475C92.4976 42.475 91.5846 43.267 91.5846 44.378V47.557H90.7596V41.87H91.5846V42.981ZM97.7629 47.689C96.1459 47.689 94.8259 46.347 94.8259 44.708C94.8259 43.069 96.1459 41.738 97.7629 41.738C99.3689 41.738 100.689 43.069 100.689 44.708C100.689 46.347 99.3689 47.689 97.7629 47.689ZM97.7629 46.952C98.8959 46.952 99.8309 45.94 99.8309 44.708C99.8309 43.476 98.8959 42.475 97.7629 42.475C96.6189 42.475 95.6839 43.476 95.6839 44.708C95.6839 45.94 96.6189 46.952 97.7629 46.952ZM103.135 42.981C103.476 42.222 104.29 41.738 105.335 41.738V42.475C104.048 42.475 103.135 43.267 103.135 44.378V47.557H102.31V41.87H103.135V42.981ZM110.343 47.557V40H111.201L114.006 45.269L116.811 40H117.669V47.557H116.811V41.848L114.006 47.117L111.201 41.848V47.557H110.343ZM122.42 46.952C123.091 46.952 123.861 46.655 124.213 46.27L124.719 46.809C124.224 47.348 123.223 47.689 122.431 47.689C120.913 47.689 119.549 46.446 119.549 44.697C119.549 43.003 120.825 41.738 122.354 41.738C124.07 41.738 125.049 43.036 125.049 45.027H120.396C120.517 46.138 121.298 46.952 122.42 46.952ZM122.387 42.475C121.375 42.475 120.561 43.19 120.407 44.29H124.235C124.125 43.267 123.52 42.475 122.387 42.475ZM128.395 47.689C127.603 47.689 126.723 47.392 126.041 46.842L126.47 46.237C127.119 46.71 127.768 46.952 128.395 46.952C129.143 46.952 129.649 46.6 129.649 46.061C129.649 45.445 128.989 45.247 128.219 45.027C126.844 44.631 126.316 44.224 126.316 43.41C126.316 42.376 127.174 41.738 128.307 41.738C129.011 41.738 129.737 41.98 130.342 42.376L129.946 43.014C129.374 42.651 128.813 42.475 128.307 42.475C127.669 42.475 127.141 42.761 127.141 43.311C127.141 43.806 127.559 43.96 128.615 44.301C129.528 44.587 130.474 44.895 130.474 45.973C130.474 47.018 129.572 47.689 128.395 47.689ZM133.848 47.689C133.056 47.689 132.176 47.392 131.494 46.842L131.923 46.237C132.572 46.71 133.221 46.952 133.848 46.952C134.596 46.952 135.102 46.6 135.102 46.061C135.102 45.445 134.442 45.247 133.672 45.027C132.297 44.631 131.769 44.224 131.769 43.41C131.769 42.376 132.627 41.738 133.76 41.738C134.464 41.738 135.19 41.98 135.795 42.376L135.399 43.014C134.827 42.651 134.266 42.475 133.76 42.475C133.122 42.475 132.594 42.761 132.594 43.311C132.594 43.806 133.012 43.96 134.068 44.301C134.981 44.587 135.927 44.895 135.927 45.973C135.927 47.018 135.025 47.689 133.848 47.689ZM139.576 41.738C141.127 41.738 141.886 42.717 141.886 44.092V47.557H141.061V46.666C140.654 47.337 139.807 47.689 139.059 47.689C137.86 47.689 136.98 46.996 136.98 45.874C136.98 44.741 137.992 43.982 139.213 43.982C139.829 43.982 140.478 44.114 141.061 44.301V44.092C141.061 43.322 140.753 42.442 139.521 42.442C138.949 42.442 138.377 42.695 137.86 42.959L137.53 42.288C138.344 41.881 139.026 41.738 139.576 41.738ZM139.202 46.963C139.95 46.963 140.841 46.578 141.061 45.775V44.906C140.544 44.763 139.961 44.675 139.345 44.675C138.498 44.675 137.783 45.159 137.783 45.841C137.783 46.545 138.399 46.963 139.202 46.963ZM148.055 41.87H148.88V46.952C148.88 48.415 147.725 49.449 146.086 49.449C145.162 49.449 144.304 49.13 143.787 48.69L144.15 48.041C144.59 48.459 145.272 48.712 145.976 48.712C147.285 48.712 148.055 48.063 148.055 46.952V46.028C147.615 46.721 146.889 47.139 145.987 47.139C144.458 47.139 143.369 46.017 143.369 44.433C143.369 42.849 144.458 41.738 145.987 41.738C146.889 41.738 147.615 42.156 148.055 42.849V41.87ZM146.141 46.402C147.263 46.402 148.055 45.588 148.055 44.433C148.055 43.289 147.263 42.475 146.141 42.475C145.03 42.475 144.238 43.289 144.238 44.433C144.238 45.588 145.03 46.402 146.141 46.402ZM153.391 46.952C154.062 46.952 154.832 46.655 155.184 46.27L155.69 46.809C155.195 47.348 154.194 47.689 153.402 47.689C151.884 47.689 150.52 46.446 150.52 44.697C150.52 43.003 151.796 41.738 153.325 41.738C155.041 41.738 156.02 43.036 156.02 45.027H151.367C151.488 46.138 152.269 46.952 153.391 46.952ZM153.358 42.475C152.346 42.475 151.532 43.19 151.378 44.29H155.206C155.096 43.267 154.491 42.475 153.358 42.475Z" fill="#E02200"/>
</svg>
