<svg width="452" height="288" viewBox="0 0 452 288" fill="none" xmlns="http://www.w3.org/2000/svg">
<rect x="0.5" y="0.5" width="451" height="287" fill="#FCFDFD"/>
<rect x="0.5" y="0.5" width="451" height="287" stroke="#ACB8BE"/>
<rect x="1" y="1" width="450" height="23" fill="#859399"/>
<path d="M28.488 55.132C26.398 55.132 24.616 53.339 24.616 51.216C24.616 49.093 26.398 47.311 28.488 47.311C29.533 47.311 30.501 47.751 31.205 48.466L30.622 49.06C30.072 48.477 29.313 48.103 28.488 48.103C26.86 48.103 25.485 49.533 25.485 51.216C25.485 52.91 26.86 54.34 28.488 54.34C29.313 54.34 30.072 53.966 30.622 53.383L31.205 53.977C30.501 54.681 29.533 55.132 28.488 55.132ZM33.3982 50.424C33.7392 49.665 34.5532 49.181 35.5982 49.181V49.918C34.3112 49.918 33.3982 50.71 33.3982 51.821V55H32.5732V49.313H33.3982V50.424ZM39.3325 54.395C40.0035 54.395 40.7735 54.098 41.1255 53.713L41.6315 54.252C41.1365 54.791 40.1355 55.132 39.3435 55.132C37.8255 55.132 36.4615 53.889 36.4615 52.14C36.4615 50.446 37.7375 49.181 39.2665 49.181C40.9825 49.181 41.9615 50.479 41.9615 52.47H37.3085C37.4295 53.581 38.2105 54.395 39.3325 54.395ZM39.2995 49.918C38.2875 49.918 37.4735 50.633 37.3195 51.733H41.1475C41.0375 50.71 40.4325 49.918 39.2995 49.918ZM45.3826 49.181C46.9336 49.181 47.6926 50.16 47.6926 51.535V55H46.8676V54.109C46.4606 54.78 45.6136 55.132 44.8656 55.132C43.6666 55.132 42.7866 54.439 42.7866 53.317C42.7866 52.184 43.7986 51.425 45.0196 51.425C45.6356 51.425 46.2846 51.557 46.8676 51.744V51.535C46.8676 50.765 46.5596 49.885 45.3276 49.885C44.7556 49.885 44.1836 50.138 43.6666 50.402L43.3366 49.731C44.1506 49.324 44.8326 49.181 45.3826 49.181ZM45.0086 54.406C45.7566 54.406 46.6476 54.021 46.8676 53.218V52.349C46.3506 52.206 45.7676 52.118 45.1516 52.118C44.3046 52.118 43.5896 52.602 43.5896 53.284C43.5896 53.988 44.2056 54.406 45.0086 54.406ZM51.6707 54.164L52.0777 54.769C51.7807 55 51.4067 55.132 51.0217 55.132C50.2077 55.132 49.6357 54.527 49.6357 53.68V50.05H48.7447V49.313H49.6357V47.751H50.4607V49.313H51.8577V50.05H50.4607V53.68C50.4607 54.098 50.7467 54.395 51.0767 54.395C51.3297 54.395 51.5497 54.296 51.6707 54.164ZM55.6607 54.395C56.3317 54.395 57.1017 54.098 57.4537 53.713L57.9597 54.252C57.4647 54.791 56.4637 55.132 55.6717 55.132C54.1537 55.132 52.7897 53.889 52.7897 52.14C52.7897 50.446 54.0657 49.181 55.5947 49.181C57.3107 49.181 58.2897 50.479 58.2897 52.47H53.6367C53.7577 53.581 54.5387 54.395 55.6607 54.395ZM55.6277 49.918C54.6157 49.918 53.8017 50.633 53.6477 51.733H57.4757C57.3657 50.71 56.7607 49.918 55.6277 49.918ZM64.74 49.181C66.291 49.181 67.05 50.16 67.05 51.535V55H66.225V54.109C65.818 54.78 64.971 55.132 64.223 55.132C63.024 55.132 62.144 54.439 62.144 53.317C62.144 52.184 63.156 51.425 64.377 51.425C64.993 51.425 65.642 51.557 66.225 51.744V51.535C66.225 50.765 65.917 49.885 64.685 49.885C64.113 49.885 63.541 50.138 63.024 50.402L62.694 49.731C63.508 49.324 64.19 49.181 64.74 49.181ZM64.366 54.406C65.114 54.406 66.005 54.021 66.225 53.218V52.349C65.708 52.206 65.125 52.118 64.509 52.118C63.662 52.118 62.947 52.602 62.947 53.284C62.947 53.988 63.563 54.406 64.366 54.406ZM71.2701 55.132C69.6751 55.132 68.3221 53.768 68.3221 52.151C68.3221 50.534 69.6751 49.181 71.2701 49.181C72.0401 49.181 72.7551 49.5 73.2941 50.017L72.7221 50.578C72.3481 50.171 71.8311 49.918 71.2701 49.918C70.1371 49.918 69.1911 50.941 69.1911 52.151C69.1911 53.372 70.1371 54.395 71.2701 54.395C71.8421 54.395 72.3701 54.131 72.7551 53.702L73.3271 54.263C72.7881 54.802 72.0621 55.132 71.2701 55.132ZM76.9742 55.132C75.3792 55.132 74.0262 53.768 74.0262 52.151C74.0262 50.534 75.3792 49.181 76.9742 49.181C77.7442 49.181 78.4592 49.5 78.9982 50.017L78.4262 50.578C78.0522 50.171 77.5352 49.918 76.9742 49.918C75.8412 49.918 74.8952 50.941 74.8952 52.151C74.8952 53.372 75.8412 54.395 76.9742 54.395C77.5462 54.395 78.0742 54.131 78.4592 53.702L79.0312 54.263C78.4922 54.802 77.7662 55.132 76.9742 55.132ZM82.6783 55.132C81.0613 55.132 79.7413 53.79 79.7413 52.151C79.7413 50.512 81.0613 49.181 82.6783 49.181C84.2843 49.181 85.6043 50.512 85.6043 52.151C85.6043 53.79 84.2843 55.132 82.6783 55.132ZM82.6783 54.395C83.8113 54.395 84.7463 53.383 84.7463 52.151C84.7463 50.919 83.8113 49.918 82.6783 49.918C81.5343 49.918 80.5993 50.919 80.5993 52.151C80.5993 53.383 81.5343 54.395 82.6783 54.395ZM90.8974 49.313H91.7224V55H90.8974V54.098C90.5674 54.703 89.8414 55.132 89.0274 55.132C87.7624 55.132 86.8934 54.241 86.8934 52.932V49.313H87.7184V52.822C87.7184 53.757 88.3014 54.395 89.1374 54.395C90.1054 54.395 90.8974 53.735 90.8974 52.932V49.313ZM96.3268 49.181C97.5918 49.181 98.4608 50.072 98.4608 51.381V55H97.6358V51.491C97.6358 50.556 97.0528 49.918 96.2168 49.918C95.2488 49.918 94.4568 50.578 94.4568 51.381V55H93.6318V49.313H94.4568V50.215C94.7868 49.61 95.5128 49.181 96.3268 49.181ZM102.438 54.164L102.845 54.769C102.548 55 102.174 55.132 101.789 55.132C100.975 55.132 100.403 54.527 100.403 53.68V50.05H99.5123V49.313H100.403V47.751H101.228V49.313H102.625V50.05H101.228V53.68C101.228 54.098 101.514 54.395 101.844 54.395C102.097 54.395 102.317 54.296 102.438 54.164Z" fill="#22343C"/>
<path d="M39.6209 37.9861V31.8031H42.4559C43.4549 31.8031 44.1569 32.4421 44.1569 33.3421C44.1569 33.9991 43.8329 34.3771 43.2749 34.7011C43.9859 35.0611 44.3999 35.6191 44.3999 36.2941C44.3999 37.2841 43.6349 37.9861 42.5639 37.9861H39.6209ZM40.3229 34.4221H42.2759C42.9599 34.4221 43.4459 34.0081 43.4459 33.4321C43.4459 32.8561 42.9599 32.4421 42.2759 32.4421H40.3229V34.4221ZM40.3229 37.3471H42.3839C43.1489 37.3471 43.6889 36.8701 43.6889 36.2041C43.6889 35.5381 43.1489 35.0611 42.3839 35.0611H40.3229V37.3471ZM47.4837 33.2251C48.7527 33.2251 49.3737 34.0261 49.3737 35.1511V37.9861H48.6987V37.2571C48.3657 37.8061 47.6727 38.0941 47.0607 38.0941C46.0797 38.0941 45.3597 37.5271 45.3597 36.6091C45.3597 35.6821 46.1877 35.0611 47.1867 35.0611C47.6907 35.0611 48.2217 35.1691 48.6987 35.3221V35.1511C48.6987 34.5211 48.4467 33.8011 47.4387 33.8011C46.9707 33.8011 46.5027 34.0081 46.0797 34.2241L45.8097 33.6751C46.4757 33.3421 47.0337 33.2251 47.4837 33.2251ZM47.1777 37.5001C47.7897 37.5001 48.5187 37.1851 48.6987 36.5281V35.8171C48.2757 35.7001 47.7987 35.6281 47.2947 35.6281C46.6017 35.6281 46.0167 36.0241 46.0167 36.5821C46.0167 37.1581 46.5207 37.5001 47.1777 37.5001ZM52.9128 38.0941C51.6078 38.0941 50.5008 36.9781 50.5008 35.6551C50.5008 34.3321 51.6078 33.2251 52.9128 33.2251C53.5428 33.2251 54.1278 33.4861 54.5688 33.9091L54.1008 34.3681C53.7948 34.0351 53.3718 33.8281 52.9128 33.8281C51.9858 33.8281 51.2118 34.6651 51.2118 35.6551C51.2118 36.6541 51.9858 37.4911 52.9128 37.4911C53.3808 37.4911 53.8128 37.2751 54.1278 36.9241L54.5958 37.3831C54.1548 37.8241 53.5608 38.0941 52.9128 38.0941ZM59.7078 33.3331L57.6108 35.4661L59.5908 37.9861H58.7448L57.1338 35.9251L56.2968 36.7531V37.9861H55.6218V31.6951H56.2968V35.9071L58.8438 33.3331H59.7078Z" fill="#0079B8"/>
<path d="M27.228 31.1259L22.7783 35.6294L27.228 40.1329C27.3377 40.278 27.5214 40.3453 27.6982 40.3052C27.8749 40.2651 28.0121 40.1249 28.0494 39.9464C28.0867 39.768 28.0172 39.584 27.8716 39.4755L24.5424 36.0956H33.4001C33.6558 36.0956 33.8631 35.8869 33.8631 35.6294C33.8631 35.3719 33.6558 35.1632 33.4001 35.1632H24.5424L27.8716 31.7832C28.0518 31.6004 28.0508 31.3051 27.8693 31.1236C27.6877 30.942 27.3944 30.9431 27.2141 31.1259H27.228Z" fill="#0079B8"/>
<path d="M24.5 78C24.5 77.1716 25.1716 76.5 26 76.5H406C406.828 76.5 407.5 77.1716 407.5 78V108.5H24.5V78Z" fill="#E0F6FF" stroke="#CBD4D8"/>
<rect x="24.5" y="189.5" width="383" height="31" fill="white" stroke="#CBD4D8"/>
<rect x="24.5" y="108.5" width="383" height="81" fill="white" stroke="#CBD4D8"/>
<g opacity="0.3">
<rect x="43.0996" y="121" width="40.2094" height="3" rx="1.5" fill="#4F6169"/>
<rect x="99.3926" y="121" width="161.843" height="3" rx="1.5" fill="#4F6169"/>
<rect x="43.0996" y="132" width="48.2513" height="3" rx="1.5" fill="#4F6169"/>
<rect x="99.3926" y="132" width="179.937" height="3" rx="1.5" fill="#4F6169"/>
<rect x="43.0996" y="143" width="40.2094" height="3" rx="1.5" fill="#4F6169"/>
<rect x="99.3926" y="143" width="134.702" height="3" rx="1.5" fill="#4F6169"/>
</g>
<rect x="24.5" y="220.5" width="383" height="31" fill="white" stroke="#CBD4D8"/>
<path d="M44.7196 95V89.672L43.6396 90.374L43.3336 89.852L44.8546 88.817H45.4216V95H44.7196ZM47.4245 95.108C47.1455 95.108 46.9295 94.883 46.9295 94.613C46.9295 94.361 47.1455 94.136 47.4245 94.136C47.6855 94.136 47.9015 94.361 47.9015 94.613C47.9015 94.883 47.6855 95.108 47.4245 95.108ZM57.1265 95.108C55.6145 95.108 54.5435 94.001 54.5435 92.435V88.817H55.2455V92.435C55.2455 93.623 56.0285 94.469 57.1265 94.469C58.2245 94.469 59.0075 93.623 59.0075 92.435V88.817H59.7095V92.435C59.7095 94.001 58.6385 95.108 57.1265 95.108ZM62.8154 95.108C62.1674 95.108 61.4474 94.865 60.8894 94.415L61.2404 93.92C61.7714 94.307 62.3024 94.505 62.8154 94.505C63.4274 94.505 63.8414 94.217 63.8414 93.776C63.8414 93.272 63.3014 93.11 62.6714 92.93C61.5464 92.606 61.1144 92.273 61.1144 91.607C61.1144 90.761 61.8164 90.239 62.7434 90.239C63.3194 90.239 63.9134 90.437 64.4084 90.761L64.0844 91.283C63.6164 90.986 63.1574 90.842 62.7434 90.842C62.2214 90.842 61.7894 91.076 61.7894 91.526C61.7894 91.931 62.1314 92.057 62.9954 92.336C63.7424 92.57 64.5164 92.822 64.5164 93.704C64.5164 94.559 63.7784 95.108 62.8154 95.108ZM67.7302 94.505C68.2792 94.505 68.9092 94.262 69.1972 93.947L69.6112 94.388C69.2062 94.829 68.3872 95.108 67.7392 95.108C66.4972 95.108 65.3812 94.091 65.3812 92.66C65.3812 91.274 66.4252 90.239 67.6762 90.239C69.0802 90.239 69.8812 91.301 69.8812 92.93H66.0742C66.1732 93.839 66.8122 94.505 67.7302 94.505ZM67.7032 90.842C66.8752 90.842 66.2092 91.427 66.0832 92.327H69.2152C69.1252 91.49 68.6302 90.842 67.7032 90.842ZM71.7238 91.256C72.0028 90.635 72.6688 90.239 73.5238 90.239V90.842C72.4708 90.842 71.7238 91.49 71.7238 92.399V95H71.0488V90.347H71.7238V91.256ZM76.6714 90.239C77.6974 90.239 78.4174 90.986 78.4174 92.039V95H77.7424V92.129C77.7424 91.373 77.2654 90.842 76.5814 90.842C75.7984 90.842 75.1414 91.391 75.1414 92.039V95H74.4664V90.347H75.1414V91.094C75.4114 90.599 76.0144 90.239 76.6714 90.239ZM81.6736 90.239C82.9426 90.239 83.5636 91.04 83.5636 92.165V95H82.8886V94.271C82.5556 94.82 81.8626 95.108 81.2506 95.108C80.2696 95.108 79.5496 94.541 79.5496 93.623C79.5496 92.696 80.3776 92.075 81.3766 92.075C81.8806 92.075 82.4116 92.183 82.8886 92.336V92.165C82.8886 91.535 82.6366 90.815 81.6286 90.815C81.1606 90.815 80.6926 91.022 80.2696 91.238L79.9996 90.689C80.6656 90.356 81.2236 90.239 81.6736 90.239ZM81.3676 94.514C81.9796 94.514 82.7086 94.199 82.8886 93.542V92.831C82.4656 92.714 81.9886 92.642 81.4846 92.642C80.7916 92.642 80.2066 93.038 80.2066 93.596C80.2066 94.172 80.7106 94.514 81.3676 94.514ZM89.9738 90.239C90.9458 90.239 91.6298 90.986 91.6298 92.039V95H90.9548V92.129C90.9548 91.373 90.5138 90.842 89.8838 90.842C89.1458 90.842 88.6238 91.337 88.6238 92.039V95H87.9488V92.129C87.9488 91.373 87.5078 90.842 86.8778 90.842C86.1398 90.842 85.6178 91.337 85.6178 92.039V95H84.9428V90.347H85.6178V91.031C85.8518 90.545 86.3558 90.239 86.9678 90.239C87.6698 90.239 88.2188 90.626 88.4708 91.229C88.6598 90.626 89.2718 90.239 89.9738 90.239ZM95.0906 94.505C95.6396 94.505 96.2696 94.262 96.5576 93.947L96.9716 94.388C96.5666 94.829 95.7476 95.108 95.0996 95.108C93.8576 95.108 92.7416 94.091 92.7416 92.66C92.7416 91.274 93.7856 90.239 95.0366 90.239C96.4406 90.239 97.2416 91.301 97.2416 92.93H93.4346C93.5336 93.839 94.1726 94.505 95.0906 94.505ZM95.0636 90.842C94.2356 90.842 93.5696 91.427 93.4436 92.327H96.5756C96.4856 91.49 95.9906 90.842 95.0636 90.842ZM102.846 90.239C104.115 90.239 104.736 91.04 104.736 92.165V95H104.061V94.271C103.728 94.82 103.035 95.108 102.423 95.108C101.442 95.108 100.722 94.541 100.722 93.623C100.722 92.696 101.55 92.075 102.549 92.075C103.053 92.075 103.584 92.183 104.061 92.336V92.165C104.061 91.535 103.809 90.815 102.801 90.815C102.333 90.815 101.865 91.022 101.442 91.238L101.172 90.689C101.838 90.356 102.396 90.239 102.846 90.239ZM102.54 94.514C103.152 94.514 103.881 94.199 104.061 93.542V92.831C103.638 92.714 103.161 92.642 102.657 92.642C101.964 92.642 101.379 93.038 101.379 93.596C101.379 94.172 101.883 94.514 102.54 94.514ZM108.33 90.239C109.356 90.239 110.076 90.986 110.076 92.039V95H109.401V92.129C109.401 91.373 108.924 90.842 108.24 90.842C107.457 90.842 106.8 91.391 106.8 92.039V95H106.125V90.347H106.8V91.094C107.07 90.599 107.673 90.239 108.33 90.239ZM115.078 88.709H115.753V95H115.078V94.127C114.727 94.739 114.133 95.108 113.386 95.108C112.162 95.108 111.244 94.1 111.244 92.669C111.244 91.247 112.162 90.239 113.386 90.239C114.133 90.239 114.727 90.608 115.078 91.22V88.709ZM113.512 94.505C114.43 94.505 115.078 93.74 115.078 92.669C115.078 91.598 114.43 90.842 113.512 90.842C112.603 90.842 111.955 91.598 111.955 92.669C111.955 93.74 112.603 94.505 113.512 94.505ZM122.221 90.239C123.445 90.239 124.363 91.247 124.363 92.669C124.363 94.1 123.445 95.108 122.221 95.108C121.474 95.108 120.88 94.739 120.529 94.127V96.548H119.854V90.347H120.529V91.22C120.88 90.608 121.474 90.239 122.221 90.239ZM122.095 94.505C123.004 94.505 123.652 93.74 123.652 92.669C123.652 91.598 123.004 90.842 122.095 90.842C121.177 90.842 120.529 91.598 120.529 92.669C120.529 93.74 121.177 94.505 122.095 94.505ZM127.421 90.239C128.69 90.239 129.311 91.04 129.311 92.165V95H128.636V94.271C128.303 94.82 127.61 95.108 126.998 95.108C126.017 95.108 125.297 94.541 125.297 93.623C125.297 92.696 126.125 92.075 127.124 92.075C127.628 92.075 128.159 92.183 128.636 92.336V92.165C128.636 91.535 128.384 90.815 127.376 90.815C126.908 90.815 126.44 91.022 126.017 91.238L125.747 90.689C126.413 90.356 126.971 90.239 127.421 90.239ZM127.115 94.514C127.727 94.514 128.456 94.199 128.636 93.542V92.831C128.213 92.714 127.736 92.642 127.232 92.642C126.539 92.642 125.954 93.038 125.954 93.596C125.954 94.172 126.458 94.514 127.115 94.514ZM132.337 95.108C131.689 95.108 130.969 94.865 130.411 94.415L130.762 93.92C131.293 94.307 131.824 94.505 132.337 94.505C132.949 94.505 133.363 94.217 133.363 93.776C133.363 93.272 132.823 93.11 132.193 92.93C131.068 92.606 130.636 92.273 130.636 91.607C130.636 90.761 131.338 90.239 132.265 90.239C132.841 90.239 133.435 90.437 133.93 90.761L133.606 91.283C133.138 90.986 132.679 90.842 132.265 90.842C131.743 90.842 131.311 91.076 131.311 91.526C131.311 91.931 131.653 92.057 132.517 92.336C133.264 92.57 134.038 92.822 134.038 93.704C134.038 94.559 133.3 95.108 132.337 95.108ZM136.802 95.108C136.154 95.108 135.434 94.865 134.876 94.415L135.227 93.92C135.758 94.307 136.289 94.505 136.802 94.505C137.414 94.505 137.828 94.217 137.828 93.776C137.828 93.272 137.288 93.11 136.658 92.93C135.533 92.606 135.101 92.273 135.101 91.607C135.101 90.761 135.803 90.239 136.73 90.239C137.306 90.239 137.9 90.437 138.395 90.761L138.071 91.283C137.603 90.986 137.144 90.842 136.73 90.842C136.208 90.842 135.776 91.076 135.776 91.526C135.776 91.931 136.118 92.057 136.982 92.336C137.729 92.57 138.503 92.822 138.503 93.704C138.503 94.559 137.765 95.108 136.802 95.108ZM140.808 95L139.251 90.347H139.971L141.132 94.1L142.401 90.347H142.986L144.255 94.1L145.416 90.347H146.136L144.57 95H143.931L142.698 91.283L141.447 95H140.808ZM149.101 95.108C147.796 95.108 146.689 93.992 146.689 92.669C146.689 91.346 147.796 90.239 149.101 90.239C150.406 90.239 151.504 91.346 151.504 92.669C151.504 93.992 150.406 95.108 149.101 95.108ZM149.101 94.505C150.019 94.505 150.793 93.668 150.793 92.669C150.793 91.679 150.019 90.842 149.101 90.842C148.174 90.842 147.4 91.679 147.4 92.669C147.4 93.668 148.174 94.505 149.101 94.505ZM153.357 91.256C153.636 90.635 154.302 90.239 155.157 90.239V90.842C154.104 90.842 153.357 91.49 153.357 92.399V95H152.682V90.347H153.357V91.256ZM159.726 88.709H160.401V95H159.726V94.127C159.375 94.739 158.781 95.108 158.034 95.108C156.81 95.108 155.892 94.1 155.892 92.669C155.892 91.247 156.81 90.239 158.034 90.239C158.781 90.239 159.375 90.608 159.726 91.22V88.709ZM158.16 94.505C159.078 94.505 159.726 93.74 159.726 92.669C159.726 91.598 159.078 90.842 158.16 90.842C157.251 90.842 156.603 91.598 156.603 92.669C156.603 93.74 157.251 94.505 158.16 94.505Z" fill="#22343C"/>
<path d="M39.5196 208V207.415L41.7786 205.489C42.6516 204.742 43.0116 204.148 43.0116 203.536C43.0116 202.78 42.3816 202.339 41.7246 202.339C41.0046 202.339 40.4916 202.726 40.0686 203.302L39.5736 202.897C40.0866 202.168 40.7796 201.709 41.7516 201.709C42.8226 201.709 43.7226 202.42 43.7226 203.527C43.7226 204.364 43.3086 205.03 42.2646 205.93L40.6446 207.334H43.7856V208H39.5196ZM45.5304 208.108C45.2514 208.108 45.0354 207.883 45.0354 207.613C45.0354 207.361 45.2514 207.136 45.5304 207.136C45.7914 207.136 46.0074 207.361 46.0074 207.613C46.0074 207.883 45.7914 208.108 45.5304 208.108ZM52.5865 208V201.817H55.0975C56.3755 201.817 57.3745 202.636 57.3745 203.797C57.3745 204.958 56.3755 205.777 55.0975 205.777H53.2885V208H52.5865ZM53.2885 205.111H54.9715C55.9795 205.111 56.6635 204.625 56.6635 203.797C56.6635 202.969 55.9795 202.483 54.9715 202.483H53.2885V205.111ZM60.4485 207.505C60.9975 207.505 61.6275 207.262 61.9155 206.947L62.3295 207.388C61.9245 207.829 61.1055 208.108 60.4575 208.108C59.2155 208.108 58.0995 207.091 58.0995 205.66C58.0995 204.274 59.1435 203.239 60.3945 203.239C61.7985 203.239 62.5995 204.301 62.5995 205.93H58.7925C58.8915 206.839 59.5305 207.505 60.4485 207.505ZM60.4215 203.842C59.5935 203.842 58.9275 204.427 58.8015 205.327H61.9335C61.8435 204.49 61.3485 203.842 60.4215 203.842ZM64.442 204.256C64.721 203.635 65.387 203.239 66.242 203.239V203.842C65.189 203.842 64.442 204.49 64.442 205.399V208H63.767V203.347H64.442V204.256ZM68.8227 208.108C68.1747 208.108 67.4547 207.865 66.8967 207.415L67.2477 206.92C67.7787 207.307 68.3097 207.505 68.8227 207.505C69.4347 207.505 69.8487 207.217 69.8487 206.776C69.8487 206.272 69.3087 206.11 68.6787 205.93C67.5537 205.606 67.1217 205.273 67.1217 204.607C67.1217 203.761 67.8237 203.239 68.7507 203.239C69.3267 203.239 69.9207 203.437 70.4157 203.761L70.0917 204.283C69.6237 203.986 69.1647 203.842 68.7507 203.842C68.2287 203.842 67.7967 204.076 67.7967 204.526C67.7967 204.931 68.1387 205.057 69.0027 205.336C69.7497 205.57 70.5237 205.822 70.5237 206.704C70.5237 207.559 69.7857 208.108 68.8227 208.108ZM73.8005 208.108C72.4955 208.108 71.3885 206.992 71.3885 205.669C71.3885 204.346 72.4955 203.239 73.8005 203.239C75.1055 203.239 76.2035 204.346 76.2035 205.669C76.2035 206.992 75.1055 208.108 73.8005 208.108ZM73.8005 207.505C74.7185 207.505 75.4925 206.668 75.4925 205.669C75.4925 204.679 74.7185 203.842 73.8005 203.842C72.8735 203.842 72.0995 204.679 72.0995 205.669C72.0995 206.668 72.8735 207.505 73.8005 207.505ZM79.5323 203.239C80.5583 203.239 81.2783 203.986 81.2783 205.039V208H80.6033V205.129C80.6033 204.373 80.1263 203.842 79.4423 203.842C78.6593 203.842 78.0023 204.391 78.0023 205.039V208H77.3273V203.347H78.0023V204.094C78.2723 203.599 78.8753 203.239 79.5323 203.239ZM84.5344 203.239C85.8034 203.239 86.4244 204.04 86.4244 205.165V208H85.7494V207.271C85.4164 207.82 84.7234 208.108 84.1114 208.108C83.1304 208.108 82.4104 207.541 82.4104 206.623C82.4104 205.696 83.2384 205.075 84.2374 205.075C84.7414 205.075 85.2724 205.183 85.7494 205.336V205.165C85.7494 204.535 85.4974 203.815 84.4894 203.815C84.0214 203.815 83.5534 204.022 83.1304 204.238L82.8604 203.689C83.5264 203.356 84.0844 203.239 84.5344 203.239ZM84.2284 207.514C84.8404 207.514 85.5694 207.199 85.7494 206.542V205.831C85.3264 205.714 84.8494 205.642 84.3454 205.642C83.6524 205.642 83.0674 206.038 83.0674 206.596C83.0674 207.172 83.5714 207.514 84.2284 207.514ZM87.8036 208V201.709H88.4786V208H87.8036ZM92.786 202.501C92.534 202.501 92.336 202.294 92.336 202.051C92.336 201.817 92.534 201.61 92.786 201.61C93.029 201.61 93.227 201.817 93.227 202.051C93.227 202.294 93.029 202.501 92.786 202.501ZM92.444 208V203.347H93.119V208H92.444ZM96.6885 203.239C97.7145 203.239 98.4345 203.986 98.4345 205.039V208H97.7595V205.129C97.7595 204.373 97.2825 203.842 96.5985 203.842C95.8155 203.842 95.1585 204.391 95.1585 205.039V208H94.4835V203.347H95.1585V204.094C95.4285 203.599 96.0315 203.239 96.6885 203.239ZM100.854 202.708V203.347H101.997V203.95H100.854V208H100.179V203.95H99.4497V203.347H100.179V202.708C100.179 202.015 100.647 201.52 101.313 201.52C101.628 201.52 101.934 201.628 102.177 201.817L101.844 202.312C101.745 202.204 101.565 202.123 101.358 202.123C101.088 202.123 100.854 202.366 100.854 202.708ZM105.116 208.108C103.811 208.108 102.704 206.992 102.704 205.669C102.704 204.346 103.811 203.239 105.116 203.239C106.421 203.239 107.519 204.346 107.519 205.669C107.519 206.992 106.421 208.108 105.116 208.108ZM105.116 207.505C106.034 207.505 106.808 206.668 106.808 205.669C106.808 204.679 106.034 203.842 105.116 203.842C104.189 203.842 103.415 204.679 103.415 205.669C103.415 206.668 104.189 207.505 105.116 207.505ZM109.372 204.256C109.651 203.635 110.317 203.239 111.172 203.239V203.842C110.119 203.842 109.372 204.49 109.372 205.399V208H108.697V203.347H109.372V204.256ZM117.136 203.239C118.108 203.239 118.792 203.986 118.792 205.039V208H118.117V205.129C118.117 204.373 117.676 203.842 117.046 203.842C116.308 203.842 115.786 204.337 115.786 205.039V208H115.111V205.129C115.111 204.373 114.67 203.842 114.04 203.842C113.302 203.842 112.78 204.337 112.78 205.039V208H112.105V203.347H112.78V204.031C113.014 203.545 113.518 203.239 114.13 203.239C114.832 203.239 115.381 203.626 115.633 204.229C115.822 203.626 116.434 203.239 117.136 203.239ZM122.046 203.239C123.315 203.239 123.936 204.04 123.936 205.165V208H123.261V207.271C122.928 207.82 122.235 208.108 121.623 208.108C120.642 208.108 119.922 207.541 119.922 206.623C119.922 205.696 120.75 205.075 121.749 205.075C122.253 205.075 122.784 205.183 123.261 205.336V205.165C123.261 204.535 123.009 203.815 122.001 203.815C121.533 203.815 121.065 204.022 120.642 204.238L120.372 203.689C121.038 203.356 121.596 203.239 122.046 203.239ZM121.74 207.514C122.352 207.514 123.081 207.199 123.261 206.542V205.831C122.838 205.714 122.361 205.642 121.857 205.642C121.164 205.642 120.579 206.038 120.579 206.596C120.579 207.172 121.083 207.514 121.74 207.514ZM127.358 207.316L127.691 207.811C127.448 208 127.142 208.108 126.827 208.108C126.161 208.108 125.693 207.613 125.693 206.92V203.95H124.964V203.347H125.693V202.069H126.368V203.347H127.511V203.95H126.368V206.92C126.368 207.262 126.602 207.505 126.872 207.505C127.079 207.505 127.259 207.424 127.358 207.316ZM128.979 202.501C128.727 202.501 128.529 202.294 128.529 202.051C128.529 201.817 128.727 201.61 128.979 201.61C129.222 201.61 129.42 201.817 129.42 202.051C129.42 202.294 129.222 202.501 128.979 202.501ZM128.637 208V203.347H129.312V208H128.637ZM132.828 208.108C131.523 208.108 130.416 206.992 130.416 205.669C130.416 204.346 131.523 203.239 132.828 203.239C134.133 203.239 135.231 204.346 135.231 205.669C135.231 206.992 134.133 208.108 132.828 208.108ZM132.828 207.505C133.746 207.505 134.52 206.668 134.52 205.669C134.52 204.679 133.746 203.842 132.828 203.842C131.901 203.842 131.127 204.679 131.127 205.669C131.127 206.668 131.901 207.505 132.828 207.505ZM138.56 203.239C139.586 203.239 140.306 203.986 140.306 205.039V208H139.631V205.129C139.631 204.373 139.154 203.842 138.47 203.842C137.687 203.842 137.03 204.391 137.03 205.039V208H136.355V203.347H137.03V204.094C137.3 203.599 137.903 203.239 138.56 203.239Z" fill="#22343C"/>
<path d="M41.6886 239.108C40.6716 239.108 39.8886 238.64 39.4386 238.046L39.9246 237.587C40.3296 238.109 40.9326 238.469 41.6886 238.469C42.5526 238.469 43.1286 237.992 43.1286 237.29C43.1286 236.561 42.5076 236.192 41.5356 236.192H40.8786V235.544L41.5446 235.553C42.3726 235.562 42.9936 235.166 42.9936 234.464C42.9936 233.816 42.3996 233.348 41.6256 233.348C40.9416 233.348 40.4556 233.69 40.0146 234.221L39.5466 233.798C40.0146 233.177 40.6986 232.709 41.6616 232.709C42.8406 232.709 43.7046 233.393 43.7046 234.383C43.7046 235.175 43.1466 235.643 42.5076 235.832C43.1376 235.976 43.8396 236.435 43.8396 237.326C43.8396 238.361 42.9756 239.108 41.6886 239.108ZM45.5041 239.108C45.2251 239.108 45.0091 238.883 45.0091 238.613C45.0091 238.361 45.2251 238.136 45.5041 238.136C45.7651 238.136 45.9811 238.361 45.9811 238.613C45.9811 238.883 45.7651 239.108 45.5041 239.108ZM52.5601 239V232.817H55.0711C56.3491 232.817 57.3481 233.636 57.3481 234.797C57.3481 235.958 56.3491 236.777 55.0711 236.777H53.2621V239H52.5601ZM53.2621 236.111H54.9451C55.9531 236.111 56.6371 235.625 56.6371 234.797C56.6371 233.969 55.9531 233.483 54.9451 233.483H53.2621V236.111ZM59.0631 235.256C59.3421 234.635 60.0081 234.239 60.8631 234.239V234.842C59.8101 234.842 59.0631 235.49 59.0631 236.399V239H58.3881V234.347H59.0631V235.256ZM63.8938 238.505C64.4428 238.505 65.0728 238.262 65.3608 237.947L65.7748 238.388C65.3698 238.829 64.5508 239.108 63.9028 239.108C62.6608 239.108 61.5448 238.091 61.5448 236.66C61.5448 235.274 62.5888 234.239 63.8398 234.239C65.2438 234.239 66.0448 235.301 66.0448 236.93H62.2378C62.3368 237.839 62.9758 238.505 63.8938 238.505ZM63.8668 234.842C63.0388 234.842 62.3728 235.427 62.2468 236.327H65.3788C65.2888 235.49 64.7938 234.842 63.8668 234.842ZM68.2023 233.708V234.347H69.3453V234.95H68.2023V239H67.5273V234.95H66.7983V234.347H67.5273V233.708C67.5273 233.015 67.9953 232.52 68.6613 232.52C68.9763 232.52 69.2823 232.628 69.5253 232.817L69.1923 233.312C69.0933 233.204 68.9133 233.123 68.7063 233.123C68.4363 233.123 68.2023 233.366 68.2023 233.708ZM72.4016 238.505C72.9506 238.505 73.5806 238.262 73.8686 237.947L74.2826 238.388C73.8776 238.829 73.0586 239.108 72.4106 239.108C71.1686 239.108 70.0526 238.091 70.0526 236.66C70.0526 235.274 71.0966 234.239 72.3476 234.239C73.7516 234.239 74.5526 235.301 74.5526 236.93H70.7456C70.8446 237.839 71.4836 238.505 72.4016 238.505ZM72.3746 234.842C71.5466 234.842 70.8806 235.427 70.7546 236.327H73.8866C73.7966 235.49 73.3016 234.842 72.3746 234.842ZM76.3951 235.256C76.6741 234.635 77.3401 234.239 78.1951 234.239V234.842C77.1421 234.842 76.3951 235.49 76.3951 236.399V239H75.7201V234.347H76.3951V235.256ZM81.2258 238.505C81.7748 238.505 82.4048 238.262 82.6928 237.947L83.1068 238.388C82.7018 238.829 81.8828 239.108 81.2348 239.108C79.9928 239.108 78.8768 238.091 78.8768 236.66C78.8768 235.274 79.9208 234.239 81.1718 234.239C82.5758 234.239 83.3768 235.301 83.3768 236.93H79.5698C79.6688 237.839 80.3078 238.505 81.2258 238.505ZM81.1988 234.842C80.3708 234.842 79.7048 235.427 79.5788 236.327H82.7108C82.6208 235.49 82.1258 234.842 81.1988 234.842ZM86.6954 234.239C87.7214 234.239 88.4414 234.986 88.4414 236.039V239H87.7664V236.129C87.7664 235.373 87.2894 234.842 86.6054 234.842C85.8224 234.842 85.1654 235.391 85.1654 236.039V239H84.4904V234.347H85.1654V235.094C85.4354 234.599 86.0384 234.239 86.6954 234.239ZM91.9675 239.108C90.6625 239.108 89.5555 237.992 89.5555 236.669C89.5555 235.346 90.6625 234.239 91.9675 234.239C92.5975 234.239 93.1825 234.5 93.6235 234.923L93.1555 235.382C92.8495 235.049 92.4265 234.842 91.9675 234.842C91.0405 234.842 90.2665 235.679 90.2665 236.669C90.2665 237.668 91.0405 238.505 91.9675 238.505C92.4355 238.505 92.8675 238.289 93.1825 237.938L93.6505 238.397C93.2095 238.838 92.6155 239.108 91.9675 239.108ZM96.7825 238.505C97.3315 238.505 97.9615 238.262 98.2495 237.947L98.6635 238.388C98.2585 238.829 97.4395 239.108 96.7915 239.108C95.5495 239.108 94.4335 238.091 94.4335 236.66C94.4335 235.274 95.4775 234.239 96.7285 234.239C98.1325 234.239 98.9335 235.301 98.9335 236.93H95.1265C95.2255 237.839 95.8645 238.505 96.7825 238.505ZM96.7555 234.842C95.9275 234.842 95.2615 235.427 95.1355 236.327H98.2675C98.1775 235.49 97.6825 234.842 96.7555 234.842ZM101.685 239.108C101.037 239.108 100.317 238.865 99.759 238.415L100.11 237.92C100.641 238.307 101.172 238.505 101.685 238.505C102.297 238.505 102.711 238.217 102.711 237.776C102.711 237.272 102.171 237.11 101.541 236.93C100.416 236.606 99.984 236.273 99.984 235.607C99.984 234.761 100.686 234.239 101.613 234.239C102.189 234.239 102.783 234.437 103.278 234.761L102.954 235.283C102.486 234.986 102.027 234.842 101.613 234.842C101.091 234.842 100.659 235.076 100.659 235.526C100.659 235.931 101.001 236.057 101.865 236.336C102.612 236.57 103.386 236.822 103.386 237.704C103.386 238.559 102.648 239.108 101.685 239.108Z" fill="#22343C"/>
<rect x="43.5996" y="157.5" width="47.2513" height="18" rx="1.5" stroke="#0079AD"/>
<path d="M57.4034 169V164.191H58.2784L60.8194 167.572V164.191H61.6874V169H60.8194L58.2784 165.619V169H57.4034ZM66.8667 164.989H64.1227V166.151H66.6077V166.949H64.1227V168.202H66.8667V169H63.2477V164.191H66.8667V164.989ZM72.4817 164.191L70.6967 166.592L72.4817 169H71.4457L70.1787 167.292L68.9047 169H67.8757L69.6607 166.599L67.8757 164.191H68.9187L70.1857 165.899L71.4597 164.191H72.4817ZM74.9489 169V164.989H73.4089V164.191H77.3569V164.989H75.8169V169H74.9489Z" fill="#0079AD"/>
</svg>
