<svg width="452" height="288" viewBox="0 0 452 288" fill="none" xmlns="http://www.w3.org/2000/svg">
<rect x="0.5" y="0.5" width="451" height="287" fill="#FCFDFD"/>
<rect x="0.5" y="0.5" width="451" height="287" stroke="#ACB8BE"/>
<rect x="1" y="1" width="450" height="23" fill="#859399"/>
<g filter="url(#filter0_d_11235_5431)">
<rect x="42.0938" y="57" width="348.775" height="34" rx="3" fill="white" shape-rendering="crispEdges"/>
<rect x="42.5938" y="57.5" width="347.775" height="33" rx="2.5" stroke="#ACB8BE" shape-rendering="crispEdges"/>
<path fill-rule="evenodd" clip-rule="evenodd" d="M59.132 64.6667C53.9658 64.6667 49.7778 68.8454 49.7778 74.0001C49.7778 79.1547 53.9658 83.3334 59.132 83.3334C64.2981 83.3334 68.4861 79.1547 68.4861 74.0001C68.4861 71.5247 67.5005 69.1508 65.7463 67.4004C63.9921 65.6501 61.6128 64.6667 59.132 64.6667ZM59.132 81.7779C54.8268 81.7779 51.3369 78.2956 51.3369 74.0001C51.3369 69.7045 54.8268 66.2223 59.132 66.2223C63.4371 66.2223 66.927 69.7045 66.927 74.0001C66.927 76.0629 66.1058 78.0412 64.6439 79.4998C63.1821 80.9584 61.1993 81.7779 59.132 81.7779ZM53.9404 74.5756L57.838 78.4645L64.2221 72.0945C64.487 71.7859 64.4692 71.3259 64.1813 71.0386C63.8933 70.7514 63.4323 70.7336 63.123 70.9979L57.838 76.2712L55.0395 73.479C54.7302 73.2147 54.2692 73.2325 53.9813 73.5198C53.6934 73.807 53.6756 74.267 53.9404 74.5756Z" fill="#41800E"/>
<rect opacity="0.4" x="80.1782" y="72" width="105.234" height="3" rx="1.5" fill="#4F6169"/>
<rect x="346.594" y="64.5" width="37" height="19" rx="1" stroke="#0079AD"/>
<path d="M360.4 71.989H357.656V73.151H360.141V73.949H357.656V75.202H360.4V76H356.781V71.191H360.4V71.989ZM361.801 76V71.191H363.495C365.084 71.191 366.204 72.185 366.204 73.592C366.204 74.999 365.084 76 363.495 76H361.801ZM362.676 75.209H363.586C364.601 75.209 365.315 74.537 365.315 73.592C365.315 72.647 364.601 71.982 363.586 71.982H362.676V75.209ZM367.577 76V71.191H368.445V76H367.577ZM371.245 76V71.989H369.705V71.191H373.653V71.989H372.113V76H371.245Z" fill="#0079AD"/>
</g>
<g filter="url(#filter1_d_11235_5431)">
<rect x="42.0938" y="99" width="348.775" height="34" rx="3" fill="white" shape-rendering="crispEdges"/>
<rect x="42.5938" y="99.5" width="347.775" height="33" rx="2.5" stroke="#ACB8BE" shape-rendering="crispEdges"/>
<path fill-rule="evenodd" clip-rule="evenodd" d="M59.132 106.667C53.9658 106.667 49.7778 110.845 49.7778 116C49.7778 121.155 53.9658 125.333 59.132 125.333C64.2981 125.333 68.4861 121.155 68.4861 116C68.4861 113.525 67.5005 111.151 65.7463 109.4C63.9921 107.65 61.6128 106.667 59.132 106.667ZM59.132 123.778C54.8268 123.778 51.3369 120.296 51.3369 116C51.3369 111.705 54.8268 108.222 59.132 108.222C63.4371 108.222 66.927 111.705 66.927 116C66.927 118.063 66.1058 120.041 64.6439 121.5C63.1821 122.958 61.1993 123.778 59.132 123.778ZM53.9404 116.576L57.838 120.465L64.2221 114.095C64.487 113.786 64.4692 113.326 64.1813 113.039C63.8933 112.751 63.4323 112.734 63.123 112.998L57.838 118.271L55.0395 115.479C54.7302 115.215 54.2692 115.232 53.9813 115.52C53.6934 115.807 53.6756 116.267 53.9404 116.576Z" fill="#41800E"/>
<rect opacity="0.4" x="80.1782" y="114" width="105.234" height="3" rx="1.5" fill="#4F6169"/>
<rect x="346.311" y="106.5" width="37" height="19" rx="1" stroke="#0079AD"/>
<path d="M360.117 113.989H357.373V115.151H359.858V115.949H357.373V117.202H360.117V118H356.498V113.191H360.117V113.989ZM361.518 118V113.191H363.212C364.801 113.191 365.921 114.185 365.921 115.592C365.921 116.999 364.801 118 363.212 118H361.518ZM362.393 117.209H363.303C364.318 117.209 365.032 116.537 365.032 115.592C365.032 114.647 364.318 113.982 363.303 113.982H362.393V117.209ZM367.295 118V113.191H368.163V118H367.295ZM370.962 118V113.989H369.422V113.191H373.37V113.989H371.83V118H370.962Z" fill="#0079AD"/>
</g>
<g filter="url(#filter2_d_11235_5431)">
<rect x="42.0938" y="141" width="348.775" height="34" rx="3" fill="white" shape-rendering="crispEdges"/>
<rect x="42.5938" y="141.5" width="347.775" height="33" rx="2.5" stroke="#ACB8BE" shape-rendering="crispEdges"/>
<path d="M57.7038 161.108C56.6868 161.108 55.9038 160.64 55.4538 160.046L55.9398 159.587C56.3448 160.109 56.9478 160.469 57.7038 160.469C58.5678 160.469 59.1438 159.992 59.1438 159.29C59.1438 158.561 58.5228 158.192 57.5508 158.192H56.8938V157.544L57.5598 157.553C58.3878 157.562 59.0088 157.166 59.0088 156.464C59.0088 155.816 58.4148 155.348 57.6408 155.348C56.9568 155.348 56.4708 155.69 56.0298 156.221L55.5618 155.798C56.0298 155.177 56.7138 154.709 57.6768 154.709C58.8558 154.709 59.7197 155.393 59.7197 156.383C59.7197 157.175 59.1618 157.643 58.5228 157.832C59.1528 157.976 59.8548 158.435 59.8548 159.326C59.8548 160.361 58.9908 161.108 57.7038 161.108ZM61.5192 161.108C61.2402 161.108 61.0242 160.883 61.0242 160.613C61.0242 160.361 61.2402 160.136 61.5192 160.136C61.7802 160.136 61.9962 160.361 61.9962 160.613C61.9962 160.883 61.7802 161.108 61.5192 161.108Z" fill="#22343C"/>
<path d="M313.412 160.077C312.586 160.077 311.886 159.797 311.354 159.3L311.858 158.677C312.299 159.076 312.81 159.328 313.44 159.328C314.035 159.328 314.343 159.034 314.343 158.691C314.343 158.292 314 158.159 313.23 157.977C312.236 157.746 311.543 157.459 311.543 156.556C311.543 155.716 312.257 155.1 313.272 155.1C314.035 155.1 314.609 155.359 315.092 155.772L314.616 156.416C314.196 156.052 313.713 155.849 313.237 155.849C312.754 155.849 312.425 156.143 312.425 156.479C312.425 156.871 312.782 157.011 313.545 157.186C314.546 157.41 315.218 157.732 315.218 158.607C315.218 159.468 314.56 160.077 313.412 160.077ZM316.572 160V155.191H317.447V157.543L319.554 155.191H320.625L318.7 157.312L320.765 160H319.687L318.098 157.928L317.447 158.628V160H316.572ZM321.828 160V155.191H322.696V160H321.828ZM324.201 160V155.191H326.294C327.323 155.191 328.093 155.849 328.093 156.787C328.093 157.725 327.323 158.383 326.294 158.383H325.076V160H324.201ZM325.076 157.578H326.196C326.791 157.578 327.204 157.277 327.204 156.787C327.204 156.297 326.791 155.996 326.196 155.996H325.076V157.578Z" fill="#0079AD"/>
<rect opacity="0.4" x="80.1782" y="156" width="105.234" height="3" rx="1.5" fill="#4F6169"/>
<rect x="338.803" y="148" width="45" height="20" rx="1.5" fill="#0079AD"/>
<path d="M351.166 160.077C350.34 160.077 349.64 159.797 349.108 159.3L349.612 158.677C350.053 159.076 350.564 159.328 351.194 159.328C351.789 159.328 352.097 159.034 352.097 158.691C352.097 158.292 351.754 158.159 350.984 157.977C349.99 157.746 349.297 157.459 349.297 156.556C349.297 155.716 350.011 155.1 351.026 155.1C351.789 155.1 352.363 155.359 352.846 155.772L352.37 156.416C351.95 156.052 351.467 155.849 350.991 155.849C350.508 155.849 350.179 156.143 350.179 156.479C350.179 156.871 350.536 157.011 351.299 157.186C352.3 157.41 352.972 157.732 352.972 158.607C352.972 159.468 352.314 160.077 351.166 160.077ZM355.564 160V155.989H354.024V155.191H357.972V155.989H356.432V160H355.564ZM362.477 160L362.113 159.132H359.789L359.425 160H358.452L360.461 155.191H361.434L363.443 160H362.477ZM360.104 158.376H361.798L360.951 156.353L360.104 158.376ZM368.514 160H367.52L366.386 158.383H365.455V160H364.58V155.191H366.673C367.702 155.191 368.472 155.849 368.472 156.787C368.472 157.515 368.003 158.075 367.31 158.292L368.514 160ZM365.455 155.996V157.578H366.575C367.17 157.578 367.583 157.277 367.583 156.787C367.583 156.297 367.17 155.996 366.575 155.996H365.455ZM371.058 160V155.989H369.518V155.191H373.466V155.989H371.926V160H371.058Z" fill="white"/>
</g>
<g filter="url(#filter3_d_11235_5431)">
<rect x="42.0938" y="183" width="348.775" height="34" rx="3" fill="white" shape-rendering="crispEdges"/>
<rect x="42.5938" y="183.5" width="347.775" height="33" rx="2.5" stroke="#ACB8BE" shape-rendering="crispEdges"/>
<rect opacity="0.4" x="80.1782" y="198" width="105.234" height="3" rx="1.5" fill="#4F6169"/>
<rect x="338.803" y="190" width="45" height="20" rx="1.5" fill="#0079AD"/>
<path d="M351.166 202.077C350.34 202.077 349.64 201.797 349.108 201.3L349.612 200.677C350.053 201.076 350.564 201.328 351.194 201.328C351.789 201.328 352.097 201.034 352.097 200.691C352.097 200.292 351.754 200.159 350.984 199.977C349.99 199.746 349.297 199.459 349.297 198.556C349.297 197.716 350.011 197.1 351.026 197.1C351.789 197.1 352.363 197.359 352.846 197.772L352.37 198.416C351.95 198.052 351.467 197.849 350.991 197.849C350.508 197.849 350.179 198.143 350.179 198.479C350.179 198.871 350.536 199.011 351.299 199.186C352.3 199.41 352.972 199.732 352.972 200.607C352.972 201.468 352.314 202.077 351.166 202.077ZM355.564 202V197.989H354.024V197.191H357.972V197.989H356.432V202H355.564ZM362.477 202L362.113 201.132H359.789L359.425 202H358.452L360.461 197.191H361.434L363.443 202H362.477ZM360.104 200.376H361.798L360.951 198.353L360.104 200.376ZM368.514 202H367.52L366.386 200.383H365.455V202H364.58V197.191H366.673C367.702 197.191 368.472 197.849 368.472 198.787C368.472 199.515 368.003 200.075 367.31 200.292L368.514 202ZM365.455 197.996V199.578H366.575C367.17 199.578 367.583 199.277 367.583 198.787C367.583 198.297 367.17 197.996 366.575 197.996H365.455ZM371.058 202V197.989H369.518V197.191H373.466V197.989H371.926V202H371.058Z" fill="white"/>
<path d="M313.412 202.077C312.586 202.077 311.886 201.797 311.354 201.3L311.858 200.677C312.299 201.076 312.81 201.328 313.44 201.328C314.035 201.328 314.343 201.034 314.343 200.691C314.343 200.292 314 200.159 313.23 199.977C312.236 199.746 311.543 199.459 311.543 198.556C311.543 197.716 312.257 197.1 313.272 197.1C314.035 197.1 314.609 197.359 315.092 197.772L314.616 198.416C314.196 198.052 313.713 197.849 313.237 197.849C312.754 197.849 312.425 198.143 312.425 198.479C312.425 198.871 312.782 199.011 313.545 199.186C314.546 199.41 315.218 199.732 315.218 200.607C315.218 201.468 314.56 202.077 313.412 202.077ZM316.572 202V197.191H317.447V199.543L319.554 197.191H320.625L318.7 199.312L320.765 202H319.687L318.098 199.928L317.447 200.628V202H316.572ZM321.828 202V197.191H322.696V202H321.828ZM324.201 202V197.191H326.294C327.323 197.191 328.093 197.849 328.093 198.787C328.093 199.725 327.323 200.383 326.294 200.383H325.076V202H324.201ZM325.076 199.578H326.196C326.791 199.578 327.204 199.277 327.204 198.787C327.204 198.297 326.791 197.996 326.196 197.996H325.076V199.578Z" fill="#0079AD"/>
<path d="M58.6596 203V201.497H55.5726L55.4826 200.912L58.5516 196.817H59.3616V200.858H60.2886V201.497H59.3616V203H58.6596ZM56.2836 200.858H58.6596V197.663L56.2836 200.858ZM61.882 203.108C61.603 203.108 61.387 202.883 61.387 202.613C61.387 202.361 61.603 202.136 61.882 202.136C62.143 202.136 62.359 202.361 62.359 202.613C62.359 202.883 62.143 203.108 61.882 203.108Z" fill="#22343C"/>
</g>
<defs>
<filter id="filter0_d_11235_5431" x="40.0938" y="57" width="352.775" height="38" filterUnits="userSpaceOnUse" color-interpolation-filters="sRGB">
<feFlood flood-opacity="0" result="BackgroundImageFix"/>
<feColorMatrix in="SourceAlpha" type="matrix" values="0 0 0 0 0 0 0 0 0 0 0 0 0 0 0 0 0 0 127 0" result="hardAlpha"/>
<feOffset dy="2"/>
<feGaussianBlur stdDeviation="1"/>
<feComposite in2="hardAlpha" operator="out"/>
<feColorMatrix type="matrix" values="0 0 0 0 0 0 0 0 0 0 0 0 0 0 0 0 0 0 0.15 0"/>
<feBlend mode="normal" in2="BackgroundImageFix" result="effect1_dropShadow_11235_5431"/>
<feBlend mode="normal" in="SourceGraphic" in2="effect1_dropShadow_11235_5431" result="shape"/>
</filter>
<filter id="filter1_d_11235_5431" x="40.0938" y="99" width="352.775" height="38" filterUnits="userSpaceOnUse" color-interpolation-filters="sRGB">
<feFlood flood-opacity="0" result="BackgroundImageFix"/>
<feColorMatrix in="SourceAlpha" type="matrix" values="0 0 0 0 0 0 0 0 0 0 0 0 0 0 0 0 0 0 127 0" result="hardAlpha"/>
<feOffset dy="2"/>
<feGaussianBlur stdDeviation="1"/>
<feComposite in2="hardAlpha" operator="out"/>
<feColorMatrix type="matrix" values="0 0 0 0 0 0 0 0 0 0 0 0 0 0 0 0 0 0 0.15 0"/>
<feBlend mode="normal" in2="BackgroundImageFix" result="effect1_dropShadow_11235_5431"/>
<feBlend mode="normal" in="SourceGraphic" in2="effect1_dropShadow_11235_5431" result="shape"/>
</filter>
<filter id="filter2_d_11235_5431" x="40.0938" y="141" width="352.775" height="38" filterUnits="userSpaceOnUse" color-interpolation-filters="sRGB">
<feFlood flood-opacity="0" result="BackgroundImageFix"/>
<feColorMatrix in="SourceAlpha" type="matrix" values="0 0 0 0 0 0 0 0 0 0 0 0 0 0 0 0 0 0 127 0" result="hardAlpha"/>
<feOffset dy="2"/>
<feGaussianBlur stdDeviation="1"/>
<feComposite in2="hardAlpha" operator="out"/>
<feColorMatrix type="matrix" values="0 0 0 0 0 0 0 0 0 0 0 0 0 0 0 0 0 0 0.15 0"/>
<feBlend mode="normal" in2="BackgroundImageFix" result="effect1_dropShadow_11235_5431"/>
<feBlend mode="normal" in="SourceGraphic" in2="effect1_dropShadow_11235_5431" result="shape"/>
</filter>
<filter id="filter3_d_11235_5431" x="40.0938" y="183" width="352.775" height="38" filterUnits="userSpaceOnUse" color-interpolation-filters="sRGB">
<feFlood flood-opacity="0" result="BackgroundImageFix"/>
<feColorMatrix in="SourceAlpha" type="matrix" values="0 0 0 0 0 0 0 0 0 0 0 0 0 0 0 0 0 0 127 0" result="hardAlpha"/>
<feOffset dy="2"/>
<feGaussianBlur stdDeviation="1"/>
<feComposite in2="hardAlpha" operator="out"/>
<feColorMatrix type="matrix" values="0 0 0 0 0 0 0 0 0 0 0 0 0 0 0 0 0 0 0.15 0"/>
<feBlend mode="normal" in2="BackgroundImageFix" result="effect1_dropShadow_11235_5431"/>
<feBlend mode="normal" in="SourceGraphic" in2="effect1_dropShadow_11235_5431" result="shape"/>
</filter>
</defs>
</svg>
