<svg width="452" height="288" viewBox="0 0 452 288" fill="none" xmlns="http://www.w3.org/2000/svg">
<rect x="0.5" y="0.5" width="451" height="287" fill="#F1F6F8"/>
<rect x="0.5" y="0.5" width="451" height="287" stroke="#ACB8BE"/>
<rect y="1" width="452" height="23" fill="#859399"/>
<g clip-path="url(#clip0_11212_4940)">
<rect width="369" height="263" transform="translate(82 24)" fill="#FCFDFD"/>
<path d="M293.59 143.535C290.23 143.535 287.5 140.95 287.5 137.768C287.5 134.585 290.23 132 293.59 132C296.951 132 299.681 134.585 299.681 137.768C299.681 140.95 296.951 143.535 293.59 143.535ZM293.59 133.591C291.14 133.591 289.18 135.447 289.18 137.768C289.18 140.088 291.14 141.944 293.59 141.944C296.041 141.944 298.001 140.088 298.001 137.768C298.001 135.447 296.041 133.591 293.59 133.591Z" fill="#ACB8BE"/>
<path d="M289.683 150.091L287.006 145.337L289.5 141.5C289.654 141.175 290.079 141.059 290.42 141.272C290.764 141.419 290.888 141.822 290.665 142.145L288.545 145.4L289.792 147.442L292.5 143C292.723 142.677 293.146 142.628 293.49 142.775C293.832 142.988 293.885 143.389 293.732 143.714L289.683 150.091Z" fill="#ACB8BE"/>
<path d="M297.413 150.1L293.176 143.27C293.014 142.948 293.128 142.542 293.399 142.391C293.739 142.236 294.167 142.341 294.324 142.596L297.235 147.388L298.362 145.32L296.398 142.128C296.236 141.806 296.35 141.4 296.621 141.249C296.961 141.094 297.389 141.199 297.546 141.454L299.899 145.219L297.413 150.1Z" fill="#ACB8BE"/>
<path opacity="0.4" d="M277.245 125.6H263.202C262.851 125.6 262.617 125.28 262.617 124.8C262.617 124.32 262.851 124 263.202 124H277.245C277.596 124 277.83 124.32 277.83 124.8C277.83 125.28 277.596 125.6 277.245 125.6Z" fill="#4F6169"/>
<path opacity="0.4" d="M286.607 120.6H254.426C254.075 120.6 253.841 120.28 253.841 119.8C253.841 119.32 254.075 119 254.426 119H286.607C286.958 119 287.192 119.32 287.192 119.8C287.192 120.28 286.958 120.6 286.607 120.6Z" fill="#4F6169"/>
<path opacity="0.4" d="M267.638 145.6H250.085C249.734 145.6 249.5 145.28 249.5 144.8C249.5 144.32 249.734 144 250.085 144H267.638C267.989 144 268.223 144.32 268.223 144.8C268.223 145.28 267.989 145.6 267.638 145.6Z" fill="#4F6169"/>
<path opacity="0.4" fill-rule="evenodd" clip-rule="evenodd" d="M301.9 112.6H242.1V151.4H301.9V112.6ZM240.5 111V153H303.5V111H240.5Z" fill="#4F6169"/>
<path d="M243.5 128C250.956 128 257 121.956 257 114.5C257 107.044 250.956 101 243.5 101C236.044 101 230 107.044 230 114.5C230 121.956 236.044 128 243.5 128Z" fill="#FCFDFD"/>
<path opacity="0.3" d="M243 124C248.523 124 253 119.299 253 113.5C253 107.701 248.523 103 243 103C237.477 103 233 107.701 233 113.5C233 119.299 237.477 124 243 124Z" fill="#2CB1E5"/>
<path d="M241 122C238.923 122 236.892 121.384 235.165 120.23C233.438 119.075 232.093 117.435 231.298 115.516C230.504 113.596 230.297 111.485 230.703 109.447C231.109 107.41 232.11 105.539 233.579 104.071C235.049 102.603 236.921 101.604 238.958 101.2C240.996 100.797 243.108 101.006 245.026 101.802C246.944 102.599 248.583 103.947 249.736 105.675C250.888 107.403 251.502 109.434 251.5 111.511C251.494 114.293 250.386 116.959 248.417 118.925C246.449 120.891 243.782 121.997 241 122ZM241 102.124C239.146 102.124 237.334 102.674 235.792 103.704C234.251 104.733 233.049 106.197 232.339 107.909C231.629 109.622 231.443 111.507 231.804 113.325C232.164 115.143 233.056 116.814 234.366 118.126C235.676 119.437 237.346 120.331 239.164 120.694C240.982 121.057 242.867 120.873 244.58 120.165C246.294 119.457 247.759 118.257 248.79 116.717C249.822 115.177 250.374 113.365 250.376 111.511C250.373 109.026 249.384 106.642 247.626 104.885C245.869 103.127 243.486 102.138 241 102.135V102.124Z" fill="#2CB1E5"/>
<path d="M246.94 111.44H242.063V106.56C242.063 106.411 242.004 106.269 241.899 106.164C241.794 106.059 241.651 106 241.503 106C241.354 106 241.212 106.059 241.107 106.164C241.002 106.269 240.943 106.411 240.943 106.56V111.44H236.06C235.911 111.44 235.769 111.499 235.664 111.604C235.559 111.709 235.5 111.852 235.5 112C235.5 112.148 235.559 112.291 235.664 112.396C235.769 112.501 235.911 112.56 236.06 112.56H240.943V117.44C240.943 117.589 241.002 117.731 241.107 117.836C241.212 117.941 241.354 118 241.503 118C241.651 118 241.794 117.941 241.899 117.836C242.004 117.731 242.063 117.589 242.063 117.44V112.56H246.94C247.089 112.56 247.231 112.501 247.336 112.396C247.441 112.291 247.5 112.148 247.5 112C247.5 111.852 247.441 111.709 247.336 111.604C247.231 111.499 247.089 111.44 246.94 111.44Z" fill="#2CB1E5"/>
<path d="M193.906 176V168.644H191.134V167.756H197.614V168.644H194.842V176H193.906ZM202.016 169.652C203.384 169.652 204.344 170.648 204.344 172.052V176H203.444V172.172C203.444 171.164 202.808 170.456 201.896 170.456C200.852 170.456 199.976 171.188 199.976 172.052V176H199.076V167.612H199.976V170.792C200.336 170.132 201.14 169.652 202.016 169.652ZM208.962 175.34C209.694 175.34 210.534 175.016 210.918 174.596L211.47 175.184C210.93 175.772 209.838 176.144 208.974 176.144C207.318 176.144 205.83 174.788 205.83 172.88C205.83 171.032 207.222 169.652 208.89 169.652C210.762 169.652 211.83 171.068 211.83 173.24H206.754C206.886 174.452 207.738 175.34 208.962 175.34ZM208.926 170.456C207.822 170.456 206.934 171.236 206.766 172.436H210.942C210.822 171.32 210.162 170.456 208.926 170.456ZM214.287 171.008C214.659 170.18 215.547 169.652 216.687 169.652V170.456C215.283 170.456 214.287 171.32 214.287 172.532V176H213.387V169.796H214.287V171.008ZM220.728 175.34C221.46 175.34 222.3 175.016 222.684 174.596L223.236 175.184C222.696 175.772 221.604 176.144 220.74 176.144C219.084 176.144 217.596 174.788 217.596 172.88C217.596 171.032 218.988 169.652 220.656 169.652C222.528 169.652 223.596 171.068 223.596 173.24H218.52C218.652 174.452 219.504 175.34 220.728 175.34ZM220.692 170.456C219.588 170.456 218.7 171.236 218.532 172.436H222.708C222.588 171.32 221.928 170.456 220.692 170.456ZM228.993 168.668C228.657 168.668 228.393 168.392 228.393 168.068C228.393 167.756 228.657 167.48 228.993 167.48C229.317 167.48 229.581 167.756 229.581 168.068C229.581 168.392 229.317 168.668 228.993 168.668ZM228.537 176V169.796H229.437V176H228.537ZM233.44 176.144C232.576 176.144 231.616 175.82 230.872 175.22L231.34 174.56C232.048 175.076 232.756 175.34 233.44 175.34C234.256 175.34 234.808 174.956 234.808 174.368C234.808 173.696 234.088 173.48 233.248 173.24C231.748 172.808 231.172 172.364 231.172 171.476C231.172 170.348 232.108 169.652 233.344 169.652C234.112 169.652 234.904 169.916 235.564 170.348L235.132 171.044C234.508 170.648 233.896 170.456 233.344 170.456C232.648 170.456 232.072 170.768 232.072 171.368C232.072 171.908 232.528 172.076 233.68 172.448C234.676 172.76 235.708 173.096 235.708 174.272C235.708 175.412 234.724 176.144 233.44 176.144ZM243.63 169.652C244.998 169.652 245.958 170.648 245.958 172.052V176H245.058V172.172C245.058 171.164 244.422 170.456 243.51 170.456C242.466 170.456 241.59 171.188 241.59 172.052V176H240.69V169.796H241.59V170.792C241.95 170.132 242.754 169.652 243.63 169.652ZM250.659 176.144C248.919 176.144 247.443 174.656 247.443 172.892C247.443 171.128 248.919 169.652 250.659 169.652C252.399 169.652 253.863 171.128 253.863 172.892C253.863 174.656 252.399 176.144 250.659 176.144ZM250.659 175.34C251.883 175.34 252.915 174.224 252.915 172.892C252.915 171.572 251.883 170.456 250.659 170.456C249.423 170.456 248.391 171.572 248.391 172.892C248.391 174.224 249.423 175.34 250.659 175.34ZM263.678 167.612H264.578V176H263.678V174.836C263.21 175.652 262.418 176.144 261.422 176.144C259.79 176.144 258.566 174.8 258.566 172.892C258.566 170.996 259.79 169.652 261.422 169.652C262.418 169.652 263.21 170.144 263.678 170.96V167.612ZM261.59 175.34C262.814 175.34 263.678 174.32 263.678 172.892C263.678 171.464 262.814 170.456 261.59 170.456C260.378 170.456 259.514 171.464 259.514 172.892C259.514 174.32 260.378 175.34 261.59 175.34ZM269.002 169.652C270.694 169.652 271.522 170.72 271.522 172.22V176H270.622V175.028C270.178 175.76 269.254 176.144 268.438 176.144C267.13 176.144 266.17 175.388 266.17 174.164C266.17 172.928 267.274 172.1 268.606 172.1C269.278 172.1 269.986 172.244 270.622 172.448V172.22C270.622 171.38 270.286 170.42 268.942 170.42C268.318 170.42 267.694 170.696 267.13 170.984L266.77 170.252C267.658 169.808 268.402 169.652 269.002 169.652ZM268.594 175.352C269.41 175.352 270.382 174.932 270.622 174.056V173.108C270.058 172.952 269.422 172.856 268.75 172.856C267.826 172.856 267.046 173.384 267.046 174.128C267.046 174.896 267.718 175.352 268.594 175.352ZM276.085 175.088L276.529 175.748C276.205 176 275.797 176.144 275.377 176.144C274.489 176.144 273.865 175.484 273.865 174.56V170.6H272.893V169.796H273.865V168.092H274.765V169.796H276.289V170.6H274.765V174.56C274.765 175.016 275.077 175.34 275.437 175.34C275.713 175.34 275.953 175.232 276.085 175.088ZM280.323 169.652C282.015 169.652 282.843 170.72 282.843 172.22V176H281.943V175.028C281.499 175.76 280.575 176.144 279.759 176.144C278.451 176.144 277.491 175.388 277.491 174.164C277.491 172.928 278.595 172.1 279.927 172.1C280.599 172.1 281.307 172.244 281.943 172.448V172.22C281.943 171.38 281.607 170.42 280.263 170.42C279.639 170.42 279.015 170.696 278.451 170.984L278.091 170.252C278.979 169.808 279.723 169.652 280.323 169.652ZM279.915 175.352C280.731 175.352 281.703 174.932 281.943 174.056V173.108C281.379 172.952 280.743 172.856 280.071 172.856C279.147 172.856 278.367 173.384 278.367 174.128C278.367 174.896 279.039 175.352 279.915 175.352ZM290.886 175.088L291.33 175.748C291.006 176 290.598 176.144 290.178 176.144C289.29 176.144 288.666 175.484 288.666 174.56V170.6H287.694V169.796H288.666V168.092H289.566V169.796H291.09V170.6H289.566V174.56C289.566 175.016 289.878 175.34 290.238 175.34C290.514 175.34 290.754 175.232 290.886 175.088ZM295.483 176.144C293.743 176.144 292.267 174.656 292.267 172.892C292.267 171.128 293.743 169.652 295.483 169.652C297.223 169.652 298.687 171.128 298.687 172.892C298.687 174.656 297.223 176.144 295.483 176.144ZM295.483 175.34C296.707 175.34 297.739 174.224 297.739 172.892C297.739 171.572 296.707 170.456 295.483 170.456C294.247 170.456 293.215 171.572 293.215 172.892C293.215 174.224 294.247 175.34 295.483 175.34ZM308.502 167.612H309.402V176H308.502V174.836C308.034 175.652 307.242 176.144 306.246 176.144C304.614 176.144 303.39 174.8 303.39 172.892C303.39 170.996 304.614 169.652 306.246 169.652C307.242 169.652 308.034 170.144 308.502 170.96V167.612ZM306.414 175.34C307.638 175.34 308.502 174.32 308.502 172.892C308.502 171.464 307.638 170.456 306.414 170.456C305.202 170.456 304.338 171.464 304.338 172.892C304.338 174.32 305.202 175.34 306.414 175.34ZM311.751 168.668C311.415 168.668 311.151 168.392 311.151 168.068C311.151 167.756 311.415 167.48 311.751 167.48C312.075 167.48 312.339 167.756 312.339 168.068C312.339 168.392 312.075 168.668 311.751 168.668ZM311.295 176V169.796H312.195V176H311.295ZM316.198 176.144C315.334 176.144 314.374 175.82 313.63 175.22L314.098 174.56C314.806 175.076 315.514 175.34 316.198 175.34C317.014 175.34 317.566 174.956 317.566 174.368C317.566 173.696 316.846 173.48 316.006 173.24C314.506 172.808 313.93 172.364 313.93 171.476C313.93 170.348 314.866 169.652 316.102 169.652C316.87 169.652 317.662 169.916 318.322 170.348L317.89 171.044C317.266 170.648 316.654 170.456 316.102 170.456C315.406 170.456 314.83 170.768 314.83 171.368C314.83 171.908 315.286 172.076 316.438 172.448C317.434 172.76 318.466 173.096 318.466 174.272C318.466 175.412 317.482 176.144 316.198 176.144ZM323.195 169.652C324.827 169.652 326.051 170.996 326.051 172.892C326.051 174.8 324.827 176.144 323.195 176.144C322.199 176.144 321.407 175.652 320.939 174.836V178.064H320.039V169.796H320.939V170.96C321.407 170.144 322.199 169.652 323.195 169.652ZM323.027 175.34C324.239 175.34 325.103 174.32 325.103 172.892C325.103 171.464 324.239 170.456 323.027 170.456C321.803 170.456 320.939 171.464 320.939 172.892C320.939 174.32 321.803 175.34 323.027 175.34ZM327.607 176V167.612H328.507V176H327.607ZM332.846 169.652C334.538 169.652 335.366 170.72 335.366 172.22V176H334.466V175.028C334.022 175.76 333.098 176.144 332.282 176.144C330.974 176.144 330.014 175.388 330.014 174.164C330.014 172.928 331.118 172.1 332.45 172.1C333.122 172.1 333.83 172.244 334.466 172.448V172.22C334.466 171.38 334.13 170.42 332.786 170.42C332.162 170.42 331.538 170.696 330.974 170.984L330.614 170.252C331.502 169.808 332.246 169.652 332.846 169.652ZM332.438 175.352C333.254 175.352 334.226 174.932 334.466 174.056V173.108C333.902 172.952 333.266 172.856 332.594 172.856C331.67 172.856 330.89 173.384 330.89 174.128C330.89 174.896 331.562 175.352 332.438 175.352ZM338.129 178.16C337.769 178.16 337.433 178.088 337.145 177.956L337.361 177.188C337.577 177.296 337.829 177.344 338.093 177.344C338.489 177.344 338.753 177.212 338.993 176.792L339.353 176.024L336.653 169.796H337.649L339.821 174.956L341.873 169.796H342.845L340.013 176.696C339.581 177.752 338.981 178.148 338.129 178.16Z" fill="#4F6169"/>
<rect x="227" y="191" width="80" height="20" rx="2" fill="#0079AD"/>
<path d="M240.158 203L239.794 202.132H237.47L237.106 203H236.133L238.142 198.191H239.115L241.124 203H240.158ZM237.785 201.376H239.479L238.632 199.353L237.785 201.376ZM242.824 203V198.191H244.518C246.107 198.191 247.227 199.185 247.227 200.592C247.227 201.999 246.107 203 244.518 203H242.824ZM243.699 202.209H244.609C245.624 202.209 246.338 201.537 246.338 200.592C246.338 199.647 245.624 198.982 244.609 198.982H243.699V202.209ZM249.149 203V198.191H250.843C252.432 198.191 253.552 199.185 253.552 200.592C253.552 201.999 252.432 203 250.843 203H249.149ZM250.024 202.209H250.934C251.949 202.209 252.663 201.537 252.663 200.592C252.663 199.647 251.949 198.982 250.934 198.982H250.024V202.209ZM259.219 202.202H261.69V203H258.351V198.191H259.219V202.202ZM263.413 203V198.191H264.281V203H263.413ZM268.631 203.084C267.259 203.084 266.104 201.943 266.104 200.592C266.104 199.241 267.259 198.107 268.631 198.107C269.338 198.107 269.982 198.408 270.444 198.884L269.821 199.465C269.527 199.122 269.093 198.905 268.631 198.905C267.742 198.905 266.993 199.675 266.993 200.592C266.993 201.516 267.742 202.286 268.631 202.286C269.1 202.286 269.527 202.069 269.828 201.726L270.444 202.3C269.982 202.783 269.338 203.084 268.631 203.084ZM275.738 198.989H272.994V200.151H275.479V200.949H272.994V202.202H275.738V203H272.119V198.191H275.738V198.989ZM277.639 203V198.191H278.514L281.055 201.572V198.191H281.923V203H281.055L278.514 199.619V203H277.639ZM285.761 203.077C284.935 203.077 284.235 202.797 283.703 202.3L284.207 201.677C284.648 202.076 285.159 202.328 285.789 202.328C286.384 202.328 286.692 202.034 286.692 201.691C286.692 201.292 286.349 201.159 285.579 200.977C284.585 200.746 283.892 200.459 283.892 199.556C283.892 198.716 284.606 198.1 285.621 198.1C286.384 198.1 286.958 198.359 287.441 198.772L286.965 199.416C286.545 199.052 286.062 198.849 285.586 198.849C285.103 198.849 284.774 199.143 284.774 199.479C284.774 199.871 285.131 200.011 285.894 200.186C286.895 200.41 287.567 200.732 287.567 201.607C287.567 202.468 286.909 203.077 285.761 203.077ZM292.984 198.989H290.24V200.151H292.725V200.949H290.24V202.202H292.984V203H289.365V198.191H292.984V198.989ZM296.6 203.077C295.774 203.077 295.074 202.797 294.542 202.3L295.046 201.677C295.487 202.076 295.998 202.328 296.628 202.328C297.223 202.328 297.531 202.034 297.531 201.691C297.531 201.292 297.188 201.159 296.418 200.977C295.424 200.746 294.731 200.459 294.731 199.556C294.731 198.716 295.445 198.1 296.46 198.1C297.223 198.1 297.797 198.359 298.28 198.772L297.804 199.416C297.384 199.052 296.901 198.849 296.425 198.849C295.942 198.849 295.613 199.143 295.613 199.479C295.613 199.871 295.97 200.011 296.733 200.186C297.734 200.41 298.406 200.732 298.406 201.607C298.406 202.468 297.748 203.077 296.6 203.077Z" fill="white"/>
<path d="M105.752 53.112H110.252V54H104.816V45.756H105.752V53.112ZM112.012 46.668C111.676 46.668 111.412 46.392 111.412 46.068C111.412 45.756 111.676 45.48 112.012 45.48C112.336 45.48 112.6 45.756 112.6 46.068C112.6 46.392 112.336 46.668 112.012 46.668ZM111.556 54V47.796H112.456V54H111.556ZM117.144 54.144C115.404 54.144 113.928 52.656 113.928 50.892C113.928 49.128 115.404 47.652 117.144 47.652C117.984 47.652 118.764 48 119.352 48.564L118.728 49.176C118.32 48.732 117.756 48.456 117.144 48.456C115.908 48.456 114.876 49.572 114.876 50.892C114.876 52.224 115.908 53.34 117.144 53.34C117.768 53.34 118.344 53.052 118.764 52.584L119.388 53.196C118.8 53.784 118.008 54.144 117.144 54.144ZM123.563 53.34C124.295 53.34 125.135 53.016 125.519 52.596L126.071 53.184C125.531 53.772 124.439 54.144 123.575 54.144C121.919 54.144 120.431 52.788 120.431 50.88C120.431 49.032 121.823 47.652 123.491 47.652C125.363 47.652 126.431 49.068 126.431 51.24H121.355C121.487 52.452 122.339 53.34 123.563 53.34ZM123.527 48.456C122.423 48.456 121.535 49.236 121.367 50.436H125.543C125.423 49.32 124.763 48.456 123.527 48.456ZM130.856 47.652C132.224 47.652 133.184 48.648 133.184 50.052V54H132.284V50.172C132.284 49.164 131.648 48.456 130.736 48.456C129.692 48.456 128.816 49.188 128.816 50.052V54H127.916V47.796H128.816V48.792C129.176 48.132 129.98 47.652 130.856 47.652ZM137.202 54.144C136.338 54.144 135.378 53.82 134.634 53.22L135.102 52.56C135.81 53.076 136.518 53.34 137.202 53.34C138.018 53.34 138.57 52.956 138.57 52.368C138.57 51.696 137.85 51.48 137.01 51.24C135.51 50.808 134.934 50.364 134.934 49.476C134.934 48.348 135.87 47.652 137.106 47.652C137.874 47.652 138.666 47.916 139.326 48.348L138.894 49.044C138.27 48.648 137.658 48.456 137.106 48.456C136.41 48.456 135.834 48.768 135.834 49.368C135.834 49.908 136.29 50.076 137.442 50.448C138.438 50.76 139.47 51.096 139.47 52.272C139.47 53.412 138.486 54.144 137.202 54.144ZM143.755 53.34C144.487 53.34 145.327 53.016 145.711 52.596L146.263 53.184C145.723 53.772 144.631 54.144 143.767 54.144C142.111 54.144 140.623 52.788 140.623 50.88C140.623 49.032 142.015 47.652 143.683 47.652C145.555 47.652 146.623 49.068 146.623 51.24H141.547C141.679 52.452 142.531 53.34 143.755 53.34ZM143.719 48.456C142.615 48.456 141.727 49.236 141.559 50.436H145.735C145.615 49.32 144.955 48.456 143.719 48.456ZM150.292 54.144C149.428 54.144 148.468 53.82 147.724 53.22L148.192 52.56C148.9 53.076 149.608 53.34 150.292 53.34C151.108 53.34 151.66 52.956 151.66 52.368C151.66 51.696 150.94 51.48 150.1 51.24C148.6 50.808 148.024 50.364 148.024 49.476C148.024 48.348 148.96 47.652 150.196 47.652C150.964 47.652 151.756 47.916 152.416 48.348L151.984 49.044C151.36 48.648 150.748 48.456 150.196 48.456C149.5 48.456 148.924 48.768 148.924 49.368C148.924 49.908 149.38 50.076 150.532 50.448C151.528 50.76 152.56 51.096 152.56 52.272C152.56 53.412 151.576 54.144 150.292 54.144Z" fill="#4F6169"/>
</g>
<defs>
<clipPath id="clip0_11212_4940">
<rect width="369" height="263" fill="white" transform="translate(82 24)"/>
</clipPath>
</defs>
</svg>
