<svg width="452" height="257" viewBox="0 0 452 257" fill="none" xmlns="http://www.w3.org/2000/svg">
<rect x="0.5" y="11.5" width="307" height="202" fill="#FCFDFD"/>
<rect x="0.5" y="11.5" width="307" height="202" stroke="#ACB8BE"/>
<rect x="0.5" y="11.5" width="307" height="202" stroke="#ACB8BE"/>
<rect x="1" y="11" width="307" height="13" fill="#95A2A8"/>
<rect x="1" y="24" width="56" height="189" fill="#F1F6F8"/>
<path d="M72.1259 41.0318C70.707 41.0318 69.7019 39.9929 69.7019 38.5233V35.128H70.3607V38.5233C70.3607 39.6382 71.0955 40.4321 72.1259 40.4321C73.1564 40.4321 73.8912 39.6382 73.8912 38.5233V35.128H74.5499V38.5233C74.5499 39.9929 73.5449 41.0318 72.1259 41.0318ZM77.4646 41.0318C76.8565 41.0318 76.1808 40.8037 75.6572 40.3814L75.9866 39.9169C76.4849 40.2801 76.9832 40.4659 77.4646 40.4659C78.0389 40.4659 78.4274 40.1956 78.4274 39.7818C78.4274 39.3088 77.9207 39.1568 77.3295 38.9878C76.2737 38.6838 75.8683 38.3713 75.8683 37.7463C75.8683 36.9524 76.5271 36.4625 77.397 36.4625C77.9376 36.4625 78.495 36.6483 78.9595 36.9524L78.6555 37.4422C78.2163 37.1635 77.7855 37.0284 77.397 37.0284C76.9072 37.0284 76.5018 37.248 76.5018 37.6703C76.5018 38.0503 76.8227 38.1686 77.6335 38.4304C78.3345 38.65 79.0609 38.8865 79.0609 39.7142C79.0609 40.5166 78.3683 41.0318 77.4646 41.0318ZM82.0769 40.4659C82.5921 40.4659 83.1833 40.2378 83.4536 39.9422L83.8421 40.3561C83.462 40.7699 82.6935 41.0318 82.0854 41.0318C80.9198 41.0318 79.8725 40.0774 79.8725 38.7345C79.8725 37.4338 80.8522 36.4625 82.0262 36.4625C83.3438 36.4625 84.0955 37.4591 84.0955 38.9878H80.5228C80.6157 39.8409 81.2154 40.4659 82.0769 40.4659ZM82.0516 37.0284C81.2745 37.0284 80.6495 37.5774 80.5313 38.422H83.4705C83.386 37.6365 82.9215 37.0284 82.0516 37.0284ZM85.8246 37.4169C86.0864 36.8341 86.7114 36.4625 87.5138 36.4625V37.0284C86.5256 37.0284 85.8246 37.6365 85.8246 38.4895V40.9304H85.1912V36.5638H85.8246V37.4169ZM90.9917 40.9304V35.128H91.6505L93.8042 39.1737L95.958 35.128H96.6167V40.9304H95.958V36.5469L93.8042 40.5926L91.6505 36.5469V40.9304H90.9917ZM99.8221 36.4625C101.013 36.4625 101.596 37.2142 101.596 38.2699V40.9304H100.962V40.2463C100.65 40.7615 99.9995 41.0318 99.4252 41.0318C98.5046 41.0318 97.8289 40.4997 97.8289 39.6382C97.8289 38.7682 98.6059 38.1855 99.5434 38.1855C100.016 38.1855 100.515 38.2868 100.962 38.4304V38.2699C100.962 37.6787 100.726 37.003 99.7799 37.003C99.3407 37.003 98.9015 37.1973 98.5046 37.4L98.2512 36.8848C98.8762 36.5723 99.3998 36.4625 99.8221 36.4625ZM99.535 40.4743C100.109 40.4743 100.793 40.1787 100.962 39.5622V38.8949C100.565 38.7851 100.118 38.7176 99.6448 38.7176C98.9944 38.7176 98.4454 39.0892 98.4454 39.6128C98.4454 40.1534 98.9184 40.4743 99.535 40.4743ZM104.968 36.4625C105.931 36.4625 106.606 37.1635 106.606 38.1517V40.9304H105.973V38.2361C105.973 37.5267 105.525 37.0284 104.883 37.0284C104.149 37.0284 103.532 37.5436 103.532 38.1517V40.9304H102.899V36.5638H103.532V37.2649C103.785 36.8003 104.351 36.4625 104.968 36.4625ZM109.662 36.4625C110.853 36.4625 111.436 37.2142 111.436 38.2699V40.9304H110.802V40.2463C110.49 40.7615 109.839 41.0318 109.265 41.0318C108.344 41.0318 107.669 40.4997 107.669 39.6382C107.669 38.7682 108.446 38.1855 109.383 38.1855C109.856 38.1855 110.355 38.2868 110.802 38.4304V38.2699C110.802 37.6787 110.566 37.003 109.62 37.003C109.181 37.003 108.741 37.1973 108.344 37.4L108.091 36.8848C108.716 36.5723 109.24 36.4625 109.662 36.4625ZM109.375 40.4743C109.949 40.4743 110.633 40.1787 110.802 39.5622V38.8949C110.405 38.7851 109.958 38.7176 109.485 38.7176C108.834 38.7176 108.285 39.0892 108.285 39.6128C108.285 40.1534 108.758 40.4743 109.375 40.4743ZM116.125 36.5638H116.759V40.4659C116.759 41.5892 115.872 42.3831 114.613 42.3831C113.904 42.3831 113.245 42.1382 112.848 41.8004L113.127 41.302C113.465 41.623 113.988 41.8172 114.529 41.8172C115.534 41.8172 116.125 41.3189 116.125 40.4659V39.7564C115.787 40.2885 115.23 40.6095 114.537 40.6095C113.363 40.6095 112.527 39.748 112.527 38.5318C112.527 37.3155 113.363 36.4625 114.537 36.4625C115.23 36.4625 115.787 36.7834 116.125 37.3155V36.5638ZM114.656 40.0436C115.517 40.0436 116.125 39.4186 116.125 38.5318C116.125 37.6534 115.517 37.0284 114.656 37.0284C113.803 37.0284 113.195 37.6534 113.195 38.5318C113.195 39.4186 113.803 40.0436 114.656 40.0436ZM120.067 40.4659C120.583 40.4659 121.174 40.2378 121.444 39.9422L121.833 40.3561C121.453 40.7699 120.684 41.0318 120.076 41.0318C118.91 41.0318 117.863 40.0774 117.863 38.7345C117.863 37.4338 118.843 36.4625 120.017 36.4625C121.334 36.4625 122.086 37.4591 122.086 38.9878H118.513C118.606 39.8409 119.206 40.4659 120.067 40.4659ZM120.042 37.0284C119.265 37.0284 118.64 37.5774 118.522 38.422H121.461C121.377 37.6365 120.912 37.0284 120.042 37.0284ZM127.844 36.4625C128.756 36.4625 129.398 37.1635 129.398 38.1517V40.9304H128.764V38.2361C128.764 37.5267 128.351 37.0284 127.759 37.0284C127.067 37.0284 126.577 37.4929 126.577 38.1517V40.9304H125.943V38.2361C125.943 37.5267 125.53 37.0284 124.938 37.0284C124.246 37.0284 123.756 37.4929 123.756 38.1517V40.9304H123.123V36.5638H123.756V37.2057C123.976 36.7497 124.449 36.4625 125.023 36.4625C125.682 36.4625 126.197 36.8257 126.433 37.3915C126.611 36.8257 127.185 36.4625 127.844 36.4625ZM132.646 40.4659C133.161 40.4659 133.752 40.2378 134.022 39.9422L134.411 40.3561C134.031 40.7699 133.262 41.0318 132.654 41.0318C131.489 41.0318 130.441 40.0774 130.441 38.7345C130.441 37.4338 131.421 36.4625 132.595 36.4625C133.913 36.4625 134.664 37.4591 134.664 38.9878H131.092C131.184 39.8409 131.784 40.4659 132.646 40.4659ZM132.62 37.0284C131.843 37.0284 131.218 37.5774 131.1 38.422H134.039C133.955 37.6365 133.49 37.0284 132.62 37.0284ZM137.778 36.4625C138.741 36.4625 139.417 37.1635 139.417 38.1517V40.9304H138.784V38.2361C138.784 37.5267 138.336 37.0284 137.694 37.0284C136.959 37.0284 136.343 37.5436 136.343 38.1517V40.9304H135.709V36.5638H136.343V37.2649C136.596 36.8003 137.162 36.4625 137.778 36.4625ZM142.616 40.2885L142.929 40.7531C142.701 40.9304 142.414 41.0318 142.118 41.0318C141.493 41.0318 141.054 40.5672 141.054 39.9169V37.1297H140.37V36.5638H141.054V35.3645H141.687V36.5638H142.76V37.1297H141.687V39.9169C141.687 40.2378 141.907 40.4659 142.16 40.4659C142.355 40.4659 142.523 40.3899 142.616 40.2885Z" fill="#4F6169"/>
<rect x="69.3148" y="55.2484" width="25.3332" height="9.78713" rx="1.05575" stroke="#0079AD" stroke-width="0.703833"/>
<rect opacity="0.5" x="74.5928" y="59.3926" width="14.7778" height="1.49871" rx="0.749353" fill="#0079AD"/>
<rect opacity="0.5" x="106.259" y="59.3926" width="14.7778" height="1.49871" rx="0.749353" fill="#0079AD"/>
<rect x="100.278" y="55.2484" width="25.3332" height="9.78712" rx="1.05575" stroke="#0079AD" stroke-width="0.703833"/>
<g opacity="0.4">
<rect x="68.9756" y="88" width="25.7906" height="2" rx="1" fill="#4F6169"/>
<rect x="149.213" y="88" width="46.453" height="2" rx="1" fill="#4F6169"/>
<rect x="118.244" y="88" width="19.7073" height="2" rx="1" fill="#4F6169"/>
<rect x="235.081" y="88" width="17.5958" height="2" rx="1" fill="#4F6169"/>
</g>
<g opacity="0.4">
<rect x="68.9756" y="100" width="25.7906" height="2" rx="1" fill="#4F6169"/>
<rect x="149.213" y="100" width="46.453" height="2" rx="1" fill="#4F6169"/>
<rect x="118.244" y="100" width="19.7073" height="2" rx="1" fill="#4F6169"/>
<rect x="235.081" y="100" width="17.5958" height="2" rx="1" fill="#4F6169"/>
</g>
<g opacity="0.4">
<rect x="68.9756" y="112" width="25.7906" height="2" rx="1" fill="#4F6169"/>
<rect x="149.213" y="112" width="46.453" height="2" rx="1" fill="#4F6169"/>
<rect x="118.244" y="112" width="19.7073" height="2" rx="1" fill="#4F6169"/>
<rect x="235.081" y="112" width="17.5958" height="2" rx="1" fill="#4F6169"/>
</g>
<g opacity="0.4">
<rect x="68.9756" y="124" width="25.7906" height="2" rx="1" fill="#4F6169"/>
<rect x="149.213" y="124" width="46.453" height="2" rx="1" fill="#4F6169"/>
<rect x="118.244" y="124" width="19.7073" height="2" rx="1" fill="#4F6169"/>
<rect x="235.081" y="124" width="17.5958" height="2" rx="1" fill="#4F6169"/>
</g>
<g opacity="0.4">
<rect x="68.9756" y="136" width="25.7906" height="2" rx="1" fill="#4F6169"/>
<rect x="149.213" y="136" width="46.453" height="2" rx="1" fill="#4F6169"/>
<rect x="118.244" y="136" width="19.7073" height="2" rx="1" fill="#4F6169"/>
<rect x="235.081" y="136" width="17.5958" height="2" rx="1" fill="#4F6169"/>
</g>
<g opacity="0.4">
<rect x="68.9756" y="148" width="25.7906" height="2" rx="1" fill="#4F6169"/>
<rect x="149.213" y="148" width="46.453" height="2" rx="1" fill="#4F6169"/>
<rect x="118.244" y="148" width="19.7073" height="2" rx="1" fill="#4F6169"/>
<rect x="235.081" y="148" width="17.5958" height="2" rx="1" fill="#4F6169"/>
</g>
<g opacity="0.4">
<rect x="68.9756" y="160" width="25.7906" height="2" rx="1" fill="#4F6169"/>
<rect x="149.213" y="160" width="46.453" height="2" rx="1" fill="#4F6169"/>
<rect x="118.244" y="160" width="19.7073" height="2" rx="1" fill="#4F6169"/>
<rect x="235.081" y="160" width="17.5958" height="2" rx="1" fill="#4F6169"/>
</g>
<g opacity="0.4">
<rect x="68.9756" y="172" width="25.7906" height="2" rx="1" fill="#4F6169"/>
<rect x="149.213" y="172" width="46.453" height="2" rx="1" fill="#4F6169"/>
<rect x="118.244" y="172" width="19.7073" height="2" rx="1" fill="#4F6169"/>
<rect x="235.081" y="172" width="17.5958" height="2" rx="1" fill="#4F6169"/>
</g>
<g opacity="0.4">
<rect x="68.9756" y="184" width="25.7906" height="2" rx="1" fill="#4F6169"/>
<rect x="149.213" y="184" width="46.453" height="2" rx="1" fill="#4F6169"/>
<rect x="118.244" y="184" width="19.7073" height="2" rx="1" fill="#4F6169"/>
<rect x="235.081" y="184" width="17.5958" height="2" rx="1" fill="#4F6169"/>
</g>
<rect x="0.605911" y="11.6059" width="372.03" height="244.788" fill="#FCFDFD"/>
<rect x="0.605911" y="11.6059" width="372.03" height="244.788" stroke="#ACB8BE" stroke-width="1.21182"/>
<rect x="0.605911" y="11.6059" width="372.03" height="244.788" stroke="#ACB8BE" stroke-width="1.21182"/>
<rect x="1.21191" y="11" width="372.03" height="15.7537" fill="#95A2A8"/>
<rect x="1.21191" y="26.7537" width="67.8621" height="229.034" fill="#F1F6F8"/>
<path d="M87.4036 46.9107C85.6841 46.9107 84.4662 45.6518 84.4662 43.8709V39.7564H85.2645V43.8709C85.2645 45.2219 86.1549 46.184 87.4036 46.184C88.6523 46.184 89.5427 45.2219 89.5427 43.8709V39.7564H90.3411V43.8709C90.3411 45.6518 89.1231 46.9107 87.4036 46.9107ZM93.8731 46.9107C93.1362 46.9107 92.3174 46.6343 91.6828 46.1226L92.082 45.5596C92.6859 45.9997 93.2897 46.2249 93.8731 46.2249C94.5691 46.2249 95.0399 45.8974 95.0399 45.3959C95.0399 44.8227 94.4258 44.6385 93.7094 44.4338C92.43 44.0653 91.9387 43.6866 91.9387 42.9292C91.9387 41.9671 92.737 41.3735 93.7912 41.3735C94.4463 41.3735 95.1218 41.5987 95.6847 41.9671L95.3163 42.5608C94.784 42.223 94.262 42.0593 93.7912 42.0593C93.1976 42.0593 92.7063 42.3254 92.7063 42.8371C92.7063 43.2977 93.0953 43.441 94.0778 43.7583C94.9273 44.0244 95.8075 44.311 95.8075 45.314C95.8075 46.2863 94.9683 46.9107 93.8731 46.9107ZM99.4624 46.2249C100.087 46.2249 100.803 45.9486 101.131 45.5903L101.602 46.0919C101.141 46.5934 100.21 46.9107 99.4726 46.9107C98.0602 46.9107 96.7911 45.7541 96.7911 44.1267C96.7911 42.5505 97.9783 41.3735 99.401 41.3735C100.998 41.3735 101.909 42.5812 101.909 44.4338H97.5792C97.6917 45.4675 98.4184 46.2249 99.4624 46.2249ZM99.4317 42.0593C98.4901 42.0593 97.7327 42.7245 97.5894 43.748H101.151C101.049 42.7962 100.486 42.0593 99.4317 42.0593ZM104.004 42.5301C104.321 41.8238 105.079 41.3735 106.051 41.3735V42.0593C104.853 42.0593 104.004 42.7962 104.004 43.8299V46.7878H103.236V41.4963H104.004V42.5301ZM110.266 46.7878V39.7564H111.064L113.674 44.659L116.284 39.7564H117.082V46.7878H116.284V41.4759L113.674 46.3784L111.064 41.4759V46.7878H110.266ZM120.966 41.3735C122.41 41.3735 123.116 42.2844 123.116 43.5638V46.7878H122.348V45.9588C121.97 46.5831 121.181 46.9107 120.485 46.9107C119.37 46.9107 118.551 46.2659 118.551 45.2219C118.551 44.1677 119.493 43.4615 120.629 43.4615C121.202 43.4615 121.806 43.5843 122.348 43.7583V43.5638C122.348 42.8473 122.062 42.0285 120.915 42.0285C120.383 42.0285 119.851 42.264 119.37 42.5096L119.063 41.8853C119.82 41.5066 120.455 41.3735 120.966 41.3735ZM120.618 46.2351C121.314 46.2351 122.144 45.8769 122.348 45.1298V44.3212C121.867 44.1881 121.325 44.1063 120.752 44.1063C119.963 44.1063 119.298 44.5566 119.298 45.1912C119.298 45.8462 119.871 46.2351 120.618 46.2351ZM127.202 41.3735C128.369 41.3735 129.188 42.223 129.188 43.4205V46.7878H128.42V43.5229C128.42 42.6631 127.878 42.0593 127.1 42.0593C126.209 42.0593 125.462 42.6836 125.462 43.4205V46.7878H124.695V41.4963H125.462V42.3458C125.769 41.7829 126.455 41.3735 127.202 41.3735ZM132.891 41.3735C134.334 41.3735 135.04 42.2844 135.04 43.5638V46.7878H134.272V45.9588C133.894 46.5831 133.106 46.9107 132.41 46.9107C131.294 46.9107 130.475 46.2659 130.475 45.2219C130.475 44.1677 131.417 43.4615 132.553 43.4615C133.126 43.4615 133.73 43.5843 134.272 43.7583V43.5638C134.272 42.8473 133.986 42.0285 132.84 42.0285C132.307 42.0285 131.775 42.264 131.294 42.5096L130.987 41.8853C131.744 41.5066 132.379 41.3735 132.891 41.3735ZM132.543 46.2351C133.239 46.2351 134.068 45.8769 134.272 45.1298V44.3212C133.791 44.1881 133.249 44.1063 132.676 44.1063C131.888 44.1063 131.222 44.5566 131.222 45.1912C131.222 45.8462 131.796 46.2351 132.543 46.2351ZM140.723 41.4963H141.491V46.2249C141.491 47.5862 140.416 48.5483 138.891 48.5483C138.031 48.5483 137.233 48.2515 136.752 47.8421L137.09 47.2382C137.499 47.6271 138.134 47.8625 138.789 47.8625C140.007 47.8625 140.723 47.2587 140.723 46.2249V45.3652C140.314 46.01 139.638 46.3989 138.799 46.3989C137.376 46.3989 136.363 45.3549 136.363 43.8811C136.363 42.4072 137.376 41.3735 138.799 41.3735C139.638 41.3735 140.314 41.7624 140.723 42.4072V41.4963ZM138.942 45.7132C139.986 45.7132 140.723 44.9558 140.723 43.8811C140.723 42.8166 139.986 42.0593 138.942 42.0593C137.908 42.0593 137.171 42.8166 137.171 43.8811C137.171 44.9558 137.908 45.7132 138.942 45.7132ZM145.5 46.2249C146.124 46.2249 146.841 45.9486 147.168 45.5903L147.639 46.0919C147.179 46.5934 146.247 46.9107 145.51 46.9107C144.098 46.9107 142.829 45.7541 142.829 44.1267C142.829 42.5505 144.016 41.3735 145.439 41.3735C147.035 41.3735 147.946 42.5812 147.946 44.4338H143.617C143.729 45.4675 144.456 46.2249 145.5 46.2249ZM145.469 42.0593C144.528 42.0593 143.77 42.7245 143.627 43.748H147.189C147.087 42.7962 146.524 42.0593 145.469 42.0593ZM154.924 41.3735C156.029 41.3735 156.807 42.223 156.807 43.4205V46.7878H156.039V43.5229C156.039 42.6631 155.538 42.0593 154.821 42.0593C153.982 42.0593 153.389 42.6222 153.389 43.4205V46.7878H152.621V43.5229C152.621 42.6631 152.119 42.0593 151.403 42.0593C150.564 42.0593 149.97 42.6222 149.97 43.4205V46.7878H149.202V41.4963H149.97V42.2742C150.236 41.7215 150.809 41.3735 151.505 41.3735C152.304 41.3735 152.928 41.8136 153.215 42.4994C153.429 41.8136 154.125 41.3735 154.924 41.3735ZM160.743 46.2249C161.367 46.2249 162.084 45.9486 162.411 45.5903L162.882 46.0919C162.421 46.5934 161.49 46.9107 160.753 46.9107C159.341 46.9107 158.071 45.7541 158.071 44.1267C158.071 42.5505 159.259 41.3735 160.681 41.3735C162.278 41.3735 163.189 42.5812 163.189 44.4338H158.859C158.972 45.4675 159.699 46.2249 160.743 46.2249ZM160.712 42.0593C159.77 42.0593 159.013 42.7245 158.87 43.748H162.432C162.329 42.7962 161.766 42.0593 160.712 42.0593ZM166.963 41.3735C168.13 41.3735 168.948 42.223 168.948 43.4205V46.7878H168.181V43.5229C168.181 42.6631 167.638 42.0593 166.861 42.0593C165.97 42.0593 165.223 42.6836 165.223 43.4205V46.7878H164.455V41.4963H165.223V42.3458C165.53 41.7829 166.216 41.3735 166.963 41.3735ZM172.825 46.01L173.204 46.5729C172.928 46.7878 172.58 46.9107 172.222 46.9107C171.464 46.9107 170.932 46.3477 170.932 45.5596V42.1821H170.103V41.4963H170.932V40.0429H171.7V41.4963H172.999V42.1821H171.7V45.5596C171.7 45.9486 171.966 46.2249 172.273 46.2249C172.508 46.2249 172.713 46.1328 172.825 46.01Z" fill="#4F6169"/>
<rect x="83.9973" y="64.621" width="30.6993" height="11.8603" rx="1.27938" stroke="#0079AD" stroke-width="0.85292"/>
<rect opacity="0.5" x="90.3931" y="69.6433" width="17.908" height="1.81617" rx="0.908083" fill="#0079AD"/>
<rect opacity="0.5" x="128.767" y="69.6433" width="17.908" height="1.81617" rx="0.908083" fill="#0079AD"/>
<rect x="121.519" y="64.621" width="30.6993" height="11.8603" rx="1.27938" stroke="#0079AD" stroke-width="0.85292"/>
<g opacity="0.4">
<rect x="83.5859" y="104.31" width="31.2537" height="2.42365" rx="1.21182" fill="#4F6169"/>
<rect x="180.819" y="104.31" width="56.2927" height="2.42365" rx="1.21182" fill="#4F6169"/>
<rect x="143.291" y="104.31" width="23.8818" height="2.42365" rx="1.21182" fill="#4F6169"/>
<rect x="284.876" y="104.31" width="21.323" height="2.42365" rx="1.21182" fill="#4F6169"/>
</g>
<g opacity="0.4">
<rect x="83.5859" y="118.852" width="31.2537" height="2.42365" rx="1.21182" fill="#4F6169"/>
<rect x="180.819" y="118.852" width="56.2927" height="2.42365" rx="1.21182" fill="#4F6169"/>
<rect x="143.291" y="118.852" width="23.8818" height="2.42365" rx="1.21182" fill="#4F6169"/>
<rect x="284.876" y="118.852" width="21.323" height="2.42365" rx="1.21182" fill="#4F6169"/>
</g>
<g opacity="0.4">
<rect x="83.5859" y="133.394" width="31.2537" height="2.42365" rx="1.21182" fill="#4F6169"/>
<rect x="180.819" y="133.394" width="56.2927" height="2.42365" rx="1.21182" fill="#4F6169"/>
<rect x="143.291" y="133.394" width="23.8818" height="2.42365" rx="1.21182" fill="#4F6169"/>
<rect x="284.876" y="133.394" width="21.323" height="2.42365" rx="1.21182" fill="#4F6169"/>
</g>
<g opacity="0.4">
<rect x="83.5859" y="147.936" width="31.2537" height="2.42365" rx="1.21182" fill="#4F6169"/>
<rect x="180.819" y="147.936" width="56.2927" height="2.42365" rx="1.21182" fill="#4F6169"/>
<rect x="143.291" y="147.936" width="23.8818" height="2.42365" rx="1.21182" fill="#4F6169"/>
<rect x="284.876" y="147.936" width="21.323" height="2.42365" rx="1.21182" fill="#4F6169"/>
</g>
<g opacity="0.4">
<rect x="83.5859" y="162.478" width="31.2537" height="2.42365" rx="1.21182" fill="#4F6169"/>
<rect x="180.819" y="162.478" width="56.2927" height="2.42365" rx="1.21182" fill="#4F6169"/>
<rect x="143.291" y="162.478" width="23.8818" height="2.42365" rx="1.21182" fill="#4F6169"/>
<rect x="284.876" y="162.478" width="21.323" height="2.42365" rx="1.21182" fill="#4F6169"/>
</g>
<g opacity="0.4">
<rect x="83.5859" y="177.02" width="31.2537" height="2.42365" rx="1.21182" fill="#4F6169"/>
<rect x="180.819" y="177.02" width="56.2927" height="2.42365" rx="1.21182" fill="#4F6169"/>
<rect x="143.291" y="177.02" width="23.8818" height="2.42365" rx="1.21182" fill="#4F6169"/>
<rect x="284.876" y="177.02" width="21.323" height="2.42365" rx="1.21182" fill="#4F6169"/>
</g>
<g opacity="0.4">
<rect x="83.5859" y="191.562" width="31.2537" height="2.42365" rx="1.21182" fill="#4F6169"/>
<rect x="180.819" y="191.562" width="56.2927" height="2.42365" rx="1.21182" fill="#4F6169"/>
<rect x="143.291" y="191.562" width="23.8818" height="2.42365" rx="1.21182" fill="#4F6169"/>
<rect x="284.876" y="191.562" width="21.323" height="2.42365" rx="1.21182" fill="#4F6169"/>
</g>
<g opacity="0.4">
<rect x="83.5859" y="206.104" width="31.2537" height="2.42365" rx="1.21182" fill="#4F6169"/>
<rect x="180.819" y="206.104" width="56.2927" height="2.42365" rx="1.21182" fill="#4F6169"/>
<rect x="143.291" y="206.104" width="23.8818" height="2.42365" rx="1.21182" fill="#4F6169"/>
<rect x="284.876" y="206.104" width="21.323" height="2.42365" rx="1.21182" fill="#4F6169"/>
</g>
<g opacity="0.4">
<rect x="83.5859" y="220.646" width="31.2537" height="2.42365" rx="1.21182" fill="#4F6169"/>
<rect x="180.819" y="220.646" width="56.2927" height="2.42365" rx="1.21182" fill="#4F6169"/>
<rect x="143.291" y="220.646" width="23.8818" height="2.42365" rx="1.21182" fill="#4F6169"/>
<rect x="284.876" y="220.646" width="21.323" height="2.42365" rx="1.21182" fill="#4F6169"/>
</g>
<g filter="url(#filter0_d_11163_6452)">
<mask id="path-91-inside-1_11163_6452" fill="white">
<path fill-rule="evenodd" clip-rule="evenodd" d="M189.318 3C187.303 3 185.67 4.63326 185.67 6.64799V66.8011L166.851 66.8051C165.773 66.8053 165.228 68.1051 165.984 68.8739L185.67 88.883V153.352C185.67 155.367 187.303 157 189.318 157H439.373C441.387 157 443.021 155.367 443.021 153.352V6.648C443.021 4.63327 441.387 3 439.373 3H189.318Z"/>
</mask>
<path fill-rule="evenodd" clip-rule="evenodd" d="M189.318 3C187.303 3 185.67 4.63326 185.67 6.64799V66.8011L166.851 66.8051C165.773 66.8053 165.228 68.1051 165.984 68.8739L185.67 88.883V153.352C185.67 155.367 187.303 157 189.318 157H439.373C441.387 157 443.021 155.367 443.021 153.352V6.648C443.021 4.63327 441.387 3 439.373 3H189.318Z" fill="white"/>
<path d="M185.67 66.8011L185.67 68.0171L186.886 68.0169V66.8011H185.67ZM166.851 66.8051L166.851 65.5891H166.851L166.851 66.8051ZM165.984 68.8739L166.851 68.0211H166.851L165.984 68.8739ZM185.67 88.883H186.886V88.3851L186.536 88.0302L185.67 88.883ZM186.886 6.64799C186.886 5.30484 187.974 4.216 189.318 4.216V1.784C186.631 1.784 184.454 3.96167 184.454 6.64799H186.886ZM186.886 66.8011V6.64799H184.454V66.8011H186.886ZM166.851 68.0211L185.67 68.0171L185.669 65.5851L166.851 65.5891L166.851 68.0211ZM166.851 68.0211H166.851L166.851 65.5891C164.694 65.5895 163.605 68.1891 165.118 69.7267L166.851 68.0211ZM186.536 88.0302L166.851 68.0211L165.118 69.7267L184.803 89.7358L186.536 88.0302ZM186.886 153.352V88.883H184.454V153.352H186.886ZM189.318 155.784C187.974 155.784 186.886 154.695 186.886 153.352H184.454C184.454 156.038 186.631 158.216 189.318 158.216V155.784ZM439.373 155.784H189.318V158.216H439.373V155.784ZM441.805 153.352C441.805 154.695 440.716 155.784 439.373 155.784V158.216C442.059 158.216 444.237 156.038 444.237 153.352H441.805ZM441.805 6.648V153.352H444.237V6.648H441.805ZM439.373 4.216C440.716 4.216 441.805 5.30485 441.805 6.648H444.237C444.237 3.96168 442.059 1.784 439.373 1.784V4.216ZM189.318 4.216H439.373V1.784H189.318V4.216Z" fill="#67777E" mask="url(#path-91-inside-1_11163_6452)"/>
</g>
<path d="M425.841 21L430.437 16.3944C430.625 16.174 430.612 15.8454 430.408 15.6402C430.203 15.435 429.875 15.4223 429.655 15.6111L425.06 20.2166L420.464 15.6055C420.247 15.3877 419.895 15.3877 419.677 15.6055C419.46 15.8234 419.46 16.1766 419.677 16.3944L424.278 21L419.677 25.6055C419.519 25.7413 419.45 25.9545 419.499 26.1574C419.547 26.3604 419.706 26.5188 419.908 26.5676C420.111 26.6165 420.323 26.5474 420.459 26.3889L425.06 21.7833L429.655 26.3889C429.875 26.5776 430.203 26.5649 430.408 26.3597C430.612 26.1545 430.625 25.8259 430.437 25.6055L425.841 21Z" fill="#4F6169"/>
<rect x="373.398" y="117.576" width="56.5469" height="24.64" rx="1.216" fill="#0079AD"/>
<path d="M386.414 132.504V125.821H387.62L391.152 130.519V125.821H392.358V132.504H391.152L387.62 127.805V132.504H386.414ZM400.693 126.93H396.879V128.545H400.323V129.654H396.879V131.395H400.693V132.504H395.663V125.821H400.693V126.93ZM409.36 125.821L406.879 129.157L409.36 132.504H407.92L406.159 130.13L404.389 132.504H402.969L405.449 129.167L402.969 125.821H404.408L406.169 128.194L407.94 125.821H409.36ZM413.513 132.504V126.93H411.373V125.821H416.859V126.93H414.729V132.504H413.513Z" fill="white"/>
<path d="M209.797 32.4232C207.345 32.4232 205.609 30.6283 205.609 28.0893V22.2233H206.747V28.0893C206.747 30.0155 208.017 31.3871 209.797 31.3871C211.577 31.3871 212.847 30.0155 212.847 28.0893V22.2233H213.985V28.0893C213.985 30.6283 212.248 32.4232 209.797 32.4232ZM219.02 32.4232C217.97 32.4232 216.802 32.0292 215.898 31.2996L216.467 30.497C217.328 31.1245 218.189 31.4455 219.02 31.4455C220.013 31.4455 220.684 30.9785 220.684 30.2635C220.684 29.4464 219.808 29.1837 218.787 28.8919C216.963 28.3666 216.262 27.8267 216.262 26.7469C216.262 25.3752 217.401 24.5289 218.904 24.5289C219.837 24.5289 220.801 24.8499 221.603 25.3752L221.078 26.2216C220.319 25.74 219.575 25.5065 218.904 25.5065C218.057 25.5065 217.357 25.8859 217.357 26.6155C217.357 27.2722 217.911 27.4765 219.312 27.9288C220.523 28.3082 221.778 28.7168 221.778 30.1468C221.778 31.533 220.582 32.4232 219.02 32.4232ZM226.989 31.4455C227.879 31.4455 228.9 31.0515 229.367 30.5408L230.039 31.2558C229.382 31.9708 228.054 32.4232 227.004 32.4232C224.99 32.4232 223.18 30.7743 223.18 28.4541C223.18 26.207 224.873 24.5289 226.901 24.5289C229.178 24.5289 230.476 26.2507 230.476 28.8919H224.304C224.465 30.3657 225.501 31.4455 226.989 31.4455ZM226.945 25.5065C225.603 25.5065 224.523 26.455 224.319 27.9142H229.397C229.251 26.5572 228.448 25.5065 226.945 25.5065ZM233.464 26.1778C233.916 25.1709 234.996 24.5289 236.382 24.5289V25.5065C234.675 25.5065 233.464 26.5572 233.464 28.031V32.248H232.369V24.704H233.464V26.1778ZM250.285 24.5289C251.861 24.5289 252.97 25.74 252.97 27.4473V32.248H251.876V27.5932C251.876 26.3675 251.161 25.5065 250.139 25.5065C248.943 25.5065 248.096 26.3091 248.096 27.4473V32.248H247.002V27.5932C247.002 26.3675 246.287 25.5065 245.266 25.5065C244.069 25.5065 243.223 26.3091 243.223 27.4473V32.248H242.128V24.704H243.223V25.813C243.602 25.025 244.419 24.5289 245.411 24.5289C246.55 24.5289 247.44 25.1563 247.848 26.134C248.155 25.1563 249.147 24.5289 250.285 24.5289ZM258.246 24.5289C260.303 24.5289 261.31 25.8276 261.31 27.6516V32.248H260.215V31.0661C259.676 31.9562 258.552 32.4232 257.56 32.4232C255.969 32.4232 254.802 31.5039 254.802 30.0155C254.802 28.5125 256.144 27.5056 257.764 27.5056C258.581 27.5056 259.442 27.6808 260.215 27.9288V27.6516C260.215 26.6301 259.807 25.4628 258.173 25.4628C257.414 25.4628 256.655 25.7984 255.969 26.1486L255.531 25.2585C256.611 24.7186 257.516 24.5289 258.246 24.5289ZM257.749 31.4601C258.742 31.4601 259.924 30.9494 260.215 29.8841V28.7314C259.53 28.5417 258.756 28.4249 257.939 28.4249C256.816 28.4249 255.867 29.067 255.867 29.9717C255.867 30.9056 256.684 31.4601 257.749 31.4601ZM267.136 24.5289C268.799 24.5289 269.966 25.74 269.966 27.4473V32.248H268.872V27.5932C268.872 26.3675 268.099 25.5065 266.99 25.5065C265.72 25.5065 264.655 26.3967 264.655 27.4473V32.248H263.561V24.704H264.655V25.9151C265.093 25.1126 266.07 24.5289 267.136 24.5289ZM275.246 24.5289C277.303 24.5289 278.31 25.8276 278.31 27.6516V32.248H277.216V31.0661C276.676 31.9562 275.552 32.4232 274.56 32.4232C272.969 32.4232 271.802 31.5039 271.802 30.0155C271.802 28.5125 273.145 27.5056 274.764 27.5056C275.581 27.5056 276.442 27.6808 277.216 27.9288V27.6516C277.216 26.6301 276.807 25.4628 275.173 25.4628C274.414 25.4628 273.655 25.7984 272.969 26.1486L272.532 25.2585C273.612 24.7186 274.516 24.5289 275.246 24.5289ZM274.75 31.4601C275.742 31.4601 276.924 30.9494 277.216 29.8841V28.7314C276.53 28.5417 275.757 28.4249 274.939 28.4249C273.816 28.4249 272.867 29.067 272.867 29.9717C272.867 30.9056 273.684 31.4601 274.75 31.4601ZM286.412 24.704H287.507V31.4455C287.507 33.3862 285.974 34.7579 283.8 34.7579C282.575 34.7579 281.436 34.3347 280.751 33.751L281.232 32.8901C281.816 33.4446 282.72 33.7802 283.654 33.7802C285.391 33.7802 286.412 32.9193 286.412 31.4455V30.2198C285.829 31.1391 284.865 31.6936 283.669 31.6936C281.641 31.6936 280.196 30.2052 280.196 28.1039C280.196 26.0027 281.641 24.5289 283.669 24.5289C284.865 24.5289 285.829 25.0834 286.412 26.0027V24.704ZM283.873 30.7159C285.362 30.7159 286.412 29.6361 286.412 28.1039C286.412 26.5864 285.362 25.5065 283.873 25.5065C282.399 25.5065 281.349 26.5864 281.349 28.1039C281.349 29.6361 282.399 30.7159 283.873 30.7159ZM293.223 31.4455C294.113 31.4455 295.134 31.0515 295.601 30.5408L296.273 31.2558C295.616 31.9708 294.288 32.4232 293.238 32.4232C291.224 32.4232 289.414 30.7743 289.414 28.4541C289.414 26.207 291.107 24.5289 293.135 24.5289C295.412 24.5289 296.71 26.2507 296.71 28.8919H290.538C290.699 30.3657 291.735 31.4455 293.223 31.4455ZM293.179 25.5065C291.837 25.5065 290.757 26.455 290.553 27.9142H295.631C295.485 26.5572 294.682 25.5065 293.179 25.5065ZM306.658 24.5289C308.234 24.5289 309.343 25.74 309.343 27.4473V32.248H308.249V27.5932C308.249 26.3675 307.534 25.5065 306.512 25.5065C305.316 25.5065 304.469 26.3091 304.469 27.4473V32.248H303.375V27.5932C303.375 26.3675 302.66 25.5065 301.639 25.5065C300.442 25.5065 299.596 26.3091 299.596 27.4473V32.248H298.501V24.704H299.596V25.813C299.975 25.025 300.792 24.5289 301.784 24.5289C302.923 24.5289 303.813 25.1563 304.221 26.134C304.528 25.1563 305.52 24.5289 306.658 24.5289ZM314.954 31.4455C315.844 31.4455 316.866 31.0515 317.333 30.5408L318.004 31.2558C317.347 31.9708 316.019 32.4232 314.969 32.4232C312.955 32.4232 311.146 30.7743 311.146 28.4541C311.146 26.207 312.838 24.5289 314.867 24.5289C317.143 24.5289 318.442 26.2507 318.442 28.8919H312.269C312.43 30.3657 313.466 31.4455 314.954 31.4455ZM314.91 25.5065C313.568 25.5065 312.488 26.455 312.284 27.9142H317.362C317.216 26.5572 316.413 25.5065 314.91 25.5065ZM323.822 24.5289C325.486 24.5289 326.653 25.74 326.653 27.4473V32.248H325.559V27.5932C325.559 26.3675 324.785 25.5065 323.676 25.5065C322.407 25.5065 321.341 26.3967 321.341 27.4473V32.248H320.247V24.704H321.341V25.9151C321.779 25.1126 322.757 24.5289 323.822 24.5289ZM332.18 31.1391L332.72 31.9416C332.326 32.248 331.83 32.4232 331.319 32.4232C330.24 32.4232 329.481 31.6206 329.481 30.497V25.6816H328.299V24.704H329.481V22.6319H330.575V24.704H332.428V25.6816H330.575V30.497C330.575 31.0515 330.955 31.4455 331.392 31.4455C331.728 31.4455 332.02 31.3142 332.18 31.1391Z" fill="#22343C"/>
<path d="M208.574 70.4399V67.0351L205.206 62.086H206.385L209.073 66.1353L211.784 62.086H212.927L209.571 67.0351V70.4399H208.574ZM215.598 70.5859C213.835 70.5859 212.339 69.078 212.339 67.2905C212.339 65.503 213.835 64.0073 215.598 64.0073C217.361 64.0073 218.845 65.503 218.845 67.2905C218.845 69.078 217.361 70.5859 215.598 70.5859ZM215.598 69.7711C216.838 69.7711 217.884 68.6403 217.884 67.2905C217.884 65.9529 216.838 64.822 215.598 64.822C214.346 64.822 213.3 65.9529 213.3 67.2905C213.3 68.6403 214.346 69.7711 215.598 69.7711ZM224.777 64.1532H225.689V70.4399H224.777V69.4307C224.412 70.0995 223.598 70.5859 222.71 70.5859C221.324 70.5859 220.351 69.5766 220.351 68.1539V64.1532H221.263V68.0323C221.263 69.0537 221.907 69.7711 222.832 69.7711C223.89 69.7711 224.777 69.0294 224.777 68.1539V64.1532ZM233.993 70.5859C232.229 70.5859 230.734 69.078 230.734 67.2905C230.734 65.503 232.229 64.0073 233.993 64.0073C234.844 64.0073 235.634 64.3599 236.23 64.9315L235.598 65.5516C235.184 65.1017 234.613 64.822 233.993 64.822C232.74 64.822 231.694 65.9529 231.694 67.2905C231.694 68.6403 232.74 69.7711 233.993 69.7711C234.625 69.7711 235.209 69.4793 235.634 69.0051L236.266 69.6252C235.671 70.2211 234.868 70.5859 233.993 70.5859ZM240.218 64.0073C241.933 64.0073 242.772 65.0895 242.772 66.6095V70.4399H241.86V69.455C241.41 70.1967 240.474 70.5859 239.647 70.5859C238.321 70.5859 237.349 69.8198 237.349 68.5795C237.349 67.327 238.467 66.4879 239.817 66.4879C240.498 66.4879 241.215 66.6339 241.86 66.8406V66.6095C241.86 65.7583 241.519 64.7855 240.158 64.7855C239.525 64.7855 238.893 65.0652 238.321 65.3571L237.957 64.6153C238.856 64.1654 239.61 64.0073 240.218 64.0073ZM239.805 69.7833C240.632 69.7833 241.617 69.3577 241.86 68.47V67.5094C241.288 67.3513 240.644 67.254 239.963 67.254C239.027 67.254 238.236 67.7891 238.236 68.543C238.236 69.3212 238.917 69.7833 239.805 69.7833ZM247.627 64.0073C249.013 64.0073 249.986 65.0166 249.986 66.4393V70.4399H249.074V66.5609C249.074 65.5395 248.429 64.822 247.505 64.822C246.447 64.822 245.56 65.5638 245.56 66.4393V70.4399H244.648V64.1532H245.56V65.1625C245.924 64.4937 246.739 64.0073 247.627 64.0073ZM262.156 64.0073C263.469 64.0073 264.393 65.0166 264.393 66.4393V70.4399H263.481V66.5609C263.481 65.5395 262.886 64.822 262.034 64.822C261.037 64.822 260.332 65.4908 260.332 66.4393V70.4399H259.42V66.5609C259.42 65.5395 258.824 64.822 257.973 64.822C256.976 64.822 256.27 65.4908 256.27 66.4393V70.4399H255.358V64.1532H256.27V65.0774C256.587 64.4207 257.268 64.0073 258.094 64.0073C259.043 64.0073 259.785 64.5302 260.125 65.3449C260.381 64.5302 261.207 64.0073 262.156 64.0073ZM268.79 64.0073C270.504 64.0073 271.343 65.0895 271.343 66.6095V70.4399H270.431V69.455C269.981 70.1967 269.045 70.5859 268.218 70.5859C266.893 70.5859 265.92 69.8198 265.92 68.5795C265.92 67.327 267.039 66.4879 268.388 66.4879C269.069 66.4879 269.787 66.6339 270.431 66.8406V66.6095C270.431 65.7583 270.091 64.7855 268.729 64.7855C268.096 64.7855 267.464 65.0652 266.893 65.3571L266.528 64.6153C267.428 64.1654 268.182 64.0073 268.79 64.0073ZM268.376 69.7833C269.203 69.7833 270.188 69.3577 270.431 68.47V67.5094C269.86 67.3513 269.215 67.254 268.534 67.254C267.598 67.254 266.808 67.7891 266.808 68.543C266.808 69.3212 267.488 69.7833 268.376 69.7833ZM276.198 64.0073C277.584 64.0073 278.557 65.0166 278.557 66.4393V70.4399H277.645V66.5609C277.645 65.5395 277.001 64.822 276.076 64.822C275.018 64.822 274.131 65.5638 274.131 66.4393V70.4399H273.219V64.1532H274.131V65.1625C274.496 64.4937 275.31 64.0073 276.198 64.0073ZM282.956 64.0073C284.671 64.0073 285.51 65.0895 285.51 66.6095V70.4399H284.598V69.455C284.148 70.1967 283.212 70.5859 282.385 70.5859C281.059 70.5859 280.087 69.8198 280.087 68.5795C280.087 67.327 281.205 66.4879 282.555 66.4879C283.236 66.4879 283.954 66.6339 284.598 66.8406V66.6095C284.598 65.7583 284.258 64.7855 282.896 64.7855C282.263 64.7855 281.631 65.0652 281.059 65.3571L280.695 64.6153C281.595 64.1654 282.348 64.0073 282.956 64.0073ZM282.543 69.7833C283.37 69.7833 284.355 69.3577 284.598 68.47V67.5094C284.027 67.3513 283.382 67.254 282.701 67.254C281.765 67.254 280.974 67.7891 280.974 68.543C280.974 69.3212 281.655 69.7833 282.543 69.7833ZM292.262 64.1532H293.174V69.7711C293.174 71.3884 291.897 72.5315 290.085 72.5315C289.064 72.5315 288.115 72.1788 287.544 71.6924L287.945 70.975C288.431 71.4371 289.185 71.7167 289.964 71.7167C291.411 71.7167 292.262 70.9993 292.262 69.7711V68.7497C291.775 69.5158 290.973 69.9779 289.976 69.9779C288.285 69.9779 287.082 68.7375 287.082 66.9865C287.082 65.2355 288.285 64.0073 289.976 64.0073C290.973 64.0073 291.775 64.4694 292.262 65.2355V64.1532ZM290.146 69.1631C291.386 69.1631 292.262 68.2633 292.262 66.9865C292.262 65.7219 291.386 64.822 290.146 64.822C288.918 64.822 288.042 65.7219 288.042 66.9865C288.042 68.2633 288.918 69.1631 290.146 69.1631ZM297.937 69.7711C298.679 69.7711 299.53 69.4428 299.919 69.0172L300.479 69.6131C299.932 70.2089 298.825 70.5859 297.95 70.5859C296.271 70.5859 294.764 69.2118 294.764 67.2783C294.764 65.4057 296.174 64.0073 297.864 64.0073C299.761 64.0073 300.844 65.4422 300.844 67.6431H295.7C295.834 68.8713 296.697 69.7711 297.937 69.7711ZM297.901 64.822C296.782 64.822 295.882 65.6124 295.712 66.8284H299.944C299.822 65.6975 299.153 64.822 297.901 64.822ZM310.289 64.1532H311.201V70.4399H310.289V69.4307C309.924 70.0995 309.11 70.5859 308.222 70.5859C306.836 70.5859 305.863 69.5766 305.863 68.1539V64.1532H306.775V68.0323C306.775 69.0537 307.419 69.7711 308.343 69.7711C309.401 69.7711 310.289 69.0294 310.289 68.1539V64.1532ZM315.284 70.5859C314.409 70.5859 313.436 70.2575 312.682 69.6495L313.156 68.9807C313.874 69.5036 314.591 69.7711 315.284 69.7711C316.111 69.7711 316.671 69.382 316.671 68.7862C316.671 68.1052 315.941 67.8863 315.09 67.6431C313.57 67.2054 312.986 66.7555 312.986 65.8556C312.986 64.7126 313.935 64.0073 315.187 64.0073C315.965 64.0073 316.768 64.2748 317.437 64.7126L316.999 65.4179C316.367 65.0166 315.746 64.822 315.187 64.822C314.482 64.822 313.898 65.1382 313.898 65.7462C313.898 66.2934 314.36 66.4636 315.528 66.8406C316.537 67.1567 317.583 67.4972 317.583 68.6889C317.583 69.8441 316.586 70.5859 315.284 70.5859ZM321.925 69.7711C322.667 69.7711 323.518 69.4428 323.907 69.0172L324.466 69.6131C323.919 70.2089 322.813 70.5859 321.937 70.5859C320.259 70.5859 318.751 69.2118 318.751 67.2783C318.751 65.4057 320.162 64.0073 321.852 64.0073C323.749 64.0073 324.831 65.4422 324.831 67.6431H319.687C319.821 68.8713 320.685 69.7711 321.925 69.7711ZM321.888 64.822C320.77 64.822 319.87 65.6124 319.7 66.8284H323.931C323.81 65.6975 323.141 64.822 321.888 64.822ZM327.321 65.3814C327.698 64.5423 328.597 64.0073 329.753 64.0073V64.822C328.33 64.822 327.321 65.6975 327.321 66.9257V70.4399H326.409V64.1532H327.321V65.3814ZM333.239 70.5859C332.364 70.5859 331.391 70.2575 330.637 69.6495L331.111 68.9807C331.829 69.5036 332.546 69.7711 333.239 69.7711C334.066 69.7711 334.626 69.382 334.626 68.7862C334.626 68.1052 333.896 67.8863 333.045 67.6431C331.525 67.2054 330.941 66.7555 330.941 65.8556C330.941 64.7126 331.89 64.0073 333.142 64.0073C333.92 64.0073 334.723 64.2748 335.392 64.7126L334.954 65.4179C334.322 65.0166 333.701 64.822 333.142 64.822C332.437 64.822 331.853 65.1382 331.853 65.7462C331.853 66.2934 332.315 66.4636 333.483 66.8406C334.492 67.1567 335.538 67.4972 335.538 68.6889C335.538 69.8441 334.541 70.5859 333.239 70.5859ZM343.127 64.0073C344.842 64.0073 345.681 65.0895 345.681 66.6095V70.4399H344.769V69.455C344.319 70.1967 343.382 70.5859 342.556 70.5859C341.23 70.5859 340.257 69.8198 340.257 68.5795C340.257 67.327 341.376 66.4879 342.726 66.4879C343.407 66.4879 344.124 66.6339 344.769 66.8406V66.6095C344.769 65.7583 344.428 64.7855 343.066 64.7855C342.434 64.7855 341.802 65.0652 341.23 65.3571L340.865 64.6153C341.765 64.1654 342.519 64.0073 343.127 64.0073ZM342.714 69.7833C343.541 69.7833 344.525 69.3577 344.769 68.47V67.5094C344.197 67.3513 343.553 67.254 342.872 67.254C341.935 67.254 341.145 67.7891 341.145 68.543C341.145 69.3212 341.826 69.7833 342.714 69.7833ZM350.535 64.0073C351.922 64.0073 352.895 65.0166 352.895 66.4393V70.4399H351.983V66.5609C351.983 65.5395 351.338 64.822 350.414 64.822C349.356 64.822 348.468 65.5638 348.468 66.4393V70.4399H347.556V64.1532H348.468V65.1625C348.833 64.4937 349.648 64.0073 350.535 64.0073ZM359.653 61.9401H360.565V70.4399H359.653V69.2604C359.179 70.0873 358.376 70.5859 357.367 70.5859C355.713 70.5859 354.473 69.2239 354.473 67.2905C354.473 65.3692 355.713 64.0073 357.367 64.0073C358.376 64.0073 359.179 64.5059 359.653 65.3327V61.9401ZM357.537 69.7711C358.777 69.7711 359.653 68.7375 359.653 67.2905C359.653 65.8435 358.777 64.822 357.537 64.822C356.309 64.822 355.433 65.8435 355.433 67.2905C355.433 68.7375 356.309 69.7711 357.537 69.7711ZM368.575 64.0073C370.29 64.0073 371.129 65.0895 371.129 66.6095V70.4399H370.217V69.455C369.767 70.1967 368.831 70.5859 368.004 70.5859C366.678 70.5859 365.705 69.8198 365.705 68.5795C365.705 67.327 366.824 66.4879 368.174 66.4879C368.855 66.4879 369.572 66.6339 370.217 66.8406V66.6095C370.217 65.7583 369.876 64.7855 368.514 64.7855C367.882 64.7855 367.25 65.0652 366.678 65.3571L366.313 64.6153C367.213 64.1654 367.967 64.0073 368.575 64.0073ZM368.162 69.7833C368.989 69.7833 369.974 69.3577 370.217 68.47V67.5094C369.645 67.3513 369.001 67.254 368.32 67.254C367.384 67.254 366.593 67.7891 366.593 68.543C366.593 69.3212 367.274 69.7833 368.162 69.7833ZM375.218 70.5859C374.342 70.5859 373.369 70.2575 372.615 69.6495L373.09 68.9807C373.807 69.5036 374.524 69.7711 375.218 69.7711C376.044 69.7711 376.604 69.382 376.604 68.7862C376.604 68.1052 375.874 67.8863 375.023 67.6431C373.503 67.2054 372.919 66.7555 372.919 65.8556C372.919 64.7126 373.868 64.0073 375.12 64.0073C375.898 64.0073 376.701 64.2748 377.37 64.7126L376.932 65.4179C376.3 65.0166 375.68 64.822 375.12 64.822C374.415 64.822 373.831 65.1382 373.831 65.7462C373.831 66.2934 374.293 66.4636 375.461 66.8406C376.47 67.1567 377.516 67.4972 377.516 68.6889C377.516 69.8441 376.519 70.5859 375.218 70.5859ZM381.25 70.5859C380.374 70.5859 379.402 70.2575 378.648 69.6495L379.122 68.9807C379.839 69.5036 380.557 69.7711 381.25 69.7711C382.077 69.7711 382.636 69.382 382.636 68.7862C382.636 68.1052 381.907 67.8863 381.055 67.6431C379.535 67.2054 378.952 66.7555 378.952 65.8556C378.952 64.7126 379.9 64.0073 381.153 64.0073C381.931 64.0073 382.734 64.2748 383.402 64.7126L382.965 65.4179C382.332 65.0166 381.712 64.822 381.153 64.822C380.447 64.822 379.864 65.1382 379.864 65.7462C379.864 66.2934 380.326 66.4636 381.493 66.8406C382.502 67.1567 383.548 67.4972 383.548 68.6889C383.548 69.8441 382.551 70.5859 381.25 70.5859ZM385.507 63.0102C385.167 63.0102 384.899 62.7305 384.899 62.4022C384.899 62.086 385.167 61.8063 385.507 61.8063C385.835 61.8063 386.103 62.086 386.103 62.4022C386.103 62.7305 385.835 63.0102 385.507 63.0102ZM385.045 70.4399V64.1532H385.957V70.4399H385.045ZM392.677 64.1532H393.589V69.7711C393.589 71.3884 392.312 72.5315 390.5 72.5315C389.479 72.5315 388.53 72.1788 387.959 71.6924L388.36 70.975C388.846 71.4371 389.6 71.7167 390.379 71.7167C391.826 71.7167 392.677 70.9993 392.677 69.7711V68.7497C392.19 69.5158 391.388 69.9779 390.391 69.9779C388.7 69.9779 387.497 68.7375 387.497 66.9865C387.497 65.2355 388.7 64.0073 390.391 64.0073C391.388 64.0073 392.19 64.4694 392.677 65.2355V64.1532ZM390.561 69.1631C391.801 69.1631 392.677 68.2633 392.677 66.9865C392.677 65.7219 391.801 64.822 390.561 64.822C389.333 64.822 388.457 65.7219 388.457 66.9865C388.457 68.2633 389.333 69.1631 390.561 69.1631ZM398.51 64.0073C399.897 64.0073 400.87 65.0166 400.87 66.4393V70.4399H399.958V66.5609C399.958 65.5395 399.313 64.822 398.389 64.822C397.331 64.822 396.443 65.5638 396.443 66.4393V70.4399H395.531V64.1532H396.443V65.1625C396.808 64.4937 397.623 64.0073 398.51 64.0073ZM206.908 82.3814C207.285 81.5423 208.185 81.0073 209.34 81.0073V81.822C207.917 81.822 206.908 82.6975 206.908 83.9257V87.4399H205.996V81.1532H206.908V82.3814ZM213.318 87.5859C211.555 87.5859 210.059 86.078 210.059 84.2905C210.059 82.503 211.555 81.0073 213.318 81.0073C215.081 81.0073 216.565 82.503 216.565 84.2905C216.565 86.078 215.081 87.5859 213.318 87.5859ZM213.318 86.7711C214.558 86.7711 215.604 85.6403 215.604 84.2905C215.604 82.9529 214.558 81.822 213.318 81.822C212.066 81.822 211.02 82.9529 211.02 84.2905C211.02 85.6403 212.066 86.7711 213.318 86.7711ZM218.071 87.4399V78.9401H218.983V87.4399H218.071ZM223.659 86.7711C224.401 86.7711 225.252 86.4428 225.641 86.0172L226.201 86.6131C225.653 87.2089 224.547 87.5859 223.671 87.5859C221.993 87.5859 220.485 86.2118 220.485 84.2783C220.485 82.4057 221.896 81.0073 223.586 81.0073C225.483 81.0073 226.565 82.4422 226.565 84.6431H221.422C221.556 85.8713 222.419 86.7711 223.659 86.7711ZM223.623 81.822C222.504 81.822 221.604 82.6124 221.434 83.8284H225.666C225.544 82.6975 224.875 81.822 223.623 81.822ZM230.283 87.5859C229.408 87.5859 228.435 87.2575 227.681 86.6495L228.155 85.9807C228.873 86.5036 229.59 86.7711 230.283 86.7711C231.11 86.7711 231.669 86.382 231.669 85.7862C231.669 85.1052 230.94 84.8863 230.089 84.6431C228.569 84.2054 227.985 83.7555 227.985 82.8556C227.985 81.7126 228.933 81.0073 230.186 81.0073C230.964 81.0073 231.767 81.2748 232.435 81.7126L231.998 82.4179C231.365 82.0166 230.745 81.822 230.186 81.822C229.481 81.822 228.897 82.1382 228.897 82.7462C228.897 83.2934 229.359 83.4636 230.526 83.8406C231.536 84.1567 232.581 84.4972 232.581 85.6889C232.581 86.8441 231.584 87.5859 230.283 87.5859ZM240.609 81.0073C241.995 81.0073 242.968 82.0166 242.968 83.4393V87.4399H242.056V83.5609C242.056 82.5395 241.411 81.822 240.487 81.822C239.429 81.822 238.541 82.5638 238.541 83.4393V87.4399H237.629V78.9401H238.541V82.1625C238.906 81.4937 239.721 81.0073 240.609 81.0073ZM247.647 86.7711C248.389 86.7711 249.24 86.4428 249.629 86.0172L250.188 86.6131C249.641 87.2089 248.534 87.5859 247.659 87.5859C245.981 87.5859 244.473 86.2118 244.473 84.2783C244.473 82.4057 245.884 81.0073 247.574 81.0073C249.471 81.0073 250.553 82.4422 250.553 84.6431H245.409C245.543 85.8713 246.406 86.7711 247.647 86.7711ZM247.61 81.822C246.492 81.822 245.592 82.6124 245.421 83.8284H249.653C249.532 82.6975 248.863 81.822 247.61 81.822ZM253.042 82.3814C253.419 81.5423 254.319 81.0073 255.474 81.0073V81.822C254.052 81.822 253.042 82.6975 253.042 83.9257V87.4399H252.13V81.1532H253.042V82.3814ZM259.569 86.7711C260.311 86.7711 261.162 86.4428 261.551 86.0172L262.111 86.6131C261.564 87.2089 260.457 87.5859 259.581 87.5859C257.903 87.5859 256.396 86.2118 256.396 84.2783C256.396 82.4057 257.806 81.0073 259.496 81.0073C261.393 81.0073 262.476 82.4422 262.476 84.6431H257.332C257.466 85.8713 258.329 86.7711 259.569 86.7711ZM259.533 81.822C258.414 81.822 257.514 82.6124 257.344 83.8284H261.576C261.454 82.6975 260.785 81.822 259.533 81.822ZM264.6 87.5859C264.223 87.5859 263.931 87.2819 263.931 86.9171C263.931 86.5766 264.223 86.2726 264.6 86.2726C264.953 86.2726 265.245 86.5766 265.245 86.9171C265.245 87.2819 264.953 87.5859 264.6 87.5859Z" fill="#4F6169"/>
<path d="M208.474 139.321C207.231 139.321 206.252 138.87 205.493 138.122L206.032 137.451C206.67 138.089 207.451 138.54 208.507 138.54C209.673 138.54 210.267 137.902 210.267 137.22C210.267 136.417 209.552 136.098 208.232 135.79C206.714 135.438 205.757 134.965 205.757 133.656C205.757 132.446 206.835 131.5 208.287 131.5C209.409 131.5 210.245 131.94 210.938 132.578L210.41 133.249C209.783 132.644 209.035 132.281 208.243 132.281C207.308 132.281 206.626 132.897 206.626 133.59C206.626 134.371 207.374 134.646 208.661 134.954C210.102 135.295 211.136 135.812 211.136 137.143C211.136 138.342 210.234 139.321 208.474 139.321ZM215.066 138.364L215.473 138.969C215.176 139.2 214.802 139.332 214.417 139.332C213.603 139.332 213.031 138.727 213.031 137.88V134.25H212.14V133.513H213.031V131.951H213.856V133.513H215.253V134.25H213.856V137.88C213.856 138.298 214.142 138.595 214.472 138.595C214.725 138.595 214.945 138.496 215.066 138.364ZM219.203 138.595C219.874 138.595 220.644 138.298 220.996 137.913L221.502 138.452C221.007 138.991 220.006 139.332 219.214 139.332C217.696 139.332 216.332 138.089 216.332 136.34C216.332 134.646 217.608 133.381 219.137 133.381C220.853 133.381 221.832 134.679 221.832 136.67H217.179C217.3 137.781 218.081 138.595 219.203 138.595ZM219.17 134.118C218.158 134.118 217.344 134.833 217.19 135.933H221.018C220.908 134.91 220.303 134.118 219.17 134.118ZM226.152 133.381C227.648 133.381 228.77 134.613 228.77 136.351C228.77 138.1 227.648 139.332 226.152 139.332C225.239 139.332 224.513 138.881 224.084 138.133V141.092H223.259V133.513H224.084V134.58C224.513 133.832 225.239 133.381 226.152 133.381ZM225.998 138.595C227.109 138.595 227.901 137.66 227.901 136.351C227.901 135.042 227.109 134.118 225.998 134.118C224.876 134.118 224.084 135.042 224.084 136.351C224.084 137.66 224.876 138.595 225.998 138.595ZM234.531 139.2V132.688L233.211 133.546L232.837 132.908L234.696 131.643H235.389V139.2H234.531ZM236.253 140.014L240.114 131.027H241.049L237.188 140.014H236.253ZM244.273 139.332C243.107 139.332 242.227 138.837 241.611 138.133L242.172 137.506C242.755 138.144 243.47 138.562 244.306 138.562C245.351 138.562 246.088 137.836 246.088 136.879C246.088 135.911 245.34 135.251 244.284 135.251C243.635 135.251 243.074 135.482 242.601 135.834L241.974 135.526L242.084 131.643H246.55V132.457H242.92L242.843 134.998C243.25 134.723 243.767 134.492 244.46 134.492C245.824 134.492 246.957 135.35 246.957 136.846C246.957 138.342 245.824 139.332 244.273 139.332Z" fill="#1B2B32"/>
<defs>
<filter id="filter0_d_11163_6452" x="159.633" y="0" width="289.388" height="166" filterUnits="userSpaceOnUse" color-interpolation-filters="sRGB">
<feFlood flood-opacity="0" result="BackgroundImageFix"/>
<feColorMatrix in="SourceAlpha" type="matrix" values="0 0 0 0 0 0 0 0 0 0 0 0 0 0 0 0 0 0 127 0" result="hardAlpha"/>
<feOffset dy="3"/>
<feGaussianBlur stdDeviation="3"/>
<feColorMatrix type="matrix" values="0 0 0 0 0 0 0 0 0 0 0 0 0 0 0 0 0 0 0.2 0"/>
<feBlend mode="normal" in2="BackgroundImageFix" result="effect1_dropShadow_11163_6452"/>
<feBlend mode="normal" in="SourceGraphic" in2="effect1_dropShadow_11163_6452" result="shape"/>
</filter>
</defs>
</svg>
