<svg width="293" height="200" viewBox="0 0 293 200" fill="none" xmlns="http://www.w3.org/2000/svg">
<rect x="0.5" y="0.5" width="292" height="199" fill="white"/>
<rect x="0.5" y="0.5" width="292" height="199" stroke="#ACB8BE"/>
<g opacity="0.5">
<rect width="293" height="16" fill="#4F6169"/>
</g>
<rect width="51" height="182" transform="translate(1 17)" fill="#F1F6F8"/>
<rect opacity="0.4" x="67" y="60.3975" width="61.631" height="2.08333" rx="1.04167" fill="#4F6169"/>
<rect opacity="0.4" x="67" y="68.7309" width="61.631" height="2.08333" rx="1.04167" fill="#4F6169"/>
<rect opacity="0.4" x="67" y="77.0642" width="39.6199" height="2.08333" rx="1.04167" fill="#4F6169"/>
<rect opacity="0.6" x="67" y="89" width="27" height="9" rx="1.6" fill="#0079AD"/>
<path d="M68.4249 54L66.7095 48.9852H67.3518L68.7387 53.0438L70.0673 48.9852H70.7023L72.0308 53.0438L73.4177 48.9852H74.0601L72.3447 54H71.7826L70.3884 49.7298L68.9869 54H68.4249ZM76.5082 53.5985C76.9535 53.5985 77.4645 53.4014 77.6981 53.146L78.0339 53.5036C77.7054 53.8613 77.0411 54.0876 76.5155 54.0876C75.5082 54.0876 74.6031 53.2627 74.6031 52.1021C74.6031 50.978 75.4498 50.1385 76.4645 50.1385C77.6032 50.1385 78.2528 50.9999 78.2528 52.3211H75.1651C75.2454 53.0584 75.7637 53.5985 76.5082 53.5985ZM76.4863 50.6276C75.8148 50.6276 75.2746 51.1021 75.1724 51.832H77.7127C77.6397 51.1532 77.2382 50.6276 76.4863 50.6276ZM79.1726 54V48.8976H79.7201V54H79.1726ZM82.6109 54.0876C81.5525 54.0876 80.6546 53.1825 80.6546 52.1094C80.6546 51.0364 81.5525 50.1385 82.6109 50.1385C83.1219 50.1385 83.5963 50.3502 83.954 50.6933L83.5744 51.0656C83.3263 50.7955 82.9832 50.6276 82.6109 50.6276C81.859 50.6276 81.2313 51.3065 81.2313 52.1094C81.2313 52.9197 81.859 53.5985 82.6109 53.5985C82.9905 53.5985 83.3409 53.4233 83.5963 53.1387L83.9759 53.5109C83.6182 53.8686 83.1365 54.0876 82.6109 54.0876ZM86.3961 54.0876C85.3231 54.0876 84.4471 53.197 84.4471 52.1094C84.4471 51.0218 85.3231 50.1385 86.3961 50.1385C87.4618 50.1385 88.3378 51.0218 88.3378 52.1094C88.3378 53.197 87.4618 54.0876 86.3961 54.0876ZM86.3961 53.5985C87.148 53.5985 87.7684 52.927 87.7684 52.1094C87.7684 51.2919 87.148 50.6276 86.3961 50.6276C85.637 50.6276 85.0165 51.2919 85.0165 52.1094C85.0165 52.927 85.637 53.5985 86.3961 53.5985ZM93.3613 50.1385C94.1496 50.1385 94.7044 50.7444 94.7044 51.5984V54H94.1569V51.6714C94.1569 51.0583 93.7992 50.6276 93.2883 50.6276C92.6897 50.6276 92.2663 51.0291 92.2663 51.5984V54H91.7189V51.6714C91.7189 51.0583 91.3612 50.6276 90.8502 50.6276C90.2516 50.6276 89.8283 51.0291 89.8283 51.5984V54H89.2808V50.2261H89.8283V50.7809C90.0181 50.3867 90.4268 50.1385 90.9232 50.1385C91.5218 50.1385 91.9889 50.4889 92.1787 51.0364C92.2955 50.5035 92.7627 50.1385 93.3613 50.1385ZM97.4802 53.5985C97.9255 53.5985 98.4364 53.4014 98.67 53.146L99.0058 53.5036C98.6773 53.8613 98.0131 54.0876 97.4875 54.0876C96.4802 54.0876 95.575 53.2627 95.575 52.1021C95.575 50.978 96.4218 50.1385 97.4364 50.1385C98.5751 50.1385 99.2248 50.9999 99.2248 52.3211H96.1371C96.2174 53.0584 96.7356 53.5985 97.4802 53.5985ZM97.4583 50.6276C96.7867 50.6276 96.2466 51.1021 96.1444 51.832H98.6846C98.6116 51.1532 98.2102 50.6276 97.4583 50.6276Z" fill="#4F6169"/>
<rect opacity="0.4" x="67" y="144.167" width="189.295" height="2.08333" rx="1.04167" fill="#4F6169"/>
<rect opacity="0.4" x="67" y="165" width="115.558" height="2.08333" rx="1.04167" fill="#4F6169"/>
<rect opacity="0.4" x="67" y="154.583" width="183.793" height="2.08333" rx="1.04167" fill="#4F6169"/>
<g clip-path="url(#clip0_11165_4951)">
<path opacity="0.6" d="M208.695 36.7263C191.206 36.7263 177.036 50.8964 177.036 68.3848V123.745H240.353V68.3848C240.353 50.8964 226.183 36.7263 208.695 36.7263Z" fill="url(#paint0_linear_11165_4951)"/>
<path d="M225.777 60.9866L182.03 60.5633L189.429 52.1831C192.645 49.5252 197.521 50.761 199.095 52.0816L200.941 53.6391C202.6 55.0443 205.038 55.0443 206.68 53.6222C208.441 52.0985 211.099 52.217 212.724 53.893L213.604 54.7903C214.722 55.9415 216.381 56.3817 217.921 55.9754L218.869 55.7214C220.782 55.1966 222.814 56.0262 223.83 57.7361L225.777 60.9866Z" fill="url(#paint1_linear_11165_4951)"/>
<path d="M221.714 64.8973L227.335 60.0723C228.587 59.0058 230.45 59.0566 231.635 60.1909L233.328 61.8161C234.614 63.052 236.663 62.9842 237.899 61.6807C238.965 60.5464 240.692 60.3263 241.996 61.1728L247.278 64.6095L221.714 64.8973Z" fill="url(#paint2_linear_11165_4951)"/>
<path d="M219.868 79.389L216.144 89.3775L214.62 99.366L213.266 99.5353L213.435 88.0231L214.789 79.5583L219.868 79.389Z" fill="#3E616D"/>
<path d="M209.592 57.2957C207.628 56.4154 205.309 57.0418 204.293 59.4119L204.361 59.7505L207.256 65.3373C208.729 65.168 210.185 64.2369 210.997 62.781C212.199 60.6309 211.573 58.1761 209.592 57.2957Z" fill="#113D56"/>
<path d="M207.848 69.0618L206.815 65.3712H205.867C205.342 65.3712 204.885 65.0326 204.75 64.5247L204.225 63.5766L203.277 63.4243L204.293 59.395L205.85 59.2596C206.51 59.2596 207.052 59.7674 207.12 60.4277C207.154 60.834 207.272 61.3419 207.509 61.9344C208.186 63.6274 208.847 64.4908 208.847 64.4908L211.048 67.0134L207.848 69.0618Z" fill="white"/>
<path d="M206.815 65.3712H205.867C205.342 65.3712 204.885 65.0326 204.75 64.5247L204.225 63.5767L203.277 63.4243L204.293 59.395" stroke="#113D56" stroke-width="0.270875" stroke-miterlimit="10"/>
<path d="M205.461 61.9175C205.601 61.9175 205.715 61.8038 205.715 61.6636C205.715 61.5233 205.601 61.4096 205.461 61.4096C205.321 61.4096 205.207 61.5233 205.207 61.6636C205.207 61.8038 205.321 61.9175 205.461 61.9175Z" fill="#113D56"/>
<path d="M194.152 98.9936C195.264 98.9936 196.166 98.0916 196.166 96.979C196.166 95.8663 195.264 94.9643 194.152 94.9643C193.039 94.9643 192.137 95.8663 192.137 96.979C192.137 98.0916 193.039 98.9936 194.152 98.9936Z" stroke="#6991A3" stroke-width="0.337223" stroke-miterlimit="10"/>
<path d="M194.152 97.9778C194.704 97.9778 195.151 97.5306 195.151 96.9789C195.151 96.4273 194.704 95.9801 194.152 95.9801C193.601 95.9801 193.153 96.4273 193.153 96.9789C193.153 97.5306 193.601 97.9778 194.152 97.9778Z" fill="#FF7212"/>
<path d="M227.47 107.577C233.043 107.577 237.56 103.059 237.56 97.4869C237.56 91.9143 233.043 87.3968 227.47 87.3968C221.897 87.3968 217.38 91.9143 217.38 97.4869C217.38 103.059 221.897 107.577 227.47 107.577Z" stroke="#6991A3" stroke-width="1.69297" stroke-miterlimit="10"/>
<path d="M194.118 107.577C199.691 107.577 204.208 103.059 204.208 97.4869C204.208 91.9143 199.691 87.3968 194.118 87.3968C188.545 87.3968 184.028 91.9143 184.028 97.4869C184.028 103.059 188.545 107.577 194.118 107.577Z" stroke="#6991A3" stroke-width="1.69297" stroke-miterlimit="10"/>
<path d="M227.469 100.382C229.068 100.382 230.364 99.0856 230.364 97.4868C230.364 95.8879 229.068 94.5918 227.469 94.5918C225.87 94.5918 224.574 95.8879 224.574 97.4868C224.574 99.0856 225.87 100.382 227.469 100.382Z" fill="#6991A3"/>
<path d="M217.921 82.3517L211.996 98.9428" stroke="#FF7212" stroke-width="0.846485" stroke-miterlimit="10"/>
<path d="M211.488 99.62L227.741 97.4192C227.741 97.4192 221.849 89.3099 216.229 86.2456C210.608 83.1813 199.976 82.0132 199.976 82.0132" stroke="#FF7212" stroke-width="0.846485" stroke-miterlimit="10"/>
<path d="M211.556 102.583C213.154 102.583 214.451 101.287 214.451 99.6877C214.451 98.0888 213.154 96.7927 211.556 96.7927C209.957 96.7927 208.661 98.0888 208.661 99.6877C208.661 101.287 209.957 102.583 211.556 102.583Z" fill="#FF7212"/>
<path d="M211.386 97.453L211.742 99.8739" stroke="#6991A3" stroke-width="1.18508" stroke-miterlimit="10" stroke-linecap="round"/>
<path d="M208.718 61.9846C208.819 61.4996 208.546 61.0317 208.107 60.9396C207.667 60.8475 207.229 61.1659 207.127 61.6509C207.025 62.1359 207.299 62.6038 207.738 62.6959C208.177 62.7881 208.616 62.4696 208.718 61.9846Z" fill="white"/>
<path d="M204.614 64.4739C204.953 64.4908 205.308 64.3723 205.562 64.1523" stroke="#113D56" stroke-width="0.270875" stroke-miterlimit="10"/>
<path d="M210.083 59.0902C211.15 59.0225 212.081 59.4119 212.25 60.2584" stroke="#113D56" stroke-width="1.01903" stroke-miterlimit="10" stroke-linecap="round"/>
<path d="M211.064 58.227C212.419 58.227 213.401 58.9719 213.739 59.8353" stroke="#113D56" stroke-width="1.01903" stroke-miterlimit="10" stroke-linecap="round"/>
<path d="M209.761 59.0734C209.338 57.5159 210.438 55.8737 212.182 55.3996C212.351 55.3489 212.538 55.315 212.707 55.2981" stroke="#113D56" stroke-width="1.01903" stroke-miterlimit="10" stroke-linecap="round"/>
<path d="M209.913 58.4299C210.523 56.9401 212.385 56.2968 214.061 56.974" stroke="#113D56" stroke-width="1.01903" stroke-miterlimit="10" stroke-linecap="round"/>
<path d="M209.778 58.9379C210.421 57.8037 211.962 57.4651 213.248 58.1761C213.485 58.3115 213.706 58.4808 213.892 58.6671" stroke="#113D56" stroke-width="1.01903" stroke-miterlimit="10" stroke-linecap="round"/>
<path d="M200.484 80.3033L194.22 96.9113" stroke="#FF7212" stroke-width="1.01578" stroke-miterlimit="10"/>
<path d="M199.806 74.3947L199.247 75.1227C198.909 75.546 199.027 76.1724 199.501 76.4432L200.551 77.0527C201.11 77.3744 201.347 78.0516 201.11 78.661L200.483 80.3032" stroke="#6991A3" stroke-width="0.677188" stroke-miterlimit="10"/>
<path d="M199.806 82.1825L211.657 96.5727" stroke="#FF7212" stroke-width="1.52367" stroke-miterlimit="10"/>
<path d="M216.821 70.0777C213.096 64.6602 209.609 65.5744 209.609 65.5744L207.848 68.8926L208.712 71.6352C209.118 73.0742 210.286 74.1746 211.742 74.4794L212.436 74.6317C213.181 77.4929 212.893 80.8957 212.893 80.8957L219.276 78.3224C219.259 78.3224 220.545 75.4952 216.821 70.0777Z" fill="#05A9E2"/>
<path d="M219.258 78.3224C219.258 78.3224 220.545 75.4952 216.82 70.0777C213.096 64.6602 209.608 65.5744 209.608 65.5744" stroke="#113D56" stroke-width="0.270875" stroke-miterlimit="10"/>
<path d="M212.554 80.8958C212.554 80.8958 212.842 77.476 212.097 74.6318L211.403 74.4794C209.947 74.1747 208.779 73.0743 208.373 71.6352L206.477 65.3712" stroke="#113D56" stroke-width="0.270875" stroke-miterlimit="10"/>
<path d="M209.372 67.3689L207.543 73.0742L202.43 72.7864L202.092 74.1408C202.092 74.1408 207.001 76.3416 208.864 75.3259C209.998 74.6995 211.742 71.0934 212.08 70.0777C212.419 69.0619 212.402 67.2335 212.402 67.2335C212.233 66.4716 211.522 66.0315 210.828 66.0822C210.506 66.1161 210.201 66.2685 209.964 66.4886L209.372 67.3689Z" fill="#F8F8F8"/>
<path d="M202.092 74.1408C202.092 74.1408 207.001 76.3417 208.864 75.3259C209.998 74.6995 211.742 71.0935 212.08 70.0777C212.419 69.0619 212.402 67.2335 212.402 67.2335" stroke="#113D56" stroke-width="0.270875" stroke-miterlimit="10"/>
<path d="M208.694 69.4513L207.543 73.0742L202.43 72.7864" stroke="#113D56" stroke-width="0.270875" stroke-miterlimit="10"/>
<path d="M215.264 82.013L221.866 81.2173L220.918 82.8426C220.58 83.4182 219.902 83.7229 219.242 83.6044L215.416 82.8595L215.264 82.013Z" fill="#6991A3"/>
<path d="M218.819 73.853L219.902 76.4094C220.732 78.3732 220.088 80.7434 218.446 81.793L211.573 85.2467L212.436 90.4949L213.215 96.1494L211.573 96.488L207.036 84.1124C206.815 83.249 207.086 82.3348 207.713 81.81L218.819 73.853Z" fill="#113D56"/>
<path d="M212.351 94.0501L213.214 96.1324L209.405 97.3514L209.473 96.9958C209.592 96.4372 209.896 95.9293 210.353 95.5738L212.351 94.0501Z" fill="#113D56"/>
<path d="M200.737 72.1092C200.195 71.9399 199.62 72.2785 199.552 73.0065C199.535 73.2943 199.552 73.7176 199.586 74.09C199.637 74.564 200.026 74.8688 200.432 74.8011L200.72 73.8022L201.956 74.1408L202.582 73.853V72.7864L200.737 72.1092Z" fill="white"/>
<path d="M202.599 72.7864L200.737 72.1092C200.195 71.9399 199.62 72.2785 199.552 73.0065C199.535 73.2943 199.552 73.7176 199.586 74.09" stroke="#113D56" stroke-width="0.270875" stroke-miterlimit="10"/>
<path d="M200.823 74.3101C201.15 74.3101 201.415 74.0448 201.415 73.7176C201.415 73.3903 201.15 73.125 200.823 73.125C200.495 73.125 200.23 73.3903 200.23 73.7176C200.23 74.0448 200.495 74.3101 200.823 74.3101Z" fill="#113D56"/>
<path d="M227.47 98.6889C228.134 98.6889 228.672 98.1507 228.672 97.4869C228.672 96.823 228.134 96.2849 227.47 96.2849C226.806 96.2849 226.268 96.823 226.268 97.4869C226.268 98.1507 226.806 98.6889 227.47 98.6889Z" fill="#3E616D"/>
<path d="M210.387 97.6731L212.757 96.8266" stroke="#3E616D" stroke-width="1.01578" stroke-miterlimit="10"/>
<path d="M182.284 108.508H240.861" stroke="#113D56" stroke-width="0.270875" stroke-miterlimit="10"/>
</g>
<rect opacity="0.5" x="142.029" y="32.6871" width="134.638" height="82.1291" fill="#4F6169"/>
<path fill-rule="evenodd" clip-rule="evenodd" d="M211.435 87.9558C219.429 87.9558 225.909 81.4758 225.909 73.4823C225.909 65.4888 219.429 59.0089 211.435 59.0089C203.442 59.0089 196.962 65.4888 196.962 73.4823C196.962 81.4758 203.442 87.9558 211.435 87.9558ZM207.739 66.9576L218.942 72.5588V72.554C219.279 72.7234 219.492 73.0688 219.492 73.4465C219.492 73.8242 219.279 74.1696 218.942 74.3391L207.768 79.9403C207.459 80.099 207.089 80.0844 206.793 79.9019C206.497 79.7194 206.318 79.3955 206.321 79.0478V67.8501C206.326 67.5117 206.501 67.1987 206.788 67.0185C207.074 66.8382 207.432 66.8153 207.739 66.9576Z" fill="white"/>
<defs>
<linearGradient id="paint0_linear_11165_4951" x1="209.084" y1="89.7281" x2="208.695" y2="45.1114" gradientUnits="userSpaceOnUse">
<stop stop-color="#05A9E2" stop-opacity="0"/>
<stop offset="0.9795" stop-color="#05A9E2"/>
</linearGradient>
<linearGradient id="paint1_linear_11165_4951" x1="203.905" y1="60.9264" x2="203.905" y2="57.0761" gradientUnits="userSpaceOnUse">
<stop stop-color="white" stop-opacity="0"/>
<stop offset="1" stop-color="white"/>
</linearGradient>
<linearGradient id="paint2_linear_11165_4951" x1="234.508" y1="64.328" x2="234.508" y2="59.5067" gradientUnits="userSpaceOnUse">
<stop stop-color="white" stop-opacity="0"/>
<stop offset="1" stop-color="white"/>
</linearGradient>
<clipPath id="clip0_11165_4951">
<rect width="70.2582" height="87.5146" fill="white" transform="translate(177.036 36.7263)"/>
</clipPath>
</defs>
</svg>
