<svg width="293" height="200" viewBox="0 0 293 200" fill="none" xmlns="http://www.w3.org/2000/svg">
<g clip-path="url(#clip0_11165_4681)">
<rect width="293" height="200" fill="#FCFDFD"/>
<path d="M293 0H0V200H293V0Z" fill="#4F6169"/>
<path d="M293 0H0V16H293V0Z" fill="#2D4048"/>
<g filter="url(#filter0_d_11165_4681)">
<rect x="37.127" y="47" width="224.767" height="109" rx="2.08559" fill="white" shape-rendering="crispEdges"/>
<rect opacity="0.4" x="50.0972" y="97.4154" width="76.3846" height="1.49101" rx="0.745507" fill="#4F6169"/>
<rect opacity="0.4" x="50.0972" y="103.379" width="76.3846" height="1.49101" rx="0.745507" fill="#4F6169"/>
<rect opacity="0.4" x="50.0972" y="109.344" width="48.6764" height="1.49101" rx="0.745507" fill="#4F6169"/>
<path d="M51.4776 88.3806L49.7622 83.3658H50.4046L51.7915 87.4244L53.12 83.3658H53.755L55.0836 87.4244L56.4705 83.3658H57.1128L55.3974 88.3806H54.8354L53.4412 84.1104L52.0397 88.3806H51.4776ZM59.561 87.9791C60.0063 87.9791 60.5172 87.7821 60.7508 87.5266L61.0866 87.8842C60.7581 88.2419 60.0938 88.4682 59.5683 88.4682C58.5609 88.4682 57.6558 87.6434 57.6558 86.4827C57.6558 85.3586 58.5025 84.5192 59.5172 84.5192C60.6559 84.5192 61.3056 85.3805 61.3056 86.7017H58.2179C58.2982 87.439 58.8164 87.9791 59.561 87.9791ZM59.5391 85.0082C58.8675 85.0082 58.3274 85.4827 58.2252 86.2126H60.7654C60.6924 85.5338 60.2909 85.0082 59.5391 85.0082ZM62.2254 88.3806V83.2782H62.7728V88.3806H62.2254ZM65.6636 88.4682C64.6052 88.4682 63.7074 87.5631 63.7074 86.49C63.7074 85.417 64.6052 84.5192 65.6636 84.5192C66.1746 84.5192 66.6491 84.7308 67.0068 85.0739L66.6272 85.4462C66.379 85.1761 66.0359 85.0082 65.6636 85.0082C64.9118 85.0082 64.284 85.6871 64.284 86.49C64.284 87.3003 64.9118 87.9791 65.6636 87.9791C66.0432 87.9791 66.3936 87.804 66.6491 87.5193L67.0286 87.8915C66.671 88.2492 66.1892 88.4682 65.6636 88.4682ZM69.4488 88.4682C68.3758 88.4682 67.4999 87.5777 67.4999 86.49C67.4999 85.4024 68.3758 84.5192 69.4488 84.5192C70.5146 84.5192 71.3905 85.4024 71.3905 86.49C71.3905 87.5777 70.5146 88.4682 69.4488 88.4682ZM69.4488 87.9791C70.2007 87.9791 70.8212 87.3076 70.8212 86.49C70.8212 85.6725 70.2007 85.0082 69.4488 85.0082C68.6897 85.0082 68.0692 85.6725 68.0692 86.49C68.0692 87.3076 68.6897 87.9791 69.4488 87.9791ZM76.414 84.5192C77.2023 84.5192 77.7571 85.125 77.7571 85.9791V88.3806H77.2096V86.0521C77.2096 85.4389 76.852 85.0082 76.341 85.0082C75.7424 85.0082 75.3191 85.4097 75.3191 85.9791V88.3806H74.7716V86.0521C74.7716 85.4389 74.4139 85.0082 73.9029 85.0082C73.3044 85.0082 72.881 85.4097 72.881 85.9791V88.3806H72.3335V84.6067H72.881V85.1615C73.0708 84.7673 73.4796 84.5192 73.9759 84.5192C74.5745 84.5192 75.0417 84.8695 75.2315 85.417C75.3483 84.8841 75.8154 84.5192 76.414 84.5192ZM80.5329 87.9791C80.9782 87.9791 81.4892 87.7821 81.7228 87.5266L82.0585 87.8842C81.7301 88.2419 81.0658 88.4682 80.5402 88.4682C79.5329 88.4682 78.6277 87.6434 78.6277 86.4827C78.6277 85.3586 79.4745 84.5192 80.4891 84.5192C81.6279 84.5192 82.2775 85.3805 82.2775 86.7017H79.1898C79.2701 87.439 79.7884 87.9791 80.5329 87.9791ZM80.511 85.0082C79.8395 85.0082 79.2993 85.4827 79.1971 86.2126H81.7374C81.6644 85.5338 81.2629 85.0082 80.511 85.0082Z" fill="#4F6169"/>
<g clip-path="url(#clip1_11165_4681)">
<path opacity="0.6" d="M203.281 59.3964C186.61 59.3964 173.102 72.9041 173.102 89.5749V142.347H233.459V89.5749C233.459 72.9041 219.951 59.3964 203.281 59.3964Z" fill="url(#paint0_linear_11165_4681)"/>
<path d="M219.564 82.5225L177.863 82.1191L184.915 74.1306C187.981 71.5969 192.629 72.775 194.13 74.0338L195.889 75.5185C197.471 76.858 199.795 76.858 201.36 75.5024C203.038 74.0499 205.572 74.1629 207.121 75.7606L207.961 76.6159C209.026 77.7133 210.607 78.1329 212.076 77.7456L212.98 77.5035C214.803 77.0032 216.74 77.794 217.708 79.424L219.564 82.5225Z" fill="url(#paint1_linear_11165_4681)"/>
<path d="M215.691 86.2504L221.049 81.651C222.243 80.6343 224.018 80.6827 225.148 81.764L226.762 83.3132C227.988 84.4913 229.941 84.4268 231.119 83.1841C232.136 82.1029 233.782 81.8931 235.025 82.7L240.06 85.9761L215.691 86.2504Z" fill="url(#paint2_linear_11165_4681)"/>
<path d="M213.932 100.065L210.381 109.586L208.929 119.108L207.638 119.269L207.799 108.295L209.09 100.226L213.932 100.065Z" fill="#3E616D"/>
<path d="M204.136 79.0042C202.264 78.165 200.053 78.7622 199.084 81.0215L199.149 81.3443L201.909 86.6699C203.313 86.5085 204.701 85.6209 205.475 84.233C206.621 82.1835 206.024 79.8434 204.136 79.0042Z" fill="#113D56"/>
<path d="M202.474 90.2203L201.489 86.7021H200.585C200.085 86.7021 199.649 86.3794 199.52 85.8952L199.02 84.9915L198.116 84.8462L199.085 81.0053L200.569 80.8762C201.199 80.8762 201.715 81.3604 201.78 81.9898C201.812 82.3771 201.925 82.8612 202.151 83.4261C202.796 85.0399 203.426 85.8629 203.426 85.8629L205.524 88.2675L202.474 90.2203Z" fill="white"/>
<path d="M201.489 86.7022H200.585C200.085 86.7022 199.649 86.3794 199.52 85.8953L199.02 84.9915L198.116 84.8463L199.085 81.0054" stroke="#113D56" stroke-width="0.258212" stroke-miterlimit="10"/>
<path d="M200.198 83.4099C200.332 83.4099 200.44 83.3015 200.44 83.1679C200.44 83.0342 200.332 82.9258 200.198 82.9258C200.064 82.9258 199.956 83.0342 199.956 83.1679C199.956 83.3015 200.064 83.4099 200.198 83.4099Z" fill="#113D56"/>
<path d="M189.418 118.753C190.478 118.753 191.338 117.893 191.338 116.832C191.338 115.772 190.478 114.912 189.418 114.912C188.357 114.912 187.497 115.772 187.497 116.832C187.497 117.893 188.357 118.753 189.418 118.753Z" stroke="#6991A3" stroke-width="0.321458" stroke-miterlimit="10"/>
<path d="M189.418 117.784C189.944 117.784 190.37 117.358 190.37 116.832C190.37 116.306 189.944 115.88 189.418 115.88C188.892 115.88 188.466 116.306 188.466 116.832C188.466 117.358 188.892 117.784 189.418 117.784Z" fill="#FF7212"/>
<path d="M221.178 126.935C226.49 126.935 230.796 122.629 230.796 117.316C230.796 112.004 226.49 107.698 221.178 107.698C215.866 107.698 211.56 112.004 211.56 117.316C211.56 122.629 215.866 126.935 221.178 126.935Z" stroke="#6991A3" stroke-width="1.61382" stroke-miterlimit="10"/>
<path d="M189.385 126.935C194.698 126.935 199.004 122.629 199.004 117.316C199.004 112.004 194.698 107.698 189.385 107.698C184.073 107.698 179.767 112.004 179.767 117.316C179.767 122.629 184.073 126.935 189.385 126.935Z" stroke="#6991A3" stroke-width="1.61382" stroke-miterlimit="10"/>
<path d="M221.178 120.076C222.702 120.076 223.937 118.84 223.937 117.316C223.937 115.792 222.702 114.557 221.178 114.557C219.654 114.557 218.418 115.792 218.418 117.316C218.418 118.84 219.654 120.076 221.178 120.076Z" fill="#6991A3"/>
<path d="M212.076 102.889L206.428 118.704" stroke="#FF7212" stroke-width="0.806912" stroke-miterlimit="10"/>
<path d="M205.943 119.35L221.436 117.252C221.436 117.252 215.82 109.522 210.462 106.601C205.104 103.68 194.969 102.566 194.969 102.566" stroke="#FF7212" stroke-width="0.806912" stroke-miterlimit="10"/>
<path d="M206.008 122.174C207.532 122.174 208.767 120.938 208.767 119.414C208.767 117.89 207.532 116.655 206.008 116.655C204.484 116.655 203.248 117.89 203.248 119.414C203.248 120.938 204.484 122.174 206.008 122.174Z" fill="#FF7212"/>
<path d="M205.847 117.284L206.186 119.592" stroke="#6991A3" stroke-width="1.12968" stroke-miterlimit="10" stroke-linecap="round"/>
<path d="M203.303 83.4739C203.4 83.0116 203.139 82.5656 202.72 82.4777C202.301 82.3899 201.883 82.6935 201.786 83.1558C201.689 83.6181 201.95 84.0641 202.369 84.152C202.788 84.2398 203.206 83.9362 203.303 83.4739Z" fill="white"/>
<path d="M199.391 85.8468C199.714 85.863 200.053 85.75 200.295 85.5402" stroke="#113D56" stroke-width="0.258212" stroke-miterlimit="10"/>
<path d="M204.604 80.7148C205.621 80.6503 206.508 81.0214 206.67 81.8284" stroke="#113D56" stroke-width="0.971393" stroke-miterlimit="10" stroke-linecap="round"/>
<path d="M205.54 79.8919C206.831 79.8919 207.767 80.602 208.089 81.425" stroke="#113D56" stroke-width="0.971393" stroke-miterlimit="10" stroke-linecap="round"/>
<path d="M204.297 80.6987C203.894 79.214 204.943 77.6486 206.605 77.1967C206.767 77.1483 206.944 77.1161 207.105 77.0999" stroke="#113D56" stroke-width="0.971393" stroke-miterlimit="10" stroke-linecap="round"/>
<path d="M204.442 80.0853C205.023 78.6652 206.798 78.0519 208.396 78.6975" stroke="#113D56" stroke-width="0.971393" stroke-miterlimit="10" stroke-linecap="round"/>
<path d="M204.313 80.5696C204.926 79.4884 206.395 79.1656 207.621 79.8434C207.847 79.9725 208.057 80.1339 208.235 80.3114" stroke="#113D56" stroke-width="0.971393" stroke-miterlimit="10" stroke-linecap="round"/>
<path d="M195.454 100.936L189.482 116.768" stroke="#FF7212" stroke-width="0.968295" stroke-miterlimit="10"/>
<path d="M194.807 95.3039L194.275 95.9978C193.952 96.4013 194.065 96.9984 194.517 97.2566L195.518 97.8376C196.05 98.1442 196.276 98.7897 196.05 99.3707L195.453 100.936" stroke="#6991A3" stroke-width="0.64553" stroke-miterlimit="10"/>
<path d="M194.808 102.728L206.104 116.445" stroke="#FF7212" stroke-width="1.45244" stroke-miterlimit="10"/>
<path d="M211.027 91.1886C207.476 86.0243 204.152 86.8958 204.152 86.8958L202.474 90.0589L203.297 92.6733C203.684 94.045 204.798 95.094 206.185 95.3845L206.847 95.5298C207.557 98.2571 207.283 101.501 207.283 101.501L213.367 99.0479C213.351 99.0479 214.577 96.3528 211.027 91.1886Z" fill="#05A9E2"/>
<path d="M213.351 99.0479C213.351 99.0479 214.577 96.3528 211.027 91.1886C207.476 86.0243 204.152 86.8958 204.152 86.8958" stroke="#113D56" stroke-width="0.258212" stroke-miterlimit="10"/>
<path d="M206.96 101.501C206.96 101.501 207.234 98.241 206.524 95.5298L205.862 95.3846C204.474 95.0941 203.361 94.0451 202.974 92.6733L201.166 86.7022" stroke="#113D56" stroke-width="0.258212" stroke-miterlimit="10"/>
<path d="M203.926 88.6064L202.183 94.045L197.309 93.7707L196.986 95.0617C196.986 95.0617 201.666 97.1597 203.442 96.1914C204.523 95.5943 206.185 92.1569 206.508 91.1886C206.831 90.2203 206.815 88.4773 206.815 88.4773C206.653 87.7511 205.975 87.3315 205.314 87.3799C205.007 87.4122 204.717 87.5575 204.491 87.7673L203.926 88.6064Z" fill="#F8F8F8"/>
<path d="M196.986 95.0618C196.986 95.0618 201.666 97.1598 203.442 96.1915C204.523 95.5944 206.185 92.1569 206.508 91.1886C206.831 90.2203 206.815 88.4774 206.815 88.4774" stroke="#113D56" stroke-width="0.258212" stroke-miterlimit="10"/>
<path d="M203.28 90.5915L202.183 94.0451L197.309 93.7707" stroke="#113D56" stroke-width="0.258212" stroke-miterlimit="10"/>
<path d="M209.542 102.566L215.836 101.807L214.932 103.357C214.609 103.905 213.964 104.196 213.334 104.083L209.687 103.373L209.542 102.566Z" fill="#6991A3"/>
<path d="M212.931 94.7874L213.964 97.2243C214.755 99.0964 214.142 101.356 212.576 102.356L206.024 105.648L206.847 110.651L207.589 116.042L206.024 116.364L201.699 104.567C201.489 103.744 201.747 102.873 202.345 102.372L212.931 94.7874Z" fill="#113D56"/>
<path d="M206.766 114.04L207.589 116.025L203.958 117.187L204.023 116.848C204.136 116.316 204.426 115.832 204.862 115.493L206.766 114.04Z" fill="#113D56"/>
<path d="M195.695 93.1252C195.179 92.9638 194.63 93.2866 194.565 93.9805C194.549 94.2549 194.565 94.6583 194.598 95.0134C194.646 95.4652 195.017 95.7557 195.405 95.6912L195.679 94.739L196.857 95.0618L197.454 94.7874V93.7707L195.695 93.1252Z" fill="white"/>
<path d="M197.47 93.7707L195.695 93.1252C195.179 92.9638 194.63 93.2866 194.565 93.9805C194.549 94.2549 194.565 94.6583 194.598 95.0134" stroke="#113D56" stroke-width="0.258212" stroke-miterlimit="10"/>
<path d="M195.776 95.2232C196.088 95.2232 196.341 94.9703 196.341 94.6583C196.341 94.3464 196.088 94.0935 195.776 94.0935C195.464 94.0935 195.211 94.3464 195.211 94.6583C195.211 94.9703 195.464 95.2232 195.776 95.2232Z" fill="#113D56"/>
<path d="M221.178 118.462C221.811 118.462 222.324 117.949 222.324 117.316C222.324 116.684 221.811 116.171 221.178 116.171C220.545 116.171 220.032 116.684 220.032 117.316C220.032 117.949 220.545 118.462 221.178 118.462Z" fill="#3E616D"/>
<path d="M204.894 117.494L207.153 116.687" stroke="#3E616D" stroke-width="0.968295" stroke-miterlimit="10"/>
<path d="M178.105 127.823H233.943" stroke="#113D56" stroke-width="0.258212" stroke-miterlimit="10"/>
</g>
<rect opacity="0.6" width="20.0685" height="9" rx="1.6" transform="matrix(-1 0 0 1 254.87 140)" fill="#0079AD"/>
<rect opacity="0.5" x="-0.5" y="0.5" width="19.0685" height="8" rx="1.1" transform="matrix(-1 0 0 1 230.792 140)" stroke="#0079AD"/>
<path d="M252.525 57.1437L255.675 53.7687C255.822 53.585 255.812 53.3112 255.652 53.1402C255.492 52.9692 255.237 52.9586 255.066 53.1159L251.915 56.4909L248.765 53.1114C248.593 52.954 248.338 52.9646 248.178 53.1356C248.018 53.3066 248.009 53.5804 248.156 53.7641L251.306 57.1437L248.151 60.5187C248.028 60.6318 247.974 60.8095 248.012 60.9786C248.05 61.1477 248.173 61.2798 248.331 61.3205C248.489 61.3611 248.655 61.3036 248.761 61.1715L251.915 57.7965L255.066 61.1715C255.237 61.3288 255.492 61.3182 255.652 61.1473C255.812 60.9762 255.822 60.7024 255.675 60.5187L252.525 57.1437Z" fill="#4F6169"/>
</g>
</g>
<rect x="0.394911" y="0.394911" width="292.21" height="199.21" stroke="#ACB8BE" stroke-width="0.789823"/>
<defs>
<filter id="filter0_d_11165_4681" x="33.127" y="45" width="232.767" height="117" filterUnits="userSpaceOnUse" color-interpolation-filters="sRGB">
<feFlood flood-opacity="0" result="BackgroundImageFix"/>
<feColorMatrix in="SourceAlpha" type="matrix" values="0 0 0 0 0 0 0 0 0 0 0 0 0 0 0 0 0 0 127 0" result="hardAlpha"/>
<feOffset dy="2"/>
<feGaussianBlur stdDeviation="2"/>
<feComposite in2="hardAlpha" operator="out"/>
<feColorMatrix type="matrix" values="0 0 0 0 0 0 0 0 0 0 0 0 0 0 0 0 0 0 0.25 0"/>
<feBlend mode="normal" in2="BackgroundImageFix" result="effect1_dropShadow_11165_4681"/>
<feBlend mode="normal" in="SourceGraphic" in2="effect1_dropShadow_11165_4681" result="shape"/>
</filter>
<linearGradient id="paint0_linear_11165_4681" x1="203.651" y1="109.92" x2="203.281" y2="67.3895" gradientUnits="userSpaceOnUse">
<stop stop-color="#05A9E2" stop-opacity="0"/>
<stop offset="0.9795" stop-color="#05A9E2"/>
</linearGradient>
<linearGradient id="paint1_linear_11165_4681" x1="198.715" y1="82.4652" x2="198.715" y2="78.7948" gradientUnits="userSpaceOnUse">
<stop stop-color="white" stop-opacity="0"/>
<stop offset="1" stop-color="white"/>
</linearGradient>
<linearGradient id="paint2_linear_11165_4681" x1="227.887" y1="85.7078" x2="227.887" y2="81.1118" gradientUnits="userSpaceOnUse">
<stop stop-color="white" stop-opacity="0"/>
<stop offset="1" stop-color="white"/>
</linearGradient>
<clipPath id="clip0_11165_4681">
<rect width="293" height="200" fill="white"/>
</clipPath>
<clipPath id="clip1_11165_4681">
<rect width="66.9737" height="83.4234" fill="white" transform="translate(173.102 59.3964)"/>
</clipPath>
</defs>
</svg>
