<svg width="293" height="200" viewBox="0 0 293 200" fill="none" xmlns="http://www.w3.org/2000/svg">
<rect x="0.5" y="0.5" width="292" height="199" fill="white"/>
<rect x="0.5" y="0.5" width="292" height="199" stroke="#ACB8BE"/>
<g opacity="0.5">
<rect width="293" height="16" fill="#4F6169"/>
</g>
<rect width="51" height="182" transform="translate(1 17)" fill="#F1F6F8"/>
<rect opacity="0.4" x="68" y="60.3975" width="61.631" height="2.08333" rx="1.04167" fill="#4F6169"/>
<rect opacity="0.4" x="68" y="68.7309" width="61.631" height="2.08333" rx="1.04167" fill="#4F6169"/>
<rect opacity="0.4" x="68" y="77.0642" width="39.6199" height="2.08333" rx="1.04167" fill="#4F6169"/>
<path d="M69.4249 54L67.7095 48.9852H68.3518L69.7387 53.0438L71.0673 48.9852H71.7023L73.0308 53.0438L74.4177 48.9852H75.0601L73.3447 54H72.7826L71.3884 49.7298L69.9869 54H69.4249ZM77.5082 53.5985C77.9535 53.5985 78.4645 53.4014 78.6981 53.146L79.0339 53.5036C78.7054 53.8613 78.0411 54.0876 77.5155 54.0876C76.5082 54.0876 75.6031 53.2627 75.6031 52.1021C75.6031 50.978 76.4498 50.1385 77.4645 50.1385C78.6032 50.1385 79.2528 50.9999 79.2528 52.3211H76.1651C76.2454 53.0584 76.7637 53.5985 77.5082 53.5985ZM77.4863 50.6276C76.8148 50.6276 76.2746 51.1021 76.1724 51.832H78.7127C78.6397 51.1532 78.2382 50.6276 77.4863 50.6276ZM80.1726 54V48.8976H80.7201V54H80.1726ZM83.6109 54.0876C82.5525 54.0876 81.6546 53.1825 81.6546 52.1094C81.6546 51.0364 82.5525 50.1385 83.6109 50.1385C84.1219 50.1385 84.5963 50.3502 84.954 50.6933L84.5744 51.0656C84.3263 50.7955 83.9832 50.6276 83.6109 50.6276C82.859 50.6276 82.2313 51.3065 82.2313 52.1094C82.2313 52.9197 82.859 53.5985 83.6109 53.5985C83.9905 53.5985 84.3409 53.4233 84.5963 53.1387L84.9759 53.5109C84.6182 53.8686 84.1365 54.0876 83.6109 54.0876ZM87.3961 54.0876C86.3231 54.0876 85.4471 53.197 85.4471 52.1094C85.4471 51.0218 86.3231 50.1385 87.3961 50.1385C88.4618 50.1385 89.3378 51.0218 89.3378 52.1094C89.3378 53.197 88.4618 54.0876 87.3961 54.0876ZM87.3961 53.5985C88.148 53.5985 88.7684 52.927 88.7684 52.1094C88.7684 51.2919 88.148 50.6276 87.3961 50.6276C86.637 50.6276 86.0165 51.2919 86.0165 52.1094C86.0165 52.927 86.637 53.5985 87.3961 53.5985ZM94.3613 50.1385C95.1496 50.1385 95.7044 50.7444 95.7044 51.5984V54H95.1569V51.6714C95.1569 51.0583 94.7992 50.6276 94.2883 50.6276C93.6897 50.6276 93.2663 51.0291 93.2663 51.5984V54H92.7189V51.6714C92.7189 51.0583 92.3612 50.6276 91.8502 50.6276C91.2516 50.6276 90.8283 51.0291 90.8283 51.5984V54H90.2808V50.2261H90.8283V50.7809C91.0181 50.3867 91.4268 50.1385 91.9232 50.1385C92.5218 50.1385 92.9889 50.4889 93.1787 51.0364C93.2955 50.5035 93.7627 50.1385 94.3613 50.1385ZM98.4802 53.5985C98.9255 53.5985 99.4364 53.4014 99.67 53.146L100.006 53.5036C99.6773 53.8613 99.0131 54.0876 98.4875 54.0876C97.4802 54.0876 96.575 53.2627 96.575 52.1021C96.575 50.978 97.4218 50.1385 98.4364 50.1385C99.5751 50.1385 100.225 50.9999 100.225 52.3211H97.1371C97.2174 53.0584 97.7356 53.5985 98.4802 53.5985ZM98.4583 50.6276C97.7867 50.6276 97.2466 51.1021 97.1444 51.832H99.6846C99.6116 51.1532 99.2102 50.6276 98.4583 50.6276Z" fill="#4F6169"/>
<rect opacity="0.6" x="68" y="86" width="20.0685" height="9" rx="1.6" fill="#0079AD"/>
<rect opacity="0.5" x="91.5786" y="86.5" width="19.0685" height="8" rx="1.1" stroke="#0079AD"/>
<rect opacity="0.4" x="68" y="144.167" width="189.295" height="2.08333" rx="1.04167" fill="#4F6169"/>
<rect opacity="0.4" x="68" y="165" width="115.558" height="2.08333" rx="1.04167" fill="#4F6169"/>
<rect opacity="0.4" x="68" y="154.583" width="183.793" height="2.08333" rx="1.04167" fill="#4F6169"/>
<g clip-path="url(#clip0_11165_4808)">
<path opacity="0.6" d="M214.048 34C194.135 34 178 50.1918 178 70.1751V133.433H250.096V70.1751C250.096 50.1918 233.961 34 214.048 34Z" fill="url(#paint0_linear_11165_4808)"/>
<path d="M233.499 61.7214L183.687 61.2378L192.111 51.662C195.774 48.6249 201.326 50.037 203.118 51.5459L205.22 53.3257C207.109 54.9313 209.885 54.9313 211.754 53.3063C213.759 51.5653 216.786 51.7007 218.636 53.6159L219.639 54.6411C220.911 55.9566 222.8 56.4596 224.554 55.9953L225.634 55.7051C227.812 55.1054 230.126 56.0533 231.282 58.0072L233.499 61.7214Z" fill="url(#paint1_linear_11165_4808)"/>
<path d="M228.872 66.1901L235.272 60.6767C236.699 59.458 238.819 59.516 240.168 60.8122L242.096 62.6693C243.561 64.0815 245.894 64.0041 247.301 62.5145C248.515 61.2184 250.482 60.9669 251.966 61.9342L257.981 65.8612L228.872 66.1901Z" fill="url(#paint2_linear_11165_4808)"/>
<path d="M226.771 82.7492L222.53 94.1627L220.795 105.576L219.253 105.77L219.446 92.6151L220.988 82.9427L226.771 82.7492Z" fill="#3E616D"/>
<path d="M215.07 57.504C212.834 56.4981 210.193 57.2139 209.036 59.9222L209.113 60.3091L212.41 66.6929C214.087 66.4995 215.745 65.4355 216.67 63.7718C218.039 61.315 217.325 58.51 215.07 57.504Z" fill="#113D56"/>
<path d="M213.084 70.9488L211.908 66.7316H210.829C210.231 66.7316 209.711 66.3447 209.557 65.7643L208.959 64.681L207.879 64.5069L209.036 59.9028L210.81 59.748C211.561 59.748 212.178 60.3284 212.255 61.0828C212.294 61.5471 212.429 62.1274 212.699 62.8045C213.47 64.739 214.222 65.7256 214.222 65.7256L216.728 68.608L213.084 70.9488Z" fill="white"/>
<path d="M211.908 66.7316H210.829C210.231 66.7316 209.711 66.3447 209.557 65.7643L208.959 64.681L207.879 64.5069L209.036 59.9028" stroke="#113D56" stroke-width="0.267895" stroke-miterlimit="10"/>
<path d="M210.366 62.7852C210.526 62.7852 210.655 62.6552 210.655 62.495C210.655 62.3347 210.526 62.2048 210.366 62.2048C210.207 62.2048 210.077 62.3347 210.077 62.495C210.077 62.6552 210.207 62.7852 210.366 62.7852Z" fill="#113D56"/>
<path d="M197.489 105.151C198.756 105.151 199.783 104.12 199.783 102.849C199.783 101.577 198.756 100.547 197.489 100.547C196.222 100.547 195.195 101.577 195.195 102.849C195.195 104.12 196.222 105.151 197.489 105.151Z" stroke="#6991A3" stroke-width="0.333512" stroke-miterlimit="10"/>
<path d="M197.489 103.99C198.117 103.99 198.626 103.479 198.626 102.849C198.626 102.218 198.117 101.707 197.489 101.707C196.861 101.707 196.352 102.218 196.352 102.849C196.352 103.479 196.861 103.99 197.489 103.99Z" fill="#FF7212"/>
<path d="M235.426 114.959C241.771 114.959 246.915 109.797 246.915 103.429C246.915 97.0614 241.771 91.8994 235.426 91.8994C229.081 91.8994 223.937 97.0614 223.937 103.429C223.937 109.797 229.081 114.959 235.426 114.959Z" stroke="#6991A3" stroke-width="1.67434" stroke-miterlimit="10"/>
<path d="M197.451 114.959C203.796 114.959 208.94 109.797 208.94 103.429C208.94 97.0614 203.796 91.8994 197.451 91.8994C191.105 91.8994 185.961 97.0614 185.961 103.429C185.961 109.797 191.105 114.959 197.451 114.959Z" stroke="#6991A3" stroke-width="1.67434" stroke-miterlimit="10"/>
<path d="M235.426 106.737C237.246 106.737 238.722 105.256 238.722 103.429C238.722 101.602 237.246 100.121 235.426 100.121C233.605 100.121 232.129 101.602 232.129 103.429C232.129 105.256 233.605 106.737 235.426 106.737Z" fill="#6991A3"/>
<path d="M224.555 86.1346L217.808 105.093" stroke="#FF7212" stroke-width="0.837172" stroke-miterlimit="10"/>
<path d="M217.229 105.867L235.735 103.352C235.735 103.352 229.027 94.0855 222.627 90.584C216.227 87.0826 204.121 85.7478 204.121 85.7478" stroke="#FF7212" stroke-width="0.837172" stroke-miterlimit="10"/>
<path d="M217.306 109.252C219.126 109.252 220.602 107.771 220.602 105.944C220.602 104.117 219.126 102.636 217.306 102.636C215.485 102.636 214.009 104.117 214.009 105.944C214.009 107.771 215.485 109.252 217.306 109.252Z" fill="#FF7212"/>
<path d="M217.113 103.39L217.518 106.157" stroke="#6991A3" stroke-width="1.17204" stroke-miterlimit="10" stroke-linecap="round"/>
<path d="M214.075 62.8618C214.19 62.3076 213.879 61.773 213.379 61.6677C212.879 61.5624 212.379 61.9263 212.263 62.4805C212.148 63.0347 212.459 63.5693 212.959 63.6746C213.459 63.7799 213.959 63.416 214.075 62.8618Z" fill="white"/>
<path d="M209.402 65.7063C209.788 65.7256 210.193 65.5902 210.482 65.3387" stroke="#113D56" stroke-width="0.267895" stroke-miterlimit="10"/>
<path d="M215.628 59.5545C216.843 59.4771 217.903 59.9221 218.096 60.8893" stroke="#113D56" stroke-width="1.00782" stroke-miterlimit="10" stroke-linecap="round"/>
<path d="M216.747 58.5681C218.289 58.5681 219.407 59.4192 219.792 60.4058" stroke="#113D56" stroke-width="1.00782" stroke-miterlimit="10" stroke-linecap="round"/>
<path d="M215.262 59.5352C214.781 57.7555 216.034 55.879 218.019 55.3374C218.212 55.2793 218.424 55.2407 218.617 55.2213" stroke="#113D56" stroke-width="1.00782" stroke-miterlimit="10" stroke-linecap="round"/>
<path d="M215.436 58.8C216.13 57.0977 218.25 56.3626 220.158 57.1364" stroke="#113D56" stroke-width="1.00782" stroke-miterlimit="10" stroke-linecap="round"/>
<path d="M215.281 59.3805C216.014 58.0844 217.768 57.6975 219.233 58.51C219.503 58.6647 219.754 58.8582 219.966 59.071" stroke="#113D56" stroke-width="1.00782" stroke-miterlimit="10" stroke-linecap="round"/>
<path d="M204.698 83.7939L197.566 102.771" stroke="#FF7212" stroke-width="1.00461" stroke-miterlimit="10"/>
<path d="M203.927 77.0424L203.291 77.8743C202.906 78.3579 203.041 79.0736 203.58 79.3832L204.776 80.0796C205.412 80.4471 205.682 81.2209 205.412 81.9174L204.698 83.7938" stroke="#6991A3" stroke-width="0.669737" stroke-miterlimit="10"/>
<path d="M203.927 85.9412L217.421 102.384" stroke="#FF7212" stroke-width="1.50691" stroke-miterlimit="10"/>
<path d="M223.301 72.1095C219.06 65.9191 215.089 66.9637 215.089 66.9637L213.084 70.7553L214.068 73.8892C214.53 75.5335 215.86 76.791 217.518 77.1392L218.309 77.3133C219.157 80.5826 218.829 84.4709 218.829 84.4709L226.097 81.5305C226.077 81.5305 227.542 78.2999 223.301 72.1095Z" fill="#05A9E2"/>
<path d="M226.077 81.5305C226.077 81.5305 227.542 78.2999 223.301 72.1095C219.06 65.9191 215.089 66.9637 215.089 66.9637" stroke="#113D56" stroke-width="0.267895" stroke-miterlimit="10"/>
<path d="M218.443 84.4709C218.443 84.4709 218.771 80.5633 217.922 77.3133L217.132 77.1392C215.474 76.791 214.144 75.5336 213.681 73.8892L211.522 66.7316" stroke="#113D56" stroke-width="0.267895" stroke-miterlimit="10"/>
<path d="M214.819 69.0143L212.738 75.5335L206.916 75.2047L206.53 76.7523C206.53 76.7523 212.121 79.2671 214.241 78.1064C215.533 77.3907 217.518 73.2702 217.904 72.1095C218.289 70.9488 218.27 68.8595 218.27 68.8595C218.077 67.989 217.268 67.486 216.477 67.5441C216.111 67.5827 215.764 67.7568 215.494 68.0083L214.819 69.0143Z" fill="#F8F8F8"/>
<path d="M206.53 76.7523C206.53 76.7523 212.121 79.2672 214.241 78.1065C215.533 77.3907 217.518 73.2702 217.904 72.1095C218.289 70.9488 218.27 68.8596 218.27 68.8596" stroke="#113D56" stroke-width="0.267895" stroke-miterlimit="10"/>
<path d="M214.048 71.3938L212.737 75.5336L206.916 75.2047" stroke="#113D56" stroke-width="0.267895" stroke-miterlimit="10"/>
<path d="M221.528 85.7476L229.046 84.8384L227.966 86.6955C227.581 87.3532 226.81 87.7014 226.058 87.566L221.701 86.7148L221.528 85.7476Z" fill="#6991A3"/>
<path d="M225.576 76.4234L226.809 79.3445C227.754 81.5885 227.021 84.2968 225.152 85.4962L217.325 89.4426L218.308 95.4396L219.195 101.901L217.325 102.288L212.159 88.1465C211.908 87.1599 212.217 86.1153 212.93 85.5156L225.576 76.4234Z" fill="#113D56"/>
<path d="M218.212 99.5019L219.195 101.881L214.857 103.274L214.935 102.868C215.069 102.23 215.416 101.649 215.937 101.243L218.212 99.5019Z" fill="#113D56"/>
<path d="M204.988 74.4309C204.371 74.2375 203.716 74.6244 203.638 75.4562C203.619 75.7851 203.638 76.2687 203.677 76.6943C203.735 77.2359 204.178 77.5841 204.641 77.5068L204.969 76.3654L206.376 76.7523L207.089 76.4234V75.2047L204.988 74.4309Z" fill="white"/>
<path d="M207.108 75.2047L204.988 74.4309C204.371 74.2375 203.716 74.6244 203.638 75.4562C203.619 75.7851 203.638 76.2687 203.677 76.6943" stroke="#113D56" stroke-width="0.267895" stroke-miterlimit="10"/>
<path d="M205.085 76.9457C205.457 76.9457 205.76 76.6426 205.76 76.2687C205.76 75.8947 205.457 75.5916 205.085 75.5916C204.712 75.5916 204.41 75.8947 204.41 76.2687C204.41 76.6426 204.712 76.9457 205.085 76.9457Z" fill="#113D56"/>
<path d="M235.427 104.803C236.183 104.803 236.795 104.188 236.795 103.429C236.795 102.671 236.183 102.056 235.427 102.056C234.671 102.056 234.058 102.671 234.058 103.429C234.058 104.188 234.671 104.803 235.427 104.803Z" fill="#3E616D"/>
<path d="M215.976 103.642L218.675 102.675" stroke="#3E616D" stroke-width="1.00461" stroke-miterlimit="10"/>
<path d="M183.976 116.023H250.674" stroke="#113D56" stroke-width="0.267895" stroke-miterlimit="10"/>
</g>
<defs>
<linearGradient id="paint0_linear_11165_4808" x1="214.491" y1="94.5634" x2="214.045" y2="43.5814" gradientUnits="userSpaceOnUse">
<stop stop-color="#05A9E2" stop-opacity="0"/>
<stop offset="0.9795" stop-color="#05A9E2"/>
</linearGradient>
<linearGradient id="paint1_linear_11165_4808" x1="208.595" y1="61.6527" x2="208.595" y2="57.253" gradientUnits="userSpaceOnUse">
<stop stop-color="white" stop-opacity="0"/>
<stop offset="1" stop-color="white"/>
</linearGradient>
<linearGradient id="paint2_linear_11165_4808" x1="243.441" y1="65.5396" x2="243.441" y2="60.0304" gradientUnits="userSpaceOnUse">
<stop stop-color="white" stop-opacity="0"/>
<stop offset="1" stop-color="white"/>
</linearGradient>
<clipPath id="clip0_11165_4808">
<rect width="80" height="100" fill="white" transform="translate(178 34)"/>
</clipPath>
</defs>
</svg>
