<svg width="403" height="60" viewBox="0 0 403 60" fill="none" xmlns="http://www.w3.org/2000/svg">
<rect width="403" height="60" fill="#002538"/>
<path fill-rule="evenodd" clip-rule="evenodd" d="M45.89 16H31.83C30.7995 16.0273 29.9832 16.8793 30 17.91V42.09C29.9832 43.1207 30.7995 43.9727 31.83 44H52.17C53.2005 43.9727 54.0168 43.1207 54 42.09V23.92L45.89 16ZM45.59 18.49L51.59 24.39H45.59V18.49ZM32 18V42H52V26H44V18H32Z" fill="#EBF9FF"/>
<path d="M69.632 35V24.008H71.248L77.552 32.344V24.008H79.184V35H77.552L71.248 26.664V35H69.632ZM85.5729 35.192C83.1889 35.192 81.2209 33.24 81.2209 30.856C81.2209 28.472 83.1889 26.536 85.5729 26.536C87.9569 26.536 89.9249 28.472 89.9249 30.856C89.9249 33.24 87.9569 35.192 85.5729 35.192ZM85.5729 33.816C87.0929 33.816 88.3409 32.488 88.3409 30.856C88.3409 29.224 87.0929 27.912 85.5729 27.912C84.0529 27.912 82.8049 29.224 82.8049 30.856C82.8049 32.488 84.0529 33.816 85.5729 33.816ZM95.182 33.512L95.774 34.6C95.326 34.968 94.702 35.192 94.11 35.192C92.83 35.192 91.934 34.264 91.934 32.936V28.072H90.702V26.728H91.934V24.456H93.486V26.728H95.438V28.072H93.486V32.824C93.486 33.4 93.886 33.816 94.35 33.816C94.702 33.816 95.022 33.688 95.182 33.512ZM100.827 33.88C101.723 33.88 102.763 33.48 103.275 32.936L104.203 33.912C103.483 34.696 102.027 35.192 100.859 35.192C98.5712 35.192 96.5872 33.384 96.5872 30.84C96.5872 28.36 98.4592 26.536 100.747 26.536C103.275 26.536 104.747 28.424 104.747 31.368H98.1392C98.3312 32.824 99.3552 33.88 100.827 33.88ZM100.779 27.848C99.4512 27.848 98.3952 28.776 98.1552 30.2H103.211C103.051 28.872 102.219 27.848 100.779 27.848ZM119.137 35L118.161 32.712H112.465L111.489 35H109.697L114.417 24.008H116.209L120.929 35H119.137ZM113.073 31.304H117.553L115.313 26.088L113.073 31.304ZM126.936 26.536C129.128 26.536 130.744 28.328 130.744 30.856C130.744 33.4 129.128 35.192 126.936 35.192C125.672 35.192 124.648 34.584 124.008 33.576V37.752H122.424V26.728H124.008V28.136C124.648 27.144 125.672 26.536 126.936 26.536ZM126.568 33.816C128.072 33.816 129.144 32.584 129.144 30.856C129.144 29.128 128.072 27.912 126.568 27.912C125.064 27.912 124.008 29.128 124.008 30.856C124.008 32.584 125.064 33.816 126.568 33.816ZM137.049 26.536C139.241 26.536 140.857 28.328 140.857 30.856C140.857 33.4 139.241 35.192 137.049 35.192C135.785 35.192 134.761 34.584 134.121 33.576V37.752H132.537V26.728H134.121V28.136C134.761 27.144 135.785 26.536 137.049 26.536ZM136.681 33.816C138.185 33.816 139.257 32.584 139.257 30.856C139.257 29.128 138.185 27.912 136.681 27.912C135.177 27.912 134.121 29.128 134.121 30.856C134.121 32.584 135.177 33.816 136.681 33.816Z" fill="white"/>
</svg>
