<svg width="781" height="60" viewBox="0 0 781 60" fill="none" xmlns="http://www.w3.org/2000/svg">
<rect width="781" height="60" fill="#002538"/>
<path fill-rule="evenodd" clip-rule="evenodd" d="M45.89 16H31.83C30.7995 16.0273 29.9832 16.8793 30 17.91V42.09C29.9832 43.1207 30.7995 43.9727 31.83 44H52.17C53.2005 43.9727 54.0168 43.1207 54 42.09V23.92L45.89 16ZM45.59 18.49L51.59 24.39H45.59V18.49ZM32 18V42H52V26H44V18H32Z" fill="#EBF9FF"/>
<path d="M69.632 35V24.008H71.248L77.552 32.344V24.008H79.184V35H77.552L71.248 26.664V35H69.632ZM85.5729 35.192C83.1889 35.192 81.2209 33.24 81.2209 30.856C81.2209 28.472 83.1889 26.536 85.5729 26.536C87.9569 26.536 89.9249 28.472 89.9249 30.856C89.9249 33.24 87.9569 35.192 85.5729 35.192ZM85.5729 33.816C87.0929 33.816 88.3409 32.488 88.3409 30.856C88.3409 29.224 87.0929 27.912 85.5729 27.912C84.0529 27.912 82.8049 29.224 82.8049 30.856C82.8049 32.488 84.0529 33.816 85.5729 33.816ZM95.182 33.512L95.774 34.6C95.326 34.968 94.702 35.192 94.11 35.192C92.83 35.192 91.934 34.264 91.934 32.936V28.072H90.702V26.728H91.934V24.456H93.486V26.728H95.438V28.072H93.486V32.824C93.486 33.4 93.886 33.816 94.35 33.816C94.702 33.816 95.022 33.688 95.182 33.512ZM100.827 33.88C101.723 33.88 102.763 33.48 103.275 32.936L104.203 33.912C103.483 34.696 102.027 35.192 100.859 35.192C98.5712 35.192 96.5872 33.384 96.5872 30.84C96.5872 28.36 98.4592 26.536 100.747 26.536C103.275 26.536 104.747 28.424 104.747 31.368H98.1392C98.3312 32.824 99.3552 33.88 100.827 33.88ZM100.779 27.848C99.4512 27.848 98.3952 28.776 98.1552 30.2H103.211C103.051 28.872 102.219 27.848 100.779 27.848ZM119.137 35L118.161 32.712H112.465L111.489 35H109.697L114.417 24.008H116.209L120.929 35H119.137ZM113.073 31.304H117.553L115.313 26.088L113.073 31.304ZM126.936 26.536C129.128 26.536 130.744 28.328 130.744 30.856C130.744 33.4 129.128 35.192 126.936 35.192C125.672 35.192 124.648 34.584 124.008 33.576V37.752H122.424V26.728H124.008V28.136C124.648 27.144 125.672 26.536 126.936 26.536ZM126.568 33.816C128.072 33.816 129.144 32.584 129.144 30.856C129.144 29.128 128.072 27.912 126.568 27.912C125.064 27.912 124.008 29.128 124.008 30.856C124.008 32.584 125.064 33.816 126.568 33.816ZM137.049 26.536C139.241 26.536 140.857 28.328 140.857 30.856C140.857 33.4 139.241 35.192 137.049 35.192C135.785 35.192 134.761 34.584 134.121 33.576V37.752H132.537V26.728H134.121V28.136C134.761 27.144 135.785 26.536 137.049 26.536ZM136.681 33.816C138.185 33.816 139.257 32.584 139.257 30.856C139.257 29.128 138.185 27.912 136.681 27.912C135.177 27.912 134.121 29.128 134.121 30.856C134.121 32.584 135.177 33.816 136.681 33.816Z" fill="white"/>
<g clip-path="url(#clip0_9243_20995)">
<rect x="228" y="12" width="1" height="36" fill="#4F6169"/>
<path d="M246.526 34V24.382H247.618L253.582 32.208V24.382H254.674V34H253.582L247.618 26.174V34H246.526ZM260.423 34.168C258.365 34.168 256.685 32.46 256.685 30.374C256.685 28.288 258.365 26.594 260.423 26.594C262.467 26.594 264.147 28.288 264.147 30.374C264.147 32.46 262.467 34.168 260.423 34.168ZM260.423 33.23C261.865 33.23 263.055 31.942 263.055 30.374C263.055 28.806 261.865 27.532 260.423 27.532C258.967 27.532 257.777 28.806 257.777 30.374C257.777 31.942 258.967 33.23 260.423 33.23ZM268.656 32.936L269.174 33.706C268.796 34 268.32 34.168 267.83 34.168C266.794 34.168 266.066 33.398 266.066 32.32V27.7H264.932V26.762H266.066V24.774H267.116V26.762H268.894V27.7H267.116V32.32C267.116 32.852 267.48 33.23 267.9 33.23C268.222 33.23 268.502 33.104 268.656 32.936ZM273.634 33.23C274.488 33.23 275.468 32.852 275.916 32.362L276.56 33.048C275.93 33.734 274.656 34.168 273.648 34.168C271.716 34.168 269.98 32.586 269.98 30.36C269.98 28.204 271.604 26.594 273.55 26.594C275.734 26.594 276.98 28.246 276.98 30.78H271.058C271.212 32.194 272.206 33.23 273.634 33.23ZM273.592 27.532C272.304 27.532 271.268 28.442 271.072 29.842H275.944C275.804 28.54 275.034 27.532 273.592 27.532ZM280.884 34.168C279.876 34.168 278.756 33.79 277.888 33.09L278.434 32.32C279.26 32.922 280.086 33.23 280.884 33.23C281.836 33.23 282.48 32.782 282.48 32.096C282.48 31.312 281.64 31.06 280.66 30.78C278.91 30.276 278.238 29.758 278.238 28.722C278.238 27.406 279.33 26.594 280.772 26.594C281.668 26.594 282.592 26.902 283.362 27.406L282.858 28.218C282.13 27.756 281.416 27.532 280.772 27.532C279.96 27.532 279.288 27.896 279.288 28.596C279.288 29.226 279.82 29.422 281.164 29.856C282.326 30.22 283.53 30.612 283.53 31.984C283.53 33.314 282.382 34.168 280.884 34.168Z" fill="#E3EAED"/>
<path d="M321.662 34.154C320.024 34.154 318.61 33.594 317.546 32.6L318.568 31.354C319.45 32.152 320.472 32.656 321.732 32.656C322.908 32.656 323.524 32.068 323.524 31.382C323.524 30.584 322.838 30.318 321.298 29.954C319.31 29.492 317.938 28.918 317.938 27.112C317.938 25.432 319.366 24.214 321.382 24.214C322.908 24.214 324.07 24.732 325.022 25.558L324.07 26.832C323.244 26.118 322.278 25.712 321.326 25.712C320.346 25.712 319.702 26.286 319.702 26.958C319.702 27.742 320.402 28.022 321.928 28.372C323.93 28.82 325.274 29.464 325.274 31.214C325.274 32.936 323.972 34.154 321.662 34.154ZM330.84 26.594C332.436 26.594 333.542 27.742 333.542 29.394V34H331.876V29.73C331.876 28.736 331.26 28.05 330.364 28.05C329.384 28.05 328.6 28.736 328.6 29.618V34H326.892V24.214H328.6V27.742C329.034 27.056 329.874 26.594 330.84 26.594ZM338.317 26.594C340.235 26.594 341.411 27.812 341.411 29.646V34H339.745V33.146C339.213 33.804 338.317 34.168 337.477 34.168C335.937 34.168 334.789 33.258 334.789 31.858C334.789 30.43 336.091 29.45 337.729 29.45C338.387 29.45 339.087 29.59 339.745 29.828V29.646C339.745 28.806 339.297 27.994 337.981 27.994C337.295 27.994 336.637 28.232 336.021 28.54L335.433 27.35C336.455 26.846 337.407 26.594 338.317 26.594ZM337.855 32.922C338.681 32.922 339.563 32.502 339.745 31.732V30.906C339.213 30.738 338.611 30.64 337.981 30.64C337.127 30.64 336.427 31.116 336.427 31.802C336.427 32.488 337.043 32.922 337.855 32.922ZM344.997 28.134C345.459 27.196 346.411 26.594 347.587 26.594V28.05C346.033 28.05 344.997 28.974 344.997 30.346V34H343.289V26.762H344.997V28.134ZM352.261 32.796C352.989 32.796 353.815 32.488 354.277 32.04L355.257 33.048C354.627 33.72 353.367 34.168 352.317 34.168C350.231 34.168 348.509 32.586 348.509 30.36C348.509 28.176 350.147 26.594 352.219 26.594C354.459 26.594 355.775 28.246 355.775 30.878H350.161C350.343 32.012 351.141 32.796 352.261 32.796ZM352.233 27.966C351.197 27.966 350.399 28.666 350.175 29.744H354.123C353.969 28.722 353.325 27.966 352.233 27.966ZM362.547 24.214H364.255V34H362.547V32.852C361.987 33.678 361.105 34.168 360.041 34.168C358.109 34.168 356.709 32.6 356.709 30.374C356.709 28.162 358.109 26.594 360.041 26.594C361.105 26.594 361.987 27.084 362.547 27.896V24.214ZM360.489 32.712C361.693 32.712 362.533 31.732 362.533 30.374C362.533 29.016 361.693 28.05 360.489 28.05C359.271 28.05 358.403 29.016 358.403 30.374C358.403 31.732 359.271 32.712 360.489 32.712ZM370.28 34V24.382H372.016L377.098 31.144V24.382H378.834V34H377.098L372.016 27.238V34H370.28ZM384.457 34.168C382.315 34.168 380.565 32.46 380.565 30.374C380.565 28.288 382.315 26.594 384.457 26.594C386.585 26.594 388.321 28.288 388.321 30.374C388.321 32.46 386.585 34.168 384.457 34.168ZM384.457 32.712C385.661 32.712 386.655 31.662 386.655 30.374C386.655 29.086 385.661 28.05 384.457 28.05C383.239 28.05 382.245 29.086 382.245 30.374C382.245 31.662 383.239 32.712 384.457 32.712ZM393.191 32.446L393.681 33.594C393.275 33.944 392.687 34.168 392.127 34.168C390.937 34.168 390.097 33.3 390.097 32.082V28.176H389.047V26.762H390.097V24.774H391.749V26.762H393.387V28.176H391.749V31.872C391.749 32.362 392.071 32.712 392.477 32.712C392.771 32.712 393.037 32.6 393.191 32.446ZM398.2 32.796C398.928 32.796 399.754 32.488 400.216 32.04L401.196 33.048C400.566 33.72 399.306 34.168 398.256 34.168C396.17 34.168 394.448 32.586 394.448 30.36C394.448 28.176 396.086 26.594 398.158 26.594C400.398 26.594 401.714 28.246 401.714 30.878H396.1C396.282 32.012 397.08 32.796 398.2 32.796ZM398.172 27.966C397.136 27.966 396.338 28.666 396.114 29.744H400.062C399.908 28.722 399.264 27.966 398.172 27.966ZM405.644 34.168C404.538 34.168 403.348 33.776 402.466 33.09L403.194 31.97C403.978 32.53 404.888 32.852 405.672 32.852C406.442 32.852 406.904 32.53 406.904 32.026C406.904 31.452 406.232 31.256 405.378 31.032C403.796 30.612 402.802 30.178 402.802 28.862C402.802 27.518 403.922 26.594 405.532 26.594C406.526 26.594 407.506 26.944 408.304 27.462L407.632 28.61C406.96 28.176 406.204 27.896 405.532 27.896C404.902 27.896 404.398 28.19 404.398 28.694C404.398 29.17 404.846 29.296 405.938 29.632C407.17 29.968 408.486 30.374 408.486 31.872C408.486 33.272 407.324 34.168 405.644 34.168Z" fill="white"/>
</g>
<path fill-rule="evenodd" clip-rule="evenodd" d="M673 29.3333C675.577 29.3333 677.667 27.244 677.667 24.6667C677.667 22.0893 675.577 20 673 20C670.423 20 668.333 22.0893 668.333 24.6667C668.333 27.244 670.423 29.3333 673 29.3333ZM673.003 30.6691C676.147 30.6691 679.153 31.9629 681.313 34.2467C681.543 34.4953 681.669 34.8218 681.667 35.16V38.6667C681.667 39.403 681.07 40 680.333 40H665.667C664.93 40 664.333 39.403 664.333 38.6667V35.16C664.333 34.8209 664.461 34.4942 664.693 34.2467C666.854 31.9629 669.859 30.6691 673.003 30.6691ZM665.667 35.1533V38.6667H680.333V35.1533C678.424 33.1428 675.773 32.0043 673 32.0043C670.227 32.0043 667.576 33.1428 665.667 35.1533ZM676.333 24.6667C676.333 22.8257 674.841 21.3333 673 21.3333C671.159 21.3333 669.667 22.8257 669.667 24.6667C669.667 26.5076 671.159 28 673 28C674.841 28 676.333 26.5076 676.333 24.6667Z" fill="#CBD4D8"/>
<path fill-rule="evenodd" clip-rule="evenodd" d="M737 27.2L738.867 27.8C739.333 27.9333 739.667 28.4 739.667 28.8666V31.1333C739.667 31.6 739.333 32 738.933 32.1333L737 32.7333L736.6 33.7333L737.533 35.4666C737.733 35.8666 737.667 36.4 737.333 36.7333L735.733 38.3333C735.4 38.6666 734.867 38.7333 734.467 38.5333L732.733 37.6L731.733 38L731.133 39.9333C731 40.3333 730.6 40.6666 730.133 40.6666H727.867C727.4 40.6666 727 40.3333 726.867 39.9333L726.267 38L725.267 37.6L723.533 38.5333C723.133 38.7333 722.6 38.6666 722.267 38.3333L720.667 36.7333C720.333 36.4 720.267 35.8666 720.467 35.4666L721.4 33.7333L721 32.7333L719.133 32.1333C718.667 32 718.333 31.6 718.333 31.1333V28.8666C718.333 28.4 718.667 28 719.067 27.8666L720.933 27.2666C721 27.1 721.067 26.9166 721.133 26.7333C721.2 26.55 721.267 26.3666 721.333 26.2L720.467 24.5333C720.267 24.1333 720.333 23.6 720.667 23.2666L722.267 21.6666C722.6 21.3333 723.133 21.2666 723.533 21.4666L725.267 22.4C725.6 22.2 725.933 22.0666 726.333 22L726.933 20.1333C727 19.6666 727.4 19.3333 727.867 19.3333H730.133C730.6 19.3333 731 19.6666 731.133 20.0666L731.733 21.9333L732.733 22.3333L734.467 21.4C734.867 21.2 735.4 21.2666 735.733 21.6L737.333 23.2C737.667 23.5333 737.733 24.0666 737.533 24.4666L736.6 26.2L737 27.2ZM735.933 31.6666L738.333 30.9333V29.0666L735.933 28.3333L735.867 28C735.733 27.5333 735.533 27.0666 735.267 26.6L735.067 26.2666L736.267 24.0666L734.933 22.7333L732.733 23.9333L732.4 23.7333C731.933 23.4666 731.467 23.2666 731 23.1333L730.667 23L729.933 20.6666H728.067L727.333 23L727 23.1333C726.467 23.2666 726 23.4666 725.533 23.7333L725.2 23.9333L723.067 22.7333L721.733 24.0666L722.867 26.2666L722.667 26.6C722.4 27.0666 722.2 27.5333 722.067 28.0666L721.933 28.4L719.667 29.0666V30.9333L722.067 31.6666L722.133 32C722.267 32.4666 722.467 32.9333 722.733 33.4L722.933 33.7333L721.733 35.9333L723.067 37.2666L725.267 36.0666L725.6 36.2666L727 36.8666L727.333 36.9333L728.067 39.3333H729.933L730.667 36.9333L731 36.8666C731.467 36.7333 731.933 36.5333 732.4 36.2666L732.733 36.0666L734.933 37.2666L736.267 35.9333L735.067 33.7333L735.267 33.4L735.867 32L735.933 31.6666ZM729.067 25.3333C726.467 25.3333 724.4 27.4 724.4 30C724.4 32.6 726.467 34.6666 729.067 34.6666C731.667 34.6666 733.733 32.6 733.733 30C733.733 27.4 731.667 25.3333 729.067 25.3333ZM725.733 30C725.733 31.8666 727.2 33.3333 729.067 33.3333C730.933 33.3333 732.4 31.8666 732.4 30C732.4 28.1333 730.933 26.6666 729.067 26.6666C727.2 26.6666 725.733 28.1333 725.733 30Z" fill="#E3EAED"/>
<path d="M762.12 27.9915L757 33.2893L751.88 27.9915C751.59 27.6908 751.599 27.2123 751.9 26.9226C752.201 26.633 752.679 26.642 752.969 26.9426L757 31.116L761.036 26.9426C761.325 26.642 761.804 26.633 762.104 26.9226C762.405 27.2123 762.414 27.6908 762.124 27.9915H762.12Z" fill="#E3EAED"/>
<defs>
<clipPath id="clip0_9243_20995">
<rect width="197" height="60" fill="white" transform="translate(228)"/>
</clipPath>
</defs>
</svg>
