<svg width="480" height="216" viewBox="0 0 480 216" fill="none" xmlns="http://www.w3.org/2000/svg">
<rect x="126" y="1" width="353" height="214" fill="white"/>
<path d="M248 21H156C154.895 21 154 21.8954 154 23V27C154 28.1046 154.895 29 156 29H248C249.105 29 250 28.1046 250 27V23C250 21.8954 249.105 21 248 21Z" fill="#A6A3A8"/>
<path d="M191 183H155C153.895 183 153 183.895 153 185V193C153 194.105 153.895 195 155 195H191C192.105 195 193 194.105 193 193V185C193 183.895 192.105 183 191 183Z" fill="#0079AD"/>
<path d="M148 169L148 134L147 134L147 169L148 169Z" fill="#D23292"/>
<path d="M230 39H156V44.4237H230V39Z" fill="#A6A3A8"/>
<path d="M187 80.2203H156V83.4746H187V80.2203Z" fill="#A6A3A8"/>
<path d="M170 87.8136H156V89.9831H170V87.8136Z" fill="#DBDADC"/>
<path d="M199 87.8136H185V89.9831H199V87.8136Z" fill="#DBDADC"/>
<path d="M170 95.4068H156V97.5763H170V95.4068Z" fill="#DBDADC"/>
<path d="M199 95.4068H185V97.5763H199V95.4068Z" fill="#DBDADC"/>
<path d="M170 103H156V105.169H170V103Z" fill="#DBDADC"/>
<path d="M199 103H185V105.169H199V103Z" fill="#DBDADC"/>
<path d="M170 110.593H156V112.763H170V110.593Z" fill="#DBDADC"/>
<path d="M199 110.593H185V112.763H199V110.593Z" fill="#DBDADC"/>
<path d="M170 118.186H156V120.356H170V118.186Z" fill="#DBDADC"/>
<path d="M199 118.186H185V120.356H199V118.186Z" fill="#DBDADC"/>
<path d="M187 126.864H156V130.119H187V126.864Z" fill="#A6A3A8"/>
<path d="M170 134.458H156V136.627H170V134.458Z" fill="#DBDADC"/>
<path d="M199 134.458H185V136.627H199V134.458Z" fill="#DBDADC"/>
<path d="M170 142.051H156V144.22H170V142.051Z" fill="#DBDADC"/>
<path d="M199 142.051H185V144.22H199V142.051Z" fill="#DBDADC"/>
<path d="M170 149.644H156V151.814H170V149.644Z" fill="#DBDADC"/>
<path d="M199 149.644H185V151.814H199V149.644Z" fill="#DBDADC"/>
<path d="M170 157.237H156V159.407H170V157.237Z" fill="#DBDADC"/>
<path d="M199 157.237H185V159.407H199V157.237Z" fill="#DBDADC"/>
<path d="M170 164.831H156V167H170V164.831Z" fill="#DBDADC"/>
<path d="M199 164.831H185V167H199V164.831Z" fill="#DBDADC"/>
<path d="M187 48.7627H156V52.017H187V48.7627Z" fill="#A6A3A8"/>
<path d="M170 56.3559H156V58.5254H170V56.3559Z" fill="#DBDADC"/>
<path d="M199 56.3559H185V58.5254H199V56.3559Z" fill="#DBDADC"/>
<path d="M170 63.9492H156V66.1186H170V63.9492Z" fill="#DBDADC"/>
<path d="M199 63.9492H185V66.1186H199V63.9492Z" fill="#DBDADC"/>
<path d="M170 71.5424H156V73.7118H170V71.5424Z" fill="#DBDADC"/>
<path d="M199 71.5424H185V73.7118H199V71.5424Z" fill="#DBDADC"/>
<rect x="126" y="1" width="353" height="214" stroke="#67777E"/>
<path d="M147 42H67V43H147V42Z" fill="#D23292"/>
<path d="M147 82H67V83H147V82Z" fill="#D23292"/>
<path d="M147 150H67V151H147V150Z" fill="#D23292"/>
<path d="M144 190H64V191H144V190Z" fill="#D23292"/>
<path d="M20.8787 194V186.443H24.3437C25.5647 186.443 26.4227 187.224 26.4227 188.324C26.4227 189.127 26.0267 189.589 25.3447 189.985C26.2137 190.425 26.7197 191.107 26.7197 191.932C26.7197 193.142 25.7847 194 24.4757 194H20.8787ZM21.7367 189.644H24.1237C24.9597 189.644 25.5537 189.138 25.5537 188.434C25.5537 187.73 24.9597 187.224 24.1237 187.224H21.7367V189.644ZM21.7367 193.219H24.2557C25.1907 193.219 25.8507 192.636 25.8507 191.822C25.8507 191.008 25.1907 190.425 24.2557 190.425H21.7367V193.219ZM32.4431 188.313H33.2681V194H32.4431V193.098C32.1131 193.703 31.3871 194.132 30.5731 194.132C29.3081 194.132 28.4391 193.241 28.4391 191.932V188.313H29.2641V191.822C29.2641 192.757 29.8471 193.395 30.6831 193.395C31.6511 193.395 32.4431 192.735 32.4431 191.932V188.313ZM37.5775 193.164L37.9845 193.769C37.6875 194 37.3135 194.132 36.9285 194.132C36.1145 194.132 35.5425 193.527 35.5425 192.68V189.05H34.6515V188.313H35.5425V186.751H36.3675V188.313H37.7645V189.05H36.3675V192.68C36.3675 193.098 36.6535 193.395 36.9835 193.395C37.2365 193.395 37.4565 193.296 37.5775 193.164ZM41.5695 193.164L41.9765 193.769C41.6795 194 41.3055 194.132 40.9205 194.132C40.1065 194.132 39.5345 193.527 39.5345 192.68V189.05H38.6435V188.313H39.5345V186.751H40.3595V188.313H41.7565V189.05H40.3595V192.68C40.3595 193.098 40.6455 193.395 40.9755 193.395C41.2285 193.395 41.4485 193.296 41.5695 193.164ZM45.8035 194.132C44.1865 194.132 42.8665 192.79 42.8665 191.151C42.8665 189.512 44.1865 188.181 45.8035 188.181C47.4095 188.181 48.7295 189.512 48.7295 191.151C48.7295 192.79 47.4095 194.132 45.8035 194.132ZM45.8035 193.395C46.9365 193.395 47.8715 192.383 47.8715 191.151C47.8715 189.919 46.9365 188.918 45.8035 188.918C44.6595 188.918 43.7245 189.919 43.7245 191.151C43.7245 192.383 44.6595 193.395 45.8035 193.395ZM53.0456 188.181C54.3106 188.181 55.1796 189.072 55.1796 190.381V194H54.3546V190.491C54.3546 189.556 53.7716 188.918 52.9356 188.918C51.9676 188.918 51.1756 189.578 51.1756 190.381V194H50.3506V188.313H51.1756V189.215C51.5056 188.61 52.2316 188.181 53.0456 188.181Z" fill="black"/>
<path d="M147 23H67V24H147V23Z" fill="#D23292"/>
<path d="M38.8441 27V20.257H36.3031V19.443H42.2431V20.257H39.7021V27H38.8441ZM44.0914 20.279C43.7834 20.279 43.5414 20.026 43.5414 19.729C43.5414 19.443 43.7834 19.19 44.0914 19.19C44.3884 19.19 44.6304 19.443 44.6304 19.729C44.6304 20.026 44.3884 20.279 44.0914 20.279ZM43.6734 27V21.313H44.4984V27H43.6734ZM48.8127 26.164L49.2197 26.769C48.9227 27 48.5487 27.132 48.1637 27.132C47.3497 27.132 46.7777 26.527 46.7777 25.68V22.05H45.8867V21.313H46.7777V19.751H47.6027V21.313H48.9997V22.05H47.6027V25.68C47.6027 26.098 47.8887 26.395 48.2187 26.395C48.4717 26.395 48.6917 26.296 48.8127 26.164ZM50.6047 27V19.311H51.4297V27H50.6047ZM55.9419 26.395C56.6129 26.395 57.3829 26.098 57.7349 25.713L58.2409 26.252C57.7459 26.791 56.7449 27.132 55.9529 27.132C54.4349 27.132 53.0709 25.889 53.0709 24.14C53.0709 22.446 54.3469 21.181 55.8759 21.181C57.5919 21.181 58.5709 22.479 58.5709 24.47H53.9179C54.0389 25.581 54.8199 26.395 55.9419 26.395ZM55.9089 21.918C54.8969 21.918 54.0829 22.633 53.9289 23.733H57.7569C57.6469 22.71 57.0419 21.918 55.9089 21.918Z" fill="black"/>
<path d="M22.5077 46.121C21.2647 46.121 20.2857 45.67 19.5267 44.922L20.0657 44.251C20.7037 44.889 21.4847 45.34 22.5407 45.34C23.7067 45.34 24.3007 44.702 24.3007 44.02C24.3007 43.217 23.5857 42.898 22.2657 42.59C20.7477 42.238 19.7907 41.765 19.7907 40.456C19.7907 39.246 20.8687 38.311 22.3207 38.311C23.4427 38.311 24.2787 38.751 24.9717 39.389L24.4437 40.06C23.8167 39.455 23.0687 39.092 22.2767 39.092C21.3417 39.092 20.6597 39.697 20.6597 40.39C20.6597 41.171 21.4077 41.446 22.6947 41.754C24.1357 42.095 25.1697 42.612 25.1697 43.943C25.1697 45.142 24.2677 46.121 22.5077 46.121ZM29.3111 45.395C29.9821 45.395 30.7521 45.098 31.1041 44.713L31.6101 45.252C31.1151 45.791 30.1141 46.132 29.3221 46.132C27.8041 46.132 26.4401 44.889 26.4401 43.14C26.4401 41.446 27.7161 40.181 29.2451 40.181C30.9611 40.181 31.9401 41.479 31.9401 43.47H27.2871C27.4081 44.581 28.1891 45.395 29.3111 45.395ZM29.2781 40.918C28.2661 40.918 27.4521 41.633 27.2981 42.733H31.1261C31.0161 41.71 30.4111 40.918 29.2781 40.918ZM35.9681 46.132C34.3731 46.132 33.0201 44.768 33.0201 43.151C33.0201 41.534 34.3731 40.181 35.9681 40.181C36.7381 40.181 37.4531 40.5 37.9921 41.017L37.4201 41.578C37.0461 41.171 36.5291 40.918 35.9681 40.918C34.8351 40.918 33.8891 41.941 33.8891 43.151C33.8891 44.372 34.8351 45.395 35.9681 45.395C36.5401 45.395 37.0681 45.131 37.4531 44.702L38.0251 45.263C37.4861 45.802 36.7601 46.132 35.9681 46.132ZM41.6302 45.164L42.0372 45.769C41.7402 46 41.3662 46.132 40.9812 46.132C40.1672 46.132 39.5952 45.527 39.5952 44.68V41.05H38.7042V40.313H39.5952V38.751H40.4202V40.313H41.8172V41.05H40.4202V44.68C40.4202 45.098 40.7062 45.395 41.0362 45.395C41.2892 45.395 41.5092 45.296 41.6302 45.164ZM43.8402 39.279C43.5322 39.279 43.2902 39.026 43.2902 38.729C43.2902 38.443 43.5322 38.19 43.8402 38.19C44.1372 38.19 44.3792 38.443 44.3792 38.729C44.3792 39.026 44.1372 39.279 43.8402 39.279ZM43.4222 46V40.313H44.2472V46H43.4222ZM48.8035 46.132C47.1865 46.132 45.8665 44.79 45.8665 43.151C45.8665 41.512 47.1865 40.181 48.8035 40.181C50.4095 40.181 51.7295 41.512 51.7295 43.151C51.7295 44.79 50.4095 46.132 48.8035 46.132ZM48.8035 45.395C49.9365 45.395 50.8715 44.383 50.8715 43.151C50.8715 41.919 49.9365 40.918 48.8035 40.918C47.6595 40.918 46.7245 41.919 46.7245 43.151C46.7245 44.383 47.6595 45.395 48.8035 45.395ZM56.0456 40.181C57.3106 40.181 58.1796 41.072 58.1796 42.381V46H57.3546V42.491C57.3546 41.556 56.7716 40.918 55.9356 40.918C54.9676 40.918 54.1756 41.578 54.1756 42.381V46H53.3506V40.313H54.1756V41.215C54.5056 40.61 55.2316 40.181 56.0456 40.181Z" fill="black"/>
<path d="M3.06591 86.121C1.82291 86.121 0.843907 85.67 0.0849071 84.922L0.623907 84.251C1.26191 84.889 2.04291 85.34 3.09891 85.34C4.26491 85.34 4.85891 84.702 4.85891 84.02C4.85891 83.217 4.14391 82.898 2.82391 82.59C1.30591 82.238 0.348907 81.765 0.348907 80.456C0.348907 79.246 1.42691 78.311 2.87891 78.311C4.00091 78.311 4.83691 78.751 5.52991 79.389L5.00191 80.06C4.37491 79.455 3.62691 79.092 2.83491 79.092C1.89991 79.092 1.21791 79.697 1.21791 80.39C1.21791 81.171 1.96591 81.446 3.25291 81.754C4.69391 82.095 5.72791 82.612 5.72791 83.943C5.72791 85.142 4.82591 86.121 3.06591 86.121ZM11.3433 80.313H12.1683V86H11.3433V85.098C11.0133 85.703 10.2873 86.132 9.47326 86.132C8.20826 86.132 7.33926 85.241 7.33926 83.932V80.313H8.16426V83.822C8.16426 84.757 8.74726 85.395 9.58326 85.395C10.5513 85.395 11.3433 84.735 11.3433 83.932V80.313ZM17.1707 80.181C18.6667 80.181 19.7887 81.413 19.7887 83.151C19.7887 84.9 18.6667 86.132 17.1707 86.132C16.2577 86.132 15.5317 85.681 15.1027 84.933V86H14.2777V78.311H15.1027V81.38C15.5317 80.632 16.2577 80.181 17.1707 80.181ZM17.0167 85.395C18.1277 85.395 18.9197 84.46 18.9197 83.151C18.9197 81.842 18.1277 80.918 17.0167 80.918C15.8947 80.918 15.1027 81.842 15.1027 83.151C15.1027 84.46 15.8947 85.395 17.0167 85.395ZM23.2201 86.132C22.4281 86.132 21.5481 85.835 20.8661 85.285L21.2951 84.68C21.9441 85.153 22.5931 85.395 23.2201 85.395C23.9681 85.395 24.4741 85.043 24.4741 84.504C24.4741 83.888 23.8141 83.69 23.0441 83.47C21.6691 83.074 21.1411 82.667 21.1411 81.853C21.1411 80.819 21.9991 80.181 23.1321 80.181C23.8361 80.181 24.5621 80.423 25.1671 80.819L24.7711 81.457C24.1991 81.094 23.6381 80.918 23.1321 80.918C22.4941 80.918 21.9661 81.204 21.9661 81.754C21.9661 82.249 22.3841 82.403 23.4401 82.744C24.3531 83.03 25.2991 83.338 25.2991 84.416C25.2991 85.461 24.3971 86.132 23.2201 86.132ZM29.3111 85.395C29.9821 85.395 30.7521 85.098 31.1041 84.713L31.6101 85.252C31.1151 85.791 30.1141 86.132 29.3221 86.132C27.8041 86.132 26.4401 84.889 26.4401 83.14C26.4401 81.446 27.7161 80.181 29.2451 80.181C30.9611 80.181 31.9401 81.479 31.9401 83.47H27.2871C27.4081 84.581 28.1891 85.395 29.3111 85.395ZM29.2781 80.918C28.2661 80.918 27.4521 81.633 27.2981 82.733H31.1261C31.0161 81.71 30.4111 80.918 29.2781 80.918ZM35.9681 86.132C34.3731 86.132 33.0201 84.768 33.0201 83.151C33.0201 81.534 34.3731 80.181 35.9681 80.181C36.7381 80.181 37.4531 80.5 37.9921 81.017L37.4201 81.578C37.0461 81.171 36.5291 80.918 35.9681 80.918C34.8351 80.918 33.8891 81.941 33.8891 83.151C33.8891 84.372 34.8351 85.395 35.9681 85.395C36.5401 85.395 37.0681 85.131 37.4531 84.702L38.0251 85.263C37.4861 85.802 36.7601 86.132 35.9681 86.132ZM41.6302 85.164L42.0372 85.769C41.7402 86 41.3662 86.132 40.9812 86.132C40.1672 86.132 39.5952 85.527 39.5952 84.68V81.05H38.7042V80.313H39.5952V78.751H40.4202V80.313H41.8172V81.05H40.4202V84.68C40.4202 85.098 40.7062 85.395 41.0362 85.395C41.2892 85.395 41.5092 85.296 41.6302 85.164ZM43.8402 79.279C43.5322 79.279 43.2902 79.026 43.2902 78.729C43.2902 78.443 43.5322 78.19 43.8402 78.19C44.1372 78.19 44.3792 78.443 44.3792 78.729C44.3792 79.026 44.1372 79.279 43.8402 79.279ZM43.4222 86V80.313H44.2472V86H43.4222ZM48.8035 86.132C47.1865 86.132 45.8665 84.79 45.8665 83.151C45.8665 81.512 47.1865 80.181 48.8035 80.181C50.4095 80.181 51.7295 81.512 51.7295 83.151C51.7295 84.79 50.4095 86.132 48.8035 86.132ZM48.8035 85.395C49.9365 85.395 50.8715 84.383 50.8715 83.151C50.8715 81.919 49.9365 80.918 48.8035 80.918C47.6595 80.918 46.7245 81.919 46.7245 83.151C46.7245 84.383 47.6595 85.395 48.8035 85.395ZM56.0456 80.181C57.3106 80.181 58.1796 81.072 58.1796 82.381V86H57.3546V82.491C57.3546 81.556 56.7716 80.918 55.9356 80.918C54.9676 80.918 54.1756 81.578 54.1756 82.381V86H53.3506V80.313H54.1756V81.215C54.5056 80.61 55.2316 80.181 56.0456 80.181Z" fill="black"/>
<path d="M3.98572 154V146.443H4.84372V150.623L8.67172 146.443H9.80472L6.62572 149.897L10.0137 154H8.90272L6.03172 150.48L4.84372 151.734V154H3.98572ZM13.8183 153.395C14.4893 153.395 15.2593 153.098 15.6113 152.713L16.1173 153.252C15.6223 153.791 14.6213 154.132 13.8293 154.132C12.3113 154.132 10.9473 152.889 10.9473 151.14C10.9473 149.446 12.2233 148.181 13.7523 148.181C15.4683 148.181 16.4473 149.479 16.4473 151.47H11.7943C11.9153 152.581 12.6963 153.395 13.8183 153.395ZM13.7853 148.918C12.7733 148.918 11.9593 149.633 11.8053 150.733H15.6333C15.5233 149.71 14.9183 148.918 13.7853 148.918ZM18.5284 155.98C18.1984 155.98 17.8904 155.914 17.6264 155.793L17.8244 155.089C18.0224 155.188 18.2534 155.232 18.4954 155.232C18.8584 155.232 19.1004 155.111 19.3204 154.726L19.6504 154.022L17.1754 148.313H18.0884L20.0794 153.043L21.9604 148.313H22.8514L20.2554 154.638C19.8594 155.606 19.3094 155.969 18.5284 155.98ZM23.1738 154.814L27.0348 145.827H27.9698L24.1088 154.814H23.1738ZM35.1058 146.443H36.0408L32.7078 154H31.7728L28.4398 146.443H29.3748L32.2458 152.944L35.1058 146.443ZM39.5102 148.181C41.0612 148.181 41.8202 149.16 41.8202 150.535V154H40.9952V153.109C40.5882 153.78 39.7412 154.132 38.9932 154.132C37.7942 154.132 36.9142 153.439 36.9142 152.317C36.9142 151.184 37.9262 150.425 39.1472 150.425C39.7632 150.425 40.4122 150.557 40.9952 150.744V150.535C40.9952 149.765 40.6872 148.885 39.4552 148.885C38.8832 148.885 38.3112 149.138 37.7942 149.402L37.4642 148.731C38.2782 148.324 38.9602 148.181 39.5102 148.181ZM39.1362 153.406C39.8842 153.406 40.7752 153.021 40.9952 152.218V151.349C40.4782 151.206 39.8952 151.118 39.2792 151.118C38.4322 151.118 37.7172 151.602 37.7172 152.284C37.7172 152.988 38.3332 153.406 39.1362 153.406ZM43.7982 154V146.311H44.6232V154H43.7982ZM50.6095 148.313H51.4345V154H50.6095V153.098C50.2795 153.703 49.5535 154.132 48.7395 154.132C47.4745 154.132 46.6055 153.241 46.6055 151.932V148.313H47.4305V151.822C47.4305 152.757 48.0135 153.395 48.8495 153.395C49.8175 153.395 50.6095 152.735 50.6095 151.932V148.313ZM55.9419 153.395C56.6129 153.395 57.3829 153.098 57.7349 152.713L58.2409 153.252C57.7459 153.791 56.7449 154.132 55.9529 154.132C54.4349 154.132 53.0709 152.889 53.0709 151.14C53.0709 149.446 54.3469 148.181 55.8759 148.181C57.5919 148.181 58.5709 149.479 58.5709 151.47H53.9179C54.0389 152.581 54.8199 153.395 55.9419 153.395ZM55.9089 148.918C54.8969 148.918 54.0829 149.633 53.9289 150.733H57.7569C57.6469 149.71 57.0419 148.918 55.9089 148.918Z" fill="black"/>
</svg>
