<svg width="480" height="216" viewBox="0 0 480 216" fill="none" xmlns="http://www.w3.org/2000/svg">
<rect x="126" y="1" width="353" height="214" fill="white"/>
<path d="M267 21H175C173.895 21 173 21.8954 173 23V27C173 28.1046 173.895 29 175 29H267C268.105 29 269 28.1046 269 27V23C269 21.8954 268.105 21 267 21Z" fill="#A6A3A8"/>
<path d="M451 45H154V47H451V45Z" fill="#DBDADC"/>
<path d="M214 45H186V47H214V45Z" fill="#0079AD"/>
<path d="M211 183H175C173.895 183 173 183.895 173 185V193C173 194.105 173.895 195 175 195H211C212.105 195 213 194.105 213 193V185C213 183.895 212.105 183 211 183Z" fill="#0079AD"/>
<path d="M148 168L148 133L147 133L147 168L148 168Z" fill="#D23292"/>
<path d="M204 129H173V132.254H204V129Z" fill="#A6A3A8"/>
<path d="M187 136.593H173V138.762H187V136.593Z" fill="#DBDADC"/>
<path d="M216 136.593H202V138.762H216V136.593Z" fill="#DBDADC"/>
<path d="M187 144.187H173V146.356H187V144.187Z" fill="#DBDADC"/>
<path d="M216 144.187H202V146.356H216V144.187Z" fill="#DBDADC"/>
<path d="M187 151.779H173V153.949H187V151.779Z" fill="#DBDADC"/>
<path d="M216 151.779H202V153.949H216V151.779Z" fill="#DBDADC"/>
<path d="M187 159.372H173V161.542H187V159.372Z" fill="#DBDADC"/>
<path d="M216 159.372H202V161.542H216V159.372Z" fill="#DBDADC"/>
<path d="M187 166.966H173V169.135H187V166.966Z" fill="#DBDADC"/>
<path d="M216 166.966H202V169.135H216V166.966Z" fill="#DBDADC"/>
<path d="M204 91H173V94.2542H204V91Z" fill="#A6A3A8"/>
<path d="M204 72H173V75.2542H204V72Z" fill="#A6A3A8"/>
<path d="M240 61H173V64H240V61Z" fill="#A6A3A8"/>
<path d="M187 98.5928H173V100.762H187V98.5928Z" fill="#DBDADC"/>
<path d="M216 98.5928H202V100.762H216V98.5928Z" fill="#DBDADC"/>
<path d="M187 106.187H173V108.356H187V106.187Z" fill="#DBDADC"/>
<path d="M216 106.187H202V108.356H216V106.187Z" fill="#DBDADC"/>
<path d="M187 113.779H173V115.949H187V113.779Z" fill="#DBDADC"/>
<path d="M216 113.779H202V115.949H216V113.779Z" fill="#DBDADC"/>
<rect x="126" y="1" width="353" height="214" stroke="#67777E"/>
<path d="M147 46H67V47H147V46Z" fill="#D23292"/>
<path d="M147 62H67V63H147V62Z" fill="#D23292"/>
<path d="M147 75H67V76H147V75Z" fill="#D23292"/>
<path d="M147 94H67V95H147V94Z" fill="#D23292"/>
<path d="M147 149H67V150H147V149Z" fill="#D23292"/>
<path d="M147 24H67V25H147V24Z" fill="#D23292"/>
<path d="M38.8441 28V21.257H36.3031V20.443H42.2431V21.257H39.7021V28H38.8441ZM44.0914 21.279C43.7834 21.279 43.5414 21.026 43.5414 20.729C43.5414 20.443 43.7834 20.19 44.0914 20.19C44.3884 20.19 44.6304 20.443 44.6304 20.729C44.6304 21.026 44.3884 21.279 44.0914 21.279ZM43.6734 28V22.313H44.4984V28H43.6734ZM48.8127 27.164L49.2197 27.769C48.9227 28 48.5487 28.132 48.1637 28.132C47.3497 28.132 46.7777 27.527 46.7777 26.68V23.05H45.8867V22.313H46.7777V20.751H47.6027V22.313H48.9997V23.05H47.6027V26.68C47.6027 27.098 47.8887 27.395 48.2187 27.395C48.4717 27.395 48.6917 27.296 48.8127 27.164ZM50.6047 28V20.311H51.4297V28H50.6047ZM55.9419 27.395C56.6129 27.395 57.3829 27.098 57.7349 26.713L58.2409 27.252C57.7459 27.791 56.7449 28.132 55.9529 28.132C54.4349 28.132 53.0709 26.889 53.0709 25.14C53.0709 23.446 54.3469 22.181 55.8759 22.181C57.5919 22.181 58.5709 23.479 58.5709 25.47H53.9179C54.0389 26.581 54.8199 27.395 55.9419 27.395ZM55.9089 22.918C54.8969 22.918 54.0829 23.633 53.9289 24.733H57.7569C57.6469 23.71 57.0419 22.918 55.9089 22.918Z" fill="black"/>
<path d="M36.3693 50V43.257H33.8283V42.443H39.7683V43.257H37.2273V50H36.3693ZM43.2336 44.181C44.7846 44.181 45.5436 45.16 45.5436 46.535V50H44.7186V49.109C44.3116 49.78 43.4646 50.132 42.7166 50.132C41.5176 50.132 40.6376 49.439 40.6376 48.317C40.6376 47.184 41.6496 46.425 42.8706 46.425C43.4866 46.425 44.1356 46.557 44.7186 46.744V46.535C44.7186 45.765 44.4106 44.885 43.1786 44.885C42.6066 44.885 42.0346 45.138 41.5176 45.402L41.1876 44.731C42.0016 44.324 42.6836 44.181 43.2336 44.181ZM42.8596 49.406C43.6076 49.406 44.4986 49.021 44.7186 48.218V47.349C44.2016 47.206 43.6186 47.118 43.0026 47.118C42.1556 47.118 41.4406 47.602 41.4406 48.284C41.4406 48.988 42.0566 49.406 42.8596 49.406ZM50.4146 44.181C51.9106 44.181 53.0326 45.413 53.0326 47.151C53.0326 48.9 51.9106 50.132 50.4146 50.132C49.5016 50.132 48.7756 49.681 48.3466 48.933V50H47.5216V42.311H48.3466V45.38C48.7756 44.632 49.5016 44.181 50.4146 44.181ZM50.2606 49.395C51.3716 49.395 52.1636 48.46 52.1636 47.151C52.1636 45.842 51.3716 44.918 50.2606 44.918C49.1386 44.918 48.3466 45.842 48.3466 47.151C48.3466 48.46 49.1386 49.395 50.2606 49.395ZM56.4641 50.132C55.6721 50.132 54.7921 49.835 54.1101 49.285L54.5391 48.68C55.1881 49.153 55.8371 49.395 56.4641 49.395C57.2121 49.395 57.7181 49.043 57.7181 48.504C57.7181 47.888 57.0581 47.69 56.2881 47.47C54.9131 47.074 54.3851 46.667 54.3851 45.853C54.3851 44.819 55.2431 44.181 56.3761 44.181C57.0801 44.181 57.8061 44.423 58.4111 44.819L58.0151 45.457C57.4431 45.094 56.8821 44.918 56.3761 44.918C55.7381 44.918 55.2101 45.204 55.2101 45.754C55.2101 46.249 55.6281 46.403 56.6841 46.744C57.5971 47.03 58.5431 47.338 58.5431 48.416C58.5431 49.461 57.6411 50.132 56.4641 50.132Z" fill="black"/>
<path d="M22.5077 67.121C21.2647 67.121 20.2857 66.67 19.5267 65.922L20.0657 65.251C20.7037 65.889 21.4847 66.34 22.5407 66.34C23.7067 66.34 24.3007 65.702 24.3007 65.02C24.3007 64.217 23.5857 63.898 22.2657 63.59C20.7477 63.238 19.7907 62.765 19.7907 61.456C19.7907 60.246 20.8687 59.311 22.3207 59.311C23.4427 59.311 24.2787 59.751 24.9717 60.389L24.4437 61.06C23.8167 60.455 23.0687 60.092 22.2767 60.092C21.3417 60.092 20.6597 60.697 20.6597 61.39C20.6597 62.171 21.4077 62.446 22.6947 62.754C24.1357 63.095 25.1697 63.612 25.1697 64.943C25.1697 66.142 24.2677 67.121 22.5077 67.121ZM29.3111 66.395C29.9821 66.395 30.7521 66.098 31.1041 65.713L31.6101 66.252C31.1151 66.791 30.1141 67.132 29.3221 67.132C27.8041 67.132 26.4401 65.889 26.4401 64.14C26.4401 62.446 27.7161 61.181 29.2451 61.181C30.9611 61.181 31.9401 62.479 31.9401 64.47H27.2871C27.4081 65.581 28.1891 66.395 29.3111 66.395ZM29.2781 61.918C28.2661 61.918 27.4521 62.633 27.2981 63.733H31.1261C31.0161 62.71 30.4111 61.918 29.2781 61.918ZM35.9681 67.132C34.3731 67.132 33.0201 65.768 33.0201 64.151C33.0201 62.534 34.3731 61.181 35.9681 61.181C36.7381 61.181 37.4531 61.5 37.9921 62.017L37.4201 62.578C37.0461 62.171 36.5291 61.918 35.9681 61.918C34.8351 61.918 33.8891 62.941 33.8891 64.151C33.8891 65.372 34.8351 66.395 35.9681 66.395C36.5401 66.395 37.0681 66.131 37.4531 65.702L38.0251 66.263C37.4861 66.802 36.7601 67.132 35.9681 67.132ZM41.6302 66.164L42.0372 66.769C41.7402 67 41.3662 67.132 40.9812 67.132C40.1672 67.132 39.5952 66.527 39.5952 65.68V62.05H38.7042V61.313H39.5952V59.751H40.4202V61.313H41.8172V62.05H40.4202V65.68C40.4202 66.098 40.7062 66.395 41.0362 66.395C41.2892 66.395 41.5092 66.296 41.6302 66.164ZM43.8402 60.279C43.5322 60.279 43.2902 60.026 43.2902 59.729C43.2902 59.443 43.5322 59.19 43.8402 59.19C44.1372 59.19 44.3792 59.443 44.3792 59.729C44.3792 60.026 44.1372 60.279 43.8402 60.279ZM43.4222 67V61.313H44.2472V67H43.4222ZM48.8035 67.132C47.1865 67.132 45.8665 65.79 45.8665 64.151C45.8665 62.512 47.1865 61.181 48.8035 61.181C50.4095 61.181 51.7295 62.512 51.7295 64.151C51.7295 65.79 50.4095 67.132 48.8035 67.132ZM48.8035 66.395C49.9365 66.395 50.8715 65.383 50.8715 64.151C50.8715 62.919 49.9365 61.918 48.8035 61.918C47.6595 61.918 46.7245 62.919 46.7245 64.151C46.7245 65.383 47.6595 66.395 48.8035 66.395ZM56.0456 61.181C57.3106 61.181 58.1796 62.072 58.1796 63.381V67H57.3546V63.491C57.3546 62.556 56.7716 61.918 55.9356 61.918C54.9676 61.918 54.1756 62.578 54.1756 63.381V67H53.3506V61.313H54.1756V62.215C54.5056 61.61 55.2316 61.181 56.0456 61.181Z" fill="black"/>
<path d="M12.8935 80V72.443H13.7515L16.5565 77.712L19.3615 72.443H20.2195V80H19.3615V74.291L16.5565 79.56L13.7515 74.291V80H12.8935ZM24.9712 79.395C25.6422 79.395 26.4122 79.098 26.7642 78.713L27.2702 79.252C26.7752 79.791 25.7742 80.132 24.9822 80.132C23.4642 80.132 22.1002 78.889 22.1002 77.14C22.1002 75.446 23.3762 74.181 24.9052 74.181C26.6212 74.181 27.6002 75.479 27.6002 77.47H22.9472C23.0682 78.581 23.8492 79.395 24.9712 79.395ZM24.9382 74.918C23.9262 74.918 23.1122 75.633 22.9582 76.733H26.7862C26.6762 75.71 26.0712 74.918 24.9382 74.918ZM30.9463 80.132C30.1543 80.132 29.2743 79.835 28.5923 79.285L29.0213 78.68C29.6703 79.153 30.3193 79.395 30.9463 79.395C31.6943 79.395 32.2003 79.043 32.2003 78.504C32.2003 77.888 31.5403 77.69 30.7703 77.47C29.3953 77.074 28.8673 76.667 28.8673 75.853C28.8673 74.819 29.7253 74.181 30.8583 74.181C31.5623 74.181 32.2883 74.423 32.8933 74.819L32.4973 75.457C31.9253 75.094 31.3643 74.918 30.8583 74.918C30.2203 74.918 29.6923 75.204 29.6923 75.754C29.6923 76.249 30.1103 76.403 31.1663 76.744C32.0793 77.03 33.0253 77.338 33.0253 78.416C33.0253 79.461 32.1233 80.132 30.9463 80.132ZM36.3992 80.132C35.6072 80.132 34.7272 79.835 34.0452 79.285L34.4742 78.68C35.1232 79.153 35.7722 79.395 36.3992 79.395C37.1472 79.395 37.6532 79.043 37.6532 78.504C37.6532 77.888 36.9932 77.69 36.2232 77.47C34.8482 77.074 34.3202 76.667 34.3202 75.853C34.3202 74.819 35.1782 74.181 36.3112 74.181C37.0152 74.181 37.7412 74.423 38.3462 74.819L37.9502 75.457C37.3782 75.094 36.8172 74.918 36.3112 74.918C35.6732 74.918 35.1452 75.204 35.1452 75.754C35.1452 76.249 35.5632 76.403 36.6192 76.744C37.5322 77.03 38.4782 77.338 38.4782 78.416C38.4782 79.461 37.5762 80.132 36.3992 80.132ZM42.1272 74.181C43.6782 74.181 44.4372 75.16 44.4372 76.535V80H43.6122V79.109C43.2052 79.78 42.3582 80.132 41.6102 80.132C40.4112 80.132 39.5312 79.439 39.5312 78.317C39.5312 77.184 40.5432 76.425 41.7642 76.425C42.3802 76.425 43.0292 76.557 43.6122 76.744V76.535C43.6122 75.765 43.3042 74.885 42.0722 74.885C41.5002 74.885 40.9282 75.138 40.4112 75.402L40.0812 74.731C40.8952 74.324 41.5772 74.181 42.1272 74.181ZM41.7532 79.406C42.5012 79.406 43.3922 79.021 43.6122 78.218V77.349C43.0952 77.206 42.5122 77.118 41.8962 77.118C41.0492 77.118 40.3342 77.602 40.3342 78.284C40.3342 78.988 40.9502 79.406 41.7532 79.406ZM50.6062 74.313H51.4312V79.395C51.4312 80.858 50.2762 81.892 48.6372 81.892C47.7132 81.892 46.8552 81.573 46.3382 81.133L46.7012 80.484C47.1412 80.902 47.8232 81.155 48.5272 81.155C49.8362 81.155 50.6062 80.506 50.6062 79.395V78.471C50.1662 79.164 49.4402 79.582 48.5382 79.582C47.0092 79.582 45.9202 78.46 45.9202 76.876C45.9202 75.292 47.0092 74.181 48.5382 74.181C49.4402 74.181 50.1662 74.599 50.6062 75.292V74.313ZM48.6922 78.845C49.8142 78.845 50.6062 78.031 50.6062 76.876C50.6062 75.732 49.8142 74.918 48.6922 74.918C47.5812 74.918 46.7892 75.732 46.7892 76.876C46.7892 78.031 47.5812 78.845 48.6922 78.845ZM55.9419 79.395C56.6129 79.395 57.3829 79.098 57.7349 78.713L58.2409 79.252C57.7459 79.791 56.7449 80.132 55.9529 80.132C54.4349 80.132 53.0709 78.889 53.0709 77.14C53.0709 75.446 54.3469 74.181 55.8759 74.181C57.5919 74.181 58.5709 75.479 58.5709 77.47H53.9179C54.0389 78.581 54.8199 79.395 55.9419 79.395ZM55.9089 74.918C54.8969 74.918 54.0829 75.633 53.9289 76.733H57.7569C57.6469 75.71 57.0419 74.918 55.9089 74.918Z" fill="black"/>
<path d="M3.06591 98.121C1.82291 98.121 0.843907 97.67 0.0849071 96.922L0.623907 96.251C1.26191 96.889 2.04291 97.34 3.09891 97.34C4.26491 97.34 4.85891 96.702 4.85891 96.02C4.85891 95.217 4.14391 94.898 2.82391 94.59C1.30591 94.238 0.348907 93.765 0.348907 92.456C0.348907 91.246 1.42691 90.311 2.87891 90.311C4.00091 90.311 4.83691 90.751 5.52991 91.389L5.00191 92.06C4.37491 91.455 3.62691 91.092 2.83491 91.092C1.89991 91.092 1.21791 91.697 1.21791 92.39C1.21791 93.171 1.96591 93.446 3.25291 93.754C4.69391 94.095 5.72791 94.612 5.72791 95.943C5.72791 97.142 4.82591 98.121 3.06591 98.121ZM11.3433 92.313H12.1683V98H11.3433V97.098C11.0133 97.703 10.2873 98.132 9.47326 98.132C8.20826 98.132 7.33926 97.241 7.33926 95.932V92.313H8.16426V95.822C8.16426 96.757 8.74726 97.395 9.58326 97.395C10.5513 97.395 11.3433 96.735 11.3433 95.932V92.313ZM17.1707 92.181C18.6667 92.181 19.7887 93.413 19.7887 95.151C19.7887 96.9 18.6667 98.132 17.1707 98.132C16.2577 98.132 15.5317 97.681 15.1027 96.933V98H14.2777V90.311H15.1027V93.38C15.5317 92.632 16.2577 92.181 17.1707 92.181ZM17.0167 97.395C18.1277 97.395 18.9197 96.46 18.9197 95.151C18.9197 93.842 18.1277 92.918 17.0167 92.918C15.8947 92.918 15.1027 93.842 15.1027 95.151C15.1027 96.46 15.8947 97.395 17.0167 97.395ZM23.2201 98.132C22.4281 98.132 21.5481 97.835 20.8661 97.285L21.2951 96.68C21.9441 97.153 22.5931 97.395 23.2201 97.395C23.9681 97.395 24.4741 97.043 24.4741 96.504C24.4741 95.888 23.8141 95.69 23.0441 95.47C21.6691 95.074 21.1411 94.667 21.1411 93.853C21.1411 92.819 21.9991 92.181 23.1321 92.181C23.8361 92.181 24.5621 92.423 25.1671 92.819L24.7711 93.457C24.1991 93.094 23.6381 92.918 23.1321 92.918C22.4941 92.918 21.9661 93.204 21.9661 93.754C21.9661 94.249 22.3841 94.403 23.4401 94.744C24.3531 95.03 25.2991 95.338 25.2991 96.416C25.2991 97.461 24.3971 98.132 23.2201 98.132ZM29.3111 97.395C29.9821 97.395 30.7521 97.098 31.1041 96.713L31.6101 97.252C31.1151 97.791 30.1141 98.132 29.3221 98.132C27.8041 98.132 26.4401 96.889 26.4401 95.14C26.4401 93.446 27.7161 92.181 29.2451 92.181C30.9611 92.181 31.9401 93.479 31.9401 95.47H27.2871C27.4081 96.581 28.1891 97.395 29.3111 97.395ZM29.2781 92.918C28.2661 92.918 27.4521 93.633 27.2981 94.733H31.1261C31.0161 93.71 30.4111 92.918 29.2781 92.918ZM35.9681 98.132C34.3731 98.132 33.0201 96.768 33.0201 95.151C33.0201 93.534 34.3731 92.181 35.9681 92.181C36.7381 92.181 37.4531 92.5 37.9921 93.017L37.4201 93.578C37.0461 93.171 36.5291 92.918 35.9681 92.918C34.8351 92.918 33.8891 93.941 33.8891 95.151C33.8891 96.372 34.8351 97.395 35.9681 97.395C36.5401 97.395 37.0681 97.131 37.4531 96.702L38.0251 97.263C37.4861 97.802 36.7601 98.132 35.9681 98.132ZM41.6302 97.164L42.0372 97.769C41.7402 98 41.3662 98.132 40.9812 98.132C40.1672 98.132 39.5952 97.527 39.5952 96.68V93.05H38.7042V92.313H39.5952V90.751H40.4202V92.313H41.8172V93.05H40.4202V96.68C40.4202 97.098 40.7062 97.395 41.0362 97.395C41.2892 97.395 41.5092 97.296 41.6302 97.164ZM43.8402 91.279C43.5322 91.279 43.2902 91.026 43.2902 90.729C43.2902 90.443 43.5322 90.19 43.8402 90.19C44.1372 90.19 44.3792 90.443 44.3792 90.729C44.3792 91.026 44.1372 91.279 43.8402 91.279ZM43.4222 98V92.313H44.2472V98H43.4222ZM48.8035 98.132C47.1865 98.132 45.8665 96.79 45.8665 95.151C45.8665 93.512 47.1865 92.181 48.8035 92.181C50.4095 92.181 51.7295 93.512 51.7295 95.151C51.7295 96.79 50.4095 98.132 48.8035 98.132ZM48.8035 97.395C49.9365 97.395 50.8715 96.383 50.8715 95.151C50.8715 93.919 49.9365 92.918 48.8035 92.918C47.6595 92.918 46.7245 93.919 46.7245 95.151C46.7245 96.383 47.6595 97.395 48.8035 97.395ZM56.0456 92.181C57.3106 92.181 58.1796 93.072 58.1796 94.381V98H57.3546V94.491C57.3546 93.556 56.7716 92.918 55.9356 92.918C54.9676 92.918 54.1756 93.578 54.1756 94.381V98H53.3506V92.313H54.1756V93.215C54.5056 92.61 55.2316 92.181 56.0456 92.181Z" fill="black"/>
<path d="M3.98572 150V142.443H4.84372V146.623L8.67172 142.443H9.80472L6.62572 145.897L10.0137 150H8.90272L6.03172 146.48L4.84372 147.734V150H3.98572ZM13.8183 149.395C14.4893 149.395 15.2593 149.098 15.6113 148.713L16.1173 149.252C15.6223 149.791 14.6213 150.132 13.8293 150.132C12.3113 150.132 10.9473 148.889 10.9473 147.14C10.9473 145.446 12.2233 144.181 13.7523 144.181C15.4683 144.181 16.4473 145.479 16.4473 147.47H11.7943C11.9153 148.581 12.6963 149.395 13.8183 149.395ZM13.7853 144.918C12.7733 144.918 11.9593 145.633 11.8053 146.733H15.6333C15.5233 145.71 14.9183 144.918 13.7853 144.918ZM18.5284 151.98C18.1984 151.98 17.8904 151.914 17.6264 151.793L17.8244 151.089C18.0224 151.188 18.2534 151.232 18.4954 151.232C18.8584 151.232 19.1004 151.111 19.3204 150.726L19.6504 150.022L17.1754 144.313H18.0884L20.0794 149.043L21.9604 144.313H22.8514L20.2554 150.638C19.8594 151.606 19.3094 151.969 18.5284 151.98ZM23.1738 150.814L27.0348 141.827H27.9698L24.1088 150.814H23.1738ZM35.1058 142.443H36.0408L32.7078 150H31.7728L28.4398 142.443H29.3748L32.2458 148.944L35.1058 142.443ZM39.5102 144.181C41.0612 144.181 41.8202 145.16 41.8202 146.535V150H40.9952V149.109C40.5882 149.78 39.7412 150.132 38.9932 150.132C37.7942 150.132 36.9142 149.439 36.9142 148.317C36.9142 147.184 37.9262 146.425 39.1472 146.425C39.7632 146.425 40.4122 146.557 40.9952 146.744V146.535C40.9952 145.765 40.6872 144.885 39.4552 144.885C38.8832 144.885 38.3112 145.138 37.7942 145.402L37.4642 144.731C38.2782 144.324 38.9602 144.181 39.5102 144.181ZM39.1362 149.406C39.8842 149.406 40.7752 149.021 40.9952 148.218V147.349C40.4782 147.206 39.8952 147.118 39.2792 147.118C38.4322 147.118 37.7172 147.602 37.7172 148.284C37.7172 148.988 38.3332 149.406 39.1362 149.406ZM43.7982 150V142.311H44.6232V150H43.7982ZM50.6095 144.313H51.4345V150H50.6095V149.098C50.2795 149.703 49.5535 150.132 48.7395 150.132C47.4745 150.132 46.6055 149.241 46.6055 147.932V144.313H47.4305V147.822C47.4305 148.757 48.0135 149.395 48.8495 149.395C49.8175 149.395 50.6095 148.735 50.6095 147.932V144.313ZM55.9419 149.395C56.6129 149.395 57.3829 149.098 57.7349 148.713L58.2409 149.252C57.7459 149.791 56.7449 150.132 55.9529 150.132C54.4349 150.132 53.0709 148.889 53.0709 147.14C53.0709 145.446 54.3469 144.181 55.8759 144.181C57.5919 144.181 58.5709 145.479 58.5709 147.47H53.9179C54.0389 148.581 54.8199 149.395 55.9419 149.395ZM55.9089 144.918C54.8969 144.918 54.0829 145.633 53.9289 146.733H57.7569C57.6469 145.71 57.0419 144.918 55.9089 144.918Z" fill="black"/>
<path d="M147 190H67V191H147V190Z" fill="#D23292"/>
<path d="M23.8787 194V186.443H27.3437C28.5647 186.443 29.4227 187.224 29.4227 188.324C29.4227 189.127 29.0267 189.589 28.3447 189.985C29.2137 190.425 29.7197 191.107 29.7197 191.932C29.7197 193.142 28.7847 194 27.4757 194H23.8787ZM24.7367 189.644H27.1237C27.9597 189.644 28.5537 189.138 28.5537 188.434C28.5537 187.73 27.9597 187.224 27.1237 187.224H24.7367V189.644ZM24.7367 193.219H27.2557C28.1907 193.219 28.8507 192.636 28.8507 191.822C28.8507 191.008 28.1907 190.425 27.2557 190.425H24.7367V193.219ZM35.4431 188.313H36.2681V194H35.4431V193.098C35.1131 193.703 34.3871 194.132 33.5731 194.132C32.3081 194.132 31.4391 193.241 31.4391 191.932V188.313H32.2641V191.822C32.2641 192.757 32.8471 193.395 33.6831 193.395C34.6511 193.395 35.4431 192.735 35.4431 191.932V188.313ZM40.5775 193.164L40.9845 193.769C40.6875 194 40.3135 194.132 39.9285 194.132C39.1145 194.132 38.5425 193.527 38.5425 192.68V189.05H37.6515V188.313H38.5425V186.751H39.3675V188.313H40.7645V189.05H39.3675V192.68C39.3675 193.098 39.6535 193.395 39.9835 193.395C40.2365 193.395 40.4565 193.296 40.5775 193.164ZM44.5695 193.164L44.9765 193.769C44.6795 194 44.3055 194.132 43.9205 194.132C43.1065 194.132 42.5345 193.527 42.5345 192.68V189.05H41.6435V188.313H42.5345V186.751H43.3595V188.313H44.7565V189.05H43.3595V192.68C43.3595 193.098 43.6455 193.395 43.9755 193.395C44.2285 193.395 44.4485 193.296 44.5695 193.164ZM48.8035 194.132C47.1865 194.132 45.8665 192.79 45.8665 191.151C45.8665 189.512 47.1865 188.181 48.8035 188.181C50.4095 188.181 51.7295 189.512 51.7295 191.151C51.7295 192.79 50.4095 194.132 48.8035 194.132ZM48.8035 193.395C49.9365 193.395 50.8715 192.383 50.8715 191.151C50.8715 189.919 49.9365 188.918 48.8035 188.918C47.6595 188.918 46.7245 189.919 46.7245 191.151C46.7245 192.383 47.6595 193.395 48.8035 193.395ZM56.0456 188.181C57.3106 188.181 58.1796 189.072 58.1796 190.381V194H57.3546V190.491C57.3546 189.556 56.7716 188.918 55.9356 188.918C54.9676 188.918 54.1756 189.578 54.1756 190.381V194H53.3506V188.313H54.1756V189.215C54.5056 188.61 55.2316 188.181 56.0456 188.181Z" fill="black"/>
</svg>
