<svg width="317" height="108" viewBox="0 0 317 108" fill="none" xmlns="http://www.w3.org/2000/svg">
<path d="M10.956 4.551H5.86V6.813H10.462V8.295H5.86V12H4.235V3.069H10.956V4.551ZM15.0468 5.123C16.8278 5.123 17.9198 6.254 17.9198 7.957V12H16.3728V11.207C15.8788 11.818 15.0468 12.156 14.2668 12.156C12.8368 12.156 11.7708 11.311 11.7708 10.011C11.7708 8.685 12.9798 7.775 14.5008 7.775C15.1118 7.775 15.7618 7.905 16.3728 8.126V7.957C16.3728 7.177 15.9568 6.423 14.7348 6.423C14.0978 6.423 13.4868 6.644 12.9148 6.93L12.3688 5.825C13.3178 5.357 14.2018 5.123 15.0468 5.123ZM14.6178 10.999C15.3848 10.999 16.2038 10.609 16.3728 9.894V9.127C15.8788 8.971 15.3198 8.88 14.7348 8.88C13.9418 8.88 13.2918 9.322 13.2918 9.959C13.2918 10.596 13.8638 10.999 14.6178 10.999ZM21.7111 12L18.8121 5.279H20.5021L22.4521 10.167L24.3631 5.279H26.0401L23.1931 12H21.7111ZM30.1795 12.156C28.1905 12.156 26.5655 10.57 26.5655 8.633C26.5655 6.696 28.1905 5.123 30.1795 5.123C32.1555 5.123 33.7675 6.696 33.7675 8.633C33.7675 10.57 32.1555 12.156 30.1795 12.156ZM30.1795 10.804C31.2975 10.804 32.2205 9.829 32.2205 8.633C32.2205 7.437 31.2975 6.475 30.1795 6.475C29.0485 6.475 28.1255 7.437 28.1255 8.633C28.1255 9.829 29.0485 10.804 30.1795 10.804ZM39.5819 5.279H41.1679V12H39.5819V11.09C39.1789 11.727 38.3989 12.156 37.5019 12.156C36.0199 12.156 34.9929 11.09 34.9929 9.556V5.279H36.5399V9.244C36.5399 10.167 37.1119 10.804 37.9439 10.804C38.8539 10.804 39.5819 10.167 39.5819 9.348V5.279ZM44.6326 6.553C45.0616 5.682 45.9456 5.123 47.0376 5.123V6.475C45.5946 6.475 44.6326 7.333 44.6326 8.607V12H43.0466V5.279H44.6326V6.553ZM49.1732 4.265C48.6662 4.265 48.2632 3.836 48.2632 3.355C48.2632 2.874 48.6662 2.458 49.1732 2.458C49.6672 2.458 50.0702 2.874 50.0702 3.355C50.0702 3.836 49.6672 4.265 49.1732 4.265ZM48.3802 12V5.279H49.9662V12H48.3802ZM54.9936 10.557L55.4486 11.623C55.0716 11.948 54.5256 12.156 54.0056 12.156C52.9006 12.156 52.1206 11.35 52.1206 10.219V6.592H51.1456V5.279H52.1206V3.433H53.6546V5.279H55.1756V6.592H53.6546V10.024C53.6546 10.479 53.9536 10.804 54.3306 10.804C54.6036 10.804 54.8506 10.7 54.9936 10.557ZM59.638 10.882C60.314 10.882 61.081 10.596 61.51 10.18L62.42 11.116C61.835 11.74 60.665 12.156 59.69 12.156C57.753 12.156 56.154 10.687 56.154 8.62C56.154 6.592 57.675 5.123 59.599 5.123C61.679 5.123 62.901 6.657 62.901 9.101H57.688C57.857 10.154 58.598 10.882 59.638 10.882ZM59.612 6.397C58.65 6.397 57.909 7.047 57.701 8.048H61.367C61.224 7.099 60.626 6.397 59.612 6.397ZM71.0116 12.143C69.4906 12.143 68.1776 11.623 67.1896 10.7L68.1386 9.543C68.9576 10.284 69.9066 10.752 71.0766 10.752C72.1686 10.752 72.7406 10.206 72.7406 9.569C72.7406 8.828 72.1036 8.581 70.6736 8.243C68.8276 7.814 67.5536 7.281 67.5536 5.604C67.5536 4.044 68.8796 2.913 70.7516 2.913C72.1686 2.913 73.2476 3.394 74.1316 4.161L73.2476 5.344C72.4806 4.681 71.5836 4.304 70.6996 4.304C69.7896 4.304 69.1916 4.837 69.1916 5.461C69.1916 6.189 69.8416 6.449 71.2586 6.774C73.1176 7.19 74.3656 7.788 74.3656 9.413C74.3656 11.012 73.1566 12.143 71.0116 12.143ZM79.0067 10.557L79.4617 11.623C79.0847 11.948 78.5387 12.156 78.0187 12.156C76.9137 12.156 76.1337 11.35 76.1337 10.219V6.592H75.1587V5.279H76.1337V3.433H77.6677V5.279H79.1887V6.592H77.6677V10.024C77.6677 10.479 77.9667 10.804 78.3437 10.804C78.6167 10.804 78.8637 10.7 79.0067 10.557ZM83.3521 5.123C85.1331 5.123 86.2251 6.254 86.2251 7.957V12H84.6781V11.207C84.184 11.818 83.3521 12.156 82.572 12.156C81.142 12.156 80.076 11.311 80.076 10.011C80.076 8.685 81.285 7.775 82.8061 7.775C83.4171 7.775 84.0671 7.905 84.6781 8.126V7.957C84.6781 7.177 84.2621 6.423 83.04 6.423C82.4031 6.423 81.792 6.644 81.22 6.93L80.6741 5.825C81.6231 5.357 82.5071 5.123 83.3521 5.123ZM82.923 10.999C83.6901 10.999 84.5091 10.609 84.6781 9.894V9.127C84.184 8.971 83.6251 8.88 83.04 8.88C82.2471 8.88 81.597 9.322 81.597 9.959C81.597 10.596 82.169 10.999 82.923 10.999ZM91.1084 10.557L91.5634 11.623C91.1864 11.948 90.6404 12.156 90.1204 12.156C89.0154 12.156 88.2354 11.35 88.2354 10.219V6.592H87.2604V5.279H88.2354V3.433H89.7694V5.279H91.2904V6.592H89.7694V10.024C89.7694 10.479 90.0684 10.804 90.4454 10.804C90.7184 10.804 90.9654 10.7 91.1084 10.557ZM95.7528 10.882C96.4288 10.882 97.1958 10.596 97.6248 10.18L98.5348 11.116C97.9498 11.74 96.7798 12.156 95.8048 12.156C93.8678 12.156 92.2688 10.687 92.2688 8.62C92.2688 6.592 93.7898 5.123 95.7138 5.123C97.7938 5.123 99.0158 6.657 99.0158 9.101H93.8028C93.9718 10.154 94.7128 10.882 95.7528 10.882ZM95.7268 6.397C94.7648 6.397 94.0238 7.047 93.8158 8.048H97.4818C97.3388 7.099 96.7408 6.397 95.7268 6.397ZM102.658 12.156C101.631 12.156 100.526 11.792 99.7068 11.155L100.383 10.115C101.111 10.635 101.956 10.934 102.684 10.934C103.399 10.934 103.828 10.635 103.828 10.167C103.828 9.634 103.204 9.452 102.411 9.244C100.942 8.854 100.019 8.451 100.019 7.229C100.019 5.981 101.059 5.123 102.554 5.123C103.477 5.123 104.387 5.448 105.128 5.929L104.504 6.995C103.88 6.592 103.178 6.332 102.554 6.332C101.969 6.332 101.501 6.605 101.501 7.073C101.501 7.515 101.917 7.632 102.931 7.944C104.075 8.256 105.297 8.633 105.297 10.024C105.297 11.324 104.218 12.156 102.658 12.156Z" fill="#22343C"/>
<mask id="mask0_9324_47655" style="mask-type:alpha" maskUnits="userSpaceOnUse" x="3" y="24" width="314" height="24">
<path d="M7 24.5H313C314.933 24.5 316.5 26.067 316.5 28V44C316.5 45.933 314.933 47.5 313 47.5H6.99999C5.067 47.5 3.5 45.933 3.5 44V28C3.5 26.067 5.067 24.5 7 24.5Z" fill="#F1F6F8" stroke="#CBD4D8"/>
</mask>
<g mask="url(#mask0_9324_47655)">
<path d="M7 24.5H313C314.933 24.5 316.5 26.067 316.5 28V44C316.5 45.933 314.933 47.5 313 47.5H6.99999C5.067 47.5 3.5 45.933 3.5 44V28C3.5 26.067 5.067 24.5 7 24.5Z" fill="#EBF9FF"/>
<path d="M15 28.5H131C132.933 28.5 134.5 30.067 134.5 32V40C134.5 41.933 132.933 43.5 131 43.5H15C13.067 43.5 11.5 41.933 11.5 40V32C11.5 30.067 13.067 28.5 15 28.5Z" fill="white"/>
<path d="M23.941 39L23.182 37.284H18.969L18.21 39H17.275L20.608 31.443H21.543L24.876 39H23.941ZM19.321 36.47H22.83L21.081 32.499L19.321 36.47ZM32.4593 33.181C33.6473 33.181 34.4833 34.094 34.4833 35.381V39H33.6583V35.491C33.6583 34.567 33.1193 33.918 32.3493 33.918C31.4473 33.918 30.8093 34.523 30.8093 35.381V39H29.9843V35.491C29.9843 34.567 29.4453 33.918 28.6753 33.918C27.7733 33.918 27.1353 34.523 27.1353 35.381V39H26.3103V33.313H27.1353V34.149C27.4213 33.555 28.0373 33.181 28.7853 33.181C29.6873 33.181 30.3913 33.709 30.6773 34.534C30.8533 33.731 31.5573 33.181 32.4593 33.181ZM38.8663 38.395C39.5373 38.395 40.3073 38.098 40.6593 37.713L41.1653 38.252C40.6703 38.791 39.6693 39.132 38.8773 39.132C37.3593 39.132 35.9953 37.889 35.9953 36.14C35.9953 34.446 37.2713 33.181 38.8003 33.181C40.5163 33.181 41.4953 34.479 41.4953 36.47H36.8423C36.9633 37.581 37.7443 38.395 38.8663 38.395ZM38.8333 33.918C37.8213 33.918 37.0073 34.633 36.8533 35.733H40.6813C40.5713 34.71 39.9663 33.918 38.8333 33.918ZM43.9064 34.424C44.2474 33.665 45.0614 33.181 46.1064 33.181V33.918C44.8194 33.918 43.9064 34.71 43.9064 35.821V39H43.0814V33.313H43.9064V34.424ZM48.0607 32.279C47.7527 32.279 47.5107 32.026 47.5107 31.729C47.5107 31.443 47.7527 31.19 48.0607 31.19C48.3577 31.19 48.5997 31.443 48.5997 31.729C48.5997 32.026 48.3577 32.279 48.0607 32.279ZM47.6427 39V33.313H48.4677V39H47.6427ZM53.024 39.132C51.429 39.132 50.076 37.768 50.076 36.151C50.076 34.534 51.429 33.181 53.024 33.181C53.794 33.181 54.509 33.5 55.048 34.017L54.476 34.578C54.102 34.171 53.585 33.918 53.024 33.918C51.891 33.918 50.945 34.941 50.945 36.151C50.945 37.372 51.891 38.395 53.024 38.395C53.596 38.395 54.124 38.131 54.509 37.702L55.081 38.263C54.542 38.802 53.816 39.132 53.024 39.132ZM58.5211 33.181C60.0721 33.181 60.8311 34.16 60.8311 35.535V39H60.0061V38.109C59.5991 38.78 58.7521 39.132 58.0041 39.132C56.8051 39.132 55.9251 38.439 55.9251 37.317C55.9251 36.184 56.9371 35.425 58.1581 35.425C58.7741 35.425 59.4231 35.557 60.0061 35.744V35.535C60.0061 34.765 59.6981 33.885 58.4661 33.885C57.8941 33.885 57.3221 34.138 56.8051 34.402L56.4751 33.731C57.2891 33.324 57.9711 33.181 58.5211 33.181ZM58.1471 38.406C58.8951 38.406 59.7861 38.021 60.0061 37.218V36.349C59.4891 36.206 58.9061 36.118 58.2901 36.118C57.4431 36.118 56.7281 36.602 56.7281 37.284C56.7281 37.988 57.3441 38.406 58.1471 38.406ZM65.5042 33.181C66.7692 33.181 67.6382 34.072 67.6382 35.381V39H66.8132V35.491C66.8132 34.556 66.2302 33.918 65.3942 33.918C64.4262 33.918 63.6341 34.578 63.6341 35.381V39H62.8092V33.313H63.6341V34.215C63.9641 33.61 64.6902 33.181 65.5042 33.181ZM75.3749 39.121C74.1319 39.121 73.1529 38.67 72.3939 37.922L72.9329 37.251C73.5709 37.889 74.3519 38.34 75.4079 38.34C76.5739 38.34 77.1679 37.702 77.1679 37.02C77.1679 36.217 76.4529 35.898 75.1329 35.59C73.6149 35.238 72.6579 34.765 72.6579 33.456C72.6579 32.246 73.7359 31.311 75.1879 31.311C76.3099 31.311 77.1459 31.751 77.8389 32.389L77.3109 33.06C76.6839 32.455 75.9359 32.092 75.1439 32.092C74.2089 32.092 73.5269 32.697 73.5269 33.39C73.5269 34.171 74.2749 34.446 75.5619 34.754C77.0029 35.095 78.0369 35.612 78.0369 36.943C78.0369 38.142 77.1349 39.121 75.3749 39.121ZM81.8152 33.181C83.3662 33.181 84.1252 34.16 84.1252 35.535V39H83.3002V38.109C82.8932 38.78 82.0462 39.132 81.2982 39.132C80.0992 39.132 79.2192 38.439 79.2192 37.317C79.2192 36.184 80.2312 35.425 81.4522 35.425C82.0682 35.425 82.7172 35.557 83.3002 35.744V35.535C83.3002 34.765 82.9922 33.885 81.7602 33.885C81.1882 33.885 80.6162 34.138 80.0992 34.402L79.7692 33.731C80.5832 33.324 81.2652 33.181 81.8152 33.181ZM81.4412 38.406C82.1892 38.406 83.0802 38.021 83.3002 37.218V36.349C82.7832 36.206 82.2002 36.118 81.5842 36.118C80.7372 36.118 80.0222 36.602 80.0222 37.284C80.0222 37.988 80.6382 38.406 81.4412 38.406ZM92.2523 33.181C93.4403 33.181 94.2763 34.094 94.2763 35.381V39H93.4513V35.491C93.4513 34.567 92.9123 33.918 92.1423 33.918C91.2403 33.918 90.6023 34.523 90.6023 35.381V39H89.7773V35.491C89.7773 34.567 89.2383 33.918 88.4683 33.918C87.5663 33.918 86.9283 34.523 86.9283 35.381V39H86.1033V33.313H86.9283V34.149C87.2143 33.555 87.8303 33.181 88.5783 33.181C89.4803 33.181 90.1843 33.709 90.4703 34.534C90.6463 33.731 91.3503 33.181 92.2523 33.181ZM98.7033 39.132C97.0863 39.132 95.7663 37.79 95.7663 36.151C95.7663 34.512 97.0863 33.181 98.7033 33.181C100.309 33.181 101.629 34.512 101.629 36.151C101.629 37.79 100.309 39.132 98.7033 39.132ZM98.7033 38.395C99.8363 38.395 100.771 37.383 100.771 36.151C100.771 34.919 99.8363 33.918 98.7033 33.918C97.5593 33.918 96.6243 34.919 96.6243 36.151C96.6243 37.383 97.5593 38.395 98.7033 38.395ZM105.285 33.181C106.836 33.181 107.595 34.16 107.595 35.535V39H106.77V38.109C106.363 38.78 105.516 39.132 104.768 39.132C103.569 39.132 102.689 38.439 102.689 37.317C102.689 36.184 103.701 35.425 104.922 35.425C105.538 35.425 106.187 35.557 106.77 35.744V35.535C106.77 34.765 106.462 33.885 105.23 33.885C104.658 33.885 104.086 34.138 103.569 34.402L103.239 33.731C104.053 33.324 104.735 33.181 105.285 33.181ZM104.911 38.406C105.659 38.406 106.55 38.021 106.77 37.218V36.349C106.253 36.206 105.67 36.118 105.054 36.118C104.207 36.118 103.492 36.602 103.492 37.284C103.492 37.988 104.108 38.406 104.911 38.406Z" fill="#22343C"/>
<path d="M123.47 36L126.233 33.2366C126.347 33.1044 126.339 32.9072 126.216 32.7841C126.093 32.661 125.896 32.6534 125.763 32.7666L123 35.53L120.237 32.7633C120.106 32.6326 119.894 32.6326 119.763 32.7633C119.633 32.894 119.633 33.1059 119.763 33.2366L122.53 36L119.763 38.7633C119.668 38.8448 119.627 38.9727 119.656 39.0945C119.685 39.2162 119.78 39.3113 119.902 39.3406C120.024 39.3699 120.152 39.3284 120.233 39.2333L123 36.47L125.763 39.2333C125.896 39.3466 126.093 39.339 126.216 39.2158C126.339 39.0927 126.347 38.8956 126.233 38.7633L123.47 36Z" fill="#3A4D55"/>
<path d="M15 28.5H131C132.933 28.5 134.5 30.067 134.5 32V40C134.5 41.933 132.933 43.5 131 43.5H15C13.067 43.5 11.5 41.933 11.5 40V32C11.5 30.067 13.067 28.5 15 28.5Z" stroke="#CBD4D8"/>
<path d="M143 28.5H209C210.933 28.5 212.5 30.067 212.5 32V40C212.5 41.933 210.933 43.5 209 43.5H143C141.067 43.5 139.5 41.933 139.5 40V32C139.5 30.067 141.067 28.5 143 28.5Z" fill="white"/>
<path d="M151.941 39L151.182 37.284H146.969L146.21 39H145.275L148.608 31.443H149.543L152.876 39H151.941ZM147.321 36.47H150.83L149.081 32.499L147.321 36.47ZM155.135 34.424C155.476 33.665 156.29 33.181 157.335 33.181V33.918C156.048 33.918 155.135 34.71 155.135 35.821V39H154.31V33.313H155.135V34.424ZM159.29 32.279C158.982 32.279 158.74 32.026 158.74 31.729C158.74 31.443 158.982 31.19 159.29 31.19C159.587 31.19 159.829 31.443 159.829 31.729C159.829 32.026 159.587 32.279 159.29 32.279ZM158.872 39V33.313H159.697V39H158.872ZM161.217 39V38.351L164.572 34.094H161.283V33.313H165.683V33.962L162.317 38.219H165.705V39H161.217ZM169.674 39.132C168.057 39.132 166.737 37.79 166.737 36.151C166.737 34.512 168.057 33.181 169.674 33.181C171.28 33.181 172.6 34.512 172.6 36.151C172.6 37.79 171.28 39.132 169.674 39.132ZM169.674 38.395C170.807 38.395 171.742 37.383 171.742 36.151C171.742 34.919 170.807 33.918 169.674 33.918C168.53 33.918 167.595 34.919 167.595 36.151C167.595 37.383 168.53 38.395 169.674 38.395ZM176.916 33.181C178.181 33.181 179.05 34.072 179.05 35.381V39H178.225V35.491C178.225 34.556 177.642 33.918 176.806 33.918C175.838 33.918 175.046 34.578 175.046 35.381V39H174.221V33.313H175.046V34.215C175.376 33.61 176.102 33.181 176.916 33.181ZM183.062 33.181C184.613 33.181 185.372 34.16 185.372 35.535V39H184.547V38.109C184.14 38.78 183.293 39.132 182.545 39.132C181.346 39.132 180.466 38.439 180.466 37.317C180.466 36.184 181.478 35.425 182.699 35.425C183.315 35.425 183.964 35.557 184.547 35.744V35.535C184.547 34.765 184.239 33.885 183.007 33.885C182.435 33.885 181.863 34.138 181.346 34.402L181.016 33.731C181.83 33.324 182.512 33.181 183.062 33.181ZM182.688 38.406C183.436 38.406 184.327 38.021 184.547 37.218V36.349C184.03 36.206 183.447 36.118 182.831 36.118C181.984 36.118 181.269 36.602 181.269 37.284C181.269 37.988 181.885 38.406 182.688 38.406Z" fill="#22343C"/>
<path d="M201.47 36L204.233 33.2366C204.347 33.1044 204.339 32.9072 204.216 32.7841C204.093 32.661 203.896 32.6534 203.763 32.7666L201 35.53L198.237 32.7633C198.106 32.6326 197.894 32.6326 197.763 32.7633C197.633 32.894 197.633 33.1059 197.763 33.2366L200.53 36L197.763 38.7633C197.668 38.8448 197.627 38.9727 197.656 39.0945C197.685 39.2162 197.78 39.3113 197.902 39.3406C198.024 39.3699 198.152 39.3284 198.233 39.2333L201 36.47L203.763 39.2333C203.896 39.3466 204.093 39.339 204.216 39.2158C204.339 39.0927 204.347 38.8956 204.233 38.7633L201.47 36Z" fill="#3A4D55"/>
<path d="M143 28.5H209C210.933 28.5 212.5 30.067 212.5 32V40C212.5 41.933 210.933 43.5 209 43.5H143C141.067 43.5 139.5 41.933 139.5 40V32C139.5 30.067 141.067 28.5 143 28.5Z" stroke="#CBD4D8"/>
<path d="M306.12 33.9915L301 39.2893L295.88 33.9915C295.59 33.6908 295.599 33.2123 295.9 32.9226C296.201 32.633 296.679 32.642 296.969 32.9426L301 37.116L305.036 32.9426C305.325 32.642 305.804 32.633 306.104 32.9226C306.405 33.2123 306.414 33.6908 306.124 33.9915H306.12Z" fill="#3A4D55"/>
<line x1="3" y1="47" x2="317" y2="47" stroke="#0079AD" stroke-width="2"/>
<path d="M7 24.5H313C314.933 24.5 316.5 26.067 316.5 28V44C316.5 45.933 314.933 47.5 313 47.5H6.99999C5.067 47.5 3.5 45.933 3.5 44V28C3.5 26.067 5.067 24.5 7 24.5Z" stroke="#CBD4D8"/>
</g>
<path d="M223.536 33.123C225.369 33.123 226.266 34.28 226.266 35.905V40H225.291V38.947C224.81 39.74 223.809 40.156 222.925 40.156C221.508 40.156 220.468 39.337 220.468 38.011C220.468 36.672 221.664 35.775 223.107 35.775C223.835 35.775 224.602 35.931 225.291 36.152V35.905C225.291 34.995 224.927 33.955 223.471 33.955C222.795 33.955 222.119 34.254 221.508 34.566L221.118 33.773C222.08 33.292 222.886 33.123 223.536 33.123ZM223.094 39.298C223.978 39.298 225.031 38.843 225.291 37.894V36.867C224.68 36.698 223.991 36.594 223.263 36.594C222.262 36.594 221.417 37.166 221.417 37.972C221.417 38.804 222.145 39.298 223.094 39.298ZM228.267 40V30.913H229.242V40H228.267Z" fill="#22343C"/>
<g filter="url(#filter0_d_9324_47655)">
<path d="M3 48H199V100C199 102.209 197.209 104 195 104H7C4.79086 104 3 102.209 3 100V48Z" fill="white"/>
<path d="M35 72C35 76.4183 31.4183 80 27 80C22.5817 80 19 76.4183 19 72C19 67.5817 22.5817 64 27 64C31.4183 64 35 67.5817 35 72ZM20.2501 72C20.2501 75.7279 23.2721 78.7499 27 78.7499C30.7279 78.7499 33.7499 75.7279 33.7499 72C33.7499 68.2721 30.7279 65.2501 27 65.2501C23.2721 65.2501 20.2501 68.2721 20.2501 72Z" fill="#E3EAED"/>
<path d="M32.0961 78.1669C33.3639 77.1191 34.2781 75.7061 34.7139 74.1202C35.1498 72.5342 35.0863 70.8525 34.532 69.3039C33.9777 67.7554 32.9596 66.4153 31.6163 65.4663C30.273 64.5172 28.6698 64.0052 27.0251 64L27.0212 65.2447C28.41 65.249 29.7638 65.6813 30.8981 66.4828C32.0324 67.2842 32.8921 68.4158 33.3602 69.7234C33.8283 71.031 33.8819 72.4511 33.5138 73.7903C33.1457 75.1295 32.3738 76.3227 31.3032 77.2074L32.0961 78.1669Z" fill="#0079AD"/>
<path d="M46.25 73.11C45.1 73.11 44.15 72.71 43.43 72.01L44.03 71.26C44.64 71.84 45.36 72.22 46.29 72.22C47.24 72.22 47.73 71.72 47.73 71.17C47.73 70.52 47.16 70.27 46.01 70.01C44.61 69.68 43.68 69.26 43.68 68.02C43.68 66.87 44.68 66.01 46.07 66.01C47.12 66.01 47.91 66.39 48.57 66.98L47.99 67.74C47.41 67.21 46.72 66.9 46.02 66.9C45.25 66.9 44.71 67.38 44.71 67.93C44.71 68.57 45.3 68.79 46.43 69.06C47.8 69.38 48.75 69.84 48.75 71.07C48.75 72.23 47.87 73.11 46.25 73.11ZM52.81 72.3C53.37 72.3 54.02 72.05 54.34 71.71L54.92 72.32C54.47 72.81 53.56 73.12 52.83 73.12C51.4 73.12 50.16 71.99 50.16 70.4C50.16 68.85 51.33 67.71 52.76 67.71C54.34 67.71 55.26 68.89 55.26 70.73H51.13C51.25 71.64 51.89 72.3 52.81 72.3ZM52.78 68.53C51.95 68.53 51.29 69.11 51.14 70H54.3C54.2 69.17 53.68 68.53 52.78 68.53ZM58.8794 67.71C60.2694 67.71 61.0394 68.59 61.0394 69.87V73H60.0694V72.3C59.6894 72.83 58.9894 73.12 58.3494 73.12C57.2594 73.12 56.4394 72.48 56.4394 71.47C56.4394 70.44 57.3694 69.75 58.5094 69.75C59.0194 69.75 59.5694 69.86 60.0694 70.03V69.87C60.0694 69.22 59.7694 68.53 58.7394 68.53C58.2294 68.53 57.7394 68.73 57.2894 68.96L56.9194 68.23C57.6594 67.86 58.3094 67.71 58.8794 67.71ZM58.5494 72.34C59.1894 72.34 59.8994 72.02 60.0694 71.38V70.69C59.6394 70.56 59.1694 70.49 58.6594 70.49C57.9694 70.49 57.3894 70.88 57.3894 71.44C57.3894 72 57.8894 72.34 58.5494 72.34ZM64.0441 68.84C64.3641 68.15 65.0641 67.71 65.9641 67.71V68.57C64.8241 68.57 64.0441 69.25 64.0441 70.25V73H63.0541V67.83H64.0441V68.84ZM69.9264 73.12C68.4464 73.12 67.1964 71.88 67.1964 70.41C67.1964 68.94 68.4564 67.71 69.9264 67.71C70.6764 67.71 71.3364 68.02 71.8364 68.51L71.1664 69.13C70.8464 68.78 70.3964 68.57 69.9264 68.57C68.9864 68.57 68.1964 69.41 68.1964 70.41C68.1964 71.42 68.9864 72.26 69.9264 72.26C70.4064 72.26 70.8664 72.04 71.1964 71.68L71.8664 72.29C71.3664 72.8 70.6964 73.12 69.9264 73.12ZM76.0398 67.71C77.1798 67.71 77.9698 68.52 77.9698 69.71V73H77.0098V69.88C77.0098 69.1 76.5198 68.57 75.8198 68.57C75.0298 68.57 74.3898 69.11 74.3898 69.79V73H73.3998V66.01H74.3898V68.59C74.6898 68.07 75.3298 67.71 76.0398 67.71ZM80.4838 66.97C80.1538 66.97 79.8838 66.69 79.8838 66.37C79.8838 66.06 80.1538 65.78 80.4838 65.78C80.8138 65.78 81.0738 66.06 81.0738 66.37C81.0738 66.69 80.8138 66.97 80.4838 66.97ZM79.9838 73V67.83H80.9738V73H79.9838ZM85.7313 67.71C86.8713 67.71 87.6613 68.52 87.6613 69.71V73H86.7013V69.88C86.7013 69.1 86.2113 68.57 85.5113 68.57C84.7213 68.57 84.0813 69.11 84.0813 69.79V73H83.0913V67.83H84.0813V68.59C84.3813 68.07 85.0213 67.71 85.7313 67.71ZM93.4352 67.83H94.4252V72.45C94.4252 73.78 93.3352 74.72 91.8052 74.72C90.9352 74.72 90.1352 74.43 89.6452 74.03L90.0352 73.29C90.4152 73.65 91.0352 73.86 91.6652 73.86C92.7652 73.86 93.4352 73.33 93.4352 72.43V71.68C93.0252 72.27 92.3852 72.62 91.6152 72.62C90.2452 72.62 89.2552 71.6 89.2552 70.16C89.2552 68.72 90.2452 67.71 91.6152 67.71C92.3852 67.71 93.0452 68.07 93.4352 68.65V67.83ZM91.8552 71.76C92.7852 71.76 93.4352 71.1 93.4352 70.16C93.4352 69.23 92.7852 68.57 91.8552 68.57C90.9452 68.57 90.2852 69.23 90.2852 70.16C90.2852 71.1 90.9452 71.76 91.8552 71.76ZM100.967 67.26V67.83H102.187V68.67H100.967V73H99.9966V68.67H99.2166V67.83H99.9966V67.21C99.9966 66.38 100.557 65.8 101.357 65.8C101.727 65.8 102.107 65.94 102.387 66.17L102.027 66.83C101.917 66.72 101.717 66.64 101.497 66.64C101.207 66.64 100.967 66.9 100.967 67.26ZM105.926 73.12C104.436 73.12 103.206 71.9 103.206 70.41C103.206 68.92 104.436 67.71 105.926 67.71C107.416 67.71 108.646 68.92 108.646 70.41C108.646 71.9 107.416 73.12 105.926 73.12ZM105.926 72.26C106.876 72.26 107.656 71.43 107.656 70.41C107.656 69.39 106.876 68.57 105.926 68.57C104.976 68.57 104.196 69.39 104.196 70.41C104.196 71.43 104.976 72.26 105.926 72.26ZM111.337 68.84C111.657 68.15 112.357 67.71 113.257 67.71V68.57C112.117 68.57 111.337 69.25 111.337 70.25V73H110.347V67.83H111.337V68.84ZM123.954 67.71C125.034 67.71 125.814 68.54 125.814 69.71V73H124.854V69.86C124.854 69.1 124.394 68.57 123.754 68.57C123.014 68.57 122.484 69.06 122.484 69.77V73H121.514V69.86C121.514 69.1 121.064 68.57 120.424 68.57C119.674 68.57 119.154 69.06 119.154 69.77V73H118.164V67.83H119.154V68.57C119.414 68.04 119.954 67.71 120.624 67.71C121.444 67.71 122.094 68.19 122.354 68.94C122.514 68.21 123.144 67.71 123.954 67.71ZM129.784 67.71C131.174 67.71 131.944 68.59 131.944 69.87V73H130.974V72.3C130.594 72.83 129.894 73.12 129.254 73.12C128.164 73.12 127.344 72.48 127.344 71.47C127.344 70.44 128.274 69.75 129.414 69.75C129.924 69.75 130.474 69.86 130.974 70.03V69.87C130.974 69.22 130.674 68.53 129.644 68.53C129.134 68.53 128.644 68.73 128.194 68.96L127.824 68.23C128.564 67.86 129.214 67.71 129.784 67.71ZM129.454 72.34C130.094 72.34 130.804 72.02 130.974 71.38V70.69C130.544 70.56 130.074 70.49 129.564 70.49C128.874 70.49 128.294 70.88 128.294 71.44C128.294 72 128.794 72.34 129.454 72.34ZM136.168 72.07L136.538 72.75C136.258 72.98 135.868 73.12 135.498 73.12C134.698 73.12 134.138 72.54 134.138 71.71V68.67H133.368V67.83H134.138V66.41H135.108V67.83H136.328V68.67H135.108V71.64C135.108 72 135.358 72.26 135.648 72.26C135.868 72.26 136.068 72.18 136.168 72.07ZM140.372 73.12C138.892 73.12 137.642 71.88 137.642 70.41C137.642 68.94 138.902 67.71 140.372 67.71C141.122 67.71 141.782 68.02 142.282 68.51L141.612 69.13C141.292 68.78 140.842 68.57 140.372 68.57C139.432 68.57 138.642 69.41 138.642 70.41C138.642 71.42 139.432 72.26 140.372 72.26C140.852 72.26 141.312 72.04 141.642 71.68L142.312 72.29C141.812 72.8 141.142 73.12 140.372 73.12ZM146.485 67.71C147.625 67.71 148.415 68.52 148.415 69.71V73H147.455V69.88C147.455 69.1 146.965 68.57 146.265 68.57C145.475 68.57 144.835 69.11 144.835 69.79V73H143.845V66.01H144.835V68.59C145.135 68.07 145.775 67.71 146.485 67.71ZM152.679 72.3C153.239 72.3 153.889 72.05 154.209 71.71L154.789 72.32C154.339 72.81 153.429 73.12 152.699 73.12C151.269 73.12 150.029 71.99 150.029 70.4C150.029 68.85 151.199 67.71 152.629 67.71C154.209 67.71 155.129 68.89 155.129 70.73H150.999C151.119 71.64 151.759 72.3 152.679 72.3ZM152.649 68.53C151.819 68.53 151.159 69.11 151.009 70H154.169C154.069 69.17 153.549 68.53 152.649 68.53ZM158.489 73.12C157.729 73.12 156.909 72.85 156.289 72.35L156.739 71.67C157.309 72.09 157.929 72.32 158.499 72.32C159.119 72.32 159.509 72.04 159.509 71.62C159.509 71.13 158.969 70.97 158.309 70.79C157.129 70.46 156.529 70.12 156.529 69.28C156.529 68.33 157.319 67.71 158.409 67.71C159.079 67.71 159.769 67.94 160.319 68.31L159.909 69.01C159.399 68.69 158.879 68.51 158.409 68.51C157.889 68.51 157.469 68.74 157.469 69.17C157.469 69.57 157.819 69.69 158.699 69.96C159.549 70.21 160.449 70.49 160.449 71.52C160.449 72.5 159.629 73.12 158.489 73.12ZM166.576 67.26V67.83H167.796V68.67H166.576V73H165.606V68.67H164.826V67.83H165.606V67.21C165.606 66.38 166.166 65.8 166.966 65.8C167.336 65.8 167.716 65.94 167.996 66.17L167.636 66.83C167.526 66.72 167.326 66.64 167.106 66.64C166.816 66.64 166.576 66.9 166.576 67.26ZM171.536 73.12C170.046 73.12 168.816 71.9 168.816 70.41C168.816 68.92 170.046 67.71 171.536 67.71C173.026 67.71 174.256 68.92 174.256 70.41C174.256 71.9 173.026 73.12 171.536 73.12ZM171.536 72.26C172.486 72.26 173.266 71.43 173.266 70.41C173.266 69.39 172.486 68.57 171.536 68.57C170.586 68.57 169.806 69.39 169.806 70.41C169.806 71.43 170.586 72.26 171.536 72.26ZM176.946 68.84C177.266 68.15 177.966 67.71 178.866 67.71V68.57C177.726 68.57 176.946 69.25 176.946 70.25V73H175.956V67.83H176.946V68.84ZM44.6 78.21L45.02 78.53C44.73 78.83 44.55 79.15 44.47 79.46C44.83 79.46 45.12 79.77 45.12 80.13C45.12 80.48 44.83 80.79 44.45 80.79C44.01 80.79 43.73 80.39 43.73 79.84C43.73 79.37 43.96 78.94 44.6 78.21ZM49.1411 79.71C50.5311 79.71 51.3011 80.59 51.3011 81.87V85H50.3311V84.3C49.9511 84.83 49.2511 85.12 48.6111 85.12C47.5211 85.12 46.7011 84.48 46.7011 83.47C46.7011 82.44 47.6311 81.75 48.7711 81.75C49.2811 81.75 49.8311 81.86 50.3311 82.03V81.87C50.3311 81.22 50.0311 80.53 49.0011 80.53C48.4911 80.53 48.0011 80.73 47.5511 80.96L47.1811 80.23C47.9211 79.86 48.5711 79.71 49.1411 79.71ZM48.8111 84.34C49.4511 84.34 50.1611 84.02 50.3311 83.38V82.69C49.9011 82.56 49.4311 82.49 48.9211 82.49C48.2311 82.49 47.6511 82.88 47.6511 83.44C47.6511 84 48.1511 84.34 48.8111 84.34ZM53.3159 85V78.01H54.3059V85H53.3159ZM56.8833 80.77L56.4633 80.45C56.7433 80.15 56.9333 79.83 57.0133 79.52C56.6533 79.52 56.3633 79.21 56.3633 78.85C56.3633 78.5 56.6533 78.19 57.0233 78.19C57.4733 78.19 57.7533 78.59 57.7533 79.14C57.7533 79.6 57.5233 80.04 56.8833 80.77Z" fill="#22343C"/>
<path d="M3.5 48.5H198.5V100C198.5 101.933 196.933 103.5 195 103.5H7C5.067 103.5 3.5 101.933 3.5 100V48.5Z" stroke="#CBD4D8"/>
</g>
<defs>
<filter id="filter0_d_9324_47655" x="0" y="46" width="202" height="62" filterUnits="userSpaceOnUse" color-interpolation-filters="sRGB">
<feFlood flood-opacity="0" result="BackgroundImageFix"/>
<feColorMatrix in="SourceAlpha" type="matrix" values="0 0 0 0 0 0 0 0 0 0 0 0 0 0 0 0 0 0 127 0" result="hardAlpha"/>
<feOffset dy="1"/>
<feGaussianBlur stdDeviation="1.5"/>
<feColorMatrix type="matrix" values="0 0 0 0 0.105 0 0 0 0 0.168 0 0 0 0 0.195 0 0 0 0.2 0"/>
<feBlend mode="normal" in2="BackgroundImageFix" result="effect1_dropShadow_9324_47655"/>
<feBlend mode="normal" in="SourceGraphic" in2="effect1_dropShadow_9324_47655" result="shape"/>
</filter>
</defs>
</svg>
