<svg width="317" height="196" viewBox="0 0 317 196" fill="none" xmlns="http://www.w3.org/2000/svg">
<path d="M10.956 4.551H5.86V6.813H10.462V8.295H5.86V12H4.235V3.069H10.956V4.551ZM15.0468 5.123C16.8278 5.123 17.9198 6.254 17.9198 7.957V12H16.3728V11.207C15.8788 11.818 15.0468 12.156 14.2668 12.156C12.8368 12.156 11.7708 11.311 11.7708 10.011C11.7708 8.685 12.9798 7.775 14.5008 7.775C15.1118 7.775 15.7618 7.905 16.3728 8.126V7.957C16.3728 7.177 15.9568 6.423 14.7348 6.423C14.0978 6.423 13.4868 6.644 12.9148 6.93L12.3688 5.825C13.3178 5.357 14.2018 5.123 15.0468 5.123ZM14.6178 10.999C15.3848 10.999 16.2038 10.609 16.3728 9.894V9.127C15.8788 8.971 15.3198 8.88 14.7348 8.88C13.9418 8.88 13.2918 9.322 13.2918 9.959C13.2918 10.596 13.8638 10.999 14.6178 10.999ZM21.7111 12L18.8121 5.279H20.5021L22.4521 10.167L24.3631 5.279H26.0401L23.1931 12H21.7111ZM30.1795 12.156C28.1905 12.156 26.5655 10.57 26.5655 8.633C26.5655 6.696 28.1905 5.123 30.1795 5.123C32.1555 5.123 33.7675 6.696 33.7675 8.633C33.7675 10.57 32.1555 12.156 30.1795 12.156ZM30.1795 10.804C31.2975 10.804 32.2205 9.829 32.2205 8.633C32.2205 7.437 31.2975 6.475 30.1795 6.475C29.0485 6.475 28.1255 7.437 28.1255 8.633C28.1255 9.829 29.0485 10.804 30.1795 10.804ZM39.5819 5.279H41.1679V12H39.5819V11.09C39.1789 11.727 38.3989 12.156 37.5019 12.156C36.0199 12.156 34.9929 11.09 34.9929 9.556V5.279H36.5399V9.244C36.5399 10.167 37.1119 10.804 37.9439 10.804C38.8539 10.804 39.5819 10.167 39.5819 9.348V5.279ZM44.6326 6.553C45.0616 5.682 45.9456 5.123 47.0376 5.123V6.475C45.5946 6.475 44.6326 7.333 44.6326 8.607V12H43.0466V5.279H44.6326V6.553ZM49.1732 4.265C48.6662 4.265 48.2632 3.836 48.2632 3.355C48.2632 2.874 48.6662 2.458 49.1732 2.458C49.6672 2.458 50.0702 2.874 50.0702 3.355C50.0702 3.836 49.6672 4.265 49.1732 4.265ZM48.3802 12V5.279H49.9662V12H48.3802ZM54.9936 10.557L55.4486 11.623C55.0716 11.948 54.5256 12.156 54.0056 12.156C52.9006 12.156 52.1206 11.35 52.1206 10.219V6.592H51.1456V5.279H52.1206V3.433H53.6546V5.279H55.1756V6.592H53.6546V10.024C53.6546 10.479 53.9536 10.804 54.3306 10.804C54.6036 10.804 54.8506 10.7 54.9936 10.557ZM59.638 10.882C60.314 10.882 61.081 10.596 61.51 10.18L62.42 11.116C61.835 11.74 60.665 12.156 59.69 12.156C57.753 12.156 56.154 10.687 56.154 8.62C56.154 6.592 57.675 5.123 59.599 5.123C61.679 5.123 62.901 6.657 62.901 9.101H57.688C57.857 10.154 58.598 10.882 59.638 10.882ZM59.612 6.397C58.65 6.397 57.909 7.047 57.701 8.048H61.367C61.224 7.099 60.626 6.397 59.612 6.397ZM71.0116 12.143C69.4906 12.143 68.1776 11.623 67.1896 10.7L68.1386 9.543C68.9576 10.284 69.9066 10.752 71.0766 10.752C72.1686 10.752 72.7406 10.206 72.7406 9.569C72.7406 8.828 72.1036 8.581 70.6736 8.243C68.8276 7.814 67.5536 7.281 67.5536 5.604C67.5536 4.044 68.8796 2.913 70.7516 2.913C72.1686 2.913 73.2476 3.394 74.1316 4.161L73.2476 5.344C72.4806 4.681 71.5836 4.304 70.6996 4.304C69.7896 4.304 69.1916 4.837 69.1916 5.461C69.1916 6.189 69.8416 6.449 71.2586 6.774C73.1176 7.19 74.3656 7.788 74.3656 9.413C74.3656 11.012 73.1566 12.143 71.0116 12.143ZM79.0067 10.557L79.4617 11.623C79.0847 11.948 78.5387 12.156 78.0187 12.156C76.9137 12.156 76.1337 11.35 76.1337 10.219V6.592H75.1587V5.279H76.1337V3.433H77.6677V5.279H79.1887V6.592H77.6677V10.024C77.6677 10.479 77.9667 10.804 78.3437 10.804C78.6167 10.804 78.8637 10.7 79.0067 10.557ZM83.3521 5.123C85.1331 5.123 86.2251 6.254 86.2251 7.957V12H84.6781V11.207C84.184 11.818 83.3521 12.156 82.572 12.156C81.142 12.156 80.076 11.311 80.076 10.011C80.076 8.685 81.285 7.775 82.8061 7.775C83.4171 7.775 84.0671 7.905 84.6781 8.126V7.957C84.6781 7.177 84.2621 6.423 83.04 6.423C82.4031 6.423 81.792 6.644 81.22 6.93L80.6741 5.825C81.6231 5.357 82.5071 5.123 83.3521 5.123ZM82.923 10.999C83.6901 10.999 84.5091 10.609 84.6781 9.894V9.127C84.184 8.971 83.6251 8.88 83.04 8.88C82.2471 8.88 81.597 9.322 81.597 9.959C81.597 10.596 82.169 10.999 82.923 10.999ZM91.1084 10.557L91.5634 11.623C91.1864 11.948 90.6404 12.156 90.1204 12.156C89.0154 12.156 88.2354 11.35 88.2354 10.219V6.592H87.2604V5.279H88.2354V3.433H89.7694V5.279H91.2904V6.592H89.7694V10.024C89.7694 10.479 90.0684 10.804 90.4454 10.804C90.7184 10.804 90.9654 10.7 91.1084 10.557ZM95.7528 10.882C96.4288 10.882 97.1958 10.596 97.6248 10.18L98.5348 11.116C97.9498 11.74 96.7798 12.156 95.8048 12.156C93.8678 12.156 92.2688 10.687 92.2688 8.62C92.2688 6.592 93.7898 5.123 95.7138 5.123C97.7938 5.123 99.0158 6.657 99.0158 9.101H93.8028C93.9718 10.154 94.7128 10.882 95.7528 10.882ZM95.7268 6.397C94.7648 6.397 94.0238 7.047 93.8158 8.048H97.4818C97.3388 7.099 96.7408 6.397 95.7268 6.397ZM102.658 12.156C101.631 12.156 100.526 11.792 99.7068 11.155L100.383 10.115C101.111 10.635 101.956 10.934 102.684 10.934C103.399 10.934 103.828 10.635 103.828 10.167C103.828 9.634 103.204 9.452 102.411 9.244C100.942 8.854 100.019 8.451 100.019 7.229C100.019 5.981 101.059 5.123 102.554 5.123C103.477 5.123 104.387 5.448 105.128 5.929L104.504 6.995C103.88 6.592 103.178 6.332 102.554 6.332C101.969 6.332 101.501 6.605 101.501 7.073C101.501 7.515 101.917 7.632 102.931 7.944C104.075 8.256 105.297 8.633 105.297 10.024C105.297 11.324 104.218 12.156 102.658 12.156Z" fill="#22343C"/>
<mask id="mask0_9324_47654" style="mask-type:alpha" maskUnits="userSpaceOnUse" x="3" y="24" width="314" height="24">
<path d="M7 24.5H313C314.933 24.5 316.5 26.067 316.5 28V44C316.5 45.933 314.933 47.5 313 47.5H6.99999C5.067 47.5 3.5 45.933 3.5 44V28C3.5 26.067 5.067 24.5 7 24.5Z" fill="#F1F6F8" stroke="#CBD4D8"/>
</mask>
<g mask="url(#mask0_9324_47654)">
<path d="M7 24.5H313C314.933 24.5 316.5 26.067 316.5 28V44C316.5 45.933 314.933 47.5 313 47.5H6.99999C5.067 47.5 3.5 45.933 3.5 44V28C3.5 26.067 5.067 24.5 7 24.5Z" fill="#EBF9FF"/>
<path d="M15 28.5H131C132.933 28.5 134.5 30.067 134.5 32V40C134.5 41.933 132.933 43.5 131 43.5H15C13.067 43.5 11.5 41.933 11.5 40V32C11.5 30.067 13.067 28.5 15 28.5Z" fill="white"/>
<path d="M23.941 39L23.182 37.284H18.969L18.21 39H17.275L20.608 31.443H21.543L24.876 39H23.941ZM19.321 36.47H22.83L21.081 32.499L19.321 36.47ZM32.4593 33.181C33.6473 33.181 34.4833 34.094 34.4833 35.381V39H33.6583V35.491C33.6583 34.567 33.1193 33.918 32.3493 33.918C31.4473 33.918 30.8093 34.523 30.8093 35.381V39H29.9843V35.491C29.9843 34.567 29.4453 33.918 28.6753 33.918C27.7733 33.918 27.1353 34.523 27.1353 35.381V39H26.3103V33.313H27.1353V34.149C27.4213 33.555 28.0373 33.181 28.7853 33.181C29.6873 33.181 30.3913 33.709 30.6773 34.534C30.8533 33.731 31.5573 33.181 32.4593 33.181ZM38.8663 38.395C39.5373 38.395 40.3073 38.098 40.6593 37.713L41.1653 38.252C40.6703 38.791 39.6693 39.132 38.8773 39.132C37.3593 39.132 35.9953 37.889 35.9953 36.14C35.9953 34.446 37.2713 33.181 38.8003 33.181C40.5163 33.181 41.4953 34.479 41.4953 36.47H36.8423C36.9633 37.581 37.7443 38.395 38.8663 38.395ZM38.8333 33.918C37.8213 33.918 37.0073 34.633 36.8533 35.733H40.6813C40.5713 34.71 39.9663 33.918 38.8333 33.918ZM43.9064 34.424C44.2474 33.665 45.0614 33.181 46.1064 33.181V33.918C44.8194 33.918 43.9064 34.71 43.9064 35.821V39H43.0814V33.313H43.9064V34.424ZM48.0607 32.279C47.7527 32.279 47.5107 32.026 47.5107 31.729C47.5107 31.443 47.7527 31.19 48.0607 31.19C48.3577 31.19 48.5997 31.443 48.5997 31.729C48.5997 32.026 48.3577 32.279 48.0607 32.279ZM47.6427 39V33.313H48.4677V39H47.6427ZM53.024 39.132C51.429 39.132 50.076 37.768 50.076 36.151C50.076 34.534 51.429 33.181 53.024 33.181C53.794 33.181 54.509 33.5 55.048 34.017L54.476 34.578C54.102 34.171 53.585 33.918 53.024 33.918C51.891 33.918 50.945 34.941 50.945 36.151C50.945 37.372 51.891 38.395 53.024 38.395C53.596 38.395 54.124 38.131 54.509 37.702L55.081 38.263C54.542 38.802 53.816 39.132 53.024 39.132ZM58.5211 33.181C60.0721 33.181 60.8311 34.16 60.8311 35.535V39H60.0061V38.109C59.5991 38.78 58.7521 39.132 58.0041 39.132C56.8051 39.132 55.9251 38.439 55.9251 37.317C55.9251 36.184 56.9371 35.425 58.1581 35.425C58.7741 35.425 59.4231 35.557 60.0061 35.744V35.535C60.0061 34.765 59.6981 33.885 58.4661 33.885C57.8941 33.885 57.3221 34.138 56.8051 34.402L56.4751 33.731C57.2891 33.324 57.9711 33.181 58.5211 33.181ZM58.1471 38.406C58.8951 38.406 59.7861 38.021 60.0061 37.218V36.349C59.4891 36.206 58.9061 36.118 58.2901 36.118C57.4431 36.118 56.7281 36.602 56.7281 37.284C56.7281 37.988 57.3441 38.406 58.1471 38.406ZM65.5042 33.181C66.7692 33.181 67.6382 34.072 67.6382 35.381V39H66.8132V35.491C66.8132 34.556 66.2302 33.918 65.3942 33.918C64.4262 33.918 63.6341 34.578 63.6341 35.381V39H62.8092V33.313H63.6341V34.215C63.9641 33.61 64.6902 33.181 65.5042 33.181ZM75.3749 39.121C74.1319 39.121 73.1529 38.67 72.3939 37.922L72.9329 37.251C73.5709 37.889 74.3519 38.34 75.4079 38.34C76.5739 38.34 77.1679 37.702 77.1679 37.02C77.1679 36.217 76.4529 35.898 75.1329 35.59C73.6149 35.238 72.6579 34.765 72.6579 33.456C72.6579 32.246 73.7359 31.311 75.1879 31.311C76.3099 31.311 77.1459 31.751 77.8389 32.389L77.3109 33.06C76.6839 32.455 75.9359 32.092 75.1439 32.092C74.2089 32.092 73.5269 32.697 73.5269 33.39C73.5269 34.171 74.2749 34.446 75.5619 34.754C77.0029 35.095 78.0369 35.612 78.0369 36.943C78.0369 38.142 77.1349 39.121 75.3749 39.121ZM81.8152 33.181C83.3662 33.181 84.1252 34.16 84.1252 35.535V39H83.3002V38.109C82.8932 38.78 82.0462 39.132 81.2982 39.132C80.0992 39.132 79.2192 38.439 79.2192 37.317C79.2192 36.184 80.2312 35.425 81.4522 35.425C82.0682 35.425 82.7172 35.557 83.3002 35.744V35.535C83.3002 34.765 82.9922 33.885 81.7602 33.885C81.1882 33.885 80.6162 34.138 80.0992 34.402L79.7692 33.731C80.5832 33.324 81.2652 33.181 81.8152 33.181ZM81.4412 38.406C82.1892 38.406 83.0802 38.021 83.3002 37.218V36.349C82.7832 36.206 82.2002 36.118 81.5842 36.118C80.7372 36.118 80.0222 36.602 80.0222 37.284C80.0222 37.988 80.6382 38.406 81.4412 38.406ZM92.2523 33.181C93.4403 33.181 94.2763 34.094 94.2763 35.381V39H93.4513V35.491C93.4513 34.567 92.9123 33.918 92.1423 33.918C91.2403 33.918 90.6023 34.523 90.6023 35.381V39H89.7773V35.491C89.7773 34.567 89.2383 33.918 88.4683 33.918C87.5663 33.918 86.9283 34.523 86.9283 35.381V39H86.1033V33.313H86.9283V34.149C87.2143 33.555 87.8303 33.181 88.5783 33.181C89.4803 33.181 90.1843 33.709 90.4703 34.534C90.6463 33.731 91.3503 33.181 92.2523 33.181ZM98.7033 39.132C97.0863 39.132 95.7663 37.79 95.7663 36.151C95.7663 34.512 97.0863 33.181 98.7033 33.181C100.309 33.181 101.629 34.512 101.629 36.151C101.629 37.79 100.309 39.132 98.7033 39.132ZM98.7033 38.395C99.8363 38.395 100.771 37.383 100.771 36.151C100.771 34.919 99.8363 33.918 98.7033 33.918C97.5593 33.918 96.6243 34.919 96.6243 36.151C96.6243 37.383 97.5593 38.395 98.7033 38.395ZM105.285 33.181C106.836 33.181 107.595 34.16 107.595 35.535V39H106.77V38.109C106.363 38.78 105.516 39.132 104.768 39.132C103.569 39.132 102.689 38.439 102.689 37.317C102.689 36.184 103.701 35.425 104.922 35.425C105.538 35.425 106.187 35.557 106.77 35.744V35.535C106.77 34.765 106.462 33.885 105.23 33.885C104.658 33.885 104.086 34.138 103.569 34.402L103.239 33.731C104.053 33.324 104.735 33.181 105.285 33.181ZM104.911 38.406C105.659 38.406 106.55 38.021 106.77 37.218V36.349C106.253 36.206 105.67 36.118 105.054 36.118C104.207 36.118 103.492 36.602 103.492 37.284C103.492 37.988 104.108 38.406 104.911 38.406Z" fill="#22343C"/>
<path d="M123.47 36L126.233 33.2366C126.347 33.1044 126.339 32.9072 126.216 32.7841C126.093 32.661 125.896 32.6534 125.763 32.7666L123 35.53L120.237 32.7633C120.106 32.6326 119.894 32.6326 119.763 32.7633C119.633 32.894 119.633 33.1059 119.763 33.2366L122.53 36L119.763 38.7633C119.668 38.8448 119.627 38.9727 119.656 39.0945C119.685 39.2162 119.78 39.3113 119.902 39.3406C120.024 39.3699 120.152 39.3284 120.233 39.2333L123 36.47L125.763 39.2333C125.896 39.3466 126.093 39.339 126.216 39.2158C126.339 39.0927 126.347 38.8956 126.233 38.7633L123.47 36Z" fill="#3A4D55"/>
<path d="M15 28.5H131C132.933 28.5 134.5 30.067 134.5 32V40C134.5 41.933 132.933 43.5 131 43.5H15C13.067 43.5 11.5 41.933 11.5 40V32C11.5 30.067 13.067 28.5 15 28.5Z" stroke="#CBD4D8"/>
<path d="M143 28.5H209C210.933 28.5 212.5 30.067 212.5 32V40C212.5 41.933 210.933 43.5 209 43.5H143C141.067 43.5 139.5 41.933 139.5 40V32C139.5 30.067 141.067 28.5 143 28.5Z" fill="white"/>
<path d="M151.941 39L151.182 37.284H146.969L146.21 39H145.275L148.608 31.443H149.543L152.876 39H151.941ZM147.321 36.47H150.83L149.081 32.499L147.321 36.47ZM155.135 34.424C155.476 33.665 156.29 33.181 157.335 33.181V33.918C156.048 33.918 155.135 34.71 155.135 35.821V39H154.31V33.313H155.135V34.424ZM159.29 32.279C158.982 32.279 158.74 32.026 158.74 31.729C158.74 31.443 158.982 31.19 159.29 31.19C159.587 31.19 159.829 31.443 159.829 31.729C159.829 32.026 159.587 32.279 159.29 32.279ZM158.872 39V33.313H159.697V39H158.872ZM161.217 39V38.351L164.572 34.094H161.283V33.313H165.683V33.962L162.317 38.219H165.705V39H161.217ZM169.674 39.132C168.057 39.132 166.737 37.79 166.737 36.151C166.737 34.512 168.057 33.181 169.674 33.181C171.28 33.181 172.6 34.512 172.6 36.151C172.6 37.79 171.28 39.132 169.674 39.132ZM169.674 38.395C170.807 38.395 171.742 37.383 171.742 36.151C171.742 34.919 170.807 33.918 169.674 33.918C168.53 33.918 167.595 34.919 167.595 36.151C167.595 37.383 168.53 38.395 169.674 38.395ZM176.916 33.181C178.181 33.181 179.05 34.072 179.05 35.381V39H178.225V35.491C178.225 34.556 177.642 33.918 176.806 33.918C175.838 33.918 175.046 34.578 175.046 35.381V39H174.221V33.313H175.046V34.215C175.376 33.61 176.102 33.181 176.916 33.181ZM183.062 33.181C184.613 33.181 185.372 34.16 185.372 35.535V39H184.547V38.109C184.14 38.78 183.293 39.132 182.545 39.132C181.346 39.132 180.466 38.439 180.466 37.317C180.466 36.184 181.478 35.425 182.699 35.425C183.315 35.425 183.964 35.557 184.547 35.744V35.535C184.547 34.765 184.239 33.885 183.007 33.885C182.435 33.885 181.863 34.138 181.346 34.402L181.016 33.731C181.83 33.324 182.512 33.181 183.062 33.181ZM182.688 38.406C183.436 38.406 184.327 38.021 184.547 37.218V36.349C184.03 36.206 183.447 36.118 182.831 36.118C181.984 36.118 181.269 36.602 181.269 37.284C181.269 37.988 181.885 38.406 182.688 38.406Z" fill="#22343C"/>
<path d="M201.47 36L204.233 33.2366C204.347 33.1044 204.339 32.9072 204.216 32.7841C204.093 32.661 203.896 32.6534 203.763 32.7666L201 35.53L198.237 32.7633C198.106 32.6326 197.894 32.6326 197.763 32.7633C197.633 32.894 197.633 33.1059 197.763 33.2366L200.53 36L197.763 38.7633C197.668 38.8448 197.627 38.9727 197.656 39.0945C197.685 39.2162 197.78 39.3113 197.902 39.3406C198.024 39.3699 198.152 39.3284 198.233 39.2333L201 36.47L203.763 39.2333C203.896 39.3466 204.093 39.339 204.216 39.2158C204.339 39.0927 204.347 38.8956 204.233 38.7633L201.47 36Z" fill="#3A4D55"/>
<path d="M143 28.5H209C210.933 28.5 212.5 30.067 212.5 32V40C212.5 41.933 210.933 43.5 209 43.5H143C141.067 43.5 139.5 41.933 139.5 40V32C139.5 30.067 141.067 28.5 143 28.5Z" stroke="#CBD4D8"/>
<path d="M306.12 33.9915L301 39.2893L295.88 33.9915C295.59 33.6908 295.599 33.2123 295.9 32.9226C296.201 32.633 296.679 32.642 296.969 32.9426L301 37.116L305.036 32.9426C305.325 32.642 305.804 32.633 306.104 32.9226C306.405 33.2123 306.414 33.6908 306.124 33.9915H306.12Z" fill="#3A4D55"/>
<line x1="3" y1="47" x2="317" y2="47" stroke="#0079AD" stroke-width="2"/>
<path d="M7 24.5H313C314.933 24.5 316.5 26.067 316.5 28V44C316.5 45.933 314.933 47.5 313 47.5H6.99999C5.067 47.5 3.5 45.933 3.5 44V28C3.5 26.067 5.067 24.5 7 24.5Z" stroke="#CBD4D8"/>
</g>
<path d="M223.536 33.123C225.369 33.123 226.266 34.28 226.266 35.905V40H225.291V38.947C224.81 39.74 223.809 40.156 222.925 40.156C221.508 40.156 220.468 39.337 220.468 38.011C220.468 36.672 221.664 35.775 223.107 35.775C223.835 35.775 224.602 35.931 225.291 36.152V35.905C225.291 34.995 224.927 33.955 223.471 33.955C222.795 33.955 222.119 34.254 221.508 34.566L221.118 33.773C222.08 33.292 222.886 33.123 223.536 33.123ZM223.094 39.298C223.978 39.298 225.031 38.843 225.291 37.894V36.867C224.68 36.698 223.991 36.594 223.263 36.594C222.262 36.594 221.417 37.166 221.417 37.972C221.417 38.804 222.145 39.298 223.094 39.298ZM228.267 40V30.913H229.242V40H228.267Z" fill="#22343C"/>
<g filter="url(#filter0_d_9324_47654)">
<path d="M3 52C3 49.7909 4.79086 48 7 48H199C201.209 48 203 49.7909 203 52V188C203 190.209 201.209 192 199 192H7C4.79086 192 3 190.209 3 188V52Z" fill="white"/>
<rect width="198" height="24" transform="translate(4 60)" fill="white"/>
<path d="M28.203 76L27.306 73.972H22.327L21.43 76H20.325L24.264 67.069H25.369L29.308 76H28.203ZM22.743 73.01H26.89L24.823 68.317L22.743 73.01ZM30.6667 76V66.913H31.6417V76H30.6667ZM36.209 69.123C38.042 69.123 38.939 70.28 38.939 71.905V76H37.964V74.947C37.483 75.74 36.482 76.156 35.598 76.156C34.181 76.156 33.141 75.337 33.141 74.011C33.141 72.672 34.337 71.775 35.78 71.775C36.508 71.775 37.275 71.931 37.964 72.152V71.905C37.964 70.995 37.6 69.955 36.144 69.955C35.468 69.955 34.792 70.254 34.181 70.566L33.791 69.773C34.753 69.292 35.559 69.123 36.209 69.123ZM35.767 75.298C36.651 75.298 37.704 74.843 37.964 73.894V72.867C37.353 72.698 36.664 72.594 35.936 72.594C34.935 72.594 34.09 73.166 34.09 73.972C34.09 74.804 34.818 75.298 35.767 75.298ZM44.3594 69.123C46.1274 69.123 47.4534 70.579 47.4534 72.633C47.4534 74.7 46.1274 76.156 44.3594 76.156C43.2804 76.156 42.4224 75.623 41.9154 74.739V76H40.9404V66.913H41.9154V70.54C42.4224 69.656 43.2804 69.123 44.3594 69.123ZM44.1774 75.285C45.4904 75.285 46.4264 74.18 46.4264 72.633C46.4264 71.086 45.4904 69.994 44.1774 69.994C42.8514 69.994 41.9154 71.086 41.9154 72.633C41.9154 74.18 42.8514 75.285 44.1774 75.285ZM51.4973 69.123C53.3303 69.123 54.2273 70.28 54.2273 71.905V76H53.2523V74.947C52.7713 75.74 51.7703 76.156 50.8863 76.156C49.4693 76.156 48.4293 75.337 48.4293 74.011C48.4293 72.672 49.6253 71.775 51.0683 71.775C51.7963 71.775 52.5633 71.931 53.2523 72.152V71.905C53.2523 70.995 52.8883 69.955 51.4323 69.955C50.7563 69.955 50.0803 70.254 49.4693 70.566L49.0793 69.773C50.0413 69.292 50.8473 69.123 51.4973 69.123ZM51.0553 75.298C51.9393 75.298 52.9923 74.843 53.2523 73.894V72.867C52.6413 72.698 51.9523 72.594 51.2243 72.594C50.2233 72.594 49.3783 73.166 49.3783 73.972C49.3783 74.804 50.1063 75.298 51.0553 75.298ZM63.4957 69.123C64.8997 69.123 65.8877 70.202 65.8877 71.723V76H64.9127V71.853C64.9127 70.761 64.2757 69.994 63.3657 69.994C62.2997 69.994 61.5457 70.709 61.5457 71.723V76H60.5707V71.853C60.5707 70.761 59.9337 69.994 59.0237 69.994C57.9577 69.994 57.2037 70.709 57.2037 71.723V76H56.2287V69.279H57.2037V70.267C57.5417 69.565 58.2697 69.123 59.1537 69.123C60.2197 69.123 61.0517 69.747 61.3897 70.722C61.5977 69.773 62.4297 69.123 63.4957 69.123ZM70.3022 69.123C72.1352 69.123 73.0322 70.28 73.0322 71.905V76H72.0572V74.947C71.5762 75.74 70.5752 76.156 69.6912 76.156C68.2742 76.156 67.2342 75.337 67.2342 74.011C67.2342 72.672 68.4302 71.775 69.8732 71.775C70.6012 71.775 71.3682 71.931 72.0572 72.152V71.905C72.0572 70.995 71.6932 69.955 70.2372 69.955C69.5612 69.955 68.8852 70.254 68.2742 70.566L67.8842 69.773C68.8462 69.292 69.6522 69.123 70.3022 69.123ZM69.8602 75.298C70.7442 75.298 71.7972 74.843 72.0572 73.894V72.867C71.4462 72.698 70.7572 72.594 70.0292 72.594C69.0282 72.594 68.1832 73.166 68.1832 73.972C68.1832 74.804 68.9112 75.298 69.8602 75.298Z" fill="#3A4D55"/>
<rect width="198" height="24" transform="translate(4 84)" fill="white"/>
<path d="M28.203 100L27.306 97.972H22.327L21.43 100H20.325L24.264 91.069H25.369L29.308 100H28.203ZM22.743 97.01H26.89L24.823 92.317L22.743 97.01ZM30.6667 100V90.913H31.6417V100H30.6667ZM36.209 93.123C38.042 93.123 38.939 94.28 38.939 95.905V100H37.964V98.947C37.483 99.74 36.482 100.156 35.598 100.156C34.181 100.156 33.141 99.337 33.141 98.011C33.141 96.672 34.337 95.775 35.78 95.775C36.508 95.775 37.275 95.931 37.964 96.152V95.905C37.964 94.995 37.6 93.955 36.144 93.955C35.468 93.955 34.792 94.254 34.181 94.566L33.791 93.773C34.753 93.292 35.559 93.123 36.209 93.123ZM35.767 99.298C36.651 99.298 37.704 98.843 37.964 97.894V96.867C37.353 96.698 36.664 96.594 35.936 96.594C34.935 96.594 34.09 97.166 34.09 97.972C34.09 98.804 34.818 99.298 35.767 99.298ZM43.0204 100.156C42.0844 100.156 41.0444 99.805 40.2384 99.155L40.7454 98.44C41.5124 98.999 42.2794 99.285 43.0204 99.285C43.9044 99.285 44.5024 98.869 44.5024 98.232C44.5024 97.504 43.7224 97.27 42.8124 97.01C41.1874 96.542 40.5634 96.061 40.5634 95.099C40.5634 93.877 41.5774 93.123 42.9164 93.123C43.7484 93.123 44.6064 93.409 45.3214 93.877L44.8534 94.631C44.1774 94.202 43.5144 93.994 42.9164 93.994C42.1624 93.994 41.5384 94.332 41.5384 94.982C41.5384 95.567 42.0324 95.749 43.2804 96.152C44.3594 96.49 45.4774 96.854 45.4774 98.128C45.4774 99.363 44.4114 100.156 43.0204 100.156ZM47.0484 100V90.913H48.0234V96.997L51.7024 93.279H52.9504L49.9214 96.36L52.7814 100H51.5594L49.2324 97.023L48.0234 98.219V100H47.0484ZM56.4881 93.123C58.3211 93.123 59.2181 94.28 59.2181 95.905V100H58.2431V98.947C57.7621 99.74 56.7611 100.156 55.8771 100.156C54.4601 100.156 53.4201 99.337 53.4201 98.011C53.4201 96.672 54.6161 95.775 56.0591 95.775C56.7871 95.775 57.5541 95.931 58.2431 96.152V95.905C58.2431 94.995 57.8791 93.955 56.4231 93.955C55.7471 93.955 55.0711 94.254 54.4601 94.566L54.0701 93.773C55.0321 93.292 55.8381 93.123 56.4881 93.123ZM56.0461 99.298C56.9301 99.298 57.9831 98.843 58.2431 97.894V96.867C57.6321 96.698 56.9431 96.594 56.2151 96.594C55.2141 96.594 54.3691 97.166 54.3691 97.972C54.3691 98.804 55.0971 99.298 56.0461 99.298Z" fill="#3A4D55"/>
<rect width="198" height="24" transform="translate(4 108)" fill="white"/>
<path d="M25.304 124.156C22.834 124.156 20.728 122.037 20.728 119.528C20.728 117.019 22.834 114.913 25.304 114.913C26.539 114.913 27.683 115.433 28.515 116.278L27.826 116.98C27.176 116.291 26.279 115.849 25.304 115.849C23.38 115.849 21.755 117.539 21.755 119.528C21.755 121.53 23.38 123.22 25.304 123.22C26.279 123.22 27.176 122.778 27.826 122.089L28.515 122.791C27.683 123.623 26.539 124.156 25.304 124.156ZM32.437 117.123C34.27 117.123 35.167 118.28 35.167 119.905V124H34.192V122.947C33.711 123.74 32.71 124.156 31.826 124.156C30.409 124.156 29.369 123.337 29.369 122.011C29.369 120.672 30.565 119.775 32.008 119.775C32.736 119.775 33.503 119.931 34.192 120.152V119.905C34.192 118.995 33.828 117.955 32.372 117.955C31.696 117.955 31.02 118.254 30.409 118.566L30.019 117.773C30.981 117.292 31.787 117.123 32.437 117.123ZM31.995 123.298C32.879 123.298 33.932 122.843 34.192 121.894V120.867C33.581 120.698 32.892 120.594 32.164 120.594C31.163 120.594 30.318 121.166 30.318 121.972C30.318 122.804 31.046 123.298 31.995 123.298ZM37.1683 124V114.913H38.1433V124H37.1683ZM40.7996 116.057C40.4356 116.057 40.1496 115.758 40.1496 115.407C40.1496 115.069 40.4356 114.77 40.7996 114.77C41.1506 114.77 41.4366 115.069 41.4366 115.407C41.4366 115.758 41.1506 116.057 40.7996 116.057ZM40.3056 124V117.279H41.2806V124H40.3056ZM44.6519 116.356V117.279H46.3029V118.15H44.6519V124H43.6769V118.15H42.6239V117.279H43.6769V116.356C43.6769 115.355 44.3529 114.64 45.3149 114.64C45.7699 114.64 46.2119 114.796 46.5629 115.069L46.0819 115.784C45.9389 115.628 45.6789 115.511 45.3799 115.511C44.9899 115.511 44.6519 115.862 44.6519 116.356ZM50.3549 124.156C48.4439 124.156 46.8839 122.57 46.8839 120.633C46.8839 118.696 48.4439 117.123 50.3549 117.123C52.2529 117.123 53.8129 118.696 53.8129 120.633C53.8129 122.57 52.2529 124.156 50.3549 124.156ZM50.3549 123.285C51.6939 123.285 52.7989 122.089 52.7989 120.633C52.7989 119.177 51.6939 117.994 50.3549 117.994C49.0029 117.994 47.8979 119.177 47.8979 120.633C47.8979 122.089 49.0029 123.285 50.3549 123.285ZM56.3673 118.592C56.7703 117.695 57.7323 117.123 58.9673 117.123V117.994C57.4463 117.994 56.3673 118.93 56.3673 120.243V124H55.3923V117.279H56.3673V118.592ZM63.6316 117.123C65.1266 117.123 66.1536 118.176 66.1536 119.723V124H65.1786V119.853C65.1786 118.748 64.4896 117.994 63.5016 117.994C62.3576 117.994 61.4216 118.774 61.4216 119.723V124H60.4466V117.279H61.4216V118.345C61.8116 117.63 62.6696 117.123 63.6316 117.123ZM68.6482 116.057C68.2842 116.057 67.9982 115.758 67.9982 115.407C67.9982 115.069 68.2842 114.77 68.6482 114.77C68.9992 114.77 69.2852 115.069 69.2852 115.407C69.2852 115.758 68.9992 116.057 68.6482 116.057ZM68.1542 124V117.279H69.1292V124H68.1542ZM73.6965 117.123C75.5295 117.123 76.4265 118.28 76.4265 119.905V124H75.4515V122.947C74.9705 123.74 73.9695 124.156 73.0855 124.156C71.6685 124.156 70.6285 123.337 70.6285 122.011C70.6285 120.672 71.8245 119.775 73.2675 119.775C73.9955 119.775 74.7625 119.931 75.4515 120.152V119.905C75.4515 118.995 75.0875 117.955 73.6315 117.955C72.9555 117.955 72.2795 118.254 71.6685 118.566L71.2785 117.773C72.2405 117.292 73.0465 117.123 73.6965 117.123ZM73.2545 123.298C74.1385 123.298 75.1915 122.843 75.4515 121.894V120.867C74.8405 120.698 74.1515 120.594 73.4235 120.594C72.4225 120.594 71.5775 121.166 71.5775 121.972C71.5775 122.804 72.3055 123.298 73.2545 123.298Z" fill="#3A4D55"/>
<rect width="198" height="24" transform="translate(4 132)" fill="white"/>
<path d="M21.417 148V139.069H22.431L25.746 145.296L29.061 139.069H30.075V148H29.061V141.253L25.746 147.48L22.431 141.253V148H21.417ZM34.9253 141.123C36.7583 141.123 37.6553 142.28 37.6553 143.905V148H36.6803V146.947C36.1993 147.74 35.1983 148.156 34.3143 148.156C32.8973 148.156 31.8573 147.337 31.8573 146.011C31.8573 144.672 33.0533 143.775 34.4963 143.775C35.2243 143.775 35.9913 143.931 36.6803 144.152V143.905C36.6803 142.995 36.3163 141.955 34.8603 141.955C34.1843 141.955 33.5083 142.254 32.8973 142.566L32.5073 141.773C33.4693 141.292 34.2753 141.123 34.9253 141.123ZM34.4833 147.298C35.3673 147.298 36.4203 146.843 36.6803 145.894V144.867C36.0693 144.698 35.3803 144.594 34.6523 144.594C33.6513 144.594 32.8063 145.166 32.8063 145.972C32.8063 146.804 33.5343 147.298 34.4833 147.298ZM41.7366 148.156C40.8006 148.156 39.7606 147.805 38.9546 147.155L39.4616 146.44C40.2286 146.999 40.9956 147.285 41.7366 147.285C42.6206 147.285 43.2186 146.869 43.2186 146.232C43.2186 145.504 42.4386 145.27 41.5286 145.01C39.9036 144.542 39.2796 144.061 39.2796 143.099C39.2796 141.877 40.2936 141.123 41.6326 141.123C42.4646 141.123 43.3226 141.409 44.0376 141.877L43.5696 142.631C42.8936 142.202 42.2306 141.994 41.6326 141.994C40.8786 141.994 40.2546 142.332 40.2546 142.982C40.2546 143.567 40.7486 143.749 41.9966 144.152C43.0756 144.49 44.1936 144.854 44.1936 146.128C44.1936 147.363 43.1276 148.156 41.7366 148.156ZM46.7396 142.592C47.1426 141.695 48.1046 141.123 49.3396 141.123V141.994C47.8186 141.994 46.7396 142.93 46.7396 144.243V148H45.7646V141.279H46.7396V142.592ZM54.0039 141.123C55.4989 141.123 56.5259 142.176 56.5259 143.723V148H55.5509V143.853C55.5509 142.748 54.8619 141.994 53.8739 141.994C52.7299 141.994 51.7939 142.774 51.7939 143.723V148H50.8189V138.913H51.7939V142.345C52.1839 141.63 53.0419 141.123 54.0039 141.123ZM60.9315 141.123C62.7645 141.123 63.6615 142.28 63.6615 143.905V148H62.6865V146.947C62.2055 147.74 61.2045 148.156 60.3205 148.156C58.9035 148.156 57.8635 147.337 57.8635 146.011C57.8635 144.672 59.0595 143.775 60.5025 143.775C61.2305 143.775 61.9975 143.931 62.6865 144.152V143.905C62.6865 142.995 62.3225 141.955 60.8665 141.955C60.1905 141.955 59.5145 142.254 58.9035 142.566L58.5135 141.773C59.4755 141.292 60.2815 141.123 60.9315 141.123ZM60.4895 147.298C61.3735 147.298 62.4265 146.843 62.6865 145.894V144.867C62.0755 144.698 61.3865 144.594 60.6585 144.594C59.6575 144.594 58.8125 145.166 58.8125 145.972C58.8125 146.804 59.5405 147.298 60.4895 147.298ZM65.6628 148V138.913H66.6378V148H65.6628ZM68.8001 148V138.913H69.7751V148H68.8001ZM75.7035 148V139.069H76.7175V148H75.7035ZM81.2442 148.156C80.3082 148.156 79.2682 147.805 78.4622 147.155L78.9692 146.44C79.7362 146.999 80.5032 147.285 81.2442 147.285C82.1282 147.285 82.7262 146.869 82.7262 146.232C82.7262 145.504 81.9462 145.27 81.0362 145.01C79.4112 144.542 78.7872 144.061 78.7872 143.099C78.7872 141.877 79.8012 141.123 81.1402 141.123C81.9722 141.123 82.8302 141.409 83.5452 141.877L83.0772 142.631C82.4012 142.202 81.7382 141.994 81.1402 141.994C80.3862 141.994 79.7622 142.332 79.7622 142.982C79.7622 143.567 80.2562 143.749 81.5042 144.152C82.5832 144.49 83.7012 144.854 83.7012 146.128C83.7012 147.363 82.6352 148.156 81.2442 148.156ZM85.2722 148V138.913H86.2472V148H85.2722ZM90.8145 141.123C92.6475 141.123 93.5445 142.28 93.5445 143.905V148H92.5695V146.947C92.0885 147.74 91.0875 148.156 90.2035 148.156C88.7865 148.156 87.7465 147.337 87.7465 146.011C87.7465 144.672 88.9425 143.775 90.3855 143.775C91.1135 143.775 91.8805 143.931 92.5695 144.152V143.905C92.5695 142.995 92.2055 141.955 90.7495 141.955C90.0735 141.955 89.3975 142.254 88.7865 142.566L88.3965 141.773C89.3585 141.292 90.1645 141.123 90.8145 141.123ZM90.3725 147.298C91.2565 147.298 92.3095 146.843 92.5695 145.894V144.867C91.9585 144.698 91.2695 144.594 90.5415 144.594C89.5405 144.594 88.6955 145.166 88.6955 145.972C88.6955 146.804 89.4235 147.298 90.3725 147.298ZM98.7308 141.123C100.226 141.123 101.253 142.176 101.253 143.723V148H100.278V143.853C100.278 142.748 99.5888 141.994 98.6008 141.994C97.4568 141.994 96.5208 142.774 96.5208 143.723V148H95.5458V141.279H96.5208V142.345C96.9108 141.63 97.7688 141.123 98.7308 141.123ZM108.271 138.913H109.246V148H108.271V146.739C107.764 147.623 106.906 148.156 105.827 148.156C104.059 148.156 102.733 146.7 102.733 144.633C102.733 142.579 104.059 141.123 105.827 141.123C106.906 141.123 107.764 141.656 108.271 142.54V138.913ZM106.009 147.285C107.335 147.285 108.271 146.18 108.271 144.633C108.271 143.086 107.335 141.994 106.009 141.994C104.696 141.994 103.76 143.086 103.76 144.633C103.76 146.18 104.696 147.285 106.009 147.285Z" fill="#3A4D55"/>
<rect width="198" height="24" transform="translate(4 156)" fill="white"/>
<path d="M21.417 172V163.069H25.044C26.89 163.069 28.333 164.252 28.333 165.929C28.333 167.606 26.89 168.789 25.044 168.789H22.431V172H21.417ZM22.431 167.827H24.862C26.318 167.827 27.306 167.125 27.306 165.929C27.306 164.733 26.318 164.031 24.862 164.031H22.431V167.827ZM32.3354 165.123C34.1684 165.123 35.0654 166.28 35.0654 167.905V172H34.0904V170.947C33.6094 171.74 32.6084 172.156 31.7244 172.156C30.3074 172.156 29.2674 171.337 29.2674 170.011C29.2674 168.672 30.4634 167.775 31.9064 167.775C32.6344 167.775 33.4014 167.931 34.0904 168.152V167.905C34.0904 166.995 33.7264 165.955 32.2704 165.955C31.5944 165.955 30.9184 166.254 30.3074 166.566L29.9174 165.773C30.8794 165.292 31.6854 165.123 32.3354 165.123ZM31.8934 171.298C32.7774 171.298 33.8304 170.843 34.0904 169.894V168.867C33.4794 168.698 32.7904 168.594 32.0624 168.594C31.0614 168.594 30.2164 169.166 30.2164 169.972C30.2164 170.804 30.9444 171.298 31.8934 171.298ZM37.0667 172V162.913H38.0417V172H37.0667ZM42.609 165.123C44.442 165.123 45.339 166.28 45.339 167.905V172H44.364V170.947C43.883 171.74 42.882 172.156 41.998 172.156C40.581 172.156 39.541 171.337 39.541 170.011C39.541 168.672 40.737 167.775 42.18 167.775C42.908 167.775 43.675 167.931 44.364 168.152V167.905C44.364 166.995 44 165.955 42.544 165.955C41.868 165.955 41.192 166.254 40.581 166.566L40.191 165.773C41.153 165.292 41.959 165.123 42.609 165.123ZM42.167 171.298C43.051 171.298 44.104 170.843 44.364 169.894V168.867C43.753 168.698 43.064 168.594 42.336 168.594C41.335 168.594 40.49 169.166 40.49 169.972C40.49 170.804 41.218 171.298 42.167 171.298ZM51.9164 165.279H52.8914V172H51.9164V170.934C51.5264 171.649 50.6684 172.156 49.7064 172.156C48.2114 172.156 47.1844 171.103 47.1844 169.556V165.279H48.1594V169.426C48.1594 170.531 48.8484 171.285 49.8364 171.285C50.9804 171.285 51.9164 170.505 51.9164 169.556V165.279Z" fill="#3A4D55"/>
<path d="M7 48.5H199C200.933 48.5 202.5 50.067 202.5 52V188C202.5 189.933 200.933 191.5 199 191.5H7C5.067 191.5 3.5 189.933 3.5 188V52C3.5 50.067 5.067 48.5 7 48.5Z" stroke="#CBD4D8"/>
</g>
<defs>
<filter id="filter0_d_9324_47654" x="0" y="46" width="206" height="150" filterUnits="userSpaceOnUse" color-interpolation-filters="sRGB">
<feFlood flood-opacity="0" result="BackgroundImageFix"/>
<feColorMatrix in="SourceAlpha" type="matrix" values="0 0 0 0 0 0 0 0 0 0 0 0 0 0 0 0 0 0 127 0" result="hardAlpha"/>
<feOffset dy="1"/>
<feGaussianBlur stdDeviation="1.5"/>
<feColorMatrix type="matrix" values="0 0 0 0 0.105 0 0 0 0 0.168 0 0 0 0 0.195 0 0 0 0.2 0"/>
<feBlend mode="normal" in2="BackgroundImageFix" result="effect1_dropShadow_9324_47654"/>
<feBlend mode="normal" in="SourceGraphic" in2="effect1_dropShadow_9324_47654" result="shape"/>
</filter>
</defs>
</svg>
