<svg width="118" height="96" viewBox="0 0 118 96" fill="none" xmlns="http://www.w3.org/2000/svg">
<path d="M8.329 12.143C6.808 12.143 5.495 11.623 4.507 10.7L5.456 9.543C6.275 10.284 7.224 10.752 8.394 10.752C9.486 10.752 10.058 10.206 10.058 9.569C10.058 8.828 9.421 8.581 7.991 8.243C6.145 7.814 4.871 7.281 4.871 5.604C4.871 4.044 6.197 2.913 8.069 2.913C9.486 2.913 10.565 3.394 11.449 4.161L10.565 5.344C9.798 4.681 8.901 4.304 8.017 4.304C7.107 4.304 6.509 4.837 6.509 5.461C6.509 6.189 7.159 6.449 8.576 6.774C10.435 7.19 11.683 7.788 11.683 9.413C11.683 11.012 10.474 12.143 8.329 12.143ZM16.168 10.882C16.844 10.882 17.611 10.596 18.04 10.18L18.95 11.116C18.365 11.74 17.195 12.156 16.22 12.156C14.283 12.156 12.684 10.687 12.684 8.62C12.684 6.592 14.205 5.123 16.129 5.123C18.209 5.123 19.431 6.657 19.431 9.101H14.218C14.387 10.154 15.128 10.882 16.168 10.882ZM16.142 6.397C15.18 6.397 14.439 7.047 14.231 8.048H17.897C17.754 7.099 17.156 6.397 16.142 6.397ZM20.746 12V2.913H22.332V12H20.746ZM27.2034 10.882C27.8794 10.882 28.6464 10.596 29.0754 10.18L29.9854 11.116C29.4004 11.74 28.2304 12.156 27.2554 12.156C25.3184 12.156 23.7194 10.687 23.7194 8.62C23.7194 6.592 25.2404 5.123 27.1644 5.123C29.2444 5.123 30.4664 6.657 30.4664 9.101H25.2534C25.4224 10.154 26.1634 10.882 27.2034 10.882ZM27.1774 6.397C26.2154 6.397 25.4744 7.047 25.2664 8.048H28.9324C28.7894 7.099 28.1914 6.397 27.1774 6.397ZM34.8624 12.156C32.9124 12.156 31.2614 10.544 31.2614 8.633C31.2614 6.722 32.9124 5.123 34.8754 5.123C35.9024 5.123 36.7864 5.552 37.4234 6.215L36.3574 7.151C35.9934 6.748 35.4344 6.475 34.8624 6.475C33.7574 6.475 32.8344 7.463 32.8344 8.633C32.8344 9.816 33.7574 10.804 34.8624 10.804C35.4474 10.804 36.0194 10.531 36.3964 10.102L37.4624 11.025C36.8124 11.714 35.9154 12.156 34.8624 12.156ZM41.7717 10.557L42.2267 11.623C41.8497 11.948 41.3037 12.156 40.7837 12.156C39.6787 12.156 38.8987 11.35 38.8987 10.219V6.592H37.9237V5.279H38.8987V3.433H40.4327V5.279H41.9537V6.592H40.4327V10.024C40.4327 10.479 40.7317 10.804 41.1087 10.804C41.3817 10.804 41.6287 10.7 41.7717 10.557ZM49.2078 12.156C48.1808 12.156 47.0758 11.792 46.2568 11.155L46.9328 10.115C47.6608 10.635 48.5058 10.934 49.2338 10.934C49.9488 10.934 50.3778 10.635 50.3778 10.167C50.3778 9.634 49.7538 9.452 48.9608 9.244C47.4918 8.854 46.5688 8.451 46.5688 7.229C46.5688 5.981 47.6088 5.123 49.1038 5.123C50.0268 5.123 50.9368 5.448 51.6778 5.929L51.0538 6.995C50.4298 6.592 49.7278 6.332 49.1038 6.332C48.5188 6.332 48.0508 6.605 48.0508 7.073C48.0508 7.515 48.4668 7.632 49.4808 7.944C50.6248 8.256 51.8468 8.633 51.8468 10.024C51.8468 11.324 50.7678 12.156 49.2078 12.156ZM53.9976 4.265C53.4906 4.265 53.0876 3.836 53.0876 3.355C53.0876 2.874 53.4906 2.458 53.9976 2.458C54.4916 2.458 54.8946 2.874 54.8946 3.355C54.8946 3.836 54.4916 4.265 53.9976 4.265ZM53.2046 12V5.279H54.7906V12H53.2046ZM56.139 12V10.843L59.714 6.67H56.217V5.279H61.794V6.436L58.219 10.609H61.82V12H56.139ZM66.1762 10.882C66.8522 10.882 67.6192 10.596 68.0482 10.18L68.9582 11.116C68.3732 11.74 67.2032 12.156 66.2282 12.156C64.2912 12.156 62.6922 10.687 62.6922 8.62C62.6922 6.592 64.2132 5.123 66.1372 5.123C68.2172 5.123 69.4392 6.657 69.4392 9.101H64.2262C64.3952 10.154 65.1362 10.882 66.1762 10.882ZM66.1502 6.397C65.1882 6.397 64.4472 7.047 64.2392 8.048H67.9052C67.7622 7.099 67.1642 6.397 66.1502 6.397Z" fill="#E3EAED"/>
<path d="M19.5 36C19.5 40.1421 16.1421 43.5 12 43.5C7.85786 43.5 4.5 40.1421 4.5 36C4.5 31.8579 7.85786 28.5 12 28.5C16.1421 28.5 19.5 31.8579 19.5 36Z" fill="#1B2B32" stroke="#CBD4D8"/>
<path d="M32.121 40.143C30.652 40.143 29.495 39.61 28.598 38.726L29.235 37.933C29.989 38.687 30.912 39.22 32.16 39.22C33.538 39.22 34.24 38.466 34.24 37.66C34.24 36.711 33.395 36.334 31.835 35.97C30.041 35.554 28.91 34.995 28.91 33.448C28.91 32.018 30.184 30.913 31.9 30.913C33.226 30.913 34.214 31.433 35.033 32.187L34.409 32.98C33.668 32.265 32.784 31.836 31.848 31.836C30.743 31.836 29.937 32.551 29.937 33.37C29.937 34.293 30.821 34.618 32.342 34.982C34.045 35.385 35.267 35.996 35.267 37.569C35.267 38.986 34.201 40.143 32.121 40.143ZM44.258 33.123C45.662 33.123 46.65 34.202 46.65 35.723V40H45.675V35.853C45.675 34.761 45.038 33.994 44.128 33.994C43.062 33.994 42.308 34.709 42.308 35.723V40H41.333V35.853C41.333 34.761 40.696 33.994 39.786 33.994C38.72 33.994 37.966 34.709 37.966 35.723V40H36.991V33.279H37.966V34.267C38.304 33.565 39.032 33.123 39.916 33.123C40.982 33.123 41.814 33.747 42.152 34.722C42.36 33.773 43.192 33.123 44.258 33.123ZM51.0645 33.123C52.8975 33.123 53.7945 34.28 53.7945 35.905V40H52.8195V38.947C52.3385 39.74 51.3375 40.156 50.4535 40.156C49.0365 40.156 47.9965 39.337 47.9965 38.011C47.9965 36.672 49.1925 35.775 50.6355 35.775C51.3635 35.775 52.1305 35.931 52.8195 36.152V35.905C52.8195 34.995 52.4555 33.955 50.9995 33.955C50.3235 33.955 49.6475 34.254 49.0365 34.566L48.6465 33.773C49.6085 33.292 50.4145 33.123 51.0645 33.123ZM50.6225 39.298C51.5065 39.298 52.5595 38.843 52.8195 37.894V36.867C52.2085 36.698 51.5195 36.594 50.7915 36.594C49.7905 36.594 48.9455 37.166 48.9455 37.972C48.9455 38.804 49.6735 39.298 50.6225 39.298ZM55.7958 40V30.913H56.7708V40H55.7958ZM58.9331 40V30.913H59.9081V40H58.9331Z" fill="#E3EAED"/>
<path fill-rule="evenodd" clip-rule="evenodd" d="M12 52C7.58172 52 4 55.5817 4 60C4 64.4183 7.58172 68 12 68C16.4183 68 20 64.4183 20 60C20 57.8783 19.1571 55.8434 17.6569 54.3431C16.1566 52.8429 14.1217 52 12 52ZM12 66.6667C8.3181 66.6667 5.33333 63.6819 5.33333 60C5.33333 56.3181 8.3181 53.3333 12 53.3333C15.6819 53.3333 18.6667 56.3181 18.6667 60C18.6667 61.7681 17.9643 63.4638 16.714 64.714C15.4638 65.9643 13.7681 66.6667 12 66.6667ZM7.56 60.4933L10.8933 63.8267L16.3533 58.3667C16.5799 58.1022 16.5646 57.7079 16.3184 57.4616C16.0721 57.2154 15.6778 57.2001 15.4133 57.4267L10.8933 61.9467L8.5 59.5533C8.23549 59.3268 7.8412 59.342 7.59496 59.5883C7.34871 59.8345 7.33348 60.2288 7.56 60.4933Z" fill="#67CA16"/>
<path d="M19.5 60C19.5 64.1421 16.1421 67.5 12 67.5C7.85786 67.5 4.5 64.1421 4.5 60C4.5 55.8579 7.85786 52.5 12 52.5C16.1421 52.5 19.5 55.8579 19.5 60Z" fill="#1B2B32" stroke="#CBD4D8"/>
<path d="M36.333 57.929C36.333 59.45 35.15 60.568 33.551 60.763L35.826 64H34.669L32.407 60.789H30.431V64H29.417V55.069H33.044C34.89 55.069 36.333 56.252 36.333 57.929ZM30.431 56.031V59.827H32.862C34.318 59.827 35.306 59.125 35.306 57.929C35.306 56.733 34.318 56.031 32.862 56.031H30.431ZM40.4116 57.123C42.2446 57.123 43.1416 58.28 43.1416 59.905V64H42.1666V62.947C41.6856 63.74 40.6846 64.156 39.8006 64.156C38.3836 64.156 37.3436 63.337 37.3436 62.011C37.3436 60.672 38.5396 59.775 39.9826 59.775C40.7106 59.775 41.4776 59.931 42.1666 60.152V59.905C42.1666 58.995 41.8026 57.955 40.3466 57.955C39.6706 57.955 38.9946 58.254 38.3836 58.566L37.9936 57.773C38.9556 57.292 39.7616 57.123 40.4116 57.123ZM39.9696 63.298C40.8536 63.298 41.9066 62.843 42.1666 61.894V60.867C41.5556 60.698 40.8666 60.594 40.1386 60.594C39.1376 60.594 38.2926 61.166 38.2926 61.972C38.2926 62.804 39.0206 63.298 39.9696 63.298ZM50.1609 54.913H51.1359V64H50.1609V62.739C49.6539 63.623 48.7959 64.156 47.7169 64.156C45.9489 64.156 44.6229 62.7 44.6229 60.633C44.6229 58.579 45.9489 57.123 47.7169 57.123C48.7959 57.123 49.6539 57.656 50.1609 58.54V54.913ZM47.8989 63.285C49.2249 63.285 50.1609 62.18 50.1609 60.633C50.1609 59.086 49.2249 57.994 47.8989 57.994C46.5859 57.994 45.6499 59.086 45.6499 60.633C45.6499 62.18 46.5859 63.285 47.8989 63.285ZM53.7889 56.057C53.4249 56.057 53.1389 55.758 53.1389 55.407C53.1389 55.069 53.4249 54.77 53.7889 54.77C54.1399 54.77 54.4259 55.069 54.4259 55.407C54.4259 55.758 54.1399 56.057 53.7889 56.057ZM53.2949 64V57.279H54.2699V64H53.2949ZM59.3182 64.156C57.4072 64.156 55.8472 62.57 55.8472 60.633C55.8472 58.696 57.4072 57.123 59.3182 57.123C61.2162 57.123 62.7762 58.696 62.7762 60.633C62.7762 62.57 61.2162 64.156 59.3182 64.156ZM59.3182 63.285C60.6572 63.285 61.7622 62.089 61.7622 60.633C61.7622 59.177 60.6572 57.994 59.3182 57.994C57.9662 57.994 56.8612 59.177 56.8612 60.633C56.8612 62.089 57.9662 63.285 59.3182 63.285ZM67.8357 64V54.913H68.8107V64H67.8357ZM73.378 57.123C75.211 57.123 76.108 58.28 76.108 59.905V64H75.133V62.947C74.652 63.74 73.651 64.156 72.767 64.156C71.35 64.156 70.31 63.337 70.31 62.011C70.31 60.672 71.506 59.775 72.949 59.775C73.677 59.775 74.444 59.931 75.133 60.152V59.905C75.133 58.995 74.769 57.955 73.313 57.955C72.637 57.955 71.961 58.254 71.35 58.566L70.96 57.773C71.922 57.292 72.728 57.123 73.378 57.123ZM72.936 63.298C73.82 63.298 74.873 62.843 75.133 61.894V60.867C74.522 60.698 73.833 60.594 73.105 60.594C72.104 60.594 71.259 61.166 71.259 61.972C71.259 62.804 71.987 63.298 72.936 63.298ZM81.5283 57.123C83.2963 57.123 84.6223 58.579 84.6223 60.633C84.6223 62.7 83.2963 64.156 81.5283 64.156C80.4493 64.156 79.5913 63.623 79.0843 62.739V64H78.1093V54.913H79.0843V58.54C79.5913 57.656 80.4493 57.123 81.5283 57.123ZM81.3463 63.285C82.6593 63.285 83.5953 62.18 83.5953 60.633C83.5953 59.086 82.6593 57.994 81.3463 57.994C80.0203 57.994 79.0843 59.086 79.0843 60.633C79.0843 62.18 80.0203 63.285 81.3463 63.285ZM89.0953 63.285C89.8883 63.285 90.7983 62.934 91.2143 62.479L91.8123 63.116C91.2273 63.753 90.0443 64.156 89.1083 64.156C87.3143 64.156 85.7023 62.687 85.7023 60.62C85.7023 58.618 87.2103 57.123 89.0173 57.123C91.0453 57.123 92.2023 58.657 92.2023 61.01H86.7033C86.8463 62.323 87.7693 63.285 89.0953 63.285ZM89.0563 57.994C87.8603 57.994 86.8983 58.839 86.7163 60.139H91.2403C91.1103 58.93 90.3953 57.994 89.0563 57.994ZM93.7404 64V54.913H94.7154V64H93.7404Z" fill="#E3EAED"/>
<path d="M32.488 87.132C30.398 87.132 28.616 85.339 28.616 83.216C28.616 81.093 30.398 79.311 32.488 79.311C33.533 79.311 34.501 79.751 35.205 80.466L34.622 81.06C34.072 80.477 33.313 80.103 32.488 80.103C30.86 80.103 29.485 81.533 29.485 83.216C29.485 84.91 30.86 86.34 32.488 86.34C33.313 86.34 34.072 85.966 34.622 85.383L35.205 85.977C34.501 86.681 33.533 87.132 32.488 87.132ZM39.4682 81.181C40.7332 81.181 41.6022 82.072 41.6022 83.381V87H40.7772V83.491C40.7772 82.556 40.1942 81.918 39.3582 81.918C38.3902 81.918 37.5982 82.578 37.5982 83.381V87H36.7732V79.311H37.5982V82.215C37.9282 81.61 38.6542 81.181 39.4682 81.181ZM45.6147 81.181C47.1657 81.181 47.9247 82.16 47.9247 83.535V87H47.0997V86.109C46.6927 86.78 45.8457 87.132 45.0977 87.132C43.8987 87.132 43.0187 86.439 43.0187 85.317C43.0187 84.184 44.0307 83.425 45.2517 83.425C45.8677 83.425 46.5167 83.557 47.0997 83.744V83.535C47.0997 82.765 46.7917 81.885 45.5597 81.885C44.9877 81.885 44.4157 82.138 43.8987 82.402L43.5687 81.731C44.3827 81.324 45.0647 81.181 45.6147 81.181ZM45.2407 86.406C45.9887 86.406 46.8797 86.021 47.0997 85.218V84.349C46.5827 84.206 45.9997 84.118 45.3837 84.118C44.5367 84.118 43.8217 84.602 43.8217 85.284C43.8217 85.988 44.4377 86.406 45.2407 86.406ZM52.5977 81.181C53.8627 81.181 54.7317 82.072 54.7317 83.381V87H53.9067V83.491C53.9067 82.556 53.3237 81.918 52.4877 81.918C51.5197 81.918 50.7277 82.578 50.7277 83.381V87H49.9027V81.313H50.7277V82.215C51.0577 81.61 51.7837 81.181 52.5977 81.181ZM60.9001 81.313H61.7251V86.395C61.7251 87.858 60.5701 88.892 58.9311 88.892C58.0071 88.892 57.1491 88.573 56.6321 88.133L56.9951 87.484C57.4351 87.902 58.1171 88.155 58.8211 88.155C60.1301 88.155 60.9001 87.506 60.9001 86.395V85.471C60.4601 86.164 59.7341 86.582 58.8321 86.582C57.3031 86.582 56.2141 85.46 56.2141 83.876C56.2141 82.292 57.3031 81.181 58.8321 81.181C59.7341 81.181 60.4601 81.599 60.9001 82.292V81.313ZM58.9861 85.845C60.1081 85.845 60.9001 85.031 60.9001 83.876C60.9001 82.732 60.1081 81.918 58.9861 81.918C57.8751 81.918 57.0831 82.732 57.0831 83.876C57.0831 85.031 57.8751 85.845 58.9861 85.845ZM66.2359 86.395C66.9069 86.395 67.6769 86.098 68.0289 85.713L68.5349 86.252C68.0399 86.791 67.0389 87.132 66.2469 87.132C64.7289 87.132 63.3649 85.889 63.3649 84.14C63.3649 82.446 64.6409 81.181 66.1699 81.181C67.8859 81.181 68.8649 82.479 68.8649 84.47H64.2119C64.3329 85.581 65.1139 86.395 66.2359 86.395ZM66.2029 81.918C65.1909 81.918 64.3769 82.633 64.2229 83.733H68.0509C67.9409 82.71 67.3359 81.918 66.2029 81.918ZM72.2109 87.132C71.4189 87.132 70.5389 86.835 69.8569 86.285L70.2859 85.68C70.9349 86.153 71.5839 86.395 72.2109 86.395C72.9589 86.395 73.4649 86.043 73.4649 85.504C73.4649 84.888 72.8049 84.69 72.0349 84.47C70.6599 84.074 70.1319 83.667 70.1319 82.853C70.1319 81.819 70.9899 81.181 72.1229 81.181C72.8269 81.181 73.5529 81.423 74.1579 81.819L73.7619 82.457C73.1899 82.094 72.6289 81.918 72.1229 81.918C71.4849 81.918 70.9569 82.204 70.9569 82.754C70.9569 83.249 71.3749 83.403 72.4309 83.744C73.3439 84.03 74.2899 84.338 74.2899 85.416C74.2899 86.461 73.3879 87.132 72.2109 87.132ZM80.8932 87.132C80.1012 87.132 79.2212 86.835 78.5392 86.285L78.9682 85.68C79.6172 86.153 80.2662 86.395 80.8932 86.395C81.6412 86.395 82.1472 86.043 82.1472 85.504C82.1472 84.888 81.4872 84.69 80.7172 84.47C79.3422 84.074 78.8142 83.667 78.8142 82.853C78.8142 81.819 79.6722 81.181 80.8052 81.181C81.5092 81.181 82.2352 81.423 82.8402 81.819L82.4442 82.457C81.8722 82.094 81.3112 81.918 80.8052 81.918C80.1672 81.918 79.6392 82.204 79.6392 82.754C79.6392 83.249 80.0572 83.403 81.1132 83.744C82.0262 84.03 82.9722 84.338 82.9722 85.416C82.9722 86.461 82.0702 87.132 80.8932 87.132ZM86.6211 81.181C88.1721 81.181 88.9311 82.16 88.9311 83.535V87H88.1061V86.109C87.6991 86.78 86.8521 87.132 86.1041 87.132C84.9051 87.132 84.0251 86.439 84.0251 85.317C84.0251 84.184 85.0371 83.425 86.2581 83.425C86.8741 83.425 87.5231 83.557 88.1061 83.744V83.535C88.1061 82.765 87.7981 81.885 86.5661 81.885C85.9941 81.885 85.4221 82.138 84.9051 82.402L84.5751 81.731C85.3891 81.324 86.0711 81.181 86.6211 81.181ZM86.2471 86.406C86.9951 86.406 87.8861 86.021 88.1061 85.218V84.349C87.5891 84.206 87.0061 84.118 86.3901 84.118C85.5431 84.118 84.8281 84.602 84.8281 85.284C84.8281 85.988 85.4441 86.406 86.2471 86.406ZM92.4821 87L90.0621 81.313H90.9861L92.8781 86.032L94.7371 81.313H95.6611L93.2741 87H92.4821ZM99.3294 86.395C100 86.395 100.77 86.098 101.122 85.713L101.628 86.252C101.133 86.791 100.132 87.132 99.3404 87.132C97.8224 87.132 96.4584 85.889 96.4584 84.14C96.4584 82.446 97.7344 81.181 99.2634 81.181C100.979 81.181 101.958 82.479 101.958 84.47H97.3054C97.4264 85.581 98.2074 86.395 99.3294 86.395ZM99.2964 81.918C98.2844 81.918 97.4704 82.633 97.3164 83.733H101.144C101.034 82.71 100.429 81.918 99.2964 81.918ZM107.791 79.311H108.616V87H107.791V85.933C107.362 86.681 106.636 87.132 105.723 87.132C104.227 87.132 103.105 85.9 103.105 84.151C103.105 82.413 104.227 81.181 105.723 81.181C106.636 81.181 107.362 81.632 107.791 82.38V79.311ZM105.877 86.395C106.999 86.395 107.791 85.46 107.791 84.151C107.791 82.842 106.999 81.918 105.877 81.918C104.766 81.918 103.974 82.842 103.974 84.151C103.974 85.46 104.766 86.395 105.877 86.395Z" fill="#67CA16"/>
<path fill-rule="evenodd" clip-rule="evenodd" d="M12 76C7.58172 76 4 79.5817 4 84C4 88.4183 7.58172 92 12 92C16.4183 92 20 88.4183 20 84C20 81.8783 19.1571 79.8434 17.6569 78.3431C16.1566 76.8429 14.1217 76 12 76ZM12 90.6667C8.3181 90.6667 5.33333 87.6819 5.33333 84C5.33333 80.3181 8.3181 77.3333 12 77.3333C15.6819 77.3333 18.6667 80.3181 18.6667 84C18.6667 85.7681 17.9643 87.4638 16.714 88.714C15.4638 89.9643 13.7681 90.6667 12 90.6667ZM7.56 84.4933L10.8933 87.8267L16.3533 82.3667C16.5799 82.1022 16.5646 81.7079 16.3184 81.4616C16.0721 81.2154 15.6778 81.2001 15.4133 81.4267L10.8933 85.9467L8.5 83.5533C8.23549 83.3268 7.8412 83.342 7.59496 83.5883C7.34871 83.8345 7.33348 84.2288 7.56 84.4933Z" fill="#67CA16"/>
</svg>
