<svg width="271" height="286" viewBox="0 0 271 286" fill="none" xmlns="http://www.w3.org/2000/svg">
<rect x="0.5" y="0.5" width="270" height="285" fill="white"/>
<rect x="75" y="48.5" width="61" height="4" rx="2" fill="#ACB9BE"/>
<rect x="75" y="60.5" width="47" height="4" rx="2" fill="#E3EAED"/>
<rect x="75.25" y="68.75" width="120.5" height="0.5" stroke="#67777E" stroke-width="0.5"/>
<rect x="75" y="81.5" width="34" height="4" rx="2" fill="#ACB9BE"/>
<rect x="75" y="93.5" width="55" height="4" rx="2" fill="#E3EAED"/>
<rect x="75.25" y="101.75" width="99.5" height="0.5" stroke="#67777E" stroke-width="0.5"/>
<rect x="75" y="114.5" width="61" height="4" rx="2" fill="#ACB9BE"/>
<rect x="75" y="126.5" width="55" height="4" rx="2" fill="#E3EAED"/>
<rect x="75.25" y="134.75" width="98.5" height="0.5" stroke="#67777E" stroke-width="0.5"/>
<rect x="75" y="183.5" width="61" height="4" rx="2" fill="#ACB9BE"/>
<rect x="75" y="195.5" width="47" height="4" rx="2" fill="#E3EAED"/>
<rect x="75.25" y="203.75" width="120.5" height="0.5" stroke="#67777E" stroke-width="0.5"/>
<rect x="75" y="216.5" width="34" height="4" rx="2" fill="#ACB9BE"/>
<rect x="75" y="228.5" width="55" height="4" rx="2" fill="#E3EAED"/>
<rect x="75.25" y="236.75" width="99.5" height="0.5" stroke="#67777E" stroke-width="0.5"/>
<rect x="0.5" y="0.5" width="270" height="285" stroke="#DEDEDE"/>
</svg>
