<svg width="452" height="289" viewBox="0 0 452 289" fill="none" xmlns="http://www.w3.org/2000/svg">
<g clip-path="url(#clip0_9967_2180)">
<rect y="0.5" width="452" height="288" fill="#FCFDFD"/>
<mask id="mask0_9967_2180" style="mask-type:luminance" maskUnits="userSpaceOnUse" x="0" y="0" width="452" height="289">
<path d="M0 4.5C0 2.29086 1.79086 0.5 4 0.5H448C450.209 0.5 452 2.29086 452 4.5V288.5H0V4.5Z" fill="white"/>
</mask>
<g mask="url(#mask0_9967_2180)">
<path d="M0 4.5C0 2.29086 1.79086 0.5 4 0.5H448C450.209 0.5 452 2.29086 452 4.5V288.5H0V4.5Z" fill="white"/>
<mask id="mask1_9967_2180" style="mask-type:luminance" maskUnits="userSpaceOnUse" x="0" y="0" width="452" height="306">
<path d="M452 0.5H0V305.5H452V0.5Z" fill="white"/>
</mask>
<g mask="url(#mask1_9967_2180)">
<path d="M452 0.5H0V305.5H452V0.5Z" fill="white"/>
<path d="M452 0.5H0V288.5H452V0.5Z" fill="#4F6169"/>
<path d="M452 0.5H0V24.6367H452V0.5Z" fill="#2D4048"/>
<g filter="url(#filter0_d_9967_2180)">
<path d="M51 49.5C51 47.8431 52.3431 46.5 54 46.5H399C400.657 46.5 402 47.8431 402 49.5V256.5C402 258.157 400.657 259.5 399 259.5H54C52.3431 259.5 51 258.157 51 256.5V49.5Z" fill="white"/>
</g>
<path d="M381.94 67.4982L386.8 62.6382C387.026 62.3737 387.011 61.9794 386.765 61.7332C386.518 61.4869 386.124 61.4717 385.86 61.6982L381 66.5582L376.14 61.6916C375.875 61.465 375.481 61.4803 375.235 61.7265C374.988 61.9728 374.973 62.367 375.2 62.6316L380.06 67.4982L375.193 72.3582C375.003 72.5211 374.92 72.777 374.978 73.0205C375.037 73.264 375.227 73.4542 375.471 73.5128C375.714 73.5713 375.97 73.4885 376.133 73.2982L381 68.4382L385.86 73.2982C386.124 73.5247 386.518 73.5095 386.765 73.2633C387.011 73.017 387.026 72.6227 386.8 72.3582L381.94 67.4982Z" fill="#2D4048"/>
<path d="M394.812 215.371H252.812V251.371H394.812V215.371Z" stroke="#D23292"/>
<path d="M396.5 52H365.5V83H396.5V52Z" stroke="#D23292"/>
<path d="M328 243.013C328 244.387 329.113 245.5 330.487 245.5H385.513C386.887 245.5 388 244.387 388 243.013V223.987C388 222.613 386.887 221.5 385.513 221.5H330.487C329.113 221.5 328 222.613 328 223.987V243.013Z" fill="#0079AD"/>
<path opacity="0.6" d="M371.598 232.133H344.402C343.646 232.133 343.034 232.745 343.034 233.501C343.034 234.256 343.646 234.868 344.402 234.868H371.598C372.353 234.868 372.966 234.256 372.966 233.501C372.966 232.745 372.353 232.133 371.598 232.133Z" fill="white"/>
<path d="M304.598 232.133H277.402C276.646 232.133 276.034 232.745 276.034 233.501C276.034 234.256 276.646 234.868 277.402 234.868H304.598C305.353 234.868 305.965 234.256 305.965 233.501C305.965 232.745 305.353 232.133 304.598 232.133Z" fill="#0079AD"/>
<path d="M263.487 244.257H318.513V246.743H263.487V244.257ZM319.757 243.013V223.987H322.243V243.013H319.757ZM318.513 222.743H263.487V220.257H318.513V222.743ZM262.243 223.987V243.013H259.757V223.987H262.243ZM263.487 222.743C262.8 222.743 262.243 223.3 262.243 223.987H259.757C259.757 221.927 261.427 220.257 263.487 220.257V222.743ZM319.757 223.987C319.757 223.3 319.2 222.743 318.513 222.743V220.257C320.573 220.257 322.243 221.927 322.243 223.987H319.757ZM318.513 244.257C319.2 244.257 319.757 243.7 319.757 243.013H322.243C322.243 245.073 320.573 246.743 318.513 246.743V244.257ZM263.487 246.743C261.427 246.743 259.757 245.073 259.757 243.013H262.243C262.243 243.7 262.8 244.257 263.487 244.257V246.743Z" fill="#0079AD"/>
</g>
</g>
<path d="M4 1H448C449.933 1 451.5 2.567 451.5 4.5V288H0.5V4.5C0.5 2.567 2.067 1 4 1Z" stroke="#ACB9BE"/>
<path opacity="0.4" d="M75 69C75 68.1716 75.6716 67.5 76.5 67.5H204.5C205.328 67.5 206 68.1716 206 69C206 69.8284 205.328 70.5 204.5 70.5H76.5C75.6716 70.5 75 69.8284 75 69Z" fill="#4F6169"/>
<path opacity="0.4" d="M76.3453 103.829H359.222" stroke="#4F6169" stroke-width="3" stroke-linecap="round"/>
<path opacity="0.4" d="M76.3453 121.829H359.222" stroke="#4F6169" stroke-width="3" stroke-linecap="round"/>
<path opacity="0.4" d="M76.3453 139.829H359.222" stroke="#4F6169" stroke-width="3" stroke-linecap="round"/>
<path opacity="0.4" d="M76.3453 157.829H243.721" stroke="#4F6169" stroke-width="3" stroke-linecap="round"/>
</g>
<rect x="0.5" y="1" width="451" height="287" stroke="#ACB8BE"/>
<defs>
<filter id="filter0_d_9967_2180" x="47" y="46.5" width="359" height="221" filterUnits="userSpaceOnUse" color-interpolation-filters="sRGB">
<feFlood flood-opacity="0" result="BackgroundImageFix"/>
<feColorMatrix in="SourceAlpha" type="matrix" values="0 0 0 0 0 0 0 0 0 0 0 0 0 0 0 0 0 0 127 0" result="hardAlpha"/>
<feOffset dy="4"/>
<feGaussianBlur stdDeviation="2"/>
<feComposite in2="hardAlpha" operator="out"/>
<feColorMatrix type="matrix" values="0 0 0 0 0 0 0 0 0 0 0 0 0 0 0 0 0 0 0.25 0"/>
<feBlend mode="normal" in2="BackgroundImageFix" result="effect1_dropShadow_9967_2180"/>
<feBlend mode="normal" in="SourceGraphic" in2="effect1_dropShadow_9967_2180" result="shape"/>
</filter>
<clipPath id="clip0_9967_2180">
<rect y="0.5" width="452" height="288" fill="white"/>
</clipPath>
</defs>
</svg>
