<svg width="452" height="288" viewBox="0 0 452 288" fill="none" xmlns="http://www.w3.org/2000/svg">
<g clip-path="url(#clip0_12824_41019)">
<path d="M0 4C0 1.79086 1.79086 0 4 0H448C450.209 0 452 1.79086 452 4V288H0V4Z" fill="white"/>
<g clip-path="url(#clip1_12824_41019)">
<path d="M452 0H0V305H452V0Z" fill="white"/>
<path d="M452 0H0V288H452V0Z" fill="#4F6169"/>
<path opacity="0.1" d="M452 0H0V24.1367H452V0Z" fill="black"/>
<path d="M226 4.05634C226 1.81602 226 0 226 0H449.077C450.139 0 451 1.81602 451 4.05634V283.944C451 286.184 451 288 451 288H226C226 288 226 286.184 226 283.944V4.05634Z" fill="white"/>
<path d="M241 22.5C241 21.6716 241.465 21 242.038 21H330.654C331.227 21 331.692 21.6716 331.692 22.5C331.692 23.3284 331.227 24 330.654 24H242.038C241.465 24 241 23.3284 241 22.5Z" fill="#C5CED8"/>
<path d="M241 55C241 54.448 241.31 54 241.692 54H425.846C426.228 54 426.538 54.448 426.538 55C426.538 55.552 426.228 56 425.846 56H241.692C241.31 56 241 55.552 241 55Z" fill="#C5CED8"/>
<path d="M241 69C241 68.448 241.31 68 241.692 68H438.308C438.69 68 439 68.448 439 69C439 69.552 438.69 70 438.308 70H241.692C241.31 70 241 69.552 241 69Z" fill="#C5CED8"/>
<path d="M241 83C241 82.448 241.31 82 241.692 82H432.769C433.151 82 433.462 82.448 433.462 83C433.462 83.552 433.151 84 432.769 84H241.692C241.31 84 241 83.552 241 83Z" fill="#C5CED8"/>
<path d="M241 97C241 96.448 241.31 96 241.692 96H430C430.382 96 430.692 96.448 430.692 97C430.692 97.552 430.382 98 430 98H241.692C241.31 98 241 97.552 241 97Z" fill="#C5CED8"/>
<path d="M241 111C241 110.448 241.31 110 241.692 110H434.154C434.536 110 434.846 110.448 434.846 111C434.846 111.552 434.536 112 434.154 112H241.692C241.31 112 241 111.552 241 111Z" fill="#C5CED8"/>
<path d="M241 125C241 124.448 241.31 124 241.692 124H362.846C363.228 124 363.538 124.448 363.538 125C363.538 125.552 363.228 126 362.846 126H241.692C241.31 126 241 125.552 241 125Z" fill="#C5CED8"/>
<path d="M430.94 20.9982L435.8 16.1382C436.026 15.8737 436.011 15.4794 435.765 15.2332C435.518 14.9869 435.124 14.9717 434.86 15.1982L430 20.0582L425.14 15.1916C424.875 14.965 424.481 14.9803 424.235 15.2265C423.988 15.4728 423.973 15.867 424.2 16.1316L429.06 20.9982L424.193 25.8582C424.003 26.0211 423.92 26.277 423.978 26.5205C424.037 26.764 424.227 26.9542 424.471 27.0128C424.714 27.0713 424.97 26.9885 425.133 26.7982L430 21.9382L434.86 26.7982C435.124 27.0247 435.518 27.0095 435.765 26.7633C436.011 26.517 436.026 26.1227 435.8 25.8582L430.94 20.9982Z" fill="#4F6169"/>
<path d="M445.5 5.5H414.5V36.5H445.5V5.5Z" stroke="#D23292"/>
<path d="M446 246H304V282H446V246Z" stroke="#D23292"/>
<g opacity="0.8">
<path d="M379.188 273.642C379.188 275.016 380.301 276.129 381.675 276.129H436.701C438.075 276.129 439.188 275.016 439.188 273.642V254.616C439.188 253.242 438.075 252.129 436.701 252.129H381.675C380.301 252.129 379.188 253.242 379.188 254.616V273.642Z" fill="#0099DB"/>
<path opacity="0.6" d="M422.786 262.762H395.59C394.834 262.762 394.222 263.374 394.222 264.13C394.222 264.885 394.834 265.497 395.59 265.497H422.786C423.541 265.497 424.153 264.885 424.153 264.13C424.153 263.374 423.541 262.762 422.786 262.762Z" fill="#BDEBFF"/>
</g>
<g opacity="0.8">
<path d="M355.786 262.762H328.59C327.834 262.762 327.222 263.374 327.222 264.13C327.222 264.885 327.834 265.497 328.59 265.497H355.786C356.541 265.497 357.154 264.885 357.154 264.13C357.154 263.374 356.541 262.762 355.786 262.762Z" fill="#0099DB"/>
<path d="M314.675 274.886H369.701V277.372H314.675V274.886ZM370.945 273.642V254.616H373.431V273.642H370.945ZM369.701 253.372H314.675V250.886H369.701V253.372ZM313.431 254.616V273.642H310.945V254.616H313.431ZM314.675 253.372C313.988 253.372 313.431 253.929 313.431 254.616H310.945C310.945 252.556 312.615 250.886 314.675 250.886V253.372ZM370.945 254.616C370.945 253.929 370.388 253.372 369.701 253.372V250.886C371.761 250.886 373.431 252.556 373.431 254.616H370.945ZM369.701 274.886C370.388 274.886 370.945 274.329 370.945 273.642H373.431C373.431 275.702 371.761 277.372 369.701 277.372V274.886ZM314.675 277.372C312.615 277.372 310.945 275.702 310.945 273.642H313.431C313.431 274.329 313.988 274.886 314.675 274.886V277.372Z" fill="#0099DB"/>
</g>
</g>
</g>
<path d="M0.5 4C0.5 2.067 2.067 0.5 4 0.5H448C449.933 0.5 451.5 2.067 451.5 4V287.5H0.5V4Z" stroke="#ACB9BE"/>
<defs>
<clipPath id="clip0_12824_41019">
<path d="M0 4C0 1.79086 1.79086 0 4 0H448C450.209 0 452 1.79086 452 4V288H0V4Z" fill="white"/>
</clipPath>
<clipPath id="clip1_12824_41019">
<rect width="452" height="305" fill="white"/>
</clipPath>
</defs>
</svg>
