<svg width="452" height="288" viewBox="0 0 452 288" fill="none" xmlns="http://www.w3.org/2000/svg">
<g clip-path="url(#clip0_12824_41080)">
<path d="M0 4C0 1.79086 1.79086 0 4 0H448C450.209 0 452 1.79086 452 4V288H0V4Z" fill="white"/>
<g clip-path="url(#clip1_12824_41080)">
<path d="M452 0H0V305H452V0Z" fill="white"/>
<path d="M452 0H0V288H452V0Z" fill="#4F6169"/>
<path opacity="0.1" d="M452 0H0V24.1367H452V0Z" fill="black"/>
<path d="M226 4.05634C226 1.81602 226 0 226 0H449.077C450.139 0 451 1.81602 451 4.05634V283.944C451 286.184 451 288 451 288H226C226 288 226 286.184 226 283.944V4.05634Z" fill="white"/>
<path d="M241 22.5C241 21.6716 241.465 21 242.038 21H330.654C331.227 21 331.692 21.6716 331.692 22.5C331.692 23.3284 331.227 24 330.654 24H242.038C241.465 24 241 23.3284 241 22.5Z" fill="#C5CED8"/>
<path d="M241 55C241 54.448 241.31 54 241.692 54H425.846C426.228 54 426.538 54.448 426.538 55C426.538 55.552 426.228 56 425.846 56H241.692C241.31 56 241 55.552 241 55Z" fill="#C5CED8"/>
<path d="M241 69C241 68.448 241.31 68 241.692 68H438.308C438.69 68 439 68.448 439 69C439 69.552 438.69 70 438.308 70H241.692C241.31 70 241 69.552 241 69Z" fill="#C5CED8"/>
<path d="M241 83C241 82.448 241.31 82 241.692 82H432.769C433.151 82 433.462 82.448 433.462 83C433.462 83.552 433.151 84 432.769 84H241.692C241.31 84 241 83.552 241 83Z" fill="#C5CED8"/>
<path d="M241 97C241 96.448 241.31 96 241.692 96H430C430.382 96 430.692 96.448 430.692 97C430.692 97.552 430.382 98 430 98H241.692C241.31 98 241 97.552 241 97Z" fill="#C5CED8"/>
<path d="M241 111C241 110.448 241.31 110 241.692 110H434.154C434.536 110 434.846 110.448 434.846 111C434.846 111.552 434.536 112 434.154 112H241.692C241.31 112 241 111.552 241 111Z" fill="#C5CED8"/>
<path d="M241 125C241 124.448 241.31 124 241.692 124H362.846C363.228 124 363.538 124.448 363.538 125C363.538 125.552 363.228 126 362.846 126H241.692C241.31 126 241 125.552 241 125Z" fill="#C5CED8"/>
<path d="M430.94 20.9982L435.8 16.1382C436.026 15.8737 436.011 15.4794 435.765 15.2332C435.518 14.9869 435.124 14.9717 434.86 15.1982L430 20.0582L425.14 15.1916C424.875 14.965 424.481 14.9803 424.235 15.2265C423.988 15.4728 423.973 15.867 424.2 16.1316L429.06 20.9982L424.193 25.8582C424.003 26.0211 423.92 26.277 423.978 26.5205C424.037 26.764 424.227 26.9542 424.471 27.0128C424.714 27.0713 424.97 26.9885 425.133 26.7982L430 21.9382L434.86 26.7982C435.124 27.0247 435.518 27.0095 435.765 26.7633C436.011 26.517 436.026 26.1227 435.8 25.8582L430.94 20.9982Z" fill="#4F6169"/>
<g opacity="0.8">
<path d="M379.188 273.642C379.188 275.016 380.301 276.129 381.675 276.129H436.701C438.075 276.129 439.188 275.016 439.188 273.642V254.616C439.188 253.242 438.075 252.129 436.701 252.129H381.675C380.301 252.129 379.188 253.242 379.188 254.616V273.642Z" fill="#0099DB"/>
<path opacity="0.6" d="M422.786 262.762H395.59C394.834 262.762 394.222 263.374 394.222 264.13C394.222 264.885 394.834 265.497 395.59 265.497H422.786C423.541 265.497 424.153 264.885 424.153 264.13C424.153 263.374 423.541 262.762 422.786 262.762Z" fill="#BDEBFF"/>
</g>
<g opacity="0.8">
<path d="M355.786 262.762H328.59C327.834 262.762 327.222 263.374 327.222 264.13C327.222 264.885 327.834 265.497 328.59 265.497H355.786C356.541 265.497 357.154 264.885 357.154 264.13C357.154 263.374 356.541 262.762 355.786 262.762Z" fill="#0099DB"/>
<path d="M314.675 274.886H369.701V277.372H314.675V274.886ZM370.945 273.642V254.616H373.431V273.642H370.945ZM369.701 253.372H314.675V250.886H369.701V253.372ZM313.431 254.616V273.642H310.945V254.616H313.431ZM314.675 253.372C313.988 253.372 313.431 253.929 313.431 254.616H310.945C310.945 252.556 312.615 250.886 314.675 250.886V253.372ZM370.945 254.616C370.945 253.929 370.388 253.372 369.701 253.372V250.886C371.761 250.886 373.431 252.556 373.431 254.616H370.945ZM369.701 274.886C370.388 274.886 370.945 274.329 370.945 273.642H373.431C373.431 275.702 371.761 277.372 369.701 277.372V274.886ZM314.675 277.372C312.615 277.372 310.945 275.702 310.945 273.642H313.431C313.431 274.329 313.988 274.886 314.675 274.886V277.372Z" fill="#0099DB"/>
</g>
<path opacity="0.5" d="M452 0H0V288H452V0Z" fill="#4F6169"/>
<path d="M305 5.91781C305 2.6494 305 0 305 0H449.175C450.183 0 451 2.6494 451 5.91781V282.082C451 285.351 451 288 451 288H305C305 288 305 285.351 305 282.082V5.91781Z" fill="white"/>
<path d="M315 53C315 52.448 315.262 52 315.585 52H410.877C411.2 52 411.462 52.448 411.462 53C411.462 53.552 411.2 54 410.877 54H315.585C315.262 54 315 53.552 315 53Z" fill="#C5CED8"/>
<path d="M315 69C315 68.448 315.262 68 315.585 68H421.4C421.723 68 421.985 68.448 421.985 69C421.985 69.552 421.723 70 421.4 70H315.585C315.262 70 315 69.552 315 69Z" fill="#C5CED8"/>
<path d="M315 85C315 84.448 315.262 84 315.585 84H428.415C428.738 84 429 84.448 429 85C429 85.552 428.738 86 428.415 86H315.585C315.262 86 315 85.552 315 85Z" fill="#C5CED8"/>
<path d="M315 101C315 100.448 315.262 100 315.585 100H398.6C398.923 100 399.185 100.448 399.185 101C399.185 101.552 398.923 102 398.6 102H315.585C315.262 102 315 101.552 315 101Z" fill="#C5CED8"/>
<mask id="path-25-inside-1_12824_41080" fill="white">
<path d="M315.585 22.5C315.585 21.6716 315.978 21 316.462 21H347.446C347.93 21 348.323 21.6716 348.323 22.5C348.323 23.3284 347.93 24 347.446 24H316.462C315.978 24 315.585 23.3284 315.585 22.5Z"/>
</mask>
<path d="M315.585 22.5C315.585 21.6716 315.978 21 316.462 21H347.446C347.93 21 348.323 21.6716 348.323 22.5C348.323 23.3284 347.93 24 347.446 24H316.462C315.978 24 315.585 23.3284 315.585 22.5Z" fill="#C5CED8"/>
<path d="M318.585 22.5C318.585 22.523 318.586 22.69 318.431 22.9536C318.32 23.1443 317.727 24 316.462 24V18C314.713 18 313.681 19.1915 313.252 19.9251C312.78 20.7316 312.585 21.6486 312.585 22.5H318.585ZM316.462 24H347.446V18H316.462V24ZM347.446 24C346.181 24 345.588 23.1443 345.476 22.9536C345.322 22.69 345.323 22.523 345.323 22.5H351.323C351.323 21.6486 351.128 20.7316 350.656 19.9251C350.227 19.1915 349.195 18 347.446 18V24ZM345.323 22.5C345.323 22.477 345.322 22.31 345.476 22.0464C345.588 21.8557 346.181 21 347.446 21V27C349.195 27 350.227 25.8085 350.656 25.0749C351.128 24.2684 351.323 23.3514 351.323 22.5H345.323ZM347.446 21H316.462V27H347.446V21ZM316.462 21C317.727 21 318.32 21.8557 318.431 22.0464C318.586 22.31 318.585 22.477 318.585 22.5H312.585C312.585 23.3514 312.78 24.2684 313.252 25.0749C313.681 25.8085 314.713 27 316.462 27V21Z" fill="#C5CED8" mask="url(#path-25-inside-1_12824_41080)"/>
<path d="M429.98 21.9669L434.84 17.1069C435.066 16.8424 435.051 16.4481 434.805 16.2019C434.558 15.9556 434.164 15.9404 433.9 16.1669L429.04 21.0269L424.18 16.1603C423.915 15.9337 423.521 15.949 423.275 16.1952C423.028 16.4415 423.013 16.8357 423.24 17.1003L428.1 21.9669L423.233 26.8269C423.043 26.9898 422.96 27.2457 423.018 27.4892C423.077 27.7327 423.267 27.9229 423.511 27.9816C423.754 28.0401 424.01 27.9573 424.173 27.767L429.04 22.907L433.9 27.767C434.164 27.9935 434.558 27.9782 434.805 27.732C435.051 27.4857 435.066 27.0914 434.84 26.8269L429.98 21.9669Z" fill="#4F6169"/>
<g opacity="0.8">
<path d="M383 272.513C383 273.887 384.113 275 385.487 275H440.513C441.887 275 443 273.887 443 272.513V253.487C443 252.113 441.887 251 440.513 251H385.487C384.113 251 383 252.113 383 253.487V272.513Z" fill="#0099DB"/>
<path opacity="0.6" d="M426.598 261.633H399.402C398.646 261.633 398.034 262.245 398.034 263.001C398.034 263.756 398.646 264.368 399.402 264.368H426.598C427.353 264.368 427.965 263.756 427.965 263.001C427.965 262.245 427.353 261.633 426.598 261.633Z" fill="#BDEBFF"/>
</g>
<g opacity="0.8">
<path d="M359.598 261.633H332.402C331.646 261.633 331.034 262.245 331.034 263.001C331.034 263.756 331.646 264.368 332.402 264.368H359.598C360.353 264.368 360.966 263.756 360.966 263.001C360.966 262.245 360.353 261.633 359.598 261.633Z" fill="#0099DB"/>
<path d="M318.487 273.757H373.513V276.243H318.487V273.757ZM374.757 272.513V253.487H377.243V272.513H374.757ZM373.513 252.243H318.487V249.757H373.513V252.243ZM317.243 253.487V272.513H314.757V253.487H317.243ZM318.487 252.243C317.8 252.243 317.243 252.8 317.243 253.487H314.757C314.757 251.427 316.427 249.757 318.487 249.757V252.243ZM374.757 253.487C374.757 252.8 374.2 252.243 373.513 252.243V249.757C375.573 249.757 377.243 251.427 377.243 253.487H374.757ZM373.513 273.757C374.2 273.757 374.757 273.2 374.757 272.513H377.243C377.243 274.573 375.573 276.243 373.513 276.243V273.757ZM318.487 276.243C316.427 276.243 314.757 274.573 314.757 272.513H317.243C317.243 273.2 317.8 273.757 318.487 273.757V276.243Z" fill="#0099DB"/>
</g>
</g>
</g>
<path d="M0.5 4C0.5 2.067 2.067 0.5 4 0.5H448C449.933 0.5 451.5 2.067 451.5 4V287.5H0.5V4Z" stroke="#ACB9BE"/>
<defs>
<clipPath id="clip0_12824_41080">
<path d="M0 4C0 1.79086 1.79086 0 4 0H448C450.209 0 452 1.79086 452 4V288H0V4Z" fill="white"/>
</clipPath>
<clipPath id="clip1_12824_41080">
<rect width="452" height="305" fill="white"/>
</clipPath>
</defs>
</svg>
