<svg width="467" height="256" viewBox="0 0 467 256" fill="none" xmlns="http://www.w3.org/2000/svg">
<g filter="url(#filter0_d_10339_769)">
<rect x="4" y="4" width="458.5" height="246.862" rx="3.2381" fill="#22343C"/>
<path d="M27.8007 36.1042V31.8217L23.4227 25.1671H25.3649L28.6285 30.2934L31.9399 25.1671H33.8026L29.4564 31.8217V36.1042H27.8007ZM38.9346 36.2953C36.5625 36.2953 34.6043 34.353 34.6043 31.9809C34.6043 29.6088 36.5625 27.6825 38.9346 27.6825C41.3067 27.6825 43.2649 29.6088 43.2649 31.9809C43.2649 34.353 41.3067 36.2953 38.9346 36.2953ZM38.9346 34.9262C40.447 34.9262 41.6888 33.6048 41.6888 31.9809C41.6888 30.3571 40.447 29.0516 38.9346 29.0516C37.4222 29.0516 36.1804 30.3571 36.1804 31.9809C36.1804 33.6048 37.4222 34.9262 38.9346 34.9262ZM50.5415 27.8735H52.1176V36.1042H50.5415V34.9262C50.048 35.7381 49.045 36.2953 47.9147 36.2953C46.0998 36.2953 44.8421 35.0058 44.8421 33.1113V27.8735H46.3863V32.8406C46.3863 34.0824 47.1664 34.9262 48.2808 34.9262C49.5385 34.9262 50.5415 34.0665 50.5415 32.9839V27.8735ZM56.1354 29.4815C56.6449 28.383 57.7593 27.6825 59.1921 27.6825V29.0516C57.3772 29.0516 56.1354 30.1342 56.1354 31.7262V36.1042H54.5593V27.8735H56.1354V29.4815ZM68.7544 36.2953C66.3823 36.2953 64.4241 34.353 64.4241 31.9809C64.4241 29.6088 66.3823 27.6825 68.7544 27.6825C71.1265 27.6825 73.0847 29.6088 73.0847 31.9809C73.0847 34.353 71.1265 36.2953 68.7544 36.2953ZM68.7544 34.9262C70.2668 34.9262 71.5086 33.6048 71.5086 31.9809C71.5086 30.3571 70.2668 29.0516 68.7544 29.0516C67.242 29.0516 66.0002 30.3571 66.0002 31.9809C66.0002 33.6048 67.242 34.9262 68.7544 34.9262ZM76.4131 29.4815C76.9225 28.383 78.0369 27.6825 79.4697 27.6825V29.0516C77.6549 29.0516 76.4131 30.1342 76.4131 31.7262V36.1042H74.837V27.8735H76.4131V29.4815ZM87.2742 24.9761H88.8503V36.1042H87.2742V34.7033C86.6374 35.6903 85.6185 36.2953 84.3608 36.2953C82.1798 36.2953 80.5718 34.5122 80.5718 31.9809C80.5718 29.4655 82.1798 27.6825 84.3608 27.6825C85.6185 27.6825 86.6374 28.2875 87.2742 29.2745V24.9761ZM84.727 34.9262C86.2235 34.9262 87.2742 33.7003 87.2742 31.9809C87.2742 30.2616 86.2235 29.0516 84.727 29.0516C83.2305 29.0516 82.1639 30.2616 82.1639 31.9809C82.1639 33.7003 83.2305 34.9262 84.727 34.9262ZM94.8447 34.9898C95.7363 34.9898 96.7711 34.5918 97.2805 34.0506L98.2039 35.0217C97.4875 35.8018 96.0388 36.2953 94.8766 36.2953C92.6 36.2953 90.6259 34.4963 90.6259 31.965C90.6259 29.4974 92.4886 27.6825 94.7651 27.6825C97.2805 27.6825 98.7452 29.5611 98.7452 32.4904H92.1702C92.3612 33.9391 93.3801 34.9898 94.8447 34.9898ZM94.797 28.9879C93.4756 28.9879 92.4249 29.9113 92.1861 31.3282H97.2168C97.0576 30.0068 96.2298 28.9879 94.797 28.9879ZM102.008 29.4815C102.517 28.383 103.632 27.6825 105.064 27.6825V29.0516C103.25 29.0516 102.008 30.1342 102.008 31.7262V36.1042H100.432V27.8735H102.008V29.4815Z" fill="#F1F6F8"/>
<path d="M434.592 32.6563L438.991 28.257C439.172 28.0465 439.16 27.7326 438.964 27.5366C438.768 27.3406 438.454 27.3285 438.243 27.5088L433.844 31.908L429.445 27.5035C429.237 27.2954 428.899 27.2954 428.691 27.5035C428.483 27.7116 428.483 28.0489 428.691 28.257L433.096 32.6563L428.691 37.0556C428.54 37.1853 428.474 37.3889 428.52 37.5827C428.567 37.7766 428.718 37.928 428.912 37.9746C429.106 38.0212 429.31 37.9552 429.439 37.8038L433.844 33.4045L438.243 37.8038C438.454 37.9841 438.768 37.972 438.964 37.776C439.16 37.58 439.172 37.2661 438.991 37.0556L434.592 32.6563Z" fill="#E3EAED"/>
<path d="M72.5475 70.0934C72.5475 71.3304 71.7006 72.2665 70.4747 72.5451L72.3469 75.2085H70.7645L68.9591 72.6342H67.7333V75.2085H66.3514V67.5525H69.6835C71.3105 67.5525 72.5475 68.6 72.5475 70.0934ZM67.7333 68.8341V71.3526H69.5163C70.4636 71.3526 71.1211 70.8734 71.1211 70.0934C71.1211 69.3133 70.4636 68.8341 69.5163 68.8341H67.7333ZM76.4263 74.2501C77.0058 74.2501 77.6633 74.0049 78.031 73.6483L78.8111 74.4507C78.3096 74.9856 77.3066 75.3422 76.4708 75.3422C74.8104 75.3422 73.4396 74.0829 73.4396 72.311C73.4396 70.5726 74.7435 69.3133 76.3928 69.3133C78.1759 69.3133 79.2234 70.6283 79.2234 72.7234H74.7546C74.8995 73.626 75.5347 74.2501 76.4263 74.2501ZM76.404 70.4054C75.5793 70.4054 74.9441 70.9626 74.7658 71.8207H77.9084C77.7858 71.0072 77.2732 70.4054 76.404 70.4054ZM84.1681 69.447H85.5277V75.2085H84.1681V74.4284C83.8226 74.9745 83.154 75.3422 82.385 75.3422C81.1146 75.3422 80.2342 74.4284 80.2342 73.1134V69.447H81.5604V72.8459C81.5604 73.6372 82.0507 74.1832 82.7639 74.1832C83.544 74.1832 84.1681 73.6372 84.1681 72.9351V69.447ZM90.5433 69.3133C92.07 69.3133 93.1956 70.5614 93.1956 72.3222C93.1956 74.0941 92.07 75.3422 90.5433 75.3422C89.6629 75.3422 88.9497 74.9299 88.5039 74.2278V75.2085H87.1443V67.4188H88.5039V70.4165C88.9497 69.7256 89.6629 69.3133 90.5433 69.3133ZM90.1755 74.1832C91.1562 74.1832 91.8471 73.4032 91.8471 72.3222C91.8471 71.2412 91.1562 70.4723 90.1755 70.4723C89.2283 70.4723 88.5485 71.2412 88.5485 72.3222C88.5485 73.4032 89.2283 74.1832 90.1755 74.1832ZM96.9738 74.2501C97.5533 74.2501 98.2108 74.0049 98.5786 73.6483L99.3586 74.4507C98.8572 74.9856 97.8542 75.3422 97.0184 75.3422C95.3579 75.3422 93.9872 74.0829 93.9872 72.311C93.9872 70.5726 95.2911 69.3133 96.9404 69.3133C98.7234 69.3133 99.771 70.6283 99.771 72.7234H95.3022C95.4471 73.626 96.0823 74.2501 96.9738 74.2501ZM96.9515 70.4054C96.1269 70.4054 95.4916 70.9626 95.3133 71.8207H98.456C98.3334 71.0072 97.8208 70.4054 96.9515 70.4054ZM104.047 69.3133C105.317 69.3133 106.198 70.2271 106.198 71.5421V75.2085H104.872V71.8095C104.872 71.0183 104.381 70.4723 103.668 70.4723C102.888 70.4723 102.264 71.0183 102.264 71.7204V75.2085H100.904V69.447H102.264V70.2271C102.609 69.681 103.278 69.3133 104.047 69.3133ZM112.654 75.3422C111.774 75.3422 110.827 75.0302 110.125 74.4841L110.704 73.5926C111.328 74.0384 112.052 74.2947 112.677 74.2947C113.289 74.2947 113.657 74.0384 113.657 73.6372C113.657 73.1803 113.122 73.0243 112.443 72.8459C111.183 72.5116 110.392 72.1662 110.392 71.1186C110.392 70.0488 111.284 69.3133 112.565 69.3133C113.356 69.3133 114.136 69.5919 114.772 70.0042L114.237 70.918C113.702 70.5726 113.1 70.3497 112.565 70.3497C112.064 70.3497 111.662 70.5837 111.662 70.9849C111.662 71.3638 112.019 71.4641 112.888 71.7315C113.869 71.999 114.917 72.3222 114.917 73.5146C114.917 74.629 113.992 75.3422 112.654 75.3422ZM118.393 69.3133C119.92 69.3133 120.856 70.2828 120.856 71.7427V75.2085H119.53V74.5287C119.107 75.0525 118.393 75.3422 117.725 75.3422C116.499 75.3422 115.585 74.6179 115.585 73.5034C115.585 72.3668 116.622 71.5867 117.925 71.5867C118.449 71.5867 119.006 71.6981 119.53 71.8876V71.7427C119.53 71.074 119.174 70.4277 118.126 70.4277C117.58 70.4277 117.056 70.6171 116.566 70.8623L116.098 69.9151C116.911 69.5139 117.669 69.3133 118.393 69.3133ZM118.026 74.3504C118.683 74.3504 119.385 74.0161 119.53 73.4032V72.7457C119.107 72.6119 118.627 72.5339 118.126 72.5339C117.446 72.5339 116.889 72.9128 116.889 73.4589C116.889 74.0049 117.379 74.3504 118.026 74.3504ZM125.494 69.3133C126.765 69.3133 127.645 70.2271 127.645 71.5421V75.2085H126.319V71.8095C126.319 71.0183 125.829 70.4723 125.115 70.4723C124.335 70.4723 123.711 71.0183 123.711 71.7204V75.2085H122.352V69.447H123.711V70.2271C124.057 69.681 124.725 69.3133 125.494 69.3133ZM133.396 67.4188H134.756V75.2085H133.396V74.2947C132.951 74.9522 132.248 75.3422 131.402 75.3422C129.864 75.3422 128.749 74.0941 128.749 72.3222C128.749 70.5614 129.864 69.3133 131.402 69.3133C132.248 69.3133 132.951 69.7033 133.396 70.3497V67.4188ZM131.758 74.1832C132.717 74.1832 133.385 73.4032 133.385 72.3222C133.385 71.2412 132.717 70.4723 131.758 70.4723C130.789 70.4723 130.098 71.2412 130.098 72.3222C130.098 73.4032 130.789 74.1832 131.758 74.1832ZM137.655 75.2085L135.704 69.447H137.064L138.267 73.3809L139.549 69.447H140.686L141.967 73.3809L143.171 69.447H144.53L142.58 75.2085H141.343L140.117 71.2635L138.892 75.2085H137.655ZM146.158 68.5778C145.724 68.5778 145.378 68.21 145.378 67.7977C145.378 67.3853 145.724 67.0287 146.158 67.0287C146.582 67.0287 146.927 67.3853 146.927 67.7977C146.927 68.21 146.582 68.5778 146.158 68.5778ZM145.479 75.2085V69.447H146.838V75.2085H145.479ZM151.098 75.3422C149.427 75.3422 148.011 73.9604 148.011 72.3222C148.011 70.684 149.427 69.3133 151.109 69.3133C151.99 69.3133 152.748 69.681 153.294 70.2494L152.38 71.0517C152.068 70.7063 151.589 70.4723 151.098 70.4723C150.151 70.4723 149.36 71.3192 149.36 72.3222C149.36 73.3363 150.151 74.1832 151.098 74.1832C151.6 74.1832 152.09 73.9492 152.413 73.5815L153.327 74.3727C152.77 74.9633 152.001 75.3422 151.098 75.3422ZM157.473 69.3133C158.743 69.3133 159.624 70.2271 159.624 71.5421V75.2085H158.298V71.8095C158.298 71.0183 157.807 70.4723 157.094 70.4723C156.314 70.4723 155.69 71.0183 155.69 71.7204V75.2085H154.33V67.4188H155.69V70.2271C156.035 69.681 156.704 69.3133 157.473 69.3133ZM166.738 75.3422C165.033 75.3422 163.64 73.9826 163.64 72.3222C163.64 70.6617 165.033 69.3133 166.738 69.3133C168.432 69.3133 169.814 70.6617 169.814 72.3222C169.814 73.9826 168.432 75.3422 166.738 75.3422ZM166.738 74.1832C167.696 74.1832 168.487 73.3474 168.487 72.3222C168.487 71.2969 167.696 70.4723 166.738 70.4723C165.768 70.4723 164.977 71.2969 164.977 72.3222C164.977 73.3474 165.768 74.1832 166.738 74.1832ZM174.135 69.3133C175.406 69.3133 176.286 70.2271 176.286 71.5421V75.2085H174.96V71.8095C174.96 71.0183 174.47 70.4723 173.756 70.4723C172.976 70.4723 172.352 71.0183 172.352 71.7204V75.2085H170.993V69.447H172.352V70.2271C172.698 69.681 173.366 69.3133 174.135 69.3133ZM182.107 70.5391C182.475 69.7925 183.233 69.3133 184.169 69.3133V70.4723C182.932 70.4723 182.107 71.2078 182.107 72.2999V75.2085H180.748V69.447H182.107V70.5391ZM186.296 77.2144C185.861 77.2144 185.382 77.103 185.036 76.9135L185.326 75.9329C185.571 76.0666 185.85 76.1446 186.062 76.1446C186.385 76.1446 186.63 76.0443 186.797 75.7657L187.042 75.2531L184.602 69.447H186.039L187.722 73.7486L189.305 69.447H190.709L188.268 75.6097C187.834 76.7018 187.165 77.2033 186.296 77.2144ZM194.187 74.2501C194.767 74.2501 195.424 74.0049 195.792 73.6483L196.572 74.4507C196.07 74.9856 195.067 75.3422 194.232 75.3422C192.571 75.3422 191.2 74.0829 191.2 72.311C191.2 70.5726 192.504 69.3133 194.154 69.3133C195.937 69.3133 196.984 70.6283 196.984 72.7234H192.515C192.66 73.626 193.296 74.2501 194.187 74.2501ZM194.165 70.4054C193.34 70.4054 192.705 70.9626 192.527 71.8207H195.669C195.547 71.0072 195.034 70.4054 194.165 70.4054Z" fill="#E3EAED"/>
<path d="M243.807 75.2085V69.0824L242.565 69.8896L242.213 69.2894L243.962 68.0994H244.614V75.2085H243.807Z" fill="#E3EAED"/>
<path d="M253.946 81.4125H235.638V83.0045H253.946V81.4125Z" fill="#67777E" mask="url(#path-6-inside-1_10339_769)"/>
<path d="M279.083 73.2734C279.083 74.3186 278.359 75.1775 276.952 75.3016V75.9743H276.145V75.3016C275.182 75.2085 274.396 74.8049 273.775 74.1944L274.282 73.5631C274.789 74.0702 275.379 74.4427 276.145 74.5566V71.9488C274.841 71.6281 274.023 71.1624 274.023 69.9931C274.023 68.9272 274.913 68.089 276.145 67.9855V67.3543H276.952V68.0166C277.738 68.1304 278.359 68.5029 278.897 68.9893L278.4 69.6205C277.966 69.2066 277.48 68.9065 276.952 68.7823V71.2659C278.204 71.5867 279.083 72.0834 279.083 73.2734ZM274.841 69.931C274.841 70.5312 275.306 70.8106 276.145 71.0589V68.7202C275.379 68.803 274.841 69.3308 274.841 69.931ZM276.952 74.5669C277.821 74.4531 278.266 73.915 278.266 73.3458C278.266 72.725 277.811 72.4145 276.952 72.1558V74.5669ZM281.583 75.2085V69.0824L280.341 69.8896L279.989 69.2894L281.738 68.0994H282.39V75.2085H281.583ZM283.753 75.2085V74.5359L286.35 72.3214C287.354 71.4625 287.768 70.7795 287.768 70.0758C287.768 69.2066 287.044 68.6995 286.288 68.6995C285.46 68.6995 284.871 69.1445 284.384 69.8068L283.815 69.3411C284.405 68.5029 285.202 67.9752 286.319 67.9752C287.551 67.9752 288.586 68.7927 288.586 70.0655C288.586 71.0279 288.109 71.7936 286.909 72.8284L285.046 74.4427H288.658V75.2085H283.753ZM290.859 75.3327C290.539 75.3327 290.29 75.074 290.29 74.7635C290.29 74.4738 290.539 74.2151 290.859 74.2151C291.159 74.2151 291.408 74.4738 291.408 74.7635C291.408 75.074 291.159 75.3327 290.859 75.3327ZM295.521 75.3327C294.425 75.3327 293.597 74.867 293.017 74.2047L293.545 73.6149C294.093 74.2151 294.766 74.6083 295.553 74.6083C296.536 74.6083 297.229 73.9253 297.229 73.025C297.229 72.1144 296.525 71.4935 295.532 71.4935C294.921 71.4935 294.394 71.7108 293.949 72.042L293.359 71.7522L293.462 68.0994H297.664V68.8651H294.249L294.176 71.2555C294.559 70.9968 295.045 70.7795 295.697 70.7795C296.981 70.7795 298.046 71.5867 298.046 72.994C298.046 74.4013 296.981 75.3327 295.521 75.3327ZM302.083 75.3327C300.345 75.3327 299.123 73.8115 299.123 71.6488C299.123 69.4963 300.345 67.9752 302.083 67.9752C303.811 67.9752 305.032 69.4963 305.032 71.6488C305.032 73.8115 303.811 75.3327 302.083 75.3327ZM302.083 74.5876C303.335 74.5876 304.215 73.3665 304.215 71.6488C304.215 69.931 303.335 68.7202 302.083 68.7202C300.831 68.7202 299.941 69.931 299.941 71.6488C299.941 73.3665 300.831 74.5876 302.083 74.5876Z" fill="#E3EAED"/>
<path d="M350.747 70.6895C350.747 71.6614 350.081 72.3969 349.118 72.6158L350.589 74.7085H349.346L347.927 72.6858H346.964V74.7085H345.878V68.6931H348.496C349.775 68.6931 350.747 69.5161 350.747 70.6895ZM346.964 69.7V71.6789H348.365C349.109 71.6789 349.626 71.3024 349.626 70.6895C349.626 70.0765 349.109 69.7 348.365 69.7H346.964ZM357.332 69.6913H353.9V71.1448H356.999V72.143H353.9V73.7103H357.332V74.7085H352.805V68.6931H357.332V69.6913ZM359.45 74.7085V68.6931H360.536L362.523 72.3619L364.502 68.6931H365.597V74.7085H364.502V70.6895L362.523 74.3583L360.536 70.6895V74.7085H359.45ZM370.803 74.8136C369.095 74.8136 367.65 73.3863 367.65 71.6964C367.65 70.0065 369.095 68.588 370.803 68.588C372.519 68.588 373.963 70.0065 373.963 71.6964C373.963 73.3863 372.519 74.8136 370.803 74.8136ZM370.803 73.8154C371.915 73.8154 372.843 72.8522 372.843 71.6964C372.843 70.5494 371.915 69.5862 370.803 69.5862C369.699 69.5862 368.762 70.5494 368.762 71.6964C368.762 72.8522 369.699 73.8154 370.803 73.8154ZM380.462 68.6931H381.671L379.158 74.7085H377.94L375.427 68.6931H376.636L378.553 73.255L380.462 68.6931ZM388.05 69.6913H384.617V71.1448H387.717V72.143H384.617V73.7103H388.05V74.7085H383.523V68.6931H388.05V69.6913Z" fill="#FF674C"/>
<path d="M338.323 63.0545H396.059C397.598 63.0545 398.845 64.3018 398.845 65.8405V78.5766C398.845 80.1153 397.598 81.3627 396.059 81.3627H338.323C336.785 81.3627 335.537 80.1153 335.537 78.5766V65.8405C335.537 64.3018 336.785 63.0545 338.323 63.0545Z" stroke="#FF674C" stroke-width="0.796007"/>
<path d="M69.8618 108.078C67.6887 108.078 65.8499 106.262 65.8499 104.111C65.8499 101.96 67.6887 100.155 69.8618 100.155C70.9874 100.155 72.0238 100.634 72.7593 101.392L71.7674 102.317C71.2882 101.771 70.6085 101.425 69.8618 101.425C68.4576 101.425 67.2652 102.651 67.2652 104.111C67.2652 105.582 68.4576 106.808 69.8618 106.808C70.6085 106.808 71.2882 106.462 71.7786 105.916L72.7593 106.83C72.0238 107.599 70.9874 108.078 69.8618 108.078ZM77.7179 102.183H79.0775V107.945H77.7179V107.164C77.3725 107.711 76.7038 108.078 75.9349 108.078C74.6644 108.078 73.7841 107.164 73.7841 105.849V102.183H75.1102V105.582C75.1102 106.373 75.6006 106.919 76.3138 106.919C77.0939 106.919 77.7179 106.373 77.7179 105.671V102.183ZM82.0537 103.275C82.4215 102.529 83.1793 102.049 84.1154 102.049V103.208C82.8784 103.208 82.0537 103.944 82.0537 105.036V107.945H80.6942V102.183H82.0537V103.275ZM85.2724 107.945V100.155H86.632V107.945H85.2724ZM89.2205 109.951C88.7859 109.951 88.3067 109.839 87.9612 109.65L88.2509 108.669C88.4961 108.803 88.7747 108.881 88.9865 108.881C89.3096 108.881 89.5548 108.78 89.722 108.502L89.9671 107.989L87.5266 102.183H88.9642L90.6469 106.485L92.2294 102.183H93.6335L91.193 108.346C90.7584 109.438 90.0897 109.939 89.2205 109.951ZM99.5111 108.078C98.6307 108.078 97.6835 107.766 96.9814 107.22L97.5609 106.329C98.185 106.774 98.9094 107.031 99.5334 107.031C100.146 107.031 100.514 106.774 100.514 106.373C100.514 105.916 99.9792 105.76 99.2994 105.582C98.0401 105.248 97.2489 104.902 97.2489 103.855C97.2489 102.785 98.1404 102.049 99.422 102.049C100.213 102.049 100.993 102.328 101.629 102.74L101.094 103.654C100.559 103.309 99.9569 103.086 99.422 103.086C98.9205 103.086 98.5193 103.32 98.5193 103.721C98.5193 104.1 98.8759 104.2 99.7452 104.468C100.726 104.735 101.773 105.058 101.773 106.251C101.773 107.365 100.848 108.078 99.5111 108.078ZM106.298 102.049C107.825 102.049 108.939 103.297 108.939 105.058C108.939 106.83 107.825 108.078 106.298 108.078C105.451 108.078 104.76 107.699 104.303 107.053V109.861H102.943V102.183H104.303V103.075C104.76 102.428 105.451 102.049 106.298 102.049ZM105.93 106.919C106.9 106.919 107.591 106.139 107.591 105.058C107.591 103.977 106.9 103.208 105.93 103.208C104.972 103.208 104.303 103.977 104.303 105.058C104.303 106.139 104.972 106.919 105.93 106.919ZM110.846 101.314C110.411 101.314 110.066 100.946 110.066 100.534C110.066 100.121 110.411 99.7648 110.846 99.7648C111.27 99.7648 111.615 100.121 111.615 100.534C111.615 100.946 111.27 101.314 110.846 101.314ZM110.166 107.945V102.183H111.526V107.945H110.166ZM115.786 108.078C114.114 108.078 112.699 106.696 112.699 105.058C112.699 103.42 114.114 102.049 115.797 102.049C116.677 102.049 117.435 102.417 117.981 102.985L117.068 103.788C116.756 103.442 116.276 103.208 115.786 103.208C114.839 103.208 114.047 104.055 114.047 105.058C114.047 106.072 114.839 106.919 115.786 106.919C116.287 106.919 116.778 106.685 117.101 106.318L118.015 107.109C117.458 107.699 116.689 108.078 115.786 108.078ZM119.988 109.951C119.553 109.951 119.074 109.839 118.728 109.65L119.018 108.669C119.263 108.803 119.542 108.881 119.754 108.881C120.077 108.881 120.322 108.78 120.489 108.502L120.734 107.989L118.294 102.183H119.731L121.414 106.485L122.997 102.183H124.401L121.96 108.346C121.526 109.438 120.857 109.939 119.988 109.951ZM129.866 101.704V102.183H131.17V103.309H129.866V107.945H128.54V103.309H127.704V102.183H128.54V101.581C128.54 100.612 129.209 99.9208 130.167 99.9208C130.602 99.9208 131.07 100.099 131.393 100.378L131.003 101.247C130.88 101.124 130.668 101.035 130.434 101.035C130.111 101.035 129.866 101.314 129.866 101.704ZM133.471 103.275C133.838 102.529 134.596 102.049 135.532 102.049V103.208C134.295 103.208 133.471 103.944 133.471 105.036V107.945H132.111V102.183H133.471V103.275ZM137.369 101.314C136.934 101.314 136.589 100.946 136.589 100.534C136.589 100.121 136.934 99.7648 137.369 99.7648C137.792 99.7648 138.138 100.121 138.138 100.534C138.138 100.946 137.792 101.314 137.369 101.314ZM136.689 107.945V102.183H138.049V107.945H136.689ZM142.231 106.986C142.81 106.986 143.468 106.741 143.836 106.384L144.616 107.187C144.114 107.722 143.111 108.078 142.275 108.078C140.615 108.078 139.244 106.819 139.244 105.047C139.244 103.309 140.548 102.049 142.197 102.049C143.98 102.049 145.028 103.364 145.028 105.459H140.559C140.704 106.362 141.339 106.986 142.231 106.986ZM142.209 103.141C141.384 103.141 140.749 103.699 140.57 104.557H143.713C143.59 103.743 143.078 103.141 142.209 103.141ZM148.156 108.078C147.276 108.078 146.329 107.766 145.626 107.22L146.206 106.329C146.83 106.774 147.554 107.031 148.178 107.031C148.791 107.031 149.159 106.774 149.159 106.373C149.159 105.916 148.624 105.76 147.944 105.582C146.685 105.248 145.894 104.902 145.894 103.855C145.894 102.785 146.785 102.049 148.067 102.049C148.858 102.049 149.638 102.328 150.274 102.74L149.739 103.654C149.204 103.309 148.602 103.086 148.067 103.086C147.566 103.086 147.164 103.32 147.164 103.721C147.164 104.1 147.521 104.2 148.39 104.468C149.371 104.735 150.418 105.058 150.418 106.251C150.418 107.365 149.493 108.078 148.156 108.078Z" fill="#E3EAED"/>
<path d="M243.807 107.945V101.819L242.565 102.626L242.213 102.025L243.962 100.835H244.614V107.945H243.807Z" fill="#E3EAED"/>
<path d="M253.946 114.149H235.638V115.741H253.946V114.149Z" fill="#67777E" mask="url(#path-13-inside-2_10339_769)"/>
<path d="M279.083 106.009C279.083 107.055 278.359 107.914 276.952 108.038V108.71H276.145V108.038C275.182 107.945 274.396 107.541 273.775 106.93L274.282 106.299C274.789 106.806 275.379 107.179 276.145 107.293V104.685C274.841 104.364 274.023 103.898 274.023 102.729C274.023 101.663 274.913 100.825 276.145 100.722V100.09H276.952V100.753C277.738 100.866 278.359 101.239 278.897 101.725L278.4 102.357C277.966 101.943 277.48 101.643 276.952 101.518V104.002C278.204 104.323 279.083 104.819 279.083 106.009ZM274.841 102.667C274.841 103.267 275.306 103.547 276.145 103.795V101.456C275.379 101.539 274.841 102.067 274.841 102.667ZM276.952 107.303C277.821 107.189 278.266 106.651 278.266 106.082C278.266 105.461 277.811 105.151 276.952 104.892V107.303ZM283.714 107.945V106.216H280.165L280.061 105.544L283.59 100.835H284.522V105.482H285.587V106.216H284.522V107.945H283.714ZM280.982 105.482H283.714V101.808L280.982 105.482ZM287.473 108.069C287.152 108.069 286.904 107.81 286.904 107.5C286.904 107.21 287.152 106.951 287.473 106.951C287.773 106.951 288.021 107.21 288.021 107.5C288.021 107.81 287.773 108.069 287.473 108.069ZM289.413 107.945V107.272L292.011 105.057C293.014 104.199 293.428 103.516 293.428 102.812C293.428 101.943 292.704 101.436 291.949 101.436C291.121 101.436 290.531 101.881 290.045 102.543L289.475 102.077C290.065 101.239 290.862 100.711 291.98 100.711C293.211 100.711 294.246 101.529 294.246 102.802C294.246 103.764 293.77 104.53 292.569 105.565L290.707 107.179H294.318V107.945H289.413ZM297.906 108.069C296.809 108.069 295.982 107.603 295.402 106.941L295.93 106.351C296.478 106.951 297.151 107.344 297.937 107.344C298.92 107.344 299.614 106.661 299.614 105.761C299.614 104.851 298.91 104.23 297.917 104.23C297.306 104.23 296.778 104.447 296.333 104.778L295.744 104.488L295.847 100.835H300.048V101.601H296.634L296.561 103.992C296.944 103.733 297.43 103.516 298.082 103.516C299.365 103.516 300.431 104.323 300.431 105.73C300.431 107.137 299.365 108.069 297.906 108.069Z" fill="#E3EAED"/>
<path d="M350.747 103.426C350.747 104.397 350.081 105.133 349.118 105.352L350.589 107.445H349.346L347.927 105.422H346.964V107.445H345.878V101.429H348.496C349.775 101.429 350.747 102.252 350.747 103.426ZM346.964 102.436V104.415H348.365C349.109 104.415 349.626 104.038 349.626 103.426C349.626 102.813 349.109 102.436 348.365 102.436H346.964ZM357.332 102.427H353.9V103.881H356.999V104.879H353.9V106.446H357.332V107.445H352.805V101.429H357.332V102.427ZM359.45 107.445V101.429H360.536L362.523 105.098L364.502 101.429H365.597V107.445H364.502V103.426L362.523 107.094L360.536 103.426V107.445H359.45ZM370.803 107.55C369.095 107.55 367.65 106.122 367.65 104.432C367.65 102.743 369.095 101.324 370.803 101.324C372.519 101.324 373.963 102.743 373.963 104.432C373.963 106.122 372.519 107.55 370.803 107.55ZM370.803 106.551C371.915 106.551 372.843 105.588 372.843 104.432C372.843 103.285 371.915 102.322 370.803 102.322C369.699 102.322 368.762 103.285 368.762 104.432C368.762 105.588 369.699 106.551 370.803 106.551ZM380.462 101.429H381.671L379.158 107.445H377.94L375.427 101.429H376.636L378.553 105.991L380.462 101.429ZM388.05 102.427H384.617V103.881H387.717V104.879H384.617V106.446H388.05V107.445H383.523V101.429H388.05V102.427Z" fill="#FF674C"/>
<path d="M338.323 95.7906H396.059C397.598 95.7906 398.845 97.0379 398.845 98.5766V111.313C398.845 112.851 397.598 114.099 396.059 114.099H338.323C336.785 114.099 335.537 112.851 335.537 111.313V98.5766C335.537 97.0379 336.785 95.7906 338.323 95.7906Z" stroke="#FF674C" stroke-width="0.796007"/>
<path d="M66.4207 136.681V129.572H67.2278L71.6361 135.356V129.572H72.4433V136.681H71.6361L67.2278 130.896V136.681H66.4207ZM78.0324 131.331H78.8085V136.681H78.0324V135.832C77.7219 136.401 77.039 136.805 76.2732 136.805C75.0832 136.805 74.2657 135.967 74.2657 134.735V131.331H75.0418V134.632C75.0418 135.511 75.5902 136.112 76.3767 136.112C77.2873 136.112 78.0324 135.491 78.0324 134.735V131.331ZM82.5948 135.894L82.9777 136.463C82.6983 136.681 82.3464 136.805 81.9843 136.805C81.2185 136.805 80.6804 136.236 80.6804 135.439V132.024H79.8422V131.331H80.6804V129.861H81.4565V131.331H82.7707V132.024H81.4565V135.439C81.4565 135.832 81.7256 136.112 82.036 136.112C82.274 136.112 82.481 136.018 82.5948 135.894ZM84.7889 132.376C85.1097 131.662 85.8755 131.207 86.8586 131.207V131.9C85.6478 131.9 84.7889 132.645 84.7889 133.69V136.681H84.0128V131.331H84.7889V132.376ZM88.4293 130.358C88.1396 130.358 87.9119 130.12 87.9119 129.841C87.9119 129.572 88.1396 129.334 88.4293 129.334C88.7087 129.334 88.9364 129.572 88.9364 129.841C88.9364 130.12 88.7087 130.358 88.4293 130.358ZM88.0361 136.681V131.331H88.8122V136.681H88.0361ZM92.603 135.894L92.9859 136.463C92.7065 136.681 92.3547 136.805 91.9925 136.805C91.2267 136.805 90.6886 136.236 90.6886 135.439V132.024H89.8504V131.331H90.6886V129.861H91.4647V131.331H92.7789V132.024H91.4647V135.439C91.4647 135.832 91.7338 136.112 92.0442 136.112C92.2822 136.112 92.4892 136.018 92.603 135.894ZM94.4143 130.358C94.1245 130.358 93.8969 130.12 93.8969 129.841C93.8969 129.572 94.1245 129.334 94.4143 129.334C94.6937 129.334 94.9214 129.572 94.9214 129.841C94.9214 130.12 94.6937 130.358 94.4143 130.358ZM94.0211 136.681V131.331H94.7972V136.681H94.0211ZM98.8157 136.805C97.2945 136.805 96.0527 135.542 96.0527 134.001C96.0527 132.459 97.2945 131.207 98.8157 131.207C100.326 131.207 101.568 132.459 101.568 134.001C101.568 135.542 100.326 136.805 98.8157 136.805ZM98.8157 136.112C99.8815 136.112 100.761 135.159 100.761 134.001C100.761 132.842 99.8815 131.9 98.8157 131.9C97.7395 131.9 96.8599 132.842 96.8599 134.001C96.8599 135.159 97.7395 136.112 98.8157 136.112ZM105.361 131.207C106.551 131.207 107.368 132.045 107.368 133.276V136.681H106.592V133.38C106.592 132.5 106.044 131.9 105.257 131.9C104.347 131.9 103.602 132.521 103.602 133.276V136.681H102.825V131.331H103.602V132.179C103.912 131.61 104.595 131.207 105.361 131.207ZM110.875 131.207C112.334 131.207 113.048 132.128 113.048 133.421V136.681H112.272V135.842C111.889 136.474 111.093 136.805 110.389 136.805C109.261 136.805 108.433 136.153 108.433 135.097C108.433 134.032 109.385 133.318 110.534 133.318C111.113 133.318 111.724 133.442 112.272 133.618V133.421C112.272 132.697 111.982 131.869 110.823 131.869C110.285 131.869 109.747 132.107 109.261 132.355L108.95 131.724C109.716 131.341 110.358 131.207 110.875 131.207ZM110.523 136.122C111.227 136.122 112.065 135.76 112.272 135.004V134.187C111.786 134.052 111.237 133.969 110.658 133.969C109.861 133.969 109.188 134.425 109.188 135.066C109.188 135.729 109.768 136.122 110.523 136.122ZM114.641 136.681V129.447H115.417V136.681H114.641ZM120.302 130.358C120.012 130.358 119.785 130.12 119.785 129.841C119.785 129.572 120.012 129.334 120.302 129.334C120.581 129.334 120.809 129.572 120.809 129.841C120.809 130.12 120.581 130.358 120.302 130.358ZM119.909 136.681V131.331H120.685V136.681H119.909ZM124.941 131.207C126.131 131.207 126.949 132.045 126.949 133.276V136.681H126.173V133.38C126.173 132.5 125.624 131.9 124.838 131.9C123.927 131.9 123.182 132.521 123.182 133.276V136.681H122.406V131.331H123.182V132.179C123.493 131.61 124.176 131.207 124.941 131.207ZM129.504 130.596V131.331H130.818V132.024H129.504V136.681H128.728V132.024H127.89V131.331H128.728V130.596C128.728 129.799 129.266 129.23 130.032 129.23C130.394 129.23 130.746 129.354 131.025 129.572L130.642 130.141C130.528 130.016 130.321 129.923 130.083 129.923C129.773 129.923 129.504 130.203 129.504 130.596ZM134.043 136.805C132.522 136.805 131.281 135.542 131.281 134.001C131.281 132.459 132.522 131.207 134.043 131.207C135.554 131.207 136.796 132.459 136.796 134.001C136.796 135.542 135.554 136.805 134.043 136.805ZM134.043 136.112C135.109 136.112 135.989 135.159 135.989 134.001C135.989 132.842 135.109 131.9 134.043 131.9C132.967 131.9 132.088 132.842 132.088 134.001C132.088 135.159 132.967 136.112 134.043 136.112ZM138.829 132.376C139.15 131.662 139.916 131.207 140.899 131.207V131.9C139.688 131.9 138.829 132.645 138.829 133.69V136.681H138.053V131.331H138.829V132.376ZM147.861 131.207C148.979 131.207 149.765 132.065 149.765 133.276V136.681H148.989V133.38C148.989 132.51 148.482 131.9 147.758 131.9C146.909 131.9 146.309 132.469 146.309 133.276V136.681H145.533V133.38C145.533 132.51 145.026 131.9 144.301 131.9C143.453 131.9 142.853 132.469 142.853 133.276V136.681H142.077V131.331H142.853V132.117C143.122 131.558 143.701 131.207 144.405 131.207C145.253 131.207 145.916 131.703 146.185 132.479C146.35 131.724 147.013 131.207 147.861 131.207ZM153.279 131.207C154.738 131.207 155.452 132.128 155.452 133.421V136.681H154.676V135.842C154.293 136.474 153.497 136.805 152.793 136.805C151.665 136.805 150.837 136.153 150.837 135.097C150.837 134.032 151.789 133.318 152.938 133.318C153.517 133.318 154.128 133.442 154.676 133.618V133.421C154.676 132.697 154.386 131.869 153.227 131.869C152.689 131.869 152.151 132.107 151.665 132.355L151.354 131.724C152.12 131.341 152.762 131.207 153.279 131.207ZM152.927 136.122C153.631 136.122 154.469 135.76 154.676 135.004V134.187C154.19 134.052 153.641 133.969 153.062 133.969C152.265 133.969 151.592 134.425 151.592 135.066C151.592 135.729 152.172 136.122 152.927 136.122ZM159.115 135.894L159.498 136.463C159.218 136.681 158.867 136.805 158.504 136.805C157.739 136.805 157.201 136.236 157.201 135.439V132.024H156.362V131.331H157.201V129.861H157.977V131.331H159.291V132.024H157.977V135.439C157.977 135.832 158.246 136.112 158.556 136.112C158.794 136.112 159.001 136.018 159.115 135.894ZM160.926 130.358C160.637 130.358 160.409 130.12 160.409 129.841C160.409 129.572 160.637 129.334 160.926 129.334C161.206 129.334 161.433 129.572 161.433 129.841C161.433 130.12 161.206 130.358 160.926 130.358ZM160.533 136.681V131.331H161.309V136.681H160.533ZM165.328 136.805C163.806 136.805 162.565 135.542 162.565 134.001C162.565 132.459 163.806 131.207 165.328 131.207C166.838 131.207 168.08 132.459 168.08 134.001C168.08 135.542 166.838 136.805 165.328 136.805ZM165.328 136.112C166.393 136.112 167.273 135.159 167.273 134.001C167.273 132.842 166.393 131.9 165.328 131.9C164.251 131.9 163.372 132.842 163.372 134.001C163.372 135.159 164.251 136.112 165.328 136.112ZM171.873 131.207C173.063 131.207 173.88 132.045 173.88 133.276V136.681H173.104V133.38C173.104 132.5 172.556 131.9 171.769 131.9C170.859 131.9 170.114 132.521 170.114 133.276V136.681H169.337V131.331H170.114V132.179C170.424 131.61 171.107 131.207 171.873 131.207Z" fill="#2EC0FF"/>
<path d="M65.2927 138.057H174.656V138.264H65.2927V138.057Z" fill="#2EC0FF"/>
<line x1="65.2927" y1="152.917" x2="401.208" y2="152.917" stroke="#67777E"/>
<path d="M218.398 179.267C217.229 179.267 216.308 178.842 215.594 178.139L216.101 177.507C216.701 178.108 217.436 178.532 218.429 178.532C219.526 178.532 220.085 177.932 220.085 177.29C220.085 176.535 219.412 176.235 218.17 175.945C216.742 175.614 215.842 175.169 215.842 173.937C215.842 172.799 216.856 171.92 218.222 171.92C219.277 171.92 220.064 172.333 220.716 172.934L220.219 173.565C219.629 172.996 218.926 172.654 218.181 172.654C217.301 172.654 216.659 173.223 216.659 173.875C216.659 174.61 217.363 174.869 218.574 175.158C219.929 175.479 220.902 175.966 220.902 177.218C220.902 178.346 220.054 179.267 218.398 179.267ZM225.917 173.803H226.693V179.153H225.917V178.304C225.606 178.873 224.924 179.277 224.158 179.277C222.968 179.277 222.15 178.439 222.15 177.207V173.803H222.926V177.104C222.926 177.983 223.475 178.584 224.261 178.584C225.172 178.584 225.917 177.963 225.917 177.207V173.803ZM231.131 173.679C232.539 173.679 233.594 174.838 233.594 176.473C233.594 178.118 232.539 179.277 231.131 179.277C230.272 179.277 229.589 178.853 229.186 178.149V179.153H228.41V171.92H229.186V174.807C229.589 174.103 230.272 173.679 231.131 173.679ZM230.986 178.584C232.032 178.584 232.777 177.704 232.777 176.473C232.777 175.241 232.032 174.372 230.986 174.372C229.931 174.372 229.186 175.241 229.186 176.473C229.186 177.704 229.931 178.584 230.986 178.584ZM236.968 178.366L237.351 178.936C237.072 179.153 236.72 179.277 236.358 179.277C235.592 179.277 235.054 178.708 235.054 177.911V174.496H234.216V173.803H235.054V172.333H235.83V173.803H237.144V174.496H235.83V177.911C235.83 178.304 236.099 178.584 236.41 178.584C236.648 178.584 236.855 178.491 236.968 178.366ZM240.684 179.277C239.163 179.277 237.921 178.015 237.921 176.473C237.921 174.931 239.163 173.679 240.684 173.679C242.195 173.679 243.436 174.931 243.436 176.473C243.436 178.015 242.195 179.277 240.684 179.277ZM240.684 178.584C241.75 178.584 242.629 177.632 242.629 176.473C242.629 175.314 241.75 174.372 240.684 174.372C239.607 174.372 238.728 175.314 238.728 176.473C238.728 177.632 239.607 178.584 240.684 178.584ZM246.763 178.366L247.146 178.936C246.867 179.153 246.515 179.277 246.153 179.277C245.387 179.277 244.849 178.708 244.849 177.911V174.496H244.011V173.803H244.849V172.333H245.625V173.803H246.939V174.496H245.625V177.911C245.625 178.304 245.894 178.584 246.204 178.584C246.442 178.584 246.649 178.491 246.763 178.366ZM250.096 173.679C251.555 173.679 252.269 174.6 252.269 175.893V179.153H251.493V178.315C251.11 178.946 250.313 179.277 249.609 179.277C248.481 179.277 247.653 178.625 247.653 177.57C247.653 176.504 248.605 175.79 249.754 175.79C250.334 175.79 250.944 175.914 251.493 176.09V175.893C251.493 175.169 251.203 174.341 250.044 174.341C249.506 174.341 248.968 174.579 248.481 174.827L248.171 174.196C248.937 173.813 249.578 173.679 250.096 173.679ZM249.744 178.594C250.447 178.594 251.286 178.232 251.493 177.476V176.659C251.006 176.524 250.458 176.442 249.878 176.442C249.081 176.442 248.409 176.897 248.409 177.539C248.409 178.201 248.988 178.594 249.744 178.594ZM253.862 179.153V171.92H254.638V179.153H253.862Z" fill="#E3EAED"/>
<path d="M281.474 176.935C281.474 178.194 280.594 179.119 279.022 179.253V179.977H278.008V179.242C276.949 179.131 276.036 178.707 275.322 178.038L276.136 177.047C276.682 177.537 277.295 177.894 278.008 178.027V175.854C276.593 175.498 275.634 175.018 275.634 173.67C275.634 172.433 276.604 171.519 278.008 171.385V170.694H279.022V171.408C279.925 171.519 280.66 171.898 281.273 172.433L280.516 173.447C280.059 173.057 279.546 172.778 279.022 172.645V174.717C280.493 175.074 281.474 175.609 281.474 176.935ZM277.039 173.547C277.039 174.015 277.351 174.249 278.008 174.461V172.589C277.417 172.689 277.039 173.09 277.039 173.547ZM279.022 178.061C279.713 177.949 280.081 177.537 280.081 177.069C280.081 176.579 279.747 176.333 279.022 176.122V178.061ZM284.255 179.153V173.102L282.94 173.937L282.383 172.957L284.533 171.497H285.648V179.153H284.255ZM290.608 174.261C292.012 174.261 293.182 175.152 293.182 176.679C293.182 178.194 291.979 179.287 290.33 179.287C288.145 179.287 287.187 177.66 287.187 175.453C287.187 173.09 288.58 171.363 290.564 171.363C291.522 171.363 292.246 171.697 292.859 172.221L292.18 173.28C291.711 172.868 291.232 172.589 290.564 172.589C289.483 172.589 288.725 173.625 288.625 175.119C289.104 174.584 289.828 174.261 290.608 174.261ZM290.263 178.105C291.199 178.105 291.767 177.437 291.767 176.735C291.767 175.899 291.076 175.397 290.24 175.397C289.494 175.397 288.914 175.81 288.691 176.445C288.859 177.47 289.338 178.105 290.263 178.105ZM295.474 179.287C294.972 179.287 294.582 178.885 294.582 178.395C294.582 177.938 294.972 177.537 295.474 177.537C295.942 177.537 296.332 177.938 296.332 178.395C296.332 178.885 295.942 179.287 295.474 179.287ZM297.667 179.153V178.016L300.487 175.765C301.456 174.985 301.802 174.405 301.802 173.781C301.802 173.057 301.189 172.611 300.498 172.611C299.695 172.611 299.116 173.024 298.559 173.692L297.656 172.856C298.38 171.909 299.305 171.363 300.542 171.363C302.058 171.363 303.217 172.333 303.217 173.748C303.217 174.762 302.749 175.576 301.434 176.59L299.829 177.882H303.295V179.153H297.667ZM307.157 179.287C305.909 179.287 304.973 178.819 304.293 178.105L305.118 177.113C305.697 177.693 306.411 178.083 307.179 178.083C308.104 178.083 308.706 177.481 308.706 176.735C308.706 175.954 308.093 175.431 307.179 175.431C306.578 175.431 306.054 175.631 305.619 175.966L304.672 175.564L304.783 171.497H309.676V172.767H306.087L306.02 174.74C306.411 174.472 306.912 174.272 307.57 174.272C308.929 174.272 310.099 175.141 310.099 176.679C310.099 178.261 308.907 179.287 307.157 179.287Z" fill="#E3EAED"/>
<path d="M304.288 220.044C302.425 220.044 300.849 218.487 300.849 216.644C300.849 214.8 302.425 213.253 304.288 213.253C305.253 213.253 306.141 213.664 306.771 214.313L305.921 215.106C305.511 214.638 304.928 214.342 304.288 214.342C303.084 214.342 302.062 215.392 302.062 216.644C302.062 217.905 303.084 218.955 304.288 218.955C304.928 218.955 305.511 218.659 305.931 218.191L306.771 218.974C306.141 219.634 305.253 220.044 304.288 220.044ZM313.624 219.93L313.109 218.688H309.976L309.46 219.93H308.132L310.873 213.367H312.201L314.943 219.93H313.624ZM310.386 217.714H312.698L311.542 214.953L310.386 217.714ZM316.882 219.93V213.367H318.066L321.534 217.981V213.367H322.718V219.93H321.534L318.066 215.316V219.93H316.882ZM328.336 220.044C326.473 220.044 324.897 218.487 324.897 216.644C324.897 214.8 326.473 213.253 328.336 213.253C329.301 213.253 330.189 213.664 330.82 214.313L329.969 215.106C329.559 214.638 328.976 214.342 328.336 214.342C327.132 214.342 326.11 215.392 326.11 216.644C326.11 217.905 327.132 218.955 328.336 218.955C328.976 218.955 329.559 218.659 329.979 218.191L330.82 218.974C330.189 219.634 329.301 220.044 328.336 220.044ZM337.787 214.456H334.043V216.042H337.424V217.131H334.043V218.841H337.787V219.93H332.849V213.367H337.787V214.456ZM341.21 218.841H344.582V219.93H340.025V213.367H341.21V218.841Z" fill="#2EC0FF"/>
<path d="M294.004 203.5H352.74C354.278 203.5 355.526 204.747 355.526 206.286V228.574C355.526 230.112 354.278 231.36 352.74 231.36H294.004C292.465 231.36 291.218 230.112 291.218 228.574V206.286C291.218 204.747 292.465 203.5 294.004 203.5Z" stroke="#2EC0FF" stroke-width="0.796007"/>
<path d="M362.292 206.286C362.292 204.527 363.717 203.102 365.476 203.102H440.212C441.97 203.102 443.396 204.527 443.396 206.286V228.574C443.396 230.332 441.97 231.758 440.212 231.758H365.476C363.717 231.758 362.292 230.332 362.292 228.574V206.286Z" fill="#2EC0FF"/>
<path d="M375.76 220.044C373.897 220.044 372.321 218.487 372.321 216.644C372.321 214.8 373.897 213.253 375.76 213.253C376.725 213.253 377.613 213.664 378.244 214.313L377.394 215.106C376.983 214.638 376.4 214.342 375.76 214.342C374.557 214.342 373.534 215.392 373.534 216.644C373.534 217.905 374.557 218.955 375.76 218.955C376.4 218.955 376.983 218.659 377.403 218.191L378.244 218.974C377.613 219.634 376.725 220.044 375.76 220.044ZM384.734 213.367H385.928V219.93H384.734V217.131H381.457V219.93H380.273V213.367H381.457V216.042H384.734V213.367ZM393.47 214.456H389.725V216.042H393.107V217.131H389.725V218.841H393.47V219.93H388.531V213.367H393.47V214.456ZM398.717 220.044C396.854 220.044 395.278 218.487 395.278 216.644C395.278 214.8 396.854 213.253 398.717 213.253C399.682 213.253 400.57 213.664 401.2 214.313L400.35 215.106C399.939 214.638 399.357 214.342 398.717 214.342C397.513 214.342 396.491 215.392 396.491 216.644C396.491 217.905 397.513 218.955 398.717 218.955C399.357 218.955 399.939 218.659 400.36 218.191L401.2 218.974C400.57 219.634 399.682 220.044 398.717 220.044ZM403.23 219.93V213.367H404.414V216.577L407.289 213.367H408.76L406.133 216.262L408.942 219.93H407.48L405.302 217.102L404.414 218.057V219.93H403.23ZM413.881 220.044C412.019 220.044 410.443 218.487 410.443 216.644C410.443 214.8 412.019 213.253 413.881 213.253C415.754 213.253 417.33 214.8 417.33 216.644C417.33 218.487 415.754 220.044 413.881 220.044ZM413.881 218.955C415.094 218.955 416.107 217.905 416.107 216.644C416.107 215.392 415.094 214.342 413.881 214.342C412.678 214.342 411.656 215.392 411.656 216.644C411.656 217.905 412.678 218.955 413.881 218.955ZM422.245 220.044C420.555 220.044 419.351 218.841 419.351 217.131V213.367H420.545V217.093C420.545 218.182 421.252 218.965 422.245 218.965C423.248 218.965 423.955 218.182 423.955 217.093V213.367H425.14V217.131C425.14 218.841 423.946 220.044 422.245 220.044ZM429.057 219.93V214.456H426.955V213.367H432.342V214.456H430.251V219.93H429.057Z" fill="black"/>
<rect x="4.40476" y="4.40476" width="457.69" height="246.052" rx="2.83333" stroke="black" stroke-width="0.809524"/>
</g>
<defs>
<filter id="filter0_d_10339_769" x="0" y="0.809524" width="466.5" height="254.862" filterUnits="userSpaceOnUse" color-interpolation-filters="sRGB">
<feFlood flood-opacity="0" result="BackgroundImageFix"/>
<feColorMatrix in="SourceAlpha" type="matrix" values="0 0 0 0 0 0 0 0 0 0 0 0 0 0 0 0 0 0 127 0" result="hardAlpha"/>
<feOffset dy="0.809524"/>
<feGaussianBlur stdDeviation="2"/>
<feColorMatrix type="matrix" values="0 0 0 0 0 0 0 0 0 0 0 0 0 0 0 0 0 0 0.2 0"/>
<feBlend mode="normal" in2="BackgroundImageFix" result="effect1_dropShadow_10339_769"/>
<feBlend mode="normal" in="SourceGraphic" in2="effect1_dropShadow_10339_769" result="shape"/>
</filter>
</defs>
</svg>
