<svg width="452" height="264" viewBox="0 0 452 264" fill="none" xmlns="http://www.w3.org/2000/svg">
<g clip-path="url(#clip0_10491_903)">
<rect width="452" height="264" fill="#22343C"/>
<rect width="452" height="17" fill="#3A4D55"/>
<rect width="84" height="247" transform="translate(1 17)" fill="#1B2B32"/>
<line x1="16" y1="29" x2="68" y2="29" stroke="#4F6169" stroke-width="2" stroke-linecap="round"/>
<line x1="16" y1="38" x2="68" y2="38" stroke="#4F6169" stroke-width="2" stroke-linecap="round"/>
<line x1="16" y1="47" x2="68" y2="47" stroke="#4F6169" stroke-width="2" stroke-linecap="round"/>
<line x1="16" y1="56" x2="68" y2="56" stroke="#4F6169" stroke-width="2" stroke-linecap="round"/>
<line x1="16" y1="65" x2="68" y2="65" stroke="#4F6169" stroke-width="2" stroke-linecap="round"/>
<line x1="108" y1="40" x2="139" y2="40" stroke="#4F6169" stroke-width="2" stroke-linecap="round"/>
<line opacity="0.4" x1="231" y1="47" x2="262" y2="47" stroke="#ACB8BE" stroke-width="2" stroke-linecap="round"/>
<rect x="107.5" y="53.5" width="108" height="70" rx="1.5" fill="#1B2B32"/>
<line opacity="0.4" x1="114" y1="60" x2="145" y2="60" stroke="#ACB8BE" stroke-width="2" stroke-linecap="round"/>
<line x1="108" y1="105.5" x2="216" y2="105.5" stroke="#859399"/>
<path fill-rule="evenodd" clip-rule="evenodd" d="M136.466 93.2402C138.584 91.0932 139.891 88.1445 139.891 84.8906C139.891 78.3236 134.567 73 128 73C121.433 73 116.109 78.3236 116.109 84.8906C116.109 88.1445 117.416 91.0932 119.534 93.2402L118.502 95.027C115.799 92.4926 114.109 88.8889 114.109 84.8906C114.109 77.219 120.328 71 128 71C135.672 71 141.891 77.219 141.891 84.8906C141.891 88.8889 140.201 92.4926 137.498 95.027L136.466 93.2402Z" fill="#FF674C"/>
<path opacity="0.7" d="M139.767 118.98H116.001C115.372 118.98 114.866 118.53 114.866 117.98V111C114.866 110.45 115.372 110 116.001 110H139.767C140.397 110 140.902 110.45 140.902 111V117.98C140.902 118.53 140.397 118.98 139.767 118.98Z" fill="#2EC0FF"/>
<path opacity="0.7" d="M170.901 118.98H147.135C146.506 118.98 146 118.53 146 117.98V111C146 110.45 146.506 110 147.135 110H170.901C171.531 110 172.036 110.45 172.036 111V117.98C172.036 118.53 171.531 118.98 170.901 118.98Z" fill="#2EC0FF"/>
<rect x="107.5" y="53.5" width="108" height="70" rx="1.5" stroke="#4F6169"/>
<rect x="230.5" y="53.5" width="108" height="70" rx="1.5" fill="#1B2B32"/>
<line opacity="0.4" x1="237" y1="60" x2="268" y2="60" stroke="#ACB8BE" stroke-width="2" stroke-linecap="round"/>
<line x1="231" y1="105.5" x2="339" y2="105.5" stroke="#859399"/>
<path fill-rule="evenodd" clip-rule="evenodd" d="M259.466 93.2402C261.584 91.0932 262.891 88.1445 262.891 84.8906C262.891 78.3236 257.567 73 251 73C244.433 73 239.109 78.3236 239.109 84.8906C239.109 88.1445 240.416 91.0932 242.534 93.2402L241.502 95.027C238.799 92.4926 237.109 88.8889 237.109 84.8906C237.109 77.219 243.328 71 251 71C258.672 71 264.891 77.219 264.891 84.8906C264.891 88.8889 263.201 92.4926 260.498 95.027L259.466 93.2402Z" fill="#67CA16"/>
<path opacity="0.7" d="M262.767 118.98H239.001C238.372 118.98 237.866 118.53 237.866 117.98V111C237.866 110.45 238.372 110 239.001 110H262.767C263.397 110 263.902 110.45 263.902 111V117.98C263.902 118.53 263.397 118.98 262.767 118.98Z" fill="#2EC0FF"/>
<path opacity="0.7" d="M293.901 118.98H270.135C269.506 118.98 269 118.53 269 117.98V111C269 110.45 269.506 110 270.135 110H293.901C294.531 110 295.036 110.45 295.036 111V117.98C295.036 118.53 294.531 118.98 293.901 118.98Z" fill="#2EC0FF"/>
<rect x="230.5" y="53.5" width="108" height="70" rx="1.5" stroke="#4F6169"/>
<line opacity="0.4" x1="152" y1="84" x2="198" y2="84" stroke="#ACB8BE" stroke-width="2" stroke-linecap="round"/>
<line opacity="0.4" x1="275" y1="84" x2="321" y2="84" stroke="#ACB8BE" stroke-width="2" stroke-linecap="round"/>
<line opacity="0.4" x1="152" y1="88" x2="198" y2="88" stroke="#ACB8BE" stroke-width="2" stroke-linecap="round"/>
<line opacity="0.4" x1="275" y1="88" x2="321" y2="88" stroke="#ACB8BE" stroke-width="2" stroke-linecap="round"/>
<line opacity="0.4" x1="152" y1="92" x2="198" y2="92" stroke="#ACB8BE" stroke-width="2" stroke-linecap="round"/>
<line opacity="0.4" x1="275" y1="92" x2="321" y2="92" stroke="#ACB8BE" stroke-width="2" stroke-linecap="round"/>
<path d="M109 140.5H422C422.828 140.5 423.5 141.172 423.5 142V162.5H107.5V142C107.5 141.172 108.172 140.5 109 140.5Z" fill="#2D4048" stroke="#4F6169"/>
<path d="M107.5 183.5V162.5H423.5V183.5H107.5Z" fill="#22343C" stroke="#4F6169"/>
<path d="M107.5 205.5V183.5H423.5V205.5H107.5Z" fill="#22343C" stroke="#4F6169"/>
<path d="M107.5 227.5V205.5H423.5V227.5H107.5Z" fill="#22343C" stroke="#4F6169"/>
<line opacity="0.4" x1="125" y1="151" x2="192" y2="151" stroke="#ACB8BE" stroke-width="2" stroke-linecap="round"/>
<line opacity="0.4" x1="125" y1="174" x2="192" y2="174" stroke="#ACB8BE" stroke-width="2" stroke-linecap="round"/>
<line opacity="0.4" x1="125" y1="195" x2="192" y2="195" stroke="#ACB8BE" stroke-width="2" stroke-linecap="round"/>
<line opacity="0.4" x1="125" y1="217" x2="192" y2="217" stroke="#ACB8BE" stroke-width="2" stroke-linecap="round"/>
<line opacity="0.4" x1="338" y1="151" x2="405" y2="151" stroke="#ACB8BE" stroke-width="2" stroke-linecap="round"/>
<line opacity="0.4" x1="338" y1="174" x2="405" y2="174" stroke="#ACB8BE" stroke-width="2" stroke-linecap="round"/>
<line opacity="0.4" x1="338" y1="195" x2="405" y2="195" stroke="#ACB8BE" stroke-width="2" stroke-linecap="round"/>
<line opacity="0.4" x1="338" y1="217" x2="405" y2="217" stroke="#ACB8BE" stroke-width="2" stroke-linecap="round"/>
<line opacity="0.4" x1="251" y1="151" x2="289" y2="151" stroke="#ACB8BE" stroke-width="2" stroke-linecap="round"/>
<line opacity="0.4" x1="251" y1="174" x2="289" y2="174" stroke="#ACB8BE" stroke-width="2" stroke-linecap="round"/>
<line opacity="0.4" x1="251" y1="195" x2="289" y2="195" stroke="#ACB8BE" stroke-width="2" stroke-linecap="round"/>
<line opacity="0.4" x1="251" y1="217" x2="289" y2="217" stroke="#ACB8BE" stroke-width="2" stroke-linecap="round"/>
</g>
<rect x="0.5" y="0.5" width="451" height="263" stroke="#4F6169"/>
<defs>
<clipPath id="clip0_10491_903">
<rect width="452" height="264" fill="white"/>
</clipPath>
</defs>
</svg>
