<svg width="452" height="288" viewBox="0 0 452 288" fill="none" xmlns="http://www.w3.org/2000/svg">
<g clip-path="url(#clip0_11240_3786)">
<rect width="452" height="288" fill="#1B2B32"/>
<path opacity="0.3" d="M452 0H0V288H452V0Z" fill="black"/>
<path d="M451 0H0V23H451V0Z" fill="black"/>
<g filter="url(#filter0_d_11240_3786)">
<rect x="62" y="53" width="330" height="189" fill="#22343C"/>
<rect x="62.608" y="53.608" width="328.784" height="187.784" stroke="black" stroke-width="1.216" stroke-linecap="square"/>
<g clip-path="url(#clip1_11240_3786)">
<path opacity="0.76" d="M228.723 183C254.527 183 275.445 162.181 275.445 136.5C275.445 110.819 254.527 90 228.723 90C202.918 90 182 110.819 182 136.5C182 162.181 202.918 183 228.723 183Z" fill="url(#paint0_linear_11240_3786)"/>
<path d="M227.613 154.188V174.432" stroke="#113D56" stroke-width="0.292896" stroke-miterlimit="10"/>
<path d="M253.584 162.51V168.502" stroke="#113D56" stroke-width="0.244495" stroke-miterlimit="10"/>
<path d="M276 125.437L265.111 116.133C262.686 114.068 259.07 114.15 256.748 116.358L253.44 119.487C250.934 121.859 246.948 121.756 244.585 119.241C242.53 117.053 239.181 116.644 236.654 118.28L226.401 124.906L276 125.437Z" fill="url(#paint1_linear_11240_3786)"/>
<path d="M230.346 110.162L226.627 103.885C224.675 100.572 220.73 98.9974 217.011 99.9994L215.162 100.49C212.162 101.308 208.957 100.429 206.779 98.2203L205.074 96.4822C201.91 93.2513 196.773 93.0264 193.342 95.971C192.561 96.6458 191.698 97.1366 190.773 97.4842C188.945 101.329 187.548 105.439 186.644 109.753L230.346 110.162Z" stroke="white" stroke-width="0.292896" stroke-miterlimit="10"/>
<path d="M227.88 111.86L224.161 105.582C222.209 102.269 218.264 100.695 214.545 101.697L212.696 102.187C209.696 103.005 206.491 102.126 204.313 99.9176L202.608 98.1795C199.444 94.9486 194.307 94.7237 190.876 97.6683C190.095 98.3431 189.232 98.8338 188.308 99.1815C186.479 103.026 185.082 107.136 184.178 111.451L227.88 111.86Z" fill="url(#paint2_linear_11240_3786)"/>
<path opacity="0.49" d="M262.686 148.36C262.686 153.738 254.139 160.711 254.139 160.711C254.139 160.711 245.592 153.717 245.592 148.36C245.592 142.982 249.413 138.626 254.139 138.626C258.865 138.647 262.686 142.982 262.686 148.36Z" fill="#6991A3"/>
<path d="M255.741 157.685C254.18 159.28 252.906 160.322 252.906 160.322C252.906 160.322 244.358 153.329 244.358 147.972C244.358 142.594 248.18 138.238 252.906 138.238C257.631 138.238 261.453 142.594 261.453 147.972" stroke="#113D56" stroke-width="0.292896" stroke-miterlimit="10"/>
<path d="M242.961 124.946C242.961 135.559 226.031 149.403 226.031 149.403C226.031 149.403 209.101 135.58 209.101 124.946C209.101 114.313 216.682 105.704 226.031 105.704C235.379 105.704 242.961 114.334 242.961 124.946Z" fill="white"/>
<path d="M225.559 153.37L231.723 153.166L228.641 148.053L225.559 153.37Z" fill="#05A9E2"/>
<path d="M226.832 149.014L225.147 152.143L229.873 151.734L229.133 149.975" stroke="#113D56" stroke-width="0.292896" stroke-miterlimit="10"/>
<path d="M206.82 159.055V168.502" stroke="#113D56" stroke-width="0.365022" stroke-miterlimit="10"/>
<path d="M219.128 134.373C219.128 143.105 205.197 154.474 205.197 154.474C205.197 154.474 191.287 143.105 191.287 134.373C191.287 125.642 197.513 118.546 205.218 118.546C212.923 118.546 219.128 125.621 219.128 134.373Z" fill="white"/>
<path d="M221.798 136.009C221.798 144.741 207.868 156.11 207.868 156.11C207.868 156.11 193.958 144.741 193.958 136.009C193.958 127.278 200.184 120.182 207.888 120.182C215.593 120.182 221.798 127.257 221.798 136.009Z" fill="#FF7212"/>
<path d="M244.811 126.378C244.811 136.991 227.88 150.834 227.88 150.834C227.88 150.834 210.95 137.011 210.95 126.378C210.95 115.745 218.532 107.136 227.88 107.136C237.229 107.136 244.811 115.765 244.811 126.378Z" fill="#05A9E2"/>
<path d="M198.232 135.886C198.232 131.163 200.616 127.073 204.068 125.069" stroke="#FF9954" stroke-width="1.90383" stroke-miterlimit="10"/>
<path opacity="0.53" d="M211.69 120.775C211.217 122.554 210.971 124.415 210.971 126.378C210.971 131.776 215.347 137.993 219.641 142.818C220.936 140.528 221.819 138.177 221.819 135.989C221.799 128.77 217.525 122.656 211.69 120.775Z" fill="#113D56"/>
<path d="M206.861 154.801L204.19 160.527L209.533 160.118L207.272 154.392L206.861 154.801Z" fill="#FF7212"/>
<path d="M208.957 153.206C207.354 154.699 206.245 155.619 206.245 155.619C206.245 155.619 192.314 144.25 192.314 135.518C192.314 126.787 198.54 119.691 206.245 119.691C213.95 119.691 220.175 126.766 220.175 135.518" stroke="#113D56" stroke-width="0.365022" stroke-miterlimit="10"/>
<path d="M205.752 155.681L203.184 159.505H209.08L206.861 155.169" stroke="#113D56" stroke-width="0.365022" stroke-miterlimit="10"/>
<path d="M253.07 160.302L252.043 162.183L254.776 161.836L253.748 160.302" stroke="#113D56" stroke-width="0.244495" stroke-miterlimit="10"/>
<path opacity="0.49" d="M254.242 159.811L253.029 162.551L255.598 161.877L254.242 159.811Z" fill="#6991A3"/>
<path d="M244.4 123.924C244.4 134.537 227.469 148.381 227.469 148.381C227.469 148.381 210.539 134.557 210.539 123.924C210.539 113.291 218.121 104.682 227.469 104.682C236.818 104.682 244.4 113.311 244.4 123.924Z" stroke="#113D56" stroke-width="0.292896" stroke-miterlimit="10"/>
<path d="M220.36 122.063L215.285 119.385C217.422 115.418 220.853 112.187 224.983 110.326L227.366 115.54C224.387 116.89 221.901 119.201 220.36 122.063Z" fill="#25C8F4"/>
</g>
<path d="M182.755 205.156C180.285 205.156 178.179 203.037 178.179 200.528C178.179 198.019 180.285 195.913 182.755 195.913C183.99 195.913 185.134 196.433 185.966 197.278L185.277 197.98C184.627 197.291 183.73 196.849 182.755 196.849C180.831 196.849 179.206 198.539 179.206 200.528C179.206 202.53 180.831 204.22 182.755 204.22C183.73 204.22 184.627 203.778 185.277 203.089L185.966 203.791C185.134 204.623 183.99 205.156 182.755 205.156ZM190.447 205.156C188.562 205.156 186.963 203.544 186.963 201.633C186.963 199.722 188.562 198.123 190.447 198.123C192.332 198.123 193.918 199.722 193.918 201.633C193.918 203.544 192.332 205.156 190.447 205.156ZM190.447 204.285C191.773 204.285 192.891 203.076 192.891 201.633C192.891 200.203 191.773 198.994 190.447 198.994C189.108 198.994 187.99 200.203 187.99 201.633C187.99 203.076 189.108 204.285 190.447 204.285ZM198.726 198.123C200.208 198.123 201.248 199.202 201.248 200.723V205H200.273V200.853C200.273 199.761 199.584 198.994 198.596 198.994C197.465 198.994 196.516 199.787 196.516 200.723V205H195.541V198.279H196.516V199.358C196.906 198.643 197.777 198.123 198.726 198.123ZM208.447 198.279H209.422V204.285C209.422 206.014 208.057 207.236 206.12 207.236C205.028 207.236 204.014 206.859 203.403 206.339L203.832 205.572C204.352 206.066 205.158 206.365 205.99 206.365C207.537 206.365 208.447 205.598 208.447 204.285V203.193C207.927 204.012 207.069 204.506 206.003 204.506C204.196 204.506 202.909 203.18 202.909 201.308C202.909 199.436 204.196 198.123 206.003 198.123C207.069 198.123 207.927 198.617 208.447 199.436V198.279ZM206.185 203.635C207.511 203.635 208.447 202.673 208.447 201.308C208.447 199.956 207.511 198.994 206.185 198.994C204.872 198.994 203.936 199.956 203.936 201.308C203.936 202.673 204.872 203.635 206.185 203.635ZM212.552 199.592C212.955 198.695 213.917 198.123 215.152 198.123V198.994C213.631 198.994 212.552 199.93 212.552 201.243V205H211.577V198.279H212.552V199.592ZM219.231 198.123C221.064 198.123 221.961 199.28 221.961 200.905V205H220.986V203.947C220.505 204.74 219.504 205.156 218.62 205.156C217.203 205.156 216.163 204.337 216.163 203.011C216.163 201.672 217.359 200.775 218.802 200.775C219.53 200.775 220.297 200.931 220.986 201.152V200.905C220.986 199.995 220.622 198.955 219.166 198.955C218.49 198.955 217.814 199.254 217.203 199.566L216.813 198.773C217.775 198.292 218.581 198.123 219.231 198.123ZM218.789 204.298C219.673 204.298 220.726 203.843 220.986 202.894V201.867C220.375 201.698 219.686 201.594 218.958 201.594C217.957 201.594 217.112 202.166 217.112 202.972C217.112 203.804 217.84 204.298 218.789 204.298ZM226.904 204.012L227.385 204.727C227.034 205 226.592 205.156 226.137 205.156C225.175 205.156 224.499 204.441 224.499 203.44V199.15H223.446V198.279H224.499V196.433H225.474V198.279H227.125V199.15H225.474V203.44C225.474 203.934 225.812 204.285 226.202 204.285C226.501 204.285 226.761 204.168 226.904 204.012ZM233.496 198.279H234.471V205H233.496V203.921C233.106 204.636 232.235 205.156 231.286 205.156C229.804 205.156 228.764 204.077 228.764 202.556V198.279H229.739V202.426C229.739 203.518 230.428 204.285 231.416 204.285C232.547 204.285 233.496 203.492 233.496 202.556V198.279ZM236.458 205V195.913H237.433V205H236.458ZM242.133 198.123C243.966 198.123 244.863 199.28 244.863 200.905V205H243.888V203.947C243.407 204.74 242.406 205.156 241.522 205.156C240.105 205.156 239.065 204.337 239.065 203.011C239.065 201.672 240.261 200.775 241.704 200.775C242.432 200.775 243.199 200.931 243.888 201.152V200.905C243.888 199.995 243.524 198.955 242.068 198.955C241.392 198.955 240.716 199.254 240.105 199.566L239.715 198.773C240.677 198.292 241.483 198.123 242.133 198.123ZM241.691 204.298C242.575 204.298 243.628 203.843 243.888 202.894V201.867C243.277 201.698 242.588 201.594 241.86 201.594C240.859 201.594 240.014 202.166 240.014 202.972C240.014 203.804 240.742 204.298 241.691 204.298ZM249.806 204.012L250.287 204.727C249.936 205 249.494 205.156 249.039 205.156C248.077 205.156 247.401 204.441 247.401 203.44V199.15H246.348V198.279H247.401V196.433H248.376V198.279H250.027V199.15H248.376V203.44C248.376 203.934 248.714 204.285 249.104 204.285C249.403 204.285 249.663 204.168 249.806 204.012ZM252.148 197.057C251.784 197.057 251.498 196.758 251.498 196.407C251.498 196.069 251.784 195.77 252.148 195.77C252.499 195.77 252.785 196.069 252.785 196.407C252.785 196.758 252.499 197.057 252.148 197.057ZM251.654 205V198.279H252.629V205H251.654ZM257.707 205.156C255.822 205.156 254.223 203.544 254.223 201.633C254.223 199.722 255.822 198.123 257.707 198.123C259.592 198.123 261.178 199.722 261.178 201.633C261.178 203.544 259.592 205.156 257.707 205.156ZM257.707 204.285C259.033 204.285 260.151 203.076 260.151 201.633C260.151 200.203 259.033 198.994 257.707 198.994C256.368 198.994 255.25 200.203 255.25 201.633C255.25 203.076 256.368 204.285 257.707 204.285ZM265.986 198.123C267.468 198.123 268.508 199.202 268.508 200.723V205H267.533V200.853C267.533 199.761 266.844 198.994 265.856 198.994C264.725 198.994 263.776 199.787 263.776 200.723V205H262.801V198.279H263.776V199.358C264.166 198.643 265.037 198.123 265.986 198.123ZM272.86 205.156C271.924 205.156 270.884 204.805 270.078 204.155L270.585 203.44C271.352 203.999 272.119 204.285 272.86 204.285C273.744 204.285 274.342 203.869 274.342 203.232C274.342 202.504 273.562 202.27 272.652 202.01C271.027 201.542 270.403 201.061 270.403 200.099C270.403 198.877 271.417 198.123 272.756 198.123C273.588 198.123 274.446 198.409 275.161 198.877L274.693 199.631C274.017 199.202 273.354 198.994 272.756 198.994C272.002 198.994 271.378 199.332 271.378 199.982C271.378 200.567 271.872 200.749 273.12 201.152C274.199 201.49 275.317 201.854 275.317 203.128C275.317 204.363 274.251 205.156 272.86 205.156ZM277.398 202.491L277.151 196.069H278.347L278.087 202.491H277.398ZM277.736 205.156C277.333 205.156 277.021 204.831 277.021 204.441C277.021 204.077 277.333 203.752 277.736 203.752C278.113 203.752 278.425 204.077 278.425 204.441C278.425 204.831 278.113 205.156 277.736 205.156Z" fill="white"/>
</g>
<path d="M375.996 70.9669L380.866 66.1069C381.093 65.8424 381.078 65.4481 380.831 65.2019C380.584 64.9556 380.189 64.9404 379.924 65.1669L375.054 70.0269L370.183 65.1603C369.917 64.9337 369.522 64.949 369.276 65.1952C369.028 65.4415 369.013 65.8357 369.241 66.1003L374.111 70.9669L369.234 75.8269C369.043 75.9898 368.96 76.2457 369.018 76.4892C369.077 76.7327 369.268 76.9229 369.512 76.9815C369.756 77.04 370.012 76.9572 370.176 76.7669L375.054 71.9069L379.924 76.7669C380.189 76.9935 380.584 76.9782 380.831 76.732C381.078 76.4857 381.093 76.0914 380.866 75.8269L375.996 70.9669Z" fill="#ACB8BE"/>
</g>
<rect x="0.394911" y="0.394911" width="451.21" height="287.21" stroke="#4F6169" stroke-width="0.789823"/>
<defs>
<filter id="filter0_d_11240_3786" x="60" y="52" width="334" height="193" filterUnits="userSpaceOnUse" color-interpolation-filters="sRGB">
<feFlood flood-opacity="0" result="BackgroundImageFix"/>
<feColorMatrix in="SourceAlpha" type="matrix" values="0 0 0 0 0 0 0 0 0 0 0 0 0 0 0 0 0 0 127 0" result="hardAlpha"/>
<feOffset dy="1"/>
<feGaussianBlur stdDeviation="1"/>
<feColorMatrix type="matrix" values="0 0 0 0 0 0 0 0 0 0 0 0 0 0 0 0 0 0 0.8 0"/>
<feBlend mode="normal" in2="BackgroundImageFix" result="effect1_dropShadow_11240_3786"/>
<feBlend mode="normal" in="SourceGraphic" in2="effect1_dropShadow_11240_3786" result="shape"/>
</filter>
<linearGradient id="paint0_linear_11240_3786" x1="228.718" y1="186.849" x2="228.718" y2="68.2355" gradientUnits="userSpaceOnUse">
<stop offset="0.2013" stop-color="#05A9E2" stop-opacity="0"/>
<stop offset="1" stop-color="#05A9E2"/>
</linearGradient>
<linearGradient id="paint1_linear_11240_3786" x1="251.203" y1="125.375" x2="251.203" y2="121.368" gradientUnits="userSpaceOnUse">
<stop stop-color="#05AAE2" stop-opacity="0"/>
<stop offset="1" stop-color="#209EC9"/>
</linearGradient>
<linearGradient id="paint2_linear_11240_3786" x1="206.03" y1="111.765" x2="206.03" y2="105.731" gradientUnits="userSpaceOnUse">
<stop stop-color="#05AAE2" stop-opacity="0"/>
<stop offset="1" stop-color="#209EC9"/>
</linearGradient>
<clipPath id="clip0_11240_3786">
<rect width="452" height="288" fill="white"/>
</clipPath>
<clipPath id="clip1_11240_3786">
<rect width="94" height="93" fill="white" transform="translate(182 90)"/>
</clipPath>
</defs>
</svg>
