<svg width="452" height="288" viewBox="0 0 452 288" fill="none" xmlns="http://www.w3.org/2000/svg">
<rect x="0.5" y="0.5" width="451" height="287" fill="#1B2B32"/>
<rect x="0.5" y="0.5" width="451" height="287" stroke="#4F6169"/>
<rect x="1" y="1" width="450" height="23" fill="black"/>
<path d="M27.487 55.121C26.244 55.121 25.265 54.67 24.506 53.922L25.045 53.251C25.683 53.889 26.464 54.34 27.52 54.34C28.686 54.34 29.28 53.702 29.28 53.02C29.28 52.217 28.565 51.898 27.245 51.59C25.727 51.238 24.77 50.765 24.77 49.456C24.77 48.246 25.848 47.311 27.3 47.311C28.422 47.311 29.258 47.751 29.951 48.389L29.423 49.06C28.796 48.455 28.048 48.092 27.256 48.092C26.321 48.092 25.639 48.697 25.639 49.39C25.639 50.171 26.387 50.446 27.674 50.754C29.115 51.095 30.149 51.612 30.149 52.943C30.149 54.142 29.247 55.121 27.487 55.121ZM34.0904 54.395C34.7614 54.395 35.5314 54.098 35.8834 53.713L36.3894 54.252C35.8944 54.791 34.8934 55.132 34.1014 55.132C32.5834 55.132 31.2194 53.889 31.2194 52.14C31.2194 50.446 32.4954 49.181 34.0244 49.181C35.7404 49.181 36.7194 50.479 36.7194 52.47H32.0664C32.1874 53.581 32.9684 54.395 34.0904 54.395ZM34.0574 49.918C33.0454 49.918 32.2314 50.633 32.0774 51.733H35.9054C35.7954 50.71 35.1904 49.918 34.0574 49.918ZM40.3054 54.164L40.7124 54.769C40.4154 55 40.0414 55.132 39.6564 55.132C38.8424 55.132 38.2704 54.527 38.2704 53.68V50.05H37.3794V49.313H38.2704V47.751H39.0954V49.313H40.4924V50.05H39.0954V53.68C39.0954 54.098 39.3814 54.395 39.7114 54.395C39.9644 54.395 40.1844 54.296 40.3054 54.164ZM48.7987 49.313H49.6237V55H48.7987V54.098C48.4687 54.703 47.7427 55.132 46.9287 55.132C45.6637 55.132 44.7947 54.241 44.7947 52.932V49.313H45.6197V52.822C45.6197 53.757 46.2027 54.395 47.0387 54.395C48.0067 54.395 48.7987 53.735 48.7987 52.932V49.313ZM54.4262 49.181C55.9222 49.181 57.0442 50.413 57.0442 52.151C57.0442 53.9 55.9222 55.132 54.4262 55.132C53.5132 55.132 52.7872 54.681 52.3582 53.933V56.892H51.5332V49.313H52.3582V50.38C52.7872 49.632 53.5132 49.181 54.4262 49.181ZM54.2722 54.395C55.3832 54.395 56.1752 53.46 56.1752 52.151C56.1752 50.842 55.3832 49.918 54.2722 49.918C53.1502 49.918 52.3582 50.842 52.3582 52.151C52.3582 53.46 53.1502 54.395 54.2722 54.395ZM67.2099 48.257H62.6559V50.743H66.7589V51.557H62.6559V54.186H67.2099V55H61.7869V47.443H67.2099V48.257ZM71.4801 49.181C72.7451 49.181 73.6141 50.072 73.6141 51.381V55H72.7891V51.491C72.7891 50.556 72.2061 49.918 71.3701 49.918C70.4021 49.918 69.6101 50.578 69.6101 51.381V55H68.7851V49.313H69.6101V50.215C69.9401 49.61 70.6661 49.181 71.4801 49.181ZM77.5916 54.164L77.9986 54.769C77.7016 55 77.3276 55.132 76.9426 55.132C76.1286 55.132 75.5566 54.527 75.5566 53.68V50.05H74.6656V49.313H75.5566V47.751H76.3816V49.313H77.7786V50.05H76.3816V53.68C76.3816 54.098 76.6676 54.395 76.9976 54.395C77.2506 54.395 77.4706 54.296 77.5916 54.164ZM81.5816 54.395C82.2526 54.395 83.0226 54.098 83.3746 53.713L83.8806 54.252C83.3856 54.791 82.3846 55.132 81.5926 55.132C80.0746 55.132 78.7106 53.889 78.7106 52.14C78.7106 50.446 79.9866 49.181 81.5156 49.181C83.2316 49.181 84.2106 50.479 84.2106 52.47H79.5576C79.6786 53.581 80.4596 54.395 81.5816 54.395ZM81.5486 49.918C80.5366 49.918 79.7226 50.633 79.5686 51.733H83.3966C83.2866 50.71 82.6816 49.918 81.5486 49.918ZM86.4216 50.424C86.7626 49.665 87.5766 49.181 88.6216 49.181V49.918C87.3346 49.918 86.4216 50.71 86.4216 51.821V55H85.5966V49.313H86.4216V50.424ZM92.851 49.181C94.347 49.181 95.469 50.413 95.469 52.151C95.469 53.9 94.347 55.132 92.851 55.132C91.938 55.132 91.212 54.681 90.783 53.933V56.892H89.958V49.313H90.783V50.38C91.212 49.632 91.938 49.181 92.851 49.181ZM92.697 54.395C93.808 54.395 94.6 53.46 94.6 52.151C94.6 50.842 93.808 49.918 92.697 49.918C91.575 49.918 90.783 50.842 90.783 52.151C90.783 53.46 91.575 54.395 92.697 54.395ZM97.7654 50.424C98.1064 49.665 98.9204 49.181 99.9654 49.181V49.918C98.6784 49.918 97.7654 50.71 97.7654 51.821V55H96.9404V49.313H97.7654V50.424ZM101.72 48.279C101.412 48.279 101.17 48.026 101.17 47.729C101.17 47.443 101.412 47.19 101.72 47.19C102.017 47.19 102.259 47.443 102.259 47.729C102.259 48.026 102.017 48.279 101.72 48.279ZM101.302 55V49.313H102.127V55H101.302ZM105.801 55.132C105.009 55.132 104.129 54.835 103.447 54.285L103.876 53.68C104.525 54.153 105.174 54.395 105.801 54.395C106.549 54.395 107.055 54.043 107.055 53.504C107.055 52.888 106.395 52.69 105.625 52.47C104.25 52.074 103.722 51.667 103.722 50.853C103.722 49.819 104.58 49.181 105.713 49.181C106.417 49.181 107.143 49.423 107.748 49.819L107.352 50.457C106.78 50.094 106.219 49.918 105.713 49.918C105.075 49.918 104.547 50.204 104.547 50.754C104.547 51.249 104.965 51.403 106.021 51.744C106.934 52.03 107.88 52.338 107.88 53.416C107.88 54.461 106.978 55.132 105.801 55.132ZM111.692 54.395C112.363 54.395 113.133 54.098 113.485 53.713L113.991 54.252C113.496 54.791 112.495 55.132 111.703 55.132C110.185 55.132 108.821 53.889 108.821 52.14C108.821 50.446 110.097 49.181 111.626 49.181C113.342 49.181 114.321 50.479 114.321 52.47H109.668C109.789 53.581 110.57 54.395 111.692 54.395ZM111.659 49.918C110.647 49.918 109.833 50.633 109.679 51.733H113.507C113.397 50.71 112.792 49.918 111.659 49.918ZM124.401 48.257H119.847V50.743H123.95V51.557H119.847V55H118.978V47.443H124.401V48.257ZM128.16 54.395C128.831 54.395 129.601 54.098 129.953 53.713L130.459 54.252C129.964 54.791 128.963 55.132 128.171 55.132C126.653 55.132 125.289 53.889 125.289 52.14C125.289 50.446 126.565 49.181 128.094 49.181C129.81 49.181 130.789 50.479 130.789 52.47H126.136C126.257 53.581 127.038 54.395 128.16 54.395ZM128.127 49.918C127.115 49.918 126.301 50.633 126.147 51.733H129.975C129.865 50.71 129.26 49.918 128.127 49.918ZM136.421 47.311H137.246V55H136.421V53.933C135.992 54.681 135.266 55.132 134.353 55.132C132.857 55.132 131.735 53.9 131.735 52.151C131.735 50.413 132.857 49.181 134.353 49.181C135.266 49.181 135.992 49.632 136.421 50.38V47.311ZM134.507 54.395C135.629 54.395 136.421 53.46 136.421 52.151C136.421 50.842 135.629 49.918 134.507 49.918C133.396 49.918 132.604 50.842 132.604 52.151C132.604 53.46 133.396 54.395 134.507 54.395ZM141.555 54.395C142.226 54.395 142.996 54.098 143.348 53.713L143.854 54.252C143.359 54.791 142.358 55.132 141.566 55.132C140.048 55.132 138.684 53.889 138.684 52.14C138.684 50.446 139.96 49.181 141.489 49.181C143.205 49.181 144.184 50.479 144.184 52.47H139.531C139.652 53.581 140.433 54.395 141.555 54.395ZM141.522 49.918C140.51 49.918 139.696 50.633 139.542 51.733H143.37C143.26 50.71 142.655 49.918 141.522 49.918ZM146.395 50.424C146.736 49.665 147.55 49.181 148.595 49.181V49.918C147.308 49.918 146.395 50.71 146.395 51.821V55H145.57V49.313H146.395V50.424ZM151.967 49.181C153.518 49.181 154.277 50.16 154.277 51.535V55H153.452V54.109C153.045 54.78 152.198 55.132 151.45 55.132C150.251 55.132 149.371 54.439 149.371 53.317C149.371 52.184 150.383 51.425 151.604 51.425C152.22 51.425 152.869 51.557 153.452 51.744V51.535C153.452 50.765 153.144 49.885 151.912 49.885C151.34 49.885 150.768 50.138 150.251 50.402L149.921 49.731C150.735 49.324 151.417 49.181 151.967 49.181ZM151.593 54.406C152.341 54.406 153.232 54.021 153.452 53.218V52.349C152.935 52.206 152.352 52.118 151.736 52.118C150.889 52.118 150.174 52.602 150.174 53.284C150.174 53.988 150.79 54.406 151.593 54.406ZM158.255 54.164L158.662 54.769C158.365 55 157.991 55.132 157.606 55.132C156.792 55.132 156.22 54.527 156.22 53.68V50.05H155.329V49.313H156.22V47.751H157.045V49.313H158.442V50.05H157.045V53.68C157.045 54.098 157.331 54.395 157.661 54.395C157.914 54.395 158.134 54.296 158.255 54.164ZM160.265 48.279C159.957 48.279 159.715 48.026 159.715 47.729C159.715 47.443 159.957 47.19 160.265 47.19C160.562 47.19 160.804 47.443 160.804 47.729C160.804 48.026 160.562 48.279 160.265 48.279ZM159.847 55V49.313H160.672V55H159.847ZM165.028 55.132C163.411 55.132 162.091 53.79 162.091 52.151C162.091 50.512 163.411 49.181 165.028 49.181C166.634 49.181 167.954 50.512 167.954 52.151C167.954 53.79 166.634 55.132 165.028 55.132ZM165.028 54.395C166.161 54.395 167.096 53.383 167.096 52.151C167.096 50.919 166.161 49.918 165.028 49.918C163.884 49.918 162.949 50.919 162.949 52.151C162.949 53.383 163.884 54.395 165.028 54.395ZM172.07 49.181C173.335 49.181 174.204 50.072 174.204 51.381V55H173.379V51.491C173.379 50.556 172.796 49.918 171.96 49.918C170.992 49.918 170.2 50.578 170.2 51.381V55H169.375V49.313H170.2V50.215C170.53 49.61 171.256 49.181 172.07 49.181Z" fill="#E3EAED"/>
<rect opacity="0.4" x="23.9473" y="72" width="348.23" height="3" rx="1.5" fill="#ACB8BE"/>
<rect opacity="0.4" x="23.9473" y="85" width="93.7925" height="3" rx="1.5" fill="#ACB8BE"/>
<rect width="382.714" height="33.5014" transform="translate(25 102)" fill="#22343C"/>
<path opacity="0.4" fill-rule="evenodd" clip-rule="evenodd" d="M404.714 103H28C26.8954 103 26 103.895 26 105V132.501C26 133.606 26.8954 134.501 28 134.501H404.714C405.819 134.501 406.714 133.606 406.714 132.501V105C406.714 103.895 405.819 103 404.714 103ZM28 102C26.3431 102 25 103.343 25 105V132.501C25 134.158 26.3431 135.501 28 135.501H404.714C406.371 135.501 407.714 134.158 407.714 132.501V105C407.714 103.343 406.371 102 404.714 102H28Z" fill="#ACB8BE"/>
<path d="M36.62 121V115.672L35.54 116.374L35.234 115.852L36.755 114.817H37.322V121H36.62ZM39.3249 121.108C39.0459 121.108 38.8299 120.883 38.8299 120.613C38.8299 120.361 39.0459 120.136 39.3249 120.136C39.5859 120.136 39.8019 120.361 39.8019 120.613C39.8019 120.883 39.5859 121.108 39.3249 121.108ZM49.3059 121.108C47.5959 121.108 46.1379 119.641 46.1379 117.904C46.1379 116.167 47.5959 114.709 49.3059 114.709C50.1609 114.709 50.9529 115.069 51.5289 115.654L51.0519 116.14C50.6019 115.663 49.9809 115.357 49.3059 115.357C47.9739 115.357 46.8489 116.527 46.8489 117.904C46.8489 119.29 47.9739 120.46 49.3059 120.46C49.9809 120.46 50.6019 120.154 51.0519 119.677L51.5289 120.163C50.9529 120.739 50.1609 121.108 49.3059 121.108ZM53.2091 117.256C53.4881 116.635 54.1541 116.239 55.0091 116.239V116.842C53.9561 116.842 53.2091 117.49 53.2091 118.399V121H52.5341V116.347H53.2091V117.256ZM58.0398 120.505C58.5888 120.505 59.2188 120.262 59.5068 119.947L59.9208 120.388C59.5158 120.829 58.6968 121.108 58.0488 121.108C56.8068 121.108 55.6908 120.091 55.6908 118.66C55.6908 117.274 56.7348 116.239 57.9858 116.239C59.3898 116.239 60.1908 117.301 60.1908 118.93H56.3838C56.4828 119.839 57.1218 120.505 58.0398 120.505ZM58.0128 116.842C57.1848 116.842 56.5188 117.427 56.3928 118.327H59.5248C59.4348 117.49 58.9398 116.842 58.0128 116.842ZM63.1853 116.239C64.4543 116.239 65.0753 117.04 65.0753 118.165V121H64.4003V120.271C64.0673 120.82 63.3743 121.108 62.7623 121.108C61.7813 121.108 61.0613 120.541 61.0613 119.623C61.0613 118.696 61.8893 118.075 62.8883 118.075C63.3923 118.075 63.9233 118.183 64.4003 118.336V118.165C64.4003 117.535 64.1483 116.815 63.1403 116.815C62.6723 116.815 62.2043 117.022 61.7813 117.238L61.5113 116.689C62.1773 116.356 62.7353 116.239 63.1853 116.239ZM62.8793 120.514C63.4913 120.514 64.2203 120.199 64.4003 119.542V118.831C63.9773 118.714 63.5003 118.642 62.9963 118.642C62.3033 118.642 61.7183 119.038 61.7183 119.596C61.7183 120.172 62.2223 120.514 62.8793 120.514ZM68.4975 120.316L68.8305 120.811C68.5875 121 68.2815 121.108 67.9665 121.108C67.3005 121.108 66.8325 120.613 66.8325 119.92V116.95H66.1035V116.347H66.8325V115.069H67.5075V116.347H68.6505V116.95H67.5075V119.92C67.5075 120.262 67.7415 120.505 68.0115 120.505C68.2185 120.505 68.3985 120.424 68.4975 120.316ZM71.8826 120.505C72.4316 120.505 73.0616 120.262 73.3496 119.947L73.7636 120.388C73.3586 120.829 72.5396 121.108 71.8916 121.108C70.6496 121.108 69.5336 120.091 69.5336 118.66C69.5336 117.274 70.5776 116.239 71.8286 116.239C73.2326 116.239 74.0336 117.301 74.0336 118.93H70.2266C70.3256 119.839 70.9646 120.505 71.8826 120.505ZM71.8556 116.842C71.0276 116.842 70.3616 117.427 70.2356 118.327H73.3676C73.2776 117.49 72.7826 116.842 71.8556 116.842ZM79.6385 116.239C80.9075 116.239 81.5285 117.04 81.5285 118.165V121H80.8535V120.271C80.5205 120.82 79.8275 121.108 79.2155 121.108C78.2345 121.108 77.5145 120.541 77.5145 119.623C77.5145 118.696 78.3425 118.075 79.3415 118.075C79.8455 118.075 80.3765 118.183 80.8535 118.336V118.165C80.8535 117.535 80.6015 116.815 79.5935 116.815C79.1255 116.815 78.6575 117.022 78.2345 117.238L77.9645 116.689C78.6305 116.356 79.1885 116.239 79.6385 116.239ZM79.3325 120.514C79.9445 120.514 80.6735 120.199 80.8535 119.542V118.831C80.4305 118.714 79.9535 118.642 79.4495 118.642C78.7565 118.642 78.1715 119.038 78.1715 119.596C78.1715 120.172 78.6755 120.514 79.3325 120.514ZM85.0676 121.108C83.7626 121.108 82.6556 119.992 82.6556 118.669C82.6556 117.346 83.7626 116.239 85.0676 116.239C85.6976 116.239 86.2826 116.5 86.7236 116.923L86.2556 117.382C85.9496 117.049 85.5266 116.842 85.0676 116.842C84.1406 116.842 83.3666 117.679 83.3666 118.669C83.3666 119.668 84.1406 120.505 85.0676 120.505C85.5356 120.505 85.9676 120.289 86.2826 119.938L86.7506 120.397C86.3096 120.838 85.7156 121.108 85.0676 121.108ZM89.9456 121.108C88.6406 121.108 87.5336 119.992 87.5336 118.669C87.5336 117.346 88.6406 116.239 89.9456 116.239C90.5756 116.239 91.1606 116.5 91.6016 116.923L91.1336 117.382C90.8276 117.049 90.4046 116.842 89.9456 116.842C89.0186 116.842 88.2446 117.679 88.2446 118.669C88.2446 119.668 89.0186 120.505 89.9456 120.505C90.4136 120.505 90.8456 120.289 91.1606 119.938L91.6286 120.397C91.1876 120.838 90.5936 121.108 89.9456 121.108ZM94.7268 121.108C93.4218 121.108 92.3148 119.992 92.3148 118.669C92.3148 117.346 93.4218 116.239 94.7268 116.239C96.0318 116.239 97.1298 117.346 97.1298 118.669C97.1298 119.992 96.0318 121.108 94.7268 121.108ZM94.7268 120.505C95.6448 120.505 96.4188 119.668 96.4188 118.669C96.4188 117.679 95.6448 116.842 94.7268 116.842C93.7998 116.842 93.0258 117.679 93.0258 118.669C93.0258 119.668 93.7998 120.505 94.7268 120.505ZM101.521 116.347H102.196V121H101.521V120.253C101.251 120.748 100.648 121.108 99.9905 121.108C98.9645 121.108 98.2445 120.361 98.2445 119.308V116.347H98.9195V119.218C98.9195 119.974 99.3965 120.505 100.081 120.505C100.864 120.505 101.521 119.956 101.521 119.308V116.347ZM105.785 116.239C106.811 116.239 107.531 116.986 107.531 118.039V121H106.856V118.129C106.856 117.373 106.379 116.842 105.695 116.842C104.912 116.842 104.255 117.391 104.255 118.039V121H103.58V116.347H104.255V117.094C104.525 116.599 105.128 116.239 105.785 116.239ZM110.94 120.316L111.273 120.811C111.03 121 110.724 121.108 110.409 121.108C109.743 121.108 109.275 120.613 109.275 119.92V116.95H108.546V116.347H109.275V115.069H109.95V116.347H111.093V116.95H109.95V119.92C109.95 120.262 110.184 120.505 110.454 120.505C110.661 120.505 110.841 120.424 110.94 120.316Z" fill="#F1F6F8"/>
<rect x="353" y="111" width="45" height="16" rx="1.5" fill="#2EC0FF"/>
<path d="M366.362 121.077C365.536 121.077 364.836 120.797 364.304 120.3L364.808 119.677C365.249 120.076 365.76 120.328 366.39 120.328C366.985 120.328 367.293 120.034 367.293 119.691C367.293 119.292 366.95 119.159 366.18 118.977C365.186 118.746 364.493 118.459 364.493 117.556C364.493 116.716 365.207 116.1 366.222 116.1C366.985 116.1 367.559 116.359 368.042 116.772L367.566 117.416C367.146 117.052 366.663 116.849 366.187 116.849C365.704 116.849 365.375 117.143 365.375 117.479C365.375 117.871 365.732 118.011 366.495 118.186C367.496 118.41 368.168 118.732 368.168 119.607C368.168 120.468 367.51 121.077 366.362 121.077ZM370.761 121V116.989H369.221V116.191H373.169V116.989H371.629V121H370.761ZM377.674 121L377.31 120.132H374.986L374.622 121H373.649L375.658 116.191H376.631L378.64 121H377.674ZM375.301 119.376H376.995L376.148 117.353L375.301 119.376ZM383.711 121H382.717L381.583 119.383H380.652V121H379.777V116.191H381.87C382.899 116.191 383.669 116.849 383.669 117.787C383.669 118.515 383.2 119.075 382.507 119.292L383.711 121ZM380.652 116.996V118.578H381.772C382.367 118.578 382.78 118.277 382.78 117.787C382.78 117.297 382.367 116.996 381.772 116.996H380.652ZM386.254 121V116.989H384.714V116.191H388.662V116.989H387.122V121H386.254Z" fill="black"/>
<rect width="382.714" height="33.5014" transform="translate(25 141.501)" fill="#22343C"/>
<path d="M25 144.501C25 142.845 26.3431 141.501 28 141.501H404.714C406.371 141.501 407.714 142.845 407.714 144.501V172.003C407.714 173.66 406.371 175.003 404.714 175.003H28C26.3431 175.003 25 173.66 25 172.003V144.501Z" fill="#22343C"/>
<path opacity="0.4" fill-rule="evenodd" clip-rule="evenodd" d="M404.714 142.501H28C26.8954 142.501 26 143.397 26 144.501V172.003C26 173.107 26.8954 174.003 28 174.003H404.714C405.819 174.003 406.714 173.107 406.714 172.003V144.501C406.714 143.397 405.819 142.501 404.714 142.501ZM28 141.501C26.3431 141.501 25 142.845 25 144.501V172.003C25 173.66 26.3431 175.003 28 175.003H404.714C406.371 175.003 407.714 173.66 407.714 172.003V144.501C407.714 142.845 406.371 141.501 404.714 141.501H28Z" fill="#ACB8BE"/>
<path d="M35.441 160.501V159.916L37.7 157.99C38.573 157.243 38.933 156.649 38.933 156.037C38.933 155.281 38.303 154.84 37.646 154.84C36.926 154.84 36.413 155.227 35.99 155.803L35.495 155.398C36.008 154.669 36.701 154.21 37.673 154.21C38.744 154.21 39.644 154.921 39.644 156.028C39.644 156.865 39.23 157.531 38.186 158.431L36.566 159.835H39.707V160.501H35.441ZM41.4518 160.609C41.1728 160.609 40.9568 160.384 40.9568 160.114C40.9568 159.862 41.1728 159.637 41.4518 159.637C41.7128 159.637 41.9288 159.862 41.9288 160.114C41.9288 160.384 41.7128 160.609 41.4518 160.609ZM48.3182 160.501L47.6972 159.097H44.2502L43.6292 160.501H42.8642L45.5912 154.318H46.3562L49.0832 160.501H48.3182ZM44.5382 158.431H47.4092L45.9782 155.182L44.5382 158.431ZM53.6901 154.21H54.3651V160.501H53.6901V159.628C53.3391 160.24 52.7451 160.609 51.9981 160.609C50.7741 160.609 49.8561 159.601 49.8561 158.17C49.8561 156.748 50.7741 155.74 51.9981 155.74C52.7451 155.74 53.3391 156.109 53.6901 156.721V154.21ZM52.1241 160.006C53.0421 160.006 53.6901 159.241 53.6901 158.17C53.6901 157.099 53.0421 156.343 52.1241 156.343C51.2151 156.343 50.5671 157.099 50.5671 158.17C50.5671 159.241 51.2151 160.006 52.1241 160.006ZM59.4294 154.21H60.1044V160.501H59.4294V159.628C59.0784 160.24 58.4844 160.609 57.7374 160.609C56.5134 160.609 55.5954 159.601 55.5954 158.17C55.5954 156.748 56.5134 155.74 57.7374 155.74C58.4844 155.74 59.0784 156.109 59.4294 156.721V154.21ZM57.8634 160.006C58.7814 160.006 59.4294 159.241 59.4294 158.17C59.4294 157.099 58.7814 156.343 57.8634 156.343C56.9544 156.343 56.3064 157.099 56.3064 158.17C56.3064 159.241 56.9544 160.006 57.8634 160.006ZM66.573 155.74C67.797 155.74 68.715 156.748 68.715 158.17C68.715 159.601 67.797 160.609 66.573 160.609C65.826 160.609 65.232 160.24 64.881 159.628V162.049H64.206V155.848H64.881V156.721C65.232 156.109 65.826 155.74 66.573 155.74ZM66.447 160.006C67.356 160.006 68.004 159.241 68.004 158.17C68.004 157.099 67.356 156.343 66.447 156.343C65.529 156.343 64.881 157.099 64.881 158.17C64.881 159.241 65.529 160.006 66.447 160.006ZM71.7722 155.74C73.0412 155.74 73.6622 156.541 73.6622 157.666V160.501H72.9872V159.772C72.6542 160.321 71.9612 160.609 71.3492 160.609C70.3682 160.609 69.6482 160.042 69.6482 159.124C69.6482 158.197 70.4762 157.576 71.4752 157.576C71.9792 157.576 72.5102 157.684 72.9872 157.837V157.666C72.9872 157.036 72.7352 156.316 71.7272 156.316C71.2592 156.316 70.7912 156.523 70.3682 156.739L70.0982 156.19C70.7642 155.857 71.3222 155.74 71.7722 155.74ZM71.4662 160.015C72.0782 160.015 72.8072 159.7 72.9872 159.043V158.332C72.5642 158.215 72.0872 158.143 71.5832 158.143C70.8902 158.143 70.3052 158.539 70.3052 159.097C70.3052 159.673 70.8092 160.015 71.4662 160.015ZM75.7344 162.121C75.4644 162.121 75.2124 162.067 74.9964 161.968L75.1584 161.392C75.3204 161.473 75.5094 161.509 75.7074 161.509C76.0044 161.509 76.2024 161.41 76.3824 161.095L76.6524 160.519L74.6274 155.848H75.3744L77.0034 159.718L78.5424 155.848H79.2714L77.1474 161.023C76.8234 161.815 76.3734 162.112 75.7344 162.121ZM85.4074 155.74C86.3794 155.74 87.0634 156.487 87.0634 157.54V160.501H86.3884V157.63C86.3884 156.874 85.9474 156.343 85.3174 156.343C84.5794 156.343 84.0574 156.838 84.0574 157.54V160.501H83.3824V157.63C83.3824 156.874 82.9414 156.343 82.3114 156.343C81.5734 156.343 81.0514 156.838 81.0514 157.54V160.501H80.3764V155.848H81.0514V156.532C81.2854 156.046 81.7894 155.74 82.4014 155.74C83.1034 155.74 83.6524 156.127 83.9044 156.73C84.0934 156.127 84.7054 155.74 85.4074 155.74ZM90.5242 160.006C91.0732 160.006 91.7032 159.763 91.9912 159.448L92.4052 159.889C92.0002 160.33 91.1812 160.609 90.5332 160.609C89.2912 160.609 88.1752 159.592 88.1752 158.161C88.1752 156.775 89.2192 155.74 90.4702 155.74C91.8742 155.74 92.6752 156.802 92.6752 158.431H88.8682C88.9672 159.34 89.6062 160.006 90.5242 160.006ZM90.4972 156.343C89.6692 156.343 89.0032 156.928 88.8772 157.828H92.0092C91.9192 156.991 91.4242 156.343 90.4972 156.343ZM95.9937 155.74C97.0197 155.74 97.7397 156.487 97.7397 157.54V160.501H97.0647V157.63C97.0647 156.874 96.5877 156.343 95.9037 156.343C95.1207 156.343 94.4637 156.892 94.4637 157.54V160.501H93.7887V155.848H94.4637V156.595C94.7337 156.1 95.3367 155.74 95.9937 155.74ZM101.149 159.817L101.482 160.312C101.239 160.501 100.933 160.609 100.618 160.609C99.9519 160.609 99.4839 160.114 99.4839 159.421V156.451H98.7549V155.848H99.4839V154.57H100.159V155.848H101.302V156.451H100.159V159.421C100.159 159.763 100.393 160.006 100.663 160.006C100.87 160.006 101.05 159.925 101.149 159.817Z" fill="#F1F6F8"/>
<rect opacity="0.2" x="353" y="150.501" width="45" height="16" rx="1.5" fill="#ACB8BE"/>
<path opacity="0.4" d="M366.362 160.578C365.536 160.578 364.836 160.298 364.304 159.801L364.808 159.178C365.249 159.577 365.76 159.829 366.39 159.829C366.985 159.829 367.293 159.535 367.293 159.192C367.293 158.793 366.95 158.66 366.18 158.478C365.186 158.247 364.493 157.96 364.493 157.057C364.493 156.217 365.207 155.601 366.222 155.601C366.985 155.601 367.559 155.86 368.042 156.273L367.566 156.917C367.146 156.553 366.663 156.35 366.187 156.35C365.704 156.35 365.375 156.644 365.375 156.98C365.375 157.372 365.732 157.512 366.495 157.687C367.496 157.911 368.168 158.233 368.168 159.108C368.168 159.969 367.51 160.578 366.362 160.578ZM370.761 160.501V156.49H369.221V155.692H373.169V156.49H371.629V160.501H370.761ZM377.674 160.501L377.31 159.633H374.986L374.622 160.501H373.649L375.658 155.692H376.631L378.64 160.501H377.674ZM375.301 158.877H376.995L376.148 156.854L375.301 158.877ZM383.711 160.501H382.717L381.583 158.884H380.652V160.501H379.777V155.692H381.87C382.899 155.692 383.669 156.35 383.669 157.288C383.669 158.016 383.2 158.576 382.507 158.793L383.711 160.501ZM380.652 156.497V158.079H381.772C382.367 158.079 382.78 157.778 382.78 157.288C382.78 156.798 382.367 156.497 381.772 156.497H380.652ZM386.254 160.501V156.49H384.714V155.692H388.662V156.49H387.122V160.501H386.254Z" fill="#ACB8BE"/>
<rect width="382.714" height="33.5014" transform="translate(25 181.003)" fill="#22343C"/>
<path opacity="0.4" fill-rule="evenodd" clip-rule="evenodd" d="M404.714 182.003H28C26.8954 182.003 26 182.898 26 184.003V211.504C26 212.609 26.8954 213.504 28 213.504H404.714C405.819 213.504 406.714 212.609 406.714 211.504V184.003C406.714 182.898 405.819 182.003 404.714 182.003ZM28 181.003C26.3431 181.003 25 182.346 25 184.003V211.504C25 213.161 26.3431 214.504 28 214.504H404.714C406.371 214.504 407.714 213.161 407.714 211.504V184.003C407.714 182.346 406.371 181.003 404.714 181.003H28Z" fill="#ACB8BE"/>
<path d="M37.61 200.111C36.593 200.111 35.81 199.643 35.36 199.049L35.846 198.59C36.251 199.112 36.854 199.472 37.61 199.472C38.474 199.472 39.05 198.995 39.05 198.293C39.05 197.564 38.429 197.195 37.457 197.195H36.8V196.547L37.466 196.556C38.294 196.565 38.915 196.169 38.915 195.467C38.915 194.819 38.321 194.351 37.547 194.351C36.863 194.351 36.377 194.693 35.936 195.224L35.468 194.801C35.936 194.18 36.62 193.712 37.583 193.712C38.762 193.712 39.626 194.396 39.626 195.386C39.626 196.178 39.068 196.646 38.429 196.835C39.059 196.979 39.761 197.438 39.761 198.329C39.761 199.364 38.897 200.111 37.61 200.111ZM41.4254 200.111C41.1464 200.111 40.9304 199.886 40.9304 199.616C40.9304 199.364 41.1464 199.139 41.4254 199.139C41.6864 199.139 41.9024 199.364 41.9024 199.616C41.9024 199.886 41.6864 200.111 41.4254 200.111Z" fill="#F1F6F8"/>
<rect opacity="0.4" x="50" y="196" width="82" height="3" rx="1.5" fill="#ACB8BE"/>
<rect opacity="0.2" x="353" y="190" width="45" height="16" rx="1.5" fill="#ACB8BE"/>
<path opacity="0.4" d="M366.362 200.077C365.536 200.077 364.836 199.797 364.304 199.3L364.808 198.677C365.249 199.076 365.76 199.328 366.39 199.328C366.985 199.328 367.293 199.034 367.293 198.691C367.293 198.292 366.95 198.159 366.18 197.977C365.186 197.746 364.493 197.459 364.493 196.556C364.493 195.716 365.207 195.1 366.222 195.1C366.985 195.1 367.559 195.359 368.042 195.772L367.566 196.416C367.146 196.052 366.663 195.849 366.187 195.849C365.704 195.849 365.375 196.143 365.375 196.479C365.375 196.871 365.732 197.011 366.495 197.186C367.496 197.41 368.168 197.732 368.168 198.607C368.168 199.468 367.51 200.077 366.362 200.077ZM370.761 200V195.989H369.221V195.191H373.169V195.989H371.629V200H370.761ZM377.674 200L377.31 199.132H374.986L374.622 200H373.649L375.658 195.191H376.631L378.64 200H377.674ZM375.301 198.376H376.995L376.148 196.353L375.301 198.376ZM383.711 200H382.717L381.583 198.383H380.652V200H379.777V195.191H381.87C382.899 195.191 383.669 195.849 383.669 196.787C383.669 197.515 383.2 198.075 382.507 198.292L383.711 200ZM380.652 195.996V197.578H381.772C382.367 197.578 382.78 197.277 382.78 196.787C382.78 196.297 382.367 195.996 381.772 195.996H380.652ZM386.254 200V195.989H384.714V195.191H388.662V195.989H387.122V200H386.254Z" fill="#ACB8BE"/>
<rect width="382.714" height="33.5014" transform="translate(25 220.504)" fill="#22343C"/>
<path opacity="0.4" fill-rule="evenodd" clip-rule="evenodd" d="M404.714 221.504H28C26.8954 221.504 26 222.4 26 223.504V251.006C26 252.11 26.8954 253.006 28 253.006H404.714C405.819 253.006 406.714 252.11 406.714 251.006V223.504C406.714 222.4 405.819 221.504 404.714 221.504ZM28 220.504C26.3431 220.504 25 221.847 25 223.504V251.006C25 252.662 26.3431 254.006 28 254.006H404.714C406.371 254.006 407.714 252.662 407.714 251.006V223.504C407.714 221.847 406.371 220.504 404.714 220.504H28Z" fill="#ACB8BE"/>
<path d="M38.537 239.504V238.001H35.45L35.36 237.416L38.429 233.321H39.239V237.362H40.166V238.001H39.239V239.504H38.537ZM36.161 237.362H38.537V234.167L36.161 237.362ZM41.7594 239.612C41.4804 239.612 41.2644 239.387 41.2644 239.117C41.2644 238.865 41.4804 238.64 41.7594 238.64C42.0204 238.64 42.2364 238.865 42.2364 239.117C42.2364 239.387 42.0204 239.612 41.7594 239.612Z" fill="#F1F6F8"/>
<rect opacity="0.4" x="50" y="236" width="61" height="3" rx="1.5" fill="#ACB8BE"/>
<rect opacity="0.2" x="353" y="229" width="45" height="16" rx="1.5" fill="#ACB8BE"/>
<path opacity="0.4" d="M366.362 239.077C365.536 239.077 364.836 238.797 364.304 238.3L364.808 237.677C365.249 238.076 365.76 238.328 366.39 238.328C366.985 238.328 367.293 238.034 367.293 237.691C367.293 237.292 366.95 237.159 366.18 236.977C365.186 236.746 364.493 236.459 364.493 235.556C364.493 234.716 365.207 234.1 366.222 234.1C366.985 234.1 367.559 234.359 368.042 234.772L367.566 235.416C367.146 235.052 366.663 234.849 366.187 234.849C365.704 234.849 365.375 235.143 365.375 235.479C365.375 235.871 365.732 236.011 366.495 236.186C367.496 236.41 368.168 236.732 368.168 237.607C368.168 238.468 367.51 239.077 366.362 239.077ZM370.761 239V234.989H369.221V234.191H373.169V234.989H371.629V239H370.761ZM377.674 239L377.31 238.132H374.986L374.622 239H373.649L375.658 234.191H376.631L378.64 239H377.674ZM375.301 237.376H376.995L376.148 235.353L375.301 237.376ZM383.711 239H382.717L381.583 237.383H380.652V239H379.777V234.191H381.87C382.899 234.191 383.669 234.849 383.669 235.787C383.669 236.515 383.2 237.075 382.507 237.292L383.711 239ZM380.652 234.996V236.578H381.772C382.367 236.578 382.78 236.277 382.78 235.787C382.78 235.297 382.367 234.996 381.772 234.996H380.652ZM386.254 239V234.989H384.714V234.191H388.662V234.989H387.122V239H386.254Z" fill="#ACB8BE"/>
</svg>
