<svg width="452" height="288" viewBox="0 0 452 288" fill="none" xmlns="http://www.w3.org/2000/svg">
<g clip-path="url(#clip0_11240_3767)">
<rect width="452" height="288" fill="#1B2B32"/>
<path opacity="0.3" d="M452 0H0V288H452V0Z" fill="black"/>
<path d="M451 0H0V23H451V0Z" fill="black"/>
<g filter="url(#filter0_d_11240_3767)">
<rect x="62" y="53" width="330" height="189" fill="#22343C"/>
<rect x="62.608" y="53.608" width="328.784" height="187.784" stroke="black" stroke-width="1.216" stroke-linecap="square"/>
<rect x="318" y="211" width="61" height="18" rx="1.5" fill="#2EC0FF"/>
<path d="M328.536 222V218.562H327.216V217.878H330.6V218.562H329.28V222H328.536ZM334.233 222L333.921 221.256H331.929L331.617 222H330.783L332.505 217.878H333.339L335.061 222H334.233ZM332.199 220.608H333.651L332.925 218.874L332.199 220.608ZM335.854 222V217.878H336.604V219.894L338.41 217.878H339.328L337.678 219.696L339.448 222H338.524L337.162 220.224L336.604 220.824V222H335.854ZM343.222 218.562H340.87V219.558H343V220.242H340.87V221.316H343.222V222H340.12V217.878H343.222V218.562ZM349.177 222L348.865 221.256H346.873L346.561 222H345.727L347.449 217.878H348.283L350.005 222H349.177ZM347.143 220.608H348.595L347.869 218.874L347.143 220.608ZM353.76 222V218.562H352.44V217.878H355.824V218.562H354.504V222H353.76ZM358.452 222.072C357.276 222.072 356.286 221.094 356.286 219.936C356.286 218.778 357.276 217.806 358.452 217.806C359.622 217.806 360.612 218.778 360.612 219.936C360.612 221.094 359.622 222.072 358.452 222.072ZM358.452 221.388C359.208 221.388 359.844 220.728 359.844 219.936C359.844 219.15 359.208 218.49 358.452 218.49C357.69 218.49 357.048 219.15 357.048 219.936C357.048 220.728 357.69 221.388 358.452 221.388ZM363.329 222.072C362.267 222.072 361.511 221.316 361.511 220.242V217.878H362.261V220.218C362.261 220.902 362.705 221.394 363.329 221.394C363.959 221.394 364.403 220.902 364.403 220.218V217.878H365.147V220.242C365.147 221.316 364.397 222.072 363.329 222.072ZM369.583 222H368.731L367.759 220.614H366.961V222H366.211V217.878H368.005C368.887 217.878 369.547 218.442 369.547 219.246C369.547 219.87 369.145 220.35 368.551 220.536L369.583 222ZM366.961 218.568V219.924H367.921C368.431 219.924 368.785 219.666 368.785 219.246C368.785 218.826 368.431 218.568 367.921 218.568H366.961Z" fill="black"/>
<rect x="254.5" y="211.5" width="59" height="17" rx="1" stroke="#2EC0FF"/>
<path d="M266.143 222V217.878H266.893L269.071 220.776V217.878H269.815V222H269.071L266.893 219.102V222H266.143ZM272.934 222.072C271.758 222.072 270.768 221.094 270.768 219.936C270.768 218.778 271.758 217.806 272.934 217.806C274.104 217.806 275.094 218.778 275.094 219.936C275.094 221.094 274.104 222.072 272.934 222.072ZM272.934 221.388C273.69 221.388 274.326 220.728 274.326 219.936C274.326 219.15 273.69 218.49 272.934 218.49C272.172 218.49 271.53 219.15 271.53 219.936C271.53 220.728 272.172 221.388 272.934 221.388ZM278.991 222V218.562H277.671V217.878H281.055V218.562H279.735V222H278.991ZM284.703 217.878H285.453V222H284.703V220.242H282.645V222H281.895V217.878H282.645V219.558H284.703V217.878ZM289.645 222L289.333 221.256H287.341L287.029 222H286.195L287.917 217.878H288.751L290.473 222H289.645ZM287.611 220.608H289.063L288.337 218.874L287.611 220.608ZM291.273 222V217.878H292.023L294.201 220.776V217.878H294.945V222H294.201L292.023 219.102V222H291.273ZM296.102 222V217.878H296.852V219.894L298.658 217.878H299.576L297.926 219.696L299.696 222H298.772L297.41 220.224L296.852 220.824V222H296.102ZM301.891 222.066C301.183 222.066 300.583 221.826 300.127 221.4L300.559 220.866C300.937 221.208 301.375 221.424 301.915 221.424C302.425 221.424 302.689 221.172 302.689 220.878C302.689 220.536 302.395 220.422 301.735 220.266C300.883 220.068 300.289 219.822 300.289 219.048C300.289 218.328 300.901 217.8 301.771 217.8C302.425 217.8 302.917 218.022 303.331 218.376L302.923 218.928C302.563 218.616 302.149 218.442 301.741 218.442C301.327 218.442 301.045 218.694 301.045 218.982C301.045 219.318 301.351 219.438 302.005 219.588C302.863 219.78 303.439 220.056 303.439 220.806C303.439 221.544 302.875 222.066 301.891 222.066Z" fill="#2EC0FF"/>
<rect opacity="0.4" x="84" y="120" width="140" height="2" rx="1" fill="#ACB8BE"/>
<rect opacity="0.4" x="84" y="132" width="140" height="2" rx="1" fill="#ACB8BE"/>
<rect opacity="0.4" x="84" y="144" width="140" height="2" rx="1" fill="#ACB8BE"/>
<rect opacity="0.4" x="84" y="156" width="77" height="2" rx="1" fill="#ACB8BE"/>
<path d="M92.5427 108L89.4877 99.069H90.6317L93.1017 106.297L95.4677 99.069H96.5987L98.9647 106.297L101.435 99.069H102.579L99.5237 108H98.5227L96.0397 100.395L93.5437 108H92.5427ZM106.939 107.285C107.732 107.285 108.642 106.934 109.058 106.479L109.656 107.116C109.071 107.753 107.888 108.156 106.952 108.156C105.158 108.156 103.546 106.687 103.546 104.62C103.546 102.618 105.054 101.123 106.861 101.123C108.889 101.123 110.046 102.657 110.046 105.01H104.547C104.69 106.323 105.613 107.285 106.939 107.285ZM106.9 101.994C105.704 101.994 104.742 102.839 104.56 104.139H109.084C108.954 102.93 108.239 101.994 106.9 101.994ZM111.684 108V98.913H112.659V108H111.684ZM117.807 108.156C115.922 108.156 114.323 106.544 114.323 104.633C114.323 102.722 115.922 101.123 117.807 101.123C118.717 101.123 119.562 101.5 120.199 102.111L119.523 102.774C119.081 102.293 118.47 101.994 117.807 101.994C116.468 101.994 115.35 103.203 115.35 104.633C115.35 106.076 116.468 107.285 117.807 107.285C118.483 107.285 119.107 106.973 119.562 106.466L120.238 107.129C119.601 107.766 118.743 108.156 117.807 108.156ZM124.548 108.156C122.637 108.156 121.077 106.57 121.077 104.633C121.077 102.696 122.637 101.123 124.548 101.123C126.446 101.123 128.006 102.696 128.006 104.633C128.006 106.57 126.446 108.156 124.548 108.156ZM124.548 107.285C125.887 107.285 126.992 106.089 126.992 104.633C126.992 103.177 125.887 101.994 124.548 101.994C123.196 101.994 122.091 103.177 122.091 104.633C122.091 106.089 123.196 107.285 124.548 107.285ZM136.953 101.123C138.357 101.123 139.345 102.202 139.345 103.723V108H138.37V103.853C138.37 102.761 137.733 101.994 136.823 101.994C135.757 101.994 135.003 102.709 135.003 103.723V108H134.028V103.853C134.028 102.761 133.391 101.994 132.481 101.994C131.415 101.994 130.661 102.709 130.661 103.723V108H129.686V101.279H130.661V102.267C130.999 101.565 131.727 101.123 132.611 101.123C133.677 101.123 134.509 101.747 134.847 102.722C135.055 101.773 135.887 101.123 136.953 101.123ZM144.288 107.285C145.081 107.285 145.991 106.934 146.407 106.479L147.005 107.116C146.42 107.753 145.237 108.156 144.301 108.156C142.507 108.156 140.895 106.687 140.895 104.62C140.895 102.618 142.403 101.123 144.21 101.123C146.238 101.123 147.395 102.657 147.395 105.01H141.896C142.039 106.323 142.962 107.285 144.288 107.285ZM144.249 101.994C143.053 101.994 142.091 102.839 141.909 104.139H146.433C146.303 102.93 145.588 101.994 144.249 101.994Z" fill="white"/>
<g clip-path="url(#clip1_11240_3767)">
<path opacity="0.6" d="M313.653 84C291.748 84 274 101.811 274 123.793V193.377H353.306V123.793C353.306 101.811 335.558 84 313.653 84Z" fill="url(#paint0_linear_11240_3767)"/>
<path d="M335.049 114.494L280.256 113.962L289.522 103.428C293.551 100.087 299.658 101.641 301.63 103.301L303.942 105.258C306.02 107.024 309.073 107.024 311.13 105.237C313.335 103.322 316.665 103.471 318.7 105.577L319.803 106.705C321.202 108.152 323.28 108.706 325.21 108.195L326.398 107.876C328.794 107.216 331.338 108.259 332.611 110.408L335.049 114.494Z" fill="url(#paint1_linear_11240_3767)"/>
<path d="M329.96 119.409L337 113.345C338.569 112.004 340.902 112.068 342.386 113.494L344.506 115.536C346.118 117.09 348.684 117.005 350.232 115.366C351.568 113.94 353.731 113.664 355.363 114.728L361.979 119.047L329.96 119.409Z" fill="url(#paint2_linear_11240_3767)"/>
<path d="M327.647 137.624L322.982 150.179L321.073 162.734L319.377 162.947L319.589 148.477L321.285 137.837L327.647 137.624Z" fill="#3E616D"/>
<path d="M314.776 109.854C312.316 108.748 309.411 109.535 308.139 112.514L308.223 112.94L311.85 119.962C313.694 119.749 315.518 118.579 316.536 116.749C318.041 114.046 317.257 110.961 314.776 109.854Z" fill="#113D56"/>
<path d="M312.592 124.643L311.298 120.004H310.111C309.453 120.004 308.881 119.579 308.711 118.94L308.054 117.749L306.866 117.557L308.139 112.493L310.089 112.323C310.916 112.323 311.595 112.961 311.68 113.791C311.722 114.302 311.871 114.94 312.167 115.685C313.016 117.813 313.843 118.898 313.843 118.898L316.599 122.069L312.592 124.643Z" fill="white"/>
<path d="M311.298 120.005H310.111C309.453 120.005 308.881 119.579 308.711 118.941L308.054 117.749L306.866 117.558L308.139 112.493" stroke="#113D56" stroke-width="0.294684" stroke-miterlimit="10"/>
<path d="M309.601 115.664C309.777 115.664 309.919 115.521 309.919 115.344C309.919 115.168 309.777 115.025 309.601 115.025C309.426 115.025 309.283 115.168 309.283 115.344C309.283 115.521 309.426 115.664 309.601 115.664Z" fill="#113D56"/>
<path d="M295.436 162.266C296.83 162.266 297.96 161.132 297.96 159.733C297.96 158.335 296.83 157.201 295.436 157.201C294.043 157.201 292.913 158.335 292.913 159.733C292.913 161.132 294.043 162.266 295.436 162.266Z" stroke="#6991A3" stroke-width="0.366864" stroke-miterlimit="10"/>
<path d="M295.438 160.989C296.129 160.989 296.689 160.427 296.689 159.734C296.689 159.04 296.129 158.478 295.438 158.478C294.747 158.478 294.187 159.04 294.187 159.734C294.187 160.427 294.747 160.989 295.438 160.989Z" fill="#FF7212"/>
<path d="M337.168 173.054C344.148 173.054 349.806 167.376 349.806 160.372C349.806 153.367 344.148 147.689 337.168 147.689C330.189 147.689 324.53 153.367 324.53 160.372C324.53 167.376 330.189 173.054 337.168 173.054Z" stroke="#6991A3" stroke-width="1.84178" stroke-miterlimit="10"/>
<path d="M295.395 173.054C302.375 173.054 308.033 167.376 308.033 160.372C308.033 153.367 302.375 147.689 295.395 147.689C288.415 147.689 282.757 153.367 282.757 160.372C282.757 167.376 288.415 173.054 295.395 173.054Z" stroke="#6991A3" stroke-width="1.84178" stroke-miterlimit="10"/>
<path d="M337.168 164.01C339.171 164.01 340.794 162.381 340.794 160.371C340.794 158.362 339.171 156.733 337.168 156.733C335.165 156.733 333.542 158.362 333.542 160.371C333.542 162.381 335.165 164.01 337.168 164.01Z" fill="#6991A3"/>
<path d="M325.209 141.348L317.787 162.202" stroke="#FF7212" stroke-width="0.920889" stroke-miterlimit="10"/>
<path d="M317.152 163.053L337.508 160.287C337.508 160.287 330.129 150.094 323.089 146.242C316.049 142.391 302.732 140.922 302.732 140.922" stroke="#FF7212" stroke-width="0.920889" stroke-miterlimit="10"/>
<path d="M317.236 166.777C319.239 166.777 320.862 165.148 320.862 163.138C320.862 161.129 319.239 159.5 317.236 159.5C315.234 159.5 313.61 161.129 313.61 163.138C313.61 165.148 315.234 166.777 317.236 166.777Z" fill="#FF7212"/>
<path d="M317.024 160.329L317.47 163.372" stroke="#6991A3" stroke-width="1.28924" stroke-miterlimit="10" stroke-linecap="round"/>
<path d="M313.682 115.748C313.809 115.138 313.467 114.55 312.917 114.434C312.366 114.318 311.817 114.719 311.69 115.328C311.562 115.938 311.905 116.526 312.455 116.642C313.005 116.758 313.555 116.357 313.682 115.748Z" fill="white"/>
<path d="M308.542 118.877C308.966 118.898 309.411 118.749 309.729 118.472" stroke="#113D56" stroke-width="0.294684" stroke-miterlimit="10"/>
<path d="M315.39 112.11C316.726 112.025 317.892 112.514 318.104 113.578" stroke="#113D56" stroke-width="1.1086" stroke-miterlimit="10" stroke-linecap="round"/>
<path d="M316.619 111.025C318.316 111.025 319.545 111.961 319.97 113.046" stroke="#113D56" stroke-width="1.1086" stroke-miterlimit="10" stroke-linecap="round"/>
<path d="M314.988 112.089C314.457 110.131 315.836 108.067 318.02 107.471C318.232 107.407 318.465 107.365 318.677 107.344" stroke="#113D56" stroke-width="1.1086" stroke-miterlimit="10" stroke-linecap="round"/>
<path d="M315.178 111.28C315.941 109.407 318.274 108.599 320.373 109.45" stroke="#113D56" stroke-width="1.1086" stroke-miterlimit="10" stroke-linecap="round"/>
<path d="M315.009 111.919C315.815 110.493 317.744 110.067 319.356 110.961C319.653 111.131 319.928 111.344 320.162 111.578" stroke="#113D56" stroke-width="1.1086" stroke-miterlimit="10" stroke-linecap="round"/>
<path d="M303.367 138.773L295.521 159.648" stroke="#FF7212" stroke-width="1.10507" stroke-miterlimit="10"/>
<path d="M302.519 131.346L301.82 132.261C301.396 132.793 301.544 133.581 302.138 133.921L303.452 134.687C304.152 135.092 304.449 135.943 304.152 136.709L303.368 138.773" stroke="#6991A3" stroke-width="0.736711" stroke-miterlimit="10"/>
<path d="M302.52 141.135L317.363 159.223" stroke="#FF7212" stroke-width="1.6576" stroke-miterlimit="10"/>
<path d="M323.83 125.92C319.165 119.111 314.797 120.26 314.797 120.26L312.592 124.431L313.673 127.878C314.182 129.687 315.645 131.07 317.469 131.453L318.338 131.644C319.271 135.241 318.911 139.518 318.911 139.518L326.905 136.283C326.884 136.283 328.495 132.73 323.83 125.92Z" fill="#05A9E2"/>
<path d="M326.884 136.283C326.884 136.283 328.495 132.73 323.83 125.92C319.165 119.111 314.797 120.26 314.797 120.26" stroke="#113D56" stroke-width="0.294684" stroke-miterlimit="10"/>
<path d="M318.488 139.518C318.488 139.518 318.848 135.219 317.915 131.644L317.046 131.453C315.222 131.07 313.759 129.687 313.25 127.878L310.875 120.004" stroke="#113D56" stroke-width="0.294684" stroke-miterlimit="10"/>
<path d="M314.501 122.516L312.211 129.687L305.807 129.325L305.383 131.027C305.383 131.027 311.532 133.794 313.865 132.517C315.285 131.73 317.47 127.197 317.894 125.92C318.318 124.643 318.297 122.345 318.297 122.345C318.085 121.388 317.194 120.834 316.325 120.898C315.922 120.941 315.54 121.132 315.243 121.409L314.501 122.516Z" fill="#F8F8F8"/>
<path d="M305.383 131.027C305.383 131.027 311.532 133.794 313.865 132.517C315.285 131.729 317.47 127.197 317.894 125.92C318.318 124.643 318.297 122.345 318.297 122.345" stroke="#113D56" stroke-width="0.294684" stroke-miterlimit="10"/>
<path d="M313.651 125.133L312.21 129.687L305.806 129.325" stroke="#113D56" stroke-width="0.294684" stroke-miterlimit="10"/>
<path d="M321.88 140.922L330.15 139.922L328.962 141.965C328.538 142.688 327.69 143.071 326.863 142.923L322.071 141.986L321.88 140.922Z" fill="#6991A3"/>
<path d="M326.333 130.666L327.69 133.879C328.729 136.347 327.923 139.326 325.866 140.646L317.257 144.987L318.339 151.583L319.314 158.691L317.257 159.116L311.574 143.561C311.299 142.476 311.638 141.327 312.422 140.667L326.333 130.666Z" fill="#8FDDFF"/>
<path d="M318.233 156.052L319.314 158.67L314.543 160.202L314.628 159.755C314.776 159.053 315.158 158.414 315.73 157.967L318.233 156.052Z" fill="#8FDDFF"/>
<path d="M303.685 128.474C303.006 128.261 302.286 128.687 302.201 129.602C302.179 129.964 302.201 130.496 302.243 130.964C302.307 131.56 302.794 131.943 303.303 131.858L303.664 130.602L305.212 131.028L305.996 130.666V129.325L303.685 128.474Z" fill="white"/>
<path d="M306.018 129.325L303.685 128.474C303.006 128.261 302.286 128.687 302.201 129.602C302.179 129.964 302.201 130.496 302.243 130.964" stroke="#113D56" stroke-width="0.294684" stroke-miterlimit="10"/>
<path d="M303.792 131.24C304.202 131.24 304.534 130.907 304.534 130.495C304.534 130.084 304.202 129.75 303.792 129.75C303.382 129.75 303.05 130.084 303.05 130.495C303.05 130.907 303.382 131.24 303.792 131.24Z" fill="#113D56"/>
<path d="M337.168 161.883C337.999 161.883 338.673 161.206 338.673 160.372C338.673 159.538 337.999 158.861 337.168 158.861C336.336 158.861 335.662 159.538 335.662 160.372C335.662 161.206 336.336 161.883 337.168 161.883Z" fill="#3E616D"/>
<path d="M315.772 160.606L318.741 159.542" stroke="#3E616D" stroke-width="1.10507" stroke-miterlimit="10"/>
<path d="M280.572 174.225H353.941" stroke="#113D56" stroke-width="0.294684" stroke-miterlimit="10"/>
</g>
</g>
<path d="M375.996 70.9669L380.866 66.1069C381.093 65.8424 381.078 65.4481 380.831 65.2019C380.584 64.9556 380.189 64.9404 379.924 65.1669L375.054 70.0269L370.183 65.1603C369.917 64.9337 369.522 64.949 369.276 65.1952C369.028 65.4415 369.013 65.8357 369.241 66.1003L374.111 70.9669L369.234 75.8269C369.043 75.9898 368.96 76.2457 369.018 76.4892C369.077 76.7327 369.268 76.9229 369.512 76.9815C369.756 77.04 370.012 76.9572 370.176 76.7669L375.054 71.9069L379.924 76.7669C380.189 76.9935 380.584 76.9782 380.831 76.732C381.078 76.4857 381.093 76.0914 380.866 75.8269L375.996 70.9669Z" fill="#ACB8BE"/>
</g>
<rect x="0.394911" y="0.394911" width="451.21" height="287.21" stroke="#4F6169" stroke-width="0.789823"/>
<defs>
<filter id="filter0_d_11240_3767" x="60" y="52" width="334" height="193" filterUnits="userSpaceOnUse" color-interpolation-filters="sRGB">
<feFlood flood-opacity="0" result="BackgroundImageFix"/>
<feColorMatrix in="SourceAlpha" type="matrix" values="0 0 0 0 0 0 0 0 0 0 0 0 0 0 0 0 0 0 127 0" result="hardAlpha"/>
<feOffset dy="1"/>
<feGaussianBlur stdDeviation="1"/>
<feColorMatrix type="matrix" values="0 0 0 0 0 0 0 0 0 0 0 0 0 0 0 0 0 0 0.8 0"/>
<feBlend mode="normal" in2="BackgroundImageFix" result="effect1_dropShadow_11240_3767"/>
<feBlend mode="normal" in="SourceGraphic" in2="effect1_dropShadow_11240_3767" result="shape"/>
</filter>
<linearGradient id="paint0_linear_11240_3767" x1="314.14" y1="150.62" x2="313.65" y2="94.5396" gradientUnits="userSpaceOnUse">
<stop stop-color="#05A9E2" stop-opacity="0"/>
<stop offset="0.9795" stop-color="#05A9E2"/>
</linearGradient>
<linearGradient id="paint1_linear_11240_3767" x1="307.654" y1="114.418" x2="307.654" y2="109.578" gradientUnits="userSpaceOnUse">
<stop stop-color="#05AAE2" stop-opacity="0"/>
<stop offset="1" stop-color="#209EC9"/>
</linearGradient>
<linearGradient id="paint2_linear_11240_3767" x1="345.971" y1="119.368" x2="345.971" y2="116.76" gradientUnits="userSpaceOnUse">
<stop stop-color="#05AAE2" stop-opacity="0"/>
<stop offset="1" stop-color="#209EC9"/>
</linearGradient>
<clipPath id="clip0_11240_3767">
<rect width="452" height="288" fill="white"/>
</clipPath>
<clipPath id="clip1_11240_3767">
<rect width="88" height="110" fill="white" transform="translate(274 84)"/>
</clipPath>
</defs>
</svg>
