<svg width="452" height="255" viewBox="0 0 452 255" fill="none" xmlns="http://www.w3.org/2000/svg">
<rect x="0.605911" y="9.60591" width="372.03" height="244.788" fill="#1B2B32"/>
<rect x="0.605911" y="9.60591" width="372.03" height="244.788" stroke="#4F6169" stroke-width="1.21182"/>
<rect x="0.605911" y="9.60591" width="372.03" height="244.788" stroke="#4F6169" stroke-width="1.21182"/>
<rect x="1.21191" y="9" width="372.03" height="15.7537" fill="black"/>
<rect x="1.21191" y="24.7537" width="67.8621" height="229.034" fill="#22343C"/>
<path d="M87.4036 44.9107C85.6841 44.9107 84.4662 43.6518 84.4662 41.8709V37.7564H85.2645V41.8709C85.2645 43.2219 86.1549 44.184 87.4036 44.184C88.6523 44.184 89.5427 43.2219 89.5427 41.8709V37.7564H90.3411V41.8709C90.3411 43.6518 89.1231 44.9107 87.4036 44.9107ZM93.8731 44.9107C93.1362 44.9107 92.3174 44.6343 91.6828 44.1226L92.082 43.5596C92.6859 43.9997 93.2897 44.2249 93.8731 44.2249C94.5691 44.2249 95.0399 43.8974 95.0399 43.3959C95.0399 42.8227 94.4258 42.6385 93.7094 42.4338C92.43 42.0653 91.9387 41.6866 91.9387 40.9292C91.9387 39.9671 92.737 39.3735 93.7912 39.3735C94.4463 39.3735 95.1218 39.5987 95.6847 39.9671L95.3163 40.5608C94.784 40.223 94.262 40.0593 93.7912 40.0593C93.1976 40.0593 92.7063 40.3254 92.7063 40.8371C92.7063 41.2977 93.0953 41.441 94.0778 41.7583C94.9273 42.0244 95.8075 42.311 95.8075 43.314C95.8075 44.2863 94.9683 44.9107 93.8731 44.9107ZM99.4624 44.2249C100.087 44.2249 100.803 43.9486 101.131 43.5903L101.602 44.0919C101.141 44.5934 100.21 44.9107 99.4726 44.9107C98.0602 44.9107 96.7911 43.7541 96.7911 42.1267C96.7911 40.5505 97.9783 39.3735 99.401 39.3735C100.998 39.3735 101.909 40.5812 101.909 42.4338H97.5792C97.6917 43.4675 98.4184 44.2249 99.4624 44.2249ZM99.4317 40.0593C98.4901 40.0593 97.7327 40.7245 97.5894 41.748H101.151C101.049 40.7962 100.486 40.0593 99.4317 40.0593ZM104.004 40.5301C104.321 39.8238 105.079 39.3735 106.051 39.3735V40.0593C104.853 40.0593 104.004 40.7962 104.004 41.8299V44.7878H103.236V39.4963H104.004V40.5301ZM110.266 44.7878V37.7564H111.064L113.674 42.659L116.284 37.7564H117.082V44.7878H116.284V39.4759L113.674 44.3784L111.064 39.4759V44.7878H110.266ZM120.966 39.3735C122.41 39.3735 123.116 40.2844 123.116 41.5638V44.7878H122.348V43.9588C121.97 44.5831 121.181 44.9107 120.485 44.9107C119.37 44.9107 118.551 44.2659 118.551 43.2219C118.551 42.1677 119.493 41.4615 120.629 41.4615C121.202 41.4615 121.806 41.5843 122.348 41.7583V41.5638C122.348 40.8473 122.062 40.0285 120.915 40.0285C120.383 40.0285 119.851 40.264 119.37 40.5096L119.063 39.8853C119.82 39.5066 120.455 39.3735 120.966 39.3735ZM120.618 44.2351C121.314 44.2351 122.144 43.8769 122.348 43.1298V42.3212C121.867 42.1881 121.325 42.1063 120.752 42.1063C119.963 42.1063 119.298 42.5566 119.298 43.1912C119.298 43.8462 119.871 44.2351 120.618 44.2351ZM127.202 39.3735C128.369 39.3735 129.188 40.223 129.188 41.4205V44.7878H128.42V41.5229C128.42 40.6631 127.878 40.0593 127.1 40.0593C126.209 40.0593 125.462 40.6836 125.462 41.4205V44.7878H124.695V39.4963H125.462V40.3458C125.769 39.7829 126.455 39.3735 127.202 39.3735ZM132.891 39.3735C134.334 39.3735 135.04 40.2844 135.04 41.5638V44.7878H134.272V43.9588C133.894 44.5831 133.106 44.9107 132.41 44.9107C131.294 44.9107 130.475 44.2659 130.475 43.2219C130.475 42.1677 131.417 41.4615 132.553 41.4615C133.126 41.4615 133.73 41.5843 134.272 41.7583V41.5638C134.272 40.8473 133.986 40.0285 132.84 40.0285C132.307 40.0285 131.775 40.264 131.294 40.5096L130.987 39.8853C131.744 39.5066 132.379 39.3735 132.891 39.3735ZM132.543 44.2351C133.239 44.2351 134.068 43.8769 134.272 43.1298V42.3212C133.791 42.1881 133.249 42.1063 132.676 42.1063C131.888 42.1063 131.222 42.5566 131.222 43.1912C131.222 43.8462 131.796 44.2351 132.543 44.2351ZM140.723 39.4963H141.491V44.2249C141.491 45.5862 140.416 46.5483 138.891 46.5483C138.031 46.5483 137.233 46.2515 136.752 45.8421L137.09 45.2382C137.499 45.6271 138.134 45.8625 138.789 45.8625C140.007 45.8625 140.723 45.2587 140.723 44.2249V43.3652C140.314 44.01 139.638 44.3989 138.799 44.3989C137.376 44.3989 136.363 43.3549 136.363 41.8811C136.363 40.4072 137.376 39.3735 138.799 39.3735C139.638 39.3735 140.314 39.7624 140.723 40.4072V39.4963ZM138.942 43.7132C139.986 43.7132 140.723 42.9558 140.723 41.8811C140.723 40.8166 139.986 40.0593 138.942 40.0593C137.908 40.0593 137.171 40.8166 137.171 41.8811C137.171 42.9558 137.908 43.7132 138.942 43.7132ZM145.5 44.2249C146.124 44.2249 146.841 43.9486 147.168 43.5903L147.639 44.0919C147.179 44.5934 146.247 44.9107 145.51 44.9107C144.098 44.9107 142.829 43.7541 142.829 42.1267C142.829 40.5505 144.016 39.3735 145.439 39.3735C147.035 39.3735 147.946 40.5812 147.946 42.4338H143.617C143.729 43.4675 144.456 44.2249 145.5 44.2249ZM145.469 40.0593C144.528 40.0593 143.77 40.7245 143.627 41.748H147.189C147.087 40.7962 146.524 40.0593 145.469 40.0593ZM154.924 39.3735C156.029 39.3735 156.807 40.223 156.807 41.4205V44.7878H156.039V41.5229C156.039 40.6631 155.538 40.0593 154.821 40.0593C153.982 40.0593 153.389 40.6222 153.389 41.4205V44.7878H152.621V41.5229C152.621 40.6631 152.119 40.0593 151.403 40.0593C150.564 40.0593 149.97 40.6222 149.97 41.4205V44.7878H149.202V39.4963H149.97V40.2742C150.236 39.7215 150.809 39.3735 151.505 39.3735C152.304 39.3735 152.928 39.8136 153.215 40.4994C153.429 39.8136 154.125 39.3735 154.924 39.3735ZM160.743 44.2249C161.367 44.2249 162.084 43.9486 162.411 43.5903L162.882 44.0919C162.421 44.5934 161.49 44.9107 160.753 44.9107C159.341 44.9107 158.071 43.7541 158.071 42.1267C158.071 40.5505 159.259 39.3735 160.681 39.3735C162.278 39.3735 163.189 40.5812 163.189 42.4338H158.859C158.972 43.4675 159.699 44.2249 160.743 44.2249ZM160.712 40.0593C159.77 40.0593 159.013 40.7245 158.87 41.748H162.432C162.329 40.7962 161.766 40.0593 160.712 40.0593ZM166.963 39.3735C168.13 39.3735 168.948 40.223 168.948 41.4205V44.7878H168.181V41.5229C168.181 40.6631 167.638 40.0593 166.861 40.0593C165.97 40.0593 165.223 40.6836 165.223 41.4205V44.7878H164.455V39.4963H165.223V40.3458C165.53 39.7829 166.216 39.3735 166.963 39.3735ZM172.825 44.01L173.204 44.5729C172.928 44.7878 172.58 44.9107 172.222 44.9107C171.464 44.9107 170.932 44.3477 170.932 43.5596V40.1821H170.103V39.4963H170.932V38.0429H171.7V39.4963H172.999V40.1821H171.7V43.5596C171.7 43.9486 171.966 44.2249 172.273 44.2249C172.508 44.2249 172.713 44.1328 172.825 44.01Z" fill="#ACB8BE"/>
<rect x="83.9968" y="62.621" width="30.6993" height="11.8603" rx="1.27938" stroke="#2EC0FF" stroke-width="0.85292"/>
<rect opacity="0.5" x="90.3926" y="67.6433" width="17.908" height="1.81617" rx="0.908083" fill="#2EC0FF"/>
<rect opacity="0.5" x="128.767" y="67.6433" width="17.908" height="1.81617" rx="0.908083" fill="#2EC0FF"/>
<rect x="121.518" y="62.621" width="30.6993" height="11.8603" rx="1.27938" stroke="#2EC0FF" stroke-width="0.85292"/>
<g opacity="0.4">
<rect x="83.5859" y="102.31" width="31.2537" height="2.42365" rx="1.21182" fill="#ACB8BE"/>
<rect x="180.819" y="102.31" width="56.2927" height="2.42365" rx="1.21182" fill="#ACB8BE"/>
<rect x="143.291" y="102.31" width="23.8818" height="2.42365" rx="1.21182" fill="#ACB8BE"/>
<rect x="284.876" y="102.31" width="21.323" height="2.42365" rx="1.21182" fill="#ACB8BE"/>
</g>
<g opacity="0.4">
<rect x="83.5859" y="116.852" width="31.2537" height="2.42365" rx="1.21182" fill="#ACB8BE"/>
<rect x="180.819" y="116.852" width="56.2927" height="2.42365" rx="1.21182" fill="#ACB8BE"/>
<rect x="143.291" y="116.852" width="23.8818" height="2.42365" rx="1.21182" fill="#ACB8BE"/>
<rect x="284.876" y="116.852" width="21.323" height="2.42365" rx="1.21182" fill="#ACB8BE"/>
</g>
<g opacity="0.4">
<rect x="83.5859" y="131.394" width="31.2537" height="2.42365" rx="1.21182" fill="#ACB8BE"/>
<rect x="180.819" y="131.394" width="56.2927" height="2.42365" rx="1.21182" fill="#ACB8BE"/>
<rect x="143.291" y="131.394" width="23.8818" height="2.42365" rx="1.21182" fill="#ACB8BE"/>
<rect x="284.876" y="131.394" width="21.323" height="2.42365" rx="1.21182" fill="#ACB8BE"/>
</g>
<g opacity="0.4">
<rect x="83.5859" y="145.936" width="31.2537" height="2.42365" rx="1.21182" fill="#ACB8BE"/>
<rect x="180.819" y="145.936" width="56.2927" height="2.42365" rx="1.21182" fill="#ACB8BE"/>
<rect x="143.291" y="145.936" width="23.8818" height="2.42365" rx="1.21182" fill="#ACB8BE"/>
<rect x="284.876" y="145.936" width="21.323" height="2.42365" rx="1.21182" fill="#ACB8BE"/>
</g>
<g opacity="0.4">
<rect x="83.5859" y="160.478" width="31.2537" height="2.42365" rx="1.21182" fill="#ACB8BE"/>
<rect x="180.819" y="160.478" width="56.2927" height="2.42365" rx="1.21182" fill="#ACB8BE"/>
<rect x="143.291" y="160.478" width="23.8818" height="2.42365" rx="1.21182" fill="#ACB8BE"/>
<rect x="284.876" y="160.478" width="21.323" height="2.42365" rx="1.21182" fill="#ACB8BE"/>
</g>
<g opacity="0.4">
<rect x="83.5859" y="175.02" width="31.2537" height="2.42365" rx="1.21182" fill="#ACB8BE"/>
<rect x="180.819" y="175.02" width="56.2927" height="2.42365" rx="1.21182" fill="#ACB8BE"/>
<rect x="143.291" y="175.02" width="23.8818" height="2.42365" rx="1.21182" fill="#ACB8BE"/>
<rect x="284.876" y="175.02" width="21.323" height="2.42365" rx="1.21182" fill="#ACB8BE"/>
</g>
<g opacity="0.4">
<rect x="83.5859" y="189.562" width="31.2537" height="2.42365" rx="1.21182" fill="#ACB8BE"/>
<rect x="180.819" y="189.562" width="56.2927" height="2.42365" rx="1.21182" fill="#ACB8BE"/>
<rect x="143.291" y="189.562" width="23.8818" height="2.42365" rx="1.21182" fill="#ACB8BE"/>
<rect x="284.876" y="189.562" width="21.323" height="2.42365" rx="1.21182" fill="#ACB8BE"/>
</g>
<g opacity="0.4">
<rect x="83.5859" y="204.104" width="31.2537" height="2.42365" rx="1.21182" fill="#ACB8BE"/>
<rect x="180.819" y="204.104" width="56.2927" height="2.42365" rx="1.21182" fill="#ACB8BE"/>
<rect x="143.291" y="204.104" width="23.8818" height="2.42365" rx="1.21182" fill="#ACB8BE"/>
<rect x="284.876" y="204.104" width="21.323" height="2.42365" rx="1.21182" fill="#ACB8BE"/>
</g>
<g opacity="0.4">
<rect x="83.5859" y="218.646" width="31.2537" height="2.42365" rx="1.21182" fill="#ACB8BE"/>
<rect x="180.819" y="218.646" width="56.2927" height="2.42365" rx="1.21182" fill="#ACB8BE"/>
<rect x="143.291" y="218.646" width="23.8818" height="2.42365" rx="1.21182" fill="#ACB8BE"/>
<rect x="284.876" y="218.646" width="21.323" height="2.42365" rx="1.21182" fill="#ACB8BE"/>
</g>
<g filter="url(#filter0_d_11240_3796)">
<mask id="path-46-inside-1_11240_3796" fill="white">
<path fill-rule="evenodd" clip-rule="evenodd" d="M189.318 1C187.303 1 185.67 2.63326 185.67 4.64799V64.8011L166.851 64.8051C165.773 64.8053 165.228 66.1051 165.984 66.8739L185.67 86.883V151.352C185.67 153.367 187.303 155 189.318 155H439.373C441.387 155 443.021 153.367 443.021 151.352V4.648C443.021 2.63327 441.387 1 439.373 1H189.318Z"/>
</mask>
<path fill-rule="evenodd" clip-rule="evenodd" d="M189.318 1C187.303 1 185.67 2.63326 185.67 4.64799V64.8011L166.851 64.8051C165.773 64.8053 165.228 66.1051 165.984 66.8739L185.67 86.883V151.352C185.67 153.367 187.303 155 189.318 155H439.373C441.387 155 443.021 153.367 443.021 151.352V4.648C443.021 2.63327 441.387 1 439.373 1H189.318Z" fill="#22343C"/>
<path d="M185.67 64.8011L185.67 66.0171L186.886 66.0169V64.8011H185.67ZM166.851 64.8051L166.851 63.5891H166.851L166.851 64.8051ZM165.984 66.8739L166.851 66.0211H166.851L165.984 66.8739ZM185.67 86.883H186.886V86.3851L186.536 86.0302L185.67 86.883ZM186.886 4.64799C186.886 3.30484 187.974 2.216 189.318 2.216V-0.216C186.631 -0.216 184.454 1.96167 184.454 4.64799H186.886ZM186.886 64.8011V4.64799H184.454V64.8011H186.886ZM166.851 66.0211L185.67 66.0171L185.669 63.5851L166.851 63.5891L166.851 66.0211ZM166.851 66.0211H166.851L166.851 63.5891C164.694 63.5895 163.605 66.1891 165.118 67.7267L166.851 66.0211ZM186.536 86.0302L166.851 66.0211L165.118 67.7267L184.803 87.7358L186.536 86.0302ZM186.886 151.352V86.883H184.454V151.352H186.886ZM189.318 153.784C187.974 153.784 186.886 152.695 186.886 151.352H184.454C184.454 154.038 186.631 156.216 189.318 156.216V153.784ZM439.373 153.784H189.318V156.216H439.373V153.784ZM441.805 151.352C441.805 152.695 440.716 153.784 439.373 153.784V156.216C442.059 156.216 444.237 154.038 444.237 151.352H441.805ZM441.805 4.648V151.352H444.237V4.648H441.805ZM439.373 2.216C440.716 2.216 441.805 3.30483 441.805 4.648H444.237C444.237 1.9617 442.059 -0.216 439.373 -0.216V2.216ZM189.318 2.216H439.373V-0.216H189.318V2.216Z" fill="black" mask="url(#path-46-inside-1_11240_3796)"/>
</g>
<path d="M425.842 19L430.438 14.3944C430.626 14.174 430.613 13.8454 430.409 13.6402C430.204 13.435 429.876 13.4223 429.656 13.6111L425.061 18.2166L420.465 13.6055C420.248 13.3877 419.896 13.3877 419.678 13.6055C419.461 13.8234 419.461 14.1766 419.678 14.3944L424.279 19L419.678 23.6055C419.52 23.7413 419.451 23.9545 419.5 24.1574C419.548 24.3604 419.707 24.5188 419.909 24.5676C420.112 24.6165 420.324 24.5474 420.46 24.3889L425.061 19.7833L429.656 24.3889C429.876 24.5776 430.204 24.5649 430.409 24.3597C430.613 24.1545 430.626 23.8259 430.438 23.6055L425.842 19Z" fill="#ACB8BE"/>
<rect x="373.398" y="115.576" width="56.5469" height="24.64" rx="1.216" fill="#2EC0FF"/>
<path d="M386.415 130.504V123.821H387.621L391.153 128.519V123.821H392.359V130.504H391.153L387.621 125.805V130.504H386.415ZM400.694 124.93H396.88V126.545H400.324V127.654H396.88V129.395H400.694V130.504H395.664V123.821H400.694V124.93ZM409.361 123.821L406.88 127.157L409.361 130.504H407.921L406.16 128.13L404.39 130.504H402.97L405.45 127.167L402.97 123.821H404.409L406.17 126.194L407.941 123.821H409.361ZM413.514 130.504V124.93H411.374V123.821H416.86V124.93H414.73V130.504H413.514Z" fill="black"/>
<path d="M209.796 30.4232C207.345 30.4232 205.608 28.6283 205.608 26.0893V20.2233H206.747V26.0893C206.747 28.0155 208.016 29.3871 209.796 29.3871C211.577 29.3871 212.846 28.0155 212.846 26.0893V20.2233H213.984V26.0893C213.984 28.6283 212.248 30.4232 209.796 30.4232ZM219.02 30.4232C217.969 30.4232 216.802 30.0292 215.897 29.2996L216.466 28.497C217.327 29.1245 218.188 29.4455 219.02 29.4455C220.012 29.4455 220.683 28.9785 220.683 28.2635C220.683 27.4464 219.808 27.1837 218.786 26.8919C216.962 26.3666 216.262 25.8267 216.262 24.7469C216.262 23.3752 217.4 22.5289 218.903 22.5289C219.837 22.5289 220.8 22.8499 221.603 23.3752L221.077 24.2216C220.319 23.74 219.574 23.5065 218.903 23.5065C218.057 23.5065 217.356 23.8859 217.356 24.6155C217.356 25.2722 217.911 25.4765 219.312 25.9288C220.523 26.3082 221.778 26.7168 221.778 28.1468C221.778 29.533 220.581 30.4232 219.02 30.4232ZM226.988 29.4455C227.879 29.4455 228.9 29.0515 229.367 28.5408L230.038 29.2558C229.382 29.9708 228.054 30.4232 227.003 30.4232C224.989 30.4232 223.18 28.7743 223.18 26.4541C223.18 24.207 224.873 22.5289 226.901 22.5289C229.177 22.5289 230.476 24.2507 230.476 26.8919H224.304C224.464 28.3657 225.5 29.4455 226.988 29.4455ZM226.945 23.5065C225.602 23.5065 224.522 24.455 224.318 25.9142H229.396C229.25 24.5572 228.448 23.5065 226.945 23.5065ZM233.463 24.1778C233.916 23.1709 234.995 22.5289 236.382 22.5289V23.5065C234.674 23.5065 233.463 24.5572 233.463 26.031V30.248H232.369V22.704H233.463V24.1778ZM250.285 22.5289C251.861 22.5289 252.97 23.74 252.97 25.4473V30.248H251.875V25.5932C251.875 24.3675 251.16 23.5065 250.139 23.5065C248.942 23.5065 248.096 24.3091 248.096 25.4473V30.248H247.001V25.5932C247.001 24.3675 246.286 23.5065 245.265 23.5065C244.068 23.5065 243.222 24.3091 243.222 25.4473V30.248H242.128V22.704H243.222V23.813C243.602 23.025 244.419 22.5289 245.411 22.5289C246.549 22.5289 247.439 23.1563 247.848 24.134C248.154 23.1563 249.147 22.5289 250.285 22.5289ZM258.245 22.5289C260.303 22.5289 261.309 23.8276 261.309 25.6516V30.248H260.215V29.0661C259.675 29.9562 258.552 30.4232 257.559 30.4232C255.969 30.4232 254.801 29.5039 254.801 28.0155C254.801 26.5125 256.144 25.5056 257.764 25.5056C258.581 25.5056 259.442 25.6808 260.215 25.9288V25.6516C260.215 24.6301 259.806 23.4628 258.172 23.4628C257.413 23.4628 256.655 23.7984 255.969 24.1486L255.531 23.2585C256.611 22.7186 257.515 22.5289 258.245 22.5289ZM257.749 29.4601C258.741 29.4601 259.923 28.9494 260.215 27.8841V26.7314C259.529 26.5417 258.756 26.4249 257.939 26.4249C256.815 26.4249 255.867 27.067 255.867 27.9717C255.867 28.9056 256.684 29.4601 257.749 29.4601ZM267.135 22.5289C268.799 22.5289 269.966 23.74 269.966 25.4473V30.248H268.872V25.5932C268.872 24.3675 268.098 23.5065 266.989 23.5065C265.72 23.5065 264.655 24.3967 264.655 25.4473V30.248H263.56V22.704H264.655V23.9151C265.092 23.1126 266.07 22.5289 267.135 22.5289ZM275.245 22.5289C277.303 22.5289 278.31 23.8276 278.31 25.6516V30.248H277.215V29.0661C276.675 29.9562 275.552 30.4232 274.56 30.4232C272.969 30.4232 271.802 29.5039 271.802 28.0155C271.802 26.5125 273.144 25.5056 274.764 25.5056C275.581 25.5056 276.442 25.6808 277.215 25.9288V25.6516C277.215 24.6301 276.807 23.4628 275.172 23.4628C274.414 23.4628 273.655 23.7984 272.969 24.1486L272.531 23.2585C273.611 22.7186 274.516 22.5289 275.245 22.5289ZM274.749 29.4601C275.741 29.4601 276.923 28.9494 277.215 27.8841V26.7314C276.529 26.5417 275.756 26.4249 274.939 26.4249C273.815 26.4249 272.867 27.067 272.867 27.9717C272.867 28.9056 273.684 29.4601 274.749 29.4601ZM286.412 22.704H287.506V29.4455C287.506 31.3862 285.974 32.7579 283.8 32.7579C282.574 32.7579 281.436 32.3347 280.75 31.751L281.232 30.8901C281.815 31.4446 282.72 31.7802 283.654 31.7802C285.39 31.7802 286.412 30.9193 286.412 29.4455V28.2198C285.828 29.1391 284.865 29.6936 283.668 29.6936C281.64 29.6936 280.196 28.2052 280.196 26.1039C280.196 24.0027 281.64 22.5289 283.668 22.5289C284.865 22.5289 285.828 23.0834 286.412 24.0027V22.704ZM283.873 28.7159C285.361 28.7159 286.412 27.6361 286.412 26.1039C286.412 24.5864 285.361 23.5065 283.873 23.5065C282.399 23.5065 281.348 24.5864 281.348 26.1039C281.348 27.6361 282.399 28.7159 283.873 28.7159ZM293.222 29.4455C294.113 29.4455 295.134 29.0515 295.601 28.5408L296.272 29.2558C295.616 29.9708 294.288 30.4232 293.237 30.4232C291.223 30.4232 289.414 28.7743 289.414 26.4541C289.414 24.207 291.107 22.5289 293.135 22.5289C295.411 22.5289 296.71 24.2507 296.71 26.8919H290.538C290.698 28.3657 291.734 29.4455 293.222 29.4455ZM293.179 23.5065C291.836 23.5065 290.756 24.455 290.552 25.9142H295.63C295.484 24.5572 294.682 23.5065 293.179 23.5065ZM306.658 22.5289C308.234 22.5289 309.343 23.74 309.343 25.4473V30.248H308.248V25.5932C308.248 24.3675 307.533 23.5065 306.512 23.5065C305.315 23.5065 304.469 24.3091 304.469 25.4473V30.248H303.374V25.5932C303.374 24.3675 302.659 23.5065 301.638 23.5065C300.441 23.5065 299.595 24.3091 299.595 25.4473V30.248H298.501V22.704H299.595V23.813C299.975 23.025 300.792 22.5289 301.784 22.5289C302.922 22.5289 303.812 23.1563 304.221 24.134C304.527 23.1563 305.52 22.5289 306.658 22.5289ZM314.954 29.4455C315.844 29.4455 316.865 29.0515 317.332 28.5408L318.003 29.2558C317.347 29.9708 316.019 30.4232 314.968 30.4232C312.955 30.4232 311.145 28.7743 311.145 26.4541C311.145 24.207 312.838 22.5289 314.866 22.5289C317.142 22.5289 318.441 24.2507 318.441 26.8919H312.269C312.429 28.3657 313.465 29.4455 314.954 29.4455ZM314.91 23.5065C313.567 23.5065 312.488 24.455 312.283 25.9142H317.361C317.215 24.5572 316.413 23.5065 314.91 23.5065ZM323.822 22.5289C325.485 22.5289 326.652 23.74 326.652 25.4473V30.248H325.558V25.5932C325.558 24.3675 324.785 23.5065 323.676 23.5065C322.406 23.5065 321.341 24.3967 321.341 25.4473V30.248H320.247V22.704H321.341V23.9151C321.779 23.1126 322.756 22.5289 323.822 22.5289ZM332.18 29.1391L332.72 29.9416C332.326 30.248 331.83 30.4232 331.319 30.4232C330.239 30.4232 329.48 29.6206 329.48 28.497V23.6816H328.298V22.704H329.48V20.6319H330.575V22.704H332.428V23.6816H330.575V28.497C330.575 29.0515 330.954 29.4455 331.392 29.4455C331.728 29.4455 332.019 29.3142 332.18 29.1391Z" fill="#E3EAED"/>
<path d="M208.574 68.4399V65.0351L205.205 60.086H206.385L209.072 64.1353L211.784 60.086H212.927L209.571 65.0351V68.4399H208.574ZM215.598 68.5859C213.834 68.5859 212.339 67.078 212.339 65.2905C212.339 63.503 213.834 62.0073 215.598 62.0073C217.361 62.0073 218.844 63.503 218.844 65.2905C218.844 67.078 217.361 68.5859 215.598 68.5859ZM215.598 67.7711C216.838 67.7711 217.884 66.6403 217.884 65.2905C217.884 63.9529 216.838 62.822 215.598 62.822C214.345 62.822 213.299 63.9529 213.299 65.2905C213.299 66.6403 214.345 67.7711 215.598 67.7711ZM224.777 62.1532H225.689V68.4399H224.777V67.4307C224.412 68.0995 223.597 68.5859 222.71 68.5859C221.323 68.5859 220.35 67.5766 220.35 66.1539V62.1532H221.262V66.0323C221.262 67.0537 221.907 67.7711 222.831 67.7711C223.889 67.7711 224.777 67.0294 224.777 66.1539V62.1532ZM233.992 68.5859C232.229 68.5859 230.733 67.078 230.733 65.2905C230.733 63.503 232.229 62.0073 233.992 62.0073C234.843 62.0073 235.634 62.3599 236.229 62.9315L235.597 63.5516C235.184 63.1017 234.612 62.822 233.992 62.822C232.74 62.822 231.694 63.9529 231.694 65.2905C231.694 66.6403 232.74 67.7711 233.992 67.7711C234.624 67.7711 235.208 67.4793 235.634 67.0051L236.266 67.6252C235.67 68.2211 234.868 68.5859 233.992 68.5859ZM240.218 62.0073C241.932 62.0073 242.771 63.0895 242.771 64.6095V68.4399H241.859V67.455C241.41 68.1967 240.473 68.5859 239.646 68.5859C238.321 68.5859 237.348 67.8198 237.348 66.5795C237.348 65.327 238.467 64.4879 239.817 64.4879C240.498 64.4879 241.215 64.6339 241.859 64.8406V64.6095C241.859 63.7583 241.519 62.7855 240.157 62.7855C239.525 62.7855 238.892 63.0652 238.321 63.3571L237.956 62.6153C238.856 62.1654 239.61 62.0073 240.218 62.0073ZM239.804 67.7833C240.631 67.7833 241.616 67.3577 241.859 66.47V65.5094C241.288 65.3513 240.643 65.254 239.962 65.254C239.026 65.254 238.236 65.7891 238.236 66.543C238.236 67.3212 238.917 67.7833 239.804 67.7833ZM247.626 62.0073C249.012 62.0073 249.985 63.0166 249.985 64.4393V68.4399H249.073V64.5609C249.073 63.5395 248.429 62.822 247.505 62.822C246.447 62.822 245.559 63.5638 245.559 64.4393V68.4399H244.647V62.1532H245.559V63.1625C245.924 62.4937 246.739 62.0073 247.626 62.0073ZM262.155 62.0073C263.469 62.0073 264.393 63.0166 264.393 64.4393V68.4399H263.481V64.5609C263.481 63.5395 262.885 62.822 262.034 62.822C261.037 62.822 260.331 63.4908 260.331 64.4393V68.4399H259.419V64.5609C259.419 63.5395 258.824 62.822 257.972 62.822C256.975 62.822 256.27 63.4908 256.27 64.4393V68.4399H255.358V62.1532H256.27V63.0774C256.586 62.4207 257.267 62.0073 258.094 62.0073C259.042 62.0073 259.784 62.5302 260.125 63.3449C260.38 62.5302 261.207 62.0073 262.155 62.0073ZM268.789 62.0073C270.504 62.0073 271.343 63.0895 271.343 64.6095V68.4399H270.431V67.455C269.981 68.1967 269.044 68.5859 268.218 68.5859C266.892 68.5859 265.919 67.8198 265.919 66.5795C265.919 65.327 267.038 64.4879 268.388 64.4879C269.069 64.4879 269.786 64.6339 270.431 64.8406V64.6095C270.431 63.7583 270.09 62.7855 268.728 62.7855C268.096 62.7855 267.464 63.0652 266.892 63.3571L266.527 62.6153C267.427 62.1654 268.181 62.0073 268.789 62.0073ZM268.376 67.7833C269.203 67.7833 270.187 67.3577 270.431 66.47V65.5094C269.859 65.3513 269.215 65.254 268.534 65.254C267.597 65.254 266.807 65.7891 266.807 66.543C266.807 67.3212 267.488 67.7833 268.376 67.7833ZM276.197 62.0073C277.584 62.0073 278.557 63.0166 278.557 64.4393V68.4399H277.645V64.5609C277.645 63.5395 277 62.822 276.076 62.822C275.018 62.822 274.13 63.5638 274.13 64.4393V68.4399H273.218V62.1532H274.13V63.1625C274.495 62.4937 275.31 62.0073 276.197 62.0073ZM282.956 62.0073C284.671 62.0073 285.51 63.0895 285.51 64.6095V68.4399H284.598V67.455C284.148 68.1967 283.211 68.5859 282.384 68.5859C281.059 68.5859 280.086 67.8198 280.086 66.5795C280.086 65.327 281.205 64.4879 282.555 64.4879C283.236 64.4879 283.953 64.6339 284.598 64.8406V64.6095C284.598 63.7583 284.257 62.7855 282.895 62.7855C282.263 62.7855 281.631 63.0652 281.059 63.3571L280.694 62.6153C281.594 62.1654 282.348 62.0073 282.956 62.0073ZM282.543 67.7833C283.369 67.7833 284.354 67.3577 284.598 66.47V65.5094C284.026 65.3513 283.382 65.254 282.701 65.254C281.764 65.254 280.974 65.7891 280.974 66.543C280.974 67.3212 281.655 67.7833 282.543 67.7833ZM292.261 62.1532H293.173V67.7711C293.173 69.3884 291.897 70.5315 290.085 70.5315C289.063 70.5315 288.115 70.1788 287.543 69.6924L287.945 68.975C288.431 69.4371 289.185 69.7167 289.963 69.7167C291.41 69.7167 292.261 68.9993 292.261 67.7711V66.7497C291.775 67.5158 290.972 67.9779 289.975 67.9779C288.285 67.9779 287.081 66.7375 287.081 64.9865C287.081 63.2355 288.285 62.0073 289.975 62.0073C290.972 62.0073 291.775 62.4694 292.261 63.2355V62.1532ZM290.145 67.1631C291.386 67.1631 292.261 66.2633 292.261 64.9865C292.261 63.7219 291.386 62.822 290.145 62.822C288.917 62.822 288.042 63.7219 288.042 64.9865C288.042 66.2633 288.917 67.1631 290.145 67.1631ZM297.937 67.7711C298.679 67.7711 299.53 67.4428 299.919 67.0172L300.478 67.6131C299.931 68.2089 298.825 68.5859 297.949 68.5859C296.271 68.5859 294.763 67.2118 294.763 65.2783C294.763 63.4057 296.174 62.0073 297.864 62.0073C299.761 62.0073 300.843 63.4422 300.843 65.6431H295.699C295.833 66.8713 296.697 67.7711 297.937 67.7711ZM297.9 62.822C296.782 62.822 295.882 63.6124 295.712 64.8284H299.943C299.822 63.6975 299.153 62.822 297.9 62.822ZM310.289 62.1532H311.201V68.4399H310.289V67.4307C309.924 68.0995 309.109 68.5859 308.221 68.5859C306.835 68.5859 305.862 67.5766 305.862 66.1539V62.1532H306.774V66.0323C306.774 67.0537 307.419 67.7711 308.343 67.7711C309.401 67.7711 310.289 67.0294 310.289 66.1539V62.1532ZM315.284 68.5859C314.408 68.5859 313.436 68.2575 312.682 67.6495L313.156 66.9807C313.873 67.5036 314.591 67.7711 315.284 67.7711C316.111 67.7711 316.67 67.382 316.67 66.7862C316.67 66.1052 315.941 65.8863 315.089 65.6431C313.569 65.2054 312.986 64.7555 312.986 63.8556C312.986 62.7126 313.934 62.0073 315.187 62.0073C315.965 62.0073 316.767 62.2748 317.436 62.7126L316.998 63.4179C316.366 63.0166 315.746 62.822 315.187 62.822C314.481 62.822 313.898 63.1382 313.898 63.7462C313.898 64.2934 314.36 64.4636 315.527 64.8406C316.536 65.1567 317.582 65.4972 317.582 66.6889C317.582 67.8441 316.585 68.5859 315.284 68.5859ZM321.924 67.7711C322.666 67.7711 323.517 67.4428 323.906 67.0172L324.466 67.6131C323.919 68.2089 322.812 68.5859 321.937 68.5859C320.258 68.5859 318.751 67.2118 318.751 65.2783C318.751 63.4057 320.161 62.0073 321.851 62.0073C323.748 62.0073 324.831 63.4422 324.831 65.6431H319.687C319.821 66.8713 320.684 67.7711 321.924 67.7711ZM321.888 62.822C320.769 62.822 319.869 63.6124 319.699 64.8284H323.931C323.809 63.6975 323.14 62.822 321.888 62.822ZM327.32 63.3814C327.697 62.5423 328.597 62.0073 329.752 62.0073V62.822C328.329 62.822 327.32 63.6975 327.32 64.9257V68.4399H326.408V62.1532H327.32V63.3814ZM333.239 68.5859C332.363 68.5859 331.391 68.2575 330.637 67.6495L331.111 66.9807C331.828 67.5036 332.546 67.7711 333.239 67.7711C334.066 67.7711 334.625 67.382 334.625 66.7862C334.625 66.1052 333.896 65.8863 333.044 65.6431C331.524 65.2054 330.941 64.7555 330.941 63.8556C330.941 62.7126 331.889 62.0073 333.142 62.0073C333.92 62.0073 334.722 62.2748 335.391 62.7126L334.953 63.4179C334.321 63.0166 333.701 62.822 333.142 62.822C332.436 62.822 331.853 63.1382 331.853 63.7462C331.853 64.2934 332.315 64.4636 333.482 64.8406C334.491 65.1567 335.537 65.4972 335.537 66.6889C335.537 67.8441 334.54 68.5859 333.239 68.5859ZM343.127 62.0073C344.841 62.0073 345.68 63.0895 345.68 64.6095V68.4399H344.768V67.455C344.318 68.1967 343.382 68.5859 342.555 68.5859C341.23 68.5859 340.257 67.8198 340.257 66.5795C340.257 65.327 341.376 64.4879 342.725 64.4879C343.406 64.4879 344.124 64.6339 344.768 64.8406V64.6095C344.768 63.7583 344.428 62.7855 343.066 62.7855C342.433 62.7855 341.801 63.0652 341.23 63.3571L340.865 62.6153C341.765 62.1654 342.519 62.0073 343.127 62.0073ZM342.713 67.7833C343.54 67.7833 344.525 67.3577 344.768 66.47V65.5094C344.197 65.3513 343.552 65.254 342.871 65.254C341.935 65.254 341.145 65.7891 341.145 66.543C341.145 67.3212 341.825 67.7833 342.713 67.7833ZM350.535 62.0073C351.921 62.0073 352.894 63.0166 352.894 64.4393V68.4399H351.982V64.5609C351.982 63.5395 351.338 62.822 350.413 62.822C349.355 62.822 348.468 63.5638 348.468 64.4393V68.4399H347.556V62.1532H348.468V63.1625C348.833 62.4937 349.647 62.0073 350.535 62.0073ZM359.653 59.9401H360.565V68.4399H359.653V67.2604C359.178 68.0873 358.376 68.5859 357.366 68.5859C355.713 68.5859 354.472 67.2239 354.472 65.2905C354.472 63.3692 355.713 62.0073 357.366 62.0073C358.376 62.0073 359.178 62.5059 359.653 63.3327V59.9401ZM357.537 67.7711C358.777 67.7711 359.653 66.7375 359.653 65.2905C359.653 63.8435 358.777 62.822 357.537 62.822C356.309 62.822 355.433 63.8435 355.433 65.2905C355.433 66.7375 356.309 67.7711 357.537 67.7711ZM368.575 62.0073C370.289 62.0073 371.128 63.0895 371.128 64.6095V68.4399H370.216V67.455C369.766 68.1967 368.83 68.5859 368.003 68.5859C366.678 68.5859 365.705 67.8198 365.705 66.5795C365.705 65.327 366.824 64.4879 368.173 64.4879C368.854 64.4879 369.572 64.6339 370.216 64.8406V64.6095C370.216 63.7583 369.876 62.7855 368.514 62.7855C367.882 62.7855 367.249 63.0652 366.678 63.3571L366.313 62.6153C367.213 62.1654 367.967 62.0073 368.575 62.0073ZM368.161 67.7833C368.988 67.7833 369.973 67.3577 370.216 66.47V65.5094C369.645 65.3513 369 65.254 368.319 65.254C367.383 65.254 366.593 65.7891 366.593 66.543C366.593 67.3212 367.274 67.7833 368.161 67.7833ZM375.217 68.5859C374.342 68.5859 373.369 68.2575 372.615 67.6495L373.089 66.9807C373.806 67.5036 374.524 67.7711 375.217 67.7711C376.044 67.7711 376.603 67.382 376.603 66.7862C376.603 66.1052 375.874 65.8863 375.022 65.6431C373.502 65.2054 372.919 64.7555 372.919 63.8556C372.919 62.7126 373.867 62.0073 375.12 62.0073C375.898 62.0073 376.701 62.2748 377.369 62.7126L376.932 63.4179C376.299 63.0166 375.679 62.822 375.12 62.822C374.414 62.822 373.831 63.1382 373.831 63.7462C373.831 64.2934 374.293 64.4636 375.46 64.8406C376.47 65.1567 377.515 65.4972 377.515 66.6889C377.515 67.8441 376.518 68.5859 375.217 68.5859ZM381.25 68.5859C380.374 68.5859 379.401 68.2575 378.647 67.6495L379.122 66.9807C379.839 67.5036 380.556 67.7711 381.25 67.7711C382.076 67.7711 382.636 67.382 382.636 66.7862C382.636 66.1052 381.906 65.8863 381.055 65.6431C379.535 65.2054 378.951 64.7555 378.951 63.8556C378.951 62.7126 379.9 62.0073 381.152 62.0073C381.93 62.0073 382.733 62.2748 383.402 62.7126L382.964 63.4179C382.332 63.0166 381.712 62.822 381.152 62.822C380.447 62.822 379.863 63.1382 379.863 63.7462C379.863 64.2934 380.325 64.4636 381.493 64.8406C382.502 65.1567 383.548 65.4972 383.548 66.6889C383.548 67.8441 382.551 68.5859 381.25 68.5859ZM385.507 61.0102C385.166 61.0102 384.899 60.7305 384.899 60.4022C384.899 60.086 385.166 59.8063 385.507 59.8063C385.835 59.8063 386.103 60.086 386.103 60.4022C386.103 60.7305 385.835 61.0102 385.507 61.0102ZM385.045 68.4399V62.1532H385.957V68.4399H385.045ZM392.676 62.1532H393.588V67.7711C393.588 69.3884 392.312 70.5315 390.5 70.5315C389.478 70.5315 388.53 70.1788 387.958 69.6924L388.36 68.975C388.846 69.4371 389.6 69.7167 390.378 69.7167C391.825 69.7167 392.676 68.9993 392.676 67.7711V66.7497C392.19 67.5158 391.387 67.9779 390.39 67.9779C388.7 67.9779 387.496 66.7375 387.496 64.9865C387.496 63.2355 388.7 62.0073 390.39 62.0073C391.387 62.0073 392.19 62.4694 392.676 63.2355V62.1532ZM390.56 67.1631C391.801 67.1631 392.676 66.2633 392.676 64.9865C392.676 63.7219 391.801 62.822 390.56 62.822C389.332 62.822 388.457 63.7219 388.457 64.9865C388.457 66.2633 389.332 67.1631 390.56 67.1631ZM398.51 62.0073C399.896 62.0073 400.869 63.0166 400.869 64.4393V68.4399H399.957V64.5609C399.957 63.5395 399.313 62.822 398.388 62.822C397.33 62.822 396.443 63.5638 396.443 64.4393V68.4399H395.531V62.1532H396.443V63.1625C396.808 62.4937 397.622 62.0073 398.51 62.0073ZM206.908 80.3814C207.285 79.5423 208.184 79.0073 209.34 79.0073V79.822C207.917 79.822 206.908 80.6975 206.908 81.9257V85.4399H205.996V79.1532H206.908V80.3814ZM213.318 85.5859C211.554 85.5859 210.059 84.078 210.059 82.2905C210.059 80.503 211.554 79.0073 213.318 79.0073C215.081 79.0073 216.564 80.503 216.564 82.2905C216.564 84.078 215.081 85.5859 213.318 85.5859ZM213.318 84.7711C214.558 84.7711 215.604 83.6403 215.604 82.2905C215.604 80.9529 214.558 79.822 213.318 79.822C212.065 79.822 211.019 80.9529 211.019 82.2905C211.019 83.6403 212.065 84.7711 213.318 84.7711ZM218.07 85.4399V76.9401H218.982V85.4399H218.07ZM223.659 84.7711C224.401 84.7711 225.252 84.4428 225.641 84.0172L226.2 84.6131C225.653 85.2089 224.546 85.5859 223.671 85.5859C221.993 85.5859 220.485 84.2118 220.485 82.2783C220.485 80.4057 221.896 79.0073 223.586 79.0073C225.483 79.0073 226.565 80.4422 226.565 82.6431H221.421C221.555 83.8713 222.418 84.7711 223.659 84.7711ZM223.622 79.822C222.504 79.822 221.604 80.6124 221.433 81.8284H225.665C225.544 80.6975 224.875 79.822 223.622 79.822ZM230.283 85.5859C229.407 85.5859 228.434 85.2575 227.68 84.6495L228.155 83.9807C228.872 84.5036 229.59 84.7711 230.283 84.7711C231.11 84.7711 231.669 84.382 231.669 83.7862C231.669 83.1052 230.939 82.8863 230.088 82.6431C228.568 82.2054 227.984 81.7555 227.984 80.8556C227.984 79.7126 228.933 79.0073 230.185 79.0073C230.964 79.0073 231.766 79.2748 232.435 79.7126L231.997 80.4179C231.365 80.0166 230.745 79.822 230.185 79.822C229.48 79.822 228.896 80.1382 228.896 80.7462C228.896 81.2934 229.358 81.4636 230.526 81.8406C231.535 82.1567 232.581 82.4972 232.581 83.6889C232.581 84.8441 231.584 85.5859 230.283 85.5859ZM240.608 79.0073C241.994 79.0073 242.967 80.0166 242.967 81.4393V85.4399H242.055V81.5609C242.055 80.5395 241.411 79.822 240.486 79.822C239.429 79.822 238.541 80.5638 238.541 81.4393V85.4399H237.629V76.9401H238.541V80.1625C238.906 79.4937 239.72 79.0073 240.608 79.0073ZM247.646 84.7711C248.388 84.7711 249.239 84.4428 249.628 84.0172L250.188 84.6131C249.641 85.2089 248.534 85.5859 247.658 85.5859C245.98 85.5859 244.473 84.2118 244.473 82.2783C244.473 80.4057 245.883 79.0073 247.573 79.0073C249.47 79.0073 250.553 80.4422 250.553 82.6431H245.409C245.543 83.8713 246.406 84.7711 247.646 84.7711ZM247.61 79.822C246.491 79.822 245.591 80.6124 245.421 81.8284H249.653C249.531 80.6975 248.862 79.822 247.61 79.822ZM253.042 80.3814C253.419 79.5423 254.319 79.0073 255.474 79.0073V79.822C254.051 79.822 253.042 80.6975 253.042 81.9257V85.4399H252.13V79.1532H253.042V80.3814ZM259.569 84.7711C260.311 84.7711 261.162 84.4428 261.551 84.0172L262.11 84.6131C261.563 85.2089 260.456 85.5859 259.581 85.5859C257.903 85.5859 256.395 84.2118 256.395 82.2783C256.395 80.4057 257.806 79.0073 259.496 79.0073C261.393 79.0073 262.475 80.4422 262.475 82.6431H257.331C257.465 83.8713 258.328 84.7711 259.569 84.7711ZM259.532 79.822C258.414 79.822 257.514 80.6124 257.343 81.8284H261.575C261.454 80.6975 260.785 79.822 259.532 79.822ZM264.6 85.5859C264.223 85.5859 263.931 85.2819 263.931 84.9171C263.931 84.5766 264.223 84.2726 264.6 84.2726C264.952 84.2726 265.244 84.5766 265.244 84.9171C265.244 85.2819 264.952 85.5859 264.6 85.5859Z" fill="#ACB8BE"/>
<path d="M208.473 137.321C207.23 137.321 206.251 136.87 205.492 136.122L206.031 135.451C206.669 136.089 207.45 136.54 208.506 136.54C209.672 136.54 210.266 135.902 210.266 135.22C210.266 134.417 209.551 134.098 208.231 133.79C206.713 133.438 205.756 132.965 205.756 131.656C205.756 130.446 206.834 129.5 208.286 129.5C209.408 129.5 210.244 129.94 210.937 130.578L210.409 131.249C209.782 130.644 209.034 130.281 208.242 130.281C207.307 130.281 206.625 130.897 206.625 131.59C206.625 132.371 207.373 132.646 208.66 132.954C210.101 133.295 211.135 133.812 211.135 135.143C211.135 136.342 210.233 137.321 208.473 137.321ZM215.065 136.364L215.472 136.969C215.175 137.2 214.801 137.332 214.416 137.332C213.602 137.332 213.03 136.727 213.03 135.88V132.25H212.139V131.513H213.03V129.951H213.855V131.513H215.252V132.25H213.855V135.88C213.855 136.298 214.141 136.595 214.471 136.595C214.724 136.595 214.944 136.496 215.065 136.364ZM219.203 136.595C219.874 136.595 220.644 136.298 220.996 135.913L221.502 136.452C221.007 136.991 220.006 137.332 219.214 137.332C217.696 137.332 216.332 136.089 216.332 134.34C216.332 132.646 217.608 131.381 219.137 131.381C220.853 131.381 221.832 132.679 221.832 134.67H217.179C217.3 135.781 218.081 136.595 219.203 136.595ZM219.17 132.118C218.158 132.118 217.344 132.833 217.19 133.933H221.018C220.908 132.91 220.303 132.118 219.17 132.118ZM226.152 131.381C227.648 131.381 228.77 132.613 228.77 134.351C228.77 136.1 227.648 137.332 226.152 137.332C225.239 137.332 224.513 136.881 224.084 136.133V139.092H223.259V131.513H224.084V132.58C224.513 131.832 225.239 131.381 226.152 131.381ZM225.998 136.595C227.109 136.595 227.901 135.66 227.901 134.351C227.901 133.042 227.109 132.118 225.998 132.118C224.876 132.118 224.084 133.042 224.084 134.351C224.084 135.66 224.876 136.595 225.998 136.595ZM234.531 137.2V130.688L233.211 131.546L232.837 130.908L234.696 129.643H235.389V137.2H234.531ZM236.253 138.014L240.114 129.027H241.049L237.188 138.014H236.253ZM244.272 137.332C243.106 137.332 242.226 136.837 241.61 136.133L242.171 135.506C242.754 136.144 243.469 136.562 244.305 136.562C245.35 136.562 246.087 135.836 246.087 134.879C246.087 133.911 245.339 133.251 244.283 133.251C243.634 133.251 243.073 133.482 242.6 133.834L241.973 133.526L242.083 129.643H246.549V130.457H242.919L242.842 132.998C243.249 132.723 243.766 132.492 244.459 132.492C245.823 132.492 246.956 133.35 246.956 134.846C246.956 136.342 245.823 137.332 244.272 137.332Z" fill="#F1F6F8"/>
<defs>
<filter id="filter0_d_11240_3796" x="163.633" y="0" width="281.388" height="158" filterUnits="userSpaceOnUse" color-interpolation-filters="sRGB">
<feFlood flood-opacity="0" result="BackgroundImageFix"/>
<feColorMatrix in="SourceAlpha" type="matrix" values="0 0 0 0 0 0 0 0 0 0 0 0 0 0 0 0 0 0 127 0" result="hardAlpha"/>
<feOffset dy="1"/>
<feGaussianBlur stdDeviation="1"/>
<feColorMatrix type="matrix" values="0 0 0 0 0 0 0 0 0 0 0 0 0 0 0 0 0 0 0.8 0"/>
<feBlend mode="normal" in2="BackgroundImageFix" result="effect1_dropShadow_11240_3796"/>
<feBlend mode="normal" in="SourceGraphic" in2="effect1_dropShadow_11240_3796" result="shape"/>
</filter>
</defs>
</svg>
