<svg width="452" height="255" viewBox="0 0 452 255" fill="none" xmlns="http://www.w3.org/2000/svg">
<rect x="0.5" y="9.5" width="307" height="202" fill="#1B2B32"/>
<rect x="0.5" y="9.5" width="307" height="202" stroke="#4F6169"/>
<rect x="0.5" y="9.5" width="307" height="202" stroke="#4F6169"/>
<rect x="1" y="9" width="307" height="13" fill="#95A2A8"/>
<rect x="1" y="22" width="56" height="189" fill="#1B2B32"/>
<path d="M72.1259 39.0318C70.707 39.0318 69.7019 37.9929 69.7019 36.5233V33.128H70.3607V36.5233C70.3607 37.6382 71.0955 38.4321 72.1259 38.4321C73.1564 38.4321 73.8912 37.6382 73.8912 36.5233V33.128H74.5499V36.5233C74.5499 37.9929 73.5449 39.0318 72.1259 39.0318ZM77.4646 39.0318C76.8565 39.0318 76.1808 38.8037 75.6572 38.3814L75.9866 37.9169C76.4849 38.2801 76.9832 38.4659 77.4646 38.4659C78.0389 38.4659 78.4274 38.1956 78.4274 37.7818C78.4274 37.3088 77.9207 37.1568 77.3295 36.9878C76.2737 36.6838 75.8683 36.3713 75.8683 35.7463C75.8683 34.9524 76.5271 34.4625 77.397 34.4625C77.9376 34.4625 78.495 34.6483 78.9595 34.9524L78.6555 35.4422C78.2163 35.1635 77.7855 35.0284 77.397 35.0284C76.9072 35.0284 76.5018 35.248 76.5018 35.6703C76.5018 36.0503 76.8227 36.1686 77.6335 36.4304C78.3345 36.65 79.0609 36.8865 79.0609 37.7142C79.0609 38.5166 78.3683 39.0318 77.4646 39.0318ZM82.0769 38.4659C82.5921 38.4659 83.1833 38.2378 83.4536 37.9422L83.8421 38.3561C83.462 38.7699 82.6935 39.0318 82.0854 39.0318C80.9198 39.0318 79.8725 38.0774 79.8725 36.7345C79.8725 35.4338 80.8522 34.4625 82.0262 34.4625C83.3438 34.4625 84.0955 35.4591 84.0955 36.9878H80.5228C80.6157 37.8409 81.2154 38.4659 82.0769 38.4659ZM82.0516 35.0284C81.2745 35.0284 80.6495 35.5774 80.5313 36.422H83.4705C83.386 35.6365 82.9215 35.0284 82.0516 35.0284ZM85.8246 35.4169C86.0864 34.8341 86.7114 34.4625 87.5138 34.4625V35.0284C86.5256 35.0284 85.8246 35.6365 85.8246 36.4895V38.9304H85.1912V34.5638H85.8246V35.4169ZM90.9917 38.9304V33.128H91.6505L93.8042 37.1737L95.958 33.128H96.6167V38.9304H95.958V34.5469L93.8042 38.5926L91.6505 34.5469V38.9304H90.9917ZM99.8221 34.4625C101.013 34.4625 101.596 35.2142 101.596 36.2699V38.9304H100.962V38.2463C100.65 38.7615 99.9995 39.0318 99.4252 39.0318C98.5046 39.0318 97.8289 38.4997 97.8289 37.6382C97.8289 36.7682 98.6059 36.1855 99.5434 36.1855C100.016 36.1855 100.515 36.2868 100.962 36.4304V36.2699C100.962 35.6787 100.726 35.003 99.7799 35.003C99.3407 35.003 98.9015 35.1973 98.5046 35.4L98.2512 34.8848C98.8762 34.5723 99.3998 34.4625 99.8221 34.4625ZM99.535 38.4743C100.109 38.4743 100.793 38.1787 100.962 37.5622V36.8949C100.565 36.7851 100.118 36.7176 99.6448 36.7176C98.9944 36.7176 98.4454 37.0892 98.4454 37.6128C98.4454 38.1534 98.9184 38.4743 99.535 38.4743ZM104.968 34.4625C105.931 34.4625 106.606 35.1635 106.606 36.1517V38.9304H105.973V36.2361C105.973 35.5267 105.525 35.0284 104.883 35.0284C104.149 35.0284 103.532 35.5436 103.532 36.1517V38.9304H102.899V34.5638H103.532V35.2649C103.785 34.8003 104.351 34.4625 104.968 34.4625ZM109.662 34.4625C110.853 34.4625 111.436 35.2142 111.436 36.2699V38.9304H110.802V38.2463C110.49 38.7615 109.839 39.0318 109.265 39.0318C108.344 39.0318 107.669 38.4997 107.669 37.6382C107.669 36.7682 108.446 36.1855 109.383 36.1855C109.856 36.1855 110.355 36.2868 110.802 36.4304V36.2699C110.802 35.6787 110.566 35.003 109.62 35.003C109.181 35.003 108.741 35.1973 108.344 35.4L108.091 34.8848C108.716 34.5723 109.24 34.4625 109.662 34.4625ZM109.375 38.4743C109.949 38.4743 110.633 38.1787 110.802 37.5622V36.8949C110.405 36.7851 109.958 36.7176 109.485 36.7176C108.834 36.7176 108.285 37.0892 108.285 37.6128C108.285 38.1534 108.758 38.4743 109.375 38.4743ZM116.125 34.5638H116.759V38.4659C116.759 39.5892 115.872 40.3831 114.613 40.3831C113.904 40.3831 113.245 40.1382 112.848 39.8004L113.127 39.302C113.465 39.623 113.988 39.8172 114.529 39.8172C115.534 39.8172 116.125 39.3189 116.125 38.4659V37.7564C115.787 38.2885 115.23 38.6095 114.537 38.6095C113.363 38.6095 112.527 37.748 112.527 36.5318C112.527 35.3155 113.363 34.4625 114.537 34.4625C115.23 34.4625 115.787 34.7834 116.125 35.3155V34.5638ZM114.656 38.0436C115.517 38.0436 116.125 37.4186 116.125 36.5318C116.125 35.6534 115.517 35.0284 114.656 35.0284C113.803 35.0284 113.195 35.6534 113.195 36.5318C113.195 37.4186 113.803 38.0436 114.656 38.0436ZM120.067 38.4659C120.583 38.4659 121.174 38.2378 121.444 37.9422L121.833 38.3561C121.453 38.7699 120.684 39.0318 120.076 39.0318C118.91 39.0318 117.863 38.0774 117.863 36.7345C117.863 35.4338 118.843 34.4625 120.017 34.4625C121.334 34.4625 122.086 35.4591 122.086 36.9878H118.513C118.606 37.8409 119.206 38.4659 120.067 38.4659ZM120.042 35.0284C119.265 35.0284 118.64 35.5774 118.522 36.422H121.461C121.377 35.6365 120.912 35.0284 120.042 35.0284ZM127.844 34.4625C128.756 34.4625 129.398 35.1635 129.398 36.1517V38.9304H128.764V36.2361C128.764 35.5267 128.351 35.0284 127.759 35.0284C127.067 35.0284 126.577 35.4929 126.577 36.1517V38.9304H125.943V36.2361C125.943 35.5267 125.53 35.0284 124.938 35.0284C124.246 35.0284 123.756 35.4929 123.756 36.1517V38.9304H123.123V34.5638H123.756V35.2057C123.976 34.7497 124.449 34.4625 125.023 34.4625C125.682 34.4625 126.197 34.8257 126.433 35.3915C126.611 34.8257 127.185 34.4625 127.844 34.4625ZM132.646 38.4659C133.161 38.4659 133.752 38.2378 134.022 37.9422L134.411 38.3561C134.031 38.7699 133.262 39.0318 132.654 39.0318C131.489 39.0318 130.441 38.0774 130.441 36.7345C130.441 35.4338 131.421 34.4625 132.595 34.4625C133.913 34.4625 134.664 35.4591 134.664 36.9878H131.092C131.184 37.8409 131.784 38.4659 132.646 38.4659ZM132.62 35.0284C131.843 35.0284 131.218 35.5774 131.1 36.422H134.039C133.955 35.6365 133.49 35.0284 132.62 35.0284ZM137.778 34.4625C138.741 34.4625 139.417 35.1635 139.417 36.1517V38.9304H138.784V36.2361C138.784 35.5267 138.336 35.0284 137.694 35.0284C136.959 35.0284 136.343 35.5436 136.343 36.1517V38.9304H135.709V34.5638H136.343V35.2649C136.596 34.8003 137.162 34.4625 137.778 34.4625ZM142.616 38.2885L142.929 38.7531C142.701 38.9304 142.414 39.0318 142.118 39.0318C141.493 39.0318 141.054 38.5672 141.054 37.9169V35.1297H140.37V34.5638H141.054V33.3645H141.687V34.5638H142.76V35.1297H141.687V37.9169C141.687 38.2378 141.907 38.4659 142.16 38.4659C142.355 38.4659 142.523 38.3899 142.616 38.2885Z" fill="#ACB8BE"/>
<rect x="69.3148" y="53.2484" width="25.3332" height="9.78713" rx="1.05575" stroke="#2EC0FF" stroke-width="0.703833"/>
<rect opacity="0.5" x="74.5928" y="57.3926" width="14.7778" height="1.49871" rx="0.749353" fill="#2EC0FF"/>
<rect opacity="0.5" x="106.259" y="57.3926" width="14.7778" height="1.49871" rx="0.749353" fill="#2EC0FF"/>
<rect x="100.278" y="53.2484" width="25.3332" height="9.78712" rx="1.05575" stroke="#2EC0FF" stroke-width="0.703833"/>
<g opacity="0.4">
<rect x="68.9756" y="86" width="25.7906" height="2" rx="1" fill="#ACB8BE"/>
<rect x="149.213" y="86" width="46.453" height="2" rx="1" fill="#ACB8BE"/>
<rect x="118.244" y="86" width="19.7073" height="2" rx="1" fill="#ACB8BE"/>
<rect x="235.08" y="86" width="17.5958" height="2" rx="1" fill="#ACB8BE"/>
</g>
<g opacity="0.4">
<rect x="68.9756" y="98" width="25.7906" height="2" rx="1" fill="#ACB8BE"/>
<rect x="149.213" y="98" width="46.453" height="2" rx="1" fill="#ACB8BE"/>
<rect x="118.244" y="98" width="19.7073" height="2" rx="1" fill="#ACB8BE"/>
<rect x="235.08" y="98" width="17.5958" height="2" rx="1" fill="#ACB8BE"/>
</g>
<g opacity="0.4">
<rect x="68.9756" y="110" width="25.7906" height="2" rx="1" fill="#ACB8BE"/>
<rect x="149.213" y="110" width="46.453" height="2" rx="1" fill="#ACB8BE"/>
<rect x="118.244" y="110" width="19.7073" height="2" rx="1" fill="#ACB8BE"/>
<rect x="235.08" y="110" width="17.5958" height="2" rx="1" fill="#ACB8BE"/>
</g>
<g opacity="0.4">
<rect x="68.9756" y="122" width="25.7906" height="2" rx="1" fill="#ACB8BE"/>
<rect x="149.213" y="122" width="46.453" height="2" rx="1" fill="#ACB8BE"/>
<rect x="118.244" y="122" width="19.7073" height="2" rx="1" fill="#ACB8BE"/>
<rect x="235.08" y="122" width="17.5958" height="2" rx="1" fill="#ACB8BE"/>
</g>
<g opacity="0.4">
<rect x="68.9756" y="134" width="25.7906" height="2" rx="1" fill="#ACB8BE"/>
<rect x="149.213" y="134" width="46.453" height="2" rx="1" fill="#ACB8BE"/>
<rect x="118.244" y="134" width="19.7073" height="2" rx="1" fill="#ACB8BE"/>
<rect x="235.08" y="134" width="17.5958" height="2" rx="1" fill="#ACB8BE"/>
</g>
<g opacity="0.4">
<rect x="68.9756" y="146" width="25.7906" height="2" rx="1" fill="#ACB8BE"/>
<rect x="149.213" y="146" width="46.453" height="2" rx="1" fill="#ACB8BE"/>
<rect x="118.244" y="146" width="19.7073" height="2" rx="1" fill="#ACB8BE"/>
<rect x="235.08" y="146" width="17.5958" height="2" rx="1" fill="#ACB8BE"/>
</g>
<g opacity="0.4">
<rect x="68.9756" y="158" width="25.7906" height="2" rx="1" fill="#ACB8BE"/>
<rect x="149.213" y="158" width="46.453" height="2" rx="1" fill="#ACB8BE"/>
<rect x="118.244" y="158" width="19.7073" height="2" rx="1" fill="#ACB8BE"/>
<rect x="235.08" y="158" width="17.5958" height="2" rx="1" fill="#ACB8BE"/>
</g>
<g opacity="0.4">
<rect x="68.9756" y="170" width="25.7906" height="2" rx="1" fill="#ACB8BE"/>
<rect x="149.213" y="170" width="46.453" height="2" rx="1" fill="#ACB8BE"/>
<rect x="118.244" y="170" width="19.7073" height="2" rx="1" fill="#ACB8BE"/>
<rect x="235.08" y="170" width="17.5958" height="2" rx="1" fill="#ACB8BE"/>
</g>
<g opacity="0.4">
<rect x="68.9756" y="182" width="25.7906" height="2" rx="1" fill="#ACB8BE"/>
<rect x="149.213" y="182" width="46.453" height="2" rx="1" fill="#ACB8BE"/>
<rect x="118.244" y="182" width="19.7073" height="2" rx="1" fill="#ACB8BE"/>
<rect x="235.08" y="182" width="17.5958" height="2" rx="1" fill="#ACB8BE"/>
</g>
<rect x="0.605911" y="9.60591" width="372.03" height="244.788" fill="#1B2B32"/>
<rect x="0.605911" y="9.60591" width="372.03" height="244.788" stroke="#4F6169" stroke-width="1.21182"/>
<rect x="0.605911" y="9.60591" width="372.03" height="244.788" stroke="#4F6169" stroke-width="1.21182"/>
<rect x="1.21191" y="9" width="372.03" height="15.7537" fill="black"/>
<rect x="1.21191" y="24.7537" width="67.8621" height="229.034" fill="#22343C"/>
<path d="M87.4036 44.9107C85.6841 44.9107 84.4662 43.6518 84.4662 41.8709V37.7564H85.2645V41.8709C85.2645 43.2219 86.1549 44.184 87.4036 44.184C88.6523 44.184 89.5427 43.2219 89.5427 41.8709V37.7564H90.3411V41.8709C90.3411 43.6518 89.1231 44.9107 87.4036 44.9107ZM93.8731 44.9107C93.1362 44.9107 92.3174 44.6343 91.6828 44.1226L92.082 43.5596C92.6859 43.9997 93.2897 44.2249 93.8731 44.2249C94.5691 44.2249 95.0399 43.8974 95.0399 43.3959C95.0399 42.8227 94.4258 42.6385 93.7094 42.4338C92.43 42.0653 91.9387 41.6866 91.9387 40.9292C91.9387 39.9671 92.737 39.3735 93.7912 39.3735C94.4463 39.3735 95.1218 39.5987 95.6847 39.9671L95.3163 40.5608C94.784 40.223 94.262 40.0593 93.7912 40.0593C93.1976 40.0593 92.7063 40.3254 92.7063 40.8371C92.7063 41.2977 93.0953 41.441 94.0778 41.7583C94.9273 42.0244 95.8075 42.311 95.8075 43.314C95.8075 44.2863 94.9683 44.9107 93.8731 44.9107ZM99.4624 44.2249C100.087 44.2249 100.803 43.9486 101.131 43.5903L101.602 44.0919C101.141 44.5934 100.21 44.9107 99.4726 44.9107C98.0602 44.9107 96.7911 43.7541 96.7911 42.1267C96.7911 40.5505 97.9783 39.3735 99.401 39.3735C100.998 39.3735 101.909 40.5812 101.909 42.4338H97.5792C97.6917 43.4675 98.4184 44.2249 99.4624 44.2249ZM99.4317 40.0593C98.4901 40.0593 97.7327 40.7245 97.5894 41.748H101.151C101.049 40.7962 100.486 40.0593 99.4317 40.0593ZM104.004 40.5301C104.321 39.8238 105.079 39.3735 106.051 39.3735V40.0593C104.853 40.0593 104.004 40.7962 104.004 41.8299V44.7878H103.236V39.4963H104.004V40.5301ZM110.266 44.7878V37.7564H111.064L113.674 42.659L116.284 37.7564H117.082V44.7878H116.284V39.4759L113.674 44.3784L111.064 39.4759V44.7878H110.266ZM120.966 39.3735C122.41 39.3735 123.116 40.2844 123.116 41.5638V44.7878H122.348V43.9588C121.97 44.5831 121.181 44.9107 120.485 44.9107C119.37 44.9107 118.551 44.2659 118.551 43.2219C118.551 42.1677 119.493 41.4615 120.629 41.4615C121.202 41.4615 121.806 41.5843 122.348 41.7583V41.5638C122.348 40.8473 122.062 40.0285 120.915 40.0285C120.383 40.0285 119.851 40.264 119.37 40.5096L119.063 39.8853C119.82 39.5066 120.455 39.3735 120.966 39.3735ZM120.618 44.2351C121.314 44.2351 122.144 43.8769 122.348 43.1298V42.3212C121.867 42.1881 121.325 42.1063 120.752 42.1063C119.963 42.1063 119.298 42.5566 119.298 43.1912C119.298 43.8462 119.871 44.2351 120.618 44.2351ZM127.202 39.3735C128.369 39.3735 129.188 40.223 129.188 41.4205V44.7878H128.42V41.5229C128.42 40.6631 127.878 40.0593 127.1 40.0593C126.209 40.0593 125.462 40.6836 125.462 41.4205V44.7878H124.695V39.4963H125.462V40.3458C125.769 39.7829 126.455 39.3735 127.202 39.3735ZM132.891 39.3735C134.334 39.3735 135.04 40.2844 135.04 41.5638V44.7878H134.272V43.9588C133.894 44.5831 133.106 44.9107 132.41 44.9107C131.294 44.9107 130.475 44.2659 130.475 43.2219C130.475 42.1677 131.417 41.4615 132.553 41.4615C133.126 41.4615 133.73 41.5843 134.272 41.7583V41.5638C134.272 40.8473 133.986 40.0285 132.84 40.0285C132.307 40.0285 131.775 40.264 131.294 40.5096L130.987 39.8853C131.744 39.5066 132.379 39.3735 132.891 39.3735ZM132.543 44.2351C133.239 44.2351 134.068 43.8769 134.272 43.1298V42.3212C133.791 42.1881 133.249 42.1063 132.676 42.1063C131.888 42.1063 131.222 42.5566 131.222 43.1912C131.222 43.8462 131.796 44.2351 132.543 44.2351ZM140.723 39.4963H141.491V44.2249C141.491 45.5862 140.416 46.5483 138.891 46.5483C138.031 46.5483 137.233 46.2515 136.752 45.8421L137.09 45.2382C137.499 45.6271 138.134 45.8625 138.789 45.8625C140.007 45.8625 140.723 45.2587 140.723 44.2249V43.3652C140.314 44.01 139.638 44.3989 138.799 44.3989C137.376 44.3989 136.363 43.3549 136.363 41.8811C136.363 40.4072 137.376 39.3735 138.799 39.3735C139.638 39.3735 140.314 39.7624 140.723 40.4072V39.4963ZM138.942 43.7132C139.986 43.7132 140.723 42.9558 140.723 41.8811C140.723 40.8166 139.986 40.0593 138.942 40.0593C137.908 40.0593 137.171 40.8166 137.171 41.8811C137.171 42.9558 137.908 43.7132 138.942 43.7132ZM145.5 44.2249C146.124 44.2249 146.841 43.9486 147.168 43.5903L147.639 44.0919C147.179 44.5934 146.247 44.9107 145.51 44.9107C144.098 44.9107 142.829 43.7541 142.829 42.1267C142.829 40.5505 144.016 39.3735 145.439 39.3735C147.035 39.3735 147.946 40.5812 147.946 42.4338H143.617C143.729 43.4675 144.456 44.2249 145.5 44.2249ZM145.469 40.0593C144.528 40.0593 143.77 40.7245 143.627 41.748H147.189C147.087 40.7962 146.524 40.0593 145.469 40.0593ZM154.924 39.3735C156.029 39.3735 156.807 40.223 156.807 41.4205V44.7878H156.039V41.5229C156.039 40.6631 155.538 40.0593 154.821 40.0593C153.982 40.0593 153.389 40.6222 153.389 41.4205V44.7878H152.621V41.5229C152.621 40.6631 152.119 40.0593 151.403 40.0593C150.564 40.0593 149.97 40.6222 149.97 41.4205V44.7878H149.202V39.4963H149.97V40.2742C150.236 39.7215 150.809 39.3735 151.505 39.3735C152.304 39.3735 152.928 39.8136 153.215 40.4994C153.429 39.8136 154.125 39.3735 154.924 39.3735ZM160.743 44.2249C161.367 44.2249 162.084 43.9486 162.411 43.5903L162.882 44.0919C162.421 44.5934 161.49 44.9107 160.753 44.9107C159.341 44.9107 158.071 43.7541 158.071 42.1267C158.071 40.5505 159.259 39.3735 160.681 39.3735C162.278 39.3735 163.189 40.5812 163.189 42.4338H158.859C158.972 43.4675 159.699 44.2249 160.743 44.2249ZM160.712 40.0593C159.77 40.0593 159.013 40.7245 158.87 41.748H162.432C162.329 40.7962 161.766 40.0593 160.712 40.0593ZM166.963 39.3735C168.13 39.3735 168.948 40.223 168.948 41.4205V44.7878H168.181V41.5229C168.181 40.6631 167.638 40.0593 166.861 40.0593C165.97 40.0593 165.223 40.6836 165.223 41.4205V44.7878H164.455V39.4963H165.223V40.3458C165.53 39.7829 166.216 39.3735 166.963 39.3735ZM172.825 44.01L173.204 44.5729C172.928 44.7878 172.58 44.9107 172.222 44.9107C171.464 44.9107 170.932 44.3477 170.932 43.5596V40.1821H170.103V39.4963H170.932V38.0429H171.7V39.4963H172.999V40.1821H171.7V43.5596C171.7 43.9486 171.966 44.2249 172.273 44.2249C172.508 44.2249 172.713 44.1328 172.825 44.01Z" fill="#ACB8BE"/>
<rect x="83.9968" y="62.621" width="30.6993" height="11.8603" rx="1.27938" stroke="#2EC0FF" stroke-width="0.85292"/>
<rect opacity="0.5" x="90.3926" y="67.6433" width="17.908" height="1.81617" rx="0.908083" fill="#2EC0FF"/>
<rect opacity="0.5" x="128.767" y="67.6433" width="17.908" height="1.81617" rx="0.908083" fill="#2EC0FF"/>
<rect x="121.518" y="62.621" width="30.6993" height="11.8603" rx="1.27938" stroke="#2EC0FF" stroke-width="0.85292"/>
<g opacity="0.4">
<rect x="83.5859" y="102.31" width="31.2537" height="2.42365" rx="1.21182" fill="#ACB8BE"/>
<rect x="180.819" y="102.31" width="56.2927" height="2.42365" rx="1.21182" fill="#ACB8BE"/>
<rect x="143.291" y="102.31" width="23.8818" height="2.42365" rx="1.21182" fill="#ACB8BE"/>
<rect x="284.876" y="102.31" width="21.323" height="2.42365" rx="1.21182" fill="#ACB8BE"/>
</g>
<g opacity="0.4">
<rect x="83.5859" y="116.852" width="31.2537" height="2.42365" rx="1.21182" fill="#ACB8BE"/>
<rect x="180.819" y="116.852" width="56.2927" height="2.42365" rx="1.21182" fill="#ACB8BE"/>
<rect x="143.291" y="116.852" width="23.8818" height="2.42365" rx="1.21182" fill="#ACB8BE"/>
<rect x="284.876" y="116.852" width="21.323" height="2.42365" rx="1.21182" fill="#ACB8BE"/>
</g>
<g opacity="0.4">
<rect x="83.5859" y="131.394" width="31.2537" height="2.42365" rx="1.21182" fill="#ACB8BE"/>
<rect x="180.819" y="131.394" width="56.2927" height="2.42365" rx="1.21182" fill="#ACB8BE"/>
<rect x="143.291" y="131.394" width="23.8818" height="2.42365" rx="1.21182" fill="#ACB8BE"/>
<rect x="284.876" y="131.394" width="21.323" height="2.42365" rx="1.21182" fill="#ACB8BE"/>
</g>
<g opacity="0.4">
<rect x="83.5859" y="145.936" width="31.2537" height="2.42365" rx="1.21182" fill="#ACB8BE"/>
<rect x="180.819" y="145.936" width="56.2927" height="2.42365" rx="1.21182" fill="#ACB8BE"/>
<rect x="143.291" y="145.936" width="23.8818" height="2.42365" rx="1.21182" fill="#ACB8BE"/>
<rect x="284.876" y="145.936" width="21.323" height="2.42365" rx="1.21182" fill="#ACB8BE"/>
</g>
<g opacity="0.4">
<rect x="83.5859" y="160.478" width="31.2537" height="2.42365" rx="1.21182" fill="#ACB8BE"/>
<rect x="180.819" y="160.478" width="56.2927" height="2.42365" rx="1.21182" fill="#ACB8BE"/>
<rect x="143.291" y="160.478" width="23.8818" height="2.42365" rx="1.21182" fill="#ACB8BE"/>
<rect x="284.876" y="160.478" width="21.323" height="2.42365" rx="1.21182" fill="#ACB8BE"/>
</g>
<g opacity="0.4">
<rect x="83.5859" y="175.02" width="31.2537" height="2.42365" rx="1.21182" fill="#ACB8BE"/>
<rect x="180.819" y="175.02" width="56.2927" height="2.42365" rx="1.21182" fill="#ACB8BE"/>
<rect x="143.291" y="175.02" width="23.8818" height="2.42365" rx="1.21182" fill="#ACB8BE"/>
<rect x="284.876" y="175.02" width="21.323" height="2.42365" rx="1.21182" fill="#ACB8BE"/>
</g>
<g opacity="0.4">
<rect x="83.5859" y="189.562" width="31.2537" height="2.42365" rx="1.21182" fill="#ACB8BE"/>
<rect x="180.819" y="189.562" width="56.2927" height="2.42365" rx="1.21182" fill="#ACB8BE"/>
<rect x="143.291" y="189.562" width="23.8818" height="2.42365" rx="1.21182" fill="#ACB8BE"/>
<rect x="284.876" y="189.562" width="21.323" height="2.42365" rx="1.21182" fill="#ACB8BE"/>
</g>
<g opacity="0.4">
<rect x="83.5859" y="204.104" width="31.2537" height="2.42365" rx="1.21182" fill="#ACB8BE"/>
<rect x="180.819" y="204.104" width="56.2927" height="2.42365" rx="1.21182" fill="#ACB8BE"/>
<rect x="143.291" y="204.104" width="23.8818" height="2.42365" rx="1.21182" fill="#ACB8BE"/>
<rect x="284.876" y="204.104" width="21.323" height="2.42365" rx="1.21182" fill="#ACB8BE"/>
</g>
<g opacity="0.4">
<rect x="83.5859" y="218.646" width="31.2537" height="2.42365" rx="1.21182" fill="#ACB8BE"/>
<rect x="180.819" y="218.646" width="56.2927" height="2.42365" rx="1.21182" fill="#ACB8BE"/>
<rect x="143.291" y="218.646" width="23.8818" height="2.42365" rx="1.21182" fill="#ACB8BE"/>
<rect x="284.876" y="218.646" width="21.323" height="2.42365" rx="1.21182" fill="#ACB8BE"/>
</g>
<g filter="url(#filter0_d_11240_3868)">
<mask id="path-91-inside-1_11240_3868" fill="white">
<path fill-rule="evenodd" clip-rule="evenodd" d="M189.318 1C187.303 1 185.67 2.63326 185.67 4.64799V64.8011L166.851 64.8051C165.773 64.8053 165.228 66.1051 165.984 66.8739L185.67 86.883V151.352C185.67 153.367 187.303 155 189.318 155H439.373C441.387 155 443.021 153.367 443.021 151.352V4.648C443.021 2.63327 441.387 1 439.373 1H189.318Z"/>
</mask>
<path fill-rule="evenodd" clip-rule="evenodd" d="M189.318 1C187.303 1 185.67 2.63326 185.67 4.64799V64.8011L166.851 64.8051C165.773 64.8053 165.228 66.1051 165.984 66.8739L185.67 86.883V151.352C185.67 153.367 187.303 155 189.318 155H439.373C441.387 155 443.021 153.367 443.021 151.352V4.648C443.021 2.63327 441.387 1 439.373 1H189.318Z" fill="#22343C"/>
<path d="M185.67 64.8011L185.67 66.0171L186.886 66.0169V64.8011H185.67ZM166.851 64.8051L166.851 63.5891L166.851 63.5891L166.851 64.8051ZM165.984 66.8739L166.851 66.0211L166.851 66.0211L165.984 66.8739ZM185.67 86.883H186.886V86.3851L186.536 86.0302L185.67 86.883ZM186.886 4.64799C186.886 3.30484 187.974 2.216 189.318 2.216V-0.216C186.631 -0.216 184.454 1.96167 184.454 4.64799H186.886ZM186.886 64.8011V4.64799H184.454V64.8011H186.886ZM166.851 66.0211L185.67 66.0171L185.669 63.5851L166.851 63.5891L166.851 66.0211ZM166.851 66.0211L166.851 66.0211L166.851 63.5891C164.694 63.5895 163.605 66.1891 165.118 67.7267L166.851 66.0211ZM186.536 86.0302L166.851 66.0211L165.118 67.7267L184.803 87.7358L186.536 86.0302ZM186.886 151.352V86.883H184.454V151.352H186.886ZM189.318 153.784C187.974 153.784 186.886 152.695 186.886 151.352H184.454C184.454 154.038 186.631 156.216 189.318 156.216V153.784ZM439.373 153.784H189.318V156.216H439.373V153.784ZM441.805 151.352C441.805 152.695 440.716 153.784 439.373 153.784V156.216C442.059 156.216 444.237 154.038 444.237 151.352H441.805ZM441.805 4.648V151.352H444.237V4.648H441.805ZM439.373 2.216C440.716 2.216 441.805 3.30483 441.805 4.648H444.237C444.237 1.9617 442.059 -0.216 439.373 -0.216V2.216ZM189.318 2.216H439.373V-0.216H189.318V2.216Z" fill="black" mask="url(#path-91-inside-1_11240_3868)"/>
</g>
<path d="M425.842 19L430.438 14.3944C430.626 14.174 430.613 13.8454 430.409 13.6402C430.204 13.435 429.876 13.4223 429.656 13.6111L425.061 18.2166L420.465 13.6055C420.248 13.3877 419.896 13.3877 419.678 13.6055C419.461 13.8234 419.461 14.1766 419.678 14.3944L424.279 19L419.678 23.6055C419.52 23.7413 419.451 23.9545 419.5 24.1574C419.548 24.3604 419.707 24.5188 419.909 24.5676C420.112 24.6165 420.324 24.5474 420.46 24.3889L425.061 19.7833L429.656 24.3889C429.876 24.5776 430.204 24.5649 430.409 24.3597C430.613 24.1545 430.626 23.8259 430.438 23.6055L425.842 19Z" fill="#ACB8BE"/>
<rect x="373.398" y="115.576" width="56.5469" height="24.64" rx="1.216" fill="#2EC0FF"/>
<path d="M386.415 130.504V123.821H387.621L391.153 128.519V123.821H392.359V130.504H391.153L387.621 125.805V130.504H386.415ZM400.694 124.93H396.88V126.545H400.324V127.654H396.88V129.395H400.694V130.504H395.664V123.821H400.694V124.93ZM409.361 123.821L406.88 127.157L409.361 130.504H407.921L406.16 128.13L404.39 130.504H402.97L405.45 127.167L402.97 123.821H404.409L406.17 126.194L407.941 123.821H409.361ZM413.514 130.504V124.93H411.374V123.821H416.86V124.93H414.73V130.504H413.514Z" fill="black"/>
<path d="M210.249 30.4232C207.476 30.4232 205.112 28.0447 205.112 25.2284C205.112 22.4121 207.476 20.0482 210.249 20.0482C211.635 20.0482 212.919 20.6319 213.853 21.5804L213.08 22.3684C212.35 21.595 211.343 21.0989 210.249 21.0989C208.089 21.0989 206.265 22.9958 206.265 25.2284C206.265 27.4756 208.089 29.3725 210.249 29.3725C211.343 29.3725 212.35 28.8764 213.08 28.103L213.853 28.891C212.919 29.8249 211.635 30.4232 210.249 30.4232ZM216.577 24.1778C217.029 23.1709 218.109 22.5289 219.495 22.5289V23.5065C217.788 23.5065 216.577 24.5572 216.577 26.031V30.248H215.483V22.704H216.577V24.1778ZM224.409 29.4455C225.299 29.4455 226.321 29.0515 226.788 28.5408L227.459 29.2558C226.802 29.9708 225.474 30.4232 224.424 30.4232C222.41 30.4232 220.601 28.7743 220.601 26.4541C220.601 24.207 222.293 22.5289 224.322 22.5289C226.598 22.5289 227.897 24.2507 227.897 26.8919H221.724C221.885 28.3657 222.921 29.4455 224.409 29.4455ZM224.365 23.5065C223.023 23.5065 221.943 24.455 221.739 25.9142H226.817C226.671 24.5572 225.868 23.5065 224.365 23.5065ZM232.752 22.5289C234.809 22.5289 235.816 23.8276 235.816 25.6516V30.248H234.722V29.0661C234.182 29.9562 233.058 30.4232 232.066 30.4232C230.475 30.4232 229.308 29.5039 229.308 28.0155C229.308 26.5125 230.651 25.5056 232.27 25.5056C233.087 25.5056 233.948 25.6808 234.722 25.9288V25.6516C234.722 24.6301 234.313 23.4628 232.679 23.4628C231.92 23.4628 231.161 23.7984 230.475 24.1486L230.038 23.2585C231.118 22.7186 232.022 22.5289 232.752 22.5289ZM232.256 29.4601C233.248 29.4601 234.43 28.9494 234.722 27.8841V26.7314C234.036 26.5417 233.263 26.4249 232.445 26.4249C231.322 26.4249 230.373 27.067 230.373 27.9717C230.373 28.9056 231.19 29.4601 232.256 29.4601ZM241.365 29.1391L241.905 29.9416C241.511 30.248 241.014 30.4232 240.504 30.4232C239.424 30.4232 238.665 29.6206 238.665 28.497V23.6816H237.483V22.704H238.665V20.6319H239.76V22.704H241.613V23.6816H239.76V28.497C239.76 29.0515 240.139 29.4455 240.577 29.4455C240.912 29.4455 241.204 29.3142 241.365 29.1391ZM246.853 29.4455C247.743 29.4455 248.764 29.0515 249.231 28.5408L249.903 29.2558C249.246 29.9708 247.918 30.4232 246.868 30.4232C244.854 30.4232 243.044 28.7743 243.044 26.4541C243.044 24.207 244.737 22.5289 246.765 22.5289C249.042 22.5289 250.34 24.2507 250.34 26.8919H244.168C244.329 28.3657 245.365 29.4455 246.853 29.4455ZM246.809 23.5065C245.467 23.5065 244.387 24.455 244.183 25.9142H249.261C249.115 24.5572 248.312 23.5065 246.809 23.5065ZM259.428 22.5289C261.485 22.5289 262.492 23.8276 262.492 25.6516V30.248H261.398V29.0661C260.858 29.9562 259.734 30.4232 258.742 30.4232C257.151 30.4232 255.984 29.5039 255.984 28.0155C255.984 26.5125 257.327 25.5056 258.946 25.5056C259.763 25.5056 260.624 25.6808 261.398 25.9288V25.6516C261.398 24.6301 260.989 23.4628 259.355 23.4628C258.596 23.4628 257.837 23.7984 257.151 24.1486L256.714 23.2585C257.794 22.7186 258.698 22.5289 259.428 22.5289ZM258.932 29.4601C259.924 29.4601 261.106 28.9494 261.398 27.8841V26.7314C260.712 26.5417 259.939 26.4249 259.121 26.4249C257.998 26.4249 257.049 27.067 257.049 27.9717C257.049 28.9056 257.866 29.4601 258.932 29.4601ZM274.272 22.704H275.366V30.248H274.272V29.0369C273.834 29.8395 272.857 30.4232 271.791 30.4232C270.128 30.4232 268.961 29.212 268.961 27.5048V22.704H270.055V27.3588C270.055 28.5846 270.828 29.4455 271.937 29.4455C273.207 29.4455 274.272 28.5554 274.272 27.5048V22.704ZM280.266 30.4232C279.216 30.4232 278.048 30.0292 277.144 29.2996L277.713 28.497C278.574 29.1245 279.435 29.4455 280.266 29.4455C281.259 29.4455 281.93 28.9785 281.93 28.2635C281.93 27.4464 281.054 27.1837 280.033 26.8919C278.209 26.3666 277.508 25.8267 277.508 24.7469C277.508 23.3752 278.647 22.5289 280.15 22.5289C281.084 22.5289 282.047 22.8499 282.849 23.3752L282.324 24.2216C281.565 23.74 280.821 23.5065 280.15 23.5065C279.303 23.5065 278.603 23.8859 278.603 24.6155C278.603 25.2722 279.157 25.4765 280.558 25.9288C281.769 26.3082 283.024 26.7168 283.024 28.1468C283.024 29.533 281.828 30.4232 280.266 30.4232ZM288.235 29.4455C289.125 29.4455 290.147 29.0515 290.613 28.5408L291.285 29.2558C290.628 29.9708 289.3 30.4232 288.25 30.4232C286.236 30.4232 284.426 28.7743 284.426 26.4541C284.426 24.207 286.119 22.5289 288.147 22.5289C290.424 22.5289 291.722 24.2507 291.722 26.8919H285.55C285.711 28.3657 286.747 29.4455 288.235 29.4455ZM288.191 23.5065C286.849 23.5065 285.769 24.455 285.565 25.9142H290.643C290.497 24.5572 289.694 23.5065 288.191 23.5065ZM294.71 24.1778C295.162 23.1709 296.242 22.5289 297.628 22.5289V23.5065C295.921 23.5065 294.71 24.5572 294.71 26.031V30.248H293.615V22.704H294.71V24.1778ZM309.24 22.704H310.335V29.4455C310.335 31.3862 308.802 32.7579 306.628 32.7579C305.403 32.7579 304.264 32.3347 303.579 31.751L304.06 30.8901C304.644 31.4446 305.548 31.7802 306.482 31.7802C308.219 31.7802 309.24 30.9193 309.24 29.4455V28.2198C308.657 29.1391 307.693 29.6936 306.497 29.6936C304.469 29.6936 303.024 28.2052 303.024 26.1039C303.024 24.0027 304.469 22.5289 306.497 22.5289C307.693 22.5289 308.657 23.0834 309.24 24.0027V22.704ZM306.701 28.7159C308.19 28.7159 309.24 27.6361 309.24 26.1039C309.24 24.5864 308.19 23.5065 306.701 23.5065C305.227 23.5065 304.177 24.5864 304.177 26.1039C304.177 27.6361 305.227 28.7159 306.701 28.7159ZM313.848 24.1778C314.3 23.1709 315.38 22.5289 316.766 22.5289V23.5065C315.059 23.5065 313.848 24.5572 313.848 26.031V30.248H312.753V22.704H313.848V24.1778ZM321.54 30.4232C319.424 30.4232 317.629 28.6137 317.629 26.4687C317.629 24.3237 319.424 22.5289 321.54 22.5289C323.655 22.5289 325.436 24.3237 325.436 26.4687C325.436 28.6137 323.655 30.4232 321.54 30.4232ZM321.54 29.4455C323.028 29.4455 324.283 28.0884 324.283 26.4687C324.283 24.8636 323.028 23.5065 321.54 23.5065C320.037 23.5065 318.782 24.8636 318.782 26.4687C318.782 28.0884 320.037 29.4455 321.54 29.4455ZM332.555 22.704H333.649V30.248H332.555V29.0369C332.117 29.8395 331.139 30.4232 330.074 30.4232C328.41 30.4232 327.243 29.212 327.243 27.5048V22.704H328.337V27.3588C328.337 28.5846 329.111 29.4455 330.22 29.4455C331.489 29.4455 332.555 28.5554 332.555 27.5048V22.704ZM339.818 22.5289C341.803 22.5289 343.291 24.1632 343.291 26.4687C343.291 28.7888 341.803 30.4232 339.818 30.4232C338.607 30.4232 337.644 29.8249 337.075 28.8326V32.7579H335.981V22.704H337.075V24.1194C337.644 23.1271 338.607 22.5289 339.818 22.5289ZM339.614 29.4455C341.088 29.4455 342.138 28.2052 342.138 26.4687C342.138 24.7323 341.088 23.5065 339.614 23.5065C338.126 23.5065 337.075 24.7323 337.075 26.4687C337.075 28.2052 338.126 29.4455 339.614 29.4455Z" fill="#E3EAED"/>
<path d="M209.899 68.5859C207.589 68.5859 205.619 66.6038 205.619 64.2569C205.619 61.91 207.589 59.9401 209.899 59.9401C211.054 59.9401 212.124 60.4265 212.902 61.2169L212.258 61.8735C211.65 61.2291 210.811 60.8156 209.899 60.8156C208.099 60.8156 206.579 62.3964 206.579 64.2569C206.579 66.1295 208.099 67.7103 209.899 67.7103C210.811 67.7103 211.65 67.2969 212.258 66.6524L212.902 67.3091C212.124 68.0873 211.054 68.5859 209.899 68.5859ZM214.175 68.4399V59.9401H215.087V68.4399H214.175ZM217.38 61.0102C217.04 61.0102 216.772 60.7305 216.772 60.4022C216.772 60.086 217.04 59.8063 217.38 59.8063C217.709 59.8063 217.976 60.086 217.976 60.4022C217.976 60.7305 217.709 61.0102 217.38 61.0102ZM216.918 68.4399V62.1532H217.83V68.4399H216.918ZM222.58 68.5859C220.817 68.5859 219.321 67.078 219.321 65.2905C219.321 63.503 220.817 62.0073 222.58 62.0073C223.431 62.0073 224.222 62.3599 224.818 62.9315L224.185 63.5516C223.772 63.1017 223.2 62.822 222.58 62.822C221.328 62.822 220.282 63.9529 220.282 65.2905C220.282 66.6403 221.328 67.7711 222.58 67.7711C223.212 67.7711 223.796 67.4793 224.222 67.0051L224.854 67.6252C224.258 68.2211 223.456 68.5859 222.58 68.5859ZM231.761 62.1532L228.928 65.0351L231.603 68.4399H230.46L228.283 65.6553L227.152 66.774V68.4399H226.24V59.9401H227.152V65.631L230.593 62.1532H231.761ZM239.3 68.5859C237.537 68.5859 236.041 67.078 236.041 65.2905C236.041 63.503 237.537 62.0073 239.3 62.0073C241.063 62.0073 242.547 63.503 242.547 65.2905C242.547 67.078 241.063 68.5859 239.3 68.5859ZM239.3 67.7711C240.54 67.7711 241.586 66.6403 241.586 65.2905C241.586 63.9529 240.54 62.822 239.3 62.822C238.048 62.822 237.002 63.9529 237.002 65.2905C237.002 66.6403 238.048 67.7711 239.3 67.7711ZM247.044 62.0073C248.431 62.0073 249.403 63.0166 249.403 64.4393V68.4399H248.491V64.5609C248.491 63.5395 247.847 62.822 246.923 62.822C245.865 62.822 244.977 63.5638 244.977 64.4393V68.4399H244.065V62.1532H244.977V63.1625C245.342 62.4937 246.157 62.0073 247.044 62.0073ZM257.536 67.5158L257.986 68.1846C257.658 68.4399 257.245 68.5859 256.819 68.5859C255.919 68.5859 255.287 67.9171 255.287 66.9807V62.9679H254.302V62.1532H255.287V60.4265H256.199V62.1532H257.743V62.9679H256.199V66.9807C256.199 67.4428 256.515 67.7711 256.88 67.7711C257.159 67.7711 257.403 67.6617 257.536 67.5158ZM262.268 62.0073C263.654 62.0073 264.627 63.0166 264.627 64.4393V68.4399H263.715V64.5609C263.715 63.5395 263.071 62.822 262.147 62.822C261.089 62.822 260.201 63.5638 260.201 64.4393V68.4399H259.289V59.9401H260.201V63.1625C260.566 62.4937 261.38 62.0073 262.268 62.0073ZM269.306 67.7711C270.048 67.7711 270.899 67.4428 271.288 67.0172L271.848 67.6131C271.301 68.2089 270.194 68.5859 269.318 68.5859C267.64 68.5859 266.133 67.2118 266.133 65.2783C266.133 63.4057 267.543 62.0073 269.233 62.0073C271.13 62.0073 272.213 63.4422 272.213 65.6431H267.069C267.203 66.8713 268.066 67.7711 269.306 67.7711ZM269.27 62.822C268.151 62.822 267.251 63.6124 267.081 64.8284H271.313C271.191 63.6975 270.522 62.822 269.27 62.822ZM280.515 62.0073C282.169 62.0073 283.409 63.3692 283.409 65.2905C283.409 67.2239 282.169 68.5859 280.515 68.5859C279.506 68.5859 278.703 68.0873 278.229 67.2604V68.4399H277.317V59.9401H278.229V63.3327C278.703 62.5059 279.506 62.0073 280.515 62.0073ZM280.345 67.7711C281.573 67.7711 282.448 66.7375 282.448 65.2905C282.448 63.8435 281.573 62.822 280.345 62.822C279.104 62.822 278.229 63.8435 278.229 65.2905C278.229 66.7375 279.104 67.7711 280.345 67.7711ZM289.412 62.1532H290.324V68.4399H289.412V67.4307C289.048 68.0995 288.233 68.5859 287.345 68.5859C285.959 68.5859 284.986 67.5766 284.986 66.1539V62.1532H285.898V66.0323C285.898 67.0537 286.543 67.7711 287.467 67.7711C288.525 67.7711 289.412 67.0294 289.412 66.1539V62.1532ZM294.943 67.5158L295.393 68.1846C295.064 68.4399 294.651 68.5859 294.225 68.5859C293.325 68.5859 292.693 67.9171 292.693 66.9807V62.9679H291.708V62.1532H292.693V60.4265H293.605V62.1532H295.149V62.9679H293.605V66.9807C293.605 67.4428 293.921 67.7711 294.286 67.7711C294.566 67.7711 294.809 67.6617 294.943 67.5158ZM299.443 67.5158L299.893 68.1846C299.565 68.4399 299.151 68.5859 298.726 68.5859C297.826 68.5859 297.194 67.9171 297.194 66.9807V62.9679H296.209V62.1532H297.194V60.4265H298.106V62.1532H299.65V62.9679H298.106V66.9807C298.106 67.4428 298.422 67.7711 298.787 67.7711C299.066 67.7711 299.31 67.6617 299.443 67.5158ZM304.102 68.5859C302.339 68.5859 300.843 67.078 300.843 65.2905C300.843 63.503 302.339 62.0073 304.102 62.0073C305.865 62.0073 307.349 63.503 307.349 65.2905C307.349 67.078 305.865 68.5859 304.102 68.5859ZM304.102 67.7711C305.342 67.7711 306.388 66.6403 306.388 65.2905C306.388 63.9529 305.342 62.822 304.102 62.822C302.85 62.822 301.804 63.9529 301.804 65.2905C301.804 66.6403 302.85 67.7711 304.102 67.7711ZM311.846 62.0073C313.232 62.0073 314.205 63.0166 314.205 64.4393V68.4399H313.293V64.5609C313.293 63.5395 312.649 62.822 311.725 62.822C310.667 62.822 309.779 63.5638 309.779 64.4393V68.4399H308.867V62.1532H309.779V63.1625C310.144 62.4937 310.959 62.0073 311.846 62.0073ZM320.454 60.2563L320.903 60.5967C320.575 60.9737 320.368 61.3507 320.271 61.7276C320.636 61.7276 320.928 62.0316 320.928 62.3964C320.928 62.7369 320.648 63.0409 320.259 63.0409C319.797 63.0409 319.517 62.6275 319.517 62.0681C319.517 61.5817 319.724 61.1683 320.454 60.2563ZM322.886 60.2563L323.335 60.5967C323.007 60.9737 322.8 61.3507 322.703 61.7276C323.068 61.7276 323.36 62.0316 323.36 62.3964C323.36 62.7369 323.08 63.0409 322.691 63.0409C322.229 63.0409 321.949 62.6275 321.949 62.0681C321.949 61.5817 322.156 61.1683 322.886 60.2563ZM325.437 68.4399V60.086H326.386L331.566 66.8835V60.086H332.515V68.4399H331.566L326.386 61.6425V68.4399H325.437ZM337.409 67.7711C338.151 67.7711 339.002 67.4428 339.391 67.0172L339.951 67.6131C339.404 68.2089 338.297 68.5859 337.422 68.5859C335.743 68.5859 334.236 67.2118 334.236 65.2783C334.236 63.4057 335.646 62.0073 337.336 62.0073C339.233 62.0073 340.316 63.4422 340.316 65.6431H335.172C335.306 66.8713 336.169 67.7711 337.409 67.7711ZM337.373 62.822C336.254 62.822 335.354 63.6124 335.184 64.8284H339.416C339.294 63.6975 338.625 62.822 337.373 62.822ZM343.104 68.4399L341.001 62.1532H341.973L343.542 67.2239L345.257 62.1532H346.047L347.762 67.2239L349.33 62.1532H350.303L348.187 68.4399H347.324L345.658 63.4179L343.968 68.4399H343.104ZM359.582 62.1532H360.494V68.4399H359.582V67.4307C359.217 68.0995 358.402 68.5859 357.515 68.5859C356.128 68.5859 355.155 67.5766 355.155 66.1539V62.1532H356.067V66.0323C356.067 67.0537 356.712 67.7711 357.636 67.7711C358.694 67.7711 359.582 67.0294 359.582 66.1539V62.1532ZM364.577 68.5859C363.702 68.5859 362.729 68.2575 361.975 67.6495L362.449 66.9807C363.166 67.5036 363.884 67.7711 364.577 67.7711C365.404 67.7711 365.963 67.382 365.963 66.7862C365.963 66.1052 365.234 65.8863 364.382 65.6431C362.862 65.2054 362.279 64.7555 362.279 63.8556C362.279 62.7126 363.227 62.0073 364.48 62.0073C365.258 62.0073 366.061 62.2748 366.729 62.7126L366.292 63.4179C365.659 63.0166 365.039 62.822 364.48 62.822C363.774 62.822 363.191 63.1382 363.191 63.7462C363.191 64.2934 363.653 64.4636 364.82 64.8406C365.83 65.1567 366.875 65.4972 366.875 66.6889C366.875 67.8441 365.878 68.5859 364.577 68.5859ZM371.218 67.7711C371.959 67.7711 372.81 67.4428 373.2 67.0172L373.759 67.6131C373.212 68.2089 372.105 68.5859 371.23 68.5859C369.552 68.5859 368.044 67.2118 368.044 65.2783C368.044 63.4057 369.454 62.0073 371.145 62.0073C373.042 62.0073 374.124 63.4422 374.124 65.6431H368.98C369.114 66.8713 369.977 67.7711 371.218 67.7711ZM371.181 62.822C370.062 62.822 369.162 63.6124 368.992 64.8284H373.224C373.102 63.6975 372.434 62.822 371.181 62.822ZM376.613 63.3814C376.99 62.5423 377.89 62.0073 379.045 62.0073V62.822C377.623 62.822 376.613 63.6975 376.613 64.9257V68.4399H375.701V62.1532H376.613V63.3814ZM210.799 79.1532H211.711V84.7711C211.711 86.3884 210.434 87.5315 208.622 87.5315C207.601 87.5315 206.652 87.1788 206.081 86.6924L206.482 85.975C206.968 86.4371 207.722 86.7167 208.501 86.7167C209.948 86.7167 210.799 85.9993 210.799 84.7711V83.7497C210.312 84.5158 209.51 84.9779 208.513 84.9779C206.822 84.9779 205.619 83.7375 205.619 81.9865C205.619 80.2355 206.822 79.0073 208.513 79.0073C209.51 79.0073 210.312 79.4694 210.799 80.2355V79.1532ZM208.683 84.1631C209.923 84.1631 210.799 83.2633 210.799 81.9865C210.799 80.7219 209.923 79.822 208.683 79.822C207.455 79.822 206.579 80.7219 206.579 81.9865C206.579 83.2633 207.455 84.1631 208.683 84.1631ZM214.638 80.3814C215.015 79.5423 215.915 79.0073 217.07 79.0073V79.822C215.648 79.822 214.638 80.6975 214.638 81.9257V85.4399H213.726V79.1532H214.638V80.3814ZM221.048 85.5859C219.285 85.5859 217.789 84.078 217.789 82.2905C217.789 80.503 219.285 79.0073 221.048 79.0073C222.811 79.0073 224.295 80.503 224.295 82.2905C224.295 84.078 222.811 85.5859 221.048 85.5859ZM221.048 84.7711C222.289 84.7711 223.334 83.6403 223.334 82.2905C223.334 80.9529 222.289 79.822 221.048 79.822C219.796 79.822 218.75 80.9529 218.75 82.2905C218.75 83.6403 219.796 84.7711 221.048 84.7711ZM230.227 79.1532H231.139V85.4399H230.227V84.4307C229.863 85.0995 229.048 85.5859 228.16 85.5859C226.774 85.5859 225.801 84.5766 225.801 83.1539V79.1532H226.713V83.0323C226.713 84.0537 227.358 84.7711 228.282 84.7711C229.34 84.7711 230.227 84.0294 230.227 83.1539V79.1532ZM236.281 79.0073C237.934 79.0073 239.175 80.3692 239.175 82.2905C239.175 84.2239 237.934 85.5859 236.281 85.5859C235.271 85.5859 234.469 85.0873 233.994 84.2604V87.5315H233.082V79.1532H233.994V80.3327C234.469 79.5059 235.271 79.0073 236.281 79.0073ZM236.11 84.7711C237.338 84.7711 238.214 83.7375 238.214 82.2905C238.214 80.8435 237.338 79.822 236.11 79.822C234.87 79.822 233.994 80.8435 233.994 82.2905C233.994 83.7375 234.87 84.7711 236.11 84.7711ZM241.238 80.0166L240.788 79.6761C241.117 79.2991 241.323 78.9222 241.421 78.5452C241.056 78.5452 240.764 78.2412 240.764 77.8764C240.764 77.5359 241.044 77.2319 241.433 77.2319C241.895 77.2319 242.174 77.6454 242.174 78.2047C242.174 78.6911 241.968 79.1046 241.238 80.0166ZM243.67 80.0166L243.22 79.6761C243.549 79.2991 243.755 78.9222 243.853 78.5452C243.488 78.5452 243.196 78.2412 243.196 77.8764C243.196 77.5359 243.476 77.2319 243.865 77.2319C244.327 77.2319 244.606 77.6454 244.606 78.2047C244.606 78.6911 244.4 79.1046 243.67 80.0166ZM247.025 85.5859C246.648 85.5859 246.356 85.2819 246.356 84.9171C246.356 84.5766 246.648 84.2726 247.025 84.2726C247.377 84.2726 247.669 84.5766 247.669 84.9171C247.669 85.2819 247.377 85.5859 247.025 85.5859Z" fill="#ACB8BE"/>
<path d="M208.473 137.321C207.23 137.321 206.251 136.87 205.492 136.122L206.031 135.451C206.669 136.089 207.45 136.54 208.506 136.54C209.672 136.54 210.266 135.902 210.266 135.22C210.266 134.417 209.551 134.098 208.231 133.79C206.713 133.438 205.756 132.965 205.756 131.656C205.756 130.446 206.834 129.5 208.286 129.5C209.408 129.5 210.244 129.94 210.937 130.578L210.409 131.249C209.782 130.644 209.034 130.281 208.242 130.281C207.307 130.281 206.625 130.897 206.625 131.59C206.625 132.371 207.373 132.646 208.66 132.954C210.101 133.295 211.135 133.812 211.135 135.143C211.135 136.342 210.233 137.321 208.473 137.321ZM215.065 136.364L215.472 136.969C215.175 137.2 214.801 137.332 214.416 137.332C213.602 137.332 213.03 136.727 213.03 135.88V132.25H212.139V131.513H213.03V129.951H213.855V131.513H215.252V132.25H213.855V135.88C213.855 136.298 214.141 136.595 214.471 136.595C214.724 136.595 214.944 136.496 215.065 136.364ZM219.203 136.595C219.874 136.595 220.644 136.298 220.996 135.913L221.502 136.452C221.007 136.991 220.006 137.332 219.214 137.332C217.696 137.332 216.332 136.089 216.332 134.34C216.332 132.646 217.608 131.381 219.137 131.381C220.853 131.381 221.832 132.679 221.832 134.67H217.179C217.3 135.781 218.081 136.595 219.203 136.595ZM219.17 132.118C218.158 132.118 217.344 132.833 217.19 133.933H221.018C220.908 132.91 220.303 132.118 219.17 132.118ZM226.152 131.381C227.648 131.381 228.77 132.613 228.77 134.351C228.77 136.1 227.648 137.332 226.152 137.332C225.239 137.332 224.513 136.881 224.084 136.133V139.092H223.259V131.513H224.084V132.58C224.513 131.832 225.239 131.381 226.152 131.381ZM225.998 136.595C227.109 136.595 227.901 135.66 227.901 134.351C227.901 133.042 227.109 132.118 225.998 132.118C224.876 132.118 224.084 133.042 224.084 134.351C224.084 135.66 224.876 136.595 225.998 136.595ZM234.531 137.2V130.688L233.211 131.546L232.837 130.908L234.696 129.643H235.389V137.2H234.531ZM236.253 138.014L240.114 129.027H241.049L237.188 138.014H236.253ZM242.974 137.2V130.688L241.654 131.546L241.28 130.908L243.139 129.643H243.832V137.2H242.974ZM248.667 137.332C246.819 137.332 245.521 135.715 245.521 133.416C245.521 131.128 246.819 129.511 248.667 129.511C250.504 129.511 251.802 131.128 251.802 133.416C251.802 135.715 250.504 137.332 248.667 137.332ZM248.667 136.54C249.998 136.54 250.933 135.242 250.933 133.416C250.933 131.59 249.998 130.303 248.667 130.303C247.336 130.303 246.39 131.59 246.39 133.416C246.39 135.242 247.336 136.54 248.667 136.54Z" fill="#F1F6F8"/>
<defs>
<filter id="filter0_d_11240_3868" x="163.633" y="0" width="281.388" height="158" filterUnits="userSpaceOnUse" color-interpolation-filters="sRGB">
<feFlood flood-opacity="0" result="BackgroundImageFix"/>
<feColorMatrix in="SourceAlpha" type="matrix" values="0 0 0 0 0 0 0 0 0 0 0 0 0 0 0 0 0 0 127 0" result="hardAlpha"/>
<feOffset dy="1"/>
<feGaussianBlur stdDeviation="1"/>
<feColorMatrix type="matrix" values="0 0 0 0 0 0 0 0 0 0 0 0 0 0 0 0 0 0 0.8 0"/>
<feBlend mode="normal" in2="BackgroundImageFix" result="effect1_dropShadow_11240_3868"/>
<feBlend mode="normal" in="SourceGraphic" in2="effect1_dropShadow_11240_3868" result="shape"/>
</filter>
</defs>
</svg>
