<svg width="293" height="200" viewBox="0 0 293 200" fill="none" xmlns="http://www.w3.org/2000/svg">
<rect x="0.5" y="0.5" width="292" height="199" fill="#1B2B32"/>
<rect x="0.5" y="0.5" width="292" height="199" stroke="#4F6169"/>
<rect width="293" height="16" fill="black"/>
<rect width="51" height="182" transform="translate(1 17)" fill="#22343C"/>
<rect opacity="0.4" x="68" y="60.3975" width="61.631" height="2.08333" rx="1.04167" fill="#ACB8BE"/>
<rect opacity="0.4" x="68" y="68.7309" width="61.631" height="2.08333" rx="1.04167" fill="#ACB8BE"/>
<rect opacity="0.4" x="68" y="77.0642" width="39.6199" height="2.08333" rx="1.04167" fill="#ACB8BE"/>
<path d="M69.4249 54L67.7095 48.9852H68.3518L69.7387 53.0438L71.0673 48.9852H71.7023L73.0308 53.0438L74.4177 48.9852H75.0601L73.3447 54H72.7826L71.3884 49.7298L69.9869 54H69.4249ZM77.5082 53.5985C77.9535 53.5985 78.4645 53.4014 78.6981 53.146L79.0339 53.5036C78.7054 53.8613 78.0411 54.0876 77.5155 54.0876C76.5082 54.0876 75.6031 53.2627 75.6031 52.1021C75.6031 50.978 76.4498 50.1385 77.4645 50.1385C78.6032 50.1385 79.2528 50.9999 79.2528 52.3211H76.1651C76.2454 53.0584 76.7637 53.5985 77.5082 53.5985ZM77.4863 50.6276C76.8148 50.6276 76.2746 51.1021 76.1724 51.832H78.7127C78.6397 51.1532 78.2382 50.6276 77.4863 50.6276ZM80.1726 54V48.8976H80.7201V54H80.1726ZM83.6109 54.0876C82.5525 54.0876 81.6546 53.1825 81.6546 52.1094C81.6546 51.0364 82.5525 50.1385 83.6109 50.1385C84.1219 50.1385 84.5963 50.3502 84.954 50.6933L84.5744 51.0656C84.3263 50.7955 83.9832 50.6276 83.6109 50.6276C82.859 50.6276 82.2313 51.3065 82.2313 52.1094C82.2313 52.9197 82.859 53.5985 83.6109 53.5985C83.9905 53.5985 84.3409 53.4233 84.5963 53.1387L84.9759 53.5109C84.6182 53.8686 84.1365 54.0876 83.6109 54.0876ZM87.3961 54.0876C86.3231 54.0876 85.4471 53.197 85.4471 52.1094C85.4471 51.0218 86.3231 50.1385 87.3961 50.1385C88.4618 50.1385 89.3378 51.0218 89.3378 52.1094C89.3378 53.197 88.4618 54.0876 87.3961 54.0876ZM87.3961 53.5985C88.148 53.5985 88.7684 52.927 88.7684 52.1094C88.7684 51.2919 88.148 50.6276 87.3961 50.6276C86.637 50.6276 86.0165 51.2919 86.0165 52.1094C86.0165 52.927 86.637 53.5985 87.3961 53.5985ZM94.3613 50.1385C95.1496 50.1385 95.7044 50.7444 95.7044 51.5984V54H95.1569V51.6714C95.1569 51.0583 94.7992 50.6276 94.2883 50.6276C93.6897 50.6276 93.2663 51.0291 93.2663 51.5984V54H92.7189V51.6714C92.7189 51.0583 92.3612 50.6276 91.8502 50.6276C91.2516 50.6276 90.8283 51.0291 90.8283 51.5984V54H90.2808V50.2261H90.8283V50.7809C91.0181 50.3867 91.4268 50.1385 91.9232 50.1385C92.5218 50.1385 92.9889 50.4889 93.1787 51.0364C93.2955 50.5035 93.7627 50.1385 94.3613 50.1385ZM98.4802 53.5985C98.9255 53.5985 99.4364 53.4014 99.67 53.146L100.006 53.5036C99.6773 53.8613 99.0131 54.0876 98.4875 54.0876C97.4802 54.0876 96.575 53.2627 96.575 52.1021C96.575 50.978 97.4218 50.1385 98.4364 50.1385C99.5751 50.1385 100.225 50.9999 100.225 52.3211H97.1371C97.2174 53.0584 97.7356 53.5985 98.4802 53.5985ZM98.4583 50.6276C97.7867 50.6276 97.2466 51.1021 97.1444 51.832H99.6846C99.6116 51.1532 99.2102 50.6276 98.4583 50.6276Z" fill="#ACB8BE"/>
<rect opacity="0.6" x="68" y="86" width="20.0685" height="9" rx="1.6" fill="#2EC0FF"/>
<rect opacity="0.5" x="91.5781" y="86.5" width="19.0685" height="8" rx="1.1" stroke="#2EC0FF"/>
<rect opacity="0.4" x="68" y="144.167" width="189.295" height="2.08333" rx="1.04167" fill="#ACB8BE"/>
<rect opacity="0.4" x="68" y="165" width="115.558" height="2.08333" rx="1.04167" fill="#ACB8BE"/>
<rect opacity="0.4" x="68" y="154.583" width="183.793" height="2.08333" rx="1.04167" fill="#ACB8BE"/>
<g clip-path="url(#clip0_11240_3577)">
<path opacity="0.6" d="M214.048 34C194.135 34 178 50.1918 178 70.1751V133.433H250.096V70.1751C250.096 50.1918 233.961 34 214.048 34Z" fill="url(#paint0_linear_11240_3577)"/>
<path d="M233.499 61.7214L183.687 61.2378L192.111 51.662C195.773 48.6249 201.325 50.037 203.118 51.5459L205.219 53.3257C207.108 54.9313 209.884 54.9313 211.754 53.3063C213.759 51.5653 216.785 51.7007 218.636 53.6159L219.638 54.6411C220.911 55.9566 222.8 56.4596 224.554 55.9953L225.634 55.7051C227.812 55.1054 230.125 56.0533 231.282 58.0072L233.499 61.7214Z" fill="url(#paint1_linear_11240_3577)"/>
<path d="M228.872 66.1901L235.272 60.6767C236.699 59.458 238.819 59.516 240.168 60.8122L242.096 62.6693C243.561 64.0815 245.894 64.0041 247.301 62.5145C248.515 61.2184 250.482 60.9669 251.966 61.9342L257.981 65.8612L228.872 66.1901Z" fill="url(#paint2_linear_11240_3577)"/>
<path d="M226.769 82.7492L222.528 94.1627L220.793 105.576L219.251 105.77L219.444 92.6151L220.986 82.9426L226.769 82.7492Z" fill="#3E616D"/>
<path d="M215.069 57.504C212.833 56.4981 210.192 57.2138 209.035 59.9221L209.112 60.309L212.409 66.6929C214.086 66.4994 215.744 65.4355 216.669 63.7718C218.038 61.315 217.324 58.5099 215.069 57.504Z" fill="#113D56"/>
<path d="M213.083 70.9487L211.907 66.7315H210.827C210.23 66.7315 209.709 66.3446 209.555 65.7643L208.957 64.681L207.878 64.5069L209.035 59.9027L210.808 59.748C211.56 59.748 212.177 60.3283 212.254 61.0828C212.292 61.5471 212.427 62.1274 212.697 62.8045C213.468 64.739 214.22 65.7256 214.22 65.7256L216.726 68.608L213.083 70.9487Z" fill="white"/>
<path d="M211.907 66.7316H210.827C210.23 66.7316 209.709 66.3447 209.555 65.7643L208.957 64.681L207.878 64.5069L209.035 59.9028" stroke="#113D56" stroke-width="0.267895" stroke-miterlimit="10"/>
<path d="M210.364 62.7851C210.524 62.7851 210.654 62.6552 210.654 62.4949C210.654 62.3347 210.524 62.2048 210.364 62.2048C210.205 62.2048 210.075 62.3347 210.075 62.4949C210.075 62.6552 210.205 62.7851 210.364 62.7851Z" fill="#113D56"/>
<path d="M197.487 105.151C198.754 105.151 199.781 104.12 199.781 102.849C199.781 101.577 198.754 100.547 197.487 100.547C196.22 100.547 195.193 101.577 195.193 102.849C195.193 104.12 196.22 105.151 197.487 105.151Z" stroke="#6991A3" stroke-width="0.333512" stroke-miterlimit="10"/>
<path d="M197.488 103.99C198.116 103.99 198.625 103.479 198.625 102.849C198.625 102.218 198.116 101.707 197.488 101.707C196.86 101.707 196.351 102.218 196.351 102.849C196.351 103.479 196.86 103.99 197.488 103.99Z" fill="#FF7212"/>
<path d="M235.425 114.959C241.77 114.959 246.914 109.797 246.914 103.429C246.914 97.0614 241.77 91.8994 235.425 91.8994C229.079 91.8994 223.936 97.0614 223.936 103.429C223.936 109.797 229.079 114.959 235.425 114.959Z" stroke="#6991A3" stroke-width="1.67434" stroke-miterlimit="10"/>
<path d="M197.449 114.959C203.794 114.959 208.938 109.797 208.938 103.429C208.938 97.0614 203.794 91.8994 197.449 91.8994C191.104 91.8994 185.96 97.0614 185.96 103.429C185.96 109.797 191.104 114.959 197.449 114.959Z" stroke="#6991A3" stroke-width="1.67434" stroke-miterlimit="10"/>
<path d="M235.425 106.737C237.246 106.737 238.722 105.256 238.722 103.429C238.722 101.602 237.246 100.121 235.425 100.121C233.605 100.121 232.129 101.602 232.129 103.429C232.129 105.256 233.605 106.737 235.425 106.737Z" fill="#6991A3"/>
<path d="M224.554 86.1346L217.807 105.093" stroke="#FF7212" stroke-width="0.837172" stroke-miterlimit="10"/>
<path d="M217.228 105.867L235.734 103.352C235.734 103.352 229.025 94.0854 222.625 90.584C216.225 87.0825 204.119 85.7477 204.119 85.7477" stroke="#FF7212" stroke-width="0.837172" stroke-miterlimit="10"/>
<path d="M217.305 109.252C219.126 109.252 220.602 107.771 220.602 105.944C220.602 104.117 219.126 102.636 217.305 102.636C215.485 102.636 214.009 104.117 214.009 105.944C214.009 107.771 215.485 109.252 217.305 109.252Z" fill="#FF7212"/>
<path d="M217.112 103.39L217.517 106.157" stroke="#6991A3" stroke-width="1.17204" stroke-miterlimit="10" stroke-linecap="round"/>
<path d="M214.074 62.8618C214.19 62.3076 213.878 61.773 213.378 61.6677C212.878 61.5624 212.378 61.9263 212.262 62.4805C212.147 63.0347 212.458 63.5693 212.958 63.6746C213.458 63.7799 213.958 63.416 214.074 62.8618Z" fill="white"/>
<path d="M209.401 65.7062C209.787 65.7256 210.192 65.5902 210.481 65.3387" stroke="#113D56" stroke-width="0.267895" stroke-miterlimit="10"/>
<path d="M215.626 59.5545C216.84 59.4771 217.901 59.9221 218.093 60.8893" stroke="#113D56" stroke-width="1.00782" stroke-miterlimit="10" stroke-linecap="round"/>
<path d="M216.744 58.5681C218.286 58.5681 219.404 59.4192 219.79 60.4058" stroke="#113D56" stroke-width="1.00782" stroke-miterlimit="10" stroke-linecap="round"/>
<path d="M215.26 59.5352C214.779 57.7555 216.032 55.879 218.017 55.3374C218.21 55.2793 218.422 55.2407 218.615 55.2213" stroke="#113D56" stroke-width="1.00782" stroke-miterlimit="10" stroke-linecap="round"/>
<path d="M215.434 58.8C216.128 57.0977 218.248 56.3626 220.156 57.1364" stroke="#113D56" stroke-width="1.00782" stroke-miterlimit="10" stroke-linecap="round"/>
<path d="M215.279 59.3805C216.012 58.0844 217.766 57.6975 219.231 58.51C219.501 58.6647 219.752 58.8582 219.964 59.071" stroke="#113D56" stroke-width="1.00782" stroke-miterlimit="10" stroke-linecap="round"/>
<path d="M204.697 83.7939L197.564 102.771" stroke="#FF7212" stroke-width="1.00461" stroke-miterlimit="10"/>
<path d="M203.926 77.0424L203.29 77.8743C202.904 78.3579 203.039 79.0736 203.579 79.3832L204.774 80.0796C205.41 80.4471 205.68 81.2209 205.41 81.9174L204.697 83.7938" stroke="#6991A3" stroke-width="0.669737" stroke-miterlimit="10"/>
<path d="M203.927 85.9412L217.421 102.384" stroke="#FF7212" stroke-width="1.50691" stroke-miterlimit="10"/>
<path d="M223.299 72.1094C219.058 65.919 215.087 66.9637 215.087 66.9637L213.082 70.7553L214.065 73.8892C214.528 75.5335 215.858 76.7909 217.516 77.1391L218.306 77.3132C219.154 80.5825 218.827 84.4709 218.827 84.4709L226.094 81.5304C226.075 81.5304 227.54 78.2998 223.299 72.1094Z" fill="#05A9E2"/>
<path d="M226.075 81.5304C226.075 81.5304 227.54 78.2998 223.299 72.1094C219.058 65.919 215.087 66.9637 215.087 66.9637" stroke="#113D56" stroke-width="0.267895" stroke-miterlimit="10"/>
<path d="M218.442 84.4709C218.442 84.4709 218.77 80.5632 217.921 77.3133L217.131 77.1392C215.473 76.791 214.143 75.5335 213.681 73.8892L211.521 66.7316" stroke="#113D56" stroke-width="0.267895" stroke-miterlimit="10"/>
<path d="M214.818 69.0142L212.737 75.5335L206.915 75.2046L206.529 76.7522C206.529 76.7522 212.12 79.2671 214.24 78.1064C215.532 77.3906 217.517 73.2701 217.903 72.1094C218.288 70.9487 218.269 68.8595 218.269 68.8595C218.076 67.989 217.267 67.486 216.476 67.544C216.11 67.5827 215.763 67.7568 215.493 68.0083L214.818 69.0142Z" fill="#F8F8F8"/>
<path d="M206.529 76.7523C206.529 76.7523 212.12 79.2671 214.24 78.1064C215.532 77.3907 217.517 73.2702 217.903 72.1095C218.288 70.9488 218.269 68.8595 218.269 68.8595" stroke="#113D56" stroke-width="0.267895" stroke-miterlimit="10"/>
<path d="M214.046 71.3937L212.735 75.5336L206.913 75.2047" stroke="#113D56" stroke-width="0.267895" stroke-miterlimit="10"/>
<path d="M221.526 85.7476L229.044 84.8384L227.965 86.6955C227.579 87.3532 226.808 87.7014 226.056 87.566L221.7 86.7148L221.526 85.7476Z" fill="#6991A3"/>
<path d="M225.574 76.4234L226.808 79.3445C227.753 81.5885 227.02 84.2968 225.15 85.4962L217.324 89.4426L218.307 95.4395L219.194 101.901L217.324 102.288L212.157 88.1465C211.907 87.1599 212.215 86.1152 212.928 85.5155L225.574 76.4234Z" fill="#8FDDFF"/>
<path d="M218.211 99.5019L219.194 101.881L214.856 103.274L214.934 102.868C215.068 102.23 215.415 101.649 215.936 101.243L218.211 99.5019Z" fill="#8FDDFF"/>
<path d="M204.986 74.4309C204.369 74.2375 203.714 74.6244 203.636 75.4562C203.617 75.7851 203.636 76.2687 203.675 76.6943C203.733 77.2359 204.176 77.5841 204.639 77.5068L204.967 76.3654L206.374 76.7523L207.087 76.4234V75.2047L204.986 74.4309Z" fill="white"/>
<path d="M207.106 75.2047L204.986 74.4309C204.369 74.2375 203.714 74.6244 203.636 75.4562C203.617 75.7851 203.636 76.2687 203.675 76.6943" stroke="#113D56" stroke-width="0.267895" stroke-miterlimit="10"/>
<path d="M205.083 76.9457C205.456 76.9457 205.758 76.6426 205.758 76.2686C205.758 75.8947 205.456 75.5916 205.083 75.5916C204.71 75.5916 204.408 75.8947 204.408 76.2686C204.408 76.6426 204.71 76.9457 205.083 76.9457Z" fill="#113D56"/>
<path d="M235.424 104.803C236.18 104.803 236.793 104.188 236.793 103.429C236.793 102.671 236.18 102.056 235.424 102.056C234.668 102.056 234.056 102.671 234.056 103.429C234.056 104.188 234.668 104.803 235.424 104.803Z" fill="#3E616D"/>
<path d="M215.974 103.642L218.672 102.675" stroke="#3E616D" stroke-width="1.00461" stroke-miterlimit="10"/>
<path d="M183.975 116.023H250.673" stroke="#113D56" stroke-width="0.267895" stroke-miterlimit="10"/>
</g>
<defs>
<linearGradient id="paint0_linear_11240_3577" x1="214.491" y1="94.5634" x2="214.045" y2="43.5814" gradientUnits="userSpaceOnUse">
<stop stop-color="#05A9E2" stop-opacity="0"/>
<stop offset="0.9795" stop-color="#05A9E2"/>
</linearGradient>
<linearGradient id="paint1_linear_11240_3577" x1="208.594" y1="61.6527" x2="208.594" y2="57.253" gradientUnits="userSpaceOnUse">
<stop stop-color="#05AAE2" stop-opacity="0"/>
<stop offset="1" stop-color="#209EC9"/>
</linearGradient>
<linearGradient id="paint2_linear_11240_3577" x1="243.427" y1="66.153" x2="243.427" y2="63.7816" gradientUnits="userSpaceOnUse">
<stop stop-color="#05AAE2" stop-opacity="0"/>
<stop offset="1" stop-color="#209EC9"/>
</linearGradient>
<clipPath id="clip0_11240_3577">
<rect width="80" height="100" fill="white" transform="translate(178 34)"/>
</clipPath>
</defs>
</svg>
