<svg width="293" height="200" viewBox="0 0 293 200" fill="none" xmlns="http://www.w3.org/2000/svg">
<rect x="0.5" y="0.5" width="292" height="199" fill="#1B2B32"/>
<rect x="0.5" y="0.5" width="292" height="199" stroke="#4F6169"/>
<rect width="293" height="16" fill="black"/>
<rect width="51" height="182" transform="translate(1 17)" fill="#22343C"/>
<rect opacity="0.4" x="67" y="60.3975" width="61.631" height="2.08333" rx="1.04167" fill="#ACB8BE"/>
<rect opacity="0.4" x="67" y="68.7309" width="61.631" height="2.08333" rx="1.04167" fill="#ACB8BE"/>
<rect opacity="0.4" x="67" y="77.0642" width="39.6199" height="2.08333" rx="1.04167" fill="#ACB8BE"/>
<rect opacity="0.6" x="67" y="89" width="27" height="9" rx="1.6" fill="#2EC0FF"/>
<path d="M68.4249 54L66.7095 48.9852H67.3518L68.7387 53.0438L70.0673 48.9852H70.7023L72.0308 53.0438L73.4177 48.9852H74.0601L72.3447 54H71.7826L70.3884 49.7298L68.9869 54H68.4249ZM76.5082 53.5985C76.9535 53.5985 77.4645 53.4014 77.6981 53.146L78.0339 53.5036C77.7054 53.8613 77.0411 54.0876 76.5155 54.0876C75.5082 54.0876 74.6031 53.2627 74.6031 52.1021C74.6031 50.978 75.4498 50.1385 76.4645 50.1385C77.6032 50.1385 78.2528 50.9999 78.2528 52.3211H75.1651C75.2454 53.0584 75.7637 53.5985 76.5082 53.5985ZM76.4863 50.6276C75.8148 50.6276 75.2746 51.1021 75.1724 51.832H77.7127C77.6397 51.1532 77.2382 50.6276 76.4863 50.6276ZM79.1726 54V48.8976H79.7201V54H79.1726ZM82.6109 54.0876C81.5525 54.0876 80.6546 53.1825 80.6546 52.1094C80.6546 51.0364 81.5525 50.1385 82.6109 50.1385C83.1219 50.1385 83.5963 50.3502 83.954 50.6933L83.5744 51.0656C83.3263 50.7955 82.9832 50.6276 82.6109 50.6276C81.859 50.6276 81.2313 51.3065 81.2313 52.1094C81.2313 52.9197 81.859 53.5985 82.6109 53.5985C82.9905 53.5985 83.3409 53.4233 83.5963 53.1387L83.9759 53.5109C83.6182 53.8686 83.1365 54.0876 82.6109 54.0876ZM86.3961 54.0876C85.3231 54.0876 84.4471 53.197 84.4471 52.1094C84.4471 51.0218 85.3231 50.1385 86.3961 50.1385C87.4618 50.1385 88.3378 51.0218 88.3378 52.1094C88.3378 53.197 87.4618 54.0876 86.3961 54.0876ZM86.3961 53.5985C87.148 53.5985 87.7684 52.927 87.7684 52.1094C87.7684 51.2919 87.148 50.6276 86.3961 50.6276C85.637 50.6276 85.0165 51.2919 85.0165 52.1094C85.0165 52.927 85.637 53.5985 86.3961 53.5985ZM93.3613 50.1385C94.1496 50.1385 94.7044 50.7444 94.7044 51.5984V54H94.1569V51.6714C94.1569 51.0583 93.7992 50.6276 93.2883 50.6276C92.6897 50.6276 92.2663 51.0291 92.2663 51.5984V54H91.7189V51.6714C91.7189 51.0583 91.3612 50.6276 90.8502 50.6276C90.2516 50.6276 89.8283 51.0291 89.8283 51.5984V54H89.2808V50.2261H89.8283V50.7809C90.0181 50.3867 90.4268 50.1385 90.9232 50.1385C91.5218 50.1385 91.9889 50.4889 92.1787 51.0364C92.2955 50.5035 92.7627 50.1385 93.3613 50.1385ZM97.4802 53.5985C97.9255 53.5985 98.4364 53.4014 98.67 53.146L99.0058 53.5036C98.6773 53.8613 98.0131 54.0876 97.4875 54.0876C96.4802 54.0876 95.575 53.2627 95.575 52.1021C95.575 50.978 96.4218 50.1385 97.4364 50.1385C98.5751 50.1385 99.2248 50.9999 99.2248 52.3211H96.1371C96.2174 53.0584 96.7356 53.5985 97.4802 53.5985ZM97.4583 50.6276C96.7867 50.6276 96.2466 51.1021 96.1444 51.832H98.6846C98.6116 51.1532 98.2102 50.6276 97.4583 50.6276Z" fill="#ACB8BE"/>
<rect opacity="0.4" x="67" y="144.167" width="189.295" height="2.08333" rx="1.04167" fill="#ACB8BE"/>
<rect opacity="0.4" x="67" y="165" width="115.558" height="2.08333" rx="1.04167" fill="#ACB8BE"/>
<rect opacity="0.4" x="67" y="154.583" width="183.793" height="2.08333" rx="1.04167" fill="#ACB8BE"/>
<g clip-path="url(#clip0_11240_3592)">
<path opacity="0.6" d="M208.695 36.7263C191.206 36.7263 177.036 50.8964 177.036 68.3848V123.745H240.353V68.3848C240.353 50.8964 226.183 36.7263 208.695 36.7263Z" fill="url(#paint0_linear_11240_3592)"/>
<path d="M225.777 60.9866L182.03 60.5633L189.429 52.1831C192.645 49.5252 197.521 50.761 199.095 52.0816L200.941 53.6391C202.6 55.0443 205.038 55.0443 206.68 53.6222C208.441 52.0985 211.099 52.217 212.724 53.893L213.604 54.7903C214.722 55.9415 216.381 56.3817 217.921 55.9754L218.869 55.7214C220.782 55.1966 222.814 56.0262 223.83 57.7361L225.777 60.9866Z" fill="url(#paint1_linear_11240_3592)"/>
<path d="M221.713 64.8973L227.334 60.0723C228.586 59.0058 230.449 59.0566 231.634 60.1909L233.327 61.8161C234.613 63.052 236.662 62.9842 237.898 61.6807C238.964 60.5464 240.691 60.3263 241.995 61.1728L247.277 64.6095L221.713 64.8973Z" fill="url(#paint2_linear_11240_3592)"/>
<path d="M219.867 79.389L216.143 89.3775L214.619 99.366L213.265 99.5353L213.434 88.0231L214.788 79.5583L219.867 79.389Z" fill="#3E616D"/>
<path d="M209.591 57.2957C207.627 56.4154 205.308 57.0418 204.292 59.4119L204.36 59.7505L207.255 65.3373C208.728 65.168 210.184 64.2369 210.996 62.781C212.198 60.6309 211.572 58.1761 209.591 57.2957Z" fill="#113D56"/>
<path d="M207.846 69.0618L206.814 65.3712H205.866C205.341 65.3712 204.884 65.0326 204.748 64.5247L204.223 63.5766L203.275 63.4243L204.291 59.395L205.849 59.2596C206.509 59.2596 207.051 59.7674 207.118 60.4277C207.152 60.834 207.271 61.3419 207.508 61.9344C208.185 63.6274 208.845 64.4908 208.845 64.4908L211.046 67.0134L207.846 69.0618Z" fill="white"/>
<path d="M206.814 65.3712H205.866C205.341 65.3712 204.884 65.0326 204.748 64.5247L204.223 63.5767L203.275 63.4243L204.291 59.395" stroke="#113D56" stroke-width="0.270875" stroke-miterlimit="10"/>
<path d="M205.461 61.9175C205.601 61.9175 205.715 61.8038 205.715 61.6636C205.715 61.5233 205.601 61.4096 205.461 61.4096C205.321 61.4096 205.207 61.5233 205.207 61.6636C205.207 61.8038 205.321 61.9175 205.461 61.9175Z" fill="#113D56"/>
<path d="M194.151 98.9936C195.264 98.9936 196.166 98.0916 196.166 96.979C196.166 95.8663 195.264 94.9643 194.151 94.9643C193.039 94.9643 192.137 95.8663 192.137 96.979C192.137 98.0916 193.039 98.9936 194.151 98.9936Z" stroke="#6991A3" stroke-width="0.337223" stroke-miterlimit="10"/>
<path d="M194.151 97.9778C194.703 97.9778 195.15 97.5306 195.15 96.9789C195.15 96.4273 194.703 95.9801 194.151 95.9801C193.6 95.9801 193.152 96.4273 193.152 96.9789C193.152 97.5306 193.6 97.9778 194.151 97.9778Z" fill="#FF7212"/>
<path d="M227.469 107.577C233.042 107.577 237.559 103.059 237.559 97.4869C237.559 91.9143 233.042 87.3968 227.469 87.3968C221.896 87.3968 217.379 91.9143 217.379 97.4869C217.379 103.059 221.896 107.577 227.469 107.577Z" stroke="#6991A3" stroke-width="1.69297" stroke-miterlimit="10"/>
<path d="M194.117 107.577C199.69 107.577 204.208 103.059 204.208 97.4869C204.208 91.9143 199.69 87.3968 194.117 87.3968C188.545 87.3968 184.027 91.9143 184.027 97.4869C184.027 103.059 188.545 107.577 194.117 107.577Z" stroke="#6991A3" stroke-width="1.69297" stroke-miterlimit="10"/>
<path d="M227.468 100.382C229.067 100.382 230.363 99.0856 230.363 97.4868C230.363 95.8879 229.067 94.5918 227.468 94.5918C225.869 94.5918 224.573 95.8879 224.573 97.4868C224.573 99.0856 225.869 100.382 227.468 100.382Z" fill="#6991A3"/>
<path d="M217.921 82.3517L211.995 98.9428" stroke="#FF7212" stroke-width="0.846485" stroke-miterlimit="10"/>
<path d="M211.488 99.62L227.74 97.4192C227.74 97.4192 221.849 89.3099 216.228 86.2456C210.607 83.1813 199.976 82.0132 199.976 82.0132" stroke="#FF7212" stroke-width="0.846485" stroke-miterlimit="10"/>
<path d="M211.555 102.583C213.154 102.583 214.45 101.287 214.45 99.6877C214.45 98.0888 213.154 96.7927 211.555 96.7927C209.956 96.7927 208.66 98.0888 208.66 99.6877C208.66 101.287 209.956 102.583 211.555 102.583Z" fill="#FF7212"/>
<path d="M211.385 97.453L211.74 99.8739" stroke="#6991A3" stroke-width="1.18508" stroke-miterlimit="10" stroke-linecap="round"/>
<path d="M208.717 61.9846C208.819 61.4996 208.545 61.0317 208.106 60.9396C207.667 60.8475 207.228 61.1659 207.127 61.6509C207.025 62.1359 207.298 62.6038 207.738 62.6959C208.177 62.7881 208.615 62.4696 208.717 61.9846Z" fill="white"/>
<path d="M204.614 64.4739C204.953 64.4908 205.308 64.3723 205.562 64.1523" stroke="#113D56" stroke-width="0.270875" stroke-miterlimit="10"/>
<path d="M210.082 59.0902C211.149 59.0225 212.08 59.4119 212.249 60.2584" stroke="#113D56" stroke-width="1.01903" stroke-miterlimit="10" stroke-linecap="round"/>
<path d="M211.063 58.227C212.418 58.227 213.4 58.9719 213.738 59.8353" stroke="#113D56" stroke-width="1.01903" stroke-miterlimit="10" stroke-linecap="round"/>
<path d="M209.761 59.0734C209.337 57.5159 210.438 55.8737 212.182 55.3996C212.351 55.3489 212.537 55.315 212.706 55.2981" stroke="#113D56" stroke-width="1.01903" stroke-miterlimit="10" stroke-linecap="round"/>
<path d="M209.912 58.4299C210.522 56.9401 212.384 56.2968 214.06 56.974" stroke="#113D56" stroke-width="1.01903" stroke-miterlimit="10" stroke-linecap="round"/>
<path d="M209.777 58.9379C210.421 57.8037 211.961 57.4651 213.248 58.1761C213.485 58.3115 213.705 58.4808 213.891 58.6671" stroke="#113D56" stroke-width="1.01903" stroke-miterlimit="10" stroke-linecap="round"/>
<path d="M200.483 80.3033L194.219 96.9113" stroke="#FF7212" stroke-width="1.01578" stroke-miterlimit="10"/>
<path d="M199.805 74.3947L199.246 75.1227C198.908 75.546 199.026 76.1724 199.5 76.4432L200.55 77.0527C201.109 77.3744 201.346 78.0516 201.109 78.661L200.482 80.3032" stroke="#6991A3" stroke-width="0.677188" stroke-miterlimit="10"/>
<path d="M199.806 82.1825L211.656 96.5727" stroke="#FF7212" stroke-width="1.52367" stroke-miterlimit="10"/>
<path d="M216.82 70.0777C213.096 64.6602 209.608 65.5744 209.608 65.5744L207.848 68.8926L208.711 71.6352C209.117 73.0742 210.286 74.1746 211.741 74.4794L212.436 74.6317C213.181 77.4929 212.893 80.8957 212.893 80.8957L219.275 78.3224C219.258 78.3224 220.545 75.4952 216.82 70.0777Z" fill="#05A9E2"/>
<path d="M219.258 78.3224C219.258 78.3224 220.545 75.4952 216.82 70.0777C213.096 64.6602 209.608 65.5744 209.608 65.5744" stroke="#113D56" stroke-width="0.270875" stroke-miterlimit="10"/>
<path d="M212.554 80.8958C212.554 80.8958 212.842 77.476 212.097 74.6318L211.403 74.4794C209.947 74.1747 208.779 73.0743 208.373 71.6352L206.477 65.3712" stroke="#113D56" stroke-width="0.270875" stroke-miterlimit="10"/>
<path d="M209.372 67.3689L207.543 73.0742L202.43 72.7864L202.092 74.1408C202.092 74.1408 207.001 76.3416 208.864 75.3259C209.998 74.6995 211.742 71.0934 212.08 70.0777C212.419 69.0619 212.402 67.2335 212.402 67.2335C212.233 66.4716 211.522 66.0315 210.828 66.0822C210.506 66.1161 210.201 66.2685 209.964 66.4886L209.372 67.3689Z" fill="#F8F8F8"/>
<path d="M202.092 74.1408C202.092 74.1408 207.001 76.3417 208.864 75.3259C209.998 74.6995 211.742 71.0935 212.08 70.0777C212.419 69.0619 212.402 67.2335 212.402 67.2335" stroke="#113D56" stroke-width="0.270875" stroke-miterlimit="10"/>
<path d="M208.694 69.4513L207.542 73.0742L202.43 72.7864" stroke="#113D56" stroke-width="0.270875" stroke-miterlimit="10"/>
<path d="M215.263 82.013L221.865 81.2173L220.917 82.8426C220.579 83.4182 219.901 83.7229 219.241 83.6044L215.415 82.8595L215.263 82.013Z" fill="#6991A3"/>
<path d="M218.818 73.853L219.901 76.4094C220.731 78.3732 220.087 80.7434 218.445 81.793L211.572 85.2467L212.435 90.4949L213.214 96.1494L211.572 96.488L207.035 84.1124C206.814 83.249 207.085 82.3348 207.712 81.81L218.818 73.853Z" fill="#113D56"/>
<path d="M212.351 94.0501L213.214 96.1324L209.405 97.3514L209.473 96.9958C209.592 96.4372 209.896 95.9293 210.353 95.5738L212.351 94.0501Z" fill="#113D56"/>
<path d="M200.738 72.1092C200.196 71.9399 199.62 72.2785 199.553 73.0065C199.536 73.2943 199.553 73.7176 199.586 74.09C199.637 74.564 200.027 74.8688 200.433 74.8011L200.721 73.8022L201.957 74.1408L202.583 73.853V72.7864L200.738 72.1092Z" fill="white"/>
<path d="M202.6 72.7864L200.738 72.1092C200.196 71.9399 199.62 72.2785 199.553 73.0065C199.536 73.2943 199.553 73.7176 199.586 74.09" stroke="#113D56" stroke-width="0.270875" stroke-miterlimit="10"/>
<path d="M200.822 74.3101C201.149 74.3101 201.415 74.0448 201.415 73.7176C201.415 73.3903 201.149 73.125 200.822 73.125C200.495 73.125 200.229 73.3903 200.229 73.7176C200.229 74.0448 200.495 74.3101 200.822 74.3101Z" fill="#113D56"/>
<path d="M227.469 98.6889C228.132 98.6889 228.671 98.1507 228.671 97.4869C228.671 96.823 228.132 96.2849 227.469 96.2849C226.805 96.2849 226.267 96.823 226.267 97.4869C226.267 98.1507 226.805 98.6889 227.469 98.6889Z" fill="#3E616D"/>
<path d="M210.388 97.6731L212.758 96.8266" stroke="#3E616D" stroke-width="1.01578" stroke-miterlimit="10"/>
<path d="M182.284 108.508H240.861" stroke="#113D56" stroke-width="0.270875" stroke-miterlimit="10"/>
</g>
<rect opacity="0.3" x="142.029" y="32.6871" width="134.638" height="82.1291" fill="black"/>
<path fill-rule="evenodd" clip-rule="evenodd" d="M211.435 87.9558C219.429 87.9558 225.909 81.4758 225.909 73.4823C225.909 65.4888 219.429 59.0089 211.435 59.0089C203.442 59.0089 196.962 65.4888 196.962 73.4823C196.962 81.4758 203.442 87.9558 211.435 87.9558ZM207.74 66.9576L218.943 72.5588V72.554C219.28 72.7235 219.493 73.0688 219.493 73.4465C219.493 73.8242 219.28 74.1696 218.943 74.3391L207.769 79.9403C207.46 80.099 207.09 80.0844 206.794 79.9019C206.498 79.7194 206.319 79.3955 206.322 79.0478V67.8501C206.327 67.5117 206.502 67.1987 206.789 67.0185C207.075 66.8383 207.433 66.8153 207.74 66.9576Z" fill="white"/>
<defs>
<linearGradient id="paint0_linear_11240_3592" x1="209.084" y1="89.7281" x2="208.695" y2="45.1114" gradientUnits="userSpaceOnUse">
<stop stop-color="#05A9E2" stop-opacity="0"/>
<stop offset="0.9795" stop-color="#05A9E2"/>
</linearGradient>
<linearGradient id="paint1_linear_11240_3592" x1="203.905" y1="60.9264" x2="203.905" y2="57.0761" gradientUnits="userSpaceOnUse">
<stop stop-color="#05AAE2" stop-opacity="0"/>
<stop offset="1" stop-color="#209EC9"/>
</linearGradient>
<linearGradient id="paint2_linear_11240_3592" x1="234.496" y1="64.8649" x2="234.496" y2="62.7895" gradientUnits="userSpaceOnUse">
<stop stop-color="#05AAE2" stop-opacity="0"/>
<stop offset="1" stop-color="#209EC9"/>
</linearGradient>
<clipPath id="clip0_11240_3592">
<rect width="70.2582" height="87.5146" fill="white" transform="translate(177.036 36.7263)"/>
</clipPath>
</defs>
</svg>
