<svg width="452" height="288" viewBox="0 0 452 288" fill="none" xmlns="http://www.w3.org/2000/svg">
<g clip-path="url(#clip0_11240_3679)">
<rect width="452" height="288" fill="#1B2B32"/>
<path opacity="0.3" d="M452 0H0V288H452V0Z" fill="black"/>
<path opacity="0.5" d="M451 1H1V23H451V1Z" fill="black"/>
<g filter="url(#filter0_d_11240_3679)">
<rect x="62" y="53" width="330" height="189" rx="2.08559" fill="#22343C" shape-rendering="crispEdges"/>
<rect opacity="0.6" width="33" height="16" rx="1.6" transform="matrix(-1 0 0 1 381 215)" fill="#2EC0FF"/>
<rect opacity="0.5" x="-0.5" y="0.5" width="33" height="15" rx="1.1" transform="matrix(-1 0 0 1 342 215)" stroke="#2EC0FF"/>
<rect opacity="0.6" x="317" y="222" width="19" height="2" rx="1" fill="#2EC0FF"/>
<rect opacity="0.6" x="356" y="222" width="19" height="2" rx="1" fill="black"/>
<rect opacity="0.6" x="283" y="222" width="19" height="2" rx="1" fill="#2EC0FF"/>
<rect opacity="0.4" x="102.235" y="141" width="34" height="34" rx="2" fill="#ACB8BE"/>
<rect opacity="0.4" x="105.588" y="183.163" width="26.8235" height="2" rx="1" fill="#ACB8BE"/>
<rect opacity="0.4" x="100" y="188.86" width="38" height="2" rx="1" fill="#ACB8BE"/>
<rect opacity="0.4" x="156.235" y="141" width="34" height="34" rx="2" fill="#ACB8BE"/>
<rect opacity="0.4" x="159.588" y="183.163" width="26.8235" height="2" rx="1" fill="#ACB8BE"/>
<rect opacity="0.4" x="154" y="188.86" width="38" height="2" rx="1" fill="#ACB8BE"/>
<rect opacity="0.4" x="210.235" y="141" width="34" height="34" rx="2" fill="#ACB8BE"/>
<rect opacity="0.4" x="213.588" y="183.163" width="26.8235" height="2" rx="1" fill="#ACB8BE"/>
<rect opacity="0.4" x="208" y="188.86" width="38" height="2" rx="1" fill="#ACB8BE"/>
<rect opacity="0.4" x="264.235" y="141" width="34" height="34" rx="2" fill="#ACB8BE"/>
<rect opacity="0.4" x="267.588" y="183.163" width="26.8235" height="2" rx="1" fill="#ACB8BE"/>
<rect opacity="0.4" x="262" y="188.86" width="38" height="2" rx="1" fill="#ACB8BE"/>
<rect opacity="0.4" x="318.235" y="141" width="34" height="34" rx="2" fill="#ACB8BE"/>
<rect opacity="0.4" x="321.588" y="183.163" width="26.8235" height="2" rx="1" fill="#ACB8BE"/>
<rect opacity="0.4" x="316" y="188.86" width="38" height="2" rx="1" fill="#ACB8BE"/>
<path d="M98.2592 106L94.9692 96.382H96.2012L98.8612 104.166L101.409 96.382H102.627L105.175 104.166L107.835 96.382H109.067L105.777 106H104.699L102.025 97.81L99.3372 106H98.2592ZM114.094 98.594C115.69 98.594 116.81 99.756 116.81 101.394V106H115.76V101.534C115.76 100.358 115.018 99.532 113.954 99.532C112.736 99.532 111.714 100.386 111.714 101.394V106H110.664V96.214H111.714V99.924C112.134 99.154 113.072 98.594 114.094 98.594ZM121.875 98.594C123.849 98.594 124.815 99.84 124.815 101.59V106H123.765V104.866C123.247 105.72 122.169 106.168 121.217 106.168C119.691 106.168 118.571 105.286 118.571 103.858C118.571 102.416 119.859 101.45 121.413 101.45C122.197 101.45 123.023 101.618 123.765 101.856V101.59C123.765 100.61 123.373 99.49 121.805 99.49C121.077 99.49 120.349 99.812 119.691 100.148L119.271 99.294C120.307 98.776 121.175 98.594 121.875 98.594ZM121.399 105.244C122.351 105.244 123.485 104.754 123.765 103.732V102.626C123.107 102.444 122.365 102.332 121.581 102.332C120.503 102.332 119.593 102.948 119.593 103.816C119.593 104.712 120.377 105.244 121.399 105.244ZM130.138 104.936L130.656 105.706C130.278 106 129.802 106.168 129.312 106.168C128.276 106.168 127.548 105.398 127.548 104.32V99.7H126.414V98.762H127.548V96.774H128.598V98.762H130.376V99.7H128.598V104.32C128.598 104.852 128.962 105.23 129.382 105.23C129.704 105.23 129.984 105.104 130.138 104.936ZM138.051 106L135.629 98.762H136.749L138.555 104.6L140.529 98.762H141.439L143.413 104.6L145.219 98.762H146.339L143.903 106H142.909L140.991 100.218L139.045 106H138.051ZM148.383 97.446C147.991 97.446 147.683 97.124 147.683 96.746C147.683 96.382 147.991 96.06 148.383 96.06C148.761 96.06 149.069 96.382 149.069 96.746C149.069 97.124 148.761 97.446 148.383 97.446ZM147.851 106V98.762H148.901V106H147.851ZM151.009 106V96.214H152.059V106H151.009ZM154.181 106V96.214H155.231V106H154.181ZM162.492 108.52C162.072 108.52 161.68 108.436 161.344 108.282L161.596 107.386C161.848 107.512 162.142 107.568 162.45 107.568C162.912 107.568 163.22 107.414 163.5 106.924L163.92 106.028L160.77 98.762H161.932L164.466 104.782L166.86 98.762H167.994L164.69 106.812C164.186 108.044 163.486 108.506 162.492 108.52ZM172.799 106.168C170.769 106.168 169.047 104.432 169.047 102.374C169.047 100.316 170.769 98.594 172.799 98.594C174.829 98.594 176.537 100.316 176.537 102.374C176.537 104.432 174.829 106.168 172.799 106.168ZM172.799 105.23C174.227 105.23 175.431 103.928 175.431 102.374C175.431 100.834 174.227 99.532 172.799 99.532C171.357 99.532 170.153 100.834 170.153 102.374C170.153 103.928 171.357 105.23 172.799 105.23ZM183.367 98.762H184.417V106H183.367V104.838C182.947 105.608 182.009 106.168 180.987 106.168C179.391 106.168 178.271 105.006 178.271 103.368V98.762H179.321V103.228C179.321 104.404 180.063 105.23 181.127 105.23C182.345 105.23 183.367 104.376 183.367 103.368V98.762ZM194.397 98.594C196.301 98.594 197.729 100.162 197.729 102.374C197.729 104.6 196.301 106.168 194.397 106.168C193.235 106.168 192.311 105.594 191.765 104.642V106H190.715V96.214H191.765V100.12C192.311 99.168 193.235 98.594 194.397 98.594ZM194.201 105.23C195.615 105.23 196.623 104.04 196.623 102.374C196.623 100.708 195.615 99.532 194.201 99.532C192.773 99.532 191.765 100.708 191.765 102.374C191.765 104.04 192.773 105.23 194.201 105.23ZM202.806 105.23C203.66 105.23 204.64 104.852 205.088 104.362L205.732 105.048C205.102 105.734 203.828 106.168 202.82 106.168C200.888 106.168 199.152 104.586 199.152 102.36C199.152 100.204 200.776 98.594 202.722 98.594C204.906 98.594 206.152 100.246 206.152 102.78H200.23C200.384 104.194 201.378 105.23 202.806 105.23ZM202.764 99.532C201.476 99.532 200.44 100.442 200.244 101.842H205.116C204.976 100.54 204.206 99.532 202.764 99.532ZM217.027 98.762H218.077V106H217.027V104.838C216.607 105.608 215.669 106.168 214.647 106.168C213.051 106.168 211.931 105.006 211.931 103.368V98.762H212.981V103.228C212.981 104.404 213.723 105.23 214.787 105.23C216.005 105.23 217.027 104.376 217.027 103.368V98.762ZM222.778 106.168C221.77 106.168 220.65 105.79 219.782 105.09L220.328 104.32C221.154 104.922 221.98 105.23 222.778 105.23C223.73 105.23 224.374 104.782 224.374 104.096C224.374 103.312 223.534 103.06 222.554 102.78C220.804 102.276 220.132 101.758 220.132 100.722C220.132 99.406 221.224 98.594 222.666 98.594C223.562 98.594 224.486 98.902 225.256 99.406L224.752 100.218C224.024 99.756 223.31 99.532 222.666 99.532C221.854 99.532 221.182 99.896 221.182 100.596C221.182 101.226 221.714 101.422 223.058 101.856C224.22 102.22 225.424 102.612 225.424 103.984C225.424 105.314 224.276 106.168 222.778 106.168ZM227.68 97.446C227.288 97.446 226.98 97.124 226.98 96.746C226.98 96.382 227.288 96.06 227.68 96.06C228.058 96.06 228.366 96.382 228.366 96.746C228.366 97.124 228.058 97.446 227.68 97.446ZM227.148 106V98.762H228.198V106H227.148ZM233.75 98.594C235.346 98.594 236.466 99.756 236.466 101.394V106H235.416V101.534C235.416 100.358 234.674 99.532 233.61 99.532C232.392 99.532 231.37 100.386 231.37 101.394V106H230.32V98.762H231.37V99.924C231.79 99.154 232.728 98.594 233.75 98.594ZM244.219 98.762H245.269V105.23C245.269 107.092 243.799 108.408 241.713 108.408C240.537 108.408 239.445 108.002 238.787 107.442L239.249 106.616C239.809 107.148 240.677 107.47 241.573 107.47C243.239 107.47 244.219 106.644 244.219 105.23V104.054C243.659 104.936 242.735 105.468 241.587 105.468C239.641 105.468 238.255 104.04 238.255 102.024C238.255 100.008 239.641 98.594 241.587 98.594C242.735 98.594 243.659 99.126 244.219 100.008V98.762ZM241.783 104.53C243.211 104.53 244.219 103.494 244.219 102.024C244.219 100.568 243.211 99.532 241.783 99.532C240.369 99.532 239.361 100.568 239.361 102.024C239.361 103.494 240.369 104.53 241.783 104.53ZM254.73 104.936L255.248 105.706C254.87 106 254.394 106.168 253.904 106.168C252.868 106.168 252.14 105.398 252.14 104.32V99.7H251.006V98.762H252.14V96.774H253.19V98.762H254.968V99.7H253.19V104.32C253.19 104.852 253.554 105.23 253.974 105.23C254.296 105.23 254.576 105.104 254.73 104.936ZM260.178 98.594C261.774 98.594 262.894 99.756 262.894 101.394V106H261.844V101.534C261.844 100.358 261.102 99.532 260.038 99.532C258.82 99.532 257.798 100.386 257.798 101.394V106H256.748V96.214H257.798V99.924C258.218 99.154 259.156 98.594 260.178 98.594ZM268.281 105.23C269.135 105.23 270.115 104.852 270.563 104.362L271.207 105.048C270.577 105.734 269.303 106.168 268.295 106.168C266.363 106.168 264.627 104.586 264.627 102.36C264.627 100.204 266.251 98.594 268.197 98.594C270.381 98.594 271.627 100.246 271.627 102.78H265.705C265.859 104.194 266.853 105.23 268.281 105.23ZM268.239 99.532C266.951 99.532 265.915 100.442 265.719 101.842H270.591C270.451 100.54 269.681 99.532 268.239 99.532ZM281.186 98.594C283.09 98.594 284.518 100.162 284.518 102.374C284.518 104.6 283.09 106.168 281.186 106.168C280.024 106.168 279.1 105.594 278.554 104.642V108.408H277.504V98.762H278.554V100.12C279.1 99.168 280.024 98.594 281.186 98.594ZM280.99 105.23C282.404 105.23 283.412 104.04 283.412 102.374C283.412 100.708 282.404 99.532 280.99 99.532C279.562 99.532 278.554 100.708 278.554 102.374C278.554 104.04 279.562 105.23 280.99 105.23ZM287.482 100.176C287.916 99.21 288.952 98.594 290.282 98.594V99.532C288.644 99.532 287.482 100.54 287.482 101.954V106H286.432V98.762H287.482V100.176ZM294.862 106.168C292.832 106.168 291.11 104.432 291.11 102.374C291.11 100.316 292.832 98.594 294.862 98.594C296.892 98.594 298.6 100.316 298.6 102.374C298.6 104.432 296.892 106.168 294.862 106.168ZM294.862 105.23C296.29 105.23 297.494 103.928 297.494 102.374C297.494 100.834 296.29 99.532 294.862 99.532C293.42 99.532 292.216 100.834 292.216 102.374C292.216 103.928 293.42 105.23 294.862 105.23ZM305.99 96.214H307.04V106H305.99V104.642C305.444 105.594 304.52 106.168 303.358 106.168C301.454 106.168 300.026 104.6 300.026 102.374C300.026 100.162 301.454 98.594 303.358 98.594C304.52 98.594 305.444 99.168 305.99 100.12V96.214ZM303.554 105.23C304.982 105.23 305.99 104.04 305.99 102.374C305.99 100.708 304.982 99.532 303.554 99.532C302.14 99.532 301.132 100.708 301.132 102.374C301.132 104.04 302.14 105.23 303.554 105.23ZM314.357 98.762H315.407V106H314.357V104.838C313.937 105.608 312.999 106.168 311.977 106.168C310.381 106.168 309.261 105.006 309.261 103.368V98.762H310.311V103.228C310.311 104.404 311.053 105.23 312.117 105.23C313.335 105.23 314.357 104.376 314.357 103.368V98.762ZM320.906 106.168C318.876 106.168 317.154 104.432 317.154 102.374C317.154 100.316 318.876 98.594 320.906 98.594C321.886 98.594 322.796 99 323.482 99.658L322.754 100.372C322.278 99.854 321.62 99.532 320.906 99.532C319.464 99.532 318.26 100.834 318.26 102.374C318.26 103.928 319.464 105.23 320.906 105.23C321.634 105.23 322.306 104.894 322.796 104.348L323.524 105.062C322.838 105.748 321.914 106.168 320.906 106.168ZM328.312 104.936L328.83 105.706C328.452 106 327.976 106.168 327.486 106.168C326.45 106.168 325.722 105.398 325.722 104.32V99.7H324.588V98.762H325.722V96.774H326.772V98.762H328.55V99.7H326.772V104.32C326.772 104.852 327.136 105.23 327.556 105.23C327.878 105.23 328.158 105.104 328.312 104.936ZM336.015 97.768V98.762H337.793V99.7H336.015V106H334.965V99.7H333.831V98.762H334.965V97.768C334.965 96.69 335.693 95.92 336.729 95.92C337.219 95.92 337.695 96.088 338.073 96.382L337.555 97.152C337.401 96.984 337.121 96.858 336.799 96.858C336.379 96.858 336.015 97.236 336.015 97.768ZM342.645 106.168C340.615 106.168 338.893 104.432 338.893 102.374C338.893 100.316 340.615 98.594 342.645 98.594C344.675 98.594 346.383 100.316 346.383 102.374C346.383 104.432 344.675 106.168 342.645 106.168ZM342.645 105.23C344.073 105.23 345.277 103.928 345.277 102.374C345.277 100.834 344.073 99.532 342.645 99.532C341.203 99.532 339.999 100.834 339.999 102.374C339.999 103.928 341.203 105.23 342.645 105.23ZM349.265 100.176C349.699 99.21 350.735 98.594 352.065 98.594V99.532C350.427 99.532 349.265 100.54 349.265 101.954V106H348.215V98.762H349.265V100.176ZM355.029 103.298V100.68C356.667 100.54 357.829 99.784 357.829 98.874C357.829 98.02 357.115 97.208 355.939 97.208C354.889 97.208 354.161 97.782 353.545 98.538L352.831 97.824C353.573 96.9 354.581 96.214 355.995 96.214C357.773 96.214 358.935 97.348 358.935 98.776C358.935 100.022 357.773 101.156 356.135 101.506V103.298H355.029ZM355.589 106.168C355.155 106.168 354.819 105.818 354.819 105.398C354.819 105.006 355.155 104.656 355.589 104.656C355.995 104.656 356.331 105.006 356.331 105.398C356.331 105.818 355.995 106.168 355.589 106.168Z" fill="#ACB8BE"/>
<path d="M144.93 124.132C142.84 124.132 141.058 122.339 141.058 120.216C141.058 118.093 142.84 116.311 144.93 116.311C145.975 116.311 146.943 116.751 147.647 117.466L147.064 118.06C146.514 117.477 145.755 117.103 144.93 117.103C143.302 117.103 141.927 118.533 141.927 120.216C141.927 121.91 143.302 123.34 144.93 123.34C145.755 123.34 146.514 122.966 147.064 122.383L147.647 122.977C146.943 123.681 145.975 124.132 144.93 124.132ZM149.64 119.424C149.981 118.665 150.795 118.181 151.84 118.181V118.918C150.553 118.918 149.64 119.71 149.64 120.821V124H148.815V118.313H149.64V119.424ZM155.375 123.395C156.046 123.395 156.816 123.098 157.168 122.713L157.674 123.252C157.179 123.791 156.178 124.132 155.386 124.132C153.868 124.132 152.504 122.889 152.504 121.14C152.504 119.446 153.78 118.181 155.309 118.181C157.025 118.181 158.004 119.479 158.004 121.47H153.351C153.472 122.581 154.253 123.395 155.375 123.395ZM155.342 118.918C154.33 118.918 153.516 119.633 153.362 120.733H157.19C157.08 119.71 156.475 118.918 155.342 118.918ZM161.225 118.181C162.776 118.181 163.535 119.16 163.535 120.535V124H162.71V123.109C162.303 123.78 161.456 124.132 160.708 124.132C159.509 124.132 158.629 123.439 158.629 122.317C158.629 121.184 159.641 120.425 160.862 120.425C161.478 120.425 162.127 120.557 162.71 120.744V120.535C162.71 119.765 162.402 118.885 161.17 118.885C160.598 118.885 160.026 119.138 159.509 119.402L159.179 118.731C159.993 118.324 160.675 118.181 161.225 118.181ZM160.851 123.406C161.599 123.406 162.49 123.021 162.71 122.218V121.349C162.193 121.206 161.61 121.118 160.994 121.118C160.147 121.118 159.432 121.602 159.432 122.284C159.432 122.988 160.048 123.406 160.851 123.406ZM167.313 123.164L167.72 123.769C167.423 124 167.049 124.132 166.664 124.132C165.85 124.132 165.278 123.527 165.278 122.68V119.05H164.387V118.313H165.278V116.751H166.103V118.313H167.5V119.05H166.103V122.68C166.103 123.098 166.389 123.395 166.719 123.395C166.972 123.395 167.192 123.296 167.313 123.164ZM171.103 123.395C171.774 123.395 172.544 123.098 172.896 122.713L173.402 123.252C172.907 123.791 171.906 124.132 171.114 124.132C169.596 124.132 168.232 122.889 168.232 121.14C168.232 119.446 169.508 118.181 171.037 118.181C172.753 118.181 173.732 119.479 173.732 121.47H169.079C169.2 122.581 169.981 123.395 171.103 123.395ZM171.07 118.918C170.058 118.918 169.244 119.633 169.09 120.733H172.918C172.808 119.71 172.203 118.918 171.07 118.918ZM179.947 123.164L180.354 123.769C180.057 124 179.683 124.132 179.298 124.132C178.484 124.132 177.912 123.527 177.912 122.68V119.05H177.021V118.313H177.912V116.751H178.737V118.313H180.134V119.05H178.737V122.68C178.737 123.098 179.023 123.395 179.353 123.395C179.606 123.395 179.826 123.296 179.947 123.164ZM184.034 118.181C185.299 118.181 186.168 119.072 186.168 120.381V124H185.343V120.491C185.343 119.556 184.76 118.918 183.924 118.918C182.956 118.918 182.164 119.578 182.164 120.381V124H181.339V116.311H182.164V119.215C182.494 118.61 183.22 118.181 184.034 118.181ZM190.144 123.395C190.815 123.395 191.585 123.098 191.937 122.713L192.443 123.252C191.948 123.791 190.947 124.132 190.155 124.132C188.637 124.132 187.273 122.889 187.273 121.14C187.273 119.446 188.549 118.181 190.078 118.181C191.794 118.181 192.773 119.479 192.773 121.47H188.12C188.241 122.581 189.022 123.395 190.144 123.395ZM190.111 118.918C189.099 118.918 188.285 119.633 188.131 120.733H191.959C191.849 119.71 191.244 118.918 190.111 118.918ZM199.681 118.181C201.177 118.181 202.299 119.413 202.299 121.151C202.299 122.9 201.177 124.132 199.681 124.132C198.768 124.132 198.042 123.681 197.613 122.933V124H196.788V116.311H197.613V119.38C198.042 118.632 198.768 118.181 199.681 118.181ZM199.527 123.395C200.638 123.395 201.43 122.46 201.43 121.151C201.43 119.842 200.638 118.918 199.527 118.918C198.405 118.918 197.613 119.842 197.613 121.151C197.613 122.46 198.405 123.395 199.527 123.395ZM205.968 123.395C206.639 123.395 207.409 123.098 207.761 122.713L208.267 123.252C207.772 123.791 206.771 124.132 205.979 124.132C204.461 124.132 203.097 122.889 203.097 121.14C203.097 119.446 204.373 118.181 205.902 118.181C207.618 118.181 208.597 119.479 208.597 121.47H203.944C204.065 122.581 204.846 123.395 205.968 123.395ZM205.935 118.918C204.923 118.918 204.109 119.633 203.955 120.733H207.783C207.673 119.71 207.068 118.918 205.935 118.918ZM211.543 124.132C210.751 124.132 209.871 123.835 209.189 123.285L209.618 122.68C210.267 123.153 210.916 123.395 211.543 123.395C212.291 123.395 212.797 123.043 212.797 122.504C212.797 121.888 212.137 121.69 211.367 121.47C209.992 121.074 209.464 120.667 209.464 119.853C209.464 118.819 210.322 118.181 211.455 118.181C212.159 118.181 212.885 118.423 213.49 118.819L213.094 119.457C212.522 119.094 211.961 118.918 211.455 118.918C210.817 118.918 210.289 119.204 210.289 119.754C210.289 120.249 210.707 120.403 211.763 120.744C212.676 121.03 213.622 121.338 213.622 122.416C213.622 123.461 212.72 124.132 211.543 124.132ZM217.036 123.164L217.443 123.769C217.146 124 216.772 124.132 216.387 124.132C215.573 124.132 215.001 123.527 215.001 122.68V119.05H214.11V118.313H215.001V116.751H215.826V118.313H217.223V119.05H215.826V122.68C215.826 123.098 216.112 123.395 216.442 123.395C216.695 123.395 216.915 123.296 217.036 123.164ZM223.656 123.395C224.327 123.395 225.097 123.098 225.449 122.713L225.955 123.252C225.46 123.791 224.459 124.132 223.667 124.132C222.149 124.132 220.785 122.889 220.785 121.14C220.785 119.446 222.061 118.181 223.59 118.181C225.306 118.181 226.285 119.479 226.285 121.47H221.632C221.753 122.581 222.534 123.395 223.656 123.395ZM223.623 118.918C222.611 118.918 221.797 119.633 221.643 120.733H225.471C225.361 119.71 224.756 118.918 223.623 118.918ZM232.003 124H231.035L229.33 121.734L227.614 124H226.646L228.846 121.096L226.734 118.313H227.702L229.33 120.458L230.947 118.313H231.915L229.814 121.096L232.003 124ZM235.782 118.181C237.278 118.181 238.4 119.413 238.4 121.151C238.4 122.9 237.278 124.132 235.782 124.132C234.869 124.132 234.143 123.681 233.714 122.933V125.892H232.889V118.313H233.714V119.38C234.143 118.632 234.869 118.181 235.782 118.181ZM235.628 123.395C236.739 123.395 237.531 122.46 237.531 121.151C237.531 119.842 236.739 118.918 235.628 118.918C234.506 118.918 233.714 119.842 233.714 121.151C233.714 122.46 234.506 123.395 235.628 123.395ZM242.069 123.395C242.74 123.395 243.51 123.098 243.862 122.713L244.368 123.252C243.873 123.791 242.872 124.132 242.08 124.132C240.562 124.132 239.198 122.889 239.198 121.14C239.198 119.446 240.474 118.181 242.003 118.181C243.719 118.181 244.698 119.479 244.698 121.47H240.045C240.166 122.581 240.947 123.395 242.069 123.395ZM242.036 118.918C241.024 118.918 240.21 119.633 240.056 120.733H243.884C243.774 119.71 243.169 118.918 242.036 118.918ZM246.709 119.424C247.05 118.665 247.864 118.181 248.909 118.181V118.918C247.622 118.918 246.709 119.71 246.709 120.821V124H245.884V118.313H246.709V119.424ZM250.464 117.279C250.156 117.279 249.914 117.026 249.914 116.729C249.914 116.443 250.156 116.19 250.464 116.19C250.761 116.19 251.003 116.443 251.003 116.729C251.003 117.026 250.761 117.279 250.464 117.279ZM250.046 124V118.313H250.871V124H250.046ZM254.983 123.395C255.654 123.395 256.424 123.098 256.776 122.713L257.282 123.252C256.787 123.791 255.786 124.132 254.994 124.132C253.476 124.132 252.112 122.889 252.112 121.14C252.112 119.446 253.388 118.181 254.917 118.181C256.633 118.181 257.612 119.479 257.612 121.47H252.959C253.08 122.581 253.861 123.395 254.983 123.395ZM254.95 118.918C253.938 118.918 253.124 119.633 252.97 120.733H256.798C256.688 119.71 256.083 118.918 254.95 118.918ZM261.493 118.181C262.758 118.181 263.627 119.072 263.627 120.381V124H262.802V120.491C262.802 119.556 262.219 118.918 261.383 118.918C260.415 118.918 259.623 119.578 259.623 120.381V124H258.798V118.313H259.623V119.215C259.953 118.61 260.679 118.181 261.493 118.181ZM267.647 124.132C266.052 124.132 264.699 122.768 264.699 121.151C264.699 119.534 266.052 118.181 267.647 118.181C268.417 118.181 269.132 118.5 269.671 119.017L269.099 119.578C268.725 119.171 268.208 118.918 267.647 118.918C266.514 118.918 265.568 119.941 265.568 121.151C265.568 122.372 266.514 123.395 267.647 123.395C268.219 123.395 268.747 123.131 269.132 122.702L269.704 123.263C269.165 123.802 268.439 124.132 267.647 124.132ZM273.107 123.395C273.778 123.395 274.548 123.098 274.9 122.713L275.406 123.252C274.911 123.791 273.91 124.132 273.118 124.132C271.6 124.132 270.236 122.889 270.236 121.14C270.236 119.446 271.512 118.181 273.041 118.181C274.757 118.181 275.736 119.479 275.736 121.47H271.083C271.204 122.581 271.985 123.395 273.107 123.395ZM273.074 118.918C272.062 118.918 271.248 119.633 271.094 120.733H274.922C274.812 119.71 274.207 118.918 273.074 118.918ZM280.774 117.532V118.313H282.171V119.05H280.774V124H279.949V119.05H279.058V118.313H279.949V117.532C279.949 116.685 280.521 116.08 281.335 116.08C281.72 116.08 282.094 116.212 282.391 116.443L281.984 117.048C281.863 116.916 281.643 116.817 281.39 116.817C281.06 116.817 280.774 117.114 280.774 117.532ZM285.484 124.132C283.867 124.132 282.547 122.79 282.547 121.151C282.547 119.512 283.867 118.181 285.484 118.181C287.09 118.181 288.41 119.512 288.41 121.151C288.41 122.79 287.09 124.132 285.484 124.132ZM285.484 123.395C286.617 123.395 287.552 122.383 287.552 121.151C287.552 119.919 286.617 118.918 285.484 118.918C284.34 118.918 283.405 119.919 283.405 121.151C283.405 122.383 284.34 123.395 285.484 123.395ZM290.456 119.424C290.797 118.665 291.611 118.181 292.656 118.181V118.918C291.369 118.918 290.456 119.71 290.456 120.821V124H289.631V118.313H290.456V119.424ZM297.117 125.98C296.787 125.98 296.479 125.914 296.215 125.793L296.413 125.089C296.611 125.188 296.842 125.232 297.084 125.232C297.447 125.232 297.689 125.111 297.909 124.726L298.239 124.022L295.764 118.313H296.677L298.668 123.043L300.549 118.313H301.44L298.844 124.638C298.448 125.606 297.898 125.969 297.117 125.98ZM304.761 124.132C303.144 124.132 301.824 122.79 301.824 121.151C301.824 119.512 303.144 118.181 304.761 118.181C306.367 118.181 307.687 119.512 307.687 121.151C307.687 122.79 306.367 124.132 304.761 124.132ZM304.761 123.395C305.894 123.395 306.829 122.383 306.829 121.151C306.829 119.919 305.894 118.918 304.761 118.918C303.617 118.918 302.682 119.919 302.682 121.151C302.682 122.383 303.617 123.395 304.761 123.395ZM312.78 118.313H313.605V124H312.78V123.098C312.45 123.703 311.724 124.132 310.91 124.132C309.645 124.132 308.776 123.241 308.776 121.932V118.313H309.601V121.822C309.601 122.757 310.184 123.395 311.02 123.395C311.988 123.395 312.78 122.735 312.78 121.932V118.313Z" fill="#ACB8BE"/>
</g>
<path opacity="0.4" d="M375.996 70.9669L380.866 66.1069C381.093 65.8424 381.078 65.4481 380.831 65.2019C380.584 64.9556 380.189 64.9404 379.924 65.1669L375.054 70.0269L370.183 65.1603C369.917 64.9337 369.522 64.949 369.276 65.1952C369.028 65.4415 369.013 65.8357 369.241 66.1003L374.111 70.9669L369.234 75.8269C369.043 75.9898 368.96 76.2457 369.018 76.4892C369.077 76.7327 369.268 76.9229 369.512 76.9815C369.756 77.04 370.012 76.9572 370.176 76.7669L375.054 71.9069L379.924 76.7669C380.189 76.9935 380.584 76.9782 380.831 76.732C381.078 76.4857 381.093 76.0914 380.866 75.8269L375.996 70.9669Z" fill="#ACB8BE"/>
</g>
<rect x="0.5" y="0.5" width="451" height="287" stroke="#4F6169"/>
<defs>
<filter id="filter0_d_11240_3679" x="58" y="51" width="338" height="197" filterUnits="userSpaceOnUse" color-interpolation-filters="sRGB">
<feFlood flood-opacity="0" result="BackgroundImageFix"/>
<feColorMatrix in="SourceAlpha" type="matrix" values="0 0 0 0 0 0 0 0 0 0 0 0 0 0 0 0 0 0 127 0" result="hardAlpha"/>
<feOffset dy="2"/>
<feGaussianBlur stdDeviation="2"/>
<feComposite in2="hardAlpha" operator="out"/>
<feColorMatrix type="matrix" values="0 0 0 0 0 0 0 0 0 0 0 0 0 0 0 0 0 0 0.25 0"/>
<feBlend mode="normal" in2="BackgroundImageFix" result="effect1_dropShadow_11240_3679"/>
<feBlend mode="normal" in="SourceGraphic" in2="effect1_dropShadow_11240_3679" result="shape"/>
</filter>
<clipPath id="clip0_11240_3679">
<rect width="452" height="288" fill="white"/>
</clipPath>
</defs>
</svg>
