<svg width="452" height="288" viewBox="0 0 452 288" fill="none" xmlns="http://www.w3.org/2000/svg">
<g clip-path="url(#clip0_11240_3723)">
<rect width="452" height="288" fill="#22343C"/>
<rect x="0.5" y="0.5" width="451" height="287" stroke="#4F6169"/>
<rect x="1" y="1" width="450" height="22" fill="black"/>
<g clip-path="url(#clip1_11240_3723)">
<rect width="369" height="264" transform="translate(82 23)" fill="#1B2B32"/>
<g filter="url(#filter0_d_11240_3723)">
<path d="M106 46C106 43.7909 107.791 42 110 42H425C427.209 42 429 43.7909 429 46V168C429 170.209 427.209 172 425 172H110C107.791 172 106 170.209 106 168V46Z" fill="#22343C"/>
<path d="M106.5 46C106.5 44.067 108.067 42.5 110 42.5H425C426.933 42.5 428.5 44.067 428.5 46V168C428.5 169.933 426.933 171.5 425 171.5H110C108.067 171.5 106.5 169.933 106.5 168V46Z" stroke="black"/>
<path d="M124.044 65.964H129.294V67H122.952V57.382H124.044V65.964ZM134.092 66.23C134.946 66.23 135.926 65.852 136.374 65.362L137.018 66.048C136.388 66.734 135.114 67.168 134.106 67.168C132.174 67.168 130.438 65.586 130.438 63.36C130.438 61.204 132.062 59.594 134.008 59.594C136.192 59.594 137.438 61.246 137.438 63.78H131.516C131.67 65.194 132.664 66.23 134.092 66.23ZM134.05 60.532C132.762 60.532 131.726 61.442 131.53 62.842H136.402C136.262 61.54 135.492 60.532 134.05 60.532ZM142.096 59.594C144.07 59.594 145.036 60.84 145.036 62.59V67H143.986V65.866C143.468 66.72 142.39 67.168 141.438 67.168C139.912 67.168 138.792 66.286 138.792 64.858C138.792 63.416 140.08 62.45 141.634 62.45C142.418 62.45 143.244 62.618 143.986 62.856V62.59C143.986 61.61 143.594 60.49 142.026 60.49C141.298 60.49 140.57 60.812 139.912 61.148L139.492 60.294C140.528 59.776 141.396 59.594 142.096 59.594ZM141.62 66.244C142.572 66.244 143.706 65.754 143.986 64.732V63.626C143.328 63.444 142.586 63.332 141.802 63.332C140.724 63.332 139.814 63.948 139.814 64.816C139.814 65.712 140.598 66.244 141.62 66.244ZM148.329 61.176C148.763 60.21 149.799 59.594 151.129 59.594V60.532C149.491 60.532 148.329 61.54 148.329 62.954V67H147.279V59.762H148.329V61.176ZM156.026 59.594C157.622 59.594 158.742 60.756 158.742 62.394V67H157.692V62.534C157.692 61.358 156.95 60.532 155.886 60.532C154.668 60.532 153.646 61.386 153.646 62.394V67H152.596V59.762H153.646V60.924C154.066 60.154 155.004 59.594 156.026 59.594ZM168.371 59.594C169.967 59.594 171.087 60.756 171.087 62.394V67H170.037V62.534C170.037 61.358 169.295 60.532 168.231 60.532C167.013 60.532 165.991 61.386 165.991 62.394V67H164.941V57.214H165.991V60.924C166.411 60.154 167.349 59.594 168.371 59.594ZM176.572 67.168C174.542 67.168 172.82 65.432 172.82 63.374C172.82 61.316 174.542 59.594 176.572 59.594C178.602 59.594 180.31 61.316 180.31 63.374C180.31 65.432 178.602 67.168 176.572 67.168ZM176.572 66.23C178 66.23 179.204 64.928 179.204 63.374C179.204 61.834 178 60.532 176.572 60.532C175.13 60.532 173.926 61.834 173.926 63.374C173.926 64.928 175.13 66.23 176.572 66.23ZM183.619 67L181.197 59.762H182.317L184.123 65.6L186.097 59.762H187.007L188.981 65.6L190.787 59.762H191.907L189.471 67H188.477L186.559 61.218L184.613 67H183.619ZM200.672 65.936L201.19 66.706C200.812 67 200.336 67.168 199.846 67.168C198.81 67.168 198.082 66.398 198.082 65.32V60.7H196.948V59.762H198.082V57.774H199.132V59.762H200.91V60.7H199.132V65.32C199.132 65.852 199.496 66.23 199.916 66.23C200.238 66.23 200.518 66.104 200.672 65.936ZM206.035 67.168C204.005 67.168 202.283 65.432 202.283 63.374C202.283 61.316 204.005 59.594 206.035 59.594C208.065 59.594 209.773 61.316 209.773 63.374C209.773 65.432 208.065 67.168 206.035 67.168ZM206.035 66.23C207.463 66.23 208.667 64.928 208.667 63.374C208.667 61.834 207.463 60.532 206.035 60.532C204.593 60.532 203.389 61.834 203.389 63.374C203.389 64.928 204.593 66.23 206.035 66.23ZM220.664 59.762H221.714V67H220.664V65.838C220.244 66.608 219.306 67.168 218.284 67.168C216.688 67.168 215.568 66.006 215.568 64.368V59.762H216.618V64.228C216.618 65.404 217.36 66.23 218.424 66.23C219.642 66.23 220.664 65.376 220.664 64.368V59.762ZM226.415 67.168C225.407 67.168 224.287 66.79 223.419 66.09L223.965 65.32C224.791 65.922 225.617 66.23 226.415 66.23C227.367 66.23 228.011 65.782 228.011 65.096C228.011 64.312 227.171 64.06 226.191 63.78C224.441 63.276 223.769 62.758 223.769 61.722C223.769 60.406 224.861 59.594 226.303 59.594C227.199 59.594 228.123 59.902 228.893 60.406L228.389 61.218C227.661 60.756 226.947 60.532 226.303 60.532C225.491 60.532 224.819 60.896 224.819 61.596C224.819 62.226 225.351 62.422 226.695 62.856C227.857 63.22 229.061 63.612 229.061 64.984C229.061 66.314 227.913 67.168 226.415 67.168ZM234.06 66.23C234.914 66.23 235.894 65.852 236.342 65.362L236.986 66.048C236.356 66.734 235.082 67.168 234.074 67.168C232.142 67.168 230.406 65.586 230.406 63.36C230.406 61.204 232.03 59.594 233.976 59.594C236.16 59.594 237.406 61.246 237.406 63.78H231.484C231.638 65.194 232.632 66.23 234.06 66.23ZM234.018 60.532C232.73 60.532 231.694 61.442 231.498 62.842H236.37C236.23 61.54 235.46 60.532 234.018 60.532ZM246.363 65.936L246.881 66.706C246.503 67 246.027 67.168 245.537 67.168C244.501 67.168 243.773 66.398 243.773 65.32V60.7H242.639V59.762H243.773V57.774H244.823V59.762H246.601V60.7H244.823V65.32C244.823 65.852 245.187 66.23 245.607 66.23C245.929 66.23 246.209 66.104 246.363 65.936ZM251.811 59.594C253.407 59.594 254.527 60.756 254.527 62.394V67H253.477V62.534C253.477 61.358 252.735 60.532 251.671 60.532C250.453 60.532 249.431 61.386 249.431 62.394V67H248.381V57.214H249.431V60.924C249.851 60.154 250.789 59.594 251.811 59.594ZM257.17 58.446C256.778 58.446 256.47 58.124 256.47 57.746C256.47 57.382 256.778 57.06 257.17 57.06C257.548 57.06 257.856 57.382 257.856 57.746C257.856 58.124 257.548 58.446 257.17 58.446ZM256.638 67V59.762H257.688V67H256.638ZM262.358 67.168C261.35 67.168 260.23 66.79 259.362 66.09L259.908 65.32C260.734 65.922 261.56 66.23 262.358 66.23C263.31 66.23 263.954 65.782 263.954 65.096C263.954 64.312 263.114 64.06 262.134 63.78C260.384 63.276 259.712 62.758 259.712 61.722C259.712 60.406 260.804 59.594 262.246 59.594C263.142 59.594 264.066 59.902 264.836 60.406L264.332 61.218C263.604 60.756 262.89 60.532 262.246 60.532C261.434 60.532 260.762 60.896 260.762 61.596C260.762 62.226 261.294 62.422 262.638 62.856C263.8 63.22 265.004 63.612 265.004 64.984C265.004 66.314 263.856 67.168 262.358 67.168ZM274.582 59.594C276.486 59.594 277.914 61.162 277.914 63.374C277.914 65.6 276.486 67.168 274.582 67.168C273.42 67.168 272.496 66.594 271.95 65.642V69.408H270.9V59.762H271.95V61.12C272.496 60.168 273.42 59.594 274.582 59.594ZM274.386 66.23C275.8 66.23 276.808 65.04 276.808 63.374C276.808 61.708 275.8 60.532 274.386 60.532C272.958 60.532 271.95 61.708 271.95 63.374C271.95 65.04 272.958 66.23 274.386 66.23ZM280.878 61.176C281.312 60.21 282.348 59.594 283.678 59.594V60.532C282.04 60.532 280.878 61.54 280.878 62.954V67H279.828V59.762H280.878V61.176ZM288.258 67.168C286.228 67.168 284.506 65.432 284.506 63.374C284.506 61.316 286.228 59.594 288.258 59.594C290.288 59.594 291.996 61.316 291.996 63.374C291.996 65.432 290.288 67.168 288.258 67.168ZM288.258 66.23C289.686 66.23 290.89 64.928 290.89 63.374C290.89 61.834 289.686 60.532 288.258 60.532C286.816 60.532 285.612 61.834 285.612 63.374C285.612 64.928 286.816 66.23 288.258 66.23ZM299.386 57.214H300.436V67H299.386V65.642C298.84 66.594 297.916 67.168 296.754 67.168C294.85 67.168 293.422 65.6 293.422 63.374C293.422 61.162 294.85 59.594 296.754 59.594C297.916 59.594 298.84 60.168 299.386 61.12V57.214ZM296.95 66.23C298.378 66.23 299.386 65.04 299.386 63.374C299.386 61.708 298.378 60.532 296.95 60.532C295.536 60.532 294.528 61.708 294.528 63.374C294.528 65.04 295.536 66.23 296.95 66.23ZM307.754 59.762H308.804V67H307.754V65.838C307.334 66.608 306.396 67.168 305.374 67.168C303.778 67.168 302.658 66.006 302.658 64.368V59.762H303.708V64.228C303.708 65.404 304.45 66.23 305.514 66.23C306.732 66.23 307.754 65.376 307.754 64.368V59.762ZM314.303 67.168C312.273 67.168 310.551 65.432 310.551 63.374C310.551 61.316 312.273 59.594 314.303 59.594C315.283 59.594 316.193 60 316.879 60.658L316.151 61.372C315.675 60.854 315.017 60.532 314.303 60.532C312.861 60.532 311.657 61.834 311.657 63.374C311.657 64.928 312.861 66.23 314.303 66.23C315.031 66.23 315.703 65.894 316.193 65.348L316.921 66.062C316.235 66.748 315.311 67.168 314.303 67.168ZM321.709 65.936L322.227 66.706C321.849 67 321.373 67.168 320.883 67.168C319.847 67.168 319.119 66.398 319.119 65.32V60.7H317.985V59.762H319.119V57.774H320.169V59.762H321.947V60.7H320.169V65.32C320.169 65.852 320.533 66.23 320.953 66.23C321.275 66.23 321.555 66.104 321.709 65.936Z" fill="#ACB8BE"/>
<circle opacity="0.4" cx="136.5" cy="88.5" r="2.5" fill="#ACB8BE"/>
<rect opacity="0.4" x="147" y="87" width="166" height="3" rx="1.5" fill="#ACB8BE"/>
<circle opacity="0.4" cx="136.5" cy="103.5" r="2.5" fill="#ACB8BE"/>
<rect opacity="0.4" x="147" y="102" width="198" height="3" rx="1.5" fill="#ACB8BE"/>
<circle opacity="0.4" cx="136.5" cy="118.5" r="2.5" fill="#ACB8BE"/>
<rect opacity="0.4" x="147" y="117" width="141" height="3" rx="1.5" fill="#ACB8BE"/>
<rect x="106" y="138" width="323" height="1" fill="#67777E"/>
<rect opacity="0.6" width="34" height="16" rx="1.6" transform="matrix(-1 0 0 1 156 147)" fill="#2EC0FF"/>
<rect opacity="0.6" x="130" y="154" width="19" height="2" rx="1" fill="black"/>
<rect opacity="0.5" x="-0.5" y="0.5" width="33" height="15" rx="1.1" transform="matrix(-1 0 0 1 197 147)" stroke="#2EC0FF"/>
<rect opacity="0.6" x="172" y="154" width="19" height="2" rx="1" fill="#2EC0FF"/>
</g>
<rect opacity="0.3" x="106" y="201" width="243" height="3" rx="1.5" fill="#ACB8BE"/>
<rect opacity="0.3" x="106" y="218" width="243" height="3" rx="1.5" fill="#ACB8BE"/>
<rect opacity="0.3" x="106" y="235" width="243" height="3" rx="1.5" fill="#ACB8BE"/>
</g>
</g>
<rect x="0.5" y="0.5" width="451" height="287" stroke="#4F6169"/>
<defs>
<filter id="filter0_d_11240_3723" x="103" y="40" width="329" height="136" filterUnits="userSpaceOnUse" color-interpolation-filters="sRGB">
<feFlood flood-opacity="0" result="BackgroundImageFix"/>
<feColorMatrix in="SourceAlpha" type="matrix" values="0 0 0 0 0 0 0 0 0 0 0 0 0 0 0 0 0 0 127 0" result="hardAlpha"/>
<feOffset dy="1"/>
<feGaussianBlur stdDeviation="1.5"/>
<feColorMatrix type="matrix" values="0 0 0 0 0.105 0 0 0 0 0.168 0 0 0 0 0.195 0 0 0 0.2 0"/>
<feBlend mode="normal" in2="BackgroundImageFix" result="effect1_dropShadow_11240_3723"/>
<feBlend mode="normal" in="SourceGraphic" in2="effect1_dropShadow_11240_3723" result="shape"/>
</filter>
<clipPath id="clip0_11240_3723">
<rect width="452" height="288" fill="white"/>
</clipPath>
<clipPath id="clip1_11240_3723">
<rect width="369" height="264" fill="white" transform="translate(82 23)"/>
</clipPath>
</defs>
</svg>
