<svg width="452" height="288" viewBox="0 0 452 288" fill="none" xmlns="http://www.w3.org/2000/svg">
<g clip-path="url(#clip0_11114_869)">
<rect width="452" height="288" rx="4" fill="white"/>
<path d="M448 0.5H4C2.067 0.5 0.5 2.067 0.5 4V284C0.5 285.933 2.067 287.5 4 287.5H448C449.933 287.5 451.5 285.933 451.5 284V4C451.5 2.067 449.933 0.5 448 0.5Z" stroke="#ACB9BE"/>
<path d="M264 48H123C120.791 48 119 49.7909 119 52C119 54.2091 120.791 56 123 56H264C266.209 56 268 54.2091 268 52C268 49.7909 266.209 48 264 48Z" fill="#CBD4D8"/>
<path opacity="0.15" d="M321.95 40H113.05C108.052 40 104 45.3726 104 52C104 58.6274 108.052 64 113.05 64H321.95C326.948 64 331 58.6274 331 52C331 45.3726 326.948 40 321.95 40Z" fill="#D23292"/>
<path d="M352.433 91H120.567C119.701 91 119 91.8954 119 93C119 94.1046 119.701 95 120.567 95H352.433C353.299 95 354 94.1046 354 93C354 91.8954 353.299 91 352.433 91Z" fill="#CBD4D8"/>
<path d="M352.433 115H120.567C119.701 115 119 115.895 119 117C119 118.105 119.701 119 120.567 119H352.433C353.299 119 354 118.105 354 117C354 115.895 353.299 115 352.433 115Z" fill="#CBD4D8"/>
<path d="M308.727 139H120.273C119.57 139 119 139.895 119 141C119 142.105 119.57 143 120.273 143H308.727C309.43 143 310 142.105 310 141C310 139.895 309.43 139 308.727 139Z" fill="#CBD4D8"/>
<path d="M261.047 163H119.953C119.427 163 119 163.895 119 165C119 166.105 119.427 167 119.953 167H261.047C261.573 167 262 166.105 262 165C262 163.895 261.573 163 261.047 163Z" fill="#CBD4D8"/>
<path opacity="0.15" d="M321.95 103H113.05C108.052 103 104 108.373 104 115C104 121.627 108.052 127 113.05 127H321.95C326.948 127 331 121.627 331 115C331 108.373 326.948 103 321.95 103Z" fill="#D23292"/>
<path opacity="0.15" d="M129 247.468L129 50.5316C129 45.8197 123.627 42 117 42C110.373 42 105 45.8197 105 50.5316L105 247.468C105 252.18 110.373 256 117 256C123.627 256 129 252.18 129 247.468Z" fill="#D23292"/>
<path d="M116 127C122.627 127 128 121.627 128 115C128 108.373 122.627 103 116 103C109.373 103 104 108.373 104 115C104 121.627 109.373 127 116 127Z" fill="#D23292"/>
<path d="M115.912 119.156C114.339 119.156 113.156 118.519 112.428 117.648L113.416 116.582C114.027 117.284 114.885 117.713 115.847 117.713C116.926 117.713 117.576 117.18 117.576 116.4C117.576 115.607 116.926 115.191 115.652 115.191L114.651 115.204V113.8H115.652C116.705 113.813 117.394 113.384 117.394 112.604C117.394 111.876 116.705 111.369 115.743 111.369C114.846 111.369 114.17 111.798 113.559 112.474L112.597 111.486C113.312 110.589 114.352 109.913 115.873 109.913C117.784 109.913 119.045 110.927 119.045 112.344C119.045 113.423 118.304 114.125 117.355 114.411C118.304 114.632 119.24 115.321 119.24 116.53C119.24 118.064 117.914 119.156 115.912 119.156Z" fill="white"/>
<path d="M319 127C325.627 127 331 121.627 331 115C331 108.373 325.627 103 319 103C312.373 103 307 108.373 307 115C307 121.627 312.373 127 319 127Z" fill="#D23292"/>
<path d="M319.845 119V117.063H315.451L315.295 115.802L319.52 110.069H321.47V115.672H322.705V117.063H321.47V119H319.845ZM317.024 115.672H319.845V111.837L317.024 115.672Z" fill="white"/>
<path d="M116 64C122.627 64 128 58.6274 128 52C128 45.3726 122.627 40 116 40C109.373 40 104 45.3726 104 52C104 58.6274 109.373 64 116 64Z" fill="#D23292"/>
<path d="M115.83 56V48.941L114.296 49.916L113.646 48.772L116.155 47.069H117.455V56H115.83Z" fill="white"/>
<path d="M322 64C328.627 64 334 58.6274 334 52C334 45.3726 328.627 40 322 40C315.373 40 310 45.3726 310 52C310 58.6274 315.373 64 322 64Z" fill="#D23292"/>
<path d="M318.628 56V54.674L321.917 52.048C323.048 51.138 323.451 50.462 323.451 49.734C323.451 48.889 322.736 48.369 321.93 48.369C320.994 48.369 320.318 48.85 319.668 49.63L318.615 48.655C319.46 47.55 320.539 46.913 321.982 46.913C323.75 46.913 325.102 48.044 325.102 49.695C325.102 50.878 324.556 51.827 323.022 53.01L321.15 54.518H325.193V56H318.628Z" fill="white"/>
<path d="M223.649 258.5H179.5C178.672 258.5 178 257.828 178 257V239C178 238.172 178.672 237.5 179.5 237.5H223.649C224.478 237.5 225.149 238.172 225.149 239V257C225.149 257.828 224.478 258.5 223.649 258.5Z" stroke="#0079B8"/>
<path opacity="0.6" d="M213.094 246.262H191.219C190.611 246.262 190.119 246.755 190.119 247.362C190.119 247.97 190.611 248.462 191.219 248.462H213.094C213.701 248.462 214.194 247.97 214.194 247.362C214.194 246.755 213.701 246.262 213.094 246.262Z" fill="#0072A3"/>
<path d="M170.149 259H126C124.895 259 124 258.105 124 257V239C124 237.895 124.895 237 126 237H170.149C171.254 237 172.149 237.895 172.149 239V257C172.149 258.105 171.254 259 170.149 259Z" fill="#0079B8"/>
<path opacity="0.6" d="M158.539 246.262H136.664C136.056 246.262 135.564 246.755 135.564 247.362C135.564 247.97 136.056 248.462 136.664 248.462H158.539C159.146 248.462 159.639 247.97 159.639 247.362C159.639 246.755 159.146 246.262 158.539 246.262Z" fill="white"/>
<path d="M213 53H252" stroke="#D23292" stroke-width="2" stroke-linecap="round"/>
<path d="M242 59L252 53L242 47" stroke="#D23292" stroke-width="2" stroke-linecap="round" stroke-linejoin="round"/>
<path d="M213 115H252" stroke="#D23292" stroke-width="2" stroke-linecap="round"/>
<path d="M242 121L252 115L242 109" stroke="#D23292" stroke-width="2" stroke-linecap="round" stroke-linejoin="round"/>
<path d="M117 71L117 95" stroke="#D23292" stroke-width="2" stroke-linecap="round"/>
<path d="M111 85L117 95L123 85" stroke="#D23292" stroke-width="2" stroke-linecap="round" stroke-linejoin="round"/>
<path d="M117 151L117 192" stroke="#D23292" stroke-width="2" stroke-linecap="round"/>
<path d="M111 182L117 192L123 182" stroke="#D23292" stroke-width="2" stroke-linecap="round" stroke-linejoin="round"/>
<path d="M116 259C122.627 259 128 253.627 128 247C128 240.373 122.627 235 116 235C109.373 235 104 240.373 104 247C104 253.627 109.373 259 116 259Z" fill="#D23292"/>
<path d="M115.545 251.24C114 251.24 112.841 250.685 112 249.839L113.021 248.662C113.738 249.35 114.621 249.812 115.573 249.812C116.718 249.812 117.462 249.099 117.462 248.213C117.462 247.288 116.704 246.666 115.573 246.666C114.828 246.666 114.179 246.904 113.641 247.301L112.469 246.825L112.607 242H118.662V243.507H114.221L114.138 245.847C114.621 245.529 115.242 245.292 116.055 245.292C117.738 245.292 119.187 246.323 119.187 248.147C119.187 250.024 117.711 251.24 115.545 251.24Z" fill="white"/>
</g>
<rect x="0.5" y="0.5" width="451" height="287" rx="3.5" stroke="#ACB8BE"/>
<defs>
<clipPath id="clip0_11114_869">
<rect width="452" height="288" rx="4" fill="white"/>
</clipPath>
</defs>
</svg>
