<svg width="452" height="288" viewBox="0 0 452 288" fill="none" xmlns="http://www.w3.org/2000/svg">
<rect width="452" height="288" rx="4" fill="#CBD4D8"/>
<g filter="url(#filter0_d_9107_32312)">
<rect x="40" y="24" width="372" height="240" rx="4" fill="white"/>
</g>
<g opacity="0.7">
<rect x="0.5" y="-0.5" width="47.1493" height="21" rx="1.5" transform="matrix(1 0 0 -1 280 232.379)" stroke="#00608A"/>
</g>
<g opacity="0.7">
<rect width="48.1493" height="22" rx="2" transform="matrix(1 0 0 -1 333.85 233.379)" fill="#00608A"/>
</g>
<rect opacity="0.6" x="292.619" y="220.641" width="24.0746" height="2.2" rx="1.1" fill="#0079AD"/>
<rect opacity="0.6" x="345.414" y="220.641" width="24.0746" height="2.2" rx="1.1" fill="white"/>
<rect x="88" y="60" width="149" height="8" rx="4" fill="#CBD4D8"/>
<rect x="76" y="103" width="300" height="4" rx="2" fill="#CBD4D8"/>
<rect x="76" y="127" width="300" height="4" rx="2" fill="#CBD4D8"/>
<rect x="76" y="151" width="300" height="4" rx="2" fill="#CBD4D8"/>
<rect x="75" y="175" width="188" height="4" rx="2" fill="#CBD4D8"/>
<rect opacity="0.15" x="75" y="53" width="301" height="24" rx="12" fill="#D23292"/>
<rect opacity="0.15" x="72" y="218" width="342.406" height="24" rx="12" transform="rotate(-29.7871 72 218)" fill="#D23292"/>
<rect opacity="0.15" x="75" y="211" width="319" height="24" rx="12" fill="#D23292"/>
<path d="M266 64H305" stroke="#D23292" stroke-width="2" stroke-linecap="round"/>
<path d="M295 70L305 64L295 58" stroke="#D23292" stroke-width="2" stroke-linecap="round" stroke-linejoin="round"/>
<path d="M266.877 120.595L179.463 169.585" stroke="#D23292" stroke-width="2" stroke-linecap="round"/>
<path d="M184.978 159.309L179.463 169.584L191.125 169.615" stroke="#D23292" stroke-width="2" stroke-linecap="round" stroke-linejoin="round"/>
<path d="M224 223H263" stroke="#D23292" stroke-width="2" stroke-linecap="round"/>
<path d="M253 229L263 223L253 217" stroke="#D23292" stroke-width="2" stroke-linecap="round" stroke-linejoin="round"/>
<circle cx="87" cy="64" r="12" fill="#D23292"/>
<path d="M86.8294 68V60.941L85.2954 61.916L84.6454 60.772L87.1544 59.069H88.4544V68H86.8294Z" fill="white"/>
<circle cx="365" cy="64" r="12" fill="#D23292"/>
<path d="M361.628 68V66.674L364.917 64.048C366.048 63.138 366.451 62.462 366.451 61.734C366.451 60.889 365.736 60.369 364.93 60.369C363.994 60.369 363.318 60.85 362.668 61.63L361.615 60.655C362.46 59.55 363.539 58.913 364.982 58.913C366.75 58.913 368.102 60.044 368.102 61.695C368.102 62.878 367.556 63.827 366.022 65.01L364.15 66.518H368.193V68H361.628Z" fill="white"/>
<circle cx="87" cy="223" r="12" fill="#D23292"/>
<path d="M86.9125 227.156C85.3395 227.156 84.1565 226.519 83.4285 225.648L84.4165 224.582C85.0275 225.284 85.8855 225.713 86.8475 225.713C87.9265 225.713 88.5765 225.18 88.5765 224.4C88.5765 223.607 87.9265 223.191 86.6525 223.191L85.6515 223.204V221.8H86.6525C87.7055 221.813 88.3945 221.384 88.3945 220.604C88.3945 219.876 87.7055 219.369 86.7435 219.369C85.8465 219.369 85.1705 219.798 84.5595 220.474L83.5975 219.486C84.3125 218.589 85.3525 217.913 86.8735 217.913C88.7845 217.913 90.0455 218.927 90.0455 220.344C90.0455 221.423 89.3045 222.125 88.3555 222.411C89.3045 222.632 90.2405 223.321 90.2405 224.53C90.2405 226.064 88.9145 227.156 86.9125 227.156Z" fill="white"/>
<circle cx="382" cy="223" r="12" fill="#D23292"/>
<path d="M382.845 227V225.063H378.451L378.295 223.802L382.52 218.069H384.47V223.672H385.705V225.063H384.47V227H382.845ZM380.024 223.672H382.845V219.837L380.024 223.672Z" fill="white"/>
<defs>
<filter id="filter0_d_9107_32312" x="32" y="18" width="388" height="256" filterUnits="userSpaceOnUse" color-interpolation-filters="sRGB">
<feFlood flood-opacity="0" result="BackgroundImageFix"/>
<feColorMatrix in="SourceAlpha" type="matrix" values="0 0 0 0 0 0 0 0 0 0 0 0 0 0 0 0 0 0 127 0" result="hardAlpha"/>
<feOffset dy="2"/>
<feGaussianBlur stdDeviation="4"/>
<feColorMatrix type="matrix" values="0 0 0 0 0 0 0 0 0 0 0 0 0 0 0 0 0 0 0.2 0"/>
<feBlend mode="normal" in2="BackgroundImageFix" result="effect1_dropShadow_9107_32312"/>
<feBlend mode="normal" in="SourceGraphic" in2="effect1_dropShadow_9107_32312" result="shape"/>
</filter>
</defs>
</svg>
