<?xml version="1.0" encoding="UTF-8"?><svg id="illustrations" xmlns="http://www.w3.org/2000/svg" viewBox="0 0 928 192"><defs><style>.cls-1{stroke:#314351;}.cls-1,.cls-2{stroke-linecap:round;}.cls-1,.cls-2,.cls-3{fill:none;stroke-miterlimit:10;stroke-width:2px;}.cls-2,.cls-3{stroke:#fff;}.cls-4{fill:#195f88;}.cls-4,.cls-5,.cls-6,.cls-7,.cls-8,.cls-9,.cls-10,.cls-11{stroke-width:0px;}.cls-5{fill:#1983b8;}.cls-6{fill:#e25f1e;}.cls-7{fill:#ad4800;}.cls-8{fill:#009adb;}.cls-9{fill:#ff8f3d;}.cls-10{fill:#66c2e9;}.cls-11{fill:#fff;}</style></defs><polygon class="cls-8" points="414.52 96.14 496.54 48.78 496.54 48.66 414.26 1.15 331.98 48.66 331.98 143.67 414.26 191.18 414.52 191.03 414.52 96.14"/><polygon class="cls-4" points="496.83 143.44 496.83 48.55 457.02 71.53 414.8 95.91 414.8 190.8 496.83 143.44"/><path class="cls-10" d="m421.79,171.18v5.61c0,.97,1.05,1.57,1.89,1.09l20.63-11.91c.8-.46,1.29-1.32,1.29-2.24v-5.61c0-.97-1.05-1.57-1.89-1.09l-20.63,11.91c-.8.46-1.29,1.32-1.29,2.24Z"/><polygon class="cls-10" points="489.38 110.96 489.38 76.41 474.89 84.78 459.51 93.65 459.51 128.2 489.38 110.96"/><polygon class="cls-10" points="477.92 134.97 489.38 128.35 489.38 114.97 474.89 123.34 459.51 132.22 459.51 145.6 477.92 134.97"/><line class="cls-2" x1="422.03" y1="101.75" x2="488.82" y2="63.47"/><path class="cls-2" d="m422.31,116.28s16.31-9.35,32.81-18.81"/><path class="cls-2" d="m422.31,122.71s14.89-8.54,30.61-17.55"/><line class="cls-1" x1="425.68" y1="172.34" x2="441.9" y2="162.89"/><polygon class="cls-9" points="180.16 107.6 180.16 107.68 280.41 165.56 380.65 107.68 380.65 107.6 280.41 49.72 180.16 107.6"/><polygon class="cls-7" points="264.49 86.04 264.49 86.06 297.34 105.03 330.2 86.06 330.2 86.04 297.34 67.07 264.49 86.04"/><path class="cls-11" d="m300.94,131.71l-28.56,16.49c-1.11.64-1.11,2.25,0,2.89l7.44,4.3c1.13.65,2.51.65,3.64,0l28.54-16.5c1.11-.64,1.11-2.25,0-2.89l-7.42-4.29c-1.12-.65-2.51-.65-3.63,0Z"/><polygon class="cls-6" points="708.27 51.6 708.27 35.78 694.58 27.88 680.88 35.78 680.88 51.6 694.58 59.5 708.27 51.6"/><polygon class="cls-8" points="811.53 125.95 811.53 103.69 792.26 92.56 772.98 103.69 772.98 125.95 792.26 137.08 811.53 125.95"/><polygon class="cls-4" points="377.98 22.16 359.24 11.33 359.24 32.96 377.98 43.79 396.73 32.96 396.73 11.33 377.98 22.16"/><polygon class="cls-8" points="359.24 11.37 359.24 11.39 377.98 22.21 396.73 11.39 396.73 11.37 377.98 .55 359.24 11.37"/><path class="cls-11" d="m774.23,119.03c-.15,0-.3-.04-.44-.12l-12.9-7.45c-.27-.16-.44-.45-.44-.76v-14.9c0-.31.17-.6.44-.76l12.9-7.45c.27-.16.61-.16.88,0l12.9,7.45c.27.16.44.45.44.76v14.9c0,.31-.17.6-.44.76l-12.9,7.45c-.14.08-.29.12-.44.12Zm-12.02-8.83l12.02,6.94,12.02-6.94v-13.88l-12.02-6.94-12.02,6.94v13.88Zm24.93.51h0,0Z"/><path class="cls-6" d="m52.73,59.56c0-2.18-1.77-3.95-3.95-3.95-.3,0-.59.03-.88.1.05-.4.08-.81.08-1.23,0-4.99-4.04-9.03-9.03-9.03-.56,0-1.12.05-1.65.15-1.88-5.05-6.74-8.64-12.45-8.64-6.94,0-12.64,5.33-13.23,12.12-.92-.4-1.94-.63-3.02-.63-4.16,0-7.53,3.37-7.53,7.53s3.37,7.53,7.53,7.53c.04,0,.08,0,.11,0h0s40.09,0,40.09,0h0c2.16-.02,3.91-1.78,3.91-3.95Z"/><polygon class="cls-5" points="150.99 127.82 150.99 78.02 107.86 53.11 64.73 78.02 64.73 127.82 107.86 152.72 150.99 127.82"/><polygon class="cls-3" points="587.29 89.23 587.29 50.31 553.58 30.85 519.87 50.31 519.87 89.23 553.58 108.69 587.29 89.23"/><polygon class="cls-3" points="73.91 140.76 73.91 122.45 58.05 113.29 42.19 122.45 42.19 140.76 58.05 149.92 73.91 140.76"/><polygon class="cls-6" points="909.05 126 927.41 115.4 927.41 115.37 908.99 104.74 890.56 115.37 890.56 136.65 908.99 147.28 909.05 147.25 909.05 126"/><polygon class="cls-7" points="927.47 136.6 927.47 115.35 918.56 120.49 909.11 125.95 909.11 147.2 927.47 136.6"/><path class="cls-9" d="m574.49,71.3v-3.05l-5.28-1.68c-.43-2.01-1.23-3.88-2.33-5.54l2.57-4.96-2.16-2.16-5,2.59c-1.64-1.07-3.49-1.85-5.47-2.26l-1.71-5.38h-3.05l-1.71,5.38c-1.98.41-3.83,1.19-5.47,2.26l-5-2.59-2.16,2.16,2.57,4.96c-1.1,1.65-1.91,3.53-2.33,5.54l-5.28,1.68v3.05l5.23,1.66c.4,2.06,1.2,3.99,2.32,5.68l-2.5,4.83,2.16,2.16,4.8-2.48c1.71,1.15,3.66,1.98,5.75,2.4l1.63,5.13h3.05l1.63-5.13c2.09-.42,4.04-1.25,5.75-2.4l4.8,2.48,2.16-2.16-2.5-4.83c1.11-1.7,1.91-3.62,2.32-5.68l5.23-1.66Zm-20.8,2.55c-2.32,0-4.2-1.88-4.2-4.2s1.88-4.2,4.2-4.2,4.2,1.88,4.2,4.2-1.88,4.2-4.2,4.2Z"/><path class="cls-11" d="m117.45,83.77c-.24,0-.48-.13-.61-.35l-8.97-15.54-8.97,15.54c-.2.34-.63.45-.97.26-.34-.2-.45-.63-.26-.97l9.59-16.6c.25-.44.97-.44,1.23,0l9.59,16.6c.2.34.08.77-.26.97-.11.06-.23.09-.35.09Z"/><path class="cls-10" d="m117.03,133.7v-.29c0,3.68-2.96,6.66-6.61,6.66h-5.12c-3.65,0-6.61-2.98-6.61-6.66v.29"/><path class="cls-10" d="m104.66,83.06c0,1.76-1.43,3.18-3.18,3.18s-3.18-1.42-3.18-3.18h-.02v39.13h6.39v-39.13h0Z"/><path class="cls-10" d="m104.67,122.9h-6.39c-.39,0-.71-.32-.71-.71v-39.13c0-.39.32-.71.71-.71s.73.32.73.71c0,1.36,1.11,2.47,2.48,2.47s2.47-1.11,2.48-2.47c0-.39.32-.71.71-.71h0c.39,0,.71.32.71.71v39.13c0,.39-.32.71-.71.71Zm-5.69-1.42h4.98v-35.44c-.67.56-1.54.9-2.48.9s-1.82-.34-2.5-.91v35.45Z"/><path class="cls-10" d="m111.04,83.06c0,1.76-1.42,3.18-3.18,3.18s-3.18-1.42-3.18-3.18h-.01v39.13h6.39v-39.13h-.02Z"/><path class="cls-10" d="m111.06,122.9h-6.39c-.39,0-.71-.32-.71-.71v-39.13c0-.39.32-.71.71-.71s.72.32.72.71c0,1.36,1.11,2.47,2.47,2.47s2.47-1.11,2.47-2.47c0-.39.32-.71.71-.71h.02c.39,0,.71.32.71.71v39.13c0,.39-.32.71-.71.71Zm-5.69-1.42h4.98v-35.45c-.68.57-1.54.91-2.49.91s-1.81-.34-2.49-.9v35.44Z"/><path class="cls-10" d="m117.44,83.06s0,.05,0,.07c0,1.76-1.43,3.19-3.19,3.19s-3.19-1.43-3.19-3.19c0-.02,0-.05,0-.07h0v39.13h6.39v-39.13h0Z"/><path class="cls-10" d="m117.44,122.9h-6.39c-.39,0-.71-.32-.71-.71v-39.13c0-.39.32-.71.71-.71.19,0,.38.08.51.21.13.14.21.32.21.51,0,0,0,.07,0,.08,0,1.35,1.12,2.47,2.49,2.47s2.49-1.11,2.49-2.49c0-.39.31-.78.7-.78h0c.39,0,.71.32.71.71v39.13c0,.39-.32.71-.71.71Zm-5.69-1.42h4.98v-35.35c-.68.56-1.54.9-2.49.9s-1.81-.34-2.49-.9v35.35Zm5.68-38.42h0,0Z"/><path class="cls-11" d="m111.39,73.37h-7.07c-.39,0-.71-.32-.71-.71s.32-.71.71-.71h7.07c.39,0,.71.32.71.71s-.32.71-.71.71Z"/><path class="cls-11" d="m117.44,134.25h-19.16c-.39,0-.71-.32-.71-.71v-11.35c0-.39.32-.71.71-.71h19.16c.39,0,.71.32.71.71v11.35c0,.39-.32.71-.71.71Zm-18.45-1.42h17.75v-9.93h-17.75v9.93Z"/><path class="cls-11" d="m103.86,130.92h-2.55c-.39,0-.71-.32-.71-.71s.32-.71.71-.71h2.55c.39,0,.71.32.71.71s-.32.71-.71.71Z"/><path class="cls-11" d="m109.23,130.92h-2.55c-.39,0-.71-.32-.71-.71s.32-.71.71-.71h2.55c.39,0,.71.32.71.71s-.32.71-.71.71Z"/><path class="cls-11" d="m114.6,130.92h-2.55c-.39,0-.71-.32-.71-.71s.32-.71.71-.71h2.55c.39,0,.71.32.71.71s-.32.71-.71.71Z"/><path class="cls-11" d="m104.66,122.94c-.39,0-.71-.32-.71-.71v-39.17c0-.39.32-.71.71-.71s.71.32.71.71v39.17c0,.39-.32.71-.71.71Z"/><path class="cls-11" d="m111.04,122.94c-.39,0-.71-.32-.71-.71v-39.17c0-.39.32-.71.71-.71s.71.32.71.71v39.17c0,.39-.32.71-.71.71Z"/><line class="cls-2" x1="198.6" y1="106.87" x2="282.59" y2="58.59"/><path class="cls-2" d="m214.24,115.71l44.14-25.37"/><path class="cls-2" d="m222.06,119.79l42.93-24.68"/><path class="cls-1" d="m282.02,149.38l20.74-12.35"/><polygon class="cls-7" points="380.66 192.71 380.66 107.39 280.41 165.27 180.16 107.39 180.16 192.71 380.66 192.71"/><polygon class="cls-6" points="180.36 51.36 163.14 41.42 163.14 61.29 180.36 71.23 197.58 61.29 197.58 41.42 180.36 51.36"/><polygon class="cls-9" points="163.14 41.46 163.14 41.47 180.36 51.41 197.58 41.47 197.58 41.46 180.36 31.52 163.14 41.46"/><path class="cls-5" d="m639.74,92.21c0-2.86-2.32-5.18-5.18-5.18-.4,0-.78.05-1.15.13.07-.53.11-1.06.11-1.61,0-6.54-5.3-11.84-11.84-11.84-.74,0-1.46.07-2.17.2-2.47-6.62-8.84-11.34-16.32-11.34-9.11,0-16.58,6.99-17.35,15.9-1.21-.53-2.55-.83-3.96-.83-5.46,0-9.88,4.42-9.88,9.88s4.42,9.88,9.88,9.88c.05,0,.1,0,.15,0h0s52.58,0,52.58,0h0c2.84-.03,5.13-2.34,5.13-5.18Z"/></svg>