<svg width="362" height="199" viewBox="0 0 362 199" fill="none" xmlns="http://www.w3.org/2000/svg">
<rect x="0.5" y="0.5" width="361" height="29" fill="white" stroke="#CBD4D8"/>
<rect x="0.5" y="29.5" width="361" height="29" fill="white" stroke="#CBD4D8"/>
<rect x="0.5" y="58.5" width="361" height="29" fill="#EBF9FF"/>
<rect x="0.5" y="58.5" width="361" height="33" fill="#EBF9FF" stroke="#CBD4D8"/>
<rect opacity="0.5" x="1" y="59" width="3" height="33" fill="#0071B2"/>
<rect x="0.5" y="58.5" width="361" height="29" stroke="#CBD4D8"/>
<rect x="0.5" y="87.5" width="361" height="111" fill="white" stroke="#CBD4D8"/>
<path d="M50.6959 164V156.443H53.3469C55.8439 156.443 57.6039 158.005 57.6039 160.216C57.6039 162.427 55.8439 164 53.3469 164H50.6959ZM52.0599 162.757H53.4899C55.0849 162.757 56.2069 161.701 56.2069 160.216C56.2069 158.731 55.0849 157.686 53.4899 157.686H52.0599V162.757ZM63.6687 164.132C61.5237 164.132 59.7087 162.339 59.7087 160.216C59.7087 158.093 61.5237 156.311 63.6687 156.311C65.8247 156.311 67.6397 158.093 67.6397 160.216C67.6397 162.339 65.8247 164.132 63.6687 164.132ZM63.6687 162.878C65.0657 162.878 66.2317 161.668 66.2317 160.216C66.2317 158.775 65.0657 157.565 63.6687 157.565C62.2827 157.565 61.1057 158.775 61.1057 160.216C61.1057 161.668 62.2827 162.878 63.6687 162.878ZM70.2379 164V156.443H71.6019L75.5949 161.756V156.443H76.9589V164H75.5949L71.6019 158.687V164H70.2379ZM85.7335 157.697H81.4215V159.523H85.3155V160.777H81.4215V162.746H85.7335V164H80.0465V156.443H85.7335V157.697Z" fill="#0079AD"/>
<path d="M22 149.5H115C116.933 149.5 118.5 151.067 118.5 153V169C118.5 170.933 116.933 172.5 115 172.5H22C20.067 172.5 18.5 170.933 18.5 169V153C18.5 151.067 20.067 149.5 22 149.5Z" stroke="#0079AD"/>
<rect x="18" y="102" width="31" height="2" rx="1" fill="#CBD4D8"/>
<line x1="71" y1="108.5" x2="146" y2="108.5" stroke="#67777E"/>
<rect x="72" y="102" width="37" height="2" rx="1" fill="#CBD4D8"/>
<rect x="18" y="123" width="31" height="2" rx="1" fill="#CBD4D8"/>
<line x1="71" y1="129.5" x2="146" y2="129.5" stroke="#67777E"/>
<rect x="72" y="123" width="37" height="2" rx="1" fill="#CBD4D8"/>
</svg>
