<svg width="362" height="199" viewBox="0 0 362 199" fill="none" xmlns="http://www.w3.org/2000/svg">
<rect x="0.5" y="0.5" width="361" height="29" fill="white" stroke="#CBD4D8"/>
<rect x="0.5" y="29.5" width="361" height="29" fill="white" stroke="#CBD4D8"/>
<rect x="0.5" y="58.5" width="361" height="33" fill="#EBF9FF" stroke="#CBD4D8"/>
<rect opacity="0.5" x="1" y="59" width="3" height="33" fill="#0079AD"/>
<rect x="0.5" y="87.5" width="361" height="111" fill="white" stroke="#CBD4D8"/>
<path d="M47.3171 164.132C45.1721 164.132 43.3571 162.339 43.3571 160.216C43.3571 158.093 45.1721 156.311 47.3171 156.311C48.4281 156.311 49.4511 156.784 50.1771 157.532L49.1981 158.445C48.7251 157.906 48.0541 157.565 47.3171 157.565C45.9311 157.565 44.7541 158.775 44.7541 160.216C44.7541 161.668 45.9311 162.878 47.3171 162.878C48.0541 162.878 48.7251 162.537 49.2091 161.998L50.1771 162.9C49.4511 163.659 48.4281 164.132 47.3171 164.132ZM58.7132 158.951C58.7132 160.172 57.8772 161.096 56.6672 161.371L58.5152 164H56.9532L55.1712 161.459H53.9612V164H52.5972V156.443H55.8862C57.4922 156.443 58.7132 157.477 58.7132 158.951ZM53.9612 157.708V160.194H55.7212C56.6562 160.194 57.3052 159.721 57.3052 158.951C57.3052 158.181 56.6562 157.708 55.7212 157.708H53.9612ZM66.9864 157.697H62.6744V159.523H66.5684V160.777H62.6744V162.746H66.9864V164H61.2994V156.443H66.9864V157.697ZM75.2021 164L74.6081 162.57H71.0001L70.4061 164H68.8771L72.0341 156.443H73.5631L76.7201 164H75.2021ZM71.4731 161.448H74.1351L72.8041 158.269L71.4731 161.448ZM80.7307 164V157.697H78.3107V156.443H84.5147V157.697H82.1057V164H80.7307ZM92.5772 157.697H88.2652V159.523H92.1592V160.777H88.2652V162.746H92.5772V164H86.8902V156.443H92.5772V157.697Z" fill="#0079AD"/>
<path d="M22 149.5H115C116.933 149.5 118.5 151.067 118.5 153V169C118.5 170.933 116.933 172.5 115 172.5H22C20.067 172.5 18.5 170.933 18.5 169V153C18.5 151.067 20.067 149.5 22 149.5Z" stroke="#0079AD"/>
<rect x="18" y="102" width="31" height="2" rx="1" fill="#CBD4D8"/>
<line x1="71" y1="108.5" x2="146" y2="108.5" stroke="#67777E"/>
<rect x="72.5" y="102.5" width="36" height="1" fill="white" stroke="#CBD4D8"/>
<rect x="18" y="123" width="31" height="2" rx="1" fill="#CBD4D8"/>
<line x1="71" y1="129.5" x2="146" y2="129.5" stroke="#67777E"/>
<rect x="72.5" y="123.5" width="36" height="1" fill="white" stroke="#CBD4D8"/>
</svg>
