<svg width="294" height="437" viewBox="0 0 294 437" fill="none" xmlns="http://www.w3.org/2000/svg">
<mask id="path-1-inside-1_20_23372" fill="white">
<path d="M5 4H212V28H5V4Z"/>
</mask>
<path d="M212 27H5V29H212V27Z" fill="#6A7A81" mask="url(#path-1-inside-1_20_23372)"/>
<path d="M17.498 20.156C16.7787 20.156 16.1373 19.961 15.574 19.571C15.0107 19.1723 14.5687 18.622 14.248 17.92C13.936 17.218 13.78 16.4207 13.78 15.528C13.78 14.6353 13.936 13.8423 14.248 13.149C14.5687 12.447 15.0107 11.901 15.574 11.511C16.1373 11.1123 16.7787 10.913 17.498 10.913C18.2087 10.913 18.8457 11.1123 19.409 11.511C19.9723 11.901 20.41 12.447 20.722 13.149C21.0427 13.8423 21.203 14.6353 21.203 15.528C21.203 16.4207 21.0427 17.218 20.722 17.92C20.41 18.622 19.9723 19.1723 19.409 19.571C18.8543 19.961 18.2173 20.156 17.498 20.156ZM17.498 19.22C18.018 19.22 18.4817 19.064 18.889 18.752C19.2963 18.4313 19.6127 17.9937 19.838 17.439C20.0633 16.8757 20.176 16.2387 20.176 15.528C20.176 14.8173 20.0633 14.1847 19.838 13.63C19.6127 13.0667 19.2963 12.629 18.889 12.317C18.4817 12.005 18.018 11.849 17.498 11.849C16.978 11.849 16.5143 12.005 16.107 12.317C15.6997 12.629 15.379 13.0667 15.145 13.63C14.9197 14.1847 14.807 14.8173 14.807 15.528C14.807 16.2387 14.9197 16.8757 15.145 17.439C15.379 17.9937 15.6997 18.4313 16.107 18.752C16.5143 19.064 16.978 19.22 17.498 19.22ZM22.3303 19.155L25.5933 16.373C26.2173 15.8357 26.6679 15.346 26.9453 14.904C27.2313 14.4533 27.3743 14.0027 27.3743 13.552C27.3743 13.2053 27.2876 12.902 27.1143 12.642C26.9409 12.3733 26.7113 12.1697 26.4253 12.031C26.1393 11.8923 25.8359 11.823 25.5153 11.823C25.0213 11.823 24.5793 11.9443 24.1893 12.187C23.8079 12.4297 23.4526 12.772 23.1233 13.214L22.4083 12.629C23.2143 11.485 24.2629 10.913 25.5543 10.913C26.0743 10.913 26.5509 11.0213 26.9843 11.238C27.4176 11.4547 27.7599 11.7623 28.0113 12.161C28.2713 12.5597 28.4013 13.019 28.4013 13.539C28.4013 14.137 28.2366 14.7047 27.9073 15.242C27.5866 15.7707 27.0493 16.36 26.2953 17.01L23.9553 19.038H28.4923V20H22.3303V19.155ZM33.7019 10.341H34.8069L30.2439 20.962H29.1389L33.7019 10.341ZM39.199 20.156C38.4796 20.156 37.8383 19.961 37.275 19.571C36.7116 19.1723 36.2696 18.622 35.949 17.92C35.637 17.218 35.481 16.4207 35.481 15.528C35.481 14.6353 35.637 13.8423 35.949 13.149C36.2696 12.447 36.7116 11.901 37.275 11.511C37.8383 11.1123 38.4796 10.913 39.199 10.913C39.9096 10.913 40.5466 11.1123 41.11 11.511C41.6733 11.901 42.111 12.447 42.423 13.149C42.7436 13.8423 42.904 14.6353 42.904 15.528C42.904 16.4207 42.7436 17.218 42.423 17.92C42.111 18.622 41.6733 19.1723 41.11 19.571C40.5553 19.961 39.9183 20.156 39.199 20.156ZM39.199 19.22C39.719 19.22 40.1826 19.064 40.59 18.752C40.9973 18.4313 41.3136 17.9937 41.539 17.439C41.7643 16.8757 41.877 16.2387 41.877 15.528C41.877 14.8173 41.7643 14.1847 41.539 13.63C41.3136 13.0667 40.9973 12.629 40.59 12.317C40.1826 12.005 39.719 11.849 39.199 11.849C38.679 11.849 38.2153 12.005 37.808 12.317C37.4006 12.629 37.08 13.0667 36.846 13.63C36.6206 14.1847 36.508 14.8173 36.508 15.528C36.508 16.2387 36.6206 16.8757 36.846 17.439C37.08 17.9937 37.4006 18.4313 37.808 18.752C38.2153 19.064 38.679 19.22 39.199 19.22ZM47.6193 20.156C47.0039 20.156 46.4493 20.052 45.9553 19.844C45.4613 19.636 45.0713 19.3457 44.7853 18.973C44.4993 18.5917 44.3563 18.154 44.3563 17.66C44.3563 17.1227 44.5383 16.6547 44.9023 16.256C45.2749 15.8573 45.7516 15.567 46.3323 15.385C45.7949 15.177 45.3703 14.8997 45.0583 14.553C44.7463 14.1977 44.5903 13.773 44.5903 13.279C44.5903 12.8023 44.7289 12.3863 45.0063 12.031C45.2923 11.667 45.6649 11.3897 46.1243 11.199C46.5923 11.0083 47.0906 10.913 47.6193 10.913C48.1566 10.913 48.6549 11.0127 49.1143 11.212C49.5823 11.4027 49.9549 11.68 50.2323 12.044C50.5183 12.3993 50.6613 12.8153 50.6613 13.292C50.6613 13.8033 50.4966 14.2323 50.1673 14.579C49.8466 14.9257 49.4306 15.1943 48.9193 15.385C49.4913 15.5757 49.9593 15.8703 50.3233 16.269C50.6959 16.6677 50.8823 17.1313 50.8823 17.66C50.8823 18.154 50.7393 18.5917 50.4533 18.973C50.1673 19.3457 49.7729 19.636 49.2703 19.844C48.7763 20.052 48.2259 20.156 47.6193 20.156ZM47.6193 14.982C47.9313 14.9647 48.2433 14.891 48.5553 14.761C48.8673 14.631 49.1229 14.449 49.3223 14.215C49.5303 13.981 49.6343 13.7037 49.6343 13.383C49.6343 13.0883 49.5433 12.824 49.3613 12.59C49.1879 12.356 48.9453 12.174 48.6333 12.044C48.3299 11.9053 47.9919 11.836 47.6193 11.836C47.0559 11.836 46.5793 11.9833 46.1893 12.278C45.8079 12.5727 45.6173 12.941 45.6173 13.383C45.6173 13.7123 45.7213 13.994 45.9293 14.228C46.1373 14.462 46.3929 14.644 46.6963 14.774C47.0083 14.8953 47.3159 14.9647 47.6193 14.982ZM47.6193 19.233C48.0266 19.233 48.3993 19.1637 48.7373 19.025C49.0839 18.8863 49.3569 18.6957 49.5563 18.453C49.7556 18.2017 49.8553 17.9157 49.8553 17.595C49.8553 17.257 49.7383 16.958 49.5043 16.698C49.2703 16.438 48.9799 16.2387 48.6333 16.1C48.2866 15.9527 47.9486 15.8747 47.6193 15.866C47.2899 15.8747 46.9519 15.9527 46.6053 16.1C46.2586 16.2387 45.9683 16.438 45.7343 16.698C45.5003 16.958 45.3833 17.257 45.3833 17.595C45.3833 17.9157 45.4829 18.2017 45.6823 18.453C45.8816 18.6957 46.1503 18.8863 46.4883 19.025C46.8349 19.1637 47.2119 19.233 47.6193 19.233ZM56.1265 10.341H57.2315L52.6685 20.962H51.5635L56.1265 10.341ZM57.5676 19.155L60.8306 16.373C61.4546 15.8357 61.9053 15.346 62.1826 14.904C62.4686 14.4533 62.6116 14.0027 62.6116 13.552C62.6116 13.2053 62.5249 12.902 62.3516 12.642C62.1783 12.3733 61.9486 12.1697 61.6626 12.031C61.3766 11.8923 61.0733 11.823 60.7526 11.823C60.2586 11.823 59.8166 11.9443 59.4266 12.187C59.0453 12.4297 58.6899 12.772 58.3606 13.214L57.6456 12.629C58.4516 11.485 59.5003 10.913 60.7916 10.913C61.3116 10.913 61.7883 11.0213 62.2216 11.238C62.6549 11.4547 62.9973 11.7623 63.2486 12.161C63.5086 12.5597 63.6386 13.019 63.6386 13.539C63.6386 14.137 63.4739 14.7047 63.1446 15.242C62.8239 15.7707 62.2866 16.36 61.5326 17.01L59.1926 19.038H63.7296V20H57.5676V19.155ZM68.8742 20.156C68.1548 20.156 67.5135 19.961 66.9502 19.571C66.3868 19.1723 65.9448 18.622 65.6242 17.92C65.3122 17.218 65.1562 16.4207 65.1562 15.528C65.1562 14.6353 65.3122 13.8423 65.6242 13.149C65.9448 12.447 66.3868 11.901 66.9502 11.511C67.5135 11.1123 68.1548 10.913 68.8742 10.913C69.5848 10.913 70.2218 11.1123 70.7852 11.511C71.3485 11.901 71.7862 12.447 72.0982 13.149C72.4188 13.8423 72.5792 14.6353 72.5792 15.528C72.5792 16.4207 72.4188 17.218 72.0982 17.92C71.7862 18.622 71.3485 19.1723 70.7852 19.571C70.2305 19.961 69.5935 20.156 68.8742 20.156ZM68.8742 19.22C69.3942 19.22 69.8578 19.064 70.2652 18.752C70.6725 18.4313 70.9888 17.9937 71.2142 17.439C71.4395 16.8757 71.5522 16.2387 71.5522 15.528C71.5522 14.8173 71.4395 14.1847 71.2142 13.63C70.9888 13.0667 70.6725 12.629 70.2652 12.317C69.8578 12.005 69.3942 11.849 68.8742 11.849C68.3542 11.849 67.8905 12.005 67.4832 12.317C67.0758 12.629 66.7552 13.0667 66.5212 13.63C66.2958 14.1847 66.1832 14.8173 66.1832 15.528C66.1832 16.2387 66.2958 16.8757 66.5212 17.439C66.7552 17.9937 67.0758 18.4313 67.4832 18.752C67.8905 19.064 68.3542 19.22 68.8742 19.22ZM73.7065 19.155L76.9695 16.373C77.5935 15.8357 78.0441 15.346 78.3215 14.904C78.6075 14.4533 78.7505 14.0027 78.7505 13.552C78.7505 13.2053 78.6638 12.902 78.4905 12.642C78.3171 12.3733 78.0875 12.1697 77.8015 12.031C77.5155 11.8923 77.2121 11.823 76.8915 11.823C76.3975 11.823 75.9555 11.9443 75.5655 12.187C75.1841 12.4297 74.8288 12.772 74.4995 13.214L73.7845 12.629C74.5905 11.485 75.6391 10.913 76.9305 10.913C77.4505 10.913 77.9271 11.0213 78.3605 11.238C78.7938 11.4547 79.1361 11.7623 79.3875 12.161C79.6475 12.5597 79.7775 13.019 79.7775 13.539C79.7775 14.137 79.6128 14.7047 79.2835 15.242C78.9628 15.7707 78.4255 16.36 77.6715 17.01L75.3315 19.038H79.8685V20H73.7065V19.155ZM84.155 20.156C83.453 20.156 82.8204 20.0173 82.257 19.74C81.7024 19.454 81.2517 19.0813 80.905 18.622L81.607 17.959C81.9104 18.3577 82.2787 18.6697 82.712 18.895C83.1454 19.1203 83.6264 19.233 84.155 19.233C84.779 19.233 85.2817 19.077 85.663 18.765C86.0444 18.453 86.235 18.0413 86.235 17.53C86.235 17.01 86.0314 16.6157 85.624 16.347C85.2167 16.0783 84.6534 15.944 83.934 15.944H82.985V15.008L83.947 15.021C84.5624 15.0297 85.065 14.8953 85.455 14.618C85.845 14.332 86.04 13.942 86.04 13.448C86.04 12.98 85.8494 12.5943 85.468 12.291C85.0954 11.9877 84.6274 11.836 84.064 11.836C83.596 11.836 83.1757 11.9443 82.803 12.161C82.4304 12.3777 82.075 12.6897 81.737 13.097L81.061 12.486C81.8497 11.4373 82.868 10.913 84.116 10.913C84.6794 10.913 85.182 11.017 85.624 11.225C86.0747 11.4243 86.4257 11.7103 86.677 12.083C86.937 12.447 87.067 12.863 87.067 13.331C87.067 13.8683 86.9024 14.3147 86.573 14.67C86.2524 15.0253 85.8407 15.2767 85.338 15.424C85.8667 15.5453 86.3174 15.788 86.69 16.152C87.0714 16.516 87.262 16.9927 87.262 17.582C87.262 18.076 87.132 18.518 86.872 18.908C86.612 19.298 86.2437 19.6057 85.767 19.831C85.299 20.0477 84.7617 20.156 84.155 20.156ZM92.5795 15.996H95.9465V16.945H92.5795V15.996ZM104.938 20.156C104.219 20.156 103.578 19.961 103.014 19.571C102.451 19.1723 102.009 18.622 101.688 17.92C101.376 17.218 101.22 16.4207 101.22 15.528C101.22 14.6353 101.376 13.8423 101.688 13.149C102.009 12.447 102.451 11.901 103.014 11.511C103.578 11.1123 104.219 10.913 104.938 10.913C105.649 10.913 106.286 11.1123 106.849 11.511C107.413 11.901 107.85 12.447 108.162 13.149C108.483 13.8423 108.643 14.6353 108.643 15.528C108.643 16.4207 108.483 17.218 108.162 17.92C107.85 18.622 107.413 19.1723 106.849 19.571C106.295 19.961 105.658 20.156 104.938 20.156ZM104.938 19.22C105.458 19.22 105.922 19.064 106.329 18.752C106.737 18.4313 107.053 17.9937 107.278 17.439C107.504 16.8757 107.616 16.2387 107.616 15.528C107.616 14.8173 107.504 14.1847 107.278 13.63C107.053 13.0667 106.737 12.629 106.329 12.317C105.922 12.005 105.458 11.849 104.938 11.849C104.418 11.849 103.955 12.005 103.547 12.317C103.14 12.629 102.819 13.0667 102.585 13.63C102.36 14.1847 102.247 14.8173 102.247 15.528C102.247 16.2387 102.36 16.8757 102.585 17.439C102.819 17.9937 103.14 18.4313 103.547 18.752C103.955 19.064 104.418 19.22 104.938 19.22ZM109.771 19.155L113.034 16.373C113.658 15.8357 114.108 15.346 114.386 14.904C114.672 14.4533 114.815 14.0027 114.815 13.552C114.815 13.2053 114.728 12.902 114.555 12.642C114.381 12.3733 114.152 12.1697 113.866 12.031C113.58 11.8923 113.276 11.823 112.956 11.823C112.462 11.823 112.02 11.9443 111.63 12.187C111.248 12.4297 110.893 12.772 110.564 13.214L109.849 12.629C110.655 11.485 111.703 10.913 112.995 10.913C113.515 10.913 113.991 11.0213 114.425 11.238C114.858 11.4547 115.2 11.7623 115.452 12.161C115.712 12.5597 115.842 13.019 115.842 13.539C115.842 14.137 115.677 14.7047 115.348 15.242C115.027 15.7707 114.49 16.36 113.736 17.01L111.396 19.038H115.933V20H109.771V19.155ZM121.142 10.341H122.247L117.684 20.962H116.579L121.142 10.341ZM124.403 12.304L122.843 13.318L122.401 12.564L124.598 11.069H125.417V20H124.403V12.304ZM131.056 14.423C131.602 14.423 132.1 14.5357 132.551 14.761C133.01 14.9777 133.374 15.2983 133.643 15.723C133.911 16.139 134.046 16.633 134.046 17.205C134.046 17.751 133.911 18.2493 133.643 18.7C133.374 19.1507 133.001 19.506 132.525 19.766C132.048 20.026 131.506 20.156 130.9 20.156C129.747 20.156 128.893 19.7487 128.339 18.934C127.784 18.1107 127.507 17.023 127.507 15.671C127.507 14.7957 127.667 13.994 127.988 13.266C128.308 12.538 128.742 11.966 129.288 11.55C129.842 11.1253 130.453 10.913 131.121 10.913C131.641 10.913 132.104 11.004 132.512 11.186C132.919 11.368 133.3 11.6323 133.656 11.979L133.097 12.772C132.785 12.4687 132.473 12.239 132.161 12.083C131.849 11.9183 131.493 11.836 131.095 11.836C130.627 11.836 130.198 12.0093 129.808 12.356C129.418 12.694 129.106 13.1577 128.872 13.747C128.646 14.3277 128.534 14.969 128.534 15.671V15.788C128.811 15.3547 129.166 15.021 129.6 14.787C130.042 14.5443 130.527 14.423 131.056 14.423ZM130.887 19.285C131.311 19.285 131.684 19.1897 132.005 18.999C132.334 18.7997 132.585 18.544 132.759 18.232C132.932 17.92 133.019 17.595 133.019 17.257C133.019 16.659 132.815 16.1823 132.408 15.827C132 15.4717 131.489 15.294 130.874 15.294C130.31 15.294 129.825 15.45 129.418 15.762C129.019 16.0653 128.763 16.464 128.651 16.958C128.789 17.6687 129.045 18.2363 129.418 18.661C129.799 19.077 130.289 19.285 130.887 19.285ZM139.161 10.341H140.266L135.703 20.962H134.598L139.161 10.341ZM140.603 19.155L143.866 16.373C144.49 15.8357 144.94 15.346 145.218 14.904C145.504 14.4533 145.647 14.0027 145.647 13.552C145.647 13.2053 145.56 12.902 145.387 12.642C145.213 12.3733 144.984 12.1697 144.698 12.031C144.412 11.8923 144.108 11.823 143.788 11.823C143.294 11.823 142.852 11.9443 142.462 12.187C142.08 12.4297 141.725 12.772 141.396 13.214L140.681 12.629C141.487 11.485 142.535 10.913 143.827 10.913C144.347 10.913 144.823 11.0213 145.257 11.238C145.69 11.4547 146.032 11.7623 146.284 12.161C146.544 12.5597 146.674 13.019 146.674 13.539C146.674 14.137 146.509 14.7047 146.18 15.242C145.859 15.7707 145.322 16.36 144.568 17.01L142.228 19.038H146.765V20H140.603V19.155ZM151.909 20.156C151.19 20.156 150.548 19.961 149.985 19.571C149.422 19.1723 148.98 18.622 148.659 17.92C148.347 17.218 148.191 16.4207 148.191 15.528C148.191 14.6353 148.347 13.8423 148.659 13.149C148.98 12.447 149.422 11.901 149.985 11.511C150.548 11.1123 151.19 10.913 151.909 10.913C152.62 10.913 153.257 11.1123 153.82 11.511C154.383 11.901 154.821 12.447 155.133 13.149C155.454 13.8423 155.614 14.6353 155.614 15.528C155.614 16.4207 155.454 17.218 155.133 17.92C154.821 18.622 154.383 19.1723 153.82 19.571C153.265 19.961 152.628 20.156 151.909 20.156ZM151.909 19.22C152.429 19.22 152.893 19.064 153.3 18.752C153.707 18.4313 154.024 17.9937 154.249 17.439C154.474 16.8757 154.587 16.2387 154.587 15.528C154.587 14.8173 154.474 14.1847 154.249 13.63C154.024 13.0667 153.707 12.629 153.3 12.317C152.893 12.005 152.429 11.849 151.909 11.849C151.389 11.849 150.925 12.005 150.518 12.317C150.111 12.629 149.79 13.0667 149.556 13.63C149.331 14.1847 149.218 14.8173 149.218 15.528C149.218 16.2387 149.331 16.8757 149.556 17.439C149.79 17.9937 150.111 18.4313 150.518 18.752C150.925 19.064 151.389 19.22 151.909 19.22ZM156.741 19.155L160.004 16.373C160.628 15.8357 161.079 15.346 161.356 14.904C161.642 14.4533 161.785 14.0027 161.785 13.552C161.785 13.2053 161.699 12.902 161.525 12.642C161.352 12.3733 161.122 12.1697 160.836 12.031C160.55 11.8923 160.247 11.823 159.926 11.823C159.432 11.823 158.99 11.9443 158.6 12.187C158.219 12.4297 157.864 12.772 157.534 13.214L156.819 12.629C157.625 11.485 158.674 10.913 159.965 10.913C160.485 10.913 160.962 11.0213 161.395 11.238C161.829 11.4547 162.171 11.7623 162.422 12.161C162.682 12.5597 162.812 13.019 162.812 13.539C162.812 14.137 162.648 14.7047 162.318 15.242C161.998 15.7707 161.46 16.36 160.706 17.01L158.366 19.038H162.903V20H156.741V19.155ZM167.19 20.156C166.488 20.156 165.855 20.0173 165.292 19.74C164.737 19.454 164.287 19.0813 163.94 18.622L164.642 17.959C164.945 18.3577 165.314 18.6697 165.747 18.895C166.18 19.1203 166.661 19.233 167.19 19.233C167.814 19.233 168.317 19.077 168.698 18.765C169.079 18.453 169.27 18.0413 169.27 17.53C169.27 17.01 169.066 16.6157 168.659 16.347C168.252 16.0783 167.688 15.944 166.969 15.944H166.02V15.008L166.982 15.021C167.597 15.0297 168.1 14.8953 168.49 14.618C168.88 14.332 169.075 13.942 169.075 13.448C169.075 12.98 168.884 12.5943 168.503 12.291C168.13 11.9877 167.662 11.836 167.099 11.836C166.631 11.836 166.211 11.9443 165.838 12.161C165.465 12.3777 165.11 12.6897 164.772 13.097L164.096 12.486C164.885 11.4373 165.903 10.913 167.151 10.913C167.714 10.913 168.217 11.017 168.659 11.225C169.11 11.4243 169.461 11.7103 169.712 12.083C169.972 12.447 170.102 12.863 170.102 13.331C170.102 13.8683 169.937 14.3147 169.608 14.67C169.287 15.0253 168.876 15.2767 168.373 15.424C168.902 15.5453 169.352 15.788 169.725 16.152C170.106 16.516 170.297 16.9927 170.297 17.582C170.297 18.076 170.167 18.518 169.907 18.908C169.647 19.298 169.279 19.6057 168.802 19.831C168.334 20.0477 167.797 20.156 167.19 20.156Z" fill="#4F6169"/>
<path d="M202.333 10.6667H200.889V11.5556H202.222V21.3334H189.778V11.5556H191.111V10.6667H189.667C189.563 10.6684 189.46 10.6906 189.365 10.732C189.27 10.7734 189.183 10.8331 189.111 10.9078C189.039 10.9825 188.982 11.0707 188.944 11.1674C188.906 11.264 188.887 11.3672 188.889 11.4711V21.4178C188.887 21.5217 188.906 21.6249 188.944 21.7216C188.982 21.8182 189.039 21.9064 189.111 21.9811C189.183 22.0558 189.27 22.1156 189.365 22.157C189.46 22.1983 189.563 22.2205 189.667 22.2222H202.333C202.437 22.2205 202.54 22.1983 202.635 22.157C202.73 22.1156 202.817 22.0558 202.889 21.9811C202.961 21.9064 203.018 21.8182 203.056 21.7216C203.094 21.6249 203.113 21.5217 203.111 21.4178V11.4711C203.113 11.3672 203.094 11.264 203.056 11.1674C203.018 11.0707 202.961 10.9825 202.889 10.9078C202.817 10.8331 202.73 10.7734 202.635 10.732C202.54 10.6906 202.437 10.6684 202.333 10.6667Z" fill="#3A4D55"/>
<path d="M192.444 14.2222H191.556V15.1111H192.444V14.2222Z" fill="#3A4D55"/>
<path d="M195.111 14.2222H194.222V15.1111H195.111V14.2222Z" fill="#3A4D55"/>
<path d="M197.778 14.2222H196.889V15.1111H197.778V14.2222Z" fill="#3A4D55"/>
<path d="M200.444 14.2222H199.556V15.1111H200.444V14.2222Z" fill="#3A4D55"/>
<path d="M192.444 16.4445H191.556V17.3334H192.444V16.4445Z" fill="#3A4D55"/>
<path d="M195.111 16.4445H194.222V17.3334H195.111V16.4445Z" fill="#3A4D55"/>
<path d="M197.778 16.4445H196.889V17.3334H197.778V16.4445Z" fill="#3A4D55"/>
<path d="M200.444 16.4445H199.556V17.3334H200.444V16.4445Z" fill="#3A4D55"/>
<path d="M192.444 18.6667H191.556V19.5556H192.444V18.6667Z" fill="#3A4D55"/>
<path d="M195.111 18.6667H194.222V19.5556H195.111V18.6667Z" fill="#3A4D55"/>
<path d="M197.778 18.6667H196.889V19.5556H197.778V18.6667Z" fill="#3A4D55"/>
<path d="M200.444 18.6667H199.556V19.5556H200.444V18.6667Z" fill="#3A4D55"/>
<path d="M192.444 12.4445C192.562 12.4445 192.675 12.3976 192.759 12.3143C192.842 12.2309 192.889 12.1179 192.889 12V9.33336C192.889 9.21549 192.842 9.10244 192.759 9.01909C192.675 8.93574 192.562 8.88892 192.444 8.88892C192.327 8.88892 192.214 8.93574 192.13 9.01909C192.047 9.10244 192 9.21549 192 9.33336V12C192 12.1179 192.047 12.2309 192.13 12.3143C192.214 12.3976 192.327 12.4445 192.444 12.4445Z" fill="#3A4D55"/>
<path d="M199.556 12.4445C199.673 12.4445 199.786 12.3976 199.87 12.3143C199.953 12.2309 200 12.1179 200 12V9.33336C200 9.21549 199.953 9.10244 199.87 9.01909C199.786 8.93574 199.673 8.88892 199.556 8.88892C199.438 8.88892 199.325 8.93574 199.241 9.01909C199.158 9.10244 199.111 9.21549 199.111 9.33336V12C199.111 12.1179 199.158 12.2309 199.241 12.3143C199.325 12.3976 199.438 12.4445 199.556 12.4445Z" fill="#3A4D55"/>
<path d="M198.222 10.6667H193.778V11.5556H198.222V10.6667Z" fill="#3A4D55"/>
<path d="M5.5 37C5.5 35.067 7.067 33.5 9 33.5H285C286.933 33.5 288.5 35.067 288.5 37V429C288.5 430.933 286.933 432.5 285 432.5H9C7.06701 432.5 5.5 430.933 5.5 429V37Z" fill="white"/>
<path d="M5.5 37C5.5 35.067 7.067 33.5 9 33.5H285C286.933 33.5 288.5 35.067 288.5 37V429C288.5 430.933 286.933 432.5 285 432.5H9C7.06701 432.5 5.5 430.933 5.5 429V37Z" stroke="#CBD4D8"/>
<path d="M38.6007 61.14V65.14H45.8807V67.02H38.6007V73H36.5607V59.26H46.6607V61.14H38.6007ZM53.3313 71.6C53.8913 71.6 54.458 71.4867 55.0313 71.26C55.618 71.0333 56.0713 70.7533 56.3913 70.42L57.5513 71.64C57.1113 72.12 56.4913 72.5067 55.6913 72.8C54.9047 73.0933 54.1313 73.24 53.3713 73.24C52.4247 73.24 51.538 73.0067 50.7113 72.54C49.898 72.0733 49.2447 71.4267 48.7513 70.6C48.2713 69.76 48.0313 68.8267 48.0313 67.8C48.0313 66.7867 48.2647 65.8733 48.7313 65.06C49.198 64.2333 49.8247 63.5867 50.6113 63.12C51.4113 62.6533 52.2847 62.42 53.2313 62.42C54.2713 62.42 55.1647 62.6667 55.9113 63.16C56.6713 63.6533 57.2447 64.3533 57.6313 65.26C58.0313 66.1667 58.2313 67.2333 58.2313 68.46H49.9713C50.0913 69.3933 50.4513 70.1533 51.0513 70.74C51.6647 71.3133 52.4247 71.6 53.3313 71.6ZM53.2713 64.06C52.4447 64.06 51.7247 64.3267 51.1113 64.86C50.5113 65.3933 50.138 66.1067 49.9913 67H56.3113C56.2047 66.1333 55.8847 65.4267 55.3513 64.88C54.8313 64.3333 54.138 64.06 53.2713 64.06ZM66.0501 62.42C66.9434 62.42 67.7501 62.6533 68.4701 63.12C69.1901 63.5733 69.7567 64.2133 70.1701 65.04C70.5834 65.8533 70.7901 66.78 70.7901 67.82C70.7901 68.86 70.5834 69.7933 70.1701 70.62C69.7567 71.4467 69.1901 72.0933 68.4701 72.56C67.7501 73.0133 66.9434 73.24 66.0501 73.24C65.2501 73.24 64.5301 73.06 63.8901 72.7C63.2501 72.34 62.7301 71.8267 62.3301 71.16V73H60.3501V59.02H62.3301V64.5C62.7301 63.8333 63.2501 63.32 63.8901 62.96C64.5301 62.6 65.2501 62.42 66.0501 62.42ZM65.5701 71.52C66.1834 71.52 66.7367 71.3667 67.2301 71.06C67.7234 70.74 68.1034 70.3 68.3701 69.74C68.6501 69.1667 68.7901 68.5267 68.7901 67.82C68.7901 67.1133 68.6501 66.48 68.3701 65.92C68.1034 65.36 67.7234 64.9267 67.2301 64.62C66.7367 64.3 66.1834 64.14 65.5701 64.14C64.9567 64.14 64.4034 64.3 63.9101 64.62C63.4301 64.9267 63.0501 65.36 62.7701 65.92C62.5034 66.48 62.3701 67.1133 62.3701 67.82C62.3701 68.5267 62.5034 69.1667 62.7701 69.74C63.0501 70.3 63.4301 70.74 63.9101 71.06C64.4034 71.3667 64.9567 71.52 65.5701 71.52Z" fill="#0079AD"/>
<path d="M93.5985 71.34L98.6385 67.18C99.5452 66.42 100.192 65.7267 100.579 65.1C100.979 64.4733 101.179 63.8467 101.179 63.22C101.179 62.5 100.925 61.9267 100.419 61.5C99.9118 61.06 99.2985 60.84 98.5785 60.84C97.8585 60.84 97.2118 61.0133 96.6385 61.36C96.0652 61.7067 95.5252 62.2133 95.0185 62.88L93.6585 61.68C94.9385 59.9067 96.6052 59.02 98.6585 59.02C99.5118 59.02 100.285 59.1933 100.979 59.54C101.685 59.8867 102.239 60.38 102.639 61.02C103.052 61.6467 103.259 62.3667 103.259 63.18C103.259 64.1 103.012 64.96 102.519 65.76C102.025 66.56 101.192 67.44 100.019 68.4L96.7985 71.12H103.379V73H93.5985V71.34ZM111.28 73.24C110.147 73.24 109.133 72.94 108.24 72.34C107.347 71.7267 106.647 70.88 106.14 69.8C105.647 68.72 105.4 67.4933 105.4 66.12C105.4 64.7467 105.647 63.5267 106.14 62.46C106.647 61.38 107.347 60.54 108.24 59.94C109.133 59.3267 110.147 59.02 111.28 59.02C112.4 59.02 113.4 59.3267 114.28 59.94C115.173 60.54 115.867 61.38 116.36 62.46C116.867 63.5267 117.12 64.7467 117.12 66.12C117.12 67.4933 116.867 68.72 116.36 69.8C115.867 70.88 115.18 71.7267 114.3 72.34C113.42 72.94 112.413 73.24 111.28 73.24ZM111.28 71.38C112.013 71.38 112.667 71.16 113.24 70.72C113.813 70.2667 114.26 69.64 114.58 68.84C114.9 68.04 115.06 67.1333 115.06 66.12C115.06 65.1067 114.9 64.2067 114.58 63.42C114.26 62.62 113.813 62 113.24 61.56C112.667 61.1067 112.013 60.88 111.28 60.88C110.547 60.88 109.887 61.1067 109.3 61.56C108.727 62 108.273 62.62 107.94 63.42C107.62 64.2067 107.46 65.1067 107.46 66.12C107.46 67.1333 107.62 68.04 107.94 68.84C108.273 69.64 108.727 70.2667 109.3 70.72C109.887 71.16 110.547 71.38 111.28 71.38ZM118.765 71.34L123.805 67.18C124.712 66.42 125.358 65.7267 125.745 65.1C126.145 64.4733 126.345 63.8467 126.345 63.22C126.345 62.5 126.092 61.9267 125.585 61.5C125.078 61.06 124.465 60.84 123.745 60.84C123.025 60.84 122.378 61.0133 121.805 61.36C121.232 61.7067 120.692 62.2133 120.185 62.88L118.825 61.68C120.105 59.9067 121.772 59.02 123.825 59.02C124.678 59.02 125.452 59.1933 126.145 59.54C126.852 59.8867 127.405 60.38 127.805 61.02C128.218 61.6467 128.425 62.3667 128.425 63.18C128.425 64.1 128.178 64.96 127.685 65.76C127.192 66.56 126.358 67.44 125.185 68.4L121.965 71.12H128.545V73H118.765V71.34ZM135.206 73.24C134.086 73.24 133.08 73.0267 132.186 72.6C131.306 72.1733 130.586 71.6067 130.026 70.9L131.326 69.56C131.806 70.1333 132.373 70.5867 133.026 70.92C133.68 71.2533 134.393 71.42 135.166 71.42C136.046 71.42 136.753 71.2067 137.286 70.78C137.82 70.3533 138.086 69.7933 138.086 69.1C138.086 68.3933 137.8 67.86 137.226 67.5C136.666 67.1267 135.873 66.9467 134.846 66.96H133.346V65.16L134.846 65.18C135.74 65.18 136.453 64.9933 136.986 64.62C137.533 64.2467 137.806 63.72 137.806 63.04C137.806 62.4 137.54 61.8733 137.006 61.46C136.473 61.0467 135.806 60.84 135.006 60.84C134.326 60.84 133.706 61 133.146 61.32C132.586 61.6267 132.053 62.08 131.546 62.68L130.286 61.44C131.526 59.8267 133.146 59.02 135.146 59.02C136.066 59.02 136.88 59.18 137.586 59.5C138.306 59.82 138.86 60.2667 139.246 60.84C139.646 61.4 139.846 62.04 139.846 62.76C139.846 63.56 139.6 64.2333 139.106 64.78C138.626 65.3267 138 65.72 137.226 65.96C138.026 66.1467 138.713 66.52 139.286 67.08C139.86 67.6267 140.146 68.3467 140.146 69.24C140.146 70.0133 139.94 70.7067 139.526 71.32C139.113 71.92 138.533 72.3933 137.786 72.74C137.04 73.0733 136.18 73.24 135.206 73.24Z" fill="#0079AD"/>
<path d="M184.722 61.88L179.711 67L184.722 72.12C185.007 72.4097 185.459 72.4007 185.733 72.1C186.007 71.7993 185.999 71.3208 185.714 71.0311L181.767 67L185.714 62.9645C185.999 62.6748 186.007 62.1963 185.733 61.8956C185.459 61.5949 185.007 61.5859 184.722 61.8756L184.722 61.88Z" fill="#3A4D55"/>
<path d="M218.187 70.4934L215.804 68.1111C215.732 68.0261 215.694 67.9167 215.698 67.8049C215.702 67.693 215.749 67.5869 215.828 67.5078C215.907 67.4286 216.013 67.3823 216.125 67.3779C216.237 67.3736 216.346 67.4117 216.431 67.4845L218.187 69.2222L222.027 65.3822C222.112 65.3094 222.221 65.2714 222.333 65.2757C222.445 65.28 222.551 65.3264 222.63 65.4056C222.709 65.4847 222.756 65.5908 222.76 65.7027C222.764 65.8145 222.726 65.9239 222.653 66.0089L218.187 70.4934Z" fill="#3A4D55"/>
<path d="M225.333 61.6667H223.889V62.5556H225.222V72.3334H212.778V62.5556H214.111V61.6667H212.667C212.563 61.6684 212.46 61.6906 212.365 61.732C212.27 61.7734 212.183 61.8331 212.111 61.9078C212.039 61.9825 211.982 62.0707 211.944 62.1674C211.906 62.264 211.887 62.3672 211.889 62.4711V72.4178C211.887 72.5217 211.906 72.6249 211.944 72.7216C211.982 72.8182 212.039 72.9064 212.111 72.9811C212.183 73.0558 212.27 73.1156 212.365 73.157C212.46 73.1983 212.563 73.2205 212.667 73.2222H225.333C225.437 73.2205 225.54 73.1983 225.635 73.157C225.73 73.1156 225.817 73.0558 225.889 72.9811C225.961 72.9064 226.018 72.8182 226.056 72.7216C226.094 72.6249 226.113 72.5217 226.111 72.4178V62.4711C226.113 62.3672 226.094 62.264 226.056 62.1674C226.018 62.0707 225.961 61.9825 225.889 61.9078C225.817 61.8331 225.73 61.7734 225.635 61.732C225.54 61.6906 225.437 61.6684 225.333 61.6667Z" fill="#3A4D55"/>
<path d="M215.444 63.4445C215.562 63.4445 215.675 63.3976 215.759 63.3143C215.842 63.2309 215.889 63.1179 215.889 63V60.3334C215.889 60.2155 215.842 60.1024 215.759 60.0191C215.675 59.9357 215.562 59.8889 215.444 59.8889C215.327 59.8889 215.214 59.9357 215.13 60.0191C215.047 60.1024 215 60.2155 215 60.3334V63C215 63.1179 215.047 63.2309 215.13 63.3143C215.214 63.3976 215.327 63.4445 215.444 63.4445Z" fill="#3A4D55"/>
<path d="M222.556 63.4445C222.673 63.4445 222.786 63.3976 222.87 63.3143C222.953 63.2309 223 63.1179 223 63V60.3334C223 60.2155 222.953 60.1024 222.87 60.0191C222.786 59.9357 222.673 59.8889 222.556 59.8889C222.438 59.8889 222.325 59.9357 222.241 60.0191C222.158 60.1024 222.111 60.2155 222.111 60.3334V63C222.111 63.1179 222.158 63.2309 222.241 63.3143C222.325 63.3976 222.438 63.4445 222.556 63.4445Z" fill="#3A4D55"/>
<path d="M221.222 61.6667H216.778V62.5556H221.222V61.6667Z" fill="#3A4D55"/>
<path d="M253.278 72.12L258.289 67L253.278 61.88C252.993 61.5903 252.541 61.5993 252.267 61.9C251.993 62.2007 252.001 62.6792 252.286 62.9689L256.233 67L252.286 71.0355C252.001 71.3252 251.993 71.8037 252.267 72.1044C252.541 72.4051 252.993 72.4141 253.278 72.1244L253.278 72.12Z" fill="#3A4D55"/>
<path d="M35.2786 105.143C34.5246 105.143 33.8226 105.022 33.1726 104.779C32.5313 104.528 31.9593 104.168 31.4566 103.7L32.4056 102.543C33.2983 103.349 34.2776 103.752 35.3436 103.752C35.8636 103.752 36.2709 103.639 36.5656 103.414C36.8603 103.189 37.0076 102.907 37.0076 102.569C37.0076 102.326 36.9339 102.131 36.7866 101.984C36.6479 101.828 36.4356 101.698 36.1496 101.594C35.8723 101.481 35.4693 101.364 34.9406 101.243C34.2473 101.078 33.6796 100.901 33.2376 100.71C32.7956 100.511 32.4489 100.246 32.1976 99.917C31.9463 99.579 31.8206 99.1413 31.8206 98.604C31.8206 98.0927 31.9549 97.6333 32.2236 97.226C32.5009 96.81 32.8823 96.4893 33.3676 96.264C33.8529 96.03 34.4033 95.913 35.0186 95.913C36.3099 95.913 37.4366 96.329 38.3986 97.161L37.5146 98.344C37.1246 98.006 36.7129 97.7503 36.2796 97.577C35.8463 97.395 35.4086 97.304 34.9666 97.304C34.5246 97.304 34.1606 97.4167 33.8746 97.642C33.5973 97.8673 33.4586 98.1403 33.4586 98.461C33.4586 98.695 33.5279 98.89 33.6666 99.046C33.8139 99.202 34.0306 99.332 34.3166 99.436C34.6113 99.54 35.0143 99.6527 35.5256 99.774C36.5569 100.008 37.3326 100.32 37.8526 100.71C38.3726 101.091 38.6326 101.659 38.6326 102.413C38.6326 102.95 38.4983 103.427 38.2296 103.843C37.9696 104.25 37.5883 104.571 37.0856 104.805C36.5829 105.03 35.9806 105.143 35.2786 105.143ZM46.1596 98.279V105H44.5736V104.09C44.3656 104.411 44.0753 104.671 43.7026 104.87C43.33 105.061 42.9226 105.156 42.4806 105.156C41.9953 105.156 41.562 105.048 41.1806 104.831C40.808 104.606 40.5133 104.298 40.2966 103.908C40.0886 103.509 39.9846 103.059 39.9846 102.556V98.279H41.5316V102.244C41.5316 102.703 41.6616 103.08 41.9216 103.375C42.1816 103.661 42.5196 103.804 42.9356 103.804C43.395 103.804 43.7806 103.665 44.0926 103.388C44.4133 103.102 44.5736 102.755 44.5736 102.348V98.279H46.1596Z" fill="#4F6169"/>
<path d="M66.4707 96.069H68.0827L71.0337 101.516L73.9717 96.069H75.5967V105H73.9717V99.033L71.0337 104.48L68.0827 99.033V105H66.4707V96.069ZM80.7959 105.156C80.1459 105.156 79.5435 105 78.9889 104.688C78.4342 104.367 77.9922 103.938 77.6629 103.401C77.3422 102.855 77.1819 102.266 77.1819 101.633C77.1819 101 77.3422 100.415 77.6629 99.878C77.9922 99.3407 78.4342 98.916 78.9889 98.604C79.5435 98.2833 80.1459 98.123 80.7959 98.123C81.4459 98.123 82.0439 98.2833 82.5899 98.604C83.1445 98.916 83.5822 99.3407 83.9029 99.878C84.2235 100.415 84.3839 101 84.3839 101.633C84.3839 102.266 84.2235 102.855 83.9029 103.401C83.5822 103.938 83.1445 104.367 82.5899 104.688C82.0439 105 81.4459 105.156 80.7959 105.156ZM80.7959 103.804C81.1599 103.804 81.4979 103.709 81.8099 103.518C82.1219 103.319 82.3689 103.054 82.5509 102.725C82.7415 102.387 82.8369 102.023 82.8369 101.633C82.8369 101.243 82.7459 100.883 82.5639 100.554C82.3819 100.225 82.1305 99.9647 81.8099 99.774C81.4979 99.5747 81.1599 99.475 80.7959 99.475C80.4232 99.475 80.0809 99.5747 79.7689 99.774C79.4569 99.9647 79.2055 100.225 79.0149 100.554C78.8329 100.883 78.7419 101.243 78.7419 101.633C78.7419 102.023 78.8329 102.387 79.0149 102.725C79.2055 103.054 79.4569 103.319 79.7689 103.518C80.0809 103.709 80.4232 103.804 80.7959 103.804Z" fill="#4F6169"/>
<path d="M106.282 97.551H103.422V96.069H110.754V97.551H107.907V105H106.282V97.551ZM118.064 98.279V105H116.478V104.09C116.27 104.411 115.98 104.671 115.607 104.87C115.235 105.061 114.827 105.156 114.385 105.156C113.9 105.156 113.467 105.048 113.085 104.831C112.713 104.606 112.418 104.298 112.201 103.908C111.993 103.509 111.889 103.059 111.889 102.556V98.279H113.436V102.244C113.436 102.703 113.566 103.08 113.826 103.375C114.086 103.661 114.424 103.804 114.84 103.804C115.3 103.804 115.685 103.665 115.997 103.388C116.318 103.102 116.478 102.755 116.478 102.348V98.279H118.064Z" fill="#4F6169"/>
<path d="M136.578 96.069H138.359L140.27 102.465L142.389 96.069H144.144L146.25 102.465L148.174 96.069H149.942L147.121 105H145.509L143.273 98.37L141.024 105H139.412L136.578 96.069ZM154.209 103.882C154.547 103.882 154.889 103.817 155.236 103.687C155.583 103.557 155.864 103.388 156.081 103.18L156.991 104.116C156.705 104.419 156.302 104.671 155.782 104.87C155.262 105.061 154.755 105.156 154.261 105.156C153.62 105.156 153.026 105.004 152.48 104.701C151.943 104.398 151.514 103.977 151.193 103.44C150.881 102.903 150.725 102.296 150.725 101.62C150.725 100.953 150.877 100.355 151.18 99.826C151.483 99.2973 151.899 98.8813 152.428 98.578C152.957 98.2747 153.537 98.123 154.17 98.123C155.201 98.123 156.007 98.4783 156.588 99.189C157.177 99.8997 157.472 100.87 157.472 102.101H152.259C152.346 102.638 152.562 103.072 152.909 103.401C153.264 103.722 153.698 103.882 154.209 103.882ZM154.183 99.397C153.706 99.397 153.295 99.5487 152.948 99.852C152.601 100.147 152.376 100.545 152.272 101.048H155.938C155.86 100.554 155.669 100.155 155.366 99.852C155.071 99.5487 154.677 99.397 154.183 99.397Z" fill="#4F6169"/>
<path d="M178.282 97.551H175.422V96.069H182.754V97.551H179.907V105H178.282V97.551ZM187.698 98.123C188.184 98.123 188.617 98.2357 188.998 98.461C189.38 98.6777 189.674 98.9853 189.882 99.384C190.099 99.774 190.207 100.22 190.207 100.723V105H188.66V101.035C188.66 100.576 188.53 100.203 188.27 99.917C188.01 99.6223 187.672 99.475 187.256 99.475C186.797 99.475 186.407 99.618 186.086 99.904C185.774 100.181 185.618 100.524 185.618 100.931V105H184.032V95.913H185.618V99.189C185.826 98.8683 186.112 98.6127 186.476 98.422C186.849 98.2227 187.256 98.123 187.698 98.123Z" fill="#4F6169"/>
<path d="M215.009 97.551V99.813H219.611V101.295H215.009V105H213.384V96.069H220.105V97.551H215.009ZM223.091 99.553C223.308 99.111 223.628 98.7643 224.053 98.513C224.478 98.253 224.959 98.123 225.496 98.123V99.475C224.777 99.475 224.196 99.67 223.754 100.06C223.312 100.45 223.091 100.966 223.091 101.607V105H221.505V98.279H223.091V99.553Z" fill="#4F6169"/>
<path d="M251.583 105.143C250.829 105.143 250.127 105.022 249.477 104.779C248.836 104.528 248.264 104.168 247.761 103.7L248.71 102.543C249.603 103.349 250.582 103.752 251.648 103.752C252.168 103.752 252.576 103.639 252.87 103.414C253.165 103.189 253.312 102.907 253.312 102.569C253.312 102.326 253.239 102.131 253.091 101.984C252.953 101.828 252.74 101.698 252.454 101.594C252.177 101.481 251.774 101.364 251.245 101.243C250.552 101.078 249.984 100.901 249.542 100.71C249.1 100.511 248.754 100.246 248.502 99.917C248.251 99.579 248.125 99.1413 248.125 98.604C248.125 98.0927 248.26 97.6333 248.528 97.226C248.806 96.81 249.187 96.4893 249.672 96.264C250.158 96.03 250.708 95.913 251.323 95.913C252.615 95.913 253.741 96.329 254.703 97.161L253.819 98.344C253.429 98.006 253.018 97.7503 252.584 97.577C252.151 97.395 251.713 97.304 251.271 97.304C250.829 97.304 250.465 97.4167 250.179 97.642C249.902 97.8673 249.763 98.1403 249.763 98.461C249.763 98.695 249.833 98.89 249.971 99.046C250.119 99.202 250.335 99.332 250.621 99.436C250.916 99.54 251.319 99.6527 251.83 99.774C252.862 100.008 253.637 100.32 254.157 100.71C254.677 101.091 254.937 101.659 254.937 102.413C254.937 102.95 254.803 103.427 254.534 103.843C254.274 104.25 253.893 104.571 253.39 104.805C252.888 105.03 252.285 105.143 251.583 105.143ZM259.123 98.123C260.007 98.123 260.705 98.383 261.216 98.903C261.736 99.4143 261.996 100.099 261.996 100.957V105H260.449V104.207C260.207 104.502 259.895 104.736 259.513 104.909C259.132 105.074 258.742 105.156 258.343 105.156C257.867 105.156 257.438 105.069 257.056 104.896C256.684 104.714 256.389 104.463 256.172 104.142C255.956 103.813 255.847 103.436 255.847 103.011C255.847 102.578 255.969 102.192 256.211 101.854C256.454 101.516 256.783 101.252 257.199 101.061C257.615 100.87 258.075 100.775 258.577 100.775C259.175 100.775 259.799 100.892 260.449 101.126V100.957C260.449 100.515 260.315 100.151 260.046 99.865C259.786 99.5703 259.375 99.423 258.811 99.423C258.274 99.423 257.667 99.592 256.991 99.93L256.445 98.825C257.399 98.357 258.291 98.123 259.123 98.123ZM258.694 103.999C259.102 103.999 259.474 103.899 259.812 103.7C260.159 103.501 260.371 103.232 260.449 102.894V102.127C259.929 101.962 259.383 101.88 258.811 101.88C258.404 101.88 258.062 101.984 257.784 102.192C257.507 102.391 257.368 102.647 257.368 102.959C257.368 103.271 257.494 103.522 257.745 103.713C257.997 103.904 258.313 103.999 258.694 103.999Z" fill="#4F6169"/>
<path d="M182.989 131.304L181.429 132.318L180.987 131.564L183.184 130.069H184.003V139H182.989V131.304Z" fill="#3A4D55"/>
<path d="M215.817 138.155L219.08 135.373C219.704 134.836 220.154 134.346 220.432 133.904C220.718 133.453 220.861 133.003 220.861 132.552C220.861 132.205 220.774 131.902 220.601 131.642C220.427 131.373 220.198 131.17 219.912 131.031C219.626 130.892 219.322 130.823 219.002 130.823C218.508 130.823 218.066 130.944 217.676 131.187C217.294 131.43 216.939 131.772 216.61 132.214L215.895 131.629C216.701 130.485 217.749 129.913 219.041 129.913C219.561 129.913 220.037 130.021 220.471 130.238C220.904 130.455 221.246 130.762 221.498 131.161C221.758 131.56 221.888 132.019 221.888 132.539C221.888 133.137 221.723 133.705 221.394 134.242C221.073 134.771 220.536 135.36 219.782 136.01L217.442 138.038H221.979V139H215.817V138.155Z" fill="#3A4D55"/>
<path d="M254.907 139.156C254.205 139.156 253.572 139.017 253.009 138.74C252.454 138.454 252.003 138.081 251.657 137.622L252.359 136.959C252.662 137.358 253.03 137.67 253.464 137.895C253.897 138.12 254.378 138.233 254.907 138.233C255.531 138.233 256.033 138.077 256.415 137.765C256.796 137.453 256.987 137.041 256.987 136.53C256.987 136.01 256.783 135.616 256.376 135.347C255.968 135.078 255.405 134.944 254.686 134.944H253.737V134.008L254.699 134.021C255.314 134.03 255.817 133.895 256.207 133.618C256.597 133.332 256.792 132.942 256.792 132.448C256.792 131.98 256.601 131.594 256.22 131.291C255.847 130.988 255.379 130.836 254.816 130.836C254.348 130.836 253.927 130.944 253.555 131.161C253.182 131.378 252.827 131.69 252.489 132.097L251.813 131.486C252.601 130.437 253.62 129.913 254.868 129.913C255.431 129.913 255.934 130.017 256.376 130.225C256.826 130.424 257.177 130.71 257.429 131.083C257.689 131.447 257.819 131.863 257.819 132.331C257.819 132.868 257.654 133.315 257.325 133.67C257.004 134.025 256.592 134.277 256.09 134.424C256.618 134.545 257.069 134.788 257.442 135.152C257.823 135.516 258.014 135.993 258.014 136.582C258.014 137.076 257.884 137.518 257.624 137.908C257.364 138.298 256.995 138.606 256.519 138.831C256.051 139.048 255.513 139.156 254.907 139.156Z" fill="#3A4D55"/>
<path d="M40.1687 176.829H35.7097L35.5797 175.984L40.0127 170.069H41.1827V175.906H42.5217V176.829H41.1827V179H40.1687V176.829ZM40.1687 175.906V171.291L36.7367 175.906H40.1687Z" fill="#3A4D55"/>
<path d="M75.058 179.156C74.3993 179.156 73.8056 179.03 73.277 178.779C72.757 178.528 72.302 178.181 71.912 177.739L72.575 176.998C73.3376 177.83 74.1783 178.246 75.097 178.246C75.5043 178.246 75.8683 178.159 76.189 177.986C76.5096 177.813 76.7566 177.574 76.93 177.271C77.112 176.968 77.203 176.63 77.203 176.257C77.203 175.685 77.0036 175.221 76.605 174.866C76.2063 174.511 75.695 174.333 75.071 174.333C74.3603 174.333 73.6973 174.563 73.082 175.022L72.341 174.658L72.471 170.069H77.749V171.031H73.459L73.368 174.034C73.9573 173.635 74.5943 173.436 75.279 173.436C75.825 173.436 76.319 173.549 76.761 173.774C77.2116 173.991 77.567 174.311 77.827 174.736C78.0956 175.152 78.23 175.646 78.23 176.218C78.23 176.799 78.0913 177.314 77.814 177.765C77.5453 178.207 77.1683 178.549 76.683 178.792C76.2063 179.035 75.6646 179.156 75.058 179.156Z" fill="#3A4D55"/>
<path d="M111.413 173.423C111.959 173.423 112.457 173.536 112.908 173.761C113.367 173.978 113.731 174.298 114 174.723C114.268 175.139 114.403 175.633 114.403 176.205C114.403 176.751 114.268 177.249 114 177.7C113.731 178.151 113.358 178.506 112.882 178.766C112.405 179.026 111.863 179.156 111.257 179.156C110.104 179.156 109.25 178.749 108.696 177.934C108.141 177.111 107.864 176.023 107.864 174.671C107.864 173.796 108.024 172.994 108.345 172.266C108.665 171.538 109.099 170.966 109.645 170.55C110.199 170.125 110.81 169.913 111.478 169.913C111.998 169.913 112.461 170.004 112.869 170.186C113.276 170.368 113.657 170.632 114.013 170.979L113.454 171.772C113.142 171.469 112.83 171.239 112.518 171.083C112.206 170.918 111.85 170.836 111.452 170.836C110.984 170.836 110.555 171.009 110.165 171.356C109.775 171.694 109.463 172.158 109.229 172.747C109.003 173.328 108.891 173.969 108.891 174.671V174.788C109.168 174.355 109.523 174.021 109.957 173.787C110.399 173.544 110.884 173.423 111.413 173.423ZM111.244 178.285C111.668 178.285 112.041 178.19 112.362 177.999C112.691 177.8 112.942 177.544 113.116 177.232C113.289 176.92 113.376 176.595 113.376 176.257C113.376 175.659 113.172 175.182 112.765 174.827C112.357 174.472 111.846 174.294 111.231 174.294C110.667 174.294 110.182 174.45 109.775 174.762C109.376 175.065 109.12 175.464 109.008 175.958C109.146 176.669 109.402 177.236 109.775 177.661C110.156 178.077 110.646 178.285 111.244 178.285Z" fill="#3A4D55"/>
<path d="M148.827 171.031H143.991V170.069H150.036V170.836L146.188 179H145.018L148.827 171.031Z" fill="#3A4D55"/>
<rect x="165" y="157" width="36" height="36" rx="4" fill="#0079AD"/>
<path d="M183.045 179.156C182.395 179.156 181.806 179.056 181.277 178.857C180.749 178.649 180.333 178.354 180.029 177.973C179.726 177.583 179.574 177.132 179.574 176.621C179.574 176.101 179.739 175.65 180.068 175.269C180.406 174.879 180.848 174.584 181.394 174.385C180.9 174.177 180.51 173.904 180.224 173.566C179.947 173.219 179.808 172.803 179.808 172.318C179.808 171.824 179.956 171.395 180.25 171.031C180.554 170.667 180.952 170.39 181.446 170.199C181.94 170.008 182.473 169.913 183.045 169.913C183.626 169.913 184.163 170.013 184.657 170.212C185.16 170.403 185.559 170.68 185.853 171.044C186.148 171.408 186.295 171.833 186.295 172.318C186.295 172.812 186.152 173.232 185.866 173.579C185.58 173.917 185.195 174.186 184.709 174.385C185.264 174.593 185.706 174.892 186.035 175.282C186.365 175.663 186.529 176.11 186.529 176.621C186.529 177.141 186.373 177.592 186.061 177.973C185.758 178.354 185.342 178.649 184.813 178.857C184.285 179.056 183.695 179.156 183.045 179.156ZM183.045 173.8C183.47 173.783 183.851 173.657 184.189 173.423C184.527 173.189 184.696 172.89 184.696 172.526C184.696 172.179 184.536 171.889 184.215 171.655C183.903 171.412 183.513 171.291 183.045 171.291C182.577 171.291 182.187 171.408 181.875 171.642C181.563 171.876 181.407 172.171 181.407 172.526C181.407 172.899 181.576 173.198 181.914 173.423C182.252 173.648 182.629 173.774 183.045 173.8ZM183.045 177.765C183.574 177.765 184.012 177.644 184.358 177.401C184.714 177.158 184.891 176.846 184.891 176.465C184.891 176.205 184.796 175.975 184.605 175.776C184.423 175.568 184.189 175.408 183.903 175.295C183.617 175.182 183.331 175.117 183.045 175.1C182.759 175.117 182.473 175.182 182.187 175.295C181.901 175.408 181.663 175.568 181.472 175.776C181.29 175.975 181.199 176.205 181.199 176.465C181.199 176.846 181.373 177.158 181.719 177.401C182.066 177.644 182.508 177.765 183.045 177.765Z" fill="white"/>
<rect x="188" y="157" width="13" height="36" fill="#0079AD"/>
<rect x="201" y="157" width="36" height="36" fill="#E0F6FF"/>
<path d="M218.841 169.913C219.993 169.913 220.847 170.325 221.402 171.148C221.956 171.963 222.234 173.046 222.234 174.398C222.234 175.273 222.073 176.075 221.753 176.803C221.432 177.531 220.994 178.107 220.44 178.532C219.894 178.948 219.287 179.156 218.62 179.156C218.1 179.156 217.636 179.065 217.229 178.883C216.821 178.701 216.44 178.437 216.085 178.09L216.644 177.297C216.956 177.6 217.268 177.834 217.58 177.999C217.892 178.155 218.247 178.233 218.646 178.233C219.114 178.233 219.543 178.064 219.933 177.726C220.323 177.379 220.63 176.916 220.856 176.335C221.09 175.746 221.207 175.1 221.207 174.398V174.281C220.929 174.714 220.57 175.052 220.128 175.295C219.694 175.529 219.213 175.646 218.685 175.646C218.139 175.646 217.636 175.538 217.177 175.321C216.726 175.096 216.366 174.775 216.098 174.359C215.829 173.934 215.695 173.436 215.695 172.864C215.695 172.318 215.829 171.82 216.098 171.369C216.366 170.918 216.739 170.563 217.216 170.303C217.692 170.043 218.234 169.913 218.841 169.913ZM218.867 174.775C219.43 174.775 219.911 174.623 220.31 174.32C220.717 174.008 220.977 173.605 221.09 173.111C220.951 172.4 220.691 171.837 220.31 171.421C219.937 170.996 219.452 170.784 218.854 170.784C218.429 170.784 218.052 170.884 217.723 171.083C217.402 171.274 217.155 171.525 216.982 171.837C216.808 172.149 216.722 172.474 216.722 172.812C216.722 173.41 216.925 173.887 217.333 174.242C217.74 174.597 218.251 174.775 218.867 174.775Z" fill="#3A4D55"/>
<rect x="237" y="157" width="36" height="36" fill="#E0F6FF"/>
<path d="M250.545 171.304L248.985 172.318L248.543 171.564L250.74 170.069H251.559V179H250.545V171.304ZM257.327 179.156C256.608 179.156 255.966 178.961 255.403 178.571C254.84 178.172 254.398 177.622 254.077 176.92C253.765 176.218 253.609 175.421 253.609 174.528C253.609 173.635 253.765 172.842 254.077 172.149C254.398 171.447 254.84 170.901 255.403 170.511C255.966 170.112 256.608 169.913 257.327 169.913C258.038 169.913 258.675 170.112 259.238 170.511C259.801 170.901 260.239 171.447 260.551 172.149C260.872 172.842 261.032 173.635 261.032 174.528C261.032 175.421 260.872 176.218 260.551 176.92C260.239 177.622 259.801 178.172 259.238 178.571C258.683 178.961 258.046 179.156 257.327 179.156ZM257.327 178.22C257.847 178.22 258.311 178.064 258.718 177.752C259.125 177.431 259.442 176.994 259.667 176.439C259.892 175.876 260.005 175.239 260.005 174.528C260.005 173.817 259.892 173.185 259.667 172.63C259.442 172.067 259.125 171.629 258.718 171.317C258.311 171.005 257.847 170.849 257.327 170.849C256.807 170.849 256.343 171.005 255.936 171.317C255.529 171.629 255.208 172.067 254.974 172.63C254.749 173.185 254.636 173.817 254.636 174.528C254.636 175.239 254.749 175.876 254.974 176.439C255.208 176.994 255.529 177.431 255.936 177.752C256.343 178.064 256.807 178.22 257.327 178.22Z" fill="#3A4D55"/>
<rect x="21" y="197" width="36" height="36" fill="#E0F6FF"/>
<path d="M36.7155 211.304L35.1555 212.318L34.7135 211.564L36.9105 210.069H37.7295V219H36.7155V211.304ZM41.262 211.304L39.702 212.318L39.26 211.564L41.457 210.069H42.276V219H41.262V211.304Z" fill="#3A4D55"/>
<rect x="57" y="197" width="36" height="36" fill="#E0F6FF"/>
<path d="M71.3635 211.304L69.8035 212.318L69.3615 211.564L71.5585 210.069H72.3775V219H71.3635V211.304ZM74.0899 218.155L77.3529 215.373C77.9769 214.836 78.4276 214.346 78.7049 213.904C78.9909 213.453 79.1339 213.003 79.1339 212.552C79.1339 212.205 79.0473 211.902 78.8739 211.642C78.7006 211.373 78.4709 211.17 78.1849 211.031C77.8989 210.892 77.5956 210.823 77.2749 210.823C76.7809 210.823 76.3389 210.944 75.9489 211.187C75.5676 211.43 75.2123 211.772 74.8829 212.214L74.1679 211.629C74.9739 210.485 76.0226 209.913 77.3139 209.913C77.8339 209.913 78.3106 210.021 78.7439 210.238C79.1773 210.455 79.5196 210.762 79.7709 211.161C80.0309 211.56 80.1609 212.019 80.1609 212.539C80.1609 213.137 79.9963 213.705 79.6669 214.242C79.3463 214.771 78.8089 215.36 78.0549 216.01L75.7149 218.038H80.2519V219H74.0899V218.155Z" fill="#3A4D55"/>
<g clip-path="url(#clip0_20_23372)">
<rect x="93" y="197" width="36" height="36" rx="4" fill="#E0F6FF"/>
<path d="M106.994 211.941L105.46 212.916L104.81 211.772L107.319 210.069H108.619V219H106.994V211.941ZM113.553 219.156C112.799 219.156 112.123 219.022 111.525 218.753C110.936 218.476 110.45 218.107 110.069 217.648L111.057 216.582C111.369 216.937 111.733 217.215 112.149 217.414C112.565 217.613 113.011 217.713 113.488 217.713C114.025 217.713 114.446 217.596 114.749 217.362C115.061 217.119 115.217 216.799 115.217 216.4C115.217 216.001 115.052 215.702 114.723 215.503C114.402 215.295 113.926 215.191 113.293 215.191L112.292 215.204V213.8H113.293C113.83 213.809 114.255 213.709 114.567 213.501C114.879 213.284 115.035 212.985 115.035 212.604C115.035 212.24 114.879 211.945 114.567 211.72C114.264 211.486 113.869 211.369 113.384 211.369C112.959 211.369 112.569 211.464 112.214 211.655C111.859 211.846 111.521 212.119 111.2 212.474L110.238 211.486C111.07 210.437 112.162 209.913 113.514 209.913C114.138 209.913 114.688 210.017 115.165 210.225C115.65 210.433 116.023 210.723 116.283 211.096C116.552 211.46 116.686 211.876 116.686 212.344C116.686 212.864 116.53 213.302 116.218 213.657C115.906 214.012 115.499 214.264 114.996 214.411C115.525 214.532 115.971 214.775 116.335 215.139C116.699 215.503 116.881 215.967 116.881 216.53C116.881 217.041 116.742 217.496 116.465 217.895C116.188 218.285 115.798 218.593 115.295 218.818C114.792 219.043 114.212 219.156 113.553 219.156Z" fill="#3A4D55"/>
</g>
<rect x="93.5" y="197.5" width="35" height="35" rx="3.5" stroke="#6A7A81"/>
<rect x="129" y="197" width="36" height="36" fill="#E0F6FF"/>
<path d="M143.217 211.304L141.657 212.318L141.215 211.564L143.412 210.069H144.231V219H143.217V211.304ZM150.442 216.829H145.983L145.853 215.984L150.286 210.069H151.456V215.906H152.795V216.829H151.456V219H150.442V216.829ZM150.442 215.906V211.291L147.01 215.906H150.442Z" fill="#3A4D55"/>
<rect x="165" y="197" width="36" height="36" fill="#E0F6FF"/>
<path d="M179.186 211.304L177.626 212.318L177.184 211.564L179.381 210.069H180.2V219H179.186V211.304ZM185.331 219.156C184.673 219.156 184.079 219.03 183.55 218.779C183.03 218.528 182.575 218.181 182.185 217.739L182.848 216.998C183.611 217.83 184.452 218.246 185.37 218.246C185.778 218.246 186.142 218.159 186.462 217.986C186.783 217.813 187.03 217.574 187.203 217.271C187.385 216.968 187.476 216.63 187.476 216.257C187.476 215.685 187.277 215.221 186.878 214.866C186.48 214.511 185.968 214.333 185.344 214.333C184.634 214.333 183.971 214.563 183.355 215.022L182.614 214.658L182.744 210.069H188.022V211.031H183.732L183.641 214.034C184.231 213.635 184.868 213.436 185.552 213.436C186.098 213.436 186.592 213.549 187.034 213.774C187.485 213.991 187.84 214.311 188.1 214.736C188.369 215.152 188.503 215.646 188.503 216.218C188.503 216.799 188.365 217.314 188.087 217.765C187.819 218.207 187.442 218.549 186.956 218.792C186.48 219.035 185.938 219.156 185.331 219.156Z" fill="#3A4D55"/>
<rect x="201" y="197" width="36" height="36" rx="4" fill="#0079AD"/>
<path d="M214.797 211.941L213.263 212.916L212.613 211.772L215.122 210.069H216.422V219H214.797V211.941ZM222.201 213.293C222.756 213.293 223.259 213.406 223.709 213.631C224.169 213.856 224.533 214.186 224.801 214.619C225.07 215.044 225.204 215.542 225.204 216.114C225.204 216.695 225.061 217.219 224.775 217.687C224.489 218.146 224.091 218.506 223.579 218.766C223.077 219.026 222.509 219.156 221.876 219.156C220.654 219.156 219.736 218.749 219.12 217.934C218.514 217.119 218.21 216.036 218.21 214.684C218.21 213.774 218.375 212.959 218.704 212.24C219.042 211.512 219.51 210.944 220.108 210.537C220.706 210.121 221.387 209.913 222.149 209.913C223.155 209.913 224.047 210.247 224.827 210.914L224.034 212.149C223.731 211.889 223.432 211.69 223.137 211.551C222.843 211.412 222.513 211.343 222.149 211.343C221.525 211.343 221.005 211.616 220.589 212.162C220.182 212.708 219.948 213.419 219.887 214.294C220.165 213.982 220.507 213.739 220.914 213.566C221.322 213.384 221.751 213.293 222.201 213.293ZM221.798 217.778C222.145 217.778 222.453 217.704 222.721 217.557C222.99 217.41 223.194 217.215 223.332 216.972C223.48 216.721 223.553 216.456 223.553 216.179C223.553 215.702 223.38 215.325 223.033 215.048C222.695 214.762 222.275 214.619 221.772 214.619C221.339 214.619 220.962 214.732 220.641 214.957C220.321 215.174 220.095 215.468 219.965 215.841C220.173 217.132 220.784 217.778 221.798 217.778Z" fill="white"/>
<rect x="201" y="197" width="11" height="36" fill="#0079AD"/>
<path d="M251.694 211.304L250.134 212.318L249.692 211.564L251.889 210.069H252.708V219H251.694V211.304ZM259.1 211.031H254.264V210.069H260.309V210.836L256.461 219H255.291L259.1 211.031Z" fill="#3A4D55"/>
<path d="M35.0016 251.304L33.4416 252.318L32.9996 251.564L35.1966 250.069H36.0156V259H35.0016V251.304ZM41.3161 259.156C40.7008 259.156 40.1461 259.052 39.6521 258.844C39.1581 258.636 38.7681 258.346 38.4821 257.973C38.1961 257.592 38.0531 257.154 38.0531 256.66C38.0531 256.123 38.2351 255.655 38.5991 255.256C38.9718 254.857 39.4485 254.567 40.0291 254.385C39.4918 254.177 39.0671 253.9 38.7551 253.553C38.4431 253.198 38.2871 252.773 38.2871 252.279C38.2871 251.802 38.4258 251.386 38.7031 251.031C38.9891 250.667 39.3618 250.39 39.8211 250.199C40.2891 250.008 40.7875 249.913 41.3161 249.913C41.8535 249.913 42.3518 250.013 42.8111 250.212C43.2791 250.403 43.6518 250.68 43.9291 251.044C44.2151 251.399 44.3581 251.815 44.3581 252.292C44.3581 252.803 44.1935 253.232 43.8641 253.579C43.5435 253.926 43.1275 254.194 42.6161 254.385C43.1881 254.576 43.6561 254.87 44.0201 255.269C44.3928 255.668 44.5791 256.131 44.5791 256.66C44.5791 257.154 44.4361 257.592 44.1501 257.973C43.8641 258.346 43.4698 258.636 42.9671 258.844C42.4731 259.052 41.9228 259.156 41.3161 259.156ZM41.3161 253.982C41.6281 253.965 41.9401 253.891 42.2521 253.761C42.5641 253.631 42.8198 253.449 43.0191 253.215C43.2271 252.981 43.3311 252.704 43.3311 252.383C43.3311 252.088 43.2401 251.824 43.0581 251.59C42.8848 251.356 42.6421 251.174 42.3301 251.044C42.0268 250.905 41.6888 250.836 41.3161 250.836C40.7528 250.836 40.2761 250.983 39.8861 251.278C39.5048 251.573 39.3141 251.941 39.3141 252.383C39.3141 252.712 39.4181 252.994 39.6261 253.228C39.8341 253.462 40.0898 253.644 40.3931 253.774C40.7051 253.895 41.0128 253.965 41.3161 253.982ZM41.3161 258.233C41.7235 258.233 42.0961 258.164 42.4341 258.025C42.7808 257.886 43.0538 257.696 43.2531 257.453C43.4525 257.202 43.5521 256.916 43.5521 256.595C43.5521 256.257 43.4351 255.958 43.2011 255.698C42.9671 255.438 42.6768 255.239 42.3301 255.1C41.9835 254.953 41.6455 254.875 41.3161 254.866C40.9868 254.875 40.6488 254.953 40.3021 255.1C39.9555 255.239 39.6651 255.438 39.4311 255.698C39.1971 255.958 39.0801 256.257 39.0801 256.595C39.0801 256.916 39.1798 257.202 39.3791 257.453C39.5785 257.696 39.8471 257.886 40.1851 258.025C40.5318 258.164 40.9088 258.233 41.3161 258.233Z" fill="#3A4D55"/>
<path d="M71.0334 251.304L69.4734 252.318L69.0314 251.564L71.2284 250.069H72.0474V259H71.0334V251.304ZM77.1139 249.913C78.2665 249.913 79.1202 250.325 79.6749 251.148C80.2295 251.963 80.5069 253.046 80.5069 254.398C80.5069 255.273 80.3465 256.075 80.0259 256.803C79.7052 257.531 79.2675 258.107 78.7129 258.532C78.1669 258.948 77.5602 259.156 76.8929 259.156C76.3729 259.156 75.9092 259.065 75.5019 258.883C75.0945 258.701 74.7132 258.437 74.3579 258.09L74.9169 257.297C75.2289 257.6 75.5409 257.834 75.8529 257.999C76.1649 258.155 76.5202 258.233 76.9189 258.233C77.3869 258.233 77.8159 258.064 78.2059 257.726C78.5959 257.379 78.9035 256.916 79.1289 256.335C79.3629 255.746 79.4799 255.1 79.4799 254.398V254.281C79.2025 254.714 78.8429 255.052 78.4009 255.295C77.9675 255.529 77.4865 255.646 76.9579 255.646C76.4119 255.646 75.9092 255.538 75.4499 255.321C74.9992 255.096 74.6395 254.775 74.3709 254.359C74.1022 253.934 73.9679 253.436 73.9679 252.864C73.9679 252.318 74.1022 251.82 74.3709 251.369C74.6395 250.918 75.0122 250.563 75.4889 250.303C75.9655 250.043 76.5072 249.913 77.1139 249.913ZM77.1399 254.775C77.7032 254.775 78.1842 254.623 78.5829 254.32C78.9902 254.008 79.2502 253.605 79.3629 253.111C79.2242 252.4 78.9642 251.837 78.5829 251.421C78.2102 250.996 77.7249 250.784 77.1269 250.784C76.7022 250.784 76.3252 250.884 75.9959 251.083C75.6752 251.274 75.4282 251.525 75.2549 251.837C75.0815 252.149 74.9949 252.474 74.9949 252.812C74.9949 253.41 75.1985 253.887 75.6059 254.242C76.0132 254.597 76.5245 254.775 77.1399 254.775Z" fill="#3A4D55"/>
<path d="M103.373 258.155L106.636 255.373C107.26 254.836 107.71 254.346 107.988 253.904C108.274 253.453 108.417 253.003 108.417 252.552C108.417 252.205 108.33 251.902 108.157 251.642C107.983 251.373 107.754 251.17 107.468 251.031C107.182 250.892 106.878 250.823 106.558 250.823C106.064 250.823 105.622 250.944 105.232 251.187C104.85 251.43 104.495 251.772 104.166 252.214L103.451 251.629C104.257 250.485 105.305 249.913 106.597 249.913C107.117 249.913 107.593 250.021 108.027 250.238C108.46 250.455 108.802 250.762 109.054 251.161C109.314 251.56 109.444 252.019 109.444 252.539C109.444 253.137 109.279 253.705 108.95 254.242C108.629 254.771 108.092 255.36 107.338 256.01L104.998 258.038H109.535V259H103.373V258.155ZM114.679 259.156C113.96 259.156 113.318 258.961 112.755 258.571C112.192 258.172 111.75 257.622 111.429 256.92C111.117 256.218 110.961 255.421 110.961 254.528C110.961 253.635 111.117 252.842 111.429 252.149C111.75 251.447 112.192 250.901 112.755 250.511C113.318 250.112 113.96 249.913 114.679 249.913C115.39 249.913 116.027 250.112 116.59 250.511C117.153 250.901 117.591 251.447 117.903 252.149C118.224 252.842 118.384 253.635 118.384 254.528C118.384 255.421 118.224 256.218 117.903 256.92C117.591 257.622 117.153 258.172 116.59 258.571C116.035 258.961 115.398 259.156 114.679 259.156ZM114.679 258.22C115.199 258.22 115.663 258.064 116.07 257.752C116.477 257.431 116.794 256.994 117.019 256.439C117.244 255.876 117.357 255.239 117.357 254.528C117.357 253.817 117.244 253.185 117.019 252.63C116.794 252.067 116.477 251.629 116.07 251.317C115.663 251.005 115.199 250.849 114.679 250.849C114.159 250.849 113.695 251.005 113.288 251.317C112.881 251.629 112.56 252.067 112.326 252.63C112.101 253.185 111.988 253.817 111.988 254.528C111.988 255.239 112.101 255.876 112.326 256.439C112.56 256.994 112.881 257.431 113.288 257.752C113.695 258.064 114.159 258.22 114.679 258.22Z" fill="#3A4D55"/>
<path d="M141.543 258.155L144.806 255.373C145.43 254.836 145.881 254.346 146.158 253.904C146.444 253.453 146.587 253.003 146.587 252.552C146.587 252.205 146.501 251.902 146.327 251.642C146.154 251.373 145.924 251.17 145.638 251.031C145.352 250.892 145.049 250.823 144.728 250.823C144.234 250.823 143.792 250.944 143.402 251.187C143.021 251.43 142.666 251.772 142.336 252.214L141.621 251.629C142.427 250.485 143.476 249.913 144.767 249.913C145.287 249.913 145.764 250.021 146.197 250.238C146.631 250.455 146.973 250.762 147.224 251.161C147.484 251.56 147.614 252.019 147.614 252.539C147.614 253.137 147.45 253.705 147.12 254.242C146.8 254.771 146.262 255.36 145.508 256.01L143.168 258.038H147.705V259H141.543V258.155ZM150.614 251.304L149.054 252.318L148.612 251.564L150.809 250.069H151.628V259H150.614V251.304Z" fill="#3A4D55"/>
<path d="M176.191 258.155L179.454 255.373C180.078 254.836 180.529 254.346 180.806 253.904C181.092 253.453 181.235 253.003 181.235 252.552C181.235 252.205 181.149 251.902 180.975 251.642C180.802 251.373 180.572 251.17 180.286 251.031C180 250.892 179.697 250.823 179.376 250.823C178.882 250.823 178.44 250.944 178.05 251.187C177.669 251.43 177.314 251.772 176.984 252.214L176.269 251.629C177.075 250.485 178.124 249.913 179.415 249.913C179.935 249.913 180.412 250.021 180.845 250.238C181.279 250.455 181.621 250.762 181.872 251.161C182.132 251.56 182.262 252.019 182.262 252.539C182.262 253.137 182.098 253.705 181.768 254.242C181.448 254.771 180.91 255.36 180.156 256.01L177.816 258.038H182.353V259H176.191V258.155ZM183.442 258.155L186.705 255.373C187.329 254.836 187.78 254.346 188.057 253.904C188.343 253.453 188.486 253.003 188.486 252.552C188.486 252.205 188.399 251.902 188.226 251.642C188.053 251.373 187.823 251.17 187.537 251.031C187.251 250.892 186.948 250.823 186.627 250.823C186.133 250.823 185.691 250.944 185.301 251.187C184.92 251.43 184.564 251.772 184.235 252.214L183.52 251.629C184.326 250.485 185.375 249.913 186.666 249.913C187.186 249.913 187.663 250.021 188.096 250.238C188.529 250.455 188.872 250.762 189.123 251.161C189.383 251.56 189.513 252.019 189.513 252.539C189.513 253.137 189.348 253.705 189.019 254.242C188.698 254.771 188.161 255.36 187.407 256.01L185.067 258.038H189.604V259H183.442V258.155Z" fill="#3A4D55"/>
<path d="M212.084 258.155L215.347 255.373C215.971 254.836 216.421 254.346 216.699 253.904C216.985 253.453 217.128 253.003 217.128 252.552C217.128 252.205 217.041 251.902 216.868 251.642C216.694 251.373 216.465 251.17 216.179 251.031C215.893 250.892 215.589 250.823 215.269 250.823C214.775 250.823 214.333 250.944 213.943 251.187C213.561 251.43 213.206 251.772 212.877 252.214L212.162 251.629C212.968 250.485 214.016 249.913 215.308 249.913C215.828 249.913 216.304 250.021 216.738 250.238C217.171 250.455 217.513 250.762 217.765 251.161C218.025 251.56 218.155 252.019 218.155 252.539C218.155 253.137 217.99 253.705 217.661 254.242C217.34 254.771 216.803 255.36 216.049 256.01L213.709 258.038H218.246V259H212.084V258.155ZM222.532 259.156C221.83 259.156 221.197 259.017 220.634 258.74C220.079 258.454 219.629 258.081 219.282 257.622L219.984 256.959C220.287 257.358 220.656 257.67 221.089 257.895C221.522 258.12 222.003 258.233 222.532 258.233C223.156 258.233 223.659 258.077 224.04 257.765C224.421 257.453 224.612 257.041 224.612 256.53C224.612 256.01 224.408 255.616 224.001 255.347C223.594 255.078 223.03 254.944 222.311 254.944H221.362V254.008L222.324 254.021C222.939 254.03 223.442 253.895 223.832 253.618C224.222 253.332 224.417 252.942 224.417 252.448C224.417 251.98 224.226 251.594 223.845 251.291C223.472 250.988 223.004 250.836 222.441 250.836C221.973 250.836 221.553 250.944 221.18 251.161C220.807 251.378 220.452 251.69 220.114 252.097L219.438 251.486C220.227 250.437 221.245 249.913 222.493 249.913C223.056 249.913 223.559 250.017 224.001 250.225C224.452 250.424 224.803 250.71 225.054 251.083C225.314 251.447 225.444 251.863 225.444 252.331C225.444 252.868 225.279 253.315 224.95 253.67C224.629 254.025 224.218 254.277 223.715 254.424C224.244 254.545 224.694 254.788 225.067 255.152C225.448 255.516 225.639 255.993 225.639 256.582C225.639 257.076 225.509 257.518 225.249 257.908C224.989 258.298 224.621 258.606 224.144 258.831C223.676 259.048 223.139 259.156 222.532 259.156Z" fill="#3A4D55"/>
<path d="M248.045 258.155L251.308 255.373C251.932 254.836 252.383 254.346 252.66 253.904C252.946 253.453 253.089 253.003 253.089 252.552C253.089 252.205 253.003 251.902 252.829 251.642C252.656 251.373 252.426 251.17 252.14 251.031C251.854 250.892 251.551 250.823 251.23 250.823C250.736 250.823 250.294 250.944 249.904 251.187C249.523 251.43 249.168 251.772 248.838 252.214L248.123 251.629C248.929 250.485 249.978 249.913 251.269 249.913C251.789 249.913 252.266 250.021 252.699 250.238C253.133 250.455 253.475 250.762 253.726 251.161C253.986 251.56 254.116 252.019 254.116 252.539C254.116 253.137 253.952 253.705 253.622 254.242C253.302 254.771 252.764 255.36 252.01 256.01L249.67 258.038H254.207V259H248.045V258.155ZM259.794 256.829H255.335L255.205 255.984L259.638 250.069H260.808V255.906H262.147V256.829H260.808V259H259.794V256.829ZM259.794 255.906V251.291L256.362 255.906H259.794Z" fill="#3A4D55"/>
<path d="M32.0137 298.155L35.2767 295.373C35.9007 294.836 36.3513 294.346 36.6287 293.904C36.9147 293.453 37.0577 293.003 37.0577 292.552C37.0577 292.205 36.971 291.902 36.7977 291.642C36.6243 291.373 36.3947 291.17 36.1087 291.031C35.8227 290.892 35.5193 290.823 35.1987 290.823C34.7047 290.823 34.2627 290.944 33.8727 291.187C33.4913 291.43 33.136 291.772 32.8067 292.214L32.0917 291.629C32.8977 290.485 33.9463 289.913 35.2377 289.913C35.7577 289.913 36.2343 290.021 36.6677 290.238C37.101 290.455 37.4433 290.762 37.6947 291.161C37.9547 291.56 38.0847 292.019 38.0847 292.539C38.0847 293.137 37.92 293.705 37.5907 294.242C37.27 294.771 36.7327 295.36 35.9787 296.01L33.6387 298.038H38.1757V299H32.0137V298.155ZM42.6833 299.156C42.0246 299.156 41.4309 299.03 40.9023 298.779C40.3823 298.528 39.9273 298.181 39.5373 297.739L40.2003 296.998C40.9629 297.83 41.8036 298.246 42.7223 298.246C43.1296 298.246 43.4936 298.159 43.8143 297.986C44.1349 297.813 44.3819 297.574 44.5553 297.271C44.7373 296.968 44.8283 296.63 44.8283 296.257C44.8283 295.685 44.6289 295.221 44.2303 294.866C43.8316 294.511 43.3203 294.333 42.6963 294.333C41.9856 294.333 41.3226 294.563 40.7073 295.022L39.9663 294.658L40.0963 290.069H45.3743V291.031H41.0843L40.9933 294.034C41.5826 293.635 42.2196 293.436 42.9043 293.436C43.4503 293.436 43.9443 293.549 44.3863 293.774C44.8369 293.991 45.1923 294.311 45.4523 294.736C45.7209 295.152 45.8553 295.646 45.8553 296.218C45.8553 296.799 45.7166 297.314 45.4393 297.765C45.1706 298.207 44.7936 298.549 44.3083 298.792C43.8316 299.035 43.2899 299.156 42.6833 299.156Z" fill="#3A4D55"/>
<path d="M67.8613 298.155L71.1243 295.373C71.7483 294.836 72.199 294.346 72.4763 293.904C72.7623 293.453 72.9053 293.003 72.9053 292.552C72.9053 292.205 72.8187 291.902 72.6453 291.642C72.472 291.373 72.2423 291.17 71.9563 291.031C71.6703 290.892 71.367 290.823 71.0463 290.823C70.5523 290.823 70.1103 290.944 69.7203 291.187C69.339 291.43 68.9837 291.772 68.6543 292.214L67.9393 291.629C68.7453 290.485 69.794 289.913 71.0853 289.913C71.6053 289.913 72.082 290.021 72.5153 290.238C72.9487 290.455 73.291 290.762 73.5423 291.161C73.8023 291.56 73.9323 292.019 73.9323 292.539C73.9323 293.137 73.7677 293.705 73.4383 294.242C73.1177 294.771 72.5803 295.36 71.8263 296.01L69.4863 298.038H74.0233V299H67.8613V298.155ZM79.0379 293.423C79.5839 293.423 80.0823 293.536 80.5329 293.761C80.9923 293.978 81.3563 294.298 81.6249 294.723C81.8936 295.139 82.0279 295.633 82.0279 296.205C82.0279 296.751 81.8936 297.249 81.6249 297.7C81.3563 298.151 80.9836 298.506 80.5069 298.766C80.0303 299.026 79.4886 299.156 78.8819 299.156C77.7293 299.156 76.8756 298.749 76.3209 297.934C75.7663 297.111 75.4889 296.023 75.4889 294.671C75.4889 293.796 75.6493 292.994 75.9699 292.266C76.2906 291.538 76.7239 290.966 77.2699 290.55C77.8246 290.125 78.4356 289.913 79.1029 289.913C79.6229 289.913 80.0866 290.004 80.4939 290.186C80.9013 290.368 81.2826 290.632 81.6379 290.979L81.0789 291.772C80.7669 291.469 80.4549 291.239 80.1429 291.083C79.8309 290.918 79.4756 290.836 79.0769 290.836C78.6089 290.836 78.1799 291.009 77.7899 291.356C77.3999 291.694 77.0879 292.158 76.8539 292.747C76.6286 293.328 76.5159 293.969 76.5159 294.671V294.788C76.7933 294.355 77.1486 294.021 77.5819 293.787C78.0239 293.544 78.5093 293.423 79.0379 293.423ZM78.8689 298.285C79.2936 298.285 79.6663 298.19 79.9869 297.999C80.3163 297.8 80.5676 297.544 80.7409 297.232C80.9143 296.92 81.0009 296.595 81.0009 296.257C81.0009 295.659 80.7973 295.182 80.3899 294.827C79.9826 294.472 79.4713 294.294 78.8559 294.294C78.2926 294.294 77.8073 294.45 77.3999 294.762C77.0013 295.065 76.7456 295.464 76.6329 295.958C76.7716 296.669 77.0273 297.236 77.3999 297.661C77.7813 298.077 78.2709 298.285 78.8689 298.285Z" fill="#3A4D55"/>
<path d="M104.521 298.155L107.784 295.373C108.408 294.836 108.859 294.346 109.136 293.904C109.422 293.453 109.565 293.003 109.565 292.552C109.565 292.205 109.479 291.902 109.305 291.642C109.132 291.373 108.902 291.17 108.616 291.031C108.33 290.892 108.027 290.823 107.706 290.823C107.212 290.823 106.77 290.944 106.38 291.187C105.999 291.43 105.644 291.772 105.314 292.214L104.599 291.629C105.405 290.485 106.454 289.913 107.745 289.913C108.265 289.913 108.742 290.021 109.175 290.238C109.609 290.455 109.951 290.762 110.202 291.161C110.462 291.56 110.592 292.019 110.592 292.539C110.592 293.137 110.428 293.705 110.098 294.242C109.778 294.771 109.24 295.36 108.486 296.01L106.146 298.038H110.683V299H104.521V298.155ZM116.452 291.031H111.616V290.069H117.661V290.836L113.813 299H112.643L116.452 291.031Z" fill="#3A4D55"/>
<path d="M139.83 298.155L143.093 295.373C143.717 294.836 144.167 294.346 144.445 293.904C144.731 293.453 144.874 293.003 144.874 292.552C144.874 292.205 144.787 291.902 144.614 291.642C144.44 291.373 144.211 291.17 143.925 291.031C143.639 290.892 143.335 290.823 143.015 290.823C142.521 290.823 142.079 290.944 141.689 291.187C141.307 291.43 140.952 291.772 140.623 292.214L139.908 291.629C140.714 290.485 141.762 289.913 143.054 289.913C143.574 289.913 144.05 290.021 144.484 290.238C144.917 290.455 145.259 290.762 145.511 291.161C145.771 291.56 145.901 292.019 145.901 292.539C145.901 293.137 145.736 293.705 145.407 294.242C145.086 294.771 144.549 295.36 143.795 296.01L141.455 298.038H145.992V299H139.83V298.155ZM150.668 299.156C150.053 299.156 149.498 299.052 149.004 298.844C148.51 298.636 148.12 298.346 147.834 297.973C147.548 297.592 147.405 297.154 147.405 296.66C147.405 296.123 147.587 295.655 147.951 295.256C148.324 294.857 148.801 294.567 149.381 294.385C148.844 294.177 148.419 293.9 148.107 293.553C147.795 293.198 147.639 292.773 147.639 292.279C147.639 291.802 147.778 291.386 148.055 291.031C148.341 290.667 148.714 290.39 149.173 290.199C149.641 290.008 150.14 289.913 150.668 289.913C151.206 289.913 151.704 290.013 152.163 290.212C152.631 290.403 153.004 290.68 153.281 291.044C153.567 291.399 153.71 291.815 153.71 292.292C153.71 292.803 153.546 293.232 153.216 293.579C152.896 293.926 152.48 294.194 151.968 294.385C152.54 294.576 153.008 294.87 153.372 295.269C153.745 295.668 153.931 296.131 153.931 296.66C153.931 297.154 153.788 297.592 153.502 297.973C153.216 298.346 152.822 298.636 152.319 298.844C151.825 299.052 151.275 299.156 150.668 299.156ZM150.668 293.982C150.98 293.965 151.292 293.891 151.604 293.761C151.916 293.631 152.172 293.449 152.371 293.215C152.579 292.981 152.683 292.704 152.683 292.383C152.683 292.088 152.592 291.824 152.41 291.59C152.237 291.356 151.994 291.174 151.682 291.044C151.379 290.905 151.041 290.836 150.668 290.836C150.105 290.836 149.628 290.983 149.238 291.278C148.857 291.573 148.666 291.941 148.666 292.383C148.666 292.712 148.77 292.994 148.978 293.228C149.186 293.462 149.442 293.644 149.745 293.774C150.057 293.895 150.365 293.965 150.668 293.982ZM150.668 298.233C151.076 298.233 151.448 298.164 151.786 298.025C152.133 297.886 152.406 297.696 152.605 297.453C152.805 297.202 152.904 296.916 152.904 296.595C152.904 296.257 152.787 295.958 152.553 295.698C152.319 295.438 152.029 295.239 151.682 295.1C151.336 294.953 150.998 294.875 150.668 294.866C150.339 294.875 150.001 294.953 149.654 295.1C149.308 295.239 149.017 295.438 148.783 295.698C148.549 295.958 148.432 296.257 148.432 296.595C148.432 296.916 148.532 297.202 148.731 297.453C148.931 297.696 149.199 297.886 149.537 298.025C149.884 298.164 150.261 298.233 150.668 298.233Z" fill="#3A4D55"/>
<mask id="path-125-inside-2_20_23372" fill="white">
<path d="M21 365H273V417H21V365Z"/>
</mask>
<path d="M21 366H273V364H21V366Z" fill="#CBD4D8" mask="url(#path-125-inside-2_20_23372)"/>
<path d="M113.5 385C113.5 383.067 115.067 381.5 117 381.5H190C191.933 381.5 193.5 383.067 193.5 385V413C193.5 414.933 191.933 416.5 190 416.5H117C115.067 416.5 113.5 414.933 113.5 413V385Z" stroke="#0079AD"/>
<path d="M129.92 403.144C129.152 403.144 128.436 402.952 127.772 402.568C127.108 402.176 126.58 401.652 126.188 400.996C125.796 400.34 125.6 399.632 125.6 398.872C125.6 398.112 125.796 397.408 126.188 396.76C126.58 396.104 127.108 395.584 127.772 395.2C128.436 394.808 129.152 394.612 129.92 394.612C130.512 394.612 131.076 394.732 131.612 394.972C132.156 395.204 132.632 395.528 133.04 395.944L131.972 396.94C131.708 396.636 131.396 396.4 131.036 396.232C130.684 396.064 130.312 395.98 129.92 395.98C129.424 395.98 128.96 396.112 128.528 396.376C128.104 396.64 127.764 396.996 127.508 397.444C127.252 397.884 127.124 398.36 127.124 398.872C127.124 399.392 127.252 399.876 127.508 400.324C127.764 400.764 128.104 401.116 128.528 401.38C128.96 401.644 129.424 401.776 129.92 401.776C130.312 401.776 130.684 401.692 131.036 401.524C131.396 401.356 131.712 401.12 131.984 400.816L133.04 401.8C132.64 402.224 132.168 402.556 131.624 402.796C131.088 403.028 130.52 403.144 129.92 403.144ZM141.001 401.44H137.065L136.417 403H134.749L138.193 394.756H139.861L143.305 403H141.649L141.001 401.44ZM140.485 400.216L139.033 396.748L137.581 400.216H140.485ZM145.742 394.756H147.23L151.586 400.552V394.756H153.074V403H151.586L147.23 397.204V403H145.742V394.756ZM160.131 403.144C159.363 403.144 158.647 402.952 157.983 402.568C157.319 402.176 156.791 401.652 156.399 400.996C156.007 400.34 155.811 399.632 155.811 398.872C155.811 398.112 156.007 397.408 156.399 396.76C156.791 396.104 157.319 395.584 157.983 395.2C158.647 394.808 159.363 394.612 160.131 394.612C160.723 394.612 161.287 394.732 161.823 394.972C162.367 395.204 162.843 395.528 163.251 395.944L162.183 396.94C161.919 396.636 161.607 396.4 161.247 396.232C160.895 396.064 160.523 395.98 160.131 395.98C159.635 395.98 159.171 396.112 158.739 396.376C158.315 396.64 157.975 396.996 157.719 397.444C157.463 397.884 157.335 398.36 157.335 398.872C157.335 399.392 157.463 399.876 157.719 400.324C157.975 400.764 158.315 401.116 158.739 401.38C159.171 401.644 159.635 401.776 160.131 401.776C160.523 401.776 160.895 401.692 161.247 401.524C161.607 401.356 161.923 401.12 162.195 400.816L163.251 401.8C162.851 402.224 162.379 402.556 161.835 402.796C161.299 403.028 160.731 403.144 160.131 403.144ZM167.3 396.124V398.116H171.548V399.484H167.3V401.632H172.004V403H165.8V394.756H172.004V396.124H167.3ZM180.54 401.632V403H174.816V394.756H176.304V401.632H180.54Z" fill="#0079AD"/>
<path d="M202.5 385C202.5 383.067 204.067 381.5 206 381.5H269C270.933 381.5 272.5 383.067 272.5 385V413C272.5 414.933 270.933 416.5 269 416.5H206C204.067 416.5 202.5 414.933 202.5 413V385Z" fill="#0079AD"/>
<path d="M202.5 385C202.5 383.067 204.067 381.5 206 381.5H269C270.933 381.5 272.5 383.067 272.5 385V413C272.5 414.933 270.933 416.5 269 416.5H206C204.067 416.5 202.5 414.933 202.5 413V385Z" stroke="#0079AD"/>
<path d="M220.552 401.44H216.616L215.968 403H214.3L217.744 394.756H219.412L222.856 403H221.2L220.552 401.44ZM220.036 400.216L218.584 396.748L217.132 400.216H220.036ZM225.292 394.756H228.88C229.456 394.756 229.98 394.872 230.452 395.104C230.924 395.336 231.292 395.66 231.556 396.076C231.828 396.492 231.964 396.964 231.964 397.492C231.964 398.02 231.828 398.492 231.556 398.908C231.292 399.324 230.924 399.648 230.452 399.88C229.98 400.112 229.456 400.228 228.88 400.228H226.78V403H225.292V394.756ZM228.7 398.848C229.22 398.848 229.636 398.728 229.948 398.488C230.268 398.24 230.428 397.908 230.428 397.492C230.428 397.076 230.268 396.748 229.948 396.508C229.636 396.26 229.22 396.136 228.7 396.136H226.78V398.848H228.7ZM234.601 394.756H238.189C238.765 394.756 239.289 394.872 239.761 395.104C240.233 395.336 240.601 395.66 240.865 396.076C241.137 396.492 241.273 396.964 241.273 397.492C241.273 398.02 241.137 398.492 240.865 398.908C240.601 399.324 240.233 399.648 239.761 399.88C239.289 400.112 238.765 400.228 238.189 400.228H236.089V403H234.601V394.756ZM238.009 398.848C238.529 398.848 238.945 398.728 239.257 398.488C239.577 398.24 239.737 397.908 239.737 397.492C239.737 397.076 239.577 396.748 239.257 396.508C238.945 396.26 238.529 396.136 238.009 396.136H236.089V398.848H238.009ZM249.634 401.632V403H243.91V394.756H245.398V401.632H249.634ZM254.493 399.904L251.229 394.756H252.993L255.261 398.488L257.565 394.756H259.269L256.017 399.904V403H254.493V399.904Z" fill="white"/>
<defs>
<clipPath id="clip0_20_23372">
<rect x="93" y="197" width="36" height="36" rx="4" fill="white"/>
</clipPath>
</defs>
</svg>
