<svg width="928" height="360" viewBox="0 0 928 360" fill="none" xmlns="http://www.w3.org/2000/svg">
<rect x="0.5" y="0.5" width="927" height="359" rx="3.5" fill="#FCFDFD"/>
<g filter="url(#filter0_d_10315_11798)">
<rect x="120.5" y="50" width="96" height="97" fill="white"/>
<rect opacity="0.3" x="135.966" y="69.0244" width="50.1409" height="2" rx="1" fill="#4F6169"/>
<rect opacity="0.3" x="135.966" y="83.0244" width="60.397" height="2" rx="1" fill="#4F6169"/>
<rect opacity="0.3" x="135.966" y="97.0244" width="55.8387" height="2" rx="1" fill="#4F6169"/>
<rect opacity="0.3" x="135.966" y="111.024" width="60.397" height="2" rx="1" fill="#4F6169"/>
<rect opacity="0.3" x="135.5" y="125" width="54" height="2" rx="1" fill="#4F6169"/>
<rect x="121" y="50.5" width="95" height="96" stroke="#ACB8BE"/>
</g>
<g filter="url(#filter1_d_10315_11798)">
<rect x="527.5" y="50" width="96" height="97" fill="white"/>
<rect opacity="0.3" x="542.966" y="69.0244" width="50.1409" height="2" rx="1" fill="#4F6169"/>
<rect opacity="0.3" x="542.966" y="83.0244" width="60.397" height="2" rx="1" fill="#4F6169"/>
<rect opacity="0.3" x="542.966" y="97.0244" width="55.8387" height="2" rx="1" fill="#4F6169"/>
<rect opacity="0.3" x="542.966" y="111.024" width="60.397" height="2" rx="1" fill="#4F6169"/>
<rect opacity="0.3" x="542.5" y="125" width="54" height="2" rx="1" fill="#4F6169"/>
<rect x="528" y="50.5" width="95" height="96" stroke="#ACB8BE"/>
</g>
<g filter="url(#filter2_d_10315_11798)">
<rect x="527.5" y="225" width="96" height="97" fill="white"/>
<rect opacity="0.3" x="542.966" y="244.024" width="50.1409" height="2" rx="1" fill="#4F6169"/>
<rect opacity="0.3" x="542.966" y="258.024" width="60.397" height="2" rx="1" fill="#4F6169"/>
<rect opacity="0.3" x="542.966" y="272.024" width="55.8387" height="2" rx="1" fill="#4F6169"/>
<rect opacity="0.3" x="542.966" y="286.024" width="60.397" height="2" rx="1" fill="#4F6169"/>
<rect opacity="0.3" x="542.5" y="300" width="54" height="2" rx="1" fill="#4F6169"/>
<rect x="528" y="225.5" width="95" height="96" stroke="#ACB8BE"/>
</g>
<g filter="url(#filter3_d_10315_11798)">
<rect x="670.5" y="225" width="96" height="97" fill="white"/>
<rect opacity="0.3" x="685.966" y="244.024" width="50.1409" height="2" rx="1" fill="#4F6169"/>
<rect opacity="0.3" x="685.966" y="258.024" width="60.397" height="2" rx="1" fill="#4F6169"/>
<rect opacity="0.3" x="685.966" y="272.024" width="55.8387" height="2" rx="1" fill="#4F6169"/>
<rect opacity="0.3" x="685.966" y="286.024" width="60.397" height="2" rx="1" fill="#4F6169"/>
<rect opacity="0.3" x="685.5" y="300" width="54" height="2" rx="1" fill="#4F6169"/>
<rect x="671" y="225.5" width="95" height="96" stroke="#ACB8BE"/>
</g>
<g filter="url(#filter4_d_10315_11798)">
<rect x="671.5" y="50" width="96" height="97" fill="white"/>
<rect opacity="0.3" x="686.966" y="69.0244" width="50.1409" height="2" rx="1" fill="#4F6169"/>
<rect opacity="0.3" x="686.966" y="83.0244" width="60.397" height="2" rx="1" fill="#4F6169"/>
<rect opacity="0.3" x="686.966" y="97.0244" width="55.8387" height="2" rx="1" fill="#4F6169"/>
<rect opacity="0.3" x="686.966" y="111.024" width="60.397" height="2" rx="1" fill="#4F6169"/>
<rect opacity="0.3" x="686.5" y="125" width="54" height="2" rx="1" fill="#4F6169"/>
<rect x="672" y="50.5" width="95" height="96" stroke="#ACB8BE"/>
</g>
<g filter="url(#filter5_d_10315_11798)">
<rect x="264.5" y="50" width="96" height="97" fill="white"/>
<rect opacity="0.3" x="279.966" y="69.0244" width="50.1409" height="2" rx="1" fill="#4F6169"/>
<rect opacity="0.3" x="279.966" y="83.0244" width="60.397" height="2" rx="1" fill="#4F6169"/>
<rect opacity="0.3" x="279.966" y="97.0244" width="55.8387" height="2" rx="1" fill="#4F6169"/>
<rect opacity="0.3" x="279.966" y="111.024" width="60.397" height="2" rx="1" fill="#4F6169"/>
<rect opacity="0.3" x="279.5" y="125" width="54" height="2" rx="1" fill="#4F6169"/>
<rect x="265" y="50.5" width="95" height="96" stroke="#ACB8BE"/>
</g>
<g filter="url(#filter6_d_10315_11798)">
<rect x="120.5" y="225.471" width="96" height="97" fill="white"/>
<rect opacity="0.3" x="135.966" y="244.496" width="50.1409" height="2" rx="1" fill="#4F6169"/>
<rect opacity="0.3" x="135.966" y="258.496" width="60.397" height="2" rx="1" fill="#4F6169"/>
<rect opacity="0.3" x="135.966" y="272.496" width="55.8387" height="2" rx="1" fill="#4F6169"/>
<rect opacity="0.3" x="135.966" y="286.496" width="60.397" height="2" rx="1" fill="#4F6169"/>
<rect opacity="0.3" x="135.5" y="300.471" width="54" height="2" rx="1" fill="#4F6169"/>
<rect x="121" y="225.971" width="95" height="96" stroke="#ACB8BE"/>
</g>
<g filter="url(#filter7_d_10315_11798)">
<rect x="264.5" y="225.471" width="96" height="97" fill="white"/>
<rect opacity="0.3" x="279.966" y="244.496" width="50.1409" height="2" rx="1" fill="#4F6169"/>
<rect opacity="0.3" x="279.966" y="258.496" width="60.397" height="2" rx="1" fill="#4F6169"/>
<rect opacity="0.3" x="279.966" y="272.496" width="55.8387" height="2" rx="1" fill="#4F6169"/>
<rect opacity="0.3" x="279.966" y="286.496" width="60.397" height="2" rx="1" fill="#4F6169"/>
<rect opacity="0.3" x="279.5" y="300.471" width="54" height="2" rx="1" fill="#4F6169"/>
<rect x="265" y="225.971" width="95" height="96" stroke="#ACB8BE"/>
</g>
<path d="M118.699 164V156.443H121.251C123.649 156.443 125.343 158.005 125.343 160.216C125.343 162.427 123.649 164 121.251 164H118.699ZM119.557 163.219H121.251C123.143 163.219 124.474 161.976 124.474 160.216C124.474 158.467 123.143 157.224 121.251 157.224H119.557V163.219ZM129.509 163.395C130.18 163.395 130.95 163.098 131.302 162.713L131.808 163.252C131.313 163.791 130.312 164.132 129.52 164.132C128.002 164.132 126.638 162.889 126.638 161.14C126.638 159.446 127.914 158.181 129.443 158.181C131.159 158.181 132.138 159.479 132.138 161.47H127.485C127.606 162.581 128.387 163.395 129.509 163.395ZM129.476 158.918C128.464 158.918 127.65 159.633 127.496 160.733H131.324C131.214 159.71 130.609 158.918 129.476 158.918ZM134.747 157.532V158.313H136.144V159.05H134.747V164H133.922V159.05H133.031V158.313H133.922V157.532C133.922 156.685 134.494 156.08 135.308 156.08C135.693 156.08 136.067 156.212 136.364 156.443L135.957 157.048C135.836 156.916 135.616 156.817 135.363 156.817C135.033 156.817 134.747 157.114 134.747 157.532ZM139.45 158.181C141.001 158.181 141.76 159.16 141.76 160.535V164H140.935V163.109C140.528 163.78 139.681 164.132 138.933 164.132C137.734 164.132 136.854 163.439 136.854 162.317C136.854 161.184 137.866 160.425 139.087 160.425C139.703 160.425 140.352 160.557 140.935 160.744V160.535C140.935 159.765 140.627 158.885 139.395 158.885C138.823 158.885 138.251 159.138 137.734 159.402L137.404 158.731C138.218 158.324 138.9 158.181 139.45 158.181ZM139.076 163.406C139.824 163.406 140.715 163.021 140.935 162.218V161.349C140.418 161.206 139.835 161.118 139.219 161.118C138.372 161.118 137.657 161.602 137.657 162.284C137.657 162.988 138.273 163.406 139.076 163.406ZM147.61 158.313H148.435V164H147.61V163.098C147.28 163.703 146.554 164.132 145.74 164.132C144.475 164.132 143.606 163.241 143.606 161.932V158.313H144.431V161.822C144.431 162.757 145.014 163.395 145.85 163.395C146.818 163.395 147.61 162.735 147.61 161.932V158.313ZM150.545 164V156.311H151.37V164H150.545ZM155.684 163.164L156.091 163.769C155.794 164 155.42 164.132 155.035 164.132C154.221 164.132 153.649 163.527 153.649 162.68V159.05H152.758V158.313H153.649V156.751H154.474V158.313H155.871V159.05H154.474V162.68C154.474 163.098 154.76 163.395 155.09 163.395C155.343 163.395 155.563 163.296 155.684 163.164Z" fill="#B31473"/>
<rect opacity="0.4" x="127.5" y="35" width="28" height="3" rx="1.5" fill="#0079AD"/>
<path d="M160.5 35L164.5 39L168.5 35" stroke="#0079AD" stroke-width="1.6"/>
<rect x="121" y="28.5" width="53" height="17" rx="1.5" stroke="#0079AD"/>
<rect opacity="0.4" x="476.5" y="57" width="28" height="3" rx="1.5" fill="#0079AD"/>
<path d="M509.5 57L513.5 61L517.5 57" stroke="#0079AD" stroke-width="1.6"/>
<rect x="470" y="50.5" width="53" height="17" rx="1.5" stroke="#0079AD"/>
<rect opacity="0.4" x="476.5" y="311" width="28" height="3" rx="1.5" fill="#0079AD"/>
<path d="M509.5 311L513.5 315L517.5 311" stroke="#0079AD" stroke-width="1.6"/>
<rect x="470" y="304.5" width="53" height="17" rx="1.5" stroke="#0079AD"/>
<rect opacity="0.4" x="777.5" y="311" width="28" height="3" rx="1.5" fill="#0079AD"/>
<path d="M810.5 311L814.5 315L818.5 311" stroke="#0079AD" stroke-width="1.6"/>
<rect x="771" y="304.5" width="53" height="17" rx="1.5" stroke="#0079AD"/>
<rect opacity="0.4" x="780.5" y="57" width="28" height="3" rx="1.5" fill="#0079AD"/>
<path d="M813.5 57L817.5 61L821.5 57" stroke="#0079AD" stroke-width="1.6"/>
<rect x="774" y="50.5" width="53" height="17" rx="1.5" stroke="#0079AD"/>
<rect opacity="0.4" x="313.5" y="35" width="28" height="3" rx="1.5" fill="#0079AD"/>
<path d="M346.5 35L350.5 39L354.5 35" stroke="#0079AD" stroke-width="1.6"/>
<rect x="307" y="28.5" width="53" height="17" rx="1.5" stroke="#0079AD"/>
<rect opacity="0.4" x="126.5" y="333.471" width="28" height="3" rx="1.5" fill="#0079AD"/>
<path d="M159.5 333.471L163.5 337.471L167.5 333.471" stroke="#0079AD" stroke-width="1.6"/>
<rect x="120" y="326.971" width="53" height="17" rx="1.5" stroke="#0079AD"/>
<rect opacity="0.4" x="314.5" y="333.471" width="28" height="3" rx="1.5" fill="#0079AD"/>
<path d="M347.5 333.471L351.5 337.471L355.5 333.471" stroke="#0079AD" stroke-width="1.6"/>
<rect x="308" y="326.971" width="53" height="17" rx="1.5" stroke="#0079AD"/>
<path d="M101.786 137L108.643 145.205L115.5 137" stroke="#D23292" stroke-width="2" stroke-linecap="round"/>
<path d="M108.786 38.25L108.786 142.701" stroke="#D23292" stroke-width="2" stroke-linecap="round"/>
<circle cx="108.786" cy="35" r="3" fill="#D23292"/>
<path d="M508.786 137L515.643 145.205L522.5 137" stroke="#D23292" stroke-width="2" stroke-linecap="round"/>
<path d="M515.786 75.1305L515.786 144.159" stroke="#D23292" stroke-width="2" stroke-linecap="round"/>
<circle cx="515.786" cy="74" r="3" fill="#D23292"/>
<path d="M508.786 235L515.643 226.795L522.5 235" stroke="#D23292" stroke-width="2" stroke-linecap="round"/>
<path d="M515.786 296.87L515.786 227.841" stroke="#D23292" stroke-width="2" stroke-linecap="round"/>
<circle cx="3" cy="3" r="3" transform="matrix(1 0 0 -1 512.786 301)" fill="#D23292"/>
<path d="M771.786 235L778.643 226.795L785.5 235" stroke="#D23292" stroke-width="2" stroke-linecap="round"/>
<path d="M778.786 296.87L778.786 227.841" stroke="#D23292" stroke-width="2" stroke-linecap="round"/>
<circle cx="3" cy="3" r="3" transform="matrix(1 0 0 -1 775.786 301)" fill="#D23292"/>
<path d="M772.786 137L779.643 145.205L786.5 137" stroke="#D23292" stroke-width="2" stroke-linecap="round"/>
<path d="M779.786 75.1305L779.786 144.159" stroke="#D23292" stroke-width="2" stroke-linecap="round"/>
<circle cx="779.786" cy="74" r="3" fill="#D23292"/>
<path d="M101.786 235L108.643 226.795L115.5 235" stroke="#D23292" stroke-width="2" stroke-linecap="round"/>
<path d="M108.786 337.533L108.786 229.449" stroke="#D23292" stroke-width="2" stroke-linecap="round"/>
<circle cx="3" cy="3" r="3" transform="matrix(1 -1.69959e-09 1.63598e-09 -1 105.786 344)" fill="#D23292"/>
<path d="M365.786 235L372.643 226.795L379.5 235" stroke="#D23292" stroke-width="2" stroke-linecap="round"/>
<path d="M372.786 337.533L372.786 229.449" stroke="#D23292" stroke-width="2" stroke-linecap="round"/>
<circle cx="3" cy="3" r="3" transform="matrix(1 -1.69959e-09 1.63598e-09 -1 369.786 344)" fill="#D23292"/>
<path d="M365.786 137L372.643 145.205L379.5 137" stroke="#D23292" stroke-width="2" stroke-linecap="round"/>
<path d="M372.786 38.25L372.786 142.701" stroke="#D23292" stroke-width="2" stroke-linecap="round"/>
<circle cx="372.786" cy="35" r="3" fill="#D23292"/>
<rect x="0.5" y="0.5" width="927" height="359" rx="3.5" stroke="#ACB8BE"/>
<defs>
<filter id="filter0_d_10315_11798" x="117.5" y="48" width="102" height="103" filterUnits="userSpaceOnUse" color-interpolation-filters="sRGB">
<feFlood flood-opacity="0" result="BackgroundImageFix"/>
<feColorMatrix in="SourceAlpha" type="matrix" values="0 0 0 0 0 0 0 0 0 0 0 0 0 0 0 0 0 0 127 0" result="hardAlpha"/>
<feOffset dy="1"/>
<feGaussianBlur stdDeviation="1.5"/>
<feColorMatrix type="matrix" values="0 0 0 0 0.454902 0 0 0 0 0.454902 0 0 0 0 0.454902 0 0 0 0.25 0"/>
<feBlend mode="normal" in2="BackgroundImageFix" result="effect1_dropShadow_10315_11798"/>
<feBlend mode="normal" in="SourceGraphic" in2="effect1_dropShadow_10315_11798" result="shape"/>
</filter>
<filter id="filter1_d_10315_11798" x="524.5" y="48" width="102" height="103" filterUnits="userSpaceOnUse" color-interpolation-filters="sRGB">
<feFlood flood-opacity="0" result="BackgroundImageFix"/>
<feColorMatrix in="SourceAlpha" type="matrix" values="0 0 0 0 0 0 0 0 0 0 0 0 0 0 0 0 0 0 127 0" result="hardAlpha"/>
<feOffset dy="1"/>
<feGaussianBlur stdDeviation="1.5"/>
<feColorMatrix type="matrix" values="0 0 0 0 0.454902 0 0 0 0 0.454902 0 0 0 0 0.454902 0 0 0 0.25 0"/>
<feBlend mode="normal" in2="BackgroundImageFix" result="effect1_dropShadow_10315_11798"/>
<feBlend mode="normal" in="SourceGraphic" in2="effect1_dropShadow_10315_11798" result="shape"/>
</filter>
<filter id="filter2_d_10315_11798" x="524.5" y="223" width="102" height="103" filterUnits="userSpaceOnUse" color-interpolation-filters="sRGB">
<feFlood flood-opacity="0" result="BackgroundImageFix"/>
<feColorMatrix in="SourceAlpha" type="matrix" values="0 0 0 0 0 0 0 0 0 0 0 0 0 0 0 0 0 0 127 0" result="hardAlpha"/>
<feOffset dy="1"/>
<feGaussianBlur stdDeviation="1.5"/>
<feColorMatrix type="matrix" values="0 0 0 0 0.454902 0 0 0 0 0.454902 0 0 0 0 0.454902 0 0 0 0.25 0"/>
<feBlend mode="normal" in2="BackgroundImageFix" result="effect1_dropShadow_10315_11798"/>
<feBlend mode="normal" in="SourceGraphic" in2="effect1_dropShadow_10315_11798" result="shape"/>
</filter>
<filter id="filter3_d_10315_11798" x="667.5" y="223" width="102" height="103" filterUnits="userSpaceOnUse" color-interpolation-filters="sRGB">
<feFlood flood-opacity="0" result="BackgroundImageFix"/>
<feColorMatrix in="SourceAlpha" type="matrix" values="0 0 0 0 0 0 0 0 0 0 0 0 0 0 0 0 0 0 127 0" result="hardAlpha"/>
<feOffset dy="1"/>
<feGaussianBlur stdDeviation="1.5"/>
<feColorMatrix type="matrix" values="0 0 0 0 0.454902 0 0 0 0 0.454902 0 0 0 0 0.454902 0 0 0 0.25 0"/>
<feBlend mode="normal" in2="BackgroundImageFix" result="effect1_dropShadow_10315_11798"/>
<feBlend mode="normal" in="SourceGraphic" in2="effect1_dropShadow_10315_11798" result="shape"/>
</filter>
<filter id="filter4_d_10315_11798" x="668.5" y="48" width="102" height="103" filterUnits="userSpaceOnUse" color-interpolation-filters="sRGB">
<feFlood flood-opacity="0" result="BackgroundImageFix"/>
<feColorMatrix in="SourceAlpha" type="matrix" values="0 0 0 0 0 0 0 0 0 0 0 0 0 0 0 0 0 0 127 0" result="hardAlpha"/>
<feOffset dy="1"/>
<feGaussianBlur stdDeviation="1.5"/>
<feColorMatrix type="matrix" values="0 0 0 0 0.454902 0 0 0 0 0.454902 0 0 0 0 0.454902 0 0 0 0.25 0"/>
<feBlend mode="normal" in2="BackgroundImageFix" result="effect1_dropShadow_10315_11798"/>
<feBlend mode="normal" in="SourceGraphic" in2="effect1_dropShadow_10315_11798" result="shape"/>
</filter>
<filter id="filter5_d_10315_11798" x="261.5" y="48" width="102" height="103" filterUnits="userSpaceOnUse" color-interpolation-filters="sRGB">
<feFlood flood-opacity="0" result="BackgroundImageFix"/>
<feColorMatrix in="SourceAlpha" type="matrix" values="0 0 0 0 0 0 0 0 0 0 0 0 0 0 0 0 0 0 127 0" result="hardAlpha"/>
<feOffset dy="1"/>
<feGaussianBlur stdDeviation="1.5"/>
<feColorMatrix type="matrix" values="0 0 0 0 0.454902 0 0 0 0 0.454902 0 0 0 0 0.454902 0 0 0 0.25 0"/>
<feBlend mode="normal" in2="BackgroundImageFix" result="effect1_dropShadow_10315_11798"/>
<feBlend mode="normal" in="SourceGraphic" in2="effect1_dropShadow_10315_11798" result="shape"/>
</filter>
<filter id="filter6_d_10315_11798" x="117.5" y="223.471" width="102" height="103" filterUnits="userSpaceOnUse" color-interpolation-filters="sRGB">
<feFlood flood-opacity="0" result="BackgroundImageFix"/>
<feColorMatrix in="SourceAlpha" type="matrix" values="0 0 0 0 0 0 0 0 0 0 0 0 0 0 0 0 0 0 127 0" result="hardAlpha"/>
<feOffset dy="1"/>
<feGaussianBlur stdDeviation="1.5"/>
<feColorMatrix type="matrix" values="0 0 0 0 0.454902 0 0 0 0 0.454902 0 0 0 0 0.454902 0 0 0 0.25 0"/>
<feBlend mode="normal" in2="BackgroundImageFix" result="effect1_dropShadow_10315_11798"/>
<feBlend mode="normal" in="SourceGraphic" in2="effect1_dropShadow_10315_11798" result="shape"/>
</filter>
<filter id="filter7_d_10315_11798" x="261.5" y="223.471" width="102" height="103" filterUnits="userSpaceOnUse" color-interpolation-filters="sRGB">
<feFlood flood-opacity="0" result="BackgroundImageFix"/>
<feColorMatrix in="SourceAlpha" type="matrix" values="0 0 0 0 0 0 0 0 0 0 0 0 0 0 0 0 0 0 127 0" result="hardAlpha"/>
<feOffset dy="1"/>
<feGaussianBlur stdDeviation="1.5"/>
<feColorMatrix type="matrix" values="0 0 0 0 0.454902 0 0 0 0 0.454902 0 0 0 0 0.454902 0 0 0 0.25 0"/>
<feBlend mode="normal" in2="BackgroundImageFix" result="effect1_dropShadow_10315_11798"/>
<feBlend mode="normal" in="SourceGraphic" in2="effect1_dropShadow_10315_11798" result="shape"/>
</filter>
</defs>
</svg>
