<svg width="206" height="196" viewBox="0 0 206 196" fill="none" xmlns="http://www.w3.org/2000/svg">
<path d="M4.235 12V3.069H5.847L8.798 8.516L11.736 3.069H13.361V12H11.736V6.033L8.798 11.48L5.847 6.033V12H4.235ZM16.5971 14.34C16.0901 14.34 15.5311 14.21 15.1281 13.989L15.4661 12.845C15.7521 13.001 16.0771 13.092 16.3241 13.092C16.7011 13.092 16.9871 12.975 17.1821 12.65L17.4681 12.052L14.6211 5.279H16.2981L18.2611 10.297L20.1071 5.279H21.7451L18.8981 12.468C18.3911 13.742 17.6111 14.327 16.5971 14.34ZM29.6013 12.143C28.0803 12.143 26.7673 11.623 25.7793 10.7L26.7283 9.543C27.5473 10.284 28.4963 10.752 29.6663 10.752C30.7583 10.752 31.3303 10.206 31.3303 9.569C31.3303 8.828 30.6933 8.581 29.2633 8.243C27.4173 7.814 26.1433 7.281 26.1433 5.604C26.1433 4.044 27.4693 2.913 29.3413 2.913C30.7583 2.913 31.8373 3.394 32.7213 4.161L31.8373 5.344C31.0703 4.681 30.1733 4.304 29.2893 4.304C28.3793 4.304 27.7813 4.837 27.7813 5.461C27.7813 6.189 28.4313 6.449 29.8483 6.774C31.7073 7.19 32.9553 7.788 32.9553 9.413C32.9553 11.012 31.7463 12.143 29.6013 12.143ZM37.5963 10.557L38.0513 11.623C37.6743 11.948 37.1283 12.156 36.6083 12.156C35.5033 12.156 34.7233 11.35 34.7233 10.219V6.592H33.7483V5.279H34.7233V3.433H36.2573V5.279H37.7783V6.592H36.2573V10.024C36.2573 10.479 36.5563 10.804 36.9333 10.804C37.2063 10.804 37.4533 10.7 37.5963 10.557ZM41.9417 5.123C43.7227 5.123 44.8147 6.254 44.8147 7.957V12H43.2677V11.207C42.7737 11.818 41.9417 12.156 41.1617 12.156C39.7317 12.156 38.6657 11.311 38.6657 10.011C38.6657 8.685 39.8747 7.775 41.3957 7.775C42.0067 7.775 42.6567 7.905 43.2677 8.126V7.957C43.2677 7.177 42.8517 6.423 41.6297 6.423C40.9927 6.423 40.3817 6.644 39.8097 6.93L39.2637 5.825C40.2127 5.357 41.0967 5.123 41.9417 5.123ZM41.5127 10.999C42.2797 10.999 43.0987 10.609 43.2677 9.894V9.127C42.7737 8.971 42.2147 8.88 41.6297 8.88C40.8367 8.88 40.1867 9.322 40.1867 9.959C40.1867 10.596 40.7587 10.999 41.5127 10.999ZM49.6981 10.557L50.1531 11.623C49.7761 11.948 49.2301 12.156 48.7101 12.156C47.6051 12.156 46.8251 11.35 46.8251 10.219V6.592H45.8501V5.279H46.8251V3.433H48.3591V5.279H49.8801V6.592H48.3591V10.024C48.3591 10.479 48.6581 10.804 49.0351 10.804C49.3081 10.804 49.5551 10.7 49.6981 10.557ZM54.3425 10.882C55.0185 10.882 55.7855 10.596 56.2145 10.18L57.1245 11.116C56.5395 11.74 55.3695 12.156 54.3945 12.156C52.4575 12.156 50.8585 10.687 50.8585 8.62C50.8585 6.592 52.3795 5.123 54.3035 5.123C56.3835 5.123 57.6055 6.657 57.6055 9.101H52.3925C52.5615 10.154 53.3025 10.882 54.3425 10.882ZM54.3165 6.397C53.3545 6.397 52.6135 7.047 52.4055 8.048H56.0715C55.9285 7.099 55.3305 6.397 54.3165 6.397Z" fill="#E3EAED"/>
<mask id="mask0_9328_49800" style="mask-type:alpha" maskUnits="userSpaceOnUse" x="3" y="24" width="200" height="24">
<path d="M7 24.5H199C200.933 24.5 202.5 26.067 202.5 28V44C202.5 45.933 200.933 47.5 199 47.5H7C5.067 47.5 3.5 45.933 3.5 44V28C3.5 26.067 5.067 24.5 7 24.5Z" fill="#F1F6F8" stroke="#CBD4D8"/>
</mask>
<g mask="url(#mask0_9328_49800)">
<path d="M7 24.5H199C200.933 24.5 202.5 26.067 202.5 28V44C202.5 45.933 200.933 47.5 199 47.5H7C5.067 47.5 3.5 45.933 3.5 44V28C3.5 26.067 5.067 24.5 7 24.5Z" fill="#3A4D55"/>
<path d="M19.203 40L18.306 37.972H13.327L12.43 40H11.325L15.264 31.069H16.369L20.308 40H19.203ZM13.743 37.01H17.89L15.823 32.317L13.743 37.01ZM21.6667 40V30.913H22.6417V40H21.6667Z" fill="#E3EAED"/>
<path d="M192.12 33.9915L187 39.2893L181.88 33.9915C181.59 33.6908 181.599 33.2123 181.9 32.9226C182.201 32.633 182.679 32.6419 182.969 32.9426L187 37.1159L191.036 32.9426C191.325 32.6419 191.804 32.633 192.104 32.9226C192.405 33.2123 192.414 33.6908 192.124 33.9915H192.12Z" fill="#CBD4D8"/>
<line x1="3" y1="47" x2="203" y2="47" stroke="#2EC0FF" stroke-width="2"/>
<path d="M7 24.5H199C200.933 24.5 202.5 26.067 202.5 28V44C202.5 45.933 200.933 47.5 199 47.5H7C5.067 47.5 3.5 45.933 3.5 44V28C3.5 26.067 5.067 24.5 7 24.5Z" stroke="#67777E"/>
</g>
<g filter="url(#filter0_d_9328_49800)">
<path d="M3 52C3 49.7909 4.79086 48 7 48H199C201.209 48 203 49.7909 203 52V188C203 190.209 201.209 192 199 192H7C4.79086 192 3 190.209 3 188V52Z" fill="#22343C"/>
<rect width="198" height="24" transform="translate(4 60)" fill="#22343C"/>
<path d="M28.203 76L27.306 73.972H22.327L21.43 76H20.325L24.264 67.069H25.369L29.308 76H28.203ZM22.743 73.01H26.89L24.823 68.317L22.743 73.01ZM30.6667 76V66.913H31.6417V76H30.6667ZM36.209 69.123C38.042 69.123 38.939 70.28 38.939 71.905V76H37.964V74.947C37.483 75.74 36.482 76.156 35.598 76.156C34.181 76.156 33.141 75.337 33.141 74.011C33.141 72.672 34.337 71.775 35.78 71.775C36.508 71.775 37.275 71.931 37.964 72.152V71.905C37.964 70.995 37.6 69.955 36.144 69.955C35.468 69.955 34.792 70.254 34.181 70.566L33.791 69.773C34.753 69.292 35.559 69.123 36.209 69.123ZM35.767 75.298C36.651 75.298 37.704 74.843 37.964 73.894V72.867C37.353 72.698 36.664 72.594 35.936 72.594C34.935 72.594 34.09 73.166 34.09 73.972C34.09 74.804 34.818 75.298 35.767 75.298ZM44.3594 69.123C46.1274 69.123 47.4534 70.579 47.4534 72.633C47.4534 74.7 46.1274 76.156 44.3594 76.156C43.2804 76.156 42.4224 75.623 41.9154 74.739V76H40.9404V66.913H41.9154V70.54C42.4224 69.656 43.2804 69.123 44.3594 69.123ZM44.1774 75.285C45.4904 75.285 46.4264 74.18 46.4264 72.633C46.4264 71.086 45.4904 69.994 44.1774 69.994C42.8514 69.994 41.9154 71.086 41.9154 72.633C41.9154 74.18 42.8514 75.285 44.1774 75.285ZM51.4973 69.123C53.3303 69.123 54.2273 70.28 54.2273 71.905V76H53.2523V74.947C52.7713 75.74 51.7703 76.156 50.8863 76.156C49.4693 76.156 48.4293 75.337 48.4293 74.011C48.4293 72.672 49.6253 71.775 51.0683 71.775C51.7963 71.775 52.5633 71.931 53.2523 72.152V71.905C53.2523 70.995 52.8883 69.955 51.4323 69.955C50.7563 69.955 50.0803 70.254 49.4693 70.566L49.0793 69.773C50.0413 69.292 50.8473 69.123 51.4973 69.123ZM51.0553 75.298C51.9393 75.298 52.9923 74.843 53.2523 73.894V72.867C52.6413 72.698 51.9523 72.594 51.2243 72.594C50.2233 72.594 49.3783 73.166 49.3783 73.972C49.3783 74.804 50.1063 75.298 51.0553 75.298ZM63.4957 69.123C64.8997 69.123 65.8877 70.202 65.8877 71.723V76H64.9127V71.853C64.9127 70.761 64.2757 69.994 63.3657 69.994C62.2997 69.994 61.5457 70.709 61.5457 71.723V76H60.5707V71.853C60.5707 70.761 59.9337 69.994 59.0237 69.994C57.9577 69.994 57.2037 70.709 57.2037 71.723V76H56.2287V69.279H57.2037V70.267C57.5417 69.565 58.2697 69.123 59.1537 69.123C60.2197 69.123 61.0517 69.747 61.3897 70.722C61.5977 69.773 62.4297 69.123 63.4957 69.123ZM70.3022 69.123C72.1352 69.123 73.0322 70.28 73.0322 71.905V76H72.0572V74.947C71.5762 75.74 70.5752 76.156 69.6912 76.156C68.2742 76.156 67.2342 75.337 67.2342 74.011C67.2342 72.672 68.4302 71.775 69.8732 71.775C70.6012 71.775 71.3682 71.931 72.0572 72.152V71.905C72.0572 70.995 71.6932 69.955 70.2372 69.955C69.5612 69.955 68.8852 70.254 68.2742 70.566L67.8842 69.773C68.8462 69.292 69.6522 69.123 70.3022 69.123ZM69.8602 75.298C70.7442 75.298 71.7972 74.843 72.0572 73.894V72.867C71.4462 72.698 70.7572 72.594 70.0292 72.594C69.0282 72.594 68.1832 73.166 68.1832 73.972C68.1832 74.804 68.9112 75.298 69.8602 75.298Z" fill="#CBD4D8"/>
<rect width="198" height="24" transform="translate(4 84)" fill="#4F6169"/>
<path d="M28.203 100L27.306 97.972H22.327L21.43 100H20.325L24.264 91.069H25.369L29.308 100H28.203ZM22.743 97.01H26.89L24.823 92.317L22.743 97.01ZM30.6667 100V90.913H31.6417V100H30.6667ZM36.209 93.123C38.042 93.123 38.939 94.28 38.939 95.905V100H37.964V98.947C37.483 99.74 36.482 100.156 35.598 100.156C34.181 100.156 33.141 99.337 33.141 98.011C33.141 96.672 34.337 95.775 35.78 95.775C36.508 95.775 37.275 95.931 37.964 96.152V95.905C37.964 94.995 37.6 93.955 36.144 93.955C35.468 93.955 34.792 94.254 34.181 94.566L33.791 93.773C34.753 93.292 35.559 93.123 36.209 93.123ZM35.767 99.298C36.651 99.298 37.704 98.843 37.964 97.894V96.867C37.353 96.698 36.664 96.594 35.936 96.594C34.935 96.594 34.09 97.166 34.09 97.972C34.09 98.804 34.818 99.298 35.767 99.298ZM43.0204 100.156C42.0844 100.156 41.0444 99.805 40.2384 99.155L40.7454 98.44C41.5124 98.999 42.2794 99.285 43.0204 99.285C43.9044 99.285 44.5024 98.869 44.5024 98.232C44.5024 97.504 43.7224 97.27 42.8124 97.01C41.1874 96.542 40.5634 96.061 40.5634 95.099C40.5634 93.877 41.5774 93.123 42.9164 93.123C43.7484 93.123 44.6064 93.409 45.3214 93.877L44.8534 94.631C44.1774 94.202 43.5144 93.994 42.9164 93.994C42.1624 93.994 41.5384 94.332 41.5384 94.982C41.5384 95.567 42.0324 95.749 43.2804 96.152C44.3594 96.49 45.4774 96.854 45.4774 98.128C45.4774 99.363 44.4114 100.156 43.0204 100.156ZM47.0484 100V90.913H48.0234V96.997L51.7024 93.279H52.9504L49.9214 96.36L52.7814 100H51.5594L49.2324 97.023L48.0234 98.219V100H47.0484ZM56.4881 93.123C58.3211 93.123 59.2181 94.28 59.2181 95.905V100H58.2431V98.947C57.7621 99.74 56.7611 100.156 55.8771 100.156C54.4601 100.156 53.4201 99.337 53.4201 98.011C53.4201 96.672 54.6161 95.775 56.0591 95.775C56.7871 95.775 57.5541 95.931 58.2431 96.152V95.905C58.2431 94.995 57.8791 93.955 56.4231 93.955C55.7471 93.955 55.0711 94.254 54.4601 94.566L54.0701 93.773C55.0321 93.292 55.8381 93.123 56.4881 93.123ZM56.0461 99.298C56.9301 99.298 57.9831 98.843 58.2431 97.894V96.867C57.6321 96.698 56.9431 96.594 56.2151 96.594C55.2141 96.594 54.3691 97.166 54.3691 97.972C54.3691 98.804 55.0971 99.298 56.0461 99.298Z" fill="#F1F6F8"/>
<rect width="198" height="24" transform="translate(4 108)" fill="#22343C"/>
<path d="M25.304 124.156C22.834 124.156 20.728 122.037 20.728 119.528C20.728 117.019 22.834 114.913 25.304 114.913C26.539 114.913 27.683 115.433 28.515 116.278L27.826 116.98C27.176 116.291 26.279 115.849 25.304 115.849C23.38 115.849 21.755 117.539 21.755 119.528C21.755 121.53 23.38 123.22 25.304 123.22C26.279 123.22 27.176 122.778 27.826 122.089L28.515 122.791C27.683 123.623 26.539 124.156 25.304 124.156ZM32.437 117.123C34.27 117.123 35.167 118.28 35.167 119.905V124H34.192V122.947C33.711 123.74 32.71 124.156 31.826 124.156C30.409 124.156 29.369 123.337 29.369 122.011C29.369 120.672 30.565 119.775 32.008 119.775C32.736 119.775 33.503 119.931 34.192 120.152V119.905C34.192 118.995 33.828 117.955 32.372 117.955C31.696 117.955 31.02 118.254 30.409 118.566L30.019 117.773C30.981 117.292 31.787 117.123 32.437 117.123ZM31.995 123.298C32.879 123.298 33.932 122.843 34.192 121.894V120.867C33.581 120.698 32.892 120.594 32.164 120.594C31.163 120.594 30.318 121.166 30.318 121.972C30.318 122.804 31.046 123.298 31.995 123.298ZM37.1683 124V114.913H38.1433V124H37.1683ZM40.7996 116.057C40.4356 116.057 40.1496 115.758 40.1496 115.407C40.1496 115.069 40.4356 114.77 40.7996 114.77C41.1506 114.77 41.4366 115.069 41.4366 115.407C41.4366 115.758 41.1506 116.057 40.7996 116.057ZM40.3056 124V117.279H41.2806V124H40.3056ZM44.6519 116.356V117.279H46.3029V118.15H44.6519V124H43.6769V118.15H42.6239V117.279H43.6769V116.356C43.6769 115.355 44.3529 114.64 45.3149 114.64C45.7699 114.64 46.2119 114.796 46.5629 115.069L46.0819 115.784C45.9389 115.628 45.6789 115.511 45.3799 115.511C44.9899 115.511 44.6519 115.862 44.6519 116.356ZM50.3549 124.156C48.4439 124.156 46.8839 122.57 46.8839 120.633C46.8839 118.696 48.4439 117.123 50.3549 117.123C52.2529 117.123 53.8129 118.696 53.8129 120.633C53.8129 122.57 52.2529 124.156 50.3549 124.156ZM50.3549 123.285C51.6939 123.285 52.7989 122.089 52.7989 120.633C52.7989 119.177 51.6939 117.994 50.3549 117.994C49.0029 117.994 47.8979 119.177 47.8979 120.633C47.8979 122.089 49.0029 123.285 50.3549 123.285ZM56.3673 118.592C56.7703 117.695 57.7323 117.123 58.9673 117.123V117.994C57.4463 117.994 56.3673 118.93 56.3673 120.243V124H55.3923V117.279H56.3673V118.592ZM63.6316 117.123C65.1266 117.123 66.1536 118.176 66.1536 119.723V124H65.1786V119.853C65.1786 118.748 64.4896 117.994 63.5016 117.994C62.3576 117.994 61.4216 118.774 61.4216 119.723V124H60.4466V117.279H61.4216V118.345C61.8116 117.63 62.6696 117.123 63.6316 117.123ZM68.6482 116.057C68.2842 116.057 67.9982 115.758 67.9982 115.407C67.9982 115.069 68.2842 114.77 68.6482 114.77C68.9992 114.77 69.2852 115.069 69.2852 115.407C69.2852 115.758 68.9992 116.057 68.6482 116.057ZM68.1542 124V117.279H69.1292V124H68.1542ZM73.6965 117.123C75.5295 117.123 76.4265 118.28 76.4265 119.905V124H75.4515V122.947C74.9705 123.74 73.9695 124.156 73.0855 124.156C71.6685 124.156 70.6285 123.337 70.6285 122.011C70.6285 120.672 71.8245 119.775 73.2675 119.775C73.9955 119.775 74.7625 119.931 75.4515 120.152V119.905C75.4515 118.995 75.0875 117.955 73.6315 117.955C72.9555 117.955 72.2795 118.254 71.6685 118.566L71.2785 117.773C72.2405 117.292 73.0465 117.123 73.6965 117.123ZM73.2545 123.298C74.1385 123.298 75.1915 122.843 75.4515 121.894V120.867C74.8405 120.698 74.1515 120.594 73.4235 120.594C72.4225 120.594 71.5775 121.166 71.5775 121.972C71.5775 122.804 72.3055 123.298 73.2545 123.298Z" fill="#CBD4D8"/>
<rect width="198" height="24" transform="translate(4 132)" fill="#22343C"/>
<path d="M21.417 148V139.069H22.431L25.746 145.296L29.061 139.069H30.075V148H29.061V141.253L25.746 147.48L22.431 141.253V148H21.417ZM34.9253 141.123C36.7583 141.123 37.6553 142.28 37.6553 143.905V148H36.6803V146.947C36.1993 147.74 35.1983 148.156 34.3143 148.156C32.8973 148.156 31.8573 147.337 31.8573 146.011C31.8573 144.672 33.0533 143.775 34.4963 143.775C35.2243 143.775 35.9913 143.931 36.6803 144.152V143.905C36.6803 142.995 36.3163 141.955 34.8603 141.955C34.1843 141.955 33.5083 142.254 32.8973 142.566L32.5073 141.773C33.4693 141.292 34.2753 141.123 34.9253 141.123ZM34.4833 147.298C35.3673 147.298 36.4203 146.843 36.6803 145.894V144.867C36.0693 144.698 35.3803 144.594 34.6523 144.594C33.6513 144.594 32.8063 145.166 32.8063 145.972C32.8063 146.804 33.5343 147.298 34.4833 147.298ZM40.6316 142.592C41.0346 141.695 41.9966 141.123 43.2316 141.123V141.994C41.7106 141.994 40.6316 142.93 40.6316 144.243V148H39.6566V141.279H40.6316V142.592ZM46.7909 148.156C45.8549 148.156 44.8149 147.805 44.0089 147.155L44.5159 146.44C45.2829 146.999 46.0499 147.285 46.7909 147.285C47.6749 147.285 48.2729 146.869 48.2729 146.232C48.2729 145.504 47.4929 145.27 46.5829 145.01C44.9579 144.542 44.3339 144.061 44.3339 143.099C44.3339 141.877 45.3479 141.123 46.6869 141.123C47.5189 141.123 48.3769 141.409 49.0919 141.877L48.6239 142.631C47.9479 142.202 47.2849 141.994 46.6869 141.994C45.9329 141.994 45.3089 142.332 45.3089 142.982C45.3089 143.567 45.8029 143.749 47.0509 144.152C48.1299 144.49 49.2479 144.854 49.2479 146.128C49.2479 147.363 48.1819 148.156 46.7909 148.156ZM54.0039 141.123C55.4989 141.123 56.5259 142.176 56.5259 143.723V148H55.5509V143.853C55.5509 142.748 54.8619 141.994 53.8739 141.994C52.7299 141.994 51.7939 142.774 51.7939 143.723V148H50.8189V138.913H51.7939V142.345C52.1839 141.63 53.0419 141.123 54.0039 141.123ZM60.9315 141.123C62.7645 141.123 63.6615 142.28 63.6615 143.905V148H62.6865V146.947C62.2055 147.74 61.2045 148.156 60.3205 148.156C58.9035 148.156 57.8635 147.337 57.8635 146.011C57.8635 144.672 59.0595 143.775 60.5025 143.775C61.2305 143.775 61.9975 143.931 62.6865 144.152V143.905C62.6865 142.995 62.3225 141.955 60.8665 141.955C60.1905 141.955 59.5145 142.254 58.9035 142.566L58.5135 141.773C59.4755 141.292 60.2815 141.123 60.9315 141.123ZM60.4895 147.298C61.3735 147.298 62.4265 146.843 62.6865 145.894V144.867C62.0755 144.698 61.3865 144.594 60.6585 144.594C59.6575 144.594 58.8125 145.166 58.8125 145.972C58.8125 146.804 59.5405 147.298 60.4895 147.298ZM65.6628 148V138.913H66.6378V148H65.6628ZM68.8001 148V138.913H69.7751V148H68.8001ZM75.7035 148V139.069H76.7175V148H75.7035ZM81.2442 148.156C80.3082 148.156 79.2682 147.805 78.4622 147.155L78.9692 146.44C79.7362 146.999 80.5032 147.285 81.2442 147.285C82.1282 147.285 82.7262 146.869 82.7262 146.232C82.7262 145.504 81.9462 145.27 81.0362 145.01C79.4112 144.542 78.7872 144.061 78.7872 143.099C78.7872 141.877 79.8012 141.123 81.1402 141.123C81.9722 141.123 82.8302 141.409 83.5452 141.877L83.0772 142.631C82.4012 142.202 81.7382 141.994 81.1402 141.994C80.3862 141.994 79.7622 142.332 79.7622 142.982C79.7622 143.567 80.2562 143.749 81.5042 144.152C82.5832 144.49 83.7012 144.854 83.7012 146.128C83.7012 147.363 82.6352 148.156 81.2442 148.156ZM85.2722 148V138.913H86.2472V148H85.2722ZM90.8145 141.123C92.6475 141.123 93.5445 142.28 93.5445 143.905V148H92.5695V146.947C92.0885 147.74 91.0875 148.156 90.2035 148.156C88.7865 148.156 87.7465 147.337 87.7465 146.011C87.7465 144.672 88.9425 143.775 90.3855 143.775C91.1135 143.775 91.8805 143.931 92.5695 144.152V143.905C92.5695 142.995 92.2055 141.955 90.7495 141.955C90.0735 141.955 89.3975 142.254 88.7865 142.566L88.3965 141.773C89.3585 141.292 90.1645 141.123 90.8145 141.123ZM90.3725 147.298C91.2565 147.298 92.3095 146.843 92.5695 145.894V144.867C91.9585 144.698 91.2695 144.594 90.5415 144.594C89.5405 144.594 88.6955 145.166 88.6955 145.972C88.6955 146.804 89.4235 147.298 90.3725 147.298ZM98.7308 141.123C100.226 141.123 101.253 142.176 101.253 143.723V148H100.278V143.853C100.278 142.748 99.5888 141.994 98.6008 141.994C97.4568 141.994 96.5208 142.774 96.5208 143.723V148H95.5458V141.279H96.5208V142.345C96.9108 141.63 97.7688 141.123 98.7308 141.123ZM108.271 138.913H109.246V148H108.271V146.739C107.764 147.623 106.906 148.156 105.827 148.156C104.059 148.156 102.733 146.7 102.733 144.633C102.733 142.579 104.059 141.123 105.827 141.123C106.906 141.123 107.764 141.656 108.271 142.54V138.913ZM106.009 147.285C107.335 147.285 108.271 146.18 108.271 144.633C108.271 143.086 107.335 141.994 106.009 141.994C104.696 141.994 103.76 143.086 103.76 144.633C103.76 146.18 104.696 147.285 106.009 147.285Z" fill="#CBD4D8"/>
<rect width="198" height="24" transform="translate(4 156)" fill="#22343C"/>
<path d="M21.417 172V163.069H25.044C26.89 163.069 28.333 164.252 28.333 165.929C28.333 167.606 26.89 168.789 25.044 168.789H22.431V172H21.417ZM22.431 167.827H24.862C26.318 167.827 27.306 167.125 27.306 165.929C27.306 164.733 26.318 164.031 24.862 164.031H22.431V167.827ZM32.3354 165.123C34.1684 165.123 35.0654 166.28 35.0654 167.905V172H34.0904V170.947C33.6094 171.74 32.6084 172.156 31.7244 172.156C30.3074 172.156 29.2674 171.337 29.2674 170.011C29.2674 168.672 30.4634 167.775 31.9064 167.775C32.6344 167.775 33.4014 167.931 34.0904 168.152V167.905C34.0904 166.995 33.7264 165.955 32.2704 165.955C31.5944 165.955 30.9184 166.254 30.3074 166.566L29.9174 165.773C30.8794 165.292 31.6854 165.123 32.3354 165.123ZM31.8934 171.298C32.7774 171.298 33.8304 170.843 34.0904 169.894V168.867C33.4794 168.698 32.7904 168.594 32.0624 168.594C31.0614 168.594 30.2164 169.166 30.2164 169.972C30.2164 170.804 30.9444 171.298 31.8934 171.298ZM37.0667 172V162.913H38.0417V172H37.0667ZM42.609 165.123C44.442 165.123 45.339 166.28 45.339 167.905V172H44.364V170.947C43.883 171.74 42.882 172.156 41.998 172.156C40.581 172.156 39.541 171.337 39.541 170.011C39.541 168.672 40.737 167.775 42.18 167.775C42.908 167.775 43.675 167.931 44.364 168.152V167.905C44.364 166.995 44 165.955 42.544 165.955C41.868 165.955 41.192 166.254 40.581 166.566L40.191 165.773C41.153 165.292 41.959 165.123 42.609 165.123ZM42.167 171.298C43.051 171.298 44.104 170.843 44.364 169.894V168.867C43.753 168.698 43.064 168.594 42.336 168.594C41.335 168.594 40.49 169.166 40.49 169.972C40.49 170.804 41.218 171.298 42.167 171.298ZM51.9164 165.279H52.8914V172H51.9164V170.934C51.5264 171.649 50.6684 172.156 49.7064 172.156C48.2114 172.156 47.1844 171.103 47.1844 169.556V165.279H48.1594V169.426C48.1594 170.531 48.8484 171.285 49.8364 171.285C50.9804 171.285 51.9164 170.505 51.9164 169.556V165.279Z" fill="#CBD4D8"/>
<path d="M7 48.5H199C200.933 48.5 202.5 50.067 202.5 52V188C202.5 189.933 200.933 191.5 199 191.5H7C5.067 191.5 3.5 189.933 3.5 188V52C3.5 50.067 5.067 48.5 7 48.5Z" stroke="#67777E"/>
</g>
<defs>
<filter id="filter0_d_9328_49800" x="0" y="46" width="206" height="150" filterUnits="userSpaceOnUse" color-interpolation-filters="sRGB">
<feFlood flood-opacity="0" result="BackgroundImageFix"/>
<feColorMatrix in="SourceAlpha" type="matrix" values="0 0 0 0 0 0 0 0 0 0 0 0 0 0 0 0 0 0 127 0" result="hardAlpha"/>
<feOffset dy="1"/>
<feGaussianBlur stdDeviation="1.5"/>
<feColorMatrix type="matrix" values="0 0 0 0 0.105 0 0 0 0 0.168 0 0 0 0 0.195 0 0 0 0.2 0"/>
<feBlend mode="normal" in2="BackgroundImageFix" result="effect1_dropShadow_9328_49800"/>
<feBlend mode="normal" in="SourceGraphic" in2="effect1_dropShadow_9328_49800" result="shape"/>
</filter>
</defs>
</svg>
