<svg width="224" height="65" viewBox="0 0 224 65" fill="none" xmlns="http://www.w3.org/2000/svg">
<path d="M16.333 33.929C16.333 35.45 15.15 36.568 13.551 36.763L15.826 40H14.669L12.407 36.789H10.431V40H9.417V31.069H13.044C14.89 31.069 16.333 32.252 16.333 33.929ZM10.431 32.031V35.827H12.862C14.318 35.827 15.306 35.125 15.306 33.929C15.306 32.733 14.318 32.031 12.862 32.031H10.431ZM20.8406 39.285C21.6336 39.285 22.5436 38.934 22.9596 38.479L23.5576 39.116C22.9726 39.753 21.7896 40.156 20.8536 40.156C19.0596 40.156 17.4476 38.687 17.4476 36.62C17.4476 34.618 18.9556 33.123 20.7626 33.123C22.7906 33.123 23.9476 34.657 23.9476 37.01H18.4486C18.5916 38.323 19.5146 39.285 20.8406 39.285ZM20.8016 33.994C19.6056 33.994 18.6436 34.839 18.4616 36.139H22.9856C22.8556 34.93 22.1406 33.994 20.8016 33.994ZM30.5037 30.913H31.4787V40H30.5037V38.739C29.9967 39.623 29.1387 40.156 28.0597 40.156C26.2917 40.156 24.9657 38.7 24.9657 36.633C24.9657 34.579 26.2917 33.123 28.0597 33.123C29.1387 33.123 29.9967 33.656 30.5037 34.54V30.913ZM28.2417 39.285C29.5677 39.285 30.5037 38.18 30.5037 36.633C30.5037 35.086 29.5677 33.994 28.2417 33.994C26.9287 33.994 25.9927 35.086 25.9927 36.633C25.9927 38.18 26.9287 39.285 28.2417 39.285Z" fill="#E3EAED"/>
<path d="M189.12 33.9915L184 39.2893L178.88 33.9915C178.59 33.6908 178.599 33.2123 178.9 32.9226C179.201 32.633 179.679 32.6419 179.969 32.9426L184 37.1159L188.036 32.9426C188.325 32.6419 188.804 32.633 189.104 32.9226C189.405 33.2123 189.414 33.6908 189.124 33.9915H189.12Z" fill="#CBD4D8"/>
<path d="M200 47H0V49H200V47Z" fill="#67CA16" mask="url(#path-1-inside-1_8918_24475)"/>
<path fill-rule="evenodd" clip-rule="evenodd" d="M212 28C207.582 28 204 31.5817 204 36C204 40.4183 207.582 44 212 44C216.418 44 220 40.4183 220 36C220 33.8783 219.157 31.8434 217.657 30.3431C216.157 28.8429 214.122 28 212 28ZM212 42.6667C208.318 42.6667 205.333 39.6819 205.333 36C205.333 32.3181 208.318 29.3333 212 29.3333C215.682 29.3333 218.667 32.3181 218.667 36C218.667 37.7681 217.964 39.4638 216.714 40.714C215.464 41.9643 213.768 42.6667 212 42.6667ZM207.56 36.4933L210.893 39.8267L216.353 34.3667C216.58 34.1022 216.565 33.7079 216.318 33.4616C216.072 33.2154 215.678 33.2001 215.413 33.4267L210.893 37.9467L208.5 35.5533C208.235 35.3268 207.841 35.342 207.595 35.5883C207.349 35.8345 207.333 36.2288 207.56 36.4933Z" fill="#67CA16"/>
<path d="M4.488 63.132C2.398 63.132 0.616 61.339 0.616 59.216C0.616 57.093 2.398 55.311 4.488 55.311C5.533 55.311 6.501 55.751 7.205 56.466L6.622 57.06C6.072 56.477 5.313 56.103 4.488 56.103C2.86 56.103 1.485 57.533 1.485 59.216C1.485 60.91 2.86 62.34 4.488 62.34C5.313 62.34 6.072 61.966 6.622 61.383L7.205 61.977C6.501 62.681 5.533 63.132 4.488 63.132ZM11.4682 57.181C12.7332 57.181 13.6022 58.072 13.6022 59.381V63H12.7772V59.491C12.7772 58.556 12.1942 57.918 11.3582 57.918C10.3902 57.918 9.59821 58.578 9.59821 59.381V63H8.77321V55.311H9.59821V58.215C9.92821 57.61 10.6542 57.181 11.4682 57.181ZM17.6147 57.181C19.1657 57.181 19.9247 58.16 19.9247 59.535V63H19.0997V62.109C18.6927 62.78 17.8457 63.132 17.0977 63.132C15.8987 63.132 15.0187 62.439 15.0187 61.317C15.0187 60.184 16.0307 59.425 17.2517 59.425C17.8677 59.425 18.5167 59.557 19.0997 59.744V59.535C19.0997 58.765 18.7917 57.885 17.5597 57.885C16.9877 57.885 16.4157 58.138 15.8987 58.402L15.5687 57.731C16.3827 57.324 17.0647 57.181 17.6147 57.181ZM17.2407 62.406C17.9887 62.406 18.8797 62.021 19.0997 61.218V60.349C18.5827 60.206 17.9997 60.118 17.3837 60.118C16.5367 60.118 15.8217 60.602 15.8217 61.284C15.8217 61.988 16.4377 62.406 17.2407 62.406ZM24.5977 57.181C25.8627 57.181 26.7317 58.072 26.7317 59.381V63H25.9067V59.491C25.9067 58.556 25.3237 57.918 24.4877 57.918C23.5197 57.918 22.7277 58.578 22.7277 59.381V63H21.9027V57.313H22.7277V58.215C23.0577 57.61 23.7837 57.181 24.5977 57.181ZM32.9001 57.313H33.7251V62.395C33.7251 63.858 32.5701 64.892 30.9311 64.892C30.0071 64.892 29.1491 64.573 28.6321 64.133L28.9951 63.484C29.4351 63.902 30.1171 64.155 30.8211 64.155C32.1301 64.155 32.9001 63.506 32.9001 62.395V61.471C32.4601 62.164 31.7341 62.582 30.8321 62.582C29.3031 62.582 28.2141 61.46 28.2141 59.876C28.2141 58.292 29.3031 57.181 30.8321 57.181C31.7341 57.181 32.4601 57.599 32.9001 58.292V57.313ZM30.9861 61.845C32.1081 61.845 32.9001 61.031 32.9001 59.876C32.9001 58.732 32.1081 57.918 30.9861 57.918C29.8751 57.918 29.0831 58.732 29.0831 59.876C29.0831 61.031 29.8751 61.845 30.9861 61.845ZM38.2359 62.395C38.9069 62.395 39.6769 62.098 40.0289 61.713L40.5349 62.252C40.0399 62.791 39.0389 63.132 38.2469 63.132C36.7289 63.132 35.3649 61.889 35.3649 60.14C35.3649 58.446 36.6409 57.181 38.1699 57.181C39.8859 57.181 40.8649 58.479 40.8649 60.47H36.2119C36.3329 61.581 37.1139 62.395 38.2359 62.395ZM38.2029 57.918C37.1909 57.918 36.3769 58.633 36.2229 59.733H40.0509C39.9409 58.71 39.3359 57.918 38.2029 57.918ZM44.2109 63.132C43.4189 63.132 42.5389 62.835 41.8569 62.285L42.2859 61.68C42.9349 62.153 43.5839 62.395 44.2109 62.395C44.9589 62.395 45.4649 62.043 45.4649 61.504C45.4649 60.888 44.8049 60.69 44.0349 60.47C42.6599 60.074 42.1319 59.667 42.1319 58.853C42.1319 57.819 42.9899 57.181 44.1229 57.181C44.8269 57.181 45.5529 57.423 46.1579 57.819L45.7619 58.457C45.1899 58.094 44.6289 57.918 44.1229 57.918C43.4849 57.918 42.9569 58.204 42.9569 58.754C42.9569 59.249 43.3749 59.403 44.4309 59.744C45.3439 60.03 46.2899 60.338 46.2899 61.416C46.2899 62.461 45.3879 63.132 44.2109 63.132ZM52.8932 63.132C52.1012 63.132 51.2212 62.835 50.5392 62.285L50.9682 61.68C51.6172 62.153 52.2662 62.395 52.8932 62.395C53.6412 62.395 54.1472 62.043 54.1472 61.504C54.1472 60.888 53.4872 60.69 52.7172 60.47C51.3422 60.074 50.8142 59.667 50.8142 58.853C50.8142 57.819 51.6722 57.181 52.8052 57.181C53.5092 57.181 54.2352 57.423 54.8402 57.819L54.4442 58.457C53.8722 58.094 53.3112 57.918 52.8052 57.918C52.1672 57.918 51.6392 58.204 51.6392 58.754C51.6392 59.249 52.0572 59.403 53.1132 59.744C54.0262 60.03 54.9722 60.338 54.9722 61.416C54.9722 62.461 54.0702 63.132 52.8932 63.132ZM58.6211 57.181C60.1721 57.181 60.9311 58.16 60.9311 59.535V63H60.1061V62.109C59.6991 62.78 58.8521 63.132 58.1041 63.132C56.9051 63.132 56.0251 62.439 56.0251 61.317C56.0251 60.184 57.0371 59.425 58.2581 59.425C58.8741 59.425 59.5231 59.557 60.1061 59.744V59.535C60.1061 58.765 59.7981 57.885 58.5661 57.885C57.9941 57.885 57.4221 58.138 56.9051 58.402L56.5751 57.731C57.3891 57.324 58.0711 57.181 58.6211 57.181ZM58.2471 62.406C58.9951 62.406 59.8861 62.021 60.1061 61.218V60.349C59.5891 60.206 59.0061 60.118 58.3901 60.118C57.5431 60.118 56.8281 60.602 56.8281 61.284C56.8281 61.988 57.4441 62.406 58.2471 62.406ZM64.4821 63L62.0621 57.313H62.9861L64.8781 62.032L66.7371 57.313H67.6611L65.2741 63H64.4821ZM71.3294 62.395C72.0004 62.395 72.7704 62.098 73.1224 61.713L73.6284 62.252C73.1334 62.791 72.1324 63.132 71.3404 63.132C69.8224 63.132 68.4584 61.889 68.4584 60.14C68.4584 58.446 69.7344 57.181 71.2634 57.181C72.9794 57.181 73.9584 58.479 73.9584 60.47H69.3054C69.4264 61.581 70.2074 62.395 71.3294 62.395ZM71.2964 57.918C70.2844 57.918 69.4704 58.633 69.3164 59.733H73.1444C73.0344 58.71 72.4294 57.918 71.2964 57.918ZM79.7905 55.311H80.6155V63H79.7905V61.933C79.3615 62.681 78.6355 63.132 77.7225 63.132C76.2265 63.132 75.1045 61.9 75.1045 60.151C75.1045 58.413 76.2265 57.181 77.7225 57.181C78.6355 57.181 79.3615 57.632 79.7905 58.38V55.311ZM77.8765 62.395C78.9985 62.395 79.7905 61.46 79.7905 60.151C79.7905 58.842 78.9985 57.918 77.8765 57.918C76.7655 57.918 75.9735 58.842 75.9735 60.151C75.9735 61.46 76.7655 62.395 77.8765 62.395Z" fill="#67CA16"/>
<path d="M4.329 12.143C2.808 12.143 1.495 11.623 0.507 10.7L1.456 9.543C2.275 10.284 3.224 10.752 4.394 10.752C5.486 10.752 6.058 10.206 6.058 9.569C6.058 8.828 5.421 8.581 3.991 8.243C2.145 7.814 0.871 7.281 0.871 5.604C0.871 4.044 2.197 2.913 4.069 2.913C5.486 2.913 6.565 3.394 7.449 4.161L6.565 5.344C5.798 4.681 4.901 4.304 4.017 4.304C3.107 4.304 2.509 4.837 2.509 5.461C2.509 6.189 3.159 6.449 4.576 6.774C6.435 7.19 7.683 7.788 7.683 9.413C7.683 11.012 6.474 12.143 4.329 12.143ZM12.168 10.882C12.844 10.882 13.611 10.596 14.04 10.18L14.95 11.116C14.365 11.74 13.195 12.156 12.22 12.156C10.283 12.156 8.68404 10.687 8.68404 8.62C8.68404 6.592 10.205 5.123 12.129 5.123C14.209 5.123 15.431 6.657 15.431 9.101H10.218C10.387 10.154 11.128 10.882 12.168 10.882ZM12.142 6.397C11.18 6.397 10.439 7.047 10.231 8.048H13.897C13.754 7.099 13.156 6.397 12.142 6.397ZM16.746 12V2.913H18.332V12H16.746ZM23.2034 10.882C23.8794 10.882 24.6464 10.596 25.0754 10.18L25.9854 11.116C25.4004 11.74 24.2304 12.156 23.2554 12.156C21.3184 12.156 19.7194 10.687 19.7194 8.62C19.7194 6.592 21.2404 5.123 23.1644 5.123C25.2444 5.123 26.4664 6.657 26.4664 9.101H21.2534C21.4224 10.154 22.1634 10.882 23.2034 10.882ZM23.1774 6.397C22.2154 6.397 21.4744 7.047 21.2664 8.048H24.9324C24.7894 7.099 24.1914 6.397 23.1774 6.397ZM30.8624 12.156C28.9124 12.156 27.2614 10.544 27.2614 8.633C27.2614 6.722 28.9124 5.123 30.8754 5.123C31.9024 5.123 32.7864 5.552 33.4234 6.215L32.3574 7.151C31.9934 6.748 31.4344 6.475 30.8624 6.475C29.7574 6.475 28.8344 7.463 28.8344 8.633C28.8344 9.816 29.7574 10.804 30.8624 10.804C31.4474 10.804 32.0194 10.531 32.3964 10.102L33.4624 11.025C32.8124 11.714 31.9154 12.156 30.8624 12.156ZM37.7717 10.557L38.2267 11.623C37.8497 11.948 37.3037 12.156 36.7837 12.156C35.6787 12.156 34.8987 11.35 34.8987 10.219V6.592H33.9237V5.279H34.8987V3.433H36.4327V5.279H37.9537V6.592H36.4327V10.024C36.4327 10.479 36.7317 10.804 37.1087 10.804C37.3817 10.804 37.6287 10.7 37.7717 10.557ZM47.2228 12.156C44.6878 12.156 42.5428 10.037 42.5428 7.528C42.5428 5.019 44.6878 2.913 47.2228 2.913C48.5358 2.913 49.7448 3.472 50.6028 4.356L49.4458 5.435C48.8868 4.798 48.0938 4.395 47.2228 4.395C45.5848 4.395 44.1938 5.825 44.1938 7.528C44.1938 9.244 45.5848 10.674 47.2228 10.674C48.0938 10.674 48.8868 10.271 49.4588 9.634L50.6028 10.7C49.7448 11.597 48.5358 12.156 47.2228 12.156ZM55.0281 12.156C53.0391 12.156 51.4141 10.57 51.4141 8.633C51.4141 6.696 53.0391 5.123 55.0281 5.123C57.0041 5.123 58.6161 6.696 58.6161 8.633C58.6161 10.57 57.0041 12.156 55.0281 12.156ZM55.0281 10.804C56.1461 10.804 57.0691 9.829 57.0691 8.633C57.0691 7.437 56.1461 6.475 55.0281 6.475C53.8971 6.475 52.9741 7.437 52.9741 8.633C52.9741 9.829 53.8971 10.804 55.0281 10.804ZM59.9845 12V2.913H61.5705V12H59.9845ZM66.5459 12.156C64.5569 12.156 62.9319 10.57 62.9319 8.633C62.9319 6.696 64.5569 5.123 66.5459 5.123C68.5219 5.123 70.1339 6.696 70.1339 8.633C70.1339 10.57 68.5219 12.156 66.5459 12.156ZM66.5459 10.804C67.6639 10.804 68.5869 9.829 68.5869 8.633C68.5869 7.437 67.6639 6.475 66.5459 6.475C65.4149 6.475 64.4919 7.437 64.4919 8.633C64.4919 9.829 65.4149 10.804 66.5459 10.804ZM73.0883 6.553C73.5173 5.682 74.4013 5.123 75.4933 5.123V6.475C74.0503 6.475 73.0883 7.333 73.0883 8.607V12H71.5023V5.279H73.0883V6.553Z" fill="#E3EAED"/>
</svg>
