<svg width="452" height="288" viewBox="0 0 452 288" fill="none" xmlns="http://www.w3.org/2000/svg">
<path d="M4 0.5H448C449.933 0.5 451.5 2.067 451.5 4V287.5H0.5V4C0.5 2.067 2.067 0.5 4 0.5Z" fill="white"/>
<path d="M4 0.5H448C449.933 0.5 451.5 2.067 451.5 4V287.5H0.5V4C0.5 2.067 2.067 0.5 4 0.5Z" stroke="#CBD4D8"/>
<path opacity="0.6" d="M381.178 229.644H354.372C353.627 229.644 353.023 230.256 353.023 231.012C353.023 231.767 353.627 232.379 354.372 232.379H381.178C381.922 232.379 382.526 231.767 382.526 231.012C382.526 230.256 381.922 229.644 381.178 229.644Z" fill="white"/>
<rect x="295.5" y="219.5" width="40" height="23" rx="3.5" stroke="#0079AD"/>
<path opacity="0.6" d="M327.812 230H304.188C303.532 230 303 230.448 303 231C303 231.552 303.532 232 304.188 232H327.812C328.468 232 329 231.552 329 231C329 230.448 328.468 230 327.812 230Z" fill="#0079AD"/>
<path d="M345 223C345 220.791 346.791 219 349 219H420C422.209 219 424 220.791 424 223V239C424 241.209 422.209 243 420 243H349C346.791 243 345 241.209 345 239V223Z" fill="#ACB8BE"/>
<path d="M358.176 234V226.443H359.54V234H358.176ZM362.635 234V226.443H363.999L367.992 231.756V226.443H369.356V234H367.992L363.999 228.687V234H362.635ZM375.061 234.121C373.774 234.121 372.663 233.681 371.827 232.9L372.63 231.921C373.323 232.548 374.126 232.944 375.116 232.944C376.04 232.944 376.524 232.482 376.524 231.943C376.524 231.316 375.985 231.107 374.775 230.821C373.213 230.458 372.135 230.007 372.135 228.588C372.135 227.268 373.257 226.311 374.841 226.311C376.04 226.311 376.953 226.718 377.701 227.367L376.953 228.368C376.304 227.807 375.545 227.488 374.797 227.488C374.027 227.488 373.521 227.939 373.521 228.467C373.521 229.083 374.071 229.303 375.27 229.578C376.843 229.93 377.899 230.436 377.899 231.811C377.899 233.164 376.876 234.121 375.061 234.121ZM382.152 234V227.697H379.732V226.443H385.936V227.697H383.527V234H382.152ZM393.867 234L393.273 232.57H389.665L389.071 234H387.542L390.699 226.443H392.228L395.385 234H393.867ZM390.138 231.448H392.8L391.469 228.269L390.138 231.448ZM399.065 232.746H402.948V234H397.701V226.443H399.065V232.746ZM406.672 232.746H410.555V234H405.308V226.443H406.672V232.746Z" fill="#67777E"/>
<path d="M32.417 179.069H33.431V188H32.417V179.069ZM39.0627 181.123C39.5567 181.123 39.9943 181.231 40.3757 181.448C40.757 181.665 41.0517 181.972 41.2597 182.371C41.4763 182.761 41.5847 183.212 41.5847 183.723V188H40.6097V183.853C40.6097 183.298 40.4537 182.852 40.1417 182.514C39.8297 182.167 39.4267 181.994 38.9327 181.994C38.56 181.994 38.2133 182.072 37.8927 182.228C37.572 182.384 37.3163 182.596 37.1257 182.865C36.9437 183.125 36.8527 183.411 36.8527 183.723V188H35.8777V181.279H36.8527V182.345C37.052 181.981 37.351 181.686 37.7497 181.461C38.1483 181.236 38.586 181.123 39.0627 181.123ZM45.6653 188.156C45.1886 188.156 44.7033 188.069 44.2093 187.896C43.724 187.723 43.282 187.476 42.8833 187.155L43.3903 186.44C44.1616 187.003 44.92 187.285 45.6653 187.285C46.1073 187.285 46.4626 187.19 46.7313 186.999C47.0086 186.808 47.1473 186.553 47.1473 186.232C47.1473 186.007 47.0736 185.82 46.9263 185.673C46.779 185.517 46.5926 185.396 46.3673 185.309C46.1506 185.222 45.8473 185.123 45.4573 185.01C44.634 184.776 44.0533 184.52 43.7153 184.243C43.3773 183.957 43.2083 183.576 43.2083 183.099C43.2083 182.501 43.4293 182.024 43.8713 181.669C44.3133 181.305 44.8766 181.123 45.5613 181.123C45.9686 181.123 46.3803 181.192 46.7963 181.331C47.2123 181.461 47.6023 181.643 47.9663 181.877L47.4983 182.631C46.831 182.206 46.1853 181.994 45.5613 181.994C45.1626 181.994 44.8333 182.081 44.5733 182.254C44.3133 182.427 44.1833 182.67 44.1833 182.982C44.1833 183.173 44.2396 183.329 44.3523 183.45C44.465 183.571 44.634 183.68 44.8593 183.775C45.0846 183.87 45.44 183.996 45.9253 184.152C46.402 184.299 46.7876 184.442 47.0823 184.581C47.377 184.72 47.624 184.915 47.8233 185.166C48.0226 185.409 48.1223 185.729 48.1223 186.128C48.1223 186.735 47.8883 187.224 47.4203 187.597C46.961 187.97 46.376 188.156 45.6653 188.156ZM52.7743 187.727C52.4103 188.013 51.9943 188.156 51.5263 188.156C51.0496 188.156 50.6553 187.996 50.3433 187.675C50.04 187.354 49.8883 186.943 49.8883 186.44V182.15H48.8353V181.279H49.8883V179.433H50.8633V181.279H52.5143V182.15H50.8633V186.44C50.8633 186.683 50.9326 186.886 51.0713 187.051C51.2186 187.207 51.392 187.285 51.5913 187.285C51.7386 187.285 51.873 187.259 51.9943 187.207C52.1156 187.155 52.2153 187.09 52.2933 187.012L52.7743 187.727ZM56.4798 181.123C57.3724 181.123 58.0484 181.379 58.5078 181.89C58.9758 182.393 59.2098 183.064 59.2098 183.905V188H58.2348V186.947C58.0008 187.328 57.6628 187.627 57.2208 187.844C56.7874 188.052 56.3368 188.156 55.8688 188.156C55.1494 188.156 54.5601 187.961 54.1008 187.571C53.6414 187.181 53.4118 186.661 53.4118 186.011C53.4118 185.578 53.5288 185.192 53.7628 184.854C54.0054 184.507 54.3261 184.243 54.7248 184.061C55.1321 183.87 55.5741 183.775 56.0508 183.775C56.7268 183.775 57.4548 183.901 58.2348 184.152V183.905C58.2348 183.359 58.0961 182.9 57.8188 182.527C57.5414 182.146 57.0734 181.955 56.4148 181.955C56.1114 181.955 55.7994 182.011 55.4788 182.124C55.1668 182.228 54.8244 182.375 54.4518 182.566L54.0618 181.773C54.9284 181.34 55.7344 181.123 56.4798 181.123ZM56.0378 187.298C56.5231 187.298 56.9781 187.177 57.4028 186.934C57.8361 186.683 58.1134 186.336 58.2348 185.894V184.867C57.5761 184.685 56.9001 184.594 56.2068 184.594C55.6954 184.594 55.2578 184.724 54.8938 184.984C54.5384 185.244 54.3608 185.573 54.3608 185.972C54.3608 186.379 54.5168 186.704 54.8288 186.947C55.1494 187.181 55.5524 187.298 56.0378 187.298ZM61.2111 178.913H62.1861V188H61.2111V178.913ZM64.3484 178.913H65.3234V188H64.3484V178.913ZM67.4857 181.279H68.4607V188H67.4857V181.279ZM67.9797 180.057C67.7977 180.057 67.6417 179.992 67.5117 179.862C67.3904 179.732 67.3297 179.58 67.3297 179.407C67.3297 179.234 67.3904 179.086 67.5117 178.965C67.6417 178.835 67.7977 178.77 67.9797 178.77C68.153 178.77 68.3004 178.835 68.4217 178.965C68.5517 179.086 68.6167 179.234 68.6167 179.407C68.6167 179.58 68.5517 179.732 68.4217 179.862C68.3004 179.992 68.153 180.057 67.9797 180.057ZM73.808 181.123C74.302 181.123 74.7397 181.231 75.121 181.448C75.5023 181.665 75.797 181.972 76.005 182.371C76.2217 182.761 76.33 183.212 76.33 183.723V188H75.355V183.853C75.355 183.298 75.199 182.852 74.887 182.514C74.575 182.167 74.172 181.994 73.678 181.994C73.3053 181.994 72.9587 182.072 72.638 182.228C72.3173 182.384 72.0617 182.596 71.871 182.865C71.689 183.125 71.598 183.411 71.598 183.723V188H70.623V181.279H71.598V182.345C71.7973 181.981 72.0963 181.686 72.495 181.461C72.8937 181.236 73.3313 181.123 73.808 181.123ZM84.2586 181.279V187.285C84.2586 187.857 84.1156 188.364 83.8296 188.806C83.5523 189.257 83.1623 189.608 82.6596 189.859C82.1656 190.11 81.5979 190.236 80.9566 190.236C80.4279 190.236 79.9209 190.154 79.4356 189.989C78.9503 189.824 78.5516 189.608 78.2396 189.339L78.6686 188.572C78.9286 188.823 79.2493 189.018 79.6306 189.157C80.0119 189.296 80.4106 189.365 80.8266 189.365C81.5979 189.365 82.2003 189.183 82.6336 188.819C83.0669 188.455 83.2836 187.944 83.2836 187.285V186.193C83.0236 186.609 82.6813 186.934 82.2566 187.168C81.8406 187.393 81.3683 187.506 80.8396 187.506C80.2416 187.506 79.7086 187.372 79.2406 187.103C78.7726 186.826 78.4043 186.444 78.1356 185.959C77.8756 185.474 77.7456 184.923 77.7456 184.308C77.7456 183.693 77.8756 183.142 78.1356 182.657C78.4043 182.172 78.7726 181.795 79.2406 181.526C79.7086 181.257 80.2416 181.123 80.8396 181.123C81.3683 181.123 81.8406 181.24 82.2566 181.474C82.6813 181.699 83.0236 182.02 83.2836 182.436V181.279H84.2586ZM81.0216 186.635C81.4549 186.635 81.8449 186.535 82.1916 186.336C82.5383 186.137 82.8069 185.864 82.9976 185.517C83.1883 185.162 83.2836 184.759 83.2836 184.308C83.2836 183.866 83.1883 183.472 82.9976 183.125C82.8069 182.77 82.5383 182.492 82.1916 182.293C81.8449 182.094 81.4549 181.994 81.0216 181.994C80.5883 181.994 80.1983 182.094 79.8516 182.293C79.5136 182.492 79.2493 182.77 79.0586 183.125C78.8679 183.472 78.7726 183.866 78.7726 184.308C78.7726 184.759 78.8679 185.162 79.0586 185.517C79.2493 185.864 79.5136 186.137 79.8516 186.336C80.1983 186.535 80.5883 186.635 81.0216 186.635Z" fill="#22343C"/>
<path fill-rule="evenodd" clip-rule="evenodd" d="M98 182H392V186H98V182Z" fill="#E3EAED"/>
<path fill-rule="evenodd" clip-rule="evenodd" d="M98 182H212.458V186H98V182Z" fill="#0079AD"/>
<path d="M404.491 185.163H400.718L400.608 184.448L404.359 179.443H405.349V184.382H406.482V185.163H405.349V187H404.491V185.163ZM404.491 184.382V180.477L401.587 184.382H404.491ZM410.784 187.132C410.175 187.132 409.632 186.967 409.156 186.637C408.679 186.3 408.305 185.834 408.034 185.24C407.77 184.646 407.638 183.971 407.638 183.216C407.638 182.461 407.77 181.79 408.034 181.203C408.305 180.609 408.679 180.147 409.156 179.817C409.632 179.48 410.175 179.311 410.784 179.311C411.385 179.311 411.924 179.48 412.401 179.817C412.877 180.147 413.248 180.609 413.512 181.203C413.783 181.79 413.919 182.461 413.919 183.216C413.919 183.971 413.783 184.646 413.512 185.24C413.248 185.834 412.877 186.3 412.401 186.637C411.931 186.967 411.392 187.132 410.784 187.132ZM410.784 186.34C411.224 186.34 411.616 186.208 411.961 185.944C412.305 185.673 412.573 185.302 412.764 184.833C412.954 184.356 413.05 183.817 413.05 183.216C413.05 182.615 412.954 182.079 412.764 181.61C412.573 181.133 412.305 180.763 411.961 180.499C411.616 180.235 411.224 180.103 410.784 180.103C410.344 180.103 409.951 180.235 409.607 180.499C409.262 180.763 408.991 181.133 408.793 181.61C408.602 182.079 408.507 182.615 408.507 183.216C408.507 183.817 408.602 184.356 408.793 184.833C408.991 185.302 409.262 185.673 409.607 185.944C409.951 186.208 410.344 186.34 410.784 186.34ZM417.225 183.161C416.888 183.161 416.584 183.077 416.312 182.908C416.048 182.739 415.843 182.512 415.696 182.226C415.55 181.94 415.476 181.628 415.476 181.291C415.476 180.932 415.55 180.609 415.696 180.323C415.85 180.03 416.059 179.799 416.323 179.63C416.595 179.461 416.899 179.377 417.236 179.377C417.574 179.377 417.874 179.461 418.138 179.63C418.41 179.799 418.619 180.03 418.765 180.323C418.912 180.609 418.985 180.924 418.985 181.269C418.985 181.621 418.908 181.944 418.754 182.237C418.608 182.523 418.399 182.75 418.127 182.919C417.863 183.08 417.563 183.161 417.225 183.161ZM421.57 179.443H422.406L417.236 187H416.4L421.57 179.443ZM417.236 182.567C417.544 182.567 417.797 182.446 417.995 182.204C418.193 181.955 418.292 181.647 418.292 181.28C418.292 180.906 418.19 180.594 417.984 180.345C417.786 180.096 417.533 179.971 417.225 179.971C416.917 179.971 416.664 180.096 416.466 180.345C416.268 180.587 416.169 180.899 416.169 181.28C416.169 181.647 416.272 181.955 416.477 182.204C416.683 182.446 416.936 182.567 417.236 182.567ZM421.537 187.11C421.207 187.11 420.907 187.029 420.635 186.868C420.371 186.699 420.162 186.472 420.008 186.186C419.862 185.893 419.788 185.57 419.788 185.218C419.788 184.873 419.862 184.558 420.008 184.272C420.162 183.979 420.371 183.748 420.635 183.579C420.907 183.41 421.211 183.326 421.548 183.326C421.886 183.326 422.186 183.41 422.45 183.579C422.722 183.748 422.931 183.979 423.077 184.272C423.224 184.558 423.297 184.87 423.297 185.207C423.297 185.566 423.22 185.893 423.066 186.186C422.92 186.472 422.711 186.699 422.439 186.868C422.175 187.029 421.875 187.11 421.537 187.11ZM421.548 186.516C421.856 186.516 422.109 186.395 422.307 186.153C422.505 185.904 422.604 185.592 422.604 185.218C422.604 184.851 422.502 184.543 422.296 184.294C422.098 184.045 421.845 183.92 421.537 183.92C421.229 183.92 420.976 184.045 420.778 184.294C420.58 184.536 420.481 184.84 420.481 185.207C420.481 185.581 420.58 185.893 420.778 186.142C420.984 186.391 421.24 186.516 421.548 186.516Z" fill="#22343C"/>
<path opacity="0.4" d="M31 60H136.452" stroke="#4F6169" stroke-width="3" stroke-linecap="round"/>
<path opacity="0.4" d="M31.0581 93.4539H419.689" stroke="#4F6169" stroke-width="3" stroke-linecap="round"/>
<path opacity="0.4" d="M31.0581 110.302H419.689" stroke="#4F6169" stroke-width="3" stroke-linecap="round"/>
<path opacity="0.4" d="M31.0581 127.151H419.689" stroke="#4F6169" stroke-width="3" stroke-linecap="round"/>
<path opacity="0.4" d="M31.0581 144H245.675" stroke="#4F6169" stroke-width="3" stroke-linecap="round"/>
</svg>
