<svg width="118" height="96" viewBox="0 0 118 96" fill="none" xmlns="http://www.w3.org/2000/svg">
<path d="M8.329 12.143C6.808 12.143 5.495 11.623 4.507 10.7L5.456 9.543C6.275 10.284 7.224 10.752 8.394 10.752C9.486 10.752 10.058 10.206 10.058 9.569C10.058 8.828 9.421 8.581 7.991 8.243C6.145 7.814 4.871 7.281 4.871 5.604C4.871 4.044 6.197 2.913 8.069 2.913C9.486 2.913 10.565 3.394 11.449 4.161L10.565 5.344C9.798 4.681 8.901 4.304 8.017 4.304C7.107 4.304 6.509 4.837 6.509 5.461C6.509 6.189 7.159 6.449 8.576 6.774C10.435 7.19 11.683 7.788 11.683 9.413C11.683 11.012 10.474 12.143 8.329 12.143ZM16.168 10.882C16.844 10.882 17.611 10.596 18.04 10.18L18.95 11.116C18.365 11.74 17.195 12.156 16.22 12.156C14.283 12.156 12.684 10.687 12.684 8.62C12.684 6.592 14.205 5.123 16.129 5.123C18.209 5.123 19.431 6.657 19.431 9.101H14.218C14.387 10.154 15.128 10.882 16.168 10.882ZM16.142 6.397C15.18 6.397 14.439 7.047 14.231 8.048H17.897C17.754 7.099 17.156 6.397 16.142 6.397ZM20.746 12V2.913H22.332V12H20.746ZM27.2034 10.882C27.8794 10.882 28.6464 10.596 29.0754 10.18L29.9854 11.116C29.4004 11.74 28.2304 12.156 27.2554 12.156C25.3184 12.156 23.7194 10.687 23.7194 8.62C23.7194 6.592 25.2404 5.123 27.1644 5.123C29.2444 5.123 30.4664 6.657 30.4664 9.101H25.2534C25.4224 10.154 26.1634 10.882 27.2034 10.882ZM27.1774 6.397C26.2154 6.397 25.4744 7.047 25.2664 8.048H28.9324C28.7894 7.099 28.1914 6.397 27.1774 6.397ZM34.8624 12.156C32.9124 12.156 31.2614 10.544 31.2614 8.633C31.2614 6.722 32.9124 5.123 34.8754 5.123C35.9024 5.123 36.7864 5.552 37.4234 6.215L36.3574 7.151C35.9934 6.748 35.4344 6.475 34.8624 6.475C33.7574 6.475 32.8344 7.463 32.8344 8.633C32.8344 9.816 33.7574 10.804 34.8624 10.804C35.4474 10.804 36.0194 10.531 36.3964 10.102L37.4624 11.025C36.8124 11.714 35.9154 12.156 34.8624 12.156ZM41.7717 10.557L42.2267 11.623C41.8497 11.948 41.3037 12.156 40.7837 12.156C39.6787 12.156 38.8987 11.35 38.8987 10.219V6.592H37.9237V5.279H38.8987V3.433H40.4327V5.279H41.9537V6.592H40.4327V10.024C40.4327 10.479 40.7317 10.804 41.1087 10.804C41.3817 10.804 41.6287 10.7 41.7717 10.557ZM49.2078 12.156C48.1808 12.156 47.0758 11.792 46.2568 11.155L46.9328 10.115C47.6608 10.635 48.5058 10.934 49.2338 10.934C49.9488 10.934 50.3778 10.635 50.3778 10.167C50.3778 9.634 49.7538 9.452 48.9608 9.244C47.4918 8.854 46.5688 8.451 46.5688 7.229C46.5688 5.981 47.6088 5.123 49.1038 5.123C50.0268 5.123 50.9368 5.448 51.6778 5.929L51.0538 6.995C50.4298 6.592 49.7278 6.332 49.1038 6.332C48.5188 6.332 48.0508 6.605 48.0508 7.073C48.0508 7.515 48.4668 7.632 49.4808 7.944C50.6248 8.256 51.8468 8.633 51.8468 10.024C51.8468 11.324 50.7678 12.156 49.2078 12.156ZM53.9976 4.265C53.4906 4.265 53.0876 3.836 53.0876 3.355C53.0876 2.874 53.4906 2.458 53.9976 2.458C54.4916 2.458 54.8946 2.874 54.8946 3.355C54.8946 3.836 54.4916 4.265 53.9976 4.265ZM53.2046 12V5.279H54.7906V12H53.2046ZM56.139 12V10.843L59.714 6.67H56.217V5.279H61.794V6.436L58.219 10.609H61.82V12H56.139ZM66.1762 10.882C66.8522 10.882 67.6192 10.596 68.0482 10.18L68.9582 11.116C68.3732 11.74 67.2032 12.156 66.2282 12.156C64.2912 12.156 62.6922 10.687 62.6922 8.62C62.6922 6.592 64.2132 5.123 66.1372 5.123C68.2172 5.123 69.4392 6.657 69.4392 9.101H64.2262C64.3952 10.154 65.1362 10.882 66.1762 10.882ZM66.1502 6.397C65.1882 6.397 64.4472 7.047 64.2392 8.048H67.9052C67.7622 7.099 67.1642 6.397 66.1502 6.397Z" fill="#22343C"/>
<path d="M19.5 36C19.5 40.1421 16.1421 43.5 12 43.5C7.85786 43.5 4.5 40.1421 4.5 36C4.5 31.8579 7.85786 28.5 12 28.5C16.1421 28.5 19.5 31.8579 19.5 36Z" fill="white" stroke="#E02200"/>
<path d="M32.121 40.143C30.652 40.143 29.495 39.61 28.598 38.726L29.235 37.933C29.989 38.687 30.912 39.22 32.16 39.22C33.538 39.22 34.24 38.466 34.24 37.66C34.24 36.711 33.395 36.334 31.835 35.97C30.041 35.554 28.91 34.995 28.91 33.448C28.91 32.018 30.184 30.913 31.9 30.913C33.226 30.913 34.214 31.433 35.033 32.187L34.409 32.98C33.668 32.265 32.784 31.836 31.848 31.836C30.743 31.836 29.937 32.551 29.937 33.37C29.937 34.293 30.821 34.618 32.342 34.982C34.045 35.385 35.267 35.996 35.267 37.569C35.267 38.986 34.201 40.143 32.121 40.143ZM44.258 33.123C45.662 33.123 46.65 34.202 46.65 35.723V40H45.675V35.853C45.675 34.761 45.038 33.994 44.128 33.994C43.062 33.994 42.308 34.709 42.308 35.723V40H41.333V35.853C41.333 34.761 40.696 33.994 39.786 33.994C38.72 33.994 37.966 34.709 37.966 35.723V40H36.991V33.279H37.966V34.267C38.304 33.565 39.032 33.123 39.916 33.123C40.982 33.123 41.814 33.747 42.152 34.722C42.36 33.773 43.192 33.123 44.258 33.123ZM51.0645 33.123C52.8975 33.123 53.7945 34.28 53.7945 35.905V40H52.8195V38.947C52.3385 39.74 51.3375 40.156 50.4535 40.156C49.0365 40.156 47.9965 39.337 47.9965 38.011C47.9965 36.672 49.1925 35.775 50.6355 35.775C51.3635 35.775 52.1305 35.931 52.8195 36.152V35.905C52.8195 34.995 52.4555 33.955 50.9995 33.955C50.3235 33.955 49.6475 34.254 49.0365 34.566L48.6465 33.773C49.6085 33.292 50.4145 33.123 51.0645 33.123ZM50.6225 39.298C51.5065 39.298 52.5595 38.843 52.8195 37.894V36.867C52.2085 36.698 51.5195 36.594 50.7915 36.594C49.7905 36.594 48.9455 37.166 48.9455 37.972C48.9455 38.804 49.6735 39.298 50.6225 39.298ZM55.7958 40V30.913H56.7708V40H55.7958ZM58.9331 40V30.913H59.9081V40H58.9331Z" fill="#22343C"/>
<path d="M19.5 60C19.5 64.1421 16.1421 67.5 12 67.5C7.85786 67.5 4.5 64.1421 4.5 60C4.5 55.8579 7.85786 52.5 12 52.5C16.1421 52.5 19.5 55.8579 19.5 60Z" fill="white" stroke="#E02200"/>
<path d="M30.431 63.038H35.306V64H29.417V55.069H30.431V63.038ZM39.0659 57.123C40.8989 57.123 41.7959 58.28 41.7959 59.905V64H40.8209V62.947C40.3399 63.74 39.3389 64.156 38.4549 64.156C37.0379 64.156 35.9979 63.337 35.9979 62.011C35.9979 60.672 37.1939 59.775 38.6369 59.775C39.3649 59.775 40.1319 59.931 40.8209 60.152V59.905C40.8209 58.995 40.4569 57.955 39.0009 57.955C38.3249 57.955 37.6489 58.254 37.0379 58.566L36.6479 57.773C37.6099 57.292 38.4159 57.123 39.0659 57.123ZM38.6239 63.298C39.5079 63.298 40.5609 62.843 40.8209 61.894V60.867C40.2099 60.698 39.5209 60.594 38.7929 60.594C37.7919 60.594 36.9469 61.166 36.9469 61.972C36.9469 62.804 37.6749 63.298 38.6239 63.298ZM44.7722 58.592C45.1752 57.695 46.1372 57.123 47.3722 57.123V57.994C45.8512 57.994 44.7722 58.93 44.7722 60.243V64H43.7972V57.279H44.7722V58.592ZM53.8045 57.279H54.7795V63.285C54.7795 65.014 53.4145 66.236 51.4775 66.236C50.3855 66.236 49.3715 65.859 48.7605 65.339L49.1895 64.572C49.7095 65.066 50.5155 65.365 51.3475 65.365C52.8945 65.365 53.8045 64.598 53.8045 63.285V62.193C53.2845 63.012 52.4265 63.506 51.3605 63.506C49.5535 63.506 48.2665 62.18 48.2665 60.308C48.2665 58.436 49.5535 57.123 51.3605 57.123C52.4265 57.123 53.2845 57.617 53.8045 58.436V57.279ZM51.5425 62.635C52.8685 62.635 53.8045 61.673 53.8045 60.308C53.8045 58.956 52.8685 57.994 51.5425 57.994C50.2295 57.994 49.2935 58.956 49.2935 60.308C49.2935 61.673 50.2295 62.635 51.5425 62.635ZM59.774 63.285C60.567 63.285 61.477 62.934 61.893 62.479L62.491 63.116C61.906 63.753 60.723 64.156 59.787 64.156C57.993 64.156 56.381 62.687 56.381 60.62C56.381 58.618 57.889 57.123 59.696 57.123C61.724 57.123 62.881 58.657 62.881 61.01H57.382C57.525 62.323 58.448 63.285 59.774 63.285ZM59.735 57.994C58.539 57.994 57.577 58.839 57.395 60.139H61.919C61.789 58.93 61.074 57.994 59.735 57.994Z" fill="#22343C"/>
<path d="M31.487 87.121C30.244 87.121 29.265 86.67 28.506 85.922L29.045 85.251C29.683 85.889 30.464 86.34 31.52 86.34C32.686 86.34 33.28 85.702 33.28 85.02C33.28 84.217 32.565 83.898 31.245 83.59C29.727 83.238 28.77 82.765 28.77 81.456C28.77 80.246 29.848 79.311 31.3 79.311C32.422 79.311 33.258 79.751 33.951 80.389L33.423 81.06C32.796 80.455 32.048 80.092 31.256 80.092C30.321 80.092 29.639 80.697 29.639 81.39C29.639 82.171 30.387 82.446 31.674 82.754C33.115 83.095 34.149 83.612 34.149 84.943C34.149 86.142 33.247 87.121 31.487 87.121ZM36.3104 80.279C36.0024 80.279 35.7604 80.026 35.7604 79.729C35.7604 79.443 36.0024 79.19 36.3104 79.19C36.6074 79.19 36.8494 79.443 36.8494 79.729C36.8494 80.026 36.6074 80.279 36.3104 80.279ZM35.8924 87V81.313H36.7174V87H35.8924ZM38.2376 87V86.351L41.5926 82.094H38.3036V81.313H42.7036V81.962L39.3376 86.219H42.7256V87H38.2376ZM46.6503 86.395C47.3213 86.395 48.0913 86.098 48.4433 85.713L48.9493 86.252C48.4543 86.791 47.4533 87.132 46.6613 87.132C45.1433 87.132 43.7793 85.889 43.7793 84.14C43.7793 82.446 45.0553 81.181 46.5843 81.181C48.3003 81.181 49.2793 82.479 49.2793 84.47H44.6263C44.7473 85.581 45.5283 86.395 46.6503 86.395ZM46.6173 81.918C45.6053 81.918 44.7913 82.633 44.6373 83.733H48.4653C48.3553 82.71 47.7503 81.918 46.6173 81.918ZM54.9197 82.424C55.2607 81.665 56.0747 81.181 57.1197 81.181V81.918C55.8327 81.918 54.9197 82.71 54.9197 83.821V87H54.0947V81.313H54.9197V82.424ZM61.054 86.395C61.725 86.395 62.495 86.098 62.847 85.713L63.353 86.252C62.858 86.791 61.857 87.132 61.065 87.132C59.547 87.132 58.183 85.889 58.183 84.14C58.183 82.446 59.459 81.181 60.988 81.181C62.704 81.181 63.683 82.479 63.683 84.47H59.03C59.151 85.581 59.932 86.395 61.054 86.395ZM61.021 81.918C60.009 81.918 59.195 82.633 59.041 83.733H62.869C62.759 82.71 62.154 81.918 61.021 81.918ZM69.5151 81.313H70.3401V88.892H69.5151V85.933C69.0861 86.681 68.3601 87.132 67.4471 87.132C65.9511 87.132 64.8291 85.9 64.8291 84.151C64.8291 82.413 65.9511 81.181 67.4471 81.181C68.3601 81.181 69.0861 81.632 69.5151 82.38V81.313ZM67.6011 86.395C68.7231 86.395 69.5151 85.46 69.5151 84.151C69.5151 82.842 68.7231 81.918 67.6011 81.918C66.4901 81.918 65.6981 82.842 65.6981 84.151C65.6981 85.46 66.4901 86.395 67.6011 86.395ZM76.3235 81.313H77.1485V87H76.3235V86.098C75.9935 86.703 75.2675 87.132 74.4535 87.132C73.1885 87.132 72.3195 86.241 72.3195 84.932V81.313H73.1445V84.822C73.1445 85.757 73.7275 86.395 74.5635 86.395C75.5315 86.395 76.3235 85.735 76.3235 84.932V81.313ZM79.676 80.279C79.368 80.279 79.126 80.026 79.126 79.729C79.126 79.443 79.368 79.19 79.676 79.19C79.973 79.19 80.215 79.443 80.215 79.729C80.215 80.026 79.973 80.279 79.676 80.279ZM79.258 87V81.313H80.083V87H79.258ZM83.0222 82.424C83.3632 81.665 84.1772 81.181 85.2222 81.181V81.918C83.9352 81.918 83.0222 82.71 83.0222 83.821V87H82.1972V81.313H83.0222V82.424ZM89.1566 86.395C89.8276 86.395 90.5976 86.098 90.9496 85.713L91.4556 86.252C90.9606 86.791 89.9596 87.132 89.1676 87.132C87.6496 87.132 86.2856 85.889 86.2856 84.14C86.2856 82.446 87.5616 81.181 89.0906 81.181C90.8066 81.181 91.7856 82.479 91.7856 84.47H87.1326C87.2536 85.581 88.0346 86.395 89.1566 86.395ZM89.1236 81.918C88.1116 81.918 87.2976 82.633 87.1436 83.733H90.9716C90.8616 82.71 90.2566 81.918 89.1236 81.918ZM97.6177 79.311H98.4427V87H97.6177V85.933C97.1887 86.681 96.4627 87.132 95.5497 87.132C94.0537 87.132 92.9316 85.9 92.9316 84.151C92.9316 82.413 94.0537 81.181 95.5497 81.181C96.4627 81.181 97.1887 81.632 97.6177 82.38V79.311ZM95.7037 86.395C96.8257 86.395 97.6177 85.46 97.6177 84.151C97.6177 82.842 96.8257 81.918 95.7037 81.918C94.5927 81.918 93.8006 82.842 93.8006 84.151C93.8006 85.46 94.5927 86.395 95.7037 86.395Z" fill="#E02200"/>
<path fill-rule="evenodd" clip-rule="evenodd" d="M4 84C4 79.5817 7.58172 76 12 76C14.1217 76 16.1566 76.8429 17.6569 78.3431C19.1571 79.8434 20 81.8783 20 84C20 88.4183 16.4183 92 12 92C7.58172 92 4 88.4183 4 84ZM11.1333 84.5133C11.1333 84.992 11.5214 85.38 12 85.38C12.4786 85.38 12.8667 84.992 12.8667 84.5133V80.5133C12.8667 80.0347 12.4786 79.6467 12 79.6467C11.5214 79.6467 11.1333 80.0347 11.1333 80.5133V84.5133ZM12 90.6667C8.3181 90.6667 5.33333 87.6819 5.33333 84C5.33333 80.3181 8.3181 77.3333 12 77.3333C15.6819 77.3333 18.6667 80.3181 18.6667 84C18.6667 85.7681 17.9643 87.4638 16.714 88.714C15.4638 89.9643 13.7681 90.6667 12 90.6667ZM12.9667 87.3467C12.9667 87.899 12.519 88.3467 11.9667 88.3467C11.4144 88.3467 10.9667 87.899 10.9667 87.3467C10.9667 86.7944 11.4144 86.3467 11.9667 86.3467C12.519 86.3467 12.9667 86.7944 12.9667 87.3467Z" fill="#E02200"/>
</svg>
