<svg width="729" height="272" viewBox="0 0 729 272" fill="none" xmlns="http://www.w3.org/2000/svg">
<path fill-rule="evenodd" clip-rule="evenodd" d="M1 126C1 130.418 4.58172 134 9 134C11.1217 134 13.1566 133.157 14.6569 131.657C16.1571 130.157 17 128.122 17 126C17 121.582 13.4183 118 9 118C4.58172 118 1 121.582 1 126ZM2 126C2 122.134 5.13401 119 9 119C12.866 119 16 122.134 16 126C16 129.866 12.866 133 9 133C5.13401 133 2 129.866 2 126ZM10.5 129.5H9.5V124.05H8C7.72386 124.05 7.5 124.274 7.5 124.55C7.5 124.826 7.72386 125.05 8 125.05H8.5V129.5H7.5C7.22386 129.5 7 129.724 7 130C7 130.276 7.22386 130.5 7.5 130.5H10.5C10.7761 130.5 11 130.276 11 130C11 129.724 10.7761 129.5 10.5 129.5ZM9.685 122.225C9.685 122.612 9.3716 122.925 8.985 122.925C8.5984 122.925 8.285 122.612 8.285 122.225C8.285 121.838 8.5984 121.525 8.985 121.525C9.3716 121.525 9.685 121.838 9.685 122.225Z" fill="#1B2B32"/>
<rect x="38.5" y="68.5" width="257" height="135" rx="3.5" fill="white"/>
<path d="M272.627 92L276.311 88.3155C276.462 88.1392 276.452 87.8763 276.288 87.7122C276.124 87.548 275.861 87.5379 275.684 87.6889L272 91.3733L268.316 87.6844C268.141 87.5101 267.859 87.5101 267.684 87.6844C267.51 87.8587 267.51 88.1413 267.684 88.3155L271.373 92L267.684 95.6844C267.558 95.793 267.502 95.9636 267.541 96.1259C267.58 96.2883 267.707 96.4151 267.87 96.4541C268.032 96.4932 268.202 96.4379 268.311 96.3111L272 92.6266L275.684 96.3111C275.861 96.4621 276.124 96.4519 276.288 96.2878C276.452 96.1236 276.462 95.8608 276.311 95.6844L272.627 92Z" fill="#67777E"/>
<g clip-path="url(#clip0_9030_6579)">
<path d="M62.288 110.382H63.38V120H62.288V115.618H56.618V120H55.526V110.382H56.618V114.582H62.288V110.382ZM66.5602 111.446C66.1682 111.446 65.8602 111.124 65.8602 110.746C65.8602 110.382 66.1682 110.06 66.5602 110.06C66.9382 110.06 67.2462 110.382 67.2462 110.746C67.2462 111.124 66.9382 111.446 66.5602 111.446ZM66.0282 120V112.762H67.0782V120H66.0282ZM71.6545 120.168C70.6465 120.168 69.5265 119.79 68.6585 119.09L69.2045 118.32C70.0305 118.922 70.8565 119.23 71.6545 119.23C72.6065 119.23 73.2505 118.782 73.2505 118.096C73.2505 117.312 72.4105 117.06 71.4305 116.78C69.6805 116.276 69.0085 115.758 69.0085 114.722C69.0085 113.406 70.1005 112.594 71.5425 112.594C72.4385 112.594 73.3625 112.902 74.1325 113.406L73.6285 114.218C72.9005 113.756 72.1865 113.532 71.5425 113.532C70.7305 113.532 70.0585 113.896 70.0585 114.596C70.0585 115.226 70.5905 115.422 71.9345 115.856C73.0965 116.22 74.3005 116.612 74.3005 117.984C74.3005 119.314 73.1525 120.168 71.6545 120.168ZM78.8 118.936L79.318 119.706C78.94 120 78.464 120.168 77.974 120.168C76.938 120.168 76.21 119.398 76.21 118.32V113.7H75.076V112.762H76.21V110.774H77.26V112.762H79.038V113.7H77.26V118.32C77.26 118.852 77.624 119.23 78.044 119.23C78.366 119.23 78.646 119.104 78.8 118.936ZM83.8342 120.168C81.7762 120.168 80.0962 118.46 80.0962 116.374C80.0962 114.288 81.7762 112.594 83.8342 112.594C85.8782 112.594 87.5582 114.288 87.5582 116.374C87.5582 118.46 85.8782 120.168 83.8342 120.168ZM83.8342 119.23C85.2762 119.23 86.4662 117.942 86.4662 116.374C86.4662 114.806 85.2762 113.532 83.8342 113.532C82.3782 113.532 81.1882 114.806 81.1882 116.374C81.1882 117.942 82.3782 119.23 83.8342 119.23ZM90.3168 114.176C90.7508 113.21 91.7868 112.594 93.1168 112.594V113.532C91.4788 113.532 90.3168 114.54 90.3168 115.954V120H89.2668V112.762H90.3168V114.176ZM95.2496 111.446C94.8576 111.446 94.5496 111.124 94.5496 110.746C94.5496 110.382 94.8576 110.06 95.2496 110.06C95.6276 110.06 95.9356 110.382 95.9356 110.746C95.9356 111.124 95.6276 111.446 95.2496 111.446ZM94.7176 120V112.762H95.7676V120H94.7176ZM100.694 112.594C102.668 112.594 103.634 113.84 103.634 115.59V120H102.584V118.866C102.066 119.72 100.988 120.168 100.036 120.168C98.5099 120.168 97.3899 119.286 97.3899 117.858C97.3899 116.416 98.6779 115.45 100.232 115.45C101.016 115.45 101.842 115.618 102.584 115.856V115.59C102.584 114.61 102.192 113.49 100.624 113.49C99.8959 113.49 99.1679 113.812 98.5099 114.148L98.0899 113.294C99.1259 112.776 99.9939 112.594 100.694 112.594ZM100.218 119.244C101.17 119.244 102.304 118.754 102.584 117.732V116.626C101.926 116.444 101.184 116.332 100.4 116.332C99.3219 116.332 98.4119 116.948 98.4119 117.816C98.4119 118.712 99.1959 119.244 100.218 119.244ZM109.227 112.594C110.837 112.594 111.943 113.728 111.943 115.394V120H110.893V115.534C110.893 114.344 110.151 113.532 109.087 113.532C107.855 113.532 106.847 114.372 106.847 115.394V120H105.797V112.762H106.847V113.91C107.267 113.14 108.191 112.594 109.227 112.594ZM116.345 120.168C115.337 120.168 114.217 119.79 113.349 119.09L113.895 118.32C114.721 118.922 115.547 119.23 116.345 119.23C117.297 119.23 117.941 118.782 117.941 118.096C117.941 117.312 117.101 117.06 116.121 116.78C114.371 116.276 113.699 115.758 113.699 114.722C113.699 113.406 114.791 112.594 116.233 112.594C117.129 112.594 118.053 112.902 118.823 113.406L118.319 114.218C117.591 113.756 116.877 113.532 116.233 113.532C115.421 113.532 114.749 113.896 114.749 114.596C114.749 115.226 115.281 115.422 116.625 115.856C117.787 116.22 118.991 116.612 118.991 117.984C118.991 119.314 117.843 120.168 116.345 120.168ZM128.128 112.594C130.032 112.594 131.46 114.162 131.46 116.374C131.46 118.6 130.032 120.168 128.128 120.168C126.966 120.168 126.042 119.594 125.496 118.642V120H124.446V110.214H125.496V114.12C126.042 113.168 126.966 112.594 128.128 112.594ZM127.932 119.23C129.346 119.23 130.354 118.04 130.354 116.374C130.354 114.708 129.346 113.532 127.932 113.532C126.504 113.532 125.496 114.708 125.496 116.374C125.496 118.04 126.504 119.23 127.932 119.23ZM136.285 119.23C137.139 119.23 138.119 118.852 138.567 118.362L139.211 119.048C138.581 119.734 137.307 120.168 136.299 120.168C134.367 120.168 132.631 118.586 132.631 116.36C132.631 114.204 134.255 112.594 136.201 112.594C138.385 112.594 139.631 114.246 139.631 116.78H133.709C133.863 118.194 134.857 119.23 136.285 119.23ZM136.243 113.532C134.955 113.532 133.919 114.442 133.723 115.842H138.595C138.455 114.54 137.685 113.532 136.243 113.532ZM141.295 120V110.214H142.345V120H141.295ZM145.213 111.446C144.821 111.446 144.513 111.124 144.513 110.746C144.513 110.382 144.821 110.06 145.213 110.06C145.591 110.06 145.899 110.382 145.899 110.746C145.899 111.124 145.591 111.446 145.213 111.446ZM144.681 120V112.762H145.731V120H144.681ZM151.12 119.23C151.974 119.23 152.954 118.852 153.402 118.362L154.046 119.048C153.416 119.734 152.142 120.168 151.134 120.168C149.202 120.168 147.466 118.586 147.466 116.36C147.466 114.204 149.09 112.594 151.036 112.594C153.22 112.594 154.466 114.246 154.466 116.78H148.544C148.698 118.194 149.692 119.23 151.12 119.23ZM151.078 113.532C149.79 113.532 148.754 114.442 148.558 115.842H153.43C153.29 114.54 152.52 113.532 151.078 113.532ZM158.132 120L155.052 112.762H156.228L158.636 118.768L161.002 112.762H162.178L159.14 120H158.132ZM166.492 119.23C167.346 119.23 168.326 118.852 168.774 118.362L169.418 119.048C168.788 119.734 167.514 120.168 166.506 120.168C164.574 120.168 162.838 118.586 162.838 116.36C162.838 114.204 164.462 112.594 166.408 112.594C168.592 112.594 169.838 114.246 169.838 116.78H163.916C164.07 118.194 165.064 119.23 166.492 119.23ZM166.45 113.532C165.162 113.532 164.126 114.442 163.93 115.842H168.802C168.662 114.54 167.892 113.532 166.45 113.532ZM178.057 118.936L178.575 119.706C178.197 120 177.721 120.168 177.231 120.168C176.195 120.168 175.467 119.398 175.467 118.32V113.7H174.333V112.762H175.467V110.774H176.517V112.762H178.295V113.7H176.517V118.32C176.517 118.852 176.881 119.23 177.301 119.23C177.623 119.23 177.903 119.104 178.057 118.936ZM183.414 112.594C185.024 112.594 186.13 113.728 186.13 115.394V120H185.08V115.534C185.08 114.344 184.338 113.532 183.274 113.532C182.042 113.532 181.034 114.372 181.034 115.394V120H179.984V110.214H181.034V113.91C181.454 113.14 182.378 112.594 183.414 112.594ZM190.882 112.594C192.856 112.594 193.822 113.84 193.822 115.59V120H192.772V118.866C192.254 119.72 191.176 120.168 190.224 120.168C188.698 120.168 187.578 119.286 187.578 117.858C187.578 116.416 188.866 115.45 190.42 115.45C191.204 115.45 192.03 115.618 192.772 115.856V115.59C192.772 114.61 192.38 113.49 190.812 113.49C190.084 113.49 189.356 113.812 188.698 114.148L188.278 113.294C189.314 112.776 190.182 112.594 190.882 112.594ZM190.406 119.244C191.358 119.244 192.492 118.754 192.772 117.732V116.626C192.114 116.444 191.372 116.332 190.588 116.332C189.51 116.332 188.6 116.948 188.6 117.816C188.6 118.712 189.384 119.244 190.406 119.244ZM198.785 118.936L199.303 119.706C198.925 120 198.449 120.168 197.959 120.168C196.923 120.168 196.195 119.398 196.195 118.32V113.7H195.061V112.762H196.195V110.774H197.245V112.762H199.023V113.7H197.245V118.32C197.245 118.852 197.609 119.23 198.029 119.23C198.351 119.23 198.631 119.104 198.785 118.936ZM207.266 118.936L207.784 119.706C207.406 120 206.93 120.168 206.44 120.168C205.404 120.168 204.676 119.398 204.676 118.32V113.7H203.542V112.762H204.676V110.774H205.726V112.762H207.504V113.7H205.726V118.32C205.726 118.852 206.09 119.23 206.51 119.23C206.832 119.23 207.112 119.104 207.266 118.936ZM212.623 112.594C214.233 112.594 215.339 113.728 215.339 115.394V120H214.289V115.534C214.289 114.344 213.547 113.532 212.483 113.532C211.251 113.532 210.243 114.372 210.243 115.394V120H209.193V110.214H210.243V113.91C210.663 113.14 211.587 112.594 212.623 112.594ZM220.553 119.23C221.407 119.23 222.387 118.852 222.835 118.362L223.479 119.048C222.849 119.734 221.575 120.168 220.567 120.168C218.635 120.168 216.899 118.586 216.899 116.36C216.899 114.204 218.523 112.594 220.469 112.594C222.653 112.594 223.899 114.246 223.899 116.78H217.977C218.131 118.194 219.125 119.23 220.553 119.23ZM220.511 113.532C219.223 113.532 218.187 114.442 217.991 115.842H222.863C222.723 114.54 221.953 113.532 220.511 113.532ZM233.7 115.968V114.932H237.55V118.698C236.654 119.594 235.142 120.168 233.812 120.168C231.152 120.168 228.884 117.886 228.884 115.184C228.884 112.482 231.152 110.214 233.812 110.214C235.142 110.214 236.654 110.774 237.55 111.684L236.808 112.44C236.108 111.698 234.862 111.222 233.812 111.222C231.74 111.222 229.99 113.042 229.99 115.184C229.99 117.34 231.74 119.16 233.812 119.16C234.708 119.16 235.744 118.81 236.458 118.264V115.968H233.7ZM240.768 114.176C241.202 113.21 242.238 112.594 243.568 112.594V113.532C241.93 113.532 240.768 114.54 240.768 115.954V120H239.718V112.762H240.768V114.176ZM248.221 119.23C249.075 119.23 250.055 118.852 250.503 118.362L251.147 119.048C250.517 119.734 249.243 120.168 248.235 120.168C246.303 120.168 244.567 118.586 244.567 116.36C244.567 114.204 246.191 112.594 248.137 112.594C250.321 112.594 251.567 114.246 251.567 116.78H245.645C245.799 118.194 246.793 119.23 248.221 119.23ZM248.179 113.532C246.891 113.532 245.855 114.442 245.659 115.842H250.531C250.391 114.54 249.621 113.532 248.179 113.532ZM256.283 119.23C257.137 119.23 258.117 118.852 258.565 118.362L259.209 119.048C258.579 119.734 257.305 120.168 256.297 120.168C254.365 120.168 252.629 118.586 252.629 116.36C252.629 114.204 254.253 112.594 256.199 112.594C258.383 112.594 259.629 114.246 259.629 116.78H253.707C253.861 118.194 254.855 119.23 256.283 119.23ZM256.241 113.532C254.953 113.532 253.917 114.442 253.721 115.842H258.593C258.453 114.54 257.683 113.532 256.241 113.532ZM261.293 120V110.214H262.343V116.766L266.305 112.762H267.649L264.387 116.08L267.467 120H266.151L263.645 116.794L262.343 118.082V120H261.293ZM271.117 120.168C270.109 120.168 268.989 119.79 268.121 119.09L268.667 118.32C269.493 118.922 270.319 119.23 271.117 119.23C272.069 119.23 272.713 118.782 272.713 118.096C272.713 117.312 271.873 117.06 270.893 116.78C269.143 116.276 268.471 115.758 268.471 114.722C268.471 113.406 269.563 112.594 271.005 112.594C271.901 112.594 272.825 112.902 273.595 113.406L273.091 114.218C272.363 113.756 271.649 113.532 271.005 113.532C270.193 113.532 269.521 113.896 269.521 114.596C269.521 115.226 270.053 115.422 271.397 115.856C272.559 116.22 273.763 116.612 273.763 117.984C273.763 119.314 272.615 120.168 271.117 120.168ZM57.808 128.594C59.782 128.594 60.748 129.84 60.748 131.59V136H59.698V134.866C59.18 135.72 58.102 136.168 57.15 136.168C55.624 136.168 54.504 135.286 54.504 133.858C54.504 132.416 55.792 131.45 57.346 131.45C58.13 131.45 58.956 131.618 59.698 131.856V131.59C59.698 130.61 59.306 129.49 57.738 129.49C57.01 129.49 56.282 129.812 55.624 130.148L55.204 129.294C56.24 128.776 57.108 128.594 57.808 128.594ZM57.332 135.244C58.284 135.244 59.418 134.754 59.698 133.732V132.626C59.04 132.444 58.298 132.332 57.514 132.332C56.436 132.332 55.526 132.948 55.526 133.816C55.526 134.712 56.31 135.244 57.332 135.244ZM66.019 136.168C63.989 136.168 62.267 134.432 62.267 132.374C62.267 130.316 63.989 128.594 66.019 128.594C66.999 128.594 67.909 129 68.595 129.658L67.867 130.372C67.391 129.854 66.733 129.532 66.019 129.532C64.577 129.532 63.373 130.834 63.373 132.374C63.373 133.928 64.577 135.23 66.019 135.23C66.747 135.23 67.419 134.894 67.909 134.348L68.637 135.062C67.951 135.748 67.027 136.168 66.019 136.168ZM72.8707 134.936L73.3887 135.706C73.0107 136 72.5347 136.168 72.0447 136.168C71.0087 136.168 70.2807 135.398 70.2807 134.32V129.7H69.1467V128.762H70.2807V126.774H71.3307V128.762H73.1087V129.7H71.3307V134.32C71.3307 134.852 71.6947 135.23 72.1147 135.23C72.4367 135.23 72.7167 135.104 72.8707 134.936ZM79.7249 128.762H80.7749V136H79.7249V134.852C79.3049 135.622 78.3809 136.168 77.3449 136.168C75.7349 136.168 74.6289 135.034 74.6289 133.368V128.762H75.6789V133.228C75.6789 134.418 76.4209 135.23 77.4849 135.23C78.7169 135.23 79.7249 134.39 79.7249 133.368V128.762ZM85.6951 128.594C87.6691 128.594 88.6351 129.84 88.6351 131.59V136H87.5851V134.866C87.0671 135.72 85.9891 136.168 85.0371 136.168C83.5111 136.168 82.3911 135.286 82.3911 133.858C82.3911 132.416 83.6791 131.45 85.2331 131.45C86.0171 131.45 86.8431 131.618 87.5851 131.856V131.59C87.5851 130.61 87.1931 129.49 85.6251 129.49C84.8971 129.49 84.1691 129.812 83.5111 130.148L83.0911 129.294C84.1271 128.776 84.9951 128.594 85.6951 128.594ZM85.2191 135.244C86.1711 135.244 87.3051 134.754 87.5851 133.732V132.626C86.9271 132.444 86.1851 132.332 85.4011 132.332C84.3231 132.332 83.4131 132.948 83.4131 133.816C83.4131 134.712 84.1971 135.244 85.2191 135.244ZM90.7981 136V126.214H91.8481V136H90.7981ZM94.1844 136V126.214H95.2344V136H94.1844ZM98.2007 138.52C97.7807 138.52 97.3887 138.436 97.0527 138.282L97.3047 137.386C97.5567 137.512 97.8507 137.568 98.1587 137.568C98.6207 137.568 98.9287 137.414 99.2087 136.924L99.6287 136.028L96.4787 128.762H97.6407L100.175 134.782L102.569 128.762H103.703L100.399 136.812C99.8947 138.044 99.1947 138.506 98.2007 138.52ZM111.84 136.168C109.782 136.168 108.102 134.46 108.102 132.374C108.102 130.288 109.782 128.594 111.84 128.594C113.884 128.594 115.564 130.288 115.564 132.374C115.564 134.46 113.884 136.168 111.84 136.168ZM111.84 135.23C113.282 135.23 114.472 133.942 114.472 132.374C114.472 130.806 113.282 129.532 111.84 129.532C110.384 129.532 109.194 130.806 109.194 132.374C109.194 133.942 110.384 135.23 111.84 135.23ZM118.323 130.176C118.757 129.21 119.793 128.594 121.123 128.594V129.532C119.485 129.532 118.323 130.54 118.323 131.954V136H117.273V128.762H118.323V130.176ZM123.255 127.446C122.863 127.446 122.555 127.124 122.555 126.746C122.555 126.382 122.863 126.06 123.255 126.06C123.633 126.06 123.941 126.382 123.941 126.746C123.941 127.124 123.633 127.446 123.255 127.446ZM122.723 136V128.762H123.773V136H122.723ZM131.444 128.762H132.494V135.23C132.494 137.092 131.024 138.408 128.938 138.408C127.762 138.408 126.67 138.002 126.012 137.442L126.474 136.616C127.034 137.148 127.902 137.47 128.798 137.47C130.464 137.47 131.444 136.644 131.444 135.23V134.054C130.884 134.936 129.96 135.468 128.812 135.468C126.866 135.468 125.48 134.04 125.48 132.024C125.48 130.008 126.866 128.594 128.812 128.594C129.96 128.594 130.884 129.126 131.444 130.008V128.762ZM129.008 134.53C130.436 134.53 131.444 133.494 131.444 132.024C131.444 130.568 130.436 129.532 129.008 129.532C127.594 129.532 126.586 130.568 126.586 132.024C126.586 133.494 127.594 134.53 129.008 134.53ZM135.36 127.446C134.968 127.446 134.66 127.124 134.66 126.746C134.66 126.382 134.968 126.06 135.36 126.06C135.738 126.06 136.046 126.382 136.046 126.746C136.046 127.124 135.738 127.446 135.36 127.446ZM134.828 136V128.762H135.878V136H134.828ZM141.644 128.594C143.254 128.594 144.36 129.728 144.36 131.394V136H143.31V131.534C143.31 130.344 142.568 129.532 141.504 129.532C140.272 129.532 139.264 130.372 139.264 131.394V136H138.214V128.762H139.264V129.91C139.684 129.14 140.608 128.594 141.644 128.594ZM149.113 128.594C151.087 128.594 152.053 129.84 152.053 131.59V136H151.003V134.866C150.485 135.72 149.407 136.168 148.455 136.168C146.929 136.168 145.809 135.286 145.809 133.858C145.809 132.416 147.097 131.45 148.651 131.45C149.435 131.45 150.261 131.618 151.003 131.856V131.59C151.003 130.61 150.611 129.49 149.043 129.49C148.315 129.49 147.587 129.812 146.929 130.148L146.509 129.294C147.545 128.776 148.413 128.594 149.113 128.594ZM148.637 135.244C149.589 135.244 150.723 134.754 151.003 133.732V132.626C150.345 132.444 149.603 132.332 148.819 132.332C147.741 132.332 146.831 132.948 146.831 133.816C146.831 134.712 147.615 135.244 148.637 135.244ZM157.016 134.936L157.534 135.706C157.156 136 156.68 136.168 156.19 136.168C155.154 136.168 154.426 135.398 154.426 134.32V129.7H153.292V128.762H154.426V126.774H155.476V128.762H157.254V129.7H155.476V134.32C155.476 134.852 155.84 135.23 156.26 135.23C156.582 135.23 156.862 135.104 157.016 134.936ZM161.994 135.23C162.848 135.23 163.828 134.852 164.276 134.362L164.92 135.048C164.29 135.734 163.016 136.168 162.008 136.168C160.076 136.168 158.34 134.586 158.34 132.36C158.34 130.204 159.964 128.594 161.91 128.594C164.094 128.594 165.34 130.246 165.34 132.78H159.418C159.572 134.194 160.566 135.23 161.994 135.23ZM161.952 129.532C160.664 129.532 159.628 130.442 159.432 131.842H164.304C164.164 130.54 163.394 129.532 161.952 129.532ZM172.408 126.214H173.458V136H172.408V134.642C171.862 135.594 170.938 136.168 169.776 136.168C167.872 136.168 166.444 134.6 166.444 132.374C166.444 130.162 167.872 128.594 169.776 128.594C170.938 128.594 171.862 129.168 172.408 130.12V126.214ZM169.972 135.23C171.4 135.23 172.408 134.04 172.408 132.374C172.408 130.708 171.4 129.532 169.972 129.532C168.558 129.532 167.55 130.708 167.55 132.374C167.55 134.04 168.558 135.23 169.972 135.23ZM183.228 128.594C185.132 128.594 186.56 130.162 186.56 132.374C186.56 134.6 185.132 136.168 183.228 136.168C182.066 136.168 181.142 135.594 180.596 134.642V138.408H179.546V128.762H180.596V130.12C181.142 129.168 182.066 128.594 183.228 128.594ZM183.032 135.23C184.446 135.23 185.454 134.04 185.454 132.374C185.454 130.708 184.446 129.532 183.032 129.532C181.604 129.532 180.596 130.708 180.596 132.374C180.596 134.04 181.604 135.23 183.032 135.23ZM188.865 127.446C188.473 127.446 188.165 127.124 188.165 126.746C188.165 126.382 188.473 126.06 188.865 126.06C189.243 126.06 189.551 126.382 189.551 126.746C189.551 127.124 189.243 127.446 188.865 127.446ZM188.333 136V128.762H189.383V136H188.333ZM194.771 135.23C195.625 135.23 196.605 134.852 197.053 134.362L197.697 135.048C197.067 135.734 195.793 136.168 194.785 136.168C192.853 136.168 191.117 134.586 191.117 132.36C191.117 130.204 192.741 128.594 194.687 128.594C196.871 128.594 198.117 130.246 198.117 132.78H192.195C192.349 134.194 193.343 135.23 194.771 135.23ZM194.729 129.532C193.441 129.532 192.405 130.442 192.209 131.842H197.081C196.941 130.54 196.171 129.532 194.729 129.532ZM207.219 128.594C209.123 128.594 210.551 130.162 210.551 132.374C210.551 134.6 209.123 136.168 207.219 136.168C206.057 136.168 205.133 135.594 204.587 134.642V138.408H203.537V128.762H204.587V130.12C205.133 129.168 206.057 128.594 207.219 128.594ZM207.023 135.23C208.437 135.23 209.445 134.04 209.445 132.374C209.445 130.708 208.437 129.532 207.023 129.532C205.595 129.532 204.587 130.708 204.587 132.374C204.587 134.04 205.595 135.23 207.023 135.23ZM214.913 128.594C216.887 128.594 217.853 129.84 217.853 131.59V136H216.803V134.866C216.285 135.72 215.207 136.168 214.255 136.168C212.729 136.168 211.609 135.286 211.609 133.858C211.609 132.416 212.897 131.45 214.451 131.45C215.235 131.45 216.061 131.618 216.803 131.856V131.59C216.803 130.61 216.411 129.49 214.843 129.49C214.115 129.49 213.387 129.812 212.729 130.148L212.309 129.294C213.345 128.776 214.213 128.594 214.913 128.594ZM214.437 135.244C215.389 135.244 216.523 134.754 216.803 133.732V132.626C216.145 132.444 215.403 132.332 214.619 132.332C213.541 132.332 212.631 132.948 212.631 133.816C212.631 134.712 213.415 135.244 214.437 135.244ZM222.256 136.168C221.248 136.168 220.128 135.79 219.26 135.09L219.806 134.32C220.632 134.922 221.458 135.23 222.256 135.23C223.208 135.23 223.852 134.782 223.852 134.096C223.852 133.312 223.012 133.06 222.032 132.78C220.282 132.276 219.61 131.758 219.61 130.722C219.61 129.406 220.702 128.594 222.144 128.594C223.04 128.594 223.964 128.902 224.734 129.406L224.23 130.218C223.502 129.756 222.788 129.532 222.144 129.532C221.332 129.532 220.66 129.896 220.66 130.596C220.66 131.226 221.192 131.422 222.536 131.856C223.698 132.22 224.902 132.612 224.902 133.984C224.902 135.314 223.754 136.168 222.256 136.168ZM229.402 134.936L229.92 135.706C229.542 136 229.066 136.168 228.576 136.168C227.54 136.168 226.812 135.398 226.812 134.32V129.7H225.678V128.762H226.812V126.774H227.862V128.762H229.64V129.7H227.862V134.32C227.862 134.852 228.226 135.23 228.646 135.23C228.968 135.23 229.248 135.104 229.402 134.936ZM232.378 130.176C232.812 129.21 233.848 128.594 235.178 128.594V129.532C233.54 129.532 232.378 130.54 232.378 131.954V136H231.328V128.762H232.378V130.176ZM237.409 138.52C236.989 138.52 236.597 138.436 236.261 138.282L236.513 137.386C236.765 137.512 237.059 137.568 237.367 137.568C237.829 137.568 238.137 137.414 238.417 136.924L238.837 136.028L235.687 128.762H236.849L239.383 134.782L241.777 128.762H242.911L239.607 136.812C239.103 138.044 238.403 138.506 237.409 138.52ZM245.249 136.168C244.815 136.168 244.479 135.818 244.479 135.398C244.479 135.006 244.815 134.656 245.249 134.656C245.655 134.656 245.991 135.006 245.991 135.398C245.991 135.818 245.655 136.168 245.249 136.168ZM254.745 136V127.418H251.511V126.382H259.071V127.418H255.837V136H254.745ZM263.967 128.594C265.577 128.594 266.683 129.728 266.683 131.394V136H265.633V131.534C265.633 130.344 264.891 129.532 263.827 129.532C262.595 129.532 261.587 130.372 261.587 131.394V136H260.537V126.214H261.587V129.91C262.007 129.14 262.931 128.594 263.967 128.594ZM271.897 135.23C272.751 135.23 273.731 134.852 274.179 134.362L274.823 135.048C274.193 135.734 272.919 136.168 271.911 136.168C269.979 136.168 268.243 134.586 268.243 132.36C268.243 130.204 269.867 128.594 271.813 128.594C273.997 128.594 275.243 130.246 275.243 132.78H269.321C269.475 134.194 270.469 135.23 271.897 135.23ZM271.855 129.532C270.567 129.532 269.531 130.442 269.335 131.842H274.207C274.067 130.54 273.297 129.532 271.855 129.532ZM58.9 144.594C60.804 144.594 62.232 146.162 62.232 148.374C62.232 150.6 60.804 152.168 58.9 152.168C57.738 152.168 56.814 151.594 56.268 150.642V154.408H55.218V144.762H56.268V146.12C56.814 145.168 57.738 144.594 58.9 144.594ZM58.704 151.23C60.118 151.23 61.126 150.04 61.126 148.374C61.126 146.708 60.118 145.532 58.704 145.532C57.276 145.532 56.268 146.708 56.268 148.374C56.268 150.04 57.276 151.23 58.704 151.23ZM64.5367 143.446C64.1447 143.446 63.8367 143.124 63.8367 142.746C63.8367 142.382 64.1447 142.06 64.5367 142.06C64.9147 142.06 65.2227 142.382 65.2227 142.746C65.2227 143.124 64.9147 143.446 64.5367 143.446ZM64.0047 152V144.762H65.0547V152H64.0047ZM70.443 151.23C71.297 151.23 72.277 150.852 72.725 150.362L73.369 151.048C72.739 151.734 71.465 152.168 70.457 152.168C68.525 152.168 66.789 150.586 66.789 148.36C66.789 146.204 68.413 144.594 70.359 144.594C72.543 144.594 73.789 146.246 73.789 148.78H67.867C68.021 150.194 69.015 151.23 70.443 151.23ZM70.401 145.532C69.113 145.532 68.077 146.442 67.881 147.842H72.753C72.613 146.54 71.843 145.532 70.401 145.532ZM77.6932 152.168C76.6852 152.168 75.5652 151.79 74.6972 151.09L75.2432 150.32C76.0692 150.922 76.8952 151.23 77.6932 151.23C78.6452 151.23 79.2892 150.782 79.2892 150.096C79.2892 149.312 78.4492 149.06 77.4692 148.78C75.7192 148.276 75.0472 147.758 75.0472 146.722C75.0472 145.406 76.1392 144.594 77.5812 144.594C78.4772 144.594 79.4012 144.902 80.1712 145.406L79.6672 146.218C78.9392 145.756 78.2252 145.532 77.5812 145.532C76.7692 145.532 76.0972 145.896 76.0972 146.596C76.0972 147.226 76.6292 147.422 77.9732 147.856C79.1352 148.22 80.3392 148.612 80.3392 149.984C80.3392 151.314 79.1912 152.168 77.6932 152.168ZM91.1982 142.214H92.2482V152H91.1982V150.642C90.6522 151.594 89.7282 152.168 88.5662 152.168C86.6622 152.168 85.2342 150.6 85.2342 148.374C85.2342 146.162 86.6622 144.594 88.5662 144.594C89.7282 144.594 90.6522 145.168 91.1982 146.12V142.214ZM88.7622 151.23C90.1902 151.23 91.1982 150.04 91.1982 148.374C91.1982 146.708 90.1902 145.532 88.7622 145.532C87.3482 145.532 86.3402 146.708 86.3402 148.374C86.3402 150.04 87.3482 151.23 88.7622 151.23ZM99.5089 144.762H100.559V152H99.5089V150.852C99.0889 151.622 98.1649 152.168 97.1289 152.168C95.5189 152.168 94.4129 151.034 94.4129 149.368V144.762H95.4629V149.228C95.4629 150.418 96.2049 151.23 97.2689 151.23C98.5009 151.23 99.5089 150.39 99.5089 149.368V144.762ZM103.939 146.176C104.373 145.21 105.409 144.594 106.739 144.594V145.532C105.101 145.532 103.939 146.54 103.939 147.954V152H102.889V144.762H103.939V146.176ZM108.872 143.446C108.48 143.446 108.172 143.124 108.172 142.746C108.172 142.382 108.48 142.06 108.872 142.06C109.25 142.06 109.558 142.382 109.558 142.746C109.558 143.124 109.25 143.446 108.872 143.446ZM108.34 152V144.762H109.39V152H108.34ZM115.156 144.594C116.766 144.594 117.872 145.728 117.872 147.394V152H116.822V147.534C116.822 146.344 116.08 145.532 115.016 145.532C113.784 145.532 112.776 146.372 112.776 147.394V152H111.726V144.762H112.776V145.91C113.196 145.14 114.12 144.594 115.156 144.594ZM125.368 144.762H126.418V151.23C126.418 153.092 124.948 154.408 122.862 154.408C121.686 154.408 120.594 154.002 119.936 153.442L120.398 152.616C120.958 153.148 121.826 153.47 122.722 153.47C124.388 153.47 125.368 152.644 125.368 151.23V150.054C124.808 150.936 123.884 151.468 122.736 151.468C120.79 151.468 119.404 150.04 119.404 148.024C119.404 146.008 120.79 144.594 122.736 144.594C123.884 144.594 124.808 145.126 125.368 146.008V144.762ZM122.932 150.53C124.36 150.53 125.368 149.494 125.368 148.024C125.368 146.568 124.36 145.532 122.932 145.532C121.518 145.532 120.51 146.568 120.51 148.024C120.51 149.494 121.518 150.53 122.932 150.53ZM135.308 150.936L135.826 151.706C135.448 152 134.972 152.168 134.482 152.168C133.446 152.168 132.718 151.398 132.718 150.32V145.7H131.584V144.762H132.718V142.774H133.768V144.762H135.546V145.7H133.768V150.32C133.768 150.852 134.132 151.23 134.552 151.23C134.874 151.23 135.154 151.104 135.308 150.936ZM140.664 144.594C142.274 144.594 143.38 145.728 143.38 147.394V152H142.33V147.534C142.33 146.344 141.588 145.532 140.524 145.532C139.292 145.532 138.284 146.372 138.284 147.394V152H137.234V142.214H138.284V145.91C138.704 145.14 139.628 144.594 140.664 144.594ZM146.075 143.446C145.683 143.446 145.375 143.124 145.375 142.746C145.375 142.382 145.683 142.06 146.075 142.06C146.453 142.06 146.761 142.382 146.761 142.746C146.761 143.124 146.453 143.446 146.075 143.446ZM145.543 152V144.762H146.593V152H145.543ZM151.169 152.168C150.161 152.168 149.041 151.79 148.173 151.09L148.719 150.32C149.545 150.922 150.371 151.23 151.169 151.23C152.121 151.23 152.765 150.782 152.765 150.096C152.765 149.312 151.925 149.06 150.945 148.78C149.195 148.276 148.523 147.758 148.523 146.722C148.523 145.406 149.615 144.594 151.057 144.594C151.953 144.594 152.877 144.902 153.647 145.406L153.143 146.218C152.415 145.756 151.701 145.532 151.057 145.532C150.245 145.532 149.573 145.896 149.573 146.596C149.573 147.226 150.105 147.422 151.449 147.856C152.611 148.22 153.815 148.612 153.815 149.984C153.815 151.314 152.667 152.168 151.169 152.168ZM162.952 144.594C164.856 144.594 166.284 146.162 166.284 148.374C166.284 150.6 164.856 152.168 162.952 152.168C161.79 152.168 160.866 151.594 160.32 150.642V154.408H159.27V144.762H160.32V146.12C160.866 145.168 161.79 144.594 162.952 144.594ZM162.756 151.23C164.17 151.23 165.178 150.04 165.178 148.374C165.178 146.708 164.17 145.532 162.756 145.532C161.328 145.532 160.32 146.708 160.32 148.374C160.32 150.04 161.328 151.23 162.756 151.23ZM171.109 151.23C171.963 151.23 172.943 150.852 173.391 150.362L174.035 151.048C173.405 151.734 172.131 152.168 171.123 152.168C169.191 152.168 167.455 150.586 167.455 148.36C167.455 146.204 169.079 144.594 171.025 144.594C173.209 144.594 174.455 146.246 174.455 148.78H168.533C168.687 150.194 169.681 151.23 171.109 151.23ZM171.067 145.532C169.779 145.532 168.743 146.442 168.547 147.842H173.419C173.279 146.54 172.509 145.532 171.067 145.532ZM177.169 146.176C177.603 145.21 178.639 144.594 179.969 144.594V145.532C178.331 145.532 177.169 146.54 177.169 147.954V152H176.119V144.762H177.169V146.176ZM182.102 143.446C181.71 143.446 181.402 143.124 181.402 142.746C181.402 142.382 181.71 142.06 182.102 142.06C182.48 142.06 182.788 142.382 182.788 142.746C182.788 143.124 182.48 143.446 182.102 143.446ZM181.57 152V144.762H182.62V152H181.57ZM188.064 152.168C186.006 152.168 184.326 150.46 184.326 148.374C184.326 146.288 186.006 144.594 188.064 144.594C190.108 144.594 191.788 146.288 191.788 148.374C191.788 150.46 190.108 152.168 188.064 152.168ZM188.064 151.23C189.506 151.23 190.696 149.942 190.696 148.374C190.696 146.806 189.506 145.532 188.064 145.532C186.608 145.532 185.418 146.806 185.418 148.374C185.418 149.942 186.608 151.23 188.064 151.23ZM198.901 142.214H199.951V152H198.901V150.642C198.355 151.594 197.431 152.168 196.269 152.168C194.365 152.168 192.937 150.6 192.937 148.374C192.937 146.162 194.365 144.594 196.269 144.594C197.431 144.594 198.355 145.168 198.901 146.12V142.214ZM196.465 151.23C197.893 151.23 198.901 150.04 198.901 148.374C198.901 146.708 197.893 145.532 196.465 145.532C195.051 145.532 194.043 146.708 194.043 148.374C194.043 150.04 195.051 151.23 196.465 151.23ZM207.467 152L205.045 144.762H206.165L207.971 150.6L209.945 144.762H210.855L212.829 150.6L214.635 144.762H215.755L213.319 152H212.325L210.407 146.218L208.461 152H207.467ZM220.147 151.23C221.001 151.23 221.981 150.852 222.429 150.362L223.073 151.048C222.443 151.734 221.169 152.168 220.161 152.168C218.229 152.168 216.493 150.586 216.493 148.36C216.493 146.204 218.117 144.594 220.063 144.594C222.247 144.594 223.493 146.246 223.493 148.78H217.571C217.725 150.194 218.719 151.23 220.147 151.23ZM220.105 145.532C218.817 145.532 217.781 146.442 217.585 147.842H222.457C222.317 146.54 221.547 145.532 220.105 145.532ZM226.207 146.176C226.641 145.21 227.677 144.594 229.007 144.594V145.532C227.369 145.532 226.207 146.54 226.207 147.954V152H225.157V144.762H226.207V146.176ZM233.66 151.23C234.514 151.23 235.494 150.852 235.942 150.362L236.586 151.048C235.956 151.734 234.682 152.168 233.674 152.168C231.742 152.168 230.006 150.586 230.006 148.36C230.006 146.204 231.63 144.594 233.576 144.594C235.76 144.594 237.006 146.246 237.006 148.78H231.084C231.238 150.194 232.232 151.23 233.66 151.23ZM233.618 145.532C232.33 145.532 231.294 146.442 231.098 147.842H235.97C235.83 146.54 235.06 145.532 233.618 145.532ZM250.251 144.594C251.763 144.594 252.827 145.756 252.827 147.394V152H251.777V147.534C251.777 146.358 251.091 145.532 250.111 145.532C248.963 145.532 248.151 146.302 248.151 147.394V152H247.101V147.534C247.101 146.358 246.415 145.532 245.435 145.532C244.287 145.532 243.475 146.302 243.475 147.394V152H242.425V144.762H243.475V145.826C243.839 145.07 244.623 144.594 245.575 144.594C246.723 144.594 247.619 145.266 247.983 146.316C248.207 145.294 249.103 144.594 250.251 144.594ZM257.589 144.594C259.563 144.594 260.529 145.84 260.529 147.59V152H259.479V150.866C258.961 151.72 257.883 152.168 256.931 152.168C255.405 152.168 254.285 151.286 254.285 149.858C254.285 148.416 255.573 147.45 257.127 147.45C257.911 147.45 258.737 147.618 259.479 147.856V147.59C259.479 146.61 259.087 145.49 257.519 145.49C256.791 145.49 256.063 145.812 255.405 146.148L254.985 145.294C256.021 144.776 256.889 144.594 257.589 144.594ZM257.113 151.244C258.065 151.244 259.199 150.754 259.479 149.732V148.626C258.821 148.444 258.079 148.332 257.295 148.332C256.217 148.332 255.307 148.948 255.307 149.816C255.307 150.712 256.091 151.244 257.113 151.244ZM268.096 142.214H269.146V152H268.096V150.642C267.55 151.594 266.626 152.168 265.464 152.168C263.56 152.168 262.132 150.6 262.132 148.374C262.132 146.162 263.56 144.594 265.464 144.594C266.626 144.594 267.55 145.168 268.096 146.12V142.214ZM265.66 151.23C267.088 151.23 268.096 150.04 268.096 148.374C268.096 146.708 267.088 145.532 265.66 145.532C264.246 145.532 263.238 146.708 263.238 148.374C263.238 150.04 264.246 151.23 265.66 151.23ZM274.531 151.23C275.385 151.23 276.365 150.852 276.813 150.362L277.457 151.048C276.827 151.734 275.553 152.168 274.545 152.168C272.613 152.168 270.877 150.586 270.877 148.36C270.877 146.204 272.501 144.594 274.447 144.594C276.631 144.594 277.877 146.246 277.877 148.78H271.955C272.109 150.194 273.103 151.23 274.531 151.23ZM274.489 145.532C273.201 145.532 272.165 146.442 271.969 147.842H276.841C276.701 146.54 275.931 145.532 274.489 145.532ZM58.326 168.168C56.268 168.168 54.588 166.46 54.588 164.374C54.588 162.288 56.268 160.594 58.326 160.594C60.37 160.594 62.05 162.288 62.05 164.374C62.05 166.46 60.37 168.168 58.326 168.168ZM58.326 167.23C59.768 167.23 60.958 165.942 60.958 164.374C60.958 162.806 59.768 161.532 58.326 161.532C56.87 161.532 55.68 162.806 55.68 164.374C55.68 165.942 56.87 167.23 58.326 167.23ZM65.0606 159.768V160.762H66.8386V161.7H65.0606V168H64.0106V161.7H62.8766V160.762H64.0106V159.768C64.0106 158.69 64.7386 157.92 65.7746 157.92C66.2646 157.92 66.7406 158.088 67.1186 158.382L66.6006 159.152C66.4466 158.984 66.1666 158.858 65.8446 158.858C65.4246 158.858 65.0606 159.236 65.0606 159.768ZM74.4475 160.594C76.4215 160.594 77.3875 161.84 77.3875 163.59V168H76.3375V166.866C75.8195 167.72 74.7415 168.168 73.7895 168.168C72.2635 168.168 71.1435 167.286 71.1435 165.858C71.1435 164.416 72.4315 163.45 73.9855 163.45C74.7695 163.45 75.5955 163.618 76.3375 163.856V163.59C76.3375 162.61 75.9455 161.49 74.3775 161.49C73.6495 161.49 72.9215 161.812 72.2635 162.148L71.8435 161.294C72.8795 160.776 73.7475 160.594 74.4475 160.594ZM73.9715 167.244C74.9235 167.244 76.0575 166.754 76.3375 165.732V164.626C75.6795 164.444 74.9375 164.332 74.1535 164.332C73.0755 164.332 72.1655 164.948 72.1655 165.816C72.1655 166.712 72.9495 167.244 73.9715 167.244ZM84.6079 159.768V160.762H86.3859V161.7H84.6079V168H83.5579V161.7H82.4239V160.762H83.5579V159.768C83.5579 158.69 84.2859 157.92 85.3219 157.92C85.8119 157.92 86.2879 158.088 86.6659 158.382L86.1479 159.152C85.9939 158.984 85.7139 158.858 85.3919 158.858C84.9719 158.858 84.6079 159.236 84.6079 159.768ZM87.6493 168V158.214H88.6993V168H87.6493ZM94.1436 168.168C92.0856 168.168 90.4056 166.46 90.4056 164.374C90.4056 162.288 92.0856 160.594 94.1436 160.594C96.1876 160.594 97.8676 162.288 97.8676 164.374C97.8676 166.46 96.1876 168.168 94.1436 168.168ZM94.1436 167.23C95.5856 167.23 96.7756 165.942 96.7756 164.374C96.7756 162.806 95.5856 161.532 94.1436 161.532C92.6876 161.532 91.4976 162.806 91.4976 164.374C91.4976 165.942 92.6876 167.23 94.1436 167.23ZM104.504 160.762H105.554V168H104.504V166.852C104.084 167.622 103.16 168.168 102.124 168.168C100.514 168.168 99.4082 167.034 99.4082 165.368V160.762H100.458V165.228C100.458 166.418 101.2 167.23 102.264 167.23C103.496 167.23 104.504 166.39 104.504 165.368V160.762ZM108.934 162.176C109.368 161.21 110.404 160.594 111.734 160.594V161.532C110.096 161.532 108.934 162.54 108.934 163.954V168H107.884V160.762H108.934V162.176ZM113.321 164.71V163.688H116.947V164.71H113.321ZM120.692 168L118.27 160.762H119.39L121.196 166.6L123.17 160.762H124.08L126.054 166.6L127.86 160.762H128.98L126.544 168H125.55L123.632 162.218L121.686 168H120.692ZM132.911 160.594C134.885 160.594 135.851 161.84 135.851 163.59V168H134.801V166.866C134.283 167.72 133.205 168.168 132.253 168.168C130.727 168.168 129.607 167.286 129.607 165.858C129.607 164.416 130.895 163.45 132.449 163.45C133.233 163.45 134.059 163.618 134.801 163.856V163.59C134.801 162.61 134.409 161.49 132.841 161.49C132.113 161.49 131.385 161.812 130.727 162.148L130.307 161.294C131.343 160.776 132.211 160.594 132.911 160.594ZM132.435 167.244C133.387 167.244 134.521 166.754 134.801 165.732V164.626C134.143 164.444 133.401 164.332 132.617 164.332C131.539 164.332 130.629 164.948 130.629 165.816C130.629 166.712 131.413 167.244 132.435 167.244ZM140.814 166.936L141.332 167.706C140.954 168 140.478 168.168 139.988 168.168C138.952 168.168 138.224 167.398 138.224 166.32V161.7H137.09V160.762H138.224V158.774H139.274V160.762H141.052V161.7H139.274V166.32C139.274 166.852 139.638 167.23 140.058 167.23C140.38 167.23 140.66 167.104 140.814 166.936ZM145.792 167.23C146.646 167.23 147.626 166.852 148.074 166.362L148.718 167.048C148.088 167.734 146.814 168.168 145.806 168.168C143.874 168.168 142.138 166.586 142.138 164.36C142.138 162.204 143.762 160.594 145.708 160.594C147.892 160.594 149.138 162.246 149.138 164.78H143.216C143.37 166.194 144.364 167.23 145.792 167.23ZM145.75 161.532C144.462 161.532 143.426 162.442 143.23 163.842H148.102C147.962 162.54 147.192 161.532 145.75 161.532ZM151.852 162.176C152.286 161.21 153.322 160.594 154.652 160.594V161.532C153.014 161.532 151.852 162.54 151.852 163.954V168H150.802V160.762H151.852V162.176ZM163.69 160.594C165.594 160.594 167.022 162.162 167.022 164.374C167.022 166.6 165.594 168.168 163.69 168.168C162.528 168.168 161.604 167.594 161.058 166.642V170.408H160.008V160.762H161.058V162.12C161.604 161.168 162.528 160.594 163.69 160.594ZM163.494 167.23C164.908 167.23 165.916 166.04 165.916 164.374C165.916 162.708 164.908 161.532 163.494 161.532C162.066 161.532 161.058 162.708 161.058 164.374C161.058 166.04 162.066 167.23 163.494 167.23ZM171.385 160.594C173.359 160.594 174.325 161.84 174.325 163.59V168H173.275V166.866C172.757 167.72 171.679 168.168 170.727 168.168C169.201 168.168 168.081 167.286 168.081 165.858C168.081 164.416 169.369 163.45 170.923 163.45C171.707 163.45 172.533 163.618 173.275 163.856V163.59C173.275 162.61 172.883 161.49 171.315 161.49C170.587 161.49 169.859 161.812 169.201 162.148L168.781 161.294C169.817 160.776 170.685 160.594 171.385 160.594ZM170.909 167.244C171.861 167.244 172.995 166.754 173.275 165.732V164.626C172.617 164.444 171.875 164.332 171.091 164.332C170.013 164.332 169.103 164.948 169.103 165.816C169.103 166.712 169.887 167.244 170.909 167.244ZM178.728 168.168C177.72 168.168 176.6 167.79 175.732 167.09L176.278 166.32C177.104 166.922 177.93 167.23 178.728 167.23C179.68 167.23 180.324 166.782 180.324 166.096C180.324 165.312 179.484 165.06 178.504 164.78C176.754 164.276 176.082 163.758 176.082 162.722C176.082 161.406 177.174 160.594 178.616 160.594C179.512 160.594 180.436 160.902 181.206 161.406L180.702 162.218C179.974 161.756 179.26 161.532 178.616 161.532C177.804 161.532 177.132 161.896 177.132 162.596C177.132 163.226 177.664 163.422 179.008 163.856C180.17 164.22 181.374 164.612 181.374 165.984C181.374 167.314 180.226 168.168 178.728 168.168ZM185.873 166.936L186.391 167.706C186.013 168 185.537 168.168 185.047 168.168C184.011 168.168 183.283 167.398 183.283 166.32V161.7H182.149V160.762H183.283V158.774H184.333V160.762H186.111V161.7H184.333V166.32C184.333 166.852 184.697 167.23 185.117 167.23C185.439 167.23 185.719 167.104 185.873 166.936ZM190.852 167.23C191.706 167.23 192.686 166.852 193.134 166.362L193.778 167.048C193.148 167.734 191.874 168.168 190.866 168.168C188.934 168.168 187.198 166.586 187.198 164.36C187.198 162.204 188.822 160.594 190.768 160.594C192.952 160.594 194.198 162.246 194.198 164.78H188.276C188.43 166.194 189.424 167.23 190.852 167.23ZM190.81 161.532C189.522 161.532 188.486 162.442 188.29 163.842H193.162C193.022 162.54 192.252 161.532 190.81 161.532ZM201.045 168L198.623 160.762H199.743L201.549 166.6L203.523 160.762H204.433L206.407 166.6L208.213 160.762H209.333L206.897 168H205.903L203.985 162.218L202.039 168H201.045ZM211.723 162.176C212.157 161.21 213.193 160.594 214.523 160.594V161.532C212.885 161.532 211.723 162.54 211.723 163.954V168H210.673V160.762H211.723V162.176ZM218.714 160.594C220.688 160.594 221.654 161.84 221.654 163.59V168H220.604V166.866C220.086 167.72 219.008 168.168 218.056 168.168C216.53 168.168 215.41 167.286 215.41 165.858C215.41 164.416 216.698 163.45 218.252 163.45C219.036 163.45 219.862 163.618 220.604 163.856V163.59C220.604 162.61 220.212 161.49 218.644 161.49C217.916 161.49 217.188 161.812 216.53 162.148L216.11 161.294C217.146 160.776 218.014 160.594 218.714 160.594ZM218.238 167.244C219.19 167.244 220.324 166.754 220.604 165.732V164.626C219.946 164.444 219.204 164.332 218.42 164.332C217.342 164.332 216.432 164.948 216.432 165.816C216.432 166.712 217.216 167.244 218.238 167.244ZM227.499 160.594C229.403 160.594 230.831 162.162 230.831 164.374C230.831 166.6 229.403 168.168 227.499 168.168C226.337 168.168 225.413 167.594 224.867 166.642V170.408H223.817V160.762H224.867V162.12C225.413 161.168 226.337 160.594 227.499 160.594ZM227.303 167.23C228.717 167.23 229.725 166.04 229.725 164.374C229.725 162.708 228.717 161.532 227.303 161.532C225.875 161.532 224.867 162.708 224.867 164.374C224.867 166.04 225.875 167.23 227.303 167.23ZM236.286 160.594C238.19 160.594 239.618 162.162 239.618 164.374C239.618 166.6 238.19 168.168 236.286 168.168C235.124 168.168 234.2 167.594 233.654 166.642V170.408H232.604V160.762H233.654V162.12C234.2 161.168 235.124 160.594 236.286 160.594ZM236.09 167.23C237.504 167.23 238.512 166.04 238.512 164.374C238.512 162.708 237.504 161.532 236.09 161.532C234.662 161.532 233.654 162.708 233.654 164.374C233.654 166.04 234.662 167.23 236.09 167.23ZM244.443 167.23C245.297 167.23 246.277 166.852 246.725 166.362L247.369 167.048C246.739 167.734 245.465 168.168 244.457 168.168C242.525 168.168 240.789 166.586 240.789 164.36C240.789 162.204 242.413 160.594 244.359 160.594C246.543 160.594 247.789 162.246 247.789 164.78H241.867C242.021 166.194 243.015 167.23 244.443 167.23ZM244.401 161.532C243.113 161.532 242.077 162.442 241.881 163.842H246.753C246.613 162.54 245.843 161.532 244.401 161.532ZM254.857 158.214H255.907V168H254.857V166.642C254.311 167.594 253.387 168.168 252.225 168.168C250.321 168.168 248.893 166.6 248.893 164.374C248.893 162.162 250.321 160.594 252.225 160.594C253.387 160.594 254.311 161.168 254.857 162.12V158.214ZM252.421 167.23C253.849 167.23 254.857 166.04 254.857 164.374C254.857 162.708 253.849 161.532 252.421 161.532C251.007 161.532 249.999 162.708 249.999 164.374C249.999 166.04 251.007 167.23 252.421 167.23ZM57.808 176.594C59.782 176.594 60.748 177.84 60.748 179.59V184H59.698V182.866C59.18 183.72 58.102 184.168 57.15 184.168C55.624 184.168 54.504 183.286 54.504 181.858C54.504 180.416 55.792 179.45 57.346 179.45C58.13 179.45 58.956 179.618 59.698 179.856V179.59C59.698 178.61 59.306 177.49 57.738 177.49C57.01 177.49 56.282 177.812 55.624 178.148L55.204 177.294C56.24 176.776 57.108 176.594 57.808 176.594ZM57.332 183.244C58.284 183.244 59.418 182.754 59.698 181.732V180.626C59.04 180.444 58.298 180.332 57.514 180.332C56.436 180.332 55.526 180.948 55.526 181.816C55.526 182.712 56.31 183.244 57.332 183.244ZM63.961 178.176C64.395 177.21 65.431 176.594 66.761 176.594V177.532C65.123 177.532 63.961 178.54 63.961 179.954V184H62.911V176.762H63.961V178.176ZM71.4698 184.168C69.4118 184.168 67.7318 182.46 67.7318 180.374C67.7318 178.288 69.4118 176.594 71.4698 176.594C73.5138 176.594 75.1938 178.288 75.1938 180.374C75.1938 182.46 73.5138 184.168 71.4698 184.168ZM71.4698 183.23C72.9118 183.23 74.1018 181.942 74.1018 180.374C74.1018 178.806 72.9118 177.532 71.4698 177.532C70.0138 177.532 68.8238 178.806 68.8238 180.374C68.8238 181.942 70.0138 183.23 71.4698 183.23ZM81.8304 176.762H82.8804V184H81.8304V182.852C81.4104 183.622 80.4864 184.168 79.4504 184.168C77.8404 184.168 76.7344 183.034 76.7344 181.368V176.762H77.7844V181.228C77.7844 182.418 78.5264 183.23 79.5904 183.23C80.8224 183.23 81.8304 182.39 81.8304 181.368V176.762ZM88.6406 176.594C90.2506 176.594 91.3566 177.728 91.3566 179.394V184H90.3066V179.534C90.3066 178.344 89.5646 177.532 88.5006 177.532C87.2686 177.532 86.2606 178.372 86.2606 179.394V184H85.2106V176.762H86.2606V177.91C86.6806 177.14 87.6046 176.594 88.6406 176.594ZM98.9228 174.214H99.9728V184H98.9228V182.642C98.3768 183.594 97.4528 184.168 96.2908 184.168C94.3868 184.168 92.9588 182.6 92.9588 180.374C92.9588 178.162 94.3868 176.594 96.2908 176.594C97.4528 176.594 98.3768 177.168 98.9228 178.12V174.214ZM96.4868 183.23C97.9148 183.23 98.9228 182.04 98.9228 180.374C98.9228 178.708 97.9148 177.532 96.4868 177.532C95.0728 177.532 94.0648 178.708 94.0648 180.374C94.0648 182.04 95.0728 183.23 96.4868 183.23ZM113.887 176.594C115.399 176.594 116.463 177.756 116.463 179.394V184H115.413V179.534C115.413 178.358 114.727 177.532 113.747 177.532C112.599 177.532 111.787 178.302 111.787 179.394V184H110.737V179.534C110.737 178.358 110.051 177.532 109.071 177.532C107.923 177.532 107.111 178.302 107.111 179.394V184H106.061V176.762H107.111V177.826C107.475 177.07 108.259 176.594 109.211 176.594C110.359 176.594 111.255 177.266 111.619 178.316C111.843 177.294 112.739 176.594 113.887 176.594ZM121.687 183.23C122.541 183.23 123.521 182.852 123.969 182.362L124.613 183.048C123.983 183.734 122.709 184.168 121.701 184.168C119.769 184.168 118.033 182.586 118.033 180.36C118.033 178.204 119.657 176.594 121.603 176.594C123.787 176.594 125.033 178.246 125.033 180.78H119.111C119.265 182.194 120.259 183.23 121.687 183.23ZM121.645 177.532C120.357 177.532 119.321 178.442 119.125 179.842H123.997C123.857 178.54 123.087 177.532 121.645 177.532ZM129.287 176.594C131.261 176.594 132.227 177.84 132.227 179.59V184H131.177V182.866C130.659 183.72 129.581 184.168 128.629 184.168C127.103 184.168 125.983 183.286 125.983 181.858C125.983 180.416 127.271 179.45 128.825 179.45C129.609 179.45 130.435 179.618 131.177 179.856V179.59C131.177 178.61 130.785 177.49 129.217 177.49C128.489 177.49 127.761 177.812 127.103 178.148L126.683 177.294C127.719 176.776 128.587 176.594 129.287 176.594ZM128.811 183.244C129.763 183.244 130.897 182.754 131.177 181.732V180.626C130.519 180.444 129.777 180.332 128.993 180.332C127.915 180.332 127.005 180.948 127.005 181.816C127.005 182.712 127.789 183.244 128.811 183.244ZM137.19 182.936L137.708 183.706C137.33 184 136.854 184.168 136.364 184.168C135.328 184.168 134.6 183.398 134.6 182.32V177.7H133.466V176.762H134.6V174.774H135.65V176.762H137.428V177.7H135.65V182.32C135.65 182.852 136.014 183.23 136.434 183.23C136.756 183.23 137.036 183.104 137.19 182.936ZM140.18 184.168C139.746 184.168 139.41 183.818 139.41 183.398C139.41 183.006 139.746 182.656 140.18 182.656C140.586 182.656 140.922 183.006 140.922 183.398C140.922 183.818 140.586 184.168 140.18 184.168Z" fill="#22343C"/>
</g>
<rect x="38.5" y="68.5" width="257" height="135" rx="3.5" stroke="#67777E"/>
<mask id="path-5-inside-1_9030_6579" fill="white">
<path fill-rule="evenodd" clip-rule="evenodd" d="M39 139L26 126.003L38.9983 126"/>
</mask>
<path fill-rule="evenodd" clip-rule="evenodd" d="M39 139L26 126.003L38.9983 126" fill="white"/>
<path d="M38.293 139.707L39.0001 140.414L40.4142 139L39.707 138.293L38.293 139.707ZM26 126.003L25.9998 125.003L23.5859 125.003L25.293 126.71L26 126.003ZM38.9986 127L39.9986 127L39.9981 125L38.9981 125L38.9986 127ZM39.707 138.293L26.707 125.296L25.293 126.71L38.293 139.707L39.707 138.293ZM26.0002 127.003L38.9986 127L38.9981 125L25.9998 125.003L26.0002 127.003Z" fill="#67777E" mask="url(#path-5-inside-1_9030_6579)"/>
<rect x="370.5" y="0.5" width="358" height="271" rx="3.5" fill="white"/>
<path d="M705.627 24L709.311 20.3155C709.462 20.1392 709.452 19.8763 709.288 19.7122C709.124 19.548 708.861 19.5379 708.684 19.6889L705 23.3733L701.316 19.6844C701.141 19.5101 700.859 19.5101 700.684 19.6844C700.51 19.8587 700.51 20.1413 700.684 20.3155L704.373 24L700.684 27.6844C700.558 27.793 700.502 27.9636 700.541 28.1259C700.58 28.2883 700.707 28.4151 700.87 28.4541C701.032 28.4932 701.202 28.4379 701.311 28.3111L705 24.6266L708.684 28.3111C708.861 28.4621 709.124 28.4519 709.288 28.2878C709.452 28.1236 709.462 27.8608 709.311 27.6844L705.627 24Z" fill="#67777E"/>
<g clip-path="url(#clip1_9030_6579)">
<path d="M387.526 52V42.382H391.432C393.42 42.382 394.974 43.656 394.974 45.462C394.974 47.268 393.42 48.542 391.432 48.542H388.618V52H387.526ZM388.618 47.506H391.236C392.804 47.506 393.868 46.75 393.868 45.462C393.868 44.174 392.804 43.418 391.236 43.418H388.618V47.506ZM397.234 43.446C396.842 43.446 396.534 43.124 396.534 42.746C396.534 42.382 396.842 42.06 397.234 42.06C397.612 42.06 397.92 42.382 397.92 42.746C397.92 43.124 397.612 43.446 397.234 43.446ZM396.702 52V44.762H397.752V52H396.702ZM403.14 51.23C403.994 51.23 404.974 50.852 405.422 50.362L406.066 51.048C405.436 51.734 404.162 52.168 403.154 52.168C401.222 52.168 399.486 50.586 399.486 48.36C399.486 46.204 401.11 44.594 403.056 44.594C405.24 44.594 406.486 46.246 406.486 48.78H400.564C400.718 50.194 401.712 51.23 403.14 51.23ZM403.098 45.532C401.81 45.532 400.774 46.442 400.578 47.842H405.45C405.31 46.54 404.54 45.532 403.098 45.532ZM415.014 52.168C412.984 52.168 411.262 50.432 411.262 48.374C411.262 46.316 412.984 44.594 415.014 44.594C415.994 44.594 416.904 45 417.59 45.658L416.862 46.372C416.386 45.854 415.728 45.532 415.014 45.532C413.572 45.532 412.368 46.834 412.368 48.374C412.368 49.928 413.572 51.23 415.014 51.23C415.742 51.23 416.414 50.894 416.904 50.348L417.632 51.062C416.946 51.748 416.022 52.168 415.014 52.168ZM422.496 44.594C424.106 44.594 425.212 45.728 425.212 47.394V52H424.162V47.534C424.162 46.344 423.42 45.532 422.356 45.532C421.124 45.532 420.116 46.372 420.116 47.394V52H419.066V42.214H420.116V45.91C420.536 45.14 421.46 44.594 422.496 44.594ZM429.964 44.594C431.938 44.594 432.904 45.84 432.904 47.59V52H431.854V50.866C431.336 51.72 430.258 52.168 429.306 52.168C427.78 52.168 426.66 51.286 426.66 49.858C426.66 48.416 427.948 47.45 429.502 47.45C430.286 47.45 431.112 47.618 431.854 47.856V47.59C431.854 46.61 431.462 45.49 429.894 45.49C429.166 45.49 428.438 45.812 427.78 46.148L427.36 45.294C428.396 44.776 429.264 44.594 429.964 44.594ZM429.488 51.244C430.44 51.244 431.574 50.754 431.854 49.732V48.626C431.196 48.444 430.454 48.332 429.67 48.332C428.592 48.332 427.682 48.948 427.682 49.816C427.682 50.712 428.466 51.244 429.488 51.244ZM436.117 46.176C436.551 45.21 437.587 44.594 438.917 44.594V45.532C437.279 45.532 436.117 46.54 436.117 47.954V52H435.067V44.762H436.117V46.176ZM443.318 50.936L443.836 51.706C443.458 52 442.982 52.168 442.492 52.168C441.456 52.168 440.728 51.398 440.728 50.32V45.7H439.594V44.762H440.728V42.774H441.778V44.762H443.556V45.7H441.778V50.32C441.778 50.852 442.142 51.23 442.562 51.23C442.884 51.23 443.164 51.104 443.318 50.936ZM452.107 52.168C450.049 52.168 448.369 50.46 448.369 48.374C448.369 46.288 450.049 44.594 452.107 44.594C454.151 44.594 455.831 46.288 455.831 48.374C455.831 50.46 454.151 52.168 452.107 52.168ZM452.107 51.23C453.549 51.23 454.739 49.942 454.739 48.374C454.739 46.806 453.549 45.532 452.107 45.532C450.651 45.532 449.461 46.806 449.461 48.374C449.461 49.942 450.651 51.23 452.107 51.23ZM458.842 43.768V44.762H460.62V45.7H458.842V52H457.792V45.7H456.658V44.762H457.792V43.768C457.792 42.69 458.52 41.92 459.556 41.92C460.046 41.92 460.522 42.088 460.9 42.382L460.382 43.152C460.228 42.984 459.948 42.858 459.626 42.858C459.206 42.858 458.842 43.236 458.842 43.768ZM469.321 44.594C471.225 44.594 472.653 46.162 472.653 48.374C472.653 50.6 471.225 52.168 469.321 52.168C468.159 52.168 467.235 51.594 466.689 50.642V54.408H465.639V44.762H466.689V46.12C467.235 45.168 468.159 44.594 469.321 44.594ZM469.125 51.23C470.539 51.23 471.547 50.04 471.547 48.374C471.547 46.708 470.539 45.532 469.125 45.532C467.697 45.532 466.689 46.708 466.689 48.374C466.689 50.04 467.697 51.23 469.125 51.23ZM474.957 43.446C474.565 43.446 474.257 43.124 474.257 42.746C474.257 42.382 474.565 42.06 474.957 42.06C475.335 42.06 475.643 42.382 475.643 42.746C475.643 43.124 475.335 43.446 474.957 43.446ZM474.425 52V44.762H475.475V52H474.425ZM480.864 51.23C481.718 51.23 482.698 50.852 483.146 50.362L483.79 51.048C483.16 51.734 481.886 52.168 480.878 52.168C478.946 52.168 477.21 50.586 477.21 48.36C477.21 46.204 478.834 44.594 480.78 44.594C482.964 44.594 484.21 46.246 484.21 48.78H478.288C478.442 50.194 479.436 51.23 480.864 51.23ZM480.822 45.532C479.534 45.532 478.498 46.442 478.302 47.842H483.174C483.034 46.54 482.264 45.532 480.822 45.532ZM488.114 52.168C487.106 52.168 485.986 51.79 485.118 51.09L485.664 50.32C486.49 50.922 487.316 51.23 488.114 51.23C489.066 51.23 489.71 50.782 489.71 50.096C489.71 49.312 488.87 49.06 487.89 48.78C486.14 48.276 485.468 47.758 485.468 46.722C485.468 45.406 486.56 44.594 488.002 44.594C488.898 44.594 489.822 44.902 490.592 45.406L490.088 46.218C489.36 45.756 488.646 45.532 488.002 45.532C487.19 45.532 486.518 45.896 486.518 46.596C486.518 47.226 487.05 47.422 488.394 47.856C489.556 48.22 490.76 48.612 490.76 49.984C490.76 51.314 489.612 52.168 488.114 52.168Z" fill="#22343C"/>
<path d="M394.203 70L393.306 67.972H388.327L387.43 70H386.325L390.264 61.069H391.369L395.308 70H394.203ZM388.743 67.01H392.89L390.823 62.317L388.743 67.01ZM403.934 63.123C405.338 63.123 406.326 64.202 406.326 65.723V70H405.351V65.853C405.351 64.761 404.714 63.994 403.804 63.994C402.738 63.994 401.984 64.709 401.984 65.723V70H401.009V65.853C401.009 64.761 400.372 63.994 399.462 63.994C398.396 63.994 397.642 64.709 397.642 65.723V70H396.667V63.279H397.642V64.267C397.98 63.565 398.708 63.123 399.592 63.123C400.658 63.123 401.49 63.747 401.828 64.722C402.036 63.773 402.868 63.123 403.934 63.123ZM411.169 69.285C411.962 69.285 412.872 68.934 413.288 68.479L413.886 69.116C413.301 69.753 412.118 70.156 411.182 70.156C409.388 70.156 407.776 68.687 407.776 66.62C407.776 64.618 409.284 63.123 411.091 63.123C413.119 63.123 414.276 64.657 414.276 67.01H408.777C408.92 68.323 409.843 69.285 411.169 69.285ZM411.13 63.994C409.934 63.994 408.972 64.839 408.79 66.139H413.314C413.184 64.93 412.469 63.994 411.13 63.994ZM416.789 64.592C417.192 63.695 418.154 63.123 419.389 63.123V63.994C417.868 63.994 416.789 64.93 416.789 66.243V70H415.814V63.279H416.789V64.592ZM421.363 62.057C420.999 62.057 420.713 61.758 420.713 61.407C420.713 61.069 420.999 60.77 421.363 60.77C421.714 60.77 422 61.069 422 61.407C422 61.758 421.714 62.057 421.363 62.057ZM420.869 70V63.279H421.844V70H420.869ZM426.892 70.156C425.007 70.156 423.408 68.544 423.408 66.633C423.408 64.722 425.007 63.123 426.892 63.123C427.802 63.123 428.647 63.5 429.284 64.111L428.608 64.774C428.166 64.293 427.555 63.994 426.892 63.994C425.553 63.994 424.435 65.203 424.435 66.633C424.435 68.076 425.553 69.285 426.892 69.285C427.568 69.285 428.192 68.973 428.647 68.466L429.323 69.129C428.686 69.766 427.828 70.156 426.892 70.156ZM433.052 63.123C434.885 63.123 435.782 64.28 435.782 65.905V70H434.807V68.947C434.326 69.74 433.325 70.156 432.441 70.156C431.024 70.156 429.984 69.337 429.984 68.011C429.984 66.672 431.18 65.775 432.623 65.775C433.351 65.775 434.118 65.931 434.807 66.152V65.905C434.807 64.995 434.443 63.955 432.987 63.955C432.311 63.955 431.635 64.254 431.024 64.566L430.634 63.773C431.596 63.292 432.402 63.123 433.052 63.123ZM432.61 69.298C433.494 69.298 434.547 68.843 434.807 67.894V66.867C434.196 66.698 433.507 66.594 432.779 66.594C431.778 66.594 430.933 67.166 430.933 67.972C430.933 68.804 431.661 69.298 432.61 69.298ZM438.252 64.202L437.771 63.838C438.122 63.435 438.343 63.032 438.447 62.629C438.057 62.629 437.745 62.304 437.745 61.914C437.745 61.55 438.044 61.225 438.46 61.225C438.954 61.225 439.253 61.667 439.253 62.265C439.253 62.785 439.032 63.227 438.252 64.202ZM443.407 70.156C442.471 70.156 441.431 69.805 440.625 69.155L441.132 68.44C441.899 68.999 442.666 69.285 443.407 69.285C444.291 69.285 444.889 68.869 444.889 68.232C444.889 67.504 444.109 67.27 443.199 67.01C441.574 66.542 440.95 66.061 440.95 65.099C440.95 63.877 441.964 63.123 443.303 63.123C444.135 63.123 444.993 63.409 445.708 63.877L445.24 64.631C444.564 64.202 443.901 63.994 443.303 63.994C442.549 63.994 441.925 64.332 441.925 64.982C441.925 65.567 442.419 65.749 443.667 66.152C444.746 66.49 445.864 66.854 445.864 68.128C445.864 69.363 444.798 70.156 443.407 70.156ZM452.124 62.356V63.279H453.775V64.15H452.124V70H451.149V64.15H450.096V63.279H451.149V62.356C451.149 61.355 451.825 60.64 452.787 60.64C453.242 60.64 453.684 60.796 454.035 61.069L453.554 61.784C453.411 61.628 453.151 61.511 452.852 61.511C452.462 61.511 452.124 61.862 452.124 62.356ZM457.346 63.123C459.179 63.123 460.076 64.28 460.076 65.905V70H459.101V68.947C458.62 69.74 457.619 70.156 456.735 70.156C455.318 70.156 454.278 69.337 454.278 68.011C454.278 66.672 455.474 65.775 456.917 65.775C457.645 65.775 458.412 65.931 459.101 66.152V65.905C459.101 64.995 458.737 63.955 457.281 63.955C456.605 63.955 455.929 64.254 455.318 64.566L454.928 63.773C455.89 63.292 456.696 63.123 457.346 63.123ZM456.904 69.298C457.788 69.298 458.841 68.843 459.101 67.894V66.867C458.49 66.698 457.801 66.594 457.073 66.594C456.072 66.594 455.227 67.166 455.227 67.972C455.227 68.804 455.955 69.298 456.904 69.298ZM463.936 70L461.076 63.279H462.168L464.404 68.856L466.601 63.279H467.693L464.872 70H463.936ZM471.744 70.156C469.833 70.156 468.273 68.57 468.273 66.633C468.273 64.696 469.833 63.123 471.744 63.123C473.642 63.123 475.202 64.696 475.202 66.633C475.202 68.57 473.642 70.156 471.744 70.156ZM471.744 69.285C473.083 69.285 474.188 68.089 474.188 66.633C474.188 65.177 473.083 63.994 471.744 63.994C470.392 63.994 469.287 65.177 469.287 66.633C469.287 68.089 470.392 69.285 471.744 69.285ZM477.757 64.592C478.16 63.695 479.122 63.123 480.357 63.123V63.994C478.836 63.994 477.757 64.93 477.757 66.243V70H476.782V63.279H477.757V64.592ZM482.33 62.057C481.966 62.057 481.68 61.758 481.68 61.407C481.68 61.069 481.966 60.77 482.33 60.77C482.681 60.77 482.967 61.069 482.967 61.407C482.967 61.758 482.681 62.057 482.33 62.057ZM481.836 70V63.279H482.811V70H481.836ZM487.573 69.012L488.054 69.727C487.703 70 487.261 70.156 486.806 70.156C485.844 70.156 485.168 69.441 485.168 68.44V64.15H484.115V63.279H485.168V61.433H486.143V63.279H487.794V64.15H486.143V68.44C486.143 68.934 486.481 69.285 486.871 69.285C487.17 69.285 487.43 69.168 487.573 69.012ZM492.189 69.285C492.982 69.285 493.892 68.934 494.308 68.479L494.906 69.116C494.321 69.753 493.138 70.156 492.202 70.156C490.408 70.156 488.796 68.687 488.796 66.62C488.796 64.618 490.304 63.123 492.111 63.123C494.139 63.123 495.296 64.657 495.296 67.01H489.797C489.94 68.323 490.863 69.285 492.189 69.285ZM492.15 63.994C490.954 63.994 489.992 64.839 489.81 66.139H494.334C494.204 64.93 493.489 63.994 492.15 63.994ZM503.733 63.123C505.501 63.123 506.827 64.579 506.827 66.633C506.827 68.7 505.501 70.156 503.733 70.156C502.654 70.156 501.796 69.623 501.289 68.739V72.236H500.314V63.279H501.289V64.54C501.796 63.656 502.654 63.123 503.733 63.123ZM503.551 69.285C504.864 69.285 505.8 68.18 505.8 66.633C505.8 65.086 504.864 63.994 503.551 63.994C502.225 63.994 501.289 65.086 501.289 66.633C501.289 68.18 502.225 69.285 503.551 69.285ZM508.96 62.057C508.596 62.057 508.31 61.758 508.31 61.407C508.31 61.069 508.596 60.77 508.96 60.77C509.311 60.77 509.597 61.069 509.597 61.407C509.597 61.758 509.311 62.057 508.96 62.057ZM508.466 70V63.279H509.441V70H508.466ZM514.437 69.285C515.23 69.285 516.14 68.934 516.556 68.479L517.154 69.116C516.569 69.753 515.386 70.156 514.45 70.156C512.656 70.156 511.044 68.687 511.044 66.62C511.044 64.618 512.552 63.123 514.359 63.123C516.387 63.123 517.544 64.657 517.544 67.01H512.045C512.188 68.323 513.111 69.285 514.437 69.285ZM514.398 63.994C513.202 63.994 512.24 64.839 512.058 66.139H516.582C516.452 64.93 515.737 63.994 514.398 63.994ZM521.162 70.156C520.226 70.156 519.186 69.805 518.38 69.155L518.887 68.44C519.654 68.999 520.421 69.285 521.162 69.285C522.046 69.285 522.644 68.869 522.644 68.232C522.644 67.504 521.864 67.27 520.954 67.01C519.329 66.542 518.705 66.061 518.705 65.099C518.705 63.877 519.719 63.123 521.058 63.123C521.89 63.123 522.748 63.409 523.463 63.877L522.995 64.631C522.319 64.202 521.656 63.994 521.058 63.994C520.304 63.994 519.68 64.332 519.68 64.982C519.68 65.567 520.174 65.749 521.422 66.152C522.501 66.49 523.619 66.854 523.619 68.128C523.619 69.363 522.553 70.156 521.162 70.156ZM526.178 70.156C525.775 70.156 525.463 69.831 525.463 69.441C525.463 69.077 525.775 68.752 526.178 68.752C526.555 68.752 526.867 69.077 526.867 69.441C526.867 69.831 526.555 70.156 526.178 70.156ZM533.071 70V61.069H537.166C538.609 61.069 539.623 61.992 539.623 63.292C539.623 64.241 539.155 64.787 538.349 65.255C539.376 65.775 539.974 66.581 539.974 67.556C539.974 68.986 538.869 70 537.322 70H533.071ZM534.085 64.852H536.906C537.894 64.852 538.596 64.254 538.596 63.422C538.596 62.59 537.894 61.992 536.906 61.992H534.085V64.852ZM534.085 69.077H537.062C538.167 69.077 538.947 68.388 538.947 67.426C538.947 66.464 538.167 65.775 537.062 65.775H534.085V69.077ZM544.231 63.123C546.064 63.123 546.961 64.28 546.961 65.905V70H545.986V68.947C545.505 69.74 544.504 70.156 543.62 70.156C542.203 70.156 541.163 69.337 541.163 68.011C541.163 66.672 542.359 65.775 543.802 65.775C544.53 65.775 545.297 65.931 545.986 66.152V65.905C545.986 64.995 545.622 63.955 544.166 63.955C543.49 63.955 542.814 64.254 542.203 64.566L541.813 63.773C542.775 63.292 543.581 63.123 544.231 63.123ZM543.789 69.298C544.673 69.298 545.726 68.843 545.986 67.894V66.867C545.375 66.698 544.686 66.594 543.958 66.594C542.957 66.594 542.112 67.166 542.112 67.972C542.112 68.804 542.84 69.298 543.789 69.298ZM551.042 70.156C550.106 70.156 549.066 69.805 548.26 69.155L548.767 68.44C549.534 68.999 550.301 69.285 551.042 69.285C551.926 69.285 552.524 68.869 552.524 68.232C552.524 67.504 551.744 67.27 550.834 67.01C549.209 66.542 548.585 66.061 548.585 65.099C548.585 63.877 549.599 63.123 550.938 63.123C551.77 63.123 552.628 63.409 553.343 63.877L552.875 64.631C552.199 64.202 551.536 63.994 550.938 63.994C550.184 63.994 549.56 64.332 549.56 64.982C549.56 65.567 550.054 65.749 551.302 66.152C552.381 66.49 553.499 66.854 553.499 68.128C553.499 69.363 552.433 70.156 551.042 70.156ZM557.904 69.285C558.697 69.285 559.607 68.934 560.023 68.479L560.621 69.116C560.036 69.753 558.853 70.156 557.917 70.156C556.123 70.156 554.511 68.687 554.511 66.62C554.511 64.618 556.019 63.123 557.826 63.123C559.854 63.123 561.011 64.657 561.011 67.01H555.512C555.655 68.323 556.578 69.285 557.904 69.285ZM557.865 63.994C556.669 63.994 555.707 64.839 555.525 66.139H560.049C559.919 64.93 559.204 63.994 557.865 63.994ZM567.567 60.913H568.542V70H567.567V68.739C567.06 69.623 566.202 70.156 565.123 70.156C563.355 70.156 562.029 68.7 562.029 66.633C562.029 64.579 563.355 63.123 565.123 63.123C566.202 63.123 567.06 63.656 567.567 64.54V60.913ZM565.305 69.285C566.631 69.285 567.567 68.18 567.567 66.633C567.567 65.086 566.631 63.994 565.305 63.994C563.992 63.994 563.056 65.086 563.056 66.633C563.056 68.18 563.992 69.285 565.305 69.285ZM577.067 70.156C575.156 70.156 573.596 68.57 573.596 66.633C573.596 64.696 575.156 63.123 577.067 63.123C578.965 63.123 580.525 64.696 580.525 66.633C580.525 68.57 578.965 70.156 577.067 70.156ZM577.067 69.285C578.406 69.285 579.511 68.089 579.511 66.633C579.511 65.177 578.406 63.994 577.067 63.994C575.715 63.994 574.61 65.177 574.61 66.633C574.61 68.089 575.715 69.285 577.067 69.285ZM585.29 63.123C586.785 63.123 587.812 64.176 587.812 65.723V70H586.837V65.853C586.837 64.748 586.148 63.994 585.16 63.994C584.016 63.994 583.08 64.774 583.08 65.723V70H582.105V63.279H583.08V64.345C583.47 63.63 584.328 63.123 585.29 63.123ZM595.698 63.123C597.531 63.123 598.428 64.28 598.428 65.905V70H597.453V68.947C596.972 69.74 595.971 70.156 595.087 70.156C593.67 70.156 592.63 69.337 592.63 68.011C592.63 66.672 593.826 65.775 595.269 65.775C595.997 65.775 596.764 65.931 597.453 66.152V65.905C597.453 64.995 597.089 63.955 595.633 63.955C594.957 63.955 594.281 64.254 593.67 64.566L593.28 63.773C594.242 63.292 595.048 63.123 595.698 63.123ZM595.256 69.298C596.14 69.298 597.193 68.843 597.453 67.894V66.867C596.842 66.698 596.153 66.594 595.425 66.594C594.424 66.594 593.579 67.166 593.579 67.972C593.579 68.804 594.307 69.298 595.256 69.298ZM605.989 70.156C605.053 70.156 604.013 69.805 603.207 69.155L603.714 68.44C604.481 68.999 605.248 69.285 605.989 69.285C606.873 69.285 607.471 68.869 607.471 68.232C607.471 67.504 606.691 67.27 605.781 67.01C604.156 66.542 603.532 66.061 603.532 65.099C603.532 63.877 604.546 63.123 605.885 63.123C606.717 63.123 607.575 63.409 608.29 63.877L607.822 64.631C607.146 64.202 606.483 63.994 605.885 63.994C605.131 63.994 604.507 64.332 604.507 64.982C604.507 65.567 605.001 65.749 606.249 66.152C607.328 66.49 608.446 66.854 608.446 68.128C608.446 69.363 607.38 70.156 605.989 70.156ZM614.593 63.279H615.568V70H614.593V68.934C614.203 69.649 613.345 70.156 612.383 70.156C610.888 70.156 609.861 69.103 609.861 67.556V63.279H610.836V67.426C610.836 68.531 611.525 69.285 612.513 69.285C613.657 69.285 614.593 68.505 614.593 67.556V63.279ZM618.7 64.592C619.103 63.695 620.065 63.123 621.3 63.123V63.994C619.779 63.994 618.7 64.93 618.7 66.243V70H617.725V63.279H618.7V64.592ZM624.638 70L621.778 63.279H622.87L625.106 68.856L627.303 63.279H628.395L625.574 70H624.638ZM632.394 69.285C633.187 69.285 634.097 68.934 634.513 68.479L635.111 69.116C634.526 69.753 633.343 70.156 632.407 70.156C630.613 70.156 629.001 68.687 629.001 66.62C629.001 64.618 630.509 63.123 632.316 63.123C634.344 63.123 635.501 64.657 635.501 67.01H630.002C630.145 68.323 631.068 69.285 632.394 69.285ZM632.355 63.994C631.159 63.994 630.197 64.839 630.015 66.139H634.539C634.409 64.93 633.694 63.994 632.355 63.994ZM637.624 72.34C637.234 72.34 636.87 72.262 636.558 72.119L636.792 71.287C637.026 71.404 637.299 71.456 637.585 71.456C638.014 71.456 638.3 71.313 638.56 70.858L638.95 70.026L636.025 63.279H637.104L639.457 68.869L641.68 63.279H642.733L639.665 70.754C639.197 71.898 638.547 72.327 637.624 72.34ZM650.275 70.156C648.364 70.156 646.804 68.57 646.804 66.633C646.804 64.696 648.364 63.123 650.275 63.123C652.173 63.123 653.733 64.696 653.733 66.633C653.733 68.57 652.173 70.156 650.275 70.156ZM650.275 69.285C651.614 69.285 652.719 68.089 652.719 66.633C652.719 65.177 651.614 63.994 650.275 63.994C648.923 63.994 647.818 65.177 647.818 66.633C647.818 68.089 648.923 69.285 650.275 69.285ZM656.521 62.356V63.279H658.172V64.15H656.521V70H655.546V64.15H654.493V63.279H655.546V62.356C655.546 61.355 656.222 60.64 657.184 60.64C657.639 60.64 658.081 60.796 658.432 61.069L657.951 61.784C657.808 61.628 657.548 61.511 657.249 61.511C656.859 61.511 656.521 61.862 656.521 62.356ZM663.949 70V62.304L662.389 63.318L661.947 62.564L664.144 61.069H664.963V70H663.949ZM666.676 70V69.155L669.939 66.373C671.2 65.294 671.72 64.436 671.72 63.552C671.72 62.46 670.81 61.823 669.861 61.823C668.821 61.823 668.08 62.382 667.469 63.214L666.754 62.629C667.495 61.576 668.496 60.913 669.9 60.913C671.447 60.913 672.747 61.94 672.747 63.539C672.747 64.748 672.149 65.71 670.641 67.01L668.301 69.038H672.838V70H666.676ZM677.982 70.156C675.798 70.156 674.264 68.245 674.264 65.528C674.264 62.824 675.798 60.913 677.982 60.913C680.153 60.913 681.687 62.824 681.687 65.528C681.687 68.245 680.153 70.156 677.982 70.156ZM677.982 69.22C679.555 69.22 680.66 67.686 680.66 65.528C680.66 63.37 679.555 61.849 677.982 61.849C676.409 61.849 675.291 63.37 675.291 65.528C675.291 67.686 676.409 69.22 677.982 69.22ZM686.87 70.156C684.686 70.156 683.152 68.245 683.152 65.528C683.152 62.824 684.686 60.913 686.87 60.913C689.041 60.913 690.575 62.824 690.575 65.528C690.575 68.245 689.041 70.156 686.87 70.156ZM686.87 69.22C688.443 69.22 689.548 67.686 689.548 65.528C689.548 63.37 688.443 61.849 686.87 61.849C685.297 61.849 684.179 63.37 684.179 65.528C684.179 67.686 685.297 69.22 686.87 69.22ZM389.536 83.123C391.369 83.123 392.266 84.28 392.266 85.905V90H391.291V88.947C390.81 89.74 389.809 90.156 388.925 90.156C387.508 90.156 386.468 89.337 386.468 88.011C386.468 86.672 387.664 85.775 389.107 85.775C389.835 85.775 390.602 85.931 391.291 86.152V85.905C391.291 84.995 390.927 83.955 389.471 83.955C388.795 83.955 388.119 84.254 387.508 84.566L387.118 83.773C388.08 83.292 388.886 83.123 389.536 83.123ZM389.094 89.298C389.978 89.298 391.031 88.843 391.291 87.894V86.867C390.68 86.698 389.991 86.594 389.263 86.594C388.262 86.594 387.417 87.166 387.417 87.972C387.417 88.804 388.145 89.298 389.094 89.298ZM399.285 80.913H400.26V90H399.285V88.739C398.778 89.623 397.92 90.156 396.841 90.156C395.073 90.156 393.747 88.7 393.747 86.633C393.747 84.579 395.073 83.123 396.841 83.123C397.92 83.123 398.778 83.656 399.285 84.54V80.913ZM397.023 89.285C398.349 89.285 399.285 88.18 399.285 86.633C399.285 85.086 398.349 83.994 397.023 83.994C395.71 83.994 394.774 85.086 394.774 86.633C394.774 88.18 395.71 89.285 397.023 89.285ZM406.995 83.279H407.97V90H406.995V88.934C406.605 89.649 405.747 90.156 404.785 90.156C403.29 90.156 402.263 89.103 402.263 87.556V83.279H403.238V87.426C403.238 88.531 403.927 89.285 404.915 89.285C406.059 89.285 406.995 88.505 406.995 87.556V83.279ZM410.127 90V80.913H411.102V90H410.127ZM415.864 89.012L416.345 89.727C415.994 90 415.552 90.156 415.097 90.156C414.135 90.156 413.459 89.441 413.459 88.44V84.15H412.406V83.279H413.459V81.433H414.434V83.279H416.085V84.15H414.434V88.44C414.434 88.934 414.772 89.285 415.162 89.285C415.461 89.285 415.721 89.168 415.864 89.012ZM419.726 90.156C418.79 90.156 417.75 89.805 416.944 89.155L417.451 88.44C418.218 88.999 418.985 89.285 419.726 89.285C420.61 89.285 421.208 88.869 421.208 88.232C421.208 87.504 420.428 87.27 419.518 87.01C417.893 86.542 417.269 86.061 417.269 85.099C417.269 83.877 418.283 83.123 419.622 83.123C420.454 83.123 421.312 83.409 422.027 83.877L421.559 84.631C420.883 84.202 420.22 83.994 419.622 83.994C418.868 83.994 418.244 84.332 418.244 84.982C418.244 85.567 418.738 85.749 419.986 86.152C421.065 86.49 422.183 86.854 422.183 88.128C422.183 89.363 421.117 90.156 419.726 90.156ZM424.742 90.156C424.339 90.156 424.027 89.831 424.027 89.441C424.027 89.077 424.339 88.752 424.742 88.752C425.119 88.752 425.431 89.077 425.431 89.441C425.431 89.831 425.119 90.156 424.742 90.156Z" fill="#22343C"/>
<circle cx="458" cy="176" r="71.5886" fill="#F56700" stroke="black" stroke-width="0.822857"/>
<mask id="path-12-inside-2_9030_6579" fill="white">
<path d="M429.049 110.077C419.897 114.096 411.682 119.977 404.928 127.345C398.173 134.713 393.026 143.406 389.816 152.872C386.605 162.338 385.4 172.369 386.278 182.326C387.157 192.283 390.099 201.948 394.917 210.706C399.735 219.464 406.324 227.122 414.264 233.194C422.204 239.266 431.322 243.618 441.036 245.973C450.75 248.328 460.848 248.635 470.688 246.873C480.527 245.112 489.892 241.321 498.186 235.742L458 176L429.049 110.077Z"/>
</mask>
<path d="M429.049 110.077C419.897 114.096 411.682 119.977 404.928 127.345C398.173 134.713 393.026 143.406 389.816 152.872C386.605 162.338 385.4 172.369 386.278 182.326C387.157 192.283 390.099 201.948 394.917 210.706C399.735 219.464 406.324 227.122 414.264 233.194C422.204 239.266 431.322 243.618 441.036 245.973C450.75 248.328 460.848 248.635 470.688 246.873C480.527 245.112 489.892 241.321 498.186 235.742L458 176L429.049 110.077Z" fill="#0099DB" stroke="black" stroke-width="1.64571" mask="url(#path-12-inside-2_9030_6579)"/>
<mask id="path-13-inside-3_9030_6579" fill="white">
<path d="M429.049 110.077C419.113 114.441 410.291 120.994 403.244 129.247C396.197 137.501 391.107 147.24 388.355 157.738C385.602 168.235 385.258 179.219 387.348 189.869C389.439 200.518 393.909 210.557 400.426 219.235L458 176L429.049 110.077Z"/>
</mask>
<path d="M429.049 110.077C419.113 114.441 410.291 120.994 403.244 129.247C396.197 137.501 391.107 147.24 388.355 157.738C385.602 168.235 385.258 179.219 387.348 189.869C389.439 200.518 393.909 210.557 400.426 219.235L458 176L429.049 110.077Z" fill="#004766" stroke="black" stroke-width="1.64571" mask="url(#path-13-inside-3_9030_6579)"/>
<mask id="path-14-inside-4_9030_6579" fill="white">
<path d="M429.049 110.077C420.392 113.879 412.569 119.348 406.025 126.174C399.482 132.999 394.347 141.047 390.914 149.856L458 176L429.049 110.077Z"/>
</mask>
<path d="M429.049 110.077C420.392 113.879 412.569 119.348 406.025 126.174C399.482 132.999 394.347 141.047 390.914 149.856L458 176L429.049 110.077Z" fill="#FFBE8F" stroke="black" stroke-width="1.64571" mask="url(#path-14-inside-4_9030_6579)"/>
<mask id="path-15-inside-5_9030_6579" fill="white">
<path d="M458 104C447.373 104 436.879 106.352 427.269 110.888L458 176L458 104Z"/>
</mask>
<path d="M458 104C447.373 104 436.879 106.352 427.269 110.888L458 176L458 104Z" fill="#BDEBFF" stroke="black" stroke-width="1.64571" mask="url(#path-15-inside-5_9030_6579)"/>
<circle cx="562" cy="128" r="7.5" fill="#F56700" stroke="black"/>
<path d="M586.203 132L585.306 129.972H580.327L579.43 132H578.325L582.264 123.069H583.369L587.308 132H586.203ZM580.743 129.01H584.89L582.823 124.317L580.743 129.01ZM592.086 125.123C593.854 125.123 595.18 126.579 595.18 128.633C595.18 130.7 593.854 132.156 592.086 132.156C591.007 132.156 590.149 131.623 589.642 130.739V134.236H588.667V125.279H589.642V126.54C590.149 125.656 591.007 125.123 592.086 125.123ZM591.904 131.285C593.217 131.285 594.153 130.18 594.153 128.633C594.153 127.086 593.217 125.994 591.904 125.994C590.578 125.994 589.642 127.086 589.642 128.633C589.642 130.18 590.578 131.285 591.904 131.285ZM600.238 125.123C602.006 125.123 603.332 126.579 603.332 128.633C603.332 130.7 602.006 132.156 600.238 132.156C599.159 132.156 598.301 131.623 597.794 130.739V134.236H596.819V125.279H597.794V126.54C598.301 125.656 599.159 125.123 600.238 125.123ZM600.056 131.285C601.369 131.285 602.305 130.18 602.305 128.633C602.305 127.086 601.369 125.994 600.056 125.994C598.73 125.994 597.794 127.086 597.794 128.633C597.794 130.18 598.73 131.285 600.056 131.285ZM604.971 132V122.913H605.946V132H604.971ZM610.942 131.285C611.735 131.285 612.645 130.934 613.061 130.479L613.659 131.116C613.074 131.753 611.891 132.156 610.955 132.156C609.161 132.156 607.549 130.687 607.549 128.62C607.549 126.618 609.057 125.123 610.864 125.123C612.892 125.123 614.049 126.657 614.049 129.01H608.55C608.693 130.323 609.616 131.285 610.942 131.285ZM610.903 125.994C609.707 125.994 608.745 126.839 608.563 128.139H613.087C612.957 126.93 612.242 125.994 610.903 125.994ZM622.876 132V129.829H618.417L618.287 128.984L622.72 123.069H623.89V128.906H625.229V129.829H623.89V132H622.876ZM619.444 128.906H622.876V124.291L619.444 128.906ZM630.419 132V129.829H625.96L625.83 128.984L630.263 123.069H631.433V128.906H632.772V129.829H631.433V132H630.419ZM626.987 128.906H630.419V124.291L626.987 128.906ZM635.907 127.463C634.672 127.463 633.84 126.462 633.84 125.253C633.84 123.966 634.711 122.991 635.92 122.991C637.155 122.991 637.987 123.992 637.987 125.227C637.987 126.488 637.129 127.463 635.907 127.463ZM634.932 132L641.042 123.069H642.03L635.92 132H634.932ZM635.92 126.761C636.648 126.761 637.168 126.111 637.168 125.24C637.168 124.356 636.635 123.693 635.907 123.693C635.179 123.693 634.659 124.343 634.659 125.24C634.659 126.098 635.205 126.761 635.92 126.761ZM641.003 132.13C639.807 132.13 638.936 131.168 638.936 129.894C638.936 128.672 639.781 127.658 641.016 127.658C642.251 127.658 643.083 128.672 643.083 129.881C643.083 131.155 642.212 132.13 641.003 132.13ZM641.016 131.428C641.757 131.428 642.264 130.778 642.264 129.894C642.264 129.023 641.731 128.36 641.003 128.36C640.262 128.36 639.755 129.036 639.755 129.881C639.755 130.765 640.275 131.428 641.016 131.428Z" fill="#22343C"/>
<circle cx="562" cy="152" r="7.5" fill="#0099DB" stroke="black"/>
<path d="M579.417 156V147.069H583.044C584.89 147.069 586.333 148.252 586.333 149.929C586.333 151.606 584.89 152.789 583.044 152.789H580.431V156H579.417ZM580.431 151.827H582.862C584.318 151.827 585.306 151.125 585.306 149.929C585.306 148.733 584.318 148.031 582.862 148.031H580.431V151.827ZM592.506 149.279H593.481V156H592.506V154.934C592.116 155.649 591.258 156.156 590.296 156.156C588.801 156.156 587.774 155.103 587.774 153.556V149.279H588.749V153.426C588.749 154.531 589.438 155.285 590.426 155.285C591.57 155.285 592.506 154.505 592.506 153.556V149.279ZM602.905 149.123C604.309 149.123 605.297 150.202 605.297 151.723V156H604.322V151.853C604.322 150.761 603.685 149.994 602.775 149.994C601.709 149.994 600.955 150.709 600.955 151.723V156H599.98V151.853C599.98 150.761 599.343 149.994 598.433 149.994C597.367 149.994 596.613 150.709 596.613 151.723V156H595.638V149.279H596.613V150.267C596.951 149.565 597.679 149.123 598.563 149.123C599.629 149.123 600.461 149.747 600.799 150.722C601.007 149.773 601.839 149.123 602.905 149.123ZM610.726 149.123C612.494 149.123 613.82 150.579 613.82 152.633C613.82 154.7 612.494 156.156 610.726 156.156C609.647 156.156 608.789 155.623 608.282 154.739V158.236H607.307V149.279H608.282V150.54C608.789 149.656 609.647 149.123 610.726 149.123ZM610.544 155.285C611.857 155.285 612.793 154.18 612.793 152.633C612.793 151.086 611.857 149.994 610.544 149.994C609.218 149.994 608.282 151.086 608.282 152.633C608.282 154.18 609.218 155.285 610.544 155.285ZM615.459 156V146.913H616.434V152.997L620.113 149.279H621.361L618.332 152.36L621.192 156H619.97L617.643 153.023L616.434 154.219V156H615.459ZM622.987 148.057C622.623 148.057 622.337 147.758 622.337 147.407C622.337 147.069 622.623 146.77 622.987 146.77C623.338 146.77 623.624 147.069 623.624 147.407C623.624 147.758 623.338 148.057 622.987 148.057ZM622.493 156V149.279H623.468V156H622.493ZM628.816 149.123C630.311 149.123 631.338 150.176 631.338 151.723V156H630.363V151.853C630.363 150.748 629.674 149.994 628.686 149.994C627.542 149.994 626.606 150.774 626.606 151.723V156H625.631V149.279H626.606V150.345C626.996 149.63 627.854 149.123 628.816 149.123ZM640.627 156V153.829H636.168L636.038 152.984L640.471 147.069H641.641V152.906H642.98V153.829H641.641V156H640.627ZM637.195 152.906H640.627V148.291L637.195 152.906ZM648.17 156V153.829H643.711L643.581 152.984L648.014 147.069H649.184V152.906H650.523V153.829H649.184V156H648.17ZM644.738 152.906H648.17V148.291L644.738 152.906ZM653.658 151.463C652.423 151.463 651.591 150.462 651.591 149.253C651.591 147.966 652.462 146.991 653.671 146.991C654.906 146.991 655.738 147.992 655.738 149.227C655.738 150.488 654.88 151.463 653.658 151.463ZM652.683 156L658.793 147.069H659.781L653.671 156H652.683ZM653.671 150.761C654.399 150.761 654.919 150.111 654.919 149.24C654.919 148.356 654.386 147.693 653.658 147.693C652.93 147.693 652.41 148.343 652.41 149.24C652.41 150.098 652.956 150.761 653.671 150.761ZM658.754 156.13C657.558 156.13 656.687 155.168 656.687 153.894C656.687 152.672 657.532 151.658 658.767 151.658C660.002 151.658 660.834 152.672 660.834 153.881C660.834 155.155 659.963 156.13 658.754 156.13ZM658.767 155.428C659.508 155.428 660.015 154.778 660.015 153.894C660.015 153.023 659.482 152.36 658.754 152.36C658.013 152.36 657.506 153.036 657.506 153.881C657.506 154.765 658.026 155.428 658.767 155.428Z" fill="#22343C"/>
<circle cx="562" cy="176" r="7.5" fill="#004766" stroke="black"/>
<path d="M583.304 180.156C580.834 180.156 578.728 178.037 578.728 175.528C578.728 173.019 580.834 170.913 583.304 170.913C584.539 170.913 585.683 171.433 586.515 172.278L585.826 172.98C585.176 172.291 584.279 171.849 583.304 171.849C581.38 171.849 579.755 173.539 579.755 175.528C579.755 177.53 581.38 179.22 583.304 179.22C584.279 179.22 585.176 178.778 585.826 178.089L586.515 178.791C585.683 179.623 584.539 180.156 583.304 180.156ZM591.217 173.123C592.712 173.123 593.739 174.176 593.739 175.723V180H592.764V175.853C592.764 174.748 592.075 173.994 591.087 173.994C589.943 173.994 589.007 174.774 589.007 175.723V180H588.032V170.913H589.007V174.345C589.397 173.63 590.255 173.123 591.217 173.123ZM598.574 179.285C599.367 179.285 600.277 178.934 600.693 178.479L601.291 179.116C600.706 179.753 599.523 180.156 598.587 180.156C596.793 180.156 595.181 178.687 595.181 176.62C595.181 174.618 596.689 173.123 598.496 173.123C600.524 173.123 601.681 174.657 601.681 177.01H596.182C596.325 178.323 597.248 179.285 598.574 179.285ZM598.535 173.994C597.339 173.994 596.377 174.839 596.195 176.139H600.719C600.589 174.93 599.874 173.994 598.535 173.994ZM604.194 174.592C604.597 173.695 605.559 173.123 606.794 173.123V173.994C605.273 173.994 604.194 174.93 604.194 176.243V180H603.219V173.279H604.194V174.592ZM609.248 174.592C609.651 173.695 610.613 173.123 611.848 173.123V173.994C610.327 173.994 609.248 174.93 609.248 176.243V180H608.273V173.279H609.248V174.592ZM613.912 182.34C613.522 182.34 613.158 182.262 612.846 182.119L613.08 181.287C613.314 181.404 613.587 181.456 613.873 181.456C614.302 181.456 614.588 181.313 614.848 180.858L615.238 180.026L612.313 173.279H613.392L615.745 178.869L617.968 173.279H619.021L615.953 180.754C615.485 181.898 614.835 182.327 613.912 182.34ZM624.808 180V172.304L623.248 173.318L622.806 172.564L625.003 171.069H625.822V180H624.808ZM630.954 180.156C629.576 180.156 628.536 179.571 627.808 178.739L628.471 177.998C629.16 178.752 630.005 179.246 630.993 179.246C632.228 179.246 633.099 178.388 633.099 177.257C633.099 176.113 632.215 175.333 630.967 175.333C630.2 175.333 629.537 175.606 628.978 176.022L628.237 175.658L628.367 171.069H633.645V172.031H629.355L629.264 175.034C629.745 174.709 630.356 174.436 631.175 174.436C632.787 174.436 634.126 175.45 634.126 177.218C634.126 178.986 632.787 180.156 630.954 180.156ZM637.585 175.463C636.35 175.463 635.518 174.462 635.518 173.253C635.518 171.966 636.389 170.991 637.598 170.991C638.833 170.991 639.665 171.992 639.665 173.227C639.665 174.488 638.807 175.463 637.585 175.463ZM636.61 180L642.72 171.069H643.708L637.598 180H636.61ZM637.598 174.761C638.326 174.761 638.846 174.111 638.846 173.24C638.846 172.356 638.313 171.693 637.585 171.693C636.857 171.693 636.337 172.343 636.337 173.24C636.337 174.098 636.883 174.761 637.598 174.761ZM642.681 180.13C641.485 180.13 640.614 179.168 640.614 177.894C640.614 176.672 641.459 175.658 642.694 175.658C643.929 175.658 644.761 176.672 644.761 177.881C644.761 179.155 643.89 180.13 642.681 180.13ZM642.694 179.428C643.435 179.428 643.942 178.778 643.942 177.894C643.942 177.023 643.409 176.36 642.681 176.36C641.94 176.36 641.433 177.036 641.433 177.881C641.433 178.765 641.953 179.428 642.694 179.428Z" fill="#22343C"/>
<circle cx="562" cy="200" r="7.5" fill="#FFBE8F" stroke="black"/>
<path d="M579.417 204V195.069H583.044C584.89 195.069 586.333 196.252 586.333 197.929C586.333 199.606 584.89 200.789 583.044 200.789H580.431V204H579.417ZM580.431 199.827H582.862C584.318 199.827 585.306 199.125 585.306 197.929C585.306 196.733 584.318 196.031 582.862 196.031H580.431V199.827ZM590.764 203.285C591.557 203.285 592.467 202.934 592.883 202.479L593.481 203.116C592.896 203.753 591.713 204.156 590.777 204.156C588.983 204.156 587.371 202.687 587.371 200.62C587.371 198.618 588.879 197.123 590.686 197.123C592.714 197.123 593.871 198.657 593.871 201.01H588.372C588.515 202.323 589.438 203.285 590.764 203.285ZM590.725 197.994C589.529 197.994 588.567 198.839 588.385 200.139H592.909C592.779 198.93 592.064 197.994 590.725 197.994ZM598.296 204.156C596.411 204.156 594.812 202.544 594.812 200.633C594.812 198.722 596.411 197.123 598.296 197.123C599.206 197.123 600.051 197.5 600.688 198.111L600.012 198.774C599.57 198.293 598.959 197.994 598.296 197.994C596.957 197.994 595.839 199.203 595.839 200.633C595.839 202.076 596.957 203.285 598.296 203.285C598.972 203.285 599.596 202.973 600.051 202.466L600.727 203.129C600.09 203.766 599.232 204.156 598.296 204.156ZM604.456 197.123C606.289 197.123 607.186 198.28 607.186 199.905V204H606.211V202.947C605.73 203.74 604.729 204.156 603.845 204.156C602.428 204.156 601.388 203.337 601.388 202.011C601.388 200.672 602.584 199.775 604.027 199.775C604.755 199.775 605.522 199.931 606.211 200.152V199.905C606.211 198.995 605.847 197.955 604.391 197.955C603.715 197.955 603.039 198.254 602.428 198.566L602.038 197.773C603 197.292 603.806 197.123 604.456 197.123ZM604.014 203.298C604.898 203.298 605.951 202.843 606.211 201.894V200.867C605.6 200.698 604.911 200.594 604.183 200.594C603.182 200.594 602.337 201.166 602.337 201.972C602.337 202.804 603.065 203.298 604.014 203.298ZM612.372 197.123C613.867 197.123 614.894 198.176 614.894 199.723V204H613.919V199.853C613.919 198.748 613.23 197.994 612.242 197.994C611.098 197.994 610.162 198.774 610.162 199.723V204H609.187V197.279H610.162V198.345C610.552 197.63 611.41 197.123 612.372 197.123ZM623.04 194.913C625.458 194.913 626.433 196.876 626.433 199.398C626.433 202.063 624.847 204.156 622.819 204.156C621.727 204.156 620.947 203.727 620.284 203.09L620.843 202.297C621.402 202.843 621.987 203.233 622.845 203.233C624.275 203.233 625.406 201.543 625.406 199.398V199.281C624.86 200.139 623.937 200.646 622.884 200.646C621.259 200.646 619.894 199.632 619.894 197.864C619.894 196.213 621.181 194.913 623.04 194.913ZM623.066 199.775C624.197 199.775 625.068 199.099 625.289 198.111C625.029 196.759 624.301 195.784 623.053 195.784C621.714 195.784 620.921 196.824 620.921 197.812C620.921 199.034 621.87 199.775 623.066 199.775ZM630.04 199.463C628.805 199.463 627.973 198.462 627.973 197.253C627.973 195.966 628.844 194.991 630.053 194.991C631.288 194.991 632.12 195.992 632.12 197.227C632.12 198.488 631.262 199.463 630.04 199.463ZM629.065 204L635.175 195.069H636.163L630.053 204H629.065ZM630.053 198.761C630.781 198.761 631.301 198.111 631.301 197.24C631.301 196.356 630.768 195.693 630.04 195.693C629.312 195.693 628.792 196.343 628.792 197.24C628.792 198.098 629.338 198.761 630.053 198.761ZM635.136 204.13C633.94 204.13 633.069 203.168 633.069 201.894C633.069 200.672 633.914 199.658 635.149 199.658C636.384 199.658 637.216 200.672 637.216 201.881C637.216 203.155 636.345 204.13 635.136 204.13ZM635.149 203.428C635.89 203.428 636.397 202.778 636.397 201.894C636.397 201.023 635.864 200.36 635.136 200.36C634.395 200.36 633.888 201.036 633.888 201.881C633.888 202.765 634.408 203.428 635.149 203.428Z" fill="#22343C"/>
<circle cx="562" cy="224" r="7.5" fill="#BDEBFF" stroke="black"/>
<path d="M583.304 228.156C580.834 228.156 578.728 226.037 578.728 223.528C578.728 221.019 580.834 218.913 583.304 218.913C585.787 218.913 587.867 221.019 587.867 223.528C587.867 226.037 585.787 228.156 583.304 228.156ZM583.304 227.22C585.228 227.22 586.84 225.53 586.84 223.528C586.84 221.539 585.228 219.849 583.304 219.849C581.38 219.849 579.755 221.539 579.755 223.528C579.755 225.53 581.38 227.22 583.304 227.22ZM592.244 227.012L592.725 227.727C592.374 228 591.932 228.156 591.477 228.156C590.515 228.156 589.839 227.441 589.839 226.44V222.15H588.786V221.279H589.839V219.433H590.814V221.279H592.465V222.15H590.814V226.44C590.814 226.934 591.152 227.285 591.542 227.285C591.841 227.285 592.101 227.168 592.244 227.012ZM597.211 221.123C598.706 221.123 599.733 222.176 599.733 223.723V228H598.758V223.853C598.758 222.748 598.069 221.994 597.081 221.994C595.937 221.994 595.001 222.774 595.001 223.723V228H594.026V218.913H595.001V222.345C595.391 221.63 596.249 221.123 597.211 221.123ZM604.567 227.285C605.36 227.285 606.27 226.934 606.686 226.479L607.284 227.116C606.699 227.753 605.516 228.156 604.58 228.156C602.786 228.156 601.174 226.687 601.174 224.62C601.174 222.618 602.682 221.123 604.489 221.123C606.517 221.123 607.674 222.657 607.674 225.01H602.175C602.318 226.323 603.241 227.285 604.567 227.285ZM604.528 221.994C603.332 221.994 602.37 222.839 602.188 224.139H606.712C606.582 222.93 605.867 221.994 604.528 221.994ZM610.187 222.592C610.59 221.695 611.552 221.123 612.787 221.123V221.994C611.266 221.994 610.187 222.93 610.187 224.243V228H609.212V221.279H610.187V222.592ZM617.929 228L621.738 220.031H616.902V219.069H622.947V219.836L619.099 228H617.929ZM626.092 223.463C624.857 223.463 624.025 222.462 624.025 221.253C624.025 219.966 624.896 218.991 626.105 218.991C627.34 218.991 628.172 219.992 628.172 221.227C628.172 222.488 627.314 223.463 626.092 223.463ZM625.117 228L631.227 219.069H632.215L626.105 228H625.117ZM626.105 222.761C626.833 222.761 627.353 222.111 627.353 221.24C627.353 220.356 626.82 219.693 626.092 219.693C625.364 219.693 624.844 220.343 624.844 221.24C624.844 222.098 625.39 222.761 626.105 222.761ZM631.188 228.13C629.992 228.13 629.121 227.168 629.121 225.894C629.121 224.672 629.966 223.658 631.201 223.658C632.436 223.658 633.268 224.672 633.268 225.881C633.268 227.155 632.397 228.13 631.188 228.13ZM631.201 227.428C631.942 227.428 632.449 226.778 632.449 225.894C632.449 225.023 631.916 224.36 631.188 224.36C630.447 224.36 629.94 225.036 629.94 225.881C629.94 226.765 630.46 227.428 631.201 227.428Z" fill="#22343C"/>
</g>
<rect x="370.5" y="0.5" width="358" height="271" rx="3.5" stroke="#67777E"/>
<mask id="path-26-inside-6_9030_6579" fill="white">
<path fill-rule="evenodd" clip-rule="evenodd" d="M371 141L358 128.003L370.998 128"/>
</mask>
<path fill-rule="evenodd" clip-rule="evenodd" d="M371 141L358 128.003L370.998 128" fill="white"/>
<path d="M370.293 141.707L371 142.414L372.414 141L371.707 140.293L370.293 141.707ZM358 128.003L358 127.003L355.586 127.003L357.293 128.71L358 128.003ZM370.999 129L371.999 129L371.998 127L370.998 127L370.999 129ZM371.707 140.293L358.707 127.296L357.293 128.71L370.293 141.707L371.707 140.293ZM358 129.003L370.999 129L370.998 127L358 127.003L358 129.003Z" fill="#67777E" mask="url(#path-26-inside-6_9030_6579)"/>
<path fill-rule="evenodd" clip-rule="evenodd" d="M333 127C333 131.418 336.582 135 341 135C343.122 135 345.157 134.157 346.657 132.657C348.157 131.157 349 129.122 349 127C349 122.582 345.418 119 341 119C336.582 119 333 122.582 333 127ZM334 127C334 123.134 337.134 120 341 120C344.866 120 348 123.134 348 127C348 130.866 344.866 134 341 134C337.134 134 334 130.866 334 127ZM342.5 130.5H341.5V125.05H340C339.724 125.05 339.5 125.274 339.5 125.55C339.5 125.826 339.724 126.05 340 126.05H340.5V130.5H339.5C339.224 130.5 339 130.724 339 131C339 131.276 339.224 131.5 339.5 131.5H342.5C342.776 131.5 343 131.276 343 131C343 130.724 342.776 130.5 342.5 130.5ZM341.685 123.225C341.685 123.612 341.372 123.925 340.985 123.925C340.598 123.925 340.285 123.612 340.285 123.225C340.285 122.838 340.598 122.525 340.985 122.525C341.372 122.525 341.685 122.838 341.685 123.225Z" fill="#1B2B32"/>
<defs>
<clipPath id="clip0_9030_6579">
<rect width="226" height="80" fill="white" transform="translate(54 108)"/>
</clipPath>
<clipPath id="clip1_9030_6579">
<rect width="327" height="216" fill="white" transform="translate(386 40)"/>
</clipPath>
</defs>
</svg>
