<svg width="337" height="152" viewBox="0 0 337 152" fill="none" xmlns="http://www.w3.org/2000/svg">
<path d="M4 0.5H309C310.933 0.5 312.5 2.067 312.5 4V124C312.5 125.933 310.933 127.5 309 127.5H3.99999C2.067 127.5 0.5 125.933 0.5 124V4C0.5 2.067 2.067 0.5 4 0.5Z" fill="white"/>
<path d="M4 0.5H309C310.933 0.5 312.5 2.067 312.5 4V124C312.5 125.933 310.933 127.5 309 127.5H3.99999C2.067 127.5 0.5 125.933 0.5 124V4C0.5 2.067 2.067 0.5 4 0.5Z" stroke="#E02200"/>
<path fill-rule="evenodd" clip-rule="evenodd" d="M317 12C317 7.58172 320.582 4 325 4C327.122 4 329.157 4.84285 330.657 6.34315C332.157 7.84344 333 9.87827 333 12C333 16.4183 329.418 20 325 20C320.582 20 317 16.4183 317 12ZM324.133 12.5133C324.133 12.992 324.521 13.38 325 13.38C325.479 13.38 325.867 12.992 325.867 12.5133V8.51333C325.867 8.03469 325.479 7.64667 325 7.64667C324.521 7.64667 324.133 8.03469 324.133 8.51333V12.5133ZM325 18.6667C321.318 18.6667 318.333 15.6819 318.333 12C318.333 8.3181 321.318 5.33333 325 5.33333C328.682 5.33333 331.667 8.3181 331.667 12C331.667 13.7681 330.964 15.4638 329.714 16.714C328.464 17.9643 326.768 18.6667 325 18.6667ZM325.967 15.3467C325.967 15.899 325.519 16.3467 324.967 16.3467C324.414 16.3467 323.967 15.899 323.967 15.3467C323.967 14.7944 324.414 14.3467 324.967 14.3467C325.519 14.3467 325.967 14.7944 325.967 15.3467Z" fill="#E02200"/>
<mask id="mask0_8788_22036" style="mask-type:luminance" maskUnits="userSpaceOnUse" x="317" y="4" width="16" height="16">
<path fill-rule="evenodd" clip-rule="evenodd" d="M317 12C317 7.58172 320.582 4 325 4C327.122 4 329.157 4.84285 330.657 6.34315C332.157 7.84344 333 9.87827 333 12C333 16.4183 329.418 20 325 20C320.582 20 317 16.4183 317 12ZM324.133 12.5133C324.133 12.992 324.521 13.38 325 13.38C325.479 13.38 325.867 12.992 325.867 12.5133V8.51333C325.867 8.03469 325.479 7.64667 325 7.64667C324.521 7.64667 324.133 8.03469 324.133 8.51333V12.5133ZM325 18.6667C321.318 18.6667 318.333 15.6819 318.333 12C318.333 8.3181 321.318 5.33333 325 5.33333C328.682 5.33333 331.667 8.3181 331.667 12C331.667 13.7681 330.964 15.4638 329.714 16.714C328.464 17.9643 326.768 18.6667 325 18.6667ZM325.967 15.3467C325.967 15.899 325.519 16.3467 324.967 16.3467C324.414 16.3467 323.967 15.899 323.967 15.3467C323.967 14.7944 324.414 14.3467 324.967 14.3467C325.519 14.3467 325.967 14.7944 325.967 15.3467Z" fill="white"/>
</mask>
<g mask="url(#mask0_8788_22036)">
<rect x="313" width="24" height="24" fill="#E02200"/>
</g>
<path d="M6.622 140.257H2.068V142.743H6.171V143.557H2.068V146.186H6.622V147H1.199V139.443H6.622V140.257ZM9.22223 142.424C9.56323 141.665 10.3772 141.181 11.4222 141.181V141.918C10.1352 141.918 9.22223 142.71 9.22223 143.821V147H8.39723V141.313H9.22223V142.424ZM13.7836 142.424C14.1246 141.665 14.9386 141.181 15.9836 141.181V141.918C14.6966 141.918 13.7836 142.71 13.7836 143.821V147H12.9586V141.313H13.7836V142.424ZM19.9619 147.132C18.3449 147.132 17.0249 145.79 17.0249 144.151C17.0249 142.512 18.3449 141.181 19.9619 141.181C21.5679 141.181 22.8879 142.512 22.8879 144.151C22.8879 145.79 21.5679 147.132 19.9619 147.132ZM19.9619 146.395C21.0949 146.395 22.0299 145.383 22.0299 144.151C22.0299 142.919 21.0949 141.918 19.9619 141.918C18.8179 141.918 17.8829 142.919 17.8829 144.151C17.8829 145.383 18.8179 146.395 19.9619 146.395ZM25.334 142.424C25.675 141.665 26.489 141.181 27.534 141.181V141.918C26.247 141.918 25.334 142.71 25.334 143.821V147H24.509V141.313H25.334V142.424ZM38.4486 141.181C39.6366 141.181 40.4726 142.094 40.4726 143.381V147H39.6476V143.491C39.6476 142.567 39.1086 141.918 38.3386 141.918C37.4366 141.918 36.7986 142.523 36.7986 143.381V147H35.9736V143.491C35.9736 142.567 35.4346 141.918 34.6646 141.918C33.7626 141.918 33.1246 142.523 33.1246 143.381V147H32.2996V141.313H33.1246V142.149C33.4106 141.555 34.0266 141.181 34.7746 141.181C35.6766 141.181 36.3806 141.709 36.6666 142.534C36.8426 141.731 37.5466 141.181 38.4486 141.181ZM44.8556 146.395C45.5266 146.395 46.2966 146.098 46.6486 145.713L47.1546 146.252C46.6596 146.791 45.6586 147.132 44.8666 147.132C43.3486 147.132 41.9846 145.889 41.9846 144.14C41.9846 142.446 43.2606 141.181 44.7896 141.181C46.5056 141.181 47.4846 142.479 47.4846 144.47H42.8316C42.9526 145.581 43.7336 146.395 44.8556 146.395ZM44.8226 141.918C43.8106 141.918 42.9966 142.633 42.8426 143.733H46.6706C46.5606 142.71 45.9556 141.918 44.8226 141.918ZM50.8307 147.132C50.0387 147.132 49.1587 146.835 48.4767 146.285L48.9057 145.68C49.5547 146.153 50.2037 146.395 50.8307 146.395C51.5787 146.395 52.0847 146.043 52.0847 145.504C52.0847 144.888 51.4247 144.69 50.6547 144.47C49.2797 144.074 48.7517 143.667 48.7517 142.853C48.7517 141.819 49.6097 141.181 50.7427 141.181C51.4467 141.181 52.1727 141.423 52.7777 141.819L52.3817 142.457C51.8097 142.094 51.2487 141.918 50.7427 141.918C50.1047 141.918 49.5767 142.204 49.5767 142.754C49.5767 143.249 49.9947 143.403 51.0507 143.744C51.9637 144.03 52.9097 144.338 52.9097 145.416C52.9097 146.461 52.0077 147.132 50.8307 147.132ZM56.2836 147.132C55.4916 147.132 54.6116 146.835 53.9296 146.285L54.3586 145.68C55.0076 146.153 55.6566 146.395 56.2836 146.395C57.0316 146.395 57.5376 146.043 57.5376 145.504C57.5376 144.888 56.8776 144.69 56.1076 144.47C54.7326 144.074 54.2046 143.667 54.2046 142.853C54.2046 141.819 55.0626 141.181 56.1956 141.181C56.8996 141.181 57.6256 141.423 58.2306 141.819L57.8346 142.457C57.2626 142.094 56.7016 141.918 56.1956 141.918C55.5576 141.918 55.0296 142.204 55.0296 142.754C55.0296 143.249 55.4476 143.403 56.5036 143.744C57.4166 144.03 58.3626 144.338 58.3626 145.416C58.3626 146.461 57.4606 147.132 56.2836 147.132ZM62.0115 141.181C63.5625 141.181 64.3215 142.16 64.3215 143.535V147H63.4965V146.109C63.0895 146.78 62.2425 147.132 61.4945 147.132C60.2955 147.132 59.4155 146.439 59.4155 145.317C59.4155 144.184 60.4275 143.425 61.6485 143.425C62.2645 143.425 62.9135 143.557 63.4965 143.744V143.535C63.4965 142.765 63.1885 141.885 61.9565 141.885C61.3845 141.885 60.8125 142.138 60.2955 142.402L59.9655 141.731C60.7795 141.324 61.4615 141.181 62.0115 141.181ZM61.6375 146.406C62.3855 146.406 63.2765 146.021 63.4965 145.218V144.349C62.9795 144.206 62.3965 144.118 61.7805 144.118C60.9335 144.118 60.2185 144.602 60.2185 145.284C60.2185 145.988 60.8345 146.406 61.6375 146.406ZM70.4906 141.313H71.3156V146.395C71.3156 147.858 70.1606 148.892 68.5216 148.892C67.5976 148.892 66.7396 148.573 66.2226 148.133L66.5856 147.484C67.0256 147.902 67.7076 148.155 68.4116 148.155C69.7206 148.155 70.4906 147.506 70.4906 146.395V145.471C70.0506 146.164 69.3246 146.582 68.4226 146.582C66.8936 146.582 65.8046 145.46 65.8046 143.876C65.8046 142.292 66.8936 141.181 68.4226 141.181C69.3246 141.181 70.0506 141.599 70.4906 142.292V141.313ZM68.5766 145.845C69.6986 145.845 70.4906 145.031 70.4906 143.876C70.4906 142.732 69.6986 141.918 68.5766 141.918C67.4656 141.918 66.6736 142.732 66.6736 143.876C66.6736 145.031 67.4656 145.845 68.5766 145.845ZM75.8263 146.395C76.4973 146.395 77.2673 146.098 77.6193 145.713L78.1253 146.252C77.6303 146.791 76.6293 147.132 75.8373 147.132C74.3193 147.132 72.9553 145.889 72.9553 144.14C72.9553 142.446 74.2313 141.181 75.7603 141.181C77.4763 141.181 78.4553 142.479 78.4553 144.47H73.8023C73.9233 145.581 74.7043 146.395 75.8263 146.395ZM75.7933 141.918C74.7813 141.918 73.9673 142.633 73.8133 143.733H77.6413C77.5313 142.71 76.9263 141.918 75.7933 141.918Z" fill="#E02200"/>
</svg>
