<svg xmlns="http://www.w3.org/2000/svg" width="420" height="260" fill="none"><path fill="#fff" d="M.5 4A3.5 3.5 0 0 1 4 .5h412a3.5 3.5 0 0 1 3.5 3.5v252a3.5 3.5 0 0 1-3.5 3.5H4A3.5 3.5 0 0 1 .5 256z"/><path stroke="#CBD4D8" d="M.5 4A3.5 3.5 0 0 1 4 .5h412a3.5 3.5 0 0 1 3.5 3.5v252a3.5 3.5 0 0 1-3.5 3.5H4A3.5 3.5 0 0 1 .5 256z"/><path fill="#C8CDD1" d="M43.94 136.26c-.19 0-.38-.05-.55-.17a1.01 1.01 0 0 1-.28-1.39c.25-.38.44-.66 16.4-6.99.51-.2 1.1.05 1.3.56s-.05 1.09-.56 1.3c-12.44 4.94-15.17 6.16-15.65 6.44-.18.16-.42.24-.65.24zm329.64 42.97c-.5 0-1.4-.72-4.46-3.17-2.34-1.87-5.67-4.56-9.66-7.78-7.98-6.45-18.6-15.07-29.21-23.7-19.62-15.95-39.23-31.93-42.06-34.24l-45.13 7.52c-24.56 13.11-87.98 47.12-91.05 49.39-.1.12-.23.22-.38.28-.89.37-.98.41-27.99-26.53a9189 9189 0 0 1-26-26.04c-2.65 1.03-13.58 5.25-24.85 9.67a1.004 1.004 0 0 1-.73-1.87c12.97-5.08 25.47-9.91 25.47-9.91.37-.15.79-.05 1.07.23 19.41 19.52 48.42 48.49 52.68 52.27 1.47-.99 5.05-2.98 13.79-7.77 7.59-4.16 18.17-9.89 31.45-17.05 22.61-12.18 45.52-24.41 45.74-24.53.1-.05.2-.09.31-.1l45.74-7.62c.28-.05.57.03.8.21 28.3 23.07 82.03 66.8 84.79 68.77a1.008 1.008 0 0 1 .24 1.65c-.2.18-.34.31-.55.31z"/><path fill="#495A67" d="M376.56 228.52H43.44c-.55 0-1-.45-1-1V32.48c0-.55.45-1 1-1s1 .45 1 1v194.04h332.11c.55 0 1 .45 1 1s-.45 1-1 1z"/><path fill="#495A67" d="M43.66 185.95a1 1 0 0 1-.39-1.92l14.96-6.31c.51-.22 1.1.02 1.31.53a1 1 0 0 1-.53 1.31l-14.96 6.31c-.13.05-.26.08-.39.08m29.62-12.5a1 1 0 0 1-.39-1.92l78.81-33.25c.24-.1.5-.11.75-.01l63.98 24.41 106.19-49.73 47.32-45.63a.996.996 0 1 1 1.38 1.44l-47.44 45.74c-.08.08-.17.14-.27.19l-106.73 49.98c-.25.12-.53.13-.78.03l-64-24.42-78.44 33.09c-.13.05-.26.08-.39.08z"/><path fill="#fff" d="M151.94 144.01a4.94 4.94 0 1 0 0-9.88 4.94 4.94 0 0 0 0 9.88"/><path fill="#495A67" d="M151.94 145.01c-3.28 0-5.94-2.67-5.94-5.94s2.67-5.94 5.94-5.94 5.94 2.67 5.94 5.94-2.67 5.94-5.94 5.94m0-9.88c-2.17 0-3.94 1.77-3.94 3.94s1.77 3.94 3.94 3.94 3.94-1.77 3.94-3.94-1.77-3.94-3.94-3.94"/><path fill="#fff" d="M97.73 119.16a4.94 4.94 0 1 0 0-9.88 4.94 4.94 0 0 0 0 9.88"/><path fill="#C8CDD1" d="M97.73 120.16c-3.28 0-5.94-2.67-5.94-5.94s2.67-5.94 5.94-5.94 5.94 2.67 5.94 5.94-2.67 5.94-5.94 5.94m0-9.88c-2.17 0-3.94 1.77-3.94 3.94s1.77 3.94 3.94 3.94 3.94-1.77 3.94-3.94-1.77-3.94-3.94-3.94"/><path fill="#fff" d="M150.81 169.7a4.94 4.94 0 1 0 0-9.88 4.94 4.94 0 0 0 0 9.88"/><path fill="#C8CDD1" d="M150.81 170.7c-3.28 0-5.94-2.67-5.94-5.94s2.67-5.94 5.94-5.94 5.94 2.67 5.94 5.94-2.67 5.94-5.94 5.94m0-9.88c-2.17 0-3.94 1.77-3.94 3.94s1.77 3.94 3.94 3.94 3.94-1.77 3.94-3.94-1.77-3.94-3.94-3.94"/><path fill="#fff" d="M241.59 121.48a4.94 4.94 0 1 0 0-9.88 4.94 4.94 0 0 0 0 9.88"/><path fill="#C8CDD1" d="M241.59 122.48c-3.28 0-5.94-2.67-5.94-5.94s2.67-5.94 5.94-5.94 5.94 2.67 5.94 5.94-2.67 5.94-5.94 5.94m0-9.88c-2.17 0-3.94 1.77-3.94 3.94s1.77 3.94 3.94 3.94 3.94-1.77 3.94-3.94-1.77-3.94-3.94-3.94"/><path fill="#fff" d="M288.38 114.24a4.94 4.94 0 1 0 0-9.88 4.94 4.94 0 0 0 0 9.88"/><path fill="#C8CDD1" d="M288.38 115.24c-3.28 0-5.94-2.67-5.94-5.94s2.67-5.94 5.94-5.94 5.94 2.67 5.94 5.94-2.67 5.94-5.94 5.94m0-9.88c-2.17 0-3.94 1.77-3.94 3.94s1.77 3.94 3.94 3.94 3.94-1.77 3.94-3.94-1.77-3.94-3.94-3.94"/><path fill="#fff" d="M216.23 168.11a4.94 4.94 0 1 0 0-9.88 4.94 4.94 0 0 0 0 9.88"/><path fill="#495A67" d="M216.23 169.11c-3.28 0-5.94-2.67-5.94-5.94s2.67-5.94 5.94-5.94 5.94 2.67 5.94 5.94-2.67 5.94-5.94 5.94m0-9.88c-2.17 0-3.94 1.77-3.94 3.94s1.77 3.94 3.94 3.94 3.94-1.77 3.94-3.94-1.77-3.94-3.94-3.94"/><path fill="#fff" d="M324.05 118.47a4.94 4.94 0 1 0 0-9.88 4.94 4.94 0 0 0 0 9.88"/><path fill="#495A67" d="M324.05 119.47c-3.28 0-5.94-2.67-5.94-5.94s2.67-5.94 5.94-5.94 5.94 2.67 5.94 5.94-2.67 5.94-5.94 5.94m0-9.88c-2.17 0-3.94 1.77-3.94 3.94s1.77 3.94 3.94 3.94 3.94-1.77 3.94-3.94-1.77-3.94-3.94-3.94"/><path fill="#009ADB" d="M65.97 201.2c-.55 0-1-.45-1-1V75.97c0-.55.45-1 1-1s1 .45 1 1V200.2c0 .55-.45 1-1 1"/><path fill="#009ADB" d="M69.39 80.35c-.35 0-.68-.18-.87-.5l-2.56-4.43-2.56 4.43c-.28.48-.89.64-1.37.37a1.01 1.01 0 0 1-.37-1.37l3.42-5.93c.36-.62 1.38-.62 1.73 0l3.42 5.93a1.002 1.002 0 0 1-.87 1.5z"/><path fill="#00608A" d="M328.05 208.68H73.59c-.55 0-1-.45-1-1s.45-1 1-1h254.46c.55 0 1 .45 1 1s-.45 1-1 1"/><path fill="#00608A" d="M324.66 212.1a1.002 1.002 0 0 1-.5-1.87l4.43-2.56-4.43-2.56a1.01 1.01 0 0 1-.37-1.37c.28-.48.89-.64 1.37-.37l5.93 3.42c.31.18.5.51.5.87s-.19.69-.5.87l-5.93 3.42c-.16.09-.33.13-.5.13z"/><path fill="#009ADB" d="M66.05 65.5c-7.93 0-14.39-6.46-14.39-14.39s6.45-14.39 14.39-14.39 14.39 6.46 14.39 14.39S73.99 65.5 66.05 65.5m0-26.78c-6.83 0-12.39 5.56-12.39 12.39S59.22 63.5 66.05 63.5s12.39-5.56 12.39-12.39-5.56-12.39-12.39-12.39"/><path fill="#22343C" d="m65.33 53.79-4.96-7.52h2.2l3.69 5.79 3.74-5.8h2.11l-4.91 7.53v4.84h-1.87z"/><path fill="#00608A" d="M353.2 220.23c-7.93 0-14.39-6.46-14.39-14.39s6.45-14.39 14.39-14.39 14.39 6.46 14.39 14.39-6.45 14.39-14.39 14.39m0-26.78c-6.83 0-12.39 5.56-12.39 12.39s5.56 12.39 12.39 12.39 12.39-5.56 12.39-12.39-5.56-12.39-12.39-12.39"/><path fill="#22343C" d="m354.52 205.48 4.67 6.19h-2.2l-3.57-4.73-3.58 4.74h-2.16l4.66-6.18-4.67-6.19h2.2l3.57 4.73 3.58-4.74h2.16z"/></svg>