<svg xmlns="http://www.w3.org/2000/svg" width="450" height="260" fill="none"><path fill="#fff" d="M.5 4A3.5 3.5 0 0 1 4 .5h442a3.5 3.5 0 0 1 3.5 3.5v252a3.5 3.5 0 0 1-3.5 3.5H4A3.5 3.5 0 0 1 .5 256z"/><path stroke="#CBD4D8" d="M.5 4A3.5 3.5 0 0 1 4 .5h442a3.5 3.5 0 0 1 3.5 3.5v252a3.5 3.5 0 0 1-3.5 3.5H4A3.5 3.5 0 0 1 .5 256z"/><path fill="#1C7D5D" d="M130.8 33.81H38.28v36.98h92.52z"/><path fill="#22343C" d="M131.29 71.29H37.78V33.31h93.52v37.98zm-92.52-1h91.52V34.31H38.78v35.98z"/><path fill="#E6F7FF" d="M130.8 70.79H38.28v36.98h92.52z"/><path fill="#22343C" d="M131.29 108.28H37.78V70.3h93.52v37.98zm-92.52-1h91.52V71.3H38.78v35.98z"/><path fill="#1C9B71" d="M130.8 107.7H38.28v36.98h92.52z"/><path fill="#22343C" d="M131.29 145.19H37.78v-37.98h93.52v37.98zm-92.52-1h91.52v-35.98H38.78v35.98z"/><path fill="#34DAA3" d="M130.8 144.62H38.28v36.98h92.52z"/><path fill="#22343C" d="M131.29 182.1H37.78v-37.98h93.52v37.98zm-92.52-1h91.52v-35.98H38.78v35.98z"/><path fill="#2D4048" d="M130.8 181.53H38.28v36.98h92.52z"/><path fill="#22343C" d="M131.29 219.01H37.78v-37.98h93.52v37.98zm-92.52-1h91.52v-35.98H38.78v35.98z"/><path fill="#66D1FF" d="M223.63 33.81h-92.52v36.98h92.52z"/><path fill="#22343C" d="M224.13 71.29h-93.52V33.31h93.52zm-92.52-1h91.52V34.31h-91.52z"/><path fill="#1C7D5D" d="M223.63 70.79h-92.52v36.98h92.52z"/><path fill="#22343C" d="M224.13 108.28h-93.52V70.3h93.52zm-92.52-1h91.52V71.3h-91.52z"/><path fill="#00ABF5" d="M223.63 107.7h-92.52v36.98h92.52z"/><path fill="#22343C" d="M224.13 145.19h-93.52v-37.98h93.52zm-92.52-1h91.52v-35.98h-91.52z"/><path fill="#1C7D5D" d="M223.63 144.62h-92.52v36.98h92.52z"/><path fill="#22343C" d="M224.13 182.1h-93.52v-37.98h93.52zm-92.52-1h91.52v-35.98h-91.52z"/><path fill="#00ABF5" d="M223.63 181.53h-92.52v36.98h92.52z"/><path fill="#22343C" d="M224.13 219.01h-93.52v-37.98h93.52zm-92.52-1h91.52v-35.98h-91.52z"/><path fill="#0079AD" d="M316.46 33.81h-92.52v36.98h92.52z"/><path fill="#22343C" d="M316.96 71.29h-93.52V33.31h93.52zm-92.52-1h91.52V34.31h-91.52z"/><path fill="#1C9B71" d="M316.46 70.79h-92.52v36.98h92.52z"/><path fill="#22343C" d="M316.96 108.28h-93.52V70.3h93.52zm-92.52-1h91.52V71.3h-91.52z"/><path fill="#29BC8B" d="M316.46 107.7h-92.52v36.98h92.52z"/><path fill="#22343C" d="M316.96 145.19h-93.52v-37.98h93.52zm-92.52-1h91.52v-35.98h-91.52z"/><path fill="#0099DB" d="M316.46 144.62h-92.52v36.98h92.52z"/><path fill="#22343C" d="M316.96 182.1h-93.52v-37.98h93.52zm-92.52-1h91.52v-35.98h-91.52z"/><path fill="#0079AD" d="M316.46 181.53h-92.52v36.98h92.52z"/><path fill="#22343C" d="M316.96 219.01h-93.52v-37.98h93.52zm-92.52-1h91.52v-35.98h-91.52z"/><path fill="#00608A" d="M409.3 33.81h-92.52v36.98h92.52z"/><path fill="#22343C" d="M409.79 71.29h-93.52V33.31h93.52zm-92.52-1h91.52V34.31h-91.52z"/><path fill="#29BC8B" d="M409.3 70.79h-92.52v36.98h92.52z"/><path fill="#22343C" d="M409.79 108.28h-93.52V70.3h93.52zm-92.52-1h91.52V71.3h-91.52z"/><path fill="#00608A" d="M409.3 107.7h-92.52v36.98h92.52z"/><path fill="#22343C" d="M409.79 145.19h-93.52v-37.98h93.52zm-92.52-1h91.52v-35.98h-91.52z"/><path fill="#29BC8B" d="M409.3 144.62h-92.52v36.98h92.52z"/><path fill="#22343C" d="M409.79 182.1h-93.52v-37.98h93.52zm-92.52-1h91.52v-35.98h-91.52z"/><path fill="#00608A" d="M409.3 181.53h-92.52v36.98h92.52z"/><path fill="#22343C" d="M409.79 219.01h-93.52v-37.98h93.52zm-92.52-1h91.52v-35.98h-91.52z"/><mask id="a" width="85" height="85" x="275" y="10" maskUnits="userSpaceOnUse" style="mask-type:luminance"><path fill="#fff" d="M317.28 94.3c23.196 0 42-18.804 42-42s-18.804-42-42-42-42 18.804-42 42 18.804 42 42 42"/></mask><g mask="url(#a)"><path fill="#0079AD" d="M317.19 24.93H210.05v45.84h107.14z"/><path fill="#22343C" d="M317.69 71.27H209.55V24.43h108.14zm-107.14-1h106.14V25.43H210.55z"/><path fill="#22343C" d="M317.93 71.52H209.3V24.19h108.63zm-107.14-1.49h105.65V25.67H210.79z"/><path fill="#1C9B71" d="M317.19 70.77H210.05v45.84h107.14z"/><path fill="#22343C" d="M317.69 117.119H209.55v-46.84h108.14zm-107.14-1h106.14v-44.84H210.55z"/><path fill="#22343C" d="M317.93 117.359H209.3v-47.33h108.63zm-107.14-1.49h105.65v-44.35H210.79z"/><path fill="#00608A" d="M424.69 24.93H317.55v45.84h107.14z"/><path fill="#22343C" d="M425.19 71.27H317.05V24.43h108.14zm-107.14-1h106.14V25.43H318.05z"/><path fill="#22343C" d="M425.44 71.52H316.81V24.19h108.63zM318.3 70.03h105.65V25.67H318.3z"/><path fill="#29BC8B" d="M424.69 70.77H317.55v45.84h107.14z"/><path fill="#22343C" d="M425.19 117.119H317.05v-46.84h108.14zm-107.14-1h106.14v-44.84H318.05z"/><path fill="#22343C" d="M425.44 117.359H316.81v-47.33h108.63zm-107.14-1.49h105.65v-44.35H318.3z"/></g><path fill="#22343C" d="M317.28 95.3c-23.71 0-43-19.29-43-43s19.29-43 43-43 43 19.29 43 43-19.29 43-43 43m0-84c-22.61 0-41 18.39-41 41s18.39 41 41 41 41-18.39 41-41-18.39-41-41-41"/><path fill="#fff" d="M317.33 9.38c23.71 0 43 19.29 43 43s-19.29 43-43 43-43-19.29-43-43 19.29-43 43-43m0-2c-24.81 0-45 20.19-45 45s20.19 45 45 45 45-20.19 45-45-20.19-45-45-45"/></svg>