<svg xmlns="http://www.w3.org/2000/svg" width="292" height="260" fill="none"><path fill="#fff" d="M.5 4A3.5 3.5 0 0 1 4 .5h284a3.5 3.5 0 0 1 3.5 3.5v252a3.5 3.5 0 0 1-3.5 3.5H4A3.5 3.5 0 0 1 .5 256z"/><path stroke="#CBD4D8" d="M.5 4A3.5 3.5 0 0 1 4 .5h284a3.5 3.5 0 0 1 3.5 3.5v252a3.5 3.5 0 0 1-3.5 3.5H4A3.5 3.5 0 0 1 .5 256z"/><path fill="#1C7D5D" d="M91.02 37.65H36.31v36.98h54.71z"/><path fill="#22343C" d="M91.31 75.13h-55.3V37.15h55.3zm-54.71-1h54.11V38.15H36.6z"/><path fill="#E6F7FF" d="M91.02 74.63H36.31v36.98h54.71z"/><path fill="#22343C" d="M91.31 112.12h-55.3V74.14h55.3zm-54.71-1h54.11V75.14H36.6z"/><path fill="#1C9B71" d="M91.02 111.54H36.31v36.98h54.71z"/><path fill="#22343C" d="M91.31 149.03h-55.3v-37.98h55.3zm-54.71-1h54.11v-35.98H36.6z"/><path fill="#34DAA3" d="M91.02 148.46H36.31v36.98h54.71z"/><path fill="#22343C" d="M91.31 185.94h-55.3v-37.98h55.3zm-54.71-1h54.11v-35.98H36.6z"/><path fill="#2D4048" d="M91.02 185.37H36.31v36.98h54.71z"/><path fill="#22343C" d="M91.31 222.85h-55.3v-37.98h55.3zm-54.71-1h54.11v-35.98H36.6z"/><path fill="#66D1FF" d="M145.91 37.65H91.2v36.98h54.71z"/><path fill="#22343C" d="M146.2 75.13H90.9V37.15h55.3zm-54.71-1h54.11V38.15H91.49z"/><path fill="#1C7D5D" d="M145.91 74.63H91.2v36.98h54.71z"/><path fill="#22343C" d="M146.2 112.12H90.9V74.14h55.3zm-54.71-1h54.11V75.14H91.49z"/><path fill="#00ABF5" d="M145.91 111.54H91.2v36.98h54.71z"/><path fill="#22343C" d="M146.2 149.03H90.9v-37.98h55.3zm-54.71-1h54.11v-35.98H91.49z"/><path fill="#1C7D5D" d="M145.91 148.46H91.2v36.98h54.71z"/><path fill="#22343C" d="M146.2 185.94H90.9v-37.98h55.3zm-54.71-1h54.11v-35.98H91.49z"/><path fill="#00ABF5" d="M145.91 185.37H91.2v36.98h54.71z"/><path fill="#22343C" d="M146.2 222.85H90.9v-37.98h55.3zm-54.71-1h54.11v-35.98H91.49z"/><path fill="#0079AD" d="M200.8 37.65h-54.71v36.98h54.71z"/><path fill="#22343C" d="M201.09 75.13h-55.3V37.15h55.3zm-54.71-1h54.11V38.15h-54.11z"/><path fill="#1C9B71" d="M200.8 74.63h-54.71v36.98h54.71z"/><path fill="#22343C" d="M201.09 112.12h-55.3V74.14h55.3zm-54.71-1h54.11V75.14h-54.11z"/><path fill="#29BC8B" d="M200.8 111.54h-54.71v36.98h54.71z"/><path fill="#22343C" d="M201.09 149.03h-55.3v-37.98h55.3zm-54.71-1h54.11v-35.98h-54.11z"/><path fill="#0099DB" d="M200.8 148.46h-54.71v36.98h54.71z"/><path fill="#22343C" d="M201.09 185.94h-55.3v-37.98h55.3zm-54.71-1h54.11v-35.98h-54.11z"/><path fill="#0079AD" d="M200.8 185.37h-54.71v36.98h54.71z"/><path fill="#22343C" d="M201.09 222.85h-55.3v-37.98h55.3zm-54.71-1h54.11v-35.98h-54.11z"/><path fill="#00608A" d="M255.7 37.65h-54.71v36.98h54.71z"/><path fill="#22343C" d="M255.99 75.13h-55.3V37.15h55.3zm-54.71-1h54.11V38.15h-54.11z"/><path fill="#29BC8B" d="M255.7 74.63h-54.71v36.98h54.71z"/><path fill="#22343C" d="M255.99 112.12h-55.3V74.14h55.3zm-54.71-1h54.11V75.14h-54.11z"/><path fill="#00608A" d="M255.7 111.54h-54.71v36.98h54.71z"/><path fill="#22343C" d="M255.99 149.03h-55.3v-37.98h55.3zm-54.71-1h54.11v-35.98h-54.11z"/><path fill="#29BC8B" d="M255.7 148.46h-54.71v36.98h54.71z"/><path fill="#22343C" d="M255.99 185.94h-55.3v-37.98h55.3zm-54.71-1h54.11v-35.98h-54.11z"/><path fill="#00608A" d="M255.7 185.37h-54.71v36.98h54.71z"/><path fill="#22343C" d="M255.99 222.85h-55.3v-37.98h55.3zm-54.71-1h54.11v-35.98h-54.11z"/></svg>