<svg xmlns="http://www.w3.org/2000/svg" width="450" height="260" fill="none"><path fill="#fff" d="M.5 4A3.5 3.5 0 0 1 4 .5h442a3.5 3.5 0 0 1 3.5 3.5v252a3.5 3.5 0 0 1-3.5 3.5H4A3.5 3.5 0 0 1 .5 256z"/><path stroke="#CBD4D8" d="M.5 4A3.5 3.5 0 0 1 4 .5h442a3.5 3.5 0 0 1 3.5 3.5v252a3.5 3.5 0 0 1-3.5 3.5H4A3.5 3.5 0 0 1 .5 256z"/><path fill="#22343C" d="M172.28 54.81h-4.07v-1.69h9.94v1.69h-4.05v10.67h-1.82zm14.36 1.6c.53.3.94.72 1.23 1.27s.44 1.17.44 1.88v5.92h-1.73v-5.62c0-.7-.2-1.26-.59-1.7-.4-.44-.91-.66-1.55-.66-.47 0-.9.1-1.3.3s-.71.46-.94.8-.34.7-.34 1.1v5.78h-1.78V52.9h1.78v4.64a3.1 3.1 0 0 1 1.21-1.14c.53-.29 1.12-.44 1.75-.44q1.005 0 1.8.45zm4.53-2.11c-.21-.22-.31-.47-.31-.76s.1-.54.31-.75.47-.32.77-.32.54.11.75.32.31.46.31.75-.1.54-.31.76-.46.32-.75.32-.56-.11-.77-.32m-.13 1.87h1.78v9.31h-1.78zm5.67 9.17c-.7-.24-1.32-.58-1.87-1.03l.81-1.22c.52.38 1.04.67 1.58.87s1.07.3 1.58.3c.55 0 .99-.11 1.32-.34s.5-.53.5-.92-.17-.69-.52-.89-.89-.4-1.64-.6c-1.14-.32-1.96-.68-2.46-1.06s-.75-.94-.75-1.66c0-.85.31-1.54.94-2.05.63-.52 1.44-.77 2.44-.77.59 0 1.18.1 1.78.29s1.15.46 1.66.79l-.74 1.26q-1.44-.9-2.7-.9c-.49 0-.9.11-1.21.32q-.48.315-.48.87c0 .24.07.43.22.58.14.14.36.27.65.39s.74.27 1.35.46c.67.2 1.22.4 1.65.58.43.19.78.46 1.07.82s.43.83.43 1.4c0 .88-.33 1.58-.98 2.1q-.975.78-2.55.78c-.7 0-1.39-.12-2.09-.36zm12.84-11.04c-.21-.22-.31-.47-.31-.76s.1-.54.31-.75.47-.32.77-.32.54.11.75.32.31.46.31.75-.1.54-.31.76-.46.32-.75.32-.56-.11-.77-.32m-.13 1.87h1.78v9.31h-1.78zm5.66 9.17c-.7-.24-1.32-.58-1.87-1.03l.81-1.22c.52.38 1.04.67 1.58.87s1.07.3 1.58.3c.55 0 .99-.11 1.32-.34s.5-.53.5-.92-.17-.69-.52-.89-.89-.4-1.64-.6c-1.14-.32-1.96-.68-2.46-1.06s-.75-.94-.75-1.66c0-.85.31-1.54.94-2.05.63-.52 1.44-.77 2.44-.77.59 0 1.18.1 1.78.29s1.15.46 1.66.79l-.74 1.26q-1.44-.9-2.7-.9c-.49 0-.9.11-1.21.32q-.48.315-.48.87c0 .24.07.43.22.58.14.14.36.27.65.39s.74.27 1.35.46c.67.2 1.22.4 1.65.58.43.19.78.46 1.07.82s.43.83.43 1.4c0 .88-.33 1.58-.98 2.1q-.975.78-2.55.78c-.7 0-1.39-.12-2.09-.36zm19.1-8.32c.68.71 1.03 1.65 1.03 2.83v5.63h-1.75v-1.26c-.34.47-.79.83-1.35 1.09s-1.15.39-1.75.39c-1 0-1.82-.27-2.47-.81s-.97-1.26-.97-2.16c0-.6.16-1.14.49-1.61s.78-.84 1.35-1.1 1.2-.39 1.88-.39c.89 0 1.82.17 2.81.5v-.29c0-.68-.19-1.26-.56-1.72s-.98-.69-1.84-.69c-.73 0-1.6.26-2.61.77l-.67-1.31c1.25-.62 2.42-.94 3.53-.94 1.22 0 2.18.35 2.86 1.06zm-1.73 6.81c.53-.31.86-.73 1.01-1.27v-1.24c-.79-.24-1.64-.36-2.54-.36-.64 0-1.18.16-1.62.49-.44.32-.67.73-.67 1.22s.19.88.58 1.18c.39.29.89.44 1.5.44s1.2-.15 1.73-.46zm15.05 1.2c-.25.2-.54.37-.87.49s-.66.18-1 .18c-.72 0-1.31-.24-1.76-.71-.46-.47-.68-1.08-.68-1.83v-5.47h-1.39v-1.51h1.39v-2.56h1.75v2.56h2.2v1.51h-2.2v5.35c0 .32.1.59.29.8s.42.32.68.32c.19 0 .37-.03.54-.1s.3-.15.4-.24l.67 1.22zm3.56.01a4.9 4.9 0 0 1-1.79-1.78c-.44-.75-.67-1.56-.67-2.44s.22-1.69.67-2.43c.44-.74 1.04-1.33 1.79-1.77a4.73 4.73 0 0 1 2.44-.66c.88 0 1.69.22 2.44.66s1.35 1.03 1.79 1.77.67 1.55.67 2.43-.22 1.69-.67 2.44c-.44.75-1.04 1.34-1.79 1.78s-1.56.66-2.44.66-1.69-.22-2.44-.66m4-1.34c.47-.3.85-.7 1.13-1.21s.42-1.06.42-1.67-.14-1.15-.42-1.67a3.3 3.3 0 0 0-1.13-1.21c-.47-.3-.99-.44-1.56-.44s-1.08.15-1.56.44-.85.7-1.13 1.21-.42 1.07-.42 1.67.14 1.16.42 1.67.66.92 1.13 1.21q.705.45 1.56.45c.57 0 1.08-.15 1.56-.45m7.19 1.34a4.9 4.9 0 0 1-1.79-1.78c-.44-.75-.67-1.56-.67-2.44s.22-1.69.67-2.43c.44-.74 1.04-1.33 1.79-1.77a4.73 4.73 0 0 1 2.44-.66c.88 0 1.69.22 2.44.66s1.35 1.03 1.79 1.77.67 1.55.67 2.43-.22 1.69-.67 2.44c-.44.75-1.04 1.34-1.79 1.78s-1.56.66-2.44.66-1.69-.22-2.44-.66m4-1.34c.47-.3.85-.7 1.13-1.21s.42-1.06.42-1.67-.14-1.15-.42-1.67a3.3 3.3 0 0 0-1.13-1.21c-.47-.3-.99-.44-1.56-.44s-1.08.15-1.56.44-.85.7-1.13 1.21-.42 1.07-.42 1.67.14 1.16.42 1.67.66.92 1.13 1.21q.705.45 1.56.45c.57 0 1.08-.15 1.56-.45m5.5-10.8h1.78v12.58h-1.78zm9.34 12.13c-.25.2-.54.37-.87.49s-.66.18-1 .18c-.72 0-1.31-.24-1.76-.71-.46-.47-.68-1.08-.68-1.83v-5.47h-1.39v-1.51h1.39v-2.56h1.75v2.56h2.2v1.51h-2.2v5.35c0 .32.1.59.29.8s.42.32.68.32c.19 0 .37-.03.54-.1s.3-.15.4-.24l.67 1.22zm1.99-10.73c-.21-.22-.31-.47-.31-.76s.1-.54.31-.75.47-.32.77-.32.54.11.75.32.31.46.31.75-.1.54-.31.76-.46.32-.75.32-.56-.11-.77-.32m-.13 1.87h1.78v9.31h-1.78zm11.96.41c.65.41 1.16.99 1.53 1.73s.56 1.58.56 2.51-.19 1.78-.56 2.52q-.555 1.11-1.53 1.74c-.65.42-1.38.62-2.2.62-.7 0-1.33-.16-1.9-.48s-1.03-.77-1.39-1.34v4.7h-1.78v-12.4h1.78v1.58c.37-.56.84-1 1.4-1.32q.84-.48 1.89-.48c.82 0 1.55.21 2.2.62m-1.12 7.15c.44-.28.79-.68 1.04-1.19s.37-1.08.37-1.72-.12-1.21-.37-1.71-.59-.9-1.04-1.18-.94-.42-1.49-.42-1.05.14-1.49.42-.78.67-1.03 1.18-.37 1.07-.37 1.71.12 1.21.37 1.72.59.91 1.03 1.19.93.42 1.49.42a2.7 2.7 0 0 0 1.49-.42"/><path fill="#009ADB" d="M154.11 91.53c-.13 0-.26-.02-.38-.08-.37-.15-.62-.52-.62-.92V44.97c0-2.76 2.24-5 5-5h150.27c2.76 0 5 2.24 5 5v28.01c0 2.76-2.24 5-5 5h-140.3l-13.26 13.26c-.19.19-.45.29-.71.29m4-49.56c-1.65 0-3 1.35-3 3v43.14l11.84-11.85a1 1 0 0 1 .71-.29h140.72c1.65 0 3-1.35 3-3V44.96c0-1.65-1.35-3-3-3H158.11z"/><path fill="#7C12A5" stroke="#fff" stroke-miterlimit="10" d="M103.17 194.73H61.39v33.36h41.78z"/><path fill="#009ADB" stroke="#fff" stroke-miterlimit="10" d="M103.17 142.33H61.39v53.69h41.78z"/><path fill="#7C12A5" stroke="#fff" stroke-miterlimit="10" d="M176.42 171.19h-41.78v56.9h41.78z"/><path fill="#009ADB" stroke="#fff" stroke-miterlimit="10" d="M176.42 96.8h-41.78v74.54h41.78z"/><path fill="#7C12A5" stroke="#fff" stroke-miterlimit="10" d="M249.66 193.26h-41.78v34.83h41.78z"/><path fill="#7C12A5" stroke="#fff" stroke-miterlimit="10" d="M208.45 227.59h40.64v-33.83h-40.64z"/><path fill="#009ADB" stroke="#fff" stroke-miterlimit="10" d="M208.45 194.19h40.64v-29.14h-40.64z"/><path fill="#7C12A5" stroke="#fff" stroke-miterlimit="10" d="M322.9 188.36h-41.78v39.74h41.78z"/><path fill="#7C12A5" stroke="#fff" stroke-miterlimit="10" d="M281.69 227.59h40.64v-38.74h-40.64z"/><path fill="#009ADB" stroke="#fff" stroke-miterlimit="10" d="M281.69 189.92h40.64v-45.31h-40.64z"/><path fill="#7C12A5" stroke="#fff" stroke-miterlimit="10" d="M396.14 171.19h-41.78v56.9h41.78z"/><path fill="#7C12A5" stroke="#fff" stroke-miterlimit="10" d="M354.93 227.59h40.64v-55.9h-40.64z"/><path fill="#009ADB" stroke="#fff" stroke-miterlimit="10" d="M354.93 174.1h40.64v-29.14h-40.64z"/><path fill="#495A67" d="M413.01 228.94H39.9c-.55 0-1-.45-1-1V34.59c0-.55.45-1 1-1s1 .45 1 1v192.36h372.11c.55 0 1 .45 1 1s-.45 1-1 1z"/><path fill="#000" fill-rule="evenodd" d="M175.09 120.78c2.95.65 5.65 2.16 7.76 4.33.18.19.28.44.29.7v6.79c.03 3.46-1.17 6.81-3.39 9.46v3.05c0 .64-.49 1.18-1.13 1.22h-15.71c-.64-.04-1.14-.58-1.13-1.22v-2.17c-.9-.83-1.66-1.8-2.26-2.87-.81-1.4-1.36-2.93-1.62-4.52l-5.26-6.24a4.1 4.1 0 0 1-1.13-2.9c0-1.12.46-2.2 1.27-2.98a4.243 4.243 0 0 1 5.96 0l1.81 1.79v-11.31a3.84 3.84 0 0 1 3.95-3.71 3.84 3.84 0 0 1 3.95 3.71v6c2.24.04 4.46.34 6.63.88zm2.86 20.09c1.96-2.28 3.01-5.21 2.94-8.21v-6.37c-.85-.78-1.8-1.44-2.82-1.96v5.4l-1.81-.4v-5.83c-.57-.22-1.14-.4-1.73-.55-.49-.12-.96-.23-1.42-.32v6.05l-1.81-.4v-5.92c-.94-.12-1.89-.18-2.84-.2v5.57l-2.26-.49v-13.35c-.08-.86-.83-1.5-1.69-1.45-.86-.05-1.61.59-1.69 1.45v16.93l-2.26 1.13v-3.55l-3.39-3.39c-.77-.76-2.02-.76-2.79 0-.37.36-.57.85-.57 1.37s.21 1.01.57 1.37l5.56 6.58c.16.19.25.42.26.67.17 1.41.64 2.76 1.36 3.98a8.1 8.1 0 0 0 2.06 2.52c.31.21.5.56.5.94v1.67h13.4v-2.44c.04-.32.2-.61.45-.81z" clip-rule="evenodd"/><path fill="#fff" fill-rule="evenodd" d="M178.05 140.91c1.96-2.28 3.01-5.21 2.94-8.21v-6.37c-.85-.78-1.8-1.44-2.82-1.96v5.4l-1.81-.4v-5.83c-.57-.22-1.14-.4-1.73-.55-.49-.12-.96-.23-1.42-.32v6.05l-1.81-.4v-5.92c-.94-.12-1.89-.18-2.84-.2v5.57l-2.26-.49v-13.35c-.08-.86-.83-1.5-1.69-1.45-.86-.05-1.61.59-1.69 1.45v16.93l-2.26 1.13v-3.55l-3.39-3.39c-.77-.76-2.02-.76-2.79 0-.37.36-.57.85-.57 1.37s.21 1.01.57 1.37l5.56 6.58c.16.19.25.42.26.67.17 1.41.64 2.76 1.36 3.98a8.1 8.1 0 0 0 2.06 2.52c.31.21.5.56.5.94v1.67h13.4v-2.44c.04-.32.2-.61.45-.81z" clip-rule="evenodd"/></svg>
