<svg xmlns="http://www.w3.org/2000/svg" width="450" height="260" fill="none"><path fill="#fff" d="M.5 4A3.5 3.5 0 0 1 4 .5h442a3.5 3.5 0 0 1 3.5 3.5v252a3.5 3.5 0 0 1-3.5 3.5H4A3.5 3.5 0 0 1 .5 256z"/><path stroke="#CBD4D8" d="M.5 4A3.5 3.5 0 0 1 4 .5h442a3.5 3.5 0 0 1 3.5 3.5v252a3.5 3.5 0 0 1-3.5 3.5H4A3.5 3.5 0 0 1 .5 256z"/><path fill="#F6E8FB" d="M94.59 199.76H50.03c-9.2 0-16.66 7.459-16.66 16.66s7.46 16.66 16.66 16.66h44.56c9.201 0 16.66-7.459 16.66-16.66s-7.459-16.66-16.66-16.66"/><path fill="#7C12A5" stroke="#fff" stroke-linecap="round" stroke-linejoin="round" d="M103.06 158.73H61.39v30.36h41.67z"/><path fill="#fff" d="M103.06 189.59H61.39c-.31 0-.57-.22-.57-.5v-30.36c0-.28.25-.5.57-.5h41.67c.31 0 .57.22.57.5v30.36c0 .28-.25.5-.57.5m-41.1-1h40.53v-29.36H61.96z"/><path fill="#8FDDFF" stroke="#fff" stroke-miterlimit="10" d="M103.06 104.78H61.39v53.69h41.67z"/><path fill="#7C12A5" stroke="#fff" stroke-linecap="round" stroke-linejoin="round" d="M176.1 135.19h-41.67v53.9h41.67z"/><path fill="#fff" d="M176.1 189.59h-41.67c-.31 0-.57-.22-.57-.5v-53.9c0-.28.25-.5.57-.5h41.67c.31 0 .57.22.57.5v53.9c0 .28-.25.5-.57.5m-41.1-1h40.53v-52.9H135z"/><path fill="#8FDDFF" stroke="#fff" stroke-miterlimit="10" d="M176.1 60.38h-41.67v74.54h41.67z"/><path fill="#7C12A5" stroke="#fff" stroke-linecap="round" stroke-linejoin="round" d="M249.14 157.26h-41.67v31.83h41.67z"/><path fill="#fff" d="M249.14 189.59h-41.67c-.31 0-.57-.22-.57-.5v-31.83c0-.28.25-.5.57-.5h41.67c.31 0 .57.22.57.5v31.83c0 .28-.25.5-.57.5m-41.1-1h40.53v-30.83h-40.53z"/><path fill="#8FDDFF" stroke="#fff" stroke-miterlimit="10" d="M249.14 126.85h-41.67v30.14h41.67z"/><path fill="#7C12A5" stroke="#fff" stroke-linecap="round" stroke-linejoin="round" d="M322.18 152.36h-41.67v36.74h41.67z"/><path fill="#fff" d="M322.18 189.59h-41.67c-.31 0-.57-.22-.57-.5v-36.74c0-.28.25-.5.57-.5h41.67c.31 0 .57.22.57.5v36.74c0 .28-.25.5-.57.5m-41.1-1h40.53v-35.74h-40.53z"/><path fill="#8FDDFF" stroke="#fff" stroke-miterlimit="10" d="M322.18 105.79h-41.67v46.31h41.67z"/><path fill="#7C12A5" stroke="#fff" stroke-linecap="round" stroke-linejoin="round" d="M395.22 135.19h-41.67v53.9h41.67z"/><path fill="#fff" d="M395.22 189.59h-41.67c-.31 0-.57-.22-.57-.5v-53.9c0-.28.25-.5.57-.5h41.67c.31 0 .57.22.57.5v53.9c0 .28-.25.5-.57.5m-41.1-1h40.53v-52.9h-40.53z"/><path fill="#8FDDFF" stroke="#fff" stroke-miterlimit="10" d="M395.22 104.78h-41.67v30.14h41.67z"/><path fill="#495A67" d="M413.01 189.94H39.9c-.55 0-1-.45-1-1V34.59c0-.55.45-1 1-1s1 .45 1 1v153.36h372.11c.55 0 1 .45 1 1s-.45 1-1 1z"/><path fill="#7C12A5" d="M49.18 225.17a8.75 8.75 0 1 0 0-17.5 8.75 8.75 0 0 0 0 17.5"/><path fill="#1983B8" d="M131.07 225.17a8.75 8.75 0 1 0 0-17.5 8.75 8.75 0 0 0 0 17.5"/><path fill="#000" fill-rule="evenodd" d="M58.91 228.66c2.95.65 5.65 2.16 7.76 4.33.18.19.28.44.29.7v6.79c.03 3.46-1.17 6.81-3.39 9.46v3.05c0 .64-.49 1.18-1.13 1.22H46.73c-.64-.04-1.14-.58-1.13-1.22v-2.17c-.9-.83-1.66-1.8-2.26-2.87-.81-1.4-1.36-2.93-1.62-4.52l-5.26-6.24a4.1 4.1 0 0 1-1.13-2.9c0-1.12.46-2.2 1.27-2.98a4.243 4.243 0 0 1 5.96 0l1.81 1.79v-11.31a3.84 3.84 0 0 1 3.95-3.71 3.84 3.84 0 0 1 3.95 3.71v6c2.24.04 4.46.34 6.63.88zm2.86 20.09c1.96-2.28 3.01-5.21 2.94-8.21v-6.37c-.85-.78-1.8-1.44-2.82-1.96v5.4l-1.81-.4v-5.83c-.57-.22-1.14-.4-1.73-.55-.49-.12-.96-.23-1.42-.32v6.05l-1.81-.4v-5.92c-.94-.12-1.89-.18-2.84-.2v5.57l-2.26-.49v-13.35c-.08-.86-.83-1.5-1.69-1.45-.86-.05-1.61.59-1.69 1.45v16.93l-2.26 1.13v-3.55l-3.39-3.39c-.77-.76-2.02-.76-2.79 0-.37.36-.57.85-.57 1.37s.21 1.01.57 1.37l5.56 6.58c.16.19.25.42.26.67.17 1.41.64 2.76 1.36 3.98a8.1 8.1 0 0 0 2.06 2.52c.31.21.5.56.5.94v1.67h13.4v-2.44c.04-.32.2-.61.45-.81z" clip-rule="evenodd"/><path fill="#fff" fill-rule="evenodd" d="M61.87 248.79c1.96-2.28 3.01-5.21 2.94-8.21v-6.37c-.85-.78-1.8-1.44-2.82-1.96v5.4l-1.81-.4v-5.83c-.57-.22-1.14-.4-1.73-.55-.49-.12-.96-.23-1.42-.32v6.05l-1.81-.4v-5.92c-.94-.12-1.89-.18-2.84-.2v5.57l-2.26-.49v-13.35c-.08-.86-.83-1.5-1.69-1.45-.86-.05-1.61.59-1.69 1.45v16.93l-2.26 1.13v-3.55l-3.39-3.39c-.77-.76-2.02-.76-2.79 0-.37.36-.57.85-.57 1.37s.21 1.01.57 1.37l5.56 6.58c.16.19.25.42.26.67.17 1.41.64 2.76 1.36 3.98a8.1 8.1 0 0 0 2.06 2.52c.31.21.5.56.5.94v1.67h13.4v-2.44c.04-.32.2-.61.45-.81z" clip-rule="evenodd"/><path fill="#000" d="M70.378 210.136h1.668l-3.444 8.244h-1.668l-3.444-8.244h1.656l2.616 6.252zm3.455 1.104a.85.85 0 0 1-.84-.84.84.84 0 0 1 .84-.828c.456 0 .828.384.828.828s-.372.84-.828.84m-.744 7.14v-6.204h1.464v6.204zm6.082.144c-1.8 0-3.324-1.488-3.324-3.252s1.524-3.24 3.324-3.24 3.324 1.476 3.324 3.24-1.524 3.252-3.324 3.252m0-1.248c1.02 0 1.884-.912 1.884-2.004 0-1.08-.864-1.992-1.884-1.992-1.032 0-1.896.912-1.896 1.992 0 1.092.864 2.004 1.896 2.004m4.594 1.104v-8.388h1.464v8.388zm5.974-1.152c.576 0 1.26-.264 1.608-.624l.924.96c-.54.576-1.62.96-2.52.96-1.776 0-3.24-1.356-3.24-3.264 0-1.86 1.392-3.228 3.156-3.228 1.92 0 3.036 1.452 3.036 3.744h-4.68c.18.852.828 1.452 1.716 1.452m-.012-3.9c-.816 0-1.476.516-1.692 1.332h3.264c-.168-.78-.696-1.332-1.572-1.332m7.341 3.72.42.984c-.348.3-.852.492-1.32.492-1.032 0-1.752-.744-1.752-1.788v-3.348h-.9v-1.212h.9v-1.704h1.428v1.704h1.404v1.212h-1.404v3.168c0 .42.264.72.612.72.252 0 .48-.096.612-.228m51.292 1.332v-8.244h4.044c1.428 0 2.436.864 2.436 2.064 0 .84-.432 1.428-1.164 1.824.948.456 1.512 1.212 1.512 2.112 0 1.32-1.092 2.244-2.628 2.244zm1.488-4.872h2.196c.732 0 1.26-.432 1.26-1.032 0-.612-.528-1.044-1.26-1.044h-2.196zm0 3.576h2.412c.816 0 1.392-.492 1.392-1.176s-.576-1.176-1.392-1.176h-2.412zm6.688 1.296v-8.388H158v8.388zm7.282-6.204h1.464v6.204h-1.464v-.828c-.384.576-1.104.972-1.92.972-1.356 0-2.304-.996-2.304-2.4v-3.948h1.416v3.66c0 .84.54 1.44 1.308 1.44s1.404-.516 1.5-1.176zm5.97 5.052c.576 0 1.26-.264 1.608-.624l.924.96c-.54.576-1.62.96-2.52.96-1.776 0-3.24-1.356-3.24-3.264 0-1.86 1.392-3.228 3.156-3.228 1.92 0 3.036 1.452 3.036 3.744h-4.68c.18.852.828 1.452 1.716 1.452m-.012-3.9c-.816 0-1.476.516-1.692 1.332h3.264c-.168-.78-.696-1.332-1.572-1.332"/></svg>
