<svg width="451" height="260" viewBox="0 0 451 260" fill="none" xmlns="http://www.w3.org/2000/svg">
  <path d="M0.5 4C0.5 2.067 2.067 0.5 4 0.5H447C448.933 0.5 450.5 2.067 450.5 4V256C450.5 257.933 448.933 259.5 447 259.5H4C2.067 259.5 0.5 257.933 0.5 256V4Z" fill="white"/>
  <path d="M0.5 4C0.5 2.067 2.067 0.5 4 0.5H447C448.933 0.5 450.5 2.067 450.5 4V256C450.5 257.933 448.933 259.5 447 259.5H4C2.067 259.5 0.5 257.933 0.5 256V4Z" stroke="#CBD4D8"/>
  <path d="M78.8304 177.86H55.6504V218.24H78.8304V177.86Z" fill="#4F6169"/>
  <path d="M118.68 164.53H95.5V218.24H118.68V164.53Z" fill="#4F6169"/>
  <path d="M158.54 182.32H135.36V218.24H158.54V182.32Z" fill="#4F6169"/>
  <path d="M175.71 114.33H197.89V217.73H175.71V114.33Z" fill="#FFC60A" stroke="#BD7E00"/>
  <path d="M238.25 81.71H215.07V218.24H238.25V81.71Z" fill="#F56700"/>
  <path d="M278.1 167.78H254.92V218.23H278.1V167.78Z" fill="#4F6169"/>
  <path d="M317.96 37.96H294.78V218.24H317.96V37.96Z" fill="#E02200"/>
  <path d="M357.81 180.05H334.63V218.23H357.81V180.05Z" fill="#4F6169"/>
  <path d="M397.67 189.34H374.49V218.23H397.67V189.34Z" fill="#4F6169"/>
  <path d="M411.82 219.51H37.5801C37.0301 219.51 36.5801 219.06 36.5801 218.51V38.2695C36.5801 37.7195 37.0301 37.2695 37.5801 37.2695C38.1301 37.2695 38.5801 37.7195 38.5801 38.2695V217.51H411.82C412.37 217.51 412.82 217.96 412.82 218.51C412.82 219.06 412.37 219.51 411.82 219.51Z" fill="#4F6169"/>
  <path d="M39.3896 143.76H37.3896V144.76H39.3896V143.76Z" fill="#4F6169"/>
  <path d="M398.42 144.76H394.43V143.76H398.42V144.76ZM386.45 144.76H382.46V143.76H386.45V144.76ZM374.48 144.76H370.49V143.76H374.48V144.76ZM362.51 144.76H358.52V143.76H362.51V144.76ZM350.54 144.76H346.55V143.76H350.54V144.76ZM338.57 144.76H334.58V143.76H338.57V144.76ZM326.6 144.76H322.61V143.76H326.6V144.76ZM314.63 144.76H310.64V143.76H314.63V144.76ZM302.66 144.76H298.67V143.76H302.66V144.76ZM290.69 144.76H286.7V143.76H290.69V144.76ZM278.72 144.76H274.73V143.76H278.72V144.76ZM266.75 144.76H262.76V143.76H266.75V144.76ZM254.78 144.76H250.79V143.76H254.78V144.76ZM242.81 144.76H238.82V143.76H242.81V144.76ZM230.84 144.76H226.85V143.76H230.84V144.76ZM218.87 144.76H214.88V143.76H218.87V144.76ZM206.9 144.76H202.91V143.76H206.9V144.76ZM194.93 144.76H190.94V143.76H194.93V144.76ZM182.96 144.76H178.97V143.76H182.96V144.76ZM170.99 144.76H167V143.76H170.99V144.76ZM159.02 144.76H155.03V143.76H159.02V144.76ZM147.05 144.76H143.06V143.76H147.05V144.76ZM135.08 144.76H131.09V143.76H135.08V144.76ZM123.11 144.76H119.12V143.76H123.11V144.76ZM111.14 144.76H107.15V143.76H111.14V144.76ZM99.1698 144.76H95.1798V143.76H99.1698V144.76ZM87.1998 144.76H83.2098V143.76H87.1998V144.76ZM75.2298 144.76H71.2398V143.76H75.2298V144.76ZM63.2598 144.76H59.2698V143.76H63.2598V144.76ZM51.2898 144.76H47.2998V143.76H51.2898V144.76Z" fill="#4F6169"/>
  <path d="M408.4 143.76H406.4V144.76H408.4V143.76Z" fill="#4F6169"/>
</svg>
