<svg xmlns="http://www.w3.org/2000/svg" width="292" height="260" fill="none"><path fill="#fff" d="M.5 4A3.5 3.5 0 0 1 4 .5h284a3.5 3.5 0 0 1 3.5 3.5v252a3.5 3.5 0 0 1-3.5 3.5H4A3.5 3.5 0 0 1 .5 256z"/><path stroke="#CBD4D8" d="M.5 4A3.5 3.5 0 0 1 4 .5h284a3.5 3.5 0 0 1 3.5 3.5v252a3.5 3.5 0 0 1-3.5 3.5H4A3.5 3.5 0 0 1 .5 256z"/><g clip-path="url(#a)"><path fill="url(#b)" d="m37.88 114.77 27.56-15.94 25.6 28.24 33.3-20.9 41.61-2.35 49.81-61.01 29.55 53.71.45 122.59-207.98-.24z"/><path fill="#495A67" d="M250.53 219.51H37.21c-.55 0-1-.45-1-1V38.27c0-.55.45-1 1-1s1 .45 1 1V217.5h212.32c.55 0 1 .45 1 1s-.45 1-1 1z"/><mask id="c" width="369" height="181" x="210" y="218" maskUnits="userSpaceOnUse" style="mask-type:luminance"><path fill="#fff" d="m210.14 288.58 76.18-17.76 70.98 35.52 51.94-23.68 74.45-2.37 41.56-61.58L577.19 272l1.8 126.95H210.18z"/></mask><g mask="url(#c)"><path fill="#0079AD" d="M210.89 218.71h-.75v180.23h.75z"/><path fill="#007AAE" d="M211.64 218.71h-.75v180.23h.75z"/><path fill="#007BAF" d="M212.38 218.71h-.75v180.23h.75z"/><path fill="#007BB0" d="M213.13 218.71h-.75v180.23h.75z"/><path fill="#007CB1" d="M213.88 218.71h-.75v180.23h.75z"/><path fill="#007DB3" d="M214.63 218.71h-.75v180.23h.75z"/><path fill="#007EB4" d="M215.38 218.71h-.75v180.23h.75z"/><path fill="#007FB5" d="M216.13 218.71h-.75v180.23h.75z"/><path fill="#007FB6" d="M216.88 218.71h-.75v180.23h.75z"/><path fill="#0080B7" d="M217.62 218.71h-.75v180.23h.75z"/><path fill="#0081B8" d="M218.37 218.71h-.75v180.23h.75z"/><path fill="#0082B9" d="M219.12 218.71h-.75v180.23h.75z"/><path fill="#0082BA" d="M219.87 218.71h-.75v180.23h.75z"/><path fill="#0083BB" d="M220.62 218.71h-.75v180.23h.75z"/><path fill="#0084BC" d="M221.37 218.71h-.75v180.23h.75z"/><path fill="#0085BD" d="M222.12 218.71h-.75v180.23h.75z"/><path fill="#0086BE" d="M222.87 218.71h-.75v180.23h.75z"/><path fill="#0086C0" d="M223.609 218.71h-.75v180.23h.75z"/><path fill="#0087C1" d="M224.359 218.71h-.75v180.23h.75z"/><path fill="#0088C2" d="M225.109 218.71h-.75v180.23h.75z"/><path fill="#0089C3" d="M225.859 218.71h-.75v180.23h.75z"/><path fill="#0089C4" d="M226.609 218.71h-.75v180.23h.75z"/><path fill="#008AC5" d="M227.359 218.71h-.75v180.23h.75z"/><path fill="#008BC6" d="M228.109 218.71h-.75v180.23h.75z"/><path fill="#008CC7" d="M228.85 218.71h-.75v180.23h.75z"/><path fill="#008CC8" d="M229.6 218.71h-.75v180.23h.75z"/><path fill="#008DC9" d="M230.35 218.71h-.75v180.23h.75z"/><path fill="#008ECA" d="M231.1 218.71h-.75v180.23h.75z"/><path fill="#008FCB" d="M231.85 218.71h-.75v180.23h.75z"/><path fill="#008FCC" d="M232.6 218.71h-.75v180.23h.75z"/><path fill="#0090CD" d="M233.35 218.71h-.75v180.23h.75z"/><path fill="#0091CE" d="M234.09 218.71h-.75v180.23h.75z"/><path fill="#0091CF" d="M234.84 218.71h-.75v180.23h.75z"/><path fill="#0092D0" d="M235.59 218.71h-.75v180.23h.75z"/><path fill="#0093D1" d="M236.34 218.71h-.75v180.23h.75z"/><path fill="#0094D2" d="M237.09 218.71h-.75v180.23h.75z"/><path fill="#0094D3" d="M237.84 218.71h-.75v180.23h.75z"/><path fill="#0095D4" d="M238.59 218.71h-.75v180.23h.75z"/><path fill="#0096D5" d="M239.33 218.71h-.75v180.23h.75z"/><path fill="#0096D6" d="M240.08 218.71h-.75v180.23h.75z"/><path fill="#0097D7" d="M240.83 218.71h-.75v180.23h.75z"/><path fill="#0098D8" d="M241.58 218.71h-.75v180.23h.75z"/><path fill="#0098D9" d="M242.33 218.71h-.75v180.23h.75z"/><path fill="#0099D9" d="M243.08 218.71h-.75v180.23h.75z"/><path fill="#0099DA" d="M243.83 218.71h-.75v180.23h.75z"/><path fill="#009ADB" d="M244.569 218.71h-.75v180.23h.75zm.75 0h-.75v180.23h.75z"/><path fill="#019BDC" d="M246.08 218.71h-.75v180.23h.75z"/><path fill="#029CDD" d="M246.83 218.71h-.75v180.23h.75z"/><path fill="#039DDD" d="M247.59 218.71h-.75v180.23h.75z"/><path fill="#049DDE" d="M248.34 218.71h-.75v180.23h.75z"/><path fill="#059EDF" d="M249.09 218.71h-.75v180.23h.75z"/><path fill="#069FE0" d="M249.85 218.71h-.75v180.23h.75z"/><path fill="#07A0E1" d="M250.6 218.71h-.75v180.23h.75z"/><path fill="#08A1E1" d="M251.359 218.71h-.75v180.23h.75z"/><path fill="#09A2E2" d="M252.109 218.71h-.75v180.23h.75z"/><path fill="#0AA3E3" d="M252.87 218.71h-.75v180.23h.75z"/><path fill="#0BA3E4" d="M253.62 218.71h-.75v180.23h.75z"/><path fill="#0CA4E5" d="M254.38 218.71h-.75v180.23h.75z"/><path fill="#0DA5E5" d="M255.13 218.71h-.75v180.23h.75z"/><path fill="#0EA6E6" d="M255.88 218.71h-.75v180.23h.75z"/><path fill="#0FA7E7" d="M256.64 218.71h-.75v180.23h.75z"/><path fill="#10A8E8" d="M257.39 218.71h-.75v180.23h.75z"/><path fill="#12A8E9" d="M258.149 218.71h-.75v180.23h.75z"/><path fill="#13A9EA" d="M258.899 218.71h-.75v180.23h.75z"/><path fill="#14AAEA" d="M259.659 218.71h-.75v180.23h.75z"/><path fill="#15ABEB" d="M260.409 218.71h-.75v180.23h.75z"/><path fill="#16ACEC" d="M261.159 218.71h-.75v180.23h.75z"/><path fill="#17ADED" d="M261.92 218.71h-.75v180.23h.75z"/><path fill="#18AEEE" d="M262.67 218.71h-.75v180.23h.75z"/><path fill="#19AEEE" d="M263.43 218.71h-.75v180.23h.75z"/><path fill="#1AAFEF" d="M264.18 218.71h-.75v180.23h.75z"/><path fill="#1BB0F0" d="M264.939 218.71h-.75v180.23h.75z"/><path fill="#1CB1F1" d="M265.689 218.71h-.75v180.23h.75z"/><path fill="#1DB2F2" d="M266.449 218.71h-.75v180.23h.75z"/><path fill="#1EB3F2" d="M267.199 218.71h-.75v180.23h.75z"/><path fill="#1FB3F3" d="M267.949 218.71h-.75v180.23h.75z"/><path fill="#20B4F4" d="M268.71 218.71h-.75v180.23h.75z"/><path fill="#21B5F5" d="M269.46 218.71h-.75v180.23h.75z"/><path fill="#22B6F6" d="M270.22 218.71h-.75v180.23h.75z"/><path fill="#23B7F6" d="M270.97 218.71h-.75v180.23h.75z"/><path fill="#24B8F7" d="M271.729 218.71h-.75v180.23h.75z"/><path fill="#25B9F8" d="M272.479 218.71h-.75v180.23h.75z"/><path fill="#26B9F9" d="M273.229 218.71h-.75v180.23h.75z"/><path fill="#27BAFA" d="M273.989 218.71h-.75v180.23h.75z"/><path fill="#28BBFA" d="M274.739 218.71h-.75v180.23h.75z"/><path fill="#29BCFB" d="M275.5 218.71h-.75v180.23h.75z"/><path fill="#2ABDFC" d="M276.25 218.71h-.75v180.23h.75z"/><path fill="#2BBEFD" d="M277.01 218.71h-.75v180.23h.75z"/><path fill="#2CBEFD" d="M277.76 218.71h-.75v180.23h.75z"/><path fill="#2DBFFE" d="M278.52 218.71h-.75v180.23h.75z"/><path fill="#2EC0FF" d="M279.27 218.71h-.75v180.23h.75zm.41 0h-.41v180.23h.41z"/><path fill="#2FC0FF" d="M280.099 218.71h-.41v180.23h.41z"/><path fill="#30C1FF" d="M280.51 218.71h-.41v180.23h.41z"/><path fill="#31C1FF" d="M280.92 218.71h-.41v180.23h.41z"/><path fill="#32C1FF" d="M281.34 218.71h-.41v180.23h.41z"/><path fill="#33C2FF" d="M281.75 218.71h-.41v180.23h.41z"/><path fill="#35C2FF" d="M282.16 218.71h-.41v180.23h.41z"/><path fill="#36C2FF" d="M282.569 218.71h-.41v180.23h.41z"/><path fill="#37C3FF" d="M282.99 218.71h-.41v180.23h.41z"/><path fill="#38C3FF" d="M283.399 218.71h-.41v180.23h.41z"/><path fill="#39C3FF" d="M283.809 218.71h-.41v180.23h.41z"/><path fill="#3AC4FF" d="M284.229 218.71h-.41v180.23h.41z"/><path fill="#3BC4FF" d="M284.639 218.71h-.41v180.23h.41z"/><path fill="#3CC4FF" d="M285.05 218.71h-.41v180.23h.41z"/><path fill="#3DC5FF" d="M285.46 218.71h-.41v180.23h.41z"/><path fill="#3EC5FF" d="M285.88 218.71h-.41v180.23h.41z"/><path fill="#3FC5FF" d="M286.29 218.71h-.41v180.23h.41z"/><path fill="#40C6FF" d="M286.7 218.71h-.41v180.23h.41z"/><path fill="#42C6FF" d="M287.12 218.71h-.41v180.23h.41z"/><path fill="#43C6FF" d="M287.53 218.71h-.41v180.23h.41z"/><path fill="#44C6FF" d="M287.939 218.71h-.41v180.23h.41z"/><path fill="#45C7FF" d="M288.349 218.71h-.41v180.23h.41z"/><path fill="#46C7FF" d="M288.769 218.71h-.41v180.23h.41z"/><path fill="#47C7FF" d="M289.18 218.71h-.41v180.23h.41z"/><path fill="#48C8FF" d="M289.59 218.71h-.41v180.23h.41z"/><path fill="#49C8FF" d="M290.01 218.71h-.41v180.23h.41z"/><path fill="#4AC8FF" d="M290.42 218.71h-.41v180.23h.41z"/><path fill="#4BC9FF" d="M290.83 218.71h-.41v180.23h.41z"/><path fill="#4CC9FF" d="M291.24 218.71h-.41v180.23h.41z"/><path fill="#4DC9FF" d="M291.66 218.71h-.41v180.23h.41z"/><path fill="#4ECAFF" d="M292.069 218.71h-.41v180.23h.41z"/></g></g><defs><linearGradient id="b" x1="141.77" x2="141.77" y1="219.11" y2="42.81" gradientUnits="userSpaceOnUse"><stop stop-color="#0079AD"/><stop offset=".02" stop-color="#0082BA"/><stop offset=".06" stop-color="#009ADB"/><stop offset=".12" stop-color="#2EC0FF"/><stop offset=".17" stop-color="#6BD2FF"/><stop offset=".2" stop-color="#8FDDFF"/><stop offset=".28" stop-color="#EBF9FF"/><stop offset=".31" stop-color="#D6F7F4"/><stop offset=".38" stop-color="#9BF3D5"/><stop offset=".41" stop-color="#89EECC"/><stop offset=".47" stop-color="#5BE3B6"/><stop offset=".51" stop-color="#34DAA3"/><stop offset=".61" stop-color="#2BC08E"/><stop offset=".74" stop-color="#219770"/><stop offset=".82" stop-color="#1E8664"/><stop offset=".95" stop-color="#1D8160"/></linearGradient><clipPath id="a"><path fill="#fff" d="M0 0h292v260H0z"/></clipPath></defs></svg>