<svg xmlns="http://www.w3.org/2000/svg" width="450" height="260" fill="none"><path fill="#fff" d="M.5 4A3.5 3.5 0 0 1 4 .5h442a3.5 3.5 0 0 1 3.5 3.5v252a3.5 3.5 0 0 1-3.5 3.5H4A3.5 3.5 0 0 1 .5 256z"/><path stroke="#CBD4D8" d="M.5 4A3.5 3.5 0 0 1 4 .5h442a3.5 3.5 0 0 1 3.5 3.5v252a3.5 3.5 0 0 1-3.5 3.5H4A3.5 3.5 0 0 1 .5 256z"/><path fill="#66D1FF" d="M129.84 48.51H36.58v34.04h93.26z"/><path fill="#22343C" d="M130.34 83.05H36.08V48.01h94.26zm-93.26-1h92.26V49.01H37.08z"/><path fill="#BDEBFF" d="M129.84 82.55H36.58v34.04h93.26z"/><path fill="#22343C" d="M130.34 117.09H36.08V82.05h94.26zm-93.26-1h92.26V83.05H37.08z"/><path fill="#009ADB" d="M129.84 116.52H36.58v34.04h93.26z"/><path fill="#22343C" d="M130.34 151.06H36.08v-35.04h94.26zm-93.26-1h92.26v-33.04H37.08z"/><path fill="#00ABF5" d="M129.84 150.5H36.58v34.04h93.26z"/><path fill="#22343C" d="M130.34 185.03H36.08v-35.04h94.26zm-93.26-1h92.26v-33.04H37.08z"/><path fill="#00608A" d="M129.84 184.47H36.58v34.04h93.26z"/><path fill="#22343C" d="M130.34 219.01H36.08v-35.04h94.26zm-93.26-1h92.26v-33.04H37.08z"/><path fill="#00608A" d="M223.42 48.51h-93.26v34.04h93.26z"/><path fill="#22343C" d="M223.92 83.05h-94.26V48.01h94.26zm-93.26-1h92.26V49.01h-92.26z"/><path fill="#0079AD" d="M223.42 82.55h-93.26v34.04h93.26z"/><path fill="#22343C" d="M223.92 117.09h-94.26V82.05h94.26zm-93.26-1h92.26V83.05h-92.26z"/><path fill="#66D1FF" d="M223.42 116.52h-93.26v34.04h93.26z"/><path fill="#22343C" d="M223.92 151.06h-94.26v-35.04h94.26zm-93.26-1h92.26v-33.04h-92.26z"/><path fill="#0079AD" d="M223.42 150.5h-93.26v34.04h93.26z"/><path fill="#22343C" d="M223.92 185.03h-94.26v-35.04h94.26zm-93.26-1h92.26v-33.04h-92.26z"/><path fill="#2EC0FF" d="M223.42 184.47h-93.26v34.04h93.26z"/><path fill="#22343C" d="M223.92 219.01h-94.26v-35.04h94.26zm-93.26-1h92.26v-33.04h-92.26z"/><path fill="#00ABF5" d="M317 48.51h-93.26v34.04H317z"/><path fill="#22343C" d="M317.5 83.05h-94.26V48.01h94.26zm-93.26-1h92.26V49.01h-92.26z"/><path fill="#009ADB" d="M317 82.55h-93.26v34.04H317z"/><path fill="#22343C" d="M317.5 117.09h-94.26V82.05h94.26zm-93.26-1h92.26V83.05h-92.26z"/><path fill="#0079AD" d="M317 116.52h-93.26v34.04H317z"/><path fill="#22343C" d="M317.5 151.06h-94.26v-35.04h94.26zm-93.26-1h92.26v-33.04h-92.26z"/><path fill="#2EC0FF" d="M317 150.5h-93.26v34.04H317z"/><path fill="#22343C" d="M317.5 185.03h-94.26v-35.04h94.26zm-93.26-1h92.26v-33.04h-92.26z"/><path fill="#66D1FF" d="M317 184.47h-93.26v34.04H317z"/><path fill="#22343C" d="M317.5 219.01h-94.26v-35.04h94.26zm-93.26-1h92.26v-33.04h-92.26z"/><path fill="#00608A" d="M410.58 48.51h-93.26v34.04h93.26z"/><path fill="#22343C" d="M411.08 83.05h-94.26V48.01h94.26zm-93.26-1h92.26V49.01h-92.26z"/><path fill="#00ABF5" d="M410.58 82.55h-93.26v34.04h93.26z"/><path fill="#22343C" d="M411.08 117.09h-94.26V82.05h94.26zm-93.26-1h92.26V83.05h-92.26z"/><path fill="#66D1FF" d="M410.58 116.52h-93.26v34.04h93.26z"/><path fill="#22343C" d="M411.08 151.06h-94.26v-35.04h94.26zm-93.26-1h92.26v-33.04h-92.26z"/><path fill="#8FDDFF" d="M410.58 150.5h-93.26v34.04h93.26z"/><path fill="#22343C" d="M411.08 185.03h-94.26v-35.04h94.26zm-93.26-1h92.26v-33.04h-92.26z"/><path fill="#009ADB" d="M410.58 184.47h-93.26v34.04h93.26z"/><path fill="#22343C" d="M411.08 219.01h-94.26v-35.04h94.26zm-93.26-1h92.26v-33.04h-92.26z"/><mask id="a" width="85" height="85" x="275" y="11" maskUnits="userSpaceOnUse" style="mask-type:luminance"><path fill="#fff" d="M317.32 95.03c23.196 0 42-18.804 42-42s-18.804-42-42-42-42 18.804-42 42 18.804 42 42 42"/></mask><g mask="url(#a)"><path fill="#00ABF5" d="M317.231 25.65h-107.14v45.84h107.14z"/><path fill="#22343C" d="M317.731 72h-108.14V25.15h108.14zm-107.14-1h106.14V26.15h-106.14z"/><path fill="#22343C" d="M317.981 72.24h-108.63V24.91h108.63zm-107.14-1.49h105.65V26.4h-105.65v44.36z"/><path fill="#009ADB" d="M317.231 71.5h-107.14v45.84h107.14z"/><path fill="#22343C" d="M317.731 117.84h-108.14V71h108.14zm-107.14-1h106.14V72h-106.14z"/><path fill="#22343C" d="M317.981 118.08h-108.63V70.75h108.63zm-107.14-1.49h105.65V72.24h-105.65z"/><path fill="#00608A" d="M424.741 25.65h-107.14v45.84h107.14z"/><path fill="#22343C" d="M425.241 72h-108.14V25.15h108.14zm-107.14-1h106.14V26.15h-106.14z"/><path fill="#22343C" d="M425.481 72.24h-108.63V24.91h108.63zm-107.14-1.49h105.65V26.4h-105.65v44.36z"/><path fill="#00ABF5" d="M424.741 71.5h-107.14v45.84h107.14z"/><path fill="#22343C" d="M425.241 117.84h-108.14V71h108.14zm-107.14-1h106.14V72h-106.14z"/><path fill="#22343C" d="M425.481 118.08h-108.63V70.75h108.63zm-107.14-1.49h105.65V72.24h-105.65z"/></g><path fill="#22343C" d="M317.32 96.03c-23.71 0-43-19.29-43-43s19.29-43 43-43 43 19.29 43 43-19.29 43-43 43m0-84c-22.61 0-41 18.39-41 41s18.39 41 41 41 41-18.39 41-41-18.39-41-41-41"/><path fill="#fff" d="M317.42 9.95c23.71 0 43 19.29 43 43s-19.29 43-43 43-43-19.29-43-43 19.29-43 43-43m0-2c-24.81 0-45 20.19-45 45s20.19 45 45 45 45-20.19 45-45-20.19-45-45-45"/></svg>