<svg xmlns="http://www.w3.org/2000/svg" width="450" height="260" fill="none"><path fill="#fff" d="M.5 4A3.5 3.5 0 0 1 4 .5h442a3.5 3.5 0 0 1 3.5 3.5v252a3.5 3.5 0 0 1-3.5 3.5H4A3.5 3.5 0 0 1 .5 256z"/><path stroke="#CBD4D8" d="M.5 4A3.5 3.5 0 0 1 4 .5h442a3.5 3.5 0 0 1 3.5 3.5v252a3.5 3.5 0 0 1-3.5 3.5H4A3.5 3.5 0 0 1 .5 256z"/><path fill="#67777E" d="M78.44 179.72H53.29v30.76h25.15z"/><path fill="#fff" d="M78.43 210.97H53.28c-.28 0-.5-.22-.5-.5v-30.75c0-.28.22-.5.5-.5h25.15c.28 0 .5.22.5.5v30.75c0 .28-.22.5-.5.5m-24.65-1h24.15v-29.75H53.78z"/><path fill="#939CA5" d="M78.44 129.98H53.29v49.5h25.15z"/><path fill="#fff" d="M78.93 179.98H52.78v-50.5h26.15zm-25.15-1h24.15v-48.5H53.78z"/><path fill="#67777E" d="M122.51 158.01H97.36v52.46h25.15z"/><path fill="#fff" d="M122.51 210.97H97.36c-.28 0-.5-.22-.5-.5v-52.46c0-.28.22-.5.5-.5h25.15c.28 0 .5.22.5.5v52.46c0 .28-.22.5-.5.5m-24.65-1h24.15v-51.46H97.86z"/><path fill="#939CA5" d="M122.51 109.17H97.36v48.59h25.15z"/><path fill="#fff" d="M123.01 158.27H96.86v-49.59h26.15zm-25.15-1h24.15v-47.59H97.86z"/><path fill="#67777E" d="M166.59 178.36h-25.15v32.11h25.15z"/><path fill="#fff" d="M166.59 210.97h-25.15c-.28 0-.5-.22-.5-.5v-32.11c0-.28.22-.5.5-.5h25.15c.28 0 .5.22.5.5v32.11c0 .28-.22.5-.5.5m-24.65-1h24.15v-31.11h-24.15z"/><path fill="#939CA5" d="M166.59 150.33h-25.15v27.79h25.15z"/><path fill="#fff" d="M166.59 178.62h-25.15c-.28 0-.5-.22-.5-.5v-27.79c0-.28.22-.5.5-.5h25.15c.28 0 .5.22.5.5v27.79c0 .28-.22.5-.5.5m-24.65-1h24.15v-26.79h-24.15z"/><path fill="#67777E" d="M210.67 173.84h-25.15v36.63h25.15z"/><path fill="#fff" d="M210.67 210.97h-25.15c-.28 0-.5-.22-.5-.5v-36.63c0-.28.22-.5.5-.5h25.15c.28 0 .5.22.5.5v36.63c0 .28-.22.5-.5.5m-24.65-1h24.15v-35.63h-24.15z"/><path fill="#939CA5" d="M210.67 80.23h-25.15v93.36h25.15z"/><path fill="#fff" d="M210.67 174.1h-25.15c-.28 0-.5-.22-.5-.5V80.24c0-.28.22-.5.5-.5h25.15c.28 0 .5.22.5.5v93.36c0 .28-.22.5-.5.5m-24.65-1h24.15V80.74h-24.15z"/><path fill="#67777E" d="M254.75 158.01H229.6v52.46h25.15z"/><path fill="#fff" d="M254.75 210.97H229.6c-.28 0-.5-.22-.5-.5v-52.46c0-.28.22-.5.5-.5h25.15c.28 0 .5.22.5.5v52.46c0 .28-.22.5-.5.5m-24.65-1h24.15v-51.46H230.1z"/><path fill="#939CA5" d="M254.75 129.98H229.6v27.79h25.15z"/><path fill="#fff" d="M254.75 158.27H229.6c-.28 0-.5-.22-.5-.5v-27.79c0-.28.22-.5.5-.5h25.15c.28 0 .5.22.5.5v27.79c0 .28-.22.5-.5.5m-24.65-1h24.15v-26.79H230.1z"/><path fill="#495A67" d="M266.44 211.37H37.9c-.55 0-1-.45-1-1V77.71c0-.55.45-1 1-1s1 .45 1 1v131.66h227.54c.55 0 1 .45 1 1s-.45 1-1 1"/><path fill="#F1F6F8" stroke="#22343C" stroke-miterlimit="10" d="M411.38 27.85H187.47a3.95 3.95 0 0 0-3.95 3.95v196.4a3.95 3.95 0 0 0 3.95 3.95h223.91a3.95 3.95 0 0 0 3.95-3.95V31.8a3.95 3.95 0 0 0-3.95-3.95Z"/><path fill="#000" d="m286.267 52.37.716 1.353a3.3 3.3 0 0 1-2.05.736c-1.592 0-2.706-1.154-2.706-2.806v-6.05h-1.552v-1.671h1.552v-2.826h1.93v2.826h2.428v1.671h-2.428v5.91c0 .717.478 1.235 1.055 1.235.438 0 .836-.16 1.055-.379m-11.006 2.09c-1.512 0-3.164-.538-4.398-1.533l.936-1.412c1.094.796 2.268 1.253 3.482 1.253 1.154 0 1.95-.537 1.95-1.333 0-.955-1.054-1.254-2.328-1.612-2.368-.657-3.542-1.333-3.542-3.005-.02-1.89 1.552-3.124 3.741-3.124 1.333 0 2.686.458 3.801 1.194l-.876 1.453c-.995-.617-2.03-.956-2.925-.956-1.015 0-1.811.438-1.811 1.214 0 .796.637 1.035 2.368 1.572 1.692.498 3.503 1.055 3.503 3.105 0 1.95-1.652 3.184-3.901 3.184m-10.868-10.766c2.766 0 4.298 1.751 4.298 4.298v6.229h-1.93v-1.413c-.756 1.075-2.169 1.652-3.423 1.652-2.189 0-3.801-1.274-3.801-3.284 0-2.05 1.851-3.422 4.119-3.422 1.015 0 2.11.218 3.105.557v-.319c0-1.293-.597-2.666-2.647-2.666-1.015 0-2.01.398-2.905.855l-.717-1.452c1.473-.737 2.766-1.035 3.901-1.035m-.677 9.214c1.274 0 2.707-.637 3.045-1.91v-1.374a9.6 9.6 0 0 0-2.806-.398c-1.373 0-2.527.776-2.527 1.89 0 1.115.995 1.792 2.288 1.792m-9.385-7.005c.657-1.353 2.05-2.21 3.821-2.21v1.712c-2.129 0-3.641 1.174-3.821 2.965v5.851h-1.97V43.932h1.97zm-4.794 6.468.717 1.353a3.3 3.3 0 0 1-2.05.736c-1.592 0-2.706-1.154-2.706-2.806v-6.05h-1.553v-1.671h1.553v-2.826h1.93v2.826h2.428v1.671h-2.428v5.91c0 .717.477 1.235 1.055 1.235.437 0 .835-.16 1.054-.379m-11.495-8.676c2.269 0 3.861 1.652 3.861 3.98v6.547h-1.93v-6.209c0-1.532-.976-2.607-2.369-2.607-1.432 0-2.666.936-2.825 2.15v6.666h-1.97V43.932h1.97v1.492c.617-1.015 1.87-1.731 3.263-1.731M225.11 54.459c-2.945 0-5.432-2.468-5.432-5.393s2.487-5.373 5.432-5.373c2.926 0 5.393 2.448 5.393 5.373s-2.467 5.393-5.393 5.393m0-1.712c1.851 0 3.423-1.671 3.423-3.681 0-1.99-1.572-3.662-3.423-3.662-1.89 0-3.462 1.672-3.462 3.662 0 2.01 1.572 3.681 3.462 3.681m-11.871 1.712c-3.841 0-7.104-3.244-7.104-7.084 0-3.841 3.263-7.065 7.104-7.065a7 7 0 0 1 5.035 2.15l-1.413 1.352c-.916-.994-2.209-1.651-3.622-1.651-2.726 0-5.035 2.388-5.035 5.214 0 2.845 2.309 5.233 5.035 5.233 1.413 0 2.706-.656 3.622-1.651l1.413 1.353c-1.294 1.313-3.085 2.149-5.035 2.149"/><path fill="#E02200" d="M347.761 212.559c-2.348 0-4.338-.796-5.851-2.209l1.433-1.771c1.254 1.134 2.706 1.851 4.497 1.851 1.692 0 2.567-.836 2.567-1.811 0-1.134-.975-1.513-3.164-2.03-2.825-.657-4.796-1.473-4.796-4.04 0-2.388 2.03-4.139 4.916-4.139 2.169 0 3.801.736 5.174 1.911l-1.353 1.83c-1.194-1.034-2.568-1.612-3.921-1.612-1.373 0-2.308.836-2.308 1.791 0 1.115 1.015 1.513 3.184 2.01 2.846.637 4.756 1.553 4.756 4.04 0 2.448-1.871 4.179-5.134 4.179m-12.457 0c-2.348 0-4.338-.796-5.851-2.209l1.433-1.771c1.254 1.134 2.706 1.851 4.497 1.851 1.692 0 2.567-.836 2.567-1.811 0-1.134-.975-1.513-3.164-2.03-2.825-.657-4.796-1.473-4.796-4.04 0-2.388 2.03-4.139 4.916-4.139 2.169 0 3.801.736 5.174 1.911l-1.353 1.83c-1.194-1.034-2.568-1.612-3.921-1.612-1.373 0-2.308.836-2.308 1.791 0 1.115 1.015 1.513 3.184 2.01 2.846.637 4.756 1.553 4.756 4.04 0 2.448-1.871 4.179-5.134 4.179m-9.611-.219-1.034-2.467h-6.607l-1.035 2.467h-2.766l5.711-13.671h2.766l5.712 13.671zm-6.746-4.617h4.816l-2.408-5.751zm-16.682 4.617v-13.671h5.95c2.925 0 5.114 1.871 5.114 4.537s-2.189 4.537-5.114 4.537h-3.463v4.597zm2.487-6.885h3.184c1.692 0 2.866-.856 2.866-2.249s-1.174-2.249-2.866-2.249h-3.184zm-17.093 6.885v-11.402h-4.378v-2.269h11.224v2.269h-4.378v11.402zm-8.163-7.96-.955-.716c.597-.597.995-1.234 1.154-1.871-.836 0-1.512-.716-1.512-1.572 0-.836.696-1.552 1.552-1.552 1.015 0 1.671.915 1.671 2.169 0 1.075-.577 2.109-1.91 3.542m-16.347 7.96v-13.671h2.488l7.224 9.612v-9.612h2.467v13.671h-2.467l-7.224-9.611v9.611zm-7.582.219c-2.348 0-4.338-.796-5.85-2.209l1.433-1.771c1.253 1.134 2.706 1.851 4.497 1.851 1.691 0 2.567-.836 2.567-1.811 0-1.134-.975-1.513-3.164-2.03-2.826-.657-4.796-1.473-4.796-4.04 0-2.388 2.03-4.139 4.915-4.139 2.169 0 3.801.736 5.174 1.911l-1.353 1.83c-1.194-1.034-2.567-1.612-3.92-1.612-1.373 0-2.309.836-2.309 1.791 0 1.115 1.015 1.513 3.184 2.01 2.846.637 4.757 1.553 4.757 4.04 0 2.448-1.871 4.179-5.135 4.179m-7.436-11.621h-7.801v3.303h7.065v2.269h-7.065v3.562h7.801v2.268h-10.288v-13.671h10.288zm-19.732 11.641c-3.901 0-7.184-3.244-7.184-7.084 0-3.841 3.283-7.065 7.184-7.065 3.88 0 7.164 3.224 7.164 7.065 0 3.84-3.284 7.084-7.164 7.084m0-2.269c2.507 0 4.617-2.189 4.617-4.815 0-2.607-2.11-4.796-4.617-4.796-2.528 0-4.657 2.189-4.657 4.796 0 2.626 2.129 4.815 4.657 4.815m-21.627 2.03v-13.671h4.816c4.518 0 7.702 2.826 7.702 6.826s-3.184 6.845-7.702 6.845zm2.488-2.248h2.587c2.885 0 4.915-1.911 4.915-4.597s-2.03-4.577-4.915-4.577h-2.587z"/><path fill="#000" d="M317.995 176.75v-23.892l-5.192 3.3-2.244-3.872 8.492-5.764h4.4v30.228zm-14.228-16.148c-2.024 0-3.52-1.584-3.52-3.52 0-1.804 1.496-3.388 3.52-3.388 1.848 0 3.388 1.584 3.388 3.388 0 1.936-1.54 3.52-3.388 3.52m0 16.676c-2.024 0-3.52-1.584-3.52-3.52 0-1.804 1.496-3.388 3.52-3.388 1.848 0 3.388 1.584 3.388 3.388 0 1.936-1.54 3.52-3.388 3.52m-19.807 0c-6.556 0-11.748-3.212-11.748-8.58 0-3.652 2.64-6.292 6.16-7.568-3.124-1.32-5.368-3.564-5.368-6.996 0-5.192 5.28-8.14 10.956-8.14 5.852 0 11 3.036 11 8.14 0 3.52-2.332 5.764-5.368 6.996 3.564 1.364 6.16 4.004 6.16 7.568 0 5.412-5.28 8.58-11.792 8.58m0-18.128c2.596-.132 5.588-1.672 5.588-4.312 0-2.376-2.42-4.18-5.588-4.18s-5.544 1.804-5.544 4.18c0 2.684 3.036 4.18 5.544 4.312m0 13.42c3.52 0 6.248-1.76 6.248-4.4 0-2.816-3.432-4.488-6.248-4.62-2.772.132-6.248 1.804-6.248 4.62 0 2.64 2.684 4.4 6.248 4.4m-34.697 4.18 12.32-25.212h-15.444v-5.016h21.824v4.136l-12.496 26.092zm-11.367.528c-2.024 0-3.52-1.584-3.52-3.52 0-1.804 1.496-3.388 3.52-3.388 1.848 0 3.388 1.584 3.388 3.388 0 1.936-1.54 3.52-3.388 3.52m-30.736-.528v-4.488l11.132-8.888c3.828-3.08 5.192-5.368 5.192-7.832 0-2.86-2.42-4.62-5.148-4.62-3.168 0-5.456 1.628-7.656 4.268l-3.564-3.3c2.86-3.74 6.512-5.896 11.396-5.896 5.984 0 10.56 3.828 10.56 9.416 0 4.004-1.848 7.216-7.04 11.22l-6.336 5.104h13.684v5.016zm3.591-61.172h-.999l-.432 1.71h.999l-.171.675h-.99l-.396 1.557h-.72l.396-1.557h-1.251l-.396 1.557h-.711l.396-1.557h-.972l.171-.675h.963l.432-1.71h-.981l.171-.675h.981l.396-1.566h.711l-.396 1.566h1.251l.396-1.566h.72l-.396 1.566h.99zm-2.151 1.71.432-1.71h-1.251l-.432 1.71zm7.864-3.105h-3.627v1.8h3.276v.846h-3.276v2.691h-.918v-6.183h4.545zm5.555 0h-3.627v1.8h3.276v.846h-3.276v2.691h-.918v-6.183h4.545zm5.555 0h-3.627v1.8h3.276v.846h-3.276v2.691h-.918v-6.183h4.545zm5.554 0h-3.627v1.8h3.276v.846h-3.276v2.691h-.918v-6.183h4.545zm5.555 0h-3.627v1.8h3.276v.846h-3.276v2.691h-.918v-6.183h4.545zm5.555 0h-3.627v1.8h3.276v.846h-3.276v2.691h-.918v-6.183h4.545zm-38.275 16.137v-6.183h2.934c1.035 0 1.764.639 1.764 1.539 0 .648-.324 1.053-.882 1.368.72.351 1.134.909 1.134 1.593 0 .99-.792 1.683-1.899 1.683zm.909-3.609h1.8c.621 0 1.062-.369 1.062-.882s-.441-.891-1.062-.891h-1.8zm0 2.808h1.935c.693 0 1.179-.423 1.179-1.017s-.486-1.017-1.179-1.017h-1.935zm7.105-3.96c1.251 0 1.944.792 1.944 1.944v2.817h-.873v-.639c-.342.486-.981.747-1.548.747-.99 0-1.719-.576-1.719-1.485 0-.927.837-1.548 1.863-1.548.459 0 .954.099 1.404.252v-.144c0-.585-.27-1.206-1.197-1.206-.459 0-.909.18-1.314.387l-.324-.657c.666-.333 1.251-.468 1.764-.468m-.306 4.167c.576 0 1.224-.288 1.377-.864v-.621a4.3 4.3 0 0 0-1.269-.18c-.621 0-1.143.351-1.143.855s.45.81 1.035.81m5.735.702c-1.323 0-2.448-1.116-2.448-2.439s1.125-2.43 2.457-2.43c.666 0 1.269.279 1.71.72l-.603.558a1.5 1.5 0 0 0-1.116-.504c-.846 0-1.548.756-1.548 1.656 0 .909.702 1.665 1.557 1.665.432 0 .846-.198 1.134-.522l.603.549a2.42 2.42 0 0 1-1.746.747m6.929-4.761-2.007 2.106 1.917 2.547h-1.062l-1.458-1.953-.747.756v1.197h-.882v-6.291h.882v4.014l2.277-2.376zm4.273 0h.891v4.158c0 1.197-.981 2.043-2.358 2.043-.783 0-1.503-.261-1.944-.621l.351-.666c.342.324.9.513 1.458.513.999 0 1.602-.477 1.602-1.287v-.675c-.369.531-.945.846-1.647.846-1.224 0-2.115-.918-2.115-2.214s.891-2.205 2.115-2.205c.702 0 1.296.333 1.647.855zm-1.422 3.537c.828 0 1.422-.594 1.422-1.44 0-.837-.594-1.431-1.422-1.431s-1.413.594-1.413 1.431c0 .846.585 1.44 1.413 1.44m4.578-2.646c.297-.612.927-.999 1.728-.999v.774c-.963 0-1.647.531-1.728 1.341v2.646h-.891v-4.653h.891zm4.661 3.87c-1.332 0-2.457-1.116-2.457-2.439s1.125-2.43 2.457-2.43c1.323 0 2.439 1.107 2.439 2.43s-1.116 2.439-2.439 2.439m0-.774c.837 0 1.548-.756 1.548-1.665 0-.9-.711-1.656-1.548-1.656-.855 0-1.566.756-1.566 1.656 0 .909.711 1.665 1.566 1.665m6.686-3.987h.891v4.653h-.891v-.675c-.279.459-.846.783-1.476.783-1.026 0-1.746-.747-1.746-1.8v-2.961h.873v2.808c0 .693.441 1.179 1.071 1.179.648 0 1.206-.423 1.278-.972zm4.55-.108c1.026 0 1.746.747 1.746 1.8v2.961h-.873v-2.808c0-.693-.441-1.179-1.071-1.179-.648 0-1.206.423-1.278.972v3.015h-.891v-4.653h.891v.675c.279-.459.846-.783 1.476-.783m6.603-1.53h.882v6.291h-.882v-.81c-.36.576-.936.918-1.656.918-1.224 0-2.142-1.008-2.142-2.439 0-1.422.918-2.43 2.142-2.43a1.9 1.9 0 0 1 1.656.909zm-1.44 5.625c.837 0 1.44-.693 1.44-1.665s-.603-1.656-1.44-1.656c-.855 0-1.458.684-1.458 1.656s.603 1.665 1.458 1.665m8.43.774c-1.323 0-2.448-1.116-2.448-2.439s1.125-2.43 2.457-2.43c.666 0 1.269.279 1.71.72l-.603.558a1.5 1.5 0 0 0-1.116-.504c-.846 0-1.548.756-1.548 1.656 0 .909.702 1.665 1.557 1.665.432 0 .846-.198 1.134-.522l.603.549a2.42 2.42 0 0 1-1.746.747m4.808 0c-1.332 0-2.457-1.116-2.457-2.439s1.125-2.43 2.457-2.43c1.323 0 2.439 1.107 2.439 2.43s-1.116 2.439-2.439 2.439m0-.774c.837 0 1.548-.756 1.548-1.665 0-.9-.711-1.656-1.548-1.656-.855 0-1.566.756-1.566 1.656 0 .909.711 1.665 1.566 1.665m3.482.666v-6.291h.882v6.291zm4.384.108c-1.332 0-2.457-1.116-2.457-2.439s1.125-2.43 2.457-2.43c1.323 0 2.439 1.107 2.439 2.43s-1.116 2.439-2.439 2.439m0-.774c.837 0 1.548-.756 1.548-1.665 0-.9-.711-1.656-1.548-1.656-.855 0-1.566.756-1.566 1.656 0 .909.711 1.665 1.566 1.665m4.418-3.096c.297-.612.927-.999 1.728-.999v.774c-.963 0-1.647.531-1.728 1.341v2.646h-.891v-4.653h.891zm28.755-10.98h-.999l-.432 1.71h.999l-.171.675h-.99l-.396 1.557h-.72l.396-1.557h-1.251l-.396 1.557h-.711l.396-1.557h-.972l.171-.675h.963l.432-1.71h-.981l.171-.675h.981l.396-1.566h.711l-.396 1.566h1.251l.396-1.566h.72l-.396 1.566h.99zm-2.151 1.71.432-1.71h-1.251l-.432 1.71zm5.381-4.059c1.719 0 2.448 1.341 2.448 3.105 0 1.872-1.107 3.294-2.619 3.294-.756 0-1.323-.288-1.8-.711l.468-.702c.387.351.774.594 1.341.594.945 0 1.656-1.017 1.683-2.385-.378.513-.999.819-1.683.819-1.134 0-2.079-.711-2.079-1.935 0-1.188.936-2.079 2.241-2.079m.054 3.249c.684 0 1.233-.396 1.395-.999-.162-.882-.603-1.476-1.413-1.476-.837 0-1.341.639-1.341 1.26 0 .756.603 1.215 1.359 1.215m5.525 3.15c-1.053 0-1.854-.459-2.331-1.053l.585-.603c.414.504 1.017.837 1.728.837.801 0 1.314-.423 1.314-1.044 0-.639-.531-.972-1.458-.963h-.675v-.81l.675.009c.783 0 1.332-.342 1.332-.963 0-.576-.54-.99-1.26-.99-.648 0-1.125.324-1.557.828l-.567-.558c.477-.621 1.179-1.089 2.187-1.089 1.251 0 2.124.693 2.124 1.683 0 .765-.54 1.242-1.188 1.44.648.144 1.323.612 1.323 1.476 0 1.044-.891 1.8-2.232 1.8m5.425-6.399c1.719 0 2.448 1.341 2.448 3.105 0 1.872-1.107 3.294-2.619 3.294-.756 0-1.323-.288-1.8-.711l.468-.702c.387.351.774.594 1.341.594.945 0 1.656-1.017 1.683-2.385-.378.513-.999.819-1.683.819-1.134 0-2.079-.711-2.079-1.935 0-1.188.936-2.079 2.241-2.079m.054 3.249c.684 0 1.233-.396 1.395-.999-.162-.882-.603-1.476-1.413-1.476-.837 0-1.341.639-1.341 1.26 0 .756.603 1.215 1.359 1.215m6.524 3.15c-1.737 0-3.213-1.467-3.213-3.204s1.476-3.195 3.213-3.195a3.17 3.17 0 0 1 2.277.972l-.639.612c-.414-.45-.999-.747-1.638-.747-1.233 0-2.277 1.08-2.277 2.358 0 1.287 1.044 2.367 2.277 2.367.639 0 1.224-.297 1.638-.747l.639.612a3.2 3.2 0 0 1-2.277.972m8.06-.108-.54-1.26h-3.222l-.54 1.26h-1.008l2.655-6.183h1.008l2.655 6.183zm-3.411-2.079h2.52l-1.26-2.934zm7.343 2.187c-.981 0-1.719-.396-2.25-.972l.567-.648c.477.495 1.053.819 1.71.819.801 0 1.341-.54 1.341-1.233 0-.711-.549-1.188-1.35-1.188-.513 0-.954.171-1.323.45l-.639-.288.09-3.231h3.807v.846h-2.943l-.054 1.836a2.25 2.25 0 0 1 1.287-.396c1.107 0 2.043.702 2.043 1.935 0 1.251-.945 2.07-2.286 2.07m-37.592 10.692v-6.183h2.934c1.035 0 1.764.639 1.764 1.539 0 .648-.324 1.053-.882 1.368.72.351 1.134.909 1.134 1.593 0 .99-.792 1.683-1.899 1.683zm.909-3.609h1.8c.621 0 1.062-.369 1.062-.882s-.441-.891-1.062-.891h-1.8zm0 2.808h1.935c.693 0 1.179-.423 1.179-1.017s-.486-1.017-1.179-1.017h-1.935zm7.106-3.96c1.251 0 1.944.792 1.944 1.944v2.817h-.873v-.639c-.342.486-.981.747-1.548.747-.99 0-1.719-.576-1.719-1.485 0-.927.837-1.548 1.863-1.548.459 0 .954.099 1.404.252v-.144c0-.585-.27-1.206-1.197-1.206-.459 0-.909.18-1.314.387l-.324-.657c.666-.333 1.251-.468 1.764-.468m-.306 4.167c.576 0 1.224-.288 1.377-.864v-.621a4.3 4.3 0 0 0-1.269-.18c-.621 0-1.143.351-1.143.855s.45.81 1.035.81m4.474-3.168c.297-.612.927-.999 1.728-.999v.774c-.963 0-1.647.531-1.728 1.341v2.646h-.891v-4.653h.891zm7.369 3.87c-1.323 0-2.448-1.116-2.448-2.439s1.125-2.43 2.457-2.43c.666 0 1.269.279 1.71.72l-.603.558a1.5 1.5 0 0 0-1.116-.504c-.846 0-1.548.756-1.548 1.656 0 .909.702 1.665 1.557 1.665.432 0 .846-.198 1.134-.522l.603.549a2.42 2.42 0 0 1-1.746.747m4.807 0c-1.332 0-2.457-1.116-2.457-2.439s1.125-2.43 2.457-2.43c1.323 0 2.439 1.107 2.439 2.43s-1.116 2.439-2.439 2.439m0-.774c.837 0 1.548-.756 1.548-1.665 0-.9-.711-1.656-1.548-1.656-.855 0-1.566.756-1.566 1.656 0 .909.711 1.665 1.566 1.665m3.482.666v-6.291h.882v6.291zm4.385.108c-1.332 0-2.457-1.116-2.457-2.439s1.125-2.43 2.457-2.43c1.323 0 2.439 1.107 2.439 2.43s-1.116 2.439-2.439 2.439m0-.774c.837 0 1.548-.756 1.548-1.665 0-.9-.711-1.656-1.548-1.656-.855 0-1.566.756-1.566 1.656 0 .909.711 1.665 1.566 1.665m4.417-3.096c.297-.612.927-.999 1.728-.999v.774c-.963 0-1.647.531-1.728 1.341v2.646h-.891v-4.653h.891z"/><path fill="#fff" stroke="#22343C" stroke-miterlimit="10" d="M291.07 72.81h-81.89a4 4 0 0 0-4 4v26.64a4 4 0 0 0 4 4h81.89a4 4 0 0 0 4-4V76.81a4 4 0 0 0-4-4Z"/><path fill="#939CA5" stroke="#22343C" stroke-miterlimit="10" d="M389.42 72.81h-81.89a4 4 0 0 0-4 4v26.64a4 4 0 0 0 4 4h81.89a4 4 0 0 0 4-4V76.81a4 4 0 0 0-4-4Z"/></svg>