<svg xmlns="http://www.w3.org/2000/svg" fill="none" viewBox="0 0 928 192"><g clip-path="url(#prefix__clip0_13227_28315)"><mask id="a" width="928" height="192" x="0" y="0" maskUnits="userSpaceOnUse" style="mask-type:luminance"><path fill="#fff" d="M928 0H0v192h928z"/></mask><g fill="#F2F3F4" mask="url(#a)"><path d="M308 447.4V163.1L61.9 20.9l-246.2 142.2v284.3L61.8 589.6zm526.1-418V-97.1l-109.5-63.2L615-97.1V29.4l109.5 63.2z"/></g><path fill="#FFDDC4" d="M840.5 66.6v-6l-5.2-3-5.2 3v6l5.2 3z"/><path fill="#B2E0F4" d="M899.8 110a2 2 0 0 0-2.3-1.8v-.6a4.3 4.3 0 0 0-5-4.2 6.3 6.3 0 0 0-12.2 1.6q-.7-.3-1.4-.3a3.6 3.6 0 0 0 0 7.2h19q1.7-.2 1.9-2"/><path stroke="#495A67" stroke-miterlimit="10" stroke-width="2" d="M75.3 82.2V71l-9.6-5.5L56 71v11.2l9.7 5.5zM482 164.3v-7.9l-7-4-6.7 4v7.9l6.8 4z"/><path stroke="#495A67" stroke-linejoin="round" stroke-width="2" d="M291.5 132.4V56.9l-65.3-37.7L161 57v75.5l65.3 37.7zm340.6-59.1v-3l-39.3-22.8-39.4 22.8v45.4l39.4 22.7 39.3-22.7v-3.5"/><path fill="#B2E0F4" d="M366.2 56.7a6.5 6.5 0 0 0-8-6.3l.2-2a14.8 14.8 0 0 0-17.5-14.6 21.8 21.8 0 0 0-42.1 5.7 12.4 12.4 0 0 0-17.3 11.3c0 6.9 5.5 12.4 12.3 12.4h66c3.5 0 6.4-3 6.4-6.5m-183.1 76.7a3 3 0 0 0-3.7-3v-.9a7 7 0 0 0-8.3-6.9 10.3 10.3 0 0 0-20 2.7 5.9 5.9 0 1 0-2.3 11.2h31.3a3 3 0 0 0 3-3"/><path fill="#FF8F3D" d="m226.2 94.7-28.5 39.2a48.5 48.5 0 0 1 28.5-87.7z"/><path fill="#009ADB" d="m226.2 94.7 46 15a48.5 48.5 0 0 1-74.5 24.2z"/><path fill="#C8CDD1" d="m226.2 94.7 28.5-39.3a48 48 0 0 1 17.6 54.2z"/><path fill="#195F88" d="M226.2 94.7V46.2c10.7 0 19.8 3 28.5 9.2z"/><path stroke="#495A67" stroke-linecap="round" stroke-linejoin="round" stroke-width="2" d="M314.6 132h150.7"/><path fill="#009ADB" d="M346.8 84.9h-23.5v38h23.5z"/><path fill="#66C2E9" d="M346.8 49.5h-23.5v35.6h23.5z"/><path fill="#009ADB" d="M379.7 94.9h-23.5v28h23.5z"/><path fill="#66C2E9" d="M379.7 72.8h-23.5v22.3h23.5z"/><path fill="#009ADB" d="M412.6 109.3h-23.5V123h23.5z"/><path fill="#66C2E9" d="M412.6 88.4h-23.5v21h23.5z"/><path fill="#009ADB" d="M445.5 104.9H422v18h23.5z"/><path fill="#66C2E9" d="M445.5 100.6H422v4.4h23.5z"/><path fill="#C8CDD1" d="M444 57h54.6c3 0 5.4 2.5 5.4 5.4v18.2c0 3-2.4 5.4-5.4 5.4h-59.9V62.4c0-3 2.4-5.3 5.4-5.3"/><path fill="#C8CDD1" d="M438.7 93.5V81.3h12.2z"/><path stroke="#495A67" stroke-linecap="round" stroke-linejoin="round" stroke-width="2" d="M449 65.6h45.2M449 72.8h36"/><path fill="#B2E0F4" d="M595.2 76.8h-22V92h22z"/><path fill="#66C2E9" d="M619.6 76.8h-22V92h22z"/><path fill="#009ADB" d="M644.1 76.8h-22V92h22z"/><path fill="#1983B8" d="M668.7 76.8h-22V92h22z"/><path fill="#FFDDC4" d="M595 94.4h-22v15.2h22z"/><path fill="#FFBC8B" d="M619.6 94.4h-22v15.2h22z"/><path fill="#FF8F3D" d="M644.1 94.4h-22v15.2h22z"/><path fill="#E25F1E" d="M668.7 94.4h-22v15.2h22z"/></g></svg>