<svg xmlns="http://www.w3.org/2000/svg" width="450" height="260" fill="none"><path fill="#fff" d="M.5 4A3.5 3.5 0 0 1 4 .5h442a3.5 3.5 0 0 1 3.5 3.5v252a3.5 3.5 0 0 1-3.5 3.5H4A3.5 3.5 0 0 1 .5 256z"/><path stroke="#CBD4D8" d="M.5 4A3.5 3.5 0 0 1 4 .5h442a3.5 3.5 0 0 1 3.5 3.5v252a3.5 3.5 0 0 1-3.5 3.5H4A3.5 3.5 0 0 1 .5 256z"/><path fill="#7C12A5" d="M102.78 211.12H63.01v16.93h39.77z"/><path fill="#fff" d="M102.79 228.59H63.02c-.3 0-.54-.24-.54-.54v-16.93c0-.3.24-.54.54-.54h39.77c.3 0 .54.24.54.54v16.93c0 .3-.24.54-.54.54m-39.23-1.09h38.69v-15.85H63.56z"/><path fill="#009ADB" d="M102.78 155.34H63.01v55.56h39.77z"/><path fill="#fff" d="M102.79 211.44H63.02c-.3 0-.54-.24-.54-.54v-55.56c0-.3.24-.54.54-.54h39.77c.3 0 .54.24.54.54v55.56c0 .3-.24.54-.54.54m-39.23-1.09h38.69v-54.48H63.56z"/><path fill="#7C12A5" d="M172.5 178.49h-39.77v49.56h39.77z"/><path fill="#fff" d="M172.5 228.59h-39.77c-.3 0-.54-.24-.54-.54v-49.56c0-.3.24-.54.54-.54h39.77c.3 0 .54.24.54.54v49.56c0 .3-.24.54-.54.54m-39.23-1.09h38.69v-48.47h-38.69z"/><path fill="#009ADB" d="M172.5 136.55h-39.77v41.72h39.77z"/><path fill="#fff" d="M172.5 178.82h-39.77c-.3 0-.54-.24-.54-.54v-41.72c0-.3.24-.54.54-.54h39.77c.3 0 .54.24.54.54v41.72c0 .3-.24.54-.54.54m-39.23-1.09h38.69v-40.64h-38.69z"/><path fill="#7C12A5" d="M242.21 199.04h-39.77v29.01h39.77z"/><path fill="#fff" d="M242.21 228.59h-39.77c-.3 0-.54-.24-.54-.54v-29.01c0-.3.24-.54.54-.54h39.77c.3 0 .54.24.54.54v29.01c0 .3-.24.54-.54.54m-39.23-1.09h38.69v-27.92h-38.69z"/><path fill="#009ADB" d="M242.21 173.72h-39.77v25.1h39.77z"/><path fill="#fff" d="M242.21 199.37h-39.77c-.3 0-.54-.24-.54-.54v-25.1c0-.3.24-.54.54-.54h39.77c.3 0 .54.24.54.54v25.1c0 .3-.24.54-.54.54m-39.23-1.09h38.69v-24.02h-38.69z"/><path fill="#7C12A5" d="M311.92 194.96h-39.77v33.09h39.77z"/><path fill="#fff" d="M311.92 228.59h-39.77c-.3 0-.54-.24-.54-.54v-33.09c0-.3.24-.54.54-.54h39.77c.3 0 .54.24.54.54v33.09c0 .3-.24.54-.54.54m-39.23-1.09h38.69v-32.01h-38.69z"/><path fill="#009ADB" d="M311.92 110.41h-39.77v84.33h39.77z"/><path fill="#fff" d="M311.92 195.28h-39.77c-.3 0-.54-.24-.54-.54v-84.33c0-.3.24-.54.54-.54h39.77c.3 0 .54.24.54.54v84.33c0 .3-.24.54-.54.54m-39.23-1.09h38.69v-83.25h-38.69z"/><path fill="#7C12A5" d="M381.63 180.66h-39.77v47.39h39.77z"/><path fill="#fff" d="M381.64 228.59h-39.77c-.3 0-.54-.24-.54-.54v-47.39c0-.3.24-.54.54-.54h39.77c.3 0 .54.24.54.54v47.39c0 .3-.24.54-.54.54m-39.23-1.09h38.69v-46.3h-38.69z"/><path fill="#009ADB" d="M381.63 155.34h-39.77v25.1h39.77z"/><path fill="#fff" d="M381.64 180.99h-39.77c-.3 0-.54-.24-.54-.54v-25.1c0-.3.24-.54.54-.54h39.77c.3 0 .54.24.54.54v25.1c0 .3-.24.54-.54.54m-39.23-1.09h38.69v-24.02h-38.69z"/><path fill="#009ADB" d="M396.89 136.27c-.54 0-1.52-.78-4.84-3.44-2.54-2.03-6.15-4.94-10.48-8.44-8.66-7-20.18-16.35-31.69-25.71-21.29-17.31-42.56-34.64-45.64-37.15l-48.97 8.16c-26.64 14.23-95.46 51.12-98.79 53.59-.11.13-.25.24-.41.3-.97.4-1.07.44-30.37-28.79-12.74-12.7-25.56-25.58-28.21-28.25C75.2 75.15 42.11 88.1 39.95 89.38c-.36.31-.9.36-1.31.08-.5-.33-.63-1.01-.3-1.5.26-.39.8-1.21 59.03-23.69.4-.16.86-.06 1.16.25 21.07 21.18 52.54 52.62 57.16 56.72 1.59-1.08 5.48-3.23 14.97-8.43 8.24-4.51 19.72-10.73 34.13-18.5 24.53-13.21 49.39-26.49 49.63-26.62.1-.06.22-.09.33-.11l49.63-8.27c.31-.05.62.03.86.23 30.71 25.03 89.01 72.48 92 74.62.17.08.32.21.43.38.3.45.23 1.05-.17 1.41-.22.19-.37.33-.59.33z"/><path fill="#495A67" d="M412.01 228.94H38.9c-.55 0-1-.45-1-1V34.59c0-.55.45-1 1-1s1 .45 1 1v192.36h372.11c.55 0 1 .45 1 1s-.45 1-1 1z"/><path fill="#7C12A5" d="M156.41 98.06a5.36 5.36 0 1 0 0-10.72 5.36 5.36 0 0 0 0 10.72"/><path fill="#7C12A5" d="M156.41 98.6c-3.26 0-5.9-2.65-5.9-5.9s2.65-5.9 5.9-5.9 5.9 2.65 5.9 5.9-2.65 5.9-5.9 5.9m0-10.72c-2.66 0-4.82 2.16-4.82 4.82s2.16 4.82 4.82 4.82 4.82-2.16 4.82-4.82-2.16-4.82-4.82-4.82"/><path fill="#009ADB" d="M96.06 71.4a5.36 5.36 0 1 0 0-10.72 5.36 5.36 0 0 0 0 10.72"/><path fill="#009ADB" d="M96.06 72.49c-3.55 0-6.45-2.89-6.45-6.45s2.89-6.45 6.45-6.45 6.45 2.89 6.45 6.45-2.89 6.45-6.45 6.45m0-10.72c-2.36 0-4.28 1.92-4.28 4.28s1.92 4.28 4.28 4.28 4.28-1.92 4.28-4.28-1.92-4.28-4.28-4.28m59.12 64.78a5.36 5.36 0 1 0 0-10.72 5.36 5.36 0 0 0 0 10.72"/><path fill="#009ADB" d="M155.18 127.64c-3.55 0-6.45-2.89-6.45-6.45s2.89-6.45 6.45-6.45 6.45 2.89 6.45 6.45-2.89 6.45-6.45 6.45m0-10.72c-2.36 0-4.28 1.92-4.28 4.28s1.92 4.28 4.28 4.28 4.28-1.92 4.28-4.28-1.92-4.28-4.28-4.28m98.96-42.45a5.36 5.36 0 1 0 0-10.72 5.36 5.36 0 0 0 0 10.72"/><path fill="#009ADB" d="M254.14 75.55c-3.55 0-6.45-2.89-6.45-6.45s2.89-6.45 6.45-6.45 6.45 2.89 6.45 6.45-2.89 6.45-6.45 6.45m0-10.72c-2.36 0-4.28 1.92-4.28 4.28s1.92 4.28 4.28 4.28 4.28-1.92 4.28-4.28-1.92-4.28-4.28-4.28m49.54.96a5.36 5.36 0 1 0 0-10.719 5.36 5.36 0 0 0 0 10.72"/><path fill="#009ADB" d="M303.68 66.87c-3.55 0-6.45-2.89-6.45-6.45s2.89-6.45 6.45-6.45 6.45 2.89 6.45 6.45-2.89 6.45-6.45 6.45m0-10.72c-2.36 0-4.28 1.92-4.28 4.28s1.92 4.28 4.28 4.28 4.28-1.92 4.28-4.28-1.92-4.28-4.28-4.28"/><path fill="#7C12A5" d="M226.16 124.2a5.36 5.36 0 1 0 0-10.72 5.36 5.36 0 0 0 0 10.72"/><path fill="#7C12A5" d="M226.16 124.75c-3.26 0-5.9-2.65-5.9-5.9s2.65-5.9 5.9-5.9 5.9 2.65 5.9 5.9-2.65 5.9-5.9 5.9m0-10.72c-2.66 0-4.82 2.16-4.82 4.82s2.16 4.82 4.82 4.82 4.82-2.16 4.82-4.82-2.16-4.82-4.82-4.82m116.99-43.68a5.36 5.36 0 1 0 0-10.72 5.36 5.36 0 0 0 0 10.72"/><path fill="#7C12A5" d="M343.15 70.89c-3.26 0-5.9-2.65-5.9-5.9s2.65-5.9 5.9-5.9 5.9 2.65 5.9 5.9-2.65 5.9-5.9 5.9m0-10.72c-2.66 0-4.82 2.16-4.82 4.82s2.16 4.82 4.82 4.82 4.82-2.16 4.82-4.82-2.16-4.82-4.82-4.82"/><path fill="#7C12A5" d="M373.66 33.46 341.6 64.37l-115.23 53.96-69.42-26.49c-.26-.1-.55-.09-.81.01L38.49 141.48c-.55.23-.81.87-.58 1.42.17.41.58.66 1 .66q.21 0 .42-.09l117.24-49.46 69.45 26.5c.27.1.58.09.85-.03l115.81-54.23c.11-.05.21-.12.29-.2l33.81-32.6h-3.13z"/></svg>
