<svg xmlns="http://www.w3.org/2000/svg" width="450" height="260" fill="none"><path fill="#fff" d="M.5 4A3.5 3.5 0 0 1 4 .5h442a3.5 3.5 0 0 1 3.5 3.5v252a3.5 3.5 0 0 1-3.5 3.5H4A3.5 3.5 0 0 1 .5 256z"/><path stroke="#CBD4D8" d="M.5 4A3.5 3.5 0 0 1 4 .5h442a3.5 3.5 0 0 1 3.5 3.5v252a3.5 3.5 0 0 1-3.5 3.5H4A3.5 3.5 0 0 1 .5 256z"/><path fill="#66D1FF" d="M177.02 92.95V70.41H37.51v22.54z"/><path fill="#2EC0FF" d="M83.34 130.08v-22.54H37.51v22.54z"/><path fill="#00ABF5" d="M407.6 167.2v-22.54H37.5v22.54z"/><path fill="#009ADB" d="M207.63 204.32v-22.54H37.5v22.54z"/><path fill="#2D4048" d="M177.51 70.42h-1v22.54h1zm-93.84 37.12h-1v22.54h1zm324.44 37.12h-1v22.54h1zm-199.98 37.12h-1v22.54h1z"/><mask id="a" width="84" height="82" x="144" y="41" maskUnits="userSpaceOnUse" style="mask-type:luminance"><path fill="#fff" d="M227.02 81.69c-.93 54.19-81.53 54.18-82.45 0 .93-54.19 81.53-54.18 82.45 0"/></mask><g mask="url(#a)"><path fill="#66D1FF" d="M189.38 58.81h-161v45.54h161z"/><path fill="#2D4048" d="M190.28 58.81h-1.79v45.54h1.79z"/></g><path fill="#495A67" d="M410.82 219.51H36.58c-.55 0-1-.45-1-1V38.27c0-.55.45-1 1-1s1 .45 1 1v179.24h373.24c.55 0 1 .45 1 1s-.45 1-1 1"/><path fill="#22343C" d="M185.8 124.69c-23.71 0-43-19.29-43-43s19.29-43 43-43 43 19.29 43 43-19.29 43-43 43m0-84c-22.61 0-41 18.39-41 41s18.39 41 41 41 41-18.39 41-41-18.39-41-41-41"/><path fill="#fff" d="M185.8 38.69c23.71 0 43 19.29 43 43s-19.29 43-43 43-43-19.29-43-43 19.29-43 43-43m0-2c-24.81 0-45 20.19-45 45s20.19 45 45 45 45-20.19 45-45-20.19-45-45-45"/></svg>