<svg width="451" height="260" viewBox="0 0 451 260" fill="none" xmlns="http://www.w3.org/2000/svg">
  <path d="M0.5 4C0.5 2.067 2.067 0.5 4 0.5H447C448.933 0.5 450.5 2.067 450.5 4V256C450.5 257.933 448.933 259.5 447 259.5H4C2.067 259.5 0.5 257.933 0.5 256V4Z" fill="white"/>
  <path d="M0.5 4C0.5 2.067 2.067 0.5 4 0.5H447C448.933 0.5 450.5 2.067 450.5 4V256C450.5 257.933 448.933 259.5 447 259.5H4C2.067 259.5 0.5 257.933 0.5 256V4Z" stroke="#CBD4D8"/>
  <g clip-path="url(#clip0_14075_8408)">
    <path d="M122.86 131.47L75.1895 197.08C38.9595 170.75 30.9195 120.04 57.2495 83.8099C73.0495 62.0699 95.9795 50.3799 122.86 50.3799V131.48V131.47Z" fill="#4F6169"/>
    <path d="M75.3097 197.78L74.9097 197.49C57.2797 184.68 45.6897 165.77 42.2797 144.24C38.8697 122.71 44.0497 101.15 56.8597 83.5196C72.8497 61.5196 95.6697 49.8896 122.87 49.8896H123.37V131.65L75.3097 197.79V197.78ZM122.36 50.8797C95.7197 51.0197 73.3497 62.4996 57.6597 84.0996C45.0097 101.52 39.8897 122.82 43.2597 144.08C46.5997 165.18 57.8997 183.73 75.0897 196.38L122.37 131.31V50.8797H122.36Z" fill="#FCFDFD"/>
    <path d="M122.86 131.47L199.99 156.53C186.15 199.13 140.4 222.44 97.8004 208.6C89.2804 205.83 82.4404 202.35 75.1904 197.08L122.86 131.47Z" fill="#E02200"/>
    <path d="M122.95 213.11C114.47 213.11 105.95 211.77 97.65 209.08C89.03 206.28 82.23 202.82 74.9 197.49L74.5 197.2L122.67 130.89L200.62 156.22L200.47 156.7C193.73 177.43 179.33 194.29 159.91 204.19C148.27 210.12 135.65 213.12 122.95 213.12V213.11ZM75.9 196.97C82.98 202.06 89.61 205.41 97.96 208.12C118.43 214.77 140.27 213.05 159.45 203.28C178.48 193.58 192.64 177.11 199.36 156.85L123.06 132.06L75.9 196.97Z" fill="#FCFDFD"/>
    <path d="M122.8 131.48L170.49 65.8398C199.49 86.9098 211.04 122.46 199.96 156.55L122.8 131.48Z" fill="#BD7E00"/>
    <path d="M200.28 157.18L121.99 131.74L170.38 65.1396L170.78 65.4296C199.93 86.6096 211.57 122.43 200.44 156.7L200.29 157.18H200.28ZM123.61 131.22L199.64 155.92C210.32 122.38 198.96 87.3997 170.6 66.5396L123.61 131.22Z" fill="#FCFDFD"/>
    <path d="M75.8895 196.968L123.051 132.058L199.359 156.85C185.42 198.886 140.134 221.827 97.955 208.124C89.6436 205.422 82.9472 202.044 75.8895 196.968Z" fill="#FFC60A" stroke="#BD7E00"/>
    <path d="M122.95 213.11C114.47 213.11 105.95 211.77 97.65 209.08C89.03 206.28 82.23 202.82 74.9 197.49L74.5 197.2L122.67 130.89L200.62 156.22L200.47 156.7C193.73 177.43 179.33 194.29 159.91 204.19C148.27 210.12 135.65 213.12 122.95 213.12V213.11ZM75.9 196.97C82.98 202.06 89.61 205.41 97.96 208.12C118.43 214.77 140.27 213.05 159.45 203.28C178.48 193.58 192.64 177.11 199.36 156.85L123.06 132.06L75.9 196.97Z" fill="#FCFDFD"/>
    <path d="M122.8 131.48L170.49 65.8398C199.49 86.9098 211.04 122.46 199.96 156.55L122.8 131.48Z" fill="#E02200"/>
    <path d="M200.28 157.18L121.99 131.74L170.38 65.1396L170.78 65.4296C199.93 86.6096 211.57 122.43 200.44 156.7L200.29 157.18H200.28ZM123.61 131.22L199.64 155.92C210.32 122.38 198.96 87.3997 170.6 66.5396L123.61 131.22Z" fill="#FCFDFD"/>
    <path d="M122.86 131.47V50.3799C140.78 50.3799 156.03 55.3399 170.53 65.8699L122.86 131.48V131.47Z" fill="#41800E"/>
    <path d="M122.36 133.01V49.8799H122.86C140.95 49.8799 156.19 54.8299 170.82 65.4599L171.22 65.7499L122.36 133.01ZM123.36 50.8799V129.93L169.83 65.9699C155.63 55.7699 140.84 50.9599 123.36 50.8699V50.8799Z" fill="#FCFDFD"/>
    <path d="M241.62 67.3604C241.62 76.2004 248.78 83.3604 257.62 83.3604C261.86 83.3604 265.93 81.6703 268.93 78.6703C271.93 75.6703 273.62 71.6004 273.62 67.3604C273.62 58.5204 266.46 51.3604 257.62 51.3604C248.78 51.3604 241.62 58.5204 241.62 67.3604ZM243.62 67.3604C243.62 59.6304 249.89 53.3604 257.62 53.3604C265.35 53.3604 271.62 59.6304 271.62 67.3604C271.62 75.0904 265.35 81.3604 257.62 81.3604C249.89 81.3604 243.62 75.0904 243.62 67.3604ZM260.62 74.3604H258.62V63.3604H255.62C255.07 63.3604 254.62 63.8104 254.62 64.3604C254.62 64.9104 255.07 65.3604 255.62 65.3604H256.62V74.3604H254.62C254.07 74.3604 253.62 74.8104 253.62 75.3604C253.62 75.9104 254.07 76.3604 254.62 76.3604H260.62C261.17 76.3604 261.62 75.9104 261.62 75.3604C261.62 74.8104 261.17 74.3604 260.62 74.3604ZM258.99 59.8104C258.99 60.5804 258.36 61.2104 257.59 61.2104C256.82 61.2104 256.19 60.5804 256.19 59.8104C256.19 59.0404 256.82 58.4104 257.59 58.4104C258.36 58.4104 258.99 59.0404 258.99 59.8104Z" fill="#4F6169"/>
    <path d="M257.63 157.74C258.18 157.74 258.63 157.29 258.63 156.74V145.74C258.63 145.19 258.18 144.74 257.63 144.74C257.08 144.74 256.63 145.19 256.63 145.74V156.74C256.63 157.29 257.08 157.74 257.63 157.74ZM273.19 161.96L260.41 140.33C259.83 139.34 258.79 138.75 257.63 138.75C256.47 138.75 255.43 139.34 254.85 140.33L242.07 161.96C241.48 162.96 241.48 164.15 242.07 165.15C242.65 166.15 243.7 166.75 244.86 166.75H270.41C271.58 166.75 272.62 166.15 273.2 165.15C273.78 164.15 273.78 162.96 273.19 161.96ZM271.44 164.15C271.34 164.33 271.03 164.74 270.41 164.74H244.86C244.24 164.74 243.93 164.33 243.83 164.15C243.73 163.97 243.52 163.5 243.83 162.98L256.61 141.34C256.92 140.82 257.43 140.76 257.63 140.76C257.83 140.76 258.34 140.82 258.65 141.34L271.42 162.97C271.73 163.5 271.53 163.97 271.42 164.14H271.44V164.15ZM257.64 159.75C256.91 159.75 256.31 160.35 256.31 161.08C256.31 161.81 256.91 162.41 257.64 162.41C258.37 162.41 258.97 161.81 258.97 161.08C258.97 160.35 258.37 159.75 257.64 159.75Z" fill="#BD7E00"/>
    <path fill-rule="evenodd" clip-rule="evenodd" d="M257.62 95.1104C248.78 95.1104 241.62 102.27 241.62 111.11C241.62 119.95 248.78 127.11 257.62 127.11C266.46 127.11 273.62 119.95 273.62 111.11C273.62 106.87 271.93 102.8 268.93 99.8004C265.93 96.8004 261.86 95.1104 257.62 95.1104ZM257.62 125.11C249.89 125.11 243.62 118.84 243.62 111.11C243.62 103.38 249.89 97.1104 257.62 97.1104C265.35 97.1104 271.62 103.38 271.62 111.11C271.62 114.82 270.14 118.38 267.52 121.01C264.89 123.64 261.33 125.11 257.62 125.11ZM266.21 105.21C266.6 104.82 267.23 104.82 267.62 105.21C267.81 105.4 267.92 105.65 267.92 105.92C267.92 106.19 267.81 106.44 267.62 106.63L255.11 119.11L247.62 111.64C247.24 111.23 247.26 110.59 247.68 110.2C248.09 109.82 248.73 109.84 249.11 110.26L255.11 116.26L266.21 105.21Z" fill="#41800E"/>
    <path d="M257.62 199.62C257.07 199.62 256.62 199.17 256.62 198.62V186.62C256.62 186.07 257.07 185.62 257.62 185.62C258.17 185.62 258.62 186.07 258.62 186.62V198.62C258.62 199.17 258.17 199.62 257.62 199.62Z" fill="#E02200"/>
    <path d="M258.95 203.07C258.95 203.8 258.35 204.4 257.62 204.4C256.89 204.4 256.29 203.8 256.29 203.07C256.29 202.34 256.89 201.74 257.62 201.74C258.35 201.74 258.95 202.34 258.95 203.07Z" fill="#E02200"/>
    <path fill-rule="evenodd" clip-rule="evenodd" d="M241.62 195.01C241.62 203.85 248.78 211.01 257.62 211.01C261.86 211.01 265.93 209.32 268.93 206.32C271.93 203.32 273.62 199.25 273.62 195.01C273.62 186.17 266.46 179.01 257.62 179.01C248.78 179.01 241.62 186.17 241.62 195.01ZM243.62 195.01C243.62 187.28 249.89 181.01 257.62 181.01C265.35 181.01 271.62 187.28 271.62 195.01C271.62 202.74 265.35 209.01 257.62 209.01C249.89 209.01 243.62 202.74 243.62 195.01Z" fill="#E02200"/>
    <path d="M290.99 58.9502H293.41L302.87 71.4502V58.9502H305.32V75.4402H302.87L293.41 62.9402V75.4402H290.99V58.9502Z" fill="#4F6169"/>
    <path d="M317.14 73.3505C317.84 73.0805 318.38 72.7405 318.76 72.3405L320.15 73.8005C319.62 74.3805 318.88 74.8405 317.93 75.1905C316.98 75.5405 316.05 75.7205 315.13 75.7205C313.99 75.7205 312.93 75.4405 311.95 74.8805C310.97 74.3205 310.18 73.5405 309.6 72.5405C309.02 71.5405 308.72 70.4205 308.72 69.1905C308.72 67.9605 309 66.8705 309.56 65.8905C310.12 64.9105 310.88 64.1305 311.83 63.5705C312.78 63.0105 313.83 62.7305 314.96 62.7305C316.21 62.7305 317.28 63.0305 318.19 63.6205C319.09 64.2105 319.78 65.0505 320.25 66.1405C320.72 67.2305 320.96 68.5105 320.96 69.9805H311.05C311.19 71.1005 311.63 72.0105 312.36 72.7005C313.09 73.4005 314 73.7405 315.08 73.7405C315.75 73.7405 316.44 73.6005 317.13 73.3305L317.14 73.3505ZM312.44 65.6705C311.71 66.3105 311.26 67.1705 311.08 68.2405H318.66C318.53 67.2005 318.15 66.3505 317.52 65.7005C316.89 65.0405 316.05 64.7205 315.01 64.7205C313.97 64.7205 313.16 65.0405 312.43 65.6805L312.44 65.6705Z" fill="#4F6169"/>
    <path d="M334.45 63.0295V75.4395H332.07V73.6595C331.69 74.2795 331.14 74.7795 330.44 75.1595C329.74 75.5395 328.96 75.7195 328.11 75.7195C327.21 75.7195 326.41 75.5195 325.71 75.1195C325.01 74.7195 324.46 74.1595 324.07 73.4295C323.68 72.6995 323.48 71.8695 323.48 70.9195V63.0195H325.81V70.5095C325.81 71.4395 326.07 72.1895 326.6 72.7795C327.13 73.3595 327.82 73.6595 328.66 73.6595C329.28 73.6595 329.86 73.5295 330.38 73.2595C330.9 72.9995 331.31 72.6395 331.62 72.1895C331.92 71.7395 332.08 71.2495 332.08 70.7295V63.0295H334.46H334.45Z" fill="#4F6169"/>
    <path d="M344.53 74.8403C344.19 75.1103 343.81 75.3303 343.37 75.4903C342.93 75.6503 342.49 75.7304 342.04 75.7304C341.08 75.7304 340.3 75.4103 339.69 74.7803C339.08 74.1503 338.78 73.3403 338.78 72.3403V65.0404H336.93V63.0204H338.78V59.6104H341.11V63.0204H344.04V65.0404H341.11V72.1703C341.11 72.6003 341.24 72.9603 341.49 73.2403C341.75 73.5203 342.05 73.6604 342.4 73.6604C342.66 73.6604 342.9 73.6203 343.12 73.5303C343.34 73.4403 343.52 73.3303 343.65 73.2104L344.54 74.8403H344.53Z" fill="#4F6169"/>
    <path d="M351.17 63.4702C351.98 62.9802 352.92 62.7402 353.99 62.7402V64.8002C353.09 64.8002 352.29 64.9702 351.59 65.3002C350.89 65.6302 350.34 66.1102 349.96 66.7302C349.58 67.3502 349.38 68.0502 349.38 68.8302V75.4302H347V63.0202H349.38V65.4402C349.76 64.6102 350.36 63.9502 351.17 63.4602V63.4702Z" fill="#4F6169"/>
    <path d="M365.29 64.16C366.2 65.1 366.66 66.36 366.66 67.93V75.44H364.33V73.76C363.88 74.38 363.28 74.87 362.53 75.21C361.78 75.55 361 75.73 360.2 75.73C358.87 75.73 357.78 75.37 356.91 74.65C356.05 73.93 355.61 72.97 355.61 71.77C355.61 70.97 355.83 70.25 356.27 69.62C356.71 68.99 357.31 68.5 358.07 68.16C358.83 67.82 359.67 67.64 360.58 67.64C361.76 67.64 363.01 67.86 364.32 68.31V67.93C364.32 67.02 364.07 66.25 363.58 65.64C363.09 65.03 362.27 64.72 361.13 64.72C360.15 64.72 358.99 65.06 357.65 65.75L356.76 64C358.42 63.17 359.99 62.75 361.46 62.75C363.09 62.75 364.36 63.22 365.28 64.17L365.29 64.16ZM362.99 73.24C363.69 72.83 364.14 72.27 364.33 71.55V69.89C363.27 69.57 362.15 69.41 360.95 69.41C360.1 69.41 359.38 69.63 358.79 70.06C358.2 70.49 357.9 71.04 357.9 71.69C357.9 72.34 358.16 72.87 358.68 73.26C359.2 73.65 359.87 73.85 360.68 73.85C361.49 73.85 362.28 73.65 362.98 73.24H362.99Z" fill="#4F6169"/>
    <path d="M370.28 58.6602H372.66V75.4402H370.28V58.6602Z" fill="#4F6169"/>
    <path d="M289.57 115.22L291.01 113.42C292.63 114.96 294.43 115.72 296.43 115.72C297.52 115.72 298.37 115.48 298.97 114.99C299.58 114.5 299.88 113.91 299.88 113.2C299.88 112.49 299.56 111.9 298.93 111.51C298.3 111.12 297.24 110.75 295.75 110.42C294.5 110.13 293.48 109.8 292.69 109.44C291.9 109.08 291.28 108.58 290.83 107.98C290.38 107.37 290.16 106.6 290.16 105.65C290.16 104.7 290.41 103.91 290.9 103.18C291.4 102.44 292.08 101.87 292.95 101.45C293.82 101.03 294.8 100.83 295.89 100.83C297.09 100.83 298.18 101.03 299.17 101.43C300.16 101.83 301.06 102.41 301.89 103.16L300.5 104.98C299.8 104.34 299.04 103.84 298.23 103.49C297.42 103.14 296.6 102.96 295.77 102.96C295.18 102.96 294.64 103.07 294.16 103.3C293.68 103.52 293.3 103.83 293.03 104.21C292.76 104.59 292.62 105 292.62 105.43C292.62 105.93 292.77 106.33 293.08 106.65C293.38 106.97 293.82 107.24 294.39 107.45C294.96 107.67 295.75 107.89 296.75 108.13C298.59 108.56 299.98 109.13 300.91 109.83C301.84 110.53 302.31 111.57 302.31 112.95C302.31 113.89 302.08 114.73 301.61 115.47C301.15 116.21 300.46 116.79 299.56 117.21C298.66 117.63 297.57 117.85 296.31 117.85C293.61 117.85 291.35 116.97 289.54 115.21L289.57 115.22Z" fill="#41800E"/>
    <path d="M316.19 105.19V117.6H313.81V115.82C313.43 116.44 312.88 116.94 312.18 117.32C311.48 117.7 310.7 117.88 309.85 117.88C308.95 117.88 308.15 117.68 307.45 117.28C306.75 116.88 306.2 116.32 305.81 115.59C305.42 114.86 305.22 114.03 305.22 113.08V105.18H307.55V112.67C307.55 113.6 307.81 114.35 308.34 114.94C308.87 115.52 309.56 115.82 310.4 115.82C311.02 115.82 311.6 115.69 312.12 115.42C312.64 115.16 313.05 114.8 313.36 114.35C313.66 113.9 313.82 113.41 313.82 112.89V105.19H316.2H316.19Z" fill="#41800E"/>
    <path d="M322.34 117C321.34 116.41 320.54 115.61 319.94 114.61C319.34 113.61 319.04 112.53 319.04 111.38C319.04 110.23 319.34 109.16 319.94 108.16C320.54 107.16 321.34 106.38 322.35 105.78C323.36 105.19 324.44 104.89 325.59 104.89C326.47 104.89 327.3 105.06 328.07 105.39C328.85 105.73 329.55 106.2 330.17 106.81L328.56 108.3C328.18 107.88 327.72 107.56 327.2 107.32C326.68 107.08 326.14 106.96 325.58 106.96C324.84 106.96 324.16 107.16 323.52 107.56C322.88 107.96 322.37 108.5 322 109.18C321.62 109.86 321.44 110.59 321.44 111.38C321.44 112.17 321.63 112.92 322 113.6C322.38 114.28 322.88 114.82 323.52 115.22C324.16 115.62 324.85 115.82 325.58 115.82C326.16 115.82 326.71 115.7 327.24 115.45C327.77 115.2 328.23 114.86 328.63 114.43L330.24 115.89C329.62 116.51 328.91 117 328.12 117.35C327.33 117.7 326.48 117.88 325.59 117.88C324.42 117.88 323.34 117.58 322.34 116.99V117Z" fill="#41800E"/>
    <path d="M334.99 117C333.99 116.41 333.19 115.61 332.59 114.61C331.99 113.61 331.69 112.53 331.69 111.38C331.69 110.23 331.99 109.16 332.59 108.16C333.19 107.16 333.99 106.38 335 105.78C336.01 105.19 337.09 104.89 338.24 104.89C339.12 104.89 339.95 105.06 340.72 105.39C341.5 105.73 342.2 106.2 342.82 106.81L341.21 108.3C340.83 107.88 340.37 107.56 339.85 107.32C339.33 107.08 338.79 106.96 338.23 106.96C337.49 106.96 336.81 107.16 336.17 107.56C335.53 107.96 335.02 108.5 334.65 109.18C334.27 109.86 334.09 110.59 334.09 111.38C334.09 112.17 334.28 112.92 334.65 113.6C335.03 114.28 335.53 114.82 336.17 115.22C336.81 115.62 337.5 115.82 338.23 115.82C338.81 115.82 339.36 115.7 339.89 115.45C340.42 115.2 340.88 114.86 341.28 114.43L342.89 115.89C342.27 116.51 341.56 117 340.77 117.35C339.98 117.7 339.13 117.88 338.24 117.88C337.07 117.88 335.99 117.58 334.99 116.99V117Z" fill="#41800E"/>
    <path d="M352.82 115.51C353.52 115.24 354.06 114.9 354.44 114.5L355.83 115.96C355.3 116.54 354.56 117 353.61 117.35C352.66 117.7 351.73 117.88 350.81 117.88C349.67 117.88 348.61 117.6 347.63 117.04C346.65 116.48 345.86 115.7 345.28 114.7C344.7 113.7 344.4 112.58 344.4 111.35C344.4 110.12 344.68 109.03 345.24 108.05C345.8 107.07 346.56 106.29 347.51 105.73C348.46 105.17 349.51 104.89 350.64 104.89C351.89 104.89 352.96 105.19 353.87 105.78C354.77 106.37 355.46 107.21 355.93 108.3C356.4 109.39 356.64 110.67 356.64 112.14H346.73C346.87 113.26 347.31 114.17 348.04 114.86C348.77 115.56 349.68 115.9 350.76 115.9C351.43 115.9 352.12 115.76 352.81 115.49L352.82 115.51ZM348.12 107.83C347.39 108.47 346.94 109.33 346.76 110.4H354.34C354.21 109.36 353.83 108.51 353.2 107.86C352.57 107.2 351.73 106.88 350.69 106.88C349.65 106.88 348.84 107.2 348.11 107.84L348.12 107.83Z" fill="#41800E"/>
    <path d="M360.73 117.41C359.8 117.09 358.97 116.63 358.23 116.04L359.31 114.41C360 114.92 360.7 115.31 361.42 115.57C362.14 115.83 362.84 115.97 363.53 115.97C364.27 115.97 364.85 115.82 365.29 115.51C365.73 115.21 365.95 114.8 365.95 114.29C365.95 113.78 365.72 113.37 365.25 113.1C364.79 112.84 364.06 112.57 363.07 112.3C361.55 111.87 360.46 111.4 359.79 110.88C359.12 110.36 358.79 109.63 358.79 108.67C358.79 107.53 359.21 106.62 360.05 105.93C360.89 105.24 361.97 104.9 363.3 104.9C364.08 104.9 364.88 105.03 365.68 105.28C366.48 105.54 367.22 105.89 367.89 106.34L366.91 108.02C365.63 107.22 364.43 106.82 363.31 106.82C362.65 106.82 362.11 106.96 361.69 107.24C361.27 107.52 361.05 107.91 361.05 108.4C361.05 108.72 361.15 108.98 361.34 109.17C361.53 109.36 361.82 109.53 362.2 109.69C362.58 109.84 363.18 110.05 364 110.3C364.9 110.57 365.63 110.83 366.2 111.08C366.77 111.33 367.24 111.69 367.63 112.17C368.01 112.65 368.21 113.27 368.21 114.04C368.21 115.21 367.77 116.14 366.9 116.84C366.03 117.54 364.9 117.88 363.5 117.88C362.57 117.88 361.64 117.72 360.72 117.4L360.73 117.41Z" fill="#41800E"/>
    <path d="M372.4 117.41C371.47 117.09 370.64 116.63 369.9 116.04L370.98 114.41C371.67 114.92 372.37 115.31 373.09 115.57C373.81 115.83 374.51 115.97 375.2 115.97C375.94 115.97 376.52 115.82 376.96 115.51C377.4 115.21 377.62 114.8 377.62 114.29C377.62 113.78 377.39 113.37 376.92 113.1C376.46 112.84 375.73 112.57 374.74 112.3C373.22 111.87 372.13 111.4 371.46 110.88C370.79 110.36 370.46 109.63 370.46 108.67C370.46 107.53 370.88 106.62 371.72 105.93C372.56 105.24 373.64 104.9 374.97 104.9C375.75 104.9 376.55 105.03 377.35 105.28C378.15 105.54 378.89 105.89 379.56 106.34L378.58 108.02C377.3 107.22 376.1 106.82 374.98 106.82C374.32 106.82 373.78 106.96 373.36 107.24C372.94 107.52 372.72 107.91 372.72 108.4C372.72 108.72 372.82 108.98 373.01 109.17C373.2 109.36 373.49 109.53 373.87 109.69C374.25 109.84 374.85 110.05 375.67 110.3C376.57 110.57 377.3 110.83 377.87 111.08C378.44 111.33 378.91 111.69 379.3 112.17C379.68 112.65 379.88 113.27 379.88 114.04C379.88 115.21 379.44 116.14 378.57 116.84C377.7 117.54 376.57 117.88 375.17 117.88C374.24 117.88 373.31 117.72 372.39 117.4L372.4 117.41Z" fill="#41800E"/>
    <path d="M289.26 143.28H291.95L296.01 155.86L300.14 143.28H302.8L306.93 155.86L310.99 143.28H313.68L308.26 159.77H305.84L301.5 146.64L297.13 159.77H294.71L289.29 143.28H289.26Z" fill="#BD7E00"/>
    <path d="M324.85 148.48C325.76 149.42 326.22 150.68 326.22 152.25V159.76H323.89V158.08C323.44 158.7 322.84 159.19 322.09 159.53C321.34 159.87 320.56 160.05 319.76 160.05C318.43 160.05 317.34 159.69 316.47 158.97C315.61 158.25 315.17 157.29 315.17 156.09C315.17 155.29 315.39 154.57 315.83 153.94C316.27 153.31 316.87 152.82 317.63 152.48C318.39 152.14 319.23 151.96 320.14 151.96C321.32 151.96 322.57 152.18 323.88 152.63V152.25C323.88 151.34 323.63 150.57 323.14 149.96C322.65 149.35 321.83 149.04 320.69 149.04C319.71 149.04 318.55 149.38 317.21 150.07L316.32 148.32C317.98 147.49 319.55 147.07 321.02 147.07C322.65 147.07 323.92 147.54 324.84 148.49L324.85 148.48ZM322.55 157.56C323.25 157.15 323.7 156.59 323.89 155.87V154.21C322.83 153.89 321.71 153.73 320.51 153.73C319.66 153.73 318.94 153.95 318.35 154.38C317.76 154.81 317.46 155.36 317.46 156.01C317.46 156.66 317.72 157.19 318.24 157.58C318.76 157.97 319.43 158.17 320.24 158.17C321.05 158.17 321.84 157.97 322.54 157.56H322.55Z" fill="#BD7E00"/>
    <path d="M334.01 147.8C334.82 147.31 335.76 147.07 336.83 147.07V149.13C335.93 149.13 335.13 149.3 334.43 149.63C333.73 149.96 333.18 150.44 332.8 151.06C332.42 151.68 332.22 152.38 332.22 153.16V159.76H329.84V147.35H332.22V149.77C332.6 148.94 333.2 148.28 334.01 147.79V147.8Z" fill="#BD7E00"/>
    <path d="M348.35 147.67C349.05 148.07 349.6 148.63 349.99 149.36C350.38 150.09 350.58 150.92 350.58 151.87V159.77H348.28V152.28C348.28 151.35 348.02 150.6 347.49 150.01C346.96 149.43 346.27 149.13 345.43 149.13C344.81 149.13 344.23 149.26 343.7 149.53C343.17 149.79 342.76 150.15 342.45 150.6C342.15 151.05 341.99 151.54 341.99 152.06V159.76H339.61V147.35H341.99V149.17C342.36 148.55 342.9 148.04 343.61 147.65C344.32 147.26 345.1 147.06 345.95 147.06C346.85 147.06 347.65 147.26 348.35 147.66V147.67Z" fill="#BD7E00"/>
    <path d="M354.38 144.86C354.1 144.57 353.96 144.24 353.96 143.85C353.96 143.46 354.1 143.13 354.38 142.85C354.66 142.57 355 142.43 355.4 142.43C355.8 142.43 356.12 142.57 356.4 142.85C356.68 143.13 356.82 143.46 356.82 143.85C356.82 144.24 356.68 144.57 356.4 144.86C356.12 145.15 355.79 145.29 355.4 145.29C355.01 145.29 354.66 145.15 354.38 144.86ZM354.2 147.36H356.58V159.77H354.2V147.36Z" fill="#BD7E00"/>
    <path d="M369.2 147.67C369.9 148.07 370.45 148.63 370.84 149.36C371.23 150.09 371.43 150.92 371.43 151.87V159.77H369.13V152.28C369.13 151.35 368.87 150.6 368.34 150.01C367.81 149.43 367.12 149.13 366.28 149.13C365.66 149.13 365.08 149.26 364.55 149.53C364.02 149.79 363.61 150.15 363.3 150.6C363 151.05 362.84 151.54 362.84 152.06V159.76H360.46V147.35H362.84V149.17C363.21 148.55 363.75 148.04 364.46 147.65C365.17 147.26 365.95 147.06 366.8 147.06C367.7 147.06 368.5 147.26 369.2 147.66V147.67Z" fill="#BD7E00"/>
    <path d="M386.46 147.36V158.45C386.46 159.51 386.19 160.45 385.66 161.27C385.12 162.09 384.38 162.74 383.43 163.2C382.48 163.66 381.39 163.9 380.18 163.9C379.17 163.9 378.21 163.75 377.29 163.44C376.37 163.14 375.61 162.74 375 162.24L375.94 160.46C376.39 160.89 376.96 161.23 377.66 161.47C378.36 161.71 379.09 161.83 379.86 161.83C381.19 161.83 382.23 161.53 382.98 160.92C383.73 160.31 384.11 159.47 384.11 158.4V156.6C383.61 157.32 382.99 157.88 382.24 158.27C381.49 158.66 380.66 158.86 379.74 158.86C378.65 158.86 377.68 158.61 376.82 158.1C375.96 157.6 375.29 156.9 374.8 156C374.31 155.1 374.07 154.09 374.07 152.95C374.07 151.81 374.31 150.8 374.8 149.9C375.29 149 375.96 148.31 376.82 147.81C377.68 147.31 378.65 147.07 379.74 147.07C380.65 147.07 381.49 147.27 382.25 147.67C383.01 148.07 383.63 148.62 384.11 149.33V147.36H386.49H386.46ZM383.03 155.72C383.73 155.01 384.09 154.08 384.09 152.95C384.09 151.82 383.74 150.91 383.03 150.2C382.33 149.49 381.41 149.13 380.29 149.13C379.17 149.13 378.3 149.49 377.59 150.2C376.88 150.91 376.52 151.83 376.52 152.95C376.52 154.07 376.88 154.99 377.59 155.71C378.3 156.43 379.2 156.79 380.29 156.79C381.38 156.79 382.32 156.43 383.03 155.72Z" fill="#BD7E00"/>
    <path d="M294.13 201.81C292.82 201.03 291.77 199.99 290.99 198.68C290.21 197.37 289.81 195.95 289.81 194.43C289.81 192.91 290.2 191.5 290.99 190.19C291.77 188.89 292.82 187.85 294.13 187.07C295.44 186.29 296.85 185.91 298.35 185.91C299.52 185.91 300.63 186.14 301.69 186.59C302.75 187.05 303.67 187.68 304.45 188.5L302.75 190.13C302.17 189.51 301.51 189.02 300.75 188.67C299.99 188.32 299.19 188.14 298.36 188.14C297.29 188.14 296.28 188.43 295.35 189C294.42 189.57 293.67 190.34 293.12 191.3C292.57 192.26 292.29 193.3 292.29 194.42C292.29 195.54 292.57 196.58 293.12 197.55C293.67 198.52 294.42 199.29 295.35 199.87C296.29 200.45 297.29 200.73 298.36 200.73C299.19 200.73 299.99 200.55 300.75 200.2C301.51 199.85 302.18 199.36 302.75 198.74L304.45 200.37C303.65 201.19 302.72 201.82 301.67 202.28C300.61 202.74 299.51 202.96 298.36 202.96C296.86 202.96 295.45 202.57 294.14 201.8L294.13 201.81Z" fill="#E02200"/>
    <path d="M311.4 190.72C312.21 190.23 313.15 189.99 314.22 189.99V192.05C313.32 192.05 312.52 192.22 311.82 192.55C311.12 192.88 310.57 193.36 310.19 193.98C309.81 194.6 309.61 195.3 309.61 196.08V202.68H307.23V190.27H309.61V192.69C309.99 191.86 310.59 191.2 311.4 190.71V190.72Z" fill="#E02200"/>
    <path d="M317.18 187.78C316.9 187.49 316.76 187.16 316.76 186.77C316.76 186.38 316.9 186.05 317.18 185.77C317.46 185.49 317.8 185.35 318.2 185.35C318.6 185.35 318.92 185.49 319.2 185.77C319.48 186.05 319.62 186.38 319.62 186.77C319.62 187.16 319.48 187.49 319.2 187.78C318.92 188.07 318.59 188.21 318.2 188.21C317.81 188.21 317.46 188.07 317.18 187.78ZM317 190.28H319.38V202.69H317V190.28Z" fill="#E02200"/>
    <path d="M329.46 202.08C329.12 202.35 328.74 202.57 328.3 202.73C327.86 202.89 327.42 202.97 326.97 202.97C326.01 202.97 325.23 202.65 324.62 202.02C324.01 201.39 323.71 200.58 323.71 199.58V192.28H321.86V190.26H323.71V186.85H326.04V190.26H328.97V192.28H326.04V199.41C326.04 199.84 326.17 200.2 326.42 200.48C326.68 200.76 326.98 200.9 327.33 200.9C327.59 200.9 327.83 200.86 328.05 200.77C328.27 200.68 328.45 200.57 328.58 200.45L329.47 202.08H329.46Z" fill="#E02200"/>
    <path d="M332.11 187.78C331.83 187.49 331.69 187.16 331.69 186.77C331.69 186.38 331.83 186.05 332.11 185.77C332.39 185.49 332.73 185.35 333.13 185.35C333.53 185.35 333.85 185.49 334.13 185.77C334.41 186.05 334.55 186.38 334.55 186.77C334.55 187.16 334.41 187.49 334.13 187.78C333.85 188.07 333.52 188.21 333.13 188.21C332.74 188.21 332.39 188.07 332.11 187.78ZM331.93 190.28H334.31V202.69H331.93V190.28Z" fill="#E02200"/>
    <path d="M340.46 202.08C339.46 201.49 338.66 200.69 338.06 199.69C337.46 198.69 337.16 197.61 337.16 196.46C337.16 195.31 337.46 194.24 338.06 193.24C338.66 192.24 339.46 191.46 340.47 190.86C341.48 190.27 342.56 189.97 343.71 189.97C344.59 189.97 345.42 190.14 346.19 190.47C346.97 190.81 347.67 191.28 348.29 191.89L346.68 193.38C346.3 192.96 345.84 192.64 345.32 192.4C344.8 192.16 344.26 192.04 343.7 192.04C342.96 192.04 342.28 192.24 341.64 192.64C341 193.04 340.49 193.58 340.12 194.26C339.74 194.94 339.56 195.67 339.56 196.46C339.56 197.25 339.75 198 340.12 198.68C340.5 199.36 341 199.9 341.64 200.3C342.28 200.7 342.97 200.9 343.7 200.9C344.28 200.9 344.83 200.78 345.36 200.53C345.89 200.28 346.35 199.94 346.75 199.51L348.36 200.97C347.74 201.59 347.03 202.08 346.24 202.43C345.45 202.78 344.6 202.96 343.71 202.96C342.54 202.96 341.46 202.66 340.46 202.07V202.08Z" fill="#E02200"/>
    <path d="M359.36 191.4C360.27 192.34 360.73 193.6 360.73 195.17V202.68H358.4V201C357.95 201.62 357.35 202.11 356.6 202.45C355.85 202.79 355.07 202.97 354.27 202.97C352.94 202.97 351.85 202.61 350.98 201.89C350.12 201.17 349.68 200.21 349.68 199.01C349.68 198.21 349.9 197.49 350.34 196.86C350.78 196.23 351.38 195.74 352.14 195.4C352.9 195.06 353.74 194.88 354.65 194.88C355.83 194.88 357.08 195.1 358.39 195.55V195.17C358.39 194.26 358.14 193.49 357.65 192.88C357.16 192.27 356.34 191.96 355.2 191.96C354.22 191.96 353.06 192.3 351.72 192.99L350.83 191.24C352.49 190.41 354.06 189.99 355.53 189.99C357.16 189.99 358.43 190.46 359.35 191.41L359.36 191.4ZM357.06 200.48C357.76 200.07 358.21 199.51 358.4 198.79V197.13C357.34 196.81 356.22 196.65 355.02 196.65C354.17 196.65 353.45 196.87 352.86 197.3C352.27 197.73 351.97 198.28 351.97 198.93C351.97 199.58 352.23 200.11 352.75 200.5C353.27 200.89 353.94 201.09 354.75 201.09C355.56 201.09 356.35 200.89 357.05 200.48H357.06Z" fill="#E02200"/>
    <path d="M364.36 185.91H366.74V202.69H364.36V185.91Z" fill="#E02200"/>
    <mask id="mask0_14075_8408" style="mask-type:luminance" maskUnits="userSpaceOnUse" x="144" y="112" width="85" height="85">
      <path d="M186.33 196.69C209.526 196.69 228.33 177.886 228.33 154.69C228.33 131.494 209.526 112.69 186.33 112.69C163.134 112.69 144.33 131.494 144.33 154.69C144.33 177.886 163.134 196.69 186.33 196.69Z" fill="white"/>
    </mask>
    <g mask="url(#mask0_14075_8408)">
      <path d="M-49.5912 239.459L46.8151 106.766L202.819 157.451C174.579 243.496 82.0233 290.527 -4.16549 262.514C-21.2768 256.952 -35.0434 249.964 -49.5912 239.459Z" fill="#FFC60A" stroke="#BD7E00"/>
      <path d="M46.5 106.19L143.47 -27.2695C202.44 15.5705 225.92 87.8505 203.4 157.17L46.51 106.19H46.5Z" fill="#E02200"/>
      <path d="M204.23 158.82L202.99 158.42L44.3896 106.89L143.18 -29.0898L144.24 -28.3198C203.61 14.8202 227.32 87.7902 204.64 157.58L204.24 158.82H204.23ZM48.6096 105.51L202.54 155.53C224.05 87.6301 201.05 16.8602 143.74 -25.4298L48.5996 105.52L48.6096 105.51Z" fill="#FCFDFD"/>
    </g>
    <path d="M186.42 197.41C162.71 197.41 143.42 178.12 143.42 154.41C143.42 130.7 162.71 111.41 186.42 111.41C210.13 111.41 229.42 130.7 229.42 154.41C229.42 178.12 210.13 197.41 186.42 197.41ZM186.42 113.41C163.81 113.41 145.42 131.8 145.42 154.41C145.42 177.02 163.81 195.41 186.42 195.41C209.03 195.41 227.42 177.02 227.42 154.41C227.42 131.8 209.03 113.41 186.42 113.41Z" fill="#17252C"/>
    <path d="M186.48 111.34C210.19 111.34 229.48 130.63 229.48 154.34C229.48 178.05 210.19 197.34 186.48 197.34C162.77 197.34 143.48 178.05 143.48 154.34C143.48 130.63 162.77 111.34 186.48 111.34ZM186.48 109.34C161.67 109.34 141.48 129.53 141.48 154.34C141.48 179.15 161.67 199.34 186.48 199.34C211.29 199.34 231.48 179.15 231.48 154.34C231.48 129.53 211.29 109.34 186.48 109.34Z" fill="#FCFDFD"/>
  </g>
  <defs>
    <clipPath id="clip0_14075_8408">
      <rect width="450" height="260" fill="white"/>
    </clipPath>
  </defs>
</svg>
