<svg xmlns="http://www.w3.org/2000/svg" width="450" height="260" fill="none"><path fill="#fff" d="M.5 4A3.5 3.5 0 0 1 4 .5h442a3.5 3.5 0 0 1 3.5 3.5v252a3.5 3.5 0 0 1-3.5 3.5H4A3.5 3.5 0 0 1 .5 256z"/><path stroke="#CBD4D8" d="M.5 4A3.5 3.5 0 0 1 4 .5h442a3.5 3.5 0 0 1 3.5 3.5v252a3.5 3.5 0 0 1-3.5 3.5H4A3.5 3.5 0 0 1 .5 256z"/><path fill="#CBD4D8" d="m38.65 176.29 103.9 20.05 55.34-11.3 23.72-37.83 39.81 12.42 27.11-53.36 57.6 11.86 19.48-29.65 37.85-.56L405 217.8l-367.74 1.04z"/><path fill="#B27700" d="M221.76 60.75c-.55 0-1-.45-1-1v-2c0-.55.45-1 1-1s1 .45 1 1v2c0 .55-.45 1-1 1m0 148.42c-.55 0-1-.45-1-1v-3.96c0-.55.45-1 1-1s1 .45 1 1v3.96c0 .55-.45 1-1 1m0-9.89c-.55 0-1-.45-1-1v-3.96c0-.55.45-1 1-1s1 .45 1 1v3.96c0 .55-.45 1-1 1m0-9.89c-.55 0-1-.45-1-1v-3.96c0-.55.45-1 1-1s1 .45 1 1v3.96c0 .55-.45 1-1 1m0-9.89c-.55 0-1-.45-1-1v-3.96c0-.55.45-1 1-1s1 .45 1 1v3.96c0 .55-.45 1-1 1m0-9.89c-.55 0-1-.45-1-1v-3.96c0-.55.45-1 1-1s1 .45 1 1v3.96c0 .55-.45 1-1 1m0-9.89c-.55 0-1-.45-1-1v-3.96c0-.55.45-1 1-1s1 .45 1 1v3.96c0 .55-.45 1-1 1m0-9.89c-.55 0-1-.45-1-1v-3.96c0-.55.45-1 1-1s1 .45 1 1v3.96c0 .55-.45 1-1 1m0-9.89c-.55 0-1-.45-1-1v-3.96c0-.55.45-1 1-1s1 .45 1 1v3.96c0 .55-.45 1-1 1m0-9.89c-.55 0-1-.45-1-1v-3.96c0-.55.45-1 1-1s1 .45 1 1v3.96c0 .55-.45 1-1 1m0-9.89c-.55 0-1-.45-1-1v-3.96c0-.55.45-1 1-1s1 .45 1 1v3.96c0 .55-.45 1-1 1m0-9.89c-.55 0-1-.45-1-1v-3.96c0-.55.45-1 1-1s1 .45 1 1v3.96c0 .55-.45 1-1 1m0-9.89c-.55 0-1-.45-1-1v-3.96c0-.55.45-1 1-1s1 .45 1 1v3.96c0 .55-.45 1-1 1m0-9.89c-.55 0-1-.45-1-1v-3.96c0-.55.45-1 1-1s1 .45 1 1v3.96c0 .55-.45 1-1 1m0-9.89c-.55 0-1-.45-1-1v-3.96c0-.55.45-1 1-1s1 .45 1 1v3.96c0 .55-.45 1-1 1m0-9.89c-.55 0-1-.45-1-1v-3.96c0-.55.45-1 1-1s1 .45 1 1v3.96c0 .55-.45 1-1 1m0 146.39c-.55 0-1-.45-1-1v-2c0-.55.45-1 1-1s1 .45 1 1v2c0 .55-.45 1-1 1"/><path fill="#B27700" d="M222.05 64.08c5.523 0 10-4.477 10-10s-4.477-10-10-10-10 4.477-10 10 4.477 10 10 10"/><path fill="#B27700" d="M222.05 65.08c-6.07 0-11-4.93-11-11s4.93-11 11-11 11 4.93 11 11-4.93 11-11 11m0-20c-4.96 0-9 4.04-9 9s4.04 9 9 9 9-4.04 9-9-4.04-9-9-9"/><path fill="#F56700" d="M289.38 60.75c-.55 0-1-.45-1-1v-2c0-.55.45-1 1-1s1 .45 1 1v2c0 .55-.45 1-1 1m0 148.42c-.55 0-1-.45-1-1v-3.96c0-.55.45-1 1-1s1 .45 1 1v3.96c0 .55-.45 1-1 1m0-9.89c-.55 0-1-.45-1-1v-3.96c0-.55.45-1 1-1s1 .45 1 1v3.96c0 .55-.45 1-1 1m0-9.89c-.55 0-1-.45-1-1v-3.96c0-.55.45-1 1-1s1 .45 1 1v3.96c0 .55-.45 1-1 1m0-9.89c-.55 0-1-.45-1-1v-3.96c0-.55.45-1 1-1s1 .45 1 1v3.96c0 .55-.45 1-1 1m0-9.89c-.55 0-1-.45-1-1v-3.96c0-.55.45-1 1-1s1 .45 1 1v3.96c0 .55-.45 1-1 1m0-9.89c-.55 0-1-.45-1-1v-3.96c0-.55.45-1 1-1s1 .45 1 1v3.96c0 .55-.45 1-1 1m0-9.89c-.55 0-1-.45-1-1v-3.96c0-.55.45-1 1-1s1 .45 1 1v3.96c0 .55-.45 1-1 1m0-9.89c-.55 0-1-.45-1-1v-3.96c0-.55.45-1 1-1s1 .45 1 1v3.96c0 .55-.45 1-1 1m0-9.89c-.55 0-1-.45-1-1v-3.96c0-.55.45-1 1-1s1 .45 1 1v3.96c0 .55-.45 1-1 1m0-9.89c-.55 0-1-.45-1-1v-3.96c0-.55.45-1 1-1s1 .45 1 1v3.96c0 .55-.45 1-1 1m0-9.89c-.55 0-1-.45-1-1v-3.96c0-.55.45-1 1-1s1 .45 1 1v3.96c0 .55-.45 1-1 1m0-9.89c-.55 0-1-.45-1-1v-3.96c0-.55.45-1 1-1s1 .45 1 1v3.96c0 .55-.45 1-1 1m0-9.89c-.55 0-1-.45-1-1v-3.96c0-.55.45-1 1-1s1 .45 1 1v3.96c0 .55-.45 1-1 1m0-9.89c-.55 0-1-.45-1-1v-3.96c0-.55.45-1 1-1s1 .45 1 1v3.96c0 .55-.45 1-1 1m0-9.89c-.55 0-1-.45-1-1v-3.96c0-.55.45-1 1-1s1 .45 1 1v3.96c0 .55-.45 1-1 1m0 146.39c-.55 0-1-.45-1-1v-2c0-.55.45-1 1-1s1 .45 1 1v2c0 .55-.45 1-1 1"/><path fill="#F56700" d="M289.66 64.08c5.523 0 10-4.477 10-10s-4.477-10-10-10-10 4.477-10 10 4.477 10 10 10"/><path fill="#F56700" d="M289.66 65.08c-6.07 0-11-4.93-11-11s4.93-11 11-11 11 4.93 11 11-4.93 11-11 11m0-20c-4.96 0-9 4.04-9 9s4.04 9 9 9 9-4.04 9-9-4.04-9-9-9"/><path fill="#E02200" d="M366.18 60.75c-.55 0-1-.45-1-1v-2c0-.55.45-1 1-1s1 .45 1 1v2c0 .55-.45 1-1 1m0 148.42c-.55 0-1-.45-1-1v-3.96c0-.55.45-1 1-1s1 .45 1 1v3.96c0 .55-.45 1-1 1m0-9.89c-.55 0-1-.45-1-1v-3.96c0-.55.45-1 1-1s1 .45 1 1v3.96c0 .55-.45 1-1 1m0-9.89c-.55 0-1-.45-1-1v-3.96c0-.55.45-1 1-1s1 .45 1 1v3.96c0 .55-.45 1-1 1m0-9.89c-.55 0-1-.45-1-1v-3.96c0-.55.45-1 1-1s1 .45 1 1v3.96c0 .55-.45 1-1 1m0-9.89c-.55 0-1-.45-1-1v-3.96c0-.55.45-1 1-1s1 .45 1 1v3.96c0 .55-.45 1-1 1m0-9.89c-.55 0-1-.45-1-1v-3.96c0-.55.45-1 1-1s1 .45 1 1v3.96c0 .55-.45 1-1 1m0-9.89c-.55 0-1-.45-1-1v-3.96c0-.55.45-1 1-1s1 .45 1 1v3.96c0 .55-.45 1-1 1m0-9.89c-.55 0-1-.45-1-1v-3.96c0-.55.45-1 1-1s1 .45 1 1v3.96c0 .55-.45 1-1 1m0-9.89c-.55 0-1-.45-1-1v-3.96c0-.55.45-1 1-1s1 .45 1 1v3.96c0 .55-.45 1-1 1m0-9.89c-.55 0-1-.45-1-1v-3.96c0-.55.45-1 1-1s1 .45 1 1v3.96c0 .55-.45 1-1 1m0-9.89c-.55 0-1-.45-1-1v-3.96c0-.55.45-1 1-1s1 .45 1 1v3.96c0 .55-.45 1-1 1m0-9.89c-.55 0-1-.45-1-1v-3.96c0-.55.45-1 1-1s1 .45 1 1v3.96c0 .55-.45 1-1 1m0-9.89c-.55 0-1-.45-1-1v-3.96c0-.55.45-1 1-1s1 .45 1 1v3.96c0 .55-.45 1-1 1m0-9.89c-.55 0-1-.45-1-1v-3.96c0-.55.45-1 1-1s1 .45 1 1v3.96c0 .55-.45 1-1 1m0-9.89c-.55 0-1-.45-1-1v-3.96c0-.55.45-1 1-1s1 .45 1 1v3.96c0 .55-.45 1-1 1m0 146.39c-.55 0-1-.45-1-1v-2c0-.55.45-1 1-1s1 .45 1 1v2c0 .55-.45 1-1 1"/><path fill="#E02200" d="M366.46 64.08c5.523 0 10-4.477 10-10s-4.477-10-10-10-10 4.477-10 10 4.477 10 10 10"/><path fill="#E02200" d="M366.46 65.08c-6.07 0-11-4.93-11-11s4.93-11 11-11 11 4.93 11 11-4.93 11-11 11m0-20c-4.96 0-9 4.04-9 9s4.04 9 9 9 9-4.04 9-9-4.04-9-9-9"/><path fill="#495A67" d="M410.82 219.51H36.58c-.55 0-1-.45-1-1V38.27c0-.55.45-1 1-1s1 .45 1 1v179.24h373.24c.55 0 1 .45 1 1s-.45 1-1 1"/></svg>