<svg xmlns="http://www.w3.org/2000/svg" width="292" height="260" fill="none"><path fill="#fff" d="M.5 4A3.5 3.5 0 0 1 4 .5h284a3.5 3.5 0 0 1 3.5 3.5v252a3.5 3.5 0 0 1-3.5 3.5H4A3.5 3.5 0 0 1 .5 256z"/><path stroke="#CBD4D8" d="M.5 4A3.5 3.5 0 0 1 4 .5h284a3.5 3.5 0 0 1 3.5 3.5v252a3.5 3.5 0 0 1-3.5 3.5H4A3.5 3.5 0 0 1 .5 256z"/><path fill="#0079AD" d="M64.35 78.89V48.28H22.1v30.61z"/><path fill="#22343C" d="M64.68 79.39H21.76V47.78h42.91v31.61zm-42.25-1h41.58V48.78H22.43z"/><path fill="#0099DB" d="M103.33 78.89V48.28H63.82v30.61z"/><path fill="#22343C" d="M103.66 79.39H63.49V47.78h40.17zm-39.51-1h38.84V48.78H64.15z"/><path fill="#2EC0FF" d="M128.45 78.89V48.28H97.57v30.61z"/><path fill="#22343C" d="M128.78 79.39H97.23V47.78h31.55zm-30.88-1h30.22V48.78H97.9z"/><path fill="#66D1FF" d="M144 78.89V48.28h-16.7v30.61z"/><path fill="#22343C" d="M144.34 79.39h-17.36V47.78h17.36zm-16.7-1h16.03V48.78h-16.03z"/><path fill="#0099DB" d="M117.61 208.72v-30.61h-11.24v30.61z"/><path fill="#22343C" d="M117.95 209.21h-11.91V177.6h11.91zm-11.24-1h10.58V178.6h-10.58z"/><path fill="#0079AD" d="M106.89 208.72v-30.61H38.34v30.61z"/><path fill="#22343C" d="M107.23 209.21H38.02V177.6h69.21zm-68.54-1h67.88V178.6H38.68v29.61z"/><path fill="#2EC0FF" d="M128.56 208.72v-30.61H111.9v30.61z"/><path fill="#22343C" d="M128.9 209.21h-17.33V177.6h17.33zm-16.66-1h16V178.6h-16z"/><path fill="#66D1FF" d="M143.97 208.71V178.1h-15.98v30.61z"/><path fill="#22343C" d="M144.3 209.21h-16.64V177.6h16.64zm-15.98-1h15.31V178.6h-15.31z"/><path fill="#0099DB" d="M130.74 122.16V91.55h-6.87v30.61z"/><path fill="#22343C" d="M131.07 122.66h-7.53V91.05h7.53zm-6.87-1h6.2V92.05h-6.2z"/><path fill="#0079AD" d="M124.04 122.17V91.56h-18.19v30.61z"/><path fill="#22343C" d="M124.38 122.66h-18.85V91.05h18.85zm-18.19-1h17.52V92.05h-17.52z"/><path fill="#2EC0FF" d="M131.92 122.16V91.55h-3v30.61z"/><path fill="#22343C" d="M132.25 122.66h-3.66V91.05h3.66zm-3-1h2.34V92.05h-2.34z"/><path fill="#66D1FF" d="M144.27 122.17V91.56h-12.54v30.61z"/><path fill="#22343C" d="M144.61 122.66H131.4V91.05h13.21zm-12.54-1h11.88V92.05h-11.88z"/><path fill="#0099DB" d="M91.43 165.44v-30.61h-5.59v30.61z"/><path fill="#22343C" d="M91.76 165.94h-6.25v-31.61h6.25zm-5.59-1h4.92v-29.61h-4.92z"/><path fill="#0079AD" d="M86.01 165.44v-30.61H67.82v30.61z"/><path fill="#22343C" d="M86.34 165.94H67.49v-31.61h18.85zm-18.19-1h17.52v-29.61H68.15z"/><path fill="#2EC0FF" d="M98.83 165.43v-30.61H89.6v30.61z"/><path fill="#22343C" d="M99.17 165.94h-9.9v-31.61h9.9zm-9.23-1h8.57v-29.61h-8.57z"/><path fill="#66D1FF" d="M143.28 165.44v-30.61H98.66v30.61z"/><path fill="#22343C" d="M144.61 165.94H98.32v-31.61h46.29zm-45.62-1h44.96v-29.61H98.99z"/><path fill="#1C9B71" d="M169.69 48.28v30.61h24.5V48.28z"/><path fill="#22343C" d="M194.52 79.39h-25.16V47.78h25.16zm-24.5-1h23.84V48.78h-23.84z"/><path fill="#1C7D5D" d="M193.86 48.28v30.61h24.5V48.28z"/><path fill="#22343C" d="M218.7 79.39h-25.16V47.78h25.16zm-24.5-1h23.84V48.78H194.2z"/><path fill="#29BC8B" d="M154.11 48.28v30.61h19.15V48.28z"/><path fill="#22343C" d="M173.6 79.39h-19.82V47.78h19.82zm-19.15-1h18.49V48.78h-18.49z"/><path fill="#6AE4BB" d="M143.97 48.28v30.61h10.5V48.28z"/><path fill="#22343C" d="M154.8 79.39h-11.17V47.78h11.17zm-10.5-1h9.84V48.78h-9.84z"/><path fill="#1C9B71" d="M153.49 134.83v30.61h22.58v-30.61z"/><path fill="#22343C" d="M176.41 165.94h-23.25v-31.61h23.25zm-22.58-1h21.92v-29.61h-21.92z"/><path fill="#1C7D5D" d="M175.75 134.83v30.61h42.61v-30.61z"/><path fill="#22343C" d="M218.7 165.94h-43.28v-31.61h43.28zm-42.61-1h41.95v-29.61h-41.95z"/><path fill="#29BC8B" d="M151.76 134.83v30.61h5.3v-30.61z"/><path fill="#22343C" d="M157.4 165.94h-5.97v-31.61h5.97zm-5.3-1h4.64v-29.61h-4.64z"/><path fill="#6AE4BB" d="M144.125 134.83v30.61h7.655v-30.61z"/><path fill="#22343C" d="M152.1 165.94h-8.24v-31.61h8.24zm-8.24-1h7.57v-29.61h-7.57z"/><path fill="#1C9B71" d="M198.1 178.11v30.61h28.44v-30.61z"/><path fill="#22343C" d="M226.87 209.21h-29.11V177.6h29.11zm-28.44-1h27.78V178.6h-27.78z"/><path fill="#1C7D5D" d="M220.53 178.11v30.61h27.27v-30.61z"/><path fill="#22343C" d="M248.14 209.21h-27.93V177.6h27.93zm-27.27-1h26.6V178.6h-26.6z"/><path fill="#29BC8B" d="M152.7 178.1v30.61h49.35V178.1z"/><path fill="#22343C" d="M202.37 209.21h-50.01V177.6h50.01zm-49.35-1h48.68V178.6h-48.68z"/><path fill="#6AE4BB" d="M143.97 178.11v30.61h9.12v-30.61z"/><path fill="#22343C" d="M153.42 209.21h-9.79V177.6h9.79zm-9.12-1h8.46V178.6h-8.46z"/><path fill="#1C9B71" d="M186.52 91.55v30.61h65.39V91.55z"/><path fill="#22343C" d="M252.25 122.66H186.2V91.05h66.05zm-65.39-1h64.73V92.05h-64.73z"/><path fill="#1C7D5D" d="M251.36 91.55v30.61h16.28V91.55z"/><path fill="#22343C" d="M267.98 122.66h-16.94V91.05h16.94zm-16.28-1h15.61V92.05H251.7z"/><path fill="#29BC8B" d="M181.71 91.55v30.61h10.85V91.55z"/><path fill="#22343C" d="M192.89 122.66h-11.51V91.05h11.51zm-10.85-1h10.18V92.05h-10.18z"/><path fill="#6AE4BB" d="M143.97 91.55v30.61h38.35V91.55z"/><path fill="#22343C" d="M182.65 122.66h-39.01V91.05h39.01zm-38.35-1h37.68V92.05H144.3z"/><path fill="#22343C" d="M143.97 220.07c-.37 0-.66-.45-.66-1V37.2c0-.55.3-1 .66-1s.66.45.66 1v181.87c0 .55-.3 1-.66 1"/></svg>