<svg width="452" height="160" viewBox="0 0 452 160" fill="none" xmlns="http://www.w3.org/2000/svg">
<path d="M33.235 36V27.069H34.847L39.566 33.348V27.069H41.178V36H39.566L34.847 29.721V36H33.235ZM46.3922 36.156C44.4032 36.156 42.7782 34.57 42.7782 32.633C42.7782 30.696 44.4032 29.123 46.3922 29.123C48.3682 29.123 49.9802 30.696 49.9802 32.633C49.9802 34.57 48.3682 36.156 46.3922 36.156ZM46.3922 34.804C47.5102 34.804 48.4332 33.829 48.4332 32.633C48.4332 31.437 47.5102 30.475 46.3922 30.475C45.2612 30.475 44.3382 31.437 44.3382 32.633C44.3382 33.829 45.2612 34.804 46.3922 34.804ZM54.4945 34.557L54.9495 35.623C54.5725 35.948 54.0265 36.156 53.5065 36.156C52.4015 36.156 51.6215 35.35 51.6215 34.219V30.592H50.6465V29.279H51.6215V27.433H53.1555V29.279H54.6765V30.592H53.1555V34.024C53.1555 34.479 53.4545 34.804 53.8315 34.804C54.1045 34.804 54.3515 34.7 54.4945 34.557ZM56.9419 28.265C56.4349 28.265 56.0319 27.836 56.0319 27.355C56.0319 26.874 56.4349 26.458 56.9419 26.458C57.4359 26.458 57.8389 26.874 57.8389 27.355C57.8389 27.836 57.4359 28.265 56.9419 28.265ZM56.1489 36V29.279H57.7349V36H56.1489ZM61.4623 28.72V29.279H62.9833V30.592H61.4623V36H59.9153V30.592H58.9403V29.279H59.9153V28.577C59.9153 27.446 60.6953 26.64 61.8133 26.64C62.3203 26.64 62.8663 26.848 63.2433 27.173L62.7883 28.187C62.6453 28.044 62.3983 27.94 62.1253 27.94C61.7483 27.94 61.4623 28.265 61.4623 28.72ZM64.8669 28.265C64.3599 28.265 63.9569 27.836 63.9569 27.355C63.9569 26.874 64.3599 26.458 64.8669 26.458C65.3609 26.458 65.7639 26.874 65.7639 27.355C65.7639 27.836 65.3609 28.265 64.8669 28.265ZM64.0739 36V29.279H65.6599V36H64.0739ZM70.6223 36.156C68.6723 36.156 67.0213 34.544 67.0213 32.633C67.0213 30.722 68.6723 29.123 70.6353 29.123C71.6623 29.123 72.5463 29.552 73.1833 30.215L72.1173 31.151C71.7533 30.748 71.1943 30.475 70.6223 30.475C69.5173 30.475 68.5943 31.463 68.5943 32.633C68.5943 33.816 69.5173 34.804 70.6223 34.804C71.2073 34.804 71.7793 34.531 72.1563 34.102L73.2223 35.025C72.5723 35.714 71.6753 36.156 70.6223 36.156ZM77.0767 29.123C78.8577 29.123 79.9497 30.254 79.9497 31.957V36H78.4027V35.207C77.9087 35.818 77.0767 36.156 76.2967 36.156C74.8667 36.156 73.8007 35.311 73.8007 34.011C73.8007 32.685 75.0097 31.775 76.5307 31.775C77.1417 31.775 77.7917 31.905 78.4027 32.126V31.957C78.4027 31.177 77.9867 30.423 76.7647 30.423C76.1277 30.423 75.5167 30.644 74.9447 30.93L74.3987 29.825C75.3477 29.357 76.2317 29.123 77.0767 29.123ZM76.6477 34.999C77.4147 34.999 78.2337 34.609 78.4027 33.894V33.127C77.9087 32.971 77.3497 32.88 76.7647 32.88C75.9717 32.88 75.3217 33.322 75.3217 33.959C75.3217 34.596 75.8937 34.999 76.6477 34.999ZM84.833 34.557L85.288 35.623C84.911 35.948 84.365 36.156 83.845 36.156C82.74 36.156 81.96 35.35 81.96 34.219V30.592H80.985V29.279H81.96V27.433H83.494V29.279H85.015V30.592H83.494V34.024C83.494 34.479 83.793 34.804 84.17 34.804C84.443 34.804 84.69 34.7 84.833 34.557ZM87.2804 28.265C86.7734 28.265 86.3704 27.836 86.3704 27.355C86.3704 26.874 86.7734 26.458 87.2804 26.458C87.7744 26.458 88.1774 26.874 88.1774 27.355C88.1774 27.836 87.7744 28.265 87.2804 28.265ZM86.4874 36V29.279H88.0734V36H86.4874ZM93.0488 36.156C91.0598 36.156 89.4348 34.57 89.4348 32.633C89.4348 30.696 91.0598 29.123 93.0488 29.123C95.0248 29.123 96.6368 30.696 96.6368 32.633C96.6368 34.57 95.0248 36.156 93.0488 36.156ZM93.0488 34.804C94.1668 34.804 95.0898 33.829 95.0898 32.633C95.0898 31.437 94.1668 30.475 93.0488 30.475C91.9178 30.475 90.9948 31.437 90.9948 32.633C90.9948 33.829 91.9178 34.804 93.0488 34.804ZM101.671 29.123C103.153 29.123 104.18 30.189 104.18 31.723V36H102.633V32.035C102.633 31.112 102.061 30.475 101.229 30.475C100.319 30.475 99.5912 31.112 99.5912 31.931V36H98.0052V29.279H99.5912V30.189C99.9942 29.552 100.774 29.123 101.671 29.123ZM108.243 36.156C107.216 36.156 106.111 35.792 105.292 35.155L105.968 34.115C106.696 34.635 107.541 34.934 108.269 34.934C108.984 34.934 109.413 34.635 109.413 34.167C109.413 33.634 108.789 33.452 107.996 33.244C106.527 32.854 105.604 32.451 105.604 31.229C105.604 29.981 106.644 29.123 108.139 29.123C109.062 29.123 109.972 29.448 110.713 29.929L110.089 30.995C109.465 30.592 108.763 30.332 108.139 30.332C107.554 30.332 107.086 30.605 107.086 31.073C107.086 31.515 107.502 31.632 108.516 31.944C109.66 32.256 110.882 32.633 110.882 34.024C110.882 35.324 109.803 36.156 108.243 36.156Z" fill="#22343C"/>
<rect x="32.5" y="52.5" width="15" height="15" rx="2.5" stroke="#0079AD" stroke-linecap="square"/>
<rect x="36" y="59" width="8" height="2" fill="#0079AD"/>
<path d="M55.222 64V55.069H56.236L61.774 62.336V55.069H62.788V64H61.774L56.236 56.733V64H55.222ZM68.0209 63.285C68.8139 63.285 69.7239 62.934 70.1399 62.479L70.7379 63.116C70.1529 63.753 68.9699 64.156 68.0339 64.156C66.2399 64.156 64.6279 62.687 64.6279 60.62C64.6279 58.618 66.1359 57.123 67.9429 57.123C69.9709 57.123 71.1279 58.657 71.1279 61.01H65.6289C65.7719 62.323 66.6949 63.285 68.0209 63.285ZM67.9819 57.994C66.7859 57.994 65.8239 58.839 65.6419 60.139H70.1659C70.0359 58.93 69.3209 57.994 67.9819 57.994ZM74.1093 64L71.8603 57.279H72.9003L74.5773 62.7L76.4103 57.279H77.2553L79.0883 62.7L80.7653 57.279H81.8053L79.5433 64H78.6203L76.8393 58.631L75.0323 64H74.1093ZM90.0219 63.285C90.8149 63.285 91.7249 62.934 92.1409 62.479L92.7389 63.116C92.1539 63.753 90.9709 64.156 90.0349 64.156C88.2409 64.156 86.6289 62.687 86.6289 60.62C86.6289 58.618 88.1369 57.123 89.9439 57.123C91.9719 57.123 93.1289 58.657 93.1289 61.01H87.6299C87.7729 62.323 88.6959 63.285 90.0219 63.285ZM89.9829 57.994C88.7869 57.994 87.8249 58.839 87.6429 60.139H92.1669C92.0369 58.93 91.3219 57.994 89.9829 57.994ZM101.991 57.123C103.395 57.123 104.383 58.202 104.383 59.723V64H103.408V59.853C103.408 58.761 102.771 57.994 101.861 57.994C100.795 57.994 100.041 58.709 100.041 59.723V64H99.0663V59.853C99.0663 58.761 98.4293 57.994 97.5193 57.994C96.4533 57.994 95.6993 58.709 95.6993 59.723V64H94.7243V57.279H95.6993V58.267C96.0373 57.565 96.7653 57.123 97.6493 57.123C98.6633 57.123 99.4563 57.682 99.8203 58.553C100.093 57.682 100.977 57.123 101.991 57.123ZM109.083 57.123C110.916 57.123 111.813 58.28 111.813 59.905V64H110.838V62.947C110.357 63.74 109.356 64.156 108.472 64.156C107.055 64.156 106.015 63.337 106.015 62.011C106.015 60.672 107.211 59.775 108.654 59.775C109.382 59.775 110.149 59.931 110.838 60.152V59.905C110.838 58.995 110.474 57.955 109.018 57.955C108.342 57.955 107.666 58.254 107.055 58.566L106.665 57.773C107.627 57.292 108.433 57.123 109.083 57.123ZM108.641 63.298C109.525 63.298 110.578 62.843 110.838 61.894V60.867C110.227 60.698 109.538 60.594 108.81 60.594C107.809 60.594 106.964 61.166 106.964 61.972C106.964 62.804 107.692 63.298 108.641 63.298ZM114.286 56.057C113.922 56.057 113.636 55.758 113.636 55.407C113.636 55.069 113.922 54.77 114.286 54.77C114.637 54.77 114.923 55.069 114.923 55.407C114.923 55.758 114.637 56.057 114.286 56.057ZM113.792 64V57.279H114.767V64H113.792ZM116.725 64V54.913H117.7V64H116.725Z" fill="#22343C"/>
<rect x="44.5" y="84.5" width="15" height="15" rx="2.5" stroke="#CCCCCC" stroke-linecap="square"/>
<path d="M73.436 88.031H68.054V90.969H72.903V91.931H68.054V96H67.027V87.069H73.436V88.031ZM75.9759 90.592C76.3789 89.695 77.3409 89.123 78.5759 89.123V89.994C77.0549 89.994 75.9759 90.93 75.9759 92.243V96H75.0009V89.279H75.9759V90.592ZM82.8287 96.156C80.9437 96.156 79.3447 94.544 79.3447 92.633C79.3447 90.722 80.9437 89.123 82.8287 89.123C84.7137 89.123 86.2997 90.722 86.2997 92.633C86.2997 94.544 84.7137 96.156 82.8287 96.156ZM82.8287 95.285C84.1547 95.285 85.2727 94.076 85.2727 92.633C85.2727 91.203 84.1547 89.994 82.8287 89.994C81.4897 89.994 80.3717 91.203 80.3717 92.633C80.3717 94.076 81.4897 95.285 82.8287 95.285ZM95.1769 89.123C96.5809 89.123 97.5689 90.202 97.5689 91.723V96H96.5939V91.853C96.5939 90.761 95.9569 89.994 95.0469 89.994C93.9809 89.994 93.2269 90.709 93.2269 91.723V96H92.2519V91.853C92.2519 90.761 91.6149 89.994 90.7049 89.994C89.6389 89.994 88.8849 90.709 88.8849 91.723V96H87.9099V89.279H88.8849V90.267C89.2229 89.565 89.9509 89.123 90.8349 89.123C91.8489 89.123 92.6419 89.682 93.0059 90.553C93.2789 89.682 94.1629 89.123 95.1769 89.123ZM106.429 96.156C104.544 96.156 102.945 94.544 102.945 92.633C102.945 90.722 104.544 89.123 106.429 89.123C107.339 89.123 108.184 89.5 108.821 90.111L108.145 90.774C107.703 90.293 107.092 89.994 106.429 89.994C105.09 89.994 103.972 91.203 103.972 92.633C103.972 94.076 105.09 95.285 106.429 95.285C107.105 95.285 107.729 94.973 108.184 94.466L108.86 95.129C108.223 95.766 107.365 96.156 106.429 96.156ZM113.336 96.156C111.451 96.156 109.852 94.544 109.852 92.633C109.852 90.722 111.451 89.123 113.336 89.123C115.221 89.123 116.807 90.722 116.807 92.633C116.807 94.544 115.221 96.156 113.336 96.156ZM113.336 95.285C114.662 95.285 115.78 94.076 115.78 92.633C115.78 91.203 114.662 89.994 113.336 89.994C111.997 89.994 110.879 91.203 110.879 92.633C110.879 94.076 111.997 95.285 113.336 95.285ZM121.615 89.123C123.097 89.123 124.137 90.202 124.137 91.723V96H123.162V91.853C123.162 90.761 122.473 89.994 121.485 89.994C120.354 89.994 119.405 90.787 119.405 91.723V96H118.43V89.279H119.405V90.358C119.795 89.643 120.666 89.123 121.615 89.123ZM129.061 95.012L129.542 95.727C129.191 96 128.749 96.156 128.294 96.156C127.332 96.156 126.656 95.441 126.656 94.44V90.15H125.603V89.279H126.656V87.433H127.631V89.279H129.282V90.15H127.631V94.44C127.631 94.934 127.969 95.285 128.359 95.285C128.658 95.285 128.918 95.168 129.061 95.012ZM133.652 89.123C135.485 89.123 136.382 90.28 136.382 91.905V96H135.407V94.947C134.926 95.74 133.925 96.156 133.041 96.156C131.624 96.156 130.584 95.337 130.584 94.011C130.584 92.672 131.78 91.775 133.223 91.775C133.951 91.775 134.718 91.931 135.407 92.152V91.905C135.407 90.995 135.043 89.955 133.587 89.955C132.911 89.955 132.235 90.254 131.624 90.566L131.234 89.773C132.196 89.292 133.002 89.123 133.652 89.123ZM133.21 95.298C134.094 95.298 135.147 94.843 135.407 93.894V92.867C134.796 92.698 134.107 92.594 133.379 92.594C132.378 92.594 131.533 93.166 131.533 93.972C131.533 94.804 132.261 95.298 133.21 95.298ZM141.494 96.156C139.609 96.156 138.01 94.544 138.01 92.633C138.01 90.722 139.609 89.123 141.494 89.123C142.404 89.123 143.249 89.5 143.886 90.111L143.21 90.774C142.768 90.293 142.157 89.994 141.494 89.994C140.155 89.994 139.037 91.203 139.037 92.633C139.037 94.076 140.155 95.285 141.494 95.285C142.17 95.285 142.794 94.973 143.249 94.466L143.925 95.129C143.288 95.766 142.43 96.156 141.494 96.156ZM148.371 95.012L148.852 95.727C148.501 96 148.059 96.156 147.604 96.156C146.642 96.156 145.966 95.441 145.966 94.44V90.15H144.913V89.279H145.966V87.433H146.941V89.279H148.592V90.15H146.941V94.44C146.941 94.934 147.279 95.285 147.669 95.285C147.968 95.285 148.228 95.168 148.371 95.012ZM152.61 96.156C151.674 96.156 150.634 95.805 149.828 95.155L150.335 94.44C151.102 94.999 151.869 95.285 152.61 95.285C153.494 95.285 154.092 94.869 154.092 94.232C154.092 93.504 153.312 93.27 152.402 93.01C150.777 92.542 150.153 92.061 150.153 91.099C150.153 89.877 151.167 89.123 152.506 89.123C153.338 89.123 154.196 89.409 154.911 89.877L154.443 90.631C153.767 90.202 153.104 89.994 152.506 89.994C151.752 89.994 151.128 90.332 151.128 90.982C151.128 91.567 151.622 91.749 152.87 92.152C153.949 92.49 155.067 92.854 155.067 94.128C155.067 95.363 154.001 96.156 152.61 96.156Z" fill="#22343C"/>
<rect x="44" y="116" width="16" height="16" rx="3" fill="#0079AD"/>
<path d="M48.52 123.735L51.732 126.549L56.52 121.38" stroke="white" stroke-width="2" stroke-linecap="round"/>
<path d="M73.436 120.031H68.054V122.969H72.903V123.931H68.054V128H67.027V119.069H73.436V120.031ZM75.9759 122.592C76.3789 121.695 77.3409 121.123 78.5759 121.123V121.994C77.0549 121.994 75.9759 122.93 75.9759 124.243V128H75.0009V121.279H75.9759V122.592ZM82.8287 128.156C80.9437 128.156 79.3447 126.544 79.3447 124.633C79.3447 122.722 80.9437 121.123 82.8287 121.123C84.7137 121.123 86.2997 122.722 86.2997 124.633C86.2997 126.544 84.7137 128.156 82.8287 128.156ZM82.8287 127.285C84.1547 127.285 85.2727 126.076 85.2727 124.633C85.2727 123.203 84.1547 121.994 82.8287 121.994C81.4897 121.994 80.3717 123.203 80.3717 124.633C80.3717 126.076 81.4897 127.285 82.8287 127.285ZM95.1769 121.123C96.5809 121.123 97.5689 122.202 97.5689 123.723V128H96.5939V123.853C96.5939 122.761 95.9569 121.994 95.0469 121.994C93.9809 121.994 93.2269 122.709 93.2269 123.723V128H92.2519V123.853C92.2519 122.761 91.6149 121.994 90.7049 121.994C89.6389 121.994 88.8849 122.709 88.8849 123.723V128H87.9099V121.279H88.8849V122.267C89.2229 121.565 89.9509 121.123 90.8349 121.123C91.8489 121.123 92.6419 121.682 93.0059 122.553C93.2789 121.682 94.1629 121.123 95.1769 121.123ZM106.338 127.285C107.131 127.285 108.041 126.934 108.457 126.479L109.055 127.116C108.47 127.753 107.287 128.156 106.351 128.156C104.557 128.156 102.945 126.687 102.945 124.62C102.945 122.618 104.453 121.123 106.26 121.123C108.288 121.123 109.445 122.657 109.445 125.01H103.946C104.089 126.323 105.012 127.285 106.338 127.285ZM106.299 121.994C105.103 121.994 104.141 122.839 103.959 124.139H108.483C108.353 122.93 107.638 121.994 106.299 121.994ZM116.8 128H115.656L113.641 125.322L111.613 128H110.469L113.069 124.568L110.573 121.279H111.717L113.641 123.814L115.552 121.279H116.696L114.213 124.568L116.8 128ZM121.152 127.012L121.633 127.727C121.282 128 120.84 128.156 120.385 128.156C119.423 128.156 118.747 127.441 118.747 126.44V122.15H117.694V121.279H118.747V119.433H119.722V121.279H121.373V122.15H119.722V126.44C119.722 126.934 120.06 127.285 120.45 127.285C120.749 127.285 121.009 127.168 121.152 127.012ZM126.041 127.285C126.834 127.285 127.744 126.934 128.16 126.479L128.758 127.116C128.173 127.753 126.99 128.156 126.054 128.156C124.26 128.156 122.648 126.687 122.648 124.62C122.648 122.618 124.156 121.123 125.963 121.123C127.991 121.123 129.148 122.657 129.148 125.01H123.649C123.792 126.323 124.715 127.285 126.041 127.285ZM126.002 121.994C124.806 121.994 123.844 122.839 123.662 124.139H128.186C128.056 122.93 127.341 121.994 126.002 121.994ZM131.81 122.592C132.213 121.695 133.175 121.123 134.41 121.123V121.994C132.889 121.994 131.81 122.93 131.81 124.243V128H130.835V121.279H131.81V122.592ZM138.957 121.123C140.439 121.123 141.479 122.202 141.479 123.723V128H140.504V123.853C140.504 122.761 139.815 121.994 138.827 121.994C137.696 121.994 136.747 122.787 136.747 123.723V128H135.772V121.279H136.747V122.358C137.137 121.643 138.008 121.123 138.957 121.123ZM146.182 121.123C148.015 121.123 148.912 122.28 148.912 123.905V128H147.937V126.947C147.456 127.74 146.455 128.156 145.571 128.156C144.154 128.156 143.114 127.337 143.114 126.011C143.114 124.672 144.31 123.775 145.753 123.775C146.481 123.775 147.248 123.931 147.937 124.152V123.905C147.937 122.995 147.573 121.955 146.117 121.955C145.441 121.955 144.765 122.254 144.154 122.566L143.764 121.773C144.726 121.292 145.532 121.123 146.182 121.123ZM145.74 127.298C146.624 127.298 147.677 126.843 147.937 125.894V124.867C147.326 124.698 146.637 124.594 145.909 124.594C144.908 124.594 144.063 125.166 144.063 125.972C144.063 126.804 144.791 127.298 145.74 127.298ZM150.904 128V118.913H151.879V128H150.904Z" fill="#22343C"/>
<rect x="0.5" y="0.5" width="451" height="159" rx="3.5" stroke="#ACB9BE"/>
</svg>
