<svg xmlns="http://www.w3.org/2000/svg" width="292" height="260" fill="none"><path fill="#22343C" d="M.5 4A3.5 3.5 0 0 1 4 .5h284a3.5 3.5 0 0 1 3.5 3.5v252a3.5 3.5 0 0 1-3.5 3.5H4A3.5 3.5 0 0 1 .5 256z"/><path stroke="#6A7A81" d="M.5 4A3.5 3.5 0 0 1 4 .5h284a3.5 3.5 0 0 1 3.5 3.5v252a3.5 3.5 0 0 1-3.5 3.5H4A3.5 3.5 0 0 1 .5 256z"/><path fill="#AC50D3" d="m140.47 131.65-48.76 67.11c-37.06-26.93-45.28-78.8-18.35-115.87 16.16-22.24 39.62-34.19 67.11-34.19z"/><path fill="#22343C" d="m91.82 199.46-.4-.29c-18.03-13.1-29.89-32.44-33.37-54.46-3.49-22.02 1.81-44.07 14.91-62.11 16.35-22.5 39.7-34.4 67.51-34.4h.5v83.61l-49.15 67.64zM139.97 49.2c-27.26.14-50.15 11.89-66.2 33.99-26.62 36.65-18.6 88.07 17.84 114.87l48.37-66.57V49.2z"/><path fill="#2EC0FF" d="m140.47 131.65 78.89 25.63c-14.16 43.57-60.95 67.41-104.52 53.26-8.71-2.83-15.71-6.4-23.12-11.78l48.76-67.11z"/><path fill="#22343C" d="M140.41 215.11c-8.53 0-17.19-1.32-25.73-4.09-8.81-2.86-15.77-6.41-23.26-11.85l-.4-.29 49.26-67.81 79.71 25.9-.15.48c-11.45 35.23-44.24 57.67-79.43 57.67zm-48-16.46c7.25 5.21 14.03 8.64 22.58 11.42 43.08 14 89.5-9.52 103.74-52.46l-78.07-25.37z"/><path fill="#D8E93F" d="m153.82 127.56 54.16-74.54c32.93 23.93 46.05 64.3 33.47 103.02l-87.63-28.47z"/><path fill="#22343C" d="m241.77 156.66-88.76-28.84 54.86-75.5.4.29c33.08 24.03 46.29 64.69 33.65 103.57zm-87.14-29.37 86.5 28.1c12.18-38.16-.75-77.97-33.04-101.69l-53.46 73.58z"/><path fill="#80F7FF" d="M140.47 131.65V48.7c18.33 0 33.93 5.07 48.76 15.84z"/><path fill="#22343C" d="M139.97 133.19V48.2h.5c18.5 0 34.08 5.06 49.05 15.94l.4.29-49.96 68.76zm1-83.99v80.91l47.56-65.46C174 54.21 158.86 49.29 140.97 49.2"/></svg>
