<svg xmlns="http://www.w3.org/2000/svg" width="420" height="260" fill="none"><path fill="#22343C" d="M.5 4A3.5 3.5 0 0 1 4 .5h412a3.5 3.5 0 0 1 3.5 3.5v252a3.5 3.5 0 0 1-3.5 3.5H4A3.5 3.5 0 0 1 .5 256z"/><path stroke="#6A7A81" d="M.5 4A3.5 3.5 0 0 1 4 .5h412a3.5 3.5 0 0 1 3.5 3.5v252a3.5 3.5 0 0 1-3.5 3.5H4A3.5 3.5 0 0 1 .5 256z"/><path fill="#929CA4" d="M371.57 103.48c-.42 0-.84-.33-1.29-.66-.4-.3-.97-.74-1.7-1.31-1.46-1.13-3.54-2.75-6.03-4.69-4.98-3.89-11.62-9.08-18.25-14.28-12.11-9.49-24.2-18.99-26.22-20.57l-88.57 4.09c-27.57 10.03-68.95 25.21-71.45 26.46-.05.04-.09.07-.15.1q-.75.4-29.36-18.01c-12.71-8.2-25.37-16.43-27.65-17.92-22 5.5-54.83 13.81-56.91 14.62-.32.19-.73.19-1.06-.03a1.01 1.01 0 0 1-.28-1.39c.29-.43.56-.84 58.19-15.25.27-.07.56-.02.79.13 20.84 13.55 52.04 33.72 55.83 35.86 1.29-.64 4.22-1.73 10.87-4.22 5.96-2.23 14.28-5.31 24.71-9.14 17.97-6.6 35.94-13.14 35.94-13.14a1 1 0 0 1 .3-.06l89.09-4.11c.24-.02.48.06.66.21 17.54 13.78 50.77 39.85 52.92 41.4.09.05.18.11.25.18.37.37.4.99.05 1.38-.22.25-.45.35-.68.35"/><path fill="#fff" d="M376.98 121.23H43.02c-.55 0-1-.45-1-1V32.15c0-.55.45-1 1-1s1 .45 1 1v87.08h332.96c.55 0 1 .45 1 1s-.45 1-1 1"/><path fill="#fff" d="M43.31 102.05a.995.995 0 0 1-.4-1.91l99.75-42.93a.98.98 0 0 1 .82.02l85.23 40.37 55.13-50.65c.16-.14.35-.23.56-.26l86.68-10.17c.54-.08 1.04.33 1.11.88.06.55-.33 1.04-.88 1.11l-86.359 10.13-55.381 50.89c-.3.27-.74.34-1.1.17l-85.43-40.46-99.34 42.75c-.13.05-.26.08-.4.08z"/><path fill="#22343C" d="M142.56 62.01a3.04 3.04 0 1 0-.001-6.081 3.04 3.04 0 0 0 .001 6.081"/><path fill="#fff" d="M142.56 63.02c-2.23 0-4.04-1.81-4.04-4.04s1.81-4.04 4.04-4.04 4.04 1.81 4.04 4.04-1.81 4.04-4.04 4.04m0-6.09c-1.13 0-2.04.92-2.04 2.04s.92 2.04 2.04 2.04 2.04-.92 2.04-2.04-.92-2.04-2.04-2.04"/><path fill="#22343C" d="M100.99 58.91a3.04 3.04 0 1 0 0-6.08 3.04 3.04 0 0 0 0 6.08"/><path fill="#929CA4" d="M100.99 59.91c-2.23 0-4.04-1.81-4.04-4.04s1.81-4.04 4.04-4.04 4.04 1.81 4.04 4.04-1.81 4.04-4.04 4.04m0-6.09c-1.13 0-2.04.92-2.04 2.04s.92 2.04 2.04 2.04 2.04-.92 2.04-2.04-.92-2.04-2.04-2.04"/><path fill="#22343C" d="M157.18 93.64a3.04 3.04 0 1 0 0-6.08 3.04 3.04 0 0 0 0 6.08"/><path fill="#929CA4" d="M157.18 94.64c-2.23 0-4.04-1.81-4.04-4.04s1.81-4.04 4.04-4.04 4.04 1.81 4.04 4.04-1.81 4.04-4.04 4.04m0-6.09c-1.13 0-2.04.92-2.04 2.04s.92 2.04 2.04 2.04 2.04-.92 2.04-2.04-.92-2.04-2.04-2.04"/><path fill="#22343C" d="M228.61 67.88a3.04 3.04 0 1 0 0-6.08 3.04 3.04 0 0 0 0 6.08"/><path fill="#929CA4" d="M228.61 68.89c-2.23 0-4.04-1.81-4.04-4.04s1.81-4.04 4.04-4.04 4.04 1.81 4.04 4.04-1.81 4.04-4.04 4.04m0-6.09c-1.13 0-2.04.92-2.04 2.04s.92 2.04 2.04 2.04 2.04-.92 2.04-2.04-.92-2.04-2.04-2.04"/><path fill="#22343C" d="M318.3 63.98a3.04 3.04 0 1 0 0-6.08 3.04 3.04 0 0 0 0 6.08"/><path fill="#929CA4" d="M318.3 64.99c-2.23 0-4.04-1.81-4.04-4.04s1.81-4.04 4.04-4.04 4.04 1.81 4.04 4.04-1.81 4.04-4.04 4.04m0-6.09c-1.13 0-2.04.92-2.04 2.04s.92 2.04 2.04 2.04 2.04-.92 2.04-2.04-.92-2.04-2.04-2.04"/><path fill="#22343C" d="M228.96 101.26a3.04 3.04 0 1 0 0-6.08 3.04 3.04 0 0 0 0 6.08"/><path fill="#fff" d="M228.96 102.27c-2.23 0-4.04-1.81-4.04-4.04s1.81-4.04 4.04-4.04S233 96 233 98.23s-1.81 4.04-4.04 4.04m0-6.09c-1.13 0-2.04.92-2.04 2.04s.92 2.04 2.04 2.04 2.04-.92 2.04-2.04-.92-2.04-2.04-2.04"/><path fill="#22343C" d="M284.08 49.93a3.04 3.04 0 1 0 0-6.08 3.04 3.04 0 0 0 0 6.08"/><path fill="#fff" d="M284.08 50.94c-2.23 0-4.04-1.81-4.04-4.04s1.81-4.04 4.04-4.04 4.04 1.81 4.04 4.04-1.81 4.04-4.04 4.04m0-6.09c-1.13 0-2.04.92-2.04 2.04s.92 2.04 2.04 2.04 2.04-.92 2.04-2.04-.92-2.04-2.04-2.04M83.75 153.84h-4.07v-1.69h9.94v1.69h-4.05v10.67h-1.82zm14.36 1.6c.53.3.94.72 1.23 1.27s.44 1.17.44 1.88v5.92h-1.73v-5.62c0-.7-.2-1.26-.59-1.7-.4-.44-.91-.66-1.55-.66-.47 0-.9.1-1.3.3s-.71.46-.94.8-.34.7-.34 1.1v5.78h-1.78v-12.58h1.78v4.64a3.1 3.1 0 0 1 1.21-1.14c.53-.29 1.12-.44 1.75-.44q1.005 0 1.8.45zm4.53-2.1c-.21-.22-.31-.47-.31-.76s.1-.54.31-.75.47-.32.77-.32.54.11.75.32.31.46.31.75-.1.54-.31.76-.46.32-.75.32-.56-.11-.77-.32m-.13 1.87h1.78v9.31h-1.78zm5.67 9.16c-.7-.24-1.32-.58-1.87-1.03l.81-1.22c.52.38 1.04.67 1.58.87s1.07.3 1.58.3c.55 0 .99-.11 1.32-.34s.5-.53.5-.92-.17-.69-.52-.89-.89-.4-1.64-.6c-1.14-.32-1.96-.68-2.46-1.06s-.75-.94-.75-1.66c0-.85.31-1.54.94-2.05.63-.52 1.44-.77 2.44-.77.59 0 1.18.1 1.78.29s1.15.46 1.66.79l-.74 1.26q-1.44-.9-2.7-.9c-.49 0-.9.11-1.21.32q-.48.315-.48.87c0 .24.07.43.22.58.14.14.36.27.65.39s.74.27 1.35.46c.67.2 1.22.4 1.65.58.43.19.78.46 1.07.82s.43.83.43 1.4c0 .88-.33 1.58-.98 2.1q-.975.78-2.55.78c-.7 0-1.39-.12-2.09-.36zm12.84-11.03c-.21-.22-.31-.47-.31-.76s.1-.54.31-.75.47-.32.77-.32.54.11.75.32.31.46.31.75-.1.54-.31.76-.46.32-.75.32-.56-.11-.77-.32m-.13 1.87h1.78v9.31h-1.78zm5.66 9.16c-.7-.24-1.32-.58-1.87-1.03l.81-1.22c.52.38 1.04.67 1.58.87s1.07.3 1.58.3c.55 0 .99-.11 1.32-.34s.5-.53.5-.92-.17-.69-.52-.89-.89-.4-1.64-.6c-1.14-.32-1.96-.68-2.46-1.06s-.75-.94-.75-1.66c0-.85.31-1.54.94-2.05.63-.52 1.44-.77 2.44-.77.59 0 1.18.1 1.78.29s1.15.46 1.66.79l-.74 1.26q-1.44-.9-2.7-.9c-.49 0-.9.11-1.21.32q-.48.315-.48.87c0 .24.07.43.22.58.14.14.36.27.65.39s.74.27 1.35.46c.67.2 1.22.4 1.65.58.43.19.78.46 1.07.82s.43.83.43 1.4c0 .88-.33 1.58-.98 2.1q-.975.78-2.55.78c-.7 0-1.39-.12-2.09-.36zm17.36-.3c-.25.2-.54.37-.87.49s-.66.18-1 .18c-.72 0-1.31-.24-1.76-.71-.46-.47-.68-1.08-.68-1.83v-5.47h-1.39v-1.51h1.39v-2.56h1.75v2.56h2.2v1.51h-2.2v5.35c0 .32.1.59.29.8s.42.32.68.32c.19 0 .37-.03.54-.1s.3-.15.4-.24l.67 1.22zm8.4-8.63c.53.3.94.72 1.23 1.27s.44 1.17.44 1.88v5.92h-1.73v-5.62c0-.7-.2-1.26-.59-1.7-.4-.44-.91-.66-1.55-.66-.47 0-.9.1-1.3.3s-.71.46-.94.8-.34.7-.34 1.1v5.78h-1.78v-12.58h1.78v4.64a3.1 3.1 0 0 1 1.21-1.14c.53-.29 1.12-.44 1.75-.44q1.005 0 1.8.45zm9.98 7.51c.52-.2.93-.46 1.22-.76l1.04 1.1c-.4.43-.95.78-1.67 1.04-.71.26-1.41.4-2.1.4-.85 0-1.65-.21-2.38-.63-.74-.42-1.33-1-1.76-1.75s-.66-1.59-.66-2.51.21-1.74.63-2.48.99-1.32 1.7-1.74 1.5-.63 2.35-.63c.94 0 1.74.22 2.42.67.68.44 1.19 1.07 1.55 1.89.35.82.53 1.78.53 2.88h-7.43c.11.84.44 1.52.98 2.04q.825.78 2.04.78c.5 0 1.02-.1 1.54-.31zm-3.53-5.76c-.55.48-.89 1.12-1.02 1.93h5.69c-.1-.78-.38-1.42-.85-1.91s-1.1-.74-1.88-.74-1.39.24-1.94.72m22.12-5.26v12.58h-1.78v-1.58c-.37.56-.84 1-1.4 1.32q-.84.48-1.89.48c-.82 0-1.55-.21-2.2-.62q-.975-.615-1.53-1.74c-.37-.74-.56-1.58-.56-2.52s.19-1.77.56-2.51.88-1.31 1.53-1.73 1.38-.62 2.2-.62q1.05 0 1.89.48c.56.32 1.03.76 1.4 1.32v-4.86zm-3.18 10.83c.44-.28.78-.68 1.03-1.19s.37-1.08.37-1.72-.12-1.21-.37-1.71-.59-.9-1.03-1.18a2.7 2.7 0 0 0-1.48-.42c-.55 0-1.05.14-1.49.42s-.79.67-1.04 1.18-.37 1.07-.37 1.71.12 1.21.37 1.72.59.91 1.04 1.19c.44.28.94.42 1.49.42s1.05-.14 1.48-.42m12.48-6.7c.68.71 1.03 1.65 1.03 2.83v5.63h-1.75v-1.26c-.34.47-.79.83-1.35 1.09s-1.15.39-1.75.39c-1 0-1.82-.27-2.47-.81s-.97-1.26-.97-2.16c0-.6.16-1.14.49-1.61s.78-.84 1.35-1.1 1.2-.39 1.88-.39c.89 0 1.82.17 2.81.5v-.29c0-.68-.19-1.26-.56-1.72s-.98-.69-1.84-.69c-.73 0-1.6.26-2.61.77l-.67-1.31c1.25-.62 2.42-.94 3.53-.94 1.22 0 2.18.35 2.86 1.06zm-1.73 6.81c.53-.31.86-.73 1.01-1.27v-1.24c-.79-.24-1.64-.36-2.54-.36-.64 0-1.18.16-1.62.49-.44.32-.67.73-.67 1.22s.19.88.58 1.18c.39.29.89.44 1.5.44s1.2-.15 1.73-.46zm10.12 1.2c-.25.2-.54.37-.87.49s-.66.18-1 .18c-.72 0-1.31-.24-1.76-.71-.46-.47-.68-1.08-.68-1.83v-5.47h-1.39v-1.51h1.39v-2.56h1.75v2.56h2.2v1.51h-2.2v5.35c0 .32.1.59.29.8s.42.32.68.32c.19 0 .37-.03.54-.1s.3-.15.4-.24l.67 1.22zm8.24-8.01c.68.71 1.03 1.65 1.03 2.83v5.63h-1.75v-1.26c-.34.47-.79.83-1.35 1.09s-1.15.39-1.75.39c-1 0-1.82-.27-2.47-.81s-.97-1.26-.97-2.16c0-.6.16-1.14.49-1.61s.78-.84 1.35-1.1 1.2-.39 1.88-.39c.89 0 1.82.17 2.81.5v-.29c0-.68-.19-1.26-.56-1.72s-.98-.69-1.84-.69c-.73 0-1.6.26-2.61.77l-.67-1.31c1.25-.62 2.42-.94 3.53-.94 1.22 0 2.18.35 2.86 1.06zm-1.73 6.81c.53-.31.86-.73 1.01-1.27v-1.24c-.79-.24-1.64-.36-2.54-.36-.64 0-1.18.16-1.62.49-.44.32-.67.73-.67 1.22s.19.88.58 1.18c.39.29.89.44 1.5.44s1.2-.15 1.73-.46zm10.54-9.53c-.21-.22-.31-.47-.31-.76s.1-.54.31-.75.47-.32.77-.32.54.11.75.32.31.46.31.75-.1.54-.31.76-.46.32-.75.32-.56-.11-.77-.32m-.13 1.87h1.78v9.31h-1.78zm11.25.23c.53.3.94.72 1.23 1.27s.44 1.17.44 1.88v5.92h-1.73v-5.62c0-.7-.2-1.26-.59-1.7-.4-.44-.91-.66-1.55-.66-.47 0-.9.1-1.3.3s-.71.46-.94.8-.34.7-.34 1.1v5.78h-1.78v-9.31h1.78v1.37a3.1 3.1 0 0 1 1.21-1.14c.53-.29 1.12-.44 1.75-.44q1.005 0 1.8.45zm13.97 8.63c-.25.2-.54.37-.87.49s-.66.18-1 .18c-.72 0-1.31-.24-1.76-.71-.46-.47-.68-1.08-.68-1.83v-5.47h-1.39v-1.51h1.39v-2.56h1.75v2.56h2.2v1.51h-2.2v5.35c0 .32.1.59.29.8s.42.32.68.32c.19 0 .37-.03.54-.1s.3-.15.4-.24l.67 1.22zm8.24-8.01c.68.71 1.03 1.65 1.03 2.83v5.63h-1.75v-1.26c-.34.47-.79.83-1.35 1.09s-1.15.39-1.75.39c-1 0-1.82-.27-2.47-.81s-.97-1.26-.97-2.16c0-.6.16-1.14.49-1.61s.78-.84 1.35-1.1 1.2-.39 1.88-.39c.89 0 1.82.17 2.81.5v-.29c0-.68-.19-1.26-.56-1.72s-.98-.69-1.84-.69c-.73 0-1.6.26-2.61.77l-.67-1.31c1.25-.62 2.42-.94 3.53-.94 1.22 0 2.18.35 2.86 1.06zm-1.73 6.81c.53-.31.86-.73 1.01-1.27v-1.24c-.79-.24-1.64-.36-2.54-.36-.64 0-1.18.16-1.62.49-.44.32-.67.73-.67 1.22s.19.88.58 1.18c.39.29.89.44 1.5.44s1.2-.15 1.73-.46zm12.78-7.26c.65.41 1.16.99 1.53 1.73s.56 1.58.56 2.51-.19 1.78-.56 2.52q-.555 1.11-1.53 1.74c-.65.42-1.37.62-2.18.62-.72 0-1.37-.16-1.94-.49-.58-.32-1.04-.79-1.4-1.39v1.66h-1.78v-12.58h1.78v4.93c.36-.6.83-1.06 1.4-1.39s1.22-.49 1.94-.49c.8 0 1.53.21 2.18.62zm-1.12 7.15c.44-.28.79-.68 1.04-1.19s.37-1.08.37-1.72-.12-1.21-.37-1.71-.59-.9-1.04-1.18-.94-.42-1.49-.42-1.05.14-1.48.42-.78.67-1.03 1.18c-.25.5-.37 1.07-.37 1.71s.12 1.21.37 1.72.59.91 1.03 1.19.93.42 1.48.42 1.05-.14 1.49-.42m5.46-10.83h1.78v12.58h-1.78zm10.29 11.02c.52-.2.93-.46 1.22-.76l1.04 1.1c-.4.43-.95.78-1.67 1.04-.71.26-1.41.4-2.1.4-.85 0-1.65-.21-2.38-.63-.74-.42-1.33-1-1.76-1.75s-.66-1.59-.66-2.51.21-1.74.63-2.48.99-1.32 1.7-1.74 1.5-.63 2.35-.63c.94 0 1.74.22 2.42.67.68.44 1.19 1.07 1.55 1.89.35.82.53 1.78.53 2.88h-7.43c.11.84.44 1.52.98 2.04q.825.78 2.04.78c.5 0 1.02-.1 1.54-.31zm-3.53-5.76c-.55.48-.89 1.12-1.02 1.93h5.69c-.1-.78-.38-1.42-.85-1.91s-1.1-.74-1.88-.74-1.39.24-1.94.72m15.54-1.98h2.2v1.51h-2.2v7.79h-1.75v-7.79h-1.4v-1.51h1.4v-1.12c0-.74.23-1.35.68-1.83.46-.47 1.04-.71 1.76-.71q.51 0 .99.18c.32.12.61.28.86.49l-.65 1.19c-.1-.1-.23-.18-.41-.24-.17-.07-.36-.1-.55-.1-.26 0-.49.11-.68.32s-.28.48-.28.8v1.03zm5.59 8.86a4.9 4.9 0 0 1-1.79-1.78c-.44-.75-.67-1.56-.67-2.44s.22-1.69.67-2.43c.44-.74 1.04-1.33 1.79-1.77a4.73 4.73 0 0 1 2.44-.66c.88 0 1.69.22 2.44.66s1.35 1.03 1.79 1.77.67 1.55.67 2.43-.22 1.69-.67 2.44c-.44.75-1.04 1.34-1.79 1.78s-1.56.66-2.44.66-1.69-.22-2.44-.66m4-1.34c.47-.3.85-.7 1.13-1.21s.42-1.06.42-1.67-.14-1.15-.42-1.67a3.3 3.3 0 0 0-1.13-1.21c-.47-.3-.99-.44-1.56-.44s-1.08.15-1.56.44-.85.7-1.13 1.21-.42 1.07-.42 1.67.14 1.16.42 1.67.66.92 1.13 1.21q.705.45 1.56.45c.57 0 1.08-.15 1.56-.45m8.62-7.19c.61-.37 1.31-.55 2.11-.55v1.55c-.67 0-1.27.13-1.8.38s-.94.61-1.22 1.07c-.29.46-.43.99-.43 1.58v4.95h-1.78v-9.31h1.78v1.82c.29-.62.73-1.12 1.34-1.48zm16.34-.09c.51.31.91.73 1.2 1.28s.43 1.17.43 1.86v5.92h-1.73v-5.65c0-.68-.19-1.24-.56-1.67s-.85-.65-1.42-.65q-1.005 0-1.65.6c-.43.4-.64.92-.64 1.56v5.81h-1.75v-5.65c0-.68-.18-1.24-.55-1.67s-.84-.65-1.41-.65q-1.005 0-1.65.6c-.43.4-.64.92-.64 1.56v5.81h-1.78v-9.31h1.78v1.33c.24-.48.59-.86 1.05-1.13.46-.28.99-.41 1.59-.41.73 0 1.37.2 1.93.59.55.4.95.94 1.19 1.62.14-.66.48-1.19 1.01-1.6s1.15-.61 1.87-.61c.64 0 1.21.15 1.72.46zm10.74.61c.68.71 1.03 1.65 1.03 2.83v5.63h-1.75v-1.26c-.34.47-.79.83-1.35 1.09s-1.15.39-1.75.39c-1 0-1.82-.27-2.47-.81s-.97-1.26-.97-2.16c0-.6.16-1.14.49-1.61s.78-.84 1.35-1.1 1.2-.39 1.88-.39c.89 0 1.82.17 2.81.5v-.29c0-.68-.19-1.26-.56-1.72s-.98-.69-1.84-.69c-.73 0-1.6.26-2.61.77l-.67-1.31c1.25-.62 2.42-.94 3.53-.94 1.22 0 2.18.35 2.86 1.06zm-1.73 6.81c.53-.31.86-.73 1.01-1.27v-1.24c-.79-.24-1.64-.36-2.54-.36-.64 0-1.18.16-1.62.49-.44.32-.67.73-.67 1.22s.19.88.58 1.18c.39.29.89.44 1.5.44s1.2-.15 1.73-.46zm10.12 1.2c-.25.2-.54.37-.87.49s-.66.18-1 .18c-.72 0-1.31-.24-1.76-.71-.46-.47-.68-1.08-.68-1.83v-5.47h-1.39v-1.51h1.39v-2.56h1.75v2.56h2.2v1.51h-2.2v5.35c0 .32.1.59.29.8s.42.32.68.32c.19 0 .37-.03.54-.1s.3-.15.4-.24l.67 1.22z"/><path fill="#2EC0FF" d="M376.57 228.85H43.02c-.55 0-1-.45-1-1v-87.8c0-.55.45-1 1-1h333.55c.55 0 1 .45 1 1v87.8c0 .55-.45 1-1 1m-332.55-2h331.55v-85.8H44.02z"/><path fill="#2EC0FF" d="M376.54 175.15H43.05v2h333.49zm0 12.89H43.05v2h333.49zm0 12.9H43.05v2h333.49zm0 12.89H43.05v2h333.49z"/><path fill="#2EC0FF" d="M122.26 177.16h-2v50.09h2zm88.53 0h-2v50.09h2zm88.54 0h-2v50.09h2z"/></svg>