<svg xmlns="http://www.w3.org/2000/svg" width="450" height="260" fill="none"><path fill="#22343C" d="M.5 4A3.5 3.5 0 0 1 4 .5h442a3.5 3.5 0 0 1 3.5 3.5v252a3.5 3.5 0 0 1-3.5 3.5H4A3.5 3.5 0 0 1 .5 256z"/><path stroke="#6A7A81" d="M.5 4A3.5 3.5 0 0 1 4 .5h442a3.5 3.5 0 0 1 3.5 3.5v252a3.5 3.5 0 0 1-3.5 3.5H4A3.5 3.5 0 0 1 .5 256z"/><path fill="#22343C" d="M.5 4A3.5 3.5 0 0 1 4 .5h443a3.5 3.5 0 0 1 3.5 3.5v252a3.5 3.5 0 0 1-3.5 3.5H4A3.5 3.5 0 0 1 .5 256z"/><path stroke="#6A7A81" d="M.5 4A3.5 3.5 0 0 1 4 .5h443a3.5 3.5 0 0 1 3.5 3.5v252a3.5 3.5 0 0 1-3.5 3.5H4A3.5 3.5 0 0 1 .5 256z"/><path fill="#4F6169" d="M271.05 224.77a40.5 40.5 0 0 1-7.19-23.11c0-22.48 18.23-40.71 40.71-40.71s40.71 18.23 40.71 40.71c0 8.58-2.66 16.54-7.19 23.11l13.56 9.44a57 57 0 0 0 10.16-32.55c0-31.61-25.62-57.23-57.23-57.23s-57.23 25.62-57.23 57.23c0 12.1 3.76 23.31 10.16 32.55l13.56-9.44zm-.3-119.94a40.5 40.5 0 0 1-7.19-23.11c0-22.48 18.23-40.71 40.71-40.71s40.71 18.23 40.71 40.71c0 8.58-2.66 16.54-7.19 23.11l13.56 9.44a57 57 0 0 0 10.16-32.55c0-31.61-25.62-57.23-57.23-57.23s-57.23 25.62-57.23 57.23c0 12.1 3.76 23.31 10.16 32.55l13.56-9.44zM111.97 224.77a40.5 40.5 0 0 1-7.19-23.11c0-22.48 18.23-40.71 40.71-40.71s40.71 18.23 40.71 40.71c0 8.58-2.66 16.54-7.19 23.11l13.56 9.44a57 57 0 0 0 10.16-32.55c0-31.61-25.62-57.23-57.23-57.23s-57.23 25.62-57.23 57.23c0 12.1 3.76 23.31 10.16 32.55l13.56-9.44zm0-119.94a40.5 40.5 0 0 1-7.19-23.11c0-22.48 18.23-40.71 40.71-40.71s40.71 18.23 40.71 40.71c0 8.58-2.66 16.54-7.19 23.11l13.56 9.44a57 57 0 0 0 10.16-32.55c0-31.61-25.62-57.23-57.23-57.23S88.27 50.11 88.27 81.72c0 12.1 3.76 23.31 10.16 32.55l13.56-9.44z"/><path fill="#67CA16" d="M100.42 46.43a57 57 0 0 0-12.17 35.28c0 12.1 3.76 23.31 10.16 32.55l13.56-9.44a40.5 40.5 0 0 1-7.19-23.11c0-9.65 3.36-18.51 8.97-25.49l-13.32-9.79z"/><path fill="#FFDB24" d="M304.57 24.49h-.3c-31.61 0-57.23 25.62-57.23 57.23 0 12.1 3.76 23.31 10.16 32.55l13.56-9.44a40.5 40.5 0 0 1-7.19-23.11c0-22.48 18.23-40.71 40.71-40.71h.3V24.49z"/><path fill="#fff" d="m124.23 71.42.57-.71c.64.61 1.36.91 2.15.91.43 0 .77-.1 1.01-.29s.36-.43.36-.71-.12-.51-.38-.67c-.25-.16-.67-.3-1.26-.43-.49-.11-.9-.24-1.21-.39s-.56-.34-.74-.58-.27-.55-.27-.92.1-.69.29-.98q.3-.435.81-.69c.35-.17.73-.25 1.17-.25.48 0 .91.08 1.3.24q.585.24 1.08.69l-.55.72c-.28-.25-.58-.45-.9-.59s-.65-.21-.98-.21c-.23 0-.45.04-.64.13q-.285.135-.45.36c-.11.15-.16.31-.16.49 0 .2.06.36.18.49s.29.23.52.32.54.18.94.27c.73.17 1.28.4 1.65.68s.56.69.56 1.24c0 .37-.09.71-.28 1-.18.29-.46.52-.81.69-.36.17-.79.25-1.29.25-1.07 0-1.97-.35-2.68-1.05zm10.55-3.97v4.92h-.94v-.7c-.15.25-.37.45-.65.59-.28.15-.59.22-.92.22-.36 0-.67-.08-.95-.24s-.5-.38-.65-.67c-.16-.29-.23-.62-.23-.99v-3.13h.92v2.97c0 .37.1.67.31.9s.48.35.82.35c.25 0 .47-.05.68-.16.21-.1.37-.25.49-.42s.18-.37.18-.58v-3.05h.94zm2.66 0h1.16v.8h-1.16v4.12h-.92v-4.12h-.74v-.8h.74v-.59c0-.39.12-.71.36-.97.24-.25.55-.38.93-.38.18 0 .35.03.52.1.17.06.32.15.46.26l-.34.63a.7.7 0 0 0-.21-.13 1 1 0 0 0-.29-.05c-.14 0-.26.05-.36.17a.6.6 0 0 0-.15.42zm3.18 0h1.16v.8h-1.16v4.12h-.92v-4.12h-.74v-.8h.74v-.59c0-.39.12-.71.36-.97.24-.25.55-.38.93-.38.18 0 .35.03.52.1.17.06.32.15.46.26l-.34.63a.7.7 0 0 0-.21-.13 1 1 0 0 0-.29-.05c-.14 0-.26.05-.36.17a.6.6 0 0 0-.15.42zm2.13-.99a.56.56 0 0 1-.17-.4.58.58 0 0 1 .57-.57c.15 0 .28.06.4.17.11.11.17.24.17.4s-.06.29-.17.4-.24.17-.4.17-.29-.06-.4-.17m-.07.99h.94v4.92h-.94zm3.38 4.68c-.4-.23-.71-.55-.95-.95s-.36-.82-.36-1.28.12-.88.36-1.27.56-.71.96-.94.83-.35 1.28-.35c.35 0 .68.07.98.2.31.13.58.32.83.56l-.64.59c-.15-.17-.33-.29-.54-.39s-.42-.14-.64-.14c-.29 0-.56.08-.82.24-.25.16-.46.37-.6.64s-.22.56-.22.87.07.61.22.88.35.48.6.64.53.24.82.24q.345 0 .66-.15c.21-.1.39-.23.55-.4l.64.58c-.25.25-.53.44-.84.58s-.65.21-1 .21c-.46 0-.89-.12-1.29-.35zm4.18-5.67a.56.56 0 0 1-.17-.4.58.58 0 0 1 .57-.57c.15 0 .28.06.4.17.11.11.17.24.17.4s-.06.29-.17.4-.24.17-.4.17-.29-.06-.4-.17m-.07.99h.94v4.92h-.94zm5.44 4.09c.28-.11.49-.24.64-.4l.55.58c-.21.23-.5.41-.88.55a3.2 3.2 0 0 1-1.11.21q-.675 0-1.26-.33t-.93-.93c-.23-.4-.35-.84-.35-1.33s.11-.92.33-1.31.52-.7.9-.92.79-.33 1.24-.33c.49 0 .92.12 1.28.35.36.24.63.57.82 1s.28.94.28 1.52h-3.93c.06.44.23.8.52 1.08s.65.41 1.08.41c.27 0 .54-.05.81-.16zm-1.86-3.04q-.435.375-.54 1.02h3.01c-.05-.41-.2-.75-.45-1.01q-.375-.39-.99-.39c-.41 0-.73.13-1.02.38zm7.94-.93c.28.16.5.38.65.67.16.29.23.62.23.99v3.13h-.91v-2.97c0-.37-.1-.67-.31-.9s-.48-.35-.82-.35c-.25 0-.48.05-.69.16s-.37.25-.49.42-.18.37-.18.58v3.05h-.94v-4.92h.94v.72c.15-.25.36-.45.64-.6.28-.16.59-.23.93-.23.36 0 .67.08.95.24zm4.78 4.56c-.13.11-.29.19-.46.26-.17.06-.35.1-.53.1-.38 0-.69-.12-.93-.38-.24-.25-.36-.57-.36-.97v-2.89h-.73v-.8h.73V66.1h.92v1.35h1.16v.8h-1.16v2.83q0 .255.15.42c.1.11.22.17.36.17.1 0 .2-.02.29-.05.09-.04.16-.08.21-.13l.35.65zm-33.06 6.86c.27.16.48.39.63.68s.23.62.23.98v3.13h-.91v-2.99c0-.36-.1-.66-.29-.88a.95.95 0 0 0-.75-.34c-.36 0-.65.11-.87.32a1.1 1.1 0 0 0-.34.82v3.07h-.92v-2.99c0-.36-.1-.66-.29-.88a.92.92 0 0 0-.75-.34c-.35 0-.65.11-.87.32a1.1 1.1 0 0 0-.34.82v3.07H127v-4.92h.94v.7c.13-.25.31-.45.56-.6.24-.15.52-.22.84-.22.39 0 .73.1 1.02.31s.5.5.63.86c.08-.35.25-.63.53-.85s.61-.32.99-.32c.34 0 .64.08.91.24zm5.25 3.96c.28-.11.49-.24.64-.4l.55.58c-.21.23-.5.41-.88.55a3.2 3.2 0 0 1-1.11.21q-.675 0-1.26-.33t-.93-.93c-.23-.4-.35-.84-.35-1.33s.11-.92.33-1.31.52-.7.9-.92.79-.33 1.24-.33c.49 0 .92.12 1.28.35.36.24.63.57.82 1s.28.94.28 1.52h-3.93c.06.44.23.8.52 1.08s.65.41 1.08.41c.27 0 .54-.05.81-.16zm-1.86-3.04q-.435.375-.54 1.02h3.01c-.05-.41-.2-.75-.45-1.01q-.375-.39-.99-.39c-.41 0-.73.13-1.02.38zm10.89-.92c.27.16.48.39.63.68s.23.62.23.98v3.13h-.91v-2.99c0-.36-.1-.66-.29-.88a.95.95 0 0 0-.75-.34c-.36 0-.65.11-.87.32a1.1 1.1 0 0 0-.34.82v3.07h-.92v-2.99c0-.36-.1-.66-.29-.88a.92.92 0 0 0-.75-.34c-.35 0-.65.11-.87.32a1.1 1.1 0 0 0-.34.82v3.07h-.94v-4.92h.94v.7c.13-.25.31-.45.56-.6.24-.15.52-.22.84-.22.39 0 .73.1 1.02.31s.5.5.63.86c.08-.35.25-.63.53-.85s.61-.32.99-.32c.34 0 .64.08.91.24zm3.2 4.56c-.4-.23-.71-.54-.95-.94-.23-.4-.35-.83-.35-1.29s.12-.89.35-1.28.55-.71.95-.94a2.55 2.55 0 0 1 2.58 0c.4.23.71.54.95.94.23.39.35.82.35 1.28s-.12.89-.35 1.29-.55.71-.95.94a2.55 2.55 0 0 1-2.58 0m2.11-.71a1.77 1.77 0 0 0 .82-1.52 1.77 1.77 0 0 0-.82-1.52c-.25-.16-.52-.23-.82-.23s-.57.08-.82.23-.45.37-.6.64-.22.56-.22.88a1.77 1.77 0 0 0 .82 1.52c.25.16.52.24.82.24s.57-.08.82-.24m4.56-3.8c.32-.19.69-.29 1.12-.29v.82c-.35 0-.67.07-.95.2a1.5 1.5 0 0 0-.88 1.4v2.62h-.94v-4.92h.94v.96c.15-.33.39-.59.71-.79m1.93 6.24.21-.72q.27.15.6.15c.16 0 .29-.03.4-.09s.2-.16.28-.29l.25-.52-2.11-4.95h1.01l1.58 3.88 1.49-3.88h.98l-2.17 5.37c-.17.43-.39.75-.65.95s-.57.31-.93.31c-.35 0-.67-.07-.93-.21zm-30.35 5.45c.36.37.54.87.54 1.49v2.98h-.92v-.67c-.18.25-.42.44-.71.58-.3.14-.61.21-.92.21-.53 0-.96-.14-1.3-.43q-.51-.435-.51-1.14c0-.32.09-.6.26-.85s.41-.44.71-.58q.45-.21.99-.21c.47 0 .96.09 1.48.27v-.15c0-.36-.1-.66-.29-.91s-.52-.37-.97-.37c-.39 0-.85.14-1.38.41l-.35-.7c.66-.33 1.28-.49 1.86-.49.65 0 1.15.19 1.51.56m-.91 3.6c.28-.16.46-.39.53-.67V93c-.42-.13-.87-.19-1.34-.19-.34 0-.62.09-.86.26-.23.17-.35.39-.35.65s.1.47.31.62c.21.16.47.23.79.23s.63-.08.91-.24zm2.22-4.05h1.01l1.53 3.82 1.5-3.82h1.02l-2.07 4.92h-.88l-2.1-4.92zm9.32.45c.36.37.54.87.54 1.49v2.98h-.92v-.67c-.18.25-.42.44-.71.58-.3.14-.61.21-.92.21-.53 0-.96-.14-1.3-.43q-.51-.435-.51-1.14c0-.32.09-.6.26-.85s.41-.44.71-.58q.45-.21.99-.21c.47 0 .96.09 1.48.27v-.15c0-.36-.1-.66-.29-.91s-.52-.37-.97-.37c-.39 0-.85.14-1.38.41l-.35-.7c.66-.33 1.28-.49 1.86-.49.65 0 1.15.19 1.51.56m-.91 3.6c.28-.16.46-.39.53-.67V93c-.42-.13-.87-.19-1.34-.19-.34 0-.62.09-.86.26-.23.17-.35.39-.35.65s.1.47.31.62c.21.16.47.23.79.23s.63-.08.91-.24zm2.96-5.04a.56.56 0 0 1-.17-.4.58.58 0 0 1 .57-.57c.15 0 .28.06.4.17.11.11.17.24.17.4s-.06.29-.17.4-.24.17-.4.17-.29-.06-.4-.17m-.07.99h.94v4.92h-.94zm2.48-1.73h.94v6.65h-.94zm5.86 2.18c.36.37.54.87.54 1.49v2.98h-.92v-.67c-.18.25-.42.44-.71.58-.3.14-.61.21-.92.21-.53 0-.96-.14-1.3-.43q-.51-.435-.51-1.14c0-.32.09-.6.26-.85s.41-.44.71-.58q.45-.21.99-.21c.47 0 .96.09 1.48.27v-.15c0-.36-.1-.66-.29-.91s-.52-.37-.97-.37c-.39 0-.85.14-1.38.41l-.35-.7c.66-.33 1.28-.49 1.86-.49.65 0 1.15.19 1.51.56m-.91 3.6c.28-.16.46-.39.53-.67V93c-.42-.13-.87-.19-1.34-.19-.34 0-.62.09-.86.26-.23.17-.35.39-.35.65s.1.47.31.62c.21.16.47.23.79.23s.63-.08.91-.24zm6.75-3.84c.34.22.61.52.81.91s.29.83.29 1.33-.1.94-.29 1.33c-.2.39-.47.7-.81.92s-.73.33-1.15.33a2.1 2.1 0 0 1-1.03-.26c-.3-.17-.55-.42-.74-.73v.88h-.94v-6.65h.94v2.61c.19-.32.44-.56.74-.73s.65-.26 1.03-.26c.42 0 .81.11 1.15.33zm-.59 3.78c.23-.15.42-.36.55-.63s.2-.57.2-.91-.07-.64-.2-.9c-.13-.27-.31-.47-.55-.62-.23-.15-.5-.22-.79-.22s-.55.07-.78.22-.41.36-.54.62c-.13.27-.19.57-.19.9s.06.64.19.91q.195.405.54.63c.23.15.49.22.78.22s.55-.07.79-.22m2.88-5.72h.94v6.65h-.94zm5.44 5.82c.28-.11.49-.24.64-.4l.55.58c-.21.23-.5.41-.88.55a3.2 3.2 0 0 1-1.11.21q-.675 0-1.26-.33t-.93-.93c-.23-.4-.35-.84-.35-1.33s.11-.92.33-1.31.52-.7.9-.92.79-.33 1.24-.33c.49 0 .92.12 1.28.35.36.24.63.57.82 1s.28.94.28 1.52h-3.93c.06.44.23.8.52 1.08s.65.41 1.08.41c.27 0 .54-.05.81-.16zm-1.86-3.04q-.435.375-.54 1.02h3.01c-.05-.41-.2-.75-.45-1.01q-.375-.39-.99-.39c-.41 0-.73.13-1.02.38zm-21.77 100.08v.89h-4.42v-6.54h.96v5.64h3.46zm1.92.66c-.4-.23-.71-.54-.95-.94-.23-.4-.35-.83-.35-1.29s.12-.89.35-1.28.55-.71.95-.94a2.55 2.55 0 0 1 2.58 0c.4.23.71.54.95.94.23.39.35.82.35 1.28s-.12.89-.35 1.29-.55.71-.95.94a2.55 2.55 0 0 1-2.58 0m2.11-.71a1.77 1.77 0 0 0 .82-1.52 1.77 1.77 0 0 0-.82-1.52c-.25-.16-.52-.23-.82-.23s-.57.08-.82.23-.45.37-.6.64-.22.56-.22.88a1.77 1.77 0 0 0 .82 1.52c.25.16.52.24.82.24s.57-.08.82-.24m2.29-3.97h.96l1.12 3.66 1.22-3.66h.8l1.22 3.66 1.13-3.66h.96l-1.67 4.92h-.87l-1.17-3.65-1.19 3.65h-.87l-1.66-4.92zm-13.93 11.54c.27.16.48.39.63.68s.23.62.23.98v3.13h-.91v-2.99c0-.36-.1-.66-.29-.88a.95.95 0 0 0-.75-.34c-.36 0-.65.11-.87.32a1.1 1.1 0 0 0-.34.82v3.07h-.92v-2.99c0-.36-.1-.66-.29-.88a.92.92 0 0 0-.75-.34c-.35 0-.65.11-.87.32a1.1 1.1 0 0 0-.34.82v3.07h-.94v-4.92h.94v.7c.13-.25.31-.45.56-.6.24-.15.52-.22.84-.22.39 0 .73.1 1.02.31s.5.5.63.86c.08-.35.25-.63.53-.85s.61-.32.99-.32c.34 0 .64.08.91.24zm5.26 3.97c.28-.11.49-.24.64-.4l.55.58c-.21.23-.5.41-.88.55a3.2 3.2 0 0 1-1.11.21q-.675 0-1.26-.33t-.93-.93c-.23-.4-.35-.84-.35-1.33s.11-.92.33-1.31.52-.7.9-.92.79-.33 1.24-.33c.49 0 .92.12 1.28.35.36.24.63.57.82 1s.28.94.28 1.52h-3.93c.06.44.23.8.52 1.08s.65.41 1.08.41c.27 0 .54-.05.81-.16zm-1.86-3.04q-.435.375-.54 1.02h3.01c-.05-.41-.2-.75-.45-1.01q-.375-.39-.99-.39c-.41 0-.73.13-1.02.38zm10.89-.93c.27.16.48.39.63.68s.23.62.23.98v3.13h-.91v-2.99c0-.36-.1-.66-.29-.88a.95.95 0 0 0-.75-.34c-.36 0-.65.11-.87.32a1.1 1.1 0 0 0-.34.82v3.07h-.92v-2.99c0-.36-.1-.66-.29-.88a.92.92 0 0 0-.75-.34c-.35 0-.65.11-.87.32a1.1 1.1 0 0 0-.34.82v3.07h-.94v-4.92h.94v.7c.13-.25.31-.45.56-.6.24-.15.52-.22.84-.22.39 0 .73.1 1.02.31s.5.5.63.86c.08-.35.25-.63.53-.85s.61-.32.99-.32c.34 0 .64.08.91.24zm3.2 4.56c-.4-.23-.71-.54-.95-.94-.23-.4-.35-.83-.35-1.29s.12-.89.35-1.28.55-.71.95-.94a2.55 2.55 0 0 1 2.58 0c.4.23.71.54.95.94.23.39.35.82.35 1.28s-.12.89-.35 1.29-.55.71-.95.94a2.55 2.55 0 0 1-2.58 0m2.11-.71a1.77 1.77 0 0 0 .82-1.52 1.77 1.77 0 0 0-.82-1.52c-.25-.16-.52-.23-.82-.23s-.57.08-.82.23-.45.37-.6.64-.22.56-.22.88a1.77 1.77 0 0 0 .82 1.52c.25.16.52.24.82.24s.57-.08.82-.24m4.56-3.8c.32-.19.69-.29 1.12-.29v.82c-.35 0-.67.07-.95.2a1.5 1.5 0 0 0-.88 1.4v2.62h-.94v-4.92h.94v.96c.15-.33.39-.59.71-.79m1.92 6.25.21-.72q.27.15.6.15c.16 0 .29-.03.4-.09s.2-.16.28-.29l.25-.52-2.11-4.95h1.01l1.58 3.88 1.49-3.88h.98l-2.17 5.37c-.17.43-.39.75-.65.95s-.57.31-.93.31c-.35 0-.67-.07-.93-.21zm-30.34 5.44c.36.37.54.87.54 1.49v2.98h-.92v-.67c-.18.25-.42.44-.71.58-.3.14-.61.21-.92.21-.53 0-.96-.14-1.3-.43q-.51-.435-.51-1.14c0-.32.09-.6.26-.85s.41-.44.71-.58q.45-.21.99-.21c.47 0 .96.09 1.48.27v-.15c0-.36-.1-.66-.29-.91s-.52-.37-.97-.37c-.39 0-.85.14-1.38.41l-.35-.7c.66-.33 1.28-.49 1.86-.49.65 0 1.15.19 1.51.56m-.91 3.6c.28-.16.46-.39.53-.67v-.66c-.42-.13-.87-.19-1.34-.19-.34 0-.62.09-.86.26-.23.17-.35.39-.35.65s.1.47.31.62c.21.16.47.23.79.23s.63-.08.91-.24zm2.22-4.05h1.01l1.53 3.82 1.5-3.82h1.02l-2.07 4.92h-.88l-2.1-4.92zm9.31.45c.36.37.54.87.54 1.49v2.98h-.92v-.67c-.18.25-.42.44-.71.58-.3.14-.61.21-.92.21-.53 0-.96-.14-1.3-.43q-.51-.435-.51-1.14c0-.32.09-.6.26-.85s.41-.44.71-.58q.45-.21.99-.21c.47 0 .96.09 1.48.27v-.15c0-.36-.1-.66-.29-.91s-.52-.37-.97-.37c-.39 0-.85.14-1.38.41l-.35-.7c.66-.33 1.28-.49 1.86-.49.65 0 1.15.19 1.51.56m-.91 3.6c.28-.16.46-.39.53-.67v-.66c-.42-.13-.87-.19-1.34-.19-.34 0-.62.09-.86.26-.23.17-.35.39-.35.65s.1.47.31.62c.21.16.47.23.79.23s.63-.08.91-.24zm2.96-5.04a.56.56 0 0 1-.17-.4.58.58 0 0 1 .57-.57c.15 0 .28.06.4.17.11.11.17.24.17.4s-.06.29-.17.4-.24.17-.4.17-.29-.06-.4-.17m-.07.99h.94v4.92h-.94zm2.49-1.73h.94v6.65h-.94zm5.86 2.18c.36.37.54.87.54 1.49v2.98h-.92v-.67c-.18.25-.42.44-.71.58-.3.14-.61.21-.92.21-.53 0-.96-.14-1.3-.43q-.51-.435-.51-1.14c0-.32.09-.6.26-.85s.41-.44.71-.58q.45-.21.99-.21c.47 0 .96.09 1.48.27v-.15c0-.36-.1-.66-.29-.91s-.52-.37-.97-.37c-.39 0-.85.14-1.38.41l-.35-.7c.66-.33 1.28-.49 1.86-.49.65 0 1.15.19 1.51.56m-.91 3.6c.28-.16.46-.39.53-.67v-.66c-.42-.13-.87-.19-1.34-.19-.34 0-.62.09-.86.26-.23.17-.35.39-.35.65s.1.47.31.62c.21.16.47.23.79.23s.63-.08.91-.24zm6.75-3.84c.34.22.61.52.81.91s.29.83.29 1.33-.1.94-.29 1.33c-.2.39-.47.7-.81.92s-.73.33-1.15.33a2.1 2.1 0 0 1-1.03-.26c-.3-.17-.55-.42-.74-.73v.88h-.94v-6.65h.94v2.61c.19-.32.44-.56.74-.73s.65-.26 1.03-.26c.42 0 .81.11 1.15.33zm-.59 3.78c.23-.15.42-.36.55-.63s.2-.57.2-.91-.07-.64-.2-.9c-.13-.27-.31-.47-.55-.62-.23-.15-.5-.22-.79-.22s-.55.07-.78.22-.41.36-.54.62c-.13.27-.19.57-.19.9s.06.64.19.91q.195.405.54.63c.23.15.49.22.78.22s.55-.07.79-.22m2.88-5.72h.94v6.65h-.94zm5.43 5.82c.28-.11.49-.24.64-.4l.55.58c-.21.23-.5.41-.88.55a3.2 3.2 0 0 1-1.11.21q-.675 0-1.26-.33t-.93-.93c-.23-.4-.35-.84-.35-1.33s.11-.92.33-1.31.52-.7.9-.92.79-.33 1.24-.33c.49 0 .92.12 1.28.35.36.24.63.57.82 1s.28.94.28 1.52h-3.93c.06.44.23.8.52 1.08s.65.41 1.08.41c.27 0 .54-.05.81-.16zm-1.86-3.04q-.435.375-.54 1.02h3.01c-.05-.41-.2-.75-.45-1.01q-.375-.39-.99-.39c-.41 0-.73.13-1.02.38zm119.52-19.31c-.52-.31-.94-.72-1.25-1.24a3.23 3.23 0 0 1 0-3.36c.31-.52.73-.93 1.25-1.24a3.2 3.2 0 0 1 1.67-.46 3.32 3.32 0 0 1 2.41 1.03l-.68.65c-.23-.25-.49-.44-.79-.58s-.62-.21-.95-.21c-.42 0-.82.11-1.19.34s-.67.53-.88.91c-.22.38-.33.79-.33 1.24s.11.86.33 1.24.51.69.88.92.77.34 1.19.34a2.38 2.38 0 0 0 1.74-.79l.68.65c-.32.32-.69.58-1.1.76s-.86.27-1.31.27c-.6 0-1.15-.15-1.67-.46zm6.85-4.39c.32-.19.69-.29 1.12-.29v.82c-.35 0-.67.07-.95.2a1.5 1.5 0 0 0-.88 1.4v2.62h-.94v-4.92h.94v.96c.15-.33.39-.59.71-.79m2.29-1.17a.56.56 0 0 1-.17-.4.58.58 0 0 1 .57-.57c.15 0 .28.06.4.17.11.11.17.24.17.4s-.06.29-.17.4-.24.17-.4.17-.29-.06-.4-.17m-.07.99h.94v4.92h-.94zm4.94 4.68c-.13.11-.29.19-.46.26-.17.06-.35.1-.53.1-.38 0-.69-.12-.93-.38-.24-.25-.36-.57-.36-.97v-2.89h-.73v-.8h.73v-1.35h.92v1.35h1.16v.8h-1.16v2.83q0 .255.15.42c.1.11.22.17.36.17.1 0 .2-.02.29-.05.09-.04.16-.08.21-.13l.35.65zm1.05-5.67a.56.56 0 0 1-.17-.4.58.58 0 0 1 .57-.57c.15 0 .28.06.4.17.11.11.17.24.17.4s-.06.29-.17.4-.24.17-.4.17-.29-.06-.4-.17m-.07.99h.94v4.92h-.94zm3.38 4.68c-.4-.23-.71-.55-.95-.95s-.36-.82-.36-1.28.12-.88.36-1.27.56-.71.96-.94.83-.35 1.28-.35c.35 0 .68.07.98.2.31.13.58.32.83.56l-.64.59c-.15-.17-.33-.29-.54-.39s-.42-.14-.64-.14c-.29 0-.56.08-.82.24-.25.16-.46.37-.6.64s-.22.56-.22.87.07.61.22.88.35.48.6.64.53.24.82.24q.345 0 .66-.15c.21-.1.39-.23.55-.4l.64.58c-.25.25-.53.44-.84.58s-.65.21-1 .21c-.46 0-.89-.12-1.29-.35zm7.49-4.23c.36.37.54.87.54 1.49v2.98h-.92v-.67c-.18.25-.42.44-.71.58-.3.14-.61.21-.92.21-.53 0-.96-.14-1.3-.43q-.51-.435-.51-1.14c0-.32.09-.6.26-.85s.41-.44.71-.58q.45-.21.99-.21c.47 0 .96.09 1.48.27v-.15c0-.36-.1-.66-.29-.91s-.52-.37-.97-.37c-.39 0-.85.14-1.38.41l-.35-.7c.66-.33 1.28-.49 1.86-.49.65 0 1.15.19 1.51.56m-.91 3.6c.28-.16.46-.39.53-.67v-.66c-.42-.13-.87-.19-1.34-.19-.34 0-.62.09-.86.26-.23.17-.35.39-.35.65s.1.47.31.62c.21.16.47.23.79.23s.63-.08.91-.24zm2.89-5.78h.94v6.65h-.94zm5.09 0h.94v6.65h-.94zm3.38 6.41c-.4-.23-.71-.54-.95-.94-.23-.4-.35-.83-.35-1.29s.12-.89.35-1.28.55-.71.95-.94a2.55 2.55 0 0 1 2.58 0c.4.23.71.54.95.94.23.39.35.82.35 1.28s-.12.89-.35 1.29-.55.71-.95.94a2.55 2.55 0 0 1-2.58 0m2.11-.71a1.77 1.77 0 0 0 .82-1.52 1.77 1.77 0 0 0-.82-1.52c-.25-.16-.52-.23-.82-.23s-.57.08-.82.23-.45.37-.6.64-.22.56-.22.88a1.77 1.77 0 0 0 .82 1.52c.25.16.52.24.82.24s.57-.08.82-.24m2.29-3.97h.96l1.12 3.66 1.22-3.66h.8l1.22 3.66 1.13-3.66h.96l-1.67 4.92h-.87l-1.17-3.65-1.19 3.65h-.87l-1.66-4.92zm-29.53 11.54c.27.16.48.39.63.68s.23.62.23.98v3.13h-.91v-2.99c0-.36-.1-.66-.29-.88a.95.95 0 0 0-.75-.34c-.36 0-.65.11-.87.32a1.1 1.1 0 0 0-.34.82v3.07h-.92v-2.99c0-.36-.1-.66-.29-.88a.92.92 0 0 0-.75-.34c-.35 0-.65.11-.87.32a1.1 1.1 0 0 0-.34.82v3.07h-.94v-4.92h.94v.7c.13-.25.31-.45.56-.6.24-.15.52-.22.84-.22.39 0 .73.1 1.02.31s.5.5.63.86c.08-.35.25-.63.53-.85s.61-.32.99-.32c.34 0 .64.08.91.24zm5.25 3.97c.28-.11.49-.24.64-.4l.55.58c-.21.23-.5.41-.88.55a3.2 3.2 0 0 1-1.11.21q-.675 0-1.26-.33t-.93-.93c-.23-.4-.35-.84-.35-1.33s.11-.92.33-1.31.52-.7.9-.92.79-.33 1.24-.33c.49 0 .92.12 1.28.35.36.24.63.57.82 1s.28.94.28 1.52h-3.93c.06.44.23.8.52 1.08s.65.41 1.08.41c.27 0 .54-.05.81-.16zm-1.86-3.04q-.435.375-.54 1.02h3.01c-.05-.41-.2-.75-.45-1.01q-.375-.39-.99-.39c-.41 0-.73.13-1.02.38zm10.9-.93c.27.16.48.39.63.68s.23.62.23.98v3.13h-.91v-2.99c0-.36-.1-.66-.29-.88a.95.95 0 0 0-.75-.34c-.36 0-.65.11-.87.32a1.1 1.1 0 0 0-.34.82v3.07h-.92v-2.99c0-.36-.1-.66-.29-.88a.92.92 0 0 0-.75-.34c-.35 0-.65.11-.87.32a1.1 1.1 0 0 0-.34.82v3.07h-.94v-4.92h.94v.7c.13-.25.31-.45.56-.6.24-.15.52-.22.84-.22.39 0 .73.1 1.02.31s.5.5.63.86c.08-.35.25-.63.53-.85s.61-.32.99-.32c.34 0 .64.08.91.24zm3.2 4.56c-.4-.23-.71-.54-.95-.94-.23-.4-.35-.83-.35-1.29s.12-.89.35-1.28.55-.71.95-.94a2.55 2.55 0 0 1 2.58 0c.4.23.71.54.95.94.23.39.35.82.35 1.28s-.12.89-.35 1.29-.55.71-.95.94a2.55 2.55 0 0 1-2.58 0m2.11-.71a1.77 1.77 0 0 0 .82-1.52 1.77 1.77 0 0 0-.82-1.52c-.25-.16-.52-.23-.82-.23s-.57.08-.82.23-.45.37-.6.64-.22.56-.22.88a1.77 1.77 0 0 0 .82 1.52c.25.16.52.24.82.24s.57-.08.82-.24m4.55-3.8c.32-.19.69-.29 1.12-.29v.82c-.35 0-.67.07-.95.2a1.5 1.5 0 0 0-.88 1.4v2.62h-.94v-4.92h.94v.96c.15-.33.39-.59.71-.79m1.93 6.25.21-.72q.27.15.6.15c.16 0 .29-.03.4-.09s.2-.16.28-.29l.25-.52-2.11-4.95h1.01l1.58 3.88 1.49-3.88h.98l-2.17 5.37c-.17.43-.39.75-.65.95s-.57.31-.93.31c-.35 0-.67-.07-.93-.21zm-30.35 5.44c.36.37.54.87.54 1.49v2.98h-.92v-.67c-.18.25-.42.44-.71.58-.3.14-.61.21-.92.21-.53 0-.96-.14-1.3-.43q-.51-.435-.51-1.14c0-.32.09-.6.26-.85s.41-.44.71-.58q.45-.21.99-.21c.47 0 .96.09 1.48.27v-.15c0-.36-.1-.66-.29-.91s-.52-.37-.97-.37c-.39 0-.85.14-1.38.41l-.35-.7c.66-.33 1.28-.49 1.86-.49.65 0 1.15.19 1.51.56m-.91 3.6c.28-.16.46-.39.53-.67v-.66c-.42-.13-.87-.19-1.34-.19-.34 0-.62.09-.86.26-.23.17-.35.39-.35.65s.1.47.31.62c.21.16.47.23.79.23s.63-.08.91-.24zm2.23-4.05h1.01l1.53 3.82 1.5-3.82h1.02l-2.07 4.92h-.88l-2.1-4.92zm9.31.45c.36.37.54.87.54 1.49v2.98h-.92v-.67c-.18.25-.42.44-.71.58-.3.14-.61.21-.92.21-.53 0-.96-.14-1.3-.43q-.51-.435-.51-1.14c0-.32.09-.6.26-.85s.41-.44.71-.58q.45-.21.99-.21c.47 0 .96.09 1.48.27v-.15c0-.36-.1-.66-.29-.91s-.52-.37-.97-.37c-.39 0-.85.14-1.38.41l-.35-.7c.66-.33 1.28-.49 1.86-.49.65 0 1.15.19 1.51.56m-.91 3.6c.28-.16.46-.39.53-.67v-.66c-.42-.13-.87-.19-1.34-.19-.34 0-.62.09-.86.26-.23.17-.35.39-.35.65s.1.47.31.62c.21.16.47.23.79.23s.63-.08.91-.24zm2.96-5.04a.56.56 0 0 1-.17-.4.58.58 0 0 1 .57-.57c.15 0 .28.06.4.17.11.11.17.24.17.4s-.06.29-.17.4-.24.17-.4.17-.29-.06-.4-.17m-.07.99h.94v4.92h-.94zm2.48-1.73h.94v6.65h-.94zm5.86 2.18c.36.37.54.87.54 1.49v2.98h-.92v-.67c-.18.25-.42.44-.71.58-.3.14-.61.21-.92.21-.53 0-.96-.14-1.3-.43q-.51-.435-.51-1.14c0-.32.09-.6.26-.85s.41-.44.71-.58q.45-.21.99-.21c.47 0 .96.09 1.48.27v-.15c0-.36-.1-.66-.29-.91s-.52-.37-.97-.37c-.39 0-.85.14-1.38.41l-.35-.7c.66-.33 1.28-.49 1.86-.49.65 0 1.15.19 1.51.56m-.91 3.6c.28-.16.46-.39.53-.67v-.66c-.42-.13-.87-.19-1.34-.19-.34 0-.62.09-.86.26-.23.17-.35.39-.35.65s.1.47.31.62c.21.16.47.23.79.23s.63-.08.91-.24zm6.75-3.84c.34.22.61.52.81.91s.29.83.29 1.33-.1.94-.29 1.33c-.2.39-.47.7-.81.92s-.73.33-1.15.33a2.1 2.1 0 0 1-1.03-.26c-.3-.17-.55-.42-.74-.73v.88h-.94v-6.65h.94v2.61c.19-.32.44-.56.74-.73s.65-.26 1.03-.26c.42 0 .81.11 1.15.33zm-.59 3.78c.23-.15.42-.36.55-.63s.2-.57.2-.91-.07-.64-.2-.9c-.13-.27-.31-.47-.55-.62-.23-.15-.5-.22-.79-.22s-.55.07-.78.22-.41.36-.54.62c-.13.27-.19.57-.19.9s.06.64.19.91q.195.405.54.63c.23.15.49.22.78.22s.55-.07.79-.22m2.88-5.72h.94v6.65h-.94zm5.44 5.82c.28-.11.49-.24.64-.4l.55.58c-.21.23-.5.41-.88.55a3.2 3.2 0 0 1-1.11.21q-.675 0-1.26-.33t-.93-.93c-.23-.4-.35-.84-.35-1.33s.11-.92.33-1.31.52-.7.9-.92.79-.33 1.24-.33c.49 0 .92.12 1.28.35.36.24.63.57.82 1s.28.94.28 1.52h-3.93c.06.44.23.8.52 1.08s.65.41 1.08.41c.27 0 .54-.05.81-.16zm-1.86-3.04q-.435.375-.54 1.02h3.01c-.05-.41-.2-.75-.45-1.01q-.375-.39-.99-.39c-.41 0-.73.13-1.02.38zM283.15 65.83h.96l2.29 4.27 2.29-4.27h.96v6.54h-.96v-4.65l-2.29 4.27-2.29-4.27v4.65h-.96zm9.15 6.3c-.4-.23-.71-.54-.95-.94-.23-.4-.35-.83-.35-1.29s.12-.89.35-1.28.55-.71.95-.94a2.55 2.55 0 0 1 2.58 0c.4.23.71.54.95.94.23.39.35.82.35 1.28s-.12.89-.35 1.29-.55.71-.95.94a2.55 2.55 0 0 1-2.58 0m2.11-.71a1.77 1.77 0 0 0 .82-1.52 1.77 1.77 0 0 0-.82-1.52c-.25-.16-.52-.23-.82-.23s-.57.08-.82.23-.45.37-.6.64-.22.56-.22.88a1.77 1.77 0 0 0 .82 1.52c.25.16.52.24.82.24s.57-.08.82-.24m7.5-5.7v6.65h-.94v-.84c-.2.3-.44.53-.74.7s-.63.25-1 .25c-.43 0-.82-.11-1.16-.33s-.61-.52-.81-.92-.29-.84-.29-1.33.1-.94.29-1.33c.2-.39.47-.69.81-.91s.73-.33 1.16-.33c.37 0 .7.08 1 .25s.55.4.74.7v-2.57h.94zm-1.68 5.72q.345-.225.54-.63c.13-.27.19-.57.19-.91s-.06-.64-.19-.9a1.5 1.5 0 0 0-.54-.62c-.23-.15-.49-.22-.78-.22s-.56.07-.79.22-.42.36-.55.62c-.13.27-.2.57-.2.9s.07.64.2.91.31.48.55.63c.23.15.5.22.79.22s.55-.07.78-.22m6.18.1c.28-.11.49-.24.64-.4l.55.58c-.21.23-.5.41-.88.55a3.2 3.2 0 0 1-1.11.21q-.675 0-1.26-.33t-.93-.93c-.23-.4-.35-.84-.35-1.33s.11-.92.33-1.31.52-.7.9-.92.79-.33 1.24-.33c.49 0 .92.12 1.28.35.36.24.63.57.82 1s.28.94.28 1.52h-3.93c.06.44.23.8.52 1.08s.65.41 1.08.41c.27 0 .54-.05.81-.16zm-1.86-3.04q-.435.375-.54 1.02h3.01c-.05-.41-.2-.75-.45-1.01q-.375-.39-.99-.39c-.41 0-.73.13-1.02.38zm6.13-.88c.32-.19.69-.29 1.12-.29v.82c-.35 0-.67.07-.95.2a1.5 1.5 0 0 0-.88 1.4v2.62h-.94v-4.92h.94v.96c.15-.33.39-.59.71-.79m5.6.28c.36.37.54.87.54 1.49v2.98h-.92v-.67c-.18.25-.42.44-.71.58-.3.14-.61.21-.92.21-.53 0-.96-.14-1.3-.43q-.51-.435-.51-1.14c0-.32.09-.6.26-.85s.41-.44.71-.58q.45-.21.99-.21c.47 0 .96.09 1.48.27v-.15c0-.36-.1-.66-.29-.91s-.52-.37-.97-.37c-.39 0-.85.14-1.38.41l-.35-.7c.66-.33 1.28-.49 1.86-.49.65 0 1.15.19 1.51.56m-.91 3.6c.28-.16.46-.39.53-.67v-.66c-.42-.13-.87-.19-1.34-.19-.34 0-.62.09-.86.26-.23.17-.35.39-.35.65s.1.47.31.62c.21.16.47.23.79.23s.63-.08.91-.24zm5.34.63c-.13.11-.29.19-.46.26-.17.06-.35.1-.53.1-.38 0-.69-.12-.93-.38-.24-.25-.36-.57-.36-.97v-2.89h-.73v-.8h.73V66.1h.92v1.35h1.16v.8h-1.16v2.83q0 .255.15.42c.1.11.22.17.36.17.1 0 .2-.02.29-.05.09-.04.16-.08.21-.13l.35.65zm3.93-.59c.28-.11.49-.24.64-.4l.55.58c-.21.23-.5.41-.88.55a3.2 3.2 0 0 1-1.11.21q-.675 0-1.26-.33t-.93-.93c-.23-.4-.35-.84-.35-1.33s.11-.92.33-1.31.52-.7.9-.92.79-.33 1.24-.33c.49 0 .92.12 1.28.35.36.24.63.57.82 1s.28.94.28 1.52h-3.93c.06.44.23.8.52 1.08s.65.41 1.08.41c.27 0 .54-.05.81-.16zm-1.86-3.04q-.435.375-.54 1.02h3.01c-.05-.41-.2-.75-.45-1.01q-.375-.39-.99-.39c-.41 0-.73.13-1.02.38zm-30.29 10.49c.27.16.48.39.63.68s.23.62.23.98v3.13h-.91v-2.99c0-.36-.1-.66-.29-.88a.95.95 0 0 0-.75-.34c-.36 0-.65.11-.87.32a1.1 1.1 0 0 0-.34.82v3.07h-.92v-2.99c0-.36-.1-.66-.29-.88a.92.92 0 0 0-.75-.34c-.35 0-.65.11-.87.32a1.1 1.1 0 0 0-.34.82v3.07h-.94v-4.92h.94v.7c.13-.25.31-.45.56-.6.24-.15.52-.22.84-.22.39 0 .73.1 1.02.31s.5.5.63.86c.08-.35.25-.63.53-.85s.61-.32.99-.32c.34 0 .64.08.91.24zm5.25 3.96c.28-.11.49-.24.64-.4l.55.58c-.21.23-.5.41-.88.55a3.2 3.2 0 0 1-1.11.21q-.675 0-1.26-.33t-.93-.93c-.23-.4-.35-.84-.35-1.33s.11-.92.33-1.31.52-.7.9-.92.79-.33 1.24-.33c.49 0 .92.12 1.28.35.36.24.63.57.82 1s.28.94.28 1.52h-3.93c.06.44.23.8.52 1.08s.65.41 1.08.41c.27 0 .54-.05.81-.16zm-1.86-3.04q-.435.375-.54 1.02h3.01c-.05-.41-.2-.75-.45-1.01q-.375-.39-.99-.39c-.41 0-.73.13-1.02.38zm10.9-.92c.27.16.48.39.63.68s.23.62.23.98v3.13h-.91v-2.99c0-.36-.1-.66-.29-.88a.95.95 0 0 0-.75-.34c-.36 0-.65.11-.87.32a1.1 1.1 0 0 0-.34.82v3.07h-.92v-2.99c0-.36-.1-.66-.29-.88a.92.92 0 0 0-.75-.34c-.35 0-.65.11-.87.32a1.1 1.1 0 0 0-.34.82v3.07h-.94v-4.92h.94v.7c.13-.25.31-.45.56-.6.24-.15.52-.22.84-.22.39 0 .73.1 1.02.31s.5.5.63.86c.08-.35.25-.63.53-.85s.61-.32.99-.32c.34 0 .64.08.91.24zm3.2 4.56c-.4-.23-.71-.54-.95-.94-.23-.4-.35-.83-.35-1.29s.12-.89.35-1.28.55-.71.95-.94a2.55 2.55 0 0 1 2.58 0c.4.23.71.54.95.94.23.39.35.82.35 1.28s-.12.89-.35 1.29-.55.71-.95.94a2.55 2.55 0 0 1-2.58 0m2.11-.71a1.77 1.77 0 0 0 .82-1.52 1.77 1.77 0 0 0-.82-1.52c-.25-.16-.52-.23-.82-.23s-.57.08-.82.23-.45.37-.6.64-.22.56-.22.88a1.77 1.77 0 0 0 .82 1.52c.25.16.52.24.82.24s.57-.08.82-.24m4.56-3.8c.32-.19.69-.29 1.12-.29v.82c-.35 0-.67.07-.95.2a1.5 1.5 0 0 0-.88 1.4v2.62H315v-4.92h.94v.96c.15-.33.39-.59.71-.79m1.92 6.24.21-.72q.27.15.6.15c.16 0 .29-.03.4-.09s.2-.16.28-.29l.25-.52-2.11-4.95h1.01l1.58 3.88 1.49-3.88h.98l-2.17 5.37c-.17.43-.39.75-.65.95s-.57.31-.93.31c-.35 0-.67-.07-.93-.21zm-22.92 5v4.92h-.94v-.7c-.15.25-.37.45-.65.59-.28.15-.59.22-.92.22-.36 0-.67-.08-.95-.24s-.5-.38-.65-.67c-.16-.29-.23-.62-.23-.99v-3.13h.92v2.97c0 .37.1.67.31.9s.48.35.82.35c.25 0 .47-.05.68-.16.21-.1.37-.25.49-.42s.18-.37.18-.58v-3.05h.94zm2.06 4.84q-.555-.195-.99-.54l.43-.65c.27.2.55.36.84.46s.56.16.84.16c.29 0 .52-.06.7-.18a.57.57 0 0 0 .26-.49c0-.21-.09-.37-.28-.47-.18-.11-.47-.21-.87-.32-.6-.17-1.04-.36-1.3-.56s-.39-.49-.39-.88c0-.45.17-.81.5-1.08s.76-.41 1.29-.41a3.4 3.4 0 0 1 1.82.57l-.39.67c-.51-.32-.98-.48-1.43-.48-.26 0-.47.06-.64.17s-.25.26-.25.46c0 .13.04.23.11.3s.19.14.34.2.39.14.71.24c.35.11.65.21.87.31.23.1.41.24.57.43.15.19.23.44.23.74 0 .46-.17.83-.52 1.11s-.79.41-1.35.41c-.37 0-.74-.06-1.1-.19zm7.48-4.39c.36.37.54.87.54 1.49v2.98h-.92v-.67c-.18.25-.42.44-.71.58-.3.14-.61.21-.92.21-.53 0-.96-.14-1.3-.43q-.51-.435-.51-1.14c0-.32.09-.6.26-.85s.41-.44.71-.58q.45-.21.99-.21c.47 0 .96.09 1.48.27v-.15c0-.36-.1-.66-.29-.91s-.52-.37-.97-.37c-.39 0-.85.14-1.38.41l-.35-.7c.66-.33 1.28-.49 1.86-.49.65 0 1.15.19 1.51.56m-.91 3.6c.28-.16.46-.39.53-.67V93c-.42-.13-.87-.19-1.34-.19-.34 0-.62.09-.86.26-.23.17-.35.39-.35.65s.1.47.31.62c.21.16.47.23.79.23s.63-.08.91-.24zm7.41-4.05v4.39c0 .42-.11.79-.32 1.12s-.51.58-.88.77c-.38.18-.81.28-1.29.28-.4 0-.78-.06-1.15-.18a2.8 2.8 0 0 1-.91-.48l.37-.7c.18.17.4.3.68.4.28.09.57.14.87.14.53 0 .94-.12 1.24-.36s.45-.57.45-1v-.71c-.2.29-.44.51-.74.66-.3.16-.63.23-.99.23-.43 0-.82-.1-1.16-.3s-.61-.48-.8-.83c-.19-.36-.29-.76-.29-1.21s.1-.85.29-1.21c.19-.35.46-.63.8-.83s.72-.29 1.16-.29a2.07 2.07 0 0 1 1.73.9v-.78h.94zm-1.36 3.32c.28-.28.42-.65.42-1.1s-.14-.81-.42-1.09q-.42-.42-1.08-.42c-.44 0-.79.14-1.07.42s-.42.65-.42 1.09.14.81.42 1.09c.28.29.64.43 1.07.43s.81-.14 1.08-.42m5.86.77c.28-.11.49-.24.64-.4l.55.58c-.21.23-.5.41-.88.55a3.2 3.2 0 0 1-1.11.21q-.675 0-1.26-.33t-.93-.93c-.23-.4-.35-.84-.35-1.33s.11-.92.33-1.31.52-.7.9-.92.79-.33 1.24-.33c.49 0 .92.12 1.28.35.36.24.63.57.82 1s.28.94.28 1.52h-3.93c.06.44.23.8.52 1.08s.65.41 1.08.41c.27 0 .54-.05.81-.16zm-1.86-3.04q-.435.375-.54 1.02h3.01c-.05-.41-.2-.75-.45-1.01q-.375-.39-.99-.39c-.41 0-.73.13-1.02.38z"/><path fill="#FF8F3D" d="M145.48 160.95c15.01 0 28.11 8.13 35.17 20.22l15.16-6.76c-9.69-17.85-28.6-29.98-50.34-29.98-31.61 0-57.23 25.62-57.23 57.23 0 12.09 3.76 23.31 10.16 32.55l13.56-9.44c-4.54-6.56-7.19-14.53-7.19-23.11 0-22.48 18.23-40.71 40.71-40.71"/><path fill="#FF5233" d="M304.57 160.95c22.48 0 40.71 18.23 40.71 40.71 0 4.38-.7 8.6-1.98 12.55l15.41 6.01c2-5.82 3.09-12.06 3.09-18.56 0-31.61-25.62-57.23-57.23-57.23s-57.23 25.62-57.23 57.23c0 12.09 3.76 23.31 10.16 32.55l13.56-9.44c-4.54-6.56-7.19-14.53-7.19-23.11 0-22.48 18.23-40.71 40.71-40.71z"/></svg>