<svg xmlns="http://www.w3.org/2000/svg" width="292" height="260" fill="none"><path fill="#22343C" d="M.5 4A3.5 3.5 0 0 1 4 .5h284a3.5 3.5 0 0 1 3.5 3.5v252a3.5 3.5 0 0 1-3.5 3.5H4A3.5 3.5 0 0 1 .5 256z"/><path stroke="#6A7A81" d="M.5 4A3.5 3.5 0 0 1 4 .5h284a3.5 3.5 0 0 1 3.5 3.5v252a3.5 3.5 0 0 1-3.5 3.5H4A3.5 3.5 0 0 1 .5 256z"/><path fill="#2EC0FF" d="M90.62 135.26H56v83.25h34.62z"/><path fill="#22343C" d="M91.11 219.01H55.49v-84.25h35.62zm-34.62-1h33.62v-82.25H56.49z"/><path fill="#AC50D3" d="M90.62 99.34H56v36.3h34.62z"/><path fill="#22343C" d="M91.11 136.14H55.49v-37.3h35.62zm-34.62-1h33.62v-35.3H56.49z"/><path fill="#80F7FF" d="M90.62 80.71H56v19.92h34.62z"/><path fill="#22343C" d="M91.11 101.13H55.49V80.21h35.62zm-34.62-1h33.62V81.21H56.49z"/><path fill="#2EC0FF" d="M139.08 157.08h-34.62v61.42h34.62z"/><path fill="#22343C" d="M139.58 219.01h-35.62v-62.42h35.62zm-34.62-1h33.62v-60.42h-33.62z"/><path fill="#AC50D3" d="M139.08 108.87h-34.62v48.6h34.62z"/><path fill="#22343C" d="M139.58 157.97h-35.62v-49.6h35.62zm-34.62-1h33.62v-47.6h-33.62z"/><path fill="#80F7FF" d="M139.08 63.2h-34.62v51.35h34.62z"/><path fill="#22343C" d="M139.58 115.05h-35.62V62.7h35.62zm-34.62-1h33.62V63.7h-33.62z"/><path fill="#2EC0FF" d="M187.54 188.62h-34.62v29.89h34.62z"/><path fill="#22343C" d="M188.04 219.01h-35.62v-30.89h35.62zm-34.62-1h33.62v-28.89h-33.62z"/><path fill="#AC50D3" d="M187.54 142.83h-34.62v46.18h34.62z"/><path fill="#22343C" d="M188.04 189.5h-35.62v-47.18h35.62zm-34.62-1h33.62v-45.18h-33.62z"/><path fill="#80F7FF" d="M187.54 133.22h-34.62v29.24h34.62z"/><path fill="#22343C" d="M188.04 162.96h-35.62v-30.24h35.62zm-34.62-1h33.62v-28.24h-33.62z"/><path fill="#2EC0FF" d="M236.01 178.91h-34.62v39.59h34.62z"/><path fill="#22343C" d="M236.51 219.01h-35.62v-40.59h35.62zm-34.62-1h33.62v-38.59h-33.62z"/><path fill="#AC50D3" d="M236.01 169.51h-34.62v9.79h34.62z"/><path fill="#22343C" d="M236.51 179.8h-35.62v-10.79h35.62zm-34.62-1h33.62v-8.79h-33.62z"/><path fill="#80F7FF" d="M236.01 149.6h-34.62v22.36h34.62z"/><path fill="#22343C" d="M236.51 172.46h-35.62V149.1h35.62zm-34.62-1h33.62V150.1h-33.62z"/><path fill="#fff" d="M250.53 219.51H37.21c-.55 0-1-.45-1-1V38.27c0-.55.45-1 1-1s1 .45 1 1v179.24h212.32c.55 0 1 .45 1 1s-.45 1-1 1"/></svg>
