<svg xmlns="http://www.w3.org/2000/svg" width="450" height="260" fill="none"><path fill="#22343C" d="M.5 4A3.5 3.5 0 0 1 4 .5h442a3.5 3.5 0 0 1 3.5 3.5v252a3.5 3.5 0 0 1-3.5 3.5H4A3.5 3.5 0 0 1 .5 256z"/><path stroke="#6A7A81" d="M.5 4A3.5 3.5 0 0 1 4 .5h442a3.5 3.5 0 0 1 3.5 3.5v252a3.5 3.5 0 0 1-3.5 3.5H4A3.5 3.5 0 0 1 .5 256z"/><path fill="#AC50D3" d="M107.3 187.64H67.83v40.43h39.47z"/><path fill="#fff" d="M107.3 228.57H67.83c-.28 0-.5-.22-.5-.5v-40.43c0-.28.22-.5.5-.5h39.47c.28 0 .5.22.5.5v40.43c0 .28-.22.5-.5.5m-38.97-1h38.47v-39.43H68.33z"/><path fill="#2EC0FF" d="M107.3 122.25H67.83v65.07h39.47z"/><path fill="#fff" d="M107.3 187.82H67.83c-.28 0-.5-.22-.5-.5v-65.07c0-.28.22-.5.5-.5h39.47c.28 0 .5.22.5.5v65.07c0 .28-.22.5-.5.5m-38.97-1h38.47v-64.07H68.33z"/><path fill="#AC50D3" d="M176.48 159.11h-39.47v68.96h39.47z"/><path fill="#fff" d="M176.47 228.57H137c-.28 0-.5-.22-.5-.5v-68.96c0-.28.22-.5.5-.5h39.47c.28 0 .5.22.5.5v68.96c0 .28-.22.5-.5.5m-38.97-1h38.47v-67.96H137.5z"/><path fill="#2EC0FF" d="M176.48 94.91h-39.47v63.88h39.47z"/><path fill="#fff" d="M176.47 159.29H137c-.28 0-.5-.22-.5-.5V94.91c0-.28.22-.5.5-.5h39.47c.28 0 .5.22.5.5v63.88c0 .28-.22.5-.5.5m-38.97-1h38.47V95.41H137.5z"/><path fill="#AC50D3" d="M245.65 185.86h-39.47v42.21h39.47z"/><path fill="#fff" d="M245.65 228.57h-39.47c-.28 0-.5-.22-.5-.5v-42.21c0-.28.22-.5.5-.5h39.47c.28 0 .5.22.5.5v42.21c0 .28-.22.5-.5.5m-38.97-1h38.47v-41.21h-38.47z"/><path fill="#2EC0FF" d="M245.65 149.01h-39.47v36.53h39.47z"/><path fill="#fff" d="M245.65 186.04h-39.47c-.28 0-.5-.22-.5-.5v-36.53c0-.28.22-.5.5-.5h39.47c.28 0 .5.22.5.5v36.53c0 .28-.22.5-.5.5m-38.97-1h38.47v-35.53h-38.47z"/><path fill="#AC50D3" d="M314.829 179.91h-39.47v48.16h39.47z"/><path fill="#fff" d="M314.829 228.57h-39.47c-.28 0-.5-.22-.5-.5v-48.16c0-.28.22-.5.5-.5h39.47c.28 0 .5.22.5.5v48.16c0 .28-.22.5-.5.5m-38.97-1h38.47v-47.16h-38.47z"/><path fill="#2EC0FF" d="M314.829 56.86h-39.47v122.73h39.47z"/><path fill="#fff" d="M314.829 180.09h-39.47c-.28 0-.5-.22-.5-.5V56.86c0-.28.22-.5.5-.5h39.47c.28 0 .5.22.5.5v122.73c0 .28-.22.5-.5.5m-38.97-1h38.47V57.36h-38.47z"/><path fill="#AC50D3" d="M384.009 159.11h-39.47v68.96h39.47z"/><path fill="#fff" d="M384.009 228.57h-39.47c-.28 0-.5-.22-.5-.5v-68.96c0-.28.22-.5.5-.5h39.47c.28 0 .5.22.5.5v68.96c0 .28-.22.5-.5.5m-38.97-1h38.47v-67.96h-38.47z"/><path fill="#E25F1E" d="M384.009 121.25h-39.47v36.53h39.47z"/><path fill="#fff" d="M384.009 158.29h-39.47c-.28 0-.5-.22-.5-.5v-36.53c0-.28.22-.5.5-.5h39.47c.28 0 .5.22.5.5v36.53c0 .28-.22.5-.5.5m-38.97-1h38.47v-35.53h-38.47zm67.971 71.65H39.9c-.55 0-1-.45-1-1V34.59c0-.55.45-1 1-1s1 .45 1 1v192.36h372.11c.55 0 1 .45 1 1s-.45 1-1 1z"/><mask id="a" width="84" height="84" x="342" y="97" maskUnits="userSpaceOnUse" style="mask-type:luminance"><path fill="#fff" d="M425.139 139.05c-.93 54.97-81.53 54.96-82.45 0 .93-54.97 81.53-54.96 82.45 0"/></mask><g mask="url(#a)"><path fill="#AC50D3" d="M394.309 139.96h-98.26v207.95h98.26z"/><path fill="#fff" d="M394.309 348.41h-98.26c-.28 0-.5-.22-.5-.5V139.96c0-.28.22-.5.5-.5h98.26c.28 0 .5.22.5.5v207.95c0 .28-.22.5-.5.5m-97.76-1h97.26V140.46h-97.26z"/><path fill="#2EC0FF" d="M394.309 28.83h-98.26v110.16h98.26z"/><path fill="#fff" d="M394.309 139.49h-98.26c-.28 0-.5-.22-.5-.5V28.83c0-.28.22-.5.5-.5h98.26c.28 0 .5.22.5.5v110.16c0 .28-.22.5-.5.5m-97.76-1h97.26V29.33h-97.26z"/></g><path fill="#fff" d="M384.051 181.89c-23.71 0-43-19.29-43-43s19.29-43 43-43 43 19.29 43 43-19.29 43-43 43m0-84c-22.61 0-41 18.39-41 41s18.39 41 41 41 41-18.39 41-41-18.39-41-41-41"/><path fill="#22343C" d="M384.051 95.89c23.71 0 43 19.29 43 43s-19.29 43-43 43-43-19.29-43-43 19.29-43 43-43m0-2c-24.81 0-45 20.19-45 45s20.19 45 45 45 45-20.19 45-45-20.19-45-45-45"/></svg>
