<svg xmlns="http://www.w3.org/2000/svg" width="450" height="260" fill="none"><path fill="#22343C" d="M.5 4A3.5 3.5 0 0 1 4 .5h442a3.5 3.5 0 0 1 3.5 3.5v252a3.5 3.5 0 0 1-3.5 3.5H4A3.5 3.5 0 0 1 .5 256z"/><path stroke="#6A7A81" d="M.5 4A3.5 3.5 0 0 1 4 .5h442a3.5 3.5 0 0 1 3.5 3.5v252a3.5 3.5 0 0 1-3.5 3.5H4A3.5 3.5 0 0 1 .5 256z"/><path fill="#7D12A5" d="M94.59 199.76H50.03c-9.202 0-16.66 7.459-16.66 16.66s7.458 16.66 16.66 16.66h44.56c9.2 0 16.659-7.459 16.659-16.66s-7.459-16.66-16.66-16.66"/><path fill="#AC50D3" d="M103.061 158.73h-41.67v30.36h41.67z"/><path fill="#22343C" d="M103.061 189.59h-41.67c-.28 0-.5-.22-.5-.5v-30.36c0-.28.22-.5.5-.5h41.67c.28 0 .5.22.5.5v30.36c0 .28-.22.5-.5.5m-41.17-1h40.67v-29.36h-40.67z"/><path fill="#00608A" d="M103.061 104.78h-41.67v53.69h41.67z"/><path fill="#22343C" d="M103.561 158.97h-42.67v-54.69h42.67zm-41.67-1h40.67v-52.69h-40.67z"/><path fill="#AC50D3" d="M176.1 135.19h-41.67v53.9h41.67z"/><path fill="#22343C" d="M176.1 189.59h-41.67c-.28 0-.5-.22-.5-.5v-53.9c0-.28.22-.5.5-.5h41.67c.28 0 .5.22.5.5v53.9c0 .28-.22.5-.5.5m-41.17-1h40.67v-52.9h-40.67z"/><path fill="#00608A" d="M176.1 60.38h-41.67v74.54h41.67z"/><path fill="#22343C" d="M176.6 135.42h-42.67V59.88h42.67zm-41.67-1h40.67V60.88h-40.67z"/><path fill="#AC50D3" d="M249.141 157.26h-41.67v31.83h41.67z"/><path fill="#22343C" d="M249.141 189.59h-41.67c-.28 0-.5-.22-.5-.5v-31.83c0-.28.22-.5.5-.5h41.67c.28 0 .5.22.5.5v31.83c0 .28-.22.5-.5.5m-41.17-1h40.67v-30.83h-40.67z"/><path fill="#00608A" d="M249.141 126.85h-41.67v30.14h41.67z"/><path fill="#22343C" d="M249.641 157.5h-42.67v-31.14h42.67zm-41.67-1h40.67v-29.14h-40.67z"/><path fill="#AC50D3" d="M322.18 152.36h-41.67v36.74h41.67z"/><path fill="#22343C" d="M322.18 189.59h-41.67c-.28 0-.5-.22-.5-.5v-36.74c0-.28.22-.5.5-.5h41.67c.28 0 .5.22.5.5v36.74c0 .28-.22.5-.5.5m-41.17-1h40.67v-35.74h-40.67z"/><path fill="#00608A" d="M322.18 105.79h-41.67v46.31h41.67z"/><path fill="#22343C" d="M322.68 152.59h-42.67v-47.31h42.67zm-41.67-1h40.67v-45.31h-40.67z"/><path fill="#AC50D3" d="M395.221 135.19h-41.67v53.9h41.67z"/><path fill="#22343C" d="M395.221 189.59h-41.67c-.28 0-.5-.22-.5-.5v-53.9c0-.28.22-.5.5-.5h41.67c.28 0 .5.22.5.5v53.9c0 .28-.22.5-.5.5m-41.17-1h40.67v-52.9h-40.67z"/><path fill="#00608A" d="M395.221 104.78h-41.67v30.14h41.67z"/><path fill="#22343C" d="M395.721 135.42h-42.67v-31.14h42.67zm-41.67-1h40.67v-29.14h-40.67z"/><path fill="#fff" d="M413.01 189.94H39.9c-.55 0-1-.45-1-1V34.59c0-.55.45-1 1-1s1 .45 1 1v153.36h372.11c.55 0 1 .45 1 1s-.45 1-1 1z"/><path fill="#AC50D3" d="M49.18 225.17a8.75 8.75 0 1 0 0-17.5 8.75 8.75 0 0 0 0 17.5"/><path fill="#2EC0FF" d="M131.07 225.17a8.75 8.75 0 1 0 0-17.5 8.75 8.75 0 0 0 0 17.5"/><path fill="#000" fill-rule="evenodd" d="M58.91 228.66c2.95.65 5.65 2.16 7.76 4.33.18.19.28.44.29.7v6.79c.03 3.46-1.17 6.81-3.39 9.46v3.05c0 .64-.49 1.18-1.13 1.22H46.73c-.64-.04-1.14-.58-1.13-1.22v-2.17c-.9-.83-1.66-1.8-2.26-2.87-.81-1.4-1.36-2.93-1.62-4.52l-5.26-6.24a4.1 4.1 0 0 1-1.13-2.9c0-1.12.46-2.2 1.27-2.98a4.243 4.243 0 0 1 5.96 0l1.81 1.79v-11.31a3.84 3.84 0 0 1 3.95-3.71 3.84 3.84 0 0 1 3.95 3.71v6c2.24.04 4.46.34 6.63.88zm2.86 20.09c1.96-2.28 3.01-5.21 2.94-8.21v-6.37c-.85-.78-1.8-1.44-2.82-1.96v5.4l-1.81-.4v-5.83c-.57-.22-1.14-.4-1.73-.55-.49-.12-.96-.23-1.42-.32v6.05l-1.81-.4v-5.92c-.94-.12-1.89-.18-2.84-.2v5.57l-2.26-.49v-13.35c-.08-.86-.83-1.5-1.69-1.45-.86-.05-1.61.59-1.69 1.45v16.93l-2.26 1.13v-3.55l-3.39-3.39c-.77-.76-2.02-.76-2.79 0-.37.36-.57.85-.57 1.37s.21 1.01.57 1.37l5.56 6.58c.16.19.25.42.26.67.17 1.41.64 2.76 1.36 3.98a8.1 8.1 0 0 0 2.06 2.52c.31.21.5.56.5.94v1.67h13.4v-2.44c.04-.32.2-.61.45-.81z" clip-rule="evenodd"/><path fill="#fff" fill-rule="evenodd" d="M61.87 248.79c1.96-2.28 3.01-5.21 2.94-8.21v-6.37c-.85-.78-1.8-1.44-2.82-1.96v5.4l-1.81-.4v-5.83c-.57-.22-1.14-.4-1.73-.55-.49-.12-.96-.23-1.42-.32v6.05l-1.81-.4v-5.92c-.94-.12-1.89-.18-2.84-.2v5.57l-2.26-.49v-13.35c-.08-.86-.83-1.5-1.69-1.45-.86-.05-1.61.59-1.69 1.45v16.93l-2.26 1.13v-3.55l-3.39-3.39c-.77-.76-2.02-.76-2.79 0-.37.36-.57.85-.57 1.37s.21 1.01.57 1.37l5.56 6.58c.16.19.25.42.26.67.17 1.41.64 2.76 1.36 3.98a8.1 8.1 0 0 0 2.06 2.52c.31.21.5.56.5.94v1.67h13.4v-2.44c.04-.32.2-.61.45-.81z" clip-rule="evenodd"/><path fill="#fff" d="m72.12 212.13-3.44 8.24h-1.67l-3.44-8.24h1.66l2.63 6.25 2.62-6.25h1.66zm1.36.85a.83.83 0 0 1-.25-.59c0-.23.08-.42.25-.58s.36-.25.59-.25.42.08.58.25.25.36.25.58-.08.42-.25.59-.36.25-.58.25-.43-.08-.59-.25m-.14 1.19h1.46v6.2h-1.46zm4.48 5.91c-.51-.29-.92-.69-1.22-1.19s-.45-1.04-.45-1.63.15-1.12.45-1.62.71-.89 1.22-1.18 1.07-.44 1.67-.44 1.15.15 1.66.44.91.69 1.21 1.18.44 1.04.44 1.62-.15 1.13-.44 1.63c-.3.5-.7.9-1.21 1.19s-1.06.44-1.66.44-1.16-.15-1.67-.44m2.6-1.08c.29-.18.52-.42.69-.73s.26-.64.26-1-.08-.69-.25-1c-.17-.3-.4-.55-.69-.73s-.61-.27-.94-.27-.66.09-.95.27-.52.42-.69.73c-.17.3-.26.64-.26 1s.09.69.26 1 .4.55.69.73.6.27.95.27.65-.09.94-.27zm3.74-7.01h1.46v8.39h-1.46zm6.99 7.17c.32-.12.58-.28.78-.47l.84.86c-.26.28-.64.51-1.12.69s-.95.27-1.4.27c-.59 0-1.14-.14-1.64-.42s-.9-.67-1.19-1.16a3.3 3.3 0 0 1-.44-1.68c0-.62.14-1.17.42-1.66s.66-.87 1.15-1.15 1.02-.42 1.61-.42c.95 0 1.7.33 2.24.98.54.66.81 1.55.81 2.69H88.4c.08.5.28.89.61 1.19.32.3.72.45 1.19.45.31 0 .63-.06.95-.18zm-2.11-3.55c-.32.28-.53.65-.62 1.11h3.38c-.07-.46-.25-.82-.52-1.1s-.64-.42-1.1-.42-.82.14-1.14.41m8.81 4.42a2.1 2.1 0 0 1-1.33.49c-.51 0-.93-.17-1.25-.5-.32-.34-.49-.76-.49-1.28v-3.35h-.9v-1.21h.9v-1.7h1.42v1.7h1.4v1.21h-1.4v3.17c0 .21.06.38.18.52s.27.2.44.2c.12 0 .23-.02.34-.06s.2-.1.27-.17zm50.689-7.9h4.04c.47 0 .89.09 1.26.26.37.18.65.42.86.74.2.32.31.67.31 1.06 0 .8-.39 1.41-1.16 1.82.48.23.85.53 1.12.89.26.36.4.77.4 1.22s-.11.82-.34 1.16c-.22.34-.54.61-.94.8s-.85.29-1.36.29h-4.19zm3.67 3.37c.37 0 .67-.1.91-.29.24-.2.35-.44.35-.74s-.12-.55-.35-.75c-.24-.2-.54-.29-.91-.29h-2.18v2.08h2.18zm.23 3.58q.6 0 .99-.33c.26-.22.39-.5.39-.85s-.13-.63-.39-.85q-.39-.33-.99-.33h-2.41v2.35h2.41zm4.452-7.09h1.46v8.39h-1.46zm8.85 2.18v6.2h-1.46v-.84c-.19.3-.46.53-.8.71s-.72.27-1.13.27c-.45 0-.85-.1-1.19-.31-.35-.2-.62-.49-.82-.85s-.29-.78-.29-1.24v-3.95h1.43v3.66c0 .42.12.77.36 1.04s.55.4.94.4c.42 0 .78-.13 1.07-.39s.44-.58.44-.95v-3.76h1.46zm5.538 4.99c.32-.12.58-.28.78-.47l.84.86c-.26.28-.64.51-1.12.69s-.95.27-1.4.27c-.59 0-1.14-.14-1.64-.42s-.9-.67-1.19-1.16a3.3 3.3 0 0 1-.44-1.68c0-.62.14-1.17.42-1.66s.66-.87 1.15-1.15 1.02-.42 1.61-.42c.95 0 1.7.33 2.24.98.54.66.81 1.55.81 2.69h-4.81c.08.5.28.89.61 1.19.32.3.72.45 1.19.45.31 0 .63-.06.95-.18zm-2.11-3.55c-.32.28-.53.65-.62 1.11h3.38c-.07-.46-.25-.82-.52-1.1s-.64-.42-1.1-.42-.82.14-1.14.41"/></svg>
