<svg xmlns="http://www.w3.org/2000/svg" width="450" height="260" fill="none"><path fill="#22343C" d="M.5 4A3.5 3.5 0 0 1 4 .5h442a3.5 3.5 0 0 1 3.5 3.5v252a3.5 3.5 0 0 1-3.5 3.5H4A3.5 3.5 0 0 1 .5 256z"/><path stroke="#6A7A81" d="M.5 4A3.5 3.5 0 0 1 4 .5h442a3.5 3.5 0 0 1 3.5 3.5v252a3.5 3.5 0 0 1-3.5 3.5H4A3.5 3.5 0 0 1 .5 256z"/><path fill="#22343C" d="M120.33 22.42H56.95a2.26 2.26 0 0 0-2.26 2.26v28.13a2.26 2.26 0 0 0 2.26 2.26h63.38a2.26 2.26 0 0 0 2.26-2.26V24.68a2.26 2.26 0 0 0-2.26-2.26"/><path fill="#2EC0FF" d="M120.34 56.06H56.95a3.26 3.26 0 0 1-3.26-3.26V24.67c0-1.8 1.46-3.26 3.26-3.26h63.39c1.8 0 3.26 1.46 3.26 3.26V52.8c0 1.8-1.46 3.26-3.26 3.26M56.95 23.42c-.69 0-1.26.56-1.26 1.26v28.13c0 .69.56 1.26 1.26 1.26h63.39c.69 0 1.26-.56 1.26-1.26V24.68c0-.69-.56-1.26-1.26-1.26z"/><path fill="#fff" d="M66.79 44.35A6.64 6.64 0 0 1 64.43 42c-.59-.99-.88-2.05-.88-3.19s.29-2.2.88-3.18 1.37-1.76 2.36-2.34c.98-.58 2.04-.87 3.17-.87s2.2.29 3.19.87 1.77 1.36 2.35 2.34q.87 1.47.87 3.18c0 1.14-.29 2.2-.87 3.19s-1.37 1.77-2.35 2.35-2.05.87-3.19.87-2.18-.29-3.17-.87m5.43-1.45c.7-.43 1.26-1.01 1.67-1.74s.62-1.51.62-2.35-.21-1.62-.62-2.34-.97-1.3-1.67-1.73-1.46-.65-2.26-.65-1.56.22-2.26.65-1.26 1.01-1.67 1.73-.62 1.5-.62 2.34.21 1.62.62 2.35.97 1.3 1.67 1.74c.7.43 1.46.65 2.26.65s1.56-.22 2.26-.65m11.2 1.65c-.25.2-.54.37-.87.49s-.66.18-1 .18c-.72 0-1.31-.24-1.76-.71-.46-.47-.68-1.08-.68-1.83v-5.47h-1.39V35.7h1.39v-2.56h1.75v2.56h2.2v1.51h-2.2v5.35c0 .32.1.59.29.8s.42.32.68.32c.19 0 .37-.03.54-.1s.3-.15.4-.24l.67 1.22zm8.41-8.62c.53.3.94.72 1.23 1.27s.44 1.17.44 1.88V45h-1.73v-5.62c0-.7-.2-1.26-.59-1.7-.4-.44-.91-.66-1.55-.66q-.705 0-1.29.3c-.4.2-.71.46-.94.8s-.34.7-.34 1.1V45h-1.78V32.42h1.78v4.64a3.1 3.1 0 0 1 1.21-1.14c.53-.29 1.12-.44 1.75-.44q1.005 0 1.8.45zm9.98 7.51c.52-.2.93-.46 1.21-.76l1.04 1.1c-.4.43-.95.78-1.67 1.04-.71.26-1.41.4-2.1.4-.85 0-1.65-.21-2.38-.63s-1.33-1-1.76-1.75-.66-1.59-.66-2.51.21-1.74.63-2.48.99-1.32 1.7-1.74 1.5-.63 2.35-.63c.94 0 1.74.22 2.42.67.68.44 1.19 1.07 1.55 1.89.35.82.53 1.78.53 2.88h-7.43c.11.84.43 1.52.98 2.04.54.52 1.23.78 2.04.78.5 0 1.02-.1 1.54-.31zm-3.53-5.76c-.55.48-.89 1.12-1.02 1.93h5.69c-.1-.78-.38-1.42-.86-1.91-.47-.49-1.1-.74-1.88-.74s-1.39.24-1.93.72m11.61-1.65c.61-.37 1.31-.55 2.11-.55v1.55c-.67 0-1.27.13-1.8.38s-.94.61-1.22 1.07c-.29.46-.43.99-.43 1.58v4.95h-1.78V35.7h1.78v1.82c.29-.62.74-1.12 1.34-1.48z"/><path fill="#F5FDAA" d="M209.33 18.08c-4.81.68-8.8 1.49-13.49 2.74-4.69 1.26-8.55 2.55-13.05 4.37s-8.18 3.57-12.42 5.93c-4.25 2.35-7.68 4.54-11.61 7.4-3.93 2.85-7.07 5.44-10.62 8.76l76.89 82.46V16.98c-4.86 0-10.88.42-15.69 1.1z"/><path fill="#22343C" d="M225.02 130.23c-.14 0-.27-.06-.37-.16l-76.89-82.46a.5.5 0 0 1-.13-.36c0-.13.06-.26.16-.35 3.55-3.31 6.74-5.94 10.67-8.79 3.93-2.86 7.42-5.08 11.66-7.43 4.25-2.35 7.98-4.13 12.48-5.95s8.42-3.13 13.11-4.39 8.74-2.08 13.55-2.76c4.84-.68 10.88-1.1 15.76-1.1.28 0 .5.22.5.5v112.74c0 .21-.13.39-.32.46-.06.02-.12.04-.18.04zM148.84 47.3l75.68 81.16V17.48c-4.75.03-10.49.44-15.12 1.09-4.77.67-8.78 1.49-13.43 2.73-4.65 1.25-8.54 2.55-13 4.35s-8.16 3.57-12.37 5.9c-4.2 2.33-7.66 4.53-11.56 7.36-3.76 2.73-6.83 5.25-10.21 8.38z"/><path fill="#E0B4F3" d="m225.02 129.73-86.37-72.48c3.12-3.72 5.92-6.67 9.48-9.99l76.89 82.46z"/><path fill="#22343C" d="M225.02 130.23a.5.5 0 0 1-.32-.12l-86.37-72.47a.5.5 0 0 1-.18-.34c-.01-.13.03-.26.12-.37a107 107 0 0 1 9.52-10.03c.1-.09.22-.13.36-.13.13 0 .26.06.35.16l76.89 82.46c.18.19.18.49 0 .68-.1.1-.23.16-.36.16zm-85.66-73.04 79.72 66.89-70.97-76.11c-3.23 3.04-5.89 5.83-8.75 9.22"/><path fill="#EBFEFF" d="m225.02 129.73-97.64-56.37c3.64-6.31 6.59-10.52 11.27-16.1z"/><path fill="#22343C" d="M225.02 130.23c-.09 0-.17-.02-.25-.07l-97.64-56.37a.493.493 0 0 1-.18-.68c3.66-6.33 6.62-10.56 11.32-16.17.08-.1.21-.17.34-.18.13 0 .26.03.37.12l86.37 72.47a.499.499 0 0 1-.32.88zm-96.96-57.05 92.26 53.26-81.61-68.48c-4.37 5.24-7.22 9.32-10.65 15.21z"/><path fill="#8FDDFF" d="m225.02 129.73-110.28-23.44c2.54-11.94 6.54-22.36 12.64-32.93z"/><path fill="#22343C" d="M225.02 130.23s-.07 0-.1-.01l-110.28-23.44a.507.507 0 0 1-.39-.59c2.54-11.97 6.58-22.48 12.7-33.08.07-.12.17-.2.3-.23s.26-.02.38.05l97.64 56.37c.21.12.3.38.22.61-.08.2-.26.32-.47.32M115.33 105.9l106.7 22.68-94.47-54.54c-5.84 10.21-9.74 20.37-12.23 31.86"/><path fill="#D8E93F" d="m225.02 129.73-112.13 11.78c-1.28-12.14-.69-23.29 1.85-35.23l110.28 23.44z"/><path fill="#22343C" d="M112.89 142.01a.49.49 0 0 1-.49-.45c-1.28-12.17-.69-23.41 1.85-35.38.03-.13.11-.24.22-.32.11-.07.25-.1.38-.07l110.28 23.44c.24.05.41.27.4.52s-.2.45-.45.47l-112.13 11.79zm2.23-35.13c-2.4 11.52-2.97 22.38-1.79 34.08l108.49-11.4z"/><path fill="#80F7FF" d="m225.02 129.73-69.41 88.84c-24.98-19.51-39.4-45.54-42.71-77.06l112.13-11.78z"/><path fill="#22343C" d="M155.61 219.07c-.11 0-.22-.03-.31-.11-25.13-19.64-39.57-45.68-42.9-77.4-.01-.13.03-.26.11-.37.08-.1.2-.17.34-.18l112.13-11.79c.19-.02.39.08.49.25s.08.39-.04.55l-69.41 88.84c-.1.13-.25.19-.39.19zm-42.16-77.11c3.38 31.05 17.54 56.59 42.08 75.91l68.38-87.52z"/><path fill="#AC50D3" d="m225.02 129.73 70.95 87.62c-41.71 33.78-98.07 34.27-140.36 1.22z"/><path fill="#22343C" d="M225.06 243.51c-24.39 0-48.8-8.17-69.76-24.54a.53.53 0 0 1-.19-.33.5.5 0 0 1 .1-.37l69.41-88.84a.493.493 0 0 1 .78 0l70.95 87.62c.08.1.12.23.11.37a.52.52 0 0 1-.18.34c-21.2 17.17-46.2 25.77-71.23 25.77zm-68.75-25.02c41.91 32.47 97.62 31.98 138.96-1.21l-70.24-86.74z"/><path fill="#2EC0FF" d="M225.02 129.73V16.98c62.27 0 112.74 50.48 112.74 112.74 0 35.37-14.31 65.36-41.79 87.62l-70.95-87.62z"/><path fill="#22343C" d="M295.97 217.84c-.15 0-.29-.06-.39-.19l-70.95-87.62a.5.5 0 0 1-.11-.31V16.98c0-.28.22-.5.5-.5 62.44 0 113.24 50.8 113.24 113.24 0 35.34-14.52 65.77-41.98 88.01-.09.08-.2.11-.31.11m-70.45-88.29 70.53 87.09c26.97-22.01 41.22-52.06 41.22-86.91 0-61.73-50.08-111.97-111.74-112.24v112.07z"/><path fill="#2EC0FF" d="M210.92 38.98h-87.64c-.55 0-1-.45-1-1s.45-1 1-1h87.64c.55 0 1 .45 1 1s-.45 1-1 1"/></svg>
