<svg xmlns="http://www.w3.org/2000/svg" width="420" height="260" fill="none"><path fill="#22343C" d="M.5 4A3.5 3.5 0 0 1 4 .5h412a3.5 3.5 0 0 1 3.5 3.5v252a3.5 3.5 0 0 1-3.5 3.5H4A3.5 3.5 0 0 1 .5 256z"/><path stroke="#6A7A81" d="M.5 4A3.5 3.5 0 0 1 4 .5h412a3.5 3.5 0 0 1 3.5 3.5v252a3.5 3.5 0 0 1-3.5 3.5H4A3.5 3.5 0 0 1 .5 256z"/><path fill="#2EC0FF" d="M262.7 66.08H137.72c-2.28 0-4.14-1.86-4.14-4.14V35.57c0-2.28 1.86-4.14 4.14-4.14H262.7c2.28 0 4.14 1.86 4.14 4.14v26.37c0 2.28-1.86 4.14-4.14 4.14M137.72 33.43c-1.18 0-2.14.96-2.14 2.14v26.37c0 1.18.96 2.14 2.14 2.14H262.7c1.18 0 2.14-.96 2.14-2.14V35.57c0-1.18-.96-2.14-2.14-2.14z"/><path fill="#929CA4" d="M161.7 185.56c-.76 0-1.96-1.6-11.48-14.26-5.55-7.39-13.25-17.71-22.87-30.67-14.74-19.86-29.57-39.97-32.52-43.97-19.58 11.07-48.46 27.56-50.17 29.02-.33.37-.88.45-1.31.17a1.01 1.01 0 0 1-.28-1.39c.75-1.13 28.45-16.93 51.54-29.98a1 1 0 0 1 1.3.28c17.07 23.15 60.73 82.2 65.97 88.5 2.07-1.31 7.84-4.25 23.92-12.29 13.02-6.51 31.17-15.5 53.96-26.72 38.79-19.1 78.08-38.31 78.48-38.5.08-.04.16-.06.24-.08l51.73-10.54c.54-.11 1.07.24 1.18.78s-.24 1.07-.78 1.18l-51.6 10.51c-52.63 25.72-152.46 74.75-156.52 77.59-.12.13-.27.24-.44.3-.12.04-.22.07-.33.07zm1.02-1.01v.08z"/><path fill="#fff" d="M376.79 228.57H43.21c-.55 0-1-.45-1-1V32.81c0-.55.45-1 1-1s1 .45 1 1v193.76h332.58c.55 0 1 .45 1 1s-.45 1-1 1"/><path fill="#fff" d="M43.51 194.7a1 1 0 0 1-.39-1.92l149.87-63.23c.24-.1.5-.11.75-.01l88.58 33.8 87.26-43.33c.5-.25 1.1-.04 1.34.45.25.49.04 1.09-.45 1.34l-87.65 43.53c-.25.12-.54.14-.8.04l-88.61-33.81-149.5 63.07c-.13.05-.26.08-.39.08z"/><path fill="#22343C" d="M193.19 137.11a6.83 6.83 0 1 0 0-13.66 6.83 6.83 0 0 0 0 13.66"/><path fill="#fff" d="M193.19 138.11c-4.32 0-7.83-3.51-7.83-7.83s3.51-7.83 7.83-7.83 7.83 3.51 7.83 7.83-3.51 7.83-7.83 7.83m0-13.66c-3.21 0-5.83 2.62-5.83 5.83s2.62 5.83 5.83 5.83 5.83-2.62 5.83-5.83-2.62-5.83-5.83-5.83"/><path fill="#22343C" d="M94.91 102.76a6.83 6.83 0 1 0 0-13.66 6.83 6.83 0 0 0 0 13.66"/><path fill="#929CA4" d="M94.91 103.76c-4.32 0-7.83-3.51-7.83-7.83s3.51-7.83 7.83-7.83 7.83 3.51 7.83 7.83-3.51 7.83-7.83 7.83m0-13.66c-3.21 0-5.83 2.62-5.83 5.83s2.62 5.83 5.83 5.83 5.83-2.62 5.83-5.83-2.62-5.83-5.83-5.83"/><path fill="#22343C" d="M161.13 188.82a6.83 6.83 0 1 0 0-13.66 6.83 6.83 0 0 0 0 13.66"/><path fill="#929CA4" d="M161.13 189.82c-4.32 0-7.83-3.51-7.83-7.83s3.51-7.83 7.83-7.83 7.83 3.51 7.83 7.83-3.51 7.83-7.83 7.83m0-13.66c-3.21 0-5.83 2.62-5.83 5.83s2.62 5.83 5.83 5.83 5.83-2.62 5.83-5.83-2.62-5.83-5.83-5.83"/><path fill="#22343C" d="M317.1 112.97a6.83 6.83 0 1 0 0-13.66 6.83 6.83 0 0 0 0 13.66"/><path fill="#929CA4" d="M317.1 113.97c-4.32 0-7.83-3.51-7.83-7.83s3.51-7.83 7.83-7.83 7.83 3.51 7.83 7.83-3.51 7.83-7.83 7.83m0-13.66c-3.21 0-5.83 2.62-5.83 5.83s2.62 5.83 5.83 5.83 5.83-2.62 5.83-5.83-2.62-5.83-5.83-5.83"/><path fill="#22343C" d="M282.04 170.42a6.83 6.83 0 1 0 0-13.66 6.83 6.83 0 0 0 0 13.66"/><path fill="#fff" d="M282.04 171.42c-4.32 0-7.83-3.51-7.83-7.83s3.51-7.83 7.83-7.83 7.83 3.51 7.83 7.83-3.51 7.83-7.83 7.83m0-13.66c-3.21 0-5.83 2.62-5.83 5.83s2.62 5.83 5.83 5.83 5.83-2.62 5.83-5.83-2.62-5.83-5.83-5.83m-135-113.41h-4.07v-1.69h9.94v1.69h-4.05v10.67h-1.82zm14.36 1.6c.53.3.94.72 1.23 1.27s.44 1.17.44 1.88v5.92h-1.73V49.4c0-.7-.2-1.26-.59-1.7-.4-.44-.91-.66-1.55-.66-.47 0-.9.1-1.3.3s-.71.46-.94.8-.34.7-.34 1.1v5.78h-1.78V42.44h1.78v4.64a3.1 3.1 0 0 1 1.21-1.14c.53-.29 1.12-.44 1.75-.44q1.005 0 1.8.45zm4.53-2.11c-.21-.22-.31-.47-.31-.76s.1-.54.31-.75.47-.32.77-.32.54.11.75.32.31.46.31.75-.1.54-.31.76-.46.32-.75.32-.56-.11-.77-.32m-.13 1.87h1.78v9.31h-1.78zm5.66 9.17c-.7-.24-1.32-.58-1.87-1.03l.81-1.22c.52.38 1.04.67 1.58.87s1.07.3 1.58.3c.55 0 .99-.11 1.32-.34s.5-.53.5-.92-.17-.69-.52-.89-.89-.4-1.64-.6c-1.14-.32-1.96-.68-2.46-1.06s-.75-.94-.75-1.66c0-.85.31-1.54.94-2.05.63-.52 1.44-.77 2.44-.77.59 0 1.18.1 1.78.29s1.15.46 1.66.79l-.74 1.26q-1.44-.9-2.7-.9c-.49 0-.9.11-1.21.32q-.48.315-.48.87c0 .24.07.43.22.58.14.14.36.27.65.39s.74.27 1.35.46c.67.2 1.22.4 1.65.58.43.19.78.46 1.07.82s.43.83.43 1.4c0 .88-.33 1.58-.98 2.1q-.975.78-2.55.78c-.7 0-1.39-.12-2.09-.36zm12.85-11.04c-.21-.22-.31-.47-.31-.76s.1-.54.31-.75.47-.32.77-.32.54.11.75.32.31.46.31.75-.1.54-.31.76-.46.32-.75.32-.56-.11-.77-.32m-.13 1.87h1.78v9.31h-1.78zm5.66 9.17c-.7-.24-1.32-.58-1.87-1.03l.81-1.22c.52.38 1.04.67 1.58.87s1.07.3 1.58.3c.55 0 .99-.11 1.32-.34s.5-.53.5-.92-.17-.69-.52-.89-.89-.4-1.64-.6c-1.14-.32-1.96-.68-2.46-1.06s-.75-.94-.75-1.66c0-.85.31-1.54.94-2.05.63-.52 1.44-.77 2.44-.77.59 0 1.18.1 1.78.29s1.15.46 1.66.79l-.74 1.26q-1.44-.9-2.7-.9c-.49 0-.9.11-1.21.32q-.48.315-.48.87c0 .24.07.43.22.58.14.14.36.27.65.39s.74.27 1.35.46c.67.2 1.22.4 1.65.58.43.19.78.46 1.07.82s.43.83.43 1.4c0 .88-.33 1.58-.98 2.1q-.975.78-2.55.78c-.7 0-1.39-.12-2.09-.36zm19.1-8.32c.68.71 1.03 1.65 1.03 2.83v5.63h-1.75v-1.26c-.34.47-.79.83-1.35 1.09s-1.15.39-1.75.39c-1 0-1.82-.27-2.47-.81s-.97-1.26-.97-2.16c0-.6.16-1.14.49-1.61s.78-.84 1.35-1.1 1.2-.39 1.88-.39c.89 0 1.82.17 2.81.5v-.29c0-.68-.19-1.26-.56-1.72s-.98-.69-1.84-.69c-.73 0-1.6.26-2.61.77l-.67-1.31c1.25-.62 2.42-.94 3.53-.94 1.22 0 2.18.35 2.86 1.06zm-1.73 6.81c.53-.31.86-.73 1.01-1.27v-1.24c-.79-.24-1.64-.36-2.54-.36-.64 0-1.18.16-1.62.49-.44.32-.67.73-.67 1.22s.19.88.58 1.18c.39.29.89.44 1.5.44s1.2-.15 1.73-.46zm10.4-10.93h1.78v12.58h-1.78zm11.09 4.12c.68.71 1.03 1.65 1.03 2.83v5.63h-1.75v-1.26c-.34.47-.79.83-1.35 1.09s-1.15.39-1.75.39c-1 0-1.82-.27-2.47-.81s-.97-1.26-.97-2.16c0-.6.16-1.14.49-1.61s.78-.84 1.35-1.1 1.2-.39 1.88-.39c.89 0 1.82.17 2.81.5v-.29c0-.68-.19-1.26-.56-1.72s-.98-.69-1.84-.69c-.73 0-1.6.26-2.61.77l-.67-1.31c1.25-.62 2.42-.94 3.53-.94 1.22 0 2.18.35 2.86 1.06zm-1.73 6.81c.53-.31.86-.73 1.01-1.27v-1.24c-.79-.24-1.64-.36-2.54-.36-.64 0-1.18.16-1.62.49-.44.32-.67.73-.67 1.22s.19.88.58 1.18c.39.29.89.44 1.5.44s1.2-.15 1.73-.46zm12.78-7.25c.65.41 1.16.99 1.53 1.73s.56 1.58.56 2.51-.19 1.78-.56 2.52q-.555 1.11-1.53 1.74c-.65.42-1.37.62-2.18.62-.72 0-1.37-.16-1.94-.49-.58-.32-1.04-.79-1.4-1.39v1.66h-1.78V42.44h1.78v4.93c.36-.6.83-1.06 1.4-1.39s1.22-.49 1.94-.49c.8 0 1.53.21 2.18.62zm-1.12 7.15c.44-.28.79-.68 1.04-1.19s.37-1.08.37-1.72-.12-1.21-.37-1.71-.59-.9-1.04-1.18-.94-.42-1.49-.42-1.05.14-1.48.42-.78.67-1.03 1.18c-.25.5-.37 1.07-.37 1.71s.12 1.21.37 1.72.59.91 1.03 1.19.93.42 1.48.42 1.05-.14 1.49-.42m11.05.18c.52-.2.93-.46 1.22-.76l1.04 1.1c-.4.43-.95.78-1.67 1.04-.71.26-1.41.4-2.1.4-.85 0-1.65-.21-2.38-.63-.74-.42-1.33-1-1.76-1.75s-.66-1.59-.66-2.51.21-1.74.63-2.48.99-1.32 1.7-1.74 1.5-.63 2.35-.63c.94 0 1.74.22 2.42.67.68.44 1.19 1.07 1.55 1.89.35.82.53 1.78.53 2.88h-7.43c.11.84.44 1.52.98 2.04q.825.78 2.04.78c.5 0 1.02-.1 1.54-.31zm-3.53-5.76c-.55.48-.89 1.12-1.02 1.93h5.69c-.1-.78-.38-1.42-.85-1.91s-1.1-.74-1.88-.74-1.39.24-1.94.72m8.49-5.25h1.78v12.58h-1.78zM86.08 71.18l-1.43.91-.5-.88 2.17-1.48h.97v8.24h-1.21v-6.8zm4.76 6.4c-.54-.36-.95-.87-1.25-1.52s-.45-1.38-.45-2.21.15-1.56.45-2.2.72-1.15 1.25-1.51 1.14-.55 1.82-.55 1.27.18 1.81.55.95.87 1.25 1.51.45 1.38.45 2.2-.15 1.56-.45 2.21-.71 1.15-1.24 1.52c-.53.36-1.13.55-1.81.55s-1.29-.18-1.82-.55zm3-.97c.34-.27.61-.64.8-1.12s.29-1.02.29-1.63-.1-1.15-.29-1.63-.46-.85-.8-1.12-.74-.4-1.18-.4-.83.13-1.18.4-.62.64-.82 1.12-.29 1.02-.29 1.63.1 1.15.29 1.63c.2.48.47.85.82 1.12s.74.4 1.18.4.83-.13 1.18-.4m5.38.97c-.54-.36-.95-.87-1.25-1.52s-.45-1.38-.45-2.21.15-1.56.45-2.2.72-1.15 1.25-1.51a3.2 3.2 0 0 1 1.82-.55c.68 0 1.27.18 1.81.55s.95.87 1.25 1.51.45 1.38.45 2.2-.15 1.56-.45 2.21-.71 1.15-1.24 1.52c-.53.36-1.13.55-1.81.55s-1.29-.18-1.82-.55zm3-.97c.34-.27.61-.64.8-1.12s.29-1.02.29-1.63-.1-1.15-.29-1.63-.46-.85-.8-1.12-.74-.4-1.18-.4-.83.13-1.18.4-.62.64-.82 1.12-.29 1.02-.29 1.63.1 1.15.29 1.63c.2.48.47.85.82 1.12s.74.4 1.18.4.83-.13 1.18-.4m84.75 41.14c-.47-.19-.84-.46-1.12-.81s-.41-.75-.41-1.22c0-.49.16-.91.49-1.28.32-.36.75-.63 1.27-.81-.48-.19-.86-.45-1.13-.77s-.41-.7-.41-1.15.13-.84.4-1.18.62-.59 1.07-.77c.44-.18.92-.26 1.42-.26s1 .09 1.45.27c.44.18.8.44 1.06.77.26.34.4.72.4 1.16 0 .46-.14.86-.43 1.18-.28.32-.65.57-1.11.74.52.18.94.46 1.26.82s.48.79.48 1.27-.14.87-.41 1.22c-.28.35-.65.62-1.12.81s-1 .28-1.57.28-1.11-.1-1.58-.29zm2.93-1.16c.36-.25.54-.58.54-.98 0-.27-.1-.52-.29-.73a1.8 1.8 0 0 0-.73-.5c-.29-.12-.58-.18-.87-.19-.28 0-.57.07-.86.19s-.54.29-.73.5c-.2.22-.29.46-.29.73 0 .4.18.73.54.98s.81.38 1.34.38.98-.13 1.34-.38zm-.18-3.81c.35-.24.53-.55.53-.94 0-.36-.16-.66-.49-.91-.32-.24-.73-.37-1.21-.37q-.72 0-1.2.36c-.32.24-.48.54-.48.91 0 .39.17.71.52.94.35.24.73.37 1.16.39.42-.02.81-.16 1.16-.4zm4.99 4.71c-.54-.36-.95-.87-1.25-1.52s-.45-1.38-.45-2.21.15-1.56.45-2.2.72-1.15 1.25-1.51 1.14-.55 1.82-.55 1.27.18 1.81.55.95.87 1.25 1.51.45 1.38.45 2.2-.15 1.56-.45 2.21-.71 1.15-1.24 1.52c-.53.36-1.13.55-1.81.55s-1.29-.18-1.82-.55zm3-.97c.34-.27.61-.64.8-1.12s.29-1.02.29-1.63-.1-1.15-.29-1.63-.46-.85-.8-1.12-.74-.4-1.18-.4-.83.13-1.18.4-.62.64-.82 1.12-.29 1.02-.29 1.63.1 1.15.29 1.63c.2.48.47.85.82 1.12s.74.4 1.18.4.83-.13 1.18-.4m-39.98 52.18h-4.09l-.13-.97 4-5.38h1.44v5.28h1.19v1.07h-1.19v1.9h-1.21v-1.9zm0-1.07v-3.9l-2.89 3.9zm5.11 2.56c-.54-.36-.95-.87-1.25-1.52s-.45-1.38-.45-2.21.15-1.56.45-2.2.72-1.15 1.25-1.51 1.14-.55 1.82-.55 1.27.18 1.81.55.95.87 1.25 1.51.45 1.38.45 2.2-.15 1.56-.45 2.21-.71 1.15-1.24 1.52c-.53.36-1.13.55-1.81.55s-1.29-.18-1.82-.55zm3-.97c.34-.27.61-.64.8-1.12s.29-1.02.29-1.63-.1-1.15-.29-1.63-.46-.85-.8-1.12-.74-.4-1.18-.4-.83.13-1.18.4-.62.64-.82 1.12-.29 1.02-.29 1.63.1 1.15.29 1.63c.2.48.47.85.82 1.12s.74.4 1.18.4.83-.13 1.18-.4m148.81-82.08c.54.76.8 1.76.8 3.01 0 .82-.15 1.57-.45 2.24s-.72 1.19-1.25 1.58c-.53.38-1.13.58-1.78.58-.9 0-1.7-.32-2.4-.95l.62-.94c.28.26.56.45.84.59s.6.2.95.2c.41 0 .78-.14 1.12-.41.34-.28.6-.65.8-1.13s.3-1.02.32-1.62c-.25.34-.57.61-.97.8s-.82.28-1.27.28c-.51 0-.98-.1-1.4-.31s-.75-.51-1-.89c-.25-.39-.37-.85-.37-1.37s.13-.99.38-1.42c.26-.42.61-.76 1.07-1s.97-.36 1.54-.36c1.1 0 1.91.38 2.45 1.13zm-1.2 2.84c.34-.24.56-.56.67-.96-.1-.62-.31-1.11-.62-1.46s-.73-.52-1.26-.52c-.36 0-.67.08-.94.24s-.48.37-.62.63c-.15.26-.22.53-.22.81 0 .49.17.88.52 1.18s.78.44 1.29.44c.46 0 .85-.12 1.19-.36zm5.09 4.01c-.54-.36-.95-.87-1.25-1.52s-.45-1.38-.45-2.21.15-1.56.45-2.2.72-1.15 1.25-1.51 1.14-.55 1.82-.55 1.27.18 1.81.55.95.87 1.25 1.51.45 1.38.45 2.2-.15 1.56-.45 2.21-.71 1.15-1.24 1.52c-.53.36-1.13.55-1.81.55s-1.29-.18-1.82-.55zm3-.97c.34-.27.61-.64.8-1.12s.29-1.02.29-1.63-.1-1.15-.29-1.63-.46-.85-.8-1.12-.74-.4-1.18-.4-.83.13-1.18.4-.62.64-.82 1.12-.29 1.02-.29 1.63.1 1.15.29 1.63c.2.48.47.85.82 1.12s.74.4 1.18.4.83-.13 1.18-.4m-45.24 58.56c-.5-.23-.94-.55-1.31-.95l.76-.86c.69.73 1.44 1.09 2.27 1.09.53 0 .96-.16 1.3-.47s.5-.7.5-1.18-.17-.85-.5-1.15-.77-.44-1.31-.44c-.64 0-1.22.2-1.75.6l-.85-.38.12-4.31h5.06v1.13h-3.91l-.07 2.45c.53-.35 1.1-.53 1.7-.53.5 0 .96.1 1.37.31.41.2.74.5.98.89s.37.85.37 1.38-.13 1.03-.38 1.45-.61.74-1.07.97-.99.34-1.58.34c-.62 0-1.19-.11-1.69-.34zm7.7-.21c-.54-.36-.95-.87-1.25-1.52s-.45-1.38-.45-2.21.15-1.56.45-2.2.72-1.15 1.25-1.51 1.14-.55 1.82-.55 1.27.18 1.81.55.95.87 1.25 1.51.45 1.38.45 2.2-.15 1.56-.45 2.21-.71 1.15-1.24 1.52c-.53.36-1.13.55-1.81.55s-1.29-.18-1.82-.55zm3-.97c.34-.27.61-.64.8-1.12s.29-1.02.29-1.63-.1-1.15-.29-1.63-.46-.85-.8-1.12-.74-.4-1.18-.4-.83.13-1.18.4-.62.64-.82 1.12-.29 1.02-.29 1.63.1 1.15.29 1.63c.2.48.47.85.82 1.12s.74.4 1.18.4.83-.13 1.18-.4"/><path fill="#2EC0FF" d="M96.19 62.07h-2v-10.2c0-2.76 2.24-5 5-5h35.15v2H99.19c-1.65 0-3 1.35-3 3z"/><path fill="#2EC0FF" d="M108.89 85.01H81.88c-2.76 0-5-2.24-5-5V66.55c0-2.76 2.24-5 5-5h27.01c2.76 0 5 2.24 5 5v13.46c0 2.76-2.24 5-5 5M81.88 63.55c-1.65 0-3 1.35-3 3v13.46c0 1.65 1.35 3 3 3h27.01c1.65 0 3-1.35 3-3V66.55c0-1.65-1.35-3-3-3z"/></svg>