<svg xmlns="http://www.w3.org/2000/svg" width="292" height="260" fill="none"><path fill="#22343C" d="M.5 4A3.5 3.5 0 0 1 4 .5h284a3.5 3.5 0 0 1 3.5 3.5v252a3.5 3.5 0 0 1-3.5 3.5H4A3.5 3.5 0 0 1 .5 256z"/><path stroke="#6A7A81" d="M.5 4A3.5 3.5 0 0 1 4 .5h284a3.5 3.5 0 0 1 3.5 3.5v252a3.5 3.5 0 0 1-3.5 3.5H4A3.5 3.5 0 0 1 .5 256z"/><path fill="#2EC0FF" d="M76.05 64.35H55.22v154.16h20.83z"/><path fill="#AC50D3" d="M101.3 102.36H80.47v116.15h20.83z"/><path fill="#80F7FF" d="M126.55 157.64h-20.83v60.87h20.83z"/><path fill="#2EC0FF" d="M181.41 100.56h-20.83v117.95h20.83z"/><path fill="#AC50D3" d="M206.66 111.43h-20.83v107.08h20.83z"/><path fill="#80F7FF" d="M231.91 189.16h-20.83v29.34h20.83z"/><path fill="#fff" d="M250.53 219.51H37.21c-.55 0-1-.45-1-1V38.27c0-.55.45-1 1-1s1 .45 1 1V217.5h212.32c.55 0 1 .45 1 1s-.45 1-1 1z"/></svg>
