<svg xmlns="http://www.w3.org/2000/svg" fill="none" viewBox="0 0 928 192"><g clip-path="url(#prefix__clip0_13445_12240)"><mask id="a" width="928" height="192" x="0" y="0" maskUnits="userSpaceOnUse" style="mask-type:luminance"><path fill="#fff" d="M928 0H0v192h928z"/></mask><g fill="#3A4D55" mask="url(#a)"><path d="M308 447.4V163.1L61.9 20.9l-246.2 142.2v284.3L61.8 589.6zm526.1-418V-97.1l-109.5-63.2L615-97.1V29.4l109.5 63.2z"/></g><path fill="#E25F1E" d="M840.5 66.6v-6l-5.2-3-5.2 3v6l5.2 3z"/><path fill="#1983B8" d="M899.8 110a2 2 0 0 0-2.3-1.8v-.6a4.3 4.3 0 0 0-5-4.2 6.3 6.3 0 0 0-12.2 1.6q-.7-.3-1.4-.3a3.6 3.6 0 0 0 0 7.2h19q1.7-.2 1.9-2"/><path fill="#fff" d="M65.7 88.9 55 82.7V70.5l10.7-6.2 10.6 6.2v12.2zM57 81.6l8.7 5 8.6-5v-10l-8.6-5-8.7 5zm418 87.8-7.7-4.5v-9l7.8-4.6 7.8 4.5v9zm-5.7-5.7 5.8 3.4 5.8-3.4V157l-5.8-3.4-5.8 3.4zM226.2 171h-.5l-65.3-37.8a1 1 0 0 1-.5-.8V56.9q0-.5.5-.8l65.3-37.7a1 1 0 0 1 1 0L292 56q.5.3.5.8v75.5q0 .6-.5.8L226.7 171zM162 131.9l64.3 37.1 64.3-37.1V57.5l-64.3-37.1L162 57.5zm430.8 7.5-.5-.1-39.4-22.8a1 1 0 0 1-.5-.8V70.2q0-.5.5-.8l39.4-22.7a1 1 0 0 1 1 0l39.3 22.7q.5.3.5.8v3h-2v-2.4l-38.3-22.1-38.4 22.1v44.3l38.4 22.1 38.3-22.1v-2.9h2v3.5q0 .5-.5.8l-39.3 22.8z"/><path fill="#1983B8" d="M366.2 56.7a6.5 6.5 0 0 0-8-6.3l.2-2a14.8 14.8 0 0 0-17.5-14.6 21.8 21.8 0 0 0-42.1 5.7 12.4 12.4 0 0 0-17.3 11.3c0 6.9 5.5 12.4 12.3 12.4h66c3.5 0 6.4-3 6.4-6.5m-183.1 76.7a3 3 0 0 0-3.7-3v-.9a7 7 0 0 0-8.3-6.9 10.3 10.3 0 0 0-20 2.7 5.9 5.9 0 1 0-2.3 11.2h31.3a3 3 0 0 0 3-3"/><path fill="#FF8F3D" d="M226.2 94.6 197.7 134a48.5 48.5 0 0 1 28.5-88z"/><path fill="#66C2E9" d="m226.2 94.6 46 15a48.5 48.5 0 0 1-74.5 24.3z"/><path fill="#929CA4" d="m226.2 94.6 28.5-39.2a48 48 0 0 1 17.6 54.2z"/><path fill="#B2E0F4" d="M226.2 94.6V46.1c10.7 0 19.8 3 28.5 9.3z"/><path fill="#fff" d="M465.3 133H314.6a1 1 0 0 1-1-1q0-.9 1-1h150.7q.9.1 1 1-.1 1-1 1"/><path fill="#1983B8" d="M346.8 84.9h-23.5v38h23.5z"/><path fill="#66C2E9" d="M346.8 49.5h-23.5v35.6h23.5z"/><path fill="#1983B8" d="M379.7 94.9h-23.5v28h23.5z"/><path fill="#66C2E9" d="M379.7 72.8h-23.5v22.3h23.5z"/><path fill="#1983B8" d="M412.6 109.3h-23.5V123h23.5z"/><path fill="#66C2E9" d="M412.6 88.4h-23.5v21h23.5z"/><path fill="#1983B8" d="M445.5 104.9H422v18h23.5z"/><path fill="#66C2E9" d="M445.5 100.6H422v4.4h23.5z"/><path fill="#67777E" d="M444 57h54.6c3 0 5.4 2.5 5.4 5.4v18.2c0 3-2.4 5.4-5.4 5.4h-59.9V62.4c0-3 2.4-5.3 5.4-5.3"/><path fill="#67777E" d="M438.7 93.5V81.3h12.2z"/><path fill="#fff" d="M494.2 66.6H449a1 1 0 0 1-1-1q0-1 1-1h45q1 0 1 1t-1 1m-9 7.2h-36a1 1 0 0 1-1-1q.1-.9 1-1h36q.9.1 1 1-.1.9-1 1"/><path fill="#B2E0F4" d="M595.2 76.8h-22V92h22z"/><path fill="#66C2E9" d="M619.6 76.8h-22V92h22z"/><path fill="#009ADB" d="M644.1 76.8h-22V92h22z"/><path fill="#1983B8" d="M668.7 76.8h-22V92h22z"/><path fill="#FFDDC4" d="M595 94.4h-22v15.2h22z"/><path fill="#FFBC8B" d="M619.6 94.4h-22v15.2h22z"/><path fill="#FF8F3D" d="M644.1 94.4h-22v15.2h22z"/><path fill="#E25F1E" d="M668.7 94.4h-22v15.2h22z"/></g></svg>