<svg xmlns="http://www.w3.org/2000/svg" width="450" height="260" fill="none"><path fill="#22343C" d="M.5 4A3.5 3.5 0 0 1 4 .5h442a3.5 3.5 0 0 1 3.5 3.5v252a3.5 3.5 0 0 1-3.5 3.5H4A3.5 3.5 0 0 1 .5 256z"/><path stroke="#6A7A81" d="M.5 4A3.5 3.5 0 0 1 4 .5h442a3.5 3.5 0 0 1 3.5 3.5v252a3.5 3.5 0 0 1-3.5 3.5H4A3.5 3.5 0 0 1 .5 256z"/><path fill="#ACB9BE" d="m122.86 131.47-47.67 65.61c-36.23-26.33-44.27-77.04-17.94-113.27 15.8-21.74 38.73-33.43 65.61-33.43v81.1z"/><path fill="#22343C" d="m75.31 197.78-.4-.29c-17.63-12.81-29.22-31.72-32.63-53.25s1.77-43.09 14.58-60.72c15.99-22 38.81-33.63 66.01-33.63h.5v81.76l-48.06 66.14zm47.05-146.9c-26.64.14-49.01 11.62-64.7 33.22-12.65 17.42-17.77 38.72-14.4 59.98 3.34 21.1 14.64 39.65 31.83 52.3l47.28-65.07V50.88z"/><path fill="#E02200" d="m122.86 131.47 77.13 25.06c-13.84 42.6-59.59 65.91-102.19 52.07-8.52-2.77-15.36-6.25-22.61-11.52z"/><path fill="#fff" d="M122.95 213.11c-8.48 0-17-1.34-25.3-4.03-8.62-2.8-15.42-6.26-22.75-11.59l-.4-.29 48.17-66.31 77.95 25.33-.15.48c-6.74 20.73-21.14 37.59-40.56 47.49-11.64 5.93-24.26 8.93-36.96 8.93zM75.9 196.97c7.08 5.09 13.71 8.44 22.06 11.15 20.47 6.65 42.31 4.93 61.49-4.84 19.03-9.7 33.19-26.17 39.91-46.43l-76.3-24.79z"/><path fill="#BD7E00" d="m122.8 131.48 47.69-65.64c29 21.07 40.55 56.62 29.47 90.71z"/><path fill="#fff" d="m200.28 157.18-78.29-25.44 48.39-66.6.4.29c29.15 21.18 40.79 57 29.66 91.27l-.15.48zm-76.67-25.96 76.03 24.7c10.68-33.54-.68-68.52-29.04-89.38z"/><path fill="#FF5233" d="m122.86 131.47 77.13 25.06c-13.84 42.6-59.59 65.91-102.19 52.07-8.52-2.77-15.36-6.25-22.61-11.52z"/><path fill="#22343C" d="M122.95 213.11c-8.48 0-17-1.34-25.3-4.03-8.62-2.8-15.42-6.26-22.75-11.59l-.4-.29 48.17-66.31 77.95 25.33-.15.48c-6.74 20.73-21.14 37.59-40.56 47.49-11.64 5.93-24.26 8.93-36.96 8.93zM75.9 196.97c7.08 5.09 13.71 8.44 22.06 11.15 20.47 6.65 42.31 4.93 61.49-4.84 19.03-9.7 33.19-26.17 39.91-46.43l-76.3-24.79z"/><path fill="#FFDB24" d="m122.8 131.48 47.69-65.64c29 21.07 40.55 56.62 29.47 90.71z"/><path fill="#22343C" d="m200.28 157.18-78.29-25.44 48.39-66.6.4.29c29.15 21.18 40.79 57 29.66 91.27l-.15.48zm-76.67-25.96 76.03 24.7c10.68-33.54-.68-68.52-29.04-89.38z"/><path fill="#67CA16" d="M122.86 131.47V50.38c17.92 0 33.17 4.96 47.67 15.49l-47.67 65.61z"/><path fill="#22343C" d="M122.36 133.01V49.88h.5c18.09 0 33.33 4.95 47.96 15.58l.4.29zm1-82.13v79.05l46.47-63.96c-14.2-10.2-28.99-15.01-46.47-15.1z"/><path fill="#ACB9BE" d="M241.62 67.36c0 8.84 7.16 16 16 16 4.24 0 8.31-1.69 11.31-4.69s4.69-7.07 4.69-11.31c0-8.84-7.16-16-16-16s-16 7.16-16 16m2 0c0-7.73 6.27-14 14-14s14 6.27 14 14-6.27 14-14 14-14-6.27-14-14m17 7h-2v-11h-3c-.55 0-1 .45-1 1s.45 1 1 1h1v9h-2c-.55 0-1 .45-1 1s.45 1 1 1h6c.55 0 1-.45 1-1s-.45-1-1-1m-1.63-14.55c0 .77-.63 1.4-1.4 1.4s-1.4-.63-1.4-1.4.63-1.4 1.4-1.4 1.4.63 1.4 1.4"/><path fill="#FFDB24" d="M257.63 157.74c.55 0 1-.45 1-1v-11c0-.55-.45-1-1-1s-1 .45-1 1v11c0 .55.45 1 1 1m15.56 4.22-12.78-21.63a3.19 3.19 0 0 0-2.78-1.58c-1.16 0-2.2.59-2.78 1.58l-12.78 21.63c-.59 1-.59 2.19 0 3.19a3.2 3.2 0 0 0 2.79 1.6h25.55c1.17 0 2.21-.6 2.79-1.6s.58-2.19-.01-3.19m-1.75 2.19c-.1.18-.41.59-1.03.59h-25.55c-.62 0-.93-.41-1.03-.59s-.31-.65 0-1.17l12.78-21.64c.31-.52.82-.58 1.02-.58s.71.06 1.02.58l12.77 21.63c.31.53.11 1 0 1.17h.02zm-13.8-4.4c-.73 0-1.33.6-1.33 1.33s.6 1.33 1.33 1.33 1.33-.6 1.33-1.33-.6-1.33-1.33-1.33"/><path fill="#67CA16" fill-rule="evenodd" d="M257.62 95.11c-8.84 0-16 7.16-16 16s7.16 16 16 16 16-7.16 16-16a16 16 0 0 0-4.69-11.31c-3-3-7.07-4.69-11.31-4.69m0 30c-7.73 0-14-6.27-14-14s6.27-14 14-14 14 6.27 14 14c0 3.71-1.48 7.27-4.1 9.9-2.63 2.63-6.19 4.1-9.9 4.1m8.59-19.9a.996.996 0 0 1 1.41 0 1 1 0 0 1 .3.71 1 1 0 0 1-.3.71l-12.51 12.48-7.49-7.47c-.38-.41-.36-1.05.06-1.44.41-.38 1.05-.36 1.43.06l6 6z" clip-rule="evenodd"/><path fill="#FF5233" d="M257.62 199.62c-.55 0-1-.45-1-1v-12c0-.55.45-1 1-1s1 .45 1 1v12c0 .55-.45 1-1 1m1.33 3.45c0 .73-.6 1.33-1.33 1.33s-1.33-.6-1.33-1.33.6-1.33 1.33-1.33 1.33.6 1.33 1.33"/><path fill="#FF5233" fill-rule="evenodd" d="M241.62 195.01c0 8.84 7.16 16 16 16 4.24 0 8.31-1.69 11.31-4.69s4.69-7.07 4.69-11.31c0-8.84-7.16-16-16-16s-16 7.16-16 16m2 0c0-7.73 6.27-14 14-14s14 6.27 14 14-6.27 14-14 14-14-6.27-14-14" clip-rule="evenodd"/><path fill="#ACB9BE" d="M290.99 58.95h2.42l9.46 12.5v-12.5h2.45v16.49h-2.45l-9.46-12.5v12.5h-2.42zm26.15 14.4c.7-.27 1.24-.61 1.62-1.01l1.39 1.46c-.53.58-1.27 1.04-2.22 1.39s-1.88.53-2.8.53q-1.71 0-3.18-.84a6.3 6.3 0 0 1-2.35-2.34c-.58-1-.88-2.12-.88-3.35s.28-2.32.84-3.3 1.32-1.76 2.27-2.32 2-.84 3.13-.84c1.25 0 2.32.3 3.23.89.9.59 1.59 1.43 2.06 2.52s.71 2.37.71 3.84h-9.91c.14 1.12.58 2.03 1.31 2.72.73.7 1.64 1.04 2.72 1.04.67 0 1.36-.14 2.05-.41zm-4.7-7.68c-.73.64-1.18 1.5-1.36 2.57h7.58c-.13-1.04-.51-1.89-1.14-2.54-.63-.66-1.47-.98-2.51-.98s-1.85.32-2.58.96zm22.01-2.64v12.41h-2.38v-1.78c-.38.62-.93 1.12-1.63 1.5s-1.48.56-2.33.56q-1.35 0-2.4-.6c-.7-.4-1.25-.96-1.64-1.69s-.59-1.56-.59-2.51v-7.9h2.33v7.49c0 .93.26 1.68.79 2.27.53.58 1.22.88 2.06.88.62 0 1.2-.13 1.72-.4.52-.26.93-.62 1.24-1.07.3-.45.46-.94.46-1.46v-7.7h2.38zm10.08 11.81c-.34.27-.72.49-1.16.65s-.88.24-1.33.24c-.96 0-1.74-.32-2.35-.95s-.91-1.44-.91-2.44v-7.3h-1.85v-2.02h1.85v-3.41h2.33v3.41h2.93v2.02h-2.93v7.13c0 .43.13.79.38 1.07.26.28.56.42.91.42a1.88 1.88 0 0 0 1.25-.45l.89 1.63zm6.64-11.37c.81-.49 1.75-.73 2.82-.73v2.06c-.9 0-1.7.17-2.4.5s-1.25.81-1.63 1.43-.58 1.32-.58 2.1v6.6H347V63.02h2.38v2.42c.38-.83.98-1.49 1.79-1.98zm14.12.69c.91.94 1.37 2.2 1.37 3.77v7.51h-2.33v-1.68c-.45.62-1.05 1.11-1.8 1.45s-1.53.52-2.33.52c-1.33 0-2.42-.36-3.29-1.08-.86-.72-1.3-1.68-1.3-2.88 0-.8.22-1.52.66-2.15s1.04-1.12 1.8-1.46 1.6-.52 2.51-.52c1.18 0 2.43.22 3.74.67v-.38c0-.91-.25-1.68-.74-2.29s-1.31-.92-2.45-.92c-.98 0-2.14.34-3.48 1.03l-.89-1.75c1.66-.83 3.23-1.25 4.7-1.25 1.63 0 2.9.47 3.82 1.42zm-2.3 9.08c.7-.41 1.15-.97 1.34-1.69v-1.66c-1.06-.32-2.18-.48-3.38-.48-.85 0-1.57.22-2.16.65s-.89.98-.89 1.63.26 1.18.78 1.57 1.19.59 2 .59 1.6-.2 2.3-.61zm7.29-14.58h2.38v16.78h-2.38z"/><path fill="#67CA16" d="m289.57 115.22 1.44-1.8c1.62 1.54 3.42 2.3 5.42 2.3 1.09 0 1.94-.24 2.54-.73.61-.49.91-1.08.91-1.79s-.32-1.3-.95-1.69-1.69-.76-3.18-1.09c-1.25-.29-2.27-.62-3.06-.98s-1.41-.86-1.86-1.46c-.45-.61-.67-1.38-.67-2.33s.25-1.74.74-2.47c.5-.74 1.18-1.31 2.05-1.73s1.85-.62 2.94-.62c1.2 0 2.29.2 3.28.6s1.89.98 2.72 1.73l-1.39 1.82a8.2 8.2 0 0 0-2.27-1.49c-.81-.35-1.63-.53-2.46-.53-.59 0-1.13.11-1.61.34-.48.22-.86.53-1.13.91s-.41.79-.41 1.22c0 .5.15.9.46 1.22.3.32.74.59 1.31.8.57.22 1.36.44 2.36.68 1.84.43 3.23 1 4.16 1.7s1.4 1.74 1.4 3.12c0 .94-.23 1.78-.7 2.52-.46.74-1.15 1.32-2.05 1.74s-1.99.64-3.25.64c-2.7 0-4.96-.88-6.77-2.64zm26.62-10.03v12.41h-2.38v-1.78c-.38.62-.93 1.12-1.63 1.5s-1.48.56-2.33.56q-1.35 0-2.4-.6c-.7-.4-1.25-.96-1.64-1.69s-.59-1.56-.59-2.51v-7.9h2.33v7.49c0 .93.26 1.68.79 2.27.53.58 1.22.88 2.06.88.62 0 1.2-.13 1.72-.4.52-.26.93-.62 1.24-1.07.3-.45.46-.94.46-1.46v-7.7h2.38zm6.15 11.81c-1-.59-1.8-1.39-2.4-2.39s-.9-2.08-.9-3.23.3-2.22.9-3.22 1.4-1.78 2.41-2.38c1.01-.59 2.09-.89 3.24-.89.88 0 1.71.17 2.48.5.78.34 1.48.81 2.1 1.42l-1.61 1.49c-.38-.42-.84-.74-1.36-.98a3.82 3.82 0 0 0-3.68.24c-.64.4-1.15.94-1.52 1.62-.38.68-.56 1.41-.56 2.2s.19 1.54.56 2.22c.38.68.88 1.22 1.52 1.62s1.33.6 2.06.6c.58 0 1.13-.12 1.66-.37s.99-.59 1.39-1.02l1.61 1.46c-.62.62-1.33 1.11-2.12 1.46s-1.64.53-2.53.53c-1.17 0-2.25-.3-3.25-.89zm12.65 0c-1-.59-1.8-1.39-2.4-2.39s-.9-2.08-.9-3.23.3-2.22.9-3.22 1.4-1.78 2.41-2.38c1.01-.59 2.09-.89 3.24-.89.88 0 1.71.17 2.48.5.78.34 1.48.81 2.1 1.42l-1.61 1.49c-.38-.42-.84-.74-1.36-.98a3.82 3.82 0 0 0-3.68.24c-.64.4-1.15.94-1.52 1.62-.38.68-.56 1.41-.56 2.2s.19 1.54.56 2.22c.38.68.88 1.22 1.52 1.62s1.33.6 2.06.6c.58 0 1.13-.12 1.66-.37s.99-.59 1.39-1.02l1.61 1.46c-.62.62-1.33 1.11-2.12 1.46s-1.64.53-2.53.53c-1.17 0-2.25-.3-3.25-.89zm17.83-1.49c.7-.27 1.24-.61 1.62-1.01l1.39 1.46c-.53.58-1.27 1.04-2.22 1.39s-1.88.53-2.8.53q-1.71 0-3.18-.84a6.3 6.3 0 0 1-2.35-2.34c-.58-1-.88-2.12-.88-3.35s.28-2.32.84-3.3 1.32-1.76 2.27-2.32 2-.84 3.13-.84c1.25 0 2.32.3 3.23.89.9.59 1.59 1.43 2.06 2.52s.71 2.37.71 3.84h-9.91c.14 1.12.58 2.03 1.31 2.72.73.7 1.64 1.04 2.72 1.04.67 0 1.36-.14 2.05-.41zm-4.7-7.68c-.73.64-1.18 1.5-1.36 2.57h7.58c-.13-1.04-.51-1.89-1.14-2.54-.63-.66-1.47-.98-2.51-.98s-1.85.32-2.58.96zm12.61 9.58c-.93-.32-1.76-.78-2.5-1.37l1.08-1.63c.69.51 1.39.9 2.11 1.16s1.42.4 2.11.4c.74 0 1.32-.15 1.76-.46.44-.3.66-.71.66-1.22s-.23-.92-.7-1.19c-.46-.26-1.19-.53-2.18-.8-1.52-.43-2.61-.9-3.28-1.42s-1-1.25-1-2.21c0-1.14.42-2.05 1.26-2.74s1.92-1.03 3.25-1.03c.78 0 1.58.13 2.38.38.8.26 1.54.61 2.21 1.06l-.98 1.68q-1.92-1.2-3.6-1.2-.99 0-1.62.42c-.42.28-.64.67-.64 1.16 0 .32.1.58.29.77s.48.36.86.52c.38.15.98.36 1.8.61.9.27 1.63.53 2.2.78s1.04.61 1.43 1.09c.38.48.58 1.1.58 1.87 0 1.17-.44 2.1-1.31 2.8s-2 1.04-3.4 1.04c-.93 0-1.86-.16-2.78-.48zm11.67 0c-.93-.32-1.76-.78-2.5-1.37l1.08-1.63c.69.51 1.39.9 2.11 1.16s1.42.4 2.11.4c.74 0 1.32-.15 1.76-.46.44-.3.66-.71.66-1.22s-.23-.92-.7-1.19c-.46-.26-1.19-.53-2.18-.8-1.52-.43-2.61-.9-3.28-1.42s-1-1.25-1-2.21c0-1.14.42-2.05 1.26-2.74s1.92-1.03 3.25-1.03c.78 0 1.58.13 2.38.38.8.26 1.54.61 2.21 1.06l-.98 1.68q-1.92-1.2-3.6-1.2-.99 0-1.62.42c-.42.28-.64.67-.64 1.16 0 .32.1.58.29.77s.48.36.86.52c.38.15.98.36 1.8.61.9.27 1.63.53 2.2.78s1.04.61 1.43 1.09c.38.48.58 1.1.58 1.87 0 1.17-.44 2.1-1.31 2.8s-2 1.04-3.4 1.04c-.93 0-1.86-.16-2.78-.48z"/><path fill="#FFDB24" d="M289.26 143.28h2.69l4.06 12.58 4.13-12.58h2.66l4.13 12.58 4.06-12.58h2.69l-5.42 16.49h-2.42l-4.34-13.13-4.37 13.13h-2.42l-5.42-16.49zm35.59 5.2c.91.94 1.37 2.2 1.37 3.77v7.51h-2.33v-1.68c-.45.62-1.05 1.11-1.8 1.45s-1.53.52-2.33.52c-1.33 0-2.42-.36-3.29-1.08-.86-.72-1.3-1.68-1.3-2.88 0-.8.22-1.52.66-2.15s1.04-1.12 1.8-1.46 1.6-.52 2.51-.52c1.18 0 2.43.22 3.74.67v-.38c0-.91-.25-1.68-.74-2.29s-1.31-.92-2.45-.92c-.98 0-2.14.34-3.48 1.03l-.89-1.75c1.66-.83 3.23-1.25 4.7-1.25 1.63 0 2.9.47 3.82 1.42zm-2.3 9.08c.7-.41 1.15-.97 1.34-1.69v-1.66c-1.06-.32-2.18-.48-3.38-.48-.85 0-1.57.22-2.16.65s-.89.98-.89 1.63.26 1.18.78 1.57 1.19.59 2 .59 1.6-.2 2.3-.61zm11.46-9.76c.81-.49 1.75-.73 2.82-.73v2.06c-.9 0-1.7.17-2.4.5s-1.25.81-1.63 1.43-.58 1.32-.58 2.1v6.6h-2.38v-12.41h2.38v2.42c.38-.83.98-1.49 1.79-1.98zm14.34-.13c.7.4 1.25.96 1.64 1.69s.59 1.56.59 2.51v7.9h-2.3v-7.49c0-.93-.26-1.68-.79-2.27-.53-.58-1.22-.88-2.06-.88-.62 0-1.2.13-1.73.4-.53.26-.94.62-1.25 1.07-.3.45-.46.94-.46 1.46v7.7h-2.38v-12.41h2.38v1.82c.37-.62.91-1.13 1.62-1.52s1.49-.59 2.34-.59q1.35 0 2.4.6zm6.03-2.81c-.28-.29-.42-.62-.42-1.01s.14-.72.42-1q.42-.42 1.02-.42c.4 0 .72.14 1 .42s.42.61.42 1-.14.72-.42 1.01-.61.43-1 .43-.74-.14-1.02-.43m-.18 2.5h2.38v12.41h-2.38zm15 .31c.7.4 1.25.96 1.64 1.69s.59 1.56.59 2.51v7.9h-2.3v-7.49c0-.93-.26-1.68-.79-2.27-.53-.58-1.22-.88-2.06-.88-.62 0-1.2.13-1.73.4-.53.26-.94.62-1.25 1.07-.3.45-.46.94-.46 1.46v7.7h-2.38v-12.41h2.38v1.82c.37-.62.91-1.13 1.62-1.52s1.49-.59 2.34-.59q1.35 0 2.4.6zm17.26-.31v11.09c0 1.06-.27 2-.8 2.82-.54.82-1.28 1.47-2.23 1.93s-2.04.7-3.25.7c-1.01 0-1.97-.15-2.89-.46-.92-.3-1.68-.7-2.29-1.2l.94-1.78c.45.43 1.02.77 1.72 1.01s1.43.36 2.2.36c1.33 0 2.37-.3 3.12-.91s1.13-1.45 1.13-2.52v-1.8c-.5.72-1.12 1.28-1.87 1.67s-1.58.59-2.5.59c-1.09 0-2.06-.25-2.92-.76-.86-.5-1.53-1.2-2.02-2.1s-.73-1.91-.73-3.05.24-2.15.73-3.05 1.16-1.59 2.02-2.09 1.83-.74 2.92-.74c.91 0 1.75.2 2.51.6s1.38.95 1.86 1.66v-1.97h2.38zm-3.43 8.36c.7-.71 1.06-1.64 1.06-2.77s-.35-2.04-1.06-2.75c-.7-.71-1.62-1.07-2.74-1.07s-1.99.36-2.7 1.07-1.07 1.63-1.07 2.75.36 2.04 1.07 2.76q1.065 1.08 2.7 1.08c1.09 0 2.03-.36 2.74-1.07"/><path fill="#FF5233" d="M294.13 201.81a8.9 8.9 0 0 1-3.14-3.13 8.2 8.2 0 0 1-1.18-4.25c0-1.52.39-2.93 1.18-4.24.78-1.3 1.83-2.34 3.14-3.12a8.1 8.1 0 0 1 4.22-1.16c1.17 0 2.28.23 3.34.68 1.06.46 1.98 1.09 2.76 1.91l-1.7 1.63a6.4 6.4 0 0 0-2-1.46 5.68 5.68 0 0 0-5.4.33c-.93.57-1.68 1.34-2.23 2.3s-.83 2-.83 3.12.28 2.16.83 3.13 1.3 1.74 2.23 2.32c.94.58 1.94.86 3.01.86.83 0 1.63-.18 2.39-.53s1.43-.84 2-1.46l1.7 1.63c-.8.82-1.73 1.45-2.78 1.91-1.06.46-2.16.68-3.31.68-1.5 0-2.91-.39-4.22-1.16zm17.27-11.09c.81-.49 1.75-.73 2.82-.73v2.06c-.9 0-1.7.17-2.4.5s-1.25.81-1.63 1.43-.58 1.32-.58 2.1v6.6h-2.38v-12.41h2.38v2.42c.38-.83.98-1.49 1.79-1.98zm5.78-2.94c-.28-.29-.42-.62-.42-1.01s.14-.72.42-1q.42-.42 1.02-.42c.4 0 .72.14 1 .42s.42.61.42 1-.14.72-.42 1.01-.61.43-1 .43-.74-.14-1.02-.43m-.18 2.5h2.38v12.41H317zm12.46 11.8c-.34.27-.72.49-1.16.65s-.88.24-1.33.24c-.96 0-1.74-.32-2.35-.95s-.91-1.44-.91-2.44v-7.3h-1.85v-2.02h1.85v-3.41h2.33v3.41h2.93v2.02h-2.93v7.13c0 .43.13.79.38 1.07.26.28.56.42.91.42a1.88 1.88 0 0 0 1.25-.45l.89 1.63zm2.65-14.3c-.28-.29-.42-.62-.42-1.01s.14-.72.42-1q.42-.42 1.02-.42c.4 0 .72.14 1 .42s.42.61.42 1-.14.72-.42 1.01-.61.43-1 .43-.74-.14-1.02-.43m-.18 2.5h2.38v12.41h-2.38zm8.53 11.8c-1-.59-1.8-1.39-2.4-2.39s-.9-2.08-.9-3.23.3-2.22.9-3.22 1.4-1.78 2.41-2.38c1.01-.59 2.09-.89 3.24-.89.88 0 1.71.17 2.48.5.78.34 1.48.81 2.1 1.42l-1.61 1.49c-.38-.42-.84-.74-1.36-.98a3.82 3.82 0 0 0-3.68.24c-.64.4-1.15.94-1.52 1.62-.38.68-.56 1.41-.56 2.2s.19 1.54.56 2.22c.38.68.88 1.22 1.52 1.62s1.33.6 2.06.6c.58 0 1.13-.12 1.66-.37s.99-.59 1.39-1.02l1.61 1.46c-.62.62-1.33 1.11-2.12 1.46s-1.64.53-2.53.53c-1.17 0-2.25-.3-3.25-.89zm18.9-10.68c.91.94 1.37 2.2 1.37 3.77v7.51h-2.33V201c-.45.62-1.05 1.11-1.8 1.45s-1.53.52-2.33.52c-1.33 0-2.42-.36-3.29-1.08-.86-.72-1.3-1.68-1.3-2.88 0-.8.22-1.52.66-2.15s1.04-1.12 1.8-1.46 1.6-.52 2.51-.52c1.18 0 2.43.22 3.74.67v-.38c0-.91-.25-1.68-.74-2.29s-1.31-.92-2.45-.92c-.98 0-2.14.34-3.48 1.03l-.89-1.75c1.66-.83 3.23-1.25 4.7-1.25 1.63 0 2.9.47 3.82 1.42zm-2.3 9.08c.7-.41 1.15-.97 1.34-1.69v-1.66c-1.06-.32-2.18-.48-3.38-.48-.85 0-1.57.22-2.16.65s-.89.98-.89 1.63.26 1.18.78 1.57 1.19.59 2 .59 1.6-.2 2.3-.61zm7.3-14.57h2.38v16.78h-2.38z"/></svg>