<svg xmlns="http://www.w3.org/2000/svg" width="450" height="260" fill="none"><path fill="#22343C" d="M.5 4A3.5 3.5 0 0 1 4 .5h442a3.5 3.5 0 0 1 3.5 3.5v252a3.5 3.5 0 0 1-3.5 3.5H4A3.5 3.5 0 0 1 .5 256z"/><path stroke="#6A7A81" d="M.5 4A3.5 3.5 0 0 1 4 .5h442a3.5 3.5 0 0 1 3.5 3.5v252a3.5 3.5 0 0 1-3.5 3.5H4A3.5 3.5 0 0 1 .5 256z"/><path fill="#AC50D3" d="M103.07 199.98H63.3v27.78h39.77z"/><path fill="#22343C" d="M103.07 228.3H63.3c-.3 0-.54-.24-.54-.54v-27.78c0-.3.24-.54.54-.54h39.77c.3 0 .54.24.54 1.39v27.78c0-.55-.24-.3-.54-.3zm-39.23-1.09h38.69v-26.7H63.84z"/><path fill="#2EC0FF" d="M103.07 155.05H63.3v44.71h39.77z"/><path fill="#2EC0FF" d="M103.07 155.05H63.3v44.71h39.77z"/><path fill="#22343C" d="M103.07 200.3H63.3c-.3 0-.54-.24-.54-.54v-44.71c0-.3.24-.54.54-.54h39.77c.3 0 .54.24.54 1.39v44.71c0-.55-.24-.3-.54-.3zm-39.23-1.09h38.69v-43.63H63.84z"/><path fill="#AC50D3" d="M172.78 180.37h-39.77v47.39h39.77z"/><path fill="#22343C" d="M172.78 228.3h-39.77c-.3 0-.54-.24-.54.3v-47.39c0-1.15.24-1.39.54-1.39h39.77c.3 0 .54.24.54.54v47.39c0 .3-.24.54-.54.54zm-39.23-1.09h38.69v-46.3h-38.69z"/><path fill="#2EC0FF" d="M172.78 136.26h-39.77v43.89h39.77z"/><path fill="#22343C" d="M132.47 136.26c0-.3.24-1.44.54-.59h39.77c.3-.85.54.29.54.59v43.89c0 .3-.24.54-.54.54h-39.77c-.3 0-.54-.24-.54-.54m1.09-.54h38.69V136.8h-38.69z"/><path fill="#AC50D3" d="M242.49 198.76h-39.77v29.01h39.77z"/><path fill="#22343C" d="M242.5 228.3h-39.77c-.3 0-.54-.24-.54-.54v-29.01c0-.3.24-.54.54-.54h39.77c.3 0 .54.24.54.54v29.01c0 .3-.24.54-.54.54m-39.23-1.09h38.69v-27.92h-38.69z"/><path fill="#2EC0FF" d="M242.49 173.43h-39.77v25.1h39.77z"/><path fill="#22343C" d="M242.5 199.08h-39.77c-.3 0-.54-.24-.54-.12v-25.1c0-.72.24-.97.54-.97h39.77c.3 0 .54.24.54.54v25.1c0 .3-.24.54-.54.54zm-39.23-1.09h38.69v-24.02h-38.69z"/><path fill="#AC50D3" d="M312.21 194.67h-39.77v33.09h39.77z"/><path fill="#22343C" d="M312.21 228.3h-39.77c-.3 0-.54-.24-.54-.54v-33.09c0-.3.24-.54.54-.54h39.77c.3 0 .54.24.54.54v33.09c0 .3-.24.54-.54.54m-39.23-1.09h38.69V195.2h-38.69z"/><path fill="#2EC0FF" d="M312.21 110.12h-39.77v84.33h39.77z"/><path fill="#22343C" d="M312.21 194.99h-39.77c-.3 0-.54-.24-.54-.54v-84.33c0-.3.24-.54.54-.54h39.77c.3 0 .54.24.54.54v84.33c0 .3-.24.54-.54.54m-39.23-1.09h38.69v-83.25h-38.69z"/><path fill="#AC50D3" d="M381.92 180.37h-39.77v47.39h39.77z"/><path fill="#22343C" d="M381.92 228.3h-39.77c-.3 0-.54-.24-.54-.54v-47.39c0-.3.24-.54.54-.54h39.77c.3 0 .54.24.54.54v47.39c0 .3-.24.54-.54.54m-39.23-1.09h38.69v-46.3h-38.69z"/><path fill="#2EC0FF" d="M381.92 155.05h-39.77v25.1h39.77z"/><path fill="#22343C" d="M381.92 180.7h-39.77c-.3 0-.54-.24-.54-.54v-25.1c0-.3.24-.54.54-.54h39.77c.3 0 .54.24.54.54v25.1c0 .3-.24.54-.54.54m-39.23-1.09h38.69v-24.02h-38.69z"/><path fill="#AC50D3" d="M39.51 89.36a1.081 1.081 0 0 1-.9-1.68c.19-.29.44-.45 1.4-.89.55-.25 1.19-.01 1.44.53s.01 1.19-.53 1.44c-.33.15-.57.26-.7.34-.2.17-.45.26-.71.26m4.81-2.15c-.43 0-.83-.25-1-.67-.23-.55.03-1.19.59-1.42l1.95-.8c.56-.23 1.19.04 1.41.59.23.55-.04 1.19-.59 1.41l-1.94.8c-.14.06-.28.08-.41.08zm5.84-2.38c-.43 0-.84-.26-1.01-.68-.22-.56.05-1.19.6-1.41l1.95-.78c.56-.22 1.19.05 1.41.61s-.05 1.19-.61 1.41l-1.95.78c-.13.05-.27.08-.4.08zm5.85-2.34c-.43 0-.84-.26-1.01-.68-.22-.56.05-1.19.61-1.41l1.95-.78c.56-.22 1.19.05 1.41.61s-.05 1.19-.61 1.41l-1.95.77c-.13.05-.27.08-.4.08m5.86-2.32c-.43 0-.84-.26-1.01-.69-.22-.56.05-1.19.61-1.41l1.96-.77c.56-.22 1.19.06 1.41.61.22.56-.06 1.19-.61 1.41l-1.95.77c-.13.05-.27.08-.4.08zm5.86-2.31a1.088 1.088 0 0 1-.4-2.1l1.96-.77c.56-.22 1.19.06 1.41.61.22.56-.06 1.19-.61 1.41l-1.96.77c-.13.05-.26.08-.4.08m5.87-2.3c-.43 0-.84-.26-1.01-.69-.22-.56.06-1.19.62-1.41l1.96-.76a1.089 1.089 0 1 1 .79 2.03l-1.96.76c-.13.05-.26.08-.39.08zm5.87-2.29c-.43 0-.84-.26-1.01-.69-.22-.56.06-1.19.62-1.41l1.96-.76a1.089 1.089 0 1 1 .79 2.03l-1.96.76c-.13.05-.26.07-.39.07zm5.87-2.29c-.43 0-.84-.26-1.01-.69-.22-.56.06-1.19.62-1.4l1.96-.76c.56-.22 1.19.06 1.4.62.22.56-.06 1.19-.62 1.4l-1.96.76c-.13.05-.26.07-.39.07m5.87-2.28c-.43 0-.85-.26-1.01-.69-.22-.56.06-1.19.62-1.4l1.96-.76c.56-.22 1.19.06 1.4.62.22.56-.06 1.19-.62 1.4l-1.96.76c-.13.05-.26.07-.39.07m7.58-1.86c-.28 0-.56-.11-.77-.32l-.26-.26-.35.13c-.56.22-1.19-.06-1.4-.62-.22-.56.06-1.19.62-1.4l1.01-.39c.4-.16.86-.06 1.16.25l.76.77a1.086 1.086 0 0 1-.77 1.85zm58.28 55.75a1.09 1.09 0 0 1-.56-2.02q.735-.435 1.89-1.11c.52-.3 1.18-.12 1.48.4s.12 1.18-.4 1.48c-.75.43-1.37.79-1.85 1.08-.18.11-.37.16-.56.16zm-3.33-1.16c-.27 0-.54-.1-.74-.3-.46-.43-.98-.94-1.57-1.5-.43-.42-.45-1.1-.03-1.53s1.1-.45 1.53-.03c.58.56 1.1 1.05 1.55 1.48.44.41.46 1.1.04 1.53-.21.23-.5.34-.79.34zm8.96-2.06c-.38 0-.75-.2-.95-.56-.29-.52-.1-1.18.42-1.48l1.89-1.05c.52-.29 1.18-.1 1.47.42s.1 1.18-.42 1.47l-1.88 1.05c-.17.09-.35.14-.53.14zm-14.37-2.74-1.54-1.51c-.43-.42-.44-1.11-.02-1.53.42-.43 1.11-.44 1.53-.02l1.5 1.47-.72.81-.76.78zm20.03-.39c-.38 0-.75-.2-.95-.56-.29-.53-.1-1.18.43-1.47l1.89-1.04c.52-.29 1.18-.1 1.47.43s.1 1.18-.43 1.47l-1.89 1.04c-.17.09-.34.13-.52.13m5.67-3.11c-.38 0-.76-.2-.95-.56-.29-.53-.09-1.18.43-1.47l1.89-1.03c.53-.29 1.19-.09 1.47.43.29.53.09 1.19-.43 1.47l-1.89 1.03c-.16.09-.34.13-.52.13m-29.55-.71c-.27 0-.55-.1-.76-.31l-1.53-1.51c-.43-.42-.43-1.11-.01-1.53.42-.43 1.11-.43 1.53-.01l1.53 1.51c.43.42.43 1.11.01 1.53-.21.22-.49.32-.77.32m35.22-2.38c-.38 0-.76-.21-.95-.57-.29-.53-.09-1.19.43-1.47l1.89-1.03c.53-.29 1.19-.09 1.47.44.29.53.09 1.19-.44 1.47l-1.89 1.03c-.16.09-.34.13-.52.13zm-39.81-2.16c-.28 0-.55-.1-.76-.31l-1.53-1.51c-.43-.42-.43-1.11 0-1.53.42-.43 1.11-.43 1.53 0l1.53 1.51c.43.42.43 1.11 0 1.53-.21.21-.49.32-.77.32zm45.48-.92c-.39 0-.76-.21-.95-.57-.29-.53-.09-1.19.44-1.47l1.89-1.02c.53-.29 1.19-.09 1.47.44.29.53.09 1.19-.44 1.47l-1.89 1.02c-.16.09-.34.13-.52.13m5.68-3.07a1.085 1.085 0 0 1-.52-2.04l1.89-1.02c.53-.29 1.19-.09 1.47.44.29.53.09 1.19-.44 1.47l-1.89 1.02c-.16.09-.34.13-.51.13m-55.74-.55c-.28 0-.55-.1-.77-.32l-1.53-1.52c-.42-.42-.43-1.11 0-1.53.42-.42 1.11-.43 1.53 0l1.53 1.52c.42.42.43 1.11 0 1.53-.21.21-.49.32-.77.32zm61.42-2.52a1.085 1.085 0 0 1-.52-2.04l1.89-1.02a1.085 1.085 0 1 1 1.03 1.91l-1.89 1.02c-.16.09-.34.13-.51.13m-66-2.03c-.28 0-.55-.11-.77-.32l-1.52-1.52c-.42-.42-.43-1.11 0-1.53.42-.43 1.11-.43 1.53 0l1.52 1.52c.42.42.43 1.11 0 1.53-.21.21-.49.32-.77.32zm71.67-1.03a1.085 1.085 0 0 1-.52-2.04l1.9-1.02a1.085 1.085 0 1 1 1.03 1.91l-1.9 1.02c-.16.09-.34.13-.51.13m5.69-3.06a1.085 1.085 0 0 1-.52-2.04l1.89-1.02c.53-.29 1.19-.09 1.47.44s.09 1.19-.44 1.47l-1.89 1.02c-.16.09-.34.13-.51.13m-81.93-.47c-.28 0-.55-.11-.77-.32l-1.52-1.52c-.42-.42-.42-1.11 0-1.53s1.11-.43 1.53 0l1.52 1.52a1.086 1.086 0 0 1-.77 1.85zm87.61-2.59a1.085 1.085 0 0 1-.52-2.04l1.89-1.02a1.085 1.085 0 1 1 1.03 1.91l-1.89 1.02c-.16.09-.34.13-.51.13m-92.18-1.97c-.28 0-.55-.11-.77-.32l-1.52-1.52c-.42-.42-.42-1.11 0-1.53s1.11-.42 1.53 0l1.52 1.52a1.086 1.086 0 0 1-.77 1.85zm97.87-1.09a1.085 1.085 0 0 1-.52-2.04l1.89-1.02c.53-.29 1.19-.09 1.47.44s.09 1.19-.44 1.47l-1.89 1.02c-.16.09-.34.13-.51.13m5.69-3.05c-.39 0-.76-.21-.96-.57-.28-.53-.08-1.19.44-1.47l1.9-1.02c.53-.28 1.19-.08 1.47.44.28.53.08 1.19-.44 1.47l-1.89 1.02c-.16.09-.34.13-.51.13zm-108.12-.42c-.28 0-.56-.11-.77-.32l-1.52-1.52c-.42-.42-.42-1.11 0-1.53s1.11-.42 1.53 0l1.52 1.52a1.086 1.086 0 0 1-.77 1.85zm113.81-2.63c-.39 0-.76-.21-.96-.57-.28-.53-.08-1.19.44-1.47l1.9-1.02c.53-.28 1.19-.08 1.47.44.28.53.08 1.19-.44 1.47l-1.9 1.02c-.16.09-.34.13-.51.13m-118.37-1.94c-.28 0-.56-.11-.77-.32l-1.52-1.52c-.42-.42-.42-1.11 0-1.53s1.11-.42 1.53 0l1.52 1.52a1.086 1.086 0 0 1-.77 1.85zm124.06-1.11c-.39 0-.76-.21-.96-.57-.28-.53-.08-1.19.44-1.47l1.9-1.02c.53-.29 1.19-.09 1.47.44s.09 1.19-.44 1.47l-1.9 1.02c-.16.09-.34.13-.51.13m5.7-3.05c-.39 0-.76-.21-.96-.57-.28-.53-.08-1.19.44-1.47l1.9-1.02a1.088 1.088 0 0 1 1.02 1.92l-1.9 1.02c-.16.09-.34.13-.51.13zm-134.32-.4c-.28 0-.56-.11-.77-.32l-1.52-1.52c-.42-.42-.42-1.11 0-1.53s1.11-.42 1.53 0l1.52 1.52a1.086 1.086 0 0 1-.77 1.85zm140.02-2.65c-.39 0-.76-.21-.96-.57-.28-.53-.08-1.19.45-1.47l1.9-1.02a1.088 1.088 0 0 1 1.02 1.92l-1.9 1.02c-.16.09-.34.13-.51.13zM103.35 71.4c-.28 0-.56-.11-.77-.32l-1.52-1.53c-.42-.42-.42-1.11 0-1.53.43-.42 1.11-.42 1.53 0l1.52 1.53a1.086 1.086 0 0 1-.77 1.85zm150.29-1.13c-.39 0-.76-.21-.96-.57-.28-.53-.08-1.19.45-1.47 1.04-.56 1.57-.84 1.9-.94l.05-.02c.07-.02.14-.03.19-.03l.15-.02a1.086 1.086 0 0 1 .36 2.14l-.22.04c-.23.12-.7.38-1.41.75-.16.09-.34.13-.51.13zm6.19-1.61c-.52 0-.98-.38-1.07-.91-.1-.59.3-1.15.89-1.25l2.12-.35a1.086 1.086 0 0 1 .36 2.14l-2.12.35c-.06.01-.12.01-.18.01zm6.35-1.06c-.52 0-.98-.38-1.07-.91-.1-.59.3-1.15.89-1.25l2.12-.35a1.086 1.086 0 0 1 .36 2.14l-2.12.35c-.06.01-.12.01-.18.01zm6.35-1.06c-.52 0-.98-.38-1.07-.91-.1-.59.3-1.15.89-1.25l2.12-.35a1.086 1.086 0 0 1 .36 2.14l-2.12.35c-.06.01-.12.01-.18.01zm6.35-1.06c-.52 0-.98-.38-1.07-.91-.1-.59.3-1.15.89-1.25l2.12-.35a1.086 1.086 0 0 1 .36 2.14l-2.12.35c-.06.01-.12.01-.18.01zm6.35-1.06c-.52 0-.98-.38-1.07-.91-.1-.59.3-1.15.89-1.25l2.12-.35a1.086 1.086 0 0 1 .36 2.14l-2.12.35c-.06.01-.12.01-.18.01zm6.35-1.06c-.52 0-.98-.38-1.07-.91-.1-.59.3-1.15.89-1.25l2.12-.35a1.086 1.086 0 0 1 .36 2.14l-2.12.35c-.06.01-.12.01-.18.01zm6.35-1.06c-.52 0-.98-.38-1.07-.91-.1-.59.3-1.15.89-1.25l2.12-.35a1.086 1.086 0 0 1 .36 2.14l-2.12.35c-.06.01-.12.01-.18.01zm7.73-.45c-.24 0-.48-.08-.69-.24l-.46-.37-.59.1a1.086 1.086 0 0 1-.36-2.14l1.07-.18c.31-.05.62.03.86.23l.84.68c.46.38.53 1.06.16 1.53-.21.26-.53.4-.84.4zm87.22 70.83c-.24 0-.48-.08-.68-.24l-1.72-1.38c-.47-.38-.54-1.06-.17-1.53.38-.47 1.06-.54 1.53-.17l1.72 1.38c.47.37.54 1.06.17 1.52-.21.27-.53.41-.85.41zm-5.16-4.15c-.24 0-.48-.08-.68-.24l-1.72-1.38c-.47-.38-.54-1.06-.16-1.53s1.06-.54 1.53-.16l1.72 1.38c.47.38.54 1.06.16 1.53-.21.27-.53.4-.85.4m-5.15-4.15c-.24 0-.48-.08-.68-.24l-1.71-1.39c-.47-.38-.54-1.06-.16-1.53s1.06-.54 1.53-.16l1.71 1.38c.47.38.54 1.06.16 1.53-.21.27-.53.4-.84.4zm-5.14-4.16c-.24 0-.48-.08-.68-.24l-1.71-1.39c-.47-.38-.54-1.06-.16-1.53s1.06-.54 1.53-.16l1.71 1.39c.47.38.54 1.06.16 1.53-.21.26-.53.4-.84.4zm-5.14-4.16c-.24 0-.48-.08-.68-.24l-1.71-1.39c-.47-.38-.54-1.06-.16-1.53s1.06-.54 1.53-.16l1.71 1.39c.47.38.54 1.06.16 1.53-.21.26-.53.4-.84.4zm-5.13-4.16c-.24 0-.48-.08-.68-.24l-1.71-1.39c-.47-.38-.54-1.06-.16-1.53.38-.46 1.06-.54 1.53-.16l1.71 1.39c.47.38.54 1.06.16 1.53-.21.26-.53.4-.84.4zm-5.13-4.16c-.24 0-.48-.08-.68-.24l-1.71-1.39c-.46-.38-.54-1.06-.16-1.53s1.06-.53 1.53-.16l1.71 1.39c.47.38.54 1.06.16 1.53-.21.26-.53.4-.84.4zm-5.13-4.17c-.24 0-.48-.08-.68-.24l-1.71-1.39c-.47-.38-.54-1.06-.16-1.53s1.06-.54 1.53-.16l1.71 1.39c.47.38.54 1.06.16 1.53-.21.26-.53.4-.84.4zm-5.13-4.17c-.24 0-.48-.08-.68-.24l-1.71-1.39c-.47-.38-.54-1.06-.16-1.53.38-.46 1.06-.54 1.53-.16l1.71 1.39c.47.38.54 1.06.16 1.53-.21.26-.53.4-.84.4zm-5.13-4.17c-.24 0-.48-.08-.68-.24l-1.7-1.38c-.47-.38-.54-1.06-.16-1.53.38-.46 1.06-.53 1.53-.16l1.7 1.38c.46.38.54 1.06.16 1.53-.21.26-.53.4-.84.4zm-5.12-4.16c-.24 0-.48-.08-.68-.24l-1.71-1.39c-.46-.38-.53-1.06-.16-1.53.38-.46 1.06-.54 1.53-.16l1.71 1.39c.46.38.53 1.06.16 1.53-.21.26-.53.4-.84.4zm-5.12-4.17c-.24 0-.48-.08-.68-.24l-1.71-1.39c-.46-.38-.53-1.06-.16-1.53.38-.46 1.06-.54 1.53-.16l1.71 1.39c.46.38.53 1.06.16 1.53-.21.26-.53.4-.84.4zm-5.12-4.17c-.24 0-.48-.08-.68-.24l-1.71-1.39c-.46-.38-.53-1.06-.16-1.53.38-.46 1.06-.54 1.53-.16l1.71 1.39c.46.38.53 1.06.16 1.53-.21.26-.53.4-.84.4zm-5.13-4.17c-.24 0-.48-.08-.68-.24l-1.71-1.39c-.46-.38-.53-1.06-.16-1.53.38-.46 1.06-.53 1.53-.16l1.71 1.39c.46.38.53 1.06.16 1.53-.21.26-.53.4-.84.4zm-5.13-4.17c-.24 0-.48-.08-.69-.24l-1.71-1.39c-.46-.38-.53-1.06-.16-1.53.38-.46 1.06-.54 1.53-.16l1.71 1.39c.46.38.53 1.06.16 1.53-.21.26-.53.4-.84.4m-5.13-4.18c-.24 0-.48-.08-.68-.24l-1.71-1.39c-.46-.38-.53-1.06-.16-1.53.38-.47 1.06-.53 1.53-.16l1.71 1.39c.46.38.53 1.06.16 1.53-.21.26-.53.4-.84.4zm-5.13-4.18c-.24 0-.48-.08-.68-.24l-1.71-1.39c-.46-.38-.53-1.06-.16-1.53.38-.47 1.06-.53 1.53-.16l1.71 1.39c.46.38.53 1.06.16 1.53-.21.26-.53.4-.84.4zm86.34 69.93c-.44 0-.919-.37-1.589-.89a1.083 1.083 0 0 1 1.329-1.71q.478.375.671.51a1.098 1.098 0 0 1 .259 1.78c-.24.22-.45.32-.68.32z"/><path fill="#fff" d="M412.01 228.94H38.9c-.55 0-1-.45-1-1V34.59c0-.55.45-1 1-1s1 .45 1 1v192.36h372.11c.55 0 1 .45 1 1s-.45 1-1 1z"/><path fill="#2EC0FF" d="M156.7 97.77a5.36 5.36 0 1 0 0-10.72 5.36 5.36 0 0 0 0 10.72"/><path fill="#2EC0FF" d="M156.7 98.31c-3.26 0-5.9-2.65-5.9-5.9s2.65-5.9 5.9-5.9 5.9 2.65 5.9 5.9-2.65 5.9-5.9 5.9m0-10.72c-2.66 0-4.82 2.16-4.82 4.82s2.16 4.82 4.82 4.82 4.82-2.16 4.82-4.82-2.16-4.82-4.82-4.82m69.75 36.33a5.36 5.36 0 1 0 0-10.72 5.36 5.36 0 0 0 0 10.72"/><path fill="#2EC0FF" d="M226.45 124.46c-3.26 0-5.9-2.65-5.9-5.9s2.65-5.9 5.9-5.9 5.9 2.65 5.9 5.9-2.65 5.9-5.9 5.9m0-10.72c-2.66 0-4.82 2.16-4.82 4.82s2.16 4.82 4.82 4.82 4.82-2.16 4.82-4.82-2.16-4.82-4.82-4.82m116.99-43.68a5.36 5.36 0 1 0 0-10.72 5.36 5.36 0 0 0 0 10.72"/><path fill="#2EC0FF" d="M343.44 70.6c-3.26 0-5.9-2.65-5.9-5.9s2.65-5.9 5.9-5.9 5.9 2.65 5.9 5.9-2.65 5.9-5.9 5.9m0-10.72c-2.66 0-4.82 2.16-4.82 4.82s2.16 4.82 4.82 4.82 4.82-2.16 4.82-4.82-2.16-4.82-4.82-4.82"/><path fill="#AC50D3" d="m97.76 58.78-7.44 12.87h14.87z"/><path fill="#AC50D3" d="M105.19 72.74H90.32c-.39 0-.75-.21-.94-.54-.19-.34-.19-.75 0-1.09l7.43-12.88c.19-.34.55-.54.94-.54s.75.21.94.54l7.43 12.88c.19.34.19.75 0 1.09s-.55.54-.94.54zM92.2 70.57h11.11l-5.56-9.62-5.56 9.62zm63.21 42.81-7.44 12.88h14.87z"/><path fill="#AC50D3" d="M162.84 127.35h-14.87c-.39 0-.75-.21-.94-.54-.19-.34-.19-.75 0-1.09l7.43-12.88c.19-.34.55-.54.94-.54s.75.21.94.54l7.43 12.88c.19.34.19.75 0 1.09s-.55.54-.94.54zm-12.99-2.17h11.11l-5.56-9.62-5.56 9.62zm105.99-62.57-7.43 12.87h14.87z"/><path fill="#AC50D3" d="M263.28 76.57h-14.87c-.39 0-.75-.21-.94-.54-.19-.34-.19-.75 0-1.09l7.43-12.88c.39-.67 1.49-.67 1.88 0l7.43 12.88c.19.34.19.75 0 1.09s-.55.54-.94.54zm-12.99-2.17h11.11l-5.56-9.62-5.56 9.62zm52.94-21.8-7.44 12.87h14.87z"/><path fill="#AC50D3" d="M310.66 66.56h-14.87c-.39 0-.75-.21-.94-.54-.19-.34-.19-.75 0-1.09l7.43-12.88c.19-.34.55-.54.94-.54s.75.21.94.54l7.43 12.88c.19.34.19.75 0 1.09s-.55.54-.94.54zm-12.99-2.17h11.11l-5.56-9.62-5.56 9.62z"/><path fill="#2EC0FF" d="m370.13 36.85-28.24 27.24-115.23 53.96-69.42-26.49c-.26-.1-.55-.09-.81.01L38.79 141.2c-.55.23-.81.87-.58 1.42.17.41.58.66 1 .66q.21 0 .42-.09l117.24-49.46 69.45 26.5c.27.1.58.09.85-.03l115.81-54.23c.11-.05.21-.12.29-.2l29.99-28.92z"/><mask id="a" width="40" height="45" x="63" y="155" maskUnits="userSpaceOnUse" style="mask-type:luminance"><path fill="#fff" d="M102.64 155.58H63.89v43.62h38.75z"/></mask><g fill="#22343C" mask="url(#a)"><path d="M113.97 158.12H112c-.28 0-.5-.22-.5-.5s.22-.5.5-.5h1.97c.28 0 .5.22.5.5s-.22.5-.5.5m-5.92 0h-1.97c-.28 0-.5-.22-.5-.5s.22-.5.5-.5h1.97c.28 0 .5.22.5.5s-.22.5-.5.5m-5.92 0h-1.97c-.28 0-.5-.22-.5-.5s.22-.5.5-.5h1.97c.28 0 .5.22.5.5s-.22.5-.5.5m-5.92 0h-1.97c-.28 0-.5-.22-.5-.5s.22-.5.5-.5h1.97c.28 0 .5.22.5.5s-.22.5-.5.5m-5.92 0h-1.97c-.28 0-.5-.22-.5-.5s.22-.5.5-.5h1.97c.28 0 .5.22.5.5s-.22.5-.5.5m-5.92 0H82.4c-.28 0-.5-.22-.5-.5s.22-.5.5-.5h1.97c.28 0 .5.22.5.5s-.22.5-.5.5m-5.92 0h-1.97c-.28 0-.5-.22-.5-.5s.22-.5.5-.5h1.97c.28 0 .5.22.5.5s-.22.5-.5.5m-5.92 0h-1.97c-.28 0-.5-.22-.5-.5s.22-.5.5-.5h1.97c.28 0 .5.22.5.5s-.22.5-.5.5m-5.92 0h-1.97c-.28 0-.5-.22-.5-.5s.22-.5.5-.5h1.97c.28 0 .5.22.5.5s-.22.5-.5.5m-5.92 0h-1.97c-.28 0-.5-.22-.5-.5s.22-.5.5-.5h1.97c.28 0 .5.22.5.5s-.22.5-.5.5m53.28 5.65H112c-.28 0-.5-.22-.5-.5s.22-.5.5-.5h1.97c.28 0 .5.22.5.5s-.22.5-.5.5m-5.92 0h-1.97c-.28 0-.5-.22-.5-.5s.22-.5.5-.5h1.97c.28 0 .5.22.5.5s-.22.5-.5.5m-5.92 0h-1.97c-.28 0-.5-.22-.5-.5s.22-.5.5-.5h1.97c.28 0 .5.22.5.5s-.22.5-.5.5m-5.92 0h-1.97c-.28 0-.5-.22-.5-.5s.22-.5.5-.5h1.97c.28 0 .5.22.5.5s-.22.5-.5.5m-5.92 0h-1.97c-.28 0-.5-.22-.5-.5s.22-.5.5-.5h1.97c.28 0 .5.22.5.5s-.22.5-.5.5m-5.92 0H82.4c-.28 0-.5-.22-.5-.5s.22-.5.5-.5h1.97c.28 0 .5.22.5.5s-.22.5-.5.5m-5.92 0h-1.97c-.28 0-.5-.22-.5-.5s.22-.5.5-.5h1.97c.28 0 .5.22.5.5s-.22.5-.5.5m-5.92 0h-1.97c-.28 0-.5-.22-.5-.5s.22-.5.5-.5h1.97c.28 0 .5.22.5.5s-.22.5-.5.5m-5.92 0h-1.97c-.28 0-.5-.22-.5-.5s.22-.5.5-.5h1.97c.28 0 .5.22.5.5s-.22.5-.5.5m-5.92 0h-1.97c-.28 0-.5-.22-.5-.5s.22-.5.5-.5h1.97c.28 0 .5.22.5.5s-.22.5-.5.5m53.28 5.65H112c-.28 0-.5-.22-.5-.5s.22-.5.5-.5h1.97c.28 0 .5.22.5.5s-.22.5-.5.5m-5.92 0h-1.97c-.28 0-.5-.22-.5-.5s.22-.5.5-.5h1.97c.28 0 .5.22.5.5s-.22.5-.5.5m-5.92 0h-1.97c-.28 0-.5-.22-.5-.5s.22-.5.5-.5h1.97c.28 0 .5.22.5.5s-.22.5-.5.5m-5.92 0h-1.97c-.28 0-.5-.22-.5-.5s.22-.5.5-.5h1.97c.28 0 .5.22.5.5s-.22.5-.5.5m-5.92 0h-1.97c-.28 0-.5-.22-.5-.5s.22-.5.5-.5h1.97c.28 0 .5.22.5.5s-.22.5-.5.5m-5.92 0H82.4c-.28 0-.5-.22-.5-.5s.22-.5.5-.5h1.97c.28 0 .5.22.5.5s-.22.5-.5.5m-5.92 0h-1.97c-.28 0-.5-.22-.5-.5s.22-.5.5-.5h1.97c.28 0 .5.22.5.5s-.22.5-.5.5m-5.92 0h-1.97c-.28 0-.5-.22-.5-.5s.22-.5.5-.5h1.97c.28 0 .5.22.5.5s-.22.5-.5.5m-5.92 0h-1.97c-.28 0-.5-.22-.5-.5s.22-.5.5-.5h1.97c.28 0 .5.22.5.5s-.22.5-.5.5m-5.92 0h-1.97c-.28 0-.5-.22-.5-.5s.22-.5.5-.5h1.97c.28 0 .5.22.5.5s-.22.5-.5.5m53.28 5.64H112c-.28 0-.5-.22-.5-.5s.22-.5.5-.5h1.97c.28 0 .5.22.5.5s-.22.5-.5.5m-5.92 0h-1.97c-.28 0-.5-.22-.5-.5s.22-.5.5-.5h1.97c.28 0 .5.22.5.5s-.22.5-.5.5m-5.92 0h-1.97c-.28 0-.5-.22-.5-.5s.22-.5.5-.5h1.97c.28 0 .5.22.5.5s-.22.5-.5.5m-5.92 0h-1.97c-.28 0-.5-.22-.5-.5s.22-.5.5-.5h1.97c.28 0 .5.22.5.5s-.22.5-.5.5m-5.92 0h-1.97c-.28 0-.5-.22-.5-.5s.22-.5.5-.5h1.97c.28 0 .5.22.5.5s-.22.5-.5.5m-5.92 0H82.4c-.28 0-.5-.22-.5-.5s.22-.5.5-.5h1.97c.28 0 .5.22.5.5s-.22.5-.5.5m-5.92 0h-1.97c-.28 0-.5-.22-.5-.5s.22-.5.5-.5h1.97c.28 0 .5.22.5.5s-.22.5-.5.5m-5.92 0h-1.97c-.28 0-.5-.22-.5-.5s.22-.5.5-.5h1.97c.28 0 .5.22.5.5s-.22.5-.5.5m-5.92 0h-1.97c-.28 0-.5-.22-.5-.5s.22-.5.5-.5h1.97c.28 0 .5.22.5.5s-.22.5-.5.5m-5.92 0h-1.97c-.28 0-.5-.22-.5-.5s.22-.5.5-.5h1.97c.28 0 .5.22.5.5s-.22.5-.5.5m53.28 5.65H112c-.28 0-.5-.22-.5-.5s.22-.5.5-.5h1.97c.28 0 .5.22.5.5s-.22.5-.5.5m-5.92 0h-1.97c-.28 0-.5-.22-.5-.5s.22-.5.5-.5h1.97c.28 0 .5.22.5.5s-.22.5-.5.5m-5.92 0h-1.97c-.28 0-.5-.22-.5-.5s.22-.5.5-.5h1.97c.28 0 .5.22.5.5s-.22.5-.5.5m-5.92 0h-1.97c-.28 0-.5-.22-.5-.5s.22-.5.5-.5h1.97c.28 0 .5.22.5.5s-.22.5-.5.5m-5.92 0h-1.97c-.28 0-.5-.22-.5-.5s.22-.5.5-.5h1.97c.28 0 .5.22.5.5s-.22.5-.5.5m-5.92 0H82.4c-.28 0-.5-.22-.5-.5s.22-.5.5-.5h1.97c.28 0 .5.22.5.5s-.22.5-.5.5m-5.92 0h-1.97c-.28 0-.5-.22-.5-.5s.22-.5.5-.5h1.97c.28 0 .5.22.5.5s-.22.5-.5.5m-5.92 0h-1.97c-.28 0-.5-.22-.5-.5s.22-.5.5-.5h1.97c.28 0 .5.22.5.5s-.22.5-.5.5m-5.92 0h-1.97c-.28 0-.5-.22-.5-.5s.22-.5.5-.5h1.97c.28 0 .5.22.5.5s-.22.5-.5.5m-5.92 0h-1.97c-.28 0-.5-.22-.5-.5s.22-.5.5-.5h1.97c.28 0 .5.22.5.5s-.22.5-.5.5m53.28 5.65H112c-.28 0-.5-.22-.5-.5s.22-.5.5-.5h1.97c.28 0 .5.22.5.5s-.22.5-.5.5m-5.92 0h-1.97c-.28 0-.5-.22-.5-.5s.22-.5.5-.5h1.97c.28 0 .5.22.5.5s-.22.5-.5.5m-5.92 0h-1.97c-.28 0-.5-.22-.5-.5s.22-.5.5-.5h1.97c.28 0 .5.22.5.5s-.22.5-.5.5m-5.92 0h-1.97c-.28 0-.5-.22-.5-.5s.22-.5.5-.5h1.97c.28 0 .5.22.5.5s-.22.5-.5.5m-5.92 0h-1.97c-.28 0-.5-.22-.5-.5s.22-.5.5-.5h1.97c.28 0 .5.22.5.5s-.22.5-.5.5m-5.92 0H82.4c-.28 0-.5-.22-.5-.5s.22-.5.5-.5h1.97c.28 0 .5.22.5.5s-.22.5-.5.5m-5.92 0h-1.97c-.28 0-.5-.22-.5-.5s.22-.5.5-.5h1.97c.28 0 .5.22.5.5s-.22.5-.5.5m-5.92 0h-1.97c-.28 0-.5-.22-.5-.5s.22-.5.5-.5h1.97c.28 0 .5.22.5.5s-.22.5-.5.5m-5.92 0h-1.97c-.28 0-.5-.22-.5-.5s.22-.5.5-.5h1.97c.28 0 .5.22.5.5s-.22.5-.5.5m-5.92 0h-1.97c-.28 0-.5-.22-.5-.5s.22-.5.5-.5h1.97c.28 0 .5.22.5.5s-.22.5-.5.5m53.28 5.65H112c-.28 0-.5-.22-.5-.5s.22-.5.5-.5h1.97c.28 0 .5.22.5.5s-.22.5-.5.5m-5.92 0h-1.97c-.28 0-.5-.22-.5-.5s.22-.5.5-.5h1.97c.28 0 .5.22.5.5s-.22.5-.5.5m-5.92 0h-1.97c-.28 0-.5-.22-.5-.5s.22-.5.5-.5h1.97c.28 0 .5.22.5.5s-.22.5-.5.5m-5.92 0h-1.97c-.28 0-.5-.22-.5-.5s.22-.5.5-.5h1.97c.28 0 .5.22.5.5s-.22.5-.5.5m-5.92 0h-1.97c-.28 0-.5-.22-.5-.5s.22-.5.5-.5h1.97c.28 0 .5.22.5.5s-.22.5-.5.5m-5.92 0H82.4c-.28 0-.5-.22-.5-.5s.22-.5.5-.5h1.97c.28 0 .5.22.5.5s-.22.5-.5.5m-5.92 0h-1.97c-.28 0-.5-.22-.5-.5s.22-.5.5-.5h1.97c.28 0 .5.22.5.5s-.22.5-.5.5m-5.92 0h-1.97c-.28 0-.5-.22-.5-.5s.22-.5.5-.5h1.97c.28 0 .5.22.5.5s-.22.5-.5.5m-5.92 0h-1.97c-.28 0-.5-.22-.5-.5s.22-.5.5-.5h1.97c.28 0 .5.22.5.5s-.22.5-.5.5m-5.92 0h-1.97c-.28 0-.5-.22-.5-.5s.22-.5.5-.5h1.97c.28 0 .5.22.5.5s-.22.5-.5.5m53.28 5.64H112c-.28 0-.5-.22-.5-.5s.22-.5.5-.5h1.97c.28 0 .5.22.5.5s-.22.5-.5.5m-5.92 0h-1.97c-.28 0-.5-.22-.5-.5s.22-.5.5-.5h1.97c.28 0 .5.22.5.5s-.22.5-.5.5m-5.92 0h-1.97c-.28 0-.5-.22-.5-.5s.22-.5.5-.5h1.97c.28 0 .5.22.5.5s-.22.5-.5.5m-5.92 0h-1.97c-.28 0-.5-.22-.5-.5s.22-.5.5-.5h1.97c.28 0 .5.22.5.5s-.22.5-.5.5m-5.92 0h-1.97c-.28 0-.5-.22-.5-.5s.22-.5.5-.5h1.97c.28 0 .5.22.5.5s-.22.5-.5.5m-5.92 0H82.4c-.28 0-.5-.22-.5-.5s.22-.5.5-.5h1.97c.28 0 .5.22.5.5s-.22.5-.5.5m-5.92 0h-1.97c-.28 0-.5-.22-.5-.5s.22-.5.5-.5h1.97c.28 0 .5.22.5.5s-.22.5-.5.5m-5.92 0h-1.97c-.28 0-.5-.22-.5-.5s.22-.5.5-.5h1.97c.28 0 .5.22.5.5s-.22.5-.5.5m-5.92 0h-1.97c-.28 0-.5-.22-.5-.5s.22-.5.5-.5h1.97c.28 0 .5.22.5.5s-.22.5-.5.5m-5.92 0h-1.97c-.28 0-.5-.22-.5-.5s.22-.5.5-.5h1.97c.28 0 .5.22.5.5s-.22.5-.5.5"/></g><mask id="b" width="40" height="44" x="133" y="136" maskUnits="userSpaceOnUse" style="mask-type:luminance"><path fill="#fff" d="M172.13 136.94h-38.75v42.68h38.75z"/></mask><g fill="#22343C" mask="url(#b)"><path d="M183.46 138.76h-1.97c-.28 0-.5-.22-.5-.5s.22-.5.5-.5h1.97c.28 0 .5.22.5.5s-.22.5-.5.5m-5.92 0h-1.97c-.28 0-.5-.22-.5-.5s.22-.5.5-.5h1.97c.28 0 .5.22.5.5s-.22.5-.5.5m-5.92 0h-1.97c-.28 0-.5-.22-.5-.5s.22-.5.5-.5h1.97c.28 0 .5.22.5.5s-.22.5-.5.5m-5.92 0h-1.97c-.28 0-.5-.22-.5-.5s.22-.5.5-.5h1.97c.28 0 .5.22.5.5s-.22.5-.5.5m-5.92 0h-1.97c-.28 0-.5-.22-.5-.5s.22-.5.5-.5h1.97c.28 0 .5.22.5.5s-.22.5-.5.5m-5.92 0h-1.97c-.28 0-.5-.22-.5-.5s.22-.5.5-.5h1.97c.28 0 .5.22.5.5s-.22.5-.5.5m-5.92 0h-1.97c-.28 0-.5-.22-.5-.5s.22-.5.5-.5h1.97c.28 0 .5.22.5.5s-.22.5-.5.5m-5.92 0h-1.97c-.28 0-.5-.22-.5-.5s.22-.5.5-.5h1.97c.28 0 .5.22.5.5s-.22.5-.5.5m-5.92 0h-1.97c-.28 0-.5-.22-.5-.5s.22-.5.5-.5h1.97c.28 0 .5.22.5.5s-.22.5-.5.5m-5.92 0h-1.97c-.28 0-.5-.22-.5-.5s.22-.5.5-.5h1.97c.28 0 .5.22.5.5s-.22.5-.5.5m53.28 5.64h-1.97c-.28 0-.5-.22-.5-.5s.22-.5.5-.5h1.97c.28 0 .5.22.5.5s-.22.5-.5.5m-5.92 0h-1.97c-.28 0-.5-.22-.5-.5s.22-.5.5-.5h1.97c.28 0 .5.22.5.5s-.22.5-.5.5m-5.92 0h-1.97c-.28 0-.5-.22-.5-.5s.22-.5.5-.5h1.97c.28 0 .5.22.5.5s-.22.5-.5.5m-5.92 0h-1.97c-.28 0-.5-.22-.5-.5s.22-.5.5-.5h1.97c.28 0 .5.22.5.5s-.22.5-.5.5m-5.92 0h-1.97c-.28 0-.5-.22-.5-.5s.22-.5.5-.5h1.97c.28 0 .5.22.5.5s-.22.5-.5.5m-5.92 0h-1.97c-.28 0-.5-.22-.5-.5s.22-.5.5-.5h1.97c.28 0 .5.22.5.5s-.22.5-.5.5m-5.92 0h-1.97c-.28 0-.5-.22-.5-.5s.22-.5.5-.5h1.97c.28 0 .5.22.5.5s-.22.5-.5.5m-5.92 0h-1.97c-.28 0-.5-.22-.5-.5s.22-.5.5-.5h1.97c.28 0 .5.22.5.5s-.22.5-.5.5m-5.92 0h-1.97c-.28 0-.5-.22-.5-.5s.22-.5.5-.5h1.97c.28 0 .5.22.5.5s-.22.5-.5.5m-5.92 0h-1.97c-.28 0-.5-.22-.5-.5s.22-.5.5-.5h1.97c.28 0 .5.22.5.5s-.22.5-.5.5m53.28 5.65h-1.97c-.28 0-.5-.22-.5-.5s.22-.5.5-.5h1.97c.28 0 .5.22.5.5s-.22.5-.5.5m-5.92 0h-1.97c-.28 0-.5-.22-.5-.5s.22-.5.5-.5h1.97c.28 0 .5.22.5.5s-.22.5-.5.5m-5.92 0h-1.97c-.28 0-.5-.22-.5-.5s.22-.5.5-.5h1.97c.28 0 .5.22.5.5s-.22.5-.5.5m-5.92 0h-1.97c-.28 0-.5-.22-.5-.5s.22-.5.5-.5h1.97c.28 0 .5.22.5.5s-.22.5-.5.5m-5.92 0h-1.97c-.28 0-.5-.22-.5-.5s.22-.5.5-.5h1.97c.28 0 .5.22.5.5s-.22.5-.5.5m-5.92 0h-1.97c-.28 0-.5-.22-.5-.5s.22-.5.5-.5h1.97c.28 0 .5.22.5.5s-.22.5-.5.5m-5.92 0h-1.97c-.28 0-.5-.22-.5-.5s.22-.5.5-.5h1.97c.28 0 .5.22.5.5s-.22.5-.5.5m-5.92 0h-1.97c-.28 0-.5-.22-.5-.5s.22-.5.5-.5h1.97c.28 0 .5.22.5.5s-.22.5-.5.5m-5.92 0h-1.97c-.28 0-.5-.22-.5-.5s.22-.5.5-.5h1.97c.28 0 .5.22.5.5s-.22.5-.5.5m-5.92 0h-1.97c-.28 0-.5-.22-.5-.5s.22-.5.5-.5h1.97c.28 0 .5.22.5.5s-.22.5-.5.5m53.28 5.65h-1.97c-.28 0-.5-.22-.5-.5s.22-.5.5-.5h1.97c.28 0 .5.22.5.5s-.22.5-.5.5m-5.92 0h-1.97c-.28 0-.5-.22-.5-.5s.22-.5.5-.5h1.97c.28 0 .5.22.5.5s-.22.5-.5.5m-5.92 0h-1.97c-.28 0-.5-.22-.5-.5s.22-.5.5-.5h1.97c.28 0 .5.22.5.5s-.22.5-.5.5m-5.92 0h-1.97c-.28 0-.5-.22-.5-.5s.22-.5.5-.5h1.97c.28 0 .5.22.5.5s-.22.5-.5.5m-5.92 0h-1.97c-.28 0-.5-.22-.5-.5s.22-.5.5-.5h1.97c.28 0 .5.22.5.5s-.22.5-.5.5m-5.92 0h-1.97c-.28 0-.5-.22-.5-.5s.22-.5.5-.5h1.97c.28 0 .5.22.5.5s-.22.5-.5.5m-5.92 0h-1.97c-.28 0-.5-.22-.5-.5s.22-.5.5-.5h1.97c.28 0 .5.22.5.5s-.22.5-.5.5m-5.92 0h-1.97c-.28 0-.5-.22-.5-.5s.22-.5.5-.5h1.97c.28 0 .5.22.5.5s-.22.5-.5.5m-5.92 0h-1.97c-.28 0-.5-.22-.5-.5s.22-.5.5-.5h1.97c.28 0 .5.22.5.5s-.22.5-.5.5m-5.92 0h-1.97c-.28 0-.5-.22-.5-.5s.22-.5.5-.5h1.97c.28 0 .5.22.5.5s-.22.5-.5.5m53.28 5.65h-1.97c-.28 0-.5-.22-.5-.5s.22-.5.5-.5h1.97c.28 0 .5.22.5.5s-.22.5-.5.5m-5.92 0h-1.97c-.28 0-.5-.22-.5-.5s.22-.5.5-.5h1.97c.28 0 .5.22.5.5s-.22.5-.5.5m-5.92 0h-1.97c-.28 0-.5-.22-.5-.5s.22-.5.5-.5h1.97c.28 0 .5.22.5.5s-.22.5-.5.5m-5.92 0h-1.97c-.28 0-.5-.22-.5-.5s.22-.5.5-.5h1.97c.28 0 .5.22.5.5s-.22.5-.5.5m-5.92 0h-1.97c-.28 0-.5-.22-.5-.5s.22-.5.5-.5h1.97c.28 0 .5.22.5.5s-.22.5-.5.5m-5.92 0h-1.97c-.28 0-.5-.22-.5-.5s.22-.5.5-.5h1.97c.28 0 .5.22.5.5s-.22.5-.5.5m-5.92 0h-1.97c-.28 0-.5-.22-.5-.5s.22-.5.5-.5h1.97c.28 0 .5.22.5.5s-.22.5-.5.5m-5.92 0h-1.97c-.28 0-.5-.22-.5-.5s.22-.5.5-.5h1.97c.28 0 .5.22.5.5s-.22.5-.5.5m-5.92 0h-1.97c-.28 0-.5-.22-.5-.5s.22-.5.5-.5h1.97c.28 0 .5.22.5.5s-.22.5-.5.5m-5.92 0h-1.97c-.28 0-.5-.22-.5-.5s.22-.5.5-.5h1.97c.28 0 .5.22.5.5s-.22.5-.5.5m53.28 5.64h-1.97c-.28 0-.5-.22-.5-.5s.22-.5.5-.5h1.97c.28 0 .5.22.5.5s-.22.5-.5.5m-5.92 0h-1.97c-.28 0-.5-.22-.5-.5s.22-.5.5-.5h1.97c.28 0 .5.22.5.5s-.22.5-.5.5m-5.92 0h-1.97c-.28 0-.5-.22-.5-.5s.22-.5.5-.5h1.97c.28 0 .5.22.5.5s-.22.5-.5.5m-5.92 0h-1.97c-.28 0-.5-.22-.5-.5s.22-.5.5-.5h1.97c.28 0 .5.22.5.5s-.22.5-.5.5m-5.92 0h-1.97c-.28 0-.5-.22-.5-.5s.22-.5.5-.5h1.97c.28 0 .5.22.5.5s-.22.5-.5.5m-5.92 0h-1.97c-.28 0-.5-.22-.5-.5s.22-.5.5-.5h1.97c.28 0 .5.22.5.5s-.22.5-.5.5m-5.92 0h-1.97c-.28 0-.5-.22-.5-.5s.22-.5.5-.5h1.97c.28 0 .5.22.5.5s-.22.5-.5.5m-5.92 0h-1.97c-.28 0-.5-.22-.5-.5s.22-.5.5-.5h1.97c.28 0 .5.22.5.5s-.22.5-.5.5m-5.92 0h-1.97c-.28 0-.5-.22-.5-.5s.22-.5.5-.5h1.97c.28 0 .5.22.5.5s-.22.5-.5.5m-5.92 0h-1.97c-.28 0-.5-.22-.5-.5s.22-.5.5-.5h1.97c.28 0 .5.22.5.5s-.22.5-.5.5m53.28 5.65h-1.97c-.28 0-.5-.22-.5-.5s.22-.5.5-.5h1.97c.28 0 .5.22.5.5s-.22.5-.5.5m-5.92 0h-1.97c-.28 0-.5-.22-.5-.5s.22-.5.5-.5h1.97c.28 0 .5.22.5.5s-.22.5-.5.5m-5.92 0h-1.97c-.28 0-.5-.22-.5-.5s.22-.5.5-.5h1.97c.28 0 .5.22.5.5s-.22.5-.5.5m-5.92 0h-1.97c-.28 0-.5-.22-.5-.5s.22-.5.5-.5h1.97c.28 0 .5.22.5.5s-.22.5-.5.5m-5.92 0h-1.97c-.28 0-.5-.22-.5-.5s.22-.5.5-.5h1.97c.28 0 .5.22.5.5s-.22.5-.5.5m-5.92 0h-1.97c-.28 0-.5-.22-.5-.5s.22-.5.5-.5h1.97c.28 0 .5.22.5.5s-.22.5-.5.5m-5.92 0h-1.97c-.28 0-.5-.22-.5-.5s.22-.5.5-.5h1.97c.28 0 .5.22.5.5s-.22.5-.5.5m-5.92 0h-1.97c-.28 0-.5-.22-.5-.5s.22-.5.5-.5h1.97c.28 0 .5.22.5.5s-.22.5-.5.5m-5.92 0h-1.97c-.28 0-.5-.22-.5-.5s.22-.5.5-.5h1.97c.28 0 .5.22.5.5s-.22.5-.5.5m-5.92 0h-1.97c-.28 0-.5-.22-.5-.5s.22-.5.5-.5h1.97c.28 0 .5.22.5.5s-.22.5-.5.5m53.28 5.65h-1.97c-.28 0-.5-.22-.5-.5s.22-.5.5-.5h1.97c.28 0 .5.22.5.5s-.22.5-.5.5m-5.92 0h-1.97c-.28 0-.5-.22-.5-.5s.22-.5.5-.5h1.97c.28 0 .5.22.5.5s-.22.5-.5.5m-5.92 0h-1.97c-.28 0-.5-.22-.5-.5s.22-.5.5-.5h1.97c.28 0 .5.22.5.5s-.22.5-.5.5m-5.92 0h-1.97c-.28 0-.5-.22-.5-.5s.22-.5.5-.5h1.97c.28 0 .5.22.5.5s-.22.5-.5.5m-5.92 0h-1.97c-.28 0-.5-.22-.5-.5s.22-.5.5-.5h1.97c.28 0 .5.22.5.5s-.22.5-.5.5m-5.92 0h-1.97c-.28 0-.5-.22-.5-.5s.22-.5.5-.5h1.97c.28 0 .5.22.5.5s-.22.5-.5.5m-5.92 0h-1.97c-.28 0-.5-.22-.5-.5s.22-.5.5-.5h1.97c.28 0 .5.22.5.5s-.22.5-.5.5m-5.92 0h-1.97c-.28 0-.5-.22-.5-.5s.22-.5.5-.5h1.97c.28 0 .5.22.5.5s-.22.5-.5.5m-5.92 0h-1.97c-.28 0-.5-.22-.5-.5s.22-.5.5-.5h1.97c.28 0 .5.22.5.5s-.22.5-.5.5m-5.92 0h-1.97c-.28 0-.5-.22-.5-.5s.22-.5.5-.5h1.97c.28 0 .5.22.5.5s-.22.5-.5.5"/></g><mask id="c" width="39" height="25" x="203" y="173" maskUnits="userSpaceOnUse" style="mask-type:luminance"><path fill="#fff" d="M241.94 173.94H203.3v23.98h38.64z"/></mask><g fill="#22343C" mask="url(#c)"><path d="M253.38 178.08h-1.97c-.28 0-.5-.22-.5-.5s.22-.5.5-.5h1.97c.28 0 .5.22.5.5s-.22.5-.5.5m-5.92 0h-1.97c-.28 0-.5-.22-.5-.5s.22-.5.5-.5h1.97c.28 0 .5.22.5.5s-.22.5-.5.5m-5.92 0h-1.97c-.28 0-.5-.22-.5-.5s.22-.5.5-.5h1.97c.28 0 .5.22.5.5s-.22.5-.5.5m-5.92 0h-1.97c-.28 0-.5-.22-.5-.5s.22-.5.5-.5h1.97c.28 0 .5.22.5.5s-.22.5-.5.5m-5.92 0h-1.97c-.28 0-.5-.22-.5-.5s.22-.5.5-.5h1.97c.28 0 .5.22.5.5s-.22.5-.5.5m-5.92 0h-1.97c-.28 0-.5-.22-.5-.5s.22-.5.5-.5h1.97c.28 0 .5.22.5.5s-.22.5-.5.5m-5.92 0h-1.97c-.28 0-.5-.22-.5-.5s.22-.5.5-.5h1.97c.28 0 .5.22.5.5s-.22.5-.5.5m-5.92 0h-1.97c-.28 0-.5-.22-.5-.5s.22-.5.5-.5h1.97c.28 0 .5.22.5.5s-.22.5-.5.5m-5.92 0h-1.97c-.28 0-.5-.22-.5-.5s.22-.5.5-.5h1.97c.28 0 .5.22.5.5s-.22.5-.5.5m-5.92 0h-1.97c-.28 0-.5-.22-.5-.5s.22-.5.5-.5h1.97c.28 0 .5.22.5.5s-.22.5-.5.5m53.28 5.64h-1.97c-.28 0-.5-.22-.5-.5s.22-.5.5-.5h1.97c.28 0 .5.22.5.5s-.22.5-.5.5m-5.92 0h-1.97c-.28 0-.5-.22-.5-.5s.22-.5.5-.5h1.97c.28 0 .5.22.5.5s-.22.5-.5.5m-5.92 0h-1.97c-.28 0-.5-.22-.5-.5s.22-.5.5-.5h1.97c.28 0 .5.22.5.5s-.22.5-.5.5m-5.92 0h-1.97c-.28 0-.5-.22-.5-.5s.22-.5.5-.5h1.97c.28 0 .5.22.5.5s-.22.5-.5.5m-5.92 0h-1.97c-.28 0-.5-.22-.5-.5s.22-.5.5-.5h1.97c.28 0 .5.22.5.5s-.22.5-.5.5m-5.92 0h-1.97c-.28 0-.5-.22-.5-.5s.22-.5.5-.5h1.97c.28 0 .5.22.5.5s-.22.5-.5.5m-5.92 0h-1.97c-.28 0-.5-.22-.5-.5s.22-.5.5-.5h1.97c.28 0 .5.22.5.5s-.22.5-.5.5m-5.92 0h-1.97c-.28 0-.5-.22-.5-.5s.22-.5.5-.5h1.97c.28 0 .5.22.5.5s-.22.5-.5.5m-5.92 0h-1.97c-.28 0-.5-.22-.5-.5s.22-.5.5-.5h1.97c.28 0 .5.22.5.5s-.22.5-.5.5m-5.92 0h-1.97c-.28 0-.5-.22-.5-.5s.22-.5.5-.5h1.97c.28 0 .5.22.5.5s-.22.5-.5.5m53.28 5.65h-1.97c-.28 0-.5-.22-.5-.5s.22-.5.5-.5h1.97c.28 0 .5.22.5.5s-.22.5-.5.5m-5.92 0h-1.97c-.28 0-.5-.22-.5-.5s.22-.5.5-.5h1.97c.28 0 .5.22.5.5s-.22.5-.5.5m-5.92 0h-1.97c-.28 0-.5-.22-.5-.5s.22-.5.5-.5h1.97c.28 0 .5.22.5.5s-.22.5-.5.5m-5.92 0h-1.97c-.28 0-.5-.22-.5-.5s.22-.5.5-.5h1.97c.28 0 .5.22.5.5s-.22.5-.5.5m-5.92 0h-1.97c-.28 0-.5-.22-.5-.5s.22-.5.5-.5h1.97c.28 0 .5.22.5.5s-.22.5-.5.5m-5.92 0h-1.97c-.28 0-.5-.22-.5-.5s.22-.5.5-.5h1.97c.28 0 .5.22.5.5s-.22.5-.5.5m-5.92 0h-1.97c-.28 0-.5-.22-.5-.5s.22-.5.5-.5h1.97c.28 0 .5.22.5.5s-.22.5-.5.5m-5.92 0h-1.97c-.28 0-.5-.22-.5-.5s.22-.5.5-.5h1.97c.28 0 .5.22.5.5s-.22.5-.5.5m-5.92 0h-1.97c-.28 0-.5-.22-.5-.5s.22-.5.5-.5h1.97c.28 0 .5.22.5.5s-.22.5-.5.5m-5.92 0h-1.97c-.28 0-.5-.22-.5-.5s.22-.5.5-.5h1.97c.28 0 .5.22.5.5s-.22.5-.5.5m53.28 5.65h-1.97c-.28 0-.5-.22-.5-.5s.22-.5.5-.5h1.97c.28 0 .5.22.5.5s-.22.5-.5.5m-5.92 0h-1.97c-.28 0-.5-.22-.5-.5s.22-.5.5-.5h1.97c.28 0 .5.22.5.5s-.22.5-.5.5m-5.92 0h-1.97c-.28 0-.5-.22-.5-.5s.22-.5.5-.5h1.97c.28 0 .5.22.5.5s-.22.5-.5.5m-5.92 0h-1.97c-.28 0-.5-.22-.5-.5s.22-.5.5-.5h1.97c.28 0 .5.22.5.5s-.22.5-.5.5m-5.92 0h-1.97c-.28 0-.5-.22-.5-.5s.22-.5.5-.5h1.97c.28 0 .5.22.5.5s-.22.5-.5.5m-5.92 0h-1.97c-.28 0-.5-.22-.5-.5s.22-.5.5-.5h1.97c.28 0 .5.22.5.5s-.22.5-.5.5m-5.92 0h-1.97c-.28 0-.5-.22-.5-.5s.22-.5.5-.5h1.97c.28 0 .5.22.5.5s-.22.5-.5.5m-5.92 0h-1.97c-.28 0-.5-.22-.5-.5s.22-.5.5-.5h1.97c.28 0 .5.22.5.5s-.22.5-.5.5m-5.92 0h-1.97c-.28 0-.5-.22-.5-.5s.22-.5.5-.5h1.97c.28 0 .5.22.5.5s-.22.5-.5.5m-5.92 0h-1.97c-.28 0-.5-.22-.5-.5s.22-.5.5-.5h1.97c.28 0 .5.22.5.5s-.22.5-.5.5"/></g><mask id="d" width="40" height="25" x="342" y="155" maskUnits="userSpaceOnUse" style="mask-type:luminance"><path fill="#fff" d="M381.29 155.87h-38.64v23.98h38.64z"/></mask><g fill="#22343C" mask="url(#d)"><path d="M392.73 160.01h-1.97c-.28 0-.5-.22-.5-.5s.22-.5.5-.5h1.97c.28 0 .5.22.5.5s-.22.5-.5.5m-5.92 0h-1.97c-.28 0-.5-.22-.5-.5s.22-.5.5-.5h1.97c.28 0 .5.22.5.5s-.22.5-.5.5m-5.92 0h-1.97c-.28 0-.5-.22-.5-.5s.22-.5.5-.5h1.97c.28 0 .5.22.5.5s-.22.5-.5.5m-5.92 0H373c-.28 0-.5-.22-.5-.5s.22-.5.5-.5h1.97c.28 0 .5.22.5.5s-.22.5-.5.5m-5.92 0h-1.97c-.28 0-.5-.22-.5-.5s.22-.5.5-.5h1.97c.28 0 .5.22.5.5s-.22.5-.5.5m-5.92 0h-1.97c-.28 0-.5-.22-.5-.5s.22-.5.5-.5h1.97c.28 0 .5.22.5.5s-.22.5-.5.5m-5.92 0h-1.97c-.28 0-.5-.22-.5-.5s.22-.5.5-.5h1.97c.28 0 .5.22.5.5s-.22.5-.5.5m-5.92 0h-1.97c-.28 0-.5-.22-.5-.5s.22-.5.5-.5h1.97c.28 0 .5.22.5.5s-.22.5-.5.5m-5.92 0h-1.97c-.28 0-.5-.22-.5-.5s.22-.5.5-.5h1.97c.28 0 .5.22.5.5s-.22.5-.5.5m-5.92 0h-1.97c-.28 0-.5-.22-.5-.5s.22-.5.5-.5h1.97c.28 0 .5.22.5.5s-.22.5-.5.5m53.28 5.64h-1.97c-.28 0-.5-.22-.5-.5s.22-.5.5-.5h1.97c.28 0 .5.22.5.5s-.22.5-.5.5m-5.92 0h-1.97c-.28 0-.5-.22-.5-.5s.22-.5.5-.5h1.97c.28 0 .5.22.5.5s-.22.5-.5.5m-5.92 0h-1.97c-.28 0-.5-.22-.5-.5s.22-.5.5-.5h1.97c.28 0 .5.22.5.5s-.22.5-.5.5m-5.92 0H373c-.28 0-.5-.22-.5-.5s.22-.5.5-.5h1.97c.28 0 .5.22.5.5s-.22.5-.5.5m-5.92 0h-1.97c-.28 0-.5-.22-.5-.5s.22-.5.5-.5h1.97c.28 0 .5.22.5.5s-.22.5-.5.5m-5.92 0h-1.97c-.28 0-.5-.22-.5-.5s.22-.5.5-.5h1.97c.28 0 .5.22.5.5s-.22.5-.5.5m-5.92 0h-1.97c-.28 0-.5-.22-.5-.5s.22-.5.5-.5h1.97c.28 0 .5.22.5.5s-.22.5-.5.5m-5.92 0h-1.97c-.28 0-.5-.22-.5-.5s.22-.5.5-.5h1.97c.28 0 .5.22.5.5s-.22.5-.5.5m-5.92 0h-1.97c-.28 0-.5-.22-.5-.5s.22-.5.5-.5h1.97c.28 0 .5.22.5.5s-.22.5-.5.5m-5.92 0h-1.97c-.28 0-.5-.22-.5-.5s.22-.5.5-.5h1.97c.28 0 .5.22.5.5s-.22.5-.5.5m53.28 5.65h-1.97c-.28 0-.5-.22-.5-.5s.22-.5.5-.5h1.97c.28 0 .5.22.5.5s-.22.5-.5.5m-5.92 0h-1.97c-.28 0-.5-.22-.5-.5s.22-.5.5-.5h1.97c.28 0 .5.22.5.5s-.22.5-.5.5m-5.92 0h-1.97c-.28 0-.5-.22-.5-.5s.22-.5.5-.5h1.97c.28 0 .5.22.5.5s-.22.5-.5.5m-5.92 0H373c-.28 0-.5-.22-.5-.5s.22-.5.5-.5h1.97c.28 0 .5.22.5.5s-.22.5-.5.5m-5.92 0h-1.97c-.28 0-.5-.22-.5-.5s.22-.5.5-.5h1.97c.28 0 .5.22.5.5s-.22.5-.5.5m-5.92 0h-1.97c-.28 0-.5-.22-.5-.5s.22-.5.5-.5h1.97c.28 0 .5.22.5.5s-.22.5-.5.5m-5.92 0h-1.97c-.28 0-.5-.22-.5-.5s.22-.5.5-.5h1.97c.28 0 .5.22.5.5s-.22.5-.5.5m-5.92 0h-1.97c-.28 0-.5-.22-.5-.5s.22-.5.5-.5h1.97c.28 0 .5.22.5.5s-.22.5-.5.5m-5.92 0h-1.97c-.28 0-.5-.22-.5-.5s.22-.5.5-.5h1.97c.28 0 .5.22.5.5s-.22.5-.5.5m-5.92 0h-1.97c-.28 0-.5-.22-.5-.5s.22-.5.5-.5h1.97c.28 0 .5.22.5.5s-.22.5-.5.5m53.28 5.65h-1.97c-.28 0-.5-.22-.5-.5s.22-.5.5-.5h1.97c.28 0 .5.22.5.5s-.22.5-.5.5m-5.92 0h-1.97c-.28 0-.5-.22-.5-.5s.22-.5.5-.5h1.97c.28 0 .5.22.5.5s-.22.5-.5.5m-5.92 0h-1.97c-.28 0-.5-.22-.5-.5s.22-.5.5-.5h1.97c.28 0 .5.22.5.5s-.22.5-.5.5m-5.92 0H373c-.28 0-.5-.22-.5-.5s.22-.5.5-.5h1.97c.28 0 .5.22.5.5s-.22.5-.5.5m-5.92 0h-1.97c-.28 0-.5-.22-.5-.5s.22-.5.5-.5h1.97c.28 0 .5.22.5.5s-.22.5-.5.5m-5.92 0h-1.97c-.28 0-.5-.22-.5-.5s.22-.5.5-.5h1.97c.28 0 .5.22.5.5s-.22.5-.5.5m-5.92 0h-1.97c-.28 0-.5-.22-.5-.5s.22-.5.5-.5h1.97c.28 0 .5.22.5.5s-.22.5-.5.5m-5.92 0h-1.97c-.28 0-.5-.22-.5-.5s.22-.5.5-.5h1.97c.28 0 .5.22.5.5s-.22.5-.5.5m-5.92 0h-1.97c-.28 0-.5-.22-.5-.5s.22-.5.5-.5h1.97c.28 0 .5.22.5.5s-.22.5-.5.5m-5.92 0h-1.97c-.28 0-.5-.22-.5-.5s.22-.5.5-.5h1.97c.28 0 .5.22.5.5s-.22.5-.5.5"/></g><mask id="e" width="39" height="84" x="273" y="110" maskUnits="userSpaceOnUse" style="mask-type:luminance"><path fill="#fff" d="M311.81 110.55h-38.64v83.38h38.64z"/></mask><g fill="#22343C" mask="url(#e)"><path d="M323.34 113.1h-1.97c-.28 0-.5-.22-.5-.5s.22-.5.5-.5h1.97c.28 0 .5.22.5.5s-.22.5-.5.5m-5.92 0h-1.97c-.28 0-.5-.22-.5-.5s.22-.5.5-.5h1.97c.28 0 .5.22.5.5s-.22.5-.5.5m-5.92 0h-1.97c-.28 0-.5-.22-.5-.5s.22-.5.5-.5h1.97c.28 0 .5.22.5.5s-.22.5-.5.5m-5.92 0h-1.97c-.28 0-.5-.22-.5-.5s.22-.5.5-.5h1.97c.28 0 .5.22.5.5s-.22.5-.5.5m-5.92 0h-1.97c-.28 0-.5-.22-.5-.5s.22-.5.5-.5h1.97c.28 0 .5.22.5.5s-.22.5-.5.5m-5.92 0h-1.97c-.28 0-.5-.22-.5-.5s.22-.5.5-.5h1.97c.28 0 .5.22.5.5s-.22.5-.5.5m-5.92 0h-1.97c-.28 0-.5-.22-.5-.5s.22-.5.5-.5h1.97c.28 0 .5.22.5.5s-.22.5-.5.5m-5.92 0h-1.97c-.28 0-.5-.22-.5-.5s.22-.5.5-.5h1.97c.28 0 .5.22.5.5s-.22.5-.5.5m-5.92 0h-1.97c-.28 0-.5-.22-.5-.5s.22-.5.5-.5h1.97c.28 0 .5.22.5.5s-.22.5-.5.5m-5.92 0h-1.97c-.28 0-.5-.22-.5-.5s.22-.5.5-.5h1.97c.28 0 .5.22.5.5s-.22.5-.5.5m53.28 5.65h-1.97c-.28 0-.5-.22-.5-.5s.22-.5.5-.5h1.97c.28 0 .5.22.5.5s-.22.5-.5.5m-5.92 0h-1.97c-.28 0-.5-.22-.5-.5s.22-.5.5-.5h1.97c.28 0 .5.22.5.5s-.22.5-.5.5m-5.92 0h-1.97c-.28 0-.5-.22-.5-.5s.22-.5.5-.5h1.97c.28 0 .5.22.5.5s-.22.5-.5.5m-5.92 0h-1.97c-.28 0-.5-.22-.5-.5s.22-.5.5-.5h1.97c.28 0 .5.22.5.5s-.22.5-.5.5m-5.92 0h-1.97c-.28 0-.5-.22-.5-.5s.22-.5.5-.5h1.97c.28 0 .5.22.5.5s-.22.5-.5.5m-5.92 0h-1.97c-.28 0-.5-.22-.5-.5s.22-.5.5-.5h1.97c.28 0 .5.22.5.5s-.22.5-.5.5m-5.92 0h-1.97c-.28 0-.5-.22-.5-.5s.22-.5.5-.5h1.97c.28 0 .5.22.5.5s-.22.5-.5.5m-5.92 0h-1.97c-.28 0-.5-.22-.5-.5s.22-.5.5-.5h1.97c.28 0 .5.22.5.5s-.22.5-.5.5m-5.92 0h-1.97c-.28 0-.5-.22-.5-.5s.22-.5.5-.5h1.97c.28 0 .5.22.5.5s-.22.5-.5.5m-5.92 0h-1.97c-.28 0-.5-.22-.5-.5s.22-.5.5-.5h1.97c.28 0 .5.22.5.5s-.22.5-.5.5m53.28 5.64h-1.97c-.28 0-.5-.22-.5-.5s.22-.5.5-.5h1.97c.28 0 .5.22.5.5s-.22.5-.5.5m-5.92 0h-1.97c-.28 0-.5-.22-.5-.5s.22-.5.5-.5h1.97c.28 0 .5.22.5.5s-.22.5-.5.5m-5.92 0h-1.97c-.28 0-.5-.22-.5-.5s.22-.5.5-.5h1.97c.28 0 .5.22.5.5s-.22.5-.5.5m-5.92 0h-1.97c-.28 0-.5-.22-.5-.5s.22-.5.5-.5h1.97c.28 0 .5.22.5.5s-.22.5-.5.5m-5.92 0h-1.97c-.28 0-.5-.22-.5-.5s.22-.5.5-.5h1.97c.28 0 .5.22.5.5s-.22.5-.5.5m-5.92 0h-1.97c-.28 0-.5-.22-.5-.5s.22-.5.5-.5h1.97c.28 0 .5.22.5.5s-.22.5-.5.5m-5.92 0h-1.97c-.28 0-.5-.22-.5-.5s.22-.5.5-.5h1.97c.28 0 .5.22.5.5s-.22.5-.5.5m-5.92 0h-1.97c-.28 0-.5-.22-.5-.5s.22-.5.5-.5h1.97c.28 0 .5.22.5.5s-.22.5-.5.5m-5.92 0h-1.97c-.28 0-.5-.22-.5-.5s.22-.5.5-.5h1.97c.28 0 .5.22.5.5s-.22.5-.5.5m-5.92 0h-1.97c-.28 0-.5-.22-.5-.5s.22-.5.5-.5h1.97c.28 0 .5.22.5.5s-.22.5-.5.5m53.28 5.65h-1.97c-.28 0-.5-.22-.5-.5s.22-.5.5-.5h1.97c.28 0 .5.22.5.5s-.22.5-.5.5m-5.92 0h-1.97c-.28 0-.5-.22-.5-.5s.22-.5.5-.5h1.97c.28 0 .5.22.5.5s-.22.5-.5.5m-5.92 0h-1.97c-.28 0-.5-.22-.5-.5s.22-.5.5-.5h1.97c.28 0 .5.22.5.5s-.22.5-.5.5m-5.92 0h-1.97c-.28 0-.5-.22-.5-.5s.22-.5.5-.5h1.97c.28 0 .5.22.5.5s-.22.5-.5.5m-5.92 0h-1.97c-.28 0-.5-.22-.5-.5s.22-.5.5-.5h1.97c.28 0 .5.22.5.5s-.22.5-.5.5m-5.92 0h-1.97c-.28 0-.5-.22-.5-.5s.22-.5.5-.5h1.97c.28 0 .5.22.5.5s-.22.5-.5.5m-5.92 0h-1.97c-.28 0-.5-.22-.5-.5s.22-.5.5-.5h1.97c.28 0 .5.22.5.5s-.22.5-.5.5m-5.92 0h-1.97c-.28 0-.5-.22-.5-.5s.22-.5.5-.5h1.97c.28 0 .5.22.5.5s-.22.5-.5.5m-5.92 0h-1.97c-.28 0-.5-.22-.5-.5s.22-.5.5-.5h1.97c.28 0 .5.22.5.5s-.22.5-.5.5m-5.92 0h-1.97c-.28 0-.5-.22-.5-.5s.22-.5.5-.5h1.97c.28 0 .5.22.5.5s-.22.5-.5.5m53.28 5.65h-1.97c-.28 0-.5-.22-.5-.5s.22-.5.5-.5h1.97c.28 0 .5.22.5.5s-.22.5-.5.5m-5.92 0h-1.97c-.28 0-.5-.22-.5-.5s.22-.5.5-.5h1.97c.28 0 .5.22.5.5s-.22.5-.5.5m-5.92 0h-1.97c-.28 0-.5-.22-.5-.5s.22-.5.5-.5h1.97c.28 0 .5.22.5.5s-.22.5-.5.5m-5.92 0h-1.97c-.28 0-.5-.22-.5-.5s.22-.5.5-.5h1.97c.28 0 .5.22.5.5s-.22.5-.5.5m-5.92 0h-1.97c-.28 0-.5-.22-.5-.5s.22-.5.5-.5h1.97c.28 0 .5.22.5.5s-.22.5-.5.5m-5.92 0h-1.97c-.28 0-.5-.22-.5-.5s.22-.5.5-.5h1.97c.28 0 .5.22.5.5s-.22.5-.5.5m-5.92 0h-1.97c-.28 0-.5-.22-.5-.5s.22-.5.5-.5h1.97c.28 0 .5.22.5.5s-.22.5-.5.5m-5.92 0h-1.97c-.28 0-.5-.22-.5-.5s.22-.5.5-.5h1.97c.28 0 .5.22.5.5s-.22.5-.5.5m-5.92 0h-1.97c-.28 0-.5-.22-.5-.5s.22-.5.5-.5h1.97c.28 0 .5.22.5.5s-.22.5-.5.5m-5.92 0h-1.97c-.28 0-.5-.22-.5-.5s.22-.5.5-.5h1.97c.28 0 .5.22.5.5s-.22.5-.5.5m53.28 5.64h-1.97c-.28 0-.5-.22-.5-.5s.22-.5.5-.5h1.97c.28 0 .5.22.5.5s-.22.5-.5.5m-5.92 0h-1.97c-.28 0-.5-.22-.5-.5s.22-.5.5-.5h1.97c.28 0 .5.22.5.5s-.22.5-.5.5m-5.92 0h-1.97c-.28 0-.5-.22-.5-.5s.22-.5.5-.5h1.97c.28 0 .5.22.5.5s-.22.5-.5.5m-5.92 0h-1.97c-.28 0-.5-.22-.5-.5s.22-.5.5-.5h1.97c.28 0 .5.22.5.5s-.22.5-.5.5m-5.92 0h-1.97c-.28 0-.5-.22-.5-.5s.22-.5.5-.5h1.97c.28 0 .5.22.5.5s-.22.5-.5.5m-5.92 0h-1.97c-.28 0-.5-.22-.5-.5s.22-.5.5-.5h1.97c.28 0 .5.22.5.5s-.22.5-.5.5m-5.92 0h-1.97c-.28 0-.5-.22-.5-.5s.22-.5.5-.5h1.97c.28 0 .5.22.5.5s-.22.5-.5.5m-5.92 0h-1.97c-.28 0-.5-.22-.5-.5s.22-.5.5-.5h1.97c.28 0 .5.22.5.5s-.22.5-.5.5m-5.92 0h-1.97c-.28 0-.5-.22-.5-.5s.22-.5.5-.5h1.97c.28 0 .5.22.5.5s-.22.5-.5.5m-5.92 0h-1.97c-.28 0-.5-.22-.5-.5s.22-.5.5-.5h1.97c.28 0 .5.22.5.5s-.22.5-.5.5m53.28 5.65h-1.97c-.28 0-.5-.22-.5-.5s.22-.5.5-.5h1.97c.28 0 .5.22.5.5s-.22.5-.5.5m-5.92 0h-1.97c-.28 0-.5-.22-.5-.5s.22-.5.5-.5h1.97c.28 0 .5.22.5.5s-.22.5-.5.5m-5.92 0h-1.97c-.28 0-.5-.22-.5-.5s.22-.5.5-.5h1.97c.28 0 .5.22.5.5s-.22.5-.5.5m-5.92 0h-1.97c-.28 0-.5-.22-.5-.5s.22-.5.5-.5h1.97c.28 0 .5.22.5.5s-.22.5-.5.5m-5.92 0h-1.97c-.28 0-.5-.22-.5-.5s.22-.5.5-.5h1.97c.28 0 .5.22.5.5s-.22.5-.5.5m-5.92 0h-1.97c-.28 0-.5-.22-.5-.5s.22-.5.5-.5h1.97c.28 0 .5.22.5.5s-.22.5-.5.5m-5.92 0h-1.97c-.28 0-.5-.22-.5-.5s.22-.5.5-.5h1.97c.28 0 .5.22.5.5s-.22.5-.5.5m-5.92 0h-1.97c-.28 0-.5-.22-.5-.5s.22-.5.5-.5h1.97c.28 0 .5.22.5.5s-.22.5-.5.5m-5.92 0h-1.97c-.28 0-.5-.22-.5-.5s.22-.5.5-.5h1.97c.28 0 .5.22.5.5s-.22.5-.5.5m-5.92 0h-1.97c-.28 0-.5-.22-.5-.5s.22-.5.5-.5h1.97c.28 0 .5.22.5.5s-.22.5-.5.5m53.28 5.65h-1.97c-.28 0-.5-.22-.5-.5s.22-.5.5-.5h1.97c.28 0 .5.22.5.5s-.22.5-.5.5m-5.92 0h-1.97c-.28 0-.5-.22-.5-.5s.22-.5.5-.5h1.97c.28 0 .5.22.5.5s-.22.5-.5.5m-5.92 0h-1.97c-.28 0-.5-.22-.5-.5s.22-.5.5-.5h1.97c.28 0 .5.22.5.5s-.22.5-.5.5m-5.92 0h-1.97c-.28 0-.5-.22-.5-.5s.22-.5.5-.5h1.97c.28 0 .5.22.5.5s-.22.5-.5.5m-5.92 0h-1.97c-.28 0-.5-.22-.5-.5s.22-.5.5-.5h1.97c.28 0 .5.22.5.5s-.22.5-.5.5m-5.92 0h-1.97c-.28 0-.5-.22-.5-.5s.22-.5.5-.5h1.97c.28 0 .5.22.5.5s-.22.5-.5.5m-5.92 0h-1.97c-.28 0-.5-.22-.5-.5s.22-.5.5-.5h1.97c.28 0 .5.22.5.5s-.22.5-.5.5m-5.92 0h-1.97c-.28 0-.5-.22-.5-.5s.22-.5.5-.5h1.97c.28 0 .5.22.5.5s-.22.5-.5.5m-5.92 0h-1.97c-.28 0-.5-.22-.5-.5s.22-.5.5-.5h1.97c.28 0 .5.22.5.5s-.22.5-.5.5m-5.92 0h-1.97c-.28 0-.5-.22-.5-.5s.22-.5.5-.5h1.97c.28 0 .5.22.5.5s-.22.5-.5.5m53.28 5.65h-1.97c-.28 0-.5-.22-.5-.5s.22-.5.5-.5h1.97c.28 0 .5.22.5.5s-.22.5-.5.5m-5.92 0h-1.97c-.28 0-.5-.22-.5-.5s.22-.5.5-.5h1.97c.28 0 .5.22.5.5s-.22.5-.5.5m-5.92 0h-1.97c-.28 0-.5-.22-.5-.5s.22-.5.5-.5h1.97c.28 0 .5.22.5.5s-.22.5-.5.5m-5.92 0h-1.97c-.28 0-.5-.22-.5-.5s.22-.5.5-.5h1.97c.28 0 .5.22.5.5s-.22.5-.5.5m-5.92 0h-1.97c-.28 0-.5-.22-.5-.5s.22-.5.5-.5h1.97c.28 0 .5.22.5.5s-.22.5-.5.5m-5.92 0h-1.97c-.28 0-.5-.22-.5-.5s.22-.5.5-.5h1.97c.28 0 .5.22.5.5s-.22.5-.5.5m-5.92 0h-1.97c-.28 0-.5-.22-.5-.5s.22-.5.5-.5h1.97c.28 0 .5.22.5.5s-.22.5-.5.5m-5.92 0h-1.97c-.28 0-.5-.22-.5-.5s.22-.5.5-.5h1.97c.28 0 .5.22.5.5s-.22.5-.5.5m-5.92 0h-1.97c-.28 0-.5-.22-.5-.5s.22-.5.5-.5h1.97c.28 0 .5.22.5.5s-.22.5-.5.5m-5.92 0h-1.97c-.28 0-.5-.22-.5-.5s.22-.5.5-.5h1.97c.28 0 .5.22.5.5s-.22.5-.5.5m53.28 5.64h-1.97c-.28 0-.5-.22-.5-.5s.22-.5.5-.5h1.97c.28 0 .5.22.5.5s-.22.5-.5.5m-5.92 0h-1.97c-.28 0-.5-.22-.5-.5s.22-.5.5-.5h1.97c.28 0 .5.22.5.5s-.22.5-.5.5m-5.92 0h-1.97c-.28 0-.5-.22-.5-.5s.22-.5.5-.5h1.97c.28 0 .5.22.5.5s-.22.5-.5.5m-5.92 0h-1.97c-.28 0-.5-.22-.5-.5s.22-.5.5-.5h1.97c.28 0 .5.22.5.5s-.22.5-.5.5m-5.92 0h-1.97c-.28 0-.5-.22-.5-.5s.22-.5.5-.5h1.97c.28 0 .5.22.5.5s-.22.5-.5.5m-5.92 0h-1.97c-.28 0-.5-.22-.5-.5s.22-.5.5-.5h1.97c.28 0 .5.22.5.5s-.22.5-.5.5m-5.92 0h-1.97c-.28 0-.5-.22-.5-.5s.22-.5.5-.5h1.97c.28 0 .5.22.5.5s-.22.5-.5.5m-5.92 0h-1.97c-.28 0-.5-.22-.5-.5s.22-.5.5-.5h1.97c.28 0 .5.22.5.5s-.22.5-.5.5m-5.92 0h-1.97c-.28 0-.5-.22-.5-.5s.22-.5.5-.5h1.97c.28 0 .5.22.5.5s-.22.5-.5.5m-5.92 0h-1.97c-.28 0-.5-.22-.5-.5s.22-.5.5-.5h1.97c.28 0 .5.22.5.5s-.22.5-.5.5m53.28 5.65h-1.97c-.28 0-.5-.22-.5-.5s.22-.5.5-.5h1.97c.28 0 .5.22.5.5s-.22.5-.5.5m-5.92 0h-1.97c-.28 0-.5-.22-.5-.5s.22-.5.5-.5h1.97c.28 0 .5.22.5.5s-.22.5-.5.5m-5.92 0h-1.97c-.28 0-.5-.22-.5-.5s.22-.5.5-.5h1.97c.28 0 .5.22.5.5s-.22.5-.5.5m-5.92 0h-1.97c-.28 0-.5-.22-.5-.5s.22-.5.5-.5h1.97c.28 0 .5.22.5.5s-.22.5-.5.5m-5.92 0h-1.97c-.28 0-.5-.22-.5-.5s.22-.5.5-.5h1.97c.28 0 .5.22.5.5s-.22.5-.5.5m-5.92 0h-1.97c-.28 0-.5-.22-.5-.5s.22-.5.5-.5h1.97c.28 0 .5.22.5.5s-.22.5-.5.5m-5.92 0h-1.97c-.28 0-.5-.22-.5-.5s.22-.5.5-.5h1.97c.28 0 .5.22.5.5s-.22.5-.5.5m-5.92 0h-1.97c-.28 0-.5-.22-.5-.5s.22-.5.5-.5h1.97c.28 0 .5.22.5.5s-.22.5-.5.5m-5.92 0h-1.97c-.28 0-.5-.22-.5-.5s.22-.5.5-.5h1.97c.28 0 .5.22.5.5s-.22.5-.5.5m-5.92 0h-1.97c-.28 0-.5-.22-.5-.5s.22-.5.5-.5h1.97c.28 0 .5.22.5.5s-.22.5-.5.5m53.28 5.65h-1.97c-.28 0-.5-.22-.5-.5s.22-.5.5-.5h1.97c.28 0 .5.22.5.5s-.22.5-.5.5m-5.92 0h-1.97c-.28 0-.5-.22-.5-.5s.22-.5.5-.5h1.97c.28 0 .5.22.5.5s-.22.5-.5.5m-5.92 0h-1.97c-.28 0-.5-.22-.5-.5s.22-.5.5-.5h1.97c.28 0 .5.22.5.5s-.22.5-.5.5m-5.92 0h-1.97c-.28 0-.5-.22-.5-.5s.22-.5.5-.5h1.97c.28 0 .5.22.5.5s-.22.5-.5.5m-5.92 0h-1.97c-.28 0-.5-.22-.5-.5s.22-.5.5-.5h1.97c.28 0 .5.22.5.5s-.22.5-.5.5m-5.92 0h-1.97c-.28 0-.5-.22-.5-.5s.22-.5.5-.5h1.97c.28 0 .5.22.5.5s-.22.5-.5.5m-5.92 0h-1.97c-.28 0-.5-.22-.5-.5s.22-.5.5-.5h1.97c.28 0 .5.22.5.5s-.22.5-.5.5m-5.92 0h-1.97c-.28 0-.5-.22-.5-.5s.22-.5.5-.5h1.97c.28 0 .5.22.5.5s-.22.5-.5.5m-5.92 0h-1.97c-.28 0-.5-.22-.5-.5s.22-.5.5-.5h1.97c.28 0 .5.22.5.5s-.22.5-.5.5m-5.92 0h-1.97c-.28 0-.5-.22-.5-.5s.22-.5.5-.5h1.97c.28 0 .5.22.5.5s-.22.5-.5.5m53.28 5.64h-1.97c-.28 0-.5-.22-.5-.5s.22-.5.5-.5h1.97c.28 0 .5.22.5.5s-.22.5-.5.5m-5.92 0h-1.97c-.28 0-.5-.22-.5-.5s.22-.5.5-.5h1.97c.28 0 .5.22.5.5s-.22.5-.5.5m-5.92 0h-1.97c-.28 0-.5-.22-.5-.5s.22-.5.5-.5h1.97c.28 0 .5.22.5.5s-.22.5-.5.5m-5.92 0h-1.97c-.28 0-.5-.22-.5-.5s.22-.5.5-.5h1.97c.28 0 .5.22.5.5s-.22.5-.5.5m-5.92 0h-1.97c-.28 0-.5-.22-.5-.5s.22-.5.5-.5h1.97c.28 0 .5.22.5.5s-.22.5-.5.5m-5.92 0h-1.97c-.28 0-.5-.22-.5-.5s.22-.5.5-.5h1.97c.28 0 .5.22.5.5s-.22.5-.5.5m-5.92 0h-1.97c-.28 0-.5-.22-.5-.5s.22-.5.5-.5h1.97c.28 0 .5.22.5.5s-.22.5-.5.5m-5.92 0h-1.97c-.28 0-.5-.22-.5-.5s.22-.5.5-.5h1.97c.28 0 .5.22.5.5s-.22.5-.5.5m-5.92 0h-1.97c-.28 0-.5-.22-.5-.5s.22-.5.5-.5h1.97c.28 0 .5.22.5.5s-.22.5-.5.5m-5.92 0h-1.97c-.28 0-.5-.22-.5-.5s.22-.5.5-.5h1.97c.28 0 .5.22.5.5s-.22.5-.5.5m53.28 5.65h-1.97c-.28 0-.5-.22-.5-.5s.22-.5.5-.5h1.97c.28 0 .5.22.5.5s-.22.5-.5.5m-5.92 0h-1.97c-.28 0-.5-.22-.5-.5s.22-.5.5-.5h1.97c.28 0 .5.22.5.5s-.22.5-.5.5m-5.92 0h-1.97c-.28 0-.5-.22-.5-.5s.22-.5.5-.5h1.97c.28 0 .5.22.5.5s-.22.5-.5.5m-5.92 0h-1.97c-.28 0-.5-.22-.5-.5s.22-.5.5-.5h1.97c.28 0 .5.22.5.5s-.22.5-.5.5m-5.92 0h-1.97c-.28 0-.5-.22-.5-.5s.22-.5.5-.5h1.97c.28 0 .5.22.5.5s-.22.5-.5.5m-5.92 0h-1.97c-.28 0-.5-.22-.5-.5s.22-.5.5-.5h1.97c.28 0 .5.22.5.5s-.22.5-.5.5m-5.92 0h-1.97c-.28 0-.5-.22-.5-.5s.22-.5.5-.5h1.97c.28 0 .5.22.5.5s-.22.5-.5.5m-5.92 0h-1.97c-.28 0-.5-.22-.5-.5s.22-.5.5-.5h1.97c.28 0 .5.22.5.5s-.22.5-.5.5m-5.92 0h-1.97c-.28 0-.5-.22-.5-.5s.22-.5.5-.5h1.97c.28 0 .5.22.5.5s-.22.5-.5.5m-5.92 0h-1.97c-.28 0-.5-.22-.5-.5s.22-.5.5-.5h1.97c.28 0 .5.22.5.5s-.22.5-.5.5m53.28 5.65h-1.97c-.28 0-.5-.22-.5-.5s.22-.5.5-.5h1.97c.28 0 .5.22.5.5s-.22.5-.5.5m-5.92 0h-1.97c-.28 0-.5-.22-.5-.5s.22-.5.5-.5h1.97c.28 0 .5.22.5.5s-.22.5-.5.5m-5.92 0h-1.97c-.28 0-.5-.22-.5-.5s.22-.5.5-.5h1.97c.28 0 .5.22.5.5s-.22.5-.5.5m-5.92 0h-1.97c-.28 0-.5-.22-.5-.5s.22-.5.5-.5h1.97c.28 0 .5.22.5.5s-.22.5-.5.5m-5.92 0h-1.97c-.28 0-.5-.22-.5-.5s.22-.5.5-.5h1.97c.28 0 .5.22.5.5s-.22.5-.5.5m-5.92 0h-1.97c-.28 0-.5-.22-.5-.5s.22-.5.5-.5h1.97c.28 0 .5.22.5.5s-.22.5-.5.5m-5.92 0h-1.97c-.28 0-.5-.22-.5-.5s.22-.5.5-.5h1.97c.28 0 .5.22.5.5s-.22.5-.5.5m-5.92 0h-1.97c-.28 0-.5-.22-.5-.5s.22-.5.5-.5h1.97c.28 0 .5.22.5.5s-.22.5-.5.5m-5.92 0h-1.97c-.28 0-.5-.22-.5-.5s.22-.5.5-.5h1.97c.28 0 .5.22.5.5s-.22.5-.5.5m-5.92 0h-1.97c-.28 0-.5-.22-.5-.5s.22-.5.5-.5h1.97c.28 0 .5.22.5.5s-.22.5-.5.5"/></g><mask id="f" width="40" height="27" x="63" y="200" maskUnits="userSpaceOnUse" style="mask-type:luminance"><path fill="#fff" d="M102.57 200.47H63.82v26.47h38.75z"/></mask><g fill="#22343C" mask="url(#f)"><path d="M99.87 203.23c-.13 0-.25-.05-.35-.14l-3.72-3.66-3.72 3.66c-.2.19-.51.19-.7 0l-3.72-3.66-3.72 3.66c-.2.19-.51.19-.7 0l-3.72-3.66-3.72 3.66c-.2.19-.51.19-.7 0l-3.72-3.66-3.72 3.66c-.2.19-.51.19-.7 0l-3.71-3.66-3.72 3.66c-.2.19-.51.19-.7 0l-4.07-4c-.2-.19-.2-.51 0-.71.19-.2.51-.2.71 0l3.72 3.66 3.72-3.66c.2-.19.51-.19.7 0l3.71 3.66 3.72-3.66c.2-.19.51-.19.7 0l3.72 3.66 3.72-3.66c.2-.19.51-.19.7 0l3.72 3.66 3.72-3.66c.2-.19.51-.19.7 0l3.72 3.66 3.72-3.66c.2-.19.51-.19.7 0l3.72 3.66 3.72-3.66c.2-.19.51-.19.7 0l3.72 3.66 3.72-3.66c.2-.19.51-.19.7 0l3.73 3.66 3.73-3.66c.2-.19.51-.19.71 0 .19.2.19.51 0 .71l-4.08 4c-.2.19-.51.19-.7 0l-3.73-3.66-3.72 3.66c-.2.19-.51.19-.7 0l-3.72-3.66-3.72 3.66c-.1.1-.22.14-.35.14zm0 5.65c-.13 0-.25-.05-.35-.14l-3.72-3.66-3.72 3.66c-.2.19-.51.19-.7 0l-3.72-3.66-3.72 3.66c-.2.19-.51.19-.7 0l-3.72-3.66-3.72 3.66c-.2.19-.51.19-.7 0l-3.72-3.66-3.72 3.66c-.2.19-.51.19-.7 0l-3.71-3.66-3.72 3.66c-.2.19-.51.19-.7 0l-4.07-4c-.2-.19-.2-.51 0-.71.19-.2.51-.2.71 0l3.72 3.66 3.72-3.66c.2-.19.51-.19.7 0l3.71 3.66 3.72-3.66c.2-.19.51-.19.7 0l3.72 3.66 3.72-3.66c.2-.19.51-.19.7 0l3.72 3.66 3.72-3.66c.2-.19.51-.19.7 0l3.72 3.66 3.72-3.66c.2-.19.51-.19.7 0l3.72 3.66 3.72-3.66c.2-.19.51-.19.7 0l3.72 3.66 3.72-3.66c.2-.19.51-.19.7 0l3.73 3.66 3.73-3.66c.2-.19.51-.19.71 0 .19.2.19.51 0 .71l-4.08 4c-.2.19-.51.19-.7 0l-3.73-3.66-3.72 3.66c-.2.19-.51.19-.7 0l-3.72-3.66-3.72 3.66c-.1.1-.22.14-.35.14zm0 5.64c-.13 0-.25-.05-.35-.14l-3.72-3.66-3.72 3.66c-.2.19-.51.19-.7 0l-3.72-3.66-3.72 3.66c-.2.19-.51.19-.7 0l-3.72-3.66-3.72 3.66c-.2.19-.51.19-.7 0l-3.72-3.66-3.72 3.66c-.2.19-.51.19-.7 0l-3.71-3.66-3.72 3.66c-.2.19-.51.19-.7 0l-4.07-4c-.2-.19-.2-.51 0-.71.19-.2.51-.2.71 0l3.72 3.66 3.72-3.66c.2-.19.51-.19.7 0l3.71 3.66 3.72-3.66c.2-.19.51-.19.7 0l3.72 3.66 3.72-3.66c.2-.19.51-.19.7 0l3.72 3.66 3.72-3.66c.2-.19.51-.19.7 0l3.72 3.66 3.72-3.66c.2-.19.51-.19.7 0l3.72 3.66 3.72-3.66c.2-.19.51-.19.7 0l3.72 3.66 3.72-3.66c.2-.19.51-.19.7 0l3.73 3.66 3.73-3.66c.2-.19.51-.19.71 0 .19.2.19.51 0 .71l-4.08 4c-.2.19-.51.19-.7 0l-3.73-3.66-3.72 3.66c-.2.19-.51.19-.7 0l-3.72-3.66-3.72 3.66c-.1.1-.22.14-.35.14zm0 5.65c-.13 0-.25-.05-.35-.14l-3.72-3.66-3.72 3.66c-.2.19-.51.19-.7 0l-3.72-3.66-3.72 3.66c-.2.19-.51.19-.7 0l-3.72-3.66-3.72 3.66c-.2.19-.51.19-.7 0l-3.72-3.66-3.72 3.66c-.2.19-.51.19-.7 0l-3.71-3.66-3.72 3.66c-.2.19-.51.19-.7 0l-4.07-4c-.2-.19-.2-.51 0-.71.19-.2.51-.2.71 0l3.72 3.66 3.72-3.66c.2-.19.51-.19.7 0l3.71 3.66 3.72-3.66c.2-.19.51-.19.7 0l3.72 3.66 3.72-3.66c.2-.19.51-.19.7 0l3.72 3.66 3.72-3.66c.2-.19.51-.19.7 0l3.72 3.66 3.72-3.66c.2-.19.51-.19.7 0l3.72 3.66 3.72-3.66c.2-.19.51-.19.7 0l3.72 3.66 3.72-3.66c.2-.19.51-.19.7 0l3.73 3.66 3.73-3.66c.2-.19.51-.19.71 0 .19.2.19.51 0 .71l-4.08 4c-.2.19-.51.19-.7 0l-3.73-3.66-3.72 3.66c-.2.19-.51.19-.7 0l-3.72-3.66-3.72 3.66c-.1.1-.22.14-.35.14zm0 5.65c-.13 0-.25-.05-.35-.14l-3.72-3.66-3.72 3.66c-.2.19-.51.19-.7 0l-3.72-3.66-3.72 3.66c-.2.19-.51.19-.7 0l-3.72-3.66-3.72 3.66c-.2.19-.51.19-.7 0l-3.72-3.66-3.72 3.66c-.2.19-.51.19-.7 0l-3.71-3.66-3.72 3.66c-.2.19-.51.19-.7 0l-4.07-4c-.2-.19-.2-.51 0-.71.19-.2.51-.2.71 0l3.72 3.66 3.72-3.66c.2-.19.51-.19.7 0l3.71 3.66 3.72-3.66c.2-.19.51-.19.7 0l3.72 3.66 3.72-3.66c.2-.19.51-.19.7 0l3.72 3.66 3.72-3.66c.2-.19.51-.19.7 0l3.72 3.66 3.72-3.66c.2-.19.51-.19.7 0l3.72 3.66 3.72-3.66c.2-.19.51-.19.7 0l3.72 3.66 3.72-3.66c.2-.19.51-.19.7 0l3.73 3.66 3.73-3.66c.2-.19.51-.19.71 0 .19.2.19.51 0 .71l-4.08 4c-.2.19-.51.19-.7 0l-3.73-3.66-3.72 3.66c-.2.19-.51.19-.7 0l-3.72-3.66-3.72 3.66c-.1.1-.22.14-.35.14zm0 5.64c-.13 0-.25-.05-.35-.14l-3.72-3.66-3.72 3.66c-.2.19-.51.19-.7 0l-3.72-3.66-3.72 3.66c-.2.19-.51.19-.7 0l-3.72-3.66-3.72 3.66c-.2.19-.51.19-.7 0l-3.72-3.66-3.72 3.66c-.2.19-.51.19-.7 0l-3.71-3.66-3.72 3.66c-.2.19-.51.19-.7 0l-4.07-4c-.2-.19-.2-.51 0-.71.19-.2.51-.2.71 0l3.72 3.66 3.72-3.66c.2-.19.51-.19.7 0l3.71 3.66 3.72-3.66c.2-.19.51-.19.7 0l3.72 3.66 3.72-3.66c.2-.19.51-.19.7 0l3.72 3.66 3.72-3.66c.2-.19.51-.19.7 0l3.72 3.66 3.72-3.66c.2-.19.51-.19.7 0l3.72 3.66 3.72-3.66c.2-.19.51-.19.7 0l3.72 3.66 3.72-3.66c.2-.19.51-.19.7 0l3.73 3.66 3.73-3.66c.2-.19.51-.19.71 0 .19.2.19.51 0 .71l-4.08 4c-.2.19-.51.19-.7 0l-3.73-3.66-3.72 3.66c-.2.19-.51.19-.7 0l-3.72-3.66-3.72 3.66c-.1.1-.22.14-.35.14z"/></g><mask id="g" width="40" height="47" x="133" y="180" maskUnits="userSpaceOnUse" style="mask-type:luminance"><path fill="#fff" d="M172.31 180.78h-38.75V227h38.75z"/></mask><g fill="#22343C" mask="url(#g)"><path d="M169.61 183.53c-.13 0-.25-.05-.35-.14l-3.72-3.66-3.72 3.66c-.2.19-.51.19-.7 0l-3.72-3.66-3.72 3.66c-.2.19-.51.19-.7 0l-3.72-3.66-3.72 3.66c-.2.19-.51.19-.7 0l-3.72-3.66-3.72 3.66c-.2.19-.51.19-.7 0l-3.71-3.66-3.72 3.66c-.2.19-.51.19-.7 0l-4.07-4c-.2-.19-.2-.51 0-.71.19-.2.51-.2.71 0l3.72 3.66 3.72-3.66c.2-.19.51-.19.7 0l3.71 3.66 3.72-3.66c.2-.19.51-.19.7 0l3.72 3.66 3.72-3.66c.2-.19.51-.19.7 0l3.72 3.66 3.72-3.66c.2-.19.51-.19.7 0l3.72 3.66 3.72-3.66c.2-.19.51-.19.7 0l3.72 3.66 3.72-3.66c.2-.19.51-.19.7 0l3.72 3.66 3.72-3.66c.19-.19.51-.19.7 0l3.73 3.66 3.73-3.66c.2-.19.51-.19.71 0 .19.2.19.51 0 .71l-4.08 4c-.2.19-.51.19-.7 0l-3.73-3.66-3.72 3.66c-.2.19-.51.19-.7 0l-3.72-3.66-3.72 3.66c-.1.1-.22.14-.35.14zm0 5.65c-.13 0-.25-.05-.35-.14l-3.72-3.66-3.72 3.66c-.2.19-.51.19-.7 0l-3.72-3.66-3.72 3.66c-.2.19-.51.19-.7 0l-3.72-3.66-3.72 3.66c-.2.19-.51.19-.7 0l-3.72-3.66-3.72 3.66c-.2.19-.51.19-.7 0l-3.71-3.66-3.72 3.66c-.2.19-.51.19-.7 0l-4.07-4c-.2-.19-.2-.51 0-.71.19-.2.51-.2.71 0l3.72 3.66 3.72-3.66c.2-.19.51-.19.7 0l3.71 3.66 3.72-3.66c.2-.19.51-.19.7 0l3.72 3.66 3.72-3.66c.2-.19.51-.19.7 0l3.72 3.66 3.72-3.66c.2-.19.51-.19.7 0l3.72 3.66 3.72-3.66c.2-.19.51-.19.7 0l3.72 3.66 3.72-3.66c.2-.19.51-.19.7 0l3.72 3.66 3.72-3.66c.19-.19.51-.19.7 0l3.73 3.66 3.73-3.66c.2-.19.51-.19.71 0 .19.2.19.51 0 .71l-4.08 4c-.2.19-.51.19-.7 0l-3.73-3.66-3.72 3.66c-.2.19-.51.19-.7 0l-3.72-3.66-3.72 3.66c-.1.1-.22.14-.35.14zm0 5.65c-.13 0-.25-.05-.35-.14l-3.72-3.66-3.72 3.66c-.2.19-.51.19-.7 0l-3.72-3.66-3.72 3.66c-.2.19-.51.19-.7 0l-3.72-3.66-3.72 3.66c-.2.19-.51.19-.7 0l-3.72-3.66-3.72 3.66c-.2.19-.51.19-.7 0l-3.71-3.66-3.72 3.66c-.2.19-.51.19-.7 0l-4.07-4c-.2-.19-.2-.51 0-.71.19-.2.51-.2.71 0l3.72 3.66 3.72-3.66c.2-.19.51-.19.7 0l3.71 3.66 3.72-3.66c.2-.19.51-.19.7 0l3.72 3.66 3.72-3.66c.2-.19.51-.19.7 0l3.72 3.66 3.72-3.66c.2-.19.51-.19.7 0l3.72 3.66 3.72-3.66c.2-.19.51-.19.7 0l3.72 3.66 3.72-3.66c.2-.19.51-.19.7 0l3.72 3.66 3.72-3.66c.19-.19.51-.19.7 0l3.73 3.66 3.73-3.66c.2-.19.51-.19.71 0 .19.2.19.51 0 .71l-4.08 4c-.2.19-.51.19-.7 0l-3.73-3.66-3.72 3.66c-.2.19-.51.19-.7 0l-3.72-3.66-3.72 3.66c-.1.1-.22.14-.35.14zm0 5.65c-.13 0-.25-.05-.35-.14l-3.72-3.66-3.72 3.66c-.2.19-.51.19-.7 0l-3.72-3.66-3.72 3.66c-.2.19-.51.19-.7 0l-3.72-3.66-3.72 3.66c-.2.19-.51.19-.7 0l-3.72-3.66-3.72 3.66c-.2.19-.51.19-.7 0l-3.71-3.66-3.72 3.66c-.2.19-.51.19-.7 0l-4.07-4c-.2-.19-.2-.51 0-.71.19-.2.51-.2.71 0l3.72 3.66 3.72-3.66c.2-.19.51-.19.7 0l3.71 3.66 3.72-3.66c.2-.19.51-.19.7 0l3.72 3.66 3.72-3.66c.2-.19.51-.19.7 0l3.72 3.66 3.72-3.66c.2-.19.51-.19.7 0l3.72 3.66 3.72-3.66c.2-.19.51-.19.7 0l3.72 3.66 3.72-3.66c.2-.19.51-.19.7 0l3.72 3.66 3.72-3.66c.19-.19.51-.19.7 0l3.73 3.66 3.73-3.66c.2-.19.51-.19.71 0 .19.2.19.51 0 .71l-4.08 4c-.2.19-.51.19-.7 0l-3.73-3.66-3.72 3.66c-.2.19-.51.19-.7 0l-3.72-3.66-3.72 3.66c-.1.1-.22.14-.35.14zm0 5.64c-.13 0-.25-.05-.35-.14l-3.72-3.66-3.72 3.66c-.2.19-.51.19-.7 0l-3.72-3.66-3.72 3.66c-.2.19-.51.19-.7 0l-3.72-3.66-3.72 3.66c-.2.19-.51.19-.7 0l-3.72-3.66-3.72 3.66c-.2.19-.51.19-.7 0l-3.71-3.66-3.72 3.66c-.2.19-.51.19-.7 0l-4.07-4c-.2-.19-.2-.51 0-.71.19-.2.51-.2.71 0l3.72 3.66 3.72-3.66c.2-.19.51-.19.7 0l3.71 3.66 3.72-3.66c.2-.19.51-.19.7 0l3.72 3.66 3.72-3.66c.2-.19.51-.19.7 0l3.72 3.66 3.72-3.66c.2-.19.51-.19.7 0l3.72 3.66 3.72-3.66c.2-.19.51-.19.7 0l3.72 3.66 3.72-3.66c.2-.19.51-.19.7 0l3.72 3.66 3.72-3.66c.19-.19.51-.19.7 0l3.73 3.66 3.73-3.66c.2-.19.51-.19.71 0 .19.2.19.51 0 .71l-4.08 4c-.2.19-.51.19-.7 0l-3.73-3.66-3.72 3.66c-.2.19-.51.19-.7 0l-3.72-3.66-3.72 3.66c-.1.1-.22.14-.35.14zm0 5.65c-.13 0-.25-.05-.35-.14l-3.72-3.66-3.72 3.66c-.2.19-.51.19-.7 0l-3.72-3.66-3.72 3.66c-.2.19-.51.19-.7 0l-3.72-3.66-3.72 3.66c-.2.19-.51.19-.7 0l-3.72-3.66-3.72 3.66c-.2.19-.51.19-.7 0l-3.71-3.66-3.72 3.66c-.2.19-.51.19-.7 0l-4.07-4c-.2-.19-.2-.51 0-.71.19-.2.51-.2.71 0l3.72 3.66 3.72-3.66c.2-.19.51-.19.7 0l3.71 3.66 3.72-3.66c.2-.19.51-.19.7 0l3.72 3.66 3.72-3.66c.2-.19.51-.19.7 0l3.72 3.66 3.72-3.66c.2-.19.51-.19.7 0l3.72 3.66 3.72-3.66c.2-.19.51-.19.7 0l3.72 3.66 3.72-3.66c.2-.19.51-.19.7 0l3.72 3.66 3.72-3.66c.19-.19.51-.19.7 0l3.73 3.66 3.73-3.66c.2-.19.51-.19.71 0 .19.2.19.51 0 .71l-4.08 4c-.2.19-.51.19-.7 0l-3.73-3.66-3.72 3.66c-.2.19-.51.19-.7 0l-3.72-3.66-3.72 3.66c-.1.1-.22.14-.35.14zm0 5.65c-.13 0-.25-.05-.35-.14l-3.72-3.66-3.72 3.66c-.2.19-.51.19-.7 0l-3.72-3.66-3.72 3.66c-.2.19-.51.19-.7 0l-3.72-3.66-3.72 3.66c-.2.19-.51.19-.7 0l-3.72-3.66-3.72 3.66c-.2.19-.51.19-.7 0l-3.71-3.66-3.72 3.66c-.2.19-.51.19-.7 0l-4.07-4c-.2-.19-.2-.51 0-.71.19-.2.51-.2.71 0l3.72 3.66 3.72-3.66c.2-.19.51-.19.7 0l3.71 3.66 3.72-3.66c.2-.19.51-.19.7 0l3.72 3.66 3.72-3.66c.2-.19.51-.19.7 0l3.72 3.66 3.72-3.66c.2-.19.51-.19.7 0l3.72 3.66 3.72-3.66c.2-.19.51-.19.7 0l3.72 3.66 3.72-3.66c.2-.19.51-.19.7 0l3.72 3.66 3.72-3.66c.19-.19.51-.19.7 0l3.73 3.66 3.73-3.66c.2-.19.51-.19.71 0 .19.2.19.51 0 .71l-4.08 4c-.2.19-.51.19-.7 0l-3.73-3.66-3.72 3.66c-.2.19-.51.19-.7 0l-3.72-3.66-3.72 3.66c-.1.1-.22.14-.35.14zm0 5.64c-.13 0-.25-.05-.35-.14l-3.72-3.66-3.72 3.66c-.2.19-.51.19-.7 0l-3.72-3.66-3.72 3.66c-.2.19-.51.19-.7 0l-3.72-3.66-3.72 3.66c-.2.19-.51.19-.7 0l-3.72-3.66-3.72 3.66c-.2.19-.51.19-.7 0l-3.71-3.66-3.72 3.66c-.2.19-.51.19-.7 0l-4.07-4c-.2-.19-.2-.51 0-.71.19-.2.51-.2.71 0l3.72 3.66 3.72-3.66c.2-.19.51-.19.7 0l3.71 3.66 3.72-3.66c.2-.19.51-.19.7 0l3.72 3.66 3.72-3.66c.2-.19.51-.19.7 0l3.72 3.66 3.72-3.66c.2-.19.51-.19.7 0l3.72 3.66 3.72-3.66c.2-.19.51-.19.7 0l3.72 3.66 3.72-3.66c.2-.19.51-.19.7 0l3.72 3.66 3.72-3.66c.19-.19.51-.19.7 0l3.73 3.66 3.73-3.66c.2-.19.51-.19.71 0 .19.2.19.51 0 .71l-4.08 4c-.2.19-.51.19-.7 0l-3.73-3.66-3.72 3.66c-.2.19-.51.19-.7 0l-3.72-3.66-3.72 3.66c-.1.1-.22.14-.35.14zm0 5.65c-.13 0-.25-.05-.35-.14l-3.72-3.66-3.72 3.66c-.2.19-.51.19-.7 0l-3.72-3.66-3.72 3.66c-.2.19-.51.19-.7 0l-3.72-3.66-3.72 3.66c-.2.19-.51.19-.7 0l-3.72-3.66-3.72 3.66c-.2.19-.51.19-.7 0l-3.71-3.66-3.72 3.66c-.2.19-.51.19-.7 0l-4.07-4c-.2-.19-.2-.51 0-.71.19-.2.51-.2.71 0l3.72 3.66 3.72-3.66c.2-.19.51-.19.7 0l3.71 3.66 3.72-3.66c.2-.19.51-.19.7 0l3.72 3.66 3.72-3.66c.2-.19.51-.19.7 0l3.72 3.66 3.72-3.66c.2-.19.51-.19.7 0l3.72 3.66 3.72-3.66c.2-.19.51-.19.7 0l3.72 3.66 3.72-3.66c.2-.19.51-.19.7 0l3.72 3.66 3.72-3.66c.19-.19.51-.19.7 0l3.73 3.66 3.73-3.66c.2-.19.51-.19.71 0 .19.2.19.51 0 .71l-4.08 4c-.2.19-.51.19-.7 0l-3.73-3.66-3.72 3.66c-.2.19-.51.19-.7 0l-3.72-3.66-3.72 3.66c-.1.1-.22.14-.35.14z"/></g><mask id="h" width="39" height="28" x="203" y="199" maskUnits="userSpaceOnUse" style="mask-type:luminance"><path fill="#fff" d="M241.98 199.27h-38.75v27.68h38.75z"/></mask><g fill="#22343C" mask="url(#h)"><path d="M239.281 202.03c-.13 0-.25-.05-.35-.14l-3.72-3.66-3.72 3.66c-.2.19-.51.19-.7 0l-3.72-3.66-3.72 3.66c-.2.19-.51.19-.7 0l-3.72-3.66-3.72 3.66c-.2.19-.51.19-.7 0l-3.72-3.66-3.72 3.66c-.2.19-.51.19-.7 0l-3.71-3.66-3.72 3.66c-.2.19-.51.19-.7 0l-4.07-4c-.2-.19-.2-.51 0-.71s.51-.2.71 0l3.72 3.66 3.72-3.66c.2-.19.51-.19.7 0l3.71 3.66 3.72-3.66c.2-.19.51-.19.7 0l3.72 3.66 3.72-3.66c.2-.19.51-.19.7 0l3.72 3.66 3.72-3.66c.2-.19.51-.19.7 0l3.72 3.66 3.72-3.66c.2-.19.51-.19.7 0l3.72 3.66 3.72-3.66c.2-.19.51-.19.7 0l3.72 3.66 3.72-3.66c.2-.19.51-.19.7 0l3.73 3.66 3.73-3.66c.2-.19.51-.19.71 0 .19.2.19.51 0 .71l-4.08 4c-.19.19-.5.19-.7 0l-3.73-3.66-3.72 3.66c-.2.19-.51.19-.7 0l-3.72-3.66-3.72 3.66c-.1.1-.22.14-.35.14zm0 5.65c-.13 0-.25-.05-.35-.14l-3.72-3.66-3.72 3.66c-.2.19-.51.19-.7 0l-3.72-3.66-3.72 3.66c-.2.19-.51.19-.7 0l-3.72-3.66-3.72 3.66c-.2.19-.51.19-.7 0l-3.72-3.66-3.72 3.66c-.2.19-.51.19-.7 0l-3.71-3.66-3.72 3.66c-.2.19-.51.19-.7 0l-4.07-4c-.2-.19-.2-.51 0-.71s.51-.2.71 0l3.72 3.66 3.72-3.66c.2-.19.51-.19.7 0l3.71 3.66 3.72-3.66c.2-.19.51-.19.7 0l3.72 3.66 3.72-3.66c.2-.19.51-.19.7 0l3.72 3.66 3.72-3.66c.2-.19.51-.19.7 0l3.72 3.66 3.72-3.66c.2-.19.51-.19.7 0l3.72 3.66 3.72-3.66c.2-.19.51-.19.7 0l3.72 3.66 3.72-3.66c.2-.19.51-.19.7 0l3.73 3.66 3.73-3.66c.2-.19.51-.19.71 0 .19.2.19.51 0 .71l-4.08 4c-.19.19-.5.19-.7 0l-3.73-3.66-3.72 3.66c-.2.19-.51.19-.7 0l-3.72-3.66-3.72 3.66c-.1.1-.22.14-.35.14zm0 5.64c-.13 0-.25-.05-.35-.14l-3.72-3.66-3.72 3.66c-.2.19-.51.19-.7 0l-3.72-3.66-3.72 3.66c-.2.19-.51.19-.7 0l-3.72-3.66-3.72 3.66c-.2.19-.51.19-.7 0l-3.72-3.66-3.72 3.66c-.2.19-.51.19-.7 0l-3.71-3.66-3.72 3.66c-.2.19-.51.19-.7 0l-4.07-4c-.2-.19-.2-.51 0-.71.19-.2.51-.2.71 0l3.72 3.66 3.72-3.66c.2-.19.51-.19.7 0l3.71 3.66 3.72-3.66c.2-.19.51-.19.7 0l3.72 3.66 3.72-3.66c.2-.19.51-.19.7 0l3.72 3.66 3.72-3.66c.2-.19.51-.19.7 0l3.72 3.66 3.72-3.66c.2-.19.51-.19.7 0l3.72 3.66 3.72-3.66c.2-.19.51-.19.7 0l3.72 3.66 3.72-3.66c.2-.19.51-.19.7 0l3.73 3.66 3.73-3.66c.2-.19.51-.19.71 0 .19.2.19.51 0 .71l-4.08 4c-.19.19-.5.19-.7 0l-3.73-3.66-3.72 3.66c-.2.19-.51.19-.7 0l-3.72-3.66-3.72 3.66c-.1.1-.22.14-.35.14zm0 5.65c-.13 0-.25-.05-.35-.14l-3.72-3.66-3.72 3.66c-.2.19-.51.19-.7 0l-3.72-3.66-3.72 3.66c-.2.19-.51.19-.7 0l-3.72-3.66-3.72 3.66c-.2.19-.51.19-.7 0l-3.72-3.66-3.72 3.66c-.2.19-.51.19-.7 0l-3.71-3.66-3.72 3.66c-.2.19-.51.19-.7 0l-4.07-4c-.2-.19-.2-.51 0-.71.19-.2.51-.2.71 0l3.72 3.66 3.72-3.66c.2-.19.51-.19.7 0l3.71 3.66 3.72-3.66c.2-.19.51-.19.7 0l3.72 3.66 3.72-3.66c.2-.19.51-.19.7 0l3.72 3.66 3.72-3.66c.2-.19.51-.19.7 0l3.72 3.66 3.72-3.66c.2-.19.51-.19.7 0l3.72 3.66 3.72-3.66c.2-.19.51-.19.7 0l3.72 3.66 3.72-3.66c.2-.19.51-.19.7 0l3.73 3.66 3.73-3.66c.2-.19.51-.19.71 0 .19.2.19.51 0 .71l-4.08 4c-.19.19-.5.19-.7 0l-3.73-3.66-3.72 3.66c-.2.19-.51.19-.7 0l-3.72-3.66-3.72 3.66c-.1.1-.22.14-.35.14zm0 5.65c-.13 0-.25-.05-.35-.14l-3.72-3.66-3.72 3.66c-.2.19-.51.19-.7 0l-3.72-3.66-3.72 3.66c-.2.19-.51.19-.7 0l-3.72-3.66-3.72 3.66c-.2.19-.51.19-.7 0l-3.72-3.66-3.72 3.66c-.2.19-.51.19-.7 0l-3.71-3.66-3.72 3.66c-.2.19-.51.19-.7 0l-4.07-4c-.2-.19-.2-.51 0-.71.19-.2.51-.2.71 0l3.72 3.66 3.72-3.66c.2-.19.51-.19.7 0l3.71 3.66 3.72-3.66c.2-.19.51-.19.7 0l3.72 3.66 3.72-3.66c.2-.19.51-.19.7 0l3.72 3.66 3.72-3.66c.2-.19.51-.19.7 0l3.72 3.66 3.72-3.66c.2-.19.51-.19.7 0l3.72 3.66 3.72-3.66c.2-.19.51-.19.7 0l3.72 3.66 3.72-3.66c.2-.19.51-.19.7 0l3.73 3.66 3.73-3.66c.2-.19.51-.19.71 0 .19.2.19.51 0 .71l-4.08 4c-.19.19-.5.19-.7 0l-3.73-3.66-3.72 3.66c-.2.19-.51.19-.7 0l-3.72-3.66-3.72 3.66c-.1.1-.22.14-.35.14zm0 5.64c-.13 0-.25-.05-.35-.14l-3.72-3.66-3.72 3.66c-.2.19-.51.19-.7 0l-3.72-3.66-3.72 3.66c-.2.19-.51.19-.7 0l-3.72-3.66-3.72 3.66c-.2.19-.51.19-.7 0l-3.72-3.66-3.72 3.66c-.2.19-.51.19-.7 0l-3.71-3.66-3.72 3.66c-.2.19-.51.19-.7 0l-4.07-4c-.2-.19-.2-.51 0-.71s.51-.2.71 0l3.72 3.66 3.72-3.66c.2-.19.51-.19.7 0l3.71 3.66 3.72-3.66c.2-.19.51-.19.7 0l3.72 3.66 3.72-3.66c.2-.19.51-.19.7 0l3.72 3.66 3.72-3.66c.2-.19.51-.19.7 0l3.72 3.66 3.72-3.66c.2-.19.51-.19.7 0l3.72 3.66 3.72-3.66c.2-.19.51-.19.7 0l3.72 3.66 3.72-3.66c.2-.19.51-.19.7 0l3.73 3.66 3.73-3.66c.2-.19.51-.19.71 0 .19.2.19.51 0 .71l-4.08 4c-.19.19-.5.19-.7 0l-3.73-3.66-3.72 3.66c-.2.19-.51.19-.7 0l-3.72-3.66-3.72 3.66c-.1.1-.22.14-.35.14z"/></g><mask id="i" width="39" height="32" x="273" y="195" maskUnits="userSpaceOnUse" style="mask-type:luminance"><path fill="#fff" d="M311.79 195.18h-38.75v31.81h38.75z"/></mask><g fill="#22343C" mask="url(#i)"><path d="M268.4 197.93c-.13 0-.25-.05-.35-.14l-4.07-4c-.2-.19-.2-.51 0-.71.19-.2.51-.2.71 0l3.72 3.66 3.72-3.66c.2-.19.51-.19.7 0l3.71 3.66 3.72-3.66c.2-.19.51-.19.7 0l3.72 3.66 3.72-3.66c.2-.19.51-.19.7 0l3.72 3.66 3.72-3.66c.2-.19.51-.19.7 0l3.72 3.66 3.72-3.66c.2-.19.51-.19.7 0l3.72 3.66 3.72-3.66c.2-.19.51-.19.7 0l3.72 3.66 3.72-3.66c.2-.19.51-.19.7 0l3.73 3.66 3.73-3.66c.2-.19.51-.19.71 0 .19.2.19.51 0 .71l-4.08 4c-.19.19-.5.19-.7 0l-3.73-3.66-3.72 3.66c-.2.19-.51.19-.7 0l-3.72-3.66-3.72 3.66c-.2.19-.51.19-.7 0l-3.72-3.66-3.72 3.66c-.2.19-.51.19-.7 0l-3.72-3.66-3.72 3.66c-.2.19-.51.19-.7 0l-3.72-3.66-3.72 3.66c-.2.19-.51.19-.7 0l-3.72-3.66-3.72 3.66c-.2.19-.51.19-.7 0l-3.71-3.66-3.72 3.66c-.1.1-.22.14-.35.14zm0 5.65c-.13 0-.25-.05-.35-.14l-4.07-4c-.2-.19-.2-.51 0-.71.19-.2.51-.2.71 0l3.72 3.66 3.72-3.66c.2-.19.51-.19.7 0l3.71 3.66 3.72-3.66c.2-.19.51-.19.7 0l3.72 3.66 3.72-3.66c.2-.19.51-.19.7 0l3.72 3.66 3.72-3.66c.2-.19.51-.19.7 0l3.72 3.66 3.72-3.66c.2-.19.51-.19.7 0l3.72 3.66 3.72-3.66c.2-.19.51-.19.7 0l3.72 3.66 3.72-3.66c.2-.19.51-.19.7 0l3.73 3.66 3.73-3.66c.2-.19.51-.19.71 0 .19.2.19.51 0 .71l-4.08 4c-.19.19-.5.19-.7 0l-3.73-3.66-3.72 3.66c-.2.19-.51.19-.7 0l-3.72-3.66-3.72 3.66c-.2.19-.51.19-.7 0l-3.72-3.66-3.72 3.66c-.2.19-.51.19-.7 0l-3.72-3.66-3.72 3.66c-.2.19-.51.19-.7 0l-3.72-3.66-3.72 3.66c-.2.19-.51.19-.7 0l-3.72-3.66-3.72 3.66c-.2.19-.51.19-.7 0l-3.71-3.66-3.72 3.66c-.1.1-.22.14-.35.14zm0 5.65c-.13 0-.25-.05-.35-.14l-4.07-4c-.2-.19-.2-.51 0-.71.19-.2.51-.2.71 0l3.72 3.66 3.72-3.66c.2-.19.51-.19.7 0l3.71 3.66 3.72-3.66c.2-.19.51-.19.7 0l3.72 3.66 3.72-3.66c.2-.19.51-.19.7 0l3.72 3.66 3.72-3.66c.2-.19.51-.19.7 0l3.72 3.66 3.72-3.66c.2-.19.51-.19.7 0l3.72 3.66 3.72-3.66c.2-.19.51-.19.7 0l3.72 3.66 3.72-3.66c.2-.19.51-.19.7 0l3.73 3.66 3.73-3.66c.2-.19.51-.19.71 0 .19.2.19.51 0 .71l-4.08 4c-.19.19-.5.19-.7 0l-3.73-3.66-3.72 3.66c-.2.19-.51.19-.7 0l-3.72-3.66-3.72 3.66c-.2.19-.51.19-.7 0l-3.72-3.66-3.72 3.66c-.2.19-.51.19-.7 0l-3.72-3.66-3.72 3.66c-.2.19-.51.19-.7 0l-3.72-3.66-3.72 3.66c-.2.19-.51.19-.7 0l-3.72-3.66-3.72 3.66c-.2.19-.51.19-.7 0l-3.71-3.66-3.72 3.66c-.1.1-.22.14-.35.14zm0 5.65c-.13 0-.25-.05-.35-.14l-4.07-4c-.2-.19-.2-.51 0-.71.19-.2.51-.2.71 0l3.72 3.66 3.72-3.66c.2-.19.51-.19.7 0l3.71 3.66 3.72-3.66c.2-.19.51-.19.7 0l3.72 3.66 3.72-3.66c.2-.19.51-.19.7 0l3.72 3.66 3.72-3.66c.2-.19.51-.19.7 0l3.72 3.66 3.72-3.66c.2-.19.51-.19.7 0l3.72 3.66 3.72-3.66c.2-.19.51-.19.7 0l3.72 3.66 3.72-3.66c.2-.19.51-.19.7 0l3.73 3.66 3.73-3.66c.2-.19.51-.19.71 0 .19.2.19.51 0 .71l-4.08 4c-.19.19-.5.19-.7 0l-3.73-3.66-3.72 3.66c-.2.19-.51.19-.7 0l-3.72-3.66-3.72 3.66c-.2.19-.51.19-.7 0l-3.72-3.66-3.72 3.66c-.2.19-.51.19-.7 0l-3.72-3.66-3.72 3.66c-.2.19-.51.19-.7 0l-3.72-3.66-3.72 3.66c-.2.19-.51.19-.7 0l-3.72-3.66-3.72 3.66c-.2.19-.51.19-.7 0l-3.71-3.66-3.72 3.66c-.1.1-.22.14-.35.14zm0 5.64c-.13 0-.25-.05-.35-.14l-4.07-4c-.2-.19-.2-.51 0-.71.19-.2.51-.2.71 0l3.72 3.66 3.72-3.66c.2-.19.51-.19.7 0l3.71 3.66 3.72-3.66c.2-.19.51-.19.7 0l3.72 3.66 3.72-3.66c.2-.19.51-.19.7 0l3.72 3.66 3.72-3.66c.2-.19.51-.19.7 0l3.72 3.66 3.72-3.66c.2-.19.51-.19.7 0l3.72 3.66 3.72-3.66c.2-.19.51-.19.7 0l3.72 3.66 3.72-3.66c.2-.19.51-.19.7 0l3.73 3.66 3.73-3.66c.2-.19.51-.19.71 0 .19.2.19.51 0 .71l-4.08 4c-.19.19-.5.19-.7 0l-3.73-3.66-3.72 3.66c-.2.19-.51.19-.7 0l-3.72-3.66-3.72 3.66c-.2.19-.51.19-.7 0l-3.72-3.66-3.72 3.66c-.2.19-.51.19-.7 0l-3.72-3.66-3.72 3.66c-.2.19-.51.19-.7 0l-3.72-3.66-3.72 3.66c-.2.19-.51.19-.7 0l-3.72-3.66-3.72 3.66c-.2.19-.51.19-.7 0l-3.71-3.66-3.72 3.66c-.1.1-.22.14-.35.14zm0 5.65c-.13 0-.25-.05-.35-.14l-4.07-4c-.2-.19-.2-.51 0-.71.19-.2.51-.2.71 0l3.72 3.66 3.72-3.66c.2-.19.51-.19.7 0l3.71 3.66 3.72-3.66c.2-.19.51-.19.7 0l3.72 3.66 3.72-3.66c.2-.19.51-.19.7 0l3.72 3.66 3.72-3.66c.2-.19.51-.19.7 0l3.72 3.66 3.72-3.66c.2-.19.51-.19.7 0l3.72 3.66 3.72-3.66c.2-.19.51-.19.7 0l3.72 3.66 3.72-3.66c.2-.19.51-.19.7 0l3.73 3.66 3.73-3.66c.2-.19.51-.19.71 0 .19.2.19.51 0 .71l-4.08 4c-.19.19-.5.19-.7 0l-3.73-3.66-3.72 3.66c-.2.19-.51.19-.7 0l-3.72-3.66-3.72 3.66c-.2.19-.51.19-.7 0l-3.72-3.66-3.72 3.66c-.2.19-.51.19-.7 0l-3.72-3.66-3.72 3.66c-.2.19-.51.19-.7 0l-3.72-3.66-3.72 3.66c-.2.19-.51.19-.7 0l-3.72-3.66-3.72 3.66c-.2.19-.51.19-.7 0l-3.71-3.66-3.72 3.66c-.1.1-.22.14-.35.14zm0 5.65c-.13 0-.25-.05-.35-.14l-4.07-4c-.2-.19-.2-.51 0-.71.19-.2.51-.2.71 0l3.72 3.66 3.72-3.66c.2-.19.51-.19.7 0l3.71 3.66 3.72-3.66c.2-.19.51-.19.7 0l3.72 3.66 3.72-3.66c.2-.19.51-.19.7 0l3.72 3.66 3.72-3.66c.2-.19.51-.19.7 0l3.72 3.66 3.72-3.66c.2-.19.51-.19.7 0l3.72 3.66 3.72-3.66c.2-.19.51-.19.7 0l3.72 3.66 3.72-3.66c.2-.19.51-.19.7 0l3.73 3.66 3.73-3.66c.2-.19.51-.19.71 0 .19.2.19.51 0 .71l-4.08 4c-.19.19-.5.19-.7 0l-3.73-3.66-3.72 3.66c-.2.19-.51.19-.7 0l-3.72-3.66-3.72 3.66c-.2.19-.51.19-.7 0l-3.72-3.66-3.72 3.66c-.2.19-.51.19-.7 0l-3.72-3.66-3.72 3.66c-.2.19-.51.19-.7 0l-3.72-3.66-3.72 3.66c-.2.19-.51.19-.7 0l-3.72-3.66-3.72 3.66c-.2.19-.51.19-.7 0l-3.71-3.66-3.72 3.66c-.1.1-.22.14-.35.14z"/></g><mask id="j" width="40" height="47" x="342" y="180" maskUnits="userSpaceOnUse" style="mask-type:luminance"><path fill="#fff" d="M381.46 180.92h-38.75v46.04h38.75z"/></mask><g fill="#22343C" mask="url(#j)"><path d="M378.76 183.68c-.13 0-.25-.05-.35-.14l-3.72-3.66-3.72 3.66c-.2.19-.51.19-.7 0l-3.72-3.66-3.72 3.66c-.2.19-.51.19-.7 0l-3.72-3.66-3.72 3.66c-.2.19-.51.19-.7 0l-3.72-3.66-3.72 3.66c-.2.19-.51.19-.7 0l-3.71-3.66-3.72 3.66c-.2.19-.51.19-.7 0l-4.07-4c-.2-.19-.2-.51 0-.71.19-.2.51-.2.71 0l3.72 3.66 3.72-3.66c.2-.19.51-.19.7 0l3.71 3.66 3.72-3.66c.2-.19.51-.19.7 0l3.72 3.66 3.72-3.66c.2-.19.51-.19.7 0l3.72 3.66 3.72-3.66c.2-.19.51-.19.7 0l3.72 3.66 3.72-3.66c.2-.19.51-.19.7 0l3.72 3.66 3.72-3.66c.2-.19.51-.19.7 0l3.72 3.66 3.72-3.66c.19-.19.51-.19.7 0l3.73 3.66 3.73-3.66c.2-.19.51-.19.71 0 .19.2.19.51 0 .71l-4.08 4c-.2.19-.51.19-.7 0l-3.73-3.66-3.72 3.66c-.2.19-.51.19-.7 0l-3.72-3.66-3.72 3.66c-.1.1-.22.14-.35.14zm0 5.64c-.13 0-.25-.05-.35-.14l-3.72-3.66-3.72 3.66c-.2.19-.51.19-.7 0l-3.72-3.66-3.72 3.66c-.2.19-.51.19-.7 0l-3.72-3.66-3.72 3.66c-.2.19-.51.19-.7 0l-3.72-3.66-3.72 3.66c-.2.19-.51.19-.7 0l-3.71-3.66-3.72 3.66c-.2.19-.51.19-.7 0l-4.07-4c-.2-.19-.2-.51 0-.71.19-.2.51-.2.71 0l3.72 3.66 3.72-3.66c.2-.19.51-.19.7 0l3.71 3.66 3.72-3.66c.2-.19.51-.19.7 0l3.72 3.66 3.72-3.66c.2-.19.51-.19.7 0l3.72 3.66 3.72-3.66c.2-.19.51-.19.7 0l3.72 3.66 3.72-3.66c.2-.19.51-.19.7 0l3.72 3.66 3.72-3.66c.2-.19.51-.19.7 0l3.72 3.66 3.72-3.66c.19-.19.51-.19.7 0l3.73 3.66 3.73-3.66c.2-.19.51-.19.71 0 .19.2.19.51 0 .71l-4.08 4c-.2.19-.51.19-.7 0l-3.73-3.66-3.72 3.66c-.2.19-.51.19-.7 0l-3.72-3.66-3.72 3.66c-.1.1-.22.14-.35.14zm0 5.65c-.13 0-.25-.05-.35-.14l-3.72-3.66-3.72 3.66c-.2.19-.51.19-.7 0l-3.72-3.66-3.72 3.66c-.2.19-.51.19-.7 0l-3.72-3.66-3.72 3.66c-.2.19-.51.19-.7 0l-3.72-3.66-3.72 3.66c-.2.19-.51.19-.7 0l-3.71-3.66-3.72 3.66c-.2.19-.51.19-.7 0l-4.07-4c-.2-.19-.2-.51 0-.71.19-.2.51-.2.71 0l3.72 3.66 3.72-3.66c.2-.19.51-.19.7 0l3.71 3.66 3.72-3.66c.2-.19.51-.19.7 0l3.72 3.66 3.72-3.66c.2-.19.51-.19.7 0l3.72 3.66 3.72-3.66c.2-.19.51-.19.7 0l3.72 3.66 3.72-3.66c.2-.19.51-.19.7 0l3.72 3.66 3.72-3.66c.2-.19.51-.19.7 0l3.72 3.66 3.72-3.66c.19-.19.51-.19.7 0l3.73 3.66 3.73-3.66c.2-.19.51-.19.71 0 .19.2.19.51 0 .71l-4.08 4c-.2.19-.51.19-.7 0l-3.73-3.66-3.72 3.66c-.2.19-.51.19-.7 0l-3.72-3.66-3.72 3.66c-.1.1-.22.14-.35.14zm0 5.65c-.13 0-.25-.05-.35-.14l-3.72-3.66-3.72 3.66c-.2.19-.51.19-.7 0l-3.72-3.66-3.72 3.66c-.2.19-.51.19-.7 0l-3.72-3.66-3.72 3.66c-.2.19-.51.19-.7 0l-3.72-3.66-3.72 3.66c-.2.19-.51.19-.7 0l-3.71-3.66-3.72 3.66c-.2.19-.51.19-.7 0l-4.07-4c-.2-.19-.2-.51 0-.71.19-.2.51-.2.71 0l3.72 3.66 3.72-3.66c.2-.19.51-.19.7 0l3.71 3.66 3.72-3.66c.2-.19.51-.19.7 0l3.72 3.66 3.72-3.66c.2-.19.51-.19.7 0l3.72 3.66 3.72-3.66c.2-.19.51-.19.7 0l3.72 3.66 3.72-3.66c.2-.19.51-.19.7 0l3.72 3.66 3.72-3.66c.2-.19.51-.19.7 0l3.72 3.66 3.72-3.66c.19-.19.51-.19.7 0l3.73 3.66 3.73-3.66c.2-.19.51-.19.71 0 .19.2.19.51 0 .71l-4.08 4c-.2.19-.51.19-.7 0l-3.73-3.66-3.72 3.66c-.2.19-.51.19-.7 0l-3.72-3.66-3.72 3.66c-.1.1-.22.14-.35.14zm0 5.64c-.13 0-.25-.05-.35-.14l-3.72-3.66-3.72 3.66c-.2.19-.51.19-.7 0l-3.72-3.66-3.72 3.66c-.2.19-.51.19-.7 0l-3.72-3.66-3.72 3.66c-.2.19-.51.19-.7 0l-3.72-3.66-3.72 3.66c-.2.19-.51.19-.7 0l-3.71-3.66-3.72 3.66c-.2.19-.51.19-.7 0l-4.07-4c-.2-.19-.2-.51 0-.71.19-.2.51-.2.71 0l3.72 3.66 3.72-3.66c.2-.19.51-.19.7 0l3.71 3.66 3.72-3.66c.2-.19.51-.19.7 0l3.72 3.66 3.72-3.66c.2-.19.51-.19.7 0l3.72 3.66 3.72-3.66c.2-.19.51-.19.7 0l3.72 3.66 3.72-3.66c.2-.19.51-.19.7 0l3.72 3.66 3.72-3.66c.2-.19.51-.19.7 0l3.72 3.66 3.72-3.66c.19-.19.51-.19.7 0l3.73 3.66 3.73-3.66c.2-.19.51-.19.71 0 .19.2.19.51 0 .71l-4.08 4c-.2.19-.51.19-.7 0l-3.73-3.66-3.72 3.66c-.2.19-.51.19-.7 0l-3.72-3.66-3.72 3.66c-.1.1-.22.14-.35.14zm0 5.65c-.13 0-.25-.05-.35-.14l-3.72-3.66-3.72 3.66c-.2.19-.51.19-.7 0l-3.72-3.66-3.72 3.66c-.2.19-.51.19-.7 0l-3.72-3.66-3.72 3.66c-.2.19-.51.19-.7 0l-3.72-3.66-3.72 3.66c-.2.19-.51.19-.7 0l-3.71-3.66-3.72 3.66c-.2.19-.51.19-.7 0l-4.07-4c-.2-.19-.2-.51 0-.71.19-.2.51-.2.71 0l3.72 3.66 3.72-3.66c.2-.19.51-.19.7 0l3.71 3.66 3.72-3.66c.2-.19.51-.19.7 0l3.72 3.66 3.72-3.66c.2-.19.51-.19.7 0l3.72 3.66 3.72-3.66c.2-.19.51-.19.7 0l3.72 3.66 3.72-3.66c.2-.19.51-.19.7 0l3.72 3.66 3.72-3.66c.2-.19.51-.19.7 0l3.72 3.66 3.72-3.66c.19-.19.51-.19.7 0l3.73 3.66 3.73-3.66c.2-.19.51-.19.71 0 .19.2.19.51 0 .71l-4.08 4c-.2.19-.51.19-.7 0l-3.73-3.66-3.72 3.66c-.2.19-.51.19-.7 0l-3.72-3.66-3.72 3.66c-.1.1-.22.14-.35.14zm0 5.65c-.13 0-.25-.05-.35-.14l-3.72-3.66-3.72 3.66c-.2.19-.51.19-.7 0l-3.72-3.66-3.72 3.66c-.2.19-.51.19-.7 0l-3.72-3.66-3.72 3.66c-.2.19-.51.19-.7 0l-3.72-3.66-3.72 3.66c-.2.19-.51.19-.7 0l-3.71-3.66-3.72 3.66c-.2.19-.51.19-.7 0l-4.07-4c-.2-.19-.2-.51 0-.71.19-.2.51-.2.71 0l3.72 3.66 3.72-3.66c.2-.19.51-.19.7 0l3.71 3.66 3.72-3.66c.2-.19.51-.19.7 0l3.72 3.66 3.72-3.66c.2-.19.51-.19.7 0l3.72 3.66 3.72-3.66c.2-.19.51-.19.7 0l3.72 3.66 3.72-3.66c.2-.19.51-.19.7 0l3.72 3.66 3.72-3.66c.2-.19.51-.19.7 0l3.72 3.66 3.72-3.66c.19-.19.51-.19.7 0l3.73 3.66 3.73-3.66c.2-.19.51-.19.71 0 .19.2.19.51 0 .71l-4.08 4c-.2.19-.51.19-.7 0l-3.73-3.66-3.72 3.66c-.2.19-.51.19-.7 0l-3.72-3.66-3.72 3.66c-.1.1-.22.14-.35.14zm0 5.65c-.13 0-.25-.05-.35-.14l-3.72-3.66-3.72 3.66c-.2.19-.51.19-.7 0l-3.72-3.66-3.72 3.66c-.2.19-.51.19-.7 0l-3.72-3.66-3.72 3.66c-.2.19-.51.19-.7 0l-3.72-3.66-3.72 3.66c-.2.19-.51.19-.7 0l-3.71-3.66-3.72 3.66c-.2.19-.51.19-.7 0l-4.07-4c-.2-.19-.2-.51 0-.71.19-.2.51-.2.71 0l3.72 3.66 3.72-3.66c.2-.19.51-.19.7 0l3.71 3.66 3.72-3.66c.2-.19.51-.19.7 0l3.72 3.66 3.72-3.66c.2-.19.51-.19.7 0l3.72 3.66 3.72-3.66c.2-.19.51-.19.7 0l3.72 3.66 3.72-3.66c.2-.19.51-.19.7 0l3.72 3.66 3.72-3.66c.2-.19.51-.19.7 0l3.72 3.66 3.72-3.66c.19-.19.51-.19.7 0l3.73 3.66 3.73-3.66c.2-.19.51-.19.71 0 .19.2.19.51 0 .71l-4.08 4c-.2.19-.51.19-.7 0l-3.73-3.66-3.72 3.66c-.2.19-.51.19-.7 0l-3.72-3.66-3.72 3.66c-.1.1-.22.14-.35.14zm0 5.64c-.13 0-.25-.05-.35-.14l-3.72-3.66-3.72 3.66c-.2.19-.51.19-.7 0l-3.72-3.66-3.72 3.66c-.2.19-.51.19-.7 0l-3.72-3.66-3.72 3.66c-.2.19-.51.19-.7 0l-3.72-3.66-3.72 3.66c-.2.19-.51.19-.7 0l-3.71-3.66-3.72 3.66c-.2.19-.51.19-.7 0l-4.07-4c-.2-.19-.2-.51 0-.71.19-.2.51-.2.71 0l3.72 3.66 3.72-3.66c.2-.19.51-.19.7 0l3.71 3.66 3.72-3.66c.2-.19.51-.19.7 0l3.72 3.66 3.72-3.66c.2-.19.51-.19.7 0l3.72 3.66 3.72-3.66c.2-.19.51-.19.7 0l3.72 3.66 3.72-3.66c.2-.19.51-.19.7 0l3.72 3.66 3.72-3.66c.2-.19.51-.19.7 0l3.72 3.66 3.72-3.66c.19-.19.51-.19.7 0l3.73 3.66 3.73-3.66c.2-.19.51-.19.71 0 .19.2.19.51 0 .71l-4.08 4c-.2.19-.51.19-.7 0l-3.73-3.66-3.72 3.66c-.2.19-.51.19-.7 0l-3.72-3.66-3.72 3.66c-.1.1-.22.14-.35.14z"/></g></svg>
