<svg xmlns="http://www.w3.org/2000/svg" width="292" height="260" fill="none"><path fill="#22343C" d="M.5 4A3.5 3.5 0 0 1 4 .5h284a3.5 3.5 0 0 1 3.5 3.5v252a3.5 3.5 0 0 1-3.5 3.5H4A3.5 3.5 0 0 1 .5 256z"/><path stroke="#6A7A81" d="M.5 4A3.5 3.5 0 0 1 4 .5h284a3.5 3.5 0 0 1 3.5 3.5v252a3.5 3.5 0 0 1-3.5 3.5H4A3.5 3.5 0 0 1 .5 256z"/><path fill="#1C7D5D" d="M91.11 37.5H36.5v37.04h54.61z"/><path fill="#fff" d="M91.61 75.04H36V37h55.61zm-54.61-1h53.61V38H37z"/><path fill="#E6F7FF" d="M91.11 74.54H36.5v37.04h54.61z"/><path fill="#fff" d="M91.61 112.09H36V74.05h55.61zm-54.61-1h53.61V75.05H37z"/><path fill="#1C9B71" d="M91.11 111.51H36.5v37.04h54.61z"/><path fill="#fff" d="M91.61 149.06H36v-38.04h55.61zm-54.61-1h53.61v-36.04H37z"/><path fill="#34DAA3" d="M91.11 148.49H36.5v37.04h54.61z"/><path fill="#fff" d="M91.61 186.03H36v-38.04h55.61zm-54.61-1h53.61v-36.04H37z"/><path fill="#fff" d="M91.11 185.46H36.5v37.04h54.61z"/><path fill="#fff" d="M91.61 223H36v-38.04h55.61zM37 222h53.61v-36.04H37z"/><path fill="#66D1FF" d="M145.91 37.5H91.3v37.04h54.61z"/><path fill="#fff" d="M146.41 75.04H90.8V37h55.61zm-54.61-1h53.61V38H91.8z"/><path fill="#1C7D5D" d="M145.91 74.54H91.3v37.04h54.61z"/><path fill="#fff" d="M146.41 112.09H90.8V74.05h55.61zm-54.61-1h53.61V75.05H91.8z"/><path fill="#00ABF5" d="M145.91 111.51H91.3v37.04h54.61z"/><path fill="#fff" d="M146.41 149.06H90.8v-38.04h55.61zm-54.61-1h53.61v-36.04H91.8z"/><path fill="#1C7D5D" d="M145.91 148.49H91.3v37.04h54.61z"/><path fill="#fff" d="M146.41 186.03H90.8v-38.04h55.61zm-54.61-1h53.61v-36.04H91.8z"/><path fill="#00ABF5" d="M145.91 185.46H91.3v37.04h54.61z"/><path fill="#fff" d="M146.41 223H90.8v-38.04h55.61zm-54.61-1h53.61v-36.04H91.8z"/><path fill="#0079AD" d="M200.7 37.5h-54.61v37.04h54.61z"/><path fill="#fff" d="M201.2 75.04h-55.61V37h55.61zm-54.61-1h53.61V38h-53.61z"/><path fill="#1C9B71" d="M200.7 74.54h-54.61v37.04h54.61z"/><path fill="#fff" d="M201.2 112.09h-55.61V74.05h55.61zm-54.61-1h53.61V75.05h-53.61z"/><path fill="#29BC8B" d="M200.7 111.51h-54.61v37.04h54.61z"/><path fill="#fff" d="M201.2 149.06h-55.61v-38.04h55.61zm-54.61-1h53.61v-36.04h-53.61z"/><path fill="#0099DB" d="M200.7 148.49h-54.61v37.04h54.61z"/><path fill="#fff" d="M201.2 186.03h-55.61v-38.04h55.61zm-54.61-1h53.61v-36.04h-53.61z"/><path fill="#0079AD" d="M200.7 185.46h-54.61v37.04h54.61z"/><path fill="#fff" d="M201.2 223h-55.61v-38.04h55.61zm-54.61-1h53.61v-36.04h-53.61z"/><path fill="#00608A" d="M255.5 37.5h-54.61v37.04h54.61z"/><path fill="#fff" d="M256 75.04h-55.61V37H256zm-54.61-1H255V38h-53.61z"/><path fill="#29BC8B" d="M255.5 74.54h-54.61v37.04h54.61z"/><path fill="#fff" d="M256 112.09h-55.61V74.05H256zm-54.61-1H255V75.05h-53.61z"/><path fill="#00608A" d="M255.5 111.51h-54.61v37.04h54.61z"/><path fill="#fff" d="M256 149.06h-55.61v-38.04H256zm-54.61-1H255v-36.04h-53.61z"/><path fill="#29BC8B" d="M255.5 148.49h-54.61v37.04h54.61z"/><path fill="#fff" d="M256 186.03h-55.61v-38.04H256zm-54.61-1H255v-36.04h-53.61z"/><path fill="#00608A" d="M255.5 185.46h-54.61v37.04h54.61z"/><path fill="#fff" d="M256 223h-55.61v-38.04H256zm-54.61-1H255v-36.04h-53.61z"/></svg>