<svg xmlns="http://www.w3.org/2000/svg" width="450" height="260" fill="none"><path fill="#22343C" d="M.5 4A3.5 3.5 0 0 1 4 .5h442a3.5 3.5 0 0 1 3.5 3.5v252a3.5 3.5 0 0 1-3.5 3.5H4A3.5 3.5 0 0 1 .5 256z"/><path stroke="#6A7A81" d="M.5 4A3.5 3.5 0 0 1 4 .5h442a3.5 3.5 0 0 1 3.5 3.5v252a3.5 3.5 0 0 1-3.5 3.5H4A3.5 3.5 0 0 1 .5 256z"/><path fill="#0079AD" d="M101.75 79.96V49.35H38.19v30.61z"/><path fill="#fff" d="M102.26 80.46H37.7V48.85h64.56zm-63.56-1h62.56V49.85H38.7z"/><path fill="#0099DB" d="M160.4 79.96V49.35h-59.44v30.61z"/><path fill="#fff" d="M160.9 80.46h-60.44V48.85h60.44zm-59.44-1h58.44V49.85h-58.44z"/><path fill="#2EC0FF" d="M198.19 79.96V49.35h-46.46v30.61z"/><path fill="#fff" d="M198.7 80.46h-47.46V48.85h47.46zm-46.46-1h45.46V49.85h-45.46z"/><path fill="#66D1FF" d="M221.6 79.96V49.35h-25.12v30.61z"/><path fill="#fff" d="M222.1 80.46h-26.12V48.85h26.12zm-25.12-1h24.12V49.85h-24.12z"/><path fill="#0099DB" d="M181.9 209.79v-30.61h-16.92v30.61z"/><path fill="#fff" d="M182.39 210.29h-17.92v-31.61h17.92zm-16.92-1h15.92v-29.61h-15.92z"/><path fill="#0079AD" d="M165.77 209.78v-30.61H62.65v30.61z"/><path fill="#fff" d="M166.27 210.29H62.15v-31.61h104.12zm-103.12-1h102.12v-29.61H63.15z"/><path fill="#2EC0FF" d="M198.36 209.79v-30.61h-25.07v30.61z"/><path fill="#fff" d="M198.87 210.29H172.8v-31.61h26.07zm-25.07-1h24.07v-29.61H173.8z"/><path fill="#66D1FF" d="M221.54 209.78v-30.61H197.5v30.61z"/><path fill="#fff" d="M222.04 210.29H197v-31.61h25.04zm-24.04-1h23.04v-29.61H198z"/><path fill="#0099DB" d="M201.64 123.23V92.62h-10.33v30.61z"/><path fill="#fff" d="M202.14 123.74h-11.33V92.13h11.33zm-10.33-1h9.33V93.13h-9.33z"/><path fill="#0079AD" d="M191.57 123.24V92.63h-27.36v30.61z"/><path fill="#fff" d="M192.07 123.74h-28.36V92.13h28.36zm-27.36-1h26.36V93.13h-26.36z"/><path fill="#2EC0FF" d="M203.41 123.24V92.63h-4.51v30.61z"/><path fill="#fff" d="M203.91 123.74h-5.51V92.13h5.51zm-4.51-1h3.51V93.13h-3.51z"/><path fill="#66D1FF" d="M221.64 123.23V92.62h-18.51v30.61z"/><path fill="#fff" d="M222.22 123.74h-19.59V92.13h19.59zm-18.59-1h17.36V93.13h-17.36z"/><path fill="#0099DB" d="M142.5 166.51V135.9h-8.41v30.61z"/><path fill="#fff" d="M143 167.01h-9.41V135.4H143zm-8.41-1H142V136.4h-7.41z"/><path fill="#0079AD" d="M134.34 166.51V135.9h-27.36v30.61z"/><path fill="#fff" d="M134.85 167.01h-28.36V135.4h28.36zm-27.36-1h26.36V136.4h-26.36z"/><path fill="#2EC0FF" d="M153.65 166.51V135.9h-13.89v30.61z"/><path fill="#fff" d="M154.14 167.01h-14.89V135.4h14.89zm-13.89-1h12.89V136.4h-12.89z"/><path fill="#66D1FF" d="M220.5 166.52v-30.61h-67.13v30.61z"/><path fill="#fff" d="M220.99 167.01h-68.13V135.4h68.13zm-67.13-1h68.1V136.4h-68.1z"/><path fill="#1C9B71" d="M260.24 49.35v30.61h36.86V49.35z"/><path fill="#fff" d="M297.6 80.46h-37.86V48.85h37.86zm-36.86-1h35.86V49.85h-35.86z"/><path fill="#1C7D5D" d="M296.61 49.35v30.61h36.86V49.35z"/><path fill="#fff" d="M333.96 80.46H296.1V48.85h37.86zm-36.86-1h35.86V49.85H297.1z"/><path fill="#29BC8B" d="M236.8 49.35v30.61h28.81V49.35z"/><path fill="#fff" d="M266.11 80.46H236.3V48.85h29.81zm-28.81-1h27.81V49.85H237.3z"/><path fill="#6AE4BB" d="M221.53 49.35v30.61h15.8V49.35z"/><path fill="#fff" d="M237.84 80.46h-16.8V48.85h16.8zm-15.8-1h14.8V49.85h-14.8z"/><path fill="#1C9B71" d="M235.88 135.9v30.61h33.97V135.9z"/><path fill="#fff" d="M270.35 167.01h-34.97V135.4h34.97zm-33.97-1h32.97V136.4h-32.97z"/><path fill="#1C7D5D" d="M269.35 135.91v30.61h64.11v-30.61z"/><path fill="#fff" d="M333.96 167.01h-65.1V135.4h65.1zm-64.1-1h63.1V136.4h-63.1z"/><path fill="#29BC8B" d="M233.28 135.9v30.61h7.98V135.9z"/><path fill="#fff" d="M241.75 167.01h-8.98V135.4h8.98zm-7.98-1h6.98V136.4h-6.98z"/><path fill="#6AE4BB" d="M222.38 135.9v30.61h10.89V135.9z"/><path fill="#fff" d="M233.78 167.01h-11.89V135.4h11.89zm-11.73-1h10.73V136.4h-10.73z"/><path fill="#1C9B71" d="M302.97 179.18v30.61h42.79v-30.61z"/><path fill="#fff" d="M346.26 210.29h-43.79v-31.61h43.79zm-42.79-1h41.79v-29.61h-41.79z"/><path fill="#1C7D5D" d="M336.73 179.17v30.61h41.02v-30.61z"/><path fill="#fff" d="M378.25 210.29h-42.02v-31.61h42.02zm-41.02-1h40.02v-29.61h-40.02z"/><path fill="#29BC8B" d="M234.66 179.17v30.61h74.24v-30.61z"/><path fill="#fff" d="M309.4 210.29h-75.24v-31.61h75.24zm-74.24-1h73.24v-29.61h-73.24z"/><path fill="#6AE4BB" d="M221.54 179.18v30.61h13.72v-30.61z"/><path fill="#fff" d="M235.76 210.29h-14.72v-31.61h14.72zm-13.72-1h12.72v-29.61h-12.72z"/><path fill="#1C9B71" d="M285.57 92.63v30.61h98.37V92.63z"/><path fill="#fff" d="M384.44 123.74h-99.37V92.13h99.37zm-98.37-1h97.37V93.13h-97.37z"/><path fill="#1C7D5D" d="M383.11 92.63v30.61h24.49V92.63z"/><path fill="#fff" d="M408.1 123.74h-25.49V92.13h25.49zm-24.49-1h23.49V93.13h-23.49z"/><path fill="#29BC8B" d="M278.31 92.63v30.61h16.32V92.63z"/><path fill="#fff" d="M295.13 123.74h-17.32V92.13h17.32zm-16.32-1h15.32V93.13h-15.32z"/><path fill="#6AE4BB" d="M221.54 92.63v30.61h57.69V92.63z"/><path fill="#fff" d="M279.73 123.74h-58.69V92.13h58.69zm-57.69-1h56.69V93.13h-56.69z"/><path fill="#fff" d="M221.54 221.15c-.55 0-1-.45-1-1V38.27c0-.55.45-1 1-1s1 .45 1 1v181.87c0 .55-.45 1-1 1z"/><mask id="a" width="85" height="85" x="109" y="4" maskUnits="userSpaceOnUse" style="mask-type:luminance"><path fill="#fff" d="M151.73 88.29c23.196 0 42-18.804 42-42s-18.804-42-42-42c-23.195 0-42 18.804-42 42s18.805 42 42 42"/></mask><g mask="url(#a)"><path fill="#0099DB" d="M174.101 114.38v-79h-153.4v79z"/><path fill="#fff" d="M175.1 115.38H19.7v-81h155.4zm-153.4-2h151.4v-77H21.7z"/><path fill="#2EC0FF" d="M271.641 114.38v-79h-119.91v79z"/><path fill="#fff" d="M272.64 115.38H150.73v-81h121.91zm-119.91-2h117.91v-77H152.73z"/></g><path fill="#fff" d="M151.73 89.29c-23.71 0-43-19.29-43-43s19.29-43 43-43 43 19.29 43 43-19.29 43-43 43m0-84c-22.61 0-41 18.39-41 41s18.39 41 41 41 41-18.39 41-41-18.39-41-41-41"/><path fill="#22343C" d="M151.73 3.25c23.71 0 43 19.29 43 43s-19.29 43-43 43-43-19.29-43-43 19.29-43 43-43m0-2c-24.81 0-45 20.19-45 45s20.19 45 45 45 45-20.19 45-45-20.19-45-45-45"/></svg>