<svg xmlns="http://www.w3.org/2000/svg" width="450" height="260" fill="none"><path fill="#22343C" d="M.5 4A3.5 3.5 0 0 1 4 .5h442a3.5 3.5 0 0 1 3.5 3.5v252a3.5 3.5 0 0 1-3.5 3.5H4A3.5 3.5 0 0 1 .5 256z"/><path stroke="#6A7A81" d="M.5 4A3.5 3.5 0 0 1 4 .5h442a3.5 3.5 0 0 1 3.5 3.5v252a3.5 3.5 0 0 1-3.5 3.5H4A3.5 3.5 0 0 1 .5 256z"/><path fill="#66D1FF" d="M177.02 92.95V70.41H37.51v22.54z"/><path fill="#2EC0FF" d="M83.34 130.08v-22.54H37.51v22.54z"/><path fill="#00ABF5" d="M407.6 167.2v-22.54H37.5v22.54z"/><path fill="#009ADB" d="M207.63 204.32v-22.54H38.2v22.54z"/><path fill="#fff" d="M177.51 70.42h-1v22.54h1zm-93.84 37.12h-1v22.54h1zm324.44 37.12h-1v22.54h1zm-199.98 37.12h-1v22.54h1z"/><path fill="#fff" d="M410.82 219.51H36.58c-.55 0-1-.45-1-1V38.27c0-.55.45-1 1-1s1 .45 1 1v179.24h373.24c.55 0 1 .45 1 1s-.45 1-1 1"/></svg>