<svg xmlns="http://www.w3.org/2000/svg" width="450" height="260" fill="none"><path fill="#22343C" d="M.5 4A3.5 3.5 0 0 1 4 .5h442a3.5 3.5 0 0 1 3.5 3.5v252a3.5 3.5 0 0 1-3.5 3.5H4A3.5 3.5 0 0 1 .5 256z"/><path stroke="#6A7A81" d="M.5 4A3.5 3.5 0 0 1 4 .5h442a3.5 3.5 0 0 1 3.5 3.5v252a3.5 3.5 0 0 1-3.5 3.5H4A3.5 3.5 0 0 1 .5 256z"/><path fill="#859399" d="M77.83 177.86H54.65v40.38h23.18zm39.85-13.33H94.5v53.71h23.18zm39.86 17.79h-23.18v35.92h23.18z"/><path fill="#FFDB24" d="M197.39 113.83h-23.18v104.4h23.18z"/><path fill="#FF8F3D" d="M237.25 81.71h-23.18v136.53h23.18z"/><path fill="#859399" d="M277.1 167.78h-23.18v50.45h23.18z"/><path fill="#FF5233" d="M316.96 37.96h-23.18v180.28h23.18z"/><path fill="#859399" d="M356.81 180.05h-23.18v38.18h23.18zm39.86 9.29h-23.18v28.89h23.18z"/><path fill="#fff" d="M410.82 219.51H36.58c-.55 0-1-.45-1-1V38.27c0-.55.45-1 1-1s1 .45 1 1v179.24h373.24c.55 0 1 .45 1 1s-.45 1-1 1"/><path fill="#fff" d="M38.39 143.76h-2v1h2zm359.03 1h-3.99v-1h3.99zm-11.97 0h-3.99v-1h3.99zm-11.97 0h-3.99v-1h3.99zm-11.97 0h-3.99v-1h3.99zm-11.97 0h-3.99v-1h3.99zm-11.97 0h-3.99v-1h3.99zm-11.97 0h-3.99v-1h3.99zm-11.97 0h-3.99v-1h3.99zm-11.97 0h-3.99v-1h3.99zm-11.97 0h-3.99v-1h3.99zm-11.97 0h-3.99v-1h3.99zm-11.97 0h-3.99v-1h3.99zm-11.97 0h-3.99v-1h3.99zm-11.97 0h-3.99v-1h3.99zm-11.97 0h-3.99v-1h3.99zm-11.97 0h-3.99v-1h3.99zm-11.97 0h-3.99v-1h3.99zm-11.97 0h-3.99v-1h3.99zm-11.97 0h-3.99v-1h3.99zm-11.97 0H166v-1h3.99zm-11.97 0h-3.99v-1h3.99zm-11.97 0h-3.99v-1h3.99zm-11.97 0h-3.99v-1h3.99zm-11.97 0h-3.99v-1h3.99zm-11.97 0h-3.99v-1h3.99zm-11.97 0h-3.99v-1h3.99zm-11.97 0h-3.99v-1h3.99zm-11.97 0h-3.99v-1h3.99zm-11.97 0h-3.99v-1h3.99zm-11.97 0H46.3v-1h3.99zm357.11-1h-2v1h2z"/></svg>