<svg xmlns="http://www.w3.org/2000/svg" width="450" height="260" fill="none"><path fill="#fff" d="M.5 4A3.5 3.5 0 0 1 4 .5h442a3.5 3.5 0 0 1 3.5 3.5v252a3.5 3.5 0 0 1-3.5 3.5H4A3.5 3.5 0 0 1 .5 256z"/><path stroke="#CBD4D8" d="M.5 4A3.5 3.5 0 0 1 4 .5h442a3.5 3.5 0 0 1 3.5 3.5v252a3.5 3.5 0 0 1-3.5 3.5H4A3.5 3.5 0 0 1 .5 256z"/><path fill="#0079AD" d="M322.17 68.23H197.19c-2.28 0-4.14-1.86-4.14-4.14V37.72c0-2.28 1.86-4.14 4.14-4.14h124.98c2.28 0 4.14 1.86 4.14 4.14v26.37c0 2.28-1.86 4.14-4.14 4.14M197.19 35.58c-1.18 0-2.14.96-2.14 2.14v26.37c0 1.18.96 2.14 2.14 2.14h124.98c1.18 0 2.14-.96 2.14-2.14V37.72c0-1.18-.96-2.14-2.14-2.14z"/><path fill="#22343C" d="M206.51 46.5h-4.07v-1.69h9.94v1.69h-4.05v10.67h-1.82zm14.37 1.6c.53.3.94.72 1.23 1.27s.44 1.17.44 1.88v5.92h-1.73v-5.62c0-.7-.2-1.26-.59-1.7-.4-.44-.91-.66-1.55-.66-.47 0-.9.1-1.3.3s-.71.46-.94.8-.34.7-.34 1.1v5.78h-1.78V44.59h1.78v4.64a3.1 3.1 0 0 1 1.21-1.14c.53-.29 1.12-.44 1.75-.44q1.005 0 1.8.45zm4.52-2.1c-.21-.22-.32-.47-.32-.76s.11-.54.32-.75.46-.32.76-.32.54.11.75.32.32.46.32.75-.11.54-.32.76-.46.32-.75.32-.55-.11-.76-.32m-.13 1.87h1.78v9.31h-1.78zm5.67 9.16c-.7-.24-1.32-.58-1.87-1.03l.81-1.22c.52.38 1.04.67 1.58.87s1.07.3 1.58.3c.55 0 .99-.11 1.32-.34s.5-.53.5-.92-.17-.69-.52-.89-.89-.4-1.64-.6c-1.14-.32-1.96-.68-2.46-1.06s-.75-.94-.75-1.66c0-.85.32-1.54.95-2.05.63-.52 1.44-.77 2.44-.77.59 0 1.18.1 1.78.29s1.15.46 1.66.79l-.74 1.26q-1.44-.9-2.7-.9c-.49 0-.9.11-1.21.32s-.48.5-.48.87c0 .24.07.43.22.58.14.14.36.27.65.39s.74.27 1.35.46c.67.2 1.22.4 1.65.58.43.19.78.46 1.07.82s.43.83.43 1.4c0 .88-.33 1.58-.98 2.1q-.975.78-2.55.78c-.7 0-1.39-.12-2.09-.36zM243.78 46c-.21-.22-.31-.47-.31-.76s.1-.54.31-.75.47-.32.77-.32.54.11.75.32.31.46.31.75-.1.54-.31.76-.46.32-.75.32-.56-.11-.77-.32m-.13 1.87h1.78v9.31h-1.78zm5.67 9.16c-.7-.24-1.32-.58-1.87-1.03l.81-1.22c.52.38 1.04.67 1.58.87s1.07.3 1.58.3c.55 0 .99-.11 1.32-.34s.5-.53.5-.92-.17-.69-.52-.89-.89-.4-1.64-.6c-1.14-.32-1.96-.68-2.46-1.06s-.75-.94-.75-1.66c0-.85.31-1.54.94-2.05.63-.52 1.44-.77 2.44-.77.59 0 1.18.1 1.78.29s1.15.46 1.66.79l-.74 1.26q-1.44-.9-2.7-.9c-.49 0-.9.11-1.21.32q-.48.315-.48.87c0 .24.07.43.22.58s.36.27.65.39.74.27 1.35.46c.67.2 1.22.4 1.65.58.43.19.78.46 1.07.82s.43.83.43 1.4c0 .88-.33 1.58-.98 2.1q-.975.78-2.55.78c-.7 0-1.39-.12-2.09-.36zm19.09-8.31c.68.71 1.03 1.65 1.03 2.83v5.63h-1.75v-1.26c-.34.47-.79.83-1.35 1.09s-1.15.39-1.75.39c-1 0-1.82-.27-2.47-.81s-.97-1.26-.97-2.16c0-.6.17-1.14.5-1.61s.78-.84 1.35-1.1 1.2-.39 1.88-.39c.89 0 1.82.17 2.81.5v-.29c0-.68-.19-1.26-.56-1.72s-.98-.69-1.84-.69c-.73 0-1.6.26-2.61.77l-.67-1.31c1.25-.62 2.42-.94 3.53-.94 1.22 0 2.18.35 2.86 1.06zm-1.73 6.81c.53-.31.86-.73 1.01-1.27v-1.24c-.79-.24-1.64-.36-2.54-.36-.64 0-1.18.16-1.62.49-.44.32-.67.73-.67 1.22s.2.88.58 1.18.89.44 1.5.44 1.2-.15 1.73-.46zm10.41-10.94h1.78v12.58h-1.78zm11.09 4.13c.68.71 1.03 1.65 1.03 2.83v5.63h-1.75v-1.26c-.34.47-.79.83-1.35 1.09s-1.15.39-1.75.39c-1 0-1.82-.27-2.47-.81s-.97-1.26-.97-2.16c0-.6.16-1.14.49-1.61s.78-.84 1.35-1.1 1.2-.39 1.88-.39c.89 0 1.82.17 2.81.5v-.29c0-.68-.19-1.26-.56-1.72s-.98-.69-1.84-.69c-.73 0-1.6.26-2.61.77l-.67-1.31c1.25-.62 2.42-.94 3.53-.94 1.22 0 2.18.35 2.86 1.06zm-1.73 6.81c.53-.31.86-.73 1.01-1.27v-1.24c-.79-.24-1.64-.36-2.54-.36-.64 0-1.18.16-1.62.49-.44.32-.67.73-.67 1.22s.19.88.58 1.18c.39.29.89.44 1.5.44s1.2-.15 1.73-.46zm12.78-7.26c.65.41 1.16.99 1.53 1.73s.56 1.58.56 2.51-.19 1.78-.56 2.52q-.555 1.11-1.53 1.74c-.65.41-1.38.62-2.18.62-.72 0-1.37-.16-1.94-.49-.58-.32-1.04-.79-1.4-1.39v1.66h-1.78V44.59h1.78v4.93c.36-.6.83-1.06 1.4-1.39s1.22-.49 1.94-.49c.8 0 1.53.21 2.18.62zm-1.12 7.15c.44-.28.79-.68 1.04-1.19s.37-1.08.37-1.72-.12-1.21-.37-1.71-.59-.9-1.04-1.18c-.44-.28-.94-.42-1.49-.42s-1.05.14-1.49.42-.78.67-1.03 1.18c-.25.5-.37 1.07-.37 1.71s.12 1.21.37 1.72.59.91 1.03 1.19.93.42 1.49.42a2.7 2.7 0 0 0 1.49-.42m11.05.19c.52-.2.93-.46 1.21-.76l1.04 1.1c-.4.43-.95.78-1.67 1.04s-1.41.4-2.1.4c-.85 0-1.65-.21-2.38-.63-.74-.42-1.33-1-1.76-1.75-.44-.75-.66-1.59-.66-2.51s.21-1.74.63-2.48.99-1.32 1.7-1.74 1.5-.63 2.35-.63c.94 0 1.74.22 2.42.67.68.44 1.19 1.07 1.55 1.89.35.82.53 1.78.53 2.88h-7.43c.11.84.44 1.52.98 2.04q.825.78 2.04.78c.5 0 1.02-.1 1.54-.31zm-3.53-5.76c-.55.48-.88 1.12-1.02 1.93h5.69c-.1-.78-.38-1.42-.85-1.91s-1.1-.74-1.88-.74-1.39.24-1.94.72m8.49-5.26h1.78v12.58h-1.78z"/><path fill="#000" d="m145.56 77.34-1.43.91-.5-.88 2.17-1.48h.97v8.24h-1.21v-6.8zm4.76 6.4c-.54-.36-.95-.87-1.25-1.52s-.45-1.38-.45-2.21.15-1.56.45-2.2.72-1.15 1.25-1.51 1.14-.55 1.82-.55 1.27.18 1.81.55.95.87 1.25 1.51.45 1.38.45 2.2-.15 1.56-.45 2.21-.71 1.15-1.24 1.52c-.53.36-1.13.55-1.81.55s-1.29-.18-1.82-.55zm3-.97c.34-.27.61-.64.8-1.12s.29-1.02.29-1.63-.1-1.15-.29-1.63-.46-.85-.8-1.12-.74-.4-1.18-.4-.83.13-1.18.4-.62.64-.82 1.12-.29 1.02-.29 1.63.1 1.15.29 1.63c.2.48.47.85.82 1.12s.74.4 1.18.4.83-.13 1.18-.4m5.38.97c-.54-.36-.95-.87-1.25-1.52s-.45-1.38-.45-2.21.15-1.56.45-2.2.72-1.15 1.25-1.51 1.14-.55 1.82-.55 1.27.18 1.81.55.95.87 1.25 1.51.45 1.38.45 2.2-.15 1.56-.45 2.21-.71 1.15-1.24 1.52c-.53.36-1.13.55-1.81.55s-1.29-.18-1.82-.55zm3-.97c.34-.27.61-.64.8-1.12s.29-1.02.29-1.63-.1-1.15-.29-1.63-.46-.85-.8-1.12-.74-.4-1.18-.4-.83.13-1.18.4-.62.64-.82 1.12-.29 1.02-.29 1.63.1 1.15.29 1.63c.2.48.47.85.82 1.12s.74.4 1.18.4.83-.13 1.18-.4m-83.13 47.3c.42.21.75.51 1 .89.25.39.37.85.37 1.37s-.13.99-.38 1.42-.61.76-1.07 1-.97.36-1.54.36c-1.1 0-1.91-.38-2.45-1.13-.54-.76-.8-1.76-.8-3.01 0-.82.15-1.57.45-2.24s.72-1.19 1.25-1.58c.53-.38 1.13-.58 1.78-.58.9 0 1.7.32 2.4.95l-.62.94c-.28-.26-.56-.45-.84-.59s-.6-.2-.95-.2c-.41 0-.78.14-1.12.41-.34.28-.6.65-.8 1.13s-.3 1.02-.32 1.62c.25-.34.57-.61.97-.8s.82-.28 1.27-.28c.51 0 .98.1 1.4.31zm-.71 3.77c.27-.16.48-.37.62-.63.15-.26.22-.53.22-.81 0-.49-.17-.88-.52-1.18s-.78-.44-1.29-.44c-.46 0-.85.12-1.19.36s-.56.56-.67.96c.1.62.31 1.11.62 1.46s.73.52 1.26.52c.36 0 .67-.08.94-.24zm5.02.72c-.54-.36-.95-.87-1.25-1.52s-.45-1.38-.45-2.21.15-1.56.45-2.2.72-1.15 1.25-1.51 1.14-.55 1.82-.55 1.27.18 1.81.55.95.87 1.25 1.51.45 1.38.45 2.2-.15 1.56-.45 2.21-.71 1.15-1.24 1.52c-.53.36-1.13.55-1.81.55s-1.29-.18-1.82-.55zm3-.97c.34-.27.61-.64.8-1.12s.29-1.02.29-1.63-.1-1.15-.29-1.63-.46-.85-.8-1.12-.74-.4-1.18-.4-.83.13-1.18.4-.62.64-.82 1.12-.29 1.02-.29 1.63.1 1.15.29 1.63c.2.48.47.85.82 1.12s.74.4 1.18.4.83-.13 1.18-.4m135.4 23.01c-.5-.23-.94-.55-1.31-.95l.76-.86c.69.73 1.44 1.09 2.27 1.09.53 0 .96-.16 1.3-.47s.5-.7.5-1.18-.17-.85-.5-1.15-.77-.44-1.31-.44c-.64 0-1.22.2-1.75.6l-.85-.38.12-4.31h5.06v1.13h-3.91l-.07 2.45c.53-.35 1.1-.53 1.7-.53.5 0 .96.1 1.37.31.41.2.74.5.98.89s.37.85.37 1.38-.13 1.03-.38 1.45-.61.74-1.07.97-.99.34-1.58.34c-.62 0-1.19-.11-1.69-.34zm7.7-.2c-.54-.36-.95-.87-1.25-1.52s-.45-1.38-.45-2.21.15-1.56.45-2.2.72-1.15 1.25-1.51 1.14-.55 1.82-.55 1.27.18 1.81.55.95.87 1.25 1.51.45 1.38.45 2.2-.15 1.56-.45 2.21-.71 1.15-1.24 1.52c-.53.36-1.13.55-1.81.55s-1.29-.18-1.82-.55zm3-.97c.34-.27.61-.64.8-1.12s.29-1.02.29-1.63-.1-1.15-.29-1.63-.46-.85-.8-1.12-.74-.4-1.18-.4-.83.13-1.18.4-.62.64-.82 1.12-.29 1.02-.29 1.63.1 1.15.29 1.63c.2.48.47.85.82 1.12s.74.4 1.18.4.83-.13 1.18-.4m65.34-24.23c.42.21.75.51 1 .89.25.39.37.85.37 1.37s-.13.99-.38 1.42-.61.76-1.07 1-.97.36-1.54.36c-1.1 0-1.91-.38-2.45-1.13s-.8-1.76-.8-3.01c0-.82.15-1.57.45-2.24s.72-1.19 1.25-1.58c.53-.38 1.13-.58 1.78-.58.9 0 1.7.32 2.4.95l-.62.94c-.28-.26-.56-.45-.84-.59s-.6-.2-.95-.2c-.41 0-.78.14-1.12.41-.34.28-.6.65-.8 1.13s-.3 1.02-.32 1.62c.25-.34.57-.61.97-.8s.82-.28 1.27-.28c.51 0 .98.1 1.4.31zm-.71 3.77c.27-.16.48-.37.62-.63.15-.26.22-.53.22-.81 0-.49-.17-.88-.52-1.18s-.78-.44-1.29-.44c-.46 0-.85.12-1.19.36s-.56.56-.67.96c.1.62.31 1.11.62 1.46s.73.52 1.26.52c.36 0 .67-.08.94-.24zm5.03.72c-.54-.36-.95-.87-1.25-1.52s-.45-1.38-.45-2.21.15-1.56.45-2.2.72-1.15 1.25-1.51 1.14-.55 1.82-.55 1.27.18 1.81.55.95.87 1.25 1.51.45 1.38.45 2.2-.15 1.56-.45 2.21-.71 1.15-1.24 1.52c-.53.36-1.13.55-1.81.55s-1.29-.18-1.82-.55zm3-.97c.34-.27.61-.64.8-1.12s.29-1.02.29-1.63-.1-1.15-.29-1.63-.46-.85-.8-1.12-.74-.4-1.18-.4-.83.13-1.18.4-.62.64-.82 1.12-.29 1.02-.29 1.63.1 1.15.29 1.63c.2.48.47.85.82 1.12s.74.4 1.18.4.83-.13 1.18-.4m66.44-5.03c.42.21.75.51 1 .89.25.39.37.85.37 1.37s-.13.99-.38 1.42-.61.76-1.07 1-.97.36-1.54.36c-1.1 0-1.91-.38-2.45-1.13-.54-.76-.8-1.76-.8-3.01 0-.82.15-1.57.45-2.24s.72-1.19 1.25-1.58c.53-.38 1.13-.58 1.78-.58.9 0 1.7.32 2.4.95l-.62.94c-.28-.26-.56-.45-.84-.59s-.6-.2-.95-.2c-.41 0-.78.14-1.12.41-.34.28-.6.65-.8 1.13s-.3 1.02-.32 1.62c.25-.34.57-.61.97-.8s.82-.28 1.27-.28c.51 0 .98.1 1.4.31zm-.71 3.77c.27-.16.48-.37.62-.63.15-.26.22-.53.22-.81 0-.49-.17-.88-.52-1.18s-.78-.44-1.29-.44c-.46 0-.85.12-1.19.36s-.56.56-.67.96c.1.62.31 1.11.62 1.46s.73.52 1.26.52c.36 0 .67-.08.94-.24zm5.02.73c-.54-.36-.95-.87-1.25-1.52s-.45-1.38-.45-2.21.15-1.56.45-2.2.72-1.15 1.25-1.51 1.14-.55 1.82-.55 1.27.18 1.81.55.95.87 1.25 1.51.45 1.38.45 2.2-.15 1.56-.45 2.21-.71 1.15-1.24 1.52c-.53.36-1.13.55-1.81.55s-1.29-.18-1.82-.55zm3-.97c.34-.27.61-.64.8-1.12s.29-1.02.29-1.63-.1-1.15-.29-1.63-.46-.85-.8-1.12-.74-.4-1.18-.4-.83.13-1.18.4-.62.64-.82 1.12-.29 1.02-.29 1.63.1 1.15.29 1.63c.2.48.47.85.82 1.12s.74.4 1.18.4.83-.13 1.18-.4"/><path fill="#0079AD" d="M155.67 68.22h-2v-14.2c0-2.76 2.24-5 5-5h35.15v2h-35.15c-1.65 0-3 1.35-3 3z"/><path fill="#0079AD" d="M168.36 91.16h-27.01c-2.76 0-5-2.24-5-5V72.7c0-2.76 2.24-5 5-5h27.01c2.76 0 5 2.24 5 5v13.46c0 2.76-2.24 5-5 5M141.35 69.7c-1.65 0-3 1.35-3 3v13.46c0 1.65 1.35 3 3 3h27.01c1.65 0 3-1.35 3-3V72.7c0-1.65-1.35-3-3-3z"/><path fill="#7C12A5" stroke="#fff" stroke-miterlimit="10" d="M103.07 194.73H61.39v33.36h41.68z"/><path fill="#009ADB" stroke="#fff" stroke-miterlimit="10" d="M103.07 141.53H61.39v53.69h41.68z"/><path fill="#7C12A5" stroke="#fff" stroke-miterlimit="10" d="M176.09 171.75h-41.83v56.9h41.83z"/><path fill="#009ADB" stroke="#fff" stroke-miterlimit="10" d="M176.13 97.7h-41.68v74.54h41.68z"/><path fill="#7C12A5" stroke="#fff" stroke-miterlimit="10" d="M249.19 193.26h-41.68v34.83h41.68z"/><path fill="#009ADB" stroke="#fff" stroke-miterlimit="10" d="M249.19 162.85h-41.68v30.14h41.68z"/><path fill="#7C12A5" stroke="#fff" stroke-miterlimit="10" d="M322.24 188.36h-41.68v39.74h41.68z"/><path fill="#009ADB" stroke="#fff" stroke-miterlimit="10" d="M322.24 141.79h-41.68v46.31h41.68z"/><path fill="#7C12A5" stroke="#fff" stroke-miterlimit="10" d="M395.3 171.19h-41.68v56.9h41.68z"/><path fill="#009ADB" stroke="#fff" stroke-miterlimit="10" d="M395.3 140.78h-41.68v30.14h41.68z"/><path fill="#495A67" d="M413.01 228.94H39.9c-.55 0-1-.45-1-1V34.59c0-.55.45-1 1-1s1 .45 1 1v192.36h372.11c.55 0 1 .45 1 1s-.45 1-1 1z"/></svg>
