<svg width="293" height="192" viewBox="0 0 293 192" fill="none" xmlns="http://www.w3.org/2000/svg">
<rect x="0.5" y="0.5" width="292" height="191" fill="white"/>
<rect width="293" height="21" fill="#D23292" fill-opacity="0.1"/>
<path d="M157.512 7.443H158.37V15H157.512V11.557H153.057V15H152.199V7.443H153.057V10.743H157.512V7.443ZM163.127 14.395C163.798 14.395 164.568 14.098 164.92 13.713L165.426 14.252C164.931 14.791 163.93 15.132 163.138 15.132C161.62 15.132 160.256 13.889 160.256 12.14C160.256 10.446 161.532 9.181 163.061 9.181C164.777 9.181 165.756 10.479 165.756 12.47H161.103C161.224 13.581 162.005 14.395 163.127 14.395ZM163.094 9.918C162.082 9.918 161.268 10.633 161.114 11.733H164.942C164.832 10.71 164.227 9.918 163.094 9.918ZM169.377 9.181C170.928 9.181 171.687 10.16 171.687 11.535V15H170.862V14.109C170.455 14.78 169.608 15.132 168.86 15.132C167.661 15.132 166.781 14.439 166.781 13.317C166.781 12.184 167.793 11.425 169.014 11.425C169.63 11.425 170.279 11.557 170.862 11.744V11.535C170.862 10.765 170.554 9.885 169.322 9.885C168.75 9.885 168.178 10.138 167.661 10.402L167.331 9.731C168.145 9.324 168.827 9.181 169.377 9.181ZM169.003 14.406C169.751 14.406 170.642 14.021 170.862 13.218V12.349C170.345 12.206 169.762 12.118 169.146 12.118C168.299 12.118 167.584 12.602 167.584 13.284C167.584 13.988 168.2 14.406 169.003 14.406ZM177.911 7.311H178.736V15H177.911V13.933C177.482 14.681 176.756 15.132 175.843 15.132C174.347 15.132 173.225 13.9 173.225 12.151C173.225 10.413 174.347 9.181 175.843 9.181C176.756 9.181 177.482 9.632 177.911 10.38V7.311ZM175.997 14.395C177.119 14.395 177.911 13.46 177.911 12.151C177.911 10.842 177.119 9.918 175.997 9.918C174.886 9.918 174.094 10.842 174.094 12.151C174.094 13.46 174.886 14.395 175.997 14.395ZM183.246 14.395C183.917 14.395 184.687 14.098 185.039 13.713L185.545 14.252C185.05 14.791 184.049 15.132 183.257 15.132C181.739 15.132 180.375 13.889 180.375 12.14C180.375 10.446 181.651 9.181 183.18 9.181C184.896 9.181 185.875 10.479 185.875 12.47H181.222C181.343 13.581 182.124 14.395 183.246 14.395ZM183.213 9.918C182.201 9.918 181.387 10.633 181.233 11.733H185.061C184.951 10.71 184.346 9.918 183.213 9.918ZM188.286 10.424C188.627 9.665 189.441 9.181 190.486 9.181V9.918C189.199 9.918 188.286 10.71 188.286 11.821V15H187.461V9.313H188.286V10.424Z" fill="black"/>
<rect opacity="0.5" x="5" y="5" width="11" height="11" rx="2" fill="#ACB8BE"/>
<path opacity="0.5" d="M53.78 10H21.22C21.0985 10 21 10.4477 21 11C21 11.5523 21.0985 12 21.22 12H53.78C53.9015 12 54 11.5523 54 11C54 10.4477 53.9015 10 53.78 10Z" fill="#ACB8BE"/>
<rect x="1.5" y="1.5" width="290" height="19" stroke="#D23292"/>
<rect width="51" height="170" transform="translate(1 21)" fill="#F1F6F8"/>
<line x1="9" y1="29" x2="40" y2="29" stroke="#CBD4D8" stroke-width="2" stroke-linecap="round"/>
<line x1="9" y1="45" x2="40" y2="45" stroke="#CBD4D8" stroke-width="2" stroke-linecap="round"/>
<line x1="9" y1="61" x2="40" y2="61" stroke="#CBD4D8" stroke-width="2" stroke-linecap="round"/>
<line x1="9" y1="77" x2="40" y2="77" stroke="#CBD4D8" stroke-width="2" stroke-linecap="round"/>
<line x1="9" y1="37" x2="40" y2="37" stroke="#CBD4D8" stroke-width="2" stroke-linecap="round"/>
<line x1="9" y1="53" x2="40" y2="53" stroke="#CBD4D8" stroke-width="2" stroke-linecap="round"/>
<line x1="9" y1="69" x2="40" y2="69" stroke="#CBD4D8" stroke-width="2" stroke-linecap="round"/>
<line x1="9" y1="85" x2="40" y2="85" stroke="#CBD4D8" stroke-width="2" stroke-linecap="round"/>
<rect width="240" height="170" transform="translate(52 21)" fill="#D23292" fill-opacity="0.1"/>
<path d="M155.488 109.132C153.398 109.132 151.616 107.339 151.616 105.216C151.616 103.093 153.398 101.311 155.488 101.311C156.533 101.311 157.501 101.751 158.205 102.466L157.622 103.06C157.072 102.477 156.313 102.103 155.488 102.103C153.86 102.103 152.485 103.533 152.485 105.216C152.485 106.91 153.86 108.34 155.488 108.34C156.313 108.34 157.072 107.966 157.622 107.383L158.205 107.977C157.501 108.681 156.533 109.132 155.488 109.132ZM162.215 109.132C160.598 109.132 159.278 107.79 159.278 106.151C159.278 104.512 160.598 103.181 162.215 103.181C163.821 103.181 165.141 104.512 165.141 106.151C165.141 107.79 163.821 109.132 162.215 109.132ZM162.215 108.395C163.348 108.395 164.283 107.383 164.283 106.151C164.283 104.919 163.348 103.918 162.215 103.918C161.071 103.918 160.136 104.919 160.136 106.151C160.136 107.383 161.071 108.395 162.215 108.395ZM169.457 103.181C170.722 103.181 171.591 104.072 171.591 105.381V109H170.766V105.491C170.766 104.556 170.183 103.918 169.347 103.918C168.379 103.918 167.587 104.578 167.587 105.381V109H166.762V103.313H167.587V104.215C167.917 103.61 168.643 103.181 169.457 103.181ZM175.769 108.164L176.176 108.769C175.879 109 175.505 109.132 175.12 109.132C174.306 109.132 173.734 108.527 173.734 107.68V104.05H172.843V103.313H173.734V101.751H174.559V103.313H175.956V104.05H174.559V107.68C174.559 108.098 174.845 108.395 175.175 108.395C175.428 108.395 175.648 108.296 175.769 108.164ZM179.959 108.395C180.63 108.395 181.4 108.098 181.752 107.713L182.258 108.252C181.763 108.791 180.762 109.132 179.97 109.132C178.452 109.132 177.088 107.889 177.088 106.14C177.088 104.446 178.364 103.181 179.893 103.181C181.609 103.181 182.588 104.479 182.588 106.47H177.935C178.056 107.581 178.837 108.395 179.959 108.395ZM179.926 103.918C178.914 103.918 178.1 104.633 177.946 105.733H181.774C181.664 104.71 181.059 103.918 179.926 103.918ZM186.869 103.181C188.134 103.181 189.003 104.072 189.003 105.381V109H188.178V105.491C188.178 104.556 187.595 103.918 186.759 103.918C185.791 103.918 184.999 104.578 184.999 105.381V109H184.174V103.313H184.999V104.215C185.329 103.61 186.055 103.181 186.869 103.181ZM193.18 108.164L193.587 108.769C193.29 109 192.916 109.132 192.531 109.132C191.717 109.132 191.145 108.527 191.145 107.68V104.05H190.254V103.313H191.145V101.751H191.97V103.313H193.367V104.05H191.97V107.68C191.97 108.098 192.256 108.395 192.586 108.395C192.839 108.395 193.059 108.296 193.18 108.164Z" fill="black"/>
<rect x="52.5" y="21.5" width="239" height="169" stroke="#D23292"/>
<rect x="0.5" y="0.5" width="292" height="191" stroke="#ACB8BE"/>
</svg>
