<svg width="224" height="65" viewBox="0 0 224 65" fill="none" xmlns="http://www.w3.org/2000/svg">
<path d="M10.795 37.686C9.937 37.686 9.235 36.984 9.235 36.126C9.235 35.281 9.937 34.579 10.795 34.579C11.64 34.579 12.342 35.281 12.342 36.126C12.342 36.984 11.64 37.686 10.795 37.686ZM16.2809 37.686C15.4229 37.686 14.7209 36.984 14.7209 36.126C14.7209 35.281 15.4229 34.579 16.2809 34.579C17.1259 34.579 17.8279 35.281 17.8279 36.126C17.8279 36.984 17.1259 37.686 16.2809 37.686ZM21.7669 37.686C20.9089 37.686 20.2069 36.984 20.2069 36.126C20.2069 35.281 20.9089 34.579 21.7669 34.579C22.6119 34.579 23.3139 35.281 23.3139 36.126C23.3139 36.984 22.6119 37.686 21.7669 37.686ZM27.2528 37.686C26.3948 37.686 25.6928 36.984 25.6928 36.126C25.6928 35.281 26.3948 34.579 27.2528 34.579C28.0978 34.579 28.7998 35.281 28.7998 36.126C28.7998 36.984 28.0978 37.686 27.2528 37.686ZM32.7388 37.686C31.8808 37.686 31.1788 36.984 31.1788 36.126C31.1788 35.281 31.8808 34.579 32.7388 34.579C33.5838 34.579 34.2858 35.281 34.2858 36.126C34.2858 36.984 33.5838 37.686 32.7388 37.686ZM38.2247 37.686C37.3667 37.686 36.6647 36.984 36.6647 36.126C36.6647 35.281 37.3667 34.579 38.2247 34.579C39.0697 34.579 39.7717 35.281 39.7717 36.126C39.7717 36.984 39.0697 37.686 38.2247 37.686ZM43.7106 37.686C42.8526 37.686 42.1506 36.984 42.1506 36.126C42.1506 35.281 42.8526 34.579 43.7106 34.579C44.5556 34.579 45.2576 35.281 45.2576 36.126C45.2576 36.984 44.5556 37.686 43.7106 37.686ZM49.1966 37.686C48.3386 37.686 47.6366 36.984 47.6366 36.126C47.6366 35.281 48.3386 34.579 49.1966 34.579C50.0416 34.579 50.7436 35.281 50.7436 36.126C50.7436 36.984 50.0416 37.686 49.1966 37.686ZM54.6825 37.686C53.8245 37.686 53.1225 36.984 53.1225 36.126C53.1225 35.281 53.8245 34.579 54.6825 34.579C55.5275 34.579 56.2295 35.281 56.2295 36.126C56.2295 36.984 55.5275 37.686 54.6825 37.686ZM60.1684 37.686C59.3104 37.686 58.6084 36.984 58.6084 36.126C58.6084 35.281 59.3104 34.579 60.1684 34.579C61.0134 34.579 61.7154 35.281 61.7154 36.126C61.7154 36.984 61.0134 37.686 60.1684 37.686ZM65.6544 37.686C64.7964 37.686 64.0944 36.984 64.0944 36.126C64.0944 35.281 64.7964 34.579 65.6544 34.579C66.4994 34.579 67.2014 35.281 67.2014 36.126C67.2014 36.984 66.4994 37.686 65.6544 37.686ZM71.1403 37.686C70.2823 37.686 69.5803 36.984 69.5803 36.126C69.5803 35.281 70.2823 34.579 71.1403 34.579C71.9853 34.579 72.6873 35.281 72.6873 36.126C72.6873 36.984 71.9853 37.686 71.1403 37.686Z" fill="#22343C"/>
<path d="M189.12 33.9915L184 39.2893L178.88 33.9915C178.59 33.6908 178.599 33.2123 178.9 32.9226C179.201 32.633 179.679 32.6419 179.969 32.9426L184 37.116L188.036 32.9426C188.325 32.6419 188.804 32.633 189.104 32.9226C189.405 33.2123 189.414 33.6908 189.124 33.9915H189.12Z" fill="#3A4D55"/>
<path d="M200 47H0V49H200V47Z" fill="#41800E" mask="url(#path-1-inside-1_9328_50443)"/>
<path fill-rule="evenodd" clip-rule="evenodd" d="M212 28C207.582 28 204 31.5817 204 36C204 40.4183 207.582 44 212 44C216.418 44 220 40.4183 220 36C220 33.8783 219.157 31.8434 217.657 30.3431C216.157 28.8429 214.122 28 212 28ZM212 42.6667C208.318 42.6667 205.333 39.6819 205.333 36C205.333 32.3181 208.318 29.3333 212 29.3333C215.682 29.3333 218.667 32.3181 218.667 36C218.667 37.7681 217.964 39.4638 216.714 40.714C215.464 41.9643 213.768 42.6667 212 42.6667ZM207.56 36.4933L210.893 39.8267L216.353 34.3667C216.58 34.1022 216.565 33.7079 216.318 33.4616C216.072 33.2154 215.678 33.2001 215.413 33.4267L210.893 37.9467L208.5 35.5533C208.235 35.3268 207.841 35.342 207.595 35.5883C207.349 35.8345 207.333 36.2288 207.56 36.4933Z" fill="#41800E"/>
<path d="M1.199 63V55.443H4.268C5.83 55.443 7.051 56.444 7.051 57.863C7.051 59.282 5.83 60.283 4.268 60.283H2.057V63H1.199ZM2.057 59.469H4.114C5.346 59.469 6.182 58.875 6.182 57.863C6.182 56.851 5.346 56.257 4.114 56.257H2.057V59.469ZM10.7223 57.181C12.2733 57.181 13.0323 58.16 13.0323 59.535V63H12.2073V62.109C11.8003 62.78 10.9533 63.132 10.2053 63.132C9.00627 63.132 8.12627 62.439 8.12627 61.317C8.12627 60.184 9.13827 59.425 10.3593 59.425C10.9753 59.425 11.6243 59.557 12.2073 59.744V59.535C12.2073 58.765 11.8993 57.885 10.6673 57.885C10.0953 57.885 9.52327 58.138 9.00627 58.402L8.67627 57.731C9.49027 57.324 10.1723 57.181 10.7223 57.181ZM10.3483 62.406C11.0963 62.406 11.9873 62.021 12.2073 61.218V60.349C11.6903 60.206 11.1073 60.118 10.4913 60.118C9.64427 60.118 8.92927 60.602 8.92927 61.284C8.92927 61.988 9.54527 62.406 10.3483 62.406ZM16.7703 63.132C15.9783 63.132 15.0983 62.835 14.4163 62.285L14.8453 61.68C15.4943 62.153 16.1433 62.395 16.7703 62.395C17.5183 62.395 18.0243 62.043 18.0243 61.504C18.0243 60.888 17.3643 60.69 16.5943 60.47C15.2193 60.074 14.6913 59.667 14.6913 58.853C14.6913 57.819 15.5493 57.181 16.6823 57.181C17.3863 57.181 18.1123 57.423 18.7173 57.819L18.3213 58.457C17.7493 58.094 17.1883 57.918 16.6823 57.918C16.0443 57.918 15.5163 58.204 15.5163 58.754C15.5163 59.249 15.9343 59.403 16.9903 59.744C17.9033 60.03 18.8493 60.338 18.8493 61.416C18.8493 62.461 17.9473 63.132 16.7703 63.132ZM22.2233 63.132C21.4313 63.132 20.5513 62.835 19.8693 62.285L20.2983 61.68C20.9473 62.153 21.5963 62.395 22.2233 62.395C22.9713 62.395 23.4773 62.043 23.4773 61.504C23.4773 60.888 22.8173 60.69 22.0473 60.47C20.6723 60.074 20.1443 59.667 20.1443 58.853C20.1443 57.819 21.0023 57.181 22.1353 57.181C22.8393 57.181 23.5653 57.423 24.1703 57.819L23.7743 58.457C23.2023 58.094 22.6413 57.918 22.1353 57.918C21.4973 57.918 20.9693 58.204 20.9693 58.754C20.9693 59.249 21.3873 59.403 22.4433 59.744C23.3563 60.03 24.3023 60.338 24.3023 61.416C24.3023 62.461 23.4003 63.132 22.2233 63.132ZM27.0382 63L25.1352 57.313H26.0152L27.4342 61.9L28.9852 57.313H29.7002L31.2512 61.9L32.6702 57.313H33.5502L31.6362 63H30.8552L29.3482 58.457L27.8192 63H27.0382ZM37.3238 63.132C35.7068 63.132 34.3868 61.79 34.3868 60.151C34.3868 58.512 35.7068 57.181 37.3238 57.181C38.9298 57.181 40.2498 58.512 40.2498 60.151C40.2498 61.79 38.9298 63.132 37.3238 63.132ZM37.3238 62.395C38.4568 62.395 39.3918 61.383 39.3918 60.151C39.3918 58.919 38.4568 57.918 37.3238 57.918C36.1798 57.918 35.2448 58.919 35.2448 60.151C35.2448 61.383 36.1798 62.395 37.3238 62.395ZM42.6959 58.424C43.0369 57.665 43.8509 57.181 44.8959 57.181V57.918C43.6089 57.918 42.6959 58.71 42.6959 59.821V63H41.8709V57.313H42.6959V58.424ZM50.6782 55.311H51.5032V63H50.6782V61.933C50.2492 62.681 49.5232 63.132 48.6102 63.132C47.1142 63.132 45.9922 61.9 45.9922 60.151C45.9922 58.413 47.1142 57.181 48.6102 57.181C49.5232 57.181 50.2492 57.632 50.6782 58.38V55.311ZM48.7642 62.395C49.8862 62.395 50.6782 61.46 50.6782 60.151C50.6782 58.842 49.8862 57.918 48.7642 57.918C47.6532 57.918 46.8612 58.842 46.8612 60.151C46.8612 61.46 47.6532 62.395 48.7642 62.395ZM62.9929 57.181C64.1809 57.181 65.0169 58.094 65.0169 59.381V63H64.1919V59.491C64.1919 58.567 63.6529 57.918 62.8829 57.918C61.9809 57.918 61.3429 58.523 61.3429 59.381V63H60.5179V59.491C60.5179 58.567 59.9789 57.918 59.2089 57.918C58.3069 57.918 57.6689 58.523 57.6689 59.381V63H56.8439V57.313H57.6689V58.149C57.9549 57.555 58.5709 57.181 59.3189 57.181C60.2209 57.181 60.9249 57.709 61.2109 58.534C61.3869 57.731 62.0909 57.181 62.9929 57.181ZM69.3999 62.395C70.0709 62.395 70.8409 62.098 71.1929 61.713L71.6989 62.252C71.2039 62.791 70.2029 63.132 69.4109 63.132C67.8929 63.132 66.5289 61.889 66.5289 60.14C66.5289 58.446 67.8049 57.181 69.3339 57.181C71.0499 57.181 72.0289 58.479 72.0289 60.47H67.3759C67.4969 61.581 68.2779 62.395 69.3999 62.395ZM69.3669 57.918C68.3549 57.918 67.5409 58.633 67.3869 59.733H71.2149C71.1049 58.71 70.4999 57.918 69.3669 57.918ZM76.013 62.395C76.684 62.395 77.454 62.098 77.806 61.713L78.312 62.252C77.817 62.791 76.816 63.132 76.024 63.132C74.506 63.132 73.142 61.889 73.142 60.14C73.142 58.446 74.418 57.181 75.947 57.181C77.663 57.181 78.642 58.479 78.642 60.47H73.989C74.11 61.581 74.891 62.395 76.013 62.395ZM75.98 57.918C74.968 57.918 74.154 58.633 74 59.733H77.828C77.718 58.71 77.113 57.918 75.98 57.918ZM82.4281 62.164L82.8351 62.769C82.5381 63 82.1641 63.132 81.7791 63.132C80.9651 63.132 80.3931 62.527 80.3931 61.68V58.05H79.5021V57.313H80.3931V55.751H81.2181V57.313H82.6151V58.05H81.2181V61.68C81.2181 62.098 81.5041 62.395 81.8341 62.395C82.0871 62.395 82.3071 62.296 82.4281 62.164ZM85.9801 63.132C85.1881 63.132 84.3081 62.835 83.6261 62.285L84.0551 61.68C84.7041 62.153 85.3531 62.395 85.9801 62.395C86.7281 62.395 87.2341 62.043 87.2341 61.504C87.2341 60.888 86.5741 60.69 85.8041 60.47C84.4291 60.074 83.9011 59.667 83.9011 58.853C83.9011 57.819 84.7591 57.181 85.8921 57.181C86.5961 57.181 87.3221 57.423 87.9271 57.819L87.5311 58.457C86.9591 58.094 86.3981 57.918 85.8921 57.918C85.2541 57.918 84.7261 58.204 84.7261 58.754C84.7261 59.249 85.1441 59.403 86.2001 59.744C87.1131 60.03 88.0591 60.338 88.0591 61.416C88.0591 62.461 87.1571 63.132 85.9801 63.132ZM93.7273 58.424C94.0683 57.665 94.8823 57.181 95.9273 57.181V57.918C94.6403 57.918 93.7273 58.71 93.7273 59.821V63H92.9023V57.313H93.7273V58.424ZM99.8616 62.395C100.533 62.395 101.303 62.098 101.655 61.713L102.161 62.252C101.666 62.791 100.665 63.132 99.8726 63.132C98.3546 63.132 96.9906 61.889 96.9906 60.14C96.9906 58.446 98.2666 57.181 99.7956 57.181C101.512 57.181 102.491 58.479 102.491 60.47H97.8376C97.9586 61.581 98.7396 62.395 99.8616 62.395ZM99.8286 57.918C98.8166 57.918 98.0026 58.633 97.8486 59.733H101.677C101.567 58.71 100.962 57.918 99.8286 57.918ZM108.323 57.313H109.148V64.892H108.323V61.933C107.894 62.681 107.168 63.132 106.255 63.132C104.759 63.132 103.637 61.9 103.637 60.151C103.637 58.413 104.759 57.181 106.255 57.181C107.168 57.181 107.894 57.632 108.323 58.38V57.313ZM106.409 62.395C107.531 62.395 108.323 61.46 108.323 60.151C108.323 58.842 107.531 57.918 106.409 57.918C105.298 57.918 104.506 58.842 104.506 60.151C104.506 61.46 105.298 62.395 106.409 62.395ZM115.131 57.313H115.956V63H115.131V62.098C114.801 62.703 114.075 63.132 113.261 63.132C111.996 63.132 111.127 62.241 111.127 60.932V57.313H111.952V60.822C111.952 61.757 112.535 62.395 113.371 62.395C114.339 62.395 115.131 61.735 115.131 60.932V57.313ZM118.484 56.279C118.176 56.279 117.934 56.026 117.934 55.729C117.934 55.443 118.176 55.19 118.484 55.19C118.781 55.19 119.023 55.443 119.023 55.729C119.023 56.026 118.781 56.279 118.484 56.279ZM118.066 63V57.313H118.891V63H118.066ZM121.83 58.424C122.171 57.665 122.985 57.181 124.03 57.181V57.918C122.743 57.918 121.83 58.71 121.83 59.821V63H121.005V57.313H121.83V58.424ZM127.964 62.395C128.635 62.395 129.405 62.098 129.757 61.713L130.263 62.252C129.768 62.791 128.767 63.132 127.975 63.132C126.457 63.132 125.093 61.889 125.093 60.14C125.093 58.446 126.369 57.181 127.898 57.181C129.614 57.181 130.593 58.479 130.593 60.47H125.94C126.061 61.581 126.842 62.395 127.964 62.395ZM127.931 57.918C126.919 57.918 126.105 58.633 125.951 59.733H129.779C129.669 58.71 129.064 57.918 127.931 57.918ZM138.328 57.181C139.516 57.181 140.352 58.094 140.352 59.381V63H139.527V59.491C139.527 58.567 138.988 57.918 138.218 57.918C137.316 57.918 136.678 58.523 136.678 59.381V63H135.853V59.491C135.853 58.567 135.314 57.918 134.544 57.918C133.642 57.918 133.004 58.523 133.004 59.381V63H132.179V57.313H133.004V58.149C133.29 57.555 133.906 57.181 134.654 57.181C135.556 57.181 136.26 57.709 136.546 58.534C136.722 57.731 137.426 57.181 138.328 57.181ZM144.735 62.395C145.406 62.395 146.176 62.098 146.528 61.713L147.034 62.252C146.539 62.791 145.538 63.132 144.746 63.132C143.228 63.132 141.864 61.889 141.864 60.14C141.864 58.446 143.14 57.181 144.669 57.181C146.385 57.181 147.364 58.479 147.364 60.47H142.711C142.832 61.581 143.613 62.395 144.735 62.395ZM144.702 57.918C143.69 57.918 142.876 58.633 142.722 59.733H146.55C146.44 58.71 145.835 57.918 144.702 57.918ZM151.645 57.181C152.91 57.181 153.779 58.072 153.779 59.381V63H152.954V59.491C152.954 58.556 152.371 57.918 151.535 57.918C150.567 57.918 149.775 58.578 149.775 59.381V63H148.95V57.313H149.775V58.215C150.105 57.61 150.831 57.181 151.645 57.181ZM157.957 62.164L158.364 62.769C158.067 63 157.693 63.132 157.308 63.132C156.494 63.132 155.922 62.527 155.922 61.68V58.05H155.031V57.313H155.922V55.751H156.747V57.313H158.144V58.05H156.747V61.68C156.747 62.098 157.033 62.395 157.363 62.395C157.616 62.395 157.836 62.296 157.957 62.164ZM161.509 63.132C160.717 63.132 159.837 62.835 159.155 62.285L159.584 61.68C160.233 62.153 160.882 62.395 161.509 62.395C162.257 62.395 162.763 62.043 162.763 61.504C162.763 60.888 162.103 60.69 161.333 60.47C159.958 60.074 159.43 59.667 159.43 58.853C159.43 57.819 160.288 57.181 161.421 57.181C162.125 57.181 162.851 57.423 163.456 57.819L163.06 58.457C162.488 58.094 161.927 57.918 161.421 57.918C160.783 57.918 160.255 58.204 160.255 58.754C160.255 59.249 160.673 59.403 161.729 59.744C162.642 60.03 163.588 60.338 163.588 61.416C163.588 62.461 162.686 63.132 161.509 63.132Z" fill="#41800E"/>
<path d="M1.235 12V3.069H5.122C7.02 3.069 8.463 4.291 8.463 6.033C8.463 7.775 7.02 8.997 5.122 8.997H2.847V12H1.235ZM2.847 7.502H4.927C6.032 7.502 6.799 6.943 6.799 6.033C6.799 5.123 6.032 4.564 4.927 4.564H2.847V7.502ZM12.58 5.123C14.361 5.123 15.453 6.254 15.453 7.957V12H13.906V11.207C13.412 11.818 12.58 12.156 11.8 12.156C10.37 12.156 9.30398 11.311 9.30398 10.011C9.30398 8.685 10.513 7.775 12.034 7.775C12.645 7.775 13.295 7.905 13.906 8.126V7.957C13.906 7.177 13.49 6.423 12.268 6.423C11.631 6.423 11.02 6.644 10.448 6.93L9.90198 5.825C10.851 5.357 11.735 5.123 12.58 5.123ZM12.151 10.999C12.918 10.999 13.737 10.609 13.906 9.894V9.127C13.412 8.971 12.853 8.88 12.268 8.88C11.475 8.88 10.825 9.322 10.825 9.959C10.825 10.596 11.397 10.999 12.151 10.999ZM19.5173 12.156C18.4903 12.156 17.3853 11.792 16.5663 11.155L17.2423 10.115C17.9703 10.635 18.8153 10.934 19.5433 10.934C20.2583 10.934 20.6873 10.635 20.6873 10.167C20.6873 9.634 20.0633 9.452 19.2703 9.244C17.8013 8.854 16.8783 8.451 16.8783 7.229C16.8783 5.981 17.9183 5.123 19.4133 5.123C20.3363 5.123 21.2463 5.448 21.9873 5.929L21.3633 6.995C20.7393 6.592 20.0373 6.332 19.4133 6.332C18.8283 6.332 18.3603 6.605 18.3603 7.073C18.3603 7.515 18.7763 7.632 19.7903 7.944C20.9343 8.256 22.1563 8.633 22.1563 10.024C22.1563 11.324 21.0773 12.156 19.5173 12.156ZM25.8412 12.156C24.8142 12.156 23.7092 11.792 22.8902 11.155L23.5662 10.115C24.2942 10.635 25.1392 10.934 25.8672 10.934C26.5822 10.934 27.0112 10.635 27.0112 10.167C27.0112 9.634 26.3872 9.452 25.5942 9.244C24.1252 8.854 23.2022 8.451 23.2022 7.229C23.2022 5.981 24.2422 5.123 25.7372 5.123C26.6602 5.123 27.5702 5.448 28.3112 5.929L27.6872 6.995C27.0632 6.592 26.3612 6.332 25.7372 6.332C25.1522 6.332 24.6842 6.605 24.6842 7.073C24.6842 7.515 25.1002 7.632 26.1142 7.944C27.2582 8.256 28.4802 8.633 28.4802 10.024C28.4802 11.324 27.4012 12.156 25.8412 12.156ZM31.333 12L29.058 5.279H30.644L32.048 9.868L33.543 5.279H34.869L36.364 9.868L37.768 5.279H39.354L37.079 12H35.636L34.206 7.398L32.776 12H31.333ZM43.5468 12.156C41.5578 12.156 39.9328 10.57 39.9328 8.633C39.9328 6.696 41.5578 5.123 43.5468 5.123C45.5228 5.123 47.1348 6.696 47.1348 8.633C47.1348 10.57 45.5228 12.156 43.5468 12.156ZM43.5468 10.804C44.6648 10.804 45.5878 9.829 45.5878 8.633C45.5878 7.437 44.6648 6.475 43.5468 6.475C42.4158 6.475 41.4928 7.437 41.4928 8.633C41.4928 9.829 42.4158 10.804 43.5468 10.804ZM50.0892 6.553C50.5182 5.682 51.4022 5.123 52.4942 5.123V6.475C51.0512 6.475 50.0892 7.333 50.0892 8.607V12H48.5032V5.279H50.0892V6.553ZM58.8028 2.913H60.3888V12H58.8028V10.934C58.2828 11.701 57.4638 12.156 56.4758 12.156C54.6818 12.156 53.3818 10.7 53.3818 8.633C53.3818 6.579 54.6818 5.123 56.4758 5.123C57.4638 5.123 58.2828 5.578 58.8028 6.332V2.913ZM56.8918 10.804C58.0098 10.804 58.7898 9.894 58.7898 8.633C58.7898 7.372 58.0098 6.475 56.8918 6.475C55.7608 6.475 54.9548 7.372 54.9548 8.633C54.9548 9.894 55.7608 10.804 56.8918 10.804Z" fill="#22343C"/>
</svg>
