<svg width="224" height="81" viewBox="0 0 224 81" fill="none" xmlns="http://www.w3.org/2000/svg">
<path d="M10.795 37.686C9.937 37.686 9.235 36.984 9.235 36.126C9.235 35.281 9.937 34.579 10.795 34.579C11.64 34.579 12.342 35.281 12.342 36.126C12.342 36.984 11.64 37.686 10.795 37.686ZM16.2809 37.686C15.4229 37.686 14.7209 36.984 14.7209 36.126C14.7209 35.281 15.4229 34.579 16.2809 34.579C17.1259 34.579 17.8279 35.281 17.8279 36.126C17.8279 36.984 17.1259 37.686 16.2809 37.686ZM21.7669 37.686C20.9089 37.686 20.2069 36.984 20.2069 36.126C20.2069 35.281 20.9089 34.579 21.7669 34.579C22.6119 34.579 23.3139 35.281 23.3139 36.126C23.3139 36.984 22.6119 37.686 21.7669 37.686ZM27.2528 37.686C26.3948 37.686 25.6928 36.984 25.6928 36.126C25.6928 35.281 26.3948 34.579 27.2528 34.579C28.0978 34.579 28.7998 35.281 28.7998 36.126C28.7998 36.984 28.0978 37.686 27.2528 37.686ZM32.7388 37.686C31.8808 37.686 31.1788 36.984 31.1788 36.126C31.1788 35.281 31.8808 34.579 32.7388 34.579C33.5838 34.579 34.2858 35.281 34.2858 36.126C34.2858 36.984 33.5838 37.686 32.7388 37.686ZM38.2247 37.686C37.3667 37.686 36.6647 36.984 36.6647 36.126C36.6647 35.281 37.3667 34.579 38.2247 34.579C39.0697 34.579 39.7717 35.281 39.7717 36.126C39.7717 36.984 39.0697 37.686 38.2247 37.686ZM43.7106 37.686C42.8526 37.686 42.1506 36.984 42.1506 36.126C42.1506 35.281 42.8526 34.579 43.7106 34.579C44.5556 34.579 45.2576 35.281 45.2576 36.126C45.2576 36.984 44.5556 37.686 43.7106 37.686ZM49.1966 37.686C48.3386 37.686 47.6366 36.984 47.6366 36.126C47.6366 35.281 48.3386 34.579 49.1966 34.579C50.0416 34.579 50.7436 35.281 50.7436 36.126C50.7436 36.984 50.0416 37.686 49.1966 37.686ZM54.6825 37.686C53.8245 37.686 53.1225 36.984 53.1225 36.126C53.1225 35.281 53.8245 34.579 54.6825 34.579C55.5275 34.579 56.2295 35.281 56.2295 36.126C56.2295 36.984 55.5275 37.686 54.6825 37.686ZM60.1684 37.686C59.3104 37.686 58.6084 36.984 58.6084 36.126C58.6084 35.281 59.3104 34.579 60.1684 34.579C61.0134 34.579 61.7154 35.281 61.7154 36.126C61.7154 36.984 61.0134 37.686 60.1684 37.686ZM65.6544 37.686C64.7964 37.686 64.0944 36.984 64.0944 36.126C64.0944 35.281 64.7964 34.579 65.6544 34.579C66.4994 34.579 67.2014 35.281 67.2014 36.126C67.2014 36.984 66.4994 37.686 65.6544 37.686ZM71.1403 37.686C70.2823 37.686 69.5803 36.984 69.5803 36.126C69.5803 35.281 70.2823 34.579 71.1403 34.579C71.9853 34.579 72.6873 35.281 72.6873 36.126C72.6873 36.984 71.9853 37.686 71.1403 37.686Z" fill="#22343C"/>
<path d="M190.942 35.7911C189.444 33.0222 186.818 31.3467 183.911 31.3467C181.004 31.3467 178.373 33.0222 176.889 35.7911L176.764 36L176.88 36.2133C178.378 38.9822 181.004 40.6578 183.911 40.6578C186.818 40.6578 189.449 39.0045 190.942 36.2133L191.058 36L190.942 35.7911ZM183.911 39.7467C181.409 39.7467 179.111 38.3511 177.778 36C179.111 33.6489 181.409 32.2533 183.911 32.2533C186.413 32.2533 188.684 33.6533 190.04 36C188.684 38.3511 186.409 39.7467 183.911 39.7467Z" fill="#67777E"/>
<path d="M184.04 32.9645C183.437 32.9689 182.85 33.1517 182.351 33.49C181.852 33.8283 181.465 34.3068 181.238 34.865C181.011 35.4233 180.954 36.0363 181.076 36.6266C181.197 37.2169 181.49 37.758 181.919 38.1817C182.348 38.6053 182.892 38.8924 183.484 39.0068C184.075 39.1211 184.688 39.0575 185.243 38.8241C185.799 38.5907 186.273 38.1978 186.605 37.6952C186.938 37.1925 187.114 36.6026 187.111 36C187.109 35.5989 187.028 35.202 186.873 34.8322C186.718 34.4624 186.491 34.1269 186.206 33.8449C185.92 33.5629 185.582 33.3399 185.21 33.1889C184.839 33.0378 184.441 32.9615 184.04 32.9645ZM184.04 38.1733C183.614 38.169 183.199 38.0389 182.847 37.7995C182.495 37.5601 182.222 37.222 182.062 36.8277C181.901 36.4334 181.861 36.0005 181.945 35.5834C182.03 35.1662 182.236 34.7834 182.538 34.483C182.84 34.1826 183.223 33.978 183.641 33.895C184.058 33.8119 184.491 33.8541 184.885 34.0162C185.278 34.1782 185.615 34.453 185.853 34.806C186.091 35.1589 186.22 35.5743 186.222 36C186.223 36.2865 186.168 36.5704 186.058 36.8352C185.949 37.1 185.788 37.3404 185.585 37.5426C185.382 37.7448 185.141 37.9046 184.876 38.0129C184.611 38.1212 184.326 38.1757 184.04 38.1733Z" fill="#67777E"/>
<path d="M200 47H0V49H200V47Z" fill="#E02200" mask="url(#path-1-inside-1_9328_50442)"/>
<path fill-rule="evenodd" clip-rule="evenodd" d="M204 36C204 31.5817 207.582 28 212 28C214.122 28 216.157 28.8429 217.657 30.3431C219.157 31.8434 220 33.8783 220 36C220 40.4183 216.418 44 212 44C207.582 44 204 40.4183 204 36ZM211.133 36.5133C211.133 36.992 211.521 37.38 212 37.38C212.479 37.38 212.867 36.992 212.867 36.5133V32.5133C212.867 32.0347 212.479 31.6467 212 31.6467C211.521 31.6467 211.133 32.0347 211.133 32.5133V36.5133ZM212 42.6667C208.318 42.6667 205.333 39.6819 205.333 36C205.333 32.3181 208.318 29.3333 212 29.3333C215.682 29.3333 218.667 32.3181 218.667 36C218.667 37.7681 217.964 39.4638 216.714 40.714C215.464 41.9643 213.768 42.6667 212 42.6667ZM212.967 39.3467C212.967 39.899 212.519 40.3467 211.967 40.3467C211.414 40.3467 210.967 39.899 210.967 39.3467C210.967 38.7944 211.414 38.3467 211.967 38.3467C212.519 38.3467 212.967 38.7944 212.967 39.3467Z" fill="#E02200"/>
<path d="M4.158 63.132C2.31 63.132 1.001 61.779 1.001 59.865V55.443H1.859V59.865C1.859 61.317 2.816 62.351 4.158 62.351C5.5 62.351 6.457 61.317 6.457 59.865V55.443H7.315V59.865C7.315 61.779 6.006 63.132 4.158 63.132ZM11.2315 63.132C10.4395 63.132 9.55945 62.835 8.87745 62.285L9.30645 61.68C9.95545 62.153 10.6045 62.395 11.2315 62.395C11.9795 62.395 12.4855 62.043 12.4855 61.504C12.4855 60.888 11.8255 60.69 11.0555 60.47C9.68045 60.074 9.15245 59.667 9.15245 58.853C9.15245 57.819 10.0105 57.181 11.1435 57.181C11.8475 57.181 12.5735 57.423 13.1785 57.819L12.7825 58.457C12.2105 58.094 11.6495 57.918 11.1435 57.918C10.5055 57.918 9.97745 58.204 9.97745 58.754C9.97745 59.249 10.3955 59.403 11.4515 59.744C12.3645 60.03 13.3105 60.338 13.3105 61.416C13.3105 62.461 12.4085 63.132 11.2315 63.132ZM17.3224 62.395C17.9934 62.395 18.7634 62.098 19.1154 61.713L19.6214 62.252C19.1264 62.791 18.1254 63.132 17.3334 63.132C15.8154 63.132 14.4514 61.889 14.4514 60.14C14.4514 58.446 15.7274 57.181 17.2564 57.181C18.9724 57.181 19.9514 58.479 19.9514 60.47H15.2984C15.4194 61.581 16.2004 62.395 17.3224 62.395ZM17.2894 57.918C16.2774 57.918 15.4634 58.633 15.3094 59.733H19.1374C19.0274 58.71 18.4224 57.918 17.2894 57.918ZM27.2198 63.132C25.6578 63.132 24.4588 62.296 24.4588 61.02C24.4588 60.074 25.2068 59.392 26.1308 59.095C25.2728 58.765 24.6568 58.182 24.6568 57.313C24.6568 56.059 25.9108 55.311 27.2198 55.311C28.5728 55.311 29.7938 56.081 29.7938 57.324C29.7938 58.248 29.1008 58.809 28.3198 59.095C29.2328 59.403 29.9808 60.074 29.9808 61.02C29.9808 62.307 28.7708 63.132 27.2198 63.132ZM27.2198 58.754C27.9568 58.71 28.9248 58.259 28.9248 57.401C28.9248 56.642 28.1658 56.092 27.2198 56.092C26.2738 56.092 25.5258 56.642 25.5258 57.401C25.5258 58.281 26.5048 58.71 27.2198 58.754ZM27.2198 62.351C28.2648 62.351 29.1118 61.79 29.1118 60.965C29.1118 60.052 28.0118 59.524 27.2198 59.502C26.4388 59.524 25.3278 60.052 25.3278 60.965C25.3278 61.79 26.1748 62.351 27.2198 62.351ZM37.4701 63.132C35.8531 63.132 34.5331 61.79 34.5331 60.151C34.5331 58.512 35.8531 57.181 37.4701 57.181C39.0761 57.181 40.3961 58.512 40.3961 60.151C40.3961 61.79 39.0761 63.132 37.4701 63.132ZM37.4701 62.395C38.6031 62.395 39.5381 61.383 39.5381 60.151C39.5381 58.919 38.6031 57.918 37.4701 57.918C36.3261 57.918 35.3911 58.919 35.3911 60.151C35.3911 61.383 36.3261 62.395 37.4701 62.395ZM42.8422 58.424C43.1832 57.665 43.9972 57.181 45.0422 57.181V57.918C43.7552 57.918 42.8422 58.71 42.8422 59.821V63H42.0172V57.313H42.8422V58.424ZM55.9568 57.181C57.1448 57.181 57.9808 58.094 57.9808 59.381V63H57.1558V59.491C57.1558 58.567 56.6168 57.918 55.8468 57.918C54.9448 57.918 54.3068 58.523 54.3068 59.381V63H53.4818V59.491C53.4818 58.567 52.9428 57.918 52.1728 57.918C51.2708 57.918 50.6328 58.523 50.6328 59.381V63H49.8078V57.313H50.6328V58.149C50.9188 57.555 51.5348 57.181 52.2828 57.181C53.1848 57.181 53.8888 57.709 54.1748 58.534C54.3508 57.731 55.0548 57.181 55.9568 57.181ZM62.4078 63.132C60.7908 63.132 59.4708 61.79 59.4708 60.151C59.4708 58.512 60.7908 57.181 62.4078 57.181C64.0138 57.181 65.3338 58.512 65.3338 60.151C65.3338 61.79 64.0138 63.132 62.4078 63.132ZM62.4078 62.395C63.5408 62.395 64.4758 61.383 64.4758 60.151C64.4758 58.919 63.5408 57.918 62.4078 57.918C61.2638 57.918 60.3288 58.919 60.3288 60.151C60.3288 61.383 61.2638 62.395 62.4078 62.395ZM67.7798 58.424C68.1208 57.665 68.9348 57.181 69.9798 57.181V57.918C68.6928 57.918 67.7798 58.71 67.7798 59.821V63H66.9548V57.313H67.7798V58.424ZM73.9142 62.395C74.5852 62.395 75.3552 62.098 75.7072 61.713L76.2132 62.252C75.7182 62.791 74.7172 63.132 73.9252 63.132C72.4072 63.132 71.0432 61.889 71.0432 60.14C71.0432 58.446 72.3192 57.181 73.8482 57.181C75.5642 57.181 76.5432 58.479 76.5432 60.47H71.8902C72.0112 61.581 72.7922 62.395 73.9142 62.395ZM73.8812 57.918C72.8692 57.918 72.0552 58.633 71.9012 59.733H75.7292C75.6192 58.71 75.0142 57.918 73.8812 57.918ZM83.8006 63.132C82.2056 63.132 80.8526 61.768 80.8526 60.151C80.8526 58.534 82.2056 57.181 83.8006 57.181C84.5706 57.181 85.2856 57.5 85.8246 58.017L85.2526 58.578C84.8786 58.171 84.3616 57.918 83.8006 57.918C82.6676 57.918 81.7216 58.941 81.7216 60.151C81.7216 61.372 82.6676 62.395 83.8006 62.395C84.3726 62.395 84.9006 62.131 85.2856 61.702L85.8576 62.263C85.3186 62.802 84.5926 63.132 83.8006 63.132ZM89.9577 57.181C91.2227 57.181 92.0917 58.072 92.0917 59.381V63H91.2667V59.491C91.2667 58.556 90.6837 57.918 89.8477 57.918C88.8797 57.918 88.0877 58.578 88.0877 59.381V63H87.2627V55.311H88.0877V58.215C88.4177 57.61 89.1437 57.181 89.9577 57.181ZM96.1041 57.181C97.6551 57.181 98.4141 58.16 98.4141 59.535V63H97.5891V62.109C97.1821 62.78 96.3351 63.132 95.5871 63.132C94.3881 63.132 93.5081 62.439 93.5081 61.317C93.5081 60.184 94.5201 59.425 95.7411 59.425C96.3571 59.425 97.0061 59.557 97.5891 59.744V59.535C97.5891 58.765 97.2811 57.885 96.0491 57.885C95.4771 57.885 94.9051 58.138 94.3881 58.402L94.0581 57.731C94.8721 57.324 95.5541 57.181 96.1041 57.181ZM95.7301 62.406C96.4781 62.406 97.3691 62.021 97.5891 61.218V60.349C97.0721 60.206 96.4891 60.118 95.8731 60.118C95.0261 60.118 94.3111 60.602 94.3111 61.284C94.3111 61.988 94.9271 62.406 95.7301 62.406ZM101.217 58.424C101.558 57.665 102.372 57.181 103.417 57.181V57.918C102.13 57.918 101.217 58.71 101.217 59.821V63H100.392V57.313H101.217V58.424ZM106.988 57.181C108.539 57.181 109.298 58.16 109.298 59.535V63H108.473V62.109C108.066 62.78 107.219 63.132 106.471 63.132C105.272 63.132 104.392 62.439 104.392 61.317C104.392 60.184 105.404 59.425 106.625 59.425C107.241 59.425 107.89 59.557 108.473 59.744V59.535C108.473 58.765 108.165 57.885 106.933 57.885C106.361 57.885 105.789 58.138 105.272 58.402L104.942 57.731C105.756 57.324 106.438 57.181 106.988 57.181ZM106.614 62.406C107.362 62.406 108.253 62.021 108.473 61.218V60.349C107.956 60.206 107.373 60.118 106.757 60.118C105.91 60.118 105.195 60.602 105.195 61.284C105.195 61.988 105.811 62.406 106.614 62.406ZM113.719 63.132C112.124 63.132 110.771 61.768 110.771 60.151C110.771 58.534 112.124 57.181 113.719 57.181C114.489 57.181 115.204 57.5 115.743 58.017L115.171 58.578C114.797 58.171 114.28 57.918 113.719 57.918C112.586 57.918 111.64 58.941 111.64 60.151C111.64 61.372 112.586 62.395 113.719 62.395C114.291 62.395 114.819 62.131 115.204 61.702L115.776 62.263C115.237 62.802 114.511 63.132 113.719 63.132ZM119.381 62.164L119.788 62.769C119.491 63 119.117 63.132 118.732 63.132C117.918 63.132 117.346 62.527 117.346 61.68V58.05H116.455V57.313H117.346V55.751H118.171V57.313H119.568V58.05H118.171V61.68C118.171 62.098 118.457 62.395 118.787 62.395C119.04 62.395 119.26 62.296 119.381 62.164ZM123.571 62.395C124.242 62.395 125.012 62.098 125.364 61.713L125.87 62.252C125.375 62.791 124.374 63.132 123.582 63.132C122.064 63.132 120.7 61.889 120.7 60.14C120.7 58.446 121.976 57.181 123.505 57.181C125.221 57.181 126.2 58.479 126.2 60.47H121.547C121.668 61.581 122.449 62.395 123.571 62.395ZM123.538 57.918C122.526 57.918 121.712 58.633 121.558 59.733H125.386C125.276 58.71 124.671 57.918 123.538 57.918ZM128.611 58.424C128.952 57.665 129.766 57.181 130.811 57.181V57.918C129.524 57.918 128.611 58.71 128.611 59.821V63H127.786V57.313H128.611V58.424ZM134.107 63.132C133.315 63.132 132.435 62.835 131.753 62.285L132.182 61.68C132.831 62.153 133.48 62.395 134.107 62.395C134.855 62.395 135.361 62.043 135.361 61.504C135.361 60.888 134.701 60.69 133.931 60.47C132.556 60.074 132.028 59.667 132.028 58.853C132.028 57.819 132.886 57.181 134.019 57.181C134.723 57.181 135.449 57.423 136.054 57.819L135.658 58.457C135.086 58.094 134.525 57.918 134.019 57.918C133.381 57.918 132.853 58.204 132.853 58.754C132.853 59.249 133.271 59.403 134.327 59.744C135.24 60.03 136.186 60.338 136.186 61.416C136.186 62.461 135.284 63.132 134.107 63.132ZM142.151 63L140.248 57.313H141.128L142.547 61.9L144.098 57.313H144.813L146.364 61.9L147.783 57.313H148.663L146.749 63H145.968L144.461 58.457L142.932 63H142.151ZM150.413 56.279C150.105 56.279 149.863 56.026 149.863 55.729C149.863 55.443 150.105 55.19 150.413 55.19C150.71 55.19 150.952 55.443 150.952 55.729C150.952 56.026 150.71 56.279 150.413 56.279ZM149.995 63V57.313H150.82V63H149.995ZM155.134 62.164L155.541 62.769C155.244 63 154.87 63.132 154.485 63.132C153.671 63.132 153.099 62.527 153.099 61.68V58.05H152.208V57.313H153.099V55.751H153.924V57.313H155.321V58.05H153.924V61.68C153.924 62.098 154.21 62.395 154.54 62.395C154.793 62.395 155.013 62.296 155.134 62.164ZM159.621 57.181C160.886 57.181 161.755 58.072 161.755 59.381V63H160.93V59.491C160.93 58.556 160.347 57.918 159.511 57.918C158.543 57.918 157.751 58.578 157.751 59.381V63H156.926V55.311H157.751V58.215C158.081 57.61 158.807 57.181 159.621 57.181ZM168.997 57.181C170.548 57.181 171.307 58.16 171.307 59.535V63H170.482V62.109C170.075 62.78 169.228 63.132 168.48 63.132C167.281 63.132 166.401 62.439 166.401 61.317C166.401 60.184 167.413 59.425 168.634 59.425C169.25 59.425 169.899 59.557 170.482 59.744V59.535C170.482 58.765 170.174 57.885 168.942 57.885C168.37 57.885 167.798 58.138 167.281 58.402L166.951 57.731C167.765 57.324 168.447 57.181 168.997 57.181ZM168.623 62.406C169.371 62.406 170.262 62.021 170.482 61.218V60.349C169.965 60.206 169.382 60.118 168.766 60.118C167.919 60.118 167.204 60.602 167.204 61.284C167.204 61.988 167.82 62.406 168.623 62.406ZM182.663 57.181C183.851 57.181 184.687 58.094 184.687 59.381V63H183.862V59.491C183.862 58.567 183.323 57.918 182.553 57.918C181.651 57.918 181.013 58.523 181.013 59.381V63H180.188V59.491C180.188 58.567 179.649 57.918 178.879 57.918C177.977 57.918 177.339 58.523 177.339 59.381V63H176.514V57.313H177.339V58.149C177.625 57.555 178.241 57.181 178.989 57.181C179.891 57.181 180.595 57.709 180.881 58.534C181.057 57.731 181.761 57.181 182.663 57.181ZM187.09 56.279C186.782 56.279 186.54 56.026 186.54 55.729C186.54 55.443 186.782 55.19 187.09 55.19C187.387 55.19 187.629 55.443 187.629 55.729C187.629 56.026 187.387 56.279 187.09 56.279ZM186.672 63V57.313H187.497V63H186.672ZM194.143 63H193.175L191.47 60.734L189.754 63H188.786L190.986 60.096L188.874 57.313H189.842L191.47 59.458L193.087 57.313H194.055L191.954 60.096L194.143 63ZM3.399 79.132C1.782 79.132 0.462 77.79 0.462 76.151C0.462 74.512 1.782 73.181 3.399 73.181C5.005 73.181 6.325 74.512 6.325 76.151C6.325 77.79 5.005 79.132 3.399 79.132ZM3.399 78.395C4.532 78.395 5.467 77.383 5.467 76.151C5.467 74.919 4.532 73.918 3.399 73.918C2.255 73.918 1.32 74.919 1.32 76.151C1.32 77.383 2.255 78.395 3.399 78.395ZM8.96906 72.532V73.313H10.3661V74.05H8.96906V79H8.14406V74.05H7.25306V73.313H8.14406V72.532C8.14406 71.685 8.71606 71.08 9.53006 71.08C9.91506 71.08 10.2891 71.212 10.5861 71.443L10.1791 72.048C10.0581 71.916 9.83806 71.817 9.58506 71.817C9.25506 71.817 8.96906 72.114 8.96906 72.532ZM14.8666 79V71.311H15.6916V79H14.8666ZM20.2038 78.395C20.8748 78.395 21.6448 78.098 21.9968 77.713L22.5028 78.252C22.0078 78.791 21.0068 79.132 20.2148 79.132C18.6968 79.132 17.3328 77.889 17.3328 76.14C17.3328 74.446 18.6088 73.181 20.1378 73.181C21.8538 73.181 22.8328 74.479 22.8328 76.47H18.1798C18.3008 77.581 19.0818 78.395 20.2038 78.395ZM20.1708 73.918C19.1588 73.918 18.3448 74.633 18.1908 75.733H22.0188C21.9088 74.71 21.3038 73.918 20.1708 73.918ZM26.6189 78.164L27.0259 78.769C26.7289 79 26.3549 79.132 25.9699 79.132C25.1559 79.132 24.5839 78.527 24.5839 77.68V74.05H23.6929V73.313H24.5839V71.751H25.4089V73.313H26.8059V74.05H25.4089V77.68C25.4089 78.098 25.6949 78.395 26.0249 78.395C26.2779 78.395 26.4979 78.296 26.6189 78.164ZM30.6109 78.164L31.0179 78.769C30.7209 79 30.3469 79.132 29.9619 79.132C29.1479 79.132 28.5759 78.527 28.5759 77.68V74.05H27.6849V73.313H28.5759V71.751H29.4009V73.313H30.7979V74.05H29.4009V77.68C29.4009 78.098 29.6869 78.395 30.0169 78.395C30.2699 78.395 30.4899 78.296 30.6109 78.164ZM34.8009 78.395C35.4719 78.395 36.2419 78.098 36.5939 77.713L37.0999 78.252C36.6049 78.791 35.6039 79.132 34.8119 79.132C33.2939 79.132 31.9299 77.889 31.9299 76.14C31.9299 74.446 33.2059 73.181 34.7349 73.181C36.4509 73.181 37.4299 74.479 37.4299 76.47H32.7769C32.8979 77.581 33.6789 78.395 34.8009 78.395ZM34.7679 73.918C33.7559 73.918 32.9419 74.633 32.7879 75.733H36.6159C36.5059 74.71 35.9009 73.918 34.7679 73.918ZM39.841 74.424C40.182 73.665 40.996 73.181 42.041 73.181V73.918C40.754 73.918 39.841 74.71 39.841 75.821V79H39.016V73.313H39.841V74.424ZM45.3373 79.132C44.5453 79.132 43.6653 78.835 42.9833 78.285L43.4123 77.68C44.0613 78.153 44.7103 78.395 45.3373 78.395C46.0853 78.395 46.5913 78.043 46.5913 77.504C46.5913 76.888 45.9313 76.69 45.1613 76.47C43.7863 76.074 43.2583 75.667 43.2583 74.853C43.2583 73.819 44.1163 73.181 45.2493 73.181C45.9533 73.181 46.6793 73.423 47.2843 73.819L46.8883 74.457C46.3163 74.094 45.7553 73.918 45.2493 73.918C44.6113 73.918 44.0833 74.204 44.0833 74.754C44.0833 75.249 44.5013 75.403 45.5573 75.744C46.4703 76.03 47.4163 76.338 47.4163 77.416C47.4163 78.461 46.5143 79.132 45.3373 79.132ZM49.6132 80.463L49.2062 80.155C49.5032 79.814 49.6902 79.473 49.7782 79.132C49.4482 79.132 49.1842 78.857 49.1842 78.527C49.1842 78.219 49.4372 77.944 49.7892 77.944C50.2072 77.944 50.4602 78.318 50.4602 78.824C50.4602 79.264 50.2732 79.638 49.6132 80.463ZM58.6135 73.181C59.8785 73.181 60.7475 74.072 60.7475 75.381V79H59.9225V75.491C59.9225 74.556 59.3395 73.918 58.5035 73.918C57.5355 73.918 56.7435 74.578 56.7435 75.381V79H55.9185V73.313H56.7435V74.215C57.0735 73.61 57.7995 73.181 58.6135 73.181ZM66.597 73.313H67.422V79H66.597V78.098C66.267 78.703 65.541 79.132 64.727 79.132C63.462 79.132 62.593 78.241 62.593 76.932V73.313H63.418V76.822C63.418 77.757 64.001 78.395 64.837 78.395C65.805 78.395 66.597 77.735 66.597 76.932V73.313ZM75.6804 73.181C76.8684 73.181 77.7044 74.094 77.7044 75.381V79H76.8794V75.491C76.8794 74.567 76.3404 73.918 75.5704 73.918C74.6684 73.918 74.0304 74.523 74.0304 75.381V79H73.2054V75.491C73.2054 74.567 72.6664 73.918 71.8964 73.918C70.9944 73.918 70.3564 74.523 70.3564 75.381V79H69.5314V73.313H70.3564V74.149C70.6424 73.555 71.2584 73.181 72.0064 73.181C72.9084 73.181 73.6124 73.709 73.8984 74.534C74.0744 73.731 74.7784 73.181 75.6804 73.181ZM82.5824 73.181C84.0784 73.181 85.2004 74.413 85.2004 76.151C85.2004 77.9 84.0784 79.132 82.5824 79.132C81.6694 79.132 80.9434 78.681 80.5144 77.933V79H79.6894V71.311H80.5144V74.38C80.9434 73.632 81.6694 73.181 82.5824 73.181ZM82.4284 78.395C83.5394 78.395 84.3314 77.46 84.3314 76.151C84.3314 74.842 83.5394 73.918 82.4284 73.918C81.3064 73.918 80.5144 74.842 80.5144 76.151C80.5144 77.46 81.3064 78.395 82.4284 78.395ZM89.2698 78.395C89.9408 78.395 90.7108 78.098 91.0628 77.713L91.5688 78.252C91.0738 78.791 90.0728 79.132 89.2808 79.132C87.7628 79.132 86.3988 77.889 86.3988 76.14C86.3988 74.446 87.6748 73.181 89.2038 73.181C90.9198 73.181 91.8988 74.479 91.8988 76.47H87.2458C87.3668 77.581 88.1478 78.395 89.2698 78.395ZM89.2368 73.918C88.2248 73.918 87.4108 74.633 87.2568 75.733H91.0848C90.9748 74.71 90.3698 73.918 89.2368 73.918ZM94.3099 74.424C94.6509 73.665 95.4649 73.181 96.5099 73.181V73.918C95.2229 73.918 94.3099 74.71 94.3099 75.821V79H93.4849V73.313H94.3099V74.424ZM99.8063 79.132C99.0143 79.132 98.1343 78.835 97.4523 78.285L97.8813 77.68C98.5303 78.153 99.1793 78.395 99.8063 78.395C100.554 78.395 101.06 78.043 101.06 77.504C101.06 76.888 100.4 76.69 99.6303 76.47C98.2553 76.074 97.7273 75.667 97.7273 74.853C97.7273 73.819 98.5853 73.181 99.7183 73.181C100.422 73.181 101.148 73.423 101.753 73.819L101.357 74.457C100.785 74.094 100.224 73.918 99.7183 73.918C99.0803 73.918 98.5523 74.204 98.5523 74.754C98.5523 75.249 98.9703 75.403 100.026 75.744C100.939 76.03 101.885 76.338 101.885 77.416C101.885 78.461 100.983 79.132 99.8063 79.132ZM112.921 78.714L112.14 79.077L111.15 78.076C110.523 78.725 109.775 79.132 108.84 79.132C107.498 79.132 106.464 78.318 106.464 76.998C106.464 76.019 107.025 75.304 108.191 74.787C107.762 74.193 107.553 73.687 107.553 73.126C107.553 72.136 108.345 71.355 109.478 71.355C110.49 71.355 111.26 72.158 111.26 73.104C111.26 74.105 110.49 74.578 109.412 75.007C109.929 75.612 110.457 76.184 111.139 76.899C111.469 76.404 111.766 75.832 111.997 75.205L112.712 75.524C112.393 76.228 112.052 76.888 111.667 77.438L112.921 78.714ZM109.478 72.092C108.851 72.092 108.378 72.477 108.378 73.126C108.378 73.522 108.565 73.962 108.972 74.479C109.984 74.083 110.435 73.753 110.435 73.126C110.435 72.543 110.039 72.092 109.478 72.092ZM108.873 78.395C109.533 78.395 110.116 78.076 110.622 77.537C109.72 76.602 109.148 75.975 108.62 75.337C107.795 75.722 107.289 76.272 107.289 76.976C107.289 77.867 108.015 78.395 108.873 78.395ZM119.684 79.132C118.892 79.132 118.012 78.835 117.33 78.285L117.759 77.68C118.408 78.153 119.057 78.395 119.684 78.395C120.432 78.395 120.938 78.043 120.938 77.504C120.938 76.888 120.278 76.69 119.508 76.47C118.133 76.074 117.605 75.667 117.605 74.853C117.605 73.819 118.463 73.181 119.596 73.181C120.3 73.181 121.026 73.423 121.631 73.819L121.235 74.457C120.663 74.094 120.102 73.918 119.596 73.918C118.958 73.918 118.43 74.204 118.43 74.754C118.43 75.249 118.848 75.403 119.904 75.744C120.817 76.03 121.763 76.338 121.763 77.416C121.763 78.461 120.861 79.132 119.684 79.132ZM123.872 80.98C123.542 80.98 123.234 80.914 122.97 80.793L123.168 80.089C123.366 80.188 123.597 80.232 123.839 80.232C124.202 80.232 124.444 80.111 124.664 79.726L124.994 79.022L122.519 73.313H123.432L125.423 78.043L127.304 73.313H128.195L125.599 79.638C125.203 80.606 124.653 80.969 123.872 80.98ZM135.624 73.181C136.812 73.181 137.648 74.094 137.648 75.381V79H136.823V75.491C136.823 74.567 136.284 73.918 135.514 73.918C134.612 73.918 133.974 74.523 133.974 75.381V79H133.149V75.491C133.149 74.567 132.61 73.918 131.84 73.918C130.938 73.918 130.3 74.523 130.3 75.381V79H129.475V73.313H130.3V74.149C130.586 73.555 131.202 73.181 131.95 73.181C132.852 73.181 133.556 73.709 133.842 74.534C134.018 73.731 134.722 73.181 135.624 73.181ZM142.526 73.181C144.022 73.181 145.144 74.413 145.144 76.151C145.144 77.9 144.022 79.132 142.526 79.132C141.613 79.132 140.887 78.681 140.458 77.933V79H139.633V71.311H140.458V74.38C140.887 73.632 141.613 73.181 142.526 73.181ZM142.372 78.395C143.483 78.395 144.275 77.46 144.275 76.151C144.275 74.842 143.483 73.918 142.372 73.918C141.25 73.918 140.458 74.842 140.458 76.151C140.458 77.46 141.25 78.395 142.372 78.395ZM149.257 79.132C147.64 79.132 146.32 77.79 146.32 76.151C146.32 74.512 147.64 73.181 149.257 73.181C150.863 73.181 152.183 74.512 152.183 76.151C152.183 77.79 150.863 79.132 149.257 79.132ZM149.257 78.395C150.39 78.395 151.325 77.383 151.325 76.151C151.325 74.919 150.39 73.918 149.257 73.918C148.113 73.918 147.178 74.919 147.178 76.151C147.178 77.383 148.113 78.395 149.257 78.395ZM153.804 79V71.311H154.629V79H153.804ZM158.504 79.132C157.712 79.132 156.832 78.835 156.15 78.285L156.579 77.68C157.228 78.153 157.877 78.395 158.504 78.395C159.252 78.395 159.758 78.043 159.758 77.504C159.758 76.888 159.098 76.69 158.328 76.47C156.953 76.074 156.425 75.667 156.425 74.853C156.425 73.819 157.283 73.181 158.416 73.181C159.12 73.181 159.846 73.423 160.451 73.819L160.055 74.457C159.483 74.094 158.922 73.918 158.416 73.918C157.778 73.918 157.25 74.204 157.25 74.754C157.25 75.249 157.668 75.403 158.724 75.744C159.637 76.03 160.583 76.338 160.583 77.416C160.583 78.461 159.681 79.132 158.504 79.132Z" fill="#E02200"/>
<path d="M1.235 12V3.069H5.122C7.02 3.069 8.463 4.291 8.463 6.033C8.463 7.775 7.02 8.997 5.122 8.997H2.847V12H1.235ZM2.847 7.502H4.927C6.032 7.502 6.799 6.943 6.799 6.033C6.799 5.123 6.032 4.564 4.927 4.564H2.847V7.502ZM12.58 5.123C14.361 5.123 15.453 6.254 15.453 7.957V12H13.906V11.207C13.412 11.818 12.58 12.156 11.8 12.156C10.37 12.156 9.30398 11.311 9.30398 10.011C9.30398 8.685 10.513 7.775 12.034 7.775C12.645 7.775 13.295 7.905 13.906 8.126V7.957C13.906 7.177 13.49 6.423 12.268 6.423C11.631 6.423 11.02 6.644 10.448 6.93L9.90198 5.825C10.851 5.357 11.735 5.123 12.58 5.123ZM12.151 10.999C12.918 10.999 13.737 10.609 13.906 9.894V9.127C13.412 8.971 12.853 8.88 12.268 8.88C11.475 8.88 10.825 9.322 10.825 9.959C10.825 10.596 11.397 10.999 12.151 10.999ZM19.5173 12.156C18.4903 12.156 17.3853 11.792 16.5663 11.155L17.2423 10.115C17.9703 10.635 18.8153 10.934 19.5433 10.934C20.2583 10.934 20.6873 10.635 20.6873 10.167C20.6873 9.634 20.0633 9.452 19.2703 9.244C17.8013 8.854 16.8783 8.451 16.8783 7.229C16.8783 5.981 17.9183 5.123 19.4133 5.123C20.3363 5.123 21.2463 5.448 21.9873 5.929L21.3633 6.995C20.7393 6.592 20.0373 6.332 19.4133 6.332C18.8283 6.332 18.3603 6.605 18.3603 7.073C18.3603 7.515 18.7763 7.632 19.7903 7.944C20.9343 8.256 22.1563 8.633 22.1563 10.024C22.1563 11.324 21.0773 12.156 19.5173 12.156ZM25.8412 12.156C24.8142 12.156 23.7092 11.792 22.8902 11.155L23.5662 10.115C24.2942 10.635 25.1392 10.934 25.8672 10.934C26.5822 10.934 27.0112 10.635 27.0112 10.167C27.0112 9.634 26.3872 9.452 25.5942 9.244C24.1252 8.854 23.2022 8.451 23.2022 7.229C23.2022 5.981 24.2422 5.123 25.7372 5.123C26.6602 5.123 27.5702 5.448 28.3112 5.929L27.6872 6.995C27.0632 6.592 26.3612 6.332 25.7372 6.332C25.1522 6.332 24.6842 6.605 24.6842 7.073C24.6842 7.515 25.1002 7.632 26.1142 7.944C27.2582 8.256 28.4802 8.633 28.4802 10.024C28.4802 11.324 27.4012 12.156 25.8412 12.156ZM31.333 12L29.058 5.279H30.644L32.048 9.868L33.543 5.279H34.869L36.364 9.868L37.768 5.279H39.354L37.079 12H35.636L34.206 7.398L32.776 12H31.333ZM43.5468 12.156C41.5578 12.156 39.9328 10.57 39.9328 8.633C39.9328 6.696 41.5578 5.123 43.5468 5.123C45.5228 5.123 47.1348 6.696 47.1348 8.633C47.1348 10.57 45.5228 12.156 43.5468 12.156ZM43.5468 10.804C44.6648 10.804 45.5878 9.829 45.5878 8.633C45.5878 7.437 44.6648 6.475 43.5468 6.475C42.4158 6.475 41.4928 7.437 41.4928 8.633C41.4928 9.829 42.4158 10.804 43.5468 10.804ZM50.0892 6.553C50.5182 5.682 51.4022 5.123 52.4942 5.123V6.475C51.0512 6.475 50.0892 7.333 50.0892 8.607V12H48.5032V5.279H50.0892V6.553ZM58.8028 2.913H60.3888V12H58.8028V10.934C58.2828 11.701 57.4638 12.156 56.4758 12.156C54.6818 12.156 53.3818 10.7 53.3818 8.633C53.3818 6.579 54.6818 5.123 56.4758 5.123C57.4638 5.123 58.2828 5.578 58.8028 6.332V2.913ZM56.8918 10.804C58.0098 10.804 58.7898 9.894 58.7898 8.633C58.7898 7.372 58.0098 6.475 56.8918 6.475C55.7608 6.475 54.9548 7.372 54.9548 8.633C54.9548 9.894 55.7608 10.804 56.8918 10.804Z" fill="#22343C"/>
</svg>
