<svg width="396" height="396" viewBox="0 0 396 396" fill="none" xmlns="http://www.w3.org/2000/svg">
<path d="M22 11.5H121C122.933 11.5 124.5 13.067 124.5 15V43C124.5 44.933 122.933 46.5 121 46.5H22C20.067 46.5 18.5 44.933 18.5 43V15C18.5 13.067 20.067 11.5 22 11.5Z" stroke="#0079AD"/>
<path d="M31.14 33V24.756H35.184C36.612 24.756 37.608 25.62 37.608 26.82C37.608 27.66 37.176 28.248 36.444 28.644C37.392 29.1 37.956 29.856 37.956 30.756C37.956 32.076 36.864 33 35.328 33H31.14ZM32.628 28.128H34.812C35.544 28.128 36.072 27.696 36.072 27.096C36.072 26.484 35.544 26.052 34.812 26.052H32.628V28.128ZM32.628 31.704H35.04C35.844 31.704 36.42 31.212 36.42 30.528C36.42 29.844 35.844 29.352 35.04 29.352H32.628V31.704ZM44.1501 33.144C42.0261 33.144 40.5141 31.632 40.5141 29.484V24.756H42.0141V29.436C42.0141 30.804 42.9021 31.788 44.1501 31.788C45.4101 31.788 46.2981 30.804 46.2981 29.436V24.756H47.7861V29.484C47.7861 31.632 46.2861 33.144 44.1501 33.144ZM52.7068 33V26.124H50.0668V24.756H56.8348V26.124H54.2068V33H52.7068ZM61.1833 33V26.124H58.5433V24.756H65.3113V26.124H62.6833V33H61.1833ZM71.5919 33.144C69.2519 33.144 67.2719 31.188 67.2719 28.872C67.2719 26.556 69.2519 24.612 71.5919 24.612C73.9439 24.612 75.9239 26.556 75.9239 28.872C75.9239 31.188 73.9439 33.144 71.5919 33.144ZM71.5919 31.776C73.1159 31.776 74.3879 30.456 74.3879 28.872C74.3879 27.3 73.1159 25.98 71.5919 25.98C70.0799 25.98 68.7959 27.3 68.7959 28.872C68.7959 30.456 70.0799 31.776 71.5919 31.776ZM78.6673 33V24.756H80.1553L84.5113 30.552V24.756H85.9993V33H84.5113L80.1553 27.204V33H78.6673Z" fill="#0079AD"/>
<path d="M110.12 26.9915L105 32.2893L99.88 26.9915C99.5904 26.6908 99.5993 26.2123 99.9 25.9226C100.201 25.633 100.679 25.642 100.969 25.9426L105 30.116L109.036 25.9426C109.325 25.642 109.804 25.633 110.104 25.9226C110.405 26.2123 110.414 26.6908 110.124 26.9915H110.12Z" fill="#0079AD"/>
<g opacity="0.2">
<rect width="12" height="55" transform="translate(18)" fill="#D23292"/>
</g>
<g opacity="0.2">
<rect width="12" height="55" transform="translate(113)" fill="#D23292"/>
</g>
<g opacity="0.2">
<rect width="8" height="55" transform="translate(89)" fill="#D23292"/>
</g>
<g clip-path="url(#clip0_1_3212)">
<path d="M42.18 170.24C38.34 170.24 35.06 166.98 35.06 163.12C35.06 159.26 38.34 156.02 42.18 156.02C44.14 156.02 45.96 156.84 47.26 158.18L45.84 159.54C44.9 158.54 43.6 157.88 42.18 157.88C39.44 157.88 37.12 160.28 37.12 163.12C37.12 165.98 39.44 168.38 42.18 168.38C43.6 168.38 44.9 167.72 45.84 166.72L47.26 168.08C45.96 169.4 44.14 170.24 42.18 170.24ZM53.3048 159.42C56.0848 159.42 57.6248 161.18 57.6248 163.74V170H55.6848V168.6C54.9248 169.66 53.5248 170.24 52.2448 170.24C50.0648 170.24 48.4248 168.96 48.4248 166.94C48.4248 164.88 50.2848 163.5 52.5648 163.5C53.5848 163.5 54.6848 163.72 55.6848 164.06V163.74C55.6848 162.44 55.0848 161.06 53.0248 161.06C52.0048 161.06 51.0248 161.46 50.1248 161.92L49.3848 160.46C50.8648 159.72 52.1648 159.42 53.3048 159.42ZM52.6448 168.68C53.9248 168.68 55.3448 168.04 55.6848 166.76V165.38C54.8248 165.12 53.8848 164.98 52.8648 164.98C51.4848 164.98 50.3248 165.76 50.3248 166.88C50.3248 168 51.3248 168.68 52.6448 168.68ZM62.4344 161.68C63.0744 160.3 64.4744 159.42 66.2744 159.42V161.14C63.9944 161.14 62.4344 162.5 62.4344 164.5V170H60.4544V159.66H62.4344V161.68ZM76.0789 156.02H78.0589V170H76.0789V168.24C75.2789 169.48 73.9989 170.24 72.4189 170.24C69.6789 170.24 67.6589 168 67.6589 164.82C67.6589 161.66 69.6789 159.42 72.4189 159.42C73.9989 159.42 75.2789 160.18 76.0789 161.42V156.02ZM72.8789 168.52C74.7589 168.52 76.0789 166.98 76.0789 164.82C76.0789 162.66 74.7589 161.14 72.8789 161.14C70.9989 161.14 69.6589 162.66 69.6589 164.82C69.6589 166.98 70.9989 168.52 72.8789 168.52ZM89.8178 170V158.14H85.2978V156.26H96.3378V158.14H91.8378V170H89.8178ZM99.3067 157.94C98.6467 157.94 98.1067 157.38 98.1067 156.74C98.1067 156.12 98.6467 155.56 99.3067 155.56C99.9667 155.56 100.487 156.12 100.487 156.74C100.487 157.38 99.9667 157.94 99.3067 157.94ZM98.3067 170V159.66H100.287V170H98.3067ZM107.742 168.14L108.482 169.5C107.922 169.96 107.142 170.24 106.402 170.24C104.802 170.24 103.682 169.08 103.682 167.42V161.34H102.142V159.66H103.682V156.82H105.622V159.66H108.062V161.34H105.622V167.28C105.622 168 106.122 168.52 106.702 168.52C107.142 168.52 107.542 168.36 107.742 168.14ZM110.348 170V156.02H112.328V170H110.348ZM119.863 168.6C120.983 168.6 122.283 168.1 122.923 167.42L124.083 168.64C123.183 169.62 121.363 170.24 119.903 170.24C117.043 170.24 114.563 167.98 114.563 164.8C114.563 161.7 116.903 159.42 119.763 159.42C122.923 159.42 124.763 161.78 124.763 165.46H116.503C116.743 167.28 118.023 168.6 119.863 168.6ZM119.803 161.06C118.143 161.06 116.823 162.22 116.523 164H122.843C122.643 162.34 121.603 161.06 119.803 161.06Z" fill="#22343C"/>
<rect x="18" y="192" width="361" height="1" fill="#CBD4D8"/>
<path d="M43.232 215.008H44.848V226H43.232V221.152H37.248V226H35.632V215.008H37.248V219.648H43.232V215.008ZM51.1804 224.88C52.0764 224.88 53.1164 224.48 53.6284 223.936L54.5564 224.912C53.8364 225.696 52.3804 226.192 51.2124 226.192C48.9244 226.192 46.9404 224.384 46.9404 221.84C46.9404 219.36 48.8124 217.536 51.1004 217.536C53.6284 217.536 55.1004 219.424 55.1004 222.368H48.4924C48.6844 223.824 49.7084 224.88 51.1804 224.88ZM51.1324 218.848C49.8044 218.848 48.7484 219.776 48.5084 221.2H53.5644C53.4044 219.872 52.5724 218.848 51.1324 218.848ZM59.8914 217.536C62.1154 217.536 63.3474 218.944 63.3474 220.992V226H61.7954V224.88C61.1874 225.728 60.0674 226.192 59.0434 226.192C57.2994 226.192 55.9874 225.168 55.9874 223.552C55.9874 221.904 57.4754 220.8 59.2994 220.8C60.1154 220.8 60.9954 220.976 61.7954 221.248V220.992C61.7954 219.952 61.3154 218.848 59.6674 218.848C58.8514 218.848 58.0674 219.168 57.3474 219.536L56.7554 218.368C57.9394 217.776 58.9794 217.536 59.8914 217.536ZM59.3634 224.944C60.3874 224.944 61.5234 224.432 61.7954 223.408V222.304C61.1074 222.096 60.3554 221.984 59.5394 221.984C58.4354 221.984 57.5074 222.608 57.5074 223.504C57.5074 224.4 58.3074 224.944 59.3634 224.944ZM71.715 214.816H73.299V226H71.715V224.592C71.075 225.584 70.051 226.192 68.787 226.192C66.595 226.192 64.979 224.4 64.979 221.856C64.979 219.328 66.595 217.536 68.787 217.536C70.051 217.536 71.075 218.144 71.715 219.136V214.816ZM69.155 224.816C70.659 224.816 71.715 223.584 71.715 221.856C71.715 220.128 70.659 218.912 69.155 218.912C67.651 218.912 66.579 220.128 66.579 221.856C66.579 223.584 67.651 224.816 69.155 224.816ZM76.4835 216.352C75.9555 216.352 75.5235 215.904 75.5235 215.392C75.5235 214.896 75.9555 214.448 76.4835 214.448C77.0115 214.448 77.4275 214.896 77.4275 215.392C77.4275 215.904 77.0115 216.352 76.4835 216.352ZM75.6835 226V217.728H77.2675V226H75.6835ZM83.8794 217.536C85.7034 217.536 86.9674 218.832 86.9674 220.736V226H85.4314V221.008C85.4314 219.76 84.6474 218.912 83.5274 218.912C82.2634 218.912 81.2394 219.776 81.2394 220.864V226H79.6554V217.728H81.2394V218.944C81.7194 218.112 82.7434 217.536 83.8794 217.536ZM95.2057 217.728H96.7898V225.12C96.7898 227.248 95.0457 228.752 92.5977 228.752C91.2057 228.752 89.9257 228.288 89.1417 227.648L89.7657 226.464C90.3737 227.04 91.3657 227.376 92.3737 227.376C94.1337 227.376 95.2057 226.528 95.2057 225.088V223.888C94.5497 224.832 93.5257 225.392 92.2937 225.392C90.1017 225.392 88.5177 223.76 88.5177 221.456C88.5177 219.152 90.1017 217.536 92.2937 217.536C93.5257 217.536 94.5817 218.112 95.2057 219.04V217.728ZM92.6777 224.016C94.1657 224.016 95.2057 222.96 95.2057 221.456C95.2057 219.968 94.1657 218.912 92.6777 218.912C91.2217 218.912 90.1657 219.968 90.1657 221.456C90.1657 222.96 91.2217 224.016 92.6777 224.016Z" fill="#22343C"/>
<path d="M36.618 261.964H41.868V263H35.526V253.382H36.618V261.964ZM46.4428 263.168C44.3848 263.168 42.7048 261.46 42.7048 259.374C42.7048 257.288 44.3848 255.594 46.4428 255.594C48.4868 255.594 50.1668 257.288 50.1668 259.374C50.1668 261.46 48.4868 263.168 46.4428 263.168ZM46.4428 262.23C47.8848 262.23 49.0748 260.942 49.0748 259.374C49.0748 257.806 47.8848 256.532 46.4428 256.532C44.9868 256.532 43.7968 257.806 43.7968 259.374C43.7968 260.942 44.9868 262.23 46.4428 262.23ZM52.9254 257.176C53.3594 256.21 54.3954 255.594 55.7254 255.594V256.532C54.0874 256.532 52.9254 257.54 52.9254 258.954V263H51.8754V255.762H52.9254V257.176ZM60.3782 262.23C61.2322 262.23 62.2122 261.852 62.6602 261.362L63.3042 262.048C62.6742 262.734 61.4002 263.168 60.3922 263.168C58.4602 263.168 56.7242 261.586 56.7242 259.36C56.7242 257.204 58.3482 255.594 60.2942 255.594C62.4782 255.594 63.7242 257.246 63.7242 259.78H57.8022C57.9562 261.194 58.9502 262.23 60.3782 262.23ZM60.3362 256.532C59.0482 256.532 58.0122 257.442 57.8162 258.842H62.6882C62.5482 257.54 61.7782 256.532 60.3362 256.532ZM73.2143 255.594C74.7263 255.594 75.7903 256.756 75.7903 258.394V263H74.7403V258.534C74.7403 257.358 74.0543 256.532 73.0743 256.532C71.9263 256.532 71.1143 257.302 71.1143 258.394V263H70.0643V258.534C70.0643 257.358 69.3783 256.532 68.3983 256.532C67.2503 256.532 66.4383 257.302 66.4383 258.394V263H65.3883V255.762H66.4383V256.826C66.8023 256.07 67.5863 255.594 68.5383 255.594C69.6863 255.594 70.5823 256.266 70.9463 257.316C71.1703 256.294 72.0663 255.594 73.2143 255.594ZM82.2496 254.446C81.8576 254.446 81.5496 254.124 81.5496 253.746C81.5496 253.382 81.8576 253.06 82.2496 253.06C82.6276 253.06 82.9356 253.382 82.9356 253.746C82.9356 254.124 82.6276 254.446 82.2496 254.446ZM81.7176 263V255.762H82.7676V263H81.7176ZM88.7859 255.594C90.6899 255.594 92.1179 257.162 92.1179 259.374C92.1179 261.6 90.6899 263.168 88.7859 263.168C87.6239 263.168 86.6999 262.594 86.1539 261.642V265.408H85.1039V255.762H86.1539V257.12C86.6999 256.168 87.6239 255.594 88.7859 255.594ZM88.5899 262.23C90.0039 262.23 91.0119 261.04 91.0119 259.374C91.0119 257.708 90.0039 256.532 88.5899 256.532C87.1619 256.532 86.1539 257.708 86.1539 259.374C86.1539 261.04 87.1619 262.23 88.5899 262.23ZM96.1307 263.168C95.1227 263.168 94.0027 262.79 93.1347 262.09L93.6807 261.32C94.5067 261.922 95.3327 262.23 96.1307 262.23C97.0827 262.23 97.7267 261.782 97.7267 261.096C97.7267 260.312 96.8867 260.06 95.9067 259.78C94.1567 259.276 93.4847 258.758 93.4847 257.722C93.4847 256.406 94.5767 255.594 96.0187 255.594C96.9147 255.594 97.8387 255.902 98.6087 256.406L98.1047 257.218C97.3767 256.756 96.6627 256.532 96.0187 256.532C95.2067 256.532 94.5347 256.896 94.5347 257.596C94.5347 258.226 95.0667 258.422 96.4107 258.856C97.5727 259.22 98.7767 259.612 98.7767 260.984C98.7767 262.314 97.6287 263.168 96.1307 263.168ZM105.404 255.762H106.454V263H105.404V261.852C104.984 262.622 104.06 263.168 103.024 263.168C101.414 263.168 100.308 262.034 100.308 260.368V255.762H101.358V260.228C101.358 261.418 102.1 262.23 103.164 262.23C104.396 262.23 105.404 261.39 105.404 260.368V255.762ZM116.61 255.594C118.122 255.594 119.186 256.756 119.186 258.394V263H118.136V258.534C118.136 257.358 117.45 256.532 116.47 256.532C115.322 256.532 114.51 257.302 114.51 258.394V263H113.46V258.534C113.46 257.358 112.774 256.532 111.794 256.532C110.646 256.532 109.834 257.302 109.834 258.394V263H108.784V255.762H109.834V256.826C110.198 256.07 110.982 255.594 111.934 255.594C113.082 255.594 113.978 256.266 114.342 257.316C114.566 256.294 115.462 255.594 116.61 255.594ZM130.518 253.214H131.568V263H130.518V261.642C129.972 262.594 129.048 263.168 127.886 263.168C125.982 263.168 124.554 261.6 124.554 259.374C124.554 257.162 125.982 255.594 127.886 255.594C129.048 255.594 129.972 256.168 130.518 257.12V253.214ZM128.082 262.23C129.51 262.23 130.518 261.04 130.518 259.374C130.518 257.708 129.51 256.532 128.082 256.532C126.668 256.532 125.66 257.708 125.66 259.374C125.66 261.04 126.668 262.23 128.082 262.23ZM137.008 263.168C134.95 263.168 133.27 261.46 133.27 259.374C133.27 257.288 134.95 255.594 137.008 255.594C139.052 255.594 140.732 257.288 140.732 259.374C140.732 261.46 139.052 263.168 137.008 263.168ZM137.008 262.23C138.45 262.23 139.64 260.942 139.64 259.374C139.64 257.806 138.45 256.532 137.008 256.532C135.552 256.532 134.362 257.806 134.362 259.374C134.362 260.942 135.552 262.23 137.008 262.23ZM142.441 263V253.214H143.491V263H142.441ZM148.935 263.168C146.877 263.168 145.197 261.46 145.197 259.374C145.197 257.288 146.877 255.594 148.935 255.594C150.979 255.594 152.659 257.288 152.659 259.374C152.659 261.46 150.979 263.168 148.935 263.168ZM148.935 262.23C150.377 262.23 151.567 260.942 151.567 259.374C151.567 257.806 150.377 256.532 148.935 256.532C147.479 256.532 146.289 257.806 146.289 259.374C146.289 260.942 147.479 262.23 148.935 262.23ZM155.418 257.176C155.852 256.21 156.888 255.594 158.218 255.594V256.532C156.58 256.532 155.418 257.54 155.418 258.954V263H154.368V255.762H155.418V257.176ZM165.814 263.168C164.806 263.168 163.686 262.79 162.818 262.09L163.364 261.32C164.19 261.922 165.016 262.23 165.814 262.23C166.766 262.23 167.41 261.782 167.41 261.096C167.41 260.312 166.57 260.06 165.59 259.78C163.84 259.276 163.168 258.758 163.168 257.722C163.168 256.406 164.26 255.594 165.702 255.594C166.598 255.594 167.522 255.902 168.292 256.406L167.788 257.218C167.06 256.756 166.346 256.532 165.702 256.532C164.89 256.532 164.218 256.896 164.218 257.596C164.218 258.226 164.75 258.422 166.094 258.856C167.256 259.22 168.46 259.612 168.46 260.984C168.46 262.314 167.312 263.168 165.814 263.168ZM170.692 254.446C170.3 254.446 169.992 254.124 169.992 253.746C169.992 253.382 170.3 253.06 170.692 253.06C171.07 253.06 171.378 253.382 171.378 253.746C171.378 254.124 171.07 254.446 170.692 254.446ZM170.16 263V255.762H171.21V263H170.16ZM176.346 261.936L176.864 262.706C176.486 263 176.01 263.168 175.52 263.168C174.484 263.168 173.756 262.398 173.756 261.32V256.7H172.622V255.762H173.756V253.774H174.806V255.762H176.584V256.7H174.806V261.32C174.806 261.852 175.17 262.23 175.59 262.23C175.912 262.23 176.192 262.104 176.346 261.936ZM184.618 255.594C186.592 255.594 187.558 256.84 187.558 258.59V263H186.508V261.866C185.99 262.72 184.912 263.168 183.96 263.168C182.434 263.168 181.314 262.286 181.314 260.858C181.314 259.416 182.602 258.45 184.156 258.45C184.94 258.45 185.766 258.618 186.508 258.856V258.59C186.508 257.61 186.116 256.49 184.548 256.49C183.82 256.49 183.092 256.812 182.434 257.148L182.014 256.294C183.05 255.776 183.918 255.594 184.618 255.594ZM184.142 262.244C185.094 262.244 186.228 261.754 186.508 260.732V259.626C185.85 259.444 185.108 259.332 184.324 259.332C183.246 259.332 182.336 259.948 182.336 260.816C182.336 261.712 183.12 262.244 184.142 262.244ZM197.547 255.594C199.059 255.594 200.123 256.756 200.123 258.394V263H199.073V258.534C199.073 257.358 198.387 256.532 197.407 256.532C196.259 256.532 195.447 257.302 195.447 258.394V263H194.397V258.534C194.397 257.358 193.711 256.532 192.731 256.532C191.583 256.532 190.771 257.302 190.771 258.394V263H189.721V255.762H190.771V256.826C191.135 256.07 191.919 255.594 192.871 255.594C194.019 255.594 194.915 256.266 195.279 257.316C195.503 256.294 196.399 255.594 197.547 255.594ZM205.347 262.23C206.201 262.23 207.181 261.852 207.629 261.362L208.273 262.048C207.643 262.734 206.369 263.168 205.361 263.168C203.429 263.168 201.693 261.586 201.693 259.36C201.693 257.204 203.317 255.594 205.263 255.594C207.447 255.594 208.693 257.246 208.693 259.78H202.771C202.925 261.194 203.919 262.23 205.347 262.23ZM205.305 256.532C204.017 256.532 202.981 257.442 202.785 258.842H207.657C207.517 257.54 206.747 256.532 205.305 256.532ZM213.157 261.936L213.675 262.706C213.297 263 212.821 263.168 212.331 263.168C211.295 263.168 210.567 262.398 210.567 261.32V256.7H209.433V255.762H210.567V253.774H211.617V255.762H213.395V256.7H211.617V261.32C211.617 261.852 211.981 262.23 212.401 262.23C212.723 262.23 213.003 262.104 213.157 261.936ZM221.946 263.168C219.916 263.168 218.194 261.432 218.194 259.374C218.194 257.316 219.916 255.594 221.946 255.594C222.926 255.594 223.836 256 224.522 256.658L223.794 257.372C223.318 256.854 222.66 256.532 221.946 256.532C220.504 256.532 219.3 257.834 219.3 259.374C219.3 260.928 220.504 262.23 221.946 262.23C222.674 262.23 223.346 261.894 223.836 261.348L224.564 262.062C223.878 262.748 222.954 263.168 221.946 263.168ZM229.106 263.168C227.048 263.168 225.368 261.46 225.368 259.374C225.368 257.288 227.048 255.594 229.106 255.594C231.15 255.594 232.83 257.288 232.83 259.374C232.83 261.46 231.15 263.168 229.106 263.168ZM229.106 262.23C230.548 262.23 231.738 260.942 231.738 259.374C231.738 257.806 230.548 256.532 229.106 256.532C227.65 256.532 226.46 257.806 226.46 259.374C226.46 260.942 227.65 262.23 229.106 262.23ZM237.969 255.594C239.579 255.594 240.685 256.728 240.685 258.394V263H239.635V258.534C239.635 257.344 238.893 256.532 237.829 256.532C236.597 256.532 235.589 257.372 235.589 258.394V263H234.539V255.762H235.589V256.91C236.009 256.14 236.933 255.594 237.969 255.594ZM245.087 263.168C244.079 263.168 242.959 262.79 242.091 262.09L242.637 261.32C243.463 261.922 244.289 262.23 245.087 262.23C246.039 262.23 246.683 261.782 246.683 261.096C246.683 260.312 245.843 260.06 244.863 259.78C243.113 259.276 242.441 258.758 242.441 257.722C242.441 256.406 243.533 255.594 244.975 255.594C245.871 255.594 246.795 255.902 247.565 256.406L247.061 257.218C246.333 256.756 245.619 256.532 244.975 256.532C244.163 256.532 243.491 256.896 243.491 257.596C243.491 258.226 244.023 258.422 245.367 258.856C246.529 259.22 247.733 259.612 247.733 260.984C247.733 262.314 246.585 263.168 245.087 263.168ZM252.484 262.23C253.338 262.23 254.318 261.852 254.766 261.362L255.41 262.048C254.78 262.734 253.506 263.168 252.498 263.168C250.566 263.168 248.83 261.586 248.83 259.36C248.83 257.204 250.454 255.594 252.4 255.594C254.584 255.594 255.83 257.246 255.83 259.78H249.908C250.062 261.194 251.056 262.23 252.484 262.23ZM252.442 256.532C251.154 256.532 250.118 257.442 249.922 258.842H254.794C254.654 257.54 253.884 256.532 252.442 256.532ZM260.603 263.168C258.573 263.168 256.851 261.432 256.851 259.374C256.851 257.316 258.573 255.594 260.603 255.594C261.583 255.594 262.493 256 263.179 256.658L262.451 257.372C261.975 256.854 261.317 256.532 260.603 256.532C259.161 256.532 257.957 257.834 257.957 259.374C257.957 260.928 259.161 262.23 260.603 262.23C261.331 262.23 262.003 261.894 262.493 261.348L263.221 262.062C262.535 262.748 261.611 263.168 260.603 263.168ZM267.454 261.936L267.972 262.706C267.594 263 267.118 263.168 266.628 263.168C265.592 263.168 264.864 262.398 264.864 261.32V256.7H263.73V255.762H264.864V253.774H265.914V255.762H267.692V256.7H265.914V261.32C265.914 261.852 266.278 262.23 266.698 262.23C267.02 262.23 267.3 262.104 267.454 261.936ZM272.433 262.23C273.287 262.23 274.267 261.852 274.715 261.362L275.359 262.048C274.729 262.734 273.455 263.168 272.447 263.168C270.515 263.168 268.779 261.586 268.779 259.36C268.779 257.204 270.403 255.594 272.349 255.594C274.533 255.594 275.779 257.246 275.779 259.78H269.857C270.011 261.194 271.005 262.23 272.433 262.23ZM272.391 256.532C271.103 256.532 270.067 257.442 269.871 258.842H274.743C274.603 257.54 273.833 256.532 272.391 256.532ZM280.243 261.936L280.761 262.706C280.383 263 279.907 263.168 279.417 263.168C278.381 263.168 277.653 262.398 277.653 261.32V256.7H276.519V255.762H277.653V253.774H278.703V255.762H280.481V256.7H278.703V261.32C278.703 261.852 279.067 262.23 279.487 262.23C279.809 262.23 280.089 262.104 280.243 261.936ZM287.097 255.762H288.147V263H287.097V261.852C286.677 262.622 285.753 263.168 284.717 263.168C283.107 263.168 282.001 262.034 282.001 260.368V255.762H283.051V260.228C283.051 261.418 283.793 262.23 284.857 262.23C286.089 262.23 287.097 261.39 287.097 260.368V255.762ZM291.527 257.176C291.961 256.21 292.997 255.594 294.327 255.594V256.532C292.689 256.532 291.527 257.54 291.527 258.954V263H290.477V255.762H291.527V257.176ZM296.992 263.168C296.558 263.168 296.222 262.818 296.222 262.398C296.222 262.006 296.558 261.656 296.992 261.656C297.398 261.656 297.734 262.006 297.734 262.398C297.734 262.818 297.398 263.168 296.992 263.168ZM311.738 253.382H312.928L308.686 263H307.496L303.254 253.382H304.444L308.098 261.656L311.738 253.382ZM314.931 254.446C314.539 254.446 314.231 254.124 314.231 253.746C314.231 253.382 314.539 253.06 314.931 253.06C315.309 253.06 315.617 253.382 315.617 253.746C315.617 254.124 315.309 254.446 314.931 254.446ZM314.399 263V255.762H315.449V263H314.399ZM320.586 261.936L321.104 262.706C320.726 263 320.25 263.168 319.76 263.168C318.724 263.168 317.996 262.398 317.996 261.32V256.7H316.862V255.762H317.996V253.774H319.046V255.762H320.824V256.7H319.046V261.32C319.046 261.852 319.41 262.23 319.83 262.23C320.152 262.23 320.432 262.104 320.586 261.936ZM325.102 255.594C327.076 255.594 328.042 256.84 328.042 258.59V263H326.992V261.866C326.474 262.72 325.396 263.168 324.444 263.168C322.918 263.168 321.798 262.286 321.798 260.858C321.798 259.416 323.086 258.45 324.64 258.45C325.424 258.45 326.25 258.618 326.992 258.856V258.59C326.992 257.61 326.6 256.49 325.032 256.49C324.304 256.49 323.576 256.812 322.918 257.148L322.498 256.294C323.534 255.776 324.402 255.594 325.102 255.594ZM324.626 262.244C325.578 262.244 326.712 261.754 326.992 260.732V259.626C326.334 259.444 325.592 259.332 324.808 259.332C323.73 259.332 322.82 259.948 322.82 260.816C322.82 261.712 323.604 262.244 324.626 262.244ZM333.257 262.23C334.111 262.23 335.091 261.852 335.539 261.362L336.183 262.048C335.553 262.734 334.279 263.168 333.271 263.168C331.339 263.168 329.603 261.586 329.603 259.36C329.603 257.204 331.227 255.594 333.173 255.594C335.357 255.594 336.603 257.246 336.603 259.78H330.681C330.835 261.194 331.829 262.23 333.257 262.23ZM333.215 256.532C331.927 256.532 330.891 257.442 330.695 258.842H335.567C335.427 257.54 334.657 256.532 333.215 256.532ZM40.622 273.214H41.672V283H40.622V281.642C40.076 282.594 39.152 283.168 37.99 283.168C36.086 283.168 34.658 281.6 34.658 279.374C34.658 277.162 36.086 275.594 37.99 275.594C39.152 275.594 40.076 276.168 40.622 277.12V273.214ZM38.186 282.23C39.614 282.23 40.622 281.04 40.622 279.374C40.622 277.708 39.614 276.532 38.186 276.532C36.772 276.532 35.764 277.708 35.764 279.374C35.764 281.04 36.772 282.23 38.186 282.23ZM44.5367 274.446C44.1447 274.446 43.8367 274.124 43.8367 273.746C43.8367 273.382 44.1447 273.06 44.5367 273.06C44.9147 273.06 45.2227 273.382 45.2227 273.746C45.2227 274.124 44.9147 274.446 44.5367 274.446ZM44.0047 283V275.762H45.0547V283H44.0047ZM49.981 275.594C51.955 275.594 52.921 276.84 52.921 278.59V283H51.871V281.866C51.353 282.72 50.275 283.168 49.323 283.168C47.797 283.168 46.677 282.286 46.677 280.858C46.677 279.416 47.965 278.45 49.519 278.45C50.303 278.45 51.129 278.618 51.871 278.856V278.59C51.871 277.61 51.479 276.49 49.911 276.49C49.183 276.49 48.455 276.812 47.797 277.148L47.377 276.294C48.413 275.776 49.281 275.594 49.981 275.594ZM49.505 282.244C50.457 282.244 51.591 281.754 51.871 280.732V279.626C51.213 279.444 50.471 279.332 49.687 279.332C48.609 279.332 47.699 279.948 47.699 280.816C47.699 281.712 48.483 282.244 49.505 282.244ZM62.91 275.594C64.422 275.594 65.486 276.756 65.486 278.394V283H64.436V278.534C64.436 277.358 63.75 276.532 62.77 276.532C61.622 276.532 60.81 277.302 60.81 278.394V283H59.76V278.534C59.76 277.358 59.074 276.532 58.094 276.532C56.946 276.532 56.134 277.302 56.134 278.394V283H55.084V275.762H56.134V276.826C56.498 276.07 57.282 275.594 58.234 275.594C59.382 275.594 60.278 276.266 60.642 277.316C60.866 276.294 61.762 275.594 62.91 275.594ZM74.2133 281.936L74.7313 282.706C74.3533 283 73.8773 283.168 73.3873 283.168C72.3513 283.168 71.6233 282.398 71.6233 281.32V276.7H70.4893V275.762H71.6233V273.774H72.6733V275.762H74.4513V276.7H72.6733V281.32C72.6733 281.852 73.0373 282.23 73.4573 282.23C73.7793 282.23 74.0593 282.104 74.2133 281.936ZM79.1915 282.23C80.0455 282.23 81.0255 281.852 81.4735 281.362L82.1175 282.048C81.4875 282.734 80.2135 283.168 79.2055 283.168C77.2735 283.168 75.5375 281.586 75.5375 279.36C75.5375 277.204 77.1615 275.594 79.1075 275.594C81.2915 275.594 82.5375 277.246 82.5375 279.78H76.6155C76.7695 281.194 77.7635 282.23 79.1915 282.23ZM79.1495 276.532C77.8615 276.532 76.8255 277.442 76.6295 278.842H81.5015C81.3615 277.54 80.5915 276.532 79.1495 276.532ZM92.0276 275.594C93.5396 275.594 94.6036 276.756 94.6036 278.394V283H93.5536V278.534C93.5536 277.358 92.8676 276.532 91.8876 276.532C90.7396 276.532 89.9276 277.302 89.9276 278.394V283H88.8776V278.534C88.8776 277.358 88.1916 276.532 87.2116 276.532C86.0636 276.532 85.2516 277.302 85.2516 278.394V283H84.2016V275.762H85.2516V276.826C85.6156 276.07 86.3996 275.594 87.3516 275.594C88.4996 275.594 89.3956 276.266 89.7596 277.316C89.9836 276.294 90.8796 275.594 92.0276 275.594ZM100.457 275.594C102.361 275.594 103.789 277.162 103.789 279.374C103.789 281.6 102.361 283.168 100.457 283.168C99.2954 283.168 98.3714 282.594 97.8254 281.642V285.408H96.7754V275.762H97.8254V277.12C98.3714 276.168 99.2954 275.594 100.457 275.594ZM100.261 282.23C101.675 282.23 102.683 281.04 102.683 279.374C102.683 277.708 101.675 276.532 100.261 276.532C98.8334 276.532 97.8254 277.708 97.8254 279.374C97.8254 281.04 98.8334 282.23 100.261 282.23ZM108.67 283.168C106.612 283.168 104.932 281.46 104.932 279.374C104.932 277.288 106.612 275.594 108.67 275.594C110.714 275.594 112.394 277.288 112.394 279.374C112.394 281.46 110.714 283.168 108.67 283.168ZM108.67 282.23C110.112 282.23 111.302 280.942 111.302 279.374C111.302 277.806 110.112 276.532 108.67 276.532C107.214 276.532 106.024 277.806 106.024 279.374C106.024 280.942 107.214 282.23 108.67 282.23ZM115.153 277.176C115.587 276.21 116.623 275.594 117.953 275.594V276.532C116.315 276.532 115.153 277.54 115.153 278.954V283H114.103V275.762H115.153V277.176ZM125.549 283.168C124.541 283.168 123.421 282.79 122.553 282.09L123.099 281.32C123.925 281.922 124.751 282.23 125.549 282.23C126.501 282.23 127.145 281.782 127.145 281.096C127.145 280.312 126.305 280.06 125.325 279.78C123.575 279.276 122.903 278.758 122.903 277.722C122.903 276.406 123.995 275.594 125.437 275.594C126.333 275.594 127.257 275.902 128.027 276.406L127.523 277.218C126.795 276.756 126.081 276.532 125.437 276.532C124.625 276.532 123.953 276.896 123.953 277.596C123.953 278.226 124.485 278.422 125.829 278.856C126.991 279.22 128.195 279.612 128.195 280.984C128.195 282.314 127.047 283.168 125.549 283.168ZM132.947 282.23C133.801 282.23 134.781 281.852 135.229 281.362L135.873 282.048C135.243 282.734 133.969 283.168 132.961 283.168C131.029 283.168 129.293 281.586 129.293 279.36C129.293 277.204 130.917 275.594 132.863 275.594C135.047 275.594 136.293 277.246 136.293 279.78H130.371C130.525 281.194 131.519 282.23 132.947 282.23ZM132.905 276.532C131.617 276.532 130.581 277.442 130.385 278.842H135.257C135.117 277.54 134.347 276.532 132.905 276.532ZM143.361 273.214H144.411V283H143.361V281.642C142.815 282.594 141.891 283.168 140.729 283.168C138.825 283.168 137.397 281.6 137.397 279.374C137.397 277.162 138.825 275.594 140.729 275.594C141.891 275.594 142.815 276.168 143.361 277.12V273.214ZM140.925 282.23C142.353 282.23 143.361 281.04 143.361 279.374C143.361 277.708 142.353 276.532 140.925 276.532C139.511 276.532 138.503 277.708 138.503 279.374C138.503 281.04 139.511 282.23 140.925 282.23ZM153.929 275.594C155.539 275.594 156.645 276.728 156.645 278.394V283H155.595V278.534C155.595 277.344 154.853 276.532 153.789 276.532C152.557 276.532 151.549 277.372 151.549 278.394V283H150.499V273.214H151.549V276.91C151.969 276.14 152.893 275.594 153.929 275.594ZM161.397 275.594C163.371 275.594 164.337 276.84 164.337 278.59V283H163.287V281.866C162.769 282.72 161.691 283.168 160.739 283.168C159.213 283.168 158.093 282.286 158.093 280.858C158.093 279.416 159.381 278.45 160.935 278.45C161.719 278.45 162.545 278.618 163.287 278.856V278.59C163.287 277.61 162.895 276.49 161.327 276.49C160.599 276.49 159.871 276.812 159.213 277.148L158.793 276.294C159.829 275.776 160.697 275.594 161.397 275.594ZM160.921 282.244C161.873 282.244 163.007 281.754 163.287 280.732V279.626C162.629 279.444 161.887 279.332 161.103 279.332C160.025 279.332 159.115 279.948 159.115 280.816C159.115 281.712 159.899 282.244 160.921 282.244ZM169.608 283.168C167.578 283.168 165.856 281.432 165.856 279.374C165.856 277.316 167.578 275.594 169.608 275.594C170.588 275.594 171.498 276 172.184 276.658L171.456 277.372C170.98 276.854 170.322 276.532 169.608 276.532C168.166 276.532 166.962 277.834 166.962 279.374C166.962 280.928 168.166 282.23 169.608 282.23C170.336 282.23 171.008 281.894 171.498 281.348L172.226 282.062C171.54 282.748 170.616 283.168 169.608 283.168ZM179.417 283L176.337 275.762H177.513L179.921 281.768L182.287 275.762H183.463L180.425 283H179.417ZM187.777 282.23C188.631 282.23 189.611 281.852 190.059 281.362L190.703 282.048C190.073 282.734 188.799 283.168 187.791 283.168C185.859 283.168 184.123 281.586 184.123 279.36C184.123 277.204 185.747 275.594 187.693 275.594C189.877 275.594 191.123 277.246 191.123 279.78H185.201C185.355 281.194 186.349 282.23 187.777 282.23ZM187.735 276.532C186.447 276.532 185.411 277.442 185.215 278.842H190.087C189.947 277.54 189.177 276.532 187.735 276.532ZM195.028 283.168C194.02 283.168 192.9 282.79 192.032 282.09L192.578 281.32C193.404 281.922 194.23 282.23 195.028 282.23C195.98 282.23 196.624 281.782 196.624 281.096C196.624 280.312 195.784 280.06 194.804 279.78C193.054 279.276 192.382 278.758 192.382 277.722C192.382 276.406 193.474 275.594 194.916 275.594C195.812 275.594 196.736 275.902 197.506 276.406L197.002 277.218C196.274 276.756 195.56 276.532 194.916 276.532C194.104 276.532 193.432 276.896 193.432 277.596C193.432 278.226 193.964 278.422 195.308 278.856C196.47 279.22 197.674 279.612 197.674 280.984C197.674 282.314 196.526 283.168 195.028 283.168ZM202.173 281.936L202.691 282.706C202.313 283 201.837 283.168 201.347 283.168C200.311 283.168 199.583 282.398 199.583 281.32V276.7H198.449V275.762H199.583V273.774H200.633V275.762H202.411V276.7H200.633V281.32C200.633 281.852 200.997 282.23 201.417 282.23C201.739 282.23 202.019 282.104 202.173 281.936ZM204.631 274.446C204.239 274.446 203.931 274.124 203.931 273.746C203.931 273.382 204.239 273.06 204.631 273.06C205.009 273.06 205.317 273.382 205.317 273.746C205.317 274.124 205.009 274.446 204.631 274.446ZM204.099 283V275.762H205.149V283H204.099ZM211.168 275.594C213.072 275.594 214.5 277.162 214.5 279.374C214.5 281.6 213.072 283.168 211.168 283.168C210.006 283.168 209.082 282.594 208.536 281.642V283H207.486V273.214H208.536V277.12C209.082 276.168 210.006 275.594 211.168 275.594ZM210.972 282.23C212.386 282.23 213.394 281.04 213.394 279.374C213.394 277.708 212.386 276.532 210.972 276.532C209.544 276.532 208.536 277.708 208.536 279.374C208.536 281.04 209.544 282.23 210.972 282.23ZM221.2 275.762H222.25V283H221.2V281.852C220.78 282.622 219.856 283.168 218.82 283.168C217.21 283.168 216.104 282.034 216.104 280.368V275.762H217.154V280.228C217.154 281.418 217.896 282.23 218.96 282.23C220.192 282.23 221.2 281.39 221.2 280.368V275.762ZM224.581 283V273.214H225.631V283H224.581ZM232.895 275.762H233.945V283H232.895V281.852C232.475 282.622 231.551 283.168 230.515 283.168C228.905 283.168 227.799 282.034 227.799 280.368V275.762H228.849V280.228C228.849 281.418 229.591 282.23 230.655 282.23C231.887 282.23 232.895 281.39 232.895 280.368V275.762ZM244.101 275.594C245.613 275.594 246.677 276.756 246.677 278.394V283H245.627V278.534C245.627 277.358 244.941 276.532 243.961 276.532C242.813 276.532 242.001 277.302 242.001 278.394V283H240.951V278.534C240.951 277.358 240.265 276.532 239.285 276.532C238.137 276.532 237.325 277.302 237.325 278.394V283H236.275V275.762H237.325V276.826C237.689 276.07 238.473 275.594 239.425 275.594C240.573 275.594 241.469 276.266 241.833 277.316C242.057 276.294 242.953 275.594 244.101 275.594ZM260.43 275.594C261.942 275.594 263.006 276.756 263.006 278.394V283H261.956V278.534C261.956 277.358 261.27 276.532 260.29 276.532C259.142 276.532 258.33 277.302 258.33 278.394V283H257.28V278.534C257.28 277.358 256.594 276.532 255.614 276.532C254.466 276.532 253.654 277.302 253.654 278.394V283H252.604V275.762H253.654V276.826C254.018 276.07 254.802 275.594 255.754 275.594C256.902 275.594 257.798 276.266 258.162 277.316C258.386 276.294 259.282 275.594 260.43 275.594ZM265.71 274.446C265.318 274.446 265.01 274.124 265.01 273.746C265.01 273.382 265.318 273.06 265.71 273.06C266.088 273.06 266.396 273.382 266.396 273.746C266.396 274.124 266.088 274.446 265.71 274.446ZM265.178 283V275.762H266.228V283H265.178ZM269.628 283.168C269.194 283.168 268.858 282.818 268.858 282.398C268.858 282.006 269.194 281.656 269.628 281.656C270.034 281.656 270.37 282.006 270.37 282.398C270.37 282.818 270.034 283.168 269.628 283.168ZM283.969 274.418H278.173V277.582H283.395V278.618H278.173V281.964H283.969V283H277.067V273.382H283.969V274.418ZM291.208 275.762H292.258V282.23C292.258 284.092 290.788 285.408 288.702 285.408C287.526 285.408 286.434 285.002 285.776 284.442L286.238 283.616C286.798 284.148 287.666 284.47 288.562 284.47C290.228 284.47 291.208 283.644 291.208 282.23V281.054C290.648 281.936 289.724 282.468 288.576 282.468C286.63 282.468 285.244 281.04 285.244 279.024C285.244 277.008 286.63 275.594 288.576 275.594C289.724 275.594 290.648 276.126 291.208 277.008V275.762ZM288.772 281.53C290.2 281.53 291.208 280.494 291.208 279.024C291.208 277.568 290.2 276.532 288.772 276.532C287.358 276.532 286.35 277.568 286.35 279.024C286.35 280.494 287.358 281.53 288.772 281.53ZM297.644 282.23C298.498 282.23 299.478 281.852 299.926 281.362L300.57 282.048C299.94 282.734 298.666 283.168 297.658 283.168C295.726 283.168 293.99 281.586 293.99 279.36C293.99 277.204 295.614 275.594 297.56 275.594C299.744 275.594 300.99 277.246 300.99 279.78H295.068C295.222 281.194 296.216 282.23 297.644 282.23ZM297.602 276.532C296.314 276.532 295.278 277.442 295.082 278.842H299.954C299.814 277.54 299.044 276.532 297.602 276.532ZM305.454 281.936L305.972 282.706C305.594 283 305.118 283.168 304.628 283.168C303.592 283.168 302.864 282.398 302.864 281.32V276.7H301.73V275.762H302.864V273.774H303.914V275.762H305.692V276.7H303.914V281.32C303.914 281.852 304.278 282.23 304.698 282.23C305.02 282.23 305.3 282.104 305.454 281.936ZM38.326 303.168C36.296 303.168 34.574 301.432 34.574 299.374C34.574 297.316 36.296 295.594 38.326 295.594C39.306 295.594 40.216 296 40.902 296.658L40.174 297.372C39.698 296.854 39.04 296.532 38.326 296.532C36.884 296.532 35.68 297.834 35.68 299.374C35.68 300.928 36.884 302.23 38.326 302.23C39.054 302.23 39.726 301.894 40.216 301.348L40.944 302.062C40.258 302.748 39.334 303.168 38.326 303.168ZM45.4858 303.168C43.4278 303.168 41.7478 301.46 41.7478 299.374C41.7478 297.288 43.4278 295.594 45.4858 295.594C47.5298 295.594 49.2098 297.288 49.2098 299.374C49.2098 301.46 47.5298 303.168 45.4858 303.168ZM45.4858 302.23C46.9278 302.23 48.1178 300.942 48.1178 299.374C48.1178 297.806 46.9278 296.532 45.4858 296.532C44.0298 296.532 42.8398 297.806 42.8398 299.374C42.8398 300.942 44.0298 302.23 45.4858 302.23ZM54.3484 295.594C55.9584 295.594 57.0644 296.728 57.0644 298.394V303H56.0144V298.534C56.0144 297.344 55.2724 296.532 54.2084 296.532C52.9764 296.532 51.9684 297.372 51.9684 298.394V303H50.9184V295.762H51.9684V296.91C52.3884 296.14 53.3124 295.594 54.3484 295.594ZM61.4666 303.168C60.4586 303.168 59.3386 302.79 58.4706 302.09L59.0166 301.32C59.8426 301.922 60.6686 302.23 61.4666 302.23C62.4186 302.23 63.0626 301.782 63.0626 301.096C63.0626 300.312 62.2226 300.06 61.2426 299.78C59.4926 299.276 58.8206 298.758 58.8206 297.722C58.8206 296.406 59.9126 295.594 61.3546 295.594C62.2506 295.594 63.1746 295.902 63.9446 296.406L63.4406 297.218C62.7126 296.756 61.9986 296.532 61.3546 296.532C60.5426 296.532 59.8706 296.896 59.8706 297.596C59.8706 298.226 60.4026 298.422 61.7466 298.856C62.9086 299.22 64.1126 299.612 64.1126 300.984C64.1126 302.314 62.9646 303.168 61.4666 303.168ZM68.8641 302.23C69.7181 302.23 70.6981 301.852 71.1461 301.362L71.7901 302.048C71.1601 302.734 69.8861 303.168 68.8781 303.168C66.9461 303.168 65.2101 301.586 65.2101 299.36C65.2101 297.204 66.8341 295.594 68.7801 295.594C70.9641 295.594 72.2101 297.246 72.2101 299.78H66.2881C66.4421 301.194 67.4361 302.23 68.8641 302.23ZM68.8221 296.532C67.5341 296.532 66.4981 297.442 66.3021 298.842H71.1741C71.0341 297.54 70.2641 296.532 68.8221 296.532ZM79.2783 295.762H80.3283V305.408H79.2783V301.642C78.7323 302.594 77.8083 303.168 76.6463 303.168C74.7423 303.168 73.3143 301.6 73.3143 299.374C73.3143 297.162 74.7423 295.594 76.6463 295.594C77.8083 295.594 78.7323 296.168 79.2783 297.12V295.762ZM76.8423 302.23C78.2703 302.23 79.2783 301.04 79.2783 299.374C79.2783 297.708 78.2703 296.532 76.8423 296.532C75.4283 296.532 74.4203 297.708 74.4203 299.374C74.4203 301.04 75.4283 302.23 76.8423 302.23ZM87.589 295.762H88.639V303H87.589V301.852C87.169 302.622 86.245 303.168 85.209 303.168C83.599 303.168 82.493 302.034 82.493 300.368V295.762H83.543V300.228C83.543 301.418 84.285 302.23 85.349 302.23C86.581 302.23 87.589 301.39 87.589 300.368V295.762ZM93.5592 295.594C95.5332 295.594 96.4992 296.84 96.4992 298.59V303H95.4492V301.866C94.9312 302.72 93.8532 303.168 92.9012 303.168C91.3752 303.168 90.2552 302.286 90.2552 300.858C90.2552 299.416 91.5432 298.45 93.0972 298.45C93.8812 298.45 94.7072 298.618 95.4492 298.856V298.59C95.4492 297.61 95.0572 296.49 93.4892 296.49C92.7612 296.49 92.0332 296.812 91.3752 297.148L90.9552 296.294C91.9912 295.776 92.8592 295.594 93.5592 295.594ZM93.0832 302.244C94.0352 302.244 95.1692 301.754 95.4492 300.732V299.626C94.7912 299.444 94.0492 299.332 93.2652 299.332C92.1872 299.332 91.2772 299.948 91.2772 300.816C91.2772 301.712 92.0612 302.244 93.0832 302.244ZM101.462 301.936L101.98 302.706C101.602 303 101.126 303.168 100.636 303.168C99.6001 303.168 98.8721 302.398 98.8721 301.32V296.7H97.7381V295.762H98.8721V293.774H99.9221V295.762H101.7V296.7H99.9221V301.32C99.9221 301.852 100.286 302.23 100.706 302.23C101.028 302.23 101.308 302.104 101.462 301.936ZM109.734 295.594C111.708 295.594 112.674 296.84 112.674 298.59V303H111.624V301.866C111.106 302.72 110.028 303.168 109.076 303.168C107.55 303.168 106.43 302.286 106.43 300.858C106.43 299.416 107.718 298.45 109.272 298.45C110.056 298.45 110.882 298.618 111.624 298.856V298.59C111.624 297.61 111.232 296.49 109.664 296.49C108.936 296.49 108.208 296.812 107.55 297.148L107.13 296.294C108.166 295.776 109.034 295.594 109.734 295.594ZM109.258 302.244C110.21 302.244 111.344 301.754 111.624 300.732V299.626C110.966 299.444 110.224 299.332 109.44 299.332C108.362 299.332 107.452 299.948 107.452 300.816C107.452 301.712 108.236 302.244 109.258 302.244ZM122.663 295.594C124.175 295.594 125.239 296.756 125.239 298.394V303H124.189V298.534C124.189 297.358 123.503 296.532 122.523 296.532C121.375 296.532 120.563 297.302 120.563 298.394V303H119.513V298.534C119.513 297.358 118.827 296.532 117.847 296.532C116.699 296.532 115.887 297.302 115.887 298.394V303H114.837V295.762H115.887V296.826C116.251 296.07 117.035 295.594 117.987 295.594C119.135 295.594 120.031 296.266 120.395 297.316C120.619 296.294 121.515 295.594 122.663 295.594ZM130.463 302.23C131.317 302.23 132.297 301.852 132.745 301.362L133.389 302.048C132.759 302.734 131.485 303.168 130.477 303.168C128.545 303.168 126.809 301.586 126.809 299.36C126.809 297.204 128.433 295.594 130.379 295.594C132.563 295.594 133.809 297.246 133.809 299.78H127.887C128.041 301.194 129.035 302.23 130.463 302.23ZM130.421 296.532C129.133 296.532 128.097 297.442 127.901 298.842H132.773C132.633 297.54 131.863 296.532 130.421 296.532ZM138.273 301.936L138.791 302.706C138.413 303 137.937 303.168 137.447 303.168C136.411 303.168 135.683 302.398 135.683 301.32V296.7H134.549V295.762H135.683V293.774H136.733V295.762H138.511V296.7H136.733V301.32C136.733 301.852 137.097 302.23 137.517 302.23C137.839 302.23 138.119 302.104 138.273 301.936ZM147.636 295.594C149.54 295.594 150.968 297.162 150.968 299.374C150.968 301.6 149.54 303.168 147.636 303.168C146.474 303.168 145.55 302.594 145.004 301.642V305.408H143.954V295.762H145.004V297.12C145.55 296.168 146.474 295.594 147.636 295.594ZM147.44 302.23C148.854 302.23 149.862 301.04 149.862 299.374C149.862 297.708 148.854 296.532 147.44 296.532C146.012 296.532 145.004 297.708 145.004 299.374C145.004 301.04 146.012 302.23 147.44 302.23ZM153.791 297.176C154.225 296.21 155.261 295.594 156.591 295.594V296.532C154.953 296.532 153.791 297.54 153.791 298.954V303H152.741V295.762H153.791V297.176ZM161.3 303.168C159.242 303.168 157.562 301.46 157.562 299.374C157.562 297.288 159.242 295.594 161.3 295.594C163.344 295.594 165.024 297.288 165.024 299.374C165.024 301.46 163.344 303.168 161.3 303.168ZM161.3 302.23C162.742 302.23 163.932 300.942 163.932 299.374C163.932 297.806 162.742 296.532 161.3 296.532C159.844 296.532 158.654 297.806 158.654 299.374C158.654 300.942 159.844 302.23 161.3 302.23ZM167.264 294.446C166.872 294.446 166.564 294.124 166.564 293.746C166.564 293.382 166.872 293.06 167.264 293.06C167.642 293.06 167.95 293.382 167.95 293.746C167.95 294.124 167.642 294.446 167.264 294.446ZM166.732 303V295.762H167.782V303H166.732ZM173.549 295.594C175.159 295.594 176.265 296.728 176.265 298.394V303H175.215V298.534C175.215 297.344 174.473 296.532 173.409 296.532C172.177 296.532 171.169 297.372 171.169 298.394V303H170.119V295.762H171.169V296.91C171.589 296.14 172.513 295.594 173.549 295.594ZM184.772 295.594C186.746 295.594 187.712 296.84 187.712 298.59V303H186.662V301.866C186.144 302.72 185.066 303.168 184.114 303.168C182.588 303.168 181.468 302.286 181.468 300.858C181.468 299.416 182.756 298.45 184.31 298.45C185.094 298.45 185.92 298.618 186.662 298.856V298.59C186.662 297.61 186.27 296.49 184.702 296.49C183.974 296.49 183.246 296.812 182.588 297.148L182.168 296.294C183.204 295.776 184.072 295.594 184.772 295.594ZM184.296 302.244C185.248 302.244 186.382 301.754 186.662 300.732V299.626C186.004 299.444 185.262 299.332 184.478 299.332C183.4 299.332 182.49 299.948 182.49 300.816C182.49 301.712 183.274 302.244 184.296 302.244ZM190.939 303.168C190.505 303.168 190.169 302.818 190.169 302.398C190.169 302.006 190.505 301.656 190.939 301.656C191.345 301.656 191.681 302.006 191.681 302.398C191.681 302.818 191.345 303.168 190.939 303.168Z" fill="#22343C"/>
<rect x="18" y="325" width="652" height="1" fill="#CBD4D8"/>
<path d="M38 334.5H133C134.933 334.5 136.5 336.067 136.5 338V366C136.5 367.933 134.933 369.5 133 369.5H38C36.067 369.5 34.5 367.933 34.5 366V338C34.5 336.067 36.067 334.5 38 334.5Z" stroke="#0079AD"/>
<path d="M53.2 356L52.552 354.44H48.616L47.968 356H46.3L49.744 347.756H51.412L54.856 356H53.2ZM49.132 353.216H52.036L50.584 349.748L49.132 353.216ZM61.0723 356.144C58.7323 356.144 56.7523 354.188 56.7523 351.872C56.7523 349.556 58.7323 347.612 61.0723 347.612C62.2843 347.612 63.4003 348.128 64.1923 348.944L63.1243 349.94C62.6083 349.352 61.8763 348.98 61.0723 348.98C59.5603 348.98 58.2763 350.3 58.2763 351.872C58.2763 353.456 59.5603 354.776 61.0723 354.776C61.8763 354.776 62.6083 354.404 63.1363 353.816L64.1923 354.8C63.4003 355.628 62.2843 356.144 61.0723 356.144ZM68.5896 356V349.124H65.9496V347.756H72.7176V349.124H70.0896V356H68.5896ZM75.2181 356V347.756H76.7061V356H75.2181ZM83.7716 356.144C81.4316 356.144 79.4516 354.188 79.4516 351.872C79.4516 349.556 81.4316 347.612 83.7716 347.612C86.1236 347.612 88.1036 349.556 88.1036 351.872C88.1036 354.188 86.1236 356.144 83.7716 356.144ZM83.7716 354.776C85.2956 354.776 86.5676 353.456 86.5676 351.872C86.5676 350.3 85.2956 348.98 83.7716 348.98C82.2596 348.98 80.9756 350.3 80.9756 351.872C80.9756 353.456 82.2596 354.776 83.7716 354.776ZM90.847 356V347.756H92.335L96.691 353.552V347.756H98.179V356H96.691L92.335 350.204V356H90.847Z" fill="#0079AD"/>
<path d="M122.12 349.992L117 355.289L111.88 349.992C111.59 349.691 111.599 349.212 111.9 348.923C112.201 348.633 112.679 348.642 112.969 348.943L117 353.116L121.036 348.943C121.325 348.642 121.804 348.633 122.104 348.923C122.405 349.212 122.414 349.691 122.124 349.992H122.12Z" fill="#0079AD"/>
</g>
<rect x="18.5" y="135.5" width="360" height="243" stroke="#4F6169"/>
<g opacity="0.2">
<rect width="396" height="16" transform="translate(0 135)" fill="#D23292"/>
</g>
<g opacity="0.2">
<rect width="281" height="16" transform="translate(34 115) rotate(90)" fill="#D23292"/>
</g>
<g opacity="0.2">
<rect width="281" height="16" transform="translate(379 115) rotate(90)" fill="#D23292"/>
</g>
<g opacity="0.2">
<rect width="396" height="16" transform="translate(0 193)" fill="#D23292"/>
</g>
<g opacity="0.2">
<rect width="396" height="16" transform="translate(0 176)" fill="#D23292"/>
</g>
<g opacity="0.2">
<rect width="396" height="16" transform="translate(0 234)" fill="#D23292"/>
</g>
<g opacity="0.2">
<rect width="396" height="16" transform="translate(0 309)" fill="#D23292"/>
</g>
<g opacity="0.2">
<rect width="396" height="8" transform="translate(0 326)" fill="#D23292"/>
</g>
<g opacity="0.2">
<rect width="396" height="8" transform="translate(0 370)" fill="#D23292"/>
</g>
<defs>
<clipPath id="clip0_1_3212">
<rect x="18" y="135" width="361" height="244" fill="white"/>
</clipPath>
</defs>
</svg>
