<svg width="345" height="226" viewBox="0 0 345 226" fill="none" xmlns="http://www.w3.org/2000/svg">
<rect x="12.3097" y="0.309662" width="319.381" height="212.54" fill="#FCFDFD"/>
<rect x="12.3097" y="0.309662" width="319.381" height="212.54" stroke="#2D4048" stroke-width="0.619325"/>
<g opacity="0.6">
<rect width="320.191" height="24.1537" transform="translate(12)" fill="#4F6169"/>
</g>
<path opacity="0.4" fill-rule="evenodd" clip-rule="evenodd" d="M29 37.3771C29 36.693 29.5545 36.1384 30.2386 36.1384H64.1019C64.786 36.1384 65.3405 36.693 65.3405 37.3771C65.3405 38.0612 64.786 38.6157 64.1019 38.6157H30.2386C29.5545 38.6157 29 38.0612 29 37.3771Z" fill="#4F6169"/>
<path opacity="0.4" fill-rule="evenodd" clip-rule="evenodd" d="M29 52.241C29 51.5569 29.5545 51.0023 30.2386 51.0023H64.1019C64.786 51.0023 65.3405 51.5569 65.3405 52.241C65.3405 52.9251 64.786 53.4796 64.1019 53.4796H30.2386C29.5545 53.4796 29 52.9251 29 52.241Z" fill="#4F6169"/>
<path opacity="0.4" fill-rule="evenodd" clip-rule="evenodd" d="M29 67.1047C29 66.4207 29.5545 65.8661 30.2386 65.8661H64.1019C64.786 65.8661 65.3405 66.4207 65.3405 67.1047C65.3405 67.7888 64.786 68.3434 64.1019 68.3434H30.2386C29.5545 68.3434 29 67.7888 29 67.1047Z" fill="#4F6169"/>
<path opacity="0.4" fill-rule="evenodd" clip-rule="evenodd" d="M29 81.9685C29 81.2844 29.5545 80.7299 30.2386 80.7299H64.1019C64.786 80.7299 65.3405 81.2844 65.3405 81.9685C65.3405 82.6526 64.786 83.2072 64.1019 83.2072H30.2386C29.5545 83.2072 29 82.6526 29 81.9685Z" fill="#4F6169"/>
<path opacity="0.4" fill-rule="evenodd" clip-rule="evenodd" d="M29 96.8324C29 96.1483 29.5545 95.5938 30.2386 95.5938H64.1019C64.786 95.5938 65.3405 96.1483 65.3405 96.8324C65.3405 97.5165 64.786 98.071 64.1019 98.071H30.2386C29.5545 98.071 29 97.5165 29 96.8324Z" fill="#4F6169"/>
<path opacity="0.4" fill-rule="evenodd" clip-rule="evenodd" d="M29 111.696C29 111.012 29.5545 110.458 30.2386 110.458H64.1019C64.786 110.458 65.3405 111.012 65.3405 111.696C65.3405 112.38 64.786 112.935 64.1019 112.935H30.2386C29.5545 112.935 29 112.38 29 111.696Z" fill="#4F6169"/>
<path opacity="0.4" fill-rule="evenodd" clip-rule="evenodd" d="M29 126.56C29 125.876 29.5545 125.321 30.2386 125.321H64.1019C64.786 125.321 65.3405 125.876 65.3405 126.56C65.3405 127.244 64.786 127.798 64.1019 127.798H30.2386C29.5545 127.798 29 127.244 29 126.56Z" fill="#4F6169"/>
<path opacity="0.4" fill-rule="evenodd" clip-rule="evenodd" d="M29 141.424C29 140.739 29.5545 140.185 30.2386 140.185H64.1019C64.786 140.185 65.3405 140.739 65.3405 141.424C65.3405 142.108 64.786 142.662 64.1019 142.662H30.2386C29.5545 142.662 29 142.108 29 141.424Z" fill="#4F6169"/>
<path opacity="0.4" fill-rule="evenodd" clip-rule="evenodd" d="M29 156.287C29 155.603 29.5545 155.049 30.2386 155.049H64.1019C64.786 155.049 65.3405 155.603 65.3405 156.287C65.3405 156.971 64.786 157.526 64.1019 157.526H30.2386C29.5545 157.526 29 156.971 29 156.287Z" fill="#4F6169"/>
<path opacity="0.8" d="M83.3406 24.1536H82.3406V212.487H83.0257L83.3406 24.1536Z" fill="#4F6169"/>
<path opacity="0.4" fill-rule="evenodd" clip-rule="evenodd" d="M100.341 37.3922C100.341 36.7081 100.895 36.1536 101.579 36.1536H276.772C277.456 36.1536 278.011 36.7081 278.011 37.3922C278.011 38.0763 277.456 38.6309 276.772 38.6309H101.579C100.895 38.6309 100.341 38.0763 100.341 37.3922Z" fill="#4F6169"/>
<path opacity="0.4" fill-rule="evenodd" clip-rule="evenodd" d="M100.34 48.4302C100.34 47.7461 100.895 47.1915 101.579 47.1915H276.772C277.456 47.1915 278.011 47.7461 278.011 48.4302C278.011 49.1143 277.456 49.6688 276.772 49.6688H101.579C100.895 49.6688 100.34 49.1143 100.34 48.4302Z" fill="#4F6169"/>
<path opacity="0.4" fill-rule="evenodd" clip-rule="evenodd" d="M100.34 59.468C100.34 58.7839 100.895 58.2294 101.579 58.2294H276.772C277.456 58.2294 278.011 58.7839 278.011 59.468C278.011 60.1521 277.456 60.7067 276.772 60.7067H101.579C100.895 60.7067 100.34 60.1521 100.34 59.468Z" fill="#4F6169"/>
<path opacity="0.4" fill-rule="evenodd" clip-rule="evenodd" d="M100.34 70.5059C100.34 69.8218 100.895 69.2672 101.579 69.2672H276.772C277.456 69.2672 278.011 69.8218 278.011 70.5059C278.011 71.1899 277.456 71.7445 276.772 71.7445H101.579C100.895 71.7445 100.34 71.1899 100.34 70.5059Z" fill="#4F6169"/>
<path opacity="0.4" fill-rule="evenodd" clip-rule="evenodd" d="M100.34 81.5439C100.34 80.8599 100.895 80.3053 101.579 80.3053H208.955C209.64 80.3053 210.194 80.8599 210.194 81.5439C210.194 82.228 209.64 82.7826 208.955 82.7826H101.579C100.895 82.7826 100.34 82.228 100.34 81.5439Z" fill="#4F6169"/>
<rect opacity="0.6" x="100.341" y="94.7825" width="179" height="79.2736" fill="#4F6169"/>
<rect opacity="0.6" x="100.341" y="186.056" width="32.8242" height="14.2176" fill="#4F6169"/>
<rect opacity="0.6" x="139.157" y="186.056" width="33.4435" height="14.2176" fill="#4F6169"/>
<rect opacity="0.3" x="344.136" y="23.9697" width="11.9849" height="344.136" transform="rotate(90 344.136 23.9697)" fill="#0079AD"/>
<rect opacity="0.3" x="344.136" y="83.0378" width="11.9849" height="261.098" transform="rotate(90 344.136 83.0378)" fill="#0079AD"/>
<rect opacity="0.3" x="11.9848" y="23.9697" width="17" height="202.03" fill="#0079AD"/>
<rect opacity="0.3" x="65.9166" y="23.9697" width="16.3727" height="202.03" fill="#0079AD"/>
<rect opacity="0.3" x="83.1362" y="23.9697" width="17.2427" height="202.03" fill="#0079AD"/>
<rect opacity="0.3" x="314.174" y="23.9697" width="17.1212" height="202.03" fill="#0079AD"/>
<rect opacity="0.3" x="344.136" y="173.78" width="12.1919" height="261.098" transform="rotate(90 344.136 173.78)" fill="#0079AD"/>
<rect opacity="0.3" x="139.16" y="188.392" width="9.43799" height="5.9895" transform="rotate(90 139.16 188.392)" fill="#0065AB"/>
<rect opacity="0.3" x="344.136" y="200.318" width="11.9849" height="344.136" transform="rotate(90 344.136 200.318)" fill="#0079AD"/>
</svg>
