<svg width="284" height="431" viewBox="0 0 284 431" fill="none" xmlns="http://www.w3.org/2000/svg">
<g clip-path="url(#clip0_19_14833)">
<mask id="path-1-inside-1_19_14833" fill="white">
<path d="M0 0H241V24H0V0Z"/>
</mask>
<path d="M241 23H0V25H241V23Z" fill="#CBD4D8" mask="url(#path-1-inside-1_19_14833)"/>
<path d="M12.498 16.156C11.7787 16.156 11.1373 15.961 10.574 15.571C10.0107 15.1723 9.56867 14.622 9.248 13.92C8.936 13.218 8.78 12.4207 8.78 11.528C8.78 10.6353 8.936 9.84233 9.248 9.149C9.56867 8.447 10.0107 7.901 10.574 7.511C11.1373 7.11233 11.7787 6.913 12.498 6.913C13.2087 6.913 13.8457 7.11233 14.409 7.511C14.9723 7.901 15.41 8.447 15.722 9.149C16.0427 9.84233 16.203 10.6353 16.203 11.528C16.203 12.4207 16.0427 13.218 15.722 13.92C15.41 14.622 14.9723 15.1723 14.409 15.571C13.8543 15.961 13.2173 16.156 12.498 16.156ZM12.498 15.22C13.018 15.22 13.4817 15.064 13.889 14.752C14.2963 14.4313 14.6127 13.9937 14.838 13.439C15.0633 12.8757 15.176 12.2387 15.176 11.528C15.176 10.8173 15.0633 10.1847 14.838 9.63C14.6127 9.06667 14.2963 8.629 13.889 8.317C13.4817 8.005 13.018 7.849 12.498 7.849C11.978 7.849 11.5143 8.005 11.107 8.317C10.6997 8.629 10.379 9.06667 10.145 9.63C9.91967 10.1847 9.807 10.8173 9.807 11.528C9.807 12.2387 9.91967 12.8757 10.145 13.439C10.379 13.9937 10.6997 14.4313 11.107 14.752C11.5143 15.064 11.978 15.22 12.498 15.22ZM17.3303 15.155L20.5933 12.373C21.2173 11.8357 21.6679 11.346 21.9453 10.904C22.2313 10.4533 22.3743 10.0027 22.3743 9.552C22.3743 9.20533 22.2876 8.902 22.1143 8.642C21.9409 8.37333 21.7113 8.16967 21.4253 8.031C21.1393 7.89233 20.8359 7.823 20.5153 7.823C20.0213 7.823 19.5793 7.94433 19.1893 8.187C18.8079 8.42967 18.4526 8.772 18.1233 9.214L17.4083 8.629C18.2143 7.485 19.2629 6.913 20.5543 6.913C21.0743 6.913 21.5509 7.02133 21.9843 7.238C22.4176 7.45467 22.7599 7.76233 23.0113 8.161C23.2713 8.55967 23.4013 9.019 23.4013 9.539C23.4013 10.137 23.2366 10.7047 22.9073 11.242C22.5866 11.7707 22.0493 12.36 21.2953 13.01L18.9553 15.038H23.4923V16H17.3303V15.155ZM28.7019 6.341H29.8069L25.2439 16.962H24.1389L28.7019 6.341ZM34.199 16.156C33.4796 16.156 32.8383 15.961 32.275 15.571C31.7116 15.1723 31.2696 14.622 30.949 13.92C30.637 13.218 30.481 12.4207 30.481 11.528C30.481 10.6353 30.637 9.84233 30.949 9.149C31.2696 8.447 31.7116 7.901 32.275 7.511C32.8383 7.11233 33.4796 6.913 34.199 6.913C34.9096 6.913 35.5466 7.11233 36.11 7.511C36.6733 7.901 37.111 8.447 37.423 9.149C37.7436 9.84233 37.904 10.6353 37.904 11.528C37.904 12.4207 37.7436 13.218 37.423 13.92C37.111 14.622 36.6733 15.1723 36.11 15.571C35.5553 15.961 34.9183 16.156 34.199 16.156ZM34.199 15.22C34.719 15.22 35.1826 15.064 35.59 14.752C35.9973 14.4313 36.3136 13.9937 36.539 13.439C36.7643 12.8757 36.877 12.2387 36.877 11.528C36.877 10.8173 36.7643 10.1847 36.539 9.63C36.3136 9.06667 35.9973 8.629 35.59 8.317C35.1826 8.005 34.719 7.849 34.199 7.849C33.679 7.849 33.2153 8.005 32.808 8.317C32.4006 8.629 32.08 9.06667 31.846 9.63C31.6206 10.1847 31.508 10.8173 31.508 11.528C31.508 12.2387 31.6206 12.8757 31.846 13.439C32.08 13.9937 32.4006 14.4313 32.808 14.752C33.2153 15.064 33.679 15.22 34.199 15.22ZM42.6193 16.156C42.0039 16.156 41.4493 16.052 40.9553 15.844C40.4613 15.636 40.0713 15.3457 39.7853 14.973C39.4993 14.5917 39.3563 14.154 39.3563 13.66C39.3563 13.1227 39.5383 12.6547 39.9023 12.256C40.2749 11.8573 40.7516 11.567 41.3323 11.385C40.7949 11.177 40.3703 10.8997 40.0583 10.553C39.7463 10.1977 39.5903 9.773 39.5903 9.279C39.5903 8.80233 39.7289 8.38633 40.0063 8.031C40.2923 7.667 40.6649 7.38967 41.1243 7.199C41.5923 7.00833 42.0906 6.913 42.6193 6.913C43.1566 6.913 43.6549 7.01267 44.1143 7.212C44.5823 7.40267 44.9549 7.68 45.2323 8.044C45.5183 8.39933 45.6613 8.81533 45.6613 9.292C45.6613 9.80333 45.4966 10.2323 45.1673 10.579C44.8466 10.9257 44.4306 11.1943 43.9193 11.385C44.4913 11.5757 44.9593 11.8703 45.3233 12.269C45.6959 12.6677 45.8823 13.1313 45.8823 13.66C45.8823 14.154 45.7393 14.5917 45.4533 14.973C45.1673 15.3457 44.7729 15.636 44.2703 15.844C43.7763 16.052 43.2259 16.156 42.6193 16.156ZM42.6193 10.982C42.9313 10.9647 43.2433 10.891 43.5553 10.761C43.8673 10.631 44.1229 10.449 44.3223 10.215C44.5303 9.981 44.6343 9.70367 44.6343 9.383C44.6343 9.08833 44.5433 8.824 44.3613 8.59C44.1879 8.356 43.9453 8.174 43.6333 8.044C43.3299 7.90533 42.9919 7.836 42.6193 7.836C42.0559 7.836 41.5793 7.98333 41.1893 8.278C40.8079 8.57267 40.6173 8.941 40.6173 9.383C40.6173 9.71233 40.7213 9.994 40.9293 10.228C41.1373 10.462 41.3929 10.644 41.6963 10.774C42.0083 10.8953 42.3159 10.9647 42.6193 10.982ZM42.6193 15.233C43.0266 15.233 43.3993 15.1637 43.7373 15.025C44.0839 14.8863 44.3569 14.6957 44.5563 14.453C44.7556 14.2017 44.8553 13.9157 44.8553 13.595C44.8553 13.257 44.7383 12.958 44.5043 12.698C44.2703 12.438 43.9799 12.2387 43.6333 12.1C43.2866 11.9527 42.9486 11.8747 42.6193 11.866C42.2899 11.8747 41.9519 11.9527 41.6053 12.1C41.2586 12.2387 40.9683 12.438 40.7343 12.698C40.5003 12.958 40.3833 13.257 40.3833 13.595C40.3833 13.9157 40.4829 14.2017 40.6823 14.453C40.8816 14.6957 41.1503 14.8863 41.4883 15.025C41.8349 15.1637 42.2119 15.233 42.6193 15.233ZM51.1265 6.341H52.2315L47.6685 16.962H46.5635L51.1265 6.341ZM52.5676 15.155L55.8306 12.373C56.4546 11.8357 56.9053 11.346 57.1826 10.904C57.4686 10.4533 57.6116 10.0027 57.6116 9.552C57.6116 9.20533 57.5249 8.902 57.3516 8.642C57.1783 8.37333 56.9486 8.16967 56.6626 8.031C56.3766 7.89233 56.0733 7.823 55.7526 7.823C55.2586 7.823 54.8166 7.94433 54.4266 8.187C54.0453 8.42967 53.6899 8.772 53.3606 9.214L52.6456 8.629C53.4516 7.485 54.5003 6.913 55.7916 6.913C56.3116 6.913 56.7883 7.02133 57.2216 7.238C57.6549 7.45467 57.9973 7.76233 58.2486 8.161C58.5086 8.55967 58.6386 9.019 58.6386 9.539C58.6386 10.137 58.4739 10.7047 58.1446 11.242C57.8239 11.7707 57.2866 12.36 56.5326 13.01L54.1926 15.038H58.7296V16H52.5676V15.155ZM63.8742 16.156C63.1548 16.156 62.5135 15.961 61.9502 15.571C61.3868 15.1723 60.9448 14.622 60.6242 13.92C60.3122 13.218 60.1562 12.4207 60.1562 11.528C60.1562 10.6353 60.3122 9.84233 60.6242 9.149C60.9448 8.447 61.3868 7.901 61.9502 7.511C62.5135 7.11233 63.1548 6.913 63.8742 6.913C64.5848 6.913 65.2218 7.11233 65.7852 7.511C66.3485 7.901 66.7862 8.447 67.0982 9.149C67.4188 9.84233 67.5792 10.6353 67.5792 11.528C67.5792 12.4207 67.4188 13.218 67.0982 13.92C66.7862 14.622 66.3485 15.1723 65.7852 15.571C65.2305 15.961 64.5935 16.156 63.8742 16.156ZM63.8742 15.22C64.3942 15.22 64.8578 15.064 65.2652 14.752C65.6725 14.4313 65.9888 13.9937 66.2142 13.439C66.4395 12.8757 66.5522 12.2387 66.5522 11.528C66.5522 10.8173 66.4395 10.1847 66.2142 9.63C65.9888 9.06667 65.6725 8.629 65.2652 8.317C64.8578 8.005 64.3942 7.849 63.8742 7.849C63.3542 7.849 62.8905 8.005 62.4832 8.317C62.0758 8.629 61.7552 9.06667 61.5212 9.63C61.2958 10.1847 61.1832 10.8173 61.1832 11.528C61.1832 12.2387 61.2958 12.8757 61.5212 13.439C61.7552 13.9937 62.0758 14.4313 62.4832 14.752C62.8905 15.064 63.3542 15.22 63.8742 15.22ZM68.7065 15.155L71.9695 12.373C72.5935 11.8357 73.0441 11.346 73.3215 10.904C73.6075 10.4533 73.7505 10.0027 73.7505 9.552C73.7505 9.20533 73.6638 8.902 73.4905 8.642C73.3171 8.37333 73.0875 8.16967 72.8015 8.031C72.5155 7.89233 72.2121 7.823 71.8915 7.823C71.3975 7.823 70.9555 7.94433 70.5655 8.187C70.1841 8.42967 69.8288 8.772 69.4995 9.214L68.7845 8.629C69.5905 7.485 70.6391 6.913 71.9305 6.913C72.4505 6.913 72.9271 7.02133 73.3605 7.238C73.7938 7.45467 74.1361 7.76233 74.3875 8.161C74.6475 8.55967 74.7775 9.019 74.7775 9.539C74.7775 10.137 74.6128 10.7047 74.2835 11.242C73.9628 11.7707 73.4255 12.36 72.6715 13.01L70.3315 15.038H74.8685V16H68.7065V15.155ZM79.155 16.156C78.453 16.156 77.8204 16.0173 77.257 15.74C76.7024 15.454 76.2517 15.0813 75.905 14.622L76.607 13.959C76.9104 14.3577 77.2787 14.6697 77.712 14.895C78.1454 15.1203 78.6264 15.233 79.155 15.233C79.779 15.233 80.2817 15.077 80.663 14.765C81.0444 14.453 81.235 14.0413 81.235 13.53C81.235 13.01 81.0314 12.6157 80.624 12.347C80.2167 12.0783 79.6534 11.944 78.934 11.944H77.985V11.008L78.947 11.021C79.5624 11.0297 80.065 10.8953 80.455 10.618C80.845 10.332 81.04 9.942 81.04 9.448C81.04 8.98 80.8494 8.59433 80.468 8.291C80.0954 7.98767 79.6274 7.836 79.064 7.836C78.596 7.836 78.1757 7.94433 77.803 8.161C77.4304 8.37767 77.075 8.68967 76.737 9.097L76.061 8.486C76.8497 7.43733 77.868 6.913 79.116 6.913C79.6794 6.913 80.182 7.017 80.624 7.225C81.0747 7.42433 81.4257 7.71033 81.677 8.083C81.937 8.447 82.067 8.863 82.067 9.331C82.067 9.86833 81.9024 10.3147 81.573 10.67C81.2524 11.0253 80.8407 11.2767 80.338 11.424C80.8667 11.5453 81.3174 11.788 81.69 12.152C82.0714 12.516 82.262 12.9927 82.262 13.582C82.262 14.076 82.132 14.518 81.872 14.908C81.612 15.298 81.2437 15.6057 80.767 15.831C80.299 16.0477 79.7617 16.156 79.155 16.156ZM87.5795 11.996H90.9465V12.945H87.5795V11.996ZM99.9382 16.156C99.2189 16.156 98.5776 15.961 98.0142 15.571C97.4509 15.1723 97.0089 14.622 96.6882 13.92C96.3762 13.218 96.2202 12.4207 96.2202 11.528C96.2202 10.6353 96.3762 9.84233 96.6882 9.149C97.0089 8.447 97.4509 7.901 98.0142 7.511C98.5776 7.11233 99.2189 6.913 99.9382 6.913C100.649 6.913 101.286 7.11233 101.849 7.511C102.413 7.901 102.85 8.447 103.162 9.149C103.483 9.84233 103.643 10.6353 103.643 11.528C103.643 12.4207 103.483 13.218 103.162 13.92C102.85 14.622 102.413 15.1723 101.849 15.571C101.295 15.961 100.658 16.156 99.9382 16.156ZM99.9382 15.22C100.458 15.22 100.922 15.064 101.329 14.752C101.737 14.4313 102.053 13.9937 102.278 13.439C102.504 12.8757 102.616 12.2387 102.616 11.528C102.616 10.8173 102.504 10.1847 102.278 9.63C102.053 9.06667 101.737 8.629 101.329 8.317C100.922 8.005 100.458 7.849 99.9382 7.849C99.4182 7.849 98.9546 8.005 98.5472 8.317C98.1399 8.629 97.8192 9.06667 97.5852 9.63C97.3599 10.1847 97.2472 10.8173 97.2472 11.528C97.2472 12.2387 97.3599 12.8757 97.5852 13.439C97.8192 13.9937 98.1399 14.4313 98.5472 14.752C98.9546 15.064 99.4182 15.22 99.9382 15.22ZM104.771 15.155L108.034 12.373C108.658 11.8357 109.108 11.346 109.386 10.904C109.672 10.4533 109.815 10.0027 109.815 9.552C109.815 9.20533 109.728 8.902 109.555 8.642C109.381 8.37333 109.152 8.16967 108.866 8.031C108.58 7.89233 108.276 7.823 107.956 7.823C107.462 7.823 107.02 7.94433 106.63 8.187C106.248 8.42967 105.893 8.772 105.564 9.214L104.849 8.629C105.655 7.485 106.703 6.913 107.995 6.913C108.515 6.913 108.991 7.02133 109.425 7.238C109.858 7.45467 110.2 7.76233 110.452 8.161C110.712 8.55967 110.842 9.019 110.842 9.539C110.842 10.137 110.677 10.7047 110.348 11.242C110.027 11.7707 109.49 12.36 108.736 13.01L106.396 15.038H110.933V16H104.771V15.155ZM116.142 6.341H117.247L112.684 16.962H111.579L116.142 6.341ZM119.403 8.304L117.843 9.318L117.401 8.564L119.598 7.069H120.417V16H119.403V8.304ZM126.056 10.423C126.602 10.423 127.1 10.5357 127.551 10.761C128.01 10.9777 128.374 11.2983 128.643 11.723C128.911 12.139 129.046 12.633 129.046 13.205C129.046 13.751 128.911 14.2493 128.643 14.7C128.374 15.1507 128.001 15.506 127.525 15.766C127.048 16.026 126.506 16.156 125.9 16.156C124.747 16.156 123.893 15.7487 123.339 14.934C122.784 14.1107 122.507 13.023 122.507 11.671C122.507 10.7957 122.667 9.994 122.988 9.266C123.308 8.538 123.742 7.966 124.288 7.55C124.842 7.12533 125.453 6.913 126.121 6.913C126.641 6.913 127.104 7.004 127.512 7.186C127.919 7.368 128.3 7.63233 128.656 7.979L128.097 8.772C127.785 8.46867 127.473 8.239 127.161 8.083C126.849 7.91833 126.493 7.836 126.095 7.836C125.627 7.836 125.198 8.00933 124.808 8.356C124.418 8.694 124.106 9.15767 123.872 9.747C123.646 10.3277 123.534 10.969 123.534 11.671V11.788C123.811 11.3547 124.166 11.021 124.6 10.787C125.042 10.5443 125.527 10.423 126.056 10.423ZM125.887 15.285C126.311 15.285 126.684 15.1897 127.005 14.999C127.334 14.7997 127.585 14.544 127.759 14.232C127.932 13.92 128.019 13.595 128.019 13.257C128.019 12.659 127.815 12.1823 127.408 11.827C127 11.4717 126.489 11.294 125.874 11.294C125.31 11.294 124.825 11.45 124.418 11.762C124.019 12.0653 123.763 12.464 123.651 12.958C123.789 13.6687 124.045 14.2363 124.418 14.661C124.799 15.077 125.289 15.285 125.887 15.285ZM134.161 6.341H135.266L130.703 16.962H129.598L134.161 6.341ZM135.603 15.155L138.866 12.373C139.49 11.8357 139.94 11.346 140.218 10.904C140.504 10.4533 140.647 10.0027 140.647 9.552C140.647 9.20533 140.56 8.902 140.387 8.642C140.213 8.37333 139.984 8.16967 139.698 8.031C139.412 7.89233 139.108 7.823 138.788 7.823C138.294 7.823 137.852 7.94433 137.462 8.187C137.08 8.42967 136.725 8.772 136.396 9.214L135.681 8.629C136.487 7.485 137.535 6.913 138.827 6.913C139.347 6.913 139.823 7.02133 140.257 7.238C140.69 7.45467 141.032 7.76233 141.284 8.161C141.544 8.55967 141.674 9.019 141.674 9.539C141.674 10.137 141.509 10.7047 141.18 11.242C140.859 11.7707 140.322 12.36 139.568 13.01L137.228 15.038H141.765V16H135.603V15.155ZM146.909 16.156C146.19 16.156 145.548 15.961 144.985 15.571C144.422 15.1723 143.98 14.622 143.659 13.92C143.347 13.218 143.191 12.4207 143.191 11.528C143.191 10.6353 143.347 9.84233 143.659 9.149C143.98 8.447 144.422 7.901 144.985 7.511C145.548 7.11233 146.19 6.913 146.909 6.913C147.62 6.913 148.257 7.11233 148.82 7.511C149.383 7.901 149.821 8.447 150.133 9.149C150.454 9.84233 150.614 10.6353 150.614 11.528C150.614 12.4207 150.454 13.218 150.133 13.92C149.821 14.622 149.383 15.1723 148.82 15.571C148.265 15.961 147.628 16.156 146.909 16.156ZM146.909 15.22C147.429 15.22 147.893 15.064 148.3 14.752C148.707 14.4313 149.024 13.9937 149.249 13.439C149.474 12.8757 149.587 12.2387 149.587 11.528C149.587 10.8173 149.474 10.1847 149.249 9.63C149.024 9.06667 148.707 8.629 148.3 8.317C147.893 8.005 147.429 7.849 146.909 7.849C146.389 7.849 145.925 8.005 145.518 8.317C145.111 8.629 144.79 9.06667 144.556 9.63C144.331 10.1847 144.218 10.8173 144.218 11.528C144.218 12.2387 144.331 12.8757 144.556 13.439C144.79 13.9937 145.111 14.4313 145.518 14.752C145.925 15.064 146.389 15.22 146.909 15.22ZM151.741 15.155L155.004 12.373C155.628 11.8357 156.079 11.346 156.356 10.904C156.642 10.4533 156.785 10.0027 156.785 9.552C156.785 9.20533 156.699 8.902 156.525 8.642C156.352 8.37333 156.122 8.16967 155.836 8.031C155.55 7.89233 155.247 7.823 154.926 7.823C154.432 7.823 153.99 7.94433 153.6 8.187C153.219 8.42967 152.864 8.772 152.534 9.214L151.819 8.629C152.625 7.485 153.674 6.913 154.965 6.913C155.485 6.913 155.962 7.02133 156.395 7.238C156.829 7.45467 157.171 7.76233 157.422 8.161C157.682 8.55967 157.812 9.019 157.812 9.539C157.812 10.137 157.648 10.7047 157.318 11.242C156.998 11.7707 156.46 12.36 155.706 13.01L153.366 15.038H157.903V16H151.741V15.155ZM162.19 16.156C161.488 16.156 160.855 16.0173 160.292 15.74C159.737 15.454 159.287 15.0813 158.94 14.622L159.642 13.959C159.945 14.3577 160.314 14.6697 160.747 14.895C161.18 15.1203 161.661 15.233 162.19 15.233C162.814 15.233 163.317 15.077 163.698 14.765C164.079 14.453 164.27 14.0413 164.27 13.53C164.27 13.01 164.066 12.6157 163.659 12.347C163.252 12.0783 162.688 11.944 161.969 11.944H161.02V11.008L161.982 11.021C162.597 11.0297 163.1 10.8953 163.49 10.618C163.88 10.332 164.075 9.942 164.075 9.448C164.075 8.98 163.884 8.59433 163.503 8.291C163.13 7.98767 162.662 7.836 162.099 7.836C161.631 7.836 161.211 7.94433 160.838 8.161C160.465 8.37767 160.11 8.68967 159.772 9.097L159.096 8.486C159.885 7.43733 160.903 6.913 162.151 6.913C162.714 6.913 163.217 7.017 163.659 7.225C164.11 7.42433 164.461 7.71033 164.712 8.083C164.972 8.447 165.102 8.863 165.102 9.331C165.102 9.86833 164.937 10.3147 164.608 10.67C164.287 11.0253 163.876 11.2767 163.373 11.424C163.902 11.5453 164.352 11.788 164.725 12.152C165.106 12.516 165.297 12.9927 165.297 13.582C165.297 14.076 165.167 14.518 164.907 14.908C164.647 15.298 164.279 15.6057 163.802 15.831C163.334 16.0477 162.797 16.156 162.19 16.156Z" fill="#E3EAED"/>
<path d="M231.333 6.66669H229.889V7.55558H231.222V17.3334H218.778V7.55558H220.111V6.66669H218.667C218.563 6.66843 218.46 6.69062 218.365 6.73199C218.27 6.77336 218.183 6.8331 218.111 6.9078C218.039 6.9825 217.982 7.0707 217.944 7.16736C217.906 7.26402 217.887 7.36724 217.889 7.47114V17.4178C217.887 17.5217 217.906 17.6249 217.944 17.7216C217.982 17.8182 218.039 17.9064 218.111 17.9811C218.183 18.0558 218.27 18.1156 218.365 18.157C218.46 18.1983 218.563 18.2205 218.667 18.2222H231.333C231.437 18.2205 231.54 18.1983 231.635 18.157C231.73 18.1156 231.817 18.0558 231.889 17.9811C231.961 17.9064 232.018 17.8182 232.056 17.7216C232.094 17.6249 232.113 17.5217 232.111 17.4178V7.47114C232.113 7.36724 232.094 7.26402 232.056 7.16736C232.018 7.0707 231.961 6.9825 231.889 6.9078C231.817 6.8331 231.73 6.77336 231.635 6.73199C231.54 6.69062 231.437 6.66843 231.333 6.66669Z" fill="#CBD4D8"/>
<path d="M221.444 10.2222H220.556V11.1111H221.444V10.2222Z" fill="#CBD4D8"/>
<path d="M224.111 10.2222H223.222V11.1111H224.111V10.2222Z" fill="#CBD4D8"/>
<path d="M226.778 10.2222H225.889V11.1111H226.778V10.2222Z" fill="#CBD4D8"/>
<path d="M229.444 10.2222H228.556V11.1111H229.444V10.2222Z" fill="#CBD4D8"/>
<path d="M221.444 12.4445H220.556V13.3334H221.444V12.4445Z" fill="#CBD4D8"/>
<path d="M224.111 12.4445H223.222V13.3334H224.111V12.4445Z" fill="#CBD4D8"/>
<path d="M226.778 12.4445H225.889V13.3334H226.778V12.4445Z" fill="#CBD4D8"/>
<path d="M229.444 12.4445H228.556V13.3334H229.444V12.4445Z" fill="#CBD4D8"/>
<path d="M221.444 14.6667H220.556V15.5556H221.444V14.6667Z" fill="#CBD4D8"/>
<path d="M224.111 14.6667H223.222V15.5556H224.111V14.6667Z" fill="#CBD4D8"/>
<path d="M226.778 14.6667H225.889V15.5556H226.778V14.6667Z" fill="#CBD4D8"/>
<path d="M229.444 14.6667H228.556V15.5556H229.444V14.6667Z" fill="#CBD4D8"/>
<path d="M221.444 8.44447C221.562 8.44447 221.675 8.39765 221.759 8.3143C221.842 8.23095 221.889 8.1179 221.889 8.00003V5.33336C221.889 5.21549 221.842 5.10244 221.759 5.01909C221.675 4.93574 221.562 4.88892 221.444 4.88892C221.327 4.88892 221.214 4.93574 221.13 5.01909C221.047 5.10244 221 5.21549 221 5.33336V8.00003C221 8.1179 221.047 8.23095 221.13 8.3143C221.214 8.39765 221.327 8.44447 221.444 8.44447Z" fill="#CBD4D8"/>
<path d="M228.556 8.44447C228.673 8.44447 228.786 8.39765 228.87 8.3143C228.953 8.23095 229 8.1179 229 8.00003V5.33336C229 5.21549 228.953 5.10244 228.87 5.01909C228.786 4.93574 228.673 4.88892 228.556 4.88892C228.438 4.88892 228.325 4.93574 228.241 5.01909C228.158 5.10244 228.111 5.21549 228.111 5.33336V8.00003C228.111 8.1179 228.158 8.23095 228.241 8.3143C228.325 8.39765 228.438 8.44447 228.556 8.44447Z" fill="#CBD4D8"/>
<path d="M227.222 6.66669H222.778V7.55558H227.222V6.66669Z" fill="#CBD4D8"/>
<path d="M4 31.5H280C281.933 31.5 283.5 33.067 283.5 35V427C283.5 428.933 281.933 430.5 280 430.5H4C2.06701 430.5 0.5 428.933 0.5 427V35C0.5 33.067 2.067 31.5 4 31.5Z" fill="#22343C"/>
<path d="M4 31.5H280C281.933 31.5 283.5 33.067 283.5 35V427C283.5 428.933 281.933 430.5 280 430.5H4C2.06701 430.5 0.5 428.933 0.5 427V35C0.5 33.067 2.067 31.5 4 31.5Z" stroke="#6A7A81"/>
<path d="M33.6007 59.14V63.14H40.8807V65.02H33.6007V71H31.5607V57.26H41.6607V59.14H33.6007ZM48.3313 69.6C48.8913 69.6 49.458 69.4867 50.0313 69.26C50.618 69.0333 51.0713 68.7533 51.3913 68.42L52.5513 69.64C52.1113 70.12 51.4913 70.5067 50.6913 70.8C49.9047 71.0933 49.1313 71.24 48.3713 71.24C47.4247 71.24 46.538 71.0067 45.7113 70.54C44.898 70.0733 44.2447 69.4267 43.7513 68.6C43.2713 67.76 43.0313 66.8267 43.0313 65.8C43.0313 64.7867 43.2647 63.8733 43.7313 63.06C44.198 62.2333 44.8247 61.5867 45.6113 61.12C46.4113 60.6533 47.2847 60.42 48.2313 60.42C49.2713 60.42 50.1647 60.6667 50.9113 61.16C51.6713 61.6533 52.2447 62.3533 52.6313 63.26C53.0313 64.1667 53.2313 65.2333 53.2313 66.46H44.9713C45.0913 67.3933 45.4513 68.1533 46.0513 68.74C46.6647 69.3133 47.4247 69.6 48.3313 69.6ZM48.2713 62.06C47.4447 62.06 46.7247 62.3267 46.1113 62.86C45.5113 63.3933 45.138 64.1067 44.9913 65H51.3113C51.2047 64.1333 50.8847 63.4267 50.3513 62.88C49.8313 62.3333 49.138 62.06 48.2713 62.06ZM61.0501 60.42C61.9434 60.42 62.7501 60.6533 63.4701 61.12C64.1901 61.5733 64.7567 62.2133 65.1701 63.04C65.5834 63.8533 65.7901 64.78 65.7901 65.82C65.7901 66.86 65.5834 67.7933 65.1701 68.62C64.7567 69.4467 64.1901 70.0933 63.4701 70.56C62.7501 71.0133 61.9434 71.24 61.0501 71.24C60.2501 71.24 59.5301 71.06 58.8901 70.7C58.2501 70.34 57.7301 69.8267 57.3301 69.16V71H55.3501V57.02H57.3301V62.5C57.7301 61.8333 58.2501 61.32 58.8901 60.96C59.5301 60.6 60.2501 60.42 61.0501 60.42ZM60.5701 69.52C61.1834 69.52 61.7367 69.3667 62.2301 69.06C62.7234 68.74 63.1034 68.3 63.3701 67.74C63.6501 67.1667 63.7901 66.5267 63.7901 65.82C63.7901 65.1133 63.6501 64.48 63.3701 63.92C63.1034 63.36 62.7234 62.9267 62.2301 62.62C61.7367 62.3 61.1834 62.14 60.5701 62.14C59.9567 62.14 59.4034 62.3 58.9101 62.62C58.4301 62.9267 58.0501 63.36 57.7701 63.92C57.5034 64.48 57.3701 65.1133 57.3701 65.82C57.3701 66.5267 57.5034 67.1667 57.7701 67.74C58.0501 68.3 58.4301 68.74 58.9101 69.06C59.4034 69.3667 59.9567 69.52 60.5701 69.52Z" fill="#2EC0FF"/>
<path d="M88.5985 69.34L93.6385 65.18C94.5452 64.42 95.1918 63.7267 95.5785 63.1C95.9785 62.4733 96.1785 61.8467 96.1785 61.22C96.1785 60.5 95.9252 59.9267 95.4185 59.5C94.9118 59.06 94.2985 58.84 93.5785 58.84C92.8585 58.84 92.2118 59.0133 91.6385 59.36C91.0652 59.7067 90.5252 60.2133 90.0185 60.88L88.6585 59.68C89.9385 57.9067 91.6052 57.02 93.6585 57.02C94.5118 57.02 95.2852 57.1933 95.9785 57.54C96.6852 57.8867 97.2385 58.38 97.6385 59.02C98.0518 59.6467 98.2585 60.3667 98.2585 61.18C98.2585 62.1 98.0118 62.96 97.5185 63.76C97.0252 64.56 96.1918 65.44 95.0185 66.4L91.7985 69.12H98.3785V71H88.5985V69.34ZM106.28 71.24C105.147 71.24 104.133 70.94 103.24 70.34C102.347 69.7267 101.647 68.88 101.14 67.8C100.647 66.72 100.4 65.4933 100.4 64.12C100.4 62.7467 100.647 61.5267 101.14 60.46C101.647 59.38 102.347 58.54 103.24 57.94C104.133 57.3267 105.147 57.02 106.28 57.02C107.4 57.02 108.4 57.3267 109.28 57.94C110.173 58.54 110.867 59.38 111.36 60.46C111.867 61.5267 112.12 62.7467 112.12 64.12C112.12 65.4933 111.867 66.72 111.36 67.8C110.867 68.88 110.18 69.7267 109.3 70.34C108.42 70.94 107.413 71.24 106.28 71.24ZM106.28 69.38C107.013 69.38 107.667 69.16 108.24 68.72C108.813 68.2667 109.26 67.64 109.58 66.84C109.9 66.04 110.06 65.1333 110.06 64.12C110.06 63.1067 109.9 62.2067 109.58 61.42C109.26 60.62 108.813 60 108.24 59.56C107.667 59.1067 107.013 58.88 106.28 58.88C105.547 58.88 104.887 59.1067 104.3 59.56C103.727 60 103.273 60.62 102.94 61.42C102.62 62.2067 102.46 63.1067 102.46 64.12C102.46 65.1333 102.62 66.04 102.94 66.84C103.273 67.64 103.727 68.2667 104.3 68.72C104.887 69.16 105.547 69.38 106.28 69.38ZM113.765 69.34L118.805 65.18C119.712 64.42 120.358 63.7267 120.745 63.1C121.145 62.4733 121.345 61.8467 121.345 61.22C121.345 60.5 121.092 59.9267 120.585 59.5C120.078 59.06 119.465 58.84 118.745 58.84C118.025 58.84 117.378 59.0133 116.805 59.36C116.232 59.7067 115.692 60.2133 115.185 60.88L113.825 59.68C115.105 57.9067 116.772 57.02 118.825 57.02C119.678 57.02 120.452 57.1933 121.145 57.54C121.852 57.8867 122.405 58.38 122.805 59.02C123.218 59.6467 123.425 60.3667 123.425 61.18C123.425 62.1 123.178 62.96 122.685 63.76C122.192 64.56 121.358 65.44 120.185 66.4L116.965 69.12H123.545V71H113.765V69.34ZM130.206 71.24C129.086 71.24 128.08 71.0267 127.186 70.6C126.306 70.1733 125.586 69.6067 125.026 68.9L126.326 67.56C126.806 68.1333 127.373 68.5867 128.026 68.92C128.68 69.2533 129.393 69.42 130.166 69.42C131.046 69.42 131.753 69.2067 132.286 68.78C132.82 68.3533 133.086 67.7933 133.086 67.1C133.086 66.3933 132.8 65.86 132.226 65.5C131.666 65.1267 130.873 64.9467 129.846 64.96H128.346V63.16L129.846 63.18C130.74 63.18 131.453 62.9933 131.986 62.62C132.533 62.2467 132.806 61.72 132.806 61.04C132.806 60.4 132.54 59.8733 132.006 59.46C131.473 59.0467 130.806 58.84 130.006 58.84C129.326 58.84 128.706 59 128.146 59.32C127.586 59.6267 127.053 60.08 126.546 60.68L125.286 59.44C126.526 57.8267 128.146 57.02 130.146 57.02C131.066 57.02 131.88 57.18 132.586 57.5C133.306 57.82 133.86 58.2667 134.246 58.84C134.646 59.4 134.846 60.04 134.846 60.76C134.846 61.56 134.6 62.2333 134.106 62.78C133.626 63.3267 133 63.72 132.226 63.96C133.026 64.1467 133.713 64.52 134.286 65.08C134.86 65.6267 135.146 66.3467 135.146 67.24C135.146 68.0133 134.94 68.7067 134.526 69.32C134.113 69.92 133.533 70.3933 132.786 70.74C132.04 71.0733 131.18 71.24 130.206 71.24Z" fill="#2EC0FF"/>
<path d="M179.722 59.88L174.711 65L179.722 70.12C180.007 70.4097 180.459 70.4007 180.733 70.1C181.007 69.7993 180.999 69.3208 180.714 69.0311L176.767 65L180.714 60.9645C180.999 60.6748 181.007 60.1963 180.733 59.8956C180.459 59.5949 180.007 59.5859 179.722 59.8756L179.722 59.88Z" fill="#CBD4D8"/>
<path d="M213.187 68.4934L210.804 66.1111C210.732 66.0261 210.694 65.9167 210.698 65.8049C210.702 65.693 210.749 65.5869 210.828 65.5078C210.907 65.4286 211.013 65.3823 211.125 65.3779C211.237 65.3736 211.346 65.4117 211.431 65.4845L213.187 67.2222L217.027 63.3822C217.112 63.3094 217.221 63.2714 217.333 63.2757C217.445 63.28 217.551 63.3264 217.63 63.4056C217.709 63.4847 217.756 63.5908 217.76 63.7027C217.764 63.8145 217.726 63.9239 217.653 64.0089L213.187 68.4934Z" fill="#CBD4D8"/>
<path d="M220.333 59.6667H218.889V60.5556H220.222V70.3334H207.778V60.5556H209.111V59.6667H207.667C207.563 59.6684 207.46 59.6906 207.365 59.732C207.27 59.7734 207.183 59.8331 207.111 59.9078C207.039 59.9825 206.982 60.0707 206.944 60.1674C206.906 60.264 206.887 60.3672 206.889 60.4711V70.4178C206.887 70.5217 206.906 70.6249 206.944 70.7216C206.982 70.8182 207.039 70.9064 207.111 70.9811C207.183 71.0558 207.27 71.1156 207.365 71.157C207.46 71.1983 207.563 71.2205 207.667 71.2222H220.333C220.437 71.2205 220.54 71.1983 220.635 71.157C220.73 71.1156 220.817 71.0558 220.889 70.9811C220.961 70.9064 221.018 70.8182 221.056 70.7216C221.094 70.6249 221.113 70.5217 221.111 70.4178V60.4711C221.113 60.3672 221.094 60.264 221.056 60.1674C221.018 60.0707 220.961 59.9825 220.889 59.9078C220.817 59.8331 220.73 59.7734 220.635 59.732C220.54 59.6906 220.437 59.6684 220.333 59.6667Z" fill="#CBD4D8"/>
<path d="M210.444 61.4445C210.562 61.4445 210.675 61.3976 210.759 61.3143C210.842 61.2309 210.889 61.1179 210.889 61V58.3334C210.889 58.2155 210.842 58.1024 210.759 58.0191C210.675 57.9357 210.562 57.8889 210.444 57.8889C210.327 57.8889 210.214 57.9357 210.13 58.0191C210.047 58.1024 210 58.2155 210 58.3334V61C210 61.1179 210.047 61.2309 210.13 61.3143C210.214 61.3976 210.327 61.4445 210.444 61.4445Z" fill="#CBD4D8"/>
<path d="M217.556 61.4445C217.673 61.4445 217.786 61.3976 217.87 61.3143C217.953 61.2309 218 61.1179 218 61V58.3334C218 58.2155 217.953 58.1024 217.87 58.0191C217.786 57.9357 217.673 57.8889 217.556 57.8889C217.438 57.8889 217.325 57.9357 217.241 58.0191C217.158 58.1024 217.111 58.2155 217.111 58.3334V61C217.111 61.1179 217.158 61.2309 217.241 61.3143C217.325 61.3976 217.438 61.4445 217.556 61.4445Z" fill="#CBD4D8"/>
<path d="M216.222 59.6667H211.778V60.5556H216.222V59.6667Z" fill="#CBD4D8"/>
<path d="M248.278 70.12L253.289 65L248.278 59.88C247.993 59.5903 247.541 59.5993 247.267 59.9C246.993 60.2007 247.001 60.6792 247.286 60.9689L251.233 65L247.286 69.0355C247.001 69.3252 246.993 69.8037 247.267 70.1044C247.541 70.4051 247.993 70.4141 248.278 70.1244L248.278 70.12Z" fill="#CBD4D8"/>
<path d="M30.2786 103.143C29.5246 103.143 28.8226 103.022 28.1726 102.779C27.5313 102.528 26.9593 102.168 26.4566 101.7L27.4056 100.543C28.2983 101.349 29.2776 101.752 30.3436 101.752C30.8636 101.752 31.2709 101.639 31.5656 101.414C31.8603 101.189 32.0076 100.907 32.0076 100.569C32.0076 100.326 31.9339 100.131 31.7866 99.984C31.6479 99.828 31.4356 99.698 31.1496 99.594C30.8723 99.4813 30.4693 99.3643 29.9406 99.243C29.2473 99.0783 28.6796 98.9007 28.2376 98.71C27.7956 98.5107 27.4489 98.2463 27.1976 97.917C26.9463 97.579 26.8206 97.1413 26.8206 96.604C26.8206 96.0927 26.9549 95.6333 27.2236 95.226C27.5009 94.81 27.8823 94.4893 28.3676 94.264C28.8529 94.03 29.4033 93.913 30.0186 93.913C31.3099 93.913 32.4366 94.329 33.3986 95.161L32.5146 96.344C32.1246 96.006 31.7129 95.7503 31.2796 95.577C30.8463 95.395 30.4086 95.304 29.9666 95.304C29.5246 95.304 29.1606 95.4167 28.8746 95.642C28.5973 95.8673 28.4586 96.1403 28.4586 96.461C28.4586 96.695 28.5279 96.89 28.6666 97.046C28.8139 97.202 29.0306 97.332 29.3166 97.436C29.6113 97.54 30.0143 97.6527 30.5256 97.774C31.5569 98.008 32.3326 98.32 32.8526 98.71C33.3726 99.0913 33.6326 99.659 33.6326 100.413C33.6326 100.95 33.4983 101.427 33.2296 101.843C32.9696 102.25 32.5883 102.571 32.0856 102.805C31.5829 103.03 30.9806 103.143 30.2786 103.143ZM41.1596 96.279V103H39.5736V102.09C39.3656 102.411 39.0753 102.671 38.7026 102.87C38.33 103.061 37.9226 103.156 37.4806 103.156C36.9953 103.156 36.562 103.048 36.1806 102.831C35.808 102.606 35.5133 102.298 35.2966 101.908C35.0886 101.509 34.9846 101.059 34.9846 100.556V96.279H36.5316V100.244C36.5316 100.703 36.6616 101.08 36.9216 101.375C37.1816 101.661 37.5196 101.804 37.9356 101.804C38.395 101.804 38.7806 101.665 39.0926 101.388C39.4133 101.102 39.5736 100.755 39.5736 100.348V96.279H41.1596Z" fill="#AEB8BC"/>
<path d="M61.4707 94.069H63.0827L66.0337 99.516L68.9717 94.069H70.5967V103H68.9717V97.033L66.0337 102.48L63.0827 97.033V103H61.4707V94.069ZM75.7959 103.156C75.1459 103.156 74.5435 103 73.9889 102.688C73.4342 102.367 72.9922 101.938 72.6629 101.401C72.3422 100.855 72.1819 100.266 72.1819 99.633C72.1819 99.0003 72.3422 98.4153 72.6629 97.878C72.9922 97.3407 73.4342 96.916 73.9889 96.604C74.5435 96.2833 75.1459 96.123 75.7959 96.123C76.4459 96.123 77.0439 96.2833 77.5899 96.604C78.1445 96.916 78.5822 97.3407 78.9029 97.878C79.2235 98.4153 79.3839 99.0003 79.3839 99.633C79.3839 100.266 79.2235 100.855 78.9029 101.401C78.5822 101.938 78.1445 102.367 77.5899 102.688C77.0439 103 76.4459 103.156 75.7959 103.156ZM75.7959 101.804C76.1599 101.804 76.4979 101.709 76.8099 101.518C77.1219 101.319 77.3689 101.054 77.5509 100.725C77.7415 100.387 77.8369 100.023 77.8369 99.633C77.8369 99.243 77.7459 98.8833 77.5639 98.554C77.3819 98.2247 77.1305 97.9647 76.8099 97.774C76.4979 97.5747 76.1599 97.475 75.7959 97.475C75.4232 97.475 75.0809 97.5747 74.7689 97.774C74.4569 97.9647 74.2055 98.2247 74.0149 98.554C73.8329 98.8833 73.7419 99.243 73.7419 99.633C73.7419 100.023 73.8329 100.387 74.0149 100.725C74.2055 101.054 74.4569 101.319 74.7689 101.518C75.0809 101.709 75.4232 101.804 75.7959 101.804Z" fill="#AEB8BC"/>
<path d="M101.282 95.551H98.4218V94.069H105.754V95.551H102.907V103H101.282V95.551ZM113.064 96.279V103H111.478V102.09C111.27 102.411 110.98 102.671 110.607 102.87C110.235 103.061 109.827 103.156 109.385 103.156C108.9 103.156 108.467 103.048 108.085 102.831C107.713 102.606 107.418 102.298 107.201 101.908C106.993 101.509 106.889 101.059 106.889 100.556V96.279H108.436V100.244C108.436 100.703 108.566 101.08 108.826 101.375C109.086 101.661 109.424 101.804 109.84 101.804C110.3 101.804 110.685 101.665 110.997 101.388C111.318 101.102 111.478 100.755 111.478 100.348V96.279H113.064Z" fill="#AEB8BC"/>
<path d="M131.578 94.069H133.359L135.27 100.465L137.389 94.069H139.144L141.25 100.465L143.174 94.069H144.942L142.121 103H140.509L138.273 96.37L136.024 103H134.412L131.578 94.069ZM149.209 101.882C149.547 101.882 149.889 101.817 150.236 101.687C150.583 101.557 150.864 101.388 151.081 101.18L151.991 102.116C151.705 102.419 151.302 102.671 150.782 102.87C150.262 103.061 149.755 103.156 149.261 103.156C148.62 103.156 148.026 103.004 147.48 102.701C146.943 102.398 146.514 101.977 146.193 101.44C145.881 100.903 145.725 100.296 145.725 99.62C145.725 98.9527 145.877 98.3547 146.18 97.826C146.483 97.2973 146.899 96.8813 147.428 96.578C147.957 96.2747 148.537 96.123 149.17 96.123C150.201 96.123 151.007 96.4783 151.588 97.189C152.177 97.8997 152.472 98.8703 152.472 100.101H147.259C147.346 100.638 147.562 101.072 147.909 101.401C148.264 101.722 148.698 101.882 149.209 101.882ZM149.183 97.397C148.706 97.397 148.295 97.5487 147.948 97.852C147.601 98.1467 147.376 98.5453 147.272 99.048H150.938C150.86 98.554 150.669 98.1553 150.366 97.852C150.071 97.5487 149.677 97.397 149.183 97.397Z" fill="#AEB8BC"/>
<path d="M173.282 95.551H170.422V94.069H177.754V95.551H174.907V103H173.282V95.551ZM182.698 96.123C183.184 96.123 183.617 96.2357 183.998 96.461C184.38 96.6777 184.674 96.9853 184.882 97.384C185.099 97.774 185.207 98.2203 185.207 98.723V103H183.66V99.035C183.66 98.5757 183.53 98.203 183.27 97.917C183.01 97.6223 182.672 97.475 182.256 97.475C181.797 97.475 181.407 97.618 181.086 97.904C180.774 98.1813 180.618 98.5237 180.618 98.931V103H179.032V93.913H180.618V97.189C180.826 96.8683 181.112 96.6127 181.476 96.422C181.849 96.2227 182.256 96.123 182.698 96.123Z" fill="#AEB8BC"/>
<path d="M210.009 95.551V97.813H214.611V99.295H210.009V103H208.384V94.069H215.105V95.551H210.009ZM218.091 97.553C218.308 97.111 218.628 96.7643 219.053 96.513C219.478 96.253 219.959 96.123 220.496 96.123V97.475C219.777 97.475 219.196 97.67 218.754 98.06C218.312 98.45 218.091 98.9657 218.091 99.607V103H216.505V96.279H218.091V97.553Z" fill="#AEB8BC"/>
<path d="M246.583 103.143C245.829 103.143 245.127 103.022 244.477 102.779C243.836 102.528 243.264 102.168 242.761 101.7L243.71 100.543C244.603 101.349 245.582 101.752 246.648 101.752C247.168 101.752 247.576 101.639 247.87 101.414C248.165 101.189 248.312 100.907 248.312 100.569C248.312 100.326 248.239 100.131 248.091 99.984C247.953 99.828 247.74 99.698 247.454 99.594C247.177 99.4813 246.774 99.3643 246.245 99.243C245.552 99.0783 244.984 98.9007 244.542 98.71C244.1 98.5107 243.754 98.2463 243.502 97.917C243.251 97.579 243.125 97.1413 243.125 96.604C243.125 96.0927 243.26 95.6333 243.528 95.226C243.806 94.81 244.187 94.4893 244.672 94.264C245.158 94.03 245.708 93.913 246.323 93.913C247.615 93.913 248.741 94.329 249.703 95.161L248.819 96.344C248.429 96.006 248.018 95.7503 247.584 95.577C247.151 95.395 246.713 95.304 246.271 95.304C245.829 95.304 245.465 95.4167 245.179 95.642C244.902 95.8673 244.763 96.1403 244.763 96.461C244.763 96.695 244.833 96.89 244.971 97.046C245.119 97.202 245.335 97.332 245.621 97.436C245.916 97.54 246.319 97.6527 246.83 97.774C247.862 98.008 248.637 98.32 249.157 98.71C249.677 99.0913 249.937 99.659 249.937 100.413C249.937 100.95 249.803 101.427 249.534 101.843C249.274 102.25 248.893 102.571 248.39 102.805C247.888 103.03 247.285 103.143 246.583 103.143ZM254.123 96.123C255.007 96.123 255.705 96.383 256.216 96.903C256.736 97.4143 256.996 98.099 256.996 98.957V103H255.449V102.207C255.207 102.502 254.895 102.736 254.513 102.909C254.132 103.074 253.742 103.156 253.343 103.156C252.867 103.156 252.438 103.069 252.056 102.896C251.684 102.714 251.389 102.463 251.172 102.142C250.956 101.813 250.847 101.436 250.847 101.011C250.847 100.578 250.969 100.192 251.211 99.854C251.454 99.516 251.783 99.2517 252.199 99.061C252.615 98.8703 253.075 98.775 253.577 98.775C254.175 98.775 254.799 98.892 255.449 99.126V98.957C255.449 98.515 255.315 98.151 255.046 97.865C254.786 97.5703 254.375 97.423 253.811 97.423C253.274 97.423 252.667 97.592 251.991 97.93L251.445 96.825C252.399 96.357 253.291 96.123 254.123 96.123ZM253.694 101.999C254.102 101.999 254.474 101.899 254.812 101.7C255.159 101.501 255.371 101.232 255.449 100.894V100.127C254.929 99.9623 254.383 99.88 253.811 99.88C253.404 99.88 253.062 99.984 252.784 100.192C252.507 100.391 252.368 100.647 252.368 100.959C252.368 101.271 252.494 101.522 252.745 101.713C252.997 101.904 253.313 101.999 253.694 101.999Z" fill="#AEB8BC"/>
<path d="M177.989 129.304L176.429 130.318L175.987 129.564L178.184 128.069H179.003V137H177.989V129.304Z" fill="#CBD4D8"/>
<path d="M210.817 136.155L214.08 133.373C214.704 132.836 215.154 132.346 215.432 131.904C215.718 131.453 215.861 131.003 215.861 130.552C215.861 130.205 215.774 129.902 215.601 129.642C215.427 129.373 215.198 129.17 214.912 129.031C214.626 128.892 214.322 128.823 214.002 128.823C213.508 128.823 213.066 128.944 212.676 129.187C212.294 129.43 211.939 129.772 211.61 130.214L210.895 129.629C211.701 128.485 212.749 127.913 214.041 127.913C214.561 127.913 215.037 128.021 215.471 128.238C215.904 128.455 216.246 128.762 216.498 129.161C216.758 129.56 216.888 130.019 216.888 130.539C216.888 131.137 216.723 131.705 216.394 132.242C216.073 132.771 215.536 133.36 214.782 134.01L212.442 136.038H216.979V137H210.817V136.155Z" fill="#CBD4D8"/>
<path d="M249.907 137.156C249.205 137.156 248.572 137.017 248.009 136.74C247.454 136.454 247.003 136.081 246.657 135.622L247.359 134.959C247.662 135.358 248.03 135.67 248.464 135.895C248.897 136.12 249.378 136.233 249.907 136.233C250.531 136.233 251.033 136.077 251.415 135.765C251.796 135.453 251.987 135.041 251.987 134.53C251.987 134.01 251.783 133.616 251.376 133.347C250.968 133.078 250.405 132.944 249.686 132.944H248.737V132.008L249.699 132.021C250.314 132.03 250.817 131.895 251.207 131.618C251.597 131.332 251.792 130.942 251.792 130.448C251.792 129.98 251.601 129.594 251.22 129.291C250.847 128.988 250.379 128.836 249.816 128.836C249.348 128.836 248.927 128.944 248.555 129.161C248.182 129.378 247.827 129.69 247.489 130.097L246.813 129.486C247.601 128.437 248.62 127.913 249.868 127.913C250.431 127.913 250.934 128.017 251.376 128.225C251.826 128.424 252.177 128.71 252.429 129.083C252.689 129.447 252.819 129.863 252.819 130.331C252.819 130.868 252.654 131.315 252.325 131.67C252.004 132.025 251.592 132.277 251.09 132.424C251.618 132.545 252.069 132.788 252.442 133.152C252.823 133.516 253.014 133.993 253.014 134.582C253.014 135.076 252.884 135.518 252.624 135.908C252.364 136.298 251.995 136.606 251.519 136.831C251.051 137.048 250.513 137.156 249.907 137.156Z" fill="#CBD4D8"/>
<path d="M35.1687 174.829H30.7097L30.5797 173.984L35.0127 168.069H36.1827V173.906H37.5217V174.829H36.1827V177H35.1687V174.829ZM35.1687 173.906V169.291L31.7367 173.906H35.1687Z" fill="#CBD4D8"/>
<path d="M70.058 177.156C69.3993 177.156 68.8056 177.03 68.277 176.779C67.757 176.528 67.302 176.181 66.912 175.739L67.575 174.998C68.3376 175.83 69.1783 176.246 70.097 176.246C70.5043 176.246 70.8683 176.159 71.189 175.986C71.5096 175.813 71.7566 175.574 71.93 175.271C72.112 174.968 72.203 174.63 72.203 174.257C72.203 173.685 72.0036 173.221 71.605 172.866C71.2063 172.511 70.695 172.333 70.071 172.333C69.3603 172.333 68.6973 172.563 68.082 173.022L67.341 172.658L67.471 168.069H72.749V169.031H68.459L68.368 172.034C68.9573 171.635 69.5943 171.436 70.279 171.436C70.825 171.436 71.319 171.549 71.761 171.774C72.2116 171.991 72.567 172.311 72.827 172.736C73.0956 173.152 73.23 173.646 73.23 174.218C73.23 174.799 73.0913 175.314 72.814 175.765C72.5453 176.207 72.1683 176.549 71.683 176.792C71.2063 177.035 70.6646 177.156 70.058 177.156Z" fill="#CBD4D8"/>
<path d="M106.413 171.423C106.959 171.423 107.457 171.536 107.908 171.761C108.367 171.978 108.731 172.298 109 172.723C109.268 173.139 109.403 173.633 109.403 174.205C109.403 174.751 109.268 175.249 109 175.7C108.731 176.151 108.358 176.506 107.882 176.766C107.405 177.026 106.863 177.156 106.257 177.156C105.104 177.156 104.25 176.749 103.696 175.934C103.141 175.111 102.864 174.023 102.864 172.671C102.864 171.796 103.024 170.994 103.345 170.266C103.665 169.538 104.099 168.966 104.645 168.55C105.199 168.125 105.81 167.913 106.478 167.913C106.998 167.913 107.461 168.004 107.869 168.186C108.276 168.368 108.657 168.632 109.013 168.979L108.454 169.772C108.142 169.469 107.83 169.239 107.518 169.083C107.206 168.918 106.85 168.836 106.452 168.836C105.984 168.836 105.555 169.009 105.165 169.356C104.775 169.694 104.463 170.158 104.229 170.747C104.003 171.328 103.891 171.969 103.891 172.671V172.788C104.168 172.355 104.523 172.021 104.957 171.787C105.399 171.544 105.884 171.423 106.413 171.423ZM106.244 176.285C106.668 176.285 107.041 176.19 107.362 175.999C107.691 175.8 107.942 175.544 108.116 175.232C108.289 174.92 108.376 174.595 108.376 174.257C108.376 173.659 108.172 173.182 107.765 172.827C107.357 172.472 106.846 172.294 106.231 172.294C105.667 172.294 105.182 172.45 104.775 172.762C104.376 173.065 104.12 173.464 104.008 173.958C104.146 174.669 104.402 175.236 104.775 175.661C105.156 176.077 105.646 176.285 106.244 176.285Z" fill="#CBD4D8"/>
<path d="M143.827 169.031H138.991V168.069H145.036V168.836L141.188 177H140.018L143.827 169.031Z" fill="#CBD4D8"/>
<rect x="160" y="155" width="36" height="36" rx="4" fill="#2EC0FF"/>
<path d="M178.045 177.156C177.395 177.156 176.806 177.056 176.277 176.857C175.749 176.649 175.333 176.354 175.029 175.973C174.726 175.583 174.574 175.132 174.574 174.621C174.574 174.101 174.739 173.65 175.068 173.269C175.406 172.879 175.848 172.584 176.394 172.385C175.9 172.177 175.51 171.904 175.224 171.566C174.947 171.219 174.808 170.803 174.808 170.318C174.808 169.824 174.956 169.395 175.25 169.031C175.554 168.667 175.952 168.39 176.446 168.199C176.94 168.008 177.473 167.913 178.045 167.913C178.626 167.913 179.163 168.013 179.657 168.212C180.16 168.403 180.559 168.68 180.853 169.044C181.148 169.408 181.295 169.833 181.295 170.318C181.295 170.812 181.152 171.232 180.866 171.579C180.58 171.917 180.195 172.186 179.709 172.385C180.264 172.593 180.706 172.892 181.035 173.282C181.365 173.663 181.529 174.11 181.529 174.621C181.529 175.141 181.373 175.592 181.061 175.973C180.758 176.354 180.342 176.649 179.813 176.857C179.285 177.056 178.695 177.156 178.045 177.156ZM178.045 171.8C178.47 171.783 178.851 171.657 179.189 171.423C179.527 171.189 179.696 170.89 179.696 170.526C179.696 170.179 179.536 169.889 179.215 169.655C178.903 169.412 178.513 169.291 178.045 169.291C177.577 169.291 177.187 169.408 176.875 169.642C176.563 169.876 176.407 170.171 176.407 170.526C176.407 170.899 176.576 171.198 176.914 171.423C177.252 171.648 177.629 171.774 178.045 171.8ZM178.045 175.765C178.574 175.765 179.012 175.644 179.358 175.401C179.714 175.158 179.891 174.846 179.891 174.465C179.891 174.205 179.796 173.975 179.605 173.776C179.423 173.568 179.189 173.408 178.903 173.295C178.617 173.182 178.331 173.117 178.045 173.1C177.759 173.117 177.473 173.182 177.187 173.295C176.901 173.408 176.663 173.568 176.472 173.776C176.29 173.975 176.199 174.205 176.199 174.465C176.199 174.846 176.373 175.158 176.719 175.401C177.066 175.644 177.508 175.765 178.045 175.765Z" fill="black"/>
<rect width="6" height="36" transform="matrix(-1 0 0 1 196 155)" fill="#2EC0FF"/>
<rect x="196" y="155" width="36" height="36" fill="#004B6B"/>
<path d="M213.841 167.913C214.993 167.913 215.847 168.325 216.402 169.148C216.956 169.963 217.234 171.046 217.234 172.398C217.234 173.273 217.073 174.075 216.753 174.803C216.432 175.531 215.994 176.107 215.44 176.532C214.894 176.948 214.287 177.156 213.62 177.156C213.1 177.156 212.636 177.065 212.229 176.883C211.821 176.701 211.44 176.437 211.085 176.09L211.644 175.297C211.956 175.6 212.268 175.834 212.58 175.999C212.892 176.155 213.247 176.233 213.646 176.233C214.114 176.233 214.543 176.064 214.933 175.726C215.323 175.379 215.63 174.916 215.856 174.335C216.09 173.746 216.207 173.1 216.207 172.398V172.281C215.929 172.714 215.57 173.052 215.128 173.295C214.694 173.529 214.213 173.646 213.685 173.646C213.139 173.646 212.636 173.538 212.177 173.321C211.726 173.096 211.366 172.775 211.098 172.359C210.829 171.934 210.695 171.436 210.695 170.864C210.695 170.318 210.829 169.82 211.098 169.369C211.366 168.918 211.739 168.563 212.216 168.303C212.692 168.043 213.234 167.913 213.841 167.913ZM213.867 172.775C214.43 172.775 214.911 172.623 215.31 172.32C215.717 172.008 215.977 171.605 216.09 171.111C215.951 170.4 215.691 169.837 215.31 169.421C214.937 168.996 214.452 168.784 213.854 168.784C213.429 168.784 213.052 168.884 212.723 169.083C212.402 169.274 212.155 169.525 211.982 169.837C211.808 170.149 211.722 170.474 211.722 170.812C211.722 171.41 211.925 171.887 212.333 172.242C212.74 172.597 213.251 172.775 213.867 172.775Z" fill="#CBD4D8"/>
<rect x="232" y="155" width="36" height="36" fill="#004B6B"/>
<path d="M245.545 169.304L243.985 170.318L243.543 169.564L245.74 168.069H246.559V177H245.545V169.304ZM252.327 177.156C251.608 177.156 250.966 176.961 250.403 176.571C249.84 176.172 249.398 175.622 249.077 174.92C248.765 174.218 248.609 173.421 248.609 172.528C248.609 171.635 248.765 170.842 249.077 170.149C249.398 169.447 249.84 168.901 250.403 168.511C250.966 168.112 251.608 167.913 252.327 167.913C253.038 167.913 253.675 168.112 254.238 168.511C254.801 168.901 255.239 169.447 255.551 170.149C255.872 170.842 256.032 171.635 256.032 172.528C256.032 173.421 255.872 174.218 255.551 174.92C255.239 175.622 254.801 176.172 254.238 176.571C253.683 176.961 253.046 177.156 252.327 177.156ZM252.327 176.22C252.847 176.22 253.311 176.064 253.718 175.752C254.125 175.431 254.442 174.994 254.667 174.439C254.892 173.876 255.005 173.239 255.005 172.528C255.005 171.817 254.892 171.185 254.667 170.63C254.442 170.067 254.125 169.629 253.718 169.317C253.311 169.005 252.847 168.849 252.327 168.849C251.807 168.849 251.343 169.005 250.936 169.317C250.529 169.629 250.208 170.067 249.974 170.63C249.749 171.185 249.636 171.817 249.636 172.528C249.636 173.239 249.749 173.876 249.974 174.439C250.208 174.994 250.529 175.431 250.936 175.752C251.343 176.064 251.807 176.22 252.327 176.22Z" fill="#CBD4D8"/>
<path d="M16 195H52V231H16V195Z" fill="#004B6B"/>
<path d="M31.7155 209.304L30.1555 210.318L29.7135 209.564L31.9105 208.069H32.7295V217H31.7155V209.304ZM36.262 209.304L34.702 210.318L34.26 209.564L36.457 208.069H37.276V217H36.262V209.304Z" fill="#CBD4D8"/>
<rect x="52" y="195" width="36" height="36" fill="#004B6B"/>
<path d="M66.3635 209.304L64.8035 210.318L64.3615 209.564L66.5585 208.069H67.3775V217H66.3635V209.304ZM69.0899 216.155L72.3529 213.373C72.9769 212.836 73.4276 212.346 73.7049 211.904C73.9909 211.453 74.1339 211.003 74.1339 210.552C74.1339 210.205 74.0473 209.902 73.8739 209.642C73.7006 209.373 73.4709 209.17 73.1849 209.031C72.8989 208.892 72.5956 208.823 72.2749 208.823C71.7809 208.823 71.3389 208.944 70.9489 209.187C70.5676 209.43 70.2123 209.772 69.8829 210.214L69.1679 209.629C69.9739 208.485 71.0226 207.913 72.3139 207.913C72.8339 207.913 73.3106 208.021 73.7439 208.238C74.1773 208.455 74.5196 208.762 74.7709 209.161C75.0309 209.56 75.1609 210.019 75.1609 210.539C75.1609 211.137 74.9963 211.705 74.6669 212.242C74.3463 212.771 73.8089 213.36 73.0549 214.01L70.7149 216.038H75.2519V217H69.0899V216.155Z" fill="#CBD4D8"/>
<rect x="88" y="195" width="36" height="36" fill="#004B6B"/>
<path d="M101.994 209.941L100.46 210.916L99.8098 209.772L102.319 208.069H103.619V217H101.994V209.941ZM108.553 217.156C107.799 217.156 107.123 217.022 106.525 216.753C105.936 216.476 105.45 216.107 105.069 215.648L106.057 214.582C106.369 214.937 106.733 215.215 107.149 215.414C107.565 215.613 108.011 215.713 108.488 215.713C109.025 215.713 109.446 215.596 109.749 215.362C110.061 215.119 110.217 214.799 110.217 214.4C110.217 214.001 110.052 213.702 109.723 213.503C109.402 213.295 108.926 213.191 108.293 213.191L107.292 213.204V211.8H108.293C108.83 211.809 109.255 211.709 109.567 211.501C109.879 211.284 110.035 210.985 110.035 210.604C110.035 210.24 109.879 209.945 109.567 209.72C109.264 209.486 108.869 209.369 108.384 209.369C107.959 209.369 107.569 209.464 107.214 209.655C106.859 209.846 106.521 210.119 106.2 210.474L105.238 209.486C106.07 208.437 107.162 207.913 108.514 207.913C109.138 207.913 109.688 208.017 110.165 208.225C110.65 208.433 111.023 208.723 111.283 209.096C111.552 209.46 111.686 209.876 111.686 210.344C111.686 210.864 111.53 211.302 111.218 211.657C110.906 212.012 110.499 212.264 109.996 212.411C110.525 212.532 110.971 212.775 111.335 213.139C111.699 213.503 111.881 213.967 111.881 214.53C111.881 215.041 111.742 215.496 111.465 215.895C111.188 216.285 110.798 216.593 110.295 216.818C109.792 217.043 109.212 217.156 108.553 217.156Z" fill="#CBD4D8"/>
<rect x="88.5" y="195.5" width="35" height="35" rx="3.5" stroke="#CBD4D8"/>
<rect x="124" y="195" width="36" height="36" fill="#004B6B"/>
<path d="M138.217 209.304L136.657 210.318L136.215 209.564L138.412 208.069H139.231V217H138.217V209.304ZM145.442 214.829H140.983L140.853 213.984L145.286 208.069H146.456V213.906H147.795V214.829H146.456V217H145.442V214.829ZM145.442 213.906V209.291L142.01 213.906H145.442Z" fill="#CBD4D8"/>
<rect x="160" y="195" width="36" height="36" fill="#004B6B"/>
<path d="M174.186 209.304L172.626 210.318L172.184 209.564L174.381 208.069H175.2V217H174.186V209.304ZM180.331 217.156C179.673 217.156 179.079 217.03 178.55 216.779C178.03 216.528 177.575 216.181 177.185 215.739L177.848 214.998C178.611 215.83 179.452 216.246 180.37 216.246C180.778 216.246 181.142 216.159 181.462 215.986C181.783 215.813 182.03 215.574 182.203 215.271C182.385 214.968 182.476 214.63 182.476 214.257C182.476 213.685 182.277 213.221 181.878 212.866C181.48 212.511 180.968 212.333 180.344 212.333C179.634 212.333 178.971 212.563 178.355 213.022L177.614 212.658L177.744 208.069H183.022V209.031H178.732L178.641 212.034C179.231 211.635 179.868 211.436 180.552 211.436C181.098 211.436 181.592 211.549 182.034 211.774C182.485 211.991 182.84 212.311 183.1 212.736C183.369 213.152 183.503 213.646 183.503 214.218C183.503 214.799 183.365 215.314 183.087 215.765C182.819 216.207 182.442 216.549 181.956 216.792C181.48 217.035 180.938 217.156 180.331 217.156Z" fill="#CBD4D8"/>
<rect x="196" y="195" width="36" height="36" rx="4" fill="#2EC0FF"/>
<path d="M209.797 209.941L208.263 210.916L207.613 209.772L210.122 208.069H211.422V217H209.797V209.941ZM217.201 211.293C217.756 211.293 218.259 211.406 218.709 211.631C219.169 211.856 219.533 212.186 219.801 212.619C220.07 213.044 220.204 213.542 220.204 214.114C220.204 214.695 220.061 215.219 219.775 215.687C219.489 216.146 219.091 216.506 218.579 216.766C218.077 217.026 217.509 217.156 216.876 217.156C215.654 217.156 214.736 216.749 214.12 215.934C213.514 215.119 213.21 214.036 213.21 212.684C213.21 211.774 213.375 210.959 213.704 210.24C214.042 209.512 214.51 208.944 215.108 208.537C215.706 208.121 216.387 207.913 217.149 207.913C218.155 207.913 219.047 208.247 219.827 208.914L219.034 210.149C218.731 209.889 218.432 209.69 218.137 209.551C217.843 209.412 217.513 209.343 217.149 209.343C216.525 209.343 216.005 209.616 215.589 210.162C215.182 210.708 214.948 211.419 214.887 212.294C215.165 211.982 215.507 211.739 215.914 211.566C216.322 211.384 216.751 211.293 217.201 211.293ZM216.798 215.778C217.145 215.778 217.453 215.704 217.721 215.557C217.99 215.41 218.194 215.215 218.332 214.972C218.48 214.721 218.553 214.456 218.553 214.179C218.553 213.702 218.38 213.325 218.033 213.048C217.695 212.762 217.275 212.619 216.772 212.619C216.339 212.619 215.962 212.732 215.641 212.957C215.321 213.174 215.095 213.468 214.965 213.841C215.173 215.132 215.784 215.778 216.798 215.778Z" fill="black"/>
<rect x="196" y="195" width="11" height="36" fill="#2EC0FF"/>
<path d="M246.694 209.304L245.134 210.318L244.692 209.564L246.889 208.069H247.708V217H246.694V209.304ZM254.1 209.031H249.264V208.069H255.309V208.836L251.461 217H250.291L254.1 209.031Z" fill="#CBD4D8"/>
<path d="M30.0016 249.304L28.4416 250.318L27.9996 249.564L30.1966 248.069H31.0156V257H30.0016V249.304ZM36.3161 257.156C35.7008 257.156 35.1461 257.052 34.6521 256.844C34.1581 256.636 33.7681 256.346 33.4821 255.973C33.1961 255.592 33.0531 255.154 33.0531 254.66C33.0531 254.123 33.2351 253.655 33.5991 253.256C33.9718 252.857 34.4485 252.567 35.0291 252.385C34.4918 252.177 34.0671 251.9 33.7551 251.553C33.4431 251.198 33.2871 250.773 33.2871 250.279C33.2871 249.802 33.4258 249.386 33.7031 249.031C33.9891 248.667 34.3618 248.39 34.8211 248.199C35.2891 248.008 35.7875 247.913 36.3161 247.913C36.8535 247.913 37.3518 248.013 37.8111 248.212C38.2791 248.403 38.6518 248.68 38.9291 249.044C39.2151 249.399 39.3581 249.815 39.3581 250.292C39.3581 250.803 39.1935 251.232 38.8641 251.579C38.5435 251.926 38.1275 252.194 37.6161 252.385C38.1881 252.576 38.6561 252.87 39.0201 253.269C39.3928 253.668 39.5791 254.131 39.5791 254.66C39.5791 255.154 39.4361 255.592 39.1501 255.973C38.8641 256.346 38.4698 256.636 37.9671 256.844C37.4731 257.052 36.9228 257.156 36.3161 257.156ZM36.3161 251.982C36.6281 251.965 36.9401 251.891 37.2521 251.761C37.5641 251.631 37.8198 251.449 38.0191 251.215C38.2271 250.981 38.3311 250.704 38.3311 250.383C38.3311 250.088 38.2401 249.824 38.0581 249.59C37.8848 249.356 37.6421 249.174 37.3301 249.044C37.0268 248.905 36.6888 248.836 36.3161 248.836C35.7528 248.836 35.2761 248.983 34.8861 249.278C34.5048 249.573 34.3141 249.941 34.3141 250.383C34.3141 250.712 34.4181 250.994 34.6261 251.228C34.8341 251.462 35.0898 251.644 35.3931 251.774C35.7051 251.895 36.0128 251.965 36.3161 251.982ZM36.3161 256.233C36.7235 256.233 37.0961 256.164 37.4341 256.025C37.7808 255.886 38.0538 255.696 38.2531 255.453C38.4525 255.202 38.5521 254.916 38.5521 254.595C38.5521 254.257 38.4351 253.958 38.2011 253.698C37.9671 253.438 37.6768 253.239 37.3301 253.1C36.9835 252.953 36.6455 252.875 36.3161 252.866C35.9868 252.875 35.6488 252.953 35.3021 253.1C34.9555 253.239 34.6651 253.438 34.4311 253.698C34.1971 253.958 34.0801 254.257 34.0801 254.595C34.0801 254.916 34.1798 255.202 34.3791 255.453C34.5785 255.696 34.8471 255.886 35.1851 256.025C35.5318 256.164 35.9088 256.233 36.3161 256.233Z" fill="#CBD4D8"/>
<path d="M66.0334 249.304L64.4734 250.318L64.0314 249.564L66.2284 248.069H67.0474V257H66.0334V249.304ZM72.1139 247.913C73.2665 247.913 74.1202 248.325 74.6749 249.148C75.2295 249.963 75.5069 251.046 75.5069 252.398C75.5069 253.273 75.3465 254.075 75.0259 254.803C74.7052 255.531 74.2675 256.107 73.7129 256.532C73.1669 256.948 72.5602 257.156 71.8929 257.156C71.3729 257.156 70.9092 257.065 70.5019 256.883C70.0945 256.701 69.7132 256.437 69.3579 256.09L69.9169 255.297C70.2289 255.6 70.5409 255.834 70.8529 255.999C71.1649 256.155 71.5202 256.233 71.9189 256.233C72.3869 256.233 72.8159 256.064 73.2059 255.726C73.5959 255.379 73.9035 254.916 74.1289 254.335C74.3629 253.746 74.4799 253.1 74.4799 252.398V252.281C74.2025 252.714 73.8429 253.052 73.4009 253.295C72.9675 253.529 72.4865 253.646 71.9579 253.646C71.4119 253.646 70.9092 253.538 70.4499 253.321C69.9992 253.096 69.6395 252.775 69.3709 252.359C69.1022 251.934 68.9679 251.436 68.9679 250.864C68.9679 250.318 69.1022 249.82 69.3709 249.369C69.6395 248.918 70.0122 248.563 70.4889 248.303C70.9655 248.043 71.5072 247.913 72.1139 247.913ZM72.1399 252.775C72.7032 252.775 73.1842 252.623 73.5829 252.32C73.9902 252.008 74.2502 251.605 74.3629 251.111C74.2242 250.4 73.9642 249.837 73.5829 249.421C73.2102 248.996 72.7249 248.784 72.1269 248.784C71.7022 248.784 71.3252 248.884 70.9959 249.083C70.6752 249.274 70.4282 249.525 70.2549 249.837C70.0815 250.149 69.9949 250.474 69.9949 250.812C69.9949 251.41 70.1985 251.887 70.6059 252.242C71.0132 252.597 71.5245 252.775 72.1399 252.775Z" fill="#CBD4D8"/>
<path d="M98.3726 256.155L101.636 253.373C102.26 252.836 102.71 252.346 102.988 251.904C103.274 251.453 103.417 251.003 103.417 250.552C103.417 250.205 103.33 249.902 103.157 249.642C102.983 249.373 102.754 249.17 102.468 249.031C102.182 248.892 101.878 248.823 101.558 248.823C101.064 248.823 100.622 248.944 100.232 249.187C99.8502 249.43 99.4949 249.772 99.1656 250.214L98.4506 249.629C99.2566 248.485 100.305 247.913 101.597 247.913C102.117 247.913 102.593 248.021 103.027 248.238C103.46 248.455 103.802 248.762 104.054 249.161C104.314 249.56 104.444 250.019 104.444 250.539C104.444 251.137 104.279 251.705 103.95 252.242C103.629 252.771 103.092 253.36 102.338 254.01L99.9976 256.038H104.535V257H98.3726V256.155ZM109.679 257.156C108.96 257.156 108.318 256.961 107.755 256.571C107.192 256.172 106.75 255.622 106.429 254.92C106.117 254.218 105.961 253.421 105.961 252.528C105.961 251.635 106.117 250.842 106.429 250.149C106.75 249.447 107.192 248.901 107.755 248.511C108.318 248.112 108.96 247.913 109.679 247.913C110.39 247.913 111.027 248.112 111.59 248.511C112.153 248.901 112.591 249.447 112.903 250.149C113.224 250.842 113.384 251.635 113.384 252.528C113.384 253.421 113.224 254.218 112.903 254.92C112.591 255.622 112.153 256.172 111.59 256.571C111.035 256.961 110.398 257.156 109.679 257.156ZM109.679 256.22C110.199 256.22 110.663 256.064 111.07 255.752C111.477 255.431 111.794 254.994 112.019 254.439C112.244 253.876 112.357 253.239 112.357 252.528C112.357 251.817 112.244 251.185 112.019 250.63C111.794 250.067 111.477 249.629 111.07 249.317C110.663 249.005 110.199 248.849 109.679 248.849C109.159 248.849 108.695 249.005 108.288 249.317C107.881 249.629 107.56 250.067 107.326 250.63C107.101 251.185 106.988 251.817 106.988 252.528C106.988 253.239 107.101 253.876 107.326 254.439C107.56 254.994 107.881 255.431 108.288 255.752C108.695 256.064 109.159 256.22 109.679 256.22Z" fill="#CBD4D8"/>
<path d="M136.543 256.155L139.806 253.373C140.43 252.836 140.881 252.346 141.158 251.904C141.444 251.453 141.587 251.003 141.587 250.552C141.587 250.205 141.501 249.902 141.327 249.642C141.154 249.373 140.924 249.17 140.638 249.031C140.352 248.892 140.049 248.823 139.728 248.823C139.234 248.823 138.792 248.944 138.402 249.187C138.021 249.43 137.666 249.772 137.336 250.214L136.621 249.629C137.427 248.485 138.476 247.913 139.767 247.913C140.287 247.913 140.764 248.021 141.197 248.238C141.631 248.455 141.973 248.762 142.224 249.161C142.484 249.56 142.614 250.019 142.614 250.539C142.614 251.137 142.45 251.705 142.12 252.242C141.8 252.771 141.262 253.36 140.508 254.01L138.168 256.038H142.705V257H136.543V256.155ZM145.614 249.304L144.054 250.318L143.612 249.564L145.809 248.069H146.628V257H145.614V249.304Z" fill="#CBD4D8"/>
<path d="M171.191 256.155L174.454 253.373C175.078 252.836 175.529 252.346 175.806 251.904C176.092 251.453 176.235 251.003 176.235 250.552C176.235 250.205 176.149 249.902 175.975 249.642C175.802 249.373 175.572 249.17 175.286 249.031C175 248.892 174.697 248.823 174.376 248.823C173.882 248.823 173.44 248.944 173.05 249.187C172.669 249.43 172.314 249.772 171.984 250.214L171.269 249.629C172.075 248.485 173.124 247.913 174.415 247.913C174.935 247.913 175.412 248.021 175.845 248.238C176.279 248.455 176.621 248.762 176.872 249.161C177.132 249.56 177.262 250.019 177.262 250.539C177.262 251.137 177.098 251.705 176.768 252.242C176.448 252.771 175.91 253.36 175.156 254.01L172.816 256.038H177.353V257H171.191V256.155ZM178.442 256.155L181.705 253.373C182.329 252.836 182.78 252.346 183.057 251.904C183.343 251.453 183.486 251.003 183.486 250.552C183.486 250.205 183.399 249.902 183.226 249.642C183.053 249.373 182.823 249.17 182.537 249.031C182.251 248.892 181.948 248.823 181.627 248.823C181.133 248.823 180.691 248.944 180.301 249.187C179.92 249.43 179.564 249.772 179.235 250.214L178.52 249.629C179.326 248.485 180.375 247.913 181.666 247.913C182.186 247.913 182.663 248.021 183.096 248.238C183.529 248.455 183.872 248.762 184.123 249.161C184.383 249.56 184.513 250.019 184.513 250.539C184.513 251.137 184.348 251.705 184.019 252.242C183.698 252.771 183.161 253.36 182.407 254.01L180.067 256.038H184.604V257H178.442V256.155Z" fill="#CBD4D8"/>
<path d="M207.084 256.155L210.347 253.373C210.971 252.836 211.421 252.346 211.699 251.904C211.985 251.453 212.128 251.003 212.128 250.552C212.128 250.205 212.041 249.902 211.868 249.642C211.694 249.373 211.465 249.17 211.179 249.031C210.893 248.892 210.589 248.823 210.269 248.823C209.775 248.823 209.333 248.944 208.943 249.187C208.561 249.43 208.206 249.772 207.877 250.214L207.162 249.629C207.968 248.485 209.016 247.913 210.308 247.913C210.828 247.913 211.304 248.021 211.738 248.238C212.171 248.455 212.513 248.762 212.765 249.161C213.025 249.56 213.155 250.019 213.155 250.539C213.155 251.137 212.99 251.705 212.661 252.242C212.34 252.771 211.803 253.36 211.049 254.01L208.709 256.038H213.246V257H207.084V256.155ZM217.532 257.156C216.83 257.156 216.197 257.017 215.634 256.74C215.079 256.454 214.629 256.081 214.282 255.622L214.984 254.959C215.287 255.358 215.656 255.67 216.089 255.895C216.522 256.12 217.003 256.233 217.532 256.233C218.156 256.233 218.659 256.077 219.04 255.765C219.421 255.453 219.612 255.041 219.612 254.53C219.612 254.01 219.408 253.616 219.001 253.347C218.594 253.078 218.03 252.944 217.311 252.944H216.362V252.008L217.324 252.021C217.939 252.03 218.442 251.895 218.832 251.618C219.222 251.332 219.417 250.942 219.417 250.448C219.417 249.98 219.226 249.594 218.845 249.291C218.472 248.988 218.004 248.836 217.441 248.836C216.973 248.836 216.553 248.944 216.18 249.161C215.807 249.378 215.452 249.69 215.114 250.097L214.438 249.486C215.227 248.437 216.245 247.913 217.493 247.913C218.056 247.913 218.559 248.017 219.001 248.225C219.452 248.424 219.803 248.71 220.054 249.083C220.314 249.447 220.444 249.863 220.444 250.331C220.444 250.868 220.279 251.315 219.95 251.67C219.629 252.025 219.218 252.277 218.715 252.424C219.244 252.545 219.694 252.788 220.067 253.152C220.448 253.516 220.639 253.993 220.639 254.582C220.639 255.076 220.509 255.518 220.249 255.908C219.989 256.298 219.621 256.606 219.144 256.831C218.676 257.048 218.139 257.156 217.532 257.156Z" fill="#CBD4D8"/>
<path d="M243.045 256.155L246.308 253.373C246.932 252.836 247.383 252.346 247.66 251.904C247.946 251.453 248.089 251.003 248.089 250.552C248.089 250.205 248.003 249.902 247.829 249.642C247.656 249.373 247.426 249.17 247.14 249.031C246.854 248.892 246.551 248.823 246.23 248.823C245.736 248.823 245.294 248.944 244.904 249.187C244.523 249.43 244.168 249.772 243.838 250.214L243.123 249.629C243.929 248.485 244.978 247.913 246.269 247.913C246.789 247.913 247.266 248.021 247.699 248.238C248.133 248.455 248.475 248.762 248.726 249.161C248.986 249.56 249.116 250.019 249.116 250.539C249.116 251.137 248.952 251.705 248.622 252.242C248.302 252.771 247.764 253.36 247.01 254.01L244.67 256.038H249.207V257H243.045V256.155ZM254.794 254.829H250.335L250.205 253.984L254.638 248.069H255.808V253.906H257.147V254.829H255.808V257H254.794V254.829ZM254.794 253.906V249.291L251.362 253.906H254.794Z" fill="#CBD4D8"/>
<path d="M27.0137 296.155L30.2767 293.373C30.9007 292.836 31.3513 292.346 31.6287 291.904C31.9147 291.453 32.0577 291.003 32.0577 290.552C32.0577 290.205 31.971 289.902 31.7977 289.642C31.6243 289.373 31.3947 289.17 31.1087 289.031C30.8227 288.892 30.5193 288.823 30.1987 288.823C29.7047 288.823 29.2627 288.944 28.8727 289.187C28.4913 289.43 28.136 289.772 27.8067 290.214L27.0917 289.629C27.8977 288.485 28.9463 287.913 30.2377 287.913C30.7577 287.913 31.2343 288.021 31.6677 288.238C32.101 288.455 32.4433 288.762 32.6947 289.161C32.9547 289.56 33.0847 290.019 33.0847 290.539C33.0847 291.137 32.92 291.705 32.5907 292.242C32.27 292.771 31.7327 293.36 30.9787 294.01L28.6387 296.038H33.1757V297H27.0137V296.155ZM37.6833 297.156C37.0246 297.156 36.4309 297.03 35.9023 296.779C35.3823 296.528 34.9273 296.181 34.5373 295.739L35.2003 294.998C35.9629 295.83 36.8036 296.246 37.7223 296.246C38.1296 296.246 38.4936 296.159 38.8143 295.986C39.1349 295.813 39.3819 295.574 39.5553 295.271C39.7373 294.968 39.8283 294.63 39.8283 294.257C39.8283 293.685 39.6289 293.221 39.2303 292.866C38.8316 292.511 38.3203 292.333 37.6963 292.333C36.9856 292.333 36.3226 292.563 35.7073 293.022L34.9663 292.658L35.0963 288.069H40.3743V289.031H36.0843L35.9933 292.034C36.5826 291.635 37.2196 291.436 37.9043 291.436C38.4503 291.436 38.9443 291.549 39.3863 291.774C39.8369 291.991 40.1923 292.311 40.4523 292.736C40.7209 293.152 40.8553 293.646 40.8553 294.218C40.8553 294.799 40.7166 295.314 40.4393 295.765C40.1706 296.207 39.7936 296.549 39.3083 296.792C38.8316 297.035 38.2899 297.156 37.6833 297.156Z" fill="#CBD4D8"/>
<path d="M62.8613 296.155L66.1243 293.373C66.7483 292.836 67.199 292.346 67.4763 291.904C67.7623 291.453 67.9053 291.003 67.9053 290.552C67.9053 290.205 67.8187 289.902 67.6453 289.642C67.472 289.373 67.2423 289.17 66.9563 289.031C66.6703 288.892 66.367 288.823 66.0463 288.823C65.5523 288.823 65.1103 288.944 64.7203 289.187C64.339 289.43 63.9837 289.772 63.6543 290.214L62.9393 289.629C63.7453 288.485 64.794 287.913 66.0853 287.913C66.6053 287.913 67.082 288.021 67.5153 288.238C67.9487 288.455 68.291 288.762 68.5423 289.161C68.8023 289.56 68.9323 290.019 68.9323 290.539C68.9323 291.137 68.7677 291.705 68.4383 292.242C68.1177 292.771 67.5803 293.36 66.8263 294.01L64.4863 296.038H69.0233V297H62.8613V296.155ZM74.0379 291.423C74.5839 291.423 75.0823 291.536 75.5329 291.761C75.9923 291.978 76.3563 292.298 76.6249 292.723C76.8936 293.139 77.0279 293.633 77.0279 294.205C77.0279 294.751 76.8936 295.249 76.6249 295.7C76.3563 296.151 75.9836 296.506 75.5069 296.766C75.0303 297.026 74.4886 297.156 73.8819 297.156C72.7293 297.156 71.8756 296.749 71.3209 295.934C70.7663 295.111 70.4889 294.023 70.4889 292.671C70.4889 291.796 70.6493 290.994 70.9699 290.266C71.2906 289.538 71.7239 288.966 72.2699 288.55C72.8246 288.125 73.4356 287.913 74.1029 287.913C74.6229 287.913 75.0866 288.004 75.4939 288.186C75.9013 288.368 76.2826 288.632 76.6379 288.979L76.0789 289.772C75.7669 289.469 75.4549 289.239 75.1429 289.083C74.8309 288.918 74.4756 288.836 74.0769 288.836C73.6089 288.836 73.1799 289.009 72.7899 289.356C72.3999 289.694 72.0879 290.158 71.8539 290.747C71.6286 291.328 71.5159 291.969 71.5159 292.671V292.788C71.7933 292.355 72.1486 292.021 72.5819 291.787C73.0239 291.544 73.5093 291.423 74.0379 291.423ZM73.8689 296.285C74.2936 296.285 74.6663 296.19 74.9869 295.999C75.3163 295.8 75.5676 295.544 75.7409 295.232C75.9143 294.92 76.0009 294.595 76.0009 294.257C76.0009 293.659 75.7973 293.182 75.3899 292.827C74.9826 292.472 74.4713 292.294 73.8559 292.294C73.2926 292.294 72.8073 292.45 72.3999 292.762C72.0013 293.065 71.7456 293.464 71.6329 293.958C71.7716 294.669 72.0273 295.236 72.3999 295.661C72.7813 296.077 73.2709 296.285 73.8689 296.285Z" fill="#CBD4D8"/>
<path d="M99.5215 296.155L102.784 293.373C103.408 292.836 103.859 292.346 104.136 291.904C104.422 291.453 104.565 291.003 104.565 290.552C104.565 290.205 104.479 289.902 104.305 289.642C104.132 289.373 103.902 289.17 103.616 289.031C103.33 288.892 103.027 288.823 102.706 288.823C102.212 288.823 101.77 288.944 101.38 289.187C100.999 289.43 100.644 289.772 100.314 290.214L99.5995 289.629C100.405 288.485 101.454 287.913 102.745 287.913C103.265 287.913 103.742 288.021 104.175 288.238C104.609 288.455 104.951 288.762 105.202 289.161C105.462 289.56 105.592 290.019 105.592 290.539C105.592 291.137 105.428 291.705 105.098 292.242C104.778 292.771 104.24 293.36 103.486 294.01L101.146 296.038H105.683V297H99.5215V296.155ZM111.452 289.031H106.616V288.069H112.661V288.836L108.813 297H107.643L111.452 289.031Z" fill="#CBD4D8"/>
<path d="M134.83 296.155L138.093 293.373C138.717 292.836 139.167 292.346 139.445 291.904C139.731 291.453 139.874 291.003 139.874 290.552C139.874 290.205 139.787 289.902 139.614 289.642C139.44 289.373 139.211 289.17 138.925 289.031C138.639 288.892 138.335 288.823 138.015 288.823C137.521 288.823 137.079 288.944 136.689 289.187C136.307 289.43 135.952 289.772 135.623 290.214L134.908 289.629C135.714 288.485 136.762 287.913 138.054 287.913C138.574 287.913 139.05 288.021 139.484 288.238C139.917 288.455 140.259 288.762 140.511 289.161C140.771 289.56 140.901 290.019 140.901 290.539C140.901 291.137 140.736 291.705 140.407 292.242C140.086 292.771 139.549 293.36 138.795 294.01L136.455 296.038H140.992V297H134.83V296.155ZM145.668 297.156C145.053 297.156 144.498 297.052 144.004 296.844C143.51 296.636 143.12 296.346 142.834 295.973C142.548 295.592 142.405 295.154 142.405 294.66C142.405 294.123 142.587 293.655 142.951 293.256C143.324 292.857 143.801 292.567 144.381 292.385C143.844 292.177 143.419 291.9 143.107 291.553C142.795 291.198 142.639 290.773 142.639 290.279C142.639 289.802 142.778 289.386 143.055 289.031C143.341 288.667 143.714 288.39 144.173 288.199C144.641 288.008 145.14 287.913 145.668 287.913C146.206 287.913 146.704 288.013 147.163 288.212C147.631 288.403 148.004 288.68 148.281 289.044C148.567 289.399 148.71 289.815 148.71 290.292C148.71 290.803 148.546 291.232 148.216 291.579C147.896 291.926 147.48 292.194 146.968 292.385C147.54 292.576 148.008 292.87 148.372 293.269C148.745 293.668 148.931 294.131 148.931 294.66C148.931 295.154 148.788 295.592 148.502 295.973C148.216 296.346 147.822 296.636 147.319 296.844C146.825 297.052 146.275 297.156 145.668 297.156ZM145.668 291.982C145.98 291.965 146.292 291.891 146.604 291.761C146.916 291.631 147.172 291.449 147.371 291.215C147.579 290.981 147.683 290.704 147.683 290.383C147.683 290.088 147.592 289.824 147.41 289.59C147.237 289.356 146.994 289.174 146.682 289.044C146.379 288.905 146.041 288.836 145.668 288.836C145.105 288.836 144.628 288.983 144.238 289.278C143.857 289.573 143.666 289.941 143.666 290.383C143.666 290.712 143.77 290.994 143.978 291.228C144.186 291.462 144.442 291.644 144.745 291.774C145.057 291.895 145.365 291.965 145.668 291.982ZM145.668 296.233C146.076 296.233 146.448 296.164 146.786 296.025C147.133 295.886 147.406 295.696 147.605 295.453C147.805 295.202 147.904 294.916 147.904 294.595C147.904 294.257 147.787 293.958 147.553 293.698C147.319 293.438 147.029 293.239 146.682 293.1C146.336 292.953 145.998 292.875 145.668 292.866C145.339 292.875 145.001 292.953 144.654 293.1C144.308 293.239 144.017 293.438 143.783 293.698C143.549 293.958 143.432 294.257 143.432 294.595C143.432 294.916 143.532 295.202 143.731 295.453C143.931 295.696 144.199 295.886 144.537 296.025C144.884 296.164 145.261 296.233 145.668 296.233Z" fill="#CBD4D8"/>
<mask id="path-121-inside-2_19_14833" fill="white">
<path d="M16 363H268V415H16V363Z"/>
</mask>
<path d="M16 364H268V362H16V364Z" fill="black" mask="url(#path-121-inside-2_19_14833)"/>
<path d="M108.5 383C108.5 381.067 110.067 379.5 112 379.5H185C186.933 379.5 188.5 381.067 188.5 383V411C188.5 412.933 186.933 414.5 185 414.5H112C110.067 414.5 108.5 412.933 108.5 411V383Z" stroke="#2EC0FF"/>
<path d="M124.92 401.144C124.152 401.144 123.436 400.952 122.772 400.568C122.108 400.176 121.58 399.652 121.188 398.996C120.796 398.34 120.6 397.632 120.6 396.872C120.6 396.112 120.796 395.408 121.188 394.76C121.58 394.104 122.108 393.584 122.772 393.2C123.436 392.808 124.152 392.612 124.92 392.612C125.512 392.612 126.076 392.732 126.612 392.972C127.156 393.204 127.632 393.528 128.04 393.944L126.972 394.94C126.708 394.636 126.396 394.4 126.036 394.232C125.684 394.064 125.312 393.98 124.92 393.98C124.424 393.98 123.96 394.112 123.528 394.376C123.104 394.64 122.764 394.996 122.508 395.444C122.252 395.884 122.124 396.36 122.124 396.872C122.124 397.392 122.252 397.876 122.508 398.324C122.764 398.764 123.104 399.116 123.528 399.38C123.96 399.644 124.424 399.776 124.92 399.776C125.312 399.776 125.684 399.692 126.036 399.524C126.396 399.356 126.712 399.12 126.984 398.816L128.04 399.8C127.64 400.224 127.168 400.556 126.624 400.796C126.088 401.028 125.52 401.144 124.92 401.144ZM136.001 399.44H132.065L131.417 401H129.749L133.193 392.756H134.861L138.305 401H136.649L136.001 399.44ZM135.485 398.216L134.033 394.748L132.581 398.216H135.485ZM140.742 392.756H142.23L146.586 398.552V392.756H148.074V401H146.586L142.23 395.204V401H140.742V392.756ZM155.131 401.144C154.363 401.144 153.647 400.952 152.983 400.568C152.319 400.176 151.791 399.652 151.399 398.996C151.007 398.34 150.811 397.632 150.811 396.872C150.811 396.112 151.007 395.408 151.399 394.76C151.791 394.104 152.319 393.584 152.983 393.2C153.647 392.808 154.363 392.612 155.131 392.612C155.723 392.612 156.287 392.732 156.823 392.972C157.367 393.204 157.843 393.528 158.251 393.944L157.183 394.94C156.919 394.636 156.607 394.4 156.247 394.232C155.895 394.064 155.523 393.98 155.131 393.98C154.635 393.98 154.171 394.112 153.739 394.376C153.315 394.64 152.975 394.996 152.719 395.444C152.463 395.884 152.335 396.36 152.335 396.872C152.335 397.392 152.463 397.876 152.719 398.324C152.975 398.764 153.315 399.116 153.739 399.38C154.171 399.644 154.635 399.776 155.131 399.776C155.523 399.776 155.895 399.692 156.247 399.524C156.607 399.356 156.923 399.12 157.195 398.816L158.251 399.8C157.851 400.224 157.379 400.556 156.835 400.796C156.299 401.028 155.731 401.144 155.131 401.144ZM162.3 394.124V396.116H166.548V397.484H162.3V399.632H167.004V401H160.8V392.756H167.004V394.124H162.3ZM175.54 399.632V401H169.816V392.756H171.304V399.632H175.54Z" fill="#2EC0FF"/>
<path d="M197.5 383C197.5 381.067 199.067 379.5 201 379.5H264C265.933 379.5 267.5 381.067 267.5 383V411C267.5 412.933 265.933 414.5 264 414.5H201C199.067 414.5 197.5 412.933 197.5 411V383Z" fill="#2EC0FF"/>
<path d="M197.5 383C197.5 381.067 199.067 379.5 201 379.5H264C265.933 379.5 267.5 381.067 267.5 383V411C267.5 412.933 265.933 414.5 264 414.5H201C199.067 414.5 197.5 412.933 197.5 411V383Z" stroke="#2EC0FF"/>
<path d="M215.552 399.44H211.616L210.968 401H209.3L212.744 392.756H214.412L217.856 401H216.2L215.552 399.44ZM215.036 398.216L213.584 394.748L212.132 398.216H215.036ZM220.292 392.756H223.88C224.456 392.756 224.98 392.872 225.452 393.104C225.924 393.336 226.292 393.66 226.556 394.076C226.828 394.492 226.964 394.964 226.964 395.492C226.964 396.02 226.828 396.492 226.556 396.908C226.292 397.324 225.924 397.648 225.452 397.88C224.98 398.112 224.456 398.228 223.88 398.228H221.78V401H220.292V392.756ZM223.7 396.848C224.22 396.848 224.636 396.728 224.948 396.488C225.268 396.24 225.428 395.908 225.428 395.492C225.428 395.076 225.268 394.748 224.948 394.508C224.636 394.26 224.22 394.136 223.7 394.136H221.78V396.848H223.7ZM229.601 392.756H233.189C233.765 392.756 234.289 392.872 234.761 393.104C235.233 393.336 235.601 393.66 235.865 394.076C236.137 394.492 236.273 394.964 236.273 395.492C236.273 396.02 236.137 396.492 235.865 396.908C235.601 397.324 235.233 397.648 234.761 397.88C234.289 398.112 233.765 398.228 233.189 398.228H231.089V401H229.601V392.756ZM233.009 396.848C233.529 396.848 233.945 396.728 234.257 396.488C234.577 396.24 234.737 395.908 234.737 395.492C234.737 395.076 234.577 394.748 234.257 394.508C233.945 394.26 233.529 394.136 233.009 394.136H231.089V396.848H233.009ZM244.634 399.632V401H238.91V392.756H240.398V399.632H244.634ZM249.493 397.904L246.229 392.756H247.993L250.261 396.488L252.565 392.756H254.269L251.017 397.904V401H249.493V397.904Z" fill="black"/>
</g>
<defs>
<clipPath id="clip0_19_14833">
<rect width="284" height="431" fill="white"/>
</clipPath>
</defs>
</svg>
