<svg width="420" height="286" viewBox="0 0 420 286" fill="none" xmlns="http://www.w3.org/2000/svg">
<rect x="0.5" y="0.5" width="419" height="285" fill="white"/>
<rect x="54" y="43" width="43" height="4" rx="2" fill="#ACB9BE"/>
<rect x="54" y="55" width="47" height="4" rx="2" fill="#E3EAED"/>
<rect x="54.25" y="63.25" width="109.5" height="0.5" stroke="#67777E" stroke-width="0.5"/>
<rect x="54" y="88" width="26" height="4" rx="2" fill="#ACB9BE"/>
<rect x="54" y="98" width="38" height="4" rx="2" fill="#E3EAED"/>
<rect x="54.25" y="108.25" width="45.5" height="0.5" stroke="#67777E" stroke-width="0.5"/>
<rect x="108" y="88" width="15" height="4" rx="2" fill="#ACB9BE"/>
<rect x="108" y="98" width="38" height="4" rx="2" fill="#E3EAED"/>
<rect x="108.25" y="108.25" width="55.5" height="0.5" stroke="#67777E" stroke-width="0.5"/>
<rect x="54" y="133" width="15" height="4" rx="2" fill="#ACB9BE"/>
<rect x="54" y="143" width="24" height="4" rx="2" fill="#E3EAED"/>
<rect x="54.25" y="153.25" width="28.5" height="0.5" stroke="#67777E" stroke-width="0.5"/>
<rect x="91" y="133" width="15" height="4" rx="2" fill="#ACB9BE"/>
<rect x="91" y="143" width="38" height="4" rx="2" fill="#E3EAED"/>
<rect x="91.25" y="153.25" width="47.5" height="0.5" stroke="#67777E" stroke-width="0.5"/>
<rect x="54" y="178" width="61" height="4" rx="2" fill="#ACB9BE"/>
<rect x="54" y="190" width="55" height="4" rx="2" fill="#E3EAED"/>
<rect x="54.25" y="198.25" width="109.5" height="0.5" stroke="#67777E" stroke-width="0.5"/>
<rect x="54" y="223" width="75" height="4" rx="2" fill="#ACB9BE"/>
<rect x="54" y="235" width="55" height="4" rx="2" fill="#E3EAED"/>
<rect x="54.25" y="243.25" width="100.5" height="0.5" stroke="#67777E" stroke-width="0.5"/>
<line x1="204.5" y1="43" x2="204.5" y2="244" stroke="#E3EAED"/>
<rect x="244" y="43" width="61" height="4" rx="2" fill="#ACB9BE"/>
<rect x="244" y="55" width="47" height="4" rx="2" fill="#E3EAED"/>
<rect x="244.25" y="63.25" width="120.5" height="0.5" stroke="#67777E" stroke-width="0.5"/>
<rect x="244" y="88" width="15" height="4" rx="2" fill="#ACB9BE"/>
<rect x="244" y="98" width="38" height="4" rx="2" fill="#E3EAED"/>
<rect x="244.25" y="108.25" width="66.5" height="0.5" stroke="#67777E" stroke-width="0.5"/>
<rect x="319" y="88" width="26" height="4" rx="2" fill="#ACB9BE"/>
<rect x="319" y="98" width="38" height="4" rx="2" fill="#E3EAED"/>
<rect x="319.25" y="108.25" width="45.5" height="0.5" stroke="#67777E" stroke-width="0.5"/>
<rect x="244" y="133" width="34" height="4" rx="2" fill="#ACB9BE"/>
<rect x="244" y="145" width="55" height="4" rx="2" fill="#E3EAED"/>
<rect x="244.25" y="153.25" width="99.5" height="0.5" stroke="#67777E" stroke-width="0.5"/>
<rect x="244" y="178" width="61" height="4" rx="2" fill="#ACB9BE"/>
<rect x="244" y="190" width="55" height="4" rx="2" fill="#E3EAED"/>
<rect x="244.25" y="198.25" width="98.5" height="0.5" stroke="#67777E" stroke-width="0.5"/>
<rect x="244" y="223" width="49" height="4" rx="2" fill="#ACB9BE"/>
<rect x="244" y="235" width="55" height="4" rx="2" fill="#E3EAED"/>
<rect x="244.25" y="243.25" width="120.5" height="0.5" stroke="#67777E" stroke-width="0.5"/>
<rect x="0.5" y="0.5" width="419" height="285" stroke="#DEDEDE"/>
</svg>
