<svg width="420" height="286" viewBox="0 0 420 286" fill="none" xmlns="http://www.w3.org/2000/svg">
<g clip-path="url(#clip0_605_3618)">
<rect width="420" height="358" fill="white"/>
<rect width="354" height="304" transform="translate(33 27)" fill="white"/>
<path d="M65.931 60.5C65.931 62.138 64.397 63.542 62.486 63.763L64.449 67H63.331L61.368 63.789H59.405L58.729 67H57.715L59.574 58.069H63.149C64.774 58.069 65.931 59.07 65.931 60.5ZM62.161 62.827C63.669 62.827 64.93 61.774 64.93 60.513C64.93 59.642 64.111 59.031 62.941 59.031H60.393L59.6 62.827H62.161ZM69.736 64.01H67.37C67.357 64.101 67.357 64.179 67.357 64.27C67.357 65.492 68.085 66.285 69.281 66.285C70.113 66.285 71.062 65.908 71.556 65.453L72.076 66.142C71.361 66.779 70.022 67.156 69.112 67.156C67.526 67.156 66.395 66.025 66.395 64.348C66.395 62.112 68.397 60.123 70.516 60.123C71.777 60.123 72.921 60.825 72.921 61.982C72.921 63.165 71.738 64.01 69.736 64.01ZM70.438 60.994C69.06 60.994 67.994 61.969 67.565 63.139H69.918C71.218 63.139 71.959 62.736 71.959 62.034C71.959 61.384 71.309 60.994 70.438 60.994ZM79.888 60.279H80.863L79.004 69.236H78.029L78.757 65.752C78.068 66.61 77.119 67.156 76.079 67.156C74.714 67.156 73.557 65.934 73.557 64.478C73.557 62.112 75.377 60.123 77.535 60.123C78.445 60.123 79.251 60.773 79.602 61.683L79.888 60.279ZM76.261 66.285C77.613 66.285 78.783 65.232 79.147 63.828L79.238 63.425C79.264 63.243 79.277 63.061 79.277 62.866C79.277 61.852 78.393 60.994 77.353 60.994C75.845 60.994 74.571 62.554 74.571 64.413C74.571 65.427 75.338 66.285 76.261 66.285ZM87.5853 60.279H88.5603L87.1563 67H86.1813L86.3893 65.973C85.8693 66.675 84.9333 67.156 84.0233 67.156C82.7233 67.156 81.9173 66.337 81.9173 65.141C81.9173 64.647 82.0213 64.322 82.8663 60.279H83.8413C83.0093 64.283 82.9183 64.569 82.9183 64.972C82.9183 65.778 83.3993 66.285 84.1923 66.285C85.3363 66.285 86.4543 65.492 86.6883 64.582L87.5853 60.279ZM91.5362 59.057C91.1852 59.057 90.9512 58.797 90.9512 58.472C90.9512 58.121 91.2762 57.77 91.6662 57.77C92.0042 57.77 92.2382 58.03 92.2382 58.355C92.2382 58.719 91.8872 59.057 91.5362 59.057ZM89.3132 67L90.7172 60.279H91.6922L90.2882 67H89.3132ZM94.5565 61.566C95.1415 60.682 96.1945 60.123 97.4295 60.123L97.3125 60.994C95.7915 60.994 94.4785 61.956 94.2055 63.269L93.4255 67H92.4505L93.8545 60.279H94.8295L94.5565 61.566ZM100.581 64.01H98.2147C98.2017 64.101 98.2017 64.179 98.2017 64.27C98.2017 65.492 98.9297 66.285 100.126 66.285C100.958 66.285 101.907 65.908 102.401 65.453L102.921 66.142C102.206 66.779 100.867 67.156 99.9567 67.156C98.3707 67.156 97.2397 66.025 97.2397 64.348C97.2397 62.112 99.2417 60.123 101.361 60.123C102.622 60.123 103.766 60.825 103.766 61.982C103.766 63.165 102.583 64.01 100.581 64.01ZM101.283 60.994C99.9047 60.994 98.8387 61.969 98.4097 63.139H100.763C102.063 63.139 102.804 62.736 102.804 62.034C102.804 61.384 102.154 60.994 101.283 60.994ZM111.227 57.913H112.202L110.317 67H109.342L109.602 65.752C108.926 66.61 107.964 67.156 106.924 67.156C105.559 67.156 104.402 65.934 104.402 64.478C104.402 62.112 106.222 60.123 108.38 60.123C109.29 60.123 110.096 60.786 110.447 61.696L111.227 57.913ZM107.106 66.285C108.484 66.285 109.667 65.193 110.018 63.75L110.07 63.503C110.109 63.295 110.122 63.087 110.122 62.866C110.122 61.852 109.238 60.994 108.198 60.994C106.69 60.994 105.416 62.554 105.416 64.413C105.416 65.427 106.183 66.285 107.106 66.285Z" fill="#333333"/>
<path d="M119.951 62.515C119.678 62.515 119.457 62.307 119.457 62.06C119.457 61.592 119.665 61.033 119.73 60.565C119.353 60.851 118.989 61.319 118.586 61.553C118.378 61.67 118.079 61.579 117.949 61.345C117.806 61.098 117.884 60.812 118.092 60.695C118.482 60.461 119.08 60.37 119.509 60.188C119.067 60.006 118.482 59.915 118.092 59.681C117.884 59.564 117.806 59.265 117.949 59.031C118.079 58.784 118.378 58.693 118.586 58.823C118.989 59.057 119.353 59.525 119.73 59.811C119.665 59.343 119.457 58.784 119.457 58.316C119.457 58.069 119.678 57.861 119.951 57.861C120.224 57.861 120.445 58.069 120.445 58.316C120.445 58.784 120.224 59.343 120.159 59.811C120.536 59.525 120.913 59.057 121.316 58.823C121.524 58.706 121.81 58.797 121.953 59.031C122.096 59.278 122.018 59.564 121.81 59.681C121.407 59.915 120.809 60.006 120.38 60.188C120.822 60.37 121.407 60.461 121.81 60.695C122.018 60.812 122.096 61.111 121.953 61.345C121.81 61.592 121.524 61.683 121.316 61.553C120.913 61.319 120.536 60.851 120.172 60.565C120.237 61.033 120.458 61.592 120.458 62.06C120.458 62.307 120.237 62.515 119.951 62.515Z" fill="#DB2100"/>
<rect x="57" y="118.5" width="75" height="4" rx="2" fill="#ACB9BE"/>
<path d="M138.951 111.515C138.678 111.515 138.457 111.307 138.457 111.06C138.457 110.592 138.665 110.033 138.73 109.565C138.353 109.851 137.989 110.319 137.586 110.553C137.378 110.67 137.079 110.579 136.949 110.345C136.806 110.098 136.884 109.812 137.092 109.695C137.482 109.461 138.08 109.37 138.509 109.188C138.067 109.006 137.482 108.915 137.092 108.681C136.884 108.564 136.806 108.265 136.949 108.031C137.079 107.784 137.378 107.693 137.586 107.823C137.989 108.057 138.353 108.525 138.73 108.811C138.665 108.343 138.457 107.784 138.457 107.316C138.457 107.069 138.678 106.861 138.951 106.861C139.224 106.861 139.445 107.069 139.445 107.316C139.445 107.784 139.224 108.343 139.159 108.811C139.536 108.525 139.913 108.057 140.316 107.823C140.524 107.706 140.81 107.797 140.953 108.031C141.096 108.278 141.018 108.564 140.81 108.681C140.407 108.915 139.809 109.006 139.38 109.188C139.822 109.37 140.407 109.461 140.81 109.695C141.018 109.812 141.096 110.111 140.953 110.345C140.81 110.592 140.524 110.683 140.316 110.553C139.913 110.319 139.536 109.851 139.172 109.565C139.237 110.033 139.458 110.592 139.458 111.06C139.458 111.307 139.237 111.515 138.951 111.515Z" fill="#DB2100"/>
<rect x="177.25" y="124.25" width="166.5" height="0.5" stroke="#E02200" stroke-width="0.5"/>
<path d="M183.41 133.33C183.41 134.5 182.5 135.36 181.27 135.51L183.02 138H182.13L180.39 135.53H178.87V138H178.09V131.13H180.88C182.3 131.13 183.41 132.04 183.41 133.33ZM178.87 131.87V134.79H180.74C181.86 134.79 182.62 134.25 182.62 133.33C182.62 132.41 181.86 131.87 180.74 131.87H178.87ZM186.854 137.45C187.464 137.45 188.164 137.18 188.484 136.83L188.944 137.32C188.494 137.81 187.584 138.12 186.864 138.12C185.484 138.12 184.244 136.99 184.244 135.4C184.244 133.86 185.404 132.71 186.794 132.71C188.354 132.71 189.244 133.89 189.244 135.7H185.014C185.124 136.71 185.834 137.45 186.854 137.45ZM186.824 133.38C185.904 133.38 185.164 134.03 185.024 135.03H188.504C188.404 134.1 187.854 133.38 186.824 133.38ZM194.264 132.83H195.014V139.72H194.264V137.03C193.874 137.71 193.214 138.12 192.384 138.12C191.024 138.12 190.004 137 190.004 135.41C190.004 133.83 191.024 132.71 192.384 132.71C193.214 132.71 193.874 133.12 194.264 133.8V132.83ZM192.524 137.45C193.544 137.45 194.264 136.6 194.264 135.41C194.264 134.22 193.544 133.38 192.524 133.38C191.514 133.38 190.794 134.22 190.794 135.41C190.794 136.6 191.514 137.45 192.524 137.45ZM200.172 132.83H200.922V138H200.172V137.18C199.872 137.73 199.212 138.12 198.472 138.12C197.322 138.12 196.532 137.31 196.532 136.12V132.83H197.282V136.02C197.282 136.87 197.812 137.45 198.572 137.45C199.452 137.45 200.172 136.85 200.172 136.12V132.83ZM202.938 131.89C202.658 131.89 202.438 131.66 202.438 131.39C202.438 131.13 202.658 130.9 202.938 130.9C203.208 130.9 203.428 131.13 203.428 131.39C203.428 131.66 203.208 131.89 202.938 131.89ZM202.558 138V132.83H203.308V138H202.558ZM205.698 133.84C206.008 133.15 206.748 132.71 207.698 132.71V133.38C206.528 133.38 205.698 134.1 205.698 135.11V138H204.948V132.83H205.698V133.84ZM210.993 137.45C211.603 137.45 212.303 137.18 212.623 136.83L213.083 137.32C212.633 137.81 211.723 138.12 211.003 138.12C209.623 138.12 208.383 136.99 208.383 135.4C208.383 133.86 209.543 132.71 210.933 132.71C212.493 132.71 213.383 133.89 213.383 135.7H209.153C209.263 136.71 209.973 137.45 210.993 137.45ZM210.963 133.38C210.043 133.38 209.303 134.03 209.163 135.03H212.643C212.543 134.1 211.993 133.38 210.963 133.38ZM218.403 131.01H219.153V138H218.403V137.03C218.013 137.71 217.353 138.12 216.523 138.12C215.163 138.12 214.143 137 214.143 135.41C214.143 133.83 215.163 132.71 216.523 132.71C217.353 132.71 218.013 133.12 218.403 133.8V131.01ZM216.663 137.45C217.683 137.45 218.403 136.6 218.403 135.41C218.403 134.22 217.683 133.38 216.663 133.38C215.653 133.38 214.933 134.22 214.933 135.41C214.933 136.6 215.653 137.45 216.663 137.45Z" fill="#E02200"/>
<path fill-rule="evenodd" clip-rule="evenodd" d="M348 116C348 111.582 351.582 108 356 108C358.122 108 360.157 108.843 361.657 110.343C363.157 111.843 364 113.878 364 116C364 120.418 360.418 124 356 124C351.582 124 348 120.418 348 116ZM355.133 116.513C355.133 116.992 355.521 117.38 356 117.38C356.479 117.38 356.867 116.992 356.867 116.513V112.513C356.867 112.035 356.479 111.647 356 111.647C355.521 111.647 355.133 112.035 355.133 112.513V116.513ZM356 122.667C352.318 122.667 349.333 119.682 349.333 116C349.333 112.318 352.318 109.333 356 109.333C359.682 109.333 362.667 112.318 362.667 116C362.667 117.768 361.964 119.464 360.714 120.714C359.464 121.964 357.768 122.667 356 122.667ZM356.967 119.347C356.967 119.899 356.519 120.347 355.967 120.347C355.414 120.347 354.967 119.899 354.967 119.347C354.967 118.794 355.414 118.347 355.967 118.347C356.519 118.347 356.967 118.794 356.967 119.347Z" fill="#E02200"/>
<rect x="57" y="163.5" width="75" height="4" rx="2" fill="#ACB9BE"/>
<rect x="177.25" y="177.25" width="166.5" height="0.5" stroke="#67777E" stroke-width="0.5"/>
<rect x="177" y="162" width="75" height="4" rx="2" fill="#CBD4D8"/>
<rect x="57" y="200.5" width="65" height="4" rx="2" fill="#ACB9BE"/>
<path d="M128.951 201.515C128.678 201.515 128.457 201.307 128.457 201.06C128.457 200.592 128.665 200.033 128.73 199.565C128.353 199.851 127.989 200.319 127.586 200.553C127.378 200.67 127.079 200.579 126.949 200.345C126.806 200.098 126.884 199.812 127.092 199.695C127.482 199.461 128.08 199.37 128.509 199.188C128.067 199.006 127.482 198.915 127.092 198.681C126.884 198.564 126.806 198.265 126.949 198.031C127.079 197.784 127.378 197.693 127.586 197.823C127.989 198.057 128.353 198.525 128.73 198.811C128.665 198.343 128.457 197.784 128.457 197.316C128.457 197.069 128.678 196.861 128.951 196.861C129.224 196.861 129.445 197.069 129.445 197.316C129.445 197.784 129.224 198.343 129.159 198.811C129.536 198.525 129.913 198.057 130.316 197.823C130.524 197.706 130.81 197.797 130.953 198.031C131.096 198.278 131.018 198.564 130.81 198.681C130.407 198.915 129.809 199.006 129.38 199.188C129.822 199.37 130.407 199.461 130.81 199.695C131.018 199.812 131.096 200.111 130.953 200.345C130.81 200.592 130.524 200.683 130.316 200.553C129.913 200.319 129.536 199.851 129.172 199.565C129.237 200.033 129.458 200.592 129.458 201.06C129.458 201.307 129.237 201.515 128.951 201.515Z" fill="#DB2100"/>
<rect x="177.25" y="214.25" width="166.5" height="0.5" stroke="#67777E" stroke-width="0.5"/>
<rect x="177" y="199" width="75" height="4" rx="2" fill="#CBD4D8"/>
</g>
<rect x="0.5" y="0.5" width="419" height="285" stroke="#DEDEDE"/>
<defs>
<clipPath id="clip0_605_3618">
<rect width="420" height="286" fill="white"/>
</clipPath>
</defs>
</svg>
