<svg width="271" height="286" viewBox="0 0 271 286" fill="none" xmlns="http://www.w3.org/2000/svg">
<rect x="0.5" y="0.5" width="270" height="285" fill="white"/>
<rect x="40" y="48" width="56" height="4" rx="2" fill="#ACB9BE"/>
<rect x="113.25" y="59.25" width="118.5" height="0.5" stroke="#67777E" stroke-width="0.5"/>
<rect x="113" y="48" width="75" height="4" rx="2" fill="#CBD4D8"/>
<rect x="40" y="77" width="55" height="4" rx="2" fill="#ACB9BE"/>
<rect x="113.25" y="88.25" width="118.5" height="0.5" stroke="#67777E" stroke-width="0.5"/>
<rect x="113" y="77" width="75" height="4" rx="2" fill="#CBD4D8"/>
<rect x="40" y="106" width="41" height="4" rx="2" fill="#ACB9BE"/>
<rect x="113.25" y="117.25" width="118.5" height="0.5" stroke="#67777E" stroke-width="0.5"/>
<rect x="113" y="106" width="75" height="4" rx="2" fill="#CBD4D8"/>
<rect x="40" y="163" width="43" height="4" rx="2" fill="#ACB9BE"/>
<rect x="113.25" y="174.25" width="118.5" height="0.5" stroke="#67777E" stroke-width="0.5"/>
<rect x="113" y="163" width="75" height="4" rx="2" fill="#CBD4D8"/>
<rect x="40" y="192" width="60" height="4" rx="2" fill="#ACB9BE"/>
<rect x="113.25" y="203.25" width="118.5" height="0.5" stroke="#67777E" stroke-width="0.5"/>
<rect x="113" y="192" width="75" height="4" rx="2" fill="#CBD4D8"/>
<rect x="40" y="221" width="41" height="4" rx="2" fill="#ACB9BE"/>
<rect x="113.25" y="232.25" width="118.5" height="0.5" stroke="#67777E" stroke-width="0.5"/>
<rect x="113" y="221" width="75" height="4" rx="2" fill="#CBD4D8"/>
<rect x="0.5" y="0.5" width="270" height="285" stroke="#DEDEDE"/>
</svg>
