<svg width="439" height="620" viewBox="0 0 439 620" fill="none" xmlns="http://www.w3.org/2000/svg">
<rect width="439" height="620" fill="#1B2B32"/>
<g clip-path="url(#clip0_10416_142325)">
<rect width="186" height="620" transform="translate(253)" fill="#1B2B32"/>
<rect width="186" height="60" transform="translate(253)" fill="black"/>
<path opacity="0.3" d="M179.301 155.435H344.359" stroke="#ACB8BE" stroke-width="8" stroke-linecap="round"/>
<path opacity="0.3" d="M208.047 190.954H315.613" stroke="#ACB8BE" stroke-width="8" stroke-linecap="round"/>
<path opacity="0.3" d="M150.556 226.472H315.613" stroke="#ACB8BE" stroke-width="8" stroke-linecap="round"/>
<path opacity="0.3" d="M150.556 261.991H315.613" stroke="#ACB8BE" stroke-width="8" stroke-linecap="round"/>
<path opacity="0.3" d="M119.251 297.51H284.308" stroke="#ACB8BE" stroke-width="8" stroke-linecap="round"/>
<path opacity="0.3" d="M170.471 427.49H335.529" stroke="#ACB8BE" stroke-width="8" stroke-linecap="round"/>
<path opacity="0.3" d="M150.556 463.009H315.613" stroke="#ACB8BE" stroke-width="8" stroke-linecap="round"/>
<g opacity="0.3">
<rect x="187.084" y="341" width="92" height="36" rx="4" fill="#ACB8BE"/>
</g>
<rect width="186" height="620" transform="translate(253)" fill="black" fill-opacity="0.7"/>
<g clip-path="url(#clip1_10416_142325)">
<path d="M289.41 29.9999L297.7 21.7099C298.04 21.3132 298.017 20.7217 297.648 20.3524C297.278 19.983 296.687 19.9602 296.29 20.2999L288 28.5899L279.71 20.2899C279.318 19.8978 278.682 19.8978 278.29 20.2899C277.898 20.6821 277.898 21.3178 278.29 21.7099L286.59 29.9999L278.29 38.2899C278.005 38.5343 277.88 38.9181 277.968 39.2834C278.056 39.6487 278.341 39.9339 278.707 40.0218C279.072 40.1096 279.456 39.9853 279.7 39.6999L288 31.4099L296.29 39.6999C296.687 40.0397 297.278 40.0169 297.648 39.6475C298.017 39.2781 298.04 38.6867 297.7 38.2899L289.41 29.9999Z" fill="white"/>
<rect x="266" y="8" width="44" height="44" rx="2" stroke="#1486FF" stroke-width="2"/>
</g>
<rect x="264.5" y="6.5" width="47" height="47" rx="3.5" stroke="white"/>
</g>
<rect width="253" height="620" fill="#2D4048"/>
<path fill-rule="evenodd" clip-rule="evenodd" d="M20.1778 42.8888H21.8444C22.0021 42.887 22.1515 42.8183 22.2556 42.6999L31.4944 32.6999C31.6371 32.5376 31.6727 32.3072 31.5857 32.1094C31.4987 31.9116 31.3049 31.7822 31.0889 31.7776H28.1L33.1333 26.0499C33.2904 25.8856 33.3316 25.6423 33.2374 25.4356C33.1432 25.2288 32.9325 25.1002 32.7056 25.111H25.2444C25.0615 25.1168 24.8932 25.2124 24.7944 25.3665L18.8611 34.811C18.751 34.9826 18.7437 35.2009 18.8423 35.3795C18.9409 35.558 19.1294 35.6682 19.3333 35.6665H22.9722L19.6889 42.0888C19.6053 42.2594 19.6146 42.4609 19.7137 42.623C19.8128 42.7851 19.9878 42.8853 20.1778 42.8888ZM21.6056 41.7776H21.1L24.3778 35.3554C24.4614 35.1848 24.4521 34.9833 24.353 34.8212C24.2539 34.6591 24.0789 34.5588 23.8889 34.5554H20.3167L25.55 26.2221H31.4889L26.4556 31.9499C26.2985 32.1141 26.2573 32.3574 26.3515 32.5642C26.4457 32.7709 26.6564 32.8995 26.8833 32.8888H29.8111L21.6056 41.7776Z" fill="#ACB8BE"/>
<path d="M41.235 38V29.069H45.122C47.02 29.069 48.463 30.291 48.463 32.033C48.463 33.775 47.02 34.997 45.122 34.997H42.847V38H41.235ZM42.847 33.502H44.927C46.032 33.502 46.799 32.943 46.799 32.033C46.799 31.123 46.032 30.564 44.927 30.564H42.847V33.502ZM51.475 32.553C51.904 31.682 52.788 31.123 53.88 31.123V32.475C52.437 32.475 51.475 33.333 51.475 34.607V38H49.889V31.279H51.475V32.553ZM58.3166 38.156C56.3276 38.156 54.7026 36.57 54.7026 34.633C54.7026 32.696 56.3276 31.123 58.3166 31.123C60.2926 31.123 61.9046 32.696 61.9046 34.633C61.9046 36.57 60.2926 38.156 58.3166 38.156ZM58.3166 36.804C59.4346 36.804 60.3576 35.829 60.3576 34.633C60.3576 33.437 59.4346 32.475 58.3166 32.475C57.1856 32.475 56.2626 33.437 56.2626 34.633C56.2626 35.829 57.1856 36.804 58.3166 36.804ZM63.962 30.265C63.455 30.265 63.052 29.836 63.052 29.355C63.052 28.874 63.455 28.458 63.962 28.458C64.456 28.458 64.859 28.874 64.859 29.355C64.859 29.836 64.456 30.265 63.962 30.265ZM62.831 40.314C62.402 40.314 61.895 40.21 61.583 40.067L61.778 38.858C61.96 38.936 62.272 38.988 62.519 38.988C62.909 38.988 63.182 38.663 63.182 38.208V31.279H64.768V38.325C64.768 39.495 63.975 40.314 62.831 40.314ZM69.5526 36.882C70.2286 36.882 70.9956 36.596 71.4246 36.18L72.3346 37.116C71.7496 37.74 70.5796 38.156 69.6046 38.156C67.6676 38.156 66.0686 36.687 66.0686 34.62C66.0686 32.592 67.5896 31.123 69.5136 31.123C71.5936 31.123 72.8156 32.657 72.8156 35.101H67.6026C67.7716 36.154 68.5126 36.882 69.5526 36.882ZM69.5266 32.397C68.5646 32.397 67.8236 33.047 67.6156 34.048H71.2816C71.1386 33.099 70.5406 32.397 69.5266 32.397ZM77.2116 38.156C75.2616 38.156 73.6106 36.544 73.6106 34.633C73.6106 32.722 75.2616 31.123 77.2246 31.123C78.2516 31.123 79.1356 31.552 79.7726 32.215L78.7066 33.151C78.3426 32.748 77.7836 32.475 77.2116 32.475C76.1066 32.475 75.1836 33.463 75.1836 34.633C75.1836 35.816 76.1066 36.804 77.2116 36.804C77.7966 36.804 78.3686 36.531 78.7456 36.102L79.8116 37.025C79.1616 37.714 78.2646 38.156 77.2116 38.156ZM84.1209 36.557L84.5759 37.623C84.1989 37.948 83.6529 38.156 83.1329 38.156C82.0279 38.156 81.2479 37.35 81.2479 36.219V32.592H80.2729V31.279H81.2479V29.433H82.7819V31.279H84.3029V32.592H82.7819V36.024C82.7819 36.479 83.0809 36.804 83.4579 36.804C83.7309 36.804 83.9779 36.7 84.1209 36.557ZM89.477 38V29.069H93.364C95.262 29.069 96.705 30.291 96.705 32.033C96.705 33.775 95.262 34.997 93.364 34.997H91.089V38H89.477ZM91.089 33.502H93.169C94.274 33.502 95.041 32.943 95.041 32.033C95.041 31.123 94.274 30.564 93.169 30.564H91.089V33.502ZM101.225 38.156C99.236 38.156 97.611 36.57 97.611 34.633C97.611 32.696 99.236 31.123 101.225 31.123C103.201 31.123 104.813 32.696 104.813 34.633C104.813 36.57 103.201 38.156 101.225 38.156ZM101.225 36.804C102.343 36.804 103.266 35.829 103.266 34.633C103.266 33.437 102.343 32.475 101.225 32.475C100.094 32.475 99.171 33.437 99.171 34.633C99.171 35.829 100.094 36.804 101.225 36.804ZM106.181 38V28.913H107.767V34.451L110.666 31.279H112.538L109.782 34.282L112.46 38H110.601L108.716 35.322L107.767 36.31V38H106.181ZM118.979 28.835L117.081 30.525H115.976L117.497 28.549L118.979 28.835ZM116.574 36.882C117.25 36.882 118.017 36.596 118.446 36.18L119.356 37.116C118.771 37.74 117.601 38.156 116.626 38.156C114.689 38.156 113.09 36.687 113.09 34.62C113.09 32.592 114.611 31.123 116.535 31.123C118.615 31.123 119.837 32.657 119.837 35.101H114.624C114.793 36.154 115.534 36.882 116.574 36.882ZM116.548 32.397C115.586 32.397 114.845 33.047 114.637 34.048H118.303C118.16 33.099 117.562 32.397 116.548 32.397ZM128.926 31.123C130.33 31.123 131.383 32.202 131.383 33.723V38H129.836V33.983C129.836 33.099 129.303 32.475 128.536 32.475C127.665 32.475 127.054 33.06 127.054 33.879V38H125.52V33.983C125.52 33.099 124.974 32.475 124.207 32.475C123.349 32.475 122.738 33.06 122.738 33.879V38H121.152V31.279H122.738V32.189C123.076 31.539 123.765 31.123 124.61 31.123C125.676 31.123 126.534 31.747 126.885 32.722C127.067 31.76 127.873 31.123 128.926 31.123ZM136.194 38.156C134.205 38.156 132.58 36.57 132.58 34.633C132.58 32.696 134.205 31.123 136.194 31.123C138.17 31.123 139.782 32.696 139.782 34.633C139.782 36.57 138.17 38.156 136.194 38.156ZM136.194 36.804C137.312 36.804 138.235 35.829 138.235 34.633C138.235 33.437 137.312 32.475 136.194 32.475C135.063 32.475 134.14 33.437 134.14 34.633C134.14 35.829 135.063 36.804 136.194 36.804ZM144.816 31.123C146.298 31.123 147.325 32.189 147.325 33.723V38H145.778V34.035C145.778 33.112 145.206 32.475 144.374 32.475C143.464 32.475 142.736 33.112 142.736 33.931V38H141.15V31.279H142.736V32.189C143.139 31.552 143.919 31.123 144.816 31.123Z" fill="#ACB8BE"/>
<path d="M24.288 78.382H25.38V88H24.288V83.618H18.618V88H17.526V78.382H18.618V82.582H24.288V78.382ZM31.1362 88.168C29.0782 88.168 27.3982 86.46 27.3982 84.374C27.3982 82.288 29.0782 80.594 31.1362 80.594C33.1802 80.594 34.8602 82.288 34.8602 84.374C34.8602 86.46 33.1802 88.168 31.1362 88.168ZM31.1362 87.23C32.5782 87.23 33.7682 85.942 33.7682 84.374C33.7682 82.806 32.5782 81.532 31.1362 81.532C29.6802 81.532 28.4902 82.806 28.4902 84.374C28.4902 85.942 29.6802 87.23 31.1362 87.23ZM44.3948 80.594C45.9068 80.594 46.9708 81.756 46.9708 83.394V88H45.9208V83.534C45.9208 82.358 45.2348 81.532 44.2548 81.532C43.1068 81.532 42.2948 82.302 42.2948 83.394V88H41.2448V83.534C41.2448 82.358 40.5588 81.532 39.5788 81.532C38.4308 81.532 37.6188 82.302 37.6188 83.394V88H36.5688V80.762H37.6188V81.826C37.9828 81.07 38.7668 80.594 39.7188 80.594C40.8668 80.594 41.7628 81.266 42.1268 82.316C42.3508 81.294 43.2468 80.594 44.3948 80.594ZM52.1946 87.23C53.0486 87.23 54.0286 86.852 54.4766 86.362L55.1206 87.048C54.4906 87.734 53.2166 88.168 52.2086 88.168C50.2766 88.168 48.5406 86.586 48.5406 84.36C48.5406 82.204 50.1646 80.594 52.1106 80.594C54.2946 80.594 55.5406 82.246 55.5406 84.78H49.6186C49.7726 86.194 50.7666 87.23 52.1946 87.23ZM52.1526 81.532C50.8646 81.532 49.8286 82.442 49.6326 83.842H54.5046C54.3646 82.54 53.5946 81.532 52.1526 81.532Z" fill="#CBD4D8"/>
<mask id="path-16-inside-1_10416_142325" fill="white">
<path d="M0 108H253V140H0V108Z"/>
</mask>
<path d="M0 108H253V140H0V108Z" fill="#1B2B32"/>
<path d="M17.526 128V118.382H21.432C23.42 118.382 24.974 119.656 24.974 121.462C24.974 123.268 23.42 124.542 21.432 124.542H18.618V128H17.526ZM18.618 123.506H21.236C22.804 123.506 23.868 122.75 23.868 121.462C23.868 120.174 22.804 119.418 21.236 119.418H18.618V123.506ZM29.81 128.168C27.752 128.168 26.072 126.46 26.072 124.374C26.072 122.288 27.752 120.594 29.81 120.594C31.854 120.594 33.534 122.288 33.534 124.374C33.534 126.46 31.854 128.168 29.81 128.168ZM29.81 127.23C31.252 127.23 32.442 125.942 32.442 124.374C32.442 122.806 31.252 121.532 29.81 121.532C28.354 121.532 27.164 122.806 27.164 124.374C27.164 125.942 28.354 127.23 29.81 127.23ZM35.2426 128V118.214H36.2926V124.766L40.2546 120.762H41.5986L38.3366 124.08L41.4166 128H40.1006L37.5946 124.794L36.2926 126.082V128H35.2426ZM48.1882 118.172L46.2002 119.936H45.3882L47.0822 117.92L48.1882 118.172ZM45.8782 127.23C46.7322 127.23 47.7122 126.852 48.1602 126.362L48.8042 127.048C48.1742 127.734 46.9002 128.168 45.8922 128.168C43.9602 128.168 42.2242 126.586 42.2242 124.36C42.2242 122.204 43.8482 120.594 45.7942 120.594C47.9782 120.594 49.2242 122.246 49.2242 124.78H43.3022C43.4562 126.194 44.4502 127.23 45.8782 127.23ZM45.8362 121.532C44.5482 121.532 43.5122 122.442 43.3162 123.842H48.1882C48.0482 122.54 47.2782 121.532 45.8362 121.532ZM56.2923 118.214H57.3423V128H56.2923V126.642C55.7463 127.594 54.8223 128.168 53.6603 128.168C51.7563 128.168 50.3283 126.6 50.3283 124.374C50.3283 122.162 51.7563 120.594 53.6603 120.594C54.8223 120.594 55.7463 121.168 56.2923 122.12V118.214ZM53.8563 127.23C55.2843 127.23 56.2923 126.04 56.2923 124.374C56.2923 122.708 55.2843 121.532 53.8563 121.532C52.4423 121.532 51.4343 122.708 51.4343 124.374C51.4343 126.04 52.4423 127.23 53.8563 127.23ZM62.727 127.23C63.581 127.23 64.561 126.852 65.009 126.362L65.653 127.048C65.023 127.734 63.749 128.168 62.741 128.168C60.809 128.168 59.073 126.586 59.073 124.36C59.073 122.204 60.697 120.594 62.643 120.594C64.827 120.594 66.073 122.246 66.073 124.78H60.151C60.305 126.194 61.299 127.23 62.727 127.23ZM62.685 121.532C61.397 121.532 60.361 122.442 60.165 123.842H65.037C64.897 122.54 64.127 121.532 62.685 121.532ZM73.5051 128H72.2731L70.1031 125.116L67.9191 128H66.6871L69.4871 124.304L66.7991 120.762H68.0311L70.1031 123.492L72.1611 120.762H73.3931L70.7191 124.304L73.5051 128Z" fill="#CBD4D8"/>
<path d="M3 140V108H-3V140H3Z" fill="#2EC0FF" mask="url(#path-16-inside-1_10416_142325)"/>
<path d="M17.526 168V158.382H18.618L22.188 165.088L25.758 158.382H26.85V168H25.758V160.734L22.188 167.44L18.618 160.734V168H17.526ZM32.599 168.168C30.541 168.168 28.861 166.46 28.861 164.374C28.861 162.288 30.541 160.594 32.599 160.594C34.643 160.594 36.323 162.288 36.323 164.374C36.323 166.46 34.643 168.168 32.599 168.168ZM32.599 167.23C34.041 167.23 35.231 165.942 35.231 164.374C35.231 162.806 34.041 161.532 32.599 161.532C31.143 161.532 29.953 162.806 29.953 164.374C29.953 165.942 31.143 167.23 32.599 167.23ZM40.0337 168L36.9537 160.762H38.1297L40.5377 166.768L42.9037 160.762H44.0797L41.0417 168H40.0337ZM45.8738 159.446C45.4818 159.446 45.1738 159.124 45.1738 158.746C45.1738 158.382 45.4818 158.06 45.8738 158.06C46.2518 158.06 46.5598 158.382 46.5598 158.746C46.5598 159.124 46.2518 159.446 45.8738 159.446ZM45.3418 168V160.762H46.3918V168H45.3418ZM51.7802 167.23C52.6342 167.23 53.6142 166.852 54.0622 166.362L54.7062 167.048C54.0762 167.734 52.8022 168.168 51.7942 168.168C49.8622 168.168 48.1262 166.586 48.1262 164.36C48.1262 162.204 49.7502 160.594 51.6962 160.594C53.8802 160.594 55.1262 162.246 55.1262 164.78H49.2042C49.3582 166.194 50.3522 167.23 51.7802 167.23ZM51.7382 161.532C50.4502 161.532 49.4142 162.442 49.2182 163.842H54.0902C53.9502 162.54 53.1802 161.532 51.7382 161.532ZM59.0303 168.168C58.0223 168.168 56.9023 167.79 56.0343 167.09L56.5803 166.32C57.4063 166.922 58.2323 167.23 59.0303 167.23C59.9823 167.23 60.6263 166.782 60.6263 166.096C60.6263 165.312 59.7863 165.06 58.8063 164.78C57.0563 164.276 56.3843 163.758 56.3843 162.722C56.3843 161.406 57.4763 160.594 58.9183 160.594C59.8143 160.594 60.7383 160.902 61.5083 161.406L61.0043 162.218C60.2763 161.756 59.5623 161.532 58.9183 161.532C58.1063 161.532 57.4343 161.896 57.4343 162.596C57.4343 163.226 57.9663 163.422 59.3103 163.856C60.4723 164.22 61.6763 164.612 61.6763 165.984C61.6763 167.314 60.5283 168.168 59.0303 168.168Z" fill="#CBD4D8"/>
<path d="M21.6 203.968V202.932H25.45V206.698C24.554 207.594 23.042 208.168 21.712 208.168C19.052 208.168 16.784 205.886 16.784 203.184C16.784 200.482 19.052 198.214 21.712 198.214C23.042 198.214 24.554 198.774 25.45 199.684L24.708 200.44C24.008 199.698 22.762 199.222 21.712 199.222C19.64 199.222 17.89 201.042 17.89 203.184C17.89 205.34 19.64 207.16 21.712 207.16C22.608 207.16 23.644 206.81 24.358 206.264V203.968H21.6ZM30.208 200.594C32.182 200.594 33.148 201.84 33.148 203.59V208H32.098V206.866C31.58 207.72 30.502 208.168 29.55 208.168C28.024 208.168 26.904 207.286 26.904 205.858C26.904 204.416 28.192 203.45 29.746 203.45C30.53 203.45 31.356 203.618 32.098 203.856V203.59C32.098 202.61 31.706 201.49 30.138 201.49C29.41 201.49 28.682 201.812 28.024 202.148L27.604 201.294C28.64 200.776 29.508 200.594 30.208 200.594ZM29.732 207.244C30.684 207.244 31.818 206.754 32.098 205.732V204.626C31.44 204.444 30.698 204.332 29.914 204.332C28.836 204.332 27.926 204.948 27.926 205.816C27.926 206.712 28.71 207.244 29.732 207.244ZM43.137 200.594C44.649 200.594 45.713 201.756 45.713 203.394V208H44.663V203.534C44.663 202.358 43.977 201.532 42.997 201.532C41.849 201.532 41.037 202.302 41.037 203.394V208H39.987V203.534C39.987 202.358 39.301 201.532 38.321 201.532C37.173 201.532 36.361 202.302 36.361 203.394V208H35.311V200.762H36.361V201.826C36.725 201.07 37.509 200.594 38.461 200.594C39.609 200.594 40.505 201.266 40.869 202.316C41.093 201.294 41.989 200.594 43.137 200.594ZM50.9368 207.23C51.7908 207.23 52.7708 206.852 53.2188 206.362L53.8628 207.048C53.2328 207.734 51.9588 208.168 50.9508 208.168C49.0188 208.168 47.2828 206.586 47.2828 204.36C47.2828 202.204 48.9068 200.594 50.8528 200.594C53.0368 200.594 54.2828 202.246 54.2828 204.78H48.3608C48.5148 206.194 49.5088 207.23 50.9368 207.23ZM50.8948 201.532C49.6068 201.532 48.5708 202.442 48.3748 203.842H53.2468C53.1068 202.54 52.3368 201.532 50.8948 201.532ZM58.1869 208.168C57.1789 208.168 56.0589 207.79 55.1909 207.09L55.7369 206.32C56.5629 206.922 57.3889 207.23 58.1869 207.23C59.1389 207.23 59.7829 206.782 59.7829 206.096C59.7829 205.312 58.9429 205.06 57.9629 204.78C56.2129 204.276 55.5409 203.758 55.5409 202.722C55.5409 201.406 56.6329 200.594 58.0749 200.594C58.9709 200.594 59.8949 200.902 60.6649 201.406L60.1609 202.218C59.4329 201.756 58.7189 201.532 58.0749 201.532C57.2629 201.532 56.5909 201.896 56.5909 202.596C56.5909 203.226 57.1229 203.422 58.4669 203.856C59.6289 204.22 60.8329 204.612 60.8329 205.984C60.8329 207.314 59.6849 208.168 58.1869 208.168Z" fill="#CBD4D8"/>
<path d="M24.428 239.418H18.632V242.582H23.854V243.618H18.632V246.964H24.428V248H17.526V238.382H24.428V239.418ZM28.3348 248L25.2548 240.762H26.4308L28.8388 246.768L31.2048 240.762H32.3808L29.3428 248H28.3348ZM36.695 247.23C37.549 247.23 38.529 246.852 38.977 246.362L39.621 247.048C38.991 247.734 37.717 248.168 36.709 248.168C34.777 248.168 33.041 246.586 33.041 244.36C33.041 242.204 34.665 240.594 36.611 240.594C38.795 240.594 40.041 242.246 40.041 244.78H34.119C34.273 246.194 35.267 247.23 36.695 247.23ZM36.653 241.532C35.365 241.532 34.329 242.442 34.133 243.842H39.005C38.865 242.54 38.095 241.532 36.653 241.532ZM45.1351 240.594C46.7451 240.594 47.8511 241.728 47.8511 243.394V248H46.8011V243.534C46.8011 242.344 46.0591 241.532 44.9951 241.532C43.7631 241.532 42.7551 242.372 42.7551 243.394V248H41.7051V240.762H42.7551V241.91C43.1751 241.14 44.0991 240.594 45.1351 240.594ZM52.8133 246.936L53.3313 247.706C52.9533 248 52.4773 248.168 51.9873 248.168C50.9513 248.168 50.2233 247.398 50.2233 246.32V241.7H49.0893V240.762H50.2233V238.774H51.2733V240.762H53.0513V241.7H51.2733V246.32C51.2733 246.852 51.6373 247.23 52.0573 247.23C52.3793 247.23 52.6593 247.104 52.8133 246.936ZM56.9795 248.168C55.9715 248.168 54.8515 247.79 53.9835 247.09L54.5295 246.32C55.3555 246.922 56.1815 247.23 56.9795 247.23C57.9315 247.23 58.5755 246.782 58.5755 246.096C58.5755 245.312 57.7355 245.06 56.7555 244.78C55.0055 244.276 54.3335 243.758 54.3335 242.722C54.3335 241.406 55.4255 240.594 56.8675 240.594C57.7635 240.594 58.6875 240.902 59.4575 241.406L58.9535 242.218C58.2255 241.756 57.5115 241.532 56.8675 241.532C56.0555 241.532 55.3835 241.896 55.3835 242.596C55.3835 243.226 55.9155 243.422 57.2595 243.856C58.4215 244.22 59.6255 244.612 59.6255 245.984C59.6255 247.314 58.4775 248.168 56.9795 248.168Z" fill="#CBD4D8"/>
<defs>
<clipPath id="clip0_10416_142325">
<rect width="186" height="620" fill="white" transform="translate(253)"/>
</clipPath>
<clipPath id="clip1_10416_142325">
<rect x="265" y="7" width="46" height="46" rx="3" fill="white"/>
</clipPath>
</defs>
</svg>
