<svg width="176" height="114" viewBox="0 0 176 114" fill="none" xmlns="http://www.w3.org/2000/svg">
<rect x="0.5" y="0.5" width="175" height="113" fill="#1B2B32"/>
<rect x="0.5" y="0.5" width="175" height="113" stroke="#4F6169"/>
<rect x="1" y="7" width="174" height="9" fill="black"/>
<rect opacity="0.5" x="169" y="9" width="4" height="4" fill="white"/>
<rect opacity="0.5" x="148" y="9" width="18.2215" height="1" fill="white"/>
<rect opacity="0.5" x="148" y="12" width="18.2215" height="1" fill="white"/>
<rect opacity="0.5" x="11.0566" y="10.9692" width="18.2215" height="1" fill="white"/>
<circle opacity="0.5" cx="143.101" cy="10.981" r="2.5" fill="white"/>
<rect opacity="0.3" x="3.05273" y="9.03955" width="5" height="5" rx="0.65077" fill="white"/>
<rect opacity="0.3" x="15" y="24" width="59.8708" height="1.82215" rx="0.911077" fill="#ACB8BE"/>
<path d="M15.3925 42.3876C15.3925 42.136 15.5964 41.932 15.848 41.932H160.319C160.57 41.932 160.774 42.136 160.774 42.3876V48.0493H15.3925V42.3876Z" fill="#2D4048" stroke="#4F6169" stroke-width="0.390462"/>
<rect x="46.8682" y="42.8291" width="0.390462" height="3.90462" fill="#4F6169"/>
<rect x="88.3682" y="42.8291" width="0.390462" height="3.90462" fill="#4F6169"/>
<rect x="122.223" y="42.8291" width="0.390462" height="3.90462" fill="#4F6169"/>
<rect width="146" height="9" transform="translate(15.1973 48.2446)" fill="#22343C"/>
<mask id="path-14-inside-1_11284_9452" fill="white">
<path d="M15.1973 48.2446H161.197V57.2446H15.1973V48.2446Z"/>
</mask>
<path d="M161.197 57.2446V57.635H161.588V57.2446H161.197ZM15.1973 57.2446H14.8069V57.635H15.1973V57.2446ZM160.807 48.2446V57.2446H161.588V48.2446H160.807ZM161.197 56.8542H15.1973V57.635H161.197V56.8542ZM15.5877 57.2446V48.2446H14.8069V57.2446H15.5877Z" fill="#4F6169" mask="url(#path-14-inside-1_11284_9452)"/>
<rect opacity="0.4" x="19.2988" y="51.8418" width="14.3151" height="1.30137" fill="#ACB8BE"/>
<rect opacity="0.4" x="53.1338" y="51.8418" width="22.1233" height="1.30137" fill="#ACB8BE"/>
<rect opacity="0.4" x="92.1758" y="51.8418" width="24.726" height="1.30137" fill="#ACB8BE"/>
<rect opacity="0.4" x="124.71" y="51.8418" width="27.3288" height="1.30137" fill="#ACB8BE"/>
<rect width="146" height="9" transform="translate(15.1973 57.25)" fill="#22343C"/>
<mask id="path-20-inside-2_11284_9452" fill="white">
<path d="M15.1973 57.25H161.197V66.25H15.1973V57.25Z"/>
</mask>
<path d="M161.197 66.25V66.6404H161.588V66.25H161.197ZM15.1973 66.25H14.8069V66.6404H15.1973V66.25ZM160.807 57.25V66.25H161.588V57.25H160.807ZM161.197 65.8596H15.1973V66.6404H161.197V65.8596ZM15.5877 66.25V57.25H14.8069V66.25H15.5877Z" fill="#4F6169" mask="url(#path-20-inside-2_11284_9452)"/>
<rect opacity="0.4" x="19.2988" y="60.8472" width="14.3151" height="1.30137" fill="#ACB8BE"/>
<rect opacity="0.4" x="53.1338" y="60.8472" width="22.1233" height="1.30137" fill="#ACB8BE"/>
<rect opacity="0.4" x="92.1758" y="60.8472" width="24.726" height="1.30137" fill="#ACB8BE"/>
<rect opacity="0.4" x="124.71" y="60.8472" width="27.3288" height="1.30137" fill="#ACB8BE"/>
<rect width="146" height="9" transform="translate(15.1973 75.25)" fill="#22343C"/>
<mask id="path-26-inside-3_11284_9452" fill="white">
<path d="M15.1973 75.25H161.197V84.25H15.1973V75.25Z"/>
</mask>
<path d="M161.197 84.25V84.6404H161.588V84.25H161.197ZM15.1973 84.25H14.8069V84.6404H15.1973V84.25ZM160.807 75.25V84.25H161.588V75.25H160.807ZM161.197 83.8596H15.1973V84.6404H161.197V83.8596ZM15.5877 84.25V75.25H14.8069V84.25H15.5877Z" fill="#4F6169" mask="url(#path-26-inside-3_11284_9452)"/>
<rect opacity="0.4" x="19.2988" y="78.8472" width="14.3151" height="1.30137" fill="#ACB8BE"/>
<rect opacity="0.4" x="53.1338" y="78.8472" width="22.1233" height="1.30137" fill="#ACB8BE"/>
<rect opacity="0.4" x="92.1758" y="78.8472" width="24.726" height="1.30137" fill="#ACB8BE"/>
<rect opacity="0.4" x="124.71" y="78.8472" width="27.3288" height="1.30137" fill="#ACB8BE"/>
<rect width="146" height="9" transform="translate(15.1973 93)" fill="#22343C"/>
<mask id="path-32-inside-4_11284_9452" fill="white">
<path d="M15.1973 93H161.197V102H15.1973V93Z"/>
</mask>
<path d="M161.197 102V102.39H161.588V102H161.197ZM15.1973 102H14.8069V102.39H15.1973V102ZM160.807 93V102H161.588V93H160.807ZM161.197 101.61H15.1973V102.39H161.197V101.61ZM15.5877 102V93H14.8069V102H15.5877Z" fill="#4F6169" mask="url(#path-32-inside-4_11284_9452)"/>
<rect opacity="0.4" x="19.2988" y="96.5972" width="14.3151" height="1.30137" fill="#ACB8BE"/>
<rect opacity="0.4" x="53.1338" y="96.5972" width="22.1233" height="1.30137" fill="#ACB8BE"/>
<rect opacity="0.4" x="92.1758" y="96.5972" width="24.726" height="1.30137" fill="#ACB8BE"/>
<rect opacity="0.4" x="124.71" y="96.5972" width="27.3288" height="1.30137" fill="#ACB8BE"/>
<rect width="146" height="9" transform="translate(15.1973 84.25)" fill="#22343C"/>
<mask id="path-38-inside-5_11284_9452" fill="white">
<path d="M15.1973 84.25H161.197V93.25H15.1973V84.25Z"/>
</mask>
<path d="M161.197 93.25V93.6404H161.588V93.25H161.197ZM15.1973 93.25H14.8069V93.6404H15.1973V93.25ZM160.807 84.25V93.25H161.588V84.25H160.807ZM161.197 92.8596H15.1973V93.6404H161.197V92.8596ZM15.5877 93.25V84.25H14.8069V93.25H15.5877Z" fill="#4F6169" mask="url(#path-38-inside-5_11284_9452)"/>
<rect opacity="0.4" x="19.2988" y="87.8472" width="14.3151" height="1.30137" fill="#ACB8BE"/>
<rect opacity="0.4" x="53.1338" y="87.8472" width="22.1233" height="1.30137" fill="#ACB8BE"/>
<rect opacity="0.4" x="92.1758" y="87.8472" width="24.726" height="1.30137" fill="#ACB8BE"/>
<rect opacity="0.4" x="124.71" y="87.8472" width="27.3288" height="1.30137" fill="#ACB8BE"/>
<rect width="146" height="9" transform="translate(15.1973 66.25)" fill="#22343C"/>
<mask id="path-44-inside-6_11284_9452" fill="white">
<path d="M15.1973 66.25H161.197V75.25H15.1973V66.25Z"/>
</mask>
<path d="M161.197 75.25V75.6404H161.588V75.25H161.197ZM15.1973 75.25H14.8069V75.6404H15.1973V75.25ZM160.807 66.25V75.25H161.588V66.25H160.807ZM161.197 74.8596H15.1973V75.6404H161.197V74.8596ZM15.5877 75.25V66.25H14.8069V75.25H15.5877Z" fill="#4F6169" mask="url(#path-44-inside-6_11284_9452)"/>
<rect opacity="0.4" x="19.2988" y="69.8472" width="14.3151" height="1.30137" fill="#ACB8BE"/>
<rect opacity="0.4" x="53.1338" y="69.8472" width="22.1233" height="1.30137" fill="#ACB8BE"/>
<rect opacity="0.4" x="92.1758" y="69.8472" width="24.726" height="1.30137" fill="#ACB8BE"/>
<rect opacity="0.4" x="124.71" y="69.8472" width="27.3288" height="1.30137" fill="#ACB8BE"/>
<rect x="15.1973" y="33" width="145.772" height="7.80924" rx="0.5" fill="#0079AD"/>
<rect opacity="0.5" x="23.9336" y="36.3687" width="39.0462" height="1" fill="white"/>
<path opacity="0.5" fill-rule="evenodd" clip-rule="evenodd" d="M16.9209 36.8943C16.9209 35.6963 17.8921 34.7251 19.0901 34.7251C19.6654 34.7251 20.2172 34.9536 20.624 35.3605C21.0308 35.7673 21.2594 36.319 21.2594 36.8943C21.2594 38.0924 20.2882 39.0636 19.0901 39.0636C17.8921 39.0636 16.9209 38.0924 16.9209 36.8943ZM19.3297 35.7912C19.3297 35.931 19.2164 36.0443 19.0766 36.0443C18.9368 36.0443 18.8235 35.931 18.8235 35.7912C18.8235 35.6514 18.9368 35.5381 19.0766 35.5381C19.2164 35.5381 19.3297 35.6514 19.3297 35.7912ZM19.0907 38.7016C18.0923 38.7016 17.283 37.8923 17.283 36.8939C17.283 35.8956 18.0923 35.0863 19.0907 35.0863C20.0891 35.0863 20.8984 35.8956 20.8984 36.8939C20.8984 37.3734 20.7079 37.8332 20.3689 38.1722C20.0299 38.5112 19.5701 38.7016 19.0907 38.7016ZM19.2717 37.7984H19.6332C19.7331 37.7984 19.814 37.8793 19.814 37.9791C19.814 38.079 19.7331 38.1599 19.6332 38.1599H18.5486C18.4488 38.1599 18.3678 38.079 18.3678 37.9791C18.3678 37.8793 18.4488 37.7984 18.5486 37.7984H18.9101V36.7137H18.7294C18.6295 36.7137 18.5486 36.6328 18.5486 36.533C18.5486 36.4331 18.6295 36.3522 18.7294 36.3522H19.2717V37.7984Z" fill="white"/>
<path d="M156.806 36.9168L158.005 35.7181C158.054 35.6607 158.05 35.5752 157.997 35.5218C157.944 35.4684 157.858 35.4651 157.801 35.5142L156.602 36.7129L155.403 35.5127C155.347 35.456 155.255 35.456 155.198 35.5127C155.141 35.5694 155.141 35.6614 155.198 35.7181L156.398 36.9168L155.198 38.1155C155.157 38.1508 155.139 38.2063 155.151 38.2591C155.164 38.3119 155.205 38.3532 155.258 38.3659C155.311 38.3786 155.367 38.3606 155.402 38.3194L156.602 37.1207L157.801 38.3194C157.858 38.3685 157.944 38.3652 157.997 38.3118C158.05 38.2584 158.054 38.1728 158.005 38.1155L156.806 36.9168Z" fill="#ACB8BE"/>
<rect width="174" height="6" transform="translate(1 1)" fill="#FF674C"/>
</svg>
