<svg width="620" height="103" viewBox="0 0 620 103" fill="none" xmlns="http://www.w3.org/2000/svg">
<g filter="url(#filter0_d_10439_5307)">
<path d="M4 4C4 1.79086 5.79086 0 8 0H612C614.209 0 616 1.79086 616 4V32C616 34.2091 614.209 36 612 36H8C5.79086 36 4 34.2091 4 32V4Z" fill="#22343C" shape-rendering="crispEdges"/>
<path fill-rule="evenodd" clip-rule="evenodd" d="M22.3335 18.0002C22.3335 12.1091 27.1091 7.3335 33.0002 7.3335C35.8291 7.3335 38.5422 8.4573 40.5426 10.4577C42.543 12.4581 43.6668 15.1712 43.6668 18.0002C43.6668 23.8912 38.8912 28.6668 33.0002 28.6668C27.1091 28.6668 22.3335 23.8912 22.3335 18.0002ZM31.2068 23.1735L39.9668 14.4202L39.9802 14.4335C40.3484 14.0653 40.3484 13.4684 39.9802 13.1002C39.612 12.732 39.015 12.732 38.6468 13.1002L31.2202 20.5202L27.3668 16.6668C26.9986 16.2986 26.4017 16.2986 26.0335 16.6668C25.6653 17.035 25.6653 17.632 26.0335 18.0002L31.2068 23.1735Z" fill="#67CA16"/>
<path d="M54.56 14.057C54.196 14.057 53.91 13.758 53.91 13.407C53.91 13.069 54.196 12.77 54.56 12.77C54.911 12.77 55.197 13.069 55.197 13.407C55.197 13.758 54.911 14.057 54.56 14.057ZM53.403 24.314C53.039 24.314 52.61 24.223 52.35 24.106L52.506 23.3C52.714 23.378 53.065 23.443 53.338 23.443C53.767 23.443 54.066 23.092 54.066 22.598V15.279H55.041V22.598C55.041 23.599 54.365 24.314 53.403 24.314ZM60.0274 22.156C58.1164 22.156 56.5564 20.57 56.5564 18.633C56.5564 16.696 58.1164 15.123 60.0274 15.123C61.9254 15.123 63.4854 16.696 63.4854 18.633C63.4854 20.57 61.9254 22.156 60.0274 22.156ZM60.0274 21.285C61.3664 21.285 62.4714 20.089 62.4714 18.633C62.4714 17.177 61.3664 15.994 60.0274 15.994C58.6754 15.994 57.5704 17.177 57.5704 18.633C57.5704 20.089 58.6754 21.285 60.0274 21.285ZM68.2498 15.123C69.7448 15.123 70.7718 16.176 70.7718 17.723V22H69.7968V17.853C69.7968 16.748 69.1078 15.994 68.1198 15.994C66.9758 15.994 66.0398 16.774 66.0398 17.723V22H65.0648V12.913H66.0398V16.345C66.4298 15.63 67.2878 15.123 68.2498 15.123ZM75.9574 15.123C77.4524 15.123 78.4794 16.176 78.4794 17.723V22H77.5044V17.853C77.5044 16.748 76.8154 15.994 75.8274 15.994C74.6834 15.994 73.7474 16.774 73.7474 17.723V22H72.7724V15.279L73.7474 15.279V16.345C74.1374 15.63 74.9954 15.123 75.9574 15.123ZM85.498 12.913H86.473V22H85.498V20.739C84.991 21.623 84.133 22.156 83.054 22.156C81.286 22.156 79.96 20.7 79.96 18.633C79.96 16.579 81.286 15.123 83.054 15.123C84.133 15.123 84.991 15.656 85.498 16.54V12.913ZM83.236 21.285C84.562 21.285 85.498 20.18 85.498 18.633C85.498 17.086 84.562 15.994 83.236 15.994C81.923 15.994 80.987 17.086 80.987 18.633C80.987 20.18 81.923 21.285 83.236 21.285ZM91.518 22.156C89.607 22.156 88.047 20.57 88.047 18.633C88.047 16.696 89.607 15.123 91.518 15.123C93.416 15.123 94.976 16.696 94.976 18.633C94.976 20.57 93.416 22.156 91.518 22.156ZM91.518 21.285C92.857 21.285 93.962 20.089 93.962 18.633C93.962 17.177 92.857 15.994 91.518 15.994C90.166 15.994 89.061 17.177 89.061 18.633C89.061 20.089 90.166 21.285 91.518 21.285ZM99.3894 21.285C100.182 21.285 101.092 20.934 101.508 20.479L102.106 21.116C101.521 21.753 100.338 22.156 99.4024 22.156C97.6084 22.156 95.9964 20.687 95.9964 18.62C95.9964 16.618 97.5044 15.123 99.3114 15.123C101.339 15.123 102.496 16.657 102.496 19.01L96.9974 19.01C97.1404 20.323 98.0634 21.285 99.3894 21.285ZM99.3504 15.994C98.1544 15.994 97.1924 16.839 97.0104 18.139L101.534 18.139C101.404 16.93 100.689 15.994 99.3504 15.994ZM108.819 23.508C106.128 23.508 103.853 21.285 103.853 18.633C103.853 15.695 106.336 13.225 109.287 13.225C111.939 13.225 114.162 15.344 114.162 17.853C114.162 19.972 112.966 20.986 111.822 20.986C111.016 20.986 110.47 20.557 110.327 19.868C109.846 20.492 109.118 20.986 108.221 20.986C106.973 20.986 106.063 20.089 106.063 18.737C106.063 16.917 107.584 15.487 109.092 15.487C110.015 15.487 110.587 15.981 110.873 16.54L111.042 15.682L111.913 15.747C111.51 17.814 111.224 19.192 111.224 19.517C111.224 20.063 111.562 20.375 112.082 20.375C112.797 20.375 113.694 19.673 113.694 17.853C113.694 15.591 111.666 13.693 109.261 13.693C106.596 13.693 104.347 15.942 104.347 18.62C104.347 21.025 106.401 23.053 108.845 23.053C109.911 23.053 110.704 22.832 111.653 22.26L111.887 22.611C110.886 23.248 110.002 23.508 108.819 23.508ZM108.455 20.219C109.677 20.219 110.457 19.218 110.587 17.957C110.691 16.917 110.236 16.254 109.209 16.254C108.013 16.254 106.999 17.385 106.999 18.685C106.999 19.608 107.571 20.219 108.455 20.219ZM121.05 15.279H122.025V21.285C122.025 23.014 120.66 24.236 118.723 24.236C117.631 24.236 116.617 23.859 116.006 23.339L116.435 22.572C116.955 23.066 117.761 23.365 118.593 23.365C120.14 23.365 121.05 22.598 121.05 21.285V20.193C120.53 21.012 119.672 21.506 118.606 21.506C116.799 21.506 115.512 20.18 115.512 18.308C115.512 16.436 116.799 15.123 118.606 15.123C119.672 15.123 120.53 15.617 121.05 16.436V15.279ZM118.788 20.635C120.114 20.635 121.05 19.673 121.05 18.308C121.05 16.956 120.114 15.994 118.788 15.994C117.475 15.994 116.539 16.956 116.539 18.308C116.539 19.673 117.475 20.635 118.788 20.635ZM131.452 15.123C132.856 15.123 133.844 16.202 133.844 17.723V22H132.869V17.853C132.869 16.761 132.232 15.994 131.322 15.994C130.256 15.994 129.502 16.709 129.502 17.723V22H128.527V17.853C128.527 16.761 127.89 15.994 126.98 15.994C125.914 15.994 125.16 16.709 125.16 17.723V22H124.185V15.279H125.16V16.267C125.498 15.565 126.226 15.123 127.11 15.123C128.176 15.123 129.008 15.747 129.346 16.722C129.554 15.773 130.386 15.123 131.452 15.123ZM138.259 15.123C140.092 15.123 140.989 16.28 140.989 17.905V22H140.014V20.947C139.533 21.74 138.532 22.156 137.648 22.156C136.231 22.156 135.191 21.337 135.191 20.011C135.191 18.672 136.387 17.775 137.83 17.775C138.558 17.775 139.325 17.931 140.014 18.152V17.905C140.014 16.995 139.65 15.955 138.194 15.955C137.518 15.955 136.842 16.254 136.231 16.566L135.841 15.773C136.803 15.292 137.609 15.123 138.259 15.123ZM137.817 21.298C138.701 21.298 139.754 20.843 140.014 19.894V18.867C139.403 18.698 138.714 18.594 137.986 18.594C136.985 18.594 136.14 19.166 136.14 19.972C136.14 20.804 136.868 21.298 137.817 21.298ZM143.484 14.057C143.12 14.057 142.834 13.758 142.834 13.407C142.834 13.069 143.12 12.77 143.484 12.77C143.835 12.77 144.121 13.069 144.121 13.407C144.121 13.758 143.835 14.057 143.484 14.057ZM142.99 22V15.279H143.965V22H142.99ZM146.127 22V12.913H147.102V22H146.127ZM150.253 22.156C149.85 22.156 149.538 21.831 149.538 21.441C149.538 21.077 149.85 20.752 150.253 20.752C150.63 20.752 150.942 21.077 150.942 21.441C150.942 21.831 150.63 22.156 150.253 22.156ZM156.265 22.156C154.38 22.156 152.781 20.544 152.781 18.633C152.781 16.722 154.38 15.123 156.265 15.123C157.175 15.123 158.02 15.5 158.657 16.111L157.981 16.774C157.539 16.293 156.928 15.994 156.265 15.994C154.926 15.994 153.808 17.203 153.808 18.633C153.808 20.076 154.926 21.285 156.265 21.285C156.941 21.285 157.565 20.973 158.02 20.466L158.696 21.129C158.059 21.766 157.201 22.156 156.265 22.156ZM162.907 22.156C160.996 22.156 159.436 20.57 159.436 18.633C159.436 16.696 160.996 15.123 162.907 15.123C164.805 15.123 166.365 16.696 166.365 18.633C166.365 20.57 164.805 22.156 162.907 22.156ZM162.907 21.285C164.246 21.285 165.351 20.089 165.351 18.633C165.351 17.177 164.246 15.994 162.907 15.994C161.555 15.994 160.45 17.177 160.45 18.633C160.45 20.089 161.555 21.285 162.907 21.285ZM175.211 15.123C176.615 15.123 177.603 16.202 177.603 17.723V22H176.628V17.853C176.628 16.761 175.991 15.994 175.081 15.994C174.015 15.994 173.261 16.709 173.261 17.723V22H172.286V17.853C172.286 16.761 171.649 15.994 170.739 15.994C169.673 15.994 168.919 16.709 168.919 17.723V22H167.944V15.279H168.919V16.267C169.257 15.565 169.985 15.123 170.869 15.123C171.935 15.123 172.767 15.747 173.105 16.722C173.313 15.773 174.145 15.123 175.211 15.123ZM186.278 15.123C187.773 15.123 188.8 16.176 188.8 17.723V22L187.825 22V17.853C187.825 16.748 187.136 15.994 186.148 15.994C185.004 15.994 184.068 16.774 184.068 17.723V22H183.093V12.913H184.068V16.345C184.458 15.63 185.316 15.123 186.278 15.123ZM193.205 15.123C195.038 15.123 195.935 16.28 195.935 17.905V22H194.96V20.947C194.479 21.74 193.478 22.156 192.594 22.156C191.177 22.156 190.137 21.337 190.137 20.011C190.137 18.672 191.333 17.775 192.776 17.775C193.504 17.775 194.271 17.931 194.96 18.152V17.905C194.96 16.995 194.596 15.955 193.14 15.955C192.464 15.955 191.788 16.254 191.177 16.566L190.787 15.773C191.749 15.292 192.555 15.123 193.205 15.123ZM192.763 21.298C193.647 21.298 194.7 20.843 194.96 19.894V18.867C194.349 18.698 193.66 18.594 192.932 18.594C191.931 18.594 191.086 19.166 191.086 19.972C191.086 20.804 191.814 21.298 192.763 21.298ZM200.017 22.156C199.081 22.156 198.041 21.805 197.235 21.155L197.742 20.44C198.509 20.999 199.276 21.285 200.017 21.285C200.901 21.285 201.499 20.869 201.499 20.232C201.499 19.504 200.719 19.27 199.809 19.01C198.184 18.542 197.56 18.061 197.56 17.099C197.56 15.877 198.574 15.123 199.913 15.123C200.745 15.123 201.603 15.409 202.318 15.877L201.85 16.631C201.174 16.202 200.511 15.994 199.913 15.994C199.159 15.994 198.535 16.332 198.535 16.982C198.535 17.567 199.029 17.749 200.277 18.152C201.356 18.49 202.474 18.854 202.474 20.128C202.474 21.363 201.408 22.156 200.017 22.156ZM210.944 15.123C212.712 15.123 214.038 16.579 214.038 18.633C214.038 20.7 212.712 22.156 210.944 22.156C209.865 22.156 209.007 21.623 208.5 20.739V22H207.525V12.913L208.5 12.913V16.54C209.007 15.656 209.865 15.123 210.944 15.123ZM210.762 21.285C212.075 21.285 213.011 20.18 213.011 18.633C213.011 17.086 212.075 15.994 210.762 15.994C209.436 15.994 208.5 17.086 208.5 18.633C208.5 20.18 209.436 21.285 210.762 21.285ZM218.511 21.285C219.304 21.285 220.214 20.934 220.63 20.479L221.228 21.116C220.643 21.753 219.46 22.156 218.524 22.156C216.73 22.156 215.118 20.687 215.118 18.62C215.118 16.618 216.626 15.123 218.433 15.123C220.461 15.123 221.618 16.657 221.618 19.01L216.119 19.01C216.262 20.323 217.185 21.285 218.511 21.285ZM218.472 15.994C217.276 15.994 216.314 16.839 216.132 18.139L220.656 18.139C220.526 16.93 219.811 15.994 218.472 15.994ZM225.99 21.285C226.783 21.285 227.693 20.934 228.109 20.479L228.707 21.116C228.122 21.753 226.939 22.156 226.003 22.156C224.209 22.156 222.597 20.687 222.597 18.62C222.597 16.618 224.105 15.123 225.912 15.123C227.94 15.123 229.097 16.657 229.097 19.01H223.598C223.741 20.323 224.664 21.285 225.99 21.285ZM225.951 15.994C224.755 15.994 223.793 16.839 223.611 18.139H228.135C228.005 16.93 227.29 15.994 225.951 15.994ZM233.82 15.123C235.315 15.123 236.342 16.176 236.342 17.723V22H235.367V17.853C235.367 16.748 234.678 15.994 233.69 15.994C232.546 15.994 231.61 16.774 231.61 17.723V22H230.635V15.279H231.61V16.345C232 15.63 232.858 15.123 233.82 15.123ZM244.228 15.123C246.061 15.123 246.958 16.28 246.958 17.905V22L245.983 22V20.947C245.502 21.74 244.501 22.156 243.617 22.156C242.2 22.156 241.16 21.337 241.16 20.011C241.16 18.672 242.356 17.775 243.799 17.775C244.527 17.775 245.294 17.931 245.983 18.152V17.905C245.983 16.995 245.619 15.955 244.163 15.955C243.487 15.955 242.811 16.254 242.2 16.566L241.81 15.773C242.772 15.292 243.578 15.123 244.228 15.123ZM243.786 21.298C244.67 21.298 245.723 20.843 245.983 19.894V18.867C245.372 18.698 244.683 18.594 243.955 18.594C242.954 18.594 242.109 19.166 242.109 19.972C242.109 20.804 242.837 21.298 243.786 21.298ZM253.977 12.913H254.952V22H253.977V20.739C253.47 21.623 252.612 22.156 251.533 22.156C249.765 22.156 248.439 20.7 248.439 18.633C248.439 16.579 249.765 15.123 251.533 15.123C252.612 15.123 253.47 15.656 253.977 16.54V12.913ZM251.715 21.285C253.041 21.285 253.977 20.18 253.977 18.633C253.977 17.086 253.041 15.994 251.715 15.994C250.402 15.994 249.466 17.086 249.466 18.633C249.466 20.18 250.402 21.285 251.715 21.285ZM262.129 12.913L263.104 12.913V22H262.129V20.739C261.622 21.623 260.764 22.156 259.685 22.156C257.917 22.156 256.591 20.7 256.591 18.633C256.591 16.579 257.917 15.123 259.685 15.123C260.764 15.123 261.622 15.656 262.129 16.54V12.913ZM259.867 21.285C261.193 21.285 262.129 20.18 262.129 18.633C262.129 17.086 261.193 15.994 259.867 15.994C258.554 15.994 257.618 17.086 257.618 18.633C257.618 20.18 258.554 21.285 259.867 21.285ZM268.097 21.285C268.89 21.285 269.8 20.934 270.216 20.479L270.814 21.116C270.229 21.753 269.046 22.156 268.11 22.156C266.316 22.156 264.704 20.687 264.704 18.62C264.704 16.618 266.212 15.123 268.019 15.123C270.047 15.123 271.204 16.657 271.204 19.01L265.705 19.01C265.848 20.323 266.771 21.285 268.097 21.285ZM268.058 15.994C266.862 15.994 265.9 16.839 265.718 18.139L270.242 18.139C270.112 16.93 269.397 15.994 268.058 15.994ZM277.76 12.913H278.735V22H277.76V20.739C277.253 21.623 276.395 22.156 275.316 22.156C273.548 22.156 272.222 20.7 272.222 18.633C272.222 16.579 273.548 15.123 275.316 15.123C276.395 15.123 277.253 15.656 277.76 16.54V12.913ZM275.498 21.285C276.824 21.285 277.76 20.18 277.76 18.633C277.76 17.086 276.824 15.994 275.498 15.994C274.185 15.994 273.249 17.086 273.249 18.633C273.249 20.18 274.185 21.285 275.498 21.285ZM286.974 21.012L287.455 21.727C287.104 22 286.662 22.156 286.207 22.156C285.245 22.156 284.569 21.441 284.569 20.44V16.15H283.516V15.279H284.569V13.433H285.544V15.279H287.195V16.15H285.544V20.44C285.544 20.934 285.882 21.285 286.272 21.285C286.571 21.285 286.831 21.168 286.974 21.012ZM291.641 22.156C289.73 22.156 288.17 20.57 288.17 18.633C288.17 16.696 289.73 15.123 291.641 15.123C293.539 15.123 295.099 16.696 295.099 18.633C295.099 20.57 293.539 22.156 291.641 22.156ZM291.641 21.285C292.98 21.285 294.085 20.089 294.085 18.633C294.085 17.177 292.98 15.994 291.641 15.994C290.289 15.994 289.184 17.177 289.184 18.633C289.184 20.089 290.289 21.285 291.641 21.285ZM307.231 22L306.334 19.972L301.355 19.972L300.458 22H299.353L303.292 13.069H304.397L308.336 22H307.231ZM301.771 19.01L305.918 19.01L303.851 14.317L301.771 19.01ZM313.868 22.156C311.398 22.156 309.292 20.037 309.292 17.528C309.292 15.019 311.398 12.913 313.868 12.913C315.103 12.913 316.247 13.433 317.079 14.278L316.39 14.98C315.74 14.291 314.843 13.849 313.868 13.849C311.944 13.849 310.319 15.539 310.319 17.528C310.319 19.53 311.944 21.22 313.868 21.22C314.843 21.22 315.74 20.778 316.39 20.089L317.079 20.791C316.247 21.623 315.103 22.156 313.868 22.156ZM318.882 22V13.069H319.896L323.211 19.296L326.526 13.069H327.54V22L326.526 22V15.253L323.211 21.48L319.896 15.253V22H318.882ZM336.68 14.031L331.298 14.031V16.969L336.147 16.969V17.931L331.298 17.931V21.038L336.68 21.038V22L330.271 22V13.069L336.68 13.069V14.031ZM342.208 22V13.069H345.224C348.058 13.069 350.06 14.915 350.06 17.528C350.06 20.141 348.058 22 345.224 22H342.208ZM343.222 21.077H345.224C347.46 21.077 349.033 19.608 349.033 17.528C349.033 15.461 347.46 13.992 345.224 13.992H343.222V21.077ZM354.647 21.285C355.44 21.285 356.35 20.934 356.766 20.479L357.364 21.116C356.779 21.753 355.596 22.156 354.66 22.156C352.866 22.156 351.254 20.687 351.254 18.62C351.254 16.618 352.762 15.123 354.569 15.123C356.597 15.123 357.754 16.657 357.754 19.01L352.255 19.01C352.398 20.323 353.321 21.285 354.647 21.285ZM354.608 15.994C353.412 15.994 352.45 16.839 352.268 18.139L356.792 18.139C356.662 16.93 355.947 15.994 354.608 15.994ZM361.151 22L358.291 15.279H359.383L361.619 20.856L363.816 15.279L364.908 15.279L362.087 22H361.151ZM368.907 21.285C369.7 21.285 370.61 20.934 371.026 20.479L371.624 21.116C371.039 21.753 369.856 22.156 368.92 22.156C367.126 22.156 365.514 20.687 365.514 18.62C365.514 16.618 367.022 15.123 368.829 15.123C370.857 15.123 372.014 16.657 372.014 19.01H366.515C366.658 20.323 367.581 21.285 368.907 21.285ZM368.868 15.994C367.672 15.994 366.71 16.839 366.528 18.139H371.052C370.922 16.93 370.207 15.994 368.868 15.994ZM373.552 22V12.913H374.527V22H373.552ZM379.575 22.156C377.664 22.156 376.104 20.57 376.104 18.633C376.104 16.696 377.664 15.123 379.575 15.123C381.473 15.123 383.033 16.696 383.033 18.633C383.033 20.57 381.473 22.156 379.575 22.156ZM379.575 21.285C380.914 21.285 382.019 20.089 382.019 18.633C382.019 17.177 380.914 15.994 379.575 15.994C378.223 15.994 377.118 17.177 377.118 18.633C377.118 20.089 378.223 21.285 379.575 21.285ZM388.032 15.123C389.8 15.123 391.126 16.579 391.126 18.633C391.126 20.7 389.8 22.156 388.032 22.156C386.953 22.156 386.095 21.623 385.588 20.739V24.236H384.613V15.279H385.588V16.54C386.095 15.656 386.953 15.123 388.032 15.123ZM387.85 21.285C389.163 21.285 390.099 20.18 390.099 18.633C390.099 17.086 389.163 15.994 387.85 15.994C386.524 15.994 385.588 17.086 385.588 18.633C385.588 20.18 386.524 21.285 387.85 21.285ZM400.032 15.123C401.436 15.123 402.424 16.202 402.424 17.723V22H401.449V17.853C401.449 16.761 400.812 15.994 399.902 15.994C398.836 15.994 398.082 16.709 398.082 17.723V22H397.107V17.853C397.107 16.761 396.47 15.994 395.56 15.994C394.494 15.994 393.74 16.709 393.74 17.723V22H392.765V15.279H393.74V16.267C394.078 15.565 394.806 15.123 395.69 15.123C396.756 15.123 397.588 15.747 397.926 16.722C398.134 15.773 398.966 15.123 400.032 15.123ZM407.267 21.285C408.06 21.285 408.97 20.934 409.386 20.479L409.984 21.116C409.399 21.753 408.216 22.156 407.28 22.156C405.486 22.156 403.874 20.687 403.874 18.62C403.874 16.618 405.382 15.123 407.189 15.123C409.217 15.123 410.374 16.657 410.374 19.01H404.875C405.018 20.323 405.941 21.285 407.267 21.285ZM407.228 15.994C406.032 15.994 405.07 16.839 404.888 18.139H409.412C409.282 16.93 408.567 15.994 407.228 15.994ZM415.097 15.123C416.592 15.123 417.619 16.176 417.619 17.723V22H416.644V17.853C416.644 16.748 415.955 15.994 414.967 15.994C413.823 15.994 412.887 16.774 412.887 17.723V22H411.912V15.279L412.887 15.279V16.345C413.277 15.63 414.135 15.123 415.097 15.123ZM422.22 21.012L422.701 21.727C422.35 22 421.908 22.156 421.453 22.156C420.491 22.156 419.815 21.441 419.815 20.44V16.15H418.762V15.279H419.815V13.433H420.79V15.279H422.441V16.15L420.79 16.15V20.44C420.79 20.934 421.128 21.285 421.518 21.285C421.817 21.285 422.077 21.168 422.22 21.012Z" fill="white"/>
<path d="M450.212 13.756H451.868L448.424 22H446.756L443.312 13.756H444.968L447.596 20.008L450.212 13.756ZM454.316 22V13.756H455.804V22H454.316ZM465.293 15.124H460.589V17.116H464.837V18.484H460.589V20.632H465.293V22H459.089V13.756H465.293V15.124ZM469.929 22L467.313 13.756H468.957L470.721 19.66L472.677 13.756H474.297L476.241 19.66L478.017 13.756H479.649L477.045 22H475.557L473.493 15.88L471.417 22H469.929ZM486.429 22V13.756H489.321C492.045 13.756 493.965 15.46 493.965 17.872C493.965 20.284 492.045 22 489.321 22H486.429ZM487.917 20.644H489.477C491.217 20.644 492.441 19.492 492.441 17.872C492.441 16.252 491.217 15.112 489.477 15.112H487.917V20.644ZM502.914 15.124H498.21V17.116H502.458V18.484H498.21V20.632H502.914V22H496.71V13.756H502.914V15.124ZM507.574 22V15.124H504.934V13.756H511.702V15.124H509.074V22H507.574ZM520.263 22L519.615 20.44H515.679L515.031 22H513.363L516.807 13.756H518.475L521.919 22H520.263ZM516.195 19.216H519.099L517.647 15.748L516.195 19.216ZM524.355 22V13.756H525.843V22H524.355ZM530.616 20.632H534.852V22H529.128V13.756H530.616V20.632ZM540.191 22.132C538.787 22.132 537.575 21.652 536.663 20.8L537.539 19.732C538.295 20.416 539.171 20.848 540.251 20.848C541.259 20.848 541.787 20.344 541.787 19.756C541.787 19.072 541.199 18.844 539.879 18.532C538.175 18.136 536.999 17.644 536.999 16.096C536.999 14.656 538.223 13.612 539.951 13.612C541.259 13.612 542.255 14.056 543.071 14.764L542.255 15.856C541.547 15.244 540.719 14.896 539.903 14.896C539.063 14.896 538.511 15.388 538.511 15.964C538.511 16.636 539.111 16.876 540.419 17.176C542.135 17.56 543.287 18.112 543.287 19.612C543.287 21.088 542.171 22.132 540.191 22.132Z" fill="#2EC0FF"/>
<path d="M594.627 18L598.311 14.3155C598.462 14.1392 598.452 13.8763 598.288 13.7122C598.124 13.548 597.861 13.5379 597.685 13.6889L594 17.3733L590.316 13.6844C590.141 13.5101 589.859 13.5101 589.685 13.6844C589.51 13.8587 589.51 14.1413 589.685 14.3155L593.374 18L589.685 21.6844C589.558 21.793 589.503 21.9636 589.542 22.1259C589.581 22.2883 589.707 22.4151 589.87 22.4541C590.032 22.4932 590.203 22.4379 590.311 22.3111L594 18.6266L597.685 22.3111C597.861 22.4621 598.124 22.4519 598.288 22.2878C598.452 22.1236 598.462 21.8608 598.311 21.6844L594.627 18Z" fill="#F1F6F8"/>
<path d="M4.5 4C4.5 2.067 6.067 0.5 8 0.5H612C613.933 0.5 615.5 2.067 615.5 4V32C615.5 33.933 613.933 35.5 612 35.5H8C6.067 35.5 4.5 33.933 4.5 32V4Z" stroke="#4F6169" shape-rendering="crispEdges"/>
</g>
<line x1="23" y1="31.5" x2="42" y2="31.5" stroke="#D23292"/>
<line x1="32.5" y1="32" x2="32.5" y2="76" stroke="#D23292"/>
<line x1="585" y1="31.5" x2="604" y2="31.5" stroke="#D23292"/>
<line x1="594.5" y1="32" x2="594.5" y2="76" stroke="#D23292"/>
<line x1="464" y1="31.5" x2="530" y2="31.5" stroke="#D23292"/>
<line x1="497.5" y1="32" x2="497.5" y2="76" stroke="#D23292"/>
<path d="M21.417 97L21.417 88.069H22.431L22.431 97H21.417ZM27.7637 97.156C25.8787 97.156 24.2797 95.544 24.2797 93.633C24.2797 91.722 25.8787 90.123 27.7637 90.123C28.6737 90.123 29.5187 90.5 30.1557 91.111L29.4797 91.774C29.0377 91.293 28.4267 90.994 27.7637 90.994C26.4247 90.994 25.3067 92.203 25.3067 93.633C25.3067 95.076 26.4247 96.285 27.7637 96.285C28.4397 96.285 29.0637 95.973 29.5187 95.466L30.1947 96.129C29.5577 96.766 28.6997 97.156 27.7637 97.156ZM34.4049 97.156C32.4939 97.156 30.9339 95.57 30.9339 93.633C30.9339 91.696 32.4939 90.123 34.4049 90.123C36.3029 90.123 37.8629 91.696 37.8629 93.633C37.8629 95.57 36.3029 97.156 34.4049 97.156ZM34.4049 96.285C35.7439 96.285 36.8489 95.089 36.8489 93.633C36.8489 92.177 35.7439 90.994 34.4049 90.994C33.0529 90.994 31.9479 92.177 31.9479 93.633C31.9479 95.089 33.0529 96.285 34.4049 96.285ZM42.6273 90.123C44.1223 90.123 45.1493 91.176 45.1493 92.723V97H44.1743V92.853C44.1743 91.748 43.4853 90.994 42.4973 90.994C41.3533 90.994 40.4173 91.774 40.4173 92.723V97H39.4423V90.279H40.4173V91.345C40.8073 90.63 41.6653 90.123 42.6273 90.123Z" fill="white"/>
<line x1="71" y1="31.5" x2="400" y2="31.5" stroke="#D23292"/>
<line x1="236.5" y1="32" x2="236.5" y2="76" stroke="#D23292"/>
<path d="M202.417 97V88.069H205.433C208.267 88.069 210.269 89.915 210.269 92.528C210.269 95.141 208.267 97 205.433 97H202.417ZM203.431 96.077H205.433C207.669 96.077 209.242 94.608 209.242 92.528C209.242 90.461 207.669 88.992 205.433 88.992H203.431V96.077ZM214.856 96.285C215.649 96.285 216.559 95.934 216.975 95.479L217.573 96.116C216.988 96.753 215.805 97.156 214.869 97.156C213.075 97.156 211.463 95.687 211.463 93.62C211.463 91.618 212.971 90.123 214.778 90.123C216.806 90.123 217.963 91.657 217.963 94.01H212.464C212.607 95.323 213.53 96.285 214.856 96.285ZM214.817 90.994C213.621 90.994 212.659 91.839 212.477 93.139H217.001C216.871 91.93 216.156 90.994 214.817 90.994ZM221.581 97.156C220.645 97.156 219.605 96.805 218.799 96.155L219.306 95.44C220.073 95.999 220.84 96.285 221.581 96.285C222.465 96.285 223.063 95.869 223.063 95.232C223.063 94.504 222.283 94.27 221.373 94.01C219.748 93.542 219.124 93.061 219.124 92.099C219.124 90.877 220.138 90.123 221.477 90.123C222.309 90.123 223.167 90.409 223.882 90.877L223.414 91.631C222.738 91.202 222.075 90.994 221.477 90.994C220.723 90.994 220.099 91.332 220.099 91.982C220.099 92.567 220.593 92.749 221.841 93.152C222.92 93.49 224.038 93.854 224.038 95.128C224.038 96.363 222.972 97.156 221.581 97.156ZM228.495 97.156C226.61 97.156 225.011 95.544 225.011 93.633C225.011 91.722 226.61 90.123 228.495 90.123C229.405 90.123 230.25 90.5 230.887 91.111L230.211 91.774C229.769 91.293 229.158 90.994 228.495 90.994C227.156 90.994 226.038 92.203 226.038 93.633C226.038 95.076 227.156 96.285 228.495 96.285C229.171 96.285 229.795 95.973 230.25 95.466L230.926 96.129C230.289 96.766 229.431 97.156 228.495 97.156ZM233.226 91.592C233.629 90.695 234.591 90.123 235.826 90.123V90.994C234.305 90.994 233.226 91.93 233.226 93.243V97H232.251V90.279H233.226V91.592ZM237.799 89.057C237.435 89.057 237.149 88.758 237.149 88.407C237.149 88.069 237.435 87.77 237.799 87.77C238.15 87.77 238.436 88.069 238.436 88.407C238.436 88.758 238.15 89.057 237.799 89.057ZM237.305 97V90.279H238.28V97H237.305ZM243.861 90.123C245.629 90.123 246.955 91.579 246.955 93.633C246.955 95.7 245.629 97.156 243.861 97.156C242.782 97.156 241.924 96.623 241.417 95.739V99.236H240.442V90.279H241.417V91.54C241.924 90.656 242.782 90.123 243.861 90.123ZM243.679 96.285C244.992 96.285 245.928 95.18 245.928 93.633C245.928 92.086 244.992 90.994 243.679 90.994C242.353 90.994 241.417 92.086 241.417 93.633C241.417 95.18 242.353 96.285 243.679 96.285ZM251.194 96.012L251.675 96.727C251.324 97 250.882 97.156 250.427 97.156C249.465 97.156 248.789 96.441 248.789 95.44V91.15H247.736V90.279H248.789V88.433H249.764V90.279H251.415V91.15H249.764V95.44C249.764 95.934 250.102 96.285 250.492 96.285C250.791 96.285 251.051 96.168 251.194 96.012ZM253.47 89.057C253.106 89.057 252.82 88.758 252.82 88.407C252.82 88.069 253.106 87.77 253.47 87.77C253.821 87.77 254.107 88.069 254.107 88.407C254.107 88.758 253.821 89.057 253.47 89.057ZM252.976 97V90.279H253.951V97H252.976ZM258.999 97.156C257.088 97.156 255.528 95.57 255.528 93.633C255.528 91.696 257.088 90.123 258.999 90.123C260.897 90.123 262.457 91.696 262.457 93.633C262.457 95.57 260.897 97.156 258.999 97.156ZM258.999 96.285C260.338 96.285 261.443 95.089 261.443 93.633C261.443 92.177 260.338 90.994 258.999 90.994C257.647 90.994 256.542 92.177 256.542 93.633C256.542 95.089 257.647 96.285 258.999 96.285ZM267.221 90.123C268.716 90.123 269.743 91.176 269.743 92.723V97H268.768V92.853C268.768 91.748 268.079 90.994 267.091 90.994C265.947 90.994 265.011 91.774 265.011 92.723V97H264.036V90.279H265.011V91.345C265.401 90.63 266.259 90.123 267.221 90.123Z" fill="white"/>
<path d="M486.431 96.038H491.306V97H485.417V88.069H486.431V96.038ZM493.155 89.057C492.791 89.057 492.505 88.758 492.505 88.407C492.505 88.069 492.791 87.77 493.155 87.77C493.506 87.77 493.792 88.069 493.792 88.407C493.792 88.758 493.506 89.057 493.155 89.057ZM492.661 97V90.279H493.636V97H492.661ZM498.983 90.123C500.478 90.123 501.505 91.176 501.505 92.723V97H500.53V92.853C500.53 91.748 499.841 90.994 498.853 90.994C497.709 90.994 496.773 91.774 496.773 92.723V97H495.798V90.279H496.773V91.345C497.163 90.63 498.021 90.123 498.983 90.123ZM503.506 97V87.913H504.481V93.997L508.16 90.279H509.408L506.379 93.36L509.239 97H508.017L505.69 94.023L504.481 95.219V97H503.506Z" fill="white"/>
<path d="M572.417 97V88.069H575.433C578.267 88.069 580.269 89.915 580.269 92.528C580.269 95.141 578.267 97 575.433 97H572.417ZM573.431 96.077H575.433C577.669 96.077 579.242 94.608 579.242 92.528C579.242 90.461 577.669 88.992 575.433 88.992H573.431V96.077ZM582.516 89.057C582.152 89.057 581.866 88.758 581.866 88.407C581.866 88.069 582.152 87.77 582.516 87.77C582.867 87.77 583.153 88.069 583.153 88.407C583.153 88.758 582.867 89.057 582.516 89.057ZM582.022 97V90.279H582.997V97H582.022ZM587.24 97.156C586.304 97.156 585.264 96.805 584.458 96.155L584.965 95.44C585.732 95.999 586.499 96.285 587.24 96.285C588.124 96.285 588.722 95.869 588.722 95.232C588.722 94.504 587.942 94.27 587.032 94.01C585.407 93.542 584.783 93.061 584.783 92.099C584.783 90.877 585.797 90.123 587.136 90.123C587.968 90.123 588.826 90.409 589.541 90.877L589.073 91.631C588.397 91.202 587.734 90.994 587.136 90.994C586.382 90.994 585.758 91.332 585.758 91.982C585.758 92.567 586.252 92.749 587.5 93.152C588.579 93.49 589.697 93.854 589.697 95.128C589.697 96.363 588.631 97.156 587.24 97.156ZM598.535 90.123C599.939 90.123 600.927 91.202 600.927 92.723V97H599.952V92.853C599.952 91.761 599.315 90.994 598.405 90.994C597.339 90.994 596.585 91.709 596.585 92.723V97H595.61V92.853C595.61 91.761 594.973 90.994 594.063 90.994C592.997 90.994 592.243 91.709 592.243 92.723V97H591.268V90.279H592.243V91.267C592.581 90.565 593.309 90.123 594.193 90.123C595.259 90.123 596.091 90.747 596.429 91.722C596.637 90.773 597.469 90.123 598.535 90.123ZM603.43 89.057C603.066 89.057 602.78 88.758 602.78 88.407C602.78 88.069 603.066 87.77 603.43 87.77C603.781 87.77 604.067 88.069 604.067 88.407C604.067 88.758 603.781 89.057 603.43 89.057ZM602.936 97V90.279H603.911V97L602.936 97ZM608.153 97.156C607.217 97.156 606.177 96.805 605.371 96.155L605.878 95.44C606.645 95.999 607.412 96.285 608.153 96.285C609.037 96.285 609.635 95.869 609.635 95.232C609.635 94.504 608.855 94.27 607.945 94.01C606.32 93.542 605.696 93.061 605.696 92.099C605.696 90.877 606.71 90.123 608.049 90.123C608.881 90.123 609.739 90.409 610.454 90.877L609.986 91.631C609.31 91.202 608.647 90.994 608.049 90.994C607.295 90.994 606.671 91.332 606.671 91.982C606.671 92.567 607.165 92.749 608.413 93.152C609.492 93.49 610.61 93.854 610.61 95.128C610.61 96.363 609.544 97.156 608.153 97.156ZM614.261 97.156C613.325 97.156 612.285 96.805 611.479 96.155L611.986 95.44C612.753 95.999 613.52 96.285 614.261 96.285C615.145 96.285 615.743 95.869 615.743 95.232C615.743 94.504 614.963 94.27 614.053 94.01C612.428 93.542 611.804 93.061 611.804 92.099C611.804 90.877 612.818 90.123 614.157 90.123C614.989 90.123 615.847 90.409 616.562 90.877L616.094 91.631C615.418 91.202 614.755 90.994 614.157 90.994C613.403 90.994 612.779 91.332 612.779 91.982C612.779 92.567 613.273 92.749 614.521 93.152C615.6 93.49 616.718 93.854 616.718 95.128C616.718 96.363 615.652 97.156 614.261 97.156Z" fill="white"/>
<defs>
<filter id="filter0_d_10439_5307" x="0" y="0" width="620" height="44" filterUnits="userSpaceOnUse" color-interpolation-filters="sRGB">
<feFlood flood-opacity="0" result="BackgroundImageFix"/>
<feColorMatrix in="SourceAlpha" type="matrix" values="0 0 0 0 0 0 0 0 0 0 0 0 0 0 0 0 0 0 127 0" result="hardAlpha"/>
<feOffset dy="4"/>
<feGaussianBlur stdDeviation="2"/>
<feComposite in2="hardAlpha" operator="out"/>
<feColorMatrix type="matrix" values="0 0 0 0 0.105 0 0 0 0 0.168 0 0 0 0 0.195 0 0 0 0.25 0"/>
<feBlend mode="normal" in2="BackgroundImageFix" result="effect1_dropShadow_10439_5307"/>
<feBlend mode="normal" in="SourceGraphic" in2="effect1_dropShadow_10439_5307" result="shape"/>
</filter>
</defs>
</svg>
