<svg width="432" height="250" viewBox="0 0 432 250" fill="none" xmlns="http://www.w3.org/2000/svg">
<g filter="url(#filter0_d_10439_5309)">
<rect x="4" y="44" width="424" height="139" rx="4" fill="#22343C"/>
<rect x="4.5" y="44.5" width="423" height="138" rx="3.5" stroke="#67777E"/>
</g>
<path fill-rule="evenodd" clip-rule="evenodd" d="M33.0002 60.3999C27.1091 60.3999 22.3335 65.1755 22.3335 71.0666C22.3335 76.9576 27.1091 81.7332 33.0002 81.7332C38.8912 81.7332 43.6668 76.9576 43.6668 71.0666C43.6668 68.2376 42.543 65.5245 40.5426 63.5241C38.5422 61.5237 35.8291 60.3999 33.0002 60.3999ZM32.9335 63.9199C33.6699 63.9199 34.2668 64.5169 34.2668 65.2532C34.2668 65.9896 33.6699 66.5866 32.9335 66.5866C32.1971 66.5866 31.6002 65.9896 31.6002 65.2532C31.6002 64.5169 32.1971 63.9199 32.9335 63.9199ZM29.7335 77.1532C29.7335 77.6687 30.1514 78.0866 30.6668 78.0866H35.3335C35.849 78.0866 36.2668 77.6687 36.2668 77.1532C36.2668 76.6378 35.849 76.2199 35.3335 76.2199H33.9335V68.2199H31.0002C30.4847 68.2199 30.0668 68.6378 30.0668 69.1532C30.0668 69.6687 30.4847 70.0866 31.0002 70.0866H32.0668V76.2199H30.6668C30.1514 76.2199 29.7335 76.6378 29.7335 77.1532Z" fill="#2EC0FF"/>
<path d="M57.121 104.143C55.652 104.143 54.495 103.61 53.598 102.726L54.235 101.933C54.989 102.687 55.912 103.22 57.16 103.22C58.538 103.22 59.24 102.466 59.24 101.66C59.24 100.711 58.395 100.334 56.835 99.97C55.041 99.554 53.91 98.995 53.91 97.448C53.91 96.018 55.184 94.913 56.9 94.913C58.226 94.913 59.214 95.433 60.033 96.187L59.409 96.98C58.668 96.265 57.784 95.836 56.848 95.836C55.743 95.836 54.937 96.551 54.937 97.37C54.937 98.293 55.821 98.618 57.342 98.982C59.045 99.385 60.267 99.996 60.267 101.569C60.267 102.986 59.201 104.143 57.121 104.143ZM66.567 97.279H67.542V104H66.567V102.934C66.177 103.649 65.319 104.156 64.357 104.156C62.862 104.156 61.835 103.103 61.835 101.556V97.279H62.81V101.426C62.81 102.531 63.499 103.285 64.487 103.285C65.631 103.285 66.567 102.505 66.567 101.556V97.279ZM73.1176 97.123C74.8856 97.123 76.2116 98.579 76.2116 100.633C76.2116 102.7 74.8856 104.156 73.1176 104.156C72.0386 104.156 71.1806 103.623 70.6736 102.739V104H69.6986V94.913H70.6736V98.54C71.1806 97.656 72.0386 97.123 73.1176 97.123ZM72.9356 103.285C74.2486 103.285 75.1846 102.18 75.1846 100.633C75.1846 99.086 74.2486 97.994 72.9356 97.994C71.6096 97.994 70.6736 99.086 70.6736 100.633C70.6736 102.18 71.6096 103.285 72.9356 103.285ZM80.4505 103.012L80.9315 103.727C80.5805 104 80.1385 104.156 79.6835 104.156C78.7215 104.156 78.0455 103.441 78.0455 102.44V98.15H76.9925V97.279H78.0455V95.433H79.0205V97.279H80.6715V98.15H79.0205V102.44C79.0205 102.934 79.3585 103.285 79.7485 103.285C80.0475 103.285 80.3075 103.168 80.4505 103.012ZM82.726 96.057C82.362 96.057 82.076 95.758 82.076 95.407C82.076 95.069 82.362 94.77 82.726 94.77C83.077 94.77 83.363 95.069 83.363 95.407C83.363 95.758 83.077 96.057 82.726 96.057ZM82.232 104V97.279H83.207V104H82.232ZM87.9693 103.012L88.4503 103.727C88.0993 104 87.6573 104.156 87.2023 104.156C86.2403 104.156 85.5643 103.441 85.5643 102.44V98.15H84.5113V97.279H85.5643V95.433H86.5393V97.279H88.1903V98.15H86.5393V102.44C86.5393 102.934 86.8773 103.285 87.2673 103.285C87.5663 103.285 87.8263 103.168 87.9693 103.012ZM89.7507 104V94.913H90.7257V104H89.7507ZM95.722 103.285C96.515 103.285 97.425 102.934 97.841 102.479L98.439 103.116C97.854 103.753 96.671 104.156 95.735 104.156C93.941 104.156 92.329 102.687 92.329 100.62C92.329 98.618 93.837 97.123 95.644 97.123C97.672 97.123 98.829 98.657 98.829 101.01H93.33C93.473 102.323 94.396 103.285 95.722 103.285ZM95.683 97.994C94.487 97.994 93.525 98.839 93.343 100.139H97.867C97.737 98.93 97.022 97.994 95.683 97.994ZM106.252 97.123C108.085 97.123 108.982 98.28 108.982 99.905V104H108.007V102.947C107.526 103.74 106.525 104.156 105.641 104.156C104.224 104.156 103.184 103.337 103.184 102.011C103.184 100.672 104.38 99.775 105.823 99.775C106.551 99.775 107.318 99.931 108.007 100.152V99.905C108.007 98.995 107.643 97.955 106.187 97.955C105.511 97.955 104.835 98.254 104.224 98.566L103.834 97.773C104.796 97.292 105.602 97.123 106.252 97.123ZM105.81 103.298C106.694 103.298 107.747 102.843 108.007 101.894V100.867C107.396 100.698 106.707 100.594 105.979 100.594C104.978 100.594 104.133 101.166 104.133 101.972C104.133 102.804 104.861 103.298 105.81 103.298ZM114.169 97.123C115.664 97.123 116.691 98.176 116.691 99.723V104H115.716V99.853C115.716 98.748 115.027 97.994 114.039 97.994C112.895 97.994 111.959 98.774 111.959 99.723V104H110.984V97.279H111.959V98.345C112.349 97.63 113.207 97.123 114.169 97.123ZM123.709 94.913H124.684V104H123.709V102.739C123.202 103.623 122.344 104.156 121.265 104.156C119.497 104.156 118.171 102.7 118.171 100.633C118.171 98.579 119.497 97.123 121.265 97.123C122.344 97.123 123.202 97.656 123.709 98.54V94.913ZM121.447 103.285C122.773 103.285 123.709 102.18 123.709 100.633C123.709 99.086 122.773 97.994 121.447 97.994C120.134 97.994 119.198 99.086 119.198 100.633C119.198 102.18 120.134 103.285 121.447 103.285ZM132.728 97.123C134.561 97.123 135.458 98.28 135.458 99.905V104H134.483V102.947C134.002 103.74 133.001 104.156 132.117 104.156C130.7 104.156 129.66 103.337 129.66 102.011C129.66 100.672 130.856 99.775 132.299 99.775C133.027 99.775 133.794 99.931 134.483 100.152V99.905C134.483 98.995 134.119 97.955 132.663 97.955C131.987 97.955 131.311 98.254 130.7 98.566L130.31 97.773C131.272 97.292 132.078 97.123 132.728 97.123ZM132.286 103.298C133.17 103.298 134.223 102.843 134.483 101.894V100.867C133.872 100.698 133.183 100.594 132.455 100.594C131.454 100.594 130.609 101.166 130.609 101.972C130.609 102.804 131.337 103.298 132.286 103.298ZM139.54 104.156C138.604 104.156 137.564 103.805 136.758 103.155L137.265 102.44C138.032 102.999 138.799 103.285 139.54 103.285C140.424 103.285 141.022 102.869 141.022 102.232C141.022 101.504 140.242 101.27 139.332 101.01C137.707 100.542 137.083 100.061 137.083 99.099C137.083 97.877 138.097 97.123 139.436 97.123C140.268 97.123 141.126 97.409 141.841 97.877L141.373 98.631C140.697 98.202 140.034 97.994 139.436 97.994C138.682 97.994 138.058 98.332 138.058 98.982C138.058 99.567 138.552 99.749 139.8 100.152C140.879 100.49 141.997 100.854 141.997 102.128C141.997 103.363 140.931 104.156 139.54 104.156ZM145.648 104.156C144.712 104.156 143.672 103.805 142.866 103.155L143.373 102.44C144.14 102.999 144.907 103.285 145.648 103.285C146.532 103.285 147.13 102.869 147.13 102.232C147.13 101.504 146.35 101.27 145.44 101.01C143.815 100.542 143.191 100.061 143.191 99.099C143.191 97.877 144.205 97.123 145.544 97.123C146.376 97.123 147.234 97.409 147.949 97.877L147.481 98.631C146.805 98.202 146.142 97.994 145.544 97.994C144.79 97.994 144.166 98.332 144.166 98.982C144.166 99.567 144.66 99.749 145.908 100.152C146.987 100.49 148.105 100.854 148.105 102.128C148.105 103.363 147.039 104.156 145.648 104.156ZM152.562 104.156C150.651 104.156 149.091 102.57 149.091 100.633C149.091 98.696 150.651 97.123 152.562 97.123C154.46 97.123 156.02 98.696 156.02 100.633C156.02 102.57 154.46 104.156 152.562 104.156ZM152.562 103.285C153.901 103.285 155.006 102.089 155.006 100.633C155.006 99.177 153.901 97.994 152.562 97.994C151.21 97.994 150.105 99.177 150.105 100.633C150.105 102.089 151.21 103.285 152.562 103.285ZM160.485 104.156C158.6 104.156 157.001 102.544 157.001 100.633C157.001 98.722 158.6 97.123 160.485 97.123C161.395 97.123 162.24 97.5 162.877 98.111L162.201 98.774C161.759 98.293 161.148 97.994 160.485 97.994C159.146 97.994 158.028 99.203 158.028 100.633C158.028 102.076 159.146 103.285 160.485 103.285C161.161 103.285 161.785 102.973 162.24 102.466L162.916 103.129C162.279 103.766 161.421 104.156 160.485 104.156ZM164.734 96.057C164.37 96.057 164.084 95.758 164.084 95.407C164.084 95.069 164.37 94.77 164.734 94.77C165.085 94.77 165.371 95.069 165.371 95.407C165.371 95.758 165.085 96.057 164.734 96.057ZM164.24 104V97.279H165.215V104H164.24ZM169.782 97.123C171.615 97.123 172.512 98.28 172.512 99.905V104H171.537V102.947C171.056 103.74 170.055 104.156 169.171 104.156C167.754 104.156 166.714 103.337 166.714 102.011C166.714 100.672 167.91 99.775 169.353 99.775C170.081 99.775 170.848 99.931 171.537 100.152V99.905C171.537 98.995 171.173 97.955 169.717 97.955C169.041 97.955 168.365 98.254 167.754 98.566L167.364 97.773C168.326 97.292 169.132 97.123 169.782 97.123ZM169.34 103.298C170.224 103.298 171.277 102.843 171.537 101.894V100.867C170.926 100.698 170.237 100.594 169.509 100.594C168.508 100.594 167.663 101.166 167.663 101.972C167.663 102.804 168.391 103.298 169.34 103.298ZM177.114 103.012L177.595 103.727C177.244 104 176.802 104.156 176.347 104.156C175.385 104.156 174.709 103.441 174.709 102.44V98.15H173.656V97.279H174.709V95.433H175.684V97.279H177.335V98.15H175.684V102.44C175.684 102.934 176.022 103.285 176.412 103.285C176.711 103.285 176.971 103.168 177.114 103.012ZM181.729 103.285C182.522 103.285 183.432 102.934 183.848 102.479L184.446 103.116C183.861 103.753 182.678 104.156 181.742 104.156C179.948 104.156 178.336 102.687 178.336 100.62C178.336 98.618 179.844 97.123 181.651 97.123C183.679 97.123 184.836 98.657 184.836 101.01H179.337C179.48 102.323 180.403 103.285 181.729 103.285ZM181.69 97.994C180.494 97.994 179.532 98.839 179.35 100.139H183.874C183.744 98.93 183.029 97.994 181.69 97.994ZM191.392 94.913H192.367V104H191.392V102.739C190.885 103.623 190.027 104.156 188.948 104.156C187.18 104.156 185.854 102.7 185.854 100.633C185.854 98.579 187.18 97.123 188.948 97.123C190.027 97.123 190.885 97.656 191.392 98.54V94.913ZM189.13 103.285C190.456 103.285 191.392 102.18 191.392 100.633C191.392 99.086 190.456 97.994 189.13 97.994C187.817 97.994 186.881 99.086 186.881 100.633C186.881 102.18 187.817 103.285 189.13 103.285ZM198.292 104V95.069H199.306V104H198.292ZM204.938 97.123C206.433 97.123 207.46 98.176 207.46 99.723V104H206.485V99.853C206.485 98.748 205.796 97.994 204.808 97.994C203.664 97.994 202.728 98.774 202.728 99.723V104L201.753 104V97.279H202.728V98.345C203.118 97.63 203.976 97.123 204.938 97.123ZM210.67 96.356V97.279H212.321V98.15H210.67V104H209.695V98.15H208.642V97.279H209.695V96.356C209.695 95.355 210.371 94.64 211.333 94.64C211.788 94.64 212.23 94.796 212.581 95.069L212.1 95.784C211.957 95.628 211.697 95.511 211.398 95.511C211.008 95.511 210.67 95.862 210.67 96.356ZM216.373 104.156C214.462 104.156 212.902 102.57 212.902 100.633C212.902 98.696 214.462 97.123 216.373 97.123C218.271 97.123 219.831 98.696 219.831 100.633C219.831 102.57 218.271 104.156 216.373 104.156ZM216.373 103.285C217.712 103.285 218.817 102.089 218.817 100.633C218.817 99.177 217.712 97.994 216.373 97.994C215.021 97.994 213.916 99.177 213.916 100.633C213.916 102.089 215.021 103.285 216.373 103.285ZM222.385 98.592C222.788 97.695 223.75 97.123 224.985 97.123V97.994C223.464 97.994 222.385 98.93 222.385 100.243V104H221.41V97.279H222.385V98.592ZM233.731 97.123C235.135 97.123 236.123 98.202 236.123 99.723V104H235.148V99.853C235.148 98.761 234.511 97.994 233.601 97.994C232.535 97.994 231.781 98.709 231.781 99.723V104H230.806V99.853C230.806 98.761 230.169 97.994 229.259 97.994C228.193 97.994 227.439 98.709 227.439 99.723V104H226.464V97.279H227.439V98.267C227.777 97.565 228.505 97.123 229.389 97.123C230.455 97.123 231.287 97.747 231.625 98.722C231.833 97.773 232.665 97.123 233.731 97.123ZM240.538 97.123C242.371 97.123 243.268 98.28 243.268 99.905V104H242.293V102.947C241.812 103.74 240.811 104.156 239.927 104.156C238.51 104.156 237.47 103.337 237.47 102.011C237.47 100.672 238.666 99.775 240.109 99.775C240.837 99.775 241.604 99.931 242.293 100.152V99.905C242.293 98.995 241.929 97.955 240.473 97.955C239.797 97.955 239.121 98.254 238.51 98.566L238.12 97.773C239.082 97.292 239.888 97.123 240.538 97.123ZM240.096 103.298C240.98 103.298 242.033 102.843 242.293 101.894V100.867C241.682 100.698 240.993 100.594 240.265 100.594C239.264 100.594 238.419 101.166 238.419 101.972C238.419 102.804 239.147 103.298 240.096 103.298ZM247.869 103.012L248.35 103.727C247.999 104 247.557 104.156 247.102 104.156C246.14 104.156 245.464 103.441 245.464 102.44V98.15H244.411V97.279H245.464V95.433H246.439V97.279H248.09V98.15H246.439V102.44C246.439 102.934 246.777 103.285 247.167 103.285C247.466 103.285 247.726 103.168 247.869 103.012ZM250.145 96.057C249.781 96.057 249.495 95.758 249.495 95.407C249.495 95.069 249.781 94.77 250.145 94.77C250.496 94.77 250.782 95.069 250.782 95.407C250.782 95.758 250.496 96.057 250.145 96.057ZM249.651 104V97.279H250.626V104H249.651ZM255.674 104.156C253.763 104.156 252.203 102.57 252.203 100.633C252.203 98.696 253.763 97.123 255.674 97.123C257.572 97.123 259.132 98.696 259.132 100.633C259.132 102.57 257.572 104.156 255.674 104.156ZM255.674 103.285C257.013 103.285 258.118 102.089 258.118 100.633C258.118 99.177 257.013 97.994 255.674 97.994C254.322 97.994 253.217 99.177 253.217 100.633C253.217 102.089 254.322 103.285 255.674 103.285ZM263.896 97.123C265.391 97.123 266.418 98.176 266.418 99.723V104H265.443V99.853C265.443 98.748 264.754 97.994 263.766 97.994C262.622 97.994 261.686 98.774 261.686 99.723V104H260.711V97.279H261.686V98.345C262.076 97.63 262.934 97.123 263.896 97.123ZM275.318 97.123C277.086 97.123 278.412 98.579 278.412 100.633C278.412 102.7 277.086 104.156 275.318 104.156C274.239 104.156 273.381 103.623 272.874 102.739V106.236H271.899V97.279H272.874V98.54C273.381 97.656 274.239 97.123 275.318 97.123ZM275.136 103.285C276.449 103.285 277.385 102.18 277.385 100.633C277.385 99.086 276.449 97.994 275.136 97.994C273.81 97.994 272.874 99.086 272.874 100.633C272.874 102.18 273.81 103.285 275.136 103.285ZM282.885 103.285C283.678 103.285 284.588 102.934 285.004 102.479L285.602 103.116C285.017 103.753 283.834 104.156 282.898 104.156C281.104 104.156 279.492 102.687 279.492 100.62C279.492 98.618 281 97.123 282.807 97.123C284.835 97.123 285.992 98.657 285.992 101.01H280.493C280.636 102.323 281.559 103.285 282.885 103.285ZM282.846 97.994C281.65 97.994 280.688 98.839 280.506 100.139H285.03C284.9 98.93 284.185 97.994 282.846 97.994ZM288.505 98.592C288.908 97.695 289.87 97.123 291.105 97.123V97.994C289.584 97.994 288.505 98.93 288.505 100.243V104H287.53V97.279H288.505V98.592ZM295.185 103.012L295.666 103.727C295.315 104 294.873 104.156 294.418 104.156C293.456 104.156 292.78 103.441 292.78 102.44V98.15H291.727V97.279H292.78V95.433H293.755V97.279H295.406V98.15H293.755V102.44C293.755 102.934 294.093 103.285 294.483 103.285C294.782 103.285 295.042 103.168 295.185 103.012ZM299.371 97.123C301.204 97.123 302.101 98.28 302.101 99.905V104H301.126V102.947C300.645 103.74 299.644 104.156 298.76 104.156C297.343 104.156 296.303 103.337 296.303 102.011C296.303 100.672 297.499 99.775 298.942 99.775C299.67 99.775 300.437 99.931 301.126 100.152V99.905C301.126 98.995 300.762 97.955 299.306 97.955C298.63 97.955 297.954 98.254 297.343 98.566L296.953 97.773C297.915 97.292 298.721 97.123 299.371 97.123ZM298.929 103.298C299.813 103.298 300.866 102.843 301.126 101.894V100.867C300.515 100.698 299.826 100.594 299.098 100.594C298.097 100.594 297.252 101.166 297.252 101.972C297.252 102.804 297.98 103.298 298.929 103.298ZM304.596 96.057C304.232 96.057 303.946 95.758 303.946 95.407C303.946 95.069 304.232 94.77 304.596 94.77C304.947 94.77 305.233 95.069 305.233 95.407C305.233 95.758 304.947 96.057 304.596 96.057ZM304.102 104V97.279H305.077V104H304.102ZM310.425 97.123C311.92 97.123 312.947 98.176 312.947 99.723V104H311.972V99.853C311.972 98.748 311.283 97.994 310.295 97.994C309.151 97.994 308.215 98.774 308.215 99.723V104H307.24V97.279H308.215V98.345C308.605 97.63 309.463 97.123 310.425 97.123ZM315.441 96.057C315.077 96.057 314.791 95.758 314.791 95.407C314.791 95.069 315.077 94.77 315.441 94.77C315.792 94.77 316.078 95.069 316.078 95.407C316.078 95.758 315.792 96.057 315.441 96.057ZM314.947 104V97.279H315.922V104H314.947ZM321.27 97.123C322.765 97.123 323.792 98.176 323.792 99.723V104H322.817V99.853C322.817 98.748 322.128 97.994 321.14 97.994C319.996 97.994 319.06 98.774 319.06 99.723V104H318.085V97.279H319.06V98.345C319.45 97.63 320.308 97.123 321.27 97.123ZM330.745 97.279H331.72V103.285C331.72 105.014 330.355 106.236 328.418 106.236C327.326 106.236 326.312 105.859 325.701 105.339L326.13 104.572C326.65 105.066 327.456 105.365 328.288 105.365C329.835 105.365 330.745 104.598 330.745 103.285V102.193C330.225 103.012 329.367 103.506 328.301 103.506C326.494 103.506 325.207 102.18 325.207 100.308C325.207 98.436 326.494 97.123 328.301 97.123C329.367 97.123 330.225 97.617 330.745 98.436V97.279ZM328.483 102.635C329.809 102.635 330.745 101.673 330.745 100.308C330.745 98.956 329.809 97.994 328.483 97.994C327.17 97.994 326.234 98.956 326.234 100.308C326.234 101.673 327.17 102.635 328.483 102.635ZM339.961 103.012L340.442 103.727C340.091 104 339.649 104.156 339.194 104.156C338.232 104.156 337.556 103.441 337.556 102.44V98.15H336.503V97.279H337.556V95.433H338.531V97.279H340.182V98.15H338.531V102.44C338.531 102.934 338.869 103.285 339.259 103.285C339.558 103.285 339.818 103.168 339.961 103.012ZM344.628 104.156C342.717 104.156 341.157 102.57 341.157 100.633C341.157 98.696 342.717 97.123 344.628 97.123C346.526 97.123 348.086 98.696 348.086 100.633C348.086 102.57 346.526 104.156 344.628 104.156ZM344.628 103.285C345.967 103.285 347.072 102.089 347.072 100.633C347.072 99.177 345.967 97.994 344.628 97.994C343.276 97.994 342.171 99.177 342.171 100.633C342.171 102.089 343.276 103.285 344.628 103.285ZM355.746 103.012L356.227 103.727C355.876 104 355.434 104.156 354.979 104.156C354.017 104.156 353.341 103.441 353.341 102.44V98.15H352.288V97.279H353.341V95.433H354.316V97.279H355.967V98.15H354.316V102.44C354.316 102.934 354.654 103.285 355.044 103.285C355.343 103.285 355.603 103.168 355.746 103.012ZM360.712 97.123C362.207 97.123 363.234 98.176 363.234 99.723V104H362.259V99.853C362.259 98.748 361.57 97.994 360.582 97.994C359.438 97.994 358.502 98.774 358.502 99.723V104H357.527V94.913H358.502V98.345C358.892 97.63 359.75 97.123 360.712 97.123ZM368.069 103.285C368.862 103.285 369.772 102.934 370.188 102.479L370.786 103.116C370.201 103.753 369.018 104.156 368.082 104.156C366.288 104.156 364.676 102.687 364.676 100.62C364.676 98.618 366.184 97.123 367.991 97.123C370.019 97.123 371.176 98.657 371.176 101.01L365.677 101.01C365.82 102.323 366.743 103.285 368.069 103.285ZM368.03 97.994C366.834 97.994 365.872 98.839 365.69 100.139H370.214C370.084 98.93 369.369 97.994 368.03 97.994ZM56.965 123.285C57.758 123.285 58.668 122.934 59.084 122.479L59.682 123.116C59.097 123.753 57.914 124.156 56.978 124.156C55.184 124.156 53.572 122.687 53.572 120.62C53.572 118.618 55.08 117.123 56.887 117.123C58.915 117.123 60.072 118.657 60.072 121.01H54.573C54.716 122.323 55.639 123.285 56.965 123.285ZM56.926 117.994C55.73 117.994 54.768 118.839 54.586 120.139H59.11C58.98 118.93 58.265 117.994 56.926 117.994ZM63.4691 124L60.6091 117.279H61.7011L63.9371 122.856L66.1341 117.279H67.2261L64.4051 124H63.4691ZM71.225 123.285C72.018 123.285 72.928 122.934 73.344 122.479L73.942 123.116C73.357 123.753 72.174 124.156 71.238 124.156C69.444 124.156 67.832 122.687 67.832 120.62C67.832 118.618 69.34 117.123 71.147 117.123C73.175 117.123 74.332 118.657 74.332 121.01H68.833C68.976 122.323 69.899 123.285 71.225 123.285ZM71.186 117.994C69.99 117.994 69.028 118.839 68.846 120.139H73.37C73.24 118.93 72.525 117.994 71.186 117.994ZM79.0551 117.123C80.5501 117.123 81.5771 118.176 81.5771 119.723V124H80.6021V119.853C80.6021 118.748 79.9131 117.994 78.9251 117.994C77.7811 117.994 76.8451 118.774 76.8451 119.723V124H75.8701V117.279H76.8451V118.345C77.2351 117.63 78.0931 117.123 79.0551 117.123ZM86.1777 123.012L86.6587 123.727C86.3077 124 85.8657 124.156 85.4107 124.156C84.4487 124.156 83.7727 123.441 83.7727 122.44V118.15H82.7197V117.279H83.7727V115.433H84.7477V117.279H86.3987V118.15H84.7477V122.44C84.7477 122.934 85.0857 123.285 85.4757 123.285C85.7747 123.285 86.0347 123.168 86.1777 123.012ZM88.9471 124.156C88.5441 124.156 88.2321 123.831 88.2321 123.441C88.2321 123.077 88.5441 122.752 88.9471 122.752C89.3241 122.752 89.6361 123.077 89.6361 123.441C89.6361 123.831 89.3241 124.156 88.9471 124.156ZM95.84 124V115.069H96.854V124L95.84 124ZM102.486 117.123C103.981 117.123 105.008 118.176 105.008 119.723V124H104.033V119.853C104.033 118.748 103.344 117.994 102.356 117.994C101.212 117.994 100.276 118.774 100.276 119.723V124H99.3007V117.279H100.276V118.345C100.666 117.63 101.524 117.123 102.486 117.123ZM108.217 116.356V117.279H109.868V118.15H108.217V124H107.242V118.15H106.189V117.279H107.242V116.356C107.242 115.355 107.918 114.64 108.88 114.64C109.335 114.64 109.777 114.796 110.128 115.069L109.647 115.784C109.504 115.628 109.244 115.511 108.945 115.511C108.555 115.511 108.217 115.862 108.217 116.356ZM113.92 124.156C112.009 124.156 110.449 122.57 110.449 120.633C110.449 118.696 112.009 117.123 113.92 117.123C115.818 117.123 117.378 118.696 117.378 120.633C117.378 122.57 115.818 124.156 113.92 124.156ZM113.92 123.285C115.259 123.285 116.364 122.089 116.364 120.633C116.364 119.177 115.259 117.994 113.92 117.994C112.568 117.994 111.463 119.177 111.463 120.633C111.463 122.089 112.568 123.285 113.92 123.285ZM119.933 118.592C120.336 117.695 121.298 117.123 122.533 117.123V117.994C121.012 117.994 119.933 118.93 119.933 120.243V124H118.958L118.958 117.279H119.933V118.592ZM131.279 117.123C132.683 117.123 133.671 118.202 133.671 119.723V124H132.696V119.853C132.696 118.761 132.059 117.994 131.149 117.994C130.083 117.994 129.329 118.709 129.329 119.723V124H128.354V119.853C128.354 118.761 127.717 117.994 126.807 117.994C125.741 117.994 124.987 118.709 124.987 119.723V124H124.012L124.012 117.279H124.987V118.267C125.325 117.565 126.053 117.123 126.937 117.123C128.003 117.123 128.835 117.747 129.173 118.722C129.381 117.773 130.213 117.123 131.279 117.123ZM138.086 117.123C139.919 117.123 140.816 118.28 140.816 119.905V124H139.841V122.947C139.36 123.74 138.359 124.156 137.475 124.156C136.058 124.156 135.018 123.337 135.018 122.011C135.018 120.672 136.214 119.775 137.657 119.775C138.385 119.775 139.152 119.931 139.841 120.152V119.905C139.841 118.995 139.477 117.955 138.021 117.955C137.345 117.955 136.669 118.254 136.058 118.566L135.668 117.773C136.63 117.292 137.436 117.123 138.086 117.123ZM137.644 123.298C138.528 123.298 139.581 122.843 139.841 121.894V120.867C139.23 120.698 138.541 120.594 137.813 120.594C136.812 120.594 135.967 121.166 135.967 121.972C135.967 122.804 136.695 123.298 137.644 123.298ZM145.417 123.012L145.898 123.727C145.547 124 145.105 124.156 144.65 124.156C143.688 124.156 143.012 123.441 143.012 122.44V118.15H141.959V117.279H143.012V115.433H143.987V117.279H145.638V118.15H143.987V122.44C143.987 122.934 144.325 123.285 144.715 123.285C145.014 123.285 145.274 123.168 145.417 123.012ZM147.692 116.057C147.328 116.057 147.042 115.758 147.042 115.407C147.042 115.069 147.328 114.77 147.692 114.77C148.043 114.77 148.329 115.069 148.329 115.407C148.329 115.758 148.043 116.057 147.692 116.057ZM147.198 124V117.279H148.173V124H147.198ZM153.222 124.156C151.311 124.156 149.751 122.57 149.751 120.633C149.751 118.696 151.311 117.123 153.222 117.123C155.12 117.123 156.68 118.696 156.68 120.633C156.68 122.57 155.12 124.156 153.222 124.156ZM153.222 123.285C154.561 123.285 155.666 122.089 155.666 120.633C155.666 119.177 154.561 117.994 153.222 117.994C151.87 117.994 150.765 119.177 150.765 120.633C150.765 122.089 151.87 123.285 153.222 123.285ZM161.444 117.123C162.939 117.123 163.966 118.176 163.966 119.723V124H162.991V119.853C162.991 118.748 162.302 117.994 161.314 117.994C160.17 117.994 159.234 118.774 159.234 119.723V124H158.259V117.279H159.234V118.345C159.624 117.63 160.482 117.123 161.444 117.123ZM172.047 123.012L172.528 123.727C172.177 124 171.735 124.156 171.28 124.156C170.318 124.156 169.642 123.441 169.642 122.44V118.15H168.589V117.279H169.642V115.433H170.617V117.279H172.268V118.15H170.617V122.44C170.617 122.934 170.955 123.285 171.345 123.285C171.644 123.285 171.904 123.168 172.047 123.012ZM176.714 124.156C174.803 124.156 173.243 122.57 173.243 120.633C173.243 118.696 174.803 117.123 176.714 117.123C178.612 117.123 180.172 118.696 180.172 120.633C180.172 122.57 178.612 124.156 176.714 124.156ZM176.714 123.285C178.053 123.285 179.158 122.089 179.158 120.633C179.158 119.177 178.053 117.994 176.714 117.994C175.362 117.994 174.257 119.177 174.257 120.633C174.257 122.089 175.362 123.285 176.714 123.285ZM188.417 117.123C189.912 117.123 190.939 118.176 190.939 119.723V124H189.964V119.853C189.964 118.748 189.275 117.994 188.287 117.994C187.143 117.994 186.207 118.774 186.207 119.723V124H185.232V117.279H186.207V118.345C186.597 117.63 187.455 117.123 188.417 117.123ZM195.825 124.156C193.914 124.156 192.354 122.57 192.354 120.633C192.354 118.696 193.914 117.123 195.825 117.123C197.723 117.123 199.283 118.696 199.283 120.633C199.283 122.57 197.723 124.156 195.825 124.156ZM195.825 123.285C197.164 123.285 198.269 122.089 198.269 120.633C198.269 119.177 197.164 117.994 195.825 117.994C194.473 117.994 193.368 119.177 193.368 120.633C193.368 122.089 194.473 123.285 195.825 123.285ZM203.463 123.012L203.944 123.727C203.593 124 203.151 124.156 202.696 124.156C201.734 124.156 201.058 123.441 201.058 122.44V118.15H200.005V117.279H201.058V115.433H202.033V117.279H203.684V118.15H202.033V122.44C202.033 122.934 202.371 123.285 202.761 123.285C203.06 123.285 203.32 123.168 203.463 123.012ZM211.558 123.285C212.351 123.285 213.261 122.934 213.677 122.479L214.275 123.116C213.69 123.753 212.507 124.156 211.571 124.156C209.777 124.156 208.165 122.687 208.165 120.62C208.165 118.618 209.673 117.123 211.48 117.123C213.508 117.123 214.665 118.657 214.665 121.01H209.166C209.309 122.323 210.232 123.285 211.558 123.285ZM211.519 117.994C210.323 117.994 209.361 118.839 209.179 120.139H213.703C213.573 118.93 212.858 117.994 211.519 117.994ZM221.559 124H220.415L218.4 121.322L216.372 124H215.228L217.828 120.568L215.332 117.279H216.476L218.4 119.814L220.311 117.279H221.455L218.972 120.568L221.559 124ZM225.629 124.156C223.744 124.156 222.145 122.544 222.145 120.633C222.145 118.722 223.744 117.123 225.629 117.123C226.539 117.123 227.384 117.5 228.021 118.111L227.345 118.774C226.903 118.293 226.292 117.994 225.629 117.994C224.29 117.994 223.172 119.203 223.172 120.633C223.172 122.076 224.29 123.285 225.629 123.285C226.305 123.285 226.929 122.973 227.384 122.466L228.06 123.129C227.423 123.766 226.565 124.156 225.629 124.156ZM232.218 123.285C233.011 123.285 233.921 122.934 234.337 122.479L234.935 123.116C234.35 123.753 233.167 124.156 232.231 124.156C230.437 124.156 228.825 122.687 228.825 120.62C228.825 118.618 230.333 117.123 232.14 117.123C234.168 117.123 235.325 118.657 235.325 121.01H229.826C229.969 122.323 230.892 123.285 232.218 123.285ZM232.179 117.994C230.983 117.994 230.021 118.839 229.839 120.139H234.363C234.233 118.93 233.518 117.994 232.179 117.994ZM239.697 123.285C240.49 123.285 241.4 122.934 241.816 122.479L242.414 123.116C241.829 123.753 240.646 124.156 239.71 124.156C237.916 124.156 236.304 122.687 236.304 120.62C236.304 118.618 237.812 117.123 239.619 117.123C241.647 117.123 242.804 118.657 242.804 121.01H237.305C237.448 122.323 238.371 123.285 239.697 123.285ZM239.658 117.994C238.462 117.994 237.5 118.839 237.318 120.139H241.842C241.712 118.93 240.997 117.994 239.658 117.994ZM249.361 114.913L250.336 114.913V124H249.361V122.739C248.854 123.623 247.996 124.156 246.917 124.156C245.149 124.156 243.823 122.7 243.823 120.633C243.823 118.579 245.149 117.123 246.917 117.123C247.996 117.123 248.854 117.656 249.361 118.54V114.913ZM247.099 123.285C248.425 123.285 249.361 122.18 249.361 120.633C249.361 119.086 248.425 117.994 247.099 117.994C245.786 117.994 244.85 119.086 244.85 120.633C244.85 122.18 245.786 123.285 247.099 123.285ZM256.209 125.495V114.458H259.277V115.199H257.067V124.754H259.277V125.495H256.209ZM266.042 124H264.898L262.883 121.322L260.855 124H259.711L262.311 120.568L259.815 117.279H260.959L262.883 119.814L264.794 117.279H265.938L263.455 120.568L266.042 124ZM266.472 125.495V124.754H268.682V115.199H266.472V114.458H269.54V125.495H266.472ZM278.303 124.156C276.418 124.156 274.819 122.544 274.819 120.633C274.819 118.722 276.418 117.123 278.303 117.123C279.213 117.123 280.058 117.5 280.695 118.111L280.019 118.774C279.577 118.293 278.966 117.994 278.303 117.994C276.964 117.994 275.846 119.203 275.846 120.633C275.846 122.076 276.964 123.285 278.303 123.285C278.979 123.285 279.603 122.973 280.058 122.466L280.734 123.129C280.097 123.766 279.239 124.156 278.303 124.156ZM285.244 117.123C286.739 117.123 287.766 118.176 287.766 119.723V124H286.791V119.853C286.791 118.748 286.102 117.994 285.114 117.994C283.97 117.994 283.034 118.774 283.034 119.723V124H282.059V114.913H283.034V118.345C283.424 117.63 284.282 117.123 285.244 117.123ZM292.171 117.123C294.004 117.123 294.901 118.28 294.901 119.905V124H293.926V122.947C293.445 123.74 292.444 124.156 291.56 124.156C290.143 124.156 289.103 123.337 289.103 122.011C289.103 120.672 290.299 119.775 291.742 119.775C292.47 119.775 293.237 119.931 293.926 120.152V119.905C293.926 118.995 293.562 117.955 292.106 117.955C291.43 117.955 290.754 118.254 290.143 118.566L289.753 117.773C290.715 117.292 291.521 117.123 292.171 117.123ZM291.729 123.298C292.613 123.298 293.666 122.843 293.926 121.894V120.867C293.315 120.698 292.626 120.594 291.898 120.594C290.897 120.594 290.052 121.166 290.052 121.972C290.052 122.804 290.78 123.298 291.729 123.298ZM297.877 118.592C298.28 117.695 299.242 117.123 300.477 117.123V117.994C298.956 117.994 297.877 118.93 297.877 120.243V124H296.902V117.279H297.877V118.592ZM304.362 117.123C306.195 117.123 307.092 118.28 307.092 119.905V124H306.117V122.947C305.636 123.74 304.635 124.156 303.751 124.156C302.334 124.156 301.294 123.337 301.294 122.011C301.294 120.672 302.49 119.775 303.933 119.775C304.661 119.775 305.428 119.931 306.117 120.152V119.905C306.117 118.995 305.753 117.955 304.297 117.955C303.621 117.955 302.945 118.254 302.334 118.566L301.944 117.773C302.906 117.292 303.712 117.123 304.362 117.123ZM303.92 123.298C304.804 123.298 305.857 122.843 306.117 121.894V120.867C305.506 120.698 304.817 120.594 304.089 120.594C303.088 120.594 302.243 121.166 302.243 121.972C302.243 122.804 302.971 123.298 303.92 123.298ZM311.979 124.156C310.094 124.156 308.495 122.544 308.495 120.633C308.495 118.722 310.094 117.123 311.979 117.123C312.889 117.123 313.734 117.5 314.371 118.111L313.695 118.774C313.253 118.293 312.642 117.994 311.979 117.994C310.64 117.994 309.522 119.203 309.522 120.633C309.522 122.076 310.64 123.285 311.979 123.285C312.655 123.285 313.279 122.973 313.734 122.466L314.41 123.129C313.773 123.766 312.915 124.156 311.979 124.156ZM318.334 123.012L318.815 123.727C318.464 124 318.022 124.156 317.567 124.156C316.605 124.156 315.929 123.441 315.929 122.44V118.15H314.876V117.279H315.929V115.433H316.904V117.279H318.555V118.15H316.904V122.44C316.904 122.934 317.242 123.285 317.632 123.285C317.931 123.285 318.191 123.168 318.334 123.012ZM322.95 123.285C323.743 123.285 324.653 122.934 325.069 122.479L325.667 123.116C325.082 123.753 323.899 124.156 322.963 124.156C321.169 124.156 319.557 122.687 319.557 120.62C319.557 118.618 321.065 117.123 322.872 117.123C324.9 117.123 326.057 118.657 326.057 121.01L320.558 121.01C320.701 122.323 321.624 123.285 322.95 123.285ZM322.911 117.994C321.715 117.994 320.753 118.839 320.571 120.139L325.095 120.139C324.965 118.93 324.25 117.994 322.911 117.994ZM328.57 118.592C328.973 117.695 329.935 117.123 331.17 117.123V117.994C329.649 117.994 328.57 118.93 328.57 120.243V124H327.595V117.279H328.57V118.592ZM334.729 124.156C333.793 124.156 332.753 123.805 331.947 123.155L332.454 122.44C333.221 122.999 333.988 123.285 334.729 123.285C335.613 123.285 336.211 122.869 336.211 122.232C336.211 121.504 335.431 121.27 334.521 121.01C332.896 120.542 332.272 120.061 332.272 119.099C332.272 117.877 333.286 117.123 334.625 117.123C335.457 117.123 336.315 117.409 337.03 117.877L336.562 118.631C335.886 118.202 335.223 117.994 334.625 117.994C333.871 117.994 333.247 118.332 333.247 118.982C333.247 119.567 333.741 119.749 334.989 120.152C336.068 120.49 337.186 120.854 337.186 122.128C337.186 123.363 336.12 124.156 334.729 124.156ZM339.745 124.156C339.342 124.156 339.03 123.831 339.03 123.441C339.03 123.077 339.342 122.752 339.745 122.752C340.122 122.752 340.434 123.077 340.434 123.441C340.434 123.831 340.122 124.156 339.745 124.156Z" fill="#E3EAED"/>
<path d="M273.2 162L272.552 160.44H268.616L267.968 162H266.3L269.744 153.756H271.412L274.856 162H273.2ZM269.132 159.216H272.036L270.584 155.748L269.132 159.216ZM281.072 162.144C278.732 162.144 276.752 160.188 276.752 157.872C276.752 155.556 278.732 153.612 281.072 153.612C282.284 153.612 283.4 154.128 284.192 154.944L283.124 155.94C282.608 155.352 281.876 154.98 281.072 154.98C279.56 154.98 278.276 156.3 278.276 157.872C278.276 159.456 279.56 160.776 281.072 160.776C281.876 160.776 282.608 160.404 283.136 159.816L284.192 160.8C283.4 161.628 282.284 162.144 281.072 162.144ZM288.59 162V155.124H285.95V153.756H292.718V155.124H290.09V162H288.59ZM295.218 162V153.756H296.706V162H295.218ZM303.772 162.144C301.432 162.144 299.452 160.188 299.452 157.872C299.452 155.556 301.432 153.612 303.772 153.612C306.124 153.612 308.104 155.556 308.104 157.872C308.104 160.188 306.124 162.144 303.772 162.144ZM303.772 160.776C305.296 160.776 306.568 159.456 306.568 157.872C306.568 156.3 305.296 154.98 303.772 154.98C302.26 154.98 300.976 156.3 300.976 157.872C300.976 159.456 302.26 160.776 303.772 160.776ZM310.847 162V153.756H312.335L316.691 159.552V153.756H318.179V162H316.691L312.335 156.204V162H310.847Z" fill="#2EC0FF"/>
<path d="M352.2 162L351.552 160.44H347.616L346.968 162H345.3L348.744 153.756H350.412L353.856 162H352.2ZM348.132 159.216H351.036L349.584 155.748L348.132 159.216ZM360.072 162.144C357.732 162.144 355.752 160.188 355.752 157.872C355.752 155.556 357.732 153.612 360.072 153.612C361.284 153.612 362.4 154.128 363.192 154.944L362.124 155.94C361.608 155.352 360.876 154.98 360.072 154.98C358.56 154.98 357.276 156.3 357.276 157.872C357.276 159.456 358.56 160.776 360.072 160.776C360.876 160.776 361.608 160.404 362.136 159.816L363.192 160.8C362.4 161.628 361.284 162.144 360.072 162.144ZM367.59 162V155.124H364.95V153.756H371.718V155.124H369.09V162H367.59ZM374.218 162V153.756H375.706V162H374.218ZM382.772 162.144C380.432 162.144 378.452 160.188 378.452 157.872C378.452 155.556 380.432 153.612 382.772 153.612C385.124 153.612 387.104 155.556 387.104 157.872C387.104 160.188 385.124 162.144 382.772 162.144ZM382.772 160.776C384.296 160.776 385.568 159.456 385.568 157.872C385.568 156.3 384.296 154.98 382.772 154.98C381.26 154.98 379.976 156.3 379.976 157.872C379.976 159.456 381.26 160.776 382.772 160.776ZM389.847 162V153.756H391.335L395.691 159.552V153.756H397.179V162H395.691L391.335 156.204V162H389.847Z" fill="#2EC0FF"/>
<path d="M404.627 71L408.311 67.3155C408.462 67.1392 408.452 66.8763 408.288 66.7122C408.124 66.548 407.861 66.5379 407.685 66.6889L404 70.3733L400.316 66.6844C400.141 66.5101 399.859 66.5101 399.685 66.6844C399.51 66.8587 399.51 67.1413 399.685 67.3155L403.374 71L399.685 74.6844C399.558 74.793 399.503 74.9636 399.542 75.1259C399.581 75.2883 399.707 75.4151 399.87 75.4541C400.032 75.4932 400.203 75.4379 400.311 75.3111L404 71.6266L407.685 75.3111C407.861 75.4621 408.124 75.4519 408.288 75.2878C408.452 75.1236 408.462 74.8608 408.311 74.6844L404.627 71Z" fill="#F1F6F8"/>
<path fill-rule="evenodd" clip-rule="evenodd" d="M53 71C53 75.4183 56.5817 79 61 79C63.1217 79 65.1566 78.1571 66.6569 76.6569C68.1571 75.1566 69 73.1217 69 71C69 66.5817 65.4183 63 61 63C56.5817 63 53 66.5817 53 71ZM54 71C54 67.134 57.134 64 61 64C64.866 64 68 67.134 68 71C68 74.866 64.866 78 61 78C57.134 78 54 74.866 54 71ZM62.5 74.5H61.5V69.05H60C59.7239 69.05 59.5 69.2739 59.5 69.55C59.5 69.8261 59.7239 70.05 60 70.05H60.5V74.5H59.5C59.2239 74.5 59 74.7239 59 75C59 75.2761 59.2239 75.5 59.5 75.5H62.5C62.7761 75.5 63 75.2761 63 75C63 74.7239 62.7761 74.5 62.5 74.5ZM61.685 67.225C61.685 67.6116 61.3716 67.925 60.985 67.925C60.5984 67.925 60.285 67.6116 60.285 67.225C60.285 66.8384 60.5984 66.525 60.985 66.525C61.3716 66.525 61.685 66.8384 61.685 67.225Z" fill="#00608A"/>
<path d="M78.237 75V67.551H75.377V66.069H82.709V67.551H79.862V75H78.237ZM84.7806 67.265C84.2736 67.265 83.8706 66.836 83.8706 66.355C83.8706 65.874 84.2736 65.458 84.7806 65.458C85.2746 65.458 85.6776 65.874 85.6776 66.355C85.6776 66.836 85.2746 67.265 84.7806 67.265ZM83.9876 75V68.279H85.5736V75H83.9876ZM90.601 73.557L91.056 74.623C90.679 74.948 90.133 75.156 89.613 75.156C88.508 75.156 87.728 74.35 87.728 73.219V69.592H86.753V68.279H87.728V66.433H89.262V68.279H90.783V69.592H89.262V73.024C89.262 73.479 89.561 73.804 89.938 73.804C90.211 73.804 90.458 73.7 90.601 73.557ZM92.2554 75V65.913H93.8414V75H92.2554ZM98.7128 73.882C99.3888 73.882 100.156 73.596 100.585 73.18L101.495 74.116C100.91 74.74 99.7398 75.156 98.7648 75.156C96.8278 75.156 95.2288 73.687 95.2288 71.62C95.2288 69.592 96.7498 68.123 98.6738 68.123C100.754 68.123 101.976 69.657 101.976 72.101H96.7628C96.9318 73.154 97.6728 73.882 98.7128 73.882ZM98.6868 69.397C97.7248 69.397 96.9838 70.047 96.7758 71.048H100.442C100.299 70.099 99.7008 69.397 98.6868 69.397ZM109.839 75.156C107.85 75.156 106.225 73.57 106.225 71.633C106.225 69.696 107.85 68.123 109.839 68.123C111.815 68.123 113.427 69.696 113.427 71.633C113.427 73.57 111.815 75.156 109.839 75.156ZM109.839 73.804C110.957 73.804 111.88 72.829 111.88 71.633C111.88 70.437 110.957 69.475 109.839 69.475C108.708 69.475 107.785 70.437 107.785 71.633C107.785 72.829 108.708 73.804 109.839 73.804ZM116.642 67.72V68.279H118.163V69.592H116.642V75H115.095V69.592H114.12V68.279H115.095V67.577C115.095 66.446 115.875 65.64 116.993 65.64C117.5 65.64 118.046 65.848 118.423 66.173L117.968 67.187C117.825 67.044 117.578 66.94 117.305 66.94C116.928 66.94 116.642 67.265 116.642 67.72ZM129.676 67.551H124.58V69.709H129.182V71.191H124.58V73.518H129.676V75H122.955V66.069H129.676V67.551ZM133.346 75L130.447 68.279H132.137L134.087 73.167L135.998 68.279H137.675L134.828 75H133.346ZM141.71 73.882C142.386 73.882 143.153 73.596 143.582 73.18L144.492 74.116C143.907 74.74 142.737 75.156 141.762 75.156C139.825 75.156 138.226 73.687 138.226 71.62C138.226 69.592 139.747 68.123 141.671 68.123C143.751 68.123 144.973 69.657 144.973 72.101H139.76C139.929 73.154 140.67 73.882 141.71 73.882ZM141.684 69.397C140.722 69.397 139.981 70.047 139.773 71.048H143.439C143.296 70.099 142.698 69.397 141.684 69.397ZM149.954 68.123C151.436 68.123 152.463 69.189 152.463 70.723V75H150.916V71.035C150.916 70.112 150.344 69.475 149.512 69.475C148.602 69.475 147.874 70.112 147.874 70.931V75H146.288V68.279H147.874V69.189C148.277 68.552 149.057 68.123 149.954 68.123ZM157.345 73.557L157.8 74.623C157.423 74.948 156.877 75.156 156.357 75.156C155.252 75.156 154.472 74.35 154.472 73.219V69.592H153.497V68.279H154.472V66.433H156.006V68.279H157.527V69.592H156.006V73.024C156.006 73.479 156.305 73.804 156.682 73.804C156.955 73.804 157.202 73.7 157.345 73.557Z" fill="white"/>
<path d="M166.82 75V69.33L165.63 70.09L165.21 69.36L167.02 68.13H167.83V75H166.82ZM178.323 68.13H179.333V75H178.323V71.97H174.583V75H173.573V68.13H174.583V71.03H178.323V68.13ZM183.965 75.12C182.475 75.12 181.245 73.9 181.245 72.41C181.245 70.92 182.475 69.71 183.965 69.71C185.455 69.71 186.685 70.92 186.685 72.41C186.685 73.9 185.455 75.12 183.965 75.12ZM183.965 74.26C184.915 74.26 185.695 73.43 185.695 72.41C185.695 71.39 184.915 70.57 183.965 70.57C183.015 70.57 182.235 71.39 182.235 72.41C182.235 73.43 183.015 74.26 183.965 74.26ZM191.856 69.83H192.846V75H191.856V74.26C191.546 74.77 190.916 75.12 190.206 75.12C189.066 75.12 188.276 74.31 188.276 73.12V69.83H189.246V72.95C189.246 73.73 189.736 74.26 190.436 74.26C191.226 74.26 191.856 73.72 191.856 73.04V69.83ZM195.97 70.84C196.29 70.15 196.99 69.71 197.89 69.71V70.57C196.75 70.57 195.97 71.25 195.97 72.25V75H194.98V69.83L195.97 69.83V70.84ZM204.756 69.71C206.146 69.71 206.916 70.59 206.916 71.87V75H205.946V74.3C205.566 74.83 204.866 75.12 204.226 75.12C203.136 75.12 202.316 74.48 202.316 73.47C202.316 72.44 203.246 71.75 204.386 71.75C204.896 71.75 205.446 71.86 205.946 72.03V71.87C205.946 71.22 205.646 70.53 204.616 70.53C204.106 70.53 203.616 70.73 203.166 70.96L202.796 70.23C203.536 69.86 204.186 69.71 204.756 69.71ZM204.426 74.34C205.066 74.34 205.776 74.02 205.946 73.38V72.69C205.516 72.56 205.046 72.49 204.536 72.49C203.846 72.49 203.266 72.88 203.266 73.44C203.266 74 203.766 74.34 204.426 74.34ZM212.691 69.83H213.681V74.45C213.681 75.78 212.591 76.72 211.061 76.72C210.191 76.72 209.391 76.43 208.901 76.03L209.291 75.29C209.671 75.65 210.291 75.86 210.921 75.86C212.021 75.86 212.691 75.33 212.691 74.43V73.68C212.281 74.27 211.641 74.62 210.871 74.62C209.501 74.62 208.511 73.6 208.511 72.16C208.511 70.72 209.501 69.71 210.871 69.71C211.641 69.71 212.301 70.07 212.691 70.65V69.83ZM211.111 73.76C212.041 73.76 212.691 73.1 212.691 72.16C212.691 71.23 212.041 70.57 211.111 70.57C210.201 70.57 209.541 71.23 209.541 72.16C209.541 73.1 210.201 73.76 211.111 73.76ZM218.098 75.12C216.608 75.12 215.378 73.9 215.378 72.41C215.378 70.92 216.608 69.71 218.098 69.71C219.588 69.71 220.818 70.92 220.818 72.41C220.818 73.9 219.588 75.12 218.098 75.12ZM218.098 74.26C219.048 74.26 219.828 73.43 219.828 72.41C219.828 71.39 219.048 70.57 218.098 70.57C217.148 70.57 216.368 71.39 216.368 72.41C216.368 73.43 217.148 74.26 218.098 74.26Z" fill="#ACB8BE"/>
<line x1="23" y1="91.5" x2="42" y2="91.5" stroke="#D23292"/>
<line x1="32.5" y1="92" x2="32.5" y2="228" stroke="#D23292"/>
<line x1="73" y1="57.5" x2="54" y2="57.5" stroke="#D23292"/>
<line x1="63.5" y1="57" x2="63.5" y2="20" stroke="#D23292"/>
<line x1="413" y1="57.5" x2="394" y2="57.5" stroke="#D23292"/>
<line x1="403.5" y1="57" x2="403.5" y2="20" stroke="#D23292"/>
<line x1="158" y1="57.5" x2="81" y2="57.5" stroke="#D23292"/>
<line x1="134.5" y1="57" x2="134.5" y2="20" stroke="#D23292"/>
<line x1="222" y1="57.5" x2="169" y2="57.5" stroke="#D23292"/>
<line x1="196.395" y1="57" x2="196.395" y2="20" stroke="#D23292"/>
<path d="M21.417 244L21.417 235.069H22.431L22.431 244H21.417ZM27.7637 244.156C25.8787 244.156 24.2797 242.544 24.2797 240.633C24.2797 238.722 25.8787 237.123 27.7637 237.123C28.6737 237.123 29.5187 237.5 30.1557 238.111L29.4797 238.774C29.0377 238.293 28.4267 237.994 27.7637 237.994C26.4247 237.994 25.3067 239.203 25.3067 240.633C25.3067 242.076 26.4247 243.285 27.7637 243.285C28.4397 243.285 29.0637 242.973 29.5187 242.466L30.1947 243.129C29.5577 243.766 28.6997 244.156 27.7637 244.156ZM34.4049 244.156C32.4939 244.156 30.9339 242.57 30.9339 240.633C30.9339 238.696 32.4939 237.123 34.4049 237.123C36.3029 237.123 37.8629 238.696 37.8629 240.633C37.8629 242.57 36.3029 244.156 34.4049 244.156ZM34.4049 243.285C35.7439 243.285 36.8489 242.089 36.8489 240.633C36.8489 239.177 35.7439 237.994 34.4049 237.994C33.0529 237.994 31.9479 239.177 31.9479 240.633C31.9479 242.089 33.0529 243.285 34.4049 243.285ZM42.6273 237.123C44.1223 237.123 45.1493 238.176 45.1493 239.723V244H44.1743V239.853C44.1743 238.748 43.4853 237.994 42.4973 237.994C41.3533 237.994 40.4173 238.774 40.4173 239.723V244H39.4423V237.279H40.4173V238.345C40.8073 237.63 41.6653 237.123 42.6273 237.123Z" fill="white"/>
<path d="M44.203 14L43.306 11.972L38.327 11.972L37.43 14H36.325L40.264 5.069H41.369L45.308 14H44.203ZM38.743 11.01L42.89 11.01L40.823 6.317L38.743 11.01ZM50.0857 7.123C51.8537 7.123 53.1797 8.579 53.1797 10.633C53.1797 12.7 51.8537 14.156 50.0857 14.156C49.0067 14.156 48.1487 13.623 47.6417 12.739V16.236H46.6667V7.279H47.6417V8.54C48.1487 7.656 49.0067 7.123 50.0857 7.123ZM49.9037 13.285C51.2167 13.285 52.1527 12.18 52.1527 10.633C52.1527 9.086 51.2167 7.994 49.9037 7.994C48.5777 7.994 47.6417 9.086 47.6417 10.633C47.6417 12.18 48.5777 13.285 49.9037 13.285ZM58.2377 7.123C60.0057 7.123 61.3317 8.579 61.3317 10.633C61.3317 12.7 60.0057 14.156 58.2377 14.156C57.1587 14.156 56.3007 13.623 55.7937 12.739V16.236H54.8187V7.279H55.7937V8.54C56.3007 7.656 57.1587 7.123 58.2377 7.123ZM58.0557 13.285C59.3687 13.285 60.3047 12.18 60.3047 10.633C60.3047 9.086 59.3687 7.994 58.0557 7.994C56.7297 7.994 55.7937 9.086 55.7937 10.633C55.7937 12.18 56.7297 13.285 58.0557 13.285ZM66.7367 14V5.069L67.7507 5.069V14H66.7367ZM73.0834 14.156C71.1984 14.156 69.5994 12.544 69.5994 10.633C69.5994 8.722 71.1984 7.123 73.0834 7.123C73.9934 7.123 74.8384 7.5 75.4754 8.111L74.7994 8.774C74.3574 8.293 73.7464 7.994 73.0834 7.994C71.7444 7.994 70.6264 9.203 70.6264 10.633C70.6264 12.076 71.7444 13.285 73.0834 13.285C73.7594 13.285 74.3834 12.973 74.8384 12.466L75.5144 13.129C74.8774 13.766 74.0194 14.156 73.0834 14.156ZM79.7246 14.156C77.8136 14.156 76.2536 12.57 76.2536 10.633C76.2536 8.696 77.8136 7.123 79.7246 7.123C81.6226 7.123 83.1826 8.696 83.1826 10.633C83.1826 12.57 81.6226 14.156 79.7246 14.156ZM79.7246 13.285C81.0636 13.285 82.1686 12.089 82.1686 10.633C82.1686 9.177 81.0636 7.994 79.7246 7.994C78.3726 7.994 77.2676 9.177 77.2676 10.633C77.2676 12.089 78.3726 13.285 79.7246 13.285ZM87.9471 7.123C89.4421 7.123 90.4691 8.176 90.4691 9.723V14H89.4941V9.853C89.4941 8.748 88.8051 7.994 87.8171 7.994C86.6731 7.994 85.7371 8.774 85.7371 9.723V14H84.7621V7.279L85.7371 7.279V8.345C86.1271 7.63 86.9851 7.123 87.9471 7.123Z" fill="white"/>
<path d="M125.328 14V6.031L122.325 6.031V5.069L129.345 5.069V6.031L126.342 6.031V14L125.328 14ZM131.193 6.057C130.829 6.057 130.543 5.758 130.543 5.407C130.543 5.069 130.829 4.77 131.193 4.77C131.544 4.77 131.83 5.069 131.83 5.407C131.83 5.758 131.544 6.057 131.193 6.057ZM130.699 14V7.279L131.674 7.279V14H130.699ZM136.436 13.012L136.917 13.727C136.566 14 136.124 14.156 135.669 14.156C134.707 14.156 134.031 13.441 134.031 12.44V8.15H132.978V7.279H134.031V5.433L135.006 5.433V7.279H136.657V8.15H135.006V12.44C135.006 12.934 135.344 13.285 135.734 13.285C136.033 13.285 136.293 13.168 136.436 13.012ZM138.218 14V4.913L139.193 4.913V14H138.218ZM144.189 13.285C144.982 13.285 145.892 12.934 146.308 12.479L146.906 13.116C146.321 13.753 145.138 14.156 144.202 14.156C142.408 14.156 140.796 12.687 140.796 10.62C140.796 8.618 142.304 7.123 144.111 7.123C146.139 7.123 147.296 8.657 147.296 11.01H141.797C141.94 12.323 142.863 13.285 144.189 13.285ZM144.15 7.994C142.954 7.994 141.992 8.839 141.81 10.139H146.334C146.204 8.93 145.489 7.994 144.15 7.994Z" fill="white"/>
<path d="M184.328 14V6.031L181.325 6.031V5.069L188.345 5.069V6.031L185.342 6.031V14L184.328 14ZM190.193 6.057C189.829 6.057 189.543 5.758 189.543 5.407C189.543 5.069 189.829 4.77 190.193 4.77C190.544 4.77 190.83 5.069 190.83 5.407C190.83 5.758 190.544 6.057 190.193 6.057ZM189.699 14V7.279L190.674 7.279V14H189.699ZM200.103 7.123C201.507 7.123 202.495 8.202 202.495 9.723V14H201.52V9.853C201.52 8.761 200.883 7.994 199.973 7.994C198.907 7.994 198.153 8.709 198.153 9.723V14H197.178V9.853C197.178 8.761 196.541 7.994 195.631 7.994C194.565 7.994 193.811 8.709 193.811 9.723V14H192.836V7.279L193.811 7.279V8.267C194.149 7.565 194.877 7.123 195.761 7.123C196.827 7.123 197.659 7.747 197.997 8.722C198.205 7.773 199.037 7.123 200.103 7.123ZM207.339 13.285C208.132 13.285 209.042 12.934 209.458 12.479L210.056 13.116C209.471 13.753 208.288 14.156 207.352 14.156C205.558 14.156 203.946 12.687 203.946 10.62C203.946 8.618 205.454 7.123 207.261 7.123C209.289 7.123 210.446 8.657 210.446 11.01L204.947 11.01C205.09 12.323 206.013 13.285 207.339 13.285ZM207.3 7.994C206.104 7.994 205.142 8.839 204.96 10.139L209.484 10.139C209.354 8.93 208.639 7.994 207.3 7.994Z" fill="white"/>
<path d="M381.417 14V5.069L384.433 5.069C387.267 5.069 389.269 6.915 389.269 9.528C389.269 12.141 387.267 14 384.433 14L381.417 14ZM382.431 13.077L384.433 13.077C386.669 13.077 388.242 11.608 388.242 9.528C388.242 7.461 386.669 5.992 384.433 5.992H382.431V13.077ZM391.516 6.057C391.152 6.057 390.866 5.758 390.866 5.407C390.866 5.069 391.152 4.77 391.516 4.77C391.867 4.77 392.153 5.069 392.153 5.407C392.153 5.758 391.867 6.057 391.516 6.057ZM391.022 14V7.279H391.997V14H391.022ZM396.24 14.156C395.304 14.156 394.264 13.805 393.458 13.155L393.965 12.44C394.732 12.999 395.499 13.285 396.24 13.285C397.124 13.285 397.722 12.869 397.722 12.232C397.722 11.504 396.942 11.27 396.032 11.01C394.407 10.542 393.783 10.061 393.783 9.099C393.783 7.877 394.797 7.123 396.136 7.123C396.968 7.123 397.826 7.409 398.541 7.877L398.073 8.631C397.397 8.202 396.734 7.994 396.136 7.994C395.382 7.994 394.758 8.332 394.758 8.982C394.758 9.567 395.252 9.749 396.5 10.152C397.579 10.49 398.697 10.854 398.697 12.128C398.697 13.363 397.631 14.156 396.24 14.156ZM407.535 7.123C408.939 7.123 409.927 8.202 409.927 9.723V14H408.952V9.853C408.952 8.761 408.315 7.994 407.405 7.994C406.339 7.994 405.585 8.709 405.585 9.723V14L404.61 14V9.853C404.61 8.761 403.973 7.994 403.063 7.994C401.997 7.994 401.243 8.709 401.243 9.723V14H400.268V7.279H401.243V8.267C401.581 7.565 402.309 7.123 403.193 7.123C404.259 7.123 405.091 7.747 405.429 8.722C405.637 7.773 406.469 7.123 407.535 7.123ZM412.43 6.057C412.066 6.057 411.78 5.758 411.78 5.407C411.78 5.069 412.066 4.77 412.43 4.77C412.781 4.77 413.067 5.069 413.067 5.407C413.067 5.758 412.781 6.057 412.43 6.057ZM411.936 14V7.279H412.911V14L411.936 14ZM417.153 14.156C416.217 14.156 415.177 13.805 414.371 13.155L414.878 12.44C415.645 12.999 416.412 13.285 417.153 13.285C418.037 13.285 418.635 12.869 418.635 12.232C418.635 11.504 417.855 11.27 416.945 11.01C415.32 10.542 414.696 10.061 414.696 9.099C414.696 7.877 415.71 7.123 417.049 7.123C417.881 7.123 418.739 7.409 419.454 7.877L418.986 8.631C418.31 8.202 417.647 7.994 417.049 7.994C416.295 7.994 415.671 8.332 415.671 8.982C415.671 9.567 416.165 9.749 417.413 10.152C418.492 10.49 419.61 10.854 419.61 12.128C419.61 13.363 418.544 14.156 417.153 14.156ZM423.261 14.156C422.325 14.156 421.285 13.805 420.479 13.155L420.986 12.44C421.753 12.999 422.52 13.285 423.261 13.285C424.145 13.285 424.743 12.869 424.743 12.232C424.743 11.504 423.963 11.27 423.053 11.01C421.428 10.542 420.804 10.061 420.804 9.099C420.804 7.877 421.818 7.123 423.157 7.123C423.989 7.123 424.847 7.409 425.562 7.877L425.094 8.631C424.418 8.202 423.755 7.994 423.157 7.994C422.403 7.994 421.779 8.332 421.779 8.982C421.779 9.567 422.273 9.749 423.521 10.152C424.6 10.49 425.718 10.854 425.718 12.128C425.718 13.363 424.652 14.156 423.261 14.156Z" fill="white"/>
<line x1="55" y1="132.5" x2="304" y2="132.5" stroke="#D23292"/>
<line x1="180.378" y1="133" x2="180.378" y2="228" stroke="#D23292"/>
<line x1="268" y1="169.5" x2="398" y2="169.5" stroke="#D23292"/>
<line x1="333.698" y1="170" x2="333.698" y2="228" stroke="#D23292"/>
<path d="M148.417 244V235.069H151.433C154.267 235.069 156.269 236.915 156.269 239.528C156.269 242.141 154.267 244 151.433 244H148.417ZM149.431 243.077H151.433C153.669 243.077 155.242 241.608 155.242 239.528C155.242 237.461 153.669 235.992 151.433 235.992H149.431V243.077ZM160.856 243.285C161.649 243.285 162.559 242.934 162.975 242.479L163.573 243.116C162.988 243.753 161.805 244.156 160.869 244.156C159.075 244.156 157.463 242.687 157.463 240.62C157.463 238.618 158.971 237.123 160.778 237.123C162.806 237.123 163.963 238.657 163.963 241.01H158.464C158.607 242.323 159.53 243.285 160.856 243.285ZM160.817 237.994C159.621 237.994 158.659 238.839 158.477 240.139H163.001C162.871 238.93 162.156 237.994 160.817 237.994ZM167.581 244.156C166.645 244.156 165.605 243.805 164.799 243.155L165.306 242.44C166.073 242.999 166.84 243.285 167.581 243.285C168.465 243.285 169.063 242.869 169.063 242.232C169.063 241.504 168.283 241.27 167.373 241.01C165.748 240.542 165.124 240.061 165.124 239.099C165.124 237.877 166.138 237.123 167.477 237.123C168.309 237.123 169.167 237.409 169.882 237.877L169.414 238.631C168.738 238.202 168.075 237.994 167.477 237.994C166.723 237.994 166.099 238.332 166.099 238.982C166.099 239.567 166.593 239.749 167.841 240.152C168.92 240.49 170.038 240.854 170.038 242.128C170.038 243.363 168.972 244.156 167.581 244.156ZM174.495 244.156C172.61 244.156 171.011 242.544 171.011 240.633C171.011 238.722 172.61 237.123 174.495 237.123C175.405 237.123 176.25 237.5 176.887 238.111L176.211 238.774C175.769 238.293 175.158 237.994 174.495 237.994C173.156 237.994 172.038 239.203 172.038 240.633C172.038 242.076 173.156 243.285 174.495 243.285C175.171 243.285 175.795 242.973 176.25 242.466L176.926 243.129C176.289 243.766 175.431 244.156 174.495 244.156ZM179.226 238.592C179.629 237.695 180.591 237.123 181.826 237.123V237.994C180.305 237.994 179.226 238.93 179.226 240.243V244H178.251V237.279H179.226V238.592ZM183.799 236.057C183.435 236.057 183.149 235.758 183.149 235.407C183.149 235.069 183.435 234.77 183.799 234.77C184.15 234.77 184.436 235.069 184.436 235.407C184.436 235.758 184.15 236.057 183.799 236.057ZM183.305 244V237.279H184.28V244H183.305ZM189.861 237.123C191.629 237.123 192.955 238.579 192.955 240.633C192.955 242.7 191.629 244.156 189.861 244.156C188.782 244.156 187.924 243.623 187.417 242.739V246.236H186.442V237.279H187.417V238.54C187.924 237.656 188.782 237.123 189.861 237.123ZM189.679 243.285C190.992 243.285 191.928 242.18 191.928 240.633C191.928 239.086 190.992 237.994 189.679 237.994C188.353 237.994 187.417 239.086 187.417 240.633C187.417 242.18 188.353 243.285 189.679 243.285ZM197.194 243.012L197.675 243.727C197.324 244 196.882 244.156 196.427 244.156C195.465 244.156 194.789 243.441 194.789 242.44V238.15H193.736V237.279H194.789V235.433H195.764V237.279H197.415V238.15H195.764V242.44C195.764 242.934 196.102 243.285 196.492 243.285C196.791 243.285 197.051 243.168 197.194 243.012ZM199.47 236.057C199.106 236.057 198.82 235.758 198.82 235.407C198.82 235.069 199.106 234.77 199.47 234.77C199.821 234.77 200.107 235.069 200.107 235.407C200.107 235.758 199.821 236.057 199.47 236.057ZM198.976 244V237.279H199.951V244H198.976ZM204.999 244.156C203.088 244.156 201.528 242.57 201.528 240.633C201.528 238.696 203.088 237.123 204.999 237.123C206.897 237.123 208.457 238.696 208.457 240.633C208.457 242.57 206.897 244.156 204.999 244.156ZM204.999 243.285C206.338 243.285 207.443 242.089 207.443 240.633C207.443 239.177 206.338 237.994 204.999 237.994C203.647 237.994 202.542 239.177 202.542 240.633C202.542 242.089 203.647 243.285 204.999 243.285ZM213.221 237.123C214.716 237.123 215.743 238.176 215.743 239.723V244H214.768V239.853C214.768 238.748 214.079 237.994 213.091 237.994C211.947 237.994 211.011 238.774 211.011 239.723V244H210.036V237.279H211.011V238.345C211.401 237.63 212.259 237.123 213.221 237.123Z" fill="white"/>
<path d="M319.203 244L318.306 241.972H313.327L312.43 244H311.325L315.264 235.069H316.369L320.308 244H319.203ZM313.743 241.01H317.89L315.823 236.317L313.743 241.01ZM324.553 244.156C322.668 244.156 321.069 242.544 321.069 240.633C321.069 238.722 322.668 237.123 324.553 237.123C325.463 237.123 326.308 237.5 326.945 238.111L326.269 238.774C325.827 238.293 325.216 237.994 324.553 237.994C323.214 237.994 322.096 239.203 322.096 240.633C322.096 242.076 323.214 243.285 324.553 243.285C325.229 243.285 325.853 242.973 326.308 242.466L326.984 243.129C326.347 243.766 325.489 244.156 324.553 244.156ZM330.908 243.012L331.389 243.727C331.038 244 330.596 244.156 330.141 244.156C329.179 244.156 328.503 243.441 328.503 242.44V238.15H327.45V237.279H328.503V235.433H329.478V237.279H331.129V238.15H329.478V242.44C329.478 242.934 329.816 243.285 330.206 243.285C330.505 243.285 330.765 243.168 330.908 243.012ZM333.183 236.057C332.819 236.057 332.533 235.758 332.533 235.407C332.533 235.069 332.819 234.77 333.183 234.77C333.534 234.77 333.82 235.069 333.82 235.407C333.82 235.758 333.534 236.057 333.183 236.057ZM332.689 244V237.279H333.664V244H332.689ZM338.713 244.156C336.802 244.156 335.242 242.57 335.242 240.633C335.242 238.696 336.802 237.123 338.713 237.123C340.611 237.123 342.171 238.696 342.171 240.633C342.171 242.57 340.611 244.156 338.713 244.156ZM338.713 243.285C340.052 243.285 341.157 242.089 341.157 240.633C341.157 239.177 340.052 237.994 338.713 237.994C337.361 237.994 336.256 239.177 336.256 240.633C336.256 242.089 337.361 243.285 338.713 243.285ZM346.935 237.123C348.43 237.123 349.457 238.176 349.457 239.723V244H348.482V239.853C348.482 238.748 347.793 237.994 346.805 237.994C345.661 237.994 344.725 238.774 344.725 239.723V244H343.75V237.279H344.725V238.345C345.115 237.63 345.973 237.123 346.935 237.123ZM353.538 244.156C352.602 244.156 351.562 243.805 350.756 243.155L351.263 242.44C352.03 242.999 352.797 243.285 353.538 243.285C354.422 243.285 355.02 242.869 355.02 242.232C355.02 241.504 354.24 241.27 353.33 241.01C351.705 240.542 351.081 240.061 351.081 239.099C351.081 237.877 352.095 237.123 353.434 237.123C354.266 237.123 355.124 237.409 355.839 237.877L355.371 238.631C354.695 238.202 354.032 237.994 353.434 237.994C352.68 237.994 352.056 238.332 352.056 238.982C352.056 239.567 352.55 239.749 353.798 240.152C354.877 240.49 355.995 240.854 355.995 242.128C355.995 243.363 354.929 244.156 353.538 244.156Z" fill="white"/>
<defs>
<filter id="filter0_d_10439_5309" x="0" y="44" width="432" height="147" filterUnits="userSpaceOnUse" color-interpolation-filters="sRGB">
<feFlood flood-opacity="0" result="BackgroundImageFix"/>
<feColorMatrix in="SourceAlpha" type="matrix" values="0 0 0 0 0 0 0 0 0 0 0 0 0 0 0 0 0 0 127 0" result="hardAlpha"/>
<feOffset dy="4"/>
<feGaussianBlur stdDeviation="2"/>
<feComposite in2="hardAlpha" operator="out"/>
<feColorMatrix type="matrix" values="0 0 0 0 0.105 0 0 0 0 0.168 0 0 0 0 0.195 0 0 0 0.25 0"/>
<feBlend mode="normal" in2="BackgroundImageFix" result="effect1_dropShadow_10439_5309"/>
<feBlend mode="normal" in="SourceGraphic" in2="effect1_dropShadow_10439_5309" result="shape"/>
</filter>
</defs>
</svg>
