<svg width="176" height="114" viewBox="0 0 176 114" fill="none" xmlns="http://www.w3.org/2000/svg">
<rect x="0.5" y="0.5" width="175" height="113" fill="#1B2B32"/>
<rect x="0.5" y="0.5" width="175" height="113" stroke="#4F6169"/>
<rect x="1" y="1" width="174" height="9" fill="black"/>
<rect opacity="0.5" x="169" y="3" width="4" height="4" fill="white"/>
<rect opacity="0.5" x="148" y="3" width="18.2215" height="1" fill="white"/>
<rect opacity="0.5" x="148" y="6" width="18.2215" height="1" fill="white"/>
<rect opacity="0.5" x="11.0566" y="4.96924" width="18.2215" height="1" fill="white"/>
<circle opacity="0.5" cx="143.101" cy="4.98096" r="2.5" fill="white"/>
<rect opacity="0.3" x="3.05273" y="3.03955" width="5" height="5" rx="0.65077" fill="white"/>
<rect opacity="0.3" x="15" y="18" width="59.8708" height="1.82215" rx="0.911077" fill="#ACB8BE"/>
<path d="M15.3925 36.3876C15.3925 36.136 15.5964 35.932 15.848 35.932H160.319C160.57 35.932 160.774 36.136 160.774 36.3876V42.0493H15.3925V36.3876Z" fill="#2D4048" stroke="#4F6169" stroke-width="0.390462"/>
<rect x="46.8682" y="36.8291" width="0.390462" height="3.90462" fill="#4F6169"/>
<rect x="88.3682" y="36.8291" width="0.390462" height="3.90462" fill="#4F6169"/>
<rect x="122.223" y="36.8291" width="0.390462" height="3.90462" fill="#4F6169"/>
<rect width="146" height="9" transform="translate(15.1973 42.2446)" fill="#22343C"/>
<mask id="path-14-inside-1_11284_9436" fill="white">
<path d="M15.1973 42.2446H161.197V51.2446H15.1973V42.2446Z"/>
</mask>
<path d="M161.197 51.2446V51.635H161.588V51.2446H161.197ZM15.1973 51.2446H14.8069V51.635H15.1973V51.2446ZM160.807 42.2446V51.2446H161.588V42.2446H160.807ZM161.197 50.8542H15.1973V51.635H161.197V50.8542ZM15.5877 51.2446V42.2446H14.8069V51.2446H15.5877Z" fill="#4F6169" mask="url(#path-14-inside-1_11284_9436)"/>
<rect opacity="0.4" x="19.2988" y="45.8418" width="14.3151" height="1.30137" fill="#ACB8BE"/>
<rect opacity="0.4" x="53.1338" y="45.8418" width="22.1233" height="1.30137" fill="#ACB8BE"/>
<rect opacity="0.4" x="92.1758" y="45.8418" width="24.726" height="1.30137" fill="#ACB8BE"/>
<rect opacity="0.4" x="124.71" y="45.8418" width="27.3288" height="1.30137" fill="#ACB8BE"/>
<rect width="146" height="9" transform="translate(15.1973 51.25)" fill="#22343C"/>
<mask id="path-20-inside-2_11284_9436" fill="white">
<path d="M15.1973 51.25H161.197V60.25H15.1973V51.25Z"/>
</mask>
<path d="M161.197 60.25V60.6404H161.588V60.25H161.197ZM15.1973 60.25H14.8069V60.6404H15.1973V60.25ZM160.807 51.25V60.25H161.588V51.25H160.807ZM161.197 59.8596H15.1973V60.6404H161.197V59.8596ZM15.5877 60.25V51.25H14.8069V60.25H15.5877Z" fill="#4F6169" mask="url(#path-20-inside-2_11284_9436)"/>
<rect opacity="0.4" x="19.2988" y="54.8472" width="14.3151" height="1.30137" fill="#ACB8BE"/>
<rect opacity="0.4" x="53.1338" y="54.8472" width="22.1233" height="1.30137" fill="#ACB8BE"/>
<rect opacity="0.4" x="92.1758" y="54.8472" width="24.726" height="1.30137" fill="#ACB8BE"/>
<rect opacity="0.4" x="124.71" y="54.8472" width="27.3288" height="1.30137" fill="#ACB8BE"/>
<rect width="146" height="9" transform="translate(15.1973 69.25)" fill="#22343C"/>
<mask id="path-26-inside-3_11284_9436" fill="white">
<path d="M15.1973 69.25H161.197V78.25H15.1973V69.25Z"/>
</mask>
<path d="M161.197 78.25V78.6404H161.588V78.25H161.197ZM15.1973 78.25H14.8069V78.6404H15.1973V78.25ZM160.807 69.25V78.25H161.588V69.25H160.807ZM161.197 77.8596H15.1973V78.6404H161.197V77.8596ZM15.5877 78.25V69.25H14.8069V78.25H15.5877Z" fill="#4F6169" mask="url(#path-26-inside-3_11284_9436)"/>
<rect opacity="0.4" x="19.2988" y="72.8472" width="14.3151" height="1.30137" fill="#ACB8BE"/>
<rect opacity="0.4" x="53.1338" y="72.8472" width="22.1233" height="1.30137" fill="#ACB8BE"/>
<rect opacity="0.4" x="92.1758" y="72.8472" width="24.726" height="1.30137" fill="#ACB8BE"/>
<rect opacity="0.4" x="124.71" y="72.8472" width="27.3288" height="1.30137" fill="#ACB8BE"/>
<rect width="146" height="9" transform="translate(15.1973 87)" fill="#22343C"/>
<mask id="path-32-inside-4_11284_9436" fill="white">
<path d="M15.1973 87H161.197V96H15.1973V87Z"/>
</mask>
<path d="M161.197 96V96.3904H161.588V96H161.197ZM15.1973 96H14.8069V96.3904H15.1973V96ZM160.807 87V96H161.588V87H160.807ZM161.197 95.6096H15.1973V96.3904H161.197V95.6096ZM15.5877 96V87H14.8069V96H15.5877Z" fill="#4F6169" mask="url(#path-32-inside-4_11284_9436)"/>
<rect opacity="0.4" x="19.2988" y="90.5972" width="14.3151" height="1.30137" fill="#ACB8BE"/>
<rect opacity="0.4" x="53.1338" y="90.5972" width="22.1233" height="1.30137" fill="#ACB8BE"/>
<rect opacity="0.4" x="92.1758" y="90.5972" width="24.726" height="1.30137" fill="#ACB8BE"/>
<rect opacity="0.4" x="124.71" y="90.5972" width="27.3288" height="1.30137" fill="#ACB8BE"/>
<rect width="146" height="9" transform="translate(15.1973 78.25)" fill="#22343C"/>
<mask id="path-38-inside-5_11284_9436" fill="white">
<path d="M15.1973 78.25H161.197V87.25H15.1973V78.25Z"/>
</mask>
<path d="M161.197 87.25V87.6404H161.588V87.25H161.197ZM15.1973 87.25H14.8069V87.6404H15.1973V87.25ZM160.807 78.25V87.25H161.588V78.25H160.807ZM161.197 86.8596H15.1973V87.6404H161.197V86.8596ZM15.5877 87.25V78.25H14.8069V87.25H15.5877Z" fill="#4F6169" mask="url(#path-38-inside-5_11284_9436)"/>
<rect opacity="0.4" x="19.2988" y="81.8472" width="14.3151" height="1.30137" fill="#ACB8BE"/>
<rect opacity="0.4" x="53.1338" y="81.8472" width="22.1233" height="1.30137" fill="#ACB8BE"/>
<rect opacity="0.4" x="92.1758" y="81.8472" width="24.726" height="1.30137" fill="#ACB8BE"/>
<rect opacity="0.4" x="124.71" y="81.8472" width="27.3288" height="1.30137" fill="#ACB8BE"/>
<rect width="146" height="9" transform="translate(15.1973 60.25)" fill="#22343C"/>
<mask id="path-44-inside-6_11284_9436" fill="white">
<path d="M15.1973 60.25H161.197V69.25H15.1973V60.25Z"/>
</mask>
<path d="M161.197 69.25V69.6404H161.588V69.25H161.197ZM15.1973 69.25H14.8069V69.6404H15.1973V69.25ZM160.807 60.25V69.25H161.588V60.25H160.807ZM161.197 68.8596H15.1973V69.6404H161.197V68.8596ZM15.5877 69.25V60.25H14.8069V69.25H15.5877Z" fill="#4F6169" mask="url(#path-44-inside-6_11284_9436)"/>
<rect opacity="0.4" x="19.2988" y="63.8472" width="14.3151" height="1.30137" fill="#ACB8BE"/>
<rect opacity="0.4" x="53.1338" y="63.8472" width="22.1233" height="1.30137" fill="#ACB8BE"/>
<rect opacity="0.4" x="92.1758" y="63.8472" width="24.726" height="1.30137" fill="#ACB8BE"/>
<rect opacity="0.4" x="124.71" y="63.8472" width="27.3288" height="1.30137" fill="#ACB8BE"/>
<rect x="15.1973" y="27" width="145.772" height="7.80924" rx="0.5" fill="#0079AD"/>
<rect opacity="0.5" x="23.9336" y="30.3687" width="39.0462" height="1" fill="white"/>
<path opacity="0.5" fill-rule="evenodd" clip-rule="evenodd" d="M16.9209 30.8943C16.9209 29.6963 17.8921 28.7251 19.0901 28.7251C19.6654 28.7251 20.2172 28.9536 20.624 29.3605C21.0308 29.7673 21.2594 30.319 21.2594 30.8943C21.2594 32.0924 20.2882 33.0636 19.0901 33.0636C17.8921 33.0636 16.9209 32.0924 16.9209 30.8943ZM19.3297 29.7912C19.3297 29.931 19.2164 30.0443 19.0766 30.0443C18.9368 30.0443 18.8235 29.931 18.8235 29.7912C18.8235 29.6514 18.9368 29.5381 19.0766 29.5381C19.2164 29.5381 19.3297 29.6514 19.3297 29.7912ZM19.0907 32.7016C18.0923 32.7016 17.283 31.8923 17.283 30.8939C17.283 29.8956 18.0923 29.0863 19.0907 29.0863C20.0891 29.0863 20.8984 29.8956 20.8984 30.8939C20.8984 31.3734 20.7079 31.8332 20.3689 32.1722C20.0299 32.5112 19.5701 32.7016 19.0907 32.7016ZM19.2717 31.7984H19.6332C19.7331 31.7984 19.814 31.8793 19.814 31.9791C19.814 32.079 19.7331 32.1599 19.6332 32.1599H18.5486C18.4488 32.1599 18.3678 32.079 18.3678 31.9791C18.3678 31.8793 18.4488 31.7984 18.5486 31.7984H18.9101V30.7137H18.7294C18.6295 30.7137 18.5486 30.6328 18.5486 30.533C18.5486 30.4331 18.6295 30.3522 18.7294 30.3522H19.2717V31.7984Z" fill="white"/>
<path d="M156.806 30.9168L158.005 29.7181C158.054 29.6607 158.05 29.5752 157.997 29.5218C157.944 29.4684 157.858 29.4651 157.801 29.5142L156.602 30.7129L155.403 29.5127C155.347 29.456 155.255 29.456 155.198 29.5127C155.141 29.5694 155.141 29.6614 155.198 29.7181L156.398 30.9168L155.198 32.1155C155.157 32.1508 155.139 32.2063 155.151 32.2591C155.164 32.3119 155.205 32.3532 155.258 32.3659C155.311 32.3786 155.367 32.3606 155.402 32.3194L156.602 31.1207L157.801 32.3194C157.858 32.3685 157.944 32.3652 157.997 32.3118C158.05 32.2584 158.054 32.1728 158.005 32.1155L156.806 30.9168Z" fill="#ACB8BE"/>
<g filter="url(#filter0_d_11284_9436)">
<rect x="121" y="14" width="49" height="21" rx="1" fill="black"/>
<circle cx="125" cy="18" r="2" fill="#2EC0FF"/>
<rect x="129" y="17" width="25" height="1" fill="#ACB9BE"/>
<rect opacity="0.5" x="129" y="22" width="30" height="1" fill="#ACB9BE"/>
<rect opacity="0.5" x="129" y="25" width="19" height="1" fill="#ACB9BE"/>
<rect x="160" y="31" width="6" height="1" fill="#2EC0FF"/>
<rect x="152" y="31" width="6" height="1" fill="#2EC0FF"/>
</g>
<defs>
<filter id="filter0_d_11284_9436" x="120" y="14" width="51" height="23" filterUnits="userSpaceOnUse" color-interpolation-filters="sRGB">
<feFlood flood-opacity="0" result="BackgroundImageFix"/>
<feColorMatrix in="SourceAlpha" type="matrix" values="0 0 0 0 0 0 0 0 0 0 0 0 0 0 0 0 0 0 127 0" result="hardAlpha"/>
<feOffset dy="1"/>
<feGaussianBlur stdDeviation="0.5"/>
<feComposite in2="hardAlpha" operator="out"/>
<feColorMatrix type="matrix" values="0 0 0 0 0 0 0 0 0 0 0 0 0 0 0 0 0 0 0.25 0"/>
<feBlend mode="normal" in2="BackgroundImageFix" result="effect1_dropShadow_11284_9436"/>
<feBlend mode="normal" in="SourceGraphic" in2="effect1_dropShadow_11284_9436" result="shape"/>
</filter>
</defs>
</svg>
