<svg width="452" height="240" viewBox="0 0 452 240" fill="none" xmlns="http://www.w3.org/2000/svg">
<rect x="0.5" y="0.5" width="451" height="239" rx="3.5" fill="#22343C"/>
<rect x="70" y="49" width="313" height="143" rx="4" fill="#22343C"/>
<line x1="120" y1="137.5" x2="334" y2="137.5" stroke="#4F6169"/>
<line x1="120" y1="102.5" x2="334" y2="102.5" stroke="#4F6169"/>
<path d="M140.996 124.132C139.592 124.132 138.38 123.652 137.468 122.8L138.344 121.732C139.1 122.416 139.976 122.848 141.056 122.848C142.064 122.848 142.592 122.344 142.592 121.756C142.592 121.072 142.004 120.844 140.684 120.532C138.98 120.136 137.804 119.644 137.804 118.096C137.804 116.656 139.028 115.612 140.756 115.612C142.064 115.612 143.06 116.056 143.876 116.764L143.06 117.856C142.352 117.244 141.524 116.896 140.708 116.896C139.868 116.896 139.316 117.388 139.316 117.964C139.316 118.636 139.916 118.876 141.224 119.176C142.94 119.56 144.092 120.112 144.092 121.612C144.092 123.088 142.976 124.132 140.996 124.132ZM148.64 124V117.124H146V115.756H152.768V117.124H150.14V124H148.64ZM161.329 124L160.681 122.44H156.745L156.097 124H154.429L157.873 115.756H159.541L162.985 124H161.329ZM157.261 121.216H160.165L158.713 117.748L157.261 121.216ZM165.421 124V115.756H166.909L171.265 121.552V115.756H172.753V124H171.265L166.909 118.204V124H165.421ZM176.031 124V115.756H178.923C181.647 115.756 183.567 117.46 183.567 119.872C183.567 122.284 181.647 124 178.923 124H176.031ZM177.519 122.644H179.079C180.819 122.644 182.043 121.492 182.043 119.872C182.043 118.252 180.819 117.112 179.079 117.112H177.519V122.644ZM192.372 124L191.724 122.44H187.788L187.14 124H185.472L188.916 115.756H190.584L194.028 124H192.372ZM188.304 121.216H191.208L189.756 117.748L188.304 121.216ZM203.136 118.492C203.136 119.824 202.224 120.832 200.904 121.132L202.92 124H201.216L199.272 121.228H197.952V124H196.464V115.756H200.052C201.804 115.756 203.136 116.884 203.136 118.492ZM197.952 117.136V119.848H199.872C200.892 119.848 201.6 119.332 201.6 118.492C201.6 117.652 200.892 117.136 199.872 117.136H197.952ZM205.867 124V115.756H208.759C211.483 115.756 213.403 117.46 213.403 119.872C213.403 122.284 211.483 124 208.759 124H205.867ZM207.355 122.644H208.915C210.655 122.644 211.879 121.492 211.879 119.872C211.879 118.252 210.655 117.112 208.915 117.112H207.355V122.644Z" fill="#2EC0FF"/>
<rect x="125.5" y="102.5" width="102" height="35" rx="3.5" stroke="#2EC0FF"/>
<path d="M256.92 129.132C254.775 129.132 252.96 127.339 252.96 125.216C252.96 123.093 254.775 121.311 256.92 121.311C258.031 121.311 259.054 121.784 259.78 122.532L258.801 123.445C258.328 122.906 257.657 122.565 256.92 122.565C255.534 122.565 254.357 123.775 254.357 125.216C254.357 126.668 255.534 127.878 256.92 127.878C257.657 127.878 258.328 127.537 258.812 126.998L259.78 127.9C259.054 128.659 258.031 129.132 256.92 129.132ZM265.665 129.132C263.52 129.132 261.705 127.339 261.705 125.216C261.705 123.093 263.52 121.311 265.665 121.311C267.821 121.311 269.636 123.093 269.636 125.216C269.636 127.339 267.821 129.132 265.665 129.132ZM265.665 127.878C267.062 127.878 268.228 126.668 268.228 125.216C268.228 123.775 267.062 122.565 265.665 122.565C264.279 122.565 263.102 123.775 263.102 125.216C263.102 126.668 264.279 127.878 265.665 127.878ZM272.234 129V121.443H273.598L276.095 126.052L278.581 121.443H279.956V129H278.581V123.951L276.095 128.56L273.598 123.951V129H272.234ZM283.031 129V121.443H286.32C287.926 121.443 289.147 122.477 289.147 123.951C289.147 125.425 287.926 126.459 286.32 126.459H284.395V129H283.031ZM284.395 125.194H286.155C287.09 125.194 287.739 124.721 287.739 123.951C287.739 123.181 287.09 122.708 286.155 122.708H284.395V125.194ZM297.202 129L296.608 127.57H293L292.406 129H290.877L294.034 121.443H295.563L298.72 129H297.202ZM293.473 126.448H296.135L294.804 123.269L293.473 126.448ZM304.502 129.132C302.357 129.132 300.542 127.339 300.542 125.216C300.542 123.093 302.357 121.311 304.502 121.311C305.613 121.311 306.636 121.784 307.362 122.532L306.383 123.445C305.91 122.906 305.239 122.565 304.502 122.565C303.116 122.565 301.939 123.775 301.939 125.216C301.939 126.668 303.116 127.878 304.502 127.878C305.239 127.878 305.91 127.537 306.394 126.998L307.362 127.9C306.636 128.659 305.613 129.132 304.502 129.132ZM311.476 129V122.697H309.056V121.443H315.26V122.697H312.851V129H311.476Z" fill="#2EC0FF"/>
<rect x="240.5" y="114.5" width="88" height="23" rx="3.5" stroke="#2EC0FF"/>
<line y1="-0.5" x2="12" y2="-0.5" transform="matrix(-1 0 0 1 117 103)" stroke="#EE77BE"/>
<line y1="-0.5" x2="12" y2="-0.5" transform="matrix(-1 0 0 1 117 138)" stroke="#EE77BE"/>
<line x1="111.5" y1="103" x2="111.5" y2="138" stroke="#EE77BE"/>
<path d="M81.708 123.863V122.906C82.4535 123.284 83.0996 123.473 83.6465 123.473C84.1478 123.473 84.5612 123.321 84.8867 123.019C85.2155 122.713 85.3799 122.32 85.3799 121.842C85.3799 121.36 85.1992 120.968 84.8379 120.665C84.4798 120.362 83.8695 120.211 83.0068 120.211H82.5039V119.454H83.2021C83.8369 119.454 84.2959 119.312 84.5791 119.029C84.8623 118.743 85.0039 118.425 85.0039 118.077C85.0039 117.761 84.8883 117.496 84.6572 117.281C84.4261 117.063 84.0713 116.954 83.5928 116.954C83.0557 116.954 82.4779 117.105 81.8594 117.408V116.544C82.4779 116.313 83.0443 116.197 83.5586 116.197C84.4798 116.197 85.1146 116.38 85.4629 116.744C85.8145 117.105 85.9902 117.519 85.9902 117.984C85.9902 118.329 85.8975 118.653 85.7119 118.956C85.5264 119.259 85.1846 119.529 84.6865 119.767C85.126 119.897 85.458 120.056 85.6826 120.245C85.9072 120.434 86.0765 120.657 86.1904 120.914C86.3076 121.171 86.3662 121.459 86.3662 121.778C86.3662 122.488 86.1025 123.074 85.5752 123.536C85.0511 123.998 84.3724 124.229 83.5391 124.229C83.2982 124.229 83.0345 124.212 82.748 124.176C82.4648 124.14 82.1182 124.036 81.708 123.863ZM88.4316 120.445C88.666 120.097 88.9557 119.814 89.3008 119.596C89.6491 119.374 90.0316 119.264 90.4482 119.264C90.8421 119.264 91.2148 119.36 91.5664 119.552C91.9212 119.744 92.1914 120.012 92.377 120.357C92.5625 120.699 92.6553 121.098 92.6553 121.554C92.6553 122.273 92.4242 122.9 91.9619 123.434C91.5029 123.964 90.8975 124.229 90.1455 124.229C89.2601 124.229 88.5977 123.86 88.1582 123.121C87.722 122.379 87.5039 121.437 87.5039 120.294C87.5039 119.031 87.7822 118.033 88.3389 117.301C88.8955 116.565 89.6491 116.197 90.5996 116.197C91.1107 116.197 91.6071 116.272 92.0889 116.422V117.34C91.5485 117.083 91.0391 116.954 90.5605 116.954C89.8835 116.954 89.3594 117.265 88.9883 117.887C88.6172 118.508 88.4316 119.296 88.4316 120.25V120.445ZM90.2139 123.473C90.458 123.473 90.7038 123.401 90.9512 123.258C91.1986 123.111 91.3923 122.888 91.5322 122.589C91.6755 122.286 91.7471 121.957 91.7471 121.603C91.7471 121.14 91.6266 120.761 91.3857 120.465C91.1481 120.169 90.8079 120.021 90.3652 120.021C89.9062 120.021 89.5286 120.193 89.2324 120.538C88.9395 120.88 88.793 121.297 88.793 121.788C88.793 122.283 88.9362 122.688 89.2227 123.004C89.5124 123.316 89.8428 123.473 90.2139 123.473ZM94.6084 119.771C94.8883 119.316 95.222 118.972 95.6094 118.741C95.9967 118.51 96.3532 118.395 96.6787 118.395C97.1344 118.395 97.5446 118.591 97.9092 118.985C98.2738 119.379 98.4561 119.977 98.4561 120.777C98.4561 121.409 98.334 121.974 98.0898 122.472C97.849 122.966 97.5267 123.359 97.123 123.648C96.7194 123.935 96.2197 124.078 95.624 124.078C95.4548 124.078 95.1943 124.06 94.8428 124.024C94.7907 124.018 94.7126 124.01 94.6084 124V126.119H93.7002V118.546H94.6084V119.771ZM94.6084 120.851V123.189C94.9372 123.274 95.2399 123.316 95.5166 123.316C96.0667 123.316 96.529 123.102 96.9033 122.672C97.2809 122.239 97.4697 121.648 97.4697 120.899C97.4697 120.356 97.3672 119.947 97.1621 119.674C96.957 119.4 96.7243 119.264 96.4639 119.264C96.1807 119.264 95.8682 119.407 95.5264 119.693C95.1878 119.98 94.8818 120.366 94.6084 120.851ZM100.341 124H99.291L101.435 121.144L99.4326 118.546H100.595L102.016 120.377L103.397 118.546H104.428L102.533 121.056L104.784 124H103.617L101.957 121.827L100.341 124Z" fill="#EE77BE"/>
<line x1="337" y1="137.5" x2="348" y2="137.5" stroke="#EE77BE"/>
<line x1="337" y1="114.5" x2="348" y2="114.5" stroke="#EE77BE"/>
<line x1="342.5" y1="114" x2="342.5" y2="138" stroke="#EE77BE"/>
<path d="M353.312 128H348.728V127.165C348.728 126.95 348.771 126.721 348.859 126.477C348.947 126.229 349.115 125.952 349.362 125.646C349.61 125.34 349.872 125.046 350.148 124.763L350.666 124.235C350.77 124.128 350.998 123.879 351.35 123.488C351.701 123.098 351.932 122.798 352.043 122.59C352.157 122.382 352.214 122.176 352.214 121.975C352.214 121.649 352.084 121.398 351.823 121.223C351.563 121.044 351.27 120.954 350.944 120.954C350.759 120.954 350.55 120.975 350.319 121.018C350.091 121.06 349.891 121.11 349.719 121.169C349.546 121.224 349.266 121.34 348.879 121.516V120.71C349.289 120.515 349.699 120.381 350.109 120.31C350.523 120.235 350.863 120.197 351.13 120.197C351.524 120.197 351.885 120.262 352.214 120.393C352.546 120.52 352.792 120.718 352.951 120.988C353.114 121.258 353.195 121.547 353.195 121.853C353.195 122.194 353.091 122.544 352.883 122.902C352.678 123.26 352.289 123.721 351.716 124.284L351.159 124.836L350.69 125.295C350.394 125.594 350.155 125.884 349.973 126.164C349.79 126.444 349.689 126.778 349.67 127.165H353.312V128ZM357.458 128V125.881H354.24V125.119L357.458 120.422H358.371V125.119H359.772V125.881H358.371V128H357.458ZM357.458 125.119V121.799L355.207 125.119H357.458ZM361.608 123.771C361.888 123.316 362.222 122.972 362.609 122.741C362.997 122.51 363.353 122.395 363.679 122.395C364.134 122.395 364.545 122.591 364.909 122.985C365.274 123.379 365.456 123.977 365.456 124.777C365.456 125.409 365.334 125.974 365.09 126.472C364.849 126.966 364.527 127.359 364.123 127.648C363.719 127.935 363.22 128.078 362.624 128.078C362.455 128.078 362.194 128.06 361.843 128.024C361.791 128.018 361.713 128.01 361.608 128V130.119H360.7V122.546H361.608V123.771ZM361.608 124.851V127.189C361.937 127.274 362.24 127.316 362.517 127.316C363.067 127.316 363.529 127.102 363.903 126.672C364.281 126.239 364.47 125.648 364.47 124.899C364.47 124.356 364.367 123.947 364.162 123.674C363.957 123.4 363.724 123.264 363.464 123.264C363.181 123.264 362.868 123.407 362.526 123.693C362.188 123.98 361.882 124.366 361.608 124.851ZM367.341 128H366.291L368.435 125.144L366.433 122.546H367.595L369.016 124.377L370.397 122.546H371.428L369.533 125.056L371.784 128H370.617L368.957 125.827L367.341 128Z" fill="#EE77BE"/>
<rect x="0.5" y="0.5" width="451" height="239" rx="3.5" stroke="#4F6169"/>
</svg>
