<svg width="452" height="240" viewBox="0 0 452 240" fill="none" xmlns="http://www.w3.org/2000/svg">
<g clip-path="url(#clip0_9107_32526)">
<rect width="452" height="240" rx="4" fill="#22343C"/>
<rect x="31" y="33" width="545" height="220" rx="4" fill="#22343C"/>
<path d="M67.8217 90L67.2277 88.57H63.6197L63.0257 90H61.4967L64.6537 82.443H66.1827L69.3397 90H67.8217ZM64.0927 87.448H66.7547L65.4237 84.269L64.0927 87.448ZM71.6563 90V82.443H74.3073C76.8043 82.443 78.5643 84.005 78.5643 86.216C78.5643 88.427 76.8043 90 74.3073 90H71.6563ZM73.0203 88.757H74.4503C76.0453 88.757 77.1673 87.701 77.1673 86.216C77.1673 84.731 76.0453 83.686 74.4503 83.686H73.0203V88.757ZM81.1641 90V82.443H83.8151C86.3121 82.443 88.0721 84.005 88.0721 86.216C88.0721 88.427 86.3121 90 83.8151 90H81.1641ZM82.5281 88.757H83.9581C85.5531 88.757 86.6751 87.701 86.6751 86.216C86.6751 84.731 85.5531 83.686 83.9581 83.686H82.5281V88.757ZM96.3738 90V83.697H93.9538V82.443H100.158V83.697H97.7488V90H96.3738ZM102.533 90V82.443H103.897V90H102.533ZM110.457 90.132C108.312 90.132 106.497 88.339 106.497 86.216C106.497 84.093 108.312 82.311 110.457 82.311C111.568 82.311 112.591 82.784 113.317 83.532L112.338 84.445C111.865 83.906 111.194 83.565 110.457 83.565C109.071 83.565 107.894 84.775 107.894 86.216C107.894 87.668 109.071 88.878 110.457 88.878C111.194 88.878 111.865 88.537 112.349 87.998L113.317 88.9C112.591 89.659 111.568 90.132 110.457 90.132ZM115.737 90V82.443H117.101V86.139L120.412 82.443H122.106L119.081 85.776L122.315 90H120.632L118.124 86.744L117.101 87.844V90H115.737ZM130.309 83.697H125.997V85.523H129.891V86.777H125.997V88.746H130.309V90H124.622V82.443H130.309V83.697ZM134.664 90V83.697H132.244V82.443H138.448V83.697H136.039V90H134.664Z" fill="#2EC0FF"/>
<rect x="49.5" y="75.5" width="102" height="23" rx="3.5" stroke="#2EC0FF"/>
<path d="M179.851 90.121C178.564 90.121 177.453 89.681 176.617 88.9L177.42 87.921C178.113 88.548 178.916 88.944 179.906 88.944C180.83 88.944 181.314 88.482 181.314 87.943C181.314 87.316 180.775 87.107 179.565 86.821C178.003 86.458 176.925 86.007 176.925 84.588C176.925 83.268 178.047 82.311 179.631 82.311C180.83 82.311 181.743 82.718 182.491 83.367L181.743 84.368C181.094 83.807 180.335 83.488 179.587 83.488C178.817 83.488 178.311 83.939 178.311 84.467C178.311 85.083 178.861 85.303 180.06 85.578C181.633 85.93 182.689 86.436 182.689 87.811C182.689 89.164 181.666 90.121 179.851 90.121ZM190.935 83.697H186.623V85.523H190.517V86.777H186.623V88.746H190.935V90H185.248V82.443H190.935V83.697ZM195.29 90V83.697H192.87V82.443H199.074V83.697H196.665V90H195.29ZM203.143 90V83.697H200.723V82.443H206.927V83.697H204.518V90H203.143ZM209.303 90V82.443H210.667V90H209.303ZM213.762 90V82.443H215.126L219.119 87.756V82.443H220.483V90H219.119L215.126 84.687V90H213.762ZM226.837 86.964V85.842H230.071V88.9C229.334 89.659 228.168 90.132 227.057 90.132C224.901 90.132 223.075 88.339 223.075 86.216C223.075 84.093 224.901 82.311 227.057 82.311C228.168 82.311 229.334 82.773 230.071 83.532L229.092 84.445C228.619 83.895 227.794 83.565 227.057 83.565C225.66 83.565 224.472 84.775 224.472 86.216C224.472 87.668 225.66 88.878 227.057 88.878C227.629 88.878 228.256 88.68 228.729 88.339V86.964H226.837ZM235.46 90.121C234.173 90.121 233.062 89.681 232.226 88.9L233.029 87.921C233.722 88.548 234.525 88.944 235.515 88.944C236.439 88.944 236.923 88.482 236.923 87.943C236.923 87.316 236.384 87.107 235.174 86.821C233.612 86.458 232.534 86.007 232.534 84.588C232.534 83.268 233.656 82.311 235.24 82.311C236.439 82.311 237.352 82.718 238.1 83.367L237.352 84.368C236.703 83.807 235.944 83.488 235.196 83.488C234.426 83.488 233.92 83.939 233.92 84.467C233.92 85.083 234.47 85.303 235.669 85.578C237.242 85.93 238.298 86.436 238.298 87.811C238.298 89.164 237.275 90.121 235.46 90.121Z" fill="#2EC0FF"/>
<rect x="164.5" y="75.5" width="87" height="23" rx="3.5" stroke="#2EC0FF"/>
<path d="M283.528 84.951C283.528 86.172 282.692 87.096 281.482 87.371L283.33 90H281.768L279.986 87.459H278.776V90H277.412V82.443H280.701C282.307 82.443 283.528 83.477 283.528 84.951ZM278.776 83.708V86.194H280.536C281.471 86.194 282.12 85.721 282.12 84.951C282.12 84.181 281.471 83.708 280.536 83.708H278.776ZM291.801 83.697H287.489V85.523H291.383V86.777H287.489V88.746H291.801V90H286.114V82.443H291.801V83.697ZM297.08 90.121C295.793 90.121 294.682 89.681 293.846 88.9L294.649 87.921C295.342 88.548 296.145 88.944 297.135 88.944C298.059 88.944 298.543 88.482 298.543 87.943C298.543 87.316 298.004 87.107 296.794 86.821C295.232 86.458 294.154 86.007 294.154 84.588C294.154 83.268 295.276 82.311 296.86 82.311C298.059 82.311 298.972 82.718 299.72 83.367L298.972 84.368C298.323 83.807 297.564 83.488 296.816 83.488C296.046 83.488 295.54 83.939 295.54 84.467C295.54 85.083 296.09 85.303 297.289 85.578C298.862 85.93 299.918 86.436 299.918 87.811C299.918 89.164 298.895 90.121 297.08 90.121ZM308.164 83.697H303.852V85.523H307.746V86.777H303.852V88.746H308.164V90H302.477V82.443H308.164V83.697ZM312.518 90V83.697H310.098V82.443H316.302V83.697H313.893V90H312.518Z" fill="#2EC0FF"/>
<rect x="264.5" y="75.5" width="65" height="23" rx="3.5" stroke="#2EC0FF"/>
<g clip-path="url(#clip1_9107_32526)">
<mask id="path-10-inside-1_9107_32526" fill="white">
<path fill-rule="evenodd" clip-rule="evenodd" d="M581 253H49V217H581"/>
</mask>
<path fill-rule="evenodd" clip-rule="evenodd" d="M581 253H49V217H581" fill="#22343C"/>
<path d="M49 253H48V254H49V253ZM49 217V216H48V217H49ZM581 252H49V254H581V252ZM50 253V217H48V253H50ZM49 218H581V216H49V218Z" fill="#67777E" mask="url(#path-10-inside-1_9107_32526)"/>
<mask id="path-12-inside-2_9107_32526" fill="white">
<path fill-rule="evenodd" clip-rule="evenodd" d="M581 218H49V182H581"/>
</mask>
<path fill-rule="evenodd" clip-rule="evenodd" d="M581 218H49V182H581" fill="#22343C"/>
<path d="M49 218H48V219H49V218ZM49 182V181H48V182H49ZM581 217H49V219H581V217ZM50 218V182H48V218H50ZM49 183H581V181H49V183Z" fill="#67777E" mask="url(#path-12-inside-2_9107_32526)"/>
<mask id="path-14-inside-3_9107_32526" fill="white">
<path fill-rule="evenodd" clip-rule="evenodd" d="M581 183H49V147H581"/>
</mask>
<path fill-rule="evenodd" clip-rule="evenodd" d="M581 183H49V147H581" fill="#22343C"/>
<path d="M49 183H48V184H49V183ZM49 147V146H48V147H49ZM581 182H49V184H581V182ZM50 183V147H48V183H50ZM49 148H581V146H49V148Z" fill="#67777E" mask="url(#path-14-inside-3_9107_32526)"/>
<rect x="49.5" y="111.5" width="544" height="35" fill="#22343C" stroke="#67777E"/>
<rect x="242" y="122" width="1" height="13" rx="0.5" fill="#67777E"/>
<rect x="434" y="126" width="1" height="12" rx="0.5" fill="#67777E"/>
<rect x="75" y="127" width="64" height="4" rx="2" fill="#67777E"/>
<rect x="75" y="163" width="132" height="4" rx="2" fill="#67777E"/>
<rect x="75" y="198" width="132" height="4" rx="2" fill="#67777E"/>
<rect x="261" y="127" width="64" height="4" rx="2" fill="#67777E"/>
<rect x="261" y="163" width="115" height="4" rx="2" fill="#67777E"/>
<rect x="261" y="198" width="132" height="4" rx="2" fill="#67777E"/>
</g>
<line x1="334" y1="98.5" x2="345" y2="98.5" stroke="#EE77BE"/>
<line x1="334" y1="75.5" x2="345" y2="75.5" stroke="#EE77BE"/>
<line x1="339.5" y1="75" x2="339.5" y2="99" stroke="#EE77BE"/>
<path d="M350.312 89H345.728V88.165C345.728 87.9502 345.771 87.7207 345.859 87.4766C345.947 87.2292 346.115 86.9525 346.362 86.6465C346.61 86.3405 346.872 86.0459 347.148 85.7627L347.666 85.2354C347.77 85.1279 347.998 84.8789 348.35 84.4883C348.701 84.0977 348.932 83.7982 349.043 83.5898C349.157 83.3815 349.214 83.1764 349.214 82.9746C349.214 82.6491 349.084 82.3984 348.823 82.2227C348.563 82.0436 348.27 81.9541 347.944 81.9541C347.759 81.9541 347.55 81.9753 347.319 82.0176C347.091 82.0599 346.891 82.1104 346.719 82.1689C346.546 82.2243 346.266 82.3398 345.879 82.5156V81.71C346.289 81.5146 346.699 81.3812 347.109 81.3096C347.523 81.2347 347.863 81.1973 348.13 81.1973C348.524 81.1973 348.885 81.2624 349.214 81.3926C349.546 81.5195 349.792 81.7181 349.951 81.9883C350.114 82.2585 350.195 82.5465 350.195 82.8525C350.195 83.1943 350.091 83.5443 349.883 83.9023C349.678 84.2604 349.289 84.721 348.716 85.2842L348.159 85.8359L347.69 86.2949C347.394 86.5944 347.155 86.8841 346.973 87.1641C346.79 87.444 346.689 87.7777 346.67 88.165H350.312V89ZM354.458 89V86.8809H351.24V86.1191L354.458 81.4219H355.371V86.1191H356.772V86.8809H355.371V89H354.458ZM354.458 86.1191V82.7988L352.207 86.1191H354.458ZM358.608 84.7715C358.888 84.3158 359.222 83.9723 359.609 83.7412C359.997 83.5101 360.353 83.3945 360.679 83.3945C361.134 83.3945 361.545 83.5915 361.909 83.9854C362.274 84.3792 362.456 84.9766 362.456 85.7773C362.456 86.4089 362.334 86.9736 362.09 87.4717C361.849 87.9665 361.527 88.3587 361.123 88.6484C360.719 88.9349 360.22 89.0781 359.624 89.0781C359.455 89.0781 359.194 89.0602 358.843 89.0244C358.791 89.0179 358.713 89.0098 358.608 89V91.1191H357.7V83.5459H358.608V84.7715ZM358.608 85.8506V88.1895C358.937 88.2741 359.24 88.3164 359.517 88.3164C360.067 88.3164 360.529 88.1016 360.903 87.6719C361.281 87.2389 361.47 86.6481 361.47 85.8994C361.47 85.3558 361.367 84.9473 361.162 84.6738C360.957 84.4004 360.724 84.2637 360.464 84.2637C360.181 84.2637 359.868 84.4069 359.526 84.6934C359.188 84.9798 358.882 85.3656 358.608 85.8506ZM364.341 89H363.291L365.435 86.1436L363.433 83.5459H364.595L366.016 85.377L367.397 83.5459H368.428L366.533 86.0557L368.784 89H367.617L365.957 86.8271L364.341 89Z" fill="#EE77BE"/>
</g>
<rect x="0.5" y="0.5" width="451" height="239" rx="3.5" stroke="#4F6169"/>
<defs>
<clipPath id="clip0_9107_32526">
<rect width="452" height="240" rx="4" fill="white"/>
</clipPath>
<clipPath id="clip1_9107_32526">
<rect width="543" height="142" fill="white" transform="translate(49 111)"/>
</clipPath>
</defs>
</svg>
