<svg width="928" height="477" viewBox="0 0 928 477" fill="none" xmlns="http://www.w3.org/2000/svg">
<rect x="296.5" y="24.5" width="337" height="211" fill="#FCFDFD"/>
<path d="M319.089 66.1247C320.294 66.1247 321.409 65.6081 322.219 64.7976L321.55 64.1188C320.922 64.7874 320.041 65.2129 319.099 65.2129C317.224 65.2129 315.644 63.5717 315.644 61.6266C315.644 59.6814 317.224 58.0503 319.099 58.0503C320.051 58.0503 320.922 58.4758 321.55 59.1445L322.219 58.4657C321.409 57.6451 320.294 57.1385 319.089 57.1385C316.687 57.1385 314.631 59.185 314.631 61.6266C314.631 64.0681 316.677 66.1247 319.089 66.1247ZM326.575 66.1247C328.409 66.1247 329.959 64.5544 329.959 62.7005C329.959 60.8465 328.419 59.2863 326.575 59.2863C324.731 59.2863 323.181 60.8364 323.181 62.7005C323.181 64.5646 324.742 66.1247 326.575 66.1247ZM326.575 65.2737C325.268 65.2737 324.184 64.0985 324.184 62.7005C324.184 61.3024 325.268 60.1373 326.575 60.1373C327.882 60.1373 328.956 61.3125 328.956 62.7005C328.956 64.0884 327.872 65.2737 326.575 65.2737ZM334.629 59.2863C333.708 59.2863 332.857 59.7929 332.482 60.4818V59.4383H331.529V65.9626H332.482V61.8089C332.482 60.8971 333.404 60.1272 334.508 60.1272C335.47 60.1272 336.139 60.8769 336.139 61.9305V65.9626H337.091V61.8089C337.091 60.3298 336.078 59.2863 334.64 59.2863H334.629ZM342.116 59.2863C341.194 59.2863 340.343 59.7929 339.969 60.4818V59.4383H339.016V65.9626H339.969V61.8089C339.969 60.8971 340.89 60.1272 341.995 60.1272C342.957 60.1272 343.626 60.8769 343.626 61.9305V65.9626H344.578V61.8089C344.578 60.3298 343.565 59.2863 342.126 59.2863H342.116ZM349.441 65.2737C348.154 65.2737 347.253 64.3417 347.111 63.0652H352.46C352.46 60.7756 351.335 59.2863 349.36 59.2863C347.597 59.2863 346.138 60.735 346.138 62.6802C346.138 64.6253 347.709 66.1146 349.451 66.1146C350.363 66.1146 351.518 65.7195 352.085 65.1015L351.508 64.4835C351.102 64.9293 350.221 65.2636 349.441 65.2636V65.2737ZM349.4 60.1373C350.707 60.1373 351.396 61.0491 351.528 62.2243H347.121C347.293 60.9579 348.235 60.1373 349.4 60.1373ZM357.049 66.1247C357.961 66.1247 358.792 65.7499 359.42 65.1319L358.762 64.4835C358.316 64.9799 357.708 65.2839 357.049 65.2839C355.743 65.2839 354.658 64.1087 354.658 62.7106C354.658 61.3125 355.743 60.1474 357.049 60.1474C357.698 60.1474 358.285 60.4412 358.721 60.9073L359.38 60.2589C358.762 59.6612 357.941 59.2964 357.049 59.2964C355.216 59.2964 353.656 60.8465 353.656 62.7106C353.656 64.5747 355.216 66.1349 357.049 66.1349V66.1247ZM363.746 65.0103C363.604 65.1623 363.351 65.2737 363.067 65.2737C362.692 65.2737 362.358 64.9293 362.358 64.4531V60.2893H363.969V59.4383H362.358V57.6451H361.406V59.4383H360.382V60.2893H361.406V64.4531C361.406 65.4257 362.064 66.1247 362.996 66.1247C363.442 66.1247 363.868 65.9728 364.212 65.7094L363.746 65.0103ZM376.339 65.9728H377.413L373.583 57.3006H372.509L368.68 65.9728H369.754L370.625 64.0074H375.468L376.339 65.9728ZM371.02 63.0652L373.046 58.5062L375.062 63.0652H371.02ZM382.195 59.2863C381.141 59.2863 380.31 59.803 379.814 60.6641V59.4383H378.861V68.1408H379.814V64.7469C380.31 65.6081 381.141 66.1247 382.195 66.1247C383.917 66.1247 385.203 64.7064 385.203 62.7005C385.203 60.6945 383.917 59.2863 382.195 59.2863ZM382.022 65.2737C380.736 65.2737 379.824 64.1998 379.824 62.7005C379.824 61.2011 380.736 60.1373 382.022 60.1373C383.309 60.1373 384.211 61.2011 384.211 62.7005C384.211 64.1998 383.299 65.2737 382.022 65.2737ZM390.269 59.2863C389.215 59.2863 388.385 59.803 387.888 60.6641V59.4383H386.936V68.1408H387.888V64.7469C388.385 65.6081 389.215 66.1247 390.269 66.1247C391.991 66.1247 393.278 64.7064 393.278 62.7005C393.278 60.6945 391.991 59.2863 390.269 59.2863ZM390.097 65.2737C388.81 65.2737 387.898 64.1998 387.898 62.7005C387.898 61.2011 388.81 60.1373 390.097 60.1373C391.383 60.1373 392.285 61.2011 392.285 62.7005C392.285 64.1998 391.373 65.2737 390.097 65.2737ZM394.929 65.9728H395.882V57.1487H394.929V65.9728ZM398.262 58.2529C398.607 58.2529 398.88 57.9591 398.88 57.6248C398.88 57.2905 398.607 57.0068 398.262 57.0068C397.918 57.0068 397.634 57.3006 397.634 57.6248C397.634 57.949 397.908 58.2529 398.262 58.2529ZM397.786 65.9728H398.738V59.4484H397.786V65.9728ZM403.682 66.1247C404.594 66.1247 405.425 65.7499 406.053 65.1319L405.395 64.4835C404.949 64.9799 404.341 65.2839 403.682 65.2839C402.376 65.2839 401.291 64.1087 401.291 62.7106C401.291 61.3125 402.376 60.1474 403.682 60.1474C404.331 60.1474 404.918 60.4412 405.354 60.9073L406.013 60.2589C405.395 59.6612 404.574 59.2964 403.682 59.2964C401.849 59.2964 400.289 60.8465 400.289 62.7106C400.289 64.5747 401.849 66.1349 403.682 66.1349V66.1247ZM410.166 59.2964C409.538 59.2964 408.748 59.4585 407.816 59.9246L408.201 60.6945C408.799 60.3906 409.457 60.0968 410.116 60.0968C411.534 60.0968 411.888 61.1099 411.888 61.9913V62.2344C411.22 62.0217 410.47 61.8697 409.761 61.8697C408.353 61.8697 407.188 62.741 407.188 64.0378C407.188 65.3345 408.201 66.1247 409.579 66.1247C410.44 66.1247 411.412 65.7195 411.878 64.9495V65.9728H412.831V61.9913C412.831 60.4109 411.959 59.2863 410.176 59.2863L410.166 59.2964ZM409.741 65.294C408.819 65.294 408.11 64.8178 408.11 64.0074C408.11 63.1969 408.93 62.6701 409.903 62.6701C410.612 62.6701 411.281 62.7714 411.878 62.9335V63.9263C411.625 64.8482 410.602 65.294 409.741 65.294ZM417.643 65.0205C417.501 65.1724 417.248 65.2839 416.964 65.2839C416.589 65.2839 416.255 64.9394 416.255 64.4633V60.2994H417.866V59.4484H416.255V57.6552H415.303V59.4484H414.279V60.2994H415.303V64.4633C415.303 65.4358 415.961 66.1349 416.893 66.1349C417.339 66.1349 417.764 65.9829 418.109 65.7195L417.643 65.0205ZM419.922 58.2631C420.267 58.2631 420.54 57.9693 420.54 57.635C420.54 57.3006 420.267 57.017 419.922 57.017C419.578 57.017 419.294 57.3108 419.294 57.635C419.294 57.9591 419.568 58.2631 419.922 58.2631ZM419.436 65.9829H420.388V59.4585H419.436V65.9829ZM425.332 66.1349C427.166 66.1349 428.716 64.5646 428.716 62.7106C428.716 60.8566 427.176 59.2964 425.332 59.2964C423.489 59.2964 421.938 60.8465 421.938 62.7106C421.938 64.5747 423.499 66.1349 425.332 66.1349ZM425.332 65.2839C424.025 65.2839 422.941 64.1087 422.941 62.7106C422.941 61.3125 424.025 60.1474 425.332 60.1474C426.639 60.1474 427.713 61.3226 427.713 62.7106C427.713 64.0985 426.629 65.2839 425.332 65.2839ZM433.386 59.2964C432.465 59.2964 431.614 59.803 431.239 60.4919V59.4484H430.286V65.9728H431.239V61.8191C431.239 60.9073 432.161 60.1373 433.265 60.1373C434.227 60.1373 434.896 60.887 434.896 61.9406V65.9728H435.848V61.8191C435.848 60.3399 434.835 59.2964 433.397 59.2964H433.386ZM440.083 66.1247C441.441 66.1247 442.474 65.3548 442.474 64.1593C442.474 62.9639 441.39 62.5688 440.336 62.2446C439.121 61.8495 438.644 61.6772 438.644 61.1099C438.644 60.4818 439.252 60.1474 439.982 60.1474C440.559 60.1474 441.208 60.3501 441.866 60.7654L442.322 60.036C441.623 59.5801 440.792 59.3066 439.982 59.3066C438.675 59.3066 437.692 60.036 437.692 61.2213C437.692 62.1534 438.3 62.6194 439.88 63.0753C440.762 63.3286 441.522 63.5515 441.522 64.2606C441.522 64.8786 440.944 65.2839 440.083 65.2839C439.364 65.2839 438.614 65.0103 437.864 64.4633L437.368 65.1623C438.148 65.7904 439.161 66.1349 440.073 66.1349L440.083 66.1247Z" fill="#4F6169"/>
<path d="M357.283 118.35C357.283 116.901 358.458 115.726 359.907 115.726H416.327C417.775 115.726 418.951 116.901 418.951 118.35V174.658C418.951 176.107 417.775 177.282 416.327 177.282H359.907C358.458 177.282 357.283 176.107 357.283 174.658V118.35Z" fill="white"/>
<path d="M403.206 152.39C403.206 161.072 396.155 168.103 387.462 168.103C378.77 168.103 371.719 161.072 371.719 152.39C371.719 143.708 378.77 136.677 387.462 136.677C396.155 136.677 403.206 143.708 403.206 152.39Z" fill="#9B32C7"/>
<path d="M392.984 145.623H391.241L387.29 150.769L383.339 145.623H381.576L386.409 151.924L381.576 158.216H383.319L387.27 153.069L391.221 158.216H392.984L388.151 151.914L392.984 145.623Z" fill="white"/>
<path d="M384.161 132.746H385.053L381.872 125.553H380.98L377.799 132.746H378.69L379.41 131.115H383.432L384.151 132.746H384.161ZM379.754 130.335L381.436 126.556L383.107 130.335H379.754ZM389.024 127.205C388.153 127.205 387.464 127.63 387.048 128.349V127.336H386.258V134.55H387.048V131.733C387.454 132.442 388.153 132.878 389.024 132.878C390.452 132.878 391.526 131.703 391.526 130.041C391.526 128.38 390.452 127.215 389.024 127.215V127.205ZM388.872 132.169C387.798 132.169 387.048 131.277 387.048 130.031C387.048 128.785 387.808 127.904 388.872 127.904C389.936 127.904 390.685 128.785 390.685 130.031C390.685 131.277 389.926 132.169 388.872 132.169ZM395.71 127.205C394.839 127.205 394.15 127.63 393.735 128.349V127.336H392.945V134.55H393.735V131.733C394.14 132.442 394.839 132.878 395.71 132.878C397.139 132.878 398.213 131.703 398.213 130.041C398.213 128.38 397.139 127.215 395.71 127.215V127.205ZM395.558 132.169C394.485 132.169 393.735 131.277 393.735 130.031C393.735 128.785 394.495 127.904 395.558 127.904C396.622 127.904 397.372 128.785 397.372 130.031C397.372 131.277 396.612 132.169 395.558 132.169Z" fill="#4F6169"/>
<path d="M359.907 116.385H416.327V115.078H359.907V116.385ZM418.292 118.35V174.658H419.609V118.35H418.292ZM416.327 176.623H359.907V177.93H416.327V176.623ZM357.942 174.658V118.35H356.625V174.658H357.942ZM359.907 176.623C358.823 176.623 357.942 175.742 357.942 174.658H356.625C356.625 176.461 358.094 177.93 359.907 177.93V176.623ZM418.292 174.658C418.292 175.742 417.411 176.623 416.327 176.623V177.93C418.14 177.93 419.609 176.461 419.609 174.658H418.292ZM416.327 116.385C417.411 116.385 418.292 117.266 418.292 118.35H419.609C419.609 116.547 418.14 115.078 416.327 115.078V116.385ZM359.907 115.078C358.094 115.078 356.625 116.547 356.625 118.35H357.942C357.942 117.266 358.823 116.385 359.907 116.385V115.078Z" fill="#859399"/>
<path d="M434.693 118.35C434.693 116.901 435.869 115.726 437.317 115.726H493.737C495.186 115.726 496.361 116.901 496.361 118.35V174.658C496.361 176.107 495.186 177.282 493.737 177.282H437.317C435.869 177.282 434.693 176.107 434.693 174.658V118.35Z" fill="white"/>
<path d="M480.618 152.39C480.618 161.072 473.567 168.103 464.874 168.103C456.182 168.103 449.131 161.072 449.131 152.39C449.131 143.708 456.182 136.677 464.874 136.677C473.567 136.677 480.618 143.708 480.618 152.39Z" fill="#FFB92E"/>
<path d="M463.963 158.216H465.472V153.079L470.538 145.623H468.815L464.723 151.732L460.66 145.623H458.877L463.963 153.079V158.216Z" fill="#4F6169"/>
<path d="M461.571 132.746H462.463L459.282 125.553H458.39L455.209 132.746H456.101L456.82 131.115H460.842L461.561 132.746H461.571ZM457.164 130.335L458.846 126.556L460.518 130.335H457.164ZM466.434 127.205C465.563 127.205 464.874 127.63 464.459 128.349V127.336H463.668V134.55H464.459V131.733C464.864 132.442 465.563 132.878 466.434 132.878C467.863 132.878 468.936 131.703 468.936 130.041C468.936 128.38 467.863 127.215 466.434 127.215V127.205ZM466.282 132.169C465.208 132.169 464.459 131.277 464.459 130.031C464.459 128.785 465.218 127.904 466.282 127.904C467.346 127.904 468.096 128.785 468.096 130.031C468.096 131.277 467.336 132.169 466.282 132.169ZM473.121 127.205C472.249 127.205 471.56 127.63 471.145 128.349V127.336H470.355V134.55H471.145V131.733C471.55 132.442 472.249 132.878 473.121 132.878C474.549 132.878 475.623 131.703 475.623 130.041C475.623 128.38 474.549 127.215 473.121 127.215V127.205ZM472.969 132.169C471.895 132.169 471.145 131.277 471.145 130.031C471.145 128.785 471.905 127.904 472.969 127.904C474.032 127.904 474.782 128.785 474.782 130.031C474.782 131.277 474.022 132.169 472.969 132.169Z" fill="#4F6169"/>
<path d="M437.318 116.385H493.737V115.078H437.318V116.385ZM495.703 118.35V174.658H497.02V118.35H495.703ZM493.737 176.623H437.318V177.93H493.737V176.623ZM435.352 174.658V118.35H434.035V174.658H435.352ZM437.318 176.623C436.234 176.623 435.352 175.742 435.352 174.658H434.035C434.035 176.461 435.504 177.93 437.318 177.93V176.623ZM495.703 174.658C495.703 175.742 494.821 176.623 493.737 176.623V177.93C495.551 177.93 497.02 176.461 497.02 174.658H495.703ZM493.737 116.385C494.821 116.385 495.703 117.266 495.703 118.35H497.02C497.02 116.547 495.551 115.078 493.737 115.078V116.385ZM437.318 115.078C435.504 115.078 434.035 116.547 434.035 118.35H435.352C435.352 117.266 436.234 116.385 437.318 116.385V115.078Z" fill="#859399"/>
<path d="M512.115 118.35C512.115 116.901 513.29 115.726 514.739 115.726H571.159C572.607 115.726 573.783 116.901 573.783 118.35V174.658C573.783 176.107 572.607 177.282 571.159 177.282H514.739C513.29 177.282 512.115 176.107 512.115 174.658V118.35Z" fill="white"/>
<path d="M558.038 152.39C558.038 161.072 550.987 168.103 542.294 168.103C533.602 168.103 526.551 161.072 526.551 152.39C526.551 143.708 533.602 136.677 542.294 136.677C550.987 136.677 558.038 143.708 558.038 152.39Z" fill="#0079AD"/>
<path d="M537.969 158.216H547.614V156.858H539.914L547.533 146.757V145.623H538.091V146.98H545.567L537.959 157.081V158.216H537.969Z" fill="white"/>
<path d="M538.983 132.746H539.875L536.694 125.553H535.802L532.621 132.746H533.513L534.232 131.115H538.254L538.973 132.746H538.983ZM534.576 130.335L536.258 126.556L537.93 130.335H534.576ZM543.846 127.205C542.975 127.205 542.286 127.63 541.871 128.349V127.336H541.081V134.55H541.871V131.733C542.276 132.442 542.975 132.878 543.846 132.878C545.275 132.878 546.349 131.703 546.349 130.041C546.349 128.38 545.275 127.215 543.846 127.215V127.205ZM543.694 132.169C542.62 132.169 541.871 131.277 541.871 130.031C541.871 128.785 542.631 127.904 543.694 127.904C544.758 127.904 545.508 128.785 545.508 130.031C545.508 131.277 544.748 132.169 543.694 132.169ZM550.533 127.205C549.661 127.205 548.973 127.63 548.557 128.349V127.336H547.767V134.55H548.557V131.733C548.962 132.442 549.661 132.878 550.533 132.878C551.961 132.878 553.035 131.703 553.035 130.041C553.035 128.38 551.961 127.215 550.533 127.215V127.205ZM550.381 132.169C549.307 132.169 548.557 131.277 548.557 130.031C548.557 128.785 549.317 127.904 550.381 127.904C551.445 127.904 552.194 128.785 552.194 130.031C552.194 131.277 551.434 132.169 550.381 132.169Z" fill="#4F6169"/>
<path d="M514.739 116.385H571.159V115.078H514.739V116.385ZM573.124 118.35V174.658H574.441V118.35H573.124ZM571.159 176.623H514.739V177.93H571.159V176.623ZM512.774 174.658V118.35H511.457V174.658H512.774ZM514.739 176.623C513.655 176.623 512.774 175.742 512.774 174.658H511.457C511.457 176.461 512.926 177.93 514.739 177.93V176.623ZM573.124 174.658C573.124 175.742 572.243 176.623 571.159 176.623V177.93C572.973 177.93 574.441 176.461 574.441 174.658H573.124ZM571.159 116.385C572.243 116.385 573.124 117.266 573.124 118.35H574.441C574.441 116.547 572.973 115.078 571.159 115.078V116.385ZM514.739 115.078C512.926 115.078 511.457 116.547 511.457 118.35H512.774C512.774 117.266 513.655 116.385 514.739 116.385V115.078Z" fill="#859399"/>
<path d="M464.875 172.034C467.053 172.034 468.816 173.797 468.816 175.965C468.816 178.133 467.053 179.896 464.875 179.896C462.696 179.896 460.934 178.133 460.934 175.965C460.934 173.797 462.696 172.034 464.875 172.034Z" fill="#D42398"/>
<path d="M361.214 151.549C361.214 149.381 359.451 147.618 357.273 147.618C355.095 147.618 353.332 149.381 353.332 151.549C353.332 153.717 355.095 155.48 357.273 155.48C359.451 155.48 361.214 153.717 361.214 151.549Z" fill="#D42398"/>
<path d="M571.783 151.549C571.783 149.381 573.546 147.618 575.724 147.618C577.902 147.618 579.665 149.381 579.665 151.549C579.665 153.717 577.902 155.48 575.724 155.48C573.546 155.48 571.783 153.717 571.783 151.549Z" fill="#D42398"/>
<rect width="338" height="17" transform="translate(296 24)" fill="#859399"/>
<rect x="296.5" y="24.5" width="337" height="211" stroke="#ACB8BE"/>
<path d="M465.373 264.713C464.816 264.713 464.361 264.257 464.361 263.7V179.896C464.361 179.339 464.816 178.883 465.373 178.883C465.929 178.883 466.385 179.339 466.385 179.896V263.7C466.385 264.257 465.929 264.713 465.373 264.713Z" fill="#D42398"/>
<path fill-rule="evenodd" clip-rule="evenodd" d="M458.815 259.769H471.92L465.362 275.482L458.804 259.769H458.815Z" fill="#D42398"/>
<path d="M215.031 268.451C214.475 268.451 214.019 267.995 214.019 267.438V169.886C214.019 159.218 222.702 150.536 233.379 150.536H353.96C354.517 150.536 354.972 150.992 354.972 151.549C354.972 152.106 354.517 152.562 353.96 152.562H233.379C223.816 152.562 216.043 160.333 216.043 169.886V267.438C216.043 267.995 215.588 268.451 215.031 268.451Z" fill="#D42398"/>
<path fill-rule="evenodd" clip-rule="evenodd" d="M221.58 259.769H208.475L215.032 275.482L221.59 259.769H221.58Z" fill="#D42398"/>
<path d="M721.153 268C720.565 268 720.084 267.548 720.084 266.995V170.2C720.084 160.721 711.867 153.01 701.779 153.01H574.451C573.863 153.01 573.382 152.558 573.382 152.005C573.382 151.452 573.863 151 574.451 151H701.779C713.053 151 722.222 159.615 722.222 170.2V266.995C722.222 267.548 721.741 268 721.153 268Z" fill="#D42398"/>
<path fill-rule="evenodd" clip-rule="evenodd" d="M714.408 259.769H727.514L720.956 275.482L714.398 259.769H714.408Z" fill="#D42398"/>
<rect x="0.5" y="277.5" width="292" height="175" fill="#FCFDFD"/>
<rect width="293" height="14" transform="translate(0 277)" fill="#859399"/>
<path d="M47.1772 317.129C47.1772 326.034 39.9682 333.257 31.0631 333.257C22.1579 333.257 14.949 326.034 14.949 317.129C14.949 308.223 22.1579 301 31.0631 301C39.9682 301 47.1772 308.223 47.1772 317.129Z" fill="#9B32C7"/>
<path d="M36.7267 310.179H34.9396L30.901 315.467L26.8624 310.179H25.0551L30.0024 316.652L25.0551 323.106H26.8422L30.8808 317.817L34.9194 323.106H36.7267L31.7794 316.632L36.7267 310.179Z" fill="white"/>
<path d="M67.1777 317.291C68.4095 317.291 69.5504 316.754 70.3783 315.933L69.6917 315.234C69.0455 315.923 68.147 316.359 67.1777 316.359C65.2593 316.359 63.6439 314.677 63.6439 312.681C63.6439 310.685 65.2593 309.014 67.1777 309.014C68.147 309.014 69.0455 309.459 69.6917 310.138L70.3783 309.439C69.5504 308.598 68.4095 308.082 67.1777 308.082C64.7141 308.082 62.6241 310.179 62.6241 312.681C62.6241 315.183 64.7242 317.301 67.1777 317.301V317.291ZM74.841 317.291C76.7189 317.291 78.294 315.68 78.294 313.775C78.294 311.871 76.7189 310.27 74.841 310.27C72.963 310.27 71.3678 311.86 71.3678 313.775C71.3678 315.69 72.963 317.291 74.841 317.291ZM74.841 316.419C73.5082 316.419 72.3976 315.214 72.3976 313.775C72.3976 312.337 73.5082 311.141 74.841 311.141C76.1737 311.141 77.2742 312.347 77.2742 313.775C77.2742 315.204 76.1636 316.419 74.841 316.419ZM83.0898 310.27C82.1408 310.27 81.2826 310.787 80.8888 311.506V310.432H79.9195V317.139H80.8888V312.874C80.8888 311.941 81.8379 311.151 82.9586 311.151C83.938 311.151 84.6245 311.921 84.6245 313.005V317.139H85.5938V312.874C85.5938 311.354 84.5538 310.28 83.0798 310.28L83.0898 310.27ZM90.7531 310.27C89.804 310.27 88.9357 310.787 88.5521 311.506V310.432H87.5828V317.139H88.5521V312.874C88.5521 311.941 89.5012 311.151 90.6219 311.151C91.6012 311.151 92.2878 311.921 92.2878 313.005V317.139H93.2571V312.874C93.2571 311.354 92.2171 310.28 90.743 310.28L90.7531 310.27ZM98.2448 316.419C96.9221 316.419 96.0033 315.457 95.862 314.15H101.334C101.334 311.8 100.183 310.27 98.164 310.27C96.3668 310.27 94.8624 311.759 94.8624 313.755C94.8624 315.751 96.4678 317.281 98.2549 317.281C99.1837 317.281 100.365 316.875 100.951 316.247L100.355 315.609C99.941 316.065 99.0323 316.409 98.2448 316.409V316.419ZM98.2044 311.141C99.5371 311.141 100.254 312.073 100.375 313.279H95.8721C96.0538 311.982 97.013 311.141 98.2044 311.141ZM106.029 317.291C106.958 317.291 107.816 316.906 108.452 316.267L107.776 315.609C107.322 316.115 106.706 316.43 106.029 316.43C104.696 316.43 103.586 315.224 103.586 313.785C103.586 312.347 104.696 311.151 106.029 311.151C106.685 311.151 107.301 311.445 107.736 311.931L108.412 311.273C107.776 310.665 106.938 310.29 106.029 310.29C104.151 310.29 102.556 311.881 102.556 313.795C102.556 315.71 104.151 317.311 106.029 317.311V317.291ZM112.875 316.146C112.733 316.298 112.471 316.419 112.178 316.419C111.794 316.419 111.451 316.065 111.451 315.578V311.303H113.097V310.432H111.451V308.588H110.482V310.432H109.432V311.303H110.482V315.578C110.482 316.571 111.158 317.291 112.117 317.291C112.572 317.291 113.006 317.139 113.359 316.865L112.885 316.156L112.875 316.146ZM125.758 317.129H126.858L122.931 308.223H121.83L117.903 317.129H119.003L119.892 315.102H124.849L125.748 317.129H125.758ZM120.316 314.15L122.386 309.469L124.445 314.15H120.316ZM131.745 310.27C130.675 310.27 129.817 310.807 129.312 311.678V310.422H128.343V319.357H129.312V315.872C129.817 316.754 130.675 317.291 131.745 317.291C133.502 317.291 134.825 315.842 134.825 313.775C134.825 311.708 133.502 310.27 131.745 310.27ZM131.563 316.419C130.241 316.419 129.312 315.315 129.312 313.775C129.312 312.235 130.241 311.141 131.563 311.141C132.886 311.141 133.805 312.225 133.805 313.775C133.805 315.325 132.876 316.419 131.563 316.419ZM140.004 310.27C138.934 310.27 138.076 310.807 137.571 311.678V310.422H136.602V319.357H137.571V315.872C138.076 316.754 138.934 317.291 140.004 317.291C141.761 317.291 143.084 315.842 143.084 313.775C143.084 311.708 141.761 310.27 140.004 310.27ZM139.822 316.419C138.5 316.419 137.571 315.315 137.571 313.775C137.571 312.235 138.5 311.141 139.822 311.141C141.145 311.141 142.064 312.225 142.064 313.775C142.064 315.325 141.135 316.419 139.822 316.419ZM156.068 308.223H154.836L152.049 311.871L149.263 308.223H148.021L151.423 312.681L148.021 317.129H149.253L152.039 313.481L154.826 317.129H156.068L152.665 312.671L156.068 308.223Z" fill="#4F6169"/>
<path d="M235.952 342.882H62.7857V355.637H235.962V342.882H235.952Z" fill="#CBD4D8"/>
<path d="M75.5176 368.584C75.5176 368.23 75.8003 367.946 76.1537 367.946H101.617C101.971 367.946 102.253 368.23 102.253 368.584C102.253 368.939 101.971 369.223 101.617 369.223H76.1537C75.8003 369.223 75.5176 368.939 75.5176 368.584Z" fill="#C5CED8"/>
<path d="M75.5176 374.967C75.5176 374.612 75.8003 374.329 76.1537 374.329H101.617C101.971 374.329 102.253 374.612 102.253 374.967C102.253 375.321 101.971 375.605 101.617 375.605H76.1537C75.8003 375.605 75.5176 375.321 75.5176 374.967Z" fill="#C5CED8"/>
<path d="M75.5176 381.339C75.5176 380.985 75.8003 380.701 76.1537 380.701H101.617C101.971 380.701 102.253 380.985 102.253 381.339C102.253 381.694 101.971 381.977 101.617 381.977H76.1537C75.8003 381.977 75.5176 381.694 75.5176 381.339Z" fill="#C5CED8"/>
<path d="M108.623 368.584C108.623 368.23 108.906 367.946 109.259 367.946H186.296C186.65 367.946 186.932 368.23 186.932 368.584C186.932 368.939 186.65 369.223 186.296 369.223H109.259C108.906 369.223 108.623 368.939 108.623 368.584Z" fill="#C5CED8"/>
<path d="M108.623 374.967C108.623 374.612 108.906 374.329 109.259 374.329H186.296C186.65 374.329 186.932 374.612 186.932 374.967C186.932 375.321 186.65 375.605 186.296 375.605H109.259C108.906 375.605 108.623 375.321 108.623 374.967Z" fill="#C5CED8"/>
<path d="M108.623 381.339C108.623 380.985 108.906 380.701 109.259 380.701H186.296C186.65 380.701 186.932 380.985 186.932 381.339C186.932 381.694 186.65 381.977 186.296 381.977H109.259C108.906 381.977 108.623 381.694 108.623 381.339Z" fill="#C5CED8"/>
<path d="M235.557 417.872H63.1886V429.816H235.557V417.872Z" fill="white"/>
<path d="M235.861 430.12H62.8869V417.568H235.861V430.12ZM63.4927 429.512H235.255V418.175H63.4927V429.512Z" fill="#ACB9BE"/>
<path d="M235.557 405.765H63.1886V417.71H235.557V405.765Z" fill="white"/>
<path d="M235.861 418.013H62.8869V405.461H235.861V418.013ZM63.4927 417.406H235.255V406.069H63.4927V417.406Z" fill="#ACB9BE"/>
<path d="M235.557 394.368H63.1886V406.312H235.557V394.368Z" fill="white"/>
<path d="M235.861 406.616H62.8869V394.064H235.861V406.616ZM63.4927 406.008H235.255V394.672H63.4927V406.008Z" fill="#ACB9BE"/>
<path d="M235.88 430.15H62.8655V342.963H235.88V430.15ZM63.34 429.674H235.395V343.449H63.34V429.674Z" fill="#ACB9BE"/>
<rect x="0.5" y="277.5" width="292" height="175" stroke="#ACB8BE"/>
<rect x="317.5" y="277.5" width="293" height="175" fill="#FCFDFD"/>
<rect width="294" height="14" transform="translate(317 277)" fill="#859399"/>
<path d="M353.852 310.179H352.059L348.006 315.467L343.954 310.179H342.141L347.105 316.652L342.141 323.106H343.934L347.986 317.817L352.039 323.106H353.852L348.888 316.632L353.852 310.179Z" fill="white"/>
<path d="M553.757 342.882H380V355.637H553.767V342.882H553.757Z" fill="#CBD4D8"/>
<path d="M392.775 368.584C392.775 368.23 393.059 367.946 393.414 367.946H418.964C419.319 367.946 419.602 368.23 419.602 368.584C419.602 368.939 419.319 369.223 418.964 369.223H393.414C393.059 369.223 392.775 368.939 392.775 368.584Z" fill="#C5CED8"/>
<path d="M392.775 374.967C392.775 374.612 393.059 374.329 393.414 374.329H418.964C419.319 374.329 419.602 374.612 419.602 374.967C419.602 375.321 419.319 375.605 418.964 375.605H393.414C393.059 375.605 392.775 375.321 392.775 374.967Z" fill="#C5CED8"/>
<path d="M392.775 381.339C392.775 380.985 393.059 380.701 393.414 380.701H418.964C419.319 380.701 419.602 380.985 419.602 381.339C419.602 381.694 419.319 381.977 418.964 381.977H393.414C393.059 381.977 392.775 381.694 392.775 381.339Z" fill="#C5CED8"/>
<path d="M425.994 368.584C425.994 368.23 426.278 367.946 426.632 367.946H503.932C504.287 367.946 504.57 368.23 504.57 368.584C504.57 368.939 504.287 369.223 503.932 369.223H426.632C426.278 369.223 425.994 368.939 425.994 368.584Z" fill="#C5CED8"/>
<path d="M425.994 374.967C425.994 374.612 426.278 374.329 426.632 374.329H503.932C504.287 374.329 504.57 374.612 504.57 374.967C504.57 375.321 504.287 375.605 503.932 375.605H426.632C426.278 375.605 425.994 375.321 425.994 374.967Z" fill="#C5CED8"/>
<path d="M425.994 381.339C425.994 380.985 426.278 380.701 426.632 380.701H503.932C504.287 380.701 504.57 380.985 504.57 381.339C504.57 381.694 504.287 381.977 503.932 381.977H426.632C426.278 381.977 425.994 381.694 425.994 381.339Z" fill="#C5CED8"/>
<path d="M553.361 417.872H380.404V429.816H553.361V417.872Z" fill="white"/>
<path d="M553.666 430.12H380.102V417.568H553.666V430.12ZM380.709 429.512H553.058V418.175H380.709V429.512Z" fill="#ACB9BE"/>
<path d="M553.361 405.765H380.404V417.71H553.361V405.765Z" fill="white"/>
<path d="M553.666 418.013H380.102V405.461H553.666V418.013ZM380.709 417.406H553.058V406.069H380.709V417.406Z" fill="#ACB9BE"/>
<path d="M553.361 394.368H380.404V406.312H553.361V394.368Z" fill="white"/>
<path d="M553.666 406.616H380.102V394.064H553.666V406.616ZM380.709 406.008H553.058V394.672H380.709V406.008Z" fill="#ACB9BE"/>
<path d="M553.685 430.15H380.08V342.963H553.685V430.15ZM380.556 429.674H553.199V343.449H380.556V429.674Z" fill="#ACB9BE"/>
<path d="M364.338 317.129C364.338 326.034 357.105 333.257 348.169 333.257C339.234 333.257 332 326.034 332 317.129C332 308.223 339.234 301 348.169 301C357.105 301 364.338 308.223 364.338 317.129Z" fill="#FFB92E"/>
<path d="M347.237 323.106H348.787V317.838L353.994 310.179H352.221L348.017 316.45L343.853 310.179H342.02L347.247 317.838V323.106H347.237Z" fill="#4F6169"/>
<path d="M384.407 317.291C385.643 317.291 386.788 316.754 387.618 315.933L386.93 315.234C386.281 315.923 385.38 316.359 384.407 316.359C382.482 316.359 380.861 314.677 380.861 312.681C380.861 310.685 382.482 309.014 384.407 309.014C385.38 309.014 386.281 309.459 386.93 310.138L387.618 309.439C386.788 308.598 385.643 308.082 384.407 308.082C381.935 308.082 379.838 310.179 379.838 312.681C379.838 315.183 381.945 317.301 384.407 317.301V317.291ZM392.096 317.291C393.981 317.291 395.561 315.68 395.561 313.775C395.561 311.871 393.981 310.27 392.096 310.27C390.212 310.27 388.611 311.86 388.611 313.775C388.611 315.69 390.212 317.291 392.096 317.291ZM392.096 316.419C390.759 316.419 389.645 315.214 389.645 313.775C389.645 312.337 390.759 311.141 392.096 311.141C393.434 311.141 394.538 312.347 394.538 313.775C394.538 315.204 393.424 316.419 392.096 316.419ZM400.373 310.27C399.421 310.27 398.56 310.787 398.165 311.506V310.432H397.192V317.139H398.165V312.874C398.165 311.941 399.117 311.151 400.242 311.151C401.224 311.151 401.913 311.921 401.913 313.005V317.139H402.886V312.874C402.886 311.354 401.842 310.28 400.363 310.28L400.373 310.27ZM408.063 310.27C407.111 310.27 406.239 310.787 405.854 311.506V310.432H404.882V317.139H405.854V312.874C405.854 311.941 406.807 311.151 407.931 311.151C408.914 311.151 409.603 311.921 409.603 313.005V317.139H410.575V312.874C410.575 311.354 409.532 310.28 408.053 310.28L408.063 310.27ZM415.58 316.419C414.253 316.419 413.331 315.457 413.189 314.15H418.68C418.68 311.8 417.525 310.27 415.499 310.27C413.696 310.27 412.186 311.759 412.186 313.755C412.186 315.751 413.797 317.281 415.59 317.281C416.522 317.281 417.708 316.875 418.295 316.247L417.697 315.609C417.282 316.065 416.37 316.409 415.58 316.409V316.419ZM415.54 311.141C416.877 311.141 417.596 312.073 417.718 313.279H413.199C413.382 311.982 414.344 311.141 415.54 311.141ZM423.391 317.291C424.323 317.291 425.184 316.906 425.823 316.267L425.144 315.609C424.688 316.115 424.07 316.43 423.391 316.43C422.054 316.43 420.939 315.224 420.939 313.785C420.939 312.347 422.054 311.151 423.391 311.151C424.05 311.151 424.668 311.445 425.103 311.931L425.782 311.273C425.144 310.665 424.303 310.29 423.391 310.29C421.507 310.29 419.906 311.881 419.906 313.795C419.906 315.71 421.507 317.311 423.391 317.311V317.291ZM430.26 316.146C430.118 316.298 429.855 316.419 429.561 316.419C429.176 316.419 428.831 316.065 428.831 315.578V311.303H430.483V310.432H428.831V308.588H427.859V310.432H426.805V311.303H427.859V315.578C427.859 316.571 428.538 317.291 429.5 317.291C429.956 317.291 430.392 317.139 430.746 316.865L430.27 316.156L430.26 316.146ZM443.187 317.129H444.291L440.35 308.223H439.246L435.305 317.129H436.409L437.301 315.102H442.275L443.177 317.129H443.187ZM437.726 314.15L439.803 309.469L441.87 314.15H437.726ZM449.195 310.27C448.111 310.27 447.26 310.807 446.753 311.678V310.422H445.781V319.357H446.753V315.872C447.26 316.754 448.121 317.291 449.195 317.291C450.958 317.291 452.285 315.842 452.285 313.775C452.285 311.708 450.958 310.27 449.195 310.27ZM449.012 316.419C447.685 316.419 446.753 315.315 446.753 313.775C446.753 312.235 447.685 311.141 449.012 311.141C450.34 311.141 451.261 312.225 451.261 313.775C451.261 315.325 450.329 316.419 449.012 316.419ZM457.482 310.27C456.408 310.27 455.547 310.807 455.04 311.678V310.422H454.068V319.357H455.04V315.872C455.547 316.754 456.408 317.291 457.482 317.291C459.245 317.291 460.572 315.842 460.572 313.775C460.572 311.708 459.245 310.27 457.482 310.27ZM457.3 316.419C455.972 316.419 455.04 315.315 455.04 313.775C455.04 312.235 455.972 311.141 457.3 311.141C458.627 311.141 459.549 312.225 459.549 313.775C459.549 315.325 458.617 316.419 457.3 316.419ZM468.869 317.129H469.933V313.502L473.519 308.223H472.304L469.406 312.539L466.539 308.223H465.283L468.879 313.502V317.129H468.869Z" fill="#4F6169"/>
<rect x="317.5" y="277.5" width="293" height="175" stroke="#ACB8BE"/>
<g clip-path="url(#clip0_8673_7387)">
<rect x="635" y="277" width="293" height="176" fill="#FCFDFD"/>
<rect width="294" height="14" transform="translate(635 277)" fill="#859399"/>
<path d="M671.852 310.179H670.059L666.006 315.467L661.954 310.179H660.141L665.105 316.652L660.141 323.106H661.934L665.986 317.817L670.039 323.106H671.852L666.888 316.632L671.852 310.179Z" fill="white"/>
<path d="M871.757 342.882H698V355.637H871.767V342.882H871.757Z" fill="#CBD4D8"/>
<path d="M710.775 368.584C710.775 368.23 711.059 367.946 711.414 367.946H736.964C737.319 367.946 737.602 368.23 737.602 368.584C737.602 368.939 737.319 369.223 736.964 369.223H711.414C711.059 369.223 710.775 368.939 710.775 368.584Z" fill="#C5CED8"/>
<path d="M710.775 374.967C710.775 374.612 711.059 374.329 711.414 374.329H736.964C737.319 374.329 737.602 374.612 737.602 374.967C737.602 375.321 737.319 375.605 736.964 375.605H711.414C711.059 375.605 710.775 375.321 710.775 374.967Z" fill="#C5CED8"/>
<path d="M710.775 381.339C710.775 380.985 711.059 380.701 711.414 380.701H736.964C737.319 380.701 737.602 380.985 737.602 381.339C737.602 381.694 737.319 381.977 736.964 381.977H711.414C711.059 381.977 710.775 381.694 710.775 381.339Z" fill="#C5CED8"/>
<path d="M743.994 368.584C743.994 368.23 744.278 367.946 744.632 367.946H821.932C822.287 367.946 822.57 368.23 822.57 368.584C822.57 368.939 822.287 369.223 821.932 369.223H744.632C744.278 369.223 743.994 368.939 743.994 368.584Z" fill="#C5CED8"/>
<path d="M743.994 374.967C743.994 374.612 744.278 374.329 744.632 374.329H821.932C822.287 374.329 822.57 374.612 822.57 374.967C822.57 375.321 822.287 375.605 821.932 375.605H744.632C744.278 375.605 743.994 375.321 743.994 374.967Z" fill="#C5CED8"/>
<path d="M743.994 381.339C743.994 380.985 744.278 380.701 744.632 380.701H821.932C822.287 380.701 822.57 380.985 822.57 381.339C822.57 381.694 822.287 381.977 821.932 381.977H744.632C744.278 381.977 743.994 381.694 743.994 381.339Z" fill="#C5CED8"/>
<path d="M871.361 417.872H698.404V429.816H871.361V417.872Z" fill="white"/>
<path d="M871.666 430.12H698.102V417.568H871.666V430.12ZM698.709 429.512H871.058V418.175H698.709V429.512Z" fill="#ACB9BE"/>
<path d="M871.361 405.765H698.404V417.71H871.361V405.765Z" fill="white"/>
<path d="M871.666 418.013H698.102V405.461H871.666V418.013ZM698.709 417.406H871.058V406.069H698.709V417.406Z" fill="#ACB9BE"/>
<path d="M871.361 394.368H698.404V406.312H871.361V394.368Z" fill="white"/>
<path d="M871.666 406.616H698.102V394.064H871.666V406.616ZM698.709 406.008H871.058V394.672H698.709V406.008Z" fill="#ACB9BE"/>
<path d="M871.685 430.15H698.08V342.963H871.685V430.15ZM698.556 429.674H871.199V343.449H698.556V429.674Z" fill="#ACB9BE"/>
<path d="M682.338 317.129C682.338 326.034 675.105 333.257 666.169 333.257C657.233 333.257 650 326.034 650 317.129C650 308.223 657.233 301 666.169 301C675.105 301 682.338 308.223 682.338 317.129Z" fill="#0079AD"/>
<path d="M661.74 323.106H671.638V321.718H663.736L671.567 311.344V310.179H661.872V311.567H669.551L661.74 321.941V323.106Z" fill="white"/>
<path d="M702.397 317.291C703.633 317.291 704.778 316.754 705.609 315.933L704.92 315.234C704.271 315.923 703.37 316.359 702.397 316.359C700.472 316.359 698.851 314.677 698.851 312.681C698.851 310.685 700.472 309.014 702.397 309.014C703.37 309.014 704.271 309.459 704.92 310.138L705.609 309.439C704.778 308.598 703.633 308.082 702.397 308.082C699.925 308.082 697.828 310.179 697.828 312.681C697.828 315.183 699.935 317.301 702.397 317.301V317.291ZM710.087 317.291C711.971 317.291 713.551 315.68 713.551 313.775C713.551 311.871 711.971 310.27 710.087 310.27C708.202 310.27 706.602 311.86 706.602 313.775C706.602 315.69 708.202 317.291 710.087 317.291ZM710.087 316.419C708.749 316.419 707.635 315.214 707.635 313.775C707.635 312.337 708.749 311.141 710.087 311.141C711.424 311.141 712.528 312.347 712.528 313.775C712.528 315.204 711.414 316.419 710.087 316.419ZM718.364 310.27C717.411 310.27 716.55 310.787 716.155 311.506V310.432H715.183V317.139H716.155V312.874C716.155 311.941 717.107 311.151 718.232 311.151C719.215 311.151 719.904 311.921 719.904 313.005V317.139H720.876V312.874C720.876 311.354 719.833 310.28 718.354 310.28L718.364 310.27ZM726.053 310.27C725.101 310.27 724.23 310.787 723.845 311.506V310.432H722.872V317.139H723.845V312.874C723.845 311.941 724.797 311.151 725.921 311.151C726.904 311.151 727.593 311.921 727.593 313.005V317.139H728.566V312.874C728.566 311.354 727.522 310.28 726.043 310.28L726.053 310.27ZM733.57 316.419C732.243 316.419 731.321 315.457 731.179 314.15H736.67C736.67 311.8 735.515 310.27 733.489 310.27C731.686 310.27 730.176 311.759 730.176 313.755C730.176 315.751 731.787 317.281 733.58 317.281C734.513 317.281 735.698 316.875 736.285 316.247L735.688 315.609C735.272 316.065 734.361 316.409 733.57 316.409V316.419ZM733.53 311.141C734.867 311.141 735.586 312.073 735.708 313.279H731.19C731.372 311.982 732.334 311.141 733.53 311.141ZM741.381 317.291C742.313 317.291 743.175 316.906 743.813 316.267L743.134 315.609C742.678 316.115 742.06 316.43 741.381 316.43C740.044 316.43 738.93 315.224 738.93 313.785C738.93 312.347 740.044 311.151 741.381 311.151C742.04 311.151 742.658 311.445 743.093 311.931L743.772 311.273C743.134 310.665 742.293 310.29 741.381 310.29C739.497 310.29 737.896 311.881 737.896 313.795C737.896 315.71 739.497 317.311 741.381 317.311V317.291ZM748.25 316.146C748.108 316.298 747.845 316.419 747.551 316.419C747.166 316.419 746.822 316.065 746.822 315.578V311.303H748.473V310.432H746.822V308.588H745.849V310.432H744.796V311.303H745.849V315.578C745.849 316.571 746.528 317.291 747.49 317.291C747.946 317.291 748.382 317.139 748.736 316.865L748.26 316.156L748.25 316.146ZM761.177 317.129H762.282L758.341 308.223H757.236L753.295 317.129H754.4L755.291 315.102H760.266L761.167 317.129H761.177ZM755.717 314.15L757.794 309.469L759.86 314.15H755.717ZM767.185 310.27C766.101 310.27 765.25 310.807 764.743 311.678V310.422H763.771V319.357H764.743V315.872C765.25 316.754 766.111 317.291 767.185 317.291C768.948 317.291 770.275 315.842 770.275 313.775C770.275 311.708 768.948 310.27 767.185 310.27ZM767.003 316.419C765.675 316.419 764.743 315.315 764.743 313.775C764.743 312.235 765.675 311.141 767.003 311.141C768.33 311.141 769.252 312.225 769.252 313.775C769.252 315.325 768.32 316.419 767.003 316.419ZM775.472 310.27C774.398 310.27 773.537 310.807 773.031 311.678V310.422H772.058V319.357H773.031V315.872C773.537 316.754 774.398 317.291 775.472 317.291C777.235 317.291 778.562 315.842 778.562 313.775C778.562 311.708 777.235 310.27 775.472 310.27ZM775.29 316.419C773.963 316.419 773.031 315.315 773.031 313.775C773.031 312.235 773.963 311.141 775.29 311.141C776.617 311.141 777.539 312.225 777.539 313.775C777.539 315.325 776.607 316.419 775.29 316.419ZM783.78 317.129H790.598V316.166H785.157L790.547 309.024V308.223H783.871V309.186H789.159L783.78 316.328V317.129Z" fill="#4F6169"/>
</g>
<rect x="635.5" y="277.5" width="292" height="175" stroke="#ACB8BE"/>
<defs>
<clipPath id="clip0_8673_7387">
<rect x="635" y="277" width="293" height="176" fill="white"/>
</clipPath>
</defs>
</svg>
