<svg width="452" height="216" viewBox="0 0 452 216" fill="none" xmlns="http://www.w3.org/2000/svg">
<rect x="0.5" y="0.5" width="451" height="215" rx="3.5" fill="#FCFDFD"/>
<path d="M40.304 102.156C37.834 102.156 35.728 100.037 35.728 97.528C35.728 95.019 37.834 92.913 40.304 92.913C41.539 92.913 42.683 93.433 43.515 94.278L42.826 94.98C42.176 94.291 41.279 93.849 40.304 93.849C38.38 93.849 36.755 95.539 36.755 97.528C36.755 99.53 38.38 101.22 40.304 101.22C41.279 101.22 42.176 100.778 42.826 100.089L43.515 100.791C42.683 101.623 41.539 102.156 40.304 102.156ZM46.007 96.592C46.41 95.695 47.372 95.123 48.607 95.123V95.994C47.086 95.994 46.007 96.93 46.007 98.243V102H45.032V95.279H46.007V96.592ZM52.9203 101.285C53.7133 101.285 54.6233 100.934 55.0393 100.479L55.6373 101.116C55.0523 101.753 53.8693 102.156 52.9333 102.156C51.1393 102.156 49.5273 100.687 49.5273 98.62C49.5273 96.618 51.0353 95.123 52.8423 95.123C54.8703 95.123 56.0273 96.657 56.0273 99.01H50.5283C50.6713 100.323 51.5943 101.285 52.9203 101.285ZM52.8813 95.994C51.6853 95.994 50.7233 96.839 50.5413 98.139H55.0653C54.9353 96.93 54.2203 95.994 52.8813 95.994ZM59.9704 95.123C61.8034 95.123 62.7004 96.28 62.7004 97.905V102H61.7254V100.947C61.2444 101.74 60.2434 102.156 59.3594 102.156C57.9424 102.156 56.9024 101.337 56.9024 100.011C56.9024 98.672 58.0984 97.775 59.5414 97.775C60.2694 97.775 61.0364 97.931 61.7254 98.152V97.905C61.7254 96.995 61.3614 95.955 59.9054 95.955C59.2294 95.955 58.5534 96.254 57.9424 96.566L57.5524 95.773C58.5144 95.292 59.3204 95.123 59.9704 95.123ZM59.5284 101.298C60.4124 101.298 61.4654 100.843 61.7254 99.894V98.867C61.1144 98.698 60.4254 98.594 59.6974 98.594C58.6964 98.594 57.8514 99.166 57.8514 99.972C57.8514 100.804 58.5794 101.298 59.5284 101.298ZM67.3017 101.012L67.7827 101.727C67.4317 102 66.9897 102.156 66.5347 102.156C65.5727 102.156 64.8967 101.441 64.8967 100.44V96.15H63.8437V95.279H64.8967V93.433H65.8717V95.279H67.5227V96.15H65.8717V100.44C65.8717 100.934 66.2097 101.285 66.5997 101.285C66.8987 101.285 67.1587 101.168 67.3017 101.012ZM69.5771 94.057C69.2131 94.057 68.9271 93.758 68.9271 93.407C68.9271 93.069 69.2131 92.77 69.5771 92.77C69.9281 92.77 70.2141 93.069 70.2141 93.407C70.2141 93.758 69.9281 94.057 69.5771 94.057ZM69.0831 102V95.279H70.0581V102H69.0831ZM75.4055 95.123C76.9005 95.123 77.9275 96.176 77.9275 97.723V102H76.9525V97.853C76.9525 96.748 76.2635 95.994 75.2755 95.994C74.1315 95.994 73.1955 96.774 73.1955 97.723V102H72.2205V95.279H73.1955V96.345C73.5855 95.63 74.4435 95.123 75.4055 95.123ZM84.8811 95.279H85.8561V101.285C85.8561 103.014 84.4911 104.236 82.5541 104.236C81.4621 104.236 80.4481 103.859 79.8371 103.339L80.2661 102.572C80.7861 103.066 81.5921 103.365 82.4241 103.365C83.9711 103.365 84.8811 102.598 84.8811 101.285V100.193C84.3611 101.012 83.5031 101.506 82.4371 101.506C80.6301 101.506 79.3431 100.18 79.3431 98.308C79.3431 96.436 80.6301 95.123 82.4371 95.123C83.5031 95.123 84.3611 95.617 84.8811 96.436V95.279ZM82.6191 100.635C83.9451 100.635 84.8811 99.673 84.8811 98.308C84.8811 96.956 83.9451 95.994 82.6191 95.994C81.3061 95.994 80.3701 96.956 80.3701 98.308C80.3701 99.673 81.3061 100.635 82.6191 100.635ZM92.0816 104.34C91.6916 104.34 91.3276 104.262 91.0156 104.119L91.2496 103.287C91.4836 103.404 91.7566 103.456 92.0426 103.456C92.4716 103.456 92.7576 103.313 93.0176 102.858L93.4076 102.026L90.4826 95.279H91.5616L93.9146 100.869L96.1376 95.279H97.1906L94.1226 102.754C93.6546 103.898 93.0046 104.327 92.0816 104.34ZM101.252 102.156C99.3414 102.156 97.7814 100.57 97.7814 98.633C97.7814 96.696 99.3414 95.123 101.252 95.123C103.15 95.123 104.71 96.696 104.71 98.633C104.71 100.57 103.15 102.156 101.252 102.156ZM101.252 101.285C102.591 101.285 103.696 100.089 103.696 98.633C103.696 97.177 102.591 95.994 101.252 95.994C99.9004 95.994 98.7954 97.177 98.7954 98.633C98.7954 100.089 99.9004 101.285 101.252 101.285ZM110.866 95.279H111.841V102H110.866V100.934C110.476 101.649 109.618 102.156 108.656 102.156C107.161 102.156 106.134 101.103 106.134 99.556V95.279H107.109V99.426C107.109 100.531 107.798 101.285 108.786 101.285C109.93 101.285 110.866 100.505 110.866 99.556V95.279ZM114.972 96.592C115.375 95.695 116.337 95.123 117.572 95.123V95.994C116.051 95.994 114.972 96.93 114.972 98.243V102H113.997V95.279H114.972V96.592ZM124.937 95.123C126.77 95.123 127.667 96.28 127.667 97.905V102H126.692V100.947C126.211 101.74 125.21 102.156 124.326 102.156C122.909 102.156 121.869 101.337 121.869 100.011C121.869 98.672 123.065 97.775 124.508 97.775C125.236 97.775 126.003 97.931 126.692 98.152V97.905C126.692 96.995 126.328 95.955 124.872 95.955C124.196 95.955 123.52 96.254 122.909 96.566L122.519 95.773C123.481 95.292 124.287 95.123 124.937 95.123ZM124.495 101.298C125.379 101.298 126.432 100.843 126.692 99.894V98.867C126.081 98.698 125.392 98.594 124.664 98.594C123.663 98.594 122.818 99.166 122.818 99.972C122.818 100.804 123.546 101.298 124.495 101.298ZM132.554 102.156C130.669 102.156 129.07 100.544 129.07 98.633C129.07 96.722 130.669 95.123 132.554 95.123C133.464 95.123 134.309 95.5 134.946 96.111L134.27 96.774C133.828 96.293 133.217 95.994 132.554 95.994C131.215 95.994 130.097 97.203 130.097 98.633C130.097 100.076 131.215 101.285 132.554 101.285C133.23 101.285 133.854 100.973 134.309 100.466L134.985 101.129C134.348 101.766 133.49 102.156 132.554 102.156ZM139.195 102.156C137.31 102.156 135.711 100.544 135.711 98.633C135.711 96.722 137.31 95.123 139.195 95.123C140.105 95.123 140.95 95.5 141.587 96.111L140.911 96.774C140.469 96.293 139.858 95.994 139.195 95.994C137.856 95.994 136.738 97.203 136.738 98.633C136.738 100.076 137.856 101.285 139.195 101.285C139.871 101.285 140.495 100.973 140.95 100.466L141.626 101.129C140.989 101.766 140.131 102.156 139.195 102.156ZM145.837 102.156C143.926 102.156 142.366 100.57 142.366 98.633C142.366 96.696 143.926 95.123 145.837 95.123C147.735 95.123 149.295 96.696 149.295 98.633C149.295 100.57 147.735 102.156 145.837 102.156ZM145.837 101.285C147.176 101.285 148.281 100.089 148.281 98.633C148.281 97.177 147.176 95.994 145.837 95.994C144.485 95.994 143.38 97.177 143.38 98.633C143.38 100.089 144.485 101.285 145.837 101.285ZM155.45 95.279H156.425V102H155.45V100.934C155.06 101.649 154.202 102.156 153.24 102.156C151.745 102.156 150.718 101.103 150.718 99.556V95.279H151.693V99.426C151.693 100.531 152.382 101.285 153.37 101.285C154.514 101.285 155.45 100.505 155.45 99.556V95.279ZM161.767 95.123C163.262 95.123 164.289 96.176 164.289 97.723V102H163.314V97.853C163.314 96.748 162.625 95.994 161.637 95.994C160.493 95.994 159.557 96.774 159.557 97.723V102H158.582V95.279H159.557V96.345C159.947 95.63 160.805 95.123 161.767 95.123ZM168.889 101.012L169.37 101.727C169.019 102 168.577 102.156 168.122 102.156C167.16 102.156 166.484 101.441 166.484 100.44V96.15H165.431V95.279H166.484V93.433H167.459V95.279H169.11V96.15H167.459V100.44C167.459 100.934 167.797 101.285 168.187 101.285C168.486 101.285 168.746 101.168 168.889 101.012Z" fill="#22343C"/>
<path fill-rule="evenodd" clip-rule="evenodd" d="M35.1768 114H384.809V126H35.1768V114Z" fill="#E3EAED"/>
<path fill-rule="evenodd" clip-rule="evenodd" d="M35 114H210V126H35V114Z" fill="#0079AD"/>
<path d="M396.524 123.132C395.358 123.132 394.478 122.637 393.862 121.933L394.423 121.306C395.006 121.944 395.721 122.362 396.557 122.362C397.602 122.362 398.339 121.636 398.339 120.679C398.339 119.711 397.591 119.051 396.535 119.051C395.886 119.051 395.325 119.282 394.852 119.634L394.225 119.326L394.335 115.443H398.801V116.257H395.171L395.094 118.798C395.501 118.523 396.018 118.292 396.711 118.292C398.075 118.292 399.208 119.15 399.208 120.646C399.208 122.142 398.075 123.132 396.524 123.132ZM403.784 123.132C401.936 123.132 400.638 121.515 400.638 119.216C400.638 116.928 401.936 115.311 403.784 115.311C405.621 115.311 406.919 116.928 406.919 119.216C406.919 121.515 405.621 123.132 403.784 123.132ZM403.784 122.34C405.115 122.34 406.05 121.042 406.05 119.216C406.05 117.39 405.115 116.103 403.784 116.103C402.453 116.103 401.507 117.39 401.507 119.216C401.507 121.042 402.453 122.34 403.784 122.34ZM410.225 119.161C409.18 119.161 408.476 118.314 408.476 117.291C408.476 116.202 409.213 115.377 410.236 115.377C411.281 115.377 411.985 116.224 411.985 117.269C411.985 118.336 411.259 119.161 410.225 119.161ZM409.4 123L414.57 115.443H415.406L410.236 123H409.4ZM410.236 118.567C410.852 118.567 411.292 118.017 411.292 117.28C411.292 116.532 410.841 115.971 410.225 115.971C409.609 115.971 409.169 116.521 409.169 117.28C409.169 118.006 409.631 118.567 410.236 118.567ZM414.537 123.11C413.525 123.11 412.788 122.296 412.788 121.218C412.788 120.184 413.503 119.326 414.548 119.326C415.593 119.326 416.297 120.184 416.297 121.207C416.297 122.285 415.56 123.11 414.537 123.11ZM414.548 122.516C415.175 122.516 415.604 121.966 415.604 121.218C415.604 120.481 415.153 119.92 414.537 119.92C413.91 119.92 413.481 120.492 413.481 121.207C413.481 121.955 413.921 122.516 414.548 122.516Z" fill="#22343C"/>
<rect x="0.5" y="0.5" width="451" height="215" rx="3.5" stroke="#ACB8BE"/>
</svg>
