<svg width="452" height="312" viewBox="0 0 452 312" fill="none" xmlns="http://www.w3.org/2000/svg">
<rect x="0.5" y="0.5" width="451" height="311" rx="3.5" fill="#FCFDFD"/>
<rect x="24.5" y="24.5" width="403" height="263" fill="#FCFDFD"/>
<g clip-path="url(#clip0_8802_8319)">
<rect x="24" y="24" width="404" height="34" fill="#FCFDFD"/>
<path d="M43.103 44.1616L45.9451 40.7504L43.103 37.6803" stroke="black" stroke-linecap="round"/>
<path d="M66.566 43V37.672L65.486 38.374L65.18 37.852L66.701 36.817H67.268V43H66.566ZM69.5838 43.108C69.3048 43.108 69.0888 42.883 69.0888 42.613C69.0888 42.361 69.3048 42.136 69.5838 42.136C69.8448 42.136 70.0608 42.361 70.0608 42.613C70.0608 42.883 69.8448 43.108 69.5838 43.108Z" fill="#4F6169"/>
<path d="M105.177 43.108C103.665 43.108 102.594 42.001 102.594 40.435V36.817H103.296V40.435C103.296 41.623 104.079 42.469 105.177 42.469C106.275 42.469 107.058 41.623 107.058 40.435V36.817H107.76V40.435C107.76 42.001 106.689 43.108 105.177 43.108ZM110.701 43.108C110.053 43.108 109.333 42.865 108.775 42.415L109.126 41.92C109.657 42.307 110.188 42.505 110.701 42.505C111.313 42.505 111.727 42.217 111.727 41.776C111.727 41.272 111.187 41.11 110.557 40.93C109.432 40.606 109 40.273 109 39.607C109 38.761 109.702 38.239 110.629 38.239C111.205 38.239 111.799 38.437 112.294 38.761L111.97 39.283C111.502 38.986 111.043 38.842 110.629 38.842C110.107 38.842 109.675 39.076 109.675 39.526C109.675 39.931 110.017 40.057 110.881 40.336C111.628 40.57 112.402 40.822 112.402 41.704C112.402 42.559 111.664 43.108 110.701 43.108ZM115.421 42.505C115.97 42.505 116.6 42.262 116.888 41.947L117.302 42.388C116.897 42.829 116.078 43.108 115.43 43.108C114.188 43.108 113.072 42.091 113.072 40.66C113.072 39.274 114.116 38.239 115.367 38.239C116.771 38.239 117.572 39.301 117.572 40.93H113.765C113.864 41.839 114.503 42.505 115.421 42.505ZM115.394 38.842C114.566 38.842 113.9 39.427 113.774 40.327H116.906C116.816 39.49 116.321 38.842 115.394 38.842ZM119.281 39.256C119.56 38.635 120.226 38.239 121.081 38.239V38.842C120.028 38.842 119.281 39.49 119.281 40.399V43H118.606V38.347H119.281V39.256ZM124.279 38.239C125.314 38.239 126.025 38.968 126.025 40.039V43H125.35V40.129C125.35 39.364 124.873 38.842 124.189 38.842C123.397 38.842 122.749 39.382 122.749 40.039V43H122.074V38.347H122.749V39.085C123.019 38.59 123.613 38.239 124.279 38.239ZM129.045 38.239C130.314 38.239 130.935 39.04 130.935 40.165V43H130.26V42.271C129.927 42.82 129.234 43.108 128.622 43.108C127.641 43.108 126.921 42.541 126.921 41.623C126.921 40.696 127.749 40.075 128.748 40.075C129.252 40.075 129.783 40.183 130.26 40.336V40.165C130.26 39.535 130.008 38.815 129 38.815C128.532 38.815 128.064 39.022 127.641 39.238L127.371 38.689C128.037 38.356 128.595 38.239 129.045 38.239ZM128.739 42.514C129.351 42.514 130.08 42.199 130.26 41.542V40.831C129.837 40.714 129.36 40.642 128.856 40.642C128.163 40.642 127.578 41.038 127.578 41.596C127.578 42.172 128.082 42.514 128.739 42.514ZM137.32 38.239C138.292 38.239 138.976 38.986 138.976 40.039V43H138.301V40.129C138.301 39.373 137.86 38.842 137.23 38.842C136.492 38.842 135.97 39.337 135.97 40.039V43H135.295V40.129C135.295 39.373 134.854 38.842 134.224 38.842C133.486 38.842 132.964 39.337 132.964 40.039V43H132.289V38.347H132.964V39.031C133.198 38.545 133.702 38.239 134.314 38.239C135.052 38.239 135.628 38.671 135.862 39.346C136.006 38.689 136.582 38.239 137.32 38.239ZM142.299 42.505C142.848 42.505 143.478 42.262 143.766 41.947L144.18 42.388C143.775 42.829 142.956 43.108 142.308 43.108C141.066 43.108 139.95 42.091 139.95 40.66C139.95 39.274 140.994 38.239 142.245 38.239C143.649 38.239 144.45 39.301 144.45 40.93H140.643C140.742 41.839 141.381 42.505 142.299 42.505ZM142.272 38.842C141.444 38.842 140.778 39.427 140.652 40.327H143.784C143.694 39.49 143.199 38.842 142.272 38.842ZM149.527 38.239C150.796 38.239 151.417 39.04 151.417 40.165V43H150.742V42.271C150.409 42.82 149.716 43.108 149.104 43.108C148.123 43.108 147.403 42.541 147.403 41.623C147.403 40.696 148.231 40.075 149.23 40.075C149.734 40.075 150.265 40.183 150.742 40.336V40.165C150.742 39.535 150.49 38.815 149.482 38.815C149.014 38.815 148.546 39.022 148.123 39.238L147.853 38.689C148.519 38.356 149.077 38.239 149.527 38.239ZM149.221 42.514C149.833 42.514 150.562 42.199 150.742 41.542V40.831C150.319 40.714 149.842 40.642 149.338 40.642C148.645 40.642 148.06 41.038 148.06 41.596C148.06 42.172 148.564 42.514 149.221 42.514ZM154.977 38.239C156.012 38.239 156.723 38.968 156.723 40.039V43H156.048V40.129C156.048 39.364 155.571 38.842 154.887 38.842C154.095 38.842 153.447 39.382 153.447 40.039V43H152.772V38.347H153.447V39.085C153.717 38.59 154.311 38.239 154.977 38.239ZM161.552 36.709H162.227V43H161.552V42.127C161.201 42.739 160.607 43.108 159.86 43.108C158.636 43.108 157.718 42.1 157.718 40.669C157.718 39.247 158.636 38.239 159.86 38.239C160.607 38.239 161.201 38.608 161.552 39.22V36.709ZM159.986 42.505C160.904 42.505 161.552 41.74 161.552 40.669C161.552 39.598 160.904 38.842 159.986 38.842C159.077 38.842 158.429 39.598 158.429 40.669C158.429 41.74 159.077 42.505 159.986 42.505ZM168.436 38.239C169.66 38.239 170.578 39.247 170.578 40.669C170.578 42.1 169.66 43.108 168.436 43.108C167.689 43.108 167.095 42.739 166.744 42.127V44.548H166.069V38.347H166.744V39.22C167.095 38.608 167.689 38.239 168.436 38.239ZM168.31 42.505C169.219 42.505 169.867 41.74 169.867 40.669C169.867 39.598 169.219 38.842 168.31 38.842C167.392 38.842 166.744 39.598 166.744 40.669C166.744 41.74 167.392 42.505 168.31 42.505ZM173.347 38.239C174.616 38.239 175.237 39.04 175.237 40.165V43H174.562V42.271C174.229 42.82 173.536 43.108 172.924 43.108C171.943 43.108 171.223 42.541 171.223 41.623C171.223 40.696 172.051 40.075 173.05 40.075C173.554 40.075 174.085 40.183 174.562 40.336V40.165C174.562 39.535 174.31 38.815 173.302 38.815C172.834 38.815 172.366 39.022 171.943 39.238L171.673 38.689C172.339 38.356 172.897 38.239 173.347 38.239ZM173.041 42.514C173.653 42.514 174.382 42.199 174.562 41.542V40.831C174.139 40.714 173.662 40.642 173.158 40.642C172.465 40.642 171.88 41.038 171.88 41.596C171.88 42.172 172.384 42.514 173.041 42.514ZM178.032 43.108C177.384 43.108 176.664 42.865 176.106 42.415L176.457 41.92C176.988 42.307 177.519 42.505 178.032 42.505C178.644 42.505 179.058 42.217 179.058 41.776C179.058 41.272 178.518 41.11 177.888 40.93C176.763 40.606 176.331 40.273 176.331 39.607C176.331 38.761 177.033 38.239 177.96 38.239C178.536 38.239 179.13 38.437 179.625 38.761L179.301 39.283C178.833 38.986 178.374 38.842 177.96 38.842C177.438 38.842 177.006 39.076 177.006 39.526C177.006 39.931 177.348 40.057 178.212 40.336C178.959 40.57 179.733 40.822 179.733 41.704C179.733 42.559 178.995 43.108 178.032 43.108ZM182.229 43.108C181.581 43.108 180.861 42.865 180.303 42.415L180.654 41.92C181.185 42.307 181.716 42.505 182.229 42.505C182.841 42.505 183.255 42.217 183.255 41.776C183.255 41.272 182.715 41.11 182.085 40.93C180.96 40.606 180.528 40.273 180.528 39.607C180.528 38.761 181.23 38.239 182.157 38.239C182.733 38.239 183.327 38.437 183.822 38.761L183.498 39.283C183.03 38.986 182.571 38.842 182.157 38.842C181.635 38.842 181.203 39.076 181.203 39.526C181.203 39.931 181.545 40.057 182.409 40.336C183.156 40.57 183.93 40.822 183.93 41.704C183.93 42.559 183.192 43.108 182.229 43.108ZM185.905 43L184.348 38.347H185.068L186.229 42.1L187.498 38.347H188.083L189.352 42.1L190.513 38.347H191.233L189.667 43H189.028L187.795 39.283L186.544 43H185.905ZM194.057 43.108C192.734 43.108 191.654 42.01 191.654 40.669C191.654 39.328 192.734 38.239 194.057 38.239C195.371 38.239 196.451 39.328 196.451 40.669C196.451 42.01 195.371 43.108 194.057 43.108ZM194.057 42.505C194.984 42.505 195.749 41.677 195.749 40.669C195.749 39.661 194.984 38.842 194.057 38.842C193.121 38.842 192.356 39.661 192.356 40.669C192.356 41.677 193.121 42.505 194.057 42.505ZM198.189 39.256C198.468 38.635 199.134 38.239 199.989 38.239V38.842C198.936 38.842 198.189 39.49 198.189 40.399V43H197.514V38.347H198.189V39.256ZM204.456 36.709H205.131V43H204.456V42.127C204.105 42.739 203.511 43.108 202.764 43.108C201.54 43.108 200.622 42.1 200.622 40.669C200.622 39.247 201.54 38.239 202.764 38.239C203.511 38.239 204.105 38.608 204.456 39.22V36.709ZM202.89 42.505C203.808 42.505 204.456 41.74 204.456 40.669C204.456 39.598 203.808 38.842 202.89 38.842C201.981 38.842 201.333 39.598 201.333 40.669C201.333 41.74 201.981 42.505 202.89 42.505Z" fill="#4F6169"/>
<path d="M252.08 37.501C251.828 37.501 251.63 37.294 251.63 37.051C251.63 36.817 251.828 36.61 252.08 36.61C252.323 36.61 252.521 36.817 252.521 37.051C252.521 37.294 252.323 37.501 252.08 37.501ZM251.279 44.602C251.027 44.602 250.73 44.539 250.55 44.458L250.658 43.9C250.802 43.954 251.045 43.999 251.234 43.999C251.531 43.999 251.738 43.756 251.738 43.414V38.347H252.413V43.414C252.413 44.107 251.945 44.602 251.279 44.602ZM255.501 38.239C256.77 38.239 257.391 39.04 257.391 40.165V43H256.716V42.271C256.383 42.82 255.69 43.108 255.078 43.108C254.097 43.108 253.377 42.541 253.377 41.623C253.377 40.696 254.205 40.075 255.204 40.075C255.708 40.075 256.239 40.183 256.716 40.336V40.165C256.716 39.535 256.464 38.815 255.456 38.815C254.988 38.815 254.52 39.022 254.097 39.238L253.827 38.689C254.493 38.356 255.051 38.239 255.501 38.239ZM255.195 42.514C255.807 42.514 256.536 42.199 256.716 41.542V40.831C256.293 40.714 255.816 40.642 255.312 40.642C254.619 40.642 254.034 41.038 254.034 41.596C254.034 42.172 254.538 42.514 255.195 42.514ZM260.744 43.108C259.439 43.108 258.332 41.992 258.332 40.669C258.332 39.346 259.439 38.239 260.744 38.239C261.374 38.239 261.959 38.5 262.4 38.923L261.932 39.382C261.626 39.049 261.203 38.842 260.744 38.842C259.817 38.842 259.043 39.679 259.043 40.669C259.043 41.668 259.817 42.505 260.744 42.505C261.212 42.505 261.644 42.289 261.959 41.938L262.427 42.397C261.986 42.838 261.392 43.108 260.744 43.108ZM263.313 43V36.709H263.988V40.921L266.535 38.347H267.399L265.302 40.48L267.282 43H266.436L264.825 40.939L263.988 41.767V43H263.313ZM268.495 37.501C268.243 37.501 268.045 37.294 268.045 37.051C268.045 36.817 268.243 36.61 268.495 36.61C268.738 36.61 268.936 36.817 268.936 37.051C268.936 37.294 268.738 37.501 268.495 37.501ZM268.153 43V38.347H268.828V43H268.153ZM272.256 42.505C272.805 42.505 273.435 42.262 273.723 41.947L274.137 42.388C273.732 42.829 272.913 43.108 272.265 43.108C271.023 43.108 269.907 42.091 269.907 40.66C269.907 39.274 270.951 38.239 272.202 38.239C273.606 38.239 274.407 39.301 274.407 40.93H270.6C270.699 41.839 271.338 42.505 272.256 42.505ZM272.229 38.842C271.401 38.842 270.735 39.427 270.609 40.327H273.741C273.651 39.49 273.156 38.842 272.229 38.842ZM278.753 44.044C276.89 44.044 275.315 42.505 275.315 40.669C275.315 38.635 277.034 36.925 279.077 36.925C280.913 36.925 282.452 38.392 282.452 40.129C282.452 41.596 281.624 42.298 280.832 42.298C280.274 42.298 279.896 42.001 279.797 41.524C279.464 41.956 278.96 42.298 278.339 42.298C277.475 42.298 276.845 41.677 276.845 40.741C276.845 39.481 277.898 38.491 278.942 38.491C279.581 38.491 279.977 38.833 280.175 39.22L280.292 38.626L280.895 38.671C280.616 40.102 280.418 41.056 280.418 41.281C280.418 41.659 280.652 41.875 281.012 41.875C281.507 41.875 282.128 41.389 282.128 40.129C282.128 38.563 280.724 37.249 279.059 37.249C277.214 37.249 275.657 38.806 275.657 40.66C275.657 42.325 277.079 43.729 278.771 43.729C279.509 43.729 280.058 43.576 280.715 43.18L280.877 43.423C280.184 43.864 279.572 44.044 278.753 44.044ZM278.501 41.767C279.347 41.767 279.887 41.074 279.977 40.201C280.049 39.481 279.734 39.022 279.023 39.022C278.195 39.022 277.493 39.805 277.493 40.705C277.493 41.344 277.889 41.767 278.501 41.767ZM285.759 43.108C284.454 43.108 283.347 41.992 283.347 40.669C283.347 39.346 284.454 38.239 285.759 38.239C286.389 38.239 286.974 38.5 287.415 38.923L286.947 39.382C286.641 39.049 286.218 38.842 285.759 38.842C284.832 38.842 284.058 39.679 284.058 40.669C284.058 41.668 284.832 42.505 285.759 42.505C286.227 42.505 286.659 42.289 286.974 41.938L287.442 42.397C287.001 42.838 286.407 43.108 285.759 43.108ZM288.328 43V36.709H289.003V43H288.328ZM292.134 38.239C293.403 38.239 294.024 39.04 294.024 40.165V43H293.349V42.271C293.016 42.82 292.323 43.108 291.711 43.108C290.73 43.108 290.01 42.541 290.01 41.623C290.01 40.696 290.838 40.075 291.837 40.075C292.341 40.075 292.872 40.183 293.349 40.336V40.165C293.349 39.535 293.097 38.815 292.089 38.815C291.621 38.815 291.153 39.022 290.73 39.238L290.46 38.689C291.126 38.356 291.684 38.239 292.134 38.239ZM291.828 42.514C292.44 42.514 293.169 42.199 293.349 41.542V40.831C292.926 40.714 292.449 40.642 291.945 40.642C291.252 40.642 290.667 41.038 290.667 41.596C290.667 42.172 291.171 42.514 291.828 42.514ZM296.054 39.256C296.333 38.635 296.999 38.239 297.854 38.239V38.842C296.801 38.842 296.054 39.49 296.054 40.399V43H295.379V38.347H296.054V39.256ZM299.189 37.501C298.937 37.501 298.739 37.294 298.739 37.051C298.739 36.817 298.937 36.61 299.189 36.61C299.432 36.61 299.63 36.817 299.63 37.051C299.63 37.294 299.432 37.501 299.189 37.501ZM298.847 43V38.347H299.522V43H298.847ZM302.788 42.316L303.121 42.811C302.878 43 302.572 43.108 302.257 43.108C301.591 43.108 301.123 42.613 301.123 41.92V38.95H300.394V38.347H301.123V37.069H301.798V38.347H302.941V38.95H301.798V41.92C301.798 42.262 302.032 42.505 302.302 42.505C302.509 42.505 302.689 42.424 302.788 42.316ZM304.396 44.62C304.126 44.62 303.874 44.566 303.658 44.467L303.82 43.891C303.982 43.972 304.171 44.008 304.369 44.008C304.666 44.008 304.864 43.909 305.044 43.594L305.314 43.018L303.289 38.347H304.036L305.665 42.217L307.204 38.347H307.933L305.809 43.522C305.485 44.314 305.035 44.611 304.396 44.62ZM309.4 43.108C309.121 43.108 308.905 42.883 308.905 42.613C308.905 42.361 309.121 42.136 309.4 42.136C309.661 42.136 309.877 42.361 309.877 42.613C309.877 42.883 309.661 43.108 309.4 43.108ZM313.532 43.108C312.227 43.108 311.12 41.992 311.12 40.669C311.12 39.346 312.227 38.239 313.532 38.239C314.162 38.239 314.747 38.5 315.188 38.923L314.72 39.382C314.414 39.049 313.991 38.842 313.532 38.842C312.605 38.842 311.831 39.679 311.831 40.669C311.831 41.668 312.605 42.505 313.532 42.505C314 42.505 314.432 42.289 314.747 41.938L315.215 42.397C314.774 42.838 314.18 43.108 313.532 43.108ZM318.099 43.108C316.776 43.108 315.696 42.01 315.696 40.669C315.696 39.328 316.776 38.239 318.099 38.239C319.413 38.239 320.493 39.328 320.493 40.669C320.493 42.01 319.413 43.108 318.099 43.108ZM318.099 42.505C319.026 42.505 319.791 41.677 319.791 40.669C319.791 39.661 319.026 38.842 318.099 38.842C317.163 38.842 316.398 39.661 316.398 40.669C316.398 41.677 317.163 42.505 318.099 42.505ZM326.587 38.239C327.559 38.239 328.243 38.986 328.243 40.039V43H327.568V40.129C327.568 39.373 327.127 38.842 326.497 38.842C325.759 38.842 325.237 39.337 325.237 40.039V43H324.562V40.129C324.562 39.373 324.121 38.842 323.491 38.842C322.753 38.842 322.231 39.337 322.231 40.039V43H321.556V38.347H322.231V39.031C322.465 38.545 322.969 38.239 323.581 38.239C324.319 38.239 324.895 38.671 325.129 39.346C325.273 38.689 325.849 38.239 326.587 38.239Z" fill="#4F6169"/>
<path d="M29.4011 24H24V59H29.4011V24Z" fill="#41800E"/>
</g>
<rect x="24.5" y="24.5" width="403" height="33" stroke="#ACB8BE"/>
<g clip-path="url(#clip1_8802_8319)">
<rect x="24" y="57" width="404" height="34" fill="#FCFDFD"/>
<path d="M43.103 77.1616L45.9451 73.7504L43.103 70.6803" stroke="black" stroke-linecap="round"/>
<path d="M65.306 76V75.415L67.565 73.489C68.438 72.742 68.798 72.148 68.798 71.536C68.798 70.78 68.168 70.339 67.511 70.339C66.791 70.339 66.278 70.726 65.855 71.302L65.36 70.897C65.873 70.168 66.566 69.709 67.538 69.709C68.609 69.709 69.509 70.42 69.509 71.527C69.509 72.364 69.095 73.03 68.051 73.93L66.431 75.334H69.572V76H65.306ZM71.4559 76.108C71.1769 76.108 70.9609 75.883 70.9609 75.613C70.9609 75.361 71.1769 75.136 71.4559 75.136C71.7169 75.136 71.9329 75.361 71.9329 75.613C71.9329 75.883 71.7169 76.108 71.4559 76.108Z" fill="#4F6169"/>
<path d="M102.756 76V69.817H105.591C106.59 69.817 107.292 70.456 107.292 71.356C107.292 72.013 106.968 72.391 106.41 72.715C107.121 73.075 107.535 73.633 107.535 74.308C107.535 75.298 106.77 76 105.699 76H102.756ZM103.458 72.436H105.411C106.095 72.436 106.581 72.022 106.581 71.446C106.581 70.87 106.095 70.456 105.411 70.456H103.458V72.436ZM103.458 75.361H105.519C106.284 75.361 106.824 74.884 106.824 74.218C106.824 73.552 106.284 73.075 105.519 73.075H103.458V75.361ZM110.452 71.239C111.721 71.239 112.342 72.04 112.342 73.165V76H111.667V75.271C111.334 75.82 110.641 76.108 110.029 76.108C109.048 76.108 108.328 75.541 108.328 74.623C108.328 73.696 109.156 73.075 110.155 73.075C110.659 73.075 111.19 73.183 111.667 73.336V73.165C111.667 72.535 111.415 71.815 110.407 71.815C109.939 71.815 109.471 72.022 109.048 72.238L108.778 71.689C109.444 71.356 110.002 71.239 110.452 71.239ZM110.146 75.514C110.758 75.514 111.487 75.199 111.667 74.542V73.831C111.244 73.714 110.767 73.642 110.263 73.642C109.57 73.642 108.985 74.038 108.985 74.596C108.985 75.172 109.489 75.514 110.146 75.514ZM115.136 76.108C114.488 76.108 113.768 75.865 113.21 75.415L113.561 74.92C114.092 75.307 114.623 75.505 115.136 75.505C115.748 75.505 116.162 75.217 116.162 74.776C116.162 74.272 115.622 74.11 114.992 73.93C113.867 73.606 113.435 73.273 113.435 72.607C113.435 71.761 114.137 71.239 115.064 71.239C115.64 71.239 116.234 71.437 116.729 71.761L116.405 72.283C115.937 71.986 115.478 71.842 115.064 71.842C114.542 71.842 114.11 72.076 114.11 72.526C114.11 72.931 114.452 73.057 115.316 73.336C116.063 73.57 116.837 73.822 116.837 74.704C116.837 75.559 116.099 76.108 115.136 76.108ZM118.236 70.501C117.984 70.501 117.786 70.294 117.786 70.051C117.786 69.817 117.984 69.61 118.236 69.61C118.479 69.61 118.677 69.817 118.677 70.051C118.677 70.294 118.479 70.501 118.236 70.501ZM117.894 76V71.347H118.569V76H117.894ZM122.033 76.108C120.728 76.108 119.621 74.992 119.621 73.669C119.621 72.346 120.728 71.239 122.033 71.239C122.663 71.239 123.248 71.5 123.689 71.923L123.221 72.382C122.915 72.049 122.492 71.842 122.033 71.842C121.106 71.842 120.332 72.679 120.332 73.669C120.332 74.668 121.106 75.505 122.033 75.505C122.501 75.505 122.933 75.289 123.248 74.938L123.716 75.397C123.275 75.838 122.681 76.108 122.033 76.108ZM127.323 70.501C127.071 70.501 126.873 70.294 126.873 70.051C126.873 69.817 127.071 69.61 127.323 69.61C127.566 69.61 127.764 69.817 127.764 70.051C127.764 70.294 127.566 70.501 127.323 70.501ZM126.981 76V71.347H127.656V76H126.981ZM131.327 71.239C132.362 71.239 133.073 71.968 133.073 73.039V76H132.398V73.129C132.398 72.364 131.921 71.842 131.237 71.842C130.445 71.842 129.797 72.382 129.797 73.039V76H129.122V71.347H129.797V72.085C130.067 71.59 130.661 71.239 131.327 71.239ZM135.264 70.708V71.347H136.407V71.95H135.264V76H134.589V71.95H133.86V71.347H134.589V70.708C134.589 70.015 135.057 69.52 135.723 69.52C136.038 69.52 136.344 69.628 136.587 69.817L136.254 70.312C136.155 70.204 135.975 70.123 135.768 70.123C135.498 70.123 135.264 70.366 135.264 70.708ZM139.182 76.108C137.859 76.108 136.779 75.01 136.779 73.669C136.779 72.328 137.859 71.239 139.182 71.239C140.496 71.239 141.576 72.328 141.576 73.669C141.576 75.01 140.496 76.108 139.182 76.108ZM139.182 75.505C140.109 75.505 140.874 74.677 140.874 73.669C140.874 72.661 140.109 71.842 139.182 71.842C138.246 71.842 137.481 72.661 137.481 73.669C137.481 74.677 138.246 75.505 139.182 75.505ZM143.313 72.256C143.592 71.635 144.258 71.239 145.113 71.239V71.842C144.06 71.842 143.313 72.49 143.313 73.399V76H142.638V71.347H143.313V72.256ZM151.138 71.239C152.11 71.239 152.794 71.986 152.794 73.039V76H152.119V73.129C152.119 72.373 151.678 71.842 151.048 71.842C150.31 71.842 149.788 72.337 149.788 73.039V76H149.113V73.129C149.113 72.373 148.672 71.842 148.042 71.842C147.304 71.842 146.782 72.337 146.782 73.039V76H146.107V71.347H146.782V72.031C147.016 71.545 147.52 71.239 148.132 71.239C148.87 71.239 149.446 71.671 149.68 72.346C149.824 71.689 150.4 71.239 151.138 71.239ZM155.819 71.239C157.088 71.239 157.709 72.04 157.709 73.165V76H157.034V75.271C156.701 75.82 156.008 76.108 155.396 76.108C154.415 76.108 153.695 75.541 153.695 74.623C153.695 73.696 154.523 73.075 155.522 73.075C156.026 73.075 156.557 73.183 157.034 73.336V73.165C157.034 72.535 156.782 71.815 155.774 71.815C155.306 71.815 154.838 72.022 154.415 72.238L154.145 71.689C154.811 71.356 155.369 71.239 155.819 71.239ZM155.513 75.514C156.125 75.514 156.854 75.199 157.034 74.542V73.831C156.611 73.714 156.134 73.642 155.63 73.642C154.937 73.642 154.352 74.038 154.352 74.596C154.352 75.172 154.856 75.514 155.513 75.514ZM160.864 75.316L161.197 75.811C160.954 76 160.648 76.108 160.333 76.108C159.667 76.108 159.199 75.613 159.199 74.92V71.95H158.47V71.347H159.199V70.069H159.874V71.347H161.017V71.95H159.874V74.92C159.874 75.262 160.108 75.505 160.378 75.505C160.585 75.505 160.765 75.424 160.864 75.316ZM162.409 70.501C162.157 70.501 161.959 70.294 161.959 70.051C161.959 69.817 162.157 69.61 162.409 69.61C162.652 69.61 162.85 69.817 162.85 70.051C162.85 70.294 162.652 70.501 162.409 70.501ZM162.067 76V71.347H162.742V76H162.067ZM166.206 76.108C164.883 76.108 163.803 75.01 163.803 73.669C163.803 72.328 164.883 71.239 166.206 71.239C167.52 71.239 168.6 72.328 168.6 73.669C168.6 75.01 167.52 76.108 166.206 76.108ZM166.206 75.505C167.133 75.505 167.898 74.677 167.898 73.669C167.898 72.661 167.133 71.842 166.206 71.842C165.27 71.842 164.505 72.661 164.505 73.669C164.505 74.677 165.27 75.505 166.206 75.505ZM171.867 71.239C172.902 71.239 173.613 71.968 173.613 73.039V76H172.938V73.129C172.938 72.364 172.461 71.842 171.777 71.842C170.985 71.842 170.337 72.382 170.337 73.039V76H169.662V71.347H170.337V72.085C170.607 71.59 171.201 71.239 171.867 71.239Z" fill="#4F6169"/>
<path d="M29.4011 57H24V92H29.4011V57Z" fill="#41800E"/>
<path d="M254.024 72.139C255.149 72.139 256.094 72.841 256.094 74.065C256.094 75.208 255.203 76.108 253.916 76.108C252.242 76.108 251.567 74.749 251.567 73.003C251.567 71.158 252.665 69.709 254.069 69.709C254.825 69.709 255.365 70.006 255.824 70.447L255.437 70.996C255.05 70.618 254.645 70.348 254.051 70.348C253.061 70.348 252.278 71.518 252.278 73.003V73.084C252.656 72.49 253.295 72.139 254.024 72.139ZM253.907 75.505C254.834 75.505 255.383 74.785 255.383 74.101C255.383 73.255 254.726 72.742 253.898 72.742C253.115 72.742 252.512 73.21 252.359 73.894C252.539 74.83 253.043 75.505 253.907 75.505ZM259.119 76.108C258.165 76.108 257.445 75.703 256.941 75.127L257.4 74.614C257.877 75.136 258.462 75.478 259.146 75.478C260.001 75.478 260.604 74.884 260.604 74.101C260.604 73.309 259.992 72.769 259.128 72.769C258.597 72.769 258.138 72.958 257.751 73.246L257.238 72.994L257.328 69.817H260.982V70.483H258.012L257.949 72.562C258.282 72.337 258.705 72.148 259.272 72.148C260.388 72.148 261.315 72.85 261.315 74.074C261.315 75.298 260.388 76.108 259.119 76.108ZM264.795 76.108C263.283 76.108 262.221 74.785 262.221 72.904C262.221 71.032 263.283 69.709 264.795 69.709C266.298 69.709 267.36 71.032 267.36 72.904C267.36 74.785 266.298 76.108 264.795 76.108ZM264.795 75.46C265.884 75.46 266.649 74.398 266.649 72.904C266.649 71.41 265.884 70.357 264.795 70.357C263.706 70.357 262.932 71.41 262.932 72.904C262.932 74.398 263.706 75.46 264.795 75.46ZM268.578 73.885V73.228H270.909V73.885H268.578ZM273.145 76V70.672L272.065 71.374L271.759 70.852L273.28 69.817H273.847V76H273.145ZM275.002 76V75.415L277.261 73.489C278.134 72.742 278.494 72.148 278.494 71.536C278.494 70.78 277.864 70.339 277.207 70.339C276.487 70.339 275.974 70.726 275.551 71.302L275.056 70.897C275.569 70.168 276.262 69.709 277.234 69.709C278.305 69.709 279.205 70.42 279.205 71.527C279.205 72.364 278.791 73.03 277.747 73.93L276.127 75.334H279.268V76H275.002ZM282.205 76.108C281.188 76.108 280.405 75.64 279.955 75.046L280.441 74.587C280.846 75.109 281.449 75.469 282.205 75.469C283.069 75.469 283.645 74.992 283.645 74.29C283.645 73.561 283.024 73.192 282.052 73.192H281.395V72.544L282.061 72.553C282.889 72.562 283.51 72.166 283.51 71.464C283.51 70.816 282.916 70.348 282.142 70.348C281.458 70.348 280.972 70.69 280.531 71.221L280.063 70.798C280.531 70.177 281.215 69.709 282.178 69.709C283.357 69.709 284.221 70.393 284.221 71.383C284.221 72.175 283.663 72.643 283.024 72.832C283.654 72.976 284.356 73.435 284.356 74.326C284.356 75.361 283.492 76.108 282.205 76.108ZM285.597 73.885V73.228H287.928V73.885H285.597ZM292.019 76V74.497H288.932L288.842 73.912L291.911 69.817H292.721V73.858H293.648V74.497H292.721V76H292.019ZM289.643 73.858H292.019V70.663L289.643 73.858ZM296.463 76.108C295.509 76.108 294.789 75.703 294.285 75.127L294.744 74.614C295.221 75.136 295.806 75.478 296.49 75.478C297.345 75.478 297.948 74.884 297.948 74.101C297.948 73.309 297.336 72.769 296.472 72.769C295.941 72.769 295.482 72.958 295.095 73.246L294.582 72.994L294.672 69.817H298.326V70.483H295.356L295.293 72.562C295.626 72.337 296.049 72.148 296.616 72.148C297.732 72.148 298.659 72.85 298.659 74.074C298.659 75.298 297.732 76.108 296.463 76.108ZM302.049 72.139C303.174 72.139 304.119 72.841 304.119 74.065C304.119 75.208 303.228 76.108 301.941 76.108C300.267 76.108 299.592 74.749 299.592 73.003C299.592 71.158 300.69 69.709 302.094 69.709C302.85 69.709 303.39 70.006 303.849 70.447L303.462 70.996C303.075 70.618 302.67 70.348 302.076 70.348C301.086 70.348 300.303 71.518 300.303 73.003V73.084C300.681 72.49 301.32 72.139 302.049 72.139ZM301.932 75.505C302.859 75.505 303.408 74.785 303.408 74.101C303.408 73.255 302.751 72.742 301.923 72.742C301.14 72.742 300.537 73.21 300.384 73.894C300.564 74.83 301.068 75.505 301.932 75.505ZM305.38 76L308.017 70.483H304.669V69.817H308.854V70.348L306.19 76H305.38Z" fill="#4F6169"/>
</g>
<rect x="24.5" y="57.5" width="403" height="33" stroke="#ACB8BE"/>
<g clip-path="url(#clip2_8802_8319)">
<rect x="24" y="90" width="404" height="34" fill="#E0F6FF"/>
<path d="M41.2834 105.5L44.6946 108.342L47.7647 105.5" stroke="black" stroke-linecap="round"/>
<path d="M67.52 109.108C66.503 109.108 65.72 108.64 65.27 108.046L65.756 107.587C66.161 108.109 66.764 108.469 67.52 108.469C68.384 108.469 68.96 107.992 68.96 107.29C68.96 106.561 68.339 106.192 67.367 106.192H66.71V105.544L67.376 105.553C68.204 105.562 68.825 105.166 68.825 104.464C68.825 103.816 68.231 103.348 67.457 103.348C66.773 103.348 66.287 103.69 65.846 104.221L65.378 103.798C65.846 103.177 66.53 102.709 67.493 102.709C68.672 102.709 69.536 103.393 69.536 104.383C69.536 105.175 68.978 105.643 68.339 105.832C68.969 105.976 69.671 106.435 69.671 107.326C69.671 108.361 68.807 109.108 67.52 109.108ZM71.6053 109.108C71.3263 109.108 71.1103 108.883 71.1103 108.613C71.1103 108.361 71.3263 108.136 71.6053 108.136C71.8663 108.136 72.0823 108.361 72.0823 108.613C72.0823 108.883 71.8663 109.108 71.6053 109.108Z" fill="#4F6169"/>
<path d="M102.756 109V102.817H105.267C106.545 102.817 107.544 103.636 107.544 104.797C107.544 105.958 106.545 106.777 105.267 106.777H103.458V109H102.756ZM103.458 106.111H105.141C106.149 106.111 106.833 105.625 106.833 104.797C106.833 103.969 106.149 103.483 105.141 103.483H103.458V106.111ZM109.295 105.256C109.574 104.635 110.24 104.239 111.095 104.239V104.842C110.042 104.842 109.295 105.49 109.295 106.399V109H108.62V104.347H109.295V105.256ZM114.05 108.505C114.599 108.505 115.229 108.262 115.517 107.947L115.931 108.388C115.526 108.829 114.707 109.108 114.059 109.108C112.817 109.108 111.701 108.091 111.701 106.66C111.701 105.274 112.745 104.239 113.996 104.239C115.4 104.239 116.201 105.301 116.201 106.93H112.394C112.493 107.839 113.132 108.505 114.05 108.505ZM114.023 104.842C113.195 104.842 112.529 105.427 112.403 106.327H115.535C115.445 105.49 114.95 104.842 114.023 104.842ZM118.072 103.708V104.347H119.215V104.95H118.072V109H117.397V104.95H116.668V104.347H117.397V103.708C117.397 103.015 117.865 102.52 118.531 102.52C118.846 102.52 119.152 102.628 119.395 102.817L119.062 103.312C118.963 103.204 118.783 103.123 118.576 103.123C118.306 103.123 118.072 103.366 118.072 103.708ZM121.953 108.505C122.502 108.505 123.132 108.262 123.42 107.947L123.834 108.388C123.429 108.829 122.61 109.108 121.962 109.108C120.72 109.108 119.604 108.091 119.604 106.66C119.604 105.274 120.648 104.239 121.899 104.239C123.303 104.239 124.104 105.301 124.104 106.93H120.297C120.396 107.839 121.035 108.505 121.953 108.505ZM121.926 104.842C121.098 104.842 120.432 105.427 120.306 106.327H123.438C123.348 105.49 122.853 104.842 121.926 104.842ZM125.813 105.256C126.092 104.635 126.758 104.239 127.613 104.239V104.842C126.56 104.842 125.813 105.49 125.813 106.399V109H125.138V104.347H125.813V105.256ZM130.569 108.505C131.118 108.505 131.748 108.262 132.036 107.947L132.45 108.388C132.045 108.829 131.226 109.108 130.578 109.108C129.336 109.108 128.22 108.091 128.22 106.66C128.22 105.274 129.264 104.239 130.515 104.239C131.919 104.239 132.72 105.301 132.72 106.93H128.913C129.012 107.839 129.651 108.505 130.569 108.505ZM130.542 104.842C129.714 104.842 129.048 105.427 128.922 106.327H132.054C131.964 105.49 131.469 104.842 130.542 104.842ZM135.959 104.239C136.994 104.239 137.705 104.968 137.705 106.039V109H137.03V106.129C137.03 105.364 136.553 104.842 135.869 104.842C135.077 104.842 134.429 105.382 134.429 106.039V109H133.754V104.347H134.429V105.085C134.699 104.59 135.293 104.239 135.959 104.239ZM141.057 109.108C139.752 109.108 138.645 107.992 138.645 106.669C138.645 105.346 139.752 104.239 141.057 104.239C141.687 104.239 142.272 104.5 142.713 104.923L142.245 105.382C141.939 105.049 141.516 104.842 141.057 104.842C140.13 104.842 139.356 105.679 139.356 106.669C139.356 107.668 140.13 108.505 141.057 108.505C141.525 108.505 141.957 108.289 142.272 107.938L142.74 108.397C142.299 108.838 141.705 109.108 141.057 109.108ZM145.588 108.505C146.137 108.505 146.767 108.262 147.055 107.947L147.469 108.388C147.064 108.829 146.245 109.108 145.597 109.108C144.355 109.108 143.239 108.091 143.239 106.66C143.239 105.274 144.283 104.239 145.534 104.239C146.938 104.239 147.739 105.301 147.739 106.93H143.932C144.031 107.839 144.67 108.505 145.588 108.505ZM145.561 104.842C144.733 104.842 144.067 105.427 143.941 106.327H147.073C146.983 105.49 146.488 104.842 145.561 104.842ZM150.213 109.108C149.565 109.108 148.845 108.865 148.287 108.415L148.638 107.92C149.169 108.307 149.7 108.505 150.213 108.505C150.825 108.505 151.239 108.217 151.239 107.776C151.239 107.272 150.699 107.11 150.069 106.93C148.944 106.606 148.512 106.273 148.512 105.607C148.512 104.761 149.214 104.239 150.141 104.239C150.717 104.239 151.311 104.437 151.806 104.761L151.482 105.283C151.014 104.986 150.555 104.842 150.141 104.842C149.619 104.842 149.187 105.076 149.187 105.526C149.187 105.931 149.529 106.057 150.393 106.336C151.14 106.57 151.914 106.822 151.914 107.704C151.914 108.559 151.176 109.108 150.213 109.108Z" fill="#4F6169"/>
<path d="M29.4011 90H24V125H29.4011V90Z" fill="#0079AD"/>
</g>
<rect x="24.5" y="90.5" width="403" height="33" stroke="#ACB8BE"/>
<rect x="46" y="236" width="104.64" height="30.48" rx="2.52" fill="#ACB8BE"/>
<path opacity="0.15" d="M69.52 251.12C69.52 254.831 66.5113 257.84 62.8 257.84C59.0886 257.84 56.08 254.831 56.08 251.12C56.08 247.409 59.0886 244.4 62.8 244.4C66.5113 244.4 69.52 247.409 69.52 251.12ZM57.5963 251.12C57.5963 253.994 59.9261 256.324 62.8 256.324C65.6739 256.324 68.0037 253.994 68.0037 251.12C68.0037 248.246 65.6739 245.916 62.8 245.916C59.9261 245.916 57.5963 248.246 57.5963 251.12Z" fill="black"/>
<path d="M62.8 244.4C61.4281 244.4 60.0891 244.82 58.9629 245.603C57.8366 246.386 56.9771 247.496 56.4998 248.782C56.0225 250.068 55.9503 251.469 56.2929 252.798C56.6354 254.126 57.3764 255.318 58.4162 256.213L59.4053 255.064C58.6002 254.371 58.0264 253.448 57.7611 252.419C57.4959 251.391 57.5518 250.305 57.9214 249.309C58.291 248.313 58.9566 247.454 59.8287 246.848C60.7008 246.241 61.7377 245.916 62.8 245.916L62.8 244.4Z" fill="#0079B8"/>
<path d="M77.0094 254.08L74.812 247.155H76.193L77.6747 252.114L79.3178 247.155H80.6886L82.3216 252.114L83.8034 247.155H85.1843L82.997 254.08H81.737L80.0032 248.939L78.2594 254.08H77.0094ZM90.3698 254.201C88.3941 254.201 86.7309 252.558 86.7309 250.613C86.7309 248.667 88.3941 247.034 90.3698 247.034C92.3354 247.034 93.9986 248.667 93.9986 250.613C93.9986 252.558 92.3354 254.201 90.3698 254.201ZM90.3698 253.052C91.6399 253.052 92.7084 251.943 92.7084 250.613C92.7084 249.292 91.6399 248.183 90.3698 248.183C89.0897 248.183 88.0111 249.292 88.0111 250.613C88.0111 251.943 89.0897 253.052 90.3698 253.052ZM101.658 254.08H100.227L98.5941 251.752H97.2535V254.08H95.9935V247.155H99.0074C100.489 247.155 101.598 248.103 101.598 249.453C101.598 250.502 100.923 251.308 99.9247 251.621L101.658 254.08ZM97.2535 248.314V250.592H98.8663C99.7231 250.592 100.318 250.159 100.318 249.453C100.318 248.748 99.7231 248.314 98.8663 248.314H97.2535ZM103.657 254.08V247.155H104.917V250.542L107.951 247.155H109.493L106.721 250.209L109.695 254.08H108.143L105.855 251.096L104.917 252.104V254.08H103.657ZM111.347 254.08V247.155H112.597V254.08H111.347ZM114.974 254.08V247.155H116.234L119.893 252.024V247.155H121.143V254.08H119.893L116.234 249.211V254.08H114.974ZM126.705 251.298V250.27H129.659V253.072C128.994 253.768 127.915 254.201 126.907 254.201C124.921 254.201 123.248 252.558 123.248 250.613C123.248 248.667 124.921 247.034 126.907 247.034C127.915 247.034 128.994 247.458 129.659 248.153L128.762 248.99C128.328 248.486 127.582 248.183 126.907 248.183C125.617 248.183 124.528 249.292 124.528 250.613C124.528 251.943 125.617 253.052 126.907 253.052C127.431 253.052 127.996 252.87 128.429 252.558V251.298H126.705ZM132.547 254.201C132.083 254.201 131.74 253.838 131.74 253.395C131.74 252.981 132.083 252.618 132.547 252.618C132.97 252.618 133.323 252.981 133.323 253.395C133.323 253.838 132.97 254.201 132.547 254.201ZM134.966 254.201C134.502 254.201 134.16 253.838 134.16 253.395C134.16 252.981 134.502 252.618 134.966 252.618C135.389 252.618 135.742 252.981 135.742 253.395C135.742 253.838 135.389 254.201 134.966 254.201ZM137.385 254.201C136.921 254.201 136.579 253.838 136.579 253.395C136.579 252.981 136.921 252.618 137.385 252.618C137.809 252.618 138.161 252.981 138.161 253.395C138.161 253.838 137.809 254.201 137.385 254.201Z" fill="#67777E"/>
<path d="M67 141.99C67 141.44 67.44 141 67.99 141H107.47C108.01 141 108.46 141.44 108.46 141.99C108.46 142.54 108.02 142.98 107.47 142.98H67.99C67.45 142.98 67 142.54 67 141.99Z" fill="#C5CED8"/>
<path d="M67 155.97C67 155.42 67.44 154.98 67.99 154.98H107.47C108.01 154.98 108.46 155.42 108.46 155.97C108.46 156.52 108.02 156.96 107.47 156.96H67.99C67.45 156.96 67 156.52 67 155.97Z" fill="#C5CED8"/>
<path d="M67 169.95C67 169.4 67.44 168.96 67.99 168.96H107.47C108.01 168.96 108.46 169.4 108.46 169.95C108.46 170.5 108.02 170.94 107.47 170.94H67.99C67.45 170.94 67 170.5 67 169.95Z" fill="#C5CED8"/>
<path d="M67 183.99C67 183.44 67.44 183 67.99 183H107.47C108.01 183 108.46 183.44 108.46 183.99C108.46 184.54 108.02 184.98 107.47 184.98H67.99C67.45 184.98 67 184.54 67 183.99Z" fill="#C5CED8"/>
<path d="M130 142C130 141.444 130.547 141 131.231 141H279.769C280.44 141 281 141.444 281 142C281 142.556 280.453 143 279.769 143H131.231C130.56 143 130 142.556 130 142Z" fill="#C5CED8"/>
<path d="M130 156C130 155.444 130.547 155 131.231 155H279.769C280.44 155 281 155.444 281 156C281 156.556 280.453 157 279.769 157H131.231C130.56 157 130 156.556 130 156Z" fill="#C5CED8"/>
<path d="M130 170C130 169.444 130.547 169 131.231 169H279.769C280.44 169 281 169.444 281 170C281 170.556 280.453 171 279.769 171H131.231C130.56 171 130 170.556 130 170Z" fill="#C5CED8"/>
<path d="M130 184.04C130 183.484 130.547 183.04 131.231 183.04H279.769C280.44 183.04 281 183.484 281 184.04C281 184.596 280.453 185.04 279.769 185.04H131.231C130.56 185.04 130 184.596 130 184.04Z" fill="#C5CED8"/>
<rect x="24.5" y="24.5" width="403" height="263" stroke="#859399"/>
<rect x="0.5" y="0.5" width="451" height="311" rx="3.5" stroke="#ACB8BE"/>
<defs>
<clipPath id="clip0_8802_8319">
<rect x="24" y="24" width="404" height="34" fill="white"/>
</clipPath>
<clipPath id="clip1_8802_8319">
<rect x="24" y="57" width="404" height="34" fill="white"/>
</clipPath>
<clipPath id="clip2_8802_8319">
<rect x="24" y="90" width="404" height="34" fill="white"/>
</clipPath>
</defs>
</svg>
