<svg width="452" height="264" viewBox="0 0 452 264" fill="none" xmlns="http://www.w3.org/2000/svg">
<path d="M0.5 4C0.5 2.067 2.067 0.5 4 0.5H448C449.933 0.5 451.5 2.067 451.5 4V263.5H0.5V4Z" fill="#FCFDFD"/>
<path d="M93.7151 25.6401C93.7151 24.6401 94.5351 23.8201 95.5351 23.8201H148.645C149.655 23.8201 150.465 24.6301 150.465 25.6401C150.465 26.6501 149.645 27.4601 148.645 27.4601H95.5351C94.5251 27.4601 93.7151 26.6501 93.7151 25.6401Z" fill="#A9B7C6"/>
<path d="M93.7151 68.49C93.7151 67.94 94.1651 67.5 94.7151 67.5H123.755C124.305 67.5 124.745 67.94 124.745 68.49C124.745 69.04 124.295 69.48 123.755 69.48H94.7151C94.1651 69.48 93.7151 69.04 93.7151 68.49Z" fill="#A9B7C6"/>
<path d="M93.7151 75.98C93.7151 75.43 94.1651 74.99 94.7151 74.99H122.815C123.365 74.99 123.805 75.43 123.805 75.98C123.805 76.53 123.355 76.97 122.815 76.97H94.7151C94.1651 76.97 93.7151 76.53 93.7151 75.98Z" fill="#C5CED8"/>
<path d="M93.7151 83.48C93.7151 82.93 94.1651 82.49 94.7151 82.49H119.995C120.545 82.49 120.995 82.93 120.995 83.48C120.995 84.03 120.545 84.47 119.995 84.47H94.7151C94.1651 84.47 93.7151 84.03 93.7151 83.48Z" fill="#C5CED8"/>
<path d="M171.375 67.49C171.375 66.94 171.825 66.5 172.375 66.5H201.415C201.965 66.5 202.405 66.94 202.405 67.49C202.405 68.04 201.955 68.48 201.415 68.48H172.375C171.825 68.48 171.375 68.04 171.375 67.49Z" fill="#A9B7C6"/>
<path d="M171.375 74.99C171.375 74.44 171.825 74 172.375 74H200.475C201.025 74 201.475 74.44 201.475 74.99C201.475 75.54 201.035 75.98 200.475 75.98H172.375C171.825 75.98 171.375 75.54 171.375 74.99Z" fill="#C5CED8"/>
<path d="M171.375 82.49C171.375 81.94 171.825 81.5 172.375 81.5H197.655C198.205 81.5 198.645 81.94 198.645 82.49C198.645 83.04 198.195 83.48 197.655 83.48H172.375C171.825 83.48 171.375 83.04 171.375 82.49Z" fill="#C5CED8"/>
<path d="M249.035 67.49C249.035 66.94 249.485 66.5 250.035 66.5H279.075C279.625 66.5 280.075 66.94 280.075 67.49C280.075 68.04 279.625 68.48 279.075 68.48H250.035C249.485 68.48 249.035 68.04 249.035 67.49Z" fill="#A9B7C6"/>
<path d="M249.035 74.99C249.035 74.44 249.485 74 250.035 74H278.135C278.685 74 279.135 74.44 279.135 74.99C279.135 75.54 278.695 75.98 278.135 75.98H250.035C249.485 75.98 249.035 75.54 249.035 74.99Z" fill="#C5CED8"/>
<path d="M249.035 82.49C249.035 81.94 249.485 81.5 250.035 81.5H275.315C275.865 81.5 276.315 81.94 276.315 82.49C276.315 83.04 275.865 83.48 275.315 83.48H250.035C249.485 83.48 249.035 83.04 249.035 82.49Z" fill="#C5CED8"/>
<path d="M326.686 67.49C326.686 66.94 327.136 66.5 327.676 66.5H356.716C357.266 66.5 357.706 66.94 357.706 67.49C357.706 68.04 357.256 68.48 356.716 68.48H327.676C327.126 68.48 326.686 68.04 326.686 67.49Z" fill="#A9B7C6"/>
<path d="M326.686 74.99C326.686 74.44 327.136 74 327.676 74H355.776C356.326 74 356.766 74.44 356.766 74.99C356.766 75.54 356.316 75.98 355.776 75.98H327.676C327.126 75.98 326.686 75.54 326.686 74.99Z" fill="#C5CED8"/>
<path d="M326.686 82.49C326.686 81.94 327.136 81.5 327.676 81.5H352.956C353.506 81.5 353.956 81.94 353.956 82.49C353.956 83.04 353.506 83.48 352.956 83.48H327.676C327.126 83.48 326.686 83.04 326.686 82.49Z" fill="#C5CED8"/>
<path d="M338.864 50.7001H105.664V51.9201H338.864V50.7001Z" fill="#ACB9BE"/>
<path d="M100.955 57.7601C104.525 57.7601 107.425 54.8701 107.425 51.3101C107.425 47.7501 104.525 44.8601 100.955 44.8601C97.3847 44.8601 94.4846 47.7501 94.4846 51.3101C94.4846 54.8701 97.3847 57.7601 100.955 57.7601Z" fill="white"/>
<path d="M100.955 58.2601C97.1147 58.2601 93.9846 55.1401 93.9846 51.3101C93.9846 47.4801 97.1147 44.3601 100.955 44.3601C104.795 44.3601 107.925 47.4801 107.925 51.3101C107.925 55.1401 104.795 58.2601 100.955 58.2601ZM100.955 45.3601C97.6647 45.3601 94.9846 48.0301 94.9846 51.3101C94.9846 54.5901 97.6647 57.2601 100.955 57.2601C104.245 57.2601 106.925 54.5901 106.925 51.3101C106.925 48.0301 104.245 45.3601 100.955 45.3601Z" fill="#56AA13"/>
<path d="M100.105 53.95C99.9752 53.95 99.8452 53.9 99.7452 53.8L97.3752 51.37C97.1852 51.17 97.1852 50.86 97.3752 50.66C97.5752 50.47 97.8852 50.47 98.0852 50.66L100.095 52.72L103.805 48.82C103.995 48.62 104.315 48.61 104.515 48.8C104.715 48.99 104.725 49.31 104.535 49.51L100.475 53.79C100.385 53.89 100.235 53.97 100.115 53.95H100.105Z" fill="#56AA13"/>
<path d="M178.615 57.7601C182.185 57.7601 185.085 54.8701 185.085 51.3101C185.085 47.7501 182.185 44.8601 178.615 44.8601C175.045 44.8601 172.145 47.7501 172.145 51.3101C172.145 54.8701 175.045 57.7601 178.615 57.7601Z" fill="white"/>
<path d="M178.615 58.2601C174.775 58.2601 171.645 55.1401 171.645 51.3101C171.645 47.4801 174.775 44.3601 178.615 44.3601C182.455 44.3601 185.585 47.4801 185.585 51.3101C185.585 55.1401 182.455 58.2601 178.615 58.2601ZM178.615 45.3601C175.325 45.3601 172.645 48.0301 172.645 51.3101C172.645 54.5901 175.325 57.2601 178.615 57.2601C181.905 57.2601 184.585 54.5901 184.585 51.3101C184.585 48.0301 181.905 45.3601 178.615 45.3601Z" fill="#56AA13"/>
<path d="M177.765 53.95C177.635 53.95 177.505 53.9 177.405 53.8L175.035 51.37C174.845 51.17 174.845 50.86 175.035 50.66C175.235 50.47 175.545 50.47 175.745 50.66L177.755 52.72L181.465 48.82C181.655 48.62 181.975 48.61 182.175 48.8C182.375 48.99 182.385 49.31 182.195 49.51L178.135 53.79C178.045 53.89 177.915 53.94 177.775 53.95H177.765Z" fill="#56AA13"/>
<path d="M255.996 57.7601C259.566 57.7601 262.466 54.8701 262.466 51.3101C262.466 47.7501 259.566 44.8601 255.996 44.8601C252.426 44.8601 249.526 47.7501 249.526 51.3101C249.526 54.8701 252.426 57.7601 255.996 57.7601Z" fill="white"/>
<path d="M255.996 58.2601C252.156 58.2601 249.026 55.1401 249.026 51.3101C249.026 47.4801 252.156 44.3601 255.996 44.3601C259.836 44.3601 262.966 47.4801 262.966 51.3101C262.966 55.1401 259.836 58.2601 255.996 58.2601ZM255.996 45.3601C252.706 45.3601 250.026 48.0301 250.026 51.3101C250.026 54.5901 252.706 57.2601 255.996 57.2601C259.286 57.2601 261.966 54.5901 261.966 51.3101C261.966 48.0301 259.286 45.3601 255.996 45.3601Z" fill="#0079AD"/>
<path d="M255.994 54.47C257.744 54.47 259.164 53.06 259.164 51.31C259.164 49.56 257.744 48.15 255.994 48.15C254.244 48.15 252.824 49.56 252.824 51.31C252.824 53.06 254.244 54.47 255.994 54.47Z" fill="#0079AD"/>
<path d="M333.656 57.7601C337.226 57.7601 340.126 54.8701 340.126 51.3101C340.126 47.7501 337.226 44.8601 333.656 44.8601C330.086 44.8601 327.186 47.7501 327.186 51.3101C327.186 54.8701 330.086 57.7601 333.656 57.7601Z" fill="white"/>
<path d="M333.656 58.2601C329.816 58.2601 326.686 55.1401 326.686 51.3101C326.686 47.4801 329.816 44.3601 333.656 44.3601C337.496 44.3601 340.626 47.4801 340.626 51.3101C340.626 55.1401 337.496 58.2601 333.656 58.2601ZM333.656 45.3601C330.366 45.3601 327.686 48.0301 327.686 51.3101C327.686 54.5901 330.366 57.2601 333.656 57.2601C336.946 57.2601 339.626 54.5901 339.626 51.3101C339.626 48.0301 336.946 45.3601 333.656 45.3601Z" fill="#ACB9BE"/>
<path d="M93.7151 103.22C93.7151 102.67 94.1651 102.23 94.7151 102.23H134.535C135.085 102.23 135.525 102.67 135.525 103.22C135.525 103.77 135.075 104.21 134.535 104.21H94.7151C94.1651 104.21 93.7151 103.77 93.7151 103.22Z" fill="#C5CED8"/>
<path d="M93.7151 103.22C93.7151 102.67 94.1651 102.23 94.7151 102.23H134.535C135.085 102.23 135.525 102.67 135.525 103.22C135.525 103.77 135.075 104.21 134.535 104.21H94.7151C94.1651 104.21 93.7151 103.77 93.7151 103.22Z" fill="#C5CED8"/>
<path d="M93.7151 118.11C93.7151 117.56 94.1651 117.12 94.7151 117.12H134.535C135.085 117.12 135.525 117.56 135.525 118.11C135.525 118.66 135.075 119.1 134.535 119.1H94.7151C94.1651 119.1 93.7151 118.66 93.7151 118.11Z" fill="#C5CED8"/>
<path d="M93.7151 133C93.7151 132.45 94.1651 132.01 94.7151 132.01H134.535C135.085 132.01 135.525 132.45 135.525 133C135.525 133.55 135.075 133.99 134.535 133.99H94.7151C94.1651 133.99 93.7151 133.55 93.7151 133Z" fill="#C5CED8"/>
<path d="M93.7151 147.88C93.7151 147.33 94.1651 146.89 94.7151 146.89H134.535C135.085 146.89 135.525 147.33 135.525 147.88C135.525 148.43 135.075 148.87 134.535 148.87H94.7151C94.1651 148.87 93.7151 148.43 93.7151 147.88Z" fill="#C5CED8"/>
<path d="M93.7151 162.77C93.7151 162.22 94.1651 161.78 94.7151 161.78H134.535C135.085 161.78 135.525 162.22 135.525 162.77C135.525 163.32 135.075 163.76 134.535 163.76H94.7151C94.1651 163.76 93.7151 163.31 93.7151 162.77Z" fill="#C5CED8"/>
<path d="M93.7151 177.66C93.7151 177.11 94.1651 176.67 94.7151 176.67H134.535C135.085 176.67 135.525 177.12 135.525 177.66C135.525 178.2 135.075 178.65 134.535 178.65H94.7151C94.1651 178.65 93.7151 178.21 93.7151 177.66Z" fill="#C5CED8"/>
<path d="M93.7151 192.55C93.7151 192 94.1651 191.56 94.7151 191.56H134.535C135.085 191.56 135.525 192 135.525 192.55C135.525 193.1 135.075 193.54 134.535 193.54H94.7151C94.1651 193.54 93.7151 193.1 93.7151 192.55Z" fill="#C5CED8"/>
<path d="M148.475 103.22C148.475 102.67 148.925 102.23 149.475 102.23H357.295C357.845 102.23 358.285 102.67 358.285 103.22C358.285 103.77 357.835 104.21 357.295 104.21H149.475C148.925 104.21 148.475 103.77 148.475 103.22Z" fill="#C5CED8"/>
<path d="M148.475 118.11C148.475 117.56 148.925 117.12 149.475 117.12H357.295C357.845 117.12 358.285 117.56 358.285 118.11C358.285 118.66 357.835 119.1 357.295 119.1H149.475C148.925 119.1 148.475 118.66 148.475 118.11Z" fill="#C5CED8"/>
<path d="M148.475 133C148.475 132.45 148.925 132.01 149.475 132.01H357.295C357.845 132.01 358.285 132.45 358.285 133C358.285 133.55 357.835 133.99 357.295 133.99H149.475C148.925 133.99 148.475 133.55 148.475 133Z" fill="#C5CED8"/>
<path d="M148.475 147.88C148.475 147.33 148.925 146.89 149.475 146.89H357.295C357.845 146.89 358.285 147.33 358.285 147.88C358.285 148.43 357.835 148.87 357.295 148.87H149.475C148.925 148.87 148.475 148.43 148.475 147.88Z" fill="#C5CED8"/>
<path d="M148.475 162.77C148.475 162.22 148.925 161.78 149.475 161.78H357.295C357.845 161.78 358.285 162.22 358.285 162.77C358.285 163.32 357.835 163.76 357.295 163.76H149.475C148.925 163.76 148.475 163.31 148.475 162.77Z" fill="#C5CED8"/>
<path d="M148.475 177.66C148.475 177.11 148.925 176.67 149.475 176.67H357.295C357.845 176.67 358.285 177.12 358.285 177.66C358.285 178.2 357.835 178.65 357.295 178.65H149.475C148.925 178.65 148.475 178.21 148.475 177.66Z" fill="#C5CED8"/>
<path d="M148.475 192.55C148.475 192 148.925 191.56 149.475 191.56H357.295C357.845 191.56 358.285 192 358.285 192.55C358.285 193.1 357.835 193.54 357.295 193.54H149.475C148.925 193.54 148.475 193.1 148.475 192.55Z" fill="#C5CED8"/>
<path opacity="0.7" d="M128.565 240.18H95.7149C94.6149 240.18 93.7249 239.29 93.7249 238.19V228.26C93.7249 227.16 94.6149 226.27 95.7149 226.27H128.565C129.665 226.27 130.555 227.16 130.555 228.26V238.19C130.555 239.29 129.665 240.18 128.565 240.18Z" fill="#0079AD"/>
<path d="M0.5 4C0.5 2.067 2.067 0.5 4 0.5H448C449.933 0.5 451.5 2.067 451.5 4V263.5H0.5V4Z" stroke="#ACB8BE"/>
</svg>
