<svg width="928" height="360" viewBox="0 0 928 360" fill="none" xmlns="http://www.w3.org/2000/svg">
<rect x="0.5" y="0.5" width="927" height="359" rx="3.5" fill="#FCFDFD"/>
<g clip-path="url(#clip0_8673_7075)">
<rect x="83" y="36" width="391" height="288" fill="#FCFDFD"/>
<rect width="391" height="17" transform="translate(83 36)" fill="#859399"/>
<path d="M416.54 84.3701H142.07V85.5901H416.54V84.3701Z" fill="#ACB9BE"/>
<path d="M136.56 92.78C140.52 92.78 143.72 89.58 143.72 85.64C143.72 81.7 140.51 78.5 136.56 78.5C132.61 78.5 129.4 81.7 129.4 85.64C129.4 89.58 132.61 92.78 136.56 92.78Z" fill="white"/>
<path d="M136.56 93.28C132.33 93.28 128.9 89.85 128.9 85.64C128.9 81.43 132.34 78 136.56 78C140.78 78 144.22 81.43 144.22 85.64C144.22 89.85 140.78 93.28 136.56 93.28ZM136.56 79.01C132.88 79.01 129.9 81.99 129.9 85.65C129.9 89.31 132.89 92.29 136.56 92.29C140.23 92.29 143.22 89.31 143.22 85.65C143.22 81.99 140.23 79.01 136.56 79.01Z" fill="#0079AD"/>
<path d="M136.561 89.1399C138.501 89.1399 140.071 87.5799 140.071 85.6499C140.071 83.7199 138.501 82.1599 136.561 82.1599C134.621 82.1599 133.051 83.7199 133.051 85.6499C133.051 87.5799 134.621 89.1399 136.561 89.1399Z" fill="#0079AD"/>
<path d="M417.64 92.78C421.6 92.78 424.8 89.58 424.8 85.64C424.8 81.7 421.59 78.5 417.64 78.5C413.69 78.5 410.48 81.7 410.48 85.64C410.48 89.58 413.69 92.78 417.64 92.78Z" fill="white"/>
<path d="M417.64 93.28C413.41 93.28 409.98 89.85 409.98 85.64C409.98 81.43 413.42 78 417.64 78C421.86 78 425.3 81.43 425.3 85.64C425.3 89.85 421.86 93.28 417.64 93.28ZM417.64 79.01C413.96 79.01 410.98 81.99 410.98 85.65C410.98 89.31 413.97 92.29 417.64 92.29C421.31 92.29 424.3 89.31 424.3 85.65C424.3 81.99 421.31 79.01 417.64 79.01Z" fill="#ACB9BE"/>
<path d="M230.25 92.78C234.21 92.78 237.41 89.58 237.41 85.64C237.41 81.7 234.2 78.5 230.25 78.5C226.3 78.5 223.09 81.7 223.09 85.64C223.09 89.58 226.3 92.78 230.25 92.78Z" fill="white"/>
<path d="M230.25 93.28C226.02 93.28 222.59 89.85 222.59 85.64C222.59 81.43 226.03 78 230.25 78C234.47 78 237.91 81.43 237.91 85.64C237.91 89.85 234.47 93.28 230.25 93.28ZM230.25 79.01C226.57 79.01 223.59 81.99 223.59 85.65C223.59 89.31 226.58 92.29 230.25 92.29C233.92 92.29 236.91 89.31 236.91 85.65C236.91 81.99 233.92 79.01 230.25 79.01Z" fill="#ACB9BE"/>
<path d="M323.949 92.78C327.909 92.78 331.109 89.58 331.109 85.64C331.109 81.7 327.899 78.5 323.949 78.5C319.999 78.5 316.789 81.7 316.789 85.64C316.789 89.58 319.999 92.78 323.949 92.78Z" fill="white"/>
<path d="M323.949 93.28C319.719 93.28 316.289 89.85 316.289 85.64C316.289 81.43 319.729 78 323.949 78C328.169 78 331.609 81.43 331.609 85.64C331.609 89.85 328.169 93.28 323.949 93.28ZM323.949 79.01C320.269 79.01 317.289 81.99 317.289 85.65C317.289 89.31 320.279 92.29 323.949 92.29C327.619 92.29 330.609 89.31 330.609 85.65C330.609 81.99 327.619 79.01 323.949 79.01Z" fill="#ACB9BE"/>
<path d="M115.81 103.29C116.44 103.29 117.02 103.02 117.44 102.6L117.09 102.24C116.76 102.59 116.3 102.81 115.81 102.81C114.83 102.81 114 101.95 114 100.94C114 99.9301 114.83 99.0801 115.81 99.0801C116.31 99.0801 116.76 99.3001 117.09 99.6501L117.44 99.2901C117.02 98.8601 116.43 98.6001 115.81 98.6001C114.55 98.6001 113.48 99.6701 113.48 100.94C113.48 102.21 114.55 103.29 115.81 103.29ZM118.68 100.47V99.8001H118.18V103.21H118.68V101.31C118.68 100.64 119.23 100.17 120 100.17V99.7301C119.37 99.7301 118.88 100.02 118.68 100.47ZM122.23 102.85C121.56 102.85 121.09 102.36 121.01 101.7H123.81C123.81 100.51 123.22 99.7301 122.19 99.7301C121.27 99.7301 120.5 100.49 120.5 101.5C120.5 102.51 121.32 103.29 122.23 103.29C122.71 103.29 123.31 103.09 123.61 102.76L123.31 102.44C123.1 102.67 122.64 102.85 122.23 102.85ZM122.21 100.17C122.89 100.17 123.25 100.64 123.32 101.26H121.02C121.11 100.6 121.6 100.17 122.21 100.17ZM126.01 99.7301C125.68 99.7301 125.27 99.8201 124.78 100.06L124.98 100.46C125.29 100.3 125.63 100.15 125.98 100.15C126.72 100.15 126.91 100.68 126.91 101.14V101.27C126.56 101.16 126.17 101.08 125.8 101.08C125.07 101.08 124.46 101.53 124.46 102.21C124.46 102.89 124.99 103.3 125.71 103.3C126.16 103.3 126.67 103.09 126.91 102.69V103.22H127.41V101.14C127.41 100.32 126.95 99.7301 126.02 99.7301H126.01ZM125.79 102.86C125.31 102.86 124.94 102.61 124.94 102.19C124.94 101.77 125.37 101.49 125.88 101.49C126.25 101.49 126.6 101.54 126.91 101.63V102.15C126.78 102.63 126.24 102.86 125.79 102.86ZM129.92 102.72C129.85 102.8 129.71 102.86 129.56 102.86C129.36 102.86 129.19 102.68 129.19 102.43V100.26H130.03V99.8201H129.19V98.8801H128.69V99.8201H128.15V100.26H128.69V102.43C128.69 102.94 129.03 103.3 129.52 103.3C129.75 103.3 129.98 103.22 130.15 103.08L129.91 102.72H129.92ZM132.41 102.86C131.74 102.86 131.27 102.37 131.19 101.71H133.99C133.99 100.52 133.4 99.7401 132.37 99.7401C131.45 99.7401 130.68 100.5 130.68 101.51C130.68 102.52 131.5 103.3 132.41 103.3C132.89 103.3 133.49 103.1 133.79 102.77L133.49 102.45C133.28 102.68 132.82 102.86 132.41 102.86ZM132.39 100.18C133.07 100.18 133.43 100.65 133.5 101.27H131.2C131.29 100.61 131.78 100.18 132.39 100.18ZM140.44 103.22H141L139 98.6901H138.44L136.44 103.22H137L137.46 102.19H139.99L140.45 103.22H140.44ZM137.66 101.7L138.72 99.3201L139.77 101.7H137.66ZM143.3 103.29C143.78 103.29 144.21 103.09 144.54 102.77L144.2 102.43C143.97 102.69 143.65 102.85 143.31 102.85C142.63 102.85 142.06 102.24 142.06 101.51C142.06 100.78 142.63 100.17 143.31 100.17C143.65 100.17 143.96 100.32 144.18 100.57L144.52 100.23C144.2 99.9201 143.77 99.7301 143.3 99.7301C142.34 99.7301 141.53 100.54 141.53 101.51C141.53 102.48 142.34 103.3 143.3 103.3V103.29ZM146.88 103.29C147.36 103.29 147.79 103.09 148.12 102.77L147.78 102.43C147.55 102.69 147.23 102.85 146.89 102.85C146.21 102.85 145.64 102.24 145.64 101.51C145.64 100.78 146.21 100.17 146.89 100.17C147.23 100.17 147.54 100.32 147.76 100.57L148.1 100.23C147.78 99.9201 147.35 99.7301 146.88 99.7301C145.92 99.7301 145.11 100.54 145.11 101.51C145.11 102.48 145.92 103.3 146.88 103.3V103.29ZM150.39 103.29C151.35 103.29 152.16 102.47 152.16 101.5C152.16 100.53 151.35 99.7201 150.39 99.7201C149.43 99.7201 148.62 100.53 148.62 101.5C148.62 102.47 149.43 103.29 150.39 103.29ZM150.39 102.85C149.71 102.85 149.14 102.24 149.14 101.51C149.14 100.78 149.71 100.17 150.39 100.17C151.07 100.17 151.63 100.78 151.63 101.51C151.63 102.24 151.06 102.85 150.39 102.85ZM155.38 99.8101V101.98C155.38 102.45 154.9 102.86 154.32 102.86C153.82 102.86 153.47 102.47 153.47 101.92V99.8201H152.97V101.99C152.97 102.76 153.5 103.31 154.25 103.31C154.73 103.31 155.18 103.05 155.37 102.68V103.23H155.87V99.8201H155.37L155.38 99.8101ZM158.51 99.7301C158.03 99.7301 157.58 99.9901 157.39 100.36V99.8101H156.89V103.22H157.39V101.05C157.39 100.58 157.87 100.17 158.45 100.17C158.95 100.17 159.3 100.56 159.3 101.11V103.21H159.8V101.04C159.8 100.27 159.27 99.7201 158.52 99.7201L158.51 99.7301ZM162.3 102.71C162.23 102.79 162.09 102.85 161.94 102.85C161.74 102.85 161.57 102.67 161.57 102.42V100.25H162.41V99.8101H161.57V98.8701H161.07V99.8101H160.53V100.25H161.07V102.42C161.07 102.93 161.41 103.29 161.9 103.29C162.13 103.29 162.36 103.21 162.53 103.07L162.29 102.71H162.3Z" fill="#2D4048"/>
<path d="M428 190H131V212H427.99V190H428Z" fill="#E0F6FF"/>
<g opacity="0.2">
<path d="M428.2 212.06H130V190.2H428.2V212.06ZM130.995 211.06H427.206V191.2H130.995V211.06Z" fill="black"/>
</g>
<path d="M153.75 203.32H154.44V197.29H153.75V203.32ZM159.37 197.18V199.63C159.03 199.03 158.44 198.67 157.71 198.67C156.51 198.67 155.61 199.65 155.61 201.04C155.61 202.43 156.51 203.42 157.71 203.42C158.44 203.42 159.02 203.06 159.37 202.46V203.31H160.03V197.17H159.37V197.18ZM157.84 202.84C156.95 202.84 156.31 202.09 156.31 201.05C156.31 200.01 156.94 199.27 157.84 199.27C158.74 199.27 159.37 200.01 159.37 201.05C159.37 202.09 158.74 202.84 157.84 202.84ZM163.49 202.84C162.59 202.84 161.96 202.19 161.87 201.3H165.6C165.6 199.71 164.82 198.67 163.44 198.67C162.21 198.67 161.19 199.68 161.19 201.03C161.19 202.38 162.28 203.42 163.5 203.42C164.13 203.42 164.94 203.15 165.33 202.72L164.92 202.29C164.64 202.6 164.02 202.83 163.48 202.83L163.49 202.84ZM163.46 199.26C164.37 199.26 164.85 199.89 164.94 200.71H161.87C161.99 199.83 162.65 199.26 163.46 199.26ZM168.85 198.67C168.21 198.67 167.62 199.02 167.35 199.5V198.77H166.69V203.31H167.35V200.42C167.35 199.79 167.99 199.25 168.76 199.25C169.43 199.25 169.9 199.77 169.9 200.51V203.31H170.56V200.42C170.56 199.39 169.85 198.66 168.85 198.66V198.67ZM173.9 202.65C173.8 202.76 173.63 202.83 173.42 202.83C173.16 202.83 172.93 202.59 172.93 202.26V199.36H174.05V198.77H172.93V197.52H172.27V198.77H171.56V199.36H172.27V202.26C172.27 202.94 172.73 203.42 173.38 203.42C173.69 203.42 173.99 203.31 174.23 203.13L173.9 202.65ZM175.49 197.95C175.73 197.95 175.92 197.75 175.92 197.51C175.92 197.27 175.73 197.08 175.49 197.08C175.25 197.08 175.05 197.28 175.05 197.51C175.05 197.74 175.24 197.95 175.49 197.95ZM175.15 203.32H175.81V198.78H175.15V203.32ZM179.14 202.65C179.04 202.76 178.87 202.83 178.66 202.83C178.4 202.83 178.17 202.59 178.17 202.26V199.36H179.29V198.77H178.17V197.52H177.51V198.77H176.8V199.36H177.51V202.26C177.51 202.94 177.97 203.42 178.62 203.42C178.93 203.42 179.23 203.31 179.47 203.13L179.14 202.65ZM181.08 204.9C181.71 204.9 182.15 204.6 182.46 203.83L184.54 198.78H183.83L182.32 202.56L180.72 198.78H179.99L181.97 203.34L181.71 203.9C181.53 204.21 181.34 204.3 181.05 204.3C180.86 204.3 180.67 204.26 180.51 204.19L180.35 204.75C180.56 204.85 180.81 204.9 181.07 204.9H181.08ZM193.14 197.28L190.85 202.47L188.55 197.28H187.8L190.47 203.31H191.22L193.89 197.28H193.14ZM196.29 202.83C195.39 202.83 194.76 202.18 194.67 201.29H198.4C198.4 199.7 197.62 198.66 196.24 198.66C195.01 198.66 193.99 199.67 193.99 201.02C193.99 202.37 195.08 203.41 196.3 203.41C196.93 203.41 197.74 203.14 198.13 202.71L197.72 202.28C197.44 202.59 196.82 202.82 196.28 202.82L196.29 202.83ZM196.26 199.25C197.17 199.25 197.65 199.88 197.74 200.7H194.67C194.79 199.82 195.45 199.25 196.26 199.25ZM200.2 199.65V198.76H199.54V203.3H200.2V200.76C200.2 199.87 200.93 199.24 201.96 199.24V198.65C201.12 198.65 200.47 199.04 200.2 199.64V199.65ZM203.2 197.94C203.44 197.94 203.63 197.74 203.63 197.5C203.63 197.26 203.44 197.07 203.2 197.07C202.96 197.07 202.76 197.27 202.76 197.5C202.76 197.73 202.95 197.94 203.2 197.94ZM202.86 203.31H203.52V198.77H202.86V203.31ZM205.88 198.14C205.88 197.81 206.11 197.57 206.37 197.57C206.57 197.57 206.75 197.65 206.85 197.75L207.18 197.27C206.94 197.09 206.64 196.98 206.33 196.98C205.68 196.98 205.22 197.46 205.22 198.14V198.76H204.51V199.35H205.22V203.3H205.88V199.35H207V198.76H205.88V198.14ZM208.27 197.94C208.51 197.94 208.7 197.74 208.7 197.5C208.7 197.26 208.51 197.07 208.27 197.07C208.03 197.07 207.83 197.27 207.83 197.5C207.83 197.73 208.02 197.94 208.27 197.94ZM207.93 203.31H208.59V198.77H207.93V203.31ZM212.04 203.42C212.67 203.42 213.26 203.16 213.69 202.73L213.23 202.28C212.92 202.62 212.5 202.83 212.04 202.83C211.13 202.83 210.37 202.01 210.37 201.04C210.37 200.07 211.13 199.26 212.04 199.26C212.49 199.26 212.9 199.46 213.2 199.79L213.66 199.34C213.23 198.93 212.65 198.67 212.04 198.67C210.76 198.67 209.68 199.75 209.68 201.04C209.68 202.33 210.76 203.42 212.04 203.42ZM216.55 198.67C216.11 198.67 215.56 198.78 214.91 199.11L215.17 199.65C215.58 199.44 216.04 199.24 216.5 199.24C217.49 199.24 217.73 199.94 217.73 200.56V200.73C217.26 200.58 216.74 200.48 216.25 200.48C215.27 200.48 214.46 201.09 214.46 201.99C214.46 202.89 215.17 203.44 216.13 203.44C216.73 203.44 217.41 203.16 217.73 202.62V203.33H218.39V200.56C218.39 199.46 217.78 198.68 216.54 198.68L216.55 198.67ZM216.25 202.84C215.61 202.84 215.11 202.51 215.11 201.94C215.11 201.37 215.68 201.01 216.36 201.01C216.85 201.01 217.32 201.08 217.74 201.19V201.88C217.56 202.52 216.85 202.83 216.25 202.83V202.84ZM221.75 202.65C221.65 202.76 221.48 202.83 221.27 202.83C221.01 202.83 220.78 202.59 220.78 202.26V199.36H221.9V198.77H220.78V197.52H220.12V198.77H219.41V199.36H220.12V202.26C220.12 202.94 220.58 203.42 221.23 203.42C221.54 203.42 221.84 203.31 222.08 203.13L221.75 202.65ZM223.34 197.95C223.58 197.95 223.77 197.75 223.77 197.51C223.77 197.27 223.58 197.08 223.34 197.08C223.1 197.08 222.9 197.28 222.9 197.51C222.9 197.74 223.09 197.95 223.34 197.95ZM223 203.32H223.66V198.78H223V203.32ZM227.11 203.43C228.39 203.43 229.46 202.34 229.46 201.05C229.46 199.76 228.38 198.68 227.11 198.68C225.84 198.68 224.75 199.76 224.75 201.05C224.75 202.34 225.83 203.43 227.11 203.43ZM227.11 202.84C226.2 202.84 225.44 202.02 225.44 201.05C225.44 200.08 226.2 199.27 227.11 199.27C228.02 199.27 228.77 200.09 228.77 201.05C228.77 202.01 228.01 202.84 227.11 202.84ZM232.73 198.68C232.09 198.68 231.5 199.03 231.23 199.51V198.78H230.57V203.32H231.23V200.43C231.23 199.8 231.87 199.26 232.64 199.26C233.31 199.26 233.78 199.78 233.78 200.52V203.32H234.44V200.43C234.44 199.4 233.73 198.67 232.73 198.67V198.68Z" fill="#22343C"/>
<path d="M134 190H130V212H134V190Z" fill="#0079AD"/>
<path d="M144.26 202.62C144.16 202.62 144.06 202.58 143.98 202.5L141.22 199.75C141.06 199.59 141.06 199.34 141.22 199.18C141.38 199.02 141.63 199.02 141.79 199.18L144.26 201.64L146.73 199.18C146.89 199.02 147.14 199.02 147.3 199.18C147.46 199.34 147.46 199.59 147.3 199.75L144.54 202.5C144.46 202.58 144.36 202.62 144.26 202.62Z" fill="#4F6169"/>
<path d="M150.48 281.14C150.48 282.43 151.53 283.48 152.83 283.48H204.35C205.65 283.48 206.7 282.43 206.7 281.14V268.25C206.7 266.96 205.65 265.91 204.35 265.91H152.83C151.53 265.91 150.48 266.96 150.48 268.25V281.14Z" fill="#0079AD"/>
<path d="M165.429 276.97C166.099 276.97 166.709 276.69 167.139 276.23L166.559 275.69C166.279 276.01 165.869 276.22 165.429 276.22C164.589 276.22 163.879 275.5 163.879 274.63C163.879 273.76 164.589 273.04 165.429 273.04C165.869 273.04 166.279 273.24 166.549 273.57L167.139 273.02C166.699 272.57 166.099 272.29 165.429 272.29C164.129 272.29 163.039 273.36 163.039 274.63C163.039 275.9 164.129 276.98 165.429 276.98V276.97ZM172.599 276.89L171.459 275.28C172.109 275.08 172.559 274.55 172.559 273.86C172.559 272.98 171.829 272.36 170.859 272.36H168.879V276.89H169.709V275.37H170.589L171.659 276.89H172.599ZM169.709 273.12H170.769C171.329 273.12 171.719 273.4 171.719 273.86C171.719 274.32 171.329 274.6 170.769 274.6H169.709V273.11V273.12ZM177.829 273.12V272.37H174.409V276.9H177.829V276.15H175.239V274.97H177.589V274.22H175.239V273.13H177.829V273.12ZM183.179 276.9H184.089L182.189 272.37H181.269L179.369 276.9H180.289L180.629 276.08H182.829L183.169 276.9H183.179ZM180.939 275.37L181.739 273.47L182.539 275.37H180.939ZM186.599 276.9H187.419V273.12H188.879V272.37H185.149V273.12H186.609V276.9H186.599ZM194.099 273.12V272.37H190.679V276.9H194.099V276.15H191.509V274.97H193.859V274.22H191.509V273.13H194.099V273.12Z" fill="white"/>
<path d="M428 149H132V170H428V149Z" fill="white"/>
<path d="M134 149H130V170H134V149Z" fill="#41800E"/>
<path d="M142.89 162.97C142.79 162.97 142.68 162.93 142.61 162.85C142.45 162.69 142.45 162.44 142.61 162.28L145.08 159.82L142.61 157.36C142.45 157.2 142.45 156.95 142.61 156.79C142.77 156.63 143.02 156.63 143.18 156.79L145.94 159.54C146.02 159.61 146.06 159.72 146.06 159.82C146.06 159.92 146.02 160.03 145.94 160.1L143.18 162.85C143.1 162.93 143 162.97 142.9 162.97H142.89Z" fill="#4F6169"/>
<path d="M428 191H130V169H428V191ZM130.994 189.994H427.006V170.006H130.994V189.994Z" fill="#ACB9BE"/>
<path d="M134 170H130V190H134V170Z" fill="#41800E"/>
<path d="M142.89 183.84C142.79 183.84 142.68 183.8 142.61 183.72C142.45 183.56 142.45 183.31 142.61 183.15L145.08 180.69L142.61 178.23C142.45 178.07 142.45 177.82 142.61 177.66C142.77 177.5 143.02 177.5 143.18 177.66L145.94 180.41C146.02 180.48 146.06 180.59 146.06 180.69C146.06 180.79 146.02 180.9 145.94 180.97L143.18 183.72C143.1 183.8 143 183.84 142.9 183.84H142.89Z" fill="#4F6169"/>
<path d="M150.48 227.48C150.48 226.87 150.97 226.38 151.58 226.38H195.67C196.28 226.38 196.77 226.87 196.77 227.48C196.77 228.09 196.28 228.58 195.67 228.58H151.58C150.97 228.58 150.48 228.09 150.48 227.48Z" fill="#C5CED8"/>
<path d="M150.48 238.46C150.48 237.85 150.97 237.36 151.58 237.36H195.67C196.28 237.36 196.77 237.85 196.77 238.46C196.77 239.07 196.28 239.56 195.67 239.56H151.58C150.97 239.56 150.48 239.07 150.48 238.46Z" fill="#C5CED8"/>
<path d="M150.48 249.44C150.48 248.83 150.97 248.34 151.58 248.34H195.67C196.28 248.34 196.77 248.83 196.77 249.44C196.77 250.05 196.28 250.54 195.67 250.54H151.58C150.97 250.54 150.48 250.05 150.48 249.44Z" fill="#C5CED8"/>
<path d="M207.801 227.48C207.801 226.87 208.291 226.38 208.901 226.38H342.281C342.891 226.38 343.381 226.87 343.381 227.48C343.381 228.09 342.891 228.58 342.281 228.58H208.901C208.291 228.58 207.801 228.09 207.801 227.48Z" fill="#C5CED8"/>
<path d="M207.801 238.46C207.801 237.85 208.291 237.36 208.901 237.36H342.281C342.891 237.36 343.381 237.85 343.381 238.46C343.381 239.07 342.891 239.56 342.281 239.56H208.901C208.291 239.56 207.801 239.07 207.801 238.46Z" fill="#C5CED8"/>
<path d="M207.801 249.44C207.801 248.83 208.291 248.34 208.901 248.34H342.281C342.891 248.34 343.381 248.83 343.381 249.44C343.381 250.05 342.891 250.54 342.281 250.54H208.901C208.291 250.54 207.801 250.05 207.801 249.44Z" fill="#C5CED8"/>
<path d="M429.2 298.8H129.48V148.47H429.2V298.8ZM130.48 297.8H428.2V149.47H130.48V297.8Z" fill="#ACB9BE"/>
<path d="M133 141.94C133.84 141.94 134.61 141.58 135.18 141.02L134.71 140.55C134.27 141.02 133.66 141.31 133 141.31C131.69 141.31 130.59 140.17 130.59 138.82C130.59 137.47 131.69 136.33 133 136.33C133.66 136.33 134.27 136.63 134.71 137.09L135.18 136.62C134.62 136.05 133.84 135.7 133 135.7C131.32 135.7 129.9 137.12 129.9 138.82C129.9 140.52 131.33 141.95 133 141.95V141.94ZM136.82 138.18V137.29H136.16V141.83H136.82V139.29C136.82 138.4 137.55 137.77 138.58 137.77V137.18C137.74 137.18 137.09 137.57 136.82 138.17V138.18ZM141.55 141.35C140.65 141.35 140.02 140.7 139.93 139.81H143.66C143.66 138.22 142.88 137.18 141.5 137.18C140.27 137.18 139.25 138.19 139.25 139.54C139.25 140.89 140.34 141.93 141.56 141.93C142.19 141.93 143 141.66 143.39 141.23L142.98 140.8C142.7 141.11 142.08 141.34 141.54 141.34L141.55 141.35ZM141.52 137.77C142.43 137.77 142.91 138.4 143 139.22H139.93C140.05 138.34 140.71 137.77 141.52 137.77ZM146.59 137.18C146.15 137.18 145.6 137.29 144.95 137.62L145.21 138.16C145.62 137.95 146.08 137.75 146.54 137.75C147.53 137.75 147.77 138.45 147.77 139.07V139.24C147.3 139.09 146.78 138.99 146.29 138.99C145.31 138.99 144.5 139.6 144.5 140.5C144.5 141.4 145.21 141.95 146.17 141.95C146.77 141.95 147.45 141.67 147.77 141.13V141.84H148.43V139.07C148.43 137.97 147.82 137.19 146.58 137.19L146.59 137.18ZM146.29 141.35C145.65 141.35 145.15 141.02 145.15 140.45C145.15 139.88 145.72 139.52 146.4 139.52C146.89 139.52 147.36 139.59 147.78 139.7V140.39C147.6 141.03 146.89 141.34 146.29 141.34V141.35ZM151.79 141.16C151.69 141.27 151.52 141.34 151.31 141.34C151.05 141.34 150.82 141.1 150.82 140.77V137.87H151.94V137.28H150.82V136.03H150.16V137.28H149.45V137.87H150.16V140.77C150.16 141.45 150.62 141.93 151.27 141.93C151.58 141.93 151.88 141.82 152.12 141.64L151.79 141.16ZM155.11 141.34C154.21 141.34 153.58 140.69 153.49 139.8H157.22C157.22 138.21 156.44 137.17 155.06 137.17C153.83 137.17 152.81 138.18 152.81 139.53C152.81 140.88 153.9 141.92 155.12 141.92C155.75 141.92 156.56 141.65 156.95 141.22L156.54 140.79C156.26 141.1 155.64 141.33 155.1 141.33L155.11 141.34ZM155.08 137.76C155.99 137.76 156.47 138.39 156.56 139.21H153.49C153.61 138.33 154.27 137.76 155.08 137.76ZM165.81 141.82H166.56L163.89 135.79H163.14L160.47 141.82H161.22L161.83 140.45H165.21L165.82 141.82H165.81ZM162.11 139.8L163.52 136.63L164.92 139.8H162.11ZM169.63 141.93C170.26 141.93 170.85 141.67 171.28 141.24L170.82 140.79C170.51 141.13 170.09 141.34 169.63 141.34C168.72 141.34 167.96 140.52 167.96 139.55C167.96 138.58 168.72 137.77 169.63 137.77C170.08 137.77 170.49 137.97 170.79 138.3L171.25 137.85C170.82 137.44 170.24 137.18 169.63 137.18C168.35 137.18 167.27 138.26 167.27 139.55C167.27 140.84 168.35 141.93 169.63 141.93ZM174.41 141.93C175.04 141.93 175.63 141.67 176.06 141.24L175.6 140.79C175.29 141.13 174.87 141.34 174.41 141.34C173.5 141.34 172.74 140.52 172.74 139.55C172.74 138.58 173.5 137.77 174.41 137.77C174.86 137.77 175.27 137.97 175.57 138.3L176.03 137.85C175.6 137.44 175.02 137.18 174.41 137.18C173.13 137.18 172.05 138.26 172.05 139.55C172.05 140.84 173.13 141.93 174.41 141.93ZM179.09 141.93C180.37 141.93 181.44 140.84 181.44 139.55C181.44 138.26 180.36 137.18 179.09 137.18C177.82 137.18 176.73 138.26 176.73 139.55C176.73 140.84 177.81 141.93 179.09 141.93ZM179.09 141.34C178.18 141.34 177.42 140.52 177.42 139.55C177.42 138.58 178.18 137.77 179.09 137.77C180 137.77 180.75 138.59 180.75 139.55C180.75 140.51 179.99 141.34 179.09 141.34ZM185.75 137.28V140.17C185.75 140.8 185.11 141.34 184.34 141.34C183.67 141.34 183.2 140.82 183.2 140.08V137.28H182.54V140.17C182.54 141.2 183.25 141.93 184.25 141.93C184.89 141.93 185.48 141.58 185.75 141.1V141.83H186.41V137.29H185.75V137.28ZM189.93 137.17C189.29 137.17 188.7 137.52 188.43 138V137.27H187.77V141.81H188.43V138.92C188.43 138.29 189.07 137.75 189.84 137.75C190.51 137.75 190.98 138.27 190.98 139.01V141.81H191.64V138.92C191.64 137.89 190.93 137.16 189.93 137.16V137.17ZM194.98 141.15C194.88 141.26 194.71 141.33 194.5 141.33C194.24 141.33 194.01 141.09 194.01 140.76V137.86H195.13V137.27H194.01V136.02H193.35V137.27H192.64V137.86H193.35V140.76C193.35 141.44 193.81 141.92 194.46 141.92C194.77 141.92 195.07 141.81 195.31 141.63L194.98 141.15Z" fill="#2D4048"/>
</g>
<rect x="83.5" y="36.5" width="390" height="287" stroke="#859399"/>
<g clip-path="url(#clip1_8673_7075)">
<rect x="506" y="36" width="391" height="288" fill="#FCFDFD"/>
<rect width="391" height="17" transform="translate(506 36)" fill="#859399"/>
<path d="M844.75 87.1699H573.59V88.3899H844.75V87.1699Z" fill="#ACB9BE"/>
<path d="M568.08 92.58C572.04 92.58 575.24 89.38 575.24 85.44C575.24 81.5 572.03 78.3 568.08 78.3C564.13 78.3 560.92 81.5 560.92 85.44C560.92 89.38 564.13 92.58 568.08 92.58Z" fill="white"/>
<path d="M568.08 93.08C563.85 93.08 560.42 89.65 560.42 85.44C560.42 81.23 563.86 77.8 568.08 77.8C572.3 77.8 575.75 81.23 575.75 85.44C575.75 89.65 572.31 93.08 568.08 93.08ZM568.08 78.81C564.4 78.81 561.42 81.7901 561.42 85.4501C561.42 89.1101 564.41 92.09 568.08 92.09C571.75 92.09 574.75 89.1101 574.75 85.4501C574.75 81.7901 571.76 78.81 568.08 78.81Z" fill="#56AA13"/>
<path d="M567.73 87.7098C567.6 87.7098 567.47 87.6598 567.37 87.5598L564.75 84.8698C564.56 84.6698 564.56 84.3598 564.75 84.1598C564.95 83.9698 565.26 83.9698 565.46 84.1598L567.72 86.4698L571.86 82.1198C572.05 81.9198 572.37 81.9098 572.57 82.0998C572.77 82.2898 572.78 82.6098 572.59 82.8098L568.09 87.5398C568 87.6398 567.84 87.6598 567.73 87.6998V87.7098Z" fill="#56AA13"/>
<path d="M849.16 92.58C853.12 92.58 856.32 89.38 856.32 85.44C856.32 81.5 853.11 78.3 849.16 78.3C845.21 78.3 842 81.5 842 85.44C842 89.38 845.21 92.58 849.16 92.58Z" fill="white"/>
<path d="M849.16 93.08C844.93 93.08 841.5 89.65 841.5 85.44C841.5 81.23 844.94 77.8 849.16 77.8C853.38 77.8 856.83 81.23 856.83 85.44C856.83 89.65 853.39 93.08 849.16 93.08ZM849.16 78.81C845.49 78.81 842.5 81.7901 842.5 85.4501C842.5 89.1101 845.49 92.09 849.16 92.09C852.83 92.09 855.83 89.1101 855.83 85.4501C855.83 81.7901 852.84 78.81 849.16 78.81Z" fill="#ACB9BE"/>
<path d="M661.769 92.58C665.729 92.58 668.929 89.38 668.929 85.44C668.929 81.5 665.719 78.3 661.769 78.3C657.819 78.3 654.609 81.5 654.609 85.44C654.609 89.38 657.819 92.58 661.769 92.58Z" fill="white"/>
<path d="M661.769 93.08C657.539 93.08 654.109 89.65 654.109 85.44C654.109 81.23 657.549 77.8 661.769 77.8C665.989 77.8 669.439 81.23 669.439 85.44C669.439 89.65 665.999 93.08 661.769 93.08ZM661.769 78.81C658.089 78.81 655.109 81.7901 655.109 85.4501C655.109 89.1101 658.099 92.09 661.769 92.09C665.439 92.09 668.439 89.1101 668.439 85.4501C668.439 81.7901 665.449 78.81 661.769 78.81Z" fill="#0079AD"/>
<path d="M661.77 88.94C663.71 88.94 665.28 87.38 665.28 85.45C665.28 83.52 663.71 81.96 661.77 81.96C659.83 81.96 658.26 83.52 658.26 85.45C658.26 87.38 659.83 88.94 661.77 88.94Z" fill="#0079AD"/>
<path d="M755.471 92.58C759.431 92.58 762.63 89.38 762.63 85.44C762.63 81.5 759.421 78.3 755.471 78.3C751.521 78.3 748.311 81.5 748.311 85.44C748.311 89.38 751.521 92.58 755.471 92.58Z" fill="white"/>
<path d="M755.461 93.08C751.231 93.08 747.801 89.65 747.801 85.44C747.801 81.23 751.241 77.8 755.461 77.8C759.681 77.8 763.131 81.23 763.131 85.44C763.131 89.65 759.691 93.08 755.461 93.08ZM755.461 78.81C751.791 78.81 748.801 81.7901 748.801 85.4501C748.801 89.1101 751.791 92.09 755.461 92.09C759.131 92.09 762.131 89.1101 762.131 85.4501C762.131 81.7901 759.141 78.81 755.461 78.81Z" fill="#ACB9BE"/>
<path d="M547.33 103.09C547.96 103.09 548.54 102.82 548.96 102.4L548.61 102.04C548.28 102.39 547.82 102.61 547.33 102.61C546.35 102.61 545.52 101.75 545.52 100.74C545.52 99.7299 546.35 98.8799 547.33 98.8799C547.83 98.8799 548.28 99.0999 548.61 99.4499L548.96 99.0899C548.54 98.6599 547.95 98.3999 547.33 98.3999C546.07 98.3999 545 99.4699 545 100.74C545 102.01 546.07 103.09 547.33 103.09ZM550.2 100.27V99.5999H549.7V103.01H550.2V101.11C550.2 100.44 550.75 99.9699 551.52 99.9699V99.5299C550.89 99.5299 550.4 99.8199 550.2 100.27ZM553.75 102.65C553.08 102.65 552.61 102.16 552.53 101.5H555.33C555.33 100.31 554.74 99.5299 553.71 99.5299C552.79 99.5299 552.02 100.29 552.02 101.3C552.02 102.31 552.84 103.09 553.75 103.09C554.23 103.09 554.83 102.89 555.13 102.56L554.83 102.24C554.62 102.47 554.16 102.65 553.75 102.65ZM553.73 99.9699C554.41 99.9699 554.77 100.44 554.84 101.06H552.54C552.63 100.4 553.12 99.9699 553.73 99.9699ZM557.53 99.5299C557.2 99.5299 556.79 99.6199 556.3 99.8599L556.5 100.26C556.81 100.1 557.15 99.9499 557.5 99.9499C558.24 99.9499 558.43 100.48 558.43 100.94V101.07C558.08 100.96 557.69 100.88 557.32 100.88C556.59 100.88 555.98 101.33 555.98 102.01C555.98 102.69 556.51 103.1 557.23 103.1C557.68 103.1 558.19 102.89 558.43 102.49V103.02H558.93V100.94C558.93 100.12 558.47 99.5299 557.54 99.5299H557.53ZM557.31 102.66C556.83 102.66 556.46 102.41 556.46 101.99C556.46 101.57 556.89 101.29 557.4 101.29C557.77 101.29 558.12 101.34 558.43 101.43V101.95C558.3 102.43 557.76 102.66 557.31 102.66ZM561.44 102.52C561.37 102.6 561.24 102.66 561.08 102.66C560.88 102.66 560.71 102.48 560.71 102.23V100.06H561.55V99.6199H560.71V98.6799H560.21V99.6199H559.67V100.06H560.21V102.23C560.21 102.74 560.55 103.1 561.04 103.1C561.27 103.1 561.5 103.02 561.67 102.88L561.43 102.52H561.44ZM563.93 102.66C563.26 102.66 562.79 102.17 562.71 101.51H565.51C565.51 100.32 564.92 99.5399 563.89 99.5399C562.97 99.5399 562.2 100.3 562.2 101.31C562.2 102.32 563.02 103.1 563.93 103.1C564.41 103.1 565.01 102.9 565.31 102.57L565.01 102.25C564.8 102.48 564.34 102.66 563.93 102.66ZM563.91 99.9799C564.59 99.9799 564.95 100.45 565.02 101.07H562.72C562.81 100.41 563.3 99.9799 563.91 99.9799ZM571.96 103.02H572.52L570.52 98.4899H569.96L567.96 103.02H568.52L568.98 101.99H571.51L571.97 103.02H571.96ZM569.18 101.5L570.24 99.1199L571.29 101.5H569.18ZM574.82 103.09C575.3 103.09 575.73 102.89 576.06 102.57L575.72 102.23C575.49 102.49 575.17 102.65 574.83 102.65C574.15 102.65 573.58 102.04 573.58 101.31C573.58 100.58 574.15 99.9699 574.83 99.9699C575.17 99.9699 575.48 100.12 575.7 100.37L576.04 100.03C575.72 99.7199 575.29 99.5299 574.82 99.5299C573.86 99.5299 573.05 100.34 573.05 101.31C573.05 102.28 573.86 103.1 574.82 103.1V103.09ZM578.4 103.09C578.88 103.09 579.31 102.89 579.64 102.57L579.3 102.23C579.07 102.49 578.75 102.65 578.41 102.65C577.73 102.65 577.16 102.04 577.16 101.31C577.16 100.58 577.73 99.9699 578.41 99.9699C578.75 99.9699 579.06 100.12 579.28 100.37L579.62 100.03C579.3 99.7199 578.87 99.5299 578.4 99.5299C577.44 99.5299 576.63 100.34 576.63 101.31C576.63 102.28 577.44 103.1 578.4 103.1V103.09ZM581.91 103.09C582.87 103.09 583.68 102.27 583.68 101.3C583.68 100.33 582.87 99.5199 581.91 99.5199C580.95 99.5199 580.14 100.33 580.14 101.3C580.14 102.27 580.95 103.09 581.91 103.09ZM581.91 102.65C581.23 102.65 580.66 102.04 580.66 101.31C580.66 100.58 581.23 99.9699 581.91 99.9699C582.59 99.9699 583.15 100.58 583.15 101.31C583.15 102.04 582.58 102.65 581.91 102.65ZM586.9 99.6099V101.78C586.9 102.25 586.42 102.66 585.84 102.66C585.34 102.66 584.99 102.27 584.99 101.72V99.6199H584.49V101.79C584.49 102.56 585.02 103.11 585.77 103.11C586.25 103.11 586.7 102.85 586.89 102.48V103.03H587.39V99.6199H586.89L586.9 99.6099ZM590.03 99.5299C589.55 99.5299 589.1 99.7899 588.91 100.16V99.6099H588.41V103.02H588.91V100.85C588.91 100.38 589.39 99.9699 589.97 99.9699C590.47 99.9699 590.82 100.36 590.82 100.91V103.01H591.32V100.84C591.32 100.07 590.79 99.5199 590.04 99.5199L590.03 99.5299ZM593.82 102.51C593.75 102.59 593.62 102.65 593.46 102.65C593.26 102.65 593.09 102.47 593.09 102.22V100.05H593.93V99.6099H593.09V98.6699H592.59V99.6099H592.05V100.05H592.59V102.22C592.59 102.73 592.93 103.09 593.42 103.09C593.65 103.09 593.88 103.01 594.05 102.87L593.81 102.51H593.82Z" fill="#2D4048"/>
<path d="M632.621 103.01H633.141V98.48H632.621V103.01ZM636.841 98.4V100.24C636.581 99.79 636.151 99.52 635.601 99.52C634.701 99.52 634.031 100.26 634.031 101.3C634.031 102.34 634.701 103.09 635.601 103.09C636.151 103.09 636.591 102.82 636.841 102.37V103.01H637.341V98.4H636.841ZM635.691 102.64C635.021 102.64 634.551 102.08 634.551 101.3C634.551 100.52 635.031 99.96 635.691 99.96C636.351 99.96 636.841 100.51 636.841 101.3C636.841 102.09 636.361 102.64 635.691 102.64ZM639.931 102.64C639.261 102.64 638.791 102.15 638.711 101.49H641.511C641.511 100.3 640.921 99.52 639.891 99.52C638.971 99.52 638.201 100.28 638.201 101.29C638.201 102.3 639.021 103.08 639.931 103.08C640.411 103.08 641.011 102.88 641.311 102.55L641.011 102.23C640.801 102.46 640.341 102.64 639.931 102.64ZM639.911 99.96C640.591 99.96 640.951 100.43 641.021 101.05H638.721C638.811 100.39 639.301 99.96 639.911 99.96ZM643.951 99.52C643.471 99.52 643.021 99.78 642.831 100.15V99.6H642.331V103.01H642.831V100.84C642.831 100.37 643.311 99.96 643.891 99.96C644.391 99.96 644.741 100.35 644.741 100.9V103H645.241V100.83C645.241 100.06 644.711 99.51 643.961 99.51L643.951 99.52ZM647.741 102.5C647.671 102.58 647.541 102.64 647.381 102.64C647.181 102.64 647.011 102.46 647.011 102.21V100.04H647.851V99.6H647.011V98.66H646.511V99.6H645.971V100.04H646.511V102.21C646.511 102.72 646.851 103.08 647.341 103.08C647.571 103.08 647.801 103 647.971 102.86L647.731 102.5H647.741ZM648.931 98.98C649.111 98.98 649.251 98.83 649.251 98.65C649.251 98.47 649.101 98.33 648.931 98.33C648.761 98.33 648.601 98.48 648.601 98.65C648.601 98.82 648.751 98.98 648.931 98.98ZM648.681 103.01H649.181V99.6H648.681V103.01ZM651.671 102.51C651.601 102.59 651.461 102.65 651.311 102.65C651.111 102.65 650.941 102.47 650.941 102.22V100.05H651.781V99.61H650.941V98.67H650.441V99.61H649.901V100.05H650.441V102.22C650.441 102.73 650.781 103.09 651.271 103.09C651.501 103.09 651.731 103.01 651.901 102.87L651.661 102.51H651.671ZM653.121 104.2C653.591 104.2 653.921 103.98 654.161 103.4L655.721 99.61H655.181L654.051 102.44L652.851 99.61H652.301L653.791 103.03L653.591 103.45C653.461 103.68 653.311 103.75 653.091 103.75C652.941 103.75 652.811 103.72 652.691 103.66L652.571 104.08C652.731 104.15 652.911 104.19 653.111 104.19L653.121 104.2ZM662.171 98.49L660.451 102.38L658.721 98.49H658.161L660.161 103.02H660.721L662.721 98.49H662.161H662.171ZM664.541 102.65C663.871 102.65 663.401 102.16 663.321 101.5H666.121C666.121 100.31 665.531 99.53 664.501 99.53C663.581 99.53 662.811 100.29 662.811 101.3C662.811 102.31 663.631 103.09 664.541 103.09C665.021 103.09 665.621 102.89 665.921 102.56L665.621 102.24C665.411 102.47 664.951 102.65 664.541 102.65ZM664.521 99.97C665.201 99.97 665.561 100.44 665.631 101.06H663.331C663.421 100.4 663.911 99.97 664.521 99.97ZM667.471 100.27V99.6H666.971V103.01H667.471V101.11C667.471 100.44 668.021 99.97 668.791 99.97V99.53C668.161 99.53 667.671 99.82 667.471 100.27ZM669.721 98.99C669.901 98.99 670.041 98.84 670.041 98.66C670.041 98.48 669.891 98.34 669.721 98.34C669.551 98.34 669.391 98.49 669.391 98.66C669.391 98.83 669.541 98.99 669.721 98.99ZM669.471 103.02H669.971V99.61H669.471V103.02ZM671.741 99.15C671.741 98.9 671.911 98.72 672.111 98.72C672.261 98.72 672.391 98.78 672.471 98.86L672.711 98.5C672.531 98.36 672.311 98.28 672.081 98.28C671.591 98.28 671.251 98.64 671.251 99.15V99.62H670.711V100.06H671.251V103.02H671.751V100.06H672.591V99.62H671.751V99.15H671.741ZM673.531 99C673.711 99 673.851 98.85 673.851 98.67C673.851 98.49 673.701 98.35 673.531 98.35C673.361 98.35 673.201 98.5 673.201 98.67C673.201 98.84 673.351 99 673.531 99ZM673.281 103.03H673.781V99.62H673.281V103.03ZM676.361 103.11C676.841 103.11 677.271 102.91 677.601 102.59L677.261 102.25C677.031 102.51 676.711 102.67 676.371 102.67C675.691 102.67 675.121 102.06 675.121 101.33C675.121 100.6 675.691 99.99 676.371 99.99C676.711 99.99 677.021 100.14 677.241 100.39L677.581 100.05C677.261 99.74 676.831 99.55 676.361 99.55C675.401 99.55 674.591 100.36 674.591 101.33C674.591 102.3 675.401 103.12 676.361 103.12V103.11ZM679.751 99.55C679.421 99.55 679.011 99.64 678.521 99.88L678.721 100.28C679.031 100.12 679.371 99.97 679.721 99.97C680.461 99.97 680.651 100.5 680.651 100.96V101.09C680.301 100.98 679.911 100.9 679.541 100.9C678.811 100.9 678.201 101.35 678.201 102.03C678.201 102.71 678.731 103.12 679.451 103.12C679.901 103.12 680.411 102.91 680.651 102.51V103.04H681.151V100.96C681.151 100.14 680.691 99.55 679.761 99.55H679.751ZM679.531 102.68C679.051 102.68 678.681 102.43 678.681 102.01C678.681 101.59 679.111 101.31 679.621 101.31C679.991 101.31 680.341 101.36 680.651 101.45V101.97C680.521 102.45 679.981 102.68 679.531 102.68ZM683.661 102.54C683.591 102.62 683.461 102.68 683.301 102.68C683.101 102.68 682.931 102.5 682.931 102.25V100.08H683.771V99.64H682.931V98.7H682.431V99.64H681.891V100.08H682.431V102.25C682.431 102.76 682.771 103.12 683.261 103.12C683.491 103.12 683.721 103.04 683.891 102.9L683.651 102.54H683.661ZM684.851 99.02C685.031 99.02 685.171 98.87 685.171 98.69C685.171 98.51 685.021 98.37 684.851 98.37C684.681 98.37 684.521 98.52 684.521 98.69C684.521 98.86 684.671 99.02 684.851 99.02ZM684.601 103.05H685.101V99.64H684.601V103.05ZM687.681 103.13C688.641 103.13 689.451 102.31 689.451 101.34C689.451 100.37 688.641 99.56 687.681 99.56C686.721 99.56 685.911 100.37 685.911 101.34C685.911 102.31 686.721 103.13 687.681 103.13ZM687.681 102.69C687.001 102.69 686.431 102.08 686.431 101.35C686.431 100.62 687.001 100.01 687.681 100.01C688.361 100.01 688.921 100.62 688.921 101.35C688.921 102.08 688.351 102.69 687.681 102.69ZM691.891 99.57C691.411 99.57 690.961 99.83 690.771 100.2V99.65H690.271V103.06H690.771V100.89C690.771 100.42 691.251 100.01 691.831 100.01C692.331 100.01 692.681 100.4 692.681 100.95V103.05H693.181V100.88C693.181 100.11 692.651 99.56 691.901 99.56L691.891 99.57Z" fill="#2D4048"/>
<path d="M631.83 88.99H593.01C592.46 88.99 592.01 88.54 592.01 87.99C592.01 87.44 592.46 86.99 593.01 86.99H631.83C632.38 86.99 632.83 87.44 632.83 87.99C632.83 88.54 632.38 88.99 631.83 88.99Z" fill="#D42398"/>
<path fill-rule="evenodd" clip-rule="evenodd" d="M629.83 92.15V83L640.85 87.57L629.83 92.14V92.15Z" fill="#D42398"/>
<path d="M850.82 148.72H551V170.68H850.82V148.72Z" fill="#E0F6FF"/>
<g opacity="0.2">
<path d="M850.771 170.63H551.051V148.77H850.771V170.63ZM552.051 169.63H849.771V149.77H552.051V169.63Z" fill="black"/>
</g>
<path d="M574.74 161.89H575.43V155.86H574.74V161.89ZM580.36 155.75V158.2C580.02 157.6 579.43 157.24 578.7 157.24C577.5 157.24 576.6 158.22 576.6 159.61C576.6 161 577.5 161.99 578.7 161.99C579.43 161.99 580.01 161.63 580.36 161.03V161.88H581.02V155.74H580.36V155.75ZM578.83 161.41C577.94 161.41 577.3 160.66 577.3 159.62C577.3 158.58 577.93 157.84 578.83 157.84C579.73 157.84 580.36 158.58 580.36 159.62C580.36 160.66 579.73 161.41 578.83 161.41ZM584.48 161.41C583.58 161.41 582.95 160.76 582.86 159.87H586.59C586.59 158.28 585.81 157.24 584.43 157.24C583.2 157.24 582.18 158.25 582.18 159.6C582.18 160.95 583.27 161.99 584.49 161.99C585.12 161.99 585.93 161.72 586.32 161.29L585.91 160.86C585.63 161.17 585.01 161.4 584.47 161.4L584.48 161.41ZM584.45 157.83C585.36 157.83 585.84 158.46 585.93 159.28H582.86C582.98 158.4 583.64 157.83 584.45 157.83ZM589.84 157.24C589.2 157.24 588.61 157.59 588.34 158.07V157.34H587.68V161.88H588.34V158.99C588.34 158.36 588.98 157.82 589.75 157.82C590.42 157.82 590.89 158.34 590.89 159.08V161.88H591.55V158.99C591.55 157.96 590.84 157.23 589.84 157.23V157.24ZM594.89 161.22C594.79 161.33 594.62 161.4 594.41 161.4C594.15 161.4 593.92 161.16 593.92 160.83V157.93H595.04V157.34H593.92V156.09H593.26V157.34H592.55V157.93H593.26V160.83C593.26 161.51 593.72 161.99 594.37 161.99C594.68 161.99 594.98 161.88 595.22 161.7L594.89 161.22ZM596.48 156.52C596.72 156.52 596.91 156.32 596.91 156.08C596.91 155.84 596.72 155.65 596.48 155.65C596.24 155.65 596.04 155.85 596.04 156.08C596.04 156.31 596.23 156.52 596.48 156.52ZM596.14 161.89H596.8V157.35H596.14V161.89ZM600.13 161.22C600.03 161.33 599.86 161.4 599.65 161.4C599.39 161.4 599.16 161.16 599.16 160.83V157.93H600.28V157.34H599.16V156.09H598.5V157.34H597.79V157.93H598.5V160.83C598.5 161.51 598.96 161.99 599.61 161.99C599.92 161.99 600.22 161.88 600.46 161.7L600.13 161.22ZM602.07 163.47C602.7 163.47 603.14 163.17 603.45 162.4L605.53 157.35H604.82L603.31 161.13L601.71 157.35H600.98L602.96 161.91L602.7 162.47C602.52 162.78 602.33 162.87 602.04 162.87C601.85 162.87 601.66 162.83 601.5 162.76L601.34 163.32C601.55 163.42 601.8 163.47 602.06 163.47H602.07ZM614.13 155.85L611.84 161.04L609.54 155.85H608.79L611.46 161.88H612.21L614.88 155.85H614.13ZM617.28 161.4C616.38 161.4 615.75 160.75 615.66 159.86H619.39C619.39 158.27 618.61 157.23 617.23 157.23C616 157.23 614.98 158.24 614.98 159.59C614.98 160.94 616.07 161.98 617.29 161.98C617.92 161.98 618.73 161.71 619.12 161.28L618.71 160.85C618.43 161.16 617.81 161.39 617.27 161.39L617.28 161.4ZM617.25 157.82C618.16 157.82 618.64 158.45 618.73 159.27H615.66C615.78 158.39 616.44 157.82 617.25 157.82ZM621.19 158.22V157.33H620.53V161.87H621.19V159.33C621.19 158.44 621.92 157.81 622.95 157.81V157.22C622.11 157.22 621.46 157.61 621.19 158.21V158.22ZM624.19 156.51C624.43 156.51 624.62 156.31 624.62 156.07C624.62 155.83 624.43 155.64 624.19 155.64C623.95 155.64 623.75 155.84 623.75 156.07C623.75 156.3 623.94 156.51 624.19 156.51ZM623.85 161.88H624.51V157.34H623.85V161.88ZM626.87 156.71C626.87 156.38 627.1 156.14 627.36 156.14C627.56 156.14 627.74 156.22 627.84 156.32L628.17 155.84C627.93 155.66 627.63 155.55 627.32 155.55C626.67 155.55 626.21 156.03 626.21 156.71V157.33H625.5V157.92H626.21V161.87H626.87V157.92H627.99V157.33H626.87V156.71ZM629.26 156.51C629.5 156.51 629.69 156.31 629.69 156.07C629.69 155.83 629.5 155.64 629.26 155.64C629.02 155.64 628.82 155.84 628.82 156.07C628.82 156.3 629.01 156.51 629.26 156.51ZM628.92 161.88H629.58V157.34H628.92V161.88ZM633.03 161.99C633.66 161.99 634.25 161.73 634.68 161.3L634.22 160.85C633.91 161.19 633.49 161.4 633.03 161.4C632.12 161.4 631.36 160.58 631.36 159.61C631.36 158.64 632.12 157.83 633.03 157.83C633.48 157.83 633.89 158.03 634.19 158.36L634.65 157.91C634.22 157.5 633.64 157.24 633.03 157.24C631.75 157.24 630.67 158.32 630.67 159.61C630.67 160.9 631.75 161.99 633.03 161.99ZM637.54 157.24C637.1 157.24 636.55 157.35 635.9 157.68L636.16 158.22C636.57 158.01 637.03 157.81 637.49 157.81C638.48 157.81 638.72 158.51 638.72 159.13V159.3C638.25 159.15 637.73 159.05 637.24 159.05C636.26 159.05 635.45 159.66 635.45 160.56C635.45 161.46 636.16 162.01 637.12 162.01C637.72 162.01 638.4 161.73 638.72 161.19V161.9H639.38V159.13C639.38 158.03 638.77 157.25 637.53 157.25L637.54 157.24ZM637.24 161.41C636.6 161.41 636.1 161.08 636.1 160.51C636.1 159.94 636.67 159.58 637.35 159.58C637.84 159.58 638.31 159.65 638.73 159.76V160.45C638.55 161.09 637.84 161.4 637.24 161.4V161.41ZM642.74 161.22C642.64 161.33 642.47 161.4 642.26 161.4C642 161.4 641.77 161.16 641.77 160.83V157.93H642.89V157.34H641.77V156.09H641.11V157.34H640.4V157.93H641.11V160.83C641.11 161.51 641.57 161.99 642.22 161.99C642.53 161.99 642.83 161.88 643.07 161.7L642.74 161.22ZM644.33 156.52C644.57 156.52 644.76 156.32 644.76 156.08C644.76 155.84 644.57 155.65 644.33 155.65C644.09 155.65 643.89 155.85 643.89 156.08C643.89 156.31 644.08 156.52 644.33 156.52ZM643.99 161.89H644.65V157.35H643.99V161.89ZM648.1 162C649.38 162 650.45 160.91 650.45 159.62C650.45 158.33 649.37 157.25 648.1 157.25C646.83 157.25 645.74 158.33 645.74 159.62C645.74 160.91 646.82 162 648.1 162ZM648.1 161.41C647.19 161.41 646.43 160.59 646.43 159.62C646.43 158.65 647.19 157.84 648.1 157.84C649.01 157.84 649.76 158.66 649.76 159.62C649.76 160.58 649 161.41 648.1 161.41ZM653.72 157.25C653.08 157.25 652.49 157.6 652.22 158.08V157.35H651.56V161.89H652.22V159C652.22 158.37 652.86 157.83 653.63 157.83C654.3 157.83 654.77 158.35 654.77 159.09V161.89H655.43V159C655.43 157.97 654.72 157.24 653.72 157.24V157.25Z" fill="#22343C"/>
<path d="M556.41 148.72H552V170.68H556.41V148.72Z" fill="#0079AD"/>
<path d="M565.262 161.2C565.162 161.2 565.062 161.16 564.982 161.08L562.222 158.34C562.062 158.18 562.062 157.93 562.222 157.77C562.382 157.61 562.632 157.61 562.792 157.77L565.262 160.23L567.732 157.77C567.892 157.61 568.142 157.61 568.302 157.77C568.462 157.93 568.462 158.18 568.302 158.34L565.542 161.08C565.462 161.16 565.362 161.2 565.262 161.2Z" fill="#4F6169"/>
<path d="M583.83 234.37H584.66V231.19L587.06 234.37H587.88V229.84H587.06V233.02L584.66 229.84H583.83V234.37ZM592.83 230.59V229.84H589.41V234.37H592.83V233.62H590.24V232.44H592.59V231.69H590.24V230.6H592.83V230.59ZM598.19 229.84H597.22L596.02 231.45L594.82 229.84H593.83L595.52 232.11L593.83 234.37H594.8L596 232.76L597.2 234.37H598.18L596.49 232.1L598.18 229.84H598.19ZM600.58 234.37H601.4V230.59H602.86V229.84H599.13V230.59H600.59V234.37H600.58Z" fill="#0079AD"/>
<path d="M613.992 240.9H572.392C571.122 240.9 570.092 239.87 570.092 238.61V225.72C570.092 224.46 571.122 223.43 572.392 223.43H613.992C615.262 223.43 616.292 224.46 616.292 225.72V238.61C616.292 239.87 615.262 240.9 613.992 240.9ZM572.392 224.43C571.672 224.43 571.092 225.01 571.092 225.72V238.61C571.092 239.32 571.672 239.9 572.392 239.9H613.992C614.712 239.9 615.292 239.32 615.292 238.61V225.72C615.292 225.01 614.712 224.43 613.992 224.43H572.392Z" fill="#0079AD"/>
<path d="M570.051 186.05C570.051 185.44 570.541 184.95 571.151 184.95H615.241C615.851 184.95 616.341 185.44 616.341 186.05C616.341 186.66 615.851 187.15 615.241 187.15H571.151C570.541 187.15 570.051 186.66 570.051 186.05Z" fill="#C5CED8"/>
<path d="M570.051 197.03C570.051 196.42 570.541 195.93 571.151 195.93H615.241C615.851 195.93 616.341 196.42 616.341 197.03C616.341 197.64 615.851 198.13 615.241 198.13H571.151C570.541 198.13 570.051 197.64 570.051 197.03Z" fill="#C5CED8"/>
<path d="M570.051 208.01C570.051 207.4 570.541 206.91 571.151 206.91H615.241C615.851 206.91 616.341 207.4 616.341 208.01C616.341 208.62 615.851 209.11 615.241 209.11H571.151C570.541 209.11 570.051 208.62 570.051 208.01Z" fill="#C5CED8"/>
<path d="M627.371 186.05C627.371 185.44 627.861 184.95 628.471 184.95H761.851C762.461 184.95 762.951 185.44 762.951 186.05C762.951 186.66 762.461 187.15 761.851 187.15H628.471C627.861 187.15 627.371 186.66 627.371 186.05Z" fill="#C5CED8"/>
<path d="M627.371 197.03C627.371 196.42 627.861 195.93 628.471 195.93H761.851C762.461 195.93 762.951 196.42 762.951 197.03C762.951 197.64 762.461 198.13 761.851 198.13H628.471C627.861 198.13 627.371 197.64 627.371 197.03Z" fill="#C5CED8"/>
<path d="M627.371 208.01C627.371 207.4 627.861 206.91 628.471 206.91H761.851C762.461 206.91 762.951 207.4 762.951 208.01C762.951 208.62 762.461 209.11 761.851 209.11H628.471C627.861 209.11 627.371 208.62 627.371 208.01Z" fill="#C5CED8"/>
<path d="M850.271 277.74H551.551V298.6H850.271V277.74Z" fill="white"/>
<path d="M850.771 299.1H551.051V277.24H850.771V299.1ZM552.051 298.1H849.771V278.24H552.051V298.1Z" fill="#ACB9BE"/>
<path d="M847.271 256.87H548.551V277.73H847.271V256.87Z" fill="white"/>
<path d="M850.771 278.24H551.051V256.38H850.771V278.24ZM552.051 277.24H849.771V257.38H552.051V277.24Z" fill="#ACB9BE"/>
<path d="M850.771 299.1H551.051V148.77H850.771V299.1ZM552.051 298.1H849.771V149.77H552.051V298.1Z" fill="#ACB9BE"/>
<path d="M553.561 142.24C554.401 142.24 555.171 141.88 555.741 141.32L555.271 140.85C554.831 141.32 554.221 141.61 553.561 141.61C552.251 141.61 551.151 140.47 551.151 139.12C551.151 137.77 552.251 136.63 553.561 136.63C554.221 136.63 554.831 136.93 555.271 137.39L555.741 136.92C555.181 136.35 554.401 136 553.561 136C551.881 136 550.461 137.42 550.461 139.12C550.461 140.82 551.891 142.25 553.561 142.25V142.24ZM557.381 138.48V137.59H556.721V142.13H557.381V139.59C557.381 138.7 558.111 138.07 559.141 138.07V137.48C558.301 137.48 557.651 137.87 557.381 138.47V138.48ZM562.111 141.65C561.211 141.65 560.581 141 560.491 140.11H564.221C564.221 138.52 563.441 137.48 562.061 137.48C560.831 137.48 559.811 138.49 559.811 139.84C559.811 141.19 560.901 142.23 562.121 142.23C562.751 142.23 563.561 141.96 563.951 141.53L563.541 141.1C563.261 141.41 562.641 141.64 562.101 141.64L562.111 141.65ZM562.081 138.07C562.991 138.07 563.471 138.7 563.561 139.52H560.491C560.611 138.64 561.271 138.07 562.081 138.07ZM567.151 137.48C566.711 137.48 566.161 137.59 565.511 137.92L565.771 138.46C566.181 138.25 566.641 138.05 567.101 138.05C568.091 138.05 568.331 138.75 568.331 139.37V139.54C567.861 139.39 567.341 139.29 566.851 139.29C565.871 139.29 565.061 139.9 565.061 140.8C565.061 141.7 565.771 142.25 566.731 142.25C567.331 142.25 568.011 141.97 568.331 141.43V142.14H568.991V139.37C568.991 138.27 568.381 137.49 567.141 137.49L567.151 137.48ZM566.851 141.65C566.211 141.65 565.711 141.32 565.711 140.75C565.711 140.18 566.281 139.82 566.961 139.82C567.451 139.82 567.921 139.89 568.341 140V140.69C568.161 141.33 567.451 141.64 566.851 141.64V141.65ZM572.351 141.46C572.251 141.57 572.081 141.64 571.871 141.64C571.611 141.64 571.381 141.4 571.381 141.07V138.17H572.501V137.58H571.381V136.33H570.721V137.58H570.011V138.17H570.721V141.07C570.721 141.75 571.181 142.23 571.831 142.23C572.141 142.23 572.441 142.12 572.681 141.94L572.351 141.46ZM575.671 141.64C574.771 141.64 574.141 140.99 574.051 140.1H577.781C577.781 138.51 577.001 137.47 575.621 137.47C574.391 137.47 573.371 138.48 573.371 139.83C573.371 141.18 574.461 142.22 575.681 142.22C576.311 142.22 577.121 141.95 577.511 141.52L577.101 141.09C576.821 141.4 576.201 141.63 575.661 141.63L575.671 141.64ZM575.641 138.06C576.551 138.06 577.031 138.69 577.121 139.51H574.051C574.171 138.63 574.831 138.06 575.641 138.06ZM586.371 142.12H587.121L584.451 136.09H583.701L581.031 142.12H581.781L582.391 140.75H585.771L586.381 142.12H586.371ZM582.671 140.1L584.081 136.93L585.481 140.1H582.671ZM590.191 142.23C590.821 142.23 591.411 141.97 591.841 141.54L591.381 141.09C591.071 141.43 590.651 141.64 590.191 141.64C589.281 141.64 588.521 140.82 588.521 139.85C588.521 138.88 589.281 138.07 590.191 138.07C590.641 138.07 591.051 138.27 591.351 138.6L591.811 138.15C591.381 137.74 590.801 137.48 590.191 137.48C588.911 137.48 587.831 138.56 587.831 139.85C587.831 141.14 588.911 142.23 590.191 142.23ZM594.971 142.23C595.601 142.23 596.191 141.97 596.621 141.54L596.161 141.09C595.851 141.43 595.431 141.64 594.971 141.64C594.061 141.64 593.301 140.82 593.301 139.85C593.301 138.88 594.061 138.07 594.971 138.07C595.421 138.07 595.831 138.27 596.131 138.6L596.591 138.15C596.161 137.74 595.581 137.48 594.971 137.48C593.691 137.48 592.611 138.56 592.611 139.85C592.611 141.14 593.691 142.23 594.971 142.23ZM599.651 142.23C600.931 142.23 602.001 141.14 602.001 139.85C602.001 138.56 600.921 137.48 599.651 137.48C598.381 137.48 597.291 138.56 597.291 139.85C597.291 141.14 598.371 142.23 599.651 142.23ZM599.651 141.64C598.741 141.64 597.981 140.82 597.981 139.85C597.981 138.88 598.741 138.07 599.651 138.07C600.561 138.07 601.311 138.89 601.311 139.85C601.311 140.81 600.551 141.64 599.651 141.64ZM606.311 137.58V140.47C606.311 141.1 605.671 141.64 604.901 141.64C604.231 141.64 603.761 141.12 603.761 140.38V137.58H603.101V140.47C603.101 141.5 603.811 142.23 604.811 142.23C605.451 142.23 606.041 141.88 606.311 141.4V142.13H606.971V137.59H606.311V137.58ZM610.491 137.47C609.851 137.47 609.261 137.82 608.991 138.3V137.57H608.331V142.11H608.991V139.22C608.991 138.59 609.631 138.05 610.401 138.05C611.071 138.05 611.541 138.57 611.541 139.31V142.11H612.201V139.22C612.201 138.19 611.491 137.46 610.491 137.46V137.47ZM615.541 141.45C615.441 141.56 615.271 141.63 615.061 141.63C614.801 141.63 614.571 141.39 614.571 141.06V138.16H615.691V137.57H614.571V136.32H613.911V137.57H613.201V138.16H613.911V141.06C613.911 141.74 614.371 142.22 615.021 142.22C615.331 142.22 615.631 142.11 615.871 141.93L615.541 141.45Z" fill="#2D4048"/>
<path fill-rule="evenodd" clip-rule="evenodd" d="M527 134V144.98L540.23 139.49L527 134Z" fill="#D42398"/>
</g>
<rect x="506.5" y="36.5" width="390" height="287" stroke="#859399"/>
<path d="M12 207.86C12 206.65 12.99 205.66 14.2 205.66H85C85.55 205.66 86.08 205.86 86.48 206.23L96.18 215.01C97.14 215.88 97.14 217.39 96.18 218.26L86.48 227.04C86.07 227.41 85.55 227.61 85 227.61H14.2C12.98 227.61 12 226.63 12 225.41V207.84V207.86Z" fill="#D23292"/>
<path d="M23.6594 220.07C25.6494 220.07 26.7894 219.02 26.7894 217.53C26.7894 216.04 25.6294 215.46 23.8894 215.08C22.5694 214.78 21.9494 214.54 21.9494 213.86C21.9494 213.28 22.5194 212.77 23.3594 212.77C24.1994 212.77 25.0194 213.12 25.7494 213.75L26.5694 212.64C25.7294 211.93 24.7394 211.48 23.4194 211.48C21.6594 211.48 20.4294 212.54 20.4294 213.99C20.4294 215.55 21.6294 216.04 23.3494 216.44C24.6794 216.75 25.2794 216.98 25.2794 217.67C25.2794 218.26 24.7494 218.77 23.7194 218.77C22.6294 218.77 21.7394 218.34 20.9794 217.65L20.1094 218.72C21.0294 219.58 22.2394 220.06 23.6694 220.06L23.6594 220.07ZM31.2494 218.6C31.1194 218.73 30.8894 218.83 30.6294 218.83C30.2794 218.83 30.0094 218.53 30.0094 218.11V214.92H31.4294V213.7H30.0094V211.98H28.5694V213.7H27.6594V214.92H28.5694V218.29C28.5694 219.34 29.2994 220.09 30.3394 220.09C30.8094 220.09 31.3194 219.9 31.6694 219.59L31.2494 218.6ZM35.7394 218.78C34.8394 218.78 34.1894 218.18 34.0094 217.32H38.7394C38.7394 215.01 37.6094 213.55 35.6694 213.55C33.8894 213.55 32.4794 214.93 32.4794 216.8C32.4794 218.67 33.9594 220.09 35.7494 220.09C36.6594 220.09 37.7494 219.7 38.2994 219.12L37.3694 218.15C37.0194 218.51 36.3294 218.78 35.7494 218.78H35.7394ZM35.7294 214.85C36.6194 214.85 37.1494 215.41 37.3194 216.19H34.0194C34.2394 215.37 34.9094 214.85 35.7294 214.85ZM43.7194 213.55C42.7894 213.55 42.0294 213.97 41.5394 214.69V213.7H40.0594V222.02H41.5394V218.95C42.0394 219.66 42.7894 220.09 43.7194 220.09C45.3794 220.09 46.5894 218.74 46.5894 216.82C46.5894 214.9 45.3794 213.56 43.7194 213.56V213.55ZM43.3194 218.83C42.2794 218.83 41.5494 217.98 41.5494 216.81C41.5494 215.64 42.2794 214.8 43.3194 214.8C44.3594 214.8 45.1294 215.63 45.1294 216.81C45.1294 217.99 44.3794 218.83 43.3194 218.83ZM51.6294 213.55C50.6994 213.55 49.9394 213.97 49.4494 214.69V213.7H47.9694V222.02H49.4494V218.95C49.9494 219.66 50.6994 220.09 51.6294 220.09C53.2894 220.09 54.4994 218.74 54.4994 216.82C54.4994 214.9 53.2894 213.56 51.6294 213.56V213.55ZM51.2294 218.83C50.1894 218.83 49.4594 217.98 49.4594 216.81C49.4594 215.64 50.1894 214.8 51.2294 214.8C52.2694 214.8 53.0394 215.63 53.0394 216.81C53.0394 217.99 52.2894 218.83 51.2294 218.83ZM58.7594 218.78C57.8594 218.78 57.2094 218.18 57.0294 217.32H61.7594C61.7594 215.01 60.6294 213.55 58.6894 213.55C56.9094 213.55 55.4994 214.93 55.4994 216.8C55.4994 218.67 56.9794 220.09 58.7694 220.09C59.6794 220.09 60.7694 219.7 61.3194 219.12L60.3894 218.15C60.0394 218.51 59.3494 218.78 58.7694 218.78H58.7594ZM58.7494 214.85C59.6394 214.85 60.1694 215.41 60.3394 216.19H57.0394C57.2594 215.37 57.9294 214.85 58.7494 214.85ZM64.5494 214.9V213.69H63.0694V219.93H64.5494V216.78C64.5494 215.6 65.4494 214.8 66.7894 214.8V213.54C65.7594 213.54 64.9494 214.06 64.5494 214.89V214.9Z" fill="white"/>
<path d="M12 76.2C12 74.99 12.99 74 14.2 74H85C85.55 74 86.08 74.2 86.48 74.57L96.18 83.35C97.14 84.22 97.14 85.73 96.18 86.6L86.48 95.38C86.07 95.75 85.55 95.95 85 95.95H14.2C12.98 95.95 12 94.97 12 93.75V76.18V76.2Z" fill="#D23292"/>
<path d="M22.8204 89.2699H24.3204V82.3499H26.9904V80.9699H20.1504V82.3499H22.8204V89.2699ZM28.9904 82.0799C29.4504 82.0799 29.8304 81.6799 29.8304 81.2299C29.8304 80.7799 29.4504 80.3999 28.9904 80.3999C28.5304 80.3999 28.1404 80.7899 28.1404 81.2299C28.1404 81.6699 28.5204 82.0799 28.9904 82.0799ZM28.2404 89.2699H29.7204V83.0299H28.2404V89.2699ZM38.5904 82.8799C37.6604 82.8799 36.8704 83.3399 36.5704 84.0599C36.1804 83.3199 35.4504 82.8799 34.5704 82.8799C33.7804 82.8799 33.1404 83.2699 32.8204 83.8699V83.0199H31.3404V89.2599H32.8204V85.4299C32.8204 84.6699 33.3904 84.1299 34.1904 84.1299C34.9204 84.1299 35.4104 84.7099 35.4104 85.5299V89.2599H36.8504V85.4299C36.8504 84.6699 37.4104 84.1299 38.2204 84.1299C38.9404 84.1299 39.4304 84.7099 39.4304 85.5299V89.2599H40.8704V85.2899C40.8704 83.8799 39.8904 82.8699 38.5804 82.8699L38.5904 82.8799ZM45.4004 88.1099C44.5004 88.1099 43.8504 87.5099 43.6704 86.6499H48.4004C48.4004 84.3399 47.2704 82.8799 45.3304 82.8799C43.5504 82.8799 42.1404 84.2599 42.1404 86.1299C42.1404 87.9999 43.6204 89.4199 45.4104 89.4199C46.3204 89.4199 47.4104 89.0299 47.9604 88.4499L47.0304 87.4799C46.6804 87.8399 45.9904 88.1099 45.4104 88.1099H45.4004ZM45.3904 84.1799C46.2804 84.1799 46.8104 84.7399 46.9804 85.5199H43.6804C43.9004 84.6999 44.5704 84.1799 45.3904 84.1799ZM49.6804 89.2699H51.1604V80.8299H49.6804V89.2699ZM53.5504 82.0799C54.0104 82.0799 54.3904 81.6799 54.3904 81.2299C54.3904 80.7799 54.0104 80.3999 53.5504 80.3999C53.0904 80.3999 52.7004 80.7899 52.7004 81.2299C52.7004 81.6699 53.0804 82.0799 53.5504 82.0799ZM52.8004 89.2699H54.2804V83.0299H52.8004V89.2699ZM59.3304 82.8799C58.5104 82.8799 57.7804 83.2799 57.3904 83.8599V83.0299H55.9104V89.2699H57.3904V85.3199C57.4904 84.6599 58.1304 84.1399 58.9104 84.1399C59.6904 84.1399 60.2304 84.7399 60.2304 85.5899V89.2699H61.6604V85.2999C61.6604 83.8899 60.7004 82.8799 59.3304 82.8799ZM66.1904 88.1099C65.2904 88.1099 64.6404 87.5099 64.4604 86.6499H69.1904C69.1904 84.3399 68.0604 82.8799 66.1204 82.8799C64.3404 82.8799 62.9304 84.2599 62.9304 86.1299C62.9304 87.9999 64.4104 89.4199 66.2004 89.4199C67.1104 89.4199 68.2004 89.0299 68.7504 88.4499L67.8204 87.4799C67.4704 87.8399 66.7804 88.1099 66.2004 88.1099H66.1904ZM66.1804 84.1799C67.0704 84.1799 67.6004 84.7399 67.7704 85.5199H64.4704C64.6904 84.6999 65.3604 84.1799 66.1804 84.1799Z" fill="white"/>
<path d="M360.871 275.84H209.561C209.011 275.84 208.561 275.39 208.561 274.84C208.561 274.29 209.011 273.84 209.561 273.84H360.871C382.201 273.84 399.551 256.56 399.551 235.31V179.31C399.551 156.96 417.801 138.78 440.231 138.78H529.541C530.091 138.78 530.541 139.23 530.541 139.78C530.541 140.33 530.091 140.78 529.541 140.78H440.231C418.901 140.78 401.551 158.06 401.551 179.31V235.31C401.551 257.66 383.301 275.84 360.871 275.84Z" fill="#D42398"/>
<path d="M204 274.84C204 276.66 205.48 278.13 207.31 278.13C209.14 278.13 210.62 276.66 210.62 274.84C210.62 273.02 209.14 271.55 207.31 271.55C205.48 271.55 204 273.02 204 274.84Z" fill="#D42398"/>
<rect x="0.5" y="0.5" width="927" height="359" rx="3.5" stroke="#ACB8BE"/>
<defs>
<clipPath id="clip0_8673_7075">
<rect x="83" y="36" width="391" height="288" fill="white"/>
</clipPath>
<clipPath id="clip1_8673_7075">
<rect x="506" y="36" width="391" height="288" fill="white"/>
</clipPath>
</defs>
</svg>
