<svg width="452" height="264" viewBox="0 0 452 264" fill="none" xmlns="http://www.w3.org/2000/svg">
<g clip-path="url(#clip0_8673_6492)">
<path d="M0 4C0 1.79086 1.79086 0 4 0H448C450.209 0 452 1.79086 452 4V264H0V4Z" fill="#FCFDFD"/>
<rect width="452" height="17" fill="#859399"/>
<g opacity="0.7">
<rect width="452" height="264" fill="#7F8B94"/>
</g>
<path d="M100.5 79.6C100.5 79.05 100.95 78.61 101.5 78.61H130.54C131.09 78.61 131.53 79.05 131.53 79.6C131.53 80.15 131.08 80.59 130.54 80.59H101.5C100.95 80.59 100.5 80.15 100.5 79.6Z" fill="#A9B7C6"/>
<path d="M100.5 87.09C100.5 86.54 100.95 86.1 101.5 86.1H129.6C130.15 86.1 130.59 86.54 130.59 87.09C130.59 87.64 130.14 88.08 129.6 88.08H101.5C100.95 88.08 100.5 87.64 100.5 87.09Z" fill="#C5CED8"/>
<path d="M100.5 94.59C100.5 94.04 100.95 93.6 101.5 93.6H126.78C127.33 93.6 127.78 94.04 127.78 94.59C127.78 95.14 127.33 95.58 126.78 95.58H101.5C100.95 95.58 100.5 95.14 100.5 94.59Z" fill="#C5CED8"/>
<path d="M178.16 78.6C178.16 78.05 178.61 77.61 179.16 77.61H208.2C208.75 77.61 209.19 78.05 209.19 78.6C209.19 79.15 208.74 79.59 208.2 79.59H179.16C178.61 79.59 178.16 79.15 178.16 78.6Z" fill="#A9B7C6"/>
<path d="M178.16 86.1C178.16 85.55 178.61 85.11 179.16 85.11H207.26C207.81 85.11 208.26 85.55 208.26 86.1C208.26 86.65 207.82 87.09 207.26 87.09H179.16C178.61 87.09 178.16 86.65 178.16 86.1Z" fill="#C5CED8"/>
<path d="M178.16 93.6C178.16 93.05 178.61 92.61 179.16 92.61H204.44C204.99 92.61 205.43 93.05 205.43 93.6C205.43 94.15 204.98 94.59 204.44 94.59H179.16C178.61 94.59 178.16 94.15 178.16 93.6Z" fill="#C5CED8"/>
<path d="M255.82 78.6C255.82 78.05 256.27 77.61 256.82 77.61H285.86C286.41 77.61 286.86 78.05 286.86 78.6C286.86 79.15 286.41 79.59 285.86 79.59H256.82C256.27 79.59 255.82 79.15 255.82 78.6Z" fill="#A9B7C6"/>
<path d="M255.82 86.1C255.82 85.55 256.27 85.11 256.82 85.11H284.92C285.47 85.11 285.92 85.55 285.92 86.1C285.92 86.65 285.48 87.09 284.92 87.09H256.82C256.27 87.09 255.82 86.65 255.82 86.1Z" fill="#C5CED8"/>
<path d="M255.82 93.6C255.82 93.05 256.27 92.61 256.82 92.61H282.1C282.65 92.61 283.1 93.05 283.1 93.6C283.1 94.15 282.65 94.59 282.1 94.59H256.82C256.27 94.59 255.82 94.15 255.82 93.6Z" fill="#C5CED8"/>
<path d="M333.471 78.6C333.471 78.05 333.921 77.61 334.461 77.61H363.501C364.051 77.61 364.491 78.05 364.491 78.6C364.491 79.15 364.041 79.59 363.501 79.59H334.461C333.911 79.59 333.471 79.15 333.471 78.6Z" fill="#A9B7C6"/>
<path d="M333.471 86.1C333.471 85.55 333.921 85.11 334.461 85.11H362.561C363.111 85.11 363.551 85.55 363.551 86.1C363.551 86.65 363.101 87.09 362.561 87.09H334.461C333.911 87.09 333.471 86.65 333.471 86.1Z" fill="#C5CED8"/>
<path d="M333.471 93.6C333.471 93.05 333.921 92.61 334.461 92.61H359.741C360.291 92.61 360.741 93.05 360.741 93.6C360.741 94.15 360.291 94.59 359.741 94.59H334.461C333.911 94.59 333.471 94.15 333.471 93.6Z" fill="#C5CED8"/>
<path d="M345.649 61.8101H112.449V63.0301H345.649V61.8101Z" fill="#ACB9BE"/>
<path d="M107.74 68.87C111.31 68.87 114.21 65.98 114.21 62.42C114.21 58.86 111.31 55.97 107.74 55.97C104.17 55.97 101.27 58.86 101.27 62.42C101.27 65.98 104.17 68.87 107.74 68.87Z" fill="white"/>
<path d="M107.74 69.37C103.9 69.37 100.77 66.25 100.77 62.42C100.77 58.59 103.9 55.47 107.74 55.47C111.58 55.47 114.71 58.59 114.71 62.42C114.71 66.25 111.58 69.37 107.74 69.37ZM107.74 56.47C104.45 56.47 101.77 59.14 101.77 62.42C101.77 65.7 104.45 68.37 107.74 68.37C111.03 68.37 113.71 65.7 113.71 62.42C113.71 59.14 111.03 56.47 107.74 56.47Z" fill="#56AA13"/>
<path d="M106.89 65.06C106.76 65.06 106.63 65.01 106.53 64.91L104.16 62.48C103.97 62.28 103.97 61.97 104.16 61.77C104.36 61.58 104.67 61.58 104.87 61.77L106.88 63.83L110.59 59.93C110.78 59.73 111.1 59.72 111.3 59.91C111.5 60.1 111.51 60.42 111.32 60.62L107.26 64.9C107.17 65 107.03 65.05 106.9 65.06H106.89Z" fill="#56AA13"/>
<path d="M185.4 68.87C188.97 68.87 191.87 65.98 191.87 62.42C191.87 58.86 188.97 55.97 185.4 55.97C181.83 55.97 178.93 58.86 178.93 62.42C178.93 65.98 181.83 68.87 185.4 68.87Z" fill="white"/>
<path d="M185.4 69.37C181.56 69.37 178.43 66.25 178.43 62.42C178.43 58.59 181.56 55.47 185.4 55.47C189.24 55.47 192.37 58.59 192.37 62.42C192.37 66.25 189.24 69.37 185.4 69.37ZM185.4 56.47C182.11 56.47 179.43 59.14 179.43 62.42C179.43 65.7 182.11 68.37 185.4 68.37C188.69 68.37 191.37 65.7 191.37 62.42C191.37 59.14 188.69 56.47 185.4 56.47Z" fill="#56AA13"/>
<path d="M184.55 65.06C184.42 65.06 184.29 65.01 184.19 64.91L181.82 62.48C181.63 62.28 181.63 61.97 181.82 61.77C182.02 61.58 182.33 61.58 182.53 61.77L184.54 63.83L188.25 59.93C188.44 59.73 188.76 59.72 188.96 59.91C189.16 60.1 189.17 60.42 188.98 60.62L184.92 64.9C184.83 65 184.7 65.05 184.56 65.06H184.55Z" fill="#56AA13"/>
<path d="M262.781 68.87C266.351 68.87 269.251 65.98 269.251 62.42C269.251 58.86 266.351 55.97 262.781 55.97C259.211 55.97 256.311 58.86 256.311 62.42C256.311 65.98 259.211 68.87 262.781 68.87Z" fill="white"/>
<path d="M262.781 69.37C258.941 69.37 255.811 66.25 255.811 62.42C255.811 58.59 258.941 55.47 262.781 55.47C266.621 55.47 269.751 58.59 269.751 62.42C269.751 66.25 266.621 69.37 262.781 69.37ZM262.781 56.47C259.491 56.47 256.811 59.14 256.811 62.42C256.811 65.7 259.491 68.37 262.781 68.37C266.071 68.37 268.751 65.7 268.751 62.42C268.751 59.14 266.071 56.47 262.781 56.47Z" fill="#0079AD"/>
<path d="M262.779 65.58C264.529 65.58 265.949 64.17 265.949 62.42C265.949 60.67 264.529 59.26 262.779 59.26C261.029 59.26 259.609 60.67 259.609 62.42C259.609 64.17 261.029 65.58 262.779 65.58Z" fill="#0079AD"/>
<path d="M340.441 68.87C344.011 68.87 346.911 65.98 346.911 62.42C346.911 58.86 344.011 55.97 340.441 55.97C336.871 55.97 333.971 58.86 333.971 62.42C333.971 65.98 336.871 68.87 340.441 68.87Z" fill="white"/>
<path d="M340.441 69.37C336.601 69.37 333.471 66.25 333.471 62.42C333.471 58.59 336.601 55.47 340.441 55.47C344.281 55.47 347.411 58.59 347.411 62.42C347.411 66.25 344.281 69.37 340.441 69.37ZM340.441 56.47C337.151 56.47 334.471 59.14 334.471 62.42C334.471 65.7 337.151 68.37 340.441 68.37C343.731 68.37 346.411 65.7 346.411 62.42C346.411 59.14 343.731 56.47 340.441 56.47Z" fill="#ACB9BE"/>
<path d="M100.5 114.33C100.5 113.78 100.95 113.34 101.5 113.34H141.32C141.87 113.34 142.31 113.78 142.31 114.33C142.31 114.88 141.86 115.32 141.32 115.32H101.5C100.95 115.32 100.5 114.88 100.5 114.33Z" fill="#C5CED8"/>
<path d="M100.5 114.33C100.5 113.78 100.95 113.34 101.5 113.34H141.32C141.87 113.34 142.31 113.78 142.31 114.33C142.31 114.88 141.86 115.32 141.32 115.32H101.5C100.95 115.32 100.5 114.88 100.5 114.33Z" fill="#C5CED8"/>
<path d="M100.5 129.22C100.5 128.67 100.95 128.23 101.5 128.23H141.32C141.87 128.23 142.31 128.67 142.31 129.22C142.31 129.77 141.86 130.21 141.32 130.21H101.5C100.95 130.21 100.5 129.77 100.5 129.22Z" fill="#C5CED8"/>
<path d="M100.5 144.11C100.5 143.56 100.95 143.12 101.5 143.12H141.32C141.87 143.12 142.31 143.56 142.31 144.11C142.31 144.66 141.86 145.1 141.32 145.1H101.5C100.95 145.1 100.5 144.66 100.5 144.11Z" fill="#C5CED8"/>
<path d="M100.5 158.99C100.5 158.44 100.95 158 101.5 158H141.32C141.87 158 142.31 158.44 142.31 158.99C142.31 159.54 141.86 159.98 141.32 159.98H101.5C100.95 159.98 100.5 159.54 100.5 158.99Z" fill="#C5CED8"/>
<path d="M100.5 173.88C100.5 173.33 100.95 172.89 101.5 172.89H141.32C141.87 172.89 142.31 173.33 142.31 173.88C142.31 174.43 141.86 174.87 141.32 174.87H101.5C100.95 174.87 100.5 174.42 100.5 173.88Z" fill="#C5CED8"/>
<path d="M100.5 188.77C100.5 188.22 100.95 187.78 101.5 187.78H141.32C141.87 187.78 142.31 188.23 142.31 188.77C142.31 189.31 141.86 189.76 141.32 189.76H101.5C100.95 189.76 100.5 189.32 100.5 188.77Z" fill="#C5CED8"/>
<path d="M100.5 203.66C100.5 203.11 100.95 202.67 101.5 202.67H141.32C141.87 202.67 142.31 203.11 142.31 203.66C142.31 204.21 141.86 204.65 141.32 204.65H101.5C100.95 204.65 100.5 204.21 100.5 203.66Z" fill="#C5CED8"/>
<path d="M155.26 114.33C155.26 113.78 155.71 113.34 156.26 113.34H364.08C364.63 113.34 365.07 113.78 365.07 114.33C365.07 114.88 364.62 115.32 364.08 115.32H156.26C155.71 115.32 155.26 114.88 155.26 114.33Z" fill="#C5CED8"/>
<path d="M155.26 129.22C155.26 128.67 155.71 128.23 156.26 128.23H364.08C364.63 128.23 365.07 128.67 365.07 129.22C365.07 129.77 364.62 130.21 364.08 130.21H156.26C155.71 130.21 155.26 129.77 155.26 129.22Z" fill="#C5CED8"/>
<path d="M155.26 144.11C155.26 143.56 155.71 143.12 156.26 143.12H364.08C364.63 143.12 365.07 143.56 365.07 144.11C365.07 144.66 364.62 145.1 364.08 145.1H156.26C155.71 145.1 155.26 144.66 155.26 144.11Z" fill="#C5CED8"/>
<path d="M155.26 158.99C155.26 158.44 155.71 158 156.26 158H364.08C364.63 158 365.07 158.44 365.07 158.99C365.07 159.54 364.62 159.98 364.08 159.98H156.26C155.71 159.98 155.26 159.54 155.26 158.99Z" fill="#C5CED8"/>
<path d="M155.26 173.88C155.26 173.33 155.71 172.89 156.26 172.89H364.08C364.63 172.89 365.07 173.33 365.07 173.88C365.07 174.43 364.62 174.87 364.08 174.87H156.26C155.71 174.87 155.26 174.42 155.26 173.88Z" fill="#C5CED8"/>
<path d="M155.26 188.77C155.26 188.22 155.71 187.78 156.26 187.78H364.08C364.63 187.78 365.07 188.23 365.07 188.77C365.07 189.31 364.62 189.76 364.08 189.76H156.26C155.71 189.76 155.26 189.32 155.26 188.77Z" fill="#C5CED8"/>
<path d="M155.26 203.66C155.26 203.11 155.71 202.67 156.26 202.67H364.08C364.63 202.67 365.07 203.11 365.07 203.66C365.07 204.21 364.62 204.65 364.08 204.65H156.26C155.71 204.65 155.26 204.21 155.26 203.66Z" fill="#C5CED8"/>
<path d="M384.46 34.5H93.53C91.3043 34.5 89.5 36.3043 89.5 38.53V229.02C89.5 231.246 91.3043 233.05 93.53 233.05H384.46C386.686 233.05 388.49 231.246 388.49 229.02V38.53C388.49 36.3043 386.686 34.5 384.46 34.5Z" fill="white"/>
<path d="M188 79C188 78.4477 188.448 78 189 78H301C301.552 78 302 78.4477 302 79C302 79.5523 301.552 80 301 80H189C188.448 80 188 79.5523 188 79Z" fill="#C5CED8"/>
<path d="M188 104C188 103.448 188.448 103 189 103H229C229.552 103 230 103.448 230 104C230 104.552 229.552 105 229 105H189C188.448 105 188 104.552 188 104Z" fill="#C5CED8"/>
<path d="M188 114C188 113.448 188.448 113 189 113H229C229.552 113 230 113.448 230 114C230 114.552 229.552 115 229 115H189C188.448 115 188 114.552 188 114Z" fill="#C5CED8"/>
<path d="M188 124C188 123.448 188.448 123 189 123H229C229.552 123 230 123.448 230 124C230 124.552 229.552 125 229 125H189C188.448 125 188 124.552 188 124Z" fill="#C5CED8"/>
<path d="M188 134C188 133.448 188.448 133 189 133H229C229.552 133 230 133.448 230 134C230 134.552 229.552 135 229 135H189C188.448 135 188 134.552 188 134Z" fill="#C5CED8"/>
<path d="M240 104C240 103.448 240.448 103 241 103H362C362.552 103 363 103.448 363 104C363 104.552 362.552 105 362 105H241C240.448 105 240 104.552 240 104Z" fill="#C5CED8"/>
<path d="M240 114C240 113.448 240.448 113 241 113H372C372.552 113 373 113.448 373 114C373 114.552 372.552 115 372 115H241C240.448 115 240 114.552 240 114Z" fill="#C5CED8"/>
<path d="M240 124C240 123.448 240.448 123 241 123H367C367.552 123 368 123.448 368 124C368 124.552 367.552 125 367 125H241C240.448 125 240 124.552 240 124Z" fill="#C5CED8"/>
<path d="M258 146C258 145.448 258.448 145 259 145H329C329.552 145 330 145.448 330 146C330 146.552 329.552 147 329 147H259C258.448 147 258 146.552 258 146Z" fill="#C5CED8"/>
<path d="M240 134C240 133.448 240.448 133 241 133H367C367.552 133 368 133.448 368 134C368 134.552 367.552 135 367 135H241C240.448 135 240 134.552 240 134Z" fill="#C5CED8"/>
<path d="M258 156C258 155.448 258.448 155 259 155H329C329.552 155 330 155.448 330 156C330 156.552 329.552 157 329 157H259C258.448 157 258 156.552 258 156Z" fill="#C5CED8"/>
<path d="M258 166C258 165.448 258.448 165 259 165H331C331.552 165 332 165.448 332 166C332 166.552 331.552 167 331 167H259C258.448 167 258 166.552 258 166Z" fill="#C5CED8"/>
<path d="M384.46 233.54H93.53C91.03 233.54 89 231.51 89 229.01V38.53C89 36.03 91.03 34 93.53 34H384.45C386.95 34 388.98 36.03 388.98 38.53V229.02C388.98 231.52 386.95 233.55 384.45 233.55L384.46 233.54ZM93.53 35C91.58 35 90 36.58 90 38.53V229.02C90 230.97 91.58 232.55 93.53 232.55H384.45C386.4 232.55 387.98 230.97 387.98 229.02V38.53C387.98 36.58 386.4 35 384.45 35H93.53Z" fill="#ACB9BE"/>
<path d="M388.06 61.2101H89.9297V62.2101H388.06V61.2101Z" fill="#ACB9BE"/>
<path d="M164.32 61.24H163.32V233.8H164.32V61.24Z" fill="#ACB9BE"/>
<path d="M163.31 62.14H90.0996V81.42H163.31V62.14Z" fill="#EBF9FF"/>
<path d="M98.0803 71.7801C98.0803 72.7301 98.8603 73.5001 99.8103 73.5001C100.76 73.5001 101.54 72.7301 101.54 71.7801C101.54 70.8301 100.76 70.0601 99.8103 70.0601C99.3503 70.0601 98.9103 70.2401 98.5803 70.5601C98.2503 70.8801 98.0703 71.3201 98.0703 71.7801H98.0803Z" fill="#0079AD"/>
<path d="M107.86 73.15V70.42L107.28 70.79L107.08 70.44L107.96 69.85H108.35V73.16H107.86V73.15Z" fill="#22343C"/>
<path d="M163.31 81.42H90.0996V100.7H163.31V81.42Z" fill="white"/>
<path fill-rule="evenodd" clip-rule="evenodd" d="M99.8101 92.7801C98.8501 92.7801 98.0801 92.0101 98.0801 91.0601C98.0801 90.6001 98.2601 90.1701 98.5901 89.8401C98.9201 89.5201 99.3601 89.3401 99.8201 89.3401C100.78 89.3401 101.55 90.1101 101.55 91.0601C101.55 92.0101 100.77 92.7801 99.8201 92.7801H99.8101ZM99.8101 92.0901C100.38 92.0901 100.85 91.6301 100.85 91.0601C100.85 90.7901 100.74 90.5201 100.55 90.3301C100.35 90.1401 100.09 90.0301 99.8101 90.0301C99.2401 90.0301 98.7701 90.4901 98.7701 91.0601C98.7701 91.6301 99.2401 92.0901 99.8101 92.0901Z" fill="#3A4D55"/>
<path d="M107.23 92.4301V92.0301L108.45 91.0301C108.9 90.6601 109.07 90.3701 109.07 90.0801C109.07 89.7201 108.77 89.5101 108.44 89.5101C108.08 89.5101 107.81 89.7001 107.58 90.0001L107.25 89.7101C107.54 89.3101 107.93 89.0701 108.46 89.0701C109.08 89.0701 109.58 89.4701 109.58 90.0701C109.58 90.5101 109.37 90.8701 108.79 91.3301L108.01 91.9901H109.61V92.4401H107.24L107.23 92.4301Z" fill="#22343C"/>
<path d="M163.31 100.7H90.0996V119.98H163.31V100.7Z" fill="white"/>
<path fill-rule="evenodd" clip-rule="evenodd" d="M99.8091 107.58C98.2791 107.58 97.0391 108.81 97.0391 110.33C97.0391 111.85 98.2791 113.08 99.8091 113.08C101.339 113.08 102.579 111.85 102.579 110.33C102.579 109.6 102.289 108.9 101.769 108.38C101.249 107.86 100.539 107.57 99.8091 107.57V107.58ZM99.8091 112.63C98.5291 112.63 97.4991 111.6 97.4991 110.33C97.4991 109.06 98.5391 108.03 99.8091 108.03C101.079 108.03 102.119 109.06 102.119 110.33C102.119 110.94 101.879 111.52 101.439 111.95C101.009 112.38 100.419 112.62 99.8091 112.62V112.63ZM98.2691 110.5L99.4291 111.65L101.319 109.77C101.399 109.68 101.389 109.54 101.309 109.46C101.219 109.37 101.089 109.37 100.999 109.45L99.4291 111.01L98.5991 110.19C98.5091 110.11 98.3691 110.12 98.2891 110.2C98.1991 110.29 98.1991 110.42 98.2791 110.51L98.2691 110.5Z" fill="#41800E"/>
<path d="M108.379 111.77C107.809 111.77 107.379 111.52 107.119 111.21L107.439 110.89C107.659 111.16 107.989 111.34 108.369 111.34C108.799 111.34 109.079 111.11 109.079 110.78C109.079 110.45 108.789 110.26 108.289 110.26H107.929V109.83H108.289C108.709 109.83 109.009 109.65 109.009 109.32C109.009 109.01 108.719 108.79 108.329 108.79C107.979 108.79 107.719 108.96 107.489 109.23L107.179 108.93C107.439 108.6 107.819 108.35 108.359 108.35C109.029 108.35 109.499 108.72 109.499 109.25C109.499 109.66 109.209 109.92 108.859 110.02C109.199 110.1 109.569 110.35 109.569 110.81C109.569 111.37 109.089 111.77 108.369 111.77H108.379Z" fill="#22343C"/>
<path d="M159.15 119.97H90.0996V139.25H159.15V119.97Z" fill="white"/>
<path d="M159.15 139.5H90.0996V158.78H159.15V139.5Z" fill="white"/>
<path fill-rule="evenodd" clip-rule="evenodd" d="M97.0391 129.61C97.0391 128.09 98.2791 126.86 99.8091 126.86C100.549 126.86 101.249 127.15 101.769 127.67C102.289 128.19 102.579 128.89 102.579 129.62C102.579 131.14 101.339 132.37 99.8091 132.37C98.2791 132.37 97.0391 131.14 97.0391 129.62V129.61ZM99.5091 129.79C99.5091 129.95 99.6391 130.09 99.8091 130.09C99.9791 130.09 100.109 129.96 100.109 129.79V128.41C100.109 128.25 99.9791 128.11 99.8091 128.11C99.6391 128.11 99.5091 128.24 99.5091 128.41V129.79ZM99.8091 131.91C98.5291 131.91 97.4991 130.88 97.4991 129.61C97.4991 128.34 98.5391 127.31 99.8091 127.31C101.079 127.31 102.119 128.34 102.119 129.61C102.119 130.22 101.879 130.8 101.439 131.23C101.009 131.66 100.419 131.9 99.8091 131.9V131.91ZM100.149 130.77C100.149 130.96 99.9891 131.11 99.7991 131.11C99.6091 131.11 99.4491 130.96 99.4491 130.77C99.4491 130.58 99.6091 130.43 99.7991 130.43C99.9891 130.43 100.149 130.58 100.149 130.77Z" fill="#E02200"/>
<path d="M107.72 130.99V130.23H106.06L106.01 129.84L107.63 127.68H108.21V129.8H108.69V130.23H108.21V130.99H107.72ZM106.55 129.8H107.72V128.23L106.55 129.8Z" fill="#22343C"/>
<path d="M163.31 139.25H90.0996V158.53H163.31V139.25Z" fill="white"/>
<path d="M107.36 150.33C106.83 150.33 106.43 150.12 106.15 149.81L106.46 149.46C106.71 149.73 107.02 149.9 107.38 149.9C107.81 149.9 108.11 149.61 108.11 149.24C108.11 148.87 107.81 148.6 107.38 148.6C107.1 148.6 106.87 148.69 106.67 148.84L106.33 148.69L106.38 146.96H108.43V147.41H106.85L106.82 148.39C106.99 148.27 107.22 148.18 107.51 148.18C108.11 148.18 108.61 148.56 108.61 149.22C108.61 149.88 108.1 150.33 107.38 150.33H107.36Z" fill="#22343C"/>
<path d="M163.31 158.53H90.0996V177.81H163.31V158.53Z" fill="white"/>
<path d="M107.48 167.46C108.09 167.46 108.6 167.84 108.6 168.5C108.6 169.16 108.1 169.61 107.39 169.61C106.46 169.61 106.07 168.89 106.07 167.95C106.07 166.95 106.67 166.19 107.48 166.19C107.89 166.19 108.2 166.34 108.45 166.57L108.2 166.95C108 166.76 107.78 166.63 107.48 166.63C106.98 166.63 106.6 167.17 106.58 167.9C106.78 167.63 107.12 167.47 107.48 167.47V167.46ZM107.38 169.2C107.83 169.2 108.1 168.86 108.1 168.53C108.1 168.13 107.77 167.88 107.37 167.88C107 167.88 106.71 168.09 106.62 168.41C106.7 168.89 106.94 169.21 107.38 169.21V169.2Z" fill="#67777E"/>
<path d="M153.25 72.61H116.41C115.86 72.61 115.41 72.16 115.41 71.61C115.41 71.06 115.86 70.61 116.41 70.61H153.25C153.8 70.61 154.25 71.06 154.25 71.61C154.25 72.16 153.8 72.61 153.25 72.61Z" fill="#C5CED8"/>
<path d="M153.25 91.5801H116.41C115.86 91.5801 115.41 91.1301 115.41 90.5801C115.41 90.0301 115.86 89.5801 116.41 89.5801H153.25C153.8 89.5801 154.25 90.0301 154.25 90.5801C154.25 91.1301 153.8 91.5801 153.25 91.5801Z" fill="#C5CED8"/>
<path d="M153.25 111.11H116.41C115.86 111.11 115.41 110.66 115.41 110.11C115.41 109.56 115.86 109.11 116.41 109.11H153.25C153.8 109.11 154.25 109.56 154.25 110.11C154.25 110.66 153.8 111.11 153.25 111.11Z" fill="#C5CED8"/>
<path d="M153.25 130.08H116.41C115.86 130.08 115.41 129.63 115.41 129.08C115.41 128.53 115.86 128.08 116.41 128.08H153.25C153.8 128.08 154.25 128.53 154.25 129.08C154.25 129.63 153.8 130.08 153.25 130.08Z" fill="#C5CED8"/>
<path d="M153.25 149.61H116.41C115.86 149.61 115.41 149.16 115.41 148.61C115.41 148.06 115.86 147.61 116.41 147.61H153.25C153.8 147.61 154.25 148.06 154.25 148.61C154.25 149.16 153.8 149.61 153.25 149.61Z" fill="#C5CED8"/>
<path d="M153.25 168.76H116.41C115.86 168.76 115.41 168.31 115.41 167.76C115.41 167.21 115.86 166.76 116.41 166.76H153.25C153.8 166.76 154.25 167.21 154.25 167.76C154.25 168.31 153.8 168.76 153.25 168.76Z" fill="#C5CED8"/>
<path d="M104.57 48.53C104.57 47.98 104.848 47.53 105.193 47.53H228.947C229.293 47.53 229.57 47.98 229.57 48.53C229.57 49.08 229.293 49.53 228.947 49.53H105.193C104.848 49.53 104.57 49.08 104.57 48.53Z" fill="#C5CED8"/>
<path opacity="0.7" d="M373.4 221.28H340.17C339.06 221.28 338.16 220.39 338.16 219.29V209.32C338.16 208.22 339.06 207.33 340.17 207.33H373.4C374.51 207.33 375.41 208.22 375.41 209.32V219.29C375.41 220.39 374.51 221.28 373.4 221.28Z" fill="#0079AD"/>
<path opacity="0.7" d="M328.849 221.78H295.619C294.229 221.78 293.109 220.66 293.109 219.29V209.32C293.109 207.95 294.239 206.83 295.619 206.83H328.849C330.239 206.83 331.359 207.95 331.359 209.32V219.29C331.359 220.66 330.229 221.78 328.849 221.78ZM295.619 207.83C294.789 207.83 294.109 208.5 294.109 209.32V219.29C294.109 220.11 294.789 220.78 295.619 220.78H328.849C329.679 220.78 330.359 220.11 330.359 219.29V209.32C330.359 208.5 329.679 207.83 328.849 207.83H295.619Z" fill="#0079AD"/>
<path opacity="0.7" d="M284.899 215.43H263.199C262.649 215.43 262.199 214.98 262.199 214.43C262.199 213.88 262.649 213.43 263.199 213.43H284.899C285.449 213.43 285.899 213.88 285.899 214.43C285.899 214.98 285.449 215.43 284.899 215.43Z" fill="#0079AD"/>
<path opacity="0.7" d="M323.739 215.43H302.039C301.489 215.43 301.039 214.98 301.039 214.43C301.039 213.88 301.489 213.43 302.039 213.43H323.739C324.289 213.43 324.739 213.88 324.739 214.43C324.739 214.98 324.289 215.43 323.739 215.43Z" fill="#0079AD"/>
<path d="M367.43 215.43H345.73C345.18 215.43 344.73 214.98 344.73 214.43C344.73 213.88 345.18 213.43 345.73 213.43H367.43C367.98 213.43 368.43 213.88 368.43 214.43C368.43 214.98 367.98 215.43 367.43 215.43Z" fill="white"/>
</g>
<path d="M0.5 4C0.5 2.067 2.067 0.5 4 0.5H448C449.933 0.5 451.5 2.067 451.5 4V263.5H0.5V4Z" stroke="#ACB8BE"/>
<defs>
<clipPath id="clip0_8673_6492">
<path d="M0 4C0 1.79086 1.79086 0 4 0H448C450.209 0 452 1.79086 452 4V264H0V4Z" fill="white"/>
</clipPath>
</defs>
</svg>
