<svg width="324" height="386" viewBox="0 0 324 386" fill="none" xmlns="http://www.w3.org/2000/svg">
<rect width="324" height="386" fill="white"/>
<path d="M19.5 57C19.5 55.067 21.067 53.5 23 53.5H299C300.933 53.5 302.5 55.067 302.5 57V365C302.5 366.933 300.933 368.5 299 368.5H23C21.067 368.5 19.5 366.933 19.5 365V57Z" fill="white"/>
<path d="M19.5 57C19.5 55.067 21.067 53.5 23 53.5H299C300.933 53.5 302.5 55.067 302.5 57V365C302.5 366.933 300.933 368.5 299 368.5H23C21.067 368.5 19.5 366.933 19.5 365V57Z" stroke="#AEB8BC"/>
<path d="M52.6007 81.14V85.14H59.8807V87.02H52.6007V93H50.5607V79.26H60.6607V81.14H52.6007ZM67.3313 91.6C67.8913 91.6 68.458 91.4867 69.0313 91.26C69.618 91.0333 70.0713 90.7533 70.3913 90.42L71.5513 91.64C71.1113 92.12 70.4913 92.5067 69.6913 92.8C68.9047 93.0933 68.1313 93.24 67.3713 93.24C66.4247 93.24 65.538 93.0067 64.7113 92.54C63.898 92.0733 63.2447 91.4267 62.7513 90.6C62.2713 89.76 62.0313 88.8267 62.0313 87.8C62.0313 86.7867 62.2647 85.8733 62.7313 85.06C63.198 84.2333 63.8247 83.5867 64.6113 83.12C65.4113 82.6533 66.2847 82.42 67.2313 82.42C68.2713 82.42 69.1647 82.6667 69.9113 83.16C70.6713 83.6533 71.2447 84.3533 71.6313 85.26C72.0313 86.1667 72.2313 87.2333 72.2313 88.46H63.9713C64.0913 89.3933 64.4513 90.1533 65.0513 90.74C65.6647 91.3133 66.4247 91.6 67.3313 91.6ZM67.2713 84.06C66.4447 84.06 65.7247 84.3267 65.1113 84.86C64.5113 85.3933 64.138 86.1067 63.9913 87H70.3113C70.2047 86.1333 69.8847 85.4267 69.3513 84.88C68.8313 84.3333 68.138 84.06 67.2713 84.06ZM80.0501 82.42C80.9434 82.42 81.7501 82.6533 82.4701 83.12C83.1901 83.5733 83.7567 84.2133 84.1701 85.04C84.5834 85.8533 84.7901 86.78 84.7901 87.82C84.7901 88.86 84.5834 89.7933 84.1701 90.62C83.7567 91.4467 83.1901 92.0933 82.4701 92.56C81.7501 93.0133 80.9434 93.24 80.0501 93.24C79.2501 93.24 78.5301 93.06 77.8901 92.7C77.2501 92.34 76.7301 91.8267 76.3301 91.16V93H74.3501V79.02H76.3301V84.5C76.7301 83.8333 77.2501 83.32 77.8901 82.96C78.5301 82.6 79.2501 82.42 80.0501 82.42ZM79.5701 91.52C80.1834 91.52 80.7367 91.3667 81.2301 91.06C81.7234 90.74 82.1034 90.3 82.3701 89.74C82.6501 89.1667 82.7901 88.5267 82.7901 87.82C82.7901 87.1133 82.6501 86.48 82.3701 85.92C82.1034 85.36 81.7234 84.9267 81.2301 84.62C80.7367 84.3 80.1834 84.14 79.5701 84.14C78.9567 84.14 78.4034 84.3 77.9101 84.62C77.4301 84.9267 77.0501 85.36 76.7701 85.92C76.5034 86.48 76.3701 87.1133 76.3701 87.82C76.3701 88.5267 76.5034 89.1667 76.7701 89.74C77.0501 90.3 77.4301 90.74 77.9101 91.06C78.4034 91.3667 78.9567 91.52 79.5701 91.52Z" fill="#0079AD"/>
<path d="M107.511 91.34L112.551 87.18C113.457 86.42 114.104 85.7267 114.491 85.1C114.891 84.4733 115.091 83.8467 115.091 83.22C115.091 82.5 114.837 81.9267 114.331 81.5C113.824 81.06 113.211 80.84 112.491 80.84C111.771 80.84 111.124 81.0133 110.551 81.36C109.977 81.7067 109.437 82.2133 108.931 82.88L107.571 81.68C108.851 79.9067 110.517 79.02 112.571 79.02C113.424 79.02 114.197 79.1933 114.891 79.54C115.597 79.8867 116.151 80.38 116.551 81.02C116.964 81.6467 117.171 82.3667 117.171 83.18C117.171 84.1 116.924 84.96 116.431 85.76C115.937 86.56 115.104 87.44 113.931 88.4L110.711 91.12H117.291V93H107.511V91.34ZM125.192 93.24C124.059 93.24 123.046 92.94 122.152 92.34C121.259 91.7267 120.559 90.88 120.052 89.8C119.559 88.72 119.312 87.4933 119.312 86.12C119.312 84.7467 119.559 83.5267 120.052 82.46C120.559 81.38 121.259 80.54 122.152 79.94C123.046 79.3267 124.059 79.02 125.192 79.02C126.312 79.02 127.312 79.3267 128.192 79.94C129.086 80.54 129.779 81.38 130.272 82.46C130.779 83.5267 131.032 84.7467 131.032 86.12C131.032 87.4933 130.779 88.72 130.272 89.8C129.779 90.88 129.092 91.7267 128.212 92.34C127.332 92.94 126.326 93.24 125.192 93.24ZM125.192 91.38C125.926 91.38 126.579 91.16 127.152 90.72C127.726 90.2667 128.172 89.64 128.492 88.84C128.812 88.04 128.972 87.1333 128.972 86.12C128.972 85.1067 128.812 84.2067 128.492 83.42C128.172 82.62 127.726 82 127.152 81.56C126.579 81.1067 125.926 80.88 125.192 80.88C124.459 80.88 123.799 81.1067 123.212 81.56C122.639 82 122.186 82.62 121.852 83.42C121.532 84.2067 121.372 85.1067 121.372 86.12C121.372 87.1333 121.532 88.04 121.852 88.84C122.186 89.64 122.639 90.2667 123.212 90.72C123.799 91.16 124.459 91.38 125.192 91.38ZM132.677 91.34L137.717 87.18C138.624 86.42 139.27 85.7267 139.657 85.1C140.057 84.4733 140.257 83.8467 140.257 83.22C140.257 82.5 140.004 81.9267 139.497 81.5C138.99 81.06 138.377 80.84 137.657 80.84C136.937 80.84 136.29 81.0133 135.717 81.36C135.144 81.7067 134.604 82.2133 134.097 82.88L132.737 81.68C134.017 79.9067 135.684 79.02 137.737 79.02C138.59 79.02 139.364 79.1933 140.057 79.54C140.764 79.8867 141.317 80.38 141.717 81.02C142.13 81.6467 142.337 82.3667 142.337 83.18C142.337 84.1 142.09 84.96 141.597 85.76C141.104 86.56 140.27 87.44 139.097 88.4L135.877 91.12H142.457V93H132.677V91.34ZM149.359 93.24C148.319 93.24 147.379 93.0533 146.539 92.68C145.699 92.2933 144.972 91.76 144.359 91.08L145.619 89.64C146.765 90.8533 148.025 91.46 149.399 91.46C150.279 91.46 150.999 91.2 151.559 90.68C152.119 90.16 152.399 89.5067 152.399 88.72C152.399 87.9333 152.119 87.3 151.559 86.82C150.999 86.3267 150.272 86.08 149.379 86.08C148.312 86.08 147.339 86.4133 146.459 87.08L145.039 86.44L145.239 79.26H153.679V81.14H147.159L147.039 85.22C147.919 84.6333 148.865 84.34 149.879 84.34C150.719 84.34 151.479 84.5133 152.159 84.86C152.852 85.1933 153.399 85.6867 153.799 86.34C154.212 86.9933 154.419 87.76 154.419 88.64C154.419 89.5467 154.205 90.3533 153.779 91.06C153.352 91.7533 152.752 92.2933 151.979 92.68C151.219 93.0533 150.345 93.24 149.359 93.24Z" fill="#0079AD"/>
<path d="M198.722 81.88L193.711 87L198.722 92.12C199.007 92.4096 199.459 92.4007 199.733 92.1C200.007 91.7993 199.999 91.3208 199.714 91.0311L195.767 87L199.714 82.9644C199.999 82.6748 200.007 82.1962 199.733 81.8956C199.459 81.5949 199.007 81.5859 198.722 81.8756L198.722 81.88Z" fill="#3A4D55"/>
<path d="M232.187 90.4933L229.804 88.1111C229.732 88.0261 229.694 87.9167 229.698 87.8049C229.702 87.693 229.749 87.5869 229.828 87.5077C229.907 87.4286 230.013 87.3822 230.125 87.3779C230.237 87.3736 230.346 87.4116 230.431 87.4844L232.187 89.2222L236.027 85.3822C236.112 85.3094 236.221 85.2714 236.333 85.2757C236.445 85.28 236.551 85.3264 236.63 85.4055C236.709 85.4847 236.756 85.5908 236.76 85.7026C236.764 85.8145 236.726 85.9239 236.653 86.0089L232.187 90.4933Z" fill="#3A4D55"/>
<path d="M239.333 81.6667H237.889V82.5556H239.222V92.3333H226.778V82.5556H228.111V81.6667H226.667C226.563 81.6684 226.46 81.6906 226.365 81.732C226.27 81.7733 226.183 81.8331 226.111 81.9078C226.039 81.9825 225.982 82.0707 225.944 82.1673C225.906 82.264 225.887 82.3672 225.889 82.4711V92.4178C225.887 92.5217 225.906 92.6249 225.944 92.7216C225.982 92.8182 226.039 92.9064 226.111 92.9811C226.183 93.0558 226.27 93.1156 226.365 93.1569C226.46 93.1983 226.563 93.2205 226.667 93.2222H239.333C239.437 93.2205 239.54 93.1983 239.635 93.1569C239.73 93.1156 239.817 93.0558 239.889 92.9811C239.961 92.9064 240.018 92.8182 240.056 92.7216C240.094 92.6249 240.113 92.5217 240.111 92.4178V82.4711C240.113 82.3672 240.094 82.264 240.056 82.1673C240.018 82.0707 239.961 81.9825 239.889 81.9078C239.817 81.8331 239.73 81.7733 239.635 81.732C239.54 81.6906 239.437 81.6684 239.333 81.6667Z" fill="#3A4D55"/>
<path d="M229.444 83.4444C229.562 83.4444 229.675 83.3976 229.759 83.3143C229.842 83.2309 229.889 83.1179 229.889 83V80.3333C229.889 80.2155 229.842 80.1024 229.759 80.0191C229.675 79.9357 229.562 79.8889 229.444 79.8889C229.327 79.8889 229.214 79.9357 229.13 80.0191C229.047 80.1024 229 80.2155 229 80.3333V83C229 83.1179 229.047 83.2309 229.13 83.3143C229.214 83.3976 229.327 83.4444 229.444 83.4444Z" fill="#3A4D55"/>
<path d="M236.556 83.4444C236.673 83.4444 236.786 83.3976 236.87 83.3143C236.953 83.2309 237 83.1179 237 83V80.3333C237 80.2155 236.953 80.1024 236.87 80.0191C236.786 79.9357 236.673 79.8889 236.556 79.8889C236.438 79.8889 236.325 79.9357 236.241 80.0191C236.158 80.1024 236.111 80.2155 236.111 80.3333V83C236.111 83.1179 236.158 83.2309 236.241 83.3143C236.325 83.3976 236.438 83.4444 236.556 83.4444Z" fill="#3A4D55"/>
<path d="M235.222 81.6667H230.778V82.5556H235.222V81.6667Z" fill="#3A4D55"/>
<path d="M267.278 92.12L272.289 87L267.278 81.88C266.993 81.5904 266.541 81.5993 266.267 81.9C265.993 82.2007 266.001 82.6792 266.286 82.9689L270.233 87L266.286 91.0355C266.001 91.3252 265.993 91.8038 266.267 92.1044C266.541 92.4051 266.993 92.4141 267.278 92.1244L267.278 92.12Z" fill="#3A4D55"/>
<path d="M49.2786 125.143C48.5246 125.143 47.8226 125.022 47.1726 124.779C46.5313 124.528 45.9593 124.168 45.4566 123.7L46.4056 122.543C47.2983 123.349 48.2776 123.752 49.3436 123.752C49.8636 123.752 50.2709 123.639 50.5656 123.414C50.8603 123.189 51.0076 122.907 51.0076 122.569C51.0076 122.326 50.9339 122.131 50.7866 121.984C50.6479 121.828 50.4356 121.698 50.1496 121.594C49.8723 121.481 49.4693 121.364 48.9406 121.243C48.2473 121.078 47.6796 120.901 47.2376 120.71C46.7956 120.511 46.4489 120.246 46.1976 119.917C45.9463 119.579 45.8206 119.141 45.8206 118.604C45.8206 118.093 45.9549 117.633 46.2236 117.226C46.5009 116.81 46.8823 116.489 47.3676 116.264C47.8529 116.03 48.4033 115.913 49.0186 115.913C50.3099 115.913 51.4366 116.329 52.3986 117.161L51.5146 118.344C51.1246 118.006 50.7129 117.75 50.2796 117.577C49.8463 117.395 49.4086 117.304 48.9666 117.304C48.5246 117.304 48.1606 117.417 47.8746 117.642C47.5973 117.867 47.4586 118.14 47.4586 118.461C47.4586 118.695 47.5279 118.89 47.6666 119.046C47.8139 119.202 48.0306 119.332 48.3166 119.436C48.6113 119.54 49.0143 119.653 49.5256 119.774C50.5569 120.008 51.3326 120.32 51.8526 120.71C52.3726 121.091 52.6326 121.659 52.6326 122.413C52.6326 122.95 52.4983 123.427 52.2296 123.843C51.9696 124.25 51.5883 124.571 51.0856 124.805C50.5829 125.03 49.9806 125.143 49.2786 125.143ZM60.1596 118.279V125H58.5736V124.09C58.3656 124.411 58.0753 124.671 57.7026 124.87C57.33 125.061 56.9226 125.156 56.4806 125.156C55.9953 125.156 55.562 125.048 55.1806 124.831C54.808 124.606 54.5133 124.298 54.2966 123.908C54.0886 123.509 53.9846 123.059 53.9846 122.556V118.279H55.5316V122.244C55.5316 122.703 55.6616 123.08 55.9216 123.375C56.1816 123.661 56.5196 123.804 56.9356 123.804C57.395 123.804 57.7806 123.665 58.0926 123.388C58.4133 123.102 58.5736 122.755 58.5736 122.348V118.279H60.1596Z" fill="#4F6169"/>
<path d="M80.4707 116.069H82.0827L85.0337 121.516L87.9717 116.069H89.5967V125H87.9717V119.033L85.0337 124.48L82.0827 119.033V125H80.4707V116.069ZM94.7959 125.156C94.1459 125.156 93.5435 125 92.9889 124.688C92.4342 124.367 91.9922 123.938 91.6629 123.401C91.3422 122.855 91.1819 122.266 91.1819 121.633C91.1819 121 91.3422 120.415 91.6629 119.878C91.9922 119.341 92.4342 118.916 92.9889 118.604C93.5435 118.283 94.1459 118.123 94.7959 118.123C95.4459 118.123 96.0439 118.283 96.5899 118.604C97.1445 118.916 97.5822 119.341 97.9029 119.878C98.2235 120.415 98.3839 121 98.3839 121.633C98.3839 122.266 98.2235 122.855 97.9029 123.401C97.5822 123.938 97.1445 124.367 96.5899 124.688C96.0439 125 95.4459 125.156 94.7959 125.156ZM94.7959 123.804C95.1599 123.804 95.4979 123.709 95.8099 123.518C96.1219 123.319 96.3689 123.054 96.5509 122.725C96.7415 122.387 96.8369 122.023 96.8369 121.633C96.8369 121.243 96.7459 120.883 96.5639 120.554C96.3819 120.225 96.1305 119.965 95.8099 119.774C95.4979 119.575 95.1599 119.475 94.7959 119.475C94.4232 119.475 94.0809 119.575 93.7689 119.774C93.4569 119.965 93.2055 120.225 93.0149 120.554C92.8329 120.883 92.7419 121.243 92.7419 121.633C92.7419 122.023 92.8329 122.387 93.0149 122.725C93.2055 123.054 93.4569 123.319 93.7689 123.518C94.0809 123.709 94.4232 123.804 94.7959 123.804Z" fill="#4F6169"/>
<path d="M120.282 117.551H117.422V116.069H124.754V117.551H121.907V125H120.282V117.551ZM132.064 118.279V125H130.478V124.09C130.27 124.411 129.98 124.671 129.607 124.87C129.235 125.061 128.827 125.156 128.385 125.156C127.9 125.156 127.467 125.048 127.085 124.831C126.713 124.606 126.418 124.298 126.201 123.908C125.993 123.509 125.889 123.059 125.889 122.556V118.279H127.436V122.244C127.436 122.703 127.566 123.08 127.826 123.375C128.086 123.661 128.424 123.804 128.84 123.804C129.3 123.804 129.685 123.665 129.997 123.388C130.318 123.102 130.478 122.755 130.478 122.348V118.279H132.064Z" fill="#4F6169"/>
<path d="M150.578 116.069H152.359L154.27 122.465L156.389 116.069H158.144L160.25 122.465L162.174 116.069H163.942L161.121 125H159.509L157.273 118.37L155.024 125H153.412L150.578 116.069ZM168.209 123.882C168.547 123.882 168.889 123.817 169.236 123.687C169.583 123.557 169.864 123.388 170.081 123.18L170.991 124.116C170.705 124.419 170.302 124.671 169.782 124.87C169.262 125.061 168.755 125.156 168.261 125.156C167.62 125.156 167.026 125.004 166.48 124.701C165.943 124.398 165.514 123.977 165.193 123.44C164.881 122.903 164.725 122.296 164.725 121.62C164.725 120.953 164.877 120.355 165.18 119.826C165.483 119.297 165.899 118.881 166.428 118.578C166.957 118.275 167.537 118.123 168.17 118.123C169.201 118.123 170.007 118.478 170.588 119.189C171.177 119.9 171.472 120.87 171.472 122.101H166.259C166.346 122.638 166.562 123.072 166.909 123.401C167.264 123.722 167.698 123.882 168.209 123.882ZM168.183 119.397C167.706 119.397 167.295 119.549 166.948 119.852C166.601 120.147 166.376 120.545 166.272 121.048H169.938C169.86 120.554 169.669 120.155 169.366 119.852C169.071 119.549 168.677 119.397 168.183 119.397Z" fill="#4F6169"/>
<path d="M192.282 117.551H189.422V116.069H196.754V117.551H193.907V125H192.282V117.551ZM201.698 118.123C202.184 118.123 202.617 118.236 202.998 118.461C203.38 118.678 203.674 118.985 203.882 119.384C204.099 119.774 204.207 120.22 204.207 120.723V125H202.66V121.035C202.66 120.576 202.53 120.203 202.27 119.917C202.01 119.622 201.672 119.475 201.256 119.475C200.797 119.475 200.407 119.618 200.086 119.904C199.774 120.181 199.618 120.524 199.618 120.931V125H198.032V115.913H199.618V119.189C199.826 118.868 200.112 118.613 200.476 118.422C200.849 118.223 201.256 118.123 201.698 118.123Z" fill="#4F6169"/>
<path d="M229.009 117.551V119.813H233.611V121.295H229.009V125H227.384V116.069H234.105V117.551H229.009ZM237.091 119.553C237.308 119.111 237.628 118.764 238.053 118.513C238.478 118.253 238.959 118.123 239.496 118.123V119.475C238.777 119.475 238.196 119.67 237.754 120.06C237.312 120.45 237.091 120.966 237.091 121.607V125H235.505V118.279H237.091V119.553Z" fill="#4F6169"/>
<path d="M265.583 125.143C264.829 125.143 264.127 125.022 263.477 124.779C262.836 124.528 262.264 124.168 261.761 123.7L262.71 122.543C263.603 123.349 264.582 123.752 265.648 123.752C266.168 123.752 266.576 123.639 266.87 123.414C267.165 123.189 267.312 122.907 267.312 122.569C267.312 122.326 267.239 122.131 267.091 121.984C266.953 121.828 266.74 121.698 266.454 121.594C266.177 121.481 265.774 121.364 265.245 121.243C264.552 121.078 263.984 120.901 263.542 120.71C263.1 120.511 262.754 120.246 262.502 119.917C262.251 119.579 262.125 119.141 262.125 118.604C262.125 118.093 262.26 117.633 262.528 117.226C262.806 116.81 263.187 116.489 263.672 116.264C264.158 116.03 264.708 115.913 265.323 115.913C266.615 115.913 267.741 116.329 268.703 117.161L267.819 118.344C267.429 118.006 267.018 117.75 266.584 117.577C266.151 117.395 265.713 117.304 265.271 117.304C264.829 117.304 264.465 117.417 264.179 117.642C263.902 117.867 263.763 118.14 263.763 118.461C263.763 118.695 263.833 118.89 263.971 119.046C264.119 119.202 264.335 119.332 264.621 119.436C264.916 119.54 265.319 119.653 265.83 119.774C266.862 120.008 267.637 120.32 268.157 120.71C268.677 121.091 268.937 121.659 268.937 122.413C268.937 122.95 268.803 123.427 268.534 123.843C268.274 124.25 267.893 124.571 267.39 124.805C266.888 125.03 266.285 125.143 265.583 125.143ZM273.123 118.123C274.007 118.123 274.705 118.383 275.216 118.903C275.736 119.414 275.996 120.099 275.996 120.957V125H274.449V124.207C274.207 124.502 273.895 124.736 273.513 124.909C273.132 125.074 272.742 125.156 272.343 125.156C271.867 125.156 271.438 125.069 271.056 124.896C270.684 124.714 270.389 124.463 270.172 124.142C269.956 123.813 269.847 123.436 269.847 123.011C269.847 122.578 269.969 122.192 270.211 121.854C270.454 121.516 270.783 121.252 271.199 121.061C271.615 120.87 272.075 120.775 272.577 120.775C273.175 120.775 273.799 120.892 274.449 121.126V120.957C274.449 120.515 274.315 120.151 274.046 119.865C273.786 119.57 273.375 119.423 272.811 119.423C272.274 119.423 271.667 119.592 270.991 119.93L270.445 118.825C271.399 118.357 272.291 118.123 273.123 118.123ZM272.694 123.999C273.102 123.999 273.474 123.899 273.812 123.7C274.159 123.501 274.371 123.232 274.449 122.894V122.127C273.929 121.962 273.383 121.88 272.811 121.88C272.404 121.88 272.062 121.984 271.784 122.192C271.507 122.391 271.368 122.647 271.368 122.959C271.368 123.271 271.494 123.522 271.745 123.713C271.997 123.904 272.313 123.999 272.694 123.999Z" fill="#4F6169"/>
<path d="M268.989 151.304L267.429 152.318L266.987 151.564L269.184 150.069H270.003V159H268.989V151.304Z" fill="#3A4D55"/>
<path d="M49.8167 194.155L53.0797 191.373C53.7037 190.836 54.1544 190.346 54.4317 189.904C54.7177 189.453 54.8607 189.003 54.8607 188.552C54.8607 188.205 54.774 187.902 54.6007 187.642C54.4274 187.373 54.1977 187.17 53.9117 187.031C53.6257 186.892 53.3224 186.823 53.0017 186.823C52.5077 186.823 52.0657 186.944 51.6757 187.187C51.2944 187.43 50.939 187.772 50.6097 188.214L49.8947 187.629C50.7007 186.485 51.7494 185.913 53.0407 185.913C53.5607 185.913 54.0374 186.021 54.4707 186.238C54.904 186.455 55.2464 186.762 55.4977 187.161C55.7577 187.56 55.8877 188.019 55.8877 188.539C55.8877 189.137 55.723 189.705 55.3937 190.242C55.073 190.771 54.5357 191.36 53.7817 192.01L51.4417 194.038H55.9787V195H49.8167V194.155Z" fill="#3A4D55"/>
<rect x="71.5" y="173.5" width="35" height="35" rx="3.5" stroke="#6A7A81"/>
<path d="M88.9625 195.156C88.2085 195.156 87.5325 195.022 86.9345 194.753C86.3451 194.476 85.8598 194.107 85.4785 193.648L86.4665 192.582C86.7785 192.937 87.1425 193.215 87.5585 193.414C87.9745 193.613 88.4208 193.713 88.8975 193.713C89.4348 193.713 89.8551 193.596 90.1585 193.362C90.4705 193.119 90.6265 192.799 90.6265 192.4C90.6265 192.001 90.4618 191.702 90.1325 191.503C89.8118 191.295 89.3351 191.191 88.7025 191.191L87.7015 191.204V189.8H88.7025C89.2398 189.809 89.6645 189.709 89.9765 189.501C90.2885 189.284 90.4445 188.985 90.4445 188.604C90.4445 188.24 90.2885 187.945 89.9765 187.72C89.6731 187.486 89.2788 187.369 88.7935 187.369C88.3688 187.369 87.9788 187.464 87.6235 187.655C87.2681 187.846 86.9301 188.119 86.6095 188.474L85.6475 187.486C86.4795 186.437 87.5715 185.913 88.9235 185.913C89.5475 185.913 90.0978 186.017 90.5745 186.225C91.0598 186.433 91.4325 186.723 91.6925 187.096C91.9611 187.46 92.0955 187.876 92.0955 188.344C92.0955 188.864 91.9395 189.302 91.6275 189.657C91.3155 190.012 90.9081 190.264 90.4055 190.411C90.9341 190.532 91.3805 190.775 91.7445 191.139C92.1085 191.503 92.2905 191.967 92.2905 192.53C92.2905 193.041 92.1518 193.496 91.8745 193.895C91.5971 194.285 91.2071 194.593 90.7045 194.818C90.2018 195.043 89.6211 195.156 88.9625 195.156Z" fill="#3A4D55"/>
<path d="M126.169 192.829H121.71L121.58 191.984L126.013 186.069H127.183V191.906H128.522V192.829H127.183V195H126.169V192.829ZM126.169 191.906V187.291L122.737 191.906H126.169Z" fill="#3A4D55"/>
<path d="M161.058 195.156C160.399 195.156 159.806 195.03 159.277 194.779C158.757 194.528 158.302 194.181 157.912 193.739L158.575 192.998C159.338 193.83 160.178 194.246 161.097 194.246C161.504 194.246 161.868 194.159 162.189 193.986C162.51 193.813 162.757 193.574 162.93 193.271C163.112 192.968 163.203 192.63 163.203 192.257C163.203 191.685 163.004 191.221 162.605 190.866C162.206 190.511 161.695 190.333 161.071 190.333C160.36 190.333 159.697 190.563 159.082 191.022L158.341 190.658L158.471 186.069H163.749V187.031H159.459L159.368 190.034C159.957 189.635 160.594 189.436 161.279 189.436C161.825 189.436 162.319 189.549 162.761 189.774C163.212 189.991 163.567 190.311 163.827 190.736C164.096 191.152 164.23 191.646 164.23 192.218C164.23 192.799 164.091 193.314 163.814 193.765C163.545 194.207 163.168 194.549 162.683 194.792C162.206 195.035 161.665 195.156 161.058 195.156Z" fill="#3A4D55"/>
<path d="M197.413 189.423C197.959 189.423 198.457 189.536 198.908 189.761C199.367 189.978 199.731 190.298 200 190.723C200.268 191.139 200.403 191.633 200.403 192.205C200.403 192.751 200.268 193.249 200 193.7C199.731 194.151 199.358 194.506 198.882 194.766C198.405 195.026 197.863 195.156 197.257 195.156C196.104 195.156 195.25 194.749 194.696 193.934C194.141 193.111 193.864 192.023 193.864 190.671C193.864 189.796 194.024 188.994 194.345 188.266C194.665 187.538 195.099 186.966 195.645 186.55C196.199 186.125 196.81 185.913 197.478 185.913C197.998 185.913 198.461 186.004 198.869 186.186C199.276 186.368 199.657 186.632 200.013 186.979L199.454 187.772C199.142 187.469 198.83 187.239 198.518 187.083C198.206 186.918 197.85 186.836 197.452 186.836C196.984 186.836 196.555 187.009 196.165 187.356C195.775 187.694 195.463 188.158 195.229 188.747C195.003 189.328 194.891 189.969 194.891 190.671V190.788C195.168 190.355 195.523 190.021 195.957 189.787C196.399 189.544 196.884 189.423 197.413 189.423ZM197.244 194.285C197.668 194.285 198.041 194.19 198.362 193.999C198.691 193.8 198.942 193.544 199.116 193.232C199.289 192.92 199.376 192.595 199.376 192.257C199.376 191.659 199.172 191.182 198.765 190.827C198.357 190.472 197.846 190.294 197.231 190.294C196.667 190.294 196.182 190.45 195.775 190.762C195.376 191.065 195.12 191.464 195.008 191.958C195.146 192.669 195.402 193.236 195.775 193.661C196.156 194.077 196.646 194.285 197.244 194.285Z" fill="#3A4D55"/>
<rect x="215" y="173" width="36" height="36" rx="4" fill="#0079AD"/>
<path d="M234.365 187.551H229.802V186.069H236.25V187.291L232.571 195H230.725L234.365 187.551Z" fill="white"/>
<path d="M269.043 195.156C268.428 195.156 267.873 195.052 267.379 194.844C266.885 194.636 266.495 194.346 266.209 193.973C265.923 193.592 265.78 193.154 265.78 192.66C265.78 192.123 265.962 191.655 266.326 191.256C266.699 190.857 267.175 190.567 267.756 190.385C267.219 190.177 266.794 189.9 266.482 189.553C266.17 189.198 266.014 188.773 266.014 188.279C266.014 187.802 266.153 187.386 266.43 187.031C266.716 186.667 267.089 186.39 267.548 186.199C268.016 186.008 268.514 185.913 269.043 185.913C269.58 185.913 270.079 186.013 270.538 186.212C271.006 186.403 271.379 186.68 271.656 187.044C271.942 187.399 272.085 187.815 272.085 188.292C272.085 188.803 271.92 189.232 271.591 189.579C271.27 189.926 270.854 190.194 270.343 190.385C270.915 190.576 271.383 190.87 271.747 191.269C272.12 191.668 272.306 192.131 272.306 192.66C272.306 193.154 272.163 193.592 271.877 193.973C271.591 194.346 271.197 194.636 270.694 194.844C270.2 195.052 269.65 195.156 269.043 195.156ZM269.043 189.982C269.355 189.965 269.667 189.891 269.979 189.761C270.291 189.631 270.547 189.449 270.746 189.215C270.954 188.981 271.058 188.704 271.058 188.383C271.058 188.088 270.967 187.824 270.785 187.59C270.612 187.356 270.369 187.174 270.057 187.044C269.754 186.905 269.416 186.836 269.043 186.836C268.48 186.836 268.003 186.983 267.613 187.278C267.232 187.573 267.041 187.941 267.041 188.383C267.041 188.712 267.145 188.994 267.353 189.228C267.561 189.462 267.817 189.644 268.12 189.774C268.432 189.895 268.74 189.965 269.043 189.982ZM269.043 194.233C269.45 194.233 269.823 194.164 270.161 194.025C270.508 193.886 270.781 193.696 270.98 193.453C271.179 193.202 271.279 192.916 271.279 192.595C271.279 192.257 271.162 191.958 270.928 191.698C270.694 191.438 270.404 191.239 270.057 191.1C269.71 190.953 269.372 190.875 269.043 190.866C268.714 190.875 268.376 190.953 268.029 191.1C267.682 191.239 267.392 191.438 267.158 191.698C266.924 191.958 266.807 192.257 266.807 192.595C266.807 192.916 266.907 193.202 267.106 193.453C267.305 193.696 267.574 193.886 267.912 194.025C268.259 194.164 268.636 194.233 269.043 194.233Z" fill="#3A4D55"/>
<path d="M52.8406 221.913C53.9933 221.913 54.847 222.325 55.4016 223.148C55.9563 223.963 56.2336 225.046 56.2336 226.398C56.2336 227.273 56.0733 228.075 55.7526 228.803C55.432 229.531 54.9943 230.107 54.4396 230.532C53.8936 230.948 53.287 231.156 52.6196 231.156C52.0996 231.156 51.636 231.065 51.2286 230.883C50.8213 230.701 50.44 230.437 50.0846 230.09L50.6436 229.297C50.9556 229.6 51.2676 229.834 51.5796 229.999C51.8916 230.155 52.247 230.233 52.6456 230.233C53.1136 230.233 53.5426 230.064 53.9326 229.726C54.3226 229.379 54.6303 228.916 54.8556 228.335C55.0896 227.746 55.2066 227.1 55.2066 226.398V226.281C54.9293 226.714 54.5696 227.052 54.1276 227.295C53.6943 227.529 53.2133 227.646 52.6846 227.646C52.1386 227.646 51.636 227.538 51.1766 227.321C50.726 227.096 50.3663 226.775 50.0976 226.359C49.829 225.934 49.6946 225.436 49.6946 224.864C49.6946 224.318 49.829 223.82 50.0976 223.369C50.3663 222.918 50.739 222.563 51.2156 222.303C51.6923 222.043 52.234 221.913 52.8406 221.913ZM52.8666 226.775C53.43 226.775 53.911 226.623 54.3096 226.32C54.717 226.008 54.977 225.605 55.0896 225.111C54.951 224.4 54.691 223.837 54.3096 223.421C53.937 222.996 53.4516 222.784 52.8536 222.784C52.429 222.784 52.052 222.884 51.7226 223.083C51.402 223.274 51.155 223.525 50.9816 223.837C50.8083 224.149 50.7216 224.474 50.7216 224.812C50.7216 225.41 50.9253 225.887 51.3326 226.242C51.74 226.597 52.2513 226.775 52.8666 226.775Z" fill="#3A4D55"/>
<path d="M84.5446 223.304L82.9846 224.318L82.5426 223.564L84.7396 222.069H85.5586V231H84.5446V223.304ZM91.3271 231.156C90.6078 231.156 89.9664 230.961 89.4031 230.571C88.8398 230.172 88.3978 229.622 88.0771 228.92C87.7651 228.218 87.6091 227.421 87.6091 226.528C87.6091 225.635 87.7651 224.842 88.0771 224.149C88.3978 223.447 88.8398 222.901 89.4031 222.511C89.9664 222.112 90.6078 221.913 91.3271 221.913C92.0378 221.913 92.6748 222.112 93.2381 222.511C93.8014 222.901 94.2391 223.447 94.5511 224.149C94.8718 224.842 95.0321 225.635 95.0321 226.528C95.0321 227.421 94.8718 228.218 94.5511 228.92C94.2391 229.622 93.8014 230.172 93.2381 230.571C92.6834 230.961 92.0464 231.156 91.3271 231.156ZM91.3271 230.22C91.8471 230.22 92.3108 230.064 92.7181 229.752C93.1254 229.431 93.4418 228.994 93.6671 228.439C93.8924 227.876 94.0051 227.239 94.0051 226.528C94.0051 225.817 93.8924 225.185 93.6671 224.63C93.4418 224.067 93.1254 223.629 92.7181 223.317C92.3108 223.005 91.8471 222.849 91.3271 222.849C90.8071 222.849 90.3434 223.005 89.9361 223.317C89.5288 223.629 89.2081 224.067 88.9741 224.63C88.7488 225.185 88.6361 225.817 88.6361 226.528C88.6361 227.239 88.7488 227.876 88.9741 228.439C89.2081 228.994 89.5288 229.431 89.9361 229.752C90.3434 230.064 90.8071 230.22 91.3271 230.22Z" fill="#3A4D55"/>
<path d="M122.716 223.304L121.156 224.318L120.714 223.564L122.911 222.069H123.73V231H122.716V223.304ZM127.262 223.304L125.702 224.318L125.26 223.564L127.457 222.069H128.276V231H127.262V223.304Z" fill="#3A4D55"/>
<path d="M157.363 223.304L155.803 224.318L155.361 223.564L157.558 222.069H158.377V231H157.363V223.304ZM160.09 230.155L163.353 227.373C163.977 226.836 164.428 226.346 164.705 225.904C164.991 225.453 165.134 225.003 165.134 224.552C165.134 224.205 165.047 223.902 164.874 223.642C164.701 223.373 164.471 223.17 164.185 223.031C163.899 222.892 163.596 222.823 163.275 222.823C162.781 222.823 162.339 222.944 161.949 223.187C161.568 223.43 161.212 223.772 160.883 224.214L160.168 223.629C160.974 222.485 162.023 221.913 163.314 221.913C163.834 221.913 164.311 222.021 164.744 222.238C165.177 222.455 165.52 222.762 165.771 223.161C166.031 223.56 166.161 224.019 166.161 224.539C166.161 225.137 165.996 225.705 165.667 226.242C165.346 226.771 164.809 227.36 164.055 228.01L161.715 230.038H166.252V231H160.09V230.155Z" fill="#3A4D55"/>
<path d="M193.256 223.304L191.696 224.318L191.254 223.564L193.451 222.069H194.27V231H193.256V223.304ZM199.18 231.156C198.478 231.156 197.845 231.017 197.282 230.74C196.727 230.454 196.277 230.081 195.93 229.622L196.632 228.959C196.935 229.358 197.304 229.67 197.737 229.895C198.17 230.12 198.651 230.233 199.18 230.233C199.804 230.233 200.307 230.077 200.688 229.765C201.069 229.453 201.26 229.041 201.26 228.53C201.26 228.01 201.056 227.616 200.649 227.347C200.242 227.078 199.678 226.944 198.959 226.944H198.01V226.008L198.972 226.021C199.587 226.03 200.09 225.895 200.48 225.618C200.87 225.332 201.065 224.942 201.065 224.448C201.065 223.98 200.874 223.594 200.493 223.291C200.12 222.988 199.652 222.836 199.089 222.836C198.621 222.836 198.201 222.944 197.828 223.161C197.455 223.378 197.1 223.69 196.762 224.097L196.086 223.486C196.875 222.437 197.893 221.913 199.141 221.913C199.704 221.913 200.207 222.017 200.649 222.225C201.1 222.424 201.451 222.71 201.702 223.083C201.962 223.447 202.092 223.863 202.092 224.331C202.092 224.868 201.927 225.315 201.598 225.67C201.277 226.025 200.866 226.277 200.363 226.424C200.892 226.545 201.342 226.788 201.715 227.152C202.096 227.516 202.287 227.993 202.287 228.582C202.287 229.076 202.157 229.518 201.897 229.908C201.637 230.298 201.269 230.606 200.792 230.831C200.324 231.048 199.787 231.156 199.18 231.156Z" fill="#3A4D55"/>
<path d="M229.217 223.304L227.657 224.318L227.215 223.564L229.412 222.069H230.231V231H229.217V223.304ZM236.442 228.829H231.983L231.853 227.984L236.286 222.069H237.456V227.906H238.795V228.829H237.456V231H236.442V228.829ZM236.442 227.906V223.291L233.01 227.906H236.442Z" fill="#3A4D55"/>
<path d="M265.186 223.304L263.626 224.318L263.184 223.564L265.381 222.069H266.2V231H265.186V223.304ZM271.331 231.156C270.673 231.156 270.079 231.03 269.55 230.779C269.03 230.528 268.575 230.181 268.185 229.739L268.848 228.998C269.611 229.83 270.452 230.246 271.37 230.246C271.778 230.246 272.142 230.159 272.462 229.986C272.783 229.813 273.03 229.574 273.203 229.271C273.385 228.968 273.476 228.63 273.476 228.257C273.476 227.685 273.277 227.221 272.878 226.866C272.48 226.511 271.968 226.333 271.344 226.333C270.634 226.333 269.971 226.563 269.355 227.022L268.614 226.658L268.744 222.069H274.022V223.031H269.732L269.641 226.034C270.231 225.635 270.868 225.436 271.552 225.436C272.098 225.436 272.592 225.549 273.034 225.774C273.485 225.991 273.84 226.311 274.1 226.736C274.369 227.152 274.503 227.646 274.503 228.218C274.503 228.799 274.365 229.314 274.087 229.765C273.819 230.207 273.442 230.549 272.956 230.792C272.48 231.035 271.938 231.156 271.331 231.156Z" fill="#3A4D55"/>
<path d="M49.0334 259.304L47.4734 260.318L47.0314 259.564L49.2284 258.069H50.0474V267H49.0334V259.304ZM55.6859 261.423C56.2319 261.423 56.7302 261.536 57.1809 261.761C57.6402 261.978 58.0042 262.298 58.2729 262.723C58.5415 263.139 58.6759 263.633 58.6759 264.205C58.6759 264.751 58.5415 265.249 58.2729 265.7C58.0042 266.151 57.6315 266.506 57.1549 266.766C56.6782 267.026 56.1365 267.156 55.5299 267.156C54.3772 267.156 53.5235 266.749 52.9689 265.934C52.4142 265.111 52.1369 264.023 52.1369 262.671C52.1369 261.796 52.2972 260.994 52.6179 260.266C52.9385 259.538 53.3719 258.966 53.9179 258.55C54.4725 258.125 55.0835 257.913 55.7509 257.913C56.2709 257.913 56.7345 258.004 57.1419 258.186C57.5492 258.368 57.9305 258.632 58.2859 258.979L57.7269 259.772C57.4149 259.469 57.1029 259.239 56.7909 259.083C56.4789 258.918 56.1235 258.836 55.7249 258.836C55.2569 258.836 54.8279 259.009 54.4379 259.356C54.0479 259.694 53.7359 260.158 53.5019 260.747C53.2765 261.328 53.1639 261.969 53.1639 262.671V262.788C53.4412 262.355 53.7965 262.021 54.2299 261.787C54.6719 261.544 55.1572 261.423 55.6859 261.423ZM55.5169 266.285C55.9415 266.285 56.3142 266.19 56.6349 265.999C56.9642 265.8 57.2155 265.544 57.3889 265.232C57.5622 264.92 57.6489 264.595 57.6489 264.257C57.6489 263.659 57.4452 263.182 57.0379 262.827C56.6305 262.472 56.1192 262.294 55.5039 262.294C54.9405 262.294 54.4552 262.45 54.0479 262.762C53.6492 263.065 53.3935 263.464 53.2809 263.958C53.4195 264.669 53.6752 265.236 54.0479 265.661C54.4292 266.077 54.9189 266.285 55.5169 266.285Z" fill="#3A4D55"/>
<path d="M85.6935 259.304L84.1335 260.318L83.6915 259.564L85.8885 258.069H86.7075V267H85.6935V259.304ZM93.1 259.031H88.264V258.069H94.309V258.836L90.461 267H89.291L93.1 259.031Z" fill="#3A4D55"/>
<path d="M121.002 259.304L119.442 260.318L119 259.564L121.197 258.069H122.016V267H121.002V259.304ZM127.316 267.156C126.701 267.156 126.146 267.052 125.652 266.844C125.158 266.636 124.768 266.346 124.482 265.973C124.196 265.592 124.053 265.154 124.053 264.66C124.053 264.123 124.235 263.655 124.599 263.256C124.972 262.857 125.448 262.567 126.029 262.385C125.492 262.177 125.067 261.9 124.755 261.553C124.443 261.198 124.287 260.773 124.287 260.279C124.287 259.802 124.426 259.386 124.703 259.031C124.989 258.667 125.362 258.39 125.821 258.199C126.289 258.008 126.787 257.913 127.316 257.913C127.853 257.913 128.352 258.013 128.811 258.212C129.279 258.403 129.652 258.68 129.929 259.044C130.215 259.399 130.358 259.815 130.358 260.292C130.358 260.803 130.193 261.232 129.864 261.579C129.543 261.926 129.127 262.194 128.616 262.385C129.188 262.576 129.656 262.87 130.02 263.269C130.393 263.668 130.579 264.131 130.579 264.66C130.579 265.154 130.436 265.592 130.15 265.973C129.864 266.346 129.47 266.636 128.967 266.844C128.473 267.052 127.923 267.156 127.316 267.156ZM127.316 261.982C127.628 261.965 127.94 261.891 128.252 261.761C128.564 261.631 128.82 261.449 129.019 261.215C129.227 260.981 129.331 260.704 129.331 260.383C129.331 260.088 129.24 259.824 129.058 259.59C128.885 259.356 128.642 259.174 128.33 259.044C128.027 258.905 127.689 258.836 127.316 258.836C126.753 258.836 126.276 258.983 125.886 259.278C125.505 259.573 125.314 259.941 125.314 260.383C125.314 260.712 125.418 260.994 125.626 261.228C125.834 261.462 126.09 261.644 126.393 261.774C126.705 261.895 127.013 261.965 127.316 261.982ZM127.316 266.233C127.723 266.233 128.096 266.164 128.434 266.025C128.781 265.886 129.054 265.696 129.253 265.453C129.452 265.202 129.552 264.916 129.552 264.595C129.552 264.257 129.435 263.958 129.201 263.698C128.967 263.438 128.677 263.239 128.33 263.1C127.983 262.953 127.645 262.875 127.316 262.866C126.987 262.875 126.649 262.953 126.302 263.1C125.955 263.239 125.665 263.438 125.431 263.698C125.197 263.958 125.08 264.257 125.08 264.595C125.08 264.916 125.18 265.202 125.379 265.453C125.578 265.696 125.847 265.886 126.185 266.025C126.532 266.164 126.909 266.233 127.316 266.233Z" fill="#3A4D55"/>
<path d="M157.033 259.304L155.473 260.318L155.031 259.564L157.228 258.069H158.047V267H157.033V259.304ZM163.114 257.913C164.267 257.913 165.12 258.325 165.675 259.148C166.23 259.963 166.507 261.046 166.507 262.398C166.507 263.273 166.347 264.075 166.026 264.803C165.705 265.531 165.268 266.107 164.713 266.532C164.167 266.948 163.56 267.156 162.893 267.156C162.373 267.156 161.909 267.065 161.502 266.883C161.095 266.701 160.713 266.437 160.358 266.09L160.917 265.297C161.229 265.6 161.541 265.834 161.853 265.999C162.165 266.155 162.52 266.233 162.919 266.233C163.387 266.233 163.816 266.064 164.206 265.726C164.596 265.379 164.904 264.916 165.129 264.335C165.363 263.746 165.48 263.1 165.48 262.398V262.281C165.203 262.714 164.843 263.052 164.401 263.295C163.968 263.529 163.487 263.646 162.958 263.646C162.412 263.646 161.909 263.538 161.45 263.321C160.999 263.096 160.64 262.775 160.371 262.359C160.102 261.934 159.968 261.436 159.968 260.864C159.968 260.318 160.102 259.82 160.371 259.369C160.64 258.918 161.012 258.563 161.489 258.303C161.966 258.043 162.507 257.913 163.114 257.913ZM163.14 262.775C163.703 262.775 164.184 262.623 164.583 262.32C164.99 262.008 165.25 261.605 165.363 261.111C165.224 260.4 164.964 259.837 164.583 259.421C164.21 258.996 163.725 258.784 163.127 258.784C162.702 258.784 162.325 258.884 161.996 259.083C161.675 259.274 161.428 259.525 161.255 259.837C161.082 260.149 160.995 260.474 160.995 260.812C160.995 261.41 161.199 261.887 161.606 262.242C162.013 262.597 162.525 262.775 163.14 262.775Z" fill="#3A4D55"/>
<path d="M189.373 266.155L192.636 263.373C193.26 262.836 193.71 262.346 193.988 261.904C194.274 261.453 194.417 261.003 194.417 260.552C194.417 260.205 194.33 259.902 194.157 259.642C193.983 259.373 193.754 259.17 193.468 259.031C193.182 258.892 192.878 258.823 192.558 258.823C192.064 258.823 191.622 258.944 191.232 259.187C190.85 259.43 190.495 259.772 190.166 260.214L189.451 259.629C190.257 258.485 191.305 257.913 192.597 257.913C193.117 257.913 193.593 258.021 194.027 258.238C194.46 258.455 194.802 258.762 195.054 259.161C195.314 259.56 195.444 260.019 195.444 260.539C195.444 261.137 195.279 261.705 194.95 262.242C194.629 262.771 194.092 263.36 193.338 264.01L190.998 266.038H195.535V267H189.373V266.155ZM200.679 267.156C199.96 267.156 199.318 266.961 198.755 266.571C198.192 266.172 197.75 265.622 197.429 264.92C197.117 264.218 196.961 263.421 196.961 262.528C196.961 261.635 197.117 260.842 197.429 260.149C197.75 259.447 198.192 258.901 198.755 258.511C199.318 258.112 199.96 257.913 200.679 257.913C201.39 257.913 202.027 258.112 202.59 258.511C203.153 258.901 203.591 259.447 203.903 260.149C204.224 260.842 204.384 261.635 204.384 262.528C204.384 263.421 204.224 264.218 203.903 264.92C203.591 265.622 203.153 266.172 202.59 266.571C202.035 266.961 201.398 267.156 200.679 267.156ZM200.679 266.22C201.199 266.22 201.663 266.064 202.07 265.752C202.477 265.431 202.794 264.994 203.019 264.439C203.244 263.876 203.357 263.239 203.357 262.528C203.357 261.817 203.244 261.185 203.019 260.63C202.794 260.067 202.477 259.629 202.07 259.317C201.663 259.005 201.199 258.849 200.679 258.849C200.159 258.849 199.695 259.005 199.288 259.317C198.881 259.629 198.56 260.067 198.326 260.63C198.101 261.185 197.988 261.817 197.988 262.528C197.988 263.239 198.101 263.876 198.326 264.439C198.56 264.994 198.881 265.431 199.288 265.752C199.695 266.064 200.159 266.22 200.679 266.22Z" fill="#3A4D55"/>
<path d="M227.543 266.155L230.806 263.373C231.43 262.836 231.881 262.346 232.158 261.904C232.444 261.453 232.587 261.003 232.587 260.552C232.587 260.205 232.501 259.902 232.327 259.642C232.154 259.373 231.924 259.17 231.638 259.031C231.352 258.892 231.049 258.823 230.728 258.823C230.234 258.823 229.792 258.944 229.402 259.187C229.021 259.43 228.666 259.772 228.336 260.214L227.621 259.629C228.427 258.485 229.476 257.913 230.767 257.913C231.287 257.913 231.764 258.021 232.197 258.238C232.631 258.455 232.973 258.762 233.224 259.161C233.484 259.56 233.614 260.019 233.614 260.539C233.614 261.137 233.45 261.705 233.12 262.242C232.8 262.771 232.262 263.36 231.508 264.01L229.168 266.038H233.705V267H227.543V266.155ZM236.614 259.304L235.054 260.318L234.612 259.564L236.809 258.069H237.628V267H236.614V259.304Z" fill="#3A4D55"/>
<path d="M262.191 266.155L265.454 263.373C266.078 262.836 266.529 262.346 266.806 261.904C267.092 261.453 267.235 261.003 267.235 260.552C267.235 260.205 267.149 259.902 266.975 259.642C266.802 259.373 266.572 259.17 266.286 259.031C266 258.892 265.697 258.823 265.376 258.823C264.882 258.823 264.44 258.944 264.05 259.187C263.669 259.43 263.314 259.772 262.984 260.214L262.269 259.629C263.075 258.485 264.124 257.913 265.415 257.913C265.935 257.913 266.412 258.021 266.845 258.238C267.279 258.455 267.621 258.762 267.872 259.161C268.132 259.56 268.262 260.019 268.262 260.539C268.262 261.137 268.098 261.705 267.768 262.242C267.448 262.771 266.91 263.36 266.156 264.01L263.816 266.038H268.353V267H262.191V266.155ZM269.442 266.155L272.705 263.373C273.329 262.836 273.78 262.346 274.057 261.904C274.343 261.453 274.486 261.003 274.486 260.552C274.486 260.205 274.399 259.902 274.226 259.642C274.053 259.373 273.823 259.17 273.537 259.031C273.251 258.892 272.948 258.823 272.627 258.823C272.133 258.823 271.691 258.944 271.301 259.187C270.92 259.43 270.564 259.772 270.235 260.214L269.52 259.629C270.326 258.485 271.375 257.913 272.666 257.913C273.186 257.913 273.663 258.021 274.096 258.238C274.529 258.455 274.872 258.762 275.123 259.161C275.383 259.56 275.513 260.019 275.513 260.539C275.513 261.137 275.348 261.705 275.019 262.242C274.698 262.771 274.161 263.36 273.407 264.01L271.067 266.038H275.604V267H269.442V266.155Z" fill="#3A4D55"/>
<path d="M46.0835 302.155L49.3465 299.373C49.9705 298.836 50.4212 298.346 50.6985 297.904C50.9845 297.453 51.1275 297.003 51.1275 296.552C51.1275 296.205 51.0408 295.902 50.8675 295.642C50.6942 295.373 50.4645 295.17 50.1785 295.031C49.8925 294.892 49.5892 294.823 49.2685 294.823C48.7745 294.823 48.3325 294.944 47.9425 295.187C47.5612 295.43 47.2058 295.772 46.8765 296.214L46.1615 295.629C46.9675 294.485 48.0162 293.913 49.3075 293.913C49.8275 293.913 50.3042 294.021 50.7375 294.238C51.1708 294.455 51.5132 294.762 51.7645 295.161C52.0245 295.56 52.1545 296.019 52.1545 296.539C52.1545 297.137 51.9898 297.705 51.6605 298.242C51.3398 298.771 50.8025 299.36 50.0485 300.01L47.7085 302.038H52.2455V303H46.0835V302.155ZM56.5321 303.156C55.8301 303.156 55.1974 303.017 54.6341 302.74C54.0794 302.454 53.6288 302.081 53.2821 301.622L53.9841 300.959C54.2874 301.358 54.6558 301.67 55.0891 301.895C55.5224 302.12 56.0034 302.233 56.5321 302.233C57.1561 302.233 57.6588 302.077 58.0401 301.765C58.4214 301.453 58.6121 301.041 58.6121 300.53C58.6121 300.01 58.4084 299.616 58.0011 299.347C57.5938 299.078 57.0304 298.944 56.3111 298.944H55.3621V298.008L56.3241 298.021C56.9394 298.03 57.4421 297.895 57.8321 297.618C58.2221 297.332 58.4171 296.942 58.4171 296.448C58.4171 295.98 58.2264 295.594 57.8451 295.291C57.4724 294.988 57.0044 294.836 56.4411 294.836C55.9731 294.836 55.5528 294.944 55.1801 295.161C54.8074 295.378 54.4521 295.69 54.1141 296.097L53.4381 295.486C54.2268 294.437 55.2451 293.913 56.4931 293.913C57.0564 293.913 57.5591 294.017 58.0011 294.225C58.4518 294.424 58.8028 294.71 59.0541 295.083C59.3141 295.447 59.4441 295.863 59.4441 296.331C59.4441 296.868 59.2794 297.315 58.9501 297.67C58.6294 298.025 58.2178 298.277 57.7151 298.424C58.2438 298.545 58.6944 298.788 59.0671 299.152C59.4484 299.516 59.6391 299.993 59.6391 300.582C59.6391 301.076 59.5091 301.518 59.2491 301.908C58.9891 302.298 58.6208 302.606 58.1441 302.831C57.6761 303.048 57.1388 303.156 56.5321 303.156Z" fill="#3A4D55"/>
<path d="M82.0454 302.155L85.3084 299.373C85.9324 298.836 86.3831 298.346 86.6604 297.904C86.9464 297.453 87.0894 297.003 87.0894 296.552C87.0894 296.205 87.0028 295.902 86.8294 295.642C86.6561 295.373 86.4264 295.17 86.1404 295.031C85.8544 294.892 85.5511 294.823 85.2304 294.823C84.7364 294.823 84.2944 294.944 83.9044 295.187C83.5231 295.43 83.1678 295.772 82.8384 296.214L82.1234 295.629C82.9294 294.485 83.9781 293.913 85.2694 293.913C85.7894 293.913 86.2661 294.021 86.6994 294.238C87.1328 294.455 87.4751 294.762 87.7264 295.161C87.9864 295.56 88.1164 296.019 88.1164 296.539C88.1164 297.137 87.9518 297.705 87.6224 298.242C87.3018 298.771 86.7644 299.36 86.0104 300.01L83.6704 302.038H88.2074V303H82.0454V302.155ZM93.794 300.829H89.335L89.205 299.984L93.638 294.069H94.808V299.906H96.147V300.829H94.808V303H93.794V300.829ZM93.794 299.906V295.291L90.362 299.906H93.794Z" fill="#3A4D55"/>
<path d="M118.014 302.155L121.277 299.373C121.901 298.836 122.351 298.346 122.629 297.904C122.915 297.453 123.058 297.003 123.058 296.552C123.058 296.205 122.971 295.902 122.798 295.642C122.624 295.373 122.395 295.17 122.109 295.031C121.823 294.892 121.519 294.823 121.199 294.823C120.705 294.823 120.263 294.944 119.873 295.187C119.491 295.43 119.136 295.772 118.807 296.214L118.092 295.629C118.898 294.485 119.946 293.913 121.238 293.913C121.758 293.913 122.234 294.021 122.668 294.238C123.101 294.455 123.443 294.762 123.695 295.161C123.955 295.56 124.085 296.019 124.085 296.539C124.085 297.137 123.92 297.705 123.591 298.242C123.27 298.771 122.733 299.36 121.979 300.01L119.639 302.038H124.176V303H118.014V302.155ZM128.683 303.156C128.025 303.156 127.431 303.03 126.902 302.779C126.382 302.528 125.927 302.181 125.537 301.739L126.2 300.998C126.963 301.83 127.804 302.246 128.722 302.246C129.13 302.246 129.494 302.159 129.814 301.986C130.135 301.813 130.382 301.574 130.555 301.271C130.737 300.968 130.828 300.63 130.828 300.257C130.828 299.685 130.629 299.221 130.23 298.866C129.832 298.511 129.32 298.333 128.696 298.333C127.986 298.333 127.323 298.563 126.707 299.022L125.966 298.658L126.096 294.069H131.374V295.031H127.084L126.993 298.034C127.583 297.635 128.22 297.436 128.904 297.436C129.45 297.436 129.944 297.549 130.386 297.774C130.837 297.991 131.192 298.311 131.452 298.736C131.721 299.152 131.855 299.646 131.855 300.218C131.855 300.799 131.717 301.314 131.439 301.765C131.171 302.207 130.794 302.549 130.308 302.792C129.832 303.035 129.29 303.156 128.683 303.156Z" fill="#3A4D55"/>
<path d="M153.861 302.155L157.124 299.373C157.748 298.836 158.199 298.346 158.476 297.904C158.762 297.453 158.905 297.003 158.905 296.552C158.905 296.205 158.819 295.902 158.645 295.642C158.472 295.373 158.242 295.17 157.956 295.031C157.67 294.892 157.367 294.823 157.046 294.823C156.552 294.823 156.11 294.944 155.72 295.187C155.339 295.43 154.984 295.772 154.654 296.214L153.939 295.629C154.745 294.485 155.794 293.913 157.085 293.913C157.605 293.913 158.082 294.021 158.515 294.238C158.949 294.455 159.291 294.762 159.542 295.161C159.802 295.56 159.932 296.019 159.932 296.539C159.932 297.137 159.768 297.705 159.438 298.242C159.118 298.771 158.58 299.36 157.826 300.01L155.486 302.038H160.023V303H153.861V302.155ZM165.038 297.423C165.584 297.423 166.082 297.536 166.533 297.761C166.992 297.978 167.356 298.298 167.625 298.723C167.894 299.139 168.028 299.633 168.028 300.205C168.028 300.751 167.894 301.249 167.625 301.7C167.356 302.151 166.984 302.506 166.507 302.766C166.03 303.026 165.489 303.156 164.882 303.156C163.729 303.156 162.876 302.749 162.321 301.934C161.766 301.111 161.489 300.023 161.489 298.671C161.489 297.796 161.649 296.994 161.97 296.266C162.291 295.538 162.724 294.966 163.27 294.55C163.825 294.125 164.436 293.913 165.103 293.913C165.623 293.913 166.087 294.004 166.494 294.186C166.901 294.368 167.283 294.632 167.638 294.979L167.079 295.772C166.767 295.469 166.455 295.239 166.143 295.083C165.831 294.918 165.476 294.836 165.077 294.836C164.609 294.836 164.18 295.009 163.79 295.356C163.4 295.694 163.088 296.158 162.854 296.747C162.629 297.328 162.516 297.969 162.516 298.671V298.788C162.793 298.355 163.149 298.021 163.582 297.787C164.024 297.544 164.509 297.423 165.038 297.423ZM164.869 302.285C165.294 302.285 165.666 302.19 165.987 301.999C166.316 301.8 166.568 301.544 166.741 301.232C166.914 300.92 167.001 300.595 167.001 300.257C167.001 299.659 166.797 299.182 166.39 298.827C165.983 298.472 165.471 298.294 164.856 298.294C164.293 298.294 163.807 298.45 163.4 298.762C163.001 299.065 162.746 299.464 162.633 299.958C162.772 300.669 163.027 301.236 163.4 301.661C163.781 302.077 164.271 302.285 164.869 302.285Z" fill="#3A4D55"/>
<path d="M190.521 302.155L193.784 299.373C194.408 298.836 194.859 298.346 195.136 297.904C195.422 297.453 195.565 297.003 195.565 296.552C195.565 296.205 195.479 295.902 195.305 295.642C195.132 295.373 194.902 295.17 194.616 295.031C194.33 294.892 194.027 294.823 193.706 294.823C193.212 294.823 192.77 294.944 192.38 295.187C191.999 295.43 191.644 295.772 191.314 296.214L190.599 295.629C191.405 294.485 192.454 293.913 193.745 293.913C194.265 293.913 194.742 294.021 195.175 294.238C195.609 294.455 195.951 294.762 196.202 295.161C196.462 295.56 196.592 296.019 196.592 296.539C196.592 297.137 196.428 297.705 196.098 298.242C195.778 298.771 195.24 299.36 194.486 300.01L192.146 302.038H196.683V303H190.521V302.155ZM202.452 295.031H197.616V294.069H203.661V294.836L199.813 303H198.643L202.452 295.031Z" fill="#3A4D55"/>
<path d="M225.83 302.155L229.093 299.373C229.717 298.836 230.167 298.346 230.445 297.904C230.731 297.453 230.874 297.003 230.874 296.552C230.874 296.205 230.787 295.902 230.614 295.642C230.44 295.373 230.211 295.17 229.925 295.031C229.639 294.892 229.335 294.823 229.015 294.823C228.521 294.823 228.079 294.944 227.689 295.187C227.307 295.43 226.952 295.772 226.623 296.214L225.908 295.629C226.714 294.485 227.762 293.913 229.054 293.913C229.574 293.913 230.05 294.021 230.484 294.238C230.917 294.455 231.259 294.762 231.511 295.161C231.771 295.56 231.901 296.019 231.901 296.539C231.901 297.137 231.736 297.705 231.407 298.242C231.086 298.771 230.549 299.36 229.795 300.01L227.455 302.038H231.992V303H225.83V302.155ZM236.668 303.156C236.053 303.156 235.498 303.052 235.004 302.844C234.51 302.636 234.12 302.346 233.834 301.973C233.548 301.592 233.405 301.154 233.405 300.66C233.405 300.123 233.587 299.655 233.951 299.256C234.324 298.857 234.801 298.567 235.381 298.385C234.844 298.177 234.419 297.9 234.107 297.553C233.795 297.198 233.639 296.773 233.639 296.279C233.639 295.802 233.778 295.386 234.055 295.031C234.341 294.667 234.714 294.39 235.173 294.199C235.641 294.008 236.14 293.913 236.668 293.913C237.206 293.913 237.704 294.013 238.163 294.212C238.631 294.403 239.004 294.68 239.281 295.044C239.567 295.399 239.71 295.815 239.71 296.292C239.71 296.803 239.546 297.232 239.216 297.579C238.896 297.926 238.48 298.194 237.968 298.385C238.54 298.576 239.008 298.87 239.372 299.269C239.745 299.668 239.931 300.131 239.931 300.66C239.931 301.154 239.788 301.592 239.502 301.973C239.216 302.346 238.822 302.636 238.319 302.844C237.825 303.052 237.275 303.156 236.668 303.156ZM236.668 297.982C236.98 297.965 237.292 297.891 237.604 297.761C237.916 297.631 238.172 297.449 238.371 297.215C238.579 296.981 238.683 296.704 238.683 296.383C238.683 296.088 238.592 295.824 238.41 295.59C238.237 295.356 237.994 295.174 237.682 295.044C237.379 294.905 237.041 294.836 236.668 294.836C236.105 294.836 235.628 294.983 235.238 295.278C234.857 295.573 234.666 295.941 234.666 296.383C234.666 296.712 234.77 296.994 234.978 297.228C235.186 297.462 235.442 297.644 235.745 297.774C236.057 297.895 236.365 297.965 236.668 297.982ZM236.668 302.233C237.076 302.233 237.448 302.164 237.786 302.025C238.133 301.886 238.406 301.696 238.605 301.453C238.805 301.202 238.904 300.916 238.904 300.595C238.904 300.257 238.787 299.958 238.553 299.698C238.319 299.438 238.029 299.239 237.682 299.1C237.336 298.953 236.998 298.875 236.668 298.866C236.339 298.875 236.001 298.953 235.654 299.1C235.308 299.239 235.017 299.438 234.783 299.698C234.549 299.958 234.432 300.257 234.432 300.595C234.432 300.916 234.532 301.202 234.731 301.453C234.931 301.696 235.199 301.886 235.537 302.025C235.884 302.164 236.261 302.233 236.668 302.233Z" fill="#3A4D55"/>
<mask id="path-112-inside-1_11_9573" fill="white">
<path d="M21 20H161V44H21V20Z"/>
</mask>
<path d="M161 43H21V45H161V43Z" fill="#6A7A81" mask="url(#path-112-inside-1_11_9573)"/>
<path d="M33.498 36.156C32.7787 36.156 32.1373 35.961 31.574 35.571C31.0107 35.1723 30.5687 34.622 30.248 33.92C29.936 33.218 29.78 32.4207 29.78 31.528C29.78 30.6353 29.936 29.8423 30.248 29.149C30.5687 28.447 31.0107 27.901 31.574 27.511C32.1373 27.1123 32.7787 26.913 33.498 26.913C34.2087 26.913 34.8457 27.1123 35.409 27.511C35.9723 27.901 36.41 28.447 36.722 29.149C37.0427 29.8423 37.203 30.6353 37.203 31.528C37.203 32.4207 37.0427 33.218 36.722 33.92C36.41 34.622 35.9723 35.1723 35.409 35.571C34.8543 35.961 34.2173 36.156 33.498 36.156ZM33.498 35.22C34.018 35.22 34.4817 35.064 34.889 34.752C35.2963 34.4313 35.6127 33.9937 35.838 33.439C36.0633 32.8757 36.176 32.2387 36.176 31.528C36.176 30.8173 36.0633 30.1847 35.838 29.63C35.6127 29.0667 35.2963 28.629 34.889 28.317C34.4817 28.005 34.018 27.849 33.498 27.849C32.978 27.849 32.5143 28.005 32.107 28.317C31.6997 28.629 31.379 29.0667 31.145 29.63C30.9197 30.1847 30.807 30.8173 30.807 31.528C30.807 32.2387 30.9197 32.8757 31.145 33.439C31.379 33.9937 31.6997 34.4313 32.107 34.752C32.5143 35.064 32.978 35.22 33.498 35.22ZM38.3303 35.155L41.5933 32.373C42.2173 31.8357 42.6679 31.346 42.9453 30.904C43.2313 30.4533 43.3743 30.0027 43.3743 29.552C43.3743 29.2053 43.2876 28.902 43.1143 28.642C42.9409 28.3733 42.7113 28.1697 42.4253 28.031C42.1393 27.8923 41.8359 27.823 41.5153 27.823C41.0213 27.823 40.5793 27.9443 40.1893 28.187C39.8079 28.4297 39.4526 28.772 39.1233 29.214L38.4083 28.629C39.2143 27.485 40.2629 26.913 41.5543 26.913C42.0743 26.913 42.5509 27.0213 42.9843 27.238C43.4176 27.4547 43.7599 27.7623 44.0113 28.161C44.2713 28.5597 44.4013 29.019 44.4013 29.539C44.4013 30.137 44.2366 30.7047 43.9073 31.242C43.5866 31.7707 43.0493 32.36 42.2953 33.01L39.9553 35.038H44.4923V36H38.3303V35.155ZM49.7019 26.341H50.8069L46.2439 36.962H45.1389L49.7019 26.341ZM55.199 36.156C54.4796 36.156 53.8383 35.961 53.275 35.571C52.7116 35.1723 52.2696 34.622 51.949 33.92C51.637 33.218 51.481 32.4207 51.481 31.528C51.481 30.6353 51.637 29.8423 51.949 29.149C52.2696 28.447 52.7116 27.901 53.275 27.511C53.8383 27.1123 54.4796 26.913 55.199 26.913C55.9096 26.913 56.5466 27.1123 57.11 27.511C57.6733 27.901 58.111 28.447 58.423 29.149C58.7436 29.8423 58.904 30.6353 58.904 31.528C58.904 32.4207 58.7436 33.218 58.423 33.92C58.111 34.622 57.6733 35.1723 57.11 35.571C56.5553 35.961 55.9183 36.156 55.199 36.156ZM55.199 35.22C55.719 35.22 56.1826 35.064 56.59 34.752C56.9973 34.4313 57.3136 33.9937 57.539 33.439C57.7643 32.8757 57.877 32.2387 57.877 31.528C57.877 30.8173 57.7643 30.1847 57.539 29.63C57.3136 29.0667 56.9973 28.629 56.59 28.317C56.1826 28.005 55.719 27.849 55.199 27.849C54.679 27.849 54.2153 28.005 53.808 28.317C53.4006 28.629 53.08 29.0667 52.846 29.63C52.6206 30.1847 52.508 30.8173 52.508 31.528C52.508 32.2387 52.6206 32.8757 52.846 33.439C53.08 33.9937 53.4006 34.4313 53.808 34.752C54.2153 35.064 54.679 35.22 55.199 35.22ZM64.7113 28.031H59.8753V27.069H65.9203V27.836L62.0723 36H60.9023L64.7113 28.031ZM70.7427 26.341H71.8477L67.2847 36.962H66.1797L70.7427 26.341ZM72.1838 35.155L75.4468 32.373C76.0708 31.8357 76.5215 31.346 76.7988 30.904C77.0848 30.4533 77.2278 30.0027 77.2278 29.552C77.2278 29.2053 77.1411 28.902 76.9678 28.642C76.7945 28.3733 76.5648 28.1697 76.2788 28.031C75.9928 27.8923 75.6895 27.823 75.3688 27.823C74.8748 27.823 74.4328 27.9443 74.0428 28.187C73.6615 28.4297 73.3061 28.772 72.9768 29.214L72.2618 28.629C73.0678 27.485 74.1165 26.913 75.4078 26.913C75.9278 26.913 76.4045 27.0213 76.8378 27.238C77.2711 27.4547 77.6135 27.7623 77.8648 28.161C78.1248 28.5597 78.2548 29.019 78.2548 29.539C78.2548 30.137 78.0901 30.7047 77.7608 31.242C77.4401 31.7707 76.9028 32.36 76.1488 33.01L73.8088 35.038H78.3458V36H72.1838V35.155ZM83.4904 36.156C82.771 36.156 82.1297 35.961 81.5664 35.571C81.003 35.1723 80.561 34.622 80.2404 33.92C79.9284 33.218 79.7724 32.4207 79.7724 31.528C79.7724 30.6353 79.9284 29.8423 80.2404 29.149C80.561 28.447 81.003 27.901 81.5664 27.511C82.1297 27.1123 82.771 26.913 83.4904 26.913C84.201 26.913 84.838 27.1123 85.4014 27.511C85.9647 27.901 86.4024 28.447 86.7144 29.149C87.035 29.8423 87.1954 30.6353 87.1954 31.528C87.1954 32.4207 87.035 33.218 86.7144 33.92C86.4024 34.622 85.9647 35.1723 85.4014 35.571C84.8467 35.961 84.2097 36.156 83.4904 36.156ZM83.4904 35.22C84.0104 35.22 84.474 35.064 84.8814 34.752C85.2887 34.4313 85.605 33.9937 85.8304 33.439C86.0557 32.8757 86.1684 32.2387 86.1684 31.528C86.1684 30.8173 86.0557 30.1847 85.8304 29.63C85.605 29.0667 85.2887 28.629 84.8814 28.317C84.474 28.005 84.0104 27.849 83.4904 27.849C82.9704 27.849 82.5067 28.005 82.0994 28.317C81.692 28.629 81.3714 29.0667 81.1374 29.63C80.912 30.1847 80.7994 30.8173 80.7994 31.528C80.7994 32.2387 80.912 32.8757 81.1374 33.439C81.3714 33.9937 81.692 34.4313 82.0994 34.752C82.5067 35.064 82.9704 35.22 83.4904 35.22ZM88.3227 35.155L91.5857 32.373C92.2097 31.8357 92.6603 31.346 92.9377 30.904C93.2237 30.4533 93.3667 30.0027 93.3667 29.552C93.3667 29.2053 93.28 28.902 93.1067 28.642C92.9333 28.3733 92.7037 28.1697 92.4177 28.031C92.1317 27.8923 91.8283 27.823 91.5077 27.823C91.0137 27.823 90.5717 27.9443 90.1817 28.187C89.8003 28.4297 89.445 28.772 89.1157 29.214L88.4007 28.629C89.2067 27.485 90.2553 26.913 91.5467 26.913C92.0667 26.913 92.5433 27.0213 92.9767 27.238C93.41 27.4547 93.7523 27.7623 94.0037 28.161C94.2637 28.5597 94.3937 29.019 94.3937 29.539C94.3937 30.137 94.229 30.7047 93.8997 31.242C93.579 31.7707 93.0417 32.36 92.2877 33.01L89.9477 35.038H94.4847V36H88.3227V35.155ZM98.9922 36.156C98.3336 36.156 97.7399 36.0303 97.2112 35.779C96.6912 35.5277 96.2362 35.181 95.8462 34.739L96.5092 33.998C97.2719 34.83 98.1126 35.246 99.0312 35.246C99.4386 35.246 99.8026 35.1593 100.123 34.986C100.444 34.8127 100.691 34.5743 100.864 34.271C101.046 33.9677 101.137 33.6297 101.137 33.257C101.137 32.685 100.938 32.2213 100.539 31.866C100.141 31.5107 99.6292 31.333 99.0052 31.333C98.2946 31.333 97.6316 31.5627 97.0162 32.022L96.2752 31.658L96.4052 27.069H101.683V28.031H97.3932L97.3022 31.034C97.8916 30.6353 98.5286 30.436 99.2132 30.436C99.7592 30.436 100.253 30.5487 100.695 30.774C101.146 30.9907 101.501 31.3113 101.761 31.736C102.03 32.152 102.164 32.646 102.164 33.218C102.164 33.7987 102.026 34.3143 101.748 34.765C101.48 35.207 101.103 35.5493 100.617 35.792C100.141 36.0347 99.5989 36.156 98.9922 36.156Z" fill="#4F6169"/>
<path d="M151.333 26.6667H149.889V27.5556H151.222V37.3333H138.778V27.5556H140.111V26.6667H138.667C138.563 26.6684 138.46 26.6906 138.365 26.732C138.27 26.7733 138.183 26.8331 138.111 26.9078C138.039 26.9825 137.982 27.0707 137.944 27.1673C137.906 27.264 137.887 27.3672 137.889 27.4711V37.4178C137.887 37.5217 137.906 37.6249 137.944 37.7216C137.982 37.8182 138.039 37.9064 138.111 37.9811C138.183 38.0558 138.27 38.1156 138.365 38.1569C138.46 38.1983 138.563 38.2205 138.667 38.2222H151.333C151.437 38.2205 151.54 38.1983 151.635 38.1569C151.73 38.1156 151.817 38.0558 151.889 37.9811C151.961 37.9064 152.018 37.8182 152.056 37.7216C152.094 37.6249 152.113 37.5217 152.111 37.4178V27.4711C152.113 27.3672 152.094 27.264 152.056 27.1673C152.018 27.0707 151.961 26.9825 151.889 26.9078C151.817 26.8331 151.73 26.7733 151.635 26.732C151.54 26.6906 151.437 26.6684 151.333 26.6667Z" fill="#3A4D55"/>
<path d="M141.444 30.2222H140.556V31.1111H141.444V30.2222Z" fill="#3A4D55"/>
<path d="M144.111 30.2222H143.222V31.1111H144.111V30.2222Z" fill="#3A4D55"/>
<path d="M146.778 30.2222H145.889V31.1111H146.778V30.2222Z" fill="#3A4D55"/>
<path d="M149.444 30.2222H148.556V31.1111H149.444V30.2222Z" fill="#3A4D55"/>
<path d="M141.444 32.4444H140.556V33.3333H141.444V32.4444Z" fill="#3A4D55"/>
<path d="M144.111 32.4444H143.222V33.3333H144.111V32.4444Z" fill="#3A4D55"/>
<path d="M146.778 32.4444H145.889V33.3333H146.778V32.4444Z" fill="#3A4D55"/>
<path d="M149.444 32.4444H148.556V33.3333H149.444V32.4444Z" fill="#3A4D55"/>
<path d="M141.444 34.6667H140.556V35.5556H141.444V34.6667Z" fill="#3A4D55"/>
<path d="M144.111 34.6667H143.222V35.5556H144.111V34.6667Z" fill="#3A4D55"/>
<path d="M146.778 34.6667H145.889V35.5556H146.778V34.6667Z" fill="#3A4D55"/>
<path d="M149.444 34.6667H148.556V35.5556H149.444V34.6667Z" fill="#3A4D55"/>
<path d="M141.444 28.4444C141.562 28.4444 141.675 28.3976 141.759 28.3143C141.842 28.2309 141.889 28.1179 141.889 28V25.3333C141.889 25.2155 141.842 25.1024 141.759 25.0191C141.675 24.9357 141.562 24.8889 141.444 24.8889C141.327 24.8889 141.214 24.9357 141.13 25.0191C141.047 25.1024 141 25.2155 141 25.3333V28C141 28.1179 141.047 28.2309 141.13 28.3143C141.214 28.3976 141.327 28.4444 141.444 28.4444Z" fill="#3A4D55"/>
<path d="M148.556 28.4444C148.673 28.4444 148.786 28.3976 148.87 28.3143C148.953 28.2309 149 28.1179 149 28V25.3333C149 25.2155 148.953 25.1024 148.87 25.0191C148.786 24.9357 148.673 24.8889 148.556 24.8889C148.438 24.8889 148.325 24.9357 148.241 25.0191C148.158 25.1024 148.111 25.2155 148.111 25.3333V28C148.111 28.1179 148.158 28.2309 148.241 28.3143C148.325 28.3976 148.438 28.4444 148.556 28.4444Z" fill="#3A4D55"/>
<path d="M147.222 26.6667H142.778V27.5556H147.222V26.6667Z" fill="#3A4D55"/>
</svg>
