<svg width="284" height="316" viewBox="0 0 284 316" fill="none" xmlns="http://www.w3.org/2000/svg">
<path d="M4 0.5H280C281.933 0.5 283.5 2.067 283.5 4V312C283.5 313.933 281.933 315.5 280 315.5H4C2.06701 315.5 0.5 313.933 0.5 312V4C0.5 2.06701 2.067 0.5 4 0.5Z" fill="white"/>
<path d="M4 0.5H280C281.933 0.5 283.5 2.067 283.5 4V312C283.5 313.933 281.933 315.5 280 315.5H4C2.06701 315.5 0.5 313.933 0.5 312V4C0.5 2.06701 2.067 0.5 4 0.5Z" stroke="#AEB8BC"/>
<path d="M19.4763 38.34L24.5163 34.18C25.4229 33.42 26.0696 32.7267 26.4563 32.1C26.8563 31.4733 27.0563 30.8467 27.0563 30.22C27.0563 29.5 26.8029 28.9267 26.2963 28.5C25.7896 28.06 25.1763 27.84 24.4563 27.84C23.7363 27.84 23.0896 28.0133 22.5163 28.36C21.9429 28.7067 21.4029 29.2133 20.8963 29.88L19.5363 28.68C20.8163 26.9067 22.4829 26.02 24.5363 26.02C25.3896 26.02 26.1629 26.1933 26.8563 26.54C27.5629 26.8867 28.1163 27.38 28.5163 28.02C28.9296 28.6467 29.1363 29.3667 29.1363 30.18C29.1363 31.1 28.8896 31.96 28.3963 32.76C27.9029 33.56 27.0696 34.44 25.8963 35.4L22.6763 38.12H29.2563V40H19.4763V38.34ZM37.1578 40.24C36.0245 40.24 35.0111 39.94 34.1178 39.34C33.2245 38.7267 32.5245 37.88 32.0178 36.8C31.5245 35.72 31.2778 34.4933 31.2778 33.12C31.2778 31.7467 31.5245 30.5267 32.0178 29.46C32.5245 28.38 33.2245 27.54 34.1178 26.94C35.0111 26.3267 36.0245 26.02 37.1578 26.02C38.2778 26.02 39.2778 26.3267 40.1578 26.94C41.0511 27.54 41.7445 28.38 42.2378 29.46C42.7445 30.5267 42.9978 31.7467 42.9978 33.12C42.9978 34.4933 42.7445 35.72 42.2378 36.8C41.7445 37.88 41.0578 38.7267 40.1778 39.34C39.2978 39.94 38.2911 40.24 37.1578 40.24ZM37.1578 38.38C37.8911 38.38 38.5445 38.16 39.1178 37.72C39.6911 37.2667 40.1378 36.64 40.4578 35.84C40.7778 35.04 40.9378 34.1333 40.9378 33.12C40.9378 32.1067 40.7778 31.2067 40.4578 30.42C40.1378 29.62 39.6911 29 39.1178 28.56C38.5445 28.1067 37.8911 27.88 37.1578 27.88C36.4245 27.88 35.7645 28.1067 35.1778 28.56C34.6045 29 34.1511 29.62 33.8178 30.42C33.4978 31.2067 33.3378 32.1067 33.3378 33.12C33.3378 34.1333 33.4978 35.04 33.8178 35.84C34.1511 36.64 34.6045 37.2667 35.1778 37.72C35.7645 38.16 36.4245 38.38 37.1578 38.38ZM47.5627 28.66L45.1827 30.18L44.3427 28.72L47.9627 26.26H49.5827V40H47.5627V28.66ZM57.2598 26.02C59.0865 26.02 60.4465 26.6533 61.3398 27.92C62.2332 29.1733 62.6798 30.84 62.6798 32.92C62.6798 34.2933 62.4265 35.54 61.9198 36.66C61.4265 37.7667 60.7332 38.64 59.8398 39.28C58.9598 39.92 57.9732 40.24 56.8798 40.24C55.3732 40.24 54.0398 39.7133 52.8798 38.66L53.9198 37.1C54.3865 37.5267 54.8532 37.8533 55.3198 38.08C55.7865 38.3067 56.3132 38.42 56.8998 38.42C57.5798 38.42 58.1998 38.1933 58.7598 37.74C59.3198 37.2733 59.7598 36.64 60.0798 35.84C60.4132 35.04 60.5932 34.14 60.6198 33.14C60.2065 33.7133 59.6665 34.16 58.9998 34.48C58.3465 34.7867 57.6465 34.94 56.8998 34.94C56.0465 34.94 55.2665 34.7667 54.5598 34.42C53.8665 34.0733 53.3132 33.58 52.8998 32.94C52.4865 32.2867 52.2798 31.52 52.2798 30.64C52.2798 29.7733 52.4932 28.9867 52.9198 28.28C53.3465 27.5733 53.9398 27.02 54.6998 26.62C55.4598 26.22 56.3132 26.02 57.2598 26.02ZM57.3598 33.24C58.1198 33.24 58.7798 33.04 59.3398 32.64C59.8998 32.24 60.2732 31.7067 60.4598 31.04C60.2865 30 59.9398 29.1933 59.4198 28.62C58.8998 28.0333 58.1998 27.74 57.3198 27.74C56.7198 27.74 56.1932 27.8733 55.7398 28.14C55.2998 28.4067 54.9532 28.76 54.6998 29.2C54.4598 29.6267 54.3398 30.0733 54.3398 30.54C54.3398 31.3533 54.6265 32.0067 55.1998 32.5C55.7865 32.9933 56.5065 33.24 57.3598 33.24ZM70.5677 33.64H75.8477V35.44H70.5677V33.64Z" fill="#0079AD"/>
<path d="M88.247 38.34L93.287 34.18C94.1936 33.42 94.8403 32.7267 95.227 32.1C95.627 31.4733 95.827 30.8467 95.827 30.22C95.827 29.5 95.5736 28.9267 95.067 28.5C94.5603 28.06 93.947 27.84 93.227 27.84C92.507 27.84 91.8603 28.0133 91.287 28.36C90.7136 28.7067 90.1736 29.2133 89.667 29.88L88.307 28.68C89.587 26.9067 91.2536 26.02 93.307 26.02C94.1603 26.02 94.9336 26.1933 95.627 26.54C96.3336 26.8867 96.887 27.38 97.287 28.02C97.7003 28.6467 97.907 29.3667 97.907 30.18C97.907 31.1 97.6603 31.96 97.167 32.76C96.6736 33.56 95.8403 34.44 94.667 35.4L91.447 38.12H98.027V40H88.247V38.34ZM105.929 40.24C104.795 40.24 103.782 39.94 102.889 39.34C101.995 38.7267 101.295 37.88 100.789 36.8C100.295 35.72 100.049 34.4933 100.049 33.12C100.049 31.7467 100.295 30.5267 100.789 29.46C101.295 28.38 101.995 27.54 102.889 26.94C103.782 26.3267 104.795 26.02 105.929 26.02C107.049 26.02 108.049 26.3267 108.929 26.94C109.822 27.54 110.515 28.38 111.009 29.46C111.515 30.5267 111.769 31.7467 111.769 33.12C111.769 34.4933 111.515 35.72 111.009 36.8C110.515 37.88 109.829 38.7267 108.949 39.34C108.069 39.94 107.062 40.24 105.929 40.24ZM105.929 38.38C106.662 38.38 107.315 38.16 107.889 37.72C108.462 37.2667 108.909 36.64 109.229 35.84C109.549 35.04 109.709 34.1333 109.709 33.12C109.709 32.1067 109.549 31.2067 109.229 30.42C108.909 29.62 108.462 29 107.889 28.56C107.315 28.1067 106.662 27.88 105.929 27.88C105.195 27.88 104.535 28.1067 103.949 28.56C103.375 29 102.922 29.62 102.589 30.42C102.269 31.2067 102.109 32.1067 102.109 33.12C102.109 34.1333 102.269 35.04 102.589 35.84C102.922 36.64 103.375 37.2667 103.949 37.72C104.535 38.16 105.195 38.38 105.929 38.38ZM113.413 38.34L118.453 34.18C119.36 33.42 120.007 32.7267 120.393 32.1C120.793 31.4733 120.993 30.8467 120.993 30.22C120.993 29.5 120.74 28.9267 120.233 28.5C119.727 28.06 119.113 27.84 118.393 27.84C117.673 27.84 117.027 28.0133 116.453 28.36C115.88 28.7067 115.34 29.2133 114.833 29.88L113.473 28.68C114.753 26.9067 116.42 26.02 118.473 26.02C119.327 26.02 120.1 26.1933 120.793 26.54C121.5 26.8867 122.053 27.38 122.453 28.02C122.867 28.6467 123.073 29.3667 123.073 30.18C123.073 31.1 122.827 31.96 122.333 32.76C121.84 33.56 121.007 34.44 119.833 35.4L116.613 38.12H123.193V40H113.413V38.34ZM130.375 40.24C129.402 40.24 128.522 40.08 127.735 39.76C126.948 39.44 126.328 38.9933 125.875 38.42C125.422 37.8333 125.195 37.1533 125.195 36.38C125.195 35.5667 125.462 34.86 125.995 34.26C126.542 33.6467 127.248 33.1933 128.115 32.9C127.315 32.58 126.688 32.1533 126.235 31.62C125.782 31.0867 125.555 30.4467 125.555 29.7C125.555 28.9533 125.775 28.3 126.215 27.74C126.668 27.18 127.262 26.7533 127.995 26.46C128.742 26.1667 129.535 26.02 130.375 26.02C131.242 26.02 132.042 26.1733 132.775 26.48C133.522 26.7733 134.115 27.2 134.555 27.76C134.995 28.32 135.215 28.9667 135.215 29.7C135.215 30.4733 134.975 31.1267 134.495 31.66C134.028 32.1933 133.415 32.6067 132.655 32.9C133.522 33.2067 134.222 33.6667 134.755 34.28C135.288 34.88 135.555 35.58 135.555 36.38C135.555 37.1533 135.322 37.8333 134.855 38.42C134.402 39.0067 133.782 39.46 132.995 39.78C132.208 40.0867 131.335 40.24 130.375 40.24ZM130.375 32.14C131.082 32.1 131.728 31.88 132.315 31.48C132.902 31.08 133.195 30.56 133.195 29.92C133.195 29.32 132.922 28.82 132.375 28.42C131.842 28.0067 131.175 27.8 130.375 27.8C129.575 27.8 128.908 28 128.375 28.4C127.842 28.8 127.575 29.3067 127.575 29.92C127.575 30.5733 127.862 31.1 128.435 31.5C129.022 31.8867 129.668 32.1 130.375 32.14ZM130.375 38.46C131.268 38.46 132.015 38.2533 132.615 37.84C133.215 37.4133 133.515 36.8667 133.515 36.2C133.515 35.7467 133.355 35.34 133.035 34.98C132.715 34.62 132.308 34.34 131.815 34.14C131.335 33.94 130.855 33.8333 130.375 33.82C129.908 33.8333 129.428 33.94 128.935 34.14C128.455 34.34 128.048 34.62 127.715 34.98C127.395 35.34 127.235 35.7467 127.235 36.2C127.235 36.8667 127.535 37.4133 128.135 37.84C128.735 38.2533 129.482 38.46 130.375 38.46Z" fill="#0079AD"/>
<path d="M179.722 28.88L174.711 34L179.722 39.12C180.007 39.4096 180.459 39.4007 180.733 39.1C181.007 38.7993 180.999 38.3208 180.714 38.0311L176.767 34L180.714 29.9644C180.999 29.6748 181.007 29.1962 180.733 28.8956C180.459 28.5949 180.007 28.5859 179.722 28.8756L179.722 28.88Z" fill="#3A4D55"/>
<path d="M213.187 37.4933L210.804 35.1111C210.732 35.0261 210.694 34.9167 210.698 34.8049C210.702 34.693 210.749 34.5869 210.828 34.5077C210.907 34.4286 211.013 34.3822 211.125 34.3779C211.237 34.3736 211.346 34.4116 211.431 34.4844L213.187 36.2222L217.027 32.3822C217.112 32.3094 217.221 32.2714 217.333 32.2757C217.445 32.28 217.551 32.3264 217.63 32.4055C217.709 32.4847 217.756 32.5908 217.76 32.7026C217.764 32.8145 217.726 32.9239 217.653 33.0089L213.187 37.4933Z" fill="#3A4D55"/>
<path d="M220.333 28.6667H218.889V29.5556H220.222V39.3333H207.778V29.5556H209.111V28.6667H207.667C207.563 28.6684 207.46 28.6906 207.365 28.732C207.27 28.7733 207.183 28.8331 207.111 28.9078C207.039 28.9825 206.982 29.0707 206.944 29.1673C206.906 29.264 206.887 29.3672 206.889 29.4711V39.4178C206.887 39.5217 206.906 39.6249 206.944 39.7216C206.982 39.8182 207.039 39.9064 207.111 39.9811C207.183 40.0558 207.27 40.1156 207.365 40.1569C207.46 40.1983 207.563 40.2205 207.667 40.2222H220.333C220.437 40.2205 220.54 40.1983 220.635 40.1569C220.73 40.1156 220.817 40.0558 220.889 39.9811C220.961 39.9064 221.018 39.8182 221.056 39.7216C221.094 39.6249 221.113 39.5217 221.111 39.4178V29.4711C221.113 29.3672 221.094 29.264 221.056 29.1673C221.018 29.0707 220.961 28.9825 220.889 28.9078C220.817 28.8331 220.73 28.7733 220.635 28.732C220.54 28.6906 220.437 28.6684 220.333 28.6667Z" fill="#3A4D55"/>
<path d="M210.444 30.4444C210.562 30.4444 210.675 30.3976 210.759 30.3143C210.842 30.2309 210.889 30.1179 210.889 30V27.3333C210.889 27.2155 210.842 27.1024 210.759 27.0191C210.675 26.9357 210.562 26.8889 210.444 26.8889C210.327 26.8889 210.214 26.9357 210.13 27.0191C210.047 27.1024 210 27.2155 210 27.3333V30C210 30.1179 210.047 30.2309 210.13 30.3143C210.214 30.3976 210.327 30.4444 210.444 30.4444Z" fill="#3A4D55"/>
<path d="M217.556 30.4444C217.673 30.4444 217.786 30.3976 217.87 30.3143C217.953 30.2309 218 30.1179 218 30V27.3333C218 27.2155 217.953 27.1024 217.87 27.0191C217.786 26.9357 217.673 26.8889 217.556 26.8889C217.438 26.8889 217.325 26.9357 217.241 27.0191C217.158 27.1024 217.111 27.2155 217.111 27.3333V30C217.111 30.1179 217.158 30.2309 217.241 30.3143C217.325 30.3976 217.438 30.4444 217.556 30.4444Z" fill="#3A4D55"/>
<path d="M216.222 28.6667H211.778V29.5556H216.222V28.6667Z" fill="#3A4D55"/>
<path d="M248.278 39.12L253.289 34L248.278 28.88C247.993 28.5904 247.541 28.5993 247.267 28.9C246.993 29.2007 247.001 29.6792 247.286 29.9689L251.233 34L247.286 38.0356C247.001 38.3252 246.993 38.8038 247.267 39.1044C247.541 39.4051 247.993 39.4141 248.278 39.1244L248.278 39.12Z" fill="#3A4D55"/>
<path d="M65.144 87.155L68.407 84.373C69.031 83.8357 69.4816 83.346 69.759 82.904C70.045 82.4533 70.188 82.0027 70.188 81.552C70.188 81.2053 70.1013 80.902 69.928 80.642C69.7546 80.3733 69.525 80.1697 69.239 80.031C68.953 79.8923 68.6496 79.823 68.329 79.823C67.835 79.823 67.393 79.9443 67.003 80.187C66.6216 80.4297 66.2663 80.772 65.937 81.214L65.222 80.629C66.028 79.485 67.0766 78.913 68.368 78.913C68.888 78.913 69.3646 79.0213 69.798 79.238C70.2313 79.4547 70.5736 79.7623 70.825 80.161C71.085 80.5597 71.215 81.019 71.215 81.539C71.215 82.137 71.0503 82.7047 70.721 83.242C70.4003 83.7707 69.863 84.36 69.109 85.01L66.769 87.038H71.306V88H65.144V87.155ZM76.4505 88.156C75.7312 88.156 75.0899 87.961 74.5265 87.571C73.9632 87.1723 73.5212 86.622 73.2005 85.92C72.8885 85.218 72.7325 84.4207 72.7325 83.528C72.7325 82.6353 72.8885 81.8423 73.2005 81.149C73.5212 80.447 73.9632 79.901 74.5265 79.511C75.0899 79.1123 75.7312 78.913 76.4505 78.913C77.1612 78.913 77.7982 79.1123 78.3615 79.511C78.9249 79.901 79.3625 80.447 79.6745 81.149C79.9952 81.8423 80.1555 82.6353 80.1555 83.528C80.1555 84.4207 79.9952 85.218 79.6745 85.92C79.3625 86.622 78.9249 87.1723 78.3615 87.571C77.8069 87.961 77.1699 88.156 76.4505 88.156ZM76.4505 87.22C76.9705 87.22 77.4342 87.064 77.8415 86.752C78.2489 86.4313 78.5652 85.9937 78.7905 85.439C79.0159 84.8757 79.1285 84.2387 79.1285 83.528C79.1285 82.8173 79.0159 82.1847 78.7905 81.63C78.5652 81.0667 78.2489 80.629 77.8415 80.317C77.4342 80.005 76.9705 79.849 76.4505 79.849C75.9305 79.849 75.4669 80.005 75.0595 80.317C74.6522 80.629 74.3315 81.0667 74.0975 81.63C73.8722 82.1847 73.7595 82.8173 73.7595 83.528C73.7595 84.2387 73.8722 84.8757 74.0975 85.439C74.3315 85.9937 74.6522 86.4313 75.0595 86.752C75.4669 87.064 75.9305 87.22 76.4505 87.22ZM83.1028 80.304L81.5428 81.318L81.1008 80.564L83.2978 79.069H84.1168V88H83.1028V80.304ZM89.1833 78.913C90.336 78.913 91.1896 79.3247 91.7443 80.148C92.299 80.9627 92.5763 82.046 92.5763 83.398C92.5763 84.2733 92.416 85.075 92.0953 85.803C91.7746 86.531 91.337 87.1073 90.7823 87.532C90.2363 87.948 89.6296 88.156 88.9623 88.156C88.4423 88.156 87.9786 88.065 87.5713 87.883C87.164 87.701 86.7826 87.4367 86.4273 87.09L86.9863 86.297C87.2983 86.6003 87.6103 86.8343 87.9223 86.999C88.2343 87.155 88.5896 87.233 88.9883 87.233C89.4563 87.233 89.8853 87.064 90.2753 86.726C90.6653 86.3793 90.973 85.9157 91.1983 85.335C91.4323 84.7457 91.5493 84.1 91.5493 83.398V83.281C91.272 83.7143 90.9123 84.0523 90.4703 84.295C90.037 84.529 89.556 84.646 89.0273 84.646C88.4813 84.646 87.9786 84.5377 87.5193 84.321C87.0686 84.0957 86.709 83.775 86.4403 83.359C86.1716 82.9343 86.0373 82.436 86.0373 81.864C86.0373 81.318 86.1716 80.8197 86.4403 80.369C86.709 79.9183 87.0816 79.563 87.5583 79.303C88.035 79.043 88.5766 78.913 89.1833 78.913ZM89.2093 83.775C89.7726 83.775 90.2536 83.6233 90.6523 83.32C91.0596 83.008 91.3196 82.605 91.4323 82.111C91.2936 81.4003 91.0336 80.837 90.6523 80.421C90.2796 79.9963 89.7943 79.784 89.1963 79.784C88.7716 79.784 88.3946 79.8837 88.0653 80.083C87.7446 80.2737 87.4976 80.525 87.3243 80.837C87.151 81.149 87.0643 81.474 87.0643 81.812C87.0643 82.41 87.268 82.8867 87.6753 83.242C88.0826 83.5973 88.594 83.775 89.2093 83.775Z" fill="#3A4D55"/>
<path d="M65.474 135.155L68.737 132.373C69.361 131.836 69.8117 131.346 70.089 130.904C70.375 130.453 70.518 130.003 70.518 129.552C70.518 129.205 70.4314 128.902 70.258 128.642C70.0847 128.373 69.855 128.17 69.569 128.031C69.283 127.892 68.9797 127.823 68.659 127.823C68.165 127.823 67.723 127.944 67.333 128.187C66.9517 128.43 66.5964 128.772 66.267 129.214L65.552 128.629C66.358 127.485 67.4067 126.913 68.698 126.913C69.218 126.913 69.6947 127.021 70.128 127.238C70.5614 127.455 70.9037 127.762 71.155 128.161C71.415 128.56 71.545 129.019 71.545 129.539C71.545 130.137 71.3804 130.705 71.051 131.242C70.7304 131.771 70.193 132.36 69.439 133.01L67.099 135.038H71.636V136H65.474V135.155ZM76.7806 136.156C76.0613 136.156 75.42 135.961 74.8566 135.571C74.2933 135.172 73.8513 134.622 73.5306 133.92C73.2186 133.218 73.0626 132.421 73.0626 131.528C73.0626 130.635 73.2186 129.842 73.5306 129.149C73.8513 128.447 74.2933 127.901 74.8566 127.511C75.42 127.112 76.0613 126.913 76.7806 126.913C77.4913 126.913 78.1283 127.112 78.6916 127.511C79.255 127.901 79.6926 128.447 80.0046 129.149C80.3253 129.842 80.4856 130.635 80.4856 131.528C80.4856 132.421 80.3253 133.218 80.0046 133.92C79.6926 134.622 79.255 135.172 78.6916 135.571C78.137 135.961 77.5 136.156 76.7806 136.156ZM76.7806 135.22C77.3006 135.22 77.7643 135.064 78.1716 134.752C78.579 134.431 78.8953 133.994 79.1206 133.439C79.346 132.876 79.4586 132.239 79.4586 131.528C79.4586 130.817 79.346 130.185 79.1206 129.63C78.8953 129.067 78.579 128.629 78.1716 128.317C77.7643 128.005 77.3006 127.849 76.7806 127.849C76.2606 127.849 75.797 128.005 75.3896 128.317C74.9823 128.629 74.6616 129.067 74.4276 129.63C74.2023 130.185 74.0896 130.817 74.0896 131.528C74.0896 132.239 74.2023 132.876 74.4276 133.439C74.6616 133.994 74.9823 134.431 75.3896 134.752C75.797 135.064 76.2606 135.22 76.7806 135.22ZM81.6129 135.155L84.8759 132.373C85.4999 131.836 85.9506 131.346 86.2279 130.904C86.5139 130.453 86.6569 130.003 86.6569 129.552C86.6569 129.205 86.5702 128.902 86.3969 128.642C86.2236 128.373 85.9939 128.17 85.7079 128.031C85.4219 127.892 85.1186 127.823 84.7979 127.823C84.3039 127.823 83.8619 127.944 83.4719 128.187C83.0906 128.43 82.7352 128.772 82.4059 129.214L81.6909 128.629C82.4969 127.485 83.5456 126.913 84.8369 126.913C85.3569 126.913 85.8336 127.021 86.2669 127.238C86.7002 127.455 87.0426 127.762 87.2939 128.161C87.5539 128.56 87.6839 129.019 87.6839 129.539C87.6839 130.137 87.5192 130.705 87.1899 131.242C86.8692 131.771 86.3319 132.36 85.5779 133.01L83.2379 135.038H87.7749V136H81.6129V135.155ZM90.6835 128.304L89.1235 129.318L88.6815 128.564L90.8785 127.069H91.6975V136H90.6835V128.304Z" fill="#3A4D55"/>
<path d="M64.0141 183.155L67.2771 180.373C67.9011 179.836 68.3517 179.346 68.6291 178.904C68.9151 178.453 69.0581 178.003 69.0581 177.552C69.0581 177.205 68.9714 176.902 68.7981 176.642C68.6247 176.373 68.3951 176.17 68.1091 176.031C67.8231 175.892 67.5197 175.823 67.1991 175.823C66.7051 175.823 66.2631 175.944 65.8731 176.187C65.4917 176.43 65.1364 176.772 64.8071 177.214L64.0921 176.629C64.8981 175.485 65.9467 174.913 67.2381 174.913C67.7581 174.913 68.2347 175.021 68.6681 175.238C69.1014 175.455 69.4437 175.762 69.6951 176.161C69.9551 176.56 70.0851 177.019 70.0851 177.539C70.0851 178.137 69.9204 178.705 69.5911 179.242C69.2704 179.771 68.7331 180.36 67.9791 181.01L65.6391 183.038H70.1761V184H64.0141V183.155ZM75.3207 184.156C74.6013 184.156 73.96 183.961 73.3967 183.571C72.8333 183.172 72.3913 182.622 72.0707 181.92C71.7587 181.218 71.6027 180.421 71.6027 179.528C71.6027 178.635 71.7587 177.842 72.0707 177.149C72.3913 176.447 72.8333 175.901 73.3967 175.511C73.96 175.112 74.6013 174.913 75.3207 174.913C76.0313 174.913 76.6683 175.112 77.2317 175.511C77.795 175.901 78.2327 176.447 78.5447 177.149C78.8653 177.842 79.0257 178.635 79.0257 179.528C79.0257 180.421 78.8653 181.218 78.5447 181.92C78.2327 182.622 77.795 183.172 77.2317 183.571C76.677 183.961 76.04 184.156 75.3207 184.156ZM75.3207 183.22C75.8407 183.22 76.3043 183.064 76.7117 182.752C77.119 182.431 77.4353 181.994 77.6607 181.439C77.886 180.876 77.9987 180.239 77.9987 179.528C77.9987 178.817 77.886 178.185 77.6607 177.63C77.4353 177.067 77.119 176.629 76.7117 176.317C76.3043 176.005 75.8407 175.849 75.3207 175.849C74.8007 175.849 74.337 176.005 73.9297 176.317C73.5223 176.629 73.2017 177.067 72.9677 177.63C72.7423 178.185 72.6297 178.817 72.6297 179.528C72.6297 180.239 72.7423 180.876 72.9677 181.439C73.2017 181.994 73.5223 182.431 73.9297 182.752C74.337 183.064 74.8007 183.22 75.3207 183.22ZM80.1529 183.155L83.4159 180.373C84.0399 179.836 84.4906 179.346 84.7679 178.904C85.0539 178.453 85.1969 178.003 85.1969 177.552C85.1969 177.205 85.1103 176.902 84.9369 176.642C84.7636 176.373 84.5339 176.17 84.2479 176.031C83.9619 175.892 83.6586 175.823 83.3379 175.823C82.8439 175.823 82.4019 175.944 82.0119 176.187C81.6306 176.43 81.2753 176.772 80.9459 177.214L80.2309 176.629C81.0369 175.485 82.0856 174.913 83.3769 174.913C83.8969 174.913 84.3736 175.021 84.8069 175.238C85.2403 175.455 85.5826 175.762 85.8339 176.161C86.0939 176.56 86.2239 177.019 86.2239 177.539C86.2239 178.137 86.0593 178.705 85.7299 179.242C85.4093 179.771 84.8719 180.36 84.1179 181.01L81.7779 183.038H86.3149V184H80.1529V183.155ZM90.6015 184.156C89.8995 184.156 89.2669 184.017 88.7035 183.74C88.1489 183.454 87.6982 183.081 87.3515 182.622L88.0535 181.959C88.3569 182.358 88.7252 182.67 89.1585 182.895C89.5919 183.12 90.0729 183.233 90.6015 183.233C91.2255 183.233 91.7282 183.077 92.1095 182.765C92.4909 182.453 92.6815 182.041 92.6815 181.53C92.6815 181.01 92.4779 180.616 92.0705 180.347C91.6632 180.078 91.0999 179.944 90.3805 179.944H89.4315V179.008L90.3935 179.021C91.0089 179.03 91.5115 178.895 91.9015 178.618C92.2915 178.332 92.4865 177.942 92.4865 177.448C92.4865 176.98 92.2959 176.594 91.9145 176.291C91.5419 175.988 91.0739 175.836 90.5105 175.836C90.0425 175.836 89.6222 175.944 89.2495 176.161C88.8769 176.378 88.5215 176.69 88.1835 177.097L87.5075 176.486C88.2962 175.437 89.3145 174.913 90.5625 174.913C91.1259 174.913 91.6285 175.017 92.0705 175.225C92.5212 175.424 92.8722 175.71 93.1235 176.083C93.3835 176.447 93.5135 176.863 93.5135 177.331C93.5135 177.868 93.3489 178.315 93.0195 178.67C92.6989 179.025 92.2872 179.277 91.7845 179.424C92.3132 179.545 92.7639 179.788 93.1365 180.152C93.5179 180.516 93.7085 180.993 93.7085 181.582C93.7085 182.076 93.5785 182.518 93.3185 182.908C93.0585 183.298 92.6902 183.606 92.2135 183.831C91.7455 184.048 91.2082 184.156 90.6015 184.156Z" fill="#3A4D55"/>
<rect x="16.5" y="204.5" width="125" height="47" rx="3.5" stroke="#6A7A81"/>
<path d="M63.3932 230.674L66.6822 228.048C67.2369 227.606 67.6312 227.203 67.8652 226.839C68.0992 226.475 68.2162 226.107 68.2162 225.734C68.2162 225.327 68.0646 224.997 67.7612 224.746C67.4666 224.495 67.1112 224.369 66.6952 224.369C66.2532 224.369 65.8502 224.477 65.4862 224.694C65.1309 224.902 64.7799 225.214 64.4332 225.63L63.3802 224.655C64.2642 223.494 65.3866 222.913 66.7472 222.913C67.3366 222.913 67.8652 223.03 68.3332 223.264C68.8099 223.498 69.1826 223.827 69.4512 224.252C69.7286 224.677 69.8672 225.158 69.8672 225.695C69.8672 226.293 69.7069 226.852 69.3862 227.372C69.0742 227.883 68.5412 228.429 67.7872 229.01L65.9152 230.518H69.9582V232H63.3932V230.674ZM75.1197 232.156C74.3657 232.156 73.6897 231.961 73.0917 231.571C72.5023 231.172 72.0387 230.622 71.7007 229.92C71.3713 229.218 71.2067 228.421 71.2067 227.528C71.2067 226.635 71.3713 225.842 71.7007 225.149C72.0387 224.447 72.5023 223.901 73.0917 223.511C73.6897 223.112 74.3657 222.913 75.1197 222.913C75.8737 222.913 76.5453 223.112 77.1347 223.511C77.7327 223.901 78.1963 224.447 78.5257 225.149C78.8637 225.842 79.0327 226.635 79.0327 227.528C79.0327 228.421 78.8637 229.218 78.5257 229.92C78.1963 230.622 77.7327 231.172 77.1347 231.571C76.5453 231.961 75.8737 232.156 75.1197 232.156ZM75.1197 230.674C75.553 230.674 75.9387 230.54 76.2767 230.271C76.6233 230.002 76.892 229.63 77.0827 229.153C77.2733 228.676 77.3687 228.135 77.3687 227.528C77.3687 226.921 77.2733 226.38 77.0827 225.903C76.892 225.426 76.6233 225.058 76.2767 224.798C75.9387 224.529 75.553 224.395 75.1197 224.395C74.6863 224.395 74.2963 224.529 73.9497 224.798C73.603 225.058 73.3343 225.426 73.1437 225.903C72.953 226.38 72.8577 226.921 72.8577 227.528C72.8577 228.135 72.953 228.676 73.1437 229.153C73.3343 229.63 73.603 230.002 73.9497 230.271C74.2963 230.54 74.6863 230.674 75.1197 230.674ZM80.1034 230.674L83.3924 228.048C83.947 227.606 84.3414 227.203 84.5754 226.839C84.8094 226.475 84.9264 226.107 84.9264 225.734C84.9264 225.327 84.7747 224.997 84.4714 224.746C84.1767 224.495 83.8214 224.369 83.4054 224.369C82.9634 224.369 82.5604 224.477 82.1964 224.694C81.841 224.902 81.49 225.214 81.1434 225.63L80.0904 224.655C80.9744 223.494 82.0967 222.913 83.4574 222.913C84.0467 222.913 84.5754 223.03 85.0434 223.264C85.52 223.498 85.8927 223.827 86.1614 224.252C86.4387 224.677 86.5774 225.158 86.5774 225.695C86.5774 226.293 86.417 226.852 86.0964 227.372C85.7844 227.883 85.2514 228.429 84.4974 229.01L82.6254 230.518H86.6684V232H80.1034V230.674ZM91.1668 232.156C89.8148 232.156 88.7012 231.697 87.8258 230.778L88.7878 229.621C89.1432 229.976 89.5245 230.254 89.9318 230.453C90.3392 230.652 90.7595 230.752 91.1928 230.752C91.7215 230.752 92.1505 230.6 92.4798 230.297C92.8092 229.994 92.9738 229.621 92.9738 229.179C92.9738 228.72 92.8092 228.351 92.4798 228.074C92.1505 227.797 91.7215 227.658 91.1928 227.658C90.5168 227.658 89.9102 227.866 89.3728 228.282L88.2678 227.814L88.3978 223.069H94.1048V224.551H89.9188L89.8408 226.852C90.3695 226.488 90.9718 226.306 91.6478 226.306C92.1852 226.306 92.6792 226.419 93.1298 226.644C93.5805 226.861 93.9358 227.181 94.1958 227.606C94.4645 228.031 94.5988 228.533 94.5988 229.114C94.5988 229.721 94.4558 230.254 94.1698 230.713C93.8838 231.172 93.4808 231.528 92.9608 231.779C92.4408 232.03 91.8428 232.156 91.1668 232.156Z" fill="#3A4D55"/>
<path d="M64.4521 279.155L67.7151 276.373C68.3391 275.836 68.7897 275.346 69.0671 274.904C69.3531 274.453 69.4961 274.003 69.4961 273.552C69.4961 273.205 69.4094 272.902 69.2361 272.642C69.0627 272.373 68.8331 272.17 68.5471 272.031C68.2611 271.892 67.9577 271.823 67.6371 271.823C67.1431 271.823 66.7011 271.944 66.3111 272.187C65.9297 272.43 65.5744 272.772 65.2451 273.214L64.5301 272.629C65.3361 271.485 66.3847 270.913 67.6761 270.913C68.1961 270.913 68.6727 271.021 69.1061 271.238C69.5394 271.455 69.8817 271.762 70.1331 272.161C70.3931 272.56 70.5231 273.019 70.5231 273.539C70.5231 274.137 70.3584 274.705 70.0291 275.242C69.7084 275.771 69.1711 276.36 68.4171 277.01L66.0771 279.038H70.6141V280H64.4521V279.155ZM75.7586 280.156C75.0393 280.156 74.398 279.961 73.8346 279.571C73.2713 279.172 72.8293 278.622 72.5086 277.92C72.1966 277.218 72.0406 276.421 72.0406 275.528C72.0406 274.635 72.1966 273.842 72.5086 273.149C72.8293 272.447 73.2713 271.901 73.8346 271.511C74.398 271.112 75.0393 270.913 75.7586 270.913C76.4693 270.913 77.1063 271.112 77.6696 271.511C78.233 271.901 78.6706 272.447 78.9826 273.149C79.3033 273.842 79.4636 274.635 79.4636 275.528C79.4636 276.421 79.3033 277.218 78.9826 277.92C78.6706 278.622 78.233 279.172 77.6696 279.571C77.115 279.961 76.478 280.156 75.7586 280.156ZM75.7586 279.22C76.2786 279.22 76.7423 279.064 77.1496 278.752C77.557 278.431 77.8733 277.994 78.0986 277.439C78.324 276.876 78.4366 276.239 78.4366 275.528C78.4366 274.817 78.324 274.185 78.0986 273.63C77.8733 273.067 77.557 272.629 77.1496 272.317C76.7423 272.005 76.2786 271.849 75.7586 271.849C75.2386 271.849 74.775 272.005 74.3676 272.317C73.9603 272.629 73.6396 273.067 73.4056 273.63C73.1803 274.185 73.0676 274.817 73.0676 275.528C73.0676 276.239 73.1803 276.876 73.4056 277.439C73.6396 277.994 73.9603 278.431 74.3676 278.752C74.775 279.064 75.2386 279.22 75.7586 279.22ZM80.5909 279.155L83.8539 276.373C84.4779 275.836 84.9286 275.346 85.2059 274.904C85.4919 274.453 85.6349 274.003 85.6349 273.552C85.6349 273.205 85.5483 272.902 85.3749 272.642C85.2016 272.373 84.9719 272.17 84.6859 272.031C84.3999 271.892 84.0966 271.823 83.7759 271.823C83.2819 271.823 82.8399 271.944 82.4499 272.187C82.0686 272.43 81.7133 272.772 81.3839 273.214L80.6689 272.629C81.4749 271.485 82.5236 270.913 83.8149 270.913C84.3349 270.913 84.8116 271.021 85.2449 271.238C85.6783 271.455 86.0206 271.762 86.2719 272.161C86.5319 272.56 86.6619 273.019 86.6619 273.539C86.6619 274.137 86.4973 274.705 86.1679 275.242C85.8473 275.771 85.3099 276.36 84.5559 277.01L82.2159 279.038H86.7529V280H80.5909V279.155ZM92.5215 272.031H87.6855V271.069H93.7305V271.836L89.8825 280H88.7125L92.5215 272.031Z" fill="#3A4D55"/>
<path d="M189.303 87.155L192.566 84.373C193.19 83.8357 193.641 83.346 193.918 82.904C194.204 82.4533 194.347 82.0027 194.347 81.552C194.347 81.2053 194.26 80.902 194.087 80.642C193.914 80.3733 193.684 80.1697 193.398 80.031C193.112 79.8923 192.809 79.823 192.488 79.823C191.994 79.823 191.552 79.9443 191.162 80.187C190.781 80.4297 190.425 80.772 190.096 81.214L189.381 80.629C190.187 79.485 191.236 78.913 192.527 78.913C193.047 78.913 193.524 79.0213 193.957 79.238C194.39 79.4547 194.733 79.7623 194.984 80.161C195.244 80.5597 195.374 81.019 195.374 81.539C195.374 82.137 195.209 82.7047 194.88 83.242C194.559 83.7707 194.022 84.36 193.268 85.01L190.928 87.038H195.465V88H189.303V87.155ZM200.61 88.156C199.89 88.156 199.249 87.961 198.686 87.571C198.122 87.1723 197.68 86.622 197.36 85.92C197.048 85.218 196.892 84.4207 196.892 83.528C196.892 82.6353 197.048 81.8423 197.36 81.149C197.68 80.447 198.122 79.901 198.686 79.511C199.249 79.1123 199.89 78.913 200.61 78.913C201.32 78.913 201.957 79.1123 202.521 79.511C203.084 79.901 203.522 80.447 203.834 81.149C204.154 81.8423 204.315 82.6353 204.315 83.528C204.315 84.4207 204.154 85.218 203.834 85.92C203.522 86.622 203.084 87.1723 202.521 87.571C201.966 87.961 201.329 88.156 200.61 88.156ZM200.61 87.22C201.13 87.22 201.593 87.064 202.001 86.752C202.408 86.4313 202.724 85.9937 202.95 85.439C203.175 84.8757 203.288 84.2387 203.288 83.528C203.288 82.8173 203.175 82.1847 202.95 81.63C202.724 81.0667 202.408 80.629 202.001 80.317C201.593 80.005 201.13 79.849 200.61 79.849C200.09 79.849 199.626 80.005 199.219 80.317C198.811 80.629 198.491 81.0667 198.257 81.63C198.031 82.1847 197.919 82.8173 197.919 83.528C197.919 84.2387 198.031 84.8757 198.257 85.439C198.491 85.9937 198.811 86.4313 199.219 86.752C199.626 87.064 200.09 87.22 200.61 87.22ZM205.442 87.155L208.705 84.373C209.329 83.8357 209.78 83.346 210.057 82.904C210.343 82.4533 210.486 82.0027 210.486 81.552C210.486 81.2053 210.399 80.902 210.226 80.642C210.053 80.3733 209.823 80.1697 209.537 80.031C209.251 79.8923 208.948 79.823 208.627 79.823C208.133 79.823 207.691 79.9443 207.301 80.187C206.92 80.4297 206.564 80.772 206.235 81.214L205.52 80.629C206.326 79.485 207.375 78.913 208.666 78.913C209.186 78.913 209.663 79.0213 210.096 79.238C210.529 79.4547 210.872 79.7623 211.123 80.161C211.383 80.5597 211.513 81.019 211.513 81.539C211.513 82.137 211.348 82.7047 211.019 83.242C210.698 83.7707 210.161 84.36 209.407 85.01L207.067 87.038H211.604V88H205.442V87.155ZM216.749 88.156C216.029 88.156 215.388 87.961 214.825 87.571C214.261 87.1723 213.819 86.622 213.499 85.92C213.187 85.218 213.031 84.4207 213.031 83.528C213.031 82.6353 213.187 81.8423 213.499 81.149C213.819 80.447 214.261 79.901 214.825 79.511C215.388 79.1123 216.029 78.913 216.749 78.913C217.459 78.913 218.096 79.1123 218.66 79.511C219.223 79.901 219.661 80.447 219.973 81.149C220.293 81.8423 220.454 82.6353 220.454 83.528C220.454 84.4207 220.293 85.218 219.973 85.92C219.661 86.622 219.223 87.1723 218.66 87.571C218.105 87.961 217.468 88.156 216.749 88.156ZM216.749 87.22C217.269 87.22 217.732 87.064 218.14 86.752C218.547 86.4313 218.863 85.9937 219.089 85.439C219.314 84.8757 219.427 84.2387 219.427 83.528C219.427 82.8173 219.314 82.1847 219.089 81.63C218.863 81.0667 218.547 80.629 218.14 80.317C217.732 80.005 217.269 79.849 216.749 79.849C216.229 79.849 215.765 80.005 215.358 80.317C214.95 80.629 214.63 81.0667 214.396 81.63C214.17 82.1847 214.058 82.8173 214.058 83.528C214.058 84.2387 214.17 84.8757 214.396 85.439C214.63 85.9937 214.95 86.4313 215.358 86.752C215.765 87.064 216.229 87.22 216.749 87.22Z" fill="#3A4D55"/>
<path d="M190.122 135.155L193.385 132.373C194.009 131.836 194.46 131.346 194.737 130.904C195.023 130.453 195.166 130.003 195.166 129.552C195.166 129.205 195.079 128.902 194.906 128.642C194.733 128.373 194.503 128.17 194.217 128.031C193.931 127.892 193.628 127.823 193.307 127.823C192.813 127.823 192.371 127.944 191.981 128.187C191.6 128.43 191.244 128.772 190.915 129.214L190.2 128.629C191.006 127.485 192.055 126.913 193.346 126.913C193.866 126.913 194.343 127.021 194.776 127.238C195.209 127.455 195.552 127.762 195.803 128.161C196.063 128.56 196.193 129.019 196.193 129.539C196.193 130.137 196.028 130.705 195.699 131.242C195.378 131.771 194.841 132.36 194.087 133.01L191.747 135.038H196.284V136H190.122V135.155ZM201.429 136.156C200.709 136.156 200.068 135.961 199.505 135.571C198.941 135.172 198.499 134.622 198.179 133.92C197.867 133.218 197.711 132.421 197.711 131.528C197.711 130.635 197.867 129.842 198.179 129.149C198.499 128.447 198.941 127.901 199.505 127.511C200.068 127.112 200.709 126.913 201.429 126.913C202.139 126.913 202.776 127.112 203.34 127.511C203.903 127.901 204.341 128.447 204.653 129.149C204.973 129.842 205.134 130.635 205.134 131.528C205.134 132.421 204.973 133.218 204.653 133.92C204.341 134.622 203.903 135.172 203.34 135.571C202.785 135.961 202.148 136.156 201.429 136.156ZM201.429 135.22C201.949 135.22 202.412 135.064 202.82 134.752C203.227 134.431 203.543 133.994 203.769 133.439C203.994 132.876 204.107 132.239 204.107 131.528C204.107 130.817 203.994 130.185 203.769 129.63C203.543 129.067 203.227 128.629 202.82 128.317C202.412 128.005 201.949 127.849 201.429 127.849C200.909 127.849 200.445 128.005 200.038 128.317C199.63 128.629 199.31 129.067 199.076 129.63C198.85 130.185 198.738 130.817 198.738 131.528C198.738 132.239 198.85 132.876 199.076 133.439C199.31 133.994 199.63 134.431 200.038 134.752C200.445 135.064 200.909 135.22 201.429 135.22ZM206.261 135.155L209.524 132.373C210.148 131.836 210.599 131.346 210.876 130.904C211.162 130.453 211.305 130.003 211.305 129.552C211.305 129.205 211.218 128.902 211.045 128.642C210.872 128.373 210.642 128.17 210.356 128.031C210.07 127.892 209.767 127.823 209.446 127.823C208.952 127.823 208.51 127.944 208.12 128.187C207.739 128.43 207.383 128.772 207.054 129.214L206.339 128.629C207.145 127.485 208.194 126.913 209.485 126.913C210.005 126.913 210.482 127.021 210.915 127.238C211.348 127.455 211.691 127.762 211.942 128.161C212.202 128.56 212.332 129.019 212.332 129.539C212.332 130.137 212.167 130.705 211.838 131.242C211.517 131.771 210.98 132.36 210.226 133.01L207.886 135.038H212.423V136H206.261V135.155ZM213.511 135.155L216.774 132.373C217.398 131.836 217.849 131.346 218.126 130.904C218.412 130.453 218.555 130.003 218.555 129.552C218.555 129.205 218.469 128.902 218.295 128.642C218.122 128.373 217.892 128.17 217.606 128.031C217.32 127.892 217.017 127.823 216.696 127.823C216.202 127.823 215.76 127.944 215.37 128.187C214.989 128.43 214.634 128.772 214.304 129.214L213.589 128.629C214.395 127.485 215.444 126.913 216.735 126.913C217.255 126.913 217.732 127.021 218.165 127.238C218.599 127.455 218.941 127.762 219.192 128.161C219.452 128.56 219.582 129.019 219.582 129.539C219.582 130.137 219.418 130.705 219.088 131.242C218.768 131.771 218.23 132.36 217.476 133.01L215.136 135.038H219.673V136H213.511V135.155Z" fill="#3A4D55"/>
<rect x="142" y="156" width="126" height="48" rx="4" fill="#0079AD"/>
<path d="M189.292 182.674L192.581 180.048C193.135 179.606 193.53 179.203 193.764 178.839C193.998 178.475 194.115 178.107 194.115 177.734C194.115 177.327 193.963 176.997 193.66 176.746C193.365 176.495 193.01 176.369 192.594 176.369C192.152 176.369 191.749 176.477 191.385 176.694C191.029 176.902 190.678 177.214 190.332 177.63L189.279 176.655C190.163 175.494 191.285 174.913 192.646 174.913C193.235 174.913 193.764 175.03 194.232 175.264C194.708 175.498 195.081 175.827 195.35 176.252C195.627 176.677 195.766 177.158 195.766 177.695C195.766 178.293 195.605 178.852 195.285 179.372C194.973 179.883 194.44 180.429 193.686 181.01L191.814 182.518H195.857V184H189.292V182.674ZM201.018 184.156C200.264 184.156 199.588 183.961 198.99 183.571C198.401 183.172 197.937 182.622 197.599 181.92C197.27 181.218 197.105 180.421 197.105 179.528C197.105 178.635 197.27 177.842 197.599 177.149C197.937 176.447 198.401 175.901 198.99 175.511C199.588 175.112 200.264 174.913 201.018 174.913C201.772 174.913 202.444 175.112 203.033 175.511C203.631 175.901 204.095 176.447 204.424 177.149C204.762 177.842 204.931 178.635 204.931 179.528C204.931 180.421 204.762 181.218 204.424 181.92C204.095 182.622 203.631 183.172 203.033 183.571C202.444 183.961 201.772 184.156 201.018 184.156ZM201.018 182.674C201.451 182.674 201.837 182.54 202.175 182.271C202.522 182.002 202.79 181.63 202.981 181.153C203.172 180.676 203.267 180.135 203.267 179.528C203.267 178.921 203.172 178.38 202.981 177.903C202.79 177.426 202.522 177.058 202.175 176.798C201.837 176.529 201.451 176.395 201.018 176.395C200.585 176.395 200.195 176.529 199.848 176.798C199.501 177.058 199.233 177.426 199.042 177.903C198.851 178.38 198.756 178.921 198.756 179.528C198.756 180.135 198.851 180.676 199.042 181.153C199.233 181.63 199.501 182.002 199.848 182.271C200.195 182.54 200.585 182.674 201.018 182.674ZM206.002 182.674L209.291 180.048C209.845 179.606 210.24 179.203 210.474 178.839C210.708 178.475 210.825 178.107 210.825 177.734C210.825 177.327 210.673 176.997 210.37 176.746C210.075 176.495 209.72 176.369 209.304 176.369C208.862 176.369 208.459 176.477 208.095 176.694C207.739 176.902 207.388 177.214 207.042 177.63L205.989 176.655C206.873 175.494 207.995 174.913 209.356 174.913C209.945 174.913 210.474 175.03 210.942 175.264C211.418 175.498 211.791 175.827 212.06 176.252C212.337 176.677 212.476 177.158 212.476 177.695C212.476 178.293 212.315 178.852 211.995 179.372C211.683 179.883 211.15 180.429 210.396 181.01L208.524 182.518H212.567V184H206.002V182.674ZM218.066 182.063H213.672L213.516 180.802L217.741 175.069H219.691V180.672H220.926V182.063H219.691V184H218.066V182.063ZM218.066 180.672V176.837L215.245 180.672H218.066Z" fill="white"/>
<path d="M189.792 231.155L193.055 228.373C193.679 227.836 194.13 227.346 194.407 226.904C194.693 226.453 194.836 226.003 194.836 225.552C194.836 225.205 194.749 224.902 194.576 224.642C194.403 224.373 194.173 224.17 193.887 224.031C193.601 223.892 193.298 223.823 192.977 223.823C192.483 223.823 192.041 223.944 191.651 224.187C191.27 224.43 190.914 224.772 190.585 225.214L189.87 224.629C190.676 223.485 191.725 222.913 193.016 222.913C193.536 222.913 194.013 223.021 194.446 223.238C194.879 223.455 195.222 223.762 195.473 224.161C195.733 224.56 195.863 225.019 195.863 225.539C195.863 226.137 195.698 226.705 195.369 227.242C195.048 227.771 194.511 228.36 193.757 229.01L191.417 231.038H195.954V232H189.792V231.155ZM201.098 232.156C200.379 232.156 199.738 231.961 199.174 231.571C198.611 231.172 198.169 230.622 197.848 229.92C197.536 229.218 197.38 228.421 197.38 227.528C197.38 226.635 197.536 225.842 197.848 225.149C198.169 224.447 198.611 223.901 199.174 223.511C199.738 223.112 200.379 222.913 201.098 222.913C201.809 222.913 202.446 223.112 203.009 223.511C203.573 223.901 204.01 224.447 204.322 225.149C204.643 225.842 204.803 226.635 204.803 227.528C204.803 228.421 204.643 229.218 204.322 229.92C204.01 230.622 203.573 231.172 203.009 231.571C202.455 231.961 201.818 232.156 201.098 232.156ZM201.098 231.22C201.618 231.22 202.082 231.064 202.489 230.752C202.897 230.431 203.213 229.994 203.438 229.439C203.664 228.876 203.776 228.239 203.776 227.528C203.776 226.817 203.664 226.185 203.438 225.63C203.213 225.067 202.897 224.629 202.489 224.317C202.082 224.005 201.618 223.849 201.098 223.849C200.578 223.849 200.115 224.005 199.707 224.317C199.3 224.629 198.979 225.067 198.745 225.63C198.52 226.185 198.407 226.817 198.407 227.528C198.407 228.239 198.52 228.876 198.745 229.439C198.979 229.994 199.3 230.431 199.707 230.752C200.115 231.064 200.578 231.22 201.098 231.22ZM205.931 231.155L209.194 228.373C209.818 227.836 210.268 227.346 210.546 226.904C210.832 226.453 210.975 226.003 210.975 225.552C210.975 225.205 210.888 224.902 210.715 224.642C210.541 224.373 210.312 224.17 210.026 224.031C209.74 223.892 209.436 223.823 209.116 223.823C208.622 223.823 208.18 223.944 207.79 224.187C207.408 224.43 207.053 224.772 206.724 225.214L206.009 224.629C206.815 223.485 207.863 222.913 209.155 222.913C209.675 222.913 210.151 223.021 210.585 223.238C211.018 223.455 211.36 223.762 211.612 224.161C211.872 224.56 212.002 225.019 212.002 225.539C212.002 226.137 211.837 226.705 211.508 227.242C211.187 227.771 210.65 228.36 209.896 229.01L207.556 231.038H212.093V232H205.931V231.155ZM217.107 226.423C217.653 226.423 218.152 226.536 218.602 226.761C219.062 226.978 219.426 227.298 219.694 227.723C219.963 228.139 220.097 228.633 220.097 229.205C220.097 229.751 219.963 230.249 219.694 230.7C219.426 231.151 219.053 231.506 218.576 231.766C218.1 232.026 217.558 232.156 216.951 232.156C215.799 232.156 214.945 231.749 214.39 230.934C213.836 230.111 213.558 229.023 213.558 227.671C213.558 226.796 213.719 225.994 214.039 225.266C214.36 224.538 214.793 223.966 215.339 223.55C215.894 223.125 216.505 222.913 217.172 222.913C217.692 222.913 218.156 223.004 218.563 223.186C218.971 223.368 219.352 223.632 219.707 223.979L219.148 224.772C218.836 224.469 218.524 224.239 218.212 224.083C217.9 223.918 217.545 223.836 217.146 223.836C216.678 223.836 216.249 224.009 215.859 224.356C215.469 224.694 215.157 225.158 214.923 225.747C214.698 226.328 214.585 226.969 214.585 227.671V227.788C214.863 227.355 215.218 227.021 215.651 226.787C216.093 226.544 216.579 226.423 217.107 226.423ZM216.938 231.285C217.363 231.285 217.736 231.19 218.056 230.999C218.386 230.8 218.637 230.544 218.81 230.232C218.984 229.92 219.07 229.595 219.07 229.257C219.07 228.659 218.867 228.182 218.459 227.827C218.052 227.472 217.541 227.294 216.925 227.294C216.362 227.294 215.877 227.45 215.469 227.762C215.071 228.065 214.815 228.464 214.702 228.958C214.841 229.669 215.097 230.236 215.469 230.661C215.851 231.077 216.34 231.285 216.938 231.285Z" fill="#3A4D55"/>
<path d="M189.76 279.155L193.023 276.373C193.647 275.836 194.098 275.346 194.375 274.904C194.661 274.453 194.804 274.003 194.804 273.552C194.804 273.205 194.717 272.902 194.544 272.642C194.371 272.373 194.141 272.17 193.855 272.031C193.569 271.892 193.266 271.823 192.945 271.823C192.451 271.823 192.009 271.944 191.619 272.187C191.238 272.43 190.882 272.772 190.553 273.214L189.838 272.629C190.644 271.485 191.693 270.913 192.984 270.913C193.504 270.913 193.981 271.021 194.414 271.238C194.847 271.455 195.19 271.762 195.441 272.161C195.701 272.56 195.831 273.019 195.831 273.539C195.831 274.137 195.666 274.705 195.337 275.242C195.016 275.771 194.479 276.36 193.725 277.01L191.385 279.038H195.922V280H189.76V279.155ZM201.067 280.156C200.347 280.156 199.706 279.961 199.143 279.571C198.579 279.172 198.137 278.622 197.817 277.92C197.505 277.218 197.349 276.421 197.349 275.528C197.349 274.635 197.505 273.842 197.817 273.149C198.137 272.447 198.579 271.901 199.143 271.511C199.706 271.112 200.347 270.913 201.067 270.913C201.777 270.913 202.414 271.112 202.978 271.511C203.541 271.901 203.979 272.447 204.291 273.149C204.611 273.842 204.772 274.635 204.772 275.528C204.772 276.421 204.611 277.218 204.291 277.92C203.979 278.622 203.541 279.172 202.978 279.571C202.423 279.961 201.786 280.156 201.067 280.156ZM201.067 279.22C201.587 279.22 202.05 279.064 202.458 278.752C202.865 278.431 203.181 277.994 203.407 277.439C203.632 276.876 203.745 276.239 203.745 275.528C203.745 274.817 203.632 274.185 203.407 273.63C203.181 273.067 202.865 272.629 202.458 272.317C202.05 272.005 201.587 271.849 201.067 271.849C200.547 271.849 200.083 272.005 199.676 272.317C199.268 272.629 198.948 273.067 198.714 273.63C198.488 274.185 198.376 274.817 198.376 275.528C198.376 276.239 198.488 276.876 198.714 277.439C198.948 277.994 199.268 278.431 199.676 278.752C200.083 279.064 200.547 279.22 201.067 279.22ZM205.899 279.155L209.162 276.373C209.786 275.836 210.237 275.346 210.514 274.904C210.8 274.453 210.943 274.003 210.943 273.552C210.943 273.205 210.856 272.902 210.683 272.642C210.51 272.373 210.28 272.17 209.994 272.031C209.708 271.892 209.405 271.823 209.084 271.823C208.59 271.823 208.148 271.944 207.758 272.187C207.377 272.43 207.021 272.772 206.692 273.214L205.977 272.629C206.783 271.485 207.832 270.913 209.123 270.913C209.643 270.913 210.12 271.021 210.553 271.238C210.986 271.455 211.329 271.762 211.58 272.161C211.84 272.56 211.97 273.019 211.97 273.539C211.97 274.137 211.805 274.705 211.476 275.242C211.155 275.771 210.618 276.36 209.864 277.01L207.524 279.038H212.061V280H205.899V279.155ZM216.738 280.156C216.122 280.156 215.568 280.052 215.074 279.844C214.58 279.636 214.19 279.346 213.904 278.973C213.618 278.592 213.475 278.154 213.475 277.66C213.475 277.123 213.657 276.655 214.021 276.256C214.393 275.857 214.87 275.567 215.451 275.385C214.913 275.177 214.489 274.9 214.177 274.553C213.865 274.198 213.709 273.773 213.709 273.279C213.709 272.802 213.847 272.386 214.125 272.031C214.411 271.667 214.783 271.39 215.243 271.199C215.711 271.008 216.209 270.913 216.738 270.913C217.275 270.913 217.773 271.013 218.233 271.212C218.701 271.403 219.073 271.68 219.351 272.044C219.637 272.399 219.78 272.815 219.78 273.292C219.78 273.803 219.615 274.232 219.286 274.579C218.965 274.926 218.549 275.194 218.038 275.385C218.61 275.576 219.078 275.87 219.442 276.269C219.814 276.668 220.001 277.131 220.001 277.66C220.001 278.154 219.858 278.592 219.572 278.973C219.286 279.346 218.891 279.636 218.389 279.844C217.895 280.052 217.344 280.156 216.738 280.156ZM216.738 274.982C217.05 274.965 217.362 274.891 217.674 274.761C217.986 274.631 218.241 274.449 218.441 274.215C218.649 273.981 218.753 273.704 218.753 273.383C218.753 273.088 218.662 272.824 218.48 272.59C218.306 272.356 218.064 272.174 217.752 272.044C217.448 271.905 217.11 271.836 216.738 271.836C216.174 271.836 215.698 271.983 215.308 272.278C214.926 272.573 214.736 272.941 214.736 273.383C214.736 273.712 214.84 273.994 215.048 274.228C215.256 274.462 215.511 274.644 215.815 274.774C216.127 274.895 216.434 274.965 216.738 274.982ZM216.738 279.233C217.145 279.233 217.518 279.164 217.856 279.025C218.202 278.886 218.475 278.696 218.675 278.453C218.874 278.202 218.974 277.916 218.974 277.595C218.974 277.257 218.857 276.958 218.623 276.698C218.389 276.438 218.098 276.239 217.752 276.1C217.405 275.953 217.067 275.875 216.738 275.866C216.408 275.875 216.07 275.953 215.724 276.1C215.377 276.239 215.087 276.438 214.853 276.698C214.619 276.958 214.502 277.257 214.502 277.595C214.502 277.916 214.601 278.202 214.801 278.453C215 278.696 215.269 278.886 215.607 279.025C215.953 279.164 216.33 279.233 216.738 279.233Z" fill="#3A4D55"/>
</svg>
