<svg width="929" height="384" viewBox="0 0 929 384" fill="none" xmlns="http://www.w3.org/2000/svg">
<rect x="200" y="25" width="516" height="335" fill="#1B2B32"/>
<rect width="517" height="40" transform="translate(199.5 24.5)" fill="#3A4D55"/>
<rect opacity="0.3" x="346.208" y="152.5" width="9" height="16" fill="#FDA1D8"/>
<rect opacity="0.3" x="346.208" y="296.5" width="9" height="16" fill="#FDA1D8"/>
<path opacity="0.4" d="M227.5 86.5H282.178" stroke="#ACB8BE" stroke-width="4" stroke-linecap="round"/>
<path opacity="0.4" d="M227.5 106.5H282.178" stroke="#ACB8BE" stroke-width="4" stroke-linecap="round"/>
<path opacity="0.4" d="M227.5 126.5H282.178" stroke="#ACB8BE" stroke-width="4" stroke-linecap="round"/>
<path opacity="0.4" d="M227.5 146.5H282.178" stroke="#ACB8BE" stroke-width="4" stroke-linecap="round"/>
<path opacity="0.4" d="M227.5 166.5H282.178" stroke="#ACB8BE" stroke-width="4" stroke-linecap="round"/>
<path opacity="0.4" d="M227.5 186.5H282.178" stroke="#ACB8BE" stroke-width="4" stroke-linecap="round"/>
<path opacity="0.4" d="M227.5 206.5H282.178" stroke="#ACB8BE" stroke-width="4" stroke-linecap="round"/>
<path opacity="0.4" d="M227.5 226.5H282.178" stroke="#ACB8BE" stroke-width="4" stroke-linecap="round"/>
<path opacity="0.4" d="M227.5 246.5H282.178" stroke="#ACB8BE" stroke-width="4" stroke-linecap="round"/>
<path opacity="0.4" d="M339.5 86.5H622.377" stroke="#ACB8BE" stroke-width="4" stroke-linecap="round"/>
<path opacity="0.4" d="M339.5 102.5H622.377" stroke="#ACB8BE" stroke-width="4" stroke-linecap="round"/>
<path opacity="0.4" d="M339.5 118.5H622.377" stroke="#ACB8BE" stroke-width="4" stroke-linecap="round"/>
<path opacity="0.4" d="M339.5 134.5H622.377" stroke="#ACB8BE" stroke-width="4" stroke-linecap="round"/>
<path opacity="0.4" d="M339.5 150.5H512.876" stroke="#ACB8BE" stroke-width="4" stroke-linecap="round"/>
<rect opacity="0.3" x="339.5" y="168.5" width="288.674" height="128" fill="#ACB8BE"/>
<rect opacity="0.4" x="339.5" y="312.5" width="53" height="24" rx="2" fill="#ACB8BE"/>
<rect opacity="0.4" x="398.5" y="312.5" width="54" height="24" rx="2" fill="#ACB8BE"/>
<path opacity="0.3" d="M308.555 64.5H307.545V360.5H308.237L308.555 64.5Z" fill="#ACB8BE"/>
<path d="M709.5 24.5H726.5V64.5H709.5" stroke="#FDA1D8"/>
<line opacity="0.4" x1="185.292" y1="40" x2="739.957" y2="40" stroke="#FDA1D8"/>
<line opacity="0.4" x1="185.292" y1="104" x2="739.957" y2="104" stroke="#FDA1D8"/>
<line opacity="0.4" x1="185.292" y1="168" x2="739.957" y2="168" stroke="#FDA1D8"/>
<line opacity="0.4" x1="185.292" y1="232" x2="739.957" y2="232" stroke="#FDA1D8"/>
<line opacity="0.4" x1="185.292" y1="296" x2="739.957" y2="296" stroke="#FDA1D8"/>
<line opacity="0.4" x1="185.292" y1="72" x2="739.957" y2="72" stroke="#FDA1D8"/>
<line opacity="0.4" x1="185.292" y1="136" x2="739.957" y2="136" stroke="#FDA1D8"/>
<line opacity="0.4" x1="185.292" y1="200" x2="739.957" y2="200" stroke="#FDA1D8"/>
<line opacity="0.4" x1="185.292" y1="264" x2="739.957" y2="264" stroke="#FDA1D8"/>
<line opacity="0.4" x1="185.292" y1="328" x2="739.957" y2="328" stroke="#FDA1D8"/>
<line opacity="0.4" x1="185.292" y1="24" x2="725.153" y2="24" stroke="#FDA1D8"/>
<line opacity="0.4" x1="185.292" y1="88" x2="739.957" y2="88" stroke="#FDA1D8"/>
<line opacity="0.4" x1="185.292" y1="152" x2="739.957" y2="152" stroke="#FDA1D8"/>
<line opacity="0.4" x1="185.292" y1="216" x2="739.957" y2="216" stroke="#FDA1D8"/>
<line opacity="0.4" x1="185.292" y1="280" x2="739.957" y2="280" stroke="#FDA1D8"/>
<line opacity="0.4" x1="185.292" y1="344" x2="739.957" y2="344" stroke="#FDA1D8"/>
<line opacity="0.4" x1="185.292" y1="360" x2="739.957" y2="360" stroke="#FDA1D8"/>
<line opacity="0.4" x1="185.292" y1="56" x2="739.957" y2="56" stroke="#FDA1D8"/>
<line opacity="0.4" x1="185.292" y1="120" x2="739.957" y2="120" stroke="#FDA1D8"/>
<line opacity="0.4" x1="185.292" y1="184" x2="739.957" y2="184" stroke="#FDA1D8"/>
<line opacity="0.4" x1="185.292" y1="248" x2="739.957" y2="248" stroke="#FDA1D8"/>
<line opacity="0.4" x1="185.292" y1="312" x2="739.957" y2="312" stroke="#FDA1D8"/>
<path d="M747.156 40.11C748.416 40.11 749.466 40.91 749.466 42.28C749.466 43.64 748.386 44.62 746.906 44.62C744.946 44.62 744.086 43.16 744.086 41.18C744.086 39.06 745.336 37.51 747.116 37.51C747.976 37.51 748.626 37.81 749.176 38.28L748.566 39.23C748.146 38.86 747.716 38.61 747.116 38.61C746.146 38.61 745.466 39.54 745.376 40.88C745.806 40.4 746.456 40.11 747.156 40.11ZM746.846 43.56C747.686 43.56 748.196 42.96 748.196 42.33C748.196 41.58 747.576 41.13 746.826 41.13C746.156 41.13 745.636 41.5 745.436 42.07C745.586 42.99 746.016 43.56 746.846 43.56ZM753.634 44.62C751.864 44.62 750.624 43.15 750.624 41.06C750.624 38.98 751.864 37.51 753.634 37.51C755.394 37.51 756.644 38.98 756.644 41.06C756.644 43.15 755.394 44.62 753.634 44.62ZM753.634 43.48C754.654 43.48 755.364 42.48 755.364 41.06C755.364 39.64 754.654 38.65 753.634 38.65C752.614 38.65 751.894 39.64 751.894 41.06C751.894 42.48 752.614 43.48 753.634 43.48ZM764.069 39.21C765.439 39.21 766.439 40.33 766.439 41.91C766.439 43.5 765.439 44.62 764.069 44.62C763.309 44.62 762.689 44.28 762.279 43.7V46.22H761.059V39.33H762.279V40.13C762.689 39.55 763.309 39.21 764.069 39.21ZM763.739 43.58C764.609 43.58 765.229 42.88 765.229 41.91C765.229 40.94 764.609 40.25 763.739 40.25C762.879 40.25 762.279 40.94 762.279 41.91C762.279 42.88 762.879 43.58 763.739 43.58ZM772.381 44.5H771.031L769.771 42.77L768.501 44.5H767.171L769.111 41.86L767.261 39.33H768.601L769.781 40.94L770.961 39.33H772.291L770.441 41.85L772.381 44.5ZM746.206 59.2C744.816 58.14 744.016 56.61 744.016 54.85C744.016 53.08 744.816 51.56 746.206 50.5L746.826 51.16C745.776 52.24 745.246 53.33 745.246 54.85C745.246 56.36 745.776 57.45 746.826 58.53L746.206 59.2ZM749.182 57.5V52.07L748.002 52.82L747.502 51.94L749.432 50.63H750.432V57.5H749.182ZM754.564 57.62C753.444 57.62 752.604 57.2 751.994 56.56L752.734 55.67C753.254 56.19 753.894 56.54 754.584 56.54C755.414 56.54 755.954 56 755.954 55.33C755.954 54.63 755.404 54.16 754.584 54.16C754.044 54.16 753.574 54.34 753.184 54.64L752.334 54.28L752.434 50.63H756.824V51.77H753.604L753.544 53.54C753.894 53.3 754.344 53.12 754.934 53.12C756.154 53.12 757.204 53.9 757.204 55.28C757.204 56.7 756.134 57.62 754.564 57.62ZM766.131 57.5H764.781L763.521 55.77L762.251 57.5H760.921L762.861 54.86L761.011 52.33H762.351L763.531 53.94L764.711 52.33H766.041L764.191 54.85L766.131 57.5ZM773.175 57.5V56.01H769.795L769.675 55.04L772.925 50.63H774.425V54.94H775.375V56.01H774.425V57.5H773.175ZM771.005 54.94H773.175V51.99L771.005 54.94ZM776.754 59.2L776.124 58.53C777.174 57.45 777.704 56.36 777.704 54.85C777.704 53.33 777.174 52.24 776.124 51.16L776.754 50.5C778.144 51.56 778.944 53.08 778.944 54.85C778.944 56.61 778.144 58.14 776.754 59.2Z" fill="#FDA1D8"/>
<path d="M478.46 320.62C477.25 320.62 476.34 320.13 475.78 319.46L476.54 318.64C477.01 319.18 477.67 319.51 478.41 319.51C479.24 319.51 479.74 319.1 479.74 318.5C479.74 317.89 479.24 317.57 478.26 317.57L477.49 317.58V316.5H478.26C479.07 316.51 479.6 316.18 479.6 315.58C479.6 315.02 479.07 314.63 478.33 314.63C477.64 314.63 477.12 314.96 476.65 315.48L475.91 314.72C476.46 314.03 477.26 313.51 478.43 313.51C479.9 313.51 480.87 314.29 480.87 315.38C480.87 316.21 480.3 316.75 479.57 316.97C480.3 317.14 481.02 317.67 481.02 318.6C481.02 319.78 480 320.62 478.46 320.62ZM485.365 316.11C486.625 316.11 487.675 316.91 487.675 318.28C487.675 319.64 486.595 320.62 485.115 320.62C483.155 320.62 482.295 319.16 482.295 317.18C482.295 315.06 483.545 313.51 485.325 313.51C486.185 313.51 486.835 313.81 487.385 314.28L486.775 315.23C486.355 314.86 485.925 314.61 485.325 314.61C484.355 314.61 483.675 315.54 483.585 316.88C484.015 316.4 484.665 316.11 485.365 316.11ZM485.055 319.56C485.895 319.56 486.405 318.96 486.405 318.33C486.405 317.58 485.785 317.13 485.035 317.13C484.365 317.13 483.845 317.5 483.645 318.07C483.795 318.99 484.225 319.56 485.055 319.56ZM495.016 315.21C496.386 315.21 497.386 316.33 497.386 317.91C497.386 319.5 496.386 320.62 495.016 320.62C494.256 320.62 493.636 320.28 493.226 319.7V322.22H492.006V315.33H493.226V316.13C493.636 315.55 494.256 315.21 495.016 315.21ZM494.686 319.58C495.556 319.58 496.176 318.88 496.176 317.91C496.176 316.94 495.556 316.25 494.686 316.25C493.826 316.25 493.226 316.94 493.226 317.91C493.226 318.88 493.826 319.58 494.686 319.58ZM503.329 320.5H501.979L500.719 318.77L499.449 320.5H498.119L500.059 317.86L498.209 315.33H499.549L500.729 316.94L501.909 315.33H503.239L501.389 317.85L503.329 320.5ZM478.16 335.2C476.77 334.14 475.97 332.61 475.97 330.85C475.97 329.08 476.77 327.56 478.16 326.5L478.78 327.16C477.73 328.24 477.2 329.33 477.2 330.85C477.2 332.36 477.73 333.45 478.78 334.53L478.16 335.2ZM482.235 326.51C484.195 326.51 485.055 327.97 485.055 329.95C485.055 332.07 483.805 333.62 482.025 333.62C481.165 333.62 480.515 333.32 479.965 332.85L480.575 331.9C480.995 332.27 481.425 332.52 482.025 332.52C482.995 332.52 483.675 331.59 483.765 330.25C483.335 330.73 482.685 331.02 481.985 331.02C480.725 331.02 479.675 330.22 479.675 328.85C479.675 327.49 480.755 326.51 482.235 326.51ZM482.315 330C482.985 330 483.505 329.63 483.705 329.06C483.555 328.14 483.125 327.57 482.295 327.57C481.455 327.57 480.945 328.17 480.945 328.8C480.945 329.55 481.565 330 482.315 330ZM494.057 333.5H492.707L491.447 331.77L490.177 333.5H488.847L490.787 330.86L488.937 328.33H490.277L491.457 329.94L492.637 328.33H493.967L492.117 330.85L494.057 333.5ZM501.101 333.5V332.01H497.721L497.601 331.04L500.851 326.63H502.351V330.94H503.301V332.01H502.351V333.5H501.101ZM498.931 330.94H501.101V327.99L498.931 330.94ZM504.68 335.2L504.05 334.53C505.1 333.45 505.63 332.36 505.63 330.85C505.63 329.33 505.1 328.24 504.05 327.16L504.68 326.5C506.07 327.56 506.87 329.08 506.87 330.85C506.87 332.61 506.07 334.14 504.68 335.2Z" fill="#FDA1D8"/>
<path d="M310.88 163.5V162.48L313.41 160.46C314.28 159.76 314.59 159.24 314.59 158.68C314.59 158.03 314.04 157.63 313.42 157.63C312.7 157.63 312.18 158 311.68 158.6L310.87 157.85C311.52 157 312.35 156.51 313.46 156.51C314.82 156.51 315.86 157.38 315.86 158.65C315.86 159.56 315.44 160.29 314.26 161.2L312.82 162.36H315.93V163.5H310.88ZM320.437 163.5V162.01H317.057L316.937 161.04L320.187 156.63H321.687V160.94H322.637V162.01H321.687V163.5H320.437ZM318.267 160.94H320.437V157.99L318.267 160.94ZM329.831 158.21C331.201 158.21 332.201 159.33 332.201 160.91C332.201 162.5 331.201 163.62 329.831 163.62C329.071 163.62 328.451 163.28 328.041 162.7V165.22H326.821V158.33H328.041V159.13C328.451 158.55 329.071 158.21 329.831 158.21ZM329.501 162.58C330.371 162.58 330.991 161.88 330.991 160.91C330.991 159.94 330.371 159.25 329.501 159.25C328.641 159.25 328.041 159.94 328.041 160.91C328.041 161.88 328.641 162.58 329.501 162.58ZM338.144 163.5H336.794L335.534 161.77L334.264 163.5H332.934L334.874 160.86L333.024 158.33H334.364L335.544 159.94L336.724 158.33H338.054L336.204 160.85L338.144 163.5Z" fill="#FDA1D8"/>
<path d="M311.88 307.5V306.48L314.41 304.46C315.28 303.76 315.59 303.24 315.59 302.68C315.59 302.03 315.04 301.63 314.42 301.63C313.7 301.63 313.18 302 312.68 302.6L311.87 301.85C312.52 301 313.35 300.51 314.46 300.51C315.82 300.51 316.86 301.38 316.86 302.65C316.86 303.56 316.44 304.29 315.26 305.2L313.82 306.36H316.93V307.5H311.88ZM321.437 307.5V306.01H318.057L317.937 305.04L321.187 300.63H322.687V304.94H323.637V306.01H322.687V307.5H321.437ZM319.267 304.94H321.437V301.99L319.267 304.94ZM330.831 302.21C332.201 302.21 333.201 303.33 333.201 304.91C333.201 306.5 332.201 307.62 330.831 307.62C330.071 307.62 329.451 307.28 329.041 306.7V309.22H327.821V302.33H329.041V303.13C329.451 302.55 330.071 302.21 330.831 302.21ZM330.501 306.58C331.371 306.58 331.991 305.88 331.991 304.91C331.991 303.94 331.371 303.25 330.501 303.25C329.641 303.25 329.041 303.94 329.041 304.91C329.041 305.88 329.641 306.58 330.501 306.58ZM339.144 307.5H337.794L336.534 305.77L335.264 307.5H333.934L335.874 304.86L334.024 302.33H335.364L336.544 303.94L337.724 302.33H339.054L337.204 304.85L339.144 307.5Z" fill="#FDA1D8"/>
<path d="M455.5 312.5H468.5V336.5H455.5" stroke="#FDA1D8"/>
<rect x="200" y="25" width="516" height="335" stroke="#4F6169"/>
</svg>
