<svg width="293" height="192" viewBox="0 0 293 192" fill="none" xmlns="http://www.w3.org/2000/svg">
<rect x="0.5" y="0.5" width="292" height="191" fill="#1B2B32"/>
<rect width="293" height="17" fill="#3A4D55"/>
<rect width="51" height="174" transform="translate(1 17)" fill="#22343C"/>
<line opacity="0.4" x1="63" y1="29" x2="94" y2="29" stroke="#ACB8BE" stroke-width="2" stroke-linecap="round"/>
<rect x="62.5" y="35.5" width="218" height="109" rx="1.5" fill="#1B2B32"/>
<rect x="62.5" y="95.5" width="218" height="12" fill="#1B2B32"/>
<line opacity="0.4" x1="70" y1="101" x2="89" y2="101" stroke="#ACB8BE" stroke-width="2" stroke-linecap="round"/>
<line opacity="0.4" x1="101" y1="101" x2="174" y2="101" stroke="#ACB8BE" stroke-width="2" stroke-linecap="round"/>
<line opacity="0.4" x1="188" y1="101" x2="197" y2="101" stroke="#ACB8BE" stroke-width="2" stroke-linecap="round"/>
<line opacity="0.4" x1="212" y1="101" x2="231" y2="101" stroke="#ACB8BE" stroke-width="2" stroke-linecap="round"/>
<line opacity="0.4" x1="245" y1="101" x2="272" y2="101" stroke="#ACB8BE" stroke-width="2" stroke-linecap="round"/>
<rect x="62.5" y="95.5" width="218" height="12" stroke="#E3EAED"/>
<rect x="62.5" y="71.5" width="218" height="12" fill="#1B2B32"/>
<line opacity="0.4" x1="70" y1="77" x2="89" y2="77" stroke="#ACB8BE" stroke-width="2" stroke-linecap="round"/>
<line opacity="0.4" x1="101" y1="77" x2="174" y2="77" stroke="#ACB8BE" stroke-width="2" stroke-linecap="round"/>
<line opacity="0.4" x1="188" y1="77" x2="197" y2="77" stroke="#ACB8BE" stroke-width="2" stroke-linecap="round"/>
<line opacity="0.4" x1="212" y1="77" x2="231" y2="77" stroke="#ACB8BE" stroke-width="2" stroke-linecap="round"/>
<line opacity="0.4" x1="245" y1="77" x2="272" y2="77" stroke="#ACB8BE" stroke-width="2" stroke-linecap="round"/>
<rect x="62.5" y="71.5" width="218" height="12" stroke="#CBD4D8"/>
<rect x="62.5" y="119.5" width="218" height="12" fill="#1B2B32"/>
<line opacity="0.4" x1="70" y1="125" x2="89" y2="125" stroke="#ACB8BE" stroke-width="2" stroke-linecap="round"/>
<line opacity="0.4" x1="101" y1="125" x2="174" y2="125" stroke="#ACB8BE" stroke-width="2" stroke-linecap="round"/>
<line opacity="0.4" x1="188" y1="125" x2="197" y2="125" stroke="#ACB8BE" stroke-width="2" stroke-linecap="round"/>
<line opacity="0.4" x1="212" y1="125" x2="231" y2="125" stroke="#ACB8BE" stroke-width="2" stroke-linecap="round"/>
<line opacity="0.4" x1="245" y1="125" x2="272" y2="125" stroke="#ACB8BE" stroke-width="2" stroke-linecap="round"/>
<rect x="62.5" y="119.5" width="218" height="12" stroke="#CBD4D8"/>
<rect x="62.5" y="59.5" width="218" height="12" fill="#1B2B32"/>
<line x1="70" y1="65" x2="89" y2="65" stroke="#ACB8BE" stroke-width="2" stroke-linecap="round"/>
<line x1="101" y1="65" x2="174" y2="65" stroke="#ACB8BE" stroke-width="2" stroke-linecap="round"/>
<line x1="188" y1="65" x2="197" y2="65" stroke="#ACB8BE" stroke-width="2" stroke-linecap="round"/>
<line x1="212" y1="65" x2="231" y2="65" stroke="#ACB8BE" stroke-width="2" stroke-linecap="round"/>
<line x1="245" y1="65" x2="272" y2="65" stroke="#ACB8BE" stroke-width="2" stroke-linecap="round"/>
<rect x="62.5" y="59.5" width="218" height="12" stroke="#2D4048"/>
<rect x="62.5" y="59.5" width="218" height="12" fill="#1B2B32"/>
<line opacity="0.4" x1="70" y1="65" x2="89" y2="65" stroke="#ACB8BE" stroke-width="2" stroke-linecap="round"/>
<line opacity="0.4" x1="101" y1="65" x2="174" y2="65" stroke="#ACB8BE" stroke-width="2" stroke-linecap="round"/>
<line opacity="0.4" x1="188" y1="65" x2="197" y2="65" stroke="#ACB8BE" stroke-width="2" stroke-linecap="round"/>
<line opacity="0.4" x1="212" y1="65" x2="231" y2="65" stroke="#ACB8BE" stroke-width="2" stroke-linecap="round"/>
<line opacity="0.4" x1="245" y1="65" x2="272" y2="65" stroke="#ACB8BE" stroke-width="2" stroke-linecap="round"/>
<rect x="62.5" y="59.5" width="218" height="12" stroke="#2D4048"/>
<rect x="62.5" y="47.5" width="218" height="12" fill="#1B2B32"/>
<line opacity="0.4" x1="70" y1="53" x2="89" y2="53" stroke="#ACB8BE" stroke-width="2" stroke-linecap="round"/>
<line opacity="0.4" x1="101" y1="53" x2="174" y2="53" stroke="#ACB8BE" stroke-width="2" stroke-linecap="round"/>
<line opacity="0.4" x1="188" y1="53" x2="197" y2="53" stroke="#ACB8BE" stroke-width="2" stroke-linecap="round"/>
<line opacity="0.4" x1="212" y1="53" x2="231" y2="53" stroke="#ACB8BE" stroke-width="2" stroke-linecap="round"/>
<line opacity="0.4" x1="245" y1="53" x2="272" y2="53" stroke="#ACB8BE" stroke-width="2" stroke-linecap="round"/>
<rect x="62.5" y="47.5" width="218" height="12" stroke="#2D4048"/>
<rect x="62.5" y="107.5" width="218" height="12" fill="#1B2B32"/>
<line opacity="0.4" x1="70" y1="113" x2="89" y2="113" stroke="#ACB8BE" stroke-width="2" stroke-linecap="round"/>
<line opacity="0.4" x1="101" y1="113" x2="174" y2="113" stroke="#ACB8BE" stroke-width="2" stroke-linecap="round"/>
<line opacity="0.4" x1="188" y1="113" x2="197" y2="113" stroke="#ACB8BE" stroke-width="2" stroke-linecap="round"/>
<line opacity="0.4" x1="212" y1="113" x2="231" y2="113" stroke="#ACB8BE" stroke-width="2" stroke-linecap="round"/>
<line opacity="0.4" x1="245" y1="113" x2="272" y2="113" stroke="#ACB8BE" stroke-width="2" stroke-linecap="round"/>
<rect x="62.5" y="107.5" width="218" height="12" stroke="#2D4048"/>
<rect x="62.5" y="83.5" width="218" height="12" fill="#1B2B32"/>
<line opacity="0.4" x1="70" y1="89" x2="89" y2="89" stroke="#ACB8BE" stroke-width="2" stroke-linecap="round"/>
<line opacity="0.4" x1="101" y1="89" x2="174" y2="89" stroke="#ACB8BE" stroke-width="2" stroke-linecap="round"/>
<line opacity="0.4" x1="188" y1="89" x2="197" y2="89" stroke="#ACB8BE" stroke-width="2" stroke-linecap="round"/>
<line opacity="0.4" x1="212" y1="89" x2="231" y2="89" stroke="#ACB8BE" stroke-width="2" stroke-linecap="round"/>
<line opacity="0.4" x1="245" y1="89" x2="272" y2="89" stroke="#ACB8BE" stroke-width="2" stroke-linecap="round"/>
<rect x="62.5" y="83.5" width="218" height="12" stroke="#2D4048"/>
<line opacity="0.4" x1="70" y1="42" x2="78" y2="42" stroke="#ACB8BE" stroke-width="2" stroke-linecap="round"/>
<line opacity="0.4" x1="101" y1="42" x2="130" y2="42" stroke="#ACB8BE" stroke-width="2" stroke-linecap="round"/>
<line opacity="0.4" x1="188" y1="42" x2="201" y2="42" stroke="#ACB8BE" stroke-width="2" stroke-linecap="round"/>
<line opacity="0.4" x1="212" y1="42" x2="221" y2="42" stroke="#ACB8BE" stroke-width="2" stroke-linecap="round"/>
<line opacity="0.4" x1="245" y1="42" x2="259" y2="42" stroke="#ACB8BE" stroke-width="2" stroke-linecap="round"/>
<line opacity="0.4" x1="70" y1="138" x2="84" y2="138" stroke="#ACB8BE" stroke-width="2" stroke-linecap="round"/>
<line opacity="0.4" x1="237" y1="138" x2="251" y2="138" stroke="#ACB8BE" stroke-width="2" stroke-linecap="round"/>
<line opacity="0.4" x1="258" y1="138" x2="272" y2="138" stroke="#ACB8BE" stroke-width="2" stroke-linecap="round"/>
<line x1="63" y1="47.5" x2="280" y2="47.5" stroke="#ACB8BE"/>
<rect x="62.5" y="35.5" width="218" height="109" rx="1.5" stroke="#ACB8BE"/>
<rect x="0.5" y="0.5" width="292" height="191" stroke="#4F6169"/>
</svg>
