<svg width="287" height="30" viewBox="0 0 287 30" fill="none" xmlns="http://www.w3.org/2000/svg">
<rect width="30" height="30" fill="#FFE6EC"/>
<rect x="38" width="30" height="30" fill="#FFE6EC"/>
<path d="M9.88004 12.9912L15 18.2889L20.12 12.9912C20.4097 12.6905 20.4007 12.2119 20.1 11.9223C19.7993 11.6326 19.3208 11.6416 19.0311 11.9423L15 16.1156L10.9645 11.9423C10.6748 11.6416 10.1963 11.6326 9.89559 11.9223C9.5949 12.2119 9.58595 12.6905 9.87559 12.9912H9.88004Z" fill="#1B2B32"/>
<mask id="mask0_10477_4509" style="mask-type:luminance" maskUnits="userSpaceOnUse" x="9" y="11" width="12" height="8">
<path d="M9.88004 12.9912L15 18.2889L20.12 12.9912C20.4097 12.6905 20.4007 12.2119 20.1 11.9223C19.7993 11.6326 19.3208 11.6416 19.0311 11.9423L15 16.1156L10.9645 11.9423C10.6748 11.6416 10.1963 11.6326 9.89559 11.9223C9.5949 12.2119 9.58595 12.6905 9.87559 12.9912H9.88004Z" fill="white"/>
</mask>
<g mask="url(#mask0_10477_4509)">
<rect x="23" y="23" width="16" height="16" transform="rotate(-180 23 23)" fill="#1B2B32"/>
</g>
<rect x="45" y="7" width="16" height="16" rx="4" fill="#0079AD"/>
<path d="M49.52 14.7351L52.732 17.5488L57.52 12.38" stroke="white" stroke-width="2" stroke-linecap="round"/>
<path d="M90.64 19.156C89.171 19.156 88.04 18.48 87.39 17.622L88.092 16.959C88.677 17.713 89.548 18.233 90.64 18.233C91.888 18.233 92.72 17.544 92.72 16.53C92.72 15.477 91.823 14.944 90.419 14.944H89.47V14.008L90.432 14.021C91.628 14.034 92.525 13.462 92.525 12.448C92.525 11.512 91.667 10.836 90.549 10.836C89.561 10.836 88.859 11.33 88.222 12.097L87.546 11.486C88.222 10.589 89.21 9.913 90.601 9.913C92.304 9.913 93.552 10.901 93.552 12.331C93.552 13.475 92.746 14.151 91.823 14.424C92.733 14.632 93.747 15.295 93.747 16.582C93.747 18.077 92.499 19.156 90.64 19.156ZM98.9644 19.156C96.7804 19.156 95.2464 17.245 95.2464 14.528C95.2464 11.824 96.7804 9.913 98.9644 9.913C101.135 9.913 102.669 11.824 102.669 14.528C102.669 17.245 101.135 19.156 98.9644 19.156ZM98.9644 18.22C100.537 18.22 101.642 16.686 101.642 14.528C101.642 12.37 100.537 10.849 98.9644 10.849C97.3914 10.849 96.2734 12.37 96.2734 14.528C96.2734 16.686 97.3914 18.22 98.9644 18.22ZM115.272 10.069L111.853 14.528L115.272 19H114.024L111.229 15.347L108.434 19H107.199L110.618 14.541L107.199 10.069H108.447L111.242 13.722L114.037 10.069H115.272ZM122.653 19.156C121.184 19.156 120.053 18.48 119.403 17.622L120.105 16.959C120.69 17.713 121.561 18.233 122.653 18.233C123.901 18.233 124.733 17.544 124.733 16.53C124.733 15.477 123.836 14.944 122.432 14.944H121.483V14.008L122.445 14.021C123.641 14.034 124.538 13.462 124.538 12.448C124.538 11.512 123.68 10.836 122.562 10.836C121.574 10.836 120.872 11.33 120.235 12.097L119.559 11.486C120.235 10.589 121.223 9.913 122.614 9.913C124.317 9.913 125.565 10.901 125.565 12.331C125.565 13.475 124.759 14.151 123.836 14.424C124.746 14.632 125.76 15.295 125.76 16.582C125.76 18.077 124.512 19.156 122.653 19.156ZM130.977 19.156C128.793 19.156 127.259 17.245 127.259 14.528C127.259 11.824 128.793 9.913 130.977 9.913C133.148 9.913 134.682 11.824 134.682 14.528C134.682 17.245 133.148 19.156 130.977 19.156ZM130.977 18.22C132.55 18.22 133.655 16.686 133.655 14.528C133.655 12.37 132.55 10.849 130.977 10.849C129.404 10.849 128.286 12.37 128.286 14.528C128.286 16.686 129.404 18.22 130.977 18.22ZM142.175 19V11.031H139.172V10.069H146.192V11.031H143.189V19H142.175ZM150.432 19.156C148.521 19.156 146.961 17.57 146.961 15.633C146.961 13.696 148.521 12.123 150.432 12.123C152.33 12.123 153.89 13.696 153.89 15.633C153.89 17.57 152.33 19.156 150.432 19.156ZM150.432 18.285C151.771 18.285 152.876 17.089 152.876 15.633C152.876 14.177 151.771 12.994 150.432 12.994C149.08 12.994 147.975 14.177 147.975 15.633C147.975 17.089 149.08 18.285 150.432 18.285ZM160.046 12.279H161.021V19H160.046V17.934C159.656 18.649 158.798 19.156 157.836 19.156C156.341 19.156 155.314 18.103 155.314 16.556V12.279H156.289V16.426C156.289 17.531 156.978 18.285 157.966 18.285C159.11 18.285 160.046 17.505 160.046 16.556V12.279ZM166.063 19.156C164.178 19.156 162.579 17.544 162.579 15.633C162.579 13.722 164.178 12.123 166.063 12.123C166.973 12.123 167.818 12.5 168.455 13.111L167.779 13.774C167.337 13.293 166.726 12.994 166.063 12.994C164.724 12.994 163.606 14.203 163.606 15.633C163.606 17.076 164.724 18.285 166.063 18.285C166.739 18.285 167.363 17.973 167.818 17.466L168.494 18.129C167.857 18.766 166.999 19.156 166.063 19.156ZM173.004 12.123C174.499 12.123 175.526 13.176 175.526 14.723V19H174.551V14.853C174.551 13.748 173.862 12.994 172.874 12.994C171.73 12.994 170.794 13.774 170.794 14.723V19H169.819V9.913H170.794V13.345C171.184 12.63 172.042 12.123 173.004 12.123ZM183.203 19V11.031H180.2V10.069H187.22V11.031H184.217V19H183.203ZM190.979 12.123C192.812 12.123 193.709 13.28 193.709 14.905V19H192.734V17.947C192.253 18.74 191.252 19.156 190.368 19.156C188.951 19.156 187.911 18.337 187.911 17.011C187.911 15.672 189.107 14.775 190.55 14.775C191.278 14.775 192.045 14.931 192.734 15.152V14.905C192.734 13.995 192.37 12.955 190.914 12.955C190.238 12.955 189.562 13.254 188.951 13.566L188.561 12.773C189.523 12.292 190.329 12.123 190.979 12.123ZM190.537 18.298C191.421 18.298 192.474 17.843 192.734 16.894V15.867C192.123 15.698 191.434 15.594 190.706 15.594C189.705 15.594 188.86 16.166 188.86 16.972C188.86 17.804 189.588 18.298 190.537 18.298ZM196.686 13.592C197.089 12.695 198.051 12.123 199.286 12.123V12.994C197.765 12.994 196.686 13.93 196.686 15.243V19H195.711V12.279H196.686V13.592ZM205.718 12.279H206.693V18.285C206.693 20.014 205.328 21.236 203.391 21.236C202.299 21.236 201.285 20.859 200.674 20.339L201.103 19.572C201.623 20.066 202.429 20.365 203.261 20.365C204.808 20.365 205.718 19.598 205.718 18.285V17.193C205.198 18.012 204.34 18.506 203.274 18.506C201.467 18.506 200.18 17.18 200.18 15.308C200.18 13.436 201.467 12.123 203.274 12.123C204.34 12.123 205.198 12.617 205.718 13.436V12.279ZM203.456 17.635C204.782 17.635 205.718 16.673 205.718 15.308C205.718 13.956 204.782 12.994 203.456 12.994C202.143 12.994 201.207 13.956 201.207 15.308C201.207 16.673 202.143 17.635 203.456 17.635ZM211.687 18.285C212.48 18.285 213.39 17.934 213.806 17.479L214.404 18.116C213.819 18.753 212.636 19.156 211.7 19.156C209.906 19.156 208.294 17.687 208.294 15.62C208.294 13.618 209.802 12.123 211.609 12.123C213.637 12.123 214.794 13.657 214.794 16.01H209.295C209.438 17.323 210.361 18.285 211.687 18.285ZM211.648 12.994C210.452 12.994 209.49 13.839 209.308 15.139H213.832C213.702 13.93 212.987 12.994 211.648 12.994ZM218.933 18.012L219.414 18.727C219.063 19 218.621 19.156 218.166 19.156C217.204 19.156 216.528 18.441 216.528 17.44V13.15H215.475V12.279H216.528V10.433H217.503V12.279H219.154V13.15H217.503V17.44C217.503 17.934 217.841 18.285 218.231 18.285C218.53 18.285 218.79 18.168 218.933 18.012ZM222.794 19.156C221.858 19.156 220.818 18.805 220.012 18.155L220.519 17.44C221.286 17.999 222.053 18.285 222.794 18.285C223.678 18.285 224.276 17.869 224.276 17.232C224.276 16.504 223.496 16.27 222.586 16.01C220.961 15.542 220.337 15.061 220.337 14.099C220.337 12.877 221.351 12.123 222.69 12.123C223.522 12.123 224.38 12.409 225.095 12.877L224.627 13.631C223.951 13.202 223.288 12.994 222.69 12.994C221.936 12.994 221.312 13.332 221.312 13.982C221.312 14.567 221.806 14.749 223.054 15.152C224.133 15.49 225.251 15.854 225.251 17.128C225.251 18.363 224.185 19.156 222.794 19.156Z" fill="#22343C"/>
</svg>
