<svg width="643" height="68" viewBox="0 0 643 68" fill="none" xmlns="http://www.w3.org/2000/svg">
<path d="M7.956 4.551H2.86V6.813H7.462V8.295H2.86V12H1.235V3.069H7.956V4.551ZM12.0468 5.123C13.8278 5.123 14.9198 6.254 14.9198 7.957V12H13.3728V11.207C12.8788 11.818 12.0468 12.156 11.2668 12.156C9.83677 12.156 8.77077 11.311 8.77077 10.011C8.77077 8.685 9.97977 7.775 11.5008 7.775C12.1118 7.775 12.7618 7.905 13.3728 8.126V7.957C13.3728 7.177 12.9568 6.423 11.7348 6.423C11.0978 6.423 10.4868 6.644 9.91477 6.93L9.36877 5.825C10.3178 5.357 11.2018 5.123 12.0468 5.123ZM11.6178 10.999C12.3848 10.999 13.2038 10.609 13.3728 9.894V9.127C12.8788 8.971 12.3198 8.88 11.7348 8.88C10.9418 8.88 10.2918 9.322 10.2918 9.959C10.2918 10.596 10.8638 10.999 11.6178 10.999ZM18.7111 12L15.8121 5.279H17.5021L19.4521 10.167L21.3631 5.279H23.0401L20.1931 12H18.7111ZM27.1795 12.156C25.1905 12.156 23.5655 10.57 23.5655 8.633C23.5655 6.696 25.1905 5.123 27.1795 5.123C29.1555 5.123 30.7675 6.696 30.7675 8.633C30.7675 10.57 29.1555 12.156 27.1795 12.156ZM27.1795 10.804C28.2975 10.804 29.2205 9.829 29.2205 8.633C29.2205 7.437 28.2975 6.475 27.1795 6.475C26.0485 6.475 25.1255 7.437 25.1255 8.633C25.1255 9.829 26.0485 10.804 27.1795 10.804ZM36.5819 5.279H38.1679V12H36.5819V11.09C36.1789 11.727 35.3989 12.156 34.5019 12.156C33.0199 12.156 31.9929 11.09 31.9929 9.556V5.279H33.5399V9.244C33.5399 10.167 34.1119 10.804 34.9439 10.804C35.8539 10.804 36.5819 10.167 36.5819 9.348V5.279ZM41.6326 6.553C42.0616 5.682 42.9456 5.123 44.0376 5.123V6.475C42.5946 6.475 41.6326 7.333 41.6326 8.607V12H40.0466V5.279H41.6326V6.553ZM46.1732 4.265C45.6662 4.265 45.2632 3.836 45.2632 3.355C45.2632 2.874 45.6662 2.458 46.1732 2.458C46.6672 2.458 47.0702 2.874 47.0702 3.355C47.0702 3.836 46.6672 4.265 46.1732 4.265ZM45.3802 12V5.279H46.9662V12H45.3802ZM51.9936 10.557L52.4486 11.623C52.0716 11.948 51.5256 12.156 51.0056 12.156C49.9006 12.156 49.1206 11.35 49.1206 10.219V6.592H48.1456V5.279H49.1206V3.433H50.6546V5.279H52.1756V6.592H50.6546V10.024C50.6546 10.479 50.9536 10.804 51.3306 10.804C51.6036 10.804 51.8506 10.7 51.9936 10.557ZM56.638 10.882C57.314 10.882 58.081 10.596 58.51 10.18L59.42 11.116C58.835 11.74 57.665 12.156 56.69 12.156C54.753 12.156 53.154 10.687 53.154 8.62C53.154 6.592 54.675 5.123 56.599 5.123C58.679 5.123 59.901 6.657 59.901 9.101H54.688C54.857 10.154 55.598 10.882 56.638 10.882ZM56.612 6.397C55.65 6.397 54.909 7.047 54.701 8.048H58.367C58.224 7.099 57.626 6.397 56.612 6.397ZM68.0116 12.143C66.4906 12.143 65.1776 11.623 64.1896 10.7L65.1386 9.543C65.9576 10.284 66.9066 10.752 68.0766 10.752C69.1686 10.752 69.7406 10.206 69.7406 9.569C69.7406 8.828 69.1036 8.581 67.6736 8.243C65.8276 7.814 64.5536 7.281 64.5536 5.604C64.5536 4.044 65.8796 2.913 67.7516 2.913C69.1686 2.913 70.2476 3.394 71.1316 4.161L70.2476 5.344C69.4806 4.681 68.5836 4.304 67.6996 4.304C66.7896 4.304 66.1916 4.837 66.1916 5.461C66.1916 6.189 66.8416 6.449 68.2586 6.774C70.1176 7.19 71.3656 7.788 71.3656 9.413C71.3656 11.012 70.1566 12.143 68.0116 12.143ZM76.0067 10.557L76.4617 11.623C76.0847 11.948 75.5387 12.156 75.0187 12.156C73.9137 12.156 73.1337 11.35 73.1337 10.219V6.592H72.1587V5.279H73.1337V3.433H74.6677V5.279H76.1887V6.592H74.6677V10.024C74.6677 10.479 74.9667 10.804 75.3437 10.804C75.6167 10.804 75.8637 10.7 76.0067 10.557ZM80.3521 5.123C82.1331 5.123 83.2251 6.254 83.2251 7.957V12H81.6781V11.207C81.184 11.818 80.3521 12.156 79.572 12.156C78.142 12.156 77.076 11.311 77.076 10.011C77.076 8.685 78.285 7.775 79.8061 7.775C80.4171 7.775 81.0671 7.905 81.6781 8.126V7.957C81.6781 7.177 81.2621 6.423 80.04 6.423C79.4031 6.423 78.792 6.644 78.22 6.93L77.6741 5.825C78.6231 5.357 79.5071 5.123 80.3521 5.123ZM79.923 10.999C80.6901 10.999 81.5091 10.609 81.6781 9.894V9.127C81.184 8.971 80.6251 8.88 80.04 8.88C79.2471 8.88 78.597 9.322 78.597 9.959C78.597 10.596 79.169 10.999 79.923 10.999ZM88.1084 10.557L88.5634 11.623C88.1864 11.948 87.6404 12.156 87.1204 12.156C86.0154 12.156 85.2354 11.35 85.2354 10.219V6.592H84.2604V5.279H85.2354V3.433H86.7694V5.279H88.2904V6.592H86.7694V10.024C86.7694 10.479 87.0684 10.804 87.4454 10.804C87.7184 10.804 87.9654 10.7 88.1084 10.557ZM92.7528 10.882C93.4288 10.882 94.1958 10.596 94.6248 10.18L95.5348 11.116C94.9498 11.74 93.7798 12.156 92.8048 12.156C90.8678 12.156 89.2688 10.687 89.2688 8.62C89.2688 6.592 90.7898 5.123 92.7138 5.123C94.7938 5.123 96.0158 6.657 96.0158 9.101H90.8028C90.9718 10.154 91.7128 10.882 92.7528 10.882ZM92.7268 6.397C91.7648 6.397 91.0238 7.047 90.8158 8.048H94.4818C94.3388 7.099 93.7408 6.397 92.7268 6.397ZM99.6578 12.156C98.6308 12.156 97.5258 11.792 96.7068 11.155L97.3828 10.115C98.1108 10.635 98.9558 10.934 99.6838 10.934C100.399 10.934 100.828 10.635 100.828 10.167C100.828 9.634 100.204 9.452 99.4108 9.244C97.9418 8.854 97.0188 8.451 97.0188 7.229C97.0188 5.981 98.0588 5.123 99.5538 5.123C100.477 5.123 101.387 5.448 102.128 5.929L101.504 6.995C100.88 6.592 100.178 6.332 99.5538 6.332C98.9688 6.332 98.5008 6.605 98.5008 7.073C98.5008 7.515 98.9168 7.632 99.9308 7.944C101.075 8.256 102.297 8.633 102.297 10.024C102.297 11.324 101.218 12.156 99.6578 12.156Z" fill="#22343C"/>
<mask id="mask0_9328_49795" style="mask-type:alpha" maskUnits="userSpaceOnUse" x="0" y="24" width="643" height="24">
<path d="M4 24.5H639C640.933 24.5 642.5 26.067 642.5 28V44C642.5 45.933 640.933 47.5 639 47.5H3.99999C2.06699 47.5 0.5 45.933 0.5 44V28C0.5 26.067 2.067 24.5 4 24.5Z" fill="#F1F6F8" stroke="#CBD4D8"/>
</mask>
<g mask="url(#mask0_9328_49795)">
<path d="M4 24.5H639C640.933 24.5 642.5 26.067 642.5 28V44C642.5 45.933 640.933 47.5 639 47.5H3.99999C2.06699 47.5 0.5 45.933 0.5 44V28C0.5 26.067 2.067 24.5 4 24.5Z" fill="#EBF9FF"/>
<path d="M12 28.5H81C82.933 28.5 84.5 30.067 84.5 32V40C84.5 41.933 82.933 43.5 81 43.5H12C10.067 43.5 8.5 41.933 8.5 40V32C8.5 30.067 10.067 28.5 12 28.5Z" fill="white"/>
<path d="M18.488 39.132C16.398 39.132 14.616 37.339 14.616 35.216C14.616 33.093 16.398 31.311 18.488 31.311C20.589 31.311 22.349 33.093 22.349 35.216C22.349 37.339 20.589 39.132 18.488 39.132ZM18.488 38.34C20.116 38.34 21.48 36.91 21.48 35.216C21.48 33.533 20.116 32.103 18.488 32.103C16.86 32.103 15.485 33.533 15.485 35.216C15.485 36.91 16.86 38.34 18.488 38.34ZM27.0305 33.181C28.5265 33.181 29.6485 34.413 29.6485 36.151C29.6485 37.9 28.5265 39.132 27.0305 39.132C26.1175 39.132 25.3915 38.681 24.9625 37.933V40.892H24.1375V33.313H24.9625V34.38C25.3915 33.632 26.1175 33.181 27.0305 33.181ZM26.8765 38.395C27.9875 38.395 28.7795 37.46 28.7795 36.151C28.7795 34.842 27.9875 33.918 26.8765 33.918C25.7545 33.918 24.9625 34.842 24.9625 36.151C24.9625 37.46 25.7545 38.395 26.8765 38.395ZM33.5199 38.164L33.9269 38.769C33.6299 39 33.2559 39.132 32.8709 39.132C32.0569 39.132 31.4849 38.527 31.4849 37.68V34.05H30.5939V33.313H31.4849V31.751H32.3099V33.313H33.7069V34.05H32.3099V37.68C32.3099 38.098 32.5959 38.395 32.9259 38.395C33.1789 38.395 33.3989 38.296 33.5199 38.164ZM35.7299 32.279C35.4219 32.279 35.1799 32.026 35.1799 31.729C35.1799 31.443 35.4219 31.19 35.7299 31.19C36.0269 31.19 36.2689 31.443 36.2689 31.729C36.2689 32.026 36.0269 32.279 35.7299 32.279ZM35.3119 39V33.313H36.1369V39H35.3119ZM40.6931 39.132C39.0761 39.132 37.7561 37.79 37.7561 36.151C37.7561 34.512 39.0761 33.181 40.6931 33.181C42.2991 33.181 43.6191 34.512 43.6191 36.151C43.6191 37.79 42.2991 39.132 40.6931 39.132ZM40.6931 38.395C41.8261 38.395 42.7611 37.383 42.7611 36.151C42.7611 34.919 41.8261 33.918 40.6931 33.918C39.5491 33.918 38.6141 34.919 38.6141 36.151C38.6141 37.383 39.5491 38.395 40.6931 38.395ZM47.9352 33.181C49.2002 33.181 50.0692 34.072 50.0692 35.381V39H49.2442V35.491C49.2442 34.556 48.6612 33.918 47.8252 33.918C46.8572 33.918 46.0652 34.578 46.0652 35.381V39H45.2402V33.313H46.0652V34.215C46.3952 33.61 47.1212 33.181 47.9352 33.181ZM56.2329 39V32.488L54.9129 33.346L54.5389 32.708L56.3979 31.443H57.0909V39H56.2329Z" fill="#22343C"/>
<path d="M73.47 36L76.2334 33.2366C76.3466 33.1044 76.339 32.9072 76.2159 32.7841C76.0928 32.661 75.8956 32.6534 75.7634 32.7666L73 35.53L70.2367 32.7633C70.106 32.6326 69.8941 32.6326 69.7634 32.7633C69.6327 32.894 69.6327 33.1059 69.7634 33.2366L72.53 36L69.7634 38.7633C69.6683 38.8448 69.6268 38.9727 69.6561 39.0945C69.6854 39.2162 69.7805 39.3113 69.9022 39.3406C70.024 39.3699 70.1519 39.3284 70.2334 39.2333L73 36.47L75.7634 39.2333C75.8956 39.3466 76.0928 39.339 76.2159 39.2158C76.339 39.0927 76.3466 38.8956 76.2334 38.7633L73.47 36Z" fill="#3A4D55"/>
<path d="M12 28.5H81C82.933 28.5 84.5 30.067 84.5 32V40C84.5 41.933 82.933 43.5 81 43.5H12C10.067 43.5 8.5 41.933 8.5 40V32C8.5 30.067 10.067 28.5 12 28.5Z" stroke="#CBD4D8"/>
<path d="M93 28.5H164C165.933 28.5 167.5 30.067 167.5 32V40C167.5 41.933 165.933 43.5 164 43.5H93C91.067 43.5 89.5 41.933 89.5 40V32C89.5 30.067 91.067 28.5 93 28.5Z" fill="white"/>
<path d="M99.488 39.132C97.398 39.132 95.616 37.339 95.616 35.216C95.616 33.093 97.398 31.311 99.488 31.311C101.589 31.311 103.349 33.093 103.349 35.216C103.349 37.339 101.589 39.132 99.488 39.132ZM99.488 38.34C101.116 38.34 102.48 36.91 102.48 35.216C102.48 33.533 101.116 32.103 99.488 32.103C97.86 32.103 96.485 33.533 96.485 35.216C96.485 36.91 97.86 38.34 99.488 38.34ZM108.03 33.181C109.526 33.181 110.648 34.413 110.648 36.151C110.648 37.9 109.526 39.132 108.03 39.132C107.117 39.132 106.391 38.681 105.962 37.933V40.892H105.137V33.313H105.962V34.38C106.391 33.632 107.117 33.181 108.03 33.181ZM107.876 38.395C108.987 38.395 109.779 37.46 109.779 36.151C109.779 34.842 108.987 33.918 107.876 33.918C106.754 33.918 105.962 34.842 105.962 36.151C105.962 37.46 106.754 38.395 107.876 38.395ZM114.52 38.164L114.927 38.769C114.63 39 114.256 39.132 113.871 39.132C113.057 39.132 112.485 38.527 112.485 37.68V34.05H111.594V33.313H112.485V31.751H113.31V33.313H114.707V34.05H113.31V37.68C113.31 38.098 113.596 38.395 113.926 38.395C114.179 38.395 114.399 38.296 114.52 38.164ZM116.73 32.279C116.422 32.279 116.18 32.026 116.18 31.729C116.18 31.443 116.422 31.19 116.73 31.19C117.027 31.19 117.269 31.443 117.269 31.729C117.269 32.026 117.027 32.279 116.73 32.279ZM116.312 39V33.313H117.137V39H116.312ZM121.693 39.132C120.076 39.132 118.756 37.79 118.756 36.151C118.756 34.512 120.076 33.181 121.693 33.181C123.299 33.181 124.619 34.512 124.619 36.151C124.619 37.79 123.299 39.132 121.693 39.132ZM121.693 38.395C122.826 38.395 123.761 37.383 123.761 36.151C123.761 34.919 122.826 33.918 121.693 33.918C120.549 33.918 119.614 34.919 119.614 36.151C119.614 37.383 120.549 38.395 121.693 38.395ZM128.935 33.181C130.2 33.181 131.069 34.072 131.069 35.381V39H130.244V35.491C130.244 34.556 129.661 33.918 128.825 33.918C127.857 33.918 127.065 34.578 127.065 35.381V39H126.24V33.313H127.065V34.215C127.395 33.61 128.121 33.181 128.935 33.181ZM135.693 39V38.285L138.454 35.931C139.521 35.018 139.961 34.292 139.961 33.544C139.961 32.62 139.191 32.081 138.388 32.081C137.508 32.081 136.881 32.554 136.364 33.258L135.759 32.763C136.386 31.872 137.233 31.311 138.421 31.311C139.73 31.311 140.83 32.18 140.83 33.533C140.83 34.556 140.324 35.37 139.048 36.47L137.068 38.186H140.907V39H135.693Z" fill="#22343C"/>
<path d="M156.47 36L159.233 33.2366C159.347 33.1044 159.339 32.9072 159.216 32.7841C159.093 32.661 158.896 32.6534 158.763 32.7666L156 35.53L153.237 32.7633C153.106 32.6326 152.894 32.6326 152.763 32.7633C152.633 32.894 152.633 33.1059 152.763 33.2366L155.53 36L152.763 38.7633C152.668 38.8448 152.627 38.9727 152.656 39.0945C152.685 39.2162 152.78 39.3113 152.902 39.3406C153.024 39.3699 153.152 39.3284 153.233 39.2333L156 36.47L158.763 39.2333C158.896 39.3466 159.093 39.339 159.216 39.2158C159.339 39.0927 159.347 38.8956 159.233 38.7633L156.47 36Z" fill="#3A4D55"/>
<path d="M93 28.5H164C165.933 28.5 167.5 30.067 167.5 32V40C167.5 41.933 165.933 43.5 164 43.5H93C91.067 43.5 89.5 41.933 89.5 40V32C89.5 30.067 91.067 28.5 93 28.5Z" stroke="#CBD4D8"/>
<path d="M632.12 33.9915L627 39.2893L621.88 33.9915C621.59 33.6908 621.599 33.2123 621.9 32.9226C622.201 32.633 622.679 32.642 622.969 32.9426L627 37.116L631.036 32.9426C631.325 32.642 631.804 32.633 632.104 32.9226C632.405 33.2123 632.414 33.6908 632.124 33.9915H632.12Z" fill="#3A4D55"/>
<line y1="47" x2="643" y2="47" stroke="#0079AD" stroke-width="2"/>
<path d="M4 24.5H639C640.933 24.5 642.5 26.067 642.5 28V44C642.5 45.933 640.933 47.5 639 47.5H3.99999C2.06699 47.5 0.5 45.933 0.5 44V28C0.5 26.067 2.067 24.5 4 24.5Z" stroke="#CBD4D8"/>
</g>
<path d="M6.512 55.443H7.37V63H6.512V59.557H2.057V63H1.199V55.443H2.057V58.743H6.512V55.443ZM12.1273 62.395C12.7983 62.395 13.5683 62.098 13.9203 61.713L14.4263 62.252C13.9313 62.791 12.9303 63.132 12.1383 63.132C10.6203 63.132 9.25627 61.889 9.25627 60.14C9.25627 58.446 10.5323 57.181 12.0613 57.181C13.7773 57.181 14.7563 58.479 14.7563 60.47H10.1033C10.2243 61.581 11.0053 62.395 12.1273 62.395ZM12.0943 57.918C11.0823 57.918 10.2683 58.633 10.1143 59.733H13.9423C13.8323 58.71 13.2273 57.918 12.0943 57.918ZM16.3424 63V55.311H17.1674V63H16.3424ZM22.1746 57.181C23.6706 57.181 24.7926 58.413 24.7926 60.151C24.7926 61.9 23.6706 63.132 22.1746 63.132C21.2616 63.132 20.5356 62.681 20.1066 61.933V64.892H19.2816V57.313H20.1066V58.38C20.5356 57.632 21.2616 57.181 22.1746 57.181ZM22.0206 62.395C23.1316 62.395 23.9236 61.46 23.9236 60.151C23.9236 58.842 23.1316 57.918 22.0206 57.918C20.8986 57.918 20.1066 58.842 20.1066 60.151C20.1066 61.46 20.8986 62.395 22.0206 62.395ZM28.862 62.395C29.533 62.395 30.303 62.098 30.655 61.713L31.161 62.252C30.666 62.791 29.665 63.132 28.873 63.132C27.355 63.132 25.991 61.889 25.991 60.14C25.991 58.446 27.267 57.181 28.796 57.181C30.512 57.181 31.491 58.479 31.491 60.47H26.838C26.959 61.581 27.74 62.395 28.862 62.395ZM28.829 57.918C27.817 57.918 27.003 58.633 26.849 59.733H30.677C30.567 58.71 29.962 57.918 28.829 57.918ZM33.9021 58.424C34.2431 57.665 35.0571 57.181 36.1021 57.181V57.918C34.8151 57.918 33.9021 58.71 33.9021 59.821V63H33.0771V57.313H33.9021V58.424ZM41.1097 63V55.443H41.9677L44.7727 60.712L47.5777 55.443H48.4357V63H47.5777V57.291L44.7727 62.56L41.9677 57.291V63H41.1097ZM53.1874 62.395C53.8584 62.395 54.6284 62.098 54.9804 61.713L55.4864 62.252C54.9914 62.791 53.9904 63.132 53.1984 63.132C51.6804 63.132 50.3164 61.889 50.3164 60.14C50.3164 58.446 51.5924 57.181 53.1214 57.181C54.8374 57.181 55.8164 58.479 55.8164 60.47H51.1634C51.2844 61.581 52.0654 62.395 53.1874 62.395ZM53.1544 57.918C52.1424 57.918 51.3284 58.633 51.1744 59.733H55.0024C54.8924 58.71 54.2874 57.918 53.1544 57.918ZM59.1625 63.132C58.3705 63.132 57.4905 62.835 56.8085 62.285L57.2375 61.68C57.8865 62.153 58.5355 62.395 59.1625 62.395C59.9105 62.395 60.4165 62.043 60.4165 61.504C60.4165 60.888 59.7565 60.69 58.9865 60.47C57.6115 60.074 57.0835 59.667 57.0835 58.853C57.0835 57.819 57.9415 57.181 59.0745 57.181C59.7785 57.181 60.5045 57.423 61.1095 57.819L60.7135 58.457C60.1415 58.094 59.5805 57.918 59.0745 57.918C58.4365 57.918 57.9085 58.204 57.9085 58.754C57.9085 59.249 58.3265 59.403 59.3825 59.744C60.2955 60.03 61.2415 60.338 61.2415 61.416C61.2415 62.461 60.3395 63.132 59.1625 63.132ZM64.6154 63.132C63.8234 63.132 62.9434 62.835 62.2614 62.285L62.6904 61.68C63.3394 62.153 63.9884 62.395 64.6154 62.395C65.3634 62.395 65.8694 62.043 65.8694 61.504C65.8694 60.888 65.2094 60.69 64.4394 60.47C63.0644 60.074 62.5364 59.667 62.5364 58.853C62.5364 57.819 63.3944 57.181 64.5274 57.181C65.2314 57.181 65.9574 57.423 66.5624 57.819L66.1664 58.457C65.5944 58.094 65.0334 57.918 64.5274 57.918C63.8894 57.918 63.3614 58.204 63.3614 58.754C63.3614 59.249 63.7794 59.403 64.8354 59.744C65.7484 60.03 66.6944 60.338 66.6944 61.416C66.6944 62.461 65.7924 63.132 64.6154 63.132ZM70.3434 57.181C71.8944 57.181 72.6534 58.16 72.6534 59.535V63H71.8284V62.109C71.4214 62.78 70.5744 63.132 69.8264 63.132C68.6274 63.132 67.7474 62.439 67.7474 61.317C67.7474 60.184 68.7594 59.425 69.9804 59.425C70.5964 59.425 71.2454 59.557 71.8284 59.744V59.535C71.8284 58.765 71.5204 57.885 70.2884 57.885C69.7164 57.885 69.1444 58.138 68.6274 58.402L68.2974 57.731C69.1114 57.324 69.7934 57.181 70.3434 57.181ZM69.9694 62.406C70.7174 62.406 71.6084 62.021 71.8284 61.218V60.349C71.3114 60.206 70.7284 60.118 70.1124 60.118C69.2654 60.118 68.5504 60.602 68.5504 61.284C68.5504 61.988 69.1664 62.406 69.9694 62.406ZM78.8224 57.313H79.6474V62.395C79.6474 63.858 78.4924 64.892 76.8534 64.892C75.9294 64.892 75.0714 64.573 74.5544 64.133L74.9174 63.484C75.3574 63.902 76.0394 64.155 76.7434 64.155C78.0524 64.155 78.8224 63.506 78.8224 62.395V61.471C78.3824 62.164 77.6564 62.582 76.7544 62.582C75.2254 62.582 74.1364 61.46 74.1364 59.876C74.1364 58.292 75.2254 57.181 76.7544 57.181C77.6564 57.181 78.3824 57.599 78.8224 58.292V57.313ZM76.9084 61.845C78.0304 61.845 78.8224 61.031 78.8224 59.876C78.8224 58.732 78.0304 57.918 76.9084 57.918C75.7974 57.918 75.0054 58.732 75.0054 59.876C75.0054 61.031 75.7974 61.845 76.9084 61.845ZM84.1581 62.395C84.8291 62.395 85.5991 62.098 85.9511 61.713L86.4571 62.252C85.9621 62.791 84.9611 63.132 84.1691 63.132C82.6511 63.132 81.2871 61.889 81.2871 60.14C81.2871 58.446 82.5631 57.181 84.0921 57.181C85.8081 57.181 86.7871 58.479 86.7871 60.47H82.1341C82.2551 61.581 83.0361 62.395 84.1581 62.395ZM84.1251 57.918C83.1131 57.918 82.2991 58.633 82.1451 59.733H85.9731C85.8631 58.71 85.2581 57.918 84.1251 57.918ZM89.2092 63.132C88.8682 63.132 88.6042 62.857 88.6042 62.527C88.6042 62.219 88.8682 61.944 89.2092 61.944C89.5282 61.944 89.7922 62.219 89.7922 62.527C89.7922 62.857 89.5282 63.132 89.2092 63.132ZM101.034 56.257H96.4799V58.743H100.583V59.557H96.4799V62.186H101.034V63H95.6109V55.443H101.034V56.257ZM103.634 58.424C103.975 57.665 104.789 57.181 105.834 57.181V57.918C104.547 57.918 103.634 58.71 103.634 59.821V63H102.809V57.313H103.634V58.424ZM108.195 58.424C108.536 57.665 109.35 57.181 110.395 57.181V57.918C109.108 57.918 108.195 58.71 108.195 59.821V63H107.37V57.313H108.195V58.424ZM114.374 63.132C112.757 63.132 111.437 61.79 111.437 60.151C111.437 58.512 112.757 57.181 114.374 57.181C115.98 57.181 117.3 58.512 117.3 60.151C117.3 61.79 115.98 63.132 114.374 63.132ZM114.374 62.395C115.507 62.395 116.442 61.383 116.442 60.151C116.442 58.919 115.507 57.918 114.374 57.918C113.23 57.918 112.295 58.919 112.295 60.151C112.295 61.383 113.23 62.395 114.374 62.395ZM119.746 58.424C120.087 57.665 120.901 57.181 121.946 57.181V57.918C120.659 57.918 119.746 58.71 119.746 59.821V63H118.921V57.313H119.746V58.424ZM129.153 63.132C127.536 63.132 126.216 61.79 126.216 60.151C126.216 58.512 127.536 57.181 129.153 57.181C130.759 57.181 132.079 58.512 132.079 60.151C132.079 61.79 130.759 63.132 129.153 63.132ZM129.153 62.395C130.286 62.395 131.221 61.383 131.221 60.151C131.221 58.919 130.286 57.918 129.153 57.918C128.009 57.918 127.074 58.919 127.074 60.151C127.074 61.383 128.009 62.395 129.153 62.395ZM134.526 58.424C134.867 57.665 135.681 57.181 136.726 57.181V57.918C135.439 57.918 134.526 58.71 134.526 59.821V63H133.701V57.313H134.526V58.424ZM144.021 63.121C142.778 63.121 141.799 62.67 141.04 61.922L141.579 61.251C142.217 61.889 142.998 62.34 144.054 62.34C145.22 62.34 145.814 61.702 145.814 61.02C145.814 60.217 145.099 59.898 143.779 59.59C142.261 59.238 141.304 58.765 141.304 57.456C141.304 56.246 142.382 55.311 143.834 55.311C144.956 55.311 145.792 55.751 146.485 56.389L145.957 57.06C145.33 56.455 144.582 56.092 143.79 56.092C142.855 56.092 142.173 56.697 142.173 57.39C142.173 58.171 142.921 58.446 144.208 58.754C145.649 59.095 146.683 59.612 146.683 60.943C146.683 62.142 145.781 63.121 144.021 63.121ZM152.299 57.313H153.124V63H152.299V62.098C151.969 62.703 151.243 63.132 150.429 63.132C149.164 63.132 148.295 62.241 148.295 60.932V57.313H149.12V60.822C149.12 61.757 149.703 62.395 150.539 62.395C151.507 62.395 152.299 61.735 152.299 60.932V57.313ZM157.675 63.132C156.08 63.132 154.727 61.768 154.727 60.151C154.727 58.534 156.08 57.181 157.675 57.181C158.445 57.181 159.16 57.5 159.699 58.017L159.127 58.578C158.753 58.171 158.236 57.918 157.675 57.918C156.542 57.918 155.596 58.941 155.596 60.151C155.596 61.372 156.542 62.395 157.675 62.395C158.247 62.395 158.775 62.131 159.16 61.702L159.732 62.263C159.193 62.802 158.467 63.132 157.675 63.132ZM163.579 63.132C161.984 63.132 160.631 61.768 160.631 60.151C160.631 58.534 161.984 57.181 163.579 57.181C164.349 57.181 165.064 57.5 165.603 58.017L165.031 58.578C164.657 58.171 164.14 57.918 163.579 57.918C162.446 57.918 161.5 58.941 161.5 60.151C161.5 61.372 162.446 62.395 163.579 62.395C164.151 62.395 164.679 62.131 165.064 61.702L165.636 62.263C165.097 62.802 164.371 63.132 163.579 63.132ZM169.439 62.395C170.11 62.395 170.88 62.098 171.232 61.713L171.738 62.252C171.243 62.791 170.242 63.132 169.45 63.132C167.932 63.132 166.568 61.889 166.568 60.14C166.568 58.446 167.844 57.181 169.373 57.181C171.089 57.181 172.068 58.479 172.068 60.47H167.415C167.536 61.581 168.317 62.395 169.439 62.395ZM169.406 57.918C168.394 57.918 167.58 58.633 167.426 59.733H171.254C171.144 58.71 170.539 57.918 169.406 57.918ZM175.414 63.132C174.622 63.132 173.742 62.835 173.06 62.285L173.489 61.68C174.138 62.153 174.787 62.395 175.414 62.395C176.162 62.395 176.668 62.043 176.668 61.504C176.668 60.888 176.008 60.69 175.238 60.47C173.863 60.074 173.335 59.667 173.335 58.853C173.335 57.819 174.193 57.181 175.326 57.181C176.03 57.181 176.756 57.423 177.361 57.819L176.965 58.457C176.393 58.094 175.832 57.918 175.326 57.918C174.688 57.918 174.16 58.204 174.16 58.754C174.16 59.249 174.578 59.403 175.634 59.744C176.547 60.03 177.493 60.338 177.493 61.416C177.493 62.461 176.591 63.132 175.414 63.132ZM180.867 63.132C180.075 63.132 179.195 62.835 178.513 62.285L178.942 61.68C179.591 62.153 180.24 62.395 180.867 62.395C181.615 62.395 182.121 62.043 182.121 61.504C182.121 60.888 181.461 60.69 180.691 60.47C179.316 60.074 178.788 59.667 178.788 58.853C178.788 57.819 179.646 57.181 180.779 57.181C181.483 57.181 182.209 57.423 182.814 57.819L182.418 58.457C181.846 58.094 181.285 57.918 180.779 57.918C180.141 57.918 179.613 58.204 179.613 58.754C179.613 59.249 180.031 59.403 181.087 59.744C182 60.03 182.946 60.338 182.946 61.416C182.946 62.461 182.044 63.132 180.867 63.132ZM193.938 57.181C195.126 57.181 195.962 58.094 195.962 59.381V63H195.137V59.491C195.137 58.567 194.598 57.918 193.828 57.918C192.926 57.918 192.288 58.523 192.288 59.381V63H191.463V59.491C191.463 58.567 190.924 57.918 190.154 57.918C189.252 57.918 188.614 58.523 188.614 59.381V63H187.789V57.313H188.614V58.149C188.9 57.555 189.516 57.181 190.264 57.181C191.166 57.181 191.87 57.709 192.156 58.534C192.332 57.731 193.036 57.181 193.938 57.181ZM200.345 62.395C201.016 62.395 201.786 62.098 202.138 61.713L202.644 62.252C202.149 62.791 201.148 63.132 200.356 63.132C198.838 63.132 197.474 61.889 197.474 60.14C197.474 58.446 198.75 57.181 200.279 57.181C201.995 57.181 202.974 58.479 202.974 60.47H198.321C198.442 61.581 199.223 62.395 200.345 62.395ZM200.312 57.918C199.3 57.918 198.486 58.633 198.332 59.733H202.16C202.05 58.71 201.445 57.918 200.312 57.918ZM206.321 63.132C205.529 63.132 204.649 62.835 203.967 62.285L204.396 61.68C205.045 62.153 205.694 62.395 206.321 62.395C207.069 62.395 207.575 62.043 207.575 61.504C207.575 60.888 206.915 60.69 206.145 60.47C204.77 60.074 204.242 59.667 204.242 58.853C204.242 57.819 205.1 57.181 206.233 57.181C206.937 57.181 207.663 57.423 208.268 57.819L207.872 58.457C207.3 58.094 206.739 57.918 206.233 57.918C205.595 57.918 205.067 58.204 205.067 58.754C205.067 59.249 205.485 59.403 206.541 59.744C207.454 60.03 208.4 60.338 208.4 61.416C208.4 62.461 207.498 63.132 206.321 63.132ZM211.773 63.132C210.981 63.132 210.101 62.835 209.419 62.285L209.848 61.68C210.497 62.153 211.146 62.395 211.773 62.395C212.521 62.395 213.027 62.043 213.027 61.504C213.027 60.888 212.367 60.69 211.597 60.47C210.222 60.074 209.694 59.667 209.694 58.853C209.694 57.819 210.552 57.181 211.685 57.181C212.389 57.181 213.115 57.423 213.72 57.819L213.324 58.457C212.752 58.094 212.191 57.918 211.685 57.918C211.047 57.918 210.519 58.204 210.519 58.754C210.519 59.249 210.937 59.403 211.993 59.744C212.906 60.03 213.852 60.338 213.852 61.416C213.852 62.461 212.95 63.132 211.773 63.132ZM217.501 57.181C219.052 57.181 219.811 58.16 219.811 59.535V63H218.986V62.109C218.579 62.78 217.732 63.132 216.984 63.132C215.785 63.132 214.905 62.439 214.905 61.317C214.905 60.184 215.917 59.425 217.138 59.425C217.754 59.425 218.403 59.557 218.986 59.744V59.535C218.986 58.765 218.678 57.885 217.446 57.885C216.874 57.885 216.302 58.138 215.785 58.402L215.455 57.731C216.269 57.324 216.951 57.181 217.501 57.181ZM217.127 62.406C217.875 62.406 218.766 62.021 218.986 61.218V60.349C218.469 60.206 217.886 60.118 217.27 60.118C216.423 60.118 215.708 60.602 215.708 61.284C215.708 61.988 216.324 62.406 217.127 62.406ZM225.98 57.313H226.805V62.395C226.805 63.858 225.65 64.892 224.011 64.892C223.087 64.892 222.229 64.573 221.712 64.133L222.075 63.484C222.515 63.902 223.197 64.155 223.901 64.155C225.21 64.155 225.98 63.506 225.98 62.395V61.471C225.54 62.164 224.814 62.582 223.912 62.582C222.383 62.582 221.294 61.46 221.294 59.876C221.294 58.292 222.383 57.181 223.912 57.181C224.814 57.181 225.54 57.599 225.98 58.292V57.313ZM224.066 61.845C225.188 61.845 225.98 61.031 225.98 59.876C225.98 58.732 225.188 57.918 224.066 57.918C222.955 57.918 222.163 58.732 222.163 59.876C222.163 61.031 222.955 61.845 224.066 61.845ZM231.316 62.395C231.987 62.395 232.757 62.098 233.109 61.713L233.615 62.252C233.12 62.791 232.119 63.132 231.327 63.132C229.809 63.132 228.445 61.889 228.445 60.14C228.445 58.446 229.721 57.181 231.25 57.181C232.966 57.181 233.945 58.479 233.945 60.47H229.292C229.413 61.581 230.194 62.395 231.316 62.395ZM231.283 57.918C230.271 57.918 229.457 58.633 229.303 59.733H233.131C233.021 58.71 232.416 57.918 231.283 57.918Z" fill="#4F6169"/>
</svg>
