<svg width="452" height="264" viewBox="0 0 452 264" fill="none" xmlns="http://www.w3.org/2000/svg">
<g clip-path="url(#clip0_8723_2117)">
<rect width="452" height="264" fill="#1B2B32"/>
<rect width="452" height="17" fill="#859399"/>
<g opacity="0.7">
<rect width="452" height="264" fill="#2D4048"/>
</g>
<g filter="url(#filter0_d_8723_2117)">
<path d="M339.169 65H110.829C109.049 65 107.609 66.44 107.609 68.22V195.79C107.609 197.57 109.049 199.01 110.829 199.01H339.169C340.949 199.01 342.389 197.57 342.389 195.79V68.22C342.389 66.44 340.949 65 339.169 65Z" fill="#1B2B32"/>
<path d="M110.829 65.5H339.169C340.673 65.5 341.889 66.7161 341.889 68.22V195.79C341.889 197.294 340.673 198.51 339.169 198.51H110.829C109.326 198.51 108.109 197.294 108.109 195.79V68.22C108.109 66.7161 109.326 65.5 110.829 65.5Z" stroke="#4F6169"/>
</g>
<path d="M123.029 87.0001H123.999L126.409 79.6601L128.809 87.0001H129.779L132.729 78.3801H131.629L129.249 85.3501L126.969 78.3801H125.879L123.599 85.3501L121.219 78.3801H120.119L123.069 87.0001H123.029ZM136.549 80.3601C135.919 80.3601 135.149 80.5201 134.219 80.9901L134.599 81.7601C135.189 81.4601 135.839 81.1701 136.489 81.1701C137.889 81.1701 138.249 82.1701 138.249 83.0501V83.2901C137.589 83.0801 136.849 82.9301 136.139 82.9301C134.749 82.9301 133.589 83.8001 133.589 85.0901C133.589 86.3801 134.589 87.1601 135.959 87.1601C136.809 87.1601 137.779 86.7601 138.239 85.9901V87.0101H139.179V83.0601C139.179 81.4901 138.309 80.3801 136.549 80.3801V80.3601ZM136.119 86.3201C135.209 86.3201 134.499 85.8401 134.499 85.0401C134.499 84.2401 135.319 83.7101 136.279 83.7101C136.979 83.7101 137.649 83.8101 138.239 83.9701V84.9601C137.989 85.8801 136.969 86.3101 136.119 86.3101V86.3201ZM141.919 81.7801V80.5101H140.979V87.0001H141.919V83.3701C141.919 82.1001 142.959 81.2001 144.429 81.2001V80.3601C143.239 80.3601 142.309 80.9101 141.919 81.7801ZM148.599 80.3601C147.679 80.3601 146.839 80.8601 146.469 81.5501V80.5101H145.529V87.0001H146.469V82.8701C146.469 81.9701 147.389 81.2001 148.479 81.2001C149.429 81.2001 150.099 81.9401 150.099 82.9901V86.9901H151.039V82.8601C151.039 81.3901 150.039 80.3501 148.609 80.3501L148.599 80.3601ZM153.189 79.3301C153.529 79.3301 153.809 79.0401 153.809 78.7001C153.809 78.3601 153.529 78.0901 153.189 78.0901C152.849 78.0901 152.559 78.3801 152.559 78.7001C152.559 79.0201 152.839 79.3301 153.189 79.3301ZM152.709 86.9901H153.649V80.5001H152.709V86.9901ZM158.409 80.3501C157.489 80.3501 156.649 80.8501 156.279 81.5401V80.5001H155.339V86.9901H156.279V82.8601C156.279 81.9601 157.199 81.1901 158.289 81.1901C159.239 81.1901 159.909 81.9301 159.909 82.9801V86.9801H160.849V82.8501C160.849 81.3801 159.849 80.3401 158.419 80.3401L158.409 80.3501ZM167.579 80.5001V81.6201C167.079 80.8301 166.249 80.3501 165.219 80.3501C163.479 80.3501 162.229 81.6201 162.229 83.4201C162.229 85.2201 163.469 86.5101 165.219 86.5101C166.249 86.5101 167.079 86.0301 167.579 85.2401V86.2901C167.579 87.5601 166.699 88.3001 165.209 88.3001C164.409 88.3001 163.629 88.0101 163.129 87.5301L162.719 88.2701C163.309 88.7701 164.289 89.1401 165.339 89.1401C167.209 89.1401 168.529 87.9601 168.529 86.2901V80.4901H167.589L167.579 80.5001ZM165.399 85.6701C164.129 85.6701 163.229 84.7401 163.229 83.4201C163.229 82.1001 164.129 81.1901 165.399 81.1901C166.669 81.1901 167.579 82.1201 167.579 83.4201C167.579 84.7201 166.679 85.6701 165.399 85.6701Z" fill="#E3EAED"/>
<path d="M125.77 109H126.59L123.67 102.37H122.85L119.93 109H120.75L121.42 107.5H125.11L125.78 109H125.77ZM121.72 106.78L123.26 103.3L124.79 106.78H121.71H121.72ZM127.42 109H128.14V102.26H127.42V109ZM129.39 109H130.11V102.26H129.39V109ZM136.26 109.12C137.66 109.12 138.84 107.92 138.84 106.5C138.84 105.08 137.66 103.9 136.26 103.9C134.86 103.9 133.68 105.09 133.68 106.5C133.68 107.91 134.87 109.12 136.26 109.12ZM136.26 108.47C135.27 108.47 134.44 107.57 134.44 106.5C134.44 105.43 135.27 104.54 136.26 104.54C137.25 104.54 138.07 105.44 138.07 106.5C138.07 107.56 137.24 108.47 136.26 108.47ZM140.95 103.33C140.95 102.96 141.2 102.7 141.49 102.7C141.71 102.7 141.91 102.79 142.01 102.9L142.37 102.37C142.11 102.17 141.78 102.05 141.44 102.05C140.73 102.05 140.22 102.58 140.22 103.32V104H139.44V104.65H140.22V108.99H140.94V104.65H142.16V104H140.94V103.32L140.95 103.33ZM147.76 108.27C147.65 108.39 147.46 108.47 147.24 108.47C146.95 108.47 146.7 108.21 146.7 107.84V104.66H147.93V104.01H146.7V102.64H145.98V104.01H145.2V104.66H145.98V107.84C145.98 108.58 146.48 109.11 147.2 109.11C147.54 109.11 147.86 108.99 148.13 108.79L147.77 108.26L147.76 108.27ZM151.3 103.9C150.59 103.9 149.95 104.29 149.66 104.82V102.26H148.94V109H149.66V105.83C149.66 105.14 150.36 104.55 151.2 104.55C151.93 104.55 152.44 105.12 152.44 105.93V109.01H153.16V105.84C153.16 104.71 152.39 103.91 151.29 103.91L151.3 103.9ZM156.67 108.47C155.69 108.47 155 107.76 154.89 106.78H158.97C158.97 105.03 158.11 103.9 156.61 103.9C155.27 103.9 154.15 105.01 154.15 106.5C154.15 107.99 155.35 109.12 156.68 109.12C157.38 109.12 158.25 108.82 158.69 108.35L158.25 107.88C157.94 108.22 157.27 108.48 156.68 108.48L156.67 108.47ZM156.64 104.54C157.63 104.54 158.16 105.23 158.26 106.13H154.9C155.03 105.16 155.75 104.54 156.64 104.54ZM162.88 103.1C163.14 103.1 163.35 102.88 163.35 102.62C163.35 102.36 163.14 102.15 162.88 102.15C162.62 102.15 162.4 102.37 162.4 102.62C162.4 102.87 162.61 103.1 162.88 103.1ZM162.51 108.99H163.23V104H162.51V108.99ZM166.85 103.89C166.15 103.89 165.5 104.28 165.21 104.81V104.01H164.49V109H165.21V105.83C165.21 105.14 165.91 104.55 166.75 104.55C167.48 104.55 167.99 105.12 167.99 105.93V109.01H168.71V105.84C168.71 104.71 167.94 103.91 166.84 103.91L166.85 103.89ZM172.58 103.89C171.78 103.89 171.14 104.29 170.77 104.94V104H170.05V110.65H170.77V108.05C171.15 108.71 171.78 109.1 172.58 109.1C173.89 109.1 174.88 108.02 174.88 106.48C174.88 104.94 173.9 103.88 172.58 103.88V103.89ZM172.45 108.46C171.47 108.46 170.77 107.64 170.77 106.49C170.77 105.34 171.46 104.53 172.45 104.53C173.44 104.53 174.12 105.34 174.12 106.49C174.12 107.64 173.43 108.46 172.45 108.46ZM179.43 104V107.17C179.43 107.86 178.73 108.45 177.89 108.45C177.16 108.45 176.65 107.88 176.65 107.07V103.99H175.93V107.16C175.93 108.29 176.7 109.09 177.8 109.09C178.5 109.09 179.15 108.7 179.44 108.17V108.97H180.16V103.98H179.44L179.43 104ZM183.6 108.25C183.49 108.37 183.3 108.45 183.08 108.45C182.79 108.45 182.54 108.19 182.54 107.82V104.64H183.77V103.99H182.54V102.62H181.82V103.99H181.04V104.64H181.82V107.82C181.82 108.56 182.32 109.09 183.04 109.09C183.38 109.09 183.71 108.97 183.97 108.77L183.61 108.24L183.6 108.25ZM188.62 108.98H189.3L190.64 104.99L191.96 108.98H192.64L194.32 103.99H193.55L192.3 108.01L190.94 103.99H190.31L188.95 108.01L187.71 103.99H186.94L188.61 108.98H188.62ZM195.53 103.09C195.79 103.09 196 102.87 196 102.61C196 102.35 195.79 102.14 195.53 102.14C195.27 102.14 195.05 102.36 195.05 102.61C195.05 102.86 195.26 103.09 195.53 103.09ZM195.16 108.98H195.88V103.99H195.16V108.98ZM197.12 108.98H197.84V102.24H197.12V108.98ZM199.09 108.98H199.81V102.24H199.09V108.98ZM206.25 103.88C205.45 103.88 204.81 104.28 204.44 104.93V102.24H203.72V108.98H204.44V108.04C204.82 108.7 205.45 109.09 206.25 109.09C207.56 109.09 208.55 108.01 208.55 106.47C208.55 104.93 207.57 103.87 206.25 103.87V103.88ZM206.11 108.45C205.13 108.45 204.43 107.63 204.43 106.48C204.43 105.33 205.12 104.52 206.11 104.52C207.1 104.52 207.78 105.33 207.78 106.48C207.78 107.63 207.08 108.45 206.11 108.45ZM211.83 108.45C210.85 108.45 210.16 107.74 210.05 106.76H214.13C214.13 105.01 213.27 103.88 211.77 103.88C210.43 103.88 209.31 104.99 209.31 106.48C209.31 107.97 210.51 109.1 211.84 109.1C212.53 109.1 213.41 108.8 213.85 108.33L213.41 107.86C213.1 108.2 212.43 108.46 211.84 108.46L211.83 108.45ZM211.8 104.52C212.79 104.52 213.32 105.21 213.42 106.11H210.06C210.2 105.14 210.91 104.52 211.8 104.52ZM217.69 108.98H218.41V102.24H217.69V108.98ZM221.98 109.1C223.38 109.1 224.56 107.9 224.56 106.48C224.56 105.06 223.38 103.88 221.98 103.88C220.58 103.88 219.39 105.07 219.39 106.48C219.39 107.89 220.58 109.1 221.98 109.1ZM221.98 108.45C220.99 108.45 220.16 107.55 220.16 106.48C220.16 105.41 220.99 104.52 221.98 104.52C222.97 104.52 223.79 105.42 223.79 106.48C223.79 107.54 222.96 108.45 221.98 108.45ZM227.3 109.1C228.33 109.1 229.12 108.51 229.12 107.59C229.12 106.67 228.29 106.37 227.49 106.12C226.56 105.82 226.2 105.69 226.2 105.25C226.2 104.77 226.66 104.52 227.22 104.52C227.66 104.52 228.16 104.67 228.66 104.99L229.01 104.43C228.48 104.08 227.84 103.87 227.23 103.87C226.24 103.87 225.48 104.43 225.48 105.34C225.48 106.05 225.94 106.41 227.15 106.76C227.83 106.95 228.4 107.13 228.4 107.67C228.4 108.14 227.96 108.45 227.3 108.45C226.75 108.45 226.18 108.24 225.61 107.82L225.23 108.35C225.83 108.83 226.6 109.09 227.29 109.09L227.3 109.1ZM232.3 108.25C232.19 108.37 232 108.45 231.78 108.45C231.49 108.45 231.24 108.19 231.24 107.82V104.64H232.47V103.99H231.24V102.62H230.52V103.99H229.74V104.64H230.52V107.82C230.52 108.56 231.02 109.09 231.74 109.09C232.08 109.09 232.41 108.97 232.67 108.77L232.31 108.24L232.3 108.25ZM236.41 103.09C236.67 103.09 236.88 102.87 236.88 102.61C236.88 102.35 236.67 102.14 236.41 102.14C236.15 102.14 235.93 102.36 235.93 102.61C235.93 102.86 236.14 103.09 236.41 103.09ZM236.04 108.98H236.76V103.99H236.04V108.98ZM239.13 103.31C239.13 102.94 239.38 102.68 239.67 102.68C239.89 102.68 240.08 102.77 240.19 102.88L240.55 102.35C240.29 102.15 239.96 102.03 239.62 102.03C238.91 102.03 238.4 102.56 238.4 103.3V103.98H237.62V104.63H238.4V108.97H239.12V104.63H240.35V103.98H239.12V103.3L239.13 103.31ZM244.5 110.72C245.19 110.72 245.67 110.39 246.01 109.54L248.29 103.99H247.51L245.86 108.14L244.11 103.99H243.31L245.48 109L245.19 109.62C245 109.96 244.79 110.06 244.47 110.06C244.26 110.06 244.05 110.02 243.88 109.93L243.71 110.55C243.94 110.66 244.21 110.71 244.5 110.71V110.72ZM251.39 109.1C252.79 109.1 253.97 107.9 253.97 106.48C253.97 105.06 252.79 103.88 251.39 103.88C249.99 103.88 248.81 105.07 248.81 106.48C248.81 107.89 250 109.1 251.39 109.1ZM251.39 108.45C250.4 108.45 249.57 107.55 249.57 106.48C249.57 105.41 250.4 104.52 251.39 104.52C252.38 104.52 253.2 105.42 253.2 106.48C253.2 107.54 252.37 108.45 251.39 108.45ZM258.46 103.99V107.16C258.46 107.85 257.76 108.44 256.92 108.44C256.19 108.44 255.68 107.87 255.68 107.06V103.98H254.96V107.15C254.96 108.28 255.73 109.08 256.83 109.08C257.53 109.08 258.18 108.69 258.47 108.16V108.96H259.19V103.97H258.47L258.46 103.99ZM265.34 109.09C266.03 109.09 266.67 108.8 267.14 108.33L266.64 107.84C266.3 108.22 265.84 108.45 265.34 108.45C264.35 108.45 263.52 107.55 263.52 106.48C263.52 105.41 264.35 104.52 265.34 104.52C265.83 104.52 266.29 104.74 266.61 105.1L267.11 104.61C266.64 104.16 266.01 103.88 265.34 103.88C263.94 103.88 262.75 105.07 262.75 106.48C262.75 107.89 263.94 109.1 265.34 109.1V109.09ZM270.07 103.87C269.59 103.87 268.99 104 268.27 104.35L268.56 104.94C269.01 104.71 269.51 104.49 270.02 104.49C271.1 104.49 271.37 105.26 271.37 105.94V106.12C270.86 105.96 270.29 105.84 269.75 105.84C268.68 105.84 267.79 106.51 267.79 107.5C267.79 108.49 268.56 109.09 269.61 109.09C270.27 109.09 271.01 108.78 271.37 108.19V108.97H272.09V105.93C272.09 104.72 271.42 103.87 270.06 103.87H270.07ZM269.74 108.45C269.04 108.45 268.5 108.08 268.5 107.47C268.5 106.86 269.13 106.45 269.87 106.45C270.41 106.45 270.92 106.53 271.38 106.65V107.41C271.19 108.11 270.41 108.45 269.75 108.45H269.74ZM275.73 103.87C275.02 103.87 274.38 104.26 274.09 104.79V103.99H273.37V108.98H274.09V105.81C274.09 105.12 274.8 104.53 275.63 104.53C276.36 104.53 276.87 105.1 276.87 105.91V108.99H277.59V105.82C277.59 104.69 276.82 103.89 275.72 103.89L275.73 103.87ZM281.17 109.09C281.87 109.09 282.5 108.8 282.97 108.33L282.47 107.84C282.13 108.22 281.67 108.45 281.17 108.45C280.18 108.45 279.35 107.55 279.35 106.48C279.35 105.41 280.18 104.52 281.17 104.52C281.66 104.52 282.12 104.74 282.44 105.1L282.94 104.61C282.47 104.16 281.84 103.88 281.17 103.88C279.77 103.88 278.58 105.07 278.58 106.48C278.58 107.89 279.77 109.1 281.17 109.1V109.09ZM286.12 108.44C285.14 108.44 284.45 107.73 284.35 106.75H288.43C288.43 105 287.57 103.87 286.07 103.87C284.73 103.87 283.61 104.98 283.61 106.47C283.61 107.96 284.81 109.09 286.14 109.09C286.83 109.09 287.71 108.79 288.15 108.32L287.71 107.85C287.4 108.19 286.73 108.45 286.14 108.45L286.12 108.44ZM286.09 104.51C287.08 104.51 287.61 105.2 287.71 106.1H284.35C284.49 105.13 285.2 104.51 286.09 104.51ZM289.39 108.97H290.11V102.23H289.39V108.97ZM296.14 108.24C296.03 108.36 295.84 108.44 295.62 108.44C295.33 108.44 295.08 108.18 295.08 107.81V104.63H296.31V103.98H295.08V102.61H294.36V103.98H293.58V104.63H294.36V107.81C294.36 108.55 294.86 109.08 295.58 109.08C295.92 109.08 296.25 108.96 296.51 108.76L296.15 108.23L296.14 108.24ZM299.68 103.87C298.98 103.87 298.33 104.26 298.04 104.79V102.23H297.32V108.97H298.04V105.8C298.04 105.11 298.74 104.52 299.58 104.52C300.31 104.52 300.82 105.09 300.82 105.9V108.98H301.54V105.81C301.54 104.68 300.77 103.88 299.67 103.88L299.68 103.87ZM305.05 108.44C304.07 108.44 303.38 107.73 303.28 106.75H307.36C307.36 105 306.5 103.87 305 103.87C303.66 103.87 302.54 104.98 302.54 106.47C302.54 107.96 303.74 109.09 305.07 109.09C305.77 109.09 306.64 108.79 307.08 108.32L306.64 107.85C306.33 108.19 305.66 108.45 305.07 108.45L305.05 108.44ZM305.02 104.51C306.01 104.51 306.54 105.2 306.64 106.1H303.28C303.42 105.13 304.13 104.51 305.02 104.51ZM121.63 123.97H122.31L123.65 119.98L124.97 123.97H125.65L127.33 118.98H126.56L125.32 123L123.96 118.98H123.33L121.97 123L120.73 118.98H119.96L121.63 123.97ZM130.31 124.09C131.71 124.09 132.89 122.89 132.89 121.48C132.89 120.07 131.71 118.87 130.31 118.87C128.91 118.87 127.72 120.06 127.72 121.48C127.72 122.9 128.91 124.09 130.31 124.09ZM130.31 123.44C129.32 123.44 128.49 122.54 128.49 121.47C128.49 120.4 129.32 119.51 130.31 119.51C131.3 119.51 132.12 120.41 132.12 121.47C132.12 122.53 131.29 123.44 130.31 123.44ZM134.66 119.96V118.99H133.94V123.98H134.66V121.19C134.66 120.21 135.46 119.52 136.59 119.52V118.87C135.67 118.87 134.96 119.3 134.66 119.96ZM141.75 118.99H140.82L138.09 121.75V117.24H137.37V123.98H138.09V122.66L138.99 121.77L140.72 123.98H141.63L139.51 121.28L141.76 118.99H141.75ZM143.53 118.3C143.53 117.93 143.78 117.67 144.07 117.67C144.29 117.67 144.48 117.76 144.59 117.87L144.95 117.34C144.69 117.14 144.36 117.02 144.02 117.02C143.31 117.02 142.8 117.55 142.8 118.29V118.98H142.02V119.63H142.8V123.97H143.52V119.63H144.75V118.98H143.52V118.29L143.53 118.3ZM145.57 123.97H146.29V117.23H145.57V123.97ZM149.86 124.09C151.26 124.09 152.44 122.89 152.44 121.48C152.44 120.07 151.26 118.87 149.86 118.87C148.46 118.87 147.27 120.06 147.27 121.48C147.27 122.9 148.46 124.09 149.86 124.09ZM149.86 123.44C148.87 123.44 148.04 122.54 148.04 121.47C148.04 120.4 148.87 119.51 149.86 119.51C150.85 119.51 151.67 120.41 151.67 121.47C151.67 122.53 150.84 123.44 149.86 123.44ZM154.5 123.97H155.18L156.52 119.98L157.84 123.97H158.52L160.2 118.98H159.43L158.19 123L156.83 118.98H156.2L154.84 123L153.6 118.98H152.83L154.5 123.97ZM160.59 124.09C160.87 124.09 161.1 123.85 161.1 123.56C161.1 123.29 160.87 123.05 160.59 123.05C160.29 123.05 160.06 123.29 160.06 123.56C160.06 123.85 160.29 124.09 160.59 124.09ZM170.32 123.97H171.14L168.22 117.34H167.4L164.48 123.97H165.3L165.97 122.46H169.67L170.33 123.97H170.32ZM166.27 121.75L167.81 118.27L169.34 121.75H166.26H166.27ZM172.76 119.96V118.99H172.04V123.98H172.76V121.19C172.76 120.21 173.56 119.52 174.69 119.52V118.87C173.77 118.87 173.06 119.3 172.76 119.96ZM177.72 123.44C176.74 123.44 176.05 122.73 175.94 121.75H180.02C180.02 120 179.16 118.86 177.66 118.86C176.32 118.86 175.2 119.97 175.2 121.46C175.2 122.95 176.4 124.08 177.73 124.08C178.42 124.08 179.3 123.78 179.74 123.31L179.3 122.84C178.99 123.18 178.32 123.44 177.73 123.44H177.72ZM177.69 119.51C178.68 119.51 179.22 120.2 179.31 121.1H175.95C176.08 120.14 176.8 119.51 177.69 119.51ZM184.32 125.7C185.01 125.7 185.49 125.37 185.83 124.52L188.11 118.97H187.33L185.68 123.12L183.93 118.97H183.13L185.3 123.98L185.01 124.6C184.82 124.94 184.61 125.04 184.29 125.04C184.08 125.04 183.88 125 183.7 124.91L183.53 125.53C183.76 125.64 184.03 125.69 184.32 125.69V125.7ZM191.21 124.08C192.61 124.08 193.79 122.88 193.79 121.47C193.79 120.06 192.61 118.86 191.21 118.86C189.81 118.86 188.62 120.05 188.62 121.47C188.62 122.89 189.81 124.08 191.21 124.08ZM191.21 123.43C190.22 123.43 189.39 122.53 189.39 121.46C189.39 120.39 190.22 119.5 191.21 119.5C192.2 119.5 193.02 120.4 193.02 121.46C193.02 122.52 192.19 123.43 191.21 123.43ZM198.28 118.97V122.14C198.28 122.83 197.58 123.42 196.74 123.42C196.01 123.42 195.5 122.85 195.5 122.04V118.96H194.78V122.13C194.78 123.26 195.55 124.06 196.65 124.06C197.35 124.06 198 123.67 198.29 123.14V123.94H199.01V118.95H198.29L198.28 118.97ZM204.61 124.07C205.64 124.07 206.43 123.48 206.43 122.57C206.43 121.66 205.6 121.35 204.8 121.1C203.87 120.8 203.51 120.67 203.51 120.23C203.51 119.75 203.97 119.5 204.53 119.5C204.97 119.5 205.46 119.65 205.97 119.97L206.32 119.41C205.79 119.06 205.15 118.85 204.54 118.85C203.55 118.85 202.79 119.41 202.79 120.32C202.79 121.03 203.25 121.39 204.46 121.74C205.14 121.93 205.72 122.11 205.72 122.65C205.72 123.12 205.28 123.43 204.62 123.43C204.07 123.43 203.5 123.22 202.93 122.8L202.55 123.33C203.15 123.81 203.92 124.07 204.61 124.07ZM210.93 118.97V122.14C210.93 122.83 210.23 123.42 209.39 123.42C208.66 123.42 208.15 122.85 208.15 122.04V118.96H207.43V122.13C207.43 123.26 208.2 124.06 209.3 124.06C210 124.06 210.65 123.67 210.94 123.14V123.94H211.66V118.95H210.94L210.93 118.97ZM213.7 119.94V118.97H212.98V123.96H213.7V121.17C213.7 120.19 214.5 119.5 215.63 119.5V118.85C214.71 118.85 214 119.28 213.7 119.94ZM218.66 123.42C217.67 123.42 216.99 122.71 216.88 121.73H220.96C220.96 119.98 220.1 118.84 218.6 118.84C217.26 118.84 216.14 119.95 216.14 121.44C216.14 122.93 217.34 124.06 218.67 124.06C219.36 124.06 220.24 123.76 220.68 123.29L220.24 122.82C219.93 123.16 219.26 123.42 218.67 123.42H218.66ZM218.63 119.49C219.62 119.49 220.15 120.18 220.25 121.08H216.89C217.03 120.12 217.74 119.49 218.63 119.49ZM225.26 125.68C225.94 125.68 226.43 125.35 226.77 124.5L229.05 118.95H228.27L226.62 123.1L224.87 118.95H224.07L226.24 123.96L225.95 124.58C225.76 124.92 225.54 125.02 225.23 125.02C225.02 125.02 224.82 124.98 224.64 124.89L224.47 125.51C224.7 125.62 224.97 125.67 225.26 125.67V125.68ZM232.15 124.06C233.55 124.06 234.73 122.86 234.73 121.45C234.73 120.04 233.55 118.84 232.15 118.84C230.75 118.84 229.56 120.03 229.56 121.45C229.56 122.87 230.75 124.06 232.15 124.06ZM232.15 123.41C231.16 123.41 230.33 122.51 230.33 121.44C230.33 120.37 231.16 119.48 232.15 119.48C233.14 119.48 233.96 120.38 233.96 121.44C233.96 122.5 233.13 123.41 232.15 123.41ZM239.22 118.95V122.12C239.22 122.81 238.52 123.4 237.68 123.4C236.95 123.4 236.44 122.83 236.44 122.02V118.94H235.72V122.11C235.72 123.24 236.49 124.04 237.59 124.04C238.29 124.04 238.94 123.65 239.23 123.12V123.92H239.95V118.93H239.23L239.22 118.95ZM245.06 123.94H245.74L247.08 119.95L248.4 123.94H249.08L250.76 118.95H249.99L248.75 122.97L247.39 118.95H246.76L245.4 122.97L244.16 118.95H243.39L245.06 123.94ZM253.64 118.84C253.16 118.84 252.56 118.97 251.84 119.32L252.13 119.91C252.58 119.68 253.09 119.46 253.59 119.46C254.67 119.46 254.94 120.23 254.94 120.91V121.09C254.43 120.93 253.86 120.81 253.32 120.81C252.25 120.81 251.36 121.48 251.36 122.47C251.36 123.46 252.13 124.06 253.18 124.06C253.84 124.06 254.58 123.75 254.94 123.16V123.94H255.66V120.9C255.66 119.69 254.99 118.83 253.63 118.83L253.64 118.84ZM253.31 123.42C252.61 123.42 252.06 123.05 252.06 122.44C252.06 121.83 252.69 121.42 253.43 121.42C253.97 121.42 254.48 121.5 254.94 121.62V122.38C254.75 123.08 253.97 123.42 253.31 123.42ZM259.3 118.84C258.59 118.84 257.95 119.23 257.66 119.76V118.96H256.94V123.95H257.66V120.78C257.66 120.08 258.37 119.5 259.2 119.5C259.93 119.5 260.44 120.07 260.44 120.88V123.96H261.16V120.79C261.16 119.66 260.39 118.86 259.29 118.86L259.3 118.84ZM264.61 123.21C264.5 123.33 264.31 123.41 264.09 123.41C263.8 123.41 263.55 123.15 263.55 122.78V119.6H264.78V118.95H263.55V117.58H262.83V118.95H262.05V119.6H262.83V122.78C262.83 123.52 263.33 124.05 264.05 124.05C264.39 124.05 264.72 123.93 264.98 123.73L264.62 123.2L264.61 123.21ZM270.55 123.21C270.44 123.33 270.25 123.41 270.03 123.41C269.74 123.41 269.49 123.15 269.49 122.78V119.6H270.72V118.95H269.49V117.58H268.77V118.95H267.99V119.6H268.77V122.78C268.77 123.52 269.27 124.05 269.99 124.05C270.33 124.05 270.66 123.93 270.92 123.73L270.56 123.2L270.55 123.21ZM274.03 124.06C275.43 124.06 276.61 122.86 276.61 121.45C276.61 120.04 275.43 118.84 274.03 118.84C272.63 118.84 271.44 120.03 271.44 121.45C271.44 122.87 272.63 124.06 274.03 124.06ZM274.03 123.41C273.04 123.41 272.21 122.51 272.21 121.44C272.21 120.37 273.04 119.48 274.03 119.48C275.02 119.48 275.84 120.38 275.84 121.44C275.84 122.5 275.01 123.41 274.03 123.41ZM282.49 124.06C283.18 124.06 283.82 123.77 284.29 123.3L283.79 122.81C283.45 123.19 282.99 123.42 282.49 123.42C281.5 123.42 280.67 122.52 280.67 121.45C280.67 120.38 281.5 119.49 282.49 119.49C282.98 119.49 283.43 119.71 283.76 120.07L284.26 119.58C283.79 119.13 283.16 118.85 282.49 118.85C281.09 118.85 279.9 120.04 279.9 121.46C279.9 122.88 281.09 124.07 282.49 124.07V124.06ZM287.21 118.84C286.73 118.84 286.13 118.97 285.42 119.32L285.71 119.91C286.16 119.68 286.66 119.46 287.17 119.46C288.25 119.46 288.52 120.23 288.52 120.91V121.09C288.01 120.93 287.44 120.81 286.9 120.81C285.83 120.81 284.94 121.48 284.94 122.47C284.94 123.46 285.71 124.06 286.76 124.06C287.42 124.06 288.16 123.75 288.52 123.16V123.94H289.24V120.9C289.24 119.69 288.58 118.83 287.21 118.83V118.84ZM286.88 123.42C286.18 123.42 285.64 123.05 285.64 122.44C285.64 121.83 286.27 121.42 287.01 121.42C287.55 121.42 288.06 121.5 288.52 121.62V122.38C288.33 123.08 287.54 123.42 286.89 123.42H286.88ZM292.87 118.84C292.17 118.84 291.52 119.23 291.23 119.76V118.96H290.51V123.95H291.23V120.78C291.23 120.08 291.93 119.5 292.77 119.5C293.5 119.5 294.01 120.07 294.01 120.88V123.96H294.73V120.79C294.73 119.66 293.96 118.86 292.86 118.86L292.87 118.84ZM298.31 124.06C299.01 124.06 299.64 123.77 300.11 123.3L299.61 122.81C299.27 123.19 298.81 123.42 298.31 123.42C297.32 123.42 296.49 122.52 296.49 121.45C296.49 120.38 297.32 119.49 298.31 119.49C298.8 119.49 299.26 119.71 299.58 120.07L300.08 119.58C299.61 119.13 298.98 118.85 298.31 118.85C296.91 118.85 295.72 120.04 295.72 121.46C295.72 122.88 296.91 124.07 298.31 124.07V124.06ZM303.26 123.41C302.28 123.41 301.59 122.7 301.49 121.72H305.57C305.57 119.97 304.71 118.83 303.21 118.83C301.87 118.83 300.75 119.94 300.75 121.43C300.75 122.92 301.95 124.05 303.28 124.05C303.98 124.05 304.85 123.75 305.29 123.28L304.85 122.81C304.54 123.15 303.87 123.41 303.28 123.41H303.26ZM303.23 119.48C304.22 119.48 304.75 120.17 304.85 121.07H301.49C301.62 120.11 302.34 119.48 303.23 119.48ZM306.53 123.94H307.25V117.2H306.53V123.94ZM309.54 122.08H310.3V120.84C311.43 120.6 312.23 119.82 312.23 118.96C312.23 117.98 311.43 117.19 310.2 117.19C309.23 117.19 308.53 117.66 308.02 118.3L308.51 118.79C308.93 118.27 309.44 117.87 310.16 117.87C310.97 117.87 311.46 118.43 311.46 119.02C311.46 119.65 310.66 120.17 309.53 120.26V122.06L309.54 122.08ZM309.93 124.06C310.21 124.06 310.44 123.82 310.44 123.53C310.44 123.26 310.21 123.02 309.93 123.02C309.63 123.02 309.4 123.26 309.4 123.53C309.4 123.82 309.63 124.06 309.93 124.06Z" fill="white"/>
<path d="M260.619 185C260.619 186.1 261.509 187 262.619 187H327.619C328.729 187 329.619 186.1 329.619 185V173C329.619 171.9 328.729 171 327.619 171H262.619C261.509 171 260.619 171.9 260.619 173V185Z" fill="#2EC0FF"/>
<path d="M270.649 181L269.619 179.54C270.209 179.35 270.619 178.87 270.619 178.25C270.619 177.45 269.959 176.88 269.079 176.88H267.289V181H268.039V179.61H268.839L269.809 181H270.659H270.649ZM268.029 177.57H268.989C269.499 177.57 269.849 177.83 269.849 178.25C269.849 178.67 269.499 178.93 268.989 178.93H268.029V177.57ZM274.799 177.57V176.89H271.699V181.01H274.799V180.33H272.449V179.26H274.579V178.58H272.449V177.58H274.799V177.57ZM277.439 181.07C278.419 181.07 278.989 180.55 278.989 179.81C278.989 179.07 278.409 178.78 277.559 178.59C276.909 178.44 276.599 178.32 276.599 177.98C276.599 177.69 276.879 177.44 277.299 177.44C277.719 177.44 278.119 177.61 278.479 177.93L278.889 177.38C278.479 177.03 277.979 176.8 277.329 176.8C276.459 176.8 275.849 177.33 275.849 178.05C275.849 178.82 276.439 179.07 277.299 179.27C277.959 179.43 278.249 179.54 278.249 179.88C278.249 180.17 277.989 180.43 277.479 180.43C276.939 180.43 276.499 180.21 276.119 179.87L275.689 180.4C276.149 180.83 276.749 181.07 277.449 181.07H277.439ZM281.899 181.07C282.969 181.07 283.719 180.31 283.719 179.24V176.88H282.979V179.22C282.979 179.9 282.539 180.4 281.909 180.4C281.279 180.4 280.839 179.91 280.839 179.22V176.88H280.089V179.24C280.089 180.31 280.849 181.07 281.909 181.07H281.899ZM285.039 181H285.789V178.25L287.149 180.76L288.509 178.25V181H289.249V176.88H288.509L287.149 179.39L285.789 176.88H285.039V181ZM293.669 177.56V176.88H290.569V181H293.669V180.32H291.319V179.25H293.449V178.57H291.319V177.57H293.669V177.56ZM299.989 177.56V176.88H296.889V181H299.989V180.32H297.639V179.25H299.769V178.57H297.639V177.57H299.989V177.56ZM301.159 181H302.609C303.969 181 304.929 180.14 304.929 178.94C304.929 177.74 303.969 176.88 302.609 176.88H301.159V181ZM301.909 180.32V177.55H302.689C303.559 177.55 304.169 178.12 304.169 178.93C304.169 179.74 303.559 180.32 302.689 180.32H301.909ZM306.079 181H306.819V176.88H306.079V181ZM309.199 181H309.939V177.56H311.259V176.88H307.879V177.56H309.199V181ZM312.319 181H313.059V176.88H312.319V181ZM314.379 181H315.129V178.1L317.309 181H318.049V176.88H317.309V179.78L315.129 176.88H314.379V181ZM321.259 179.34H322.289V180.09C322.029 180.28 321.699 180.38 321.379 180.38C320.609 180.38 319.959 179.72 319.959 178.93C319.959 178.14 320.609 177.48 321.379 177.48C321.779 177.48 322.229 177.66 322.479 177.96L323.009 177.46C322.609 177.05 321.969 176.79 321.369 176.79C320.189 176.79 319.189 177.76 319.189 178.92C319.189 180.08 320.189 181.06 321.369 181.06C321.969 181.06 322.609 180.8 323.009 180.39V178.72H321.249V179.33L321.259 179.34Z" fill="black"/>
<path d="M193.51 181.07C194.12 181.07 194.67 180.81 195.06 180.4L194.53 179.91C194.27 180.2 193.91 180.39 193.5 180.39C192.74 180.39 192.1 179.73 192.1 178.94C192.1 178.15 192.74 177.49 193.5 177.49C193.9 177.49 194.27 177.68 194.52 177.97L195.05 177.47C194.65 177.06 194.1 176.8 193.5 176.8C192.32 176.8 191.33 177.77 191.33 178.93C191.33 180.09 192.32 181.07 193.5 181.07H193.51ZM199.18 181H200.01L198.29 176.88H197.46L195.74 181H196.57L196.88 180.26H198.87L199.18 181ZM197.15 179.61L197.88 177.88L198.61 179.61H197.16H197.15ZM201.01 181H201.76V178.1L203.94 181H204.68V176.88H203.94V179.78L201.76 176.88H201.01V181ZM208 181.07C208.61 181.07 209.16 180.81 209.55 180.4L209.02 179.91C208.76 180.2 208.4 180.39 207.99 180.39C207.23 180.39 206.59 179.73 206.59 178.94C206.59 178.15 207.23 177.49 207.99 177.49C208.39 177.49 208.76 177.68 209.01 177.97L209.54 177.47C209.14 177.06 208.59 176.8 207.99 176.8C206.81 176.8 205.82 177.77 205.82 178.93C205.82 180.09 206.81 181.07 207.99 181.07H208ZM213.63 177.56V176.88H210.53V181H213.63V180.32H211.28V179.25H213.41V178.57H211.28V177.57H213.63V177.56ZM215.46 180.31V176.87H214.72V180.99H217.58V180.31H215.46ZM223.82 180.99H224.65L222.93 176.87H222.1L220.38 180.99H221.21L221.52 180.25H223.51L223.82 180.99ZM221.79 179.6L222.52 177.87L223.25 179.6H221.8H221.79ZM225.65 180.99H226.4V178.09L228.58 180.99H229.32V176.87H228.58V179.77L226.4 176.87H225.65V180.99ZM231.89 180.99H232.65V179.44L234.28 176.87H233.43L232.28 178.74L231.15 176.87H230.27L231.9 179.44V180.99H231.89ZM236.18 180.99H236.92L237.96 177.93L238.99 180.99H239.74L241.04 176.87H240.22L239.34 179.82L238.37 176.87H237.55L236.57 179.82L235.69 176.87H234.87L236.18 180.99ZM244.92 180.99H245.75L244.03 176.87H243.2L241.48 180.99H242.31L242.62 180.25H244.61L244.92 180.99ZM242.89 179.6L243.62 177.87L244.35 179.6H242.9H242.89ZM247.74 180.99H248.5V179.44L250.13 176.87H249.28L248.13 178.74L247 176.87H246.12L247.75 179.44V180.99H247.74Z" fill="#2EC0FF"/>
<path d="M186.62 186.46H254.62V187.54H186.62V186.46ZM256.08 185V173H257.16V185H256.08ZM254.62 171.54H186.62V170.46H254.62V171.54ZM185.16 173V185H184.08V173H185.16ZM186.62 171.54C185.81 171.54 185.16 172.19 185.16 173H184.08C184.08 171.6 185.22 170.46 186.62 170.46V171.54ZM256.08 173C256.08 172.19 255.43 171.54 254.62 171.54V170.46C256.02 170.46 257.16 171.6 257.16 173H256.08ZM254.62 186.46C255.43 186.46 256.08 185.81 256.08 185H257.16C257.16 186.4 256.02 187.54 254.62 187.54V186.46ZM186.62 187.54C185.22 187.54 184.08 186.4 184.08 185H185.16C185.16 185.81 185.81 186.46 186.62 186.46V187.54Z" fill="#2EC0FF"/>
</g>
<rect x="0.5" y="0.5" width="451" height="263" stroke="#4F6169"/>
<defs>
<filter id="filter0_d_8723_2117" x="103.609" y="65" width="242.78" height="142.01" filterUnits="userSpaceOnUse" color-interpolation-filters="sRGB">
<feFlood flood-opacity="0" result="BackgroundImageFix"/>
<feColorMatrix in="SourceAlpha" type="matrix" values="0 0 0 0 0 0 0 0 0 0 0 0 0 0 0 0 0 0 127 0" result="hardAlpha"/>
<feOffset dy="4"/>
<feGaussianBlur stdDeviation="2"/>
<feComposite in2="hardAlpha" operator="out"/>
<feColorMatrix type="matrix" values="0 0 0 0 0 0 0 0 0 0 0 0 0 0 0 0 0 0 0.25 0"/>
<feBlend mode="normal" in2="BackgroundImageFix" result="effect1_dropShadow_8723_2117"/>
<feBlend mode="normal" in="SourceGraphic" in2="effect1_dropShadow_8723_2117" result="shape"/>
</filter>
<clipPath id="clip0_8723_2117">
<rect width="452" height="264" fill="white"/>
</clipPath>
</defs>
</svg>
