<svg width="452" height="216" viewBox="0 0 452 216" fill="none" xmlns="http://www.w3.org/2000/svg">
<rect x="0.5" y="0.5" width="451" height="215" rx="3.5" fill="#1B2B32"/>
<path d="M40.304 92.156C37.834 92.156 35.728 90.037 35.728 87.528C35.728 85.019 37.834 82.913 40.304 82.913C41.539 82.913 42.683 83.433 43.515 84.278L42.826 84.98C42.176 84.291 41.279 83.849 40.304 83.849C38.38 83.849 36.755 85.539 36.755 87.528C36.755 89.53 38.38 91.22 40.304 91.22C41.279 91.22 42.176 90.778 42.826 90.089L43.515 90.791C42.683 91.623 41.539 92.156 40.304 92.156ZM46.007 86.592C46.41 85.695 47.372 85.123 48.607 85.123V85.994C47.086 85.994 46.007 86.93 46.007 88.243V92H45.032V85.279H46.007V86.592ZM52.9203 91.285C53.7133 91.285 54.6233 90.934 55.0393 90.479L55.6373 91.116C55.0523 91.753 53.8693 92.156 52.9333 92.156C51.1393 92.156 49.5273 90.687 49.5273 88.62C49.5273 86.618 51.0353 85.123 52.8423 85.123C54.8703 85.123 56.0273 86.657 56.0273 89.01H50.5283C50.6713 90.323 51.5943 91.285 52.9203 91.285ZM52.8813 85.994C51.6853 85.994 50.7233 86.839 50.5413 88.139H55.0653C54.9353 86.93 54.2203 85.994 52.8813 85.994ZM59.9704 85.123C61.8034 85.123 62.7004 86.28 62.7004 87.905V92H61.7254V90.947C61.2444 91.74 60.2434 92.156 59.3594 92.156C57.9424 92.156 56.9024 91.337 56.9024 90.011C56.9024 88.672 58.0984 87.775 59.5414 87.775C60.2694 87.775 61.0364 87.931 61.7254 88.152V87.905C61.7254 86.995 61.3614 85.955 59.9054 85.955C59.2294 85.955 58.5534 86.254 57.9424 86.566L57.5524 85.773C58.5144 85.292 59.3204 85.123 59.9704 85.123ZM59.5284 91.298C60.4124 91.298 61.4654 90.843 61.7254 89.894V88.867C61.1144 88.698 60.4254 88.594 59.6974 88.594C58.6964 88.594 57.8514 89.166 57.8514 89.972C57.8514 90.804 58.5794 91.298 59.5284 91.298ZM67.3017 91.012L67.7827 91.727C67.4317 92 66.9897 92.156 66.5347 92.156C65.5727 92.156 64.8967 91.441 64.8967 90.44V86.15H63.8437V85.279H64.8967V83.433H65.8717V85.279H67.5227V86.15H65.8717V90.44C65.8717 90.934 66.2097 91.285 66.5997 91.285C66.8987 91.285 67.1587 91.168 67.3017 91.012ZM69.5771 84.057C69.2131 84.057 68.9271 83.758 68.9271 83.407C68.9271 83.069 69.2131 82.77 69.5771 82.77C69.9281 82.77 70.2141 83.069 70.2141 83.407C70.2141 83.758 69.9281 84.057 69.5771 84.057ZM69.0831 92V85.279H70.0581V92H69.0831ZM75.4055 85.123C76.9005 85.123 77.9275 86.176 77.9275 87.723V92H76.9525V87.853C76.9525 86.748 76.2635 85.994 75.2755 85.994C74.1315 85.994 73.1955 86.774 73.1955 87.723V92H72.2205V85.279H73.1955V86.345C73.5855 85.63 74.4435 85.123 75.4055 85.123ZM84.8811 85.279H85.8561V91.285C85.8561 93.014 84.4911 94.236 82.5541 94.236C81.4621 94.236 80.4481 93.859 79.8371 93.339L80.2661 92.572C80.7861 93.066 81.5921 93.365 82.4241 93.365C83.9711 93.365 84.8811 92.598 84.8811 91.285V90.193C84.3611 91.012 83.5031 91.506 82.4371 91.506C80.6301 91.506 79.3431 90.18 79.3431 88.308C79.3431 86.436 80.6301 85.123 82.4371 85.123C83.5031 85.123 84.3611 85.617 84.8811 86.436V85.279ZM82.6191 90.635C83.9451 90.635 84.8811 89.673 84.8811 88.308C84.8811 86.956 83.9451 85.994 82.6191 85.994C81.3061 85.994 80.3701 86.956 80.3701 88.308C80.3701 89.673 81.3061 90.635 82.6191 90.635ZM92.0816 94.34C91.6916 94.34 91.3276 94.262 91.0156 94.119L91.2496 93.287C91.4836 93.404 91.7566 93.456 92.0426 93.456C92.4716 93.456 92.7576 93.313 93.0176 92.858L93.4076 92.026L90.4826 85.279H91.5616L93.9146 90.869L96.1376 85.279H97.1906L94.1226 92.754C93.6546 93.898 93.0046 94.327 92.0816 94.34ZM101.252 92.156C99.3414 92.156 97.7814 90.57 97.7814 88.633C97.7814 86.696 99.3414 85.123 101.252 85.123C103.15 85.123 104.71 86.696 104.71 88.633C104.71 90.57 103.15 92.156 101.252 92.156ZM101.252 91.285C102.591 91.285 103.696 90.089 103.696 88.633C103.696 87.177 102.591 85.994 101.252 85.994C99.9004 85.994 98.7954 87.177 98.7954 88.633C98.7954 90.089 99.9004 91.285 101.252 91.285ZM110.866 85.279H111.841V92H110.866V90.934C110.476 91.649 109.618 92.156 108.656 92.156C107.161 92.156 106.134 91.103 106.134 89.556V85.279H107.109V89.426C107.109 90.531 107.798 91.285 108.786 91.285C109.93 91.285 110.866 90.505 110.866 89.556V85.279ZM114.972 86.592C115.375 85.695 116.337 85.123 117.572 85.123V85.994C116.051 85.994 114.972 86.93 114.972 88.243V92H113.997V85.279H114.972V86.592ZM124.937 85.123C126.77 85.123 127.667 86.28 127.667 87.905V92H126.692V90.947C126.211 91.74 125.21 92.156 124.326 92.156C122.909 92.156 121.869 91.337 121.869 90.011C121.869 88.672 123.065 87.775 124.508 87.775C125.236 87.775 126.003 87.931 126.692 88.152V87.905C126.692 86.995 126.328 85.955 124.872 85.955C124.196 85.955 123.52 86.254 122.909 86.566L122.519 85.773C123.481 85.292 124.287 85.123 124.937 85.123ZM124.495 91.298C125.379 91.298 126.432 90.843 126.692 89.894V88.867C126.081 88.698 125.392 88.594 124.664 88.594C123.663 88.594 122.818 89.166 122.818 89.972C122.818 90.804 123.546 91.298 124.495 91.298ZM132.554 92.156C130.669 92.156 129.07 90.544 129.07 88.633C129.07 86.722 130.669 85.123 132.554 85.123C133.464 85.123 134.309 85.5 134.946 86.111L134.27 86.774C133.828 86.293 133.217 85.994 132.554 85.994C131.215 85.994 130.097 87.203 130.097 88.633C130.097 90.076 131.215 91.285 132.554 91.285C133.23 91.285 133.854 90.973 134.309 90.466L134.985 91.129C134.348 91.766 133.49 92.156 132.554 92.156ZM139.195 92.156C137.31 92.156 135.711 90.544 135.711 88.633C135.711 86.722 137.31 85.123 139.195 85.123C140.105 85.123 140.95 85.5 141.587 86.111L140.911 86.774C140.469 86.293 139.858 85.994 139.195 85.994C137.856 85.994 136.738 87.203 136.738 88.633C136.738 90.076 137.856 91.285 139.195 91.285C139.871 91.285 140.495 90.973 140.95 90.466L141.626 91.129C140.989 91.766 140.131 92.156 139.195 92.156ZM145.837 92.156C143.926 92.156 142.366 90.57 142.366 88.633C142.366 86.696 143.926 85.123 145.837 85.123C147.735 85.123 149.295 86.696 149.295 88.633C149.295 90.57 147.735 92.156 145.837 92.156ZM145.837 91.285C147.176 91.285 148.281 90.089 148.281 88.633C148.281 87.177 147.176 85.994 145.837 85.994C144.485 85.994 143.38 87.177 143.38 88.633C143.38 90.089 144.485 91.285 145.837 91.285ZM155.45 85.279H156.425V92H155.45V90.934C155.06 91.649 154.202 92.156 153.24 92.156C151.745 92.156 150.718 91.103 150.718 89.556V85.279H151.693V89.426C151.693 90.531 152.382 91.285 153.37 91.285C154.514 91.285 155.45 90.505 155.45 89.556V85.279ZM161.767 85.123C163.262 85.123 164.289 86.176 164.289 87.723V92H163.314V87.853C163.314 86.748 162.625 85.994 161.637 85.994C160.493 85.994 159.557 86.774 159.557 87.723V92H158.582V85.279H159.557V86.345C159.947 85.63 160.805 85.123 161.767 85.123ZM168.889 91.012L169.37 91.727C169.019 92 168.577 92.156 168.122 92.156C167.16 92.156 166.484 91.441 166.484 90.44V86.15H165.431V85.279H166.484V83.433H167.459V85.279H169.11V86.15H167.459V90.44C167.459 90.934 167.797 91.285 168.187 91.285C168.486 91.285 168.746 91.168 168.889 91.012Z" fill="#E3EAED"/>
<path fill-rule="evenodd" clip-rule="evenodd" d="M35.1768 104H384.809V116H35.1768V104Z" fill="#2D4048"/>
<path fill-rule="evenodd" clip-rule="evenodd" d="M113 104H288V116H113V104Z" fill="#2EC0FF"/>
<path d="M39.488 131.132C37.398 131.132 35.616 129.339 35.616 127.216C35.616 125.093 37.398 123.311 39.488 123.311C40.533 123.311 41.501 123.751 42.205 124.466L41.622 125.06C41.072 124.477 40.313 124.103 39.488 124.103C37.86 124.103 36.485 125.533 36.485 127.216C36.485 128.91 37.86 130.34 39.488 130.34C40.313 130.34 41.072 129.966 41.622 129.383L42.205 129.977C41.501 130.681 40.533 131.132 39.488 131.132ZM46.2152 131.132C44.5982 131.132 43.2782 129.79 43.2782 128.151C43.2782 126.512 44.5982 125.181 46.2152 125.181C47.8212 125.181 49.1412 126.512 49.1412 128.151C49.1412 129.79 47.8212 131.132 46.2152 131.132ZM46.2152 130.395C47.3482 130.395 48.2832 129.383 48.2832 128.151C48.2832 126.919 47.3482 125.918 46.2152 125.918C45.0712 125.918 44.1362 126.919 44.1362 128.151C44.1362 129.383 45.0712 130.395 46.2152 130.395ZM53.4573 125.181C54.7223 125.181 55.5913 126.072 55.5913 127.381V131H54.7663V127.491C54.7663 126.556 54.1833 125.918 53.3473 125.918C52.3793 125.918 51.5873 126.578 51.5873 127.381V131H50.7623V125.313H51.5873V126.215C51.9173 125.61 52.6433 125.181 53.4573 125.181ZM60.2637 125.181C61.5287 125.181 62.3977 126.072 62.3977 127.381V131H61.5727V127.491C61.5727 126.556 60.9897 125.918 60.1537 125.918C59.1857 125.918 58.3937 126.578 58.3937 127.381V131H57.5687V125.313H58.3937V126.215C58.7237 125.61 59.4497 125.181 60.2637 125.181ZM66.7732 130.395C67.4442 130.395 68.2142 130.098 68.5662 129.713L69.0722 130.252C68.5772 130.791 67.5762 131.132 66.7842 131.132C65.2662 131.132 63.9022 129.889 63.9022 128.14C63.9022 126.446 65.1782 125.181 66.7072 125.181C68.4232 125.181 69.4022 126.479 69.4022 128.47H64.7492C64.8702 129.581 65.6512 130.395 66.7732 130.395ZM66.7402 125.918C65.7282 125.918 64.9142 126.633 64.7602 127.733H68.5882C68.4782 126.71 67.8732 125.918 66.7402 125.918ZM73.4303 131.132C71.8353 131.132 70.4823 129.768 70.4823 128.151C70.4823 126.534 71.8353 125.181 73.4303 125.181C74.2003 125.181 74.9153 125.5 75.4543 126.017L74.8823 126.578C74.5083 126.171 73.9913 125.918 73.4303 125.918C72.2973 125.918 71.3513 126.941 71.3513 128.151C71.3513 129.372 72.2973 130.395 73.4303 130.395C74.0023 130.395 74.5303 130.131 74.9153 129.702L75.4873 130.263C74.9483 130.802 74.2223 131.132 73.4303 131.132ZM79.0924 130.164L79.4994 130.769C79.2024 131 78.8284 131.132 78.4434 131.132C77.6294 131.132 77.0574 130.527 77.0574 129.68V126.05H76.1664V125.313H77.0574V123.751H77.8824V125.313H79.2794V126.05H77.8824V129.68C77.8824 130.098 78.1684 130.395 78.4984 130.395C78.7514 130.395 78.9714 130.296 79.0924 130.164ZM81.3023 124.279C80.9943 124.279 80.7523 124.026 80.7523 123.729C80.7523 123.443 80.9943 123.19 81.3023 123.19C81.5993 123.19 81.8413 123.443 81.8413 123.729C81.8413 124.026 81.5993 124.279 81.3023 124.279ZM80.8843 131V125.313H81.7093V131H80.8843ZM86.5186 125.181C87.7836 125.181 88.6526 126.072 88.6526 127.381V131H87.8276V127.491C87.8276 126.556 87.2446 125.918 86.4086 125.918C85.4406 125.918 84.6486 126.578 84.6486 127.381V131H83.8236V125.313H84.6486V126.215C84.9786 125.61 85.7046 125.181 86.5186 125.181ZM94.821 125.313H95.646V130.395C95.646 131.858 94.491 132.892 92.852 132.892C91.928 132.892 91.07 132.573 90.553 132.133L90.916 131.484C91.356 131.902 92.038 132.155 92.742 132.155C94.051 132.155 94.821 131.506 94.821 130.395V129.471C94.381 130.164 93.655 130.582 92.753 130.582C91.224 130.582 90.135 129.46 90.135 127.876C90.135 126.292 91.224 125.181 92.753 125.181C93.655 125.181 94.381 125.599 94.821 126.292V125.313ZM92.907 129.845C94.029 129.845 94.821 129.031 94.821 127.876C94.821 126.732 94.029 125.918 92.907 125.918C91.796 125.918 91.004 126.732 91.004 127.876C91.004 129.031 91.796 129.845 92.907 129.845ZM103.188 130.164L103.595 130.769C103.298 131 102.924 131.132 102.539 131.132C101.725 131.132 101.153 130.527 101.153 129.68V126.05H100.262V125.313H101.153V123.751H101.978V125.313H103.375V126.05H101.978V129.68C101.978 130.098 102.264 130.395 102.594 130.395C102.847 130.395 103.067 130.296 103.188 130.164ZM107.422 131.132C105.805 131.132 104.485 129.79 104.485 128.151C104.485 126.512 105.805 125.181 107.422 125.181C109.028 125.181 110.348 126.512 110.348 128.151C110.348 129.79 109.028 131.132 107.422 131.132ZM107.422 130.395C108.555 130.395 109.49 129.383 109.49 128.151C109.49 126.919 108.555 125.918 107.422 125.918C106.278 125.918 105.343 126.919 105.343 128.151C105.343 129.383 106.278 130.395 107.422 130.395ZM116.958 131.132C116.166 131.132 115.286 130.835 114.604 130.285L115.033 129.68C115.682 130.153 116.331 130.395 116.958 130.395C117.706 130.395 118.212 130.043 118.212 129.504C118.212 128.888 117.552 128.69 116.782 128.47C115.407 128.074 114.879 127.667 114.879 126.853C114.879 125.819 115.737 125.181 116.87 125.181C117.574 125.181 118.3 125.423 118.905 125.819L118.509 126.457C117.937 126.094 117.376 125.918 116.87 125.918C116.232 125.918 115.704 126.204 115.704 126.754C115.704 127.249 116.122 127.403 117.178 127.744C118.091 128.03 119.037 128.338 119.037 129.416C119.037 130.461 118.135 131.132 116.958 131.132ZM123.049 130.395C123.72 130.395 124.49 130.098 124.842 129.713L125.348 130.252C124.853 130.791 123.852 131.132 123.06 131.132C121.542 131.132 120.178 129.889 120.178 128.14C120.178 126.446 121.454 125.181 122.983 125.181C124.699 125.181 125.678 126.479 125.678 128.47H121.025C121.146 129.581 121.927 130.395 123.049 130.395ZM123.016 125.918C122.004 125.918 121.19 126.633 121.036 127.733H124.864C124.754 126.71 124.149 125.918 123.016 125.918ZM128.089 126.424C128.43 125.665 129.244 125.181 130.289 125.181V125.918C129.002 125.918 128.089 126.71 128.089 127.821V131H127.264V125.313H128.089V126.424ZM133.399 131L130.979 125.313H131.903L133.795 130.032L135.654 125.313H136.578L134.191 131H133.399ZM140.246 130.395C140.917 130.395 141.687 130.098 142.039 129.713L142.545 130.252C142.05 130.791 141.049 131.132 140.257 131.132C138.739 131.132 137.375 129.889 137.375 128.14C137.375 126.446 138.651 125.181 140.18 125.181C141.896 125.181 142.875 126.479 142.875 128.47H138.222C138.343 129.581 139.124 130.395 140.246 130.395ZM140.213 125.918C139.201 125.918 138.387 126.633 138.233 127.733H142.061C141.951 126.71 141.346 125.918 140.213 125.918ZM145.286 126.424C145.627 125.665 146.441 125.181 147.486 125.181V125.918C146.199 125.918 145.286 126.71 145.286 127.821V131H144.461V125.313H145.286V126.424Z" fill="#E3EAED"/>
<path d="M273.267 131.132C272.101 131.132 271.221 130.637 270.605 129.933L271.166 129.306C271.749 129.944 272.464 130.362 273.3 130.362C274.345 130.362 275.082 129.636 275.082 128.679C275.082 127.711 274.334 127.051 273.278 127.051C272.629 127.051 272.068 127.282 271.595 127.634L270.968 127.326L271.078 123.443H275.544V124.257H271.914L271.837 126.798C272.244 126.523 272.761 126.292 273.454 126.292C274.818 126.292 275.951 127.15 275.951 128.646C275.951 130.142 274.818 131.132 273.267 131.132ZM276.721 131.814L280.582 122.827H281.517L277.656 131.814H276.721ZM283.626 131V124.488L282.306 125.346L281.932 124.708L283.791 123.443H284.484V131H283.626ZM289.649 131.132C287.801 131.132 286.503 129.515 286.503 127.216C286.503 124.928 287.801 123.311 289.649 123.311C291.486 123.311 292.784 124.928 292.784 127.216C292.784 129.515 291.486 131.132 289.649 131.132ZM289.649 130.34C290.98 130.34 291.915 129.042 291.915 127.216C291.915 125.39 290.98 124.103 289.649 124.103C288.318 124.103 287.372 125.39 287.372 127.216C287.372 129.042 288.318 130.34 289.649 130.34ZM300.035 130.164L300.442 130.769C300.145 131 299.771 131.132 299.386 131.132C298.572 131.132 298 130.527 298 129.68V126.05H297.109V125.313H298V123.751H298.825V125.313H300.222V126.05H298.825V129.68C298.825 130.098 299.111 130.395 299.441 130.395C299.694 130.395 299.914 130.296 300.035 130.164ZM303.862 125.181C305.413 125.181 306.172 126.16 306.172 127.535V131H305.347V130.109C304.94 130.78 304.093 131.132 303.345 131.132C302.146 131.132 301.266 130.439 301.266 129.317C301.266 128.184 302.278 127.425 303.499 127.425C304.115 127.425 304.764 127.557 305.347 127.744V127.535C305.347 126.765 305.039 125.885 303.807 125.885C303.235 125.885 302.663 126.138 302.146 126.402L301.816 125.731C302.63 125.324 303.312 125.181 303.862 125.181ZM303.488 130.406C304.236 130.406 305.127 130.021 305.347 129.218V128.349C304.83 128.206 304.247 128.118 303.631 128.118C302.784 128.118 302.069 128.602 302.069 129.284C302.069 129.988 302.685 130.406 303.488 130.406ZM309.91 131.132C309.118 131.132 308.238 130.835 307.556 130.285L307.985 129.68C308.634 130.153 309.283 130.395 309.91 130.395C310.658 130.395 311.164 130.043 311.164 129.504C311.164 128.888 310.504 128.69 309.734 128.47C308.359 128.074 307.831 127.667 307.831 126.853C307.831 125.819 308.689 125.181 309.822 125.181C310.526 125.181 311.252 125.423 311.857 125.819L311.461 126.457C310.889 126.094 310.328 125.918 309.822 125.918C309.184 125.918 308.656 126.204 308.656 126.754C308.656 127.249 309.074 127.403 310.13 127.744C311.043 128.03 311.989 128.338 311.989 129.416C311.989 130.461 311.087 131.132 309.91 131.132ZM313.603 131V123.311H314.428V128.459L317.541 125.313H318.597L316.034 127.92L318.454 131H317.42L315.451 128.481L314.428 129.493V131H313.603ZM321.6 131.132C320.808 131.132 319.928 130.835 319.246 130.285L319.675 129.68C320.324 130.153 320.973 130.395 321.6 130.395C322.348 130.395 322.854 130.043 322.854 129.504C322.854 128.888 322.194 128.69 321.424 128.47C320.049 128.074 319.521 127.667 319.521 126.853C319.521 125.819 320.379 125.181 321.512 125.181C322.216 125.181 322.942 125.423 323.547 125.819L323.151 126.457C322.579 126.094 322.018 125.918 321.512 125.918C320.874 125.918 320.346 126.204 320.346 126.754C320.346 127.249 320.764 127.403 321.82 127.744C322.733 128.03 323.679 128.338 323.679 129.416C323.679 130.461 322.777 131.132 321.6 131.132ZM330.964 131.132C329.369 131.132 328.016 129.768 328.016 128.151C328.016 126.534 329.369 125.181 330.964 125.181C331.734 125.181 332.449 125.5 332.988 126.017L332.416 126.578C332.042 126.171 331.525 125.918 330.964 125.918C329.831 125.918 328.885 126.941 328.885 128.151C328.885 129.372 329.831 130.395 330.964 130.395C331.536 130.395 332.064 130.131 332.449 129.702L333.021 130.263C332.482 130.802 331.756 131.132 330.964 131.132ZM336.868 131.132C335.251 131.132 333.931 129.79 333.931 128.151C333.931 126.512 335.251 125.181 336.868 125.181C338.474 125.181 339.794 126.512 339.794 128.151C339.794 129.79 338.474 131.132 336.868 131.132ZM336.868 130.395C338.001 130.395 338.936 129.383 338.936 128.151C338.936 126.919 338.001 125.918 336.868 125.918C335.724 125.918 334.789 126.919 334.789 128.151C334.789 129.383 335.724 130.395 336.868 130.395ZM347.564 125.181C348.752 125.181 349.588 126.094 349.588 127.381V131H348.763V127.491C348.763 126.567 348.224 125.918 347.454 125.918C346.552 125.918 345.914 126.523 345.914 127.381V131H345.089V127.491C345.089 126.567 344.55 125.918 343.78 125.918C342.878 125.918 342.24 126.523 342.24 127.381V131H341.415V125.313H342.24V126.149C342.526 125.555 343.142 125.181 343.89 125.181C344.792 125.181 345.496 125.709 345.782 126.534C345.958 125.731 346.662 125.181 347.564 125.181ZM354.466 125.181C355.962 125.181 357.084 126.413 357.084 128.151C357.084 129.9 355.962 131.132 354.466 131.132C353.553 131.132 352.827 130.681 352.398 129.933V132.892H351.573V125.313H352.398V126.38C352.827 125.632 353.553 125.181 354.466 125.181ZM354.312 130.395C355.423 130.395 356.215 129.46 356.215 128.151C356.215 126.842 355.423 125.918 354.312 125.918C353.19 125.918 352.398 126.842 352.398 128.151C352.398 129.46 353.19 130.395 354.312 130.395ZM358.756 131V123.311H359.581V131H358.756ZM364.093 130.395C364.764 130.395 365.534 130.098 365.886 129.713L366.392 130.252C365.897 130.791 364.896 131.132 364.104 131.132C362.586 131.132 361.222 129.889 361.222 128.14C361.222 126.446 362.498 125.181 364.027 125.181C365.743 125.181 366.722 126.479 366.722 128.47H362.069C362.19 129.581 362.971 130.395 364.093 130.395ZM364.06 125.918C363.048 125.918 362.234 126.633 362.08 127.733H365.908C365.798 126.71 365.193 125.918 364.06 125.918ZM370.508 130.164L370.915 130.769C370.618 131 370.244 131.132 369.859 131.132C369.045 131.132 368.473 130.527 368.473 129.68V126.05H367.582V125.313H368.473V123.751H369.298V125.313H370.695V126.05H369.298V129.68C369.298 130.098 369.584 130.395 369.914 130.395C370.167 130.395 370.387 130.296 370.508 130.164ZM374.698 130.395C375.369 130.395 376.139 130.098 376.491 129.713L376.997 130.252C376.502 130.791 375.501 131.132 374.709 131.132C373.191 131.132 371.827 129.889 371.827 128.14C371.827 126.446 373.103 125.181 374.632 125.181C376.348 125.181 377.327 126.479 377.327 128.47H372.674C372.795 129.581 373.576 130.395 374.698 130.395ZM374.665 125.918C373.653 125.918 372.839 126.633 372.685 127.733H376.513C376.403 126.71 375.798 125.918 374.665 125.918ZM383.159 123.311H383.984V131H383.159V129.933C382.73 130.681 382.004 131.132 381.091 131.132C379.595 131.132 378.473 129.9 378.473 128.151C378.473 126.413 379.595 125.181 381.091 125.181C382.004 125.181 382.73 125.632 383.159 126.38V123.311ZM381.245 130.395C382.367 130.395 383.159 129.46 383.159 128.151C383.159 126.842 382.367 125.918 381.245 125.918C380.134 125.918 379.342 126.842 379.342 128.151C379.342 129.46 380.134 130.395 381.245 130.395Z" fill="#E3EAED"/>
<rect x="0.5" y="0.5" width="451" height="215" rx="3.5" stroke="#4F6169"/>
</svg>
