<svg width="928" height="216" viewBox="0 0 928 216" fill="none" xmlns="http://www.w3.org/2000/svg">
<rect x="0.5" y="0.5" width="292" height="215" fill="#1B2B32"/>
<rect width="293" height="14" fill="#3A4D55"/>
<g opacity="0.4">
<path d="M16.4438 50.28C16.4438 49.73 16.8824 49.29 17.4305 49.29H223.029C223.567 49.29 224.015 49.73 224.015 50.28C224.015 50.83 223.577 51.27 223.029 51.27H17.4305C16.8824 51.27 16.4438 50.83 16.4438 50.28Z" fill="#ACB8BE"/>
<path d="M16.4438 57.1602C16.4438 56.6102 16.8824 56.1702 17.4305 56.1702H163.024C163.562 56.1702 164.01 56.6102 164.01 57.1602C164.01 57.7102 163.572 58.1502 163.024 58.1502H17.4305C16.8824 58.1502 16.4438 57.7102 16.4438 57.1602Z" fill="#ACB8BE"/>
</g>
<path d="M272.559 78.96H18.7555C17.6692 78.96 16.7922 79.84 16.7922 80.93V100.67C16.7922 101.76 17.6692 102.64 18.7555 102.64H272.549C273.636 102.64 274.513 101.76 274.513 100.67V80.93C274.513 79.84 273.636 78.96 272.549 78.96H272.559Z" fill="#1B2B32"/>
<path d="M272.56 102.65H18.7559C17.6696 102.65 16.7826 101.76 16.7826 100.67V80.93C16.7826 79.84 17.6696 78.95 18.7559 78.95H272.55C273.636 78.95 274.523 79.84 274.523 80.93V100.67C274.523 101.76 273.636 102.65 272.55 102.65H272.56ZM18.7559 79.96C18.2177 79.96 17.7892 80.4 17.7892 80.93V100.67C17.7892 101.21 18.2277 101.64 18.7559 101.64H272.55C273.088 101.64 273.516 101.2 273.516 100.67V80.93C273.516 80.39 273.078 79.96 272.55 79.96H18.7559Z" fill="#ACB9BE"/>
<path d="M37.2033 93.2701H39.7745C40.7114 93.2701 41.3791 92.6501 41.3791 91.7901C41.3791 91.2001 41.0203 90.7101 40.3924 90.3901C40.8808 90.1101 41.1598 89.7701 41.1598 89.2001C41.1598 88.4101 40.5419 87.8501 39.6749 87.8501H37.1934V93.2701H37.2033ZM37.8212 90.1401V88.4001H39.5254C40.1234 88.4001 40.5519 88.7601 40.5519 89.2701C40.5519 89.7801 40.1234 90.1401 39.5254 90.1401H37.8212ZM37.8212 92.7101V90.7001H39.6251C40.2928 90.7001 40.7612 91.1201 40.7612 91.7001C40.7612 92.2801 40.2928 92.7001 39.6251 92.7001H37.8212V92.7101ZM44.0799 89.0901C43.6912 89.0901 43.2029 89.1901 42.6149 89.4801L42.854 89.9601C43.2228 89.7701 43.6314 89.5901 44.04 89.5901C44.917 89.5901 45.1462 90.2201 45.1462 90.7701V90.9201C44.7276 90.7901 44.2692 90.6901 43.8207 90.6901C42.9437 90.6901 42.2262 91.2301 42.2262 92.0501C42.2262 92.8701 42.854 93.3501 43.7111 93.3501C44.2493 93.3501 44.8472 93.1001 45.1462 92.6201V93.2601H45.7342V90.7701C45.7342 89.7801 45.196 89.0801 44.0799 89.0801V89.0901ZM43.8108 92.8401C43.2327 92.8401 42.7942 92.5401 42.7942 92.0301C42.7942 91.5201 43.3025 91.1901 43.9104 91.1901C44.3489 91.1901 44.7675 91.2501 45.1363 91.3601V91.9801C44.9768 92.5601 44.339 92.8301 43.8108 92.8301V92.8401ZM48.3752 93.3601C49.2123 93.3601 49.8601 92.8801 49.8601 92.1301C49.8601 91.3801 49.1824 91.1401 48.5347 90.9301C47.7772 90.6901 47.4783 90.5701 47.4783 90.2201C47.4783 89.8301 47.857 89.6201 48.3154 89.6201C48.6742 89.6201 49.0828 89.7501 49.4914 90.0101L49.7704 89.5501C49.3419 89.2701 48.8137 89.0901 48.3154 89.0901C47.5082 89.0901 46.8903 89.5501 46.8903 90.2901C46.8903 90.8701 47.269 91.1701 48.2556 91.4501C48.8037 91.6101 49.2821 91.7501 49.2821 92.1901C49.2821 92.5801 48.9233 92.8301 48.3852 92.8301C47.9367 92.8301 47.4683 92.6601 47.0099 92.3201L46.7009 92.7501C47.1892 93.1401 47.8171 93.3601 48.3852 93.3601H48.3752ZM51.1258 88.4401C51.3351 88.4401 51.5145 88.2601 51.5145 88.0501C51.5145 87.8401 51.3451 87.6601 51.1258 87.6601C50.9066 87.6601 50.7371 87.8401 50.7371 88.0501C50.7371 88.2601 50.9066 88.4401 51.1258 88.4401ZM50.8268 93.2601H51.4148V89.1801H50.8268V93.2601ZM54.4943 93.3501C55.0624 93.3501 55.5806 93.1101 55.9693 92.7301L55.5607 92.3301C55.2816 92.6401 54.9029 92.8301 54.4943 92.8301C53.6871 92.8301 53.0094 92.1001 53.0094 91.2201C53.0094 90.3401 53.6871 89.6201 54.4943 89.6201C54.893 89.6201 55.2617 89.8001 55.5308 90.0901L55.9394 89.6901C55.5507 89.3201 55.0424 89.0901 54.4943 89.0901C53.3582 89.0901 52.3815 90.0601 52.3815 91.2201C52.3815 92.3801 53.3482 93.3601 54.4943 93.3601V93.3501ZM59.4474 88.4301C59.6567 88.4301 59.8361 88.2501 59.8361 88.0401C59.8361 87.8301 59.6667 87.6501 59.4474 87.6501C59.2282 87.6501 59.0587 87.8301 59.0587 88.0401C59.0587 88.2501 59.2282 88.4301 59.4474 88.4301ZM59.1484 93.2501H59.7364V89.1701H59.1484V93.2501ZM62.8558 89.0701C62.2777 89.0701 61.7495 89.3901 61.5203 89.8201V89.1601H60.9323V93.2401H61.5203V90.6401C61.5203 90.0701 62.0984 89.5901 62.776 89.5901C63.374 89.5901 63.7926 90.0601 63.7926 90.7201V93.2401H64.3806V90.6401C64.3806 89.7201 63.7527 89.0601 62.8558 89.0601V89.0701ZM66.4934 88.6001C66.4934 88.3001 66.7026 88.0901 66.9319 88.0901C67.1112 88.0901 67.2707 88.1601 67.3604 88.2601L67.6494 87.8301C67.4401 87.6601 67.171 87.5701 66.892 87.5701C66.314 87.5701 65.9054 88.0001 65.9054 88.6101V89.1701H65.2675V89.7001H65.9054V93.2501H66.4934V89.7001H67.49V89.1701H66.4934V88.6101V88.6001ZM70.2206 93.3401C71.3568 93.3401 72.3235 92.3601 72.3235 91.2001C72.3235 90.0401 71.3667 89.0701 70.2206 89.0701C69.0746 89.0701 68.1078 90.0401 68.1078 91.2001C68.1078 92.3601 69.0746 93.3401 70.2206 93.3401ZM70.2206 92.8101C69.4134 92.8101 68.7357 92.0801 68.7357 91.2001C68.7357 90.3201 69.4134 89.6001 70.2206 89.6001C71.0279 89.6001 71.6956 90.3301 71.6956 91.2001C71.6956 92.0701 71.0179 92.8101 70.2206 92.8101ZM73.9379 89.9601V89.1601H73.35V93.2401H73.9379V90.9601C73.9379 90.1601 74.5957 89.5901 75.5126 89.5901V89.0601C74.7651 89.0601 74.1871 89.4101 73.9379 89.9501V89.9601ZM80.7248 89.0701C80.1069 89.0701 79.5787 89.4101 79.4093 89.9401C79.19 89.4101 78.7117 89.0701 78.0938 89.0701C77.5556 89.0701 77.1171 89.3401 76.9178 89.7601V89.1601H76.3298V93.2401H76.9178V90.6401C76.9178 90.0201 77.3762 89.5901 78.024 89.5901C78.5721 89.5901 78.9608 90.0601 78.9608 90.7201V93.2401H79.5488V90.6401C79.5488 90.0201 80.0072 89.5901 80.655 89.5901C81.2032 89.5901 81.5918 90.0601 81.5918 90.7201V93.2401H82.1798V90.6401C82.1798 89.7201 81.5819 89.0601 80.7348 89.0601L80.7248 89.0701ZM85.0201 89.0701C84.6315 89.0701 84.1431 89.1701 83.5551 89.4601L83.7943 89.9401C84.163 89.7501 84.5717 89.5701 84.9803 89.5701C85.8573 89.5701 86.0865 90.2001 86.0865 90.7501V90.9001C85.6679 90.7701 85.2095 90.6701 84.761 90.6701C83.884 90.6701 83.1665 91.2101 83.1665 92.0301C83.1665 92.8501 83.7943 93.3301 84.6514 93.3301C85.1895 93.3301 85.7975 93.0801 86.0865 92.6001V93.2401H86.6745V90.7501C86.6745 89.7601 86.1363 89.0601 85.0201 89.0601V89.0701ZM84.751 92.8201C84.173 92.8201 83.7345 92.5201 83.7345 92.0101C83.7345 91.5001 84.2428 91.1701 84.8507 91.1701C85.2892 91.1701 85.7078 91.2301 86.0765 91.3401V91.9601C85.9171 92.5401 85.2792 92.8101 84.751 92.8101V92.8201ZM89.6643 92.6501C89.5746 92.7401 89.4251 92.8201 89.2357 92.8201C88.9966 92.8201 88.7972 92.6101 88.7972 92.3101V89.7001H89.7938V89.1701H88.7972V88.0501H88.2092V89.1701H87.5714V89.7001H88.2092V92.3101C88.2092 92.9201 88.6179 93.3501 89.1959 93.3501C89.4749 93.3501 89.734 93.2601 89.9533 93.0901L89.6643 92.6601V92.6501ZM91.0794 88.4301C91.2887 88.4301 91.4681 88.2501 91.4681 88.0401C91.4681 87.8301 91.2987 87.6501 91.0794 87.6501C90.8602 87.6501 90.6908 87.8301 90.6908 88.0401C90.6908 88.2501 90.8602 88.4301 91.0794 88.4301ZM90.7805 93.2501H91.3685V89.1701H90.7805V93.2501ZM94.4479 93.3401C95.594 93.3401 96.5508 92.3601 96.5508 91.2001C96.5508 90.0401 95.594 89.0701 94.4479 89.0701C93.3019 89.0701 92.3352 90.0401 92.3352 91.2001C92.3352 92.3601 93.3019 93.3401 94.4479 93.3401ZM94.4479 92.8101C93.6407 92.8101 92.963 92.0801 92.963 91.2001C92.963 90.3201 93.6407 89.6001 94.4479 89.6001C95.2552 89.6001 95.9229 90.3301 95.9229 91.2001C95.9229 92.0701 95.2452 92.8101 94.4479 92.8101ZM99.4608 89.0701C98.8828 89.0701 98.3546 89.3901 98.1254 89.8201V89.1601H97.5374V93.2401H98.1254V90.6401C98.1254 90.0701 98.7034 89.5901 99.3811 89.5901C99.9791 89.5901 100.398 90.0601 100.398 90.7201V93.2401H100.986V90.6401C100.986 89.7201 100.358 89.0601 99.4608 89.0601V89.0701Z" fill="#ACB8BE"/>
<path d="M25.8315 95.1001C28.3031 95.1001 30.3063 93.0901 30.3063 90.6101C30.3063 88.1301 28.3031 86.1201 25.8315 86.1201C23.36 86.1201 21.3568 88.1301 21.3568 90.6101C21.3568 93.0901 23.36 95.1001 25.8315 95.1001Z" fill="#1B2B32"/>
<path d="M25.8323 95.5502C23.1215 95.5502 20.9091 93.3302 20.9091 90.6102C20.9091 87.8902 23.1215 85.6702 25.8323 85.6702C28.543 85.6702 30.7555 87.8902 30.7555 90.6102C30.7555 93.3302 28.543 95.5502 25.8323 95.5502ZM25.8323 86.5802C23.6198 86.5802 21.816 88.3902 21.816 90.6102C21.816 92.8302 23.6198 94.6402 25.8323 94.6402C28.0447 94.6402 29.8485 92.8302 29.8485 90.6102C29.8485 88.3902 28.0447 86.5802 25.8323 86.5802Z" fill="#67CA16"/>
<path d="M25.2329 92.5802C25.1133 92.5802 24.9937 92.5302 24.904 92.4402L23.2297 90.7202C23.0503 90.5402 23.0603 90.2502 23.2297 90.0802C23.4091 89.9102 23.6981 89.9102 23.8675 90.0802L25.2129 91.4602L27.7543 88.7702C27.9237 88.5902 28.2127 88.5802 28.3921 88.7502C28.5715 88.9202 28.5814 89.2102 28.412 89.3902L25.5418 92.4302C25.4521 92.5202 25.3226 92.5602 25.2129 92.5702L25.2329 92.5802Z" fill="#67CA16"/>
<path d="M241.435 88.97L240.15 92.05L238.864 88.97H238.047L239.741 93.04H240.558L242.253 88.97H241.435ZM243.688 93.04H244.415V88.97H243.688V93.04ZM249.209 89.65V88.98H246.159V93.05H249.209V92.38H246.897V91.32H248.99V90.65H246.897V89.67H249.209V89.65ZM251.82 93.04H252.547L253.564 90.02L254.58 93.04H255.318L256.604 88.97H255.796L254.929 91.88L253.973 88.97H253.165L252.199 91.88L251.332 88.97H250.524L251.81 93.04H251.82Z" fill="#2EC0FF"/>
<path d="M226.606 97.4301H268.074V98.5001H226.606V97.4301ZM269.43 96.0701V86.0501H270.496V96.0701H269.43ZM268.074 84.6901H226.606V83.6201H268.074V84.6901ZM225.25 86.0501V96.0701H224.184V86.0501H225.25ZM226.606 84.6901C225.858 84.6901 225.25 85.3001 225.25 86.0501H224.184C224.184 84.7101 225.27 83.6201 226.606 83.6201V84.6901ZM269.43 86.0501C269.43 85.3001 268.822 84.6901 268.074 84.6901V83.6201C269.41 83.6201 270.496 84.7101 270.496 86.0501H269.43ZM268.074 97.4301C268.822 97.4301 269.43 96.8201 269.43 96.0701H270.496C270.496 97.4101 269.41 98.5001 268.074 98.5001V97.4301ZM226.606 98.5001C225.27 98.5001 224.184 97.4101 224.184 96.0701H225.25C225.25 96.8201 225.858 97.4301 226.606 97.4301V98.5001Z" fill="#2EC0FF"/>
<path d="M272.559 108.56H18.7555C17.6692 108.56 16.7922 109.44 16.7922 110.53V130.27C16.7922 131.36 17.6692 132.24 18.7555 132.24H272.549C273.636 132.24 274.513 131.36 274.513 130.27V110.53C274.513 109.44 273.636 108.56 272.549 108.56H272.559Z" fill="#1B2B32"/>
<path d="M272.56 132.25H18.7559C17.6696 132.25 16.7826 131.36 16.7826 130.27V110.53C16.7826 109.44 17.6696 108.55 18.7559 108.55H272.55C273.636 108.55 274.523 109.44 274.523 110.53V130.27C274.523 131.36 273.636 132.25 272.55 132.25H272.56ZM18.7559 109.57C18.2177 109.57 17.7892 110.01 17.7892 110.54V130.28C17.7892 130.82 18.2277 131.25 18.7559 131.25H272.55C273.088 131.25 273.516 130.81 273.516 130.28V110.54C273.516 110 273.078 109.57 272.55 109.57H18.7559Z" fill="#ACB9BE"/>
<path d="M41.488 117.45L39.445 122.12L37.392 117.45H36.7242L39.1061 122.87H39.7738L42.1557 117.45H41.488ZM44.2984 122.44C43.4911 122.44 42.9331 121.86 42.8533 121.06H46.182C46.182 119.63 45.4843 118.7 44.2585 118.7C43.1623 118.7 42.2554 119.61 42.2554 120.82C42.2554 122.03 43.232 122.97 44.3183 122.97C44.8864 122.97 45.6039 122.73 45.9527 122.34L45.594 121.95C45.3448 122.23 44.7867 122.44 44.3084 122.44H44.2984ZM44.2785 119.23C45.0857 119.23 45.5242 119.8 45.6039 120.53H42.8633C42.9729 119.74 43.5509 119.23 44.2785 119.23ZM47.7965 119.59V118.79H47.2085V122.87H47.7965V120.59C47.7965 119.79 48.4542 119.22 49.3711 119.22V118.69C48.6236 118.69 48.0456 119.04 47.7965 119.58V119.59ZM50.4773 118.05C50.6866 118.05 50.866 117.87 50.866 117.66C50.866 117.45 50.6966 117.27 50.4773 117.27C50.2581 117.27 50.0886 117.45 50.0886 117.66C50.0886 117.87 50.2581 118.05 50.4773 118.05ZM50.1783 122.87H50.7663V118.79H50.1783V122.87ZM52.8791 118.23C52.8791 117.93 53.0884 117.72 53.3176 117.72C53.497 117.72 53.6565 117.79 53.7461 117.89L54.0352 117.46C53.8259 117.29 53.5568 117.2 53.2777 117.2C52.6997 117.2 52.2911 117.63 52.2911 118.24V118.8H51.6533V119.33H52.2911V122.88H52.8791V119.33H53.8757V118.8H52.8791V118.24V118.23ZM55.3208 124.29C55.8789 124.29 56.2775 124.02 56.5566 123.33L58.4102 118.79H57.7724L56.427 122.18L55.0019 118.79H54.3441L56.1181 122.89L55.8789 123.4C55.7194 123.68 55.55 123.76 55.2909 123.76C55.1215 123.76 54.952 123.73 54.8125 123.66L54.673 124.17C54.8623 124.26 55.0816 124.3 55.3208 124.3V124.29Z" fill="#ACB8BE"/>
<path d="M25.8315 124.7C28.3031 124.7 30.3063 122.69 30.3063 120.22C30.3063 117.75 28.3031 115.73 25.8315 115.73C23.36 115.73 21.3568 117.74 21.3568 120.22C21.3568 122.7 23.36 124.7 25.8315 124.7Z" fill="#1B2B32"/>
<path d="M25.8323 125.15C23.1215 125.15 20.9091 122.93 20.9091 120.21C20.9091 117.49 23.1215 115.27 25.8323 115.27C28.543 115.27 30.7555 117.49 30.7555 120.21C30.7555 122.93 28.543 125.15 25.8323 125.15ZM25.8323 116.18C23.6198 116.18 21.816 117.99 21.816 120.21C21.816 122.43 23.6198 124.24 25.8323 124.24C28.0447 124.24 29.8485 122.43 29.8485 120.21C29.8485 117.99 28.0447 116.18 25.8323 116.18Z" fill="#67CA16"/>
<path d="M25.2329 122.19C25.1133 122.19 24.9937 122.14 24.904 122.05L23.2297 120.33C23.0503 120.15 23.0603 119.86 23.2297 119.69C23.4091 119.52 23.6981 119.52 23.8675 119.69L25.2129 121.07L27.7543 118.38C27.9237 118.2 28.2127 118.19 28.3921 118.36C28.5715 118.53 28.5814 118.82 28.412 119L25.5418 122.04C25.4521 122.13 25.3425 122.18 25.2129 122.18L25.2329 122.19Z" fill="#67CA16"/>
<path d="M241.435 118.57L240.15 121.65L238.864 118.57H238.047L239.741 122.64H240.558L242.253 118.57H241.435ZM243.688 122.64H244.415V118.57H243.688V122.64ZM249.209 119.25V118.58H246.159V122.65H249.209V121.98H246.897V120.92H248.99V120.25H246.897V119.27H249.209V119.25ZM251.82 122.64H252.547L253.564 119.62L254.58 122.64H255.318L256.604 118.57H255.796L254.929 121.48L253.973 118.57H253.165L252.199 121.48L251.332 118.57H250.524L251.81 122.64H251.82Z" fill="#2EC0FF"/>
<path d="M226.606 127.04H268.074V128.11H226.606V127.04ZM269.43 125.68V115.66H270.496V125.68H269.43ZM268.074 114.3H226.606V113.23H268.074V114.3ZM225.25 115.66V125.68H224.184V115.66H225.25ZM226.606 114.3C225.858 114.3 225.25 114.91 225.25 115.66H224.184C224.184 114.32 225.27 113.23 226.606 113.23V114.3ZM269.43 115.66C269.43 114.91 268.822 114.3 268.074 114.3V113.23C269.41 113.23 270.496 114.32 270.496 115.66H269.43ZM268.074 127.04C268.822 127.04 269.43 126.43 269.43 125.68H270.496C270.496 127.02 269.41 128.11 268.074 128.11V127.04ZM226.606 128.11C225.27 128.11 224.184 127.02 224.184 125.68H225.25C225.25 126.43 225.858 127.04 226.606 127.04V128.11Z" fill="#2EC0FF"/>
<path d="M272.29 138.17H18.7555C17.6692 138.17 16.7922 139.05 16.7922 140.14V159.88C16.7922 160.97 17.6692 161.85 18.7555 161.85H272.28C273.367 161.85 274.244 160.97 274.244 159.88V140.14C274.244 139.05 273.367 138.17 272.28 138.17H272.29Z" fill="#1B2B32"/>
<path d="M272.291 161.86H18.7559C17.6696 161.86 16.7826 160.97 16.7826 159.88V140.14C16.7826 139.05 17.6696 138.16 18.7559 138.16H272.281C273.367 138.16 274.254 139.05 274.254 140.14V159.88C274.254 160.97 273.367 161.86 272.281 161.86H272.291ZM18.7658 139.17C18.2277 139.17 17.7991 139.61 17.7991 140.14V159.88C17.7991 160.42 18.2376 160.85 18.7658 160.85H272.291C272.829 160.85 273.257 160.41 273.257 159.88V140.14C273.257 139.6 272.819 139.17 272.291 139.17H18.7559H18.7658Z" fill="#ACB9BE"/>
<path d="M28.9999 152.57C30.1261 152.57 30.8835 151.91 30.8835 151.01C30.8835 150.23 30.2656 149.83 29.7175 149.7C30.2756 149.53 30.7639 149.12 30.7639 148.43C30.7639 147.56 30.0065 146.96 28.98 146.96C28.1428 146.96 27.5349 147.37 27.1263 147.92L27.5349 148.29C27.9236 147.82 28.3422 147.52 28.9401 147.52C29.6178 147.52 30.136 147.93 30.136 148.5C30.136 149.12 29.5979 149.46 28.8704 149.46H28.2923V150.02H28.8704C29.7175 150.02 30.2656 150.34 30.2656 150.98C30.2656 151.62 29.7573 152.01 29.0099 152.01C28.3521 152.01 27.8239 151.69 27.4652 151.24L27.0366 151.64C27.4253 152.16 28.1129 152.57 28.9999 152.57ZM32.3385 152.57C32.5677 152.57 32.7571 152.37 32.7571 152.14C32.7571 151.92 32.5677 151.72 32.3385 151.72C32.0993 151.72 31.91 151.92 31.91 152.14C31.91 152.38 32.0993 152.57 32.3385 152.57ZM38.0989 152.57C39.3546 152.57 40.0024 151.87 40.0024 151.01C40.0024 150.05 39.2649 149.68 38.2284 149.44C37.3116 149.22 36.7734 149.02 36.7734 148.46C36.7734 147.96 37.2617 147.52 37.9294 147.52C38.4975 147.52 39.0357 147.78 39.4841 148.21L39.8628 147.73C39.3645 147.27 38.7666 146.96 37.9693 146.96C36.9328 146.96 36.1555 147.64 36.1555 148.51C36.1555 149.45 36.8432 149.79 37.9294 150.04C38.8762 150.26 39.3845 150.49 39.3845 151.07C39.3845 151.56 38.9559 152.02 38.1288 152.02C37.3714 152.02 36.8133 151.7 36.3548 151.24L35.9661 151.72C36.5043 152.26 37.2119 152.58 38.0989 152.58V152.57ZM42.8626 152.05C42.0554 152.05 41.4973 151.47 41.4175 150.67H44.7462C44.7462 149.24 44.0486 148.31 42.8227 148.31C41.7265 148.31 40.8196 149.22 40.8196 150.43C40.8196 151.64 41.7962 152.58 42.8825 152.58C43.4506 152.58 44.1682 152.34 44.517 151.95L44.1582 151.56C43.909 151.84 43.3509 152.05 42.8726 152.05H42.8626ZM42.8427 148.84C43.6499 148.84 44.0884 149.41 44.1682 150.14H41.4275C41.5371 149.35 42.1152 148.84 42.8427 148.84ZM47.4968 151.89C47.4071 151.98 47.2576 152.06 47.0683 152.06C46.8291 152.06 46.6298 151.85 46.6298 151.55V148.94H47.6264V148.41H46.6298V147.29H46.0418V148.41H45.4039V148.94H46.0418V151.55C46.0418 152.16 46.4504 152.59 47.0284 152.59C47.3074 152.59 47.5666 152.5 47.7858 152.33L47.4968 151.9V151.89ZM53.7654 148.41V151.01C53.7654 151.58 53.1874 152.06 52.5097 152.06C51.9117 152.06 51.4932 151.59 51.4932 150.93V148.41H50.9052V151.01C50.9052 151.93 51.533 152.59 52.43 152.59C53.008 152.59 53.5362 152.27 53.7654 151.84V152.5H54.3534V148.42H53.7654V148.41ZM57.682 148.32C57.0243 148.32 56.506 148.64 56.2071 149.18V148.41H55.6191V153.85H56.2071V151.73C56.516 152.27 57.0342 152.59 57.682 152.59C58.7484 152.59 59.5556 151.71 59.5556 150.45C59.5556 149.19 58.7484 148.32 57.682 148.32ZM57.5724 152.06C56.7652 152.06 56.2071 151.39 56.2071 150.45C56.2071 149.51 56.7751 148.85 57.5724 148.85C58.3697 148.85 58.9377 149.51 58.9377 150.45C58.9377 151.39 58.3697 152.06 57.5724 152.06ZM64.9871 148.32C64.3293 148.32 63.8111 148.64 63.5121 149.18V148.41H62.9241V153.85H63.5121V151.73C63.8211 152.27 64.3393 152.59 64.9871 152.59C66.0535 152.59 66.8607 151.71 66.8607 150.45C66.8607 149.19 66.0535 148.32 64.9871 148.32ZM64.8775 152.06C64.0702 152.06 63.5121 151.39 63.5121 150.45C63.5121 149.51 64.0802 148.85 64.8775 148.85C65.6748 148.85 66.2428 149.51 66.2428 150.45C66.2428 151.39 65.6748 152.06 64.8775 152.06ZM69.5316 148.32C69.1429 148.32 68.6546 148.42 68.0666 148.71L68.3058 149.19C68.6745 149 69.0831 148.82 69.4917 148.82C70.3687 148.82 70.598 149.45 70.598 150V150.15C70.1794 150.02 69.7209 149.92 69.2725 149.92C68.3955 149.92 67.6779 150.46 67.6779 151.28C67.6779 152.1 68.3058 152.58 69.1628 152.58C69.701 152.58 70.299 152.33 70.598 151.85V152.49H71.1859V150C71.1859 149.01 70.6478 148.31 69.5316 148.31V148.32ZM69.2625 152.07C68.6845 152.07 68.246 151.77 68.246 151.26C68.246 150.75 68.7542 150.42 69.3622 150.42C69.8007 150.42 70.2192 150.48 70.588 150.59V151.21C70.4285 151.79 69.7907 152.06 69.2625 152.06V152.07ZM72.9898 153.92C73.5479 153.92 73.9465 153.65 74.2256 152.96L76.0792 148.42H75.4414L74.096 151.81L72.6709 148.42H72.0131L73.7871 152.52L73.5479 153.03C73.3884 153.31 73.219 153.39 72.9599 153.39C72.7905 153.39 72.621 153.36 72.4815 153.29L72.342 153.8C72.5314 153.89 72.7506 153.93 72.9898 153.93V153.92ZM81.4509 148.32C80.833 148.32 80.3048 148.66 80.1354 149.19C79.9161 148.66 79.4378 148.32 78.8199 148.32C78.2817 148.32 77.8432 148.59 77.6439 149.01V148.41H77.0559V152.49H77.6439V149.89C77.6439 149.27 78.1023 148.84 78.7501 148.84C79.2983 148.84 79.6869 149.31 79.6869 149.97V152.49H80.2749V149.89C80.2749 149.27 80.7334 148.84 81.3811 148.84C81.9293 148.84 82.318 149.31 82.318 149.97V152.49H82.9059V149.89C82.9059 148.97 82.308 148.31 81.4609 148.31L81.4509 148.32ZM85.9256 152.06C85.1184 152.06 84.5603 151.48 84.4806 150.68H87.8092C87.8092 149.25 87.1116 148.32 85.8858 148.32C84.7895 148.32 83.8826 149.23 83.8826 150.44C83.8826 151.65 84.8593 152.59 85.9456 152.59C86.5136 152.59 87.2312 152.35 87.58 151.96L87.2212 151.57C86.9721 151.85 86.414 152.06 85.9356 152.06H85.9256ZM85.9057 148.85C86.713 148.85 87.1515 149.42 87.2312 150.15H84.4905C84.6002 149.36 85.1782 148.85 85.9057 148.85ZM90.7093 148.32C90.1313 148.32 89.6031 148.64 89.3739 149.07V148.41H88.7859V152.49H89.3739V149.89C89.3739 149.32 89.9519 148.84 90.6296 148.84C91.2275 148.84 91.6461 149.31 91.6461 149.97V152.49H92.2341V149.89C92.2341 148.97 91.6063 148.31 90.7093 148.31V148.32ZM95.2139 151.9C95.1242 151.99 94.9748 152.07 94.7854 152.07C94.5462 152.07 94.3469 151.86 94.3469 151.56V148.95H95.3435V148.42H94.3469V147.3H93.7589V148.42H93.1211V148.95H93.7589V151.56C93.7589 152.17 94.1675 152.6 94.7555 152.6C95.0345 152.6 95.2937 152.51 95.5129 152.34L95.2239 151.91L95.2139 151.9Z" fill="#ACB8BE"/>
<path d="M224.714 155.07C224.714 156.23 225.65 157.17 226.806 157.17H267.866C269.022 157.17 269.959 156.23 269.959 155.07V145.46C269.959 144.3 269.022 143.36 267.866 143.36H226.806C225.65 143.36 224.714 144.3 224.714 145.46V155.07Z" fill="#2EC0FF"/>
<path d="M237.669 152.31C238.636 152.31 239.194 151.79 239.194 151.07C239.194 150.35 238.626 150.06 237.779 149.87C237.131 149.72 236.832 149.6 236.832 149.27C236.832 148.99 237.111 148.74 237.52 148.74C237.928 148.74 238.327 148.91 238.686 149.22L239.084 148.68C238.676 148.33 238.197 148.11 237.55 148.11C236.692 148.11 236.095 148.63 236.095 149.34C236.095 150.1 236.683 150.35 237.52 150.54C238.167 150.69 238.456 150.81 238.456 151.14C238.456 151.43 238.197 151.68 237.699 151.68C237.171 151.68 236.732 151.47 236.364 151.13L235.935 151.66C236.384 152.08 236.972 152.32 237.669 152.32V152.31ZM241.935 152.24H242.662V148.85H243.958V148.18H240.629V148.85H241.925V152.24H241.935ZM248.323 152.24H249.14L247.446 148.17H246.629L244.934 152.24H245.752L246.061 151.51H248.024L248.333 152.24H248.323ZM246.32 150.87L247.037 149.16L247.755 150.87H246.33H246.32ZM253.973 152.24L252.957 150.8C253.545 150.62 253.934 150.14 253.934 149.53C253.934 148.74 253.286 148.18 252.419 148.18H250.655V152.25H251.392V150.88H252.18L253.136 152.25H253.973V152.24ZM251.392 148.85H252.339C252.837 148.85 253.186 149.1 253.186 149.52C253.186 149.94 252.837 150.19 252.339 150.19H251.392V148.85ZM256.674 152.24H257.402V148.85H258.697V148.18H255.369V148.85H256.664V152.24H256.674Z" fill="black"/>
<path d="M272.29 167.77H18.7555C17.6692 167.77 16.7922 168.65 16.7922 169.74V189.48C16.7922 190.57 17.6692 191.45 18.7555 191.45H272.28C273.367 191.45 274.244 190.57 274.244 189.48V169.74C274.244 168.65 273.367 167.77 272.28 167.77H272.29Z" fill="#1B2B32"/>
<path d="M272.291 191.46H18.7559C17.6696 191.46 16.7826 190.57 16.7826 189.48V169.74C16.7826 168.65 17.6696 167.76 18.7559 167.76H272.281C273.367 167.76 274.254 168.65 274.254 169.74V189.48C274.254 190.57 273.367 191.46 272.281 191.46H272.291ZM18.7658 168.77C18.2277 168.77 17.7991 169.21 17.7991 169.74V189.48C17.7991 190.02 18.2376 190.45 18.7658 190.45H272.291C272.829 190.45 273.257 190.01 273.257 189.48V169.74C273.257 169.2 272.819 168.77 272.291 168.77H18.7559H18.7658Z" fill="#1B2B32"/>
<path d="M29.8072 182.08H30.4251V180.76H31.2323V180.2H30.4251V176.66H29.7175L27.0366 180.25L27.1163 180.76H29.8171V182.08H29.8072ZM27.7342 180.2L29.8072 177.4V180.2H27.7342ZM32.6275 182.17C32.8568 182.17 33.0461 181.97 33.0461 181.74C33.0461 181.52 32.8568 181.32 32.6275 181.32C32.3884 181.32 32.199 181.52 32.199 181.74C32.199 181.98 32.3884 182.17 32.6275 182.17ZM39.0755 182.17C39.823 182.17 40.5206 181.85 41.0189 181.34L40.6003 180.91C40.2117 181.33 39.6635 181.6 39.0755 181.6C37.9095 181.6 36.9229 180.57 36.9229 179.36C36.9229 178.15 37.9095 177.13 39.0755 177.13C39.6635 177.13 40.2117 177.4 40.6003 177.82L41.0189 177.39C40.5106 176.88 39.823 176.56 39.0755 176.56C37.5806 176.56 36.305 177.84 36.305 179.36C36.305 180.88 37.5806 182.17 39.0755 182.17ZM43.7296 182.17C44.8658 182.17 45.8325 181.19 45.8325 180.03C45.8325 178.87 44.8757 177.9 43.7296 177.9C42.5836 177.9 41.6169 178.87 41.6169 180.03C41.6169 181.19 42.5836 182.17 43.7296 182.17ZM43.7296 181.64C42.9224 181.64 42.2447 180.91 42.2447 180.03C42.2447 179.15 42.9224 178.43 43.7296 178.43C44.5369 178.43 45.2046 179.16 45.2046 180.03C45.2046 180.9 44.5269 181.64 43.7296 181.64ZM48.7425 177.9C48.1645 177.9 47.6363 178.22 47.4071 178.65V177.99H46.8191V182.07H47.4071V179.47C47.4071 178.9 47.9851 178.42 48.6628 178.42C49.2608 178.42 49.6793 178.89 49.6793 179.55V182.07H50.2673V179.47C50.2673 178.55 49.6395 177.89 48.7425 177.89V177.9ZM53.3967 177.9C52.8186 177.9 52.2904 178.22 52.0612 178.65V177.99H51.4732V182.07H52.0612V179.47C52.0612 178.9 52.6392 178.42 53.3169 178.42C53.9149 178.42 54.3335 178.89 54.3335 179.55V182.07H54.9215V179.47C54.9215 178.55 54.2936 177.89 53.3967 177.89V177.9ZM57.9511 181.64C57.1439 181.64 56.5858 181.06 56.506 180.26H59.8347C59.8347 178.83 59.1371 177.9 57.9112 177.9C56.815 177.9 55.9081 178.81 55.9081 180.02C55.9081 181.23 56.8848 182.17 57.971 182.17C58.5391 182.17 59.2567 181.93 59.6055 181.54L59.2467 181.15C58.9975 181.43 58.4394 181.64 57.9611 181.64H57.9511ZM57.9312 178.43C58.7384 178.43 59.1769 179 59.2567 179.73H56.516C56.6256 178.94 57.2037 178.43 57.9312 178.43ZM62.6949 182.17C63.263 182.17 63.7812 181.93 64.1699 181.55L63.7613 181.15C63.4822 181.46 63.1035 181.65 62.6949 181.65C61.8877 181.65 61.21 180.92 61.21 180.04C61.21 179.16 61.8877 178.44 62.6949 178.44C63.0936 178.44 63.4623 178.62 63.7314 178.91L64.14 178.51C63.7513 178.14 63.2431 177.91 62.6949 177.91C61.5488 177.91 60.5821 178.88 60.5821 180.04C60.5821 181.2 61.5488 182.18 62.6949 182.18V182.17ZM66.8607 181.48C66.771 181.57 66.6215 181.65 66.4322 181.65C66.193 181.65 65.9937 181.44 65.9937 181.14V178.53H66.9903V178H65.9937V176.88H65.4057V178H64.7678V178.53H65.4057V181.14C65.4057 181.75 65.8143 182.18 66.4023 182.18C66.6813 182.18 66.9404 182.09 67.1597 181.92L66.8707 181.49L66.8607 181.48ZM71.9234 177.9C71.5348 177.9 71.0464 178 70.4584 178.29L70.6976 178.77C71.0664 178.58 71.475 178.4 71.8836 178.4C72.7606 178.4 72.9898 179.03 72.9898 179.58V179.73C72.5712 179.6 72.1128 179.5 71.6643 179.5C70.7873 179.5 70.0698 180.04 70.0698 180.86C70.0698 181.68 70.6976 182.16 71.5547 182.16C72.0928 182.16 72.6908 181.91 72.9898 181.43V182.07H73.5778V179.58C73.5778 178.59 73.0396 177.89 71.9234 177.89V177.9ZM71.6543 181.65C71.0763 181.65 70.6378 181.35 70.6378 180.84C70.6378 180.33 71.1461 180 71.754 180C72.1925 180 72.6111 180.06 72.9798 180.17V180.79C72.8204 181.37 72.1825 181.64 71.6543 181.64V181.65ZM76.9064 177.9C76.2487 177.9 75.7304 178.22 75.4315 178.76V177.99H74.8435V183.43H75.4315V181.31C75.7404 181.85 76.2586 182.17 76.9064 182.17C77.9728 182.17 78.78 181.29 78.78 180.03C78.78 178.77 77.9728 177.9 76.9064 177.9ZM76.7968 181.64C75.9896 181.64 75.4315 180.97 75.4315 180.03C75.4315 179.09 75.9995 178.43 76.7968 178.43C77.5941 178.43 78.1621 179.09 78.1621 180.03C78.1621 180.97 77.5941 181.64 76.7968 181.64ZM81.9293 177.9C81.2715 177.9 80.7533 178.22 80.4543 178.76V177.99H79.8663V183.43H80.4543V181.31C80.7633 181.85 81.2815 182.17 81.9293 182.17C82.9956 182.17 83.8029 181.29 83.8029 180.03C83.8029 178.77 82.9956 177.9 81.9293 177.9ZM81.8197 181.64C81.0124 181.64 80.4543 180.97 80.4543 180.03C80.4543 179.09 81.0224 178.43 81.8197 178.43C82.6169 178.43 83.185 179.09 83.185 180.03C83.185 180.97 82.6169 181.64 81.8197 181.64ZM84.8194 182.07H85.4074V176.55H84.8194V182.07ZM86.8923 177.25C87.1016 177.25 87.281 177.07 87.281 176.86C87.281 176.65 87.1116 176.47 86.8923 176.47C86.6731 176.47 86.5037 176.65 86.5037 176.86C86.5037 177.07 86.6731 177.25 86.8923 177.25ZM86.5934 182.07H87.1814V177.99H86.5934V182.07ZM90.0217 177.89C89.633 177.89 89.1446 177.99 88.5567 178.28L88.7958 178.76C89.1646 178.57 89.5732 178.39 89.9818 178.39C90.8588 178.39 91.088 179.02 91.088 179.57V179.72C90.6694 179.59 90.211 179.49 89.7625 179.49C88.8855 179.49 88.168 180.03 88.168 180.85C88.168 181.67 88.7958 182.15 89.6529 182.15C90.1911 182.15 90.799 181.9 91.088 181.42V182.06H91.676V179.57C91.676 178.58 91.1378 177.88 90.0217 177.88V177.89ZM89.7526 181.64C89.1746 181.64 88.736 181.34 88.736 180.83C88.736 180.32 89.2443 179.99 89.8522 179.99C90.2907 179.99 90.7093 180.05 91.0781 180.16V180.78C90.9186 181.36 90.2808 181.63 89.7526 181.63V181.64ZM94.8153 177.89C94.2373 177.89 93.7091 178.21 93.4799 178.64V177.98H92.8919V182.06H93.4799V179.46C93.4799 178.89 94.0579 178.41 94.7356 178.41C95.3335 178.41 95.7521 178.88 95.7521 179.54V182.06H96.3401V179.46C96.3401 178.54 95.7122 177.88 94.8153 177.88V177.89ZM99.4296 182.16C99.9976 182.16 100.516 181.92 100.905 181.54L100.496 181.14C100.217 181.45 99.8382 181.64 99.4296 181.64C98.6223 181.64 97.9446 180.91 97.9446 180.03C97.9446 179.15 98.6223 178.43 99.4296 178.43C99.8282 178.43 100.197 178.61 100.466 178.9L100.875 178.5C100.486 178.13 99.9777 177.9 99.4296 177.9C98.2934 177.9 97.3168 178.87 97.3168 180.03C97.3168 181.19 98.2835 182.17 99.4296 182.17V182.16ZM103.635 181.63C102.828 181.63 102.27 181.05 102.19 180.25H105.519C105.519 178.82 104.821 177.89 103.595 177.89C102.499 177.89 101.592 178.8 101.592 180.01C101.592 181.22 102.569 182.16 103.655 182.16C104.223 182.16 104.941 181.92 105.29 181.53L104.931 181.14C104.682 181.42 104.124 181.63 103.645 181.63H103.635ZM103.615 178.42C104.423 178.42 104.861 178.99 104.941 179.72H102.2C102.31 178.93 102.888 178.42 103.615 178.42ZM107.931 182.16C108.768 182.16 109.415 181.68 109.415 180.93C109.415 180.18 108.738 179.94 108.09 179.73C107.333 179.49 107.034 179.37 107.034 179.02C107.034 178.63 107.412 178.42 107.871 178.42C108.23 178.42 108.638 178.55 109.047 178.81L109.326 178.35C108.897 178.07 108.369 177.89 107.871 177.89C107.063 177.89 106.446 178.35 106.446 179.09C106.446 179.67 106.824 179.97 107.811 180.25C108.359 180.41 108.837 180.55 108.837 180.99C108.837 181.38 108.479 181.63 107.941 181.63C107.492 181.63 107.024 181.46 106.565 181.12L106.256 181.55C106.745 181.94 107.372 182.16 107.941 182.16H107.931Z" fill="#ACB8BE"/>
<path d="M224.714 184.67C224.714 185.83 225.65 186.77 226.806 186.77H267.866C269.022 186.77 269.959 185.83 269.959 184.67V175.06C269.959 173.9 269.022 172.96 267.866 172.96H226.806C225.65 172.96 224.714 173.9 224.714 175.06V184.67Z" fill="#2EC0FF"/>
<path d="M237.669 181.91C238.636 181.91 239.194 181.39 239.194 180.67C239.194 179.95 238.626 179.66 237.779 179.47C237.131 179.32 236.832 179.2 236.832 178.87C236.832 178.59 237.111 178.34 237.52 178.34C237.928 178.34 238.327 178.51 238.686 178.82L239.084 178.28C238.676 177.93 238.197 177.71 237.55 177.71C236.692 177.71 236.095 178.23 236.095 178.94C236.095 179.7 236.683 179.95 237.52 180.14C238.167 180.29 238.456 180.41 238.456 180.74C238.456 181.03 238.197 181.28 237.699 181.28C237.171 181.28 236.732 181.07 236.364 180.73L235.935 181.26C236.384 181.68 236.972 181.92 237.669 181.92V181.91ZM241.935 181.84H242.662V178.45H243.958V177.78H240.629V178.45H241.925V181.84H241.935ZM248.323 181.84H249.14L247.446 177.77H246.629L244.934 181.84H245.752L246.061 181.11H248.024L248.333 181.84H248.323ZM246.32 180.47L247.037 178.76L247.755 180.47H246.33H246.32ZM253.973 181.84L252.957 180.4C253.545 180.22 253.934 179.74 253.934 179.13C253.934 178.34 253.286 177.78 252.419 177.78H250.655V181.85H251.392V180.48H252.18L253.136 181.85H253.973V181.84ZM251.392 178.45H252.339C252.837 178.45 253.186 178.7 253.186 179.12C253.186 179.54 252.837 179.79 252.339 179.79H251.392V178.45ZM256.674 181.84H257.402V178.45H258.697V177.78H255.369V178.45H256.664V181.84H256.674Z" fill="black"/>
<path d="M19.7814 40.3201C20.7182 40.3201 21.5853 39.9201 22.2131 39.2801L21.6949 38.7501C21.2066 39.2701 20.5289 39.6101 19.7914 39.6101C18.3364 39.6101 17.1106 38.3301 17.1106 36.8101C17.1106 35.2901 18.3364 34.0201 19.7914 34.0201C20.5289 34.0201 21.2066 34.3601 21.6949 34.8801L22.2131 34.3501C21.5853 33.7101 20.7182 33.3101 19.7814 33.3101C17.9078 33.3101 16.3232 34.9101 16.3232 36.8101C16.3232 38.7101 17.9178 40.3201 19.7814 40.3201ZM24.0469 36.1001V35.1001H23.3094V40.2001H24.0469V37.3501C24.0469 36.3501 24.8641 35.6401 26.0102 35.6401V34.9801C25.0734 34.9801 24.3459 35.4101 24.0469 36.1001ZM29.3289 39.6601C28.3223 39.6601 27.6247 38.9301 27.515 37.9301H31.6808C31.6808 36.1401 30.8038 34.9801 29.2691 34.9801C27.9037 34.9801 26.7576 36.1101 26.7576 37.6301C26.7576 39.1501 27.9735 40.3101 29.3388 40.3101C30.0464 40.3101 30.9433 40.0001 31.3818 39.5201L30.9334 39.0401C30.6145 39.3901 29.9268 39.6501 29.3289 39.6501V39.6601ZM29.299 35.6401C30.3155 35.6401 30.8537 36.3501 30.9533 37.2701H27.535C27.6745 36.2801 28.402 35.6401 29.3089 35.6401H29.299ZM34.9497 34.9801C34.4613 34.9801 33.8434 35.1101 33.1159 35.4701L33.4149 36.0701C33.8733 35.8301 34.3916 35.6101 34.8998 35.6101C36.0061 35.6101 36.2751 36.4001 36.2751 37.0901V37.2801C35.7569 37.1101 35.1689 36.9901 34.6208 36.9901C33.5245 36.9901 32.6276 37.6701 32.6276 38.6901C32.6276 39.7101 33.4149 40.3201 34.4912 40.3201C35.159 40.3201 35.9164 40.0001 36.2851 39.4001V40.2001H37.0226V37.0901C37.0226 35.8601 36.3449 34.9801 34.9596 34.9801H34.9497ZM34.6108 39.6701C33.8933 39.6701 33.3451 39.3001 33.3451 38.6601C33.3451 38.0201 33.983 37.6101 34.7404 37.6101C35.2885 37.6101 35.8167 37.6901 36.2751 37.8201V38.6001C36.0758 39.3201 35.2785 39.6701 34.6108 39.6701ZM40.7499 39.4501C40.6402 39.5701 40.4409 39.6601 40.2217 39.6601C39.9227 39.6601 39.6736 39.3901 39.6736 39.0201V35.7601H40.9193V35.1001H39.6736V33.7001H38.9361V35.1001H38.1388V35.7601H38.9361V39.0201C38.9361 39.7801 39.4443 40.3201 40.1718 40.3201C40.5207 40.3201 40.8495 40.2001 41.1186 39.9901L40.7499 39.4501ZM44.4473 39.6601C43.4407 39.6601 42.7431 38.9301 42.6334 37.9301H46.7992C46.7992 36.1401 45.9222 34.9801 44.3875 34.9801C43.0221 34.9801 41.876 36.1101 41.876 37.6301C41.876 39.1501 43.0919 40.3101 44.4572 40.3101C45.1648 40.3101 46.0617 40.0001 46.5003 39.5201L46.0518 39.0401C45.7329 39.3901 45.0452 39.6501 44.4473 39.6501V39.6601ZM44.4174 35.6401C45.4339 35.6401 45.9721 36.3501 46.0717 37.2701H42.6534C42.7929 36.2801 43.5204 35.6401 44.4273 35.6401H44.4174ZM52.9283 34.9801C52.44 34.9801 51.8221 35.1101 51.0946 35.4701L51.3935 36.0701C51.852 35.8301 52.3702 35.6101 52.8785 35.6101C53.9847 35.6101 54.2538 36.4001 54.2538 37.0901V37.2801C53.7356 37.1101 53.1476 36.9901 52.5994 36.9901C51.5032 36.9901 50.6062 37.6701 50.6062 38.6901C50.6062 39.7101 51.3936 40.3201 52.4699 40.3201C53.1376 40.3201 53.895 40.0001 54.2638 39.4001V40.2001H55.0012V37.0901C55.0012 35.8601 54.3235 34.9801 52.9383 34.9801H52.9283ZM52.5895 39.6701C51.8719 39.6701 51.3238 39.3001 51.3238 38.6601C51.3238 38.0201 51.9616 37.6101 52.719 37.6101C53.2672 37.6101 53.7954 37.6901 54.2538 37.8201V38.6001C54.0545 39.3201 53.2572 39.6701 52.5895 39.6701ZM58.9179 34.9801C58.2003 34.9801 57.5426 35.3701 57.2436 35.9201V35.1001H56.5061V40.2001H57.2436V36.9501C57.2436 36.2401 57.9611 35.6401 58.8182 35.6401C59.5657 35.6401 60.0839 36.2201 60.0839 37.0501V40.2001H60.8214V36.9501C60.8214 35.8001 60.0341 34.9801 58.9179 34.9801ZM67.2395 34.9801C66.7511 34.9801 66.1332 35.1101 65.4057 35.4701L65.7047 36.0701C66.1631 35.8301 66.6814 35.6101 67.1896 35.6101C68.2959 35.6101 68.5649 36.4001 68.5649 37.0901V37.2801C68.0467 37.1101 67.4587 36.9901 66.9106 36.9901C65.8143 36.9901 64.9174 37.6701 64.9174 38.6901C64.9174 39.7101 65.7047 40.3201 66.781 40.3201C67.4488 40.3201 68.2062 40.0001 68.5749 39.4001V40.2001H69.3124V37.0901C69.3124 35.8601 68.6347 34.9801 67.2494 34.9801H67.2395ZM66.9006 39.6701C66.1831 39.6701 65.6349 39.3001 65.6349 38.6601C65.6349 38.0201 66.2728 37.6101 67.0302 37.6101C67.5783 37.6101 68.1065 37.6901 68.5649 37.8201V38.6001C68.3656 39.3201 67.5683 39.6701 66.9006 39.6701ZM73.1692 40.3201C73.8768 40.3201 74.5246 40.0201 75.0129 39.5401L74.5047 39.0401C74.1559 39.4201 73.6875 39.6601 73.1792 39.6601C72.1627 39.6601 71.3156 38.7401 71.3156 37.6501C71.3156 36.5601 72.1627 35.6501 73.1792 35.6501C73.6775 35.6501 74.1459 35.8801 74.4748 36.2401L74.983 35.7401C74.5047 35.2801 73.8569 34.9901 73.1692 34.9901C71.7441 34.9901 70.5282 36.2001 70.5282 37.6501C70.5282 39.1001 71.7341 40.3201 73.1692 40.3201ZM78.501 40.3201C79.2086 40.3201 79.8564 40.0201 80.3447 39.5401L79.8365 39.0401C79.4877 39.4201 79.0193 39.6601 78.511 39.6601C77.4945 39.6601 76.6474 38.7401 76.6474 37.6501C76.6474 36.5601 77.4945 35.6501 78.511 35.6501C79.0093 35.6501 79.4777 35.8801 79.8066 36.2401L80.3148 35.7401C79.8365 35.2801 79.1887 34.9901 78.501 34.9901C77.0759 34.9901 75.86 36.2001 75.86 37.6501C75.86 39.1001 77.0659 40.3201 78.501 40.3201ZM83.7232 40.3201C85.1483 40.3201 86.3542 39.1001 86.3542 37.6501C86.3542 36.2001 85.1583 34.9901 83.7232 34.9901C82.2881 34.9901 81.0822 36.2001 81.0822 37.6501C81.0822 39.1001 82.2881 40.3201 83.7232 40.3201ZM83.7232 39.6601C82.7067 39.6601 81.8596 38.7401 81.8596 37.6501C81.8596 36.5601 82.7067 35.6501 83.7232 35.6501C84.7397 35.6501 85.5769 36.5701 85.5769 37.6501C85.5769 38.7301 84.7298 39.6601 83.7232 39.6601ZM91.1479 35.1001V38.3501C91.1479 39.0601 90.4303 39.6601 89.5732 39.6601C88.8258 39.6601 88.3076 39.0801 88.3076 38.2501V35.1001H87.5701V38.3501C87.5701 39.5001 88.3574 40.3201 89.4736 40.3201C90.1911 40.3201 90.8489 39.9301 91.1479 39.3801V40.2001H91.8854V35.1001H91.1479ZM95.812 34.9801C95.0944 34.9801 94.4367 35.3701 94.1377 35.9201V35.1001H93.4002V40.2001H94.1377V36.9501C94.1377 36.2401 94.8552 35.6401 95.7123 35.6401C96.4597 35.6401 96.978 36.2201 96.978 37.0501V40.2001H97.7155V36.9501C97.7155 35.8001 96.9281 34.9801 95.812 34.9801ZM101.443 39.4501C101.333 39.5701 101.134 39.6601 100.915 39.6601C100.616 39.6601 100.366 39.3901 100.366 39.0201V35.7601H101.612V35.1001H100.366V33.7001H99.6289V35.1001H98.8317V35.7601H99.6289V39.0201C99.6289 39.7801 100.137 40.3201 100.865 40.3201C101.214 40.3201 101.542 40.2001 101.811 39.9901L101.443 39.4501Z" fill="#ACB8BE"/>
<path d="M26.2504 28.66C33.0373 28.66 38.5484 23.14 38.5484 16.33C38.5484 9.52 33.0472 4 26.2504 4C19.4536 4 13.9524 9.52 13.9524 16.33C13.9524 23.14 19.4536 28.66 26.2504 28.66Z" fill="#FDA1D8"/>
<path d="M25.7219 20.5301H27.4659V10.8501H26.0607L23.35 12.7001L24.0675 13.9401L25.7219 12.8801V20.5301Z" fill="black"/>
<g opacity="0.15">
<path d="M23.6792 180.11C23.6792 174.93 19.4935 170.74 14.3311 170.74C9.16875 170.74 4.98303 174.94 4.98303 180.11C4.98303 185.28 9.16875 189.48 14.3311 189.48C19.4935 189.48 23.6792 185.28 23.6792 180.11Z" fill="#FDA1D8"/>
</g>
<path d="M21.4265 180.6L11.311 185.68L13.8424 180.6H21.4265Z" fill="#FDA1D8"/>
<path d="M21.4265 180.6L11.311 175.52L13.8424 180.6H21.4265Z" fill="#FDA1D8"/>
<g opacity="0.15">
<path d="M23.6792 149.51C23.6792 144.33 19.4935 140.14 14.3311 140.14C9.16875 140.14 4.98303 144.34 4.98303 149.51C4.98303 154.68 9.16875 158.88 14.3311 158.88C19.4935 158.88 23.6792 154.68 23.6792 149.51Z" fill="#FDA1D8"/>
</g>
<path d="M21.4265 150.01L11.311 155.09L13.8424 150.01H21.4265Z" fill="#FDA1D8"/>
<path d="M21.4265 150.01L11.311 144.93L13.8424 150.01H21.4265Z" fill="#FDA1D8"/>
<rect x="0.5" y="0.5" width="292" height="215" stroke="#4F6169"/>
<rect x="317.5" y="0.5" width="293" height="215" fill="#1B2B32"/>
<rect width="294" height="14" transform="translate(317)" fill="#3A4D55"/>
<g opacity="0.4">
<path d="M352.689 71.98C352.689 71.43 353.129 70.99 353.679 70.99H393.159C393.699 70.99 394.149 71.43 394.149 71.98C394.149 72.53 393.709 72.97 393.159 72.97H353.679C353.139 72.97 352.689 72.53 352.689 71.98Z" fill="#ACB8BE"/>
<path d="M352.689 81.8501C352.689 81.3001 353.129 80.8601 353.679 80.8601H393.159C393.699 80.8601 394.149 81.3001 394.149 81.8501C394.149 82.4001 393.709 82.8401 393.159 82.8401H353.679C353.139 82.8401 352.689 82.4001 352.689 81.8501Z" fill="#ACB8BE"/>
<path d="M352.689 91.72C352.689 91.17 353.129 90.73 353.679 90.73H393.159C393.699 90.73 394.149 91.17 394.149 91.72C394.149 92.27 393.709 92.71 393.159 92.71H353.679C353.139 92.71 352.689 92.27 352.689 91.72Z" fill="#ACB8BE"/>
<path d="M404.02 71.98C404.02 71.43 404.46 70.99 405.01 70.99H524.45C524.99 70.99 525.44 71.43 525.44 71.98C525.44 72.53 525 72.97 524.45 72.97H405.01C404.47 72.97 404.02 72.53 404.02 71.98Z" fill="#ACB8BE"/>
<path d="M404.02 81.8501C404.02 81.3001 404.46 80.8601 405.01 80.8601H524.45C524.99 80.8601 525.44 81.3001 525.44 81.8501C525.44 82.4001 525 82.8401 524.45 82.8401H405.01C404.47 82.8401 404.02 82.4001 404.02 81.8501Z" fill="#ACB8BE"/>
<path d="M404.02 91.72C404.02 91.17 404.46 90.73 405.01 90.73H524.45C524.99 90.73 525.44 91.17 525.44 91.72C525.44 92.27 525 92.71 524.45 92.71H405.01C404.47 92.71 404.02 92.27 404.02 91.72Z" fill="#ACB8BE"/>
</g>
<path d="M342.95 50.13C343.89 50.13 344.76 49.73 345.39 49.09L344.87 48.56C344.38 49.08 343.7 49.42 342.96 49.42C341.5 49.42 340.27 48.14 340.27 46.62C340.27 45.1 341.5 43.83 342.96 43.83C343.7 43.83 344.38 44.17 344.87 44.69L345.39 44.16C344.76 43.52 343.89 43.12 342.95 43.12C341.07 43.12 339.48 44.72 339.48 46.62C339.48 48.52 341.08 50.13 342.95 50.13ZM348.79 50.13C350.22 50.13 351.43 48.91 351.43 47.46C351.43 46.01 350.23 44.8 348.79 44.8C347.35 44.8 346.14 46.01 346.14 47.46C346.14 48.91 347.35 50.13 348.79 50.13ZM348.79 49.47C347.77 49.47 346.92 48.55 346.92 47.46C346.92 46.37 347.77 45.46 348.79 45.46C349.81 45.46 350.65 46.38 350.65 47.46C350.65 48.54 349.8 49.47 348.79 49.47ZM355.08 44.79C354.36 44.79 353.7 45.18 353.4 45.73V44.91H352.66V50.01H353.4V46.76C353.4 46.05 354.12 45.45 354.98 45.45C355.73 45.45 356.25 46.03 356.25 46.86V50.01H356.99V46.76C356.99 45.61 356.2 44.79 355.08 44.79ZM360.92 44.79C360.2 44.79 359.54 45.18 359.24 45.73V44.91H358.5V50.01H359.24V46.76C359.24 46.05 359.96 45.45 360.82 45.45C361.57 45.45 362.09 46.03 362.09 46.86V50.01H362.83V46.76C362.83 45.61 362.04 44.79 360.92 44.79ZM366.63 49.47C365.62 49.47 364.92 48.74 364.81 47.74H368.99C368.99 45.95 368.11 44.79 366.57 44.79C365.2 44.79 364.05 45.92 364.05 47.44C364.05 48.96 365.27 50.12 366.64 50.12C367.35 50.12 368.25 49.81 368.69 49.33L368.24 48.85C367.92 49.2 367.23 49.46 366.63 49.46V49.47ZM366.6 45.45C367.62 45.45 368.16 46.16 368.26 47.08H364.82C364.96 46.09 365.69 45.45 366.6 45.45ZM372.57 50.13C373.28 50.13 373.93 49.83 374.42 49.35L373.91 48.85C373.56 49.23 373.09 49.47 372.58 49.47C371.56 49.47 370.71 48.55 370.71 47.46C370.71 46.37 371.56 45.46 372.58 45.46C373.08 45.46 373.55 45.69 373.88 46.05L374.39 45.55C373.91 45.09 373.26 44.8 372.57 44.8C371.14 44.8 369.92 46.01 369.92 47.46C369.92 48.91 371.13 50.13 372.57 50.13ZM377.79 49.26C377.68 49.38 377.48 49.47 377.26 49.47C376.96 49.47 376.71 49.2 376.71 48.83V45.57H377.96V44.91H376.71V43.51H375.97V44.91H375.17V45.57H375.97V48.83C375.97 49.59 376.48 50.13 377.21 50.13C377.56 50.13 377.89 50.01 378.16 49.8L377.79 49.26ZM384.14 44.79C383.65 44.79 383.03 44.92 382.3 45.28L382.6 45.88C383.06 45.64 383.58 45.42 384.09 45.42C385.2 45.42 385.47 46.21 385.47 46.9V47.09C384.95 46.92 384.36 46.8 383.81 46.8C382.71 46.8 381.81 47.48 381.81 48.5C381.81 49.52 382.6 50.13 383.68 50.13C384.35 50.13 385.11 49.81 385.48 49.21V50.01H386.22V46.9C386.22 45.67 385.54 44.79 384.15 44.79H384.14ZM383.8 49.48C383.08 49.48 382.53 49.11 382.53 48.47C382.53 47.83 383.17 47.42 383.93 47.42C384.48 47.42 385.01 47.5 385.47 47.63V48.41C385.27 49.13 384.47 49.48 383.8 49.48ZM390.39 44.79C389.57 44.79 388.92 45.19 388.53 45.87V44.91H387.79V51.71H388.53V49.06C388.91 49.73 389.57 50.14 390.39 50.14C391.73 50.14 392.74 49.03 392.74 47.47C392.74 45.91 391.73 44.81 390.39 44.81V44.79ZM390.25 49.47C389.24 49.47 388.53 48.63 388.53 47.46C388.53 46.29 389.24 45.46 390.25 45.46C391.26 45.46 391.96 46.29 391.96 47.46C391.96 48.63 391.25 49.47 390.25 49.47ZM396.68 44.79C395.86 44.79 395.21 45.19 394.82 45.87V44.91H394.08V51.71H394.82V49.06C395.2 49.73 395.86 50.14 396.68 50.14C398.02 50.14 399.03 49.03 399.03 47.47C399.03 45.91 398.02 44.81 396.68 44.81V44.79ZM396.54 49.47C395.53 49.47 394.82 48.63 394.82 47.46C394.82 46.29 395.53 45.46 396.54 45.46C397.55 45.46 398.25 46.29 398.25 47.46C398.25 48.63 397.54 49.47 396.54 49.47ZM400.31 50.01H401.05V43.11H400.31V50.01ZM402.91 43.98C403.18 43.98 403.39 43.75 403.39 43.49C403.39 43.23 403.17 43.01 402.91 43.01C402.65 43.01 402.42 43.24 402.42 43.49C402.42 43.74 402.64 43.98 402.91 43.98ZM402.53 50.01H403.27V44.91H402.53V50.01ZM407.13 50.13C407.84 50.13 408.49 49.83 408.98 49.35L408.47 48.85C408.12 49.23 407.65 49.47 407.14 49.47C406.12 49.47 405.27 48.55 405.27 47.46C405.27 46.37 406.12 45.46 407.14 45.46C407.64 45.46 408.11 45.69 408.44 46.05L408.95 45.55C408.47 45.09 407.82 44.8 407.13 44.8C405.7 44.8 404.48 46.01 404.48 47.46C404.48 48.91 405.69 50.13 407.13 50.13ZM412.18 44.79C411.69 44.79 411.07 44.92 410.34 45.28L410.64 45.88C411.1 45.64 411.62 45.42 412.13 45.42C413.24 45.42 413.51 46.21 413.51 46.9V47.09C412.99 46.92 412.4 46.8 411.85 46.8C410.75 46.8 409.85 47.48 409.85 48.5C409.85 49.52 410.64 50.13 411.72 50.13C412.39 50.13 413.15 49.81 413.52 49.21V50.01H414.26V46.9C414.26 45.67 413.58 44.79 412.19 44.79H412.18ZM411.84 49.48C411.12 49.48 410.57 49.11 410.57 48.47C410.57 47.83 411.21 47.42 411.97 47.42C412.52 47.42 413.05 47.5 413.51 47.63V48.41C413.31 49.13 412.51 49.48 411.84 49.48ZM418 49.26C417.89 49.38 417.69 49.47 417.47 49.47C417.17 49.47 416.92 49.2 416.92 48.83V45.57H418.17V44.91H416.92V43.51H416.18V44.91H415.38V45.57H416.18V48.83C416.18 49.59 416.69 50.13 417.42 50.13C417.77 50.13 418.1 50.01 418.37 49.8L418 49.26ZM419.78 43.98C420.05 43.98 420.26 43.75 420.26 43.49C420.26 43.23 420.04 43.01 419.78 43.01C419.52 43.01 419.29 43.24 419.29 43.49C419.29 43.74 419.51 43.98 419.78 43.98ZM419.4 50.01H420.14V44.91H419.4V50.01ZM424 50.13C425.43 50.13 426.64 48.91 426.64 47.46C426.64 46.01 425.44 44.8 424 44.8C422.56 44.8 421.35 46.01 421.35 47.46C421.35 48.91 422.56 50.13 424 50.13ZM424 49.47C422.98 49.47 422.13 48.55 422.13 47.46C422.13 46.37 422.98 45.46 424 45.46C425.02 45.46 425.86 46.38 425.86 47.46C425.86 48.54 425.01 49.47 424 49.47ZM430.29 44.79C429.57 44.79 428.91 45.18 428.61 45.73V44.91H427.87V50.01H428.61V46.76C428.61 46.05 429.33 45.45 430.19 45.45C430.94 45.45 431.46 46.03 431.46 46.86V50.01H432.2V46.76C432.2 45.61 431.41 44.79 430.29 44.79ZM435.51 50.13C436.57 50.13 437.38 49.53 437.38 48.59C437.38 47.65 436.53 47.35 435.71 47.09C434.76 46.78 434.39 46.65 434.39 46.2C434.39 45.71 434.86 45.45 435.44 45.45C435.89 45.45 436.4 45.61 436.91 45.93L437.27 45.36C436.73 45 436.08 44.79 435.44 44.79C434.42 44.79 433.65 45.36 433.65 46.29C433.65 47.02 434.12 47.39 435.36 47.74C436.05 47.94 436.64 48.11 436.64 48.67C436.64 49.15 436.19 49.47 435.51 49.47C434.95 49.47 434.36 49.25 433.78 48.83L433.4 49.37C434.01 49.86 434.8 50.13 435.51 50.13Z" fill="#ACB8BE"/>
<path d="M351.459 36.8501H353.819C354.679 36.8501 355.289 36.2901 355.289 35.4901C355.289 34.9501 354.959 34.5001 354.389 34.2101C354.839 33.9501 355.099 33.6501 355.099 33.1201C355.099 32.4001 354.539 31.8801 353.729 31.8801H351.449V36.8401L351.459 36.8501ZM352.019 33.9901V32.4001H353.589C354.139 32.4001 354.529 32.7301 354.529 33.1901C354.529 33.6501 354.139 33.9801 353.589 33.9801H352.019V33.9901ZM352.019 36.3401V34.5001H353.679C354.289 34.5001 354.729 34.8801 354.729 35.4201C354.729 35.9601 354.299 36.3401 353.679 36.3401H352.019ZM357.769 33.0301C357.409 33.0301 356.959 33.1201 356.429 33.3901L356.649 33.8301C356.989 33.6601 357.369 33.4901 357.739 33.4901C358.549 33.4901 358.749 34.0701 358.749 34.5701V34.7101C358.369 34.5901 357.939 34.5001 357.539 34.5001C356.739 34.5001 356.069 35.0001 356.069 35.7401C356.069 36.4801 356.649 36.9301 357.439 36.9301C357.929 36.9301 358.489 36.7001 358.759 36.2601V36.8501H359.299V34.5701C359.299 33.6701 358.799 33.0201 357.779 33.0201L357.769 33.0301ZM357.519 36.4601C356.989 36.4601 356.589 36.1901 356.589 35.7201C356.589 35.2501 357.059 34.9501 357.619 34.9501C358.019 34.9501 358.409 35.0101 358.749 35.1001V35.6701C358.609 36.2001 358.019 36.4501 357.529 36.4501L357.519 36.4601ZM362.129 36.9401C362.649 36.9401 363.129 36.7201 363.479 36.3701L363.099 36.0001C362.849 36.2801 362.499 36.4601 362.119 36.4601C361.379 36.4601 360.749 35.7901 360.749 34.9901C360.749 34.1901 361.369 33.5201 362.119 33.5201C362.489 33.5201 362.829 33.6901 363.069 33.9501L363.449 33.5801C363.099 33.2401 362.629 33.0301 362.119 33.0301C361.069 33.0301 360.179 33.9201 360.179 34.9801C360.179 36.0401 361.069 36.9401 362.119 36.9401H362.129ZM367.589 33.1201H366.899L364.849 35.1901V31.8101H364.309V36.8601H364.849V35.8701L365.519 35.2101L366.809 36.8601H367.489L365.899 34.8401L367.579 33.1301L367.589 33.1201Z" fill="#2EC0FF"/>
<path d="M342.269 31.0201L338.959 34.3401L342.269 37.6601C342.349 37.7701 342.489 37.8201 342.619 37.7901C342.749 37.7601 342.849 37.6601 342.879 37.5301C342.909 37.4001 342.859 37.2601 342.749 37.1801L340.279 34.6901H346.859C347.049 34.6901 347.199 34.5401 347.199 34.3501C347.199 34.1601 347.049 34.0101 346.859 34.0101H340.279L342.749 31.5201C342.879 31.3901 342.879 31.1701 342.749 31.0301C342.609 30.9001 342.399 30.9001 342.259 31.0301H342.269V31.0201Z" fill="#2EC0FF"/>
<path d="M352.689 137.97C352.689 139.13 353.629 140.07 354.789 140.07H400.919C402.079 140.07 403.019 139.13 403.019 137.97V126.39C403.019 125.23 402.079 124.29 400.919 124.29H354.789C353.629 124.29 352.689 125.23 352.689 126.39V137.97Z" fill="#2EC0FF"/>
<path d="M368.209 134.15H368.949V131.29L371.099 134.15H371.829V130.08H371.099V132.94L368.949 130.08H368.209V134.15ZM376.779 130.76V130.09H373.719V134.16H376.779V133.49H374.459V132.43H376.559V131.76H374.459V130.78H376.779V130.76ZM382.089 130.09H381.229L380.149 131.53L379.079 130.09H378.199L379.709 132.13L378.199 134.16H379.069L380.149 132.72L381.219 134.16H382.099L380.589 132.12L382.099 130.09H382.089ZM384.739 134.16H385.469V130.77H386.769V130.1H383.429V130.77H384.729V134.16H384.739Z" fill="black"/>
<path d="M343.34 28.66C350.15 28.66 355.68 23.14 355.68 16.33C355.68 9.52 350.16 4 343.34 4C336.52 4 331 9.52 331 16.33C331 23.14 336.52 28.66 343.34 28.66Z" fill="#FDA1D8"/>
<path d="M339.33 20.5302H346.45V18.9202H342.06L344.09 17.2802C345.75 16.0002 346.35 14.9702 346.35 13.6902C346.35 11.9002 344.88 10.6702 342.97 10.6702C341.4 10.6702 340.23 11.3602 339.32 12.5602L340.46 13.6202C341.16 12.7702 341.9 12.2502 342.91 12.2502C343.78 12.2502 344.56 12.8102 344.56 13.7302C344.56 14.5202 344.12 15.2502 342.9 16.2402L339.33 19.0902V20.5302Z" fill="black"/>
<rect x="317.5" y="0.5" width="293" height="215" stroke="#4F6169"/>
<g clip-path="url(#clip0_8802_38774)">
<rect x="635" width="293" height="216" fill="#1B2B32"/>
<rect width="294" height="14" transform="translate(635)" fill="#3A4D55"/>
<path d="M911.034 112H652.966C651.878 112 651 112.855 651 113.913V133.087C651 134.145 651.878 135 652.966 135H911.034C912.122 135 913 134.145 913 133.087V113.913C913 112.855 912.122 112 911.034 112Z" fill="#1B2B32"/>
<path d="M911.024 135H652.976C651.888 135 651 134.099 651 132.995V113.005C651 111.901 651.888 111 652.976 111H911.024C912.112 111 913 111.901 913 113.005V132.995C913 134.099 912.112 135 911.024 135ZM652.976 112.023C652.437 112.023 652.008 112.468 652.008 113.005V132.995C652.008 133.542 652.447 133.977 652.976 133.977H911.024C911.563 133.977 911.992 133.532 911.992 132.995V113.005C911.992 112.458 911.553 112.023 911.024 112.023H652.976Z" fill="#ACB9BE"/>
<path d="M675.613 120.246L673.635 124.851L671.647 120.246H671L673.307 125.59H673.953L676.26 120.246H675.613ZM678.335 125.166C677.553 125.166 677.012 124.594 676.935 123.806H680.159C680.159 122.396 679.483 121.479 678.296 121.479C677.234 121.479 676.356 122.376 676.356 123.569C676.356 124.762 677.302 125.689 678.354 125.689C678.904 125.689 679.599 125.452 679.937 125.068L679.589 124.683C679.348 124.959 678.807 125.166 678.344 125.166H678.335ZM678.315 122.001C679.097 122.001 679.522 122.563 679.599 123.283H676.945C677.051 122.504 677.611 122.001 678.315 122.001ZM681.722 122.356V121.568H681.153V125.59H681.722V123.342C681.722 122.554 682.359 121.992 683.247 121.992V121.469C682.523 121.469 681.963 121.814 681.722 122.346V122.356ZM684.318 120.838C684.521 120.838 684.694 120.661 684.694 120.454C684.694 120.246 684.53 120.069 684.318 120.069C684.106 120.069 683.942 120.246 683.942 120.454C683.942 120.661 684.106 120.838 684.318 120.838ZM684.028 125.59H684.598V121.568H684.028V125.59ZM686.644 121.015C686.644 120.72 686.847 120.513 687.068 120.513C687.242 120.513 687.397 120.582 687.483 120.68L687.763 120.256C687.561 120.089 687.3 120 687.03 120C686.47 120 686.074 120.424 686.074 121.025V121.577H685.457V122.1H686.074V125.6H686.644V122.1H687.609V121.577H686.644V121.025V121.015ZM689.008 126.99C689.549 126.99 689.935 126.724 690.205 126.044L692 121.568H691.382L690.08 124.91L688.699 121.568H688.062L689.78 125.61L689.549 126.113C689.394 126.389 689.23 126.468 688.979 126.468C688.815 126.468 688.651 126.438 688.516 126.369L688.381 126.872C688.564 126.961 688.777 127 689.008 127V126.99Z" fill="#ACB8BE"/>
<path d="M659.5 127C661.986 127 664 124.983 664 122.505C664 120.027 661.986 118 659.5 118C657.014 118 655 120.017 655 122.505C655 124.993 657.014 127 659.5 127Z" fill="#1B2B32"/>
<path d="M660 128C657.247 128 655 125.753 655 123C655 120.247 657.247 118 660 118C662.753 118 665 120.247 665 123C665 125.753 662.753 128 660 128ZM660 118.921C657.753 118.921 655.921 120.753 655.921 123C655.921 125.247 657.753 127.079 660 127.079C662.247 127.079 664.079 125.247 664.079 123C664.079 120.753 662.247 118.921 660 118.921Z" fill="#67CA16"/>
<path d="M658.963 125C658.853 125 658.743 124.949 658.661 124.858L657.12 123.117C656.955 122.935 656.964 122.641 657.12 122.469C657.285 122.297 657.551 122.297 657.707 122.469L658.945 123.866L661.283 121.143C661.439 120.961 661.705 120.951 661.87 121.123C662.035 121.295 662.044 121.589 661.889 121.771L659.248 124.848C659.165 124.939 659.055 124.99 658.945 124.99L658.963 125Z" fill="#67CA16"/>
<path d="M880.287 122L879.04 125.02L877.793 122H877L878.643 125.99H879.436L881.079 122H880.287ZM882.472 125.99H883.177V122H882.472V125.99ZM887.827 122.667V122.01H884.869V126H887.827V125.343H885.584V124.304H887.614V123.647H885.584V122.686H887.827V122.667ZM890.36 125.99H891.066L892.052 123.029L893.038 125.99H893.753L895 122H894.217L893.376 124.853L892.448 122H891.665L890.727 124.853L889.886 122H889.103L890.35 125.99H890.36Z" fill="#2EC0FF"/>
<path d="M865.405 129.921H906.595V131H865.405V129.921ZM907.941 128.55V118.45H909V128.55H907.941ZM906.595 117.079H865.405V116H906.595V117.079ZM864.059 118.45V128.55H863V118.45H864.059ZM865.405 117.079C864.663 117.079 864.059 117.694 864.059 118.45H863C863 117.099 864.079 116 865.405 116V117.079ZM907.941 118.45C907.941 117.694 907.337 117.079 906.595 117.079V116C907.921 116 909 117.099 909 118.45H907.941ZM906.595 129.921C907.337 129.921 907.941 129.306 907.941 128.55H909C909 129.901 907.921 131 906.595 131V129.921ZM865.405 131C864.079 131 863 129.901 863 128.55H864.059C864.059 129.306 864.663 129.921 865.405 129.921V131Z" fill="#2EC0FF"/>
<path d="M911.034 171H652.966C651.878 171 651 171.855 651 172.913V192.087C651 193.145 651.878 194 652.966 194H911.034C912.122 194 913 193.145 913 192.087V172.913C913 171.855 912.122 171 911.034 171Z" fill="#1B2B32"/>
<path d="M911.024 194H652.976C651.888 194 651 193.136 651 192.078V172.922C651 171.864 651.888 171 652.976 171H911.024C912.112 171 913 171.864 913 172.922V192.078C913 193.136 912.112 194 911.024 194ZM652.976 171.98C652.437 171.98 652.008 172.407 652.008 172.922V192.078C652.008 192.603 652.447 193.02 652.976 193.02H911.024C911.563 193.02 911.992 192.593 911.992 192.078V172.922C911.992 172.397 911.553 171.98 911.024 171.98H652.976Z" fill="#ACB9BE"/>
<path d="M673.768 184.733C674.515 184.733 675.212 184.411 675.709 183.898L675.291 183.466C674.903 183.888 674.355 184.159 673.768 184.159C672.603 184.159 671.617 183.124 671.617 181.907C671.617 180.69 672.603 179.664 673.768 179.664C674.355 179.664 674.903 179.935 675.291 180.358L675.709 179.925C675.202 179.412 674.515 179.091 673.768 179.091C672.274 179.091 671 180.378 671 181.907C671 183.435 672.274 184.733 673.768 184.733ZM678.418 184.733C679.563 184.733 680.519 183.747 680.519 182.58C680.519 181.414 679.563 180.438 678.418 180.438C677.273 180.438 676.307 181.414 676.307 182.58C676.307 183.747 677.273 184.733 678.418 184.733ZM678.418 184.2C677.611 184.2 676.934 183.466 676.934 182.58C676.934 181.695 677.611 180.971 678.418 180.971C679.224 180.971 679.891 181.705 679.891 182.58C679.891 183.455 679.214 184.2 678.418 184.2ZM683.426 180.438C682.848 180.438 682.321 180.76 682.092 181.193V180.529H681.504V184.632H682.092V182.017C682.092 181.444 682.669 180.961 683.346 180.961C683.944 180.961 684.362 181.434 684.362 182.098V184.632H684.949V182.017C684.949 181.092 684.322 180.428 683.426 180.428V180.438ZM688.076 180.438C687.498 180.438 686.97 180.76 686.741 181.193V180.529H686.154V184.632H686.741V182.017C686.741 181.444 687.319 180.961 687.996 180.961C688.593 180.961 689.011 181.434 689.011 182.098V184.632H689.599V182.017C689.599 181.092 688.972 180.428 688.076 180.428V180.438ZM692.626 184.2C691.819 184.2 691.262 183.616 691.182 182.812H694.508C694.508 181.374 693.811 180.438 692.586 180.438C691.491 180.438 690.585 181.353 690.585 182.57C690.585 183.787 691.56 184.733 692.646 184.733C693.213 184.733 693.93 184.491 694.279 184.099L693.92 183.707C693.671 183.989 693.114 184.2 692.636 184.2H692.626ZM692.606 180.971C693.412 180.971 693.85 181.545 693.93 182.279H691.192C691.301 181.484 691.879 180.971 692.606 180.971ZM697.365 184.733C697.933 184.733 698.45 184.491 698.839 184.109L698.43 183.707C698.152 184.019 697.773 184.21 697.365 184.21C696.559 184.21 695.882 183.476 695.882 182.591C695.882 181.705 696.559 180.981 697.365 180.981C697.763 180.981 698.132 181.162 698.401 181.454L698.809 181.052C698.42 180.68 697.913 180.448 697.365 180.448C696.23 180.448 695.254 181.424 695.254 182.591C695.254 183.757 696.22 184.743 697.365 184.743V184.733ZM701.527 184.039C701.437 184.129 701.288 184.21 701.099 184.21C700.86 184.21 700.661 183.999 700.661 183.697V181.072H701.656V180.539H700.661V179.412H700.073V180.539H699.436V181.072H700.073V183.697C700.073 184.31 700.482 184.743 701.059 184.743C701.338 184.743 701.597 184.652 701.816 184.481L701.527 184.049V184.039ZM706.585 180.438C706.197 180.438 705.709 180.539 705.121 180.83L705.36 181.313C705.729 181.122 706.137 180.941 706.545 180.941C707.421 180.941 707.65 181.575 707.65 182.128V182.279C707.232 182.148 706.774 182.047 706.326 182.047C705.45 182.047 704.733 182.591 704.733 183.415C704.733 184.24 705.36 184.723 706.217 184.723C706.754 184.723 707.362 184.471 707.65 183.989V184.632H708.238V182.128C708.238 181.132 707.7 180.428 706.585 180.428V180.438ZM706.316 184.21C705.739 184.21 705.301 183.908 705.301 183.395C705.301 182.882 705.808 182.55 706.416 182.55C706.854 182.55 707.272 182.611 707.64 182.721V183.345C707.481 183.928 706.844 184.2 706.316 184.2V184.21ZM711.563 180.438C710.906 180.438 710.388 180.76 710.09 181.303V180.529H709.502V186H710.09V183.868C710.398 184.411 710.916 184.733 711.563 184.733C712.629 184.733 713.435 183.848 713.435 182.58C713.435 181.313 712.629 180.438 711.563 180.438ZM711.454 184.2C710.647 184.2 710.09 183.526 710.09 182.58C710.09 181.635 710.657 180.971 711.454 180.971C712.25 180.971 712.818 181.635 712.818 182.58C712.818 183.526 712.25 184.2 711.454 184.2ZM716.581 180.438C715.924 180.438 715.406 180.76 715.108 181.303V180.529H714.52V186H715.108V183.868C715.416 184.411 715.934 184.733 716.581 184.733C717.647 184.733 718.453 183.848 718.453 182.58C718.453 181.313 717.647 180.438 716.581 180.438ZM716.472 184.2C715.665 184.2 715.108 183.526 715.108 182.58C715.108 181.635 715.675 180.971 716.472 180.971C717.268 180.971 717.836 181.635 717.836 182.58C717.836 183.526 717.268 184.2 716.472 184.2ZM719.469 184.632H720.056V179.08H719.469V184.632ZM721.54 179.784C721.749 179.784 721.928 179.603 721.928 179.392C721.928 179.181 721.759 179 721.54 179C721.321 179 721.151 179.181 721.151 179.392C721.151 179.603 721.321 179.784 721.54 179.784ZM721.241 184.632H721.828V180.529H721.241V184.632ZM724.905 184.723C725.473 184.723 725.99 184.481 726.379 184.099L725.97 183.697C725.692 184.009 725.313 184.2 724.905 184.2C724.099 184.2 723.421 183.466 723.421 182.58C723.421 181.695 724.099 180.971 724.905 180.971C725.303 180.971 725.672 181.152 725.941 181.444L726.349 181.042C725.96 180.67 725.453 180.438 724.905 180.438C723.77 180.438 722.794 181.414 722.794 182.58C722.794 183.747 723.76 184.733 724.905 184.733V184.723ZM728.928 180.428C728.539 180.428 728.051 180.529 727.464 180.82L727.703 181.303C728.071 181.112 728.479 180.931 728.888 180.931C729.764 180.931 729.993 181.565 729.993 182.118V182.269C729.575 182.138 729.117 182.037 728.669 182.037C727.792 182.037 727.076 182.58 727.076 183.405C727.076 184.23 727.703 184.713 728.559 184.713C729.097 184.713 729.694 184.461 729.993 183.978V184.622H730.58V182.118C730.58 181.122 730.043 180.418 728.928 180.418V180.428ZM728.659 184.2C728.081 184.2 727.643 183.898 727.643 183.385C727.643 182.872 728.151 182.54 728.758 182.54C729.196 182.54 729.615 182.601 729.983 182.711V183.335C729.824 183.918 729.186 184.19 728.659 184.19V184.2ZM733.567 184.029C733.478 184.119 733.328 184.2 733.139 184.2C732.9 184.2 732.701 183.989 732.701 183.687V181.062H733.697V180.529H732.701V179.402H732.114V180.529H731.476V181.062H732.114V183.687C732.114 184.3 732.522 184.733 733.099 184.733C733.378 184.733 733.637 184.642 733.856 184.471L733.567 184.039V184.029ZM734.981 179.784C735.19 179.784 735.369 179.603 735.369 179.392C735.369 179.181 735.2 179 734.981 179C734.762 179 734.593 179.181 734.593 179.392C734.593 179.603 734.762 179.784 734.981 179.784ZM734.682 184.632H735.27V180.529H734.682V184.632ZM738.346 184.723C739.482 184.723 740.447 183.737 740.447 182.57C740.447 181.404 739.491 180.428 738.346 180.428C737.201 180.428 736.236 181.404 736.236 182.57C736.236 183.737 737.201 184.723 738.346 184.723ZM738.346 184.19C737.54 184.19 736.863 183.455 736.863 182.57C736.863 181.685 737.54 180.961 738.346 180.961C739.153 180.961 739.82 181.695 739.82 182.57C739.82 183.445 739.143 184.19 738.346 184.19ZM743.355 180.428C742.777 180.428 742.249 180.75 742.02 181.182V180.519H741.433V184.622H742.02V182.007C742.02 181.434 742.598 180.951 743.275 180.951C743.872 180.951 744.291 181.424 744.291 182.088V184.622H744.878V182.007C744.878 181.082 744.251 180.418 743.355 180.418V180.428ZM747.516 184.723C748.353 184.723 749 184.24 749 183.486C749 182.731 748.323 182.49 747.676 182.279C746.919 182.037 746.62 181.917 746.62 181.565C746.62 181.172 746.999 180.961 747.457 180.961C747.815 180.961 748.223 181.092 748.632 181.353L748.91 180.891C748.482 180.609 747.955 180.428 747.457 180.428C746.65 180.428 746.033 180.891 746.033 181.635C746.033 182.218 746.411 182.52 747.397 182.802C747.945 182.963 748.423 183.103 748.423 183.546C748.423 183.938 748.064 184.19 747.526 184.19C747.078 184.19 746.61 184.019 746.152 183.677L745.844 184.109C746.332 184.501 746.959 184.723 747.526 184.723H747.516Z" fill="#ACB8BE"/>
<path d="M660.5 186C662.986 186 665 183.983 665 181.505C665 179.027 662.986 177 660.5 177C658.014 177 656 179.017 656 181.505C656 183.993 658.014 186 660.5 186Z" fill="#1B2B32"/>
<path d="M660 187C657.247 187 655 184.753 655 182C655 179.247 657.247 177 660 177C662.753 177 665 179.247 665 182C665 184.753 662.753 187 660 187ZM660 177.921C657.753 177.921 655.921 179.753 655.921 182C655.921 184.247 657.753 186.079 660 186.079C662.247 186.079 664.079 184.247 664.079 182C664.079 179.753 662.247 177.921 660 177.921Z" fill="#67CA16"/>
<path d="M658.963 184C658.853 184 658.743 183.949 658.661 183.858L657.12 182.117C656.955 181.935 656.964 181.641 657.12 181.469C657.285 181.297 657.551 181.297 657.707 181.469L658.945 182.866L661.283 180.143C661.439 179.961 661.705 179.951 661.87 180.123C662.035 180.295 662.044 180.589 661.889 180.771L659.248 183.848C659.165 183.939 659.055 183.99 658.945 183.99L658.963 184Z" fill="#67CA16"/>
<path d="M880.287 181L879.04 184.02L877.793 181H877L878.643 184.99H879.436L881.079 181H880.287ZM882.472 184.99H883.177V181H882.472V184.99ZM887.827 181.667V181.01H884.869V185H887.827V184.343H885.584V183.304H887.614V182.647H885.584V181.686H887.827V181.667ZM890.36 184.99H891.066L892.052 182.029L893.038 184.99H893.753L895 181H894.217L893.376 183.853L892.448 181H891.665L890.727 183.853L889.886 181H889.103L890.35 184.99H890.36Z" fill="#2EC0FF"/>
<path d="M865.405 188.921H906.595V190H865.405V188.921ZM907.941 187.55V177.45H909V187.55H907.941ZM906.595 176.079H865.405V175H906.595V176.079ZM864.059 177.45V187.55H863V177.45H864.059ZM865.405 176.079C864.663 176.079 864.059 176.694 864.059 177.45H863C863 176.099 864.079 175 865.405 175V176.079ZM907.941 177.45C907.941 176.694 907.337 176.079 906.595 176.079V175C907.921 175 909 176.099 909 177.45H907.941ZM906.595 188.921C907.337 188.921 907.941 188.306 907.941 187.55H909C909 188.901 907.921 190 906.595 190V188.921ZM865.405 190C864.079 190 863 188.901 863 187.55H864.059C864.059 188.306 864.663 188.921 865.405 188.921V190Z" fill="#2EC0FF"/>
<path d="M911.034 82H652.966C651.878 82 651 82.8919 651 83.9966V104.003C651 105.108 651.878 106 652.966 106H911.034C912.122 106 913 105.108 913 104.003V83.9966C913 82.8919 912.122 82 911.034 82Z" fill="#1B2B32"/>
<path d="M911.024 106H652.976C651.888 106 651 105.099 651 103.995V84.0051C651 82.9013 651.888 82 652.976 82H911.024C912.112 82 913 82.9013 913 84.0051V103.995C913 105.099 912.112 106 911.024 106ZM652.976 83.0228C652.437 83.0228 652.008 83.4684 652.008 84.0051V103.995C652.008 104.542 652.447 104.977 652.976 104.977H911.024C911.563 104.977 911.992 104.532 911.992 103.995V84.0051C911.992 83.4582 911.553 83.0228 911.024 83.0228H652.976Z" fill="#ACB9BE"/>
<path d="M660 99C657.247 99 655 96.753 655 94C655 91.247 657.247 89 660 89C662.753 89 665 91.247 665 94C665 96.753 662.753 99 660 99ZM660 89.921C657.753 89.921 655.921 91.753 655.921 94C655.921 96.247 657.753 98.0789 660 98.0789C662.247 98.0789 664.079 96.247 664.079 94C664.079 91.753 662.247 89.921 660 89.921Z" fill="#67CA16"/>
<path d="M658.963 96C658.853 96 658.743 95.9494 658.661 95.8583L657.12 94.1172C656.955 93.935 656.964 93.6414 657.12 93.4693C657.285 93.2972 657.551 93.2972 657.707 93.4693L658.945 94.8662L661.283 92.1432C661.439 91.961 661.705 91.9509 661.87 92.123C662.035 92.2951 662.044 92.5886 661.889 92.7708L659.248 95.8482C659.165 95.9393 659.055 95.9899 658.945 95.9899L658.963 96Z" fill="#67CA16"/>
<path d="M671.01 95.9223H673.59C674.529 95.9223 675.199 95.3869 675.199 94.6442C675.199 94.1347 674.839 93.7116 674.209 93.4352C674.699 93.1934 674.979 92.8998 674.979 92.4076C674.979 91.7254 674.359 91.2418 673.49 91.2418H671V95.9223H671.01ZM671.63 93.2193V91.7167H673.34C673.94 91.7167 674.369 92.0276 674.369 92.468C674.369 92.9085 673.94 93.2193 673.34 93.2193H671.63ZM671.63 95.4387V93.7029H673.44C674.11 93.7029 674.589 94.0656 674.589 94.5665C674.589 95.0674 674.12 95.43 673.44 95.43H671.63V95.4387ZM677.909 92.3126C677.519 92.3126 677.029 92.399 676.439 92.6494L676.679 93.0639C677.049 92.8998 677.459 92.7444 677.869 92.7444C678.749 92.7444 678.979 93.2884 678.979 93.7634V93.8929C678.559 93.7807 678.099 93.6943 677.649 93.6943C676.769 93.6943 676.049 94.1606 676.049 94.8687C676.049 95.5769 676.679 95.9914 677.539 95.9914C678.079 95.9914 678.689 95.7755 678.979 95.361V95.9136H679.569V93.7634C679.569 92.9085 679.029 92.304 677.909 92.304V92.3126ZM677.639 95.5509C677.059 95.5509 676.619 95.2919 676.619 94.8515C676.619 94.4111 677.129 94.1261 677.739 94.1261C678.179 94.1261 678.599 94.1779 678.969 94.2729V94.8083C678.809 95.3091 678.169 95.5423 677.639 95.5423V95.5509ZM682.218 96C683.058 96 683.708 95.5855 683.708 94.9378C683.708 94.2902 683.028 94.0829 682.378 93.9016C681.618 93.6943 681.318 93.5907 681.318 93.2884C681.318 92.9516 681.698 92.7703 682.158 92.7703C682.518 92.7703 682.928 92.8826 683.338 93.1071L683.618 92.7098C683.188 92.468 682.658 92.3126 682.158 92.3126C681.348 92.3126 680.728 92.7098 680.728 93.3489C680.728 93.8497 681.108 94.1088 682.098 94.3506C682.648 94.4888 683.128 94.6097 683.128 94.9896C683.128 95.3264 682.768 95.5423 682.228 95.5423C681.778 95.5423 681.308 95.3955 680.848 95.1019L680.538 95.4732C681.028 95.81 681.658 96 682.228 96H682.218ZM684.978 91.7513C685.188 91.7513 685.368 91.5959 685.368 91.4145C685.368 91.2332 685.198 91.0777 684.978 91.0777C684.758 91.0777 684.588 91.2332 684.588 91.4145C684.588 91.5959 684.758 91.7513 684.978 91.7513ZM684.678 95.9136H685.268V92.3903H684.678V95.9136ZM688.357 95.9914C688.927 95.9914 689.447 95.7841 689.837 95.456L689.427 95.1105C689.147 95.3782 688.767 95.5423 688.357 95.5423C687.547 95.5423 686.868 94.9119 686.868 94.152C686.868 93.3921 687.547 92.7703 688.357 92.7703C688.757 92.7703 689.127 92.9257 689.397 93.1762L689.807 92.8307C689.417 92.5112 688.907 92.3126 688.357 92.3126C687.217 92.3126 686.238 93.1503 686.238 94.152C686.238 95.1537 687.207 96 688.357 96V95.9914ZM693.326 91.7427C693.536 91.7427 693.716 91.5872 693.716 91.4059C693.716 91.2245 693.546 91.0691 693.326 91.0691C693.106 91.0691 692.937 91.2245 692.937 91.4059C692.937 91.5872 693.106 91.7427 693.326 91.7427ZM693.027 95.905H693.616V92.3817H693.027V95.905ZM696.746 92.2953C696.166 92.2953 695.636 92.5717 695.406 92.943V92.3731H694.816V95.8964H695.406V93.6511C695.406 93.1589 695.986 92.7444 696.666 92.7444C697.266 92.7444 697.686 93.1503 697.686 93.7202V95.8964H698.276V93.6511C698.276 92.8566 697.646 92.2867 696.746 92.2867V92.2953ZM700.395 91.8895C700.395 91.6304 700.605 91.449 700.835 91.449C701.015 91.449 701.175 91.5095 701.265 91.5959L701.555 91.2245C701.345 91.0777 701.075 91 700.795 91C700.215 91 699.805 91.3713 699.805 91.8981V92.3817H699.166V92.8394H699.805V95.905H700.395V92.8394H701.395V92.3817H700.395V91.8981V91.8895ZM704.135 95.9827C705.285 95.9827 706.244 95.1364 706.244 94.1347C706.244 93.133 705.285 92.2953 704.135 92.2953C702.985 92.2953 702.015 93.133 702.015 94.1347C702.015 95.1364 702.985 95.9827 704.135 95.9827ZM704.135 95.525C703.325 95.525 702.645 94.8946 702.645 94.1347C702.645 93.3748 703.325 92.753 704.135 92.753C704.945 92.753 705.615 93.3834 705.615 94.1347C705.615 94.886 704.935 95.525 704.135 95.525ZM707.864 93.0639V92.3731H707.274V95.8964H707.864V93.9275C707.864 93.2366 708.524 92.7444 709.444 92.7444V92.2867C708.694 92.2867 708.114 92.5889 707.864 93.0553V93.0639ZM714.673 92.2953C714.053 92.2953 713.523 92.5889 713.353 93.0466C713.133 92.5889 712.653 92.2953 712.034 92.2953C711.494 92.2953 711.054 92.5285 710.854 92.8912V92.3731H710.264V95.8964H710.854V93.6511C710.854 93.1157 711.314 92.7444 711.964 92.7444C712.513 92.7444 712.903 93.1503 712.903 93.7202V95.8964H713.493V93.6511C713.493 93.1157 713.953 92.7444 714.603 92.7444C715.153 92.7444 715.543 93.1503 715.543 93.7202V95.8964H716.133V93.6511C716.133 92.8566 715.533 92.2867 714.683 92.2867L714.673 92.2953ZM718.982 92.2953C718.593 92.2953 718.103 92.3817 717.513 92.6321L717.753 93.0466C718.123 92.8826 718.533 92.7271 718.943 92.7271C719.822 92.7271 720.052 93.2712 720.052 93.7461V93.8756C719.632 93.7634 719.172 93.677 718.723 93.677C717.843 93.677 717.123 94.1433 717.123 94.8515C717.123 95.5596 717.753 95.9741 718.613 95.9741C719.152 95.9741 719.752 95.7582 720.052 95.3437V95.8964H720.642V93.7461C720.642 92.8912 720.102 92.2867 718.982 92.2867V92.2953ZM718.713 95.5337C718.133 95.5337 717.693 95.2746 717.693 94.8342C717.693 94.3938 718.203 94.1088 718.813 94.1088C719.252 94.1088 719.672 94.1606 720.042 94.2556V94.791C719.882 95.2919 719.242 95.525 718.713 95.525V95.5337ZM723.642 95.3869C723.552 95.4646 723.402 95.5337 723.212 95.5337C722.972 95.5337 722.772 95.3523 722.772 95.0933V92.8394H723.772V92.3817H722.772V91.4145H722.182V92.3817H721.542V92.8394H722.182V95.0933C722.182 95.62 722.592 95.9914 723.172 95.9914C723.452 95.9914 723.712 95.9136 723.932 95.7668L723.642 95.3955V95.3869ZM725.062 91.7427C725.272 91.7427 725.451 91.5872 725.451 91.4059C725.451 91.2245 725.282 91.0691 725.062 91.0691C724.842 91.0691 724.672 91.2245 724.672 91.4059C724.672 91.5872 724.842 91.7427 725.062 91.7427ZM724.762 95.905H725.351V92.3817H724.762V95.905ZM728.441 95.9827C729.591 95.9827 730.551 95.1364 730.551 94.1347C730.551 93.133 729.591 92.2953 728.441 92.2953C727.291 92.2953 726.321 93.133 726.321 94.1347C726.321 95.1364 727.291 95.9827 728.441 95.9827ZM728.441 95.525C727.631 95.525 726.951 94.8946 726.951 94.1347C726.951 93.3748 727.631 92.753 728.441 92.753C729.251 92.753 729.921 93.3834 729.921 94.1347C729.921 94.886 729.241 95.525 728.441 95.525ZM733.47 92.2953C732.89 92.2953 732.36 92.5717 732.13 92.943V92.3731H731.541V95.8964H732.13V93.6511C732.13 93.1589 732.71 92.7444 733.39 92.7444C733.99 92.7444 734.41 93.1503 734.41 93.7202V95.8964H735V93.6511C735 92.8566 734.37 92.2867 733.47 92.2867V92.2953Z" fill="#ACB8BE"/>
<path d="M880.287 92L879.04 95.0196L877.793 92H877L878.643 95.9902H879.436L881.079 92H880.287ZM882.472 95.9902H883.177V92H882.472V95.9902ZM887.827 92.6667V92.0098H884.869V96H887.827V95.3431H885.584V94.3039H887.614V93.6471H885.584V92.6863H887.827V92.6667ZM890.36 95.9902H891.066L892.052 93.0294L893.038 95.9902H893.753L895 92H894.217L893.376 94.8529L892.448 92H891.665L890.727 94.8529L889.886 92H889.103L890.35 95.9902H890.36Z" fill="#2EC0FF"/>
<path d="M865.405 99.9933H906.595V101H865.405V99.9933ZM907.941 98.7137V89.2863H909V98.7137H907.941ZM906.595 88.0067H865.405V87H906.595V88.0067ZM864.059 89.2863V98.7137H863V89.2863H864.059ZM865.405 88.0067C864.663 88.0067 864.059 88.5806 864.059 89.2863H863C863 88.0255 864.079 87 865.405 87V88.0067ZM907.941 89.2863C907.941 88.5806 907.337 88.0067 906.595 88.0067V87C907.921 87 909 88.0255 909 89.2863H907.941ZM906.595 99.9933C907.337 99.9933 907.941 99.4194 907.941 98.7137H909C909 99.9745 907.921 101 906.595 101V99.9933ZM865.405 101C864.079 101 863 99.9745 863 98.7137H864.059C864.059 99.4194 864.663 99.9933 865.405 99.9933V101Z" fill="#2EC0FF"/>
<g opacity="0.4">
<path d="M651 59C651 58.4444 651.439 58 651.989 58H858.011C858.561 58 859 58.4444 859 59C859 59.5556 858.561 60 858.011 60H651.989C651.449 60 651 59.5556 651 59Z" fill="#ACB8BE"/>
<path d="M651 68C651 67.4444 651.44 67 651.99 67H798.01C798.56 67 799 67.4444 799 68C799 68.5556 798.56 69 798.01 69H651.99C651.45 69 651 68.5556 651 68Z" fill="#ACB8BE"/>
</g>
<path d="M912.032 141H652.968C651.879 141 651 141.892 651 142.997V163.003C651 164.108 651.879 165 652.968 165H912.032C913.121 165 914 164.108 914 163.003V142.997C914 141.892 913.121 141 912.032 141Z" fill="#1B2B32"/>
<path d="M912.023 165H652.977C651.889 165 651 164.099 651 162.995V143.005C651 141.901 651.889 141 652.977 141H912.023C913.111 141 914 141.901 914 143.005V162.995C914 164.099 913.111 165 912.023 165ZM652.977 142.023C652.438 142.023 652.009 142.468 652.009 143.005V162.995C652.009 163.542 652.448 163.977 652.977 163.977H912.023C912.562 163.977 912.991 163.532 912.991 162.995V143.005C912.991 142.458 912.552 142.023 912.023 142.023H652.977Z" fill="#ACB9BE"/>
<path d="M662.979 155.634C664.114 155.634 664.877 154.971 664.877 154.067C664.877 153.284 664.254 152.882 663.702 152.752C664.264 152.581 664.756 152.169 664.756 151.476C664.756 150.603 663.993 150 662.959 150C662.115 150 661.502 150.412 661.09 150.964L661.502 151.336C661.894 150.864 662.316 150.562 662.918 150.562C663.601 150.562 664.124 150.974 664.124 151.547C664.124 152.169 663.581 152.511 662.848 152.511H662.266V153.073H662.848C663.702 153.073 664.254 153.395 664.254 154.037C664.254 154.68 663.742 155.072 662.989 155.072C662.326 155.072 661.793 154.75 661.432 154.298L661 154.7C661.392 155.222 662.085 155.634 662.979 155.634ZM666.343 155.634C666.574 155.634 666.765 155.433 666.765 155.202C666.765 154.981 666.574 154.78 666.343 154.78C666.102 154.78 665.911 154.981 665.911 155.202C665.911 155.443 666.102 155.634 666.343 155.634ZM672.148 155.634C673.414 155.634 674.067 154.931 674.067 154.067C674.067 153.103 673.324 152.732 672.279 152.491C671.355 152.27 670.813 152.069 670.813 151.506C670.813 151.004 671.305 150.562 671.978 150.562C672.55 150.562 673.093 150.824 673.545 151.255L673.926 150.773C673.424 150.311 672.821 150 672.018 150C670.973 150 670.19 150.683 670.19 151.557C670.19 152.501 670.883 152.842 671.978 153.093C672.932 153.314 673.444 153.545 673.444 154.128C673.444 154.62 673.012 155.082 672.179 155.082C671.415 155.082 670.853 154.76 670.391 154.298L669.999 154.78C670.541 155.323 671.255 155.644 672.148 155.644V155.634ZM676.949 155.112C676.136 155.112 675.573 154.529 675.493 153.726H678.848C678.848 152.29 678.145 151.356 676.909 151.356C675.804 151.356 674.89 152.27 674.89 153.485C674.89 154.7 675.875 155.644 676.969 155.644C677.542 155.644 678.265 155.403 678.617 155.011L678.255 154.62C678.004 154.901 677.441 155.112 676.959 155.112H676.949ZM676.929 151.888C677.743 151.888 678.185 152.461 678.265 153.194H675.503C675.614 152.4 676.196 151.888 676.929 151.888ZM681.62 154.951C681.529 155.042 681.379 155.122 681.188 155.122C680.947 155.122 680.746 154.911 680.746 154.61V151.989H681.75V151.456H680.746V150.331H680.153V151.456H679.51V151.989H680.153V154.61C680.153 155.222 680.565 155.654 681.148 155.654C681.429 155.654 681.69 155.564 681.911 155.393L681.62 154.961V154.951ZM687.937 151.456V154.067C687.937 154.64 687.355 155.122 686.672 155.122C686.069 155.122 685.647 154.65 685.647 153.987V151.456H685.055V154.067C685.055 154.991 685.687 155.654 686.591 155.654C687.174 155.654 687.706 155.333 687.937 154.901V155.564H688.53V151.466H687.937V151.456ZM691.884 151.366C691.221 151.366 690.699 151.687 690.398 152.23V151.456H689.805V156.92H690.398V154.791C690.709 155.333 691.231 155.654 691.884 155.654C692.959 155.654 693.772 154.77 693.772 153.505C693.772 152.24 692.959 151.366 691.884 151.366ZM691.774 155.122C690.96 155.122 690.398 154.449 690.398 153.505C690.398 152.561 690.97 151.898 691.774 151.898C692.577 151.898 693.15 152.561 693.15 153.505C693.15 154.449 692.577 155.122 691.774 155.122ZM699.246 151.366C698.583 151.366 698.061 151.687 697.76 152.23V151.456H697.167V156.92H697.76V154.791C698.071 155.333 698.593 155.654 699.246 155.654C700.321 155.654 701.134 154.77 701.134 153.505C701.134 152.24 700.321 151.366 699.246 151.366ZM699.136 155.122C698.322 155.122 697.76 154.449 697.76 153.505C697.76 152.561 698.332 151.898 699.136 151.898C699.939 151.898 700.512 152.561 700.512 153.505C700.512 154.449 699.939 155.122 699.136 155.122ZM703.826 151.366C703.435 151.366 702.942 151.466 702.35 151.758L702.591 152.24C702.962 152.049 703.374 151.868 703.786 151.868C704.67 151.868 704.901 152.501 704.901 153.053V153.204C704.479 153.073 704.017 152.973 703.565 152.973C702.681 152.973 701.958 153.515 701.958 154.339C701.958 155.162 702.591 155.644 703.455 155.644C703.997 155.644 704.6 155.393 704.901 154.911V155.554H705.493V153.053C705.493 152.059 704.951 151.356 703.826 151.356V151.366ZM703.555 155.132C702.972 155.132 702.531 154.831 702.531 154.319C702.531 153.806 703.043 153.475 703.655 153.475C704.097 153.475 704.519 153.535 704.891 153.646V154.268C704.73 154.851 704.087 155.122 703.555 155.122V155.132ZM707.311 156.99C707.874 156.99 708.276 156.719 708.557 156.026L710.425 151.466H709.782L708.426 154.871L706.99 151.466H706.327L708.115 155.584L707.874 156.096C707.713 156.377 707.542 156.458 707.281 156.458C707.11 156.458 706.94 156.428 706.799 156.357L706.658 156.869C706.849 156.96 707.07 157 707.311 157V156.99ZM715.838 151.366C715.216 151.366 714.683 151.707 714.513 152.24C714.292 151.707 713.81 151.366 713.187 151.366C712.644 151.366 712.203 151.637 712.002 152.059V151.456H711.409V155.554H712.002V152.943C712.002 152.32 712.464 151.888 713.117 151.888C713.669 151.888 714.061 152.36 714.061 153.023V155.554H714.653V152.943C714.653 152.32 715.115 151.888 715.768 151.888C716.32 151.888 716.712 152.36 716.712 153.023V155.554H717.305V152.943C717.305 152.019 716.702 151.356 715.848 151.356L715.838 151.366ZM720.348 155.122C719.534 155.122 718.972 154.539 718.892 153.736H722.246C722.246 152.3 721.543 151.366 720.308 151.366C719.203 151.366 718.289 152.28 718.289 153.495C718.289 154.71 719.273 155.654 720.368 155.654C720.941 155.654 721.664 155.413 722.015 155.022L721.654 154.63C721.403 154.911 720.84 155.122 720.358 155.122H720.348ZM720.328 151.898C721.141 151.898 721.583 152.471 721.664 153.204H718.902C719.012 152.41 719.595 151.898 720.328 151.898ZM725.169 151.366C724.586 151.366 724.054 151.687 723.823 152.119V151.456H723.231V155.554H723.823V152.943C723.823 152.37 724.406 151.888 725.089 151.888C725.691 151.888 726.113 152.36 726.113 153.023V155.554H726.706V152.943C726.706 152.019 726.073 151.356 725.169 151.356V151.366ZM729.709 154.961C729.618 155.052 729.468 155.132 729.277 155.132C729.036 155.132 728.835 154.921 728.835 154.62V151.999H729.839V151.466H728.835V150.341H728.242V151.466H727.6V151.999H728.242V154.62C728.242 155.232 728.654 155.664 729.237 155.664C729.518 155.664 729.779 155.574 730 155.403L729.709 154.971V154.961Z" fill="#ACB8BE"/>
<path d="M864 157.871C864 159.047 864.952 160 866.128 160H907.872C909.048 160 910 159.047 910 157.871V148.129C910 146.953 909.048 146 907.872 146H866.128C864.952 146 864 146.953 864 148.129V157.871Z" fill="#2EC0FF"/>
<path d="M876.752 154.991C877.729 154.991 878.293 154.496 878.293 153.812C878.293 153.128 877.719 152.853 876.863 152.672C876.208 152.53 875.906 152.416 875.906 152.102C875.906 151.836 876.188 151.599 876.601 151.599C877.014 151.599 877.417 151.76 877.779 152.055L878.182 151.542C877.769 151.209 877.286 151 876.631 151C875.765 151 875.161 151.494 875.161 152.169C875.161 152.891 875.755 153.128 876.601 153.309C877.256 153.451 877.548 153.565 877.548 153.879C877.548 154.154 877.286 154.392 876.782 154.392C876.249 154.392 875.806 154.192 875.433 153.869L875 154.373C875.453 154.772 876.047 155 876.752 155V154.991ZM881.062 154.924H881.797V151.703H883.106V151.067H879.743V151.703H881.052V154.924H881.062ZM887.517 154.924H888.343L886.631 151.057H885.805L884.093 154.924H884.919L885.231 154.23H887.215L887.527 154.924H887.517ZM885.493 153.622L886.218 151.998L886.943 153.622H885.503H885.493ZM893.227 154.924L892.2 153.556C892.794 153.385 893.186 152.929 893.186 152.349C893.186 151.599 892.532 151.067 891.656 151.067H889.873V154.933H890.619V153.632H891.414L892.381 154.933H893.227V154.924ZM890.619 151.703H891.575C892.079 151.703 892.431 151.941 892.431 152.34C892.431 152.739 892.079 152.976 891.575 152.976H890.619V151.703ZM895.956 154.924H896.691V151.703H898V151.067H894.637V151.703H895.946V154.924H895.956Z" fill="black"/>
<path d="M654.479 50C655.421 50 656.294 49.6006 656.925 48.9615L656.404 48.4322C655.913 48.9515 655.231 49.291 654.489 49.291C653.025 49.291 651.792 48.0128 651.792 46.495C651.792 44.9772 653.025 43.709 654.489 43.709C655.231 43.709 655.913 44.0485 656.404 44.5678L656.925 44.0385C656.294 43.3994 655.421 43 654.479 43C652.594 43 651 44.5977 651 46.495C651 48.3923 652.604 50 654.479 50ZM658.77 45.786V44.7874H658.028V49.8802H658.77V47.0342C658.77 46.0357 659.592 45.3267 660.745 45.3267V44.6676C659.802 44.6676 659.071 45.097 658.77 45.786ZM664.083 49.3409C663.071 49.3409 662.369 48.612 662.259 47.6134H666.45C666.45 45.826 665.567 44.6676 664.023 44.6676C662.65 44.6676 661.497 45.796 661.497 47.3138C661.497 48.8317 662.72 49.99 664.093 49.99C664.805 49.99 665.708 49.6805 666.149 49.2011L665.698 48.7218C665.377 49.0713 664.685 49.331 664.083 49.331V49.3409ZM664.053 45.3267C665.076 45.3267 665.617 46.0357 665.718 46.9544H662.269C662.409 45.9658 663.141 45.3267 664.053 45.3267ZM669.738 44.6676C669.247 44.6676 668.625 44.7974 667.893 45.1569L668.194 45.7561C668.655 45.5164 669.177 45.2967 669.688 45.2967C670.801 45.2967 671.071 46.0856 671.071 46.7746V46.9643C670.55 46.7946 669.958 46.6747 669.407 46.6747C668.304 46.6747 667.402 47.3538 667.402 48.3723C667.402 49.3909 668.194 50 669.277 50C669.948 50 670.71 49.6805 671.081 49.0813V49.8802H671.823V46.7746C671.823 45.5464 671.142 44.6676 669.748 44.6676H669.738ZM669.397 49.3509C668.675 49.3509 668.124 48.9815 668.124 48.3424C668.124 47.7033 668.765 47.2939 669.527 47.2939C670.079 47.2939 670.61 47.3738 671.071 47.5036V48.2825C670.871 49.0014 670.069 49.3509 669.397 49.3509ZM675.573 49.1312C675.463 49.2511 675.262 49.3409 675.041 49.3409C674.741 49.3409 674.49 49.0713 674.49 48.7019V45.4465H675.743V44.7874H674.49V43.3894H673.748V44.7874H672.946V45.4465H673.748V48.7019C673.748 49.4608 674.26 50 674.991 50C675.342 50 675.673 49.8802 675.944 49.6705L675.573 49.1312ZM679.292 49.3409C678.28 49.3409 677.578 48.612 677.468 47.6134H681.658C681.658 45.826 680.776 44.6676 679.232 44.6676C677.859 44.6676 676.706 45.796 676.706 47.3138C676.706 48.8317 677.929 49.99 679.302 49.99C680.014 49.99 680.917 49.6805 681.358 49.2011L680.907 48.7218C680.586 49.0713 679.894 49.331 679.292 49.331V49.3409ZM679.262 45.3267C680.285 45.3267 680.826 46.0357 680.927 46.9544H677.488C677.628 45.9658 678.36 45.3267 679.272 45.3267H679.262ZM687.824 44.6676C687.333 44.6676 686.711 44.7974 685.98 45.1569L686.28 45.7561C686.741 45.5164 687.263 45.2967 687.774 45.2967C688.887 45.2967 689.158 46.0856 689.158 46.7746V46.9643C688.636 46.7946 688.045 46.6747 687.493 46.6747C686.391 46.6747 685.488 47.3538 685.488 48.3723C685.488 49.3909 686.28 50 687.363 50C688.035 50 688.797 49.6805 689.168 49.0813V49.8802H689.91V46.7746C689.91 45.5464 689.228 44.6676 687.834 44.6676H687.824ZM687.483 49.3509C686.762 49.3509 686.21 48.9815 686.21 48.3424C686.21 47.7033 686.852 47.2939 687.614 47.2939C688.165 47.2939 688.696 47.3738 689.158 47.5036V48.2825C688.957 49.0014 688.155 49.3509 687.483 49.3509ZM693.85 44.6676C693.128 44.6676 692.466 45.0571 692.165 45.6063V44.7874H691.423V49.8802H692.165V46.6348C692.165 45.9258 692.887 45.3267 693.749 45.3267C694.501 45.3267 695.023 45.9058 695.023 46.7347V49.8802H695.765V46.6348C695.765 45.4864 694.972 44.6676 693.85 44.6676ZM702.221 44.6676C701.73 44.6676 701.108 44.7974 700.376 45.1569L700.677 45.7561C701.138 45.5164 701.66 45.2967 702.171 45.2967C703.284 45.2967 703.554 46.0856 703.554 46.7746V46.9643C703.033 46.7946 702.442 46.6747 701.89 46.6747C700.787 46.6747 699.885 47.3538 699.885 48.3723C699.885 49.3909 700.677 50 701.76 50C702.432 50 703.194 49.6805 703.564 49.0813V49.8802H704.306V46.7746C704.306 45.5464 703.625 44.6676 702.231 44.6676H702.221ZM701.88 49.3509C701.158 49.3509 700.607 48.9815 700.607 48.3424C700.607 47.7033 701.249 47.2939 702.011 47.2939C702.562 47.2939 703.093 47.3738 703.554 47.5036V48.2825C703.354 49.0014 702.552 49.3509 701.88 49.3509ZM708.186 50C708.898 50 709.55 49.7004 710.041 49.2211L709.53 48.7218C709.179 49.1013 708.708 49.3409 708.196 49.3409C707.174 49.3409 706.322 48.4223 706.322 47.3338C706.322 46.2454 707.174 45.3367 708.196 45.3367C708.698 45.3367 709.169 45.5663 709.5 45.9258L710.011 45.4265C709.53 44.9672 708.878 44.6776 708.186 44.6776C706.753 44.6776 705.53 45.8859 705.53 47.3338C705.53 48.7817 706.743 50 708.186 50ZM713.55 50C714.262 50 714.914 49.7004 715.405 49.2211L714.893 48.7218C714.543 49.1013 714.071 49.3409 713.56 49.3409C712.537 49.3409 711.685 48.4223 711.685 47.3338C711.685 46.2454 712.537 45.3367 713.56 45.3367C714.061 45.3367 714.533 45.5663 714.863 45.9258L715.375 45.4265C714.893 44.9672 714.242 44.6776 713.55 44.6776C712.116 44.6776 710.893 45.8859 710.893 47.3338C710.893 48.7817 712.106 50 713.55 50ZM718.803 50C720.237 50 721.45 48.7817 721.45 47.3338C721.45 45.8859 720.247 44.6776 718.803 44.6776C717.36 44.6776 716.147 45.8859 716.147 47.3338C716.147 48.7817 717.36 50 718.803 50ZM718.803 49.3409C717.781 49.3409 716.929 48.4223 716.929 47.3338C716.929 46.2454 717.781 45.3367 718.803 45.3367C719.826 45.3367 720.668 46.2554 720.668 47.3338C720.668 48.4123 719.816 49.3409 718.803 49.3409ZM726.273 44.7874V48.0328C726.273 48.7418 725.551 49.3409 724.689 49.3409C723.937 49.3409 723.415 48.7618 723.415 47.933V44.7874H722.673V48.0328C722.673 49.1812 723.465 50 724.588 50C725.31 50 725.972 49.6106 726.273 49.0613V49.8802H727.014V44.7874H726.273ZM730.965 44.6676C730.243 44.6676 729.581 45.0571 729.28 45.6063V44.7874H728.538V49.8802H729.28V46.6348C729.28 45.9258 730.002 45.3267 730.864 45.3267C731.616 45.3267 732.138 45.9058 732.138 46.7347V49.8802H732.879V46.6348C732.879 45.4864 732.087 44.6676 730.965 44.6676ZM736.629 49.1312C736.519 49.2511 736.318 49.3409 736.098 49.3409C735.797 49.3409 735.546 49.0713 735.546 48.7019V45.4465H736.8V44.7874H735.546V43.3894H734.804V44.7874H734.002V45.4465H734.804V48.7019C734.804 49.4608 735.316 50 736.048 50C736.399 50 736.729 49.8802 737 49.6705L736.629 49.1312Z" fill="#ACB8BE"/>
<path d="M661 29C667.622 29 673 23.4039 673 16.5C673 9.59611 667.632 4 661 4C654.368 4 649 9.59611 649 16.5C649 23.4039 654.368 29 661 29Z" fill="#FDA1D8"/>
<path d="M660.58 21C662.655 21 664 19.8235 664 18.1585C664 16.8524 663.043 16.1047 662.068 15.8654C663.053 15.5563 663.801 14.7986 663.801 13.6321C663.801 12.0967 662.503 11 660.552 11C658.989 11 657.919 11.7278 657.189 12.7049L658.175 13.7717C658.8 13.0439 659.501 12.5753 660.401 12.5753C661.386 12.5753 662.115 13.1236 662.115 13.9113C662.115 14.7587 661.405 15.2173 660.325 15.2074H659.292V16.7228H660.325C661.622 16.7129 662.304 17.1615 662.304 18.0189C662.304 18.8764 661.622 19.4347 660.524 19.4347C659.539 19.4347 658.658 18.9661 658.014 18.2084L657 19.3649C657.748 20.3021 658.98 21 660.58 21Z" fill="black"/>
<path fill-rule="evenodd" clip-rule="evenodd" d="M639 186.87V177L650.84 181.93L639 186.86V186.87Z" fill="#FDA1D8"/>
</g>
<rect x="635.5" y="0.5" width="292" height="215" stroke="#4F6169"/>
<path d="M290.779 182.14H269.979C269.429 182.14 268.979 181.69 268.979 181.14C268.979 180.59 269.429 180.14 269.979 180.14H290.779C295.129 180.14 298.659 176.6 298.659 172.26V55.8202C298.659 50.3702 303.089 45.9402 308.539 45.9402H319.368C319.918 45.9402 320.368 46.3902 320.368 46.9402C320.368 47.4902 319.918 47.9402 319.368 47.9402H308.539C304.189 47.9402 300.659 51.4802 300.659 55.8202V172.26C300.659 177.71 296.229 182.14 290.779 182.14Z" fill="#FDA1D8"/>
<path fill-rule="evenodd" clip-rule="evenodd" d="M313 42V51.87L324.84 46.94L313 42.01V42Z" fill="#FDA1D8"/>
<path d="M266 181.14C266 182.78 267.33 184.1 268.96 184.1C270.59 184.1 271.92 182.77 271.92 181.14C271.92 179.51 270.59 178.18 268.96 178.18C267.33 178.18 266 179.51 266 181.14Z" fill="#FDA1D8"/>
<path d="M640.98 182.34H559.59C554.14 182.34 549.71 177.91 549.71 172.46V141.84C549.71 137.49 546.17 133.96 541.83 133.96H400.98C400.43 133.96 399.98 133.51 399.98 132.96C399.98 132.41 400.43 131.96 400.98 131.96H541.83C547.28 131.96 551.71 136.39 551.71 141.84V172.46C551.71 176.81 555.25 180.34 559.59 180.34H640.98C641.53 180.34 641.98 180.79 641.98 181.34C641.98 181.89 641.53 182.34 640.98 182.34Z" fill="#FDA1D8"/>
<path d="M399 132.96C399 131.32 400.33 130 401.96 130C403.59 130 404.92 131.33 404.92 132.96C404.92 134.59 403.59 135.92 401.96 135.92C400.33 135.92 399 134.59 399 132.96Z" fill="#FDA1D8"/>
<defs>
<clipPath id="clip0_8802_38774">
<rect x="635" width="293" height="216" fill="white"/>
</clipPath>
</defs>
</svg>
