<svg width="452" height="264" viewBox="0 0 452 264" fill="none" xmlns="http://www.w3.org/2000/svg">
<g clip-path="url(#clip0_8802_35072)">
<rect width="452" height="264" fill="#1B2B32"/>
<path d="M75.4004 17.5H74.4004V263.9H75.4004V17.5Z" fill="#67777E"/>
<path d="M114.5 119.3V100.37H377.31V119.3H114.5Z" fill="#3A4D55" stroke="#67777E"/>
<path d="M118.03 99.8701H114V119.8H118.03V99.8701Z" fill="#2EC0FF"/>
<path d="M377.31 119.3H114.5V163.15H377.31V119.3Z" fill="#1B2B32"/>
<g opacity="0.4">
<path d="M137.16 129.76C137.16 129.21 137.61 128.76 138.17 128.76H247.92C248.48 128.76 248.93 129.21 248.93 129.76C248.93 130.31 248.48 130.76 247.92 130.76H138.17C137.61 130.76 137.16 130.31 137.16 129.76Z" fill="#ACB8BE"/>
<path d="M137.16 135.74C137.16 135.19 137.61 134.74 138.17 134.74H241.88C242.44 134.74 242.89 135.19 242.89 135.74C242.89 136.29 242.44 136.74 241.88 136.74H138.17C137.61 136.74 137.16 136.29 137.16 135.74Z" fill="#ACB8BE"/>
<path d="M137.16 141.72C137.16 141.17 137.61 140.72 138.17 140.72H201.61C202.17 140.72 202.62 141.17 202.62 141.72C202.62 142.27 202.17 142.72 201.61 142.72H138.17C137.61 142.72 137.16 142.27 137.16 141.72Z" fill="#ACB8BE"/>
</g>
<path d="M159.31 155.67H138.16C137.6 155.67 137.15 155.22 137.15 154.67V147.69C137.15 147.14 137.6 146.69 138.16 146.69H159.31C159.87 146.69 160.32 147.14 160.32 147.69V154.67C160.32 155.22 159.87 155.67 159.31 155.67Z" fill="#2EC0FF"/>
<path d="M377.81 163.65H114V118.8H377.81V163.65ZM115 162.65H376.81V119.8H115V162.65Z" fill="#67777E"/>
<path d="M377.31 163.15H114.5V182.08H377.31V163.15Z" fill="#1B2B32"/>
<path d="M377.81 182.58H114V162.65H377.81V182.58ZM115 181.58H376.81V163.65H115V181.58Z" fill="#67777E"/>
<g opacity="0.4">
<path d="M125.101 175.65C125.001 175.65 124.891 175.61 124.821 175.53C124.661 175.37 124.671 175.12 124.821 174.96L127.051 172.75L124.821 170.54C124.661 170.38 124.661 170.13 124.821 169.97C124.981 169.81 125.231 169.81 125.391 169.97L127.911 172.46C127.991 172.54 128.031 172.64 128.031 172.74C128.031 172.84 127.991 172.95 127.911 173.02L125.391 175.51C125.311 175.59 125.211 175.63 125.111 175.63L125.101 175.65Z" fill="#ACB8BE"/>
</g>
<path d="M377.31 182.08H114.5V201.01H377.31V182.08Z" fill="#1B2B32"/>
<path d="M377.81 201.52H114V181.59H377.81V201.52ZM115 200.52H376.81V182.59H115V200.52Z" fill="#67777E"/>
<g opacity="0.4">
<path d="M125.101 194.58C125.001 194.58 124.891 194.54 124.821 194.46C124.661 194.3 124.671 194.05 124.821 193.89L127.051 191.68L124.821 189.47C124.661 189.31 124.661 189.06 124.821 188.9C124.981 188.74 125.231 188.74 125.391 188.9L127.911 191.39C127.991 191.47 128.031 191.57 128.031 191.67C128.031 191.77 127.991 191.88 127.911 191.95L125.391 194.44C125.311 194.52 125.211 194.56 125.111 194.56L125.101 194.58Z" fill="#ACB8BE"/>
</g>
<g opacity="0.4">
<path d="M138.272 175.48H139.082V174.22H139.882V173.51H139.082V170H138.112L135.432 173.57L135.522 174.22H138.272V175.48ZM136.332 173.51L138.272 170.92V173.51H136.332Z" fill="#ACB8BE"/>
</g>
<path d="M377.31 201.02H114.5V219.96H377.31V201.02Z" fill="#1B2B32"/>
<path d="M377.81 220.45H114V200.51H377.81V220.45ZM115 219.45H376.81V201.51H115V219.45Z" fill="#67777E"/>
<g opacity="0.4">
<path d="M125.101 213.52C125.001 213.52 124.891 213.48 124.821 213.4C124.661 213.24 124.671 212.99 124.821 212.83L127.051 210.62L124.821 208.41C124.661 208.25 124.661 208 124.821 207.84C124.981 207.68 125.231 207.68 125.391 207.84L127.911 210.33C127.991 210.41 128.031 210.51 128.031 210.61C128.031 210.71 127.991 210.82 127.911 210.89L125.391 213.38C125.311 213.46 125.211 213.5 125.111 213.5L125.101 213.52Z" fill="#ACB8BE"/>
<path d="M138.688 208.568C139.688 208.568 140.528 209.192 140.528 210.28C140.528 211.296 139.736 212.096 138.592 212.096C137.104 212.096 136.504 210.888 136.504 209.336C136.504 207.696 137.48 206.408 138.728 206.408C139.4 206.408 139.88 206.672 140.288 207.064L139.944 207.552C139.6 207.216 139.24 206.976 138.712 206.976C137.832 206.976 137.136 208.016 137.136 209.336V209.408C137.472 208.88 138.04 208.568 138.688 208.568ZM138.584 211.56C139.408 211.56 139.896 210.92 139.896 210.312C139.896 209.56 139.312 209.104 138.576 209.104C137.88 209.104 137.344 209.52 137.208 210.128C137.368 210.96 137.816 211.56 138.584 211.56Z" fill="white"/>
</g>
<g opacity="0.4">
<path d="M153.271 172.62C153.271 172.07 153.721 171.62 154.281 171.62H194.561C195.121 171.62 195.571 172.07 195.571 172.62C195.571 173.17 195.121 173.62 194.561 173.62H154.281C153.721 173.62 153.271 173.17 153.271 172.62Z" fill="#ACB8BE"/>
<path d="M205.631 172.62C205.631 172.07 206.081 171.62 206.641 171.62H260.011C260.571 171.62 261.021 172.07 261.021 172.62C261.021 173.17 260.571 173.62 260.011 173.62H206.641C206.081 173.62 205.631 173.17 205.631 172.62Z" fill="#ACB8BE"/>
<path d="M153.271 191.55C153.271 191 153.721 190.55 154.281 190.55H194.561C195.121 190.55 195.571 191 195.571 191.55C195.571 192.1 195.121 192.55 194.561 192.55H154.281C153.721 192.55 153.271 192.1 153.271 191.55Z" fill="#ACB8BE"/>
<path d="M205.631 191.55C205.631 191 206.081 190.55 206.641 190.55H260.011C260.571 190.55 261.021 191 261.021 191.55C261.021 192.1 260.571 192.55 260.011 192.55H206.641C206.081 192.55 205.631 192.1 205.631 191.55Z" fill="#ACB8BE"/>
<path d="M153.271 210.49C153.271 209.94 153.721 209.49 154.281 209.49H194.561C195.121 209.49 195.571 209.94 195.571 210.49C195.571 211.04 195.121 211.49 194.561 211.49H154.281C153.721 211.49 153.271 211.04 153.271 210.49Z" fill="#ACB8BE"/>
<path d="M205.631 210.49C205.631 209.94 206.081 209.49 206.641 209.49H260.011C260.571 209.49 261.021 209.94 261.021 210.49C261.021 211.04 260.571 211.49 260.011 211.49H206.641C206.081 211.49 205.631 211.04 205.631 210.49Z" fill="#ACB8BE"/>
</g>
<g opacity="0.4">
<path d="M137.65 194.51C138.84 194.51 139.69 193.78 139.69 192.68C139.69 191.58 138.86 190.97 137.86 190.97C137.38 190.97 137.01 191.13 136.72 191.32L136.77 189.69H139.4V188.94H136L135.92 191.8L136.49 192.06C136.82 191.81 137.21 191.66 137.67 191.66C138.39 191.66 138.89 192.08 138.89 192.71C138.89 193.34 138.4 193.8 137.68 193.8C137.09 193.8 136.58 193.51 136.16 193.08L135.65 193.65C136.12 194.16 136.79 194.51 137.66 194.51H137.65Z" fill="#ACB8BE"/>
</g>
<path d="M377.31 62.5H114.5V81.43H377.31V62.5Z" fill="#1B2B32"/>
<path d="M377.81 81.93H114V62H377.81V81.93ZM115 80.93H376.81V63H115V80.93Z" fill="#67777E"/>
<path d="M118.032 62.99H115.012V80.93H118.032V62.99Z" fill="#67CA16"/>
<path d="M125.101 74.9899C125.001 74.9899 124.891 74.9499 124.821 74.8699C124.661 74.7099 124.671 74.4599 124.821 74.2999L127.051 72.0899L124.821 69.8799C124.661 69.7199 124.661 69.4699 124.821 69.3099C124.981 69.1499 125.231 69.1499 125.391 69.3099L127.911 71.7999C127.991 71.8799 128.031 71.9799 128.031 72.0799C128.031 72.1799 127.991 72.2899 127.911 72.3599L125.391 74.8499C125.311 74.9299 125.211 74.9699 125.111 74.9699L125.101 74.9899Z" fill="#ACB8BE"/>
<path d="M137.091 74.95H137.901V69.47H137.251L135.791 70.45L136.131 71.03L137.091 70.42V74.94V74.95Z" fill="#ACB8BE"/>
<path d="M377.31 81.4299H114.5V100.36H377.31V81.4299Z" fill="#1B2B32"/>
<path d="M377.81 100.86H114V80.9299H377.81V100.86ZM115 99.8599H376.81V81.9299H115V99.8599Z" fill="#67777E"/>
<path d="M118.032 81.9299H115.012V99.8699H118.032V81.9299Z" fill="#67CA16"/>
<path d="M125.101 93.9301C125.001 93.9301 124.891 93.8901 124.821 93.8101C124.661 93.6501 124.671 93.4001 124.821 93.2401L127.051 91.0301L124.821 88.8201C124.661 88.6601 124.661 88.4101 124.821 88.2501C124.981 88.0901 125.231 88.0901 125.391 88.2501L127.911 90.7401C127.991 90.8201 128.031 90.9201 128.031 91.0201C128.031 91.1201 127.991 91.2301 127.911 91.3001L125.391 93.7901C125.311 93.8701 125.211 93.9101 125.111 93.9101L125.101 93.9301Z" fill="#ACB8BE"/>
<path d="M153.271 110C153.271 109.45 153.721 109 154.281 109H194.561C195.121 109 195.571 109.45 195.571 110C195.571 110.55 195.121 111 194.561 111H154.281C153.721 111 153.271 110.55 153.271 110Z" fill="#ACB8BE"/>
<path d="M153.271 71.96C153.271 71.41 153.721 70.96 154.281 70.96H194.561C195.121 70.96 195.571 71.41 195.571 71.96C195.571 72.51 195.121 72.96 194.561 72.96H154.281C153.721 72.96 153.271 72.51 153.271 71.96Z" fill="#ACB8BE"/>
<path d="M205.631 71.96C205.631 71.41 206.081 70.96 206.641 70.96H260.011C260.571 70.96 261.021 71.41 261.021 71.96C261.021 72.51 260.571 72.96 260.011 72.96H206.641C206.081 72.96 205.631 72.51 205.631 71.96Z" fill="#ACB8BE"/>
<path d="M153.271 90.9001C153.271 90.3501 153.721 89.9001 154.281 89.9001H194.561C195.121 89.9001 195.571 90.3501 195.571 90.9001C195.571 91.4501 195.121 91.9001 194.561 91.9001H154.281C153.721 91.9001 153.271 91.4501 153.271 90.9001Z" fill="#ACB8BE"/>
<path d="M205.631 90.9001C205.631 90.3501 206.081 89.9001 206.641 89.9001H260.011C260.571 89.9001 261.021 90.3501 261.021 90.9001C261.021 91.4501 260.571 91.9001 260.011 91.9001H206.641C206.081 91.9001 205.631 91.4501 205.631 90.9001Z" fill="#ACB8BE"/>
<path d="M205.631 110C205.631 109.45 206.081 109 206.641 109H260.011C260.571 109 261.021 109.45 261.021 110C261.021 110.55 260.571 111 260.011 111H206.641C206.081 111 205.631 110.55 205.631 110Z" fill="#ACB8BE"/>
<path d="M135.611 93.8901H139.551V93.1401H136.901L138.201 92.0601C139.151 91.2901 139.501 90.7101 139.501 89.9801C139.501 88.9801 138.681 88.3201 137.651 88.3201C136.771 88.3201 136.121 88.7201 135.641 89.3801L136.191 89.8601C136.581 89.3701 137.021 89.0501 137.621 89.0501C138.171 89.0501 138.671 89.4001 138.671 90.0001C138.671 90.4901 138.391 90.9601 137.651 91.5801L135.621 93.2401V93.9001L135.611 93.8901Z" fill="#ACB8BE"/>
<path d="M377.81 119.8H114V99.8701H377.81V119.8ZM115 118.8H376.81V100.87H115V118.8Z" fill="#67777E"/>
<path d="M126.111 112.23C126.011 112.23 125.911 112.19 125.831 112.11L123.311 109.62C123.151 109.46 123.151 109.21 123.311 109.05C123.471 108.89 123.721 108.89 123.881 109.05L126.121 111.26L128.361 109.05C128.521 108.89 128.771 108.9 128.931 109.05C129.091 109.21 129.081 109.46 128.931 109.62L126.411 112.11C126.331 112.19 126.231 112.23 126.131 112.23H126.111Z" fill="#ACB8BE"/>
<path d="M137.59 112.92C138.79 112.92 139.58 112.25 139.58 111.33C139.58 110.56 138.98 110.15 138.4 110.02C138.98 109.84 139.45 109.42 139.45 108.74C139.45 107.86 138.68 107.25 137.56 107.25C136.66 107.25 136.03 107.66 135.6 108.21L136.11 108.7C136.5 108.25 136.92 107.97 137.5 107.97C138.14 107.97 138.63 108.34 138.63 108.85C138.63 109.4 138.14 109.7 137.44 109.7H136.84V110.41H137.44C138.26 110.41 138.74 110.7 138.74 111.26C138.74 111.82 138.28 112.18 137.56 112.18C136.92 112.18 136.38 111.88 136.01 111.44L135.49 111.97C135.92 112.5 136.63 112.9 137.58 112.9L137.59 112.92Z" fill="#ACB8BE"/>
<rect width="452" height="17" fill="#3A4D55"/>
</g>
<rect x="0.5" y="0.5" width="451" height="263" stroke="#4F6169"/>
<defs>
<clipPath id="clip0_8802_35072">
<rect width="452" height="264" fill="white"/>
</clipPath>
</defs>
</svg>
