<svg width="452" height="264" viewBox="0 0 452 264" fill="none" xmlns="http://www.w3.org/2000/svg">
<g clip-path="url(#clip0_8802_38358)">
<path d="M0 4C0 1.79086 1.79086 0 4 0H448C450.209 0 452 1.79086 452 4V264H0V4Z" fill="#1B2B32"/>
<rect width="452" height="17" fill="#859399"/>
<g opacity="0.7">
<rect width="452" height="264" fill="#2D4048"/>
</g>
<g filter="url(#filter0_d_8802_38358)">
<path d="M102.5 61.52C102.5 59.3 104.31 57.5 106.55 57.5H344.47C346.7 57.5 348.52 59.3 348.52 61.52V202.07C348.52 204.29 346.71 206.09 344.47 206.09H106.55C104.32 206.09 102.5 204.29 102.5 202.07V61.52Z" fill="#1B2B32"/>
</g>
<g opacity="0.8">
<path d="M329.04 189.79H292.41C291.2 189.79 290.23 188.82 290.23 187.62V175.68C290.23 174.48 291.21 173.51 292.41 173.51H329.04C330.25 173.51 331.22 174.48 331.22 175.68V187.62C331.22 188.82 330.24 189.79 329.04 189.79Z" fill="#2EC0FF"/>
</g>
<g opacity="0.8">
<path d="M280.72 189.8H244.09C242.89 189.8 241.91 188.83 241.91 187.63V175.69C241.91 174.49 242.89 173.52 244.09 173.52H280.72C281.92 173.52 282.9 174.49 282.9 175.69V187.63C282.9 188.83 281.92 189.8 280.72 189.8ZM244.09 174.6C243.49 174.6 243 175.09 243 175.68V187.62C243 188.22 243.49 188.7 244.09 188.7H280.72C281.32 188.7 281.81 188.21 281.81 187.62V175.68C281.81 175.08 281.32 174.6 280.72 174.6H244.09Z" fill="#2EC0FF"/>
</g>
<path opacity="0.4" d="M120.95 75.32C120.95 74.48 121.64 73.79 122.49 73.79H176.82C177.67 73.79 178.36 74.47 178.36 75.32C178.36 76.17 177.67 76.85 176.82 76.85H122.49C121.64 76.85 120.95 76.17 120.95 75.32Z" fill="#ACB8BE"/>
<path d="M330.11 92.1001H120.91C119.8 92.1001 118.91 92.9901 118.91 94.0901V152.19C118.91 153.29 119.81 154.18 120.91 154.18H330.11C331.22 154.18 332.11 153.29 332.11 152.19V94.0901C332.11 92.9901 331.21 92.1001 330.11 92.1001Z" fill="#2D4048"/>
<path d="M344.46 206.58H106.55C104.04 206.58 102 204.55 102 202.06V61.52C102 59.03 104.04 57 106.55 57H344.47C346.98 57 349.02 59.03 349.02 61.52V202.07C349.02 204.56 346.98 206.59 344.47 206.59L344.46 206.58ZM106.55 58C104.59 58 103 59.58 103 61.52V202.07C103 204.01 104.59 205.59 106.55 205.59H344.47C346.42 205.59 348.02 204.01 348.02 202.07V61.52C348.02 59.58 346.43 58 344.47 58H106.55Z" fill="#4F6169"/>
</g>
<path d="M4 0.5H448C449.933 0.5 451.5 2.067 451.5 4V263.5H0.5V4C0.5 2.067 2.067 0.5 4 0.5Z" stroke="#4F6169"/>
<defs>
<filter id="filter0_d_8802_38358" x="98.5" y="57.5" width="254.02" height="156.59" filterUnits="userSpaceOnUse" color-interpolation-filters="sRGB">
<feFlood flood-opacity="0" result="BackgroundImageFix"/>
<feColorMatrix in="SourceAlpha" type="matrix" values="0 0 0 0 0 0 0 0 0 0 0 0 0 0 0 0 0 0 127 0" result="hardAlpha"/>
<feOffset dy="4"/>
<feGaussianBlur stdDeviation="2"/>
<feComposite in2="hardAlpha" operator="out"/>
<feColorMatrix type="matrix" values="0 0 0 0 0 0 0 0 0 0 0 0 0 0 0 0 0 0 0.25 0"/>
<feBlend mode="normal" in2="BackgroundImageFix" result="effect1_dropShadow_8802_38358"/>
<feBlend mode="normal" in="SourceGraphic" in2="effect1_dropShadow_8802_38358" result="shape"/>
</filter>
<clipPath id="clip0_8802_38358">
<path d="M0 4C0 1.79086 1.79086 0 4 0H448C450.209 0 452 1.79086 452 4V264H0V4Z" fill="white"/>
</clipPath>
</defs>
</svg>
