<svg width="284" height="312" viewBox="0 0 284 312" fill="none" xmlns="http://www.w3.org/2000/svg">
<path d="M4 0.5H280C281.933 0.5 283.5 2.067 283.5 4V308C283.5 309.933 281.933 311.5 280 311.5H4C2.06701 311.5 0.5 309.933 0.5 308V3.99999C0.5 2.067 2.067 0.5 4 0.5Z" fill="#22343C"/>
<path d="M4 0.5H280C281.933 0.5 283.5 2.067 283.5 4V308C283.5 309.933 281.933 311.5 280 311.5H4C2.06701 311.5 0.5 309.933 0.5 308V3.99999C0.5 2.067 2.067 0.5 4 0.5Z" stroke="#4F6169"/>
<path d="M24.5106 38.34L29.5506 34.18C30.4573 33.42 31.104 32.7267 31.4906 32.1C31.8906 31.4733 32.0906 30.8467 32.0906 30.22C32.0906 29.5 31.8373 28.9267 31.3306 28.5C30.824 28.06 30.2106 27.84 29.4906 27.84C28.7706 27.84 28.124 28.0133 27.5506 28.36C26.9773 28.7067 26.4373 29.2133 25.9306 29.88L24.5706 28.68C25.8506 26.9067 27.5173 26.02 29.5706 26.02C30.424 26.02 31.1973 26.1933 31.8906 26.54C32.5973 26.8867 33.1506 27.38 33.5506 28.02C33.964 28.6467 34.1706 29.3667 34.1706 30.18C34.1706 31.1 33.924 31.96 33.4306 32.76C32.9373 33.56 32.104 34.44 30.9306 35.4L27.7106 38.12H34.2906V40H24.5106V38.34ZM42.1922 40.24C41.0589 40.24 40.0455 39.94 39.1522 39.34C38.2589 38.7267 37.5589 37.88 37.0522 36.8C36.5589 35.72 36.3122 34.4933 36.3122 33.12C36.3122 31.7467 36.5589 30.5267 37.0522 29.46C37.5589 28.38 38.2589 27.54 39.1522 26.94C40.0455 26.3267 41.0589 26.02 42.1922 26.02C43.3122 26.02 44.3122 26.3267 45.1922 26.94C46.0855 27.54 46.7789 28.38 47.2722 29.46C47.7789 30.5267 48.0322 31.7467 48.0322 33.12C48.0322 34.4933 47.7789 35.72 47.2722 36.8C46.7789 37.88 46.0922 38.7267 45.2122 39.34C44.3322 39.94 43.3255 40.24 42.1922 40.24ZM42.1922 38.38C42.9255 38.38 43.5789 38.16 44.1522 37.72C44.7255 37.2667 45.1722 36.64 45.4922 35.84C45.8122 35.04 45.9722 34.1333 45.9722 33.12C45.9722 32.1067 45.8122 31.2067 45.4922 30.42C45.1722 29.62 44.7255 29 44.1522 28.56C43.5789 28.1067 42.9255 27.88 42.1922 27.88C41.4589 27.88 40.7989 28.1067 40.2122 28.56C39.6389 29 39.1855 29.62 38.8522 30.42C38.5322 31.2067 38.3722 32.1067 38.3722 33.12C38.3722 34.1333 38.5322 35.04 38.8522 35.84C39.1855 36.64 39.6389 37.2667 40.2122 37.72C40.7989 38.16 41.4589 38.38 42.1922 38.38ZM49.677 38.34L54.717 34.18C55.6237 33.42 56.2704 32.7267 56.657 32.1C57.057 31.4733 57.257 30.8467 57.257 30.22C57.257 29.5 57.0037 28.9267 56.497 28.5C55.9904 28.06 55.377 27.84 54.657 27.84C53.937 27.84 53.2904 28.0133 52.717 28.36C52.1437 28.7067 51.6037 29.2133 51.097 29.88L49.737 28.68C51.017 26.9067 52.6837 26.02 54.737 26.02C55.5904 26.02 56.3637 26.1933 57.057 26.54C57.7637 26.8867 58.317 27.38 58.717 28.02C59.1304 28.6467 59.337 29.3667 59.337 30.18C59.337 31.1 59.0904 31.96 58.597 32.76C58.1037 33.56 57.2704 34.44 56.097 35.4L52.877 38.12H59.457V40H49.677V38.34ZM66.3586 40.24C65.3186 40.24 64.3786 40.0533 63.5386 39.68C62.6986 39.2933 61.9719 38.76 61.3586 38.08L62.6186 36.64C63.7653 37.8533 65.0253 38.46 66.3986 38.46C67.2786 38.46 67.9986 38.2 68.5586 37.68C69.1186 37.16 69.3986 36.5067 69.3986 35.72C69.3986 34.9333 69.1186 34.3 68.5586 33.82C67.9986 33.3267 67.2719 33.08 66.3786 33.08C65.3119 33.08 64.3386 33.4133 63.4586 34.08L62.0386 33.44L62.2386 26.26H70.6786V28.14H64.1586L64.0386 32.22C64.9186 31.6333 65.8653 31.34 66.8786 31.34C67.7186 31.34 68.4786 31.5133 69.1586 31.86C69.8519 32.1933 70.3986 32.6867 70.7986 33.34C71.2119 33.9933 71.4186 34.76 71.4186 35.64C71.4186 36.5467 71.2053 37.3533 70.7786 38.06C70.3519 38.7533 69.7519 39.2933 68.9786 39.68C68.2186 40.0533 67.3453 40.24 66.3586 40.24Z" fill="#2EC0FF"/>
<path d="M179.722 28.88L174.711 34L179.722 39.12C180.007 39.4096 180.459 39.4007 180.733 39.1C181.007 38.7993 180.999 38.3208 180.714 38.0311L176.767 34L180.714 29.9644C180.999 29.6748 181.007 29.1962 180.733 28.8956C180.459 28.5949 180.007 28.5859 179.722 28.8756L179.722 28.88Z" fill="#CBD4D8"/>
<path d="M213.187 37.4933L210.804 35.1111C210.732 35.0261 210.694 34.9167 210.698 34.8049C210.702 34.693 210.749 34.5869 210.828 34.5077C210.907 34.4286 211.013 34.3822 211.125 34.3779C211.237 34.3736 211.346 34.4116 211.431 34.4844L213.187 36.2222L217.027 32.3822C217.112 32.3094 217.221 32.2714 217.333 32.2757C217.445 32.28 217.551 32.3264 217.63 32.4055C217.709 32.4847 217.756 32.5908 217.76 32.7026C217.764 32.8145 217.726 32.9239 217.653 33.0089L213.187 37.4933Z" fill="#CBD4D8"/>
<path d="M220.333 28.6667H218.889V29.5556H220.222V39.3333H207.778V29.5556H209.111V28.6667H207.667C207.563 28.6684 207.46 28.6906 207.365 28.732C207.27 28.7733 207.183 28.8331 207.111 28.9078C207.039 28.9825 206.982 29.0707 206.944 29.1673C206.906 29.264 206.887 29.3672 206.889 29.4711V39.4178C206.887 39.5217 206.906 39.6249 206.944 39.7216C206.982 39.8182 207.039 39.9064 207.111 39.9811C207.183 40.0558 207.27 40.1156 207.365 40.1569C207.46 40.1983 207.563 40.2205 207.667 40.2222H220.333C220.437 40.2205 220.54 40.1983 220.635 40.1569C220.73 40.1156 220.817 40.0558 220.889 39.9811C220.961 39.9064 221.018 39.8182 221.056 39.7216C221.094 39.6249 221.113 39.5217 221.111 39.4178V29.4711C221.113 29.3672 221.094 29.264 221.056 29.1673C221.018 29.0707 220.961 28.9825 220.889 28.9078C220.817 28.8331 220.73 28.7733 220.635 28.732C220.54 28.6906 220.437 28.6684 220.333 28.6667Z" fill="#CBD4D8"/>
<path d="M210.444 30.4444C210.562 30.4444 210.675 30.3976 210.759 30.3143C210.842 30.2309 210.889 30.1179 210.889 30V27.3333C210.889 27.2155 210.842 27.1024 210.759 27.0191C210.675 26.9357 210.562 26.8889 210.444 26.8889C210.327 26.8889 210.214 26.9357 210.13 27.0191C210.047 27.1024 210 27.2155 210 27.3333V30C210 30.1179 210.047 30.2309 210.13 30.3143C210.214 30.3976 210.327 30.4444 210.444 30.4444Z" fill="#CBD4D8"/>
<path d="M217.556 30.4444C217.673 30.4444 217.786 30.3976 217.87 30.3143C217.953 30.2309 218 30.1179 218 30V27.3333C218 27.2155 217.953 27.1024 217.87 27.0191C217.786 26.9357 217.673 26.8889 217.556 26.8889C217.438 26.8889 217.325 26.9357 217.241 27.0191C217.158 27.1024 217.111 27.2155 217.111 27.3333V30C217.111 30.1179 217.158 30.2309 217.241 30.3143C217.325 30.3976 217.438 30.4444 217.556 30.4444Z" fill="#CBD4D8"/>
<path d="M216.222 28.6667H211.778V29.5556H216.222V28.6667Z" fill="#CBD4D8"/>
<path d="M248.278 39.12L253.289 34L248.278 28.88C247.993 28.5904 247.541 28.5993 247.267 28.9C246.993 29.2007 247.001 29.6792 247.286 29.9689L251.233 34L247.286 38.0356C247.001 38.3252 246.993 38.8038 247.267 39.1044C247.541 39.4051 247.993 39.4141 248.278 39.1244L248.278 39.12Z" fill="#CBD4D8"/>
<path d="M57.7184 83.8227C57.1897 83.8227 56.6654 83.684 56.1454 83.4067C55.634 83.1293 55.244 82.774 54.9754 82.3407L55.7164 81.6127C55.8897 81.9853 56.1627 82.293 56.5354 82.5357C56.9167 82.7783 57.311 82.8997 57.7184 82.8997C58.247 82.8997 58.6804 82.7003 59.0184 82.3017C59.3564 81.903 59.5254 81.3873 59.5254 80.7547V74.7357H60.5394V80.7547C60.5394 81.344 60.418 81.8727 60.1754 82.3407C59.9414 82.8087 59.6077 83.1727 59.1744 83.4327C58.7497 83.6927 58.2644 83.8227 57.7184 83.8227ZM65.2347 76.7897C66.1274 76.7897 66.8034 77.0453 67.2627 77.5567C67.7307 78.0593 67.9647 78.731 67.9647 79.5717V83.6667H66.9897V82.6137C66.7557 82.995 66.4177 83.294 65.9757 83.5107C65.5424 83.7187 65.0917 83.8227 64.6237 83.8227C63.9044 83.8227 63.3151 83.6277 62.8557 83.2377C62.3964 82.8477 62.1667 82.3277 62.1667 81.6777C62.1667 81.2443 62.2837 80.8587 62.5177 80.5207C62.7604 80.174 63.0811 79.9097 63.4797 79.7277C63.8871 79.537 64.3291 79.4417 64.8057 79.4417C65.4817 79.4417 66.2097 79.5673 66.9897 79.8187V79.5717C66.9897 79.0257 66.8511 78.5663 66.5737 78.1937C66.2964 77.8123 65.8284 77.6217 65.1697 77.6217C64.8664 77.6217 64.5544 77.678 64.2337 77.7907C63.9217 77.8947 63.5794 78.042 63.2067 78.2327L62.8167 77.4397C63.6834 77.0063 64.4894 76.7897 65.2347 76.7897ZM64.7927 82.9647C65.2781 82.9647 65.7331 82.8433 66.1577 82.6007C66.5911 82.3493 66.8684 82.0027 66.9897 81.5607V80.5337C66.3311 80.3517 65.6551 80.2607 64.9617 80.2607C64.4504 80.2607 64.0127 80.3907 63.6487 80.6507C63.2934 80.9107 63.1157 81.24 63.1157 81.6387C63.1157 82.046 63.2717 82.371 63.5837 82.6137C63.9044 82.8477 64.3074 82.9647 64.7927 82.9647ZM73.1511 76.7897C73.6451 76.7897 74.0827 76.898 74.4641 77.1147C74.8454 77.3313 75.1401 77.639 75.3481 78.0377C75.5647 78.4277 75.6731 78.8783 75.6731 79.3897V83.6667H74.6981V79.5197C74.6981 78.965 74.5421 78.5187 74.2301 78.1807C73.9181 77.834 73.5151 77.6607 73.0211 77.6607C72.6484 77.6607 72.3017 77.7387 71.9811 77.8947C71.6604 78.0507 71.4047 78.263 71.2141 78.5317C71.0321 78.7917 70.9411 79.0777 70.9411 79.3897V83.6667H69.9661V76.9457H70.9411V78.0117C71.1404 77.6477 71.4394 77.353 71.8381 77.1277C72.2367 76.9023 72.6744 76.7897 73.1511 76.7897ZM83.2247 76.9457V83.6667H82.2497V82.6007C82.0503 82.9647 81.7513 83.2593 81.3527 83.4847C80.954 83.71 80.5163 83.8227 80.0397 83.8227C79.5457 83.8227 79.108 83.7143 78.7267 83.4977C78.3453 83.281 78.0463 82.9777 77.8297 82.5877C77.6217 82.189 77.5177 81.734 77.5177 81.2227V76.9457H78.4927V81.0927C78.4927 81.6473 78.6487 82.098 78.9607 82.4447C79.2727 82.7827 79.6757 82.9517 80.1697 82.9517C80.5423 82.9517 80.889 82.8737 81.2097 82.7177C81.5303 82.5617 81.7817 82.3537 81.9637 82.0937C82.1543 81.825 82.2497 81.5347 82.2497 81.2227V76.9457H83.2247ZM87.7863 76.7897C88.679 76.7897 89.355 77.0453 89.8143 77.5567C90.2823 78.0593 90.5163 78.731 90.5163 79.5717V83.6667H89.5413V82.6137C89.3073 82.995 88.9693 83.294 88.5273 83.5107C88.094 83.7187 87.6433 83.8227 87.1753 83.8227C86.456 83.8227 85.8666 83.6277 85.4073 83.2377C84.948 82.8477 84.7183 82.3277 84.7183 81.6777C84.7183 81.2443 84.8353 80.8587 85.0693 80.5207C85.312 80.174 85.6326 79.9097 86.0313 79.7277C86.4386 79.537 86.8806 79.4417 87.3573 79.4417C88.0333 79.4417 88.7613 79.5673 89.5413 79.8187V79.5717C89.5413 79.0257 89.4026 78.5663 89.1253 78.1937C88.848 77.8123 88.38 77.6217 87.7213 77.6217C87.418 77.6217 87.106 77.678 86.7853 77.7907C86.4733 77.8947 86.131 78.042 85.7583 78.2327L85.3683 77.4397C86.235 77.0063 87.041 76.7897 87.7863 76.7897ZM87.3443 82.9647C87.8296 82.9647 88.2846 82.8433 88.7093 82.6007C89.1426 82.3493 89.42 82.0027 89.5413 81.5607V80.5337C88.8826 80.3517 88.2066 80.2607 87.5133 80.2607C87.002 80.2607 86.5643 80.3907 86.2003 80.6507C85.845 80.9107 85.6673 81.24 85.6673 81.6387C85.6673 82.046 85.8233 82.371 86.1353 82.6137C86.456 82.8477 86.859 82.9647 87.3443 82.9647ZM93.4926 78.2587C93.692 77.808 94.0213 77.4527 94.4806 77.1927C94.94 76.924 95.4773 76.7897 96.0926 76.7897V77.6607C95.59 77.6607 95.1393 77.756 94.7406 77.9467C94.3506 78.1373 94.043 78.406 93.8176 78.7527C93.601 79.0907 93.4926 79.4763 93.4926 79.9097V83.6667H92.5176V76.9457H93.4926V78.2587ZM98.1569 86.0067C97.7669 86.0067 97.4116 85.933 97.0909 85.7857L97.3249 84.9537C97.5503 85.0663 97.8146 85.1227 98.1179 85.1227C98.3433 85.1227 98.5296 85.0793 98.6769 84.9927C98.8243 84.906 98.9629 84.75 99.0929 84.5247L99.4829 83.6927L96.5579 76.9457H97.6369L99.9899 82.5357L102.213 76.9457H103.266L100.198 84.4207C99.9726 84.9753 99.6953 85.374 99.3659 85.6167C99.0366 85.868 98.6336 85.998 98.1569 86.0067Z" fill="#CBD4D8"/>
<rect x="16" y="99.3333" width="126" height="39.3333" rx="4" fill="#2EC0FF"/>
<path d="M60.8009 114.069H62.4129L65.3639 119.516L68.3019 114.069H69.9269V123H68.3019V117.033L65.3639 122.48L62.4129 117.033V123H60.8009V114.069ZM74.723 116.123C75.607 116.123 76.3047 116.383 76.816 116.903C77.336 117.414 77.596 118.099 77.596 118.957V123H76.049V122.207C75.8064 122.502 75.4944 122.736 75.113 122.909C74.7317 123.074 74.3417 123.156 73.943 123.156C73.4664 123.156 73.0374 123.069 72.656 122.896C72.2834 122.714 71.9887 122.463 71.772 122.142C71.5554 121.813 71.447 121.436 71.447 121.011C71.447 120.578 71.5684 120.192 71.811 119.854C72.0537 119.516 72.383 119.252 72.799 119.061C73.215 118.87 73.6744 118.775 74.177 118.775C74.775 118.775 75.399 118.892 76.049 119.126V118.957C76.049 118.515 75.9147 118.151 75.646 117.865C75.386 117.57 74.9744 117.423 74.411 117.423C73.8737 117.423 73.267 117.592 72.591 117.93L72.045 116.825C72.9984 116.357 73.891 116.123 74.723 116.123ZM74.294 121.999C74.7014 121.999 75.074 121.899 75.412 121.7C75.7587 121.501 75.971 121.232 76.049 120.894V120.127C75.529 119.962 74.983 119.88 74.411 119.88C74.0037 119.88 73.6614 119.984 73.384 120.192C73.1067 120.391 72.968 120.647 72.968 120.959C72.968 121.271 73.0937 121.522 73.345 121.713C73.5964 121.904 73.9127 121.999 74.294 121.999ZM80.9194 117.553C81.1361 117.111 81.4567 116.764 81.8814 116.513C82.3061 116.253 82.7871 116.123 83.3244 116.123V117.475C82.6051 117.475 82.0244 117.67 81.5824 118.06C81.1404 118.45 80.9194 118.966 80.9194 119.607V123H79.3334V116.279H80.9194V117.553ZM87.748 123.156C87.1067 123.156 86.5087 122.996 85.954 122.675C85.408 122.354 84.9703 121.925 84.641 121.388C84.3117 120.842 84.147 120.257 84.147 119.633C84.147 119.009 84.3117 118.428 84.641 117.891C84.9703 117.354 85.4123 116.925 85.967 116.604C86.5217 116.283 87.1197 116.123 87.761 116.123C88.2637 116.123 88.7317 116.223 89.165 116.422C89.5983 116.613 89.9797 116.877 90.309 117.215L89.243 118.151C89.061 117.943 88.8357 117.778 88.567 117.657C88.2983 117.536 88.0253 117.475 87.748 117.475C87.384 117.475 87.046 117.575 86.734 117.774C86.422 117.965 86.175 118.229 85.993 118.567C85.811 118.896 85.72 119.252 85.72 119.633C85.72 120.023 85.811 120.387 85.993 120.725C86.175 121.054 86.422 121.319 86.734 121.518C87.046 121.709 87.384 121.804 87.748 121.804C88.034 121.804 88.3113 121.743 88.58 121.622C88.8573 121.492 89.0913 121.319 89.282 121.102L90.348 122.025C90.01 122.38 89.62 122.658 89.178 122.857C88.736 123.056 88.2593 123.156 87.748 123.156ZM95.1773 116.123C95.6627 116.123 96.096 116.236 96.4773 116.461C96.8587 116.678 97.1533 116.985 97.3613 117.384C97.578 117.774 97.6863 118.22 97.6863 118.723V123H96.1393V119.035C96.1393 118.576 96.0093 118.203 95.7493 117.917C95.4893 117.622 95.1513 117.475 94.7353 117.475C94.276 117.475 93.886 117.618 93.5653 117.904C93.2533 118.181 93.0973 118.524 93.0973 118.931V123H91.5113V113.913H93.0973V117.189C93.3053 116.868 93.5913 116.613 93.9553 116.422C94.328 116.223 94.7353 116.123 95.1773 116.123Z" fill="black"/>
<path d="M67.7193 153.402H68.7333L72.0483 159.629L75.3633 153.402H76.3773V162.333H75.3633V155.586L72.0483 161.813L68.7333 155.586V162.333H67.7193V153.402ZM81.2276 155.456C82.1203 155.456 82.7963 155.712 83.2556 156.223C83.7236 156.726 83.9576 157.398 83.9576 158.238V162.333H82.9826V161.28C82.7486 161.662 82.4106 161.961 81.9686 162.177C81.5353 162.385 81.0846 162.489 80.6166 162.489C79.8973 162.489 79.3079 162.294 78.8486 161.904C78.3893 161.514 78.1596 160.994 78.1596 160.344C78.1596 159.911 78.2766 159.525 78.5106 159.187C78.7533 158.841 79.0739 158.576 79.4726 158.394C79.8799 158.204 80.3219 158.108 80.7986 158.108C81.4746 158.108 82.2026 158.234 82.9826 158.485V158.238C82.9826 157.692 82.8439 157.233 82.5666 156.86C82.2893 156.479 81.8213 156.288 81.1626 156.288C80.8593 156.288 80.5473 156.345 80.2266 156.457C79.9146 156.561 79.5723 156.709 79.1996 156.899L78.8096 156.106C79.6763 155.673 80.4823 155.456 81.2276 155.456ZM80.7856 161.631C81.2709 161.631 81.7259 161.51 82.1506 161.267C82.5839 161.016 82.8613 160.669 82.9826 160.227V159.2C82.3239 159.018 81.6479 158.927 80.9546 158.927C80.4433 158.927 80.0056 159.057 79.6416 159.317C79.2863 159.577 79.1086 159.907 79.1086 160.305C79.1086 160.713 79.2646 161.038 79.5766 161.28C79.8973 161.514 80.3003 161.631 80.7856 161.631ZM86.5439 164.673C86.1539 164.673 85.7986 164.6 85.4779 164.452L85.7119 163.62C85.9373 163.733 86.2016 163.789 86.5049 163.789C86.7303 163.789 86.9166 163.746 87.0639 163.659C87.2113 163.573 87.3499 163.417 87.4799 163.191L87.8699 162.359L84.9449 155.612H86.0239L88.3769 161.202L90.5999 155.612H91.6529L88.5849 163.087C88.3596 163.642 88.0823 164.041 87.7529 164.283C87.4236 164.535 87.0206 164.665 86.5439 164.673Z" fill="#CBD4D8"/>
<path d="M69.667 201.823C69.1383 201.823 68.614 201.684 68.094 201.407C67.5827 201.129 67.1927 200.774 66.924 200.341L67.665 199.613C67.8383 199.985 68.1113 200.293 68.484 200.536C68.8653 200.778 69.2597 200.9 69.667 200.9C70.1957 200.9 70.629 200.7 70.967 200.302C71.305 199.903 71.474 199.387 71.474 198.755V192.736H72.488V198.755C72.488 199.344 72.3667 199.873 72.124 200.341C71.89 200.809 71.5563 201.173 71.123 201.433C70.6983 201.693 70.213 201.823 69.667 201.823ZM80.3294 194.946V201.667H79.3544V200.601C79.155 200.965 78.856 201.259 78.4574 201.485C78.0587 201.71 77.621 201.823 77.1444 201.823C76.6504 201.823 76.2127 201.714 75.8314 201.498C75.45 201.281 75.151 200.978 74.9344 200.588C74.7264 200.189 74.6224 199.734 74.6224 199.223V194.946H75.5974V199.093C75.5974 199.647 75.7534 200.098 76.0654 200.445C76.3774 200.783 76.7804 200.952 77.2744 200.952C77.647 200.952 77.9937 200.874 78.3144 200.718C78.635 200.562 78.8864 200.354 79.0684 200.094C79.259 199.825 79.3544 199.535 79.3544 199.223V194.946H80.3294ZM82.486 192.58H83.461V201.667H82.486V192.58ZM86.2083 204.007C85.8183 204.007 85.463 203.933 85.1423 203.786L85.3763 202.954C85.6016 203.066 85.866 203.123 86.1693 203.123C86.3946 203.123 86.581 203.079 86.7283 202.993C86.8756 202.906 87.0143 202.75 87.1443 202.525L87.5343 201.693L84.6093 194.946H85.6883L88.0413 200.536L90.2643 194.946H91.3173L88.2493 202.421C88.024 202.975 87.7466 203.374 87.4173 203.617C87.088 203.868 86.685 203.998 86.2083 204.007Z" fill="#CBD4D8"/>
<path d="M49.2683 241.143C47.8816 241.143 46.7073 240.671 45.7453 239.726L46.3823 238.933C46.7896 239.34 47.2316 239.657 47.7083 239.882C48.1849 240.107 48.7179 240.22 49.3073 240.22C49.7493 240.22 50.1263 240.151 50.4383 240.012C50.7503 239.865 50.9843 239.674 51.1403 239.44C51.3049 239.197 51.3873 238.937 51.3873 238.66C51.3873 238.209 51.1966 237.867 50.8153 237.633C50.4426 237.39 49.8316 237.169 48.9823 236.97C48.3323 236.814 47.7949 236.641 47.3703 236.45C46.9543 236.259 46.6293 236.004 46.3953 235.683C46.1699 235.354 46.0573 234.942 46.0573 234.448C46.0573 233.98 46.1873 233.551 46.4473 233.161C46.7073 232.771 47.0626 232.468 47.5133 232.251C47.9726 232.026 48.4839 231.913 49.0473 231.913C49.6799 231.913 50.2476 232.026 50.7503 232.251C51.2616 232.468 51.7383 232.78 52.1803 233.187L51.5563 233.98C51.1749 233.616 50.7676 233.334 50.3343 233.135C49.9009 232.936 49.4546 232.836 48.9953 232.836C48.6399 232.836 48.3149 232.905 48.0203 233.044C47.7256 233.183 47.4959 233.373 47.3313 233.616C47.1666 233.85 47.0843 234.101 47.0843 234.37C47.0843 234.795 47.2706 235.12 47.6433 235.345C48.0159 235.562 48.6313 235.774 49.4893 235.982C50.4426 236.207 51.1663 236.515 51.6603 236.905C52.1629 237.286 52.4143 237.841 52.4143 238.569C52.4143 239.054 52.2929 239.492 52.0503 239.882C51.8163 240.272 51.4609 240.58 50.9843 240.805C50.5076 241.03 49.9356 241.143 49.2683 241.143ZM56.9722 240.285C57.3709 240.285 57.7696 240.207 58.1682 240.051C58.5756 239.895 58.8832 239.704 59.0912 239.479L59.6892 240.116C59.4032 240.428 59.0002 240.679 58.4802 240.87C57.9689 241.061 57.4706 241.156 56.9852 241.156C56.3872 241.156 55.8282 241.004 55.3082 240.701C54.7882 240.398 54.3679 239.977 54.0472 239.44C53.7352 238.894 53.5792 238.287 53.5792 237.62C53.5792 236.97 53.7266 236.376 54.0212 235.839C54.3246 235.302 54.7276 234.881 55.2302 234.578C55.7416 234.275 56.2962 234.123 56.8942 234.123C57.8996 234.123 58.6796 234.474 59.2342 235.176C59.7976 235.878 60.0792 236.823 60.0792 238.01H54.5802C54.6496 238.677 54.9009 239.223 55.3342 239.648C55.7762 240.073 56.3222 240.285 56.9722 240.285ZM56.9332 234.994C56.3266 234.994 55.8066 235.193 55.3732 235.592C54.9399 235.982 54.6799 236.498 54.5932 237.139H59.1172C59.0479 236.498 58.8269 235.982 58.4542 235.592C58.0816 235.193 57.5746 234.994 56.9332 234.994ZM65.0363 234.123C65.617 234.123 66.1413 234.275 66.6093 234.578C67.086 234.873 67.4587 235.289 67.7273 235.826C67.996 236.355 68.1303 236.957 68.1303 237.633C68.1303 238.309 67.996 238.916 67.7273 239.453C67.4587 239.99 67.086 240.411 66.6093 240.714C66.1413 241.009 65.617 241.156 65.0363 241.156C64.5077 241.156 64.031 241.035 63.6063 240.792C63.1903 240.541 62.8523 240.19 62.5923 239.739V243.236H61.6173V234.279H62.5923V235.54C62.8523 235.089 63.1903 234.743 63.6063 234.5C64.031 234.249 64.5077 234.123 65.0363 234.123ZM64.8543 240.285C65.2877 240.285 65.6733 240.172 66.0113 239.947C66.358 239.722 66.6267 239.41 66.8173 239.011C67.008 238.604 67.1033 238.144 67.1033 237.633C67.1033 237.122 67.008 236.667 66.8173 236.268C66.6267 235.869 66.358 235.557 66.0113 235.332C65.6733 235.107 65.2877 234.994 64.8543 234.994C64.421 234.994 64.031 235.107 63.6843 235.332C63.3377 235.557 63.069 235.869 62.8783 236.268C62.6877 236.667 62.5923 237.122 62.5923 237.633C62.5923 238.144 62.6877 238.604 62.8783 239.011C63.069 239.41 63.3377 239.722 63.6843 239.947C64.031 240.172 64.421 240.285 64.8543 240.285ZM72.8503 240.727C72.4863 241.013 72.0703 241.156 71.6023 241.156C71.1256 241.156 70.7313 240.996 70.4193 240.675C70.1159 240.354 69.9643 239.943 69.9643 239.44V235.15H68.9113V234.279H69.9643V232.433H70.9393V234.279H72.5903V235.15H70.9393V239.44C70.9393 239.683 71.0086 239.886 71.1473 240.051C71.2946 240.207 71.4679 240.285 71.6673 240.285C71.8146 240.285 71.9489 240.259 72.0703 240.207C72.1916 240.155 72.2913 240.09 72.3693 240.012L72.8503 240.727ZM76.9847 240.285C77.3834 240.285 77.7821 240.207 78.1807 240.051C78.5881 239.895 78.8957 239.704 79.1037 239.479L79.7017 240.116C79.4157 240.428 79.0127 240.679 78.4927 240.87C77.9814 241.061 77.4831 241.156 76.9977 241.156C76.3997 241.156 75.8407 241.004 75.3207 240.701C74.8007 240.398 74.3804 239.977 74.0597 239.44C73.7477 238.894 73.5917 238.287 73.5917 237.62C73.5917 236.97 73.7391 236.376 74.0337 235.839C74.3371 235.302 74.7401 234.881 75.2427 234.578C75.7541 234.275 76.3087 234.123 76.9067 234.123C77.9121 234.123 78.6921 234.474 79.2467 235.176C79.8101 235.878 80.0917 236.823 80.0917 238.01H74.5927C74.6621 238.677 74.9134 239.223 75.3467 239.648C75.7887 240.073 76.3347 240.285 76.9847 240.285ZM76.9457 234.994C76.3391 234.994 75.8191 235.193 75.3857 235.592C74.9524 235.982 74.6924 236.498 74.6057 237.139H79.1297C79.0604 236.498 78.8394 235.982 78.4667 235.592C78.0941 235.193 77.5871 234.994 76.9457 234.994ZM88.8968 234.123C89.3562 234.123 89.7678 234.236 90.1318 234.461C90.4958 234.678 90.7775 234.985 90.9768 235.384C91.1848 235.774 91.2888 236.22 91.2888 236.723V241H90.3138V236.853C90.3138 236.307 90.1665 235.861 89.8718 235.514C89.5858 235.167 89.2175 234.994 88.7668 234.994C88.2295 234.994 87.7918 235.159 87.4538 235.488C87.1158 235.809 86.9468 236.22 86.9468 236.723V241H85.9718V236.853C85.9718 236.307 85.8245 235.861 85.5298 235.514C85.2438 235.167 84.8755 234.994 84.4248 234.994C83.8875 234.994 83.4498 235.159 83.1118 235.488C82.7738 235.809 82.6048 236.22 82.6048 236.723V241H81.6298V234.279H82.6048V235.267C82.7782 234.912 83.0338 234.634 83.3718 234.435C83.7185 234.227 84.1128 234.123 84.5548 234.123C85.0835 234.123 85.5428 234.266 85.9328 234.552C86.3315 234.838 86.6175 235.228 86.7908 235.722C86.8948 235.245 87.1375 234.86 87.5188 234.565C87.9088 234.27 88.3682 234.123 88.8968 234.123ZM96.7174 234.123C97.2981 234.123 97.8224 234.275 98.2904 234.578C98.7671 234.873 99.1397 235.289 99.4084 235.826C99.6771 236.355 99.8114 236.957 99.8114 237.633C99.8114 238.309 99.6771 238.916 99.4084 239.453C99.1397 239.99 98.7671 240.411 98.2904 240.714C97.8224 241.009 97.2981 241.156 96.7174 241.156C96.1887 241.156 95.7121 241.035 95.2874 240.792C94.8714 240.541 94.5334 240.19 94.2734 239.739V241H93.2984V231.913H94.2734V235.54C94.5334 235.089 94.8714 234.743 95.2874 234.5C95.7121 234.249 96.1887 234.123 96.7174 234.123ZM96.5354 240.285C96.9687 240.285 97.3544 240.172 97.6924 239.947C98.0391 239.722 98.3077 239.41 98.4984 239.011C98.6891 238.604 98.7844 238.144 98.7844 237.633C98.7844 237.122 98.6891 236.667 98.4984 236.268C98.3077 235.869 98.0391 235.557 97.6924 235.332C97.3544 235.107 96.9687 234.994 96.5354 234.994C96.1021 234.994 95.7121 235.107 95.3654 235.332C95.0187 235.557 94.7501 235.869 94.5594 236.268C94.3687 236.667 94.2734 237.122 94.2734 237.633C94.2734 238.144 94.3687 238.604 94.5594 239.011C94.7501 239.41 95.0187 239.722 95.3654 239.947C95.7121 240.172 96.1021 240.285 96.5354 240.285ZM104.284 240.285C104.683 240.285 105.082 240.207 105.48 240.051C105.888 239.895 106.195 239.704 106.403 239.479L107.001 240.116C106.715 240.428 106.312 240.679 105.792 240.87C105.281 241.061 104.783 241.156 104.297 241.156C103.699 241.156 103.14 241.004 102.62 240.701C102.1 240.398 101.68 239.977 101.359 239.44C101.047 238.894 100.891 238.287 100.891 237.62C100.891 236.97 101.039 236.376 101.333 235.839C101.637 235.302 102.04 234.881 102.542 234.578C103.054 234.275 103.608 234.123 104.206 234.123C105.212 234.123 105.992 234.474 106.546 235.176C107.11 235.878 107.391 236.823 107.391 238.01H101.892C101.962 238.677 102.213 239.223 102.646 239.648C103.088 240.073 103.634 240.285 104.284 240.285ZM104.245 234.994C103.639 234.994 103.119 235.193 102.685 235.592C102.252 235.982 101.992 236.498 101.905 237.139H106.429C106.36 236.498 106.139 235.982 105.766 235.592C105.394 235.193 104.887 234.994 104.245 234.994ZM109.904 235.592C110.104 235.141 110.433 234.786 110.892 234.526C111.352 234.257 111.889 234.123 112.504 234.123V234.994C112.002 234.994 111.551 235.089 111.152 235.28C110.762 235.471 110.455 235.739 110.229 236.086C110.013 236.424 109.904 236.81 109.904 237.243V241H108.929V234.279H109.904V235.592Z" fill="#CBD4D8"/>
<path d="M47.9996 271.402H49.0136L54.5516 278.669V271.402H55.5656V280.333H54.5516L49.0136 273.066V280.333H47.9996V271.402ZM60.8971 280.489C60.2731 280.489 59.6924 280.333 59.1551 280.021C58.6264 279.701 58.2061 279.272 57.8941 278.734C57.5821 278.188 57.4261 277.599 57.4261 276.966C57.4261 276.334 57.5821 275.749 57.8941 275.211C58.2061 274.674 58.6264 274.249 59.1551 273.937C59.6924 273.617 60.2731 273.456 60.8971 273.456C61.5211 273.456 62.0974 273.617 62.6261 273.937C63.1547 274.249 63.5751 274.674 63.8871 275.211C64.1991 275.749 64.3551 276.334 64.3551 276.966C64.3551 277.599 64.1991 278.188 63.8871 278.734C63.5751 279.272 63.1547 279.701 62.6261 280.021C62.0974 280.333 61.5211 280.489 60.8971 280.489ZM60.8971 279.618C61.3391 279.618 61.7464 279.501 62.1191 279.267C62.4917 279.025 62.7864 278.7 63.0031 278.292C63.2284 277.885 63.3411 277.443 63.3411 276.966C63.3411 276.49 63.2284 276.052 63.0031 275.653C62.7864 275.246 62.4917 274.925 62.1191 274.691C61.7464 274.449 61.3391 274.327 60.8971 274.327C60.4551 274.327 60.0434 274.449 59.6621 274.691C59.2894 274.925 58.9904 275.246 58.7651 275.653C58.5484 276.052 58.4401 276.49 58.4401 276.966C58.4401 277.443 58.5484 277.885 58.7651 278.292C58.9904 278.7 59.2894 279.025 59.6621 279.267C60.0434 279.501 60.4551 279.618 60.8971 279.618ZM64.9335 273.612H66.0255L68.2615 279.189L70.4585 273.612H71.5505L68.7295 280.333H67.7935L64.9335 273.612ZM75.5494 279.618C75.948 279.618 76.3467 279.54 76.7454 279.384C77.1527 279.228 77.4604 279.038 77.6684 278.812L78.2664 279.449C77.9804 279.761 77.5774 280.013 77.0574 280.203C76.546 280.394 76.0477 280.489 75.5624 280.489C74.9644 280.489 74.4054 280.338 73.8854 280.034C73.3654 279.731 72.945 279.311 72.6244 278.773C72.3124 278.227 72.1564 277.621 72.1564 276.953C72.1564 276.303 72.3037 275.71 72.5984 275.172C72.9017 274.635 73.3047 274.215 73.8074 273.911C74.3187 273.608 74.8734 273.456 75.4714 273.456C76.4767 273.456 77.2567 273.807 77.8114 274.509C78.3747 275.211 78.6564 276.156 78.6564 277.343H73.1574C73.2267 278.011 73.478 278.557 73.9114 278.981C74.3534 279.406 74.8994 279.618 75.5494 279.618ZM75.5104 274.327C74.9037 274.327 74.3837 274.527 73.9504 274.925C73.517 275.315 73.257 275.831 73.1704 276.472H77.6944C77.625 275.831 77.404 275.315 77.0314 274.925C76.6587 274.527 76.1517 274.327 75.5104 274.327ZM87.4615 273.456C87.9208 273.456 88.3325 273.569 88.6965 273.794C89.0605 274.011 89.3421 274.319 89.5415 274.717C89.7495 275.107 89.8535 275.554 89.8535 276.056V280.333H88.8785V276.186C88.8785 275.64 88.7311 275.194 88.4365 274.847C88.1505 274.501 87.7821 274.327 87.3315 274.327C86.7941 274.327 86.3565 274.492 86.0185 274.821C85.6805 275.142 85.5115 275.554 85.5115 276.056V280.333H84.5365V276.186C84.5365 275.64 84.3891 275.194 84.0945 274.847C83.8085 274.501 83.4401 274.327 82.9895 274.327C82.4521 274.327 82.0145 274.492 81.6765 274.821C81.3385 275.142 81.1695 275.554 81.1695 276.056V280.333H80.1945V273.612H81.1695V274.6C81.3428 274.245 81.5985 273.968 81.9365 273.768C82.2831 273.56 82.6775 273.456 83.1195 273.456C83.6481 273.456 84.1075 273.599 84.4975 273.885C84.8961 274.171 85.1821 274.561 85.3555 275.055C85.4595 274.579 85.7021 274.193 86.0835 273.898C86.4735 273.604 86.9328 273.456 87.4615 273.456ZM95.282 273.456C95.8627 273.456 96.387 273.608 96.855 273.911C97.3317 274.206 97.7044 274.622 97.973 275.159C98.2417 275.688 98.376 276.29 98.376 276.966C98.376 277.642 98.2417 278.249 97.973 278.786C97.7044 279.324 97.3317 279.744 96.855 280.047C96.387 280.342 95.8627 280.489 95.282 280.489C94.7534 280.489 94.2767 280.368 93.852 280.125C93.436 279.874 93.098 279.523 92.838 279.072V280.333H91.863V271.246H92.838V274.873C93.098 274.423 93.436 274.076 93.852 273.833C94.2767 273.582 94.7534 273.456 95.282 273.456ZM95.1 279.618C95.5334 279.618 95.919 279.506 96.257 279.28C96.6037 279.055 96.8724 278.743 97.063 278.344C97.2537 277.937 97.349 277.478 97.349 276.966C97.349 276.455 97.2537 276 97.063 275.601C96.8724 275.203 96.6037 274.891 96.257 274.665C95.919 274.44 95.5334 274.327 95.1 274.327C94.6667 274.327 94.2767 274.44 93.93 274.665C93.5834 274.891 93.3147 275.203 93.124 275.601C92.9334 276 92.838 276.455 92.838 276.966C92.838 277.478 92.9334 277.937 93.124 278.344C93.3147 278.743 93.5834 279.055 93.93 279.28C94.2767 279.506 94.6667 279.618 95.1 279.618ZM102.849 279.618C103.248 279.618 103.646 279.54 104.045 279.384C104.452 279.228 104.76 279.038 104.968 278.812L105.566 279.449C105.28 279.761 104.877 280.013 104.357 280.203C103.846 280.394 103.347 280.489 102.862 280.489C102.264 280.489 101.705 280.338 101.185 280.034C100.665 279.731 100.245 279.311 99.924 278.773C99.612 278.227 99.456 277.621 99.456 276.953C99.456 276.303 99.6033 275.71 99.898 275.172C100.201 274.635 100.604 274.215 101.107 273.911C101.618 273.608 102.173 273.456 102.771 273.456C103.776 273.456 104.556 273.807 105.111 274.509C105.674 275.211 105.956 276.156 105.956 277.343H100.457C100.526 278.011 100.778 278.557 101.211 278.981C101.653 279.406 102.199 279.618 102.849 279.618ZM102.81 274.327C102.203 274.327 101.683 274.527 101.25 274.925C100.817 275.315 100.557 275.831 100.47 276.472H104.994C104.925 275.831 104.704 275.315 104.331 274.925C103.958 274.527 103.451 274.327 102.81 274.327ZM108.469 274.925C108.668 274.475 108.998 274.119 109.457 273.859C109.916 273.591 110.454 273.456 111.069 273.456V274.327C110.566 274.327 110.116 274.423 109.717 274.613C109.327 274.804 109.019 275.073 108.794 275.419C108.577 275.757 108.469 276.143 108.469 276.576V280.333H107.494V273.612H108.469V274.925Z" fill="#CBD4D8"/>
<rect x="142.5" y="60.5" width="125" height="38.3333" rx="3.5" stroke="#CBD4D8"/>
<path d="M179.048 76.2177V78.4797H183.65V79.9617H179.048V83.6667H177.423V74.7357H184.144V76.2177H179.048ZM188.534 82.5487C188.872 82.5487 189.214 82.4837 189.561 82.3537C189.908 82.2237 190.189 82.0547 190.406 81.8467L191.316 82.7827C191.03 83.086 190.627 83.3373 190.107 83.5367C189.587 83.7273 189.08 83.8227 188.586 83.8227C187.945 83.8227 187.351 83.671 186.805 83.3677C186.268 83.0643 185.839 82.644 185.518 82.1067C185.206 81.5693 185.05 80.9627 185.05 80.2867C185.05 79.6193 185.202 79.0213 185.505 78.4927C185.808 77.964 186.224 77.548 186.753 77.2447C187.282 76.9413 187.862 76.7897 188.495 76.7897C189.526 76.7897 190.332 77.145 190.913 77.8557C191.502 78.5663 191.797 79.537 191.797 80.7677H186.584C186.671 81.305 186.887 81.7383 187.234 82.0677C187.589 82.3883 188.023 82.5487 188.534 82.5487ZM188.508 78.0637C188.031 78.0637 187.62 78.2153 187.273 78.5187C186.926 78.8133 186.701 79.212 186.597 79.7147H190.263C190.185 79.2207 189.994 78.822 189.691 78.5187C189.396 78.2153 189.002 78.0637 188.508 78.0637ZM197.077 76.7897C197.666 76.7897 198.195 76.9413 198.663 77.2447C199.131 77.5393 199.499 77.9553 199.768 78.4927C200.036 79.0213 200.171 79.6237 200.171 80.2997C200.171 80.9757 200.036 81.5823 199.768 82.1197C199.499 82.657 199.131 83.0773 198.663 83.3807C198.195 83.6753 197.666 83.8227 197.077 83.8227C196.565 83.8227 196.106 83.71 195.699 83.4847C195.291 83.2593 194.958 82.9387 194.698 82.5227V83.6667H193.112V74.5797H194.698V78.0767C194.958 77.6693 195.291 77.353 195.699 77.1277C196.115 76.9023 196.574 76.7897 197.077 76.7897ZM196.648 82.4707C197.22 82.4707 197.688 82.267 198.052 81.8597C198.416 81.4523 198.598 80.9323 198.598 80.2997C198.598 79.667 198.416 79.1513 198.052 78.7527C197.688 78.3453 197.22 78.1417 196.648 78.1417C196.093 78.1417 195.638 78.3453 195.283 78.7527C194.927 79.1513 194.75 79.667 194.75 80.2997C194.75 80.7157 194.828 81.0883 194.984 81.4177C195.148 81.747 195.374 82.007 195.66 82.1977C195.954 82.3797 196.284 82.4707 196.648 82.4707ZM203.167 78.2197C203.384 77.7777 203.704 77.431 204.129 77.1797C204.554 76.9197 205.035 76.7897 205.572 76.7897V78.1417C204.853 78.1417 204.272 78.3367 203.83 78.7267C203.388 79.1167 203.167 79.6323 203.167 80.2737V83.6667H201.581V76.9457H203.167V78.2197ZM212.947 76.9457V83.6667H211.361V82.7567C211.153 83.0773 210.862 83.3373 210.49 83.5367C210.117 83.7273 209.71 83.8227 209.268 83.8227C208.782 83.8227 208.349 83.7143 207.968 83.4977C207.595 83.2723 207.3 82.9647 207.084 82.5747C206.876 82.176 206.772 81.7253 206.772 81.2227V76.9457H208.319V80.9107C208.319 81.37 208.449 81.747 208.709 82.0417C208.969 82.3277 209.307 82.4707 209.723 82.4707C210.182 82.4707 210.568 82.332 210.88 82.0547C211.2 81.7687 211.361 81.422 211.361 81.0147V76.9457H212.947ZM217.517 76.7897C218.401 76.7897 219.098 77.0497 219.61 77.5697C220.13 78.081 220.39 78.7657 220.39 79.6237V83.6667H218.843V82.8737C218.6 83.1683 218.288 83.4023 217.907 83.5757C217.525 83.7403 217.135 83.8227 216.737 83.8227C216.26 83.8227 215.831 83.736 215.45 83.5627C215.077 83.3807 214.782 83.1293 214.566 82.8087C214.349 82.4793 214.241 82.1023 214.241 81.6777C214.241 81.2443 214.362 80.8587 214.605 80.5207C214.847 80.1827 215.177 79.9183 215.593 79.7277C216.009 79.537 216.468 79.4417 216.971 79.4417C217.569 79.4417 218.193 79.5587 218.843 79.7927V79.6237C218.843 79.1817 218.708 78.8177 218.44 78.5317C218.18 78.237 217.768 78.0897 217.205 78.0897C216.667 78.0897 216.061 78.2587 215.385 78.5967L214.839 77.4917C215.792 77.0237 216.685 76.7897 217.517 76.7897ZM217.088 82.6657C217.495 82.6657 217.868 82.566 218.206 82.3667C218.552 82.1673 218.765 81.8987 218.843 81.5607V80.7937C218.323 80.629 217.777 80.5467 217.205 80.5467C216.797 80.5467 216.455 80.6507 216.178 80.8587C215.9 81.058 215.762 81.3137 215.762 81.6257C215.762 81.9377 215.887 82.189 216.139 82.3797C216.39 82.5703 216.706 82.6657 217.088 82.6657ZM223.713 78.2197C223.93 77.7777 224.25 77.431 224.675 77.1797C225.1 76.9197 225.581 76.7897 226.118 76.7897V78.1417C225.399 78.1417 224.818 78.3367 224.376 78.7267C223.934 79.1167 223.713 79.6323 223.713 80.2737V83.6667H222.127V76.9457H223.713V78.2197ZM228.591 86.0067C228.34 86.0067 228.08 85.9763 227.811 85.9157C227.551 85.855 227.322 85.7683 227.122 85.6557L227.46 84.5117C227.764 84.6763 228.05 84.7587 228.318 84.7587C228.717 84.7587 229.003 84.6113 229.176 84.3167L229.462 83.7187L226.615 76.9457H228.292L230.255 81.9637L232.101 76.9457H233.739L230.892 84.1347C230.398 85.3653 229.631 85.9893 228.591 86.0067Z" fill="#CBD4D8"/>
<path d="M197.798 120.972H192.819L191.922 123H190.817L194.756 114.069H195.861L199.8 123H198.695L197.798 120.972ZM197.382 120.01L195.315 115.317L193.235 120.01H197.382ZM204.577 116.123C205.158 116.123 205.682 116.275 206.15 116.578C206.627 116.873 207 117.289 207.268 117.826C207.537 118.355 207.671 118.957 207.671 119.633C207.671 120.309 207.537 120.916 207.268 121.453C207 121.99 206.627 122.411 206.15 122.714C205.682 123.009 205.158 123.156 204.577 123.156C204.049 123.156 203.572 123.035 203.147 122.792C202.731 122.541 202.393 122.19 202.133 121.739V125.236H201.158V116.279H202.133V117.54C202.393 117.089 202.731 116.743 203.147 116.5C203.572 116.249 204.049 116.123 204.577 116.123ZM204.395 122.285C204.829 122.285 205.214 122.172 205.552 121.947C205.899 121.722 206.168 121.41 206.358 121.011C206.549 120.604 206.644 120.144 206.644 119.633C206.644 119.122 206.549 118.667 206.358 118.268C206.168 117.869 205.899 117.557 205.552 117.332C205.214 117.107 204.829 116.994 204.395 116.994C203.962 116.994 203.572 117.107 203.225 117.332C202.879 117.557 202.61 117.869 202.419 118.268C202.229 118.667 202.133 119.122 202.133 119.633C202.133 120.144 202.229 120.604 202.419 121.011C202.61 121.41 202.879 121.722 203.225 121.947C203.572 122.172 203.962 122.285 204.395 122.285ZM210.285 117.592C210.485 117.141 210.814 116.786 211.273 116.526C211.733 116.257 212.27 116.123 212.885 116.123V116.994C212.383 116.994 211.932 117.089 211.533 117.28C211.143 117.471 210.836 117.739 210.61 118.086C210.394 118.424 210.285 118.81 210.285 119.243V123H209.31V116.279H210.285V117.592ZM214.365 116.279H215.34V123H214.365V116.279ZM214.859 115.057C214.677 115.057 214.521 114.992 214.391 114.862C214.269 114.732 214.209 114.58 214.209 114.407C214.209 114.234 214.269 114.086 214.391 113.965C214.521 113.835 214.677 113.77 214.859 113.77C215.032 113.77 215.179 113.835 215.301 113.965C215.431 114.086 215.496 114.234 215.496 114.407C215.496 114.58 215.431 114.732 215.301 114.862C215.179 114.992 215.032 115.057 214.859 115.057ZM217.502 113.913H218.477V123H217.502V113.913Z" fill="#CBD4D8"/>
<path d="M193.077 162.489C192.548 162.489 192.024 162.351 191.504 162.073C190.993 161.796 190.603 161.441 190.334 161.007L191.075 160.279C191.248 160.652 191.521 160.96 191.894 161.202C192.275 161.445 192.67 161.566 193.077 161.566C193.606 161.566 194.039 161.367 194.377 160.968C194.715 160.57 194.884 160.054 194.884 159.421V153.402H195.898V159.421C195.898 160.011 195.777 160.539 195.534 161.007C195.3 161.475 194.966 161.839 194.533 162.099C194.108 162.359 193.623 162.489 193.077 162.489ZM203.74 155.612V162.333H202.765V161.267C202.565 161.631 202.266 161.926 201.868 162.151C201.469 162.377 201.031 162.489 200.555 162.489C200.061 162.489 199.623 162.381 199.242 162.164C198.86 161.948 198.561 161.644 198.345 161.254C198.137 160.856 198.033 160.401 198.033 159.889V155.612H199.008V159.759C199.008 160.314 199.164 160.765 199.476 161.111C199.788 161.449 200.191 161.618 200.685 161.618C201.057 161.618 201.404 161.54 201.725 161.384C202.045 161.228 202.297 161.02 202.479 160.76C202.669 160.492 202.765 160.201 202.765 159.889V155.612H203.74ZM209.081 155.456C209.575 155.456 210.013 155.565 210.394 155.781C210.775 155.998 211.07 156.306 211.278 156.704C211.495 157.094 211.603 157.545 211.603 158.056V162.333H210.628V158.186C210.628 157.632 210.472 157.185 210.16 156.847C209.848 156.501 209.445 156.327 208.951 156.327C208.578 156.327 208.232 156.405 207.911 156.561C207.59 156.717 207.335 156.93 207.144 157.198C206.962 157.458 206.871 157.744 206.871 158.056V162.333H205.896V155.612H206.871V156.678C207.07 156.314 207.369 156.02 207.768 155.794C208.167 155.569 208.604 155.456 209.081 155.456ZM216.438 161.618C216.836 161.618 217.235 161.54 217.634 161.384C218.041 161.228 218.349 161.038 218.557 160.812L219.155 161.449C218.869 161.761 218.466 162.013 217.946 162.203C217.434 162.394 216.936 162.489 216.451 162.489C215.853 162.489 215.294 162.338 214.774 162.034C214.254 161.731 213.833 161.311 213.513 160.773C213.201 160.227 213.045 159.621 213.045 158.953C213.045 158.303 213.192 157.71 213.487 157.172C213.79 156.635 214.193 156.215 214.696 155.911C215.207 155.608 215.762 155.456 216.36 155.456C217.365 155.456 218.145 155.807 218.7 156.509C219.263 157.211 219.545 158.156 219.545 159.343H214.046C214.115 160.011 214.366 160.557 214.8 160.981C215.242 161.406 215.788 161.618 216.438 161.618ZM216.399 156.327C215.792 156.327 215.272 156.527 214.839 156.925C214.405 157.315 214.145 157.831 214.059 158.472H218.583C218.513 157.831 218.292 157.315 217.92 156.925C217.547 156.527 217.04 156.327 216.399 156.327Z" fill="#CBD4D8"/>
<path d="M190.542 199.639H185.563L184.666 201.667H183.561L187.5 192.736H188.605L192.544 201.667H191.439L190.542 199.639ZM190.126 198.677L188.059 193.984L185.979 198.677H190.126ZM199.453 194.946V201.667H198.478V200.601C198.279 200.965 197.98 201.259 197.581 201.485C197.183 201.71 196.745 201.823 196.268 201.823C195.774 201.823 195.337 201.714 194.955 201.498C194.574 201.281 194.275 200.978 194.058 200.588C193.85 200.189 193.746 199.734 193.746 199.223V194.946H194.721V199.093C194.721 199.647 194.877 200.098 195.189 200.445C195.501 200.783 195.904 200.952 196.398 200.952C196.771 200.952 197.118 200.874 197.438 200.718C197.759 200.562 198.01 200.354 198.192 200.094C198.383 199.825 198.478 199.535 198.478 199.223V194.946H199.453ZM207.538 194.946V200.952C207.538 201.524 207.395 202.031 207.109 202.473C206.832 202.923 206.442 203.274 205.939 203.526C205.445 203.777 204.877 203.903 204.236 203.903C203.707 203.903 203.2 203.82 202.715 203.656C202.23 203.491 201.831 203.274 201.519 203.006L201.948 202.239C202.208 202.49 202.529 202.685 202.91 202.824C203.291 202.962 203.69 203.032 204.106 203.032C204.877 203.032 205.48 202.85 205.913 202.486C206.346 202.122 206.563 201.61 206.563 200.952V199.86C206.303 200.276 205.961 200.601 205.536 200.835C205.12 201.06 204.648 201.173 204.119 201.173C203.521 201.173 202.988 201.038 202.52 200.77C202.052 200.492 201.684 200.111 201.415 199.626C201.155 199.14 201.025 198.59 201.025 197.975C201.025 197.359 201.155 196.809 201.415 196.324C201.684 195.838 202.052 195.461 202.52 195.193C202.988 194.924 203.521 194.79 204.119 194.79C204.648 194.79 205.12 194.907 205.536 195.141C205.961 195.366 206.303 195.687 206.563 196.103V194.946H207.538ZM204.301 200.302C204.734 200.302 205.124 200.202 205.471 200.003C205.818 199.803 206.086 199.53 206.277 199.184C206.468 198.828 206.563 198.425 206.563 197.975C206.563 197.533 206.468 197.138 206.277 196.792C206.086 196.436 205.818 196.159 205.471 195.96C205.124 195.76 204.734 195.661 204.301 195.661C203.868 195.661 203.478 195.76 203.131 195.96C202.793 196.159 202.529 196.436 202.338 196.792C202.147 197.138 202.052 197.533 202.052 197.975C202.052 198.425 202.147 198.828 202.338 199.184C202.529 199.53 202.793 199.803 203.131 200.003C203.478 200.202 203.868 200.302 204.301 200.302ZM215.249 194.946V201.667H214.274V200.601C214.075 200.965 213.776 201.259 213.377 201.485C212.979 201.71 212.541 201.823 212.064 201.823C211.57 201.823 211.133 201.714 210.751 201.498C210.37 201.281 210.071 200.978 209.854 200.588C209.646 200.189 209.542 199.734 209.542 199.223V194.946H210.517V199.093C210.517 199.647 210.673 200.098 210.985 200.445C211.297 200.783 211.7 200.952 212.194 200.952C212.567 200.952 212.914 200.874 213.234 200.718C213.555 200.562 213.806 200.354 213.988 200.094C214.179 199.825 214.274 199.535 214.274 199.223V194.946H215.249ZM219.486 201.823C219.009 201.823 218.524 201.736 218.03 201.563C217.545 201.389 217.103 201.142 216.704 200.822L217.211 200.107C217.982 200.67 218.741 200.952 219.486 200.952C219.928 200.952 220.283 200.856 220.552 200.666C220.829 200.475 220.968 200.219 220.968 199.899C220.968 199.673 220.894 199.487 220.747 199.34C220.6 199.184 220.413 199.062 220.188 198.976C219.971 198.889 219.668 198.789 219.278 198.677C218.455 198.443 217.874 198.187 217.536 197.91C217.198 197.624 217.029 197.242 217.029 196.766C217.029 196.168 217.25 195.691 217.692 195.336C218.134 194.972 218.697 194.79 219.382 194.79C219.789 194.79 220.201 194.859 220.617 194.998C221.033 195.128 221.423 195.31 221.787 195.544L221.319 196.298C220.652 195.873 220.006 195.661 219.382 195.661C218.983 195.661 218.654 195.747 218.394 195.921C218.134 196.094 218.004 196.337 218.004 196.649C218.004 196.839 218.06 196.995 218.173 197.117C218.286 197.238 218.455 197.346 218.68 197.442C218.905 197.537 219.261 197.663 219.746 197.819C220.223 197.966 220.608 198.109 220.903 198.248C221.198 198.386 221.445 198.581 221.644 198.833C221.843 199.075 221.943 199.396 221.943 199.795C221.943 200.401 221.709 200.891 221.241 201.264C220.782 201.636 220.197 201.823 219.486 201.823ZM226.595 201.394C226.231 201.68 225.815 201.823 225.347 201.823C224.87 201.823 224.476 201.662 224.164 201.342C223.861 201.021 223.709 200.609 223.709 200.107V195.817H222.656V194.946H223.709V193.1H224.684V194.946H226.335V195.817H224.684V200.107C224.684 200.349 224.753 200.553 224.892 200.718C225.039 200.874 225.213 200.952 225.412 200.952C225.559 200.952 225.694 200.926 225.815 200.874C225.936 200.822 226.036 200.757 226.114 200.679L226.595 201.394Z" fill="#CBD4D8"/>
<path d="M185.232 241.156C184.426 241.156 183.667 240.948 182.957 240.532C182.255 240.107 181.696 239.54 181.28 238.829C180.864 238.118 180.656 237.351 180.656 236.528C180.656 235.705 180.864 234.942 181.28 234.24C181.696 233.529 182.255 232.966 182.957 232.55C183.667 232.125 184.426 231.913 185.232 231.913C186.046 231.913 186.8 232.125 187.494 232.55C188.196 232.966 188.755 233.529 189.171 234.24C189.587 234.942 189.795 235.705 189.795 236.528C189.795 237.351 189.587 238.118 189.171 238.829C188.755 239.54 188.196 240.107 187.494 240.532C186.8 240.948 186.046 241.156 185.232 241.156ZM185.232 240.22C185.864 240.22 186.449 240.051 186.987 239.713C187.533 239.375 187.966 238.924 188.287 238.361C188.607 237.798 188.768 237.187 188.768 236.528C188.768 235.878 188.607 235.271 188.287 234.708C187.966 234.136 187.533 233.685 186.987 233.356C186.449 233.018 185.864 232.849 185.232 232.849C184.599 232.849 184.01 233.018 183.464 233.356C182.926 233.685 182.493 234.136 182.164 234.708C181.843 235.271 181.683 235.878 181.683 236.528C181.683 237.187 181.843 237.798 182.164 238.361C182.493 238.924 182.926 239.375 183.464 239.713C184.01 240.051 184.599 240.22 185.232 240.22ZM194.458 241.156C193.843 241.156 193.266 240.996 192.729 240.675C192.192 240.354 191.763 239.925 191.442 239.388C191.13 238.842 190.974 238.257 190.974 237.633C190.974 237.009 191.13 236.428 191.442 235.891C191.763 235.354 192.192 234.925 192.729 234.604C193.266 234.283 193.843 234.123 194.458 234.123C194.909 234.123 195.338 234.21 195.745 234.383C196.161 234.556 196.529 234.799 196.85 235.111L196.174 235.774C195.949 235.531 195.689 235.341 195.394 235.202C195.099 235.063 194.787 234.994 194.458 234.994C194.016 234.994 193.604 235.115 193.223 235.358C192.85 235.592 192.551 235.913 192.326 236.32C192.109 236.727 192.001 237.165 192.001 237.633C192.001 238.11 192.109 238.552 192.326 238.959C192.551 239.358 192.85 239.678 193.223 239.921C193.604 240.164 194.016 240.285 194.458 240.285C194.787 240.285 195.104 240.216 195.407 240.077C195.71 239.93 195.979 239.726 196.213 239.466L196.889 240.129C196.568 240.45 196.196 240.701 195.771 240.883C195.355 241.065 194.917 241.156 194.458 241.156ZM201.294 240.727C200.93 241.013 200.514 241.156 200.046 241.156C199.569 241.156 199.175 240.996 198.863 240.675C198.56 240.354 198.408 239.943 198.408 239.44V235.15H197.355V234.279H198.408V232.433H199.383V234.279H201.034V235.15H199.383V239.44C199.383 239.683 199.452 239.886 199.591 240.051C199.738 240.207 199.912 240.285 200.111 240.285C200.258 240.285 200.393 240.259 200.514 240.207C200.635 240.155 200.735 240.09 200.813 240.012L201.294 240.727ZM205.481 241.156C204.857 241.156 204.276 241 203.739 240.688C203.21 240.367 202.79 239.938 202.478 239.401C202.166 238.855 202.01 238.266 202.01 237.633C202.01 237 202.166 236.415 202.478 235.878C202.79 235.341 203.21 234.916 203.739 234.604C204.276 234.283 204.857 234.123 205.481 234.123C206.105 234.123 206.681 234.283 207.21 234.604C207.738 234.916 208.159 235.341 208.471 235.878C208.783 236.415 208.939 237 208.939 237.633C208.939 238.266 208.783 238.855 208.471 239.401C208.159 239.938 207.738 240.367 207.21 240.688C206.681 241 206.105 241.156 205.481 241.156ZM205.481 240.285C205.923 240.285 206.33 240.168 206.703 239.934C207.075 239.691 207.37 239.366 207.587 238.959C207.812 238.552 207.925 238.11 207.925 237.633C207.925 237.156 207.812 236.719 207.587 236.32C207.37 235.913 207.075 235.592 206.703 235.358C206.33 235.115 205.923 234.994 205.481 234.994C205.039 234.994 204.627 235.115 204.246 235.358C203.873 235.592 203.574 235.913 203.349 236.32C203.132 236.719 203.024 237.156 203.024 237.633C203.024 238.11 203.132 238.552 203.349 238.959C203.574 239.366 203.873 239.691 204.246 239.934C204.627 240.168 205.039 240.285 205.481 240.285ZM213.937 234.123C214.518 234.123 215.042 234.275 215.51 234.578C215.987 234.873 216.359 235.289 216.628 235.826C216.897 236.355 217.031 236.957 217.031 237.633C217.031 238.309 216.897 238.916 216.628 239.453C216.359 239.99 215.987 240.411 215.51 240.714C215.042 241.009 214.518 241.156 213.937 241.156C213.408 241.156 212.932 241.035 212.507 240.792C212.091 240.541 211.753 240.19 211.493 239.739V241H210.518V231.913H211.493V235.54C211.753 235.089 212.091 234.743 212.507 234.5C212.932 234.249 213.408 234.123 213.937 234.123ZM213.755 240.285C214.188 240.285 214.574 240.172 214.912 239.947C215.259 239.722 215.527 239.41 215.718 239.011C215.909 238.604 216.004 238.144 216.004 237.633C216.004 237.122 215.909 236.667 215.718 236.268C215.527 235.869 215.259 235.557 214.912 235.332C214.574 235.107 214.188 234.994 213.755 234.994C213.322 234.994 212.932 235.107 212.585 235.332C212.238 235.557 211.97 235.869 211.779 236.268C211.588 236.667 211.493 237.122 211.493 237.633C211.493 238.144 211.588 238.604 211.779 239.011C211.97 239.41 212.238 239.722 212.585 239.947C212.932 240.172 213.322 240.285 213.755 240.285ZM221.504 240.285C221.903 240.285 222.301 240.207 222.7 240.051C223.107 239.895 223.415 239.704 223.623 239.479L224.221 240.116C223.935 240.428 223.532 240.679 223.012 240.87C222.501 241.061 222.002 241.156 221.517 241.156C220.919 241.156 220.36 241.004 219.84 240.701C219.32 240.398 218.9 239.977 218.579 239.44C218.267 238.894 218.111 238.287 218.111 237.62C218.111 236.97 218.258 236.376 218.553 235.839C218.856 235.302 219.259 234.881 219.762 234.578C220.273 234.275 220.828 234.123 221.426 234.123C222.431 234.123 223.211 234.474 223.766 235.176C224.329 235.878 224.611 236.823 224.611 238.01H219.112C219.181 238.677 219.433 239.223 219.866 239.648C220.308 240.073 220.854 240.285 221.504 240.285ZM221.465 234.994C220.858 234.994 220.338 235.193 219.905 235.592C219.472 235.982 219.212 236.498 219.125 237.139H223.649C223.58 236.498 223.359 235.982 222.986 235.592C222.613 235.193 222.106 234.994 221.465 234.994ZM227.124 235.592C227.323 235.141 227.653 234.786 228.112 234.526C228.571 234.257 229.109 234.123 229.724 234.123V234.994C229.221 234.994 228.771 235.089 228.372 235.28C227.982 235.471 227.674 235.739 227.449 236.086C227.232 236.424 227.124 236.81 227.124 237.243V241H226.149V234.279H227.124V235.592Z" fill="#CBD4D8"/>
<path d="M174.495 271.402H177.511C178.447 271.402 179.279 271.593 180.007 271.974C180.743 272.356 181.315 272.884 181.723 273.56C182.139 274.236 182.347 275.003 182.347 275.861C182.347 276.719 182.139 277.491 181.723 278.175C181.315 278.851 180.743 279.38 180.007 279.761C179.279 280.143 178.447 280.333 177.511 280.333H174.495V271.402ZM177.511 279.41C178.247 279.41 178.902 279.259 179.474 278.955C180.054 278.652 180.505 278.232 180.826 277.694C181.155 277.157 181.32 276.546 181.32 275.861C181.32 275.177 181.155 274.57 180.826 274.041C180.505 273.504 180.054 273.084 179.474 272.78C178.902 272.477 178.247 272.325 177.511 272.325H175.509V279.41H177.511ZM186.934 279.618C187.333 279.618 187.731 279.54 188.13 279.384C188.537 279.228 188.845 279.038 189.053 278.812L189.651 279.449C189.365 279.761 188.962 280.013 188.442 280.203C187.931 280.394 187.432 280.489 186.947 280.489C186.349 280.489 185.79 280.338 185.27 280.034C184.75 279.731 184.33 279.311 184.009 278.773C183.697 278.227 183.541 277.621 183.541 276.953C183.541 276.303 183.688 275.71 183.983 275.172C184.286 274.635 184.689 274.215 185.192 273.911C185.703 273.608 186.258 273.456 186.856 273.456C187.861 273.456 188.641 273.807 189.196 274.509C189.759 275.211 190.041 276.156 190.041 277.343H184.542C184.611 278.011 184.863 278.557 185.296 278.981C185.738 279.406 186.284 279.618 186.934 279.618ZM186.895 274.327C186.288 274.327 185.768 274.527 185.335 274.925C184.902 275.315 184.642 275.831 184.555 276.472H189.079C189.01 275.831 188.789 275.315 188.416 274.925C188.043 274.527 187.536 274.327 186.895 274.327ZM194.465 280.489C193.85 280.489 193.273 280.329 192.736 280.008C192.199 279.688 191.77 279.259 191.449 278.721C191.137 278.175 190.981 277.59 190.981 276.966C190.981 276.342 191.137 275.762 191.449 275.224C191.77 274.687 192.199 274.258 192.736 273.937C193.273 273.617 193.85 273.456 194.465 273.456C194.916 273.456 195.345 273.543 195.752 273.716C196.168 273.89 196.536 274.132 196.857 274.444L196.181 275.107C195.956 274.865 195.696 274.674 195.401 274.535C195.106 274.397 194.794 274.327 194.465 274.327C194.023 274.327 193.611 274.449 193.23 274.691C192.857 274.925 192.558 275.246 192.333 275.653C192.116 276.061 192.008 276.498 192.008 276.966C192.008 277.443 192.116 277.885 192.333 278.292C192.558 278.691 192.857 279.012 193.23 279.254C193.611 279.497 194.023 279.618 194.465 279.618C194.794 279.618 195.111 279.549 195.414 279.41C195.717 279.263 195.986 279.059 196.22 278.799L196.896 279.462C196.575 279.783 196.203 280.034 195.778 280.216C195.362 280.398 194.924 280.489 194.465 280.489ZM201.054 279.618C201.453 279.618 201.852 279.54 202.25 279.384C202.658 279.228 202.965 279.038 203.173 278.812L203.771 279.449C203.485 279.761 203.082 280.013 202.562 280.203C202.051 280.394 201.553 280.489 201.067 280.489C200.469 280.489 199.91 280.338 199.39 280.034C198.87 279.731 198.45 279.311 198.129 278.773C197.817 278.227 197.661 277.621 197.661 276.953C197.661 276.303 197.809 275.71 198.103 275.172C198.407 274.635 198.81 274.215 199.312 273.911C199.824 273.608 200.378 273.456 200.976 273.456C201.982 273.456 202.762 273.807 203.316 274.509C203.88 275.211 204.161 276.156 204.161 277.343H198.662C198.732 278.011 198.983 278.557 199.416 278.981C199.858 279.406 200.404 279.618 201.054 279.618ZM201.015 274.327C200.409 274.327 199.889 274.527 199.455 274.925C199.022 275.315 198.762 275.831 198.675 276.472H203.199C203.13 275.831 202.909 275.315 202.536 274.925C202.164 274.527 201.657 274.327 201.015 274.327ZM212.966 273.456C213.426 273.456 213.837 273.569 214.201 273.794C214.565 274.011 214.847 274.319 215.046 274.717C215.254 275.107 215.358 275.554 215.358 276.056V280.333H214.383V276.186C214.383 275.64 214.236 275.194 213.941 274.847C213.655 274.501 213.287 274.327 212.836 274.327C212.299 274.327 211.861 274.492 211.523 274.821C211.185 275.142 211.016 275.554 211.016 276.056V280.333H210.041V276.186C210.041 275.64 209.894 275.194 209.599 274.847C209.313 274.501 208.945 274.327 208.494 274.327C207.957 274.327 207.519 274.492 207.181 274.821C206.843 275.142 206.674 275.554 206.674 276.056V280.333H205.699V273.612H206.674V274.6C206.848 274.245 207.103 273.968 207.441 273.768C207.788 273.56 208.182 273.456 208.624 273.456C209.153 273.456 209.612 273.599 210.002 273.885C210.401 274.171 210.687 274.561 210.86 275.055C210.964 274.579 211.207 274.193 211.588 273.898C211.978 273.604 212.438 273.456 212.966 273.456ZM220.787 273.456C221.368 273.456 221.892 273.608 222.36 273.911C222.837 274.206 223.209 274.622 223.478 275.159C223.747 275.688 223.881 276.29 223.881 276.966C223.881 277.642 223.747 278.249 223.478 278.786C223.209 279.324 222.837 279.744 222.36 280.047C221.892 280.342 221.368 280.489 220.787 280.489C220.258 280.489 219.782 280.368 219.357 280.125C218.941 279.874 218.603 279.523 218.343 279.072V280.333H217.368V271.246H218.343V274.873C218.603 274.423 218.941 274.076 219.357 273.833C219.782 273.582 220.258 273.456 220.787 273.456ZM220.605 279.618C221.038 279.618 221.424 279.506 221.762 279.28C222.109 279.055 222.377 278.743 222.568 278.344C222.759 277.937 222.854 277.478 222.854 276.966C222.854 276.455 222.759 276 222.568 275.601C222.377 275.203 222.109 274.891 221.762 274.665C221.424 274.44 221.038 274.327 220.605 274.327C220.172 274.327 219.782 274.44 219.435 274.665C219.088 274.891 218.82 275.203 218.629 275.601C218.438 276 218.343 276.455 218.343 276.966C218.343 277.478 218.438 277.937 218.629 278.344C218.82 278.743 219.088 279.055 219.435 279.28C219.782 279.506 220.172 279.618 220.605 279.618ZM228.354 279.618C228.753 279.618 229.151 279.54 229.55 279.384C229.957 279.228 230.265 279.038 230.473 278.812L231.071 279.449C230.785 279.761 230.382 280.013 229.862 280.203C229.351 280.394 228.852 280.489 228.367 280.489C227.769 280.489 227.21 280.338 226.69 280.034C226.17 279.731 225.75 279.311 225.429 278.773C225.117 278.227 224.961 277.621 224.961 276.953C224.961 276.303 225.108 275.71 225.403 275.172C225.706 274.635 226.109 274.215 226.612 273.911C227.123 273.608 227.678 273.456 228.276 273.456C229.281 273.456 230.061 273.807 230.616 274.509C231.179 275.211 231.461 276.156 231.461 277.343H225.962C226.031 278.011 226.283 278.557 226.716 278.981C227.158 279.406 227.704 279.618 228.354 279.618ZM228.315 274.327C227.708 274.327 227.188 274.527 226.755 274.925C226.322 275.315 226.062 275.831 225.975 276.472H230.499C230.43 275.831 230.209 275.315 229.836 274.925C229.463 274.527 228.956 274.327 228.315 274.327ZM233.974 274.925C234.173 274.475 234.503 274.119 234.962 273.859C235.421 273.591 235.959 273.456 236.574 273.456V274.327C236.071 274.327 235.621 274.423 235.222 274.613C234.832 274.804 234.524 275.073 234.299 275.419C234.082 275.757 233.974 276.143 233.974 276.576V280.333H232.999V273.612H233.974V274.925Z" fill="#CBD4D8"/>
</svg>
