<svg width="452" height="288" viewBox="0 0 452 288" fill="none" xmlns="http://www.w3.org/2000/svg">
<g clip-path="url(#clip0_12824_41130)">
<rect width="452" height="288" fill="#3A4D55"/>
<g clip-path="url(#clip1_12824_41130)">
<path opacity="0.5" d="M452 0H0V288H452V0Z" fill="black"/>
<path d="M452 0H0V24.1367H452V0Z" fill="black"/>
<g filter="url(#filter0_d_12824_41130)">
<path d="M226 4.05634C226 1.81602 226 0 226 0H449.077C450.139 0 451 1.81602 451 4.05634V283.944C451 286.184 451 288 451 288H226C226 288 226 286.184 226 283.944V4.05634Z" fill="#1B2B32"/>
<path d="M226.5 4.05634L226.5 1.18804L226.5 0.5H449.077C449.303 0.5 449.657 0.710889 449.985 1.40224C450.295 2.05561 450.5 2.9934 450.5 4.05634V283.944V283.957V283.97V283.983V283.996V284.009V284.022V284.035V284.048V284.061V284.074V284.087V284.1V284.113V284.126V284.139V284.152V284.165V284.178V284.191V284.204V284.217V284.23V284.243V284.256V284.269V284.281V284.294V284.307V284.32V284.333V284.346V284.358V284.371V284.384V284.397V284.409V284.422V284.435V284.448V284.46V284.473V284.486V284.498V284.511V284.524V284.536V284.549V284.561V284.574V284.587V284.599V284.612V284.624V284.637V284.649V284.662V284.674V284.687V284.699V284.712V284.724V284.736V284.749V284.761V284.774V284.786V284.798V284.811V284.823V284.835V284.848V284.86V284.872V284.884V284.897V284.909V284.921V284.933V284.945V284.957V284.97V284.982V284.994V285.006V285.018V285.03V285.042V285.054V285.066V285.078V285.09V285.102V285.114V285.126V285.138V285.15V285.162V285.174V285.186V285.197V285.209V285.221V285.233V285.245V285.256V285.268V285.28V285.292V285.303V285.315V285.327V285.338V285.35V285.362V285.373V285.385V285.396V285.408V285.42V285.431V285.443V285.454V285.466V285.477V285.488V285.5V285.511V285.523V285.534V285.545V285.557V285.568V285.579V285.591V285.602V285.613V285.624V285.635V285.647V285.658V285.669V285.68V285.691V285.702V285.713V285.724V285.735V285.746V285.757V285.768V285.779V285.79V285.801V285.812V285.823V285.834V285.845V285.856V285.866V285.877V285.888V285.899V285.909V285.92V285.931V285.942V285.952V285.963V285.973V285.984V285.995V286.005V286.016V286.026V286.037V286.047V286.058V286.068V286.078V286.089V286.099V286.109V286.12V286.13V286.14V286.151V286.161V286.171V286.181V286.191V286.202V286.212V286.222V286.232V286.242V286.252V286.262V286.272V286.282V286.292V286.302V286.312V286.322V286.331V286.341V286.351V286.361V286.371V286.38V286.39V286.4V286.41V286.419V286.429V286.438V286.448V286.458V286.467V286.477V286.486V286.496V286.505V286.515V286.524V286.533V286.543V286.552V286.561V286.571V286.58V286.589V286.598V286.607V286.617V286.626V286.635V286.644V286.653V286.662V286.671V286.68V286.689V286.698V286.707V286.716V286.725V286.734V286.742V286.751V286.76V286.769V286.777V286.786V286.795V286.803V286.812V286.821V286.829V286.838V286.846V286.855V286.863V286.872V286.88V286.888V286.897V286.905V286.913V286.922V286.93V286.938V286.946V286.954V286.963V286.971V286.979V286.987V286.995V287.003V287.011V287.019V287.027V287.035V287.043V287.05V287.058V287.066V287.074V287.082V287.089V287.097V287.105V287.112V287.12V287.127V287.135V287.142V287.15V287.157V287.165V287.172V287.18V287.187V287.194V287.201V287.209V287.216V287.223V287.23V287.237V287.245V287.252V287.259V287.266V287.273V287.28V287.287V287.294V287.3V287.307V287.314V287.321V287.328V287.334V287.341V287.348V287.354V287.361V287.368V287.374V287.381V287.387V287.394V287.4V287.406V287.413V287.419V287.425V287.432V287.438V287.444V287.45V287.456V287.463V287.469V287.475V287.481V287.487V287.493V287.499V287.5H226.5L226.5 286.812L226.5 283.944V4.05634Z" stroke="black"/>
</g>
<g opacity="0.4">
<mask id="path-5-inside-1_12824_41130" fill="white">
<path d="M241 22.5C241 21.6716 241.465 21 242.038 21H330.654C331.227 21 331.692 21.6716 331.692 22.5C331.692 23.3284 331.227 24 330.654 24H242.038C241.465 24 241 23.3284 241 22.5Z"/>
</mask>
<path d="M244 22.5C244 22.6188 243.972 22.8568 243.771 23.147C243.578 23.4254 243.014 24 242.038 24V18C240.489 18 239.406 18.9104 238.838 19.7317C238.261 20.5648 238 21.5528 238 22.5H244ZM242.038 24H330.654V18H242.038V24ZM330.654 24C329.677 24 329.114 23.4251 328.922 23.1472C328.721 22.8572 328.692 22.6192 328.692 22.5H334.692C334.692 21.5524 334.431 20.5644 333.854 19.7315C333.286 18.9107 332.204 18 330.654 18V24ZM328.692 22.5C328.692 22.3808 328.721 22.1428 328.922 21.8528C329.114 21.5749 329.677 21 330.654 21V27C332.204 27 333.286 26.0893 333.854 25.2685C334.431 24.4356 334.692 23.4476 334.692 22.5H328.692ZM330.654 21H242.038V27H330.654V21ZM242.038 21C243.014 21 243.578 21.5746 243.771 21.853C243.972 22.1432 244 22.3812 244 22.5H238C238 23.4472 238.261 24.4352 238.838 25.2683C239.406 26.0896 240.489 27 242.038 27V21Z" fill="#ACB8BE" mask="url(#path-5-inside-1_12824_41130)"/>
<mask id="path-7-inside-2_12824_41130" fill="white">
<path d="M241 55C241 54.448 241.31 54 241.692 54H425.846C426.228 54 426.538 54.448 426.538 55C426.538 55.552 426.228 56 425.846 56H241.692C241.31 56 241 55.552 241 55Z"/>
</mask>
<path d="M244 55C244 55.2572 243.933 55.62 243.67 56.0004C243.415 56.3688 242.765 57 241.692 57V51C240.238 51 239.242 51.8552 238.736 52.5856C238.222 53.328 238 54.1908 238 55H244ZM241.692 57H425.846V51H241.692V57ZM425.846 57C424.774 57 424.124 56.3685 423.869 56.0006C423.606 55.6204 423.538 55.2577 423.538 55H429.538C429.538 54.1903 429.316 53.3276 428.802 52.5854C428.297 51.8555 427.301 51 425.846 51V57ZM423.538 55C423.538 54.7423 423.606 54.3796 423.869 53.9994C424.124 53.6315 424.774 53 425.846 53V59C427.301 59 428.297 58.1445 428.802 57.4146C429.316 56.6724 429.538 55.8097 429.538 55H423.538ZM425.846 53H241.692V59H425.846V53ZM241.692 53C242.765 53 243.415 53.6312 243.67 53.9996C243.933 54.38 244 54.7428 244 55H238C238 55.8092 238.222 56.672 238.736 57.4144C239.242 58.1448 240.238 59 241.692 59V53Z" fill="#ACB8BE" mask="url(#path-7-inside-2_12824_41130)"/>
<mask id="path-9-inside-3_12824_41130" fill="white">
<path d="M241 69C241 68.448 241.31 68 241.692 68H438.308C438.69 68 439 68.448 439 69C439 69.552 438.69 70 438.308 70H241.692C241.31 70 241 69.552 241 69Z"/>
</mask>
<path d="M244 69C244 69.2572 243.933 69.62 243.67 70.0004C243.415 70.3688 242.765 71 241.692 71V65C240.238 65 239.242 65.8552 238.736 66.5856C238.222 67.328 238 68.1908 238 69H244ZM241.692 71H438.308V65H241.692V71ZM438.308 71C437.235 71 436.585 70.3685 436.331 70.0006C436.067 69.6204 436 69.2577 436 69H442C442 68.1903 441.778 67.3276 441.264 66.5854C440.758 65.8555 439.762 65 438.308 65V71ZM436 69C436 68.7423 436.067 68.3796 436.331 67.9994C436.585 67.6315 437.235 67 438.308 67V73C439.762 73 440.758 72.1445 441.264 71.4146C441.778 70.6724 442 69.8097 442 69H436ZM438.308 67H241.692V73H438.308V67ZM241.692 67C242.765 67 243.415 67.6312 243.67 67.9996C243.933 68.38 244 68.7428 244 69H238C238 69.8092 238.222 70.672 238.736 71.4144C239.242 72.1448 240.238 73 241.692 73V67Z" fill="#ACB8BE" mask="url(#path-9-inside-3_12824_41130)"/>
<mask id="path-11-inside-4_12824_41130" fill="white">
<path d="M241 83C241 82.448 241.31 82 241.692 82H432.769C433.151 82 433.462 82.448 433.462 83C433.462 83.552 433.151 84 432.769 84H241.692C241.31 84 241 83.552 241 83Z"/>
</mask>
<path d="M244 83C244 83.2572 243.933 83.62 243.67 84.0004C243.415 84.3688 242.765 85 241.692 85V79C240.238 79 239.242 79.8552 238.736 80.5856C238.222 81.328 238 82.1908 238 83H244ZM241.692 85H432.769V79H241.692V85ZM432.769 85C431.697 85 431.047 84.3685 430.792 84.0006C430.529 83.6204 430.462 83.2577 430.462 83H436.462C436.462 82.1903 436.239 81.3276 435.725 80.5854C435.22 79.8555 434.224 79 432.769 79V85ZM430.462 83C430.462 82.7423 430.529 82.3796 430.792 81.9994C431.047 81.6315 431.697 81 432.769 81V87C434.224 87 435.22 86.1445 435.725 85.4146C436.239 84.6724 436.462 83.8097 436.462 83H430.462ZM432.769 81H241.692V87H432.769V81ZM241.692 81C242.765 81 243.415 81.6312 243.67 81.9996C243.933 82.38 244 82.7428 244 83H238C238 83.8092 238.222 84.672 238.736 85.4144C239.242 86.1448 240.238 87 241.692 87V81Z" fill="#ACB8BE" mask="url(#path-11-inside-4_12824_41130)"/>
<mask id="path-13-inside-5_12824_41130" fill="white">
<path d="M241 97C241 96.448 241.31 96 241.692 96H430C430.382 96 430.692 96.448 430.692 97C430.692 97.552 430.382 98 430 98H241.692C241.31 98 241 97.552 241 97Z"/>
</mask>
<path d="M244 97C244 97.2572 243.933 97.62 243.67 98.0004C243.415 98.3688 242.765 99 241.692 99V93C240.238 93 239.242 93.8552 238.736 94.5856C238.222 95.328 238 96.1908 238 97H244ZM241.692 99H430V93H241.692V99ZM430 99C428.927 99 428.278 98.3685 428.023 98.0006C427.76 97.6204 427.692 97.2577 427.692 97H433.692C433.692 96.1903 433.47 95.3276 432.956 94.5854C432.451 93.8555 431.455 93 430 93V99ZM427.692 97C427.692 96.7423 427.76 96.3796 428.023 95.9994C428.278 95.6315 428.927 95 430 95V101C431.455 101 432.451 100.145 432.956 99.4146C433.47 98.6724 433.692 97.8097 433.692 97H427.692ZM430 95H241.692V101H430V95ZM241.692 95C242.765 95 243.415 95.6312 243.67 95.9996C243.933 96.38 244 96.7428 244 97H238C238 97.8092 238.222 98.672 238.736 99.4144C239.242 100.145 240.238 101 241.692 101V95Z" fill="#ACB8BE" mask="url(#path-13-inside-5_12824_41130)"/>
<mask id="path-15-inside-6_12824_41130" fill="white">
<path d="M241 111C241 110.448 241.31 110 241.692 110H434.154C434.536 110 434.846 110.448 434.846 111C434.846 111.552 434.536 112 434.154 112H241.692C241.31 112 241 111.552 241 111Z"/>
</mask>
<path d="M244 111C244 111.257 243.933 111.62 243.67 112C243.415 112.369 242.765 113 241.692 113V107C240.238 107 239.242 107.855 238.736 108.586C238.222 109.328 238 110.191 238 111H244ZM241.692 113H434.154V107H241.692V113ZM434.154 113C433.081 113 432.431 112.369 432.177 112.001C431.914 111.62 431.846 111.258 431.846 111H437.846C437.846 110.19 437.624 109.328 437.11 108.585C436.605 107.855 435.609 107 434.154 107V113ZM431.846 111C431.846 110.742 431.914 110.38 432.177 109.999C432.431 109.631 433.081 109 434.154 109V115C435.609 115 436.605 114.145 437.11 113.415C437.624 112.672 437.846 111.81 437.846 111H431.846ZM434.154 109H241.692V115H434.154V109ZM241.692 109C242.765 109 243.415 109.631 243.67 110C243.933 110.38 244 110.743 244 111H238C238 111.809 238.222 112.672 238.736 113.414C239.242 114.145 240.238 115 241.692 115V109Z" fill="#ACB8BE" mask="url(#path-15-inside-6_12824_41130)"/>
<mask id="path-17-inside-7_12824_41130" fill="white">
<path d="M241 125C241 124.448 241.31 124 241.692 124H362.846C363.228 124 363.538 124.448 363.538 125C363.538 125.552 363.228 126 362.846 126H241.692C241.31 126 241 125.552 241 125Z"/>
</mask>
<path d="M244 125C244 125.257 243.933 125.62 243.67 126C243.415 126.369 242.765 127 241.692 127V121C240.238 121 239.242 121.855 238.736 122.586C238.222 123.328 238 124.191 238 125H244ZM241.692 127H362.846V121H241.692V127ZM362.846 127C361.774 127 361.124 126.369 360.869 126.001C360.606 125.62 360.538 125.258 360.538 125H366.538C366.538 124.19 366.316 123.328 365.802 122.585C365.297 121.855 364.301 121 362.846 121V127ZM360.538 125C360.538 124.742 360.606 124.38 360.869 123.999C361.124 123.631 361.774 123 362.846 123V129C364.301 129 365.297 128.145 365.802 127.415C366.316 126.672 366.538 125.81 366.538 125H360.538ZM362.846 123H241.692V129H362.846V123ZM241.692 123C242.765 123 243.415 123.631 243.67 124C243.933 124.38 244 124.743 244 125H238C238 125.809 238.222 126.672 238.736 127.414C239.242 128.145 240.238 129 241.692 129V123Z" fill="#ACB8BE" mask="url(#path-17-inside-7_12824_41130)"/>
</g>
<path opacity="0.6" d="M430.94 20.9982L435.8 16.1382C436.026 15.8737 436.011 15.4794 435.765 15.2332C435.518 14.9869 435.124 14.9717 434.86 15.1982L430 20.0582L425.14 15.1916C424.875 14.965 424.481 14.9803 424.235 15.2265C423.988 15.4728 423.973 15.867 424.2 16.1316L429.06 20.9982L424.193 25.8582C424.003 26.0211 423.92 26.277 423.978 26.5205C424.037 26.764 424.227 26.9542 424.471 27.0128C424.714 27.0713 424.97 26.9885 425.133 26.7982L430 21.9382L434.86 26.7982C435.124 27.0247 435.518 27.0095 435.765 26.7633C436.011 26.517 436.026 26.1227 435.8 25.8582L430.94 20.9982Z" fill="#CBD4D8"/>
<path d="M445.5 5.5H414.5V36.5H445.5V5.5Z" stroke="#FDA1D8"/>
<path d="M446 246H304V282H446V246Z" stroke="#FDA1D8"/>
<g opacity="0.8">
<path d="M379.188 273.642C379.188 275.016 380.301 276.129 381.675 276.129H436.701C438.075 276.129 439.188 275.016 439.188 273.642V254.616C439.188 253.242 438.075 252.129 436.701 252.129H381.675C380.301 252.129 379.188 253.242 379.188 254.616V273.642Z" fill="#2EC0FF"/>
<path opacity="0.6" d="M422.786 262.762H395.59C394.834 262.762 394.222 263.374 394.222 264.13C394.222 264.885 394.834 265.497 395.59 265.497H422.786C423.541 265.497 424.153 264.885 424.153 264.13C424.153 263.374 423.541 262.762 422.786 262.762Z" fill="black"/>
</g>
<g opacity="0.8">
<path d="M355.786 262.762H328.59C327.834 262.762 327.222 263.374 327.222 264.13C327.222 264.885 327.834 265.497 328.59 265.497H355.786C356.541 265.497 357.154 264.885 357.154 264.13C357.154 263.374 356.541 262.762 355.786 262.762Z" fill="#2EC0FF"/>
<path d="M314.675 274.886H369.701V277.372H314.675V274.886ZM370.945 273.642V254.616H373.431V273.642H370.945ZM369.701 253.372H314.675V250.886H369.701V253.372ZM313.431 254.616V273.642H310.945V254.616H313.431ZM314.675 253.372C313.988 253.372 313.431 253.929 313.431 254.616H310.945C310.945 252.556 312.615 250.886 314.675 250.886V253.372ZM370.945 254.616C370.945 253.929 370.388 253.372 369.701 253.372V250.886C371.761 250.886 373.431 252.556 373.431 254.616H370.945ZM369.701 274.886C370.388 274.886 370.945 274.329 370.945 273.642H373.431C373.431 275.702 371.761 277.372 369.701 277.372V274.886ZM314.675 277.372C312.615 277.372 310.945 275.702 310.945 273.642H313.431C313.431 274.329 313.988 274.886 314.675 274.886V277.372Z" fill="#2EC0FF"/>
</g>
</g>
</g>
<defs>
<filter id="filter0_d_12824_41130" x="222" y="0" width="233" height="296" filterUnits="userSpaceOnUse" color-interpolation-filters="sRGB">
<feFlood flood-opacity="0" result="BackgroundImageFix"/>
<feColorMatrix in="SourceAlpha" type="matrix" values="0 0 0 0 0 0 0 0 0 0 0 0 0 0 0 0 0 0 127 0" result="hardAlpha"/>
<feOffset dy="4"/>
<feGaussianBlur stdDeviation="2"/>
<feComposite in2="hardAlpha" operator="out"/>
<feColorMatrix type="matrix" values="0 0 0 0 0 0 0 0 0 0 0 0 0 0 0 0 0 0 0.8 0"/>
<feBlend mode="normal" in2="BackgroundImageFix" result="effect1_dropShadow_12824_41130"/>
<feBlend mode="normal" in="SourceGraphic" in2="effect1_dropShadow_12824_41130" result="shape"/>
</filter>
<clipPath id="clip0_12824_41130">
<rect width="452" height="288" fill="white"/>
</clipPath>
<clipPath id="clip1_12824_41130">
<rect width="452" height="305" fill="white"/>
</clipPath>
</defs>
</svg>
