<svg width="440" height="68" viewBox="0 0 440 68" fill="none" xmlns="http://www.w3.org/2000/svg">
<path fill-rule="evenodd" clip-rule="evenodd" d="M428 28C423.582 28 420 31.5817 420 36C420 40.4183 423.582 44 428 44C432.418 44 436 40.4183 436 36C436 33.8783 435.157 31.8434 433.657 30.3431C432.157 28.8429 430.122 28 428 28ZM428 42.6667C424.318 42.6667 421.333 39.6819 421.333 36C421.333 32.3181 424.318 29.3333 428 29.3333C431.682 29.3333 434.667 32.3181 434.667 36C434.667 37.7681 433.964 39.4638 432.714 40.714C431.464 41.9643 429.768 42.6667 428 42.6667ZM423.56 36.4933L426.893 39.8267L432.353 34.3667C432.58 34.1022 432.565 33.7079 432.318 33.4616C432.072 33.2154 431.678 33.2001 431.413 33.4267L426.893 37.9467L424.5 35.5533C424.235 35.3268 423.841 35.342 423.595 35.5883C423.349 35.8345 423.333 36.2288 423.56 36.4933Z" fill="#3C8500"/>
<path d="M4.444 65.132C2.354 65.132 0.572 63.339 0.572 61.216C0.572 59.093 2.354 57.311 4.444 57.311C5.489 57.311 6.457 57.751 7.161 58.466L6.578 59.06C6.028 58.477 5.269 58.103 4.444 58.103C2.816 58.103 1.441 59.533 1.441 61.216C1.441 62.91 2.816 64.34 4.444 64.34C5.269 64.34 6.028 63.966 6.578 63.383L7.161 63.977C6.457 64.681 5.489 65.132 4.444 65.132ZM11.0186 59.181C12.2726 59.181 13.1526 60.094 13.1526 61.381V65H12.3276V61.491C12.3276 60.567 11.7446 59.918 10.9086 59.918C9.95156 59.918 9.14856 60.589 9.14856 61.381V65H8.32356V57.311H9.14856V60.226C9.47856 59.621 10.2156 59.181 11.0186 59.181ZM17.1323 59.181C18.6833 59.181 19.4423 60.16 19.4423 61.535V65H18.6173V64.109C18.2103 64.78 17.3633 65.132 16.6153 65.132C15.4163 65.132 14.5363 64.439 14.5363 63.317C14.5363 62.184 15.5483 61.425 16.7693 61.425C17.3853 61.425 18.0343 61.557 18.6173 61.744V61.535C18.6173 60.765 18.3093 59.885 17.0773 59.885C16.5053 59.885 15.9333 60.138 15.4163 60.402L15.0863 59.731C15.9003 59.324 16.5823 59.181 17.1323 59.181ZM16.7583 64.406C17.5063 64.406 18.3973 64.021 18.6173 63.218V62.349C18.1003 62.206 17.5173 62.118 16.9013 62.118C16.0543 62.118 15.3393 62.602 15.3393 63.284C15.3393 63.988 15.9553 64.406 16.7583 64.406ZM23.834 59.181C25.088 59.181 25.968 60.094 25.968 61.381V65H25.143V61.491C25.143 60.567 24.56 59.918 23.724 59.918C22.767 59.918 21.964 60.589 21.964 61.381V65H21.139V59.313H21.964V60.226C22.294 59.621 23.031 59.181 23.834 59.181ZM32.0598 59.313H32.8848V64.395C32.8848 65.858 31.7298 66.892 30.0908 66.892C29.1668 66.892 28.3088 66.573 27.7918 66.133L28.1548 65.484C28.5948 65.902 29.2768 66.155 29.9808 66.155C31.2898 66.155 32.0598 65.506 32.0598 64.395V63.471C31.6198 64.164 30.8938 64.582 29.9918 64.582C28.4628 64.582 27.3738 63.46 27.3738 61.876C27.3738 60.292 28.4628 59.181 29.9918 59.181C30.8938 59.181 31.6198 59.599 32.0598 60.292V59.313ZM30.1458 63.845C31.2678 63.845 32.0598 63.031 32.0598 61.876C32.0598 60.732 31.2678 59.918 30.1458 59.918C29.0348 59.918 28.2428 60.732 28.2428 61.876C28.2428 63.031 29.0348 63.845 30.1458 63.845ZM37.1939 64.395C37.8649 64.395 38.6349 64.098 38.9869 63.713L39.4929 64.252C38.9979 64.791 37.9969 65.132 37.2049 65.132C35.6869 65.132 34.3229 63.889 34.3229 62.14C34.3229 60.446 35.5989 59.181 37.1279 59.181C38.8439 59.181 39.8229 60.479 39.8229 62.47H35.1699C35.2909 63.581 36.0719 64.395 37.1939 64.395ZM37.1609 59.918C36.1489 59.918 35.3349 60.633 35.1809 61.733H39.0089C38.8989 60.71 38.2939 59.918 37.1609 59.918ZM43.1859 65.132C42.3939 65.132 41.5139 64.835 40.8319 64.285L41.2609 63.68C41.9099 64.153 42.5589 64.395 43.1859 64.395C43.9339 64.395 44.4399 64.043 44.4399 63.504C44.4399 62.888 43.7799 62.69 43.0099 62.47C41.6349 62.074 41.1069 61.667 41.1069 60.853C41.1069 59.819 41.9649 59.181 43.0979 59.181C43.8019 59.181 44.5279 59.423 45.1329 59.819L44.7369 60.457C44.1649 60.094 43.6039 59.918 43.0979 59.918C42.4599 59.918 41.9319 60.204 41.9319 60.754C41.9319 61.249 42.3499 61.403 43.4059 61.744C44.3189 62.03 45.2649 62.338 45.2649 63.416C45.2649 64.461 44.3629 65.132 43.1859 65.132ZM51.8334 65.132C51.0414 65.132 50.1614 64.835 49.4794 64.285L49.9084 63.68C50.5574 64.153 51.2064 64.395 51.8334 64.395C52.5814 64.395 53.0874 64.043 53.0874 63.504C53.0874 62.888 52.4274 62.69 51.6574 62.47C50.2824 62.074 49.7544 61.667 49.7544 60.853C49.7544 59.819 50.6124 59.181 51.7454 59.181C52.4494 59.181 53.1754 59.423 53.7804 59.819L53.3844 60.457C52.8124 60.094 52.2514 59.918 51.7454 59.918C51.1074 59.918 50.5794 60.204 50.5794 60.754C50.5794 61.249 50.9974 61.403 52.0534 61.744C52.9664 62.03 53.9124 62.338 53.9124 63.416C53.9124 64.461 53.0104 65.132 51.8334 65.132ZM57.5874 59.181C59.1384 59.181 59.8974 60.16 59.8974 61.535V65H59.0724V64.109C58.6654 64.78 57.8184 65.132 57.0704 65.132C55.8714 65.132 54.9914 64.439 54.9914 63.317C54.9914 62.184 56.0034 61.425 57.2244 61.425C57.8404 61.425 58.4894 61.557 59.0724 61.744V61.535C59.0724 60.765 58.7644 59.885 57.5324 59.885C56.9604 59.885 56.3884 60.138 55.8714 60.402L55.5414 59.731C56.3554 59.324 57.0374 59.181 57.5874 59.181ZM57.2134 64.406C57.9614 64.406 58.8524 64.021 59.0724 63.218V62.349C58.5554 62.206 57.9724 62.118 57.3564 62.118C56.5094 62.118 55.7944 62.602 55.7944 63.284C55.7944 63.988 56.4104 64.406 57.2134 64.406ZM63.4641 65L61.0441 59.313H61.9681L63.8601 64.032L65.7191 59.313H66.6431L64.2561 65H63.4641ZM69.9576 64.395C70.6286 64.395 71.3986 64.098 71.7506 63.713L72.2566 64.252C71.7616 64.791 70.7606 65.132 69.9686 65.132C68.4506 65.132 67.0866 63.889 67.0866 62.14C67.0866 60.446 68.3626 59.181 69.8916 59.181C71.6076 59.181 72.5866 60.479 72.5866 62.47H67.9336C68.0546 63.581 68.8356 64.395 69.9576 64.395ZM69.9246 59.918C68.9126 59.918 68.0986 60.633 67.9446 61.733H71.7726C71.6626 60.71 71.0576 59.918 69.9246 59.918ZM78.3806 57.311H79.2056V65H78.3806V63.933C77.9516 64.681 77.2256 65.132 76.3126 65.132C74.8166 65.132 73.6946 63.9 73.6946 62.151C73.6946 60.413 74.8166 59.181 76.3126 59.181C77.2256 59.181 77.9516 59.632 78.3806 60.38V57.311ZM76.4666 64.395C77.5886 64.395 78.3806 63.46 78.3806 62.151C78.3806 60.842 77.5886 59.918 76.4666 59.918C75.3556 59.918 74.5636 60.842 74.5636 62.151C74.5636 63.46 75.3556 64.395 76.4666 64.395Z" fill="#255200"/>
<rect y="47" width="416" height="1" fill="#255200"/>
<path d="M401.8 35.7444L405 39.0555L408.2 35.7444C408.381 35.5565 408.375 35.2574 408.187 35.0764C408 34.8953 407.7 34.9009 407.519 35.0889L405 37.6972L402.478 35.0889C402.297 34.9009 401.998 34.8953 401.81 35.0764C401.622 35.2574 401.616 35.5565 401.797 35.7444H401.8Z" fill="black"/>
<mask id="mask0_3148_65047" style="mask-type:luminance" maskUnits="userSpaceOnUse" x="401" y="34" width="8" height="6">
<path d="M401.8 35.7444L405 39.0555L408.2 35.7444C408.381 35.5565 408.375 35.2574 408.187 35.0764C408 34.8953 407.7 34.9009 407.519 35.0889L405 37.6972L402.478 35.0889C402.297 34.9009 401.998 34.8953 401.81 35.0764C401.622 35.2574 401.616 35.5565 401.797 35.7444H401.8Z" fill="white"/>
</mask>
<g mask="url(#mask0_3148_65047)">
<rect x="410" y="42" width="10" height="10" transform="rotate(-180 410 42)" fill="#575757"/>
</g>
<path d="M13.943 33.929C13.943 35.333 12.929 36.399 11.512 36.698L13.826 40H12.669L10.407 36.789H8.041V40H7.027V31.069H10.654C12.5 31.069 13.943 32.252 13.943 33.929ZM8.041 32.031V35.827H10.472C11.928 35.827 12.916 35.125 12.916 33.929C12.916 32.733 11.928 32.031 10.472 32.031H8.041ZM18.4721 39.285C19.2651 39.285 20.1751 38.934 20.5911 38.479L21.1891 39.116C20.6041 39.753 19.4211 40.156 18.4851 40.156C16.6911 40.156 15.0791 38.687 15.0791 36.62C15.0791 34.618 16.5871 33.123 18.3941 33.123C20.4221 33.123 21.5791 34.657 21.5791 37.01H16.0801C16.2231 38.323 17.1461 39.285 18.4721 39.285ZM18.4331 33.994C17.2371 33.994 16.2751 34.839 16.0931 36.139H20.6171C20.4871 34.93 19.7721 33.994 18.4331 33.994ZM28.4265 30.913H29.4015V40H28.4265V38.739C27.9195 39.623 27.0615 40.156 25.9825 40.156C24.2145 40.156 22.8885 38.7 22.8885 36.633C22.8885 34.579 24.2145 33.123 25.9825 33.123C27.0615 33.123 27.9195 33.656 28.4265 34.54V30.913ZM26.1645 39.285C27.4905 39.285 28.4265 38.18 28.4265 36.633C28.4265 35.086 27.4905 33.994 26.1645 33.994C24.8515 33.994 23.9155 35.086 23.9155 36.633C23.9155 38.18 24.8515 39.285 26.1645 39.285Z" fill="black"/>
<path d="M5.74 16.168C3.01 16.168 0.7 13.886 0.7 11.184C0.7 8.482 3.01 6.214 5.74 6.214C7.154 6.214 8.456 6.816 9.38 7.768L8.134 8.93C7.532 8.244 6.678 7.81 5.74 7.81C3.976 7.81 2.478 9.35 2.478 11.184C2.478 13.032 3.976 14.572 5.74 14.572C6.678 14.572 7.532 14.138 8.148 13.452L9.38 14.6C8.456 15.566 7.154 16.168 5.74 16.168ZM14.1534 16.168C12.0114 16.168 10.2614 14.46 10.2614 12.374C10.2614 10.288 12.0114 8.594 14.1534 8.594C16.2814 8.594 18.0174 10.288 18.0174 12.374C18.0174 14.46 16.2814 16.168 14.1534 16.168ZM14.1534 14.712C15.3574 14.712 16.3514 13.662 16.3514 12.374C16.3514 11.086 15.3574 10.05 14.1534 10.05C12.9354 10.05 11.9414 11.086 11.9414 12.374C11.9414 13.662 12.9354 14.712 14.1534 14.712ZM19.4988 16V6.214H21.2068V16H19.4988ZM26.5726 16.168C24.4306 16.168 22.6806 14.46 22.6806 12.374C22.6806 10.288 24.4306 8.594 26.5726 8.594C28.7006 8.594 30.4366 10.288 30.4366 12.374C30.4366 14.46 28.7006 16.168 26.5726 16.168ZM26.5726 14.712C27.7766 14.712 28.7706 13.662 28.7706 12.374C28.7706 11.086 27.7766 10.05 26.5726 10.05C25.3546 10.05 24.3606 11.086 24.3606 12.374C24.3606 13.662 25.3546 14.712 26.5726 14.712ZM33.6259 10.134C34.0879 9.196 35.0399 8.594 36.2159 8.594V10.05C34.6619 10.05 33.6259 10.974 33.6259 12.346V16H31.9179V8.762H33.6259V10.134Z" fill="#2D4048"/>
</svg>
