<svg width="688" height="179" viewBox="0 0 688 179" fill="none" xmlns="http://www.w3.org/2000/svg">
<path d="M29 17.677H248" stroke="#DDDDDD" stroke-width="2" stroke-linecap="square"/>
<path d="M30 17.177H631" stroke="#9B9B9B" stroke-width="2" stroke-linecap="square"/>
<path d="M625.317 52.333C622.821 52.333 620.689 50.214 620.689 47.705C620.689 45.196 622.821 43.09 625.317 43.09C626.591 43.09 627.774 43.623 628.619 44.494L627.696 45.378C627.085 44.728 626.24 44.299 625.317 44.299C623.536 44.299 622.028 45.859 622.028 47.705C622.028 49.564 623.536 51.124 625.317 51.124C626.24 51.124 627.085 50.695 627.696 50.045L628.619 50.929C627.774 51.787 626.591 52.333 625.317 52.333ZM633.02 52.333C631.083 52.333 629.484 50.747 629.484 48.81C629.484 46.873 631.083 45.3 633.02 45.3C634.957 45.3 636.556 46.873 636.556 48.81C636.556 50.747 634.957 52.333 633.02 52.333ZM633.02 51.215C634.255 51.215 635.269 50.136 635.269 48.81C635.269 47.484 634.255 46.418 633.02 46.418C631.785 46.418 630.771 47.484 630.771 48.81C630.771 50.136 631.785 51.215 633.02 51.215ZM641.449 45.3C642.931 45.3 643.958 46.353 643.958 47.9V52.177H642.71V48.121C642.71 47.107 642.073 46.418 641.163 46.418C640.136 46.418 639.304 47.12 639.304 48.004V52.177H638.017V45.456H639.304V46.444C639.694 45.768 640.526 45.3 641.449 45.3ZM649.258 45.3C650.74 45.3 651.767 46.353 651.767 47.9V52.177H650.519V48.121C650.519 47.107 649.882 46.418 648.972 46.418C647.945 46.418 647.113 47.12 647.113 48.004V52.177H645.826V45.456H647.113V46.444C647.503 45.768 648.335 45.3 649.258 45.3ZM656.56 51.267C657.288 51.267 658.133 50.942 658.549 50.5L659.303 51.293C658.718 51.93 657.535 52.333 656.586 52.333C654.727 52.333 653.115 50.864 653.115 48.797C653.115 46.782 654.636 45.3 656.495 45.3C658.549 45.3 659.745 46.834 659.745 49.226H654.376C654.532 50.409 655.364 51.267 656.56 51.267ZM656.521 46.366C655.442 46.366 654.584 47.12 654.389 48.277H658.497C658.367 47.198 657.691 46.366 656.521 46.366ZM664.143 52.333C662.219 52.333 660.594 50.721 660.594 48.81C660.594 46.899 662.232 45.3 664.143 45.3C665.118 45.3 665.976 45.703 666.626 46.34L665.755 47.146C665.339 46.691 664.754 46.418 664.143 46.418C662.921 46.418 661.894 47.51 661.894 48.81C661.894 50.123 662.921 51.215 664.143 51.215C664.767 51.215 665.365 50.929 665.794 50.461L666.665 51.254C666.015 51.917 665.144 52.333 664.143 52.333ZM670.781 50.968L671.262 51.852C670.898 52.151 670.391 52.333 669.91 52.333C668.87 52.333 668.142 51.579 668.142 50.5V46.548H667.141V45.456H668.142V43.61H669.403V45.456H670.989V46.548H669.403V50.409C669.403 50.877 669.728 51.215 670.105 51.215C670.391 51.215 670.651 51.111 670.781 50.968ZM675.43 51.267C676.158 51.267 677.003 50.942 677.419 50.5L678.173 51.293C677.588 51.93 676.405 52.333 675.456 52.333C673.597 52.333 671.985 50.864 671.985 48.797C671.985 46.782 673.506 45.3 675.365 45.3C677.419 45.3 678.615 46.834 678.615 49.226H673.246C673.402 50.409 674.234 51.267 675.43 51.267ZM675.391 46.366C674.312 46.366 673.454 47.12 673.259 48.277H677.367C677.237 47.198 676.561 46.366 675.391 46.366ZM685.015 43.09H686.302V52.177H685.015V51.033C684.495 51.839 683.663 52.333 682.636 52.333C680.855 52.333 679.542 50.877 679.542 48.81C679.542 46.756 680.855 45.3 682.636 45.3C683.663 45.3 684.495 45.794 685.015 46.6V43.09ZM682.935 51.215C684.157 51.215 685.015 50.214 685.015 48.81C685.015 47.406 684.157 46.418 682.935 46.418C681.713 46.418 680.842 47.406 680.842 48.81C680.842 50.214 681.713 51.215 682.935 51.215Z" fill="black"/>
<path d="M636 32.177C644.837 32.177 652 25.0136 652 16.177C652 7.34045 644.837 0.177002 636 0.177002C627.163 0.177002 620 7.34045 620 16.177C620 25.0136 627.163 32.177 636 32.177Z" fill="white"/>
<path fill-rule="evenodd" clip-rule="evenodd" d="M636 30.177C628.268 30.177 622 23.909 622 16.177C622 8.445 628.268 2.177 636 2.177C643.732 2.177 650 8.445 650 16.177C650 23.909 643.732 30.177 636 30.177ZM636 0.177002C627.164 0.177002 620 7.341 620 16.177C620 25.013 627.164 32.177 636 32.177C644.836 32.177 652 25.013 652 16.177C652 7.341 644.836 0.177002 636 0.177002Z" fill="#747474"/>
<path d="M413.326 52.177V43.246H414.639L417.772 49.083L420.905 43.246H422.218V52.177H420.905V45.82L417.772 51.657L414.639 45.82V52.177H413.326ZM427.041 45.3C428.848 45.3 429.849 46.444 429.849 48.108V52.177H428.588V51.267C428.094 51.956 427.184 52.333 426.352 52.333C424.935 52.333 423.869 51.501 423.869 50.188C423.869 48.849 425.078 47.952 426.56 47.952C427.223 47.952 427.938 48.095 428.588 48.316V48.108C428.588 47.263 428.198 46.366 426.859 46.366C426.196 46.366 425.559 46.626 424.974 46.925L424.493 45.976C425.455 45.495 426.3 45.3 427.041 45.3ZM426.612 51.319C427.444 51.319 428.367 50.903 428.588 50.071V49.174C428.029 49.005 427.418 48.914 426.755 48.914C425.858 48.914 425.104 49.421 425.104 50.149C425.104 50.877 425.754 51.319 426.612 51.319ZM431.718 52.177V43.09H433.005V48.901L436.294 45.456H437.854L434.955 48.498L437.724 52.177H436.19L434.084 49.356L433.005 50.448V52.177H431.718ZM441.868 51.267C442.596 51.267 443.441 50.942 443.857 50.5L444.611 51.293C444.026 51.93 442.843 52.333 441.894 52.333C440.035 52.333 438.423 50.864 438.423 48.797C438.423 46.782 439.944 45.3 441.803 45.3C443.857 45.3 445.053 46.834 445.053 49.226H439.684C439.84 50.409 440.672 51.267 441.868 51.267ZM441.829 46.366C440.75 46.366 439.892 47.12 439.697 48.277H443.805C443.675 47.198 442.999 46.366 441.829 46.366ZM450.201 52.177V43.246H451.514V47.9L455.739 43.246H457.403L453.737 47.263L457.65 52.177H455.999L452.827 48.173L451.514 49.564V52.177H450.201ZM459.178 52.177V43.246H460.491L463.624 49.083L466.757 43.246H468.07V52.177H466.757V45.82L463.624 51.657L460.491 45.82V52.177H459.178ZM473.517 52.32C472.022 52.32 470.787 51.8 469.851 50.89L470.631 49.915C471.424 50.669 472.36 51.163 473.569 51.163C474.804 51.163 475.441 50.513 475.441 49.798C475.441 48.953 474.7 48.628 473.205 48.29C471.385 47.861 470.176 47.315 470.176 45.703C470.176 44.208 471.476 43.09 473.283 43.09C474.648 43.09 475.675 43.584 476.533 44.351L475.779 45.339C475.025 44.65 474.128 44.247 473.218 44.247C472.217 44.247 471.515 44.871 471.515 45.586C471.515 46.418 472.282 46.704 473.751 47.055C475.532 47.471 476.767 48.069 476.767 49.668C476.767 51.176 475.623 52.32 473.517 52.32ZM484.711 50.968L485.192 51.852C484.828 52.151 484.321 52.333 483.84 52.333C482.8 52.333 482.072 51.579 482.072 50.5V46.548H481.071V45.456H482.072V43.61H483.333V45.456H484.919V46.548H483.333V50.409C483.333 50.877 483.658 51.215 484.035 51.215C484.321 51.215 484.581 51.111 484.711 50.968ZM487.722 46.769C488.138 45.872 489.048 45.3 490.218 45.3V46.418C488.736 46.418 487.722 47.302 487.722 48.602V52.177H486.435V45.456H487.722V46.769ZM496.14 45.456H497.427V52.177H496.14V51.215C495.737 51.878 494.918 52.333 493.995 52.333C492.513 52.333 491.486 51.28 491.486 49.733V45.456H492.747V49.512C492.747 50.526 493.384 51.215 494.294 51.215C495.321 51.215 496.14 50.513 496.14 49.629V45.456ZM501.661 52.333C500.673 52.333 499.607 51.982 498.801 51.332L499.386 50.448C500.127 50.994 500.933 51.293 501.674 51.293C502.48 51.293 502.987 50.929 502.987 50.383C502.987 49.746 502.285 49.538 501.427 49.304C499.893 48.875 499.113 48.433 499.113 47.341C499.113 46.106 500.14 45.3 501.557 45.3C502.428 45.3 503.325 45.599 504.04 46.08L503.507 46.99C502.844 46.574 502.168 46.34 501.557 46.34C500.881 46.34 500.335 46.639 500.335 47.198C500.335 47.718 500.79 47.874 501.934 48.225C503.039 48.55 504.209 48.914 504.209 50.253C504.209 51.527 503.143 52.333 501.661 52.333ZM508.546 50.968L509.027 51.852C508.663 52.151 508.156 52.333 507.675 52.333C506.635 52.333 505.907 51.579 505.907 50.5V46.548H504.906V45.456H505.907V43.61H507.168V45.456H508.754V46.548H507.168V50.409C507.168 50.877 507.493 51.215 507.87 51.215C508.156 51.215 508.416 51.111 508.546 50.968ZM515.701 52.177L512.828 45.456H514.206L516.299 50.682L518.353 45.456H519.744L516.91 52.177H515.701ZM525.1 52.333C522.604 52.333 520.472 50.214 520.472 47.705C520.472 45.196 522.604 43.09 525.1 43.09C526.374 43.09 527.557 43.623 528.402 44.494L527.479 45.378C526.868 44.728 526.023 44.299 525.1 44.299C523.319 44.299 521.811 45.859 521.811 47.705C521.811 49.564 523.319 51.124 525.1 51.124C526.023 51.124 526.868 50.695 527.479 50.045L528.402 50.929C527.557 51.787 526.374 52.333 525.1 52.333ZM532.738 51.267C533.466 51.267 534.311 50.942 534.727 50.5L535.481 51.293C534.896 51.93 533.713 52.333 532.764 52.333C530.905 52.333 529.293 50.864 529.293 48.797C529.293 46.782 530.814 45.3 532.673 45.3C534.727 45.3 535.923 46.834 535.923 49.226H530.554C530.71 50.409 531.542 51.267 532.738 51.267ZM532.699 46.366C531.62 46.366 530.762 47.12 530.567 48.277H534.675C534.545 47.198 533.869 46.366 532.699 46.366ZM540.762 45.3C542.244 45.3 543.271 46.353 543.271 47.9V52.177H542.023V48.121C542.023 47.107 541.386 46.418 540.476 46.418C539.449 46.418 538.617 47.12 538.617 48.004V52.177H537.33V45.456H538.617V46.444C539.007 45.768 539.839 45.3 540.762 45.3ZM548.012 50.968L548.493 51.852C548.129 52.151 547.622 52.333 547.141 52.333C546.101 52.333 545.373 51.579 545.373 50.5V46.548H544.372V45.456H545.373V43.61H546.634V45.456H548.22V46.548H546.634V50.409C546.634 50.877 546.959 51.215 547.336 51.215C547.622 51.215 547.882 51.111 548.012 50.968ZM552.662 51.267C553.39 51.267 554.235 50.942 554.651 50.5L555.405 51.293C554.82 51.93 553.637 52.333 552.688 52.333C550.829 52.333 549.217 50.864 549.217 48.797C549.217 46.782 550.738 45.3 552.597 45.3C554.651 45.3 555.847 46.834 555.847 49.226H550.478C550.634 50.409 551.466 51.267 552.662 51.267ZM552.623 46.366C551.544 46.366 550.686 47.12 550.491 48.277H554.599C554.469 47.198 553.793 46.366 552.623 46.366ZM558.541 46.769C558.957 45.872 559.867 45.3 561.037 45.3V46.418C559.555 46.418 558.541 47.302 558.541 48.602V52.177H557.254V45.456H558.541V46.769Z" fill="black"/>
<path d="M430 32.177C438.837 32.177 446 25.0136 446 16.177C446 7.34045 438.837 0.177002 430 0.177002C421.163 0.177002 414 7.34045 414 16.177C414 25.0136 421.163 32.177 430 32.177Z" fill="white"/>
<path fill-rule="evenodd" clip-rule="evenodd" d="M430 30.177C422.268 30.177 416 23.909 416 16.177C416 8.445 422.268 2.177 430 2.177C437.732 2.177 444 8.445 444 16.177C444 23.909 437.732 30.177 430 30.177ZM430 0.177002C421.164 0.177002 414 7.341 414 16.177C414 25.013 421.164 32.177 430 32.177C438.836 32.177 446 25.013 446 16.177C446 7.341 438.836 0.177002 430 0.177002Z" fill="#007CBB"/>
<path d="M430 24.177C434.418 24.177 438 20.5953 438 16.177C438 11.7587 434.418 8.177 430 8.177C425.582 8.177 422 11.7587 422 16.177C422 20.5953 425.582 24.177 430 24.177Z" fill="#007CBB"/>
<path d="M207.326 52.177V43.246H208.639L211.772 49.083L214.905 43.246H216.218V52.177H214.905V45.82L211.772 51.657L208.639 45.82V52.177H207.326ZM221.041 45.3C222.848 45.3 223.849 46.444 223.849 48.108V52.177H222.588V51.267C222.094 51.956 221.184 52.333 220.352 52.333C218.935 52.333 217.869 51.501 217.869 50.188C217.869 48.849 219.078 47.952 220.56 47.952C221.223 47.952 221.938 48.095 222.588 48.316V48.108C222.588 47.263 222.198 46.366 220.859 46.366C220.196 46.366 219.559 46.626 218.974 46.925L218.493 45.976C219.455 45.495 220.3 45.3 221.041 45.3ZM220.612 51.319C221.444 51.319 222.367 50.903 222.588 50.071V49.174C222.029 49.005 221.418 48.914 220.755 48.914C219.858 48.914 219.104 49.421 219.104 50.149C219.104 50.877 219.754 51.319 220.612 51.319ZM225.718 52.177V43.09H227.005V48.901L230.294 45.456H231.854L228.955 48.498L231.724 52.177H230.19L228.084 49.356L227.005 50.448V52.177H225.718ZM235.868 51.267C236.596 51.267 237.441 50.942 237.857 50.5L238.611 51.293C238.026 51.93 236.843 52.333 235.894 52.333C234.035 52.333 232.423 50.864 232.423 48.797C232.423 46.782 233.944 45.3 235.803 45.3C237.857 45.3 239.053 46.834 239.053 49.226H233.684C233.84 50.409 234.672 51.267 235.868 51.267ZM235.829 46.366C234.75 46.366 233.892 47.12 233.697 48.277H237.805C237.675 47.198 236.999 46.366 235.829 46.366ZM245.891 52.177L243.018 45.456H244.396L246.489 50.682L248.543 45.456H249.934L247.1 52.177H245.891ZM255.29 52.333C252.794 52.333 250.662 50.214 250.662 47.705C250.662 45.196 252.794 43.09 255.29 43.09C256.564 43.09 257.747 43.623 258.592 44.494L257.669 45.378C257.058 44.728 256.213 44.299 255.29 44.299C253.509 44.299 252.001 45.859 252.001 47.705C252.001 49.564 253.509 51.124 255.29 51.124C256.213 51.124 257.058 50.695 257.669 50.045L258.592 50.929C257.747 51.787 256.564 52.333 255.29 52.333ZM262.928 51.267C263.656 51.267 264.501 50.942 264.917 50.5L265.671 51.293C265.086 51.93 263.903 52.333 262.954 52.333C261.095 52.333 259.483 50.864 259.483 48.797C259.483 46.782 261.004 45.3 262.863 45.3C264.917 45.3 266.113 46.834 266.113 49.226H260.744C260.9 50.409 261.732 51.267 262.928 51.267ZM262.889 46.366C261.81 46.366 260.952 47.12 260.757 48.277H264.865C264.735 47.198 264.059 46.366 262.889 46.366ZM270.953 45.3C272.435 45.3 273.462 46.353 273.462 47.9V52.177H272.214V48.121C272.214 47.107 271.577 46.418 270.667 46.418C269.64 46.418 268.808 47.12 268.808 48.004V52.177H267.521V45.456H268.808V46.444C269.198 45.768 270.03 45.3 270.953 45.3ZM278.203 50.968L278.684 51.852C278.32 52.151 277.813 52.333 277.332 52.333C276.292 52.333 275.564 51.579 275.564 50.5V46.548H274.563V45.456H275.564V43.61H276.825V45.456H278.411V46.548H276.825V50.409C276.825 50.877 277.15 51.215 277.527 51.215C277.813 51.215 278.073 51.111 278.203 50.968ZM282.852 51.267C283.58 51.267 284.425 50.942 284.841 50.5L285.595 51.293C285.01 51.93 283.827 52.333 282.878 52.333C281.019 52.333 279.407 50.864 279.407 48.797C279.407 46.782 280.928 45.3 282.787 45.3C284.841 45.3 286.037 46.834 286.037 49.226H280.668C280.824 50.409 281.656 51.267 282.852 51.267ZM282.813 46.366C281.734 46.366 280.876 47.12 280.681 48.277H284.789C284.659 47.198 283.983 46.366 282.813 46.366ZM288.731 46.769C289.147 45.872 290.057 45.3 291.227 45.3V46.418C289.745 46.418 288.731 47.302 288.731 48.602V52.177H287.444V45.456H288.731V46.769ZM298.979 50.968L299.46 51.852C299.096 52.151 298.589 52.333 298.108 52.333C297.068 52.333 296.34 51.579 296.34 50.5V46.548H295.339V45.456H296.34V43.61H297.601V45.456H299.187V46.548H297.601V50.409C297.601 50.877 297.926 51.215 298.303 51.215C298.589 51.215 298.849 51.111 298.979 50.968ZM301.99 46.769C302.406 45.872 303.316 45.3 304.486 45.3V46.418C303.004 46.418 301.99 47.302 301.99 48.602V52.177H300.703V45.456H301.99V46.769ZM310.408 45.456H311.695V52.177H310.408V51.215C310.005 51.878 309.186 52.333 308.263 52.333C306.781 52.333 305.754 51.28 305.754 49.733V45.456H307.015V49.512C307.015 50.526 307.652 51.215 308.562 51.215C309.589 51.215 310.408 50.513 310.408 49.629V45.456ZM315.929 52.333C314.941 52.333 313.875 51.982 313.069 51.332L313.654 50.448C314.395 50.994 315.201 51.293 315.942 51.293C316.748 51.293 317.255 50.929 317.255 50.383C317.255 49.746 316.553 49.538 315.695 49.304C314.161 48.875 313.381 48.433 313.381 47.341C313.381 46.106 314.408 45.3 315.825 45.3C316.696 45.3 317.593 45.599 318.308 46.08L317.775 46.99C317.112 46.574 316.436 46.34 315.825 46.34C315.149 46.34 314.603 46.639 314.603 47.198C314.603 47.718 315.058 47.874 316.202 48.225C317.307 48.55 318.477 48.914 318.477 50.253C318.477 51.527 317.411 52.333 315.929 52.333ZM322.814 50.968L323.295 51.852C322.931 52.151 322.424 52.333 321.943 52.333C320.903 52.333 320.175 51.579 320.175 50.5V46.548H319.174V45.456H320.175V43.61H321.436V45.456H323.022V46.548H321.436V50.409C321.436 50.877 321.761 51.215 322.138 51.215C322.424 51.215 322.684 51.111 322.814 50.968ZM328.279 52.177V43.246H329.592V47.9L333.817 43.246H335.481L331.815 47.263L335.728 52.177H334.077L330.905 48.173L329.592 49.564V52.177H328.279ZM337.256 52.177V43.246H338.569L341.702 49.083L344.835 43.246H346.148V52.177H344.835V45.82L341.702 51.657L338.569 45.82V52.177H337.256ZM351.595 52.32C350.1 52.32 348.865 51.8 347.929 50.89L348.709 49.915C349.502 50.669 350.438 51.163 351.647 51.163C352.882 51.163 353.519 50.513 353.519 49.798C353.519 48.953 352.778 48.628 351.283 48.29C349.463 47.861 348.254 47.315 348.254 45.703C348.254 44.208 349.554 43.09 351.361 43.09C352.726 43.09 353.753 43.584 354.611 44.351L353.857 45.339C353.103 44.65 352.206 44.247 351.296 44.247C350.295 44.247 349.593 44.871 349.593 45.586C349.593 46.418 350.36 46.704 351.829 47.055C353.61 47.471 354.845 48.069 354.845 49.668C354.845 51.176 353.701 52.32 351.595 52.32Z" fill="black"/>
<path d="M224 32.177C232.837 32.177 240 25.0136 240 16.177C240 7.34045 232.837 0.177002 224 0.177002C215.163 0.177002 208 7.34045 208 16.177C208 25.0136 215.163 32.177 224 32.177Z" fill="white"/>
<path fill-rule="evenodd" clip-rule="evenodd" d="M224 30.177C216.268 30.177 210 23.909 210 16.177C210 8.445 216.268 2.177 224 2.177C231.732 2.177 238 8.445 238 16.177C238 23.909 231.732 30.177 224 30.177ZM224 0.177002C215.164 0.177002 208 7.341 208 16.177C208 25.013 215.164 32.177 224 32.177C232.836 32.177 240 25.013 240 16.177C240 7.341 232.836 0.177002 224 0.177002Z" fill="#60B515"/>
<path fill-rule="evenodd" clip-rule="evenodd" d="M234 10.237C233.813 10.0507 233.559 9.94617 233.295 9.94617C233.031 9.94617 232.777 10.0507 232.59 10.237L221.49 21.287L215.49 15.287C215.307 15.0894 215.053 14.9727 214.783 14.9624C214.514 14.9521 214.252 15.049 214.054 15.232C213.857 15.4156 213.741 15.6695 213.731 15.9383C213.721 16.2072 213.818 16.4691 214 16.667L221.45 24.117L234 11.647C234.186 11.4596 234.291 11.2061 234.291 10.942C234.291 10.6778 234.186 10.4243 234 10.237Z" fill="#60B515"/>
<path d="M8.995 52.177L8.202 50.318H3.574L2.781 52.177H1.325L5.16 43.246H6.616L10.451 52.177H8.995ZM4.068 49.174H7.708L5.888 44.936L4.068 49.174ZM16.7204 43.09H18.0074V52.177H16.7204V51.033C16.2004 51.839 15.3684 52.333 14.3414 52.333C12.5604 52.333 11.2474 50.877 11.2474 48.81C11.2474 46.756 12.5604 45.3 14.3414 45.3C15.3684 45.3 16.2004 45.794 16.7204 46.6V43.09ZM14.6404 51.215C15.8624 51.215 16.7204 50.214 16.7204 48.81C16.7204 47.406 15.8624 46.418 14.6404 46.418C13.4184 46.418 12.5474 47.406 12.5474 48.81C12.5474 50.214 13.4184 51.215 14.6404 51.215ZM24.9993 43.09H26.2863V52.177H24.9993V51.033C24.4793 51.839 23.6473 52.333 22.6203 52.333C20.8393 52.333 19.5263 50.877 19.5263 48.81C19.5263 46.756 20.8393 45.3 22.6203 45.3C23.6473 45.3 24.4793 45.794 24.9993 46.6V43.09ZM22.9193 51.215C24.1413 51.215 24.9993 50.214 24.9993 48.81C24.9993 47.406 24.1413 46.418 22.9193 46.418C21.6973 46.418 20.8263 47.406 20.8263 48.81C20.8263 50.214 21.6973 51.215 22.9193 51.215ZM32.0266 52.177V43.246H33.3396V47.9L37.5646 43.246H39.2286L35.5626 47.263L39.4756 52.177H37.8246L34.6526 48.173L33.3396 49.564V52.177H32.0266ZM41.0037 52.177V43.246H42.3167L45.4497 49.083L48.5827 43.246H49.8957V52.177H48.5827V45.82L45.4497 51.657L42.3167 45.82V52.177H41.0037ZM55.3428 52.32C53.8478 52.32 52.6128 51.8 51.6768 50.89L52.4568 49.915C53.2498 50.669 54.1858 51.163 55.3948 51.163C56.6298 51.163 57.2668 50.513 57.2668 49.798C57.2668 48.953 56.5258 48.628 55.0308 48.29C53.2108 47.861 52.0018 47.315 52.0018 45.703C52.0018 44.208 53.3018 43.09 55.1088 43.09C56.4738 43.09 57.5008 43.584 58.3588 44.351L57.6048 45.339C56.8508 44.65 55.9538 44.247 55.0438 44.247C54.0428 44.247 53.3408 44.871 53.3408 45.586C53.3408 46.418 54.1078 46.704 55.5768 47.055C57.3578 47.471 58.5928 48.069 58.5928 49.668C58.5928 51.176 57.4488 52.32 55.3428 52.32Z" fill="black"/>
<path d="M16 32.177C24.8366 32.177 32 25.0136 32 16.177C32 7.34045 24.8366 0.177002 16 0.177002C7.16344 0.177002 0 7.34045 0 16.177C0 25.0136 7.16344 32.177 16 32.177Z" fill="white"/>
<path fill-rule="evenodd" clip-rule="evenodd" d="M16 30.177C8.268 30.177 2 23.909 2 16.177C2 8.445 8.268 2.177 16 2.177C23.732 2.177 30 8.445 30 16.177C30 23.909 23.732 30.177 16 30.177ZM16 0.177002C7.164 0.177002 0 7.341 0 16.177C0 25.013 7.164 32.177 16 32.177C24.836 32.177 32 25.013 32 16.177C32 7.341 24.836 0.177002 16 0.177002Z" fill="#60B515"/>
<path fill-rule="evenodd" clip-rule="evenodd" d="M26 10.237C25.8126 10.0507 25.5592 9.94617 25.295 9.94617C25.0308 9.94617 24.7774 10.0507 24.59 10.237L13.49 21.287L7.49001 15.287C7.30676 15.0894 7.05262 14.9727 6.78338 14.9624C6.51415 14.9521 6.25183 15.049 6.05401 15.232C5.85741 15.4156 5.7414 15.6695 5.73128 15.9383C5.72117 16.2072 5.81776 16.4691 6.00001 16.667L13.45 24.117L26 11.647C26.1863 11.4596 26.2908 11.2061 26.2908 10.942C26.2908 10.6778 26.1863 10.4243 26 10.237Z" fill="#60B515"/>
<path d="M421.051 101.04C421.051 102.327 420.05 103.273 418.697 103.438L420.622 106.177H419.643L417.729 103.46H416.057V106.177H415.199V98.62H418.268C419.83 98.62 421.051 99.621 421.051 101.04ZM416.057 99.434V102.646H418.114C419.346 102.646 420.182 102.052 420.182 101.04C420.182 100.028 419.346 99.434 418.114 99.434H416.057ZM425.194 106.309C423.577 106.309 422.257 104.967 422.257 103.328C422.257 101.689 423.577 100.358 425.194 100.358C426.8 100.358 428.12 101.689 428.12 103.328C428.12 104.967 426.8 106.309 425.194 106.309ZM425.194 105.572C426.327 105.572 427.262 104.56 427.262 103.328C427.262 102.096 426.327 101.095 425.194 101.095C424.05 101.095 423.115 102.096 423.115 103.328C423.115 104.56 424.05 105.572 425.194 105.572ZM432.183 106.309C430.566 106.309 429.246 104.967 429.246 103.328C429.246 101.689 430.566 100.358 432.183 100.358C433.789 100.358 435.109 101.689 435.109 103.328C435.109 104.967 433.789 106.309 432.183 106.309ZM432.183 105.572C433.316 105.572 434.251 104.56 434.251 103.328C434.251 102.096 433.316 101.095 432.183 101.095C431.039 101.095 430.104 102.096 430.104 103.328C430.104 104.56 431.039 105.572 432.183 105.572ZM438.93 105.341L439.337 105.946C439.04 106.177 438.666 106.309 438.281 106.309C437.467 106.309 436.895 105.704 436.895 104.857V101.227H436.004V100.49H436.895V98.928H437.72V100.49H439.117V101.227H437.72V104.857C437.72 105.275 438.006 105.572 438.336 105.572C438.589 105.572 438.809 105.473 438.93 105.341ZM447.482 106.309C445.392 106.309 443.61 104.516 443.61 102.393C443.61 100.27 445.392 98.488 447.482 98.488C448.527 98.488 449.495 98.928 450.199 99.643L449.616 100.237C449.066 99.654 448.307 99.28 447.482 99.28C445.854 99.28 444.479 100.71 444.479 102.393C444.479 104.087 445.854 105.517 447.482 105.517C448.307 105.517 449.066 105.143 449.616 104.56L450.199 105.154C449.495 105.858 448.527 106.309 447.482 106.309ZM457.751 106.177L456.992 104.461H452.779L452.02 106.177H451.085L454.418 98.62H455.353L458.686 106.177H457.751ZM453.131 103.647H456.64L454.891 99.676L453.131 103.647ZM465.792 106.309C464.197 106.309 462.844 104.945 462.844 103.328C462.844 101.711 464.197 100.358 465.792 100.358C466.562 100.358 467.277 100.677 467.816 101.194L467.244 101.755C466.87 101.348 466.353 101.095 465.792 101.095C464.659 101.095 463.713 102.118 463.713 103.328C463.713 104.549 464.659 105.572 465.792 105.572C466.364 105.572 466.892 105.308 467.277 104.879L467.849 105.44C467.31 105.979 466.584 106.309 465.792 106.309ZM471.652 105.572C472.323 105.572 473.093 105.275 473.445 104.89L473.951 105.429C473.456 105.968 472.455 106.309 471.663 106.309C470.145 106.309 468.781 105.066 468.781 103.317C468.781 101.623 470.057 100.358 471.586 100.358C473.302 100.358 474.281 101.656 474.281 103.647H469.628C469.749 104.758 470.53 105.572 471.652 105.572ZM471.619 101.095C470.607 101.095 469.793 101.81 469.639 102.91H473.467C473.357 101.887 472.752 101.095 471.619 101.095ZM476.692 101.601C477.033 100.842 477.847 100.358 478.892 100.358V101.095C477.605 101.095 476.692 101.887 476.692 102.998V106.177H475.867V100.49H476.692V101.601ZM482.628 105.341L483.035 105.946C482.738 106.177 482.364 106.309 481.979 106.309C481.165 106.309 480.593 105.704 480.593 104.857V101.227H479.702V100.49H480.593V98.928H481.418V100.49H482.815V101.227H481.418V104.857C481.418 105.275 481.704 105.572 482.034 105.572C482.287 105.572 482.507 105.473 482.628 105.341ZM484.838 99.456C484.53 99.456 484.288 99.203 484.288 98.906C484.288 98.62 484.53 98.367 484.838 98.367C485.135 98.367 485.377 98.62 485.377 98.906C485.377 99.203 485.135 99.456 484.838 99.456ZM484.42 106.177V100.49H485.245V106.177H484.42ZM488.383 99.709V100.49H489.78V101.227H488.383V106.177H487.558V101.227H486.667V100.49H487.558V99.709C487.558 98.862 488.13 98.257 488.944 98.257C489.329 98.257 489.703 98.389 490 98.62L489.593 99.225C489.472 99.093 489.252 98.994 488.999 98.994C488.669 98.994 488.383 99.291 488.383 99.709ZM491.469 99.456C491.161 99.456 490.919 99.203 490.919 98.906C490.919 98.62 491.161 98.367 491.469 98.367C491.766 98.367 492.008 98.62 492.008 98.906C492.008 99.203 491.766 99.456 491.469 99.456ZM491.051 106.177V100.49H491.876V106.177H491.051ZM496.432 106.309C494.837 106.309 493.484 104.945 493.484 103.328C493.484 101.711 494.837 100.358 496.432 100.358C497.202 100.358 497.917 100.677 498.456 101.194L497.884 101.755C497.51 101.348 496.993 101.095 496.432 101.095C495.299 101.095 494.353 102.118 494.353 103.328C494.353 104.549 495.299 105.572 496.432 105.572C497.004 105.572 497.532 105.308 497.917 104.879L498.489 105.44C497.95 105.979 497.224 106.309 496.432 106.309ZM501.929 100.358C503.48 100.358 504.239 101.337 504.239 102.712V106.177H503.414V105.286C503.007 105.957 502.16 106.309 501.412 106.309C500.213 106.309 499.333 105.616 499.333 104.494C499.333 103.361 500.345 102.602 501.566 102.602C502.182 102.602 502.831 102.734 503.414 102.921V102.712C503.414 101.942 503.106 101.062 501.874 101.062C501.302 101.062 500.73 101.315 500.213 101.579L499.883 100.908C500.697 100.501 501.379 100.358 501.929 100.358ZM501.555 105.583C502.303 105.583 503.194 105.198 503.414 104.395V103.526C502.897 103.383 502.314 103.295 501.698 103.295C500.851 103.295 500.136 103.779 500.136 104.461C500.136 105.165 500.752 105.583 501.555 105.583ZM508.417 105.341L508.824 105.946C508.527 106.177 508.153 106.309 507.768 106.309C506.954 106.309 506.382 105.704 506.382 104.857V101.227H505.491V100.49H506.382V98.928H507.207V100.49H508.604V101.227H507.207V104.857C507.207 105.275 507.493 105.572 507.823 105.572C508.076 105.572 508.296 105.473 508.417 105.341ZM512.607 105.572C513.278 105.572 514.048 105.275 514.4 104.89L514.906 105.429C514.411 105.968 513.41 106.309 512.618 106.309C511.1 106.309 509.736 105.066 509.736 103.317C509.736 101.623 511.012 100.358 512.541 100.358C514.257 100.358 515.236 101.656 515.236 103.647H510.583C510.704 104.758 511.485 105.572 512.607 105.572ZM512.574 101.095C511.562 101.095 510.748 101.81 510.594 102.91H514.422C514.312 101.887 513.707 101.095 512.574 101.095ZM520.877 101.601C521.218 100.842 522.032 100.358 523.077 100.358V101.095C521.79 101.095 520.877 101.887 520.877 102.998V106.177H520.052V100.49H520.877V101.601ZM527.011 105.572C527.682 105.572 528.452 105.275 528.804 104.89L529.31 105.429C528.815 105.968 527.814 106.309 527.022 106.309C525.504 106.309 524.14 105.066 524.14 103.317C524.14 101.623 525.416 100.358 526.945 100.358C528.661 100.358 529.64 101.656 529.64 103.647H524.987C525.108 104.758 525.889 105.572 527.011 105.572ZM526.978 101.095C525.966 101.095 525.152 101.81 524.998 102.91H528.826C528.716 101.887 528.111 101.095 526.978 101.095ZM535.472 100.49H536.297V108.069H535.472V105.11C535.043 105.858 534.317 106.309 533.404 106.309C531.908 106.309 530.786 105.077 530.786 103.328C530.786 101.59 531.908 100.358 533.404 100.358C534.317 100.358 535.043 100.809 535.472 101.557V100.49ZM533.558 105.572C534.68 105.572 535.472 104.637 535.472 103.328C535.472 102.019 534.68 101.095 533.558 101.095C532.447 101.095 531.655 102.019 531.655 103.328C531.655 104.637 532.447 105.572 533.558 105.572ZM542.281 100.49H543.106V106.177H542.281V105.275C541.951 105.88 541.225 106.309 540.411 106.309C539.146 106.309 538.277 105.418 538.277 104.109V100.49H539.102V103.999C539.102 104.934 539.685 105.572 540.521 105.572C541.489 105.572 542.281 104.912 542.281 104.109V100.49ZM547.613 105.572C548.284 105.572 549.054 105.275 549.406 104.89L549.912 105.429C549.417 105.968 548.416 106.309 547.624 106.309C546.106 106.309 544.742 105.066 544.742 103.317C544.742 101.623 546.018 100.358 547.547 100.358C549.263 100.358 550.242 101.656 550.242 103.647H545.589C545.71 104.758 546.491 105.572 547.613 105.572ZM547.58 101.095C546.568 101.095 545.754 101.81 545.6 102.91H549.428C549.318 101.887 548.713 101.095 547.58 101.095ZM553.588 106.309C552.796 106.309 551.916 106.012 551.234 105.462L551.663 104.857C552.312 105.33 552.961 105.572 553.588 105.572C554.336 105.572 554.842 105.22 554.842 104.681C554.842 104.065 554.182 103.867 553.412 103.647C552.037 103.251 551.509 102.844 551.509 102.03C551.509 100.996 552.367 100.358 553.5 100.358C554.204 100.358 554.93 100.6 555.535 100.996L555.139 101.634C554.567 101.271 554.006 101.095 553.5 101.095C552.862 101.095 552.334 101.381 552.334 101.931C552.334 102.426 552.752 102.58 553.808 102.921C554.721 103.207 555.667 103.515 555.667 104.593C555.667 105.638 554.765 106.309 553.588 106.309ZM559.481 105.341L559.888 105.946C559.591 106.177 559.217 106.309 558.832 106.309C558.018 106.309 557.446 105.704 557.446 104.857V101.227H556.555V100.49H557.446V98.928H558.271V100.49H559.668V101.227H558.271V104.857C558.271 105.275 558.557 105.572 558.887 105.572C559.14 105.572 559.36 105.473 559.481 105.341ZM563.671 105.572C564.342 105.572 565.112 105.275 565.464 104.89L565.97 105.429C565.475 105.968 564.474 106.309 563.682 106.309C562.164 106.309 560.8 105.066 560.8 103.317C560.8 101.623 562.076 100.358 563.605 100.358C565.321 100.358 566.3 101.656 566.3 103.647H561.647C561.768 104.758 562.549 105.572 563.671 105.572ZM563.638 101.095C562.626 101.095 561.812 101.81 561.658 102.91H565.486C565.376 101.887 564.771 101.095 563.638 101.095ZM572.132 98.488H572.957V106.177H572.132V105.11C571.703 105.858 570.977 106.309 570.064 106.309C568.568 106.309 567.446 105.077 567.446 103.328C567.446 101.59 568.568 100.358 570.064 100.358C570.977 100.358 571.703 100.809 572.132 101.557V98.488ZM570.218 105.572C571.34 105.572 572.132 104.637 572.132 103.328C572.132 102.019 571.34 101.095 570.218 101.095C569.107 101.095 568.315 102.019 568.315 103.328C568.315 104.637 569.107 105.572 570.218 105.572ZM418.158 122.309C416.31 122.309 415.001 120.956 415.001 119.042V114.62H415.859V119.042C415.859 120.494 416.816 121.528 418.158 121.528C419.5 121.528 420.457 120.494 420.457 119.042V114.62H421.315V119.042C421.315 120.956 420.006 122.309 418.158 122.309ZM426.364 116.358C427.86 116.358 428.982 117.59 428.982 119.328C428.982 121.077 427.86 122.309 426.364 122.309C425.451 122.309 424.725 121.858 424.296 121.11V124.069H423.471V116.49H424.296V117.557C424.725 116.809 425.451 116.358 426.364 116.358ZM426.21 121.572C427.321 121.572 428.113 120.637 428.113 119.328C428.113 118.019 427.321 117.095 426.21 117.095C425.088 117.095 424.296 118.019 424.296 119.328C424.296 120.637 425.088 121.572 426.21 121.572ZM430.654 122.177V114.488H431.479V122.177H430.654ZM436.035 122.309C434.418 122.309 433.098 120.967 433.098 119.328C433.098 117.689 434.418 116.358 436.035 116.358C437.641 116.358 438.961 117.689 438.961 119.328C438.961 120.967 437.641 122.309 436.035 122.309ZM436.035 121.572C437.168 121.572 438.103 120.56 438.103 119.328C438.103 118.096 437.168 117.095 436.035 117.095C434.891 117.095 433.956 118.096 433.956 119.328C433.956 120.56 434.891 121.572 436.035 121.572ZM442.617 116.358C444.168 116.358 444.927 117.337 444.927 118.712V122.177H444.102V121.286C443.695 121.957 442.848 122.309 442.1 122.309C440.901 122.309 440.021 121.616 440.021 120.494C440.021 119.361 441.033 118.602 442.254 118.602C442.87 118.602 443.519 118.734 444.102 118.921V118.712C444.102 117.942 443.794 117.062 442.562 117.062C441.99 117.062 441.418 117.315 440.901 117.579L440.571 116.908C441.385 116.501 442.067 116.358 442.617 116.358ZM442.243 121.583C442.991 121.583 443.882 121.198 444.102 120.395V119.526C443.585 119.383 443.002 119.295 442.386 119.295C441.539 119.295 440.824 119.779 440.824 120.461C440.824 121.165 441.44 121.583 442.243 121.583ZM451.151 114.488H451.976V122.177H451.151V121.11C450.722 121.858 449.996 122.309 449.083 122.309C447.587 122.309 446.465 121.077 446.465 119.328C446.465 117.59 447.587 116.358 449.083 116.358C449.996 116.358 450.722 116.809 451.151 117.557V114.488ZM449.237 121.572C450.359 121.572 451.151 120.637 451.151 119.328C451.151 118.019 450.359 117.095 449.237 117.095C448.126 117.095 447.334 118.019 447.334 119.328C447.334 120.637 448.126 121.572 449.237 121.572ZM457.735 115.456C457.427 115.456 457.185 115.203 457.185 114.906C457.185 114.62 457.427 114.367 457.735 114.367C458.032 114.367 458.274 114.62 458.274 114.906C458.274 115.203 458.032 115.456 457.735 115.456ZM457.317 122.177V116.49H458.142V122.177H457.317ZM462.456 121.341L462.863 121.946C462.566 122.177 462.192 122.309 461.807 122.309C460.993 122.309 460.421 121.704 460.421 120.857V117.227H459.53V116.49H460.421V114.928H461.246V116.49H462.643V117.227H461.246V120.857C461.246 121.275 461.532 121.572 461.862 121.572C462.115 121.572 462.335 121.473 462.456 121.341ZM469.678 121.341L470.085 121.946C469.788 122.177 469.414 122.309 469.029 122.309C468.215 122.309 467.643 121.704 467.643 120.857V117.227H466.752V116.49H467.643V114.928H468.468V116.49H469.865V117.227H468.468V120.857C468.468 121.275 468.754 121.572 469.084 121.572C469.337 121.572 469.557 121.473 469.678 121.341ZM473.912 122.309C472.295 122.309 470.975 120.967 470.975 119.328C470.975 117.689 472.295 116.358 473.912 116.358C475.518 116.358 476.838 117.689 476.838 119.328C476.838 120.967 475.518 122.309 473.912 122.309ZM473.912 121.572C475.045 121.572 475.98 120.56 475.98 119.328C475.98 118.096 475.045 117.095 473.912 117.095C472.768 117.095 471.833 118.096 471.833 119.328C471.833 120.56 472.768 121.572 473.912 121.572ZM483.888 121.341L484.295 121.946C483.998 122.177 483.624 122.309 483.239 122.309C482.425 122.309 481.853 121.704 481.853 120.857V117.227H480.962V116.49H481.853V114.928H482.678V116.49H484.075V117.227H482.678V120.857C482.678 121.275 482.964 121.572 483.294 121.572C483.547 121.572 483.767 121.473 483.888 121.341ZM488.375 116.358C489.64 116.358 490.509 117.249 490.509 118.558V122.177H489.684V118.668C489.684 117.733 489.101 117.095 488.265 117.095C487.297 117.095 486.505 117.755 486.505 118.558V122.177H485.68V114.488H486.505V117.392C486.835 116.787 487.561 116.358 488.375 116.358ZM494.884 121.572C495.555 121.572 496.325 121.275 496.677 120.89L497.183 121.429C496.688 121.968 495.687 122.309 494.895 122.309C493.377 122.309 492.013 121.066 492.013 119.317C492.013 117.623 493.289 116.358 494.818 116.358C496.534 116.358 497.513 117.656 497.513 119.647H492.86C492.981 120.758 493.762 121.572 494.884 121.572ZM494.851 117.095C493.839 117.095 493.025 117.81 492.871 118.91H496.699C496.589 117.887 495.984 117.095 494.851 117.095ZM502.571 122.177V114.62H503.429V118.8L507.257 114.62H508.39L505.211 118.074L508.599 122.177H507.488L504.617 118.657L503.429 119.911V122.177H502.571ZM510.247 122.177V114.62H511.105L513.91 119.889L516.715 114.62H517.573V122.177H516.715V116.468L513.91 121.737L511.105 116.468V122.177H510.247ZM522.457 122.298C521.214 122.298 520.235 121.847 519.476 121.099L520.015 120.428C520.653 121.066 521.434 121.517 522.49 121.517C523.656 121.517 524.25 120.879 524.25 120.197C524.25 119.394 523.535 119.075 522.215 118.767C520.697 118.415 519.74 117.942 519.74 116.633C519.74 115.423 520.818 114.488 522.27 114.488C523.392 114.488 524.228 114.928 524.921 115.566L524.393 116.237C523.766 115.632 523.018 115.269 522.226 115.269C521.291 115.269 520.609 115.874 520.609 116.567C520.609 117.348 521.357 117.623 522.644 117.931C524.085 118.272 525.119 118.789 525.119 120.12C525.119 121.319 524.217 122.298 522.457 122.298ZM532.292 121.341L532.699 121.946C532.402 122.177 532.028 122.309 531.643 122.309C530.829 122.309 530.257 121.704 530.257 120.857V117.227H529.366V116.49H530.257V114.928H531.082V116.49H532.479V117.227H531.082V120.857C531.082 121.275 531.368 121.572 531.698 121.572C531.951 121.572 532.171 121.473 532.292 121.341ZM536.526 122.309C534.909 122.309 533.589 120.967 533.589 119.328C533.589 117.689 534.909 116.358 536.526 116.358C538.132 116.358 539.452 117.689 539.452 119.328C539.452 120.967 538.132 122.309 536.526 122.309ZM536.526 121.572C537.659 121.572 538.594 120.56 538.594 119.328C538.594 118.096 537.659 117.095 536.526 117.095C535.382 117.095 534.447 118.096 534.447 119.328C534.447 120.56 535.382 121.572 536.526 121.572ZM546.744 122.309C545.149 122.309 543.796 120.945 543.796 119.328C543.796 117.711 545.149 116.358 546.744 116.358C547.514 116.358 548.229 116.677 548.768 117.194L548.196 117.755C547.822 117.348 547.305 117.095 546.744 117.095C545.611 117.095 544.665 118.118 544.665 119.328C544.665 120.549 545.611 121.572 546.744 121.572C547.316 121.572 547.844 121.308 548.229 120.879L548.801 121.44C548.262 121.979 547.536 122.309 546.744 122.309ZM552.648 122.309C551.031 122.309 549.711 120.967 549.711 119.328C549.711 117.689 551.031 116.358 552.648 116.358C554.254 116.358 555.574 117.689 555.574 119.328C555.574 120.967 554.254 122.309 552.648 122.309ZM552.648 121.572C553.781 121.572 554.716 120.56 554.716 119.328C554.716 118.096 553.781 117.095 552.648 117.095C551.504 117.095 550.569 118.096 550.569 119.328C550.569 120.56 551.504 121.572 552.648 121.572ZM563.344 116.358C564.532 116.358 565.368 117.271 565.368 118.558V122.177H564.543V118.668C564.543 117.744 564.004 117.095 563.234 117.095C562.332 117.095 561.694 117.7 561.694 118.558V122.177H560.869V118.668C560.869 117.744 560.33 117.095 559.56 117.095C558.658 117.095 558.02 117.7 558.02 118.558V122.177H557.195V116.49H558.02V117.326C558.306 116.732 558.922 116.358 559.67 116.358C560.572 116.358 561.276 116.886 561.562 117.711C561.738 116.908 562.442 116.358 563.344 116.358ZM570.246 116.358C571.742 116.358 572.864 117.59 572.864 119.328C572.864 121.077 571.742 122.309 570.246 122.309C569.333 122.309 568.607 121.858 568.178 121.11V124.069H567.353V116.49H568.178V117.557C568.607 116.809 569.333 116.358 570.246 116.358ZM570.092 121.572C571.203 121.572 571.995 120.637 571.995 119.328C571.995 118.019 571.203 117.095 570.092 117.095C568.97 117.095 568.178 118.019 568.178 119.328C568.178 120.637 568.97 121.572 570.092 121.572ZM574.536 122.177V114.488H575.361V122.177H574.536ZM579.873 121.572C580.544 121.572 581.314 121.275 581.666 120.89L582.172 121.429C581.677 121.968 580.676 122.309 579.884 122.309C578.366 122.309 577.002 121.066 577.002 119.317C577.002 117.623 578.278 116.358 579.807 116.358C581.523 116.358 582.502 117.656 582.502 119.647H577.849C577.97 120.758 578.751 121.572 579.873 121.572ZM579.84 117.095C578.828 117.095 578.014 117.81 577.86 118.91H581.688C581.578 117.887 580.973 117.095 579.84 117.095ZM586.288 121.341L586.695 121.946C586.398 122.177 586.024 122.309 585.639 122.309C584.825 122.309 584.253 121.704 584.253 120.857V117.227H583.362V116.49H584.253V114.928H585.078V116.49H586.475V117.227H585.078V120.857C585.078 121.275 585.364 121.572 585.694 121.572C585.947 121.572 586.167 121.473 586.288 121.341ZM590.478 121.572C591.149 121.572 591.919 121.275 592.271 120.89L592.777 121.429C592.282 121.968 591.281 122.309 590.489 122.309C588.971 122.309 587.607 121.066 587.607 119.317C587.607 117.623 588.883 116.358 590.412 116.358C592.128 116.358 593.107 117.656 593.107 119.647H588.454C588.575 120.758 589.356 121.572 590.478 121.572ZM590.445 117.095C589.433 117.095 588.619 117.81 588.465 118.91H592.293C592.183 117.887 591.578 117.095 590.445 117.095ZM417.157 137.341L417.564 137.946C417.267 138.177 416.893 138.309 416.508 138.309C415.694 138.309 415.122 137.704 415.122 136.857V133.227H414.231V132.49H415.122V130.928H415.947V132.49H417.344V133.227H415.947V136.857C415.947 137.275 416.233 137.572 416.563 137.572C416.816 137.572 417.036 137.473 417.157 137.341ZM421.644 132.358C422.909 132.358 423.778 133.249 423.778 134.558V138.177H422.953V134.668C422.953 133.733 422.37 133.095 421.534 133.095C420.566 133.095 419.774 133.755 419.774 134.558V138.177H418.949V130.488H419.774V133.392C420.104 132.787 420.83 132.358 421.644 132.358ZM428.153 137.572C428.824 137.572 429.594 137.275 429.946 136.89L430.452 137.429C429.957 137.968 428.956 138.309 428.164 138.309C426.646 138.309 425.282 137.066 425.282 135.317C425.282 133.623 426.558 132.358 428.087 132.358C429.803 132.358 430.782 133.656 430.782 135.647H426.129C426.25 136.758 427.031 137.572 428.153 137.572ZM428.12 133.095C427.108 133.095 426.294 133.81 426.14 134.91H429.968C429.858 133.887 429.253 133.095 428.12 133.095ZM438.04 138.309C436.445 138.309 435.092 136.945 435.092 135.328C435.092 133.711 436.445 132.358 438.04 132.358C438.81 132.358 439.525 132.677 440.064 133.194L439.492 133.755C439.118 133.348 438.601 133.095 438.04 133.095C436.907 133.095 435.961 134.118 435.961 135.328C435.961 136.549 436.907 137.572 438.04 137.572C438.612 137.572 439.14 137.308 439.525 136.879L440.097 137.44C439.558 137.979 438.832 138.309 438.04 138.309ZM443.944 138.309C442.327 138.309 441.007 136.967 441.007 135.328C441.007 133.689 442.327 132.358 443.944 132.358C445.55 132.358 446.87 133.689 446.87 135.328C446.87 136.967 445.55 138.309 443.944 138.309ZM443.944 137.572C445.077 137.572 446.012 136.56 446.012 135.328C446.012 134.096 445.077 133.095 443.944 133.095C442.8 133.095 441.865 134.096 441.865 135.328C441.865 136.56 442.8 137.572 443.944 137.572ZM451.186 132.358C452.451 132.358 453.32 133.249 453.32 134.558V138.177H452.495V134.668C452.495 133.733 451.912 133.095 451.076 133.095C450.108 133.095 449.316 133.755 449.316 134.558V138.177H448.491V132.49H449.316V133.392C449.646 132.787 450.372 132.358 451.186 132.358ZM457.992 132.358C459.257 132.358 460.126 133.249 460.126 134.558V138.177H459.301V134.668C459.301 133.733 458.718 133.095 457.882 133.095C456.914 133.095 456.122 133.755 456.122 134.558V138.177H455.297V132.49H456.122V133.392C456.452 132.787 457.178 132.358 457.992 132.358ZM464.502 137.572C465.173 137.572 465.943 137.275 466.295 136.89L466.801 137.429C466.306 137.968 465.305 138.309 464.513 138.309C462.995 138.309 461.631 137.066 461.631 135.317C461.631 133.623 462.907 132.358 464.436 132.358C466.152 132.358 467.131 133.656 467.131 135.647H462.478C462.599 136.758 463.38 137.572 464.502 137.572ZM464.469 133.095C463.457 133.095 462.643 133.81 462.489 134.91H466.317C466.207 133.887 465.602 133.095 464.469 133.095ZM471.159 138.309C469.564 138.309 468.211 136.945 468.211 135.328C468.211 133.711 469.564 132.358 471.159 132.358C471.929 132.358 472.644 132.677 473.183 133.194L472.611 133.755C472.237 133.348 471.72 133.095 471.159 133.095C470.026 133.095 469.08 134.118 469.08 135.328C469.08 136.549 470.026 137.572 471.159 137.572C471.731 137.572 472.259 137.308 472.644 136.879L473.216 137.44C472.677 137.979 471.951 138.309 471.159 138.309ZM476.821 137.341L477.228 137.946C476.931 138.177 476.557 138.309 476.172 138.309C475.358 138.309 474.786 137.704 474.786 136.857V133.227H473.895V132.49H474.786V130.928H475.611V132.49H477.008V133.227H475.611V136.857C475.611 137.275 475.897 137.572 476.227 137.572C476.48 137.572 476.7 137.473 476.821 137.341ZM479.031 131.456C478.723 131.456 478.481 131.203 478.481 130.906C478.481 130.62 478.723 130.367 479.031 130.367C479.328 130.367 479.57 130.62 479.57 130.906C479.57 131.203 479.328 131.456 479.031 131.456ZM478.613 138.177V132.49H479.438V138.177H478.613ZM483.994 138.309C482.377 138.309 481.057 136.967 481.057 135.328C481.057 133.689 482.377 132.358 483.994 132.358C485.6 132.358 486.92 133.689 486.92 135.328C486.92 136.967 485.6 138.309 483.994 138.309ZM483.994 137.572C485.127 137.572 486.062 136.56 486.062 135.328C486.062 134.096 485.127 133.095 483.994 133.095C482.85 133.095 481.915 134.096 481.915 135.328C481.915 136.56 482.85 137.572 483.994 137.572ZM491.236 132.358C492.501 132.358 493.37 133.249 493.37 134.558V138.177H492.545V134.668C492.545 133.733 491.962 133.095 491.126 133.095C490.158 133.095 489.366 133.755 489.366 134.558V138.177H488.541V132.49H489.366V133.392C489.696 132.787 490.422 132.358 491.236 132.358ZM496.184 138.309C495.843 138.309 495.579 138.034 495.579 137.704C495.579 137.396 495.843 137.121 496.184 137.121C496.503 137.121 496.767 137.396 496.767 137.704C496.767 138.034 496.503 138.309 496.184 138.309ZM506.409 138.309C506.068 138.309 505.804 138.034 505.804 137.704C505.804 137.396 506.068 137.121 506.409 137.121C506.728 137.121 506.992 137.396 506.992 137.704C506.992 138.034 506.728 138.309 506.409 138.309Z" fill="#565656"/>
<path d="M488.704 154H417.296C415.476 154 414 155.402 414 157.13V174.87C414 176.598 415.476 178 417.296 178H488.704C490.524 178 492 176.598 492 174.87V157.13C492 155.402 490.524 154 488.704 154Z" stroke="#007CBB"/>
<path d="M437.534 170L436.962 168.636H433.31L432.738 170H431.209L434.366 162.443H435.895L439.052 170H437.534ZM433.805 167.448H436.467L435.136 164.269L433.805 167.448ZM443.738 170.132C441.582 170.132 439.767 168.339 439.767 166.216C439.767 164.093 441.582 162.311 443.738 162.311C444.849 162.311 445.861 162.784 446.587 163.532L445.608 164.445C445.146 163.906 444.464 163.565 443.738 163.565C442.341 163.565 441.164 164.775 441.164 166.216C441.164 167.668 442.341 168.878 443.738 168.878C444.475 168.878 445.146 168.537 445.619 167.998L446.587 168.9C445.861 169.659 444.849 170.132 443.738 170.132ZM449.682 170V163.697H447.262V162.443H453.466V163.697H451.046V170H449.682ZM454.663 170V162.443H456.027V170H454.663ZM461.29 170.132C459.134 170.132 457.319 168.339 457.319 166.216C457.319 164.093 459.134 162.311 461.29 162.311C463.435 162.311 465.25 164.093 465.25 166.216C465.25 168.339 463.435 170.132 461.29 170.132ZM461.29 168.878C462.676 168.878 463.842 167.668 463.842 166.216C463.842 164.775 462.676 163.565 461.29 163.565C459.893 163.565 458.716 164.775 458.716 166.216C458.716 167.668 459.893 168.878 461.29 168.878ZM466.61 170V162.443H467.985L471.978 167.756V162.443H473.342V170H471.978L467.985 164.687V170H466.61Z" fill="#007CBB"/>
<path d="M415.727 77.177V69.468H412.789V68.246H419.965V69.468H417.04V77.177H415.727ZM424.707 70.3C426.189 70.3 427.216 71.353 427.216 72.9V77.177H425.968V73.121C425.968 72.107 425.331 71.418 424.421 71.418C423.394 71.418 422.562 72.12 422.562 73.004V77.177H421.275V68.09H422.562V71.444C422.952 70.768 423.784 70.3 424.707 70.3ZM430.371 71.769C430.787 70.872 431.697 70.3 432.867 70.3V71.418C431.385 71.418 430.371 72.302 430.371 73.602V77.177H429.084V70.456H430.371V71.769ZM437.203 76.267C437.931 76.267 438.776 75.942 439.192 75.5L439.946 76.293C439.361 76.93 438.178 77.333 437.229 77.333C435.37 77.333 433.758 75.864 433.758 73.797C433.758 71.782 435.279 70.3 437.138 70.3C439.192 70.3 440.388 71.834 440.388 74.226H435.019C435.175 75.409 436.007 76.267 437.203 76.267ZM437.164 71.366C436.085 71.366 435.227 72.12 435.032 73.277H439.14C439.01 72.198 438.334 71.366 437.164 71.366ZM444.72 76.267C445.448 76.267 446.293 75.942 446.709 75.5L447.463 76.293C446.878 76.93 445.695 77.333 444.746 77.333C442.887 77.333 441.275 75.864 441.275 73.797C441.275 71.782 442.796 70.3 444.655 70.3C446.709 70.3 447.905 71.834 447.905 74.226H442.536C442.692 75.409 443.524 76.267 444.72 76.267ZM444.681 71.366C443.602 71.366 442.744 72.12 442.549 73.277H446.657C446.527 72.198 445.851 71.366 444.681 71.366ZM457.772 68.09H459.059V77.177H457.772V76.033C457.252 76.839 456.42 77.333 455.393 77.333C453.612 77.333 452.299 75.877 452.299 73.81C452.299 71.756 453.612 70.3 455.393 70.3C456.42 70.3 457.252 70.794 457.772 71.6V68.09ZM455.692 76.215C456.914 76.215 457.772 75.214 457.772 73.81C457.772 72.406 456.914 71.418 455.692 71.418C454.47 71.418 453.599 72.406 453.599 73.81C453.599 75.214 454.47 76.215 455.692 76.215ZM463.607 70.3C465.414 70.3 466.415 71.444 466.415 73.108V77.177H465.154V76.267C464.66 76.956 463.75 77.333 462.918 77.333C461.501 77.333 460.435 76.501 460.435 75.188C460.435 73.849 461.644 72.952 463.126 72.952C463.789 72.952 464.504 73.095 465.154 73.316V73.108C465.154 72.263 464.764 71.366 463.425 71.366C462.762 71.366 462.125 71.626 461.54 71.925L461.059 70.976C462.021 70.495 462.866 70.3 463.607 70.3ZM463.178 76.319C464.01 76.319 464.933 75.903 465.154 75.071V74.174C464.595 74.005 463.984 73.914 463.321 73.914C462.424 73.914 461.67 74.421 461.67 75.149C461.67 75.877 462.32 76.319 463.178 76.319ZM469.155 79.517C468.7 79.517 468.232 79.413 467.881 79.231L468.167 78.243C468.427 78.386 468.726 78.451 468.986 78.451C469.402 78.451 469.688 78.321 469.909 77.931L470.247 77.216L467.361 70.456H468.739L470.897 75.76L472.938 70.456H474.277L471.313 77.788C470.832 78.997 470.117 79.504 469.155 79.517ZM477.592 77.333C476.604 77.333 475.538 76.982 474.732 76.332L475.317 75.448C476.058 75.994 476.864 76.293 477.605 76.293C478.411 76.293 478.918 75.929 478.918 75.383C478.918 74.746 478.216 74.538 477.358 74.304C475.824 73.875 475.044 73.433 475.044 72.341C475.044 71.106 476.071 70.3 477.488 70.3C478.359 70.3 479.256 70.599 479.971 71.08L479.438 71.99C478.775 71.574 478.099 71.34 477.488 71.34C476.812 71.34 476.266 71.639 476.266 72.198C476.266 72.718 476.721 72.874 477.865 73.225C478.97 73.55 480.14 73.914 480.14 75.253C480.14 76.527 479.074 77.333 477.592 77.333ZM487.62 70.3C489.427 70.3 490.428 71.444 490.428 73.108V77.177H489.167V76.267C488.673 76.956 487.763 77.333 486.931 77.333C485.514 77.333 484.448 76.501 484.448 75.188C484.448 73.849 485.657 72.952 487.139 72.952C487.802 72.952 488.517 73.095 489.167 73.316V73.108C489.167 72.263 488.777 71.366 487.438 71.366C486.775 71.366 486.138 71.626 485.553 71.925L485.072 70.976C486.034 70.495 486.879 70.3 487.62 70.3ZM487.191 76.319C488.023 76.319 488.946 75.903 489.167 75.071V74.174C488.608 74.005 487.997 73.914 487.334 73.914C486.437 73.914 485.683 74.421 485.683 75.149C485.683 75.877 486.333 76.319 487.191 76.319ZM497.185 70.456H498.472V76.462C498.472 78.191 497.055 79.413 495.066 79.413C493.935 79.413 492.895 79.036 492.258 78.516L492.765 77.554C493.259 78.022 494.065 78.295 494.884 78.295C496.314 78.295 497.185 77.606 497.185 76.436V75.461C496.652 76.228 495.82 76.683 494.819 76.683C493.038 76.683 491.751 75.357 491.751 73.485C491.751 71.613 493.038 70.3 494.819 70.3C495.82 70.3 496.678 70.768 497.185 71.522V70.456ZM495.131 75.565C496.34 75.565 497.185 74.707 497.185 73.485C497.185 72.276 496.34 71.418 495.131 71.418C493.948 71.418 493.09 72.276 493.09 73.485C493.09 74.707 493.948 75.565 495.131 75.565ZM503.464 77.333C501.527 77.333 499.928 75.747 499.928 73.81C499.928 71.873 501.527 70.3 503.464 70.3C505.401 70.3 507 71.873 507 73.81C507 75.747 505.401 77.333 503.464 77.333ZM503.464 76.215C504.699 76.215 505.713 75.136 505.713 73.81C505.713 72.484 504.699 71.418 503.464 71.418C502.229 71.418 501.215 72.484 501.215 73.81C501.215 75.136 502.229 76.215 503.464 76.215Z" fill="#737373"/>
</svg>
