<svg width="200" height="48" viewBox="0 0 200 48" fill="none" xmlns="http://www.w3.org/2000/svg">
<path d="M13.304 40.156C10.834 40.156 8.728 38.037 8.728 35.528C8.728 33.019 10.834 30.913 13.304 30.913C14.539 30.913 15.683 31.433 16.515 32.278L15.826 32.98C15.176 32.291 14.279 31.849 13.304 31.849C11.38 31.849 9.755 33.539 9.755 35.528C9.755 37.53 11.38 39.22 13.304 39.22C14.279 39.22 15.176 38.778 15.826 38.089L16.515 38.791C15.683 39.623 14.539 40.156 13.304 40.156ZM18.032 40V30.913H19.007V40H18.032ZM23.5743 33.123C25.4073 33.123 26.3043 34.28 26.3043 35.905V40H25.3293V38.947C24.8483 39.74 23.8473 40.156 22.9633 40.156C21.5463 40.156 20.5063 39.337 20.5063 38.011C20.5063 36.672 21.7023 35.775 23.1453 35.775C23.8733 35.775 24.6403 35.931 25.3293 36.152V35.905C25.3293 34.995 24.9653 33.955 23.5093 33.955C22.8333 33.955 22.1573 34.254 21.5463 34.566L21.1563 33.773C22.1183 33.292 22.9243 33.123 23.5743 33.123ZM23.1323 39.298C24.0163 39.298 25.0693 38.843 25.3293 37.894V36.867C24.7183 36.698 24.0293 36.594 23.3013 36.594C22.3003 36.594 21.4553 37.166 21.4553 37.972C21.4553 38.804 22.1833 39.298 23.1323 39.298ZM29.2806 34.592C29.6836 33.695 30.6456 33.123 31.8806 33.123V33.994C30.3596 33.994 29.2806 34.93 29.2806 36.243V40H28.3056V33.279H29.2806V34.592ZM33.8539 32.057C33.4899 32.057 33.2039 31.758 33.2039 31.407C33.2039 31.069 33.4899 30.77 33.8539 30.77C34.2049 30.77 34.4909 31.069 34.4909 31.407C34.4909 31.758 34.2049 32.057 33.8539 32.057ZM33.3599 40V33.279H34.3349V40H33.3599ZM39.0972 39.012L39.5782 39.727C39.2272 40 38.7852 40.156 38.3302 40.156C37.3682 40.156 36.6922 39.441 36.6922 38.44V34.15H35.6392V33.279H36.6922V31.433H37.6672V33.279H39.3182V34.15H37.6672V38.44C37.6672 38.934 38.0052 39.285 38.3952 39.285C38.6942 39.285 38.9542 39.168 39.0972 39.012ZM41.4637 42.34C41.0737 42.34 40.7097 42.262 40.3977 42.119L40.6317 41.287C40.8657 41.404 41.1387 41.456 41.4247 41.456C41.8537 41.456 42.1397 41.313 42.3997 40.858L42.7897 40.026L39.8647 33.279H40.9437L43.2967 38.869L45.5197 33.279H46.5727L43.5047 40.754C43.0367 41.898 42.3867 42.327 41.4637 42.34ZM47.7354 41.846V40.975H55.4834V41.846H47.7354ZM60.0319 33.123C61.8649 33.123 62.7619 34.28 62.7619 35.905V40H61.7869V38.947C61.3059 39.74 60.3049 40.156 59.4209 40.156C58.0039 40.156 56.9639 39.337 56.9639 38.011C56.9639 36.672 58.1599 35.775 59.6029 35.775C60.3309 35.775 61.0979 35.931 61.7869 36.152V35.905C61.7869 34.995 61.4229 33.955 59.9669 33.955C59.2909 33.955 58.6149 34.254 58.0039 34.566L57.6139 33.773C58.5759 33.292 59.3819 33.123 60.0319 33.123ZM59.5899 39.298C60.4739 39.298 61.5269 38.843 61.7869 37.894V36.867C61.1759 36.698 60.4869 36.594 59.7589 36.594C58.7579 36.594 57.9129 37.166 57.9129 37.972C57.9129 38.804 58.6409 39.298 59.5899 39.298ZM69.7812 30.913H70.7562V40H69.7812V38.739C69.2742 39.623 68.4162 40.156 67.3372 40.156C65.5692 40.156 64.2432 38.7 64.2432 36.633C64.2432 34.579 65.5692 33.123 67.3372 33.123C68.4162 33.123 69.2742 33.656 69.7812 34.54V30.913ZM67.5192 39.285C68.8452 39.285 69.7812 38.18 69.7812 36.633C69.7812 35.086 68.8452 33.994 67.5192 33.994C66.2062 33.994 65.2702 35.086 65.2702 36.633C65.2702 38.18 66.2062 39.285 67.5192 39.285ZM80.1822 33.123C81.5862 33.123 82.5742 34.202 82.5742 35.723V40H81.5992V35.853C81.5992 34.761 80.9622 33.994 80.0522 33.994C78.9862 33.994 78.2322 34.709 78.2322 35.723V40H77.2572V35.853C77.2572 34.761 76.6202 33.994 75.7102 33.994C74.6442 33.994 73.8902 34.709 73.8902 35.723V40H72.9152V33.279H73.8902V34.267C74.2282 33.565 74.9562 33.123 75.8402 33.123C76.9062 33.123 77.7382 33.747 78.0762 34.722C78.2842 33.773 79.1162 33.123 80.1822 33.123ZM85.0777 32.057C84.7137 32.057 84.4277 31.758 84.4277 31.407C84.4277 31.069 84.7137 30.77 85.0777 30.77C85.4287 30.77 85.7147 31.069 85.7147 31.407C85.7147 31.758 85.4287 32.057 85.0777 32.057ZM84.5837 40V33.279H85.5587V40H84.5837ZM90.906 33.123C92.401 33.123 93.428 34.176 93.428 35.723V40H92.453V35.853C92.453 34.748 91.764 33.994 90.776 33.994C89.632 33.994 88.696 34.774 88.696 35.723V40H87.721V33.279H88.696V34.345C89.086 33.63 89.944 33.123 90.906 33.123Z" fill="#E3EAED"/>
<path d="M200 46H0V50H200V46Z" fill="#2EC0FF" mask="url(#path-1-inside-1_9328_50997)"/>
<path d="M4.953 12.156C2.652 12.156 1.014 10.518 1.014 8.191V3.069H2.639V8.139C2.639 9.621 3.601 10.687 4.953 10.687C6.318 10.687 7.28 9.621 7.28 8.139V3.069H8.892V8.191C8.892 10.518 7.267 12.156 4.953 12.156ZM13.1173 12.156C12.0903 12.156 10.9853 11.792 10.1663 11.155L10.8423 10.115C11.5703 10.635 12.4153 10.934 13.1433 10.934C13.8583 10.934 14.2873 10.635 14.2873 10.167C14.2873 9.634 13.6633 9.452 12.8703 9.244C11.4013 8.854 10.4783 8.451 10.4783 7.229C10.4783 5.981 11.5183 5.123 13.0133 5.123C13.9363 5.123 14.8463 5.448 15.5873 5.929L14.9633 6.995C14.3393 6.592 13.6373 6.332 13.0133 6.332C12.4283 6.332 11.9603 6.605 11.9603 7.073C11.9603 7.515 12.3763 7.632 13.3903 7.944C14.5343 8.256 15.7563 8.633 15.7563 10.024C15.7563 11.324 14.6773 12.156 13.1173 12.156ZM20.1042 10.882C20.7802 10.882 21.5472 10.596 21.9762 10.18L22.8862 11.116C22.3012 11.74 21.1312 12.156 20.1562 12.156C18.2192 12.156 16.6202 10.687 16.6202 8.62C16.6202 6.592 18.1412 5.123 20.0652 5.123C22.1452 5.123 23.3672 6.657 23.3672 9.101H18.1542C18.3232 10.154 19.0642 10.882 20.1042 10.882ZM20.0782 6.397C19.1162 6.397 18.3752 7.047 18.1672 8.048H21.8332C21.6902 7.099 21.0922 6.397 20.0782 6.397ZM26.2681 6.553C26.6971 5.682 27.5811 5.123 28.6731 5.123V6.475C27.2301 6.475 26.2681 7.333 26.2681 8.607V12H24.6821V5.279H26.2681V6.553ZM33.6817 5.123C35.1637 5.123 36.1907 6.189 36.1907 7.723V12H34.6437V8.035C34.6437 7.112 34.0717 6.475 33.2397 6.475C32.3297 6.475 31.6017 7.112 31.6017 7.931V12H30.0157V5.279H31.6017V6.189C32.0047 5.552 32.7847 5.123 33.6817 5.123ZM40.6175 5.123C42.3985 5.123 43.4905 6.254 43.4905 7.957V12H41.9435V11.207C41.4495 11.818 40.6175 12.156 39.8375 12.156C38.4075 12.156 37.3415 11.311 37.3415 10.011C37.3415 8.685 38.5505 7.775 40.0715 7.775C40.6825 7.775 41.3325 7.905 41.9435 8.126V7.957C41.9435 7.177 41.5275 6.423 40.3055 6.423C39.6685 6.423 39.0575 6.644 38.4855 6.93L37.9395 5.825C38.8885 5.357 39.7725 5.123 40.6175 5.123ZM40.1885 10.999C40.9555 10.999 41.7745 10.609 41.9435 9.894V9.127C41.4495 8.971 40.8905 8.88 40.3055 8.88C39.5125 8.88 38.8625 9.322 38.8625 9.959C38.8625 10.596 39.4345 10.999 40.1885 10.999ZM53.0018 5.123C54.4058 5.123 55.4588 6.202 55.4588 7.723V12H53.9118V7.983C53.9118 7.099 53.3788 6.475 52.6118 6.475C51.7408 6.475 51.1298 7.06 51.1298 7.879V12H49.5958V7.983C49.5958 7.099 49.0498 6.475 48.2828 6.475C47.4248 6.475 46.8138 7.06 46.8138 7.879V12H45.2278V5.279H46.8138V6.189C47.1518 5.539 47.8408 5.123 48.6858 5.123C49.7518 5.123 50.6098 5.747 50.9608 6.722C51.1428 5.76 51.9488 5.123 53.0018 5.123ZM60.1657 10.882C60.8417 10.882 61.6087 10.596 62.0377 10.18L62.9477 11.116C62.3627 11.74 61.1927 12.156 60.2177 12.156C58.2807 12.156 56.6817 10.687 56.6817 8.62C56.6817 6.592 58.2027 5.123 60.1267 5.123C62.2067 5.123 63.4287 6.657 63.4287 9.101H58.2157C58.3847 10.154 59.1257 10.882 60.1657 10.882ZM60.1397 6.397C59.1777 6.397 58.4367 7.047 58.2287 8.048H61.8947C61.7517 7.099 61.1537 6.397 60.1397 6.397Z" fill="#E3EAED"/>
</svg>
