<svg width="189" height="41" viewBox="0 0 189 41" fill="none" xmlns="http://www.w3.org/2000/svg">
<path d="M61.121 16.143C59.652 16.143 58.495 15.61 57.598 14.726L58.235 13.933C58.989 14.687 59.912 15.22 61.16 15.22C62.538 15.22 63.24 14.466 63.24 13.66C63.24 12.711 62.395 12.334 60.835 11.97C59.041 11.554 57.91 10.995 57.91 9.448C57.91 8.018 59.184 6.913 60.9 6.913C62.226 6.913 63.214 7.433 64.033 8.187L63.409 8.98C62.668 8.265 61.784 7.836 60.848 7.836C59.743 7.836 58.937 8.551 58.937 9.37C58.937 10.293 59.821 10.618 61.342 10.982C63.045 11.385 64.267 11.996 64.267 13.569C64.267 14.986 63.201 16.143 61.121 16.143ZM68.396 9.123C70.229 9.123 71.126 10.28 71.126 11.905V16H70.151V14.947C69.67 15.74 68.669 16.156 67.785 16.156C66.368 16.156 65.328 15.337 65.328 14.011C65.328 12.672 66.524 11.775 67.967 11.775C68.695 11.775 69.462 11.931 70.151 12.152V11.905C70.151 10.995 69.787 9.955 68.331 9.955C67.655 9.955 66.979 10.254 66.368 10.566L65.978 9.773C66.94 9.292 67.746 9.123 68.396 9.123ZM67.954 15.298C68.838 15.298 69.891 14.843 70.151 13.894V12.867C69.54 12.698 68.851 12.594 68.123 12.594C67.122 12.594 66.277 13.166 66.277 13.972C66.277 14.804 67.005 15.298 67.954 15.298ZM80.3943 9.123C81.7983 9.123 82.7863 10.202 82.7863 11.723V16H81.8113V11.853C81.8113 10.761 81.1743 9.994 80.2643 9.994C79.1983 9.994 78.4443 10.709 78.4443 11.723V16H77.4693V11.853C77.4693 10.761 76.8323 9.994 75.9223 9.994C74.8563 9.994 74.1023 10.709 74.1023 11.723V16H73.1273V9.279H74.1023V10.267C74.4403 9.565 75.1683 9.123 76.0523 9.123C77.1183 9.123 77.9503 9.747 78.2883 10.722C78.4963 9.773 79.3283 9.123 80.3943 9.123ZM88.2148 9.123C89.9828 9.123 91.3088 10.579 91.3088 12.633C91.3088 14.7 89.9828 16.156 88.2148 16.156C87.1358 16.156 86.2778 15.623 85.7708 14.739V18.236H84.7958V9.279H85.7708V10.54C86.2778 9.656 87.1358 9.123 88.2148 9.123ZM88.0328 15.285C89.3458 15.285 90.2818 14.18 90.2818 12.633C90.2818 11.086 89.3458 9.994 88.0328 9.994C86.7068 9.994 85.7708 11.086 85.7708 12.633C85.7708 14.18 86.7068 15.285 88.0328 15.285ZM92.9478 16V6.913H93.9228V16H92.9478ZM98.9191 15.285C99.7121 15.285 100.622 14.934 101.038 14.479L101.636 15.116C101.051 15.753 99.8681 16.156 98.9321 16.156C97.1381 16.156 95.5261 14.687 95.5261 12.62C95.5261 10.618 97.0341 9.123 98.8411 9.123C100.869 9.123 102.026 10.657 102.026 13.01H96.5271C96.6701 14.323 97.5931 15.285 98.9191 15.285ZM98.8801 9.994C97.6841 9.994 96.7221 10.839 96.5401 12.139H101.064C100.934 10.93 100.219 9.994 98.8801 9.994ZM109.644 15.012L110.125 15.727C109.774 16 109.332 16.156 108.877 16.156C107.915 16.156 107.239 15.441 107.239 14.44V10.15H106.186V9.279H107.239V7.433H108.214V9.279H109.865V10.15H108.214V14.44C108.214 14.934 108.552 15.285 108.942 15.285C109.241 15.285 109.501 15.168 109.644 15.012ZM114.26 15.285C115.053 15.285 115.963 14.934 116.379 14.479L116.977 15.116C116.392 15.753 115.209 16.156 114.273 16.156C112.479 16.156 110.867 14.687 110.867 12.62C110.867 10.618 112.375 9.123 114.182 9.123C116.21 9.123 117.367 10.657 117.367 13.01H111.868C112.011 14.323 112.934 15.285 114.26 15.285ZM114.221 9.994C113.025 9.994 112.063 10.839 111.881 12.139H116.405C116.275 10.93 115.56 9.994 114.221 9.994ZM124.261 16H123.117L121.102 13.322L119.074 16H117.93L120.53 12.568L118.034 9.279H119.178L121.102 11.814L123.013 9.279H124.157L121.674 12.568L124.261 16ZM128.044 15.012L128.525 15.727C128.174 16 127.732 16.156 127.277 16.156C126.315 16.156 125.639 15.441 125.639 14.44V10.15H124.586V9.279H125.639V7.433H126.614V9.279H128.265V10.15H126.614V14.44C126.614 14.934 126.952 15.285 127.342 15.285C127.641 15.285 127.901 15.168 128.044 15.012Z" fill="#ACB8BE"/>
<path d="M189 23H49V25H189V23Z" fill="#CBD4D8" mask="url(#path-1-inside-1_10026_2818)"/>
<path d="M50.199 39V31.443H51.057L53.862 36.712L56.667 31.443H57.525V39H56.667V33.291L53.862 38.56L51.057 33.291V39H50.199ZM62.2767 38.395C62.9477 38.395 63.7177 38.098 64.0697 37.713L64.5757 38.252C64.0807 38.791 63.0797 39.132 62.2877 39.132C60.7697 39.132 59.4057 37.889 59.4057 36.14C59.4057 34.446 60.6817 33.181 62.2107 33.181C63.9267 33.181 64.9057 34.479 64.9057 36.47H60.2527C60.3737 37.581 61.1547 38.395 62.2767 38.395ZM62.2437 33.918C61.2317 33.918 60.4177 34.633 60.2637 35.733H64.0917C63.9817 34.71 63.3767 33.918 62.2437 33.918ZM68.2518 39.132C67.4598 39.132 66.5798 38.835 65.8978 38.285L66.3268 37.68C66.9758 38.153 67.6248 38.395 68.2518 38.395C68.9998 38.395 69.5058 38.043 69.5058 37.504C69.5058 36.888 68.8458 36.69 68.0758 36.47C66.7008 36.074 66.1728 35.667 66.1728 34.853C66.1728 33.819 67.0308 33.181 68.1638 33.181C68.8678 33.181 69.5938 33.423 70.1988 33.819L69.8028 34.457C69.2308 34.094 68.6698 33.918 68.1638 33.918C67.5258 33.918 66.9978 34.204 66.9978 34.754C66.9978 35.249 67.4158 35.403 68.4718 35.744C69.3848 36.03 70.3308 36.338 70.3308 37.416C70.3308 38.461 69.4288 39.132 68.2518 39.132ZM73.7047 39.132C72.9127 39.132 72.0327 38.835 71.3507 38.285L71.7797 37.68C72.4287 38.153 73.0777 38.395 73.7047 38.395C74.4527 38.395 74.9587 38.043 74.9587 37.504C74.9587 36.888 74.2987 36.69 73.5287 36.47C72.1537 36.074 71.6257 35.667 71.6257 34.853C71.6257 33.819 72.4837 33.181 73.6167 33.181C74.3207 33.181 75.0467 33.423 75.6517 33.819L75.2557 34.457C74.6837 34.094 74.1227 33.918 73.6167 33.918C72.9787 33.918 72.4507 34.204 72.4507 34.754C72.4507 35.249 72.8687 35.403 73.9247 35.744C74.8377 36.03 75.7837 36.338 75.7837 37.416C75.7837 38.461 74.8817 39.132 73.7047 39.132ZM79.4326 33.181C80.9836 33.181 81.7426 34.16 81.7426 35.535V39H80.9176V38.109C80.5106 38.78 79.6636 39.132 78.9156 39.132C77.7166 39.132 76.8366 38.439 76.8366 37.317C76.8366 36.184 77.8486 35.425 79.0696 35.425C79.6856 35.425 80.3346 35.557 80.9176 35.744V35.535C80.9176 34.765 80.6096 33.885 79.3776 33.885C78.8056 33.885 78.2336 34.138 77.7166 34.402L77.3866 33.731C78.2006 33.324 78.8826 33.181 79.4326 33.181ZM79.0586 38.406C79.8066 38.406 80.6976 38.021 80.9176 37.218V36.349C80.4006 36.206 79.8176 36.118 79.2016 36.118C78.3546 36.118 77.6396 36.602 77.6396 37.284C77.6396 37.988 78.2556 38.406 79.0586 38.406ZM87.9117 33.313H88.7367V38.395C88.7367 39.858 87.5817 40.892 85.9427 40.892C85.0187 40.892 84.1607 40.573 83.6437 40.133L84.0067 39.484C84.4467 39.902 85.1287 40.155 85.8327 40.155C87.1417 40.155 87.9117 39.506 87.9117 38.395V37.471C87.4717 38.164 86.7457 38.582 85.8437 38.582C84.3147 38.582 83.2257 37.46 83.2257 35.876C83.2257 34.292 84.3147 33.181 85.8437 33.181C86.7457 33.181 87.4717 33.599 87.9117 34.292V33.313ZM85.9977 37.845C87.1197 37.845 87.9117 37.031 87.9117 35.876C87.9117 34.732 87.1197 33.918 85.9977 33.918C84.8867 33.918 84.0947 34.732 84.0947 35.876C84.0947 37.031 84.8867 37.845 85.9977 37.845ZM93.2474 38.395C93.9184 38.395 94.6884 38.098 95.0404 37.713L95.5464 38.252C95.0514 38.791 94.0504 39.132 93.2584 39.132C91.7404 39.132 90.3764 37.889 90.3764 36.14C90.3764 34.446 91.6524 33.181 93.1814 33.181C94.8974 33.181 95.8764 34.479 95.8764 36.47H91.2234C91.3444 37.581 92.1254 38.395 93.2474 38.395ZM93.2144 33.918C92.2024 33.918 91.3884 34.633 91.2344 35.733H95.0624C94.9524 34.71 94.3474 33.918 93.2144 33.918ZM102.892 38.164L103.299 38.769C103.002 39 102.628 39.132 102.243 39.132C101.429 39.132 100.857 38.527 100.857 37.68V34.05H99.9658V33.313H100.857V31.751H101.682V33.313H103.079V34.05H101.682V37.68C101.682 38.098 101.968 38.395 102.298 38.395C102.551 38.395 102.771 38.296 102.892 38.164ZM107.082 38.395C107.753 38.395 108.523 38.098 108.875 37.713L109.381 38.252C108.886 38.791 107.885 39.132 107.093 39.132C105.575 39.132 104.211 37.889 104.211 36.14C104.211 34.446 105.487 33.181 107.016 33.181C108.732 33.181 109.711 34.479 109.711 36.47H105.058C105.179 37.581 105.96 38.395 107.082 38.395ZM107.049 33.918C106.037 33.918 105.223 34.633 105.069 35.733H108.897C108.787 34.71 108.182 33.918 107.049 33.918ZM115.829 39H114.861L113.156 36.734L111.44 39H110.472L112.672 36.096L110.56 33.313H111.528L113.156 35.458L114.773 33.313H115.741L113.64 36.096L115.829 39ZM119.315 38.164L119.722 38.769C119.425 39 119.051 39.132 118.666 39.132C117.852 39.132 117.28 38.527 117.28 37.68V34.05H116.389V33.313H117.28V31.751H118.105V33.313H119.502V34.05H118.105V37.68C118.105 38.098 118.391 38.395 118.721 38.395C118.974 38.395 119.194 38.296 119.315 38.164Z" fill="#CBD4D8"/>
<path d="M2.847 24.518H7.436V26H1.235V17.069H2.847V24.518ZM11.3866 19.123C13.1676 19.123 14.2596 20.254 14.2596 21.957V26H12.7126V25.207C12.2186 25.818 11.3866 26.156 10.6066 26.156C9.17662 26.156 8.11062 25.311 8.11062 24.011C8.11062 22.685 9.31962 21.775 10.8406 21.775C11.4516 21.775 12.1016 21.905 12.7126 22.126V21.957C12.7126 21.177 12.2966 20.423 11.0746 20.423C10.4376 20.423 9.82662 20.644 9.25462 20.93L8.70862 19.825C9.65762 19.357 10.5416 19.123 11.3866 19.123ZM10.9576 24.999C11.7246 24.999 12.5436 24.609 12.7126 23.894V23.127C12.2186 22.971 11.6596 22.88 11.0746 22.88C10.2816 22.88 9.63162 23.322 9.63162 23.959C9.63162 24.596 10.2036 24.999 10.9576 24.999ZM19.962 19.123C21.743 19.123 23.056 20.579 23.056 22.633C23.056 24.7 21.743 26.156 19.962 26.156C18.935 26.156 18.103 25.675 17.583 24.856V26H15.997V16.913H17.583V20.41C18.103 19.604 18.935 19.123 19.962 19.123ZM19.533 24.804C20.677 24.804 21.483 23.894 21.483 22.633C21.483 21.372 20.677 20.475 19.533 20.475C18.428 20.475 17.635 21.372 17.635 22.633C17.635 23.894 18.428 24.804 19.533 24.804ZM27.4563 24.882C28.1323 24.882 28.8993 24.596 29.3283 24.18L30.2383 25.116C29.6533 25.74 28.4833 26.156 27.5083 26.156C25.5713 26.156 23.9723 24.687 23.9723 22.62C23.9723 20.592 25.4933 19.123 27.4173 19.123C29.4973 19.123 30.7193 20.657 30.7193 23.101H25.5063C25.6753 24.154 26.4163 24.882 27.4563 24.882ZM27.4303 20.397C26.4683 20.397 25.7273 21.047 25.5193 22.048H29.1853C29.0423 21.099 28.4443 20.397 27.4303 20.397ZM32.0343 26V16.913H33.6203V26H32.0343Z" fill="#E3EAED"/>
</svg>
