<svg width="224" height="65" viewBox="0 0 224 65" fill="none" xmlns="http://www.w3.org/2000/svg">
<path d="M12.121 40.143C10.652 40.143 9.495 39.61 8.598 38.726L9.235 37.933C9.989 38.687 10.912 39.22 12.16 39.22C13.538 39.22 14.24 38.466 14.24 37.66C14.24 36.711 13.395 36.334 11.835 35.97C10.041 35.554 8.91 34.995 8.91 33.448C8.91 32.018 10.184 30.913 11.9 30.913C13.226 30.913 14.214 31.433 15.033 32.187L14.409 32.98C13.668 32.265 12.784 31.836 11.848 31.836C10.743 31.836 9.937 32.551 9.937 33.37C9.937 34.293 10.821 34.618 12.342 34.982C14.045 35.385 15.267 35.996 15.267 37.569C15.267 38.986 14.201 40.143 12.121 40.143ZM19.396 33.123C21.229 33.123 22.126 34.28 22.126 35.905V40H21.151V38.947C20.67 39.74 19.669 40.156 18.785 40.156C17.368 40.156 16.328 39.337 16.328 38.011C16.328 36.672 17.524 35.775 18.967 35.775C19.695 35.775 20.462 35.931 21.151 36.152V35.905C21.151 34.995 20.787 33.955 19.331 33.955C18.655 33.955 17.979 34.254 17.368 34.566L16.978 33.773C17.94 33.292 18.746 33.123 19.396 33.123ZM18.954 39.298C19.838 39.298 20.891 38.843 21.151 37.894V36.867C20.54 36.698 19.851 36.594 19.123 36.594C18.122 36.594 17.277 37.166 17.277 37.972C17.277 38.804 18.005 39.298 18.954 39.298ZM31.3943 33.123C32.7983 33.123 33.7863 34.202 33.7863 35.723V40H32.8113V35.853C32.8113 34.761 32.1743 33.994 31.2643 33.994C30.1983 33.994 29.4443 34.709 29.4443 35.723V40H28.4693V35.853C28.4693 34.761 27.8323 33.994 26.9223 33.994C25.8563 33.994 25.1023 34.709 25.1023 35.723V40H24.1273V33.279H25.1023V34.267C25.4403 33.565 26.1683 33.123 27.0523 33.123C28.1183 33.123 28.9503 33.747 29.2883 34.722C29.4963 33.773 30.3283 33.123 31.3943 33.123ZM39.2148 33.123C40.9828 33.123 42.3088 34.579 42.3088 36.633C42.3088 38.7 40.9828 40.156 39.2148 40.156C38.1358 40.156 37.2778 39.623 36.7708 38.739V42.236H35.7958V33.279H36.7708V34.54C37.2778 33.656 38.1358 33.123 39.2148 33.123ZM39.0328 39.285C40.3458 39.285 41.2818 38.18 41.2818 36.633C41.2818 35.086 40.3458 33.994 39.0328 33.994C37.7068 33.994 36.7708 35.086 36.7708 36.633C36.7708 38.18 37.7068 39.285 39.0328 39.285ZM43.9478 40V30.913H44.9228V40H43.9478ZM49.9191 39.285C50.7121 39.285 51.6221 38.934 52.0381 38.479L52.6361 39.116C52.0511 39.753 50.8681 40.156 49.9321 40.156C48.1381 40.156 46.5261 38.687 46.5261 36.62C46.5261 34.618 48.0341 33.123 49.8411 33.123C51.8691 33.123 53.0261 34.657 53.0261 37.01H47.5271C47.6701 38.323 48.5931 39.285 49.9191 39.285ZM49.8801 33.994C48.6841 33.994 47.7221 34.839 47.5401 36.139H52.0641C51.9341 34.93 51.2191 33.994 49.8801 33.994ZM60.6443 39.012L61.1253 39.727C60.7743 40 60.3323 40.156 59.8773 40.156C58.9153 40.156 58.2393 39.441 58.2393 38.44V34.15H57.1863V33.279H58.2393V31.433H59.2143V33.279H60.8653V34.15H59.2143V38.44C59.2143 38.934 59.5523 39.285 59.9423 39.285C60.2413 39.285 60.5013 39.168 60.6443 39.012ZM65.2597 39.285C66.0527 39.285 66.9627 38.934 67.3787 38.479L67.9767 39.116C67.3917 39.753 66.2087 40.156 65.2727 40.156C63.4787 40.156 61.8667 38.687 61.8667 36.62C61.8667 34.618 63.3747 33.123 65.1817 33.123C67.2097 33.123 68.3667 34.657 68.3667 37.01H62.8677C63.0107 38.323 63.9337 39.285 65.2597 39.285ZM65.2207 33.994C64.0247 33.994 63.0627 34.839 62.8807 36.139H67.4047C67.2747 34.93 66.5597 33.994 65.2207 33.994ZM75.2608 40H74.1168L72.1018 37.322L70.0738 40H68.9298L71.5298 36.568L69.0338 33.279H70.1778L72.1018 35.814L74.0128 33.279H75.1568L72.6738 36.568L75.2608 40ZM79.0445 39.012L79.5255 39.727C79.1745 40 78.7325 40.156 78.2775 40.156C77.3155 40.156 76.6395 39.441 76.6395 38.44V34.15H75.5865V33.279H76.6395V31.433H77.6145V33.279H79.2655V34.15H77.6145V38.44C77.6145 38.934 77.9525 39.285 78.3425 39.285C78.6415 39.285 78.9015 39.168 79.0445 39.012Z" fill="#E3EAED"/>
<path d="M200 47H0V49H200V47Z" fill="#FF674C" mask="url(#path-1-inside-1_9328_50998)"/>
<path fill-rule="evenodd" clip-rule="evenodd" d="M204 36C204 31.5817 207.582 28 212 28C214.122 28 216.157 28.8429 217.657 30.3431C219.157 31.8434 220 33.8783 220 36C220 40.4183 216.418 44 212 44C207.582 44 204 40.4183 204 36ZM211.133 36.5133C211.133 36.992 211.521 37.38 212 37.38C212.479 37.38 212.867 36.992 212.867 36.5133V32.5133C212.867 32.0347 212.479 31.6467 212 31.6467C211.521 31.6467 211.133 32.0347 211.133 32.5133V36.5133ZM212 42.6667C208.318 42.6667 205.333 39.6819 205.333 36C205.333 32.3181 208.318 29.3333 212 29.3333C215.682 29.3333 218.667 32.3181 218.667 36C218.667 37.7681 217.964 39.4638 216.714 40.714C215.464 41.9643 213.768 42.6667 212 42.6667ZM212.967 39.3467C212.967 39.899 212.519 40.3467 211.967 40.3467C211.414 40.3467 210.967 39.899 210.967 39.3467C210.967 38.7944 211.414 38.3467 211.967 38.3467C212.519 38.3467 212.967 38.7944 212.967 39.3467Z" fill="#FF674C"/>
<path d="M4.158 63.132C2.31 63.132 1.001 61.779 1.001 59.865V55.443H1.859V59.865C1.859 61.317 2.816 62.351 4.158 62.351C5.5 62.351 6.457 61.317 6.457 59.865V55.443H7.315V59.865C7.315 61.779 6.006 63.132 4.158 63.132ZM11.2315 63.132C10.4395 63.132 9.55945 62.835 8.87745 62.285L9.30645 61.68C9.95545 62.153 10.6045 62.395 11.2315 62.395C11.9795 62.395 12.4855 62.043 12.4855 61.504C12.4855 60.888 11.8255 60.69 11.0555 60.47C9.68045 60.074 9.15245 59.667 9.15245 58.853C9.15245 57.819 10.0105 57.181 11.1435 57.181C11.8475 57.181 12.5735 57.423 13.1785 57.819L12.7825 58.457C12.2105 58.094 11.6495 57.918 11.1435 57.918C10.5055 57.918 9.97745 58.204 9.97745 58.754C9.97745 59.249 10.3955 59.403 11.4515 59.744C12.3645 60.03 13.3105 60.338 13.3105 61.416C13.3105 62.461 12.4085 63.132 11.2315 63.132ZM17.3224 62.395C17.9934 62.395 18.7634 62.098 19.1154 61.713L19.6214 62.252C19.1264 62.791 18.1254 63.132 17.3334 63.132C15.8154 63.132 14.4514 61.889 14.4514 60.14C14.4514 58.446 15.7274 57.181 17.2564 57.181C18.9724 57.181 19.9514 58.479 19.9514 60.47H15.2984C15.4194 61.581 16.2004 62.395 17.3224 62.395ZM17.2894 57.918C16.2774 57.918 15.4634 58.633 15.3094 59.733H19.1374C19.0274 58.71 18.4224 57.918 17.2894 57.918ZM22.3625 58.424C22.7035 57.665 23.5175 57.181 24.5625 57.181V57.918C23.2755 57.918 22.3625 58.71 22.3625 59.821V63H21.5375V57.313H22.3625V58.424ZM28.7938 57.181C30.0588 57.181 30.9278 58.072 30.9278 59.381V63H30.1028V59.491C30.1028 58.556 29.5198 57.918 28.6838 57.918C27.7158 57.918 26.9238 58.578 26.9238 59.381V63H26.0988V57.313H26.9238V58.215C27.2538 57.61 27.9798 57.181 28.7938 57.181ZM34.9402 57.181C36.4912 57.181 37.2502 58.16 37.2502 59.535V63H36.4252V62.109C36.0182 62.78 35.1712 63.132 34.4232 63.132C33.2242 63.132 32.3442 62.439 32.3442 61.317C32.3442 60.184 33.3562 59.425 34.5772 59.425C35.1932 59.425 35.8422 59.557 36.4252 59.744V59.535C36.4252 58.765 36.1172 57.885 34.8852 57.885C34.3132 57.885 33.7412 58.138 33.2242 58.402L32.8942 57.731C33.7082 57.324 34.3902 57.181 34.9402 57.181ZM34.5662 62.406C35.3142 62.406 36.2052 62.021 36.4252 61.218V60.349C35.9082 60.206 35.3252 60.118 34.7092 60.118C33.8622 60.118 33.1472 60.602 33.1472 61.284C33.1472 61.988 33.7632 62.406 34.5662 62.406ZM45.3773 57.181C46.5653 57.181 47.4013 58.094 47.4013 59.381V63H46.5763V59.491C46.5763 58.567 46.0373 57.918 45.2673 57.918C44.3653 57.918 43.7273 58.523 43.7273 59.381V63H42.9023V59.491C42.9023 58.567 42.3633 57.918 41.5933 57.918C40.6913 57.918 40.0533 58.523 40.0533 59.381V63H39.2283V57.313H40.0533V58.149C40.3393 57.555 40.9553 57.181 41.7033 57.181C42.6053 57.181 43.3093 57.709 43.5953 58.534C43.7713 57.731 44.4753 57.181 45.3773 57.181ZM51.7843 62.395C52.4553 62.395 53.2253 62.098 53.5773 61.713L54.0833 62.252C53.5883 62.791 52.5873 63.132 51.7953 63.132C50.2773 63.132 48.9133 61.889 48.9133 60.14C48.9133 58.446 50.1893 57.181 51.7183 57.181C53.4343 57.181 54.4133 58.479 54.4133 60.47H49.7603C49.8813 61.581 50.6623 62.395 51.7843 62.395ZM51.7513 57.918C50.7393 57.918 49.9253 58.633 49.7713 59.733H53.5993C53.4893 58.71 52.8843 57.918 51.7513 57.918ZM61.2637 57.181C62.8147 57.181 63.5737 58.16 63.5737 59.535V63H62.7487V62.109C62.3417 62.78 61.4947 63.132 60.7467 63.132C59.5477 63.132 58.6677 62.439 58.6677 61.317C58.6677 60.184 59.6797 59.425 60.9007 59.425C61.5167 59.425 62.1657 59.557 62.7487 59.744V59.535C62.7487 58.765 62.4407 57.885 61.2087 57.885C60.6367 57.885 60.0647 58.138 59.5477 58.402L59.2177 57.731C60.0317 57.324 60.7137 57.181 61.2637 57.181ZM60.8897 62.406C61.6377 62.406 62.5287 62.021 62.7487 61.218V60.349C62.2317 60.206 61.6487 60.118 61.0327 60.118C60.1857 60.118 59.4707 60.602 59.4707 61.284C59.4707 61.988 60.0867 62.406 60.8897 62.406ZM65.5517 63V55.311H66.3767V63H65.5517ZM69.316 58.424C69.657 57.665 70.471 57.181 71.516 57.181V57.918C70.229 57.918 69.316 58.71 69.316 59.821V63H68.491V57.313H69.316V58.424ZM75.4503 62.395C76.1213 62.395 76.8913 62.098 77.2433 61.713L77.7493 62.252C77.2543 62.791 76.2533 63.132 75.4613 63.132C73.9433 63.132 72.5793 61.889 72.5793 60.14C72.5793 58.446 73.8553 57.181 75.3843 57.181C77.1003 57.181 78.0793 58.479 78.0793 60.47H73.4263C73.5473 61.581 74.3283 62.395 75.4503 62.395ZM75.4173 57.918C74.4053 57.918 73.5913 58.633 73.4373 59.733H77.2653C77.1553 58.71 76.5503 57.918 75.4173 57.918ZM81.7004 57.181C83.2514 57.181 84.0104 58.16 84.0104 59.535V63H83.1854V62.109C82.7784 62.78 81.9314 63.132 81.1834 63.132C79.9844 63.132 79.1044 62.439 79.1044 61.317C79.1044 60.184 80.1164 59.425 81.3374 59.425C81.9534 59.425 82.6024 59.557 83.1854 59.744V59.535C83.1854 58.765 82.8774 57.885 81.6454 57.885C81.0734 57.885 80.5014 58.138 79.9844 58.402L79.6544 57.731C80.4684 57.324 81.1504 57.181 81.7004 57.181ZM81.3264 62.406C82.0744 62.406 82.9654 62.021 83.1854 61.218V60.349C82.6684 60.206 82.0854 60.118 81.4694 60.118C80.6224 60.118 79.9074 60.602 79.9074 61.284C79.9074 61.988 80.5234 62.406 81.3264 62.406ZM90.2344 55.311H91.0594V63H90.2344V61.933C89.8054 62.681 89.0794 63.132 88.1664 63.132C86.6704 63.132 85.5484 61.9 85.5484 60.151C85.5484 58.413 86.6704 57.181 88.1664 57.181C89.0794 57.181 89.8054 57.632 90.2344 58.38V55.311ZM88.3204 62.395C89.4424 62.395 90.2344 61.46 90.2344 60.151C90.2344 58.842 89.4424 57.918 88.3204 57.918C87.2094 57.918 86.4174 58.842 86.4174 60.151C86.4174 61.46 87.2094 62.395 88.3204 62.395ZM93.6659 64.98C93.3359 64.98 93.0279 64.914 92.7639 64.793L92.9619 64.089C93.1599 64.188 93.3909 64.232 93.6329 64.232C93.9959 64.232 94.2379 64.111 94.4579 63.726L94.7879 63.022L92.3129 57.313H93.2259L95.2169 62.043L97.0979 57.313H97.9889L95.3929 63.638C94.9969 64.606 94.4469 64.969 93.6659 64.98ZM104.896 62.395C105.567 62.395 106.337 62.098 106.689 61.713L107.195 62.252C106.7 62.791 105.699 63.132 104.907 63.132C103.389 63.132 102.025 61.889 102.025 60.14C102.025 58.446 103.301 57.181 104.83 57.181C106.546 57.181 107.525 58.479 107.525 60.47H102.872C102.993 61.581 103.774 62.395 104.896 62.395ZM104.863 57.918C103.851 57.918 103.037 58.633 102.883 59.733H106.711C106.601 58.71 105.996 57.918 104.863 57.918ZM113.643 63H112.675L110.97 60.734L109.254 63H108.286L110.486 60.096L108.374 57.313H109.342L110.97 59.458L112.587 57.313H113.555L111.454 60.096L113.643 63ZM115.347 56.279C115.039 56.279 114.797 56.026 114.797 55.729C114.797 55.443 115.039 55.19 115.347 55.19C115.644 55.19 115.886 55.443 115.886 55.729C115.886 56.026 115.644 56.279 115.347 56.279ZM114.929 63V57.313H115.754V63H114.929ZM119.628 63.132C118.836 63.132 117.956 62.835 117.274 62.285L117.703 61.68C118.352 62.153 119.001 62.395 119.628 62.395C120.376 62.395 120.882 62.043 120.882 61.504C120.882 60.888 120.222 60.69 119.452 60.47C118.077 60.074 117.549 59.667 117.549 58.853C117.549 57.819 118.407 57.181 119.54 57.181C120.244 57.181 120.97 57.423 121.575 57.819L121.179 58.457C120.607 58.094 120.046 57.918 119.54 57.918C118.902 57.918 118.374 58.204 118.374 58.754C118.374 59.249 118.792 59.403 119.848 59.744C120.761 60.03 121.707 60.338 121.707 61.416C121.707 62.461 120.805 63.132 119.628 63.132ZM125.521 62.164L125.928 62.769C125.631 63 125.257 63.132 124.872 63.132C124.058 63.132 123.486 62.527 123.486 61.68V58.05H122.595V57.313H123.486V55.751H124.311V57.313H125.708V58.05H124.311V61.68C124.311 62.098 124.597 62.395 124.927 62.395C125.18 62.395 125.4 62.296 125.521 62.164ZM129.073 63.132C128.281 63.132 127.401 62.835 126.719 62.285L127.148 61.68C127.797 62.153 128.446 62.395 129.073 62.395C129.821 62.395 130.327 62.043 130.327 61.504C130.327 60.888 129.667 60.69 128.897 60.47C127.522 60.074 126.994 59.667 126.994 58.853C126.994 57.819 127.852 57.181 128.985 57.181C129.689 57.181 130.415 57.423 131.02 57.819L130.624 58.457C130.052 58.094 129.491 57.918 128.985 57.918C128.347 57.918 127.819 58.204 127.819 58.754C127.819 59.249 128.237 59.403 129.293 59.744C130.206 60.03 131.152 60.338 131.152 61.416C131.152 62.461 130.25 63.132 129.073 63.132Z" fill="#FF674C"/>
<path d="M4.953 12.156C2.652 12.156 1.014 10.518 1.014 8.191V3.069H2.639V8.139C2.639 9.621 3.601 10.687 4.953 10.687C6.318 10.687 7.28 9.621 7.28 8.139V3.069H8.892V8.191C8.892 10.518 7.267 12.156 4.953 12.156ZM13.1173 12.156C12.0903 12.156 10.9853 11.792 10.1663 11.155L10.8423 10.115C11.5703 10.635 12.4153 10.934 13.1433 10.934C13.8583 10.934 14.2873 10.635 14.2873 10.167C14.2873 9.634 13.6633 9.452 12.8703 9.244C11.4013 8.854 10.4783 8.451 10.4783 7.229C10.4783 5.981 11.5183 5.123 13.0133 5.123C13.9363 5.123 14.8463 5.448 15.5873 5.929L14.9633 6.995C14.3393 6.592 13.6373 6.332 13.0133 6.332C12.4283 6.332 11.9603 6.605 11.9603 7.073C11.9603 7.515 12.3763 7.632 13.3903 7.944C14.5343 8.256 15.7563 8.633 15.7563 10.024C15.7563 11.324 14.6773 12.156 13.1173 12.156ZM20.1042 10.882C20.7802 10.882 21.5472 10.596 21.9762 10.18L22.8862 11.116C22.3012 11.74 21.1312 12.156 20.1562 12.156C18.2192 12.156 16.6202 10.687 16.6202 8.62C16.6202 6.592 18.1412 5.123 20.0652 5.123C22.1452 5.123 23.3672 6.657 23.3672 9.101H18.1542C18.3232 10.154 19.0642 10.882 20.1042 10.882ZM20.0782 6.397C19.1162 6.397 18.3752 7.047 18.1672 8.048H21.8332C21.6902 7.099 21.0922 6.397 20.0782 6.397ZM26.2681 6.553C26.6971 5.682 27.5811 5.123 28.6731 5.123V6.475C27.2301 6.475 26.2681 7.333 26.2681 8.607V12H24.6821V5.279H26.2681V6.553ZM33.6817 5.123C35.1637 5.123 36.1907 6.189 36.1907 7.723V12H34.6437V8.035C34.6437 7.112 34.0717 6.475 33.2397 6.475C32.3297 6.475 31.6017 7.112 31.6017 7.931V12H30.0157V5.279H31.6017V6.189C32.0047 5.552 32.7847 5.123 33.6817 5.123ZM40.6175 5.123C42.3985 5.123 43.4905 6.254 43.4905 7.957V12H41.9435V11.207C41.4495 11.818 40.6175 12.156 39.8375 12.156C38.4075 12.156 37.3415 11.311 37.3415 10.011C37.3415 8.685 38.5505 7.775 40.0715 7.775C40.6825 7.775 41.3325 7.905 41.9435 8.126V7.957C41.9435 7.177 41.5275 6.423 40.3055 6.423C39.6685 6.423 39.0575 6.644 38.4855 6.93L37.9395 5.825C38.8885 5.357 39.7725 5.123 40.6175 5.123ZM40.1885 10.999C40.9555 10.999 41.7745 10.609 41.9435 9.894V9.127C41.4495 8.971 40.8905 8.88 40.3055 8.88C39.5125 8.88 38.8625 9.322 38.8625 9.959C38.8625 10.596 39.4345 10.999 40.1885 10.999ZM53.0018 5.123C54.4058 5.123 55.4588 6.202 55.4588 7.723V12H53.9118V7.983C53.9118 7.099 53.3788 6.475 52.6118 6.475C51.7408 6.475 51.1298 7.06 51.1298 7.879V12H49.5958V7.983C49.5958 7.099 49.0498 6.475 48.2828 6.475C47.4248 6.475 46.8138 7.06 46.8138 7.879V12H45.2278V5.279H46.8138V6.189C47.1518 5.539 47.8408 5.123 48.6858 5.123C49.7518 5.123 50.6098 5.747 50.9608 6.722C51.1428 5.76 51.9488 5.123 53.0018 5.123ZM60.1657 10.882C60.8417 10.882 61.6087 10.596 62.0377 10.18L62.9477 11.116C62.3627 11.74 61.1927 12.156 60.2177 12.156C58.2807 12.156 56.6817 10.687 56.6817 8.62C56.6817 6.592 58.2027 5.123 60.1267 5.123C62.2067 5.123 63.4287 6.657 63.4287 9.101H58.2157C58.3847 10.154 59.1257 10.882 60.1657 10.882ZM60.1397 6.397C59.1777 6.397 58.4367 7.047 58.2287 8.048H61.8947C61.7517 7.099 61.1537 6.397 60.1397 6.397Z" fill="#E3EAED"/>
</svg>
