<svg width="432" height="152" viewBox="0 0 432 152" fill="none" xmlns="http://www.w3.org/2000/svg">
<g filter="url(#filter0_d_10442_5818)">
<rect x="4" width="424" height="144" rx="4" fill="#22343C"/>
<rect x="4.5" y="0.5" width="423" height="143" rx="3.5" stroke="#67777E"/>
</g>
<path d="M29.4 31L28.644 29.18H24.052L23.296 31H21.35L25.368 21.382H27.314L31.332 31H29.4ZM24.654 27.752H28.042L26.348 23.706L24.654 27.752ZM35.9597 31.168C33.8597 31.168 32.0817 29.432 32.0817 27.374C32.0817 25.316 33.8597 23.594 35.9737 23.594C37.0797 23.594 38.0317 24.056 38.7177 24.77L37.5697 25.778C37.1777 25.344 36.5757 25.05 35.9597 25.05C34.7697 25.05 33.7757 26.114 33.7757 27.374C33.7757 28.648 34.7697 29.712 35.9597 29.712C36.5897 29.712 37.2057 29.418 37.6117 28.956L38.7597 29.95C38.0597 30.692 37.0937 31.168 35.9597 31.168ZM43.4082 29.446L43.8982 30.594C43.4922 30.944 42.9042 31.168 42.3442 31.168C41.1542 31.168 40.3142 30.3 40.3142 29.082V25.176H39.2642V23.762H40.3142V21.774H41.9662V23.762H43.6042V25.176H41.9662V28.872C41.9662 29.362 42.2882 29.712 42.6942 29.712C42.9882 29.712 43.2542 29.6 43.4082 29.446ZM46.0516 22.67C45.5056 22.67 45.0716 22.208 45.0716 21.69C45.0716 21.172 45.5056 20.724 46.0516 20.724C46.5836 20.724 47.0176 21.172 47.0176 21.69C47.0176 22.208 46.5836 22.67 46.0516 22.67ZM45.1976 31V23.762H46.9056V31H45.1976ZM51.1514 31L48.0294 23.762H49.8494L51.9494 29.026L54.0074 23.762H55.8134L52.7474 31H51.1514ZM59.8448 23.594C61.7628 23.594 62.9388 24.812 62.9388 26.646V31H61.2728V30.146C60.7408 30.804 59.8448 31.168 59.0048 31.168C57.4648 31.168 56.3168 30.258 56.3168 28.858C56.3168 27.43 57.6188 26.45 59.2568 26.45C59.9148 26.45 60.6148 26.59 61.2728 26.828V26.646C61.2728 25.806 60.8248 24.994 59.5088 24.994C58.8228 24.994 58.1648 25.232 57.5488 25.54L56.9608 24.35C57.9828 23.846 58.9348 23.594 59.8448 23.594ZM59.3828 29.922C60.2088 29.922 61.0908 29.502 61.2728 28.732V27.906C60.7408 27.738 60.1388 27.64 59.5088 27.64C58.6548 27.64 57.9548 28.116 57.9548 28.802C57.9548 29.488 58.5708 29.922 59.3828 29.922ZM68.2055 29.446L68.6955 30.594C68.2895 30.944 67.7015 31.168 67.1415 31.168C65.9515 31.168 65.1115 30.3 65.1115 29.082V25.176H64.0615V23.762H65.1115V21.774H66.7635V23.762H68.4015V25.176H66.7635V28.872C66.7635 29.362 67.0855 29.712 67.4915 29.712C67.7855 29.712 68.0515 29.6 68.2055 29.446ZM70.8489 22.67C70.3029 22.67 69.8689 22.208 69.8689 21.69C69.8689 21.172 70.3029 20.724 70.8489 20.724C71.3809 20.724 71.8149 21.172 71.8149 21.69C71.8149 22.208 71.3809 22.67 70.8489 22.67ZM69.9949 31V23.762L71.7029 23.762V31H69.9949ZM77.6847 23.594C79.2807 23.594 80.3867 24.742 80.3867 26.394V31H78.7207V26.73C78.7207 25.736 78.1047 25.05 77.2087 25.05C76.2287 25.05 75.4447 25.736 75.4447 26.618V31H73.7367V23.762H75.4447V24.742C75.8787 24.056 76.7187 23.594 77.6847 23.594ZM87.4436 23.762L89.1656 23.762V30.23C89.1656 32.092 87.5976 33.408 85.3856 33.408C84.1396 33.408 82.9776 33.002 82.2776 32.442L82.9076 31.196C83.4116 31.658 84.2656 31.952 85.1196 31.952C86.5476 31.952 87.4436 31.266 87.4436 30.174V29.25C86.8696 30.02 85.9876 30.468 84.9656 30.468C83.1036 30.468 81.7176 29.04 81.7176 27.024C81.7176 25.008 83.1036 23.594 84.9656 23.594C86.0016 23.594 86.9256 24.07 87.4436 24.826V23.762ZM85.4556 29.012C86.6176 29.012 87.4436 28.186 87.4436 27.024C87.4436 25.876 86.6176 25.05 85.4556 25.05C84.3076 25.05 83.4816 25.876 83.4816 27.024C83.4816 28.186 84.3076 29.012 85.4556 29.012ZM102.238 31L101.482 29.18L96.8895 29.18L96.1335 31H94.1875L98.2055 21.382H100.152L104.17 31H102.238ZM97.4915 27.752L100.88 27.752L99.1855 23.706L97.4915 27.752ZM110.827 21.214H112.535V31H110.827V29.852C110.267 30.678 109.385 31.168 108.321 31.168C106.389 31.168 104.989 29.6 104.989 27.374C104.989 25.162 106.389 23.594 108.321 23.594C109.385 23.594 110.267 24.084 110.827 24.896V21.214ZM108.769 29.712C109.973 29.712 110.813 28.732 110.813 27.374C110.813 26.016 109.973 25.05 108.769 25.05C107.551 25.05 106.683 26.016 106.683 27.374C106.683 28.732 107.551 29.712 108.769 29.712ZM119.915 21.214H121.623V31H119.915V29.852C119.355 30.678 118.473 31.168 117.409 31.168C115.477 31.168 114.077 29.6 114.077 27.374C114.077 25.162 115.477 23.594 117.409 23.594C118.473 23.594 119.355 24.084 119.915 24.896V21.214ZM117.857 29.712C119.061 29.712 119.901 28.732 119.901 27.374C119.901 26.016 119.061 25.05 117.857 25.05C116.639 25.05 115.771 26.016 115.771 27.374C115.771 28.732 116.639 29.712 117.857 29.712ZM123.64 27.906V26.408H127.406V27.906L123.64 27.906ZM132.751 31.168C130.609 31.168 128.859 29.46 128.859 27.374C128.859 25.288 130.609 23.594 132.751 23.594C134.879 23.594 136.615 25.288 136.615 27.374C136.615 29.46 134.879 31.168 132.751 31.168ZM132.751 29.712C133.955 29.712 134.949 28.662 134.949 27.374C134.949 26.086 133.955 25.05 132.751 25.05C131.533 25.05 130.539 26.086 130.539 27.374C130.539 28.662 131.533 29.712 132.751 29.712ZM142.045 23.594C143.641 23.594 144.747 24.742 144.747 26.394V31H143.081V26.73C143.081 25.736 142.465 25.05 141.569 25.05C140.589 25.05 139.805 25.736 139.805 26.618V31H138.097V23.762H139.805V24.742C140.239 24.056 141.079 23.594 142.045 23.594Z" fill="white"/>
<path d="M155 30.12C153.91 30.12 153.08 29.68 152.5 29.04L153.13 28.32C153.65 28.87 154.29 29.23 155.02 29.23C155.91 29.23 156.52 28.63 156.52 27.86C156.52 27.07 155.9 26.54 155.01 26.54C154.44 26.54 153.96 26.73 153.55 27.04L152.84 26.72L152.94 23.13H157.16V24.07H153.9L153.84 26.11C154.2 25.87 154.66 25.67 155.26 25.67C156.5 25.67 157.53 26.45 157.53 27.82C157.53 29.21 156.48 30.12 155 30.12ZM168.37 24.71C169.45 24.71 170.23 25.54 170.23 26.71V30H169.27V26.86C169.27 26.1 168.81 25.57 168.17 25.57C167.43 25.57 166.9 26.06 166.9 26.77V30H165.93V26.86C165.93 26.1 165.48 25.57 164.84 25.57C164.09 25.57 163.57 26.06 163.57 26.77V30L162.58 30V24.83H163.57V25.57C163.83 25.04 164.37 24.71 165.04 24.71C165.86 24.71 166.51 25.19 166.77 25.94C166.93 25.21 167.56 24.71 168.37 24.71ZM172.74 23.97C172.41 23.97 172.14 23.69 172.14 23.37C172.14 23.06 172.41 22.78 172.74 22.78C173.07 22.78 173.33 23.06 173.33 23.37C173.33 23.69 173.07 23.97 172.74 23.97ZM172.24 30V24.83L173.23 24.83V30H172.24ZM177.987 24.71C179.127 24.71 179.917 25.52 179.917 26.71V30H178.957V26.88C178.957 26.1 178.467 25.57 177.767 25.57C176.977 25.57 176.337 26.11 176.337 26.79V30H175.347V24.83H176.337V25.59C176.637 25.07 177.277 24.71 177.987 24.71ZM185.401 24.83H186.391V30H185.401V29.26C185.091 29.77 184.461 30.12 183.751 30.12C182.611 30.12 181.821 29.31 181.821 28.12V24.83H182.791V27.95C182.791 28.73 183.281 29.26 183.981 29.26C184.771 29.26 185.401 28.72 185.401 28.04V24.83ZM190.735 29.07L191.105 29.75C190.825 29.98 190.435 30.12 190.065 30.12C189.265 30.12 188.705 29.54 188.705 28.71V25.67H187.935V24.83H188.705V23.41L189.675 23.41V24.83H190.895V25.67L189.675 25.67V28.64C189.675 29 189.925 29.26 190.215 29.26C190.435 29.26 190.635 29.18 190.735 29.07ZM194.888 29.3C195.448 29.3 196.098 29.05 196.418 28.71L196.998 29.32C196.548 29.81 195.638 30.12 194.908 30.12C193.478 30.12 192.238 28.99 192.238 27.4C192.238 25.85 193.408 24.71 194.838 24.71C196.418 24.71 197.338 25.89 197.338 27.73H193.208C193.328 28.64 193.968 29.3 194.888 29.3ZM194.858 25.53C194.028 25.53 193.368 26.11 193.218 27H196.378C196.278 26.17 195.758 25.53 194.858 25.53ZM200.698 30.12C199.938 30.12 199.118 29.85 198.498 29.35L198.948 28.67C199.518 29.09 200.138 29.32 200.708 29.32C201.328 29.32 201.718 29.04 201.718 28.62C201.718 28.13 201.178 27.97 200.518 27.79C199.338 27.46 198.738 27.12 198.738 26.28C198.738 25.33 199.528 24.71 200.618 24.71C201.288 24.71 201.978 24.94 202.528 25.31L202.118 26.01C201.608 25.69 201.088 25.51 200.618 25.51C200.098 25.51 199.678 25.74 199.678 26.17C199.678 26.57 200.028 26.69 200.908 26.96C201.758 27.21 202.658 27.49 202.658 28.52C202.658 29.5 201.838 30.12 200.698 30.12ZM207.605 30V23.01H208.595V30H207.605ZM212.962 29.3C213.522 29.3 214.172 29.05 214.492 28.71L215.072 29.32C214.622 29.81 213.712 30.12 212.982 30.12C211.552 30.12 210.312 28.99 210.312 27.4C210.312 25.85 211.482 24.71 212.912 24.71C214.492 24.71 215.412 25.89 215.412 27.73H211.282C211.402 28.64 212.042 29.3 212.962 29.3ZM212.932 25.53C212.102 25.53 211.442 26.11 211.292 27H214.452C214.352 26.17 213.832 25.53 212.932 25.53ZM218.252 24.26V24.83L219.472 24.83V25.67H218.252V30H217.282V25.67H216.502V24.83H217.282V24.21C217.282 23.38 217.842 22.8 218.642 22.8C219.012 22.8 219.392 22.94 219.672 23.17L219.312 23.83C219.202 23.72 219.002 23.64 218.782 23.64C218.492 23.64 218.252 23.9 218.252 24.26ZM223.122 29.07L223.492 29.75C223.212 29.98 222.822 30.12 222.452 30.12C221.652 30.12 221.092 29.54 221.092 28.71V25.67H220.322V24.83H221.092V23.41H222.062V24.83H223.282V25.67H222.062V28.64C222.062 29 222.312 29.26 222.602 29.26C222.822 29.26 223.022 29.18 223.122 29.07Z" fill="#ACB8BE"/>
<path d="M409.12 24.9915L404 30.2893L398.88 24.9915C398.59 24.6908 398.599 24.2123 398.9 23.9226C399.201 23.633 399.679 23.642 399.969 23.9426L404 28.116L408.036 23.9426C408.325 23.642 408.804 23.633 409.104 23.9226C409.405 24.2123 409.414 24.6908 409.124 24.9915H409.12Z" fill="#F1F6F8"/>
<path fill-rule="evenodd" clip-rule="evenodd" d="M21.1777 45H372.808V57H21.1777V45Z" fill="#2D4048"/>
<path fill-rule="evenodd" clip-rule="evenodd" d="M21.1777 45H158.072V57H21.1777V45Z" fill="#2EC0FF"/>
<path d="M385.92 55.168C384.338 55.168 383.12 54.44 382.42 53.516L383.176 52.802C383.806 53.614 384.744 54.174 385.92 54.174C387.264 54.174 388.16 53.432 388.16 52.34C388.16 51.206 387.194 50.632 385.682 50.632H384.66V49.624L385.696 49.638C386.984 49.652 387.95 49.036 387.95 47.944C387.95 46.936 387.026 46.208 385.822 46.208C384.758 46.208 384.002 46.74 383.316 47.566L382.588 46.908C383.316 45.942 384.38 45.214 385.878 45.214C387.712 45.214 389.056 46.278 389.056 47.818C389.056 49.05 388.188 49.778 387.194 50.072C388.174 50.296 389.266 51.01 389.266 52.396C389.266 54.006 387.922 55.168 385.92 55.168ZM394.892 55.168C392.54 55.168 390.888 53.11 390.888 50.184C390.888 47.272 392.54 45.214 394.892 45.214C397.23 45.214 398.882 47.272 398.882 50.184C398.882 53.11 397.23 55.168 394.892 55.168ZM394.892 54.16C396.586 54.16 397.776 52.508 397.776 50.184C397.776 47.86 396.586 46.222 394.892 46.222C393.198 46.222 391.994 47.86 391.994 50.184C391.994 52.508 393.198 54.16 394.892 54.16ZM402.736 50.114C401.406 50.114 400.51 49.036 400.51 47.734C400.51 46.348 401.448 45.298 402.75 45.298C404.08 45.298 404.976 46.376 404.976 47.706C404.976 49.064 404.052 50.114 402.736 50.114ZM401.686 55L408.266 45.382H409.33L402.75 55H401.686ZM402.75 49.358C403.534 49.358 404.094 48.658 404.094 47.72C404.094 46.768 403.52 46.054 402.736 46.054C401.952 46.054 401.392 46.754 401.392 47.72C401.392 48.644 401.98 49.358 402.75 49.358ZM408.224 55.14C406.936 55.14 405.998 54.104 405.998 52.732C405.998 51.416 406.908 50.324 408.238 50.324C409.568 50.324 410.464 51.416 410.464 52.718C410.464 54.09 409.526 55.14 408.224 55.14ZM408.238 54.384C409.036 54.384 409.582 53.684 409.582 52.732C409.582 51.794 409.008 51.08 408.224 51.08C407.426 51.08 406.88 51.808 406.88 52.718C406.88 53.67 407.44 54.384 408.238 54.384Z" fill="#ACB8BE"/>
<path d="M29.4 87L28.644 85.18H24.052L23.296 87H21.35L25.368 77.382H27.314L31.332 87H29.4ZM24.654 83.752H28.042L26.348 79.706L24.654 83.752ZM35.9597 87.168C33.8597 87.168 32.0817 85.432 32.0817 83.374C32.0817 81.316 33.8597 79.594 35.9737 79.594C37.0797 79.594 38.0317 80.056 38.7177 80.77L37.5697 81.778C37.1777 81.344 36.5757 81.05 35.9597 81.05C34.7697 81.05 33.7757 82.114 33.7757 83.374C33.7757 84.648 34.7697 85.712 35.9597 85.712C36.5897 85.712 37.2057 85.418 37.6117 84.956L38.7597 85.95C38.0597 86.692 37.0937 87.168 35.9597 87.168ZM43.4082 85.446L43.8982 86.594C43.4922 86.944 42.9042 87.168 42.3442 87.168C41.1542 87.168 40.3142 86.3 40.3142 85.082V81.176H39.2642V79.762H40.3142V77.774H41.9662V79.762H43.6042V81.176H41.9662V84.872C41.9662 85.362 42.2882 85.712 42.6942 85.712C42.9882 85.712 43.2542 85.6 43.4082 85.446ZM46.0516 78.67C45.5056 78.67 45.0716 78.208 45.0716 77.69C45.0716 77.172 45.5056 76.724 46.0516 76.724C46.5836 76.724 47.0176 77.172 47.0176 77.69C47.0176 78.208 46.5836 78.67 46.0516 78.67ZM45.1976 87V79.762H46.9056V87H45.1976ZM51.1514 87L48.0294 79.762H49.8494L51.9494 85.026L54.0074 79.762H55.8134L52.7474 87H51.1514ZM59.8448 79.594C61.7628 79.594 62.9388 80.812 62.9388 82.646V87H61.2728V86.146C60.7408 86.804 59.8448 87.168 59.0048 87.168C57.4648 87.168 56.3168 86.258 56.3168 84.858C56.3168 83.43 57.6188 82.45 59.2568 82.45C59.9148 82.45 60.6148 82.59 61.2728 82.828V82.646C61.2728 81.806 60.8248 80.994 59.5088 80.994C58.8228 80.994 58.1648 81.232 57.5488 81.54L56.9608 80.35C57.9828 79.846 58.9348 79.594 59.8448 79.594ZM59.3828 85.922C60.2088 85.922 61.0908 85.502 61.2728 84.732V83.906C60.7408 83.738 60.1388 83.64 59.5088 83.64C58.6548 83.64 57.9548 84.116 57.9548 84.802C57.9548 85.488 58.5708 85.922 59.3828 85.922ZM68.2055 85.446L68.6955 86.594C68.2895 86.944 67.7015 87.168 67.1415 87.168C65.9515 87.168 65.1115 86.3 65.1115 85.082V81.176H64.0615V79.762H65.1115V77.774H66.7635V79.762H68.4015V81.176H66.7635V84.872C66.7635 85.362 67.0855 85.712 67.4915 85.712C67.7855 85.712 68.0515 85.6 68.2055 85.446ZM70.8489 78.67C70.3029 78.67 69.8689 78.208 69.8689 77.69C69.8689 77.172 70.3029 76.724 70.8489 76.724C71.3809 76.724 71.8149 77.172 71.8149 77.69C71.8149 78.208 71.3809 78.67 70.8489 78.67ZM69.9949 87V79.762H71.7029V87H69.9949ZM77.6847 79.594C79.2807 79.594 80.3867 80.742 80.3867 82.394V87H78.7207V82.73C78.7207 81.736 78.1047 81.05 77.2087 81.05C76.2287 81.05 75.4447 81.736 75.4447 82.618V87H73.7367V79.762H75.4447V80.742C75.8787 80.056 76.7187 79.594 77.6847 79.594ZM87.4436 79.762H89.1656V86.23C89.1656 88.092 87.5976 89.408 85.3856 89.408C84.1396 89.408 82.9776 89.002 82.2776 88.442L82.9076 87.196C83.4116 87.658 84.2656 87.952 85.1196 87.952C86.5476 87.952 87.4436 87.266 87.4436 86.174V85.25C86.8696 86.02 85.9876 86.468 84.9656 86.468C83.1036 86.468 81.7176 85.04 81.7176 83.024C81.7176 81.008 83.1036 79.594 84.9656 79.594C86.0016 79.594 86.9256 80.07 87.4436 80.826V79.762ZM85.4556 85.012C86.6176 85.012 87.4436 84.186 87.4436 83.024C87.4436 81.876 86.6176 81.05 85.4556 81.05C84.3076 81.05 83.4816 81.876 83.4816 83.024C83.4816 84.186 84.3076 85.012 85.4556 85.012ZM102.238 87L101.482 85.18H96.8895L96.1335 87H94.1875L98.2055 77.382H100.152L104.17 87H102.238ZM97.4915 83.752H100.88L99.1855 79.706L97.4915 83.752ZM110.827 77.214H112.535V87H110.827V85.852C110.267 86.678 109.385 87.168 108.321 87.168C106.389 87.168 104.989 85.6 104.989 83.374C104.989 81.162 106.389 79.594 108.321 79.594C109.385 79.594 110.267 80.084 110.827 80.896V77.214ZM108.769 85.712C109.973 85.712 110.813 84.732 110.813 83.374C110.813 82.016 109.973 81.05 108.769 81.05C107.551 81.05 106.683 82.016 106.683 83.374C106.683 84.732 107.551 85.712 108.769 85.712ZM119.915 77.214H121.623V87H119.915V85.852C119.355 86.678 118.473 87.168 117.409 87.168C115.477 87.168 114.077 85.6 114.077 83.374C114.077 81.162 115.477 79.594 117.409 79.594C118.473 79.594 119.355 80.084 119.915 80.896V77.214ZM117.857 85.712C119.061 85.712 119.901 84.732 119.901 83.374C119.901 82.016 119.061 81.05 117.857 81.05C116.639 81.05 115.771 82.016 115.771 83.374C115.771 84.732 116.639 85.712 117.857 85.712ZM123.64 83.906V82.408H127.406V83.906H123.64ZM132.751 87.168C130.609 87.168 128.859 85.46 128.859 83.374C128.859 81.288 130.609 79.594 132.751 79.594C134.879 79.594 136.615 81.288 136.615 83.374C136.615 85.46 134.879 87.168 132.751 87.168ZM132.751 85.712C133.955 85.712 134.949 84.662 134.949 83.374C134.949 82.086 133.955 81.05 132.751 81.05C131.533 81.05 130.539 82.086 130.539 83.374C130.539 84.662 131.533 85.712 132.751 85.712ZM142.045 79.594C143.641 79.594 144.747 80.742 144.747 82.394V87H143.081V82.73C143.081 81.736 142.465 81.05 141.569 81.05C140.589 81.05 139.805 81.736 139.805 82.618V87H138.097V79.762H139.805V80.742C140.239 80.056 141.079 79.594 142.045 79.594Z" fill="white"/>
<path fill-rule="evenodd" clip-rule="evenodd" d="M21.1973 101H411.787V113H21.1973V101Z" fill="#2D4048"/>
<path fill-rule="evenodd" clip-rule="evenodd" d="M21.1973 101H173.259V113H21.1973V101Z" fill="#2EC0FF"/>
<defs>
<filter id="filter0_d_10442_5818" x="0" y="0" width="432" height="152" filterUnits="userSpaceOnUse" color-interpolation-filters="sRGB">
<feFlood flood-opacity="0" result="BackgroundImageFix"/>
<feColorMatrix in="SourceAlpha" type="matrix" values="0 0 0 0 0 0 0 0 0 0 0 0 0 0 0 0 0 0 127 0" result="hardAlpha"/>
<feOffset dy="4"/>
<feGaussianBlur stdDeviation="2"/>
<feComposite in2="hardAlpha" operator="out"/>
<feColorMatrix type="matrix" values="0 0 0 0 0.105 0 0 0 0 0.168 0 0 0 0 0.195 0 0 0 0.25 0"/>
<feBlend mode="normal" in2="BackgroundImageFix" result="effect1_dropShadow_10442_5818"/>
<feBlend mode="normal" in="SourceGraphic" in2="effect1_dropShadow_10442_5818" result="shape"/>
</filter>
</defs>
</svg>
