<svg width="432" height="147" viewBox="0 0 432 147" fill="none" xmlns="http://www.w3.org/2000/svg">
<g filter="url(#filter0_d_10477_4689)">
<rect x="4" width="424" height="139" rx="4" fill="#22343C"/>
<rect x="4.5" y="0.5" width="423" height="138" rx="3.5" stroke="#67777E"/>
</g>
<path fill-rule="evenodd" clip-rule="evenodd" d="M33.0002 16.3333C27.1091 16.3333 22.3335 21.1089 22.3335 26.9999C22.3335 32.891 27.1091 37.6666 33.0002 37.6666C38.8912 37.6666 43.6668 32.891 43.6668 26.9999C43.6668 24.1709 42.543 21.4578 40.5426 19.4574C38.5422 17.4571 35.8291 16.3333 33.0002 16.3333ZM33.0002 36.3333C27.8455 36.3333 23.6668 32.1546 23.6668 26.9999C23.6668 21.8453 27.8455 17.6666 33.0002 17.6666C38.1548 17.6666 42.3335 21.8453 42.3335 26.9999C42.3335 29.4753 41.3502 31.8492 39.5998 33.5996C37.8495 35.3499 35.4755 36.3333 33.0002 36.3333ZM38.7268 23.0666C38.9869 22.8081 39.4068 22.8081 39.6668 23.0666C39.793 23.1918 39.864 23.3622 39.864 23.5399C39.864 23.7177 39.793 23.8881 39.6668 24.0133L31.3268 32.3333L26.3335 27.3533C26.0794 27.0789 26.0959 26.6506 26.3702 26.3966C26.6445 26.1425 27.0728 26.1589 27.3268 26.4333L31.3268 30.4333L38.7268 23.0666Z" fill="#67CA16"/>
<path d="M61.834 60L60.868 57.816H55.506L54.54 60H53.35L57.592 50.382H58.782L63.024 60H61.834ZM55.954 56.78H60.42L58.194 51.726L55.954 56.78ZM69.899 50.214H70.949V60H69.899V58.642C69.353 59.594 68.429 60.168 67.267 60.168C65.363 60.168 63.935 58.6 63.935 56.374C63.935 54.162 65.363 52.594 67.267 52.594C68.429 52.594 69.353 53.168 69.899 54.12V50.214ZM67.463 59.23C68.891 59.23 69.899 58.04 69.899 56.374C69.899 54.708 68.891 53.532 67.463 53.532C66.049 53.532 65.041 54.708 65.041 56.374C65.041 58.04 66.049 59.23 67.463 59.23ZM78.6857 50.214H79.7357V60H78.6857V58.642C78.1397 59.594 77.2157 60.168 76.0537 60.168C74.1497 60.168 72.7217 58.6 72.7217 56.374C72.7217 54.162 74.1497 52.594 76.0537 52.594C77.2157 52.594 78.1397 53.168 78.6857 54.12V50.214ZM76.2497 59.23C77.6777 59.23 78.6857 58.04 78.6857 56.374C78.6857 54.708 77.6777 53.532 76.2497 53.532C74.8357 53.532 73.8277 54.708 73.8277 56.374C73.8277 58.04 74.8357 59.23 76.2497 59.23ZM82.0544 56.71V55.688H85.6804V56.71H82.0544ZM92.4917 60.168C89.8317 60.168 87.5637 57.886 87.5637 55.184C87.5637 52.482 89.8317 50.214 92.4917 50.214C95.1657 50.214 97.4057 52.482 97.4057 55.184C97.4057 57.886 95.1657 60.168 92.4917 60.168ZM92.4917 59.16C94.5637 59.16 96.2997 57.34 96.2997 55.184C96.2997 53.042 94.5637 51.222 92.4917 51.222C90.4197 51.222 88.6697 53.042 88.6697 55.184C88.6697 57.34 90.4197 59.16 92.4917 59.16ZM102.757 52.594C104.367 52.594 105.473 53.728 105.473 55.394V60H104.423V55.534C104.423 54.344 103.681 53.532 102.617 53.532C101.385 53.532 100.377 54.372 100.377 55.394V60H99.3274V52.762H100.377V53.91C100.797 53.14 101.721 52.594 102.757 52.594ZM113.631 60.168C112.623 60.168 111.503 59.79 110.635 59.09L111.181 58.32C112.007 58.922 112.833 59.23 113.631 59.23C114.583 59.23 115.227 58.782 115.227 58.096C115.227 57.312 114.387 57.06 113.407 56.78C111.657 56.276 110.985 55.758 110.985 54.722C110.985 53.406 112.077 52.594 113.519 52.594C114.415 52.594 115.339 52.902 116.109 53.406L115.605 54.218C114.877 53.756 114.163 53.532 113.519 53.532C112.707 53.532 112.035 53.896 112.035 54.596C112.035 55.226 112.567 55.422 113.911 55.856C115.073 56.22 116.277 56.612 116.277 57.984C116.277 59.314 115.129 60.168 113.631 60.168ZM122.905 52.762H123.955V60H122.905V58.852C122.485 59.622 121.561 60.168 120.525 60.168C118.915 60.168 117.809 59.034 117.809 57.368V52.762H118.859V57.228C118.859 58.418 119.601 59.23 120.665 59.23C121.897 59.23 122.905 58.39 122.905 57.368V52.762ZM129.393 60.168C127.363 60.168 125.641 58.432 125.641 56.374C125.641 54.316 127.363 52.594 129.393 52.594C130.373 52.594 131.283 53 131.969 53.658L131.241 54.372C130.765 53.854 130.107 53.532 129.393 53.532C127.951 53.532 126.747 54.834 126.747 56.374C126.747 57.928 127.951 59.23 129.393 59.23C130.121 59.23 130.793 58.894 131.283 58.348L132.011 59.062C131.325 59.748 130.401 60.168 129.393 60.168ZM136.553 60.168C134.523 60.168 132.801 58.432 132.801 56.374C132.801 54.316 134.523 52.594 136.553 52.594C137.533 52.594 138.443 53 139.129 53.658L138.401 54.372C137.925 53.854 137.267 53.532 136.553 53.532C135.111 53.532 133.907 54.834 133.907 56.374C133.907 57.928 135.111 59.23 136.553 59.23C137.281 59.23 137.953 58.894 138.443 58.348L139.171 59.062C138.485 59.748 137.561 60.168 136.553 60.168ZM143.656 59.23C144.51 59.23 145.49 58.852 145.938 58.362L146.582 59.048C145.952 59.734 144.678 60.168 143.67 60.168C141.738 60.168 140.002 58.586 140.002 56.36C140.002 54.204 141.626 52.594 143.572 52.594C145.756 52.594 147.002 54.246 147.002 56.78H141.08C141.234 58.194 142.228 59.23 143.656 59.23ZM143.614 53.532C142.326 53.532 141.29 54.442 141.094 55.842H145.966C145.826 54.54 145.056 53.532 143.614 53.532ZM150.906 60.168C149.898 60.168 148.778 59.79 147.91 59.09L148.456 58.32C149.282 58.922 150.108 59.23 150.906 59.23C151.858 59.23 152.502 58.782 152.502 58.096C152.502 57.312 151.662 57.06 150.682 56.78C148.932 56.276 148.26 55.758 148.26 54.722C148.26 53.406 149.352 52.594 150.794 52.594C151.69 52.594 152.614 52.902 153.384 53.406L152.88 54.218C152.152 53.756 151.438 53.532 150.794 53.532C149.982 53.532 149.31 53.896 149.31 54.596C149.31 55.226 149.842 55.422 151.186 55.856C152.348 56.22 153.552 56.612 153.552 57.984C153.552 59.314 152.404 60.168 150.906 60.168ZM157.492 60.168C156.484 60.168 155.364 59.79 154.496 59.09L155.042 58.32C155.868 58.922 156.694 59.23 157.492 59.23C158.444 59.23 159.088 58.782 159.088 58.096C159.088 57.312 158.248 57.06 157.268 56.78C155.518 56.276 154.846 55.758 154.846 54.722C154.846 53.406 155.938 52.594 157.38 52.594C158.276 52.594 159.2 52.902 159.97 53.406L159.466 54.218C158.738 53.756 158.024 53.532 157.38 53.532C156.568 53.532 155.896 53.896 155.896 54.596C155.896 55.226 156.428 55.422 157.772 55.856C158.934 56.22 160.138 56.612 160.138 57.984C160.138 59.314 158.99 60.168 157.492 60.168ZM163.14 51.768V52.762H164.918V53.7H163.14V60H162.09V53.7H160.956V52.762H162.09V51.768C162.09 50.69 162.818 49.92 163.854 49.92C164.344 49.92 164.82 50.088 165.198 50.382L164.68 51.152C164.526 50.984 164.246 50.858 163.924 50.858C163.504 50.858 163.14 51.236 163.14 51.768ZM171.109 52.762H172.159V60H171.109V58.852C170.689 59.622 169.765 60.168 168.729 60.168C167.119 60.168 166.013 59.034 166.013 57.368V52.762H167.063V57.228C167.063 58.418 167.805 59.23 168.869 59.23C170.101 59.23 171.109 58.39 171.109 57.368V52.762ZM174.489 60V50.214H175.539V60H174.489ZM177.875 60V50.214H178.925V60H177.875ZM181.892 62.52C181.472 62.52 181.08 62.436 180.744 62.282L180.996 61.386C181.248 61.512 181.542 61.568 181.85 61.568C182.312 61.568 182.62 61.414 182.9 60.924L183.32 60.028L180.17 52.762H181.332L183.866 58.782L186.26 52.762H187.394L184.09 60.812C183.586 62.044 182.886 62.506 181.892 62.52ZM195.013 52.594C196.987 52.594 197.953 53.84 197.953 55.59V60H196.903V58.866C196.385 59.72 195.307 60.168 194.355 60.168C192.829 60.168 191.709 59.286 191.709 57.858C191.709 56.416 192.997 55.45 194.551 55.45C195.335 55.45 196.161 55.618 196.903 55.856V55.59C196.903 54.61 196.511 53.49 194.943 53.49C194.215 53.49 193.487 53.812 192.829 54.148L192.409 53.294C193.445 52.776 194.313 52.594 195.013 52.594ZM194.537 59.244C195.489 59.244 196.623 58.754 196.903 57.732V56.626C196.245 56.444 195.503 56.332 194.719 56.332C193.641 56.332 192.731 56.948 192.731 57.816C192.731 58.712 193.515 59.244 194.537 59.244ZM202.916 58.936L203.434 59.706C203.056 60 202.58 60.168 202.09 60.168C201.054 60.168 200.326 59.398 200.326 58.32V53.7H199.192V52.762H200.326V50.774H201.376V52.762H203.154V53.7H201.376V58.32C201.376 58.852 201.74 59.23 202.16 59.23C202.482 59.23 202.762 59.104 202.916 58.936ZM207.642 58.936L208.16 59.706C207.782 60 207.306 60.168 206.816 60.168C205.78 60.168 205.052 59.398 205.052 58.32V53.7H203.918V52.762H205.052V50.774H206.102V52.762H207.88V53.7H206.102V58.32C206.102 58.852 206.466 59.23 206.886 59.23C207.208 59.23 207.488 59.104 207.642 58.936ZM212.158 52.594C214.132 52.594 215.098 53.84 215.098 55.59V60H214.048V58.866C213.53 59.72 212.452 60.168 211.5 60.168C209.974 60.168 208.854 59.286 208.854 57.858C208.854 56.416 210.142 55.45 211.696 55.45C212.48 55.45 213.306 55.618 214.048 55.856V55.59C214.048 54.61 213.656 53.49 212.088 53.49C211.36 53.49 210.632 53.812 209.974 54.148L209.554 53.294C210.59 52.776 211.458 52.594 212.158 52.594ZM211.682 59.244C212.634 59.244 213.768 58.754 214.048 57.732V56.626C213.39 56.444 212.648 56.332 211.864 56.332C210.786 56.332 209.876 56.948 209.876 57.816C209.876 58.712 210.66 59.244 211.682 59.244ZM220.369 60.168C218.339 60.168 216.617 58.432 216.617 56.374C216.617 54.316 218.339 52.594 220.369 52.594C221.349 52.594 222.259 53 222.945 53.658L222.217 54.372C221.741 53.854 221.083 53.532 220.369 53.532C218.927 53.532 217.723 54.834 217.723 56.374C217.723 57.928 218.927 59.23 220.369 59.23C221.097 59.23 221.769 58.894 222.259 58.348L222.987 59.062C222.301 59.748 221.377 60.168 220.369 60.168ZM227.851 52.594C229.461 52.594 230.567 53.728 230.567 55.394V60H229.517V55.534C229.517 54.344 228.775 53.532 227.711 53.532C226.479 53.532 225.471 54.372 225.471 55.394V60H224.421V50.214H225.471V53.91C225.891 53.14 226.815 52.594 227.851 52.594ZM235.781 59.23C236.635 59.23 237.615 58.852 238.063 58.362L238.707 59.048C238.077 59.734 236.803 60.168 235.795 60.168C233.863 60.168 232.127 58.586 232.127 56.36C232.127 54.204 233.751 52.594 235.697 52.594C237.881 52.594 239.127 54.246 239.127 56.78H233.205C233.359 58.194 234.353 59.23 235.781 59.23ZM235.739 53.532C234.451 53.532 233.415 54.442 233.219 55.842H238.091C237.951 54.54 237.181 53.532 235.739 53.532ZM246.195 50.214H247.245V60L246.195 60V58.642C245.649 59.594 244.725 60.168 243.563 60.168C241.659 60.168 240.231 58.6 240.231 56.374C240.231 54.162 241.659 52.594 243.563 52.594C244.725 52.594 245.649 53.168 246.195 54.12V50.214ZM243.759 59.23C245.187 59.23 246.195 58.04 246.195 56.374C246.195 54.708 245.187 53.532 243.759 53.532C242.345 53.532 241.337 54.708 241.337 56.374C241.337 58.04 242.345 59.23 243.759 59.23ZM256.134 58.936L256.652 59.706C256.274 60 255.798 60.168 255.308 60.168C254.272 60.168 253.544 59.398 253.544 58.32V53.7H252.41V52.762H253.544V50.774H254.594V52.762H256.372V53.7H254.594V58.32C254.594 58.852 254.958 59.23 255.378 59.23C255.7 59.23 255.98 59.104 256.134 58.936ZM261.168 60.168C259.11 60.168 257.43 58.46 257.43 56.374C257.43 54.288 259.11 52.594 261.168 52.594C263.212 52.594 264.892 54.288 264.892 56.374C264.892 58.46 263.212 60.168 261.168 60.168ZM261.168 59.23C262.61 59.23 263.8 57.942 263.8 56.374C263.8 54.806 262.61 53.532 261.168 53.532C259.712 53.532 258.522 54.806 258.522 56.374C258.522 57.942 259.712 59.23 261.168 59.23ZM270.664 60V50.382H271.756L275.326 57.088L278.896 50.382H279.988V60H278.896V52.734L275.326 59.44L271.756 52.734V60H270.664ZM283.259 62.52C282.839 62.52 282.447 62.436 282.111 62.282L282.363 61.386C282.615 61.512 282.909 61.568 283.217 61.568C283.679 61.568 283.987 61.414 284.267 60.924L284.687 60.028L281.537 52.762H282.699L285.233 58.782L287.627 52.762H288.761L285.457 60.812C284.953 62.044 284.253 62.506 283.259 62.52ZM290.021 56.71V55.688H293.647V56.71H290.021ZM299.184 60.154C297.602 60.154 296.356 59.58 295.39 58.628L296.076 57.774C296.888 58.586 297.882 59.16 299.226 59.16C300.71 59.16 301.466 58.348 301.466 57.48C301.466 56.458 300.556 56.052 298.876 55.66C296.944 55.212 295.726 54.61 295.726 52.944C295.726 51.404 297.098 50.214 298.946 50.214C300.374 50.214 301.438 50.774 302.32 51.586L301.648 52.44C300.85 51.67 299.898 51.208 298.89 51.208C297.7 51.208 296.832 51.978 296.832 52.86C296.832 53.854 297.784 54.204 299.422 54.596C301.256 55.03 302.572 55.688 302.572 57.382C302.572 58.908 301.424 60.154 299.184 60.154ZM304.744 60V50.382H307.992C311.044 50.382 313.2 52.37 313.2 55.184C313.2 57.998 311.044 60 307.992 60H304.744ZM305.836 59.006H307.992C310.4 59.006 312.094 57.424 312.094 55.184C312.094 52.958 310.4 51.376 307.992 51.376H305.836V59.006ZM319.59 60.168C316.93 60.168 314.662 57.886 314.662 55.184C314.662 52.482 316.93 50.214 319.59 50.214C320.92 50.214 322.152 50.774 323.048 51.684L322.306 52.44C321.606 51.698 320.64 51.222 319.59 51.222C317.518 51.222 315.768 53.042 315.768 55.184C315.768 57.34 317.518 59.16 319.59 59.16C320.64 59.16 321.606 58.684 322.306 57.942L323.048 58.698C322.152 59.594 320.92 60.168 319.59 60.168ZM329.183 60.168C326.523 60.168 324.255 57.886 324.255 55.184C324.255 52.482 326.523 50.214 329.183 50.214C330.513 50.214 331.745 50.774 332.641 51.684L331.899 52.44C331.199 51.698 330.233 51.222 329.183 51.222C327.111 51.222 325.361 53.042 325.361 55.184C325.361 57.34 327.111 59.16 329.183 59.16C330.233 59.16 331.199 58.684 331.899 57.942L332.641 58.698C331.745 59.594 330.513 60.168 329.183 60.168ZM334.269 56.71V55.688H337.895V56.71H334.269ZM341.43 60V51.712L339.75 52.804L339.274 51.992L341.64 50.382H342.522V60H341.43ZM344.374 60V59.09L347.888 56.094C349.246 54.932 349.806 54.008 349.806 53.056C349.806 51.88 348.826 51.194 347.804 51.194C346.684 51.194 345.886 51.796 345.228 52.692L344.458 52.062C345.256 50.928 346.334 50.214 347.846 50.214C349.512 50.214 350.912 51.32 350.912 53.042C350.912 54.344 350.268 55.38 348.644 56.78L346.124 58.964H351.01V60H344.374ZM355.634 60.168C354.052 60.168 352.834 59.44 352.134 58.516L352.89 57.802C353.52 58.614 354.458 59.174 355.634 59.174C356.978 59.174 357.874 58.432 357.874 57.34C357.874 56.206 356.908 55.632 355.396 55.632H354.374V54.624L355.41 54.638C356.698 54.652 357.664 54.036 357.664 52.944C357.664 51.936 356.74 51.208 355.536 51.208C354.472 51.208 353.716 51.74 353.03 52.566L352.302 51.908C353.03 50.942 354.094 50.214 355.592 50.214C357.426 50.214 358.77 51.278 358.77 52.818C358.77 54.05 357.902 54.778 356.908 55.072C357.888 55.296 358.98 56.01 358.98 57.396C358.98 59.006 357.636 60.168 355.634 60.168ZM365.083 60V57.662L360.281 57.662L360.141 56.752L364.915 50.382H366.175V56.668H367.617V57.662H366.175V60H365.083ZM361.387 56.668L365.083 56.668V51.698L361.387 56.668ZM54.75 71.446C54.358 71.446 54.05 71.124 54.05 70.746C54.05 70.382 54.358 70.06 54.75 70.06C55.128 70.06 55.436 70.382 55.436 70.746C55.436 71.124 55.128 71.446 54.75 71.446ZM54.218 80V72.762H55.268V80H54.218ZM61.0343 72.594C62.6443 72.594 63.7503 73.728 63.7503 75.394V80H62.7003V75.534C62.7003 74.344 61.9583 73.532 60.8943 73.532C59.6623 73.532 58.6543 74.372 58.6543 75.394V80H57.6043V72.762H58.6543V73.91C59.0743 73.14 59.9983 72.594 61.0343 72.594ZM69.976 80V70.382H73.882C75.87 70.382 77.424 71.656 77.424 73.462C77.424 75.268 75.87 76.542 73.882 76.542H71.068V80H69.976ZM71.068 75.506H73.686C75.254 75.506 76.318 74.75 76.318 73.462C76.318 72.174 75.254 71.418 73.686 71.418H71.068V75.506ZM86.768 80L85.802 77.816H80.44L79.474 80H78.284L82.526 70.382H83.716L87.958 80H86.768ZM80.888 76.78H85.354L83.128 71.726L80.888 76.78ZM93.9229 80.168C91.2629 80.168 88.9949 77.886 88.9949 75.184C88.9949 72.482 91.2629 70.214 93.9229 70.214C95.2529 70.214 96.4849 70.774 97.3809 71.684L96.6389 72.44C95.9389 71.698 94.9729 71.222 93.9229 71.222C91.8509 71.222 90.1009 73.042 90.1009 75.184C90.1009 77.34 91.8509 79.16 93.9229 79.16C94.9729 79.16 95.9389 78.684 96.6389 77.942L97.3809 78.698C96.4849 79.594 95.2529 80.168 93.9229 80.168ZM99.3303 80V70.382H100.422L106.386 78.208V70.382H107.478V80H106.386L100.422 72.174V80H99.3303ZM112.612 80L109.322 70.382H110.554L113.214 78.166L115.762 70.382H116.98L119.528 78.166L122.188 70.382H123.42L120.13 80H119.052L116.378 71.81L113.69 80H112.612ZM124.949 76.71V75.688H128.575V76.71H124.949ZM131.2 80V70.382L134.448 70.382C137.5 70.382 139.656 72.37 139.656 75.184C139.656 77.998 137.5 80 134.448 80H131.2ZM132.292 79.006H134.448C136.856 79.006 138.55 77.424 138.55 75.184C138.55 72.958 136.856 71.376 134.448 71.376L132.292 71.376V79.006ZM146.046 80.168C143.386 80.168 141.118 77.886 141.118 75.184C141.118 72.482 143.386 70.214 146.046 70.214C147.376 70.214 148.608 70.774 149.504 71.684L148.762 72.44C148.062 71.698 147.096 71.222 146.046 71.222C143.974 71.222 142.224 73.042 142.224 75.184C142.224 77.34 143.974 79.16 146.046 79.16C147.096 79.16 148.062 78.684 148.762 77.942L149.504 78.698C148.608 79.594 147.376 80.168 146.046 80.168Z" fill="#E3EAED"/>
<path d="M313.212 109.756H314.868L311.424 118H309.756L306.312 109.756H307.968L310.596 116.008L313.212 109.756ZM317.316 118V109.756H318.804V118H317.316ZM328.293 111.124H323.589V113.116H327.837V114.484H323.589V116.632H328.293V118H322.089V109.756H328.293V111.124ZM332.929 118L330.313 109.756H331.957L333.721 115.66L335.677 109.756H337.297L339.241 115.66L341.017 109.756H342.649L340.045 118H338.557L336.493 111.88L334.417 118H332.929ZM349.429 118V109.756H352.321C355.045 109.756 356.965 111.46 356.965 113.872C356.965 116.284 355.045 118 352.321 118H349.429ZM350.917 116.644H352.477C354.217 116.644 355.441 115.492 355.441 113.872C355.441 112.252 354.217 111.112 352.477 111.112H350.917V116.644ZM365.914 111.124H361.21V113.116H365.458V114.484H361.21V116.632H365.914V118H359.71V109.756H365.914V111.124ZM370.574 118V111.124H367.934V109.756H374.702V111.124H372.074V118H370.574ZM383.263 118L382.615 116.44H378.679L378.031 118H376.363L379.807 109.756H381.475L384.919 118H383.263ZM379.195 115.216H382.099L380.647 111.748L379.195 115.216ZM387.355 118V109.756H388.843V118H387.355ZM393.616 116.632H397.852V118H392.128V109.756H393.616V116.632Z" fill="#2EC0FF"/>
<path d="M60.203 31L59.306 28.972H54.327L53.43 31H52.325L56.264 22.069H57.369L61.308 31H60.203ZM54.743 28.01H58.89L56.823 23.317L54.743 28.01ZM65.5527 31.156C63.6677 31.156 62.0687 29.544 62.0687 27.633C62.0687 25.722 63.6677 24.123 65.5527 24.123C66.4627 24.123 67.3077 24.5 67.9447 25.111L67.2687 25.774C66.8267 25.293 66.2157 24.994 65.5527 24.994C64.2137 24.994 63.0957 26.203 63.0957 27.633C63.0957 29.076 64.2137 30.285 65.5527 30.285C66.2287 30.285 66.8527 29.973 67.3077 29.466L67.9837 30.129C67.3467 30.766 66.4887 31.156 65.5527 31.156ZM71.908 30.012L72.389 30.727C72.038 31 71.596 31.156 71.141 31.156C70.179 31.156 69.503 30.441 69.503 29.44V25.15H68.45V24.279H69.503V22.433H70.478V24.279L72.129 24.279V25.15L70.478 25.15V29.44C70.478 29.934 70.816 30.285 71.206 30.285C71.505 30.285 71.765 30.168 71.908 30.012ZM74.1834 23.057C73.8194 23.057 73.5334 22.758 73.5334 22.407C73.5334 22.069 73.8194 21.77 74.1834 21.77C74.5344 21.77 74.8204 22.069 74.8204 22.407C74.8204 22.758 74.5344 23.057 74.1834 23.057ZM73.6894 31V24.279H74.6644V31H73.6894ZM78.6857 31L75.8257 24.279H76.9177L79.1537 29.856L81.3507 24.279H82.4427L79.6217 31H78.6857ZM86.0126 24.123C87.8456 24.123 88.7426 25.28 88.7426 26.905V31H87.7676V29.947C87.2866 30.74 86.2856 31.156 85.4016 31.156C83.9846 31.156 82.9446 30.337 82.9446 29.011C82.9446 27.672 84.1406 26.775 85.5836 26.775C86.3116 26.775 87.0786 26.931 87.7676 27.152V26.905C87.7676 25.995 87.4036 24.955 85.9476 24.955C85.2716 24.955 84.5956 25.254 83.9846 25.566L83.5946 24.773C84.5566 24.292 85.3626 24.123 86.0126 24.123ZM85.5706 30.298C86.4546 30.298 87.5076 29.843 87.7676 28.894V27.867C87.1566 27.698 86.4676 27.594 85.7396 27.594C84.7386 27.594 83.8936 28.166 83.8936 28.972C83.8936 29.804 84.6216 30.298 85.5706 30.298ZM93.3439 30.012L93.8249 30.727C93.4739 31 93.0319 31.156 92.5769 31.156C91.6149 31.156 90.9389 30.441 90.9389 29.44V25.15L89.8859 25.15V24.279L90.9389 24.279V22.433H91.9139V24.279H93.5649V25.15H91.9139V29.44C91.9139 29.934 92.2519 30.285 92.6419 30.285C92.9409 30.285 93.2009 30.168 93.3439 30.012ZM97.9593 30.285C98.7523 30.285 99.6623 29.934 100.078 29.479L100.676 30.116C100.091 30.753 98.9083 31.156 97.9723 31.156C96.1783 31.156 94.5663 29.687 94.5663 27.62C94.5663 25.618 96.0743 24.123 97.8813 24.123C99.9093 24.123 101.066 25.657 101.066 28.01L95.5673 28.01C95.7103 29.323 96.6333 30.285 97.9593 30.285ZM97.9203 24.994C96.7243 24.994 95.7623 25.839 95.5803 27.139L100.104 27.139C99.9743 25.93 99.2593 24.994 97.9203 24.994ZM113.157 31L112.26 28.972H107.281L106.384 31H105.279L109.218 22.069H110.323L114.262 31H113.157ZM107.697 28.01H111.844L109.777 23.317L107.697 28.01ZM120.638 21.913H121.613V31L120.638 31V29.739C120.131 30.623 119.273 31.156 118.194 31.156C116.426 31.156 115.1 29.7 115.1 27.633C115.1 25.579 116.426 24.123 118.194 24.123C119.273 24.123 120.131 24.656 120.638 25.54V21.913ZM118.376 30.285C119.702 30.285 120.638 29.18 120.638 27.633C120.638 26.086 119.702 24.994 118.376 24.994C117.063 24.994 116.127 26.086 116.127 27.633C116.127 29.18 117.063 30.285 118.376 30.285ZM128.79 21.913H129.765V31H128.79V29.739C128.283 30.623 127.425 31.156 126.346 31.156C124.578 31.156 123.252 29.7 123.252 27.633C123.252 25.579 124.578 24.123 126.346 24.123C127.425 24.123 128.283 24.656 128.79 25.54V21.913ZM126.528 30.285C127.854 30.285 128.79 29.18 128.79 27.633C128.79 26.086 127.854 24.994 126.528 24.994C125.215 24.994 124.279 26.086 124.279 27.633C124.279 29.18 125.215 30.285 126.528 30.285ZM131.911 27.945V26.996H135.278V27.945H131.911ZM141.596 31.156C139.126 31.156 137.02 29.037 137.02 26.528C137.02 24.019 139.126 21.913 141.596 21.913C144.079 21.913 146.159 24.019 146.159 26.528C146.159 29.037 144.079 31.156 141.596 31.156ZM141.596 30.22C143.52 30.22 145.132 28.53 145.132 26.528C145.132 24.539 143.52 22.849 141.596 22.849C139.672 22.849 138.047 24.539 138.047 26.528C138.047 28.53 139.672 30.22 141.596 30.22ZM151.121 24.123C152.616 24.123 153.643 25.176 153.643 26.723V31H152.668V26.853C152.668 25.748 151.979 24.994 150.991 24.994C149.847 24.994 148.911 25.774 148.911 26.723V31H147.936V24.279L148.911 24.279V25.345C149.301 24.63 150.159 24.123 151.121 24.123ZM161.204 31.156C160.268 31.156 159.228 30.805 158.422 30.155L158.929 29.44C159.696 29.999 160.463 30.285 161.204 30.285C162.088 30.285 162.686 29.869 162.686 29.232C162.686 28.504 161.906 28.27 160.996 28.01C159.371 27.542 158.747 27.061 158.747 26.099C158.747 24.877 159.761 24.123 161.1 24.123C161.932 24.123 162.79 24.409 163.505 24.877L163.037 25.631C162.361 25.202 161.698 24.994 161.1 24.994C160.346 24.994 159.722 25.332 159.722 25.982C159.722 26.567 160.216 26.749 161.464 27.152C162.543 27.49 163.661 27.854 163.661 29.128C163.661 30.363 162.595 31.156 161.204 31.156ZM169.808 24.279H170.783V31H169.808V29.934C169.418 30.649 168.56 31.156 167.598 31.156C166.103 31.156 165.076 30.103 165.076 28.556V24.279H166.051V28.426C166.051 29.531 166.74 30.285 167.728 30.285C168.872 30.285 169.808 29.505 169.808 28.556V24.279ZM175.825 31.156C173.94 31.156 172.341 29.544 172.341 27.633C172.341 25.722 173.94 24.123 175.825 24.123C176.735 24.123 177.58 24.5 178.217 25.111L177.541 25.774C177.099 25.293 176.488 24.994 175.825 24.994C174.486 24.994 173.368 26.203 173.368 27.633C173.368 29.076 174.486 30.285 175.825 30.285C176.501 30.285 177.125 29.973 177.58 29.466L178.256 30.129C177.619 30.766 176.761 31.156 175.825 31.156ZM182.467 31.156C180.582 31.156 178.983 29.544 178.983 27.633C178.983 25.722 180.582 24.123 182.467 24.123C183.377 24.123 184.222 24.5 184.859 25.111L184.183 25.774C183.741 25.293 183.13 24.994 182.467 24.994C181.128 24.994 180.01 26.203 180.01 27.633C180.01 29.076 181.128 30.285 182.467 30.285C183.143 30.285 183.767 29.973 184.222 29.466L184.898 30.129C184.261 30.766 183.403 31.156 182.467 31.156ZM189.056 30.285C189.849 30.285 190.759 29.934 191.175 29.479L191.773 30.116C191.188 30.753 190.005 31.156 189.069 31.156C187.275 31.156 185.663 29.687 185.663 27.62C185.663 25.618 187.171 24.123 188.978 24.123C191.006 24.123 192.163 25.657 192.163 28.01L186.664 28.01C186.807 29.323 187.73 30.285 189.056 30.285ZM189.017 24.994C187.821 24.994 186.859 25.839 186.677 27.139L191.201 27.139C191.071 25.93 190.356 24.994 189.017 24.994ZM195.781 31.156C194.845 31.156 193.805 30.805 192.999 30.155L193.506 29.44C194.273 29.999 195.04 30.285 195.781 30.285C196.665 30.285 197.263 29.869 197.263 29.232C197.263 28.504 196.483 28.27 195.573 28.01C193.948 27.542 193.324 27.061 193.324 26.099C193.324 24.877 194.338 24.123 195.677 24.123C196.509 24.123 197.367 24.409 198.082 24.877L197.614 25.631C196.938 25.202 196.275 24.994 195.677 24.994C194.923 24.994 194.299 25.332 194.299 25.982C194.299 26.567 194.793 26.749 196.041 27.152C197.12 27.49 198.238 27.854 198.238 29.128C198.238 30.363 197.172 31.156 195.781 31.156ZM201.889 31.156C200.953 31.156 199.913 30.805 199.107 30.155L199.614 29.44C200.381 29.999 201.148 30.285 201.889 30.285C202.773 30.285 203.371 29.869 203.371 29.232C203.371 28.504 202.591 28.27 201.681 28.01C200.056 27.542 199.432 27.061 199.432 26.099C199.432 24.877 200.446 24.123 201.785 24.123C202.617 24.123 203.475 24.409 204.19 24.877L203.722 25.631C203.046 25.202 202.383 24.994 201.785 24.994C201.031 24.994 200.407 25.332 200.407 25.982C200.407 26.567 200.901 26.749 202.149 27.152C203.228 27.49 204.346 27.854 204.346 29.128C204.346 30.363 203.28 31.156 201.889 31.156ZM207.126 23.356V24.279H208.777V25.15H207.126V31H206.151V25.15H205.098V24.279H206.151V23.356C206.151 22.355 206.827 21.64 207.789 21.64C208.244 21.64 208.686 21.796 209.037 22.069L208.556 22.784C208.413 22.628 208.153 22.511 207.854 22.511C207.464 22.511 207.126 22.862 207.126 23.356ZM214.519 24.279H215.494V31H214.519V29.934C214.129 30.649 213.271 31.156 212.309 31.156C210.814 31.156 209.787 30.103 209.787 28.556V24.279H210.762V28.426C210.762 29.531 211.451 30.285 212.439 30.285C213.583 30.285 214.519 29.505 214.519 28.556V24.279ZM217.651 31V21.913H218.626V31H217.651ZM221.776 31.156C221.373 31.156 221.061 30.831 221.061 30.441C221.061 30.077 221.373 29.752 221.776 29.752C222.153 29.752 222.465 30.077 222.465 30.441C222.465 30.831 222.153 31.156 221.776 31.156Z" fill="white"/>
<path d="M404.627 27L408.311 23.3155C408.462 23.1392 408.452 22.8763 408.288 22.7122C408.124 22.548 407.861 22.5379 407.685 22.6889L404 26.3733L400.316 22.6844C400.141 22.5101 399.859 22.5101 399.685 22.6844C399.51 22.8587 399.51 23.1413 399.685 23.3155L403.374 27L399.685 30.6844C399.558 30.793 399.503 30.9636 399.542 31.1259C399.581 31.2883 399.707 31.4151 399.87 31.4541C400.032 31.4932 400.203 31.4379 400.311 31.3111L404 27.6266L407.685 31.3111C407.861 31.4621 408.124 31.4519 408.288 31.2878C408.452 31.1236 408.462 30.8608 408.311 30.6844L404.627 27Z" fill="#F1F6F8"/>
<defs>
<filter id="filter0_d_10477_4689" x="0" y="0" width="432" height="147" filterUnits="userSpaceOnUse" color-interpolation-filters="sRGB">
<feFlood flood-opacity="0" result="BackgroundImageFix"/>
<feColorMatrix in="SourceAlpha" type="matrix" values="0 0 0 0 0 0 0 0 0 0 0 0 0 0 0 0 0 0 127 0" result="hardAlpha"/>
<feOffset dy="4"/>
<feGaussianBlur stdDeviation="2"/>
<feComposite in2="hardAlpha" operator="out"/>
<feColorMatrix type="matrix" values="0 0 0 0 0.105 0 0 0 0 0.168 0 0 0 0 0.195 0 0 0 0.25 0"/>
<feBlend mode="normal" in2="BackgroundImageFix" result="effect1_dropShadow_10477_4689"/>
<feBlend mode="normal" in="SourceGraphic" in2="effect1_dropShadow_10477_4689" result="shape"/>
</filter>
</defs>
</svg>
