<svg width="663" height="200" viewBox="0 0 663 200" fill="none" xmlns="http://www.w3.org/2000/svg">
<g filter="url(#filter0_d_10499_14188)">
<rect x="4" width="655" height="192" rx="4" fill="#22343C"/>
<rect x="4.5" y="0.5" width="654" height="191" rx="3.5" stroke="#67777E"/>
</g>
<path d="M37.199 43V35.443H40.268C41.83 35.443 43.051 36.444 43.051 37.863C43.051 39.282 41.83 40.283 40.268 40.283H38.057V43H37.199ZM38.057 39.469H40.114C41.346 39.469 42.182 38.875 42.182 37.863C42.182 36.851 41.346 36.257 40.114 36.257H38.057V39.469ZM44.6873 43V35.311H45.5123V43H44.6873ZM50.0245 42.395C50.6955 42.395 51.4655 42.098 51.8175 41.713L52.3235 42.252C51.8285 42.791 50.8275 43.132 50.0355 43.132C48.5175 43.132 47.1535 41.889 47.1535 40.14C47.1535 38.446 48.4295 37.181 49.9585 37.181C51.6745 37.181 52.6535 38.479 52.6535 40.47H48.0005C48.1215 41.581 48.9025 42.395 50.0245 42.395ZM49.9915 37.918C48.9795 37.918 48.1655 38.633 48.0115 39.733H51.8395C51.7295 38.71 51.1245 37.918 49.9915 37.918ZM56.2746 37.181C57.8256 37.181 58.5846 38.16 58.5846 39.535V43H57.7596V42.109C57.3526 42.78 56.5056 43.132 55.7576 43.132C54.5586 43.132 53.6786 42.439 53.6786 41.317C53.6786 40.184 54.6906 39.425 55.9116 39.425C56.5276 39.425 57.1766 39.557 57.7596 39.744V39.535C57.7596 38.765 57.4516 37.885 56.2196 37.885C55.6476 37.885 55.0756 38.138 54.5586 38.402L54.2286 37.731C55.0426 37.324 55.7246 37.181 56.2746 37.181ZM55.9006 42.406C56.6486 42.406 57.5396 42.021 57.7596 41.218V40.349C57.2426 40.206 56.6596 40.118 56.0436 40.118C55.1966 40.118 54.4816 40.602 54.4816 41.284C54.4816 41.988 55.0976 42.406 55.9006 42.406ZM62.3227 43.132C61.5307 43.132 60.6507 42.835 59.9687 42.285L60.3977 41.68C61.0467 42.153 61.6957 42.395 62.3227 42.395C63.0707 42.395 63.5767 42.043 63.5767 41.504C63.5767 40.888 62.9167 40.69 62.1467 40.47C60.7717 40.074 60.2437 39.667 60.2437 38.853C60.2437 37.819 61.1017 37.181 62.2347 37.181C62.9387 37.181 63.6647 37.423 64.2697 37.819L63.8737 38.457C63.3017 38.094 62.7407 37.918 62.2347 37.918C61.5967 37.918 61.0687 38.204 61.0687 38.754C61.0687 39.249 61.4867 39.403 62.5427 39.744C63.4557 40.03 64.4017 40.338 64.4017 41.416C64.4017 42.461 63.4997 43.132 62.3227 43.132ZM68.4136 42.395C69.0846 42.395 69.8546 42.098 70.2066 41.713L70.7126 42.252C70.2176 42.791 69.2166 43.132 68.4246 43.132C66.9066 43.132 65.5426 41.889 65.5426 40.14C65.5426 38.446 66.8186 37.181 68.3476 37.181C70.0636 37.181 71.0426 38.479 71.0426 40.47H66.3896C66.5106 41.581 67.2916 42.395 68.4136 42.395ZM68.3806 37.918C67.3686 37.918 66.5546 38.633 66.4006 39.733H70.2286C70.1186 38.71 69.5136 37.918 68.3806 37.918ZM76.1 43V35.443H76.958L81.644 41.592V35.443H82.502V43H81.644L76.958 36.851V43L76.1 43ZM87.2978 43.132C85.6808 43.132 84.3608 41.79 84.3608 40.151C84.3608 38.512 85.6808 37.181 87.2978 37.181C88.9038 37.181 90.2238 38.512 90.2238 40.151C90.2238 41.79 88.9038 43.132 87.2978 43.132ZM87.2978 42.395C88.4308 42.395 89.3658 41.383 89.3658 40.151C89.3658 38.919 88.4308 37.918 87.2978 37.918C86.1538 37.918 85.2188 38.919 85.2188 40.151C85.2188 41.383 86.1538 42.395 87.2978 42.395ZM94.0449 42.164L94.4519 42.769C94.1549 43 93.7809 43.132 93.3959 43.132C92.5819 43.132 92.0099 42.527 92.0099 41.68V38.05H91.1189V37.313H92.0099V35.751H92.8349V37.313H94.2319V38.05H92.8349V41.68C92.8349 42.098 93.1209 42.395 93.4509 42.395C93.7039 42.395 93.9239 42.296 94.0449 42.164ZM98.2349 42.395C98.9059 42.395 99.6759 42.098 100.028 41.713L100.534 42.252C100.039 42.791 99.0379 43.132 98.2459 43.132C96.7279 43.132 95.3639 41.889 95.3639 40.14C95.3639 38.446 96.6399 37.181 98.1689 37.181C99.8849 37.181 100.864 38.479 100.864 40.47H96.2109C96.3319 41.581 97.1129 42.395 98.2349 42.395ZM98.2019 37.918C97.1899 37.918 96.3759 38.633 96.2219 39.733H100.05C99.9399 38.71 99.3349 37.918 98.2019 37.918ZM103.187 38.567C102.846 38.567 102.582 38.292 102.582 37.962C102.582 37.654 102.846 37.379 103.187 37.379C103.506 37.379 103.77 37.654 103.77 37.962C103.77 38.292 103.506 38.567 103.187 38.567ZM103.187 43.132C102.846 43.132 102.582 42.857 102.582 42.527C102.582 42.219 102.846 41.944 103.187 41.944C103.506 41.944 103.77 42.219 103.77 42.527C103.77 42.857 103.506 43.132 103.187 43.132ZM109.494 43V35.443L110.352 35.443V43H109.494ZM114.907 42.164L115.314 42.769C115.017 43 114.643 43.132 114.258 43.132C113.444 43.132 112.872 42.527 112.872 41.68V38.05H111.981V37.313H112.872V35.751H113.697V37.313H115.094V38.05H113.697V41.68C113.697 42.098 113.983 42.395 114.313 42.395C114.566 42.395 114.786 42.296 114.907 42.164ZM126.077 37.181C127.265 37.181 128.101 38.094 128.101 39.381V43H127.276V39.491C127.276 38.567 126.737 37.918 125.967 37.918C125.065 37.918 124.427 38.523 124.427 39.381V43H123.602V39.491C123.602 38.567 123.063 37.918 122.293 37.918C121.391 37.918 120.753 38.523 120.753 39.381V43H119.928V37.313H120.753V38.149C121.039 37.555 121.655 37.181 122.403 37.181C123.305 37.181 124.009 37.709 124.295 38.534C124.471 37.731 125.175 37.181 126.077 37.181ZM132.121 37.181C133.672 37.181 134.431 38.16 134.431 39.535V43H133.606V42.109C133.199 42.78 132.352 43.132 131.604 43.132C130.405 43.132 129.525 42.439 129.525 41.317C129.525 40.184 130.537 39.425 131.758 39.425C132.374 39.425 133.023 39.557 133.606 39.744V39.535C133.606 38.765 133.298 37.885 132.066 37.885C131.494 37.885 130.922 38.138 130.405 38.402L130.075 37.731C130.889 37.324 131.571 37.181 132.121 37.181ZM131.747 42.406C132.495 42.406 133.386 42.021 133.606 41.218V40.349C133.089 40.206 132.506 40.118 131.89 40.118C131.043 40.118 130.328 40.602 130.328 41.284C130.328 41.988 130.944 42.406 131.747 42.406ZM136.905 44.98C136.575 44.98 136.267 44.914 136.003 44.793L136.201 44.089C136.399 44.188 136.63 44.232 136.872 44.232C137.235 44.232 137.477 44.111 137.697 43.726L138.027 43.022L135.552 37.313L136.465 37.313L138.456 42.043L140.337 37.313H141.228L138.632 43.638C138.236 44.606 137.686 44.969 136.905 44.98ZM147.936 42.164L148.343 42.769C148.046 43 147.672 43.132 147.287 43.132C146.473 43.132 145.901 42.527 145.901 41.68V38.05H145.01V37.313H145.901V35.751H146.726V37.313H148.123V38.05H146.726V41.68C146.726 42.098 147.012 42.395 147.342 42.395C147.595 42.395 147.815 42.296 147.936 42.164ZM151.763 37.181C153.314 37.181 154.073 38.16 154.073 39.535V43H153.248V42.109C152.841 42.78 151.994 43.132 151.246 43.132C150.047 43.132 149.167 42.439 149.167 41.317C149.167 40.184 150.179 39.425 151.4 39.425C152.016 39.425 152.665 39.557 153.248 39.744V39.535C153.248 38.765 152.94 37.885 151.708 37.885C151.136 37.885 150.564 38.138 150.047 38.402L149.717 37.731C150.531 37.324 151.213 37.181 151.763 37.181ZM151.389 42.406C152.137 42.406 153.028 42.021 153.248 41.218V40.349C152.731 40.206 152.148 40.118 151.532 40.118C150.685 40.118 149.97 40.602 149.97 41.284C149.97 41.988 150.586 42.406 151.389 42.406ZM156.051 43V35.311H156.876V40.459L159.989 37.313H161.045L158.482 39.92L160.902 43H159.868L157.899 40.481L156.876 41.493V43H156.051ZM164.686 42.395C165.357 42.395 166.127 42.098 166.479 41.713L166.985 42.252C166.49 42.791 165.489 43.132 164.697 43.132C163.179 43.132 161.815 41.889 161.815 40.14C161.815 38.446 163.091 37.181 164.62 37.181C166.336 37.181 167.315 38.479 167.315 40.47H162.662C162.783 41.581 163.564 42.395 164.686 42.395ZM164.653 37.918C163.641 37.918 162.827 38.633 162.673 39.733H166.501C166.391 38.71 165.786 37.918 164.653 37.918ZM174.166 37.181C175.717 37.181 176.476 38.16 176.476 39.535V43H175.651V42.109C175.244 42.78 174.397 43.132 173.649 43.132C172.45 43.132 171.57 42.439 171.57 41.317C171.57 40.184 172.582 39.425 173.803 39.425C174.419 39.425 175.068 39.557 175.651 39.744V39.535C175.651 38.765 175.343 37.885 174.111 37.885C173.539 37.885 172.967 38.138 172.45 38.402L172.12 37.731C172.934 37.324 173.616 37.181 174.166 37.181ZM173.792 42.406C174.54 42.406 175.431 42.021 175.651 41.218V40.349C175.134 40.206 174.551 40.118 173.935 40.118C173.088 40.118 172.373 40.602 172.373 41.284C172.373 41.988 172.989 42.406 173.792 42.406ZM182.706 36.532V37.313H184.103V38.05H182.706V43H181.881V38.05H180.99V37.313H181.881V36.532C181.881 35.685 182.453 35.08 183.267 35.08C183.652 35.08 184.026 35.212 184.323 35.443L183.916 36.048C183.795 35.916 183.575 35.817 183.322 35.817C182.992 35.817 182.706 36.114 182.706 36.532ZM187.772 42.395C188.443 42.395 189.213 42.098 189.565 41.713L190.071 42.252C189.576 42.791 188.575 43.132 187.783 43.132C186.265 43.132 184.901 41.889 184.901 40.14C184.901 38.446 186.177 37.181 187.706 37.181C189.422 37.181 190.401 38.479 190.401 40.47H185.748C185.869 41.581 186.65 42.395 187.772 42.395ZM187.739 37.918C186.727 37.918 185.913 38.633 185.759 39.733H189.587C189.477 38.71 188.872 37.918 187.739 37.918ZM193.109 43L191.206 37.313H192.086L193.505 41.9L195.056 37.313H195.771L197.322 41.9L198.741 37.313H199.621L197.707 43H196.926L195.419 38.457L193.89 43H193.109ZM210.331 37.181C211.519 37.181 212.355 38.094 212.355 39.381V43H211.53V39.491C211.53 38.567 210.991 37.918 210.221 37.918C209.319 37.918 208.681 38.523 208.681 39.381V43H207.856V39.491C207.856 38.567 207.317 37.918 206.547 37.918C205.645 37.918 205.007 38.523 205.007 39.381V43H204.182V37.313H205.007V38.149C205.293 37.555 205.909 37.181 206.657 37.181C207.559 37.181 208.263 37.709 208.549 38.534C208.725 37.731 209.429 37.181 210.331 37.181ZM214.758 36.279C214.45 36.279 214.208 36.026 214.208 35.729C214.208 35.443 214.45 35.19 214.758 35.19C215.055 35.19 215.297 35.443 215.297 35.729C215.297 36.026 215.055 36.279 214.758 36.279ZM214.34 43V37.313H215.165V43H214.34ZM219.975 37.181C221.24 37.181 222.109 38.072 222.109 39.381V43H221.284V39.491C221.284 38.556 220.701 37.918 219.865 37.918C218.897 37.918 218.105 38.578 218.105 39.381V43H217.28V37.313H218.105V38.215C218.435 37.61 219.161 37.181 219.975 37.181ZM227.958 37.313H228.783V43H227.958V42.098C227.628 42.703 226.902 43.132 226.088 43.132C224.823 43.132 223.954 42.241 223.954 40.932V37.313H224.779V40.822C224.779 41.757 225.362 42.395 226.198 42.395C227.166 42.395 227.958 41.735 227.958 40.932V37.313ZM233.093 42.164L233.5 42.769C233.203 43 232.829 43.132 232.444 43.132C231.63 43.132 231.058 42.527 231.058 41.68V38.05H230.167V37.313H231.058V35.751H231.883V37.313H233.28V38.05H231.883V41.68C231.883 42.098 232.169 42.395 232.499 42.395C232.752 42.395 232.972 42.296 233.093 42.164ZM237.283 42.395C237.954 42.395 238.724 42.098 239.076 41.713L239.582 42.252C239.087 42.791 238.086 43.132 237.294 43.132C235.776 43.132 234.412 41.889 234.412 40.14C234.412 38.446 235.688 37.181 237.217 37.181C238.933 37.181 239.912 38.479 239.912 40.47H235.259C235.38 41.581 236.161 42.395 237.283 42.395ZM237.25 37.918C236.238 37.918 235.424 38.633 235.27 39.733H239.098C238.988 38.71 238.383 37.918 237.25 37.918ZM246.927 42.164L247.334 42.769C247.037 43 246.663 43.132 246.278 43.132C245.464 43.132 244.892 42.527 244.892 41.68V38.05H244.001V37.313H244.892V35.751H245.717V37.313H247.114V38.05H245.717V41.68C245.717 42.098 246.003 42.395 246.333 42.395C246.586 42.395 246.806 42.296 246.927 42.164ZM251.161 43.132C249.544 43.132 248.224 41.79 248.224 40.151C248.224 38.512 249.544 37.181 251.161 37.181C252.767 37.181 254.087 38.512 254.087 40.151C254.087 41.79 252.767 43.132 251.161 43.132ZM251.161 42.395C252.294 42.395 253.229 41.383 253.229 40.151C253.229 38.919 252.294 37.918 251.161 37.918C250.017 37.918 249.082 38.919 249.082 40.151C249.082 41.383 250.017 42.395 251.161 42.395ZM259.762 38.424C260.103 37.665 260.917 37.181 261.962 37.181V37.918C260.675 37.918 259.762 38.71 259.762 39.821V43H258.937V37.313H259.762V38.424ZM265.897 42.395C266.568 42.395 267.338 42.098 267.69 41.713L268.196 42.252C267.701 42.791 266.7 43.132 265.908 43.132C264.39 43.132 263.026 41.889 263.026 40.14C263.026 38.446 264.302 37.181 265.831 37.181C267.547 37.181 268.526 38.479 268.526 40.47H263.873C263.994 41.581 264.775 42.395 265.897 42.395ZM265.864 37.918C264.852 37.918 264.038 38.633 263.884 39.733H267.712C267.602 38.71 266.997 37.918 265.864 37.918ZM271.872 43.132C271.08 43.132 270.2 42.835 269.518 42.285L269.947 41.68C270.596 42.153 271.245 42.395 271.872 42.395C272.62 42.395 273.126 42.043 273.126 41.504C273.126 40.888 272.466 40.69 271.696 40.47C270.321 40.074 269.793 39.667 269.793 38.853C269.793 37.819 270.651 37.181 271.784 37.181C272.488 37.181 273.214 37.423 273.819 37.819L273.423 38.457C272.851 38.094 272.29 37.918 271.784 37.918C271.146 37.918 270.618 38.204 270.618 38.754C270.618 39.249 271.036 39.403 272.092 39.744C273.005 40.03 273.951 40.338 273.951 41.416C273.951 42.461 273.049 43.132 271.872 43.132ZM275.983 36.279C275.675 36.279 275.433 36.026 275.433 35.729C275.433 35.443 275.675 35.19 275.983 35.19C276.28 35.19 276.522 35.443 276.522 35.729C276.522 36.026 276.28 36.279 275.983 36.279ZM275.565 43V37.313H276.39V43H275.565ZM277.91 43V42.351L281.265 38.094H277.976V37.313H282.376V37.962L279.01 42.219H282.398V43H277.91ZM286.323 42.395C286.994 42.395 287.764 42.098 288.116 41.713L288.622 42.252C288.127 42.791 287.126 43.132 286.334 43.132C284.816 43.132 283.452 41.889 283.452 40.14C283.452 38.446 284.728 37.181 286.257 37.181C287.973 37.181 288.952 38.479 288.952 40.47L284.299 40.47C284.42 41.581 285.201 42.395 286.323 42.395ZM286.29 37.918C285.278 37.918 284.464 38.633 284.31 39.733L288.138 39.733C288.028 38.71 287.423 37.918 286.29 37.918ZM294.262 44.98C293.932 44.98 293.624 44.914 293.36 44.793L293.558 44.089C293.756 44.188 293.987 44.232 294.229 44.232C294.592 44.232 294.834 44.111 295.054 43.726L295.384 43.022L292.909 37.313H293.822L295.813 42.043L297.694 37.313H298.585L295.989 43.638C295.593 44.606 295.043 44.969 294.262 44.98ZM302.306 43.132C300.689 43.132 299.369 41.79 299.369 40.151C299.369 38.512 300.689 37.181 302.306 37.181C303.912 37.181 305.232 38.512 305.232 40.151C305.232 41.79 303.912 43.132 302.306 43.132ZM302.306 42.395C303.439 42.395 304.374 41.383 304.374 40.151C304.374 38.919 303.439 37.918 302.306 37.918C301.162 37.918 300.227 38.919 300.227 40.151C300.227 41.383 301.162 42.395 302.306 42.395ZM310.725 37.313L311.55 37.313V43H310.725V42.098C310.395 42.703 309.669 43.132 308.855 43.132C307.59 43.132 306.721 42.241 306.721 40.932V37.313H307.546V40.822C307.546 41.757 308.129 42.395 308.965 42.395C309.933 42.395 310.725 41.735 310.725 40.932V37.313ZM314.485 38.424C314.826 37.665 315.64 37.181 316.685 37.181V37.918C315.398 37.918 314.485 38.71 314.485 39.821V43H313.66V37.313H314.485V38.424ZM323.981 43.121C322.738 43.121 321.759 42.67 321 41.922L321.539 41.251C322.177 41.889 322.958 42.34 324.014 42.34C325.18 42.34 325.774 41.702 325.774 41.02C325.774 40.217 325.059 39.898 323.739 39.59C322.221 39.238 321.264 38.765 321.264 37.456C321.264 36.246 322.342 35.311 323.794 35.311C324.916 35.311 325.752 35.751 326.445 36.389L325.917 37.06C325.29 36.455 324.542 36.092 323.75 36.092C322.815 36.092 322.133 36.697 322.133 37.39C322.133 38.171 322.881 38.446 324.168 38.754C325.609 39.095 326.643 39.612 326.643 40.943C326.643 42.142 325.741 43.121 323.981 43.121ZM328.628 43V35.443H331.18C333.578 35.443 335.272 37.005 335.272 39.216C335.272 41.427 333.578 43 331.18 43H328.628ZM329.486 42.219H331.18C333.072 42.219 334.403 40.976 334.403 39.216C334.403 37.467 333.072 36.224 331.18 36.224H329.486V42.219ZM337.282 43V35.443H339.834C342.232 35.443 343.926 37.005 343.926 39.216C343.926 41.427 342.232 43 339.834 43H337.282ZM338.14 42.219H339.834C341.726 42.219 343.057 40.976 343.057 39.216C343.057 37.467 341.726 36.224 339.834 36.224H338.14V42.219ZM348.224 43.121C346.981 43.121 346.002 42.67 345.243 41.922L345.782 41.251C346.42 41.889 347.201 42.34 348.257 42.34C349.423 42.34 350.017 41.702 350.017 41.02C350.017 40.217 349.302 39.898 347.982 39.59C346.464 39.238 345.507 38.765 345.507 37.456C345.507 36.246 346.585 35.311 348.037 35.311C349.159 35.311 349.995 35.751 350.688 36.389L350.16 37.06C349.533 36.455 348.785 36.092 347.993 36.092C347.058 36.092 346.376 36.697 346.376 37.39C346.376 38.171 347.124 38.446 348.411 38.754C349.852 39.095 350.886 39.612 350.886 40.943C350.886 42.142 349.984 43.121 348.224 43.121ZM353.465 43.132C353.124 43.132 352.86 42.857 352.86 42.527C352.86 42.219 353.124 41.944 353.465 41.944C353.784 41.944 354.048 42.219 354.048 42.527C354.048 42.857 353.784 43.132 353.465 43.132ZM361.924 43V39.92L358.877 35.443H359.944L362.375 39.106L364.828 35.443H365.862L362.826 39.92V43H361.924ZM369.669 43.132C368.052 43.132 366.732 41.79 366.732 40.151C366.732 38.512 368.052 37.181 369.669 37.181C371.275 37.181 372.595 38.512 372.595 40.151C372.595 41.79 371.275 43.132 369.669 43.132ZM369.669 42.395C370.802 42.395 371.737 41.383 371.737 40.151C371.737 38.919 370.802 37.918 369.669 37.918C368.525 37.918 367.59 38.919 367.59 40.151C367.59 41.383 368.525 42.395 369.669 42.395ZM378.088 37.313H378.913V43H378.088V42.098C377.758 42.703 377.032 43.132 376.218 43.132C374.953 43.132 374.084 42.241 374.084 40.932V37.313H374.909V40.822C374.909 41.757 375.492 42.395 376.328 42.395C377.296 42.395 378.088 41.735 378.088 40.932V37.313ZM381.847 38.424C382.188 37.665 383.002 37.181 384.047 37.181V37.918C382.76 37.918 381.847 38.71 381.847 39.821V43H381.022V37.313H381.847V38.424ZM389.935 43L388.032 37.313H388.912L390.331 41.9L391.882 37.313H392.597L394.148 41.9L395.567 37.313H396.447L394.533 43H393.752L392.245 38.457L390.716 43H389.935ZM400.22 43.132C398.603 43.132 397.283 41.79 397.283 40.151C397.283 38.512 398.603 37.181 400.22 37.181C401.826 37.181 403.146 38.512 403.146 40.151C403.146 41.79 401.826 43.132 400.22 43.132ZM400.22 42.395C401.353 42.395 402.288 41.383 402.288 40.151C402.288 38.919 401.353 37.918 400.22 37.918C399.076 37.918 398.141 38.919 398.141 40.151C398.141 41.383 399.076 42.395 400.22 42.395ZM405.592 38.424C405.933 37.665 406.747 37.181 407.792 37.181V37.918C406.505 37.918 405.592 38.71 405.592 39.821V43H404.767V37.313H405.592V38.424ZM409.329 43V35.311H410.154V40.459L413.267 37.313H414.323L411.76 39.92L414.18 43H413.146L411.177 40.481L410.154 41.493V43H409.329ZM415.566 43V35.311H416.391V43H415.566ZM420.947 43.132C419.33 43.132 418.01 41.79 418.01 40.151C418.01 38.512 419.33 37.181 420.947 37.181C422.553 37.181 423.873 38.512 423.873 40.151C423.873 41.79 422.553 43.132 420.947 43.132ZM420.947 42.395C422.08 42.395 423.015 41.383 423.015 40.151C423.015 38.919 422.08 37.918 420.947 37.918C419.803 37.918 418.868 38.919 418.868 40.151C418.868 41.383 419.803 42.395 420.947 42.395ZM427.529 37.181C429.08 37.181 429.839 38.16 429.839 39.535V43H429.014V42.109C428.607 42.78 427.76 43.132 427.012 43.132C425.813 43.132 424.933 42.439 424.933 41.317C424.933 40.184 425.945 39.425 427.166 39.425C427.782 39.425 428.431 39.557 429.014 39.744V39.535C429.014 38.765 428.706 37.885 427.474 37.885C426.902 37.885 426.33 38.138 425.813 38.402L425.483 37.731C426.297 37.324 426.979 37.181 427.529 37.181ZM427.155 42.406C427.903 42.406 428.794 42.021 429.014 41.218V40.349C428.497 40.206 427.914 40.118 427.298 40.118C426.451 40.118 425.736 40.602 425.736 41.284C425.736 41.988 426.352 42.406 427.155 42.406ZM436.063 35.311H436.888V43H436.063V41.933C435.634 42.681 434.908 43.132 433.995 43.132C432.499 43.132 431.377 41.9 431.377 40.151C431.377 38.413 432.499 37.181 433.995 37.181C434.908 37.181 435.634 37.632 436.063 38.38V35.311ZM434.149 42.395C435.271 42.395 436.063 41.46 436.063 40.151C436.063 38.842 435.271 37.918 434.149 37.918C433.038 37.918 432.246 38.842 432.246 40.151C432.246 41.46 433.038 42.395 434.149 42.395ZM448.213 35.443H449.148L445.815 43H444.88L441.547 35.443H442.482L445.353 41.944L448.213 35.443ZM452.54 43L449.955 35.443H450.923L453.013 41.559L455.015 35.443H455.972L457.974 41.559L460.064 35.443H461.032L458.447 43H457.6L455.499 36.565L453.387 43H452.54ZM464.283 43.132C463.491 43.132 462.611 42.835 461.929 42.285L462.358 41.68C463.007 42.153 463.656 42.395 464.283 42.395C465.031 42.395 465.537 42.043 465.537 41.504C465.537 40.888 464.877 40.69 464.107 40.47C462.732 40.074 462.204 39.667 462.204 38.853C462.204 37.819 463.062 37.181 464.195 37.181C464.899 37.181 465.625 37.423 466.23 37.819L465.834 38.457C465.262 38.094 464.701 37.918 464.195 37.918C463.557 37.918 463.029 38.204 463.029 38.754C463.029 39.249 463.447 39.403 464.503 39.744C465.416 40.03 466.362 40.338 466.362 41.416C466.362 42.461 465.46 43.132 464.283 43.132ZM472.328 43L470.425 37.313H471.305L472.724 41.9L474.275 37.313H474.99L476.541 41.9L477.96 37.313H478.84L476.926 43H476.145L474.638 38.457L473.109 43H472.328ZM480.589 36.279C480.281 36.279 480.039 36.026 480.039 35.729C480.039 35.443 480.281 35.19 480.589 35.19C480.886 35.19 481.128 35.443 481.128 35.729C481.128 36.026 480.886 36.279 480.589 36.279ZM480.171 43V37.313H480.996V43H480.171ZM483.111 43V35.311H483.936V43H483.111ZM486.05 43V35.311H486.875V43H486.05ZM493.978 43.132C493.186 43.132 492.306 42.835 491.624 42.285L492.053 41.68C492.702 42.153 493.351 42.395 493.978 42.395C494.726 42.395 495.232 42.043 495.232 41.504C495.232 40.888 494.572 40.69 493.802 40.47C492.427 40.074 491.899 39.667 491.899 38.853C491.899 37.819 492.757 37.181 493.89 37.181C494.594 37.181 495.32 37.423 495.925 37.819L495.529 38.457C494.957 38.094 494.396 37.918 493.89 37.918C493.252 37.918 492.724 38.204 492.724 38.754C492.724 39.249 493.142 39.403 494.198 39.744C495.111 40.03 496.057 40.338 496.057 41.416C496.057 42.461 495.155 43.132 493.978 43.132ZM499.871 42.164L500.278 42.769C499.981 43 499.607 43.132 499.222 43.132C498.408 43.132 497.836 42.527 497.836 41.68V38.05H496.945V37.313H497.836V35.751H498.661V37.313H500.058V38.05H498.661V41.68C498.661 42.098 498.947 42.395 499.277 42.395C499.53 42.395 499.75 42.296 499.871 42.164ZM502.081 36.279C501.773 36.279 501.531 36.026 501.531 35.729C501.531 35.443 501.773 35.19 502.081 35.19C502.378 35.19 502.62 35.443 502.62 35.729C502.62 36.026 502.378 36.279 502.081 36.279ZM501.663 43V37.313H502.488V43H501.663ZM504.603 43V35.311H505.428V43H504.603ZM507.542 43V35.311H508.367V43H507.542ZM514.733 36.532V37.313H516.13V38.05H514.733V43H513.908V38.05H513.017V37.313H513.908V36.532C513.908 35.685 514.48 35.08 515.294 35.08C515.679 35.08 516.053 35.212 516.35 35.443L515.943 36.048C515.822 35.916 515.602 35.817 515.349 35.817C515.019 35.817 514.733 36.114 514.733 36.532ZM521.274 37.313H522.099V43H521.274V42.098C520.944 42.703 520.218 43.132 519.404 43.132C518.139 43.132 517.27 42.241 517.27 40.932V37.313H518.095V40.822C518.095 41.757 518.678 42.395 519.514 42.395C520.482 42.395 521.274 41.735 521.274 40.932V37.313ZM526.903 37.181C528.168 37.181 529.037 38.072 529.037 39.381V43H528.212V39.491C528.212 38.556 527.629 37.918 526.793 37.918C525.825 37.918 525.033 38.578 525.033 39.381V43H524.208V37.313H525.033V38.215C525.363 37.61 526.089 37.181 526.903 37.181ZM533.456 43.132C531.861 43.132 530.508 41.768 530.508 40.151C530.508 38.534 531.861 37.181 533.456 37.181C534.226 37.181 534.941 37.5 535.48 38.017L534.908 38.578C534.534 38.171 534.017 37.918 533.456 37.918C532.323 37.918 531.377 38.941 531.377 40.151C531.377 41.372 532.323 42.395 533.456 42.395C534.028 42.395 534.556 42.131 534.941 41.702L535.513 42.263C534.974 42.802 534.248 43.132 533.456 43.132ZM539.119 42.164L539.526 42.769C539.229 43 538.855 43.132 538.47 43.132C537.656 43.132 537.084 42.527 537.084 41.68V38.05H536.193V37.313H537.084V35.751H537.909V37.313H539.306V38.05H537.909V41.68C537.909 42.098 538.195 42.395 538.525 42.395C538.778 42.395 538.998 42.296 539.119 42.164ZM541.329 36.279C541.021 36.279 540.779 36.026 540.779 35.729C540.779 35.443 541.021 35.19 541.329 35.19C541.626 35.19 541.868 35.443 541.868 35.729C541.868 36.026 541.626 36.279 541.329 36.279ZM540.911 43V37.313H541.736V43H540.911ZM546.292 43.132C544.675 43.132 543.355 41.79 543.355 40.151C543.355 38.512 544.675 37.181 546.292 37.181C547.898 37.181 549.218 38.512 549.218 40.151C549.218 41.79 547.898 43.132 546.292 43.132ZM546.292 42.395C547.425 42.395 548.36 41.383 548.36 40.151C548.36 38.919 547.425 37.918 546.292 37.918C545.148 37.918 544.213 38.919 544.213 40.151C544.213 41.383 545.148 42.395 546.292 42.395ZM553.534 37.181C554.799 37.181 555.668 38.072 555.668 39.381V43H554.843V39.491C554.843 38.556 554.26 37.918 553.424 37.918C552.456 37.918 551.664 38.578 551.664 39.381V43H550.839V37.313H551.664V38.215C551.994 37.61 552.72 37.181 553.534 37.181ZM562.91 37.181C564.461 37.181 565.22 38.16 565.22 39.535V43H564.395V42.109C563.988 42.78 563.141 43.132 562.393 43.132C561.194 43.132 560.314 42.439 560.314 41.317C560.314 40.184 561.326 39.425 562.547 39.425C563.163 39.425 563.812 39.557 564.395 39.744V39.535C564.395 38.765 564.087 37.885 562.855 37.885C562.283 37.885 561.711 38.138 561.194 38.402L560.864 37.731C561.678 37.324 562.36 37.181 562.91 37.181ZM562.536 42.406C563.284 42.406 564.175 42.021 564.395 41.218V40.349C563.878 40.206 563.295 40.118 562.679 40.118C561.832 40.118 561.117 40.602 561.117 41.284C561.117 41.988 561.733 42.406 562.536 42.406ZM568.958 43.132C568.166 43.132 567.286 42.835 566.604 42.285L567.033 41.68C567.682 42.153 568.331 42.395 568.958 42.395C569.706 42.395 570.212 42.043 570.212 41.504C570.212 40.888 569.552 40.69 568.782 40.47C567.407 40.074 566.879 39.667 566.879 38.853C566.879 37.819 567.737 37.181 568.87 37.181C569.574 37.181 570.3 37.423 570.905 37.819L570.509 38.457C569.937 38.094 569.376 37.918 568.87 37.918C568.232 37.918 567.704 38.204 567.704 38.754C567.704 39.249 568.122 39.403 569.178 39.744C570.091 40.03 571.037 40.338 571.037 41.416C571.037 42.461 570.135 43.132 568.958 43.132ZM578.575 37.181C579.84 37.181 580.709 38.072 580.709 39.381V43H579.884V39.491C579.884 38.556 579.301 37.918 578.465 37.918C577.497 37.918 576.705 38.578 576.705 39.381V43H575.88V37.313H576.705V38.215C577.035 37.61 577.761 37.181 578.575 37.181ZM585.128 43.132C583.511 43.132 582.191 41.79 582.191 40.151C582.191 38.512 583.511 37.181 585.128 37.181C586.734 37.181 588.054 38.512 588.054 40.151C588.054 41.79 586.734 43.132 585.128 43.132ZM585.128 42.395C586.261 42.395 587.196 41.383 587.196 40.151C587.196 38.919 586.261 37.918 585.128 37.918C583.984 37.918 583.049 38.919 583.049 40.151C583.049 41.383 583.984 42.395 585.128 42.395ZM590.5 38.424C590.841 37.665 591.655 37.181 592.7 37.181V37.918C591.413 37.918 590.5 38.71 590.5 39.821V43H589.675V37.313H590.5V38.424ZM600.386 37.181C601.574 37.181 602.41 38.094 602.41 39.381V43H601.585V39.491C601.585 38.567 601.046 37.918 600.276 37.918C599.374 37.918 598.736 38.523 598.736 39.381V43H597.911V39.491C597.911 38.567 597.372 37.918 596.602 37.918C595.7 37.918 595.062 38.523 595.062 39.381V43H594.237V37.313H595.062V38.149C595.348 37.555 595.964 37.181 596.712 37.181C597.614 37.181 598.318 37.709 598.604 38.534C598.78 37.731 599.484 37.181 600.386 37.181ZM606.43 37.181C607.981 37.181 608.74 38.16 608.74 39.535V43H607.915V42.109C607.508 42.78 606.661 43.132 605.913 43.132C604.714 43.132 603.834 42.439 603.834 41.317C603.834 40.184 604.846 39.425 606.067 39.425C606.683 39.425 607.332 39.557 607.915 39.744V39.535C607.915 38.765 607.607 37.885 606.375 37.885C605.803 37.885 605.231 38.138 604.714 38.402L604.384 37.731C605.198 37.324 605.88 37.181 606.43 37.181ZM606.056 42.406C606.804 42.406 607.695 42.021 607.915 41.218V40.349C607.398 40.206 606.815 40.118 606.199 40.118C605.352 40.118 604.637 40.602 604.637 41.284C604.637 41.988 605.253 42.406 606.056 42.406ZM610.718 43V35.311H611.543V43H610.718ZM614.493 43.132C614.152 43.132 613.888 42.857 613.888 42.527C613.888 42.219 614.152 41.944 614.493 41.944C614.812 41.944 615.076 42.219 615.076 42.527C615.076 42.857 614.812 43.132 614.493 43.132Z" fill="#E3EAED"/>
<path d="M40 64.5H623C624.933 64.5 626.5 66.067 626.5 68V100C626.5 101.933 624.933 103.5 623 103.5H40C38.067 103.5 36.5 101.933 36.5 100V68C36.5 66.067 38.067 64.5 40 64.5Z" fill="#C21D00"/>
<path fill-rule="evenodd" clip-rule="evenodd" d="M45.3335 84.0002C45.3335 89.8912 50.1091 94.6668 56.0002 94.6668C58.8291 94.6668 61.5422 93.543 63.5426 91.5426C65.543 89.5422 66.6668 86.8291 66.6668 84.0002C66.6668 78.1091 61.8912 73.3335 56.0002 73.3335C50.1091 73.3335 45.3335 78.1091 45.3335 84.0002ZM46.6668 84.0002C46.6668 78.8455 50.8455 74.6668 56.0002 74.6668C61.1548 74.6668 65.3335 78.8455 65.3335 84.0002C65.3335 89.1548 61.1548 93.3335 56.0002 93.3335C50.8455 93.3335 46.6668 89.1548 46.6668 84.0002ZM56.0002 87.0735C55.632 87.0735 55.3335 86.775 55.3335 86.4068V78.4068C55.3335 78.0386 55.632 77.7402 56.0002 77.7402C56.3684 77.7402 56.6668 78.0386 56.6668 78.4068V86.4068C56.6668 86.775 56.3684 87.0735 56.0002 87.0735ZM56.8868 89.3735C56.8868 89.8632 56.4899 90.2602 56.0002 90.2602C55.5105 90.2602 55.1135 89.8632 55.1135 89.3735C55.1135 88.8838 55.5105 88.4868 56.0002 88.4868C56.4899 88.4868 56.8868 88.8838 56.8868 89.3735Z" fill="white"/>
<path d="M84.333 81.929C84.333 83.45 83.15 84.568 81.551 84.763L83.826 88H82.669L80.407 84.789H78.431V88H77.417V79.069H81.044C82.89 79.069 84.333 80.252 84.333 81.929ZM78.431 80.031V83.827H80.862C82.318 83.827 83.306 83.125 83.306 81.929C83.306 80.733 82.318 80.031 80.862 80.031H78.431ZM88.8406 87.285C89.6336 87.285 90.5436 86.934 90.9596 86.479L91.5576 87.116C90.9726 87.753 89.7896 88.156 88.8536 88.156C87.0596 88.156 85.4476 86.687 85.4476 84.62C85.4476 82.618 86.9556 81.123 88.7626 81.123C90.7906 81.123 91.9476 82.657 91.9476 85.01H86.4486C86.5916 86.323 87.5146 87.285 88.8406 87.285ZM88.8016 81.994C87.6056 81.994 86.6436 82.839 86.4616 84.139H90.9856C90.8556 82.93 90.1406 81.994 88.8016 81.994ZM98.5037 81.279H99.4787V90.236H98.5037V86.739C97.9967 87.623 97.1387 88.156 96.0597 88.156C94.2917 88.156 92.9657 86.7 92.9657 84.633C92.9657 82.579 94.2917 81.123 96.0597 81.123C97.1387 81.123 97.9967 81.656 98.5037 82.54V81.279ZM96.2417 87.285C97.5677 87.285 98.5037 86.18 98.5037 84.633C98.5037 83.086 97.5677 81.994 96.2417 81.994C94.9287 81.994 93.9927 83.086 93.9927 84.633C93.9927 86.18 94.9287 87.285 96.2417 87.285ZM106.214 81.279H107.189V88H106.214V86.934C105.824 87.649 104.966 88.156 104.004 88.156C102.509 88.156 101.482 87.103 101.482 85.556V81.279H102.457V85.426C102.457 86.531 103.146 87.285 104.134 87.285C105.278 87.285 106.214 86.505 106.214 85.556V81.279ZM112.179 87.285C112.972 87.285 113.882 86.934 114.298 86.479L114.896 87.116C114.311 87.753 113.128 88.156 112.192 88.156C110.398 88.156 108.786 86.687 108.786 84.62C108.786 82.618 110.294 81.123 112.101 81.123C114.129 81.123 115.286 82.657 115.286 85.01H109.787C109.93 86.323 110.853 87.285 112.179 87.285ZM112.14 81.994C110.944 81.994 109.982 82.839 109.8 84.139H114.324C114.194 82.93 113.479 81.994 112.14 81.994ZM118.904 88.156C117.968 88.156 116.928 87.805 116.122 87.155L116.629 86.44C117.396 86.999 118.163 87.285 118.904 87.285C119.788 87.285 120.386 86.869 120.386 86.232C120.386 85.504 119.606 85.27 118.696 85.01C117.071 84.542 116.447 84.061 116.447 83.099C116.447 81.877 117.461 81.123 118.8 81.123C119.632 81.123 120.49 81.409 121.205 81.877L120.737 82.631C120.061 82.202 119.398 81.994 118.8 81.994C118.046 81.994 117.422 82.332 117.422 82.982C117.422 83.567 117.916 83.749 119.164 84.152C120.243 84.49 121.361 84.854 121.361 86.128C121.361 87.363 120.295 88.156 118.904 88.156ZM125.532 87.012L126.013 87.727C125.662 88 125.22 88.156 124.765 88.156C123.803 88.156 123.127 87.441 123.127 86.44V82.15H122.074V81.279H123.127V79.433H124.102V81.279H125.753V82.15H124.102V86.44C124.102 86.934 124.44 87.285 124.83 87.285C125.129 87.285 125.389 87.168 125.532 87.012ZM133.394 87.012L133.875 87.727C133.524 88 133.082 88.156 132.627 88.156C131.665 88.156 130.989 87.441 130.989 86.44V82.15H129.936V81.279H130.989V79.433H131.964V81.279H133.615V82.15H131.964V86.44C131.964 86.934 132.302 87.285 132.692 87.285C132.991 87.285 133.251 87.168 133.394 87.012ZM138.061 88.156C136.15 88.156 134.59 86.57 134.59 84.633C134.59 82.696 136.15 81.123 138.061 81.123C139.959 81.123 141.519 82.696 141.519 84.633C141.519 86.57 139.959 88.156 138.061 88.156ZM138.061 87.285C139.4 87.285 140.505 86.089 140.505 84.633C140.505 83.177 139.4 81.994 138.061 81.994C136.709 81.994 135.604 83.177 135.604 84.633C135.604 86.089 136.709 87.285 138.061 87.285ZM148.984 81.123C150.817 81.123 151.714 82.28 151.714 83.905V88H150.739V86.947C150.258 87.74 149.257 88.156 148.373 88.156C146.956 88.156 145.916 87.337 145.916 86.011C145.916 84.672 147.112 83.775 148.555 83.775C149.283 83.775 150.05 83.931 150.739 84.152V83.905C150.739 82.995 150.375 81.955 148.919 81.955C148.243 81.955 147.567 82.254 146.956 82.566L146.566 81.773C147.528 81.292 148.334 81.123 148.984 81.123ZM148.542 87.298C149.426 87.298 150.479 86.843 150.739 85.894V84.867C150.128 84.698 149.439 84.594 148.711 84.594C147.71 84.594 146.865 85.166 146.865 85.972C146.865 86.804 147.593 87.298 148.542 87.298ZM158.733 78.913H159.708V88H158.733V86.739C158.226 87.623 157.368 88.156 156.289 88.156C154.521 88.156 153.195 86.7 153.195 84.633C153.195 82.579 154.521 81.123 156.289 81.123C157.368 81.123 158.226 81.656 158.733 82.54V78.913ZM156.471 87.285C157.797 87.285 158.733 86.18 158.733 84.633C158.733 83.086 157.797 81.994 156.471 81.994C155.158 81.994 154.222 83.086 154.222 84.633C154.222 86.18 155.158 87.285 156.471 87.285ZM166.885 78.913H167.86V88H166.885V86.739C166.378 87.623 165.52 88.156 164.441 88.156C162.673 88.156 161.347 86.7 161.347 84.633C161.347 82.579 162.673 81.123 164.441 81.123C165.52 81.123 166.378 81.656 166.885 82.54V78.913ZM164.623 87.285C165.949 87.285 166.885 86.18 166.885 84.633C166.885 83.086 165.949 81.994 164.623 81.994C163.31 81.994 162.374 83.086 162.374 84.633C162.374 86.18 163.31 87.285 164.623 87.285ZM176.684 81.123C178.179 81.123 179.206 82.176 179.206 83.723V88H178.231V83.853C178.231 82.748 177.542 81.994 176.554 81.994C175.41 81.994 174.474 82.774 174.474 83.723V88H173.499V78.913H174.474V82.345C174.864 81.63 175.722 81.123 176.684 81.123ZM184.093 88.156C182.182 88.156 180.622 86.57 180.622 84.633C180.622 82.696 182.182 81.123 184.093 81.123C185.991 81.123 187.551 82.696 187.551 84.633C187.551 86.57 185.991 88.156 184.093 88.156ZM184.093 87.285C185.432 87.285 186.537 86.089 186.537 84.633C186.537 83.177 185.432 81.994 184.093 81.994C182.741 81.994 181.636 83.177 181.636 84.633C181.636 86.089 182.741 87.285 184.093 87.285ZM191.21 88.156C190.274 88.156 189.234 87.805 188.428 87.155L188.935 86.44C189.702 86.999 190.469 87.285 191.21 87.285C192.094 87.285 192.692 86.869 192.692 86.232C192.692 85.504 191.912 85.27 191.002 85.01C189.377 84.542 188.753 84.061 188.753 83.099C188.753 81.877 189.767 81.123 191.106 81.123C191.938 81.123 192.796 81.409 193.511 81.877L193.043 82.631C192.367 82.202 191.704 81.994 191.106 81.994C190.352 81.994 189.728 82.332 189.728 82.982C189.728 83.567 190.222 83.749 191.47 84.152C192.549 84.49 193.667 84.854 193.667 86.128C193.667 87.363 192.601 88.156 191.21 88.156ZM197.838 87.012L198.319 87.727C197.968 88 197.526 88.156 197.071 88.156C196.109 88.156 195.433 87.441 195.433 86.44V82.15H194.38V81.279H195.433V79.433H196.408V81.279H198.059V82.15H196.408V86.44C196.408 86.934 196.746 87.285 197.136 87.285C197.435 87.285 197.695 87.168 197.838 87.012ZM204.309 80.356V81.279H205.96V82.15H204.309V88H203.334V82.15H202.281V81.279H203.334V80.356C203.334 79.355 204.01 78.64 204.972 78.64C205.427 78.64 205.869 78.796 206.22 79.069L205.739 79.784C205.596 79.628 205.336 79.511 205.037 79.511C204.647 79.511 204.309 79.862 204.309 80.356ZM209.531 81.123C211.364 81.123 212.261 82.28 212.261 83.905V88H211.286V86.947C210.805 87.74 209.804 88.156 208.92 88.156C207.503 88.156 206.463 87.337 206.463 86.011C206.463 84.672 207.659 83.775 209.102 83.775C209.83 83.775 210.597 83.931 211.286 84.152V83.905C211.286 82.995 210.922 81.955 209.466 81.955C208.79 81.955 208.114 82.254 207.503 82.566L207.113 81.773C208.075 81.292 208.881 81.123 209.531 81.123ZM209.089 87.298C209.973 87.298 211.026 86.843 211.286 85.894V84.867C210.675 84.698 209.986 84.594 209.258 84.594C208.257 84.594 207.412 85.166 207.412 85.972C207.412 86.804 208.14 87.298 209.089 87.298ZM214.756 80.057C214.392 80.057 214.106 79.758 214.106 79.407C214.106 79.069 214.392 78.77 214.756 78.77C215.107 78.77 215.393 79.069 215.393 79.407C215.393 79.758 215.107 80.057 214.756 80.057ZM214.262 88V81.279H215.237V88H214.262ZM217.399 88V78.913H218.374V88H217.399ZM223.371 87.285C224.164 87.285 225.074 86.934 225.49 86.479L226.088 87.116C225.503 87.753 224.32 88.156 223.384 88.156C221.59 88.156 219.978 86.687 219.978 84.62C219.978 82.618 221.486 81.123 223.293 81.123C225.321 81.123 226.478 82.657 226.478 85.01H220.979C221.122 86.323 222.045 87.285 223.371 87.285ZM223.332 81.994C222.136 81.994 221.174 82.839 220.992 84.139H225.516C225.386 82.93 224.671 81.994 223.332 81.994ZM233.034 78.913H234.009V88H233.034V86.739C232.527 87.623 231.669 88.156 230.59 88.156C228.822 88.156 227.496 86.7 227.496 84.633C227.496 82.579 228.822 81.123 230.59 81.123C231.669 81.123 232.527 81.656 233.034 82.54V78.913ZM230.772 87.285C232.098 87.285 233.034 86.18 233.034 84.633C233.034 83.086 232.098 81.994 230.772 81.994C229.459 81.994 228.523 83.086 228.523 84.633C228.523 86.18 229.459 87.285 230.772 87.285ZM237.156 88.156C236.753 88.156 236.441 87.831 236.441 87.441C236.441 87.077 236.753 86.752 237.156 86.752C237.533 86.752 237.845 87.077 237.845 87.441C237.845 87.831 237.533 88.156 237.156 88.156ZM245.96 88V80.031H242.957V79.069H249.977V80.031H246.974V88H245.96ZM252.306 82.592C252.709 81.695 253.671 81.123 254.906 81.123V81.994C253.385 81.994 252.306 82.93 252.306 84.243V88H251.331V81.279H252.306V82.592ZM256.97 90.34C256.58 90.34 256.216 90.262 255.904 90.119L256.138 89.287C256.372 89.404 256.645 89.456 256.931 89.456C257.36 89.456 257.646 89.313 257.906 88.858L258.296 88.026L255.371 81.279H256.45L258.803 86.869L261.026 81.279H262.079L259.011 88.754C258.543 89.898 257.893 90.327 256.97 90.34ZM269.14 81.123C270.973 81.123 271.87 82.28 271.87 83.905V88H270.895V86.947C270.414 87.74 269.413 88.156 268.529 88.156C267.112 88.156 266.072 87.337 266.072 86.011C266.072 84.672 267.268 83.775 268.711 83.775C269.439 83.775 270.206 83.931 270.895 84.152V83.905C270.895 82.995 270.531 81.955 269.075 81.955C268.399 81.955 267.723 82.254 267.112 82.566L266.722 81.773C267.684 81.292 268.49 81.123 269.14 81.123ZM268.698 87.298C269.582 87.298 270.635 86.843 270.895 85.894V84.867C270.284 84.698 269.595 84.594 268.867 84.594C267.866 84.594 267.021 85.166 267.021 85.972C267.021 86.804 267.749 87.298 268.698 87.298ZM278.824 81.279H279.799V87.285C279.799 89.014 278.434 90.236 276.497 90.236C275.405 90.236 274.391 89.859 273.78 89.339L274.209 88.572C274.729 89.066 275.535 89.365 276.367 89.365C277.914 89.365 278.824 88.598 278.824 87.285V86.193C278.304 87.012 277.446 87.506 276.38 87.506C274.573 87.506 273.286 86.18 273.286 84.308C273.286 82.436 274.573 81.123 276.38 81.123C277.446 81.123 278.304 81.617 278.824 82.436V81.279ZM276.562 86.635C277.888 86.635 278.824 85.673 278.824 84.308C278.824 82.956 277.888 81.994 276.562 81.994C275.249 81.994 274.313 82.956 274.313 84.308C274.313 85.673 275.249 86.635 276.562 86.635ZM284.365 81.123C286.198 81.123 287.095 82.28 287.095 83.905V88H286.12V86.947C285.639 87.74 284.638 88.156 283.754 88.156C282.337 88.156 281.297 87.337 281.297 86.011C281.297 84.672 282.493 83.775 283.936 83.775C284.664 83.775 285.431 83.931 286.12 84.152V83.905C286.12 82.995 285.756 81.955 284.3 81.955C283.624 81.955 282.948 82.254 282.337 82.566L281.947 81.773C282.909 81.292 283.715 81.123 284.365 81.123ZM283.923 87.298C284.807 87.298 285.86 86.843 286.12 85.894V84.867C285.509 84.698 284.82 84.594 284.092 84.594C283.091 84.594 282.246 85.166 282.246 85.972C282.246 86.804 282.974 87.298 283.923 87.298ZM289.59 80.057C289.226 80.057 288.94 79.758 288.94 79.407C288.94 79.069 289.226 78.77 289.59 78.77C289.941 78.77 290.227 79.069 290.227 79.407C290.227 79.758 289.941 80.057 289.59 80.057ZM289.096 88V81.279H290.071V88H289.096ZM295.418 81.123C296.913 81.123 297.94 82.176 297.94 83.723V88H296.965V83.853C296.965 82.748 296.276 81.994 295.288 81.994C294.144 81.994 293.208 82.774 293.208 83.723V88H292.233V81.279H293.208V82.345C293.598 81.63 294.456 81.123 295.418 81.123ZM303.421 88V78.913H304.396V88H303.421ZM308.963 81.123C310.796 81.123 311.693 82.28 311.693 83.905V88H310.718V86.947C310.237 87.74 309.236 88.156 308.352 88.156C306.935 88.156 305.895 87.337 305.895 86.011C305.895 84.672 307.091 83.775 308.534 83.775C309.262 83.775 310.029 83.931 310.718 84.152V83.905C310.718 82.995 310.354 81.955 308.898 81.955C308.222 81.955 307.546 82.254 306.935 82.566L306.545 81.773C307.507 81.292 308.313 81.123 308.963 81.123ZM308.521 87.298C309.405 87.298 310.458 86.843 310.718 85.894V84.867C310.107 84.698 309.418 84.594 308.69 84.594C307.689 84.594 306.844 85.166 306.844 85.972C306.844 86.804 307.572 87.298 308.521 87.298ZM316.294 87.012L316.775 87.727C316.424 88 315.982 88.156 315.527 88.156C314.565 88.156 313.889 87.441 313.889 86.44V82.15H312.836V81.279H313.889V79.433H314.864V81.279H316.515V82.15H314.864V86.44C314.864 86.934 315.202 87.285 315.592 87.285C315.891 87.285 316.151 87.168 316.294 87.012ZM320.91 87.285C321.703 87.285 322.613 86.934 323.029 86.479L323.627 87.116C323.042 87.753 321.859 88.156 320.923 88.156C319.129 88.156 317.517 86.687 317.517 84.62C317.517 82.618 319.025 81.123 320.832 81.123C322.86 81.123 324.017 82.657 324.017 85.01H318.518C318.661 86.323 319.584 87.285 320.91 87.285ZM320.871 81.994C319.675 81.994 318.713 82.839 318.531 84.139H323.055C322.925 82.93 322.21 81.994 320.871 81.994ZM326.53 82.592C326.933 81.695 327.895 81.123 329.13 81.123V81.994C327.609 81.994 326.53 82.93 326.53 84.243V88H325.555V81.279H326.53V82.592ZM331.597 88.156C331.194 88.156 330.882 87.831 330.882 87.441C330.882 87.077 331.194 86.752 331.597 86.752C331.974 86.752 332.286 87.077 332.286 87.441C332.286 87.831 331.974 88.156 331.597 88.156ZM338.49 88V79.069H339.504V88H338.49ZM343.16 80.356V81.279H344.811V82.15H343.16V88H342.185V82.15H341.132V81.279H342.185V80.356C342.185 79.355 342.861 78.64 343.823 78.64C344.278 78.64 344.72 78.796 345.071 79.069L344.59 79.784C344.447 79.628 344.187 79.511 343.888 79.511C343.498 79.511 343.16 79.862 343.16 80.356ZM352.057 87.012L352.538 87.727C352.187 88 351.745 88.156 351.29 88.156C350.328 88.156 349.652 87.441 349.652 86.44V82.15H348.599V81.279H349.652V79.433H350.627V81.279H352.278V82.15H350.627V86.44C350.627 86.934 350.965 87.285 351.355 87.285C351.654 87.285 351.914 87.168 352.057 87.012ZM357.023 81.123C358.518 81.123 359.545 82.176 359.545 83.723V88H358.57V83.853C358.57 82.748 357.881 81.994 356.893 81.994C355.749 81.994 354.813 82.774 354.813 83.723V88H353.838V78.913H354.813V82.345C355.203 81.63 356.061 81.123 357.023 81.123ZM364.38 87.285C365.173 87.285 366.083 86.934 366.499 86.479L367.097 87.116C366.512 87.753 365.329 88.156 364.393 88.156C362.599 88.156 360.987 86.687 360.987 84.62C360.987 82.618 362.495 81.123 364.302 81.123C366.33 81.123 367.487 82.657 367.487 85.01H361.988C362.131 86.323 363.054 87.285 364.38 87.285ZM364.341 81.994C363.145 81.994 362.183 82.839 362.001 84.139H366.525C366.395 82.93 365.68 81.994 364.341 81.994ZM372.999 80.057C372.635 80.057 372.349 79.758 372.349 79.407C372.349 79.069 372.635 78.77 372.999 78.77C373.35 78.77 373.636 79.069 373.636 79.407C373.636 79.758 373.35 80.057 372.999 80.057ZM372.505 88V81.279H373.48V88H372.505ZM377.723 88.156C376.787 88.156 375.747 87.805 374.941 87.155L375.448 86.44C376.215 86.999 376.982 87.285 377.723 87.285C378.607 87.285 379.205 86.869 379.205 86.232C379.205 85.504 378.425 85.27 377.515 85.01C375.89 84.542 375.266 84.061 375.266 83.099C375.266 81.877 376.28 81.123 377.619 81.123C378.451 81.123 379.309 81.409 380.024 81.877L379.556 82.631C378.88 82.202 378.217 81.994 377.619 81.994C376.865 81.994 376.241 82.332 376.241 82.982C376.241 83.567 376.735 83.749 377.983 84.152C379.062 84.49 380.18 84.854 380.18 86.128C380.18 87.363 379.114 88.156 377.723 88.156ZM383.831 88.156C382.895 88.156 381.855 87.805 381.049 87.155L381.556 86.44C382.323 86.999 383.09 87.285 383.831 87.285C384.715 87.285 385.313 86.869 385.313 86.232C385.313 85.504 384.533 85.27 383.623 85.01C381.998 84.542 381.374 84.061 381.374 83.099C381.374 81.877 382.388 81.123 383.727 81.123C384.559 81.123 385.417 81.409 386.132 81.877L385.664 82.631C384.988 82.202 384.325 81.994 383.727 81.994C382.973 81.994 382.349 82.332 382.349 82.982C382.349 83.567 382.843 83.749 384.091 84.152C385.17 84.49 386.288 84.854 386.288 86.128C386.288 87.363 385.222 88.156 383.831 88.156ZM392.435 81.279H393.41V88H392.435V86.934C392.045 87.649 391.187 88.156 390.225 88.156C388.73 88.156 387.703 87.103 387.703 85.556V81.279H388.678V85.426C388.678 86.531 389.367 87.285 390.355 87.285C391.499 87.285 392.435 86.505 392.435 85.556V81.279ZM398.4 87.285C399.193 87.285 400.103 86.934 400.519 86.479L401.117 87.116C400.532 87.753 399.349 88.156 398.413 88.156C396.619 88.156 395.007 86.687 395.007 84.62C395.007 82.618 396.515 81.123 398.322 81.123C400.35 81.123 401.507 82.657 401.507 85.01H396.008C396.151 86.323 397.074 87.285 398.4 87.285ZM398.361 81.994C397.165 81.994 396.203 82.839 396.021 84.139H400.545C400.415 82.93 399.7 81.994 398.361 81.994ZM409.944 81.123C411.712 81.123 413.038 82.579 413.038 84.633C413.038 86.7 411.712 88.156 409.944 88.156C408.865 88.156 408.007 87.623 407.5 86.739V90.236H406.525V81.279H407.5V82.54C408.007 81.656 408.865 81.123 409.944 81.123ZM409.762 87.285C411.075 87.285 412.011 86.18 412.011 84.633C412.011 83.086 411.075 81.994 409.762 81.994C408.436 81.994 407.5 83.086 407.5 84.633C407.5 86.18 408.436 87.285 409.762 87.285ZM417.511 87.285C418.304 87.285 419.214 86.934 419.63 86.479L420.228 87.116C419.643 87.753 418.46 88.156 417.524 88.156C415.73 88.156 414.118 86.687 414.118 84.62C414.118 82.618 415.626 81.123 417.433 81.123C419.461 81.123 420.618 82.657 420.618 85.01H415.119C415.262 86.323 416.185 87.285 417.511 87.285ZM417.472 81.994C416.276 81.994 415.314 82.839 415.132 84.139H419.656C419.526 82.93 418.811 81.994 417.472 81.994ZM423.131 82.592C423.534 81.695 424.496 81.123 425.731 81.123V81.994C424.21 81.994 423.131 82.93 423.131 84.243V88H422.156V81.279H423.131V82.592ZM429.291 88.156C428.355 88.156 427.315 87.805 426.509 87.155L427.016 86.44C427.783 86.999 428.55 87.285 429.291 87.285C430.175 87.285 430.773 86.869 430.773 86.232C430.773 85.504 429.993 85.27 429.083 85.01C427.458 84.542 426.834 84.061 426.834 83.099C426.834 81.877 427.848 81.123 429.187 81.123C430.019 81.123 430.877 81.409 431.592 81.877L431.124 82.631C430.448 82.202 429.785 81.994 429.187 81.994C428.433 81.994 427.809 82.332 427.809 82.982C427.809 83.567 428.303 83.749 429.551 84.152C430.63 84.49 431.748 84.854 431.748 86.128C431.748 87.363 430.682 88.156 429.291 88.156ZM433.813 80.057C433.449 80.057 433.163 79.758 433.163 79.407C433.163 79.069 433.449 78.77 433.813 78.77C434.164 78.77 434.45 79.069 434.45 79.407C434.45 79.758 434.164 80.057 433.813 80.057ZM433.319 88V81.279H434.294V88H433.319ZM438.536 88.156C437.6 88.156 436.56 87.805 435.754 87.155L436.261 86.44C437.028 86.999 437.795 87.285 438.536 87.285C439.42 87.285 440.018 86.869 440.018 86.232C440.018 85.504 439.238 85.27 438.328 85.01C436.703 84.542 436.079 84.061 436.079 83.099C436.079 81.877 437.093 81.123 438.432 81.123C439.264 81.123 440.122 81.409 440.837 81.877L440.369 82.631C439.693 82.202 439.03 81.994 438.432 81.994C437.678 81.994 437.054 82.332 437.054 82.982C437.054 83.567 437.548 83.749 438.796 84.152C439.875 84.49 440.993 84.854 440.993 86.128C440.993 87.363 439.927 88.156 438.536 88.156ZM445.164 87.012L445.645 87.727C445.294 88 444.852 88.156 444.397 88.156C443.435 88.156 442.759 87.441 442.759 86.44V82.15H441.706V81.279H442.759V79.433H443.734V81.279H445.385V82.15H443.734V86.44C443.734 86.934 444.072 87.285 444.462 87.285C444.761 87.285 445.021 87.168 445.164 87.012ZM449.025 88.156C448.089 88.156 447.049 87.805 446.243 87.155L446.75 86.44C447.517 86.999 448.284 87.285 449.025 87.285C449.909 87.285 450.507 86.869 450.507 86.232C450.507 85.504 449.727 85.27 448.817 85.01C447.192 84.542 446.568 84.061 446.568 83.099C446.568 81.877 447.582 81.123 448.921 81.123C449.753 81.123 450.611 81.409 451.326 81.877L450.858 82.631C450.182 82.202 449.519 81.994 448.921 81.994C448.167 81.994 447.543 82.332 447.543 82.982C447.543 83.567 448.037 83.749 449.285 84.152C450.364 84.49 451.482 84.854 451.482 86.128C451.482 87.363 450.416 88.156 449.025 88.156ZM453.742 89.729L453.261 89.365C453.612 88.962 453.833 88.559 453.937 88.156C453.547 88.156 453.235 87.831 453.235 87.441C453.235 87.077 453.534 86.752 453.95 86.752C454.444 86.752 454.743 87.194 454.743 87.792C454.743 88.312 454.522 88.754 453.742 89.729ZM463.407 88.156C461.522 88.156 459.923 86.544 459.923 84.633C459.923 82.722 461.522 81.123 463.407 81.123C464.317 81.123 465.162 81.5 465.799 82.111L465.123 82.774C464.681 82.293 464.07 81.994 463.407 81.994C462.068 81.994 460.95 83.203 460.95 84.633C460.95 86.076 462.068 87.285 463.407 87.285C464.083 87.285 464.707 86.973 465.162 86.466L465.838 87.129C465.201 87.766 464.343 88.156 463.407 88.156ZM470.049 88.156C468.138 88.156 466.578 86.57 466.578 84.633C466.578 82.696 468.138 81.123 470.049 81.123C471.947 81.123 473.507 82.696 473.507 84.633C473.507 86.57 471.947 88.156 470.049 88.156ZM470.049 87.285C471.388 87.285 472.493 86.089 472.493 84.633C472.493 83.177 471.388 81.994 470.049 81.994C468.697 81.994 467.592 83.177 467.592 84.633C467.592 86.089 468.697 87.285 470.049 87.285ZM478.271 81.123C479.766 81.123 480.793 82.176 480.793 83.723V88H479.818V83.853C479.818 82.748 479.129 81.994 478.141 81.994C476.997 81.994 476.061 82.774 476.061 83.723V88H475.086V81.279H476.061V82.345C476.451 81.63 477.309 81.123 478.271 81.123ZM485.394 87.012L485.875 87.727C485.524 88 485.082 88.156 484.627 88.156C483.665 88.156 482.989 87.441 482.989 86.44V82.15H481.936V81.279H482.989V79.433H483.964V81.279H485.615V82.15H483.964V86.44C483.964 86.934 484.302 87.285 484.692 87.285C484.991 87.285 485.251 87.168 485.394 87.012ZM489.58 81.123C491.413 81.123 492.31 82.28 492.31 83.905V88H491.335V86.947C490.854 87.74 489.853 88.156 488.969 88.156C487.552 88.156 486.512 87.337 486.512 86.011C486.512 84.672 487.708 83.775 489.151 83.775C489.879 83.775 490.646 83.931 491.335 84.152V83.905C491.335 82.995 490.971 81.955 489.515 81.955C488.839 81.955 488.163 82.254 487.552 82.566L487.162 81.773C488.124 81.292 488.93 81.123 489.58 81.123ZM489.138 87.298C490.022 87.298 491.075 86.843 491.335 85.894V84.867C490.724 84.698 490.035 84.594 489.307 84.594C488.306 84.594 487.461 85.166 487.461 85.972C487.461 86.804 488.189 87.298 489.138 87.298ZM497.197 88.156C495.312 88.156 493.713 86.544 493.713 84.633C493.713 82.722 495.312 81.123 497.197 81.123C498.107 81.123 498.952 81.5 499.589 82.111L498.913 82.774C498.471 82.293 497.86 81.994 497.197 81.994C495.858 81.994 494.74 83.203 494.74 84.633C494.74 86.076 495.858 87.285 497.197 87.285C497.873 87.285 498.497 86.973 498.952 86.466L499.628 87.129C498.991 87.766 498.133 88.156 497.197 88.156ZM503.553 87.012L504.034 87.727C503.683 88 503.241 88.156 502.786 88.156C501.824 88.156 501.148 87.441 501.148 86.44V82.15H500.095V81.279H501.148V79.433H502.123V81.279H503.774V82.15H502.123V86.44C502.123 86.934 502.461 87.285 502.851 87.285C503.15 87.285 503.41 87.168 503.553 87.012ZM515.886 79.069H516.991L513.052 88H511.947L508.008 79.069H509.113L512.506 86.752L515.886 79.069ZM518.636 88V79.069H519.65L522.965 85.296L526.28 79.069H527.294V88H526.28V81.253L522.965 87.48L519.65 81.253V88H518.636ZM531.065 88L528.816 81.279H529.856L531.533 86.7L533.366 81.279H534.211L536.044 86.7L537.721 81.279H538.761L536.499 88H535.576L533.795 82.631L531.988 88H531.065ZM542.404 81.123C544.237 81.123 545.134 82.28 545.134 83.905V88H544.159V86.947C543.678 87.74 542.677 88.156 541.793 88.156C540.376 88.156 539.336 87.337 539.336 86.011C539.336 84.672 540.532 83.775 541.975 83.775C542.703 83.775 543.47 83.931 544.159 84.152V83.905C544.159 82.995 543.795 81.955 542.339 81.955C541.663 81.955 540.987 82.254 540.376 82.566L539.986 81.773C540.948 81.292 541.754 81.123 542.404 81.123ZM541.962 87.298C542.846 87.298 543.899 86.843 544.159 85.894V84.867C543.548 84.698 542.859 84.594 542.131 84.594C541.13 84.594 540.285 85.166 540.285 85.972C540.285 86.804 541.013 87.298 541.962 87.298ZM548.11 82.592C548.513 81.695 549.475 81.123 550.71 81.123V81.994C549.189 81.994 548.11 82.93 548.11 84.243V88H547.135V81.279H548.11V82.592ZM555.023 87.285C555.816 87.285 556.726 86.934 557.142 86.479L557.74 87.116C557.155 87.753 555.972 88.156 555.036 88.156C553.242 88.156 551.63 86.687 551.63 84.62C551.63 82.618 553.138 81.123 554.945 81.123C556.973 81.123 558.13 82.657 558.13 85.01H552.631C552.774 86.323 553.697 87.285 555.023 87.285ZM554.984 81.994C553.788 81.994 552.826 82.839 552.644 84.139H557.168C557.038 82.93 556.323 81.994 554.984 81.994ZM566.138 88.143C564.669 88.143 563.512 87.61 562.615 86.726L563.252 85.933C564.006 86.687 564.929 87.22 566.177 87.22C567.555 87.22 568.257 86.466 568.257 85.66C568.257 84.711 567.412 84.334 565.852 83.97C564.058 83.554 562.927 82.995 562.927 81.448C562.927 80.018 564.201 78.913 565.917 78.913C567.243 78.913 568.231 79.433 569.05 80.187L568.426 80.98C567.685 80.265 566.801 79.836 565.865 79.836C564.76 79.836 563.954 80.551 563.954 81.37C563.954 82.293 564.838 82.618 566.359 82.982C568.062 83.385 569.284 83.996 569.284 85.569C569.284 86.986 568.218 88.143 566.138 88.143ZM575.584 81.279H576.559V88H575.584V86.934C575.194 87.649 574.336 88.156 573.374 88.156C571.879 88.156 570.852 87.103 570.852 85.556V81.279H571.827V85.426C571.827 86.531 572.516 87.285 573.504 87.285C574.648 87.285 575.584 86.505 575.584 85.556V81.279ZM582.135 81.123C583.903 81.123 585.229 82.579 585.229 84.633C585.229 86.7 583.903 88.156 582.135 88.156C581.056 88.156 580.198 87.623 579.691 86.739V90.236H578.716V81.279H579.691V82.54C580.198 81.656 581.056 81.123 582.135 81.123ZM581.953 87.285C583.266 87.285 584.202 86.18 584.202 84.633C584.202 83.086 583.266 81.994 581.953 81.994C580.627 81.994 579.691 83.086 579.691 84.633C579.691 86.18 580.627 87.285 581.953 87.285ZM590.287 81.123C592.055 81.123 593.381 82.579 593.381 84.633C593.381 86.7 592.055 88.156 590.287 88.156C589.208 88.156 588.35 87.623 587.843 86.739V90.236H586.868V81.279H587.843V82.54C588.35 81.656 589.208 81.123 590.287 81.123ZM590.105 87.285C591.418 87.285 592.354 86.18 592.354 84.633C592.354 83.086 591.418 81.994 590.105 81.994C588.779 81.994 587.843 83.086 587.843 84.633C587.843 86.18 588.779 87.285 590.105 87.285ZM597.906 88.156C595.995 88.156 594.435 86.57 594.435 84.633C594.435 82.696 595.995 81.123 597.906 81.123C599.804 81.123 601.364 82.696 601.364 84.633C601.364 86.57 599.804 88.156 597.906 88.156ZM597.906 87.285C599.245 87.285 600.35 86.089 600.35 84.633C600.35 83.177 599.245 81.994 597.906 81.994C596.554 81.994 595.449 83.177 595.449 84.633C595.449 86.089 596.554 87.285 597.906 87.285ZM603.918 82.592C604.321 81.695 605.283 81.123 606.518 81.123V81.994C604.997 81.994 603.918 82.93 603.918 84.243V88H602.943V81.279H603.918V82.592ZM610.598 87.012L611.079 87.727C610.728 88 610.286 88.156 609.831 88.156C608.869 88.156 608.193 87.441 608.193 86.44V82.15H607.14V81.279H608.193V79.433H609.168V81.279H610.819V82.15H609.168V86.44C609.168 86.934 609.506 87.285 609.896 87.285C610.195 87.285 610.455 87.168 610.598 87.012ZM613.367 88.156C612.964 88.156 612.652 87.831 612.652 87.441C612.652 87.077 612.964 86.752 613.367 86.752C613.744 86.752 614.056 87.077 614.056 87.441C614.056 87.831 613.744 88.156 613.367 88.156Z" fill="white"/>
<path d="M40 64.5H623C624.933 64.5 626.5 66.067 626.5 68V100C626.5 101.933 624.933 103.5 623 103.5H40C38.067 103.5 36.5 101.933 36.5 100V68C36.5 66.067 38.067 64.5 40 64.5Z" stroke="#FF674C"/>
<path d="M40 120.5H130C131.933 120.5 133.5 122.067 133.5 124V152C133.5 153.933 131.933 155.5 130 155.5H40C38.067 155.5 36.5 153.933 36.5 152V124C36.5 122.067 38.067 120.5 40 120.5Z" fill="#2EC0FF"/>
<path d="M55.2 142L54.552 140.44H50.616L49.968 142H48.3L51.744 133.756H53.412L56.856 142H55.2ZM51.132 139.216H54.036L52.584 135.748L51.132 139.216ZM59.2923 142V133.756H62.1843C64.9083 133.756 66.8283 135.46 66.8283 137.872C66.8283 140.284 64.9083 142 62.1843 142H59.2923ZM60.7803 140.644H62.3403C64.0803 140.644 65.3043 139.492 65.3043 137.872C65.3043 136.252 64.0803 135.112 62.3403 135.112H60.7803V140.644ZM69.5736 142V133.756H72.4656C75.1896 133.756 77.1096 135.46 77.1096 137.872C77.1096 140.284 75.1896 142 72.4656 142H69.5736ZM71.0616 140.644H72.6216C74.3616 140.644 75.5856 139.492 75.5856 137.872C75.5856 136.252 74.3616 135.112 72.6216 135.112H71.0616V140.644ZM89.7401 133.756H91.2401V142H89.7401V138.484H85.6241V142H84.1361V133.756H85.6241V137.116H89.7401V133.756ZM98.2911 142.144C95.9511 142.144 93.9711 140.188 93.9711 137.872C93.9711 135.556 95.9511 133.612 98.2911 133.612C100.643 133.612 102.623 135.556 102.623 137.872C102.623 140.188 100.643 142.144 98.2911 142.144ZM98.2911 140.776C99.8151 140.776 101.087 139.456 101.087 137.872C101.087 136.3 99.8151 134.98 98.2911 134.98C96.7791 134.98 95.4951 136.3 95.4951 137.872C95.4951 139.456 96.7791 140.776 98.2911 140.776ZM108.223 142.132C106.819 142.132 105.607 141.652 104.695 140.8L105.571 139.732C106.327 140.416 107.203 140.848 108.283 140.848C109.291 140.848 109.819 140.344 109.819 139.756C109.819 139.072 109.231 138.844 107.911 138.532C106.207 138.136 105.031 137.644 105.031 136.096C105.031 134.656 106.255 133.612 107.983 133.612C109.291 133.612 110.287 134.056 111.103 134.764L110.287 135.856C109.579 135.244 108.751 134.896 107.935 134.896C107.095 134.896 106.543 135.388 106.543 135.964C106.543 136.636 107.143 136.876 108.451 137.176C110.167 137.56 111.319 138.112 111.319 139.612C111.319 141.088 110.203 142.132 108.223 142.132ZM115.867 142V135.124H113.227V133.756H119.995V135.124H117.367V142H115.867Z" fill="black"/>
<path d="M40 120.5H130C131.933 120.5 133.5 122.067 133.5 124V152C133.5 153.933 131.933 155.5 130 155.5H40C38.067 155.5 36.5 153.933 36.5 152V124C36.5 122.067 38.067 120.5 40 120.5Z" stroke="#2EC0FF"/>
<path d="M162.92 142.144C160.58 142.144 158.6 140.188 158.6 137.872C158.6 135.556 160.58 133.612 162.92 133.612C164.132 133.612 165.248 134.128 166.04 134.944L164.972 135.94C164.456 135.352 163.724 134.98 162.92 134.98C161.408 134.98 160.124 136.3 160.124 137.872C160.124 139.456 161.408 140.776 162.92 140.776C163.724 140.776 164.456 140.404 164.984 139.816L166.04 140.8C165.248 141.628 164.132 142.144 162.92 142.144ZM174.649 142L174.001 140.44H170.065L169.417 142H167.749L171.193 133.756H172.861L176.305 142H174.649ZM170.581 139.216H173.485L172.033 135.748L170.581 139.216ZM178.742 142V133.756H180.23L184.586 139.552V133.756H186.074V142H184.586L180.23 136.204V142H178.742ZM193.131 142.144C190.791 142.144 188.811 140.188 188.811 137.872C188.811 135.556 190.791 133.612 193.131 133.612C194.343 133.612 195.459 134.128 196.251 134.944L195.183 135.94C194.667 135.352 193.935 134.98 193.131 134.98C191.619 134.98 190.335 136.3 190.335 137.872C190.335 139.456 191.619 140.776 193.131 140.776C193.935 140.776 194.667 140.404 195.195 139.816L196.251 140.8C195.459 141.628 194.343 142.144 193.131 142.144ZM205.004 135.124H200.3V137.116H204.548V138.484H200.3V140.632H205.004V142H198.8V133.756H205.004V135.124ZM209.304 140.632H213.54V142H207.816V133.756H209.304V140.632Z" fill="#2EC0FF"/>
<path d="M150 120.5H223C224.933 120.5 226.5 122.067 226.5 124V152C226.5 153.933 224.933 155.5 223 155.5H150C148.067 155.5 146.5 153.933 146.5 152V124C146.5 122.067 148.067 120.5 150 120.5Z" stroke="#2EC0FF"/>
<defs>
<filter id="filter0_d_10499_14188" x="0" y="0" width="663" height="200" filterUnits="userSpaceOnUse" color-interpolation-filters="sRGB">
<feFlood flood-opacity="0" result="BackgroundImageFix"/>
<feColorMatrix in="SourceAlpha" type="matrix" values="0 0 0 0 0 0 0 0 0 0 0 0 0 0 0 0 0 0 127 0" result="hardAlpha"/>
<feOffset dy="4"/>
<feGaussianBlur stdDeviation="2"/>
<feComposite in2="hardAlpha" operator="out"/>
<feColorMatrix type="matrix" values="0 0 0 0 0.105 0 0 0 0 0.168 0 0 0 0 0.195 0 0 0 0.25 0"/>
<feBlend mode="normal" in2="BackgroundImageFix" result="effect1_dropShadow_10499_14188"/>
<feBlend mode="normal" in="SourceGraphic" in2="effect1_dropShadow_10499_14188" result="shape"/>
</filter>
</defs>
</svg>
