<svg width="432" height="123" viewBox="0 0 432 123" fill="none" xmlns="http://www.w3.org/2000/svg">
<g filter="url(#filter0_d_10487_5941)">
<rect x="4" width="424" height="115" rx="4" fill="#22343C"/>
<rect x="4.5" y="0.5" width="423" height="114" rx="3.5" stroke="#67777E"/>
</g>
<path fill-rule="evenodd" clip-rule="evenodd" d="M33.0002 16.3333C27.1091 16.3333 22.3335 21.1089 22.3335 26.9999C22.3335 32.891 27.1091 37.6666 33.0002 37.6666C38.8912 37.6666 43.6668 32.891 43.6668 26.9999C43.6668 24.1709 42.543 21.4578 40.5426 19.4574C38.5422 17.4571 35.8291 16.3333 33.0002 16.3333ZM33.0002 36.3333C27.8455 36.3333 23.6668 32.1546 23.6668 26.9999C23.6668 21.8453 27.8455 17.6666 33.0002 17.6666C38.1548 17.6666 42.3335 21.8453 42.3335 26.9999C42.3335 29.4753 41.3502 31.8492 39.5998 33.5996C37.8495 35.3499 35.4755 36.3333 33.0002 36.3333ZM38.7268 23.0666C38.9869 22.8081 39.4068 22.8081 39.6668 23.0666C39.793 23.1918 39.864 23.3622 39.864 23.5399C39.864 23.7177 39.793 23.8881 39.6668 24.0133L31.3268 32.3333L26.3335 27.3533C26.0794 27.0789 26.0959 26.6506 26.3702 26.3966C26.6445 26.1425 27.0728 26.1589 27.3268 26.4333L31.3268 30.4333L38.7268 23.0666Z" fill="#67CA16"/>
<path d="M376.627 27L380.311 23.3155C380.462 23.1392 380.452 22.8763 380.288 22.7122C380.124 22.548 379.861 22.5379 379.685 22.6889L376 26.3733L372.316 22.6844C372.141 22.5101 371.859 22.5101 371.685 22.6844C371.51 22.8587 371.51 23.1413 371.685 23.3155L375.374 27L371.685 30.6844C371.558 30.793 371.503 30.9636 371.542 31.1259C371.581 31.2883 371.707 31.4151 371.87 31.4541C372.032 31.4932 372.203 31.4379 372.311 31.3111L376 27.6266L379.685 31.3111C379.861 31.4621 380.124 31.4519 380.288 31.2878C380.452 31.1236 380.462 30.8608 380.311 30.6844L376.627 27Z" fill="#F1F6F8"/>
<path d="M409.12 24.9915L404 30.2893L398.88 24.9915C398.59 24.6908 398.599 24.2123 398.9 23.9226C399.201 23.633 399.679 23.642 399.969 23.9426L404 28.116L408.036 23.9426C408.325 23.642 408.804 23.633 409.104 23.9226C409.405 24.2123 409.414 24.6908 409.124 24.9915H409.12Z" fill="#F1F6F8"/>
<path d="M60.834 31L59.868 28.816H54.506L53.54 31H52.35L56.592 21.382H57.782L62.024 31H60.834ZM54.954 27.78H59.42L57.194 22.726L54.954 27.78ZM68.899 21.214H69.949V31H68.899V29.642C68.353 30.594 67.429 31.168 66.267 31.168C64.363 31.168 62.935 29.6 62.935 27.374C62.935 25.162 64.363 23.594 66.267 23.594C67.429 23.594 68.353 24.168 68.899 25.12V21.214ZM66.463 30.23C67.891 30.23 68.899 29.04 68.899 27.374C68.899 25.708 67.891 24.532 66.463 24.532C65.049 24.532 64.041 25.708 64.041 27.374C64.041 29.04 65.049 30.23 66.463 30.23ZM77.6857 21.214H78.7357V31H77.6857V29.642C77.1397 30.594 76.2157 31.168 75.0537 31.168C73.1497 31.168 71.7217 29.6 71.7217 27.374C71.7217 25.162 73.1497 23.594 75.0537 23.594C76.2157 23.594 77.1397 24.168 77.6857 25.12V21.214ZM75.2497 30.23C76.6777 30.23 77.6857 29.04 77.6857 27.374C77.6857 25.708 76.6777 24.532 75.2497 24.532C73.8357 24.532 72.8277 25.708 72.8277 27.374C72.8277 29.04 73.8357 30.23 75.2497 30.23ZM81.0544 27.71V26.688H84.6804V27.71H81.0544ZM91.4917 31.168C88.8317 31.168 86.5637 28.886 86.5637 26.184C86.5637 23.482 88.8317 21.214 91.4917 21.214C94.1657 21.214 96.4057 23.482 96.4057 26.184C96.4057 28.886 94.1657 31.168 91.4917 31.168ZM91.4917 30.16C93.5637 30.16 95.2997 28.34 95.2997 26.184C95.2997 24.042 93.5637 22.222 91.4917 22.222C89.4197 22.222 87.6697 24.042 87.6697 26.184C87.6697 28.34 89.4197 30.16 91.4917 30.16ZM101.757 23.594C103.367 23.594 104.473 24.728 104.473 26.394V31H103.423V26.534C103.423 25.344 102.681 24.532 101.617 24.532C100.385 24.532 99.3774 25.372 99.3774 26.394V31H98.3274V23.762H99.3774V24.91C99.7974 24.14 100.721 23.594 101.757 23.594ZM112.981 23.594C114.955 23.594 115.921 24.84 115.921 26.59V31H114.871V29.866C114.353 30.72 113.275 31.168 112.323 31.168C110.797 31.168 109.677 30.286 109.677 28.858C109.677 27.416 110.965 26.45 112.519 26.45C113.303 26.45 114.129 26.618 114.871 26.856V26.59C114.871 25.61 114.479 24.49 112.911 24.49C112.183 24.49 111.455 24.812 110.797 25.148L110.377 24.294C111.413 23.776 112.281 23.594 112.981 23.594ZM112.505 30.244C113.457 30.244 114.591 29.754 114.871 28.732V27.626C114.213 27.444 113.471 27.332 112.687 27.332C111.609 27.332 110.699 27.948 110.699 28.816C110.699 29.712 111.483 30.244 112.505 30.244ZM120.884 29.936L121.402 30.706C121.024 31 120.548 31.168 120.058 31.168C119.022 31.168 118.294 30.398 118.294 29.32V24.7H117.16V23.762H118.294V21.774L119.344 21.774V23.762L121.122 23.762V24.7L119.344 24.7V29.32C119.344 29.852 119.708 30.23 120.128 30.23C120.45 30.23 120.73 30.104 120.884 29.936ZM125.61 29.936L126.128 30.706C125.75 31 125.274 31.168 124.784 31.168C123.748 31.168 123.02 30.398 123.02 29.32V24.7H121.886V23.762H123.02V21.774H124.07V23.762H125.848V24.7H124.07V29.32C124.07 29.852 124.434 30.23 124.854 30.23C125.176 30.23 125.456 30.104 125.61 29.936ZM130.126 23.594C132.1 23.594 133.066 24.84 133.066 26.59V31H132.016V29.866C131.498 30.72 130.42 31.168 129.468 31.168C127.942 31.168 126.822 30.286 126.822 28.858C126.822 27.416 128.11 26.45 129.664 26.45C130.448 26.45 131.274 26.618 132.016 26.856V26.59C132.016 25.61 131.624 24.49 130.056 24.49C129.328 24.49 128.6 24.812 127.942 25.148L127.522 24.294C128.558 23.776 129.426 23.594 130.126 23.594ZM129.65 30.244C130.602 30.244 131.736 29.754 132.016 28.732V27.626C131.358 27.444 130.616 27.332 129.832 27.332C128.754 27.332 127.844 27.948 127.844 28.816C127.844 29.712 128.628 30.244 129.65 30.244ZM138.337 31.168C136.307 31.168 134.585 29.432 134.585 27.374C134.585 25.316 136.307 23.594 138.337 23.594C139.317 23.594 140.227 24 140.913 24.658L140.185 25.372C139.709 24.854 139.051 24.532 138.337 24.532C136.895 24.532 135.691 25.834 135.691 27.374C135.691 28.928 136.895 30.23 138.337 30.23C139.065 30.23 139.737 29.894 140.227 29.348L140.955 30.062C140.269 30.748 139.345 31.168 138.337 31.168ZM145.819 23.594C147.429 23.594 148.535 24.728 148.535 26.394V31H147.485V26.534C147.485 25.344 146.743 24.532 145.679 24.532C144.447 24.532 143.439 25.372 143.439 26.394V31H142.389V21.214H143.439V24.91C143.859 24.14 144.783 23.594 145.819 23.594ZM153.749 30.23C154.603 30.23 155.583 29.852 156.031 29.362L156.675 30.048C156.045 30.734 154.771 31.168 153.763 31.168C151.831 31.168 150.095 29.586 150.095 27.36C150.095 25.204 151.719 23.594 153.665 23.594C155.849 23.594 157.095 25.246 157.095 27.78H151.173C151.327 29.194 152.321 30.23 153.749 30.23ZM153.707 24.532C152.419 24.532 151.383 25.442 151.187 26.842H156.059C155.919 25.54 155.149 24.532 153.707 24.532ZM164.163 21.214H165.213V31H164.163V29.642C163.617 30.594 162.693 31.168 161.531 31.168C159.627 31.168 158.199 29.6 158.199 27.374C158.199 25.162 159.627 23.594 161.531 23.594C162.693 23.594 163.617 24.168 164.163 25.12V21.214ZM161.727 30.23C163.155 30.23 164.163 29.04 164.163 27.374C164.163 25.708 163.155 24.532 161.727 24.532C160.313 24.532 159.305 25.708 159.305 27.374C159.305 29.04 160.313 30.23 161.727 30.23ZM174.102 29.936L174.62 30.706C174.242 31 173.766 31.168 173.276 31.168C172.24 31.168 171.512 30.398 171.512 29.32V24.7H170.378V23.762H171.512V21.774H172.562V23.762H174.34V24.7H172.562V29.32C172.562 29.852 172.926 30.23 173.346 30.23C173.668 30.23 173.948 30.104 174.102 29.936ZM179.136 31.168C177.078 31.168 175.398 29.46 175.398 27.374C175.398 25.288 177.078 23.594 179.136 23.594C181.18 23.594 182.86 25.288 182.86 27.374C182.86 29.46 181.18 31.168 179.136 31.168ZM179.136 30.23C180.578 30.23 181.768 28.942 181.768 27.374C181.768 25.806 180.578 24.532 179.136 24.532C177.68 24.532 176.49 25.806 176.49 27.374C176.49 28.942 177.68 30.23 179.136 30.23ZM188.632 31V21.382L189.724 21.382L193.294 28.088L196.864 21.382H197.956V31H196.864V23.734L193.294 30.44L189.724 23.734V31H188.632ZM201.227 33.52C200.807 33.52 200.415 33.436 200.079 33.282L200.331 32.386C200.583 32.512 200.877 32.568 201.185 32.568C201.647 32.568 201.955 32.414 202.235 31.924L202.655 31.028L199.505 23.762H200.667L203.201 29.782L205.595 23.762H206.729L203.425 31.812C202.921 33.044 202.221 33.506 201.227 33.52ZM207.989 27.71V26.688H211.615V27.71L207.989 27.71ZM217.152 31.154C215.57 31.154 214.324 30.58 213.358 29.628L214.044 28.774C214.856 29.586 215.85 30.16 217.194 30.16C218.678 30.16 219.434 29.348 219.434 28.48C219.434 27.458 218.524 27.052 216.844 26.66C214.912 26.212 213.694 25.61 213.694 23.944C213.694 22.404 215.066 21.214 216.914 21.214C218.342 21.214 219.406 21.774 220.288 22.586L219.616 23.44C218.818 22.67 217.866 22.208 216.858 22.208C215.668 22.208 214.8 22.978 214.8 23.86C214.8 24.854 215.752 25.204 217.39 25.596C219.224 26.03 220.54 26.688 220.54 28.382C220.54 29.908 219.392 31.154 217.152 31.154ZM222.712 31V21.382H225.96C229.012 21.382 231.168 23.37 231.168 26.184C231.168 28.998 229.012 31 225.96 31H222.712ZM223.804 30.006H225.96C228.368 30.006 230.062 28.424 230.062 26.184C230.062 23.958 228.368 22.376 225.96 22.376H223.804V30.006ZM237.558 31.168C234.898 31.168 232.63 28.886 232.63 26.184C232.63 23.482 234.898 21.214 237.558 21.214C238.888 21.214 240.12 21.774 241.016 22.684L240.274 23.44C239.574 22.698 238.608 22.222 237.558 22.222C235.486 22.222 233.736 24.042 233.736 26.184C233.736 28.34 235.486 30.16 237.558 30.16C238.608 30.16 239.574 29.684 240.274 28.942L241.016 29.698C240.12 30.594 238.888 31.168 237.558 31.168ZM247.151 31.168C244.491 31.168 242.223 28.886 242.223 26.184C242.223 23.482 244.491 21.214 247.151 21.214C248.481 21.214 249.713 21.774 250.609 22.684L249.867 23.44C249.167 22.698 248.201 22.222 247.151 22.222C245.079 22.222 243.329 24.042 243.329 26.184C243.329 28.34 245.079 30.16 247.151 30.16C248.201 30.16 249.167 29.684 249.867 28.942L250.609 29.698C249.713 30.594 248.481 31.168 247.151 31.168Z" fill="white"/>
<path d="M60.4 71L59.644 69.18H55.052L54.296 71H52.35L56.368 61.382H58.314L62.332 71H60.4ZM55.654 67.752H59.042L57.348 63.706L55.654 67.752ZM66.9597 71.168C64.8597 71.168 63.0817 69.432 63.0817 67.374C63.0817 65.316 64.8597 63.594 66.9737 63.594C68.0797 63.594 69.0317 64.056 69.7177 64.77L68.5697 65.778C68.1777 65.344 67.5757 65.05 66.9597 65.05C65.7697 65.05 64.7757 66.114 64.7757 67.374C64.7757 68.648 65.7697 69.712 66.9597 69.712C67.5897 69.712 68.2057 69.418 68.6117 68.956L69.7597 69.95C69.0597 70.692 68.0937 71.168 66.9597 71.168ZM74.4082 69.446L74.8982 70.594C74.4922 70.944 73.9042 71.168 73.3442 71.168C72.1542 71.168 71.3142 70.3 71.3142 69.082V65.176H70.2642V63.762H71.3142V61.774H72.9662V63.762H74.6042V65.176H72.9662V68.872C72.9662 69.362 73.2882 69.712 73.6942 69.712C73.9882 69.712 74.2542 69.6 74.4082 69.446ZM77.0516 62.67C76.5056 62.67 76.0716 62.208 76.0716 61.69C76.0716 61.172 76.5056 60.724 77.0516 60.724C77.5836 60.724 78.0176 61.172 78.0176 61.69C78.0176 62.208 77.5836 62.67 77.0516 62.67ZM76.1976 71V63.762H77.9056V71H76.1976ZM82.1514 71L79.0294 63.762H80.8494L82.9494 69.026L85.0074 63.762H86.8134L83.7474 71H82.1514ZM90.8448 63.594C92.7628 63.594 93.9388 64.812 93.9388 66.646V71H92.2728V70.146C91.7408 70.804 90.8448 71.168 90.0048 71.168C88.4648 71.168 87.3168 70.258 87.3168 68.858C87.3168 67.43 88.6188 66.45 90.2568 66.45C90.9148 66.45 91.6148 66.59 92.2728 66.828V66.646C92.2728 65.806 91.8248 64.994 90.5088 64.994C89.8228 64.994 89.1648 65.232 88.5488 65.54L87.9608 64.35C88.9828 63.846 89.9348 63.594 90.8448 63.594ZM90.3828 69.922C91.2088 69.922 92.0908 69.502 92.2728 68.732V67.906C91.7408 67.738 91.1388 67.64 90.5088 67.64C89.6548 67.64 88.9548 68.116 88.9548 68.802C88.9548 69.488 89.5708 69.922 90.3828 69.922ZM99.2055 69.446L99.6955 70.594C99.2895 70.944 98.7015 71.168 98.1415 71.168C96.9515 71.168 96.1115 70.3 96.1115 69.082V65.176H95.0615V63.762H96.1115V61.774H97.7635V63.762H99.4015V65.176H97.7635V68.872C97.7635 69.362 98.0855 69.712 98.4915 69.712C98.7855 69.712 99.0515 69.6 99.2055 69.446ZM101.849 62.67C101.303 62.67 100.869 62.208 100.869 61.69C100.869 61.172 101.303 60.724 101.849 60.724C102.381 60.724 102.815 61.172 102.815 61.69C102.815 62.208 102.381 62.67 101.849 62.67ZM100.995 71V63.762H102.703V71H100.995ZM108.685 63.594C110.281 63.594 111.387 64.742 111.387 66.394V71H109.721V66.73C109.721 65.736 109.105 65.05 108.209 65.05C107.229 65.05 106.445 65.736 106.445 66.618V71H104.737V63.762H106.445V64.742C106.879 64.056 107.719 63.594 108.685 63.594ZM118.444 63.762H120.166V70.23C120.166 72.092 118.598 73.408 116.386 73.408C115.14 73.408 113.978 73.002 113.278 72.442L113.908 71.196C114.412 71.658 115.266 71.952 116.12 71.952C117.548 71.952 118.444 71.266 118.444 70.174V69.25C117.87 70.02 116.988 70.468 115.966 70.468C114.104 70.468 112.718 69.04 112.718 67.024C112.718 65.008 114.104 63.594 115.966 63.594C117.002 63.594 117.926 64.07 118.444 64.826V63.762ZM116.456 69.012C117.618 69.012 118.444 68.186 118.444 67.024C118.444 65.876 117.618 65.05 116.456 65.05C115.308 65.05 114.482 65.876 114.482 67.024C114.482 68.186 115.308 69.012 116.456 69.012ZM133.238 71L132.482 69.18H127.89L127.134 71H125.188L129.206 61.382H131.152L135.17 71H133.238ZM128.492 67.752H131.88L130.186 63.706L128.492 67.752ZM141.827 61.214H143.535V71H141.827V69.852C141.267 70.678 140.385 71.168 139.321 71.168C137.389 71.168 135.989 69.6 135.989 67.374C135.989 65.162 137.389 63.594 139.321 63.594C140.385 63.594 141.267 64.084 141.827 64.896V61.214ZM139.769 69.712C140.973 69.712 141.813 68.732 141.813 67.374C141.813 66.016 140.973 65.05 139.769 65.05C138.551 65.05 137.683 66.016 137.683 67.374C137.683 68.732 138.551 69.712 139.769 69.712ZM150.915 61.214H152.623V71H150.915V69.852C150.355 70.678 149.473 71.168 148.409 71.168C146.477 71.168 145.077 69.6 145.077 67.374C145.077 65.162 146.477 63.594 148.409 63.594C149.473 63.594 150.355 64.084 150.915 64.896V61.214ZM148.857 69.712C150.061 69.712 150.901 68.732 150.901 67.374C150.901 66.016 150.061 65.05 148.857 65.05C147.639 65.05 146.771 66.016 146.771 67.374C146.771 68.732 147.639 69.712 148.857 69.712ZM154.64 67.906V66.408H158.406V67.906H154.64ZM163.751 71.168C161.609 71.168 159.859 69.46 159.859 67.374C159.859 65.288 161.609 63.594 163.751 63.594C165.879 63.594 167.615 65.288 167.615 67.374C167.615 69.46 165.879 71.168 163.751 71.168ZM163.751 69.712C164.955 69.712 165.949 68.662 165.949 67.374C165.949 66.086 164.955 65.05 163.751 65.05C162.533 65.05 161.539 66.086 161.539 67.374C161.539 68.662 162.533 69.712 163.751 69.712ZM173.045 63.594C174.641 63.594 175.747 64.742 175.747 66.394V71H174.081V66.73C174.081 65.736 173.465 65.05 172.569 65.05C171.589 65.05 170.805 65.736 170.805 66.618V71H169.097V63.762H170.805V64.742C171.239 64.056 172.079 63.594 173.045 63.594Z" fill="white"/>
<path d="M186 70.12C184.91 70.12 184.08 69.68 183.5 69.04L184.13 68.32C184.65 68.87 185.29 69.23 186.02 69.23C186.91 69.23 187.52 68.63 187.52 67.86C187.52 67.07 186.9 66.54 186.01 66.54C185.44 66.54 184.96 66.73 184.55 67.04L183.84 66.72L183.94 63.13H188.16V64.07H184.9L184.84 66.11C185.2 65.87 185.66 65.67 186.26 65.67C187.5 65.67 188.53 66.45 188.53 67.82C188.53 69.21 187.48 70.12 186 70.12ZM199.37 64.71C200.45 64.71 201.23 65.54 201.23 66.71V70H200.27V66.86C200.27 66.1 199.81 65.57 199.17 65.57C198.43 65.57 197.9 66.06 197.9 66.77V70H196.93V66.86C196.93 66.1 196.48 65.57 195.84 65.57C195.09 65.57 194.57 66.06 194.57 66.77V70H193.58V64.83H194.57V65.57C194.83 65.04 195.37 64.71 196.04 64.71C196.86 64.71 197.51 65.19 197.77 65.94C197.93 65.21 198.56 64.71 199.37 64.71ZM203.74 63.97C203.41 63.97 203.14 63.69 203.14 63.37C203.14 63.06 203.41 62.78 203.74 62.78C204.07 62.78 204.33 63.06 204.33 63.37C204.33 63.69 204.07 63.97 203.74 63.97ZM203.24 70V64.83H204.23V70H203.24ZM208.987 64.71C210.127 64.71 210.917 65.52 210.917 66.71V70H209.957V66.88C209.957 66.1 209.467 65.57 208.767 65.57C207.977 65.57 207.337 66.11 207.337 66.79V70H206.347V64.83H207.337V65.59C207.637 65.07 208.277 64.71 208.987 64.71ZM216.401 64.83H217.391V70H216.401V69.26C216.091 69.77 215.461 70.12 214.751 70.12C213.611 70.12 212.821 69.31 212.821 68.12V64.83L213.791 64.83V67.95C213.791 68.73 214.281 69.26 214.981 69.26C215.771 69.26 216.401 68.72 216.401 68.04V64.83ZM221.735 69.07L222.105 69.75C221.825 69.98 221.435 70.12 221.065 70.12C220.265 70.12 219.705 69.54 219.705 68.71V65.67H218.935V64.83H219.705V63.41H220.675V64.83H221.895V65.67H220.675V68.64C220.675 69 220.925 69.26 221.215 69.26C221.435 69.26 221.635 69.18 221.735 69.07ZM225.888 69.3C226.448 69.3 227.098 69.05 227.418 68.71L227.998 69.32C227.548 69.81 226.638 70.12 225.908 70.12C224.478 70.12 223.238 68.99 223.238 67.4C223.238 65.85 224.408 64.71 225.838 64.71C227.418 64.71 228.338 65.89 228.338 67.73H224.208C224.328 68.64 224.968 69.3 225.888 69.3ZM225.858 65.53C225.028 65.53 224.368 66.11 224.218 67H227.378C227.278 66.17 226.758 65.53 225.858 65.53ZM231.698 70.12C230.938 70.12 230.118 69.85 229.498 69.35L229.948 68.67C230.518 69.09 231.138 69.32 231.708 69.32C232.328 69.32 232.718 69.04 232.718 68.62C232.718 68.13 232.178 67.97 231.518 67.79C230.338 67.46 229.738 67.12 229.738 66.28C229.738 65.33 230.528 64.71 231.618 64.71C232.288 64.71 232.978 64.94 233.528 65.31L233.118 66.01C232.608 65.69 232.088 65.51 231.618 65.51C231.098 65.51 230.678 65.74 230.678 66.17C230.678 66.57 231.028 66.69 231.908 66.96C232.758 67.21 233.658 67.49 233.658 68.52C233.658 69.5 232.838 70.12 231.698 70.12ZM238.605 70V63.01H239.595V70H238.605ZM243.962 69.3C244.522 69.3 245.172 69.05 245.492 68.71L246.072 69.32C245.622 69.81 244.712 70.12 243.982 70.12C242.552 70.12 241.312 68.99 241.312 67.4C241.312 65.85 242.482 64.71 243.912 64.71C245.492 64.71 246.412 65.89 246.412 67.73H242.282C242.402 68.64 243.042 69.3 243.962 69.3ZM243.932 65.53C243.102 65.53 242.442 66.11 242.292 67H245.452C245.352 66.17 244.832 65.53 243.932 65.53ZM249.252 64.26V64.83H250.472V65.67H249.252V70H248.282V65.67H247.502V64.83H248.282V64.21C248.282 63.38 248.842 62.8 249.642 62.8C250.012 62.8 250.392 62.94 250.672 63.17L250.312 63.83C250.202 63.72 250.002 63.64 249.782 63.64C249.492 63.64 249.252 63.9 249.252 64.26ZM254.122 69.07L254.492 69.75C254.212 69.98 253.822 70.12 253.452 70.12C252.652 70.12 252.092 69.54 252.092 68.71V65.67H251.322V64.83H252.092V63.41H253.062V64.83H254.282V65.67H253.062V68.64C253.062 69 253.312 69.26 253.602 69.26C253.822 69.26 254.022 69.18 254.122 69.07Z" fill="#ACB8BE"/>
<path fill-rule="evenodd" clip-rule="evenodd" d="M52.1831 83H414.802V95H52.1831V83Z" fill="#2D4048"/>
<path fill-rule="evenodd" clip-rule="evenodd" d="M52.1831 83H193.355V95H52.1831V83Z" fill="#2EC0FF"/>
<defs>
<filter id="filter0_d_10487_5941" x="0" y="0" width="432" height="123" filterUnits="userSpaceOnUse" color-interpolation-filters="sRGB">
<feFlood flood-opacity="0" result="BackgroundImageFix"/>
<feColorMatrix in="SourceAlpha" type="matrix" values="0 0 0 0 0 0 0 0 0 0 0 0 0 0 0 0 0 0 127 0" result="hardAlpha"/>
<feOffset dy="4"/>
<feGaussianBlur stdDeviation="2"/>
<feComposite in2="hardAlpha" operator="out"/>
<feColorMatrix type="matrix" values="0 0 0 0 0.105 0 0 0 0 0.168 0 0 0 0 0.195 0 0 0 0.25 0"/>
<feBlend mode="normal" in2="BackgroundImageFix" result="effect1_dropShadow_10487_5941"/>
<feBlend mode="normal" in="SourceGraphic" in2="effect1_dropShadow_10487_5941" result="shape"/>
</filter>
</defs>
</svg>
