<svg width="432" height="147" viewBox="0 0 432 147" fill="none" xmlns="http://www.w3.org/2000/svg">
<g filter="url(#filter0_d_10442_5843)">
<rect x="4" width="424" height="139" rx="4" fill="#22343C"/>
<rect x="4.5" y="0.5" width="423" height="138" rx="3.5" stroke="#67777E"/>
</g>
<path d="M45.526 80V70.382H48.774C51.826 70.382 53.982 72.37 53.982 75.184C53.982 77.998 51.826 80 48.774 80H45.526ZM46.618 79.006H48.774C51.182 79.006 52.876 77.424 52.876 75.184C52.876 72.958 51.182 71.376 48.774 71.376H46.618V79.006ZM58.9298 79.23C59.7838 79.23 60.7638 78.852 61.2118 78.362L61.8558 79.048C61.2258 79.734 59.9518 80.168 58.9438 80.168C57.0118 80.168 55.2758 78.586 55.2758 76.36C55.2758 74.204 56.8998 72.594 58.8458 72.594C61.0298 72.594 62.2758 74.246 62.2758 76.78H56.3538C56.5078 78.194 57.5018 79.23 58.9298 79.23ZM58.8878 73.532C57.5998 73.532 56.5638 74.442 56.3678 75.842H61.2398C61.0998 74.54 60.3298 73.532 58.8878 73.532ZM66.7399 78.936L67.2579 79.706C66.8799 80 66.4039 80.168 65.9139 80.168C64.8779 80.168 64.1499 79.398 64.1499 78.32V73.7H63.0159V72.762H64.1499V70.774H65.1999V72.762H66.9779V73.7H65.1999V78.32C65.1999 78.852 65.5639 79.23 65.9839 79.23C66.3059 79.23 66.5859 79.104 66.7399 78.936ZM71.718 79.23C72.572 79.23 73.552 78.852 74 78.362L74.644 79.048C74.014 79.734 72.74 80.168 71.732 80.168C69.8 80.168 68.064 78.586 68.064 76.36C68.064 74.204 69.688 72.594 71.634 72.594C73.818 72.594 75.064 74.246 75.064 76.78H69.142C69.296 78.194 70.29 79.23 71.718 79.23ZM71.676 73.532C70.388 73.532 69.352 74.442 69.156 75.842H74.028C73.888 74.54 73.118 73.532 71.676 73.532ZM79.8362 80.168C77.8062 80.168 76.0842 78.432 76.0842 76.374C76.0842 74.316 77.8062 72.594 79.8362 72.594C80.8162 72.594 81.7262 73 82.4122 73.658L81.6842 74.372C81.2082 73.854 80.5502 73.532 79.8362 73.532C78.3942 73.532 77.1902 74.834 77.1902 76.374C77.1902 77.928 78.3942 79.23 79.8362 79.23C80.5642 79.23 81.2362 78.894 81.7262 78.348L82.4542 79.062C81.7682 79.748 80.8442 80.168 79.8362 80.168ZM86.6879 78.936L87.2059 79.706C86.8279 80 86.3519 80.168 85.8619 80.168C84.8259 80.168 84.0979 79.398 84.0979 78.32V73.7H82.9639V72.762H84.0979V70.774H85.1479V72.762H86.9259V73.7H85.1479V78.32C85.1479 78.852 85.5119 79.23 85.9319 79.23C86.2539 79.23 86.5339 79.104 86.6879 78.936ZM89.1461 71.446C88.7541 71.446 88.4461 71.124 88.4461 70.746C88.4461 70.382 88.7541 70.06 89.1461 70.06C89.5241 70.06 89.8321 70.382 89.8321 70.746C89.8321 71.124 89.5241 71.446 89.1461 71.446ZM88.6141 80V72.762H89.6641V80H88.6141ZM95.4304 72.594C97.0404 72.594 98.1464 73.728 98.1464 75.394V80H97.0964V75.534C97.0964 74.344 96.3544 73.532 95.2904 73.532C94.0584 73.532 93.0504 74.372 93.0504 75.394V80H92.0004V72.762H93.0504V73.91C93.4704 73.14 94.3944 72.594 95.4304 72.594ZM105.643 72.762H106.693V79.23C106.693 81.092 105.223 82.408 103.137 82.408C101.961 82.408 100.869 82.002 100.211 81.442L100.673 80.616C101.233 81.148 102.101 81.47 102.997 81.47C104.663 81.47 105.643 80.644 105.643 79.23V78.054C105.083 78.936 104.159 79.468 103.011 79.468C101.065 79.468 99.6786 78.04 99.6786 76.024C99.6786 74.008 101.065 72.594 103.011 72.594C104.159 72.594 105.083 73.126 105.643 74.008V72.762ZM103.207 78.53C104.635 78.53 105.643 77.494 105.643 76.024C105.643 74.568 104.635 73.532 103.207 73.532C101.793 73.532 100.785 74.568 100.785 76.024C100.785 77.494 101.793 78.53 103.207 78.53ZM116.002 80.154C114.42 80.154 113.174 79.58 112.208 78.628L112.894 77.774C113.706 78.586 114.7 79.16 116.044 79.16C117.528 79.16 118.284 78.348 118.284 77.48C118.284 76.458 117.374 76.052 115.694 75.66C113.762 75.212 112.544 74.61 112.544 72.944C112.544 71.404 113.916 70.214 115.764 70.214C117.192 70.214 118.256 70.774 119.138 71.586L118.466 72.44C117.668 71.67 116.716 71.208 115.708 71.208C114.518 71.208 113.65 71.978 113.65 72.86C113.65 73.854 114.602 74.204 116.24 74.596C118.074 75.03 119.39 75.688 119.39 77.382C119.39 78.908 118.242 80.154 116.002 80.154ZM121.563 80V70.382H124.811C127.863 70.382 130.019 72.37 130.019 75.184C130.019 77.998 127.863 80 124.811 80H121.563ZM122.655 79.006H124.811C127.219 79.006 128.913 77.424 128.913 75.184C128.913 72.958 127.219 71.376 124.811 71.376H122.655V79.006ZM132.222 80V70.382H135.47C138.522 70.382 140.678 72.37 140.678 75.184C140.678 77.998 138.522 80 135.47 80H132.222ZM133.314 79.006H135.47C137.878 79.006 139.572 77.424 139.572 75.184C139.572 72.958 137.878 71.376 135.47 71.376H133.314V79.006ZM147.068 80.168C144.408 80.168 142.14 77.886 142.14 75.184C142.14 72.482 144.408 70.214 147.068 70.214C148.398 70.214 149.63 70.774 150.526 71.684L149.784 72.44C149.084 71.698 148.118 71.222 147.068 71.222C144.996 71.222 143.246 73.042 143.246 75.184C143.246 77.34 144.996 79.16 147.068 79.16C148.118 79.16 149.084 78.684 149.784 77.942L150.526 78.698C149.63 79.594 148.398 80.168 147.068 80.168ZM160.417 80.168C157.757 80.168 155.489 77.886 155.489 75.184C155.489 72.482 157.757 70.214 160.417 70.214C161.747 70.214 162.979 70.774 163.875 71.684L163.133 72.44C162.433 71.698 161.467 71.222 160.417 71.222C158.345 71.222 156.595 73.042 156.595 75.184C156.595 77.34 158.345 79.16 160.417 79.16C161.467 79.16 162.433 78.684 163.133 77.942L163.875 78.698C162.979 79.594 161.747 80.168 160.417 80.168ZM168.106 72.594C170.08 72.594 171.046 73.84 171.046 75.59V80H169.996V78.866C169.478 79.72 168.4 80.168 167.448 80.168C165.922 80.168 164.802 79.286 164.802 77.858C164.802 76.416 166.09 75.45 167.644 75.45C168.428 75.45 169.254 75.618 169.996 75.856V75.59C169.996 74.61 169.604 73.49 168.036 73.49C167.308 73.49 166.58 73.812 165.922 74.148L165.502 73.294C166.538 72.776 167.406 72.594 168.106 72.594ZM167.63 79.244C168.582 79.244 169.716 78.754 169.996 77.732V76.626C169.338 76.444 168.596 76.332 167.812 76.332C166.734 76.332 165.824 76.948 165.824 77.816C165.824 78.712 166.608 79.244 167.63 79.244ZM176.891 72.594C178.795 72.594 180.223 74.162 180.223 76.374C180.223 78.6 178.795 80.168 176.891 80.168C175.729 80.168 174.805 79.594 174.259 78.642V82.408H173.209V72.762H174.259V74.12C174.805 73.168 175.729 72.594 176.891 72.594ZM176.695 79.23C178.109 79.23 179.117 78.04 179.117 76.374C179.117 74.708 178.109 73.532 176.695 73.532C175.267 73.532 174.259 74.708 174.259 76.374C174.259 78.04 175.267 79.23 176.695 79.23ZM184.586 72.594C186.56 72.594 187.526 73.84 187.526 75.59V80H186.476V78.866C185.958 79.72 184.88 80.168 183.928 80.168C182.402 80.168 181.282 79.286 181.282 77.858C181.282 76.416 182.57 75.45 184.124 75.45C184.908 75.45 185.734 75.618 186.476 75.856V75.59C186.476 74.61 186.084 73.49 184.516 73.49C183.788 73.49 183.06 73.812 182.402 74.148L181.982 73.294C183.018 72.776 183.886 72.594 184.586 72.594ZM184.11 79.244C185.062 79.244 186.196 78.754 186.476 77.732V76.626C185.818 76.444 185.076 76.332 184.292 76.332C183.214 76.332 182.304 76.948 182.304 77.816C182.304 78.712 183.088 79.244 184.11 79.244ZM193.371 72.594C195.275 72.594 196.703 74.162 196.703 76.374C196.703 78.6 195.275 80.168 193.371 80.168C192.209 80.168 191.285 79.594 190.739 78.642V80H189.689V70.214H190.739V74.12C191.285 73.168 192.209 72.594 193.371 72.594ZM193.175 79.23C194.589 79.23 195.597 78.04 195.597 76.374C195.597 74.708 194.589 73.532 193.175 73.532C191.747 73.532 190.739 74.708 190.739 76.374C190.739 78.04 191.747 79.23 193.175 79.23ZM199.008 71.446C198.616 71.446 198.308 71.124 198.308 70.746C198.308 70.382 198.616 70.06 199.008 70.06C199.386 70.06 199.694 70.382 199.694 70.746C199.694 71.124 199.386 71.446 199.008 71.446ZM198.476 80V72.762H199.526V80H198.476ZM201.862 80V70.214H202.912V80H201.862ZM205.78 71.446C205.388 71.446 205.08 71.124 205.08 70.746C205.08 70.382 205.388 70.06 205.78 70.06C206.158 70.06 206.466 70.382 206.466 70.746C206.466 71.124 206.158 71.446 205.78 71.446ZM205.248 80V72.762H206.298V80H205.248ZM211.435 78.936L211.953 79.706C211.575 80 211.099 80.168 210.609 80.168C209.573 80.168 208.845 79.398 208.845 78.32V73.7H207.711V72.762H208.845V70.774H209.895V72.762H211.673V73.7H209.895V78.32C209.895 78.852 210.259 79.23 210.679 79.23C211.001 79.23 211.281 79.104 211.435 78.936ZM213.991 82.52C213.571 82.52 213.179 82.436 212.843 82.282L213.095 81.386C213.347 81.512 213.641 81.568 213.949 81.568C214.411 81.568 214.719 81.414 214.999 80.924L215.419 80.028L212.269 72.762H213.431L215.965 78.782L218.359 72.762H219.493L216.189 80.812C215.685 82.044 214.985 82.506 213.991 82.52ZM230.728 82.38C228.852 80.812 227.802 78.698 227.802 76.29C227.802 73.868 228.852 71.768 230.728 70.2L231.288 70.788C229.762 72.356 228.922 73.994 228.922 76.29C228.922 78.572 229.762 80.224 231.288 81.778L230.728 82.38ZM233.99 80V71.712L232.31 72.804L231.834 71.992L234.2 70.382H235.082V80H233.99ZM236.457 81.036L241.371 69.598H242.561L237.647 81.036H236.457ZM246.613 80.168C245.129 80.168 244.009 79.538 243.225 78.642L243.939 77.844C244.681 78.656 245.591 79.188 246.655 79.188C247.985 79.188 248.923 78.264 248.923 77.046C248.923 75.814 247.971 74.974 246.627 74.974C245.801 74.974 245.087 75.268 244.485 75.716L243.687 75.324L243.827 70.382L249.511 70.382V71.418L244.891 71.418L244.793 74.652C245.311 74.302 245.969 74.008 246.851 74.008C248.587 74.008 250.029 75.1 250.029 77.004C250.029 78.908 248.587 80.168 246.613 80.168ZM251.578 82.38L251.018 81.778C252.544 80.224 253.384 78.572 253.384 76.29C253.384 73.994 252.544 72.356 251.018 70.788L251.578 70.2C253.454 71.768 254.504 73.868 254.504 76.29C254.504 78.698 253.454 80.812 251.578 82.38ZM257.43 80.168C256.996 80.168 256.66 79.818 256.66 79.398C256.66 79.006 256.996 78.656 257.43 78.656C257.836 78.656 258.172 79.006 258.172 79.398C258.172 79.818 257.836 80.168 257.43 80.168ZM261.869 80.168C261.435 80.168 261.099 79.818 261.099 79.398C261.099 79.006 261.435 78.656 261.869 78.656C262.275 78.656 262.611 79.006 262.611 79.398C262.611 79.818 262.275 80.168 261.869 80.168Z" fill="#E3EAED"/>
<path d="M262.14 118V109.756H265.032C267.756 109.756 269.676 111.46 269.676 113.872C269.676 116.284 267.756 118 265.032 118H262.14ZM263.628 116.644H265.188C266.928 116.644 268.152 115.492 268.152 113.872C268.152 112.252 266.928 111.112 265.188 111.112H263.628V116.644ZM272.421 118V109.756H273.909V118H272.421ZM280.051 118.132C278.647 118.132 277.435 117.652 276.523 116.8L277.399 115.732C278.155 116.416 279.031 116.848 280.111 116.848C281.119 116.848 281.647 116.344 281.647 115.756C281.647 115.072 281.059 114.844 279.739 114.532C278.035 114.136 276.859 113.644 276.859 112.096C276.859 110.656 278.083 109.612 279.811 109.612C281.119 109.612 282.115 110.056 282.931 110.764L282.115 111.856C281.407 111.244 280.579 110.896 279.763 110.896C278.923 110.896 278.371 111.388 278.371 111.964C278.371 112.636 278.971 112.876 280.279 113.176C281.995 113.56 283.147 114.112 283.147 115.612C283.147 117.088 282.031 118.132 280.051 118.132ZM285.847 118V109.756H287.335L290.059 114.784L292.771 109.756H294.271V118H292.771V112.492L290.059 117.52L287.335 112.492V118H285.847ZM297.535 118V109.756H299.023V118H297.535ZM305.164 118.132C303.76 118.132 302.548 117.652 301.636 116.8L302.512 115.732C303.268 116.416 304.144 116.848 305.224 116.848C306.232 116.848 306.76 116.344 306.76 115.756C306.76 115.072 306.172 114.844 304.852 114.532C303.148 114.136 301.972 113.644 301.972 112.096C301.972 110.656 303.196 109.612 304.924 109.612C306.232 109.612 307.228 110.056 308.044 110.764L307.228 111.856C306.52 111.244 305.692 110.896 304.876 110.896C304.036 110.896 303.484 111.388 303.484 111.964C303.484 112.636 304.084 112.876 305.392 113.176C307.108 113.56 308.26 114.112 308.26 115.612C308.26 117.088 307.144 118.132 305.164 118.132ZM313.816 118.132C312.412 118.132 311.2 117.652 310.288 116.8L311.164 115.732C311.92 116.416 312.796 116.848 313.876 116.848C314.884 116.848 315.412 116.344 315.412 115.756C315.412 115.072 314.824 114.844 313.504 114.532C311.8 114.136 310.624 113.644 310.624 112.096C310.624 110.656 311.848 109.612 313.576 109.612C314.884 109.612 315.88 110.056 316.696 110.764L315.88 111.856C315.172 111.244 314.344 110.896 313.528 110.896C312.688 110.896 312.136 111.388 312.136 111.964C312.136 112.636 312.736 112.876 314.044 113.176C315.76 113.56 316.912 114.112 316.912 115.612C316.912 117.088 315.796 118.132 313.816 118.132Z" fill="#2EC0FF"/>
<path d="M347.92 118.144C345.58 118.144 343.6 116.188 343.6 113.872C343.6 111.556 345.58 109.612 347.92 109.612C349.132 109.612 350.248 110.128 351.04 110.944L349.972 111.94C349.456 111.352 348.724 110.98 347.92 110.98C346.408 110.98 345.124 112.3 345.124 113.872C345.124 115.456 346.408 116.776 347.92 116.776C348.724 116.776 349.456 116.404 349.984 115.816L351.04 116.8C350.248 117.628 349.132 118.144 347.92 118.144ZM359.649 118L359.001 116.44H355.065L354.417 118H352.749L356.193 109.756H357.861L361.305 118H359.649ZM355.581 115.216H358.485L357.033 111.748L355.581 115.216ZM363.742 118V109.756H365.23L369.586 115.552V109.756H371.074V118H369.586L365.23 112.204V118H363.742ZM378.131 118.144C375.791 118.144 373.811 116.188 373.811 113.872C373.811 111.556 375.791 109.612 378.131 109.612C379.343 109.612 380.459 110.128 381.251 110.944L380.183 111.94C379.667 111.352 378.935 110.98 378.131 110.98C376.619 110.98 375.335 112.3 375.335 113.872C375.335 115.456 376.619 116.776 378.131 116.776C378.935 116.776 379.667 116.404 380.195 115.816L381.251 116.8C380.459 117.628 379.343 118.144 378.131 118.144ZM390.004 111.124H385.3V113.116H389.548V114.484H385.3V116.632H390.004V118H383.8V109.756H390.004V111.124ZM394.304 116.632H398.54V118H392.816V109.756H394.304V116.632Z" fill="#2EC0FF"/>
<path d="M27.9293 21.6715L23.6582 25.9648L27.9293 30.2582C28.0347 30.3965 28.211 30.4607 28.3806 30.4225C28.5503 30.3842 28.682 30.2506 28.7178 30.0804C28.7536 29.9103 28.6869 29.7348 28.5471 29.6315L25.3515 26.4093L33.8538 26.4093C34.0992 26.4093 34.2982 26.2103 34.2982 25.9648C34.2982 25.7194 34.0992 25.5204 33.8538 25.5204L25.3515 25.5204L28.5471 22.2981C28.7201 22.1239 28.7191 21.8423 28.5449 21.6693C28.3706 21.4962 28.089 21.4972 27.916 21.6715L27.9293 21.6715Z" fill="#F1F6F8"/>
<path d="M53.4 30L52.644 28.18H48.052L47.296 30H45.35L49.368 20.382H51.314L55.332 30H53.4ZM48.654 26.752H52.042L50.348 22.706L48.654 26.752ZM59.9597 30.168C57.8597 30.168 56.0817 28.432 56.0817 26.374C56.0817 24.316 57.8597 22.594 59.9737 22.594C61.0797 22.594 62.0317 23.056 62.7177 23.77L61.5697 24.778C61.1777 24.344 60.5757 24.05 59.9597 24.05C58.7697 24.05 57.7757 25.114 57.7757 26.374C57.7757 27.648 58.7697 28.712 59.9597 28.712C60.5897 28.712 61.2057 28.418 61.6117 27.956L62.7597 28.95C62.0597 29.692 61.0937 30.168 59.9597 30.168ZM67.4082 28.446L67.8982 29.594C67.4922 29.944 66.9042 30.168 66.3442 30.168C65.1542 30.168 64.3142 29.3 64.3142 28.082V24.176H63.2642V22.762H64.3142V20.774H65.9662V22.762H67.6042V24.176H65.9662V27.872C65.9662 28.362 66.2882 28.712 66.6942 28.712C66.9882 28.712 67.2542 28.6 67.4082 28.446ZM70.0516 21.67C69.5056 21.67 69.0716 21.208 69.0716 20.69C69.0716 20.172 69.5056 19.724 70.0516 19.724C70.5836 19.724 71.0176 20.172 71.0176 20.69C71.0176 21.208 70.5836 21.67 70.0516 21.67ZM69.1976 30V22.762H70.9056V30H69.1976ZM75.1514 30L72.0294 22.762H73.8494L75.9494 28.026L78.0074 22.762H79.8134L76.7474 30H75.1514ZM83.8448 22.594C85.7628 22.594 86.9388 23.812 86.9388 25.646V30H85.2728V29.146C84.7408 29.804 83.8448 30.168 83.0048 30.168C81.4648 30.168 80.3168 29.258 80.3168 27.858C80.3168 26.43 81.6188 25.45 83.2568 25.45C83.9148 25.45 84.6148 25.59 85.2728 25.828V25.646C85.2728 24.806 84.8248 23.994 83.5088 23.994C82.8228 23.994 82.1648 24.232 81.5488 24.54L80.9608 23.35C81.9828 22.846 82.9348 22.594 83.8448 22.594ZM83.3828 28.922C84.2088 28.922 85.0908 28.502 85.2728 27.732V26.906C84.7408 26.738 84.1388 26.64 83.5088 26.64C82.6548 26.64 81.9548 27.116 81.9548 27.802C81.9548 28.488 82.5708 28.922 83.3828 28.922ZM92.2055 28.446L92.6955 29.594C92.2895 29.944 91.7015 30.168 91.1415 30.168C89.9515 30.168 89.1115 29.3 89.1115 28.082V24.176H88.0615V22.762H89.1115V20.774H90.7635V22.762H92.4015V24.176H90.7635V27.872C90.7635 28.362 91.0855 28.712 91.4915 28.712C91.7855 28.712 92.0515 28.6 92.2055 28.446ZM94.8489 21.67C94.3029 21.67 93.8689 21.208 93.8689 20.69C93.8689 20.172 94.3029 19.724 94.8489 19.724C95.3809 19.724 95.8149 20.172 95.8149 20.69C95.8149 21.208 95.3809 21.67 94.8489 21.67ZM93.9949 30V22.762L95.7029 22.762V30H93.9949ZM101.685 22.594C103.281 22.594 104.387 23.742 104.387 25.394V30H102.721V25.73C102.721 24.736 102.105 24.05 101.209 24.05C100.229 24.05 99.4447 24.736 99.4447 25.618V30H97.7367V22.762H99.4447V23.742C99.8787 23.056 100.719 22.594 101.685 22.594ZM111.444 22.762L113.166 22.762V29.23C113.166 31.092 111.598 32.408 109.386 32.408C108.14 32.408 106.978 32.002 106.278 31.442L106.908 30.196C107.412 30.658 108.266 30.952 109.12 30.952C110.548 30.952 111.444 30.266 111.444 29.174V28.25C110.87 29.02 109.988 29.468 108.966 29.468C107.104 29.468 105.718 28.04 105.718 26.024C105.718 24.008 107.104 22.594 108.966 22.594C110.002 22.594 110.926 23.07 111.444 23.826V22.762ZM109.456 28.012C110.618 28.012 111.444 27.186 111.444 26.024C111.444 24.876 110.618 24.05 109.456 24.05C108.308 24.05 107.482 24.876 107.482 26.024C107.482 27.186 108.308 28.012 109.456 28.012ZM126.238 30L125.482 28.18L120.89 28.18L120.134 30H118.188L122.206 20.382H124.152L128.17 30H126.238ZM121.492 26.752L124.88 26.752L123.186 22.706L121.492 26.752ZM134.827 20.214H136.535V30H134.827V28.852C134.267 29.678 133.385 30.168 132.321 30.168C130.389 30.168 128.989 28.6 128.989 26.374C128.989 24.162 130.389 22.594 132.321 22.594C133.385 22.594 134.267 23.084 134.827 23.896V20.214ZM132.769 28.712C133.973 28.712 134.813 27.732 134.813 26.374C134.813 25.016 133.973 24.05 132.769 24.05C131.551 24.05 130.683 25.016 130.683 26.374C130.683 27.732 131.551 28.712 132.769 28.712ZM143.915 20.214H145.623V30H143.915V28.852C143.355 29.678 142.473 30.168 141.409 30.168C139.477 30.168 138.077 28.6 138.077 26.374C138.077 24.162 139.477 22.594 141.409 22.594C142.473 22.594 143.355 23.084 143.915 23.896V20.214ZM141.857 28.712C143.061 28.712 143.901 27.732 143.901 26.374C143.901 25.016 143.061 24.05 141.857 24.05C140.639 24.05 139.771 25.016 139.771 26.374C139.771 27.732 140.639 28.712 141.857 28.712ZM147.64 26.906V25.408H151.406V26.906L147.64 26.906ZM156.751 30.168C154.609 30.168 152.859 28.46 152.859 26.374C152.859 24.288 154.609 22.594 156.751 22.594C158.879 22.594 160.615 24.288 160.615 26.374C160.615 28.46 158.879 30.168 156.751 30.168ZM156.751 28.712C157.955 28.712 158.949 27.662 158.949 26.374C158.949 25.086 157.955 24.05 156.751 24.05C155.533 24.05 154.539 25.086 154.539 26.374C154.539 27.662 155.533 28.712 156.751 28.712ZM166.045 22.594C167.641 22.594 168.747 23.742 168.747 25.394V30H167.081V25.73C167.081 24.736 166.465 24.05 165.569 24.05C164.589 24.05 163.805 24.736 163.805 25.618V30H162.097V22.762H163.805V23.742C164.239 23.056 165.079 22.594 166.045 22.594Z" fill="white"/>
<path d="M179 29.12C177.91 29.12 177.08 28.68 176.5 28.04L177.13 27.32C177.65 27.87 178.29 28.23 179.02 28.23C179.91 28.23 180.52 27.63 180.52 26.86C180.52 26.07 179.9 25.54 179.01 25.54C178.44 25.54 177.96 25.73 177.55 26.04L176.84 25.72L176.94 22.13H181.16V23.07H177.9L177.84 25.11C178.2 24.87 178.66 24.67 179.26 24.67C180.5 24.67 181.53 25.45 181.53 26.82C181.53 28.21 180.48 29.12 179 29.12ZM192.37 23.71C193.45 23.71 194.23 24.54 194.23 25.71V29H193.27V25.86C193.27 25.1 192.81 24.57 192.17 24.57C191.43 24.57 190.9 25.06 190.9 25.77V29H189.93V25.86C189.93 25.1 189.48 24.57 188.84 24.57C188.09 24.57 187.57 25.06 187.57 25.77V29L186.58 29V23.83H187.57V24.57C187.83 24.04 188.37 23.71 189.04 23.71C189.86 23.71 190.51 24.19 190.77 24.94C190.93 24.21 191.56 23.71 192.37 23.71ZM196.74 22.97C196.41 22.97 196.14 22.69 196.14 22.37C196.14 22.06 196.41 21.78 196.74 21.78C197.07 21.78 197.33 22.06 197.33 22.37C197.33 22.69 197.07 22.97 196.74 22.97ZM196.24 29V23.83L197.23 23.83V29H196.24ZM201.987 23.71C203.127 23.71 203.917 24.52 203.917 25.71V29H202.957V25.88C202.957 25.1 202.467 24.57 201.767 24.57C200.977 24.57 200.337 25.11 200.337 25.79V29H199.347V23.83H200.337V24.59C200.637 24.07 201.277 23.71 201.987 23.71ZM209.401 23.83H210.391V29H209.401V28.26C209.091 28.77 208.461 29.12 207.751 29.12C206.611 29.12 205.821 28.31 205.821 27.12V23.83H206.791V26.95C206.791 27.73 207.281 28.26 207.981 28.26C208.771 28.26 209.401 27.72 209.401 27.04V23.83ZM214.735 28.07L215.105 28.75C214.825 28.98 214.435 29.12 214.065 29.12C213.265 29.12 212.705 28.54 212.705 27.71V24.67H211.935V23.83H212.705V22.41L213.675 22.41V23.83H214.895V24.67L213.675 24.67V27.64C213.675 28 213.925 28.26 214.215 28.26C214.435 28.26 214.635 28.18 214.735 28.07ZM218.888 28.3C219.448 28.3 220.098 28.05 220.418 27.71L220.998 28.32C220.548 28.81 219.638 29.12 218.908 29.12C217.478 29.12 216.238 27.99 216.238 26.4C216.238 24.85 217.408 23.71 218.838 23.71C220.418 23.71 221.338 24.89 221.338 26.73H217.208C217.328 27.64 217.968 28.3 218.888 28.3ZM218.858 24.53C218.028 24.53 217.368 25.11 217.218 26H220.378C220.278 25.17 219.758 24.53 218.858 24.53ZM224.698 29.12C223.938 29.12 223.118 28.85 222.498 28.35L222.948 27.67C223.518 28.09 224.138 28.32 224.708 28.32C225.328 28.32 225.718 28.04 225.718 27.62C225.718 27.13 225.178 26.97 224.518 26.79C223.338 26.46 222.738 26.12 222.738 25.28C222.738 24.33 223.528 23.71 224.618 23.71C225.288 23.71 225.978 23.94 226.528 24.31L226.118 25.01C225.608 24.69 225.088 24.51 224.618 24.51C224.098 24.51 223.678 24.74 223.678 25.17C223.678 25.57 224.028 25.69 224.908 25.96C225.758 26.21 226.658 26.49 226.658 27.52C226.658 28.5 225.838 29.12 224.698 29.12ZM231.605 29V22.01H232.595V29H231.605ZM236.962 28.3C237.522 28.3 238.172 28.05 238.492 27.71L239.072 28.32C238.622 28.81 237.712 29.12 236.982 29.12C235.552 29.12 234.312 27.99 234.312 26.4C234.312 24.85 235.482 23.71 236.912 23.71C238.492 23.71 239.412 24.89 239.412 26.73H235.282C235.402 27.64 236.042 28.3 236.962 28.3ZM236.932 24.53C236.102 24.53 235.442 25.11 235.292 26H238.452C238.352 25.17 237.832 24.53 236.932 24.53ZM242.252 23.26V23.83L243.472 23.83V24.67H242.252V29H241.282V24.67H240.502V23.83H241.282V23.21C241.282 22.38 241.842 21.8 242.642 21.8C243.012 21.8 243.392 21.94 243.672 22.17L243.312 22.83C243.202 22.72 243.002 22.64 242.782 22.64C242.492 22.64 242.252 22.9 242.252 23.26ZM247.122 28.07L247.492 28.75C247.212 28.98 246.822 29.12 246.452 29.12C245.652 29.12 245.092 28.54 245.092 27.71V24.67H244.322V23.83H245.092V22.41H246.062V23.83H247.282V24.67H246.062V27.64C246.062 28 246.312 28.26 246.602 28.26C246.822 28.26 247.022 28.18 247.122 28.07Z" fill="#ACB8BE"/>
<path fill-rule="evenodd" clip-rule="evenodd" d="M44.1636 44H367.824V56H44.1636V44Z" fill="#2D4048"/>
<path fill-rule="evenodd" clip-rule="evenodd" d="M44.1636 44H170.169V56H44.1636V44Z" fill="#2EC0FF"/>
<path d="M383.92 54.168C382.338 54.168 381.12 53.44 380.42 52.516L381.176 51.802C381.806 52.614 382.744 53.174 383.92 53.174C385.264 53.174 386.16 52.432 386.16 51.34C386.16 50.206 385.194 49.632 383.682 49.632H382.66V48.624L383.696 48.638C384.984 48.652 385.95 48.036 385.95 46.944C385.95 45.936 385.026 45.208 383.822 45.208C382.758 45.208 382.002 45.74 381.316 46.566L380.588 45.908C381.316 44.942 382.38 44.214 383.878 44.214C385.712 44.214 387.056 45.278 387.056 46.818C387.056 48.05 386.188 48.778 385.194 49.072C386.174 49.296 387.266 50.01 387.266 51.396C387.266 53.006 385.922 54.168 383.92 54.168ZM392.892 54.168C390.54 54.168 388.888 52.11 388.888 49.184C388.888 46.272 390.54 44.214 392.892 44.214C395.23 44.214 396.882 46.272 396.882 49.184C396.882 52.11 395.23 54.168 392.892 54.168ZM392.892 53.16C394.586 53.16 395.776 51.508 395.776 49.184C395.776 46.86 394.586 45.222 392.892 45.222C391.198 45.222 389.994 46.86 389.994 49.184C389.994 51.508 391.198 53.16 392.892 53.16ZM400.736 49.114C399.406 49.114 398.51 48.036 398.51 46.734C398.51 45.348 399.448 44.298 400.75 44.298C402.08 44.298 402.976 45.376 402.976 46.706C402.976 48.064 402.052 49.114 400.736 49.114ZM399.686 54L406.266 44.382H407.33L400.75 54H399.686ZM400.75 48.358C401.534 48.358 402.094 47.658 402.094 46.72C402.094 45.768 401.52 45.054 400.736 45.054C399.952 45.054 399.392 45.754 399.392 46.72C399.392 47.644 399.98 48.358 400.75 48.358ZM406.224 54.14C404.936 54.14 403.998 53.104 403.998 51.732C403.998 50.416 404.908 49.324 406.238 49.324C407.568 49.324 408.464 50.416 408.464 51.718C408.464 53.09 407.526 54.14 406.224 54.14ZM406.238 53.384C407.036 53.384 407.582 52.684 407.582 51.732C407.582 50.794 407.008 50.08 406.224 50.08C405.426 50.08 404.88 50.808 404.88 51.718C404.88 52.67 405.44 53.384 406.238 53.384Z" fill="#ACB8BE"/>
<defs>
<filter id="filter0_d_10442_5843" x="0" y="0" width="432" height="147" filterUnits="userSpaceOnUse" color-interpolation-filters="sRGB">
<feFlood flood-opacity="0" result="BackgroundImageFix"/>
<feColorMatrix in="SourceAlpha" type="matrix" values="0 0 0 0 0 0 0 0 0 0 0 0 0 0 0 0 0 0 127 0" result="hardAlpha"/>
<feOffset dy="4"/>
<feGaussianBlur stdDeviation="2"/>
<feComposite in2="hardAlpha" operator="out"/>
<feColorMatrix type="matrix" values="0 0 0 0 0.105 0 0 0 0 0.168 0 0 0 0 0.195 0 0 0 0.25 0"/>
<feBlend mode="normal" in2="BackgroundImageFix" result="effect1_dropShadow_10442_5843"/>
<feBlend mode="normal" in="SourceGraphic" in2="effect1_dropShadow_10442_5843" result="shape"/>
</filter>
</defs>
</svg>
