<svg width="432" height="147" viewBox="0 0 432 147" fill="none" xmlns="http://www.w3.org/2000/svg">
<g filter="url(#filter0_d_10487_5929)">
<rect x="4" width="424" height="139" rx="4" fill="#22343C"/>
<rect x="4.5" y="0.5" width="423" height="138" rx="3.5" stroke="#67777E"/>
</g>
<path fill-rule="evenodd" clip-rule="evenodd" d="M57.0002 16.3333C51.1091 16.3333 46.3335 21.1089 46.3335 26.9999C46.3335 32.891 51.1091 37.6666 57.0002 37.6666C62.8912 37.6666 67.6668 32.891 67.6668 26.9999C67.6668 24.1709 66.543 21.4578 64.5426 19.4574C62.5422 17.4571 59.8291 16.3333 57.0002 16.3333ZM57.0002 36.3333C51.8455 36.3333 47.6668 32.1546 47.6668 26.9999C47.6668 21.8453 51.8455 17.6666 57.0002 17.6666C62.1548 17.6666 66.3335 21.8453 66.3335 26.9999C66.3335 29.4753 65.3502 31.8492 63.5998 33.5996C61.8495 35.3499 59.4755 36.3333 57.0002 36.3333ZM62.7268 23.0666C62.9869 22.8081 63.4068 22.8081 63.6668 23.0666C63.793 23.1918 63.864 23.3622 63.864 23.5399C63.864 23.7177 63.793 23.8881 63.6668 24.0133L55.3268 32.3333L50.3335 27.3533C50.0794 27.0789 50.0959 26.6506 50.3702 26.3966C50.6445 26.1425 51.0728 26.1589 51.3268 26.4333L55.3268 30.4333L62.7268 23.0666Z" fill="#67CA16"/>
<path d="M84.834 60L83.868 57.816H78.506L77.54 60H76.35L80.592 50.382H81.782L86.024 60H84.834ZM78.954 56.78H83.42L81.194 51.726L78.954 56.78ZM92.899 50.214H93.949V60H92.899V58.642C92.353 59.594 91.429 60.168 90.267 60.168C88.363 60.168 86.935 58.6 86.935 56.374C86.935 54.162 88.363 52.594 90.267 52.594C91.429 52.594 92.353 53.168 92.899 54.12V50.214ZM90.463 59.23C91.891 59.23 92.899 58.04 92.899 56.374C92.899 54.708 91.891 53.532 90.463 53.532C89.049 53.532 88.041 54.708 88.041 56.374C88.041 58.04 89.049 59.23 90.463 59.23ZM101.686 50.214H102.736V60H101.686V58.642C101.14 59.594 100.216 60.168 99.0537 60.168C97.1497 60.168 95.7217 58.6 95.7217 56.374C95.7217 54.162 97.1497 52.594 99.0537 52.594C100.216 52.594 101.14 53.168 101.686 54.12V50.214ZM99.2497 59.23C100.678 59.23 101.686 58.04 101.686 56.374C101.686 54.708 100.678 53.532 99.2497 53.532C97.8357 53.532 96.8277 54.708 96.8277 56.374C96.8277 58.04 97.8357 59.23 99.2497 59.23ZM105.054 56.71V55.688H108.68V56.71H105.054ZM115.492 60.168C112.832 60.168 110.564 57.886 110.564 55.184C110.564 52.482 112.832 50.214 115.492 50.214C118.166 50.214 120.406 52.482 120.406 55.184C120.406 57.886 118.166 60.168 115.492 60.168ZM115.492 59.16C117.564 59.16 119.3 57.34 119.3 55.184C119.3 53.042 117.564 51.222 115.492 51.222C113.42 51.222 111.67 53.042 111.67 55.184C111.67 57.34 113.42 59.16 115.492 59.16ZM125.757 52.594C127.367 52.594 128.473 53.728 128.473 55.394V60H127.423V55.534C127.423 54.344 126.681 53.532 125.617 53.532C124.385 53.532 123.377 54.372 123.377 55.394V60H122.327V52.762H123.377V53.91C123.797 53.14 124.721 52.594 125.757 52.594ZM136.631 60.168C135.623 60.168 134.503 59.79 133.635 59.09L134.181 58.32C135.007 58.922 135.833 59.23 136.631 59.23C137.583 59.23 138.227 58.782 138.227 58.096C138.227 57.312 137.387 57.06 136.407 56.78C134.657 56.276 133.985 55.758 133.985 54.722C133.985 53.406 135.077 52.594 136.519 52.594C137.415 52.594 138.339 52.902 139.109 53.406L138.605 54.218C137.877 53.756 137.163 53.532 136.519 53.532C135.707 53.532 135.035 53.896 135.035 54.596C135.035 55.226 135.567 55.422 136.911 55.856C138.073 56.22 139.277 56.612 139.277 57.984C139.277 59.314 138.129 60.168 136.631 60.168ZM145.905 52.762H146.955V60H145.905V58.852C145.485 59.622 144.561 60.168 143.525 60.168C141.915 60.168 140.809 59.034 140.809 57.368V52.762H141.859V57.228C141.859 58.418 142.601 59.23 143.665 59.23C144.897 59.23 145.905 58.39 145.905 57.368V52.762ZM152.393 60.168C150.363 60.168 148.641 58.432 148.641 56.374C148.641 54.316 150.363 52.594 152.393 52.594C153.373 52.594 154.283 53 154.969 53.658L154.241 54.372C153.765 53.854 153.107 53.532 152.393 53.532C150.951 53.532 149.747 54.834 149.747 56.374C149.747 57.928 150.951 59.23 152.393 59.23C153.121 59.23 153.793 58.894 154.283 58.348L155.011 59.062C154.325 59.748 153.401 60.168 152.393 60.168ZM159.553 60.168C157.523 60.168 155.801 58.432 155.801 56.374C155.801 54.316 157.523 52.594 159.553 52.594C160.533 52.594 161.443 53 162.129 53.658L161.401 54.372C160.925 53.854 160.267 53.532 159.553 53.532C158.111 53.532 156.907 54.834 156.907 56.374C156.907 57.928 158.111 59.23 159.553 59.23C160.281 59.23 160.953 58.894 161.443 58.348L162.171 59.062C161.485 59.748 160.561 60.168 159.553 60.168ZM166.656 59.23C167.51 59.23 168.49 58.852 168.938 58.362L169.582 59.048C168.952 59.734 167.678 60.168 166.67 60.168C164.738 60.168 163.002 58.586 163.002 56.36C163.002 54.204 164.626 52.594 166.572 52.594C168.756 52.594 170.002 54.246 170.002 56.78H164.08C164.234 58.194 165.228 59.23 166.656 59.23ZM166.614 53.532C165.326 53.532 164.29 54.442 164.094 55.842H168.966C168.826 54.54 168.056 53.532 166.614 53.532ZM173.906 60.168C172.898 60.168 171.778 59.79 170.91 59.09L171.456 58.32C172.282 58.922 173.108 59.23 173.906 59.23C174.858 59.23 175.502 58.782 175.502 58.096C175.502 57.312 174.662 57.06 173.682 56.78C171.932 56.276 171.26 55.758 171.26 54.722C171.26 53.406 172.352 52.594 173.794 52.594C174.69 52.594 175.614 52.902 176.384 53.406L175.88 54.218C175.152 53.756 174.438 53.532 173.794 53.532C172.982 53.532 172.31 53.896 172.31 54.596C172.31 55.226 172.842 55.422 174.186 55.856C175.348 56.22 176.552 56.612 176.552 57.984C176.552 59.314 175.404 60.168 173.906 60.168ZM180.492 60.168C179.484 60.168 178.364 59.79 177.496 59.09L178.042 58.32C178.868 58.922 179.694 59.23 180.492 59.23C181.444 59.23 182.088 58.782 182.088 58.096C182.088 57.312 181.248 57.06 180.268 56.78C178.518 56.276 177.846 55.758 177.846 54.722C177.846 53.406 178.938 52.594 180.38 52.594C181.276 52.594 182.2 52.902 182.97 53.406L182.466 54.218C181.738 53.756 181.024 53.532 180.38 53.532C179.568 53.532 178.896 53.896 178.896 54.596C178.896 55.226 179.428 55.422 180.772 55.856C181.934 56.22 183.138 56.612 183.138 57.984C183.138 59.314 181.99 60.168 180.492 60.168ZM186.14 51.768V52.762H187.918V53.7H186.14V60H185.09V53.7H183.956V52.762H185.09V51.768C185.09 50.69 185.818 49.92 186.854 49.92C187.344 49.92 187.82 50.088 188.198 50.382L187.68 51.152C187.526 50.984 187.246 50.858 186.924 50.858C186.504 50.858 186.14 51.236 186.14 51.768ZM194.109 52.762H195.159V60H194.109V58.852C193.689 59.622 192.765 60.168 191.729 60.168C190.119 60.168 189.013 59.034 189.013 57.368V52.762H190.063V57.228C190.063 58.418 190.805 59.23 191.869 59.23C193.101 59.23 194.109 58.39 194.109 57.368V52.762ZM197.489 60V50.214H198.539V60H197.489ZM200.875 60V50.214H201.925V60H200.875ZM204.892 62.52C204.472 62.52 204.08 62.436 203.744 62.282L203.996 61.386C204.248 61.512 204.542 61.568 204.85 61.568C205.312 61.568 205.62 61.414 205.9 60.924L206.32 60.028L203.17 52.762H204.332L206.866 58.782L209.26 52.762H210.394L207.09 60.812C206.586 62.044 205.886 62.506 204.892 62.52ZM218.013 52.594C219.987 52.594 220.953 53.84 220.953 55.59V60H219.903V58.866C219.385 59.72 218.307 60.168 217.355 60.168C215.829 60.168 214.709 59.286 214.709 57.858C214.709 56.416 215.997 55.45 217.551 55.45C218.335 55.45 219.161 55.618 219.903 55.856V55.59C219.903 54.61 219.511 53.49 217.943 53.49C217.215 53.49 216.487 53.812 215.829 54.148L215.409 53.294C216.445 52.776 217.313 52.594 218.013 52.594ZM217.537 59.244C218.489 59.244 219.623 58.754 219.903 57.732V56.626C219.245 56.444 218.503 56.332 217.719 56.332C216.641 56.332 215.731 56.948 215.731 57.816C215.731 58.712 216.515 59.244 217.537 59.244ZM225.916 58.936L226.434 59.706C226.056 60 225.58 60.168 225.09 60.168C224.054 60.168 223.326 59.398 223.326 58.32V53.7H222.192V52.762H223.326V50.774H224.376V52.762H226.154V53.7H224.376V58.32C224.376 58.852 224.74 59.23 225.16 59.23C225.482 59.23 225.762 59.104 225.916 58.936ZM230.642 58.936L231.16 59.706C230.782 60 230.306 60.168 229.816 60.168C228.78 60.168 228.052 59.398 228.052 58.32V53.7H226.918V52.762H228.052V50.774H229.102V52.762H230.88V53.7H229.102V58.32C229.102 58.852 229.466 59.23 229.886 59.23C230.208 59.23 230.488 59.104 230.642 58.936ZM235.158 52.594C237.132 52.594 238.098 53.84 238.098 55.59V60H237.048V58.866C236.53 59.72 235.452 60.168 234.5 60.168C232.974 60.168 231.854 59.286 231.854 57.858C231.854 56.416 233.142 55.45 234.696 55.45C235.48 55.45 236.306 55.618 237.048 55.856V55.59C237.048 54.61 236.656 53.49 235.088 53.49C234.36 53.49 233.632 53.812 232.974 54.148L232.554 53.294C233.59 52.776 234.458 52.594 235.158 52.594ZM234.682 59.244C235.634 59.244 236.768 58.754 237.048 57.732V56.626C236.39 56.444 235.648 56.332 234.864 56.332C233.786 56.332 232.876 56.948 232.876 57.816C232.876 58.712 233.66 59.244 234.682 59.244ZM243.369 60.168C241.339 60.168 239.617 58.432 239.617 56.374C239.617 54.316 241.339 52.594 243.369 52.594C244.349 52.594 245.259 53 245.945 53.658L245.217 54.372C244.741 53.854 244.083 53.532 243.369 53.532C241.927 53.532 240.723 54.834 240.723 56.374C240.723 57.928 241.927 59.23 243.369 59.23C244.097 59.23 244.769 58.894 245.259 58.348L245.987 59.062C245.301 59.748 244.377 60.168 243.369 60.168ZM250.851 52.594C252.461 52.594 253.567 53.728 253.567 55.394V60H252.517V55.534C252.517 54.344 251.775 53.532 250.711 53.532C249.479 53.532 248.471 54.372 248.471 55.394V60H247.421V50.214H248.471V53.91C248.891 53.14 249.815 52.594 250.851 52.594ZM258.781 59.23C259.635 59.23 260.615 58.852 261.063 58.362L261.707 59.048C261.077 59.734 259.803 60.168 258.795 60.168C256.863 60.168 255.127 58.586 255.127 56.36C255.127 54.204 256.751 52.594 258.697 52.594C260.881 52.594 262.127 54.246 262.127 56.78H256.205C256.359 58.194 257.353 59.23 258.781 59.23ZM258.739 53.532C257.451 53.532 256.415 54.442 256.219 55.842H261.091C260.951 54.54 260.181 53.532 258.739 53.532ZM269.195 50.214H270.245V60L269.195 60V58.642C268.649 59.594 267.725 60.168 266.563 60.168C264.659 60.168 263.231 58.6 263.231 56.374C263.231 54.162 264.659 52.594 266.563 52.594C267.725 52.594 268.649 53.168 269.195 54.12V50.214ZM266.759 59.23C268.187 59.23 269.195 58.04 269.195 56.374C269.195 54.708 268.187 53.532 266.759 53.532C265.345 53.532 264.337 54.708 264.337 56.374C264.337 58.04 265.345 59.23 266.759 59.23ZM279.134 58.936L279.652 59.706C279.274 60 278.798 60.168 278.308 60.168C277.272 60.168 276.544 59.398 276.544 58.32V53.7H275.41V52.762H276.544V50.774H277.594V52.762H279.372V53.7H277.594V58.32C277.594 58.852 277.958 59.23 278.378 59.23C278.7 59.23 278.98 59.104 279.134 58.936ZM284.168 60.168C282.11 60.168 280.43 58.46 280.43 56.374C280.43 54.288 282.11 52.594 284.168 52.594C286.212 52.594 287.892 54.288 287.892 56.374C287.892 58.46 286.212 60.168 284.168 60.168ZM284.168 59.23C285.61 59.23 286.8 57.942 286.8 56.374C286.8 54.806 285.61 53.532 284.168 53.532C282.712 53.532 281.522 54.806 281.522 56.374C281.522 57.942 282.712 59.23 284.168 59.23ZM293.664 60V50.382H294.756L298.326 57.088L301.896 50.382H302.988V60H301.896V52.734L298.326 59.44L294.756 52.734V60H293.664ZM306.259 62.52C305.839 62.52 305.447 62.436 305.111 62.282L305.363 61.386C305.615 61.512 305.909 61.568 306.217 61.568C306.679 61.568 306.987 61.414 307.267 60.924L307.687 60.028L304.537 52.762H305.699L308.233 58.782L310.627 52.762H311.761L308.457 60.812C307.953 62.044 307.253 62.506 306.259 62.52ZM313.021 56.71V55.688H316.647V56.71H313.021ZM322.184 60.154C320.602 60.154 319.356 59.58 318.39 58.628L319.076 57.774C319.888 58.586 320.882 59.16 322.226 59.16C323.71 59.16 324.466 58.348 324.466 57.48C324.466 56.458 323.556 56.052 321.876 55.66C319.944 55.212 318.726 54.61 318.726 52.944C318.726 51.404 320.098 50.214 321.946 50.214C323.374 50.214 324.438 50.774 325.32 51.586L324.648 52.44C323.85 51.67 322.898 51.208 321.89 51.208C320.7 51.208 319.832 51.978 319.832 52.86C319.832 53.854 320.784 54.204 322.422 54.596C324.256 55.03 325.572 55.688 325.572 57.382C325.572 58.908 324.424 60.154 322.184 60.154ZM327.744 60V50.382H330.992C334.044 50.382 336.2 52.37 336.2 55.184C336.2 57.998 334.044 60 330.992 60H327.744ZM328.836 59.006H330.992C333.4 59.006 335.094 57.424 335.094 55.184C335.094 52.958 333.4 51.376 330.992 51.376H328.836V59.006ZM342.59 60.168C339.93 60.168 337.662 57.886 337.662 55.184C337.662 52.482 339.93 50.214 342.59 50.214C343.92 50.214 345.152 50.774 346.048 51.684L345.306 52.44C344.606 51.698 343.64 51.222 342.59 51.222C340.518 51.222 338.768 53.042 338.768 55.184C338.768 57.34 340.518 59.16 342.59 59.16C343.64 59.16 344.606 58.684 345.306 57.942L346.048 58.698C345.152 59.594 343.92 60.168 342.59 60.168ZM352.183 60.168C349.523 60.168 347.255 57.886 347.255 55.184C347.255 52.482 349.523 50.214 352.183 50.214C353.513 50.214 354.745 50.774 355.641 51.684L354.899 52.44C354.199 51.698 353.233 51.222 352.183 51.222C350.111 51.222 348.361 53.042 348.361 55.184C348.361 57.34 350.111 59.16 352.183 59.16C353.233 59.16 354.199 58.684 354.899 57.942L355.641 58.698C354.745 59.594 353.513 60.168 352.183 60.168ZM357.269 56.71V55.688H360.895V56.71H357.269ZM364.43 60V51.712L362.75 52.804L362.274 51.992L364.64 50.382H365.522V60H364.43ZM367.374 60V59.09L370.888 56.094C372.246 54.932 372.806 54.008 372.806 53.056C372.806 51.88 371.826 51.194 370.804 51.194C369.684 51.194 368.886 51.796 368.228 52.692L367.458 52.062C368.256 50.928 369.334 50.214 370.846 50.214C372.512 50.214 373.912 51.32 373.912 53.042C373.912 54.344 373.268 55.38 371.644 56.78L369.124 58.964H374.01V60H367.374ZM378.634 60.168C377.052 60.168 375.834 59.44 375.134 58.516L375.89 57.802C376.52 58.614 377.458 59.174 378.634 59.174C379.978 59.174 380.874 58.432 380.874 57.34C380.874 56.206 379.908 55.632 378.396 55.632H377.374V54.624L378.41 54.638C379.698 54.652 380.664 54.036 380.664 52.944C380.664 51.936 379.74 51.208 378.536 51.208C377.472 51.208 376.716 51.74 376.03 52.566L375.302 51.908C376.03 50.942 377.094 50.214 378.592 50.214C380.426 50.214 381.77 51.278 381.77 52.818C381.77 54.05 380.902 54.778 379.908 55.072C380.888 55.296 381.98 56.01 381.98 57.396C381.98 59.006 380.636 60.168 378.634 60.168ZM388.083 60V57.662L383.281 57.662L383.141 56.752L387.915 50.382H389.175V56.668H390.617V57.662H389.175V60H388.083ZM384.387 56.668L388.083 56.668V51.698L384.387 56.668ZM77.75 71.446C77.358 71.446 77.05 71.124 77.05 70.746C77.05 70.382 77.358 70.06 77.75 70.06C78.128 70.06 78.436 70.382 78.436 70.746C78.436 71.124 78.128 71.446 77.75 71.446ZM77.218 80L77.218 72.762H78.268L78.268 80H77.218ZM84.0343 72.594C85.6443 72.594 86.7503 73.728 86.7503 75.394L86.7503 80H85.7003L85.7003 75.534C85.7003 74.344 84.9583 73.532 83.8943 73.532C82.6623 73.532 81.6543 74.372 81.6543 75.394L81.6543 80H80.6043L80.6043 72.762H81.6543V73.91C82.0743 73.14 82.9983 72.594 84.0343 72.594ZM92.976 80V70.382H96.882C98.87 70.382 100.424 71.656 100.424 73.462C100.424 75.268 98.87 76.542 96.882 76.542H94.068V80H92.976ZM94.068 75.506H96.686C98.254 75.506 99.318 74.75 99.318 73.462C99.318 72.174 98.254 71.418 96.686 71.418H94.068V75.506ZM109.768 80L108.802 77.816H103.44L102.474 80H101.284L105.526 70.382H106.716L110.958 80H109.768ZM103.888 76.78H108.354L106.128 71.726L103.888 76.78ZM116.923 80.168C114.263 80.168 111.995 77.886 111.995 75.184C111.995 72.482 114.263 70.214 116.923 70.214C118.253 70.214 119.485 70.774 120.381 71.684L119.639 72.44C118.939 71.698 117.973 71.222 116.923 71.222C114.851 71.222 113.101 73.042 113.101 75.184C113.101 77.34 114.851 79.16 116.923 79.16C117.973 79.16 118.939 78.684 119.639 77.942L120.381 78.698C119.485 79.594 118.253 80.168 116.923 80.168ZM122.33 80V70.382H123.422L129.386 78.208V70.382H130.478V80H129.386L123.422 72.174V80H122.33ZM135.612 80L132.322 70.382H133.554L136.214 78.166L138.762 70.382H139.98L142.528 78.166L145.188 70.382H146.42L143.13 80H142.052L139.378 71.81L136.69 80H135.612ZM147.949 76.71V75.688H151.575V76.71H147.949ZM154.2 80V70.382L157.448 70.382C160.5 70.382 162.656 72.37 162.656 75.184C162.656 77.998 160.5 80 157.448 80H154.2ZM155.292 79.006H157.448C159.856 79.006 161.55 77.424 161.55 75.184C161.55 72.958 159.856 71.376 157.448 71.376L155.292 71.376V79.006ZM169.046 80.168C166.386 80.168 164.118 77.886 164.118 75.184C164.118 72.482 166.386 70.214 169.046 70.214C170.376 70.214 171.608 70.774 172.504 71.684L171.762 72.44C171.062 71.698 170.096 71.222 169.046 71.222C166.974 71.222 165.224 73.042 165.224 75.184C165.224 77.34 166.974 79.16 169.046 79.16C170.096 79.16 171.062 78.684 171.762 77.942L172.504 78.698C171.608 79.594 170.376 80.168 169.046 80.168Z" fill="#E3EAED"/>
<path d="M313.212 109.756H314.868L311.424 118H309.756L306.312 109.756H307.968L310.596 116.008L313.212 109.756ZM317.316 118V109.756H318.804V118H317.316ZM328.293 111.124H323.589V113.116H327.837V114.484H323.589V116.632H328.293V118H322.089V109.756H328.293V111.124ZM332.929 118L330.313 109.756H331.957L333.721 115.66L335.677 109.756H337.297L339.241 115.66L341.017 109.756H342.649L340.045 118H338.557L336.493 111.88L334.417 118H332.929ZM349.429 118V109.756H352.321C355.045 109.756 356.965 111.46 356.965 113.872C356.965 116.284 355.045 118 352.321 118H349.429ZM350.917 116.644H352.477C354.217 116.644 355.441 115.492 355.441 113.872C355.441 112.252 354.217 111.112 352.477 111.112H350.917V116.644ZM365.914 111.124H361.21V113.116H365.458V114.484H361.21V116.632H365.914V118H359.71V109.756H365.914V111.124ZM370.574 118V111.124H367.934V109.756H374.702V111.124H372.074V118H370.574ZM383.263 118L382.615 116.44H378.679L378.031 118H376.363L379.807 109.756H381.475L384.919 118H383.263ZM379.195 115.216H382.099L380.647 111.748L379.195 115.216ZM387.355 118V109.756H388.843V118H387.355ZM393.616 116.632H397.852V118H392.128V109.756H393.616V116.632Z" fill="#2EC0FF"/>
<path d="M84.834 31L83.868 28.816H78.506L77.54 31H76.35L80.592 21.382H81.782L86.024 31H84.834ZM78.954 27.78H83.42L81.194 22.726L78.954 27.78ZM90.603 31.168C88.573 31.168 86.851 29.432 86.851 27.374C86.851 25.316 88.573 23.594 90.603 23.594C91.583 23.594 92.493 24 93.179 24.658L92.451 25.372C91.975 24.854 91.317 24.532 90.603 24.532C89.161 24.532 87.957 25.834 87.957 27.374C87.957 28.928 89.161 30.23 90.603 30.23C91.331 30.23 92.003 29.894 92.493 29.348L93.221 30.062C92.535 30.748 91.611 31.168 90.603 31.168ZM97.4547 29.936L97.9727 30.706C97.5947 31 97.1187 31.168 96.6287 31.168C95.5927 31.168 94.8647 30.398 94.8647 29.32V24.7H93.7307V23.762H94.8647V21.774H95.9147V23.762L97.6927 23.762V24.7L95.9147 24.7V29.32C95.9147 29.852 96.2787 30.23 96.6987 30.23C97.0207 30.23 97.3007 30.104 97.4547 29.936ZM99.9129 22.446C99.5209 22.446 99.2129 22.124 99.2129 21.746C99.2129 21.382 99.5209 21.06 99.9129 21.06C100.291 21.06 100.599 21.382 100.599 21.746C100.599 22.124 100.291 22.446 99.9129 22.446ZM99.3809 31V23.762H100.431V31H99.3809ZM104.769 31L101.689 23.762H102.865L105.273 29.768L107.639 23.762H108.815L105.777 31H104.769ZM112.667 23.594C114.641 23.594 115.607 24.84 115.607 26.59V31H114.557V29.866C114.039 30.72 112.961 31.168 112.009 31.168C110.483 31.168 109.363 30.286 109.363 28.858C109.363 27.416 110.651 26.45 112.205 26.45C112.989 26.45 113.815 26.618 114.557 26.856V26.59C114.557 25.61 114.165 24.49 112.597 24.49C111.869 24.49 111.141 24.812 110.483 25.148L110.063 24.294C111.099 23.776 111.967 23.594 112.667 23.594ZM112.191 30.244C113.143 30.244 114.277 29.754 114.557 28.732V27.626C113.899 27.444 113.157 27.332 112.373 27.332C111.295 27.332 110.385 27.948 110.385 28.816C110.385 29.712 111.169 30.244 112.191 30.244ZM120.57 29.936L121.088 30.706C120.71 31 120.234 31.168 119.744 31.168C118.708 31.168 117.98 30.398 117.98 29.32V24.7H116.846V23.762H117.98V21.774H119.03V23.762H120.808V24.7H119.03V29.32C119.03 29.852 119.394 30.23 119.814 30.23C120.136 30.23 120.416 30.104 120.57 29.936ZM125.549 30.23C126.403 30.23 127.383 29.852 127.831 29.362L128.475 30.048C127.845 30.734 126.571 31.168 125.563 31.168C123.631 31.168 121.895 29.586 121.895 27.36C121.895 25.204 123.519 23.594 125.465 23.594C127.649 23.594 128.895 25.246 128.895 27.78L122.973 27.78C123.127 29.194 124.121 30.23 125.549 30.23ZM125.507 24.532C124.219 24.532 123.183 25.442 122.987 26.842L127.859 26.842C127.719 25.54 126.949 24.532 125.507 24.532ZM141.93 31L140.964 28.816H135.602L134.636 31H133.446L137.688 21.382H138.878L143.12 31H141.93ZM136.05 27.78H140.516L138.29 22.726L136.05 27.78ZM149.995 21.214H151.045V31H149.995V29.642C149.449 30.594 148.525 31.168 147.363 31.168C145.459 31.168 144.031 29.6 144.031 27.374C144.031 25.162 145.459 23.594 147.363 23.594C148.525 23.594 149.449 24.168 149.995 25.12V21.214ZM147.559 30.23C148.987 30.23 149.995 29.04 149.995 27.374C149.995 25.708 148.987 24.532 147.559 24.532C146.145 24.532 145.137 25.708 145.137 27.374C145.137 29.04 146.145 30.23 147.559 30.23ZM158.782 21.214H159.832V31H158.782V29.642C158.236 30.594 157.312 31.168 156.15 31.168C154.246 31.168 152.818 29.6 152.818 27.374C152.818 25.162 154.246 23.594 156.15 23.594C157.312 23.594 158.236 24.168 158.782 25.12V21.214ZM156.346 30.23C157.774 30.23 158.782 29.04 158.782 27.374C158.782 25.708 157.774 24.532 156.346 24.532C154.932 24.532 153.924 25.708 153.924 27.374C153.924 29.04 154.932 30.23 156.346 30.23ZM162.15 27.71V26.688H165.776V27.71H162.15ZM171.202 31.168C169.144 31.168 167.464 29.46 167.464 27.374C167.464 25.288 169.144 23.594 171.202 23.594C173.246 23.594 174.926 25.288 174.926 27.374C174.926 29.46 173.246 31.168 171.202 31.168ZM171.202 30.23C172.644 30.23 173.834 28.942 173.834 27.374C173.834 25.806 172.644 24.532 171.202 24.532C169.746 24.532 168.556 25.806 168.556 27.374C168.556 28.942 169.746 30.23 171.202 30.23ZM180.064 23.594C181.674 23.594 182.78 24.728 182.78 26.394V31L181.73 31V26.534C181.73 25.344 180.988 24.532 179.924 24.532C178.692 24.532 177.684 25.372 177.684 26.394V31H176.634V23.762H177.684V24.91C178.104 24.14 179.028 23.594 180.064 23.594ZM190.938 31.168C189.93 31.168 188.81 30.79 187.942 30.09L188.488 29.32C189.314 29.922 190.14 30.23 190.938 30.23C191.89 30.23 192.534 29.782 192.534 29.096C192.534 28.312 191.694 28.06 190.714 27.78C188.964 27.276 188.292 26.758 188.292 25.722C188.292 24.406 189.384 23.594 190.826 23.594C191.722 23.594 192.646 23.902 193.416 24.406L192.912 25.218C192.184 24.756 191.47 24.532 190.826 24.532C190.014 24.532 189.342 24.896 189.342 25.596C189.342 26.226 189.874 26.422 191.218 26.856C192.38 27.22 193.584 27.612 193.584 28.984C193.584 30.314 192.436 31.168 190.938 31.168ZM200.212 23.762H201.262V31H200.212V29.852C199.792 30.622 198.868 31.168 197.832 31.168C196.222 31.168 195.116 30.034 195.116 28.368V23.762H196.166V28.228C196.166 29.418 196.908 30.23 197.972 30.23C199.204 30.23 200.212 29.39 200.212 28.368V23.762ZM206.7 31.168C204.67 31.168 202.948 29.432 202.948 27.374C202.948 25.316 204.67 23.594 206.7 23.594C207.68 23.594 208.59 24 209.276 24.658L208.548 25.372C208.072 24.854 207.414 24.532 206.7 24.532C205.258 24.532 204.054 25.834 204.054 27.374C204.054 28.928 205.258 30.23 206.7 30.23C207.428 30.23 208.1 29.894 208.59 29.348L209.318 30.062C208.632 30.748 207.708 31.168 206.7 31.168ZM213.86 31.168C211.83 31.168 210.108 29.432 210.108 27.374C210.108 25.316 211.83 23.594 213.86 23.594C214.84 23.594 215.75 24 216.436 24.658L215.708 25.372C215.232 24.854 214.574 24.532 213.86 24.532C212.418 24.532 211.214 25.834 211.214 27.374C211.214 28.928 212.418 30.23 213.86 30.23C214.588 30.23 215.26 29.894 215.75 29.348L216.478 30.062C215.792 30.748 214.868 31.168 213.86 31.168ZM220.963 30.23C221.817 30.23 222.797 29.852 223.245 29.362L223.889 30.048C223.259 30.734 221.985 31.168 220.977 31.168C219.045 31.168 217.309 29.586 217.309 27.36C217.309 25.204 218.933 23.594 220.879 23.594C223.063 23.594 224.309 25.246 224.309 27.78H218.387C218.541 29.194 219.535 30.23 220.963 30.23ZM220.921 24.532C219.633 24.532 218.597 25.442 218.401 26.842H223.273C223.133 25.54 222.363 24.532 220.921 24.532ZM228.213 31.168C227.205 31.168 226.085 30.79 225.217 30.09L225.763 29.32C226.589 29.922 227.415 30.23 228.213 30.23C229.165 30.23 229.809 29.782 229.809 29.096C229.809 28.312 228.969 28.06 227.989 27.78C226.239 27.276 225.567 26.758 225.567 25.722C225.567 24.406 226.659 23.594 228.101 23.594C228.997 23.594 229.921 23.902 230.691 24.406L230.187 25.218C229.459 24.756 228.745 24.532 228.101 24.532C227.289 24.532 226.617 24.896 226.617 25.596C226.617 26.226 227.149 26.422 228.493 26.856C229.655 27.22 230.859 27.612 230.859 28.984C230.859 30.314 229.711 31.168 228.213 31.168ZM234.799 31.168C233.791 31.168 232.671 30.79 231.803 30.09L232.349 29.32C233.175 29.922 234.001 30.23 234.799 30.23C235.751 30.23 236.395 29.782 236.395 29.096C236.395 28.312 235.555 28.06 234.575 27.78C232.825 27.276 232.153 26.758 232.153 25.722C232.153 24.406 233.245 23.594 234.687 23.594C235.583 23.594 236.507 23.902 237.277 24.406L236.773 25.218C236.045 24.756 235.331 24.532 234.687 24.532C233.875 24.532 233.203 24.896 233.203 25.596C233.203 26.226 233.735 26.422 235.079 26.856C236.241 27.22 237.445 27.612 237.445 28.984C237.445 30.314 236.297 31.168 234.799 31.168ZM240.447 22.768V23.762L242.225 23.762V24.7L240.447 24.7V31L239.397 31V24.7H238.263V23.762H239.397V22.768C239.397 21.69 240.125 20.92 241.161 20.92C241.651 20.92 242.127 21.088 242.505 21.382L241.987 22.152C241.833 21.984 241.553 21.858 241.231 21.858C240.811 21.858 240.447 22.236 240.447 22.768ZM248.416 23.762H249.466V31H248.416V29.852C247.996 30.622 247.072 31.168 246.036 31.168C244.426 31.168 243.32 30.034 243.32 28.368V23.762H244.37V28.228C244.37 29.418 245.112 30.23 246.176 30.23C247.408 30.23 248.416 29.39 248.416 28.368V23.762ZM251.796 31V21.214H252.846V31H251.796ZM256.246 31.168C255.812 31.168 255.476 30.818 255.476 30.398C255.476 30.006 255.812 29.656 256.246 29.656C256.652 29.656 256.988 30.006 256.988 30.398C256.988 30.818 256.652 31.168 256.246 31.168Z" fill="white"/>
<path d="M27.9293 22.6715L23.6582 26.9648L27.9293 31.2582C28.0347 31.3965 28.211 31.4607 28.3806 31.4225C28.5503 31.3842 28.682 31.2506 28.7178 31.0804C28.7536 30.9103 28.6869 30.7348 28.5471 30.6315L25.3515 27.4093L33.8538 27.4093C34.0992 27.4093 34.2982 27.2103 34.2982 26.9648C34.2982 26.7194 34.0992 26.5204 33.8538 26.5204L25.3515 26.5204L28.5471 23.2981C28.7201 23.1239 28.7191 22.8423 28.5449 22.6693C28.3706 22.4962 28.089 22.4972 27.916 22.6715L27.9293 22.6715Z" fill="#F1F6F8"/>
<defs>
<filter id="filter0_d_10487_5929" x="0" y="0" width="432" height="147" filterUnits="userSpaceOnUse" color-interpolation-filters="sRGB">
<feFlood flood-opacity="0" result="BackgroundImageFix"/>
<feColorMatrix in="SourceAlpha" type="matrix" values="0 0 0 0 0 0 0 0 0 0 0 0 0 0 0 0 0 0 127 0" result="hardAlpha"/>
<feOffset dy="4"/>
<feGaussianBlur stdDeviation="2"/>
<feComposite in2="hardAlpha" operator="out"/>
<feColorMatrix type="matrix" values="0 0 0 0 0.105 0 0 0 0 0.168 0 0 0 0 0.195 0 0 0 0.25 0"/>
<feBlend mode="normal" in2="BackgroundImageFix" result="effect1_dropShadow_10487_5929"/>
<feBlend mode="normal" in="SourceGraphic" in2="effect1_dropShadow_10487_5929" result="shape"/>
</filter>
</defs>
</svg>
