<svg width="432" height="147" viewBox="0 0 432 147" fill="none" xmlns="http://www.w3.org/2000/svg">
<g filter="url(#filter0_d_10439_5444)">
<rect x="4" width="424" height="139" rx="4" fill="#22343C"/>
<rect x="4.5" y="0.5" width="423" height="138" rx="3.5" stroke="#67777E"/>
</g>
<path d="M22.526 80L22.526 70.382H25.774C28.826 70.382 30.982 72.37 30.982 75.184C30.982 77.998 28.826 80 25.774 80H22.526ZM23.618 79.006H25.774C28.182 79.006 29.876 77.424 29.876 75.184C29.876 72.958 28.182 71.376 25.774 71.376H23.618L23.618 79.006ZM35.9298 79.23C36.7838 79.23 37.7638 78.852 38.2118 78.362L38.8558 79.048C38.2258 79.734 36.9518 80.168 35.9438 80.168C34.0118 80.168 32.2758 78.586 32.2758 76.36C32.2758 74.204 33.8998 72.594 35.8458 72.594C38.0298 72.594 39.2758 74.246 39.2758 76.78H33.3538C33.5078 78.194 34.5018 79.23 35.9298 79.23ZM35.8878 73.532C34.5998 73.532 33.5638 74.442 33.3678 75.842H38.2398C38.0998 74.54 37.3298 73.532 35.8878 73.532ZM43.7399 78.936L44.2579 79.706C43.8799 80 43.4039 80.168 42.9139 80.168C41.8779 80.168 41.1499 79.398 41.1499 78.32V73.7H40.0159V72.762H41.1499V70.774H42.1999V72.762H43.9779V73.7H42.1999V78.32C42.1999 78.852 42.5639 79.23 42.9839 79.23C43.3059 79.23 43.5859 79.104 43.7399 78.936ZM48.718 79.23C49.572 79.23 50.552 78.852 51 78.362L51.644 79.048C51.014 79.734 49.74 80.168 48.732 80.168C46.8 80.168 45.064 78.586 45.064 76.36C45.064 74.204 46.688 72.594 48.634 72.594C50.818 72.594 52.064 74.246 52.064 76.78H46.142C46.296 78.194 47.29 79.23 48.718 79.23ZM48.676 73.532C47.388 73.532 46.352 74.442 46.156 75.842H51.028C50.888 74.54 50.118 73.532 48.676 73.532ZM56.8362 80.168C54.8062 80.168 53.0842 78.432 53.0842 76.374C53.0842 74.316 54.8062 72.594 56.8362 72.594C57.8162 72.594 58.7262 73 59.4122 73.658L58.6842 74.372C58.2082 73.854 57.5502 73.532 56.8362 73.532C55.3942 73.532 54.1902 74.834 54.1902 76.374C54.1902 77.928 55.3942 79.23 56.8362 79.23C57.5642 79.23 58.2362 78.894 58.7262 78.348L59.4542 79.062C58.7682 79.748 57.8442 80.168 56.8362 80.168ZM63.6879 78.936L64.2059 79.706C63.8279 80 63.3519 80.168 62.8619 80.168C61.8259 80.168 61.0979 79.398 61.0979 78.32V73.7H59.9639V72.762H61.0979V70.774H62.1479V72.762H63.9259V73.7H62.1479V78.32C62.1479 78.852 62.5119 79.23 62.9319 79.23C63.2539 79.23 63.5339 79.104 63.6879 78.936ZM66.1461 71.446C65.7541 71.446 65.4461 71.124 65.4461 70.746C65.4461 70.382 65.7541 70.06 66.1461 70.06C66.5241 70.06 66.8321 70.382 66.8321 70.746C66.8321 71.124 66.5241 71.446 66.1461 71.446ZM65.6141 80V72.762H66.6641V80H65.6141ZM72.4304 72.594C74.0404 72.594 75.1464 73.728 75.1464 75.394V80H74.0964V75.534C74.0964 74.344 73.3544 73.532 72.2904 73.532C71.0584 73.532 70.0504 74.372 70.0504 75.394V80H69.0004V72.762H70.0504V73.91C70.4704 73.14 71.3944 72.594 72.4304 72.594ZM82.6426 72.762H83.6926V79.23C83.6926 81.092 82.2226 82.408 80.1366 82.408C78.9606 82.408 77.8686 82.002 77.2106 81.442L77.6726 80.616C78.2326 81.148 79.1006 81.47 79.9966 81.47C81.6626 81.47 82.6426 80.644 82.6426 79.23V78.054C82.0826 78.936 81.1586 79.468 80.0106 79.468C78.0646 79.468 76.6786 78.04 76.6786 76.024C76.6786 74.008 78.0646 72.594 80.0106 72.594C81.1586 72.594 82.0826 73.126 82.6426 74.008V72.762ZM80.2066 78.53C81.6346 78.53 82.6426 77.494 82.6426 76.024C82.6426 74.568 81.6346 73.532 80.2066 73.532C78.7926 73.532 77.7846 74.568 77.7846 76.024C77.7846 77.494 78.7926 78.53 80.2066 78.53ZM93.0025 80.154C91.4205 80.154 90.1745 79.58 89.2085 78.628L89.8945 77.774C90.7065 78.586 91.7005 79.16 93.0445 79.16C94.5285 79.16 95.2845 78.348 95.2845 77.48C95.2845 76.458 94.3745 76.052 92.6945 75.66C90.7625 75.212 89.5445 74.61 89.5445 72.944C89.5445 71.404 90.9165 70.214 92.7645 70.214C94.1925 70.214 95.2565 70.774 96.1385 71.586L95.4665 72.44C94.6685 71.67 93.7165 71.208 92.7085 71.208C91.5185 71.208 90.6505 71.978 90.6505 72.86C90.6505 73.854 91.6025 74.204 93.2405 74.596C95.0745 75.03 96.3905 75.688 96.3905 77.382C96.3905 78.908 95.2425 80.154 93.0025 80.154ZM98.5627 80V70.382H101.811C104.863 70.382 107.019 72.37 107.019 75.184C107.019 77.998 104.863 80 101.811 80H98.5627ZM99.6547 79.006H101.811C104.219 79.006 105.913 77.424 105.913 75.184C105.913 72.958 104.219 71.376 101.811 71.376H99.6547V79.006ZM109.222 80V70.382H112.47C115.522 70.382 117.678 72.37 117.678 75.184C117.678 77.998 115.522 80 112.47 80H109.222ZM110.314 79.006H112.47C114.878 79.006 116.572 77.424 116.572 75.184C116.572 72.958 114.878 71.376 112.47 71.376H110.314V79.006ZM124.068 80.168C121.408 80.168 119.14 77.886 119.14 75.184C119.14 72.482 121.408 70.214 124.068 70.214C125.398 70.214 126.63 70.774 127.526 71.684L126.784 72.44C126.084 71.698 125.118 71.222 124.068 71.222C121.996 71.222 120.246 73.042 120.246 75.184C120.246 77.34 121.996 79.16 124.068 79.16C125.118 79.16 126.084 78.684 126.784 77.942L127.526 78.698C126.63 79.594 125.398 80.168 124.068 80.168ZM137.417 80.168C134.757 80.168 132.489 77.886 132.489 75.184C132.489 72.482 134.757 70.214 137.417 70.214C138.747 70.214 139.979 70.774 140.875 71.684L140.133 72.44C139.433 71.698 138.467 71.222 137.417 71.222C135.345 71.222 133.595 73.042 133.595 75.184C133.595 77.34 135.345 79.16 137.417 79.16C138.467 79.16 139.433 78.684 140.133 77.942L140.875 78.698C139.979 79.594 138.747 80.168 137.417 80.168ZM145.106 72.594C147.08 72.594 148.046 73.84 148.046 75.59V80H146.996V78.866C146.478 79.72 145.4 80.168 144.448 80.168C142.922 80.168 141.802 79.286 141.802 77.858C141.802 76.416 143.09 75.45 144.644 75.45C145.428 75.45 146.254 75.618 146.996 75.856V75.59C146.996 74.61 146.604 73.49 145.036 73.49C144.308 73.49 143.58 73.812 142.922 74.148L142.502 73.294C143.538 72.776 144.406 72.594 145.106 72.594ZM144.63 79.244C145.582 79.244 146.716 78.754 146.996 77.732V76.626C146.338 76.444 145.596 76.332 144.812 76.332C143.734 76.332 142.824 76.948 142.824 77.816C142.824 78.712 143.608 79.244 144.63 79.244ZM153.891 72.594C155.795 72.594 157.223 74.162 157.223 76.374C157.223 78.6 155.795 80.168 153.891 80.168C152.729 80.168 151.805 79.594 151.259 78.642V82.408H150.209V72.762H151.259V74.12C151.805 73.168 152.729 72.594 153.891 72.594ZM153.695 79.23C155.109 79.23 156.117 78.04 156.117 76.374C156.117 74.708 155.109 73.532 153.695 73.532C152.267 73.532 151.259 74.708 151.259 76.374C151.259 78.04 152.267 79.23 153.695 79.23ZM161.586 72.594C163.56 72.594 164.526 73.84 164.526 75.59V80H163.476V78.866C162.958 79.72 161.88 80.168 160.928 80.168C159.402 80.168 158.282 79.286 158.282 77.858C158.282 76.416 159.57 75.45 161.124 75.45C161.908 75.45 162.734 75.618 163.476 75.856V75.59C163.476 74.61 163.084 73.49 161.516 73.49C160.788 73.49 160.06 73.812 159.402 74.148L158.982 73.294C160.018 72.776 160.886 72.594 161.586 72.594ZM161.11 79.244C162.062 79.244 163.196 78.754 163.476 77.732V76.626C162.818 76.444 162.076 76.332 161.292 76.332C160.214 76.332 159.304 76.948 159.304 77.816C159.304 78.712 160.088 79.244 161.11 79.244ZM170.371 72.594C172.275 72.594 173.703 74.162 173.703 76.374C173.703 78.6 172.275 80.168 170.371 80.168C169.209 80.168 168.285 79.594 167.739 78.642V80H166.689V70.214H167.739V74.12C168.285 73.168 169.209 72.594 170.371 72.594ZM170.175 79.23C171.589 79.23 172.597 78.04 172.597 76.374C172.597 74.708 171.589 73.532 170.175 73.532C168.747 73.532 167.739 74.708 167.739 76.374C167.739 78.04 168.747 79.23 170.175 79.23ZM176.008 71.446C175.616 71.446 175.308 71.124 175.308 70.746C175.308 70.382 175.616 70.06 176.008 70.06C176.386 70.06 176.694 70.382 176.694 70.746C176.694 71.124 176.386 71.446 176.008 71.446ZM175.476 80V72.762H176.526V80H175.476ZM178.862 80V70.214H179.912V80H178.862ZM182.78 71.446C182.388 71.446 182.08 71.124 182.08 70.746C182.08 70.382 182.388 70.06 182.78 70.06C183.158 70.06 183.466 70.382 183.466 70.746C183.466 71.124 183.158 71.446 182.78 71.446ZM182.248 80V72.762H183.298V80H182.248ZM188.435 78.936L188.953 79.706C188.575 80 188.099 80.168 187.609 80.168C186.573 80.168 185.845 79.398 185.845 78.32V73.7H184.711V72.762H185.845V70.774H186.895V72.762H188.673V73.7H186.895V78.32C186.895 78.852 187.259 79.23 187.679 79.23C188.001 79.23 188.281 79.104 188.435 78.936ZM190.991 82.52C190.571 82.52 190.179 82.436 189.843 82.282L190.095 81.386C190.347 81.512 190.641 81.568 190.949 81.568C191.411 81.568 191.719 81.414 191.999 80.924L192.419 80.028L189.269 72.762H190.431L192.965 78.782L195.359 72.762H196.493L193.189 80.812C192.685 82.044 191.985 82.506 190.991 82.52ZM207.728 82.38C205.852 80.812 204.802 78.698 204.802 76.29C204.802 73.868 205.852 71.768 207.728 70.2L208.288 70.788C206.762 72.356 205.922 73.994 205.922 76.29C205.922 78.572 206.762 80.224 208.288 81.778L207.728 82.38ZM210.99 80V71.712L209.31 72.804L208.834 71.992L211.2 70.382H212.082V80H210.99ZM213.457 81.036L218.371 69.598H219.561L214.647 81.036H213.457ZM223.613 80.168C222.129 80.168 221.009 79.538 220.225 78.642L220.939 77.844C221.681 78.656 222.591 79.188 223.655 79.188C224.985 79.188 225.923 78.264 225.923 77.046C225.923 75.814 224.971 74.974 223.627 74.974C222.801 74.974 222.087 75.268 221.485 75.716L220.687 75.324L220.827 70.382L226.511 70.382V71.418L221.891 71.418L221.793 74.652C222.311 74.302 222.969 74.008 223.851 74.008C225.587 74.008 227.029 75.1 227.029 77.004C227.029 78.908 225.587 80.168 223.613 80.168ZM228.578 82.38L228.018 81.778C229.544 80.224 230.384 78.572 230.384 76.29C230.384 73.994 229.544 72.356 228.018 70.788L228.578 70.2C230.454 71.768 231.504 73.868 231.504 76.29C231.504 78.698 230.454 80.812 228.578 82.38ZM234.43 80.168C233.996 80.168 233.66 79.818 233.66 79.398C233.66 79.006 233.996 78.656 234.43 78.656C234.836 78.656 235.172 79.006 235.172 79.398C235.172 79.818 234.836 80.168 234.43 80.168ZM238.869 80.168C238.435 80.168 238.099 79.818 238.099 79.398C238.099 79.006 238.435 78.656 238.869 78.656C239.275 78.656 239.611 79.006 239.611 79.398C239.611 79.818 239.275 80.168 238.869 80.168Z" fill="#E3EAED"/>
<path d="M262.14 118V109.756H265.032C267.756 109.756 269.676 111.46 269.676 113.872C269.676 116.284 267.756 118 265.032 118H262.14ZM263.628 116.644H265.188C266.928 116.644 268.152 115.492 268.152 113.872C268.152 112.252 266.928 111.112 265.188 111.112H263.628V116.644ZM272.421 118V109.756H273.909V118H272.421ZM280.051 118.132C278.647 118.132 277.435 117.652 276.523 116.8L277.399 115.732C278.155 116.416 279.031 116.848 280.111 116.848C281.119 116.848 281.647 116.344 281.647 115.756C281.647 115.072 281.059 114.844 279.739 114.532C278.035 114.136 276.859 113.644 276.859 112.096C276.859 110.656 278.083 109.612 279.811 109.612C281.119 109.612 282.115 110.056 282.931 110.764L282.115 111.856C281.407 111.244 280.579 110.896 279.763 110.896C278.923 110.896 278.371 111.388 278.371 111.964C278.371 112.636 278.971 112.876 280.279 113.176C281.995 113.56 283.147 114.112 283.147 115.612C283.147 117.088 282.031 118.132 280.051 118.132ZM285.847 118V109.756H287.335L290.059 114.784L292.771 109.756H294.271V118H292.771V112.492L290.059 117.52L287.335 112.492V118H285.847ZM297.535 118V109.756H299.023V118H297.535ZM305.164 118.132C303.76 118.132 302.548 117.652 301.636 116.8L302.512 115.732C303.268 116.416 304.144 116.848 305.224 116.848C306.232 116.848 306.76 116.344 306.76 115.756C306.76 115.072 306.172 114.844 304.852 114.532C303.148 114.136 301.972 113.644 301.972 112.096C301.972 110.656 303.196 109.612 304.924 109.612C306.232 109.612 307.228 110.056 308.044 110.764L307.228 111.856C306.52 111.244 305.692 110.896 304.876 110.896C304.036 110.896 303.484 111.388 303.484 111.964C303.484 112.636 304.084 112.876 305.392 113.176C307.108 113.56 308.26 114.112 308.26 115.612C308.26 117.088 307.144 118.132 305.164 118.132ZM313.816 118.132C312.412 118.132 311.2 117.652 310.288 116.8L311.164 115.732C311.92 116.416 312.796 116.848 313.876 116.848C314.884 116.848 315.412 116.344 315.412 115.756C315.412 115.072 314.824 114.844 313.504 114.532C311.8 114.136 310.624 113.644 310.624 112.096C310.624 110.656 311.848 109.612 313.576 109.612C314.884 109.612 315.88 110.056 316.696 110.764L315.88 111.856C315.172 111.244 314.344 110.896 313.528 110.896C312.688 110.896 312.136 111.388 312.136 111.964C312.136 112.636 312.736 112.876 314.044 113.176C315.76 113.56 316.912 114.112 316.912 115.612C316.912 117.088 315.796 118.132 313.816 118.132Z" fill="#2EC0FF"/>
<path d="M347.92 118.144C345.58 118.144 343.6 116.188 343.6 113.872C343.6 111.556 345.58 109.612 347.92 109.612C349.132 109.612 350.248 110.128 351.04 110.944L349.972 111.94C349.456 111.352 348.724 110.98 347.92 110.98C346.408 110.98 345.124 112.3 345.124 113.872C345.124 115.456 346.408 116.776 347.92 116.776C348.724 116.776 349.456 116.404 349.984 115.816L351.04 116.8C350.248 117.628 349.132 118.144 347.92 118.144ZM359.649 118L359.001 116.44H355.065L354.417 118H352.749L356.193 109.756H357.861L361.305 118H359.649ZM355.581 115.216H358.485L357.033 111.748L355.581 115.216ZM363.742 118V109.756H365.23L369.586 115.552V109.756H371.074V118H369.586L365.23 112.204V118H363.742ZM378.131 118.144C375.791 118.144 373.811 116.188 373.811 113.872C373.811 111.556 375.791 109.612 378.131 109.612C379.343 109.612 380.459 110.128 381.251 110.944L380.183 111.94C379.667 111.352 378.935 110.98 378.131 110.98C376.619 110.98 375.335 112.3 375.335 113.872C375.335 115.456 376.619 116.776 378.131 116.776C378.935 116.776 379.667 116.404 380.195 115.816L381.251 116.8C380.459 117.628 379.343 118.144 378.131 118.144ZM390.004 111.124H385.3V113.116H389.548V114.484H385.3V116.632H390.004V118H383.8V109.756H390.004V111.124ZM394.304 116.632H398.54V118H392.816V109.756H394.304V116.632Z" fill="#2EC0FF"/>
<path d="M29.4 30L28.644 28.18H24.052L23.296 30H21.35L25.368 20.382H27.314L31.332 30H29.4ZM24.654 26.752H28.042L26.348 22.706L24.654 26.752ZM35.9597 30.168C33.8597 30.168 32.0817 28.432 32.0817 26.374C32.0817 24.316 33.8597 22.594 35.9737 22.594C37.0797 22.594 38.0317 23.056 38.7177 23.77L37.5697 24.778C37.1777 24.344 36.5757 24.05 35.9597 24.05C34.7697 24.05 33.7757 25.114 33.7757 26.374C33.7757 27.648 34.7697 28.712 35.9597 28.712C36.5897 28.712 37.2057 28.418 37.6117 27.956L38.7597 28.95C38.0597 29.692 37.0937 30.168 35.9597 30.168ZM43.4082 28.446L43.8982 29.594C43.4922 29.944 42.9042 30.168 42.3442 30.168C41.1542 30.168 40.3142 29.3 40.3142 28.082V24.176H39.2642V22.762H40.3142V20.774H41.9662V22.762H43.6042V24.176H41.9662V27.872C41.9662 28.362 42.2882 28.712 42.6942 28.712C42.9882 28.712 43.2542 28.6 43.4082 28.446ZM46.0516 21.67C45.5056 21.67 45.0716 21.208 45.0716 20.69C45.0716 20.172 45.5056 19.724 46.0516 19.724C46.5836 19.724 47.0176 20.172 47.0176 20.69C47.0176 21.208 46.5836 21.67 46.0516 21.67ZM45.1976 30V22.762H46.9056V30H45.1976ZM51.1514 30L48.0294 22.762H49.8494L51.9494 28.026L54.0074 22.762H55.8134L52.7474 30H51.1514ZM59.8448 22.594C61.7628 22.594 62.9388 23.812 62.9388 25.646V30H61.2728V29.146C60.7408 29.804 59.8448 30.168 59.0048 30.168C57.4648 30.168 56.3168 29.258 56.3168 27.858C56.3168 26.43 57.6188 25.45 59.2568 25.45C59.9148 25.45 60.6148 25.59 61.2728 25.828V25.646C61.2728 24.806 60.8248 23.994 59.5088 23.994C58.8228 23.994 58.1648 24.232 57.5488 24.54L56.9608 23.35C57.9828 22.846 58.9348 22.594 59.8448 22.594ZM59.3828 28.922C60.2088 28.922 61.0908 28.502 61.2728 27.732V26.906C60.7408 26.738 60.1388 26.64 59.5088 26.64C58.6548 26.64 57.9548 27.116 57.9548 27.802C57.9548 28.488 58.5708 28.922 59.3828 28.922ZM68.2055 28.446L68.6955 29.594C68.2895 29.944 67.7015 30.168 67.1415 30.168C65.9515 30.168 65.1115 29.3 65.1115 28.082V24.176H64.0615V22.762H65.1115V20.774H66.7635V22.762H68.4015V24.176H66.7635V27.872C66.7635 28.362 67.0855 28.712 67.4915 28.712C67.7855 28.712 68.0515 28.6 68.2055 28.446ZM70.8489 21.67C70.3029 21.67 69.8689 21.208 69.8689 20.69C69.8689 20.172 70.3029 19.724 70.8489 19.724C71.3809 19.724 71.8149 20.172 71.8149 20.69C71.8149 21.208 71.3809 21.67 70.8489 21.67ZM69.9949 30V22.762L71.7029 22.762V30H69.9949ZM77.6847 22.594C79.2807 22.594 80.3867 23.742 80.3867 25.394V30H78.7207V25.73C78.7207 24.736 78.1047 24.05 77.2087 24.05C76.2287 24.05 75.4447 24.736 75.4447 25.618V30H73.7367V22.762H75.4447V23.742C75.8787 23.056 76.7187 22.594 77.6847 22.594ZM87.4436 22.762L89.1656 22.762V29.23C89.1656 31.092 87.5976 32.408 85.3856 32.408C84.1396 32.408 82.9776 32.002 82.2776 31.442L82.9076 30.196C83.4116 30.658 84.2656 30.952 85.1196 30.952C86.5476 30.952 87.4436 30.266 87.4436 29.174V28.25C86.8696 29.02 85.9876 29.468 84.9656 29.468C83.1036 29.468 81.7176 28.04 81.7176 26.024C81.7176 24.008 83.1036 22.594 84.9656 22.594C86.0016 22.594 86.9256 23.07 87.4436 23.826V22.762ZM85.4556 28.012C86.6176 28.012 87.4436 27.186 87.4436 26.024C87.4436 24.876 86.6176 24.05 85.4556 24.05C84.3076 24.05 83.4816 24.876 83.4816 26.024C83.4816 27.186 84.3076 28.012 85.4556 28.012ZM102.238 30L101.482 28.18L96.8895 28.18L96.1335 30H94.1875L98.2055 20.382H100.152L104.17 30H102.238ZM97.4915 26.752L100.88 26.752L99.1855 22.706L97.4915 26.752ZM110.827 20.214H112.535V30H110.827V28.852C110.267 29.678 109.385 30.168 108.321 30.168C106.389 30.168 104.989 28.6 104.989 26.374C104.989 24.162 106.389 22.594 108.321 22.594C109.385 22.594 110.267 23.084 110.827 23.896V20.214ZM108.769 28.712C109.973 28.712 110.813 27.732 110.813 26.374C110.813 25.016 109.973 24.05 108.769 24.05C107.551 24.05 106.683 25.016 106.683 26.374C106.683 27.732 107.551 28.712 108.769 28.712ZM119.915 20.214H121.623V30H119.915V28.852C119.355 29.678 118.473 30.168 117.409 30.168C115.477 30.168 114.077 28.6 114.077 26.374C114.077 24.162 115.477 22.594 117.409 22.594C118.473 22.594 119.355 23.084 119.915 23.896V20.214ZM117.857 28.712C119.061 28.712 119.901 27.732 119.901 26.374C119.901 25.016 119.061 24.05 117.857 24.05C116.639 24.05 115.771 25.016 115.771 26.374C115.771 27.732 116.639 28.712 117.857 28.712ZM123.64 26.906V25.408H127.406V26.906L123.64 26.906ZM132.751 30.168C130.609 30.168 128.859 28.46 128.859 26.374C128.859 24.288 130.609 22.594 132.751 22.594C134.879 22.594 136.615 24.288 136.615 26.374C136.615 28.46 134.879 30.168 132.751 30.168ZM132.751 28.712C133.955 28.712 134.949 27.662 134.949 26.374C134.949 25.086 133.955 24.05 132.751 24.05C131.533 24.05 130.539 25.086 130.539 26.374C130.539 27.662 131.533 28.712 132.751 28.712ZM142.045 22.594C143.641 22.594 144.747 23.742 144.747 25.394V30H143.081V25.73C143.081 24.736 142.465 24.05 141.569 24.05C140.589 24.05 139.805 24.736 139.805 25.618V30H138.097V22.762H139.805V23.742C140.239 23.056 141.079 22.594 142.045 22.594Z" fill="white"/>
<path d="M155 29.12C153.91 29.12 153.08 28.68 152.5 28.04L153.13 27.32C153.65 27.87 154.29 28.23 155.02 28.23C155.91 28.23 156.52 27.63 156.52 26.86C156.52 26.07 155.9 25.54 155.01 25.54C154.44 25.54 153.96 25.73 153.55 26.04L152.84 25.72L152.94 22.13H157.16V23.07H153.9L153.84 25.11C154.2 24.87 154.66 24.67 155.26 24.67C156.5 24.67 157.53 25.45 157.53 26.82C157.53 28.21 156.48 29.12 155 29.12ZM168.37 23.71C169.45 23.71 170.23 24.54 170.23 25.71V29H169.27V25.86C169.27 25.1 168.81 24.57 168.17 24.57C167.43 24.57 166.9 25.06 166.9 25.77V29H165.93V25.86C165.93 25.1 165.48 24.57 164.84 24.57C164.09 24.57 163.57 25.06 163.57 25.77V29L162.58 29V23.83H163.57V24.57C163.83 24.04 164.37 23.71 165.04 23.71C165.86 23.71 166.51 24.19 166.77 24.94C166.93 24.21 167.56 23.71 168.37 23.71ZM172.74 22.97C172.41 22.97 172.14 22.69 172.14 22.37C172.14 22.06 172.41 21.78 172.74 21.78C173.07 21.78 173.33 22.06 173.33 22.37C173.33 22.69 173.07 22.97 172.74 22.97ZM172.24 29V23.83L173.23 23.83V29H172.24ZM177.987 23.71C179.127 23.71 179.917 24.52 179.917 25.71V29H178.957V25.88C178.957 25.1 178.467 24.57 177.767 24.57C176.977 24.57 176.337 25.11 176.337 25.79V29H175.347V23.83H176.337V24.59C176.637 24.07 177.277 23.71 177.987 23.71ZM185.401 23.83H186.391V29H185.401V28.26C185.091 28.77 184.461 29.12 183.751 29.12C182.611 29.12 181.821 28.31 181.821 27.12V23.83H182.791V26.95C182.791 27.73 183.281 28.26 183.981 28.26C184.771 28.26 185.401 27.72 185.401 27.04V23.83ZM190.735 28.07L191.105 28.75C190.825 28.98 190.435 29.12 190.065 29.12C189.265 29.12 188.705 28.54 188.705 27.71V24.67H187.935V23.83H188.705V22.41L189.675 22.41V23.83H190.895V24.67L189.675 24.67V27.64C189.675 28 189.925 28.26 190.215 28.26C190.435 28.26 190.635 28.18 190.735 28.07ZM194.888 28.3C195.448 28.3 196.098 28.05 196.418 27.71L196.998 28.32C196.548 28.81 195.638 29.12 194.908 29.12C193.478 29.12 192.238 27.99 192.238 26.4C192.238 24.85 193.408 23.71 194.838 23.71C196.418 23.71 197.338 24.89 197.338 26.73H193.208C193.328 27.64 193.968 28.3 194.888 28.3ZM194.858 24.53C194.028 24.53 193.368 25.11 193.218 26H196.378C196.278 25.17 195.758 24.53 194.858 24.53ZM200.698 29.12C199.938 29.12 199.118 28.85 198.498 28.35L198.948 27.67C199.518 28.09 200.138 28.32 200.708 28.32C201.328 28.32 201.718 28.04 201.718 27.62C201.718 27.13 201.178 26.97 200.518 26.79C199.338 26.46 198.738 26.12 198.738 25.28C198.738 24.33 199.528 23.71 200.618 23.71C201.288 23.71 201.978 23.94 202.528 24.31L202.118 25.01C201.608 24.69 201.088 24.51 200.618 24.51C200.098 24.51 199.678 24.74 199.678 25.17C199.678 25.57 200.028 25.69 200.908 25.96C201.758 26.21 202.658 26.49 202.658 27.52C202.658 28.5 201.838 29.12 200.698 29.12ZM207.605 29V22.01H208.595V29H207.605ZM212.962 28.3C213.522 28.3 214.172 28.05 214.492 27.71L215.072 28.32C214.622 28.81 213.712 29.12 212.982 29.12C211.552 29.12 210.312 27.99 210.312 26.4C210.312 24.85 211.482 23.71 212.912 23.71C214.492 23.71 215.412 24.89 215.412 26.73H211.282C211.402 27.64 212.042 28.3 212.962 28.3ZM212.932 24.53C212.102 24.53 211.442 25.11 211.292 26H214.452C214.352 25.17 213.832 24.53 212.932 24.53ZM218.252 23.26V23.83L219.472 23.83V24.67H218.252V29H217.282V24.67H216.502V23.83H217.282V23.21C217.282 22.38 217.842 21.8 218.642 21.8C219.012 21.8 219.392 21.94 219.672 22.17L219.312 22.83C219.202 22.72 219.002 22.64 218.782 22.64C218.492 22.64 218.252 22.9 218.252 23.26ZM223.122 28.07L223.492 28.75C223.212 28.98 222.822 29.12 222.452 29.12C221.652 29.12 221.092 28.54 221.092 27.71V24.67H220.322V23.83H221.092V22.41H222.062V23.83H223.282V24.67H222.062V27.64C222.062 28 222.312 28.26 222.602 28.26C222.822 28.26 223.022 28.18 223.122 28.07Z" fill="#ACB8BE"/>
<path d="M409.12 23.9913L404 29.2891L398.88 23.9913C398.59 23.6906 398.599 23.212 398.9 22.9224C399.201 22.6328 399.679 22.6417 399.969 22.9424L404 27.1157L408.036 22.9424C408.325 22.6417 408.804 22.6328 409.104 22.9224C409.405 23.212 409.414 23.6906 409.124 23.9913H409.12Z" fill="#F1F6F8"/>
<path fill-rule="evenodd" clip-rule="evenodd" d="M21.1777 44H372.808V56H21.1777V44Z" fill="#2D4048"/>
<path fill-rule="evenodd" clip-rule="evenodd" d="M21.1777 44H158.072V56H21.1777V44Z" fill="#2EC0FF"/>
<path d="M385.92 54.168C384.338 54.168 383.12 53.44 382.42 52.516L383.176 51.802C383.806 52.614 384.744 53.174 385.92 53.174C387.264 53.174 388.16 52.432 388.16 51.34C388.16 50.206 387.194 49.632 385.682 49.632H384.66V48.624L385.696 48.638C386.984 48.652 387.95 48.036 387.95 46.944C387.95 45.936 387.026 45.208 385.822 45.208C384.758 45.208 384.002 45.74 383.316 46.566L382.588 45.908C383.316 44.942 384.38 44.214 385.878 44.214C387.712 44.214 389.056 45.278 389.056 46.818C389.056 48.05 388.188 48.778 387.194 49.072C388.174 49.296 389.266 50.01 389.266 51.396C389.266 53.006 387.922 54.168 385.92 54.168ZM394.892 54.168C392.54 54.168 390.888 52.11 390.888 49.184C390.888 46.272 392.54 44.214 394.892 44.214C397.23 44.214 398.882 46.272 398.882 49.184C398.882 52.11 397.23 54.168 394.892 54.168ZM394.892 53.16C396.586 53.16 397.776 51.508 397.776 49.184C397.776 46.86 396.586 45.222 394.892 45.222C393.198 45.222 391.994 46.86 391.994 49.184C391.994 51.508 393.198 53.16 394.892 53.16ZM402.736 49.114C401.406 49.114 400.51 48.036 400.51 46.734C400.51 45.348 401.448 44.298 402.75 44.298C404.08 44.298 404.976 45.376 404.976 46.706C404.976 48.064 404.052 49.114 402.736 49.114ZM401.686 54L408.266 44.382H409.33L402.75 54H401.686ZM402.75 48.358C403.534 48.358 404.094 47.658 404.094 46.72C404.094 45.768 403.52 45.054 402.736 45.054C401.952 45.054 401.392 45.754 401.392 46.72C401.392 47.644 401.98 48.358 402.75 48.358ZM408.224 54.14C406.936 54.14 405.998 53.104 405.998 51.732C405.998 50.416 406.908 49.324 408.238 49.324C409.568 49.324 410.464 50.416 410.464 51.718C410.464 53.09 409.526 54.14 408.224 54.14ZM408.238 53.384C409.036 53.384 409.582 52.684 409.582 51.732C409.582 50.794 409.008 50.08 408.224 50.08C407.426 50.08 406.88 50.808 406.88 51.718C406.88 52.67 407.44 53.384 408.238 53.384Z" fill="#ACB8BE"/>
<defs>
<filter id="filter0_d_10439_5444" x="0" y="0" width="432" height="147" filterUnits="userSpaceOnUse" color-interpolation-filters="sRGB">
<feFlood flood-opacity="0" result="BackgroundImageFix"/>
<feColorMatrix in="SourceAlpha" type="matrix" values="0 0 0 0 0 0 0 0 0 0 0 0 0 0 0 0 0 0 127 0" result="hardAlpha"/>
<feOffset dy="4"/>
<feGaussianBlur stdDeviation="2"/>
<feComposite in2="hardAlpha" operator="out"/>
<feColorMatrix type="matrix" values="0 0 0 0 0.105 0 0 0 0 0.168 0 0 0 0 0.195 0 0 0 0.25 0"/>
<feBlend mode="normal" in2="BackgroundImageFix" result="effect1_dropShadow_10439_5444"/>
<feBlend mode="normal" in="SourceGraphic" in2="effect1_dropShadow_10439_5444" result="shape"/>
</filter>
</defs>
</svg>
