<svg width="432" height="44" viewBox="0 0 432 44" fill="none" xmlns="http://www.w3.org/2000/svg">
<g filter="url(#filter0_d_10499_14217)">
<rect x="4" width="424" height="36" rx="4" fill="#22343C"/>
<rect x="4.5" y="0.5" width="423" height="35" rx="3.5" stroke="#67777E"/>
</g>
<path fill-rule="evenodd" clip-rule="evenodd" d="M22.3335 18.0002C22.3335 23.8912 27.1091 28.6668 33.0002 28.6668C35.8291 28.6668 38.5422 27.543 40.5426 25.5426C42.543 23.5422 43.6668 20.8291 43.6668 18.0002C43.6668 12.1091 38.8912 7.3335 33.0002 7.3335C27.1091 7.3335 22.3335 12.1091 22.3335 18.0002ZM23.6668 18.0002C23.6668 12.8455 27.8455 8.66683 33.0002 8.66683C38.1548 8.66683 42.3335 12.8455 42.3335 18.0002C42.3335 23.1548 38.1548 27.3335 33.0002 27.3335C27.8455 27.3335 23.6668 23.1548 23.6668 18.0002ZM35.0002 22.6668H33.6668V15.4002H31.6668C31.2986 15.4002 31.0002 15.6986 31.0002 16.0668C31.0002 16.435 31.2986 16.7335 31.6668 16.7335H32.3335V22.6668H31.0002C30.632 22.6668 30.3335 22.9653 30.3335 23.3335C30.3335 23.7017 30.632 24.0002 31.0002 24.0002H35.0002C35.3684 24.0002 35.6668 23.7017 35.6668 23.3335C35.6668 22.9653 35.3684 22.6668 35.0002 22.6668ZM33.9135 12.9668C33.9135 13.4823 33.4956 13.9002 32.9802 13.9002C32.4647 13.9002 32.0468 13.4823 32.0468 12.9668C32.0468 12.4514 32.4647 12.0335 32.9802 12.0335C33.4956 12.0335 33.9135 12.4514 33.9135 12.9668Z" fill="#2EC0FF"/>
<path d="M60.834 22L59.868 19.816H54.506L53.54 22H52.35L56.592 12.382L57.782 12.382L62.024 22H60.834ZM54.954 18.78H59.42L57.194 13.726L54.954 18.78ZM66.603 22.168C64.573 22.168 62.851 20.432 62.851 18.374C62.851 16.316 64.573 14.594 66.603 14.594C67.583 14.594 68.493 15 69.179 15.658L68.451 16.372C67.975 15.854 67.317 15.532 66.603 15.532C65.161 15.532 63.957 16.834 63.957 18.374C63.957 19.928 65.161 21.23 66.603 21.23C67.331 21.23 68.003 20.894 68.493 20.348L69.221 21.062C68.535 21.748 67.611 22.168 66.603 22.168ZM73.4547 20.936L73.9727 21.706C73.5947 22 73.1187 22.168 72.6287 22.168C71.5927 22.168 70.8647 21.398 70.8647 20.32V15.7H69.7307V14.762H70.8647V12.774H71.9147V14.762L73.6927 14.762V15.7L71.9147 15.7V20.32C71.9147 20.852 72.2787 21.23 72.6987 21.23C73.0207 21.23 73.3007 21.104 73.4547 20.936ZM75.9129 13.446C75.5209 13.446 75.2129 13.124 75.2129 12.746C75.2129 12.382 75.5209 12.06 75.9129 12.06C76.2909 12.06 76.5989 12.382 76.5989 12.746C76.5989 13.124 76.2909 13.446 75.9129 13.446ZM75.3809 22V14.762L76.4309 14.762V22H75.3809ZM80.7692 22L77.6892 14.762H78.8652L81.2732 20.768L83.6392 14.762H84.8152L81.7772 22H80.7692ZM88.6674 14.594C90.6414 14.594 91.6074 15.84 91.6074 17.59V22H90.5574V20.866C90.0394 21.72 88.9614 22.168 88.0094 22.168C86.4834 22.168 85.3634 21.286 85.3634 19.858C85.3634 18.416 86.6514 17.45 88.2054 17.45C88.9894 17.45 89.8154 17.618 90.5574 17.856V17.59C90.5574 16.61 90.1654 15.49 88.5974 15.49C87.8694 15.49 87.1414 15.812 86.4834 16.148L86.0634 15.294C87.0994 14.776 87.9674 14.594 88.6674 14.594ZM88.1914 21.244C89.1434 21.244 90.2774 20.754 90.5574 19.732V18.626C89.8994 18.444 89.1574 18.332 88.3734 18.332C87.2954 18.332 86.3854 18.948 86.3854 19.816C86.3854 20.712 87.1694 21.244 88.1914 21.244ZM96.5703 20.936L97.0883 21.706C96.7103 22 96.2343 22.168 95.7443 22.168C94.7083 22.168 93.9803 21.398 93.9803 20.32V15.7H92.8463V14.762H93.9803V12.774H95.0303V14.762H96.8083V15.7H95.0303V20.32C95.0303 20.852 95.3943 21.23 95.8143 21.23C96.1363 21.23 96.4163 21.104 96.5703 20.936ZM99.0285 13.446C98.6365 13.446 98.3285 13.124 98.3285 12.746C98.3285 12.382 98.6365 12.06 99.0285 12.06C99.4065 12.06 99.7145 12.382 99.7145 12.746C99.7145 13.124 99.4065 13.446 99.0285 13.446ZM98.4965 22V14.762H99.5465V22L98.4965 22ZM105.313 14.594C106.923 14.594 108.029 15.728 108.029 17.394V22H106.979V17.534C106.979 16.344 106.237 15.532 105.173 15.532C103.941 15.532 102.933 16.372 102.933 17.394V22H101.883V14.762H102.933V15.91C103.353 15.14 104.277 14.594 105.313 14.594ZM115.525 14.762L116.575 14.762V21.23C116.575 23.092 115.105 24.408 113.019 24.408C111.843 24.408 110.751 24.002 110.093 23.442L110.555 22.616C111.115 23.148 111.983 23.47 112.879 23.47C114.545 23.47 115.525 22.644 115.525 21.23V20.054C114.965 20.936 114.041 21.468 112.893 21.468C110.947 21.468 109.561 20.04 109.561 18.024C109.561 16.008 110.947 14.594 112.893 14.594C114.041 14.594 114.965 15.126 115.525 16.008V14.762ZM113.089 20.53C114.517 20.53 115.525 19.494 115.525 18.024C115.525 16.568 114.517 15.532 113.089 15.532C111.675 15.532 110.667 16.568 110.667 18.024C110.667 19.494 111.675 20.53 113.089 20.53ZM130.281 22L129.315 19.816L123.953 19.816L122.987 22H121.797L126.039 12.382H127.229L131.471 22H130.281ZM124.401 18.78L128.867 18.78L126.641 13.726L124.401 18.78ZM138.346 12.214H139.396V22H138.346V20.642C137.8 21.594 136.876 22.168 135.714 22.168C133.81 22.168 132.382 20.6 132.382 18.374C132.382 16.162 133.81 14.594 135.714 14.594C136.876 14.594 137.8 15.168 138.346 16.12V12.214ZM135.91 21.23C137.338 21.23 138.346 20.04 138.346 18.374C138.346 16.708 137.338 15.532 135.91 15.532C134.496 15.532 133.488 16.708 133.488 18.374C133.488 20.04 134.496 21.23 135.91 21.23ZM147.133 12.214H148.183V22H147.133V20.642C146.587 21.594 145.663 22.168 144.501 22.168C142.597 22.168 141.169 20.6 141.169 18.374C141.169 16.162 142.597 14.594 144.501 14.594C145.663 14.594 146.587 15.168 147.133 16.12V12.214ZM144.697 21.23C146.125 21.23 147.133 20.04 147.133 18.374C147.133 16.708 146.125 15.532 144.697 15.532C143.283 15.532 142.275 16.708 142.275 18.374C142.275 20.04 143.283 21.23 144.697 21.23ZM150.501 18.71V17.688H154.127V18.71H150.501ZM160.939 22.168C158.279 22.168 156.011 19.886 156.011 17.184C156.011 14.482 158.279 12.214 160.939 12.214C163.613 12.214 165.853 14.482 165.853 17.184C165.853 19.886 163.613 22.168 160.939 22.168ZM160.939 21.16C163.011 21.16 164.747 19.34 164.747 17.184C164.747 15.042 163.011 13.222 160.939 13.222C158.867 13.222 157.117 15.042 157.117 17.184C157.117 19.34 158.867 21.16 160.939 21.16ZM171.204 14.594C172.814 14.594 173.92 15.728 173.92 17.394V22H172.87V17.534C172.87 16.344 172.128 15.532 171.064 15.532C169.832 15.532 168.824 16.372 168.824 17.394V22H167.774V14.762H168.824V15.91C169.244 15.14 170.168 14.594 171.204 14.594ZM183.268 14.594C184.878 14.594 185.984 15.728 185.984 17.394V22H184.934V17.534C184.934 16.344 184.192 15.532 183.128 15.532C181.896 15.532 180.888 16.372 180.888 17.394V22H179.838V12.214H180.888V15.91C181.308 15.14 182.232 14.594 183.268 14.594ZM190.736 14.594C192.71 14.594 193.676 15.84 193.676 17.59V22H192.626V20.866C192.108 21.72 191.03 22.168 190.078 22.168C188.552 22.168 187.432 21.286 187.432 19.858C187.432 18.416 188.72 17.45 190.274 17.45C191.058 17.45 191.884 17.618 192.626 17.856V17.59C192.626 16.61 192.234 15.49 190.666 15.49C189.938 15.49 189.21 15.812 188.552 16.148L188.132 15.294C189.168 14.776 190.036 14.594 190.736 14.594ZM190.26 21.244C191.212 21.244 192.346 20.754 192.626 19.732V18.626C191.968 18.444 191.226 18.332 190.442 18.332C189.364 18.332 188.454 18.948 188.454 19.816C188.454 20.712 189.238 21.244 190.26 21.244ZM198.079 22.168C197.071 22.168 195.951 21.79 195.083 21.09L195.629 20.32C196.455 20.922 197.281 21.23 198.079 21.23C199.031 21.23 199.675 20.782 199.675 20.096C199.675 19.312 198.835 19.06 197.855 18.78C196.105 18.276 195.433 17.758 195.433 16.722C195.433 15.406 196.525 14.594 197.967 14.594C198.863 14.594 199.787 14.902 200.557 15.406L200.053 16.218C199.325 15.756 198.611 15.532 197.967 15.532C197.155 15.532 196.483 15.896 196.483 16.596C196.483 17.226 197.015 17.422 198.359 17.856C199.521 18.22 200.725 18.612 200.725 19.984C200.725 21.314 199.577 22.168 198.079 22.168ZM209.862 14.594C211.766 14.594 213.194 16.162 213.194 18.374C213.194 20.6 211.766 22.168 209.862 22.168C208.7 22.168 207.776 21.594 207.23 20.642V22H206.18V12.214L207.23 12.214V16.12C207.776 15.168 208.7 14.594 209.862 14.594ZM209.666 21.23C211.08 21.23 212.088 20.04 212.088 18.374C212.088 16.708 211.08 15.532 209.666 15.532C208.238 15.532 207.23 16.708 207.23 18.374C207.23 20.04 208.238 21.23 209.666 21.23ZM218.019 21.23C218.873 21.23 219.853 20.852 220.301 20.362L220.945 21.048C220.315 21.734 219.041 22.168 218.033 22.168C216.101 22.168 214.365 20.586 214.365 18.36C214.365 16.204 215.989 14.594 217.935 14.594C220.119 14.594 221.365 16.246 221.365 18.78L215.443 18.78C215.597 20.194 216.591 21.23 218.019 21.23ZM217.977 15.532C216.689 15.532 215.653 16.442 215.457 17.842L220.329 17.842C220.189 16.54 219.419 15.532 217.977 15.532ZM226.081 21.23C226.935 21.23 227.915 20.852 228.363 20.362L229.007 21.048C228.377 21.734 227.103 22.168 226.095 22.168C224.163 22.168 222.427 20.586 222.427 18.36C222.427 16.204 224.051 14.594 225.997 14.594C228.181 14.594 229.427 16.246 229.427 18.78H223.505C223.659 20.194 224.653 21.23 226.081 21.23ZM226.039 15.532C224.751 15.532 223.715 16.442 223.519 17.842H228.391C228.251 16.54 227.481 15.532 226.039 15.532ZM234.521 14.594C236.131 14.594 237.237 15.728 237.237 17.394V22H236.187V17.534C236.187 16.344 235.445 15.532 234.381 15.532C233.149 15.532 232.141 16.372 232.141 17.394V22H231.091V14.762H232.141V15.91C232.561 15.14 233.485 14.594 234.521 14.594ZM246.263 22.168C244.233 22.168 242.511 20.432 242.511 18.374C242.511 16.316 244.233 14.594 246.263 14.594C247.243 14.594 248.153 15 248.839 15.658L248.111 16.372C247.635 15.854 246.977 15.532 246.263 15.532C244.821 15.532 243.617 16.834 243.617 18.374C243.617 19.928 244.821 21.23 246.263 21.23C246.991 21.23 247.663 20.894 248.153 20.348L248.881 21.062C248.195 21.748 247.271 22.168 246.263 22.168ZM252.904 14.594C254.878 14.594 255.844 15.84 255.844 17.59V22H254.794V20.866C254.276 21.72 253.198 22.168 252.246 22.168C250.72 22.168 249.6 21.286 249.6 19.858C249.6 18.416 250.888 17.45 252.442 17.45C253.226 17.45 254.052 17.618 254.794 17.856V17.59C254.794 16.61 254.402 15.49 252.834 15.49C252.106 15.49 251.378 15.812 250.72 16.148L250.3 15.294C251.336 14.776 252.204 14.594 252.904 14.594ZM252.428 21.244C253.38 21.244 254.514 20.754 254.794 19.732V18.626C254.136 18.444 253.394 18.332 252.61 18.332C251.532 18.332 250.622 18.948 250.622 19.816C250.622 20.712 251.406 21.244 252.428 21.244ZM261.437 14.594C263.047 14.594 264.153 15.728 264.153 17.394V22H263.103V17.534C263.103 16.344 262.361 15.532 261.297 15.532C260.065 15.532 259.057 16.372 259.057 17.394V22H258.007V14.762H259.057V15.91C259.477 15.14 260.401 14.594 261.437 14.594ZM269.424 22.168C267.394 22.168 265.672 20.432 265.672 18.374C265.672 16.316 267.394 14.594 269.424 14.594C270.404 14.594 271.314 15 272 15.658L271.272 16.372C270.796 15.854 270.138 15.532 269.424 15.532C267.982 15.532 266.778 16.834 266.778 18.374C266.778 19.928 267.982 21.23 269.424 21.23C270.152 21.23 270.824 20.894 271.314 20.348L272.042 21.062C271.356 21.748 270.432 22.168 269.424 22.168ZM276.527 21.23C277.381 21.23 278.361 20.852 278.809 20.362L279.453 21.048C278.823 21.734 277.549 22.168 276.541 22.168C274.609 22.168 272.873 20.586 272.873 18.36C272.873 16.204 274.497 14.594 276.443 14.594C278.627 14.594 279.873 16.246 279.873 18.78L273.951 18.78C274.105 20.194 275.099 21.23 276.527 21.23ZM276.485 15.532C275.197 15.532 274.161 16.442 273.965 17.842L278.837 17.842C278.697 16.54 277.927 15.532 276.485 15.532ZM281.538 22V12.214H282.588V22H281.538ZM284.924 22V12.214H285.974V22H284.924ZM291.362 21.23C292.216 21.23 293.196 20.852 293.644 20.362L294.288 21.048C293.658 21.734 292.384 22.168 291.376 22.168C289.444 22.168 287.708 20.586 287.708 18.36C287.708 16.204 289.332 14.594 291.278 14.594C293.462 14.594 294.708 16.246 294.708 18.78H288.786C288.94 20.194 289.934 21.23 291.362 21.23ZM291.32 15.532C290.032 15.532 288.996 16.442 288.8 17.842H293.672C293.532 16.54 292.762 15.532 291.32 15.532ZM301.776 12.214H302.826V22H301.776V20.642C301.23 21.594 300.306 22.168 299.144 22.168C297.24 22.168 295.812 20.6 295.812 18.374C295.812 16.162 297.24 14.594 299.144 14.594C300.306 14.594 301.23 15.168 301.776 16.12V12.214ZM299.34 21.23C300.768 21.23 301.776 20.04 301.776 18.374C301.776 16.708 300.768 15.532 299.34 15.532C297.926 15.532 296.918 16.708 296.918 18.374C296.918 20.04 297.926 21.23 299.34 21.23Z" fill="#E3EAED"/>
<path d="M404.627 18L408.311 14.3155C408.462 14.1392 408.452 13.8763 408.288 13.7122C408.124 13.548 407.861 13.5379 407.685 13.6889L404 17.3733L400.316 13.6844C400.141 13.5101 399.859 13.5101 399.685 13.6844C399.51 13.8587 399.51 14.1413 399.685 14.3155L403.374 18L399.685 21.6844C399.558 21.793 399.503 21.9636 399.542 22.1259C399.581 22.2883 399.707 22.4151 399.87 22.4541C400.032 22.4932 400.203 22.4379 400.311 22.3111L404 18.6266L407.685 22.3111C407.861 22.4621 408.124 22.4519 408.288 22.2878C408.452 22.1236 408.462 21.8608 408.311 21.6844L404.627 18Z" fill="#F1F6F8"/>
<defs>
<filter id="filter0_d_10499_14217" x="0" y="0" width="432" height="44" filterUnits="userSpaceOnUse" color-interpolation-filters="sRGB">
<feFlood flood-opacity="0" result="BackgroundImageFix"/>
<feColorMatrix in="SourceAlpha" type="matrix" values="0 0 0 0 0 0 0 0 0 0 0 0 0 0 0 0 0 0 127 0" result="hardAlpha"/>
<feOffset dy="4"/>
<feGaussianBlur stdDeviation="2"/>
<feComposite in2="hardAlpha" operator="out"/>
<feColorMatrix type="matrix" values="0 0 0 0 0.105 0 0 0 0 0.168 0 0 0 0 0.195 0 0 0 0.25 0"/>
<feBlend mode="normal" in2="BackgroundImageFix" result="effect1_dropShadow_10499_14217"/>
<feBlend mode="normal" in="SourceGraphic" in2="effect1_dropShadow_10499_14217" result="shape"/>
</filter>
</defs>
</svg>
