<svg width="432" height="123" viewBox="0 0 432 123" fill="none" xmlns="http://www.w3.org/2000/svg">
<g filter="url(#filter0_d_10477_4636)">
<rect x="4" width="424" height="115" rx="4" fill="#22343C"/>
<rect x="4.5" y="0.5" width="423" height="114" rx="3.5" stroke="#67777E"/>
</g>
<path fill-rule="evenodd" clip-rule="evenodd" d="M22.3335 26.9999C22.3335 32.891 27.1091 37.6666 33.0002 37.6666C35.8291 37.6666 38.5422 36.5428 40.5426 34.5424C42.543 32.542 43.6668 29.8289 43.6668 26.9999C43.6668 21.1089 38.8912 16.3333 33.0002 16.3333C27.1091 16.3333 22.3335 21.1089 22.3335 26.9999ZM23.6668 26.9999C23.6668 21.8453 27.8455 17.6666 33.0002 17.6666C38.1548 17.6666 42.3335 21.8453 42.3335 26.9999C42.3335 32.1546 38.1548 36.3333 33.0002 36.3333C27.8455 36.3333 23.6668 32.1546 23.6668 26.9999ZM33.0002 30.0733C32.632 30.0733 32.3335 29.7748 32.3335 29.4066V21.4066C32.3335 21.0384 32.632 20.7399 33.0002 20.7399C33.3684 20.7399 33.6668 21.0384 33.6668 21.4066V29.4066C33.6668 29.7748 33.3684 30.0733 33.0002 30.0733ZM33.8868 32.3733C33.8868 32.8629 33.4899 33.2599 33.0002 33.2599C32.5105 33.2599 32.1135 32.8629 32.1135 32.3733C32.1135 31.8836 32.5105 31.4866 33.0002 31.4866C33.4899 31.4866 33.8868 31.8836 33.8868 32.3733Z" fill="#FF674C"/>
<path d="M376.627 27L380.311 23.3155C380.462 23.1392 380.452 22.8763 380.288 22.7122C380.124 22.548 379.861 22.5379 379.685 22.6889L376 26.3733L372.316 22.6844C372.141 22.5101 371.859 22.5101 371.685 22.6844C371.51 22.8587 371.51 23.1413 371.685 23.3155L375.374 27L371.685 30.6844C371.558 30.793 371.503 30.9636 371.542 31.1259C371.581 31.2883 371.707 31.4151 371.87 31.4541C372.032 31.4932 372.203 31.4379 372.311 31.3111L376 27.6266L379.685 31.3111C379.861 31.4621 380.124 31.4519 380.288 31.2878C380.452 31.1236 380.462 30.8608 380.311 30.6844L376.627 27Z" fill="#F1F6F8"/>
<path d="M409.12 24.9915L404 30.2893L398.88 24.9915C398.59 24.6908 398.599 24.2123 398.9 23.9226C399.201 23.633 399.679 23.642 399.969 23.9426L404 28.116L408.036 23.9426C408.325 23.642 408.804 23.633 409.104 23.9226C409.405 24.2123 409.414 24.6908 409.124 24.9915H409.12Z" fill="#F1F6F8"/>
<path d="M60.428 22.418L54.632 22.418V25.582H59.854V26.618H54.632V31H53.526V21.382L60.428 21.382V22.418ZM64.6494 23.594C66.6234 23.594 67.5894 24.84 67.5894 26.59V31H66.5394V29.866C66.0214 30.72 64.9434 31.168 63.9914 31.168C62.4654 31.168 61.3454 30.286 61.3454 28.858C61.3454 27.416 62.6334 26.45 64.1874 26.45C64.9714 26.45 65.7974 26.618 66.5394 26.856V26.59C66.5394 25.61 66.1474 24.49 64.5794 24.49C63.8514 24.49 63.1234 24.812 62.4654 25.148L62.0454 24.294C63.0814 23.776 63.9494 23.594 64.6494 23.594ZM64.1734 30.244C65.1254 30.244 66.2594 29.754 66.5394 28.732V27.626C65.8814 27.444 65.1394 27.332 64.3554 27.332C63.2774 27.332 62.3674 27.948 62.3674 28.816C62.3674 29.712 63.1514 30.244 64.1734 30.244ZM70.2844 22.446C69.8924 22.446 69.5844 22.124 69.5844 21.746C69.5844 21.382 69.8924 21.06 70.2844 21.06C70.6624 21.06 70.9704 21.382 70.9704 21.746C70.9704 22.124 70.6624 22.446 70.2844 22.446ZM69.7524 31V23.762H70.8024V31L69.7524 31ZM73.1387 31V21.214H74.1887V31H73.1387ZM83.0805 29.936L83.5985 30.706C83.2205 31 82.7445 31.168 82.2545 31.168C81.2185 31.168 80.4905 30.398 80.4905 29.32V24.7H79.3565V23.762H80.4905V21.774H81.5405V23.762H83.3185V24.7H81.5405V29.32C81.5405 29.852 81.9045 30.23 82.3245 30.23C82.6465 30.23 82.9265 30.104 83.0805 29.936ZM88.1147 31.168C86.0567 31.168 84.3767 29.46 84.3767 27.374C84.3767 25.288 86.0567 23.594 88.1147 23.594C90.1587 23.594 91.8387 25.288 91.8387 27.374C91.8387 29.46 90.1587 31.168 88.1147 31.168ZM88.1147 30.23C89.5567 30.23 90.7467 28.942 90.7467 27.374C90.7467 25.806 89.5567 24.532 88.1147 24.532C86.6587 24.532 85.4687 25.806 85.4687 27.374C85.4687 28.942 86.6587 30.23 88.1147 30.23ZM104.919 31L103.953 28.816L98.5908 28.816L97.6248 31H96.4348L100.677 21.382H101.867L106.109 31H104.919ZM99.0388 27.78L103.505 27.78L101.279 22.726L99.0388 27.78ZM112.984 21.214H114.034V31H112.984V29.642C112.438 30.594 111.514 31.168 110.352 31.168C108.448 31.168 107.02 29.6 107.02 27.374C107.02 25.162 108.448 23.594 110.352 23.594C111.514 23.594 112.438 24.168 112.984 25.12V21.214ZM110.548 30.23C111.976 30.23 112.984 29.04 112.984 27.374C112.984 25.708 111.976 24.532 110.548 24.532C109.134 24.532 108.126 25.708 108.126 27.374C108.126 29.04 109.134 30.23 110.548 30.23ZM121.77 21.214H122.82V31H121.77V29.642C121.224 30.594 120.3 31.168 119.138 31.168C117.234 31.168 115.806 29.6 115.806 27.374C115.806 25.162 117.234 23.594 119.138 23.594C120.3 23.594 121.224 24.168 121.77 25.12V21.214ZM119.334 30.23C120.762 30.23 121.77 29.04 121.77 27.374C121.77 25.708 120.762 24.532 119.334 24.532C117.92 24.532 116.912 25.708 116.912 27.374C116.912 29.04 117.92 30.23 119.334 30.23ZM125.139 27.71V26.688H128.765V27.71L125.139 27.71ZM135.576 31.168C132.916 31.168 130.648 28.886 130.648 26.184C130.648 23.482 132.916 21.214 135.576 21.214C138.25 21.214 140.49 23.482 140.49 26.184C140.49 28.886 138.25 31.168 135.576 31.168ZM135.576 30.16C137.648 30.16 139.384 28.34 139.384 26.184C139.384 24.042 137.648 22.222 135.576 22.222C133.504 22.222 131.754 24.042 131.754 26.184C131.754 28.34 133.504 30.16 135.576 30.16ZM145.842 23.594C147.452 23.594 148.558 24.728 148.558 26.394V31H147.508V26.534C147.508 25.344 146.766 24.532 145.702 24.532C144.47 24.532 143.462 25.372 143.462 26.394V31H142.412V23.762H143.462V24.91C143.882 24.14 144.806 23.594 145.842 23.594ZM157.066 23.594C159.04 23.594 160.006 24.84 160.006 26.59V31H158.956V29.866C158.438 30.72 157.36 31.168 156.408 31.168C154.882 31.168 153.762 30.286 153.762 28.858C153.762 27.416 155.05 26.45 156.604 26.45C157.388 26.45 158.214 26.618 158.956 26.856V26.59C158.956 25.61 158.564 24.49 156.996 24.49C156.268 24.49 155.54 24.812 154.882 25.148L154.462 24.294C155.498 23.776 156.366 23.594 157.066 23.594ZM156.59 30.244C157.542 30.244 158.676 29.754 158.956 28.732V27.626C158.298 27.444 157.556 27.332 156.772 27.332C155.694 27.332 154.784 27.948 154.784 28.816C154.784 29.712 155.568 30.244 156.59 30.244ZM164.969 29.936L165.487 30.706C165.109 31 164.633 31.168 164.143 31.168C163.107 31.168 162.379 30.398 162.379 29.32V24.7H161.245V23.762H162.379V21.774H163.429V23.762H165.207V24.7H163.429V29.32C163.429 29.852 163.793 30.23 164.213 30.23C164.535 30.23 164.815 30.104 164.969 29.936ZM169.695 29.936L170.213 30.706C169.835 31 169.359 31.168 168.869 31.168C167.833 31.168 167.105 30.398 167.105 29.32V24.7H165.971V23.762H167.105V21.774H168.155V23.762H169.933V24.7H168.155V29.32C168.155 29.852 168.519 30.23 168.939 30.23C169.261 30.23 169.541 30.104 169.695 29.936ZM174.211 23.594C176.185 23.594 177.151 24.84 177.151 26.59V31H176.101V29.866C175.583 30.72 174.505 31.168 173.553 31.168C172.027 31.168 170.907 30.286 170.907 28.858C170.907 27.416 172.195 26.45 173.749 26.45C174.533 26.45 175.359 26.618 176.101 26.856V26.59C176.101 25.61 175.709 24.49 174.141 24.49C173.413 24.49 172.685 24.812 172.027 25.148L171.607 24.294C172.643 23.776 173.511 23.594 174.211 23.594ZM173.735 30.244C174.687 30.244 175.821 29.754 176.101 28.732V27.626C175.443 27.444 174.701 27.332 173.917 27.332C172.839 27.332 171.929 27.948 171.929 28.816C171.929 29.712 172.713 30.244 173.735 30.244ZM182.422 31.168C180.392 31.168 178.67 29.432 178.67 27.374C178.67 25.316 180.392 23.594 182.422 23.594C183.402 23.594 184.312 24 184.998 24.658L184.27 25.372C183.794 24.854 183.136 24.532 182.422 24.532C180.98 24.532 179.776 25.834 179.776 27.374C179.776 28.928 180.98 30.23 182.422 30.23C183.15 30.23 183.822 29.894 184.312 29.348L185.04 30.062C184.354 30.748 183.43 31.168 182.422 31.168ZM189.904 23.594C191.514 23.594 192.62 24.728 192.62 26.394V31H191.57V26.534C191.57 25.344 190.828 24.532 189.764 24.532C188.532 24.532 187.524 25.372 187.524 26.394V31L186.474 31V21.214H187.524V24.91C187.944 24.14 188.868 23.594 189.904 23.594ZM197.834 30.23C198.688 30.23 199.668 29.852 200.116 29.362L200.76 30.048C200.13 30.734 198.856 31.168 197.848 31.168C195.916 31.168 194.18 29.586 194.18 27.36C194.18 25.204 195.804 23.594 197.75 23.594C199.934 23.594 201.18 25.246 201.18 27.78H195.258C195.412 29.194 196.406 30.23 197.834 30.23ZM197.792 24.532C196.504 24.532 195.468 25.442 195.272 26.842H200.144C200.004 25.54 199.234 24.532 197.792 24.532ZM208.248 21.214H209.298V31L208.248 31V29.642C207.702 30.594 206.778 31.168 205.616 31.168C203.712 31.168 202.284 29.6 202.284 27.374C202.284 25.162 203.712 23.594 205.616 23.594C206.778 23.594 207.702 24.168 208.248 25.12V21.214ZM205.812 30.23C207.24 30.23 208.248 29.04 208.248 27.374C208.248 25.708 207.24 24.532 205.812 24.532C204.398 24.532 203.39 25.708 203.39 27.374C203.39 29.04 204.398 30.23 205.812 30.23ZM218.186 29.936L218.704 30.706C218.326 31 217.85 31.168 217.36 31.168C216.324 31.168 215.596 30.398 215.596 29.32V24.7H214.462V23.762H215.596V21.774H216.646V23.762L218.424 23.762V24.7L216.646 24.7V29.32C216.646 29.852 217.01 30.23 217.43 30.23C217.752 30.23 218.032 30.104 218.186 29.936ZM223.221 31.168C221.163 31.168 219.483 29.46 219.483 27.374C219.483 25.288 221.163 23.594 223.221 23.594C225.265 23.594 226.945 25.288 226.945 27.374C226.945 29.46 225.265 31.168 223.221 31.168ZM223.221 30.23C224.663 30.23 225.853 28.942 225.853 27.374C225.853 25.806 224.663 24.532 223.221 24.532C221.765 24.532 220.575 25.806 220.575 27.374C220.575 28.942 221.765 30.23 223.221 30.23ZM232.717 31V21.382H233.809L237.379 28.088L240.949 21.382H242.041V31H240.949V23.734L237.379 30.44L233.809 23.734V31H232.717ZM245.312 33.52C244.892 33.52 244.5 33.436 244.164 33.282L244.416 32.386C244.668 32.512 244.962 32.568 245.27 32.568C245.732 32.568 246.04 32.414 246.32 31.924L246.74 31.028L243.59 23.762H244.752L247.286 29.782L249.68 23.762H250.814L247.51 31.812C247.006 33.044 246.306 33.506 245.312 33.52ZM252.074 27.71V26.688H255.7V27.71H252.074ZM261.237 31.154C259.655 31.154 258.409 30.58 257.443 29.628L258.129 28.774C258.941 29.586 259.935 30.16 261.279 30.16C262.763 30.16 263.519 29.348 263.519 28.48C263.519 27.458 262.609 27.052 260.929 26.66C258.997 26.212 257.779 25.61 257.779 23.944C257.779 22.404 259.151 21.214 260.999 21.214C262.427 21.214 263.491 21.774 264.373 22.586L263.701 23.44C262.903 22.67 261.951 22.208 260.943 22.208C259.753 22.208 258.885 22.978 258.885 23.86C258.885 24.854 259.837 25.204 261.475 25.596C263.309 26.03 264.625 26.688 264.625 28.382C264.625 29.908 263.477 31.154 261.237 31.154ZM266.797 31V21.382H270.045C273.097 21.382 275.253 23.37 275.253 26.184C275.253 28.998 273.097 31 270.045 31L266.797 31ZM267.889 30.006H270.045C272.453 30.006 274.147 28.424 274.147 26.184C274.147 23.958 272.453 22.376 270.045 22.376H267.889V30.006ZM281.643 31.168C278.983 31.168 276.715 28.886 276.715 26.184C276.715 23.482 278.983 21.214 281.643 21.214C282.973 21.214 284.205 21.774 285.101 22.684L284.359 23.44C283.659 22.698 282.693 22.222 281.643 22.222C279.571 22.222 277.821 24.042 277.821 26.184C277.821 28.34 279.571 30.16 281.643 30.16C282.693 30.16 283.659 29.684 284.359 28.942L285.101 29.698C284.205 30.594 282.973 31.168 281.643 31.168ZM291.236 31.168C288.576 31.168 286.308 28.886 286.308 26.184C286.308 23.482 288.576 21.214 291.236 21.214C292.566 21.214 293.798 21.774 294.694 22.684L293.952 23.44C293.252 22.698 292.286 22.222 291.236 22.222C289.164 22.222 287.414 24.042 287.414 26.184C287.414 28.34 289.164 30.16 291.236 30.16C292.286 30.16 293.252 29.684 293.952 28.942L294.694 29.698C293.798 30.594 292.566 31.168 291.236 31.168Z" fill="white"/>
<path d="M60.4 71L59.644 69.18H55.052L54.296 71H52.35L56.368 61.382H58.314L62.332 71H60.4ZM55.654 67.752H59.042L57.348 63.706L55.654 67.752ZM66.9597 71.168C64.8597 71.168 63.0817 69.432 63.0817 67.374C63.0817 65.316 64.8597 63.594 66.9737 63.594C68.0797 63.594 69.0317 64.056 69.7177 64.77L68.5697 65.778C68.1777 65.344 67.5757 65.05 66.9597 65.05C65.7697 65.05 64.7757 66.114 64.7757 67.374C64.7757 68.648 65.7697 69.712 66.9597 69.712C67.5897 69.712 68.2057 69.418 68.6117 68.956L69.7597 69.95C69.0597 70.692 68.0937 71.168 66.9597 71.168ZM74.4082 69.446L74.8982 70.594C74.4922 70.944 73.9042 71.168 73.3442 71.168C72.1542 71.168 71.3142 70.3 71.3142 69.082V65.176H70.2642V63.762H71.3142V61.774H72.9662V63.762H74.6042V65.176H72.9662V68.872C72.9662 69.362 73.2882 69.712 73.6942 69.712C73.9882 69.712 74.2542 69.6 74.4082 69.446ZM77.0516 62.67C76.5056 62.67 76.0716 62.208 76.0716 61.69C76.0716 61.172 76.5056 60.724 77.0516 60.724C77.5836 60.724 78.0176 61.172 78.0176 61.69C78.0176 62.208 77.5836 62.67 77.0516 62.67ZM76.1976 71V63.762H77.9056V71H76.1976ZM82.1514 71L79.0294 63.762H80.8494L82.9494 69.026L85.0074 63.762H86.8134L83.7474 71H82.1514ZM90.8448 63.594C92.7628 63.594 93.9388 64.812 93.9388 66.646V71H92.2728V70.146C91.7408 70.804 90.8448 71.168 90.0048 71.168C88.4648 71.168 87.3168 70.258 87.3168 68.858C87.3168 67.43 88.6188 66.45 90.2568 66.45C90.9148 66.45 91.6148 66.59 92.2728 66.828V66.646C92.2728 65.806 91.8248 64.994 90.5088 64.994C89.8228 64.994 89.1648 65.232 88.5488 65.54L87.9608 64.35C88.9828 63.846 89.9348 63.594 90.8448 63.594ZM90.3828 69.922C91.2088 69.922 92.0908 69.502 92.2728 68.732V67.906C91.7408 67.738 91.1388 67.64 90.5088 67.64C89.6548 67.64 88.9548 68.116 88.9548 68.802C88.9548 69.488 89.5708 69.922 90.3828 69.922ZM99.2055 69.446L99.6955 70.594C99.2895 70.944 98.7015 71.168 98.1415 71.168C96.9515 71.168 96.1115 70.3 96.1115 69.082V65.176H95.0615V63.762H96.1115V61.774H97.7635V63.762H99.4015V65.176H97.7635V68.872C97.7635 69.362 98.0855 69.712 98.4915 69.712C98.7855 69.712 99.0515 69.6 99.2055 69.446ZM101.849 62.67C101.303 62.67 100.869 62.208 100.869 61.69C100.869 61.172 101.303 60.724 101.849 60.724C102.381 60.724 102.815 61.172 102.815 61.69C102.815 62.208 102.381 62.67 101.849 62.67ZM100.995 71V63.762H102.703V71H100.995ZM108.685 63.594C110.281 63.594 111.387 64.742 111.387 66.394V71H109.721V66.73C109.721 65.736 109.105 65.05 108.209 65.05C107.229 65.05 106.445 65.736 106.445 66.618V71H104.737V63.762H106.445V64.742C106.879 64.056 107.719 63.594 108.685 63.594ZM118.444 63.762H120.166V70.23C120.166 72.092 118.598 73.408 116.386 73.408C115.14 73.408 113.978 73.002 113.278 72.442L113.908 71.196C114.412 71.658 115.266 71.952 116.12 71.952C117.548 71.952 118.444 71.266 118.444 70.174V69.25C117.87 70.02 116.988 70.468 115.966 70.468C114.104 70.468 112.718 69.04 112.718 67.024C112.718 65.008 114.104 63.594 115.966 63.594C117.002 63.594 117.926 64.07 118.444 64.826V63.762ZM116.456 69.012C117.618 69.012 118.444 68.186 118.444 67.024C118.444 65.876 117.618 65.05 116.456 65.05C115.308 65.05 114.482 65.876 114.482 67.024C114.482 68.186 115.308 69.012 116.456 69.012ZM133.238 71L132.482 69.18H127.89L127.134 71H125.188L129.206 61.382H131.152L135.17 71H133.238ZM128.492 67.752H131.88L130.186 63.706L128.492 67.752ZM141.827 61.214H143.535V71H141.827V69.852C141.267 70.678 140.385 71.168 139.321 71.168C137.389 71.168 135.989 69.6 135.989 67.374C135.989 65.162 137.389 63.594 139.321 63.594C140.385 63.594 141.267 64.084 141.827 64.896V61.214ZM139.769 69.712C140.973 69.712 141.813 68.732 141.813 67.374C141.813 66.016 140.973 65.05 139.769 65.05C138.551 65.05 137.683 66.016 137.683 67.374C137.683 68.732 138.551 69.712 139.769 69.712ZM150.915 61.214H152.623V71H150.915V69.852C150.355 70.678 149.473 71.168 148.409 71.168C146.477 71.168 145.077 69.6 145.077 67.374C145.077 65.162 146.477 63.594 148.409 63.594C149.473 63.594 150.355 64.084 150.915 64.896V61.214ZM148.857 69.712C150.061 69.712 150.901 68.732 150.901 67.374C150.901 66.016 150.061 65.05 148.857 65.05C147.639 65.05 146.771 66.016 146.771 67.374C146.771 68.732 147.639 69.712 148.857 69.712ZM154.64 67.906V66.408H158.406V67.906H154.64ZM163.751 71.168C161.609 71.168 159.859 69.46 159.859 67.374C159.859 65.288 161.609 63.594 163.751 63.594C165.879 63.594 167.615 65.288 167.615 67.374C167.615 69.46 165.879 71.168 163.751 71.168ZM163.751 69.712C164.955 69.712 165.949 68.662 165.949 67.374C165.949 66.086 164.955 65.05 163.751 65.05C162.533 65.05 161.539 66.086 161.539 67.374C161.539 68.662 162.533 69.712 163.751 69.712ZM173.045 63.594C174.641 63.594 175.747 64.742 175.747 66.394V71H174.081V66.73C174.081 65.736 173.465 65.05 172.569 65.05C171.589 65.05 170.805 65.736 170.805 66.618V71H169.097V63.762H170.805V64.742C171.239 64.056 172.079 63.594 173.045 63.594Z" fill="white"/>
<path d="M186 70.12C184.91 70.12 184.08 69.68 183.5 69.04L184.13 68.32C184.65 68.87 185.29 69.23 186.02 69.23C186.91 69.23 187.52 68.63 187.52 67.86C187.52 67.07 186.9 66.54 186.01 66.54C185.44 66.54 184.96 66.73 184.55 67.04L183.84 66.72L183.94 63.13H188.16V64.07H184.9L184.84 66.11C185.2 65.87 185.66 65.67 186.26 65.67C187.5 65.67 188.53 66.45 188.53 67.82C188.53 69.21 187.48 70.12 186 70.12ZM199.37 64.71C200.45 64.71 201.23 65.54 201.23 66.71V70H200.27V66.86C200.27 66.1 199.81 65.57 199.17 65.57C198.43 65.57 197.9 66.06 197.9 66.77V70H196.93V66.86C196.93 66.1 196.48 65.57 195.84 65.57C195.09 65.57 194.57 66.06 194.57 66.77V70H193.58V64.83H194.57V65.57C194.83 65.04 195.37 64.71 196.04 64.71C196.86 64.71 197.51 65.19 197.77 65.94C197.93 65.21 198.56 64.71 199.37 64.71ZM203.74 63.97C203.41 63.97 203.14 63.69 203.14 63.37C203.14 63.06 203.41 62.78 203.74 62.78C204.07 62.78 204.33 63.06 204.33 63.37C204.33 63.69 204.07 63.97 203.74 63.97ZM203.24 70V64.83H204.23V70H203.24ZM208.987 64.71C210.127 64.71 210.917 65.52 210.917 66.71V70H209.957V66.88C209.957 66.1 209.467 65.57 208.767 65.57C207.977 65.57 207.337 66.11 207.337 66.79V70H206.347V64.83H207.337V65.59C207.637 65.07 208.277 64.71 208.987 64.71ZM216.401 64.83H217.391V70H216.401V69.26C216.091 69.77 215.461 70.12 214.751 70.12C213.611 70.12 212.821 69.31 212.821 68.12V64.83L213.791 64.83V67.95C213.791 68.73 214.281 69.26 214.981 69.26C215.771 69.26 216.401 68.72 216.401 68.04V64.83ZM221.735 69.07L222.105 69.75C221.825 69.98 221.435 70.12 221.065 70.12C220.265 70.12 219.705 69.54 219.705 68.71V65.67H218.935V64.83H219.705V63.41H220.675V64.83H221.895V65.67H220.675V68.64C220.675 69 220.925 69.26 221.215 69.26C221.435 69.26 221.635 69.18 221.735 69.07ZM225.888 69.3C226.448 69.3 227.098 69.05 227.418 68.71L227.998 69.32C227.548 69.81 226.638 70.12 225.908 70.12C224.478 70.12 223.238 68.99 223.238 67.4C223.238 65.85 224.408 64.71 225.838 64.71C227.418 64.71 228.338 65.89 228.338 67.73H224.208C224.328 68.64 224.968 69.3 225.888 69.3ZM225.858 65.53C225.028 65.53 224.368 66.11 224.218 67H227.378C227.278 66.17 226.758 65.53 225.858 65.53ZM231.698 70.12C230.938 70.12 230.118 69.85 229.498 69.35L229.948 68.67C230.518 69.09 231.138 69.32 231.708 69.32C232.328 69.32 232.718 69.04 232.718 68.62C232.718 68.13 232.178 67.97 231.518 67.79C230.338 67.46 229.738 67.12 229.738 66.28C229.738 65.33 230.528 64.71 231.618 64.71C232.288 64.71 232.978 64.94 233.528 65.31L233.118 66.01C232.608 65.69 232.088 65.51 231.618 65.51C231.098 65.51 230.678 65.74 230.678 66.17C230.678 66.57 231.028 66.69 231.908 66.96C232.758 67.21 233.658 67.49 233.658 68.52C233.658 69.5 232.838 70.12 231.698 70.12ZM238.605 70V63.01H239.595V70H238.605ZM243.962 69.3C244.522 69.3 245.172 69.05 245.492 68.71L246.072 69.32C245.622 69.81 244.712 70.12 243.982 70.12C242.552 70.12 241.312 68.99 241.312 67.4C241.312 65.85 242.482 64.71 243.912 64.71C245.492 64.71 246.412 65.89 246.412 67.73H242.282C242.402 68.64 243.042 69.3 243.962 69.3ZM243.932 65.53C243.102 65.53 242.442 66.11 242.292 67H245.452C245.352 66.17 244.832 65.53 243.932 65.53ZM249.252 64.26V64.83H250.472V65.67H249.252V70H248.282V65.67H247.502V64.83H248.282V64.21C248.282 63.38 248.842 62.8 249.642 62.8C250.012 62.8 250.392 62.94 250.672 63.17L250.312 63.83C250.202 63.72 250.002 63.64 249.782 63.64C249.492 63.64 249.252 63.9 249.252 64.26ZM254.122 69.07L254.492 69.75C254.212 69.98 253.822 70.12 253.452 70.12C252.652 70.12 252.092 69.54 252.092 68.71V65.67H251.322V64.83H252.092V63.41H253.062V64.83H254.282V65.67H253.062V68.64C253.062 69 253.312 69.26 253.602 69.26C253.822 69.26 254.022 69.18 254.122 69.07Z" fill="#ACB8BE"/>
<path fill-rule="evenodd" clip-rule="evenodd" d="M52.1831 83H414.802V95H52.1831V83Z" fill="#2D4048"/>
<path fill-rule="evenodd" clip-rule="evenodd" d="M52.1831 83H193.355V95H52.1831V83Z" fill="#2EC0FF"/>
<defs>
<filter id="filter0_d_10477_4636" x="0" y="0" width="432" height="123" filterUnits="userSpaceOnUse" color-interpolation-filters="sRGB">
<feFlood flood-opacity="0" result="BackgroundImageFix"/>
<feColorMatrix in="SourceAlpha" type="matrix" values="0 0 0 0 0 0 0 0 0 0 0 0 0 0 0 0 0 0 127 0" result="hardAlpha"/>
<feOffset dy="4"/>
<feGaussianBlur stdDeviation="2"/>
<feComposite in2="hardAlpha" operator="out"/>
<feColorMatrix type="matrix" values="0 0 0 0 0.105 0 0 0 0 0.168 0 0 0 0 0.195 0 0 0 0.25 0"/>
<feBlend mode="normal" in2="BackgroundImageFix" result="effect1_dropShadow_10477_4636"/>
<feBlend mode="normal" in="SourceGraphic" in2="effect1_dropShadow_10477_4636" result="shape"/>
</filter>
</defs>
</svg>
