<svg width="432" height="147" viewBox="0 0 432 147" fill="none" xmlns="http://www.w3.org/2000/svg">
<g filter="url(#filter0_d_10450_6207)">
<rect x="4" width="424" height="139" rx="4" fill="#22343C"/>
<rect x="4.5" y="0.5" width="423" height="138" rx="3.5" stroke="#67777E"/>
</g>
<path fill-rule="evenodd" clip-rule="evenodd" d="M46.3335 26.9999C46.3335 32.891 51.1091 37.6666 57.0002 37.6666C59.8291 37.6666 62.5422 36.5428 64.5426 34.5424C66.543 32.542 67.6668 29.8289 67.6668 26.9999C67.6668 21.1089 62.8912 16.3333 57.0002 16.3333C51.1091 16.3333 46.3335 21.1089 46.3335 26.9999ZM47.6668 26.9999C47.6668 21.8453 51.8455 17.6666 57.0002 17.6666C62.1548 17.6666 66.3335 21.8453 66.3335 26.9999C66.3335 32.1546 62.1548 36.3333 57.0002 36.3333C51.8455 36.3333 47.6668 32.1546 47.6668 26.9999ZM57.0002 30.0733C56.632 30.0733 56.3335 29.7748 56.3335 29.4066V21.4066C56.3335 21.0384 56.632 20.7399 57.0002 20.7399C57.3684 20.7399 57.6668 21.0384 57.6668 21.4066V29.4066C57.6668 29.7748 57.3684 30.0733 57.0002 30.0733ZM57.8868 32.3733C57.8868 32.8629 57.4899 33.2599 57.0002 33.2599C56.5105 33.2599 56.1135 32.8629 56.1135 32.3733C56.1135 31.8836 56.5105 31.4866 57.0002 31.4866C57.4899 31.4866 57.8868 31.8836 57.8868 32.3733Z" fill="#FF674C"/>
<path d="M84.834 60L83.868 57.816H78.506L77.54 60H76.35L80.592 50.382H81.782L86.024 60H84.834ZM78.954 56.78H83.42L81.194 51.726L78.954 56.78ZM92.899 50.214H93.949V60H92.899V58.642C92.353 59.594 91.429 60.168 90.267 60.168C88.363 60.168 86.935 58.6 86.935 56.374C86.935 54.162 88.363 52.594 90.267 52.594C91.429 52.594 92.353 53.168 92.899 54.12V50.214ZM90.463 59.23C91.891 59.23 92.899 58.04 92.899 56.374C92.899 54.708 91.891 53.532 90.463 53.532C89.049 53.532 88.041 54.708 88.041 56.374C88.041 58.04 89.049 59.23 90.463 59.23ZM101.686 50.214H102.736V60H101.686V58.642C101.14 59.594 100.216 60.168 99.0537 60.168C97.1497 60.168 95.7217 58.6 95.7217 56.374C95.7217 54.162 97.1497 52.594 99.0537 52.594C100.216 52.594 101.14 53.168 101.686 54.12V50.214ZM99.2497 59.23C100.678 59.23 101.686 58.04 101.686 56.374C101.686 54.708 100.678 53.532 99.2497 53.532C97.8357 53.532 96.8277 54.708 96.8277 56.374C96.8277 58.04 97.8357 59.23 99.2497 59.23ZM111.932 60.168C109.874 60.168 108.194 58.46 108.194 56.374C108.194 54.288 109.874 52.594 111.932 52.594C113.976 52.594 115.656 54.288 115.656 56.374C115.656 58.46 113.976 60.168 111.932 60.168ZM111.932 59.23C113.374 59.23 114.564 57.942 114.564 56.374C114.564 54.806 113.374 53.532 111.932 53.532C110.476 53.532 109.286 54.806 109.286 56.374C109.286 57.942 110.476 59.23 111.932 59.23ZM122.422 51.768V52.762H124.2V53.7H122.422V60H121.372V53.7H120.238V52.762H121.372V51.768C121.372 50.69 122.1 49.92 123.136 49.92C123.626 49.92 124.102 50.088 124.48 50.382L123.962 51.152C123.808 50.984 123.528 50.858 123.206 50.858C122.786 50.858 122.422 51.236 122.422 51.768ZM128.053 52.594C130.027 52.594 130.993 53.84 130.993 55.59V60H129.943V58.866C129.425 59.72 128.347 60.168 127.395 60.168C125.869 60.168 124.749 59.286 124.749 57.858C124.749 56.416 126.037 55.45 127.591 55.45C128.375 55.45 129.201 55.618 129.943 55.856V55.59C129.943 54.61 129.551 53.49 127.983 53.49C127.255 53.49 126.527 53.812 125.869 54.148L125.449 53.294C126.485 52.776 127.353 52.594 128.053 52.594ZM127.577 59.244C128.529 59.244 129.663 58.754 129.943 57.732V56.626C129.285 56.444 128.543 56.332 127.759 56.332C126.681 56.332 125.771 56.948 125.771 57.816C125.771 58.712 126.555 59.244 127.577 59.244ZM133.688 51.446C133.296 51.446 132.988 51.124 132.988 50.746C132.988 50.382 133.296 50.06 133.688 50.06C134.066 50.06 134.374 50.382 134.374 50.746C134.374 51.124 134.066 51.446 133.688 51.446ZM133.156 60V52.762H134.206V60H133.156ZM136.543 60V50.214H137.593V60H136.543ZM142.981 59.23C143.835 59.23 144.815 58.852 145.263 58.362L145.907 59.048C145.277 59.734 144.003 60.168 142.995 60.168C141.063 60.168 139.327 58.586 139.327 56.36C139.327 54.204 140.951 52.594 142.897 52.594C145.081 52.594 146.327 54.246 146.327 56.78H140.405C140.559 58.194 141.553 59.23 142.981 59.23ZM142.939 53.532C141.651 53.532 140.615 54.442 140.419 55.842H145.291C145.151 54.54 144.381 53.532 142.939 53.532ZM153.395 50.214H154.445V60H153.395V58.642C152.849 59.594 151.925 60.168 150.763 60.168C148.859 60.168 147.431 58.6 147.431 56.374C147.431 54.162 148.859 52.594 150.763 52.594C151.925 52.594 152.849 53.168 153.395 54.12V50.214ZM150.959 59.23C152.387 59.23 153.395 58.04 153.395 56.374C153.395 54.708 152.387 53.532 150.959 53.532C149.545 53.532 148.537 54.708 148.537 56.374C148.537 58.04 149.545 59.23 150.959 59.23ZM163.333 58.936L163.851 59.706C163.473 60 162.997 60.168 162.507 60.168C161.471 60.168 160.743 59.398 160.743 58.32V53.7H159.609V52.762H160.743V50.774H161.793V52.762H163.571V53.7H161.793V58.32C161.793 58.852 162.157 59.23 162.577 59.23C162.899 59.23 163.179 59.104 163.333 58.936ZM168.367 60.168C166.309 60.168 164.629 58.46 164.629 56.374C164.629 54.288 166.309 52.594 168.367 52.594C170.411 52.594 172.091 54.288 172.091 56.374C172.091 58.46 170.411 60.168 168.367 60.168ZM168.367 59.23C169.809 59.23 170.999 57.942 170.999 56.374C170.999 54.806 169.809 53.532 168.367 53.532C166.911 53.532 165.721 54.806 165.721 56.374C165.721 57.942 166.911 59.23 168.367 59.23ZM180.146 52.594C182.12 52.594 183.086 53.84 183.086 55.59V60H182.036V58.866C181.518 59.72 180.44 60.168 179.488 60.168C177.962 60.168 176.842 59.286 176.842 57.858C176.842 56.416 178.13 55.45 179.684 55.45C180.468 55.45 181.294 55.618 182.036 55.856V55.59C182.036 54.61 181.644 53.49 180.076 53.49C179.348 53.49 178.62 53.812 177.962 54.148L177.542 53.294C178.578 52.776 179.446 52.594 180.146 52.594ZM179.67 59.244C180.622 59.244 181.756 58.754 182.036 57.732V56.626C181.378 56.444 180.636 56.332 179.852 56.332C178.774 56.332 177.864 56.948 177.864 57.816C177.864 58.712 178.648 59.244 179.67 59.244ZM188.048 58.936L188.566 59.706C188.188 60 187.712 60.168 187.222 60.168C186.186 60.168 185.458 59.398 185.458 58.32V53.7H184.324V52.762H185.458V50.774H186.508V52.762H188.286V53.7H186.508V58.32C186.508 58.852 186.872 59.23 187.292 59.23C187.614 59.23 187.894 59.104 188.048 58.936ZM192.775 58.936L193.293 59.706C192.915 60 192.439 60.168 191.949 60.168C190.913 60.168 190.185 59.398 190.185 58.32V53.7H189.051V52.762H190.185V50.774H191.235V52.762H193.013V53.7H191.235V58.32C191.235 58.852 191.599 59.23 192.019 59.23C192.341 59.23 192.621 59.104 192.775 58.936ZM197.291 52.594C199.265 52.594 200.231 53.84 200.231 55.59V60H199.181V58.866C198.663 59.72 197.585 60.168 196.633 60.168C195.107 60.168 193.987 59.286 193.987 57.858C193.987 56.416 195.275 55.45 196.829 55.45C197.613 55.45 198.439 55.618 199.181 55.856V55.59C199.181 54.61 198.789 53.49 197.221 53.49C196.493 53.49 195.765 53.812 195.107 54.148L194.687 53.294C195.723 52.776 196.591 52.594 197.291 52.594ZM196.815 59.244C197.767 59.244 198.901 58.754 199.181 57.732V56.626C198.523 56.444 197.781 56.332 196.997 56.332C195.919 56.332 195.009 56.948 195.009 57.816C195.009 58.712 195.793 59.244 196.815 59.244ZM205.502 60.168C203.472 60.168 201.75 58.432 201.75 56.374C201.75 54.316 203.472 52.594 205.502 52.594C206.482 52.594 207.392 53 208.078 53.658L207.35 54.372C206.874 53.854 206.216 53.532 205.502 53.532C204.06 53.532 202.856 54.834 202.856 56.374C202.856 57.928 204.06 59.23 205.502 59.23C206.23 59.23 206.902 58.894 207.392 58.348L208.12 59.062C207.434 59.748 206.51 60.168 205.502 60.168ZM212.984 52.594C214.594 52.594 215.7 53.728 215.7 55.394V60H214.65V55.534C214.65 54.344 213.908 53.532 212.844 53.532C211.612 53.532 210.604 54.372 210.604 55.394V60H209.554V50.214H210.604V53.91C211.024 53.14 211.948 52.594 212.984 52.594ZM224.417 58.936L224.935 59.706C224.557 60 224.081 60.168 223.591 60.168C222.555 60.168 221.827 59.398 221.827 58.32V53.7H220.693V52.762H221.827V50.774H222.877V52.762H224.655V53.7H222.877V58.32C222.877 58.852 223.241 59.23 223.661 59.23C223.983 59.23 224.263 59.104 224.417 58.936ZM229.451 60.168C227.393 60.168 225.713 58.46 225.713 56.374C225.713 54.288 227.393 52.594 229.451 52.594C231.495 52.594 233.175 54.288 233.175 56.374C233.175 58.46 231.495 60.168 229.451 60.168ZM229.451 59.23C230.893 59.23 232.083 57.942 232.083 56.374C232.083 54.806 230.893 53.532 229.451 53.532C227.995 53.532 226.805 54.806 226.805 56.374C226.805 57.942 227.995 59.23 229.451 59.23ZM238.947 60V50.382H240.039L243.609 57.088L247.179 50.382H248.271V60H247.179V52.734L243.609 59.44L240.039 52.734V60H238.947ZM251.543 62.52C251.123 62.52 250.731 62.436 250.395 62.282L250.647 61.386C250.899 61.512 251.193 61.568 251.501 61.568C251.963 61.568 252.271 61.414 252.551 60.924L252.971 60.028L249.821 52.762H250.983L253.517 58.782L255.911 52.762H257.045L253.741 60.812C253.237 62.044 252.537 62.506 251.543 62.52ZM258.304 56.71V55.688H261.93V56.71H258.304ZM267.468 60.154C265.886 60.154 264.64 59.58 263.674 58.628L264.36 57.774C265.172 58.586 266.166 59.16 267.51 59.16C268.994 59.16 269.75 58.348 269.75 57.48C269.75 56.458 268.84 56.052 267.16 55.66C265.228 55.212 264.01 54.61 264.01 52.944C264.01 51.404 265.382 50.214 267.23 50.214C268.658 50.214 269.722 50.774 270.604 51.586L269.932 52.44C269.134 51.67 268.182 51.208 267.174 51.208C265.984 51.208 265.116 51.978 265.116 52.86C265.116 53.854 266.068 54.204 267.706 54.596C269.54 55.03 270.856 55.688 270.856 57.382C270.856 58.908 269.708 60.154 267.468 60.154ZM273.028 60V50.382H276.276C279.328 50.382 281.484 52.37 281.484 55.184C281.484 57.998 279.328 60 276.276 60H273.028ZM274.12 59.006H276.276C278.684 59.006 280.378 57.424 280.378 55.184C280.378 52.958 278.684 51.376 276.276 51.376H274.12V59.006ZM287.874 60.168C285.214 60.168 282.946 57.886 282.946 55.184C282.946 52.482 285.214 50.214 287.874 50.214C289.204 50.214 290.436 50.774 291.332 51.684L290.59 52.44C289.89 51.698 288.924 51.222 287.874 51.222C285.802 51.222 284.052 53.042 284.052 55.184C284.052 57.34 285.802 59.16 287.874 59.16C288.924 59.16 289.89 58.684 290.59 57.942L291.332 58.698C290.436 59.594 289.204 60.168 287.874 60.168ZM297.467 60.168C294.807 60.168 292.539 57.886 292.539 55.184C292.539 52.482 294.807 50.214 297.467 50.214C298.797 50.214 300.029 50.774 300.925 51.684L300.183 52.44C299.483 51.698 298.517 51.222 297.467 51.222C295.395 51.222 293.645 53.042 293.645 55.184C293.645 57.34 295.395 59.16 297.467 59.16C298.517 59.16 299.483 58.684 300.183 57.942L300.925 58.698C300.029 59.594 298.797 60.168 297.467 60.168ZM310.004 52.594C311.908 52.594 313.336 54.162 313.336 56.374C313.336 58.6 311.908 60.168 310.004 60.168C308.842 60.168 307.918 59.594 307.372 58.642V60H306.322V50.214H307.372V54.12C307.918 53.168 308.842 52.594 310.004 52.594ZM309.808 59.23C311.222 59.23 312.23 58.04 312.23 56.374C312.23 54.708 311.222 53.532 309.808 53.532C308.38 53.532 307.372 54.708 307.372 56.374C307.372 58.04 308.38 59.23 309.808 59.23ZM318.161 59.23C319.015 59.23 319.995 58.852 320.443 58.362L321.087 59.048C320.457 59.734 319.183 60.168 318.175 60.168C316.243 60.168 314.507 58.586 314.507 56.36C314.507 54.204 316.131 52.594 318.077 52.594C320.261 52.594 321.507 54.246 321.507 56.78H315.585C315.739 58.194 316.733 59.23 318.161 59.23ZM318.119 53.532C316.831 53.532 315.795 54.442 315.599 55.842H320.471C320.331 54.54 319.561 53.532 318.119 53.532ZM326.279 60.168C324.249 60.168 322.527 58.432 322.527 56.374C322.527 54.316 324.249 52.594 326.279 52.594C327.259 52.594 328.169 53 328.855 53.658L328.127 54.372C327.651 53.854 326.993 53.532 326.279 53.532C324.837 53.532 323.633 54.834 323.633 56.374C323.633 57.928 324.837 59.23 326.279 59.23C327.007 59.23 327.679 58.894 328.169 58.348L328.897 59.062C328.211 59.748 327.287 60.168 326.279 60.168ZM332.921 52.594C334.895 52.594 335.861 53.84 335.861 55.59V60H334.811V58.866C334.293 59.72 333.215 60.168 332.263 60.168C330.737 60.168 329.617 59.286 329.617 57.858C329.617 56.416 330.905 55.45 332.459 55.45C333.243 55.45 334.069 55.618 334.811 55.856V55.59C334.811 54.61 334.419 53.49 332.851 53.49C332.123 53.49 331.395 53.812 330.737 54.148L330.317 53.294C331.353 52.776 332.221 52.594 332.921 52.594ZM332.445 59.244C333.397 59.244 334.531 58.754 334.811 57.732V56.626C334.153 56.444 333.411 56.332 332.627 56.332C331.549 56.332 330.639 56.948 330.639 57.816C330.639 58.712 331.423 59.244 332.445 59.244ZM342.951 52.762H344.001V60H342.951V58.852C342.531 59.622 341.607 60.168 340.571 60.168C338.961 60.168 337.855 59.034 337.855 57.368V52.762H338.905V57.228C338.905 58.418 339.647 59.23 340.711 59.23C341.943 59.23 342.951 58.39 342.951 57.368V52.762ZM348.572 60.168C347.564 60.168 346.444 59.79 345.576 59.09L346.122 58.32C346.948 58.922 347.774 59.23 348.572 59.23C349.524 59.23 350.168 58.782 350.168 58.096C350.168 57.312 349.328 57.06 348.348 56.78C346.598 56.276 345.926 55.758 345.926 54.722C345.926 53.406 347.018 52.594 348.46 52.594C349.356 52.594 350.28 52.902 351.05 53.406L350.546 54.218C349.818 53.756 349.104 53.532 348.46 53.532C347.648 53.532 346.976 53.896 346.976 54.596C346.976 55.226 347.508 55.422 348.852 55.856C350.014 56.22 351.218 56.612 351.218 57.984C351.218 59.314 350.07 60.168 348.572 60.168ZM355.969 59.23C356.823 59.23 357.803 58.852 358.251 58.362L358.895 59.048C358.265 59.734 356.991 60.168 355.983 60.168C354.051 60.168 352.315 58.586 352.315 56.36C352.315 54.204 353.939 52.594 355.885 52.594C358.069 52.594 359.315 54.246 359.315 56.78H353.393C353.547 58.194 354.541 59.23 355.969 59.23ZM355.927 53.532C354.639 53.532 353.603 54.442 353.407 55.842H358.279C358.139 54.54 357.369 53.532 355.927 53.532ZM367.843 60.168C365.785 60.168 364.105 58.46 364.105 56.374C364.105 54.288 365.785 52.594 367.843 52.594C369.887 52.594 371.567 54.288 371.567 56.374C371.567 58.46 369.887 60.168 367.843 60.168ZM367.843 59.23C369.285 59.23 370.475 57.942 370.475 56.374C370.475 54.806 369.285 53.532 367.843 53.532C366.387 53.532 365.197 54.806 365.197 56.374C365.197 57.942 366.387 59.23 367.843 59.23ZM374.577 51.768V52.762H376.355V53.7H374.577V60H373.527V53.7H372.393V52.762H373.527V51.768C373.527 50.69 374.255 49.92 375.291 49.92C375.781 49.92 376.257 50.088 376.635 50.382L376.117 51.152C375.963 50.984 375.683 50.858 375.361 50.858C374.941 50.858 374.577 51.236 374.577 51.768ZM82.986 80H81.754L79.584 77.116L77.4 80H76.168L78.968 76.304L76.28 72.762H77.512L79.584 75.492L81.642 72.762H82.874L80.2 76.304L82.986 80ZM90.0364 80H88.8044L86.6344 77.116L84.4504 80H83.2184L86.0184 76.304L83.3304 72.762H84.5624L86.6344 75.492L88.6924 72.762H89.9244L87.2504 76.304L90.0364 80ZM97.0868 80H95.8548L93.6848 77.116L91.5008 80H90.2688L93.0688 76.304L90.3808 72.762H91.6128L93.6848 75.492L95.7428 72.762H96.9748L94.3008 76.304L97.0868 80ZM104.137 80H102.905L100.735 77.116L98.5512 80H97.3192L100.119 76.304L97.4312 72.762H98.6632L100.735 75.492L102.793 72.762H104.025L101.351 76.304L104.137 80ZM111.188 80H109.956L107.786 77.116L105.602 80H104.37L107.17 76.304L104.482 72.762H105.714L107.786 75.492L109.844 72.762H111.076L108.402 76.304L111.188 80ZM118.238 80H117.006L114.836 77.116L112.652 80H111.42L114.22 76.304L111.532 72.762L112.764 72.762L114.836 75.492L116.894 72.762H118.126L115.452 76.304L118.238 80ZM120.584 80.168C120.15 80.168 119.814 79.818 119.814 79.398C119.814 79.006 120.15 78.656 120.584 78.656C120.99 78.656 121.326 79.006 121.326 79.398C121.326 79.818 120.99 80.168 120.584 80.168Z" fill="#E3EAED"/>
<path d="M211.212 109.756H212.868L209.424 118H207.756L204.312 109.756H205.968L208.596 116.008L211.212 109.756ZM215.316 118V109.756H216.804V118H215.316ZM226.293 111.124H221.589V113.116H225.837V114.484H221.589V116.632H226.293V118H220.089V109.756H226.293V111.124ZM230.929 118L228.313 109.756H229.957L231.721 115.66L233.677 109.756H235.297L237.241 115.66L239.017 109.756H240.649L238.045 118H236.557L234.493 111.88L232.417 118H230.929ZM247.429 118V109.756H250.321C253.045 109.756 254.965 111.46 254.965 113.872C254.965 116.284 253.045 118 250.321 118H247.429ZM248.917 116.644H250.477C252.217 116.644 253.441 115.492 253.441 113.872C253.441 112.252 252.217 111.112 250.477 111.112H248.917V116.644ZM263.914 111.124H259.21V113.116H263.458V114.484H259.21V116.632H263.914V118H257.71V109.756H263.914V111.124ZM268.574 118V111.124H265.934V109.756H272.702V111.124H270.074V118H268.574ZM281.263 118L280.615 116.44H276.679L276.031 118H274.363L277.807 109.756H279.475L282.919 118H281.263ZM277.195 115.216H280.099L278.647 111.748L277.195 115.216ZM285.355 118V109.756H286.843V118H285.355ZM291.616 116.632H295.852V118H290.128V109.756H291.616V116.632Z" fill="#2EC0FF"/>
<path d="M324.988 118V111.124H322.348V109.756H329.116V111.124H326.488V118H324.988ZM338.289 112.492C338.289 113.824 337.377 114.832 336.057 115.132L338.073 118H336.369L334.425 115.228H333.105V118H331.617V109.756H335.205C336.957 109.756 338.289 110.884 338.289 112.492ZM333.105 111.136V113.848H335.025C336.045 113.848 336.753 113.332 336.753 112.492C336.753 111.652 336.045 111.136 335.025 111.136H333.105ZM343.395 118V114.904L340.131 109.756H341.895L344.163 113.488L346.467 109.756H348.171L344.919 114.904V118H343.395ZM360.903 118L360.255 116.44H356.319L355.671 118H354.003L357.447 109.756H359.115L362.559 118H360.903ZM356.835 115.216H359.739L358.287 111.748L356.835 115.216ZM368.559 114.688V113.464H372.087V116.8C371.283 117.628 370.011 118.144 368.799 118.144C366.447 118.144 364.455 116.188 364.455 113.872C364.455 111.556 366.447 109.612 368.799 109.612C370.011 109.612 371.283 110.116 372.087 110.944L371.019 111.94C370.503 111.34 369.603 110.98 368.799 110.98C367.275 110.98 365.979 112.3 365.979 113.872C365.979 115.456 367.275 116.776 368.799 116.776C369.423 116.776 370.107 116.56 370.623 116.188V114.688H368.559ZM381.079 118L380.431 116.44H376.495L375.847 118H374.179L377.623 109.756H379.291L382.735 118H381.079ZM377.011 115.216H379.915L378.463 111.748L377.011 115.216ZM385.171 118V109.756H386.659V118H385.171ZM389.945 118V109.756H391.433L395.789 115.552V109.756H397.277V118H395.789L391.433 112.204V118H389.945Z" fill="#2EC0FF"/>
<path d="M84.834 31L83.868 28.816H78.506L77.54 31H76.35L80.592 21.382H81.782L86.024 31H84.834ZM78.954 27.78H83.42L81.194 22.726L78.954 27.78ZM92.899 21.214H93.949V31H92.899V29.642C92.353 30.594 91.429 31.168 90.267 31.168C88.363 31.168 86.935 29.6 86.935 27.374C86.935 25.162 88.363 23.594 90.267 23.594C91.429 23.594 92.353 24.168 92.899 25.12V21.214ZM90.463 30.23C91.891 30.23 92.899 29.04 92.899 27.374C92.899 25.708 91.891 24.532 90.463 24.532C89.049 24.532 88.041 25.708 88.041 27.374C88.041 29.04 89.049 30.23 90.463 30.23ZM101.686 21.214H102.736V31H101.686V29.642C101.14 30.594 100.216 31.168 99.0537 31.168C97.1497 31.168 95.7217 29.6 95.7217 27.374C95.7217 25.162 97.1497 23.594 99.0537 23.594C100.216 23.594 101.14 24.168 101.686 25.12V21.214ZM99.2497 30.23C100.678 30.23 101.686 29.04 101.686 27.374C101.686 25.708 100.678 24.532 99.2497 24.532C97.8357 24.532 96.8277 25.708 96.8277 27.374C96.8277 29.04 97.8357 30.23 99.2497 30.23ZM105.054 27.71V26.688H108.68V27.71H105.054ZM115.492 31.168C112.832 31.168 110.564 28.886 110.564 26.184C110.564 23.482 112.832 21.214 115.492 21.214C118.166 21.214 120.406 23.482 120.406 26.184C120.406 28.886 118.166 31.168 115.492 31.168ZM115.492 30.16C117.564 30.16 119.3 28.34 119.3 26.184C119.3 24.042 117.564 22.222 115.492 22.222C113.42 22.222 111.67 24.042 111.67 26.184C111.67 28.34 113.42 30.16 115.492 30.16ZM125.757 23.594C127.367 23.594 128.473 24.728 128.473 26.394V31H127.423V26.534C127.423 25.344 126.681 24.532 125.617 24.532C124.385 24.532 123.377 25.372 123.377 26.394V31H122.327V23.762H123.377V24.91C123.797 24.14 124.721 23.594 125.757 23.594ZM135.693 22.768V23.762H137.471V24.7H135.693V31H134.643V24.7H133.509V23.762H134.643V22.768C134.643 21.69 135.371 20.92 136.407 20.92C136.897 20.92 137.373 21.088 137.751 21.382L137.233 22.152C137.079 21.984 136.799 21.858 136.477 21.858C136.057 21.858 135.693 22.236 135.693 22.768ZM141.324 23.594C143.298 23.594 144.264 24.84 144.264 26.59V31H143.214V29.866C142.696 30.72 141.618 31.168 140.666 31.168C139.14 31.168 138.02 30.286 138.02 28.858C138.02 27.416 139.308 26.45 140.862 26.45C141.646 26.45 142.472 26.618 143.214 26.856V26.59C143.214 25.61 142.822 24.49 141.254 24.49C140.526 24.49 139.798 24.812 139.14 25.148L138.72 24.294C139.756 23.776 140.624 23.594 141.324 23.594ZM140.848 30.244C141.8 30.244 142.934 29.754 143.214 28.732V27.626C142.556 27.444 141.814 27.332 141.03 27.332C139.952 27.332 139.042 27.948 139.042 28.816C139.042 29.712 139.826 30.244 140.848 30.244ZM146.959 22.446C146.567 22.446 146.259 22.124 146.259 21.746C146.259 21.382 146.567 21.06 146.959 21.06C147.337 21.06 147.645 21.382 147.645 21.746C147.645 22.124 147.337 22.446 146.959 22.446ZM146.427 31V23.762H147.477V31H146.427ZM149.814 31V21.214H150.864V31H149.814ZM159.756 29.936L160.274 30.706C159.896 31 159.42 31.168 158.93 31.168C157.894 31.168 157.166 30.398 157.166 29.32V24.7H156.032V23.762H157.166V21.774H158.216V23.762H159.994V24.7H158.216V29.32C158.216 29.852 158.58 30.23 159 30.23C159.322 30.23 159.602 30.104 159.756 29.936ZM164.79 31.168C162.732 31.168 161.052 29.46 161.052 27.374C161.052 25.288 162.732 23.594 164.79 23.594C166.834 23.594 168.514 25.288 168.514 27.374C168.514 29.46 166.834 31.168 164.79 31.168ZM164.79 30.23C166.232 30.23 167.422 28.942 167.422 27.374C167.422 25.806 166.232 24.532 164.79 24.532C163.334 24.532 162.144 25.806 162.144 27.374C162.144 28.942 163.334 30.23 164.79 30.23ZM176.568 23.594C178.542 23.594 179.508 24.84 179.508 26.59V31H178.458V29.866C177.94 30.72 176.862 31.168 175.91 31.168C174.384 31.168 173.264 30.286 173.264 28.858C173.264 27.416 174.552 26.45 176.106 26.45C176.89 26.45 177.716 26.618 178.458 26.856V26.59C178.458 25.61 178.066 24.49 176.498 24.49C175.77 24.49 175.042 24.812 174.384 25.148L173.964 24.294C175 23.776 175.868 23.594 176.568 23.594ZM176.092 30.244C177.044 30.244 178.178 29.754 178.458 28.732V27.626C177.8 27.444 177.058 27.332 176.274 27.332C175.196 27.332 174.286 27.948 174.286 28.816C174.286 29.712 175.07 30.244 176.092 30.244ZM184.471 29.936L184.989 30.706C184.611 31 184.135 31.168 183.645 31.168C182.609 31.168 181.881 30.398 181.881 29.32V24.7H180.747V23.762H181.881V21.774H182.931V23.762L184.709 23.762V24.7L182.931 24.7V29.32C182.931 29.852 183.295 30.23 183.715 30.23C184.037 30.23 184.317 30.104 184.471 29.936ZM189.197 29.936L189.715 30.706C189.337 31 188.861 31.168 188.371 31.168C187.335 31.168 186.607 30.398 186.607 29.32V24.7H185.473V23.762H186.607V21.774H187.657V23.762H189.435V24.7H187.657V29.32C187.657 29.852 188.021 30.23 188.441 30.23C188.763 30.23 189.043 30.104 189.197 29.936ZM193.713 23.594C195.687 23.594 196.653 24.84 196.653 26.59V31H195.603V29.866C195.085 30.72 194.007 31.168 193.055 31.168C191.529 31.168 190.409 30.286 190.409 28.858C190.409 27.416 191.697 26.45 193.251 26.45C194.035 26.45 194.861 26.618 195.603 26.856V26.59C195.603 25.61 195.211 24.49 193.643 24.49C192.915 24.49 192.187 24.812 191.529 25.148L191.109 24.294C192.145 23.776 193.013 23.594 193.713 23.594ZM193.237 30.244C194.189 30.244 195.323 29.754 195.603 28.732V27.626C194.945 27.444 194.203 27.332 193.419 27.332C192.341 27.332 191.431 27.948 191.431 28.816C191.431 29.712 192.215 30.244 193.237 30.244ZM201.924 31.168C199.894 31.168 198.172 29.432 198.172 27.374C198.172 25.316 199.894 23.594 201.924 23.594C202.904 23.594 203.814 24 204.5 24.658L203.772 25.372C203.296 24.854 202.638 24.532 201.924 24.532C200.482 24.532 199.278 25.834 199.278 27.374C199.278 28.928 200.482 30.23 201.924 30.23C202.652 30.23 203.324 29.894 203.814 29.348L204.542 30.062C203.856 30.748 202.932 31.168 201.924 31.168ZM209.406 23.594C211.016 23.594 212.122 24.728 212.122 26.394V31H211.072V26.534C211.072 25.344 210.33 24.532 209.266 24.532C208.034 24.532 207.026 25.372 207.026 26.394V31H205.976V21.214H207.026V24.91C207.446 24.14 208.37 23.594 209.406 23.594ZM220.839 29.936L221.357 30.706C220.979 31 220.503 31.168 220.013 31.168C218.977 31.168 218.249 30.398 218.249 29.32V24.7H217.115V23.762H218.249V21.774H219.299V23.762H221.077V24.7H219.299V29.32C219.299 29.852 219.663 30.23 220.083 30.23C220.405 30.23 220.685 30.104 220.839 29.936ZM225.874 31.168C223.816 31.168 222.136 29.46 222.136 27.374C222.136 25.288 223.816 23.594 225.874 23.594C227.918 23.594 229.598 25.288 229.598 27.374C229.598 29.46 227.918 31.168 225.874 31.168ZM225.874 30.23C227.316 30.23 228.506 28.942 228.506 27.374C228.506 25.806 227.316 24.532 225.874 24.532C224.418 24.532 223.228 25.806 223.228 27.374C223.228 28.942 224.418 30.23 225.874 30.23ZM235.37 31V21.382H236.462L240.032 28.088L243.602 21.382H244.694V31H243.602V23.734L240.032 30.44L236.462 23.734V31H235.37ZM247.965 33.52C247.545 33.52 247.153 33.436 246.817 33.282L247.069 32.386C247.321 32.512 247.615 32.568 247.923 32.568C248.385 32.568 248.693 32.414 248.973 31.924L249.393 31.028L246.243 23.762H247.405L249.939 29.782L252.333 23.762H253.467L250.163 31.812C249.659 33.044 248.959 33.506 247.965 33.52ZM254.727 27.71V26.688H258.353V27.71H254.727ZM263.89 31.154C262.308 31.154 261.062 30.58 260.096 29.628L260.782 28.774C261.594 29.586 262.588 30.16 263.932 30.16C265.416 30.16 266.172 29.348 266.172 28.48C266.172 27.458 265.262 27.052 263.582 26.66C261.65 26.212 260.432 25.61 260.432 23.944C260.432 22.404 261.804 21.214 263.652 21.214C265.08 21.214 266.144 21.774 267.026 22.586L266.354 23.44C265.556 22.67 264.604 22.208 263.596 22.208C262.406 22.208 261.538 22.978 261.538 23.86C261.538 24.854 262.49 25.204 264.128 25.596C265.962 26.03 267.278 26.688 267.278 28.382C267.278 29.908 266.13 31.154 263.89 31.154ZM269.45 31V21.382L272.698 21.382C275.75 21.382 277.906 23.37 277.906 26.184C277.906 28.998 275.75 31 272.698 31H269.45ZM270.542 30.006H272.698C275.106 30.006 276.8 28.424 276.8 26.184C276.8 23.958 275.106 22.376 272.698 22.376L270.542 22.376V30.006ZM284.296 31.168C281.636 31.168 279.368 28.886 279.368 26.184C279.368 23.482 281.636 21.214 284.296 21.214C285.626 21.214 286.858 21.774 287.754 22.684L287.012 23.44C286.312 22.698 285.346 22.222 284.296 22.222C282.224 22.222 280.474 24.042 280.474 26.184C280.474 28.34 282.224 30.16 284.296 30.16C285.346 30.16 286.312 29.684 287.012 28.942L287.754 29.698C286.858 30.594 285.626 31.168 284.296 31.168ZM293.889 31.168C291.229 31.168 288.961 28.886 288.961 26.184C288.961 23.482 291.229 21.214 293.889 21.214C295.219 21.214 296.451 21.774 297.347 22.684L296.605 23.44C295.905 22.698 294.939 22.222 293.889 22.222C291.817 22.222 290.067 24.042 290.067 26.184C290.067 28.34 291.817 30.16 293.889 30.16C294.939 30.16 295.905 29.684 296.605 28.942L297.347 29.698C296.451 30.594 295.219 31.168 293.889 31.168Z" fill="white"/>
<path d="M27.9293 22.6715L23.6582 26.9648L27.9293 31.2582C28.0347 31.3965 28.211 31.4607 28.3806 31.4225C28.5503 31.3842 28.682 31.2506 28.7178 31.0804C28.7536 30.9103 28.6869 30.7348 28.5471 30.6315L25.3515 27.4093L33.8538 27.4093C34.0992 27.4093 34.2982 27.2103 34.2982 26.9648C34.2982 26.7194 34.0992 26.5204 33.8538 26.5204L25.3515 26.5204L28.5471 23.2981C28.7201 23.1239 28.7191 22.8423 28.5449 22.6693C28.3706 22.4962 28.089 22.4972 27.916 22.6715L27.9293 22.6715Z" fill="#F1F6F8"/>
<defs>
<filter id="filter0_d_10450_6207" x="0" y="0" width="432" height="147" filterUnits="userSpaceOnUse" color-interpolation-filters="sRGB">
<feFlood flood-opacity="0" result="BackgroundImageFix"/>
<feColorMatrix in="SourceAlpha" type="matrix" values="0 0 0 0 0 0 0 0 0 0 0 0 0 0 0 0 0 0 127 0" result="hardAlpha"/>
<feOffset dy="4"/>
<feGaussianBlur stdDeviation="2"/>
<feComposite in2="hardAlpha" operator="out"/>
<feColorMatrix type="matrix" values="0 0 0 0 0.105 0 0 0 0 0.168 0 0 0 0 0.195 0 0 0 0.25 0"/>
<feBlend mode="normal" in2="BackgroundImageFix" result="effect1_dropShadow_10450_6207"/>
<feBlend mode="normal" in="SourceGraphic" in2="effect1_dropShadow_10450_6207" result="shape"/>
</filter>
</defs>
</svg>
