<svg width="432" height="123" viewBox="0 0 432 123" fill="none" xmlns="http://www.w3.org/2000/svg">
<g filter="url(#filter0_d_10439_5407)">
<rect x="4" width="424" height="115" rx="4" fill="#22343C"/>
<rect x="4.5" y="0.5" width="423" height="114" rx="3.5" stroke="#67777E"/>
</g>
<path d="M263.14 94V85.756H266.032C268.756 85.756 270.676 87.46 270.676 89.872C270.676 92.284 268.756 94 266.032 94H263.14ZM264.628 92.644H266.188C267.928 92.644 269.152 91.492 269.152 89.872C269.152 88.252 267.928 87.112 266.188 87.112H264.628V92.644ZM273.421 94V85.756H274.909V94H273.421ZM281.051 94.132C279.647 94.132 278.435 93.652 277.523 92.8L278.399 91.732C279.155 92.416 280.031 92.848 281.111 92.848C282.119 92.848 282.647 92.344 282.647 91.756C282.647 91.072 282.059 90.844 280.739 90.532C279.035 90.136 277.859 89.644 277.859 88.096C277.859 86.656 279.083 85.612 280.811 85.612C282.119 85.612 283.115 86.056 283.931 86.764L283.115 87.856C282.407 87.244 281.579 86.896 280.763 86.896C279.923 86.896 279.371 87.388 279.371 87.964C279.371 88.636 279.971 88.876 281.279 89.176C282.995 89.56 284.147 90.112 284.147 91.612C284.147 93.088 283.031 94.132 281.051 94.132ZM286.847 94V85.756H288.335L291.059 90.784L293.771 85.756H295.271V94H293.771V88.492L291.059 93.52L288.335 88.492V94H286.847ZM298.535 94V85.756H300.023V94H298.535ZM306.164 94.132C304.76 94.132 303.548 93.652 302.636 92.8L303.512 91.732C304.268 92.416 305.144 92.848 306.224 92.848C307.232 92.848 307.76 92.344 307.76 91.756C307.76 91.072 307.172 90.844 305.852 90.532C304.148 90.136 302.972 89.644 302.972 88.096C302.972 86.656 304.196 85.612 305.924 85.612C307.232 85.612 308.228 86.056 309.044 86.764L308.228 87.856C307.52 87.244 306.692 86.896 305.876 86.896C305.036 86.896 304.484 87.388 304.484 87.964C304.484 88.636 305.084 88.876 306.392 89.176C308.108 89.56 309.26 90.112 309.26 91.612C309.26 93.088 308.144 94.132 306.164 94.132ZM314.816 94.132C313.412 94.132 312.2 93.652 311.288 92.8L312.164 91.732C312.92 92.416 313.796 92.848 314.876 92.848C315.884 92.848 316.412 92.344 316.412 91.756C316.412 91.072 315.824 90.844 314.504 90.532C312.8 90.136 311.624 89.644 311.624 88.096C311.624 86.656 312.848 85.612 314.576 85.612C315.884 85.612 316.88 86.056 317.696 86.764L316.88 87.856C316.172 87.244 315.344 86.896 314.528 86.896C313.688 86.896 313.136 87.388 313.136 87.964C313.136 88.636 313.736 88.876 315.044 89.176C316.76 89.56 317.912 90.112 317.912 91.612C317.912 93.088 316.796 94.132 314.816 94.132Z" fill="#2EC0FF"/>
<path d="M348.92 94.144C346.58 94.144 344.6 92.188 344.6 89.872C344.6 87.556 346.58 85.612 348.92 85.612C350.132 85.612 351.248 86.128 352.04 86.944L350.972 87.94C350.456 87.352 349.724 86.98 348.92 86.98C347.408 86.98 346.124 88.3 346.124 89.872C346.124 91.456 347.408 92.776 348.92 92.776C349.724 92.776 350.456 92.404 350.984 91.816L352.04 92.8C351.248 93.628 350.132 94.144 348.92 94.144ZM360.649 94L360.001 92.44H356.065L355.417 94H353.749L357.193 85.756H358.861L362.305 94H360.649ZM356.581 91.216H359.485L358.033 87.748L356.581 91.216ZM364.742 94V85.756H366.23L370.586 91.552V85.756H372.074V94H370.586L366.23 88.204V94H364.742ZM379.131 94.144C376.791 94.144 374.811 92.188 374.811 89.872C374.811 87.556 376.791 85.612 379.131 85.612C380.343 85.612 381.459 86.128 382.251 86.944L381.183 87.94C380.667 87.352 379.935 86.98 379.131 86.98C377.619 86.98 376.335 88.3 376.335 89.872C376.335 91.456 377.619 92.776 379.131 92.776C379.935 92.776 380.667 92.404 381.195 91.816L382.251 92.8C381.459 93.628 380.343 94.144 379.131 94.144ZM391.004 87.124H386.3V89.116H390.548V90.484H386.3V92.632H391.004V94H384.8V85.756H391.004V87.124ZM395.304 92.632H399.54V94H393.816V85.756H395.304V92.632Z" fill="#2EC0FF"/>
<path d="M29.4 30L28.644 28.18H24.052L23.296 30H21.35L25.368 20.382H27.314L31.332 30H29.4ZM24.654 26.752H28.042L26.348 22.706L24.654 26.752ZM35.9597 30.168C33.8597 30.168 32.0817 28.432 32.0817 26.374C32.0817 24.316 33.8597 22.594 35.9737 22.594C37.0797 22.594 38.0317 23.056 38.7177 23.77L37.5697 24.778C37.1777 24.344 36.5757 24.05 35.9597 24.05C34.7697 24.05 33.7757 25.114 33.7757 26.374C33.7757 27.648 34.7697 28.712 35.9597 28.712C36.5897 28.712 37.2057 28.418 37.6117 27.956L38.7597 28.95C38.0597 29.692 37.0937 30.168 35.9597 30.168ZM43.4082 28.446L43.8982 29.594C43.4922 29.944 42.9042 30.168 42.3442 30.168C41.1542 30.168 40.3142 29.3 40.3142 28.082V24.176H39.2642V22.762H40.3142V20.774H41.9662V22.762H43.6042V24.176H41.9662V27.872C41.9662 28.362 42.2882 28.712 42.6942 28.712C42.9882 28.712 43.2542 28.6 43.4082 28.446ZM46.0516 21.67C45.5056 21.67 45.0716 21.208 45.0716 20.69C45.0716 20.172 45.5056 19.724 46.0516 19.724C46.5836 19.724 47.0176 20.172 47.0176 20.69C47.0176 21.208 46.5836 21.67 46.0516 21.67ZM45.1976 30V22.762H46.9056V30H45.1976ZM51.1514 30L48.0294 22.762H49.8494L51.9494 28.026L54.0074 22.762H55.8134L52.7474 30H51.1514ZM59.8448 22.594C61.7628 22.594 62.9388 23.812 62.9388 25.646V30H61.2728V29.146C60.7408 29.804 59.8448 30.168 59.0048 30.168C57.4648 30.168 56.3168 29.258 56.3168 27.858C56.3168 26.43 57.6188 25.45 59.2568 25.45C59.9148 25.45 60.6148 25.59 61.2728 25.828V25.646C61.2728 24.806 60.8248 23.994 59.5088 23.994C58.8228 23.994 58.1648 24.232 57.5488 24.54L56.9608 23.35C57.9828 22.846 58.9348 22.594 59.8448 22.594ZM59.3828 28.922C60.2088 28.922 61.0908 28.502 61.2728 27.732V26.906C60.7408 26.738 60.1388 26.64 59.5088 26.64C58.6548 26.64 57.9548 27.116 57.9548 27.802C57.9548 28.488 58.5708 28.922 59.3828 28.922ZM68.2055 28.446L68.6955 29.594C68.2895 29.944 67.7015 30.168 67.1415 30.168C65.9515 30.168 65.1115 29.3 65.1115 28.082V24.176H64.0615V22.762H65.1115V20.774H66.7635V22.762H68.4015V24.176H66.7635V27.872C66.7635 28.362 67.0855 28.712 67.4915 28.712C67.7855 28.712 68.0515 28.6 68.2055 28.446ZM70.8489 21.67C70.3029 21.67 69.8689 21.208 69.8689 20.69C69.8689 20.172 70.3029 19.724 70.8489 19.724C71.3809 19.724 71.8149 20.172 71.8149 20.69C71.8149 21.208 71.3809 21.67 70.8489 21.67ZM69.9949 30V22.762L71.7029 22.762V30H69.9949ZM77.6847 22.594C79.2807 22.594 80.3867 23.742 80.3867 25.394V30H78.7207V25.73C78.7207 24.736 78.1047 24.05 77.2087 24.05C76.2287 24.05 75.4447 24.736 75.4447 25.618V30H73.7367V22.762H75.4447V23.742C75.8787 23.056 76.7187 22.594 77.6847 22.594ZM87.4436 22.762L89.1656 22.762V29.23C89.1656 31.092 87.5976 32.408 85.3856 32.408C84.1396 32.408 82.9776 32.002 82.2776 31.442L82.9076 30.196C83.4116 30.658 84.2656 30.952 85.1196 30.952C86.5476 30.952 87.4436 30.266 87.4436 29.174V28.25C86.8696 29.02 85.9876 29.468 84.9656 29.468C83.1036 29.468 81.7176 28.04 81.7176 26.024C81.7176 24.008 83.1036 22.594 84.9656 22.594C86.0016 22.594 86.9256 23.07 87.4436 23.826V22.762ZM85.4556 28.012C86.6176 28.012 87.4436 27.186 87.4436 26.024C87.4436 24.876 86.6176 24.05 85.4556 24.05C84.3076 24.05 83.4816 24.876 83.4816 26.024C83.4816 27.186 84.3076 28.012 85.4556 28.012ZM102.238 30L101.482 28.18L96.8895 28.18L96.1335 30H94.1875L98.2055 20.382H100.152L104.17 30H102.238ZM97.4915 26.752L100.88 26.752L99.1855 22.706L97.4915 26.752ZM110.827 20.214H112.535V30H110.827V28.852C110.267 29.678 109.385 30.168 108.321 30.168C106.389 30.168 104.989 28.6 104.989 26.374C104.989 24.162 106.389 22.594 108.321 22.594C109.385 22.594 110.267 23.084 110.827 23.896V20.214ZM108.769 28.712C109.973 28.712 110.813 27.732 110.813 26.374C110.813 25.016 109.973 24.05 108.769 24.05C107.551 24.05 106.683 25.016 106.683 26.374C106.683 27.732 107.551 28.712 108.769 28.712ZM119.915 20.214H121.623V30H119.915V28.852C119.355 29.678 118.473 30.168 117.409 30.168C115.477 30.168 114.077 28.6 114.077 26.374C114.077 24.162 115.477 22.594 117.409 22.594C118.473 22.594 119.355 23.084 119.915 23.896V20.214ZM117.857 28.712C119.061 28.712 119.901 27.732 119.901 26.374C119.901 25.016 119.061 24.05 117.857 24.05C116.639 24.05 115.771 25.016 115.771 26.374C115.771 27.732 116.639 28.712 117.857 28.712ZM123.64 26.906V25.408H127.406V26.906L123.64 26.906ZM132.751 30.168C130.609 30.168 128.859 28.46 128.859 26.374C128.859 24.288 130.609 22.594 132.751 22.594C134.879 22.594 136.615 24.288 136.615 26.374C136.615 28.46 134.879 30.168 132.751 30.168ZM132.751 28.712C133.955 28.712 134.949 27.662 134.949 26.374C134.949 25.086 133.955 24.05 132.751 24.05C131.533 24.05 130.539 25.086 130.539 26.374C130.539 27.662 131.533 28.712 132.751 28.712ZM142.045 22.594C143.641 22.594 144.747 23.742 144.747 25.394V30H143.081V25.73C143.081 24.736 142.465 24.05 141.569 24.05C140.589 24.05 139.805 24.736 139.805 25.618V30H138.097V22.762H139.805V23.742C140.239 23.056 141.079 22.594 142.045 22.594Z" fill="white"/>
<path d="M409.12 23.9913L404 29.2891L398.88 23.9913C398.59 23.6906 398.599 23.212 398.9 22.9224C399.201 22.6328 399.679 22.6417 399.969 22.9424L404 27.1157L408.036 22.9424C408.325 22.6417 408.804 22.6328 409.104 22.9224C409.405 23.212 409.414 23.6906 409.124 23.9913H409.12Z" fill="#F1F6F8"/>
<path fill-rule="evenodd" clip-rule="evenodd" d="M21.1973 44H411.787V56H21.1973V44Z" fill="#2D4048"/>
<path fill-rule="evenodd" clip-rule="evenodd" d="M21.1973 44H173.259V56H21.1973V44Z" fill="#2EC0FF"/>
<defs>
<filter id="filter0_d_10439_5407" x="0" y="0" width="432" height="123" filterUnits="userSpaceOnUse" color-interpolation-filters="sRGB">
<feFlood flood-opacity="0" result="BackgroundImageFix"/>
<feColorMatrix in="SourceAlpha" type="matrix" values="0 0 0 0 0 0 0 0 0 0 0 0 0 0 0 0 0 0 127 0" result="hardAlpha"/>
<feOffset dy="4"/>
<feGaussianBlur stdDeviation="2"/>
<feComposite in2="hardAlpha" operator="out"/>
<feColorMatrix type="matrix" values="0 0 0 0 0.105 0 0 0 0 0.168 0 0 0 0 0.195 0 0 0 0.25 0"/>
<feBlend mode="normal" in2="BackgroundImageFix" result="effect1_dropShadow_10439_5407"/>
<feBlend mode="normal" in="SourceGraphic" in2="effect1_dropShadow_10439_5407" result="shape"/>
</filter>
</defs>
</svg>
