<svg width="432" height="147" viewBox="0 0 432 147" fill="none" xmlns="http://www.w3.org/2000/svg">
<g filter="url(#filter0_d_10477_4746)">
<rect x="4" width="424" height="139" rx="4" fill="#22343C"/>
<rect x="4.5" y="0.5" width="423" height="138" rx="3.5" stroke="#67777E"/>
</g>
<path fill-rule="evenodd" clip-rule="evenodd" d="M22.3335 27.0002C22.3335 32.8912 27.1091 37.6668 33.0002 37.6668C35.8291 37.6668 38.5422 36.543 40.5426 34.5426C42.543 32.5422 43.6668 29.8291 43.6668 27.0002C43.6668 21.1091 38.8912 16.3335 33.0002 16.3335C27.1091 16.3335 22.3335 21.1091 22.3335 27.0002ZM23.6668 27.0002C23.6668 21.8455 27.8455 17.6668 33.0002 17.6668C38.1548 17.6668 42.3335 21.8455 42.3335 27.0002C42.3335 32.1548 38.1548 36.3335 33.0002 36.3335C27.8455 36.3335 23.6668 32.1548 23.6668 27.0002ZM33.0002 30.0735C32.632 30.0735 32.3335 29.775 32.3335 29.4068V21.4068C32.3335 21.0386 32.632 20.7402 33.0002 20.7402C33.3684 20.7402 33.6668 21.0386 33.6668 21.4068V29.4068C33.6668 29.775 33.3684 30.0735 33.0002 30.0735ZM33.8868 32.3735C33.8868 32.8632 33.4899 33.2602 33.0002 33.2602C32.5105 33.2602 32.1135 32.8632 32.1135 32.3735C32.1135 31.8838 32.5105 31.4868 33.0002 31.4868C33.4899 31.4868 33.8868 31.8838 33.8868 32.3735Z" fill="#FF674C"/>
<path d="M56.584 60V51.418H53.35V50.382H60.91V51.418H57.676V60H56.584ZM65.8058 52.594C67.4158 52.594 68.5218 53.728 68.5218 55.394V60H67.4718V55.534C67.4718 54.344 66.7298 53.532 65.6658 53.532C64.4338 53.532 63.4258 54.372 63.4258 55.394V60H62.3758V50.214H63.4258V53.91C63.8458 53.14 64.7698 52.594 65.8058 52.594ZM73.736 59.23C74.59 59.23 75.57 58.852 76.018 58.362L76.662 59.048C76.032 59.734 74.758 60.168 73.75 60.168C71.818 60.168 70.082 58.586 70.082 56.36C70.082 54.204 71.706 52.594 73.652 52.594C75.836 52.594 77.082 54.246 77.082 56.78L71.16 56.78C71.314 58.194 72.308 59.23 73.736 59.23ZM73.694 53.532C72.406 53.532 71.37 54.442 71.174 55.842L76.046 55.842C75.906 54.54 75.136 53.532 73.694 53.532ZM85.6096 60.168C83.5516 60.168 81.8716 58.46 81.8716 56.374C81.8716 54.288 83.5516 52.594 85.6096 52.594C87.6536 52.594 89.3336 54.288 89.3336 56.374C89.3336 58.46 87.6536 60.168 85.6096 60.168ZM85.6096 59.23C87.0516 59.23 88.2416 57.942 88.2416 56.374C88.2416 54.806 87.0516 53.532 85.6096 53.532C84.1536 53.532 82.9636 54.806 82.9636 56.374C82.9636 57.942 84.1536 59.23 85.6096 59.23ZM94.7242 52.594C96.6282 52.594 98.0562 54.162 98.0562 56.374C98.0562 58.6 96.6282 60.168 94.7242 60.168C93.5622 60.168 92.6382 59.594 92.0922 58.642V62.408H91.0422V52.762H92.0922V54.12C92.6382 53.168 93.5622 52.594 94.7242 52.594ZM94.5282 59.23C95.9422 59.23 96.9502 58.04 96.9502 56.374C96.9502 54.708 95.9422 53.532 94.5282 53.532C93.1002 53.532 92.0922 54.708 92.0922 56.374C92.0922 58.04 93.1002 59.23 94.5282 59.23ZM102.881 59.23C103.735 59.23 104.715 58.852 105.163 58.362L105.807 59.048C105.177 59.734 103.903 60.168 102.895 60.168C100.963 60.168 99.2269 58.586 99.2269 56.36C99.2269 54.204 100.851 52.594 102.797 52.594C104.981 52.594 106.227 54.246 106.227 56.78H100.305C100.459 58.194 101.453 59.23 102.881 59.23ZM102.839 53.532C101.551 53.532 100.515 54.442 100.319 55.842H105.191C105.051 54.54 104.281 53.532 102.839 53.532ZM108.941 54.176C109.375 53.21 110.411 52.594 111.741 52.594V53.532C110.103 53.532 108.941 54.54 108.941 55.954V60H107.891V52.762H108.941V54.176ZM115.932 52.594C117.906 52.594 118.872 53.84 118.872 55.59V60H117.822V58.866C117.304 59.72 116.226 60.168 115.274 60.168C113.748 60.168 112.628 59.286 112.628 57.858C112.628 56.416 113.916 55.45 115.47 55.45C116.254 55.45 117.08 55.618 117.822 55.856V55.59C117.822 54.61 117.43 53.49 115.862 53.49C115.134 53.49 114.406 53.812 113.748 54.148L113.328 53.294C114.364 52.776 115.232 52.594 115.932 52.594ZM115.456 59.244C116.408 59.244 117.542 58.754 117.822 57.732V56.626C117.164 56.444 116.422 56.332 115.638 56.332C114.56 56.332 113.65 56.948 113.65 57.816C113.65 58.712 114.434 59.244 115.456 59.244ZM123.835 58.936L124.353 59.706C123.975 60 123.499 60.168 123.009 60.168C121.973 60.168 121.245 59.398 121.245 58.32V53.7H120.111V52.762H121.245V50.774H122.295V52.762H124.073V53.7H122.295V58.32C122.295 58.852 122.659 59.23 123.079 59.23C123.401 59.23 123.681 59.104 123.835 58.936ZM126.293 51.446C125.901 51.446 125.593 51.124 125.593 50.746C125.593 50.382 125.901 50.06 126.293 50.06C126.671 50.06 126.979 50.382 126.979 50.746C126.979 51.124 126.671 51.446 126.293 51.446ZM125.761 60V52.762H126.811V60H125.761ZM132.255 60.168C130.197 60.168 128.517 58.46 128.517 56.374C128.517 54.288 130.197 52.594 132.255 52.594C134.299 52.594 135.979 54.288 135.979 56.374C135.979 58.46 134.299 60.168 132.255 60.168ZM132.255 59.23C133.697 59.23 134.887 57.942 134.887 56.374C134.887 54.806 133.697 53.532 132.255 53.532C130.799 53.532 129.609 54.806 129.609 56.374C129.609 57.942 130.799 59.23 132.255 59.23ZM141.118 52.594C142.728 52.594 143.834 53.728 143.834 55.394V60H142.784V55.534C142.784 54.344 142.042 53.532 140.978 53.532C139.746 53.532 138.738 54.372 138.738 55.394V60H137.688V52.762H138.738V53.91C139.158 53.14 140.082 52.594 141.118 52.594ZM151.054 51.768V52.762H152.832V53.7H151.054V60H150.004V53.7H148.87V52.762H150.004V51.768C150.004 50.69 150.732 49.92 151.768 49.92C152.258 49.92 152.734 50.088 153.112 50.382L152.594 51.152C152.44 50.984 152.16 50.858 151.838 50.858C151.418 50.858 151.054 51.236 151.054 51.768ZM156.685 52.594C158.659 52.594 159.625 53.84 159.625 55.59V60H158.575V58.866C158.057 59.72 156.979 60.168 156.027 60.168C154.501 60.168 153.381 59.286 153.381 57.858C153.381 56.416 154.669 55.45 156.223 55.45C157.007 55.45 157.833 55.618 158.575 55.856V55.59C158.575 54.61 158.183 53.49 156.615 53.49C155.887 53.49 155.159 53.812 154.501 54.148L154.081 53.294C155.117 52.776 155.985 52.594 156.685 52.594ZM156.209 59.244C157.161 59.244 158.295 58.754 158.575 57.732V56.626C157.917 56.444 157.175 56.332 156.391 56.332C155.313 56.332 154.403 56.948 154.403 57.816C154.403 58.712 155.187 59.244 156.209 59.244ZM162.32 51.446C161.928 51.446 161.62 51.124 161.62 50.746C161.62 50.382 161.928 50.06 162.32 50.06C162.698 50.06 163.006 50.382 163.006 50.746C163.006 51.124 162.698 51.446 162.32 51.446ZM161.788 60V52.762H162.838V60H161.788ZM165.174 60V50.214H166.224V60H165.174ZM171.613 59.23C172.467 59.23 173.447 58.852 173.895 58.362L174.539 59.048C173.909 59.734 172.635 60.168 171.627 60.168C169.695 60.168 167.959 58.586 167.959 56.36C167.959 54.204 169.583 52.594 171.529 52.594C173.713 52.594 174.959 54.246 174.959 56.78H169.037C169.191 58.194 170.185 59.23 171.613 59.23ZM171.571 53.532C170.283 53.532 169.247 54.442 169.051 55.842H173.923C173.783 54.54 173.013 53.532 171.571 53.532ZM182.027 50.214H183.077V60H182.027V58.642C181.481 59.594 180.557 60.168 179.395 60.168C177.491 60.168 176.063 58.6 176.063 56.374C176.063 54.162 177.491 52.594 179.395 52.594C180.557 52.594 181.481 53.168 182.027 54.12V50.214ZM179.591 59.23C181.019 59.23 182.027 58.04 182.027 56.374C182.027 54.708 181.019 53.532 179.591 53.532C178.177 53.532 177.169 54.708 177.169 56.374C177.169 58.04 178.177 59.23 179.591 59.23ZM192.273 60.168C190.215 60.168 188.535 58.46 188.535 56.374C188.535 54.288 190.215 52.594 192.273 52.594C194.317 52.594 195.997 54.288 195.997 56.374C195.997 58.46 194.317 60.168 192.273 60.168ZM192.273 59.23C193.715 59.23 194.905 57.942 194.905 56.374C194.905 54.806 193.715 53.532 192.273 53.532C190.817 53.532 189.627 54.806 189.627 56.374C189.627 57.942 190.817 59.23 192.273 59.23ZM201.136 52.594C202.746 52.594 203.852 53.728 203.852 55.394V60H202.802V55.534C202.802 54.344 202.06 53.532 200.996 53.532C199.764 53.532 198.756 54.372 198.756 55.394V60H197.706V52.762H198.756V53.91C199.176 53.14 200.1 52.594 201.136 52.594ZM212.989 60.154C211.407 60.154 210.161 59.58 209.195 58.628L209.881 57.774C210.693 58.586 211.687 59.16 213.031 59.16C214.515 59.16 215.271 58.348 215.271 57.48C215.271 56.458 214.361 56.052 212.681 55.66C210.749 55.212 209.531 54.61 209.531 52.944C209.531 51.404 210.903 50.214 212.751 50.214C214.179 50.214 215.243 50.774 216.125 51.586L215.453 52.44C214.655 51.67 213.703 51.208 212.695 51.208C211.505 51.208 210.637 51.978 210.637 52.86C210.637 53.854 211.589 54.204 213.227 54.596C215.061 55.03 216.377 55.688 216.377 57.382C216.377 58.908 215.229 60.154 212.989 60.154ZM221.041 58.936L221.559 59.706C221.181 60 220.705 60.168 220.215 60.168C219.179 60.168 218.451 59.398 218.451 58.32V53.7H217.317V52.762H218.451V50.774H219.501V52.762H221.279V53.7H219.501V58.32C219.501 58.852 219.865 59.23 220.285 59.23C220.607 59.23 220.887 59.104 221.041 58.936ZM226.02 59.23C226.874 59.23 227.854 58.852 228.302 58.362L228.946 59.048C228.316 59.734 227.042 60.168 226.034 60.168C224.102 60.168 222.366 58.586 222.366 56.36C222.366 54.204 223.99 52.594 225.936 52.594C228.12 52.594 229.366 54.246 229.366 56.78H223.444C223.598 58.194 224.592 59.23 226.02 59.23ZM225.978 53.532C224.69 53.532 223.654 54.442 223.458 55.842H228.33C228.19 54.54 227.42 53.532 225.978 53.532ZM234.712 52.594C236.616 52.594 238.044 54.162 238.044 56.374C238.044 58.6 236.616 60.168 234.712 60.168C233.55 60.168 232.626 59.594 232.08 58.642V62.408H231.03V52.762H232.08V54.12C232.626 53.168 233.55 52.594 234.712 52.594ZM234.516 59.23C235.93 59.23 236.938 58.04 236.938 56.374C236.938 54.708 235.93 53.532 234.516 53.532C233.088 53.532 232.08 54.708 232.08 56.374C232.08 58.04 233.088 59.23 234.516 59.23ZM246.274 60.168C244.692 60.168 243.474 59.44 242.774 58.516L243.53 57.802C244.16 58.614 245.098 59.174 246.274 59.174C247.618 59.174 248.514 58.432 248.514 57.34C248.514 56.206 247.548 55.632 246.036 55.632H245.014V54.624L246.05 54.638C247.338 54.652 248.304 54.036 248.304 52.944C248.304 51.936 247.38 51.208 246.176 51.208C245.112 51.208 244.356 51.74 243.67 52.566L242.942 51.908C243.67 50.942 244.734 50.214 246.232 50.214C248.066 50.214 249.41 51.278 249.41 52.818C249.41 54.05 248.542 54.778 247.548 55.072C248.528 55.296 249.62 56.01 249.62 57.396C249.62 59.006 248.276 60.168 246.274 60.168ZM252.362 61.862L251.844 61.47C252.222 61.036 252.46 60.602 252.572 60.168C252.152 60.168 251.816 59.818 251.816 59.398C251.816 59.006 252.138 58.656 252.586 58.656C253.118 58.656 253.44 59.132 253.44 59.776C253.44 60.336 253.202 60.812 252.362 61.862ZM260.658 50.578L261.176 50.97C260.798 51.404 260.56 51.838 260.448 52.272C260.868 52.272 261.204 52.622 261.204 53.042C261.204 53.434 260.882 53.784 260.434 53.784C259.902 53.784 259.58 53.308 259.58 52.664C259.58 52.104 259.818 51.628 260.658 50.578ZM263.458 50.578L263.976 50.97C263.598 51.404 263.36 51.838 263.248 52.272C263.668 52.272 264.004 52.622 264.004 53.042C264.004 53.434 263.682 53.784 263.234 53.784C262.702 53.784 262.38 53.308 262.38 52.664C262.38 52.104 262.618 51.628 263.458 50.578ZM273.515 51.418L267.719 51.418V54.582L272.941 54.582V55.618L267.719 55.618V58.964L273.515 58.964V60L266.613 60V50.382L273.515 50.382V51.418ZM277.66 60.168C276.652 60.168 275.532 59.79 274.664 59.09L275.21 58.32C276.036 58.922 276.862 59.23 277.66 59.23C278.612 59.23 279.256 58.782 279.256 58.096C279.256 57.312 278.416 57.06 277.436 56.78C275.686 56.276 275.014 55.758 275.014 54.722C275.014 53.406 276.106 52.594 277.548 52.594C278.444 52.594 279.368 52.902 280.138 53.406L279.634 54.218C278.906 53.756 278.192 53.532 277.548 53.532C276.736 53.532 276.064 53.896 276.064 54.596C276.064 55.226 276.596 55.422 277.94 55.856C279.102 56.22 280.306 56.612 280.306 57.984C280.306 59.314 279.158 60.168 277.66 60.168ZM284.805 58.936L285.323 59.706C284.945 60 284.469 60.168 283.979 60.168C282.943 60.168 282.215 59.398 282.215 58.32V53.7H281.081V52.762H282.215V50.774H283.265V52.762H285.043V53.7H283.265V58.32C283.265 58.852 283.629 59.23 284.049 59.23C284.371 59.23 284.651 59.104 284.805 58.936ZM289.321 52.594C291.295 52.594 292.261 53.84 292.261 55.59V60H291.211V58.866C290.693 59.72 289.615 60.168 288.663 60.168C287.137 60.168 286.017 59.286 286.017 57.858C286.017 56.416 287.305 55.45 288.859 55.45C289.643 55.45 290.469 55.618 291.211 55.856V55.59C291.211 54.61 290.819 53.49 289.251 53.49C288.523 53.49 287.795 53.812 287.137 54.148L286.717 53.294C287.753 52.776 288.621 52.594 289.321 52.594ZM288.845 59.244C289.797 59.244 290.931 58.754 291.211 57.732V56.626C290.553 56.444 289.811 56.332 289.027 56.332C287.949 56.332 287.039 56.948 287.039 57.816C287.039 58.712 287.823 59.244 288.845 59.244ZM298.106 52.594C300.01 52.594 301.438 54.162 301.438 56.374C301.438 58.6 300.01 60.168 298.106 60.168C296.944 60.168 296.02 59.594 295.474 58.642V60H294.424V50.214H295.474V54.12C296.02 53.168 296.944 52.594 298.106 52.594ZM297.91 59.23C299.324 59.23 300.332 58.04 300.332 56.374C300.332 54.708 299.324 53.532 297.91 53.532C296.482 53.532 295.474 54.708 295.474 56.374C295.474 58.04 296.482 59.23 297.91 59.23ZM303.211 60V50.214H304.261V60H303.211ZM307.129 51.446C306.737 51.446 306.429 51.124 306.429 50.746C306.429 50.382 306.737 50.06 307.129 50.06C307.507 50.06 307.815 50.382 307.815 50.746C307.815 51.124 307.507 51.446 307.129 51.446ZM306.597 60V52.762H307.647V60H306.597ZM312.224 60.168C311.216 60.168 310.096 59.79 309.228 59.09L309.774 58.32C310.6 58.922 311.426 59.23 312.224 59.23C313.176 59.23 313.82 58.782 313.82 58.096C313.82 57.312 312.98 57.06 312 56.78C310.25 56.276 309.578 55.758 309.578 54.722C309.578 53.406 310.67 52.594 312.112 52.594C313.008 52.594 313.932 52.902 314.702 53.406L314.198 54.218C313.47 53.756 312.756 53.532 312.112 53.532C311.3 53.532 310.628 53.896 310.628 54.596C310.628 55.226 311.16 55.422 312.504 55.856C313.666 56.22 314.87 56.612 314.87 57.984C314.87 59.314 313.722 60.168 312.224 60.168ZM319.999 52.594C321.609 52.594 322.715 53.728 322.715 55.394V60H321.665V55.534C321.665 54.344 320.923 53.532 319.859 53.532C318.627 53.532 317.619 54.372 317.619 55.394V60H316.569V50.214H317.619V53.91C318.039 53.14 318.963 52.594 319.999 52.594ZM325.409 51.446C325.017 51.446 324.709 51.124 324.709 50.746C324.709 50.382 325.017 50.06 325.409 50.06C325.787 50.06 326.095 50.382 326.095 50.746C326.095 51.124 325.787 51.446 325.409 51.446ZM324.877 60V52.762H325.927V60H324.877ZM331.694 52.594C333.304 52.594 334.41 53.728 334.41 55.394V60H333.36V55.534C333.36 54.344 332.618 53.532 331.554 53.532C330.322 53.532 329.314 54.372 329.314 55.394V60H328.264V52.762L329.314 52.762V53.91C329.734 53.14 330.658 52.594 331.694 52.594ZM341.906 52.762H342.956V59.23C342.956 61.092 341.486 62.408 339.4 62.408C338.224 62.408 337.132 62.002 336.474 61.442L336.936 60.616C337.496 61.148 338.364 61.47 339.26 61.47C340.926 61.47 341.906 60.644 341.906 59.23V58.054C341.346 58.936 340.422 59.468 339.274 59.468C337.328 59.468 335.942 58.04 335.942 56.024C335.942 54.008 337.328 52.594 339.274 52.594C340.422 52.594 341.346 53.126 341.906 54.008V52.762ZM339.47 58.53C340.898 58.53 341.906 57.494 341.906 56.024C341.906 54.568 340.898 53.532 339.47 53.532C338.056 53.532 337.048 54.568 337.048 56.024C337.048 57.494 338.056 58.53 339.47 58.53ZM351.636 52.594C353.61 52.594 354.576 53.84 354.576 55.59V60H353.526V58.866C353.008 59.72 351.93 60.168 350.978 60.168C349.452 60.168 348.332 59.286 348.332 57.858C348.332 56.416 349.62 55.45 351.174 55.45C351.958 55.45 352.784 55.618 353.526 55.856V55.59C353.526 54.61 353.134 53.49 351.566 53.49C350.838 53.49 350.11 53.812 349.452 54.148L349.032 53.294C350.068 52.776 350.936 52.594 351.636 52.594ZM351.16 59.244C352.112 59.244 353.246 58.754 353.526 57.732V56.626C352.868 56.444 352.126 56.332 351.342 56.332C350.264 56.332 349.354 56.948 349.354 57.816C349.354 58.712 350.138 59.244 351.16 59.244ZM61.288 70.382H62.38V80H61.288V75.618H55.618V80H54.526V70.382H55.618V74.582H61.288V70.382ZM68.1362 80.168C66.0782 80.168 64.3982 78.46 64.3982 76.374C64.3982 74.288 66.0782 72.594 68.1362 72.594C70.1802 72.594 71.8602 74.288 71.8602 76.374C71.8602 78.46 70.1802 80.168 68.1362 80.168ZM68.1362 79.23C69.5782 79.23 70.7682 77.942 70.7682 76.374C70.7682 74.806 69.5782 73.532 68.1362 73.532C66.6802 73.532 65.4902 74.806 65.4902 76.374C65.4902 77.942 66.6802 79.23 68.1362 79.23ZM75.8088 80.168C74.8008 80.168 73.6808 79.79 72.8128 79.09L73.3588 78.32C74.1848 78.922 75.0108 79.23 75.8088 79.23C76.7608 79.23 77.4048 78.782 77.4048 78.096C77.4048 77.312 76.5648 77.06 75.5848 76.78C73.8348 76.276 73.1628 75.758 73.1628 74.722C73.1628 73.406 74.2548 72.594 75.6968 72.594C76.5928 72.594 77.5168 72.902 78.2868 73.406L77.7828 74.218C77.0548 73.756 76.3408 73.532 75.6968 73.532C74.8848 73.532 74.2128 73.896 74.2128 74.596C74.2128 75.226 74.7448 75.422 76.0888 75.856C77.2508 76.22 78.4548 76.612 78.4548 77.984C78.4548 79.314 77.3068 80.168 75.8088 80.168ZM82.9543 78.936L83.4723 79.706C83.0943 80 82.6183 80.168 82.1283 80.168C81.0923 80.168 80.3643 79.398 80.3643 78.32V73.7H79.2303V72.762H80.3643V70.774H81.4143V72.762H83.1923V73.7H81.4143V78.32C81.4143 78.852 81.7783 79.23 82.1983 79.23C82.5203 79.23 82.8003 79.104 82.9543 78.936ZM93.13 80.168C90.47 80.168 88.202 77.886 88.202 75.184C88.202 72.482 90.47 70.214 93.13 70.214C94.46 70.214 95.692 70.774 96.588 71.684L95.846 72.44C95.146 71.698 94.18 71.222 93.13 71.222C91.058 71.222 89.308 73.042 89.308 75.184C89.308 77.34 91.058 79.16 93.13 79.16C94.18 79.16 95.146 78.684 95.846 77.942L96.588 78.698C95.692 79.594 94.46 80.168 93.13 80.168ZM101.337 80.168C99.2793 80.168 97.5993 78.46 97.5993 76.374C97.5993 74.288 99.2793 72.594 101.337 72.594C103.381 72.594 105.061 74.288 105.061 76.374C105.061 78.46 103.381 80.168 101.337 80.168ZM101.337 79.23C102.779 79.23 103.969 77.942 103.969 76.374C103.969 74.806 102.779 73.532 101.337 73.532C99.8813 73.532 98.6913 74.806 98.6913 76.374C98.6913 77.942 99.8813 79.23 101.337 79.23ZM110.2 72.594C111.81 72.594 112.916 73.728 112.916 75.394V80H111.866V75.534C111.866 74.344 111.124 73.532 110.06 73.532C108.828 73.532 107.82 74.372 107.82 75.394V80H106.77V72.762H107.82V73.91C108.24 73.14 109.164 72.594 110.2 72.594ZM118.508 72.594C120.118 72.594 121.224 73.728 121.224 75.394V80H120.174V75.534C120.174 74.344 119.432 73.532 118.368 73.532C117.136 73.532 116.128 74.372 116.128 75.394V80H115.078V72.762H116.128V73.91C116.548 73.14 117.472 72.594 118.508 72.594ZM126.438 79.23C127.292 79.23 128.272 78.852 128.72 78.362L129.364 79.048C128.734 79.734 127.46 80.168 126.452 80.168C124.52 80.168 122.784 78.586 122.784 76.36C122.784 74.204 124.408 72.594 126.354 72.594C128.538 72.594 129.784 74.246 129.784 76.78H123.862C124.016 78.194 125.01 79.23 126.438 79.23ZM126.396 73.532C125.108 73.532 124.072 74.442 123.876 75.842H128.748C128.608 74.54 127.838 73.532 126.396 73.532ZM134.556 80.168C132.526 80.168 130.804 78.432 130.804 76.374C130.804 74.316 132.526 72.594 134.556 72.594C135.536 72.594 136.446 73 137.132 73.658L136.404 74.372C135.928 73.854 135.27 73.532 134.556 73.532C133.114 73.532 131.91 74.834 131.91 76.374C131.91 77.928 133.114 79.23 134.556 79.23C135.284 79.23 135.956 78.894 136.446 78.348L137.174 79.062C136.488 79.748 135.564 80.168 134.556 80.168ZM141.408 78.936L141.926 79.706C141.548 80 141.072 80.168 140.582 80.168C139.546 80.168 138.818 79.398 138.818 78.32V73.7H137.684V72.762H138.818V70.774H139.868V72.762H141.646V73.7H139.868V78.32C139.868 78.852 140.232 79.23 140.652 79.23C140.974 79.23 141.254 79.104 141.408 78.936ZM143.866 71.446C143.474 71.446 143.166 71.124 143.166 70.746C143.166 70.382 143.474 70.06 143.866 70.06C144.244 70.06 144.552 70.382 144.552 70.746C144.552 71.124 144.244 71.446 143.866 71.446ZM143.334 80V72.762H144.384V80H143.334ZM149.829 80.168C147.771 80.168 146.091 78.46 146.091 76.374C146.091 74.288 147.771 72.594 149.829 72.594C151.873 72.594 153.553 74.288 153.553 76.374C153.553 78.46 151.873 80.168 149.829 80.168ZM149.829 79.23C151.271 79.23 152.461 77.942 152.461 76.374C152.461 74.806 151.271 73.532 149.829 73.532C148.373 73.532 147.183 74.806 147.183 76.374C147.183 77.942 148.373 79.23 149.829 79.23ZM158.691 72.594C160.301 72.594 161.407 73.728 161.407 75.394V80H160.357V75.534C160.357 74.344 159.615 73.532 158.551 73.532C157.319 73.532 156.311 74.372 156.311 75.394V80H155.261V72.762H156.311V73.91C156.731 73.14 157.655 72.594 158.691 72.594ZM164.634 80.168C164.2 80.168 163.864 79.818 163.864 79.398C163.864 79.006 164.2 78.656 164.634 78.656C165.04 78.656 165.376 79.006 165.376 79.398C165.376 79.818 165.04 80.168 164.634 80.168ZM168.513 73.756L167.995 73.364C168.373 72.93 168.611 72.496 168.723 72.062C168.303 72.062 167.967 71.712 167.967 71.292C167.967 70.9 168.289 70.55 168.737 70.55C169.269 70.55 169.591 71.026 169.591 71.67C169.591 72.23 169.353 72.706 168.513 73.756ZM171.313 73.756L170.795 73.364C171.173 72.93 171.411 72.496 171.523 72.062C171.103 72.062 170.767 71.712 170.767 71.292C170.767 70.9 171.089 70.55 171.537 70.55C172.069 70.55 172.391 71.026 172.391 71.67C172.391 72.23 172.153 72.706 171.313 73.756Z" fill="#E3EAED"/>
<path d="M211.212 109.756H212.868L209.424 118H207.756L204.312 109.756H205.968L208.596 116.008L211.212 109.756ZM215.316 118V109.756H216.804V118H215.316ZM226.293 111.124H221.589V113.116H225.837V114.484H221.589V116.632H226.293V118H220.089V109.756H226.293V111.124ZM230.929 118L228.313 109.756H229.957L231.721 115.66L233.677 109.756H235.297L237.241 115.66L239.017 109.756H240.649L238.045 118H236.557L234.493 111.88L232.417 118H230.929ZM247.429 118V109.756H250.321C253.045 109.756 254.965 111.46 254.965 113.872C254.965 116.284 253.045 118 250.321 118H247.429ZM248.917 116.644H250.477C252.217 116.644 253.441 115.492 253.441 113.872C253.441 112.252 252.217 111.112 250.477 111.112H248.917V116.644ZM263.914 111.124H259.21V113.116H263.458V114.484H259.21V116.632H263.914V118H257.71V109.756H263.914V111.124ZM268.574 118V111.124H265.934V109.756H272.702V111.124H270.074V118H268.574ZM281.263 118L280.615 116.44H276.679L276.031 118H274.363L277.807 109.756H279.475L282.919 118H281.263ZM277.195 115.216H280.099L278.647 111.748L277.195 115.216ZM285.355 118V109.756H286.843V118H285.355ZM291.616 116.632H295.852V118H290.128V109.756H291.616V116.632Z" fill="#2EC0FF"/>
<path d="M324.988 118V111.124H322.348V109.756H329.116V111.124H326.488V118H324.988ZM338.289 112.492C338.289 113.824 337.377 114.832 336.057 115.132L338.073 118H336.369L334.425 115.228H333.105V118H331.617V109.756H335.205C336.957 109.756 338.289 110.884 338.289 112.492ZM333.105 111.136V113.848H335.025C336.045 113.848 336.753 113.332 336.753 112.492C336.753 111.652 336.045 111.136 335.025 111.136H333.105ZM343.395 118V114.904L340.131 109.756H341.895L344.163 113.488L346.467 109.756H348.171L344.919 114.904V118H343.395ZM360.903 118L360.255 116.44H356.319L355.671 118H354.003L357.447 109.756H359.115L362.559 118H360.903ZM356.835 115.216H359.739L358.287 111.748L356.835 115.216ZM368.559 114.688V113.464H372.087V116.8C371.283 117.628 370.011 118.144 368.799 118.144C366.447 118.144 364.455 116.188 364.455 113.872C364.455 111.556 366.447 109.612 368.799 109.612C370.011 109.612 371.283 110.116 372.087 110.944L371.019 111.94C370.503 111.34 369.603 110.98 368.799 110.98C367.275 110.98 365.979 112.3 365.979 113.872C365.979 115.456 367.275 116.776 368.799 116.776C369.423 116.776 370.107 116.56 370.623 116.188V114.688H368.559ZM381.079 118L380.431 116.44H376.495L375.847 118H374.179L377.623 109.756H379.291L382.735 118H381.079ZM377.011 115.216H379.915L378.463 111.748L377.011 115.216ZM385.171 118V109.756H386.659V118H385.171ZM389.945 118V109.756H391.433L395.789 115.552V109.756H397.277V118H395.789L391.433 112.204V118H389.945Z" fill="#2EC0FF"/>
<path d="M56.438 31.154C54.856 31.154 53.61 30.58 52.644 29.628L53.33 28.774C54.142 29.586 55.136 30.16 56.48 30.16C57.964 30.16 58.72 29.348 58.72 28.48C58.72 27.458 57.81 27.052 56.13 26.66C54.198 26.212 52.98 25.61 52.98 23.944C52.98 22.404 54.352 21.214 56.2 21.214C57.628 21.214 58.692 21.774 59.574 22.586L58.902 23.44C58.104 22.67 57.152 22.208 56.144 22.208C54.954 22.208 54.086 22.978 54.086 23.86C54.086 24.854 55.038 25.204 56.676 25.596C58.51 26.03 59.826 26.688 59.826 28.382C59.826 29.908 58.678 31.154 56.438 31.154ZM64.7983 31.168C62.7403 31.168 61.0603 29.46 61.0603 27.374C61.0603 25.288 62.7403 23.594 64.7983 23.594C66.8423 23.594 68.5223 25.288 68.5223 27.374C68.5223 29.46 66.8423 31.168 64.7983 31.168ZM64.7983 30.23C66.2403 30.23 67.4303 28.942 67.4303 27.374C67.4303 25.806 66.2403 24.532 64.7983 24.532C63.3423 24.532 62.1523 25.806 62.1523 27.374C62.1523 28.942 63.3423 30.23 64.7983 30.23ZM71.2809 25.176C71.7149 24.21 72.7509 23.594 74.0809 23.594V24.532C72.4429 24.532 71.2809 25.54 71.2809 26.954V31L70.2309 31V23.762H71.2809V25.176ZM76.7317 25.176C77.1657 24.21 78.2017 23.594 79.5317 23.594V24.532C77.8937 24.532 76.7317 25.54 76.7317 26.954V31H75.6817V23.762H76.7317V25.176ZM81.7625 33.52C81.3425 33.52 80.9505 33.436 80.6145 33.282L80.8665 32.386C81.1185 32.512 81.4125 32.568 81.7205 32.568C82.1825 32.568 82.4905 32.414 82.7705 31.924L83.1905 31.028L80.0405 23.762H81.2025L83.7365 29.782L86.1305 23.762H87.2645L83.9605 31.812C83.4565 33.044 82.7565 33.506 81.7625 33.52ZM89.2803 32.862L88.7623 32.47C89.1403 32.036 89.3783 31.602 89.4903 31.168C89.0703 31.168 88.7343 30.818 88.7343 30.398C88.7343 30.006 89.0563 29.656 89.5043 29.656C90.0363 29.656 90.3583 30.132 90.3583 30.776C90.3583 31.336 90.1203 31.812 89.2803 32.862ZM96.9041 31V21.382H97.9961L101.566 28.088L105.136 21.382H106.228V31H105.136V23.734L101.566 30.44L97.9961 23.734V31H96.9041ZM109.499 33.52C109.079 33.52 108.687 33.436 108.351 33.282L108.603 32.386C108.855 32.512 109.149 32.568 109.457 32.568C109.919 32.568 110.227 32.414 110.507 31.924L110.927 31.028L107.777 23.762H108.939L111.473 29.782L113.867 23.762H115.001L111.697 31.812C111.193 33.044 110.493 33.506 109.499 33.52ZM116.261 27.71V26.688L119.887 26.688V27.71H116.261ZM125.424 31.154C123.842 31.154 122.596 30.58 121.63 29.628L122.316 28.774C123.128 29.586 124.122 30.16 125.466 30.16C126.95 30.16 127.706 29.348 127.706 28.48C127.706 27.458 126.796 27.052 125.116 26.66C123.184 26.212 121.966 25.61 121.966 23.944C121.966 22.404 123.338 21.214 125.186 21.214C126.614 21.214 127.678 21.774 128.56 22.586L127.888 23.44C127.09 22.67 126.138 22.208 125.13 22.208C123.94 22.208 123.072 22.978 123.072 23.86C123.072 24.854 124.024 25.204 125.662 25.596C127.496 26.03 128.812 26.688 128.812 28.382C128.812 29.908 127.664 31.154 125.424 31.154ZM130.985 31V21.382L134.233 21.382C137.285 21.382 139.441 23.37 139.441 26.184C139.441 28.998 137.285 31 134.233 31H130.985ZM132.077 30.006H134.233C136.641 30.006 138.335 28.424 138.335 26.184C138.335 23.958 136.641 22.376 134.233 22.376H132.077V30.006ZM141.644 31V21.382H144.892C147.944 21.382 150.1 23.37 150.1 26.184C150.1 28.998 147.944 31 144.892 31H141.644ZM142.736 30.006H144.892C147.3 30.006 148.994 28.424 148.994 26.184C148.994 23.958 147.3 22.376 144.892 22.376H142.736V30.006ZM156.49 31.168C153.83 31.168 151.562 28.886 151.562 26.184C151.562 23.482 153.83 21.214 156.49 21.214C157.82 21.214 159.052 21.774 159.948 22.684L159.206 23.44C158.506 22.698 157.54 22.222 156.49 22.222C154.418 22.222 152.668 24.042 152.668 26.184C152.668 28.34 154.418 30.16 156.49 30.16C157.54 30.16 158.506 29.684 159.206 28.942L159.948 29.698C159.052 30.594 157.82 31.168 156.49 31.168ZM168.453 31.168C166.423 31.168 164.701 29.432 164.701 27.374C164.701 25.316 166.423 23.594 168.453 23.594C169.433 23.594 170.343 24 171.029 24.658L170.301 25.372C169.825 24.854 169.167 24.532 168.453 24.532C167.011 24.532 165.807 25.834 165.807 27.374C165.807 28.928 167.011 30.23 168.453 30.23C169.181 30.23 169.853 29.894 170.343 29.348L171.071 30.062C170.385 30.748 169.461 31.168 168.453 31.168ZM175.613 31.168C173.555 31.168 171.875 29.46 171.875 27.374C171.875 25.288 173.555 23.594 175.613 23.594C177.657 23.594 179.337 25.288 179.337 27.374C179.337 29.46 177.657 31.168 175.613 31.168ZM175.613 30.23C177.055 30.23 178.245 28.942 178.245 27.374C178.245 25.806 177.055 24.532 175.613 24.532C174.157 24.532 172.967 25.806 172.967 27.374C172.967 28.942 174.157 30.23 175.613 30.23ZM185.973 23.762H187.023V31L185.973 31V29.852C185.553 30.622 184.629 31.168 183.593 31.168C181.983 31.168 180.877 30.034 180.877 28.368V23.762H181.927V28.228C181.927 29.418 182.669 30.23 183.733 30.23C184.965 30.23 185.973 29.39 185.973 28.368V23.762ZM189.354 31V21.214L190.404 21.214V31H189.354ZM198.144 21.214H199.194V31H198.144V29.642C197.598 30.594 196.674 31.168 195.512 31.168C193.608 31.168 192.18 29.6 192.18 27.374C192.18 25.162 193.608 23.594 195.512 23.594C196.674 23.594 197.598 24.168 198.144 25.12V21.214ZM195.708 30.23C197.136 30.23 198.144 29.04 198.144 27.374C198.144 25.708 197.136 24.532 195.708 24.532C194.294 24.532 193.286 25.708 193.286 27.374C193.286 29.04 194.294 30.23 195.708 30.23ZM208.712 23.594C210.322 23.594 211.428 24.728 211.428 26.394V31H210.378V26.534C210.378 25.344 209.636 24.532 208.572 24.532C207.34 24.532 206.332 25.372 206.332 26.394V31H205.282V23.762H206.332V24.91C206.752 24.14 207.676 23.594 208.712 23.594ZM216.698 31.168C214.64 31.168 212.96 29.46 212.96 27.374C212.96 25.288 214.64 23.594 216.698 23.594C218.742 23.594 220.422 25.288 220.422 27.374C220.422 29.46 218.742 31.168 216.698 31.168ZM216.698 30.23C218.14 30.23 219.33 28.942 219.33 27.374C219.33 25.806 218.14 24.532 216.698 24.532C215.242 24.532 214.052 25.806 214.052 27.374C214.052 28.942 215.242 30.23 216.698 30.23ZM224.931 29.936L225.449 30.706C225.071 31 224.595 31.168 224.105 31.168C223.069 31.168 222.341 30.398 222.341 29.32V24.7H221.207V23.762H222.341V21.774H223.391V23.762H225.169V24.7H223.391V29.32C223.391 29.852 223.755 30.23 224.175 30.23C224.497 30.23 224.777 30.104 224.931 29.936ZM234.295 23.594C236.199 23.594 237.627 25.162 237.627 27.374C237.627 29.6 236.199 31.168 234.295 31.168C233.133 31.168 232.209 30.594 231.663 29.642V31H230.613V21.214H231.663V25.12C232.209 24.168 233.133 23.594 234.295 23.594ZM234.099 30.23C235.513 30.23 236.521 29.04 236.521 27.374C236.521 25.708 235.513 24.532 234.099 24.532C232.671 24.532 231.663 25.708 231.663 27.374C231.663 29.04 232.671 30.23 234.099 30.23ZM242.451 30.23C243.305 30.23 244.285 29.852 244.733 29.362L245.377 30.048C244.747 30.734 243.473 31.168 242.465 31.168C240.533 31.168 238.797 29.586 238.797 27.36C238.797 25.204 240.421 23.594 242.367 23.594C244.551 23.594 245.797 25.246 245.797 27.78L239.875 27.78C240.029 29.194 241.023 30.23 242.451 30.23ZM242.409 24.532C241.121 24.532 240.085 25.442 239.889 26.842H244.761C244.621 25.54 243.851 24.532 242.409 24.532ZM254.325 31.168C252.295 31.168 250.573 29.432 250.573 27.374C250.573 25.316 252.295 23.594 254.325 23.594C255.305 23.594 256.215 24 256.901 24.658L256.173 25.372C255.697 24.854 255.039 24.532 254.325 24.532C252.883 24.532 251.679 25.834 251.679 27.374C251.679 28.928 252.883 30.23 254.325 30.23C255.053 30.23 255.725 29.894 256.215 29.348L256.943 30.062C256.257 30.748 255.333 31.168 254.325 31.168ZM259.427 25.176C259.861 24.21 260.897 23.594 262.227 23.594V24.532C260.589 24.532 259.427 25.54 259.427 26.954V31H258.377V23.762H259.427V25.176ZM266.879 30.23C267.733 30.23 268.713 29.852 269.161 29.362L269.805 30.048C269.175 30.734 267.901 31.168 266.893 31.168C264.961 31.168 263.225 29.586 263.225 27.36C263.225 25.204 264.849 23.594 266.795 23.594C268.979 23.594 270.225 25.246 270.225 27.78L264.303 27.78C264.457 29.194 265.451 30.23 266.879 30.23ZM266.837 24.532C265.549 24.532 264.513 25.442 264.317 26.842L269.189 26.842C269.049 25.54 268.279 24.532 266.837 24.532ZM274.479 23.594C276.453 23.594 277.419 24.84 277.419 26.59V31H276.369V29.866C275.851 30.72 274.773 31.168 273.821 31.168C272.295 31.168 271.175 30.286 271.175 28.858C271.175 27.416 272.463 26.45 274.017 26.45C274.801 26.45 275.627 26.618 276.369 26.856V26.59C276.369 25.61 275.977 24.49 274.409 24.49C273.681 24.49 272.953 24.812 272.295 25.148L271.875 24.294C272.911 23.776 273.779 23.594 274.479 23.594ZM274.003 30.244C274.955 30.244 276.089 29.754 276.369 28.732V27.626C275.711 27.444 274.969 27.332 274.185 27.332C273.107 27.332 272.197 27.948 272.197 28.816C272.197 29.712 272.981 30.244 274.003 30.244ZM282.382 29.936L282.9 30.706C282.522 31 282.046 31.168 281.556 31.168C280.52 31.168 279.792 30.398 279.792 29.32V24.7H278.658V23.762H279.792V21.774H280.842V23.762H282.62V24.7H280.842V29.32C280.842 29.852 281.206 30.23 281.626 30.23C281.948 30.23 282.228 30.104 282.382 29.936ZM287.361 30.23C288.215 30.23 289.195 29.852 289.643 29.362L290.287 30.048C289.657 30.734 288.383 31.168 287.375 31.168C285.443 31.168 283.707 29.586 283.707 27.36C283.707 25.204 285.331 23.594 287.277 23.594C289.461 23.594 290.707 25.246 290.707 27.78H284.785C284.939 29.194 285.933 30.23 287.361 30.23ZM287.319 24.532C286.031 24.532 284.995 25.442 284.799 26.842H289.671C289.531 25.54 288.761 24.532 287.319 24.532ZM297.775 21.214H298.825V31H297.775V29.642C297.229 30.594 296.305 31.168 295.143 31.168C293.239 31.168 291.811 29.6 291.811 27.374C291.811 25.162 293.239 23.594 295.143 23.594C296.305 23.594 297.229 24.168 297.775 25.12V21.214ZM295.339 30.23C296.767 30.23 297.775 29.04 297.775 27.374C297.775 25.708 296.767 24.532 295.339 24.532C293.925 24.532 292.917 25.708 292.917 27.374C292.917 29.04 293.925 30.23 295.339 30.23Z" fill="white"/>
<path d="M404.627 27L408.311 23.3155C408.462 23.1392 408.452 22.8763 408.288 22.7122C408.124 22.548 407.861 22.5379 407.685 22.6889L404 26.3733L400.316 22.6844C400.141 22.5101 399.859 22.5101 399.685 22.6844C399.51 22.8587 399.51 23.1413 399.685 23.3155L403.374 27L399.685 30.6844C399.558 30.793 399.503 30.9636 399.542 31.1259C399.581 31.2883 399.707 31.4151 399.87 31.4541C400.032 31.4932 400.203 31.4379 400.311 31.3111L404 27.6266L407.685 31.3111C407.861 31.4621 408.124 31.4519 408.288 31.2878C408.452 31.1236 408.462 30.8608 408.311 30.6844L404.627 27Z" fill="#F1F6F8"/>
<defs>
<filter id="filter0_d_10477_4746" x="0" y="0" width="432" height="147" filterUnits="userSpaceOnUse" color-interpolation-filters="sRGB">
<feFlood flood-opacity="0" result="BackgroundImageFix"/>
<feColorMatrix in="SourceAlpha" type="matrix" values="0 0 0 0 0 0 0 0 0 0 0 0 0 0 0 0 0 0 127 0" result="hardAlpha"/>
<feOffset dy="4"/>
<feGaussianBlur stdDeviation="2"/>
<feComposite in2="hardAlpha" operator="out"/>
<feColorMatrix type="matrix" values="0 0 0 0 0.105 0 0 0 0 0.168 0 0 0 0 0.195 0 0 0 0.25 0"/>
<feBlend mode="normal" in2="BackgroundImageFix" result="effect1_dropShadow_10477_4746"/>
<feBlend mode="normal" in="SourceGraphic" in2="effect1_dropShadow_10477_4746" result="shape"/>
</filter>
</defs>
</svg>
