<svg width="432" height="44" viewBox="0 0 432 44" fill="none" xmlns="http://www.w3.org/2000/svg">
<g filter="url(#filter0_d_10442_5819)">
<rect x="4" width="424" height="36" rx="4" fill="#22343C"/>
<rect x="4.5" y="0.5" width="423" height="35" rx="3.5" stroke="#67777E"/>
</g>
<path d="M26.158 21.5013C24.674 21.5013 23.554 20.8713 22.77 19.9753L23.484 19.1773C24.226 19.9893 25.136 20.5213 26.2 20.5213C27.53 20.5213 28.468 19.5973 28.468 18.3793C28.468 17.1473 27.516 16.3073 26.172 16.3073C25.346 16.3073 24.632 16.6013 24.03 17.0493L23.232 16.6573L23.372 11.7153L29.056 11.7153V12.7513L24.436 12.7513L24.338 15.9853C24.856 15.6353 25.514 15.3413 26.396 15.3413C28.132 15.3413 29.574 16.4333 29.574 18.3373C29.574 20.2413 28.132 21.5013 26.158 21.5013ZM37.9723 20.2693L38.4903 21.0393C38.1123 21.3333 37.6363 21.5013 37.1463 21.5013C36.1103 21.5013 35.3823 20.7313 35.3823 19.6533V15.0333H34.2483V14.0953H35.3823V12.1073H36.4323V14.0953H38.2103V15.0333H36.4323V19.6533C36.4323 20.1853 36.7963 20.5633 37.2163 20.5633C37.5383 20.5633 37.8183 20.4373 37.9723 20.2693ZM42.4885 13.9273C44.4625 13.9273 45.4285 15.1733 45.4285 16.9233V21.3333H44.3785V20.1993C43.8605 21.0533 42.7825 21.5013 41.8305 21.5013C40.3045 21.5013 39.1845 20.6193 39.1845 19.1913C39.1845 17.7493 40.4725 16.7833 42.0265 16.7833C42.8105 16.7833 43.6365 16.9513 44.3785 17.1893V16.9233C44.3785 15.9433 43.9865 14.8233 42.4185 14.8233C41.6905 14.8233 40.9625 15.1453 40.3045 15.4813L39.8845 14.6273C40.9205 14.1093 41.7885 13.9273 42.4885 13.9273ZM42.0125 20.5773C42.9645 20.5773 44.0985 20.0873 44.3785 19.0653V17.9593C43.7205 17.7773 42.9785 17.6653 42.1945 17.6653C41.1165 17.6653 40.2065 18.2813 40.2065 19.1493C40.2065 20.0453 40.9905 20.5773 42.0125 20.5773ZM49.8314 21.5013C48.8234 21.5013 47.7034 21.1233 46.8354 20.4233L47.3814 19.6533C48.2074 20.2553 49.0334 20.5633 49.8314 20.5633C50.7834 20.5633 51.4274 20.1153 51.4274 19.4293C51.4274 18.6453 50.5874 18.3933 49.6074 18.1133C47.8574 17.6093 47.1854 17.0913 47.1854 16.0553C47.1854 14.7393 48.2774 13.9273 49.7194 13.9273C50.6154 13.9273 51.5394 14.2353 52.3094 14.7393L51.8054 15.5513C51.0774 15.0893 50.3634 14.8653 49.7194 14.8653C48.9074 14.8653 48.2354 15.2293 48.2354 15.9293C48.2354 16.5593 48.7674 16.7553 50.1114 17.1893C51.2734 17.5533 52.4774 17.9453 52.4774 19.3173C52.4774 20.6473 51.3294 21.5013 49.8314 21.5013ZM54.177 21.3333V11.5473H55.227V18.0993L59.189 14.0953L60.533 14.0953L57.271 17.4133L60.351 21.3333H59.035L56.529 18.1273L55.227 19.4153V21.3333H54.177ZM64.0006 21.5013C62.9926 21.5013 61.8726 21.1233 61.0046 20.4233L61.5506 19.6533C62.3766 20.2553 63.2026 20.5633 64.0006 20.5633C64.9526 20.5633 65.5966 20.1153 65.5966 19.4293C65.5966 18.6453 64.7566 18.3933 63.7766 18.1133C62.0266 17.6093 61.3546 17.0913 61.3546 16.0553C61.3546 14.7393 62.4466 13.9273 63.8886 13.9273C64.7846 13.9273 65.7086 14.2353 66.4786 14.7393L65.9746 15.5513C65.2466 15.0893 64.5326 14.8653 63.8886 14.8653C63.0766 14.8653 62.4046 15.2293 62.4046 15.9293C62.4046 16.5593 62.9366 16.7553 64.2806 17.1893C65.4426 17.5533 66.6466 17.9453 66.6466 19.3173C66.6466 20.6473 65.4986 21.5013 64.0006 21.5013ZM72.6336 12.7793C72.2416 12.7793 71.9336 12.4573 71.9336 12.0793C71.9336 11.7153 72.2416 11.3933 72.6336 11.3933C73.0116 11.3933 73.3196 11.7153 73.3196 12.0793C73.3196 12.4573 73.0116 12.7793 72.6336 12.7793ZM72.1016 21.3333V14.0953H73.1516V21.3333H72.1016ZM78.9179 13.9273C80.5279 13.9273 81.6339 15.0613 81.6339 16.7273V21.3333H80.5839V16.8673C80.5839 15.6773 79.8419 14.8653 78.7779 14.8653C77.5459 14.8653 76.5379 15.7053 76.5379 16.7273V21.3333H75.4879V14.0953H76.5379V15.2433C76.9579 14.4733 77.8819 13.9273 78.9179 13.9273ZM91.2336 13.9273C93.1376 13.9273 94.5656 15.4953 94.5656 17.7073C94.5656 19.9333 93.1376 21.5013 91.2336 21.5013C90.0716 21.5013 89.1476 20.9273 88.6016 19.9753V23.7413H87.5516V14.0953H88.6016V15.4533C89.1476 14.5013 90.0716 13.9273 91.2336 13.9273ZM91.0376 20.5633C92.4516 20.5633 93.4596 19.3733 93.4596 17.7073C93.4596 16.0413 92.4516 14.8653 91.0376 14.8653C89.6096 14.8653 88.6016 16.0413 88.6016 17.7073C88.6016 19.3733 89.6096 20.5633 91.0376 20.5633ZM97.3883 15.5093C97.8223 14.5433 98.8583 13.9273 100.188 13.9273V14.8653C98.5503 14.8653 97.3883 15.8733 97.3883 17.2873V21.3333H96.3383V14.0953H97.3883V15.5093ZM104.897 21.5013C102.839 21.5013 101.159 19.7933 101.159 17.7073C101.159 15.6213 102.839 13.9273 104.897 13.9273C106.941 13.9273 108.621 15.6213 108.621 17.7073C108.621 19.7933 106.941 21.5013 104.897 21.5013ZM104.897 20.5633C106.339 20.5633 107.529 19.2753 107.529 17.7073C107.529 16.1393 106.339 14.8653 104.897 14.8653C103.441 14.8653 102.251 16.1393 102.251 17.7073C102.251 19.2753 103.441 20.5633 104.897 20.5633ZM115.664 14.0953H116.714V20.5633C116.714 22.4253 115.244 23.7413 113.158 23.7413C111.982 23.7413 110.89 23.3353 110.232 22.7753L110.694 21.9493C111.254 22.4813 112.122 22.8033 113.018 22.8033C114.684 22.8033 115.664 21.9773 115.664 20.5633V19.3873C115.104 20.2693 114.18 20.8013 113.032 20.8013C111.086 20.8013 109.7 19.3733 109.7 17.3573C109.7 15.3413 111.086 13.9273 113.032 13.9273C114.18 13.9273 115.104 14.4593 115.664 15.3413V14.0953ZM113.228 19.8633C114.656 19.8633 115.664 18.8273 115.664 17.3573C115.664 15.9013 114.656 14.8653 113.228 14.8653C111.814 14.8653 110.806 15.9013 110.806 17.3573C110.806 18.8273 111.814 19.8633 113.228 19.8633ZM120.098 15.5093C120.532 14.5433 121.568 13.9273 122.898 13.9273V14.8653C121.26 14.8653 120.098 15.8733 120.098 17.2873V21.3333H119.048V14.0953H120.098V15.5093ZM127.551 20.5633C128.405 20.5633 129.385 20.1853 129.833 19.6953L130.477 20.3813C129.847 21.0673 128.573 21.5013 127.565 21.5013C125.633 21.5013 123.897 19.9193 123.897 17.6933C123.897 15.5373 125.521 13.9273 127.467 13.9273C129.651 13.9273 130.897 15.5793 130.897 18.1133L124.975 18.1133C125.129 19.5273 126.123 20.5633 127.551 20.5633ZM127.509 14.8653C126.221 14.8653 125.185 15.7753 124.989 17.1753L129.861 17.1753C129.721 15.8733 128.951 14.8653 127.509 14.8653ZM134.801 21.5013C133.793 21.5013 132.673 21.1233 131.805 20.4233L132.351 19.6533C133.177 20.2553 134.003 20.5633 134.801 20.5633C135.753 20.5633 136.397 20.1153 136.397 19.4293C136.397 18.6453 135.557 18.3933 134.577 18.1133C132.827 17.6093 132.155 17.0913 132.155 16.0553C132.155 14.7393 133.247 13.9273 134.689 13.9273C135.585 13.9273 136.509 14.2353 137.279 14.7393L136.775 15.5513C136.047 15.0893 135.333 14.8653 134.689 14.8653C133.877 14.8653 133.205 15.2293 133.205 15.9293C133.205 16.5593 133.737 16.7553 135.081 17.1893C136.243 17.5533 137.447 17.9453 137.447 19.3173C137.447 20.6473 136.299 21.5013 134.801 21.5013ZM141.387 21.5013C140.379 21.5013 139.259 21.1233 138.391 20.4233L138.937 19.6533C139.763 20.2553 140.589 20.5633 141.387 20.5633C142.339 20.5633 142.983 20.1153 142.983 19.4293C142.983 18.6453 142.143 18.3933 141.163 18.1133C139.413 17.6093 138.741 17.0913 138.741 16.0553C138.741 14.7393 139.833 13.9273 141.275 13.9273C142.171 13.9273 143.095 14.2353 143.865 14.7393L143.361 15.5513C142.633 15.0893 141.919 14.8653 141.275 14.8653C140.463 14.8653 139.791 15.2293 139.791 15.9293C139.791 16.5593 140.323 16.7553 141.667 17.1893C142.829 17.5533 144.033 17.9453 144.033 19.3173C144.033 20.6473 142.885 21.5013 141.387 21.5013ZM146.796 21.5013C146.362 21.5013 146.026 21.1513 146.026 20.7313C146.026 20.3393 146.362 19.9893 146.796 19.9893C147.202 19.9893 147.538 20.3393 147.538 20.7313C147.538 21.1513 147.202 21.5013 146.796 21.5013ZM151.235 21.5013C150.801 21.5013 150.465 21.1513 150.465 20.7313C150.465 20.3393 150.801 19.9893 151.235 19.9893C151.641 19.9893 151.977 20.3393 151.977 20.7313C151.977 21.1513 151.641 21.5013 151.235 21.5013Z" fill="white"/>
<path d="M410.12 18.6725L405 15.1406L399.88 18.6725C399.59 18.8729 399.599 19.192 399.9 19.3851C400.201 19.5782 400.679 19.5722 400.969 19.3717L405 16.5895L409.036 19.3717C409.325 19.5722 409.804 19.5782 410.104 19.3851C410.405 19.192 410.414 18.8729 410.124 18.6725H410.12Z" fill="#F1F6F8"/>
<defs>
<filter id="filter0_d_10442_5819" x="0" y="0" width="432" height="44" filterUnits="userSpaceOnUse" color-interpolation-filters="sRGB">
<feFlood flood-opacity="0" result="BackgroundImageFix"/>
<feColorMatrix in="SourceAlpha" type="matrix" values="0 0 0 0 0 0 0 0 0 0 0 0 0 0 0 0 0 0 127 0" result="hardAlpha"/>
<feOffset dy="4"/>
<feGaussianBlur stdDeviation="2"/>
<feComposite in2="hardAlpha" operator="out"/>
<feColorMatrix type="matrix" values="0 0 0 0 0.105 0 0 0 0 0.168 0 0 0 0 0.195 0 0 0 0.25 0"/>
<feBlend mode="normal" in2="BackgroundImageFix" result="effect1_dropShadow_10442_5819"/>
<feBlend mode="normal" in="SourceGraphic" in2="effect1_dropShadow_10442_5819" result="shape"/>
</filter>
</defs>
</svg>
