<svg width="726" height="108" viewBox="0 0 726 108" fill="none" xmlns="http://www.w3.org/2000/svg">
<path d="M73.2008 63.5H1.17417C0.905388 63.5 0.6875 64.3954 0.6875 65.5C0.6875 66.6046 0.905388 67.5 1.17417 67.5H73.2008C73.4696 67.5 73.6875 66.6046 73.6875 65.5C73.6875 64.3954 73.4696 63.5 73.2008 63.5Z" fill="#CBD4D8"/>
<path d="M73.2008 75.5H1.17417C0.905388 75.5 0.6875 76.3954 0.6875 77.5C0.6875 78.6046 0.905388 79.5 1.17417 79.5H73.2008C73.4696 79.5 73.6875 78.6046 73.6875 77.5C73.6875 76.3954 73.4696 75.5 73.2008 75.5Z" fill="#CBD4D8"/>
<path d="M73.2008 87.5H1.17417C0.905388 87.5 0.6875 88.3954 0.6875 89.5C0.6875 90.6046 0.905388 91.5 1.17417 91.5H73.2008C73.4696 91.5 73.6875 90.6046 73.6875 89.5C73.6875 88.3954 73.4696 87.5 73.2008 87.5Z" fill="#CBD4D8"/>
<path d="M73.2008 99.5H1.17417C0.905388 99.5 0.6875 100.395 0.6875 101.5C0.6875 102.605 0.905388 103.5 1.17417 103.5H73.2008C73.4696 103.5 73.6875 102.605 73.6875 101.5C73.6875 100.395 73.4696 99.5 73.2008 99.5Z" fill="#CBD4D8"/>
<circle cx="85.6875" cy="63.5" r="5" fill="#859399"/>
<mask id="path-6-inside-1_9030_7344" fill="white">
<path fill-rule="evenodd" clip-rule="evenodd" d="M143.687 51.5C144.792 51.5 145.687 52.3954 145.687 53.5V79.3361C145.687 80.4406 144.792 81.3361 143.687 81.3361H105.064C103.96 81.3361 103.064 80.4406 103.064 79.3361V69.9942L92.6875 62.5822H103.064V53.5C103.064 52.3954 103.96 51.5 105.064 51.5H143.687Z"/>
</mask>
<path fill-rule="evenodd" clip-rule="evenodd" d="M143.687 51.5C144.792 51.5 145.687 52.3954 145.687 53.5V79.3361C145.687 80.4406 144.792 81.3361 143.687 81.3361H105.064C103.96 81.3361 103.064 80.4406 103.064 79.3361V69.9942L92.6875 62.5822H103.064V53.5C103.064 52.3954 103.96 51.5 105.064 51.5H143.687Z" fill="#22343C"/>
<path d="M103.064 69.9942L103.646 69.1805L104.064 69.4796V69.9942H103.064ZM92.6875 62.5822L92.1063 63.3959L89.567 61.5822H92.6875V62.5822ZM103.064 62.5822H104.064V63.5822H103.064V62.5822ZM144.687 53.5C144.687 52.9477 144.24 52.5 143.687 52.5V50.5C145.344 50.5 146.687 51.8431 146.687 53.5H144.687ZM144.687 79.3361V53.5H146.687V79.3361H144.687ZM143.687 80.3361C144.24 80.3361 144.687 79.8883 144.687 79.3361H146.687C146.687 80.9929 145.344 82.3361 143.687 82.3361V80.3361ZM105.064 80.3361H143.687V82.3361H105.064V80.3361ZM104.064 79.3361C104.064 79.8883 104.512 80.3361 105.064 80.3361V82.3361C103.407 82.3361 102.064 80.9929 102.064 79.3361H104.064ZM104.064 69.9942V79.3361H102.064V69.9942H104.064ZM102.483 70.8079L92.1063 63.3959L93.2687 61.7685L103.646 69.1805L102.483 70.8079ZM92.6875 61.5822H103.064V63.5822H92.6875V61.5822ZM104.064 53.5V62.5822H102.064V53.5H104.064ZM105.064 52.5C104.512 52.5 104.064 52.9477 104.064 53.5H102.064C102.064 51.8431 103.407 50.5 105.064 50.5V52.5ZM143.687 52.5H105.064V50.5H143.687V52.5Z" fill="#ACB8BE" mask="url(#path-6-inside-1_9030_7344)"/>
<mask id="path-8-inside-2_9030_7344" fill="white">
<path fill-rule="evenodd" clip-rule="evenodd" d="M26.6877 51.5C25.5832 51.5 24.6877 52.3954 24.6877 53.5V79.3361C24.6877 80.4406 25.5832 81.3361 26.6877 81.3361H65.3107C66.4153 81.3361 67.3107 80.4406 67.3107 79.3361V69.9942L77.6875 62.5822H67.3107V53.5C67.3107 52.3954 66.4153 51.5 65.3107 51.5H26.6877Z"/>
</mask>
<path fill-rule="evenodd" clip-rule="evenodd" d="M26.6877 51.5C25.5832 51.5 24.6877 52.3954 24.6877 53.5V79.3361C24.6877 80.4406 25.5832 81.3361 26.6877 81.3361H65.3107C66.4153 81.3361 67.3107 80.4406 67.3107 79.3361V69.9942L77.6875 62.5822H67.3107V53.5C67.3107 52.3954 66.4153 51.5 65.3107 51.5H26.6877Z" fill="#22343C"/>
<path d="M67.3107 69.9942L66.7295 69.1805L66.3107 69.4796V69.9942H67.3107ZM77.6875 62.5822L78.2687 63.3959L80.808 61.5822H77.6875V62.5822ZM67.3107 62.5822H66.3107V63.5822H67.3107V62.5822ZM25.6877 53.5C25.6877 52.9477 26.1355 52.5 26.6877 52.5V50.5C25.0309 50.5 23.6877 51.8431 23.6877 53.5H25.6877ZM25.6877 79.3361V53.5H23.6877V79.3361H25.6877ZM26.6877 80.3361C26.1355 80.3361 25.6877 79.8883 25.6877 79.3361H23.6877C23.6877 80.9929 25.0309 82.3361 26.6877 82.3361V80.3361ZM65.3107 80.3361H26.6877V82.3361H65.3107V80.3361ZM66.3107 79.3361C66.3107 79.8883 65.863 80.3361 65.3107 80.3361V82.3361C66.9675 82.3361 68.3107 80.9929 68.3107 79.3361H66.3107ZM66.3107 69.9942V79.3361H68.3107V69.9942H66.3107ZM67.8919 70.8079L78.2687 63.3959L77.1063 61.7685L66.7295 69.1805L67.8919 70.8079ZM77.6875 61.5822H67.3107V63.5822H77.6875V61.5822ZM66.3107 53.5V62.5822H68.3107V53.5H66.3107ZM65.3107 52.5C65.863 52.5 66.3107 52.9477 66.3107 53.5H68.3107C68.3107 51.8431 66.9675 50.5 65.3107 50.5V52.5ZM26.6877 52.5H65.3107V50.5H26.6877V52.5Z" fill="#ACB8BE" mask="url(#path-8-inside-2_9030_7344)"/>
<path d="M86.699 11V3.443H89.251C91.649 3.443 93.343 5.005 93.343 7.216C93.343 9.427 91.649 11 89.251 11H86.699ZM87.557 10.219H89.251C91.143 10.219 92.474 8.976 92.474 7.216C92.474 5.467 91.143 4.224 89.251 4.224H87.557V10.219ZM97.5091 10.395C98.1801 10.395 98.9501 10.098 99.3021 9.713L99.8081 10.252C99.3131 10.791 98.3121 11.132 97.5201 11.132C96.0021 11.132 94.6381 9.889 94.6381 8.14C94.6381 6.446 95.9141 5.181 97.4431 5.181C99.1591 5.181 100.138 6.479 100.138 8.47H95.4851C95.6061 9.581 96.3871 10.395 97.5091 10.395ZM97.4761 5.918C96.4641 5.918 95.6501 6.633 95.4961 7.733H99.3241C99.2141 6.71 98.6091 5.918 97.4761 5.918ZM102.747 4.532V5.313H104.144V6.05H102.747V11H101.922V6.05H101.031V5.313H101.922V4.532C101.922 3.685 102.494 3.08 103.308 3.08C103.693 3.08 104.067 3.212 104.364 3.443L103.957 4.048C103.836 3.916 103.616 3.817 103.363 3.817C103.033 3.817 102.747 4.114 102.747 4.532ZM107.45 5.181C109.001 5.181 109.76 6.16 109.76 7.535V11H108.935V10.109C108.528 10.78 107.681 11.132 106.933 11.132C105.734 11.132 104.854 10.439 104.854 9.317C104.854 8.184 105.866 7.425 107.087 7.425C107.703 7.425 108.352 7.557 108.935 7.744V7.535C108.935 6.765 108.627 5.885 107.395 5.885C106.823 5.885 106.251 6.138 105.734 6.402L105.404 5.731C106.218 5.324 106.9 5.181 107.45 5.181ZM107.076 10.406C107.824 10.406 108.715 10.021 108.935 9.218V8.349C108.418 8.206 107.835 8.118 107.219 8.118C106.372 8.118 105.657 8.602 105.657 9.284C105.657 9.988 106.273 10.406 107.076 10.406ZM115.61 5.313H116.435V11H115.61V10.098C115.28 10.703 114.554 11.132 113.74 11.132C112.475 11.132 111.606 10.241 111.606 8.932V5.313H112.431V8.822C112.431 9.757 113.014 10.395 113.85 10.395C114.818 10.395 115.61 9.735 115.61 8.932V5.313ZM118.545 11V3.311H119.37V11H118.545ZM123.684 10.164L124.091 10.769C123.794 11 123.42 11.132 123.035 11.132C122.221 11.132 121.649 10.527 121.649 9.68V6.05H120.758V5.313H121.649V3.751H122.474V5.313H123.871V6.05H122.474V9.68C122.474 10.098 122.76 10.395 123.09 10.395C123.343 10.395 123.563 10.296 123.684 10.164ZM131.598 5.181C133.094 5.181 134.216 6.413 134.216 8.151C134.216 9.9 133.094 11.132 131.598 11.132C130.685 11.132 129.959 10.681 129.53 9.933V12.892H128.705V5.313H129.53V6.38C129.959 5.632 130.685 5.181 131.598 5.181ZM131.444 10.395C132.555 10.395 133.347 9.46 133.347 8.151C133.347 6.842 132.555 5.918 131.444 5.918C130.322 5.918 129.53 6.842 129.53 8.151C129.53 9.46 130.322 10.395 131.444 10.395ZM138.33 11.132C136.713 11.132 135.393 9.79 135.393 8.151C135.393 6.512 136.713 5.181 138.33 5.181C139.936 5.181 141.256 6.512 141.256 8.151C141.256 9.79 139.936 11.132 138.33 11.132ZM138.33 10.395C139.463 10.395 140.398 9.383 140.398 8.151C140.398 6.919 139.463 5.918 138.33 5.918C137.186 5.918 136.251 6.919 136.251 8.151C136.251 9.383 137.186 10.395 138.33 10.395ZM144.637 11.132C143.845 11.132 142.965 10.835 142.283 10.285L142.712 9.68C143.361 10.153 144.01 10.395 144.637 10.395C145.385 10.395 145.891 10.043 145.891 9.504C145.891 8.888 145.231 8.69 144.461 8.47C143.086 8.074 142.558 7.667 142.558 6.853C142.558 5.819 143.416 5.181 144.549 5.181C145.253 5.181 145.979 5.423 146.584 5.819L146.188 6.457C145.616 6.094 145.055 5.918 144.549 5.918C143.911 5.918 143.383 6.204 143.383 6.754C143.383 7.249 143.801 7.403 144.857 7.744C145.77 8.03 146.716 8.338 146.716 9.416C146.716 10.461 145.814 11.132 144.637 11.132ZM148.748 4.279C148.44 4.279 148.198 4.026 148.198 3.729C148.198 3.443 148.44 3.19 148.748 3.19C149.045 3.19 149.287 3.443 149.287 3.729C149.287 4.026 149.045 4.279 148.748 4.279ZM148.33 11V5.313H149.155V11H148.33ZM153.469 10.164L153.876 10.769C153.579 11 153.205 11.132 152.82 11.132C152.006 11.132 151.434 10.527 151.434 9.68V6.05H150.543V5.313H151.434V3.751H152.259V5.313H153.656V6.05H152.259V9.68C152.259 10.098 152.545 10.395 152.875 10.395C153.128 10.395 153.348 10.296 153.469 10.164ZM155.679 4.279C155.371 4.279 155.129 4.026 155.129 3.729C155.129 3.443 155.371 3.19 155.679 3.19C155.976 3.19 156.218 3.443 156.218 3.729C156.218 4.026 155.976 4.279 155.679 4.279ZM155.261 11V5.313H156.086V11H155.261ZM160.642 11.132C159.025 11.132 157.705 9.79 157.705 8.151C157.705 6.512 159.025 5.181 160.642 5.181C162.248 5.181 163.568 6.512 163.568 8.151C163.568 9.79 162.248 11.132 160.642 11.132ZM160.642 10.395C161.775 10.395 162.71 9.383 162.71 8.151C162.71 6.919 161.775 5.918 160.642 5.918C159.498 5.918 158.563 6.919 158.563 8.151C158.563 9.383 159.498 10.395 160.642 10.395ZM167.884 5.181C169.149 5.181 170.018 6.072 170.018 7.381V11H169.193V7.491C169.193 6.556 168.61 5.918 167.774 5.918C166.806 5.918 166.014 6.578 166.014 7.381V11H165.189V5.313H166.014V6.215C166.344 5.61 167.07 5.181 167.884 5.181Z" fill="#ACB8BE"/>
<line x1="125" y1="51.5" x2="125" y2="16.5" stroke="#D23292" stroke-linecap="round"/>
<path d="M293.201 62.0327H221.174C220.905 62.0327 220.688 62.9281 220.688 64.0327C220.688 65.1373 220.905 66.0327 221.174 66.0327H293.201C293.47 66.0327 293.688 65.1373 293.688 64.0327C293.688 62.9281 293.47 62.0327 293.201 62.0327Z" fill="#CBD4D8"/>
<path d="M293.201 74.0327H221.174C220.905 74.0327 220.688 74.9281 220.688 76.0327C220.688 77.1373 220.905 78.0327 221.174 78.0327H293.201C293.47 78.0327 293.688 77.1373 293.688 76.0327C293.688 74.9281 293.47 74.0327 293.201 74.0327Z" fill="#CBD4D8"/>
<path d="M293.201 86.0327H221.174C220.905 86.0327 220.688 86.9281 220.688 88.0327C220.688 89.1373 220.905 90.0327 221.174 90.0327H293.201C293.47 90.0327 293.688 89.1373 293.688 88.0327C293.688 86.9281 293.47 86.0327 293.201 86.0327Z" fill="#CBD4D8"/>
<path d="M293.201 98.0327H221.174C220.905 98.0327 220.688 98.9281 220.688 100.033C220.688 101.137 220.905 102.033 221.174 102.033H293.201C293.47 102.033 293.688 101.137 293.688 100.033C293.688 98.9281 293.47 98.0327 293.201 98.0327Z" fill="#CBD4D8"/>
<circle cx="305.688" cy="62.0327" r="5" fill="#859399"/>
<mask id="path-17-inside-3_9030_7344" fill="white">
<path fill-rule="evenodd" clip-rule="evenodd" d="M328.31 16.0327C329.415 16.0327 330.31 16.9281 330.31 18.0327V43.8688C330.31 44.9733 329.415 45.8688 328.31 45.8688H311.809L305.311 54.9671V45.8688H289.688C288.583 45.8688 287.688 44.9733 287.688 43.8688V18.0327C287.688 16.9281 288.583 16.0327 289.688 16.0327H328.31Z"/>
</mask>
<path fill-rule="evenodd" clip-rule="evenodd" d="M328.31 16.0327C329.415 16.0327 330.31 16.9281 330.31 18.0327V43.8688C330.31 44.9733 329.415 45.8688 328.31 45.8688H311.809L305.311 54.9671V45.8688H289.688C288.583 45.8688 287.688 44.9733 287.688 43.8688V18.0327C287.688 16.9281 288.583 16.0327 289.688 16.0327H328.31Z" fill="#22343C"/>
<path d="M311.809 45.8688V44.8688H311.295L310.996 45.2875L311.809 45.8688ZM305.311 54.9671H304.311V58.0876L306.124 55.5484L305.311 54.9671ZM305.311 45.8688H306.311V44.8688H305.311V45.8688ZM331.31 18.0327C331.31 16.3759 329.967 15.0327 328.31 15.0327V17.0327C328.863 17.0327 329.31 17.4804 329.31 18.0327H331.31ZM331.31 43.8688V18.0327H329.31V43.8688H331.31ZM328.31 46.8688C329.967 46.8688 331.31 45.5256 331.31 43.8688H329.31C329.31 44.4211 328.863 44.8688 328.31 44.8688V46.8688ZM311.809 46.8688H328.31V44.8688H311.809V46.8688ZM310.996 45.2875L304.497 54.3859L306.124 55.5484L312.623 46.45L310.996 45.2875ZM306.311 54.9671V45.8688H304.311V54.9671H306.311ZM289.688 46.8688H305.311V44.8688H289.688V46.8688ZM286.688 43.8688C286.688 45.5256 288.031 46.8688 289.688 46.8688V44.8688C289.135 44.8688 288.688 44.4211 288.688 43.8688H286.688ZM286.688 18.0327V43.8688H288.688V18.0327H286.688ZM289.688 15.0327C288.031 15.0327 286.688 16.3759 286.688 18.0327H288.688C288.688 17.4804 289.135 17.0327 289.688 17.0327V15.0327ZM328.31 15.0327H289.688V17.0327H328.31V15.0327Z" fill="#ACB8BE" mask="url(#path-17-inside-3_9030_7344)"/>
<mask id="path-19-inside-4_9030_7344" fill="white">
<path fill-rule="evenodd" clip-rule="evenodd" d="M328.31 107.967C329.415 107.967 330.31 107.072 330.31 105.967V80.1312C330.31 79.0267 329.415 78.1312 328.31 78.1312H311.809L305.311 69.0329V78.1312H289.688C288.583 78.1312 287.688 79.0267 287.688 80.1312V105.967C287.688 107.072 288.583 107.967 289.688 107.967H328.31Z"/>
</mask>
<path fill-rule="evenodd" clip-rule="evenodd" d="M328.31 107.967C329.415 107.967 330.31 107.072 330.31 105.967V80.1312C330.31 79.0267 329.415 78.1312 328.31 78.1312H311.809L305.311 69.0329V78.1312H289.688C288.583 78.1312 287.688 79.0267 287.688 80.1312V105.967C287.688 107.072 288.583 107.967 289.688 107.967H328.31Z" fill="#22343C"/>
<path d="M311.809 78.1312V79.1312H311.295L310.996 78.7125L311.809 78.1312ZM305.311 69.0329H304.311V65.9124L306.124 68.4516L305.311 69.0329ZM305.311 78.1312H306.311V79.1312H305.311V78.1312ZM331.31 105.967C331.31 107.624 329.967 108.967 328.31 108.967V106.967C328.863 106.967 329.31 106.52 329.31 105.967H331.31ZM331.31 80.1312V105.967H329.31V80.1312H331.31ZM328.31 77.1312C329.967 77.1312 331.31 78.4744 331.31 80.1312H329.31C329.31 79.5789 328.863 79.1312 328.31 79.1312V77.1312ZM311.809 77.1312H328.31V79.1312H311.809V77.1312ZM310.996 78.7125L304.497 69.6141L306.124 68.4516L312.623 77.55L310.996 78.7125ZM306.311 69.0329V78.1312H304.311V69.0329H306.311ZM289.688 77.1312H305.311V79.1312H289.688V77.1312ZM286.688 80.1312C286.688 78.4744 288.031 77.1312 289.688 77.1312V79.1312C289.135 79.1312 288.688 79.5789 288.688 80.1312H286.688ZM286.688 105.967V80.1312H288.688V105.967H286.688ZM289.688 108.967C288.031 108.967 286.688 107.624 286.688 105.967H288.688C288.688 106.52 289.135 106.967 289.688 106.967V108.967ZM328.31 108.967H289.688V106.967H328.31V108.967Z" fill="#ACB8BE" mask="url(#path-19-inside-4_9030_7344)"/>
<path d="M462.824 58.0001H390.797C390.528 58.0001 390.311 58.8955 390.311 60.0001C390.311 61.1046 390.528 62.0001 390.797 62.0001H462.824C463.093 62.0001 463.311 61.1046 463.311 60.0001C463.311 58.8955 463.093 58.0001 462.824 58.0001Z" fill="#CBD4D8"/>
<path d="M462.824 70.0001H390.797C390.528 70.0001 390.311 70.8955 390.311 72.0001C390.311 73.1046 390.528 74.0001 390.797 74.0001H462.824C463.093 74.0001 463.311 73.1046 463.311 72.0001C463.311 70.8955 463.093 70.0001 462.824 70.0001Z" fill="#CBD4D8"/>
<path d="M462.824 82.0001H390.797C390.528 82.0001 390.311 82.8955 390.311 84.0001C390.311 85.1046 390.528 86.0001 390.797 86.0001H462.824C463.093 86.0001 463.311 85.1046 463.311 84.0001C463.311 82.8955 463.093 82.0001 462.824 82.0001Z" fill="#CBD4D8"/>
<path d="M462.824 94.0001H390.797C390.528 94.0001 390.311 94.8955 390.311 96.0001C390.311 97.1046 390.528 98.0001 390.797 98.0001H462.824C463.093 98.0001 463.311 97.1046 463.311 96.0001C463.311 94.8955 463.093 94.0001 462.824 94.0001Z" fill="#CBD4D8"/>
<circle cx="475.311" cy="58.0001" r="5" fill="#859399"/>
<mask id="path-26-inside-5_9030_7344" fill="white">
<path fill-rule="evenodd" clip-rule="evenodd" d="M534.311 59.0001C535.416 59.0001 536.311 59.8955 536.311 61.0001V86.8361C536.311 87.9407 535.416 88.8361 534.311 88.8361H495.688C494.584 88.8361 493.688 87.9407 493.688 86.8361V66.4114L483.312 59.0001H493.688H495.247H534.311Z"/>
</mask>
<path fill-rule="evenodd" clip-rule="evenodd" d="M534.311 59.0001C535.416 59.0001 536.311 59.8955 536.311 61.0001V86.8361C536.311 87.9407 535.416 88.8361 534.311 88.8361H495.688C494.584 88.8361 493.688 87.9407 493.688 86.8361V66.4114L483.312 59.0001H493.688H495.247H534.311Z" fill="#22343C"/>
<path d="M493.688 66.4114L494.27 65.5977L494.688 65.8968V66.4114H493.688ZM483.312 59.0001L482.731 59.8138L480.192 58.0001H483.312V59.0001ZM535.311 61.0001C535.311 60.4478 534.864 60.0001 534.311 60.0001V58.0001C535.968 58.0001 537.311 59.3432 537.311 61.0001H535.311ZM535.311 86.8361V61.0001H537.311V86.8361H535.311ZM534.311 87.8361C534.864 87.8361 535.311 87.3884 535.311 86.8361H537.311C537.311 88.493 535.968 89.8361 534.311 89.8361V87.8361ZM495.688 87.8361H534.311V89.8361H495.688V87.8361ZM494.688 86.8361C494.688 87.3884 495.136 87.8361 495.688 87.8361V89.8361C494.031 89.8361 492.688 88.493 492.688 86.8361H494.688ZM494.688 66.4114V86.8361H492.688V66.4114H494.688ZM493.107 67.2252L482.731 59.8138L483.894 58.1863L494.27 65.5977L493.107 67.2252ZM483.312 58.0001H493.688V60.0001H483.312V58.0001ZM493.688 58.0001H495.247V60.0001H493.688V58.0001ZM534.311 60.0001H495.247V58.0001H534.311V60.0001Z" fill="#ACB8BE" mask="url(#path-26-inside-5_9030_7344)"/>
<mask id="path-28-inside-6_9030_7344" fill="white">
<path fill-rule="evenodd" clip-rule="evenodd" d="M534.311 55.836C535.416 55.836 536.311 54.9406 536.311 53.836V27.9999C536.311 26.8954 535.416 25.9999 534.311 25.9999H495.688C494.584 25.9999 493.688 26.8954 493.688 27.9999V48.4246L483.312 55.836H493.688H495.247H534.311Z"/>
</mask>
<path fill-rule="evenodd" clip-rule="evenodd" d="M534.311 55.836C535.416 55.836 536.311 54.9406 536.311 53.836V27.9999C536.311 26.8954 535.416 25.9999 534.311 25.9999H495.688C494.584 25.9999 493.688 26.8954 493.688 27.9999V48.4246L483.312 55.836H493.688H495.247H534.311Z" fill="#22343C"/>
<path d="M493.688 48.4246L494.27 49.2384L494.688 48.9392V48.4246H493.688ZM483.312 55.836L482.731 55.0223L480.192 56.836H483.312V55.836ZM535.311 53.836C535.311 54.3883 534.864 54.836 534.311 54.836V56.836C535.968 56.836 537.311 55.4929 537.311 53.836H535.311ZM535.311 27.9999V53.836H537.311V27.9999H535.311ZM534.311 26.9999C534.864 26.9999 535.311 27.4476 535.311 27.9999H537.311C537.311 26.3431 535.968 24.9999 534.311 24.9999V26.9999ZM495.688 26.9999H534.311V24.9999H495.688V26.9999ZM494.688 27.9999C494.688 27.4476 495.136 26.9999 495.688 26.9999V24.9999C494.031 24.9999 492.688 26.3431 492.688 27.9999H494.688ZM494.688 48.4246V27.9999H492.688V48.4246H494.688ZM493.107 47.6109L482.731 55.0223L483.894 56.6497L494.27 49.2384L493.107 47.6109ZM483.312 56.836H493.688V54.836H483.312V56.836ZM493.688 56.836H495.247V54.836H493.688V56.836ZM534.311 54.836H495.247V56.836H534.311V54.836Z" fill="#ACB8BE" mask="url(#path-28-inside-6_9030_7344)"/>
<mask id="path-30-inside-7_9030_7344" fill="white">
<path fill-rule="evenodd" clip-rule="evenodd" d="M416.31 59.0001C415.205 59.0001 414.31 59.8955 414.31 61.0001V86.8361C414.31 87.9407 415.205 88.8361 416.31 88.8361H454.933C456.037 88.8361 456.933 87.9407 456.933 86.8361V66.4114L467.309 59.0001H456.933H455.374H416.31Z"/>
</mask>
<path fill-rule="evenodd" clip-rule="evenodd" d="M416.31 59.0001C415.205 59.0001 414.31 59.8955 414.31 61.0001V86.8361C414.31 87.9407 415.205 88.8361 416.31 88.8361H454.933C456.037 88.8361 456.933 87.9407 456.933 86.8361V66.4114L467.309 59.0001H456.933H455.374H416.31Z" fill="#22343C"/>
<path d="M456.933 66.4114L456.352 65.5977L455.933 65.8968V66.4114H456.933ZM467.309 59.0001L467.89 59.8138L470.429 58.0001H467.309V59.0001ZM415.31 61.0001C415.31 60.4478 415.758 60.0001 416.31 60.0001V58.0001C414.653 58.0001 413.31 59.3432 413.31 61.0001H415.31ZM415.31 86.8361V61.0001H413.31V86.8361H415.31ZM416.31 87.8361C415.758 87.8361 415.31 87.3884 415.31 86.8361H413.31C413.31 88.493 414.653 89.8361 416.31 89.8361V87.8361ZM454.933 87.8361H416.31V89.8361H454.933V87.8361ZM455.933 86.8361C455.933 87.3884 455.485 87.8361 454.933 87.8361V89.8361C456.59 89.8361 457.933 88.493 457.933 86.8361H455.933ZM455.933 66.4114V86.8361H457.933V66.4114H455.933ZM457.514 67.2252L467.89 59.8138L466.727 58.1863L456.352 65.5977L457.514 67.2252ZM467.309 58.0001H456.933V60.0001H467.309V58.0001ZM456.933 58.0001H455.374V60.0001H456.933V58.0001ZM416.31 60.0001H455.374V58.0001H416.31V60.0001Z" fill="#ACB8BE" mask="url(#path-30-inside-7_9030_7344)"/>
<mask id="path-32-inside-8_9030_7344" fill="white">
<path fill-rule="evenodd" clip-rule="evenodd" d="M416.31 55.836C415.205 55.836 414.31 54.9406 414.31 53.836V27.9999C414.31 26.8954 415.205 25.9999 416.31 25.9999H454.933C456.037 25.9999 456.933 26.8954 456.933 27.9999V48.4246L467.309 55.836H456.933H455.374H416.31Z"/>
</mask>
<path fill-rule="evenodd" clip-rule="evenodd" d="M416.31 55.836C415.205 55.836 414.31 54.9406 414.31 53.836V27.9999C414.31 26.8954 415.205 25.9999 416.31 25.9999H454.933C456.037 25.9999 456.933 26.8954 456.933 27.9999V48.4246L467.309 55.836H456.933H455.374H416.31Z" fill="#22343C"/>
<path d="M456.933 48.4246L456.352 49.2384L455.933 48.9392V48.4246H456.933ZM467.309 55.836L467.89 55.0223L470.429 56.836H467.309V55.836ZM415.31 53.836C415.31 54.3883 415.758 54.836 416.31 54.836V56.836C414.653 56.836 413.31 55.4929 413.31 53.836H415.31ZM415.31 27.9999V53.836H413.31V27.9999H415.31ZM416.31 26.9999C415.758 26.9999 415.31 27.4476 415.31 27.9999H413.31C413.31 26.3431 414.653 24.9999 416.31 24.9999V26.9999ZM454.933 26.9999H416.31V24.9999H454.933V26.9999ZM455.933 27.9999C455.933 27.4476 455.485 26.9999 454.933 26.9999V24.9999C456.59 24.9999 457.933 26.3431 457.933 27.9999H455.933ZM455.933 48.4246V27.9999H457.933V48.4246H455.933ZM457.514 47.6109L467.89 55.0223L466.727 56.6497L456.352 49.2384L457.514 47.6109ZM467.309 56.836H456.933V54.836H467.309V56.836ZM456.933 56.836H455.374V54.836H456.933V56.836ZM416.31 54.836H455.374V56.836H416.31V54.836Z" fill="#ACB8BE" mask="url(#path-32-inside-8_9030_7344)"/>
<path d="M668.824 62.4999H596.797C596.528 62.4999 596.311 63.3953 596.311 64.4999C596.311 65.6044 596.528 66.4999 596.797 66.4999H668.824C669.093 66.4999 669.311 65.6044 669.311 64.4999C669.311 63.3953 669.093 62.4999 668.824 62.4999Z" fill="#CBD4D8"/>
<path d="M668.824 74.4999H596.797C596.528 74.4999 596.311 75.3953 596.311 76.4999C596.311 77.6044 596.528 78.4999 596.797 78.4999H668.824C669.093 78.4999 669.311 77.6044 669.311 76.4999C669.311 75.3953 669.093 74.4999 668.824 74.4999Z" fill="#CBD4D8"/>
<path d="M668.824 86.4999H596.797C596.528 86.4999 596.311 87.3953 596.311 88.4999C596.311 89.6044 596.528 90.4999 596.797 90.4999H668.824C669.093 90.4999 669.311 89.6044 669.311 88.4999C669.311 87.3953 669.093 86.4999 668.824 86.4999Z" fill="#CBD4D8"/>
<path d="M668.824 98.4999H596.797C596.528 98.4999 596.311 99.3953 596.311 100.5C596.311 101.604 596.528 102.5 596.797 102.5H668.824C669.093 102.5 669.311 101.604 669.311 100.5C669.311 99.3953 669.093 98.4999 668.824 98.4999Z" fill="#CBD4D8"/>
<circle cx="681.311" cy="62.4999" r="5" fill="#859399"/>
<mask id="path-39-inside-9_9030_7344" fill="white">
<path fill-rule="evenodd" clip-rule="evenodd" d="M680.311 48.3358V55.4342L675.24 48.3358H639.311C638.206 48.3358 637.311 47.4404 637.311 46.3358V20.4998C637.311 19.3952 638.206 18.4997 639.311 18.4997H678.311C679.415 18.4997 680.311 19.3952 680.311 20.4998V43.4998V48.3358Z"/>
</mask>
<path fill-rule="evenodd" clip-rule="evenodd" d="M680.311 48.3358V55.4342L675.24 48.3358H639.311C638.206 48.3358 637.311 47.4404 637.311 46.3358V20.4998C637.311 19.3952 638.206 18.4997 639.311 18.4997H678.311C679.415 18.4997 680.311 19.3952 680.311 20.4998V43.4998V48.3358Z" fill="#22343C"/>
<path d="M680.311 55.4342L679.497 56.0154L681.311 58.5547V55.4342H680.311ZM675.24 48.3358L676.054 47.7546L675.755 47.3358H675.24V48.3358ZM681.311 55.4342V48.3358H679.311V55.4342H681.311ZM674.427 48.9171L679.497 56.0154L681.124 54.853L676.054 47.7546L674.427 48.9171ZM639.311 49.3358H675.24V47.3358H639.311V49.3358ZM636.311 46.3358C636.311 47.9927 637.654 49.3358 639.311 49.3358V47.3358C638.758 47.3358 638.311 46.8881 638.311 46.3358H636.311ZM636.311 20.4998V46.3358H638.311V20.4998H636.311ZM639.311 17.4997C637.654 17.4997 636.311 18.8429 636.311 20.4998H638.311C638.311 19.9475 638.758 19.4997 639.311 19.4997V17.4997ZM678.311 17.4997H639.311V19.4997H678.311V17.4997ZM681.311 20.4998C681.311 18.8429 679.967 17.4997 678.311 17.4997V19.4997C678.863 19.4997 679.311 19.9475 679.311 20.4998H681.311ZM681.311 43.4998V20.4998H679.311V43.4998H681.311ZM681.311 48.3358V43.4998H679.311V48.3358H681.311Z" fill="#ACB8BE" mask="url(#path-39-inside-9_9030_7344)"/>
<mask id="path-41-inside-10_9030_7344" fill="white">
<path fill-rule="evenodd" clip-rule="evenodd" d="M680.311 75.6639V68.5656L675.24 75.6639H639.311C638.206 75.6639 637.311 76.5594 637.311 77.6639V103.5C637.311 104.605 638.206 105.5 639.311 105.5H678.311C679.415 105.5 680.311 104.605 680.311 103.5V80.5V75.6639Z"/>
</mask>
<path fill-rule="evenodd" clip-rule="evenodd" d="M680.311 75.6639V68.5656L675.24 75.6639H639.311C638.206 75.6639 637.311 76.5594 637.311 77.6639V103.5C637.311 104.605 638.206 105.5 639.311 105.5H678.311C679.415 105.5 680.311 104.605 680.311 103.5V80.5V75.6639Z" fill="#22343C"/>
<path d="M680.311 68.5656L679.497 67.9843L681.311 65.4451V68.5656H680.311ZM675.24 75.6639L676.054 76.2452L675.755 76.6639H675.24V75.6639ZM681.311 68.5656V75.6639H679.311V68.5656H681.311ZM674.427 75.0827L679.497 67.9843L681.124 69.1468L676.054 76.2452L674.427 75.0827ZM639.311 74.6639H675.24V76.6639H639.311V74.6639ZM636.311 77.6639C636.311 76.0071 637.654 74.6639 639.311 74.6639V76.6639C638.758 76.6639 638.311 77.1117 638.311 77.6639H636.311ZM636.311 103.5V77.6639H638.311V103.5H636.311ZM639.311 106.5C637.654 106.5 636.311 105.157 636.311 103.5H638.311C638.311 104.052 638.758 104.5 639.311 104.5V106.5ZM678.311 106.5H639.311V104.5H678.311V106.5ZM681.311 103.5C681.311 105.157 679.967 106.5 678.311 106.5V104.5C678.863 104.5 679.311 104.052 679.311 103.5H681.311ZM681.311 80.5V103.5H679.311V80.5H681.311ZM681.311 75.6639V80.5H679.311V75.6639H681.311Z" fill="#ACB8BE" mask="url(#path-41-inside-10_9030_7344)"/>
<mask id="path-43-inside-11_9030_7344" fill="white">
<path fill-rule="evenodd" clip-rule="evenodd" d="M682.311 48.3358V55.4342L687.381 48.3358H723.311C724.415 48.3358 725.311 47.4404 725.311 46.3358V20.4998C725.311 19.3952 724.415 18.4997 723.311 18.4997H684.311C683.206 18.4997 682.311 19.3952 682.311 20.4998V43.4998V48.3358Z"/>
</mask>
<path fill-rule="evenodd" clip-rule="evenodd" d="M682.311 48.3358V55.4342L687.381 48.3358H723.311C724.415 48.3358 725.311 47.4404 725.311 46.3358V20.4998C725.311 19.3952 724.415 18.4997 723.311 18.4997H684.311C683.206 18.4997 682.311 19.3952 682.311 20.4998V43.4998V48.3358Z" fill="#22343C"/>
<path d="M682.311 55.4342L683.124 56.0154L681.311 58.5547V55.4342H682.311ZM687.381 48.3358L686.567 47.7546L686.866 47.3358H687.381V48.3358ZM681.311 55.4342V48.3358H683.311V55.4342H681.311ZM688.195 48.9171L683.124 56.0154L681.497 54.853L686.567 47.7546L688.195 48.9171ZM723.311 49.3358H687.381V47.3358H723.311V49.3358ZM726.311 46.3358C726.311 47.9927 724.967 49.3358 723.311 49.3358V47.3358C723.863 47.3358 724.311 46.8881 724.311 46.3358H726.311ZM726.311 20.4998V46.3358H724.311V20.4998H726.311ZM723.311 17.4997C724.967 17.4997 726.311 18.8429 726.311 20.4998H724.311C724.311 19.9475 723.863 19.4997 723.311 19.4997V17.4997ZM684.311 17.4997H723.311V19.4997H684.311V17.4997ZM681.311 20.4998C681.311 18.8429 682.654 17.4997 684.311 17.4997V19.4997C683.758 19.4997 683.311 19.9475 683.311 20.4998H681.311ZM681.311 43.4998V20.4998H683.311V43.4998H681.311ZM681.311 48.3358V43.4998H683.311V48.3358H681.311Z" fill="#ACB8BE" mask="url(#path-43-inside-11_9030_7344)"/>
<mask id="path-45-inside-12_9030_7344" fill="white">
<path fill-rule="evenodd" clip-rule="evenodd" d="M682.311 75.6639V68.5656L687.381 75.6639H723.311C724.415 75.6639 725.311 76.5594 725.311 77.6639V103.5C725.311 104.605 724.415 105.5 723.311 105.5H684.311C683.206 105.5 682.311 104.605 682.311 103.5V80.5V75.6639Z"/>
</mask>
<path fill-rule="evenodd" clip-rule="evenodd" d="M682.311 75.6639V68.5656L687.381 75.6639H723.311C724.415 75.6639 725.311 76.5594 725.311 77.6639V103.5C725.311 104.605 724.415 105.5 723.311 105.5H684.311C683.206 105.5 682.311 104.605 682.311 103.5V80.5V75.6639Z" fill="#22343C"/>
<path d="M682.311 68.5656L683.124 67.9843L681.311 65.4451V68.5656H682.311ZM687.381 75.6639L686.567 76.2452L686.866 76.6639H687.381V75.6639ZM681.311 68.5656V75.6639H683.311V68.5656H681.311ZM688.195 75.0827L683.124 67.9843L681.497 69.1468L686.567 76.2452L688.195 75.0827ZM723.311 74.6639H687.381V76.6639H723.311V74.6639ZM726.311 77.6639C726.311 76.0071 724.967 74.6639 723.311 74.6639V76.6639C723.863 76.6639 724.311 77.1117 724.311 77.6639H726.311ZM726.311 103.5V77.6639H724.311V103.5H726.311ZM723.311 106.5C724.967 106.5 726.311 105.157 726.311 103.5H724.311C724.311 104.052 723.863 104.5 723.311 104.5V106.5ZM684.311 106.5H723.311V104.5H684.311V106.5ZM681.311 103.5C681.311 105.157 682.654 106.5 684.311 106.5V104.5C683.758 104.5 683.311 104.052 683.311 103.5H681.311ZM681.311 80.5V103.5H683.311V80.5H681.311ZM681.311 75.6639V80.5H683.311V75.6639H681.311Z" fill="#ACB8BE" mask="url(#path-45-inside-12_9030_7344)"/>
</svg>
