<svg width="16" height="16" viewBox="0 0 16 16" fill="none" xmlns="http://www.w3.org/2000/svg">
<path fill-rule="evenodd" clip-rule="evenodd" d="M6.81333 0.888885C3.62235 0.888885 1.03555 3.47568 1.03555 6.66666C1.03555 9.85764 3.62235 12.4444 6.81333 12.4444C10.0043 12.4444 12.5911 9.85764 12.5911 6.66666C12.5911 3.47568 10.0043 0.888885 6.81333 0.888885ZM6.81333 1.8C8.78212 1.7982 10.558 2.98278 11.3127 4.80119C12.0674 6.61959 11.6521 8.71356 10.2606 10.1063C8.86909 11.4991 6.77551 11.9163 4.95641 11.1633C3.13732 10.4103 1.95111 8.63545 1.95111 6.66666C1.96326 3.98566 4.13234 1.81459 6.81333 1.8ZM11.8356 11.0533L15.1111 14.3511C15.2231 14.4638 15.2663 14.6277 15.2247 14.7811C15.183 14.9344 15.0627 15.0538 14.9091 15.0944C14.7555 15.135 14.5919 15.0905 14.48 14.9778L11.2044 11.68L11.8356 11.0533Z" fill="#3A4D55"/>
</svg>
