<svg width="64" height="80" viewBox="0 0 64 80" fill="none" xmlns="http://www.w3.org/2000/svg">
<g clip-path="url(#clip0_240_5000)">
<path d="M-0.0498047 21.5V58.5L32.0002 77.01L64.0502 58.5V21.5L32.0002 2.98999L-0.0498047 21.5Z" fill="#495A67"/>
<path d="M50.91 26.1801C46.83 20.0901 39.88 16.0901 32 16.0901C24.13 16.1001 17.19 20.1001 13.1 26.1801M53.09 30.2701C54.17 32.9201 54.77 35.8201 54.77 38.8601C54.77 51.4401 44.58 61.6301 32 61.6301C19.42 61.6301 9.22998 51.4401 9.22998 38.8601C9.22998 35.6801 9.88998 32.6501 11.07 29.9001" stroke="white" stroke-width="2" stroke-linejoin="round"/>
<path d="M29.3599 61.6701C29.6199 58.7101 30.0899 53.2101 30.0899 53.2101C30.1899 52.1601 31.0799 51.3601 32.1299 51.3601C33.1899 51.3601 34.0899 52.1501 34.2099 53.2101C34.2099 53.2101 34.6599 58.5701 34.9099 61.5401" stroke="white" stroke-width="2" stroke-linejoin="round"/>
<path d="M39.6599 60.29C39.0899 53.8 37.3499 33.84 37.3499 33.84C43.0599 33.37 48.3199 32.14 52.5299 30.26C53.5299 29.79 53.9799 28.62 53.5399 27.61C53.0999 26.57 51.8899 26.09 50.8599 26.54C45.9199 28.76 39.2599 29.99 32.1299 29.99C24.9999 29.99 18.3499 28.76 13.3999 26.54C12.3699 26.08 11.1599 26.54 10.6999 27.57C10.2399 28.6 10.6999 29.81 11.7299 30.27C15.9399 32.16 21.2099 33.39 26.9199 33.85C26.9199 33.85 25.1499 54.14 24.5999 60.47" stroke="white" stroke-width="2" stroke-linejoin="round"/>
<path d="M32.0698 26.8701C34.312 26.8701 36.1298 25.0658 36.1298 22.8401C36.1298 20.6144 34.312 18.8101 32.0698 18.8101C29.8275 18.8101 28.0098 20.6144 28.0098 22.8401C28.0098 25.0658 29.8275 26.8701 32.0698 26.8701Z" stroke="white" stroke-width="2" stroke-linejoin="round"/>
</g>
<defs>
<clipPath id="clip0_240_5000">
<rect width="64" height="80" fill="white"/>
</clipPath>
</defs>
</svg>
