<svg width="64" height="80" viewBox="0 0 64 80" fill="none" xmlns="http://www.w3.org/2000/svg">
<g clip-path="url(#clip0_240_5034)">
<path d="M-0.0498047 21.5V58.5L32.0002 77.01L64.0502 58.5V21.5L32.0002 2.98999L-0.0498047 21.5Z" fill="#195F88"/>
<path d="M58.9702 38.22L54.2402 36.66C53.6902 32.95 52.2302 29.54 50.0902 26.65L52.3302 22.2C51.5502 21.31 50.7002 20.46 49.8102 19.68L45.3602 21.92C42.4702 19.79 39.0602 18.33 35.3502 17.77L33.7902 13.04C33.2002 13 32.6102 12.98 32.0102 12.98C31.4102 12.98 30.8202 13 30.2302 13.04L28.6702 17.77C24.9602 18.32 21.5502 19.78 18.6602 21.92L14.2102 19.68C13.3202 20.46 12.4702 21.31 11.6902 22.2L13.9302 26.65C11.8002 29.54 10.3402 32.95 9.78023 36.66L5.05023 38.22C5.01023 38.81 4.99023 39.4 4.99023 40C4.99023 40.6 5.01023 41.19 5.05023 41.78L9.78023 43.34C10.3302 47.05 11.7902 50.46 13.9302 53.35L11.6902 57.8C12.4702 58.69 13.3202 59.54 14.2102 60.32L18.6602 58.08C21.5502 60.21 24.9602 61.67 28.6702 62.23L30.2302 66.96C30.8202 67 31.4102 67.02 32.0102 67.02C32.6102 67.02 33.2002 67 33.7902 66.96L35.3502 62.23C39.0602 61.68 42.4702 60.22 45.3602 58.08L49.8102 60.32C50.7002 59.54 51.5502 58.69 52.3302 57.8L50.0902 53.35C52.2202 50.46 53.6802 47.05 54.2402 43.34L58.9702 41.78C59.0102 41.19 59.0302 40.6 59.0302 40C59.0302 39.4 59.0102 38.81 58.9702 38.22Z" stroke="white" stroke-width="2" stroke-linejoin="round"/>
<path d="M47.4398 41.1301V38.8801L43.5398 37.6401C43.2298 36.1501 42.6298 34.7701 41.8198 33.5501L43.7198 29.8901L42.1298 28.3001L38.4398 30.2101C37.2298 29.4201 35.8698 28.8501 34.3998 28.5501L33.1398 24.5801H30.8898L29.6298 28.5501C28.1698 28.8501 26.7998 29.4301 25.5898 30.2101L21.8998 28.3001L20.3098 29.8901L22.2098 33.5501C21.3898 34.7701 20.7998 36.1501 20.4898 37.6401L16.5898 38.8801V41.1301L20.4498 42.3601C20.7498 43.8801 21.3398 45.3001 22.1598 46.5601L20.3098 50.1301L21.8998 51.7201L25.4398 49.8901C26.6998 50.7401 28.1398 51.3501 29.6898 51.6601L30.8898 55.4501H33.1398L34.3398 51.6601C35.8898 51.3501 37.3198 50.7401 38.5898 49.8901L42.1298 51.7201L43.7198 50.1301L41.8698 46.5601C42.6898 45.3101 43.2798 43.8901 43.5798 42.3601L47.4398 41.1301ZM32.0798 43.0101C30.3698 43.0101 28.9798 41.6201 28.9798 39.9101C28.9798 38.2001 30.3698 36.8101 32.0798 36.8101C33.7898 36.8101 35.1798 38.2001 35.1798 39.9101C35.1798 41.6201 33.7898 43.0101 32.0798 43.0101Z" stroke="white" stroke-width="2" stroke-linejoin="round"/>
</g>
<defs>
<clipPath id="clip0_240_5034">
<rect width="64" height="80" fill="white"/>
</clipPath>
</defs>
</svg>
