<svg width="1679" height="320" viewBox="0 0 1679 320" fill="none" xmlns="http://www.w3.org/2000/svg">
<g clip-path="url(#clip0_298_5001)">
<mask id="mask0_298_5001" style="mask-type:luminance" maskUnits="userSpaceOnUse" x="1" y="0" width="1681" height="320">
<path d="M1681.18 0H1.18018V320H1681.18V0Z" fill="white"/>
</mask>
<g mask="url(#mask0_298_5001)">
<path d="M1053.78 418V163.9L833.78 36.9001L613.78 163.9V418L833.78 545L1053.78 418Z" fill="#195F88"/>
<path d="M724.38 148.9C724.08 148.9 723.68 148.8 723.38 148.6L689.58 129C689.28 128.8 689.08 128.6 688.88 128.3C688.68 127.9 688.58 127.6 688.58 127.3V88.2001C688.58 87.9001 688.68 87.5001 688.88 87.2001C689.08 86.9001 689.28 86.7001 689.58 86.5001L723.38 67.0001C723.98 66.7001 724.78 66.7001 725.38 67.0001L759.28 86.6001C759.58 86.8001 759.78 87.0002 759.98 87.3001C760.18 87.6001 760.28 88.0002 760.28 88.3001V127.4C760.28 127.8 760.18 128.1 759.98 128.4C759.78 128.7 759.58 128.9 759.28 129.1L725.38 148.7C725.18 148.8 724.88 148.9 724.58 149C724.58 148.8 724.48 148.9 724.38 148.9ZM724.38 68.7001L690.58 88.3001V127.4L724.38 146.9L758.28 127.4V88.3001L724.38 68.7001Z" fill="white"/>
<path d="M704.98 99.9L723.78 110.8L742.58 99.9L723.78 89L704.98 99.9Z" fill="#FF8F3D"/>
<g opacity="0.5">
<path d="M704.98 109.8L723.78 120.7L742.58 109.8L723.78 98.9001L704.98 109.8Z" fill="#FF8F3D"/>
</g>
<g opacity="0.3">
<path d="M704.98 119.3L723.78 130.2L742.58 119.3L723.78 108.4L704.98 119.3Z" fill="#FF8F3D"/>
</g>
<path d="M928.58 193.8V193.9L1085.78 284.6L1242.98 193.9V193.8L1085.78 103L928.58 193.8Z" fill="#E25F1E"/>
<path d="M554.88 259.2L552.68 258C552.18 257.7 552.08 257.1 552.38 256.7C552.68 256.2 553.28 256.1 553.68 256.3L554.88 257L556.08 256.3C556.58 256 557.08 256.2 557.38 256.7C557.68 257.2 557.48 257.7 557.08 258L554.88 259.2Z" fill="white"/>
<path d="M563.18 254.2C562.88 254.2 562.48 254 562.38 253.7C562.08 253.2 562.28 252.6 562.68 252.4L565.98 250.5C566.48 250.2 566.98 250.4 567.28 250.9C567.58 251.4 567.38 252 566.98 252.2L563.68 254.1C563.58 254.2 563.38 254.2 563.18 254.2ZM546.48 254.2C546.28 254.2 546.18 254.2 545.98 254.1L542.68 252.2C542.18 251.9 542.08 251.3 542.38 250.9C542.68 250.5 543.28 250.3 543.68 250.5L546.98 252.4C547.48 252.7 547.58 253.3 547.28 253.7C547.18 254 546.88 254.2 546.48 254.2ZM573.28 248.5C572.98 248.5 572.58 248.3 572.48 248C572.18 247.5 572.38 246.9 572.78 246.7L576.08 244.8C576.58 244.5 577.08 244.7 577.38 245.2C577.68 245.7 577.48 246.3 577.08 246.5L573.78 248.4C573.58 248.4 573.38 248.5 573.28 248.5ZM536.48 248.4C536.28 248.4 536.18 248.4 535.98 248.3L532.68 246.4C532.18 246.1 532.08 245.5 532.38 245.1C532.68 244.7 533.28 244.5 533.68 244.7L536.98 246.6C537.48 246.9 537.58 247.5 537.28 247.9C537.18 248.3 536.78 248.4 536.48 248.4ZM583.28 242.7C582.98 242.7 582.58 242.5 582.48 242.2C582.18 241.7 582.38 241.1 582.78 240.9L586.08 239C586.58 238.7 587.08 238.9 587.38 239.4C587.68 239.9 587.48 240.5 587.08 240.7L583.78 242.6C583.58 242.6 583.38 242.7 583.28 242.7ZM526.48 242.6C526.28 242.6 526.18 242.6 525.98 242.5L522.68 240.6C522.18 240.3 522.08 239.7 522.38 239.3C522.68 238.9 523.28 238.7 523.68 238.9L526.98 240.8C527.48 241.1 527.58 241.7 527.28 242.1C527.18 242.5 526.78 242.6 526.48 242.6ZM593.28 236.9C592.98 236.9 592.58 236.7 592.48 236.4C592.18 235.9 592.38 235.3 592.78 235.1L593.38 234.8C594.18 234.3 594.88 233.7 595.38 232.9C595.68 232.5 596.28 232.3 596.68 232.6C597.08 232.9 597.28 233.5 596.98 233.9C596.28 234.9 595.38 235.8 594.28 236.4L593.78 236.7C593.58 236.9 593.38 236.9 593.28 236.9ZM516.48 236.9C516.28 236.9 516.18 236.9 515.98 236.8L515.48 236.5C514.38 235.9 513.48 235 512.78 234C512.48 233.6 512.58 233 513.08 232.7C513.58 232.4 514.08 232.5 514.38 233C514.88 233.8 515.58 234.4 516.38 234.9L516.88 235.2C517.38 235.5 517.48 236.1 517.18 236.5C517.08 236.7 516.78 236.8 516.48 236.9ZM596.38 227.1C596.08 227.1 595.68 226.9 595.58 226.6C595.08 225.7 594.28 224.9 593.28 224.3L593.68 223.4L594.18 222.6C595.48 223.4 596.58 224.4 597.28 225.7C597.58 226.2 597.38 226.8 596.88 227C596.78 227 596.58 227.1 596.38 227.1ZM513.28 227C513.08 227 512.98 227 512.78 226.9C512.28 226.6 512.18 226 512.38 225.6C513.08 224.4 514.08 223.3 515.38 222.6L515.48 222.5C515.98 222.2 516.48 222.4 516.78 222.9C517.08 223.4 516.88 224 516.48 224.2L516.38 224.3C515.38 224.9 514.68 225.6 514.08 226.6C513.98 226.9 513.58 227 513.28 227ZM587.08 220.5C586.88 220.5 586.78 220.5 586.58 220.4L583.28 218.5C582.78 218.2 582.68 217.6 582.98 217.2C583.28 216.8 583.88 216.6 584.28 216.8L587.58 218.7C588.08 219 588.18 219.6 587.88 220C587.68 220.4 587.38 220.5 587.08 220.5ZM522.68 220.5C522.38 220.5 521.98 220.3 521.88 220C521.58 219.5 521.78 218.9 522.18 218.7L525.48 216.8C525.98 216.5 526.48 216.7 526.78 217.2C527.08 217.7 526.88 218.3 526.48 218.5L523.18 220.4C522.98 220.4 522.78 220.5 522.68 220.5ZM577.08 214.7C576.88 214.7 576.78 214.7 576.58 214.6L573.28 212.7C572.78 212.4 572.68 211.8 572.98 211.4C573.28 211 573.88 210.8 574.28 211L577.58 212.9C578.08 213.2 578.18 213.8 577.88 214.2C577.68 214.6 577.38 214.7 577.08 214.7ZM532.68 214.7C532.38 214.7 531.98 214.5 531.88 214.2C531.58 213.7 531.78 213.1 532.18 212.9L535.48 211C535.98 210.7 536.48 210.9 536.78 211.4C537.08 211.9 536.88 212.5 536.48 212.7L533.18 214.6C532.98 214.7 532.88 214.7 532.68 214.7ZM567.08 208.9C566.88 208.9 566.78 208.9 566.58 208.8L563.28 206.9C562.78 206.6 562.68 206 562.98 205.6C563.28 205.2 563.88 205 564.28 205.2L567.58 207.1C568.08 207.4 568.18 208 567.88 208.4C567.68 208.8 567.38 208.9 567.08 208.9ZM542.68 208.9C542.38 208.9 541.98 208.7 541.88 208.4C541.58 207.9 541.78 207.3 542.18 207.1L545.48 205.2C545.98 204.9 546.48 205.1 546.78 205.6C547.08 206.1 546.88 206.7 546.48 206.9L543.18 208.8C543.08 208.9 542.88 208.9 542.68 208.9ZM556.78 203.7C556.68 203.7 556.68 203.7 556.58 203.7C555.48 203.5 554.28 203.5 553.08 203.7C552.58 203.8 552.08 203.5 551.98 202.9C551.88 202.3 552.18 201.9 552.78 201.8C554.18 201.5 555.58 201.5 556.98 201.8C557.48 201.9 557.88 202.4 557.78 202.9C557.68 203.4 557.28 203.7 556.78 203.7Z" fill="white"/>
<path d="M410.18 342.9C409.88 342.9 409.48 342.7 409.38 342.4C409.08 341.9 409.28 341.4 409.78 341.1L413.18 339.1C413.68 338.8 414.18 339 414.48 339.5C414.78 340 414.58 340.5 414.08 340.8L410.68 342.8C410.58 342.8 410.38 342.9 410.18 342.9ZM420.38 337C420.08 337 419.68 336.8 419.58 336.5C419.28 336 419.48 335.5 419.98 335.2L423.38 333.2C423.88 332.9 424.38 333.1 424.68 333.6C424.98 334.1 424.78 334.6 424.28 334.9L420.88 336.9C420.78 336.9 420.58 337 420.38 337ZM430.68 331.1C430.38 331.1 429.98 330.9 429.88 330.6C429.58 330.1 429.78 329.6 430.28 329.3L433.68 327.3C434.18 327 434.68 327.2 434.98 327.7C435.28 328.2 435.08 328.7 434.58 329L431.18 331C430.98 331 430.78 331.1 430.68 331.1ZM440.88 325.2C440.58 325.2 440.18 325 440.08 324.7C439.78 324.2 439.98 323.7 440.48 323.4L443.88 321.4C444.38 321.1 444.88 321.3 445.18 321.8C445.48 322.3 445.28 322.8 444.78 323.1L441.38 325.1C441.18 325.1 440.98 325.2 440.88 325.2ZM451.08 319.3C450.78 319.3 450.38 319.1 450.28 318.8C449.98 318.3 450.18 317.8 450.68 317.5L454.08 315.5C454.58 315.2 455.08 315.4 455.38 315.9C455.68 316.4 455.48 316.9 454.98 317.2L451.58 319.2C451.38 319.2 451.28 319.3 451.08 319.3ZM461.28 313.4C460.98 313.4 460.58 313.2 460.48 312.9C460.18 312.4 460.38 311.9 460.88 311.6L464.28 309.6C464.78 309.3 465.28 309.5 465.58 310C465.88 310.5 465.68 311 465.18 311.3L461.78 313.3C461.68 313.3 461.48 313.4 461.28 313.4ZM471.48 307.5C471.18 307.5 470.78 307.3 470.68 307C470.38 306.5 470.58 306 471.08 305.7L474.48 303.7C474.98 303.4 475.48 303.6 475.78 304.1C476.08 304.6 475.88 305.1 475.38 305.4L471.98 307.4C471.88 307.4 471.68 307.5 471.48 307.5ZM481.78 301.6C481.48 301.6 481.08 301.4 480.98 301.1C480.68 300.6 480.88 300.1 481.38 299.8L484.78 297.8C485.28 297.5 485.78 297.7 486.08 298.2C486.38 298.7 486.18 299.2 485.68 299.5L482.28 301.5C482.08 301.5 481.88 301.6 481.78 301.6ZM491.98 295.7C491.68 295.7 491.28 295.5 491.18 295.2C490.88 294.7 491.08 294.2 491.58 293.9L494.98 291.9C495.48 291.6 495.98 291.8 496.28 292.3C496.58 292.8 496.38 293.3 495.88 293.6L492.48 295.6C492.28 295.6 492.08 295.7 491.98 295.7ZM502.18 289.8C501.88 289.8 501.48 289.6 501.38 289.3C501.08 288.8 501.28 288.3 501.78 288L505.18 286C505.68 285.7 506.18 285.9 506.48 286.4C506.78 286.9 506.58 287.4 506.08 287.7L502.68 289.7C502.48 289.7 502.38 289.8 502.18 289.8ZM512.38 283.9C512.08 283.9 511.68 283.7 511.58 283.4C511.28 282.9 511.48 282.4 511.98 282.1L515.38 280.1C515.88 279.8 516.38 280 516.68 280.5C516.98 281 516.78 281.5 516.38 281.8L512.98 283.8C512.78 283.8 512.58 283.9 512.38 283.9ZM522.58 278C522.28 278 521.88 277.8 521.78 277.5C521.48 277 521.68 276.5 522.08 276.2L525.48 274.2C525.98 273.9 526.48 274.1 526.78 274.6C527.08 275.1 526.88 275.6 526.48 275.9L523.08 277.9C522.98 277.9 522.78 278 522.58 278ZM532.88 272.1C532.58 272.1 532.18 271.9 532.08 271.6C531.78 271.1 531.98 270.6 532.38 270.3L535.78 268.3C536.28 268 536.78 268.2 537.08 268.7C537.38 269.2 537.18 269.7 536.78 270L533.38 272C533.18 272 532.98 272.1 532.88 272.1ZM543.08 266.2C542.78 266.2 542.38 266 542.28 265.7C541.98 265.2 542.18 264.7 542.58 264.4L545.98 262.4C546.48 262.1 546.98 262.3 547.28 262.8C547.58 263.3 547.38 263.8 546.98 264.1L543.58 266.1C543.38 266.1 543.18 266.2 543.08 266.2Z" fill="white"/>
<path d="M553.18 260.3C552.88 260.3 552.48 260.1 552.38 259.8C552.08 259.3 552.28 258.8 552.68 258.5L553.98 257.7C554.18 257.4 554.48 257.2 554.78 257.2C555.28 257.2 555.78 257.6 555.78 258.2V258.9L553.58 260.1C553.58 260.2 553.38 260.3 553.18 260.3Z" fill="white"/>
<path d="M556.88 260.4C556.68 260.4 556.58 260.4 556.38 260.3L554.18 259.1V258.5C554.18 258 554.58 257.5 555.18 257.5C555.48 257.5 555.68 257.6 555.88 257.8L557.38 258.6C557.88 258.9 557.98 259.5 557.68 259.9C557.48 260.2 557.18 260.4 556.88 260.4Z" fill="white"/>
<path d="M618.68 292.5C617.28 292.4 615.98 292.2 614.58 291.9C614.08 291.8 613.68 291.3 613.78 290.8C613.88 290.3 614.38 289.9 614.88 290C616.08 290.2 617.38 290.4 618.58 290.5C619.08 290.5 619.48 291 619.48 291.5C619.58 292.1 619.18 292.5 618.68 292.5ZM626.48 292.2C625.98 292.2 625.58 291.8 625.48 291.4C625.38 290.9 625.78 290.4 626.28 290.3C627.48 290.1 628.78 289.9 629.98 289.6C630.48 289.5 630.98 289.8 631.18 290.3C631.28 290.8 630.98 291.3 630.48 291.5C629.18 291.8 627.88 292.1 626.58 292.3C626.58 292.3 626.48 292.3 626.48 292.2ZM607.48 289.5C607.38 289.5 607.18 289.5 607.08 289.4C606.08 288.9 605.18 288.4 604.28 287.9L603.58 287.5C603.08 287.2 602.98 286.6 603.28 286.2C603.58 285.7 604.18 285.6 604.58 285.8L605.28 286.2C606.18 286.7 607.08 287.2 607.98 287.6C608.48 287.8 608.68 288.4 608.48 288.9C608.18 289.2 607.78 289.5 607.48 289.5ZM637.48 288.7C637.18 288.7 636.78 288.5 636.68 288.2C636.48 287.7 636.58 287.2 637.08 286.9C637.48 286.7 637.88 286.5 638.18 286.3L640.38 285C640.88 284.7 641.38 284.9 641.68 285.4C641.98 285.9 641.78 286.4 641.38 286.7L639.18 288C638.78 288.2 638.38 288.5 637.98 288.7C637.78 288.6 637.68 288.7 637.48 288.7ZM597.28 283.8C597.08 283.8 596.98 283.8 596.78 283.7L593.38 281.7C592.88 281.4 592.78 280.8 593.08 280.4C593.38 280 593.88 279.8 594.38 280L597.78 282C598.28 282.3 598.38 282.9 598.08 283.3C597.98 283.6 597.58 283.8 597.28 283.8ZM647.58 282.9C647.28 282.9 646.88 282.7 646.78 282.4C646.48 281.9 646.68 281.4 647.08 281.1L650.48 279.1C650.98 278.8 651.48 279 651.78 279.5C652.08 280 651.88 280.5 651.48 280.8L648.08 282.8C647.98 282.8 647.78 282.9 647.58 282.9ZM587.18 277.9C586.98 277.9 586.88 277.9 586.68 277.8L583.28 275.9C582.78 275.6 582.68 275 582.98 274.6C583.28 274.1 583.78 274 584.28 274.2L587.68 276.1C588.18 276.4 588.28 277 587.98 277.4C587.78 277.7 587.48 277.9 587.18 277.9ZM657.68 277C657.38 277 656.98 276.8 656.88 276.5C656.58 276 656.78 275.5 657.18 275.2L660.58 273.3C661.08 273 661.58 273.2 661.88 273.7C662.18 274.2 661.98 274.7 661.58 275L658.18 276.9C658.08 277 657.88 277 657.68 277ZM577.08 272.1C576.88 272.1 576.78 272.1 576.58 272L573.18 270C572.68 269.7 572.58 269.1 572.88 268.7C573.18 268.2 573.68 268.1 574.18 268.3L577.58 270.3C578.08 270.6 578.18 271.2 577.88 271.6C577.68 271.9 577.38 272.1 577.08 272.1ZM667.78 271.2C667.48 271.2 667.08 271 666.98 270.7C666.68 270.2 666.88 269.7 667.28 269.4L670.68 267.4C671.18 267.1 671.68 267.3 671.98 267.8C672.28 268.3 672.08 268.8 671.68 269.1L668.28 271.1C668.18 271.1 667.98 271.2 667.78 271.2ZM566.98 266.2C566.78 266.2 566.68 266.2 566.48 266.1L563.08 264.1C562.58 263.8 562.48 263.2 562.78 262.8C563.08 262.3 563.58 262.2 564.08 262.4L567.48 264.4C567.98 264.7 568.08 265.3 567.78 265.7C567.58 266.1 567.28 266.2 566.98 266.2ZM677.98 265.3C677.68 265.3 677.28 265.1 677.18 264.8C676.88 264.3 677.08 263.8 677.48 263.5L680.88 261.5C681.38 261.2 681.88 261.4 682.18 261.9C682.48 262.4 682.28 262.9 681.88 263.2L678.48 265.2C678.28 265.3 678.08 265.3 677.98 265.3ZM688.08 259.5C687.78 259.5 687.38 259.3 687.28 259C686.98 258.5 687.18 258 687.58 257.7L690.98 255.8C691.48 255.5 691.98 255.7 692.28 256.1C692.58 256.5 692.38 257.1 691.98 257.4L688.58 259.4C688.38 259.5 688.18 259.5 688.08 259.5ZM698.18 253.7C697.88 253.7 697.48 253.5 697.38 253.2C697.08 252.7 697.28 252.1 697.68 251.9L701.08 250C701.58 249.7 702.08 249.9 702.38 250.4C702.68 250.9 702.48 251.5 702.08 251.7L698.68 253.6C698.48 253.6 698.28 253.7 698.18 253.7ZM708.28 247.8C707.98 247.8 707.58 247.6 707.48 247.3C707.18 246.8 707.38 246.2 707.78 246L711.18 244.1C711.68 243.8 712.18 244 712.48 244.5C712.78 245 712.58 245.6 712.18 245.8L708.78 247.7C708.58 247.8 708.38 247.8 708.28 247.8ZM718.38 242C718.08 242 717.68 241.8 717.58 241.5C717.28 241 717.48 240.4 717.88 240.2L721.28 238.3C721.78 238 722.28 238.2 722.58 238.7C722.88 239.2 722.68 239.8 722.28 240L718.88 241.9C718.68 241.9 718.58 242 718.38 242ZM728.48 236.1C728.18 236.1 727.78 235.9 727.68 235.6C727.38 235.1 727.58 234.5 727.98 234.3L731.38 232.4C731.88 232.1 732.38 232.3 732.68 232.8C732.98 233.3 732.78 233.9 732.38 234.1L728.98 236C728.78 236.1 728.68 236.1 728.48 236.1ZM738.58 230.3C738.28 230.3 737.88 230.1 737.78 229.8C737.48 229.3 737.68 228.7 738.08 228.5L741.48 226.6C741.98 226.3 742.48 226.5 742.78 227C743.08 227.5 742.88 228.1 742.48 228.3L739.08 230.2C738.88 230.3 738.78 230.3 738.58 230.3ZM748.68 224.5C748.38 224.5 747.98 224.3 747.88 224C747.58 223.5 747.78 222.9 748.18 222.7L751.58 220.8C752.08 220.5 752.58 220.7 752.88 221.2C753.18 221.7 752.98 222.3 752.58 222.5L749.18 224.4C748.98 224.4 748.88 224.5 748.68 224.5ZM758.78 218.6C758.48 218.6 758.08 218.4 757.98 218.1C757.68 217.6 757.88 217 758.28 216.8L761.68 214.9C762.18 214.6 762.68 214.8 762.98 215.3C763.28 215.8 763.08 216.4 762.68 216.6L759.28 218.5C759.18 218.6 758.98 218.6 758.78 218.6ZM768.88 212.8C768.58 212.8 768.18 212.6 768.08 212.3C767.78 211.8 767.98 211.2 768.38 211L771.78 209.1C772.28 208.8 772.78 209 773.08 209.5C773.38 210 773.18 210.6 772.78 210.8L769.38 212.7C769.28 212.7 769.08 212.8 768.88 212.8ZM778.98 206.9C778.68 206.9 778.28 206.7 778.18 206.4C777.88 205.9 778.08 205.3 778.48 205.1L781.88 203.2C782.38 202.9 782.88 203.1 783.18 203.6C783.48 204.1 783.28 204.7 782.88 204.9L779.48 206.8C779.38 206.9 779.18 206.9 778.98 206.9ZM789.18 201.1C788.88 201.1 788.48 200.9 788.38 200.6C788.08 200.1 788.28 199.5 788.68 199.3L792.08 197.4C792.58 197.1 793.08 197.3 793.38 197.8C793.68 198.3 793.48 198.9 793.08 199.1L789.68 201C789.48 201.1 789.28 201.1 789.18 201.1ZM799.28 195.3C798.98 195.3 798.58 195.1 798.48 194.8C798.18 194.3 798.38 193.7 798.78 193.5L802.18 191.6C802.68 191.3 803.18 191.5 803.48 192C803.78 192.5 803.58 193.1 803.18 193.3L799.78 195.2C799.58 195.2 799.38 195.3 799.28 195.3ZM809.38 189.4C809.08 189.4 808.68 189.2 808.58 188.9C808.28 188.4 808.48 187.8 808.88 187.6L812.28 185.7C812.78 185.4 813.28 185.6 813.58 186.1C813.88 186.6 813.68 187.2 813.28 187.4L809.88 189.3C809.68 189.4 809.48 189.4 809.38 189.4ZM819.48 183.6C819.18 183.6 818.78 183.4 818.68 183.1C818.38 182.6 818.58 182 818.98 181.8L822.38 179.9C822.88 179.6 823.38 179.8 823.68 180.3C823.98 180.8 823.78 181.4 823.38 181.6L819.98 183.5C819.78 183.5 819.58 183.6 819.48 183.6ZM829.58 177.7C829.28 177.7 828.88 177.5 828.78 177.2C828.48 176.7 828.68 176.1 829.08 175.9L832.48 174C832.98 173.7 833.48 173.9 833.78 174.4C834.08 174.9 833.88 175.5 833.48 175.7L830.08 177.6C829.88 177.7 829.78 177.7 829.58 177.7Z" fill="white"/>
<path d="M839.68 172C839.38 172 838.98 171.8 838.88 171.5C838.58 171 838.78 170.4 839.18 170.2L840.88 169.2C841.38 168.9 841.88 169.1 842.18 169.6C842.48 170.1 842.28 170.7 841.88 170.9L840.18 171.9C839.98 171.9 839.88 172 839.68 172Z" fill="white"/>
<path d="M1242.98 327.6V193.9L1085.78 284.6L928.58 193.9V327.6H1242.98Z" fill="#AD4800"/>
<path d="M1377.08 163.7V132.5C1372.08 132.5 1367.18 133.7 1362.78 136C1358.38 138.3 1354.58 141.7 1351.68 145.8C1348.88 149.9 1346.98 154.6 1346.38 159.6C1345.78 164.5 1346.38 169.6 1348.08 174.2C1349.78 178.9 1352.68 183.1 1356.38 186.4C1360.08 189.7 1364.58 192.1 1369.38 193.4C1374.18 194.6 1379.28 194.7 1384.18 193.5C1388.98 192.4 1393.58 190.1 1397.28 186.8L1377.08 163.7Z" fill="#B2E0F4"/>
<path d="M1397.58 140.4L1377.08 163.8L1397.28 186.9C1400.58 184 1403.28 180.5 1405.18 176.5C1406.98 172.5 1407.98 168.2 1407.98 163.8C1407.98 159.4 1407.08 155 1405.28 151C1403.58 146.9 1400.88 143.3 1397.58 140.4Z" fill="#009ADB"/>
<path d="M1377.08 132.5V163.7L1397.58 140.3C1391.88 135.3 1384.58 132.6 1377.08 132.5Z" fill="#FF8F3D"/>
<path d="M1377.28 226.3C1376.88 226.3 1376.38 226.2 1375.98 226L1323.68 195.8C1323.28 195.6 1322.98 195.3 1322.78 194.9C1322.58 194.6 1322.48 194.1 1322.48 193.7V133.2C1322.48 132.8 1322.58 132.3 1322.78 132C1322.98 131.6 1323.28 131.3 1323.68 131.1L1375.98 100.9C1376.78 100.5 1377.68 100.5 1378.48 100.9L1430.88 131.2C1431.18 131.4 1431.58 131.7 1431.78 132.1C1431.98 132.5 1432.08 132.9 1432.08 133.3V193.8C1432.08 194.2 1431.98 194.7 1431.78 195C1431.58 195.4 1431.28 195.7 1430.88 195.9L1378.48 226.1C1378.28 226.2 1377.98 226.3 1377.68 226.4L1377.58 226.5L1377.28 226.3ZM1377.18 102.4C1377.08 102.4 1376.98 102.4 1376.88 102.5L1324.58 132.7C1324.48 132.8 1324.48 132.8 1324.38 132.9C1324.38 133 1324.28 133 1324.28 133.1V193.6C1324.28 193.7 1324.28 193.8 1324.38 193.8C1324.48 193.9 1324.48 193.9 1324.58 194L1376.98 224.3C1377.08 224.3 1377.18 224.4 1377.18 224.4C1377.28 224.4 1377.38 224.4 1377.38 224.3L1429.78 194.1C1429.88 194.1 1429.88 194 1429.98 193.9C1429.98 193.8 1430.08 193.8 1430.08 193.7V133.2C1430.08 133.1 1430.08 133.1 1429.98 133C1429.88 132.9 1429.88 132.8 1429.78 132.8L1377.38 102.5C1377.38 102.4 1377.28 102.4 1377.18 102.4Z" fill="white"/>
<path d="M1323.98 192.2L1338.08 184.1L1323.98 175.9L1309.88 184.1V200.4L1323.98 208.6V192.2Z" fill="#AD4800"/>
<path d="M1338.08 200.3V184L1323.98 192.1V208.4L1338.08 200.3Z" fill="#E25F1E"/>
<path d="M981.18 72L866.98 152.8L864.88 186L981.18 72Z" fill="#009ADB"/>
<path d="M981.28 72L814.08 121.2L910.68 177.6C910.58 177.6 977.88 75.3 981.28 72Z" fill="#B2E0F4"/>
<path d="M866.98 152.8L981.18 72L848.18 140.7L864.88 185.9L866.98 152.8Z" fill="#66C2E9"/>
<path d="M1060.08 162.9V163L1108.38 190.9L1156.68 163V162.9L1108.38 135.1L1060.08 162.9Z" fill="#FF8F3D"/>
<path d="M1113.68 230.1L1071.68 254.3C1070.08 255.2 1070.08 257.6 1071.68 258.5L1082.58 264.8C1084.28 265.8 1086.28 265.8 1087.88 264.8L1129.78 240.6C1131.38 239.7 1131.38 237.3 1129.78 236.4L1118.88 230.1C1117.38 229.1 1115.28 229.1 1113.68 230.1Z" fill="#00354C"/>
<path d="M963.28 194.6C962.98 194.6 962.58 194.4 962.38 194.1C962.08 193.6 962.28 193 962.78 192.7L1086.18 121.8C1086.68 121.5 1087.28 121.7 1087.58 122.2C1087.88 122.7 1087.68 123.3 1087.18 123.6L963.78 194.5C963.68 194.5 963.48 194.6 963.28 194.6Z" fill="white"/>
<path d="M986.28 207.6C985.98 207.6 985.58 207.4 985.38 207.1C985.08 206.6 985.28 206 985.78 205.7L1050.68 168.4C1051.18 168.1 1051.78 168.3 1052.08 168.8C1052.38 169.3 1052.18 169.9 1051.68 170.2L986.78 207.5C986.58 207.5 986.48 207.6 986.28 207.6Z" fill="white"/>
<path d="M997.78 213.5C997.48 213.5 997.08 213.3 996.88 213C996.58 212.5 996.78 211.9 997.28 211.6L1060.38 175.3C1060.88 175 1061.48 175.2 1061.78 175.7C1062.08 176.2 1061.88 176.8 1061.38 177.1L998.28 213.4C998.08 213.5 997.98 213.5 997.78 213.5Z" fill="white"/>
<path d="M1085.88 256C1085.58 255.5 1085.78 254.9 1086.18 254.6L1115.78 237C1116.28 236.7 1116.88 236.9 1117.18 237.4C1117.48 237.9 1117.28 238.5 1116.88 238.8L1087.28 256.4C1086.78 256.6 1086.18 256.5 1085.88 256Z" fill="white"/>
<path d="M865.18 306.4L945.28 260.1V260L864.98 213.7L784.68 260V352.7L864.98 399.1L865.18 399V306.4Z" fill="#1983B8"/>
<path d="M945.48 352.5V259.9L906.68 282.4L865.48 306.1V398.7L945.48 352.5Z" fill="#195F88"/>
<path d="M1668.68 172.7V158.4L1656.28 151.2L1643.88 158.4V172.7L1656.28 179.9L1668.68 172.7Z" fill="#FF8F3D"/>
<path d="M1580.88 170.1V141L1555.68 126.5L1530.48 141V170.1L1555.68 184.7L1580.88 170.1Z" fill="#E25F1E"/>
<path d="M1574.88 157.8V154.9L1569.98 153.3C1569.58 151.4 1568.78 149.7 1567.78 148.1L1570.18 143.5L1568.18 141.5L1563.48 143.9C1561.98 142.9 1560.18 142.2 1558.38 141.8L1556.78 136.8H1553.88L1552.28 141.8C1550.38 142.2 1548.68 142.9 1547.18 143.9L1542.48 141.5L1540.48 143.5L1542.88 148.1C1541.88 149.7 1541.08 151.4 1540.68 153.3L1535.78 154.9V157.8L1540.68 159.4C1541.08 161.3 1541.78 163.1 1542.88 164.7L1540.58 169.2L1542.58 171.2L1547.08 168.9C1548.68 170 1550.48 170.8 1552.48 171.1L1553.98 175.9H1556.88L1558.38 171.1C1560.38 170.7 1562.18 169.9 1563.78 168.9L1568.28 171.2L1570.28 169.2L1567.98 164.7C1568.98 163.1 1569.78 161.3 1570.18 159.4L1574.88 157.8ZM1555.38 160.2C1553.18 160.2 1551.48 158.4 1551.48 156.3C1551.48 154.2 1553.28 152.4 1555.38 152.4C1557.48 152.4 1559.28 154.2 1559.28 156.3C1559.28 158.4 1557.58 160.2 1555.38 160.2Z" fill="#00354C"/>
<path d="M811.28 275.4V244.5L784.58 229.1L757.88 244.5V275.4L784.58 290.8L811.28 275.4Z" fill="#FF8F3D"/>
<path d="M801.08 260.2C801.08 260.2 793.58 270.4 784.18 270.4C774.78 270.4 767.28 260.2 767.28 260.2C767.28 260.2 774.78 250 784.18 250C793.58 250 801.08 260.2 801.08 260.2Z" fill="white"/>
<path d="M784.18 270.5C789.869 270.5 794.48 265.889 794.48 260.2C794.48 254.512 789.869 249.9 784.18 249.9C778.492 249.9 773.88 254.512 773.88 260.2C773.88 265.889 778.492 270.5 784.18 270.5Z" fill="#66C2E9"/>
<path d="M784.18 264.4C786.5 264.4 788.38 262.52 788.38 260.2C788.38 257.88 786.5 256 784.18 256C781.86 256 779.98 257.88 779.98 260.2C779.98 262.52 781.86 264.4 784.18 264.4Z" fill="#AD4800"/>
<path d="M1282.18 282.8V237.4L1242.78 214.6L1203.38 237.4V282.8L1242.78 305.5L1282.18 282.8Z" fill="#FF8F3D"/>
<mask id="mask1_298_5001" style="mask-type:luminance" maskUnits="userSpaceOnUse" x="1203" y="214" width="80" height="92">
<path d="M1282.18 282.8V237.4L1242.78 214.6L1203.38 237.4V282.8L1242.78 305.5L1282.18 282.8Z" fill="white"/>
</mask>
<g mask="url(#mask1_298_5001)">
<path d="M1258.28 234.9C1256.38 235 1254.88 236.6 1254.88 238.5V249.5C1254.88 249.7 1254.68 249.9 1254.48 249.9C1254.28 249.9 1254.18 249.7 1254.18 249.5V233.4C1254.18 231.5 1252.58 229.9 1250.68 229.9C1248.78 229.9 1247.18 231.5 1247.18 233.4V248.8C1247.18 249 1246.98 249.2 1246.78 249.2C1246.58 249.2 1246.48 249 1246.48 248.8V229.5C1246.48 227.6 1244.88 226 1242.98 226C1241.08 226 1239.48 227.6 1239.48 229.5V248.1C1239.48 248.3 1239.28 248.5 1239.08 248.5C1238.88 248.5 1238.78 248.3 1238.78 248.1V232.8C1238.78 230.9 1237.18 229.3 1235.28 229.3C1233.38 229.3 1231.78 230.9 1231.78 232.8V261.4C1231.78 261.7 1231.58 261.9 1231.28 261.9C1230.98 261.9 1230.78 261.7 1230.78 261.4V253.2C1230.78 251.3 1229.18 249.7 1227.28 249.7C1225.38 249.7 1223.78 251.3 1223.78 253.2V269.4V273V322H1262.18V238.4C1261.98 236.5 1260.38 234.9 1258.28 234.9Z" fill="#00354C"/>
<path d="M1262.48 280.7H1222.98V290.1H1262.48V280.7Z" fill="#009ADB"/>
<path d="M1242.98 293.8C1247.62 293.8 1251.38 290.039 1251.38 285.4C1251.38 280.761 1247.62 277 1242.98 277C1238.34 277 1234.58 280.761 1234.58 285.4C1234.58 290.039 1238.34 293.8 1242.98 293.8Z" fill="#195F88"/>
<path d="M1242.98 292.5C1246.9 292.5 1250.08 289.321 1250.08 285.4C1250.08 281.479 1246.9 278.3 1242.98 278.3C1239.06 278.3 1235.88 281.479 1235.88 285.4C1235.88 289.321 1239.06 292.5 1242.98 292.5Z" fill="#FF8F3D"/>
<path d="M1242.98 286.7C1243.7 286.7 1244.28 286.118 1244.28 285.4C1244.28 284.682 1243.7 284.1 1242.98 284.1C1242.26 284.1 1241.68 284.682 1241.68 285.4C1241.68 286.118 1242.26 286.7 1242.98 286.7Z" fill="#195F88"/>
<path d="M1242.98 285.3V279.8" stroke="#195F88" stroke-width="2" stroke-miterlimit="10" stroke-linecap="round"/>
<path d="M1246.58 289.4L1243.48 286" stroke="#195F88" stroke-width="2" stroke-miterlimit="10" stroke-linecap="round"/>
</g>
<path d="M1601.18 274.3C1600.98 274.3 1600.88 274.3 1600.68 274.2L1565.18 253.7C1564.88 253.5 1564.68 253.2 1564.68 252.8V211.8C1564.68 211.4 1564.88 211.1 1565.18 210.9L1600.68 190.4C1600.98 190.2 1601.38 190.2 1601.68 190.4L1637.08 211C1637.38 211.2 1637.58 211.5 1637.58 211.9V252.9C1637.58 253.3 1637.38 253.6 1637.08 253.8L1601.58 274.3C1601.48 274.3 1601.28 274.3 1601.18 274.3ZM1566.68 252.3L1601.18 272.2L1635.68 252.3V212.5L1601.18 192.6L1566.68 212.5V252.3Z" fill="white"/>
<path d="M1582.48 216.6H1619.88V233.5C1619.88 241.6 1613.38 248.1 1605.28 248.1H1597.08C1588.98 248.1 1582.48 241.6 1582.48 233.5V216.6Z" fill="#009ADB"/>
<path d="M1622.18 219.5C1624.58 219.5 1626.48 221.4 1626.48 223.8C1626.48 226.2 1624.58 228.1 1622.18 228.1H1618.78V219.5H1622.18ZM1622.18 216.6H1615.88V231H1622.18C1626.18 231 1629.38 227.8 1629.38 223.8C1629.38 219.8 1626.18 216.6 1622.18 216.6Z" fill="#009ADB"/>
<path d="M1196.38 72.3001L1235.38 49.8001V49.7001L1196.28 27.1001L1157.18 49.7001V94.8001L1196.28 117.4L1196.38 117.3V72.3001Z" fill="#1983B8"/>
<path d="M1235.38 95V49.8L1196.38 72.3001V117.5L1235.38 95Z" fill="#195F88"/>
<path d="M1232.68 126.9C1232.48 126.9 1232.28 126.8 1232.08 126.8L1231.88 126.7L1213.68 116.2C1213.48 116 1213.28 115.9 1213.18 115.8C1212.98 115.6 1212.98 115.3 1212.98 115V94.0001C1212.98 93.8001 1213.08 93.5001 1213.18 93.3001C1213.28 93.1001 1213.48 92.9001 1213.68 92.8001L1231.88 82.3001C1232.18 82.1001 1232.68 82.0001 1233.18 82.2001L1233.28 82.3001L1251.48 92.8001C1251.78 93.0001 1251.88 93.1001 1251.98 93.3001C1252.08 93.5001 1252.18 93.8001 1252.18 94.0001V115C1252.18 115.3 1252.08 115.5 1251.98 115.8C1251.88 116 1251.68 116.2 1251.48 116.3L1233.28 126.8C1233.08 126.8 1232.88 126.9 1232.68 126.9ZM1215.08 114.6L1232.68 124.8L1250.28 114.6V94.3001L1232.68 84.1001L1215.08 94.3001V114.6ZM1233.08 83.9001C1232.98 84.0001 1232.98 84.0001 1233.08 83.9001V83.9001Z" fill="white"/>
<path d="M1189.48 98C1189.48 97.2 1189.28 96.5 1188.88 95.8C1188.48 95.1 1187.98 94.6 1187.38 94.1C1187.28 94 1187.08 93.9 1186.88 93.9C1186.88 93.6 1186.88 93.4 1186.88 93.1C1186.88 89.8 1184.68 85.9 1182.08 84.4C1181.78 84.2 1181.48 84.1 1181.18 84C1180.18 80.1 1177.58 76.3 1174.58 74.6C1170.88 72.5 1167.88 74.3 1167.58 78.6C1167.08 78.1 1166.58 77.6 1165.98 77.3C1163.78 76.1 1161.98 77.3 1161.98 80C1161.98 82.7 1163.78 86 1165.98 87.2H1166.08L1187.38 99.2C1188.58 100 1189.48 99.4 1189.48 98Z" fill="#00354C"/>
<path d="M358.68 262.6C358.68 261.1 359.28 259.7 360.28 258.7C361.28 257.7 362.78 257.1 364.18 257.1C364.58 257.1 364.98 257.1 365.38 257.2C365.28 256.6 365.28 256 365.28 255.5C365.28 253.6 365.68 251.8 366.48 250.1C367.28 248.4 368.48 246.9 369.88 245.7C371.28 244.5 372.98 243.6 374.78 243.2C376.58 242.7 378.48 242.7 380.28 243C381.78 239 384.58 235.7 388.18 233.5C391.78 231.3 396.08 230.4 400.28 231C404.48 231.6 408.38 233.6 411.28 236.6C414.18 239.7 415.98 243.7 416.38 247.9C417.88 247.3 419.38 247 420.98 247C422.58 247 424.08 247.4 425.48 248.2C426.88 248.9 428.08 250 429.08 251.2C430.08 252.4 430.68 253.9 430.98 255.5C431.28 257.1 431.28 258.7 430.88 260.2C430.48 261.7 429.78 263.2 428.78 264.4C427.78 265.6 426.48 266.6 425.08 267.3C423.68 268 422.08 268.3 420.48 268.3H363.78C362.28 268.3 360.88 267.7 359.88 266.7C358.88 265.7 358.68 264.1 358.68 262.6Z" fill="#1983B8"/>
</g>
</g>
<defs>
<clipPath id="clip0_298_5001">
<rect width="1680" height="320" fill="white" transform="translate(0.0800781)"/>
</clipPath>
</defs>
</svg>
