<svg width="439" height="53" viewBox="0 0 439 53" fill="none" xmlns="http://www.w3.org/2000/svg">
<path d="M8.414 6.382H10.346L6.328 16H4.382L0.364 6.382H2.296L5.362 13.676L8.414 6.382ZM15.0011 16.168C12.8591 16.168 11.1091 14.46 11.1091 12.374C11.1091 10.288 12.8591 8.594 15.0011 8.594C17.1291 8.594 18.8651 10.288 18.8651 12.374C18.8651 14.46 17.1291 16.168 15.0011 16.168ZM15.0011 14.712C16.2051 14.712 17.1991 13.662 17.1991 12.374C17.1991 11.086 16.2051 10.05 15.0011 10.05C13.7831 10.05 12.7891 11.086 12.7891 12.374C12.7891 13.662 13.7831 14.712 15.0011 14.712ZM20.3464 16V6.214H22.0544V16H20.3464ZM28.8762 8.762H30.5842V16H28.8762V15.02C28.4422 15.706 27.6022 16.168 26.6362 16.168C25.0402 16.168 23.9342 15.02 23.9342 13.368V8.762H25.6002V13.032C25.6002 14.026 26.2162 14.712 27.1122 14.712C28.0922 14.712 28.8762 14.026 28.8762 13.144V8.762ZM40.9872 8.594C42.4992 8.594 43.6332 9.756 43.6332 11.394V16H41.9672V11.674C41.9672 10.722 41.3932 10.05 40.5672 10.05C39.6292 10.05 38.9712 10.68 38.9712 11.562V16H37.3192V11.674C37.3192 10.722 36.7312 10.05 35.9052 10.05C34.9812 10.05 34.3232 10.68 34.3232 11.562V16H32.6152V8.762H34.3232V9.742C34.6872 9.042 35.4292 8.594 36.3392 8.594C37.4872 8.594 38.4112 9.266 38.7892 10.316C38.9852 9.28 39.8532 8.594 40.9872 8.594ZM48.7098 14.796C49.4378 14.796 50.2638 14.488 50.7258 14.04L51.7058 15.048C51.0758 15.72 49.8158 16.168 48.7658 16.168C46.6798 16.168 44.9578 14.586 44.9578 12.36C44.9578 10.176 46.5958 8.594 48.6678 8.594C50.9078 8.594 52.2238 10.246 52.2238 12.878H46.6098C46.7918 14.012 47.5898 14.796 48.7098 14.796ZM48.6818 9.966C47.6458 9.966 46.8478 10.666 46.6238 11.744H50.5718C50.4178 10.722 49.7738 9.966 48.6818 9.966Z" fill="#E3EAED"/>
<rect y="30" width="415" height="4" fill="#DDDDDD"/>
<path d="M0 30H230.5V34H0V30Z" fill="#2EC0FF"/>
<circle cx="223" cy="32" r="8" fill="#2EC0FF"/>
<path d="M3.487 51.121C2.244 51.121 1.265 50.67 0.506 49.922L1.045 49.251C1.683 49.889 2.464 50.34 3.52 50.34C4.686 50.34 5.28 49.702 5.28 49.02C5.28 48.217 4.565 47.898 3.245 47.59C1.727 47.238 0.77 46.765 0.77 45.456C0.77 44.246 1.848 43.3 3.3 43.3C4.422 43.3 5.258 43.74 5.951 44.378L5.423 45.049C4.796 44.444 4.048 44.081 3.256 44.081C2.321 44.081 1.639 44.697 1.639 45.39C1.639 46.171 2.387 46.446 3.674 46.754C5.115 47.095 6.149 47.612 6.149 48.943C6.149 50.142 5.247 51.121 3.487 51.121ZM8.42909 52.98C8.09909 52.98 7.79109 52.914 7.52709 52.793L7.72509 52.089C7.92309 52.188 8.15409 52.232 8.39609 52.232C8.75909 52.232 9.00109 52.111 9.22109 51.726L9.55109 51.022L7.07609 45.313H7.98909L9.98009 50.043L11.8611 45.313H12.7521L10.1561 51.638C9.76009 52.606 9.21009 52.969 8.42909 52.98ZM16.1156 51.132C15.3236 51.132 14.4436 50.835 13.7616 50.285L14.1906 49.68C14.8396 50.153 15.4886 50.395 16.1156 50.395C16.8636 50.395 17.3696 50.043 17.3696 49.504C17.3696 48.888 16.7096 48.69 15.9396 48.47C14.5646 48.074 14.0366 47.667 14.0366 46.853C14.0366 45.819 14.8946 45.181 16.0276 45.181C16.7316 45.181 17.4576 45.423 18.0626 45.819L17.6666 46.457C17.0946 46.094 16.5336 45.918 16.0276 45.918C15.3896 45.918 14.8616 46.204 14.8616 46.754C14.8616 47.249 15.2796 47.403 16.3356 47.744C17.2486 48.03 18.1946 48.338 18.1946 49.416C18.1946 50.461 17.2926 51.132 16.1156 51.132ZM22.0566 50.164L22.4636 50.769C22.1666 51 21.7926 51.132 21.4076 51.132C20.5936 51.132 20.0216 50.527 20.0216 49.68V46.05H19.1306V45.313H20.0216V43.751H20.8466V45.313H22.2436V46.05H20.8466V49.68C20.8466 50.098 21.1326 50.395 21.4626 50.395C21.7156 50.395 21.9356 50.296 22.0566 50.164ZM26.1939 50.395C26.8649 50.395 27.6349 50.098 27.9869 49.713L28.4929 50.252C27.9979 50.791 26.9969 51.132 26.2049 51.132C24.6869 51.132 23.3229 49.889 23.3229 48.14C23.3229 46.446 24.5989 45.181 26.1279 45.181C27.8439 45.181 28.8229 46.479 28.8229 48.47H24.1699C24.2909 49.581 25.0719 50.395 26.1939 50.395ZM26.1609 45.918C25.1489 45.918 24.3349 46.633 24.1809 47.733H28.0089C27.8989 46.71 27.2939 45.918 26.1609 45.918ZM36.3219 45.181C37.5099 45.181 38.3459 46.094 38.3459 47.381V51H37.5209V47.491C37.5209 46.567 36.9819 45.918 36.2119 45.918C35.3099 45.918 34.6719 46.523 34.6719 47.381V51H33.8469V47.491C33.8469 46.567 33.3079 45.918 32.5379 45.918C31.6359 45.918 30.9979 46.523 30.9979 47.381V51H30.1729V45.313H30.9979V46.149C31.2839 45.555 31.8999 45.181 32.6479 45.181C33.5059 45.181 34.1769 45.654 34.4849 46.391C34.7159 45.654 35.4639 45.181 36.3219 45.181ZM45.7662 50.395C46.4372 50.395 47.2072 50.098 47.5592 49.713L48.0652 50.252C47.5702 50.791 46.5692 51.132 45.7772 51.132C44.2592 51.132 42.8952 49.889 42.8952 48.14C42.8952 46.446 44.1712 45.181 45.7002 45.181C47.4162 45.181 48.3952 46.479 48.3952 48.47H43.7422C43.8632 49.581 44.6442 50.395 45.7662 50.395ZM45.7332 45.918C44.7212 45.918 43.9072 46.633 43.7532 47.733H47.5812C47.4712 46.71 46.8662 45.918 45.7332 45.918ZM50.6472 46.424C50.9882 45.665 51.8022 45.181 52.8472 45.181V45.918C51.5602 45.918 50.6472 46.71 50.6472 47.821V51H49.8222V45.313H50.6472V46.424ZM54.8903 46.424C55.2313 45.665 56.0453 45.181 57.0903 45.181V45.918C55.8033 45.918 54.8903 46.71 54.8903 47.821V51H54.0653V45.313H54.8903V46.424ZM60.6889 51.132C59.0939 51.132 57.7409 49.768 57.7409 48.151C57.7409 46.534 59.0939 45.181 60.6889 45.181C62.2839 45.181 63.6259 46.534 63.6259 48.151C63.6259 49.768 62.2839 51.132 60.6889 51.132ZM60.6889 50.395C61.8109 50.395 62.7569 49.372 62.7569 48.151C62.7569 46.941 61.8109 45.918 60.6889 45.918C59.5559 45.918 58.6099 46.941 58.6099 48.151C58.6099 49.372 59.5559 50.395 60.6889 50.395ZM65.8903 46.424C66.2313 45.665 67.0453 45.181 68.0903 45.181V45.918C66.8033 45.918 65.8903 46.71 65.8903 47.821V51H65.0653V45.313H65.8903V46.424Z" fill="#FF4D2E"/>
<path fill-rule="evenodd" clip-rule="evenodd" d="M423 32C423 27.5817 426.582 24 431 24C433.122 24 435.157 24.8429 436.657 26.3431C438.157 27.8434 439 29.8783 439 32C439 36.4183 435.418 40 431 40C426.582 40 423 36.4183 423 32ZM430.133 32.5133C430.133 32.992 430.521 33.38 431 33.38C431.479 33.38 431.867 32.992 431.867 32.5133V28.5133C431.867 28.0347 431.479 27.6467 431 27.6467C430.521 27.6467 430.133 28.0347 430.133 28.5133V32.5133ZM431 38.6667C427.318 38.6667 424.333 35.6819 424.333 32C424.333 28.3181 427.318 25.3333 431 25.3333C434.682 25.3333 437.667 28.3181 437.667 32C437.667 33.7681 436.964 35.4638 435.714 36.714C434.464 37.9643 432.768 38.6667 431 38.6667ZM431.967 35.3467C431.967 35.899 431.519 36.3467 430.967 36.3467C430.414 36.3467 429.967 35.899 429.967 35.3467C429.967 34.7944 430.414 34.3467 430.967 34.3467C431.519 34.3467 431.967 34.7944 431.967 35.3467Z" fill="#FF4D2E"/>
</svg>
