<svg width="439" height="55" viewBox="0 0 439 55" fill="none" xmlns="http://www.w3.org/2000/svg">
<path d="M8.414 6.382H10.346L6.328 16H4.382L0.364 6.382H2.296L5.362 13.676L8.414 6.382ZM15.0011 16.168C12.8591 16.168 11.1091 14.46 11.1091 12.374C11.1091 10.288 12.8591 8.594 15.0011 8.594C17.1291 8.594 18.8651 10.288 18.8651 12.374C18.8651 14.46 17.1291 16.168 15.0011 16.168ZM15.0011 14.712C16.2051 14.712 17.1991 13.662 17.1991 12.374C17.1991 11.086 16.2051 10.05 15.0011 10.05C13.7831 10.05 12.7891 11.086 12.7891 12.374C12.7891 13.662 13.7831 14.712 15.0011 14.712ZM20.3464 16V6.214H22.0544V16H20.3464ZM28.8762 8.762H30.5842V16H28.8762V15.02C28.4422 15.706 27.6022 16.168 26.6362 16.168C25.0402 16.168 23.9342 15.02 23.9342 13.368V8.762H25.6002V13.032C25.6002 14.026 26.2162 14.712 27.1122 14.712C28.0922 14.712 28.8762 14.026 28.8762 13.144V8.762ZM40.9872 8.594C42.4992 8.594 43.6332 9.756 43.6332 11.394V16H41.9672V11.674C41.9672 10.722 41.3932 10.05 40.5672 10.05C39.6292 10.05 38.9712 10.68 38.9712 11.562V16H37.3192V11.674C37.3192 10.722 36.7312 10.05 35.9052 10.05C34.9812 10.05 34.3232 10.68 34.3232 11.562V16H32.6152V8.762H34.3232V9.742C34.6872 9.042 35.4292 8.594 36.3392 8.594C37.4872 8.594 38.4112 9.266 38.7892 10.316C38.9852 9.28 39.8532 8.594 40.9872 8.594ZM48.7098 14.796C49.4378 14.796 50.2638 14.488 50.7258 14.04L51.7058 15.048C51.0758 15.72 49.8158 16.168 48.7658 16.168C46.6798 16.168 44.9578 14.586 44.9578 12.36C44.9578 10.176 46.5958 8.594 48.6678 8.594C50.9078 8.594 52.2238 10.246 52.2238 12.878H46.6098C46.7918 14.012 47.5898 14.796 48.7098 14.796ZM48.6818 9.966C47.6458 9.966 46.8478 10.666 46.6238 11.744H50.5718C50.4178 10.722 49.7738 9.966 48.6818 9.966Z" fill="#F1F6F8"/>
<rect y="30" width="415" height="4" fill="#DDDDDD"/>
<path d="M0 30H230.5V34H0V30Z" fill="#2EC0FF"/>
<circle cx="223" cy="32" r="8" fill="#2EC0FF"/>
<path d="M4.444 51.132C2.354 51.132 0.572 49.339 0.572 47.216C0.572 45.093 2.354 43.311 4.444 43.311C5.489 43.311 6.457 43.751 7.161 44.466L6.578 45.06C6.028 44.477 5.269 44.103 4.444 44.103C2.816 44.103 1.441 45.533 1.441 47.216C1.441 48.91 2.816 50.34 4.444 50.34C5.269 50.34 6.028 49.966 6.578 49.383L7.161 49.977C6.457 50.681 5.489 51.132 4.444 51.132ZM11.0186 45.181C12.2726 45.181 13.1526 46.094 13.1526 47.381V51H12.3276V47.491C12.3276 46.567 11.7446 45.918 10.9086 45.918C9.95156 45.918 9.14856 46.589 9.14856 47.381V51H8.32356V43.311H9.14856V46.226C9.47856 45.621 10.2156 45.181 11.0186 45.181ZM17.1323 45.181C18.6833 45.181 19.4423 46.16 19.4423 47.535V51H18.6173V50.109C18.2103 50.78 17.3633 51.132 16.6153 51.132C15.4163 51.132 14.5363 50.439 14.5363 49.317C14.5363 48.184 15.5483 47.425 16.7693 47.425C17.3853 47.425 18.0343 47.557 18.6173 47.744V47.535C18.6173 46.765 18.3093 45.885 17.0773 45.885C16.5053 45.885 15.9333 46.138 15.4163 46.402L15.0863 45.731C15.9003 45.324 16.5823 45.181 17.1323 45.181ZM16.7583 50.406C17.5063 50.406 18.3973 50.021 18.6173 49.218V48.349C18.1003 48.206 17.5173 48.118 16.9013 48.118C16.0543 48.118 15.3393 48.602 15.3393 49.284C15.3393 49.988 15.9553 50.406 16.7583 50.406ZM23.834 45.181C25.088 45.181 25.968 46.094 25.968 47.381V51H25.143V47.491C25.143 46.567 24.56 45.918 23.724 45.918C22.767 45.918 21.964 46.589 21.964 47.381V51H21.139V45.313H21.964V46.226C22.294 45.621 23.031 45.181 23.834 45.181ZM32.0598 45.313H32.8848V50.395C32.8848 51.858 31.7298 52.892 30.0908 52.892C29.1668 52.892 28.3088 52.573 27.7918 52.133L28.1548 51.484C28.5948 51.902 29.2768 52.155 29.9808 52.155C31.2898 52.155 32.0598 51.506 32.0598 50.395V49.471C31.6198 50.164 30.8938 50.582 29.9918 50.582C28.4628 50.582 27.3738 49.46 27.3738 47.876C27.3738 46.292 28.4628 45.181 29.9918 45.181C30.8938 45.181 31.6198 45.599 32.0598 46.292V45.313ZM30.1458 49.845C31.2678 49.845 32.0598 49.031 32.0598 47.876C32.0598 46.732 31.2678 45.918 30.1458 45.918C29.0348 45.918 28.2428 46.732 28.2428 47.876C28.2428 49.031 29.0348 49.845 30.1458 49.845ZM37.1939 50.395C37.8649 50.395 38.6349 50.098 38.9869 49.713L39.4929 50.252C38.9979 50.791 37.9969 51.132 37.2049 51.132C35.6869 51.132 34.3229 49.889 34.3229 48.14C34.3229 46.446 35.5989 45.181 37.1279 45.181C38.8439 45.181 39.8229 46.479 39.8229 48.47H35.1699C35.2909 49.581 36.0719 50.395 37.1939 50.395ZM37.1609 45.918C36.1489 45.918 35.3349 46.633 35.1809 47.733H39.0089C38.8989 46.71 38.2939 45.918 37.1609 45.918ZM43.1859 51.132C42.3939 51.132 41.5139 50.835 40.8319 50.285L41.2609 49.68C41.9099 50.153 42.5589 50.395 43.1859 50.395C43.9339 50.395 44.4399 50.043 44.4399 49.504C44.4399 48.888 43.7799 48.69 43.0099 48.47C41.6349 48.074 41.1069 47.667 41.1069 46.853C41.1069 45.819 41.9649 45.181 43.0979 45.181C43.8019 45.181 44.5279 45.423 45.1329 45.819L44.7369 46.457C44.1649 46.094 43.6039 45.918 43.0979 45.918C42.4599 45.918 41.9319 46.204 41.9319 46.754C41.9319 47.249 42.3499 47.403 43.4059 47.744C44.3189 48.03 45.2649 48.338 45.2649 49.416C45.2649 50.461 44.3629 51.132 43.1859 51.132ZM51.8334 51.132C51.0414 51.132 50.1614 50.835 49.4794 50.285L49.9084 49.68C50.5574 50.153 51.2064 50.395 51.8334 50.395C52.5814 50.395 53.0874 50.043 53.0874 49.504C53.0874 48.888 52.4274 48.69 51.6574 48.47C50.2824 48.074 49.7544 47.667 49.7544 46.853C49.7544 45.819 50.6124 45.181 51.7454 45.181C52.4494 45.181 53.1754 45.423 53.7804 45.819L53.3844 46.457C52.8124 46.094 52.2514 45.918 51.7454 45.918C51.1074 45.918 50.5794 46.204 50.5794 46.754C50.5794 47.249 50.9974 47.403 52.0534 47.744C52.9664 48.03 53.9124 48.338 53.9124 49.416C53.9124 50.461 53.0104 51.132 51.8334 51.132ZM57.5874 45.181C59.1384 45.181 59.8974 46.16 59.8974 47.535V51H59.0724V50.109C58.6654 50.78 57.8184 51.132 57.0704 51.132C55.8714 51.132 54.9914 50.439 54.9914 49.317C54.9914 48.184 56.0034 47.425 57.2244 47.425C57.8404 47.425 58.4894 47.557 59.0724 47.744V47.535C59.0724 46.765 58.7644 45.885 57.5324 45.885C56.9604 45.885 56.3884 46.138 55.8714 46.402L55.5414 45.731C56.3554 45.324 57.0374 45.181 57.5874 45.181ZM57.2134 50.406C57.9614 50.406 58.8524 50.021 59.0724 49.218V48.349C58.5554 48.206 57.9724 48.118 57.3564 48.118C56.5094 48.118 55.7944 48.602 55.7944 49.284C55.7944 49.988 56.4104 50.406 57.2134 50.406ZM63.4641 51L61.0441 45.313H61.9681L63.8601 50.032L65.7191 45.313H66.6431L64.2561 51H63.4641ZM69.9576 50.395C70.6286 50.395 71.3986 50.098 71.7506 49.713L72.2566 50.252C71.7616 50.791 70.7606 51.132 69.9686 51.132C68.4506 51.132 67.0866 49.889 67.0866 48.14C67.0866 46.446 68.3626 45.181 69.8916 45.181C71.6076 45.181 72.5866 46.479 72.5866 48.47H67.9336C68.0546 49.581 68.8356 50.395 69.9576 50.395ZM69.9246 45.918C68.9126 45.918 68.0986 46.633 67.9446 47.733H71.7726C71.6626 46.71 71.0576 45.918 69.9246 45.918ZM78.3806 43.311H79.2056V51H78.3806V49.933C77.9516 50.681 77.2256 51.132 76.3126 51.132C74.8166 51.132 73.6946 49.9 73.6946 48.151C73.6946 46.413 74.8166 45.181 76.3126 45.181C77.2256 45.181 77.9516 45.632 78.3806 46.38V43.311ZM76.4666 50.395C77.5886 50.395 78.3806 49.46 78.3806 48.151C78.3806 46.842 77.5886 45.918 76.4666 45.918C75.3556 45.918 74.5636 46.842 74.5636 48.151C74.5636 49.46 75.3556 50.395 76.4666 50.395Z" fill="#67CA16"/>
<path fill-rule="evenodd" clip-rule="evenodd" d="M431 24C426.582 24 423 27.5817 423 32C423 36.4183 426.582 40 431 40C435.418 40 439 36.4183 439 32C439 29.8783 438.157 27.8434 436.657 26.3431C435.157 24.8429 433.122 24 431 24ZM431 38.6667C427.318 38.6667 424.333 35.6819 424.333 32C424.333 28.3181 427.318 25.3333 431 25.3333C434.682 25.3333 437.667 28.3181 437.667 32C437.667 33.7681 436.964 35.4638 435.714 36.714C434.464 37.9643 432.768 38.6667 431 38.6667ZM426.56 32.4933L429.893 35.8267L435.353 30.3667C435.58 30.1022 435.565 29.7079 435.318 29.4616C435.072 29.2154 434.678 29.2001 434.413 29.4267L429.893 33.9467L427.5 31.5533C427.235 31.3268 426.841 31.342 426.595 31.5883C426.349 31.8345 426.333 32.2288 426.56 32.4933Z" fill="#67CA16"/>
</svg>
