<svg width="451" height="60" viewBox="0 0 451 60" fill="none" xmlns="http://www.w3.org/2000/svg">
<rect width="451" height="60" fill="#002538"/>
<path fill-rule="evenodd" clip-rule="evenodd" d="M45.89 16H31.83C30.7995 16.0273 29.9832 16.8793 30 17.91V42.09C29.9832 43.1207 30.7995 43.9727 31.83 44H52.17C53.2005 43.9727 54.0168 43.1207 54 42.09V23.92L45.89 16ZM45.59 18.49L51.59 24.39H45.59V18.49ZM32 18V42H52V26H44V18H32Z" fill="#EBF9FF"/>
<path d="M69.632 35V24.008H71.248L77.552 32.344V24.008H79.184V35H77.552L71.248 26.664V35H69.632ZM85.5729 35.192C83.1889 35.192 81.2209 33.24 81.2209 30.856C81.2209 28.472 83.1889 26.536 85.5729 26.536C87.9569 26.536 89.9249 28.472 89.9249 30.856C89.9249 33.24 87.9569 35.192 85.5729 35.192ZM85.5729 33.816C87.0929 33.816 88.3409 32.488 88.3409 30.856C88.3409 29.224 87.0929 27.912 85.5729 27.912C84.0529 27.912 82.8049 29.224 82.8049 30.856C82.8049 32.488 84.0529 33.816 85.5729 33.816ZM95.182 33.512L95.774 34.6C95.326 34.968 94.702 35.192 94.11 35.192C92.83 35.192 91.934 34.264 91.934 32.936V28.072H90.702V26.728H91.934V24.456H93.486V26.728H95.438V28.072H93.486V32.824C93.486 33.4 93.886 33.816 94.35 33.816C94.702 33.816 95.022 33.688 95.182 33.512ZM100.827 33.88C101.723 33.88 102.763 33.48 103.275 32.936L104.203 33.912C103.483 34.696 102.027 35.192 100.859 35.192C98.5712 35.192 96.5872 33.384 96.5872 30.84C96.5872 28.36 98.4592 26.536 100.747 26.536C103.275 26.536 104.747 28.424 104.747 31.368H98.1392C98.3312 32.824 99.3552 33.88 100.827 33.88ZM100.779 27.848C99.4512 27.848 98.3952 28.776 98.1552 30.2H103.211C103.051 28.872 102.219 27.848 100.779 27.848ZM119.137 35L118.161 32.712H112.465L111.489 35H109.697L114.417 24.008H116.209L120.929 35H119.137ZM113.073 31.304H117.553L115.313 26.088L113.073 31.304ZM126.936 26.536C129.128 26.536 130.744 28.328 130.744 30.856C130.744 33.4 129.128 35.192 126.936 35.192C125.672 35.192 124.648 34.584 124.008 33.576V37.752H122.424V26.728H124.008V28.136C124.648 27.144 125.672 26.536 126.936 26.536ZM126.568 33.816C128.072 33.816 129.144 32.584 129.144 30.856C129.144 29.128 128.072 27.912 126.568 27.912C125.064 27.912 124.008 29.128 124.008 30.856C124.008 32.584 125.064 33.816 126.568 33.816ZM137.049 26.536C139.241 26.536 140.857 28.328 140.857 30.856C140.857 33.4 139.241 35.192 137.049 35.192C135.785 35.192 134.761 34.584 134.121 33.576V37.752H132.537V26.728H134.121V28.136C134.761 27.144 135.785 26.536 137.049 26.536ZM136.681 33.816C138.185 33.816 139.257 32.584 139.257 30.856C139.257 29.128 138.185 27.912 136.681 27.912C135.177 27.912 134.121 29.128 134.121 30.856C134.121 32.584 135.177 33.816 136.681 33.816Z" fill="white"/>
<g clip-path="url(#clip0_9325_2964)">
<rect x="236.5" y="12" width="1" height="36" fill="#4F6169"/>
<path fill-rule="evenodd" clip-rule="evenodd" d="M276.08 24.2133L272.167 20.28C271.628 19.7443 270.758 19.7443 270.22 20.28L256.347 34.1333L255.08 39.6C254.992 40.0047 255.09 40.4277 255.349 40.7512C255.608 41.0747 255.999 41.2641 256.413 41.2666C256.509 41.2763 256.605 41.2763 256.7 41.2666L262.227 40L276.08 26.16C276.616 25.6216 276.616 24.7516 276.08 24.2133ZM261.56 38.8L256.38 39.8866L257.56 34.8066L267.94 24.4666L271.94 28.4666L261.56 38.8ZM268.833 23.5L272.833 27.5L275.087 25.1933L271.153 21.1933L268.833 23.5Z" fill="#E3EAED"/>
<path d="M291.212 34.168C288.552 34.168 286.284 31.886 286.284 29.184C286.284 26.482 288.552 24.214 291.212 24.214C292.542 24.214 293.774 24.774 294.67 25.684L293.928 26.44C293.228 25.698 292.262 25.222 291.212 25.222C289.14 25.222 287.39 27.042 287.39 29.184C287.39 31.34 289.14 33.16 291.212 33.16C292.262 33.16 293.228 32.684 293.928 31.942L294.67 32.698C293.774 33.594 292.542 34.168 291.212 34.168ZM299.419 34.168C297.361 34.168 295.681 32.46 295.681 30.374C295.681 28.288 297.361 26.594 299.419 26.594C301.463 26.594 303.143 28.288 303.143 30.374C303.143 32.46 301.463 34.168 299.419 34.168ZM299.419 33.23C300.861 33.23 302.051 31.942 302.051 30.374C302.051 28.806 300.861 27.532 299.419 27.532C297.963 27.532 296.773 28.806 296.773 30.374C296.773 31.942 297.963 33.23 299.419 33.23ZM312.678 26.594C314.19 26.594 315.254 27.756 315.254 29.394V34H314.204V29.534C314.204 28.358 313.518 27.532 312.538 27.532C311.39 27.532 310.578 28.302 310.578 29.394V34H309.528V29.534C309.528 28.358 308.842 27.532 307.862 27.532C306.714 27.532 305.902 28.302 305.902 29.394V34H304.852V26.762H305.902V27.826C306.266 27.07 307.05 26.594 308.002 26.594C309.15 26.594 310.046 27.266 310.41 28.316C310.634 27.294 311.53 26.594 312.678 26.594ZM321.108 26.594C323.012 26.594 324.44 28.162 324.44 30.374C324.44 32.6 323.012 34.168 321.108 34.168C319.946 34.168 319.022 33.594 318.476 32.642V36.408H317.426V26.762H318.476V28.12C319.022 27.168 319.946 26.594 321.108 26.594ZM320.912 33.23C322.326 33.23 323.334 32.04 323.334 30.374C323.334 28.708 322.326 27.532 320.912 27.532C319.484 27.532 318.476 28.708 318.476 30.374C318.476 32.04 319.484 33.23 320.912 33.23ZM329.321 34.168C327.263 34.168 325.583 32.46 325.583 30.374C325.583 28.288 327.263 26.594 329.321 26.594C331.365 26.594 333.045 28.288 333.045 30.374C333.045 32.46 331.365 34.168 329.321 34.168ZM329.321 33.23C330.763 33.23 331.953 31.942 331.953 30.374C331.953 28.806 330.763 27.532 329.321 27.532C327.865 27.532 326.675 28.806 326.675 30.374C326.675 31.942 327.865 33.23 329.321 33.23ZM336.993 34.168C335.985 34.168 334.865 33.79 333.997 33.09L334.543 32.32C335.369 32.922 336.195 33.23 336.993 33.23C337.945 33.23 338.589 32.782 338.589 32.096C338.589 31.312 337.749 31.06 336.769 30.78C335.019 30.276 334.347 29.758 334.347 28.722C334.347 27.406 335.439 26.594 336.881 26.594C337.777 26.594 338.701 26.902 339.471 27.406L338.967 28.218C338.239 27.756 337.525 27.532 336.881 27.532C336.069 27.532 335.397 27.896 335.397 28.596C335.397 29.226 335.929 29.422 337.273 29.856C338.435 30.22 339.639 30.612 339.639 31.984C339.639 33.314 338.491 34.168 336.993 34.168ZM344.391 33.23C345.245 33.23 346.225 32.852 346.673 32.362L347.317 33.048C346.687 33.734 345.413 34.168 344.405 34.168C342.473 34.168 340.737 32.586 340.737 30.36C340.737 28.204 342.361 26.594 344.307 26.594C346.491 26.594 347.737 28.246 347.737 30.78H341.815C341.969 32.194 342.963 33.23 344.391 33.23ZM344.349 27.532C343.061 27.532 342.025 28.442 341.829 29.842H346.701C346.561 28.54 345.791 27.532 344.349 27.532ZM350.451 28.176C350.885 27.21 351.921 26.594 353.251 26.594V27.532C351.613 27.532 350.451 28.54 350.451 29.954V34H349.401V26.762H350.451V28.176Z" fill="#E3EAED"/>
</g>
<defs>
<clipPath id="clip0_9325_2964">
<rect width="134" height="60" fill="white" transform="translate(236.5)"/>
</clipPath>
</defs>
</svg>
