<svg width="33" height="33" viewBox="0 0 33 33" fill="none" xmlns="http://www.w3.org/2000/svg">
<g clip-path="url(#clip0_569_15801)">
<path fill-rule="evenodd" clip-rule="evenodd" d="M16.8938 0.833252C8.05877 0.833252 0.894775 8.02475 0.894775 16.8978C0.894775 23.9938 5.47878 30.0145 11.8378 32.139C12.6378 32.2865 12.9298 31.7905 12.9298 31.365C12.9298 30.9835 12.9158 29.9735 12.9078 28.6333C8.45677 29.604 7.51778 26.4798 7.51778 26.4798C6.79078 24.6245 5.74178 24.1305 5.74178 24.1305C4.28878 23.1335 5.85178 23.1538 5.85178 23.1538C7.45678 23.2673 8.30178 24.8093 8.30178 24.8093C9.72978 27.264 12.0468 26.5553 12.9588 26.1435C13.1038 25.1055 13.5178 24.3975 13.9748 23.996C10.4218 23.5905 6.68678 22.213 6.68678 16.0578C6.68678 14.3038 7.30978 12.8703 8.33378 11.7468C8.16878 11.3403 7.61978 9.70775 8.48978 7.496C8.48978 7.496 9.83378 7.06425 12.8898 9.1425C14.1668 8.786 15.5348 8.6085 16.8958 8.60125C18.2548 8.60825 19.6238 8.786 20.9018 9.1425C23.9558 7.06425 25.2968 7.496 25.2968 7.496C26.1698 9.70775 25.6208 11.3403 25.4558 11.7468C26.4818 12.8703 27.1008 14.3038 27.1008 16.0578C27.1008 22.228 23.3598 23.5865 19.7958 23.984C20.3698 24.48 20.8818 25.4598 20.8818 26.9588C20.8818 29.1063 20.8618 30.838 20.8618 31.3653C20.8618 31.795 21.1498 32.295 21.9618 32.1373C28.3148 30.0085 32.8948 23.9918 32.8948 16.8978C32.8948 8.02475 25.7308 0.833252 16.8938 0.833252Z" fill="#4F6169"/>
</g>
<defs>
<clipPath id="clip0_569_15801">
<rect width="32" height="32" fill="white" transform="translate(0.894775 0.5)"/>
</clipPath>
</defs>
</svg>
