<svg width="36" height="21" viewBox="0 0 36 21" fill="none" xmlns="http://www.w3.org/2000/svg">
<path d="M10.1531 0.5C15.7608 0.5 20.3062 5.02667 20.3062 10.61C20.3062 16.1935 15.7604 20.7197 10.1531 20.7197C4.54612 20.7197 0 16.1935 0 10.61C0 5.02681 4.5457 0.5 10.1531 0.5ZM26.3672 1.09217C29.171 1.09217 31.4439 5.35307 31.4439 10.61H31.4443C31.4443 15.8657 29.1714 20.1279 26.3678 20.1279C23.5641 20.1279 21.291 15.8657 21.291 10.61C21.291 5.35446 23.5635 1.09217 26.3673 1.09217H26.3672ZM34.2145 2.08362C35.2004 2.08362 36 5.90102 36 10.6101C36 15.3178 35.2007 19.1367 34.2145 19.1367C33.2283 19.1367 32.4294 15.3189 32.4294 10.6101C32.4294 5.9013 33.2287 2.08362 34.2145 2.08362Z" fill="#4F6169"/>
</svg>
