<svg width="32" height="25" viewBox="0 0 32 25" fill="none" xmlns="http://www.w3.org/2000/svg">
<path d="M28.0017 6.34448C28.0202 6.61181 28.0202 6.87913 28.0202 7.14892C28.0202 15.3694 21.7637 24.8501 10.3234 24.8501V24.8452C6.94385 24.8501 3.63454 23.8819 0.789551 22.0562C1.28096 22.1153 1.77483 22.1449 2.26993 22.1461C5.07059 22.1486 7.79119 21.2086 9.99452 19.4778C7.33303 19.4273 4.99915 17.6916 4.18384 15.1575C5.11616 15.3374 6.0768 15.3004 6.99188 15.0503C4.09023 14.464 2.00268 11.9139 2.00268 8.95242C2.00268 8.92532 2.00268 8.89945 2.00268 8.87358C2.86726 9.35526 3.83529 9.62258 4.8255 9.65215C2.09258 7.82523 1.25017 4.18865 2.90051 1.34542C6.05833 5.23207 10.7175 7.59487 15.719 7.84494C15.2177 5.68418 15.9025 3.41994 17.5183 1.90101C20.0234 -0.454395 23.9633 -0.333668 26.3181 2.17079C27.7111 1.89608 29.0461 1.38484 30.2679 0.660479C29.8035 2.10057 28.8318 3.32386 27.5337 4.10119C28.7665 3.95582 29.971 3.62567 31.1053 3.12182C30.2703 4.37344 29.2185 5.46367 28.0017 6.34448Z" fill="#4F6169"/>
</svg>
