<svg width="233" height="240" viewBox="0 0 233 240" fill="none" xmlns="http://www.w3.org/2000/svg">
  <path d="M10.88 13.9911L16 19.2889L21.12 13.9911C21.4097 13.6904 21.4007 13.2119 21.1 12.9222C20.7993 12.6326 20.3208 12.6415 20.0311 12.9422L16 17.1155L11.9645 12.9422C11.6748 12.6415 11.1963 12.6326 10.8956 12.9222C10.5949 13.2119 10.5859 13.6904 10.8756 13.9911H10.88Z" fill="#CBD4D8"/>
  <mask id="mask0_13047_6074" style="mask-type:luminance" maskUnits="userSpaceOnUse" x="10" y="12" width="12" height="8">
    <path d="M10.88 13.9911L16 19.2889L21.12 13.9911C21.4097 13.6904 21.4007 13.2119 21.1 12.9222C20.7993 12.6326 20.3208 12.6415 20.0311 12.9422L16 17.1155L11.9645 12.9422C11.6748 12.6415 11.1963 12.6326 10.8956 12.9222C10.5949 13.2119 10.5859 13.6904 10.8756 13.9911H10.88Z" fill="white"/>
  </mask>
  <g mask="url(#mask0_13047_6074)">
    <rect x="24" y="24" width="16" height="16" transform="rotate(-180 24 24)" fill="#CBD4D8"/>
  </g>
  <path fill-rule="evenodd" clip-rule="evenodd" d="M54.6089 14.2222C54.8655 14.216 55.1079 14.3397 55.2534 14.5511C55.3826 14.7382 55.4171 14.9749 55.3467 15.1911L53.4845 21.9022C53.4275 22.0984 53.2441 22.2304 53.04 22.2222H41.96C41.627 22.2323 41.3478 21.9729 41.3334 21.64V11.5556C41.3334 11.0647 41.7313 10.6667 42.2223 10.6667H45.1067C45.3912 10.666 45.6589 10.8014 45.8267 11.0311L46.8534 12.4445H52.8889C53.3798 12.4445 53.7778 12.8424 53.7778 13.3334H46.6267C46.4845 13.3337 46.3506 13.266 46.2667 13.1511L45.1067 11.5556H42.2223V19.5556L43.52 14.96C43.5186 14.9393 43.5186 14.9185 43.52 14.8978C43.6992 14.5019 44.0859 14.2406 44.52 14.2222H54.6089ZM42.6223 21.3334H52.6889L54.44 15.0889H44.5156C44.4486 15.1036 44.3888 15.1414 44.3467 15.1956L42.6223 21.3334Z" fill="#E3EAED"/>
  <path d="M72.294 20L71.397 17.972H66.418L65.521 20H64.416L68.355 11.069H69.46L73.399 20H72.294ZM66.834 17.01H70.981L68.914 12.317L66.834 17.01ZM78.2115 13.123C79.9795 13.123 81.3055 14.579 81.3055 16.633C81.3055 18.7 79.9795 20.156 78.2115 20.156C77.1325 20.156 76.2745 19.623 75.7675 18.739V22.236H74.7925V13.279H75.7675V14.54C76.2745 13.656 77.1325 13.123 78.2115 13.123ZM78.0295 19.285C79.3425 19.285 80.2785 18.18 80.2785 16.633C80.2785 15.086 79.3425 13.994 78.0295 13.994C76.7035 13.994 75.7675 15.086 75.7675 16.633C75.7675 18.18 76.7035 19.285 78.0295 19.285ZM86.4015 13.123C88.1695 13.123 89.4955 14.579 89.4955 16.633C89.4955 18.7 88.1695 20.156 86.4015 20.156C85.3225 20.156 84.4645 19.623 83.9575 18.739V22.236H82.9825V13.279H83.9575V14.54C84.4645 13.656 85.3225 13.123 86.4015 13.123ZM86.2195 19.285C87.5325 19.285 88.4685 18.18 88.4685 16.633C88.4685 15.086 87.5325 13.994 86.2195 13.994C84.8935 13.994 83.9575 15.086 83.9575 16.633C83.9575 18.18 84.8935 19.285 86.2195 19.285ZM91.0816 20V10.913H92.0566V20H91.0816ZM94.4079 12.057C94.0439 12.057 93.7579 11.758 93.7579 11.407C93.7579 11.069 94.0439 10.77 94.4079 10.77C94.7589 10.77 95.0449 11.069 95.0449 11.407C95.0449 11.758 94.7589 12.057 94.4079 12.057ZM93.9139 20V13.279H94.8889V20H93.9139ZM99.8668 20.156C97.9818 20.156 96.3828 18.544 96.3828 16.633C96.3828 14.722 97.9818 13.123 99.8668 13.123C100.777 13.123 101.622 13.5 102.259 14.111L101.583 14.774C101.141 14.293 100.53 13.994 99.8668 13.994C98.5278 13.994 97.4098 15.203 97.4098 16.633C97.4098 18.076 98.5278 19.285 99.8668 19.285C100.543 19.285 101.167 18.973 101.622 18.466L102.298 19.129C101.661 19.766 100.803 20.156 99.8668 20.156ZM106.423 13.123C108.256 13.123 109.153 14.28 109.153 15.905V20H108.178V18.947C107.697 19.74 106.696 20.156 105.812 20.156C104.395 20.156 103.355 19.337 103.355 18.011C103.355 16.672 104.551 15.775 105.994 15.775C106.722 15.775 107.489 15.931 108.178 16.152V15.905C108.178 14.995 107.814 13.955 106.358 13.955C105.682 13.955 105.006 14.254 104.395 14.566L104.005 13.773C104.967 13.292 105.773 13.123 106.423 13.123ZM105.981 19.298C106.865 19.298 107.918 18.843 108.178 17.894V16.867C107.567 16.698 106.878 16.594 106.15 16.594C105.149 16.594 104.304 17.166 104.304 17.972C104.304 18.804 105.032 19.298 105.981 19.298ZM113.996 19.012L114.477 19.727C114.126 20 113.684 20.156 113.229 20.156C112.267 20.156 111.591 19.441 111.591 18.44V14.15H110.538V13.279H111.591V11.433H112.566V13.279H114.217V14.15H112.566V18.44C112.566 18.934 112.904 19.285 113.294 19.285C113.593 19.285 113.853 19.168 113.996 19.012ZM116.237 12.057C115.873 12.057 115.587 11.758 115.587 11.407C115.587 11.069 115.873 10.77 116.237 10.77C116.588 10.77 116.874 11.069 116.874 11.407C116.874 11.758 116.588 12.057 116.237 12.057ZM115.743 20V13.279H116.718V20H115.743ZM121.696 20.156C119.811 20.156 118.212 18.544 118.212 16.633C118.212 14.722 119.811 13.123 121.696 13.123C123.581 13.123 125.167 14.722 125.167 16.633C125.167 18.544 123.581 20.156 121.696 20.156ZM121.696 19.285C123.022 19.285 124.14 18.076 124.14 16.633C124.14 15.203 123.022 13.994 121.696 13.994C120.357 13.994 119.239 15.203 119.239 16.633C119.239 18.076 120.357 19.285 121.696 19.285ZM129.875 13.123C131.357 13.123 132.397 14.202 132.397 15.723V20H131.422V15.853C131.422 14.761 130.733 13.994 129.745 13.994C128.614 13.994 127.665 14.787 127.665 15.723V20H126.69V13.279H127.665V14.358C128.055 13.643 128.926 13.123 129.875 13.123ZM136.65 20.156C135.714 20.156 134.674 19.805 133.868 19.155L134.375 18.44C135.142 18.999 135.909 19.285 136.65 19.285C137.534 19.285 138.132 18.869 138.132 18.232C138.132 17.504 137.352 17.27 136.442 17.01C134.817 16.542 134.193 16.061 134.193 15.099C134.193 13.877 135.207 13.123 136.546 13.123C137.378 13.123 138.236 13.409 138.951 13.877L138.483 14.631C137.807 14.202 137.144 13.994 136.546 13.994C135.792 13.994 135.168 14.332 135.168 14.982C135.168 15.567 135.662 15.749 136.91 16.152C137.989 16.49 139.107 16.854 139.107 18.128C139.107 19.363 138.041 20.156 136.65 20.156Z" fill="#E3EAED"/>
  <path d="M45.9912 53.12L51.2889 48L45.9912 42.88C45.6905 42.5904 45.2119 42.5993 44.9223 42.9C44.6326 43.2007 44.6416 43.6793 44.9423 43.9689L49.1156 48L44.9423 52.0356C44.6416 52.3252 44.6326 52.8038 44.9223 53.1045C45.2119 53.4052 45.6905 53.4141 45.9912 53.1245L45.9912 53.12Z" fill="#4F6169"/>
  <mask id="mask1_13047_6074" style="mask-type:luminance" maskUnits="userSpaceOnUse" x="44" y="42" width="8" height="12">
    <path d="M45.9912 53.12L51.2889 48L45.9912 42.88C45.6905 42.5904 45.2119 42.5993 44.9223 42.9C44.6326 43.2007 44.6416 43.6793 44.9423 43.9689L49.1156 48L44.9423 52.0356C44.6416 52.3252 44.6326 52.8038 44.9223 53.1045C45.2119 53.4052 45.6905 53.4141 45.9912 53.1245L45.9912 53.12Z" fill="white"/>
  </mask>
  <g mask="url(#mask1_13047_6074)">
    <rect x="56" y="40" width="16" height="16" transform="rotate(90 56 40)" fill="#4F6169"/>
  </g>
  <path fill-rule="evenodd" clip-rule="evenodd" d="M86.6089 46.2222C86.8655 46.216 87.1079 46.3397 87.2534 46.5511C87.3826 46.7382 87.4171 46.9749 87.3467 47.1911L85.4845 53.9022C85.4275 54.0984 85.2441 54.2304 85.04 54.2222H73.96C73.627 54.2323 73.3478 53.9729 73.3334 53.64V43.5556C73.3334 43.0647 73.7313 42.6667 74.2223 42.6667H77.1067C77.3912 42.666 77.6589 42.8014 77.8267 43.0311L78.8534 44.4445H84.8889C85.3798 44.4445 85.7778 44.8424 85.7778 45.3334H78.6267C78.4845 45.3337 78.3506 45.266 78.2667 45.1511L77.1067 43.5556H74.2223V51.5556L75.52 46.96C75.5186 46.9393 75.5186 46.9185 75.52 46.8978C75.6992 46.5019 76.0859 46.2406 76.52 46.2222H86.6089ZM74.6223 53.3334H84.6889L86.44 47.0889H76.5156C76.4486 47.1036 76.3888 47.1414 76.3467 47.1956L74.6223 53.3334Z" fill="#4F6169"/>
  <path d="M97.027 52V43.069H98.041V52H97.027ZM107.227 45.123C108.631 45.123 109.619 46.202 109.619 47.723V52H108.644V47.853C108.644 46.761 108.007 45.994 107.097 45.994C106.031 45.994 105.277 46.709 105.277 47.723V52H104.302V47.853C104.302 46.761 103.665 45.994 102.755 45.994C101.689 45.994 100.935 46.709 100.935 47.723V52H99.9603V45.279H100.935V46.267C101.273 45.565 102.001 45.123 102.885 45.123C103.899 45.123 104.692 45.682 105.056 46.553C105.329 45.682 106.213 45.123 107.227 45.123ZM114.219 45.123C116.052 45.123 116.949 46.28 116.949 47.905V52H115.974V50.947C115.493 51.74 114.492 52.156 113.608 52.156C112.191 52.156 111.151 51.337 111.151 50.011C111.151 48.672 112.347 47.775 113.79 47.775C114.518 47.775 115.285 47.931 115.974 48.152V47.905C115.974 46.995 115.61 45.955 114.154 45.955C113.478 45.955 112.802 46.254 112.191 46.566L111.801 45.773C112.763 45.292 113.569 45.123 114.219 45.123ZM113.777 51.298C114.661 51.298 115.714 50.843 115.974 49.894V48.867C115.363 48.698 114.674 48.594 113.946 48.594C112.945 48.594 112.1 49.166 112.1 49.972C112.1 50.804 112.828 51.298 113.777 51.298ZM124.067 45.279H125.042V51.285C125.042 53.014 123.677 54.236 121.74 54.236C120.648 54.236 119.634 53.859 119.023 53.339L119.452 52.572C119.972 53.066 120.778 53.365 121.61 53.365C123.157 53.365 124.067 52.598 124.067 51.285V50.193C123.547 51.012 122.689 51.506 121.623 51.506C119.816 51.506 118.529 50.18 118.529 48.308C118.529 46.436 119.816 45.123 121.623 45.123C122.689 45.123 123.547 45.617 124.067 46.436V45.279ZM121.805 50.635C123.131 50.635 124.067 49.673 124.067 48.308C124.067 46.956 123.131 45.994 121.805 45.994C120.492 45.994 119.556 46.956 119.556 48.308C119.556 49.673 120.492 50.635 121.805 50.635ZM130.035 51.285C130.828 51.285 131.738 50.934 132.154 50.479L132.752 51.116C132.167 51.753 130.984 52.156 130.048 52.156C128.254 52.156 126.642 50.687 126.642 48.62C126.642 46.618 128.15 45.123 129.957 45.123C131.985 45.123 133.142 46.657 133.142 49.01H127.643C127.786 50.323 128.709 51.285 130.035 51.285ZM129.996 45.994C128.8 45.994 127.838 46.839 127.656 48.139H132.18C132.05 46.93 131.335 45.994 129.996 45.994ZM137.016 52.156C136.08 52.156 135.04 51.805 134.234 51.155L134.741 50.44C135.508 50.999 136.275 51.285 137.016 51.285C137.9 51.285 138.498 50.869 138.498 50.232C138.498 49.504 137.718 49.27 136.808 49.01C135.183 48.542 134.559 48.061 134.559 47.099C134.559 45.877 135.573 45.123 136.912 45.123C137.744 45.123 138.602 45.409 139.317 45.877L138.849 46.631C138.173 46.202 137.51 45.994 136.912 45.994C136.158 45.994 135.534 46.332 135.534 46.982C135.534 47.567 136.028 47.749 137.276 48.152C138.355 48.49 139.473 48.854 139.473 50.128C139.473 51.363 138.407 52.156 137.016 52.156Z" fill="#6A7A81"/>
  <path d="M45.9912 85.12L51.2889 80L45.9912 74.88C45.6905 74.5904 45.2119 74.5993 44.9223 74.9C44.6326 75.2007 44.6416 75.6793 44.9423 75.9689L49.1156 80L44.9423 84.0356C44.6416 84.3252 44.6326 84.8038 44.9223 85.1045C45.2119 85.4052 45.6905 85.4141 45.9912 85.1245L45.9912 85.12Z" fill="#CBD4D8"/>
  <mask id="mask2_13047_6074" style="mask-type:luminance" maskUnits="userSpaceOnUse" x="44" y="74" width="8" height="12">
    <path d="M45.9912 85.12L51.2889 80L45.9912 74.88C45.6905 74.5904 45.2119 74.5993 44.9223 74.9C44.6326 75.2007 44.6416 75.6793 44.9423 75.9689L49.1156 80L44.9423 84.0356C44.6416 84.3252 44.6326 84.8038 44.9223 85.1045C45.2119 85.4052 45.6905 85.4141 45.9912 85.1245L45.9912 85.12Z" fill="white"/>
  </mask>
  <g mask="url(#mask2_13047_6074)">
    <rect x="56" y="72" width="16" height="16" transform="rotate(90 56 72)" fill="#CBD4D8"/>
  </g>
  <path fill-rule="evenodd" clip-rule="evenodd" d="M86.6089 78.2222C86.8655 78.216 87.1079 78.3397 87.2534 78.5511C87.3826 78.7382 87.4171 78.9749 87.3467 79.1911L85.4845 85.9022C85.4275 86.0984 85.2441 86.2304 85.04 86.2222H73.96C73.627 86.2323 73.3478 85.9729 73.3334 85.64V75.5556C73.3334 75.0647 73.7313 74.6667 74.2223 74.6667H77.1067C77.3912 74.666 77.6589 74.8014 77.8267 75.0311L78.8534 76.4445H84.8889C85.3798 76.4445 85.7778 76.8424 85.7778 77.3334H78.6267C78.4845 77.3337 78.3506 77.266 78.2667 77.1511L77.1067 75.5556H74.2223V83.5556L75.52 78.96C75.5186 78.9393 75.5186 78.9185 75.52 78.8978C75.6992 78.5019 76.0859 78.2406 76.52 78.2222H86.6089ZM74.6223 85.3334H84.6889L86.44 79.0889H76.5156C76.4486 79.1036 76.3888 79.1414 76.3467 79.1956L74.6223 85.3334Z" fill="#E3EAED"/>
  <path d="M103.436 76.031H98.054V78.969H102.903V79.931H98.054V84H97.027V75.069H103.436V76.031ZM105.291 76.057C104.927 76.057 104.641 75.758 104.641 75.407C104.641 75.069 104.927 74.77 105.291 74.77C105.642 74.77 105.928 75.069 105.928 75.407C105.928 75.758 105.642 76.057 105.291 76.057ZM104.797 84V77.279H105.772V84H104.797ZM107.63 84V74.913H108.605V84H107.63ZM113.504 83.285C114.297 83.285 115.207 82.934 115.623 82.479L116.221 83.116C115.636 83.753 114.453 84.156 113.517 84.156C111.723 84.156 110.111 82.687 110.111 80.62C110.111 78.618 111.619 77.123 113.426 77.123C115.454 77.123 116.611 78.657 116.611 81.01H111.112C111.255 82.323 112.178 83.285 113.504 83.285ZM113.465 77.994C112.269 77.994 111.307 78.839 111.125 80.139H115.649C115.519 78.93 114.804 77.994 113.465 77.994ZM120.486 84.156C119.55 84.156 118.51 83.805 117.704 83.155L118.211 82.44C118.978 82.999 119.745 83.285 120.486 83.285C121.37 83.285 121.968 82.869 121.968 82.232C121.968 81.504 121.188 81.27 120.278 81.01C118.653 80.542 118.029 80.061 118.029 79.099C118.029 77.877 119.043 77.123 120.382 77.123C121.214 77.123 122.072 77.409 122.787 77.877L122.319 78.631C121.643 78.202 120.98 77.994 120.382 77.994C119.628 77.994 119.004 78.332 119.004 78.982C119.004 79.567 119.498 79.749 120.746 80.152C121.825 80.49 122.943 80.854 122.943 82.128C122.943 83.363 121.877 84.156 120.486 84.156Z" fill="#CBD4D8"/>
  <path d="M10.88 125.991L16 131.289L21.12 125.991C21.4097 125.69 21.4007 125.212 21.1 124.922C20.7993 124.633 20.3208 124.642 20.0311 124.942L16 129.116L11.9645 124.942C11.6748 124.642 11.1963 124.633 10.8956 124.922C10.5949 125.212 10.5859 125.69 10.8756 125.991H10.88Z" fill="#CBD4D8"/>
  <mask id="mask3_13047_6074" style="mask-type:luminance" maskUnits="userSpaceOnUse" x="10" y="124" width="12" height="8">
    <path d="M10.88 125.991L16 131.289L21.12 125.991C21.4097 125.69 21.4007 125.212 21.1 124.922C20.7993 124.633 20.3208 124.642 20.0311 124.942L16 129.116L11.9645 124.942C11.6748 124.642 11.1963 124.633 10.8956 124.922C10.5949 125.212 10.5859 125.69 10.8756 125.991H10.88Z" fill="white"/>
  </mask>
  <g mask="url(#mask3_13047_6074)">
    <rect x="24" y="136" width="16" height="16" transform="rotate(-180 24 136)" fill="#CBD4D8"/>
  </g>
  <rect x="40.5" y="120.5" width="15" height="15" rx="3.5" stroke="#2EC0FF" stroke-linecap="square"/>
  <rect x="44" y="127" width="8" height="2" fill="#2EC0FF"/>
  <path d="M61.027 132V123.069H64.654C66.5 123.069 67.943 124.252 67.943 125.929C67.943 127.606 66.5 128.789 64.654 128.789H62.041V132H61.027ZM62.041 127.827H64.472C65.928 127.827 66.916 127.125 66.916 125.929C66.916 124.733 65.928 124.031 64.472 124.031H62.041V127.827ZM72.2832 131.285C73.0762 131.285 73.9862 130.934 74.4022 130.479L75.0002 131.116C74.4152 131.753 73.2322 132.156 72.2962 132.156C70.5022 132.156 68.8902 130.687 68.8902 128.62C68.8902 126.618 70.3982 125.123 72.2052 125.123C74.2332 125.123 75.3902 126.657 75.3902 129.01H69.8912C70.0342 130.323 70.9572 131.285 72.2832 131.285ZM72.2442 125.994C71.0482 125.994 70.0862 126.839 69.9042 128.139H74.4282C74.2982 126.93 73.5832 125.994 72.2442 125.994ZM77.9517 126.592C78.3547 125.695 79.3167 125.123 80.5517 125.123V125.994C79.0307 125.994 77.9517 126.93 77.9517 128.243V132H76.9767V125.279H77.9517V126.592ZM89.0673 125.123C90.4713 125.123 91.4593 126.202 91.4593 127.723V132H90.4843V127.853C90.4843 126.761 89.8473 125.994 88.9373 125.994C87.8713 125.994 87.1173 126.709 87.1173 127.723V132H86.1423V127.853C86.1423 126.761 85.5053 125.994 84.5953 125.994C83.5293 125.994 82.7753 126.709 82.7753 127.723V132H81.8003V125.279H82.7753V126.267C83.1133 125.565 83.8413 125.123 84.7253 125.123C85.7393 125.123 86.5323 125.682 86.8963 126.553C87.1693 125.682 88.0533 125.123 89.0673 125.123ZM93.8102 124.057C93.4462 124.057 93.1602 123.758 93.1602 123.407C93.1602 123.069 93.4462 122.77 93.8102 122.77C94.1612 122.77 94.4472 123.069 94.4472 123.407C94.4472 123.758 94.1612 124.057 93.8102 124.057ZM93.3162 132V125.279H94.2912V132H93.3162ZM98.5281 132.156C97.5921 132.156 96.5521 131.805 95.7461 131.155L96.2531 130.44C97.0201 130.999 97.7871 131.285 98.5281 131.285C99.4121 131.285 100.01 130.869 100.01 130.232C100.01 129.504 99.2301 129.27 98.3201 129.01C96.6951 128.542 96.0711 128.061 96.0711 127.099C96.0711 125.877 97.0851 125.123 98.4241 125.123C99.2561 125.123 100.114 125.409 100.829 125.877L100.361 126.631C99.6851 126.202 99.0221 125.994 98.4241 125.994C97.6701 125.994 97.0461 126.332 97.0461 126.982C97.0461 127.567 97.5401 127.749 98.7881 128.152C99.8671 128.49 100.985 128.854 100.985 130.128C100.985 131.363 99.9191 132.156 98.5281 132.156ZM104.877 132.156C103.941 132.156 102.901 131.805 102.095 131.155L102.602 130.44C103.369 130.999 104.136 131.285 104.877 131.285C105.761 131.285 106.359 130.869 106.359 130.232C106.359 129.504 105.579 129.27 104.669 129.01C103.044 128.542 102.42 128.061 102.42 127.099C102.42 125.877 103.434 125.123 104.773 125.123C105.605 125.123 106.463 125.409 107.178 125.877L106.71 126.631C106.034 126.202 105.371 125.994 104.773 125.994C104.019 125.994 103.395 126.332 103.395 126.982C103.395 127.567 103.889 127.749 105.137 128.152C106.216 128.49 107.334 128.854 107.334 130.128C107.334 131.363 106.268 132.156 104.877 132.156ZM109.329 124.057C108.965 124.057 108.679 123.758 108.679 123.407C108.679 123.069 108.965 122.77 109.329 122.77C109.68 122.77 109.966 123.069 109.966 123.407C109.966 123.758 109.68 124.057 109.329 124.057ZM108.835 132V125.279H109.81V132H108.835ZM114.787 132.156C112.902 132.156 111.303 130.544 111.303 128.633C111.303 126.722 112.902 125.123 114.787 125.123C116.672 125.123 118.258 126.722 118.258 128.633C118.258 130.544 116.672 132.156 114.787 132.156ZM114.787 131.285C116.113 131.285 117.231 130.076 117.231 128.633C117.231 127.203 116.113 125.994 114.787 125.994C113.448 125.994 112.33 127.203 112.33 128.633C112.33 130.076 113.448 131.285 114.787 131.285ZM122.967 125.123C124.449 125.123 125.489 126.202 125.489 127.723V132H124.514V127.853C124.514 126.761 123.825 125.994 122.837 125.994C121.706 125.994 120.757 126.787 120.757 127.723V132H119.782V125.279H120.757V126.358C121.147 125.643 122.018 125.123 122.967 125.123ZM129.741 132.156C128.805 132.156 127.765 131.805 126.959 131.155L127.466 130.44C128.233 130.999 129 131.285 129.741 131.285C130.625 131.285 131.223 130.869 131.223 130.232C131.223 129.504 130.443 129.27 129.533 129.01C127.908 128.542 127.284 128.061 127.284 127.099C127.284 125.877 128.298 125.123 129.637 125.123C130.469 125.123 131.327 125.409 132.042 125.877L131.574 126.631C130.898 126.202 130.235 125.994 129.637 125.994C128.883 125.994 128.259 126.332 128.259 126.982C128.259 127.567 128.753 127.749 130.001 128.152C131.08 128.49 132.198 128.854 132.198 130.128C132.198 131.363 131.132 132.156 129.741 132.156Z" fill="#E3EAED"/>
  <path d="M45.9912 165.12L51.2889 160L45.9912 154.88C45.6905 154.59 45.2119 154.599 44.9223 154.9C44.6326 155.201 44.6416 155.679 44.9423 155.969L49.1156 160L44.9423 164.036C44.6416 164.325 44.6326 164.804 44.9223 165.104C45.2119 165.405 45.6905 165.414 45.9912 165.124L45.9912 165.12Z" fill="#CBD4D8"/>
  <mask id="mask4_13047_6074" style="mask-type:luminance" maskUnits="userSpaceOnUse" x="44" y="154" width="8" height="12">
    <path d="M45.9912 165.12L51.2889 160L45.9912 154.88C45.6905 154.59 45.2119 154.599 44.9223 154.9C44.6326 155.201 44.6416 155.679 44.9423 155.969L49.1156 160L44.9423 164.036C44.6416 164.325 44.6326 164.804 44.9223 165.104C45.2119 165.405 45.6905 165.414 45.9912 165.124L45.9912 165.12Z" fill="white"/>
  </mask>
  <g mask="url(#mask4_13047_6074)">
    <rect x="56" y="152" width="16" height="16" transform="rotate(90 56 152)" fill="#CBD4D8"/>
  </g>
  <rect x="72.5" y="152.5" width="15" height="15" rx="3.5" stroke="#2EC0FF" stroke-linecap="square"/>
  <rect x="76" y="159" width="8" height="2" fill="#2EC0FF"/>
  <path d="M100.294 164L99.397 161.972H94.418L93.521 164H92.416L96.355 155.069H97.46L101.399 164H100.294ZM94.834 161.01H98.981L96.914 156.317L94.834 161.01ZM107.433 157.279H108.408V164H107.433V162.921C107.043 163.636 106.172 164.156 105.223 164.156C103.741 164.156 102.701 163.077 102.701 161.556V157.279H103.676V161.426C103.676 162.518 104.365 163.285 105.353 163.285C106.484 163.285 107.433 162.492 107.433 161.556V157.279ZM113.246 163.012L113.727 163.727C113.376 164 112.934 164.156 112.479 164.156C111.517 164.156 110.841 163.441 110.841 162.44V158.15H109.788V157.279H110.841V155.433H111.816V157.279H113.467V158.15H111.816V162.44C111.816 162.934 112.154 163.285 112.544 163.285C112.843 163.285 113.103 163.168 113.246 163.012ZM118.204 157.123C119.686 157.123 120.726 158.202 120.726 159.723V164H119.751V159.853C119.751 158.761 119.062 157.994 118.074 157.994C116.943 157.994 115.994 158.787 115.994 159.723V164H115.019V154.913H115.994V158.358C116.384 157.643 117.255 157.123 118.204 157.123ZM125.629 163.285C126.422 163.285 127.332 162.934 127.748 162.479L128.346 163.116C127.761 163.753 126.578 164.156 125.642 164.156C123.848 164.156 122.236 162.687 122.236 160.62C122.236 158.618 123.744 157.123 125.551 157.123C127.579 157.123 128.736 158.657 128.736 161.01H123.237C123.38 162.323 124.303 163.285 125.629 163.285ZM125.59 157.994C124.394 157.994 123.432 158.839 123.25 160.139H127.774C127.644 158.93 126.929 157.994 125.59 157.994ZM133.429 157.123C134.911 157.123 135.951 158.202 135.951 159.723V164H134.976V159.853C134.976 158.761 134.287 157.994 133.299 157.994C132.168 157.994 131.219 158.787 131.219 159.723V164H130.244V157.279H131.219V158.358C131.609 157.643 132.48 157.123 133.429 157.123ZM140.776 163.012L141.257 163.727C140.906 164 140.464 164.156 140.009 164.156C139.047 164.156 138.371 163.441 138.371 162.44V158.15H137.318V157.279H138.371V155.433H139.346V157.279H140.997V158.15H139.346V162.44C139.346 162.934 139.684 163.285 140.074 163.285C140.373 163.285 140.633 163.168 140.776 163.012ZM143.017 156.057C142.653 156.057 142.367 155.758 142.367 155.407C142.367 155.069 142.653 154.77 143.017 154.77C143.368 154.77 143.654 155.069 143.654 155.407C143.654 155.758 143.368 156.057 143.017 156.057ZM142.523 164V157.279H143.498V164H142.523ZM148.476 164.156C146.591 164.156 144.992 162.544 144.992 160.633C144.992 158.722 146.591 157.123 148.476 157.123C149.386 157.123 150.231 157.5 150.868 158.111L150.192 158.774C149.75 158.293 149.139 157.994 148.476 157.994C147.137 157.994 146.019 159.203 146.019 160.633C146.019 162.076 147.137 163.285 148.476 163.285C149.152 163.285 149.776 162.973 150.231 162.466L150.907 163.129C150.27 163.766 149.412 164.156 148.476 164.156ZM155.032 157.123C156.865 157.123 157.762 158.28 157.762 159.905V164H156.787V162.947C156.306 163.74 155.305 164.156 154.421 164.156C153.004 164.156 151.964 163.337 151.964 162.011C151.964 160.672 153.16 159.775 154.603 159.775C155.331 159.775 156.098 159.931 156.787 160.152V159.905C156.787 158.995 156.423 157.955 154.967 157.955C154.291 157.955 153.615 158.254 153.004 158.566L152.614 157.773C153.576 157.292 154.382 157.123 155.032 157.123ZM154.59 163.298C155.474 163.298 156.527 162.843 156.787 161.894V160.867C156.176 160.698 155.487 160.594 154.759 160.594C153.758 160.594 152.913 161.166 152.913 161.972C152.913 162.804 153.641 163.298 154.59 163.298ZM162.605 163.012L163.086 163.727C162.735 164 162.293 164.156 161.838 164.156C160.876 164.156 160.2 163.441 160.2 162.44V158.15H159.147V157.279H160.2V155.433H161.175V157.279H162.826V158.15H161.175V162.44C161.175 162.934 161.513 163.285 161.903 163.285C162.202 163.285 162.462 163.168 162.605 163.012ZM167.395 163.285C168.188 163.285 169.098 162.934 169.514 162.479L170.112 163.116C169.527 163.753 168.344 164.156 167.408 164.156C165.614 164.156 164.002 162.687 164.002 160.62C164.002 158.618 165.51 157.123 167.317 157.123C169.345 157.123 170.502 158.657 170.502 161.01H165.003C165.146 162.323 166.069 163.285 167.395 163.285ZM167.356 157.994C166.16 157.994 165.198 158.839 165.016 160.139H169.54C169.41 158.93 168.695 157.994 167.356 157.994ZM177.249 154.913H178.224V164H177.249V162.739C176.742 163.623 175.884 164.156 174.805 164.156C173.037 164.156 171.711 162.7 171.711 160.633C171.711 158.579 173.037 157.123 174.805 157.123C175.884 157.123 176.742 157.656 177.249 158.54V154.913ZM174.987 163.285C176.313 163.285 177.249 162.18 177.249 160.633C177.249 159.086 176.313 157.994 174.987 157.994C173.674 157.994 172.738 159.086 172.738 160.633C172.738 162.18 173.674 163.285 174.987 163.285ZM188.59 157.279H189.565V164H188.59V162.921C188.2 163.636 187.329 164.156 186.38 164.156C184.898 164.156 183.858 163.077 183.858 161.556V157.279H184.833V161.426C184.833 162.518 185.522 163.285 186.51 163.285C187.641 163.285 188.59 162.492 188.59 161.556V157.279ZM193.83 164.156C192.894 164.156 191.854 163.805 191.048 163.155L191.555 162.44C192.322 162.999 193.089 163.285 193.83 163.285C194.714 163.285 195.312 162.869 195.312 162.232C195.312 161.504 194.532 161.27 193.622 161.01C191.997 160.542 191.373 160.061 191.373 159.099C191.373 157.877 192.387 157.123 193.726 157.123C194.558 157.123 195.416 157.409 196.131 157.877L195.663 158.631C194.987 158.202 194.324 157.994 193.726 157.994C192.972 157.994 192.348 158.332 192.348 158.982C192.348 159.567 192.842 159.749 194.09 160.152C195.169 160.49 196.287 160.854 196.287 162.128C196.287 163.363 195.221 164.156 193.83 164.156ZM200.829 163.285C201.622 163.285 202.532 162.934 202.948 162.479L203.546 163.116C202.961 163.753 201.778 164.156 200.842 164.156C199.048 164.156 197.436 162.687 197.436 160.62C197.436 158.618 198.944 157.123 200.751 157.123C202.779 157.123 203.936 158.657 203.936 161.01H198.437C198.58 162.323 199.503 163.285 200.829 163.285ZM200.79 157.994C199.594 157.994 198.632 158.839 198.45 160.139H202.974C202.844 158.93 202.129 157.994 200.79 157.994ZM206.498 158.592C206.901 157.695 207.863 157.123 209.098 157.123V157.994C207.577 157.994 206.498 158.93 206.498 160.243V164H205.523V157.279H206.498V158.592ZM212.725 164.156C211.789 164.156 210.749 163.805 209.943 163.155L210.45 162.44C211.217 162.999 211.984 163.285 212.725 163.285C213.609 163.285 214.207 162.869 214.207 162.232C214.207 161.504 213.427 161.27 212.517 161.01C210.892 160.542 210.268 160.061 210.268 159.099C210.268 157.877 211.282 157.123 212.621 157.123C213.453 157.123 214.311 157.409 215.026 157.877L214.558 158.631C213.882 158.202 213.219 157.994 212.621 157.994C211.867 157.994 211.243 158.332 211.243 158.982C211.243 159.567 211.737 159.749 212.985 160.152C214.064 160.49 215.182 160.854 215.182 162.128C215.182 163.363 214.116 164.156 212.725 164.156Z" fill="#CBD4D8"/>
  <path d="M45.9912 197.12L51.2889 192L45.9912 186.88C45.6905 186.59 45.2119 186.599 44.9223 186.9C44.6326 187.201 44.6416 187.679 44.9423 187.969L49.1156 192L44.9423 196.036C44.6416 196.325 44.6326 196.804 44.9223 197.104C45.2119 197.405 45.6905 197.414 45.9912 197.124L45.9912 197.12Z" fill="#CBD4D8"/>
  <mask id="mask5_13047_6074" style="mask-type:luminance" maskUnits="userSpaceOnUse" x="44" y="186" width="8" height="12">
    <path d="M45.9912 197.12L51.2889 192L45.9912 186.88C45.6905 186.59 45.2119 186.599 44.9223 186.9C44.6326 187.201 44.6416 187.679 44.9423 187.969L49.1156 192L44.9423 196.036C44.6416 196.325 44.6326 196.804 44.9223 197.104C45.2119 197.405 45.6905 197.414 45.9912 197.124L45.9912 197.12Z" fill="white"/>
  </mask>
  <g mask="url(#mask5_13047_6074)">
    <rect x="56" y="184" width="16" height="16" transform="rotate(90 56 184)" fill="#CBD4D8"/>
  </g>
  <rect x="72" y="184" width="16" height="16" rx="4" fill="#2EC0FF"/>
  <path d="M76.52 191.735L79.732 194.549L84.52 189.38" stroke="#1B2B32" stroke-width="2" stroke-linecap="round"/>
  <path d="M97.252 196.156C94.782 196.156 92.676 194.037 92.676 191.528C92.676 189.019 94.782 186.913 97.252 186.913C99.735 186.913 101.815 189.019 101.815 191.528C101.815 194.037 99.735 196.156 97.252 196.156ZM97.252 195.22C99.176 195.22 100.788 193.53 100.788 191.528C100.788 189.539 99.176 187.849 97.252 187.849C95.328 187.849 93.703 189.539 93.703 191.528C93.703 193.53 95.328 195.22 97.252 195.22ZM105.09 196L102.841 189.279H103.881L105.558 194.7L107.391 189.279H108.236L110.069 194.7L111.746 189.279H112.786L110.524 196H109.601L107.82 190.631L106.013 196H105.09ZM117.301 189.123C118.783 189.123 119.823 190.202 119.823 191.723V196H118.848V191.853C118.848 190.761 118.159 189.994 117.171 189.994C116.04 189.994 115.091 190.787 115.091 191.723V196H114.116V189.279H115.091V190.358C115.481 189.643 116.352 189.123 117.301 189.123ZM124.726 195.285C125.519 195.285 126.429 194.934 126.845 194.479L127.443 195.116C126.858 195.753 125.675 196.156 124.739 196.156C122.945 196.156 121.333 194.687 121.333 192.62C121.333 190.618 122.841 189.123 124.648 189.123C126.676 189.123 127.833 190.657 127.833 193.01H122.334C122.477 194.323 123.4 195.285 124.726 195.285ZM124.687 189.994C123.491 189.994 122.529 190.839 122.347 192.139H126.871C126.741 190.93 126.026 189.994 124.687 189.994ZM130.394 190.592C130.797 189.695 131.759 189.123 132.994 189.123V189.994C131.473 189.994 130.394 190.93 130.394 192.243V196H129.419V189.279H130.394V190.592ZM136.622 196.156C135.686 196.156 134.646 195.805 133.84 195.155L134.347 194.44C135.114 194.999 135.881 195.285 136.622 195.285C137.506 195.285 138.104 194.869 138.104 194.232C138.104 193.504 137.324 193.27 136.414 193.01C134.789 192.542 134.165 192.061 134.165 191.099C134.165 189.877 135.179 189.123 136.518 189.123C137.35 189.123 138.208 189.409 138.923 189.877L138.455 190.631C137.779 190.202 137.116 189.994 136.518 189.994C135.764 189.994 135.14 190.332 135.14 190.982C135.14 191.567 135.634 191.749 136.882 192.152C137.961 192.49 139.079 192.854 139.079 194.128C139.079 195.363 138.013 196.156 136.622 196.156Z" fill="#CBD4D8"/>
  <path d="M45.9912 229.12L51.2889 224L45.9912 218.88C45.6905 218.59 45.2119 218.599 44.9223 218.9C44.6326 219.201 44.6416 219.679 44.9423 219.969L49.1156 224L44.9423 228.036C44.6416 228.325 44.6326 228.804 44.9223 229.104C45.2119 229.405 45.6905 229.414 45.9912 229.124L45.9912 229.12Z" fill="#4F6169"/>
  <mask id="mask6_13047_6074" style="mask-type:luminance" maskUnits="userSpaceOnUse" x="44" y="218" width="8" height="12">
    <path d="M45.9912 229.12L51.2889 224L45.9912 218.88C45.6905 218.59 45.2119 218.599 44.9223 218.9C44.6326 219.201 44.6416 219.679 44.9423 219.969L49.1156 224L44.9423 228.036C44.6416 228.325 44.6326 228.804 44.9223 229.104C45.2119 229.405 45.6905 229.414 45.9912 229.124L45.9912 229.12Z" fill="white"/>
  </mask>
  <g mask="url(#mask6_13047_6074)">
    <rect x="56" y="216" width="16" height="16" transform="rotate(90 56 216)" fill="#4F6169"/>
  </g>
  <rect x="72.5" y="216.5" width="15" height="15" rx="3.5" stroke="#4F6169"/>
  <path d="M93.027 228V219.069H96.654C98.5 219.069 99.943 220.252 99.943 221.929C99.943 223.606 98.5 224.789 96.654 224.789H94.041V228H93.027ZM94.041 223.827H96.472C97.928 223.827 98.916 223.125 98.916 221.929C98.916 220.733 97.928 220.031 96.472 220.031H94.041V223.827ZM105.986 221.279H106.961V228H105.986V226.921C105.596 227.636 104.725 228.156 103.776 228.156C102.294 228.156 101.254 227.077 101.254 225.556V221.279H102.229V225.426C102.229 226.518 102.918 227.285 103.906 227.285C105.037 227.285 105.986 226.492 105.986 225.556V221.279ZM112.358 221.123C114.126 221.123 115.452 222.579 115.452 224.633C115.452 226.7 114.126 228.156 112.358 228.156C111.279 228.156 110.421 227.623 109.914 226.739V228H108.939V218.913H109.914V222.54C110.421 221.656 111.279 221.123 112.358 221.123ZM112.176 227.285C113.489 227.285 114.425 226.18 114.425 224.633C114.425 223.086 113.489 221.994 112.176 221.994C110.85 221.994 109.914 223.086 109.914 224.633C109.914 226.18 110.85 227.285 112.176 227.285ZM117.038 228V218.913H118.013V228H117.038ZM120.364 220.057C120 220.057 119.714 219.758 119.714 219.407C119.714 219.069 120 218.77 120.364 218.77C120.715 218.77 121.001 219.069 121.001 219.407C121.001 219.758 120.715 220.057 120.364 220.057ZM119.87 228V221.279H120.845V228H119.87ZM125.823 228.156C123.938 228.156 122.339 226.544 122.339 224.633C122.339 222.722 123.938 221.123 125.823 221.123C126.733 221.123 127.578 221.5 128.215 222.111L127.539 222.774C127.097 222.293 126.486 221.994 125.823 221.994C124.484 221.994 123.366 223.203 123.366 224.633C123.366 226.076 124.484 227.285 125.823 227.285C126.499 227.285 127.123 226.973 127.578 226.466L128.254 227.129C127.617 227.766 126.759 228.156 125.823 228.156Z" fill="#6A7A81"/>
</svg>
