<svg width="236" height="192" viewBox="0 0 236 192" fill="none" xmlns="http://www.w3.org/2000/svg">
<path d="M10.88 13.9912L16 19.2889L21.12 13.9912C21.4097 13.6905 21.4007 13.2119 21.1 12.9223C20.7993 12.6326 20.3208 12.6416 20.0311 12.9423L16 17.1156L11.9645 12.9423C11.6748 12.6416 11.1963 12.6326 10.8956 12.9223C10.5949 13.2119 10.5859 13.6905 10.8756 13.9912H10.88Z" fill="#CBD4D8"/>
<mask id="mask0_10366_8937" style="mask-type:luminance" maskUnits="userSpaceOnUse" x="10" y="12" width="12" height="8">
<path d="M10.88 13.9912L16 19.2889L21.12 13.9912C21.4097 13.6905 21.4007 13.2119 21.1 12.9223C20.7993 12.6326 20.3208 12.6416 20.0311 12.9423L16 17.1156L11.9645 12.9423C11.6748 12.6416 11.1963 12.6326 10.8956 12.9223C10.5949 13.2119 10.5859 13.6905 10.8756 13.9912H10.88Z" fill="white"/>
</mask>
<g mask="url(#mask0_10366_8937)">
<rect x="24" y="24" width="16" height="16" transform="rotate(-180 24 24)" fill="#CBD4D8"/>
</g>
<path fill-rule="evenodd" clip-rule="evenodd" d="M47.2978 12.4444H53.3334C53.8243 12.4444 54.2223 12.8424 54.2223 13.3333V21.3333C54.2223 21.8242 53.8243 22.2222 53.3334 22.2222H42.6667C42.1758 22.2222 41.7778 21.8242 41.7778 21.3333V11.5555C41.7778 11.0646 42.1758 10.6666 42.6667 10.6666H45.5512C45.8357 10.6659 46.1033 10.8014 46.2712 11.0311L47.2978 12.4444ZM42.6667 21.3333H53.3334V13.3333H47.0712C46.9289 13.3337 46.7951 13.2659 46.7112 13.1511L45.5512 11.5555H42.6667V13.3333H46.8045C46.8045 13.8242 46.4065 14.2222 45.9156 14.2222H42.6667V21.3333Z" fill="#E3EAED"/>
<path d="M72.203 20L71.306 17.972H66.327L65.43 20H64.325L68.264 11.069H69.369L73.308 20H72.203ZM66.743 17.01H70.89L68.823 12.317L66.743 17.01ZM78.0857 13.123C79.8537 13.123 81.1797 14.579 81.1797 16.633C81.1797 18.7 79.8537 20.156 78.0857 20.156C77.0067 20.156 76.1487 19.623 75.6417 18.739V22.236H74.6667V13.279H75.6417V14.54C76.1487 13.656 77.0067 13.123 78.0857 13.123ZM77.9037 19.285C79.2167 19.285 80.1527 18.18 80.1527 16.633C80.1527 15.086 79.2167 13.994 77.9037 13.994C76.5777 13.994 75.6417 15.086 75.6417 16.633C75.6417 18.18 76.5777 19.285 77.9037 19.285ZM86.2377 13.123C88.0057 13.123 89.3317 14.579 89.3317 16.633C89.3317 18.7 88.0057 20.156 86.2377 20.156C85.1587 20.156 84.3007 19.623 83.7937 18.739V22.236H82.8187V13.279H83.7937V14.54C84.3007 13.656 85.1587 13.123 86.2377 13.123ZM86.0557 19.285C87.3687 19.285 88.3047 18.18 88.3047 16.633C88.3047 15.086 87.3687 13.994 86.0557 13.994C84.7297 13.994 83.7937 15.086 83.7937 16.633C83.7937 18.18 84.7297 19.285 86.0557 19.285ZM90.9706 20V10.913H91.9456V20H90.9706ZM94.602 12.057C94.238 12.057 93.952 11.758 93.952 11.407C93.952 11.069 94.238 10.77 94.602 10.77C94.953 10.77 95.239 11.069 95.239 11.407C95.239 11.758 94.953 12.057 94.602 12.057ZM94.108 20V13.279H95.083V20H94.108ZM100.131 20.156C98.2463 20.156 96.6473 18.544 96.6473 16.633C96.6473 14.722 98.2463 13.123 100.131 13.123C101.041 13.123 101.886 13.5 102.523 14.111L101.847 14.774C101.405 14.293 100.794 13.994 100.131 13.994C98.7923 13.994 97.6743 15.203 97.6743 16.633C97.6743 18.076 98.7923 19.285 100.131 19.285C100.807 19.285 101.431 18.973 101.886 18.466L102.562 19.129C101.925 19.766 101.067 20.156 100.131 20.156ZM106.291 13.123C108.124 13.123 109.021 14.28 109.021 15.905V20H108.046V18.947C107.565 19.74 106.564 20.156 105.68 20.156C104.263 20.156 103.223 19.337 103.223 18.011C103.223 16.672 104.419 15.775 105.862 15.775C106.59 15.775 107.357 15.931 108.046 16.152V15.905C108.046 14.995 107.682 13.955 106.226 13.955C105.55 13.955 104.874 14.254 104.263 14.566L103.873 13.773C104.835 13.292 105.641 13.123 106.291 13.123ZM105.849 19.298C106.733 19.298 107.786 18.843 108.046 17.894V16.867C107.435 16.698 106.746 16.594 106.018 16.594C105.017 16.594 104.172 17.166 104.172 17.972C104.172 18.804 104.9 19.298 105.849 19.298ZM113.623 19.012L114.104 19.727C113.753 20 113.311 20.156 112.856 20.156C111.894 20.156 111.218 19.441 111.218 18.44V14.15H110.165V13.279H111.218V11.433H112.193V13.279H113.844V14.15H112.193V18.44C112.193 18.934 112.531 19.285 112.921 19.285C113.22 19.285 113.48 19.168 113.623 19.012ZM115.898 12.057C115.534 12.057 115.248 11.758 115.248 11.407C115.248 11.069 115.534 10.77 115.898 10.77C116.249 10.77 116.535 11.069 116.535 11.407C116.535 11.758 116.249 12.057 115.898 12.057ZM115.404 20V13.279H116.379V20H115.404ZM121.428 20.156C119.517 20.156 117.957 18.57 117.957 16.633C117.957 14.696 119.517 13.123 121.428 13.123C123.326 13.123 124.886 14.696 124.886 16.633C124.886 18.57 123.326 20.156 121.428 20.156ZM121.428 19.285C122.767 19.285 123.872 18.089 123.872 16.633C123.872 15.177 122.767 13.994 121.428 13.994C120.076 13.994 118.971 15.177 118.971 16.633C118.971 18.089 120.076 19.285 121.428 19.285ZM129.65 13.123C131.145 13.123 132.172 14.176 132.172 15.723V20H131.197V15.853C131.197 14.748 130.508 13.994 129.52 13.994C128.376 13.994 127.44 14.774 127.44 15.723V20H126.465V13.279H127.44V14.345C127.83 13.63 128.688 13.123 129.65 13.123ZM136.253 20.156C135.317 20.156 134.277 19.805 133.471 19.155L133.978 18.44C134.745 18.999 135.512 19.285 136.253 19.285C137.137 19.285 137.735 18.869 137.735 18.232C137.735 17.504 136.955 17.27 136.045 17.01C134.42 16.542 133.796 16.061 133.796 15.099C133.796 13.877 134.81 13.123 136.149 13.123C136.981 13.123 137.839 13.409 138.554 13.877L138.086 14.631C137.41 14.202 136.747 13.994 136.149 13.994C135.395 13.994 134.771 14.332 134.771 14.982C134.771 15.567 135.265 15.749 136.513 16.152C137.592 16.49 138.71 16.854 138.71 18.128C138.71 19.363 137.644 20.156 136.253 20.156Z" fill="#E3EAED"/>
<path fill-rule="evenodd" clip-rule="evenodd" d="M76.4445 44.8889C76.6899 44.8889 76.8889 44.6899 76.8889 44.4445V41.7778C76.8889 41.5324 76.6899 41.3334 76.4445 41.3334C76.199 41.3334 76 41.5324 76 41.7778V44.4445C76 44.6899 76.199 44.8889 76.4445 44.8889ZM84 44.4445C84 44.6899 83.801 44.8889 83.5556 44.8889C83.3101 44.8889 83.1111 44.6899 83.1111 44.4445V41.7778C83.1111 41.5324 83.3101 41.3334 83.5556 41.3334C83.801 41.3334 84 41.5324 84 41.7778V44.4445ZM82.2222 43.1112H77.7778V44H82.2222V43.1112ZM84.4445 52V51.1112H83.5556V52H84.4445ZM80.8889 51.1112H81.7778V52H80.8889V51.1112ZM79.1111 51.1112H78.2222V52H79.1111V51.1112ZM75.5556 51.1112H76.4445V52H75.5556V51.1112ZM84.4445 49.7778V48.8889H83.5556V49.7778H84.4445ZM80.8889 48.8889H81.7778V49.7778H80.8889V48.8889ZM79.1111 48.8889H78.2222V49.7778H79.1111V48.8889ZM75.5556 48.8889H76.4445V49.7778H75.5556V48.8889ZM84.4445 47.5556V46.6667H83.5556V47.5556H84.4445ZM80.8889 46.6667H81.7778V47.5556H80.8889V46.6667ZM79.1111 46.6667H78.2222V47.5556H79.1111V46.6667ZM75.5556 46.6667H76.4445V47.5556H75.5556V46.6667ZM84.8889 43.1112H86.3334C86.5432 43.1147 86.743 43.2014 86.8889 43.3523C87.0347 43.5031 87.1147 43.7058 87.1111 43.9156V53.8623C87.1147 54.0721 87.0347 54.2747 86.8889 54.4256C86.743 54.5765 86.5432 54.6632 86.3334 54.6667H73.6667C73.4569 54.6632 73.257 54.5765 73.1112 54.4256C72.9653 54.2747 72.8853 54.0721 72.8889 53.8623V43.9156C72.8853 43.7058 72.9653 43.5031 73.1112 43.3523C73.257 43.2014 73.4569 43.1147 73.6667 43.1112H75.1111V44H73.7778V53.7778H86.2222V44H84.8889V43.1112Z" fill="#E3EAED"/>
<path d="M101.304 52.156C98.834 52.156 96.728 50.037 96.728 47.528C96.728 45.019 98.834 42.913 101.304 42.913C102.539 42.913 103.683 43.433 104.515 44.278L103.826 44.98C103.176 44.291 102.279 43.849 101.304 43.849C99.38 43.849 97.755 45.539 97.755 47.528C97.755 49.53 99.38 51.22 101.304 51.22C102.279 51.22 103.176 50.778 103.826 50.089L104.515 50.791C103.683 51.623 102.539 52.156 101.304 52.156ZM108.437 45.123C110.27 45.123 111.167 46.28 111.167 47.905V52H110.192V50.947C109.711 51.74 108.71 52.156 107.826 52.156C106.409 52.156 105.369 51.337 105.369 50.011C105.369 48.672 106.565 47.775 108.008 47.775C108.736 47.775 109.503 47.931 110.192 48.152V47.905C110.192 46.995 109.828 45.955 108.372 45.955C107.696 45.955 107.02 46.254 106.409 46.566L106.019 45.773C106.981 45.292 107.787 45.123 108.437 45.123ZM107.995 51.298C108.879 51.298 109.932 50.843 110.192 49.894V48.867C109.581 48.698 108.892 48.594 108.164 48.594C107.163 48.594 106.318 49.166 106.318 49.972C106.318 50.804 107.046 51.298 107.995 51.298ZM113.168 52V42.913H114.143V52H113.168ZM119.14 51.285C119.933 51.285 120.843 50.934 121.259 50.479L121.857 51.116C121.272 51.753 120.089 52.156 119.153 52.156C117.359 52.156 115.747 50.687 115.747 48.62C115.747 46.618 117.255 45.123 119.062 45.123C121.09 45.123 122.247 46.657 122.247 49.01H116.748C116.891 50.323 117.814 51.285 119.14 51.285ZM119.101 45.994C117.905 45.994 116.943 46.839 116.761 48.139H121.285C121.155 46.93 120.44 45.994 119.101 45.994ZM126.97 45.123C128.465 45.123 129.492 46.176 129.492 47.723V52H128.517V47.853C128.517 46.748 127.828 45.994 126.84 45.994C125.696 45.994 124.76 46.774 124.76 47.723V52H123.785V45.279H124.76V46.345C125.15 45.63 126.008 45.123 126.97 45.123ZM136.51 42.913H137.485V52H136.51V50.739C136.003 51.623 135.145 52.156 134.066 52.156C132.298 52.156 130.972 50.7 130.972 48.633C130.972 46.579 132.298 45.123 134.066 45.123C135.145 45.123 136.003 45.656 136.51 46.54V42.913ZM134.248 51.285C135.574 51.285 136.51 50.18 136.51 48.633C136.51 47.086 135.574 45.994 134.248 45.994C132.935 45.994 131.999 47.086 131.999 48.633C131.999 50.18 132.935 51.285 134.248 51.285ZM142.478 51.285C143.271 51.285 144.181 50.934 144.597 50.479L145.195 51.116C144.61 51.753 143.427 52.156 142.491 52.156C140.697 52.156 139.085 50.687 139.085 48.62C139.085 46.618 140.593 45.123 142.4 45.123C144.428 45.123 145.585 46.657 145.585 49.01H140.086C140.229 50.323 141.152 51.285 142.478 51.285ZM142.439 45.994C141.243 45.994 140.281 46.839 140.099 48.139H144.623C144.493 46.93 143.778 45.994 142.439 45.994ZM148.098 46.592C148.501 45.695 149.463 45.123 150.698 45.123V45.994C149.177 45.994 148.098 46.93 148.098 48.243V52H147.123V45.279H148.098V46.592Z" fill="#E3EAED"/>
<path fill-rule="evenodd" clip-rule="evenodd" d="M86.2222 74.2222H73.7778C73.2867 74.2222 72.8889 74.6199 72.8889 75.1111V84.8888C72.8889 85.3799 73.2867 85.7777 73.7778 85.7777H86.2222C86.7134 85.7777 87.1111 85.3799 87.1111 84.8888V75.1111C87.1111 74.6199 86.7134 74.2222 86.2222 74.2222ZM73.7778 84.8888V75.1111H86.2222V84.8888H73.7778ZM76.2676 82.6524L78.9422 78.7653L81.9147 83.1755L85.5174 78.4159L84.9502 77.9866L81.9485 81.9533L78.9485 77.5022L76.1369 81.5875L74.9378 80.5271L74.4667 81.0595L76.2676 82.6524Z" fill="#E3EAED"/>
<path d="M101.304 84.156C98.834 84.156 96.728 82.037 96.728 79.528C96.728 77.019 98.834 74.913 101.304 74.913C102.539 74.913 103.683 75.433 104.515 76.278L103.826 76.98C103.176 76.291 102.279 75.849 101.304 75.849C99.38 75.849 97.755 77.539 97.755 79.528C97.755 81.53 99.38 83.22 101.304 83.22C102.279 83.22 103.176 82.778 103.826 82.089L104.515 82.791C103.683 83.623 102.539 84.156 101.304 84.156ZM109.217 77.123C110.712 77.123 111.739 78.176 111.739 79.723V84H110.764V79.853C110.764 78.748 110.075 77.994 109.087 77.994C107.943 77.994 107.007 78.774 107.007 79.723V84H106.032V74.913H107.007V78.345C107.397 77.63 108.255 77.123 109.217 77.123ZM116.145 77.123C117.978 77.123 118.875 78.28 118.875 79.905V84H117.9V82.947C117.419 83.74 116.418 84.156 115.534 84.156C114.117 84.156 113.077 83.337 113.077 82.011C113.077 80.672 114.273 79.775 115.716 79.775C116.444 79.775 117.211 79.931 117.9 80.152V79.905C117.9 78.995 117.536 77.955 116.08 77.955C115.404 77.955 114.728 78.254 114.117 78.566L113.727 77.773C114.689 77.292 115.495 77.123 116.145 77.123ZM115.703 83.298C116.587 83.298 117.64 82.843 117.9 81.894V80.867C117.289 80.698 116.6 80.594 115.872 80.594C114.871 80.594 114.026 81.166 114.026 81.972C114.026 82.804 114.754 83.298 115.703 83.298ZM121.851 78.592C122.254 77.695 123.216 77.123 124.451 77.123V77.994C122.93 77.994 121.851 78.93 121.851 80.243V84H120.876V77.279H121.851V78.592ZM128.53 83.012L129.011 83.727C128.66 84 128.218 84.156 127.763 84.156C126.801 84.156 126.125 83.441 126.125 82.44V78.15H125.072V77.279H126.125V75.433H127.1V77.279H128.751V78.15H127.1V82.44C127.1 82.934 127.438 83.285 127.828 83.285C128.127 83.285 128.387 83.168 128.53 83.012ZM132.392 84.156C131.456 84.156 130.416 83.805 129.61 83.155L130.117 82.44C130.884 82.999 131.651 83.285 132.392 83.285C133.276 83.285 133.874 82.869 133.874 82.232C133.874 81.504 133.094 81.27 132.184 81.01C130.559 80.542 129.935 80.061 129.935 79.099C129.935 77.877 130.949 77.123 132.288 77.123C133.12 77.123 133.978 77.409 134.693 77.877L134.225 78.631C133.549 78.202 132.886 77.994 132.288 77.994C131.534 77.994 130.91 78.332 130.91 78.982C130.91 79.567 131.404 79.749 132.652 80.152C133.731 80.49 134.849 80.854 134.849 82.128C134.849 83.363 133.783 84.156 132.392 84.156Z" fill="#E3EAED"/>
<path d="M64 100C64 97.7909 65.7909 96 68 96H232C234.209 96 236 97.7909 236 100V124C236 126.209 234.209 128 232 128H68C65.7909 128 64 126.209 64 124V100Z" fill="#2D4048"/>
<path fill-rule="evenodd" clip-rule="evenodd" d="M80 105.889C77.1439 105.886 74.546 107.542 73.3437 110.133C72.1414 112.723 72.5536 115.777 74.4 117.956L74.5333 118.111H85.4666L85.6 117.956C87.4463 115.777 87.8586 112.723 86.6562 110.133C85.4539 107.542 82.8561 105.886 80 105.889ZM74.96 117.222C74.1625 116.224 73.6812 115.011 73.5778 113.738H75.1111V112.849H73.5778C73.6522 111.438 74.1913 110.091 75.1111 109.018L76.2 110.107L76.8266 109.48L75.7466 108.387C76.8059 107.45 78.1451 106.891 79.5555 106.796V108.351H80.4444V106.8C83.6674 107.034 86.2164 109.623 86.4 112.849H84.8533V113.738H86.4222C86.3188 115.011 85.8375 116.224 85.04 117.222H74.96ZM80.5644 112.058L83.1911 109.476L83.8222 110.107L81.1911 112.689C81.4687 113.276 81.2832 113.978 80.7516 114.35C80.2201 114.723 79.4972 114.659 79.0397 114.199C78.5821 113.738 78.5231 113.014 78.8998 112.486C79.2765 111.957 79.9794 111.776 80.5644 112.058Z" fill="#E3EAED"/>
<path d="M97.417 116V107.069H100.433C103.267 107.069 105.269 108.915 105.269 111.528C105.269 114.141 103.267 116 100.433 116H97.417ZM98.431 115.077H100.433C102.669 115.077 104.242 113.608 104.242 111.528C104.242 109.461 102.669 107.992 100.433 107.992H98.431V115.077ZM109.427 109.123C111.26 109.123 112.157 110.28 112.157 111.905V116H111.182V114.947C110.701 115.74 109.7 116.156 108.816 116.156C107.399 116.156 106.359 115.337 106.359 114.011C106.359 112.672 107.555 111.775 108.998 111.775C109.726 111.775 110.493 111.931 111.182 112.152V111.905C111.182 110.995 110.818 109.955 109.362 109.955C108.686 109.955 108.01 110.254 107.399 110.566L107.009 109.773C107.971 109.292 108.777 109.123 109.427 109.123ZM108.985 115.298C109.869 115.298 110.922 114.843 111.182 113.894V112.867C110.571 112.698 109.882 112.594 109.154 112.594C108.153 112.594 107.308 113.166 107.308 113.972C107.308 114.804 108.036 115.298 108.985 115.298ZM116.239 116.156C115.303 116.156 114.263 115.805 113.457 115.155L113.964 114.44C114.731 114.999 115.498 115.285 116.239 115.285C117.123 115.285 117.721 114.869 117.721 114.232C117.721 113.504 116.941 113.27 116.031 113.01C114.406 112.542 113.782 112.061 113.782 111.099C113.782 109.877 114.796 109.123 116.135 109.123C116.967 109.123 117.825 109.409 118.54 109.877L118.072 110.631C117.396 110.202 116.733 109.994 116.135 109.994C115.381 109.994 114.757 110.332 114.757 110.982C114.757 111.567 115.251 111.749 116.499 112.152C117.578 112.49 118.696 112.854 118.696 114.128C118.696 115.363 117.63 116.156 116.239 116.156ZM123.452 109.123C124.947 109.123 125.974 110.176 125.974 111.723V116H124.999V111.853C124.999 110.748 124.31 109.994 123.322 109.994C122.178 109.994 121.242 110.774 121.242 111.723V116H120.267V106.913H121.242V110.345C121.632 109.63 122.49 109.123 123.452 109.123ZM131.393 109.123C133.161 109.123 134.487 110.579 134.487 112.633C134.487 114.7 133.161 116.156 131.393 116.156C130.314 116.156 129.456 115.623 128.949 114.739V116H127.974V106.913H128.949V110.54C129.456 109.656 130.314 109.123 131.393 109.123ZM131.211 115.285C132.524 115.285 133.46 114.18 133.46 112.633C133.46 111.086 132.524 109.994 131.211 109.994C129.885 109.994 128.949 111.086 128.949 112.633C128.949 114.18 129.885 115.285 131.211 115.285ZM139.012 116.156C137.101 116.156 135.541 114.57 135.541 112.633C135.541 110.696 137.101 109.123 139.012 109.123C140.91 109.123 142.47 110.696 142.47 112.633C142.47 114.57 140.91 116.156 139.012 116.156ZM139.012 115.285C140.351 115.285 141.456 114.089 141.456 112.633C141.456 111.177 140.351 109.994 139.012 109.994C137.66 109.994 136.555 111.177 136.555 112.633C136.555 114.089 137.66 115.285 139.012 115.285ZM146.455 109.123C148.288 109.123 149.185 110.28 149.185 111.905V116H148.21V114.947C147.729 115.74 146.728 116.156 145.844 116.156C144.427 116.156 143.387 115.337 143.387 114.011C143.387 112.672 144.583 111.775 146.026 111.775C146.754 111.775 147.521 111.931 148.21 112.152V111.905C148.21 110.995 147.846 109.955 146.39 109.955C145.714 109.955 145.038 110.254 144.427 110.566L144.037 109.773C144.999 109.292 145.805 109.123 146.455 109.123ZM146.013 115.298C146.897 115.298 147.95 114.843 148.21 113.894V112.867C147.599 112.698 146.91 112.594 146.182 112.594C145.181 112.594 144.336 113.166 144.336 113.972C144.336 114.804 145.064 115.298 146.013 115.298ZM152.161 110.592C152.564 109.695 153.526 109.123 154.761 109.123V109.994C153.24 109.994 152.161 110.93 152.161 112.243V116H151.186V109.279H152.161V110.592ZM161.258 106.913H162.233V116H161.258V114.739C160.751 115.623 159.893 116.156 158.814 116.156C157.046 116.156 155.72 114.7 155.72 112.633C155.72 110.579 157.046 109.123 158.814 109.123C159.893 109.123 160.751 109.656 161.258 110.54V106.913ZM158.996 115.285C160.322 115.285 161.258 114.18 161.258 112.633C161.258 111.086 160.322 109.994 158.996 109.994C157.683 109.994 156.747 111.086 156.747 112.633C156.747 114.18 157.683 115.285 158.996 115.285Z" fill="#E3EAED"/>
<path d="M10.88 141.991L16 147.289L21.12 141.991C21.4097 141.69 21.4007 141.212 21.1 140.922C20.7993 140.633 20.3208 140.642 20.0311 140.942L16 145.116L11.9645 140.942C11.6748 140.642 11.1963 140.633 10.8956 140.922C10.5949 141.212 10.5859 141.69 10.8756 141.991H10.88Z" fill="#CBD4D8"/>
<mask id="mask1_10366_8937" style="mask-type:luminance" maskUnits="userSpaceOnUse" x="10" y="140" width="12" height="8">
<path d="M10.88 141.991L16 147.289L21.12 141.991C21.4097 141.69 21.4007 141.212 21.1 140.922C20.7993 140.633 20.3208 140.642 20.0311 140.942L16 145.116L11.9645 140.942C11.6748 140.642 11.1963 140.633 10.8956 140.922C10.5949 141.212 10.5859 141.69 10.8756 141.991H10.88Z" fill="white"/>
</mask>
<g mask="url(#mask1_10366_8937)">
<rect x="24" y="152" width="16" height="16" transform="rotate(-180 24 152)" fill="#CBD4D8"/>
</g>
<rect width="16" height="16" transform="translate(40 136)" fill="#22343C"/>
<path fill-rule="evenodd" clip-rule="evenodd" d="M47.2978 140.444H53.3334C53.8243 140.444 54.2223 140.842 54.2223 141.333V149.333C54.2223 149.824 53.8243 150.222 53.3334 150.222H42.6667C42.1758 150.222 41.7778 149.824 41.7778 149.333V139.556C41.7778 139.065 42.1758 138.667 42.6667 138.667H45.5512C45.8357 138.666 46.1033 138.801 46.2712 139.031L47.2978 140.444ZM42.6667 149.333H53.3334V141.333H47.0712C46.9289 141.334 46.7951 141.266 46.7112 141.151L45.5512 139.556H42.6667V141.333H46.8045C46.8045 141.824 46.4065 142.222 45.9156 142.222H42.6667V149.333Z" fill="#E3EAED"/>
<path d="M71.826 140.031H66.444V142.969H71.293V143.931H66.444V148H65.417V139.069H71.826V140.031ZM73.8277 140.057C73.4637 140.057 73.1777 139.758 73.1777 139.407C73.1777 139.069 73.4637 138.77 73.8277 138.77C74.1787 138.77 74.4647 139.069 74.4647 139.407C74.4647 139.758 74.1787 140.057 73.8277 140.057ZM73.3337 148V141.279H74.3087V148H73.3337ZM76.471 148V138.913H77.446V148H76.471ZM82.4423 147.285C83.2353 147.285 84.1453 146.934 84.5613 146.479L85.1593 147.116C84.5743 147.753 83.3913 148.156 82.4553 148.156C80.6613 148.156 79.0493 146.687 79.0493 144.62C79.0493 142.618 80.5573 141.123 82.3643 141.123C84.3923 141.123 85.5493 142.657 85.5493 145.01H80.0503C80.1933 146.323 81.1163 147.285 82.4423 147.285ZM82.4033 141.994C81.2073 141.994 80.2453 142.839 80.0633 144.139H84.5873C84.4573 142.93 83.7423 141.994 82.4033 141.994ZM89.1674 148.156C88.2314 148.156 87.1914 147.805 86.3854 147.155L86.8924 146.44C87.6594 146.999 88.4264 147.285 89.1674 147.285C90.0514 147.285 90.6494 146.869 90.6494 146.232C90.6494 145.504 89.8694 145.27 88.9594 145.01C87.3344 144.542 86.7104 144.061 86.7104 143.099C86.7104 141.877 87.7244 141.123 89.0634 141.123C89.8954 141.123 90.7534 141.409 91.4684 141.877L91.0004 142.631C90.3244 142.202 89.6614 141.994 89.0634 141.994C88.3094 141.994 87.6854 142.332 87.6854 142.982C87.6854 143.567 88.1794 143.749 89.4274 144.152C90.5064 144.49 91.6244 144.854 91.6244 146.128C91.6244 147.363 90.5584 148.156 89.1674 148.156Z" fill="#E3EAED"/>
<path d="M10.88 173.991L16 179.289L21.12 173.991C21.4097 173.69 21.4007 173.212 21.1 172.922C20.7993 172.633 20.3208 172.642 20.0311 172.942L16 177.116L11.9645 172.942C11.6748 172.642 11.1963 172.633 10.8956 172.922C10.5949 173.212 10.5859 173.69 10.8756 173.991H10.88Z" fill="#CBD4D8"/>
<mask id="mask2_10366_8937" style="mask-type:luminance" maskUnits="userSpaceOnUse" x="10" y="172" width="12" height="8">
<path d="M10.88 173.991L16 179.289L21.12 173.991C21.4097 173.69 21.4007 173.212 21.1 172.922C20.7993 172.633 20.3208 172.642 20.0311 172.942L16 177.116L11.9645 172.942C11.6748 172.642 11.1963 172.633 10.8956 172.922C10.5949 173.212 10.5859 173.69 10.8756 173.991H10.88Z" fill="white"/>
</mask>
<g mask="url(#mask2_10366_8937)">
<rect x="24" y="184" width="16" height="16" transform="rotate(-180 24 184)" fill="#CBD4D8"/>
</g>
<path fill-rule="evenodd" clip-rule="evenodd" d="M47.2978 172.444H53.3334C53.8243 172.444 54.2223 172.842 54.2223 173.333V181.333C54.2223 181.824 53.8243 182.222 53.3334 182.222H42.6667C42.1758 182.222 41.7778 181.824 41.7778 181.333V171.556C41.7778 171.065 42.1758 170.667 42.6667 170.667H45.5512C45.8357 170.666 46.1033 170.801 46.2712 171.031L47.2978 172.444ZM42.6667 181.333H53.3334V173.333H47.0712C46.9289 173.334 46.7951 173.266 46.7112 173.151L45.5512 171.556H42.6667V173.333H46.8045C46.8045 173.824 46.4065 174.222 45.9156 174.222H42.6667V181.333Z" fill="#E3EAED"/>
<path d="M65.417 180V171.069H66.431V180H65.417ZM76.1447 173.123C77.5487 173.123 78.5367 174.202 78.5367 175.723V180H77.5617V175.853C77.5617 174.761 76.9247 173.994 76.0147 173.994C74.9487 173.994 74.1947 174.709 74.1947 175.723V180H73.2197V175.853C73.2197 174.761 72.5827 173.994 71.6727 173.994C70.6067 173.994 69.8527 174.709 69.8527 175.723V180H68.8777V173.279H69.8527V174.267C70.1907 173.565 70.9187 173.123 71.8027 173.123C72.8687 173.123 73.7007 173.747 74.0387 174.722C74.2467 173.773 75.0787 173.123 76.1447 173.123ZM82.9512 173.123C84.7842 173.123 85.6812 174.28 85.6812 175.905V180H84.7062V178.947C84.2252 179.74 83.2242 180.156 82.3402 180.156C80.9232 180.156 79.8832 179.337 79.8832 178.011C79.8832 176.672 81.0792 175.775 82.5222 175.775C83.2502 175.775 84.0172 175.931 84.7062 176.152V175.905C84.7062 174.995 84.3422 173.955 82.8862 173.955C82.2102 173.955 81.5342 174.254 80.9232 174.566L80.5332 173.773C81.4952 173.292 82.3012 173.123 82.9512 173.123ZM82.5092 179.298C83.3932 179.298 84.4462 178.843 84.7062 177.894V176.867C84.0952 176.698 83.4062 176.594 82.6782 176.594C81.6772 176.594 80.8322 177.166 80.8322 177.972C80.8322 178.804 81.5602 179.298 82.5092 179.298ZM92.6356 173.279H93.6106V179.285C93.6106 181.014 92.2456 182.236 90.3086 182.236C89.2166 182.236 88.2026 181.859 87.5916 181.339L88.0206 180.572C88.5406 181.066 89.3466 181.365 90.1786 181.365C91.7256 181.365 92.6356 180.598 92.6356 179.285V178.193C92.1156 179.012 91.2576 179.506 90.1916 179.506C88.3846 179.506 87.0976 178.18 87.0976 176.308C87.0976 174.436 88.3846 173.123 90.1916 173.123C91.2576 173.123 92.1156 173.617 92.6356 174.436V173.279ZM90.3736 178.635C91.6996 178.635 92.6356 177.673 92.6356 176.308C92.6356 174.956 91.6996 173.994 90.3736 173.994C89.0606 173.994 88.1246 174.956 88.1246 176.308C88.1246 177.673 89.0606 178.635 90.3736 178.635ZM98.605 179.285C99.398 179.285 100.308 178.934 100.724 178.479L101.322 179.116C100.737 179.753 99.554 180.156 98.618 180.156C96.824 180.156 95.212 178.687 95.212 176.62C95.212 174.618 96.72 173.123 98.527 173.123C100.555 173.123 101.712 174.657 101.712 177.01H96.213C96.356 178.323 97.279 179.285 98.605 179.285ZM98.566 173.994C97.37 173.994 96.408 174.839 96.226 176.139H100.75C100.62 174.93 99.905 173.994 98.566 173.994ZM105.33 180.156C104.394 180.156 103.354 179.805 102.548 179.155L103.055 178.44C103.822 178.999 104.589 179.285 105.33 179.285C106.214 179.285 106.812 178.869 106.812 178.232C106.812 177.504 106.032 177.27 105.122 177.01C103.497 176.542 102.873 176.061 102.873 175.099C102.873 173.877 103.887 173.123 105.226 173.123C106.058 173.123 106.916 173.409 107.631 173.877L107.163 174.631C106.487 174.202 105.824 173.994 105.226 173.994C104.472 173.994 103.848 174.332 103.848 174.982C103.848 175.567 104.342 175.749 105.59 176.152C106.669 176.49 107.787 176.854 107.787 178.128C107.787 179.363 106.721 180.156 105.33 180.156Z" fill="#E3EAED"/>
</svg>
