<svg width="393" height="161" viewBox="0 0 393 161" fill="none" xmlns="http://www.w3.org/2000/svg">
<path d="M4 0.5H389C390.933 0.5 392.5 2.067 392.5 4V35.5H0.5V4C0.5 2.067 2.067 0.5 4 0.5Z" fill="#E0F6FF"/>
<path d="M25.12 15.9915L20 21.2893L14.88 15.9915C14.5903 15.6908 14.5993 15.2123 14.9 14.9226C15.2007 14.633 15.6792 14.642 15.9689 14.9426L20 19.116L24.0355 14.9426C24.3252 14.642 24.8037 14.633 25.1044 14.9226C25.4051 15.2123 25.4141 15.6908 25.1244 15.9915H25.12Z" fill="#3A4D55"/>
<path d="M43.826 14.031H38.444V16.969H43.293V17.931H38.444V21.038H43.826V22H37.417V13.069H43.826V14.031ZM50.9436 22H49.7996L47.7846 19.322L45.7566 22H44.6126L47.2126 18.568L44.7166 15.279H45.8606L47.7846 17.814L49.6956 15.279H50.8396L48.3566 18.568L50.9436 22ZM55.5463 15.123C57.3143 15.123 58.6403 16.579 58.6403 18.633C58.6403 20.7 57.3143 22.156 55.5463 22.156C54.4673 22.156 53.6093 21.623 53.1023 20.739V24.236H52.1273V15.279H53.1023V16.54C53.6093 15.656 54.4673 15.123 55.5463 15.123ZM55.3643 21.285C56.6773 21.285 57.6133 20.18 57.6133 18.633C57.6133 17.086 56.6773 15.994 55.3643 15.994C54.0383 15.994 53.1023 17.086 53.1023 18.633C53.1023 20.18 54.0383 21.285 55.3643 21.285ZM62.6842 15.123C64.5172 15.123 65.4142 16.28 65.4142 17.905V22H64.4392V20.947C63.9582 21.74 62.9572 22.156 62.0732 22.156C60.6562 22.156 59.6162 21.337 59.6162 20.011C59.6162 18.672 60.8122 17.775 62.2552 17.775C62.9832 17.775 63.7502 17.931 64.4392 18.152V17.905C64.4392 16.995 64.0752 15.955 62.6192 15.955C61.9432 15.955 61.2672 16.254 60.6562 16.566L60.2662 15.773C61.2282 15.292 62.0342 15.123 62.6842 15.123ZM62.2422 21.298C63.1262 21.298 64.1792 20.843 64.4392 19.894V18.867C63.8282 18.698 63.1392 18.594 62.4112 18.594C61.4102 18.594 60.5652 19.166 60.5652 19.972C60.5652 20.804 61.2932 21.298 62.2422 21.298ZM70.6006 15.123C72.0956 15.123 73.1226 16.176 73.1226 17.723V22H72.1476V17.853C72.1476 16.748 71.4586 15.994 70.4706 15.994C69.3266 15.994 68.3906 16.774 68.3906 17.723V22H67.4156V15.279H68.3906V16.345C68.7806 15.63 69.6386 15.123 70.6006 15.123ZM80.1412 12.913H81.1162V22H80.1412V20.739C79.6342 21.623 78.7762 22.156 77.6972 22.156C75.9292 22.156 74.6032 20.7 74.6032 18.633C74.6032 16.579 75.9292 15.123 77.6972 15.123C78.7762 15.123 79.6342 15.656 80.1412 16.54V12.913ZM77.8792 21.285C79.2052 21.285 80.1412 20.18 80.1412 18.633C80.1412 17.086 79.2052 15.994 77.8792 15.994C76.5662 15.994 75.6302 17.086 75.6302 18.633C75.6302 20.18 76.5662 21.285 77.8792 21.285ZM86.1091 21.285C86.9021 21.285 87.8121 20.934 88.2281 20.479L88.8261 21.116C88.2411 21.753 87.0581 22.156 86.1221 22.156C84.3281 22.156 82.7161 20.687 82.7161 18.62C82.7161 16.618 84.2241 15.123 86.0311 15.123C88.0591 15.123 89.2161 16.657 89.2161 19.01H83.7171C83.8601 20.323 84.7831 21.285 86.1091 21.285ZM86.0701 15.994C84.8741 15.994 83.9121 16.839 83.7301 18.139H88.2541C88.1241 16.93 87.4091 15.994 86.0701 15.994ZM95.7722 12.913H96.7472V22H95.7722V20.739C95.2652 21.623 94.4072 22.156 93.3282 22.156C91.5602 22.156 90.2342 20.7 90.2342 18.633C90.2342 16.579 91.5602 15.123 93.3282 15.123C94.4072 15.123 95.2652 15.656 95.7722 16.54V12.913ZM93.5102 21.285C94.8362 21.285 95.7722 20.18 95.7722 18.633C95.7722 17.086 94.8362 15.994 93.5102 15.994C92.1972 15.994 91.2612 17.086 91.2612 18.633C91.2612 20.18 92.1972 21.285 93.5102 21.285ZM105.805 15.123C107.573 15.123 108.899 16.579 108.899 18.633C108.899 20.7 107.573 22.156 105.805 22.156C104.726 22.156 103.868 21.623 103.361 20.739V24.236H102.386V15.279H103.361V16.54C103.868 15.656 104.726 15.123 105.805 15.123ZM105.623 21.285C106.936 21.285 107.872 20.18 107.872 18.633C107.872 17.086 106.936 15.994 105.623 15.994C104.297 15.994 103.361 17.086 103.361 18.633C103.361 20.18 104.297 21.285 105.623 21.285ZM112.943 15.123C114.776 15.123 115.673 16.28 115.673 17.905V22H114.698V20.947C114.217 21.74 113.216 22.156 112.332 22.156C110.915 22.156 109.875 21.337 109.875 20.011C109.875 18.672 111.071 17.775 112.514 17.775C113.242 17.775 114.009 17.931 114.698 18.152V17.905C114.698 16.995 114.334 15.955 112.878 15.955C112.202 15.955 111.526 16.254 110.915 16.566L110.525 15.773C111.487 15.292 112.293 15.123 112.943 15.123ZM112.501 21.298C113.385 21.298 114.438 20.843 114.698 19.894V18.867C114.087 18.698 113.398 18.594 112.67 18.594C111.669 18.594 110.824 19.166 110.824 19.972C110.824 20.804 111.552 21.298 112.501 21.298ZM120.86 15.123C122.355 15.123 123.382 16.176 123.382 17.723V22H122.407V17.853C122.407 16.748 121.718 15.994 120.73 15.994C119.586 15.994 118.65 16.774 118.65 17.723V22H117.675V15.279H118.65V16.345C119.04 15.63 119.898 15.123 120.86 15.123ZM128.216 21.285C129.009 21.285 129.919 20.934 130.335 20.479L130.933 21.116C130.348 21.753 129.165 22.156 128.229 22.156C126.435 22.156 124.823 20.687 124.823 18.62C124.823 16.618 126.331 15.123 128.138 15.123C130.166 15.123 131.323 16.657 131.323 19.01H125.824C125.967 20.323 126.89 21.285 128.216 21.285ZM128.177 15.994C126.981 15.994 126.019 16.839 125.837 18.139H130.361C130.231 16.93 129.516 15.994 128.177 15.994ZM132.861 22V12.913H133.836V22H132.861ZM142.664 15.123C144.159 15.123 145.186 16.176 145.186 17.723V22H144.211V17.853C144.211 16.748 143.522 15.994 142.534 15.994C141.39 15.994 140.454 16.774 140.454 17.723V22H139.479V12.913H140.454V16.345C140.844 15.63 141.702 15.123 142.664 15.123ZM150.02 21.285C150.813 21.285 151.723 20.934 152.139 20.479L152.737 21.116C152.152 21.753 150.969 22.156 150.033 22.156C148.239 22.156 146.627 20.687 146.627 18.62C146.627 16.618 148.135 15.123 149.942 15.123C151.97 15.123 153.127 16.657 153.127 19.01H147.628C147.771 20.323 148.694 21.285 150.02 21.285ZM149.981 15.994C148.785 15.994 147.823 16.839 147.641 18.139H152.165C152.035 16.93 151.32 15.994 149.981 15.994ZM157.07 15.123C158.903 15.123 159.8 16.28 159.8 17.905V22H158.825V20.947C158.344 21.74 157.343 22.156 156.459 22.156C155.042 22.156 154.002 21.337 154.002 20.011C154.002 18.672 155.198 17.775 156.641 17.775C157.369 17.775 158.136 17.931 158.825 18.152V17.905C158.825 16.995 158.461 15.955 157.005 15.955C156.329 15.955 155.653 16.254 155.042 16.566L154.652 15.773C155.614 15.292 156.42 15.123 157.07 15.123ZM156.628 21.298C157.512 21.298 158.565 20.843 158.825 19.894V18.867C158.214 18.698 157.525 18.594 156.797 18.594C155.796 18.594 154.951 19.166 154.951 19.972C154.951 20.804 155.679 21.298 156.628 21.298ZM166.82 12.913H167.795V22H166.82V20.739C166.313 21.623 165.455 22.156 164.376 22.156C162.608 22.156 161.282 20.7 161.282 18.633C161.282 16.579 162.608 15.123 164.376 15.123C165.455 15.123 166.313 15.656 166.82 16.54V12.913ZM164.558 21.285C165.884 21.285 166.82 20.18 166.82 18.633C166.82 17.086 165.884 15.994 164.558 15.994C163.245 15.994 162.309 17.086 162.309 18.633C162.309 20.18 163.245 21.285 164.558 21.285ZM172.788 21.285C173.581 21.285 174.491 20.934 174.907 20.479L175.505 21.116C174.92 21.753 173.737 22.156 172.801 22.156C171.007 22.156 169.395 20.687 169.395 18.62C169.395 16.618 170.903 15.123 172.71 15.123C174.738 15.123 175.895 16.657 175.895 19.01H170.396C170.539 20.323 171.462 21.285 172.788 21.285ZM172.749 15.994C171.553 15.994 170.591 16.839 170.409 18.139H174.933C174.803 16.93 174.088 15.994 172.749 15.994ZM178.408 16.592C178.811 15.695 179.773 15.123 181.008 15.123V15.994C179.487 15.994 178.408 16.93 178.408 18.243V22H177.433V15.279H178.408V16.592Z" fill="#1B2B32"/>
<path d="M4 0.5H389C390.933 0.5 392.5 2.067 392.5 4V35.5H0.5V4C0.5 2.067 2.067 0.5 4 0.5Z" stroke="#CBD4D8"/>
<rect x="0.5" y="35.5" width="392" height="55" fill="white"/>
<path d="M39.328 57V49.031H36.325V48.069H43.345V49.031H40.342V57H39.328ZM47.884 50.123C49.379 50.123 50.406 51.176 50.406 52.723V57H49.431V52.853C49.431 51.748 48.742 50.994 47.754 50.994C46.61 50.994 45.674 51.774 45.674 52.723V57H44.699V47.913H45.674V51.345C46.064 50.63 46.922 50.123 47.884 50.123ZM52.9006 49.057C52.5366 49.057 52.2506 48.758 52.2506 48.407C52.2506 48.069 52.5366 47.77 52.9006 47.77C53.2516 47.77 53.5376 48.069 53.5376 48.407C53.5376 48.758 53.2516 49.057 52.9006 49.057ZM52.4066 57V50.279H53.3816V57H52.4066ZM57.6239 57.156C56.6879 57.156 55.6479 56.805 54.8419 56.155L55.3489 55.44C56.1159 55.999 56.8829 56.285 57.6239 56.285C58.5079 56.285 59.1059 55.869 59.1059 55.232C59.1059 54.504 58.3259 54.27 57.4159 54.01C55.7909 53.542 55.1669 53.061 55.1669 52.099C55.1669 50.877 56.1809 50.123 57.5199 50.123C58.3519 50.123 59.2099 50.409 59.9249 50.877L59.4569 51.631C58.7809 51.202 58.1179 50.994 57.5199 50.994C56.7659 50.994 56.1419 51.332 56.1419 51.982C56.1419 52.567 56.6359 52.749 57.8839 53.152C58.9629 53.49 60.0809 53.854 60.0809 55.128C60.0809 56.363 59.0149 57.156 57.6239 57.156ZM65.626 49.057C65.262 49.057 64.976 48.758 64.976 48.407C64.976 48.069 65.262 47.77 65.626 47.77C65.977 47.77 66.263 48.069 66.263 48.407C66.263 48.758 65.977 49.057 65.626 49.057ZM65.132 57V50.279H66.107V57H65.132ZM70.3493 57.156C69.4133 57.156 68.3733 56.805 67.5673 56.155L68.0743 55.44C68.8413 55.999 69.6083 56.285 70.3493 56.285C71.2333 56.285 71.8313 55.869 71.8313 55.232C71.8313 54.504 71.0513 54.27 70.1413 54.01C68.5163 53.542 67.8923 53.061 67.8923 52.099C67.8923 50.877 68.9063 50.123 70.2453 50.123C71.0773 50.123 71.9353 50.409 72.6503 50.877L72.1823 51.631C71.5063 51.202 70.8433 50.994 70.2453 50.994C69.4913 50.994 68.8673 51.332 68.8673 51.982C68.8673 52.567 69.3613 52.749 70.6093 53.152C71.6883 53.49 72.8063 53.854 72.8063 55.128C72.8063 56.363 71.7403 57.156 70.3493 57.156ZM80.4574 56.012L80.9384 56.727C80.5874 57 80.1454 57.156 79.6904 57.156C78.7284 57.156 78.0524 56.441 78.0524 55.44V51.15H76.9994V50.279H78.0524V48.433H79.0274V50.279H80.6784V51.15H79.0274V55.44C79.0274 55.934 79.3654 56.285 79.7554 56.285C80.0544 56.285 80.3144 56.168 80.4574 56.012ZM85.4238 50.123C86.9188 50.123 87.9458 51.176 87.9458 52.723V57H86.9708V52.853C86.9708 51.748 86.2818 50.994 85.2938 50.994C84.1498 50.994 83.2138 51.774 83.2138 52.723V57H82.2388V47.913H83.2138V51.345C83.6038 50.63 84.4618 50.123 85.4238 50.123ZM92.7804 56.285C93.5734 56.285 94.4834 55.934 94.8994 55.479L95.4974 56.116C94.9124 56.753 93.7294 57.156 92.7934 57.156C90.9994 57.156 89.3874 55.687 89.3874 53.62C89.3874 51.618 90.8954 50.123 92.7024 50.123C94.7304 50.123 95.8874 51.657 95.8874 54.01H90.3884C90.5314 55.323 91.4544 56.285 92.7804 56.285ZM92.7414 50.994C91.5454 50.994 90.5834 51.839 90.4014 53.139H94.9254C94.7954 51.93 94.0804 50.994 92.7414 50.994ZM103.792 57.156C101.907 57.156 100.308 55.544 100.308 53.633C100.308 51.722 101.907 50.123 103.792 50.123C104.702 50.123 105.547 50.5 106.184 51.111L105.508 51.774C105.066 51.293 104.455 50.994 103.792 50.994C102.453 50.994 101.335 52.203 101.335 53.633C101.335 55.076 102.453 56.285 103.792 56.285C104.468 56.285 105.092 55.973 105.547 55.466L106.223 56.129C105.586 56.766 104.728 57.156 103.792 57.156ZM110.433 57.156C108.522 57.156 106.962 55.57 106.962 53.633C106.962 51.696 108.522 50.123 110.433 50.123C112.331 50.123 113.891 51.696 113.891 53.633C113.891 55.57 112.331 57.156 110.433 57.156ZM110.433 56.285C111.772 56.285 112.877 55.089 112.877 53.633C112.877 52.177 111.772 50.994 110.433 50.994C109.081 50.994 107.976 52.177 107.976 53.633C107.976 55.089 109.081 56.285 110.433 56.285ZM118.655 50.123C120.15 50.123 121.177 51.176 121.177 52.723V57H120.202V52.853C120.202 51.748 119.513 50.994 118.525 50.994C117.381 50.994 116.445 51.774 116.445 52.723V57H115.47V50.279H116.445V51.345C116.835 50.63 117.693 50.123 118.655 50.123ZM125.778 56.012L126.259 56.727C125.908 57 125.466 57.156 125.011 57.156C124.049 57.156 123.373 56.441 123.373 55.44V51.15H122.32V50.279H123.373V48.433H124.348V50.279H125.999V51.15H124.348V55.44C124.348 55.934 124.686 56.285 125.076 56.285C125.375 56.285 125.635 56.168 125.778 56.012ZM130.393 56.285C131.186 56.285 132.096 55.934 132.512 55.479L133.11 56.116C132.525 56.753 131.342 57.156 130.406 57.156C128.612 57.156 127 55.687 127 53.62C127 51.618 128.508 50.123 130.315 50.123C132.343 50.123 133.5 51.657 133.5 54.01H128.001C128.144 55.323 129.067 56.285 130.393 56.285ZM130.354 50.994C129.158 50.994 128.196 51.839 128.014 53.139H132.538C132.408 51.93 131.693 50.994 130.354 50.994ZM138.223 50.123C139.718 50.123 140.745 51.176 140.745 52.723V57H139.77V52.853C139.77 51.748 139.081 50.994 138.093 50.994C136.949 50.994 136.013 51.774 136.013 52.723V57H135.038V50.279H136.013V51.345C136.403 50.63 137.261 50.123 138.223 50.123ZM145.346 56.012L145.827 56.727C145.476 57 145.034 57.156 144.579 57.156C143.617 57.156 142.941 56.441 142.941 55.44V51.15H141.888V50.279H142.941V48.433H143.916V50.279H145.567V51.15H143.916V55.44C143.916 55.934 144.254 56.285 144.644 56.285C144.943 56.285 145.203 56.168 145.346 56.012ZM153.013 50.123C154.846 50.123 155.743 51.28 155.743 52.905V57H154.768V55.947C154.287 56.74 153.286 57.156 152.402 57.156C150.985 57.156 149.945 56.337 149.945 55.011C149.945 53.672 151.141 52.775 152.584 52.775C153.312 52.775 154.079 52.931 154.768 53.152V52.905C154.768 51.995 154.404 50.955 152.948 50.955C152.272 50.955 151.596 51.254 150.985 51.566L150.595 50.773C151.557 50.292 152.363 50.123 153.013 50.123ZM152.571 56.298C153.455 56.298 154.508 55.843 154.768 54.894V53.867C154.157 53.698 153.468 53.594 152.74 53.594C151.739 53.594 150.894 54.166 150.894 54.972C150.894 55.804 151.622 56.298 152.571 56.298ZM158.719 51.592C159.122 50.695 160.084 50.123 161.319 50.123V50.994C159.798 50.994 158.719 51.93 158.719 53.243V57H157.744V50.279H158.719V51.592ZM165.632 56.285C166.425 56.285 167.335 55.934 167.751 55.479L168.349 56.116C167.764 56.753 166.581 57.156 165.645 57.156C163.851 57.156 162.239 55.687 162.239 53.62C162.239 51.618 163.747 50.123 165.554 50.123C167.582 50.123 168.739 51.657 168.739 54.01H163.24C163.383 55.323 164.306 56.285 165.632 56.285ZM165.593 50.994C164.397 50.994 163.435 51.839 163.253 53.139H167.777C167.647 51.93 166.932 50.994 165.593 50.994ZM172.682 50.123C174.515 50.123 175.412 51.28 175.412 52.905V57H174.437V55.947C173.956 56.74 172.955 57.156 172.071 57.156C170.654 57.156 169.614 56.337 169.614 55.011C169.614 53.672 170.81 52.775 172.253 52.775C172.981 52.775 173.748 52.931 174.437 53.152V52.905C174.437 51.995 174.073 50.955 172.617 50.955C171.941 50.955 171.265 51.254 170.654 51.566L170.264 50.773C171.226 50.292 172.032 50.123 172.682 50.123ZM172.24 56.298C173.124 56.298 174.177 55.843 174.437 54.894V53.867C173.826 53.698 173.137 53.594 172.409 53.594C171.408 53.594 170.563 54.166 170.563 54.972C170.563 55.804 171.291 56.298 172.24 56.298ZM182.103 49.356V50.279H183.754V51.15H182.103V57H181.128V51.15H180.075V50.279H181.128V49.356C181.128 48.355 181.804 47.64 182.766 47.64C183.221 47.64 183.663 47.796 184.014 48.069L183.533 48.784C183.39 48.628 183.13 48.511 182.831 48.511C182.441 48.511 182.103 48.862 182.103 49.356ZM187.806 57.156C185.895 57.156 184.335 55.57 184.335 53.633C184.335 51.696 185.895 50.123 187.806 50.123C189.704 50.123 191.264 51.696 191.264 53.633C191.264 55.57 189.704 57.156 187.806 57.156ZM187.806 56.285C189.145 56.285 190.25 55.089 190.25 53.633C190.25 52.177 189.145 50.994 187.806 50.994C186.454 50.994 185.349 52.177 185.349 53.633C185.349 55.089 186.454 56.285 187.806 56.285ZM193.818 51.592C194.221 50.695 195.183 50.123 196.418 50.123V50.994C194.897 50.994 193.818 51.93 193.818 53.243V57H192.843V50.279H193.818V51.592ZM203.977 56.012L204.458 56.727C204.107 57 203.665 57.156 203.21 57.156C202.248 57.156 201.572 56.441 201.572 55.44V51.15H200.519V50.279H201.572V48.433H202.547V50.279H204.198V51.15H202.547V55.44C202.547 55.934 202.885 56.285 203.275 56.285C203.574 56.285 203.834 56.168 203.977 56.012ZM208.944 50.123C210.439 50.123 211.466 51.176 211.466 52.723V57H210.491V52.853C210.491 51.748 209.802 50.994 208.814 50.994C207.67 50.994 206.734 51.774 206.734 52.723V57H205.759V47.913H206.734V51.345C207.124 50.63 207.982 50.123 208.944 50.123ZM216.301 56.285C217.094 56.285 218.004 55.934 218.42 55.479L219.018 56.116C218.433 56.753 217.25 57.156 216.314 57.156C214.52 57.156 212.908 55.687 212.908 53.62C212.908 51.618 214.416 50.123 216.223 50.123C218.251 50.123 219.408 51.657 219.408 54.01H213.909C214.052 55.323 214.975 56.285 216.301 56.285ZM216.262 50.994C215.066 50.994 214.104 51.839 213.922 53.139H218.446C218.316 51.93 217.601 50.994 216.262 50.994ZM227.26 56.285C228.053 56.285 228.963 55.934 229.379 55.479L229.977 56.116C229.392 56.753 228.209 57.156 227.273 57.156C225.479 57.156 223.867 55.687 223.867 53.62C223.867 51.618 225.375 50.123 227.182 50.123C229.21 50.123 230.367 51.657 230.367 54.01H224.868C225.011 55.323 225.934 56.285 227.26 56.285ZM227.221 50.994C226.025 50.994 225.063 51.839 224.881 53.139H229.405C229.275 51.93 228.56 50.994 227.221 50.994ZM237.261 57H236.117L234.102 54.322L232.074 57H230.93L233.53 53.568L231.034 50.279H232.178L234.102 52.814L236.013 50.279H237.157L234.674 53.568L237.261 57ZM241.863 50.123C243.631 50.123 244.957 51.579 244.957 53.633C244.957 55.7 243.631 57.156 241.863 57.156C240.784 57.156 239.926 56.623 239.419 55.739V59.236H238.444V50.279H239.419V51.54C239.926 50.656 240.784 50.123 241.863 50.123ZM241.681 56.285C242.994 56.285 243.93 55.18 243.93 53.633C243.93 52.086 242.994 50.994 241.681 50.994C240.355 50.994 239.419 52.086 239.419 53.633C239.419 55.18 240.355 56.285 241.681 56.285ZM249.001 50.123C250.834 50.123 251.731 51.28 251.731 52.905V57H250.756V55.947C250.275 56.74 249.274 57.156 248.39 57.156C246.973 57.156 245.933 56.337 245.933 55.011C245.933 53.672 247.129 52.775 248.572 52.775C249.3 52.775 250.067 52.931 250.756 53.152V52.905C250.756 51.995 250.392 50.955 248.936 50.955C248.26 50.955 247.584 51.254 246.973 51.566L246.583 50.773C247.545 50.292 248.351 50.123 249.001 50.123ZM248.559 56.298C249.443 56.298 250.496 55.843 250.756 54.894V53.867C250.145 53.698 249.456 53.594 248.728 53.594C247.727 53.594 246.882 54.166 246.882 54.972C246.882 55.804 247.61 56.298 248.559 56.298ZM256.918 50.123C258.413 50.123 259.44 51.176 259.44 52.723V57H258.465V52.853C258.465 51.748 257.776 50.994 256.788 50.994C255.644 50.994 254.708 51.774 254.708 52.723V57H253.733V50.279H254.708V51.345C255.098 50.63 255.956 50.123 256.918 50.123ZM266.458 47.913H267.433V57H266.458V55.739C265.951 56.623 265.093 57.156 264.014 57.156C262.246 57.156 260.92 55.7 260.92 53.633C260.92 51.579 262.246 50.123 264.014 50.123C265.093 50.123 265.951 50.656 266.458 51.54V47.913ZM264.196 56.285C265.522 56.285 266.458 55.18 266.458 53.633C266.458 52.086 265.522 50.994 264.196 50.994C262.883 50.994 261.947 52.086 261.947 53.633C261.947 55.18 262.883 56.285 264.196 56.285ZM272.426 56.285C273.219 56.285 274.129 55.934 274.545 55.479L275.143 56.116C274.558 56.753 273.375 57.156 272.439 57.156C270.645 57.156 269.033 55.687 269.033 53.62C269.033 51.618 270.541 50.123 272.348 50.123C274.376 50.123 275.533 51.657 275.533 54.01H270.034C270.177 55.323 271.1 56.285 272.426 56.285ZM272.387 50.994C271.191 50.994 270.229 51.839 270.047 53.139H274.571C274.441 51.93 273.726 50.994 272.387 50.994ZM282.089 47.913H283.064V57H282.089V55.739C281.582 56.623 280.724 57.156 279.645 57.156C277.877 57.156 276.551 55.7 276.551 53.633C276.551 51.579 277.877 50.123 279.645 50.123C280.724 50.123 281.582 50.656 282.089 51.54V47.913ZM279.827 56.285C281.153 56.285 282.089 55.18 282.089 53.633C282.089 52.086 281.153 50.994 279.827 50.994C278.514 50.994 277.578 52.086 277.578 53.633C277.578 55.18 278.514 56.285 279.827 56.285ZM291.108 50.123C292.941 50.123 293.838 51.28 293.838 52.905V57H292.863V55.947C292.382 56.74 291.381 57.156 290.497 57.156C289.08 57.156 288.04 56.337 288.04 55.011C288.04 53.672 289.236 52.775 290.679 52.775C291.407 52.775 292.174 52.931 292.863 53.152V52.905C292.863 51.995 292.499 50.955 291.043 50.955C290.367 50.955 289.691 51.254 289.08 51.566L288.69 50.773C289.652 50.292 290.458 50.123 291.108 50.123ZM290.666 56.298C291.55 56.298 292.603 55.843 292.863 54.894V53.867C292.252 53.698 291.563 53.594 290.835 53.594C289.834 53.594 288.989 54.166 288.989 54.972C288.989 55.804 289.717 56.298 290.666 56.298ZM298.726 57.156C296.841 57.156 295.242 55.544 295.242 53.633C295.242 51.722 296.841 50.123 298.726 50.123C299.636 50.123 300.481 50.5 301.118 51.111L300.442 51.774C300 51.293 299.389 50.994 298.726 50.994C297.387 50.994 296.269 52.203 296.269 53.633C296.269 55.076 297.387 56.285 298.726 56.285C299.402 56.285 300.026 55.973 300.481 55.466L301.157 56.129C300.52 56.766 299.662 57.156 298.726 57.156ZM305.367 57.156C303.482 57.156 301.883 55.544 301.883 53.633C301.883 51.722 303.482 50.123 305.367 50.123C306.277 50.123 307.122 50.5 307.759 51.111L307.083 51.774C306.641 51.293 306.03 50.994 305.367 50.994C304.028 50.994 302.91 52.203 302.91 53.633C302.91 55.076 304.028 56.285 305.367 56.285C306.043 56.285 306.667 55.973 307.122 55.466L307.798 56.129C307.161 56.766 306.303 57.156 305.367 57.156ZM312.008 57.156C310.097 57.156 308.537 55.57 308.537 53.633C308.537 51.696 310.097 50.123 312.008 50.123C313.906 50.123 315.466 51.696 315.466 53.633C315.466 55.57 313.906 57.156 312.008 57.156ZM312.008 56.285C313.347 56.285 314.452 55.089 314.452 53.633C314.452 52.177 313.347 50.994 312.008 50.994C310.656 50.994 309.551 52.177 309.551 53.633C309.551 55.089 310.656 56.285 312.008 56.285ZM318.021 51.592C318.424 50.695 319.386 50.123 320.621 50.123V50.994C319.1 50.994 318.021 51.93 318.021 53.243V57H317.046V50.279H318.021V51.592ZM327.118 47.913H328.093V57H327.118V55.739C326.611 56.623 325.753 57.156 324.674 57.156C322.906 57.156 321.58 55.7 321.58 53.633C321.58 51.579 322.906 50.123 324.674 50.123C325.753 50.123 326.611 50.656 327.118 51.54V47.913ZM324.856 56.285C326.182 56.285 327.118 55.18 327.118 53.633C327.118 52.086 326.182 50.994 324.856 50.994C323.543 50.994 322.607 52.086 322.607 53.633C322.607 55.18 323.543 56.285 324.856 56.285ZM330.746 49.057C330.382 49.057 330.096 48.758 330.096 48.407C330.096 48.069 330.382 47.77 330.746 47.77C331.097 47.77 331.383 48.069 331.383 48.407C331.383 48.758 331.097 49.057 330.746 49.057ZM330.252 57V50.279H331.227V57H330.252ZM336.275 57.156C334.364 57.156 332.804 55.57 332.804 53.633C332.804 51.696 334.364 50.123 336.275 50.123C338.173 50.123 339.733 51.696 339.733 53.633C339.733 55.57 338.173 57.156 336.275 57.156ZM336.275 56.285C337.614 56.285 338.719 55.089 338.719 53.633C338.719 52.177 337.614 50.994 336.275 50.994C334.923 50.994 333.818 52.177 333.818 53.633C333.818 55.089 334.923 56.285 336.275 56.285ZM344.498 50.123C345.993 50.123 347.02 51.176 347.02 52.723V57H346.045V52.853C346.045 51.748 345.356 50.994 344.368 50.994C343.224 50.994 342.288 51.774 342.288 52.723V57H341.313V50.279H342.288V51.345C342.678 50.63 343.536 50.123 344.498 50.123ZM40.55 70.123C42.318 70.123 43.644 71.579 43.644 73.633C43.644 75.7 42.318 77.156 40.55 77.156C39.471 77.156 38.613 76.623 38.106 75.739V79.236H37.131V70.279H38.106V71.54C38.613 70.656 39.471 70.123 40.55 70.123ZM40.368 76.285C41.681 76.285 42.617 75.18 42.617 73.633C42.617 72.086 41.681 70.994 40.368 70.994C39.042 70.994 38.106 72.086 38.106 73.633C38.106 75.18 39.042 76.285 40.368 76.285ZM47.688 70.123C49.521 70.123 50.418 71.28 50.418 72.905V77H49.443V75.947C48.962 76.74 47.961 77.156 47.077 77.156C45.66 77.156 44.62 76.337 44.62 75.011C44.62 73.672 45.816 72.775 47.259 72.775C47.987 72.775 48.754 72.931 49.443 73.152V72.905C49.443 71.995 49.079 70.955 47.623 70.955C46.947 70.955 46.271 71.254 45.66 71.566L45.27 70.773C46.232 70.292 47.038 70.123 47.688 70.123ZM47.246 76.298C48.13 76.298 49.183 75.843 49.443 74.894V73.867C48.832 73.698 48.143 73.594 47.415 73.594C46.414 73.594 45.569 74.166 45.569 74.972C45.569 75.804 46.297 76.298 47.246 76.298ZM55.6043 70.123C57.0993 70.123 58.1263 71.176 58.1263 72.723V77H57.1513V72.853C57.1513 71.748 56.4623 70.994 55.4743 70.994C54.3303 70.994 53.3943 71.774 53.3943 72.723V77H52.4193V70.279H53.3943V71.345C53.7843 70.63 54.6423 70.123 55.6043 70.123ZM62.9609 76.285C63.7539 76.285 64.6639 75.934 65.0799 75.479L65.6779 76.116C65.0929 76.753 63.9099 77.156 62.9739 77.156C61.1799 77.156 59.5679 75.687 59.5679 73.62C59.5679 71.618 61.0759 70.123 62.8829 70.123C64.9109 70.123 66.0679 71.657 66.0679 74.01H60.5689C60.7119 75.323 61.6349 76.285 62.9609 76.285ZM62.9219 70.994C61.7259 70.994 60.7639 71.839 60.5819 73.139H65.1059C64.9759 71.93 64.2609 70.994 62.9219 70.994ZM67.606 77V67.913H68.581V77H67.606ZM76.6284 70.123C78.4614 70.123 79.3584 71.28 79.3584 72.905V77H78.3834V75.947C77.9024 76.74 76.9014 77.156 76.0174 77.156C74.6004 77.156 73.5604 76.337 73.5604 75.011C73.5604 73.672 74.7564 72.775 76.1994 72.775C76.9274 72.775 77.6944 72.931 78.3834 73.152V72.905C78.3834 71.995 78.0194 70.955 76.5634 70.955C75.8874 70.955 75.2114 71.254 74.6004 71.566L74.2104 70.773C75.1724 70.292 75.9784 70.123 76.6284 70.123ZM76.1864 76.298C77.0704 76.298 78.1234 75.843 78.3834 74.894V73.867C77.7724 73.698 77.0834 73.594 76.3554 73.594C75.3544 73.594 74.5094 74.166 74.5094 74.972C74.5094 75.804 75.2374 76.298 76.1864 76.298ZM84.7787 70.123C86.5467 70.123 87.8727 71.579 87.8727 73.633C87.8727 75.7 86.5467 77.156 84.7787 77.156C83.6997 77.156 82.8417 76.623 82.3347 75.739V77H81.3597V67.913H82.3347V71.54C82.8417 70.656 83.6997 70.123 84.7787 70.123ZM84.5967 76.285C85.9097 76.285 86.8457 75.18 86.8457 73.633C86.8457 72.086 85.9097 70.994 84.5967 70.994C83.2707 70.994 82.3347 72.086 82.3347 73.633C82.3347 75.18 83.2707 76.285 84.5967 76.285ZM92.3977 77.156C90.4867 77.156 88.9267 75.57 88.9267 73.633C88.9267 71.696 90.4867 70.123 92.3977 70.123C94.2957 70.123 95.8557 71.696 95.8557 73.633C95.8557 75.57 94.2957 77.156 92.3977 77.156ZM92.3977 76.285C93.7367 76.285 94.8417 75.089 94.8417 73.633C94.8417 72.177 93.7367 70.994 92.3977 70.994C91.0457 70.994 89.9407 72.177 89.9407 73.633C89.9407 75.089 91.0457 76.285 92.3977 76.285ZM99.2941 77L96.4341 70.279H97.5261L99.7621 75.856L101.959 70.279H103.051L100.23 77H99.2941ZM107.05 76.285C107.843 76.285 108.753 75.934 109.169 75.479L109.767 76.116C109.182 76.753 107.999 77.156 107.063 77.156C105.269 77.156 103.657 75.687 103.657 73.62C103.657 71.618 105.165 70.123 106.972 70.123C109 70.123 110.157 71.657 110.157 74.01H104.658C104.801 75.323 105.724 76.285 107.05 76.285ZM107.011 70.994C105.815 70.994 104.853 71.839 104.671 73.139H109.195C109.065 71.93 108.35 70.994 107.011 70.994ZM112.683 77.156C112.28 77.156 111.968 76.831 111.968 76.441C111.968 76.077 112.28 75.752 112.683 75.752C113.06 75.752 113.372 76.077 113.372 76.441C113.372 76.831 113.06 77.156 112.683 77.156Z" fill="#22343C"/>
<rect x="0.5" y="35.5" width="392" height="55" stroke="#CBD4D8"/>
<path d="M0.5 90.5H392.5V125.5H0.5V90.5Z" fill="white"/>
<path d="M17.9937 113.118L23.2915 107.998L17.9937 102.878C17.693 102.588 17.2145 102.597 16.9248 102.898C16.6352 103.199 16.6441 103.677 16.9448 103.967L21.1182 107.998L16.9448 112.034C16.6441 112.323 16.6352 112.802 16.9248 113.102C17.2145 113.403 17.693 113.412 17.9937 113.122L17.9937 113.118Z" fill="#ACB8BE"/>
<path d="M37.417 112V103.069H40.433C43.267 103.069 45.269 104.915 45.269 107.528C45.269 110.141 43.267 112 40.433 112H37.417ZM38.431 111.077H40.433C42.669 111.077 44.242 109.608 44.242 107.528C44.242 105.461 42.669 103.992 40.433 103.992H38.431V111.077ZM47.5162 104.057C47.1522 104.057 46.8662 103.758 46.8662 103.407C46.8662 103.069 47.1522 102.77 47.5162 102.77C47.8672 102.77 48.1532 103.069 48.1532 103.407C48.1532 103.758 47.8672 104.057 47.5162 104.057ZM47.0222 112V105.279H47.9972V112H47.0222ZM52.2395 112.156C51.3035 112.156 50.2635 111.805 49.4575 111.155L49.9645 110.44C50.7315 110.999 51.4985 111.285 52.2395 111.285C53.1235 111.285 53.7215 110.869 53.7215 110.232C53.7215 109.504 52.9415 109.27 52.0315 109.01C50.4065 108.542 49.7825 108.061 49.7825 107.099C49.7825 105.877 50.7965 105.123 52.1355 105.123C52.9675 105.123 53.8255 105.409 54.5405 105.877L54.0725 106.631C53.3965 106.202 52.7335 105.994 52.1355 105.994C51.3815 105.994 50.7575 106.332 50.7575 106.982C50.7575 107.567 51.2515 107.749 52.4995 108.152C53.5785 108.49 54.6965 108.854 54.6965 110.128C54.6965 111.363 53.6305 112.156 52.2395 112.156ZM58.6725 105.123C60.5055 105.123 61.4025 106.28 61.4025 107.905V112H60.4275V110.947C59.9465 111.74 58.9455 112.156 58.0615 112.156C56.6445 112.156 55.6045 111.337 55.6045 110.011C55.6045 108.672 56.8005 107.775 58.2435 107.775C58.9715 107.775 59.7385 107.931 60.4275 108.152V107.905C60.4275 106.995 60.0635 105.955 58.6075 105.955C57.9315 105.955 57.2555 106.254 56.6445 106.566L56.2545 105.773C57.2165 105.292 58.0225 105.123 58.6725 105.123ZM58.2305 111.298C59.1145 111.298 60.1675 110.843 60.4275 109.894V108.867C59.8165 108.698 59.1275 108.594 58.3995 108.594C57.3985 108.594 56.5535 109.166 56.5535 109.972C56.5535 110.804 57.2815 111.298 58.2305 111.298ZM66.8229 105.123C68.5909 105.123 69.9169 106.579 69.9169 108.633C69.9169 110.7 68.5909 112.156 66.8229 112.156C65.7439 112.156 64.8859 111.623 64.3789 110.739V112H63.4039V102.913H64.3789V106.54C64.8859 105.656 65.7439 105.123 66.8229 105.123ZM66.6409 111.285C67.9539 111.285 68.8899 110.18 68.8899 108.633C68.8899 107.086 67.9539 105.994 66.6409 105.994C65.3149 105.994 64.3789 107.086 64.3789 108.633C64.3789 110.18 65.3149 111.285 66.6409 111.285ZM71.5558 112V102.913H72.5308V112H71.5558ZM77.5271 111.285C78.3201 111.285 79.2301 110.934 79.6461 110.479L80.2441 111.116C79.6591 111.753 78.4761 112.156 77.5401 112.156C75.7461 112.156 74.1341 110.687 74.1341 108.62C74.1341 106.618 75.6421 105.123 77.4491 105.123C79.4771 105.123 80.6341 106.657 80.6341 109.01H75.1351C75.2781 110.323 76.2011 111.285 77.5271 111.285ZM77.4881 105.994C76.2921 105.994 75.3301 106.839 75.1481 108.139H79.6721C79.5421 106.93 78.8271 105.994 77.4881 105.994ZM87.1902 102.913H88.1652V112H87.1902V110.739C86.6832 111.623 85.8252 112.156 84.7462 112.156C82.9782 112.156 81.6522 110.7 81.6522 108.633C81.6522 106.579 82.9782 105.123 84.7462 105.123C85.8252 105.123 86.6832 105.656 87.1902 106.54V102.913ZM84.9282 111.285C86.2542 111.285 87.1902 110.18 87.1902 108.633C87.1902 107.086 86.2542 105.994 84.9282 105.994C83.6152 105.994 82.6792 107.086 82.6792 108.633C82.6792 110.18 83.6152 111.285 84.9282 111.285ZM97.2232 105.123C98.9912 105.123 100.317 106.579 100.317 108.633C100.317 110.7 98.9912 112.156 97.2232 112.156C96.1442 112.156 95.2862 111.623 94.7792 110.739V114.236H93.8042V105.279H94.7792V106.54C95.2862 105.656 96.1442 105.123 97.2232 105.123ZM97.0412 111.285C98.3542 111.285 99.2902 110.18 99.2902 108.633C99.2902 107.086 98.3542 105.994 97.0412 105.994C95.7152 105.994 94.7792 107.086 94.7792 108.633C94.7792 110.18 95.7152 111.285 97.0412 111.285ZM104.361 105.123C106.194 105.123 107.091 106.28 107.091 107.905V112H106.116V110.947C105.635 111.74 104.634 112.156 103.75 112.156C102.333 112.156 101.293 111.337 101.293 110.011C101.293 108.672 102.489 107.775 103.932 107.775C104.66 107.775 105.427 107.931 106.116 108.152V107.905C106.116 106.995 105.752 105.955 104.296 105.955C103.62 105.955 102.944 106.254 102.333 106.566L101.943 105.773C102.905 105.292 103.711 105.123 104.361 105.123ZM103.919 111.298C104.803 111.298 105.856 110.843 106.116 109.894V108.867C105.505 108.698 104.816 108.594 104.088 108.594C103.087 108.594 102.242 109.166 102.242 109.972C102.242 110.804 102.97 111.298 103.919 111.298ZM112.278 105.123C113.773 105.123 114.8 106.176 114.8 107.723V112H113.825V107.853C113.825 106.748 113.136 105.994 112.148 105.994C111.004 105.994 110.068 106.774 110.068 107.723V112H109.093V105.279H110.068V106.345C110.458 105.63 111.316 105.123 112.278 105.123ZM119.634 111.285C120.427 111.285 121.337 110.934 121.753 110.479L122.351 111.116C121.766 111.753 120.583 112.156 119.647 112.156C117.853 112.156 116.241 110.687 116.241 108.62C116.241 106.618 117.749 105.123 119.556 105.123C121.584 105.123 122.741 106.657 122.741 109.01H117.242C117.385 110.323 118.308 111.285 119.634 111.285ZM119.595 105.994C118.399 105.994 117.437 106.839 117.255 108.139H121.779C121.649 106.93 120.934 105.994 119.595 105.994ZM124.279 112V102.913H125.254V112H124.279ZM134.082 105.123C135.577 105.123 136.604 106.176 136.604 107.723V112H135.629V107.853C135.629 106.748 134.94 105.994 133.952 105.994C132.808 105.994 131.872 106.774 131.872 107.723V112H130.897V102.913H131.872V106.345C132.262 105.63 133.12 105.123 134.082 105.123ZM141.438 111.285C142.231 111.285 143.141 110.934 143.557 110.479L144.155 111.116C143.57 111.753 142.387 112.156 141.451 112.156C139.657 112.156 138.045 110.687 138.045 108.62C138.045 106.618 139.553 105.123 141.36 105.123C143.388 105.123 144.545 106.657 144.545 109.01H139.046C139.189 110.323 140.112 111.285 141.438 111.285ZM141.399 105.994C140.203 105.994 139.241 106.839 139.059 108.139H143.583C143.453 106.93 142.738 105.994 141.399 105.994ZM148.488 105.123C150.321 105.123 151.218 106.28 151.218 107.905V112H150.243V110.947C149.762 111.74 148.761 112.156 147.877 112.156C146.46 112.156 145.42 111.337 145.42 110.011C145.42 108.672 146.616 107.775 148.059 107.775C148.787 107.775 149.554 107.931 150.243 108.152V107.905C150.243 106.995 149.879 105.955 148.423 105.955C147.747 105.955 147.071 106.254 146.46 106.566L146.07 105.773C147.032 105.292 147.838 105.123 148.488 105.123ZM148.046 111.298C148.93 111.298 149.983 110.843 150.243 109.894V108.867C149.632 108.698 148.943 108.594 148.215 108.594C147.214 108.594 146.369 109.166 146.369 109.972C146.369 110.804 147.097 111.298 148.046 111.298ZM158.238 102.913H159.213V112H158.238V110.739C157.731 111.623 156.873 112.156 155.794 112.156C154.026 112.156 152.7 110.7 152.7 108.633C152.7 106.579 154.026 105.123 155.794 105.123C156.873 105.123 157.731 105.656 158.238 106.54V102.913ZM155.976 111.285C157.302 111.285 158.238 110.18 158.238 108.633C158.238 107.086 157.302 105.994 155.976 105.994C154.663 105.994 153.727 107.086 153.727 108.633C153.727 110.18 154.663 111.285 155.976 111.285ZM164.206 111.285C164.999 111.285 165.909 110.934 166.325 110.479L166.923 111.116C166.338 111.753 165.155 112.156 164.219 112.156C162.425 112.156 160.813 110.687 160.813 108.62C160.813 106.618 162.321 105.123 164.128 105.123C166.156 105.123 167.313 106.657 167.313 109.01H161.814C161.957 110.323 162.88 111.285 164.206 111.285ZM164.167 105.994C162.971 105.994 162.009 106.839 161.827 108.139H166.351C166.221 106.93 165.506 105.994 164.167 105.994ZM169.826 106.592C170.229 105.695 171.191 105.123 172.426 105.123V105.994C170.905 105.994 169.826 106.93 169.826 108.243V112H168.851V105.279H169.826V106.592Z" fill="#ACB8BE"/>
<path d="M0.5 90.5H392.5V125.5H0.5V90.5Z" stroke="#CBD4D8"/>
<path d="M0.5 125.5H392.5V157C392.5 158.933 390.933 160.5 389 160.5H3.99999C2.06699 160.5 0.5 158.933 0.5 157V125.5Z" fill="white"/>
<path d="M17.9937 148.118L23.2915 142.998L17.9937 137.878C17.693 137.588 17.2145 137.597 16.9248 137.898C16.6352 138.199 16.6441 138.677 16.9448 138.967L21.1182 142.998L16.9448 147.034C16.6441 147.323 16.6352 147.802 16.9248 148.102C17.2145 148.403 17.693 148.412 17.9937 148.122L17.9937 148.118Z" fill="#3A4D55"/>
<path d="M41.304 147.156C38.834 147.156 36.728 145.037 36.728 142.528C36.728 140.019 38.834 137.913 41.304 137.913C42.539 137.913 43.683 138.433 44.515 139.278L43.826 139.98C43.176 139.291 42.279 138.849 41.304 138.849C39.38 138.849 37.755 140.539 37.755 142.528C37.755 144.53 39.38 146.22 41.304 146.22C42.279 146.22 43.176 145.778 43.826 145.089L44.515 145.791C43.683 146.623 42.539 147.156 41.304 147.156ZM48.918 147.156C47.007 147.156 45.447 145.57 45.447 143.633C45.447 141.696 47.007 140.123 48.918 140.123C50.816 140.123 52.376 141.696 52.376 143.633C52.376 145.57 50.816 147.156 48.918 147.156ZM48.918 146.285C50.257 146.285 51.362 145.089 51.362 143.633C51.362 142.177 50.257 140.994 48.918 140.994C47.566 140.994 46.461 142.177 46.461 143.633C46.461 145.089 47.566 146.285 48.918 146.285ZM53.9554 147V137.913H54.9304V147H53.9554ZM57.0927 147V137.913H58.0677V147H57.0927ZM62.635 140.123C64.468 140.123 65.365 141.28 65.365 142.905V147H64.39V145.947C63.909 146.74 62.908 147.156 62.024 147.156C60.607 147.156 59.567 146.337 59.567 145.011C59.567 143.672 60.763 142.775 62.206 142.775C62.934 142.775 63.701 142.931 64.39 143.152V142.905C64.39 141.995 64.026 140.955 62.57 140.955C61.894 140.955 61.218 141.254 60.607 141.566L60.217 140.773C61.179 140.292 61.985 140.123 62.635 140.123ZM62.193 146.298C63.077 146.298 64.13 145.843 64.39 144.894V143.867C63.779 143.698 63.09 143.594 62.362 143.594C61.361 143.594 60.516 144.166 60.516 144.972C60.516 145.804 61.244 146.298 62.193 146.298ZM70.7854 140.123C72.5534 140.123 73.8794 141.579 73.8794 143.633C73.8794 145.7 72.5534 147.156 70.7854 147.156C69.7064 147.156 68.8484 146.623 68.3414 145.739V149.236H67.3664V140.279H68.3414V141.54C68.8484 140.656 69.7064 140.123 70.7854 140.123ZM70.6034 146.285C71.9164 146.285 72.8524 145.18 72.8524 143.633C72.8524 142.086 71.9164 140.994 70.6034 140.994C69.2774 140.994 68.3414 142.086 68.3414 143.633C68.3414 145.18 69.2774 146.285 70.6034 146.285ZM77.5983 147.156C76.6623 147.156 75.6223 146.805 74.8163 146.155L75.3233 145.44C76.0903 145.999 76.8573 146.285 77.5983 146.285C78.4823 146.285 79.0803 145.869 79.0803 145.232C79.0803 144.504 78.3003 144.27 77.3903 144.01C75.7653 143.542 75.1413 143.061 75.1413 142.099C75.1413 140.877 76.1553 140.123 77.4943 140.123C78.3263 140.123 79.1843 140.409 79.8993 140.877L79.4313 141.631C78.7553 141.202 78.0923 140.994 77.4943 140.994C76.7403 140.994 76.1163 141.332 76.1163 141.982C76.1163 142.567 76.6103 142.749 77.8583 143.152C78.9373 143.49 80.0553 143.854 80.0553 145.128C80.0553 146.363 78.9893 147.156 77.5983 147.156ZM84.4603 146.285C85.2533 146.285 86.1633 145.934 86.5793 145.479L87.1773 146.116C86.5923 146.753 85.4093 147.156 84.4733 147.156C82.6793 147.156 81.0673 145.687 81.0673 143.62C81.0673 141.618 82.5753 140.123 84.3823 140.123C86.4103 140.123 87.5673 141.657 87.5673 144.01H82.0683C82.2113 145.323 83.1343 146.285 84.4603 146.285ZM84.4213 140.994C83.2253 140.994 82.2633 141.839 82.0813 143.139H86.6053C86.4753 141.93 85.7603 140.994 84.4213 140.994ZM94.1234 137.913H95.0984V147H94.1234V145.739C93.6164 146.623 92.7584 147.156 91.6794 147.156C89.9114 147.156 88.5854 145.7 88.5854 143.633C88.5854 141.579 89.9114 140.123 91.6794 140.123C92.7584 140.123 93.6164 140.656 94.1234 141.54V137.913ZM91.8614 146.285C93.1874 146.285 94.1234 145.18 94.1234 143.633C94.1234 142.086 93.1874 140.994 91.8614 140.994C90.5484 140.994 89.6124 142.086 89.6124 143.633C89.6124 145.18 90.5484 146.285 91.8614 146.285ZM104.156 140.123C105.924 140.123 107.25 141.579 107.25 143.633C107.25 145.7 105.924 147.156 104.156 147.156C103.077 147.156 102.219 146.623 101.712 145.739V149.236H100.737V140.279H101.712V141.54C102.219 140.656 103.077 140.123 104.156 140.123ZM103.974 146.285C105.287 146.285 106.223 145.18 106.223 143.633C106.223 142.086 105.287 140.994 103.974 140.994C102.648 140.994 101.712 142.086 101.712 143.633C101.712 145.18 102.648 146.285 103.974 146.285ZM111.294 140.123C113.127 140.123 114.024 141.28 114.024 142.905V147H113.049V145.947C112.568 146.74 111.567 147.156 110.683 147.156C109.266 147.156 108.226 146.337 108.226 145.011C108.226 143.672 109.422 142.775 110.865 142.775C111.593 142.775 112.36 142.931 113.049 143.152V142.905C113.049 141.995 112.685 140.955 111.229 140.955C110.553 140.955 109.877 141.254 109.266 141.566L108.876 140.773C109.838 140.292 110.644 140.123 111.294 140.123ZM110.852 146.298C111.736 146.298 112.789 145.843 113.049 144.894V143.867C112.438 143.698 111.749 143.594 111.021 143.594C110.02 143.594 109.175 144.166 109.175 144.972C109.175 145.804 109.903 146.298 110.852 146.298ZM119.211 140.123C120.706 140.123 121.733 141.176 121.733 142.723V147H120.758V142.853C120.758 141.748 120.069 140.994 119.081 140.994C117.937 140.994 117.001 141.774 117.001 142.723V147H116.026V140.279H117.001V141.345C117.391 140.63 118.249 140.123 119.211 140.123ZM126.567 146.285C127.36 146.285 128.27 145.934 128.686 145.479L129.284 146.116C128.699 146.753 127.516 147.156 126.58 147.156C124.786 147.156 123.174 145.687 123.174 143.62C123.174 141.618 124.682 140.123 126.489 140.123C128.517 140.123 129.674 141.657 129.674 144.01H124.175C124.318 145.323 125.241 146.285 126.567 146.285ZM126.528 140.994C125.332 140.994 124.37 141.839 124.188 143.139H128.712C128.582 141.93 127.867 140.994 126.528 140.994ZM131.212 147V137.913H132.187V147H131.212ZM141.015 140.123C142.51 140.123 143.537 141.176 143.537 142.723V147H142.562V142.853C142.562 141.748 141.873 140.994 140.885 140.994C139.741 140.994 138.805 141.774 138.805 142.723V147H137.83V137.913H138.805V141.345C139.195 140.63 140.053 140.123 141.015 140.123ZM148.371 146.285C149.164 146.285 150.074 145.934 150.49 145.479L151.088 146.116C150.503 146.753 149.32 147.156 148.384 147.156C146.59 147.156 144.978 145.687 144.978 143.62C144.978 141.618 146.486 140.123 148.293 140.123C150.321 140.123 151.478 141.657 151.478 144.01H145.979C146.122 145.323 147.045 146.285 148.371 146.285ZM148.332 140.994C147.136 140.994 146.174 141.839 145.992 143.139H150.516C150.386 141.93 149.671 140.994 148.332 140.994ZM155.422 140.123C157.255 140.123 158.152 141.28 158.152 142.905V147H157.177V145.947C156.696 146.74 155.695 147.156 154.811 147.156C153.394 147.156 152.354 146.337 152.354 145.011C152.354 143.672 153.55 142.775 154.993 142.775C155.721 142.775 156.488 142.931 157.177 143.152V142.905C157.177 141.995 156.813 140.955 155.357 140.955C154.681 140.955 154.005 141.254 153.394 141.566L153.004 140.773C153.966 140.292 154.772 140.123 155.422 140.123ZM154.98 146.298C155.864 146.298 156.917 145.843 157.177 144.894V143.867C156.566 143.698 155.877 143.594 155.149 143.594C154.148 143.594 153.303 144.166 153.303 144.972C153.303 145.804 154.031 146.298 154.98 146.298ZM165.171 137.913H166.146V147H165.171V145.739C164.664 146.623 163.806 147.156 162.727 147.156C160.959 147.156 159.633 145.7 159.633 143.633C159.633 141.579 160.959 140.123 162.727 140.123C163.806 140.123 164.664 140.656 165.171 141.54V137.913ZM162.909 146.285C164.235 146.285 165.171 145.18 165.171 143.633C165.171 142.086 164.235 140.994 162.909 140.994C161.596 140.994 160.66 142.086 160.66 143.633C160.66 145.18 161.596 146.285 162.909 146.285ZM171.139 146.285C171.932 146.285 172.842 145.934 173.258 145.479L173.856 146.116C173.271 146.753 172.088 147.156 171.152 147.156C169.358 147.156 167.746 145.687 167.746 143.62C167.746 141.618 169.254 140.123 171.061 140.123C173.089 140.123 174.246 141.657 174.246 144.01H168.747C168.89 145.323 169.813 146.285 171.139 146.285ZM171.1 140.994C169.904 140.994 168.942 141.839 168.76 143.139H173.284C173.154 141.93 172.439 140.994 171.1 140.994ZM176.759 141.592C177.162 140.695 178.124 140.123 179.359 140.123V140.994C177.838 140.994 176.759 141.93 176.759 143.243V147H175.784V140.279H176.759V141.592Z" fill="#22343C"/>
<path d="M0.5 125.5H392.5V157C392.5 158.933 390.933 160.5 389 160.5H3.99999C2.06699 160.5 0.5 158.933 0.5 157V125.5Z" stroke="#CBD4D8"/>
</svg>
