<svg width="452" height="264" viewBox="0 0 452 264" fill="none" xmlns="http://www.w3.org/2000/svg">
<g clip-path="url(#clip0_8802_38371)">
<path d="M0 4C0 1.79086 1.79086 0 4 0H448C450.209 0 452 1.79086 452 4V264H0V4Z" fill="#1B2B32"/>
<rect width="452" height="17" fill="#859399"/>
<g opacity="0.7">
<rect width="452" height="264" fill="#2D4048"/>
<path d="M88.2305 34.7499C88.2305 33.7499 89.0505 32.9299 90.0505 32.9299H143.16C144.17 32.9299 144.98 33.7399 144.98 34.7499C144.98 35.7599 144.16 36.5699 143.16 36.5699H90.0505C89.0405 36.5699 88.2305 35.7599 88.2305 34.7499Z" fill="#A9B7C6"/>
<path d="M88.2305 77.6001C88.2305 77.0501 88.6805 76.6101 89.2305 76.6101H118.27C118.82 76.6101 119.26 77.0501 119.26 77.6001C119.26 78.1501 118.81 78.5901 118.27 78.5901H89.2305C88.6805 78.5901 88.2305 78.1501 88.2305 77.6001Z" fill="#A9B7C6"/>
<path d="M88.2305 85.0901C88.2305 84.5401 88.6805 84.1001 89.2305 84.1001H117.33C117.88 84.1001 118.32 84.5401 118.32 85.0901C118.32 85.6401 117.87 86.0801 117.33 86.0801H89.2305C88.6805 86.0801 88.2305 85.6401 88.2305 85.0901Z" fill="#C5CED8"/>
<path d="M88.2305 92.5901C88.2305 92.0401 88.6805 91.6001 89.2305 91.6001H114.51C115.06 91.6001 115.51 92.0401 115.51 92.5901C115.51 93.1401 115.06 93.5801 114.51 93.5801H89.2305C88.6805 93.5801 88.2305 93.1401 88.2305 92.5901Z" fill="#C5CED8"/>
<path d="M165.891 76.6001C165.891 76.0501 166.341 75.6101 166.891 75.6101H195.931C196.481 75.6101 196.921 76.0501 196.921 76.6001C196.921 77.1501 196.471 77.5901 195.931 77.5901H166.891C166.341 77.5901 165.891 77.1501 165.891 76.6001Z" fill="#A9B7C6"/>
<path d="M165.891 84.1001C165.891 83.5501 166.341 83.1101 166.891 83.1101H194.991C195.541 83.1101 195.991 83.5501 195.991 84.1001C195.991 84.6501 195.551 85.0901 194.991 85.0901H166.891C166.341 85.0901 165.891 84.6501 165.891 84.1001Z" fill="#C5CED8"/>
<path d="M165.891 91.6001C165.891 91.0501 166.341 90.6101 166.891 90.6101H192.171C192.721 90.6101 193.161 91.0501 193.161 91.6001C193.161 92.1501 192.711 92.5901 192.171 92.5901H166.891C166.341 92.5901 165.891 92.1501 165.891 91.6001Z" fill="#C5CED8"/>
<path d="M243.551 76.6001C243.551 76.0501 244.001 75.6101 244.551 75.6101H273.591C274.141 75.6101 274.591 76.0501 274.591 76.6001C274.591 77.1501 274.141 77.5901 273.591 77.5901H244.551C244.001 77.5901 243.551 77.1501 243.551 76.6001Z" fill="#A9B7C6"/>
<path d="M243.551 84.1001C243.551 83.5501 244.001 83.1101 244.551 83.1101H272.651C273.201 83.1101 273.651 83.5501 273.651 84.1001C273.651 84.6501 273.211 85.0901 272.651 85.0901H244.551C244.001 85.0901 243.551 84.6501 243.551 84.1001Z" fill="#C5CED8"/>
<path d="M243.551 91.6001C243.551 91.0501 244.001 90.6101 244.551 90.6101H269.831C270.381 90.6101 270.831 91.0501 270.831 91.6001C270.831 92.1501 270.381 92.5901 269.831 92.5901H244.551C244.001 92.5901 243.551 92.1501 243.551 91.6001Z" fill="#C5CED8"/>
<path d="M321.201 76.6001C321.201 76.0501 321.651 75.6101 322.191 75.6101H351.231C351.781 75.6101 352.221 76.0501 352.221 76.6001C352.221 77.1501 351.771 77.5901 351.231 77.5901H322.191C321.641 77.5901 321.201 77.1501 321.201 76.6001Z" fill="#A9B7C6"/>
<path d="M321.201 84.1001C321.201 83.5501 321.651 83.1101 322.191 83.1101H350.291C350.841 83.1101 351.281 83.5501 351.281 84.1001C351.281 84.6501 350.831 85.0901 350.291 85.0901H322.191C321.641 85.0901 321.201 84.6501 321.201 84.1001Z" fill="#C5CED8"/>
<path d="M321.201 91.6001C321.201 91.0501 321.651 90.6101 322.191 90.6101H347.471C348.021 90.6101 348.471 91.0501 348.471 91.6001C348.471 92.1501 348.021 92.5901 347.471 92.5901H322.191C321.641 92.5901 321.201 92.1501 321.201 91.6001Z" fill="#C5CED8"/>
<path d="M333.38 59.8101H100.18V61.0301H333.38V59.8101Z" fill="#ACB9BE"/>
<path d="M95.47 66.87C99.04 66.87 101.94 63.98 101.94 60.42C101.94 56.86 99.04 53.97 95.47 53.97C91.9 53.97 89 56.86 89 60.42C89 63.98 91.9 66.87 95.47 66.87Z" fill="white"/>
<path d="M95.47 67.37C91.63 67.37 88.5 64.25 88.5 60.42C88.5 56.59 91.63 53.47 95.47 53.47C99.31 53.47 102.44 56.59 102.44 60.42C102.44 64.25 99.31 67.37 95.47 67.37ZM95.47 54.47C92.18 54.47 89.5 57.14 89.5 60.42C89.5 63.7 92.18 66.37 95.47 66.37C98.76 66.37 101.44 63.7 101.44 60.42C101.44 57.14 98.76 54.47 95.47 54.47Z" fill="#56AA13"/>
<path d="M94.6206 63.0601C94.4906 63.0601 94.3605 63.0101 94.2605 62.9101L91.8905 60.4801C91.7005 60.2801 91.7005 59.9701 91.8905 59.7701C92.0905 59.5801 92.4005 59.5801 92.6005 59.7701L94.6105 61.8301L98.3205 57.9301C98.5105 57.7301 98.8305 57.7201 99.0305 57.9101C99.2305 58.1001 99.2406 58.4201 99.0506 58.6201L94.9905 62.8901C94.9005 62.9901 94.7606 63.0701 94.6306 63.0501L94.6206 63.0601Z" fill="#56AA13"/>
<path d="M173.13 66.87C176.7 66.87 179.6 63.98 179.6 60.42C179.6 56.86 176.7 53.97 173.13 53.97C169.56 53.97 166.66 56.86 166.66 60.42C166.66 63.98 169.56 66.87 173.13 66.87Z" fill="white"/>
<path d="M173.13 67.37C169.29 67.37 166.16 64.25 166.16 60.42C166.16 56.59 169.29 53.47 173.13 53.47C176.97 53.47 180.1 56.59 180.1 60.42C180.1 64.25 176.97 67.37 173.13 67.37ZM173.13 54.47C169.84 54.47 167.16 57.14 167.16 60.42C167.16 63.7 169.84 66.37 173.13 66.37C176.42 66.37 179.1 63.7 179.1 60.42C179.1 57.14 176.42 54.47 173.13 54.47Z" fill="#56AA13"/>
<path d="M172.281 63.0601C172.151 63.0601 172.021 63.0101 171.921 62.9101L169.551 60.4801C169.361 60.2801 169.361 59.9701 169.551 59.7701C169.751 59.5801 170.061 59.5801 170.261 59.7701L172.271 61.8301L175.981 57.9301C176.171 57.7301 176.491 57.7201 176.691 57.9101C176.891 58.1001 176.901 58.4201 176.711 58.6201L172.651 62.8901C172.561 62.9901 172.401 63.0501 172.291 63.0501L172.281 63.0601Z" fill="#56AA13"/>
<path d="M250.511 66.87C254.081 66.87 256.981 63.98 256.981 60.42C256.981 56.86 254.081 53.97 250.511 53.97C246.941 53.97 244.041 56.86 244.041 60.42C244.041 63.98 246.941 66.87 250.511 66.87Z" fill="white"/>
<path d="M250.511 67.37C246.671 67.37 243.541 64.25 243.541 60.42C243.541 56.59 246.671 53.47 250.511 53.47C254.351 53.47 257.481 56.59 257.481 60.42C257.481 64.25 254.351 67.37 250.511 67.37ZM250.511 54.47C247.221 54.47 244.541 57.14 244.541 60.42C244.541 63.7 247.221 66.37 250.511 66.37C253.801 66.37 256.481 63.7 256.481 60.42C256.481 57.14 253.801 54.47 250.511 54.47Z" fill="#0079AD"/>
<path d="M250.51 63.58C252.26 63.58 253.68 62.17 253.68 60.42C253.68 58.67 252.26 57.26 250.51 57.26C248.76 57.26 247.34 58.67 247.34 60.42C247.34 62.17 248.76 63.58 250.51 63.58Z" fill="#0079AD"/>
<path d="M328.171 66.87C331.741 66.87 334.641 63.98 334.641 60.42C334.641 56.86 331.741 53.97 328.171 53.97C324.601 53.97 321.701 56.86 321.701 60.42C321.701 63.98 324.601 66.87 328.171 66.87Z" fill="white"/>
<path d="M328.171 67.37C324.331 67.37 321.201 64.25 321.201 60.42C321.201 56.59 324.331 53.47 328.171 53.47C332.011 53.47 335.141 56.59 335.141 60.42C335.141 64.25 332.011 67.37 328.171 67.37ZM328.171 54.47C324.881 54.47 322.201 57.14 322.201 60.42C322.201 63.7 324.881 66.37 328.171 66.37C331.461 66.37 334.141 63.7 334.141 60.42C334.141 57.14 331.461 54.47 328.171 54.47Z" fill="#ACB9BE"/>
<path d="M88.2305 112.33C88.2305 111.78 88.6805 111.34 89.2305 111.34H129.05C129.6 111.34 130.04 111.78 130.04 112.33C130.04 112.88 129.59 113.32 129.05 113.32H89.2305C88.6805 113.32 88.2305 112.88 88.2305 112.33Z" fill="#C5CED8"/>
<path d="M88.2305 112.33C88.2305 111.78 88.6805 111.34 89.2305 111.34H129.05C129.6 111.34 130.04 111.78 130.04 112.33C130.04 112.88 129.59 113.32 129.05 113.32H89.2305C88.6805 113.32 88.2305 112.88 88.2305 112.33Z" fill="#C5CED8"/>
<path d="M88.2305 127.22C88.2305 126.67 88.6805 126.23 89.2305 126.23H129.05C129.6 126.23 130.04 126.67 130.04 127.22C130.04 127.77 129.59 128.21 129.05 128.21H89.2305C88.6805 128.21 88.2305 127.77 88.2305 127.22Z" fill="#C5CED8"/>
<path d="M88.2305 142.11C88.2305 141.56 88.6805 141.12 89.2305 141.12H129.05C129.6 141.12 130.04 141.56 130.04 142.11C130.04 142.66 129.59 143.1 129.05 143.1H89.2305C88.6805 143.1 88.2305 142.66 88.2305 142.11Z" fill="#C5CED8"/>
<path d="M88.2305 156.99C88.2305 156.44 88.6805 156 89.2305 156H129.05C129.6 156 130.04 156.44 130.04 156.99C130.04 157.54 129.59 157.98 129.05 157.98H89.2305C88.6805 157.98 88.2305 157.54 88.2305 156.99Z" fill="#C5CED8"/>
<path d="M88.2305 171.88C88.2305 171.33 88.6805 170.89 89.2305 170.89H129.05C129.6 170.89 130.04 171.33 130.04 171.88C130.04 172.43 129.59 172.87 129.05 172.87H89.2305C88.6805 172.87 88.2305 172.42 88.2305 171.88Z" fill="#C5CED8"/>
<path d="M88.2305 186.77C88.2305 186.22 88.6805 185.78 89.2305 185.78H129.05C129.6 185.78 130.04 186.23 130.04 186.77C130.04 187.31 129.59 187.76 129.05 187.76H89.2305C88.6805 187.76 88.2305 187.32 88.2305 186.77Z" fill="#C5CED8"/>
<path d="M88.2305 201.66C88.2305 201.11 88.6805 200.67 89.2305 200.67H129.05C129.6 200.67 130.04 201.11 130.04 201.66C130.04 202.21 129.59 202.65 129.05 202.65H89.2305C88.6805 202.65 88.2305 202.21 88.2305 201.66Z" fill="#C5CED8"/>
<path d="M142.99 112.33C142.99 111.78 143.44 111.34 143.99 111.34H351.81C352.36 111.34 352.8 111.78 352.8 112.33C352.8 112.88 352.35 113.32 351.81 113.32H143.99C143.44 113.32 142.99 112.88 142.99 112.33Z" fill="#C5CED8"/>
<path d="M142.99 127.22C142.99 126.67 143.44 126.23 143.99 126.23H351.81C352.36 126.23 352.8 126.67 352.8 127.22C352.8 127.77 352.35 128.21 351.81 128.21H143.99C143.44 128.21 142.99 127.77 142.99 127.22Z" fill="#C5CED8"/>
<path d="M142.99 142.11C142.99 141.56 143.44 141.12 143.99 141.12H351.81C352.36 141.12 352.8 141.56 352.8 142.11C352.8 142.66 352.35 143.1 351.81 143.1H143.99C143.44 143.1 142.99 142.66 142.99 142.11Z" fill="#C5CED8"/>
<path d="M142.99 156.99C142.99 156.44 143.44 156 143.99 156H351.81C352.36 156 352.8 156.44 352.8 156.99C352.8 157.54 352.35 157.98 351.81 157.98H143.99C143.44 157.98 142.99 157.54 142.99 156.99Z" fill="#C5CED8"/>
<path d="M142.99 171.88C142.99 171.33 143.44 170.89 143.99 170.89H351.81C352.36 170.89 352.8 171.33 352.8 171.88C352.8 172.43 352.35 172.87 351.81 172.87H143.99C143.44 172.87 142.99 172.42 142.99 171.88Z" fill="#C5CED8"/>
<path d="M142.99 186.77C142.99 186.22 143.44 185.78 143.99 185.78H351.81C352.36 185.78 352.8 186.23 352.8 186.77C352.8 187.31 352.35 187.76 351.81 187.76H143.99C143.44 187.76 142.99 187.32 142.99 186.77Z" fill="#C5CED8"/>
<path d="M142.99 201.66C142.99 201.11 143.44 200.67 143.99 200.67H351.81C352.36 200.67 352.8 201.11 352.8 201.66C352.8 202.21 352.35 202.65 351.81 202.65H143.99C143.44 202.65 142.99 202.21 142.99 201.66Z" fill="#C5CED8"/>
</g>
<g filter="url(#filter0_d_8802_38371)">
<path d="M371.46 32.5H80.53C78.3043 32.5 76.5 34.3043 76.5 36.53V227.02C76.5 229.246 78.3043 231.05 80.53 231.05H371.46C373.686 231.05 375.49 229.246 375.49 227.02V36.53C375.49 34.3043 373.686 32.5 371.46 32.5Z" fill="#1B2B32"/>
</g>
<path d="M371.45 231.54H80.53C78.03 231.54 76 229.51 76 227.01V36.53C76 34.03 78.03 32 80.53 32H371.45C373.95 32 375.98 34.03 375.98 36.53V227.02C375.98 229.52 373.95 231.55 371.45 231.55V231.54ZM80.53 33C78.58 33 77 34.58 77 36.53V227.02C77 228.97 78.58 230.55 80.53 230.55H371.45C373.4 230.55 374.98 228.97 374.98 227.02V36.53C374.98 34.58 373.4 33 371.45 33H80.53Z" fill="#4F6169"/>
<path d="M375.06 59.21H76.9297V60.21H375.06V59.21Z" fill="#ACB9BE"/>
<path d="M151.32 59.24H150.32V231.8H151.32V59.24Z" fill="#67777E"/>
<path d="M150.31 60.1401H77.0996V79.4201H150.31V60.1401Z" fill="#1B2B32"/>
<path d="M85.0803 69.7801C85.0803 70.7301 85.8603 71.5001 86.8103 71.5001C87.7603 71.5001 88.5403 70.7301 88.5403 69.7801C88.5403 68.8301 87.7603 68.0601 86.8103 68.0601C86.3503 68.0601 85.9103 68.2401 85.5803 68.5601C85.2503 68.8801 85.0703 69.3201 85.0703 69.7801H85.0803Z" fill="#2EC0FF"/>
<path d="M94.8601 71.1501V68.4201L94.2801 68.7901L94.0801 68.4401L94.9601 67.8501H95.3501V71.1601H94.8601V71.1501Z" fill="white"/>
<path d="M150.31 79.4199H77.0996V98.6999H150.31V79.4199Z" fill="#1B2B32"/>
<path fill-rule="evenodd" clip-rule="evenodd" d="M86.8101 90.7801C85.8501 90.7801 85.0801 90.0101 85.0801 89.0601C85.0801 88.6001 85.2601 88.1701 85.5901 87.8401C85.9201 87.5201 86.3601 87.3401 86.8201 87.3401C87.7801 87.3401 88.5501 88.1101 88.5501 89.0601C88.5501 90.0101 87.7701 90.7801 86.8201 90.7801H86.8101ZM86.8101 90.0901C87.3801 90.0901 87.8501 89.6301 87.8501 89.0601C87.8501 88.7901 87.7401 88.5201 87.5501 88.3301C87.3501 88.1401 87.0901 88.0301 86.8101 88.0301C86.2401 88.0301 85.7701 88.4901 85.7701 89.0601C85.7701 89.6301 86.2401 90.0901 86.8101 90.0901Z" fill="#E3EAED"/>
<path d="M94.2207 90.4301V90.0301L95.4407 89.0301C95.8907 88.6601 96.0607 88.3701 96.0607 88.0801C96.0607 87.7201 95.7607 87.5101 95.4307 87.5101C95.0707 87.5101 94.8007 87.7001 94.5707 88.0001L94.2407 87.7101C94.5307 87.3101 94.9207 87.0701 95.4507 87.0701C96.0707 87.0701 96.5707 87.4701 96.5707 88.0701C96.5707 88.5101 96.3607 88.8701 95.7807 89.3301L95.0007 89.9901H96.6007V90.4401H94.2307L94.2207 90.4301Z" fill="white"/>
<path d="M150.31 98.7H77.0996V117.98H150.31V98.7Z" fill="#1B2B32"/>
<path fill-rule="evenodd" clip-rule="evenodd" d="M86.811 105.58C85.281 105.58 84.041 106.81 84.041 108.33C84.041 109.85 85.281 111.08 86.811 111.08C88.341 111.08 89.581 109.85 89.581 108.33C89.581 107.6 89.291 106.9 88.771 106.38C88.251 105.86 87.541 105.57 86.811 105.57V105.58ZM86.811 110.63C85.531 110.63 84.501 109.6 84.501 108.33C84.501 107.06 85.541 106.03 86.811 106.03C88.081 106.03 89.121 107.06 89.121 108.33C89.121 108.94 88.881 109.52 88.441 109.95C88.011 110.38 87.421 110.62 86.811 110.62V110.63ZM85.271 108.5L86.431 109.65L88.321 107.77C88.401 107.68 88.391 107.54 88.311 107.46C88.221 107.37 88.091 107.37 88.001 107.45L86.431 109.01L85.601 108.19C85.511 108.11 85.371 108.12 85.291 108.2C85.201 108.29 85.201 108.42 85.281 108.51L85.271 108.5Z" fill="#67CA16"/>
<path d="M95.3811 109.77C94.8111 109.77 94.3811 109.52 94.1211 109.21L94.4411 108.89C94.6611 109.16 94.9911 109.34 95.3711 109.34C95.8011 109.34 96.0811 109.11 96.0811 108.78C96.0811 108.45 95.7911 108.26 95.2911 108.26H94.9311V107.83H95.2911C95.7111 107.83 96.0111 107.65 96.0111 107.32C96.0111 107.01 95.7211 106.79 95.3311 106.79C94.9811 106.79 94.7211 106.96 94.4911 107.23L94.1811 106.93C94.4411 106.6 94.8211 106.35 95.3611 106.35C96.0311 106.35 96.5011 106.72 96.5011 107.25C96.5011 107.66 96.2111 107.92 95.8611 108.02C96.2011 108.1 96.5711 108.35 96.5711 108.81C96.5711 109.37 96.0911 109.77 95.3711 109.77H95.3811Z" fill="white"/>
<path d="M146.15 117.97H77.0996V137.25H146.15V117.97Z" fill="#1B2B32"/>
<path d="M146.15 137.5H77.0996V156.78H146.15V137.5Z" fill="white"/>
<path fill-rule="evenodd" clip-rule="evenodd" d="M84.041 127.61C84.041 126.09 85.281 124.86 86.811 124.86C87.551 124.86 88.251 125.15 88.771 125.67C89.291 126.19 89.581 126.89 89.581 127.62C89.581 129.14 88.341 130.37 86.811 130.37C85.281 130.37 84.041 129.14 84.041 127.62V127.61ZM86.511 127.79C86.511 127.95 86.641 128.09 86.811 128.09C86.981 128.09 87.111 127.96 87.111 127.79V126.41C87.111 126.25 86.981 126.11 86.811 126.11C86.641 126.11 86.511 126.24 86.511 126.41V127.79ZM86.811 129.91C85.531 129.91 84.501 128.88 84.501 127.61C84.501 126.34 85.541 125.31 86.811 125.31C88.081 125.31 89.121 126.34 89.121 127.61C89.121 128.22 88.881 128.8 88.441 129.23C88.011 129.66 87.421 129.9 86.811 129.9V129.91ZM87.151 128.77C87.151 128.96 86.991 129.11 86.801 129.11C86.611 129.11 86.451 128.96 86.451 128.77C86.451 128.58 86.611 128.43 86.801 128.43C86.991 128.43 87.151 128.58 87.151 128.77Z" fill="#FF674C"/>
<path d="M94.7198 128.99V128.23H93.0598L93.0098 127.84L94.6298 125.68H95.2098V127.8H95.6898V128.23H95.2098V128.99H94.7198ZM93.5498 127.8H94.7198V126.23L93.5498 127.8Z" fill="white"/>
<path d="M150.31 137.25H77.0996V156.53H150.31V137.25Z" fill="#1B2B32"/>
<path d="M94.3604 148.33C93.8304 148.33 93.4304 148.12 93.1504 147.81L93.4604 147.46C93.7104 147.73 94.0204 147.9 94.3804 147.9C94.8104 147.9 95.1104 147.61 95.1104 147.24C95.1104 146.87 94.8104 146.6 94.3804 146.6C94.1004 146.6 93.8704 146.69 93.6704 146.84L93.3304 146.69L93.3804 144.96H95.4304V145.41H93.8504L93.8204 146.39C93.9904 146.27 94.2204 146.18 94.5104 146.18C95.1104 146.18 95.6104 146.56 95.6104 147.22C95.6104 147.88 95.1004 148.33 94.3804 148.33H94.3604Z" fill="white"/>
<path d="M150.31 156.53H77.0996V175.81H150.31V156.53Z" fill="#1B2B32"/>
<path d="M94.4803 165.46C95.0903 165.46 95.6003 165.84 95.6003 166.5C95.6003 167.16 95.1003 167.61 94.3903 167.61C93.4603 167.61 93.0703 166.89 93.0703 165.95C93.0703 164.95 93.6703 164.19 94.4803 164.19C94.8903 164.19 95.2003 164.34 95.4503 164.57L95.2003 164.95C95.0003 164.76 94.7803 164.63 94.4803 164.63C93.9803 164.63 93.6003 165.17 93.5803 165.9C93.7803 165.63 94.1203 165.47 94.4803 165.47V165.46ZM94.3803 167.2C94.8303 167.2 95.1003 166.86 95.1003 166.53C95.1003 166.13 94.7703 165.88 94.3703 165.88C94.0003 165.88 93.7103 166.09 93.6203 166.41C93.7003 166.89 93.9403 167.21 94.3803 167.21V167.2Z" fill="white"/>
<path d="M140.25 70.6101H103.41C102.86 70.6101 102.41 70.1601 102.41 69.6101C102.41 69.0601 102.86 68.6101 103.41 68.6101H140.25C140.8 68.6101 141.25 69.0601 141.25 69.6101C141.25 70.1601 140.8 70.6101 140.25 70.6101Z" fill="#C5CED8"/>
<path d="M140.25 89.5801H103.41C102.86 89.5801 102.41 89.1301 102.41 88.5801C102.41 88.0301 102.86 87.5801 103.41 87.5801H140.25C140.8 87.5801 141.25 88.0301 141.25 88.5801C141.25 89.1301 140.8 89.5801 140.25 89.5801Z" fill="#C5CED8"/>
<path d="M140.25 109.11H103.41C102.86 109.11 102.41 108.66 102.41 108.11C102.41 107.56 102.86 107.11 103.41 107.11H140.25C140.8 107.11 141.25 107.56 141.25 108.11C141.25 108.66 140.8 109.11 140.25 109.11Z" fill="#C5CED8"/>
<path d="M140.25 128.08H103.41C102.86 128.08 102.41 127.63 102.41 127.08C102.41 126.53 102.86 126.08 103.41 126.08H140.25C140.8 126.08 141.25 126.53 141.25 127.08C141.25 127.63 140.8 128.08 140.25 128.08Z" fill="#C5CED8"/>
<path d="M140.25 147.61H103.41C102.86 147.61 102.41 147.16 102.41 146.61C102.41 146.06 102.86 145.61 103.41 145.61H140.25C140.8 145.61 141.25 146.06 141.25 146.61C141.25 147.16 140.8 147.61 140.25 147.61Z" fill="#C5CED8"/>
<path d="M140.25 166.76H103.41C102.86 166.76 102.41 166.31 102.41 165.76C102.41 165.21 102.86 164.76 103.41 164.76H140.25C140.8 164.76 141.25 165.21 141.25 165.76C141.25 166.31 140.8 166.76 140.25 166.76Z" fill="#C5CED8"/>
<path opacity="0.4" d="M159.791 69.0901C159.791 68.5401 160.241 68.0901 160.801 68.0901H361.411C361.971 68.0901 362.421 68.5401 362.421 69.0901C362.421 69.6401 361.971 70.0901 361.411 70.0901H160.801C160.241 70.0901 159.791 69.6401 159.791 69.0901Z" fill="#ACB8BE"/>
<path opacity="0.4" d="M91 47C91 46.45 91.2621 46 91.5882 46H208.412C208.738 46 209 46.45 209 47C209 47.55 208.738 48 208.412 48H91.5882C91.2621 48 91 47.55 91 47Z" fill="#ACB8BE"/>
<path opacity="0.4" d="M159.791 84.04C159.791 83.49 160.241 83.04 160.801 83.04H361.411C361.971 83.04 362.421 83.49 362.421 84.04C362.421 84.59 361.971 85.04 361.411 85.04H160.801C160.241 85.04 159.791 84.59 159.791 84.04Z" fill="#ACB8BE"/>
<path opacity="0.4" d="M159.791 98.98C159.791 98.43 160.241 97.98 160.801 97.98H361.411C361.971 97.98 362.421 98.43 362.421 98.98C362.421 99.53 361.971 99.98 361.411 99.98H160.801C160.241 99.98 159.791 99.53 159.791 98.98Z" fill="#ACB8BE"/>
<path opacity="0.4" d="M159.791 113.93C159.791 113.38 160.241 112.93 160.801 112.93H361.411C361.971 112.93 362.421 113.38 362.421 113.93C362.421 114.48 361.971 114.93 361.411 114.93H160.801C160.241 114.93 159.791 114.48 159.791 113.93Z" fill="#ACB8BE"/>
<path d="M360.4 219.28H327.17C326.06 219.28 325.16 218.39 325.16 217.29V207.32C325.16 206.22 326.06 205.33 327.17 205.33H360.4C361.51 205.33 362.41 206.22 362.41 207.32V217.29C362.41 218.39 361.51 219.28 360.4 219.28Z" fill="#2EC0FF"/>
<path d="M315.851 219.78H282.621C281.231 219.78 280.111 218.66 280.111 217.29V207.32C280.111 205.95 281.241 204.83 282.621 204.83H315.851C317.241 204.83 318.361 205.95 318.361 207.32V217.29C318.361 218.66 317.231 219.78 315.851 219.78ZM282.621 205.83C281.791 205.83 281.111 206.5 281.111 207.32V217.29C281.111 218.11 281.791 218.78 282.621 218.78H315.851C316.681 218.78 317.361 218.11 317.361 217.29V207.32C317.361 206.5 316.681 205.83 315.851 205.83H282.621Z" fill="#2EC0FF"/>
<path d="M271.901 213.43H250.201C249.651 213.43 249.201 212.98 249.201 212.43C249.201 211.88 249.651 211.43 250.201 211.43H271.901C272.451 211.43 272.901 211.88 272.901 212.43C272.901 212.98 272.451 213.43 271.901 213.43Z" fill="#2EC0FF"/>
<g filter="url(#filter1_d_8802_38371)">
<rect x="102" y="53" width="247" height="149" rx="5" fill="#1B2B32"/>
<rect x="102.5" y="53.5" width="246" height="148" rx="4.5" stroke="#ACB8BE"/>
</g>
<path d="M337.289 192.45H304.059C302.949 192.45 302.049 191.56 302.049 190.46V180.49C302.049 179.39 302.949 178.5 304.059 178.5H337.289C338.399 178.5 339.299 179.39 339.299 180.49V190.46C339.299 191.56 338.399 192.45 337.289 192.45Z" fill="#2EC0FF"/>
<path d="M292.74 192.95H259.51C258.12 192.95 257 191.83 257 190.46V180.49C257 179.12 258.13 178 259.51 178H292.74C294.13 178 295.25 179.12 295.25 180.49V190.46C295.25 191.83 294.12 192.95 292.74 192.95ZM259.51 179C258.68 179 258 179.67 258 180.49V190.46C258 191.28 258.68 191.95 259.51 191.95H292.74C293.57 191.95 294.25 191.28 294.25 190.46V180.49C294.25 179.67 293.57 179 292.74 179H259.51Z" fill="#2EC0FF"/>
<path d="M330.231 87.3201H121.031C119.921 87.3201 119.031 88.2101 119.031 89.3101V147.41C119.031 148.51 119.931 149.4 121.031 149.4H330.231C331.341 149.4 332.231 148.51 332.231 147.41V89.3101C332.231 88.2101 331.331 87.3201 330.231 87.3201Z" fill="#2D4048"/>
<path opacity="0.4" d="M121.07 70.54C121.07 69.7 121.76 69.01 122.61 69.01H176.94C177.79 69.01 178.48 69.69 178.48 70.54C178.48 71.39 177.79 72.07 176.94 72.07H122.61C121.76 72.07 121.07 71.39 121.07 70.54Z" fill="#ACB8BE"/>
</g>
<path d="M4 0.5H448C449.933 0.5 451.5 2.067 451.5 4V263.5H0.5V4C0.5 2.067 2.067 0.5 4 0.5Z" stroke="#4F6169"/>
<defs>
<filter id="filter0_d_8802_38371" x="72.5" y="32.5" width="306.99" height="206.55" filterUnits="userSpaceOnUse" color-interpolation-filters="sRGB">
<feFlood flood-opacity="0" result="BackgroundImageFix"/>
<feColorMatrix in="SourceAlpha" type="matrix" values="0 0 0 0 0 0 0 0 0 0 0 0 0 0 0 0 0 0 127 0" result="hardAlpha"/>
<feOffset dy="4"/>
<feGaussianBlur stdDeviation="2"/>
<feComposite in2="hardAlpha" operator="out"/>
<feColorMatrix type="matrix" values="0 0 0 0 0 0 0 0 0 0 0 0 0 0 0 0 0 0 0.25 0"/>
<feBlend mode="normal" in2="BackgroundImageFix" result="effect1_dropShadow_8802_38371"/>
<feBlend mode="normal" in="SourceGraphic" in2="effect1_dropShadow_8802_38371" result="shape"/>
</filter>
<filter id="filter1_d_8802_38371" x="98" y="53" width="255" height="157" filterUnits="userSpaceOnUse" color-interpolation-filters="sRGB">
<feFlood flood-opacity="0" result="BackgroundImageFix"/>
<feColorMatrix in="SourceAlpha" type="matrix" values="0 0 0 0 0 0 0 0 0 0 0 0 0 0 0 0 0 0 127 0" result="hardAlpha"/>
<feOffset dy="4"/>
<feGaussianBlur stdDeviation="2"/>
<feComposite in2="hardAlpha" operator="out"/>
<feColorMatrix type="matrix" values="0 0 0 0 0 0 0 0 0 0 0 0 0 0 0 0 0 0 0.25 0"/>
<feBlend mode="normal" in2="BackgroundImageFix" result="effect1_dropShadow_8802_38371"/>
<feBlend mode="normal" in="SourceGraphic" in2="effect1_dropShadow_8802_38371" result="shape"/>
</filter>
<clipPath id="clip0_8802_38371">
<path d="M0 4C0 1.79086 1.79086 0 4 0H448C450.209 0 452 1.79086 452 4V264H0V4Z" fill="white"/>
</clipPath>
</defs>
</svg>
