<svg width="928" height="408" viewBox="0 0 928 408" fill="none" xmlns="http://www.w3.org/2000/svg">
<g clip-path="url(#clip0_10150_3864)">
<rect width="928" height="408" rx="4" fill="#1B2B32"/>
<rect width="928" height="35" fill="black"/>
<path opacity="0.3" d="M928 0H0V408H928V0Z" fill="black"/>
<g filter="url(#filter0_d_10150_3864)">
<rect x="231.5" y="31.5" width="465" height="345" rx="1.92857" stroke="black" shape-rendering="crispEdges"/>
<g filter="url(#filter1_d_10150_3864)">
<g clip-path="url(#clip1_10150_3864)">
<rect x="231" y="31.6259" width="466.286" height="344.857" rx="3.2381" fill="#22343C"/>
<g clip-path="url(#clip2_10150_3864)">
<rect width="174.048" height="344.857" transform="translate(231 31.6259)" fill="#1B2B32"/>
<g clip-path="url(#clip3_10150_3864)">
<rect width="178.905" height="58.8571" transform="translate(250.428 31.6259)" fill="#1B2B32"/>
<path d="M252.08 65.0544V53.9316H253.715L260.094 62.3668V53.9316H261.746V65.0544H260.094L253.715 56.6192V65.0544H252.08ZM268.17 63.9211C269.077 63.9211 270.129 63.5163 270.647 62.9659L271.586 63.9535C270.858 64.7468 269.384 65.2487 268.202 65.2487C265.887 65.2487 263.88 63.4192 263.88 60.8449C263.88 58.3354 265.774 56.4897 268.089 56.4897C270.647 56.4897 272.137 58.4002 272.137 61.3792H265.45C265.644 62.8525 266.681 63.9211 268.17 63.9211ZM268.121 57.8173C266.778 57.8173 265.709 58.7563 265.466 60.1973H270.582C270.421 58.8535 269.579 57.8173 268.121 57.8173ZM275.617 65.0544L272.8 56.684H274.435L276.345 62.9173L278.418 56.684H279.778L281.85 62.9173L283.777 56.684H285.412L282.579 65.0544H281.105L279.114 58.8373L277.09 65.0544H275.617ZM291.418 65.0544V53.9316H296.097C298.429 53.9316 300.226 55.4373 300.226 57.5583C300.226 59.6792 298.429 61.1849 296.097 61.1849H293.054V65.0544H291.418ZM293.054 59.663H295.855C297.457 59.663 298.558 58.8697 298.558 57.5583C298.558 56.2468 297.457 55.4535 295.855 55.4535H293.054V59.663ZM305.787 65.2487C303.375 65.2487 301.383 63.2735 301.383 60.8611C301.383 58.4487 303.375 56.4897 305.787 56.4897C308.199 56.4897 310.191 58.4487 310.191 60.8611C310.191 63.2735 308.199 65.2487 305.787 65.2487ZM305.787 63.8563C307.325 63.8563 308.588 62.5125 308.588 60.8611C308.588 59.2097 307.325 57.8821 305.787 57.8821C304.249 57.8821 302.986 59.2097 302.986 60.8611C302.986 62.5125 304.249 63.8563 305.787 63.8563ZM311.973 65.0544V53.7373H313.576V60.9744L317.672 56.684H319.615L316.004 60.4725L319.453 65.0544H317.542L314.92 61.5411L313.576 62.9011V65.0544H311.973ZM327.394 53.6563L325.063 55.7287H323.913L325.84 53.3325L327.394 53.6563ZM324.577 63.9211C325.483 63.9211 326.536 63.5163 327.054 62.9659L327.993 63.9535C327.264 64.7468 325.791 65.2487 324.609 65.2487C322.294 65.2487 320.286 63.4192 320.286 60.8449C320.286 58.3354 322.181 56.4897 324.496 56.4897C327.054 56.4897 328.543 58.4002 328.543 61.3792H321.857C322.051 62.8525 323.087 63.9211 324.577 63.9211ZM324.528 57.8173C323.184 57.8173 322.116 58.7563 321.873 60.1973H326.989C326.827 58.8535 325.985 57.8173 324.528 57.8173ZM339.633 56.4897C341.382 56.4897 342.644 57.8335 342.644 59.7278V65.0544H341.09V59.9706C341.09 58.7402 340.345 57.8821 339.309 57.8821C338.111 57.8821 337.253 58.6754 337.253 59.8249V65.0544H335.682V59.9706C335.682 58.7402 334.954 57.8821 333.918 57.8821C332.703 57.8821 331.862 58.6754 331.862 59.8249V65.0544H330.259V56.684H331.862V57.8821C332.282 57.024 333.157 56.4897 334.242 56.4897C335.569 56.4897 336.622 57.2668 337.042 58.4811C337.302 57.2992 338.322 56.4897 339.633 56.4897ZM348.651 65.2487C346.239 65.2487 344.247 63.2735 344.247 60.8611C344.247 58.4487 346.239 56.4897 348.651 56.4897C351.064 56.4897 353.055 58.4487 353.055 60.8611C353.055 63.2735 351.064 65.2487 348.651 65.2487ZM348.651 63.8563C350.189 63.8563 351.452 62.5125 351.452 60.8611C351.452 59.2097 350.189 57.8821 348.651 57.8821C347.113 57.8821 345.85 59.2097 345.85 60.8611C345.85 62.5125 347.113 63.8563 348.651 63.8563ZM359.111 56.4897C360.957 56.4897 362.236 57.8011 362.236 59.7278V65.0544H360.682V60.003C360.682 58.7402 359.889 57.8821 358.755 57.8821C357.476 57.8821 356.44 58.7563 356.44 59.8573V65.0544H354.837V56.684H356.44V57.9144C356.926 57.0725 357.962 56.4897 359.111 56.4897Z" fill="#E3EAED"/>
</g>
<mask id="path-9-inside-1_10150_3864" fill="white">
<path d="M250.428 91.2925H404.428V130.15H250.428V91.2925Z"/>
</mask>
<path d="M250.428 91.2925H404.428V130.15H250.428V91.2925Z" fill="#1B2B32"/>
<path d="M253.667 130.15V91.2925H247.19V130.15H253.667Z" fill="#67CA16" mask="url(#path-9-inside-1_10150_3864)"/>
<path fill-rule="evenodd" clip-rule="evenodd" d="M266.619 104.964C263.44 104.964 260.862 107.542 260.862 110.721C260.862 113.9 263.44 116.478 266.619 116.478C269.798 116.478 272.376 113.9 272.376 110.721C272.376 109.194 271.769 107.73 270.689 106.651C269.61 105.571 268.146 104.964 266.619 104.964ZM266.619 115.758C263.837 115.758 261.582 113.503 261.582 110.721C261.582 107.939 263.837 105.684 266.619 105.684C269.401 105.684 271.656 107.939 271.656 110.721C271.656 112.057 271.125 113.338 270.181 114.283C269.236 115.227 267.955 115.758 266.619 115.758ZM269.71 108.598C269.85 108.459 270.076 108.459 270.217 108.598C270.285 108.666 270.323 108.758 270.323 108.854C270.323 108.95 270.285 109.042 270.217 109.109L265.716 113.599L263.021 110.912C262.884 110.764 262.893 110.533 263.041 110.395C263.189 110.258 263.42 110.267 263.557 110.415L265.716 112.574L269.71 108.598Z" fill="#67CA16"/>
<path d="M282.318 107.795L280.969 108.656L280.493 107.829L282.544 106.435H283.462V114.221H282.318V107.795Z" fill="#CBD4D8"/>
<path d="M300.156 105.435H303.85C304.281 105.435 304.663 105.518 304.995 105.684C305.328 105.851 305.588 106.081 305.777 106.376C305.966 106.67 306.06 107.003 306.06 107.373C306.06 107.766 305.966 108.102 305.777 108.382C305.596 108.654 305.324 108.892 304.961 109.096C305.414 109.322 305.762 109.61 306.004 109.957C306.253 110.297 306.378 110.679 306.378 111.102C306.378 111.51 306.276 111.876 306.072 112.201C305.868 112.518 305.584 112.768 305.222 112.949C304.859 113.13 304.447 113.221 303.986 113.221H300.156V105.435ZM303.556 108.676C303.949 108.676 304.27 108.574 304.519 108.37C304.768 108.159 304.893 107.891 304.893 107.566C304.893 107.241 304.768 106.973 304.519 106.761C304.27 106.55 303.949 106.444 303.556 106.444H301.3V108.676H303.556ZM303.737 112.212C304.168 112.212 304.519 112.095 304.791 111.861C305.071 111.619 305.21 111.31 305.21 110.932C305.21 110.554 305.071 110.248 304.791 110.014C304.519 109.772 304.168 109.651 303.737 109.651H301.3V112.212H303.737ZM310.093 107.226C310.864 107.226 311.465 107.449 311.895 107.894C312.326 108.34 312.541 108.933 312.541 109.674V113.221H311.442V112.428C311.23 112.722 310.947 112.953 310.592 113.119C310.237 113.278 309.87 113.357 309.493 113.357C308.866 113.357 308.348 113.187 307.94 112.847C307.532 112.507 307.328 112.054 307.328 111.487C307.328 111.109 307.43 110.773 307.634 110.478C307.846 110.176 308.129 109.946 308.484 109.787C308.847 109.621 309.243 109.538 309.674 109.538C310.233 109.538 310.822 109.644 311.442 109.855V109.674C311.442 109.243 311.325 108.884 311.091 108.597C310.856 108.302 310.471 108.155 309.935 108.155C309.474 108.155 308.926 108.318 308.291 108.642L307.872 107.815C308.658 107.422 309.398 107.226 310.093 107.226ZM309.719 112.473C310.112 112.473 310.475 112.379 310.807 112.19C311.14 111.993 311.351 111.725 311.442 111.385V110.603C310.943 110.452 310.411 110.376 309.844 110.376C309.444 110.376 309.104 110.478 308.824 110.682C308.544 110.886 308.405 111.143 308.405 111.453C308.405 111.763 308.526 112.012 308.767 112.201C309.017 112.382 309.334 112.473 309.719 112.473ZM316.104 113.357C315.666 113.357 315.227 113.282 314.789 113.13C314.351 112.979 313.958 112.764 313.61 112.484L314.12 111.714C314.445 111.956 314.778 112.141 315.118 112.269C315.458 112.39 315.79 112.45 316.115 112.45C316.463 112.45 316.738 112.379 316.942 112.235C317.154 112.092 317.26 111.899 317.26 111.657C317.26 111.408 317.15 111.223 316.931 111.102C316.712 110.973 316.368 110.845 315.9 110.716C315.182 110.512 314.664 110.29 314.347 110.048C314.037 109.806 313.882 109.458 313.882 109.005C313.882 108.469 314.079 108.038 314.472 107.713C314.872 107.388 315.386 107.226 316.013 107.226C316.383 107.226 316.757 107.286 317.135 107.407C317.513 107.528 317.86 107.694 318.178 107.906L317.713 108.699C317.109 108.321 316.542 108.132 316.013 108.132C315.703 108.132 315.446 108.2 315.242 108.336C315.046 108.465 314.948 108.646 314.948 108.88C314.948 109.032 314.993 109.152 315.084 109.243C315.174 109.334 315.31 109.417 315.492 109.492C315.673 109.56 315.956 109.655 316.342 109.776C316.765 109.904 317.109 110.029 317.373 110.15C317.645 110.263 317.872 110.433 318.053 110.66C318.234 110.886 318.325 111.181 318.325 111.544C318.325 112.095 318.117 112.537 317.702 112.87C317.294 113.195 316.761 113.357 316.104 113.357ZM319.608 107.362H320.73V113.221H319.608V107.362ZM320.175 106.387C319.986 106.387 319.823 106.319 319.687 106.183C319.559 106.047 319.495 105.888 319.495 105.707C319.495 105.526 319.559 105.371 319.687 105.242C319.823 105.106 319.986 105.038 320.175 105.038C320.356 105.038 320.511 105.106 320.639 105.242C320.775 105.371 320.843 105.526 320.843 105.707C320.843 105.888 320.775 106.047 320.639 106.183C320.511 106.319 320.356 106.387 320.175 106.387ZM325.089 113.357C324.537 113.357 324.023 113.217 323.547 112.938C323.079 112.658 322.701 112.284 322.414 111.816C322.134 111.34 321.995 110.83 321.995 110.286C321.995 109.742 322.134 109.236 322.414 108.767C322.701 108.299 323.083 107.925 323.559 107.645C324.035 107.366 324.545 107.226 325.089 107.226C325.504 107.226 325.893 107.305 326.256 107.464C326.626 107.622 326.959 107.845 327.253 108.132L326.494 108.835C326.313 108.639 326.097 108.484 325.848 108.37C325.606 108.257 325.353 108.2 325.089 108.2C324.741 108.2 324.416 108.295 324.114 108.484C323.812 108.673 323.57 108.93 323.389 109.254C323.215 109.572 323.128 109.916 323.128 110.286C323.128 110.664 323.215 111.015 323.389 111.34C323.57 111.657 323.812 111.91 324.114 112.099C324.416 112.288 324.741 112.382 325.089 112.382C325.361 112.382 325.621 112.326 325.871 112.212C326.12 112.092 326.339 111.929 326.528 111.725L327.287 112.416C326.993 112.711 326.656 112.942 326.279 113.108C325.908 113.274 325.512 113.357 325.089 113.357ZM331.645 105.435H332.789V113.221H331.645V105.435ZM337.771 107.226C338.194 107.226 338.572 107.32 338.904 107.509C339.237 107.698 339.493 107.966 339.675 108.314C339.864 108.654 339.958 109.047 339.958 109.492V113.221H338.87V109.685C338.87 109.247 338.745 108.892 338.496 108.62C338.247 108.34 337.922 108.2 337.521 108.2C337.227 108.2 336.955 108.265 336.705 108.393C336.456 108.514 336.26 108.68 336.116 108.892C335.973 109.103 335.901 109.334 335.901 109.583V113.221H334.779V107.362H335.901V108.223C336.075 107.928 336.328 107.69 336.66 107.509C337 107.32 337.37 107.226 337.771 107.226ZM342.93 107.362H344.313V108.314H342.93V113.221H341.831V108.314H340.947V107.362H341.831V106.659C341.831 106.191 341.975 105.809 342.262 105.514C342.549 105.212 342.919 105.061 343.372 105.061C343.584 105.061 343.792 105.099 343.996 105.174C344.2 105.25 344.381 105.352 344.54 105.48L344.132 106.228C344.071 106.168 343.984 106.119 343.871 106.081C343.765 106.036 343.652 106.013 343.531 106.013C343.365 106.013 343.221 106.081 343.1 106.217C342.987 106.346 342.93 106.512 342.93 106.716V107.362ZM347.904 113.357C347.352 113.357 346.839 113.221 346.363 112.949C345.894 112.67 345.52 112.296 345.241 111.827C344.961 111.351 344.821 110.837 344.821 110.286C344.821 109.734 344.961 109.224 345.241 108.756C345.52 108.287 345.894 107.917 346.363 107.645C346.839 107.366 347.352 107.226 347.904 107.226C348.455 107.226 348.965 107.366 349.434 107.645C349.91 107.917 350.288 108.287 350.567 108.756C350.847 109.224 350.987 109.734 350.987 110.286C350.987 110.837 350.847 111.351 350.567 111.827C350.288 112.296 349.91 112.67 349.434 112.949C348.965 113.221 348.455 113.357 347.904 113.357ZM347.904 112.382C348.259 112.382 348.584 112.288 348.879 112.099C349.181 111.91 349.419 111.657 349.593 111.34C349.774 111.015 349.865 110.664 349.865 110.286C349.865 109.908 349.774 109.56 349.593 109.243C349.419 108.918 349.181 108.665 348.879 108.484C348.584 108.295 348.259 108.2 347.904 108.2C347.549 108.2 347.22 108.295 346.918 108.484C346.623 108.665 346.385 108.918 346.204 109.243C346.03 109.56 345.943 109.908 345.943 110.286C345.943 110.664 346.03 111.015 346.204 111.34C346.385 111.657 346.623 111.91 346.918 112.099C347.22 112.288 347.549 112.382 347.904 112.382ZM353.388 108.506C353.57 108.114 353.849 107.804 354.227 107.577C354.612 107.343 355.058 107.226 355.564 107.226V108.2C355.141 108.2 354.764 108.28 354.431 108.438C354.099 108.597 353.842 108.824 353.66 109.118C353.479 109.406 353.388 109.734 353.388 110.104V113.221H352.266V107.362H353.388V108.506ZM363.363 107.226C363.763 107.226 364.122 107.324 364.439 107.52C364.764 107.709 365.017 107.978 365.199 108.325C365.38 108.665 365.471 109.054 365.471 109.492V113.221H364.383V109.662C364.383 109.232 364.266 108.88 364.031 108.608C363.797 108.336 363.499 108.2 363.136 108.2C362.713 108.2 362.365 108.329 362.093 108.586C361.829 108.835 361.697 109.16 361.697 109.56V113.221H360.597V109.662C360.597 109.232 360.48 108.88 360.246 108.608C360.019 108.336 359.725 108.2 359.362 108.2C358.939 108.2 358.591 108.329 358.319 108.586C358.055 108.835 357.923 109.16 357.923 109.56V113.221H356.801V107.362H357.923V108.2C358.074 107.898 358.293 107.66 358.58 107.486C358.875 107.313 359.211 107.226 359.589 107.226C360.05 107.226 360.454 107.35 360.801 107.6C361.149 107.849 361.398 108.189 361.549 108.62C361.64 108.204 361.852 107.868 362.184 107.611C362.516 107.354 362.909 107.226 363.363 107.226ZM369.323 107.226C370.093 107.226 370.694 107.449 371.125 107.894C371.555 108.34 371.771 108.933 371.771 109.674V113.221H370.671V112.428C370.46 112.722 370.176 112.953 369.821 113.119C369.466 113.278 369.1 113.357 368.722 113.357C368.095 113.357 367.577 113.187 367.169 112.847C366.761 112.507 366.557 112.054 366.557 111.487C366.557 111.109 366.659 110.773 366.863 110.478C367.075 110.176 367.358 109.946 367.713 109.787C368.076 109.621 368.473 109.538 368.903 109.538C369.462 109.538 370.052 109.644 370.671 109.855V109.674C370.671 109.243 370.554 108.884 370.32 108.597C370.086 108.302 369.7 108.155 369.164 108.155C368.703 108.155 368.155 108.318 367.521 108.642L367.101 107.815C367.887 107.422 368.628 107.226 369.323 107.226ZM368.949 112.473C369.342 112.473 369.704 112.379 370.037 112.19C370.369 111.993 370.581 111.725 370.671 111.385V110.603C370.173 110.452 369.64 110.376 369.073 110.376C368.673 110.376 368.333 110.478 368.053 110.682C367.774 110.886 367.634 111.143 367.634 111.453C367.634 111.763 367.755 112.012 367.997 112.201C368.246 112.382 368.563 112.473 368.949 112.473ZM376.33 112.938C376.172 113.066 375.987 113.168 375.775 113.244C375.571 113.319 375.363 113.357 375.152 113.357C374.698 113.357 374.328 113.21 374.041 112.915C373.754 112.613 373.61 112.228 373.61 111.759V108.314H372.738V107.362H373.61V105.752H374.71V107.362H376.092V108.314H374.71V111.68C374.71 111.884 374.77 112.054 374.891 112.19C375.012 112.318 375.156 112.382 375.322 112.382C375.443 112.382 375.556 112.364 375.662 112.326C375.768 112.28 375.851 112.228 375.911 112.167L376.33 112.938ZM377.42 107.362H378.542V113.221H377.42V107.362ZM377.987 106.387C377.798 106.387 377.636 106.319 377.5 106.183C377.371 106.047 377.307 105.888 377.307 105.707C377.307 105.526 377.371 105.371 377.5 105.242C377.636 105.106 377.798 105.038 377.987 105.038C378.168 105.038 378.323 105.106 378.452 105.242C378.588 105.371 378.656 105.526 378.656 105.707C378.656 105.888 378.588 106.047 378.452 106.183C378.323 106.319 378.168 106.387 377.987 106.387ZM382.901 113.357C382.35 113.357 381.836 113.221 381.36 112.949C380.892 112.67 380.518 112.296 380.238 111.827C379.958 111.351 379.819 110.837 379.819 110.286C379.819 109.734 379.958 109.224 380.238 108.756C380.518 108.287 380.892 107.917 381.36 107.645C381.836 107.366 382.35 107.226 382.901 107.226C383.453 107.226 383.963 107.366 384.431 107.645C384.907 107.917 385.285 108.287 385.565 108.756C385.844 109.224 385.984 109.734 385.984 110.286C385.984 110.837 385.844 111.351 385.565 111.827C385.285 112.296 384.907 112.67 384.431 112.949C383.963 113.221 383.453 113.357 382.901 113.357ZM382.901 112.382C383.256 112.382 383.581 112.288 383.876 112.099C384.178 111.91 384.416 111.657 384.59 111.34C384.771 111.015 384.862 110.664 384.862 110.286C384.862 109.908 384.771 109.56 384.59 109.243C384.416 108.918 384.178 108.665 383.876 108.484C383.581 108.295 383.256 108.2 382.901 108.2C382.546 108.2 382.218 108.295 381.915 108.484C381.621 108.665 381.383 108.918 381.201 109.243C381.028 109.56 380.941 109.908 380.941 110.286C380.941 110.664 381.028 111.015 381.201 111.34C381.383 111.657 381.621 111.91 381.915 112.099C382.218 112.288 382.546 112.382 382.901 112.382ZM390.256 107.226C390.679 107.226 391.057 107.32 391.389 107.509C391.722 107.698 391.978 107.966 392.16 108.314C392.349 108.654 392.443 109.047 392.443 109.492V113.221H391.355V109.685C391.355 109.247 391.23 108.892 390.981 108.62C390.732 108.34 390.407 108.2 390.006 108.2C389.712 108.2 389.44 108.265 389.19 108.393C388.941 108.514 388.745 108.68 388.601 108.892C388.458 109.103 388.386 109.334 388.386 109.583V113.221H387.264V107.362H388.386V108.223C388.56 107.928 388.813 107.69 389.145 107.509C389.485 107.32 389.855 107.226 390.256 107.226Z" fill="#CBD4D8"/>
<mask id="path-14-inside-2_10150_3864" fill="white">
<path d="M250.428 130.959H404.428V169.816H250.428V130.959Z"/>
</mask>
<path d="M250.428 130.959H404.428V169.816H250.428V130.959Z" fill="#1B2B32"/>
<path d="M253.667 169.816V130.959H247.19V169.816H253.667Z" fill="#FF674C" mask="url(#path-14-inside-2_10150_3864)"/>
<path d="M266.619 152.046C266.42 152.046 266.259 151.885 266.259 151.687V147.369C266.259 147.171 266.42 147.009 266.619 147.009C266.818 147.009 266.979 147.171 266.979 147.369V151.687C266.979 151.885 266.818 152.046 266.619 152.046Z" fill="#FF674C"/>
<path d="M267.097 153.288C267.097 153.552 266.883 153.766 266.619 153.766C266.355 153.766 266.14 153.552 266.14 153.288C266.14 153.023 266.355 152.809 266.619 152.809C266.883 152.809 267.097 153.023 267.097 153.288Z" fill="#FF674C"/>
<path fill-rule="evenodd" clip-rule="evenodd" d="M260.862 150.388C260.862 153.567 263.44 156.144 266.619 156.144C268.146 156.144 269.61 155.538 270.689 154.458C271.769 153.379 272.376 151.915 272.376 150.388C272.376 147.209 269.798 144.631 266.619 144.631C263.44 144.631 260.862 147.209 260.862 150.388ZM261.582 150.388C261.582 147.606 263.837 145.351 266.619 145.351C269.401 145.351 271.656 147.606 271.656 150.388C271.656 153.17 269.401 155.425 266.619 155.425C263.837 155.425 261.582 153.17 261.582 150.388Z" fill="#FF674C"/>
<path d="M280.405 152.947L283.261 150.59C283.775 150.159 284.141 149.766 284.36 149.411C284.587 149.056 284.7 148.701 284.7 148.346C284.7 147.938 284.557 147.613 284.27 147.371C283.983 147.122 283.635 146.997 283.227 146.997C282.819 146.997 282.453 147.095 282.128 147.292C281.803 147.488 281.497 147.775 281.21 148.153L280.439 147.473C281.164 146.468 282.109 145.966 283.272 145.966C283.756 145.966 284.194 146.064 284.587 146.26C284.988 146.457 285.301 146.736 285.528 147.099C285.762 147.454 285.879 147.862 285.879 148.323C285.879 148.844 285.739 149.332 285.46 149.785C285.18 150.238 284.708 150.737 284.043 151.281L282.218 152.822H285.947V153.888H280.405V152.947Z" fill="#CBD4D8"/>
<path d="M303.635 153.024C302.925 153.024 302.26 152.842 301.64 152.48C301.021 152.11 300.526 151.615 300.156 150.995C299.786 150.376 299.6 149.707 299.6 148.989C299.6 148.271 299.786 147.606 300.156 146.994C300.526 146.375 301.021 145.884 301.64 145.521C302.26 145.151 302.925 144.966 303.635 144.966C304.187 144.966 304.712 145.075 305.21 145.294C305.709 145.506 306.144 145.804 306.514 146.19L305.709 146.96C305.437 146.666 305.12 146.435 304.757 146.269C304.402 146.103 304.028 146.02 303.635 146.02C303.129 146.02 302.653 146.156 302.207 146.428C301.769 146.7 301.418 147.062 301.153 147.516C300.896 147.969 300.768 148.46 300.768 148.989C300.768 149.518 300.896 150.013 301.153 150.474C301.418 150.927 301.769 151.29 302.207 151.562C302.653 151.834 303.129 151.97 303.635 151.97C304.028 151.97 304.402 151.887 304.757 151.72C305.12 151.554 305.437 151.324 305.709 151.029L306.514 151.8C306.136 152.185 305.698 152.487 305.199 152.706C304.7 152.918 304.179 153.024 303.635 153.024ZM310.742 146.892C311.165 146.892 311.543 146.987 311.876 147.176C312.208 147.365 312.465 147.633 312.646 147.98C312.835 148.32 312.93 148.713 312.93 149.159V152.888H311.842V149.352C311.842 148.914 311.717 148.558 311.468 148.286C311.218 148.007 310.893 147.867 310.493 147.867C310.198 147.867 309.926 147.931 309.677 148.06C309.428 148.181 309.231 148.347 309.088 148.558C308.944 148.77 308.872 149 308.872 149.25V152.888H307.75V144.966H308.872V147.89C309.046 147.595 309.299 147.357 309.632 147.176C309.972 146.987 310.342 146.892 310.742 146.892ZM316.786 146.892C317.556 146.892 318.157 147.115 318.588 147.561C319.018 148.007 319.234 148.6 319.234 149.34V152.888H318.134V152.094C317.923 152.389 317.64 152.62 317.284 152.786C316.929 152.944 316.563 153.024 316.185 153.024C315.558 153.024 315.04 152.854 314.632 152.514C314.224 152.174 314.02 151.72 314.02 151.154C314.02 150.776 314.122 150.44 314.326 150.145C314.538 149.843 314.821 149.612 315.176 149.454C315.539 149.288 315.936 149.204 316.366 149.204C316.926 149.204 317.515 149.31 318.134 149.522V149.34C318.134 148.91 318.017 148.551 317.783 148.264C317.549 147.969 317.164 147.822 316.627 147.822C316.166 147.822 315.618 147.984 314.984 148.309L314.564 147.482C315.35 147.089 316.091 146.892 316.786 146.892ZM316.412 152.14C316.805 152.14 317.167 152.045 317.5 151.856C317.832 151.66 318.044 151.392 318.134 151.052V150.27C317.636 150.119 317.103 150.043 316.536 150.043C316.136 150.043 315.796 150.145 315.516 150.349C315.237 150.553 315.097 150.81 315.097 151.12C315.097 151.43 315.218 151.679 315.46 151.868C315.709 152.049 316.026 152.14 316.412 152.14ZM321.992 148.173C322.173 147.78 322.452 147.47 322.83 147.244C323.216 147.01 323.661 146.892 324.168 146.892V147.867C323.744 147.867 323.367 147.946 323.034 148.105C322.702 148.264 322.445 148.49 322.264 148.785C322.082 149.072 321.992 149.401 321.992 149.771V152.888H320.87V147.028H321.992V148.173ZM327.625 146.892C328.396 146.892 328.997 147.115 329.427 147.561C329.858 148.007 330.073 148.6 330.073 149.34V152.888H328.974V152.094C328.762 152.389 328.479 152.62 328.124 152.786C327.769 152.944 327.402 153.024 327.025 153.024C326.397 153.024 325.88 152.854 325.472 152.514C325.064 152.174 324.86 151.72 324.86 151.154C324.86 150.776 324.962 150.44 325.166 150.145C325.377 149.843 325.661 149.612 326.016 149.454C326.379 149.288 326.775 149.204 327.206 149.204C327.765 149.204 328.354 149.31 328.974 149.522V149.34C328.974 148.91 328.857 148.551 328.623 148.264C328.388 147.969 328.003 147.822 327.467 147.822C327.006 147.822 326.458 147.984 325.823 148.309L325.404 147.482C326.19 147.089 326.93 146.892 327.625 146.892ZM327.251 152.14C327.644 152.14 328.007 152.045 328.339 151.856C328.672 151.66 328.883 151.392 328.974 151.052V150.27C328.475 150.119 327.943 150.043 327.376 150.043C326.975 150.043 326.635 150.145 326.356 150.349C326.076 150.553 325.937 150.81 325.937 151.12C325.937 151.43 326.057 151.679 326.299 151.868C326.549 152.049 326.866 152.14 327.251 152.14ZM334.316 153.024C333.764 153.024 333.25 152.884 332.774 152.604C332.306 152.325 331.928 151.951 331.641 151.482C331.361 151.006 331.222 150.496 331.222 149.952C331.222 149.408 331.361 148.902 331.641 148.434C331.928 147.965 332.31 147.591 332.786 147.312C333.262 147.032 333.772 146.892 334.316 146.892C334.731 146.892 335.12 146.972 335.483 147.13C335.853 147.289 336.186 147.512 336.48 147.799L335.721 148.502C335.54 148.305 335.324 148.15 335.075 148.037C334.833 147.924 334.58 147.867 334.316 147.867C333.968 147.867 333.643 147.962 333.341 148.15C333.039 148.339 332.797 148.596 332.616 148.921C332.442 149.238 332.355 149.582 332.355 149.952C332.355 150.33 332.442 150.682 332.616 151.006C332.797 151.324 333.039 151.577 333.341 151.766C333.643 151.955 333.968 152.049 334.316 152.049C334.588 152.049 334.848 151.992 335.098 151.879C335.347 151.758 335.566 151.596 335.755 151.392L336.514 152.083C336.22 152.378 335.883 152.608 335.506 152.774C335.135 152.941 334.739 153.024 334.316 153.024ZM340.529 152.604C340.37 152.733 340.185 152.835 339.973 152.91C339.769 152.986 339.561 153.024 339.35 153.024C338.897 153.024 338.526 152.876 338.239 152.582C337.952 152.28 337.809 151.894 337.809 151.426V147.98H336.936V147.028H337.809V145.419H338.908V147.028H340.291V147.98H338.908V151.346C338.908 151.55 338.968 151.72 339.089 151.856C339.21 151.985 339.354 152.049 339.52 152.049C339.641 152.049 339.754 152.03 339.86 151.992C339.966 151.947 340.049 151.894 340.109 151.834L340.529 152.604ZM344.169 152.094C344.486 152.094 344.807 152.03 345.132 151.902C345.464 151.773 345.721 151.615 345.903 151.426L346.56 152.117C346.311 152.389 345.959 152.608 345.506 152.774C345.06 152.941 344.622 153.024 344.191 153.024C343.655 153.024 343.152 152.892 342.684 152.627C342.223 152.363 341.853 151.996 341.573 151.528C341.301 151.052 341.165 150.523 341.165 149.941C341.165 149.367 341.298 148.849 341.562 148.388C341.826 147.92 342.182 147.554 342.627 147.289C343.081 147.025 343.576 146.892 344.112 146.892C344.701 146.892 345.208 147.032 345.631 147.312C346.061 147.591 346.386 147.988 346.605 148.502C346.832 149.016 346.945 149.62 346.945 150.315H342.265C342.333 150.844 342.537 151.275 342.877 151.607C343.224 151.932 343.655 152.094 344.169 152.094ZM344.135 147.822C343.666 147.822 343.258 147.973 342.911 148.275C342.571 148.577 342.359 148.982 342.276 149.488H345.857C345.797 148.997 345.616 148.596 345.313 148.286C345.019 147.977 344.626 147.822 344.135 147.822ZM349.3 148.173C349.482 147.78 349.761 147.47 350.139 147.244C350.524 147.01 350.97 146.892 351.476 146.892V147.867C351.053 147.867 350.675 147.946 350.343 148.105C350.011 148.264 349.754 148.49 349.572 148.785C349.391 149.072 349.3 149.401 349.3 149.771V152.888H348.178V147.028H349.3V148.173ZM352.713 147.028H353.835V152.888H352.713V147.028ZM353.279 146.054C353.09 146.054 352.928 145.986 352.792 145.85C352.664 145.714 352.599 145.555 352.599 145.374C352.599 145.192 352.664 145.038 352.792 144.909C352.928 144.773 353.09 144.705 353.279 144.705C353.461 144.705 353.616 144.773 353.744 144.909C353.88 145.038 353.948 145.192 353.948 145.374C353.948 145.555 353.88 145.714 353.744 145.85C353.616 145.986 353.461 146.054 353.279 146.054ZM357.513 153.024C357.075 153.024 356.637 152.948 356.199 152.797C355.761 152.646 355.368 152.431 355.02 152.151L355.53 151.38C355.855 151.622 356.187 151.807 356.527 151.936C356.867 152.057 357.2 152.117 357.525 152.117C357.872 152.117 358.148 152.045 358.352 151.902C358.564 151.758 358.669 151.566 358.669 151.324C358.669 151.074 358.56 150.889 358.341 150.768C358.122 150.64 357.778 150.512 357.309 150.383C356.592 150.179 356.074 149.956 355.757 149.714C355.447 149.473 355.292 149.125 355.292 148.672C355.292 148.135 355.489 147.705 355.881 147.38C356.282 147.055 356.796 146.892 357.423 146.892C357.793 146.892 358.167 146.953 358.545 147.074C358.923 147.195 359.27 147.361 359.587 147.572L359.123 148.366C358.518 147.988 357.952 147.799 357.423 147.799C357.113 147.799 356.856 147.867 356.652 148.003C356.456 148.132 356.357 148.313 356.357 148.547C356.357 148.698 356.403 148.819 356.493 148.91C356.584 149 356.72 149.084 356.901 149.159C357.083 149.227 357.366 149.322 357.751 149.442C358.175 149.571 358.518 149.696 358.783 149.816C359.055 149.93 359.281 150.1 359.463 150.326C359.644 150.553 359.735 150.848 359.735 151.21C359.735 151.762 359.527 152.204 359.111 152.536C358.703 152.861 358.171 153.024 357.513 153.024ZM363.942 152.604C363.783 152.733 363.598 152.835 363.386 152.91C363.182 152.986 362.974 153.024 362.763 153.024C362.31 153.024 361.939 152.876 361.652 152.582C361.365 152.28 361.222 151.894 361.222 151.426V147.98H360.349V147.028H361.222V145.419H362.321V147.028H363.704V147.98H362.321V151.346C362.321 151.55 362.381 151.72 362.502 151.856C362.623 151.985 362.767 152.049 362.933 152.049C363.054 152.049 363.167 152.03 363.273 151.992C363.379 151.947 363.462 151.894 363.522 151.834L363.942 152.604ZM365.032 147.028H366.154V152.888H365.032V147.028ZM365.598 146.054C365.409 146.054 365.247 145.986 365.111 145.85C364.983 145.714 364.918 145.555 364.918 145.374C364.918 145.192 364.983 145.038 365.111 144.909C365.247 144.773 365.409 144.705 365.598 144.705C365.78 144.705 365.935 144.773 366.063 144.909C366.199 145.038 366.267 145.192 366.267 145.374C366.267 145.555 366.199 145.714 366.063 145.85C365.935 145.986 365.78 146.054 365.598 146.054ZM370.512 153.024C369.961 153.024 369.447 152.884 368.971 152.604C368.503 152.325 368.125 151.951 367.838 151.482C367.558 151.006 367.418 150.496 367.418 149.952C367.418 149.408 367.558 148.902 367.838 148.434C368.125 147.965 368.506 147.591 368.982 147.312C369.458 147.032 369.968 146.892 370.512 146.892C370.928 146.892 371.317 146.972 371.68 147.13C372.05 147.289 372.382 147.512 372.677 147.799L371.918 148.502C371.736 148.305 371.521 148.15 371.272 148.037C371.03 147.924 370.777 147.867 370.512 147.867C370.165 147.867 369.84 147.962 369.538 148.15C369.236 148.339 368.994 148.596 368.812 148.921C368.639 149.238 368.552 149.582 368.552 149.952C368.552 150.33 368.639 150.682 368.812 151.006C368.994 151.324 369.236 151.577 369.538 151.766C369.84 151.955 370.165 152.049 370.512 152.049C370.784 152.049 371.045 151.992 371.294 151.879C371.544 151.758 371.763 151.596 371.952 151.392L372.711 152.083C372.416 152.378 372.08 152.608 371.702 152.774C371.332 152.941 370.936 153.024 370.512 153.024ZM375.728 153.024C375.29 153.024 374.852 152.948 374.413 152.797C373.975 152.646 373.582 152.431 373.235 152.151L373.745 151.38C374.07 151.622 374.402 151.807 374.742 151.936C375.082 152.057 375.414 152.117 375.739 152.117C376.087 152.117 376.363 152.045 376.567 151.902C376.778 151.758 376.884 151.566 376.884 151.324C376.884 151.074 376.774 150.889 376.555 150.768C376.336 150.64 375.992 150.512 375.524 150.383C374.806 150.179 374.289 149.956 373.971 149.714C373.662 149.473 373.507 149.125 373.507 148.672C373.507 148.135 373.703 147.705 374.096 147.38C374.496 147.055 375.01 146.892 375.637 146.892C376.008 146.892 376.382 146.953 376.759 147.074C377.137 147.195 377.485 147.361 377.802 147.572L377.337 148.366C376.733 147.988 376.166 147.799 375.637 147.799C375.328 147.799 375.071 147.867 374.867 148.003C374.67 148.132 374.572 148.313 374.572 148.547C374.572 148.698 374.617 148.819 374.708 148.91C374.799 149 374.935 149.084 375.116 149.159C375.297 149.227 375.581 149.322 375.966 149.442C376.389 149.571 376.733 149.696 376.997 149.816C377.269 149.93 377.496 150.1 377.677 150.326C377.859 150.553 377.949 150.848 377.949 151.21C377.949 151.762 377.742 152.204 377.326 152.536C376.918 152.861 376.385 153.024 375.728 153.024Z" fill="#CBD4D8"/>
<mask id="path-19-inside-3_10150_3864" fill="white">
<path d="M250.428 170.626H404.428V209.483H250.428V170.626Z"/>
</mask>
<path d="M250.428 170.626H404.428V209.483H250.428V170.626Z" fill="#1B2B32"/>
<path d="M253.667 209.483V170.626H247.19V209.483H253.667Z" fill="#67CA16" mask="url(#path-19-inside-3_10150_3864)"/>
<path fill-rule="evenodd" clip-rule="evenodd" d="M266.619 184.298C263.44 184.298 260.862 186.875 260.862 190.054C260.862 193.234 263.44 195.811 266.619 195.811C269.798 195.811 272.376 193.234 272.376 190.054C272.376 188.528 271.769 187.063 270.689 185.984C269.61 184.904 268.146 184.298 266.619 184.298ZM266.619 195.092C263.837 195.092 261.582 192.836 261.582 190.054C261.582 187.273 263.837 185.017 266.619 185.017C269.401 185.017 271.656 187.273 271.656 190.054C271.656 191.39 271.125 192.672 270.181 193.616C269.236 194.561 267.955 195.092 266.619 195.092ZM269.71 187.932C269.85 187.792 270.076 187.792 270.217 187.932C270.285 187.999 270.323 188.091 270.323 188.187C270.323 188.283 270.285 188.375 270.217 188.443L265.716 192.933L263.021 190.245C262.884 190.097 262.893 189.866 263.041 189.729C263.189 189.592 263.42 189.601 263.557 189.749L265.716 191.907L269.71 187.932Z" fill="#67CA16"/>
<path d="M283.106 193.69C282.471 193.69 281.901 193.57 281.395 193.328C280.896 193.086 280.488 192.765 280.171 192.364L280.907 191.605C281.179 191.93 281.501 192.187 281.871 192.376C282.241 192.565 282.645 192.659 283.083 192.659C283.582 192.659 283.983 192.538 284.285 192.296C284.587 192.055 284.738 191.737 284.738 191.344C284.738 190.944 284.576 190.642 284.251 190.438C283.933 190.226 283.484 190.124 282.902 190.132H282.052V189.112L282.902 189.123C283.408 189.123 283.813 189.017 284.115 188.806C284.425 188.594 284.579 188.296 284.579 187.91C284.579 187.548 284.428 187.249 284.126 187.015C283.824 186.781 283.446 186.664 282.993 186.664C282.607 186.664 282.256 186.754 281.939 186.936C281.621 187.11 281.319 187.366 281.032 187.706L280.318 187.004C281.021 186.09 281.939 185.632 283.072 185.632C283.593 185.632 284.054 185.723 284.455 185.904C284.863 186.086 285.176 186.339 285.395 186.664C285.622 186.981 285.735 187.344 285.735 187.752C285.735 188.205 285.596 188.587 285.316 188.896C285.044 189.206 284.689 189.429 284.251 189.565C284.704 189.671 285.093 189.882 285.418 190.2C285.743 190.51 285.905 190.918 285.905 191.424C285.905 191.862 285.788 192.255 285.554 192.602C285.32 192.942 284.991 193.211 284.568 193.407C284.145 193.596 283.658 193.69 283.106 193.69Z" fill="#CBD4D8"/>
<path d="M302.683 192.679C301.406 192.679 300.341 192.264 299.487 191.432L300.167 190.582C300.93 191.308 301.784 191.67 302.728 191.67C303.242 191.67 303.643 191.557 303.93 191.33C304.217 191.096 304.36 190.813 304.36 190.48C304.36 190.133 304.209 189.868 303.907 189.687C303.612 189.498 303.114 189.324 302.411 189.166C301.822 189.03 301.338 188.875 300.96 188.701C300.59 188.527 300.299 188.297 300.088 188.01C299.876 187.723 299.77 187.356 299.77 186.91C299.77 186.48 299.888 186.091 300.122 185.743C300.356 185.396 300.677 185.124 301.085 184.927C301.501 184.731 301.965 184.632 302.479 184.632C303.046 184.632 303.56 184.727 304.02 184.916C304.489 185.105 304.92 185.377 305.312 185.732L304.655 186.593C304.323 186.291 303.964 186.057 303.578 185.89C303.201 185.724 302.815 185.641 302.422 185.641C302.143 185.641 301.89 185.694 301.663 185.8C301.436 185.906 301.259 186.049 301.13 186.23C301.002 186.412 300.938 186.604 300.938 186.808C300.938 187.043 301.01 187.235 301.153 187.386C301.297 187.538 301.501 187.666 301.765 187.772C302.037 187.87 302.411 187.976 302.887 188.089C303.756 188.293 304.41 188.561 304.848 188.894C305.294 189.226 305.516 189.717 305.516 190.367C305.516 190.813 305.407 191.21 305.188 191.557C304.969 191.905 304.644 192.18 304.213 192.384C303.79 192.581 303.28 192.679 302.683 192.679ZM309.844 192.271C309.685 192.4 309.5 192.502 309.289 192.577C309.085 192.653 308.877 192.69 308.665 192.69C308.212 192.69 307.842 192.543 307.555 192.248C307.268 191.946 307.124 191.561 307.124 191.092V187.647H306.251V186.695H307.124V185.086H308.223V186.695H309.606V187.647H308.223V191.013C308.223 191.217 308.284 191.387 308.405 191.523C308.526 191.652 308.669 191.716 308.835 191.716C308.956 191.716 309.07 191.697 309.175 191.659C309.281 191.614 309.364 191.561 309.425 191.5L309.844 192.271ZM313.156 186.559C313.926 186.559 314.527 186.782 314.958 187.228C315.388 187.674 315.604 188.267 315.604 189.007V192.554H314.504V191.761C314.293 192.056 314.009 192.286 313.654 192.452C313.299 192.611 312.933 192.69 312.555 192.69C311.928 192.69 311.41 192.52 311.002 192.18C310.594 191.84 310.39 191.387 310.39 190.82C310.39 190.443 310.492 190.106 310.696 189.812C310.908 189.51 311.191 189.279 311.546 189.12C311.909 188.954 312.306 188.871 312.736 188.871C313.295 188.871 313.885 188.977 314.504 189.188V189.007C314.504 188.576 314.387 188.218 314.153 187.93C313.919 187.636 313.533 187.488 312.997 187.488C312.536 187.488 311.988 187.651 311.354 187.976L310.934 187.148C311.72 186.756 312.46 186.559 313.156 186.559ZM312.782 191.806C313.174 191.806 313.537 191.712 313.87 191.523C314.202 191.327 314.414 191.058 314.504 190.718V189.936C314.006 189.785 313.473 189.71 312.906 189.71C312.506 189.71 312.166 189.812 311.886 190.016C311.607 190.22 311.467 190.477 311.467 190.786C311.467 191.096 311.588 191.346 311.83 191.534C312.079 191.716 312.396 191.806 312.782 191.806ZM320.163 192.271C320.005 192.4 319.82 192.502 319.608 192.577C319.404 192.653 319.196 192.69 318.985 192.69C318.531 192.69 318.161 192.543 317.874 192.248C317.587 191.946 317.443 191.561 317.443 191.092V187.647H316.571V186.695H317.443V185.086H318.543V186.695H319.925V187.647H318.543V191.013C318.543 191.217 318.603 191.387 318.724 191.523C318.845 191.652 318.988 191.716 319.155 191.716C319.276 191.716 319.389 191.697 319.495 191.659C319.6 191.614 319.684 191.561 319.744 191.5L320.163 192.271ZM323.18 192.69C322.742 192.69 322.304 192.615 321.865 192.464C321.427 192.313 321.034 192.097 320.687 191.818L321.197 191.047C321.522 191.289 321.854 191.474 322.194 191.602C322.534 191.723 322.867 191.784 323.191 191.784C323.539 191.784 323.815 191.712 324.019 191.568C324.23 191.425 324.336 191.232 324.336 190.99C324.336 190.741 324.227 190.556 324.007 190.435C323.788 190.307 323.445 190.178 322.976 190.05C322.258 189.846 321.741 189.623 321.423 189.381C321.114 189.139 320.959 188.792 320.959 188.338C320.959 187.802 321.155 187.371 321.548 187.046C321.949 186.722 322.462 186.559 323.089 186.559C323.46 186.559 323.834 186.62 324.211 186.74C324.589 186.861 324.937 187.028 325.254 187.239L324.789 188.032C324.185 187.655 323.618 187.466 323.089 187.466C322.78 187.466 322.523 187.534 322.319 187.67C322.122 187.798 322.024 187.98 322.024 188.214C322.024 188.365 322.069 188.486 322.16 188.576C322.251 188.667 322.387 188.75 322.568 188.826C322.749 188.894 323.033 188.988 323.418 189.109C323.841 189.238 324.185 189.362 324.449 189.483C324.721 189.596 324.948 189.766 325.129 189.993C325.311 190.22 325.401 190.514 325.401 190.877C325.401 191.429 325.194 191.871 324.778 192.203C324.37 192.528 323.837 192.69 323.18 192.69Z" fill="#CBD4D8"/>
<g clip-path="url(#clip4_10150_3864)">
<mask id="path-24-inside-4_10150_3864" fill="white">
<path d="M250.428 210.292H404.428V249.15H250.428V210.292Z"/>
</mask>
<rect width="223.429" height="38.8571" transform="translate(253.667 210.292)" fill="#004B6B"/>
<path d="M283.983 231.43H280.118L279.993 230.512L283.767 225.435H285.127V230.422H286.249V231.43H285.127V233.221H283.983V231.43ZM283.983 230.422V226.738L281.251 230.422H283.983Z" fill="#CBD4D8"/>
<path d="M299.34 224.435H300.609L302.524 230.374L304.474 224.435H305.732L307.681 230.374L309.596 224.435H310.866L308.304 232.221H307.16L305.108 226.022L303.046 232.221H301.901L299.34 224.435ZM314.594 231.428C314.912 231.428 315.233 231.364 315.558 231.235C315.89 231.107 316.147 230.948 316.328 230.759L316.986 231.45C316.736 231.722 316.385 231.942 315.932 232.108C315.486 232.274 315.048 232.357 314.617 232.357C314.081 232.357 313.578 232.225 313.11 231.96C312.649 231.696 312.279 231.33 311.999 230.861C311.727 230.385 311.591 229.856 311.591 229.274C311.591 228.7 311.723 228.183 311.988 227.722C312.252 227.253 312.607 226.887 313.053 226.622C313.506 226.358 314.001 226.226 314.538 226.226C315.127 226.226 315.633 226.366 316.056 226.645C316.487 226.925 316.812 227.321 317.031 227.835C317.258 228.349 317.371 228.953 317.371 229.648H312.69C312.758 230.177 312.962 230.608 313.302 230.94C313.65 231.265 314.081 231.428 314.594 231.428ZM314.56 227.155C314.092 227.155 313.684 227.306 313.336 227.608C312.996 227.911 312.785 228.315 312.702 228.821H316.283C316.223 228.33 316.041 227.93 315.739 227.62C315.444 227.31 315.052 227.155 314.56 227.155ZM320.825 226.226C321.596 226.226 322.197 226.449 322.627 226.894C323.058 227.34 323.273 227.933 323.273 228.674V232.221H322.174V231.428C321.963 231.722 321.679 231.953 321.324 232.119C320.969 232.278 320.603 232.357 320.225 232.357C319.598 232.357 319.08 232.187 318.672 231.847C318.264 231.507 318.06 231.054 318.06 230.487C318.06 230.109 318.162 229.773 318.366 229.478C318.578 229.176 318.861 228.946 319.216 228.787C319.579 228.621 319.975 228.538 320.406 228.538C320.965 228.538 321.555 228.644 322.174 228.855V228.674C322.174 228.243 322.057 227.884 321.823 227.597C321.589 227.302 321.203 227.155 320.667 227.155C320.206 227.155 319.658 227.318 319.023 227.642L318.604 226.815C319.39 226.422 320.13 226.226 320.825 226.226ZM320.451 231.473C320.844 231.473 321.207 231.379 321.539 231.19C321.872 230.993 322.083 230.725 322.174 230.385V229.603C321.675 229.452 321.143 229.376 320.576 229.376C320.176 229.376 319.836 229.478 319.556 229.682C319.277 229.886 319.137 230.143 319.137 230.453C319.137 230.763 319.258 231.012 319.499 231.201C319.749 231.382 320.066 231.473 320.451 231.473ZM324.909 224.299H326.031V229.365L328.899 226.362H330.259L327.731 229.014L330.145 232.221H328.808L326.972 229.762L326.031 230.714V232.221H324.909V224.299ZM334.206 226.226C334.63 226.226 335.007 226.32 335.34 226.509C335.672 226.698 335.929 226.966 336.11 227.314C336.299 227.654 336.394 228.047 336.394 228.492V232.221H335.306V228.685C335.306 228.247 335.181 227.892 334.932 227.62C334.682 227.34 334.358 227.2 333.957 227.2C333.662 227.2 333.39 227.265 333.141 227.393C332.892 227.514 332.695 227.68 332.552 227.892C332.408 228.103 332.336 228.334 332.336 228.583V232.221H331.214V226.362H332.336V227.223C332.51 226.928 332.763 226.69 333.096 226.509C333.436 226.32 333.806 226.226 334.206 226.226ZM340.579 231.428C340.896 231.428 341.217 231.364 341.542 231.235C341.874 231.107 342.131 230.948 342.313 230.759L342.97 231.45C342.721 231.722 342.369 231.942 341.916 232.108C341.47 232.274 341.032 232.357 340.601 232.357C340.065 232.357 339.562 232.225 339.094 231.96C338.633 231.696 338.263 231.33 337.983 230.861C337.711 230.385 337.575 229.856 337.575 229.274C337.575 228.7 337.708 228.183 337.972 227.722C338.236 227.253 338.592 226.887 339.037 226.622C339.491 226.358 339.986 226.226 340.522 226.226C341.111 226.226 341.618 226.366 342.041 226.645C342.471 226.925 342.796 227.321 343.015 227.835C343.242 228.349 343.355 228.953 343.355 229.648H338.675C338.743 230.177 338.947 230.608 339.287 230.94C339.634 231.265 340.065 231.428 340.579 231.428ZM340.545 227.155C340.076 227.155 339.668 227.306 339.321 227.608C338.981 227.911 338.769 228.315 338.686 228.821H342.267C342.207 228.33 342.026 227.93 341.723 227.62C341.429 227.31 341.036 227.155 340.545 227.155ZM346.515 232.357C346.077 232.357 345.639 232.282 345.2 232.13C344.762 231.979 344.369 231.764 344.022 231.484L344.532 230.714C344.857 230.956 345.189 231.141 345.529 231.269C345.869 231.39 346.201 231.45 346.526 231.45C346.874 231.45 347.15 231.379 347.354 231.235C347.565 231.092 347.671 230.899 347.671 230.657C347.671 230.408 347.561 230.223 347.342 230.102C347.123 229.973 346.779 229.845 346.311 229.716C345.593 229.512 345.076 229.29 344.758 229.048C344.449 228.806 344.294 228.458 344.294 228.005C344.294 227.469 344.49 227.038 344.883 226.713C345.283 226.388 345.797 226.226 346.424 226.226C346.795 226.226 347.169 226.286 347.546 226.407C347.924 226.528 348.272 226.694 348.589 226.906L348.124 227.699C347.52 227.321 346.953 227.132 346.424 227.132C346.115 227.132 345.858 227.2 345.654 227.336C345.457 227.465 345.359 227.646 345.359 227.88C345.359 228.032 345.404 228.152 345.495 228.243C345.586 228.334 345.722 228.417 345.903 228.492C346.084 228.56 346.368 228.655 346.753 228.776C347.176 228.904 347.52 229.029 347.784 229.15C348.056 229.263 348.283 229.433 348.464 229.66C348.646 229.886 348.736 230.181 348.736 230.544C348.736 231.095 348.529 231.537 348.113 231.87C347.705 232.195 347.172 232.357 346.515 232.357ZM351.946 232.357C351.508 232.357 351.069 232.282 350.631 232.13C350.193 231.979 349.8 231.764 349.452 231.484L349.962 230.714C350.287 230.956 350.62 231.141 350.96 231.269C351.3 231.39 351.632 231.45 351.957 231.45C352.305 231.45 352.58 231.379 352.784 231.235C352.996 231.092 353.102 230.899 353.102 230.657C353.102 230.408 352.992 230.223 352.773 230.102C352.554 229.973 352.21 229.845 351.742 229.716C351.024 229.512 350.506 229.29 350.189 229.048C349.879 228.806 349.724 228.458 349.724 228.005C349.724 227.469 349.921 227.038 350.314 226.713C350.714 226.388 351.228 226.226 351.855 226.226C352.225 226.226 352.599 226.286 352.977 226.407C353.355 226.528 353.702 226.694 354.02 226.906L353.555 227.699C352.951 227.321 352.384 227.132 351.855 227.132C351.545 227.132 351.288 227.2 351.084 227.336C350.888 227.465 350.79 227.646 350.79 227.88C350.79 228.032 350.835 228.152 350.926 228.243C351.016 228.334 351.152 228.417 351.334 228.492C351.515 228.56 351.798 228.655 352.184 228.776C352.607 228.904 352.951 229.029 353.215 229.15C353.487 229.263 353.714 229.433 353.895 229.66C354.076 229.886 354.167 230.181 354.167 230.544C354.167 231.095 353.959 231.537 353.544 231.87C353.136 232.195 352.603 232.357 351.946 232.357ZM358 231.428C358.317 231.428 358.638 231.364 358.963 231.235C359.296 231.107 359.552 230.948 359.734 230.759L360.391 231.45C360.142 231.722 359.79 231.942 359.337 232.108C358.891 232.274 358.453 232.357 358.022 232.357C357.486 232.357 356.984 232.225 356.515 231.96C356.054 231.696 355.684 231.33 355.404 230.861C355.132 230.385 354.996 229.856 354.996 229.274C354.996 228.7 355.129 228.183 355.393 227.722C355.658 227.253 356.013 226.887 356.458 226.622C356.912 226.358 357.407 226.226 357.943 226.226C358.532 226.226 359.039 226.366 359.462 226.645C359.892 226.925 360.217 227.321 360.436 227.835C360.663 228.349 360.776 228.953 360.776 229.648H356.096C356.164 230.177 356.368 230.608 356.708 230.94C357.055 231.265 357.486 231.428 358 231.428ZM357.966 227.155C357.497 227.155 357.089 227.306 356.742 227.608C356.402 227.911 356.19 228.315 356.107 228.821H359.688C359.628 228.33 359.447 227.93 359.144 227.62C358.85 227.31 358.457 227.155 357.966 227.155ZM363.936 232.357C363.498 232.357 363.06 232.282 362.621 232.13C362.183 231.979 361.79 231.764 361.443 231.484L361.953 230.714C362.278 230.956 362.61 231.141 362.95 231.269C363.29 231.39 363.623 231.45 363.947 231.45C364.295 231.45 364.571 231.379 364.775 231.235C364.986 231.092 365.092 230.899 365.092 230.657C365.092 230.408 364.983 230.223 364.763 230.102C364.544 229.973 364.201 229.845 363.732 229.716C363.014 229.512 362.497 229.29 362.179 229.048C361.87 228.806 361.715 228.458 361.715 228.005C361.715 227.469 361.911 227.038 362.304 226.713C362.705 226.388 363.218 226.226 363.845 226.226C364.216 226.226 364.59 226.286 364.967 226.407C365.345 226.528 365.693 226.694 366.01 226.906L365.545 227.699C364.941 227.321 364.374 227.132 363.845 227.132C363.536 227.132 363.279 227.2 363.075 227.336C362.878 227.465 362.78 227.646 362.78 227.88C362.78 228.032 362.825 228.152 362.916 228.243C363.007 228.334 363.143 228.417 363.324 228.492C363.505 228.56 363.789 228.655 364.174 228.776C364.597 228.904 364.941 229.029 365.205 229.15C365.477 229.263 365.704 229.433 365.885 229.66C366.067 229.886 366.157 230.181 366.157 230.544C366.157 231.095 365.95 231.537 365.534 231.87C365.126 232.195 364.593 232.357 363.936 232.357Z" fill="#CBD4D8"/>
</g>
<path d="M253.667 249.15V210.292H247.19V249.15H253.667Z" fill="#3A4D55" mask="url(#path-24-inside-4_10150_3864)"/>
<g clip-path="url(#clip5_10150_3864)">
<mask id="path-28-inside-5_10150_3864" fill="white">
<path d="M250.428 249.959H404.428V288.816H250.428V249.959Z"/>
</mask>
<path d="M250.428 249.959H404.428V288.816H250.428V249.959Z" fill="#1B2B32"/>
<path d="M283.143 273.024C282.553 273.024 282.021 272.918 281.545 272.706C281.069 272.487 280.657 272.185 280.309 271.8L281.023 270.984C281.673 271.671 282.387 272.015 283.165 272.015C283.664 272.015 284.072 271.868 284.389 271.573C284.707 271.278 284.865 270.908 284.865 270.462C284.865 270.017 284.707 269.658 284.389 269.386C284.072 269.106 283.66 268.966 283.154 268.966C282.549 268.966 281.998 269.155 281.499 269.533L280.695 269.17L280.808 265.102H285.591V266.167H281.896L281.828 268.479C282.327 268.147 282.863 267.98 283.437 267.98C283.913 267.98 284.344 268.079 284.729 268.275C285.122 268.464 285.432 268.744 285.659 269.114C285.893 269.484 286.01 269.918 286.01 270.417C286.01 270.931 285.889 271.388 285.647 271.788C285.405 272.181 285.065 272.487 284.627 272.706C284.197 272.918 283.702 273.024 283.143 273.024Z" fill="#CBD4D8"/>
<path d="M301.312 265.167V267.388H305.437V268.454H301.312V270.822H305.879V271.888H300.156V264.102H305.879V265.167H301.312ZM306.558 266.028H307.76L309.584 270.584L311.375 266.028H312.588L310.117 271.888H309.063L306.558 266.028ZM316.153 272.024C315.601 272.024 315.088 271.888 314.612 271.616C314.143 271.336 313.769 270.962 313.49 270.494C313.21 270.018 313.07 269.504 313.07 268.952C313.07 268.401 313.21 267.891 313.49 267.422C313.769 266.954 314.143 266.584 314.612 266.312C315.088 266.032 315.601 265.892 316.153 265.892C316.704 265.892 317.214 266.032 317.683 266.312C318.159 266.584 318.537 266.954 318.816 267.422C319.096 267.891 319.236 268.401 319.236 268.952C319.236 269.504 319.096 270.018 318.816 270.494C318.537 270.962 318.159 271.336 317.683 271.616C317.214 271.888 316.704 272.024 316.153 272.024ZM316.153 271.049C316.508 271.049 316.833 270.955 317.128 270.766C317.43 270.577 317.668 270.324 317.842 270.006C318.023 269.682 318.114 269.33 318.114 268.952C318.114 268.575 318.023 268.227 317.842 267.91C317.668 267.585 317.43 267.332 317.128 267.15C316.833 266.962 316.508 266.867 316.153 266.867C315.798 266.867 315.469 266.962 315.167 267.15C314.872 267.332 314.634 267.585 314.453 267.91C314.279 268.227 314.192 268.575 314.192 268.952C314.192 269.33 314.279 269.682 314.453 270.006C314.634 270.324 314.872 270.577 315.167 270.766C315.469 270.955 315.798 271.049 316.153 271.049ZM320.515 263.966H321.637V271.888H320.515V263.966ZM328.444 266.028V271.888H327.322V271.049C327.141 271.344 326.884 271.582 326.552 271.763C326.219 271.937 325.853 272.024 325.452 272.024C325.029 272.024 324.651 271.929 324.319 271.74C323.986 271.552 323.726 271.287 323.537 270.947C323.356 270.6 323.265 270.203 323.265 269.757V266.028H324.364V269.564C324.364 270.003 324.489 270.362 324.738 270.641C324.988 270.913 325.312 271.049 325.713 271.049C326.008 271.049 326.276 270.989 326.518 270.868C326.767 270.739 326.963 270.569 327.107 270.358C327.25 270.146 327.322 269.916 327.322 269.666V266.028H328.444ZM333.128 271.604C332.969 271.733 332.784 271.835 332.572 271.91C332.368 271.986 332.161 272.024 331.949 272.024C331.496 272.024 331.126 271.876 330.838 271.582C330.551 271.28 330.408 270.894 330.408 270.426V266.98H329.535V266.028H330.408V264.419H331.507V266.028H332.89V266.98H331.507V270.346C331.507 270.55 331.568 270.72 331.688 270.856C331.809 270.985 331.953 271.049 332.119 271.049C332.24 271.049 332.353 271.03 332.459 270.992C332.565 270.947 332.648 270.894 332.708 270.834L333.128 271.604ZM334.218 266.028H335.34V271.888H334.218V266.028ZM334.785 265.054C334.596 265.054 334.433 264.986 334.297 264.85C334.169 264.714 334.105 264.555 334.105 264.374C334.105 264.192 334.169 264.038 334.297 263.909C334.433 263.773 334.596 263.705 334.785 263.705C334.966 263.705 335.121 263.773 335.249 263.909C335.385 264.038 335.453 264.192 335.453 264.374C335.453 264.555 335.385 264.714 335.249 264.85C335.121 264.986 334.966 265.054 334.785 265.054ZM339.699 272.024C339.147 272.024 338.633 271.888 338.157 271.616C337.689 271.336 337.315 270.962 337.035 270.494C336.756 270.018 336.616 269.504 336.616 268.952C336.616 268.401 336.756 267.891 337.035 267.422C337.315 266.954 337.689 266.584 338.157 266.312C338.633 266.032 339.147 265.892 339.699 265.892C340.25 265.892 340.76 266.032 341.229 266.312C341.705 266.584 342.082 266.954 342.362 267.422C342.642 267.891 342.781 268.401 342.781 268.952C342.781 269.504 342.642 270.018 342.362 270.494C342.082 270.962 341.705 271.336 341.229 271.616C340.76 271.888 340.25 272.024 339.699 272.024ZM339.699 271.049C340.054 271.049 340.379 270.955 340.673 270.766C340.976 270.577 341.214 270.324 341.387 270.006C341.569 269.682 341.659 269.33 341.659 268.952C341.659 268.575 341.569 268.227 341.387 267.91C341.214 267.585 340.976 267.332 340.673 267.15C340.379 266.962 340.054 266.867 339.699 266.867C339.344 266.867 339.015 266.962 338.713 267.15C338.418 267.332 338.18 267.585 337.999 267.91C337.825 268.227 337.738 268.575 337.738 268.952C337.738 269.33 337.825 269.682 337.999 270.006C338.18 270.324 338.418 270.577 338.713 270.766C339.015 270.955 339.344 271.049 339.699 271.049ZM347.053 265.892C347.476 265.892 347.854 265.987 348.186 266.176C348.519 266.365 348.776 266.633 348.957 266.98C349.146 267.32 349.24 267.713 349.24 268.159V271.888H348.152V268.352C348.152 267.914 348.028 267.558 347.778 267.286C347.529 267.007 347.204 266.867 346.804 266.867C346.509 266.867 346.237 266.931 345.988 267.06C345.738 267.181 345.542 267.347 345.398 267.558C345.255 267.77 345.183 268 345.183 268.25V271.888H344.061V266.028H345.183V266.89C345.357 266.595 345.61 266.357 345.942 266.176C346.282 265.987 346.653 265.892 347.053 265.892ZM352.802 272.024C352.364 272.024 351.926 271.948 351.487 271.797C351.049 271.646 350.656 271.431 350.309 271.151L350.819 270.38C351.144 270.622 351.476 270.807 351.816 270.936C352.156 271.057 352.488 271.117 352.813 271.117C353.161 271.117 353.437 271.045 353.641 270.902C353.852 270.758 353.958 270.566 353.958 270.324C353.958 270.074 353.848 269.889 353.629 269.768C353.41 269.64 353.066 269.512 352.598 269.383C351.88 269.179 351.363 268.956 351.045 268.714C350.736 268.473 350.581 268.125 350.581 267.672C350.581 267.135 350.777 266.705 351.17 266.38C351.57 266.055 352.084 265.892 352.711 265.892C353.082 265.892 353.456 265.953 353.833 266.074C354.211 266.195 354.559 266.361 354.876 266.572L354.411 267.366C353.807 266.988 353.24 266.799 352.711 266.799C352.402 266.799 352.145 266.867 351.941 267.003C351.744 267.132 351.646 267.313 351.646 267.547C351.646 267.698 351.691 267.819 351.782 267.91C351.873 268 352.009 268.084 352.19 268.159C352.371 268.227 352.655 268.322 353.04 268.442C353.463 268.571 353.807 268.696 354.071 268.816C354.343 268.93 354.57 269.1 354.751 269.326C354.933 269.553 355.023 269.848 355.023 270.21C355.023 270.762 354.816 271.204 354.4 271.536C353.992 271.861 353.459 272.024 352.802 272.024Z" fill="#CBD4D8"/>
</g>
<path d="M253.667 288.816V249.959H247.19V288.816H253.667Z" fill="#3A4D55" mask="url(#path-28-inside-5_10150_3864)"/>
<path opacity="0.6" d="M404.643 31.8653V376.318" stroke="black" stroke-linecap="round"/>
</g>
<g clip-path="url(#clip6_10150_3864)">
<rect width="178.905" height="58.8571" transform="translate(424.476 31.6259)" fill="#22343C"/>
<path d="M428.621 65.0544L424.962 53.9316H426.775L429.511 62.4154L432.296 53.9316H434.093L436.878 62.4154L439.614 53.9316H441.428L437.768 65.0544H436.133L433.203 56.1983L430.256 65.0544H428.621ZM446.708 63.9211C447.615 63.9211 448.667 63.5163 449.185 62.9659L450.124 63.9535C449.396 64.7468 447.922 65.2487 446.74 65.2487C444.425 65.2487 442.418 63.4192 442.418 60.8449C442.418 58.3354 444.312 56.4897 446.627 56.4897C449.185 56.4897 450.675 58.4002 450.675 61.3792H443.988C444.182 62.8525 445.218 63.9211 446.708 63.9211ZM446.659 57.8173C445.316 57.8173 444.247 58.7563 444.004 60.1973H449.12C448.958 58.8535 448.117 57.8173 446.659 57.8173ZM455.563 56.4897C457.814 56.4897 459.06 57.9144 459.06 59.9868V65.0544H457.49V63.9211C456.875 64.7792 455.741 65.2487 454.705 65.2487C452.94 65.2487 451.613 64.2125 451.613 62.5773C451.613 60.9097 453.118 59.7925 454.964 59.7925C455.79 59.7925 456.68 59.9706 457.49 60.2459V59.9868C457.49 58.9344 457.004 57.8173 455.337 57.8173C454.511 57.8173 453.717 58.1411 452.989 58.5135L452.39 57.3316C453.588 56.7325 454.64 56.4897 455.563 56.4897ZM455.029 63.9859C456.065 63.9859 457.215 63.4678 457.49 62.4316V61.3144C456.794 61.104 456.033 60.9906 455.207 60.9906C454.09 60.9906 453.151 61.6221 453.151 62.5287C453.151 63.4354 453.96 63.9859 455.029 63.9859ZM461.351 65.0544V53.7373H462.954V60.9744L467.05 56.684H468.993L465.382 60.4725L468.831 65.0544H466.92L464.298 61.5411L462.954 62.9011V65.0544H461.351ZM474.586 56.4897C476.432 56.4897 477.711 57.8011 477.711 59.7278V65.0544H476.157V60.003C476.157 58.7402 475.363 57.8821 474.23 57.8821C472.951 57.8821 471.915 58.7563 471.915 59.8573V65.0544H470.312V56.684H471.915V57.9144C472.401 57.0725 473.437 56.4897 474.586 56.4897ZM483.643 63.9211C484.55 63.9211 485.602 63.5163 486.12 62.9659L487.059 63.9535C486.331 64.7468 484.857 65.2487 483.676 65.2487C481.36 65.2487 479.353 63.4192 479.353 60.8449C479.353 58.3354 481.247 56.4897 483.562 56.4897C486.12 56.4897 487.61 58.4002 487.61 61.3792H480.923C481.117 62.8525 482.154 63.9211 483.643 63.9211ZM483.595 57.8173C482.251 57.8173 481.182 58.7563 480.939 60.1973H486.056C485.894 58.8535 485.052 57.8173 483.595 57.8173ZM492.077 65.2487C490.847 65.2487 489.519 64.8116 488.515 64.0021L489.244 62.9011C490.167 63.5811 491.171 63.9535 492.094 63.9535C493.097 63.9535 493.729 63.5002 493.729 62.8202C493.729 62.0268 492.855 61.7678 491.786 61.4763C489.875 60.9421 488.904 60.3916 488.904 59.0316C488.904 57.4935 490.183 56.4897 491.948 56.4897C493.033 56.4897 494.15 56.8621 495.04 57.4611L494.376 58.5944C493.551 58.0763 492.709 57.7849 491.948 57.7849C491.106 57.7849 490.426 58.1573 490.426 58.8535C490.426 59.5011 490.993 59.6954 492.417 60.1325C493.794 60.5373 495.251 60.9906 495.251 62.6583C495.251 64.2449 493.923 65.2487 492.077 65.2487ZM499.789 65.2487C498.559 65.2487 497.231 64.8116 496.227 64.0021L496.956 62.9011C497.879 63.5811 498.883 63.9535 499.806 63.9535C500.809 63.9535 501.441 63.5002 501.441 62.8202C501.441 62.0268 500.567 61.7678 499.498 61.4763C497.587 60.9421 496.616 60.3916 496.616 59.0316C496.616 57.4935 497.895 56.4897 499.66 56.4897C500.745 56.4897 501.862 56.8621 502.752 57.4611L502.088 58.5944C501.263 58.0763 500.421 57.7849 499.66 57.7849C498.818 57.7849 498.138 58.1573 498.138 58.8535C498.138 59.5011 498.705 59.6954 500.129 60.1325C501.506 60.5373 502.963 60.9906 502.963 62.6583C502.963 64.2449 501.635 65.2487 499.789 65.2487ZM508.392 63.9211C509.298 63.9211 510.351 63.5163 510.869 62.9659L511.808 63.9535C511.079 64.7468 509.606 65.2487 508.424 65.2487C506.109 65.2487 504.101 63.4192 504.101 60.8449C504.101 58.3354 505.996 56.4897 508.311 56.4897C510.869 56.4897 512.358 58.4002 512.358 61.3792H505.672C505.866 62.8525 506.902 63.9211 508.392 63.9211ZM508.343 57.8173C506.999 57.8173 505.931 58.7563 505.688 60.1973H510.804C510.642 58.8535 509.8 57.8173 508.343 57.8173ZM516.826 65.2487C515.596 65.2487 514.268 64.8116 513.264 64.0021L513.993 62.9011C514.916 63.5811 515.919 63.9535 516.842 63.9535C517.846 63.9535 518.477 63.5002 518.477 62.8202C518.477 62.0268 517.603 61.7678 516.535 61.4763C514.624 60.9421 513.653 60.3916 513.653 59.0316C513.653 57.4935 514.932 56.4897 516.697 56.4897C517.781 56.4897 518.898 56.8621 519.789 57.4611L519.125 58.5944C518.299 58.0763 517.457 57.7849 516.697 57.7849C515.855 57.7849 515.175 58.1573 515.175 58.8535C515.175 59.5011 515.741 59.6954 517.166 60.1325C518.542 60.5373 519.999 60.9906 519.999 62.6583C519.999 64.2449 518.672 65.2487 516.826 65.2487Z" fill="#E3EAED"/>
</g>
<path d="M668.904 61.0543L673.378 56.5803C673.561 56.3662 673.549 56.047 673.349 55.8477C673.15 55.6483 672.831 55.636 672.617 55.8194L668.143 60.2934L663.669 55.814C663.457 55.6024 663.114 55.6024 662.903 55.814C662.691 56.0256 662.691 56.3687 662.903 56.5803L667.382 61.0543L662.903 65.5283C662.749 65.6602 662.681 65.8673 662.729 66.0644C662.776 66.2616 662.93 66.4155 663.127 66.4629C663.324 66.5103 663.532 66.4432 663.663 66.2892L668.143 61.8153L672.617 66.2892C672.831 66.4726 673.15 66.4603 673.349 66.2609C673.549 66.0616 673.561 65.7424 673.378 65.5283L668.904 61.0543Z" fill="#CBD4D8"/>
<rect x="424.805" y="93.4467" width="9.87916" height="9.87916" rx="2.30514" stroke="#CBD4D8" stroke-width="0.658611" stroke-linecap="square"/>
<path d="M441.216 101.117V95.2354H441.884L445.531 100.022V95.2354H446.199V101.117H445.531L441.884 96.3313V101.117H441.216ZM449.71 101.22C448.452 101.22 447.424 100.176 447.424 98.8999C447.424 97.6242 448.452 96.5882 449.71 96.5882C450.96 96.5882 451.988 97.6242 451.988 98.8999C451.988 100.176 450.96 101.22 449.71 101.22ZM449.71 100.647C450.592 100.647 451.32 99.8588 451.32 98.8999C451.32 97.941 450.592 97.1618 449.71 97.1618C448.82 97.1618 448.092 97.941 448.092 98.8999C448.092 99.8588 448.82 100.647 449.71 100.647ZM453.67 97.5557C453.936 96.9649 454.569 96.5882 455.383 96.5882V97.1618C454.381 97.1618 453.67 97.7783 453.67 98.643V101.117H453.028V96.6909H453.67V97.5557ZM461.143 96.5882C462.068 96.5882 462.718 97.2988 462.718 98.3006V101.117H462.076V98.3862C462.076 97.667 461.657 97.1618 461.057 97.1618C460.355 97.1618 459.859 97.6327 459.859 98.3006V101.117H459.217V98.3862C459.217 97.667 458.797 97.1618 458.198 97.1618C457.496 97.1618 456.999 97.6327 456.999 98.3006V101.117H456.357V96.6909H456.999V97.3416C457.222 96.8793 457.701 96.5882 458.283 96.5882C458.985 96.5882 459.533 96.9991 459.756 97.6413C459.893 97.0163 460.441 96.5882 461.143 96.5882ZM465.626 96.5882C466.833 96.5882 467.424 97.3502 467.424 98.4204V101.117H466.782V100.424C466.465 100.946 465.806 101.22 465.223 101.22C464.29 101.22 463.605 100.681 463.605 99.8075C463.605 98.9256 464.393 98.3348 465.343 98.3348C465.823 98.3348 466.328 98.4375 466.782 98.5831V98.4204C466.782 97.8211 466.542 97.1361 465.583 97.1361C465.138 97.1361 464.693 97.3331 464.29 97.5385L464.033 97.0163C464.667 96.6995 465.198 96.5882 465.626 96.5882ZM465.335 100.655C465.917 100.655 466.611 100.355 466.782 99.7304V99.054C466.379 98.9427 465.926 98.8742 465.446 98.8742C464.787 98.8742 464.23 99.2509 464.23 99.7818C464.23 100.33 464.71 100.655 465.335 100.655ZM468.742 101.117V95.1326H469.384V101.117H468.742Z" fill="#E3EAED"/>
<mask id="path-37-inside-6_10150_3864" fill="white">
<path d="M486.276 90.6174H546.868V106.617H486.276V90.6174Z"/>
</mask>
<path d="M546.868 105.959H486.276V107.276H546.868V105.959Z" fill="#CBD4D8" mask="url(#path-37-inside-6_10150_3864)"/>
<path d="M493.445 97.6293C492.632 97.6293 492.084 96.97 492.084 96.1738C492.084 95.3262 492.657 94.684 493.454 94.684C494.267 94.684 494.815 95.3433 494.815 96.1567C494.815 96.9872 494.25 97.6293 493.445 97.6293ZM492.803 100.617L496.827 94.7354H497.478L493.454 100.617H492.803ZM493.454 97.167C493.933 97.167 494.276 96.7389 494.276 96.1652C494.276 95.583 493.925 95.1464 493.445 95.1464C492.966 95.1464 492.623 95.5745 492.623 96.1652C492.623 96.7303 492.983 97.167 493.454 97.167ZM496.801 100.703C496.014 100.703 495.44 100.069 495.44 99.2304C495.44 98.4256 495.997 97.7577 496.81 97.7577C497.623 97.7577 498.171 98.4256 498.171 99.2218C498.171 100.061 497.598 100.703 496.801 100.703ZM496.81 100.241C497.298 100.241 497.632 99.8126 497.632 99.2304C497.632 98.6567 497.281 98.2201 496.801 98.2201C496.313 98.2201 495.98 98.6653 495.98 99.2218C495.98 99.804 496.322 100.241 496.81 100.241Z" fill="#ACB8BE"/>
<path d="M539.702 97.2946L536.33 100.784L532.958 97.2946C532.767 97.0966 532.773 96.7814 532.971 96.5907C533.169 96.3999 533.484 96.4058 533.675 96.6038L536.33 99.3524L538.988 96.6038C539.178 96.4058 539.494 96.3999 539.692 96.5907C539.89 96.7814 539.896 97.0966 539.705 97.2946H539.702Z" fill="#CBD4D8"/>
<rect x="424.805" y="125.522" width="9.87916" height="9.87916" rx="2.30514" stroke="#CBD4D8" stroke-width="0.658611" stroke-linecap="square"/>
<path d="M445.437 127.945H441.892V129.88H445.086V130.513H441.892V133.193H441.216V127.311H445.437V127.945ZM446.755 127.962C446.516 127.962 446.327 127.765 446.327 127.534C446.327 127.311 446.516 127.114 446.755 127.114C446.987 127.114 447.175 127.311 447.175 127.534C447.175 127.765 446.987 127.962 446.755 127.962ZM446.43 133.193V128.766H447.072V133.193H446.43ZM449.138 129.631C449.404 129.04 450.037 128.664 450.851 128.664V129.237C449.849 129.237 449.138 129.854 449.138 130.719V133.193H448.496V128.766H449.138V129.631ZM453.692 132.722C454.214 132.722 454.813 132.491 455.087 132.191L455.481 132.611C455.096 133.03 454.317 133.296 453.7 133.296C452.519 133.296 451.457 132.328 451.457 130.967C451.457 129.648 452.45 128.664 453.64 128.664C454.976 128.664 455.738 129.674 455.738 131.224H452.116C452.21 132.089 452.818 132.722 453.692 132.722ZM453.666 129.237C452.878 129.237 452.245 129.794 452.125 130.65H455.104C455.019 129.854 454.548 129.237 453.666 129.237Z" fill="#E3EAED"/>
<mask id="path-43-inside-7_10150_3864" fill="white">
<path d="M486.276 122.693H546.868V138.693H486.276V122.693Z"/>
</mask>
<path d="M546.868 138.034H486.276V139.352H546.868V138.034Z" fill="#CBD4D8" mask="url(#path-43-inside-7_10150_3864)"/>
<path d="M493.445 129.705C492.632 129.705 492.084 129.046 492.084 128.249C492.084 127.402 492.657 126.76 493.454 126.76C494.267 126.76 494.815 127.419 494.815 128.232C494.815 129.063 494.25 129.705 493.445 129.705ZM492.803 132.693L496.827 126.811H497.478L493.454 132.693H492.803ZM493.454 129.243C493.933 129.243 494.276 128.814 494.276 128.241C494.276 127.659 493.925 127.222 493.445 127.222C492.966 127.222 492.623 127.65 492.623 128.241C492.623 128.806 492.983 129.243 493.454 129.243ZM496.801 132.779C496.014 132.779 495.44 132.145 495.44 131.306C495.44 130.501 495.997 129.833 496.81 129.833C497.623 129.833 498.171 130.501 498.171 131.297C498.171 132.136 497.598 132.779 496.801 132.779ZM496.81 132.316C497.298 132.316 497.632 131.888 497.632 131.306C497.632 130.732 497.281 130.296 496.801 130.296C496.313 130.296 495.98 130.741 495.98 131.297C495.98 131.88 496.322 132.316 496.81 132.316Z" fill="#ACB8BE"/>
<path d="M539.702 129.37L536.33 132.859L532.958 129.37C532.767 129.172 532.773 128.857 532.971 128.666C533.169 128.475 533.484 128.481 533.675 128.679L536.33 131.428L538.988 128.679C539.178 128.481 539.494 128.475 539.692 128.666C539.89 128.857 539.896 129.172 539.705 129.37H539.702Z" fill="#CBD4D8"/>
<rect x="424.805" y="157.598" width="9.87916" height="9.87916" rx="2.30514" stroke="#CBD4D8" stroke-width="0.658611" stroke-linecap="square"/>
<path d="M442.552 165.269L440.54 159.387H441.293L442.92 164.147L444.478 159.387H445.223L446.781 164.147L448.408 159.387H449.161L447.149 165.269H446.49L444.855 160.26L443.211 165.269H442.552ZM451.685 160.739C452.892 160.739 453.483 161.501 453.483 162.572V165.269H452.84V164.575C452.524 165.097 451.864 165.371 451.282 165.371C450.349 165.371 449.664 164.832 449.664 163.959C449.664 163.077 450.452 162.486 451.402 162.486C451.881 162.486 452.387 162.589 452.84 162.734V162.572C452.84 161.972 452.601 161.287 451.642 161.287C451.197 161.287 450.751 161.484 450.349 161.69L450.092 161.167C450.726 160.851 451.256 160.739 451.685 160.739ZM451.393 164.806C451.976 164.806 452.669 164.507 452.84 163.882V163.205C452.438 163.094 451.984 163.025 451.505 163.025C450.845 163.025 450.289 163.402 450.289 163.933C450.289 164.481 450.768 164.806 451.393 164.806ZM456.513 164.618L456.83 165.089C456.599 165.269 456.308 165.371 456.008 165.371C455.374 165.371 454.929 164.9 454.929 164.241V161.416H454.236V160.842H454.929V159.626H455.571V160.842H456.659V161.416H455.571V164.241C455.571 164.566 455.794 164.798 456.051 164.798C456.248 164.798 456.419 164.721 456.513 164.618ZM459.553 164.798C460.075 164.798 460.674 164.566 460.948 164.267L461.342 164.686C460.957 165.106 460.178 165.371 459.561 165.371C458.38 165.371 457.318 164.404 457.318 163.042C457.318 161.724 458.311 160.739 459.501 160.739C460.837 160.739 461.599 161.75 461.599 163.299H457.977C458.072 164.164 458.68 164.798 459.553 164.798ZM459.527 161.313C458.739 161.313 458.106 161.869 457.986 162.726H460.966C460.88 161.929 460.409 161.313 459.527 161.313ZM463.254 161.707C463.52 161.116 464.153 160.739 464.967 160.739V161.313C463.965 161.313 463.254 161.929 463.254 162.794V165.269H462.612V160.842H463.254V161.707Z" fill="#E3EAED"/>
<mask id="path-49-inside-8_10150_3864" fill="white">
<path d="M486.276 154.769H546.868V170.769H486.276V154.769Z"/>
</mask>
<path d="M546.868 170.11H486.276V171.427H546.868V170.11Z" fill="#CBD4D8" mask="url(#path-49-inside-8_10150_3864)"/>
<path d="M493.445 161.78C492.632 161.78 492.084 161.121 492.084 160.325C492.084 159.477 492.657 158.835 493.454 158.835C494.267 158.835 494.815 159.494 494.815 160.308C494.815 161.138 494.25 161.78 493.445 161.78ZM492.803 164.769L496.827 158.887H497.478L493.454 164.769H492.803ZM493.454 161.318C493.933 161.318 494.276 160.89 494.276 160.316C494.276 159.734 493.925 159.297 493.445 159.297C492.966 159.297 492.623 159.726 492.623 160.316C492.623 160.881 492.983 161.318 493.454 161.318ZM496.801 164.854C496.014 164.854 495.44 164.221 495.44 163.382C495.44 162.577 495.997 161.909 496.81 161.909C497.623 161.909 498.171 162.577 498.171 163.373C498.171 164.212 497.598 164.854 496.801 164.854ZM496.81 164.392C497.298 164.392 497.632 163.964 497.632 163.382C497.632 162.808 497.281 162.371 496.801 162.371C496.313 162.371 495.98 162.816 495.98 163.373C495.98 163.955 496.322 164.392 496.81 164.392Z" fill="#ACB8BE"/>
<path d="M539.702 161.446L536.33 164.935L532.958 161.446C532.767 161.248 532.773 160.933 532.971 160.742C533.169 160.551 533.484 160.557 533.675 160.755L536.33 163.504L538.988 160.755C539.178 160.557 539.494 160.551 539.692 160.742C539.89 160.933 539.896 161.248 539.705 161.446H539.702Z" fill="#CBD4D8"/>
<rect x="424.805" y="189.673" width="9.87916" height="9.87916" rx="2.30514" stroke="#CBD4D8" stroke-width="0.658611" stroke-linecap="square"/>
<path d="M445.437 192.096H441.892V194.031H445.086V194.664H441.892V196.71H445.437V197.344H441.216V191.462H445.437V192.096ZM446.597 197.344V191.359H447.239V197.344H446.597ZM450.53 196.873C451.052 196.873 451.652 196.642 451.926 196.342L452.319 196.762C451.934 197.181 451.155 197.447 450.539 197.447C449.357 197.447 448.295 196.479 448.295 195.118C448.295 193.799 449.289 192.815 450.479 192.815C451.814 192.815 452.576 193.825 452.576 195.375H448.955C449.049 196.24 449.657 196.873 450.53 196.873ZM450.504 193.388C449.717 193.388 449.083 193.945 448.963 194.801H451.943C451.857 194.005 451.386 193.388 450.504 193.388ZM455.49 197.447C454.249 197.447 453.195 196.385 453.195 195.126C453.195 193.868 454.249 192.815 455.49 192.815C456.089 192.815 456.646 193.063 457.065 193.465L456.62 193.902C456.329 193.585 455.927 193.388 455.49 193.388C454.608 193.388 453.872 194.185 453.872 195.126C453.872 196.077 454.608 196.873 455.49 196.873C455.935 196.873 456.346 196.668 456.646 196.334L457.091 196.77C456.672 197.19 456.107 197.447 455.49 197.447ZM459.676 196.693L459.992 197.164C459.761 197.344 459.47 197.447 459.171 197.447C458.537 197.447 458.092 196.976 458.092 196.317V193.491H457.398V192.917H458.092V191.702H458.734V192.917H459.821V193.491H458.734V196.317C458.734 196.642 458.956 196.873 459.213 196.873C459.41 196.873 459.581 196.796 459.676 196.693ZM461.491 193.782C461.757 193.191 462.39 192.815 463.203 192.815V193.388C462.202 193.388 461.491 194.005 461.491 194.87V197.344H460.849V192.917H461.491V193.782ZM464.503 192.113C464.263 192.113 464.075 191.916 464.075 191.685C464.075 191.462 464.263 191.265 464.503 191.265C464.734 191.265 464.923 191.462 464.923 191.685C464.923 191.916 464.734 192.113 464.503 192.113ZM464.178 197.344V192.917H464.82V197.344H464.178ZM468.145 197.447C466.903 197.447 465.85 196.385 465.85 195.126C465.85 193.868 466.903 192.815 468.145 192.815C468.744 192.815 469.301 193.063 469.72 193.465L469.275 193.902C468.984 193.585 468.581 193.388 468.145 193.388C467.263 193.388 466.527 194.185 466.527 195.126C466.527 196.077 467.263 196.873 468.145 196.873C468.59 196.873 469.001 196.668 469.301 196.334L469.746 196.77C469.326 197.19 468.761 197.447 468.145 197.447Z" fill="#E3EAED"/>
<mask id="path-55-inside-9_10150_3864" fill="white">
<path d="M486.276 186.844H546.868V202.844H486.276V186.844Z"/>
</mask>
<path d="M546.868 202.185H486.276V203.503H546.868V202.185Z" fill="#CBD4D8" mask="url(#path-55-inside-9_10150_3864)"/>
<path d="M493.445 193.856C492.632 193.856 492.084 193.197 492.084 192.4C492.084 191.553 492.657 190.911 493.454 190.911C494.267 190.911 494.815 191.57 494.815 192.383C494.815 193.214 494.25 193.856 493.445 193.856ZM492.803 196.844L496.827 190.962H497.478L493.454 196.844H492.803ZM493.454 193.394C493.933 193.394 494.276 192.965 494.276 192.392C494.276 191.81 493.925 191.373 493.445 191.373C492.966 191.373 492.623 191.801 492.623 192.392C492.623 192.957 492.983 193.394 493.454 193.394ZM496.801 196.93C496.014 196.93 495.44 196.296 495.44 195.457C495.44 194.652 495.997 193.984 496.81 193.984C497.623 193.984 498.171 194.652 498.171 195.448C498.171 196.287 497.598 196.93 496.801 196.93ZM496.81 196.467C497.298 196.467 497.632 196.039 497.632 195.457C497.632 194.883 497.281 194.447 496.801 194.447C496.313 194.447 495.98 194.892 495.98 195.448C495.98 196.031 496.322 196.467 496.81 196.467Z" fill="#ACB8BE"/>
<path d="M539.702 193.521L536.33 197.01L532.958 193.521C532.767 193.323 532.773 193.008 532.971 192.817C533.169 192.626 533.484 192.632 533.675 192.83L536.33 195.579L538.988 192.83C539.178 192.632 539.494 192.626 539.692 192.817C539.89 193.008 539.896 193.323 539.705 193.521H539.702Z" fill="#CBD4D8"/>
<rect x="424.805" y="221.749" width="9.87916" height="9.87916" rx="2.30514" stroke="#CBD4D8" stroke-width="0.658611" stroke-linecap="square"/>
<path d="M443.707 226.954V226.32H446.062V228.623C445.514 229.171 444.589 229.522 443.776 229.522C442.149 229.522 440.762 228.127 440.762 226.474C440.762 224.822 442.149 223.435 443.776 223.435C444.589 223.435 445.514 223.777 446.062 224.334L445.608 224.796C445.18 224.342 444.418 224.051 443.776 224.051C442.509 224.051 441.439 225.164 441.439 226.474C441.439 227.793 442.509 228.906 443.776 228.906C444.324 228.906 444.958 228.692 445.394 228.358V226.954H443.707ZM448.025 225.858C448.291 225.267 448.924 224.89 449.738 224.89V225.464C448.736 225.464 448.025 226.08 448.025 226.945V229.42H447.383V224.993H448.025V225.858ZM452.296 224.89C453.503 224.89 454.094 225.652 454.094 226.723V229.42H453.452V228.726C453.135 229.248 452.476 229.522 451.894 229.522C450.96 229.522 450.275 228.983 450.275 228.11C450.275 227.228 451.063 226.637 452.013 226.637C452.493 226.637 452.998 226.74 453.452 226.885V226.723C453.452 226.123 453.212 225.438 452.253 225.438C451.808 225.438 451.363 225.635 450.96 225.841L450.703 225.318C451.337 225.002 451.868 224.89 452.296 224.89ZM452.005 228.957C452.587 228.957 453.281 228.658 453.452 228.033V227.356C453.049 227.245 452.596 227.176 452.116 227.176C451.457 227.176 450.9 227.553 450.9 228.084C450.9 228.632 451.38 228.957 452.005 228.957ZM456.782 229.522C456.166 229.522 455.481 229.291 454.95 228.863L455.284 228.392C455.789 228.76 456.294 228.949 456.782 228.949C457.364 228.949 457.758 228.675 457.758 228.255C457.758 227.776 457.244 227.622 456.645 227.45C455.575 227.142 455.164 226.825 455.164 226.192C455.164 225.387 455.832 224.89 456.713 224.89C457.261 224.89 457.827 225.079 458.297 225.387L457.989 225.883C457.544 225.601 457.107 225.464 456.713 225.464C456.217 225.464 455.806 225.687 455.806 226.115C455.806 226.5 456.131 226.62 456.953 226.885C457.664 227.108 458.4 227.348 458.4 228.187C458.4 229 457.698 229.522 456.782 229.522ZM460.805 229.522C460.188 229.522 459.503 229.291 458.973 228.863L459.306 228.392C459.812 228.76 460.317 228.949 460.805 228.949C461.387 228.949 461.781 228.675 461.781 228.255C461.781 227.776 461.267 227.622 460.668 227.45C459.598 227.142 459.187 226.825 459.187 226.192C459.187 225.387 459.854 224.89 460.736 224.89C461.284 224.89 461.849 225.079 462.32 225.387L462.012 225.883C461.567 225.601 461.13 225.464 460.736 225.464C460.24 225.464 459.829 225.687 459.829 226.115C459.829 226.5 460.154 226.62 460.976 226.885C461.687 227.108 462.423 227.348 462.423 228.187C462.423 229 461.721 229.522 460.805 229.522Z" fill="#E3EAED"/>
<mask id="path-61-inside-10_10150_3864" fill="white">
<path d="M486.276 218.92H546.868V234.92H486.276V218.92Z"/>
</mask>
<path d="M546.868 234.261H486.276V235.578H546.868V234.261Z" fill="#CBD4D8" mask="url(#path-61-inside-10_10150_3864)"/>
<path d="M493.445 225.931C492.632 225.931 492.084 225.272 492.084 224.476C492.084 223.628 492.657 222.986 493.454 222.986C494.267 222.986 494.815 223.645 494.815 224.459C494.815 225.289 494.25 225.931 493.445 225.931ZM492.803 228.92L496.827 223.038H497.478L493.454 228.92H492.803ZM493.454 225.469C493.933 225.469 494.276 225.041 494.276 224.467C494.276 223.885 493.925 223.448 493.445 223.448C492.966 223.448 492.623 223.877 492.623 224.467C492.623 225.032 492.983 225.469 493.454 225.469ZM496.801 229.005C496.014 229.005 495.44 228.372 495.44 227.533C495.44 226.728 495.997 226.06 496.81 226.06C497.623 226.06 498.171 226.728 498.171 227.524C498.171 228.363 497.598 229.005 496.801 229.005ZM496.81 228.543C497.298 228.543 497.632 228.115 497.632 227.533C497.632 226.959 497.281 226.522 496.801 226.522C496.313 226.522 495.98 226.967 495.98 227.524C495.98 228.106 496.322 228.543 496.81 228.543Z" fill="#ACB8BE"/>
<path d="M539.702 225.597L536.33 229.086L532.958 225.597C532.767 225.399 532.773 225.084 532.971 224.893C533.169 224.702 533.484 224.708 533.675 224.906L536.33 227.655L538.988 224.906C539.178 224.708 539.494 224.702 539.692 224.893C539.89 225.084 539.896 225.399 539.705 225.597H539.702Z" fill="#CBD4D8"/>
<path d="M502.911 345.283C501.017 345.283 499.414 343.7 499.414 341.825C499.414 339.95 501.017 338.376 502.911 338.376C503.892 338.376 504.796 338.794 505.437 339.455L504.572 340.261C504.155 339.785 503.562 339.484 502.911 339.484C501.687 339.484 500.648 340.552 500.648 341.825C500.648 343.107 501.687 344.176 502.911 344.176C503.562 344.176 504.155 343.875 504.582 343.399L505.437 344.195C504.796 344.865 503.892 345.283 502.911 345.283ZM512.406 345.167L511.882 343.904H508.696L508.171 345.167H506.821L509.609 338.493H510.959L513.747 345.167H512.406ZM509.113 342.913H511.464L510.289 340.105L509.113 342.913ZM515.719 345.167V338.493H516.924L520.45 343.185V338.493H521.655V345.167H520.45L516.924 340.475V345.167H515.719ZM527.368 345.283C525.474 345.283 523.871 343.7 523.871 341.825C523.871 339.95 525.474 338.376 527.368 338.376C528.349 338.376 529.252 338.794 529.894 339.455L529.029 340.261C528.611 339.785 528.019 339.484 527.368 339.484C526.144 339.484 525.104 340.552 525.104 341.825C525.104 343.107 526.144 344.176 527.368 344.176C528.019 344.176 528.611 343.875 529.039 343.399L529.894 344.195C529.252 344.865 528.349 345.283 527.368 345.283ZM536.979 339.6H533.171V341.213H536.61V342.32H533.171V344.059H536.979V345.167H531.957V338.493H536.979V339.6ZM540.46 344.059H543.889V345.167H539.256V338.493H540.46V344.059Z" fill="#2EC0FF"/>
<path d="M564.119 331.333C564.119 329.769 565.388 328.5 566.952 328.5H611.905C613.47 328.5 614.738 329.769 614.738 331.333V354C614.738 355.565 613.47 356.833 611.905 356.833H566.952C565.388 356.833 564.119 355.565 564.119 354V331.333Z" stroke="#2EC0FF" stroke-width="0.809524"/>
<path d="M574.352 345.167V338.493H577.625C578.781 338.493 579.588 339.192 579.588 340.164C579.588 340.844 579.238 341.32 578.645 341.64C579.413 342.009 579.869 342.621 579.869 343.35C579.869 344.419 578.985 345.167 577.742 345.167H574.352ZM575.556 341.223H577.324C577.917 341.223 578.344 340.873 578.344 340.387C578.344 339.892 577.917 339.542 577.324 339.542H575.556V341.223ZM575.556 344.117H577.509C578.16 344.117 578.626 343.719 578.626 343.165C578.626 342.612 578.16 342.213 577.509 342.213H575.556V344.117ZM587.011 345.167L586.486 343.904H583.3L582.776 345.167H581.425L584.213 338.493H585.564L588.352 345.167H587.011ZM583.718 342.913H586.069L584.893 340.105L583.718 342.913ZM593.384 345.283C591.49 345.283 589.887 343.7 589.887 341.825C589.887 339.95 591.49 338.376 593.384 338.376C594.365 338.376 595.268 338.794 595.91 339.455L595.045 340.261C594.627 339.785 594.035 339.484 593.384 339.484C592.16 339.484 591.12 340.552 591.12 341.825C591.12 343.107 592.16 344.176 593.384 344.176C594.035 344.176 594.627 343.875 595.055 343.399L595.91 344.195C595.268 344.865 594.365 345.283 593.384 345.283ZM597.973 345.167V338.493H599.178V341.757L602.102 338.493H603.598L600.926 341.436L603.782 345.167H602.296L600.081 342.291L599.178 343.263V345.167H597.973Z" fill="#2EC0FF"/>
<path d="M628.095 331.333C628.095 329.545 629.545 328.095 631.333 328.095H675.286C677.074 328.095 678.524 329.545 678.524 331.333V354C678.524 355.788 677.074 357.238 675.286 357.238H631.333C629.545 357.238 628.095 355.788 628.095 354V331.333Z" fill="#2EC0FF"/>
<path d="M638.732 345.167V338.493H639.937L643.463 343.185V338.493H644.668V345.167H643.463L639.937 340.475V345.167H638.732ZM652.343 339.6H648.535V341.213H651.974V342.32H648.535V344.059H652.343V345.167H647.321V338.493H652.343V339.6ZM660.351 338.493L657.874 341.825L660.351 345.167H658.913L657.155 342.796L655.387 345.167H653.968L656.446 341.835L653.968 338.493H655.406L657.164 340.863L658.932 338.493H660.351ZM663.85 345.167V339.6H661.713V338.493H667.192V339.6H665.064V345.167H663.85Z" fill="black"/>
</g>
<rect x="231.405" y="32.0306" width="465.476" height="344.048" rx="2.83333" stroke="black" stroke-width="0.809524"/>
</g>
</g>
</g>
<rect x="0.404762" y="0.404762" width="927.19" height="407.19" rx="3.59524" stroke="#4F6169" stroke-width="0.809524"/>
<defs>
<filter id="filter0_d_10150_3864" x="227" y="31" width="474.286" height="354" filterUnits="userSpaceOnUse" color-interpolation-filters="sRGB">
<feFlood flood-opacity="0" result="BackgroundImageFix"/>
<feColorMatrix in="SourceAlpha" type="matrix" values="0 0 0 0 0 0 0 0 0 0 0 0 0 0 0 0 0 0 127 0" result="hardAlpha"/>
<feOffset dy="4"/>
<feGaussianBlur stdDeviation="2"/>
<feComposite in2="hardAlpha" operator="out"/>
<feColorMatrix type="matrix" values="0 0 0 0 0 0 0 0 0 0 0 0 0 0 0 0 0 0 0.6 0"/>
<feBlend mode="normal" in2="BackgroundImageFix" result="effect1_dropShadow_10150_3864"/>
<feBlend mode="normal" in="SourceGraphic" in2="effect1_dropShadow_10150_3864" result="shape"/>
</filter>
<filter id="filter1_d_10150_3864" x="227" y="28.4354" width="474.286" height="352.857" filterUnits="userSpaceOnUse" color-interpolation-filters="sRGB">
<feFlood flood-opacity="0" result="BackgroundImageFix"/>
<feColorMatrix in="SourceAlpha" type="matrix" values="0 0 0 0 0 0 0 0 0 0 0 0 0 0 0 0 0 0 127 0" result="hardAlpha"/>
<feOffset dy="0.809524"/>
<feGaussianBlur stdDeviation="2"/>
<feColorMatrix type="matrix" values="0 0 0 0 0 0 0 0 0 0 0 0 0 0 0 0 0 0 0.2 0"/>
<feBlend mode="normal" in2="BackgroundImageFix" result="effect1_dropShadow_10150_3864"/>
<feBlend mode="normal" in="SourceGraphic" in2="effect1_dropShadow_10150_3864" result="shape"/>
</filter>
<clipPath id="clip0_10150_3864">
<rect width="928" height="408" rx="4" fill="white"/>
</clipPath>
<clipPath id="clip1_10150_3864">
<rect x="231" y="31.6259" width="466.286" height="344.857" rx="3.2381" fill="white"/>
</clipPath>
<clipPath id="clip2_10150_3864">
<rect width="174.048" height="344.857" fill="white" transform="translate(231 31.6259)"/>
</clipPath>
<clipPath id="clip3_10150_3864">
<rect width="178.905" height="58.8571" fill="white" transform="translate(250.428 31.6259)"/>
</clipPath>
<clipPath id="clip4_10150_3864">
<path d="M250.428 210.292H404.428V249.15H250.428V210.292Z" fill="white"/>
</clipPath>
<clipPath id="clip5_10150_3864">
<path d="M250.428 249.959H404.428V288.816H250.428V249.959Z" fill="white"/>
</clipPath>
<clipPath id="clip6_10150_3864">
<rect width="178.905" height="58.8571" fill="white" transform="translate(424.476 31.6259)"/>
</clipPath>
</defs>
</svg>
