<svg width="928" height="408" viewBox="0 0 928 408" fill="none" xmlns="http://www.w3.org/2000/svg">
<g clip-path="url(#clip0_10150_3806)">
<rect width="928" height="408" rx="4" fill="#1B2B32"/>
<rect width="928" height="35" fill="black"/>
<path opacity="0.3" d="M928 0H0V408H928V0Z" fill="black"/>
<g filter="url(#filter0_d_10150_3806)">
<g clip-path="url(#clip1_10150_3806)">
<rect x="231" y="31.6256" width="466.286" height="344.857" rx="3.2381" fill="#22343C"/>
<g clip-path="url(#clip2_10150_3806)">
<rect width="174.048" height="344.857" transform="translate(231 31.6256)" fill="#1B2B32"/>
<g clip-path="url(#clip3_10150_3806)">
<rect width="178.905" height="58.8571" transform="translate(250.428 31.6256)" fill="#1B2B32"/>
<path d="M252.08 65.0542V53.9313H253.715L260.094 62.3666V53.9313H261.746V65.0542H260.094L253.715 56.619V65.0542H252.08ZM268.17 63.9209C269.077 63.9209 270.129 63.5161 270.647 62.9656L271.586 63.9532C270.858 64.7466 269.384 65.2485 268.202 65.2485C265.887 65.2485 263.88 63.419 263.88 60.8447C263.88 58.3352 265.774 56.4894 268.089 56.4894C270.647 56.4894 272.137 58.3999 272.137 61.379H265.45C265.644 62.8523 266.681 63.9209 268.17 63.9209ZM268.121 57.8171C266.778 57.8171 265.709 58.7561 265.466 60.1971H270.582C270.421 58.8532 269.579 57.8171 268.121 57.8171ZM275.617 65.0542L272.8 56.6837H274.435L276.345 62.9171L278.418 56.6837H279.778L281.85 62.9171L283.777 56.6837H285.412L282.579 65.0542H281.105L279.114 58.8371L277.09 65.0542H275.617ZM291.418 65.0542V53.9313H296.097C298.429 53.9313 300.226 55.4371 300.226 57.558C300.226 59.679 298.429 61.1847 296.097 61.1847H293.054V65.0542H291.418ZM293.054 59.6628H295.855C297.457 59.6628 298.558 58.8694 298.558 57.558C298.558 56.2466 297.457 55.4532 295.855 55.4532H293.054V59.6628ZM305.787 65.2485C303.375 65.2485 301.383 63.2732 301.383 60.8609C301.383 58.4485 303.375 56.4894 305.787 56.4894C308.199 56.4894 310.191 58.4485 310.191 60.8609C310.191 63.2732 308.199 65.2485 305.787 65.2485ZM305.787 63.8561C307.325 63.8561 308.588 62.5123 308.588 60.8609C308.588 59.2094 307.325 57.8818 305.787 57.8818C304.249 57.8818 302.986 59.2094 302.986 60.8609C302.986 62.5123 304.249 63.8561 305.787 63.8561ZM311.973 65.0542V53.7371H313.576V60.9742L317.672 56.6837H319.615L316.004 60.4723L319.453 65.0542H317.542L314.92 61.5409L313.576 62.9009V65.0542H311.973ZM327.394 53.6561L325.063 55.7285H323.913L325.84 53.3323L327.394 53.6561ZM324.577 63.9209C325.483 63.9209 326.536 63.5161 327.054 62.9656L327.993 63.9532C327.264 64.7466 325.791 65.2485 324.609 65.2485C322.294 65.2485 320.286 63.419 320.286 60.8447C320.286 58.3352 322.181 56.4894 324.496 56.4894C327.054 56.4894 328.543 58.3999 328.543 61.379H321.857C322.051 62.8523 323.087 63.9209 324.577 63.9209ZM324.528 57.8171C323.184 57.8171 322.116 58.7561 321.873 60.1971H326.989C326.827 58.8532 325.985 57.8171 324.528 57.8171ZM339.633 56.4894C341.381 56.4894 342.644 57.8332 342.644 59.7275V65.0542H341.09V59.9704C341.09 58.7399 340.345 57.8818 339.309 57.8818C338.111 57.8818 337.253 58.6752 337.253 59.8247V65.0542H335.682V59.9704C335.682 58.7399 334.954 57.8818 333.918 57.8818C332.703 57.8818 331.861 58.6752 331.861 59.8247V65.0542H330.259V56.6837H331.861V57.8818C332.282 57.0237 333.157 56.4894 334.241 56.4894C335.569 56.4894 336.621 57.2666 337.042 58.4809C337.301 57.299 338.321 56.4894 339.633 56.4894ZM348.651 65.2485C346.239 65.2485 344.247 63.2732 344.247 60.8609C344.247 58.4485 346.239 56.4894 348.651 56.4894C351.064 56.4894 353.055 58.4485 353.055 60.8609C353.055 63.2732 351.064 65.2485 348.651 65.2485ZM348.651 63.8561C350.189 63.8561 351.452 62.5123 351.452 60.8609C351.452 59.2094 350.189 57.8818 348.651 57.8818C347.113 57.8818 345.85 59.2094 345.85 60.8609C345.85 62.5123 347.113 63.8561 348.651 63.8561ZM359.111 56.4894C360.957 56.4894 362.236 57.8009 362.236 59.7275V65.0542H360.682V60.0028C360.682 58.7399 359.889 57.8818 358.755 57.8818C357.476 57.8818 356.44 58.7561 356.44 59.8571V65.0542H354.837V56.6837H356.44V57.9142C356.926 57.0723 357.962 56.4894 359.111 56.4894Z" fill="#E3EAED"/>
</g>
<mask id="path-8-inside-1_10150_3806" fill="white">
<path d="M250.428 91.2922H404.428V130.149H250.428V91.2922Z"/>
</mask>
<path d="M250.428 91.2922H404.428V130.149H250.428V91.2922Z" fill="#1B2B32"/>
<path d="M253.667 130.149V91.2922H247.19V130.149H253.667Z" fill="#67CA16" mask="url(#path-8-inside-1_10150_3806)"/>
<path fill-rule="evenodd" clip-rule="evenodd" d="M266.619 104.964C263.44 104.964 260.862 107.542 260.862 110.721C260.862 113.9 263.44 116.477 266.619 116.477C269.798 116.477 272.376 113.9 272.376 110.721C272.376 109.194 271.769 107.73 270.689 106.65C269.61 105.571 268.146 104.964 266.619 104.964ZM266.619 115.758C263.837 115.758 261.582 113.503 261.582 110.721C261.582 107.939 263.837 105.684 266.619 105.684C269.401 105.684 271.656 107.939 271.656 110.721C271.656 112.057 271.125 113.338 270.181 114.283C269.236 115.227 267.955 115.758 266.619 115.758ZM269.71 108.598C269.85 108.459 270.076 108.459 270.217 108.598C270.285 108.666 270.323 108.758 270.323 108.854C270.323 108.949 270.285 109.041 270.217 109.109L265.716 113.599L263.021 110.912C262.884 110.763 262.893 110.532 263.041 110.395C263.189 110.258 263.42 110.267 263.557 110.415L265.716 112.574L269.71 108.598Z" fill="#67CA16"/>
<path d="M282.318 107.795L280.969 108.656L280.493 107.829L282.544 106.435H283.462V114.221H282.318V107.795Z" fill="#CBD4D8"/>
<path d="M300.156 105.435H303.85C304.281 105.435 304.663 105.518 304.995 105.684C305.328 105.85 305.588 106.081 305.777 106.375C305.966 106.67 306.06 107.003 306.06 107.373C306.06 107.766 305.966 108.102 305.777 108.381C305.596 108.653 305.324 108.891 304.961 109.095C305.414 109.322 305.762 109.609 306.004 109.957C306.253 110.297 306.378 110.678 306.378 111.101C306.378 111.509 306.276 111.876 306.072 112.201C305.868 112.518 305.584 112.767 305.222 112.949C304.859 113.13 304.447 113.221 303.986 113.221H300.156V105.435ZM303.556 108.676C303.949 108.676 304.27 108.574 304.519 108.37C304.768 108.159 304.893 107.89 304.893 107.565C304.893 107.241 304.768 106.972 304.519 106.761C304.27 106.549 303.949 106.443 303.556 106.443H301.3V108.676H303.556ZM303.737 112.212C304.168 112.212 304.519 112.095 304.791 111.861C305.071 111.619 305.21 111.309 305.21 110.931C305.21 110.554 305.071 110.248 304.791 110.013C304.519 109.772 304.168 109.651 303.737 109.651H301.3V112.212H303.737ZM310.093 107.225C310.864 107.225 311.465 107.448 311.895 107.894C312.326 108.34 312.541 108.933 312.541 109.673V113.221H311.442V112.427C311.23 112.722 310.947 112.953 310.592 113.119C310.237 113.277 309.87 113.357 309.493 113.357C308.866 113.357 308.348 113.187 307.94 112.847C307.532 112.507 307.328 112.053 307.328 111.487C307.328 111.109 307.43 110.773 307.634 110.478C307.846 110.176 308.129 109.945 308.484 109.787C308.847 109.621 309.243 109.537 309.674 109.537C310.233 109.537 310.822 109.643 311.442 109.855V109.673C311.442 109.243 311.325 108.884 311.091 108.597C310.856 108.302 310.471 108.155 309.935 108.155C309.474 108.155 308.926 108.317 308.291 108.642L307.872 107.815C308.658 107.422 309.398 107.225 310.093 107.225ZM309.719 112.473C310.112 112.473 310.475 112.378 310.807 112.189C311.14 111.993 311.351 111.725 311.442 111.385V110.603C310.943 110.452 310.411 110.376 309.844 110.376C309.444 110.376 309.104 110.478 308.824 110.682C308.544 110.886 308.405 111.143 308.405 111.453C308.405 111.763 308.526 112.012 308.767 112.201C309.017 112.382 309.334 112.473 309.719 112.473ZM316.104 113.357C315.666 113.357 315.227 113.281 314.789 113.13C314.351 112.979 313.958 112.764 313.61 112.484L314.12 111.713C314.445 111.955 314.778 112.14 315.118 112.269C315.458 112.39 315.79 112.45 316.115 112.45C316.463 112.45 316.738 112.378 316.942 112.235C317.154 112.091 317.26 111.899 317.26 111.657C317.26 111.407 317.15 111.222 316.931 111.101C316.712 110.973 316.368 110.845 315.9 110.716C315.182 110.512 314.664 110.289 314.347 110.047C314.037 109.806 313.882 109.458 313.882 109.005C313.882 108.468 314.079 108.038 314.472 107.713C314.872 107.388 315.386 107.225 316.013 107.225C316.383 107.225 316.757 107.286 317.135 107.407C317.513 107.528 317.86 107.694 318.178 107.905L317.713 108.699C317.109 108.321 316.542 108.132 316.013 108.132C315.703 108.132 315.446 108.2 315.242 108.336C315.046 108.465 314.948 108.646 314.948 108.88C314.948 109.031 314.993 109.152 315.084 109.243C315.174 109.333 315.31 109.417 315.492 109.492C315.673 109.56 315.956 109.655 316.342 109.775C316.765 109.904 317.109 110.029 317.373 110.149C317.645 110.263 317.872 110.433 318.053 110.659C318.234 110.886 318.325 111.181 318.325 111.543C318.325 112.095 318.117 112.537 317.702 112.869C317.294 113.194 316.761 113.357 316.104 113.357ZM319.608 107.361H320.73V113.221H319.608V107.361ZM320.175 106.387C319.986 106.387 319.823 106.319 319.687 106.183C319.559 106.047 319.495 105.888 319.495 105.707C319.495 105.525 319.559 105.371 319.687 105.242C319.823 105.106 319.986 105.038 320.175 105.038C320.356 105.038 320.511 105.106 320.639 105.242C320.775 105.371 320.843 105.525 320.843 105.707C320.843 105.888 320.775 106.047 320.639 106.183C320.511 106.319 320.356 106.387 320.175 106.387ZM325.089 113.357C324.537 113.357 324.023 113.217 323.547 112.937C323.079 112.658 322.701 112.284 322.414 111.815C322.134 111.339 321.995 110.829 321.995 110.285C321.995 109.741 322.134 109.235 322.414 108.767C322.701 108.298 323.083 107.924 323.559 107.645C324.035 107.365 324.545 107.225 325.089 107.225C325.504 107.225 325.893 107.305 326.256 107.463C326.626 107.622 326.959 107.845 327.253 108.132L326.494 108.835C326.313 108.638 326.097 108.483 325.848 108.37C325.606 108.257 325.353 108.2 325.089 108.2C324.741 108.2 324.416 108.295 324.114 108.483C323.812 108.672 323.57 108.929 323.389 109.254C323.215 109.571 323.128 109.915 323.128 110.285C323.128 110.663 323.215 111.015 323.389 111.339C323.57 111.657 323.812 111.91 324.114 112.099C324.416 112.288 324.741 112.382 325.089 112.382C325.361 112.382 325.621 112.325 325.871 112.212C326.12 112.091 326.339 111.929 326.528 111.725L327.287 112.416C326.993 112.711 326.656 112.941 326.279 113.107C325.908 113.274 325.512 113.357 325.089 113.357ZM331.645 105.435H332.789V113.221H331.645V105.435ZM337.771 107.225C338.194 107.225 338.572 107.32 338.904 107.509C339.237 107.698 339.493 107.966 339.675 108.313C339.864 108.653 339.958 109.046 339.958 109.492V113.221H338.87V109.685C338.87 109.247 338.745 108.891 338.496 108.619C338.247 108.34 337.922 108.2 337.521 108.2C337.227 108.2 336.955 108.264 336.705 108.393C336.456 108.514 336.26 108.68 336.116 108.891C335.973 109.103 335.901 109.333 335.901 109.583V113.221H334.779V107.361H335.901V108.223C336.075 107.928 336.328 107.69 336.66 107.509C337 107.32 337.37 107.225 337.771 107.225ZM342.93 107.361H344.313V108.313H342.93V113.221H341.831V108.313H340.947V107.361H341.831V106.659C341.831 106.19 341.975 105.809 342.262 105.514C342.549 105.212 342.919 105.061 343.372 105.061C343.584 105.061 343.792 105.099 343.996 105.174C344.2 105.25 344.381 105.352 344.54 105.48L344.132 106.228C344.071 106.168 343.984 106.119 343.871 106.081C343.765 106.035 343.652 106.013 343.531 106.013C343.365 106.013 343.221 106.081 343.1 106.217C342.987 106.345 342.93 106.511 342.93 106.715V107.361ZM347.904 113.357C347.352 113.357 346.839 113.221 346.363 112.949C345.894 112.669 345.52 112.295 345.241 111.827C344.961 111.351 344.821 110.837 344.821 110.285C344.821 109.734 344.961 109.224 345.241 108.755C345.52 108.287 345.894 107.917 346.363 107.645C346.839 107.365 347.352 107.225 347.904 107.225C348.455 107.225 348.965 107.365 349.434 107.645C349.91 107.917 350.288 108.287 350.567 108.755C350.847 109.224 350.987 109.734 350.987 110.285C350.987 110.837 350.847 111.351 350.567 111.827C350.288 112.295 349.91 112.669 349.434 112.949C348.965 113.221 348.455 113.357 347.904 113.357ZM347.904 112.382C348.259 112.382 348.584 112.288 348.879 112.099C349.181 111.91 349.419 111.657 349.593 111.339C349.774 111.015 349.865 110.663 349.865 110.285C349.865 109.908 349.774 109.56 349.593 109.243C349.419 108.918 349.181 108.665 348.879 108.483C348.584 108.295 348.259 108.2 347.904 108.2C347.549 108.2 347.22 108.295 346.918 108.483C346.623 108.665 346.385 108.918 346.204 109.243C346.03 109.56 345.943 109.908 345.943 110.285C345.943 110.663 346.03 111.015 346.204 111.339C346.385 111.657 346.623 111.91 346.918 112.099C347.22 112.288 347.549 112.382 347.904 112.382ZM353.388 108.506C353.57 108.113 353.849 107.803 354.227 107.577C354.612 107.343 355.058 107.225 355.564 107.225V108.2C355.141 108.2 354.764 108.279 354.431 108.438C354.099 108.597 353.842 108.823 353.66 109.118C353.479 109.405 353.388 109.734 353.388 110.104V113.221H352.266V107.361H353.388V108.506ZM363.363 107.225C363.763 107.225 364.122 107.324 364.439 107.52C364.764 107.709 365.017 107.977 365.199 108.325C365.38 108.665 365.471 109.054 365.471 109.492V113.221H364.383V109.662C364.383 109.231 364.266 108.88 364.031 108.608C363.797 108.336 363.499 108.2 363.136 108.2C362.713 108.2 362.365 108.329 362.093 108.585C361.829 108.835 361.697 109.16 361.697 109.56V113.221H360.597V109.662C360.597 109.231 360.48 108.88 360.246 108.608C360.019 108.336 359.725 108.2 359.362 108.2C358.939 108.2 358.591 108.329 358.319 108.585C358.055 108.835 357.923 109.16 357.923 109.56V113.221H356.801V107.361H357.923V108.2C358.074 107.898 358.293 107.66 358.58 107.486C358.875 107.312 359.211 107.225 359.589 107.225C360.05 107.225 360.454 107.35 360.801 107.599C361.149 107.849 361.398 108.189 361.549 108.619C361.64 108.204 361.852 107.868 362.184 107.611C362.516 107.354 362.909 107.225 363.363 107.225ZM369.323 107.225C370.093 107.225 370.694 107.448 371.125 107.894C371.555 108.34 371.771 108.933 371.771 109.673V113.221H370.671V112.427C370.46 112.722 370.176 112.953 369.821 113.119C369.466 113.277 369.1 113.357 368.722 113.357C368.095 113.357 367.577 113.187 367.169 112.847C366.761 112.507 366.557 112.053 366.557 111.487C366.557 111.109 366.659 110.773 366.863 110.478C367.075 110.176 367.358 109.945 367.713 109.787C368.076 109.621 368.473 109.537 368.903 109.537C369.462 109.537 370.052 109.643 370.671 109.855V109.673C370.671 109.243 370.554 108.884 370.32 108.597C370.086 108.302 369.7 108.155 369.164 108.155C368.703 108.155 368.155 108.317 367.521 108.642L367.101 107.815C367.887 107.422 368.628 107.225 369.323 107.225ZM368.949 112.473C369.342 112.473 369.704 112.378 370.037 112.189C370.369 111.993 370.581 111.725 370.671 111.385V110.603C370.173 110.452 369.64 110.376 369.073 110.376C368.673 110.376 368.333 110.478 368.053 110.682C367.774 110.886 367.634 111.143 367.634 111.453C367.634 111.763 367.755 112.012 367.997 112.201C368.246 112.382 368.563 112.473 368.949 112.473ZM376.33 112.937C376.172 113.066 375.987 113.168 375.775 113.243C375.571 113.319 375.363 113.357 375.152 113.357C374.698 113.357 374.328 113.209 374.041 112.915C373.754 112.613 373.61 112.227 373.61 111.759V108.313H372.738V107.361H373.61V105.752H374.71V107.361H376.092V108.313H374.71V111.679C374.71 111.883 374.77 112.053 374.891 112.189C375.012 112.318 375.156 112.382 375.322 112.382C375.443 112.382 375.556 112.363 375.662 112.325C375.768 112.28 375.851 112.227 375.911 112.167L376.33 112.937ZM377.42 107.361H378.542V113.221H377.42V107.361ZM377.987 106.387C377.798 106.387 377.636 106.319 377.5 106.183C377.371 106.047 377.307 105.888 377.307 105.707C377.307 105.525 377.371 105.371 377.5 105.242C377.636 105.106 377.798 105.038 377.987 105.038C378.168 105.038 378.323 105.106 378.452 105.242C378.588 105.371 378.656 105.525 378.656 105.707C378.656 105.888 378.588 106.047 378.452 106.183C378.323 106.319 378.168 106.387 377.987 106.387ZM382.901 113.357C382.35 113.357 381.836 113.221 381.36 112.949C380.892 112.669 380.518 112.295 380.238 111.827C379.958 111.351 379.819 110.837 379.819 110.285C379.819 109.734 379.958 109.224 380.238 108.755C380.518 108.287 380.892 107.917 381.36 107.645C381.836 107.365 382.35 107.225 382.901 107.225C383.453 107.225 383.963 107.365 384.431 107.645C384.907 107.917 385.285 108.287 385.565 108.755C385.844 109.224 385.984 109.734 385.984 110.285C385.984 110.837 385.844 111.351 385.565 111.827C385.285 112.295 384.907 112.669 384.431 112.949C383.963 113.221 383.453 113.357 382.901 113.357ZM382.901 112.382C383.256 112.382 383.581 112.288 383.876 112.099C384.178 111.91 384.416 111.657 384.59 111.339C384.771 111.015 384.862 110.663 384.862 110.285C384.862 109.908 384.771 109.56 384.59 109.243C384.416 108.918 384.178 108.665 383.876 108.483C383.581 108.295 383.256 108.2 382.901 108.2C382.546 108.2 382.218 108.295 381.915 108.483C381.621 108.665 381.383 108.918 381.201 109.243C381.028 109.56 380.941 109.908 380.941 110.285C380.941 110.663 381.028 111.015 381.201 111.339C381.383 111.657 381.621 111.91 381.915 112.099C382.218 112.288 382.546 112.382 382.901 112.382ZM390.256 107.225C390.679 107.225 391.057 107.32 391.389 107.509C391.722 107.698 391.978 107.966 392.16 108.313C392.349 108.653 392.443 109.046 392.443 109.492V113.221H391.355V109.685C391.355 109.247 391.23 108.891 390.981 108.619C390.732 108.34 390.407 108.2 390.006 108.2C389.712 108.2 389.44 108.264 389.19 108.393C388.941 108.514 388.745 108.68 388.601 108.891C388.458 109.103 388.386 109.333 388.386 109.583V113.221H387.264V107.361H388.386V108.223C388.56 107.928 388.813 107.69 389.145 107.509C389.485 107.32 389.855 107.225 390.256 107.225Z" fill="#CBD4D8"/>
<mask id="path-13-inside-2_10150_3806" fill="white">
<path d="M250.428 130.959H404.428V169.816H250.428V130.959Z"/>
</mask>
<path d="M250.428 130.959H404.428V169.816H250.428V130.959Z" fill="#1B2B32"/>
<path d="M253.667 169.816V130.959H247.19V169.816H253.667Z" fill="#FF674C" mask="url(#path-13-inside-2_10150_3806)"/>
<rect width="223.429" height="38.8571" transform="translate(253.667 130.959)" fill="#004B6B"/>
<path d="M266.619 152.046C266.42 152.046 266.259 151.885 266.259 151.686V147.369C266.259 147.17 266.42 147.009 266.619 147.009C266.818 147.009 266.979 147.17 266.979 147.369V151.686C266.979 151.885 266.818 152.046 266.619 152.046Z" fill="#FF674C"/>
<path d="M267.097 153.287C267.097 153.552 266.883 153.766 266.619 153.766C266.355 153.766 266.14 153.552 266.14 153.287C266.14 153.023 266.355 152.809 266.619 152.809C266.883 152.809 267.097 153.023 267.097 153.287Z" fill="#FF674C"/>
<path fill-rule="evenodd" clip-rule="evenodd" d="M260.862 150.388C260.862 153.567 263.44 156.144 266.619 156.144C268.146 156.144 269.61 155.538 270.689 154.458C271.769 153.379 272.376 151.914 272.376 150.388C272.376 147.208 269.798 144.631 266.619 144.631C263.44 144.631 260.862 147.208 260.862 150.388ZM261.582 150.388C261.582 147.606 263.837 145.351 266.619 145.351C269.401 145.351 271.656 147.606 271.656 150.388C271.656 153.169 269.401 155.425 266.619 155.425C263.837 155.425 261.582 153.169 261.582 150.388Z" fill="#FF674C"/>
<path d="M280.405 152.947L283.261 150.59C283.775 150.159 284.141 149.766 284.36 149.411C284.587 149.056 284.7 148.701 284.7 148.346C284.7 147.938 284.557 147.613 284.27 147.371C283.983 147.122 283.635 146.997 283.227 146.997C282.819 146.997 282.453 147.095 282.128 147.292C281.803 147.488 281.497 147.775 281.21 148.153L280.439 147.473C281.164 146.468 282.109 145.966 283.272 145.966C283.756 145.966 284.194 146.064 284.587 146.26C284.988 146.457 285.301 146.736 285.528 147.099C285.762 147.454 285.879 147.862 285.879 148.323C285.879 148.844 285.739 149.332 285.46 149.785C285.18 150.238 284.708 150.737 284.043 151.281L282.218 152.822H285.947V153.888H280.405V152.947Z" fill="#CBD4D8"/>
<path d="M303.635 153.024C302.925 153.024 302.26 152.842 301.64 152.48C301.021 152.109 300.526 151.614 300.156 150.995C299.786 150.375 299.6 149.707 299.6 148.989C299.6 148.271 299.786 147.606 300.156 146.994C300.526 146.375 301.021 145.884 301.64 145.521C302.26 145.151 302.925 144.966 303.635 144.966C304.187 144.966 304.712 145.075 305.21 145.294C305.709 145.506 306.144 145.804 306.514 146.19L305.709 146.96C305.437 146.666 305.12 146.435 304.757 146.269C304.402 146.103 304.028 146.02 303.635 146.02C303.129 146.02 302.653 146.156 302.207 146.428C301.769 146.7 301.418 147.062 301.153 147.516C300.896 147.969 300.768 148.46 300.768 148.989C300.768 149.518 300.896 150.013 301.153 150.474C301.418 150.927 301.769 151.29 302.207 151.562C302.653 151.834 303.129 151.97 303.635 151.97C304.028 151.97 304.402 151.886 304.757 151.72C305.12 151.554 305.437 151.324 305.709 151.029L306.514 151.8C306.136 152.185 305.698 152.487 305.199 152.706C304.7 152.918 304.179 153.024 303.635 153.024ZM310.742 146.892C311.165 146.892 311.543 146.987 311.876 147.176C312.208 147.364 312.465 147.633 312.646 147.98C312.835 148.32 312.93 148.713 312.93 149.159V152.888H311.842V149.352C311.842 148.913 311.717 148.558 311.468 148.286C311.218 148.007 310.893 147.867 310.493 147.867C310.198 147.867 309.926 147.931 309.677 148.06C309.428 148.18 309.231 148.347 309.088 148.558C308.944 148.77 308.872 149 308.872 149.25V152.888H307.75V144.966H308.872V147.89C309.046 147.595 309.299 147.357 309.632 147.176C309.972 146.987 310.342 146.892 310.742 146.892ZM316.786 146.892C317.556 146.892 318.157 147.115 318.588 147.561C319.018 148.007 319.234 148.6 319.234 149.34V152.888H318.134V152.094C317.923 152.389 317.64 152.619 317.284 152.786C316.929 152.944 316.563 153.024 316.185 153.024C315.558 153.024 315.04 152.854 314.632 152.514C314.224 152.174 314.02 151.72 314.02 151.154C314.02 150.776 314.122 150.44 314.326 150.145C314.538 149.843 314.821 149.612 315.176 149.454C315.539 149.287 315.936 149.204 316.366 149.204C316.926 149.204 317.515 149.31 318.134 149.522V149.34C318.134 148.91 318.017 148.551 317.783 148.264C317.549 147.969 317.164 147.822 316.627 147.822C316.166 147.822 315.618 147.984 314.984 148.309L314.564 147.482C315.35 147.089 316.091 146.892 316.786 146.892ZM316.412 152.14C316.805 152.14 317.167 152.045 317.5 151.856C317.832 151.66 318.044 151.392 318.134 151.052V150.27C317.636 150.118 317.103 150.043 316.536 150.043C316.136 150.043 315.796 150.145 315.516 150.349C315.237 150.553 315.097 150.81 315.097 151.12C315.097 151.429 315.218 151.679 315.46 151.868C315.709 152.049 316.026 152.14 316.412 152.14ZM321.992 148.173C322.173 147.78 322.452 147.47 322.83 147.244C323.216 147.009 323.661 146.892 324.168 146.892V147.867C323.744 147.867 323.367 147.946 323.034 148.105C322.702 148.264 322.445 148.49 322.264 148.785C322.082 149.072 321.992 149.401 321.992 149.771V152.888H320.87V147.028H321.992V148.173ZM327.625 146.892C328.396 146.892 328.997 147.115 329.427 147.561C329.858 148.007 330.073 148.6 330.073 149.34V152.888H328.974V152.094C328.762 152.389 328.479 152.619 328.124 152.786C327.769 152.944 327.402 153.024 327.025 153.024C326.397 153.024 325.88 152.854 325.472 152.514C325.064 152.174 324.86 151.72 324.86 151.154C324.86 150.776 324.962 150.44 325.166 150.145C325.377 149.843 325.661 149.612 326.016 149.454C326.379 149.287 326.775 149.204 327.206 149.204C327.765 149.204 328.354 149.31 328.974 149.522V149.34C328.974 148.91 328.857 148.551 328.623 148.264C328.388 147.969 328.003 147.822 327.467 147.822C327.006 147.822 326.458 147.984 325.823 148.309L325.404 147.482C326.19 147.089 326.93 146.892 327.625 146.892ZM327.251 152.14C327.644 152.14 328.007 152.045 328.339 151.856C328.672 151.66 328.883 151.392 328.974 151.052V150.27C328.475 150.118 327.943 150.043 327.376 150.043C326.975 150.043 326.635 150.145 326.356 150.349C326.076 150.553 325.937 150.81 325.937 151.12C325.937 151.429 326.057 151.679 326.299 151.868C326.549 152.049 326.866 152.14 327.251 152.14ZM334.316 153.024C333.764 153.024 333.25 152.884 332.774 152.604C332.306 152.325 331.928 151.951 331.641 151.482C331.361 151.006 331.222 150.496 331.222 149.952C331.222 149.408 331.361 148.902 331.641 148.434C331.928 147.965 332.31 147.591 332.786 147.312C333.262 147.032 333.772 146.892 334.316 146.892C334.731 146.892 335.12 146.972 335.483 147.13C335.853 147.289 336.186 147.512 336.48 147.799L335.721 148.502C335.54 148.305 335.324 148.15 335.075 148.037C334.833 147.924 334.58 147.867 334.316 147.867C333.968 147.867 333.643 147.961 333.341 148.15C333.039 148.339 332.797 148.596 332.616 148.921C332.442 149.238 332.355 149.582 332.355 149.952C332.355 150.33 332.442 150.681 332.616 151.006C332.797 151.324 333.039 151.577 333.341 151.766C333.643 151.954 333.968 152.049 334.316 152.049C334.588 152.049 334.848 151.992 335.098 151.879C335.347 151.758 335.566 151.596 335.755 151.392L336.514 152.083C336.22 152.378 335.883 152.608 335.506 152.774C335.135 152.94 334.739 153.024 334.316 153.024ZM340.529 152.604C340.37 152.733 340.185 152.835 339.973 152.91C339.769 152.986 339.561 153.024 339.35 153.024C338.897 153.024 338.526 152.876 338.239 152.582C337.952 152.279 337.809 151.894 337.809 151.426V147.98H336.936V147.028H337.809V145.419H338.908V147.028H340.291V147.98H338.908V151.346C338.908 151.55 338.968 151.72 339.089 151.856C339.21 151.985 339.354 152.049 339.52 152.049C339.641 152.049 339.754 152.03 339.86 151.992C339.966 151.947 340.049 151.894 340.109 151.834L340.529 152.604ZM344.169 152.094C344.486 152.094 344.807 152.03 345.132 151.902C345.464 151.773 345.721 151.614 345.903 151.426L346.56 152.117C346.311 152.389 345.959 152.608 345.506 152.774C345.06 152.94 344.622 153.024 344.191 153.024C343.655 153.024 343.152 152.891 342.684 152.627C342.223 152.362 341.853 151.996 341.573 151.528C341.301 151.052 341.165 150.523 341.165 149.941C341.165 149.367 341.298 148.849 341.562 148.388C341.826 147.92 342.182 147.553 342.627 147.289C343.081 147.024 343.576 146.892 344.112 146.892C344.701 146.892 345.208 147.032 345.631 147.312C346.061 147.591 346.386 147.988 346.605 148.502C346.832 149.015 346.945 149.62 346.945 150.315H342.265C342.333 150.844 342.537 151.274 342.877 151.607C343.224 151.932 343.655 152.094 344.169 152.094ZM344.135 147.822C343.666 147.822 343.258 147.973 342.911 148.275C342.571 148.577 342.359 148.981 342.276 149.488H345.857C345.797 148.996 345.616 148.596 345.313 148.286C345.019 147.976 344.626 147.822 344.135 147.822ZM349.3 148.173C349.482 147.78 349.761 147.47 350.139 147.244C350.524 147.009 350.97 146.892 351.476 146.892V147.867C351.053 147.867 350.675 147.946 350.343 148.105C350.011 148.264 349.754 148.49 349.572 148.785C349.391 149.072 349.3 149.401 349.3 149.771V152.888H348.178V147.028H349.3V148.173ZM352.713 147.028H353.835V152.888H352.713V147.028ZM353.279 146.054C353.09 146.054 352.928 145.986 352.792 145.85C352.664 145.714 352.599 145.555 352.599 145.374C352.599 145.192 352.664 145.037 352.792 144.909C352.928 144.773 353.09 144.705 353.279 144.705C353.461 144.705 353.616 144.773 353.744 144.909C353.88 145.037 353.948 145.192 353.948 145.374C353.948 145.555 353.88 145.714 353.744 145.85C353.616 145.986 353.461 146.054 353.279 146.054ZM357.513 153.024C357.075 153.024 356.637 152.948 356.199 152.797C355.761 152.646 355.368 152.43 355.02 152.151L355.53 151.38C355.855 151.622 356.187 151.807 356.527 151.936C356.867 152.056 357.2 152.117 357.525 152.117C357.872 152.117 358.148 152.045 358.352 151.902C358.564 151.758 358.669 151.565 358.669 151.324C358.669 151.074 358.56 150.889 358.341 150.768C358.122 150.64 357.778 150.511 357.309 150.383C356.592 150.179 356.074 149.956 355.757 149.714C355.447 149.472 355.292 149.125 355.292 148.672C355.292 148.135 355.489 147.704 355.881 147.38C356.282 147.055 356.796 146.892 357.423 146.892C357.793 146.892 358.167 146.953 358.545 147.074C358.923 147.194 359.27 147.361 359.587 147.572L359.123 148.366C358.518 147.988 357.952 147.799 357.423 147.799C357.113 147.799 356.856 147.867 356.652 148.003C356.456 148.131 356.357 148.313 356.357 148.547C356.357 148.698 356.403 148.819 356.493 148.91C356.584 149 356.72 149.083 356.901 149.159C357.083 149.227 357.366 149.321 357.751 149.442C358.175 149.571 358.518 149.695 358.783 149.816C359.055 149.93 359.281 150.1 359.463 150.326C359.644 150.553 359.735 150.848 359.735 151.21C359.735 151.762 359.527 152.204 359.111 152.536C358.703 152.861 358.171 153.024 357.513 153.024ZM363.942 152.604C363.783 152.733 363.598 152.835 363.386 152.91C363.182 152.986 362.974 153.024 362.763 153.024C362.31 153.024 361.939 152.876 361.652 152.582C361.365 152.279 361.222 151.894 361.222 151.426V147.98H360.349V147.028H361.222V145.419H362.321V147.028H363.704V147.98H362.321V151.346C362.321 151.55 362.381 151.72 362.502 151.856C362.623 151.985 362.767 152.049 362.933 152.049C363.054 152.049 363.167 152.03 363.273 151.992C363.379 151.947 363.462 151.894 363.522 151.834L363.942 152.604ZM365.032 147.028H366.154V152.888H365.032V147.028ZM365.598 146.054C365.409 146.054 365.247 145.986 365.111 145.85C364.983 145.714 364.918 145.555 364.918 145.374C364.918 145.192 364.983 145.037 365.111 144.909C365.247 144.773 365.409 144.705 365.598 144.705C365.78 144.705 365.935 144.773 366.063 144.909C366.199 145.037 366.267 145.192 366.267 145.374C366.267 145.555 366.199 145.714 366.063 145.85C365.935 145.986 365.78 146.054 365.598 146.054ZM370.512 153.024C369.961 153.024 369.447 152.884 368.971 152.604C368.503 152.325 368.125 151.951 367.838 151.482C367.558 151.006 367.418 150.496 367.418 149.952C367.418 149.408 367.558 148.902 367.838 148.434C368.125 147.965 368.506 147.591 368.982 147.312C369.458 147.032 369.968 146.892 370.512 146.892C370.928 146.892 371.317 146.972 371.68 147.13C372.05 147.289 372.382 147.512 372.677 147.799L371.918 148.502C371.736 148.305 371.521 148.15 371.272 148.037C371.03 147.924 370.777 147.867 370.512 147.867C370.165 147.867 369.84 147.961 369.538 148.15C369.236 148.339 368.994 148.596 368.812 148.921C368.639 149.238 368.552 149.582 368.552 149.952C368.552 150.33 368.639 150.681 368.812 151.006C368.994 151.324 369.236 151.577 369.538 151.766C369.84 151.954 370.165 152.049 370.512 152.049C370.784 152.049 371.045 151.992 371.294 151.879C371.544 151.758 371.763 151.596 371.952 151.392L372.711 152.083C372.416 152.378 372.08 152.608 371.702 152.774C371.332 152.94 370.936 153.024 370.512 153.024ZM375.728 153.024C375.29 153.024 374.852 152.948 374.413 152.797C373.975 152.646 373.582 152.43 373.235 152.151L373.745 151.38C374.07 151.622 374.402 151.807 374.742 151.936C375.082 152.056 375.414 152.117 375.739 152.117C376.087 152.117 376.363 152.045 376.567 151.902C376.778 151.758 376.884 151.565 376.884 151.324C376.884 151.074 376.774 150.889 376.555 150.768C376.336 150.64 375.992 150.511 375.524 150.383C374.806 150.179 374.289 149.956 373.971 149.714C373.662 149.472 373.507 149.125 373.507 148.672C373.507 148.135 373.703 147.704 374.096 147.38C374.496 147.055 375.01 146.892 375.637 146.892C376.008 146.892 376.382 146.953 376.759 147.074C377.137 147.194 377.485 147.361 377.802 147.572L377.337 148.366C376.733 147.988 376.166 147.799 375.637 147.799C375.328 147.799 375.071 147.867 374.867 148.003C374.67 148.131 374.572 148.313 374.572 148.547C374.572 148.698 374.617 148.819 374.708 148.91C374.799 149 374.935 149.083 375.116 149.159C375.297 149.227 375.581 149.321 375.966 149.442C376.389 149.571 376.733 149.695 376.997 149.816C377.269 149.93 377.496 150.1 377.677 150.326C377.859 150.553 377.949 150.848 377.949 151.21C377.949 151.762 377.742 152.204 377.326 152.536C376.918 152.861 376.385 153.024 375.728 153.024Z" fill="#CBD4D8"/>
<mask id="path-18-inside-3_10150_3806" fill="white">
<path d="M250.428 170.626H404.428V209.483H250.428V170.626Z"/>
</mask>
<path d="M250.428 170.626H404.428V209.483H250.428V170.626Z" fill="#1B2B32"/>
<path d="M253.667 209.483V170.626H247.19V209.483H253.667Z" fill="#67CA16" mask="url(#path-18-inside-3_10150_3806)"/>
<path fill-rule="evenodd" clip-rule="evenodd" d="M266.619 184.298C263.44 184.298 260.862 186.875 260.862 190.054C260.862 193.234 263.44 195.811 266.619 195.811C269.798 195.811 272.376 193.234 272.376 190.054C272.376 188.527 271.769 187.063 270.689 185.984C269.61 184.904 268.146 184.298 266.619 184.298ZM266.619 195.091C263.837 195.091 261.582 192.836 261.582 190.054C261.582 187.272 263.837 185.017 266.619 185.017C269.401 185.017 271.656 187.272 271.656 190.054C271.656 191.39 271.125 192.671 270.181 193.616C269.236 194.561 267.955 195.091 266.619 195.091ZM269.71 187.931C269.85 187.792 270.076 187.792 270.217 187.931C270.285 187.999 270.323 188.091 270.323 188.187C270.323 188.283 270.285 188.375 270.217 188.442L265.716 192.933L263.021 190.245C262.884 190.097 262.893 189.866 263.041 189.729C263.189 189.592 263.42 189.6 263.557 189.748L265.716 191.907L269.71 187.931Z" fill="#67CA16"/>
<path d="M283.106 193.69C282.471 193.69 281.901 193.569 281.395 193.328C280.896 193.086 280.488 192.765 280.171 192.364L280.907 191.605C281.179 191.93 281.501 192.187 281.871 192.376C282.241 192.564 282.645 192.659 283.083 192.659C283.582 192.659 283.983 192.538 284.285 192.296C284.587 192.054 284.738 191.737 284.738 191.344C284.738 190.944 284.576 190.642 284.251 190.438C283.933 190.226 283.484 190.124 282.902 190.132H282.052V189.112L282.902 189.123C283.408 189.123 283.813 189.017 284.115 188.806C284.425 188.594 284.579 188.296 284.579 187.91C284.579 187.548 284.428 187.249 284.126 187.015C283.824 186.781 283.446 186.664 282.993 186.664C282.607 186.664 282.256 186.754 281.939 186.936C281.621 187.109 281.319 187.366 281.032 187.706L280.318 187.004C281.021 186.089 281.939 185.632 283.072 185.632C283.593 185.632 284.054 185.723 284.455 185.904C284.863 186.086 285.176 186.339 285.395 186.664C285.622 186.981 285.735 187.344 285.735 187.752C285.735 188.205 285.596 188.586 285.316 188.896C285.044 189.206 284.689 189.429 284.251 189.565C284.704 189.671 285.093 189.882 285.418 190.2C285.743 190.509 285.905 190.917 285.905 191.424C285.905 191.862 285.788 192.255 285.554 192.602C285.32 192.942 284.991 193.21 284.568 193.407C284.145 193.596 283.658 193.69 283.106 193.69Z" fill="#CBD4D8"/>
<path d="M302.683 192.679C301.406 192.679 300.341 192.263 299.487 191.432L300.167 190.582C300.93 191.308 301.784 191.67 302.728 191.67C303.242 191.67 303.643 191.557 303.93 191.33C304.217 191.096 304.36 190.813 304.36 190.48C304.36 190.133 304.209 189.868 303.907 189.687C303.612 189.498 303.114 189.324 302.411 189.166C301.822 189.03 301.338 188.875 300.96 188.701C300.59 188.527 300.299 188.297 300.088 188.01C299.876 187.722 299.77 187.356 299.77 186.91C299.77 186.48 299.888 186.09 300.122 185.743C300.356 185.395 300.677 185.123 301.085 184.927C301.501 184.73 301.965 184.632 302.479 184.632C303.046 184.632 303.56 184.727 304.02 184.916C304.489 185.104 304.92 185.376 305.312 185.732L304.655 186.593C304.323 186.291 303.964 186.056 303.578 185.89C303.201 185.724 302.815 185.641 302.422 185.641C302.143 185.641 301.89 185.694 301.663 185.8C301.436 185.905 301.259 186.049 301.13 186.23C301.002 186.412 300.938 186.604 300.938 186.808C300.938 187.042 301.01 187.235 301.153 187.386C301.297 187.537 301.501 187.666 301.765 187.772C302.037 187.87 302.411 187.976 302.887 188.089C303.756 188.293 304.41 188.561 304.848 188.894C305.294 189.226 305.516 189.717 305.516 190.367C305.516 190.813 305.407 191.209 305.188 191.557C304.969 191.904 304.644 192.18 304.213 192.384C303.79 192.581 303.28 192.679 302.683 192.679ZM309.844 192.271C309.685 192.399 309.5 192.501 309.289 192.577C309.085 192.652 308.877 192.69 308.665 192.69C308.212 192.69 307.842 192.543 307.555 192.248C307.268 191.946 307.124 191.561 307.124 191.092V187.647H306.251V186.695H307.124V185.086H308.223V186.695H309.606V187.647H308.223V191.013C308.223 191.217 308.284 191.387 308.405 191.523C308.526 191.651 308.669 191.716 308.835 191.716C308.956 191.716 309.07 191.697 309.175 191.659C309.281 191.614 309.364 191.561 309.425 191.5L309.844 192.271ZM313.156 186.559C313.926 186.559 314.527 186.782 314.958 187.228C315.388 187.673 315.604 188.266 315.604 189.007V192.554H314.504V191.761C314.293 192.056 314.009 192.286 313.654 192.452C313.299 192.611 312.933 192.69 312.555 192.69C311.928 192.69 311.41 192.52 311.002 192.18C310.594 191.84 310.39 191.387 310.39 190.82C310.39 190.442 310.492 190.106 310.696 189.812C310.908 189.509 311.191 189.279 311.546 189.12C311.909 188.954 312.306 188.871 312.736 188.871C313.295 188.871 313.885 188.977 314.504 189.188V189.007C314.504 188.576 314.387 188.217 314.153 187.93C313.919 187.636 313.533 187.488 312.997 187.488C312.536 187.488 311.988 187.651 311.354 187.976L310.934 187.148C311.72 186.755 312.46 186.559 313.156 186.559ZM312.782 191.806C313.174 191.806 313.537 191.712 313.87 191.523C314.202 191.326 314.414 191.058 314.504 190.718V189.936C314.006 189.785 313.473 189.71 312.906 189.71C312.506 189.71 312.166 189.812 311.886 190.016C311.607 190.22 311.467 190.476 311.467 190.786C311.467 191.096 311.588 191.345 311.83 191.534C312.079 191.716 312.396 191.806 312.782 191.806ZM320.163 192.271C320.005 192.399 319.82 192.501 319.608 192.577C319.404 192.652 319.196 192.69 318.985 192.69C318.531 192.69 318.161 192.543 317.874 192.248C317.587 191.946 317.443 191.561 317.443 191.092V187.647H316.571V186.695H317.443V185.086H318.543V186.695H319.925V187.647H318.543V191.013C318.543 191.217 318.603 191.387 318.724 191.523C318.845 191.651 318.988 191.716 319.155 191.716C319.276 191.716 319.389 191.697 319.495 191.659C319.6 191.614 319.684 191.561 319.744 191.5L320.163 192.271ZM323.18 192.69C322.742 192.69 322.304 192.615 321.865 192.464C321.427 192.312 321.034 192.097 320.687 191.818L321.197 191.047C321.522 191.289 321.854 191.474 322.194 191.602C322.534 191.723 322.867 191.784 323.191 191.784C323.539 191.784 323.815 191.712 324.019 191.568C324.23 191.425 324.336 191.232 324.336 190.99C324.336 190.741 324.227 190.556 324.007 190.435C323.788 190.306 323.445 190.178 322.976 190.05C322.258 189.846 321.741 189.623 321.423 189.381C321.114 189.139 320.959 188.792 320.959 188.338C320.959 187.802 321.155 187.371 321.548 187.046C321.949 186.721 322.462 186.559 323.089 186.559C323.46 186.559 323.834 186.619 324.211 186.74C324.589 186.861 324.937 187.027 325.254 187.239L324.789 188.032C324.185 187.654 323.618 187.466 323.089 187.466C322.78 187.466 322.523 187.534 322.319 187.67C322.122 187.798 322.024 187.979 322.024 188.214C322.024 188.365 322.069 188.486 322.16 188.576C322.251 188.667 322.387 188.75 322.568 188.826C322.749 188.894 323.033 188.988 323.418 189.109C323.841 189.237 324.185 189.362 324.449 189.483C324.721 189.596 324.948 189.766 325.129 189.993C325.311 190.22 325.401 190.514 325.401 190.877C325.401 191.428 325.194 191.87 324.778 192.203C324.37 192.528 323.837 192.69 323.18 192.69Z" fill="#CBD4D8"/>
<g clip-path="url(#clip4_10150_3806)">
<mask id="path-23-inside-4_10150_3806" fill="white">
<path d="M250.428 210.292H404.428V249.149H250.428V210.292Z"/>
</mask>
<path d="M250.428 210.292H404.428V249.149H250.428V210.292Z" fill="#1B2B32"/>
<path d="M283.983 231.43H280.118L279.993 230.512L283.767 225.435H285.127V230.421H286.249V231.43H285.127V233.221H283.983V231.43ZM283.983 230.421V226.738L281.251 230.421H283.983Z" fill="#CBD4D8"/>
<path d="M299.34 224.435H300.609L302.524 230.373L304.474 224.435H305.732L307.681 230.373L309.596 224.435H310.866L308.304 232.221H307.16L305.108 226.021L303.046 232.221H301.901L299.34 224.435ZM314.594 231.427C314.912 231.427 315.233 231.363 315.558 231.235C315.89 231.106 316.147 230.948 316.328 230.759L316.986 231.45C316.736 231.722 316.385 231.941 315.932 232.107C315.486 232.274 315.048 232.357 314.617 232.357C314.081 232.357 313.578 232.225 313.11 231.96C312.649 231.696 312.279 231.329 311.999 230.861C311.727 230.385 311.591 229.856 311.591 229.274C311.591 228.7 311.723 228.182 311.988 227.721C312.252 227.253 312.607 226.887 313.053 226.622C313.506 226.358 314.001 226.225 314.538 226.225C315.127 226.225 315.633 226.365 316.056 226.645C316.487 226.924 316.812 227.321 317.031 227.835C317.258 228.349 317.371 228.953 317.371 229.648H312.69C312.758 230.177 312.962 230.608 313.302 230.94C313.65 231.265 314.081 231.427 314.594 231.427ZM314.56 227.155C314.092 227.155 313.684 227.306 313.336 227.608C312.996 227.91 312.785 228.315 312.702 228.821H316.283C316.223 228.33 316.041 227.929 315.739 227.619C315.444 227.31 315.052 227.155 314.56 227.155ZM320.825 226.225C321.596 226.225 322.197 226.448 322.627 226.894C323.058 227.34 323.273 227.933 323.273 228.673V232.221H322.174V231.427C321.963 231.722 321.679 231.953 321.324 232.119C320.969 232.277 320.603 232.357 320.225 232.357C319.598 232.357 319.08 232.187 318.672 231.847C318.264 231.507 318.06 231.053 318.06 230.487C318.06 230.109 318.162 229.773 318.366 229.478C318.578 229.176 318.861 228.945 319.216 228.787C319.579 228.621 319.975 228.537 320.406 228.537C320.965 228.537 321.555 228.643 322.174 228.855V228.673C322.174 228.243 322.057 227.884 321.823 227.597C321.589 227.302 321.203 227.155 320.667 227.155C320.206 227.155 319.658 227.317 319.023 227.642L318.604 226.815C319.39 226.422 320.13 226.225 320.825 226.225ZM320.451 231.473C320.844 231.473 321.207 231.378 321.539 231.189C321.872 230.993 322.083 230.725 322.174 230.385V229.603C321.675 229.452 321.143 229.376 320.576 229.376C320.176 229.376 319.836 229.478 319.556 229.682C319.277 229.886 319.137 230.143 319.137 230.453C319.137 230.763 319.258 231.012 319.499 231.201C319.749 231.382 320.066 231.473 320.451 231.473ZM324.909 224.299H326.031V229.365L328.899 226.361H330.259L327.731 229.013L330.145 232.221H328.808L326.972 229.761L326.031 230.713V232.221H324.909V224.299ZM334.206 226.225C334.63 226.225 335.007 226.32 335.34 226.509C335.672 226.698 335.929 226.966 336.11 227.313C336.299 227.653 336.394 228.046 336.394 228.492V232.221H335.306V228.685C335.306 228.247 335.181 227.891 334.932 227.619C334.682 227.34 334.358 227.2 333.957 227.2C333.662 227.2 333.39 227.264 333.141 227.393C332.892 227.514 332.695 227.68 332.552 227.891C332.408 228.103 332.336 228.333 332.336 228.583V232.221H331.214V226.361H332.336V227.223C332.51 226.928 332.763 226.69 333.096 226.509C333.436 226.32 333.806 226.225 334.206 226.225ZM340.579 231.427C340.896 231.427 341.217 231.363 341.542 231.235C341.874 231.106 342.131 230.948 342.313 230.759L342.97 231.45C342.721 231.722 342.369 231.941 341.916 232.107C341.47 232.274 341.032 232.357 340.601 232.357C340.065 232.357 339.562 232.225 339.094 231.96C338.633 231.696 338.263 231.329 337.983 230.861C337.711 230.385 337.575 229.856 337.575 229.274C337.575 228.7 337.708 228.182 337.972 227.721C338.236 227.253 338.592 226.887 339.037 226.622C339.491 226.358 339.986 226.225 340.522 226.225C341.111 226.225 341.618 226.365 342.041 226.645C342.471 226.924 342.796 227.321 343.015 227.835C343.242 228.349 343.355 228.953 343.355 229.648H338.675C338.743 230.177 338.947 230.608 339.287 230.94C339.634 231.265 340.065 231.427 340.579 231.427ZM340.545 227.155C340.076 227.155 339.668 227.306 339.321 227.608C338.981 227.91 338.769 228.315 338.686 228.821H342.267C342.207 228.33 342.026 227.929 341.723 227.619C341.429 227.31 341.036 227.155 340.545 227.155ZM346.515 232.357C346.077 232.357 345.639 232.281 345.2 232.13C344.762 231.979 344.369 231.764 344.022 231.484L344.532 230.713C344.857 230.955 345.189 231.14 345.529 231.269C345.869 231.39 346.201 231.45 346.526 231.45C346.874 231.45 347.15 231.378 347.354 231.235C347.565 231.091 347.671 230.899 347.671 230.657C347.671 230.407 347.561 230.222 347.342 230.101C347.123 229.973 346.779 229.845 346.311 229.716C345.593 229.512 345.076 229.289 344.758 229.047C344.449 228.806 344.294 228.458 344.294 228.005C344.294 227.468 344.49 227.038 344.883 226.713C345.283 226.388 345.797 226.225 346.424 226.225C346.795 226.225 347.169 226.286 347.546 226.407C347.924 226.528 348.272 226.694 348.589 226.905L348.124 227.699C347.52 227.321 346.953 227.132 346.424 227.132C346.115 227.132 345.858 227.2 345.654 227.336C345.457 227.465 345.359 227.646 345.359 227.88C345.359 228.031 345.404 228.152 345.495 228.243C345.586 228.333 345.722 228.417 345.903 228.492C346.084 228.56 346.368 228.655 346.753 228.775C347.176 228.904 347.52 229.029 347.784 229.149C348.056 229.263 348.283 229.433 348.464 229.659C348.646 229.886 348.736 230.181 348.736 230.543C348.736 231.095 348.529 231.537 348.113 231.869C347.705 232.194 347.172 232.357 346.515 232.357ZM351.946 232.357C351.508 232.357 351.069 232.281 350.631 232.13C350.193 231.979 349.8 231.764 349.452 231.484L349.962 230.713C350.287 230.955 350.62 231.14 350.96 231.269C351.3 231.39 351.632 231.45 351.957 231.45C352.305 231.45 352.58 231.378 352.784 231.235C352.996 231.091 353.102 230.899 353.102 230.657C353.102 230.407 352.992 230.222 352.773 230.101C352.554 229.973 352.21 229.845 351.742 229.716C351.024 229.512 350.506 229.289 350.189 229.047C349.879 228.806 349.724 228.458 349.724 228.005C349.724 227.468 349.921 227.038 350.314 226.713C350.714 226.388 351.228 226.225 351.855 226.225C352.225 226.225 352.599 226.286 352.977 226.407C353.355 226.528 353.702 226.694 354.02 226.905L353.555 227.699C352.951 227.321 352.384 227.132 351.855 227.132C351.545 227.132 351.288 227.2 351.084 227.336C350.888 227.465 350.79 227.646 350.79 227.88C350.79 228.031 350.835 228.152 350.926 228.243C351.016 228.333 351.152 228.417 351.334 228.492C351.515 228.56 351.798 228.655 352.184 228.775C352.607 228.904 352.951 229.029 353.215 229.149C353.487 229.263 353.714 229.433 353.895 229.659C354.076 229.886 354.167 230.181 354.167 230.543C354.167 231.095 353.959 231.537 353.544 231.869C353.136 232.194 352.603 232.357 351.946 232.357ZM358 231.427C358.317 231.427 358.638 231.363 358.963 231.235C359.296 231.106 359.552 230.948 359.734 230.759L360.391 231.45C360.142 231.722 359.79 231.941 359.337 232.107C358.891 232.274 358.453 232.357 358.022 232.357C357.486 232.357 356.984 232.225 356.515 231.96C356.054 231.696 355.684 231.329 355.404 230.861C355.132 230.385 354.996 229.856 354.996 229.274C354.996 228.7 355.129 228.182 355.393 227.721C355.658 227.253 356.013 226.887 356.458 226.622C356.912 226.358 357.407 226.225 357.943 226.225C358.532 226.225 359.039 226.365 359.462 226.645C359.892 226.924 360.217 227.321 360.436 227.835C360.663 228.349 360.776 228.953 360.776 229.648H356.096C356.164 230.177 356.368 230.608 356.708 230.94C357.055 231.265 357.486 231.427 358 231.427ZM357.966 227.155C357.497 227.155 357.089 227.306 356.742 227.608C356.402 227.91 356.19 228.315 356.107 228.821H359.688C359.628 228.33 359.447 227.929 359.144 227.619C358.85 227.31 358.457 227.155 357.966 227.155ZM363.936 232.357C363.498 232.357 363.06 232.281 362.621 232.13C362.183 231.979 361.79 231.764 361.443 231.484L361.953 230.713C362.278 230.955 362.61 231.14 362.95 231.269C363.29 231.39 363.623 231.45 363.947 231.45C364.295 231.45 364.571 231.378 364.775 231.235C364.986 231.091 365.092 230.899 365.092 230.657C365.092 230.407 364.983 230.222 364.763 230.101C364.544 229.973 364.201 229.845 363.732 229.716C363.014 229.512 362.497 229.289 362.179 229.047C361.87 228.806 361.715 228.458 361.715 228.005C361.715 227.468 361.911 227.038 362.304 226.713C362.705 226.388 363.218 226.225 363.845 226.225C364.216 226.225 364.59 226.286 364.967 226.407C365.345 226.528 365.693 226.694 366.01 226.905L365.545 227.699C364.941 227.321 364.374 227.132 363.845 227.132C363.536 227.132 363.279 227.2 363.075 227.336C362.878 227.465 362.78 227.646 362.78 227.88C362.78 228.031 362.825 228.152 362.916 228.243C363.007 228.333 363.143 228.417 363.324 228.492C363.505 228.56 363.789 228.655 364.174 228.775C364.597 228.904 364.941 229.029 365.205 229.149C365.477 229.263 365.704 229.433 365.885 229.659C366.067 229.886 366.157 230.181 366.157 230.543C366.157 231.095 365.95 231.537 365.534 231.869C365.126 232.194 364.593 232.357 363.936 232.357Z" fill="#CBD4D8"/>
</g>
<path d="M253.667 249.149V210.292H247.19V249.149H253.667Z" fill="#3A4D55" mask="url(#path-23-inside-4_10150_3806)"/>
<g clip-path="url(#clip5_10150_3806)">
<mask id="path-27-inside-5_10150_3806" fill="white">
<path d="M250.428 249.959H404.428V288.816H250.428V249.959Z"/>
</mask>
<path d="M250.428 249.959H404.428V288.816H250.428V249.959Z" fill="#1B2B32"/>
<path d="M283.143 273.024C282.553 273.024 282.021 272.918 281.545 272.706C281.069 272.487 280.657 272.185 280.309 271.8L281.023 270.984C281.673 271.671 282.387 272.015 283.165 272.015C283.664 272.015 284.072 271.868 284.389 271.573C284.707 271.278 284.865 270.908 284.865 270.462C284.865 270.016 284.707 269.658 284.389 269.386C284.072 269.106 283.66 268.966 283.154 268.966C282.549 268.966 281.998 269.155 281.499 269.533L280.695 269.17L280.808 265.102H285.591V266.167H281.896L281.828 268.479C282.327 268.146 282.863 267.98 283.437 267.98C283.913 267.98 284.344 268.078 284.729 268.275C285.122 268.464 285.432 268.743 285.659 269.114C285.893 269.484 286.01 269.918 286.01 270.417C286.01 270.931 285.889 271.388 285.647 271.788C285.405 272.181 285.065 272.487 284.627 272.706C284.197 272.918 283.702 273.024 283.143 273.024Z" fill="#CBD4D8"/>
<path d="M301.312 265.167V267.388H305.437V268.454H301.312V270.822H305.879V271.888H300.156V264.102H305.879V265.167H301.312ZM306.558 266.028H307.76L309.584 270.584L311.375 266.028H312.588L310.117 271.888H309.063L306.558 266.028ZM316.153 272.024C315.601 272.024 315.088 271.888 314.612 271.616C314.143 271.336 313.769 270.962 313.49 270.494C313.21 270.018 313.07 269.504 313.07 268.952C313.07 268.401 313.21 267.891 313.49 267.422C313.769 266.954 314.143 266.584 314.612 266.312C315.088 266.032 315.601 265.892 316.153 265.892C316.704 265.892 317.214 266.032 317.683 266.312C318.159 266.584 318.537 266.954 318.816 267.422C319.096 267.891 319.236 268.401 319.236 268.952C319.236 269.504 319.096 270.018 318.816 270.494C318.537 270.962 318.159 271.336 317.683 271.616C317.214 271.888 316.704 272.024 316.153 272.024ZM316.153 271.049C316.508 271.049 316.833 270.954 317.128 270.766C317.43 270.577 317.668 270.324 317.842 270.006C318.023 269.681 318.114 269.33 318.114 268.952C318.114 268.574 318.023 268.227 317.842 267.91C317.668 267.585 317.43 267.332 317.128 267.15C316.833 266.961 316.508 266.867 316.153 266.867C315.798 266.867 315.469 266.961 315.167 267.15C314.872 267.332 314.634 267.585 314.453 267.91C314.279 268.227 314.192 268.574 314.192 268.952C314.192 269.33 314.279 269.681 314.453 270.006C314.634 270.324 314.872 270.577 315.167 270.766C315.469 270.954 315.798 271.049 316.153 271.049ZM320.515 263.966H321.637V271.888H320.515V263.966ZM328.444 266.028V271.888H327.322V271.049C327.141 271.344 326.884 271.582 326.552 271.763C326.219 271.937 325.853 272.024 325.452 272.024C325.029 272.024 324.651 271.929 324.319 271.74C323.986 271.551 323.726 271.287 323.537 270.947C323.356 270.599 323.265 270.203 323.265 269.757V266.028H324.364V269.564C324.364 270.002 324.489 270.361 324.738 270.641C324.988 270.913 325.312 271.049 325.713 271.049C326.008 271.049 326.276 270.988 326.518 270.868C326.767 270.739 326.963 270.569 327.107 270.358C327.25 270.146 327.322 269.916 327.322 269.666V266.028H328.444ZM333.128 271.604C332.969 271.733 332.784 271.835 332.572 271.91C332.368 271.986 332.161 272.024 331.949 272.024C331.496 272.024 331.126 271.876 330.838 271.582C330.551 271.279 330.408 270.894 330.408 270.426V266.98H329.535V266.028H330.408V264.419H331.507V266.028H332.89V266.98H331.507V270.346C331.507 270.55 331.568 270.72 331.688 270.856C331.809 270.985 331.953 271.049 332.119 271.049C332.24 271.049 332.353 271.03 332.459 270.992C332.565 270.947 332.648 270.894 332.708 270.834L333.128 271.604ZM334.218 266.028H335.34V271.888H334.218V266.028ZM334.785 265.054C334.596 265.054 334.433 264.986 334.297 264.85C334.169 264.714 334.105 264.555 334.105 264.374C334.105 264.192 334.169 264.037 334.297 263.909C334.433 263.773 334.596 263.705 334.785 263.705C334.966 263.705 335.121 263.773 335.249 263.909C335.385 264.037 335.453 264.192 335.453 264.374C335.453 264.555 335.385 264.714 335.249 264.85C335.121 264.986 334.966 265.054 334.785 265.054ZM339.699 272.024C339.147 272.024 338.633 271.888 338.157 271.616C337.689 271.336 337.315 270.962 337.035 270.494C336.756 270.018 336.616 269.504 336.616 268.952C336.616 268.401 336.756 267.891 337.035 267.422C337.315 266.954 337.689 266.584 338.157 266.312C338.633 266.032 339.147 265.892 339.699 265.892C340.25 265.892 340.76 266.032 341.229 266.312C341.705 266.584 342.082 266.954 342.362 267.422C342.642 267.891 342.781 268.401 342.781 268.952C342.781 269.504 342.642 270.018 342.362 270.494C342.082 270.962 341.705 271.336 341.229 271.616C340.76 271.888 340.25 272.024 339.699 272.024ZM339.699 271.049C340.054 271.049 340.379 270.954 340.673 270.766C340.976 270.577 341.214 270.324 341.387 270.006C341.569 269.681 341.659 269.33 341.659 268.952C341.659 268.574 341.569 268.227 341.387 267.91C341.214 267.585 340.976 267.332 340.673 267.15C340.379 266.961 340.054 266.867 339.699 266.867C339.344 266.867 339.015 266.961 338.713 267.15C338.418 267.332 338.18 267.585 337.999 267.91C337.825 268.227 337.738 268.574 337.738 268.952C337.738 269.33 337.825 269.681 337.999 270.006C338.18 270.324 338.418 270.577 338.713 270.766C339.015 270.954 339.344 271.049 339.699 271.049ZM347.053 265.892C347.476 265.892 347.854 265.987 348.186 266.176C348.519 266.364 348.776 266.633 348.957 266.98C349.146 267.32 349.24 267.713 349.24 268.159V271.888H348.152V268.352C348.152 267.913 348.028 267.558 347.778 267.286C347.529 267.007 347.204 266.867 346.804 266.867C346.509 266.867 346.237 266.931 345.988 267.06C345.738 267.18 345.542 267.347 345.398 267.558C345.255 267.77 345.183 268 345.183 268.25V271.888H344.061V266.028H345.183V266.89C345.357 266.595 345.61 266.357 345.942 266.176C346.282 265.987 346.653 265.892 347.053 265.892ZM352.802 272.024C352.364 272.024 351.926 271.948 351.487 271.797C351.049 271.646 350.656 271.43 350.309 271.151L350.819 270.38C351.144 270.622 351.476 270.807 351.816 270.936C352.156 271.056 352.488 271.117 352.813 271.117C353.161 271.117 353.437 271.045 353.641 270.902C353.852 270.758 353.958 270.565 353.958 270.324C353.958 270.074 353.848 269.889 353.629 269.768C353.41 269.64 353.066 269.511 352.598 269.383C351.88 269.179 351.363 268.956 351.045 268.714C350.736 268.472 350.581 268.125 350.581 267.672C350.581 267.135 350.777 266.704 351.17 266.38C351.57 266.055 352.084 265.892 352.711 265.892C353.082 265.892 353.456 265.953 353.833 266.074C354.211 266.194 354.559 266.361 354.876 266.572L354.411 267.366C353.807 266.988 353.24 266.799 352.711 266.799C352.402 266.799 352.145 266.867 351.941 267.003C351.744 267.131 351.646 267.313 351.646 267.547C351.646 267.698 351.691 267.819 351.782 267.91C351.873 268 352.009 268.083 352.19 268.159C352.371 268.227 352.655 268.321 353.04 268.442C353.463 268.571 353.807 268.695 354.071 268.816C354.343 268.93 354.57 269.1 354.751 269.326C354.933 269.553 355.023 269.848 355.023 270.21C355.023 270.762 354.816 271.204 354.4 271.536C353.992 271.861 353.459 272.024 352.802 272.024Z" fill="#CBD4D8"/>
</g>
<path d="M253.667 288.816V249.959H247.19V288.816H253.667Z" fill="#3A4D55" mask="url(#path-27-inside-5_10150_3806)"/>
<path opacity="0.6" d="M404.643 31.8651V376.318" stroke="black" stroke-linecap="round"/>
</g>
<g clip-path="url(#clip6_10150_3806)">
<rect width="178.905" height="58.8571" transform="translate(424.476 31.6256)" fill="#22343C"/>
<path d="M431.098 65.2485C427.99 65.2485 425.334 62.6094 425.334 59.4847C425.334 56.3599 427.99 53.7371 431.098 53.7371C432.685 53.7371 434.158 54.4009 435.211 55.4856L434.061 56.5866C433.3 55.7771 432.248 55.2428 431.098 55.2428C428.88 55.2428 427.002 57.1856 427.002 59.4847C427.002 61.7999 428.88 63.7428 431.098 63.7428C432.248 63.7428 433.3 63.2085 434.061 62.399L435.211 63.4999C434.158 64.5685 432.685 65.2485 431.098 65.2485ZM441.205 56.4894C443.051 56.4894 444.33 57.8009 444.33 59.7275V65.0542H442.775V60.0028C442.775 58.7399 441.982 57.8818 440.849 57.8818C439.57 57.8818 438.534 58.7561 438.534 59.8571V65.0542H436.931V53.7371H438.534V57.9142C439.019 57.0723 440.055 56.4894 441.205 56.4894ZM449.792 56.4894C452.043 56.4894 453.29 57.9142 453.29 59.9866V65.0542H451.719V63.9209C451.104 64.779 449.97 65.2485 448.934 65.2485C447.17 65.2485 445.842 64.2123 445.842 62.5771C445.842 60.9094 447.348 59.7923 449.193 59.7923C450.019 59.7923 450.91 59.9704 451.719 60.2456V59.9866C451.719 58.9342 451.233 57.8171 449.566 57.8171C448.74 57.8171 447.947 58.1409 447.218 58.5132L446.619 57.3313C447.817 56.7323 448.87 56.4894 449.792 56.4894ZM449.258 63.9856C450.294 63.9856 451.444 63.4675 451.719 62.4313V61.3142C451.023 61.1037 450.262 60.9904 449.436 60.9904C448.319 60.9904 447.38 61.6218 447.38 62.5285C447.38 63.4352 448.19 63.9856 449.258 63.9856ZM457.183 58.319C457.701 57.2018 458.834 56.4894 460.292 56.4894V57.8818C458.446 57.8818 457.183 58.9828 457.183 60.6018V65.0542H455.58V56.6837H457.183V58.319ZM465.185 56.4894C467.435 56.4894 468.682 57.9142 468.682 59.9866V65.0542H467.111V63.9209C466.496 64.779 465.363 65.2485 464.327 65.2485C462.562 65.2485 461.234 64.2123 461.234 62.5771C461.234 60.9094 462.74 59.7923 464.586 59.7923C465.411 59.7923 466.302 59.9704 467.111 60.2456V59.9866C467.111 58.9342 466.626 57.8171 464.958 57.8171C464.132 57.8171 463.339 58.1409 462.61 58.5132L462.011 57.3313C463.21 56.7323 464.262 56.4894 465.185 56.4894ZM464.65 63.9856C465.687 63.9856 466.836 63.4675 467.111 62.4313V61.3142C466.415 61.1037 465.654 60.9904 464.829 60.9904C463.711 60.9904 462.772 61.6218 462.772 62.5285C462.772 63.4352 463.582 63.9856 464.65 63.9856ZM474.696 65.2485C472.3 65.2485 470.276 63.2409 470.276 60.8609C470.276 58.4809 472.316 56.4894 474.696 56.4894C475.911 56.4894 476.979 56.9913 477.789 57.7847L476.704 58.7885C476.186 58.2218 475.457 57.8818 474.696 57.8818C473.174 57.8818 471.895 59.2418 471.895 60.8609C471.895 62.4961 473.174 63.8561 474.696 63.8561C475.473 63.8561 476.218 63.4999 476.752 62.9171L477.837 63.9047C477.028 64.7304 475.943 65.2485 474.696 65.2485ZM482.927 63.5485L483.526 64.6494C483.072 65.0218 482.441 65.2485 481.842 65.2485C480.547 65.2485 479.64 64.3094 479.64 62.9656V58.0437H478.393V56.6837H479.64V54.3847H481.21V56.6837H483.186V58.0437H481.21V62.8523C481.21 63.4352 481.615 63.8561 482.085 63.8561C482.441 63.8561 482.765 63.7266 482.927 63.5485ZM488.68 63.9209C489.586 63.9209 490.639 63.5161 491.157 62.9656L492.096 63.9532C491.367 64.7466 489.894 65.2485 488.712 65.2485C486.397 65.2485 484.389 63.419 484.389 60.8447C484.389 58.3352 486.283 56.4894 488.599 56.4894C491.157 56.4894 492.646 58.3999 492.646 61.379H485.96C486.154 62.8523 487.19 63.9209 488.68 63.9209ZM488.631 57.8171C487.287 57.8171 486.219 58.7561 485.976 60.1971H491.092C490.93 58.8532 490.088 57.8171 488.631 57.8171ZM495.964 58.319C496.482 57.2018 497.616 56.4894 499.073 56.4894V57.8818C497.227 57.8818 495.964 58.9828 495.964 60.6018V65.0542H494.361V56.6837H495.964V58.319ZM501.602 55.2913C501.068 55.2913 500.631 54.838 500.631 54.3199C500.631 53.818 501.068 53.3647 501.602 53.3647C502.136 53.3647 502.557 53.818 502.557 54.3199C502.557 54.838 502.136 55.2913 501.602 55.2913ZM500.793 65.0542V56.6837H502.396V65.0542H500.793ZM507.605 65.2485C506.374 65.2485 505.047 64.8113 504.043 64.0018L504.771 62.9009C505.694 63.5809 506.698 63.9532 507.621 63.9532C508.625 63.9532 509.256 63.4999 509.256 62.8199C509.256 62.0266 508.382 61.7675 507.313 61.4761C505.403 60.9418 504.431 60.3913 504.431 59.0313C504.431 57.4932 505.71 56.4894 507.475 56.4894C508.56 56.4894 509.677 56.8618 510.568 57.4609L509.904 58.5942C509.078 58.0761 508.236 57.7847 507.475 57.7847C506.633 57.7847 505.953 58.1571 505.953 58.8532C505.953 59.5009 506.52 59.6952 507.945 60.1323C509.321 60.5371 510.778 60.9904 510.778 62.658C510.778 64.2447 509.45 65.2485 507.605 65.2485ZM516.142 63.5485L516.741 64.6494C516.288 65.0218 515.657 65.2485 515.058 65.2485C513.762 65.2485 512.856 64.3094 512.856 62.9656V58.0437H511.609V56.6837H512.856V54.3847H514.426V56.6837H516.401V58.0437H514.426V62.8523C514.426 63.4352 514.831 63.8561 515.3 63.8561C515.657 63.8561 515.98 63.7266 516.142 63.5485ZM519.062 55.2913C518.528 55.2913 518.091 54.838 518.091 54.3199C518.091 53.818 518.528 53.3647 519.062 53.3647C519.596 53.3647 520.017 53.818 520.017 54.3199C520.017 54.838 519.596 55.2913 519.062 55.2913ZM518.252 65.0542V56.6837H519.855V65.0542H518.252ZM526.036 65.2485C523.64 65.2485 521.616 63.2409 521.616 60.8609C521.616 58.4809 523.656 56.4894 526.036 56.4894C527.25 56.4894 528.319 56.9913 529.128 57.7847L528.043 58.7885C527.525 58.2218 526.797 57.8818 526.036 57.8818C524.514 57.8818 523.235 59.2418 523.235 60.8609C523.235 62.4961 524.514 63.8561 526.036 63.8561C526.813 63.8561 527.558 63.4999 528.092 62.9171L529.177 63.9047C528.367 64.7304 527.283 65.2485 526.036 65.2485ZM533.44 65.2485C532.21 65.2485 530.882 64.8113 529.879 64.0018L530.607 62.9009C531.53 63.5809 532.534 63.9532 533.457 63.9532C534.46 63.9532 535.092 63.4999 535.092 62.8199C535.092 62.0266 534.218 61.7675 533.149 61.4761C531.239 60.9418 530.267 60.3913 530.267 59.0313C530.267 57.4932 531.546 56.4894 533.311 56.4894C534.396 56.4894 535.513 56.8618 536.403 57.4609L535.74 58.5942C534.914 58.0761 534.072 57.7847 533.311 57.7847C532.469 57.7847 531.789 58.1571 531.789 58.8532C531.789 59.5009 532.356 59.6952 533.78 60.1323C535.157 60.5371 536.614 60.9904 536.614 62.658C536.614 64.2447 535.286 65.2485 533.44 65.2485Z" fill="#E3EAED"/>
</g>
<path d="M668.904 61.0541L673.378 56.5801C673.561 56.366 673.549 56.0468 673.35 55.8474C673.15 55.6481 672.831 55.6358 672.617 55.8191L668.143 60.2931L663.669 55.8137C663.457 55.6021 663.114 55.6021 662.903 55.8137C662.691 56.0254 662.691 56.3685 662.903 56.5801L667.382 61.0541L662.903 65.528C662.749 65.6599 662.682 65.867 662.729 66.0642C662.777 66.2613 662.93 66.4152 663.128 66.4627C663.325 66.5101 663.532 66.443 663.664 66.289L668.143 61.815L672.617 66.289C672.831 66.4724 673.15 66.46 673.35 66.2607C673.549 66.0613 673.561 65.7422 673.378 65.528L668.904 61.0541Z" fill="#CBD4D8"/>
<path d="M430.548 104.872H431.611V112.102H430.548V108.913H426.612V112.102H425.55V104.872H426.612V107.924H430.548V104.872ZM433.68 112.102V104.872H436.721C438.237 104.872 439.405 105.851 439.405 107.229C439.405 108.608 438.237 109.587 436.721 109.587H434.743V112.102H433.68ZM434.743 108.597H436.564C437.605 108.597 438.321 108.082 438.321 107.229C438.321 106.377 437.605 105.861 436.564 105.861H434.743V108.597Z" fill="white"/>
<mask id="path-35-inside-6_10150_3806" fill="white">
<path d="M477.905 90.4828H607.428V110.483H477.905V90.4828Z"/>
</mask>
<path d="M607.428 109.673H477.905V111.292H607.428V109.673Z" fill="#FF674C" mask="url(#path-35-inside-6_10150_3806)"/>
<path fill-rule="evenodd" clip-rule="evenodd" d="M611.476 100.197C611.476 96.6203 614.376 93.7208 617.952 93.7208C619.67 93.7208 621.317 94.4031 622.532 95.6177C623.746 96.8322 624.428 98.4794 624.428 100.197C624.428 103.774 621.529 106.673 617.952 106.673C614.376 106.673 611.476 103.774 611.476 100.197ZM617.251 100.613C617.251 101 617.565 101.314 617.952 101.314C618.34 101.314 618.654 101 618.654 100.613V97.3745C618.654 96.987 618.34 96.6729 617.952 96.6729C617.565 96.6729 617.251 96.987 617.251 97.3745V100.613ZM617.952 105.594C614.972 105.594 612.555 103.178 612.555 100.197C612.555 97.2165 614.972 94.8003 617.952 94.8003C620.933 94.8003 623.349 97.2165 623.349 100.197C623.349 101.628 622.78 103.001 621.768 104.013C620.756 105.025 619.383 105.594 617.952 105.594ZM618.735 102.906C618.735 103.353 618.372 103.716 617.925 103.716C617.478 103.716 617.116 103.353 617.116 102.906C617.116 102.459 617.478 102.097 617.925 102.097C618.372 102.097 618.735 102.459 618.735 102.906Z" fill="#FF674C"/>
<path d="M483.612 118.562C483.612 119.604 482.802 120.37 481.707 120.504L483.265 122.721H482.473L480.923 120.521H479.57V122.721H478.875V116.603H481.36C482.624 116.603 483.612 117.414 483.612 118.562ZM479.57 117.262V119.862H481.235C482.232 119.862 482.909 119.382 482.909 118.562C482.909 117.743 482.232 117.262 481.235 117.262H479.57ZM486.931 122.231C487.474 122.231 488.097 121.991 488.382 121.679L488.792 122.115C488.391 122.552 487.581 122.828 486.939 122.828C485.711 122.828 484.606 121.821 484.606 120.406C484.606 119.034 485.639 118.01 486.877 118.01C488.266 118.01 489.059 119.061 489.059 120.673H485.292C485.39 121.572 486.022 122.231 486.931 122.231ZM486.904 118.607C486.085 118.607 485.426 119.186 485.301 120.076H488.4C488.311 119.248 487.821 118.607 486.904 118.607ZM493.78 118.117H494.448V124.252H493.78V121.857C493.433 122.463 492.845 122.828 492.106 122.828C490.895 122.828 489.987 121.83 489.987 120.414C489.987 119.008 490.895 118.01 492.106 118.01C492.845 118.01 493.433 118.375 493.78 118.981V118.117ZM492.231 122.231C493.139 122.231 493.78 121.474 493.78 120.414C493.78 119.355 493.139 118.607 492.231 118.607C491.331 118.607 490.69 119.355 490.69 120.414C490.69 121.474 491.331 122.231 492.231 122.231ZM499.292 118.117H499.959V122.721H499.292V121.991C499.024 122.48 498.437 122.828 497.778 122.828C496.754 122.828 496.05 122.106 496.05 121.047V118.117H496.718V120.958C496.718 121.715 497.19 122.231 497.867 122.231C498.65 122.231 499.292 121.697 499.292 121.047V118.117ZM502.005 117.28C501.756 117.28 501.56 117.075 501.56 116.835C501.56 116.603 501.756 116.398 502.005 116.398C502.246 116.398 502.442 116.603 502.442 116.835C502.442 117.075 502.246 117.28 502.005 117.28ZM501.667 122.721V118.117H502.335V122.721H501.667ZM504.714 119.016C504.99 118.402 505.649 118.01 506.495 118.01V118.607C505.453 118.607 504.714 119.248 504.714 120.147V122.721H504.046V118.117H504.714V119.016ZM509.68 122.231C510.223 122.231 510.847 121.991 511.132 121.679L511.541 122.115C511.141 122.552 510.33 122.828 509.689 122.828C508.46 122.828 507.356 121.821 507.356 120.406C507.356 119.034 508.389 118.01 509.627 118.01C511.016 118.01 511.808 119.061 511.808 120.673H508.042C508.14 121.572 508.772 122.231 509.68 122.231ZM509.653 118.607C508.834 118.607 508.175 119.186 508.051 120.076H511.149C511.06 119.248 510.571 118.607 509.653 118.607ZM516.53 116.496H517.197V122.721H516.53V121.857C516.182 122.463 515.595 122.828 514.856 122.828C513.644 122.828 512.736 121.83 512.736 120.414C512.736 119.008 513.644 118.01 514.856 118.01C515.595 118.01 516.182 118.375 516.53 118.981V116.496ZM514.98 122.231C515.888 122.231 516.53 121.474 516.53 120.414C516.53 119.355 515.888 118.607 514.98 118.607C514.081 118.607 513.44 119.355 513.44 120.414C513.44 121.474 514.081 122.231 514.98 122.231Z" fill="#FF674C"/>
<path d="M430.948 156.028L430.306 154.523H426.56L425.918 156.028H424.739L427.844 148.798H429.022L432.127 156.028H430.948ZM426.96 153.597H429.906L428.433 150.166L426.96 153.597ZM435.487 155.049L435.876 155.764C435.581 156.007 435.171 156.154 434.782 156.154C433.94 156.154 433.35 155.543 433.35 154.67V151.471H432.54V150.587H433.35V149.092H434.371V150.587H435.655V151.471H434.371V154.596C434.371 154.975 434.634 155.249 434.939 155.249C435.171 155.249 435.381 155.165 435.487 155.049ZM439.208 155.049L439.598 155.764C439.303 156.007 438.893 156.154 438.503 156.154C437.661 156.154 437.072 155.543 437.072 154.67V151.471H436.262V150.587H437.072V149.092H438.093V150.587H439.377V151.471H438.093V154.596C438.093 154.975 438.356 155.249 438.661 155.249C438.893 155.249 439.103 155.165 439.208 155.049ZM442.667 150.46C444.13 150.46 444.94 151.387 444.94 152.734V156.028H443.919V155.291C443.519 155.849 442.783 156.154 442.109 156.154C440.962 156.154 440.099 155.48 440.099 154.417C440.099 153.333 441.078 152.607 442.277 152.607C442.814 152.607 443.393 152.723 443.919 152.902V152.734C443.919 152.05 443.603 151.323 442.519 151.323C441.983 151.323 441.467 151.534 440.994 151.776L440.604 151.008C441.383 150.618 442.067 150.46 442.667 150.46ZM442.32 155.333C442.993 155.333 443.74 154.996 443.919 154.323V153.597C443.467 153.46 442.972 153.386 442.435 153.386C441.709 153.386 441.099 153.797 441.099 154.386C441.099 154.975 441.625 155.333 442.32 155.333ZM448.874 156.154C447.316 156.154 446.001 154.849 446.001 153.302C446.001 151.755 447.327 150.46 448.874 150.46C449.663 150.46 450.357 150.787 450.884 151.302L450.179 151.955C449.842 151.587 449.368 151.366 448.874 151.366C447.884 151.366 447.053 152.25 447.053 153.302C447.053 154.365 447.884 155.249 448.874 155.249C449.379 155.249 449.863 155.017 450.21 154.638L450.915 155.28C450.389 155.817 449.684 156.154 448.874 156.154ZM451.922 156.028V148.671H452.964V153.376L455.626 150.587H456.889L454.542 153.049L456.784 156.028H455.542L453.837 153.744L452.964 154.628V156.028H451.922Z" fill="white"/>
<mask id="path-40-inside-7_10150_3806" fill="white">
<path d="M477.905 142.528H607.428V162.528H477.905V142.528Z"/>
</mask>
<path d="M607.428 161.718H477.905V163.337H607.428V161.718Z" fill="#CBD4D8" mask="url(#path-40-inside-7_10150_3806)"/>
<path d="M486.349 154.749H490.295V155.528H485.528V148.298H486.349V154.749ZM491.792 149.098C491.497 149.098 491.266 148.855 491.266 148.571C491.266 148.298 491.497 148.056 491.792 148.056C492.076 148.056 492.307 148.298 492.307 148.571C492.307 148.855 492.076 149.098 491.792 149.098ZM491.392 155.528V150.087H492.181V155.528H491.392ZM493.932 155.528V148.171H494.721V153.097L497.699 150.087H498.709L496.257 152.581L498.573 155.528H497.583L495.7 153.118L494.721 154.086V155.528H493.932ZM501.921 154.949C502.562 154.949 503.299 154.665 503.636 154.296L504.12 154.812C503.646 155.328 502.689 155.654 501.931 155.654C500.479 155.654 499.174 154.465 499.174 152.791C499.174 151.171 500.395 149.96 501.857 149.96C503.499 149.96 504.436 151.202 504.436 153.107H499.984C500.1 154.17 500.847 154.949 501.921 154.949ZM501.889 150.666C500.921 150.666 500.142 151.35 499.995 152.402H503.657C503.552 151.423 502.973 150.666 501.889 150.666ZM507.365 155.654C506.607 155.654 505.765 155.37 505.113 154.844L505.523 154.265C506.144 154.717 506.765 154.949 507.365 154.949C508.08 154.949 508.564 154.612 508.564 154.096C508.564 153.507 507.933 153.318 507.196 153.107C505.881 152.728 505.376 152.339 505.376 151.56C505.376 150.571 506.197 149.96 507.28 149.96C507.954 149.96 508.649 150.192 509.227 150.571L508.849 151.181C508.301 150.834 507.765 150.666 507.28 150.666C506.67 150.666 506.165 150.939 506.165 151.465C506.165 151.939 506.565 152.086 507.575 152.413C508.449 152.686 509.354 152.981 509.354 154.012C509.354 155.012 508.491 155.654 507.365 155.654ZM515.547 154.728L515.937 155.307C515.653 155.528 515.295 155.654 514.926 155.654C514.148 155.654 513.6 155.075 513.6 154.265V150.792H512.748V150.087H513.6V148.592H514.39V150.087H515.726V150.792H514.39V154.265C514.39 154.665 514.663 154.949 514.979 154.949C515.221 154.949 515.432 154.854 515.547 154.728ZM519.326 155.654C517.779 155.654 516.516 154.37 516.516 152.802C516.516 151.234 517.779 149.96 519.326 149.96C520.862 149.96 522.125 151.234 522.125 152.802C522.125 154.37 520.862 155.654 519.326 155.654ZM519.326 154.949C520.41 154.949 521.304 153.981 521.304 152.802C521.304 151.623 520.41 150.666 519.326 150.666C518.231 150.666 517.337 151.623 517.337 152.802C517.337 153.981 518.231 154.949 519.326 154.949ZM527.2 149.34V150.087H528.536V150.792H527.2V155.528H526.41V150.792H525.558V150.087H526.41V149.34C526.41 148.529 526.958 147.95 527.736 147.95C528.105 147.95 528.463 148.077 528.747 148.298L528.357 148.877C528.242 148.75 528.031 148.656 527.789 148.656C527.473 148.656 527.2 148.94 527.2 149.34ZM529.88 149.098C529.585 149.098 529.354 148.855 529.354 148.571C529.354 148.298 529.585 148.056 529.88 148.056C530.164 148.056 530.396 148.298 530.396 148.571C530.396 148.855 530.164 149.098 529.88 149.098ZM529.48 155.528V150.087H530.269V155.528H529.48ZM536.029 150.087H536.819V154.949C536.819 156.348 535.714 157.338 534.146 157.338C533.262 157.338 532.441 157.032 531.946 156.612L532.293 155.991C532.714 156.391 533.367 156.633 534.04 156.633C535.293 156.633 536.029 156.012 536.029 154.949V154.065C535.608 154.728 534.914 155.128 534.051 155.128C532.588 155.128 531.546 154.054 531.546 152.539C531.546 151.023 532.588 149.96 534.051 149.96C534.914 149.96 535.608 150.36 536.029 151.023V150.087ZM534.198 154.423C535.272 154.423 536.029 153.644 536.029 152.539C536.029 151.444 535.272 150.666 534.198 150.666C533.135 150.666 532.378 151.444 532.378 152.539C532.378 153.644 533.135 154.423 534.198 154.423ZM541.146 149.96C542.356 149.96 543.188 150.813 543.188 152.065V155.528H542.398V152.17C542.398 151.276 541.84 150.666 541.041 150.666C540.115 150.666 539.357 151.297 539.357 152.065V155.528H538.568V148.171H539.357V150.95C539.673 150.371 540.367 149.96 541.146 149.96ZM546.912 154.728L547.301 155.307C547.017 155.528 546.659 155.654 546.291 155.654C545.512 155.654 544.965 155.075 544.965 154.265V150.792H544.113V150.087H544.965V148.592H545.754V150.087H547.091V150.792H545.754V154.265C545.754 154.665 546.028 154.949 546.344 154.949C546.586 154.949 546.796 154.854 546.912 154.728Z" fill="#ACB8BE"/>
<path d="M425.55 191.834V184.604H428.044C430.38 184.604 432.032 186.099 432.032 188.214C432.032 190.329 430.38 191.834 428.044 191.834H425.55ZM426.612 190.866H428.107C429.77 190.866 430.948 189.772 430.948 188.214C430.948 186.667 429.77 185.573 428.107 185.573H426.612V190.866ZM435.734 191.098C436.324 191.098 437.008 190.834 437.345 190.477L437.955 191.119C437.481 191.634 436.524 191.961 435.755 191.961C434.251 191.961 432.946 190.771 432.946 189.098C432.946 187.467 434.177 186.267 435.682 186.267C437.345 186.267 438.313 187.509 438.313 189.445H433.966C434.093 190.403 434.766 191.098 435.734 191.098ZM435.703 187.13C434.829 187.13 434.135 187.74 433.977 188.677H437.302C437.197 187.804 436.65 187.13 435.703 187.13ZM440.694 185.794V186.393H441.978V187.277H440.694V191.834H439.673V187.277H438.852V186.393H439.673V185.741C439.673 184.867 440.262 184.257 441.104 184.257C441.493 184.257 441.893 184.404 442.188 184.646L441.809 185.341C441.693 185.225 441.483 185.141 441.251 185.141C440.946 185.141 440.694 185.415 440.694 185.794ZM445.254 191.098C445.843 191.098 446.527 190.834 446.864 190.477L447.474 191.119C447 191.634 446.043 191.961 445.275 191.961C443.77 191.961 442.465 190.771 442.465 189.098C442.465 187.467 443.696 186.267 445.201 186.267C446.864 186.267 447.832 187.509 447.832 189.445H443.486C443.612 190.403 444.285 191.098 445.254 191.098ZM445.222 187.13C444.348 187.13 443.654 187.74 443.496 188.677H446.822C446.716 187.804 446.169 187.13 445.222 187.13ZM451.749 186.267C452.949 186.267 453.78 187.12 453.78 188.372V191.834H452.77V188.551C452.77 187.73 452.254 187.172 451.518 187.172C450.686 187.172 450.013 187.74 450.013 188.456V191.834H448.971V186.393H450.013V187.193C450.329 186.646 451.002 186.267 451.749 186.267ZM457.082 191.961C456.282 191.961 455.419 191.676 454.767 191.15L455.24 190.435C455.84 190.877 456.492 191.119 457.092 191.119C457.745 191.119 458.155 190.824 458.155 190.382C458.155 189.866 457.587 189.698 456.892 189.508C455.651 189.161 455.019 188.803 455.019 187.919C455.019 186.92 455.851 186.267 456.998 186.267C457.703 186.267 458.429 186.509 459.008 186.899L458.576 187.635C458.039 187.298 457.492 187.109 456.998 187.109C456.45 187.109 456.008 187.351 456.008 187.804C456.008 188.225 456.377 188.351 457.303 188.635C458.197 188.898 459.144 189.193 459.144 190.277C459.144 191.308 458.282 191.961 457.082 191.961ZM462.698 191.098C463.287 191.098 463.971 190.834 464.308 190.477L464.918 191.119C464.445 191.634 463.487 191.961 462.719 191.961C461.214 191.961 459.909 190.771 459.909 189.098C459.909 187.467 461.14 186.267 462.645 186.267C464.308 186.267 465.276 187.509 465.276 189.445H460.93C461.056 190.403 461.729 191.098 462.698 191.098ZM462.666 187.13C461.793 187.13 461.098 187.74 460.94 188.677H464.266C464.16 187.804 463.613 187.13 462.666 187.13Z" fill="white"/>
<mask id="path-44-inside-8_10150_3806" fill="white">
<path d="M477.905 178.334H607.428V198.334H477.905V178.334Z"/>
</mask>
<path d="M607.428 197.525H477.905V199.144H607.428V197.525Z" fill="#CBD4D8" mask="url(#path-44-inside-8_10150_3806)"/>
<path d="M488.59 188.303V187.525H491.484V190.356C490.811 191.029 489.674 191.461 488.674 191.461C486.675 191.461 484.97 189.745 484.97 187.714C484.97 185.683 486.675 183.978 488.674 183.978C489.674 183.978 490.811 184.399 491.484 185.083L490.926 185.651C490.4 185.094 489.464 184.736 488.674 184.736C487.117 184.736 485.801 186.104 485.801 187.714C485.801 189.335 487.117 190.703 488.674 190.703C489.348 190.703 490.127 190.44 490.663 190.029V188.303H488.59ZM495.444 191.461C493.897 191.461 492.635 190.177 492.635 188.609C492.635 187.041 493.897 185.767 495.444 185.767C496.981 185.767 498.244 187.041 498.244 188.609C498.244 190.177 496.981 191.461 495.444 191.461ZM495.444 190.755C496.528 190.755 497.423 189.787 497.423 188.609C497.423 187.43 496.528 186.472 495.444 186.472C494.35 186.472 493.455 187.43 493.455 188.609C493.455 189.787 494.35 190.755 495.444 190.755ZM501.859 191.461C500.312 191.461 499.049 190.177 499.049 188.609C499.049 187.041 500.312 185.767 501.859 185.767C503.395 185.767 504.658 187.041 504.658 188.609C504.658 190.177 503.395 191.461 501.859 191.461ZM501.859 190.755C502.943 190.755 503.837 189.787 503.837 188.609C503.837 187.43 502.943 186.472 501.859 186.472C500.764 186.472 499.87 187.43 499.87 188.609C499.87 189.787 500.764 190.755 501.859 190.755ZM509.999 183.978H510.788V191.334H509.999V190.313C509.588 191.029 508.894 191.461 508.02 191.461C506.589 191.461 505.516 190.282 505.516 188.609C505.516 186.946 506.589 185.767 508.02 185.767C508.894 185.767 509.588 186.199 509.999 186.914V183.978ZM508.168 190.755C509.241 190.755 509.999 189.861 509.999 188.609C509.999 187.356 509.241 186.472 508.168 186.472C507.105 186.472 506.347 187.356 506.347 188.609C506.347 189.861 507.105 190.755 508.168 190.755ZM517.647 190.755C518.289 190.755 519.026 190.471 519.362 190.103L519.847 190.619C519.373 191.134 518.415 191.461 517.658 191.461C516.205 191.461 514.9 190.271 514.9 188.598C514.9 186.977 516.121 185.767 517.584 185.767C519.226 185.767 520.162 187.009 520.162 188.914H515.711C515.826 189.977 516.574 190.755 517.647 190.755ZM517.616 186.472C516.647 186.472 515.869 187.156 515.721 188.209H519.384C519.278 187.23 518.699 186.472 517.616 186.472ZM523.986 185.767C525.196 185.767 526.027 186.62 526.027 187.872V191.334H525.238V187.977C525.238 187.083 524.68 186.472 523.881 186.472C522.954 186.472 522.197 187.104 522.197 187.872V191.334H521.407V185.893H522.197V186.756C522.512 186.178 523.207 185.767 523.986 185.767ZM531.709 183.978H532.498V191.334H531.709V190.313C531.299 191.029 530.604 191.461 529.731 191.461C528.299 191.461 527.226 190.282 527.226 188.609C527.226 186.946 528.299 185.767 529.731 185.767C530.604 185.767 531.299 186.199 531.709 186.914V183.978ZM529.878 190.755C530.951 190.755 531.709 189.861 531.709 188.609C531.709 187.356 530.951 186.472 529.878 186.472C528.815 186.472 528.057 187.356 528.057 188.609C528.057 189.861 528.815 190.755 529.878 190.755ZM537.951 185.893H538.74V191.334H537.951V190.471C537.635 191.05 536.94 191.461 536.161 191.461C534.951 191.461 534.12 190.608 534.12 189.356V185.893H534.909V189.251C534.909 190.145 535.467 190.755 536.267 190.755C537.193 190.755 537.951 190.124 537.951 189.356V185.893ZM541.275 186.956C541.601 186.23 542.38 185.767 543.38 185.767V186.472C542.148 186.472 541.275 187.23 541.275 188.293V191.334H540.486V185.893H541.275V186.956ZM546.524 185.767C548.008 185.767 548.734 186.704 548.734 188.019V191.334H547.945V190.482C547.555 191.124 546.745 191.461 546.029 191.461C544.882 191.461 544.04 190.798 544.04 189.724C544.04 188.64 545.009 187.914 546.177 187.914C546.766 187.914 547.387 188.04 547.945 188.219V188.019C547.945 187.283 547.65 186.441 546.471 186.441C545.924 186.441 545.377 186.683 544.882 186.935L544.567 186.293C545.345 185.904 545.998 185.767 546.524 185.767ZM546.166 190.766C546.882 190.766 547.734 190.398 547.945 189.629V188.798C547.45 188.661 546.892 188.577 546.303 188.577C545.493 188.577 544.809 189.04 544.809 189.693C544.809 190.366 545.398 190.766 546.166 190.766ZM552.933 185.767C554.143 185.767 554.974 186.62 554.974 187.872V191.334H554.185V187.977C554.185 187.083 553.627 186.472 552.827 186.472C551.901 186.472 551.144 187.104 551.144 187.872V191.334H550.354V185.893H551.144V186.756C551.459 186.178 552.154 185.767 552.933 185.767ZM558.93 191.461C557.404 191.461 556.11 190.156 556.11 188.609C556.11 187.062 557.404 185.767 558.93 185.767C559.667 185.767 560.351 186.072 560.866 186.567L560.319 187.104C559.961 186.714 559.467 186.472 558.93 186.472C557.846 186.472 556.941 187.451 556.941 188.609C556.941 189.777 557.846 190.755 558.93 190.755C559.477 190.755 559.982 190.503 560.351 190.092L560.898 190.629C560.382 191.145 559.688 191.461 558.93 191.461ZM564.264 190.755C564.906 190.755 565.643 190.471 565.98 190.103L566.464 190.619C565.99 191.134 565.032 191.461 564.275 191.461C562.822 191.461 561.517 190.271 561.517 188.598C561.517 186.977 562.738 185.767 564.201 185.767C565.843 185.767 566.779 187.009 566.779 188.914H562.328C562.444 189.977 563.191 190.755 564.264 190.755ZM564.233 186.472C563.264 186.472 562.486 187.156 562.338 188.209H566.001C565.895 187.23 565.317 186.472 564.233 186.472Z" fill="#ACB8BE"/>
<path d="M427.896 227.757C426.686 227.757 425.686 227.336 424.929 226.599L425.56 225.81C426.202 226.42 426.96 226.82 427.938 226.82C428.938 226.82 429.454 226.294 429.454 225.715C429.454 225.031 428.854 224.768 427.644 224.494C426.17 224.147 425.192 223.705 425.192 222.4C425.192 221.19 426.244 220.285 427.707 220.285C428.812 220.285 429.643 220.685 430.338 221.306L429.727 222.105C429.117 221.548 428.391 221.221 427.654 221.221C426.844 221.221 426.276 221.726 426.276 222.305C426.276 222.979 426.897 223.21 428.086 223.494C429.528 223.831 430.527 224.315 430.527 225.61C430.527 226.831 429.601 227.757 427.896 227.757ZM434.793 222.074C436.234 222.074 437.297 223.252 437.297 224.915C437.297 226.588 436.234 227.767 434.793 227.767C433.961 227.767 433.288 227.367 432.867 226.704V229.451H431.825V222.2H432.867V223.126C433.288 222.474 433.961 222.074 434.793 222.074ZM434.551 226.862C435.54 226.862 436.245 226.052 436.245 224.915C436.245 223.779 435.54 222.979 434.551 222.979C433.561 222.979 432.867 223.779 432.867 224.915C432.867 226.052 433.561 226.862 434.551 226.862ZM440.895 226.904C441.484 226.904 442.168 226.641 442.505 226.283L443.115 226.925C442.642 227.441 441.684 227.767 440.916 227.767C439.411 227.767 438.106 226.578 438.106 224.905C438.106 223.273 439.337 222.074 440.842 222.074C442.505 222.074 443.473 223.316 443.473 225.252H439.127C439.253 226.21 439.927 226.904 440.895 226.904ZM440.863 222.937C439.99 222.937 439.295 223.547 439.137 224.484H442.463C442.358 223.61 441.81 222.937 440.863 222.937ZM446.98 226.904C447.569 226.904 448.253 226.641 448.59 226.283L449.201 226.925C448.727 227.441 447.769 227.767 447.001 227.767C445.496 227.767 444.191 226.578 444.191 224.905C444.191 223.273 445.423 222.074 446.927 222.074C448.59 222.074 449.558 223.316 449.558 225.252H445.212C445.338 226.21 446.012 226.904 446.98 226.904ZM446.949 222.937C446.075 222.937 445.38 223.547 445.223 224.484H448.548C448.443 223.61 447.896 222.937 446.949 222.937ZM454.739 220.285H455.781V227.641H454.739V226.715C454.318 227.367 453.644 227.767 452.813 227.767C451.371 227.767 450.308 226.588 450.308 224.915C450.308 223.252 451.371 222.074 452.813 222.074C453.644 222.074 454.318 222.474 454.739 223.126V220.285ZM453.055 226.862C454.044 226.862 454.739 226.052 454.739 224.915C454.739 223.779 454.044 222.979 453.055 222.979C452.066 222.979 451.361 223.779 451.361 224.915C451.361 226.052 452.066 226.862 453.055 226.862Z" fill="white"/>
<mask id="path-48-inside-9_10150_3806" fill="white">
<path d="M477.905 214.141H607.428V234.141H477.905V214.141Z"/>
</mask>
<path d="M607.428 233.331H477.905V234.95H607.428V233.331Z" fill="#CBD4D8" mask="url(#path-48-inside-9_10150_3806)"/>
<path d="M486.349 226.362H490.295V227.141H485.528V219.911H486.349V226.362ZM491.792 220.711C491.497 220.711 491.266 220.469 491.266 220.185C491.266 219.911 491.497 219.669 491.792 219.669C492.076 219.669 492.307 219.911 492.307 220.185C492.307 220.469 492.076 220.711 491.792 220.711ZM491.392 227.141V221.7H492.181V227.141H491.392ZM493.932 227.141V219.785H494.721V224.71L497.699 221.7H498.709L496.257 224.194L498.573 227.141H497.583L495.7 224.731L494.721 225.699V227.141H493.932ZM501.921 226.562C502.562 226.562 503.299 226.278 503.636 225.91L504.12 226.425C503.646 226.941 502.689 227.267 501.931 227.267C500.479 227.267 499.174 226.078 499.174 224.405C499.174 222.784 500.395 221.574 501.857 221.574C503.499 221.574 504.436 222.816 504.436 224.72H499.984C500.1 225.783 500.847 226.562 501.921 226.562ZM501.889 222.279C500.921 222.279 500.142 222.963 499.995 224.015H503.657C503.552 223.037 502.973 222.279 501.889 222.279ZM507.365 227.267C506.607 227.267 505.765 226.983 505.113 226.457L505.523 225.878C506.144 226.331 506.765 226.562 507.365 226.562C508.08 226.562 508.564 226.225 508.564 225.71C508.564 225.12 507.933 224.931 507.196 224.72C505.881 224.342 505.376 223.952 505.376 223.173C505.376 222.184 506.197 221.574 507.28 221.574C507.954 221.574 508.649 221.805 509.227 222.184L508.849 222.795C508.301 222.447 507.765 222.279 507.28 222.279C506.67 222.279 506.165 222.552 506.165 223.079C506.165 223.552 506.565 223.7 507.575 224.026C508.449 224.299 509.354 224.594 509.354 225.625C509.354 226.625 508.491 227.267 507.365 227.267ZM515.547 226.341L515.937 226.92C515.653 227.141 515.295 227.267 514.926 227.267C514.148 227.267 513.6 226.688 513.6 225.878V222.405H512.748V221.7H513.6V220.206H514.39V221.7H515.726V222.405H514.39V225.878C514.39 226.278 514.663 226.562 514.979 226.562C515.221 226.562 515.432 226.467 515.547 226.341ZM519.326 227.267C517.779 227.267 516.516 225.983 516.516 224.415C516.516 222.847 517.779 221.574 519.326 221.574C520.862 221.574 522.125 222.847 522.125 224.415C522.125 225.983 520.862 227.267 519.326 227.267ZM519.326 226.562C520.41 226.562 521.304 225.594 521.304 224.415C521.304 223.237 520.41 222.279 519.326 222.279C518.231 222.279 517.337 223.237 517.337 224.415C517.337 225.594 518.231 226.562 519.326 226.562ZM527.01 222.763C527.336 222.037 528.115 221.574 529.115 221.574V222.279C527.884 222.279 527.01 223.037 527.01 224.099V227.141H526.221V221.7H527.01V222.763ZM534.017 221.7H534.806V227.141H534.017V226.278C533.701 226.857 533.007 227.267 532.228 227.267C531.018 227.267 530.186 226.415 530.186 225.162V221.7H530.976V225.057C530.976 225.952 531.533 226.562 532.333 226.562C533.259 226.562 534.017 225.931 534.017 225.162V221.7ZM539.13 221.574C540.341 221.574 541.172 222.426 541.172 223.679V227.141H540.383V223.784C540.383 222.889 539.825 222.279 539.025 222.279C538.099 222.279 537.341 222.91 537.341 223.679V227.141H536.552V221.7H537.341V222.563C537.657 221.984 538.352 221.574 539.13 221.574Z" fill="#ACB8BE"/>
<path d="M502.911 345.283C501.017 345.283 499.414 343.7 499.414 341.825C499.414 339.95 501.017 338.376 502.911 338.376C503.892 338.376 504.796 338.794 505.437 339.455L504.572 340.261C504.155 339.785 503.562 339.484 502.911 339.484C501.687 339.484 500.648 340.552 500.648 341.825C500.648 343.107 501.687 344.176 502.911 344.176C503.562 344.176 504.155 343.875 504.582 343.399L505.437 344.195C504.796 344.865 503.892 345.283 502.911 345.283ZM512.406 345.167L511.882 343.904H508.696L508.171 345.167H506.821L509.609 338.493H510.959L513.747 345.167H512.406ZM509.113 342.913H511.464L510.289 340.105L509.113 342.913ZM515.719 345.167V338.493H516.924L520.45 343.185V338.493H521.655V345.167H520.45L516.924 340.475V345.167H515.719ZM527.368 345.283C525.474 345.283 523.871 343.7 523.871 341.825C523.871 339.95 525.474 338.376 527.368 338.376C528.349 338.376 529.252 338.794 529.894 339.455L529.029 340.261C528.611 339.785 528.019 339.484 527.368 339.484C526.144 339.484 525.104 340.552 525.104 341.825C525.104 343.107 526.144 344.176 527.368 344.176C528.019 344.176 528.611 343.875 529.039 343.399L529.894 344.195C529.252 344.865 528.349 345.283 527.368 345.283ZM536.979 339.6H533.171V341.213H536.61V342.32H533.171V344.059H536.979V345.167H531.957V338.493H536.979V339.6ZM540.46 344.059H543.889V345.167H539.256V338.493H540.46V344.059Z" fill="#2EC0FF"/>
<rect x="564.119" y="328.5" width="50.619" height="28.3333" rx="2.83333" stroke="#2EC0FF" stroke-width="0.809524"/>
<path d="M574.352 345.167V338.493H577.625C578.781 338.493 579.588 339.192 579.588 340.164C579.588 340.844 579.238 341.32 578.645 341.64C579.413 342.009 579.869 342.621 579.869 343.35C579.869 344.419 578.985 345.167 577.742 345.167H574.352ZM575.556 341.223H577.324C577.917 341.223 578.344 340.873 578.344 340.387C578.344 339.892 577.917 339.542 577.324 339.542H575.556V341.223ZM575.556 344.117H577.509C578.16 344.117 578.626 343.719 578.626 343.165C578.626 342.612 578.16 342.213 577.509 342.213H575.556V344.117ZM587.011 345.167L586.486 343.904H583.3L582.776 345.167H581.425L584.213 338.493H585.564L588.352 345.167H587.011ZM583.718 342.913H586.069L584.893 340.105L583.718 342.913ZM593.384 345.283C591.49 345.283 589.887 343.7 589.887 341.825C589.887 339.95 591.49 338.376 593.384 338.376C594.365 338.376 595.268 338.794 595.91 339.455L595.045 340.261C594.627 339.785 594.035 339.484 593.384 339.484C592.16 339.484 591.12 340.552 591.12 341.825C591.12 343.107 592.16 344.176 593.384 344.176C594.035 344.176 594.627 343.875 595.055 343.399L595.91 344.195C595.268 344.865 594.365 345.283 593.384 345.283ZM597.973 345.167V338.493H599.178V341.757L602.102 338.493H603.598L600.926 341.436L603.782 345.167H602.296L600.081 342.291L599.178 343.263V345.167H597.973Z" fill="#2EC0FF"/>
<path d="M628.095 331.333C628.095 329.545 629.545 328.095 631.333 328.095H675.286C677.074 328.095 678.524 329.545 678.524 331.333V354C678.524 355.788 677.074 357.238 675.286 357.238H631.333C629.545 357.238 628.095 355.788 628.095 354V331.333Z" fill="#2EC0FF"/>
<path d="M638.732 345.167V338.493H639.937L643.463 343.185V338.493H644.668V345.167H643.463L639.937 340.475V345.167H638.732ZM652.343 339.6H648.535V341.213H651.974V342.32H648.535V344.059H652.343V345.167H647.321V338.493H652.343V339.6ZM660.351 338.493L657.874 341.825L660.351 345.167H658.913L657.155 342.796L655.387 345.167H653.968L656.446 341.835L653.968 338.493H655.406L657.164 340.863L658.932 338.493H660.351ZM663.85 345.167V339.6H661.713V338.493H667.192V339.6H665.064V345.167H663.85Z" fill="black"/>
</g>
<rect x="231.405" y="32.0304" width="465.476" height="344.048" rx="2.83333" stroke="black" stroke-width="0.809524"/>
</g>
</g>
<rect x="0.404762" y="0.404762" width="927.19" height="407.19" rx="3.59524" stroke="#4F6169" stroke-width="0.809524"/>
<defs>
<filter id="filter0_d_10150_3806" x="227" y="28.4351" width="474.286" height="352.857" filterUnits="userSpaceOnUse" color-interpolation-filters="sRGB">
<feFlood flood-opacity="0" result="BackgroundImageFix"/>
<feColorMatrix in="SourceAlpha" type="matrix" values="0 0 0 0 0 0 0 0 0 0 0 0 0 0 0 0 0 0 127 0" result="hardAlpha"/>
<feOffset dy="0.809524"/>
<feGaussianBlur stdDeviation="2"/>
<feColorMatrix type="matrix" values="0 0 0 0 0 0 0 0 0 0 0 0 0 0 0 0 0 0 0.2 0"/>
<feBlend mode="normal" in2="BackgroundImageFix" result="effect1_dropShadow_10150_3806"/>
<feBlend mode="normal" in="SourceGraphic" in2="effect1_dropShadow_10150_3806" result="shape"/>
</filter>
<clipPath id="clip0_10150_3806">
<rect width="928" height="408" rx="4" fill="white"/>
</clipPath>
<clipPath id="clip1_10150_3806">
<rect x="231" y="31.6256" width="466.286" height="344.857" rx="3.2381" fill="white"/>
</clipPath>
<clipPath id="clip2_10150_3806">
<rect width="174.048" height="344.857" fill="white" transform="translate(231 31.6256)"/>
</clipPath>
<clipPath id="clip3_10150_3806">
<rect width="178.905" height="58.8571" fill="white" transform="translate(250.428 31.6256)"/>
</clipPath>
<clipPath id="clip4_10150_3806">
<path d="M250.428 210.292H404.428V249.149H250.428V210.292Z" fill="white"/>
</clipPath>
<clipPath id="clip5_10150_3806">
<path d="M250.428 249.959H404.428V288.816H250.428V249.959Z" fill="white"/>
</clipPath>
<clipPath id="clip6_10150_3806">
<rect width="178.905" height="58.8571" fill="white" transform="translate(424.476 31.6256)"/>
</clipPath>
</defs>
</svg>
