<svg width="928" height="360" viewBox="0 0 928 360" fill="none" xmlns="http://www.w3.org/2000/svg">
<rect x="0.5" y="0.5" width="927" height="359" rx="3.5" fill="#1B2B32"/>
<path d="M165.212 41.756H166.868L163.424 50H161.756L158.312 41.756H159.968L162.596 48.008L165.212 41.756ZM169.316 50V41.756H170.804V50H169.316ZM180.293 43.124H175.589V45.116H179.837V46.484H175.589V48.632H180.293V50H174.089V41.756H180.293V43.124ZM184.929 50L182.313 41.756H183.957L185.721 47.66L187.677 41.756H189.297L191.241 47.66L193.017 41.756H194.649L192.045 50H190.557L188.493 43.88L186.417 50H184.929ZM205.209 50.144C202.869 50.144 200.889 48.188 200.889 45.872C200.889 43.556 202.869 41.612 205.209 41.612C207.561 41.612 209.541 43.556 209.541 45.872C209.541 48.188 207.561 50.144 205.209 50.144ZM205.209 48.776C206.733 48.776 208.005 47.456 208.005 45.872C208.005 44.3 206.733 42.98 205.209 42.98C203.697 42.98 202.413 44.3 202.413 45.872C202.413 47.456 203.697 48.776 205.209 48.776ZM212.285 50V41.756H215.873C217.625 41.756 218.957 42.884 218.957 44.492C218.957 46.1 217.625 47.228 215.873 47.228H213.773V50H212.285ZM213.773 45.848H215.693C216.713 45.848 217.421 45.332 217.421 44.492C217.421 43.652 216.713 43.136 215.693 43.136H213.773V45.848ZM223.441 50V43.124H220.801V41.756H227.569V43.124H224.941V50H223.441ZM230.07 50V41.756H231.558V50H230.07ZM238.623 50.144C236.283 50.144 234.303 48.188 234.303 45.872C234.303 43.556 236.283 41.612 238.623 41.612C240.975 41.612 242.955 43.556 242.955 45.872C242.955 48.188 240.975 50.144 238.623 50.144ZM238.623 48.776C240.147 48.776 241.419 47.456 241.419 45.872C241.419 44.3 240.147 42.98 238.623 42.98C237.111 42.98 235.827 44.3 235.827 45.872C235.827 47.456 237.111 48.776 238.623 48.776ZM245.699 50V41.756H247.187L251.543 47.552V41.756H253.031V50H251.543L247.187 44.204V50H245.699ZM259.164 50.132C257.76 50.132 256.548 49.652 255.636 48.8L256.512 47.732C257.268 48.416 258.144 48.848 259.224 48.848C260.232 48.848 260.76 48.344 260.76 47.756C260.76 47.072 260.172 46.844 258.852 46.532C257.148 46.136 255.972 45.644 255.972 44.096C255.972 42.656 257.196 41.612 258.924 41.612C260.232 41.612 261.228 42.056 262.044 42.764L261.228 43.856C260.52 43.244 259.692 42.896 258.876 42.896C258.036 42.896 257.484 43.388 257.484 43.964C257.484 44.636 258.084 44.876 259.392 45.176C261.108 45.56 262.26 46.112 262.26 47.612C262.26 49.088 261.144 50.132 259.164 50.132Z" fill="#2EC0FF"/>
<path d="M285.12 43.9915L280 49.2893L274.88 43.9915C274.59 43.6908 274.599 43.2123 274.9 42.9226C275.201 42.633 275.679 42.642 275.969 42.9426L280 47.116L284.036 42.9426C284.325 42.642 284.804 42.633 285.104 42.9226C285.405 43.2123 285.414 43.6908 285.124 43.9915H285.12Z" fill="#2EC0FF"/>
<path d="M150 28.5H296C297.933 28.5 299.5 30.067 299.5 32V60C299.5 61.933 297.933 63.5 296 63.5H150C148.067 63.5 146.5 61.933 146.5 60V32C146.5 30.067 148.067 28.5 150 28.5Z" stroke="#2EC0FF"/>
<g filter="url(#filter0_d_10314_11693)">
<path d="M146 68C146 65.7909 147.791 64 150 64H309C311.209 64 313 65.7909 313 68V228C313 230.209 311.209 232 309 232H150C147.791 232 146 230.209 146 228V68Z" fill="#22343C"/>
<rect width="165" height="24" transform="translate(147 76)" fill="#22343C"/>
<path d="M168.304 92.156C165.834 92.156 163.728 90.037 163.728 87.528C163.728 85.019 165.834 82.913 168.304 82.913C170.787 82.913 172.867 85.019 172.867 87.528C172.867 90.037 170.787 92.156 168.304 92.156ZM168.304 91.22C170.228 91.22 171.84 89.53 171.84 87.528C171.84 85.539 170.228 83.849 168.304 83.849C166.38 83.849 164.755 85.539 164.755 87.528C164.755 89.53 166.38 91.22 168.304 91.22ZM178.063 85.123C179.831 85.123 181.157 86.579 181.157 88.633C181.157 90.7 179.831 92.156 178.063 92.156C176.984 92.156 176.126 91.623 175.619 90.739V94.236H174.644V85.279H175.619V86.54C176.126 85.656 176.984 85.123 178.063 85.123ZM177.881 91.285C179.194 91.285 180.13 90.18 180.13 88.633C180.13 87.086 179.194 85.994 177.881 85.994C176.555 85.994 175.619 87.086 175.619 88.633C175.619 90.18 176.555 91.285 177.881 91.285ZM185.396 91.012L185.877 91.727C185.526 92 185.084 92.156 184.629 92.156C183.667 92.156 182.991 91.441 182.991 90.44V86.15H181.938V85.279H182.991V83.433H183.966V85.279H185.617V86.15H183.966V90.44C183.966 90.934 184.304 91.285 184.694 91.285C184.993 91.285 185.253 91.168 185.396 91.012ZM187.672 84.057C187.308 84.057 187.022 83.758 187.022 83.407C187.022 83.069 187.308 82.77 187.672 82.77C188.023 82.77 188.309 83.069 188.309 83.407C188.309 83.758 188.023 84.057 187.672 84.057ZM187.178 92V85.279H188.153V92H187.178ZM193.201 92.156C191.29 92.156 189.73 90.57 189.73 88.633C189.73 86.696 191.29 85.123 193.201 85.123C195.099 85.123 196.659 86.696 196.659 88.633C196.659 90.57 195.099 92.156 193.201 92.156ZM193.201 91.285C194.54 91.285 195.645 90.089 195.645 88.633C195.645 87.177 194.54 85.994 193.201 85.994C191.849 85.994 190.744 87.177 190.744 88.633C190.744 90.089 191.849 91.285 193.201 91.285ZM201.423 85.123C202.918 85.123 203.945 86.176 203.945 87.723V92H202.97V87.853C202.97 86.748 202.281 85.994 201.293 85.994C200.149 85.994 199.213 86.774 199.213 87.723V92H198.238V85.279H199.213V86.345C199.603 85.63 200.461 85.123 201.423 85.123ZM210.557 92V84.304L208.997 85.318L208.555 84.564L210.752 83.069H211.571V92H210.557Z" fill="#E3EAED"/>
<rect width="165" height="24" transform="translate(147 100)" fill="#22343C"/>
<path d="M168.304 116.156C165.834 116.156 163.728 114.037 163.728 111.528C163.728 109.019 165.834 106.913 168.304 106.913C170.787 106.913 172.867 109.019 172.867 111.528C172.867 114.037 170.787 116.156 168.304 116.156ZM168.304 115.22C170.228 115.22 171.84 113.53 171.84 111.528C171.84 109.539 170.228 107.849 168.304 107.849C166.38 107.849 164.755 109.539 164.755 111.528C164.755 113.53 166.38 115.22 168.304 115.22ZM178.063 109.123C179.831 109.123 181.157 110.579 181.157 112.633C181.157 114.7 179.831 116.156 178.063 116.156C176.984 116.156 176.126 115.623 175.619 114.739V118.236H174.644V109.279H175.619V110.54C176.126 109.656 176.984 109.123 178.063 109.123ZM177.881 115.285C179.194 115.285 180.13 114.18 180.13 112.633C180.13 111.086 179.194 109.994 177.881 109.994C176.555 109.994 175.619 111.086 175.619 112.633C175.619 114.18 176.555 115.285 177.881 115.285ZM185.396 115.012L185.877 115.727C185.526 116 185.084 116.156 184.629 116.156C183.667 116.156 182.991 115.441 182.991 114.44V110.15H181.938V109.279H182.991V107.433H183.966V109.279H185.617V110.15H183.966V114.44C183.966 114.934 184.304 115.285 184.694 115.285C184.993 115.285 185.253 115.168 185.396 115.012ZM187.672 108.057C187.308 108.057 187.022 107.758 187.022 107.407C187.022 107.069 187.308 106.77 187.672 106.77C188.023 106.77 188.309 107.069 188.309 107.407C188.309 107.758 188.023 108.057 187.672 108.057ZM187.178 116V109.279H188.153V116H187.178ZM193.201 116.156C191.29 116.156 189.73 114.57 189.73 112.633C189.73 110.696 191.29 109.123 193.201 109.123C195.099 109.123 196.659 110.696 196.659 112.633C196.659 114.57 195.099 116.156 193.201 116.156ZM193.201 115.285C194.54 115.285 195.645 114.089 195.645 112.633C195.645 111.177 194.54 109.994 193.201 109.994C191.849 109.994 190.744 111.177 190.744 112.633C190.744 114.089 191.849 115.285 193.201 115.285ZM201.423 109.123C202.918 109.123 203.945 110.176 203.945 111.723V116H202.97V111.853C202.97 110.748 202.281 109.994 201.293 109.994C200.149 109.994 199.213 110.774 199.213 111.723V116H198.238V109.279H199.213V110.345C199.603 109.63 200.461 109.123 201.423 109.123ZM208.737 116V115.155L212 112.373C213.261 111.294 213.781 110.436 213.781 109.552C213.781 108.46 212.871 107.823 211.922 107.823C210.882 107.823 210.141 108.382 209.53 109.214L208.815 108.629C209.556 107.576 210.557 106.913 211.961 106.913C213.508 106.913 214.808 107.94 214.808 109.539C214.808 110.748 214.21 111.71 212.702 113.01L210.362 115.038H214.899V116H208.737Z" fill="#E3EAED"/>
<rect width="165" height="24" transform="translate(147 124)" fill="#4F6169"/>
<path d="M168.304 140.156C165.834 140.156 163.728 138.037 163.728 135.528C163.728 133.019 165.834 130.913 168.304 130.913C170.787 130.913 172.867 133.019 172.867 135.528C172.867 138.037 170.787 140.156 168.304 140.156ZM168.304 139.22C170.228 139.22 171.84 137.53 171.84 135.528C171.84 133.539 170.228 131.849 168.304 131.849C166.38 131.849 164.755 133.539 164.755 135.528C164.755 137.53 166.38 139.22 168.304 139.22ZM178.063 133.123C179.831 133.123 181.157 134.579 181.157 136.633C181.157 138.7 179.831 140.156 178.063 140.156C176.984 140.156 176.126 139.623 175.619 138.739V142.236H174.644V133.279H175.619V134.54C176.126 133.656 176.984 133.123 178.063 133.123ZM177.881 139.285C179.194 139.285 180.13 138.18 180.13 136.633C180.13 135.086 179.194 133.994 177.881 133.994C176.555 133.994 175.619 135.086 175.619 136.633C175.619 138.18 176.555 139.285 177.881 139.285ZM185.396 139.012L185.877 139.727C185.526 140 185.084 140.156 184.629 140.156C183.667 140.156 182.991 139.441 182.991 138.44V134.15H181.938V133.279H182.991V131.433H183.966V133.279H185.617V134.15H183.966V138.44C183.966 138.934 184.304 139.285 184.694 139.285C184.993 139.285 185.253 139.168 185.396 139.012ZM187.672 132.057C187.308 132.057 187.022 131.758 187.022 131.407C187.022 131.069 187.308 130.77 187.672 130.77C188.023 130.77 188.309 131.069 188.309 131.407C188.309 131.758 188.023 132.057 187.672 132.057ZM187.178 140V133.279H188.153V140H187.178ZM193.201 140.156C191.29 140.156 189.73 138.57 189.73 136.633C189.73 134.696 191.29 133.123 193.201 133.123C195.099 133.123 196.659 134.696 196.659 136.633C196.659 138.57 195.099 140.156 193.201 140.156ZM193.201 139.285C194.54 139.285 195.645 138.089 195.645 136.633C195.645 135.177 194.54 133.994 193.201 133.994C191.849 133.994 190.744 135.177 190.744 136.633C190.744 138.089 191.849 139.285 193.201 139.285ZM201.423 133.123C202.918 133.123 203.945 134.176 203.945 135.723V140H202.97V135.853C202.97 134.748 202.281 133.994 201.293 133.994C200.149 133.994 199.213 134.774 199.213 135.723V140H198.238V133.279H199.213V134.345C199.603 133.63 200.461 133.123 201.423 133.123ZM211.935 140.156C210.466 140.156 209.335 139.48 208.685 138.622L209.387 137.959C209.972 138.713 210.843 139.233 211.935 139.233C213.183 139.233 214.015 138.544 214.015 137.53C214.015 136.477 213.118 135.944 211.714 135.944H210.765V135.008L211.727 135.021C212.923 135.034 213.82 134.462 213.82 133.448C213.82 132.512 212.962 131.836 211.844 131.836C210.856 131.836 210.154 132.33 209.517 133.097L208.841 132.486C209.517 131.589 210.505 130.913 211.896 130.913C213.599 130.913 214.847 131.901 214.847 133.331C214.847 134.475 214.041 135.151 213.118 135.424C214.028 135.632 215.042 136.295 215.042 137.582C215.042 139.077 213.794 140.156 211.935 140.156Z" fill="#F1F6F8"/>
<rect width="165" height="24" transform="translate(147 148)" fill="#22343C"/>
<path d="M168.304 164.156C165.834 164.156 163.728 162.037 163.728 159.528C163.728 157.019 165.834 154.913 168.304 154.913C170.787 154.913 172.867 157.019 172.867 159.528C172.867 162.037 170.787 164.156 168.304 164.156ZM168.304 163.22C170.228 163.22 171.84 161.53 171.84 159.528C171.84 157.539 170.228 155.849 168.304 155.849C166.38 155.849 164.755 157.539 164.755 159.528C164.755 161.53 166.38 163.22 168.304 163.22ZM178.063 157.123C179.831 157.123 181.157 158.579 181.157 160.633C181.157 162.7 179.831 164.156 178.063 164.156C176.984 164.156 176.126 163.623 175.619 162.739V166.236H174.644V157.279H175.619V158.54C176.126 157.656 176.984 157.123 178.063 157.123ZM177.881 163.285C179.194 163.285 180.13 162.18 180.13 160.633C180.13 159.086 179.194 157.994 177.881 157.994C176.555 157.994 175.619 159.086 175.619 160.633C175.619 162.18 176.555 163.285 177.881 163.285ZM185.396 163.012L185.877 163.727C185.526 164 185.084 164.156 184.629 164.156C183.667 164.156 182.991 163.441 182.991 162.44V158.15H181.938V157.279H182.991V155.433H183.966V157.279H185.617V158.15H183.966V162.44C183.966 162.934 184.304 163.285 184.694 163.285C184.993 163.285 185.253 163.168 185.396 163.012ZM187.672 156.057C187.308 156.057 187.022 155.758 187.022 155.407C187.022 155.069 187.308 154.77 187.672 154.77C188.023 154.77 188.309 155.069 188.309 155.407C188.309 155.758 188.023 156.057 187.672 156.057ZM187.178 164V157.279H188.153V164H187.178ZM193.201 164.156C191.29 164.156 189.73 162.57 189.73 160.633C189.73 158.696 191.29 157.123 193.201 157.123C195.099 157.123 196.659 158.696 196.659 160.633C196.659 162.57 195.099 164.156 193.201 164.156ZM193.201 163.285C194.54 163.285 195.645 162.089 195.645 160.633C195.645 159.177 194.54 157.994 193.201 157.994C191.849 157.994 190.744 159.177 190.744 160.633C190.744 162.089 191.849 163.285 193.201 163.285ZM201.423 157.123C202.918 157.123 203.945 158.176 203.945 159.723V164H202.97V159.853C202.97 158.748 202.281 157.994 201.293 157.994C200.149 157.994 199.213 158.774 199.213 159.723V164H198.238V157.279H199.213V158.345C199.603 157.63 200.461 157.123 201.423 157.123ZM213.235 164V161.829H208.776L208.646 160.984L213.079 155.069H214.249V160.906H215.588V161.829H214.249V164H213.235ZM209.803 160.906H213.235V156.291L209.803 160.906Z" fill="#E3EAED"/>
<rect width="165" height="24" transform="translate(147 172)" fill="#22343C"/>
<path d="M168.304 188.156C165.834 188.156 163.728 186.037 163.728 183.528C163.728 181.019 165.834 178.913 168.304 178.913C170.787 178.913 172.867 181.019 172.867 183.528C172.867 186.037 170.787 188.156 168.304 188.156ZM168.304 187.22C170.228 187.22 171.84 185.53 171.84 183.528C171.84 181.539 170.228 179.849 168.304 179.849C166.38 179.849 164.755 181.539 164.755 183.528C164.755 185.53 166.38 187.22 168.304 187.22ZM178.063 181.123C179.831 181.123 181.157 182.579 181.157 184.633C181.157 186.7 179.831 188.156 178.063 188.156C176.984 188.156 176.126 187.623 175.619 186.739V190.236H174.644V181.279H175.619V182.54C176.126 181.656 176.984 181.123 178.063 181.123ZM177.881 187.285C179.194 187.285 180.13 186.18 180.13 184.633C180.13 183.086 179.194 181.994 177.881 181.994C176.555 181.994 175.619 183.086 175.619 184.633C175.619 186.18 176.555 187.285 177.881 187.285ZM185.396 187.012L185.877 187.727C185.526 188 185.084 188.156 184.629 188.156C183.667 188.156 182.991 187.441 182.991 186.44V182.15H181.938V181.279H182.991V179.433H183.966V181.279H185.617V182.15H183.966V186.44C183.966 186.934 184.304 187.285 184.694 187.285C184.993 187.285 185.253 187.168 185.396 187.012ZM187.672 180.057C187.308 180.057 187.022 179.758 187.022 179.407C187.022 179.069 187.308 178.77 187.672 178.77C188.023 178.77 188.309 179.069 188.309 179.407C188.309 179.758 188.023 180.057 187.672 180.057ZM187.178 188V181.279H188.153V188H187.178ZM193.201 188.156C191.29 188.156 189.73 186.57 189.73 184.633C189.73 182.696 191.29 181.123 193.201 181.123C195.099 181.123 196.659 182.696 196.659 184.633C196.659 186.57 195.099 188.156 193.201 188.156ZM193.201 187.285C194.54 187.285 195.645 186.089 195.645 184.633C195.645 183.177 194.54 181.994 193.201 181.994C191.849 181.994 190.744 183.177 190.744 184.633C190.744 186.089 191.849 187.285 193.201 187.285ZM201.423 181.123C202.918 181.123 203.945 182.176 203.945 183.723V188H202.97V183.853C202.97 182.748 202.281 181.994 201.293 181.994C200.149 181.994 199.213 182.774 199.213 183.723V188H198.238V181.279H199.213V182.345C199.603 181.63 200.461 181.123 201.423 181.123ZM212.156 188.156C210.778 188.156 209.738 187.571 209.01 186.739L209.673 185.998C210.362 186.752 211.207 187.246 212.195 187.246C213.43 187.246 214.301 186.388 214.301 185.257C214.301 184.113 213.417 183.333 212.169 183.333C211.402 183.333 210.739 183.606 210.18 184.022L209.439 183.658L209.569 179.069H214.847V180.031H210.557L210.466 183.034C210.947 182.709 211.558 182.436 212.377 182.436C213.989 182.436 215.328 183.45 215.328 185.218C215.328 186.986 213.989 188.156 212.156 188.156Z" fill="#E3EAED"/>
<rect width="165" height="24" transform="translate(147 196)" fill="#22343C"/>
<path d="M168.304 212.156C165.834 212.156 163.728 210.037 163.728 207.528C163.728 205.019 165.834 202.913 168.304 202.913C170.787 202.913 172.867 205.019 172.867 207.528C172.867 210.037 170.787 212.156 168.304 212.156ZM168.304 211.22C170.228 211.22 171.84 209.53 171.84 207.528C171.84 205.539 170.228 203.849 168.304 203.849C166.38 203.849 164.755 205.539 164.755 207.528C164.755 209.53 166.38 211.22 168.304 211.22ZM178.063 205.123C179.831 205.123 181.157 206.579 181.157 208.633C181.157 210.7 179.831 212.156 178.063 212.156C176.984 212.156 176.126 211.623 175.619 210.739V214.236H174.644V205.279H175.619V206.54C176.126 205.656 176.984 205.123 178.063 205.123ZM177.881 211.285C179.194 211.285 180.13 210.18 180.13 208.633C180.13 207.086 179.194 205.994 177.881 205.994C176.555 205.994 175.619 207.086 175.619 208.633C175.619 210.18 176.555 211.285 177.881 211.285ZM185.396 211.012L185.877 211.727C185.526 212 185.084 212.156 184.629 212.156C183.667 212.156 182.991 211.441 182.991 210.44V206.15H181.938V205.279H182.991V203.433H183.966V205.279H185.617V206.15H183.966V210.44C183.966 210.934 184.304 211.285 184.694 211.285C184.993 211.285 185.253 211.168 185.396 211.012ZM187.672 204.057C187.308 204.057 187.022 203.758 187.022 203.407C187.022 203.069 187.308 202.77 187.672 202.77C188.023 202.77 188.309 203.069 188.309 203.407C188.309 203.758 188.023 204.057 187.672 204.057ZM187.178 212V205.279H188.153V212H187.178ZM193.201 212.156C191.29 212.156 189.73 210.57 189.73 208.633C189.73 206.696 191.29 205.123 193.201 205.123C195.099 205.123 196.659 206.696 196.659 208.633C196.659 210.57 195.099 212.156 193.201 212.156ZM193.201 211.285C194.54 211.285 195.645 210.089 195.645 208.633C195.645 207.177 194.54 205.994 193.201 205.994C191.849 205.994 190.744 207.177 190.744 208.633C190.744 210.089 191.849 211.285 193.201 211.285ZM201.423 205.123C202.918 205.123 203.945 206.176 203.945 207.723V212H202.97V207.853C202.97 206.748 202.281 205.994 201.293 205.994C200.149 205.994 199.213 206.774 199.213 207.723V212H198.238V205.279H199.213V206.345C199.603 205.63 200.461 205.123 201.423 205.123ZM212.663 206.423C214.288 206.423 215.653 207.437 215.653 209.205C215.653 210.856 214.366 212.156 212.507 212.156C210.089 212.156 209.114 210.193 209.114 207.671C209.114 205.006 210.7 202.913 212.728 202.913C213.82 202.913 214.6 203.342 215.263 203.979L214.704 204.772C214.145 204.226 213.56 203.836 212.702 203.836C211.272 203.836 210.141 205.526 210.141 207.671V207.788C210.687 206.93 211.61 206.423 212.663 206.423ZM212.494 211.285C213.833 211.285 214.626 210.245 214.626 209.257C214.626 208.035 213.677 207.294 212.481 207.294C211.35 207.294 210.479 207.97 210.258 208.958C210.518 210.31 211.246 211.285 212.494 211.285Z" fill="#E3EAED"/>
<path d="M150 64.5H309C310.933 64.5 312.5 66.067 312.5 68V228C312.5 229.933 310.933 231.5 309 231.5H150C148.067 231.5 146.5 229.933 146.5 228V68C146.5 66.067 148.067 64.5 150 64.5Z" stroke="#67777E"/>
</g>
<path d="M147.199 256V248.443H150.664C151.885 248.443 152.743 249.224 152.743 250.324C152.743 251.127 152.347 251.589 151.665 251.985C152.534 252.425 153.04 253.107 153.04 253.932C153.04 255.142 152.105 256 150.796 256H147.199ZM148.057 251.644H150.444C151.28 251.644 151.874 251.138 151.874 250.434C151.874 249.73 151.28 249.224 150.444 249.224H148.057V251.644ZM148.057 255.219H150.576C151.511 255.219 152.171 254.636 152.171 253.822C152.171 253.008 151.511 252.425 150.576 252.425H148.057V255.219ZM156.926 250.181C158.477 250.181 159.236 251.16 159.236 252.535V256H158.411V255.109C158.004 255.78 157.157 256.132 156.409 256.132C155.21 256.132 154.33 255.439 154.33 254.317C154.33 253.184 155.342 252.425 156.563 252.425C157.179 252.425 157.828 252.557 158.411 252.744V252.535C158.411 251.765 158.103 250.885 156.871 250.885C156.299 250.885 155.727 251.138 155.21 251.402L154.88 250.731C155.694 250.324 156.376 250.181 156.926 250.181ZM156.552 255.406C157.3 255.406 158.191 255.021 158.411 254.218V253.349C157.894 253.206 157.311 253.118 156.695 253.118C155.848 253.118 155.133 253.602 155.133 254.284C155.133 254.988 155.749 255.406 156.552 255.406ZM162.974 256.132C162.182 256.132 161.302 255.835 160.62 255.285L161.049 254.68C161.698 255.153 162.347 255.395 162.974 255.395C163.722 255.395 164.228 255.043 164.228 254.504C164.228 253.888 163.568 253.69 162.798 253.47C161.423 253.074 160.895 252.667 160.895 251.853C160.895 250.819 161.753 250.181 162.886 250.181C163.59 250.181 164.316 250.423 164.921 250.819L164.525 251.457C163.953 251.094 163.392 250.918 162.886 250.918C162.248 250.918 161.72 251.204 161.72 251.754C161.72 252.249 162.138 252.403 163.194 252.744C164.107 253.03 165.053 253.338 165.053 254.416C165.053 255.461 164.151 256.132 162.974 256.132ZM167.085 249.279C166.777 249.279 166.535 249.026 166.535 248.729C166.535 248.443 166.777 248.19 167.085 248.19C167.382 248.19 167.624 248.443 167.624 248.729C167.624 249.026 167.382 249.279 167.085 249.279ZM166.667 256V250.313H167.492V256H166.667ZM172.049 256.132C170.454 256.132 169.101 254.768 169.101 253.151C169.101 251.534 170.454 250.181 172.049 250.181C172.819 250.181 173.534 250.5 174.073 251.017L173.501 251.578C173.127 251.171 172.61 250.918 172.049 250.918C170.916 250.918 169.97 251.941 169.97 253.151C169.97 254.372 170.916 255.395 172.049 255.395C172.621 255.395 173.149 255.131 173.534 254.702L174.106 255.263C173.567 255.802 172.841 256.132 172.049 256.132Z" fill="#FDA1D8"/>
<path d="M384.212 41.756H385.868L382.424 50H380.756L377.312 41.756H378.968L381.596 48.008L384.212 41.756ZM388.316 50V41.756H389.804V50H388.316ZM399.293 43.124H394.589V45.116H398.837V46.484H394.589V48.632H399.293V50H393.089V41.756H399.293V43.124ZM403.929 50L401.313 41.756H402.957L404.721 47.66L406.677 41.756H408.297L410.241 47.66L412.017 41.756H413.649L411.045 50H409.557L407.493 43.88L405.417 50H403.929ZM424.209 50.144C421.869 50.144 419.889 48.188 419.889 45.872C419.889 43.556 421.869 41.612 424.209 41.612C426.561 41.612 428.541 43.556 428.541 45.872C428.541 48.188 426.561 50.144 424.209 50.144ZM424.209 48.776C425.733 48.776 427.005 47.456 427.005 45.872C427.005 44.3 425.733 42.98 424.209 42.98C422.697 42.98 421.413 44.3 421.413 45.872C421.413 47.456 422.697 48.776 424.209 48.776ZM431.285 50V41.756H434.873C436.625 41.756 437.957 42.884 437.957 44.492C437.957 46.1 436.625 47.228 434.873 47.228H432.773V50H431.285ZM432.773 45.848H434.693C435.713 45.848 436.421 45.332 436.421 44.492C436.421 43.652 435.713 43.136 434.693 43.136H432.773V45.848ZM442.441 50V43.124H439.801V41.756H446.569V43.124H443.941V50H442.441ZM449.07 50V41.756H450.558V50H449.07ZM457.623 50.144C455.283 50.144 453.303 48.188 453.303 45.872C453.303 43.556 455.283 41.612 457.623 41.612C459.975 41.612 461.955 43.556 461.955 45.872C461.955 48.188 459.975 50.144 457.623 50.144ZM457.623 48.776C459.147 48.776 460.419 47.456 460.419 45.872C460.419 44.3 459.147 42.98 457.623 42.98C456.111 42.98 454.827 44.3 454.827 45.872C454.827 47.456 456.111 48.776 457.623 48.776ZM464.699 50V41.756H466.187L470.543 47.552V41.756H472.031V50H470.543L466.187 44.204V50H464.699ZM478.164 50.132C476.76 50.132 475.548 49.652 474.636 48.8L475.512 47.732C476.268 48.416 477.144 48.848 478.224 48.848C479.232 48.848 479.76 48.344 479.76 47.756C479.76 47.072 479.172 46.844 477.852 46.532C476.148 46.136 474.972 45.644 474.972 44.096C474.972 42.656 476.196 41.612 477.924 41.612C479.232 41.612 480.228 42.056 481.044 42.764L480.228 43.856C479.52 43.244 478.692 42.896 477.876 42.896C477.036 42.896 476.484 43.388 476.484 43.964C476.484 44.636 477.084 44.876 478.392 45.176C480.108 45.56 481.26 46.112 481.26 47.612C481.26 49.088 480.144 50.132 478.164 50.132Z" fill="#2EC0FF"/>
<path d="M504.12 43.9915L499 49.2893L493.88 43.9915C493.59 43.6908 493.599 43.2123 493.9 42.9226C494.201 42.633 494.679 42.642 494.969 42.9426L499 47.116L503.036 42.9426C503.325 42.642 503.804 42.633 504.104 42.9226C504.405 43.2123 504.414 43.6908 504.124 43.9915H504.12Z" fill="#2EC0FF"/>
<path d="M369 28.5H515C516.933 28.5 518.5 30.067 518.5 32V60C518.5 61.933 516.933 63.5 515 63.5H369C367.067 63.5 365.5 61.933 365.5 60V32C365.5 30.067 367.067 28.5 369 28.5Z" stroke="#2EC0FF"/>
<g filter="url(#filter1_d_10314_11693)">
<path d="M365 68C365 65.7909 366.791 64 369 64H528C530.209 64 532 65.7909 532 68V253C532 255.209 530.209 257 528 257H369C366.791 257 365 255.209 365 253V68Z" fill="#22343C"/>
<rect width="165" height="24" transform="translate(366 76)" fill="#22343C"/>
<path d="M387.304 92.156C384.834 92.156 382.728 90.037 382.728 87.528C382.728 85.019 384.834 82.913 387.304 82.913C389.787 82.913 391.867 85.019 391.867 87.528C391.867 90.037 389.787 92.156 387.304 92.156ZM387.304 91.22C389.228 91.22 390.84 89.53 390.84 87.528C390.84 85.539 389.228 83.849 387.304 83.849C385.38 83.849 383.755 85.539 383.755 87.528C383.755 89.53 385.38 91.22 387.304 91.22ZM397.063 85.123C398.831 85.123 400.157 86.579 400.157 88.633C400.157 90.7 398.831 92.156 397.063 92.156C395.984 92.156 395.126 91.623 394.619 90.739V94.236H393.644V85.279H394.619V86.54C395.126 85.656 395.984 85.123 397.063 85.123ZM396.881 91.285C398.194 91.285 399.13 90.18 399.13 88.633C399.13 87.086 398.194 85.994 396.881 85.994C395.555 85.994 394.619 87.086 394.619 88.633C394.619 90.18 395.555 91.285 396.881 91.285ZM404.396 91.012L404.877 91.727C404.526 92 404.084 92.156 403.629 92.156C402.667 92.156 401.991 91.441 401.991 90.44V86.15H400.938V85.279H401.991V83.433H402.966V85.279H404.617V86.15H402.966V90.44C402.966 90.934 403.304 91.285 403.694 91.285C403.993 91.285 404.253 91.168 404.396 91.012ZM406.672 84.057C406.308 84.057 406.022 83.758 406.022 83.407C406.022 83.069 406.308 82.77 406.672 82.77C407.023 82.77 407.309 83.069 407.309 83.407C407.309 83.758 407.023 84.057 406.672 84.057ZM406.178 92V85.279H407.153V92H406.178ZM412.201 92.156C410.29 92.156 408.73 90.57 408.73 88.633C408.73 86.696 410.29 85.123 412.201 85.123C414.099 85.123 415.659 86.696 415.659 88.633C415.659 90.57 414.099 92.156 412.201 92.156ZM412.201 91.285C413.54 91.285 414.645 90.089 414.645 88.633C414.645 87.177 413.54 85.994 412.201 85.994C410.849 85.994 409.744 87.177 409.744 88.633C409.744 90.089 410.849 91.285 412.201 91.285ZM420.423 85.123C421.918 85.123 422.945 86.176 422.945 87.723V92H421.97V87.853C421.97 86.748 421.281 85.994 420.293 85.994C419.149 85.994 418.213 86.774 418.213 87.723V92H417.238V85.279H418.213V86.345C418.603 85.63 419.461 85.123 420.423 85.123ZM429.557 92V84.304L427.997 85.318L427.555 84.564L429.752 83.069H430.571V92H429.557Z" fill="#E3EAED"/>
<rect width="165" height="24" transform="translate(366 100)" fill="#22343C"/>
<path d="M387.304 116.156C384.834 116.156 382.728 114.037 382.728 111.528C382.728 109.019 384.834 106.913 387.304 106.913C389.787 106.913 391.867 109.019 391.867 111.528C391.867 114.037 389.787 116.156 387.304 116.156ZM387.304 115.22C389.228 115.22 390.84 113.53 390.84 111.528C390.84 109.539 389.228 107.849 387.304 107.849C385.38 107.849 383.755 109.539 383.755 111.528C383.755 113.53 385.38 115.22 387.304 115.22ZM397.063 109.123C398.831 109.123 400.157 110.579 400.157 112.633C400.157 114.7 398.831 116.156 397.063 116.156C395.984 116.156 395.126 115.623 394.619 114.739V118.236H393.644V109.279H394.619V110.54C395.126 109.656 395.984 109.123 397.063 109.123ZM396.881 115.285C398.194 115.285 399.13 114.18 399.13 112.633C399.13 111.086 398.194 109.994 396.881 109.994C395.555 109.994 394.619 111.086 394.619 112.633C394.619 114.18 395.555 115.285 396.881 115.285ZM404.396 115.012L404.877 115.727C404.526 116 404.084 116.156 403.629 116.156C402.667 116.156 401.991 115.441 401.991 114.44V110.15H400.938V109.279H401.991V107.433H402.966V109.279H404.617V110.15H402.966V114.44C402.966 114.934 403.304 115.285 403.694 115.285C403.993 115.285 404.253 115.168 404.396 115.012ZM406.672 108.057C406.308 108.057 406.022 107.758 406.022 107.407C406.022 107.069 406.308 106.77 406.672 106.77C407.023 106.77 407.309 107.069 407.309 107.407C407.309 107.758 407.023 108.057 406.672 108.057ZM406.178 116V109.279H407.153V116H406.178ZM412.201 116.156C410.29 116.156 408.73 114.57 408.73 112.633C408.73 110.696 410.29 109.123 412.201 109.123C414.099 109.123 415.659 110.696 415.659 112.633C415.659 114.57 414.099 116.156 412.201 116.156ZM412.201 115.285C413.54 115.285 414.645 114.089 414.645 112.633C414.645 111.177 413.54 109.994 412.201 109.994C410.849 109.994 409.744 111.177 409.744 112.633C409.744 114.089 410.849 115.285 412.201 115.285ZM420.423 109.123C421.918 109.123 422.945 110.176 422.945 111.723V116H421.97V111.853C421.97 110.748 421.281 109.994 420.293 109.994C419.149 109.994 418.213 110.774 418.213 111.723V116H417.238V109.279H418.213V110.345C418.603 109.63 419.461 109.123 420.423 109.123ZM427.737 116V115.155L431 112.373C432.261 111.294 432.781 110.436 432.781 109.552C432.781 108.46 431.871 107.823 430.922 107.823C429.882 107.823 429.141 108.382 428.53 109.214L427.815 108.629C428.556 107.576 429.557 106.913 430.961 106.913C432.508 106.913 433.808 107.94 433.808 109.539C433.808 110.748 433.21 111.71 431.702 113.01L429.362 115.038H433.899V116H427.737Z" fill="#E3EAED"/>
<rect width="165" height="24" transform="translate(366 124)" fill="#4F6169"/>
<path d="M387.304 140.156C384.834 140.156 382.728 138.037 382.728 135.528C382.728 133.019 384.834 130.913 387.304 130.913C389.787 130.913 391.867 133.019 391.867 135.528C391.867 138.037 389.787 140.156 387.304 140.156ZM387.304 139.22C389.228 139.22 390.84 137.53 390.84 135.528C390.84 133.539 389.228 131.849 387.304 131.849C385.38 131.849 383.755 133.539 383.755 135.528C383.755 137.53 385.38 139.22 387.304 139.22ZM397.063 133.123C398.831 133.123 400.157 134.579 400.157 136.633C400.157 138.7 398.831 140.156 397.063 140.156C395.984 140.156 395.126 139.623 394.619 138.739V142.236H393.644V133.279H394.619V134.54C395.126 133.656 395.984 133.123 397.063 133.123ZM396.881 139.285C398.194 139.285 399.13 138.18 399.13 136.633C399.13 135.086 398.194 133.994 396.881 133.994C395.555 133.994 394.619 135.086 394.619 136.633C394.619 138.18 395.555 139.285 396.881 139.285ZM404.396 139.012L404.877 139.727C404.526 140 404.084 140.156 403.629 140.156C402.667 140.156 401.991 139.441 401.991 138.44V134.15H400.938V133.279H401.991V131.433H402.966V133.279H404.617V134.15H402.966V138.44C402.966 138.934 403.304 139.285 403.694 139.285C403.993 139.285 404.253 139.168 404.396 139.012ZM406.672 132.057C406.308 132.057 406.022 131.758 406.022 131.407C406.022 131.069 406.308 130.77 406.672 130.77C407.023 130.77 407.309 131.069 407.309 131.407C407.309 131.758 407.023 132.057 406.672 132.057ZM406.178 140V133.279H407.153V140H406.178ZM412.201 140.156C410.29 140.156 408.73 138.57 408.73 136.633C408.73 134.696 410.29 133.123 412.201 133.123C414.099 133.123 415.659 134.696 415.659 136.633C415.659 138.57 414.099 140.156 412.201 140.156ZM412.201 139.285C413.54 139.285 414.645 138.089 414.645 136.633C414.645 135.177 413.54 133.994 412.201 133.994C410.849 133.994 409.744 135.177 409.744 136.633C409.744 138.089 410.849 139.285 412.201 139.285ZM420.423 133.123C421.918 133.123 422.945 134.176 422.945 135.723V140H421.97V135.853C421.97 134.748 421.281 133.994 420.293 133.994C419.149 133.994 418.213 134.774 418.213 135.723V140H417.238V133.279H418.213V134.345C418.603 133.63 419.461 133.123 420.423 133.123ZM430.935 140.156C429.466 140.156 428.335 139.48 427.685 138.622L428.387 137.959C428.972 138.713 429.843 139.233 430.935 139.233C432.183 139.233 433.015 138.544 433.015 137.53C433.015 136.477 432.118 135.944 430.714 135.944H429.765V135.008L430.727 135.021C431.923 135.034 432.82 134.462 432.82 133.448C432.82 132.512 431.962 131.836 430.844 131.836C429.856 131.836 429.154 132.33 428.517 133.097L427.841 132.486C428.517 131.589 429.505 130.913 430.896 130.913C432.599 130.913 433.847 131.901 433.847 133.331C433.847 134.475 433.041 135.151 432.118 135.424C433.028 135.632 434.042 136.295 434.042 137.582C434.042 139.077 432.794 140.156 430.935 140.156Z" fill="#F1F6F8"/>
<rect width="165" height="1" transform="translate(366 160)" fill="#859399"/>
<rect width="165" height="24" transform="translate(366 173)" fill="#22343C"/>
<path d="M387.304 189.156C384.834 189.156 382.728 187.037 382.728 184.528C382.728 182.019 384.834 179.913 387.304 179.913C389.787 179.913 391.867 182.019 391.867 184.528C391.867 187.037 389.787 189.156 387.304 189.156ZM387.304 188.22C389.228 188.22 390.84 186.53 390.84 184.528C390.84 182.539 389.228 180.849 387.304 180.849C385.38 180.849 383.755 182.539 383.755 184.528C383.755 186.53 385.38 188.22 387.304 188.22ZM397.063 182.123C398.831 182.123 400.157 183.579 400.157 185.633C400.157 187.7 398.831 189.156 397.063 189.156C395.984 189.156 395.126 188.623 394.619 187.739V191.236H393.644V182.279H394.619V183.54C395.126 182.656 395.984 182.123 397.063 182.123ZM396.881 188.285C398.194 188.285 399.13 187.18 399.13 185.633C399.13 184.086 398.194 182.994 396.881 182.994C395.555 182.994 394.619 184.086 394.619 185.633C394.619 187.18 395.555 188.285 396.881 188.285ZM404.396 188.012L404.877 188.727C404.526 189 404.084 189.156 403.629 189.156C402.667 189.156 401.991 188.441 401.991 187.44V183.15H400.938V182.279H401.991V180.433H402.966V182.279H404.617V183.15H402.966V187.44C402.966 187.934 403.304 188.285 403.694 188.285C403.993 188.285 404.253 188.168 404.396 188.012ZM406.672 181.057C406.308 181.057 406.022 180.758 406.022 180.407C406.022 180.069 406.308 179.77 406.672 179.77C407.023 179.77 407.309 180.069 407.309 180.407C407.309 180.758 407.023 181.057 406.672 181.057ZM406.178 189V182.279H407.153V189H406.178ZM412.201 189.156C410.29 189.156 408.73 187.57 408.73 185.633C408.73 183.696 410.29 182.123 412.201 182.123C414.099 182.123 415.659 183.696 415.659 185.633C415.659 187.57 414.099 189.156 412.201 189.156ZM412.201 188.285C413.54 188.285 414.645 187.089 414.645 185.633C414.645 184.177 413.54 182.994 412.201 182.994C410.849 182.994 409.744 184.177 409.744 185.633C409.744 187.089 410.849 188.285 412.201 188.285ZM420.423 182.123C421.918 182.123 422.945 183.176 422.945 184.723V189H421.97V184.853C421.97 183.748 421.281 182.994 420.293 182.994C419.149 182.994 418.213 183.774 418.213 184.723V189H417.238V182.279H418.213V183.345C418.603 182.63 419.461 182.123 420.423 182.123ZM432.235 189V186.829H427.776L427.646 185.984L432.079 180.069H433.249V185.906H434.588V186.829H433.249V189H432.235ZM428.803 185.906H432.235V181.291L428.803 185.906Z" fill="#E3EAED"/>
<rect width="165" height="24" transform="translate(366 197)" fill="#22343C"/>
<path d="M387.304 213.156C384.834 213.156 382.728 211.037 382.728 208.528C382.728 206.019 384.834 203.913 387.304 203.913C389.787 203.913 391.867 206.019 391.867 208.528C391.867 211.037 389.787 213.156 387.304 213.156ZM387.304 212.22C389.228 212.22 390.84 210.53 390.84 208.528C390.84 206.539 389.228 204.849 387.304 204.849C385.38 204.849 383.755 206.539 383.755 208.528C383.755 210.53 385.38 212.22 387.304 212.22ZM397.063 206.123C398.831 206.123 400.157 207.579 400.157 209.633C400.157 211.7 398.831 213.156 397.063 213.156C395.984 213.156 395.126 212.623 394.619 211.739V215.236H393.644V206.279H394.619V207.54C395.126 206.656 395.984 206.123 397.063 206.123ZM396.881 212.285C398.194 212.285 399.13 211.18 399.13 209.633C399.13 208.086 398.194 206.994 396.881 206.994C395.555 206.994 394.619 208.086 394.619 209.633C394.619 211.18 395.555 212.285 396.881 212.285ZM404.396 212.012L404.877 212.727C404.526 213 404.084 213.156 403.629 213.156C402.667 213.156 401.991 212.441 401.991 211.44V207.15H400.938V206.279H401.991V204.433H402.966V206.279H404.617V207.15H402.966V211.44C402.966 211.934 403.304 212.285 403.694 212.285C403.993 212.285 404.253 212.168 404.396 212.012ZM406.672 205.057C406.308 205.057 406.022 204.758 406.022 204.407C406.022 204.069 406.308 203.77 406.672 203.77C407.023 203.77 407.309 204.069 407.309 204.407C407.309 204.758 407.023 205.057 406.672 205.057ZM406.178 213V206.279H407.153V213H406.178ZM412.201 213.156C410.29 213.156 408.73 211.57 408.73 209.633C408.73 207.696 410.29 206.123 412.201 206.123C414.099 206.123 415.659 207.696 415.659 209.633C415.659 211.57 414.099 213.156 412.201 213.156ZM412.201 212.285C413.54 212.285 414.645 211.089 414.645 209.633C414.645 208.177 413.54 206.994 412.201 206.994C410.849 206.994 409.744 208.177 409.744 209.633C409.744 211.089 410.849 212.285 412.201 212.285ZM420.423 206.123C421.918 206.123 422.945 207.176 422.945 208.723V213H421.97V208.853C421.97 207.748 421.281 206.994 420.293 206.994C419.149 206.994 418.213 207.774 418.213 208.723V213H417.238V206.279H418.213V207.345C418.603 206.63 419.461 206.123 420.423 206.123ZM431.156 213.156C429.778 213.156 428.738 212.571 428.01 211.739L428.673 210.998C429.362 211.752 430.207 212.246 431.195 212.246C432.43 212.246 433.301 211.388 433.301 210.257C433.301 209.113 432.417 208.333 431.169 208.333C430.402 208.333 429.739 208.606 429.18 209.022L428.439 208.658L428.569 204.069H433.847V205.031H429.557L429.466 208.034C429.947 207.709 430.558 207.436 431.377 207.436C432.989 207.436 434.328 208.45 434.328 210.218C434.328 211.986 432.989 213.156 431.156 213.156Z" fill="#E3EAED"/>
<rect width="165" height="24" transform="translate(366 221)" fill="#22343C"/>
<path d="M387.304 237.156C384.834 237.156 382.728 235.037 382.728 232.528C382.728 230.019 384.834 227.913 387.304 227.913C389.787 227.913 391.867 230.019 391.867 232.528C391.867 235.037 389.787 237.156 387.304 237.156ZM387.304 236.22C389.228 236.22 390.84 234.53 390.84 232.528C390.84 230.539 389.228 228.849 387.304 228.849C385.38 228.849 383.755 230.539 383.755 232.528C383.755 234.53 385.38 236.22 387.304 236.22ZM397.063 230.123C398.831 230.123 400.157 231.579 400.157 233.633C400.157 235.7 398.831 237.156 397.063 237.156C395.984 237.156 395.126 236.623 394.619 235.739V239.236H393.644V230.279H394.619V231.54C395.126 230.656 395.984 230.123 397.063 230.123ZM396.881 236.285C398.194 236.285 399.13 235.18 399.13 233.633C399.13 232.086 398.194 230.994 396.881 230.994C395.555 230.994 394.619 232.086 394.619 233.633C394.619 235.18 395.555 236.285 396.881 236.285ZM404.396 236.012L404.877 236.727C404.526 237 404.084 237.156 403.629 237.156C402.667 237.156 401.991 236.441 401.991 235.44V231.15H400.938V230.279H401.991V228.433H402.966V230.279H404.617V231.15H402.966V235.44C402.966 235.934 403.304 236.285 403.694 236.285C403.993 236.285 404.253 236.168 404.396 236.012ZM406.672 229.057C406.308 229.057 406.022 228.758 406.022 228.407C406.022 228.069 406.308 227.77 406.672 227.77C407.023 227.77 407.309 228.069 407.309 228.407C407.309 228.758 407.023 229.057 406.672 229.057ZM406.178 237V230.279H407.153V237H406.178ZM412.201 237.156C410.29 237.156 408.73 235.57 408.73 233.633C408.73 231.696 410.29 230.123 412.201 230.123C414.099 230.123 415.659 231.696 415.659 233.633C415.659 235.57 414.099 237.156 412.201 237.156ZM412.201 236.285C413.54 236.285 414.645 235.089 414.645 233.633C414.645 232.177 413.54 230.994 412.201 230.994C410.849 230.994 409.744 232.177 409.744 233.633C409.744 235.089 410.849 236.285 412.201 236.285ZM420.423 230.123C421.918 230.123 422.945 231.176 422.945 232.723V237H421.97V232.853C421.97 231.748 421.281 230.994 420.293 230.994C419.149 230.994 418.213 231.774 418.213 232.723V237H417.238V230.279H418.213V231.345C418.603 230.63 419.461 230.123 420.423 230.123ZM431.663 231.423C433.288 231.423 434.653 232.437 434.653 234.205C434.653 235.856 433.366 237.156 431.507 237.156C429.089 237.156 428.114 235.193 428.114 232.671C428.114 230.006 429.7 227.913 431.728 227.913C432.82 227.913 433.6 228.342 434.263 228.979L433.704 229.772C433.145 229.226 432.56 228.836 431.702 228.836C430.272 228.836 429.141 230.526 429.141 232.671V232.788C429.687 231.93 430.61 231.423 431.663 231.423ZM431.494 236.285C432.833 236.285 433.626 235.245 433.626 234.257C433.626 233.035 432.677 232.294 431.481 232.294C430.35 232.294 429.479 232.97 429.258 233.958C429.518 235.31 430.246 236.285 431.494 236.285Z" fill="#E3EAED"/>
<path d="M369 64.5H528C529.933 64.5 531.5 66.067 531.5 68V253C531.5 254.933 529.933 256.5 528 256.5H369C367.067 256.5 365.5 254.933 365.5 253V68C365.5 66.067 367.067 64.5 369 64.5Z" stroke="#67777E"/>
</g>
<rect width="165" height="24" transform="translate(366 100)" fill="#22343C"/>
<path d="M387.304 116.156C384.834 116.156 382.728 114.037 382.728 111.528C382.728 109.019 384.834 106.913 387.304 106.913C389.787 106.913 391.867 109.019 391.867 111.528C391.867 114.037 389.787 116.156 387.304 116.156ZM387.304 115.22C389.228 115.22 390.84 113.53 390.84 111.528C390.84 109.539 389.228 107.849 387.304 107.849C385.38 107.849 383.755 109.539 383.755 111.528C383.755 113.53 385.38 115.22 387.304 115.22ZM397.063 109.123C398.831 109.123 400.157 110.579 400.157 112.633C400.157 114.7 398.831 116.156 397.063 116.156C395.984 116.156 395.126 115.623 394.619 114.739V118.236H393.644V109.279H394.619V110.54C395.126 109.656 395.984 109.123 397.063 109.123ZM396.881 115.285C398.194 115.285 399.13 114.18 399.13 112.633C399.13 111.086 398.194 109.994 396.881 109.994C395.555 109.994 394.619 111.086 394.619 112.633C394.619 114.18 395.555 115.285 396.881 115.285ZM404.396 115.012L404.877 115.727C404.526 116 404.084 116.156 403.629 116.156C402.667 116.156 401.991 115.441 401.991 114.44V110.15H400.938V109.279H401.991V107.433H402.966V109.279H404.617V110.15H402.966V114.44C402.966 114.934 403.304 115.285 403.694 115.285C403.993 115.285 404.253 115.168 404.396 115.012ZM406.672 108.057C406.308 108.057 406.022 107.758 406.022 107.407C406.022 107.069 406.308 106.77 406.672 106.77C407.023 106.77 407.309 107.069 407.309 107.407C407.309 107.758 407.023 108.057 406.672 108.057ZM406.178 116V109.279H407.153V116H406.178ZM412.201 116.156C410.29 116.156 408.73 114.57 408.73 112.633C408.73 110.696 410.29 109.123 412.201 109.123C414.099 109.123 415.659 110.696 415.659 112.633C415.659 114.57 414.099 116.156 412.201 116.156ZM412.201 115.285C413.54 115.285 414.645 114.089 414.645 112.633C414.645 111.177 413.54 109.994 412.201 109.994C410.849 109.994 409.744 111.177 409.744 112.633C409.744 114.089 410.849 115.285 412.201 115.285ZM420.423 109.123C421.918 109.123 422.945 110.176 422.945 111.723V116H421.97V111.853C421.97 110.748 421.281 109.994 420.293 109.994C419.149 109.994 418.213 110.774 418.213 111.723V116H417.238V109.279H418.213V110.345C418.603 109.63 419.461 109.123 420.423 109.123ZM427.737 116V115.155L431 112.373C432.261 111.294 432.781 110.436 432.781 109.552C432.781 108.46 431.871 107.823 430.922 107.823C429.882 107.823 429.141 108.382 428.53 109.214L427.815 108.629C428.556 107.576 429.557 106.913 430.961 106.913C432.508 106.913 433.808 107.94 433.808 109.539C433.808 110.748 433.21 111.71 431.702 113.01L429.362 115.038H433.899V116H427.737Z" fill="#E3EAED"/>
<path d="M369.4 274.832V274.018H372.425V276.977C371.721 277.681 370.533 278.132 369.488 278.132C367.398 278.132 365.616 276.339 365.616 274.216C365.616 272.093 367.398 270.311 369.488 270.311C370.533 270.311 371.721 270.751 372.425 271.466L371.842 272.06C371.292 271.477 370.313 271.103 369.488 271.103C367.86 271.103 366.485 272.533 366.485 274.216C366.485 275.91 367.86 277.34 369.488 277.34C370.192 277.34 371.006 277.065 371.567 276.636V274.832H369.4ZM375.232 273.424C375.573 272.665 376.387 272.181 377.432 272.181V272.918C376.145 272.918 375.232 273.71 375.232 274.821V278H374.407V272.313H375.232V273.424ZM381.41 278.132C379.793 278.132 378.473 276.79 378.473 275.151C378.473 273.512 379.793 272.181 381.41 272.181C383.016 272.181 384.336 273.512 384.336 275.151C384.336 276.79 383.016 278.132 381.41 278.132ZM381.41 277.395C382.543 277.395 383.478 276.383 383.478 275.151C383.478 273.919 382.543 272.918 381.41 272.918C380.266 272.918 379.331 273.919 379.331 275.151C379.331 276.383 380.266 277.395 381.41 277.395ZM389.829 272.313H390.654V278H389.829V277.098C389.499 277.703 388.773 278.132 387.959 278.132C386.694 278.132 385.825 277.241 385.825 275.932V272.313H386.65V275.822C386.65 276.757 387.233 277.395 388.069 277.395C389.037 277.395 389.829 276.735 389.829 275.932V272.313ZM395.657 272.181C397.153 272.181 398.275 273.413 398.275 275.151C398.275 276.9 397.153 278.132 395.657 278.132C394.744 278.132 394.018 277.681 393.589 276.933V279.892H392.764V272.313H393.589V273.38C394.018 272.632 394.744 272.181 395.657 272.181ZM395.503 277.395C396.614 277.395 397.406 276.46 397.406 275.151C397.406 273.842 396.614 272.918 395.503 272.918C394.381 272.918 393.589 273.842 393.589 275.151C393.589 276.46 394.381 277.395 395.503 277.395ZM402.344 277.395C403.015 277.395 403.785 277.098 404.137 276.713L404.643 277.252C404.148 277.791 403.147 278.132 402.355 278.132C400.837 278.132 399.473 276.889 399.473 275.14C399.473 273.446 400.749 272.181 402.278 272.181C403.994 272.181 404.973 273.479 404.973 275.47H400.32C400.441 276.581 401.222 277.395 402.344 277.395ZM402.311 272.918C401.299 272.918 400.485 273.633 400.331 274.733H404.159C404.049 273.71 403.444 272.918 402.311 272.918ZM410.805 270.311H411.63V278H410.805V276.933C410.376 277.681 409.65 278.132 408.737 278.132C407.241 278.132 406.119 276.9 406.119 275.151C406.119 273.413 407.241 272.181 408.737 272.181C409.65 272.181 410.376 272.632 410.805 273.38V270.311ZM408.891 277.395C410.013 277.395 410.805 276.46 410.805 275.151C410.805 273.842 410.013 272.918 408.891 272.918C407.78 272.918 406.988 273.842 406.988 275.151C406.988 276.46 407.78 277.395 408.891 277.395ZM418.093 278L416.19 272.313H417.07L418.489 276.9L420.04 272.313H420.755L422.306 276.9L423.725 272.313H424.605L422.691 278H421.91L420.403 273.457L418.874 278H418.093ZM426.355 271.279C426.047 271.279 425.805 271.026 425.805 270.729C425.805 270.443 426.047 270.19 426.355 270.19C426.652 270.19 426.894 270.443 426.894 270.729C426.894 271.026 426.652 271.279 426.355 271.279ZM425.937 278V272.313H426.762V278H425.937ZM431.076 277.164L431.483 277.769C431.186 278 430.812 278.132 430.427 278.132C429.613 278.132 429.041 277.527 429.041 276.68V273.05H428.15V272.313H429.041V270.751H429.866V272.313H431.263V273.05H429.866V276.68C429.866 277.098 430.152 277.395 430.482 277.395C430.735 277.395 430.955 277.296 431.076 277.164ZM435.563 272.181C436.828 272.181 437.697 273.072 437.697 274.381V278H436.872V274.491C436.872 273.556 436.289 272.918 435.453 272.918C434.485 272.918 433.693 273.578 433.693 274.381V278H432.868V270.311H433.693V273.215C434.023 272.61 434.749 272.181 435.563 272.181ZM447.15 270.311H447.975V278H447.15V276.933C446.721 277.681 445.995 278.132 445.082 278.132C443.586 278.132 442.464 276.9 442.464 275.151C442.464 273.413 443.586 272.181 445.082 272.181C445.995 272.181 446.721 272.632 447.15 273.38V270.311ZM445.236 277.395C446.358 277.395 447.15 276.46 447.15 275.151C447.15 273.842 446.358 272.918 445.236 272.918C444.125 272.918 443.333 273.842 443.333 275.151C443.333 276.46 444.125 277.395 445.236 277.395ZM450.504 271.279C450.196 271.279 449.954 271.026 449.954 270.729C449.954 270.443 450.196 270.19 450.504 270.19C450.801 270.19 451.043 270.443 451.043 270.729C451.043 271.026 450.801 271.279 450.504 271.279ZM450.086 278V272.313H450.911V278H450.086ZM454.598 278L452.178 272.313H453.102L454.994 277.032L456.853 272.313H457.777L455.39 278H454.598ZM459.466 271.279C459.158 271.279 458.916 271.026 458.916 270.729C458.916 270.443 459.158 270.19 459.466 270.19C459.763 270.19 460.005 270.443 460.005 270.729C460.005 271.026 459.763 271.279 459.466 271.279ZM459.048 278V272.313H459.873V278H459.048ZM466.233 270.311H467.058V278H466.233V276.933C465.804 277.681 465.078 278.132 464.165 278.132C462.669 278.132 461.547 276.9 461.547 275.151C461.547 273.413 462.669 272.181 464.165 272.181C465.078 272.181 465.804 272.632 466.233 273.38V270.311ZM464.319 277.395C465.441 277.395 466.233 276.46 466.233 275.151C466.233 273.842 465.441 272.918 464.319 272.918C463.208 272.918 462.416 273.842 462.416 275.151C462.416 276.46 463.208 277.395 464.319 277.395ZM471.567 277.395C472.238 277.395 473.008 277.098 473.36 276.713L473.866 277.252C473.371 277.791 472.37 278.132 471.578 278.132C470.06 278.132 468.696 276.889 468.696 275.14C468.696 273.446 469.972 272.181 471.501 272.181C473.217 272.181 474.196 273.479 474.196 275.47H469.543C469.664 276.581 470.445 277.395 471.567 277.395ZM471.534 272.918C470.522 272.918 469.708 273.633 469.554 274.733H473.382C473.272 273.71 472.667 272.918 471.534 272.918ZM476.607 273.424C476.948 272.665 477.762 272.181 478.807 272.181V272.918C477.52 272.918 476.607 273.71 476.607 274.821V278H475.782V272.313H476.607V273.424Z" fill="#FDA1D8"/>
<path d="M599.212 41.756H600.868L597.424 50H595.756L592.312 41.756H593.968L596.596 48.008L599.212 41.756ZM603.316 50V41.756H604.804V50H603.316ZM614.293 43.124H609.589V45.116H613.837V46.484H609.589V48.632H614.293V50H608.089V41.756H614.293V43.124ZM618.929 50L616.313 41.756H617.957L619.721 47.66L621.677 41.756H623.297L625.241 47.66L627.017 41.756H628.649L626.045 50H624.557L622.493 43.88L620.417 50H618.929ZM639.209 50.144C636.869 50.144 634.889 48.188 634.889 45.872C634.889 43.556 636.869 41.612 639.209 41.612C641.561 41.612 643.541 43.556 643.541 45.872C643.541 48.188 641.561 50.144 639.209 50.144ZM639.209 48.776C640.733 48.776 642.005 47.456 642.005 45.872C642.005 44.3 640.733 42.98 639.209 42.98C637.697 42.98 636.413 44.3 636.413 45.872C636.413 47.456 637.697 48.776 639.209 48.776ZM646.285 50V41.756H649.873C651.625 41.756 652.957 42.884 652.957 44.492C652.957 46.1 651.625 47.228 649.873 47.228H647.773V50H646.285ZM647.773 45.848H649.693C650.713 45.848 651.421 45.332 651.421 44.492C651.421 43.652 650.713 43.136 649.693 43.136H647.773V45.848ZM657.441 50V43.124H654.801V41.756H661.569V43.124H658.941V50H657.441ZM664.07 50V41.756H665.558V50H664.07ZM672.623 50.144C670.283 50.144 668.303 48.188 668.303 45.872C668.303 43.556 670.283 41.612 672.623 41.612C674.975 41.612 676.955 43.556 676.955 45.872C676.955 48.188 674.975 50.144 672.623 50.144ZM672.623 48.776C674.147 48.776 675.419 47.456 675.419 45.872C675.419 44.3 674.147 42.98 672.623 42.98C671.111 42.98 669.827 44.3 669.827 45.872C669.827 47.456 671.111 48.776 672.623 48.776ZM679.699 50V41.756H681.187L685.543 47.552V41.756H687.031V50H685.543L681.187 44.204V50H679.699ZM693.164 50.132C691.76 50.132 690.548 49.652 689.636 48.8L690.512 47.732C691.268 48.416 692.144 48.848 693.224 48.848C694.232 48.848 694.76 48.344 694.76 47.756C694.76 47.072 694.172 46.844 692.852 46.532C691.148 46.136 689.972 45.644 689.972 44.096C689.972 42.656 691.196 41.612 692.924 41.612C694.232 41.612 695.228 42.056 696.044 42.764L695.228 43.856C694.52 43.244 693.692 42.896 692.876 42.896C692.036 42.896 691.484 43.388 691.484 43.964C691.484 44.636 692.084 44.876 693.392 45.176C695.108 45.56 696.26 46.112 696.26 47.612C696.26 49.088 695.144 50.132 693.164 50.132Z" fill="#2EC0FF"/>
<path d="M719.12 43.9915L714 49.2893L708.88 43.9915C708.59 43.6908 708.599 43.2123 708.9 42.9226C709.201 42.633 709.679 42.642 709.969 42.9426L714 47.116L718.036 42.9426C718.325 42.642 718.804 42.633 719.104 42.9226C719.405 43.2123 719.414 43.6908 719.124 43.9915H719.12Z" fill="#2EC0FF"/>
<path d="M584 28.5H730C731.933 28.5 733.5 30.067 733.5 32V60C733.5 61.933 731.933 63.5 730 63.5H584C582.067 63.5 580.5 61.933 580.5 60V32C580.5 30.067 582.067 28.5 584 28.5Z" stroke="#2EC0FF"/>
<g filter="url(#filter2_d_10314_11693)">
<path d="M580 68C580 65.7909 581.791 64 584 64H743C745.209 64 747 65.7909 747 68V301C747 303.209 745.209 305 743 305H584C581.791 305 580 303.209 580 301V68Z" fill="#22343C"/>
<rect width="165" height="24" transform="translate(581 76)" fill="#22343C"/>
<path d="M602.148 88.334V87.19H605.853V90.752C604.995 91.61 603.604 92.156 602.33 92.156C599.821 92.156 597.689 90.037 597.689 87.528C597.689 85.019 599.821 82.913 602.33 82.913C603.604 82.913 604.995 83.446 605.853 84.317L604.93 85.201C604.319 84.538 603.253 84.122 602.33 84.122C600.536 84.122 599.028 85.682 599.028 87.528C599.028 89.387 600.536 90.947 602.33 90.947C603.084 90.947 603.929 90.674 604.553 90.206V88.334H602.148ZM609.003 86.592C609.419 85.695 610.329 85.123 611.499 85.123V86.241C610.017 86.241 609.003 87.125 609.003 88.425V92H607.716V85.279H609.003V86.592ZM615.9 92.156C613.963 92.156 612.364 90.57 612.364 88.633C612.364 86.696 613.963 85.123 615.9 85.123C617.837 85.123 619.436 86.696 619.436 88.633C619.436 90.57 617.837 92.156 615.9 92.156ZM615.9 91.038C617.135 91.038 618.149 89.959 618.149 88.633C618.149 87.307 617.135 86.241 615.9 86.241C614.665 86.241 613.651 87.307 613.651 88.633C613.651 89.959 614.665 91.038 615.9 91.038ZM625.408 85.279H626.695V92H625.408V91.038C625.005 91.701 624.186 92.156 623.263 92.156C621.781 92.156 620.754 91.103 620.754 89.556V85.279H622.015V89.335C622.015 90.349 622.652 91.038 623.562 91.038C624.589 91.038 625.408 90.336 625.408 89.452V85.279ZM632.384 85.123C634.165 85.123 635.478 86.579 635.478 88.633C635.478 90.7 634.165 92.156 632.384 92.156C631.357 92.156 630.525 91.662 630.005 90.843V94.236H628.718V85.279H630.005V86.423C630.525 85.617 631.357 85.123 632.384 85.123ZM632.085 91.038C633.307 91.038 634.178 90.037 634.178 88.633C634.178 87.229 633.307 86.241 632.085 86.241C630.863 86.241 630.005 87.229 630.005 88.633C630.005 90.037 630.863 91.038 632.085 91.038ZM641.778 92V84.629L640.231 85.617L639.685 84.668L642.038 83.069H643.091V92H641.778ZM648.783 89.036V87.866H652.215V89.036H648.783ZM660.663 92.156C658.726 92.156 657.127 90.57 657.127 88.633C657.127 86.696 658.726 85.123 660.663 85.123C662.6 85.123 664.199 86.696 664.199 88.633C664.199 90.57 662.6 92.156 660.663 92.156ZM660.663 91.038C661.898 91.038 662.912 89.959 662.912 88.633C662.912 87.307 661.898 86.241 660.663 86.241C659.428 86.241 658.414 87.307 658.414 88.633C658.414 89.959 659.428 91.038 660.663 91.038ZM669.326 85.123C671.107 85.123 672.42 86.579 672.42 88.633C672.42 90.7 671.107 92.156 669.326 92.156C668.299 92.156 667.467 91.662 666.947 90.843V94.236H665.66V85.279H666.947V86.423C667.467 85.617 668.299 85.123 669.326 85.123ZM669.027 91.038C670.249 91.038 671.12 90.037 671.12 88.633C671.12 87.229 670.249 86.241 669.027 86.241C667.805 86.241 666.947 87.229 666.947 88.633C666.947 90.037 667.805 91.038 669.027 91.038ZM676.812 90.791L677.293 91.675C676.929 91.974 676.422 92.156 675.941 92.156C674.901 92.156 674.173 91.402 674.173 90.323V86.371H673.172V85.279H674.173V83.433H675.434V85.279H677.02V86.371H675.434V90.232C675.434 90.7 675.759 91.038 676.136 91.038C676.422 91.038 676.682 90.934 676.812 90.791ZM679.186 84.161C678.757 84.161 678.406 83.797 678.406 83.381C678.406 82.978 678.757 82.614 679.186 82.614C679.615 82.614 679.953 82.978 679.953 83.381C679.953 83.797 679.615 84.161 679.186 84.161ZM678.536 92V85.279H679.823V92H678.536ZM684.816 92.156C682.879 92.156 681.28 90.57 681.28 88.633C681.28 86.696 682.879 85.123 684.816 85.123C686.753 85.123 688.352 86.696 688.352 88.633C688.352 90.57 686.753 92.156 684.816 92.156ZM684.816 91.038C686.051 91.038 687.065 89.959 687.065 88.633C687.065 87.307 686.051 86.241 684.816 86.241C683.581 86.241 682.567 87.307 682.567 88.633C682.567 89.959 683.581 91.038 684.816 91.038ZM693.245 85.123C694.727 85.123 695.754 86.176 695.754 87.723V92H694.506V87.944C694.506 86.93 693.869 86.241 692.959 86.241C691.932 86.241 691.1 86.943 691.1 87.827V92H689.813V85.279H691.1V86.267C691.49 85.591 692.322 85.123 693.245 85.123ZM699.832 92.156C698.844 92.156 697.778 91.805 696.972 91.155L697.557 90.271C698.298 90.817 699.104 91.116 699.845 91.116C700.651 91.116 701.158 90.752 701.158 90.206C701.158 89.569 700.456 89.361 699.598 89.127C698.064 88.698 697.284 88.256 697.284 87.164C697.284 85.929 698.311 85.123 699.728 85.123C700.599 85.123 701.496 85.422 702.211 85.903L701.678 86.813C701.015 86.397 700.339 86.163 699.728 86.163C699.052 86.163 698.506 86.462 698.506 87.021C698.506 87.541 698.961 87.697 700.105 88.048C701.21 88.373 702.38 88.737 702.38 90.076C702.38 91.35 701.314 92.156 699.832 92.156Z" fill="#E3EAED"/>
<rect width="165" height="24" transform="translate(581 100)" fill="#22343C"/>
<path d="M618.304 116.156C615.834 116.156 613.728 114.037 613.728 111.528C613.728 109.019 615.834 106.913 618.304 106.913C620.787 106.913 622.867 109.019 622.867 111.528C622.867 114.037 620.787 116.156 618.304 116.156ZM618.304 115.22C620.228 115.22 621.84 113.53 621.84 111.528C621.84 109.539 620.228 107.849 618.304 107.849C616.38 107.849 614.755 109.539 614.755 111.528C614.755 113.53 616.38 115.22 618.304 115.22ZM628.063 109.123C629.831 109.123 631.157 110.579 631.157 112.633C631.157 114.7 629.831 116.156 628.063 116.156C626.984 116.156 626.126 115.623 625.619 114.739V118.236H624.644V109.279H625.619V110.54C626.126 109.656 626.984 109.123 628.063 109.123ZM627.881 115.285C629.194 115.285 630.13 114.18 630.13 112.633C630.13 111.086 629.194 109.994 627.881 109.994C626.555 109.994 625.619 111.086 625.619 112.633C625.619 114.18 626.555 115.285 627.881 115.285ZM635.396 115.012L635.877 115.727C635.526 116 635.084 116.156 634.629 116.156C633.667 116.156 632.991 115.441 632.991 114.44V110.15H631.938V109.279H632.991V107.433H633.966V109.279H635.617V110.15H633.966V114.44C633.966 114.934 634.304 115.285 634.694 115.285C634.993 115.285 635.253 115.168 635.396 115.012ZM637.672 108.057C637.308 108.057 637.022 107.758 637.022 107.407C637.022 107.069 637.308 106.77 637.672 106.77C638.023 106.77 638.309 107.069 638.309 107.407C638.309 107.758 638.023 108.057 637.672 108.057ZM637.178 116V109.279H638.153V116H637.178ZM643.201 116.156C641.29 116.156 639.73 114.57 639.73 112.633C639.73 110.696 641.29 109.123 643.201 109.123C645.099 109.123 646.659 110.696 646.659 112.633C646.659 114.57 645.099 116.156 643.201 116.156ZM643.201 115.285C644.54 115.285 645.645 114.089 645.645 112.633C645.645 111.177 644.54 109.994 643.201 109.994C641.849 109.994 640.744 111.177 640.744 112.633C640.744 114.089 641.849 115.285 643.201 115.285ZM651.423 109.123C652.918 109.123 653.945 110.176 653.945 111.723V116H652.97V111.853C652.97 110.748 652.281 109.994 651.293 109.994C650.149 109.994 649.213 110.774 649.213 111.723V116H648.238V109.279H649.213V110.345C649.603 109.63 650.461 109.123 651.423 109.123ZM660.557 116V108.304L658.997 109.318L658.555 108.564L660.752 107.069H661.571V116H660.557Z" fill="#E3EAED"/>
<rect width="165" height="24" transform="translate(581 124)" fill="#22343C"/>
<path d="M618.304 140.156C615.834 140.156 613.728 138.037 613.728 135.528C613.728 133.019 615.834 130.913 618.304 130.913C620.787 130.913 622.867 133.019 622.867 135.528C622.867 138.037 620.787 140.156 618.304 140.156ZM618.304 139.22C620.228 139.22 621.84 137.53 621.84 135.528C621.84 133.539 620.228 131.849 618.304 131.849C616.38 131.849 614.755 133.539 614.755 135.528C614.755 137.53 616.38 139.22 618.304 139.22ZM628.063 133.123C629.831 133.123 631.157 134.579 631.157 136.633C631.157 138.7 629.831 140.156 628.063 140.156C626.984 140.156 626.126 139.623 625.619 138.739V142.236H624.644V133.279H625.619V134.54C626.126 133.656 626.984 133.123 628.063 133.123ZM627.881 139.285C629.194 139.285 630.13 138.18 630.13 136.633C630.13 135.086 629.194 133.994 627.881 133.994C626.555 133.994 625.619 135.086 625.619 136.633C625.619 138.18 626.555 139.285 627.881 139.285ZM635.396 139.012L635.877 139.727C635.526 140 635.084 140.156 634.629 140.156C633.667 140.156 632.991 139.441 632.991 138.44V134.15H631.938V133.279H632.991V131.433H633.966V133.279H635.617V134.15H633.966V138.44C633.966 138.934 634.304 139.285 634.694 139.285C634.993 139.285 635.253 139.168 635.396 139.012ZM637.672 132.057C637.308 132.057 637.022 131.758 637.022 131.407C637.022 131.069 637.308 130.77 637.672 130.77C638.023 130.77 638.309 131.069 638.309 131.407C638.309 131.758 638.023 132.057 637.672 132.057ZM637.178 140V133.279H638.153V140H637.178ZM643.201 140.156C641.29 140.156 639.73 138.57 639.73 136.633C639.73 134.696 641.29 133.123 643.201 133.123C645.099 133.123 646.659 134.696 646.659 136.633C646.659 138.57 645.099 140.156 643.201 140.156ZM643.201 139.285C644.54 139.285 645.645 138.089 645.645 136.633C645.645 135.177 644.54 133.994 643.201 133.994C641.849 133.994 640.744 135.177 640.744 136.633C640.744 138.089 641.849 139.285 643.201 139.285ZM651.423 133.123C652.918 133.123 653.945 134.176 653.945 135.723V140H652.97V135.853C652.97 134.748 652.281 133.994 651.293 133.994C650.149 133.994 649.213 134.774 649.213 135.723V140H648.238V133.279H649.213V134.345C649.603 133.63 650.461 133.123 651.423 133.123ZM658.737 140V139.155L662 136.373C663.261 135.294 663.781 134.436 663.781 133.552C663.781 132.46 662.871 131.823 661.922 131.823C660.882 131.823 660.141 132.382 659.53 133.214L658.815 132.629C659.556 131.576 660.557 130.913 661.961 130.913C663.508 130.913 664.808 131.94 664.808 133.539C664.808 134.748 664.21 135.71 662.702 137.01L660.362 139.038H664.899V140H658.737Z" fill="#E3EAED"/>
<rect width="165" height="24" transform="translate(581 148)" fill="#4F6169"/>
<path d="M618.304 164.156C615.834 164.156 613.728 162.037 613.728 159.528C613.728 157.019 615.834 154.913 618.304 154.913C620.787 154.913 622.867 157.019 622.867 159.528C622.867 162.037 620.787 164.156 618.304 164.156ZM618.304 163.22C620.228 163.22 621.84 161.53 621.84 159.528C621.84 157.539 620.228 155.849 618.304 155.849C616.38 155.849 614.755 157.539 614.755 159.528C614.755 161.53 616.38 163.22 618.304 163.22ZM628.063 157.123C629.831 157.123 631.157 158.579 631.157 160.633C631.157 162.7 629.831 164.156 628.063 164.156C626.984 164.156 626.126 163.623 625.619 162.739V166.236H624.644V157.279H625.619V158.54C626.126 157.656 626.984 157.123 628.063 157.123ZM627.881 163.285C629.194 163.285 630.13 162.18 630.13 160.633C630.13 159.086 629.194 157.994 627.881 157.994C626.555 157.994 625.619 159.086 625.619 160.633C625.619 162.18 626.555 163.285 627.881 163.285ZM635.396 163.012L635.877 163.727C635.526 164 635.084 164.156 634.629 164.156C633.667 164.156 632.991 163.441 632.991 162.44V158.15H631.938V157.279H632.991V155.433H633.966V157.279H635.617V158.15H633.966V162.44C633.966 162.934 634.304 163.285 634.694 163.285C634.993 163.285 635.253 163.168 635.396 163.012ZM637.672 156.057C637.308 156.057 637.022 155.758 637.022 155.407C637.022 155.069 637.308 154.77 637.672 154.77C638.023 154.77 638.309 155.069 638.309 155.407C638.309 155.758 638.023 156.057 637.672 156.057ZM637.178 164V157.279H638.153V164H637.178ZM643.201 164.156C641.29 164.156 639.73 162.57 639.73 160.633C639.73 158.696 641.29 157.123 643.201 157.123C645.099 157.123 646.659 158.696 646.659 160.633C646.659 162.57 645.099 164.156 643.201 164.156ZM643.201 163.285C644.54 163.285 645.645 162.089 645.645 160.633C645.645 159.177 644.54 157.994 643.201 157.994C641.849 157.994 640.744 159.177 640.744 160.633C640.744 162.089 641.849 163.285 643.201 163.285ZM651.423 157.123C652.918 157.123 653.945 158.176 653.945 159.723V164H652.97V159.853C652.97 158.748 652.281 157.994 651.293 157.994C650.149 157.994 649.213 158.774 649.213 159.723V164H648.238V157.279H649.213V158.345C649.603 157.63 650.461 157.123 651.423 157.123ZM661.935 164.156C660.466 164.156 659.335 163.48 658.685 162.622L659.387 161.959C659.972 162.713 660.843 163.233 661.935 163.233C663.183 163.233 664.015 162.544 664.015 161.53C664.015 160.477 663.118 159.944 661.714 159.944H660.765V159.008L661.727 159.021C662.923 159.034 663.82 158.462 663.82 157.448C663.82 156.512 662.962 155.836 661.844 155.836C660.856 155.836 660.154 156.33 659.517 157.097L658.841 156.486C659.517 155.589 660.505 154.913 661.896 154.913C663.599 154.913 664.847 155.901 664.847 157.331C664.847 158.475 664.041 159.151 663.118 159.424C664.028 159.632 665.042 160.295 665.042 161.582C665.042 163.077 663.794 164.156 661.935 164.156Z" fill="#F1F6F8"/>
<rect width="165" height="1" transform="translate(581 184)" fill="#859399"/>
<rect width="165" height="24" transform="translate(581 197)" fill="#22343C"/>
<path d="M602.148 209.334V208.19H605.853V211.752C604.995 212.61 603.604 213.156 602.33 213.156C599.821 213.156 597.689 211.037 597.689 208.528C597.689 206.019 599.821 203.913 602.33 203.913C603.604 203.913 604.995 204.446 605.853 205.317L604.93 206.201C604.319 205.538 603.253 205.122 602.33 205.122C600.536 205.122 599.028 206.682 599.028 208.528C599.028 210.387 600.536 211.947 602.33 211.947C603.084 211.947 603.929 211.674 604.553 211.206V209.334H602.148ZM609.003 207.592C609.419 206.695 610.329 206.123 611.499 206.123V207.241C610.017 207.241 609.003 208.125 609.003 209.425V213H607.716V206.279H609.003V207.592ZM615.9 213.156C613.963 213.156 612.364 211.57 612.364 209.633C612.364 207.696 613.963 206.123 615.9 206.123C617.837 206.123 619.436 207.696 619.436 209.633C619.436 211.57 617.837 213.156 615.9 213.156ZM615.9 212.038C617.135 212.038 618.149 210.959 618.149 209.633C618.149 208.307 617.135 207.241 615.9 207.241C614.665 207.241 613.651 208.307 613.651 209.633C613.651 210.959 614.665 212.038 615.9 212.038ZM625.408 206.279H626.695V213H625.408V212.038C625.005 212.701 624.186 213.156 623.263 213.156C621.781 213.156 620.754 212.103 620.754 210.556V206.279H622.015V210.335C622.015 211.349 622.652 212.038 623.562 212.038C624.589 212.038 625.408 211.336 625.408 210.452V206.279ZM632.384 206.123C634.165 206.123 635.478 207.579 635.478 209.633C635.478 211.7 634.165 213.156 632.384 213.156C631.357 213.156 630.525 212.662 630.005 211.843V215.236H628.718V206.279H630.005V207.423C630.525 206.617 631.357 206.123 632.384 206.123ZM632.085 212.038C633.307 212.038 634.178 211.037 634.178 209.633C634.178 208.229 633.307 207.241 632.085 207.241C630.863 207.241 630.005 208.229 630.005 209.633C630.005 211.037 630.863 212.038 632.085 212.038ZM639.88 213V211.921L643.156 209.217C644.352 208.216 644.807 207.449 644.807 206.643C644.807 205.668 644.001 205.096 643.117 205.096C642.142 205.096 641.427 205.616 640.803 206.422L639.919 205.642C640.699 204.563 641.752 203.913 643.169 203.913C644.833 203.913 646.159 204.992 646.159 206.617C646.159 207.813 645.587 208.762 644.053 210.01L641.96 211.778H646.237V213H639.88ZM651.373 210.036V208.866H654.805V210.036H651.373ZM663.253 213.156C661.316 213.156 659.717 211.57 659.717 209.633C659.717 207.696 661.316 206.123 663.253 206.123C665.19 206.123 666.789 207.696 666.789 209.633C666.789 211.57 665.19 213.156 663.253 213.156ZM663.253 212.038C664.488 212.038 665.502 210.959 665.502 209.633C665.502 208.307 664.488 207.241 663.253 207.241C662.018 207.241 661.004 208.307 661.004 209.633C661.004 210.959 662.018 212.038 663.253 212.038ZM671.916 206.123C673.697 206.123 675.01 207.579 675.01 209.633C675.01 211.7 673.697 213.156 671.916 213.156C670.889 213.156 670.057 212.662 669.537 211.843V215.236H668.25V206.279H669.537V207.423C670.057 206.617 670.889 206.123 671.916 206.123ZM671.617 212.038C672.839 212.038 673.71 211.037 673.71 209.633C673.71 208.229 672.839 207.241 671.617 207.241C670.395 207.241 669.537 208.229 669.537 209.633C669.537 211.037 670.395 212.038 671.617 212.038ZM679.402 211.791L679.883 212.675C679.519 212.974 679.012 213.156 678.531 213.156C677.491 213.156 676.763 212.402 676.763 211.323V207.371H675.762V206.279H676.763V204.433H678.024V206.279H679.61V207.371H678.024V211.232C678.024 211.7 678.349 212.038 678.726 212.038C679.012 212.038 679.272 211.934 679.402 211.791ZM681.776 205.161C681.347 205.161 680.996 204.797 680.996 204.381C680.996 203.978 681.347 203.614 681.776 203.614C682.205 203.614 682.543 203.978 682.543 204.381C682.543 204.797 682.205 205.161 681.776 205.161ZM681.126 213V206.279H682.413V213H681.126ZM687.406 213.156C685.469 213.156 683.87 211.57 683.87 209.633C683.87 207.696 685.469 206.123 687.406 206.123C689.343 206.123 690.942 207.696 690.942 209.633C690.942 211.57 689.343 213.156 687.406 213.156ZM687.406 212.038C688.641 212.038 689.655 210.959 689.655 209.633C689.655 208.307 688.641 207.241 687.406 207.241C686.171 207.241 685.157 208.307 685.157 209.633C685.157 210.959 686.171 212.038 687.406 212.038ZM695.835 206.123C697.317 206.123 698.344 207.176 698.344 208.723V213H697.096V208.944C697.096 207.93 696.459 207.241 695.549 207.241C694.522 207.241 693.69 207.943 693.69 208.827V213H692.403V206.279H693.69V207.267C694.08 206.591 694.912 206.123 695.835 206.123ZM702.422 213.156C701.434 213.156 700.368 212.805 699.562 212.155L700.147 211.271C700.888 211.817 701.694 212.116 702.435 212.116C703.241 212.116 703.748 211.752 703.748 211.206C703.748 210.569 703.046 210.361 702.188 210.127C700.654 209.698 699.874 209.256 699.874 208.164C699.874 206.929 700.901 206.123 702.318 206.123C703.189 206.123 704.086 206.422 704.801 206.903L704.268 207.813C703.605 207.397 702.929 207.163 702.318 207.163C701.642 207.163 701.096 207.462 701.096 208.021C701.096 208.541 701.551 208.697 702.695 209.048C703.8 209.373 704.97 209.737 704.97 211.076C704.97 212.35 703.904 213.156 702.422 213.156Z" fill="#E3EAED"/>
<rect width="165" height="24" transform="translate(581 221)" fill="#22343C"/>
<path d="M618.304 237.156C615.834 237.156 613.728 235.037 613.728 232.528C613.728 230.019 615.834 227.913 618.304 227.913C620.787 227.913 622.867 230.019 622.867 232.528C622.867 235.037 620.787 237.156 618.304 237.156ZM618.304 236.22C620.228 236.22 621.84 234.53 621.84 232.528C621.84 230.539 620.228 228.849 618.304 228.849C616.38 228.849 614.755 230.539 614.755 232.528C614.755 234.53 616.38 236.22 618.304 236.22ZM628.063 230.123C629.831 230.123 631.157 231.579 631.157 233.633C631.157 235.7 629.831 237.156 628.063 237.156C626.984 237.156 626.126 236.623 625.619 235.739V239.236H624.644V230.279H625.619V231.54C626.126 230.656 626.984 230.123 628.063 230.123ZM627.881 236.285C629.194 236.285 630.13 235.18 630.13 233.633C630.13 232.086 629.194 230.994 627.881 230.994C626.555 230.994 625.619 232.086 625.619 233.633C625.619 235.18 626.555 236.285 627.881 236.285ZM635.396 236.012L635.877 236.727C635.526 237 635.084 237.156 634.629 237.156C633.667 237.156 632.991 236.441 632.991 235.44V231.15H631.938V230.279H632.991V228.433H633.966V230.279H635.617V231.15H633.966V235.44C633.966 235.934 634.304 236.285 634.694 236.285C634.993 236.285 635.253 236.168 635.396 236.012ZM637.672 229.057C637.308 229.057 637.022 228.758 637.022 228.407C637.022 228.069 637.308 227.77 637.672 227.77C638.023 227.77 638.309 228.069 638.309 228.407C638.309 228.758 638.023 229.057 637.672 229.057ZM637.178 237V230.279H638.153V237H637.178ZM643.201 237.156C641.29 237.156 639.73 235.57 639.73 233.633C639.73 231.696 641.29 230.123 643.201 230.123C645.099 230.123 646.659 231.696 646.659 233.633C646.659 235.57 645.099 237.156 643.201 237.156ZM643.201 236.285C644.54 236.285 645.645 235.089 645.645 233.633C645.645 232.177 644.54 230.994 643.201 230.994C641.849 230.994 640.744 232.177 640.744 233.633C640.744 235.089 641.849 236.285 643.201 236.285ZM651.423 230.123C652.918 230.123 653.945 231.176 653.945 232.723V237H652.97V232.853C652.97 231.748 652.281 230.994 651.293 230.994C650.149 230.994 649.213 231.774 649.213 232.723V237H648.238V230.279H649.213V231.345C649.603 230.63 650.461 230.123 651.423 230.123ZM663.235 237V234.829H658.776L658.646 233.984L663.079 228.069H664.249V233.906H665.588V234.829H664.249V237H663.235ZM659.803 233.906H663.235V229.291L659.803 233.906Z" fill="#E3EAED"/>
<rect width="165" height="24" transform="translate(581 245)" fill="#22343C"/>
<path d="M618.304 261.156C615.834 261.156 613.728 259.037 613.728 256.528C613.728 254.019 615.834 251.913 618.304 251.913C620.787 251.913 622.867 254.019 622.867 256.528C622.867 259.037 620.787 261.156 618.304 261.156ZM618.304 260.22C620.228 260.22 621.84 258.53 621.84 256.528C621.84 254.539 620.228 252.849 618.304 252.849C616.38 252.849 614.755 254.539 614.755 256.528C614.755 258.53 616.38 260.22 618.304 260.22ZM628.063 254.123C629.831 254.123 631.157 255.579 631.157 257.633C631.157 259.7 629.831 261.156 628.063 261.156C626.984 261.156 626.126 260.623 625.619 259.739V263.236H624.644V254.279H625.619V255.54C626.126 254.656 626.984 254.123 628.063 254.123ZM627.881 260.285C629.194 260.285 630.13 259.18 630.13 257.633C630.13 256.086 629.194 254.994 627.881 254.994C626.555 254.994 625.619 256.086 625.619 257.633C625.619 259.18 626.555 260.285 627.881 260.285ZM635.396 260.012L635.877 260.727C635.526 261 635.084 261.156 634.629 261.156C633.667 261.156 632.991 260.441 632.991 259.44V255.15H631.938V254.279H632.991V252.433H633.966V254.279H635.617V255.15H633.966V259.44C633.966 259.934 634.304 260.285 634.694 260.285C634.993 260.285 635.253 260.168 635.396 260.012ZM637.672 253.057C637.308 253.057 637.022 252.758 637.022 252.407C637.022 252.069 637.308 251.77 637.672 251.77C638.023 251.77 638.309 252.069 638.309 252.407C638.309 252.758 638.023 253.057 637.672 253.057ZM637.178 261V254.279H638.153V261H637.178ZM643.201 261.156C641.29 261.156 639.73 259.57 639.73 257.633C639.73 255.696 641.29 254.123 643.201 254.123C645.099 254.123 646.659 255.696 646.659 257.633C646.659 259.57 645.099 261.156 643.201 261.156ZM643.201 260.285C644.54 260.285 645.645 259.089 645.645 257.633C645.645 256.177 644.54 254.994 643.201 254.994C641.849 254.994 640.744 256.177 640.744 257.633C640.744 259.089 641.849 260.285 643.201 260.285ZM651.423 254.123C652.918 254.123 653.945 255.176 653.945 256.723V261H652.97V256.853C652.97 255.748 652.281 254.994 651.293 254.994C650.149 254.994 649.213 255.774 649.213 256.723V261H648.238V254.279H649.213V255.345C649.603 254.63 650.461 254.123 651.423 254.123ZM662.156 261.156C660.778 261.156 659.738 260.571 659.01 259.739L659.673 258.998C660.362 259.752 661.207 260.246 662.195 260.246C663.43 260.246 664.301 259.388 664.301 258.257C664.301 257.113 663.417 256.333 662.169 256.333C661.402 256.333 660.739 256.606 660.18 257.022L659.439 256.658L659.569 252.069H664.847V253.031H660.557L660.466 256.034C660.947 255.709 661.558 255.436 662.377 255.436C663.989 255.436 665.328 256.45 665.328 258.218C665.328 259.986 663.989 261.156 662.156 261.156Z" fill="#E3EAED"/>
<rect width="165" height="24" transform="translate(581 269)" fill="#22343C"/>
<path d="M618.304 285.156C615.834 285.156 613.728 283.037 613.728 280.528C613.728 278.019 615.834 275.913 618.304 275.913C620.787 275.913 622.867 278.019 622.867 280.528C622.867 283.037 620.787 285.156 618.304 285.156ZM618.304 284.22C620.228 284.22 621.84 282.53 621.84 280.528C621.84 278.539 620.228 276.849 618.304 276.849C616.38 276.849 614.755 278.539 614.755 280.528C614.755 282.53 616.38 284.22 618.304 284.22ZM628.063 278.123C629.831 278.123 631.157 279.579 631.157 281.633C631.157 283.7 629.831 285.156 628.063 285.156C626.984 285.156 626.126 284.623 625.619 283.739V287.236H624.644V278.279H625.619V279.54C626.126 278.656 626.984 278.123 628.063 278.123ZM627.881 284.285C629.194 284.285 630.13 283.18 630.13 281.633C630.13 280.086 629.194 278.994 627.881 278.994C626.555 278.994 625.619 280.086 625.619 281.633C625.619 283.18 626.555 284.285 627.881 284.285ZM635.396 284.012L635.877 284.727C635.526 285 635.084 285.156 634.629 285.156C633.667 285.156 632.991 284.441 632.991 283.44V279.15H631.938V278.279H632.991V276.433H633.966V278.279H635.617V279.15H633.966V283.44C633.966 283.934 634.304 284.285 634.694 284.285C634.993 284.285 635.253 284.168 635.396 284.012ZM637.672 277.057C637.308 277.057 637.022 276.758 637.022 276.407C637.022 276.069 637.308 275.77 637.672 275.77C638.023 275.77 638.309 276.069 638.309 276.407C638.309 276.758 638.023 277.057 637.672 277.057ZM637.178 285V278.279H638.153V285H637.178ZM643.201 285.156C641.29 285.156 639.73 283.57 639.73 281.633C639.73 279.696 641.29 278.123 643.201 278.123C645.099 278.123 646.659 279.696 646.659 281.633C646.659 283.57 645.099 285.156 643.201 285.156ZM643.201 284.285C644.54 284.285 645.645 283.089 645.645 281.633C645.645 280.177 644.54 278.994 643.201 278.994C641.849 278.994 640.744 280.177 640.744 281.633C640.744 283.089 641.849 284.285 643.201 284.285ZM651.423 278.123C652.918 278.123 653.945 279.176 653.945 280.723V285H652.97V280.853C652.97 279.748 652.281 278.994 651.293 278.994C650.149 278.994 649.213 279.774 649.213 280.723V285H648.238V278.279H649.213V279.345C649.603 278.63 650.461 278.123 651.423 278.123ZM662.663 279.423C664.288 279.423 665.653 280.437 665.653 282.205C665.653 283.856 664.366 285.156 662.507 285.156C660.089 285.156 659.114 283.193 659.114 280.671C659.114 278.006 660.7 275.913 662.728 275.913C663.82 275.913 664.6 276.342 665.263 276.979L664.704 277.772C664.145 277.226 663.56 276.836 662.702 276.836C661.272 276.836 660.141 278.526 660.141 280.671V280.788C660.687 279.93 661.61 279.423 662.663 279.423ZM662.494 284.285C663.833 284.285 664.626 283.245 664.626 282.257C664.626 281.035 663.677 280.294 662.481 280.294C661.35 280.294 660.479 280.97 660.258 281.958C660.518 283.31 661.246 284.285 662.494 284.285Z" fill="#E3EAED"/>
<path d="M584 64.5H743C744.933 64.5 746.5 66.067 746.5 68V301C746.5 302.933 744.933 304.5 743 304.5H584C582.067 304.5 580.5 302.933 580.5 301V68C580.5 66.067 582.067 64.5 584 64.5Z" stroke="#67777E"/>
</g>
<path d="M584.4 322.832V322.018H587.425V324.977C586.721 325.681 585.533 326.132 584.488 326.132C582.398 326.132 580.616 324.339 580.616 322.216C580.616 320.093 582.398 318.311 584.488 318.311C585.533 318.311 586.721 318.751 587.425 319.466L586.842 320.06C586.292 319.477 585.313 319.103 584.488 319.103C582.86 319.103 581.485 320.533 581.485 322.216C581.485 323.91 582.86 325.34 584.488 325.34C585.192 325.34 586.006 325.065 586.567 324.636V322.832H584.4ZM590.232 321.424C590.573 320.665 591.387 320.181 592.432 320.181V320.918C591.145 320.918 590.232 321.71 590.232 322.821V326H589.407V320.313H590.232V321.424ZM596.41 326.132C594.793 326.132 593.473 324.79 593.473 323.151C593.473 321.512 594.793 320.181 596.41 320.181C598.016 320.181 599.336 321.512 599.336 323.151C599.336 324.79 598.016 326.132 596.41 326.132ZM596.41 325.395C597.543 325.395 598.478 324.383 598.478 323.151C598.478 321.919 597.543 320.918 596.41 320.918C595.266 320.918 594.331 321.919 594.331 323.151C594.331 324.383 595.266 325.395 596.41 325.395ZM604.829 320.313H605.654V326H604.829V325.098C604.499 325.703 603.773 326.132 602.959 326.132C601.694 326.132 600.825 325.241 600.825 323.932V320.313H601.65V323.822C601.65 324.757 602.233 325.395 603.069 325.395C604.037 325.395 604.829 324.735 604.829 323.932V320.313ZM610.657 320.181C612.153 320.181 613.275 321.413 613.275 323.151C613.275 324.9 612.153 326.132 610.657 326.132C609.744 326.132 609.018 325.681 608.589 324.933V327.892H607.764V320.313H608.589V321.38C609.018 320.632 609.744 320.181 610.657 320.181ZM610.503 325.395C611.614 325.395 612.406 324.46 612.406 323.151C612.406 321.842 611.614 320.918 610.503 320.918C609.381 320.918 608.589 321.842 608.589 323.151C608.589 324.46 609.381 325.395 610.503 325.395ZM617.344 325.395C618.015 325.395 618.785 325.098 619.137 324.713L619.643 325.252C619.148 325.791 618.147 326.132 617.355 326.132C615.837 326.132 614.473 324.889 614.473 323.14C614.473 321.446 615.749 320.181 617.278 320.181C618.994 320.181 619.973 321.479 619.973 323.47H615.32C615.441 324.581 616.222 325.395 617.344 325.395ZM617.311 320.918C616.299 320.918 615.485 321.633 615.331 322.733H619.159C619.049 321.71 618.444 320.918 617.311 320.918ZM625.805 318.311H626.63V326H625.805V324.933C625.376 325.681 624.65 326.132 623.737 326.132C622.241 326.132 621.119 324.9 621.119 323.151C621.119 321.413 622.241 320.181 623.737 320.181C624.65 320.181 625.376 320.632 625.805 321.38V318.311ZM623.891 325.395C625.013 325.395 625.805 324.46 625.805 323.151C625.805 321.842 625.013 320.918 623.891 320.918C622.78 320.918 621.988 321.842 621.988 323.151C621.988 324.46 622.78 325.395 623.891 325.395ZM633.093 326L631.19 320.313H632.07L633.489 324.9L635.04 320.313H635.755L637.306 324.9L638.725 320.313H639.605L637.691 326H636.91L635.403 321.457L633.874 326H633.093ZM641.355 319.279C641.047 319.279 640.805 319.026 640.805 318.729C640.805 318.443 641.047 318.19 641.355 318.19C641.652 318.19 641.894 318.443 641.894 318.729C641.894 319.026 641.652 319.279 641.355 319.279ZM640.937 326V320.313H641.762V326H640.937ZM646.076 325.164L646.483 325.769C646.186 326 645.812 326.132 645.427 326.132C644.613 326.132 644.041 325.527 644.041 324.68V321.05H643.15V320.313H644.041V318.751H644.866V320.313H646.263V321.05H644.866V324.68C644.866 325.098 645.152 325.395 645.482 325.395C645.735 325.395 645.955 325.296 646.076 325.164ZM650.563 320.181C651.828 320.181 652.697 321.072 652.697 322.381V326H651.872V322.491C651.872 321.556 651.289 320.918 650.453 320.918C649.485 320.918 648.693 321.578 648.693 322.381V326H647.868V318.311H648.693V321.215C649.023 320.61 649.749 320.181 650.563 320.181ZM662.15 318.311H662.975V326H662.15V324.933C661.721 325.681 660.995 326.132 660.082 326.132C658.586 326.132 657.464 324.9 657.464 323.151C657.464 321.413 658.586 320.181 660.082 320.181C660.995 320.181 661.721 320.632 662.15 321.38V318.311ZM660.236 325.395C661.358 325.395 662.15 324.46 662.15 323.151C662.15 321.842 661.358 320.918 660.236 320.918C659.125 320.918 658.333 321.842 658.333 323.151C658.333 324.46 659.125 325.395 660.236 325.395ZM665.504 319.279C665.196 319.279 664.954 319.026 664.954 318.729C664.954 318.443 665.196 318.19 665.504 318.19C665.801 318.19 666.043 318.443 666.043 318.729C666.043 319.026 665.801 319.279 665.504 319.279ZM665.086 326V320.313H665.911V326H665.086ZM669.598 326L667.178 320.313H668.102L669.994 325.032L671.853 320.313H672.777L670.39 326H669.598ZM674.466 319.279C674.158 319.279 673.916 319.026 673.916 318.729C673.916 318.443 674.158 318.19 674.466 318.19C674.763 318.19 675.005 318.443 675.005 318.729C675.005 319.026 674.763 319.279 674.466 319.279ZM674.048 326V320.313H674.873V326H674.048ZM681.233 318.311H682.058V326H681.233V324.933C680.804 325.681 680.078 326.132 679.165 326.132C677.669 326.132 676.547 324.9 676.547 323.151C676.547 321.413 677.669 320.181 679.165 320.181C680.078 320.181 680.804 320.632 681.233 321.38V318.311ZM679.319 325.395C680.441 325.395 681.233 324.46 681.233 323.151C681.233 321.842 680.441 320.918 679.319 320.918C678.208 320.918 677.416 321.842 677.416 323.151C677.416 324.46 678.208 325.395 679.319 325.395ZM686.567 325.395C687.238 325.395 688.008 325.098 688.36 324.713L688.866 325.252C688.371 325.791 687.37 326.132 686.578 326.132C685.06 326.132 683.696 324.889 683.696 323.14C683.696 321.446 684.972 320.181 686.501 320.181C688.217 320.181 689.196 321.479 689.196 323.47H684.543C684.664 324.581 685.445 325.395 686.567 325.395ZM686.534 320.918C685.522 320.918 684.708 321.633 684.554 322.733H688.382C688.272 321.71 687.667 320.918 686.534 320.918ZM691.607 321.424C691.948 320.665 692.762 320.181 693.807 320.181V320.918C692.52 320.918 691.607 321.71 691.607 322.821V326H690.782V320.313H691.607V321.424ZM700.608 320.181C702.159 320.181 702.918 321.16 702.918 322.535V326H702.093V325.109C701.686 325.78 700.839 326.132 700.091 326.132C698.892 326.132 698.012 325.439 698.012 324.317C698.012 323.184 699.024 322.425 700.245 322.425C700.861 322.425 701.51 322.557 702.093 322.744V322.535C702.093 321.765 701.785 320.885 700.553 320.885C699.981 320.885 699.409 321.138 698.892 321.402L698.562 320.731C699.376 320.324 700.058 320.181 700.608 320.181ZM700.234 325.406C700.982 325.406 701.873 325.021 702.093 324.218V323.349C701.576 323.206 700.993 323.118 700.377 323.118C699.53 323.118 698.815 323.602 698.815 324.284C698.815 324.988 699.431 325.406 700.234 325.406ZM707.591 320.181C708.856 320.181 709.725 321.072 709.725 322.381V326H708.9V322.491C708.9 321.556 708.317 320.918 707.481 320.918C706.513 320.918 705.721 321.578 705.721 322.381V326H704.896V320.313H705.721V321.215C706.051 320.61 706.777 320.181 707.591 320.181ZM715.949 318.311H716.774V326H715.949V324.933C715.52 325.681 714.794 326.132 713.881 326.132C712.385 326.132 711.263 324.9 711.263 323.151C711.263 321.413 712.385 320.181 713.881 320.181C714.794 320.181 715.52 320.632 715.949 321.38V318.311ZM714.035 325.395C715.157 325.395 715.949 324.46 715.949 323.151C715.949 321.842 715.157 320.918 714.035 320.918C712.924 320.918 712.132 321.842 712.132 323.151C712.132 324.46 712.924 325.395 714.035 325.395ZM724.809 320.181C726.074 320.181 726.943 321.072 726.943 322.381V326H726.118V322.491C726.118 321.556 725.535 320.918 724.699 320.918C723.731 320.918 722.939 321.578 722.939 322.381V326H722.114V318.311H722.939V321.215C723.269 320.61 723.995 320.181 724.809 320.181ZM731.319 325.395C731.99 325.395 732.76 325.098 733.112 324.713L733.618 325.252C733.123 325.791 732.122 326.132 731.33 326.132C729.812 326.132 728.448 324.889 728.448 323.14C728.448 321.446 729.724 320.181 731.253 320.181C732.969 320.181 733.948 321.479 733.948 323.47H729.295C729.416 324.581 730.197 325.395 731.319 325.395ZM731.286 320.918C730.274 320.918 729.46 321.633 729.306 322.733H733.134C733.024 321.71 732.419 320.918 731.286 320.918ZM737.569 320.181C739.12 320.181 739.879 321.16 739.879 322.535V326H739.054V325.109C738.647 325.78 737.8 326.132 737.052 326.132C735.853 326.132 734.973 325.439 734.973 324.317C734.973 323.184 735.985 322.425 737.206 322.425C737.822 322.425 738.471 322.557 739.054 322.744V322.535C739.054 321.765 738.746 320.885 737.514 320.885C736.942 320.885 736.37 321.138 735.853 321.402L735.523 320.731C736.337 320.324 737.019 320.181 737.569 320.181ZM737.195 325.406C737.943 325.406 738.834 325.021 739.054 324.218V323.349C738.537 323.206 737.954 323.118 737.338 323.118C736.491 323.118 735.776 323.602 735.776 324.284C735.776 324.988 736.392 325.406 737.195 325.406ZM746.103 318.311H746.928V326H746.103V324.933C745.674 325.681 744.948 326.132 744.035 326.132C742.539 326.132 741.417 324.9 741.417 323.151C741.417 321.413 742.539 320.181 744.035 320.181C744.948 320.181 745.674 320.632 746.103 321.38V318.311ZM744.189 325.395C745.311 325.395 746.103 324.46 746.103 323.151C746.103 321.842 745.311 320.918 744.189 320.918C743.078 320.918 742.286 321.842 742.286 323.151C742.286 324.46 743.078 325.395 744.189 325.395ZM751.437 325.395C752.108 325.395 752.878 325.098 753.23 324.713L753.736 325.252C753.241 325.791 752.24 326.132 751.448 326.132C749.93 326.132 748.566 324.889 748.566 323.14C748.566 321.446 749.842 320.181 751.371 320.181C753.087 320.181 754.066 321.479 754.066 323.47H749.413C749.534 324.581 750.315 325.395 751.437 325.395ZM751.404 320.918C750.392 320.918 749.578 321.633 749.424 322.733H753.252C753.142 321.71 752.537 320.918 751.404 320.918ZM756.477 321.424C756.818 320.665 757.632 320.181 758.677 320.181V320.918C757.39 320.918 756.477 321.71 756.477 322.821V326H755.652V320.313H756.477V321.424ZM761.974 326.132C761.182 326.132 760.302 325.835 759.62 325.285L760.049 324.68C760.698 325.153 761.347 325.395 761.974 325.395C762.722 325.395 763.228 325.043 763.228 324.504C763.228 323.888 762.568 323.69 761.798 323.47C760.423 323.074 759.895 322.667 759.895 321.853C759.895 320.819 760.753 320.181 761.886 320.181C762.59 320.181 763.316 320.423 763.921 320.819L763.525 321.457C762.953 321.094 762.392 320.918 761.886 320.918C761.248 320.918 760.72 321.204 760.72 321.754C760.72 322.249 761.138 322.403 762.194 322.744C763.107 323.03 764.053 323.338 764.053 324.416C764.053 325.461 763.151 326.132 761.974 326.132Z" fill="#FDA1D8"/>
<rect x="0.5" y="0.5" width="927" height="359" rx="3.5" stroke="#4F6169"/>
<defs>
<filter id="filter0_d_10314_11693" x="143" y="62" width="173" height="174" filterUnits="userSpaceOnUse" color-interpolation-filters="sRGB">
<feFlood flood-opacity="0" result="BackgroundImageFix"/>
<feColorMatrix in="SourceAlpha" type="matrix" values="0 0 0 0 0 0 0 0 0 0 0 0 0 0 0 0 0 0 127 0" result="hardAlpha"/>
<feOffset dy="1"/>
<feGaussianBlur stdDeviation="1.5"/>
<feColorMatrix type="matrix" values="0 0 0 0 0.105 0 0 0 0 0.168 0 0 0 0 0.195 0 0 0 0.2 0"/>
<feBlend mode="normal" in2="BackgroundImageFix" result="effect1_dropShadow_10314_11693"/>
<feBlend mode="normal" in="SourceGraphic" in2="effect1_dropShadow_10314_11693" result="shape"/>
</filter>
<filter id="filter1_d_10314_11693" x="362" y="62" width="173" height="199" filterUnits="userSpaceOnUse" color-interpolation-filters="sRGB">
<feFlood flood-opacity="0" result="BackgroundImageFix"/>
<feColorMatrix in="SourceAlpha" type="matrix" values="0 0 0 0 0 0 0 0 0 0 0 0 0 0 0 0 0 0 127 0" result="hardAlpha"/>
<feOffset dy="1"/>
<feGaussianBlur stdDeviation="1.5"/>
<feColorMatrix type="matrix" values="0 0 0 0 0.105 0 0 0 0 0.168 0 0 0 0 0.195 0 0 0 0.2 0"/>
<feBlend mode="normal" in2="BackgroundImageFix" result="effect1_dropShadow_10314_11693"/>
<feBlend mode="normal" in="SourceGraphic" in2="effect1_dropShadow_10314_11693" result="shape"/>
</filter>
<filter id="filter2_d_10314_11693" x="577" y="62" width="173" height="247" filterUnits="userSpaceOnUse" color-interpolation-filters="sRGB">
<feFlood flood-opacity="0" result="BackgroundImageFix"/>
<feColorMatrix in="SourceAlpha" type="matrix" values="0 0 0 0 0 0 0 0 0 0 0 0 0 0 0 0 0 0 127 0" result="hardAlpha"/>
<feOffset dy="1"/>
<feGaussianBlur stdDeviation="1.5"/>
<feColorMatrix type="matrix" values="0 0 0 0 0.105 0 0 0 0 0.168 0 0 0 0 0.195 0 0 0 0.2 0"/>
<feBlend mode="normal" in2="BackgroundImageFix" result="effect1_dropShadow_10314_11693"/>
<feBlend mode="normal" in="SourceGraphic" in2="effect1_dropShadow_10314_11693" result="shape"/>
</filter>
</defs>
</svg>
