<svg width="452" height="208" viewBox="0 0 452 208" fill="none" xmlns="http://www.w3.org/2000/svg">
<path d="M34.8805 37.1187H205.082" stroke="#9B9B9B" stroke-linecap="square"/>
<path d="M201.613 54.838C200.923 54.838 200.353 54.598 199.915 54.178L200.281 53.728C200.647 54.076 201.079 54.304 201.637 54.304C202.207 54.304 202.501 54.004 202.501 53.674C202.501 53.284 202.159 53.134 201.469 52.978C200.629 52.78 200.071 52.528 200.071 51.784C200.071 51.094 200.671 50.572 201.499 50.572C202.135 50.572 202.609 50.806 203.005 51.154L202.657 51.61C202.309 51.292 201.895 51.106 201.475 51.106C201.013 51.106 200.689 51.4 200.689 51.73C200.689 52.114 201.043 52.246 201.721 52.408C202.543 52.6 203.113 52.876 203.113 53.614C203.113 54.31 202.585 54.838 201.613 54.838ZM205.292 54.214L205.508 54.622C205.34 54.76 205.112 54.844 204.89 54.844C204.41 54.844 204.074 54.496 204.074 53.998V52.174H203.606V51.67H204.074V50.818H204.656V51.67H205.388V52.174H204.656V53.956C204.656 54.172 204.8 54.328 204.974 54.328C205.106 54.328 205.226 54.28 205.292 54.214ZM207.536 54.316C207.86 54.316 208.238 54.172 208.424 53.98L208.796 54.364C208.52 54.658 207.98 54.844 207.542 54.844C206.678 54.844 205.946 54.166 205.946 53.212C205.946 52.282 206.636 51.598 207.494 51.598C208.442 51.598 208.988 52.318 208.988 53.428H206.546C206.624 53.944 207.002 54.316 207.536 54.316ZM207.518 52.126C207.038 52.126 206.648 52.45 206.552 52.954H208.412C208.346 52.474 208.052 52.126 207.518 52.126ZM211.398 51.598C212.214 51.598 212.826 52.27 212.826 53.218C212.826 54.172 212.214 54.844 211.398 54.844C210.918 54.844 210.534 54.616 210.294 54.232V55.804H209.706V51.67H210.294V52.204C210.534 51.826 210.918 51.598 211.398 51.598ZM211.254 54.328C211.824 54.328 212.226 53.866 212.226 53.218C212.226 52.57 211.824 52.114 211.254 52.114C210.696 52.114 210.294 52.57 210.294 53.218C210.294 53.866 210.696 54.328 211.254 54.328ZM216.838 51.598C217.522 51.598 218.002 52.096 218.002 52.798V54.772H217.42V52.9C217.42 52.438 217.126 52.114 216.706 52.114C216.274 52.114 215.902 52.396 215.854 52.762V54.772H215.26V51.67H215.854V52.12C216.04 51.814 216.418 51.598 216.838 51.598ZM220.154 51.598C220.988 51.598 221.45 52.126 221.45 52.894V54.772H220.868V54.346C220.64 54.67 220.214 54.844 219.836 54.844C219.176 54.844 218.69 54.46 218.69 53.854C218.69 53.236 219.248 52.822 219.932 52.822C220.238 52.822 220.568 52.888 220.868 52.99V52.894C220.868 52.504 220.688 52.09 220.07 52.09C219.764 52.09 219.464 52.21 219.194 52.348L218.978 51.91C219.422 51.688 219.812 51.598 220.154 51.598ZM219.95 54.376C220.334 54.376 220.766 54.184 220.868 53.8V53.386C220.616 53.308 220.328 53.266 220.022 53.266C219.608 53.266 219.26 53.5 219.26 53.836C219.26 54.172 219.56 54.376 219.95 54.376ZM225.777 51.598C226.425 51.598 226.893 52.096 226.893 52.798V54.772H226.311V52.888C226.311 52.432 226.041 52.114 225.651 52.114C225.207 52.114 224.895 52.408 224.895 52.834V54.772H224.313V52.888C224.313 52.432 224.043 52.114 223.653 52.114C223.209 52.114 222.897 52.408 222.897 52.834V54.772H222.303V51.67H222.897V52.102C223.053 51.796 223.377 51.598 223.773 51.598C224.223 51.598 224.589 51.838 224.769 52.222C224.913 51.838 225.309 51.598 225.777 51.598ZM229.168 54.316C229.492 54.316 229.87 54.172 230.056 53.98L230.428 54.364C230.152 54.658 229.612 54.844 229.174 54.844C228.31 54.844 227.578 54.166 227.578 53.212C227.578 52.282 228.268 51.598 229.126 51.598C230.074 51.598 230.62 52.318 230.62 53.428H228.178C228.256 53.944 228.634 54.316 229.168 54.316ZM229.15 52.126C228.67 52.126 228.28 52.45 228.184 52.954H230.044C229.978 52.474 229.684 52.126 229.15 52.126ZM234.358 54.844C233.656 54.844 233.122 54.538 232.804 54.142L233.194 53.74C233.47 54.076 233.872 54.298 234.346 54.298C234.88 54.298 235.222 54.016 235.222 53.602C235.222 53.176 234.868 52.954 234.25 52.96H233.8V52.42L234.25 52.426C234.772 52.426 235.138 52.198 235.138 51.784C235.138 51.4 234.778 51.124 234.298 51.124C233.866 51.124 233.548 51.34 233.26 51.676L232.882 51.304C233.2 50.89 233.668 50.578 234.34 50.578C235.174 50.578 235.756 51.04 235.756 51.7C235.756 52.21 235.396 52.528 234.964 52.66C235.396 52.756 235.846 53.068 235.846 53.644C235.846 54.34 235.252 54.844 234.358 54.844Z" fill="#565656"/>
<path d="M208.013 45.9278C212.758 45.9278 216.604 42.0816 216.604 37.3372C216.604 32.5927 212.758 28.7466 208.013 28.7466C203.269 28.7466 199.423 32.5927 199.423 37.3372C199.423 42.0816 203.269 45.9278 208.013 45.9278Z" fill="white"/>
<path fill-rule="evenodd" clip-rule="evenodd" d="M208.013 44.854C203.862 44.854 200.497 41.4886 200.497 37.3372C200.497 33.1858 203.862 29.8204 208.013 29.8204C212.165 29.8204 215.53 33.1858 215.53 37.3372C215.53 41.4886 212.165 44.854 208.013 44.854ZM208.013 28.7466C203.269 28.7466 199.423 32.593 199.423 37.3372C199.423 42.0813 203.269 45.9278 208.013 45.9278C212.757 45.9278 216.604 42.0813 216.604 37.3372C216.604 32.593 212.757 28.7466 208.013 28.7466Z" fill="#007CBB"/>
<path d="M208.013 41.6326C210.386 41.6326 212.309 39.7095 212.309 37.3373C212.309 34.9651 210.386 33.042 208.013 33.042C205.641 33.042 203.718 34.9651 203.718 37.3373C203.718 39.7095 205.641 41.6326 208.013 41.6326Z" fill="#007CBB"/>
<path d="M117.053 54.838C116.363 54.838 115.793 54.598 115.355 54.178L115.721 53.728C116.087 54.076 116.519 54.304 117.077 54.304C117.647 54.304 117.941 54.004 117.941 53.674C117.941 53.284 117.599 53.134 116.909 52.978C116.069 52.78 115.511 52.528 115.511 51.784C115.511 51.094 116.111 50.572 116.939 50.572C117.575 50.572 118.049 50.806 118.445 51.154L118.097 51.61C117.749 51.292 117.335 51.106 116.915 51.106C116.453 51.106 116.129 51.4 116.129 51.73C116.129 52.114 116.483 52.246 117.161 52.408C117.983 52.6 118.553 52.876 118.553 53.614C118.553 54.31 118.025 54.838 117.053 54.838ZM120.732 54.214L120.948 54.622C120.78 54.76 120.552 54.844 120.33 54.844C119.85 54.844 119.514 54.496 119.514 53.998V52.174H119.046V51.67H119.514V50.818H120.096V51.67H120.828V52.174H120.096V53.956C120.096 54.172 120.24 54.328 120.414 54.328C120.546 54.328 120.666 54.28 120.732 54.214ZM122.976 54.316C123.3 54.316 123.678 54.172 123.864 53.98L124.236 54.364C123.96 54.658 123.42 54.844 122.982 54.844C122.118 54.844 121.386 54.166 121.386 53.212C121.386 52.282 122.076 51.598 122.934 51.598C123.882 51.598 124.428 52.318 124.428 53.428H121.986C122.064 53.944 122.442 54.316 122.976 54.316ZM122.958 52.126C122.478 52.126 122.088 52.45 121.992 52.954H123.852C123.786 52.474 123.492 52.126 122.958 52.126ZM126.838 51.598C127.654 51.598 128.266 52.27 128.266 53.218C128.266 54.172 127.654 54.844 126.838 54.844C126.358 54.844 125.974 54.616 125.734 54.232V55.804H125.146V51.67H125.734V52.204C125.974 51.826 126.358 51.598 126.838 51.598ZM126.694 54.328C127.264 54.328 127.666 53.866 127.666 53.218C127.666 52.57 127.264 52.114 126.694 52.114C126.136 52.114 125.734 52.57 125.734 53.218C125.734 53.866 126.136 54.328 126.694 54.328ZM132.278 51.598C132.962 51.598 133.442 52.096 133.442 52.798V54.772H132.86V52.9C132.86 52.438 132.566 52.114 132.146 52.114C131.714 52.114 131.342 52.396 131.294 52.762V54.772H130.7V51.67H131.294V52.12C131.48 51.814 131.858 51.598 132.278 51.598ZM135.594 51.598C136.428 51.598 136.89 52.126 136.89 52.894V54.772H136.308V54.346C136.08 54.67 135.654 54.844 135.276 54.844C134.616 54.844 134.13 54.46 134.13 53.854C134.13 53.236 134.688 52.822 135.372 52.822C135.678 52.822 136.008 52.888 136.308 52.99V52.894C136.308 52.504 136.128 52.09 135.51 52.09C135.204 52.09 134.904 52.21 134.634 52.348L134.418 51.91C134.862 51.688 135.252 51.598 135.594 51.598ZM135.39 54.376C135.774 54.376 136.206 54.184 136.308 53.8V53.386C136.056 53.308 135.768 53.266 135.462 53.266C135.048 53.266 134.7 53.5 134.7 53.836C134.7 54.172 135 54.376 135.39 54.376ZM141.217 51.598C141.865 51.598 142.333 52.096 142.333 52.798V54.772H141.751V52.888C141.751 52.432 141.481 52.114 141.091 52.114C140.647 52.114 140.335 52.408 140.335 52.834V54.772H139.753V52.888C139.753 52.432 139.483 52.114 139.093 52.114C138.649 52.114 138.337 52.408 138.337 52.834V54.772H137.743V51.67H138.337V52.102C138.493 51.796 138.817 51.598 139.213 51.598C139.663 51.598 140.029 51.838 140.209 52.222C140.353 51.838 140.749 51.598 141.217 51.598ZM144.608 54.316C144.932 54.316 145.31 54.172 145.496 53.98L145.868 54.364C145.592 54.658 145.052 54.844 144.614 54.844C143.75 54.844 143.018 54.166 143.018 53.212C143.018 52.282 143.708 51.598 144.566 51.598C145.514 51.598 146.06 52.318 146.06 53.428H143.618C143.696 53.944 144.074 54.316 144.608 54.316ZM144.59 52.126C144.11 52.126 143.72 52.45 143.624 52.954H145.484C145.418 52.474 145.124 52.126 144.59 52.126ZM148.316 54.772V54.274L149.828 53.026C150.38 52.564 150.59 52.21 150.59 51.838C150.59 51.388 150.218 51.124 149.81 51.124C149.36 51.124 149.03 51.364 148.742 51.736L148.334 51.376C148.694 50.878 149.18 50.578 149.834 50.578C150.602 50.578 151.214 51.076 151.214 51.826C151.214 52.378 150.95 52.816 150.242 53.392L149.276 54.208H151.25V54.772H148.316Z" fill="#565656"/>
<path d="M123.181 45.9278C127.926 45.9278 131.772 42.0816 131.772 37.3372C131.772 32.5927 127.926 28.7466 123.181 28.7466C118.437 28.7466 114.591 32.5927 114.591 37.3372C114.591 42.0816 118.437 45.9278 123.181 45.9278Z" fill="white"/>
<path fill-rule="evenodd" clip-rule="evenodd" d="M123.181 44.854C119.03 44.854 115.664 41.4886 115.664 37.3372C115.664 33.1858 119.03 29.8204 123.181 29.8204C127.333 29.8204 130.698 33.1858 130.698 37.3372C130.698 41.4886 127.333 44.854 123.181 44.854ZM123.181 28.7466C118.437 28.7466 114.591 32.593 114.591 37.3372C114.591 42.0813 118.437 45.9278 123.181 45.9278C127.925 45.9278 131.772 42.0813 131.772 37.3372C131.772 32.593 127.925 28.7466 123.181 28.7466Z" fill="#60B515"/>
<path fill-rule="evenodd" clip-rule="evenodd" d="M128.55 34.1478C128.45 34.0478 128.314 33.9917 128.172 33.9917C128.03 33.9917 127.894 34.0478 127.793 34.1478L121.834 40.0807L118.612 36.8592C118.514 36.7532 118.377 36.6905 118.233 36.685C118.088 36.6794 117.947 36.7315 117.841 36.8297C117.736 36.9283 117.673 37.0646 117.668 37.209C117.662 37.3533 117.714 37.4939 117.812 37.6002L121.812 41.6002L128.55 34.9049C128.65 34.8043 128.706 34.6682 128.706 34.5264C128.706 34.3845 128.65 34.2484 128.55 34.1478Z" fill="#60B515"/>
<path d="M30.8339 54.838C30.1439 54.838 29.5739 54.598 29.1359 54.178L29.5019 53.728C29.8679 54.076 30.2999 54.304 30.8579 54.304C31.4279 54.304 31.7219 54.004 31.7219 53.674C31.7219 53.284 31.3799 53.134 30.6899 52.978C29.8499 52.78 29.2919 52.528 29.2919 51.784C29.2919 51.094 29.8919 50.572 30.7199 50.572C31.3559 50.572 31.8299 50.806 32.2259 51.154L31.8779 51.61C31.5299 51.292 31.1159 51.106 30.6959 51.106C30.2339 51.106 29.9099 51.4 29.9099 51.73C29.9099 52.114 30.2639 52.246 30.9419 52.408C31.7639 52.6 32.3339 52.876 32.3339 53.614C32.3339 54.31 31.8059 54.838 30.8339 54.838ZM34.5126 54.214L34.7286 54.622C34.5606 54.76 34.3326 54.844 34.1106 54.844C33.6306 54.844 33.2946 54.496 33.2946 53.998V52.174H32.8266V51.67H33.2946V50.818H33.8766V51.67H34.6086V52.174H33.8766V53.956C33.8766 54.172 34.0206 54.328 34.1946 54.328C34.3266 54.328 34.4466 54.28 34.5126 54.214ZM36.756 54.316C37.08 54.316 37.458 54.172 37.644 53.98L38.016 54.364C37.74 54.658 37.2 54.844 36.762 54.844C35.898 54.844 35.166 54.166 35.166 53.212C35.166 52.282 35.856 51.598 36.714 51.598C37.662 51.598 38.208 52.318 38.208 53.428H35.766C35.844 53.944 36.222 54.316 36.756 54.316ZM36.738 52.126C36.258 52.126 35.868 52.45 35.772 52.954H37.632C37.566 52.474 37.272 52.126 36.738 52.126ZM40.6185 51.598C41.4345 51.598 42.0465 52.27 42.0465 53.218C42.0465 54.172 41.4345 54.844 40.6185 54.844C40.1385 54.844 39.7545 54.616 39.5145 54.232V55.804H38.9265V51.67H39.5145V52.204C39.7545 51.826 40.1385 51.598 40.6185 51.598ZM40.4745 54.328C41.0445 54.328 41.4465 53.866 41.4465 53.218C41.4465 52.57 41.0445 52.114 40.4745 52.114C39.9165 52.114 39.5145 52.57 39.5145 53.218C39.5145 53.866 39.9165 54.328 40.4745 54.328ZM46.0585 51.598C46.7425 51.598 47.2225 52.096 47.2225 52.798V54.772H46.6405V52.9C46.6405 52.438 46.3465 52.114 45.9265 52.114C45.4945 52.114 45.1225 52.396 45.0745 52.762V54.772H44.4805V51.67H45.0745V52.12C45.2605 51.814 45.6385 51.598 46.0585 51.598ZM49.3743 51.598C50.2083 51.598 50.6703 52.126 50.6703 52.894V54.772H50.0883V54.346C49.8603 54.67 49.4343 54.844 49.0563 54.844C48.3963 54.844 47.9103 54.46 47.9103 53.854C47.9103 53.236 48.4683 52.822 49.1523 52.822C49.4583 52.822 49.7883 52.888 50.0883 52.99V52.894C50.0883 52.504 49.9083 52.09 49.2903 52.09C48.9843 52.09 48.6843 52.21 48.4143 52.348L48.1983 51.91C48.6423 51.688 49.0323 51.598 49.3743 51.598ZM49.1703 54.376C49.5543 54.376 49.9863 54.184 50.0883 53.8V53.386C49.8363 53.308 49.5483 53.266 49.2423 53.266C48.8283 53.266 48.4803 53.5 48.4803 53.836C48.4803 54.172 48.7803 54.376 49.1703 54.376ZM54.9974 51.598C55.6454 51.598 56.1134 52.096 56.1134 52.798V54.772H55.5314V52.888C55.5314 52.432 55.2614 52.114 54.8714 52.114C54.4274 52.114 54.1154 52.408 54.1154 52.834V54.772H53.5334V52.888C53.5334 52.432 53.2634 52.114 52.8734 52.114C52.4294 52.114 52.1174 52.408 52.1174 52.834V54.772H51.5234V51.67H52.1174V52.102C52.2734 51.796 52.5974 51.598 52.9934 51.598C53.4434 51.598 53.8094 51.838 53.9894 52.222C54.1334 51.838 54.5294 51.598 54.9974 51.598ZM58.3889 54.316C58.7129 54.316 59.0909 54.172 59.2769 53.98L59.6489 54.364C59.3729 54.658 58.8329 54.844 58.3949 54.844C57.5309 54.844 56.7989 54.166 56.7989 53.212C56.7989 52.282 57.4889 51.598 58.3469 51.598C59.2949 51.598 59.8409 52.318 59.8409 53.428H57.3989C57.4769 53.944 57.8549 54.316 58.3889 54.316ZM58.3709 52.126C57.8909 52.126 57.5009 52.45 57.4049 52.954H59.2649C59.1989 52.474 58.9049 52.126 58.3709 52.126ZM62.9121 54.772V51.37L62.1981 51.826L61.9461 51.388L63.0321 50.65H63.5241V54.772H62.9121Z" fill="#565656"/>
<path d="M36.7382 45.9278C41.4826 45.9278 45.3288 42.0816 45.3288 37.3372C45.3288 32.5927 41.4826 28.7466 36.7382 28.7466C31.9937 28.7466 28.1476 32.5927 28.1476 37.3372C28.1476 42.0816 31.9937 45.9278 36.7382 45.9278Z" fill="white"/>
<path fill-rule="evenodd" clip-rule="evenodd" d="M36.7382 44.854C32.5868 44.854 29.2214 41.4886 29.2214 37.3372C29.2214 33.1858 32.5868 29.8204 36.7382 29.8204C40.8896 29.8204 44.255 33.1858 44.255 37.3372C44.255 41.4886 40.8896 44.854 36.7382 44.854ZM36.7382 28.7466C31.994 28.7466 28.1476 32.593 28.1476 37.3372C28.1476 42.0813 31.994 45.9278 36.7382 45.9278C41.4823 45.9278 45.3288 42.0813 45.3288 37.3372C45.3288 32.593 41.4823 28.7466 36.7382 28.7466Z" fill="#60B515"/>
<path fill-rule="evenodd" clip-rule="evenodd" d="M42.1074 34.1478C42.0068 34.0478 41.8707 33.9917 41.7289 33.9917C41.587 33.9917 41.451 34.0478 41.3504 34.1478L35.3906 40.0807L32.1692 36.8592C32.0708 36.7532 31.9343 36.6905 31.7898 36.685C31.6452 36.6794 31.5044 36.7315 31.3981 36.8297C31.2926 36.9283 31.2303 37.0646 31.2249 37.209C31.2194 37.3533 31.2713 37.4939 31.3692 37.6002L35.3692 41.6002L42.1074 34.9049C42.2074 34.8043 42.2635 34.6682 42.2635 34.5264C42.2635 34.3845 42.2074 34.2484 42.1074 34.1478Z" fill="#60B515"/>
<path d="M41.0334 89.7363H122.107M123.718 89.7363H204.792M215.53 89.7363H296.604" stroke="#9B9B9B" stroke-linecap="square"/>
<path d="M291.114 109.175C290.424 109.175 289.854 108.935 289.416 108.515L289.782 108.065C290.148 108.413 290.58 108.641 291.138 108.641C291.708 108.641 292.002 108.341 292.002 108.011C292.002 107.621 291.66 107.471 290.97 107.315C290.13 107.117 289.572 106.865 289.572 106.121C289.572 105.431 290.172 104.909 291 104.909C291.636 104.909 292.11 105.143 292.506 105.491L292.158 105.947C291.81 105.629 291.396 105.443 290.976 105.443C290.514 105.443 290.19 105.737 290.19 106.067C290.19 106.451 290.544 106.583 291.222 106.745C292.044 106.937 292.614 107.213 292.614 107.951C292.614 108.647 292.086 109.175 291.114 109.175ZM294.793 108.551L295.009 108.959C294.841 109.097 294.613 109.181 294.391 109.181C293.911 109.181 293.575 108.833 293.575 108.335V106.511H293.107V106.007H293.575V105.155H294.157V106.007H294.889V106.511H294.157V108.293C294.157 108.509 294.301 108.665 294.475 108.665C294.607 108.665 294.727 108.617 294.793 108.551ZM297.036 108.653C297.36 108.653 297.738 108.509 297.924 108.317L298.296 108.701C298.02 108.995 297.48 109.181 297.042 109.181C296.178 109.181 295.446 108.503 295.446 107.549C295.446 106.619 296.136 105.935 296.994 105.935C297.942 105.935 298.488 106.655 298.488 107.765H296.046C296.124 108.281 296.502 108.653 297.036 108.653ZM297.018 106.463C296.538 106.463 296.148 106.787 296.052 107.291H297.912C297.846 106.811 297.552 106.463 297.018 106.463ZM300.899 105.935C301.715 105.935 302.327 106.607 302.327 107.555C302.327 108.509 301.715 109.181 300.899 109.181C300.419 109.181 300.035 108.953 299.795 108.569V110.141H299.207V106.007H299.795V106.541C300.035 106.163 300.419 105.935 300.899 105.935ZM300.755 108.665C301.325 108.665 301.727 108.203 301.727 107.555C301.727 106.907 301.325 106.451 300.755 106.451C300.197 106.451 299.795 106.907 299.795 107.555C299.795 108.203 300.197 108.665 300.755 108.665ZM305.577 105.665V106.007H306.309V106.511H305.577V109.109H304.995V106.511H304.527V106.007H304.995V105.635C304.995 105.137 305.331 104.789 305.811 104.789C306.033 104.789 306.261 104.873 306.429 105.011L306.213 105.407C306.147 105.341 306.027 105.293 305.895 105.293C305.721 105.293 305.577 105.449 305.577 105.665ZM308.393 109.181C307.505 109.181 306.755 108.437 306.755 107.555C306.755 106.673 307.505 105.935 308.393 105.935C309.275 105.935 310.019 106.673 310.019 107.555C310.019 108.437 309.275 109.181 308.393 109.181ZM308.393 108.665C308.951 108.665 309.425 108.161 309.425 107.555C309.425 106.955 308.951 106.451 308.393 106.451C307.823 106.451 307.349 106.955 307.349 107.555C307.349 108.161 307.823 108.665 308.393 108.665ZM312.85 106.007H313.444V109.109H312.85V108.659C312.664 108.965 312.286 109.181 311.866 109.181C311.182 109.181 310.702 108.683 310.702 107.981V106.007H311.284V107.879C311.284 108.341 311.578 108.665 311.998 108.665C312.43 108.665 312.802 108.383 312.85 108.017V106.007ZM314.93 106.601C315.128 106.193 315.548 105.935 316.082 105.935V106.451C315.44 106.451 314.984 106.805 314.93 107.345V109.109H314.336V106.007H314.93V106.601Z" fill="#565656"/>
<path d="M299.288 98.5455C304.033 98.5455 307.879 94.6993 307.879 89.9549C307.879 85.2104 304.033 81.3643 299.288 81.3643C294.544 81.3643 290.698 85.2104 290.698 89.9549C290.698 94.6993 294.544 98.5455 299.288 98.5455Z" fill="white"/>
<path fill-rule="evenodd" clip-rule="evenodd" d="M299.288 97.4716C295.137 97.4716 291.772 94.1063 291.772 89.9549C291.772 85.8035 295.137 82.4381 299.288 82.4381C303.44 82.4381 306.805 85.8035 306.805 89.9549C306.805 94.1063 303.44 97.4716 299.288 97.4716ZM299.288 81.3643C294.544 81.3643 290.698 85.2107 290.698 89.9549C290.698 94.699 294.544 98.5455 299.288 98.5455C304.033 98.5455 307.879 94.699 307.879 89.9549C307.879 85.2107 304.033 81.3643 299.288 81.3643Z" fill="#747474"/>
<path d="M200.275 109.175C199.585 109.175 199.015 108.935 198.577 108.515L198.943 108.065C199.309 108.413 199.741 108.641 200.299 108.641C200.869 108.641 201.163 108.341 201.163 108.011C201.163 107.621 200.821 107.471 200.131 107.315C199.291 107.117 198.733 106.865 198.733 106.121C198.733 105.431 199.333 104.909 200.161 104.909C200.797 104.909 201.271 105.143 201.667 105.491L201.319 105.947C200.971 105.629 200.557 105.443 200.137 105.443C199.675 105.443 199.351 105.737 199.351 106.067C199.351 106.451 199.705 106.583 200.383 106.745C201.205 106.937 201.775 107.213 201.775 107.951C201.775 108.647 201.247 109.175 200.275 109.175ZM203.953 108.551L204.169 108.959C204.001 109.097 203.773 109.181 203.551 109.181C203.071 109.181 202.735 108.833 202.735 108.335V106.511H202.267V106.007H202.735V105.155H203.317V106.007H204.049V106.511H203.317V108.293C203.317 108.509 203.461 108.665 203.635 108.665C203.767 108.665 203.887 108.617 203.953 108.551ZM206.197 108.653C206.521 108.653 206.899 108.509 207.085 108.317L207.457 108.701C207.181 108.995 206.641 109.181 206.203 109.181C205.339 109.181 204.607 108.503 204.607 107.549C204.607 106.619 205.297 105.935 206.155 105.935C207.103 105.935 207.649 106.655 207.649 107.765H205.207C205.285 108.281 205.663 108.653 206.197 108.653ZM206.179 106.463C205.699 106.463 205.309 106.787 205.213 107.291H207.073C207.007 106.811 206.713 106.463 206.179 106.463ZM210.059 105.935C210.875 105.935 211.487 106.607 211.487 107.555C211.487 108.509 210.875 109.181 210.059 109.181C209.579 109.181 209.195 108.953 208.955 108.569V110.141H208.367V106.007H208.955V106.541C209.195 106.163 209.579 105.935 210.059 105.935ZM209.915 108.665C210.485 108.665 210.887 108.203 210.887 107.555C210.887 106.907 210.485 106.451 209.915 106.451C209.357 106.451 208.955 106.907 208.955 107.555C208.955 108.203 209.357 108.665 209.915 108.665ZM215.373 108.551L215.589 108.959C215.421 109.097 215.193 109.181 214.971 109.181C214.491 109.181 214.155 108.833 214.155 108.335V106.511H213.687V106.007H214.155V105.155H214.737V106.007H215.469V106.511H214.737V108.293C214.737 108.509 214.881 108.665 215.055 108.665C215.187 108.665 215.307 108.617 215.373 108.551ZM217.773 105.935C218.457 105.935 218.937 106.433 218.937 107.135V109.109H218.355V107.237C218.355 106.775 218.061 106.451 217.641 106.451C217.173 106.451 216.783 106.781 216.783 107.183V109.109H216.195V104.915H216.783V106.469C216.969 106.157 217.347 105.935 217.773 105.935ZM220.411 106.601C220.609 106.193 221.029 105.935 221.563 105.935V106.451C220.921 106.451 220.465 106.805 220.411 107.345V109.109H219.817V106.007H220.411V106.601ZM223.564 108.653C223.888 108.653 224.266 108.509 224.452 108.317L224.824 108.701C224.548 108.995 224.008 109.181 223.57 109.181C222.706 109.181 221.974 108.503 221.974 107.549C221.974 106.619 222.664 105.935 223.522 105.935C224.47 105.935 225.016 106.655 225.016 107.765H222.574C222.652 108.281 223.03 108.653 223.564 108.653ZM223.546 106.463C223.066 106.463 222.676 106.787 222.58 107.291H224.44C224.374 106.811 224.08 106.463 223.546 106.463ZM227.127 108.653C227.451 108.653 227.829 108.509 228.015 108.317L228.387 108.701C228.111 108.995 227.571 109.181 227.133 109.181C226.269 109.181 225.537 108.503 225.537 107.549C225.537 106.619 226.227 105.935 227.085 105.935C228.033 105.935 228.579 106.655 228.579 107.765H226.137C226.215 108.281 226.593 108.653 227.127 108.653ZM227.109 106.463C226.629 106.463 226.239 106.787 226.143 107.291H228.003C227.937 106.811 227.643 106.463 227.109 106.463Z" fill="#565656"/>
<path d="M208.013 98.5455C212.758 98.5455 216.604 94.6993 216.604 89.9549C216.604 85.2104 212.758 81.3643 208.013 81.3643C203.269 81.3643 199.423 85.2104 199.423 89.9549C199.423 94.6993 203.269 98.5455 208.013 98.5455Z" fill="white"/>
<path fill-rule="evenodd" clip-rule="evenodd" d="M208.013 97.4716C203.862 97.4716 200.496 94.1063 200.496 89.9549C200.496 85.8035 203.862 82.4381 208.013 82.4381C212.165 82.4381 215.53 85.8035 215.53 89.9549C215.53 94.1063 212.165 97.4716 208.013 97.4716ZM208.013 81.3643C203.269 81.3643 199.423 85.2107 199.423 89.9549C199.423 94.699 203.269 98.5455 208.013 98.5455C212.757 98.5455 216.604 94.699 216.604 89.9549C216.604 85.2107 212.757 81.3643 208.013 81.3643Z" fill="#007CBB"/>
<path d="M208.013 94.2503C210.386 94.2503 212.309 92.3272 212.309 89.955C212.309 87.5827 210.386 85.6597 208.013 85.6597C205.641 85.6597 203.718 87.5827 203.718 89.955C203.718 92.3272 205.641 94.2503 208.013 94.2503Z" fill="#007CBB"/>
<path d="M118.127 109.175C117.437 109.175 116.867 108.935 116.429 108.515L116.795 108.065C117.161 108.413 117.593 108.641 118.151 108.641C118.721 108.641 119.015 108.341 119.015 108.011C119.015 107.621 118.673 107.471 117.983 107.315C117.143 107.117 116.585 106.865 116.585 106.121C116.585 105.431 117.185 104.909 118.013 104.909C118.649 104.909 119.123 105.143 119.519 105.491L119.171 105.947C118.823 105.629 118.409 105.443 117.989 105.443C117.527 105.443 117.203 105.737 117.203 106.067C117.203 106.451 117.557 106.583 118.235 106.745C119.057 106.937 119.627 107.213 119.627 107.951C119.627 108.647 119.099 109.175 118.127 109.175ZM121.806 108.551L122.022 108.959C121.854 109.097 121.626 109.181 121.404 109.181C120.924 109.181 120.588 108.833 120.588 108.335V106.511H120.12V106.007H120.588V105.155H121.17V106.007H121.902V106.511H121.17V108.293C121.17 108.509 121.314 108.665 121.488 108.665C121.62 108.665 121.74 108.617 121.806 108.551ZM124.049 108.653C124.373 108.653 124.751 108.509 124.937 108.317L125.309 108.701C125.033 108.995 124.493 109.181 124.055 109.181C123.191 109.181 122.459 108.503 122.459 107.549C122.459 106.619 123.149 105.935 124.007 105.935C124.955 105.935 125.501 106.655 125.501 107.765H123.059C123.137 108.281 123.515 108.653 124.049 108.653ZM124.031 106.463C123.551 106.463 123.161 106.787 123.065 107.291H124.925C124.859 106.811 124.565 106.463 124.031 106.463ZM127.912 105.935C128.728 105.935 129.34 106.607 129.34 107.555C129.34 108.509 128.728 109.181 127.912 109.181C127.432 109.181 127.048 108.953 126.808 108.569V110.141H126.22V106.007H126.808V106.541C127.048 106.163 127.432 105.935 127.912 105.935ZM127.768 108.665C128.338 108.665 128.74 108.203 128.74 107.555C128.74 106.907 128.338 106.451 127.768 106.451C127.21 106.451 126.808 106.907 126.808 107.555C126.808 108.203 127.21 108.665 127.768 108.665ZM133.226 108.551L133.442 108.959C133.274 109.097 133.046 109.181 132.824 109.181C132.344 109.181 132.008 108.833 132.008 108.335V106.511H131.54V106.007H132.008V105.155H132.59V106.007H133.322V106.511H132.59V108.293C132.59 108.509 132.734 108.665 132.908 108.665C133.04 108.665 133.16 108.617 133.226 108.551ZM134.833 109.109L133.789 106.007H134.395L135.109 108.317L135.877 106.007H136.381L137.149 108.317L137.857 106.007H138.463L137.419 109.109H136.873L136.129 106.805L135.379 109.109H134.833ZM140.404 109.181C139.516 109.181 138.766 108.437 138.766 107.555C138.766 106.673 139.516 105.935 140.404 105.935C141.286 105.935 142.03 106.673 142.03 107.555C142.03 108.437 141.286 109.181 140.404 109.181ZM140.404 108.665C140.962 108.665 141.436 108.161 141.436 107.555C141.436 106.955 140.962 106.451 140.404 106.451C139.834 106.451 139.36 106.955 139.36 107.555C139.36 108.161 139.834 108.665 140.404 108.665Z" fill="#565656"/>
<path d="M123.181 98.5455C127.926 98.5455 131.772 94.6993 131.772 89.9549C131.772 85.2104 127.926 81.3643 123.181 81.3643C118.437 81.3643 114.591 85.2104 114.591 89.9549C114.591 94.6993 118.437 98.5455 123.181 98.5455Z" fill="white"/>
<path fill-rule="evenodd" clip-rule="evenodd" d="M123.181 97.4716C119.03 97.4716 115.664 94.1063 115.664 89.9549C115.664 85.8035 119.03 82.4381 123.181 82.4381C127.333 82.4381 130.698 85.8035 130.698 89.9549C130.698 94.1063 127.333 97.4716 123.181 97.4716ZM123.181 81.3643C118.437 81.3643 114.591 85.2107 114.591 89.9549C114.591 94.699 118.437 98.5455 123.181 98.5455C127.925 98.5455 131.772 94.699 131.772 89.9549C131.772 85.2107 127.925 81.3643 123.181 81.3643Z" fill="#60B515"/>
<path fill-rule="evenodd" clip-rule="evenodd" d="M128.55 86.7655C128.45 86.6655 128.314 86.6094 128.172 86.6094C128.03 86.6094 127.894 86.6655 127.793 86.7655L121.834 92.6984L118.612 89.4769C118.514 89.3709 118.377 89.3082 118.233 89.3027C118.088 89.2971 117.947 89.3492 117.841 89.4474C117.735 89.546 117.673 89.6823 117.668 89.8266C117.662 89.971 117.714 90.1116 117.812 90.2179L121.812 94.2179L128.55 87.5226C128.65 87.422 128.706 87.2859 128.706 87.144C128.706 87.0022 128.65 86.8661 128.55 86.7655Z" fill="#60B515"/>
<path d="M28.9997 109.175C28.3097 109.175 27.7397 108.935 27.3017 108.515L27.6677 108.065C28.0337 108.413 28.4657 108.641 29.0237 108.641C29.5937 108.641 29.8877 108.341 29.8877 108.011C29.8877 107.621 29.5457 107.471 28.8557 107.315C28.0157 107.117 27.4577 106.865 27.4577 106.121C27.4577 105.431 28.0577 104.909 28.8857 104.909C29.5217 104.909 29.9957 105.143 30.3917 105.491L30.0437 105.947C29.6957 105.629 29.2817 105.443 28.8617 105.443C28.3997 105.443 28.0757 105.737 28.0757 106.067C28.0757 106.451 28.4297 106.583 29.1077 106.745C29.9297 106.937 30.4997 107.213 30.4997 107.951C30.4997 108.647 29.9717 109.175 28.9997 109.175ZM32.6784 108.551L32.8944 108.959C32.7264 109.097 32.4984 109.181 32.2764 109.181C31.7964 109.181 31.4604 108.833 31.4604 108.335V106.511H30.9924V106.007H31.4604V105.155H32.0424V106.007H32.7744V106.511H32.0424V108.293C32.0424 108.509 32.1864 108.665 32.3604 108.665C32.4924 108.665 32.6124 108.617 32.6784 108.551ZM34.9219 108.653C35.2459 108.653 35.6239 108.509 35.8099 108.317L36.1819 108.701C35.9059 108.995 35.3659 109.181 34.9279 109.181C34.0639 109.181 33.3319 108.503 33.3319 107.549C33.3319 106.619 34.0219 105.935 34.8799 105.935C35.8279 105.935 36.3739 106.655 36.3739 107.765H33.9319C34.0099 108.281 34.3879 108.653 34.9219 108.653ZM34.9039 106.463C34.4239 106.463 34.0339 106.787 33.9379 107.291H35.7979C35.7319 106.811 35.4379 106.463 34.9039 106.463ZM38.7844 105.935C39.6004 105.935 40.2124 106.607 40.2124 107.555C40.2124 108.509 39.6004 109.181 38.7844 109.181C38.3044 109.181 37.9204 108.953 37.6804 108.569V110.141H37.0924V106.007H37.6804V106.541C37.9204 106.163 38.3044 105.935 38.7844 105.935ZM38.6404 108.665C39.2104 108.665 39.6124 108.203 39.6124 107.555C39.6124 106.907 39.2104 106.451 38.6404 106.451C38.0824 106.451 37.6804 106.907 37.6804 107.555C37.6804 108.203 38.0824 108.665 38.6404 108.665ZM44.1164 109.181C43.2284 109.181 42.4784 108.437 42.4784 107.555C42.4784 106.673 43.2284 105.935 44.1164 105.935C44.9984 105.935 45.7424 106.673 45.7424 107.555C45.7424 108.437 44.9984 109.181 44.1164 109.181ZM44.1164 108.665C44.6744 108.665 45.1484 108.161 45.1484 107.555C45.1484 106.955 44.6744 106.451 44.1164 106.451C43.5464 106.451 43.0724 106.955 43.0724 107.555C43.0724 108.161 43.5464 108.665 44.1164 108.665ZM48.0154 105.935C48.6994 105.935 49.1794 106.433 49.1794 107.135V109.109H48.5974V107.237C48.5974 106.775 48.3034 106.451 47.8834 106.451C47.4514 106.451 47.0794 106.733 47.0314 107.099V109.109H46.4374V106.007H47.0314V106.457C47.2174 106.151 47.5954 105.935 48.0154 105.935ZM51.4512 108.653C51.7752 108.653 52.1532 108.509 52.3392 108.317L52.7112 108.701C52.4352 108.995 51.8952 109.181 51.4572 109.181C50.5932 109.181 49.8612 108.503 49.8612 107.549C49.8612 106.619 50.5512 105.935 51.4092 105.935C52.3572 105.935 52.9032 106.655 52.9032 107.765H50.4612C50.5392 108.281 50.9172 108.653 51.4512 108.653ZM51.4332 106.463C50.9532 106.463 50.5632 106.787 50.4672 107.291H52.3272C52.2612 106.811 51.9672 106.463 51.4332 106.463Z" fill="#565656"/>
<path d="M36.7381 98.5455C41.4826 98.5455 45.3287 94.6993 45.3287 89.9549C45.3287 85.2104 41.4826 81.3643 36.7381 81.3643C31.9937 81.3643 28.1475 85.2104 28.1475 89.9549C28.1475 94.6993 31.9937 98.5455 36.7381 98.5455Z" fill="white"/>
<path fill-rule="evenodd" clip-rule="evenodd" d="M36.7381 97.4716C32.5867 97.4716 29.2213 94.1063 29.2213 89.9549C29.2213 85.8035 32.5867 82.4381 36.7381 82.4381C40.8895 82.4381 44.2549 85.8035 44.2549 89.9549C44.2549 94.1063 40.8895 97.4716 36.7381 97.4716ZM36.7381 81.3643C31.994 81.3643 28.1475 85.2107 28.1475 89.9549C28.1475 94.699 31.994 98.5455 36.7381 98.5455C41.4823 98.5455 45.3287 94.699 45.3287 89.9549C45.3287 85.2107 41.4823 81.3643 36.7381 81.3643Z" fill="#60B515"/>
<path fill-rule="evenodd" clip-rule="evenodd" d="M42.1073 86.7655C42.0068 86.6655 41.8707 86.6094 41.7288 86.6094C41.587 86.6094 41.4509 86.6655 41.3503 86.7655L35.3906 92.6984L32.1691 89.4769C32.0707 89.3709 31.9343 89.3082 31.7897 89.3027C31.6451 89.2971 31.5043 89.3492 31.3981 89.4474C31.2925 89.546 31.2302 89.6823 31.2248 89.8266C31.2194 89.971 31.2712 90.1116 31.3691 90.2179L35.3691 94.2179L42.1073 87.5226C42.2073 87.422 42.2635 87.2859 42.2635 87.144C42.2635 87.0022 42.2073 86.8661 42.1073 86.7655Z" fill="#60B515"/>
<path d="M128.55 138.008H211.446M205.866 138.008H288.762" stroke="#9B9B9B" stroke-linecap="square"/>
<path d="M199.945 157.945V154.387H198.595V153.823H201.907V154.387H200.551V157.945H199.945ZM204.156 154.771C204.84 154.771 205.32 155.269 205.32 155.971V157.945H204.738V156.073C204.738 155.611 204.444 155.287 204.024 155.287C203.556 155.287 203.166 155.617 203.166 156.019V157.945H202.578V153.751H203.166V155.305C203.352 154.993 203.73 154.771 204.156 154.771ZM206.463 154.327C206.259 154.327 206.103 154.159 206.103 153.967C206.103 153.781 206.259 153.613 206.463 153.613C206.655 153.613 206.817 153.781 206.817 153.967C206.817 154.159 206.655 154.327 206.463 154.327ZM206.163 157.945V154.843H206.757V157.945H206.163ZM208.739 158.017C208.283 158.017 207.785 157.855 207.413 157.555L207.695 157.129C208.025 157.369 208.379 157.507 208.745 157.507C209.093 157.507 209.333 157.345 209.333 157.105C209.333 156.817 209.015 156.727 208.631 156.619C207.917 156.421 207.563 156.217 207.563 155.713C207.557 155.143 208.031 154.771 208.691 154.771C209.093 154.771 209.501 154.909 209.837 155.131L209.573 155.569C209.273 155.383 208.961 155.281 208.691 155.281C208.385 155.281 208.145 155.413 208.145 155.647C208.145 155.887 208.337 155.959 208.859 156.121C209.369 156.271 209.915 156.439 209.915 157.057C209.915 157.645 209.417 158.017 208.739 158.017ZM213.444 158.017C212.988 158.017 212.49 157.855 212.118 157.555L212.4 157.129C212.73 157.369 213.084 157.507 213.45 157.507C213.798 157.507 214.038 157.345 214.038 157.105C214.038 156.817 213.72 156.727 213.336 156.619C212.622 156.421 212.268 156.217 212.268 155.713C212.262 155.143 212.736 154.771 213.396 154.771C213.798 154.771 214.206 154.909 214.542 155.131L214.278 155.569C213.978 155.383 213.666 155.281 213.396 155.281C213.09 155.281 212.85 155.413 212.85 155.647C212.85 155.887 213.042 155.959 213.564 156.121C214.074 156.271 214.62 156.439 214.62 157.057C214.62 157.645 214.122 158.017 213.444 158.017ZM216.762 157.387L216.978 157.795C216.81 157.933 216.582 158.017 216.36 158.017C215.88 158.017 215.544 157.669 215.544 157.171V155.347H215.076V154.843H215.544V153.991H216.126V154.843H216.858V155.347H216.126V157.129C216.126 157.345 216.27 157.501 216.444 157.501C216.576 157.501 216.696 157.453 216.762 157.387ZM219.006 157.489C219.33 157.489 219.708 157.345 219.894 157.153L220.266 157.537C219.99 157.831 219.45 158.017 219.012 158.017C218.148 158.017 217.416 157.339 217.416 156.385C217.416 155.455 218.106 154.771 218.964 154.771C219.912 154.771 220.458 155.491 220.458 156.601H218.016C218.094 157.117 218.472 157.489 219.006 157.489ZM218.988 155.299C218.508 155.299 218.118 155.623 218.022 156.127H219.882C219.816 155.647 219.522 155.299 218.988 155.299ZM222.868 154.771C223.684 154.771 224.296 155.443 224.296 156.391C224.296 157.345 223.684 158.017 222.868 158.017C222.388 158.017 222.004 157.789 221.764 157.405V158.977H221.176V154.843H221.764V155.377C222.004 154.999 222.388 154.771 222.868 154.771ZM222.724 157.501C223.294 157.501 223.696 157.039 223.696 156.391C223.696 155.743 223.294 155.287 222.724 155.287C222.166 155.287 221.764 155.743 221.764 156.391C221.764 157.039 222.166 157.501 222.724 157.501ZM228.308 154.771C228.992 154.771 229.472 155.269 229.472 155.971V157.945H228.89V156.073C228.89 155.611 228.596 155.287 228.176 155.287C227.708 155.287 227.318 155.617 227.318 156.019V157.945H226.73V153.751H227.318V155.305C227.504 154.993 227.882 154.771 228.308 154.771ZM231.624 154.771C232.458 154.771 232.92 155.299 232.92 156.067V157.945H232.338V157.519C232.11 157.843 231.684 158.017 231.306 158.017C230.646 158.017 230.16 157.633 230.16 157.027C230.16 156.409 230.718 155.995 231.402 155.995C231.708 155.995 232.038 156.061 232.338 156.163V156.067C232.338 155.677 232.158 155.263 231.54 155.263C231.234 155.263 230.934 155.383 230.664 155.521L230.448 155.083C230.892 154.861 231.282 154.771 231.624 154.771ZM231.42 157.549C231.804 157.549 232.236 157.357 232.338 156.973V156.559C232.086 156.481 231.798 156.439 231.492 156.439C231.078 156.439 230.73 156.673 230.73 157.009C230.73 157.345 231.03 157.549 231.42 157.549ZM234.901 158.017C234.445 158.017 233.947 157.855 233.575 157.555L233.857 157.129C234.187 157.369 234.541 157.507 234.907 157.507C235.255 157.507 235.495 157.345 235.495 157.105C235.495 156.817 235.177 156.727 234.793 156.619C234.079 156.421 233.725 156.217 233.725 155.713C233.719 155.143 234.193 154.771 234.853 154.771C235.255 154.771 235.663 154.909 235.999 155.131L235.735 155.569C235.435 155.383 235.123 155.281 234.853 155.281C234.547 155.281 234.307 155.413 234.307 155.647C234.307 155.887 234.499 155.959 235.021 156.121C235.531 156.271 236.077 156.439 236.077 157.057C236.077 157.645 235.579 158.017 234.901 158.017ZM239.786 154.771C240.62 154.771 241.082 155.299 241.082 156.067V157.945H240.5V157.519C240.272 157.843 239.846 158.017 239.468 158.017C238.808 158.017 238.322 157.633 238.322 157.027C238.322 156.409 238.88 155.995 239.564 155.995C239.87 155.995 240.2 156.061 240.5 156.163V156.067C240.5 155.677 240.32 155.263 239.702 155.263C239.396 155.263 239.096 155.383 238.826 155.521L238.61 155.083C239.054 154.861 239.444 154.771 239.786 154.771ZM239.582 157.549C239.966 157.549 240.398 157.357 240.5 156.973V156.559C240.248 156.481 239.96 156.439 239.654 156.439C239.24 156.439 238.892 156.673 238.892 157.009C238.892 157.345 239.192 157.549 239.582 157.549Z" fill="#565656"/>
<path d="M199.813 167.609L198.481 164.507H199.123L200.089 166.919L201.037 164.507H201.679L200.371 167.609H199.813ZM203.461 167.153C203.785 167.153 204.163 167.009 204.349 166.817L204.721 167.201C204.445 167.495 203.905 167.681 203.467 167.681C202.603 167.681 201.871 167.003 201.871 166.049C201.871 165.119 202.561 164.435 203.419 164.435C204.367 164.435 204.913 165.155 204.913 166.265H202.471C202.549 166.781 202.927 167.153 203.461 167.153ZM203.443 164.963C202.963 164.963 202.573 165.287 202.477 165.791H204.337C204.271 165.311 203.977 164.963 203.443 164.963ZM206.225 165.101C206.423 164.693 206.843 164.435 207.377 164.435V164.951C206.735 164.951 206.279 165.305 206.225 165.845V167.609H205.631V164.507H206.225V165.101ZM208.503 168.689C208.293 168.689 208.077 168.641 207.915 168.557L208.047 168.101C208.167 168.167 208.305 168.197 208.425 168.197C208.617 168.197 208.749 168.137 208.851 167.957L209.007 167.627L207.675 164.507H208.311L209.307 166.955L210.249 164.507H210.867L209.499 167.891C209.277 168.449 208.947 168.683 208.503 168.689ZM214.28 167.609L212.948 164.507H213.59L214.556 166.919L215.504 164.507H216.146L214.838 167.609H214.28ZM217.928 167.153C218.252 167.153 218.63 167.009 218.816 166.817L219.188 167.201C218.912 167.495 218.372 167.681 217.934 167.681C217.07 167.681 216.338 167.003 216.338 166.049C216.338 165.119 217.028 164.435 217.886 164.435C218.834 164.435 219.38 165.155 219.38 166.265H216.938C217.016 166.781 217.394 167.153 217.928 167.153ZM217.91 164.963C217.43 164.963 217.04 165.287 216.944 165.791H218.804C218.738 165.311 218.444 164.963 217.91 164.963ZM220.692 165.101C220.89 164.693 221.31 164.435 221.844 164.435V164.951C221.202 164.951 220.746 165.305 220.692 165.845V167.609H220.098V164.507H220.692V165.101ZM222.97 168.689C222.76 168.689 222.544 168.641 222.382 168.557L222.514 168.101C222.634 168.167 222.772 168.197 222.892 168.197C223.084 168.197 223.216 168.137 223.318 167.957L223.474 167.627L222.142 164.507H222.778L223.774 166.955L224.716 164.507H225.334L223.966 167.891C223.744 168.449 223.414 168.683 222.97 168.689ZM228.747 167.609L227.415 164.507H228.057L229.023 166.919L229.971 164.507H230.613L229.305 167.609H228.747ZM232.394 167.153C232.718 167.153 233.096 167.009 233.282 166.817L233.654 167.201C233.378 167.495 232.838 167.681 232.4 167.681C231.536 167.681 230.804 167.003 230.804 166.049C230.804 165.119 231.494 164.435 232.352 164.435C233.3 164.435 233.846 165.155 233.846 166.265H231.404C231.482 166.781 231.86 167.153 232.394 167.153ZM232.376 164.963C231.896 164.963 231.506 165.287 231.41 165.791H233.27C233.204 165.311 232.91 164.963 232.376 164.963ZM235.159 165.101C235.357 164.693 235.777 164.435 236.311 164.435V164.951C235.669 164.951 235.213 165.305 235.159 165.845V167.609H234.565V164.507H235.159V165.101ZM237.436 168.689C237.226 168.689 237.01 168.641 236.848 168.557L236.98 168.101C237.1 168.167 237.238 168.197 237.358 168.197C237.55 168.197 237.682 168.137 237.784 167.957L237.94 167.627L236.608 164.507H237.244L238.24 166.955L239.182 164.507H239.8L238.432 167.891C238.21 168.449 237.88 168.683 237.436 168.689Z" fill="#565656"/>
<path d="M198.781 177.273V173.079H199.369V177.273H198.781ZM201.704 177.345C200.816 177.345 200.066 176.601 200.066 175.719C200.066 174.837 200.816 174.099 201.704 174.099C202.586 174.099 203.33 174.837 203.33 175.719C203.33 176.601 202.586 177.345 201.704 177.345ZM201.704 176.829C202.262 176.829 202.736 176.325 202.736 175.719C202.736 175.119 202.262 174.615 201.704 174.615C201.134 174.615 200.66 175.119 200.66 175.719C200.66 176.325 201.134 176.829 201.704 176.829ZM205.603 174.099C206.287 174.099 206.767 174.597 206.767 175.299V177.273H206.185V175.401C206.185 174.939 205.891 174.615 205.471 174.615C205.039 174.615 204.667 174.897 204.619 175.263V177.273H204.025V174.171H204.619V174.621C204.805 174.315 205.183 174.099 205.603 174.099ZM209.975 174.171H210.569V176.943C210.569 177.741 209.915 178.305 208.997 178.305C208.475 178.305 207.995 178.131 207.701 177.891L207.935 177.447C208.163 177.663 208.535 177.789 208.907 177.789C209.573 177.789 209.975 177.471 209.975 176.931V176.481C209.729 176.835 209.345 177.045 208.877 177.045C208.061 177.045 207.467 176.433 207.467 175.569C207.467 174.705 208.061 174.099 208.877 174.099C209.345 174.099 209.741 174.321 209.975 174.669V174.171ZM209.027 176.529C209.579 176.529 209.975 176.133 209.975 175.569C209.975 175.011 209.579 174.615 209.027 174.615C208.475 174.615 208.085 175.011 208.085 175.569C208.085 176.133 208.475 176.529 209.027 176.529ZM214.75 174.099C215.434 174.099 215.914 174.597 215.914 175.299V177.273H215.332V175.401C215.332 174.939 215.038 174.615 214.618 174.615C214.186 174.615 213.814 174.897 213.766 175.263V177.273H213.172V174.171H213.766V174.621C213.952 174.315 214.33 174.099 214.75 174.099ZM218.065 174.099C218.899 174.099 219.361 174.627 219.361 175.395V177.273H218.779V176.847C218.551 177.171 218.125 177.345 217.747 177.345C217.087 177.345 216.601 176.961 216.601 176.355C216.601 175.737 217.159 175.323 217.843 175.323C218.149 175.323 218.479 175.389 218.779 175.491V175.395C218.779 175.005 218.599 174.591 217.981 174.591C217.675 174.591 217.375 174.711 217.105 174.849L216.889 174.411C217.333 174.189 217.723 174.099 218.065 174.099ZM217.861 176.877C218.245 176.877 218.677 176.685 218.779 176.301V175.887C218.527 175.809 218.239 175.767 217.933 175.767C217.519 175.767 217.171 176.001 217.171 176.337C217.171 176.673 217.471 176.877 217.861 176.877ZM223.688 174.099C224.336 174.099 224.804 174.597 224.804 175.299V177.273H224.222V175.389C224.222 174.933 223.952 174.615 223.562 174.615C223.118 174.615 222.806 174.909 222.806 175.335V177.273H222.224V175.389C222.224 174.933 221.954 174.615 221.564 174.615C221.12 174.615 220.808 174.909 220.808 175.335V177.273H220.214V174.171H220.808V174.603C220.964 174.297 221.288 174.099 221.684 174.099C222.134 174.099 222.5 174.339 222.68 174.723C222.824 174.339 223.22 174.099 223.688 174.099ZM227.08 176.817C227.404 176.817 227.782 176.673 227.968 176.481L228.34 176.865C228.064 177.159 227.524 177.345 227.086 177.345C226.222 177.345 225.49 176.667 225.49 175.713C225.49 174.783 226.18 174.099 227.038 174.099C227.986 174.099 228.532 174.819 228.532 175.929H226.09C226.168 176.445 226.546 176.817 227.08 176.817ZM227.062 174.627C226.582 174.627 226.192 174.951 226.096 175.455H227.956C227.89 174.975 227.596 174.627 227.062 174.627Z" fill="#565656"/>
<path d="M302.51 138.008H385.406" stroke="#9B9B9B" stroke-linecap="square"/>
<path d="M384.973 158.011C384.283 158.011 383.713 157.771 383.275 157.351L383.641 156.901C384.007 157.249 384.439 157.477 384.997 157.477C385.567 157.477 385.861 157.177 385.861 156.847C385.861 156.457 385.519 156.307 384.829 156.151C383.989 155.953 383.431 155.701 383.431 154.957C383.431 154.267 384.031 153.745 384.859 153.745C385.495 153.745 385.969 153.979 386.365 154.327L386.017 154.783C385.669 154.465 385.255 154.279 384.835 154.279C384.373 154.279 384.049 154.573 384.049 154.903C384.049 155.287 384.403 155.419 385.081 155.581C385.903 155.773 386.473 156.049 386.473 156.787C386.473 157.483 385.945 158.011 384.973 158.011ZM388.652 157.387L388.868 157.795C388.7 157.933 388.472 158.017 388.25 158.017C387.77 158.017 387.434 157.669 387.434 157.171V155.347H386.966V154.843H387.434V153.991H388.016V154.843H388.748V155.347H388.016V157.129C388.016 157.345 388.16 157.501 388.334 157.501C388.466 157.501 388.586 157.453 388.652 157.387ZM390.895 157.489C391.219 157.489 391.597 157.345 391.783 157.153L392.155 157.537C391.879 157.831 391.339 158.017 390.901 158.017C390.037 158.017 389.305 157.339 389.305 156.385C389.305 155.455 389.995 154.771 390.853 154.771C391.801 154.771 392.347 155.491 392.347 156.601H389.905C389.983 157.117 390.361 157.489 390.895 157.489ZM390.877 155.299C390.397 155.299 390.007 155.623 389.911 156.127H391.771C391.705 155.647 391.411 155.299 390.877 155.299ZM394.758 154.771C395.574 154.771 396.186 155.443 396.186 156.391C396.186 157.345 395.574 158.017 394.758 158.017C394.278 158.017 393.894 157.789 393.654 157.405V158.977H393.066V154.843H393.654V155.377C393.894 154.999 394.278 154.771 394.758 154.771ZM394.614 157.501C395.184 157.501 395.586 157.039 395.586 156.391C395.586 155.743 395.184 155.287 394.614 155.287C394.056 155.287 393.654 155.743 393.654 156.391C393.654 157.039 394.056 157.501 394.614 157.501ZM400.198 154.771C400.882 154.771 401.362 155.269 401.362 155.971V157.945H400.78V156.073C400.78 155.611 400.486 155.287 400.066 155.287C399.634 155.287 399.262 155.569 399.214 155.935V157.945H398.62V154.843H399.214V155.293C399.4 154.987 399.778 154.771 400.198 154.771ZM403.513 154.771C404.347 154.771 404.809 155.299 404.809 156.067V157.945H404.227V157.519C403.999 157.843 403.573 158.017 403.195 158.017C402.535 158.017 402.049 157.633 402.049 157.027C402.049 156.409 402.607 155.995 403.291 155.995C403.597 155.995 403.927 156.061 404.227 156.163V156.067C404.227 155.677 404.047 155.263 403.429 155.263C403.123 155.263 402.823 155.383 402.553 155.521L402.337 155.083C402.781 154.861 403.171 154.771 403.513 154.771ZM403.309 157.549C403.693 157.549 404.125 157.357 404.227 156.973V156.559C403.975 156.481 403.687 156.439 403.381 156.439C402.967 156.439 402.619 156.673 402.619 157.009C402.619 157.345 402.919 157.549 403.309 157.549ZM409.136 154.771C409.784 154.771 410.252 155.269 410.252 155.971V157.945H409.67V156.061C409.67 155.605 409.4 155.287 409.01 155.287C408.566 155.287 408.254 155.581 408.254 156.007V157.945H407.672V156.061C407.672 155.605 407.402 155.287 407.012 155.287C406.568 155.287 406.256 155.581 406.256 156.007V157.945H405.662V154.843H406.256V155.275C406.412 154.969 406.736 154.771 407.132 154.771C407.582 154.771 407.948 155.011 408.128 155.395C408.272 155.011 408.668 154.771 409.136 154.771ZM412.528 157.489C412.852 157.489 413.23 157.345 413.416 157.153L413.788 157.537C413.512 157.831 412.972 158.017 412.534 158.017C411.67 158.017 410.938 157.339 410.938 156.385C410.938 155.455 411.628 154.771 412.486 154.771C413.434 154.771 413.98 155.491 413.98 156.601H411.538C411.616 157.117 411.994 157.489 412.528 157.489ZM412.51 155.299C412.03 155.299 411.64 155.623 411.544 156.127H413.404C413.338 155.647 413.044 155.299 412.51 155.299ZM417.747 158.017C417.093 158.017 416.601 157.753 416.247 157.369L416.625 156.937C416.943 157.267 417.327 157.483 417.765 157.483C418.299 157.483 418.659 157.123 418.659 156.661C418.659 156.187 418.293 155.869 417.759 155.869C417.417 155.869 417.123 155.983 416.877 156.169L416.451 155.977L416.511 153.823H419.049V154.387H417.087L417.051 155.611C417.267 155.467 417.543 155.347 417.909 155.347C418.647 155.347 419.271 155.815 419.271 156.637C419.271 157.471 418.641 158.017 417.747 158.017Z" fill="#565656"/>
<path d="M41.0336 138.595H114.78" stroke="#9B9B9B" stroke-linecap="square"/>
<path d="M288.329 158.011C287.639 158.011 287.069 157.771 286.631 157.351L286.997 156.901C287.363 157.249 287.795 157.477 288.353 157.477C288.923 157.477 289.217 157.177 289.217 156.847C289.217 156.457 288.875 156.307 288.185 156.151C287.345 155.953 286.787 155.701 286.787 154.957C286.787 154.267 287.387 153.745 288.215 153.745C288.851 153.745 289.325 153.979 289.721 154.327L289.373 154.783C289.025 154.465 288.611 154.279 288.191 154.279C287.729 154.279 287.405 154.573 287.405 154.903C287.405 155.287 287.759 155.419 288.437 155.581C289.259 155.773 289.829 156.049 289.829 156.787C289.829 157.483 289.301 158.011 288.329 158.011ZM292.007 157.387L292.223 157.795C292.055 157.933 291.827 158.017 291.605 158.017C291.125 158.017 290.789 157.669 290.789 157.171V155.347H290.321V154.843H290.789V153.991H291.371V154.843H292.103V155.347H291.371V157.129C291.371 157.345 291.515 157.501 291.689 157.501C291.821 157.501 291.941 157.453 292.007 157.387ZM294.251 157.489C294.575 157.489 294.953 157.345 295.139 157.153L295.511 157.537C295.235 157.831 294.695 158.017 294.257 158.017C293.393 158.017 292.661 157.339 292.661 156.385C292.661 155.455 293.351 154.771 294.209 154.771C295.157 154.771 295.703 155.491 295.703 156.601H293.261C293.339 157.117 293.717 157.489 294.251 157.489ZM294.233 155.299C293.753 155.299 293.363 155.623 293.267 156.127H295.127C295.061 155.647 294.767 155.299 294.233 155.299ZM298.113 154.771C298.929 154.771 299.541 155.443 299.541 156.391C299.541 157.345 298.929 158.017 298.113 158.017C297.633 158.017 297.249 157.789 297.009 157.405V158.977H296.421V154.843H297.009V155.377C297.249 154.999 297.633 154.771 298.113 154.771ZM297.969 157.501C298.539 157.501 298.941 157.039 298.941 156.391C298.941 155.743 298.539 155.287 297.969 155.287C297.411 155.287 297.009 155.743 297.009 156.391C297.009 157.039 297.411 157.501 297.969 157.501ZM303.553 154.771C304.237 154.771 304.717 155.269 304.717 155.971V157.945H304.135V156.073C304.135 155.611 303.841 155.287 303.421 155.287C302.989 155.287 302.617 155.569 302.569 155.935V157.945H301.975V154.843H302.569V155.293C302.755 154.987 303.133 154.771 303.553 154.771ZM306.869 154.771C307.703 154.771 308.165 155.299 308.165 156.067V157.945H307.583V157.519C307.355 157.843 306.929 158.017 306.551 158.017C305.891 158.017 305.405 157.633 305.405 157.027C305.405 156.409 305.963 155.995 306.647 155.995C306.953 155.995 307.283 156.061 307.583 156.163V156.067C307.583 155.677 307.403 155.263 306.785 155.263C306.479 155.263 306.179 155.383 305.909 155.521L305.693 155.083C306.137 154.861 306.527 154.771 306.869 154.771ZM306.665 157.549C307.049 157.549 307.481 157.357 307.583 156.973V156.559C307.331 156.481 307.043 156.439 306.737 156.439C306.323 156.439 305.975 156.673 305.975 157.009C305.975 157.345 306.275 157.549 306.665 157.549ZM312.492 154.771C313.14 154.771 313.608 155.269 313.608 155.971V157.945H313.026V156.061C313.026 155.605 312.756 155.287 312.366 155.287C311.922 155.287 311.61 155.581 311.61 156.007V157.945H311.028V156.061C311.028 155.605 310.758 155.287 310.368 155.287C309.924 155.287 309.612 155.581 309.612 156.007V157.945H309.018V154.843H309.612V155.275C309.768 154.969 310.092 154.771 310.488 154.771C310.938 154.771 311.304 155.011 311.484 155.395C311.628 155.011 312.024 154.771 312.492 154.771ZM315.884 157.489C316.208 157.489 316.586 157.345 316.772 157.153L317.144 157.537C316.868 157.831 316.328 158.017 315.89 158.017C315.026 158.017 314.294 157.339 314.294 156.385C314.294 155.455 314.984 154.771 315.842 154.771C316.79 154.771 317.336 155.491 317.336 156.601H314.894C314.972 157.117 315.35 157.489 315.884 157.489ZM315.866 155.299C315.386 155.299 314.996 155.623 314.9 156.127H316.76C316.694 155.647 316.4 155.299 315.866 155.299ZM321.631 157.945V156.997H319.585L319.519 156.511L321.517 153.823H322.237V156.463H322.831V156.997H322.237V157.945H321.631ZM320.185 156.463H321.631V154.513L320.185 156.463Z" fill="#565656"/>
<path d="M391.637 146.331C396.382 146.331 400.228 142.484 400.228 137.74C400.228 132.996 396.382 129.149 391.637 129.149C386.893 129.149 383.047 132.996 383.047 137.74C383.047 142.484 386.893 146.331 391.637 146.331Z" fill="white"/>
<path fill-rule="evenodd" clip-rule="evenodd" d="M391.637 145.257C387.486 145.257 384.121 141.891 384.121 137.74C384.121 133.589 387.486 130.223 391.637 130.223C395.789 130.223 399.154 133.589 399.154 137.74C399.154 141.891 395.789 145.257 391.637 145.257ZM391.637 129.149C386.893 129.149 383.047 132.996 383.047 137.74C383.047 142.484 386.893 146.331 391.637 146.331C396.382 146.331 400.228 142.484 400.228 137.74C400.228 132.996 396.382 129.149 391.637 129.149Z" fill="#747474"/>
<path d="M208.013 146.331C212.758 146.331 216.604 142.484 216.604 137.74C216.604 132.996 212.758 129.149 208.013 129.149C203.269 129.149 199.423 132.996 199.423 137.74C199.423 142.484 203.269 146.331 208.013 146.331Z" fill="white"/>
<path fill-rule="evenodd" clip-rule="evenodd" d="M208.013 145.257C203.862 145.257 200.497 141.891 200.497 137.74C200.497 133.589 203.862 130.223 208.013 130.223C212.165 130.223 215.53 133.589 215.53 137.74C215.53 141.891 212.165 145.257 208.013 145.257ZM208.013 129.149C203.269 129.149 199.423 132.996 199.423 137.74C199.423 142.484 203.269 146.331 208.013 146.331C212.757 146.331 216.604 142.484 216.604 137.74C216.604 132.996 212.757 129.149 208.013 129.149Z" fill="#007CBB"/>
<path d="M208.013 142.035C210.386 142.035 212.309 140.112 212.309 137.74C212.309 135.368 210.386 133.445 208.013 133.445C205.641 133.445 203.718 135.368 203.718 137.74C203.718 140.112 205.641 142.035 208.013 142.035Z" fill="#007CBB"/>
<path d="M114.369 158.011C113.679 158.011 113.109 157.771 112.671 157.351L113.037 156.901C113.403 157.249 113.835 157.477 114.393 157.477C114.963 157.477 115.257 157.177 115.257 156.847C115.257 156.457 114.915 156.307 114.225 156.151C113.385 155.953 112.827 155.701 112.827 154.957C112.827 154.267 113.427 153.745 114.255 153.745C114.891 153.745 115.365 153.979 115.761 154.327L115.413 154.783C115.065 154.465 114.651 154.279 114.231 154.279C113.769 154.279 113.445 154.573 113.445 154.903C113.445 155.287 113.799 155.419 114.477 155.581C115.299 155.773 115.869 156.049 115.869 156.787C115.869 157.483 115.341 158.011 114.369 158.011ZM118.048 157.387L118.264 157.795C118.096 157.933 117.868 158.017 117.646 158.017C117.166 158.017 116.83 157.669 116.83 157.171V155.347H116.362V154.843H116.83V153.991H117.412V154.843H118.144V155.347H117.412V157.129C117.412 157.345 117.556 157.501 117.73 157.501C117.862 157.501 117.982 157.453 118.048 157.387ZM120.291 157.489C120.615 157.489 120.993 157.345 121.179 157.153L121.551 157.537C121.275 157.831 120.735 158.017 120.297 158.017C119.433 158.017 118.701 157.339 118.701 156.385C118.701 155.455 119.391 154.771 120.249 154.771C121.197 154.771 121.743 155.491 121.743 156.601H119.301C119.379 157.117 119.757 157.489 120.291 157.489ZM120.273 155.299C119.793 155.299 119.403 155.623 119.307 156.127H121.167C121.101 155.647 120.807 155.299 120.273 155.299ZM124.154 154.771C124.97 154.771 125.582 155.443 125.582 156.391C125.582 157.345 124.97 158.017 124.154 158.017C123.674 158.017 123.29 157.789 123.05 157.405V158.977H122.462V154.843H123.05V155.377C123.29 154.999 123.674 154.771 124.154 154.771ZM124.01 157.501C124.58 157.501 124.982 157.039 124.982 156.391C124.982 155.743 124.58 155.287 124.01 155.287C123.452 155.287 123.05 155.743 123.05 156.391C123.05 157.039 123.452 157.501 124.01 157.501ZM129.593 154.771C130.277 154.771 130.757 155.269 130.757 155.971V157.945H130.175V156.073C130.175 155.611 129.881 155.287 129.461 155.287C129.029 155.287 128.657 155.569 128.609 155.935V157.945H128.015V154.843H128.609V155.293C128.795 154.987 129.173 154.771 129.593 154.771ZM132.909 154.771C133.743 154.771 134.205 155.299 134.205 156.067V157.945H133.623V157.519C133.395 157.843 132.969 158.017 132.591 158.017C131.931 158.017 131.445 157.633 131.445 157.027C131.445 156.409 132.003 155.995 132.687 155.995C132.993 155.995 133.323 156.061 133.623 156.163V156.067C133.623 155.677 133.443 155.263 132.825 155.263C132.519 155.263 132.219 155.383 131.949 155.521L131.733 155.083C132.177 154.861 132.567 154.771 132.909 154.771ZM132.705 157.549C133.089 157.549 133.521 157.357 133.623 156.973V156.559C133.371 156.481 133.083 156.439 132.777 156.439C132.363 156.439 132.015 156.673 132.015 157.009C132.015 157.345 132.315 157.549 132.705 157.549ZM138.532 154.771C139.18 154.771 139.648 155.269 139.648 155.971V157.945H139.066V156.061C139.066 155.605 138.796 155.287 138.406 155.287C137.962 155.287 137.65 155.581 137.65 156.007V157.945H137.068V156.061C137.068 155.605 136.798 155.287 136.408 155.287C135.964 155.287 135.652 155.581 135.652 156.007V157.945H135.058V154.843H135.652V155.275C135.808 154.969 136.132 154.771 136.528 154.771C136.978 154.771 137.344 155.011 137.524 155.395C137.668 155.011 138.064 154.771 138.532 154.771ZM141.924 157.489C142.248 157.489 142.626 157.345 142.812 157.153L143.184 157.537C142.908 157.831 142.368 158.017 141.93 158.017C141.066 158.017 140.334 157.339 140.334 156.385C140.334 155.455 141.024 154.771 141.882 154.771C142.83 154.771 143.376 155.491 143.376 156.601H140.934C141.012 157.117 141.39 157.489 141.924 157.489ZM141.906 155.299C141.426 155.299 141.036 155.623 140.94 156.127H142.8C142.734 155.647 142.44 155.299 141.906 155.299ZM145.631 157.945V157.447L147.143 156.199C147.695 155.737 147.905 155.383 147.905 155.011C147.905 154.561 147.533 154.297 147.125 154.297C146.675 154.297 146.345 154.537 146.057 154.909L145.649 154.549C146.009 154.051 146.495 153.751 147.149 153.751C147.917 153.751 148.529 154.249 148.529 154.999C148.529 155.551 148.265 155.989 147.557 156.565L146.591 157.381H148.565V157.945H145.631Z" fill="#565656"/>
<path d="M123.181 146.331C127.926 146.331 131.772 142.484 131.772 137.74C131.772 132.996 127.926 129.149 123.181 129.149C118.437 129.149 114.591 132.996 114.591 137.74C114.591 142.484 118.437 146.331 123.181 146.331Z" fill="white"/>
<path fill-rule="evenodd" clip-rule="evenodd" d="M123.181 145.257C119.03 145.257 115.664 141.891 115.664 137.74C115.664 133.589 119.03 130.223 123.181 130.223C127.333 130.223 130.698 133.589 130.698 137.74C130.698 141.891 127.333 145.257 123.181 145.257ZM123.181 129.149C118.437 129.149 114.591 132.996 114.591 137.74C114.591 142.484 118.437 146.331 123.181 146.331C127.925 146.331 131.772 142.484 131.772 137.74C131.772 132.996 127.925 129.149 123.181 129.149Z" fill="#60B515"/>
<path fill-rule="evenodd" clip-rule="evenodd" d="M128.55 134.551C128.45 134.451 128.314 134.395 128.172 134.395C128.03 134.395 127.894 134.451 127.793 134.551L121.834 140.484L118.612 137.262C118.514 137.156 118.377 137.093 118.233 137.088C118.088 137.082 117.947 137.134 117.841 137.233C117.736 137.331 117.673 137.467 117.668 137.612C117.662 137.756 117.714 137.897 117.812 138.003L121.812 142.003L128.55 135.308C128.65 135.207 128.706 135.071 128.706 134.929C128.706 134.787 128.65 134.651 128.55 134.551Z" fill="#60B515"/>
<path d="M27.926 158.011C27.236 158.011 26.666 157.771 26.228 157.351L26.594 156.901C26.96 157.249 27.392 157.477 27.95 157.477C28.52 157.477 28.814 157.177 28.814 156.847C28.814 156.457 28.472 156.307 27.782 156.151C26.942 155.953 26.384 155.701 26.384 154.957C26.384 154.267 26.984 153.745 27.812 153.745C28.448 153.745 28.922 153.979 29.318 154.327L28.97 154.783C28.622 154.465 28.208 154.279 27.788 154.279C27.326 154.279 27.002 154.573 27.002 154.903C27.002 155.287 27.356 155.419 28.034 155.581C28.856 155.773 29.426 156.049 29.426 156.787C29.426 157.483 28.898 158.011 27.926 158.011ZM31.6047 157.387L31.8207 157.795C31.6527 157.933 31.4247 158.017 31.2027 158.017C30.7227 158.017 30.3867 157.669 30.3867 157.171V155.347H29.9187V154.843H30.3867V153.991H30.9687V154.843H31.7007V155.347H30.9687V157.129C30.9687 157.345 31.1127 157.501 31.2867 157.501C31.4187 157.501 31.5387 157.453 31.6047 157.387ZM33.8481 157.489C34.1721 157.489 34.5501 157.345 34.7361 157.153L35.1081 157.537C34.8321 157.831 34.2921 158.017 33.8541 158.017C32.9901 158.017 32.2581 157.339 32.2581 156.385C32.2581 155.455 32.9481 154.771 33.8061 154.771C34.7541 154.771 35.3001 155.491 35.3001 156.601H32.8581C32.9361 157.117 33.3141 157.489 33.8481 157.489ZM33.8301 155.299C33.3501 155.299 32.9601 155.623 32.8641 156.127H34.7241C34.6581 155.647 34.3641 155.299 33.8301 155.299ZM37.7106 154.771C38.5266 154.771 39.1386 155.443 39.1386 156.391C39.1386 157.345 38.5266 158.017 37.7106 158.017C37.2306 158.017 36.8466 157.789 36.6066 157.405V158.977H36.0186V154.843H36.6066V155.377C36.8466 154.999 37.2306 154.771 37.7106 154.771ZM37.5666 157.501C38.1366 157.501 38.5386 157.039 38.5386 156.391C38.5386 155.743 38.1366 155.287 37.5666 155.287C37.0086 155.287 36.6066 155.743 36.6066 156.391C36.6066 157.039 37.0086 157.501 37.5666 157.501ZM43.1506 154.771C43.8346 154.771 44.3146 155.269 44.3146 155.971V157.945H43.7326V156.073C43.7326 155.611 43.4386 155.287 43.0186 155.287C42.5866 155.287 42.2146 155.569 42.1666 155.935V157.945H41.5726V154.843H42.1666V155.293C42.3526 154.987 42.7306 154.771 43.1506 154.771ZM46.4664 154.771C47.3004 154.771 47.7624 155.299 47.7624 156.067V157.945H47.1804V157.519C46.9524 157.843 46.5264 158.017 46.1484 158.017C45.4884 158.017 45.0024 157.633 45.0024 157.027C45.0024 156.409 45.5604 155.995 46.2444 155.995C46.5504 155.995 46.8804 156.061 47.1804 156.163V156.067C47.1804 155.677 47.0004 155.263 46.3824 155.263C46.0764 155.263 45.7764 155.383 45.5064 155.521L45.2904 155.083C45.7344 154.861 46.1244 154.771 46.4664 154.771ZM46.2624 157.549C46.6464 157.549 47.0784 157.357 47.1804 156.973V156.559C46.9284 156.481 46.6404 156.439 46.3344 156.439C45.9204 156.439 45.5724 156.673 45.5724 157.009C45.5724 157.345 45.8724 157.549 46.2624 157.549ZM52.0895 154.771C52.7375 154.771 53.2055 155.269 53.2055 155.971V157.945H52.6235V156.061C52.6235 155.605 52.3535 155.287 51.9635 155.287C51.5195 155.287 51.2075 155.581 51.2075 156.007V157.945H50.6255V156.061C50.6255 155.605 50.3555 155.287 49.9655 155.287C49.5215 155.287 49.2095 155.581 49.2095 156.007V157.945H48.6155V154.843H49.2095V155.275C49.3655 154.969 49.6895 154.771 50.0855 154.771C50.5355 154.771 50.9015 155.011 51.0815 155.395C51.2255 155.011 51.6215 154.771 52.0895 154.771ZM55.481 157.489C55.805 157.489 56.183 157.345 56.369 157.153L56.741 157.537C56.465 157.831 55.925 158.017 55.487 158.017C54.623 158.017 53.891 157.339 53.891 156.385C53.891 155.455 54.581 154.771 55.439 154.771C56.387 154.771 56.933 155.491 56.933 156.601H54.491C54.569 157.117 54.947 157.489 55.481 157.489ZM55.463 155.299C54.983 155.299 54.593 155.623 54.497 156.127H56.357C56.291 155.647 55.997 155.299 55.463 155.299ZM60.0043 157.945V154.543L59.2903 154.999L59.0383 154.561L60.1243 153.823H60.6163V157.945H60.0043Z" fill="#565656"/>
<path d="M35.6644 146.331C40.4089 146.331 44.255 142.484 44.255 137.74C44.255 132.996 40.4089 129.149 35.6644 129.149C30.9199 129.149 27.0738 132.996 27.0738 137.74C27.0738 142.484 30.9199 146.331 35.6644 146.331Z" fill="white"/>
<path fill-rule="evenodd" clip-rule="evenodd" d="M35.6644 145.257C31.513 145.257 28.1476 141.891 28.1476 137.74C28.1476 133.589 31.513 130.223 35.6644 130.223C39.8158 130.223 43.1812 133.589 43.1812 137.74C43.1812 141.891 39.8158 145.257 35.6644 145.257ZM35.6644 129.149C30.9202 129.149 27.0738 132.996 27.0738 137.74C27.0738 142.484 30.9202 146.331 35.6644 146.331C40.4086 146.331 44.255 142.484 44.255 137.74C44.255 132.996 40.4086 129.149 35.6644 129.149Z" fill="#60B515"/>
<path fill-rule="evenodd" clip-rule="evenodd" d="M41.0336 134.551C40.933 134.451 40.7969 134.395 40.655 134.395C40.5132 134.395 40.3771 134.451 40.2765 134.551L34.3168 140.484L31.0953 137.262C30.9969 137.156 30.8605 137.093 30.7159 137.088C30.5714 137.082 30.4305 137.134 30.3243 137.233C30.2187 137.331 30.1565 137.467 30.151 137.612C30.1456 137.756 30.1975 137.897 30.2953 138.003L34.2953 142.003L41.0336 135.308C41.1336 135.207 41.1897 135.071 41.1897 134.929C41.1897 134.787 41.1336 134.651 41.0336 134.551Z" fill="#60B515"/>
<path d="M294.993 146.331C299.738 146.331 303.584 142.484 303.584 137.74C303.584 132.996 299.738 129.149 294.993 129.149C290.249 129.149 286.403 132.996 286.403 137.74C286.403 142.484 290.249 146.331 294.993 146.331Z" fill="white"/>
<path fill-rule="evenodd" clip-rule="evenodd" d="M294.993 145.257C290.842 145.257 287.476 141.891 287.476 137.74C287.476 133.589 290.842 130.223 294.993 130.223C299.145 130.223 302.51 133.589 302.51 137.74C302.51 141.891 299.145 145.257 294.993 145.257ZM294.993 129.149C290.249 129.149 286.403 132.996 286.403 137.74C286.403 142.484 290.249 146.331 294.993 146.331C299.737 146.331 303.584 142.484 303.584 137.74C303.584 132.996 299.737 129.149 294.993 129.149Z" fill="#747474"/>
<rect x="0.5" y="0.5" width="451" height="207" rx="3.5" stroke="#ACB9BE"/>
</svg>
