<svg width="611" height="72" viewBox="0 0 611 72" fill="none" xmlns="http://www.w3.org/2000/svg">
<path d="M57.5 26.593H208.5M211.5 26.593H362.5M382.5 26.593H533.5" stroke="#9B9B9B" stroke-width="2" stroke-linecap="square"/>
<path d="M524.673 58.143C523.178 58.143 521.943 57.623 520.994 56.713L521.787 55.738C522.58 56.492 523.516 56.986 524.725 56.986C525.96 56.986 526.597 56.336 526.597 55.621C526.597 54.776 525.856 54.451 524.361 54.113C522.541 53.684 521.332 53.138 521.332 51.526C521.332 50.031 522.632 48.9 524.426 48.9C525.804 48.9 526.831 49.407 527.689 50.161L526.935 51.149C526.181 50.46 525.284 50.057 524.374 50.057C523.373 50.057 522.671 50.694 522.671 51.409C522.671 52.241 523.438 52.527 524.907 52.878C526.688 53.294 527.923 53.892 527.923 55.491C527.923 56.999 526.779 58.143 524.673 58.143ZM532.644 56.791L533.112 57.675C532.748 57.974 532.254 58.156 531.773 58.156C530.733 58.156 530.005 57.402 530.005 56.323V52.371H528.991V51.279H530.005V49.433H531.266V51.279H532.852V52.371H531.266V56.232C531.266 56.7 531.578 57.038 531.955 57.038C532.241 57.038 532.501 56.934 532.644 56.791ZM537.504 57.012C538.206 57.012 539.025 56.7 539.428 56.284L540.234 57.116C539.636 57.753 538.466 58.156 537.517 58.156C535.645 58.156 534.059 56.687 534.059 54.62C534.059 52.605 535.554 51.123 537.413 51.123C539.467 51.123 540.65 52.683 540.65 55.088H535.359C535.528 56.206 536.347 57.012 537.504 57.012ZM537.465 52.267C536.425 52.267 535.58 52.969 535.372 54.061H539.402C539.259 53.021 538.622 52.267 537.465 52.267ZM545.873 51.123C547.641 51.123 548.967 52.579 548.967 54.633C548.967 56.7 547.641 58.156 545.873 58.156C544.833 58.156 544.001 57.662 543.481 56.83V60.236H542.207V51.279H543.481V52.436C544.001 51.617 544.833 51.123 545.873 51.123ZM545.561 57.038C546.796 57.038 547.667 56.037 547.667 54.633C547.667 53.229 546.796 52.241 545.561 52.241C544.352 52.241 543.481 53.229 543.481 54.633C543.481 56.037 544.352 57.038 545.561 57.038ZM556.009 50.538V51.279H557.595V52.371H556.009V58H554.748V52.371H553.734V51.279H554.748V50.473C554.748 49.394 555.476 48.64 556.516 48.64C556.997 48.64 557.491 48.822 557.855 49.121L557.387 49.979C557.244 49.836 556.984 49.732 556.698 49.732C556.321 49.732 556.009 50.07 556.009 50.538ZM562.11 58.156C560.186 58.156 558.561 56.544 558.561 54.633C558.561 52.722 560.186 51.123 562.11 51.123C564.021 51.123 565.633 52.722 565.633 54.633C565.633 56.544 564.021 58.156 562.11 58.156ZM562.11 57.038C563.319 57.038 564.346 55.946 564.346 54.633C564.346 53.333 563.319 52.241 562.11 52.241C560.875 52.241 559.848 53.333 559.848 54.633C559.848 55.946 560.875 57.038 562.11 57.038ZM571.767 51.279H573.054V58H571.767V57.025C571.364 57.688 570.545 58.156 569.635 58.156C568.153 58.156 567.113 57.077 567.113 55.556V51.279H568.374V55.335C568.374 56.336 569.011 57.038 569.921 57.038C570.857 57.038 571.663 56.427 571.767 55.634V51.279ZM576.273 52.566C576.702 51.682 577.612 51.123 578.769 51.123V52.241C577.378 52.241 576.39 53.008 576.273 54.178V58H574.986V51.279H576.273V52.566Z" fill="#565656"/>
<path d="M538.5 43C547.337 43 554.5 35.8366 554.5 27C554.5 18.1634 547.337 11 538.5 11C529.663 11 522.5 18.1634 522.5 27C522.5 35.8366 529.663 43 538.5 43Z" fill="white"/>
<path fill-rule="evenodd" clip-rule="evenodd" d="M538.5 41C530.768 41 524.5 34.732 524.5 27C524.5 19.268 530.768 13 538.5 13C546.232 13 552.5 19.268 552.5 27C552.5 34.732 546.232 41 538.5 41ZM538.5 11C529.664 11 522.5 18.164 522.5 27C522.5 35.836 529.664 43 538.5 43C547.336 43 554.5 35.836 554.5 27C554.5 18.164 547.336 11 538.5 11Z" fill="#747474"/>
<path d="M354.673 58.143C353.178 58.143 351.943 57.623 350.994 56.713L351.787 55.738C352.58 56.492 353.516 56.986 354.725 56.986C355.96 56.986 356.597 56.336 356.597 55.621C356.597 54.776 355.856 54.451 354.361 54.113C352.541 53.684 351.332 53.138 351.332 51.526C351.332 50.031 352.632 48.9 354.426 48.9C355.804 48.9 356.831 49.407 357.689 50.161L356.935 51.149C356.181 50.46 355.284 50.057 354.374 50.057C353.373 50.057 352.671 50.694 352.671 51.409C352.671 52.241 353.438 52.527 354.907 52.878C356.688 53.294 357.923 53.892 357.923 55.491C357.923 56.999 356.779 58.143 354.673 58.143ZM362.644 56.791L363.112 57.675C362.748 57.974 362.254 58.156 361.773 58.156C360.733 58.156 360.005 57.402 360.005 56.323V52.371H358.991V51.279H360.005V49.433H361.266V51.279H362.852V52.371H361.266V56.232C361.266 56.7 361.578 57.038 361.955 57.038C362.241 57.038 362.501 56.934 362.644 56.791ZM367.504 57.012C368.206 57.012 369.025 56.7 369.428 56.284L370.234 57.116C369.636 57.753 368.466 58.156 367.517 58.156C365.645 58.156 364.059 56.687 364.059 54.62C364.059 52.605 365.554 51.123 367.413 51.123C369.467 51.123 370.65 52.683 370.65 55.088H365.359C365.528 56.206 366.347 57.012 367.504 57.012ZM367.465 52.267C366.425 52.267 365.58 52.969 365.372 54.061H369.402C369.259 53.021 368.622 52.267 367.465 52.267ZM375.873 51.123C377.641 51.123 378.967 52.579 378.967 54.633C378.967 56.7 377.641 58.156 375.873 58.156C374.833 58.156 374.001 57.662 373.481 56.83V60.236H372.207V51.279H373.481V52.436C374.001 51.617 374.833 51.123 375.873 51.123ZM375.561 57.038C376.796 57.038 377.667 56.037 377.667 54.633C377.667 53.229 376.796 52.241 375.561 52.241C374.352 52.241 373.481 53.229 373.481 54.633C373.481 56.037 374.352 57.038 375.561 57.038ZM387.387 56.791L387.855 57.675C387.491 57.974 386.997 58.156 386.516 58.156C385.476 58.156 384.748 57.402 384.748 56.323V52.371H383.734V51.279H384.748V49.433H386.009V51.279H387.595V52.371H386.009V56.232C386.009 56.7 386.321 57.038 386.698 57.038C386.984 57.038 387.244 56.934 387.387 56.791ZM392.585 51.123C394.067 51.123 395.107 52.202 395.107 53.723V58H393.846V53.944C393.846 52.943 393.209 52.241 392.299 52.241C391.285 52.241 390.44 52.956 390.44 53.827V58H389.166V48.913H390.44V52.28C390.843 51.604 391.662 51.123 392.585 51.123ZM398.301 52.566C398.73 51.682 399.64 51.123 400.797 51.123V52.241C399.406 52.241 398.418 53.008 398.301 54.178V58H397.014V51.279H398.301V52.566ZM405.133 57.012C405.835 57.012 406.654 56.7 407.057 56.284L407.863 57.116C407.265 57.753 406.095 58.156 405.146 58.156C403.274 58.156 401.688 56.687 401.688 54.62C401.688 52.605 403.183 51.123 405.042 51.123C407.096 51.123 408.279 52.683 408.279 55.088H402.988C403.157 56.206 403.976 57.012 405.133 57.012ZM405.094 52.267C404.054 52.267 403.209 52.969 403.001 54.061H407.031C406.888 53.021 406.251 52.267 405.094 52.267ZM412.852 57.012C413.554 57.012 414.373 56.7 414.776 56.284L415.582 57.116C414.984 57.753 413.814 58.156 412.865 58.156C410.993 58.156 409.407 56.687 409.407 54.62C409.407 52.605 410.902 51.123 412.761 51.123C414.815 51.123 415.998 52.683 415.998 55.088H410.707C410.876 56.206 411.695 57.012 412.852 57.012ZM412.813 52.267C411.773 52.267 410.928 52.969 410.72 54.061H414.75C414.607 53.021 413.97 52.267 412.813 52.267Z" fill="#565656"/>
<path d="M368.5 43C377.337 43 384.5 35.8366 384.5 27C384.5 18.1634 377.337 11 368.5 11C359.663 11 352.5 18.1634 352.5 27C352.5 35.8366 359.663 43 368.5 43Z" fill="white"/>
<path fill-rule="evenodd" clip-rule="evenodd" d="M368.5 41C360.768 41 354.5 34.732 354.5 27C354.5 19.268 360.768 13 368.5 13C376.232 13 382.5 19.268 382.5 27C382.5 34.732 376.232 41 368.5 41ZM368.5 11C359.664 11 352.5 18.164 352.5 27C352.5 35.836 359.664 43 368.5 43C377.336 43 384.5 35.836 384.5 27C384.5 18.164 377.336 11 368.5 11Z" fill="#007CBB"/>
<path d="M368.5 35C372.918 35 376.5 31.4183 376.5 27C376.5 22.5817 372.918 19 368.5 19C364.082 19 360.5 22.5817 360.5 27C360.5 31.4183 364.082 35 368.5 35Z" fill="#007CBB"/>
<path d="M201.673 58.143C200.178 58.143 198.943 57.623 197.994 56.713L198.787 55.738C199.58 56.492 200.516 56.986 201.725 56.986C202.96 56.986 203.597 56.336 203.597 55.621C203.597 54.776 202.856 54.451 201.361 54.113C199.541 53.684 198.332 53.138 198.332 51.526C198.332 50.031 199.632 48.9 201.426 48.9C202.804 48.9 203.831 49.407 204.689 50.161L203.935 51.149C203.181 50.46 202.284 50.057 201.374 50.057C200.373 50.057 199.671 50.694 199.671 51.409C199.671 52.241 200.438 52.527 201.907 52.878C203.688 53.294 204.923 53.892 204.923 55.491C204.923 56.999 203.779 58.143 201.673 58.143ZM209.644 56.791L210.112 57.675C209.748 57.974 209.254 58.156 208.773 58.156C207.733 58.156 207.005 57.402 207.005 56.323V52.371H205.991V51.279H207.005V49.433H208.266V51.279H209.852V52.371H208.266V56.232C208.266 56.7 208.578 57.038 208.955 57.038C209.241 57.038 209.501 56.934 209.644 56.791ZM214.504 57.012C215.206 57.012 216.025 56.7 216.428 56.284L217.234 57.116C216.636 57.753 215.466 58.156 214.517 58.156C212.645 58.156 211.059 56.687 211.059 54.62C211.059 52.605 212.554 51.123 214.413 51.123C216.467 51.123 217.65 52.683 217.65 55.088H212.359C212.528 56.206 213.347 57.012 214.504 57.012ZM214.465 52.267C213.425 52.267 212.58 52.969 212.372 54.061H216.402C216.259 53.021 215.622 52.267 214.465 52.267ZM222.873 51.123C224.641 51.123 225.967 52.579 225.967 54.633C225.967 56.7 224.641 58.156 222.873 58.156C221.833 58.156 221.001 57.662 220.481 56.83V60.236H219.207V51.279H220.481V52.436C221.001 51.617 221.833 51.123 222.873 51.123ZM222.561 57.038C223.796 57.038 224.667 56.037 224.667 54.633C224.667 53.229 223.796 52.241 222.561 52.241C221.352 52.241 220.481 53.229 220.481 54.633C220.481 56.037 221.352 57.038 222.561 57.038ZM234.387 56.791L234.855 57.675C234.491 57.974 233.997 58.156 233.516 58.156C232.476 58.156 231.748 57.402 231.748 56.323V52.371H230.734V51.279H231.748V49.433H233.009V51.279H234.595V52.371H233.009V56.232C233.009 56.7 233.321 57.038 233.698 57.038C233.984 57.038 234.244 56.934 234.387 56.791ZM237.869 58L235.607 51.279H236.92L238.467 56.284L240.131 51.279H241.223L242.887 56.284L244.421 51.279H245.734L243.472 58H242.289L240.677 53.008L239.052 58H237.869ZM249.939 58.156C248.015 58.156 246.39 56.544 246.39 54.633C246.39 52.722 248.015 51.123 249.939 51.123C251.85 51.123 253.462 52.722 253.462 54.633C253.462 56.544 251.85 58.156 249.939 58.156ZM249.939 57.038C251.148 57.038 252.175 55.946 252.175 54.633C252.175 53.333 251.148 52.241 249.939 52.241C248.704 52.241 247.677 53.333 247.677 54.633C247.677 55.946 248.704 57.038 249.939 57.038Z" fill="#565656"/>
<path d="M210.5 43C219.337 43 226.5 35.8366 226.5 27C226.5 18.1634 219.337 11 210.5 11C201.663 11 194.5 18.1634 194.5 27C194.5 35.8366 201.663 43 210.5 43Z" fill="white"/>
<path fill-rule="evenodd" clip-rule="evenodd" d="M210.5 41C202.768 41 196.5 34.732 196.5 27C196.5 19.268 202.768 13 210.5 13C218.232 13 224.5 19.268 224.5 27C224.5 34.732 218.232 41 210.5 41ZM210.5 11C201.664 11 194.5 18.164 194.5 27C194.5 35.836 201.664 43 210.5 43C219.336 43 226.5 35.836 226.5 27C226.5 18.164 219.336 11 210.5 11Z" fill="#60B515"/>
<path fill-rule="evenodd" clip-rule="evenodd" d="M220.5 21.0601C220.313 20.8738 220.059 20.7693 219.795 20.7693C219.531 20.7693 219.277 20.8738 219.09 21.0601L207.99 32.1101L201.99 26.1101C201.807 25.9126 201.553 25.7958 201.283 25.7855C201.014 25.7752 200.752 25.8722 200.554 26.0551C200.357 26.2387 200.241 26.4926 200.231 26.7615C200.221 27.0303 200.318 27.2922 200.5 27.4901L207.95 34.9401L220.5 22.4701C220.686 22.2827 220.791 22.0293 220.791 21.7651C220.791 21.5009 220.686 21.2474 220.5 21.0601Z" fill="#60B515"/>
<path d="M35.673 58.143C34.178 58.143 32.943 57.623 31.994 56.713L32.787 55.738C33.58 56.492 34.516 56.986 35.725 56.986C36.96 56.986 37.597 56.336 37.597 55.621C37.597 54.776 36.856 54.451 35.361 54.113C33.541 53.684 32.332 53.138 32.332 51.526C32.332 50.031 33.632 48.9 35.426 48.9C36.804 48.9 37.831 49.407 38.689 50.161L37.935 51.149C37.181 50.46 36.284 50.057 35.374 50.057C34.373 50.057 33.671 50.694 33.671 51.409C33.671 52.241 34.438 52.527 35.907 52.878C37.688 53.294 38.923 53.892 38.923 55.491C38.923 56.999 37.779 58.143 35.673 58.143ZM43.6435 56.791L44.1115 57.675C43.7475 57.974 43.2535 58.156 42.7725 58.156C41.7325 58.156 41.0045 57.402 41.0045 56.323V52.371H39.9905V51.279H41.0045V49.433H42.2655V51.279H43.8515V52.371H42.2655V56.232C42.2655 56.7 42.5775 57.038 42.9545 57.038C43.2405 57.038 43.5005 56.934 43.6435 56.791ZM48.5043 57.012C49.2063 57.012 50.0253 56.7 50.4283 56.284L51.2343 57.116C50.6363 57.753 49.4663 58.156 48.5173 58.156C46.6453 58.156 45.0593 56.687 45.0593 54.62C45.0593 52.605 46.5543 51.123 48.4133 51.123C50.4673 51.123 51.6503 52.683 51.6503 55.088H46.3593C46.5283 56.206 47.3473 57.012 48.5043 57.012ZM48.4653 52.267C47.4253 52.267 46.5803 52.969 46.3723 54.061H50.4023C50.2593 53.021 49.6223 52.267 48.4653 52.267ZM56.8731 51.123C58.6411 51.123 59.9671 52.579 59.9671 54.633C59.9671 56.7 58.6411 58.156 56.8731 58.156C55.8331 58.156 55.0011 57.662 54.4811 56.83V60.236H53.2071V51.279H54.4811V52.436C55.0011 51.617 55.8331 51.123 56.8731 51.123ZM56.5611 57.038C57.7961 57.038 58.6671 56.037 58.6671 54.633C58.6671 53.229 57.7961 52.241 56.5611 52.241C55.3521 52.241 54.4811 53.229 54.4811 54.633C54.4811 56.037 55.3521 57.038 56.5611 57.038ZM68.4257 58.156C66.5017 58.156 64.8767 56.544 64.8767 54.633C64.8767 52.722 66.5017 51.123 68.4257 51.123C70.3367 51.123 71.9487 52.722 71.9487 54.633C71.9487 56.544 70.3367 58.156 68.4257 58.156ZM68.4257 57.038C69.6347 57.038 70.6617 55.946 70.6617 54.633C70.6617 53.333 69.6347 52.241 68.4257 52.241C67.1907 52.241 66.1637 53.333 66.1637 54.633C66.1637 55.946 67.1907 57.038 68.4257 57.038ZM76.8736 51.123C78.3556 51.123 79.3956 52.202 79.3956 53.723V58H78.1346V53.944C78.1346 52.943 77.4976 52.241 76.5876 52.241C75.6516 52.241 74.8456 52.852 74.7416 53.645V58H73.4546V51.279H74.7416V52.254C75.1446 51.591 75.9636 51.123 76.8736 51.123ZM84.3178 57.012C85.0198 57.012 85.8388 56.7 86.2418 56.284L87.0478 57.116C86.4498 57.753 85.2798 58.156 84.3308 58.156C82.4588 58.156 80.8728 56.687 80.8728 54.62C80.8728 52.605 82.3678 51.123 84.2268 51.123C86.2808 51.123 87.4638 52.683 87.4638 55.088H82.1728C82.3418 56.206 83.1608 57.012 84.3178 57.012ZM84.2788 52.267C83.2388 52.267 82.3938 52.969 82.1858 54.061H86.2158C86.0728 53.021 85.4358 52.267 84.2788 52.267Z" fill="#565656"/>
<path d="M49.5 43C58.3366 43 65.5 35.8366 65.5 27C65.5 18.1634 58.3366 11 49.5 11C40.6634 11 33.5 18.1634 33.5 27C33.5 35.8366 40.6634 43 49.5 43Z" fill="white"/>
<path fill-rule="evenodd" clip-rule="evenodd" d="M49.5 41C41.768 41 35.5 34.732 35.5 27C35.5 19.268 41.768 13 49.5 13C57.232 13 63.5 19.268 63.5 27C63.5 34.732 57.232 41 49.5 41ZM49.5 11C40.664 11 33.5 18.164 33.5 27C33.5 35.836 40.664 43 49.5 43C58.336 43 65.5 35.836 65.5 27C65.5 18.164 58.336 11 49.5 11Z" fill="#60B515"/>
<path fill-rule="evenodd" clip-rule="evenodd" d="M59.5 21.0601C59.3126 20.8738 59.0592 20.7693 58.795 20.7693C58.5308 20.7693 58.2773 20.8738 58.09 21.0601L46.99 32.1101L40.99 26.1101C40.8067 25.9126 40.5526 25.7958 40.2834 25.7855C40.0141 25.7752 39.7518 25.8722 39.554 26.0551C39.3574 26.2387 39.2414 26.4926 39.2313 26.7615C39.2211 27.0303 39.3177 27.2922 39.5 27.4901L46.95 34.9401L59.5 22.4701C59.6862 22.2827 59.7908 22.0293 59.7908 21.7651C59.7908 21.5009 59.6862 21.2474 59.5 21.0601Z" fill="#60B515"/>
<rect x="0.5" y="0.5" width="610" height="71" rx="3.5" stroke="#ACB9BE"/>
</svg>
