<svg width="452" height="185" viewBox="0 0 452 185" fill="none" xmlns="http://www.w3.org/2000/svg">
<rect x="0.5" y="0.677002" width="451" height="183" rx="3.5" fill="white"/>
<rect x="2" y="2.177" width="352" height="180" fill="white"/>
<path d="M35.3203 43.4291H147.543M149.773 43.4291H261.996M276.86 43.4291H389.083" stroke="#9B9B9B" stroke-width="2" stroke-linecap="square"/>
<path d="M383.124 70.5659C381.881 70.5659 380.902 70.1149 380.143 69.3669L380.682 68.6959C381.32 69.3339 382.101 69.7849 383.157 69.7849C384.323 69.7849 384.917 69.1469 384.917 68.4649C384.917 67.6619 384.202 67.3429 382.882 67.0349C381.364 66.6829 380.407 66.2099 380.407 64.9009C380.407 63.6909 381.485 62.7559 382.937 62.7559C384.059 62.7559 384.895 63.1959 385.588 63.8339L385.06 64.5049C384.433 63.8999 383.685 63.5369 382.893 63.5369C381.958 63.5369 381.276 64.1419 381.276 64.8349C381.276 65.6159 382.024 65.8909 383.311 66.1989C384.752 66.5399 385.786 67.0569 385.786 68.3879C385.786 69.5869 384.884 70.5659 383.124 70.5659ZM389.729 69.6089L390.136 70.2139C389.839 70.4449 389.465 70.5769 389.08 70.5769C388.266 70.5769 387.694 69.9719 387.694 69.1249V65.4949H386.803V64.7579H387.694V63.1959H388.519V64.7579H389.916V65.4949H388.519V69.1249C388.519 69.5429 388.805 69.8399 389.135 69.8399C389.388 69.8399 389.608 69.7409 389.729 69.6089ZM393.919 69.8399C394.59 69.8399 395.36 69.5429 395.712 69.1579L396.218 69.6969C395.723 70.2359 394.722 70.5769 393.93 70.5769C392.412 70.5769 391.048 69.3339 391.048 67.5849C391.048 65.8909 392.324 64.6259 393.853 64.6259C395.569 64.6259 396.548 65.9239 396.548 67.9149H391.895C392.016 69.0259 392.797 69.8399 393.919 69.8399ZM393.886 65.3629C392.874 65.3629 392.06 66.0779 391.906 67.1779H395.734C395.624 66.1549 395.019 65.3629 393.886 65.3629ZM401.027 64.6259C402.523 64.6259 403.645 65.8579 403.645 67.5959C403.645 69.3449 402.523 70.5769 401.027 70.5769C400.114 70.5769 399.388 70.1259 398.959 69.3779V72.3369H398.134V64.7579H398.959V65.8249C399.388 65.0769 400.114 64.6259 401.027 64.6259ZM400.873 69.8399C401.984 69.8399 402.776 68.9049 402.776 67.5959C402.776 66.2869 401.984 65.3629 400.873 65.3629C399.751 65.3629 398.959 66.2869 398.959 67.5959C398.959 68.9049 399.751 69.8399 400.873 69.8399ZM409.569 63.9769V64.7579H410.966V65.4949H409.569V70.4449H408.744V65.4949H407.853V64.7579H408.744V63.9769C408.744 63.1299 409.316 62.5249 410.13 62.5249C410.515 62.5249 410.889 62.6569 411.186 62.8879L410.779 63.4929C410.658 63.3609 410.438 63.2619 410.185 63.2619C409.855 63.2619 409.569 63.5589 409.569 63.9769ZM414.679 70.5769C413.062 70.5769 411.742 69.2349 411.742 67.5959C411.742 65.9569 413.062 64.6259 414.679 64.6259C416.285 64.6259 417.605 65.9569 417.605 67.5959C417.605 69.2349 416.285 70.5769 414.679 70.5769ZM414.679 69.8399C415.812 69.8399 416.747 68.8279 416.747 67.5959C416.747 66.3639 415.812 65.3629 414.679 65.3629C413.535 65.3629 412.6 66.3639 412.6 67.5959C412.6 68.8279 413.535 69.8399 414.679 69.8399ZM423.098 64.7579H423.923V70.4449H423.098V69.5429C422.768 70.1479 422.042 70.5769 421.228 70.5769C419.963 70.5769 419.094 69.6859 419.094 68.3769V64.7579H419.919V68.2669C419.919 69.2019 420.502 69.8399 421.338 69.8399C422.306 69.8399 423.098 69.1799 423.098 68.3769V64.7579ZM426.858 65.8689C427.199 65.1099 428.013 64.6259 429.058 64.6259V65.3629C427.771 65.3629 426.858 66.1549 426.858 67.2659V70.4449H426.033V64.7579H426.858V65.8689Z" fill="#565656"/>
<path d="M392.801 55.6228C399.369 55.6228 404.693 50.2989 404.693 43.7316C404.693 37.1643 399.369 31.8405 392.801 31.8405C386.234 31.8405 380.91 37.1643 380.91 43.7316C380.91 50.2989 386.234 55.6228 392.801 55.6228Z" fill="white"/>
<path fill-rule="evenodd" clip-rule="evenodd" d="M392.801 54.1364C387.055 54.1364 382.397 49.478 382.397 43.7316C382.397 37.9852 387.055 33.3269 392.801 33.3269C398.548 33.3269 403.206 37.9852 403.206 43.7316C403.206 49.478 398.548 54.1364 392.801 54.1364ZM392.801 31.8405C386.234 31.8405 380.91 37.1647 380.91 43.7316C380.91 50.2985 386.234 55.6228 392.801 55.6228C399.368 55.6228 404.693 50.2985 404.693 43.7316C404.693 37.1647 399.368 31.8405 392.801 31.8405Z" fill="#747474"/>
<path d="M256.76 70.5659C255.517 70.5659 254.538 70.1149 253.779 69.3669L254.318 68.6959C254.956 69.3339 255.737 69.7849 256.793 69.7849C257.959 69.7849 258.553 69.1469 258.553 68.4649C258.553 67.6619 257.838 67.3429 256.518 67.0349C255 66.6829 254.043 66.2099 254.043 64.9009C254.043 63.6909 255.121 62.7559 256.573 62.7559C257.695 62.7559 258.531 63.1959 259.224 63.8339L258.696 64.5049C258.069 63.8999 257.321 63.5369 256.529 63.5369C255.594 63.5369 254.912 64.1419 254.912 64.8349C254.912 65.6159 255.66 65.8909 256.947 66.1989C258.388 66.5399 259.422 67.0569 259.422 68.3879C259.422 69.5869 258.52 70.5659 256.76 70.5659ZM263.366 69.6089L263.773 70.2139C263.476 70.4449 263.102 70.5769 262.717 70.5769C261.903 70.5769 261.331 69.9719 261.331 69.1249V65.4949H260.44V64.7579H261.331V63.1959H262.156V64.7579H263.553V65.4949H262.156V69.1249C262.156 69.5429 262.442 69.8399 262.772 69.8399C263.025 69.8399 263.245 69.7409 263.366 69.6089ZM267.556 69.8399C268.227 69.8399 268.997 69.5429 269.349 69.1579L269.855 69.6969C269.36 70.2359 268.359 70.5769 267.567 70.5769C266.049 70.5769 264.685 69.3339 264.685 67.5849C264.685 65.8909 265.961 64.6259 267.49 64.6259C269.206 64.6259 270.185 65.9239 270.185 67.9149H265.532C265.653 69.0259 266.434 69.8399 267.556 69.8399ZM267.523 65.3629C266.511 65.3629 265.697 66.0779 265.543 67.1779H269.371C269.261 66.1549 268.656 65.3629 267.523 65.3629ZM274.664 64.6259C276.16 64.6259 277.282 65.8579 277.282 67.5959C277.282 69.3449 276.16 70.5769 274.664 70.5769C273.751 70.5769 273.025 70.1259 272.596 69.3779V72.3369H271.771V64.7579H272.596V65.8249C273.025 65.0769 273.751 64.6259 274.664 64.6259ZM274.51 69.8399C275.621 69.8399 276.413 68.9049 276.413 67.5959C276.413 66.2869 275.621 65.3629 274.51 65.3629C273.388 65.3629 272.596 66.2869 272.596 67.5959C272.596 68.9049 273.388 69.8399 274.51 69.8399ZM284.383 69.6089L284.79 70.2139C284.493 70.4449 284.119 70.5769 283.734 70.5769C282.92 70.5769 282.348 69.9719 282.348 69.1249V65.4949H281.457V64.7579H282.348V63.1959H283.173V64.7579H284.57V65.4949H283.173V69.1249C283.173 69.5429 283.459 69.8399 283.789 69.8399C284.042 69.8399 284.262 69.7409 284.383 69.6089ZM288.87 64.6259C290.135 64.6259 291.004 65.5169 291.004 66.8259V70.4449H290.179V66.9359C290.179 66.0009 289.596 65.3629 288.76 65.3629C287.792 65.3629 287 66.0229 287 66.8259V70.4449H286.175V62.7559H287V65.6599C287.33 65.0549 288.056 64.6259 288.87 64.6259ZM293.806 65.8689C294.147 65.1099 294.961 64.6259 296.006 64.6259V65.3629C294.719 65.3629 293.806 66.1549 293.806 67.2659V70.4449H292.981V64.7579H293.806V65.8689ZM299.94 69.8399C300.611 69.8399 301.381 69.5429 301.733 69.1579L302.239 69.6969C301.744 70.2359 300.743 70.5769 299.951 70.5769C298.433 70.5769 297.069 69.3339 297.069 67.5849C297.069 65.8909 298.345 64.6259 299.874 64.6259C301.59 64.6259 302.569 65.9239 302.569 67.9149H297.916C298.037 69.0259 298.818 69.8399 299.94 69.8399ZM299.907 65.3629C298.895 65.3629 298.081 66.0779 297.927 67.1779H301.755C301.645 66.1549 301.04 65.3629 299.907 65.3629ZM306.553 69.8399C307.224 69.8399 307.994 69.5429 308.346 69.1579L308.852 69.6969C308.357 70.2359 307.356 70.5769 306.564 70.5769C305.046 70.5769 303.682 69.3339 303.682 67.5849C303.682 65.8909 304.958 64.6259 306.487 64.6259C308.203 64.6259 309.182 65.9239 309.182 67.9149H304.529C304.65 69.0259 305.431 69.8399 306.553 69.8399ZM306.52 65.3629C305.508 65.3629 304.694 66.0779 304.54 67.1779H308.368C308.258 66.1549 307.653 65.3629 306.52 65.3629Z" fill="#565656"/>
<path d="M266.38 57.114C273.77 57.114 279.76 51.1236 279.76 43.734C279.76 36.3444 273.77 30.354 266.38 30.354C258.99 30.354 253 36.3444 253 43.734C253 51.1236 258.99 57.114 266.38 57.114Z" fill="white"/>
<path fill-rule="evenodd" clip-rule="evenodd" d="M266.38 47.7146C266.158 47.7146 265.946 47.6265 265.789 47.4696C265.632 47.3128 265.544 47.1001 265.544 46.8783V37.1109C265.544 36.8891 265.632 36.6764 265.789 36.5196C265.946 36.3628 266.158 36.2747 266.38 36.2747C266.602 36.2747 266.814 36.3628 266.971 36.5196C267.128 36.6764 267.216 36.8891 267.216 37.1109V46.8783C267.216 47.1001 267.128 47.3128 266.971 47.4696C266.814 47.6265 266.602 47.7146 266.38 47.7146Z" fill="#C92100"/>
<path d="M266.382 51.5111C266.996 51.5111 267.494 51.0132 267.494 50.3989C267.494 49.7847 266.996 49.2867 266.382 49.2867C265.767 49.2867 265.269 49.7847 265.269 50.3989C265.269 51.0132 265.767 51.5111 266.382 51.5111Z" fill="#C92100"/>
<path fill-rule="evenodd" clip-rule="evenodd" d="M266.38 57.114C258.99 57.114 253 51.1239 253 43.734C253 36.3441 258.99 30.354 266.38 30.354C273.77 30.354 279.76 36.3441 279.76 43.734C279.76 47.2826 278.35 50.6859 275.841 53.1951C273.332 55.7043 269.929 57.114 266.38 57.114ZM266.38 32.0265C259.914 32.0265 254.673 37.2681 254.673 43.734C254.673 50.1999 259.914 55.4415 266.38 55.4415C272.846 55.4415 278.087 50.1999 278.087 43.734C278.087 37.2681 272.846 32.0265 266.38 32.0265Z" fill="#C92100"/>
<path d="M143.124 70.5659C141.881 70.5659 140.902 70.1149 140.143 69.3669L140.682 68.6959C141.32 69.3339 142.101 69.7849 143.157 69.7849C144.323 69.7849 144.917 69.1469 144.917 68.4649C144.917 67.6619 144.202 67.3429 142.882 67.0349C141.364 66.6829 140.407 66.2099 140.407 64.9009C140.407 63.6909 141.485 62.7559 142.937 62.7559C144.059 62.7559 144.895 63.1959 145.588 63.8339L145.06 64.5049C144.433 63.8999 143.685 63.5369 142.893 63.5369C141.958 63.5369 141.276 64.1419 141.276 64.8349C141.276 65.6159 142.024 65.8909 143.311 66.1989C144.752 66.5399 145.786 67.0569 145.786 68.3879C145.786 69.5869 144.884 70.5659 143.124 70.5659ZM149.729 69.6089L150.136 70.2139C149.839 70.4449 149.465 70.5769 149.08 70.5769C148.266 70.5769 147.694 69.9719 147.694 69.1249V65.4949H146.803V64.7579H147.694V63.1959H148.519V64.7579H149.916V65.4949H148.519V69.1249C148.519 69.5429 148.805 69.8399 149.135 69.8399C149.388 69.8399 149.608 69.7409 149.729 69.6089ZM153.919 69.8399C154.59 69.8399 155.36 69.5429 155.712 69.1579L156.218 69.6969C155.723 70.2359 154.722 70.5769 153.93 70.5769C152.412 70.5769 151.048 69.3339 151.048 67.5849C151.048 65.8909 152.324 64.6259 153.853 64.6259C155.569 64.6259 156.548 65.9239 156.548 67.9149H151.895C152.016 69.0259 152.797 69.8399 153.919 69.8399ZM153.886 65.3629C152.874 65.3629 152.06 66.0779 151.906 67.1779H155.734C155.624 66.1549 155.019 65.3629 153.886 65.3629ZM161.027 64.6259C162.523 64.6259 163.645 65.8579 163.645 67.5959C163.645 69.3449 162.523 70.5769 161.027 70.5769C160.114 70.5769 159.388 70.1259 158.959 69.3779V72.3369H158.134V64.7579H158.959V65.8249C159.388 65.0769 160.114 64.6259 161.027 64.6259ZM160.873 69.8399C161.984 69.8399 162.776 68.9049 162.776 67.5959C162.776 66.2869 161.984 65.3629 160.873 65.3629C159.751 65.3629 158.959 66.2869 158.959 67.5959C158.959 68.9049 159.751 69.8399 160.873 69.8399ZM170.746 69.6089L171.153 70.2139C170.856 70.4449 170.482 70.5769 170.097 70.5769C169.283 70.5769 168.711 69.9719 168.711 69.1249V65.4949H167.82V64.7579H168.711V63.1959H169.536V64.7579H170.933V65.4949H169.536V69.1249C169.536 69.5429 169.822 69.8399 170.152 69.8399C170.405 69.8399 170.625 69.7409 170.746 69.6089ZM173.66 70.4449L171.757 64.7579H172.637L174.056 69.3449L175.607 64.7579H176.322L177.873 69.3449L179.292 64.7579H180.172L178.258 70.4449H177.477L175.97 65.9019L174.441 70.4449H173.66ZM183.945 70.5769C182.328 70.5769 181.008 69.2349 181.008 67.5959C181.008 65.9569 182.328 64.6259 183.945 64.6259C185.551 64.6259 186.871 65.9569 186.871 67.5959C186.871 69.2349 185.551 70.5769 183.945 70.5769ZM183.945 69.8399C185.078 69.8399 186.013 68.8279 186.013 67.5959C186.013 66.3639 185.078 65.3629 183.945 65.3629C182.801 65.3629 181.866 66.3639 181.866 67.5959C181.866 68.8279 182.801 69.8399 183.945 69.8399Z" fill="#565656"/>
<path d="M149.036 55.6228C155.603 55.6228 160.927 50.2989 160.927 43.7316C160.927 37.1643 155.603 31.8405 149.036 31.8405C142.468 31.8405 137.145 37.1643 137.145 43.7316C137.145 50.2989 142.468 55.6228 149.036 55.6228Z" fill="white"/>
<path fill-rule="evenodd" clip-rule="evenodd" d="M149.036 54.1364C143.289 54.1364 138.631 49.478 138.631 43.7316C138.631 37.9852 143.289 33.3269 149.036 33.3269C154.782 33.3269 159.44 37.9852 159.44 43.7316C159.44 49.478 154.782 54.1364 149.036 54.1364ZM149.036 31.8405C142.469 31.8405 137.145 37.1647 137.145 43.7316C137.145 50.2985 142.469 55.6228 149.036 55.6228C155.603 55.6228 160.927 50.2985 160.927 43.7316C160.927 37.1647 155.603 31.8405 149.036 31.8405Z" fill="#60B515"/>
<path fill-rule="evenodd" clip-rule="evenodd" d="M156.468 39.317C156.329 39.1786 156.14 39.1009 155.944 39.1009C155.747 39.1009 155.559 39.1786 155.42 39.317L147.17 47.5294L142.711 43.0702C142.575 42.9234 142.386 42.8366 142.186 42.829C141.986 42.8213 141.791 42.8934 141.644 43.0293C141.498 43.1658 141.412 43.3545 141.404 43.5543C141.397 43.7541 141.468 43.9487 141.604 44.0958L147.141 49.6326L156.468 40.3649C156.606 40.2257 156.684 40.0373 156.684 39.841C156.684 39.6447 156.606 39.4563 156.468 39.317Z" fill="#60B515"/>
<path d="M19.487 70.5659C18.244 70.5659 17.265 70.1149 16.506 69.3669L17.045 68.6959C17.683 69.3339 18.464 69.7849 19.52 69.7849C20.686 69.7849 21.28 69.1469 21.28 68.4649C21.28 67.6619 20.565 67.3429 19.245 67.0349C17.727 66.6829 16.77 66.2099 16.77 64.9009C16.77 63.6909 17.848 62.7559 19.3 62.7559C20.422 62.7559 21.258 63.1959 21.951 63.8339L21.423 64.5049C20.796 63.8999 20.048 63.5369 19.256 63.5369C18.321 63.5369 17.639 64.1419 17.639 64.8349C17.639 65.6159 18.387 65.8909 19.674 66.1989C21.115 66.5399 22.149 67.0569 22.149 68.3879C22.149 69.5869 21.247 70.5659 19.487 70.5659ZM26.0924 69.6089L26.4994 70.2139C26.2024 70.4449 25.8284 70.5769 25.4434 70.5769C24.6294 70.5769 24.0574 69.9719 24.0574 69.1249V65.4949H23.1664V64.7579H24.0574V63.1959H24.8824V64.7579H26.2794V65.4949H24.8824V69.1249C24.8824 69.5429 25.1684 69.8399 25.4984 69.8399C25.7514 69.8399 25.9714 69.7409 26.0924 69.6089ZM30.2823 69.8399C30.9533 69.8399 31.7233 69.5429 32.0753 69.1579L32.5813 69.6969C32.0863 70.2359 31.0853 70.5769 30.2933 70.5769C28.7753 70.5769 27.4113 69.3339 27.4113 67.5849C27.4113 65.8909 28.6873 64.6259 30.2163 64.6259C31.9323 64.6259 32.9113 65.9239 32.9113 67.9149H28.2583C28.3793 69.0259 29.1603 69.8399 30.2823 69.8399ZM30.2493 65.3629C29.2373 65.3629 28.4233 66.0779 28.2693 67.1779H32.0973C31.9873 66.1549 31.3823 65.3629 30.2493 65.3629ZM37.3904 64.6259C38.8864 64.6259 40.0084 65.8579 40.0084 67.5959C40.0084 69.3449 38.8864 70.5769 37.3904 70.5769C36.4774 70.5769 35.7514 70.1259 35.3224 69.3779V72.3369H34.4974V64.7579H35.3224V65.8249C35.7514 65.0769 36.4774 64.6259 37.3904 64.6259ZM37.2364 69.8399C38.3474 69.8399 39.1394 68.9049 39.1394 67.5959C39.1394 66.2869 38.3474 65.3629 37.2364 65.3629C36.1144 65.3629 35.3224 66.2869 35.3224 67.5959C35.3224 68.9049 36.1144 69.8399 37.2364 69.8399ZM47.3511 70.5769C45.7341 70.5769 44.4141 69.2349 44.4141 67.5959C44.4141 65.9569 45.7341 64.6259 47.3511 64.6259C48.9571 64.6259 50.2771 65.9569 50.2771 67.5959C50.2771 69.2349 48.9571 70.5769 47.3511 70.5769ZM47.3511 69.8399C48.4841 69.8399 49.4191 68.8279 49.4191 67.5959C49.4191 66.3639 48.4841 65.3629 47.3511 65.3629C46.2071 65.3629 45.2721 66.3639 45.2721 67.5959C45.2721 68.8279 46.2071 69.8399 47.3511 69.8399ZM54.5932 64.6259C55.8582 64.6259 56.7272 65.5169 56.7272 66.8259V70.4449H55.9022V66.9359C55.9022 66.0009 55.3192 65.3629 54.4832 65.3629C53.5152 65.3629 52.7232 66.0229 52.7232 66.8259V70.4449H51.8982V64.7579H52.7232V65.6599C53.0532 65.0549 53.7792 64.6259 54.5932 64.6259ZM61.1027 69.8399C61.7737 69.8399 62.5437 69.5429 62.8957 69.1579L63.4017 69.6969C62.9067 70.2359 61.9057 70.5769 61.1137 70.5769C59.5957 70.5769 58.2317 69.3339 58.2317 67.5849C58.2317 65.8909 59.5077 64.6259 61.0367 64.6259C62.7527 64.6259 63.7317 65.9239 63.7317 67.9149H59.0787C59.1997 69.0259 59.9807 69.8399 61.1027 69.8399ZM61.0697 65.3629C60.0577 65.3629 59.2437 66.0779 59.0897 67.1779H62.9177C62.8077 66.1549 62.2027 65.3629 61.0697 65.3629Z" fill="#565656"/>
<path d="M29.3755 55.6228C35.9429 55.6228 41.2667 50.2989 41.2667 43.7316C41.2667 37.1643 35.9429 31.8405 29.3755 31.8405C22.8082 31.8405 17.4844 37.1643 17.4844 43.7316C17.4844 50.2989 22.8082 55.6228 29.3755 55.6228Z" fill="white"/>
<path fill-rule="evenodd" clip-rule="evenodd" d="M29.3755 54.1364C23.6291 54.1364 18.9708 49.478 18.9708 43.7316C18.9708 37.9852 23.6291 33.3269 29.3755 33.3269C35.122 33.3269 39.7803 37.9852 39.7803 43.7316C39.7803 49.478 35.122 54.1364 29.3755 54.1364ZM29.3755 31.8405C22.8086 31.8405 17.4844 37.1647 17.4844 43.7316C17.4844 50.2985 22.8086 55.6228 29.3755 55.6228C35.9425 55.6228 41.2667 50.2985 41.2667 43.7316C41.2667 37.1647 35.9425 31.8405 29.3755 31.8405Z" fill="#60B515"/>
<path fill-rule="evenodd" clip-rule="evenodd" d="M36.8076 39.317C36.6684 39.1786 36.48 39.1009 36.2837 39.1009C36.0873 39.1009 35.899 39.1786 35.7597 39.317L27.5102 47.5294L23.051 43.0702C22.9148 42.9234 22.726 42.8366 22.5259 42.829C22.3258 42.8213 22.1308 42.8934 21.9838 43.0293C21.8377 43.1658 21.7515 43.3545 21.7439 43.5543C21.7364 43.7541 21.8082 43.9487 21.9437 44.0958L27.4805 49.6326L36.8076 40.3649C36.946 40.2257 37.0237 40.0373 37.0237 39.841C37.0237 39.6447 36.946 39.4563 36.8076 39.317Z" fill="#60B515"/>
<path d="M257.158 104.486C255.31 104.486 254.001 103.133 254.001 101.219V96.797H254.859V101.219C254.859 102.671 255.816 103.705 257.158 103.705C258.5 103.705 259.457 102.671 259.457 101.219V96.797H260.315V101.219C260.315 103.133 259.006 104.486 257.158 104.486ZM265.364 98.535C266.86 98.535 267.982 99.767 267.982 101.505C267.982 103.254 266.86 104.486 265.364 104.486C264.451 104.486 263.725 104.035 263.296 103.287V106.246H262.471V98.667H263.296V99.734C263.725 98.986 264.451 98.535 265.364 98.535ZM265.21 103.749C266.321 103.749 267.113 102.814 267.113 101.505C267.113 100.196 266.321 99.272 265.21 99.272C264.088 99.272 263.296 100.196 263.296 101.505C263.296 102.814 264.088 103.749 265.21 103.749ZM269.654 104.354V96.665H270.479V104.354H269.654ZM275.035 104.486C273.418 104.486 272.098 103.144 272.098 101.505C272.098 99.866 273.418 98.535 275.035 98.535C276.641 98.535 277.961 99.866 277.961 101.505C277.961 103.144 276.641 104.486 275.035 104.486ZM275.035 103.749C276.168 103.749 277.103 102.737 277.103 101.505C277.103 100.273 276.168 99.272 275.035 99.272C273.891 99.272 272.956 100.273 272.956 101.505C272.956 102.737 273.891 103.749 275.035 103.749ZM281.617 98.535C283.168 98.535 283.927 99.514 283.927 100.889V104.354H283.102V103.463C282.695 104.134 281.848 104.486 281.1 104.486C279.901 104.486 279.021 103.793 279.021 102.671C279.021 101.538 280.033 100.779 281.254 100.779C281.87 100.779 282.519 100.911 283.102 101.098V100.889C283.102 100.119 282.794 99.239 281.562 99.239C280.99 99.239 280.418 99.492 279.901 99.756L279.571 99.085C280.385 98.678 281.067 98.535 281.617 98.535ZM281.243 103.76C281.991 103.76 282.882 103.375 283.102 102.572V101.703C282.585 101.56 282.002 101.472 281.386 101.472C280.539 101.472 279.824 101.956 279.824 102.638C279.824 103.342 280.44 103.76 281.243 103.76ZM290.151 96.665H290.976V104.354H290.151V103.287C289.722 104.035 288.996 104.486 288.083 104.486C286.587 104.486 285.465 103.254 285.465 101.505C285.465 99.767 286.587 98.535 288.083 98.535C288.996 98.535 289.722 98.986 290.151 99.734V96.665ZM288.237 103.749C289.359 103.749 290.151 102.814 290.151 101.505C290.151 100.196 289.359 99.272 288.237 99.272C287.126 99.272 286.334 100.196 286.334 101.505C286.334 102.814 287.126 103.749 288.237 103.749ZM297.34 97.886V98.667H298.737V99.404H297.34V104.354H296.515V99.404H295.624V98.667H296.515V97.886C296.515 97.039 297.087 96.434 297.901 96.434C298.286 96.434 298.66 96.566 298.957 96.797L298.55 97.402C298.429 97.27 298.209 97.171 297.956 97.171C297.626 97.171 297.34 97.468 297.34 97.886ZM302.043 98.535C303.594 98.535 304.353 99.514 304.353 100.889V104.354H303.528V103.463C303.121 104.134 302.274 104.486 301.526 104.486C300.327 104.486 299.447 103.793 299.447 102.671C299.447 101.538 300.459 100.779 301.68 100.779C302.296 100.779 302.945 100.911 303.528 101.098V100.889C303.528 100.119 303.22 99.239 301.988 99.239C301.416 99.239 300.844 99.492 300.327 99.756L299.997 99.085C300.811 98.678 301.493 98.535 302.043 98.535ZM301.669 103.76C302.417 103.76 303.308 103.375 303.528 102.572V101.703C303.011 101.56 302.428 101.472 301.812 101.472C300.965 101.472 300.25 101.956 300.25 102.638C300.25 103.342 300.866 103.76 301.669 103.76ZM306.749 97.633C306.441 97.633 306.199 97.38 306.199 97.083C306.199 96.797 306.441 96.544 306.749 96.544C307.046 96.544 307.288 96.797 307.288 97.083C307.288 97.38 307.046 97.633 306.749 97.633ZM306.331 104.354V98.667H307.156V104.354H306.331ZM309.27 104.354V96.665H310.095V104.354H309.27ZM314.608 103.749C315.279 103.749 316.049 103.452 316.401 103.067L316.907 103.606C316.412 104.145 315.411 104.486 314.619 104.486C313.101 104.486 311.737 103.243 311.737 101.494C311.737 99.8 313.013 98.535 314.542 98.535C316.258 98.535 317.237 99.833 317.237 101.824H312.584C312.705 102.935 313.486 103.749 314.608 103.749ZM314.575 99.272C313.563 99.272 312.749 99.987 312.595 101.087H316.423C316.313 100.064 315.708 99.272 314.575 99.272ZM323.069 96.665H323.894V104.354H323.069V103.287C322.64 104.035 321.914 104.486 321.001 104.486C319.505 104.486 318.383 103.254 318.383 101.505C318.383 99.767 319.505 98.535 321.001 98.535C321.914 98.535 322.64 98.986 323.069 99.734V96.665ZM321.155 103.749C322.277 103.749 323.069 102.814 323.069 101.505C323.069 100.196 322.277 99.272 321.155 99.272C320.044 99.272 319.252 100.196 319.252 101.505C319.252 102.814 320.044 103.749 321.155 103.749ZM326.841 104.486C326.5 104.486 326.236 104.211 326.236 103.881C326.236 103.573 326.5 103.298 326.841 103.298C327.16 103.298 327.424 103.573 327.424 103.881C327.424 104.211 327.16 104.486 326.841 104.486ZM334.86 104.354V97.611H332.319V96.797H338.259V97.611H335.718V104.354H334.86ZM340.514 99.778C340.855 99.019 341.669 98.535 342.714 98.535V99.272C341.427 99.272 340.514 100.064 340.514 101.175V104.354H339.689V98.667H340.514V99.778ZM344.746 106.334C344.416 106.334 344.108 106.268 343.844 106.147L344.042 105.443C344.24 105.542 344.471 105.586 344.713 105.586C345.076 105.586 345.318 105.465 345.538 105.08L345.868 104.376L343.393 98.667H344.306L346.297 103.397L348.178 98.667H349.069L346.473 104.992C346.077 105.96 345.527 106.323 344.746 106.334ZM257.829 114.667H258.654V120.354H257.829V119.452C257.499 120.057 256.773 120.486 255.959 120.486C254.694 120.486 253.825 119.595 253.825 118.286V114.667H254.65V118.176C254.65 119.111 255.233 119.749 256.069 119.749C257.037 119.749 257.829 119.089 257.829 118.286V114.667ZM263.656 114.535C265.152 114.535 266.274 115.767 266.274 117.505C266.274 119.254 265.152 120.486 263.656 120.486C262.743 120.486 262.017 120.035 261.588 119.287V122.246H260.763V114.667H261.588V115.734C262.017 114.986 262.743 114.535 263.656 114.535ZM263.502 119.749C264.613 119.749 265.405 118.814 265.405 117.505C265.405 116.196 264.613 115.272 263.502 115.272C262.38 115.272 261.588 116.196 261.588 117.505C261.588 118.814 262.38 119.749 263.502 119.749ZM267.946 120.354V112.665H268.771V120.354H267.946ZM273.327 120.486C271.71 120.486 270.39 119.144 270.39 117.505C270.39 115.866 271.71 114.535 273.327 114.535C274.933 114.535 276.253 115.866 276.253 117.505C276.253 119.144 274.933 120.486 273.327 120.486ZM273.327 119.749C274.46 119.749 275.395 118.737 275.395 117.505C275.395 116.273 274.46 115.272 273.327 115.272C272.183 115.272 271.248 116.273 271.248 117.505C271.248 118.737 272.183 119.749 273.327 119.749ZM279.909 114.535C281.46 114.535 282.219 115.514 282.219 116.889V120.354H281.394V119.463C280.987 120.134 280.14 120.486 279.392 120.486C278.193 120.486 277.313 119.793 277.313 118.671C277.313 117.538 278.325 116.779 279.546 116.779C280.162 116.779 280.811 116.911 281.394 117.098V116.889C281.394 116.119 281.086 115.239 279.854 115.239C279.282 115.239 278.71 115.492 278.193 115.756L277.863 115.085C278.677 114.678 279.359 114.535 279.909 114.535ZM279.535 119.76C280.283 119.76 281.174 119.375 281.394 118.572V117.703C280.877 117.56 280.294 117.472 279.678 117.472C278.831 117.472 278.116 117.956 278.116 118.638C278.116 119.342 278.732 119.76 279.535 119.76ZM288.443 112.665H289.268V120.354H288.443V119.287C288.014 120.035 287.288 120.486 286.375 120.486C284.879 120.486 283.757 119.254 283.757 117.505C283.757 115.767 284.879 114.535 286.375 114.535C287.288 114.535 288.014 114.986 288.443 115.734V112.665ZM286.529 119.749C287.651 119.749 288.443 118.814 288.443 117.505C288.443 116.196 287.651 115.272 286.529 115.272C285.418 115.272 284.626 116.196 284.626 117.505C284.626 118.814 285.418 119.749 286.529 119.749ZM296.644 114.535C298.195 114.535 298.954 115.514 298.954 116.889V120.354H298.129V119.463C297.722 120.134 296.875 120.486 296.127 120.486C294.928 120.486 294.048 119.793 294.048 118.671C294.048 117.538 295.06 116.779 296.281 116.779C296.897 116.779 297.546 116.911 298.129 117.098V116.889C298.129 116.119 297.821 115.239 296.589 115.239C296.017 115.239 295.445 115.492 294.928 115.756L294.598 115.085C295.412 114.678 296.094 114.535 296.644 114.535ZM296.27 119.76C297.018 119.76 297.909 119.375 298.129 118.572V117.703C297.612 117.56 297.029 117.472 296.413 117.472C295.566 117.472 294.851 117.956 294.851 118.638C294.851 119.342 295.467 119.76 296.27 119.76ZM305.123 114.667H305.948V119.749C305.948 121.212 304.793 122.246 303.154 122.246C302.23 122.246 301.372 121.927 300.855 121.487L301.218 120.838C301.658 121.256 302.34 121.509 303.044 121.509C304.353 121.509 305.123 120.86 305.123 119.749V118.825C304.683 119.518 303.957 119.936 303.055 119.936C301.526 119.936 300.437 118.814 300.437 117.23C300.437 115.646 301.526 114.535 303.055 114.535C303.957 114.535 304.683 114.953 305.123 115.646V114.667ZM303.209 119.199C304.331 119.199 305.123 118.385 305.123 117.23C305.123 116.086 304.331 115.272 303.209 115.272C302.098 115.272 301.306 116.086 301.306 117.23C301.306 118.385 302.098 119.199 303.209 119.199ZM310.096 114.535C311.647 114.535 312.406 115.514 312.406 116.889V120.354H311.581V119.463C311.174 120.134 310.327 120.486 309.579 120.486C308.38 120.486 307.5 119.793 307.5 118.671C307.5 117.538 308.512 116.779 309.733 116.779C310.349 116.779 310.998 116.911 311.581 117.098V116.889C311.581 116.119 311.273 115.239 310.041 115.239C309.469 115.239 308.897 115.492 308.38 115.756L308.05 115.085C308.864 114.678 309.546 114.535 310.096 114.535ZM309.722 119.76C310.47 119.76 311.361 119.375 311.581 118.572V117.703C311.064 117.56 310.481 117.472 309.865 117.472C309.018 117.472 308.303 117.956 308.303 118.638C308.303 119.342 308.919 119.76 309.722 119.76ZM314.802 113.633C314.494 113.633 314.252 113.38 314.252 113.083C314.252 112.797 314.494 112.544 314.802 112.544C315.099 112.544 315.341 112.797 315.341 113.083C315.341 113.38 315.099 113.633 314.802 113.633ZM314.384 120.354V114.667H315.209V120.354H314.384ZM320.018 114.535C321.283 114.535 322.152 115.426 322.152 116.735V120.354H321.327V116.845C321.327 115.91 320.744 115.272 319.908 115.272C318.94 115.272 318.148 115.932 318.148 116.735V120.354H317.323V114.667H318.148V115.569C318.478 114.964 319.204 114.535 320.018 114.535Z" fill="#565656"/>
<path d="M272.55 148.354L271.926 146.866H267.942L267.318 148.354H265.65L269.094 140.11H270.762L274.206 148.354H272.55ZM268.482 145.57H271.386L269.934 142.102L268.482 145.57ZM280.317 148.498C277.965 148.498 275.985 146.542 275.985 144.226C275.985 141.91 277.965 139.966 280.317 139.966C281.529 139.966 282.633 140.482 283.425 141.298L282.357 142.294C281.853 141.706 281.109 141.334 280.317 141.334C278.793 141.334 277.509 142.654 277.509 144.226C277.509 145.81 278.793 147.13 280.317 147.13C281.121 147.13 281.853 146.758 282.369 146.17L283.425 147.154C282.633 147.982 281.529 148.498 280.317 148.498ZM287.802 148.354V141.478H285.162V140.11H291.93V141.478H289.29V148.354H287.802ZM294.235 148.354V140.11H295.723V148.354H294.235ZM302.466 148.498C300.114 148.498 298.134 146.542 298.134 144.226C298.134 141.91 300.114 139.966 302.466 139.966C304.806 139.966 306.786 141.91 306.786 144.226C306.786 146.542 304.806 148.498 302.466 148.498ZM302.466 147.13C303.978 147.13 305.25 145.81 305.25 144.226C305.25 142.654 303.978 141.334 302.466 141.334C300.942 141.334 299.658 142.654 299.658 144.226C299.658 145.81 300.942 147.13 302.466 147.13ZM309.269 148.354V140.11H310.769L315.125 145.906V140.11H316.613V148.354H315.125L310.769 142.558V148.354H309.269Z" fill="#0079B8"/>
<rect x="253.5" y="132.854" width="77" height="23" rx="2.5" stroke="#0079B8"/>
<rect x="0.5" y="0.677002" width="451" height="183" rx="3.5" stroke="#ACB9BE"/>
</svg>
