<svg width="452" height="185" viewBox="0 0 452 185" fill="none" xmlns="http://www.w3.org/2000/svg">
<rect x="0.5" y="0.677002" width="451" height="183" rx="3.5" fill="white"/>
<rect x="2" y="2.177" width="448" height="180" fill="white"/>
<path d="M35.3203 43.2521H147.543M149.773 43.2521H261.996M276.86 43.2521H389.083" stroke="#9B9B9B" stroke-width="2" stroke-linecap="square"/>
<path d="M383.124 70.3889C381.881 70.3889 380.902 69.9379 380.143 69.1899L380.682 68.5189C381.32 69.1569 382.101 69.6079 383.157 69.6079C384.323 69.6079 384.917 68.9699 384.917 68.2879C384.917 67.4849 384.202 67.1659 382.882 66.8579C381.364 66.5059 380.407 66.0329 380.407 64.7239C380.407 63.5139 381.485 62.5789 382.937 62.5789C384.059 62.5789 384.895 63.0189 385.588 63.6569L385.06 64.3279C384.433 63.7229 383.685 63.3599 382.893 63.3599C381.958 63.3599 381.276 63.9649 381.276 64.6579C381.276 65.4389 382.024 65.7139 383.311 66.0219C384.752 66.3629 385.786 66.8799 385.786 68.2109C385.786 69.4099 384.884 70.3889 383.124 70.3889ZM389.729 69.4319L390.136 70.0369C389.839 70.2679 389.465 70.3999 389.08 70.3999C388.266 70.3999 387.694 69.7949 387.694 68.9479V65.3179H386.803V64.5809H387.694V63.0189H388.519V64.5809H389.916V65.3179H388.519V68.9479C388.519 69.3659 388.805 69.6629 389.135 69.6629C389.388 69.6629 389.608 69.5639 389.729 69.4319ZM393.919 69.6629C394.59 69.6629 395.36 69.3659 395.712 68.9809L396.218 69.5199C395.723 70.0589 394.722 70.3999 393.93 70.3999C392.412 70.3999 391.048 69.1569 391.048 67.4079C391.048 65.7139 392.324 64.4489 393.853 64.4489C395.569 64.4489 396.548 65.7469 396.548 67.7379H391.895C392.016 68.8489 392.797 69.6629 393.919 69.6629ZM393.886 65.1859C392.874 65.1859 392.06 65.9009 391.906 67.0009H395.734C395.624 65.9779 395.019 65.1859 393.886 65.1859ZM401.027 64.4489C402.523 64.4489 403.645 65.6809 403.645 67.4189C403.645 69.1679 402.523 70.3999 401.027 70.3999C400.114 70.3999 399.388 69.9489 398.959 69.2009V72.1599H398.134V64.5809H398.959V65.6479C399.388 64.8999 400.114 64.4489 401.027 64.4489ZM400.873 69.6629C401.984 69.6629 402.776 68.7279 402.776 67.4189C402.776 66.1099 401.984 65.1859 400.873 65.1859C399.751 65.1859 398.959 66.1099 398.959 67.4189C398.959 68.7279 399.751 69.6629 400.873 69.6629ZM409.569 63.7999V64.5809H410.966V65.3179H409.569V70.2679H408.744V65.3179H407.853V64.5809H408.744V63.7999C408.744 62.9529 409.316 62.3479 410.13 62.3479C410.515 62.3479 410.889 62.4799 411.186 62.7109L410.779 63.3159C410.658 63.1839 410.438 63.0849 410.185 63.0849C409.855 63.0849 409.569 63.3819 409.569 63.7999ZM414.679 70.3999C413.062 70.3999 411.742 69.0579 411.742 67.4189C411.742 65.7799 413.062 64.4489 414.679 64.4489C416.285 64.4489 417.605 65.7799 417.605 67.4189C417.605 69.0579 416.285 70.3999 414.679 70.3999ZM414.679 69.6629C415.812 69.6629 416.747 68.6509 416.747 67.4189C416.747 66.1869 415.812 65.1859 414.679 65.1859C413.535 65.1859 412.6 66.1869 412.6 67.4189C412.6 68.6509 413.535 69.6629 414.679 69.6629ZM423.098 64.5809H423.923V70.2679H423.098V69.3659C422.768 69.9709 422.042 70.3999 421.228 70.3999C419.963 70.3999 419.094 69.5089 419.094 68.1999V64.5809H419.919V68.0899C419.919 69.0249 420.502 69.6629 421.338 69.6629C422.306 69.6629 423.098 69.0029 423.098 68.1999V64.5809ZM426.858 65.6919C427.199 64.9329 428.013 64.4489 429.058 64.4489V65.1859C427.771 65.1859 426.858 65.9779 426.858 67.0889V70.2679H426.033V64.5809H426.858V65.6919Z" fill="#565656"/>
<path d="M392.801 55.4458C399.369 55.4458 404.693 50.1219 404.693 43.5546C404.693 36.9873 399.369 31.6635 392.801 31.6635C386.234 31.6635 380.91 36.9873 380.91 43.5546C380.91 50.1219 386.234 55.4458 392.801 55.4458Z" fill="white"/>
<path fill-rule="evenodd" clip-rule="evenodd" d="M392.801 53.9594C387.055 53.9594 382.397 49.301 382.397 43.5546C382.397 37.8082 387.055 33.1498 392.801 33.1498C398.548 33.1498 403.206 37.8082 403.206 43.5546C403.206 49.301 398.548 53.9594 392.801 53.9594ZM392.801 31.6635C386.234 31.6635 380.91 36.9877 380.91 43.5546C380.91 50.1215 386.234 55.4458 392.801 55.4458C399.368 55.4458 404.693 50.1215 404.693 43.5546C404.693 36.9877 399.368 31.6635 392.801 31.6635Z" fill="#747474"/>
<path d="M256.76 70.3889C255.517 70.3889 254.538 69.9379 253.779 69.1899L254.318 68.5189C254.956 69.1569 255.737 69.6079 256.793 69.6079C257.959 69.6079 258.553 68.9699 258.553 68.2879C258.553 67.4849 257.838 67.1659 256.518 66.8579C255 66.5059 254.043 66.0329 254.043 64.7239C254.043 63.5139 255.121 62.5789 256.573 62.5789C257.695 62.5789 258.531 63.0189 259.224 63.6569L258.696 64.3279C258.069 63.7229 257.321 63.3599 256.529 63.3599C255.594 63.3599 254.912 63.9649 254.912 64.6579C254.912 65.4389 255.66 65.7139 256.947 66.0219C258.388 66.3629 259.422 66.8799 259.422 68.2109C259.422 69.4099 258.52 70.3889 256.76 70.3889ZM263.366 69.4319L263.773 70.0369C263.476 70.2679 263.102 70.3999 262.717 70.3999C261.903 70.3999 261.331 69.7949 261.331 68.9479V65.3179H260.44V64.5809H261.331V63.0189H262.156V64.5809H263.553V65.3179H262.156V68.9479C262.156 69.3659 262.442 69.6629 262.772 69.6629C263.025 69.6629 263.245 69.5639 263.366 69.4319ZM267.556 69.6629C268.227 69.6629 268.997 69.3659 269.349 68.9809L269.855 69.5199C269.36 70.0589 268.359 70.3999 267.567 70.3999C266.049 70.3999 264.685 69.1569 264.685 67.4079C264.685 65.7139 265.961 64.4489 267.49 64.4489C269.206 64.4489 270.185 65.7469 270.185 67.7379H265.532C265.653 68.8489 266.434 69.6629 267.556 69.6629ZM267.523 65.1859C266.511 65.1859 265.697 65.9009 265.543 67.0009H269.371C269.261 65.9779 268.656 65.1859 267.523 65.1859ZM274.664 64.4489C276.16 64.4489 277.282 65.6809 277.282 67.4189C277.282 69.1679 276.16 70.3999 274.664 70.3999C273.751 70.3999 273.025 69.9489 272.596 69.2009V72.1599H271.771V64.5809H272.596V65.6479C273.025 64.8999 273.751 64.4489 274.664 64.4489ZM274.51 69.6629C275.621 69.6629 276.413 68.7279 276.413 67.4189C276.413 66.1099 275.621 65.1859 274.51 65.1859C273.388 65.1859 272.596 66.1099 272.596 67.4189C272.596 68.7279 273.388 69.6629 274.51 69.6629ZM284.383 69.4319L284.79 70.0369C284.493 70.2679 284.119 70.3999 283.734 70.3999C282.92 70.3999 282.348 69.7949 282.348 68.9479V65.3179H281.457V64.5809H282.348V63.0189H283.173V64.5809H284.57V65.3179H283.173V68.9479C283.173 69.3659 283.459 69.6629 283.789 69.6629C284.042 69.6629 284.262 69.5639 284.383 69.4319ZM288.87 64.4489C290.135 64.4489 291.004 65.3399 291.004 66.6489V70.2679H290.179V66.7589C290.179 65.8239 289.596 65.1859 288.76 65.1859C287.792 65.1859 287 65.8459 287 66.6489V70.2679H286.175V62.5789H287V65.4829C287.33 64.8779 288.056 64.4489 288.87 64.4489ZM293.806 65.6919C294.147 64.9329 294.961 64.4489 296.006 64.4489V65.1859C294.719 65.1859 293.806 65.9779 293.806 67.0889V70.2679H292.981V64.5809H293.806V65.6919ZM299.94 69.6629C300.611 69.6629 301.381 69.3659 301.733 68.9809L302.239 69.5199C301.744 70.0589 300.743 70.3999 299.951 70.3999C298.433 70.3999 297.069 69.1569 297.069 67.4079C297.069 65.7139 298.345 64.4489 299.874 64.4489C301.59 64.4489 302.569 65.7469 302.569 67.7379H297.916C298.037 68.8489 298.818 69.6629 299.94 69.6629ZM299.907 65.1859C298.895 65.1859 298.081 65.9009 297.927 67.0009H301.755C301.645 65.9779 301.04 65.1859 299.907 65.1859ZM306.553 69.6629C307.224 69.6629 307.994 69.3659 308.346 68.9809L308.852 69.5199C308.357 70.0589 307.356 70.3999 306.564 70.3999C305.046 70.3999 303.682 69.1569 303.682 67.4079C303.682 65.7139 304.958 64.4489 306.487 64.4489C308.203 64.4489 309.182 65.7469 309.182 67.7379H304.529C304.65 68.8489 305.431 69.6629 306.553 69.6629ZM306.52 65.1859C305.508 65.1859 304.694 65.9009 304.54 67.0009H308.368C308.258 65.9779 307.653 65.1859 306.52 65.1859Z" fill="#565656"/>
<path d="M266.46 56.9321C273.848 56.9321 279.837 50.9428 279.837 43.5546C279.837 36.1663 273.848 30.177 266.46 30.177C259.071 30.177 253.082 36.1663 253.082 43.5546C253.082 50.9428 259.071 56.9321 266.46 56.9321Z" fill="white"/>
<path opacity="0.15" fill-rule="evenodd" clip-rule="evenodd" d="M277.513 43.6459C277.513 49.7007 272.605 54.6088 266.55 54.6088C260.495 54.6088 255.587 49.7007 255.587 43.6459C255.587 37.5911 260.495 32.683 266.55 32.683C272.605 32.683 277.513 37.5911 277.513 43.6459Z" stroke="black" stroke-width="2.8"/>
<path d="M259.35 51.9103C254.786 47.9319 254.312 41.0076 258.289 36.4421C259.318 35.2616 260.588 34.3153 262.013 33.6667C263.438 33.0182 264.986 32.6825 266.552 32.6823" stroke="#007CBB" stroke-width="2.8"/>
<path d="M143.124 70.3889C141.881 70.3889 140.902 69.9379 140.143 69.1899L140.682 68.5189C141.32 69.1569 142.101 69.6079 143.157 69.6079C144.323 69.6079 144.917 68.9699 144.917 68.2879C144.917 67.4849 144.202 67.1659 142.882 66.8579C141.364 66.5059 140.407 66.0329 140.407 64.7239C140.407 63.5139 141.485 62.5789 142.937 62.5789C144.059 62.5789 144.895 63.0189 145.588 63.6569L145.06 64.3279C144.433 63.7229 143.685 63.3599 142.893 63.3599C141.958 63.3599 141.276 63.9649 141.276 64.6579C141.276 65.4389 142.024 65.7139 143.311 66.0219C144.752 66.3629 145.786 66.8799 145.786 68.2109C145.786 69.4099 144.884 70.3889 143.124 70.3889ZM149.729 69.4319L150.136 70.0369C149.839 70.2679 149.465 70.3999 149.08 70.3999C148.266 70.3999 147.694 69.7949 147.694 68.9479V65.3179H146.803V64.5809H147.694V63.0189H148.519V64.5809H149.916V65.3179H148.519V68.9479C148.519 69.3659 148.805 69.6629 149.135 69.6629C149.388 69.6629 149.608 69.5639 149.729 69.4319ZM153.919 69.6629C154.59 69.6629 155.36 69.3659 155.712 68.9809L156.218 69.5199C155.723 70.0589 154.722 70.3999 153.93 70.3999C152.412 70.3999 151.048 69.1569 151.048 67.4079C151.048 65.7139 152.324 64.4489 153.853 64.4489C155.569 64.4489 156.548 65.7469 156.548 67.7379H151.895C152.016 68.8489 152.797 69.6629 153.919 69.6629ZM153.886 65.1859C152.874 65.1859 152.06 65.9009 151.906 67.0009H155.734C155.624 65.9779 155.019 65.1859 153.886 65.1859ZM161.027 64.4489C162.523 64.4489 163.645 65.6809 163.645 67.4189C163.645 69.1679 162.523 70.3999 161.027 70.3999C160.114 70.3999 159.388 69.9489 158.959 69.2009V72.1599H158.134V64.5809H158.959V65.6479C159.388 64.8999 160.114 64.4489 161.027 64.4489ZM160.873 69.6629C161.984 69.6629 162.776 68.7279 162.776 67.4189C162.776 66.1099 161.984 65.1859 160.873 65.1859C159.751 65.1859 158.959 66.1099 158.959 67.4189C158.959 68.7279 159.751 69.6629 160.873 69.6629ZM170.746 69.4319L171.153 70.0369C170.856 70.2679 170.482 70.3999 170.097 70.3999C169.283 70.3999 168.711 69.7949 168.711 68.9479V65.3179H167.82V64.5809H168.711V63.0189H169.536V64.5809H170.933V65.3179H169.536V68.9479C169.536 69.3659 169.822 69.6629 170.152 69.6629C170.405 69.6629 170.625 69.5639 170.746 69.4319ZM173.66 70.2679L171.757 64.5809H172.637L174.056 69.1679L175.607 64.5809H176.322L177.873 69.1679L179.292 64.5809H180.172L178.258 70.2679H177.477L175.97 65.7249L174.441 70.2679H173.66ZM183.945 70.3999C182.328 70.3999 181.008 69.0579 181.008 67.4189C181.008 65.7799 182.328 64.4489 183.945 64.4489C185.551 64.4489 186.871 65.7799 186.871 67.4189C186.871 69.0579 185.551 70.3999 183.945 70.3999ZM183.945 69.6629C185.078 69.6629 186.013 68.6509 186.013 67.4189C186.013 66.1869 185.078 65.1859 183.945 65.1859C182.801 65.1859 181.866 66.1869 181.866 67.4189C181.866 68.6509 182.801 69.6629 183.945 69.6629Z" fill="#565656"/>
<path d="M149.036 55.4458C155.603 55.4458 160.927 50.1219 160.927 43.5546C160.927 36.9873 155.603 31.6635 149.036 31.6635C142.468 31.6635 137.145 36.9873 137.145 43.5546C137.145 50.1219 142.468 55.4458 149.036 55.4458Z" fill="white"/>
<path fill-rule="evenodd" clip-rule="evenodd" d="M149.036 53.9594C143.289 53.9594 138.631 49.301 138.631 43.5546C138.631 37.8082 143.289 33.1498 149.036 33.1498C154.782 33.1498 159.44 37.8082 159.44 43.5546C159.44 49.301 154.782 53.9594 149.036 53.9594ZM149.036 31.6635C142.469 31.6635 137.145 36.9877 137.145 43.5546C137.145 50.1215 142.469 55.4458 149.036 55.4458C155.603 55.4458 160.927 50.1215 160.927 43.5546C160.927 36.9877 155.603 31.6635 149.036 31.6635Z" fill="#60B515"/>
<path fill-rule="evenodd" clip-rule="evenodd" d="M156.468 39.1401C156.329 39.0016 156.14 38.924 155.944 38.924C155.747 38.924 155.559 39.0016 155.42 39.1401L147.17 47.3524L142.711 42.8932C142.575 42.7464 142.386 42.6597 142.186 42.652C141.986 42.6443 141.791 42.7164 141.644 42.8523C141.498 42.9888 141.412 43.1775 141.404 43.3773C141.397 43.5771 141.468 43.7718 141.604 43.9188L147.141 49.4557L156.468 40.188C156.606 40.0487 156.684 39.8604 156.684 39.664C156.684 39.4677 156.606 39.2793 156.468 39.1401Z" fill="#60B515"/>
<path d="M19.487 70.3889C18.244 70.3889 17.265 69.9379 16.506 69.1899L17.045 68.5189C17.683 69.1569 18.464 69.6079 19.52 69.6079C20.686 69.6079 21.28 68.9699 21.28 68.2879C21.28 67.4849 20.565 67.1659 19.245 66.8579C17.727 66.5059 16.77 66.0329 16.77 64.7239C16.77 63.5139 17.848 62.5789 19.3 62.5789C20.422 62.5789 21.258 63.0189 21.951 63.6569L21.423 64.3279C20.796 63.7229 20.048 63.3599 19.256 63.3599C18.321 63.3599 17.639 63.9649 17.639 64.6579C17.639 65.4389 18.387 65.7139 19.674 66.0219C21.115 66.3629 22.149 66.8799 22.149 68.2109C22.149 69.4099 21.247 70.3889 19.487 70.3889ZM26.0924 69.4319L26.4994 70.0369C26.2024 70.2679 25.8284 70.3999 25.4434 70.3999C24.6294 70.3999 24.0574 69.7949 24.0574 68.9479V65.3179H23.1664V64.5809H24.0574V63.0189H24.8824V64.5809H26.2794V65.3179H24.8824V68.9479C24.8824 69.3659 25.1684 69.6629 25.4984 69.6629C25.7514 69.6629 25.9714 69.5639 26.0924 69.4319ZM30.2823 69.6629C30.9533 69.6629 31.7233 69.3659 32.0753 68.9809L32.5813 69.5199C32.0863 70.0589 31.0853 70.3999 30.2933 70.3999C28.7753 70.3999 27.4113 69.1569 27.4113 67.4079C27.4113 65.7139 28.6873 64.4489 30.2163 64.4489C31.9323 64.4489 32.9113 65.7469 32.9113 67.7379H28.2583C28.3793 68.8489 29.1603 69.6629 30.2823 69.6629ZM30.2493 65.1859C29.2373 65.1859 28.4233 65.9009 28.2693 67.0009H32.0973C31.9873 65.9779 31.3823 65.1859 30.2493 65.1859ZM37.3904 64.4489C38.8864 64.4489 40.0084 65.6809 40.0084 67.4189C40.0084 69.1679 38.8864 70.3999 37.3904 70.3999C36.4774 70.3999 35.7514 69.9489 35.3224 69.2009V72.1599H34.4974V64.5809H35.3224V65.6479C35.7514 64.8999 36.4774 64.4489 37.3904 64.4489ZM37.2364 69.6629C38.3474 69.6629 39.1394 68.7279 39.1394 67.4189C39.1394 66.1099 38.3474 65.1859 37.2364 65.1859C36.1144 65.1859 35.3224 66.1099 35.3224 67.4189C35.3224 68.7279 36.1144 69.6629 37.2364 69.6629ZM47.3511 70.3999C45.7341 70.3999 44.4141 69.0579 44.4141 67.4189C44.4141 65.7799 45.7341 64.4489 47.3511 64.4489C48.9571 64.4489 50.2771 65.7799 50.2771 67.4189C50.2771 69.0579 48.9571 70.3999 47.3511 70.3999ZM47.3511 69.6629C48.4841 69.6629 49.4191 68.6509 49.4191 67.4189C49.4191 66.1869 48.4841 65.1859 47.3511 65.1859C46.2071 65.1859 45.2721 66.1869 45.2721 67.4189C45.2721 68.6509 46.2071 69.6629 47.3511 69.6629ZM54.5932 64.4489C55.8582 64.4489 56.7272 65.3399 56.7272 66.6489V70.2679H55.9022V66.7589C55.9022 65.8239 55.3192 65.1859 54.4832 65.1859C53.5152 65.1859 52.7232 65.8459 52.7232 66.6489V70.2679H51.8982V64.5809H52.7232V65.4829C53.0532 64.8779 53.7792 64.4489 54.5932 64.4489ZM61.1027 69.6629C61.7737 69.6629 62.5437 69.3659 62.8957 68.9809L63.4017 69.5199C62.9067 70.0589 61.9057 70.3999 61.1137 70.3999C59.5957 70.3999 58.2317 69.1569 58.2317 67.4079C58.2317 65.7139 59.5077 64.4489 61.0367 64.4489C62.7527 64.4489 63.7317 65.7469 63.7317 67.7379H59.0787C59.1997 68.8489 59.9807 69.6629 61.1027 69.6629ZM61.0697 65.1859C60.0577 65.1859 59.2437 65.9009 59.0897 67.0009H62.9177C62.8077 65.9779 62.2027 65.1859 61.0697 65.1859Z" fill="#565656"/>
<path d="M29.3755 55.4458C35.9429 55.4458 41.2667 50.1219 41.2667 43.5546C41.2667 36.9873 35.9429 31.6635 29.3755 31.6635C22.8082 31.6635 17.4844 36.9873 17.4844 43.5546C17.4844 50.1219 22.8082 55.4458 29.3755 55.4458Z" fill="white"/>
<path fill-rule="evenodd" clip-rule="evenodd" d="M29.3755 53.9594C23.6291 53.9594 18.9708 49.301 18.9708 43.5546C18.9708 37.8082 23.6291 33.1498 29.3755 33.1498C35.122 33.1498 39.7803 37.8082 39.7803 43.5546C39.7803 49.301 35.122 53.9594 29.3755 53.9594ZM29.3755 31.6635C22.8086 31.6635 17.4844 36.9877 17.4844 43.5546C17.4844 50.1215 22.8086 55.4458 29.3755 55.4458C35.9425 55.4458 41.2667 50.1215 41.2667 43.5546C41.2667 36.9877 35.9425 31.6635 29.3755 31.6635Z" fill="#60B515"/>
<path fill-rule="evenodd" clip-rule="evenodd" d="M36.8076 39.1401C36.6684 39.0016 36.48 38.924 36.2837 38.924C36.0873 38.924 35.899 39.0016 35.7597 39.1401L27.5102 47.3524L23.051 42.8932C22.9148 42.7464 22.726 42.6597 22.5259 42.652C22.3258 42.6443 22.1308 42.7164 21.9838 42.8523C21.8377 42.9888 21.7515 43.1775 21.7439 43.3773C21.7364 43.5771 21.8082 43.7718 21.9437 43.9188L27.4805 49.4557L36.8076 40.188C36.946 40.0487 37.0237 39.8604 37.0237 39.664C37.0237 39.4677 36.946 39.2793 36.8076 39.1401Z" fill="#60B515"/>
<path d="M257.158 104.309C255.31 104.309 254.001 102.956 254.001 101.042V96.62H254.859V101.042C254.859 102.494 255.816 103.528 257.158 103.528C258.5 103.528 259.457 102.494 259.457 101.042V96.62H260.315V101.042C260.315 102.956 259.006 104.309 257.158 104.309ZM265.364 98.358C266.86 98.358 267.982 99.59 267.982 101.328C267.982 103.077 266.86 104.309 265.364 104.309C264.451 104.309 263.725 103.858 263.296 103.11V106.069H262.471V98.49H263.296V99.557C263.725 98.809 264.451 98.358 265.364 98.358ZM265.21 103.572C266.321 103.572 267.113 102.637 267.113 101.328C267.113 100.019 266.321 99.095 265.21 99.095C264.088 99.095 263.296 100.019 263.296 101.328C263.296 102.637 264.088 103.572 265.21 103.572ZM269.654 104.177V96.488H270.479V104.177H269.654ZM275.035 104.309C273.418 104.309 272.098 102.967 272.098 101.328C272.098 99.689 273.418 98.358 275.035 98.358C276.641 98.358 277.961 99.689 277.961 101.328C277.961 102.967 276.641 104.309 275.035 104.309ZM275.035 103.572C276.168 103.572 277.103 102.56 277.103 101.328C277.103 100.096 276.168 99.095 275.035 99.095C273.891 99.095 272.956 100.096 272.956 101.328C272.956 102.56 273.891 103.572 275.035 103.572ZM281.617 98.358C283.168 98.358 283.927 99.337 283.927 100.712V104.177H283.102V103.286C282.695 103.957 281.848 104.309 281.1 104.309C279.901 104.309 279.021 103.616 279.021 102.494C279.021 101.361 280.033 100.602 281.254 100.602C281.87 100.602 282.519 100.734 283.102 100.921V100.712C283.102 99.942 282.794 99.062 281.562 99.062C280.99 99.062 280.418 99.315 279.901 99.579L279.571 98.908C280.385 98.501 281.067 98.358 281.617 98.358ZM281.243 103.583C281.991 103.583 282.882 103.198 283.102 102.395V101.526C282.585 101.383 282.002 101.295 281.386 101.295C280.539 101.295 279.824 101.779 279.824 102.461C279.824 103.165 280.44 103.583 281.243 103.583ZM290.151 96.488H290.976V104.177H290.151V103.11C289.722 103.858 288.996 104.309 288.083 104.309C286.587 104.309 285.465 103.077 285.465 101.328C285.465 99.59 286.587 98.358 288.083 98.358C288.996 98.358 289.722 98.809 290.151 99.557V96.488ZM288.237 103.572C289.359 103.572 290.151 102.637 290.151 101.328C290.151 100.019 289.359 99.095 288.237 99.095C287.126 99.095 286.334 100.019 286.334 101.328C286.334 102.637 287.126 103.572 288.237 103.572ZM296.735 97.456C296.427 97.456 296.185 97.203 296.185 96.906C296.185 96.62 296.427 96.367 296.735 96.367C297.032 96.367 297.274 96.62 297.274 96.906C297.274 97.203 297.032 97.456 296.735 97.456ZM296.317 104.177V98.49H297.142V104.177H296.317ZM301.951 98.358C303.216 98.358 304.085 99.249 304.085 100.558V104.177H303.26V100.668C303.26 99.733 302.677 99.095 301.841 99.095C300.873 99.095 300.081 99.755 300.081 100.558V104.177H299.256V98.49H300.081V99.392C300.411 98.787 301.137 98.358 301.951 98.358ZM254.199 120.177V112.62H257.268C258.83 112.62 260.051 113.621 260.051 115.04C260.051 116.459 258.83 117.46 257.268 117.46H255.057V120.177H254.199ZM255.057 116.646H257.114C258.346 116.646 259.182 116.052 259.182 115.04C259.182 114.028 258.346 113.434 257.114 113.434H255.057V116.646ZM262.512 115.601C262.853 114.842 263.667 114.358 264.712 114.358V115.095C263.425 115.095 262.512 115.887 262.512 116.998V120.177H261.687V114.49H262.512V115.601ZM268.691 120.309C267.074 120.309 265.754 118.967 265.754 117.328C265.754 115.689 267.074 114.358 268.691 114.358C270.297 114.358 271.617 115.689 271.617 117.328C271.617 118.967 270.297 120.309 268.691 120.309ZM268.691 119.572C269.824 119.572 270.759 118.56 270.759 117.328C270.759 116.096 269.824 115.095 268.691 115.095C267.547 115.095 266.612 116.096 266.612 117.328C266.612 118.56 267.547 119.572 268.691 119.572ZM277.429 114.49H278.254V119.572C278.254 121.035 277.099 122.069 275.46 122.069C274.536 122.069 273.678 121.75 273.161 121.31L273.524 120.661C273.964 121.079 274.646 121.332 275.35 121.332C276.659 121.332 277.429 120.683 277.429 119.572V118.648C276.989 119.341 276.263 119.759 275.361 119.759C273.832 119.759 272.743 118.637 272.743 117.053C272.743 115.469 273.832 114.358 275.361 114.358C276.263 114.358 276.989 114.776 277.429 115.469V114.49ZM275.515 119.022C276.637 119.022 277.429 118.208 277.429 117.053C277.429 115.909 276.637 115.095 275.515 115.095C274.404 115.095 273.612 115.909 273.612 117.053C273.612 118.208 274.404 119.022 275.515 119.022ZM281.191 115.601C281.532 114.842 282.346 114.358 283.391 114.358V115.095C282.104 115.095 281.191 115.887 281.191 116.998V120.177H280.366V114.49H281.191V115.601ZM287.326 119.572C287.997 119.572 288.767 119.275 289.119 118.89L289.625 119.429C289.13 119.968 288.129 120.309 287.337 120.309C285.819 120.309 284.455 119.066 284.455 117.317C284.455 115.623 285.731 114.358 287.26 114.358C288.976 114.358 289.955 115.656 289.955 117.647H285.302C285.423 118.758 286.204 119.572 287.326 119.572ZM287.293 115.095C286.281 115.095 285.467 115.81 285.313 116.91H289.141C289.031 115.887 288.426 115.095 287.293 115.095ZM293.301 120.309C292.509 120.309 291.629 120.012 290.947 119.462L291.376 118.857C292.025 119.33 292.674 119.572 293.301 119.572C294.049 119.572 294.555 119.22 294.555 118.681C294.555 118.065 293.895 117.867 293.125 117.647C291.75 117.251 291.222 116.844 291.222 116.03C291.222 114.996 292.08 114.358 293.213 114.358C293.917 114.358 294.643 114.6 295.248 114.996L294.852 115.634C294.28 115.271 293.719 115.095 293.213 115.095C292.575 115.095 292.047 115.381 292.047 115.931C292.047 116.426 292.465 116.58 293.521 116.921C294.434 117.207 295.38 117.515 295.38 118.593C295.38 119.638 294.478 120.309 293.301 120.309ZM298.754 120.309C297.962 120.309 297.082 120.012 296.4 119.462L296.829 118.857C297.478 119.33 298.127 119.572 298.754 119.572C299.502 119.572 300.008 119.22 300.008 118.681C300.008 118.065 299.348 117.867 298.578 117.647C297.203 117.251 296.675 116.844 296.675 116.03C296.675 114.996 297.533 114.358 298.666 114.358C299.37 114.358 300.096 114.6 300.701 114.996L300.305 115.634C299.733 115.271 299.172 115.095 298.666 115.095C298.028 115.095 297.5 115.381 297.5 115.931C297.5 116.426 297.918 116.58 298.974 116.921C299.887 117.207 300.833 117.515 300.833 118.593C300.833 119.638 299.931 120.309 298.754 120.309Z" fill="#565656"/>
<g opacity="0.4">
<path d="M272.55 148.177L271.926 146.689H267.942L267.318 148.177H265.65L269.094 139.933H270.762L274.206 148.177H272.55ZM268.482 145.393H271.386L269.934 141.925L268.482 145.393ZM280.317 148.321C277.965 148.321 275.985 146.365 275.985 144.049C275.985 141.733 277.965 139.789 280.317 139.789C281.529 139.789 282.633 140.305 283.425 141.121L282.357 142.117C281.853 141.529 281.109 141.157 280.317 141.157C278.793 141.157 277.509 142.477 277.509 144.049C277.509 145.633 278.793 146.953 280.317 146.953C281.121 146.953 281.853 146.581 282.369 145.993L283.425 146.977C282.633 147.805 281.529 148.321 280.317 148.321ZM287.802 148.177V141.301H285.162V139.933H291.93V141.301H289.29V148.177H287.802ZM294.235 148.177V139.933H295.723V148.177H294.235ZM302.466 148.321C300.114 148.321 298.134 146.365 298.134 144.049C298.134 141.733 300.114 139.789 302.466 139.789C304.806 139.789 306.786 141.733 306.786 144.049C306.786 146.365 304.806 148.321 302.466 148.321ZM302.466 146.953C303.978 146.953 305.25 145.633 305.25 144.049C305.25 142.477 303.978 141.157 302.466 141.157C300.942 141.157 299.658 142.477 299.658 144.049C299.658 145.633 300.942 146.953 302.466 146.953ZM309.269 148.177V139.933H310.769L315.125 145.729V139.933H316.613V148.177H315.125L310.769 142.381V148.177H309.269Z" fill="#565656"/>
<rect x="253.5" y="132.677" width="77" height="23" rx="2.5" stroke="#565656"/>
</g>
<rect x="0.5" y="0.677002" width="451" height="183" rx="3.5" stroke="#ACB9BE"/>
</svg>
