<svg width="928" height="384" viewBox="0 0 928 384" fill="none" xmlns="http://www.w3.org/2000/svg">
<rect x="0.5" y="0.5" width="927" height="383" rx="3.5" fill="#1B2B32"/>
<path d="M248.735 54.5V45.569H250.347L255.066 51.848V45.569H256.678V54.5H255.066L250.347 48.221V54.5H248.735ZM261.489 47.623C263.27 47.623 264.362 48.754 264.362 50.457V54.5H262.815V53.707C262.321 54.318 261.489 54.656 260.709 54.656C259.279 54.656 258.213 53.811 258.213 52.511C258.213 51.185 259.422 50.275 260.943 50.275C261.554 50.275 262.204 50.405 262.815 50.626V50.457C262.815 49.677 262.399 48.923 261.177 48.923C260.54 48.923 259.929 49.144 259.357 49.43L258.811 48.325C259.76 47.857 260.644 47.623 261.489 47.623ZM261.06 53.499C261.827 53.499 262.646 53.109 262.815 52.394V51.627C262.321 51.471 261.762 51.38 261.177 51.38C260.384 51.38 259.734 51.822 259.734 52.459C259.734 53.096 260.306 53.499 261.06 53.499ZM273.874 47.623C275.278 47.623 276.331 48.702 276.331 50.223V54.5H274.784V50.483C274.784 49.599 274.251 48.975 273.484 48.975C272.613 48.975 272.002 49.56 272.002 50.379V54.5H270.468V50.483C270.468 49.599 269.922 48.975 269.155 48.975C268.297 48.975 267.686 49.56 267.686 50.379V54.5H266.1V47.779H267.686V48.689C268.024 48.039 268.713 47.623 269.558 47.623C270.624 47.623 271.482 48.247 271.833 49.222C272.015 48.26 272.821 47.623 273.874 47.623ZM281.037 53.382C281.713 53.382 282.48 53.096 282.909 52.68L283.819 53.616C283.234 54.24 282.064 54.656 281.089 54.656C279.152 54.656 277.553 53.187 277.553 51.12C277.553 49.092 279.074 47.623 280.998 47.623C283.078 47.623 284.3 49.157 284.3 51.601H279.087C279.256 52.654 279.997 53.382 281.037 53.382ZM281.011 48.897C280.049 48.897 279.308 49.547 279.1 50.548H282.766C282.623 49.599 282.025 48.897 281.011 48.897ZM289.863 46.765C289.356 46.765 288.953 46.336 288.953 45.855C288.953 45.374 289.356 44.958 289.863 44.958C290.357 44.958 290.76 45.374 290.76 45.855C290.76 46.336 290.357 46.765 289.863 46.765ZM289.07 54.5V47.779H290.656V54.5H289.07ZM296.203 47.623C297.685 47.623 298.712 48.689 298.712 50.223V54.5H297.165V50.535C297.165 49.612 296.593 48.975 295.761 48.975C294.851 48.975 294.123 49.612 294.123 50.431V54.5H292.537V47.779H294.123V48.689C294.526 48.052 295.306 47.623 296.203 47.623ZM304.361 47.623C306.142 47.623 307.442 49.079 307.442 51.133C307.442 53.2 306.142 54.656 304.361 54.656C303.373 54.656 302.567 54.214 302.034 53.46V56.736H300.448V47.779H302.034V48.819C302.567 48.065 303.373 47.623 304.361 47.623ZM303.932 53.304C305.063 53.304 305.869 52.394 305.869 51.133C305.869 49.872 305.063 48.975 303.932 48.975C302.814 48.975 302.034 49.872 302.034 51.133C302.034 52.394 302.814 53.304 303.932 53.304ZM313.313 47.779H314.899V54.5H313.313V53.59C312.91 54.227 312.13 54.656 311.233 54.656C309.751 54.656 308.724 53.59 308.724 52.056V47.779H310.271V51.744C310.271 52.667 310.843 53.304 311.675 53.304C312.585 53.304 313.313 52.667 313.313 51.848V47.779ZM319.923 53.057L320.378 54.123C320.001 54.448 319.455 54.656 318.935 54.656C317.83 54.656 317.05 53.85 317.05 52.719V49.092H316.075V47.779H317.05V45.933H318.584V47.779H320.105V49.092H318.584V52.524C318.584 52.979 318.883 53.304 319.26 53.304C319.533 53.304 319.78 53.2 319.923 53.057Z" fill="#ACB8BE"/>
<path d="M601.5 63.5H367.5V65.5H601.5V63.5Z" fill="#CBD4D8" mask="url(#path-3-inside-1_8990_25680)"/>
<path d="M374.122 72.757H369.568V75.243H373.671V76.057H369.568V78.686H374.122V79.5H368.699V71.943H374.122V72.757ZM378.592 73.681C379.857 73.681 380.726 74.572 380.726 75.881V79.5H379.901V75.991C379.901 75.056 379.318 74.418 378.482 74.418C377.514 74.418 376.722 75.078 376.722 75.881V79.5H375.897V73.813H376.722V74.715C377.052 74.11 377.778 73.681 378.592 73.681ZM384.904 78.664L385.311 79.269C385.014 79.5 384.64 79.632 384.255 79.632C383.441 79.632 382.869 79.027 382.869 78.18V74.55H381.978V73.813H382.869V72.251H383.694V73.813H385.091V74.55H383.694V78.18C383.694 78.598 383.98 78.895 384.31 78.895C384.563 78.895 384.783 78.796 384.904 78.664ZM389.094 78.895C389.765 78.895 390.535 78.598 390.887 78.213L391.393 78.752C390.898 79.291 389.897 79.632 389.105 79.632C387.587 79.632 386.223 78.389 386.223 76.64C386.223 74.946 387.499 73.681 389.028 73.681C390.744 73.681 391.723 74.979 391.723 76.97H387.07C387.191 78.081 387.972 78.895 389.094 78.895ZM389.061 74.418C388.049 74.418 387.235 75.133 387.081 76.233H390.909C390.799 75.21 390.194 74.418 389.061 74.418ZM394.134 74.924C394.475 74.165 395.289 73.681 396.334 73.681V74.418C395.047 74.418 394.134 75.21 394.134 76.321V79.5H393.309V73.813H394.134V74.924ZM401.594 81.48C401.264 81.48 400.956 81.414 400.692 81.293L400.89 80.589C401.088 80.688 401.319 80.732 401.561 80.732C401.924 80.732 402.166 80.611 402.386 80.226L402.716 79.522L400.241 73.813H401.154L403.145 78.543L405.026 73.813H405.917L403.321 80.138C402.925 81.106 402.375 81.469 401.594 81.48ZM409.639 79.632C408.022 79.632 406.702 78.29 406.702 76.651C406.702 75.012 408.022 73.681 409.639 73.681C411.245 73.681 412.565 75.012 412.565 76.651C412.565 78.29 411.245 79.632 409.639 79.632ZM409.639 78.895C410.772 78.895 411.707 77.883 411.707 76.651C411.707 75.419 410.772 74.418 409.639 74.418C408.495 74.418 407.56 75.419 407.56 76.651C407.56 77.883 408.495 78.895 409.639 78.895ZM418.058 73.813H418.883V79.5H418.058V78.598C417.728 79.203 417.002 79.632 416.188 79.632C414.923 79.632 414.054 78.741 414.054 77.432V73.813H414.879V77.322C414.879 78.257 415.462 78.895 416.298 78.895C417.266 78.895 418.058 78.235 418.058 77.432V73.813ZM421.817 74.924C422.158 74.165 422.972 73.681 424.017 73.681V74.418C422.73 74.418 421.817 75.21 421.817 76.321V79.5H420.992V73.813H421.817V74.924ZM429.806 73.032V73.813H431.203V74.55H429.806V79.5H428.981V74.55H428.09V73.813H428.981V73.032C428.981 72.185 429.553 71.58 430.367 71.58C430.752 71.58 431.126 71.712 431.423 71.943L431.016 72.548C430.895 72.416 430.675 72.317 430.422 72.317C430.092 72.317 429.806 72.614 429.806 73.032ZM436.346 73.813H437.171V79.5H436.346V78.598C436.016 79.203 435.29 79.632 434.476 79.632C433.211 79.632 432.342 78.741 432.342 77.432V73.813H433.167V77.322C433.167 78.257 433.75 78.895 434.586 78.895C435.554 78.895 436.346 78.235 436.346 77.432V73.813ZM439.281 79.5V71.811H440.106V79.5H439.281ZM442.22 79.5V71.811H443.045V79.5H442.22ZM451.083 73.681C452.348 73.681 453.217 74.572 453.217 75.881V79.5H452.392V75.991C452.392 75.056 451.809 74.418 450.973 74.418C450.005 74.418 449.213 75.078 449.213 75.881V79.5H448.388V73.813H449.213V74.715C449.543 74.11 450.269 73.681 451.083 73.681ZM457.23 73.681C458.781 73.681 459.54 74.66 459.54 76.035V79.5H458.715V78.609C458.308 79.28 457.461 79.632 456.713 79.632C455.514 79.632 454.634 78.939 454.634 77.817C454.634 76.684 455.646 75.925 456.867 75.925C457.483 75.925 458.132 76.057 458.715 76.244V76.035C458.715 75.265 458.407 74.385 457.175 74.385C456.603 74.385 456.031 74.638 455.514 74.902L455.184 74.231C455.998 73.824 456.68 73.681 457.23 73.681ZM456.856 78.906C457.604 78.906 458.495 78.521 458.715 77.718V76.849C458.198 76.706 457.615 76.618 456.999 76.618C456.152 76.618 455.437 77.102 455.437 77.784C455.437 78.488 456.053 78.906 456.856 78.906ZM467.667 73.681C468.855 73.681 469.691 74.594 469.691 75.881V79.5H468.866V75.991C468.866 75.067 468.327 74.418 467.557 74.418C466.655 74.418 466.017 75.023 466.017 75.881V79.5H465.192V75.991C465.192 75.067 464.653 74.418 463.883 74.418C462.981 74.418 462.343 75.023 462.343 75.881V79.5H461.518V73.813H462.343V74.649C462.629 74.055 463.245 73.681 463.993 73.681C464.895 73.681 465.599 74.209 465.885 75.034C466.061 74.231 466.765 73.681 467.667 73.681ZM474.074 78.895C474.745 78.895 475.515 78.598 475.867 78.213L476.373 78.752C475.878 79.291 474.877 79.632 474.085 79.632C472.567 79.632 471.203 78.389 471.203 76.64C471.203 74.946 472.479 73.681 474.008 73.681C475.724 73.681 476.703 74.979 476.703 76.97H472.05C472.171 78.081 472.952 78.895 474.074 78.895ZM474.041 74.418C473.029 74.418 472.215 75.133 472.061 76.233H475.889C475.779 75.21 475.174 74.418 474.041 74.418Z" fill="#CBD4D8"/>
<path d="M251.829 114.643C250.308 114.643 248.995 114.123 248.007 113.2L248.956 112.043C249.775 112.784 250.724 113.252 251.894 113.252C252.986 113.252 253.558 112.706 253.558 112.069C253.558 111.328 252.921 111.081 251.491 110.743C249.645 110.314 248.371 109.781 248.371 108.104C248.371 106.544 249.697 105.413 251.569 105.413C252.986 105.413 254.065 105.894 254.949 106.661L254.065 107.844C253.298 107.181 252.401 106.804 251.517 106.804C250.607 106.804 250.009 107.337 250.009 107.961C250.009 108.689 250.659 108.949 252.076 109.274C253.935 109.69 255.183 110.288 255.183 111.913C255.183 113.512 253.974 114.643 251.829 114.643ZM259.668 113.382C260.344 113.382 261.111 113.096 261.54 112.68L262.45 113.616C261.865 114.24 260.695 114.656 259.72 114.656C257.783 114.656 256.184 113.187 256.184 111.12C256.184 109.092 257.705 107.623 259.629 107.623C261.709 107.623 262.931 109.157 262.931 111.601H257.718C257.887 112.654 258.628 113.382 259.668 113.382ZM259.642 108.897C258.68 108.897 257.939 109.547 257.731 110.548H261.397C261.254 109.599 260.656 108.897 259.642 108.897ZM264.246 114.5V105.413H265.832V114.5H264.246ZM270.703 113.382C271.379 113.382 272.146 113.096 272.575 112.68L273.485 113.616C272.9 114.24 271.73 114.656 270.755 114.656C268.818 114.656 267.219 113.187 267.219 111.12C267.219 109.092 268.74 107.623 270.664 107.623C272.744 107.623 273.966 109.157 273.966 111.601H268.753C268.922 112.654 269.663 113.382 270.703 113.382ZM270.677 108.897C269.715 108.897 268.974 109.547 268.766 110.548H272.432C272.289 109.599 271.691 108.897 270.677 108.897ZM278.362 114.656C276.412 114.656 274.761 113.044 274.761 111.133C274.761 109.222 276.412 107.623 278.375 107.623C279.402 107.623 280.286 108.052 280.923 108.715L279.857 109.651C279.493 109.248 278.934 108.975 278.362 108.975C277.257 108.975 276.334 109.963 276.334 111.133C276.334 112.316 277.257 113.304 278.362 113.304C278.947 113.304 279.519 113.031 279.896 112.602L280.962 113.525C280.312 114.214 279.415 114.656 278.362 114.656ZM285.272 113.057L285.727 114.123C285.35 114.448 284.804 114.656 284.284 114.656C283.179 114.656 282.399 113.85 282.399 112.719V109.092H281.424V107.779H282.399V105.933H283.933V107.779H285.454V109.092H283.933V112.524C283.933 112.979 284.232 113.304 284.609 113.304C284.882 113.304 285.129 113.2 285.272 113.057ZM293.475 114.656C291.486 114.656 289.861 113.07 289.861 111.133C289.861 109.196 291.486 107.623 293.475 107.623C295.451 107.623 297.063 109.196 297.063 111.133C297.063 113.07 295.451 114.656 293.475 114.656ZM293.475 113.304C294.593 113.304 295.516 112.329 295.516 111.133C295.516 109.937 294.593 108.975 293.475 108.975C292.344 108.975 291.421 109.937 291.421 111.133C291.421 112.329 292.344 113.304 293.475 113.304ZM302.344 107.623C304.125 107.623 305.425 109.079 305.425 111.133C305.425 113.2 304.125 114.656 302.344 114.656C301.356 114.656 300.55 114.214 300.017 113.46V116.736H298.431V107.779H300.017V108.819C300.55 108.065 301.356 107.623 302.344 107.623ZM301.915 113.304C303.046 113.304 303.852 112.394 303.852 111.133C303.852 109.872 303.046 108.975 301.915 108.975C300.797 108.975 300.017 109.872 300.017 111.133C300.017 112.394 300.797 113.304 301.915 113.304ZM309.996 113.057L310.451 114.123C310.074 114.448 309.528 114.656 309.008 114.656C307.903 114.656 307.123 113.85 307.123 112.719V109.092H306.148V107.779H307.123V105.933H308.657V107.779H310.178V109.092H308.657V112.524C308.657 112.979 308.956 113.304 309.333 113.304C309.606 113.304 309.853 113.2 309.996 113.057ZM312.443 106.765C311.936 106.765 311.533 106.336 311.533 105.855C311.533 105.374 311.936 104.958 312.443 104.958C312.937 104.958 313.34 105.374 313.34 105.855C313.34 106.336 312.937 106.765 312.443 106.765ZM311.65 114.5V107.779H313.236V114.5H311.65ZM318.211 114.656C316.222 114.656 314.597 113.07 314.597 111.133C314.597 109.196 316.222 107.623 318.211 107.623C320.187 107.623 321.799 109.196 321.799 111.133C321.799 113.07 320.187 114.656 318.211 114.656ZM318.211 113.304C319.329 113.304 320.252 112.329 320.252 111.133C320.252 109.937 319.329 108.975 318.211 108.975C317.08 108.975 316.157 109.937 316.157 111.133C316.157 112.329 317.08 113.304 318.211 113.304ZM326.834 107.623C328.316 107.623 329.343 108.689 329.343 110.223V114.5H327.796V110.535C327.796 109.612 327.224 108.975 326.392 108.975C325.482 108.975 324.754 109.612 324.754 110.431V114.5H323.168V107.779H324.754V108.689C325.157 108.052 325.937 107.623 326.834 107.623ZM333.406 114.656C332.379 114.656 331.274 114.292 330.455 113.655L331.131 112.615C331.859 113.135 332.704 113.434 333.432 113.434C334.147 113.434 334.576 113.135 334.576 112.667C334.576 112.134 333.952 111.952 333.159 111.744C331.69 111.354 330.767 110.951 330.767 109.729C330.767 108.481 331.807 107.623 333.302 107.623C334.225 107.623 335.135 107.948 335.876 108.429L335.252 109.495C334.628 109.092 333.926 108.832 333.302 108.832C332.717 108.832 332.249 109.105 332.249 109.573C332.249 110.015 332.665 110.132 333.679 110.444C334.823 110.756 336.045 111.133 336.045 112.524C336.045 113.824 334.966 114.656 333.406 114.656Z" fill="#ACB8BE"/>
<path d="M380.804 116.656C378.334 116.656 376.228 114.537 376.228 112.028C376.228 109.519 378.334 107.413 380.804 107.413C383.287 107.413 385.367 109.519 385.367 112.028C385.367 114.537 383.287 116.656 380.804 116.656ZM380.804 115.72C382.728 115.72 384.34 114.03 384.34 112.028C384.34 110.039 382.728 108.349 380.804 108.349C378.88 108.349 377.255 110.039 377.255 112.028C377.255 114.03 378.88 115.72 380.804 115.72ZM390.563 109.623C392.331 109.623 393.657 111.079 393.657 113.133C393.657 115.2 392.331 116.656 390.563 116.656C389.484 116.656 388.626 116.123 388.119 115.239V118.736H387.144V109.779H388.119V111.04C388.626 110.156 389.484 109.623 390.563 109.623ZM390.381 115.785C391.694 115.785 392.63 114.68 392.63 113.133C392.63 111.586 391.694 110.494 390.381 110.494C389.055 110.494 388.119 111.586 388.119 113.133C388.119 114.68 389.055 115.785 390.381 115.785ZM397.896 115.512L398.377 116.227C398.026 116.5 397.584 116.656 397.129 116.656C396.167 116.656 395.491 115.941 395.491 114.94V110.65H394.438V109.779H395.491V107.933H396.466V109.779H398.117V110.65H396.466V114.94C396.466 115.434 396.804 115.785 397.194 115.785C397.493 115.785 397.753 115.668 397.896 115.512ZM400.172 108.557C399.808 108.557 399.522 108.258 399.522 107.907C399.522 107.569 399.808 107.27 400.172 107.27C400.523 107.27 400.809 107.569 400.809 107.907C400.809 108.258 400.523 108.557 400.172 108.557ZM399.678 116.5V109.779H400.653V116.5H399.678ZM405.701 116.656C403.79 116.656 402.23 115.07 402.23 113.133C402.23 111.196 403.79 109.623 405.701 109.623C407.599 109.623 409.159 111.196 409.159 113.133C409.159 115.07 407.599 116.656 405.701 116.656ZM405.701 115.785C407.04 115.785 408.145 114.589 408.145 113.133C408.145 111.677 407.04 110.494 405.701 110.494C404.349 110.494 403.244 111.677 403.244 113.133C403.244 114.589 404.349 115.785 405.701 115.785ZM413.923 109.623C415.418 109.623 416.445 110.676 416.445 112.223V116.5H415.47V112.353C415.47 111.248 414.781 110.494 413.793 110.494C412.649 110.494 411.713 111.274 411.713 112.223V116.5H410.738V109.779H411.713V110.845C412.103 110.13 412.961 109.623 413.923 109.623ZM426.099 116.656C423.629 116.656 421.523 114.537 421.523 112.028C421.523 109.519 423.629 107.413 426.099 107.413C428.582 107.413 430.662 109.519 430.662 112.028C430.662 114.537 428.582 116.656 426.099 116.656ZM426.099 115.72C428.023 115.72 429.635 114.03 429.635 112.028C429.635 110.039 428.023 108.349 426.099 108.349C424.175 108.349 422.55 110.039 422.55 112.028C422.55 114.03 424.175 115.72 426.099 115.72ZM435.624 109.623C437.119 109.623 438.146 110.676 438.146 112.223V116.5H437.171V112.353C437.171 111.248 436.482 110.494 435.494 110.494C434.35 110.494 433.414 111.274 433.414 112.223V116.5H432.439V109.779H433.414V110.845C433.804 110.13 434.662 109.623 435.624 109.623ZM442.981 115.785C443.774 115.785 444.684 115.434 445.1 114.979L445.698 115.616C445.113 116.253 443.93 116.656 442.994 116.656C441.2 116.656 439.588 115.187 439.588 113.12C439.588 111.118 441.096 109.623 442.903 109.623C444.931 109.623 446.088 111.157 446.088 113.51H440.589C440.732 114.823 441.655 115.785 442.981 115.785ZM442.942 110.494C441.746 110.494 440.784 111.339 440.602 112.639H445.126C444.996 111.43 444.281 110.494 442.942 110.494Z" fill="#ACB8BE"/>
<path d="M590.62 110.492L585.5 115.789L580.38 110.492C580.09 110.191 580.099 109.712 580.4 109.423C580.701 109.133 581.179 109.142 581.469 109.443L585.5 113.616L589.536 109.443C589.825 109.142 590.304 109.133 590.604 109.423C590.905 109.712 590.914 110.191 590.624 110.492H590.62Z" fill="#CBD4D8"/>
<path d="M601.5 123.5H367.5V125.5H601.5V123.5Z" fill="#CBD4D8" mask="url(#path-7-inside-2_8990_25680)"/>
<path d="M370.987 139.621C369.744 139.621 368.765 139.17 368.006 138.422L368.545 137.751C369.183 138.389 369.964 138.84 371.02 138.84C372.186 138.84 372.78 138.202 372.78 137.52C372.78 136.717 372.065 136.398 370.745 136.09C369.227 135.738 368.27 135.265 368.27 133.956C368.27 132.746 369.348 131.811 370.8 131.811C371.922 131.811 372.758 132.251 373.451 132.889L372.923 133.56C372.296 132.955 371.548 132.592 370.756 132.592C369.821 132.592 369.139 133.197 369.139 133.89C369.139 134.671 369.887 134.946 371.174 135.254C372.615 135.595 373.649 136.112 373.649 137.443C373.649 138.642 372.747 139.621 370.987 139.621ZM377.79 138.895C378.461 138.895 379.231 138.598 379.583 138.213L380.089 138.752C379.594 139.291 378.593 139.632 377.801 139.632C376.283 139.632 374.919 138.389 374.919 136.64C374.919 134.946 376.195 133.681 377.724 133.681C379.44 133.681 380.419 134.979 380.419 136.97H375.766C375.887 138.081 376.668 138.895 377.79 138.895ZM377.757 134.418C376.745 134.418 375.931 135.133 375.777 136.233H379.605C379.495 135.21 378.89 134.418 377.757 134.418ZM382.005 139.5V131.811H382.83V139.5H382.005ZM387.343 138.895C388.014 138.895 388.784 138.598 389.136 138.213L389.642 138.752C389.147 139.291 388.146 139.632 387.354 139.632C385.836 139.632 384.472 138.389 384.472 136.64C384.472 134.946 385.748 133.681 387.277 133.681C388.993 133.681 389.972 134.979 389.972 136.97H385.319C385.44 138.081 386.221 138.895 387.343 138.895ZM387.31 134.418C386.298 134.418 385.484 135.133 385.33 136.233H389.158C389.048 135.21 388.443 134.418 387.31 134.418ZM394 139.632C392.405 139.632 391.052 138.268 391.052 136.651C391.052 135.034 392.405 133.681 394 133.681C394.77 133.681 395.485 134 396.024 134.517L395.452 135.078C395.078 134.671 394.561 134.418 394 134.418C392.867 134.418 391.921 135.441 391.921 136.651C391.921 137.872 392.867 138.895 394 138.895C394.572 138.895 395.1 138.631 395.485 138.202L396.057 138.763C395.518 139.302 394.792 139.632 394 139.632ZM399.662 138.664L400.069 139.269C399.772 139.5 399.398 139.632 399.013 139.632C398.199 139.632 397.627 139.027 397.627 138.18V134.55H396.736V133.813H397.627V132.251H398.452V133.813H399.849V134.55H398.452V138.18C398.452 138.598 398.738 138.895 399.068 138.895C399.321 138.895 399.541 138.796 399.662 138.664ZM407.125 139.632C405.508 139.632 404.188 138.29 404.188 136.651C404.188 135.012 405.508 133.681 407.125 133.681C408.731 133.681 410.051 135.012 410.051 136.651C410.051 138.29 408.731 139.632 407.125 139.632ZM407.125 138.895C408.258 138.895 409.193 137.883 409.193 136.651C409.193 135.419 408.258 134.418 407.125 134.418C405.981 134.418 405.046 135.419 405.046 136.651C405.046 137.883 405.981 138.895 407.125 138.895ZM414.367 133.681C415.632 133.681 416.501 134.572 416.501 135.881V139.5H415.676V135.991C415.676 135.056 415.093 134.418 414.257 134.418C413.289 134.418 412.497 135.078 412.497 135.881V139.5H411.672V133.813H412.497V134.715C412.827 134.11 413.553 133.681 414.367 133.681ZM420.877 138.895C421.548 138.895 422.318 138.598 422.67 138.213L423.176 138.752C422.681 139.291 421.68 139.632 420.888 139.632C419.37 139.632 418.006 138.389 418.006 136.64C418.006 134.946 419.282 133.681 420.811 133.681C422.527 133.681 423.506 134.979 423.506 136.97H418.853C418.974 138.081 419.755 138.895 420.877 138.895ZM420.844 134.418C419.832 134.418 419.018 135.133 418.864 136.233H422.692C422.582 135.21 421.977 134.418 420.844 134.418ZM430.763 139.632C429.146 139.632 427.826 138.29 427.826 136.651C427.826 135.012 429.146 133.681 430.763 133.681C432.369 133.681 433.689 135.012 433.689 136.651C433.689 138.29 432.369 139.632 430.763 139.632ZM430.763 138.895C431.896 138.895 432.831 137.883 432.831 136.651C432.831 135.419 431.896 134.418 430.763 134.418C429.619 134.418 428.684 135.419 428.684 136.651C428.684 137.883 429.619 138.895 430.763 138.895ZM438.203 133.681C439.699 133.681 440.821 134.913 440.821 136.651C440.821 138.4 439.699 139.632 438.203 139.632C437.29 139.632 436.564 139.181 436.135 138.433V141.392H435.31V133.813H436.135V134.88C436.564 134.132 437.29 133.681 438.203 133.681ZM438.049 138.895C439.16 138.895 439.952 137.96 439.952 136.651C439.952 135.342 439.16 134.418 438.049 134.418C436.927 134.418 436.135 135.342 436.135 136.651C436.135 137.96 436.927 138.895 438.049 138.895ZM444.693 138.664L445.1 139.269C444.803 139.5 444.429 139.632 444.044 139.632C443.23 139.632 442.658 139.027 442.658 138.18V134.55H441.767V133.813H442.658V132.251H443.483V133.813H444.88V134.55H443.483V138.18C443.483 138.598 443.769 138.895 444.099 138.895C444.352 138.895 444.572 138.796 444.693 138.664ZM446.903 132.779C446.595 132.779 446.353 132.526 446.353 132.229C446.353 131.943 446.595 131.69 446.903 131.69C447.2 131.69 447.442 131.943 447.442 132.229C447.442 132.526 447.2 132.779 446.903 132.779ZM446.485 139.5V133.813H447.31V139.5H446.485ZM451.866 139.632C450.249 139.632 448.929 138.29 448.929 136.651C448.929 135.012 450.249 133.681 451.866 133.681C453.472 133.681 454.792 135.012 454.792 136.651C454.792 138.29 453.472 139.632 451.866 139.632ZM451.866 138.895C452.999 138.895 453.934 137.883 453.934 136.651C453.934 135.419 452.999 134.418 451.866 134.418C450.722 134.418 449.787 135.419 449.787 136.651C449.787 137.883 450.722 138.895 451.866 138.895ZM459.108 133.681C460.373 133.681 461.242 134.572 461.242 135.881V139.5H460.417V135.991C460.417 135.056 459.834 134.418 458.998 134.418C458.03 134.418 457.238 135.078 457.238 135.881V139.5H456.413V133.813H457.238V134.715C457.568 134.11 458.294 133.681 459.108 133.681Z" fill="#CBD4D8"/>
<path d="M248.735 174.5V165.569H253.116C254.663 165.569 255.742 166.505 255.742 167.805C255.742 168.715 255.274 169.352 254.481 169.781C255.508 170.275 256.119 171.094 256.119 172.069C256.119 173.499 254.936 174.5 253.272 174.5H248.735ZM250.347 169.222H252.713C253.506 169.222 254.078 168.754 254.078 168.104C254.078 167.441 253.506 166.973 252.713 166.973H250.347V169.222ZM250.347 173.096H252.96C253.831 173.096 254.455 172.563 254.455 171.822C254.455 171.081 253.831 170.548 252.96 170.548H250.347V173.096ZM258.474 166.765C257.967 166.765 257.564 166.336 257.564 165.855C257.564 165.374 257.967 164.958 258.474 164.958C258.968 164.958 259.371 165.374 259.371 165.855C259.371 166.336 258.968 166.765 258.474 166.765ZM257.681 174.5V167.779H259.267V174.5H257.681ZM264.242 174.656C262.253 174.656 260.628 173.07 260.628 171.133C260.628 169.196 262.253 167.623 264.242 167.623C266.218 167.623 267.83 169.196 267.83 171.133C267.83 173.07 266.218 174.656 264.242 174.656ZM264.242 173.304C265.36 173.304 266.283 172.329 266.283 171.133C266.283 169.937 265.36 168.975 264.242 168.975C263.111 168.975 262.188 169.937 262.188 171.133C262.188 172.329 263.111 173.304 264.242 173.304ZM275.799 173.057L276.254 174.123C275.877 174.448 275.331 174.656 274.811 174.656C273.706 174.656 272.926 173.85 272.926 172.719V169.092H271.951V167.779H272.926V165.933H274.46V167.779H275.981V169.092H274.46V172.524C274.46 172.979 274.759 173.304 275.136 173.304C275.409 173.304 275.656 173.2 275.799 173.057ZM280.444 173.382C281.12 173.382 281.887 173.096 282.316 172.68L283.226 173.616C282.641 174.24 281.471 174.656 280.496 174.656C278.559 174.656 276.96 173.187 276.96 171.12C276.96 169.092 278.481 167.623 280.405 167.623C282.485 167.623 283.707 169.157 283.707 171.601H278.494C278.663 172.654 279.404 173.382 280.444 173.382ZM280.418 168.897C279.456 168.897 278.715 169.547 278.507 170.548H282.173C282.03 169.599 281.432 168.897 280.418 168.897ZM290.963 174.5H289.208L287.57 172.251L285.919 174.5H284.19L286.712 171.068L284.307 167.779H286.049L287.583 169.872L289.117 167.779H290.846L288.441 171.055L290.963 174.5ZM295.152 173.057L295.607 174.123C295.23 174.448 294.684 174.656 294.164 174.656C293.059 174.656 292.279 173.85 292.279 172.719V169.092H291.304V167.779H292.279V165.933H293.813V167.779H295.334V169.092H293.813V172.524C293.813 172.979 294.112 173.304 294.489 173.304C294.762 173.304 295.009 173.2 295.152 173.057ZM299.497 167.623C301.278 167.623 302.37 168.754 302.37 170.457V174.5H300.823V173.707C300.329 174.318 299.497 174.656 298.717 174.656C297.287 174.656 296.221 173.811 296.221 172.511C296.221 171.185 297.43 170.275 298.951 170.275C299.562 170.275 300.212 170.405 300.823 170.626V170.457C300.823 169.677 300.407 168.923 299.185 168.923C298.548 168.923 297.937 169.144 297.365 169.43L296.819 168.325C297.768 167.857 298.652 167.623 299.497 167.623ZM299.068 173.499C299.835 173.499 300.654 173.109 300.823 172.394V171.627C300.329 171.471 299.77 171.38 299.185 171.38C298.392 171.38 297.742 171.822 297.742 172.459C297.742 173.096 298.314 173.499 299.068 173.499ZM305.694 169.053C306.123 168.182 307.007 167.623 308.099 167.623V168.975C306.656 168.975 305.694 169.833 305.694 171.107V174.5H304.108V167.779H305.694V169.053ZM312.431 173.382C313.107 173.382 313.874 173.096 314.303 172.68L315.213 173.616C314.628 174.24 313.458 174.656 312.483 174.656C310.546 174.656 308.947 173.187 308.947 171.12C308.947 169.092 310.468 167.623 312.392 167.623C314.472 167.623 315.694 169.157 315.694 171.601H310.481C310.65 172.654 311.391 173.382 312.431 173.382ZM312.405 168.897C311.443 168.897 310.702 169.547 310.494 170.548H314.16C314.017 169.599 313.419 168.897 312.405 168.897ZM319.7 167.623C321.481 167.623 322.573 168.754 322.573 170.457V174.5H321.026V173.707C320.532 174.318 319.7 174.656 318.92 174.656C317.49 174.656 316.424 173.811 316.424 172.511C316.424 171.185 317.633 170.275 319.154 170.275C319.765 170.275 320.415 170.405 321.026 170.626V170.457C321.026 169.677 320.61 168.923 319.388 168.923C318.751 168.923 318.14 169.144 317.568 169.43L317.022 168.325C317.971 167.857 318.855 167.623 319.7 167.623ZM319.271 173.499C320.038 173.499 320.857 173.109 321.026 172.394V171.627C320.532 171.471 319.973 171.38 319.388 171.38C318.595 171.38 317.945 171.822 317.945 172.459C317.945 173.096 318.517 173.499 319.271 173.499Z" fill="#ACB8BE"/>
<path d="M371.5 161H676.5C678.433 161 680 162.567 680 164.5V227.5C680 229.433 678.433 231 676.5 231H371.5C369.567 231 368 229.433 368 227.5V164.5C368 162.567 369.567 161 371.5 161Z" fill="#22343C"/>
<path d="M371.5 161H676.5C678.433 161 680 162.567 680 164.5V227.5C680 229.433 678.433 231 676.5 231H371.5C369.567 231 368 229.433 368 227.5V164.5C368 162.567 369.567 161 371.5 161Z" stroke="#CBD4D8"/>
<path d="M370.316 250.5V243.757H367.775V242.943H373.715V243.757H371.174V250.5H370.316ZM377.543 249.895C378.214 249.895 378.984 249.598 379.336 249.213L379.842 249.752C379.347 250.291 378.346 250.632 377.554 250.632C376.036 250.632 374.672 249.389 374.672 247.64C374.672 245.946 375.948 244.681 377.477 244.681C379.193 244.681 380.172 245.979 380.172 247.97H375.519C375.64 249.081 376.421 249.895 377.543 249.895ZM377.51 245.418C376.498 245.418 375.684 246.133 375.53 247.233H379.358C379.248 246.21 378.643 245.418 377.51 245.418ZM381.758 250.5V242.811H382.583V250.5H381.758ZM384.698 250.5V242.811H385.523V250.5H384.698ZM394.738 244.813H395.563V250.5H394.738V249.598C394.408 250.203 393.682 250.632 392.868 250.632C391.603 250.632 390.734 249.741 390.734 248.432V244.813H391.559V248.322C391.559 249.257 392.142 249.895 392.978 249.895C393.946 249.895 394.738 249.235 394.738 248.432V244.813ZM399.433 250.632C398.641 250.632 397.761 250.335 397.079 249.785L397.508 249.18C398.157 249.653 398.806 249.895 399.433 249.895C400.181 249.895 400.687 249.543 400.687 249.004C400.687 248.388 400.027 248.19 399.257 247.97C397.882 247.574 397.354 247.167 397.354 246.353C397.354 245.319 398.212 244.681 399.345 244.681C400.049 244.681 400.775 244.923 401.38 245.319L400.984 245.957C400.412 245.594 399.851 245.418 399.345 245.418C398.707 245.418 398.179 245.704 398.179 246.254C398.179 246.749 398.597 246.903 399.653 247.244C400.566 247.53 401.512 247.838 401.512 248.916C401.512 249.961 400.61 250.632 399.433 250.632ZM408.39 244.681C409.941 244.681 410.7 245.66 410.7 247.035V250.5H409.875V249.609C409.468 250.28 408.621 250.632 407.873 250.632C406.674 250.632 405.794 249.939 405.794 248.817C405.794 247.684 406.806 246.925 408.027 246.925C408.643 246.925 409.292 247.057 409.875 247.244V247.035C409.875 246.265 409.567 245.385 408.335 245.385C407.763 245.385 407.191 245.638 406.674 245.902L406.344 245.231C407.158 244.824 407.84 244.681 408.39 244.681ZM408.016 249.906C408.764 249.906 409.655 249.521 409.875 248.718V247.849C409.358 247.706 408.775 247.618 408.159 247.618C407.312 247.618 406.597 248.102 406.597 248.784C406.597 249.488 407.213 249.906 408.016 249.906ZM415.571 244.681C417.067 244.681 418.189 245.913 418.189 247.651C418.189 249.4 417.067 250.632 415.571 250.632C414.658 250.632 413.932 250.181 413.503 249.433V250.5H412.678V242.811H413.503V245.88C413.932 245.132 414.658 244.681 415.571 244.681ZM415.417 249.895C416.528 249.895 417.32 248.96 417.32 247.651C417.32 246.342 416.528 245.418 415.417 245.418C414.295 245.418 413.503 246.342 413.503 247.651C413.503 248.96 414.295 249.895 415.417 249.895ZM422.302 250.632C420.685 250.632 419.365 249.29 419.365 247.651C419.365 246.012 420.685 244.681 422.302 244.681C423.908 244.681 425.228 246.012 425.228 247.651C425.228 249.29 423.908 250.632 422.302 250.632ZM422.302 249.895C423.435 249.895 424.37 248.883 424.37 247.651C424.37 246.419 423.435 245.418 422.302 245.418C421.158 245.418 420.223 246.419 420.223 247.651C420.223 248.883 421.158 249.895 422.302 249.895ZM430.721 244.813H431.546V250.5H430.721V249.598C430.391 250.203 429.665 250.632 428.851 250.632C427.586 250.632 426.717 249.741 426.717 248.432V244.813H427.542V248.322C427.542 249.257 428.125 249.895 428.961 249.895C429.929 249.895 430.721 249.235 430.721 248.432V244.813ZM435.856 249.664L436.263 250.269C435.966 250.5 435.592 250.632 435.207 250.632C434.393 250.632 433.821 250.027 433.821 249.18V245.55H432.93V244.813H433.821V243.251H434.646V244.813H436.043V245.55H434.646V249.18C434.646 249.598 434.932 249.895 435.262 249.895C435.515 249.895 435.735 249.796 435.856 249.664ZM441.372 252.48C441.042 252.48 440.734 252.414 440.47 252.293L440.668 251.589C440.866 251.688 441.097 251.732 441.339 251.732C441.702 251.732 441.944 251.611 442.164 251.226L442.494 250.522L440.019 244.813H440.932L442.923 249.543L444.804 244.813H445.695L443.099 251.138C442.703 252.106 442.153 252.469 441.372 252.48ZM449.417 250.632C447.8 250.632 446.48 249.29 446.48 247.651C446.48 246.012 447.8 244.681 449.417 244.681C451.023 244.681 452.343 246.012 452.343 247.651C452.343 249.29 451.023 250.632 449.417 250.632ZM449.417 249.895C450.55 249.895 451.485 248.883 451.485 247.651C451.485 246.419 450.55 245.418 449.417 245.418C448.273 245.418 447.338 246.419 447.338 247.651C447.338 248.883 448.273 249.895 449.417 249.895ZM457.836 244.813H458.661V250.5H457.836V249.598C457.506 250.203 456.78 250.632 455.966 250.632C454.701 250.632 453.832 249.741 453.832 248.432V244.813H454.657V248.322C454.657 249.257 455.24 249.895 456.076 249.895C457.044 249.895 457.836 249.235 457.836 248.432V244.813ZM461.595 245.924C461.936 245.165 462.75 244.681 463.795 244.681V245.418C462.508 245.418 461.595 246.21 461.595 247.321V250.5H460.77V244.813H461.595V245.924ZM467.091 250.632C466.299 250.632 465.419 250.335 464.737 249.785L465.166 249.18C465.815 249.653 466.464 249.895 467.091 249.895C467.839 249.895 468.345 249.543 468.345 249.004C468.345 248.388 467.685 248.19 466.915 247.97C465.54 247.574 465.012 247.167 465.012 246.353C465.012 245.319 465.87 244.681 467.003 244.681C467.707 244.681 468.433 244.923 469.038 245.319L468.642 245.957C468.07 245.594 467.509 245.418 467.003 245.418C466.365 245.418 465.837 245.704 465.837 246.254C465.837 246.749 466.255 246.903 467.311 247.244C468.224 247.53 469.17 247.838 469.17 248.916C469.17 249.961 468.268 250.632 467.091 250.632ZM473.182 249.895C473.853 249.895 474.623 249.598 474.975 249.213L475.481 249.752C474.986 250.291 473.985 250.632 473.193 250.632C471.675 250.632 470.311 249.389 470.311 247.64C470.311 245.946 471.587 244.681 473.116 244.681C474.832 244.681 475.811 245.979 475.811 247.97H471.158C471.279 249.081 472.06 249.895 473.182 249.895ZM473.149 245.418C472.137 245.418 471.323 246.133 471.169 247.233H474.997C474.887 246.21 474.282 245.418 473.149 245.418ZM477.397 250.5V242.811H478.222V250.5H477.397ZM481.36 244.032V244.813H482.757V245.55H481.36V250.5H480.535V245.55H479.644V244.813H480.535V244.032C480.535 243.185 481.107 242.58 481.921 242.58C482.306 242.58 482.68 242.712 482.977 242.943L482.57 243.548C482.449 243.416 482.229 243.317 481.976 243.317C481.646 243.317 481.36 243.614 481.36 244.032Z" fill="#CBD4D8"/>
<path d="M255.963 279.533C255.963 280.976 254.975 282.068 253.545 282.393L255.729 285.5H253.883L251.777 282.497H250.347V285.5H248.735V276.569H252.622C254.52 276.569 255.963 277.791 255.963 279.533ZM250.347 278.064V281.002H252.427C253.532 281.002 254.299 280.443 254.299 279.533C254.299 278.623 253.532 278.064 252.427 278.064H250.347ZM260.481 284.382C261.157 284.382 261.924 284.096 262.353 283.68L263.263 284.616C262.678 285.24 261.508 285.656 260.533 285.656C258.596 285.656 256.997 284.187 256.997 282.12C256.997 280.092 258.518 278.623 260.442 278.623C262.522 278.623 263.744 280.157 263.744 282.601H258.531C258.7 283.654 259.441 284.382 260.481 284.382ZM260.455 279.897C259.493 279.897 258.752 280.547 258.544 281.548H262.21C262.067 280.599 261.469 279.897 260.455 279.897ZM269.869 278.779H271.468V284.785C271.468 286.514 270.012 287.736 267.958 287.736C266.801 287.736 265.722 287.359 265.072 286.839L265.657 285.682C266.125 286.111 266.918 286.384 267.711 286.384C269.037 286.384 269.869 285.747 269.869 284.733V283.875C269.336 284.59 268.517 285.006 267.568 285.006C265.839 285.006 264.552 283.68 264.552 281.808C264.552 279.936 265.839 278.623 267.568 278.623C268.53 278.623 269.388 279.065 269.869 279.767V278.779ZM268.023 283.654C269.102 283.654 269.869 282.887 269.869 281.808C269.869 280.742 269.102 279.975 268.023 279.975C266.957 279.975 266.19 280.742 266.19 281.808C266.19 282.887 266.957 283.654 268.023 283.654ZM274.118 277.765C273.611 277.765 273.208 277.336 273.208 276.855C273.208 276.374 273.611 275.958 274.118 275.958C274.612 275.958 275.015 276.374 275.015 276.855C275.015 277.336 274.612 277.765 274.118 277.765ZM273.325 285.5V278.779H274.911V285.5H273.325ZM279.886 285.656C277.897 285.656 276.272 284.07 276.272 282.133C276.272 280.196 277.897 278.623 279.886 278.623C281.862 278.623 283.474 280.196 283.474 282.133C283.474 284.07 281.862 285.656 279.886 285.656ZM279.886 284.304C281.004 284.304 281.927 283.329 281.927 282.133C281.927 280.937 281.004 279.975 279.886 279.975C278.755 279.975 277.832 280.937 277.832 282.133C277.832 283.329 278.755 284.304 279.886 284.304ZM288.508 278.623C289.99 278.623 291.017 279.689 291.017 281.223V285.5H289.47V281.535C289.47 280.612 288.898 279.975 288.066 279.975C287.156 279.975 286.428 280.612 286.428 281.431V285.5H284.842V278.779H286.428V279.689C286.831 279.052 287.611 278.623 288.508 278.623Z" fill="#ACB8BE"/>
<path d="M380.5 283.5C380.5 286.261 378.261 288.5 375.5 288.5C372.739 288.5 370.5 286.261 370.5 283.5C370.5 280.739 372.739 278.5 375.5 278.5C378.261 278.5 380.5 280.739 380.5 283.5Z" fill="#1B2B32" stroke="#2EC0FF" stroke-width="6"/>
<path d="M392.917 287.5V278.569H393.931L399.469 285.836V278.569H400.483V287.5H399.469L393.931 280.233V287.5H392.917ZM405.814 287.656C403.903 287.656 402.343 286.07 402.343 284.133C402.343 282.196 403.903 280.623 405.814 280.623C407.712 280.623 409.272 282.196 409.272 284.133C409.272 286.07 407.712 287.656 405.814 287.656ZM405.814 286.785C407.153 286.785 408.258 285.589 408.258 284.133C408.258 282.677 407.153 281.494 405.814 281.494C404.462 281.494 403.357 282.677 403.357 284.133C403.357 285.589 404.462 286.785 405.814 286.785ZM411.827 282.092C412.23 281.195 413.192 280.623 414.427 280.623V281.494C412.906 281.494 411.827 282.43 411.827 283.743V287.5H410.852V280.779H411.827V282.092ZM418.506 286.512L418.987 287.227C418.636 287.5 418.194 287.656 417.739 287.656C416.777 287.656 416.101 286.941 416.101 285.94V281.65H415.048V280.779H416.101V278.933H417.076V280.779H418.727V281.65H417.076V285.94C417.076 286.434 417.414 286.785 417.804 286.785C418.103 286.785 418.363 286.668 418.506 286.512ZM423.473 280.623C424.968 280.623 425.995 281.676 425.995 283.223V287.5H425.02V283.353C425.02 282.248 424.331 281.494 423.343 281.494C422.199 281.494 421.263 282.274 421.263 283.223V287.5H420.288V278.413H421.263V281.845C421.653 281.13 422.511 280.623 423.473 280.623ZM438.547 287.5L437.65 285.472H432.671L431.774 287.5H430.669L434.608 278.569H435.713L439.652 287.5H438.547ZM433.087 284.51H437.234L435.167 279.817L433.087 284.51ZM448.278 280.623C449.682 280.623 450.67 281.702 450.67 283.223V287.5H449.695V283.353C449.695 282.261 449.058 281.494 448.148 281.494C447.082 281.494 446.328 282.209 446.328 283.223V287.5H445.353V283.353C445.353 282.261 444.716 281.494 443.806 281.494C442.74 281.494 441.986 282.209 441.986 283.223V287.5H441.011V280.779H441.986V281.767C442.324 281.065 443.052 280.623 443.936 280.623C445.002 280.623 445.834 281.247 446.172 282.222C446.38 281.273 447.212 280.623 448.278 280.623ZM455.514 286.785C456.307 286.785 457.217 286.434 457.633 285.979L458.231 286.616C457.646 287.253 456.463 287.656 455.527 287.656C453.733 287.656 452.121 286.187 452.121 284.12C452.121 282.118 453.629 280.623 455.436 280.623C457.464 280.623 458.621 282.157 458.621 284.51H453.122C453.265 285.823 454.188 286.785 455.514 286.785ZM455.475 281.494C454.279 281.494 453.317 282.339 453.135 283.639H457.659C457.529 282.43 456.814 281.494 455.475 281.494ZM461.134 282.092C461.537 281.195 462.499 280.623 463.734 280.623V281.494C462.213 281.494 461.134 282.43 461.134 283.743V287.5H460.159V280.779H461.134V282.092ZM465.707 279.557C465.343 279.557 465.057 279.258 465.057 278.907C465.057 278.569 465.343 278.27 465.707 278.27C466.058 278.27 466.344 278.569 466.344 278.907C466.344 279.258 466.058 279.557 465.707 279.557ZM465.213 287.5V280.779H466.188V287.5H465.213ZM471.236 287.656C469.351 287.656 467.752 286.044 467.752 284.133C467.752 282.222 469.351 280.623 471.236 280.623C472.146 280.623 472.991 281 473.628 281.611L472.952 282.274C472.51 281.793 471.899 281.494 471.236 281.494C469.897 281.494 468.779 282.703 468.779 284.133C468.779 285.576 469.897 286.785 471.236 286.785C471.912 286.785 472.536 286.473 472.991 285.966L473.667 286.629C473.03 287.266 472.172 287.656 471.236 287.656ZM477.397 280.623C479.23 280.623 480.127 281.78 480.127 283.405V287.5H479.152V286.447C478.671 287.24 477.67 287.656 476.786 287.656C475.369 287.656 474.329 286.837 474.329 285.511C474.329 284.172 475.525 283.275 476.968 283.275C477.696 283.275 478.463 283.431 479.152 283.652V283.405C479.152 282.495 478.788 281.455 477.332 281.455C476.656 281.455 475.98 281.754 475.369 282.066L474.979 281.273C475.941 280.792 476.747 280.623 477.397 280.623ZM476.955 286.798C477.839 286.798 478.892 286.343 479.152 285.394V284.367C478.541 284.198 477.852 284.094 477.124 284.094C476.123 284.094 475.278 284.666 475.278 285.472C475.278 286.304 476.006 286.798 476.955 286.798Z" fill="#E3EAED"/>
<path d="M383 307.5C383 311.642 379.642 315 375.5 315C371.358 315 368 311.642 368 307.5C368 303.358 371.358 300 375.5 300C379.642 300 383 303.358 383 307.5Z" fill="#1B2B32" stroke="#CBD4D8"/>
<path d="M395.621 311.643C394.152 311.643 392.995 311.11 392.098 310.226L392.735 309.433C393.489 310.187 394.412 310.72 395.66 310.72C397.038 310.72 397.74 309.966 397.74 309.16C397.74 308.211 396.895 307.834 395.335 307.47C393.541 307.054 392.41 306.495 392.41 304.948C392.41 303.518 393.684 302.413 395.4 302.413C396.726 302.413 397.714 302.933 398.533 303.687L397.909 304.48C397.168 303.765 396.284 303.336 395.348 303.336C394.243 303.336 393.437 304.051 393.437 304.87C393.437 305.793 394.321 306.118 395.842 306.482C397.545 306.885 398.767 307.496 398.767 309.069C398.767 310.486 397.701 311.643 395.621 311.643ZM403.377 311.656C401.466 311.656 399.906 310.07 399.906 308.133C399.906 306.196 401.466 304.623 403.377 304.623C405.275 304.623 406.835 306.196 406.835 308.133C406.835 310.07 405.275 311.656 403.377 311.656ZM403.377 310.785C404.716 310.785 405.821 309.589 405.821 308.133C405.821 306.677 404.716 305.494 403.377 305.494C402.025 305.494 400.92 306.677 400.92 308.133C400.92 309.589 402.025 310.785 403.377 310.785ZM412.99 304.779H413.965V311.5H412.99V310.434C412.6 311.149 411.742 311.656 410.78 311.656C409.285 311.656 408.258 310.603 408.258 309.056V304.779H409.233V308.926C409.233 310.031 409.922 310.785 410.91 310.785C412.054 310.785 412.99 310.005 412.99 309.056V304.779ZM418.722 310.512L419.203 311.227C418.852 311.5 418.41 311.656 417.955 311.656C416.993 311.656 416.317 310.941 416.317 309.94V305.65H415.264V304.779H416.317V302.933H417.292V304.779H418.943V305.65H417.292V309.94C417.292 310.434 417.63 310.785 418.02 310.785C418.319 310.785 418.579 310.668 418.722 310.512ZM423.688 304.623C425.183 304.623 426.21 305.676 426.21 307.223V311.5H425.235V307.353C425.235 306.248 424.546 305.494 423.558 305.494C422.414 305.494 421.478 306.274 421.478 307.223V311.5H420.503V302.413H421.478V305.845C421.868 305.13 422.726 304.623 423.688 304.623ZM438.763 311.5L437.866 309.472H432.887L431.99 311.5H430.885L434.824 302.569H435.929L439.868 311.5H438.763ZM433.303 308.51H437.45L435.383 303.817L433.303 308.51ZM448.494 304.623C449.898 304.623 450.886 305.702 450.886 307.223V311.5H449.911V307.353C449.911 306.261 449.274 305.494 448.364 305.494C447.298 305.494 446.544 306.209 446.544 307.223V311.5H445.569V307.353C445.569 306.261 444.932 305.494 444.022 305.494C442.956 305.494 442.202 306.209 442.202 307.223V311.5H441.227V304.779H442.202V305.767C442.54 305.065 443.268 304.623 444.152 304.623C445.218 304.623 446.05 305.247 446.388 306.222C446.596 305.273 447.428 304.623 448.494 304.623ZM455.729 310.785C456.522 310.785 457.432 310.434 457.848 309.979L458.446 310.616C457.861 311.253 456.678 311.656 455.742 311.656C453.948 311.656 452.336 310.187 452.336 308.12C452.336 306.118 453.844 304.623 455.651 304.623C457.679 304.623 458.836 306.157 458.836 308.51H453.337C453.48 309.823 454.403 310.785 455.729 310.785ZM455.69 305.494C454.494 305.494 453.532 306.339 453.35 307.639H457.874C457.744 306.43 457.029 305.494 455.69 305.494ZM461.35 306.092C461.753 305.195 462.715 304.623 463.95 304.623V305.494C462.429 305.494 461.35 306.43 461.35 307.743V311.5H460.375V304.779H461.35V306.092ZM465.923 303.557C465.559 303.557 465.273 303.258 465.273 302.907C465.273 302.569 465.559 302.27 465.923 302.27C466.274 302.27 466.56 302.569 466.56 302.907C466.56 303.258 466.274 303.557 465.923 303.557ZM465.429 311.5V304.779H466.404V311.5H465.429ZM471.452 311.656C469.567 311.656 467.968 310.044 467.968 308.133C467.968 306.222 469.567 304.623 471.452 304.623C472.362 304.623 473.207 305 473.844 305.611L473.168 306.274C472.726 305.793 472.115 305.494 471.452 305.494C470.113 305.494 468.995 306.703 468.995 308.133C468.995 309.576 470.113 310.785 471.452 310.785C472.128 310.785 472.752 310.473 473.207 309.966L473.883 310.629C473.246 311.266 472.388 311.656 471.452 311.656ZM477.612 304.623C479.445 304.623 480.342 305.78 480.342 307.405V311.5H479.367V310.447C478.886 311.24 477.885 311.656 477.001 311.656C475.584 311.656 474.544 310.837 474.544 309.511C474.544 308.172 475.74 307.275 477.183 307.275C477.911 307.275 478.678 307.431 479.367 307.652V307.405C479.367 306.495 479.003 305.455 477.547 305.455C476.871 305.455 476.195 305.754 475.584 306.066L475.194 305.273C476.156 304.792 476.962 304.623 477.612 304.623ZM477.17 310.798C478.054 310.798 479.107 310.343 479.367 309.394V308.367C478.756 308.198 478.067 308.094 477.339 308.094C476.338 308.094 475.493 308.666 475.493 309.472C475.493 310.304 476.221 310.798 477.17 310.798Z" fill="#E3EAED"/>
<path d="M383 331.5C383 335.642 379.642 339 375.5 339C371.358 339 368 335.642 368 331.5C368 327.358 371.358 324 375.5 324C379.642 324 383 327.358 383 331.5Z" fill="#1B2B32" stroke="#CBD4D8"/>
<path d="M399.326 327.531H393.944V330.469H398.793V331.431H393.944V334.538H399.326V335.5H392.917V326.569H399.326V327.531ZM405.664 328.779H406.639V335.5H405.664V334.434C405.274 335.149 404.416 335.656 403.454 335.656C401.959 335.656 400.932 334.603 400.932 333.056V328.779H401.907V332.926C401.907 334.031 402.596 334.785 403.584 334.785C404.728 334.785 405.664 334.005 405.664 333.056V328.779ZM409.77 330.092C410.173 329.195 411.135 328.623 412.37 328.623V329.494C410.849 329.494 409.77 330.43 409.77 331.743V335.5H408.795V328.779H409.77V330.092ZM416.736 335.656C414.825 335.656 413.265 334.07 413.265 332.133C413.265 330.196 414.825 328.623 416.736 328.623C418.634 328.623 420.194 330.196 420.194 332.133C420.194 334.07 418.634 335.656 416.736 335.656ZM416.736 334.785C418.075 334.785 419.18 333.589 419.18 332.133C419.18 330.677 418.075 329.494 416.736 329.494C415.384 329.494 414.279 330.677 414.279 332.133C414.279 333.589 415.384 334.785 416.736 334.785ZM425.192 328.623C426.96 328.623 428.286 330.079 428.286 332.133C428.286 334.2 426.96 335.656 425.192 335.656C424.113 335.656 423.255 335.123 422.748 334.239V337.736H421.773V328.779H422.748V330.04C423.255 329.156 424.113 328.623 425.192 328.623ZM425.01 334.785C426.323 334.785 427.259 333.68 427.259 332.133C427.259 330.586 426.323 329.494 425.01 329.494C423.684 329.494 422.748 330.586 422.748 332.133C422.748 333.68 423.684 334.785 425.01 334.785ZM432.759 334.785C433.552 334.785 434.462 334.434 434.878 333.979L435.476 334.616C434.891 335.253 433.708 335.656 432.772 335.656C430.978 335.656 429.366 334.187 429.366 332.12C429.366 330.118 430.874 328.623 432.681 328.623C434.709 328.623 435.866 330.157 435.866 332.51H430.367C430.51 333.823 431.433 334.785 432.759 334.785ZM432.72 329.494C431.524 329.494 430.562 330.339 430.38 331.639H434.904C434.774 330.43 434.059 329.494 432.72 329.494Z" fill="#E3EAED"/>
<rect x="0.5" y="0.5" width="927" height="383" rx="3.5" stroke="#4F6169"/>
</svg>
