<svg width="454" height="242" viewBox="0 0 454 242" fill="none" xmlns="http://www.w3.org/2000/svg">
<path d="M153.105 41V34.817H154.221L157.488 39.164V34.817H158.604V41H157.488L154.221 36.653V41H153.105ZM161.904 36.239C163.137 36.239 163.893 37.022 163.893 38.201V41H162.822V40.451C162.48 40.874 161.904 41.108 161.364 41.108C160.374 41.108 159.636 40.523 159.636 39.623C159.636 38.705 160.473 38.075 161.526 38.075C161.949 38.075 162.399 38.165 162.822 38.318V38.201C162.822 37.661 162.534 37.139 161.688 37.139C161.247 37.139 160.824 37.292 160.428 37.49L160.05 36.725C160.707 36.401 161.319 36.239 161.904 36.239ZM161.607 40.307C162.138 40.307 162.705 40.037 162.822 39.542V39.011C162.48 38.903 162.093 38.84 161.688 38.84C161.139 38.84 160.689 39.146 160.689 39.587C160.689 40.028 161.085 40.307 161.607 40.307ZM170.447 36.239C171.419 36.239 172.148 36.986 172.148 38.039V41H171.077V38.219C171.077 37.607 170.708 37.175 170.177 37.175C169.574 37.175 169.151 37.58 169.151 38.147V41H168.089V38.219C168.089 37.607 167.711 37.175 167.18 37.175C166.586 37.175 166.163 37.58 166.163 38.147V41H165.065V36.347H166.163V36.977C166.397 36.527 166.874 36.239 167.459 36.239C168.197 36.239 168.791 36.671 169.034 37.346C169.16 36.68 169.718 36.239 170.447 36.239ZM175.376 40.226C175.844 40.226 176.375 40.028 176.672 39.74L177.302 40.388C176.897 40.82 176.087 41.108 175.412 41.108C174.071 41.108 172.964 40.091 172.964 38.66C172.964 37.256 174.017 36.239 175.349 36.239C176.789 36.239 177.635 37.301 177.635 38.993H174.026C174.143 39.722 174.656 40.226 175.376 40.226ZM175.358 37.121C174.692 37.121 174.179 37.571 174.035 38.264H176.573C176.474 37.607 176.06 37.121 175.358 37.121Z" fill="#ACB8BE"/>
<path opacity="0.4" d="M193.056 48H154.343C153.187 48 152.25 48.8818 152.25 49.9696C152.25 51.0575 153.187 51.9393 154.343 51.9393H193.056C194.211 51.9393 195.148 51.0575 195.148 49.9696C195.148 48.8818 194.211 48 193.056 48Z" fill="#ACB8BE"/>
<path opacity="0.4" d="M256.695 48H201.241C200.085 48 199.148 48.8818 199.148 49.9696C199.148 51.0575 200.085 51.9393 201.241 51.9393H256.695C257.85 51.9393 258.787 51.0575 258.787 49.9696C258.787 48.8818 257.85 48 256.695 48Z" fill="#ACB8BE"/>
<path d="M301.25 55.9393H152.25V57.9393H301.25V55.9393Z" fill="#CBD4D8" mask="url(#path-3-inside-1_8990_25808)"/>
<path d="M155.004 72.226C155.472 72.226 156.003 72.028 156.3 71.74L156.93 72.388C156.525 72.82 155.715 73.108 155.04 73.108C153.699 73.108 152.592 72.091 152.592 70.66C152.592 69.256 153.645 68.239 154.977 68.239C156.417 68.239 157.263 69.301 157.263 70.993H153.654C153.771 71.722 154.284 72.226 155.004 72.226ZM154.986 69.121C154.32 69.121 153.807 69.571 153.663 70.264H156.201C156.102 69.607 155.688 69.121 154.986 69.121ZM163.525 68.239C164.497 68.239 165.226 68.986 165.226 70.039V73H164.155V70.219C164.155 69.607 163.786 69.175 163.255 69.175C162.652 69.175 162.229 69.58 162.229 70.147V73H161.167V70.219C161.167 69.607 160.789 69.175 160.258 69.175C159.664 69.175 159.241 69.58 159.241 70.147V73H158.143V68.347H159.241V68.977C159.475 68.527 159.952 68.239 160.537 68.239C161.275 68.239 161.869 68.671 162.112 69.346C162.238 68.68 162.796 68.239 163.525 68.239ZM168.246 68.239C169.479 68.239 170.235 69.022 170.235 70.201V73H169.164V72.451C168.822 72.874 168.246 73.108 167.706 73.108C166.716 73.108 165.978 72.523 165.978 71.623C165.978 70.705 166.815 70.075 167.868 70.075C168.291 70.075 168.741 70.165 169.164 70.318V70.201C169.164 69.661 168.876 69.139 168.03 69.139C167.589 69.139 167.166 69.292 166.77 69.49L166.392 68.725C167.049 68.401 167.661 68.239 168.246 68.239ZM167.949 72.307C168.48 72.307 169.047 72.037 169.164 71.542V71.011C168.822 70.903 168.435 70.84 168.03 70.84C167.481 70.84 167.031 71.146 167.031 71.587C167.031 72.028 167.427 72.307 167.949 72.307ZM171.956 67.645C171.605 67.645 171.326 67.348 171.326 67.015C171.326 66.682 171.605 66.394 171.956 66.394C172.298 66.394 172.577 66.682 172.577 67.015C172.577 67.348 172.298 67.645 171.956 67.645ZM171.407 73V68.347H172.505V73H171.407ZM173.777 73V66.709H174.875V73H173.777Z" fill="#ACB8BE"/>
<path opacity="0.4" d="M233.056 80H154.343C153.187 80 152.25 80.8818 152.25 81.9696C152.25 83.0575 153.187 83.9393 154.343 83.9393H233.056C234.211 83.9393 235.148 83.0575 235.148 81.9696C235.148 80.8818 234.211 80 233.056 80Z" fill="#ACB8BE"/>
<path d="M301.25 87.9393H152.25V89.9393H301.25V87.9393Z" fill="#CBD4D8" mask="url(#path-8-inside-2_8990_25808)"/>
<path d="M153.105 105V98.817H155.796C157.11 98.817 158.109 99.663 158.109 100.869C158.109 102.075 157.11 102.921 155.796 102.921H154.221V105H153.105ZM154.221 101.886H155.661C156.426 101.886 156.957 101.499 156.957 100.869C156.957 100.239 156.426 99.852 155.661 99.852H154.221V101.886ZM161.603 100.239C162.629 100.239 163.34 100.977 163.34 102.039V105H162.269V102.255C162.269 101.616 161.873 101.175 161.297 101.175C160.667 101.175 160.163 101.616 160.163 102.183V105H159.065V98.709H160.163V100.977C160.442 100.536 160.982 100.239 161.603 100.239ZM166.653 105.108C165.276 105.108 164.151 104.01 164.151 102.669C164.151 101.328 165.276 100.239 166.653 100.239C168.021 100.239 169.137 101.328 169.137 102.669C169.137 104.01 168.021 105.108 166.653 105.108ZM166.653 104.172C167.427 104.172 168.066 103.497 168.066 102.669C168.066 101.841 167.427 101.175 166.653 101.175C165.87 101.175 165.231 101.841 165.231 102.669C165.231 103.497 165.87 104.172 166.653 104.172ZM172.592 100.239C173.618 100.239 174.329 100.977 174.329 102.039V105H173.258V102.255C173.258 101.616 172.862 101.175 172.286 101.175C171.656 101.175 171.152 101.616 171.152 102.183V105H170.054V100.347H171.152V100.977C171.431 100.536 171.971 100.239 172.592 100.239ZM177.57 104.226C178.038 104.226 178.569 104.028 178.866 103.74L179.496 104.388C179.091 104.82 178.281 105.108 177.606 105.108C176.265 105.108 175.158 104.091 175.158 102.66C175.158 101.256 176.211 100.239 177.543 100.239C178.983 100.239 179.829 101.301 179.829 102.993H176.22C176.337 103.722 176.85 104.226 177.57 104.226ZM177.552 101.121C176.886 101.121 176.373 101.571 176.229 102.264H178.767C178.668 101.607 178.254 101.121 177.552 101.121ZM185.607 100.239C186.633 100.239 187.344 100.977 187.344 102.039V105H186.273V102.255C186.273 101.616 185.877 101.175 185.301 101.175C184.671 101.175 184.167 101.616 184.167 102.183V105H183.069V100.347H184.167V100.977C184.446 100.536 184.986 100.239 185.607 100.239ZM191.593 100.347H192.691V105H191.593V104.37C191.314 104.811 190.774 105.108 190.153 105.108C189.127 105.108 188.416 104.37 188.416 103.308V100.347H189.487V103.092C189.487 103.731 189.883 104.172 190.459 104.172C191.089 104.172 191.593 103.731 191.593 103.164V100.347ZM199.343 100.239C200.315 100.239 201.044 100.986 201.044 102.039V105H199.973V102.219C199.973 101.607 199.604 101.175 199.073 101.175C198.47 101.175 198.047 101.58 198.047 102.147V105H196.985V102.219C196.985 101.607 196.607 101.175 196.076 101.175C195.482 101.175 195.059 101.58 195.059 102.147V105H193.961V100.347H195.059V100.977C195.293 100.527 195.77 100.239 196.355 100.239C197.093 100.239 197.687 100.671 197.93 101.346C198.056 100.68 198.614 100.239 199.343 100.239ZM204.947 100.239C206.18 100.239 207.089 101.247 207.089 102.669C207.089 104.1 206.18 105.108 204.947 105.108C204.236 105.108 203.66 104.775 203.3 104.208V105H202.202V98.709H203.3V101.13C203.66 100.572 204.236 100.239 204.947 100.239ZM204.65 104.172C205.442 104.172 206 103.542 206 102.669C206 101.796 205.442 101.175 204.65 101.175C203.885 101.175 203.336 101.796 203.336 102.669C203.336 103.542 203.885 104.172 204.65 104.172ZM210.105 104.226C210.573 104.226 211.104 104.028 211.401 103.74L212.031 104.388C211.626 104.82 210.816 105.108 210.141 105.108C208.8 105.108 207.693 104.091 207.693 102.66C207.693 101.256 208.746 100.239 210.078 100.239C211.518 100.239 212.364 101.301 212.364 102.993H208.755C208.872 103.722 209.385 104.226 210.105 104.226ZM210.087 101.121C209.421 101.121 208.908 101.571 208.764 102.264H211.302C211.203 101.607 210.789 101.121 210.087 101.121ZM214.341 101.229C214.638 100.626 215.25 100.239 216.006 100.239V101.175C215.007 101.175 214.341 101.769 214.341 102.651V105H213.243V100.347H214.341V101.229Z" fill="#ACB8BE"/>
<path opacity="0.4" d="M169.056 112H154.343C153.187 112 152.25 112.882 152.25 113.97C152.25 115.057 153.187 115.939 154.343 115.939H169.056C170.211 115.939 171.148 115.057 171.148 113.97C171.148 112.882 170.211 112 169.056 112Z" fill="#ACB8BE"/>
<path opacity="0.4" d="M193.954 112H179.241C178.085 112 177.148 112.882 177.148 113.97C177.148 115.057 178.085 115.939 179.241 115.939H193.954C195.109 115.939 196.046 115.057 196.046 113.97C196.046 112.882 195.109 112 193.954 112Z" fill="#ACB8BE"/>
<path opacity="0.4" d="M229.852 112H204.139C202.983 112 202.046 112.882 202.046 113.97C202.046 115.057 202.983 115.939 204.139 115.939H229.852C231.007 115.939 231.944 115.057 231.944 113.97C231.944 112.882 231.007 112 229.852 112Z" fill="#ACB8BE"/>
<path d="M301.25 119.939H152.25V121.939H301.25V119.939Z" fill="#CBD4D8" mask="url(#path-12-inside-3_8990_25808)"/>
<path d="M155.94 161.108C154.185 161.108 152.7 159.641 152.7 157.904C152.7 156.167 154.185 154.709 155.94 154.709C156.849 154.709 157.686 155.096 158.28 155.708L157.479 156.455C157.092 156.014 156.543 155.735 155.94 155.735C154.806 155.735 153.843 156.725 153.843 157.904C153.843 159.092 154.806 160.082 155.94 160.082C156.543 160.082 157.092 159.803 157.488 159.362L158.28 160.1C157.686 160.721 156.849 161.108 155.94 161.108ZM161.313 161.108C159.936 161.108 158.811 160.01 158.811 158.669C158.811 157.328 159.936 156.239 161.313 156.239C162.681 156.239 163.797 157.328 163.797 158.669C163.797 160.01 162.681 161.108 161.313 161.108ZM161.313 160.172C162.087 160.172 162.726 159.497 162.726 158.669C162.726 157.841 162.087 157.175 161.313 157.175C160.53 157.175 159.891 157.841 159.891 158.669C159.891 159.497 160.53 160.172 161.313 160.172ZM170.095 156.239C171.067 156.239 171.796 156.986 171.796 158.039V161H170.725V158.219C170.725 157.607 170.356 157.175 169.825 157.175C169.222 157.175 168.799 157.58 168.799 158.147V161H167.737V158.219C167.737 157.607 167.359 157.175 166.828 157.175C166.234 157.175 165.811 157.58 165.811 158.147V161H164.713V156.347H165.811V156.977C166.045 156.527 166.522 156.239 167.107 156.239C167.845 156.239 168.439 156.671 168.682 157.346C168.808 156.68 169.366 156.239 170.095 156.239ZM175.663 156.239C176.896 156.239 177.796 157.247 177.796 158.669C177.796 160.1 176.896 161.108 175.663 161.108C174.979 161.108 174.421 160.802 174.052 160.28V162.548H172.954V156.347H174.052V157.067C174.421 156.545 174.979 156.239 175.663 156.239ZM175.366 160.172C176.149 160.172 176.707 159.542 176.707 158.669C176.707 157.796 176.149 157.175 175.366 157.175C174.592 157.175 174.052 157.796 174.052 158.669C174.052 159.542 174.592 160.172 175.366 160.172ZM180.615 156.239C181.848 156.239 182.604 157.022 182.604 158.201V161H181.533V160.451C181.191 160.874 180.615 161.108 180.075 161.108C179.085 161.108 178.347 160.523 178.347 159.623C178.347 158.705 179.184 158.075 180.237 158.075C180.66 158.075 181.11 158.165 181.533 158.318V158.201C181.533 157.661 181.245 157.139 180.399 157.139C179.958 157.139 179.535 157.292 179.139 157.49L178.761 156.725C179.418 156.401 180.03 156.239 180.615 156.239ZM180.318 160.307C180.849 160.307 181.416 160.037 181.533 159.542V159.011C181.191 158.903 180.804 158.84 180.399 158.84C179.85 158.84 179.4 159.146 179.4 159.587C179.4 160.028 179.796 160.307 180.318 160.307ZM186.314 156.239C187.34 156.239 188.051 156.977 188.051 158.039V161H186.98V158.255C186.98 157.616 186.584 157.175 186.008 157.175C185.378 157.175 184.874 157.616 184.874 158.183V161H183.776V156.347H184.874V156.977C185.153 156.536 185.693 156.239 186.314 156.239ZM190.005 162.62C189.654 162.62 189.267 162.53 188.988 162.377L189.222 161.585C189.42 161.693 189.645 161.756 189.816 161.756C190.077 161.756 190.275 161.675 190.41 161.45L190.608 161.036L188.637 156.347H189.798L191.157 159.821L192.435 156.347H193.569L191.598 161.324C191.247 162.206 190.707 162.611 190.005 162.62Z" fill="#ACB8BE"/>
<path opacity="0.4" d="M233.056 168H154.343C153.187 168 152.25 168.882 152.25 169.97C152.25 171.057 153.187 171.939 154.343 171.939H233.056C234.211 171.939 235.148 171.057 235.148 169.97C235.148 168.882 234.211 168 233.056 168Z" fill="#ACB8BE"/>
<path d="M301.25 175.939H152.25V177.939H301.25V175.939Z" fill="#CBD4D8" mask="url(#path-18-inside-4_8990_25808)"/>
<path d="M154.473 193.108C153.708 193.108 152.862 192.685 152.466 192.082L153.222 191.344C153.438 191.776 153.915 192.091 154.383 192.091C154.986 192.091 155.427 191.605 155.427 190.912V186.817H156.543V190.984C156.543 192.226 155.688 193.108 154.473 193.108ZM160.021 193.108C158.644 193.108 157.519 192.01 157.519 190.669C157.519 189.328 158.644 188.239 160.021 188.239C161.389 188.239 162.505 189.328 162.505 190.669C162.505 192.01 161.389 193.108 160.021 193.108ZM160.021 192.172C160.795 192.172 161.434 191.497 161.434 190.669C161.434 189.841 160.795 189.175 160.021 189.175C159.238 189.175 158.599 189.841 158.599 190.669C158.599 191.497 159.238 192.172 160.021 192.172ZM166.167 188.239C167.4 188.239 168.309 189.247 168.309 190.669C168.309 192.1 167.4 193.108 166.167 193.108C165.456 193.108 164.88 192.775 164.52 192.208V193H163.422V186.709H164.52V189.13C164.88 188.572 165.456 188.239 166.167 188.239ZM165.87 192.172C166.662 192.172 167.22 191.542 167.22 190.669C167.22 189.796 166.662 189.175 165.87 189.175C165.105 189.175 164.556 189.796 164.556 190.669C164.556 191.542 165.105 192.172 165.87 192.172ZM173.793 192.001L174.108 192.739C173.847 192.964 173.469 193.108 173.109 193.108C172.344 193.108 171.804 192.55 171.804 191.767V189.256H171.129V188.347H171.804V187.069H172.866V188.347H173.919V189.256H172.866V191.632C172.866 191.947 173.073 192.172 173.334 192.172C173.523 192.172 173.694 192.1 173.793 192.001ZM175.457 187.645C175.106 187.645 174.827 187.348 174.827 187.015C174.827 186.682 175.106 186.394 175.457 186.394C175.799 186.394 176.078 186.682 176.078 187.015C176.078 187.348 175.799 187.645 175.457 187.645ZM174.908 193V188.347H176.006V193H174.908ZM179.455 192.001L179.77 192.739C179.509 192.964 179.131 193.108 178.771 193.108C178.006 193.108 177.466 192.55 177.466 191.767V189.256H176.791V188.347H177.466V187.069H178.528V188.347H179.581V189.256H178.528V191.632C178.528 191.947 178.735 192.172 178.996 192.172C179.185 192.172 179.356 192.1 179.455 192.001ZM180.57 193V186.709H181.668V193H180.57ZM185.01 192.226C185.478 192.226 186.009 192.028 186.306 191.74L186.936 192.388C186.531 192.82 185.721 193.108 185.046 193.108C183.705 193.108 182.598 192.091 182.598 190.66C182.598 189.256 183.651 188.239 184.983 188.239C186.423 188.239 187.269 189.301 187.269 190.993H183.66C183.777 191.722 184.29 192.226 185.01 192.226ZM184.992 189.121C184.326 189.121 183.813 189.571 183.669 190.264H186.207C186.108 189.607 185.694 189.121 184.992 189.121Z" fill="#ACB8BE"/>
<path opacity="0.4" d="M253.056 200H154.343C153.187 200 152.25 200.882 152.25 201.97C152.25 203.057 153.187 203.939 154.343 203.939H253.056C254.211 203.939 255.148 203.057 255.148 201.97C255.148 200.882 254.211 200 253.056 200Z" fill="#ACB8BE"/>
<path d="M301.25 207.939H152.25V209.939H301.25V207.939Z" fill="#CBD4D8" mask="url(#path-22-inside-5_8990_25808)"/>
<path d="M0.75 5C0.75 2.79086 2.54086 1 4.75 1H448.75C450.959 1 452.75 2.79086 452.75 5V241H0.75V5Z" stroke="#4F6169"/>
</svg>
