<svg width="281" height="60" viewBox="0 0 281 60" fill="none" xmlns="http://www.w3.org/2000/svg">
<path d="M3.347 22.518H7.936V24H1.735V15.069H3.347V22.518ZM11.8866 17.123C13.6676 17.123 14.7596 18.254 14.7596 19.957V24H13.2126V23.207C12.7186 23.818 11.8866 24.156 11.1066 24.156C9.67662 24.156 8.61062 23.311 8.61062 22.011C8.61062 20.685 9.81962 19.775 11.3406 19.775C11.9516 19.775 12.6016 19.905 13.2126 20.126V19.957C13.2126 19.177 12.7966 18.423 11.5746 18.423C10.9376 18.423 10.3266 18.644 9.75462 18.93L9.20862 17.825C10.1576 17.357 11.0416 17.123 11.8866 17.123ZM11.4576 22.999C12.2246 22.999 13.0436 22.609 13.2126 21.894V21.127C12.7186 20.971 12.1596 20.88 11.5746 20.88C10.7816 20.88 10.1316 21.322 10.1316 21.959C10.1316 22.596 10.7036 22.999 11.4576 22.999ZM20.462 17.123C22.243 17.123 23.556 18.579 23.556 20.633C23.556 22.7 22.243 24.156 20.462 24.156C19.435 24.156 18.603 23.675 18.083 22.856V24H16.497V14.913H18.083V18.41C18.603 17.604 19.435 17.123 20.462 17.123ZM20.033 22.804C21.177 22.804 21.983 21.894 21.983 20.633C21.983 19.372 21.177 18.475 20.033 18.475C18.928 18.475 18.135 19.372 18.135 20.633C18.135 21.894 18.928 22.804 20.033 22.804ZM27.9563 22.882C28.6323 22.882 29.3993 22.596 29.8283 22.18L30.7383 23.116C30.1533 23.74 28.9833 24.156 28.0083 24.156C26.0713 24.156 24.4723 22.687 24.4723 20.62C24.4723 18.592 25.9933 17.123 27.9173 17.123C29.9973 17.123 31.2193 18.657 31.2193 21.101H26.0063C26.1753 22.154 26.9163 22.882 27.9563 22.882ZM27.9303 18.397C26.9683 18.397 26.2273 19.047 26.0193 20.048H29.6853C29.5423 19.099 28.9443 18.397 27.9303 18.397ZM32.5343 24V14.913H34.1203V24H32.5343Z" fill="#ACB8BE"/>
<path d="M67.917 24V15.069H68.931V24H67.917ZM74.5627 17.123C76.0577 17.123 77.0847 18.176 77.0847 19.723V24H76.1097V19.853C76.1097 18.748 75.4207 17.994 74.4327 17.994C73.2887 17.994 72.3527 18.774 72.3527 19.723V24H71.3777V17.279H72.3527V18.345C72.7427 17.63 73.6007 17.123 74.5627 17.123ZM82.5043 17.123C84.2723 17.123 85.5983 18.579 85.5983 20.633C85.5983 22.7 84.2723 24.156 82.5043 24.156C81.4253 24.156 80.5673 23.623 80.0603 22.739V26.236H79.0853V17.279H80.0603V18.54C80.5673 17.656 81.4253 17.123 82.5043 17.123ZM82.3223 23.285C83.6353 23.285 84.5713 22.18 84.5713 20.633C84.5713 19.086 83.6353 17.994 82.3223 17.994C80.9963 17.994 80.0603 19.086 80.0603 20.633C80.0603 22.18 80.9963 23.285 82.3223 23.285ZM91.8133 17.279H92.7883V24H91.8133V22.934C91.4233 23.649 90.5653 24.156 89.6033 24.156C88.1083 24.156 87.0813 23.103 87.0813 21.556V17.279H88.0563V21.426C88.0563 22.531 88.7453 23.285 89.7333 23.285C90.8773 23.285 91.8133 22.505 91.8133 21.556V17.279ZM97.5449 23.012L98.0259 23.727C97.6749 24 97.2329 24.156 96.7779 24.156C95.8159 24.156 95.1399 23.441 95.1399 22.44V18.15H94.0869V17.279H95.1399V15.433H96.1149V17.279H97.7659V18.15H96.1149V22.44C96.1149 22.934 96.4529 23.285 96.8429 23.285C97.1419 23.285 97.4019 23.168 97.5449 23.012ZM104.665 24L101.805 17.279H102.897L105.133 22.856L107.33 17.279H108.422L105.601 24H104.665ZM111.992 17.123C113.825 17.123 114.722 18.28 114.722 19.905V24H113.747V22.947C113.266 23.74 112.265 24.156 111.381 24.156C109.964 24.156 108.924 23.337 108.924 22.011C108.924 20.672 110.12 19.775 111.563 19.775C112.291 19.775 113.058 19.931 113.747 20.152V19.905C113.747 18.995 113.383 17.955 111.927 17.955C111.251 17.955 110.575 18.254 109.964 18.566L109.574 17.773C110.536 17.292 111.342 17.123 111.992 17.123ZM111.55 23.298C112.434 23.298 113.487 22.843 113.747 21.894V20.867C113.136 20.698 112.447 20.594 111.719 20.594C110.718 20.594 109.873 21.166 109.873 21.972C109.873 22.804 110.601 23.298 111.55 23.298ZM116.724 24V14.913H117.699V24H116.724ZM124.437 17.279H125.412V24H124.437V22.934C124.047 23.649 123.189 24.156 122.227 24.156C120.732 24.156 119.705 23.103 119.705 21.556V17.279H120.68V21.426C120.68 22.531 121.369 23.285 122.357 23.285C123.501 23.285 124.437 22.505 124.437 21.556V17.279ZM130.403 23.285C131.196 23.285 132.106 22.934 132.522 22.479L133.119 23.116C132.535 23.753 131.352 24.156 130.416 24.156C128.622 24.156 127.01 22.687 127.01 20.62C127.01 18.618 128.518 17.123 130.325 17.123C132.353 17.123 133.51 18.657 133.51 21.01H128.011C128.153 22.323 129.077 23.285 130.403 23.285ZM130.364 17.994C129.168 17.994 128.206 18.839 128.024 20.139H132.548C132.418 18.93 131.703 17.994 130.364 17.994Z" fill="#E3EAED"/>
<path d="M242.5 31H58.5V33H242.5V31Z" fill="#67CA16" mask="url(#path-2-inside-1_8990_25789)"/>
<path fill-rule="evenodd" clip-rule="evenodd" d="M254.5 12C250.082 12 246.5 15.5817 246.5 20C246.5 24.4183 250.082 28 254.5 28C258.918 28 262.5 24.4183 262.5 20C262.5 17.8783 261.657 15.8434 260.157 14.3431C258.657 12.8429 256.622 12 254.5 12ZM254.5 26.6667C250.818 26.6667 247.833 23.6819 247.833 20C247.833 16.3181 250.818 13.3333 254.5 13.3333C258.182 13.3333 261.167 16.3181 261.167 20C261.167 21.7681 260.464 23.4638 259.214 24.714C257.964 25.9643 256.268 26.6667 254.5 26.6667ZM250.06 20.4933L253.393 23.8267L258.853 18.3667C259.08 18.1022 259.065 17.7079 258.818 17.4616C258.572 17.2154 258.178 17.2001 257.913 17.4267L253.393 21.9467L251 19.5533C250.735 19.3268 250.341 19.342 250.095 19.5883C249.849 19.8345 249.833 20.2288 250.06 20.4933Z" fill="#67CA16"/>
<path d="M61.987 47.121C60.744 47.121 59.765 46.67 59.006 45.922L59.545 45.251C60.183 45.889 60.964 46.34 62.02 46.34C63.186 46.34 63.78 45.702 63.78 45.02C63.78 44.217 63.065 43.898 61.745 43.59C60.227 43.238 59.27 42.765 59.27 41.456C59.27 40.246 60.348 39.311 61.8 39.311C62.922 39.311 63.758 39.751 64.451 40.389L63.923 41.06C63.296 40.455 62.548 40.092 61.756 40.092C60.821 40.092 60.139 40.697 60.139 41.39C60.139 42.171 60.887 42.446 62.174 42.754C63.615 43.095 64.649 43.612 64.649 44.943C64.649 46.142 63.747 47.121 61.987 47.121ZM70.2644 41.313H71.0894V47H70.2644V46.098C69.9344 46.703 69.2084 47.132 68.3944 47.132C67.1294 47.132 66.2604 46.241 66.2604 44.932V41.313H67.0854V44.822C67.0854 45.757 67.6684 46.395 68.5044 46.395C69.4724 46.395 70.2644 45.735 70.2644 44.932V41.313ZM75.6408 47.132C74.0458 47.132 72.6928 45.768 72.6928 44.151C72.6928 42.534 74.0458 41.181 75.6408 41.181C76.4108 41.181 77.1258 41.5 77.6648 42.017L77.0928 42.578C76.7188 42.171 76.2018 41.918 75.6408 41.918C74.5078 41.918 73.5618 42.941 73.5618 44.151C73.5618 45.372 74.5078 46.395 75.6408 46.395C76.2128 46.395 76.7408 46.131 77.1258 45.702L77.6978 46.263C77.1588 46.802 76.4328 47.132 75.6408 47.132ZM81.5449 47.132C79.9499 47.132 78.5969 45.768 78.5969 44.151C78.5969 42.534 79.9499 41.181 81.5449 41.181C82.3149 41.181 83.0299 41.5 83.5689 42.017L82.9969 42.578C82.6229 42.171 82.1059 41.918 81.5449 41.918C80.4119 41.918 79.4659 42.941 79.4659 44.151C79.4659 45.372 80.4119 46.395 81.5449 46.395C82.1169 46.395 82.6449 46.131 83.0299 45.702L83.6019 46.263C83.0629 46.802 82.3369 47.132 81.5449 47.132ZM87.405 46.395C88.076 46.395 88.846 46.098 89.198 45.713L89.704 46.252C89.209 46.791 88.208 47.132 87.416 47.132C85.898 47.132 84.534 45.889 84.534 44.14C84.534 42.446 85.81 41.181 87.339 41.181C89.055 41.181 90.034 42.479 90.034 44.47H85.381C85.502 45.581 86.283 46.395 87.405 46.395ZM87.372 41.918C86.36 41.918 85.546 42.633 85.392 43.733H89.22C89.11 42.71 88.505 41.918 87.372 41.918ZM93.3801 47.132C92.5881 47.132 91.7081 46.835 91.0261 46.285L91.4551 45.68C92.1041 46.153 92.7531 46.395 93.3801 46.395C94.1281 46.395 94.6341 46.043 94.6341 45.504C94.6341 44.888 93.9741 44.69 93.2041 44.47C91.8291 44.074 91.3011 43.667 91.3011 42.853C91.3011 41.819 92.1591 41.181 93.2921 41.181C93.9961 41.181 94.7221 41.423 95.3271 41.819L94.9311 42.457C94.3591 42.094 93.7981 41.918 93.2921 41.918C92.6541 41.918 92.1261 42.204 92.1261 42.754C92.1261 43.249 92.5441 43.403 93.6001 43.744C94.5131 44.03 95.4591 44.338 95.4591 45.416C95.4591 46.461 94.5571 47.132 93.3801 47.132ZM98.833 47.132C98.041 47.132 97.161 46.835 96.479 46.285L96.908 45.68C97.557 46.153 98.206 46.395 98.833 46.395C99.581 46.395 100.087 46.043 100.087 45.504C100.087 44.888 99.427 44.69 98.657 44.47C97.282 44.074 96.754 43.667 96.754 42.853C96.754 41.819 97.612 41.181 98.745 41.181C99.449 41.181 100.175 41.423 100.78 41.819L100.384 42.457C99.812 42.094 99.251 41.918 98.745 41.918C98.107 41.918 97.579 42.204 97.579 42.754C97.579 43.249 97.997 43.403 99.053 43.744C99.966 44.03 100.912 44.338 100.912 45.416C100.912 46.461 100.01 47.132 98.833 47.132ZM105.997 47V39.443H106.855L109.66 44.712L112.465 39.443H113.323V47H112.465V41.291L109.66 46.56L106.855 41.291V47H105.997ZM118.075 46.395C118.746 46.395 119.516 46.098 119.868 45.713L120.374 46.252C119.879 46.791 118.878 47.132 118.086 47.132C116.568 47.132 115.204 45.889 115.204 44.14C115.204 42.446 116.48 41.181 118.009 41.181C119.725 41.181 120.704 42.479 120.704 44.47H116.051C116.172 45.581 116.953 46.395 118.075 46.395ZM118.042 41.918C117.03 41.918 116.216 42.633 116.062 43.733H119.89C119.78 42.71 119.175 41.918 118.042 41.918ZM124.05 47.132C123.258 47.132 122.378 46.835 121.696 46.285L122.125 45.68C122.774 46.153 123.423 46.395 124.05 46.395C124.798 46.395 125.304 46.043 125.304 45.504C125.304 44.888 124.644 44.69 123.874 44.47C122.499 44.074 121.971 43.667 121.971 42.853C121.971 41.819 122.829 41.181 123.962 41.181C124.666 41.181 125.392 41.423 125.997 41.819L125.601 42.457C125.029 42.094 124.468 41.918 123.962 41.918C123.324 41.918 122.796 42.204 122.796 42.754C122.796 43.249 123.214 43.403 124.27 43.744C125.183 44.03 126.129 44.338 126.129 45.416C126.129 46.461 125.227 47.132 124.05 47.132ZM129.503 47.132C128.711 47.132 127.831 46.835 127.149 46.285L127.578 45.68C128.227 46.153 128.876 46.395 129.503 46.395C130.251 46.395 130.757 46.043 130.757 45.504C130.757 44.888 130.097 44.69 129.327 44.47C127.952 44.074 127.424 43.667 127.424 42.853C127.424 41.819 128.282 41.181 129.415 41.181C130.119 41.181 130.845 41.423 131.45 41.819L131.054 42.457C130.482 42.094 129.921 41.918 129.415 41.918C128.777 41.918 128.249 42.204 128.249 42.754C128.249 43.249 128.667 43.403 129.723 43.744C130.636 44.03 131.582 44.338 131.582 45.416C131.582 46.461 130.68 47.132 129.503 47.132ZM135.231 41.181C136.782 41.181 137.541 42.16 137.541 43.535V47H136.716V46.109C136.309 46.78 135.462 47.132 134.714 47.132C133.515 47.132 132.635 46.439 132.635 45.317C132.635 44.184 133.647 43.425 134.868 43.425C135.484 43.425 136.133 43.557 136.716 43.744V43.535C136.716 42.765 136.408 41.885 135.176 41.885C134.604 41.885 134.032 42.138 133.515 42.402L133.185 41.731C133.999 41.324 134.681 41.181 135.231 41.181ZM134.857 46.406C135.605 46.406 136.496 46.021 136.716 45.218V44.349C136.199 44.206 135.616 44.118 135 44.118C134.153 44.118 133.438 44.602 133.438 45.284C133.438 45.988 134.054 46.406 134.857 46.406ZM143.71 41.313H144.535V46.395C144.535 47.858 143.38 48.892 141.741 48.892C140.817 48.892 139.959 48.573 139.442 48.133L139.805 47.484C140.245 47.902 140.927 48.155 141.631 48.155C142.94 48.155 143.71 47.506 143.71 46.395V45.471C143.27 46.164 142.544 46.582 141.642 46.582C140.113 46.582 139.024 45.46 139.024 43.876C139.024 42.292 140.113 41.181 141.642 41.181C142.544 41.181 143.27 41.599 143.71 42.292V41.313ZM141.796 45.845C142.918 45.845 143.71 45.031 143.71 43.876C143.71 42.732 142.918 41.918 141.796 41.918C140.685 41.918 139.893 42.732 139.893 43.876C139.893 45.031 140.685 45.845 141.796 45.845ZM149.046 46.395C149.717 46.395 150.487 46.098 150.839 45.713L151.345 46.252C150.85 46.791 149.849 47.132 149.057 47.132C147.539 47.132 146.175 45.889 146.175 44.14C146.175 42.446 147.451 41.181 148.98 41.181C150.696 41.181 151.675 42.479 151.675 44.47H147.022C147.143 45.581 147.924 46.395 149.046 46.395ZM149.013 41.918C148.001 41.918 147.187 42.633 147.033 43.733H150.861C150.751 42.71 150.146 41.918 149.013 41.918Z" fill="#67CA16"/>
</svg>
